<svg width="32" height="32" viewBox="0 0 32 32" fill="none" xmlns="http://www.w3.org/2000/svg">
<g clip-path="url(#clip0_849_21393)">
<path d="M32 0H0V32H32V0Z" fill="#232F3E"/>
<path fill-rule="evenodd" clip-rule="evenodd" d="M18.792 25.248C18.3504 25.248 17.992 24.8888 17.992 24.448C17.992 24.0072 18.3504 23.648 18.792 23.648C19.2336 23.648 19.592 24.0072 19.592 24.448C19.592 24.8888 19.2336 25.248 18.792 25.248ZM22.788 12.0616C22.5976 12.0616 22.4344 12.196 22.396 12.3824L20.676 20.8616H8.72005L7.58405 15.1832L6.80005 15.34L8.00005 21.34C8.03765 21.5272 8.20165 21.6616 8.39205 21.6616H19.2824L18.5512 22.872C17.784 22.9896 17.192 23.648 17.192 24.448C17.192 25.3304 17.9096 26.048 18.792 26.048C19.6744 26.048 20.392 25.3304 20.392 24.448C20.392 23.7896 19.992 23.2232 19.4224 22.9784L20.2176 21.6616H21.004C21.1944 21.6616 21.3576 21.528 21.396 21.3408L23.1152 12.8616H26.392V12.0616H22.788ZM11.5912 25.248C11.1496 25.248 10.7912 24.8888 10.7912 24.448C10.7912 24.0072 11.1496 23.648 11.5912 23.648C12.0328 23.648 12.3912 24.0072 12.3912 24.448C12.3912 24.8888 12.0328 25.248 11.5912 25.248ZM11.5912 22.848C10.7088 22.848 9.99125 23.5656 9.99125 24.448C9.99125 25.3304 10.7088 26.048 11.5912 26.048C12.4736 26.048 13.1912 25.3304 13.1912 24.448C13.1912 23.5656 12.4736 22.848 11.5912 22.848ZM11.592 7.26243L13.9864 8.64483L11.592 10.0016L9.19765 8.64483L11.592 7.26243ZM18.0064 7.26083L20.3816 8.60963L17.9888 10.032L15.5936 8.64883L18.0064 7.26083ZM18.392 13.3472V10.7232L20.7776 9.30483V12.112L18.392 13.3472ZM15.192 18.8968V16.056L17.592 14.692V17.4232L15.192 18.8968ZM11.992 14.844L14.392 16.068V18.8968L11.992 17.4232V14.844ZM14.392 12.112L11.992 13.4976V10.6944L14.392 9.33443V12.112ZM17.592 13.3464L15.192 12.1V9.34083L17.592 10.7264V13.3464ZM14.7816 15.3688L12.4296 14.1688L14.8024 12.7992L17.1544 14.0208L14.7816 15.3688ZM8.79205 9.33443L11.192 10.6944V13.4976L8.79205 12.112V9.33443ZM11.192 14.4216V17.6472C11.192 17.7864 11.264 17.9152 11.3824 17.988L14.5824 19.9528C14.6464 19.992 14.7192 20.012 14.792 20.012C14.8648 20.012 14.9376 19.992 15.0016 19.9528L18.2016 17.988C18.32 17.9152 18.392 17.7864 18.392 17.6472V14.248L21.3616 12.7104C21.4944 12.6416 21.5776 12.5048 21.5776 12.3552V8.60163C21.5776 8.45763 21.5008 8.32483 21.3752 8.25363L18.2024 6.45203C18.0776 6.38243 17.928 6.38243 17.8056 6.45363L14.792 8.18643L11.792 6.45363C11.6688 6.38243 11.5152 6.38243 11.392 6.45363L8.19205 8.30163C8.06885 8.37283 7.99205 8.50483 7.99205 8.64803V12.3432C7.99205 12.4856 8.06885 12.6176 8.19205 12.6896L11.192 14.4216Z" fill="white"/>
</g>
<defs>
<clipPath id="clip0_849_21393">
<rect width="32" height="32" fill="white"/>
</clipPath>
</defs>
</svg>
