<svg width="32" height="32" viewBox="0 0 32 32" fill="none" xmlns="http://www.w3.org/2000/svg">
<g clip-path="url(#clip0_854_27313)">
<path d="M32 0H0V32H32V0Z" fill="url(#paint0_linear_854_27313)"/>
<path fill-rule="evenodd" clip-rule="evenodd" d="M5.60326 12.8158H24.8297V12.0145H5.60326V12.8158ZM14.4154 6.4054H24.8297V5.6041H14.4154V6.4054ZM10.4099 6.4054H12.0121V5.6041H10.4099V6.4054ZM8.00656 6.4054H9.60876V5.6041H8.00656V6.4054ZM5.60326 6.4054H7.20546V5.6041H5.60326V6.4054ZM22.8269 20.0275C22.8269 21.6029 21.5932 22.8369 20.0183 22.8369C18.4433 22.8369 17.2096 21.6029 17.2096 20.0275C17.2096 18.4522 18.4433 17.2182 20.0183 17.2182C21.5932 17.2182 22.8269 18.4522 22.8269 20.0275ZM23.628 20.0275C23.628 18.0026 22.0427 16.4169 20.0183 16.4169C17.9947 16.4169 16.4085 18.0026 16.4085 20.0275C16.4085 22.0524 17.9947 23.6382 20.0183 23.6382C22.0427 23.6382 23.628 22.0524 23.628 20.0275ZM27.8643 26.6976L24.7752 23.6911C24.4628 24.0958 24.1015 24.4579 23.6977 24.772L26.7083 27.8603C26.8164 27.97 26.955 28.0141 27.1232 27.9941C27.3139 27.97 27.5142 27.8611 27.6864 27.6872C27.9772 27.3979 28.1302 26.9644 27.8643 26.6976ZM20.0231 25.236C22.8942 25.236 25.2302 22.8994 25.2302 20.0275C25.2302 17.1557 22.8942 14.8191 20.0231 14.8191C17.1519 14.8191 14.8159 17.1557 14.8159 20.0275C14.8159 22.8994 17.1519 25.236 20.0231 25.236ZM28.2528 28.2545C27.9548 28.5526 27.5895 28.7417 27.2242 28.789C27.1641 28.7962 27.1048 28.8002 27.0463 28.8002C26.7011 28.8002 26.3838 28.6696 26.1387 28.4236L23.0176 25.2296C22.1356 25.74 21.1142 26.0373 20.0231 26.0373C16.7097 26.0373 14.0148 23.3417 14.0148 20.0275C14.0148 16.7134 16.7097 14.0178 20.0231 14.0178C23.3364 14.0178 26.0313 16.7134 26.0313 20.0275C26.0313 21.1149 25.7365 22.1334 25.2294 23.0148L28.4266 26.1271C28.985 26.6856 28.9089 27.599 28.2528 28.2545ZM4.00105 8.00801H26.4319V7.60736V4.40215C26.4319 4.18099 26.2516 4.0015 26.0313 4.0015H4.4016C4.1813 4.0015 4.00105 4.18099 4.00105 4.40215V7.60736V8.00801ZM15.9351 26.438H3.6005C3.3794 26.438 3.19995 26.2585 3.19995 26.0373V8.40866V7.60736V4.40215C3.19995 3.73947 3.73909 3.2002 4.4016 3.2002H26.0313C26.6938 3.2002 27.233 3.73947 27.233 4.40215V7.60736V8.40866V17.6084C27.0335 17.0154 26.7635 16.4561 26.4319 15.9385V8.80931H4.00105V25.6367H14.896C15.2189 25.9323 15.5657 26.2008 15.9351 26.438ZM5.60326 16.021H13.5646C13.7368 15.743 13.9227 15.4729 14.1294 15.2197H5.60326V16.021ZM12.5857 18.4249C12.5296 18.6878 12.4847 18.9546 12.4559 19.2262H5.60326V18.4249H12.5857Z" fill="white"/>
</g>
<defs>
<linearGradient id="paint0_linear_854_27313" x1="-6.6304" y1="38.6304" x2="38.6261" y2="-6.62613" gradientUnits="userSpaceOnUse">
<stop stop-color="#055F4E"/>
<stop offset="1" stop-color="#56C0A7"/>
</linearGradient>
<clipPath id="clip0_854_27313">
<rect width="32" height="32" fill="white"/>
</clipPath>
</defs>
</svg>
