<svg width="32" height="32" viewBox="0 0 32 32" fill="none" xmlns="http://www.w3.org/2000/svg">
<g clip-path="url(#clip0_854_27015)">
<path d="M32 0H0V32H32V0Z" fill="url(#paint0_linear_854_27015)"/>
<path d="M24.7295 25.3995H21.7727V24.5462H23.8762V11.1147H24.7295V25.3995Z" fill="white"/>
<path d="M21.7727 25.3995H5.79834V7.43262H21.1498V8.28595H6.65167V24.5462H21.7727V25.3995Z" fill="white"/>
<path d="M11.5925 16.3757H7.88477V15.5223H11.2981L12.4458 12.4973C12.477 12.4164 12.5321 12.347 12.6038 12.2982C12.6754 12.2494 12.7602 12.2236 12.8469 12.2242H16.6869L18.112 9.6642C18.149 9.5983 18.2029 9.54342 18.2681 9.50518C18.3334 9.46695 18.4076 9.44673 18.4832 9.4466H22.3829L25.1221 7.15967L25.6682 7.81673L22.8138 10.2018C22.7371 10.2654 22.6405 10.3001 22.5408 10.2999H18.7221L17.297 12.8599C17.2605 12.9266 17.2069 12.9824 17.1416 13.0214C17.0764 13.0604 17.0019 13.0812 16.9258 13.0818H13.1413L11.9893 16.1069C11.9577 16.1863 11.903 16.2543 11.8322 16.3022C11.7615 16.3502 11.678 16.3758 11.5925 16.3757V16.3757Z" fill="white"/>
<path d="M26.2016 8.92165H25.3482V7.45392H23.8848V6.60059H26.2016V8.92165Z" fill="white"/>
<path d="M11.7374 23.565H7.97852V17.3442H11.7374V23.565ZM8.83185 22.7117H10.8841V18.1976H8.83185V22.7117Z" fill="white"/>
<path d="M17.0667 23.5651H13.3035V14.0376H17.0667V23.5651ZM14.1611 22.7117H16.2133V14.8909H14.1568L14.1611 22.7117Z" fill="white"/>
<path d="M22.4384 23.565H18.6794V11.2983H22.4384V23.565ZM19.5328 22.7117H21.585V12.1517H19.5328V22.7117Z" fill="white"/>
</g>
<defs>
<linearGradient id="paint0_linear_854_27015" x1="-6.6287" y1="38.6274" x2="38.6261" y2="-6.62742" gradientUnits="userSpaceOnUse">
<stop stop-color="#055F4E"/>
<stop offset="1" stop-color="#56C0A7"/>
</linearGradient>
<clipPath id="clip0_854_27015">
<rect width="32" height="32" fill="white"/>
</clipPath>
</defs>
</svg>
