<svg width="32" height="32" viewBox="0 0 32 32" fill="none" xmlns="http://www.w3.org/2000/svg">
<g clip-path="url(#clip0_854_27198)">
<path d="M32 0H0V32H32V0Z" fill="url(#paint0_linear_854_27198)"/>
<path fill-rule="evenodd" clip-rule="evenodd" d="M14.3544 25.035C14.3656 24.8398 14.2344 24.6654 14.0432 24.6222C13.0656 24.4006 12.1376 24.0158 11.288 23.4782C11.1216 23.375 10.9056 23.4046 10.7752 23.5502L9.86485 24.5718L7.42725 22.1358L8.44885 21.2246C8.59445 21.095 8.62565 20.8782 8.52085 20.7134C7.98405 19.8622 7.60085 18.935 7.38085 17.9558C7.33765 17.7662 7.18805 17.635 6.96805 17.6446L5.60005 17.723V14.2766L6.97125 14.355C7.19125 14.3678 7.34005 14.2342 7.38325 14.0446C7.60485 13.0678 7.99045 12.1414 8.52645 11.2926C8.63125 11.1278 8.60085 10.911 8.45445 10.7806L7.42725 9.8646L9.86485 7.4278L10.78 8.4534C10.9096 8.599 11.1264 8.6294 11.292 8.5254C12.14 7.991 13.0664 7.607 14.0432 7.3862C14.2344 7.343 14.3656 7.1686 14.3544 6.9734L14.2768 5.5998H17.7224L17.6448 6.975C17.6344 7.1702 17.7656 7.3446 17.956 7.3878C18.9312 7.6086 19.8568 7.9918 20.7056 8.5278C20.8712 8.6318 21.088 8.6014 21.2176 8.4558L22.1352 7.4278L24.572 9.8646L23.5464 10.779C23.4008 10.9086 23.3704 11.1254 23.4744 11.291C24.0112 12.139 24.396 13.0662 24.6168 14.0438C24.66 14.2342 24.812 14.3654 25.0296 14.355L26.4 14.2766V17.723L25.0312 17.6446C24.8504 17.6358 24.6616 17.7654 24.6184 17.9558C24.3968 18.935 24.0128 19.8614 23.4768 20.711C23.372 20.8766 23.4032 21.0926 23.5488 21.223L24.572 22.135L22.1352 24.5718L21.2256 23.5518C21.0952 23.407 20.8792 23.3758 20.7128 23.4806C19.8648 24.0174 18.9376 24.4014 17.956 24.623C17.7656 24.6662 17.6344 24.8406 17.6448 25.0358L17.7224 26.3998H14.2768L14.3544 25.035ZM18.4368 27.0742C18.512 26.9942 18.5512 26.887 18.5448 26.7774L18.4624 25.3222C19.3016 25.1014 20.1024 24.7702 20.8504 24.3334L21.82 25.4206C21.8936 25.503 21.9976 25.5518 22.1064 25.5542C22.2192 25.5582 22.324 25.5158 22.4016 25.4374L25.4376 22.4014C25.5152 22.3238 25.5576 22.2174 25.5544 22.1078C25.5512 21.9974 25.5032 21.8934 25.4208 21.8206L24.3304 20.8478C24.7664 20.099 25.0976 19.2998 25.3176 18.4622L26.7768 18.5454C26.8848 18.5534 26.9944 18.5126 27.0744 18.4366C27.1544 18.3614 27.2 18.2566 27.2 18.1462V13.8534C27.2 13.743 27.1544 13.6382 27.0744 13.563C26.9944 13.487 26.8848 13.451 26.7768 13.4542L25.316 13.5374C25.096 12.7006 24.7648 11.9014 24.328 11.1542L25.4208 10.179C25.5032 10.1062 25.5512 10.0022 25.5544 9.8918C25.5576 9.7822 25.5152 9.6758 25.4376 9.5982L22.4016 6.563C22.324 6.4854 22.216 6.4438 22.1064 6.4454C21.9976 6.4486 21.8936 6.4974 21.82 6.579L20.8416 7.675C20.0944 7.239 19.2968 6.9078 18.4624 6.6878L18.5448 5.2222C18.5512 5.1126 18.512 5.0046 18.4368 4.9254C18.3608 4.8454 18.256 4.7998 18.1456 4.7998H13.8536C13.7432 4.7998 13.6384 4.8454 13.5632 4.9254C13.4872 5.0046 13.448 5.1126 13.4544 5.2222L13.5376 6.687C12.7016 6.907 11.9032 7.2374 11.156 7.6726L10.1792 6.579C10.1056 6.4974 10.0024 6.4486 9.89285 6.4454C9.79365 6.4462 9.67605 6.4854 9.59845 6.563L6.56245 9.5982C6.48405 9.6758 6.44165 9.7822 6.44485 9.8918C6.44805 10.0022 6.49685 10.1054 6.57845 10.179L7.67285 11.1558C7.23765 11.903 6.90485 12.7014 6.68405 13.5374L5.22245 13.4542C5.11925 13.451 5.00565 13.487 4.92485 13.563C4.84485 13.6382 4.80005 13.743 4.80005 13.8534V18.1462C4.80005 18.2566 4.84485 18.3614 4.92485 18.4366C5.00565 18.5126 5.11925 18.5534 5.22245 18.5454L6.68085 18.4622C6.90085 19.2998 7.23125 20.0998 7.66805 20.8494L6.57845 21.8206C6.49685 21.8934 6.44805 21.9974 6.44485 22.1078C6.44165 22.2174 6.48405 22.3238 6.56245 22.4014L9.59845 25.4374C9.67605 25.5158 9.79045 25.5558 9.89285 25.5542C10.0024 25.5518 10.1056 25.503 10.1792 25.4206L11.1504 24.3318C11.9 24.7686 12.7 25.1006 13.5376 25.3214L13.4544 26.7774C13.448 26.887 13.4872 26.995 13.5632 27.0742C13.6384 27.1542 13.7432 27.1998 13.8536 27.1998H18.1456C18.256 27.1998 18.3608 27.1542 18.4368 27.0742ZM15.1936 18.315L19.2576 14.2502L18.692 13.6846L14.9104 17.467L13.3072 15.863L12.7416 16.4286L14.628 18.315C14.7032 18.3902 14.804 18.4326 14.9104 18.4326C15.0168 18.4326 15.1184 18.3902 15.1936 18.315ZM24.04 15.6646L22.5448 16.4622C22.7896 13.0182 20.304 9.9294 16.8376 9.4838C14.0328 9.1206 11.3184 10.5894 10.0864 13.1334L10.8064 13.4822C11.888 11.2486 14.2704 9.9566 16.736 10.2774C19.744 10.6646 21.912 13.3174 21.756 16.2982L20.6848 15.2406L20.1224 15.8102L21.9992 17.6606L24.4168 16.3694L24.04 15.6646ZM21.9136 18.8662C20.8048 21.1534 18.5 22.5702 16.0056 22.5702C15.7272 22.5702 15.4448 22.5526 15.1624 22.5166C11.6952 22.0702 9.20965 18.9814 9.45445 15.5374L7.95925 16.335L7.58245 15.6302L10.0008 14.339L11.8768 16.1894L11.3144 16.759L10.2432 15.7014C10.0872 18.683 12.2552 21.335 15.264 21.7222C17.7216 22.0406 20.1104 20.7518 21.1936 18.5174L21.9136 18.8662Z" fill="white"/>
</g>
<defs>
<linearGradient id="paint0_linear_854_27198" x1="-6.6304" y1="38.6304" x2="38.6261" y2="-6.62613" gradientUnits="userSpaceOnUse">
<stop stop-color="#055F4E"/>
<stop offset="1" stop-color="#56C0A7"/>
</linearGradient>
<clipPath id="clip0_854_27198">
<rect width="32" height="32" fill="white"/>
</clipPath>
</defs>
</svg>
