<svg width="32" height="32" viewBox="0 0 32 32" fill="none" xmlns="http://www.w3.org/2000/svg">
<g clip-path="url(#clip0_854_27175)">
<path d="M32 0H0V32H32V0Z" fill="url(#paint0_linear_854_27175)"/>
<path fill-rule="evenodd" clip-rule="evenodd" d="M23.2 19.1998H24V16.7998H23.2V19.1998ZM25.6 23.1998H24.4C24.1792 23.1998 24 23.0206 24 22.7998V21.5998H22.4V22.7998C22.4 23.0206 22.2208 23.1998 22 23.1998H20.8V24.7998H22C22.2208 24.7998 22.4 24.979 22.4 25.1998V26.3998H24V25.1998C24 24.979 24.1792 24.7998 24.4 24.7998H25.6V23.1998ZM26.4 22.7998V25.1998C26.4 25.4206 26.2208 25.5998 26 25.5998H24.8V26.7998C24.8 27.0206 24.6208 27.1998 24.4 27.1998H22C21.7792 27.1998 21.6 27.0206 21.6 26.7998V25.5998H20.4C20.1792 25.5998 20 25.4206 20 25.1998V22.7998C20 22.579 20.1792 22.3998 20.4 22.3998H21.6V21.1998C21.6 20.979 21.7792 20.7998 22 20.7998H24.4C24.6208 20.7998 24.8 20.979 24.8 21.1998V22.3998H26C26.2208 22.3998 26.4 22.579 26.4 22.7998ZM13.6 7.9998H18.4V5.5998H13.6V7.9998ZM12.8 8.3998V5.1998C12.8 4.979 12.9792 4.7998 13.2 4.7998H18.8C19.0208 4.7998 19.2 4.979 19.2 5.1998V8.3998C19.2 8.6206 19.0208 8.7998 18.8 8.7998H13.2C12.9792 8.7998 12.8 8.6206 12.8 8.3998ZM8.80005 6.9902C8.80005 6.6646 9.06485 6.3998 9.39045 6.3998H12V5.5998H9.39045C8.62405 5.5998 8.00005 6.2238 8.00005 6.9902V12.7998H8.80005V6.9902ZM23.2 6.9902V12.7998H24V6.9902C24 6.2238 23.376 5.5998 22.6096 5.5998H20V6.3998H22.6096C22.9352 6.3998 23.2 6.6646 23.2 6.9902ZM8.80005 25.8094V16.7998H8.00005V25.8094C8.00005 26.5758 8.62405 27.1998 9.39045 27.1998H20V26.3998H9.39045C9.06485 26.3998 8.80005 26.135 8.80005 25.8094ZM20.2392 14.3998L18.8504 10.6982C18.7952 10.5486 18.656 10.447 18.4976 10.4382C18.3408 10.4286 18.1904 10.5166 18.1184 10.659L15.9392 15.0174L13.8496 12.091C13.7704 11.9814 13.6304 11.9126 13.508 11.9238C13.3728 11.9294 13.2504 12.0022 13.1808 12.1174L11.812 14.3998H4.80005V15.1998H12.0384C12.1792 15.1998 12.3096 15.1262 12.3816 15.0054L13.552 13.0526L15.6744 16.023C15.7504 16.1286 15.8712 16.1902 16 16.1902C16.0104 16.1902 16.0208 16.1902 16.0312 16.1894C16.1712 16.1782 16.2952 16.095 16.3576 15.9694L18.424 11.8374L19.5872 14.9398C19.6464 15.0966 19.7952 15.1998 19.9616 15.1998H27.2V14.3998H20.2392ZM10.4 21.5998H16.8V20.7998H10.4V21.5998ZM10.4 23.9998H16.8V23.1998H10.4V23.9998Z" fill="white"/>
</g>
<defs>
<linearGradient id="paint0_linear_854_27175" x1="-6.6304" y1="38.6304" x2="38.6261" y2="-6.62613" gradientUnits="userSpaceOnUse">
<stop stop-color="#055F4E"/>
<stop offset="1" stop-color="#56C0A7"/>
</linearGradient>
<clipPath id="clip0_854_27175">
<rect width="32" height="32" fill="white"/>
</clipPath>
</defs>
</svg>
