<svg width="32" height="32" viewBox="0 0 32 32" fill="none" xmlns="http://www.w3.org/2000/svg">
<g clip-path="url(#clip0_854_27345)">
<path d="M32 0H0V32H32V0Z" fill="url(#paint0_linear_854_27345)"/>
<path fill-rule="evenodd" clip-rule="evenodd" d="M25.5497 23.6384L20.3838 18.6088C19.8814 19.287 19.2825 19.8869 18.6038 20.3904L23.6438 25.5508C23.8918 25.799 24.1892 25.8205 24.3862 25.7934C24.6972 25.7535 25.0202 25.5804 25.2961 25.3043C25.7722 24.8272 26.0122 24.102 25.5497 23.6384ZM13.5344 21.2784C17.8 21.2784 21.2713 17.8062 21.2713 13.5377C21.2713 9.27006 17.8 5.79784 13.5344 5.79784C9.26799 5.79784 5.79746 9.27006 5.79746 13.5377C5.79746 17.8062 9.26799 21.2784 13.5344 21.2784ZM25.8599 25.8684C25.4604 26.2689 24.9723 26.5234 24.4875 26.5848C24.4085 26.5952 24.332 26.6 24.2546 26.6C23.8072 26.6 23.3958 26.4309 23.0768 26.1117L17.9308 20.842C16.6445 21.6199 15.1437 22.0762 13.5344 22.0762C8.8286 22.0762 5 18.2458 5 13.5377C5 8.82965 8.8286 5 13.5344 5C18.2402 5 22.0688 8.82965 22.0688 13.5377C22.0688 15.147 21.6126 16.6493 20.8359 17.9354L26.1095 23.0703C26.8487 23.8099 26.7419 24.9852 25.8599 25.8684ZM18.9627 13.5377C18.9627 10.4924 16.5783 8.1068 13.5344 8.1068C10.4905 8.1068 8.1061 10.4924 8.1061 13.5377C8.1061 16.5831 10.4905 18.9686 13.5344 18.9686C16.5783 18.9686 18.9627 16.5831 18.9627 13.5377ZM19.7601 13.5377C19.7601 17.0307 17.0257 19.7665 13.5344 19.7665C10.0431 19.7665 7.30864 17.0307 7.30864 13.5377C7.30864 10.0448 10.0431 7.30896 13.5344 7.30896C17.0257 7.30896 19.7601 10.0448 19.7601 13.5377ZM11.575 15.0911H10.7776V16.6868H12.3725V15.889H11.575V15.0911ZM10.7776 11.8997H11.575V11.1019H12.3725V10.3041H10.7776V11.8997ZM14.7649 11.1019H15.5623V11.8997H16.3598V10.3041H14.7649V11.1019ZM15.5623 15.0911H16.3598V16.6868H14.7649V15.889H15.5623V15.0911Z" fill="white"/>
</g>
<defs>
<linearGradient id="paint0_linear_854_27345" x1="-6.62613" y1="38.6304" x2="38.6304" y2="-6.62613" gradientUnits="userSpaceOnUse">
<stop stop-color="#055F4E"/>
<stop offset="1" stop-color="#56C0A7"/>
</linearGradient>
<clipPath id="clip0_854_27345">
<rect width="32" height="32" fill="white"/>
</clipPath>
</defs>
</svg>
