<svg width="32" height="32" viewBox="0 0 32 32" fill="none" xmlns="http://www.w3.org/2000/svg">
<g clip-path="url(#clip0_854_27016)">
<path d="M32 0H0V32H32V0Z" fill="url(#paint0_linear_854_27016)"/>
<path d="M18.5173 5.3374H6.22925C5.99123 5.33853 5.76333 5.43388 5.59542 5.60259C5.42751 5.7713 5.33325 5.99964 5.33325 6.23767V14.2505C5.33325 14.4885 5.42751 14.7168 5.59542 14.8855C5.76333 15.0543 5.99123 15.1496 6.22925 15.1507H7.86765L7.89325 15.1977V17.4931C7.90416 17.6197 7.94976 17.7409 8.02503 17.8432C8.1003 17.9456 8.20234 18.0252 8.31992 18.0734C8.39745 18.1037 8.47987 18.1197 8.56312 18.1203C8.73314 18.1197 8.89649 18.0541 9.01965 17.9369L11.2981 15.7182V14.5321L8.73805 17.0281V15.2275C8.7502 15.1112 8.73828 14.9936 8.70305 14.882C8.66782 14.7704 8.61002 14.6673 8.53325 14.579C8.45006 14.4903 8.34961 14.4196 8.23809 14.3712C8.12656 14.3228 8.00631 14.2976 7.88472 14.2974H6.22925C6.21756 14.2963 6.20669 14.2909 6.19879 14.2822C6.19089 14.2735 6.18654 14.2622 6.18659 14.2505V6.23767C6.18654 6.22593 6.19089 6.21459 6.19879 6.2059C6.20669 6.19722 6.21756 6.1918 6.22925 6.19074H18.5173C18.5289 6.1918 18.5398 6.19722 18.5477 6.2059C18.5556 6.21459 18.56 6.22593 18.5599 6.23767V13.0174H19.4133V6.23767C19.4133 5.99964 19.319 5.7713 19.1511 5.60259C18.9832 5.43388 18.7553 5.33853 18.5173 5.3374V5.3374ZM14.7199 8.32407H7.46659V7.47074H14.7199V8.32407ZM17.2799 8.32407H15.5733V7.47074H17.2799V8.32407ZM11.3066 10.4574H7.46659V9.60407H11.3066V10.4574ZM17.2799 10.4574H12.5866V9.60407H17.2799V10.4574ZM13.4399 12.5907H7.46659V11.7374H13.4399V12.5907ZM15.9999 12.5907H14.2933V11.7374H15.9999V12.5907ZM22.6133 26.6622C22.4544 26.6581 22.3026 26.5959 22.1866 26.4873L19.2853 23.6798H13.0431C12.8057 23.6668 12.5823 23.5638 12.4182 23.3918C12.2541 23.2197 12.1617 22.9917 12.1599 22.7539V14.5491C12.1588 14.4051 12.186 14.2623 12.2401 14.1289C12.2942 13.9954 12.374 13.8739 12.475 13.7713C12.5761 13.6686 12.6963 13.5869 12.8289 13.5308C12.9615 13.4747 13.1039 13.4452 13.2479 13.4441H25.8261C25.9437 13.4437 26.0602 13.4677 26.1681 13.5146C26.276 13.5614 26.3731 13.63 26.4533 13.7162C26.5334 13.8023 26.5948 13.9041 26.6338 14.0152C26.6727 14.1262 26.6882 14.2441 26.6794 14.3614V22.7753C26.6817 23.0122 26.59 23.2403 26.4245 23.4099C26.259 23.5794 26.0331 23.6764 25.7962 23.6798H23.2874C23.2761 23.6853 23.2666 23.6937 23.2598 23.7043C23.253 23.7148 23.2493 23.727 23.249 23.7395V25.9966C23.254 26.1257 23.22 26.2533 23.1515 26.3629C23.0831 26.4725 22.9832 26.5589 22.865 26.611C22.785 26.6436 22.6996 26.661 22.6133 26.6622V26.6622ZM19.3279 22.8307C19.5279 22.83 19.7205 22.9064 19.8655 23.0441L22.4255 25.5315V23.731C22.4255 23.4944 22.5186 23.2674 22.6847 23.0989C22.8507 22.9304 23.0764 22.8341 23.313 22.8307H25.809C25.8186 22.8252 25.8265 22.8171 25.8318 22.8073C25.8371 22.7975 25.8395 22.7864 25.8389 22.7753V14.3614C25.8389 14.3433 25.8317 14.3259 25.8189 14.3131C25.8061 14.3003 25.7887 14.2931 25.7706 14.2931H13.201C13.073 14.2931 13.0133 14.3571 13.0133 14.4979V22.7326C13.0133 22.7753 13.0815 22.8307 13.1114 22.8307H19.3279ZM19.7077 21.9774H19.153C19.0759 21.9788 19 21.9593 18.9331 21.921C18.8662 21.8827 18.811 21.827 18.7733 21.7598L18.5514 21.3331C18.4056 21.2823 18.2631 21.2225 18.1247 21.1539L17.6639 21.3033C17.5902 21.3264 17.5116 21.3292 17.4364 21.3111C17.3613 21.2931 17.2924 21.255 17.2373 21.2009L16.8447 20.8041C16.7899 20.7493 16.751 20.6807 16.7322 20.6055C16.7134 20.5304 16.7154 20.4515 16.7381 20.3774L16.8874 19.9251C16.8038 19.7784 16.7379 19.6223 16.6911 19.4601L16.2645 19.251C16.1942 19.2146 16.1355 19.1595 16.0948 19.0917C16.0541 19.0239 16.0331 18.9461 16.0341 18.867V18.3123C16.0339 18.234 16.0553 18.1571 16.0959 18.0901C16.1366 18.0231 16.1949 17.9686 16.2645 17.9326L16.6911 17.715C16.7422 17.5584 16.805 17.4058 16.8789 17.2585L16.7338 16.8019C16.7111 16.7278 16.7091 16.649 16.7279 16.5738C16.7467 16.4986 16.7856 16.43 16.8405 16.3753L17.233 15.9827C17.2877 15.9279 17.3563 15.889 17.4315 15.8702C17.5067 15.8514 17.5856 15.8534 17.6597 15.8761L18.1119 16.0254C18.2499 15.9359 18.3939 15.8561 18.5429 15.7865L18.7733 15.3598C18.8087 15.2894 18.863 15.2303 18.93 15.1888C18.997 15.1474 19.0742 15.1254 19.153 15.1251H19.7077C19.7864 15.1254 19.8636 15.1474 19.9307 15.1888C19.9977 15.2303 20.0519 15.2894 20.0874 15.3598L20.3007 15.7865C20.4598 15.8346 20.6141 15.8975 20.7615 15.9742L21.1882 15.8291C21.2623 15.8065 21.3412 15.8045 21.4163 15.8233C21.4915 15.8421 21.5601 15.881 21.6149 15.9358L22.0074 16.3283C22.0615 16.3835 22.0996 16.4524 22.1176 16.5275C22.1357 16.6026 22.133 16.6813 22.1098 16.755L21.9647 17.2115C22.0547 17.3599 22.1291 17.5172 22.1866 17.6809L22.6133 17.9198C22.6836 17.9553 22.7428 18.0095 22.7842 18.0765C22.8256 18.1436 22.8477 18.2207 22.8479 18.2995V18.8542C22.8417 18.9271 22.8169 18.9972 22.7758 19.0577C22.7347 19.1182 22.6787 19.1671 22.6133 19.1998L22.1866 19.4131C22.1359 19.5706 22.0716 19.7233 21.9946 19.8697L22.1439 20.3262C22.1671 20.3999 22.1698 20.4786 22.1518 20.5537C22.1337 20.6289 22.0956 20.6977 22.0415 20.7529L21.649 21.1497C21.5938 21.2038 21.525 21.2419 21.4498 21.2599C21.3747 21.278 21.296 21.2752 21.2223 21.2521L20.7658 21.1027C20.6287 21.1752 20.486 21.2365 20.3391 21.2862L20.1215 21.7129C20.087 21.7949 20.0278 21.864 19.952 21.9107C19.8763 21.9574 19.7879 21.9792 19.6991 21.9731L19.7077 21.9774ZM19.4133 21.1241H19.4431L19.6266 20.7614C19.6546 20.7062 19.6943 20.6578 19.743 20.6195C19.7916 20.5811 19.848 20.5539 19.9082 20.5395C20.1105 20.4894 20.3035 20.4073 20.4799 20.2963C20.5329 20.2635 20.5925 20.2426 20.6544 20.2352C20.7163 20.2279 20.7791 20.2342 20.8383 20.2537L21.2223 20.3817L21.2437 20.3561L21.1199 19.9721C21.1011 19.9135 21.0951 19.8515 21.1025 19.7903C21.1098 19.7292 21.1303 19.6704 21.1626 19.6179C21.27 19.4372 21.3505 19.2417 21.4015 19.0377C21.4159 18.9774 21.4431 18.9211 21.4814 18.8724C21.5198 18.8238 21.5682 18.7841 21.6234 18.7561L21.9818 18.5726V18.5385L21.6191 18.3465C21.5644 18.3189 21.5162 18.2798 21.478 18.232C21.4397 18.1841 21.4121 18.1286 21.3973 18.0691C21.3499 17.8653 21.2692 17.6707 21.1583 17.4931C21.1261 17.4407 21.1056 17.3819 21.0982 17.3207C21.0908 17.2596 21.0968 17.1976 21.1157 17.139L21.2394 16.755L21.2181 16.7337L20.8383 16.8531C20.7797 16.872 20.7177 16.878 20.6566 16.8706C20.5954 16.8632 20.5366 16.8427 20.4842 16.8105C20.3025 16.7008 20.1055 16.6188 19.8997 16.5673C19.8398 16.5534 19.7837 16.5268 19.7351 16.4892C19.6865 16.4517 19.6466 16.4041 19.6181 16.3497L19.4389 15.9913H19.4047L19.2213 16.3497C19.1946 16.401 19.1578 16.4464 19.113 16.4831C19.0683 16.5198 19.0166 16.5469 18.961 16.563C18.7468 16.6201 18.5405 16.7032 18.3466 16.8105C18.2941 16.8427 18.2353 16.8632 18.1742 16.8706C18.1131 16.878 18.0511 16.872 17.9925 16.8531L17.6127 16.7337L17.5871 16.755L17.7109 17.139C17.7297 17.1976 17.7357 17.2596 17.7283 17.3207C17.7209 17.3819 17.7004 17.4407 17.6682 17.4931C17.56 17.675 17.4795 17.8721 17.4293 18.0777C17.4144 18.1371 17.3868 18.1927 17.3485 18.2405C17.3103 18.2884 17.2621 18.3274 17.2074 18.355L16.8533 18.5385V18.5726L17.2117 18.7561C17.2701 18.7858 17.3209 18.8286 17.3601 18.8811C17.3993 18.9337 17.4259 18.9945 17.4378 19.059C17.4795 19.2634 17.5638 19.4568 17.6853 19.6265C17.7175 19.6789 17.738 19.7377 17.7454 19.7989C17.7527 19.86 17.7468 19.922 17.7279 19.9806L17.5999 20.3646L17.6255 20.3902L18.0095 20.2622C18.0681 20.2433 18.1301 20.2374 18.1913 20.2448C18.2524 20.2521 18.3112 20.2726 18.3637 20.3049C18.5519 20.4103 18.7526 20.492 18.961 20.5481C19.0169 20.5646 19.0689 20.5925 19.1137 20.6299C19.1584 20.6673 19.1951 20.7135 19.2213 20.7657L19.4133 21.1241ZM19.4133 19.8441C19.1601 19.8441 18.9126 19.769 18.7021 19.6283C18.4916 19.4877 18.3276 19.2878 18.2307 19.0539C18.1338 18.82 18.1085 18.5626 18.1578 18.3144C18.2072 18.0661 18.3291 17.838 18.5082 17.659C18.6872 17.48 18.9152 17.3581 19.1635 17.3087C19.4118 17.2593 19.6692 17.2846 19.9031 17.3815C20.137 17.4784 20.3369 17.6424 20.4775 17.8529C20.6182 18.0634 20.6933 18.3109 20.6933 18.5641C20.6921 18.9013 20.558 19.2245 20.3199 19.4634C20.0818 19.7023 19.759 19.8376 19.4218 19.8398L19.4133 19.8441ZM19.4133 18.0478C19.3108 18.047 19.2104 18.0766 19.1248 18.133C19.0393 18.1894 18.9725 18.27 18.9329 18.3645C18.8932 18.459 18.8827 18.5632 18.9024 18.6637C18.9222 18.7643 18.9715 18.8567 19.0439 18.9291C19.1164 19.0016 19.2088 19.0508 19.3093 19.0706C19.4099 19.0904 19.514 19.0798 19.6085 19.0402C19.703 19.0006 19.7836 18.9338 19.84 18.8482C19.8964 18.7627 19.9261 18.6623 19.9253 18.5598C19.9264 18.4247 19.8741 18.2947 19.7798 18.198C19.6855 18.1013 19.5568 18.0458 19.4218 18.0435L19.4133 18.0478Z" fill="white"/>
</g>
<defs>
<linearGradient id="paint0_linear_854_27016" x1="-6.62613" y1="38.6274" x2="38.6287" y2="-6.62742" gradientUnits="userSpaceOnUse">
<stop stop-color="#055F4E"/>
<stop offset="1" stop-color="#56C0A7"/>
</linearGradient>
<clipPath id="clip0_854_27016">
<rect width="32" height="32" fill="white"/>
</clipPath>
</defs>
</svg>
