<svg width="32" height="32" viewBox="0 0 32 32" fill="none" xmlns="http://www.w3.org/2000/svg">
<g clip-path="url(#clip0_854_27018)">
<path d="M32 0H0V32H32V0Z" fill="url(#paint0_linear_854_27018)"/>
<path d="M11.7503 21.547H5.77701C5.66385 21.547 5.55533 21.5021 5.47531 21.4221C5.39529 21.342 5.35034 21.2335 5.35034 21.1204V17.707H6.20368V20.6937H11.7503V21.547Z" fill="white"/>
<path d="M16.7466 9.7239L12.4799 5.45724C12.4401 5.41769 12.3928 5.38641 12.3408 5.36517C12.2888 5.34394 12.2332 5.33318 12.177 5.3335H5.77701C5.66385 5.3335 5.55533 5.37846 5.47531 5.45847C5.39529 5.53849 5.35034 5.64701 5.35034 5.76017V15.5735H6.20368V6.18684H11.7503V10.0268C11.7503 10.14 11.7953 10.2485 11.8753 10.3285C11.9553 10.4086 12.0638 10.4535 12.177 10.4535H16.017V11.3068H16.8703V10.0268C16.8707 9.97068 16.8599 9.91502 16.8387 9.86304C16.8174 9.81105 16.7862 9.76377 16.7466 9.7239V9.7239ZM12.6037 9.60017V6.78844L15.4154 9.60017H12.6037Z" fill="white"/>
<path d="M10.4705 12.5869H7.05713V13.4402H10.4705V12.5869Z" fill="white"/>
<path d="M26.1077 26.667C26.0261 26.668 25.9455 26.6489 25.873 26.6116L22.3061 24.8281C21.3443 25.3688 20.2651 25.6664 19.1622 25.6951C18.0592 25.7239 16.9659 25.4828 15.9774 24.9929C14.9888 24.5031 14.1348 23.7792 13.4896 22.8842C12.8444 21.9892 12.4275 20.9502 12.2751 19.8574L13.1285 19.7422C13.2635 20.7165 13.639 21.6418 14.2212 22.4346C14.8034 23.2274 15.5738 23.8627 16.463 24.2831C17.3522 24.7036 18.3321 24.8959 19.3142 24.8428C20.2964 24.7898 21.2498 24.4929 22.0885 23.979C22.1533 23.9416 22.2269 23.9219 22.3018 23.9219C22.3767 23.9219 22.4503 23.9416 22.5151 23.979L25.4293 25.4382L23.9658 22.571C23.9284 22.5062 23.9086 22.4326 23.9086 22.3577C23.9086 22.2828 23.9284 22.2092 23.9658 22.1444C24.5861 21.1959 24.914 20.0861 24.9087 18.9529C24.9141 17.929 24.6538 16.9213 24.1531 16.0282C23.6525 15.1351 22.9287 14.3871 22.0525 13.8574C21.1763 13.3277 20.1776 13.0345 19.1541 13.0062C18.1307 12.978 17.1174 13.2158 16.2133 13.6964L15.8122 12.9454C16.8429 12.3998 17.997 12.1299 19.1627 12.1617C20.3284 12.1935 21.4661 12.526 22.4655 13.127C23.4649 13.728 24.2919 14.5771 24.8665 15.5918C25.4411 16.6066 25.7437 17.7526 25.745 18.9188C25.7479 20.1326 25.4204 21.3243 24.7978 22.3662L26.5855 25.8692C26.6371 25.969 26.6557 26.0826 26.6389 26.1937C26.622 26.3048 26.5705 26.4077 26.4917 26.4878C26.4432 26.5422 26.3841 26.5861 26.3181 26.6169C26.2521 26.6477 26.1805 26.6647 26.1077 26.667V26.667Z" fill="white"/>
<path d="M19.0037 17.2803H18.1504V20.6936H19.0037V17.2803Z" fill="white"/>
<path d="M20.2838 16.8535H19.4304V21.1202H20.2838V16.8535Z" fill="white"/>
<path d="M21.5638 16.4268H20.7104V21.5468H21.5638V16.4268Z" fill="white"/>
<path d="M22.8436 17.707H21.9902V20.6937H22.8436V17.707Z" fill="white"/>
<path d="M16.4437 17.2803H15.5903V20.6936H16.4437V17.2803Z" fill="white"/>
<path d="M15.1638 14.7202H7.05713V15.5735H15.1638V14.7202Z" fill="white"/>
<path d="M13.0305 16.8535H7.05713V17.7069H13.0305V16.8535Z" fill="white"/>
<path d="M13.0304 12.5869H11.3237V13.4402H13.0304V12.5869Z" fill="white"/>
<path d="M17.7237 18.1333H16.8704V19.84H17.7237V18.1333Z" fill="white"/>
<path d="M18.5771 14.7202H16.0171V15.5309H18.5771V14.7202Z" fill="white"/>
</g>
<defs>
<linearGradient id="paint0_linear_854_27018" x1="-6.62742" y1="38.6287" x2="38.6274" y2="-6.62613" gradientUnits="userSpaceOnUse">
<stop stop-color="#055F4E"/>
<stop offset="1" stop-color="#56C0A7"/>
</linearGradient>
<clipPath id="clip0_854_27018">
<rect width="32" height="32" fill="white"/>
</clipPath>
</defs>
</svg>
