<svg width="32" height="32" viewBox="0 0 32 32" fill="none" xmlns="http://www.w3.org/2000/svg">
<g clip-path="url(#clip0_854_27303)">
<path d="M32 0H0V32H32V0Z" fill="url(#paint0_linear_854_27303)"/>
<path fill-rule="evenodd" clip-rule="evenodd" d="M16.6286 19.6314C16.6286 19.9832 16.3466 20.27 16.0005 20.27C15.6543 20.27 15.3731 19.9832 15.3731 19.6314C15.3731 19.2795 15.6543 18.9928 16.0005 18.9928C16.3466 18.9928 16.6286 19.2795 16.6286 19.6314ZM14.5719 19.6314C14.5719 20.432 15.212 21.0845 16.0005 21.0845C16.7881 21.0845 17.4298 20.432 17.4298 19.6314C17.4298 18.8307 16.7881 18.1783 16.0005 18.1783C15.212 18.1783 14.5719 18.8307 14.5719 19.6314ZM15.1824 23.9882H16.7849V23.1737H15.1824V23.9882ZM14.3435 24.8165H17.6566V22.3461H14.3435V24.8165ZM13.5423 21.9389V25.2238C13.5423 25.4486 13.7217 25.6311 13.9429 25.6311H18.0572C18.2791 25.6311 18.4578 25.4486 18.4578 25.2238V21.9389C18.4578 21.7133 18.2791 21.5316 18.0572 21.5316H13.9429C13.7217 21.5316 13.5423 21.7133 13.5423 21.9389ZM19.1998 26.3853H12.8011V19.2722L16.0005 17.1007L19.1998 19.2722V26.3853ZM16.2224 16.2715C16.0878 16.1803 15.9123 16.1803 15.7777 16.2715L12.1778 18.7151C12.0664 18.7908 11.9999 18.9187 11.9999 19.0547V26.7926C11.9999 27.0174 12.1786 27.1998 12.4005 27.1998H19.6004C19.8215 27.1998 20.001 27.0174 20.001 26.7926V19.0547C20.001 18.9187 19.9345 18.7908 19.8223 18.7151L16.2224 16.2715ZM22.8109 16.8783C22.464 16.8783 22.1827 16.5924 22.1827 16.2398C22.1827 15.8879 22.464 15.602 22.8109 15.602C23.1562 15.602 23.4383 15.8879 23.4383 16.2398C23.4383 16.5924 23.1562 16.8783 22.8109 16.8783ZM21.1435 10.3085C20.7966 10.3085 20.5154 10.0226 20.5154 9.67073C20.5154 9.31805 20.7966 9.03215 21.1435 9.03215C21.4897 9.03215 21.7717 9.31805 21.7717 9.67073C21.7717 10.0226 21.4897 10.3085 21.1435 10.3085ZM19.5739 13.0884C19.9201 13.0884 20.2021 13.3743 20.2021 13.7262C20.2021 14.0789 19.9201 14.3648 19.5739 14.3648C19.227 14.3648 18.9458 14.0789 18.9458 13.7262C18.9458 13.3743 19.227 13.0884 19.5739 13.0884ZM26.9797 12.989L24.0128 11.4724V7.65156C24.0128 7.49192 23.9222 7.34775 23.7796 7.28096L18.5548 4.83743C18.4522 4.78937 18.3352 4.78693 18.2327 4.83254L15.5838 5.96064L12.9341 4.83254C12.8204 4.78367 12.6946 4.791 12.588 4.84965L8.16522 7.29318C8.03542 7.36404 7.95529 7.50169 7.95529 7.65156V11.4741L5.01959 12.9899C4.88498 13.0591 4.80005 13.1992 4.80005 13.3531V18.2402C4.80005 18.3754 4.86575 18.5017 4.97632 18.5774L7.17009 20.0851V23.1273C7.17009 23.2625 7.23739 23.3903 7.34876 23.4661L10.9543 25.9096L11.399 25.2311L7.97132 22.909V19.8692C7.97132 19.7332 7.90562 19.6069 7.79585 19.5312L5.60128 18.0235V16.0475L8.17323 14.5187L7.76941 13.8158L5.60128 15.1035V13.6024L8.33828 12.1892L10.3414 13.4281V15.6028L8.52016 17.1097L9.02574 17.7409L10.746 16.3179L12.5311 17.7458L13.0271 17.1048L11.1426 15.5979V13.4305L13.3844 12.0735C13.5062 12.0002 13.5799 11.8675 13.5799 11.7241V8.46607H12.7787V11.492L10.7444 12.7243L8.75652 11.4944V7.89347L10.3414 7.01787V10.0951H11.1426V6.57478L12.8019 5.65845L15.1816 6.67252L15.1824 11.7241C15.1824 11.8699 15.2593 12.0051 15.3843 12.0776L18.1477 13.683C18.1477 13.6977 18.1445 13.7115 18.1445 13.7262C18.1445 14.5277 18.7855 15.1793 19.5739 15.1793C20.3615 15.1793 21.0033 14.5277 21.0033 13.7262C21.0033 12.9255 20.3615 12.2739 19.5739 12.2739C19.0908 12.2739 18.6645 12.5199 18.4057 12.8946L15.9836 11.4871L15.9828 6.67333L18.3801 5.65194L23.2115 7.9122V9.26348H22.5088C22.3342 8.66074 21.7909 8.21765 21.1435 8.21765C20.3551 8.21765 19.7142 8.86925 19.7142 9.67073C19.7142 10.4714 20.3551 11.123 21.1435 11.123C21.7909 11.123 22.3342 10.6799 22.5088 10.078H23.2115V11.7241C23.2115 11.8772 23.2965 12.0181 23.4319 12.0874L26.3988 13.604V17.5373L24.2355 16.2805C24.2355 16.2674 24.2395 16.2544 24.2395 16.2398C24.2395 15.4391 23.5985 14.7875 22.8109 14.7875C22.0225 14.7875 21.3815 15.4391 21.3815 16.2398C21.3815 17.0412 22.0225 17.6928 22.8109 17.6928C23.2949 17.6928 23.7219 17.4452 23.9799 17.0706L26.0383 18.2663L24.1746 19.5296C24.0632 19.6053 23.9959 19.7332 23.9959 19.8692V22.909L20.5691 25.2311L21.0137 25.9096L24.6193 23.4661C24.7299 23.3903 24.7972 23.2625 24.7972 23.1273V20.0867L27.0222 18.579C27.1327 18.5033 27.2 18.3754 27.2 18.2402V13.3531C27.2 13.1992 27.1151 13.0583 26.9797 12.989Z" fill="white"/>
</g>
<defs>
<linearGradient id="paint0_linear_854_27303" x1="-6.6304" y1="38.6304" x2="38.6261" y2="-6.62613" gradientUnits="userSpaceOnUse">
<stop stop-color="#055F4E"/>
<stop offset="1" stop-color="#56C0A7"/>
</linearGradient>
<clipPath id="clip0_854_27303">
<rect width="32" height="32" fill="white"/>
</clipPath>
</defs>
</svg>
