<svg width="32" height="32" viewBox="0 0 32 32" fill="none" xmlns="http://www.w3.org/2000/svg">
<g clip-path="url(#clip0_854_27323)">
<path d="M32 0H0V32H32V0Z" fill="url(#paint0_linear_854_27323)"/>
<path fill-rule="evenodd" clip-rule="evenodd" d="M10.6709 9.33181L9.1545 7.82634L8.58544 8.39129L10.1019 9.89676L10.6709 9.33181ZM23.5508 8.35933L22.9914 7.78479L21.4066 9.30864L21.966 9.88238L23.5508 8.35933ZM16.8501 11.6779L16.0532 11.5645L15.0423 18.5892L15.8391 18.7027L16.8501 11.6779ZM19.8056 15.3729C19.9119 15.2306 19.9119 15.0357 19.8056 14.8934L18.2892 12.8869L17.6445 13.3656L18.9798 15.1332L17.6445 16.9007L18.2892 17.3802L19.8056 15.3729ZM14.2462 16.9007L12.9109 15.1332L14.2462 13.3656L13.6023 12.8869L12.0859 14.8934C11.9789 15.0357 11.9789 15.2306 12.0859 15.3729L13.6023 17.3802L14.2462 16.9007ZM13.8856 25.5676H18.0952L17.5052 26.401H14.4016L13.8856 25.5676ZM18.0437 27.0299L19.1987 25.3974C19.2849 25.2759 19.2953 25.1161 19.2261 24.9842C19.1569 24.8516 19.0192 24.7685 18.8695 24.7685H13.1661C13.0204 24.7685 12.886 24.8476 12.8143 24.9731C12.7435 25.0993 12.7467 25.2543 12.8232 25.3774L13.8341 27.0099C13.9074 27.1282 14.037 27.2001 14.1762 27.2001H17.7145C17.8457 27.2001 17.9681 27.137 18.0437 27.0299ZM12.8103 20.0171C12.8103 19.8885 12.7483 19.7686 12.6429 19.6927C11.1651 18.6363 10.2838 16.9319 10.2838 15.1332C10.2838 12.0335 12.824 9.51241 15.9462 9.51241C19.0683 9.51241 21.6078 12.0335 21.6078 15.1332C21.6078 17.0334 20.8085 18.6955 19.4136 19.6927C19.3082 19.7686 19.2462 19.8885 19.2462 20.0171V22.4056H12.8103V20.0171ZM20.0511 22.8051V20.2169C21.5547 19.0574 22.4127 17.2172 22.4127 15.1332C22.4127 11.5932 19.511 8.71332 15.9462 8.71332C12.3797 8.71332 9.47887 11.5932 9.47887 15.1332C9.47887 17.1197 10.4198 19.0039 12.0054 20.2177V22.8051C12.0054 23.0265 12.1857 23.2047 12.4079 23.2047H19.6487C19.8716 23.2047 20.0511 23.0265 20.0511 22.8051ZM24.1303 15.2227H26.4001V14.4236H24.1303V15.2227ZM5.6001 15.2227H7.84333V14.4236H5.6001V15.2227ZM15.1968 7.86949H16.0017V5.6001H15.1968V7.86949Z" fill="white"/>
</g>
<defs>
<linearGradient id="paint0_linear_854_27323" x1="-6.6304" y1="38.6304" x2="38.6261" y2="-6.62613" gradientUnits="userSpaceOnUse">
<stop stop-color="#055F4E"/>
<stop offset="1" stop-color="#56C0A7"/>
</linearGradient>
<clipPath id="clip0_854_27323">
<rect width="32" height="32" fill="white"/>
</clipPath>
</defs>
</svg>
