<svg width="32" height="32" viewBox="0 0 32 32" fill="none" xmlns="http://www.w3.org/2000/svg">
<g clip-path="url(#clip0_854_27220)">
<path d="M32 0H0V32H32V0Z" fill="url(#paint0_linear_854_27220)"/>
<path fill-rule="evenodd" clip-rule="evenodd" d="M10.4128 7.2006H11.2128V6.4006H10.4128V7.2006ZM8.81285 7.2006H9.61285V6.4006H8.81285V7.2006ZM7.21285 7.2006H8.01285V6.4006H7.21285V7.2006ZM16.8152 16.1462L17.5712 16.4086L15.8904 21.2526L15.1344 20.9902L16.8152 16.1462ZM13.9008 16.8462L14.4696 17.4094L13.2304 18.659L14.4448 19.9062L13.8712 20.4638L12.3832 18.935C12.2304 18.779 12.232 18.5294 12.3856 18.3742L13.9008 16.8462ZM20.4528 18.3742C20.6056 18.5294 20.6072 18.779 20.4552 18.935L18.9664 20.4638L18.3928 19.9062L19.6072 18.6582L18.3688 17.4094L18.9376 16.8462L20.4528 18.3742ZM23.2128 20.4014L21.8336 21.091C21.6984 21.159 21.6128 21.2974 21.6128 21.4486V23.8766L18.3648 25.875L16.8128 24.9878V23.2006C16.8128 22.979 16.6336 22.8006 16.4128 22.8006C16.1912 22.8006 16.0128 22.979 16.0128 23.2006V24.9878L14.46 25.875L11.2128 23.8766V21.4486C11.2128 21.2974 11.1264 21.159 10.9912 21.091L9.61285 20.4014V17.0958L11.0552 15.9966C11.1544 15.9214 11.2128 15.8038 11.2128 15.6782V13.4142L14.1872 11.6798L16.0128 12.699V14.4006H16.8128V12.699L18.6384 11.6798L21.6128 13.4142V15.6782C21.6128 15.8038 21.6712 15.9214 21.7704 15.9966L23.2128 17.0958V20.4014ZM22.4128 15.4806V13.1846C22.4128 13.0422 22.3368 12.9102 22.2144 12.839L18.8448 10.8734C18.7216 10.8022 18.5712 10.8006 18.448 10.8702L16.4232 12.0006H16.4024L14.3776 10.8702C14.2536 10.8006 14.1032 10.803 13.9808 10.8734L10.6112 12.839C10.4888 12.9102 10.4128 13.0422 10.4128 13.1846V15.4806L8.97045 16.579C8.87125 16.655 8.81285 16.7726 8.81285 16.8974V20.6486C8.81285 20.8006 8.89845 20.939 9.03365 21.007L10.4128 21.6958V24.0998C10.4128 24.239 10.4848 24.3678 10.6032 24.4406L14.2432 26.6806C14.368 26.7574 14.524 26.7598 14.6512 26.687L16.4128 25.6806L18.1744 26.687C18.236 26.7222 18.304 26.74 18.3728 26.74C18.4456 26.74 18.5184 26.7198 18.5824 26.6806L22.2224 24.4406C22.3408 24.3678 22.4128 24.239 22.4128 24.0998V21.6958L23.7912 21.007C23.9264 20.939 24.0128 20.8006 24.0128 20.6486V16.8974C24.0128 16.7726 23.9544 16.655 23.8552 16.579L22.4128 15.4806ZM5.65285 8.0006L5.66325 5.5998L26.4128 5.6262L26.4056 8.0006H5.65285ZM26.3616 4.7998H5.66325C5.19445 4.7998 4.81285 5.1702 4.81285 5.6254L4.80005 19.9742C4.80005 20.4262 5.17925 20.7974 5.64805 20.8006L8.01285 20.7998V19.9998L5.60005 19.9742L5.64965 8.8006H26.4032L26.368 20.0006H24.8128V20.8006H26.368C26.8336 20.8006 27.2128 20.4214 27.2128 19.9558V8.8006V8.0006V5.6262C27.2128 5.171 26.8304 4.7998 26.3616 4.7998Z" fill="white"/>
</g>
<defs>
<linearGradient id="paint0_linear_854_27220" x1="-6.6304" y1="38.6304" x2="38.6261" y2="-6.62613" gradientUnits="userSpaceOnUse">
<stop stop-color="#055F4E"/>
<stop offset="1" stop-color="#56C0A7"/>
</linearGradient>
<clipPath id="clip0_854_27220">
<rect width="32" height="32" fill="white"/>
</clipPath>
</defs>
</svg>
