<svg width="32" height="32" viewBox="0 0 32 32" fill="none" xmlns="http://www.w3.org/2000/svg">
<g clip-path="url(#clip0_854_27163)">
<path d="M32 0H0V32H32V0Z" fill="url(#paint0_linear_854_27163)"/>
<path fill-rule="evenodd" clip-rule="evenodd" d="M19.2 21.6576H26.4V10.4576H19.2V21.6576ZM18.4 21.6576V10.4576H16.8V12.0576H17.6V12.8576H16.8V15.2576H17.6V16.0576H16.8V18.4576H17.6V19.2576H16.8V21.6576H18.4ZM27.2 10.0576V22.0576C27.2 22.2784 27.0208 22.4576 26.8 22.4576H16.4C16.1792 22.4576 16 22.2784 16 22.0576V19.2576H15.2V18.4576H16V16.0576H15.2V15.2576H16V12.8576H15.2V12.0576H16V10.0576C16 9.83679 16.1792 9.65759 16.4 9.65759H26.8C27.0208 9.65759 27.2 9.83679 27.2 10.0576ZM16 23.2576H16.8V25.2576C16.8 25.4088 16.7136 25.5472 16.5792 25.6152L13.3792 27.2152C13.3224 27.2432 13.2608 27.2576 13.2 27.2576C13.1312 27.2576 13.0632 27.24 13.0016 27.2048L7.40165 24.0048C7.27685 23.9336 7.20005 23.8008 7.20005 23.6576V19.92L5.01845 18.8144C4.88405 18.7464 4.80005 18.608 4.80005 18.4576V13.2576C4.80005 13.124 4.86725 12.9992 4.97845 12.9248L7.20005 11.4432V8.05759C7.20005 7.91199 7.28005 7.77759 7.40725 7.70719L12.596 4.84879C12.708 4.78879 12.8416 4.78319 12.956 4.83599L16.5672 6.49359C16.7088 6.55919 16.8 6.70159 16.8 6.85759V8.85759H16V7.11439L12.8056 5.64719L12 6.09039V9.65759H11.2V6.53119L8.00005 8.29359V11.036L10.7824 12.7752L12.8 11.4224V9.65759H13.6V11.636C13.6 11.7696 13.5336 11.8936 13.4224 11.9688L11.2 13.4576V15.2576H13.6V16.0576H10.8C10.5792 16.0576 10.4 15.8784 10.4 15.6576V13.4792L7.90325 11.9184C7.88005 11.9456 7.85205 11.9704 7.82165 11.9904L5.60005 13.4712V15.6624L8.15925 13.7376L8.64085 14.3768L5.60005 16.664V18.212L7.78085 19.3176C7.79765 19.3256 7.80485 19.3432 7.82005 19.3536L9.74405 17.7504L10.256 18.3648L8.00005 20.2448V23.4256L10.124 24.6392L11.2 23.7592V19.2576H12V23.104L14.1472 21.348L14.6528 21.9672L10.868 25.064L13.2128 26.404L16 25.0104V23.2576Z" fill="white"/>
</g>
<defs>
<linearGradient id="paint0_linear_854_27163" x1="-6.6304" y1="38.6304" x2="38.6261" y2="-6.62613" gradientUnits="userSpaceOnUse">
<stop stop-color="#055F4E"/>
<stop offset="1" stop-color="#56C0A7"/>
</linearGradient>
<clipPath id="clip0_854_27163">
<rect width="32" height="32" fill="white"/>
</clipPath>
</defs>
</svg>
