<svg width="32" height="32" viewBox="0 0 32 32" fill="none" xmlns="http://www.w3.org/2000/svg">
<g clip-path="url(#clip0_854_27017)">
<path d="M32 0H0V32H32V0Z" fill="url(#paint0_linear_854_27017)"/>
<path d="M16 22.1352C14.7865 22.1352 13.6003 21.7754 12.5913 21.1012C11.5823 20.427 10.7959 19.4688 10.3315 18.3477C9.86716 17.2266 9.74566 15.9929 9.9824 14.8028C10.2191 13.6126 10.8035 12.5194 11.6615 11.6613C12.5196 10.8032 13.6128 10.2189 14.803 9.98215C15.9932 9.74541 17.2268 9.86692 18.3479 10.3313C19.469 10.7957 20.4273 11.5821 21.1014 12.591C21.7756 13.6 22.1354 14.7862 22.1354 15.9997C22.1332 17.6263 21.486 19.1855 20.3359 20.3357C19.1858 21.4858 17.6265 22.1329 16 22.1352V22.1352ZM16 10.7176C14.9553 10.7176 13.934 11.0274 13.0654 11.6078C12.1967 12.1882 11.5197 13.0132 11.1199 13.9783C10.7201 14.9435 10.6155 16.0056 10.8193 17.0302C11.0231 18.0549 11.5262 18.996 12.2649 19.7348C13.0037 20.4735 13.9448 20.9766 14.9695 21.1804C15.9941 21.3842 17.0562 21.2796 18.0214 20.8798C18.9865 20.48 19.8115 19.803 20.3919 18.9343C20.9723 18.0657 21.2821 17.0444 21.2821 15.9997C21.2798 14.5995 20.7226 13.2573 19.7325 12.2672C18.7424 11.2771 17.4002 10.7199 16 10.7176V10.7176Z" fill="white"/>
<path d="M8.15797 13.0517L7.36011 12.7487C8.03227 10.9961 9.21877 9.48772 10.7638 8.42167C12.3088 7.35562 14.1401 6.78174 16.0172 6.77539C16.1016 6.77574 16.1839 6.80111 16.2539 6.84829C16.3239 6.89546 16.3783 6.96232 16.4102 7.04041C16.4422 7.11851 16.4503 7.20433 16.4335 7.28702C16.4167 7.36971 16.3758 7.44557 16.3158 7.50499L14.8908 8.93006L14.2892 8.32419L14.9334 7.70552C13.4278 7.90527 12.0038 8.50724 10.8115 9.44807C9.61912 10.3889 8.70246 11.6338 8.15797 13.0517V13.0517Z" fill="white"/>
<path d="M24.8447 16.4607C24.7886 16.461 24.7329 16.4502 24.6809 16.429C24.6289 16.4078 24.5817 16.3765 24.5418 16.337L23.121 14.9332L23.7226 14.3274L24.3455 14.9332C24.1421 13.4303 23.538 12.0098 22.5966 10.8207C21.6552 9.6316 20.4113 8.71769 18.9951 8.17482L19.2981 7.37695C21.0507 8.04912 22.5591 9.23561 23.6251 10.7806C24.6912 12.3256 25.265 14.1569 25.2714 16.034C25.2714 16.1472 25.2264 16.2557 25.1464 16.3357C25.0664 16.4157 24.9579 16.4607 24.8447 16.4607V16.4607Z" fill="white"/>
<path d="M16.0172 25.2881C15.9333 25.2878 15.8514 25.2627 15.7817 25.2161C15.712 25.1694 15.6576 25.1033 15.6252 25.0259C15.5929 24.9485 15.5841 24.8633 15.6 24.7809C15.6158 24.6985 15.6555 24.6227 15.7143 24.5628L17.1393 23.1377L17.7409 23.7393L17.118 24.3622C18.623 24.1607 20.0462 23.5581 21.2382 22.6175C22.4303 21.6769 23.3474 20.433 23.8935 19.0161L24.6913 19.319C24.0169 21.0732 22.8274 22.5823 21.2792 23.6477C19.731 24.7131 17.8966 25.2849 16.0172 25.2881V25.2881Z" fill="white"/>
<path d="M12.7316 24.6912C10.979 24.019 9.47063 22.8325 8.40458 21.2875C7.33853 19.7425 6.76465 17.9112 6.75831 16.0341C6.75782 15.9494 6.78257 15.8664 6.82942 15.7958C6.87627 15.7252 6.94309 15.6701 7.02136 15.6376C7.09963 15.6051 7.1858 15.5966 7.26889 15.6133C7.35198 15.63 7.42823 15.671 7.48791 15.7312L8.91297 17.1563L8.30711 17.7579L7.67991 17.1392C7.88489 18.6417 8.49011 20.0614 9.43216 21.2497C10.3742 22.4379 11.6185 23.351 13.0346 23.8933L12.7316 24.6912Z" fill="white"/>
<path d="M6.79227 15.8511L5.7229 17.5928L6.4501 18.0393L7.51946 16.2976L6.79227 15.8511Z" fill="white"/>
<path d="M25.5511 14.1043L24.4814 15.8457L25.2086 16.2923L26.2782 14.5509L25.5511 14.1043Z" fill="white"/>
<path d="M14.8178 5.42043L14.229 6.03809L15.7083 7.44826L16.2971 6.83061L14.8178 5.42043Z" fill="white"/>
<path d="M16.3102 24.5532L15.7214 25.1709L17.2007 26.5811L17.7895 25.9634L16.3102 24.5532Z" fill="white"/>
<path d="M15.9787 16.0039C15.5726 16.0048 15.1754 15.8851 14.8373 15.6602C14.4993 15.4352 14.2356 15.1149 14.0796 14.74C13.9236 14.3651 13.8823 13.9523 13.961 13.5539C14.0397 13.1555 14.2349 12.7895 14.5217 12.502C14.8085 12.2146 15.1742 12.0187 15.5724 11.9392C15.9707 11.8596 16.3835 11.9 16.7588 12.0552C17.134 12.2104 17.4548 12.4735 17.6805 12.8111C17.9062 13.1486 18.0267 13.5456 18.0267 13.9517C18.0255 14.4949 17.8095 15.0156 17.4258 15.4001C17.0421 15.7846 16.5219 16.0017 15.9787 16.0039V16.0039ZM15.9787 12.757C15.7412 12.7562 15.5088 12.8259 15.311 12.9573C15.1131 13.0887 14.9588 13.2759 14.8675 13.4952C14.7763 13.7144 14.7522 13.9558 14.7983 14.1888C14.8444 14.4218 14.9587 14.6358 15.1266 14.8037C15.2946 14.9716 15.5086 15.0859 15.7415 15.132C15.9745 15.1782 16.2159 15.1541 16.4352 15.0628C16.6544 14.9715 16.8416 14.8172 16.973 14.6194C17.1045 14.4216 17.1742 14.1892 17.1733 13.9517C17.1722 13.6352 17.046 13.332 16.8222 13.1082C16.5984 12.8844 16.2952 12.7581 15.9787 12.757V12.757Z" fill="white"/>
<path d="M18.833 19.0591H13.1242C13.0111 19.0591 12.9025 19.0142 12.8225 18.9341C12.7425 18.8541 12.6975 18.7456 12.6975 18.6324C12.6948 18.0524 12.8398 17.4813 13.119 16.9729C13.3982 16.4645 13.8023 16.0357 14.2933 15.7268C14.805 15.4077 15.3969 15.2405 15.9999 15.2447C16.8838 15.2604 17.7254 15.6258 18.3403 16.2608C18.9553 16.8957 19.2936 17.7486 19.281 18.6324C19.2811 18.6903 19.2694 18.7476 19.2466 18.8008C19.2239 18.854 19.1905 18.902 19.1486 18.9419C19.1067 18.9819 19.0571 19.0128 19.0029 19.033C18.9486 19.0531 18.8908 19.062 18.833 19.0591ZM13.585 18.2058H18.3722C18.2874 17.6279 18.0003 17.0989 17.562 16.7129C17.1237 16.3269 16.5626 16.109 15.9786 16.098C15.5413 16.0989 15.1128 16.2215 14.7413 16.4522C14.4355 16.6461 14.1743 16.9026 13.975 17.2049C13.7757 17.5072 13.6428 17.8483 13.585 18.2058V18.2058Z" fill="white"/>
</g>
<defs>
<linearGradient id="paint0_linear_854_27017" x1="-6.62613" y1="38.6274" x2="38.6287" y2="-6.62742" gradientUnits="userSpaceOnUse">
<stop stop-color="#055F4E"/>
<stop offset="1" stop-color="#56C0A7"/>
</linearGradient>
<clipPath id="clip0_854_27017">
<rect width="32" height="32" fill="white"/>
</clipPath>
</defs>
</svg>
