<svg width="32" height="32" viewBox="0 0 32 32" fill="none" xmlns="http://www.w3.org/2000/svg">
<g clip-path="url(#clip0_854_27022)">
<path d="M32 0H0V32H32V0Z" fill="url(#paint0_linear_854_27022)"/>
<path d="M5.8709 26.6666C5.7783 26.6664 5.68734 26.6422 5.60682 26.5965C5.52631 26.5507 5.45897 26.485 5.41133 26.4056C5.36369 26.3262 5.33736 26.2358 5.33491 26.1433C5.33245 26.0507 5.35394 25.9591 5.3973 25.8773L7.1893 22.3871C6.56248 21.3466 6.23199 20.1544 6.23356 18.9397C6.24165 17.6791 6.5997 16.4455 7.26779 15.3766C7.93589 14.3076 8.88778 13.4451 10.0173 12.8855C11.1469 12.3258 12.4096 12.0908 13.6649 12.2068C14.9201 12.3228 16.1185 12.7852 17.1264 13.5423L16.6144 14.225C15.5073 13.3757 14.136 12.9446 12.7421 13.0077C11.3482 13.0707 10.0214 13.6239 8.99558 14.5697C7.96973 15.5154 7.31076 16.793 7.13486 18.1772C6.95896 19.5613 7.27742 20.9631 8.0341 22.1354C8.07484 22.1984 8.09826 22.271 8.10201 22.3459C8.10576 22.4208 8.08969 22.4953 8.05543 22.5621L6.5877 25.4207L9.52316 23.9615C9.58988 23.9273 9.66445 23.9112 9.73936 23.915C9.81427 23.9187 9.88686 23.9421 9.94983 23.9829C11.2669 24.7814 12.8414 25.0403 14.3448 24.7056C15.8482 24.3709 17.1642 23.4684 18.0181 22.1866L18.7264 22.6602C17.7728 24.0941 16.3126 25.1148 14.6383 25.5175C12.9641 25.9203 11.1994 25.6754 9.6981 24.8319L6.1141 26.6111C6.03824 26.6477 5.95511 26.6667 5.8709 26.6666V26.6666ZM16.8533 17.3354H16V19.8399H16.8533V17.3354ZM15.5733 15.5903H14.72V21.5637H15.5733V15.5903ZM14.2933 16.8703H13.44V20.2837H14.2933V16.8703ZM13.0133 15.5903H12.16V21.5637H13.0133V15.5903ZM11.7333 16.4437H10.88V20.7103H11.7333V16.4437ZM10.4533 16.017H9.59996V21.137H10.4533V16.017ZM9.1733 17.297H8.31996V20.2837H9.1733V17.297ZM26.6666 21.9903V15.1637H25.8133V21.5637H19.4133V22.417H26.24C26.2975 22.417 26.3544 22.4055 26.4073 22.383C26.4602 22.3605 26.508 22.3275 26.5479 22.2861C26.5877 22.2446 26.6188 22.1955 26.6392 22.1418C26.6596 22.088 26.6689 22.0307 26.6666 21.9733V21.9903ZM26.5386 9.72793L22.2378 5.46126C22.1677 5.38981 22.0733 5.3472 21.9733 5.3418H14.2933C14.1801 5.3418 14.0716 5.38675 13.9916 5.46676C13.9116 5.54678 13.8666 5.6553 13.8666 5.76846V11.3151H14.72V6.19513H21.5466V10.0351C21.5398 10.0899 21.5449 10.1455 21.5617 10.198C21.5785 10.2506 21.6066 10.2989 21.644 10.3395C21.6813 10.3801 21.7271 10.4121 21.7781 10.4332C21.8291 10.4543 21.884 10.4641 21.9392 10.4618H25.8133V12.5951H26.6666V10.0351C26.6693 9.97511 26.6593 9.91521 26.6373 9.85933C26.6152 9.80345 26.5816 9.75286 26.5386 9.71086V9.72793ZM22.4 9.617V6.77966L25.1989 9.59993L22.4 9.617ZM24.1066 11.3237H19.84V12.177H24.1066V11.3237ZM23.68 13.0303H18.1333V13.8837H23.68V13.0303ZM19.84 8.76366H16.4266V9.617H19.84V8.76366ZM18.9866 11.3237H16.4266V12.177H18.9866V11.3237ZM18.1333 16.017H17.28V21.137H18.1333V16.017ZM19.4133 16.8703H18.56V20.2837H19.4133V16.8703Z" fill="white"/>
</g>
<defs>
<linearGradient id="paint0_linear_854_27022" x1="-6.62613" y1="38.6261" x2="38.6304" y2="-6.6304" gradientUnits="userSpaceOnUse">
<stop stop-color="#055F4E"/>
<stop offset="1" stop-color="#56C0A7"/>
</linearGradient>
<clipPath id="clip0_854_27022">
<rect width="32" height="32" fill="white"/>
</clipPath>
</defs>
</svg>
