<svg width="32" height="32" viewBox="0 0 32 32" fill="none" xmlns="http://www.w3.org/2000/svg">
<g clip-path="url(#clip0_854_27181)">
<path d="M32 0H0V32H32V0Z" fill="url(#paint0_linear_854_27181)"/>
<path fill-rule="evenodd" clip-rule="evenodd" d="M16 9.5998C19.2576 9.5998 21.9488 12.0478 22.3448 15.1998H19.8848L18.0848 11.8414C18.012 11.7038 17.868 11.6198 17.7088 11.631C17.552 11.6406 17.4168 11.7398 17.36 11.8854L14.4408 19.4094L12.8216 16.219C12.7528 16.0846 12.616 15.9998 12.4648 15.9998H9.60005C9.60005 12.471 12.4712 9.5998 16 9.5998ZM16 22.3998C12.7424 22.3998 10.0512 19.9518 9.65525 16.7998H12.2192L14.132 20.5702C14.204 20.711 14.36 20.8046 14.5088 20.7886C14.6664 20.7814 14.8048 20.6814 14.8616 20.5334L17.7912 12.9854L19.2936 15.7886C19.3632 15.9182 19.4984 15.9998 19.6464 15.9998H22.4C22.4 19.5286 19.5288 22.3998 16 22.3998ZM8.84725 16.7998C9.24725 20.3942 12.3 23.1998 16 23.1998C19.9704 23.1998 23.2 19.9694 23.2 15.9998H26.8C27.0208 15.9998 27.2 15.8206 27.2 15.5998V13.6494C27.2 13.1814 26.8184 12.7998 26.3504 12.7998H24.9336C24.7712 12.2662 24.556 11.7478 24.2912 11.2518L25.2936 10.2494C25.4544 10.0886 25.5432 9.875 25.5432 9.6486C25.5432 9.4214 25.4544 9.2078 25.2936 9.047L22.952 6.7054C22.6208 6.3758 22.0824 6.375 21.7504 6.7062L20.7488 7.7094C20.252 7.4438 19.7344 7.2286 19.2 7.0662V5.6502C19.2 5.1814 18.8184 4.7998 18.3504 4.7998H13.6496C13.1816 4.7998 12.8 5.1814 12.8 5.6502V7.0662C12.2656 7.2286 11.748 7.4438 11.2512 7.7094L10.2496 6.7062C9.91925 6.3766 9.38165 6.375 9.04725 6.7062L6.70645 9.047C6.54565 9.2078 6.45685 9.4214 6.45685 9.6486C6.45685 9.875 6.54565 10.0886 6.70645 10.2494L7.70565 11.2486C7.45765 11.7022 7.23445 12.2446 7.06645 12.7998H5.63765C5.17605 12.7998 4.80005 13.1758 4.80005 13.6374V14.3998H5.60005L5.63765 13.5998H7.36885C7.54965 13.5998 7.70965 13.4774 7.75525 13.3022C7.93845 12.6102 8.23365 11.8974 8.54565 11.3934C8.64325 11.235 8.61925 11.031 8.48805 10.8998L7.27205 9.6126L9.68325 7.2718L10.9 8.4886C11.028 8.6166 11.2272 8.6414 11.3832 8.551C11.988 8.1998 12.6336 7.9318 13.3024 7.755C13.4784 7.7086 13.6 7.5494 13.6 7.3678V5.5998H18.4V7.3678C18.4 7.5494 18.5216 7.7086 18.6976 7.755C19.3664 7.9318 20.012 8.1998 20.6168 8.551C20.7728 8.643 20.9712 8.6166 21.1 8.4886L22.3872 7.2718L24.728 9.6838L23.512 10.8998C23.3832 11.0278 23.3576 11.227 23.4488 11.3838C23.8 11.9886 24.068 12.6334 24.2448 13.3022C24.2904 13.4774 24.4504 13.5998 24.6312 13.5998L26.4 13.6494V15.1998H23.1528C22.7528 11.6054 19.7 8.7998 16 8.7998C12.0296 8.7998 8.80005 12.0302 8.80005 15.9998H5.20005C4.97925 15.9998 4.80005 16.179 4.80005 16.3998V18.3502C4.80005 18.8182 5.18165 19.1998 5.64965 19.1998H7.06085C7.24645 19.7382 7.49285 20.2606 7.79605 20.7598L6.82965 21.7174C6.64565 21.879 6.54005 22.1126 6.54005 22.3566C6.54005 22.6014 6.64565 22.835 6.82085 22.9886L9.39045 25.3686C9.70885 25.6486 10.1912 25.6494 10.5128 25.3686L11.7648 24.2702C12.2736 24.507 12.888 24.7294 13.6 24.935V26.3494C13.6 26.8182 13.9816 27.1998 14.4504 27.1998H18.3504C18.8184 27.1998 19.2 26.8182 19.2 26.3494V24.9446C19.8344 24.7766 20.4496 24.551 21.0368 24.271L22.2664 25.3494C22.5992 25.6414 23.1 25.6398 23.4472 25.3358L25.8288 23.0198C26.0096 22.8614 26.1128 22.635 26.1128 22.3998C26.1128 22.1646 26.0096 21.9382 25.8704 21.8214L24.9896 20.783C25.2992 20.2774 25.5504 19.747 25.7392 19.1998H26.3504C26.8184 19.1998 27.2 18.8182 27.2 18.3502V17.5998H26.4L26.3504 18.3998H25.4488C25.272 18.3998 25.1168 18.5158 25.0656 18.6838C24.864 19.3502 24.5592 19.9934 24.16 20.5958C24.0616 20.7446 24.0736 20.9398 24.188 21.0758L25.2592 22.339C25.2728 22.3534 25.2712 22.4198 25.2856 22.4326L22.9048 24.7486C22.8752 24.7726 22.8216 24.7742 22.7936 24.7486L21.3632 23.4934C21.24 23.3862 21.064 23.3638 20.9168 23.4374C20.2224 23.7926 19.48 24.063 18.7096 24.2422C18.528 24.2838 18.4 24.4454 18.4 24.6318V26.3998H14.4V24.6318C14.4 24.451 14.2792 24.2926 14.1048 24.2454C13.1976 23.999 12.4504 23.727 11.8832 23.4374C11.7352 23.363 11.56 23.3854 11.4368 23.4934L9.92645 24.775L7.36485 22.4022C7.36165 22.3998 7.37765 22.3054 7.37445 22.303L8.58725 21.1014C8.72325 20.967 8.74565 20.755 8.64005 20.5958C8.24085 19.9934 7.93605 19.3502 7.73445 18.6838C7.68325 18.5158 7.52805 18.3998 7.35125 18.3998L5.60005 18.3502V16.7998H8.84725Z" fill="white"/>
</g>
<defs>
<linearGradient id="paint0_linear_854_27181" x1="-6.6304" y1="38.6304" x2="38.6261" y2="-6.62613" gradientUnits="userSpaceOnUse">
<stop stop-color="#055F4E"/>
<stop offset="1" stop-color="#56C0A7"/>
</linearGradient>
<clipPath id="clip0_854_27181">
<rect width="32" height="32" fill="white"/>
</clipPath>
</defs>
</svg>
