<svg width="32" height="32" viewBox="0 0 32 32" fill="none" xmlns="http://www.w3.org/2000/svg">
<g clip-path="url(#clip0_854_27021)">
<path d="M32 0H0V32H32V0Z" fill="url(#paint0_linear_854_27021)"/>
<path d="M26.2143 24.1491H25.361V23.5091H25.9028V10.052L23.0143 7.53898H14.3786V8.02965H13.7386V7.21898C13.738 7.1768 13.7459 7.13493 13.7617 7.09585C13.7776 7.05676 13.8012 7.02126 13.831 6.99143C13.8608 6.9616 13.8963 6.93805 13.9354 6.92217C13.9745 6.90629 14.0164 6.89841 14.0586 6.89898H23.1252C23.2021 6.89753 23.2767 6.92493 23.3343 6.97578L26.4276 9.66378C26.4612 9.69384 26.4881 9.73067 26.5065 9.77185C26.5249 9.81302 26.5343 9.85762 26.5343 9.90271V23.8291C26.5343 23.914 26.5006 23.9954 26.4406 24.0554C26.3806 24.1154 26.2992 24.1491 26.2143 24.1491V24.1491Z" fill="white"/>
<path d="M24.8619 25.1005H13.103C13.0181 25.1005 12.9367 25.0668 12.8767 25.0068C12.8167 24.9468 12.783 24.8654 12.783 24.7805V22.4211H13.423V24.4605H24.5419V11.3917L22.0416 8.89146H13.423V11.4045H12.8V8.57146C12.8011 8.48694 12.8352 8.40619 12.895 8.34641C12.9547 8.28664 13.0355 8.25257 13.12 8.25146H22.1867C22.2715 8.25154 22.3529 8.2853 22.4128 8.34533L25.1008 11.0333C25.1609 11.0933 25.1946 11.1746 25.1947 11.2595V24.7805C25.1947 24.8237 25.186 24.8663 25.1692 24.906C25.1523 24.9457 25.1276 24.9816 25.0965 25.0115C25.0654 25.0413 25.0286 25.0646 24.9883 25.0799C24.948 25.0953 24.905 25.1023 24.8619 25.1005V25.1005Z" fill="white"/>
<path d="M24.8619 11.5793H22.1867C22.1022 11.5782 22.0214 11.5441 21.9616 11.4843C21.9019 11.4246 21.8678 11.3438 21.8667 11.2593V8.57129H22.5067V10.9393H24.8747L24.8619 11.5793Z" fill="white"/>
<path d="M17.1264 16.9556H14.0288V17.5956H17.1264V16.9556Z" fill="white"/>
<path d="M16.5548 18.5728H13.1201V19.2128H16.5548V18.5728Z" fill="white"/>
<path d="M23.3087 16.9639H18.2954V17.6039H23.3087V16.9639Z" fill="white"/>
<path d="M23.2362 18.918H19.5669V19.558H23.2362V18.918Z" fill="white"/>
<path d="M23.2364 13.2222H17.071V13.8622H23.2364V13.2222Z" fill="white"/>
<path d="M23.2361 14.9248H19.5967V15.5648H23.2361V14.9248Z" fill="white"/>
<path d="M11.6993 16.8701H9.94141V17.5101H11.6993V16.8701Z" fill="white"/>
<path d="M8.37967 16.8701H5.97754V17.5101H8.37967V16.8701Z" fill="white"/>
<path d="M9.87728 15.5303H7.59888V16.1703H9.87728V15.5303Z" fill="white"/>
<path d="M10.2826 18.2441H7.1167V18.8841H10.2826V18.2441Z" fill="white"/>
<path d="M13.4529 20.8721C12.6732 20.8721 11.9109 20.6409 11.2626 20.2077C10.6143 19.7745 10.109 19.1588 9.8106 18.4384C9.51221 17.718 9.43413 16.9253 9.58625 16.1606C9.73837 15.3958 10.1138 14.6934 10.6652 14.142C11.2166 13.5907 11.919 13.2152 12.6838 13.0631C13.4485 12.9109 14.2412 12.989 14.9616 13.2874C15.682 13.5858 16.2977 14.0911 16.7309 14.7394C17.1641 15.3878 17.3953 16.15 17.3953 16.9297C17.3953 17.4474 17.2933 17.9601 17.0952 18.4384C16.8971 18.9167 16.6067 19.3513 16.2406 19.7174C15.8745 20.0835 15.4399 20.3739 14.9616 20.572C14.4833 20.7701 13.9706 20.8721 13.4529 20.8721V20.8721ZM13.4529 13.6188C12.7997 13.6188 12.1613 13.8125 11.6182 14.1753C11.0751 14.5382 10.6518 15.054 10.4019 15.6574C10.1519 16.2608 10.0865 16.9248 10.214 17.5654C10.3414 18.206 10.6559 18.7945 11.1178 19.2563C11.5796 19.7182 12.168 20.0327 12.8086 20.1601C13.4492 20.2875 14.1132 20.2221 14.7167 19.9722C15.3201 19.7222 15.8359 19.299 16.1987 18.7559C16.5616 18.2128 16.7553 17.5743 16.7553 16.9212C16.7519 16.0471 16.4026 15.21 15.7838 14.5928C15.165 13.9755 14.3269 13.6284 13.4529 13.6273V13.6188Z" fill="white"/>
<path d="M13.4528 22.1311C12.4241 22.1311 11.4185 21.8261 10.5632 21.2546C9.70791 20.6831 9.04127 19.8708 8.64762 18.9204C8.25396 17.9701 8.15096 16.9243 8.35165 15.9154C8.55233 14.9065 9.04769 13.9797 9.77507 13.2524C10.5025 12.525 11.4292 12.0296 12.4381 11.8289C13.447 11.6283 14.4928 11.7313 15.4431 12.1249C16.3935 12.5186 17.2058 13.1852 17.7773 14.0405C18.3488 14.8958 18.6538 15.9014 18.6538 16.9301C18.6516 18.3088 18.1029 19.6304 17.128 20.6053C16.1531 21.5802 14.8315 22.1289 13.4528 22.1311V22.1311ZM13.4528 12.369C12.5507 12.369 11.6688 12.6365 10.9188 13.1377C10.1687 13.6389 9.58412 14.3512 9.2389 15.1846C8.89369 16.0181 8.80336 16.9351 8.97935 17.8199C9.15534 18.7047 9.58974 19.5174 10.2276 20.1552C10.8655 20.7931 11.6782 21.2275 12.563 21.4035C13.4477 21.5795 14.3648 21.4892 15.1982 21.1439C16.0316 20.7987 16.744 20.2141 17.2452 19.4641C17.7463 18.714 18.0138 17.8322 18.0138 16.9301C18.0116 15.7215 17.5302 14.5631 16.6752 13.7089C15.8202 12.8547 14.6614 12.3744 13.4528 12.3733V12.369Z" fill="white"/>
<path d="M13.44 15.4023H12.8V17.173H13.44V15.4023Z" fill="white"/>
<path d="M14.5066 15.8502H13.8666V15.6795H12.3434V15.8502H11.7034V15.3596C11.7034 15.2747 11.7371 15.1933 11.7971 15.1333C11.8571 15.0733 11.9385 15.0396 12.0234 15.0396H14.1908C14.2327 15.0395 14.2741 15.0479 14.3127 15.064C14.3512 15.0801 14.3862 15.1038 14.4156 15.1335C14.445 15.1633 14.4682 15.1986 14.4838 15.2374C14.4994 15.2762 14.5071 15.3177 14.5066 15.3596V15.8502Z" fill="white"/>
<path d="M13.6106 16.9258H12.561V17.5658H13.6106V16.9258Z" fill="white"/>
<path d="M6.4 18.2653L5.54666 17.4119C5.51635 17.3821 5.49227 17.3466 5.47583 17.3074C5.45939 17.2682 5.45093 17.2262 5.45093 17.1837C5.45093 17.1412 5.45939 17.0991 5.47583 17.0599C5.49227 17.0207 5.51635 16.9852 5.54666 16.9554L6.4 16.1021L6.85226 16.5543L6.2336 17.173L6.85226 17.7959L6.4 18.2653Z" fill="white"/>
</g>
<defs>
<linearGradient id="paint0_linear_854_27021" x1="-6.62613" y1="38.6232" x2="38.6287" y2="-6.63168" gradientUnits="userSpaceOnUse">
<stop stop-color="#055F4E"/>
<stop offset="1" stop-color="#56C0A7"/>
</linearGradient>
<clipPath id="clip0_854_27021">
<rect width="32" height="32" fill="white"/>
</clipPath>
</defs>
</svg>
