<svg width="32" height="32" viewBox="0 0 32 32" fill="none" xmlns="http://www.w3.org/2000/svg">
<g clip-path="url(#clip0_854_27328)">
<path d="M32 0H0V32H32V0Z" fill="url(#paint0_linear_854_27328)"/>
<path fill-rule="evenodd" clip-rule="evenodd" d="M26.4007 21.5998H24.4007C24.1799 21.5998 24.0007 21.4206 24.0007 21.1998V19.1998H21.6007V21.1998C21.6007 21.4206 21.4215 21.5998 21.2007 21.5998H19.2007V23.9998H21.2007C21.4215 23.9998 21.6007 24.179 21.6007 24.3998V26.3998H24.0007V24.3998C24.0007 24.179 24.1799 23.9998 24.4007 23.9998H26.4007V21.5998ZM27.2007 21.1998V24.3998C27.2007 24.6206 27.0215 24.7998 26.8007 24.7998H24.8007V26.7998C24.8007 27.0206 24.6215 27.1998 24.4007 27.1998H21.2007C20.9799 27.1998 20.8007 27.0206 20.8007 26.7998V24.7998H18.8007C18.5799 24.7998 18.4007 24.6206 18.4007 24.3998V21.1998C18.4007 20.979 18.5799 20.7998 18.8007 20.7998H20.8007V18.7998C20.8007 18.579 20.9799 18.3998 21.2007 18.3998H24.4007C24.6215 18.3998 24.8007 18.579 24.8007 18.7998V20.7998H26.8007C27.0215 20.7998 27.2007 20.979 27.2007 21.1998ZM5.67749 7.9886L8.80069 22.2934V7.3478L8.70069 7.3662L5.67749 7.9886ZM20.8007 5.739V7.9998H23.2943L20.8007 5.739ZM9.60069 25.5998H18.4007V26.3998H9.20069C9.00949 26.3998 8.85669 26.263 8.81749 26.083L8.81029 26.0846L4.80949 7.7638C4.78629 7.659 4.80629 7.5502 4.86469 7.4606C4.92229 7.3702 5.01509 7.3078 5.11909 7.2862L8.80069 6.5414V5.1998C8.80069 4.979 8.97989 4.7998 9.20069 4.7998H20.8007C20.8999 4.7998 20.9959 4.8366 21.0695 4.903L24.6695 8.1662C24.7527 8.2422 24.8007 8.3502 24.8007 8.463V17.5998H24.0007V8.7998H20.4007C20.1799 8.7998 20.0007 8.6206 20.0007 8.3998V5.5998H9.60069V25.5998ZM11.2007 19.9998H17.6007V19.1998H11.2007V19.9998ZM11.2007 17.5998H20.8007V16.7998H11.2007V17.5998ZM11.2007 10.3998H18.4007V9.5998H11.2007V10.3998ZM11.2007 15.1998H21.6007V14.3998H11.2007V15.1998ZM14.4007 12.7998H21.6007V11.9998H14.4007V12.7998ZM11.2007 12.7998H13.6007V11.9998H11.2007V12.7998Z" fill="white"/>
</g>
<defs>
<linearGradient id="paint0_linear_854_27328" x1="-6.6304" y1="38.6304" x2="38.6261" y2="-6.62613" gradientUnits="userSpaceOnUse">
<stop stop-color="#055F4E"/>
<stop offset="1" stop-color="#56C0A7"/>
</linearGradient>
<clipPath id="clip0_854_27328">
<rect width="32" height="32" fill="white"/>
</clipPath>
</defs>
</svg>
