<svg width="32" height="32" viewBox="0 0 32 32" fill="none" xmlns="http://www.w3.org/2000/svg">
<g clip-path="url(#clip0_854_27334)">
<path d="M32 0H0V32H32V0Z" fill="url(#paint0_linear_854_27334)"/>
<path fill-rule="evenodd" clip-rule="evenodd" d="M17.4 16.9046L17.8 17.5966C19.6504 16.527 20.8 14.5358 20.8 12.3998C20.8 9.091 18.1088 6.3998 14.8 6.3998C11.4912 6.3998 8.80005 9.091 8.80005 12.3998C8.80005 14.5358 9.94965 16.527 11.8 17.5966L12.2 16.9046C10.596 15.9766 9.60005 14.251 9.60005 12.3998C9.60005 9.5326 11.9328 7.1998 14.8 7.1998C17.6672 7.1998 20 9.5326 20 12.3998C20 14.251 19.004 15.9766 17.4 16.9046ZM21.2504 16.4182C20.8936 16.991 20.4624 17.5166 19.9608 17.979L24.408 21.5734C24.8288 21.9046 25.3672 21.619 25.6872 21.211C26.0232 20.787 26.1512 20.1886 25.7472 19.8694L21.2504 16.4182ZM7.20005 12.3998C7.20005 8.2094 10.6096 4.7998 14.8 4.7998C18.9904 4.7998 22.4 8.2094 22.4 12.3998C22.4 13.571 22.1216 14.6918 21.6336 15.7038L26.2384 19.2382C26.9512 19.8022 26.9832 20.8622 26.316 21.707C25.8968 22.2374 25.348 22.5182 24.8184 22.5182C24.496 22.5182 24.1816 22.4134 23.9088 22.1982L19.3272 18.495C18.9992 18.7382 18.656 18.9638 18.2848 19.1558L17.9176 18.4446C19.0568 17.8558 19.9792 16.9798 20.616 15.931L20.612 15.9278L20.628 15.907C21.252 14.8694 21.6 13.6646 21.6 12.3998C21.6 8.6502 18.5496 5.5998 14.8 5.5998C11.0504 5.5998 8.00005 8.6502 8.00005 12.3998C8.00005 15.1406 9.63125 17.6006 12.1552 18.667L11.8448 19.4038C9.02245 18.2118 7.20005 15.463 7.20005 12.3998ZM5.60005 26.3998V4.7998H4.80005V27.1998H27.2V26.3998H5.60005ZM7.15045 24.591L6.44965 24.2086L8.84965 19.8086C8.91685 19.683 9.04725 19.6038 9.18965 19.5998C9.31445 19.599 9.46645 19.6694 9.54085 19.7902L12.1816 24.0806L14.4056 10.7342C14.4368 10.5454 14.5976 10.4046 14.7888 10.3998H14.8C14.9864 10.3998 15.1496 10.5294 15.1904 10.7134L18.232 24.4022L20.1168 22.5174C20.2736 22.3606 20.5264 22.3606 20.6832 22.5174L22.8 24.6342L24.1168 23.3174L24.6832 23.883L23.0832 25.483C22.9264 25.639 22.6736 25.639 22.5168 25.483L20.4 23.3654L18.2832 25.483C18.18 25.5854 18.0272 25.6238 17.888 25.5838C17.748 25.543 17.6416 25.4294 17.6096 25.287L14.856 12.8966L12.7944 25.2654C12.7672 25.4302 12.6408 25.5606 12.4768 25.5926C12.4504 25.5974 12.4256 25.5998 12.4 25.5998C12.2624 25.5998 12.1328 25.5294 12.0592 25.4094L9.22085 20.7974L7.15045 24.591Z" fill="white"/>
</g>
<defs>
<linearGradient id="paint0_linear_854_27334" x1="-6.6304" y1="38.6304" x2="38.6261" y2="-6.62613" gradientUnits="userSpaceOnUse">
<stop stop-color="#055F4E"/>
<stop offset="1" stop-color="#56C0A7"/>
</linearGradient>
<clipPath id="clip0_854_27334">
<rect width="32" height="32" fill="white"/>
</clipPath>
</defs>
</svg>
