<svg width="32" height="32" viewBox="0 0 32 32" fill="none" xmlns="http://www.w3.org/2000/svg">
<g clip-path="url(#clip0_854_27169)">
<path d="M32 0H0V32H32V0Z" fill="url(#paint0_linear_854_27169)"/>
<path fill-rule="evenodd" clip-rule="evenodd" d="M7.20005 24.7998H9.60005V23.1998H7.20005V24.7998ZM10 22.3998H6.80005C6.57925 22.3998 6.40005 22.579 6.40005 22.7998V25.1998C6.40005 25.4206 6.57925 25.5998 6.80005 25.5998H10C10.2208 25.5998 10.4 25.4206 10.4 25.1998V22.7998C10.4 22.579 10.2208 22.3998 10 22.3998ZM12 24.7998H14.4V23.1998H12V24.7998ZM14.8 22.3998H11.6C11.3792 22.3998 11.2 22.579 11.2 22.7998V25.1998C11.2 25.4206 11.3792 25.5998 11.6 25.5998H14.8C15.0208 25.5998 15.2 25.4206 15.2 25.1998V22.7998C15.2 22.579 15.0208 22.3998 14.8 22.3998ZM24.8 26.3998H5.60005V7.9998H8.80005V13.5998V19.9998V20.7998H9.60005V19.9998V14.5094L13.6 18.1758V19.9998V20.7998H14.4V19.9998V17.9998V14.8534L18.4 18.187V21.1998C18.4 21.4206 18.5792 21.5998 18.8 21.5998H24.8V26.3998ZM5.60005 7.1998H8.80005V5.5998H5.60005V7.1998ZM25.2 20.7998H19.2V17.9998C19.2 17.8814 19.148 17.7686 19.056 17.6926L14.256 13.6926C14.1376 13.5934 13.9712 13.5718 13.8304 13.6374C13.6896 13.703 13.6 13.8446 13.6 13.9998V17.0902L9.60005 13.4238V7.9998V7.1998V5.1998C9.60005 4.979 9.42085 4.7998 9.20005 4.7998H5.20005C4.97925 4.7998 4.80005 4.979 4.80005 5.1998V26.7998C4.80005 27.0206 4.97925 27.1998 5.20005 27.1998H25.2C25.4208 27.1998 25.6 27.0206 25.6 26.7998V21.1998C25.6 20.979 25.4208 20.7998 25.2 20.7998ZM26.1144 18.431C25.8432 18.7398 25.4096 18.9478 25.1 18.6758L21.2448 15.215C21.7112 14.9382 22.1336 14.5966 22.5008 14.2006L26.228 17.3814C26.3528 17.491 26.4104 17.6366 26.3984 17.8158C26.384 18.019 26.2832 18.2374 26.1144 18.431ZM26.7512 16.7766L23.0048 13.579C23.6304 12.675 24 11.5806 24 10.3998C24 7.3118 21.4872 4.7998 18.4 4.7998C15.3128 4.7998 12.8 7.3118 12.8 10.3998C12.8 10.6862 12.8216 10.9758 12.8656 11.2606L13.656 11.139C13.6184 10.895 13.6 10.6454 13.6 10.3998C13.6 7.7526 15.7528 5.5998 18.4 5.5998C21.0472 5.5998 23.2 7.7526 23.2 10.3998C23.2 13.047 21.0472 15.1998 18.4 15.1998V15.9998C19.1328 15.9998 19.8312 15.8542 20.4728 15.5974L24.5688 19.2742C24.8208 19.495 25.1216 19.6022 25.4328 19.6022C25.8784 19.6022 26.344 19.3822 26.716 18.9582C27 18.6334 27.1712 18.247 27.1968 17.8694C27.2248 17.4414 27.0688 17.0542 26.7512 16.7766Z" fill="white"/>
</g>
<defs>
<linearGradient id="paint0_linear_854_27169" x1="-6.6304" y1="38.6304" x2="38.6261" y2="-6.62613" gradientUnits="userSpaceOnUse">
<stop stop-color="#055F4E"/>
<stop offset="1" stop-color="#56C0A7"/>
</linearGradient>
<clipPath id="clip0_854_27169">
<rect width="32" height="32" fill="white"/>
</clipPath>
</defs>
</svg>
