<svg width="32" height="32" viewBox="0 0 32 32" fill="none" xmlns="http://www.w3.org/2000/svg">
<g clip-path="url(#clip0_854_27014)">
<path d="M32 0H0V32H32V0Z" fill="url(#paint0_linear_854_27014)"/>
<path d="M26.4532 25.1222H25.5999C25.5999 23.9499 25.1342 22.8256 24.3052 21.9966C23.4762 21.1677 22.3519 20.702 21.1796 20.702C20.0073 20.702 18.883 21.1677 18.054 21.9966C17.225 22.8256 16.7593 23.9499 16.7593 25.1222H15.906C15.906 23.7236 16.4616 22.3822 17.4506 21.3932C18.4396 20.4042 19.781 19.8486 21.1796 19.8486C22.5783 19.8486 23.9196 20.4042 24.9086 21.3932C25.8976 22.3822 26.4532 23.7236 26.4532 25.1222V25.1222Z" fill="white"/>
<path d="M21.1797 25.5489H17.5232V25.1222C17.5469 24.1595 17.9397 23.2428 18.6202 22.5614C19.3008 21.8801 20.2171 21.4863 21.1797 21.4614C22.1503 21.4626 23.0808 21.8486 23.7671 22.5349C24.4533 23.2212 24.8394 24.1517 24.8405 25.1222H23.9872C23.9861 24.378 23.6899 23.6646 23.1637 23.1383C22.6374 22.612 21.924 22.3159 21.1797 22.3148C20.5174 22.3399 19.8832 22.5891 19.381 23.0216C18.8787 23.4541 18.5381 24.0443 18.4149 24.6956H21.1797V25.5489Z" fill="white"/>
<path d="M25.0326 20.4287L20.8726 24.866L21.4912 25.3738L25.0326 20.4287Z" fill="white"/>
<path d="M21.4913 25.8004C21.3916 25.8006 21.295 25.7659 21.2182 25.7023L20.5995 25.1945C20.5543 25.1573 20.5173 25.1112 20.4907 25.0591C20.4641 25.0069 20.4485 24.9498 20.4449 24.8914C20.4413 24.833 20.4498 24.7744 20.4698 24.7194C20.4898 24.6644 20.5209 24.6141 20.5611 24.5716L24.7467 20.1343C24.8209 20.055 24.9225 20.0069 25.0308 19.9999C25.1391 19.9929 25.2461 20.0274 25.3298 20.0965C25.4136 20.1656 25.4679 20.264 25.4816 20.3717C25.4953 20.4794 25.4675 20.5882 25.4038 20.6761L21.8369 25.6212C21.803 25.6686 21.7598 25.7086 21.7099 25.7387C21.66 25.7688 21.6045 25.7883 21.5467 25.7961L21.4913 25.8004Z" fill="white"/>
<path d="M21.1797 25.5275C21.4036 25.5275 21.5851 25.346 21.5851 25.1221C21.5851 24.8983 21.4036 24.7168 21.1797 24.7168C20.9559 24.7168 20.7744 24.8983 20.7744 25.1221C20.7744 25.346 20.9559 25.5275 21.1797 25.5275Z" fill="white"/>
<path d="M21.1798 25.9499C21.016 25.9457 20.8572 25.8932 20.7231 25.7991C20.589 25.705 20.4857 25.5733 20.4261 25.4207C20.3665 25.2682 20.3533 25.1014 20.3882 24.9413C20.423 24.7812 20.5043 24.635 20.6219 24.5209C20.7394 24.4069 20.8881 24.3301 21.0491 24.3001C21.2102 24.2702 21.3765 24.2885 21.5272 24.3527C21.6779 24.4169 21.8063 24.5242 21.8963 24.661C21.9863 24.7979 22.0339 24.9583 22.0331 25.1221C22.0332 25.233 22.011 25.3428 21.9678 25.4449C21.9246 25.547 21.8613 25.6395 21.7817 25.7167C21.7021 25.7939 21.6078 25.8543 21.5044 25.8944C21.401 25.9344 21.2906 25.9533 21.1798 25.9499V25.9499ZM21.1798 25.0965V25.1435H21.2054C21.2085 25.1418 21.2112 25.1395 21.2134 25.1368C21.2156 25.134 21.2173 25.1309 21.2182 25.1275C21.2192 25.1242 21.2195 25.1206 21.2192 25.1171C21.2188 25.1137 21.2177 25.1103 21.2161 25.1072C21.2144 25.1041 21.2121 25.1014 21.2094 25.0992C21.2066 25.097 21.2035 25.0953 21.2001 25.0943C21.1968 25.0934 21.1932 25.093 21.1898 25.0934C21.1863 25.0938 21.1829 25.0948 21.1798 25.0965V25.0965Z" fill="white"/>
<path d="M12.9365 25.9286C12.8581 25.928 12.7813 25.9059 12.7146 25.8646L8.10663 23.04C8.04435 23.0021 7.99283 22.9489 7.95697 22.8854C7.92112 22.8219 7.90214 22.7503 7.90183 22.6774V19.887L5.7685 18.6752C5.7018 18.6387 5.64606 18.5851 5.60705 18.5198C5.56804 18.4546 5.54718 18.3801 5.54663 18.304V13.6534C5.54676 13.5778 5.56698 13.5035 5.60521 13.4383C5.64345 13.3731 5.69833 13.3192 5.76423 13.2822L7.89756 12.0704V9.28856C7.89714 9.21493 7.91577 9.14243 7.95166 9.07814C7.98755 9.01384 8.03947 8.95992 8.10236 8.92163L12.7146 6.1099C12.7795 6.07245 12.8531 6.05273 12.928 6.05273C13.0029 6.05273 13.0764 6.07245 13.1413 6.1099L15.3728 7.4411L17.5957 6.1099C17.6606 6.07245 17.7341 6.05273 17.809 6.05273C17.8839 6.05273 17.9575 6.07245 18.0224 6.1099L22.6346 8.92163C22.6969 8.95954 22.7484 9.01279 22.7843 9.07628C22.8201 9.13977 22.8391 9.21138 22.8394 9.2843V12.0875L24.9728 13.295C25.0393 13.3324 25.0946 13.3869 25.1329 13.453C25.1711 13.519 25.191 13.5941 25.1904 13.6704V18.3083C25.1902 18.3839 25.17 18.4581 25.1318 18.5233C25.0935 18.5886 25.0387 18.6424 24.9728 18.6795L22.6517 20.0107L22.225 19.2683L23.9104 18.3126L22.528 17.5488C22.3577 17.6887 22.151 17.777 21.9321 17.8034C21.7133 17.8297 21.4916 17.793 21.293 17.6975C21.0943 17.602 20.9271 17.4517 20.8111 17.2643C20.695 17.077 20.6349 16.8604 20.6378 16.64C20.6557 16.345 20.7856 16.0678 21.0009 15.8652C21.2161 15.6626 21.5006 15.5498 21.7962 15.5498C22.0918 15.5498 22.3763 15.6626 22.5916 15.8652C22.8069 16.0678 22.9367 16.345 22.9546 16.64C22.9546 16.6912 22.9546 16.7424 22.9546 16.7894L24.3754 17.5744V13.9222L22.2421 12.7104C22.177 12.6728 22.123 12.6187 22.0855 12.5535C22.048 12.4883 22.0285 12.4144 22.0288 12.3392V11.2683H20.9834C20.8841 11.5195 20.7003 11.7282 20.4637 11.8584C20.227 11.9886 19.9523 12.0322 19.687 11.9817C19.4217 11.9311 19.1823 11.7896 19.0101 11.5815C18.8379 11.3734 18.7436 11.1117 18.7436 10.8416C18.7436 10.5715 18.8379 10.3099 19.0101 10.1018C19.1823 9.89366 19.4217 9.75214 19.687 9.7016C19.9523 9.65105 20.227 9.69464 20.4637 9.82486C20.7003 9.95508 20.8841 10.1638 20.9834 10.415H22.016V9.5275L17.8261 6.9675L15.808 8.17496V12.4416L17.9413 13.679C18.1374 13.5372 18.3734 13.461 18.6154 13.4614C18.8441 13.4614 19.0677 13.5292 19.2578 13.6562C19.448 13.7833 19.5962 13.9639 19.6837 14.1751C19.7712 14.3864 19.7941 14.6189 19.7495 14.8432C19.7049 15.0675 19.5947 15.2735 19.433 15.4352C19.2713 15.5969 19.0653 15.7071 18.841 15.7517C18.6167 15.7963 18.3842 15.7734 18.1729 15.6859C17.9617 15.5984 17.7811 15.4502 17.654 15.26C17.527 15.0699 17.4592 14.8463 17.4592 14.6176C17.4597 14.5446 17.4668 14.4718 17.4805 14.4L15.1594 13.056C15.0943 13.0184 15.0403 12.9643 15.0028 12.8991C14.9654 12.8339 14.9458 12.76 14.9461 12.6848V8.1835L12.928 6.97603L11.0933 8.1067V10.8544H10.24V8.61443L8.7381 9.5275V12.0875L10.6666 13.1798L12.5909 12.0875V10.1078H13.4442V12.3392C13.4441 12.4148 13.4239 12.489 13.3856 12.5543C13.3474 12.6195 13.2925 12.6734 13.2266 12.7104L11.0933 13.9222V15.744L13.2266 17.1478C13.2867 17.1863 13.3362 17.2393 13.3705 17.3019C13.4047 17.3646 13.4228 17.4348 13.4229 17.5062V18.7734L14.9205 17.8902V16.256L12.8682 15.0443L13.2949 14.3104L15.5605 15.6416C15.6242 15.6794 15.677 15.7331 15.7136 15.7974C15.7503 15.8618 15.7696 15.9345 15.7696 16.0086V20.9963H16.9045V21.8496H15.808V24.0384C15.8077 24.1113 15.7887 24.183 15.7528 24.2465C15.717 24.3099 15.6654 24.3632 15.6032 24.4011L13.1541 25.8688C13.0882 25.9079 13.0131 25.9285 12.9365 25.9286ZM11.3621 24.0427L12.9365 25.0027L14.9546 23.7952V18.8672L10.6282 21.4272L10.2016 20.6934L12.608 19.2768V17.7366L10.6666 16.4566L8.48636 17.6768L8.0597 16.9344L10.24 15.727V13.9222L8.31143 12.8299L6.39996 13.9222V15.2662L8.0213 14.3104L8.44796 15.0443L6.39996 16.256V18.0566L8.31996 19.1446L10.2869 17.9883L10.7136 18.7222L8.7509 19.8827V22.4427L10.496 23.5051L12.5226 22.3104V22.3488L12.6208 22.2934L13.0474 23.0272L11.3621 24.0427ZM21.7941 16.3627C21.7332 16.3627 21.6736 16.3808 21.623 16.4148C21.5724 16.4487 21.533 16.497 21.5099 16.5533C21.4868 16.6097 21.4809 16.6717 21.4931 16.7314C21.5054 16.7911 21.535 16.8458 21.5784 16.8886C21.6218 16.9314 21.677 16.9603 21.7368 16.9717C21.7967 16.9831 21.8586 16.9764 21.9146 16.9525C21.9707 16.9286 22.0184 16.8885 22.0516 16.8374C22.0848 16.7864 22.1021 16.7266 22.1013 16.6656C22.103 16.6244 22.0964 16.5833 22.0816 16.5448C22.0669 16.5062 22.0445 16.4711 22.0158 16.4415C21.987 16.412 21.9525 16.3886 21.9144 16.3728C21.8763 16.3571 21.8353 16.3493 21.7941 16.3499V16.3627ZM18.624 14.3446C18.5642 14.3454 18.5061 14.3639 18.4568 14.3977C18.4076 14.4315 18.3694 14.4791 18.3471 14.5345C18.3249 14.5899 18.3195 14.6507 18.3316 14.7092C18.3438 14.7676 18.373 14.8212 18.4155 14.8632C18.4581 14.9051 18.512 14.9335 18.5707 14.9449C18.6293 14.9562 18.69 14.95 18.7451 14.9269C18.8002 14.9039 18.8473 14.8651 18.8804 14.8153C18.9135 14.7656 18.9312 14.7072 18.9312 14.6475C18.9329 14.6063 18.9262 14.5652 18.9115 14.5266C18.8968 14.4881 18.8744 14.453 18.8456 14.4234C18.8169 14.3938 18.7824 14.3705 18.7443 14.3547C18.7061 14.339 18.6652 14.3311 18.624 14.3318V14.3446ZM19.904 10.5472C19.843 10.5464 19.7832 10.5637 19.7321 10.5969C19.6811 10.6302 19.641 10.6778 19.6171 10.7339C19.5932 10.7899 19.5865 10.8518 19.5979 10.9117C19.6093 10.9716 19.6382 11.0267 19.681 11.0701C19.7237 11.1135 19.7785 11.1432 19.8382 11.1554C19.8979 11.1676 19.9599 11.1618 20.0163 11.1386C20.0726 11.1155 20.1209 11.0761 20.1548 11.0255C20.1888 10.9749 20.2069 10.9154 20.2069 10.8544C20.2092 10.8136 20.2032 10.7727 20.1893 10.7342C20.1754 10.6958 20.1538 10.6605 20.1259 10.6306C20.098 10.6007 20.0643 10.5768 20.0269 10.5603C19.9895 10.5437 19.9491 10.5349 19.9082 10.5344L19.904 10.5472Z" fill="white"/>
</g>
<defs>
<linearGradient id="paint0_linear_854_27014" x1="-6.62742" y1="38.6261" x2="38.6274" y2="-6.6287" gradientUnits="userSpaceOnUse">
<stop stop-color="#055F4E"/>
<stop offset="1" stop-color="#56C0A7"/>
</linearGradient>
<clipPath id="clip0_854_27014">
<rect width="32" height="32" fill="white"/>
</clipPath>
</defs>
</svg>
