<svg width="32" height="32" viewBox="0 0 32 32" fill="none" xmlns="http://www.w3.org/2000/svg">
<g clip-path="url(#clip0_854_27231)">
<path d="M32 0H0V32H32V0Z" fill="url(#paint0_linear_854_27231)"/>
<path fill-rule="evenodd" clip-rule="evenodd" d="M22.2522 9.019L21.4749 8.8294L21.9263 6.9806L22.7029 7.1702L22.2522 9.019ZM24.1814 10.4054L25.4967 8.8054L26.1155 9.3134L24.801 10.9134L24.1814 10.4054ZM18.1135 9.4318L17.3298 7.6982L18.0598 7.36861L18.8435 9.1022L18.1135 9.4318ZM20.8104 17.1998C20.8104 17.4206 20.6319 17.5998 20.4102 17.5998C20.1892 17.5998 20.0099 17.4206 20.0099 17.1998C20.0099 16.979 20.1892 16.7998 20.4102 16.7998C20.6319 16.7998 20.8104 16.979 20.8104 17.1998ZM20.0099 15.9998H20.8104V12.7998H20.0099V15.9998ZM26.1803 21.435C25.9962 21.619 25.7168 21.7374 25.5487 21.5694L23.4185 19.3902C23.6931 19.1886 23.9461 18.9614 24.175 18.711L26.318 20.795C26.3836 20.8606 26.4093 20.943 26.3964 21.0454C26.3788 21.1734 26.3004 21.3158 26.1803 21.435ZM15.9425 15.2038C15.9425 12.7774 17.9182 10.8038 20.3453 10.8038C22.7725 10.8038 24.7482 12.7774 24.7482 15.2038C24.7482 17.6302 22.7725 19.6038 20.3453 19.6038C17.9182 19.6038 15.9425 17.6302 15.9425 15.2038ZM14.006 21.5998C13.344 21.5998 12.8052 21.0614 12.8052 20.3998C12.8052 19.7382 13.344 19.1998 14.006 19.1998C14.668 19.1998 15.2068 19.7382 15.2068 20.3998C15.2068 21.0614 14.668 21.5998 14.006 21.5998ZM8.02854 23.6318L10.2156 18.9486L12.0808 19.8846C12.0359 20.0502 12.0047 20.2206 12.0047 20.3998C12.0047 20.6742 12.0616 20.9358 12.1616 21.1734L8.34795 23.9454C8.25269 23.8294 8.14702 23.7246 8.02854 23.6318ZM6.80135 26.3998C6.13932 26.3998 5.60057 25.8614 5.60057 25.1998C5.60057 24.5382 6.13932 23.9998 6.80135 23.9998C7.46337 23.9998 8.00212 24.5382 8.00212 25.1998C8.00212 25.8614 7.46337 26.3998 6.80135 26.3998ZM8.60812 17.2462C8.72899 16.9878 8.80264 16.703 8.80264 16.3998C8.80264 15.9558 8.65295 15.5494 8.40639 15.2166L9.75606 13.9606L10.8392 15.7206L9.83851 17.8638L8.60812 17.2462ZM6.80135 17.5998C6.13932 17.5998 5.60057 17.0614 5.60057 16.3998C5.60057 15.7382 6.13932 15.1998 6.80135 15.1998C7.46337 15.1998 8.00212 15.7382 8.00212 16.3998C8.00212 17.0614 7.46337 17.5998 6.80135 17.5998ZM7.44656 8.6838C7.83882 8.5494 8.17664 8.3006 8.41679 7.971L11.3307 9.3206C11.2538 9.5334 11.2042 9.7606 11.2042 9.9998C11.2042 10.4358 11.3483 10.8358 11.586 11.1654L9.92577 12.7094L7.44656 8.6838ZM5.60057 6.7998C5.60057 6.1382 6.13932 5.5998 6.80135 5.5998C7.46337 5.5998 8.00212 6.1382 8.00212 6.7998C8.00212 7.4614 7.46337 7.9998 6.80135 7.9998C6.13932 7.9998 5.60057 7.4614 5.60057 6.7998ZM13.2055 8.7998C13.8675 8.7998 14.4063 9.3382 14.4063 9.9998C14.4063 10.6614 13.8675 11.1998 13.2055 11.1998C12.5435 11.1998 12.0047 10.6614 12.0047 9.9998C12.0047 9.3382 12.5435 8.7998 13.2055 8.7998ZM12.1784 11.707C12.3169 11.7902 12.465 11.855 12.6227 11.903L11.245 14.8526L10.354 13.4046L12.1784 11.707ZM12.4402 19.1694L10.555 18.223L11.3419 16.5366L12.7628 18.8446C12.6435 18.9406 12.5347 19.0494 12.4402 19.1694ZM16.4996 11.7126C15.6599 12.6366 15.142 13.8598 15.142 15.2038C15.142 16.3518 15.5214 17.4102 16.1538 18.2718L15.3037 18.8894C14.9538 18.5886 14.5031 18.3998 14.006 18.3998C13.8227 18.3998 13.6474 18.4326 13.4785 18.4798L11.7478 15.6686L13.4729 11.9726C14.1005 11.8878 14.632 11.515 14.9346 10.9878L16.4996 11.7126ZM26.88 20.2254L24.6753 18.0814C25.2261 17.2566 25.5487 16.2678 25.5487 15.2038C25.5487 12.3366 23.2144 10.0038 20.3453 10.0038C19.1317 10.0038 18.0166 10.4246 17.1304 11.123L15.1844 10.2222C15.1932 10.1486 15.2068 10.0758 15.2068 9.9998C15.2068 8.8974 14.3094 7.9998 13.2055 7.9998C12.6315 7.9998 12.1176 8.2462 11.7518 8.6342L8.74981 7.2438C8.78183 7.1006 8.80264 6.9526 8.80264 6.7998C8.80264 5.6974 7.90526 4.7998 6.80135 4.7998C5.69743 4.7998 4.80005 5.6974 4.80005 6.7998C4.80005 7.8206 5.57255 8.6558 6.56279 8.7758L9.32778 13.2662L7.8068 14.6806C7.51061 14.5062 7.16958 14.3998 6.80135 14.3998C5.69743 14.3998 4.80005 15.2974 4.80005 16.3998C4.80005 17.5022 5.69743 18.3998 6.80135 18.3998C7.30727 18.3998 7.76437 18.2054 8.1174 17.895L9.49989 18.5894L7.31288 23.2742C7.14877 23.2302 6.97906 23.1998 6.80135 23.1998C5.69743 23.1998 4.80005 24.0974 4.80005 25.1998C4.80005 26.3022 5.69743 27.1998 6.80135 27.1998C7.90526 27.1998 8.80264 26.3022 8.80264 25.1998C8.80264 25.0126 8.76822 24.835 8.72019 24.663L12.6147 21.8326C12.9757 22.1822 13.4649 22.3998 14.006 22.3998C15.1099 22.3998 16.0073 21.5022 16.0073 20.3998C16.0073 20.0838 15.9273 19.7878 15.7952 19.5214L16.6725 18.8838C17.6148 19.8222 18.9132 20.4038 20.3453 20.4038C21.2019 20.4038 22.0096 20.1918 22.7229 19.8238L24.9795 22.1318C25.1909 22.343 25.463 22.447 25.7464 22.447C26.0898 22.447 26.4501 22.2958 26.7463 22.0006C26.9912 21.7558 27.1489 21.4542 27.189 21.151C27.237 20.8006 27.1281 20.4726 26.88 20.2254Z" fill="white"/>
</g>
<defs>
<linearGradient id="paint0_linear_854_27231" x1="-6.6304" y1="38.6304" x2="38.6261" y2="-6.62613" gradientUnits="userSpaceOnUse">
<stop stop-color="#055F4E"/>
<stop offset="1" stop-color="#56C0A7"/>
</linearGradient>
<clipPath id="clip0_854_27231">
<rect width="32" height="32" fill="white"/>
</clipPath>
</defs>
</svg>
