<svg width="32" height="32" viewBox="0 0 32 32" fill="none" xmlns="http://www.w3.org/2000/svg">
<g clip-path="url(#clip0_854_27023)">
<path d="M32 0H0V32H32V0Z" fill="url(#paint0_linear_854_27023)"/>
<path d="M14.5066 19.8402H6.82657C6.71341 19.8402 6.60489 19.7952 6.52487 19.7152C6.44485 19.6352 6.3999 19.5267 6.3999 19.4135V16.8535H7.25324V18.9868H14.5066V19.8402ZM16.6399 9.1735V11.3068H15.7866V9.60016H12.7999C12.6867 9.60016 12.5782 9.55521 12.4982 9.47519C12.4182 9.39518 12.3732 9.28665 12.3732 9.1735V6.18683H7.25324V14.7202H6.3999V5.76016C6.3999 5.647 6.44485 5.53848 6.52487 5.45846C6.60489 5.37845 6.71341 5.3335 6.82657 5.3335H12.8383C12.9383 5.33889 13.0327 5.38151 13.1028 5.45296L16.5162 8.8663C16.5562 8.90667 16.5878 8.95464 16.6091 9.0074C16.6303 9.06016 16.6408 9.11663 16.6399 9.1735V9.1735ZM15.185 8.74683L13.2266 6.78843V8.74683H15.185ZM13.9519 16.6402L11.7674 10.7138H10.8287L8.64417 16.6402H9.54017L10.0692 15.07H12.5012L13.0474 16.6402H13.9519ZM11.281 11.5202L12.2794 14.4215H10.2911L11.281 11.5202ZM25.5999 16.0002V26.2402C25.5999 26.3533 25.5549 26.4618 25.4749 26.5419C25.3949 26.6219 25.2864 26.6668 25.1732 26.6668H15.7866C15.6734 26.6668 15.5649 26.6219 15.4849 26.5419C15.4049 26.4618 15.3599 26.3533 15.3599 26.2402V12.5868C15.3599 12.4737 15.4049 12.3651 15.4849 12.2851C15.5649 12.2051 15.6734 12.1602 15.7866 12.1602H21.7599C21.781 12.156 21.8028 12.156 21.8239 12.1602C21.9144 12.17 21.9988 12.2107 22.0628 12.2754L25.4762 15.6887C25.5167 15.7296 25.5486 15.7782 25.5699 15.8318C25.5912 15.8853 25.6014 15.9426 25.5999 16.0002ZM22.1866 15.5735H24.145L22.1866 13.6151V15.5735ZM24.7466 16.4268H21.7599C21.6467 16.4268 21.5382 16.3819 21.4582 16.3019C21.3782 16.2218 21.3332 16.1133 21.3332 16.0002V13.0135H16.2132V25.8135H24.7466V16.4268ZM21.7599 12.1602C21.781 12.156 21.8028 12.156 21.8239 12.1602H21.7599ZM23.2063 23.3986C23.2767 23.2681 23.3643 23.1475 23.4666 23.0402C23.494 23.0128 23.5136 22.9785 23.5233 22.941C23.5331 22.9035 23.5326 22.8641 23.522 22.8268C23.5107 22.7905 23.4903 22.7577 23.4626 22.7315C23.435 22.7054 23.4011 22.6868 23.3642 22.6775C22.555 22.5048 21.7925 22.1599 21.1284 21.6663C21.6915 21.0303 22.1261 20.2914 22.4084 19.4903C22.475 19.4711 22.5325 19.4287 22.5706 19.3708H23.2362C23.2927 19.3708 23.347 19.3484 23.387 19.3083C23.427 19.2683 23.4495 19.2141 23.4495 19.1575V18.7735C23.4495 18.7169 23.427 18.6627 23.387 18.6226C23.347 18.5826 23.2927 18.5602 23.2362 18.5602H20.9066V17.9884C20.9687 17.9414 21.0113 17.873 21.026 17.7964C21.0303 17.767 21.0283 17.7369 21.0202 17.7083C21.0121 17.6796 20.9981 17.653 20.9791 17.63C20.9397 17.5856 20.8847 17.5581 20.8255 17.5532L20.2964 17.5191C20.267 17.5161 20.2373 17.5195 20.2093 17.5291C20.1813 17.5386 20.1557 17.5542 20.1343 17.5746C20.1128 17.5949 20.0956 17.6193 20.0839 17.6465C20.0722 17.6736 20.0661 17.7029 20.066 17.7324V18.5644H17.7663C17.7097 18.5644 17.6555 18.5869 17.6155 18.6269C17.5754 18.6669 17.553 18.7212 17.553 18.7778V19.1703C17.553 19.2269 17.5754 19.2811 17.6155 19.3211C17.6555 19.3612 17.7097 19.3836 17.7663 19.3836H18.5002C18.7998 20.2309 19.2589 21.013 19.8527 21.6876C19.1911 22.1668 18.4459 22.5184 17.6554 22.7244C17.6216 22.7344 17.5908 22.7524 17.5655 22.777C17.5402 22.8015 17.5213 22.8318 17.5103 22.8652C17.4994 22.8992 17.4972 22.9354 17.504 22.9704C17.5107 23.0054 17.526 23.0382 17.5487 23.0658C17.6303 23.1593 17.6978 23.2642 17.7492 23.3772C17.7701 23.426 17.808 23.4656 17.8559 23.4884C17.9039 23.5111 17.9585 23.5156 18.0095 23.501C18.9017 23.2492 19.7393 22.834 20.4799 22.2764C21.2091 22.8682 22.0622 23.2882 22.9759 23.5052C22.9927 23.5094 23.0103 23.5094 23.0271 23.5052C23.0636 23.5043 23.0992 23.494 23.1306 23.4753C23.162 23.4566 23.1881 23.4302 23.2063 23.3986ZM21.5466 19.3836C21.3019 20.0118 20.9448 20.5902 20.4927 21.0903C20.0273 20.593 19.6571 20.0145 19.4004 19.3836H21.5466ZM13.2266 25.8135C12.7739 25.8135 12.3398 25.6337 12.0198 25.3136C11.6997 24.9936 11.5199 24.5595 11.5199 24.1068V22.1484L12.9236 23.5564L13.5295 22.9506L11.3962 20.8172C11.3565 20.7772 11.3093 20.7455 11.2573 20.7238C11.2053 20.7022 11.1496 20.691 11.0932 20.691C11.0369 20.691 10.9811 20.7022 10.9291 20.7238C10.8772 20.7455 10.83 20.7772 10.7903 20.8172L8.65697 22.9506L9.26283 23.5564L10.6666 22.1484V24.0898C10.6666 24.7687 10.9363 25.4199 11.4164 25.9C11.8965 26.38 12.5476 26.6498 13.2266 26.6498H14.5066V25.7964L13.2266 25.8135ZM22.737 8.4439L21.3332 9.8519V7.91056C21.3332 7.23161 21.0635 6.58046 20.5834 6.10037C20.1033 5.62028 19.4522 5.35056 18.7732 5.35056H17.0666V6.2039H18.7732C19.2259 6.2039 19.66 6.3837 19.98 6.70377C20.3001 7.02383 20.4799 7.45793 20.4799 7.91056V9.8519L19.0762 8.4439L18.4703 9.04976L20.6036 11.1831C20.6433 11.2231 20.6905 11.2548 20.7425 11.2765C20.7945 11.2982 20.8502 11.3093 20.9066 11.3093C20.9629 11.3093 21.0187 11.2982 21.0707 11.2765C21.1226 11.2548 21.1698 11.2231 21.2095 11.1831L23.3428 9.04976L22.737 8.4439Z" fill="white"/>
</g>
<defs>
<linearGradient id="paint0_linear_854_27023" x1="-6.62613" y1="38.6274" x2="38.6287" y2="-6.62742" gradientUnits="userSpaceOnUse">
<stop stop-color="#055F4E"/>
<stop offset="1" stop-color="#56C0A7"/>
</linearGradient>
<clipPath id="clip0_854_27023">
<rect width="32" height="32" fill="white"/>
</clipPath>
</defs>
</svg>
