<svg width="32" height="32" viewBox="0 0 32 32" fill="none" xmlns="http://www.w3.org/2000/svg">
<g clip-path="url(#clip0_854_27283)">
<path d="M32 0H0V32H32V0Z" fill="url(#paint0_linear_854_27283)"/>
<path fill-rule="evenodd" clip-rule="evenodd" d="M16.7877 21.5998H27.1877V20.7998H16.7877V21.5998ZM16.7877 11.9998H27.1877V11.1998H16.7877V11.9998ZM16.7877 18.3998H22.3877V17.5998H16.7877V18.3998ZM11.5133 21.5382L11.2389 22.2894C12.6245 22.7982 13.6869 23.7286 14.1701 24.7998H5.87253C6.29813 23.9526 7.16773 23.071 8.33493 22.3398C9.04293 21.8966 9.81493 21.467 10.5621 21.0526C11.7333 20.4014 12.8405 19.787 13.6045 19.1726C14.8429 18.1782 15.3469 16.879 15.1445 15.2014V15.1998H24.7877V14.3998H14.8965C14.2237 13.0142 12.4229 11.975 11.5781 11.5494L11.2189 12.2646C12.2685 12.7926 13.3933 13.5702 13.9701 14.3998H8.78773V15.1998H14.3245C14.3309 15.2326 14.3469 15.2654 14.3509 15.2982C14.5197 16.6966 14.1229 17.7302 13.1029 18.5494C12.3917 19.1206 11.3141 19.719 10.1733 20.3534C9.41733 20.7726 8.63733 21.207 7.90933 21.6622C6.25573 22.6982 5.10933 24.0558 4.84293 25.2934C4.82773 25.367 4.79573 25.5198 4.80053 27.2006L5.60053 27.199C5.59733 26.2142 5.60773 25.7862 5.61653 25.5998H14.4061C14.4149 25.7902 14.4237 26.2206 14.4101 27.1942L15.2101 27.2054C15.2333 25.5518 15.1941 25.3654 15.1789 25.2942C14.8381 23.6822 13.4341 22.243 11.5133 21.5382ZM4.81733 5.7134V4.7998H5.61733V5.731C5.61653 5.7622 5.61573 6.0182 5.71733 6.3926H14.3581C14.3877 6.2038 14.3877 6.0814 14.3869 6.0646V4.7998H15.1869V6.0494C15.1901 6.1134 15.2493 8.0382 13.1069 9.6142C12.2829 10.2198 11.0893 10.8126 10.0357 11.335C9.35253 11.6734 8.70693 11.9934 8.27173 12.2638C7.16133 12.9518 5.80693 14.0374 5.65413 15.2982C5.54453 16.2078 5.67893 16.9606 6.06293 17.603H11.1877V18.403H6.73973C6.79413 18.4518 6.84293 18.5022 6.90213 18.5494C7.15653 18.7542 7.61333 19.0534 8.14293 19.3998L8.65413 19.7358L8.21333 20.403L7.70533 20.0694C7.15813 19.7118 6.68613 19.4022 6.40053 19.1726C5.16213 18.1774 4.65813 16.879 4.86053 15.2014C5.05013 13.6262 6.59093 12.3646 7.84933 11.5838C8.31813 11.2934 8.97973 10.9654 9.67973 10.6182C10.7045 10.1102 11.8653 9.5342 12.6341 8.9694C13.4525 8.367 13.8789 7.7238 14.1125 7.1926H6.04613C6.30293 7.6526 6.71253 8.1662 7.37093 8.6502C7.54053 8.775 7.95573 9.0238 8.30853 9.2366C8.51333 9.3598 8.69893 9.47101 8.80853 9.54221L8.37893 10.2166C8.27253 10.1486 8.09413 10.0406 7.89653 9.9222C7.51653 9.6934 7.08693 9.43421 6.89733 9.29501C4.75493 7.71901 4.81413 5.795 4.81733 5.7134Z" fill="white"/>
</g>
<defs>
<linearGradient id="paint0_linear_854_27283" x1="-6.6304" y1="38.6304" x2="38.6261" y2="-6.62613" gradientUnits="userSpaceOnUse">
<stop stop-color="#055F4E"/>
<stop offset="1" stop-color="#56C0A7"/>
</linearGradient>
<clipPath id="clip0_854_27283">
<rect width="32" height="32" fill="white"/>
</clipPath>
</defs>
</svg>
