<svg width="32" height="32" viewBox="0 0 32 32" fill="none" xmlns="http://www.w3.org/2000/svg">
<g clip-path="url(#clip0_854_27013)">
<path d="M32 0H0V32H32V0Z" fill="url(#paint0_linear_854_27013)"/>
<path d="M18.9866 14.5922V10.4535C18.9869 10.3974 18.9761 10.3417 18.9549 10.2897C18.9337 10.2377 18.9024 10.1904 18.8629 10.1506L14.1695 5.45724C14.1297 5.41769 14.0824 5.38641 14.0304 5.36517C13.9784 5.34394 13.9227 5.33318 13.8666 5.3335H5.75992C5.64676 5.3335 5.53824 5.37846 5.45822 5.45847C5.3782 5.53849 5.33325 5.64701 5.33325 5.76017V24.1068C5.33325 24.22 5.3782 24.3285 5.45822 24.4085C5.53824 24.4886 5.64676 24.5335 5.75992 24.5335H18.5599C18.6731 24.5335 18.7816 24.4886 18.8616 24.4085C18.9416 24.3285 18.9866 24.22 18.9866 24.1068V22.2124C18.6609 21.9236 18.3741 21.5937 18.1333 21.2311V23.6802H6.18659V6.18684H13.4399V10.4535C13.4399 10.5667 13.4849 10.6752 13.5649 10.7552C13.6449 10.8352 13.7534 10.8802 13.8666 10.8802H18.1333V15.5735C18.3731 15.2102 18.6601 14.8802 18.9866 14.5922V14.5922ZM14.2933 10.0268V6.78844L17.5317 10.0268H14.2933ZM10.0266 13.4402H7.46659V12.5868H10.0266V13.4402ZM16.8533 13.4402H10.8799V12.5868H16.8533V13.4402ZM16.8533 16.0002H7.46659V15.1468H16.8533V16.0002ZM23.441 26.6668H21.3589C21.2739 26.6673 21.1907 26.6423 21.12 26.5952C21.0493 26.5481 20.9943 26.4809 20.9621 26.4023L20.4458 25.1223C20.4187 25.0575 20.408 24.9869 20.4147 24.917C20.4214 24.847 20.4452 24.7798 20.4842 24.7212C20.5233 24.6633 20.5761 24.6159 20.6378 24.5832C20.6996 24.5505 20.7684 24.5334 20.8383 24.5335H23.9615C24.0314 24.5334 24.1003 24.5505 24.162 24.5832C24.2238 24.6159 24.2765 24.6633 24.3157 24.7212C24.3546 24.7798 24.3785 24.847 24.3852 24.917C24.3919 24.9869 24.3812 25.0575 24.3541 25.1223L23.8378 26.4023C23.8055 26.4809 23.7505 26.5481 23.6798 26.5952C23.6091 26.6423 23.5259 26.6673 23.441 26.6668ZM21.6447 25.8135H23.1551L23.3258 25.3868H21.4741L21.6447 25.8135ZM26.6111 17.7068C26.4387 16.6483 25.874 15.6934 25.0294 15.0325C24.1848 14.3715 23.1222 14.0528 22.0532 14.14C20.9842 14.2272 19.9873 14.7137 19.2609 15.5028C18.5345 16.2918 18.1319 17.3255 18.1333 18.398C18.1334 19.0852 18.2995 19.7621 18.6175 20.3712C18.9354 20.9803 19.3958 21.5037 19.9594 21.8967C20.0715 21.968 20.1747 22.0525 20.2666 22.1484V23.6802C20.2666 23.7933 20.3115 23.9019 20.3916 23.9819C20.4716 24.0619 20.5801 24.1068 20.6933 24.1068H24.1066C24.2197 24.1068 24.3283 24.0619 24.4083 23.9819C24.4883 23.9019 24.5333 23.7933 24.5333 23.6802V22.1442C24.6254 22.0527 24.7269 21.9712 24.8362 21.901C25.4027 21.5105 25.8654 20.9878 26.1844 20.3782C26.5033 19.7685 26.6688 19.0903 26.6666 18.4023C26.6672 18.1665 26.6487 17.9311 26.6111 17.6983V17.7068ZM24.3413 21.2055C24.0938 21.3762 23.6799 21.662 23.6799 22.1015V23.2535H22.8266V20.2668H23.6799V19.4135H21.1199V20.2668H21.9733V23.2535H21.1199V22.11C21.1199 21.6834 20.6933 21.3719 20.4458 21.197C20.0581 20.9292 19.73 20.5841 19.4823 20.1834C19.2345 19.7826 19.0724 19.3349 19.0061 18.8685C18.9398 18.402 18.9708 17.9268 19.0972 17.4729C19.2236 17.019 19.4425 16.5962 19.7403 16.2311C20.0381 15.866 20.4082 15.5664 20.8274 15.3514C21.2466 15.1363 21.7058 15.0104 22.1761 14.9814C22.6464 14.9525 23.1175 15.0213 23.5599 15.1834C24.0023 15.3455 24.4063 15.5975 24.7466 15.9234C25.287 16.4296 25.6454 17.1 25.7663 17.8306C25.8741 18.4704 25.7973 19.1277 25.5449 19.7254C25.2925 20.3232 24.875 20.8366 24.3413 21.2055V21.2055ZM12.1599 10.8802H7.46659V10.0268H12.1599V10.8802ZM12.5866 18.5602H7.46659V17.7068H12.5866V18.5602ZM16.8533 18.5602H13.4399V17.7068H16.8533V18.5602ZM13.0133 21.1202H7.46659V20.2668H13.0133V21.1202Z" fill="white"/>
</g>
<defs>
<linearGradient id="paint0_linear_854_27013" x1="-6.62613" y1="38.6304" x2="38.6304" y2="-6.62613" gradientUnits="userSpaceOnUse">
<stop stop-color="#055F4E"/>
<stop offset="1" stop-color="#56C0A7"/>
</linearGradient>
<clipPath id="clip0_854_27013">
<rect width="32" height="32" fill="white"/>
</clipPath>
</defs>
</svg>
