<svg width="32" height="32" viewBox="0 0 32 32" fill="none" xmlns="http://www.w3.org/2000/svg">
<g clip-path="url(#clip0_854_27252)">
<path d="M32 0H0V32H32V0Z" fill="url(#paint0_linear_854_27252)"/>
<path fill-rule="evenodd" clip-rule="evenodd" d="M20.9544 26.2103C20.832 24.7071 20.0256 23.3303 18.7888 22.5503C18.104 22.1183 17.3168 21.8903 16.5144 21.8903C14.1848 21.8903 12.2664 23.7943 12.0736 26.2103H20.9544ZM16.5224 21.0903C17.8544 21.0903 18.9376 20.0063 18.9376 18.6743C18.9376 17.3423 17.8544 16.2583 16.5224 16.2583C15.1904 16.2583 14.1056 17.3423 14.1056 18.6743C14.1056 20.0063 15.1904 21.0903 16.5224 21.0903ZM21.7712 26.6103C21.7712 26.8311 21.592 27.0103 21.3712 27.0103H11.6584C11.4376 27.0103 11.2584 26.8311 11.2584 26.6103C11.2584 24.1903 12.7504 22.1343 14.8184 21.3911C13.9128 20.8215 13.3056 19.8207 13.3056 18.6743C13.3056 16.9007 14.7488 15.4583 16.5224 15.4583C18.296 15.4583 19.7376 16.9007 19.7376 18.6743C19.7376 19.8263 19.1248 20.8303 18.212 21.3983C18.56 21.5231 18.8984 21.6743 19.2152 21.8743C20.792 22.8671 21.7712 24.6823 21.7712 26.6103ZM10.8392 18.7607L10.4288 18.0751L8.20565 19.4087L5.60005 18.0911V16.2983L8.28165 14.6639L7.86645 13.9807L5.60005 15.3615V13.0783L8.40005 12.1823L11.2 13.4575V14.6231L8.74965 16.0927L9.16085 16.7783L11.5552 15.3423L12.9264 16.2567L13.3704 15.5911L12 14.6775V13.2687L14.1992 12.0087C14.3232 11.9375 14.4 11.8047 14.4 11.6615V8.70395H13.6V11.4295L11.4208 12.6783L8.80005 11.4855V8.48155L10.4 7.52715V9.97275H11.2V7.04955L13.4848 5.68715L16 6.89595V14.3039H16.8V6.64475C16.8 6.49115 16.7112 6.35115 16.5728 6.28395L13.6376 4.87275C13.5176 4.81515 13.3736 4.82075 13.26 4.89035L8.19525 7.91035C8.07365 7.98235 8.00005 8.11275 8.00005 8.25435V11.4703L5.07765 12.4055C4.91205 12.4583 4.80005 12.6127 4.80005 12.7863V18.3375C4.80005 18.4879 4.88485 18.6263 5.01925 18.6943L8.00005 20.2007V23.0263C8.00005 23.1519 8.05925 23.2711 8.16005 23.3463L10.2072 24.8823L10.6872 24.2423L8.80005 22.8263V19.9855L10.8392 18.7607ZM20.5528 16.9999C20.6864 16.5591 20.7544 16.1063 20.7544 15.6551C20.7544 13.5983 19.3768 11.7743 17.4056 11.2199L17.1888 11.9903C18.8168 12.4479 19.9544 13.9551 19.9544 15.6551C19.9544 16.0271 19.8984 16.4015 19.7872 16.7679L20.5528 16.9999ZM26.8817 17.5183L25.412 21.3631C25.3728 21.4663 25.2928 21.5479 25.1912 21.5903C25.0896 21.6319 24.9736 21.6303 24.8736 21.5847L23.6224 21.0199C23.5688 21.1055 23.5176 21.1879 23.4688 21.2679C23.1224 21.8327 22.8232 22.3207 22.1408 22.8351L21.66 22.1967C22.2208 21.7735 22.4584 21.3855 22.7872 20.8495C22.8936 20.6767 23.0064 20.4919 23.1392 20.2927C23.2472 20.1287 23.4592 20.0687 23.6376 20.1495L24.8168 20.6815L25.9832 17.6279L24.744 17.2343C24.5576 17.1751 24.4408 16.9887 24.4696 16.7951C24.6072 15.8527 24.5808 14.8927 24.3912 13.9415C24.3528 13.7495 24.4592 13.5583 24.6416 13.4887L25.8529 13.0303L24.5144 10.0455L23.3648 10.6439C23.192 10.7343 22.9784 10.6863 22.8608 10.5303C22.2784 9.75835 21.5792 9.09835 20.7832 8.56955C20.62 8.46075 20.5592 8.25035 20.6392 8.07195L21.172 6.88715L18.0832 5.71035L17.6352 6.75995L16.8992 6.44555L17.4984 5.04315C17.5824 4.84475 17.808 4.74955 18.008 4.82635L21.8536 6.29035C21.9568 6.32955 22.0384 6.40955 22.0808 6.51115C22.1232 6.61275 22.1216 6.72795 22.076 6.82795L21.5056 8.09675C22.1712 8.57515 22.7696 9.13995 23.2904 9.78075L24.5216 9.14075C24.6192 9.08955 24.7352 9.08155 24.8376 9.11755C24.9408 9.15355 25.0264 9.23115 25.0712 9.33195L26.756 13.0903C26.8016 13.1903 26.8032 13.3055 26.7608 13.4071C26.7184 13.5087 26.636 13.5887 26.5328 13.6279L25.2368 14.1191C25.3696 14.9375 25.392 15.7599 25.304 16.5727L26.6296 16.9935C26.7344 17.0271 26.8208 17.1023 26.8688 17.2015C26.916 17.3007 26.9217 17.4151 26.8817 17.5183Z" fill="white"/>
</g>
<defs>
<linearGradient id="paint0_linear_854_27252" x1="-6.6304" y1="38.6304" x2="38.6261" y2="-6.62613" gradientUnits="userSpaceOnUse">
<stop stop-color="#055F4E"/>
<stop offset="1" stop-color="#56C0A7"/>
</linearGradient>
<clipPath id="clip0_854_27252">
<rect width="32" height="32" fill="white"/>
</clipPath>
</defs>
</svg>
