<svg width="32" height="32" viewBox="0 0 32 32" fill="none" xmlns="http://www.w3.org/2000/svg">
<g clip-path="url(#clip0_854_27020)">
<path d="M32 0H0V32H32V0Z" fill="url(#paint0_linear_854_27020)"/>
<path d="M18.6624 26.7777C18.5859 26.7777 18.5107 26.7571 18.4448 26.718L16 25.2545L13.5552 26.718C13.4904 26.7554 13.4168 26.7752 13.3419 26.7752C13.267 26.7752 13.1934 26.7554 13.1286 26.718L8.1067 23.6545C8.04521 23.6161 7.99453 23.5626 7.95945 23.4992C7.92436 23.4357 7.90602 23.3644 7.90617 23.2919V20.2199L5.5467 18.8929C5.4808 18.8559 5.42592 18.802 5.38768 18.7368C5.34945 18.6715 5.32923 18.5973 5.3291 18.5217V13.4785C5.32923 13.4029 5.34945 13.3287 5.38768 13.2635C5.42592 13.1983 5.4808 13.1444 5.5467 13.1073L7.89337 11.7804V8.70839C7.89249 8.63516 7.91048 8.56294 7.9456 8.49868C7.98072 8.43441 8.03179 8.38027 8.0939 8.34146L13.1115 5.28226C13.1764 5.24481 13.2499 5.2251 13.3248 5.2251C13.3997 5.2251 13.4733 5.24481 13.5382 5.28226L15.983 6.74573L18.4278 5.28226C18.4926 5.24481 18.5662 5.2251 18.6411 5.2251C18.716 5.2251 18.7896 5.24481 18.8544 5.28226L23.8934 8.34573C23.9557 8.38364 24.0072 8.43688 24.043 8.50037C24.0789 8.56386 24.0979 8.63548 24.0982 8.70839V11.7804L26.4534 13.1073C26.5193 13.1444 26.5742 13.1983 26.6124 13.2635C26.6506 13.3287 26.6708 13.4029 26.671 13.4785V18.5217C26.6708 18.5973 26.6506 18.6715 26.6124 18.7368C26.5742 18.802 26.5193 18.8559 26.4534 18.8929L24.1067 20.2199V23.2919C24.1071 23.3655 24.0885 23.438 24.0526 23.5023C24.0167 23.5666 23.9648 23.6205 23.9019 23.6588L18.8843 26.718C18.8166 26.7565 18.7403 26.7771 18.6624 26.7777V26.7777ZM16.4224 24.5164L18.6624 25.8519L23.2534 23.0401V19.9724C23.2535 19.8968 23.2737 19.8226 23.312 19.7574C23.3502 19.6921 23.4051 19.6382 23.471 19.6012L25.3611 18.526L23.7739 17.6513C23.5619 17.8334 23.294 17.9375 23.0147 17.9463C22.7354 17.9552 22.4615 17.8682 22.2384 17.6998C22.0153 17.5315 21.8566 17.2919 21.7884 17.0209C21.7203 16.7499 21.747 16.4637 21.8639 16.2099C21.9809 15.9561 22.1811 15.7499 22.4314 15.6257C22.6817 15.5014 22.967 15.4664 23.2399 15.5266C23.5128 15.5868 23.7569 15.7386 23.9316 15.9567C24.1064 16.1747 24.2013 16.446 24.2006 16.7255C24.2048 16.7851 24.2048 16.845 24.2006 16.9047L25.8304 17.8007V13.726L23.4667 12.3991C23.4008 12.362 23.3459 12.3081 23.3077 12.2429C23.2694 12.1777 23.2492 12.1035 23.2491 12.0279V10.8801H22.0715C21.9714 11.1505 21.7794 11.3771 21.5291 11.5202C21.2788 11.6633 20.9862 11.7138 20.7024 11.663C20.4186 11.6121 20.1618 11.4631 19.9767 11.242C19.7917 11.0209 19.6904 10.7418 19.6904 10.4535C19.6904 10.1652 19.7917 9.88602 19.9767 9.66491C20.1618 9.44379 20.4186 9.29477 20.7024 9.24392C20.9862 9.19307 21.2788 9.24363 21.5291 9.38674C21.7794 9.52986 21.9714 9.75642 22.0715 10.0268H23.2534V8.96013L18.6582 6.14839L16.4267 7.48386V12.1772L18.799 13.5511C19.0186 13.3857 19.2876 13.2994 19.5624 13.3061C19.8372 13.3127 20.1017 13.412 20.3131 13.5878C20.5244 13.7635 20.6702 14.0055 20.7269 14.2745C20.7836 14.5435 20.7477 14.8237 20.6252 15.0698C20.5027 15.3159 20.3007 15.5134 20.0519 15.6303C19.8032 15.7473 19.5222 15.7768 19.2546 15.7141C18.9869 15.6514 18.7483 15.5002 18.5773 15.2849C18.4063 15.0697 18.313 14.803 18.3126 14.5281C18.3122 14.4421 18.3208 14.3563 18.3382 14.2721L15.7867 12.8001C15.7222 12.7629 15.6686 12.7094 15.6312 12.6451C15.5937 12.5807 15.5738 12.5077 15.5734 12.4332V7.48386L13.3376 6.14839L11.3024 7.38573V10.398H10.4491V7.90626L8.7467 8.96013V11.7932L10.88 13.0007L13.0134 11.7932V9.60013H13.8667V12.0279C13.8666 12.1035 13.8464 12.1777 13.8081 12.2429C13.7699 12.3081 13.715 12.362 13.6491 12.3991L11.3024 13.726V15.7569L13.6534 17.2929C13.7135 17.3315 13.7629 17.3845 13.7972 17.4471C13.8315 17.5097 13.8495 17.5799 13.8496 17.6513V19.0849L15.5563 18.078V16.2689L13.3163 14.9335L13.743 14.1996L16.2134 15.6545C16.2763 15.6928 16.3282 15.7467 16.3641 15.811C16.4 15.8753 16.4186 15.9478 16.4182 16.0215V21.5681H18.3766C18.4765 21.3 18.6674 21.0755 18.9161 20.9339C19.1647 20.7923 19.4552 20.7425 19.7368 20.7933C20.0184 20.8442 20.2732 20.9923 20.4566 21.2119C20.64 21.4316 20.7404 21.7087 20.7403 21.9948C20.7225 22.2706 20.6129 22.5325 20.4289 22.7387C20.245 22.9449 19.9973 23.0836 19.7253 23.1327C19.4534 23.1818 19.1728 23.1385 18.9284 23.0095C18.6839 22.8806 18.4897 22.6736 18.3766 22.4215H16.4139L16.4224 24.5164ZM11.5542 24.7468L13.3376 25.8348L15.5776 24.4993V19.0679L10.8075 21.8753L10.3808 21.1372L13.0134 19.5841V17.8775L10.88 16.4823L8.4907 17.822L8.06403 17.0753L10.4619 15.7313V13.726L8.32857 12.5185L6.19524 13.726V15.2791L8.02137 14.2081L8.44803 14.942L6.1867 16.2689V18.27L8.32004 19.4775L10.479 18.1975L10.9056 18.9313L8.7467 20.2113V23.0401L10.6667 24.2305L12.8939 22.9207L12.9195 22.9591L13.0219 22.8993L13.4486 23.6332L11.5542 24.7468ZM19.5286 21.5852C19.455 21.5843 19.3828 21.6054 19.3212 21.6457C19.2596 21.6859 19.2113 21.7436 19.1826 21.8114C19.1538 21.8791 19.1459 21.9539 19.1597 22.0262C19.1736 22.0984 19.2086 22.165 19.2603 22.2173C19.312 22.2697 19.3782 22.3054 19.4503 22.3201C19.5224 22.3348 19.5973 22.3277 19.6654 22.2997C19.7334 22.2718 19.7917 22.2242 19.8326 22.1631C19.8736 22.1019 19.8955 22.03 19.8955 21.9564C19.8922 21.8613 19.8521 21.7712 19.7836 21.7052C19.7152 21.6391 19.6237 21.6022 19.5286 21.6023V21.5852ZM22.976 16.3372C22.9026 16.3372 22.8309 16.359 22.7698 16.3998C22.7088 16.4405 22.6612 16.4985 22.6331 16.5663C22.605 16.6342 22.5976 16.7088 22.612 16.7808C22.6263 16.8528 22.6616 16.919 22.7136 16.9709C22.7655 17.0228 22.8316 17.0581 22.9036 17.0725C22.9756 17.0868 23.0503 17.0794 23.1181 17.0513C23.1859 17.0232 23.2439 16.9757 23.2847 16.9146C23.3255 16.8536 23.3472 16.7818 23.3472 16.7084C23.3428 16.6129 23.3018 16.5228 23.2327 16.4569C23.1635 16.3909 23.0716 16.3542 22.976 16.3543V16.3372ZM19.5286 14.1399C19.455 14.139 19.3828 14.1601 19.3212 14.2003C19.2596 14.2406 19.2113 14.2983 19.1826 14.366C19.1538 14.4338 19.1459 14.5085 19.1597 14.5808C19.1736 14.6531 19.2086 14.7197 19.2603 14.772C19.312 14.8243 19.3782 14.8601 19.4503 14.8748C19.5224 14.8895 19.5973 14.8824 19.6654 14.8544C19.7334 14.8264 19.7917 14.7789 19.8326 14.7177C19.8736 14.6566 19.8955 14.5847 19.8955 14.5111C19.8922 14.416 19.8521 14.3259 19.7836 14.2598C19.7152 14.1938 19.6237 14.1569 19.5286 14.1569V14.1399ZM20.9067 10.0823C20.8333 10.0823 20.7615 10.104 20.7005 10.1448C20.6394 10.1856 20.5919 10.2436 20.5638 10.3114C20.5357 10.3792 20.5283 10.4539 20.5426 10.5259C20.557 10.5979 20.5923 10.664 20.6442 10.7159C20.6961 10.7679 20.7623 10.8032 20.8343 10.8175C20.9063 10.8319 20.9809 10.8245 21.0488 10.7964C21.1166 10.7683 21.1746 10.7207 21.2153 10.6597C21.2561 10.5986 21.2779 10.5269 21.2779 10.4535C21.2785 10.4046 21.2693 10.356 21.2508 10.3107C21.2324 10.2654 21.205 10.2243 21.1705 10.1897C21.1359 10.1551 21.0947 10.1278 21.0494 10.1094C21.0041 10.0909 20.9556 10.0817 20.9067 10.0823V10.0823Z" fill="white"/>
</g>
<defs>
<linearGradient id="paint0_linear_854_27020" x1="-6.62613" y1="38.6261" x2="38.6261" y2="-6.62613" gradientUnits="userSpaceOnUse">
<stop stop-color="#055F4E"/>
<stop offset="1" stop-color="#56C0A7"/>
</linearGradient>
<clipPath id="clip0_854_27020">
<rect width="32" height="32" fill="white"/>
</clipPath>
</defs>
</svg>
