<svg width="32" height="32" viewBox="0 0 32 32" fill="none" xmlns="http://www.w3.org/2000/svg">
<g clip-path="url(#clip0_854_27204)">
<path d="M32 0H0V32H32V0Z" fill="url(#paint0_linear_854_27204)"/>
<path fill-rule="evenodd" clip-rule="evenodd" d="M7.20005 8.3998C7.20005 7.7382 7.73845 7.1998 8.40005 7.1998C9.06165 7.1998 9.60005 7.7382 9.60005 8.3998C9.60005 9.0614 9.06165 9.5998 8.40005 9.5998C7.73845 9.5998 7.20005 9.0614 7.20005 8.3998ZM10.4 8.3998C10.4 7.2974 9.50325 6.3998 8.40005 6.3998C7.29685 6.3998 6.40005 7.2974 6.40005 8.3998C6.40005 9.5022 7.29685 10.3998 8.40005 10.3998C9.50325 10.3998 10.4 9.5022 10.4 8.3998ZM22.8 25.5998C21.6968 25.5998 20.8 24.7022 20.8 23.5998C20.8 22.4974 21.6968 21.5998 22.8 21.5998C23.9032 21.5998 24.8 22.4974 24.8 23.5998C24.8 24.7022 23.9032 25.5998 22.8 25.5998ZM16.8 14.7998C17.4616 14.7998 18 15.3382 18 15.9998C18 16.6614 17.4616 17.1998 16.8 17.1998C16.1384 17.1998 15.6 16.6614 15.6 15.9998C15.6 15.3382 16.1384 14.7998 16.8 14.7998ZM15.1272 14.9094C14.9216 15.223 14.8 15.5974 14.8 15.9998C14.8 17.1022 15.6968 17.9998 16.8 17.9998C17.9032 17.9998 18.8 17.1022 18.8 15.9998C18.8 14.8974 17.9032 13.9998 16.8 13.9998C16.3888 13.9998 16.0072 14.1246 15.6888 14.3382L14.2064 12.9798C14.9072 12.3774 15.8064 11.9998 16.8 11.9998C19.0056 11.9998 20.8 13.7942 20.8 15.9998C20.8 18.2054 19.0056 19.9998 16.8 19.9998C14.5944 19.9998 12.8 18.2054 12.8 15.9998C12.8 15.0766 13.1264 14.2366 13.6536 13.559L15.1272 14.9094ZM16.8 25.5998C11.5064 25.5998 7.20005 21.2934 7.20005 15.9998C7.20005 14.5886 7.50725 13.235 8.09525 11.9686C8.19685 11.9782 8.29525 11.9998 8.40005 11.9998C9.35765 11.9998 10.2232 11.6182 10.8696 11.0062L13.0528 13.0078C12.3952 13.8294 12 14.8686 12 15.9998C12 18.647 14.1528 20.7998 16.8 20.7998C19.4472 20.7998 21.6 18.647 21.6 15.9998C21.6 13.3526 19.4472 11.1998 16.8 11.1998C15.572 11.1998 14.4544 11.667 13.6048 12.4278L11.3904 10.399C11.7752 9.8262 12 9.139 12 8.3998C12 8.1718 11.9736 7.9502 11.9328 7.7334C14.6544 6.1318 18.1592 6.0134 20.9968 7.3862C20.8736 7.7014 20.8 8.0414 20.8 8.3998C20.8 9.9438 22.056 11.1998 23.6 11.1998C24.0736 11.1998 24.5128 11.071 24.904 10.863C25.88 12.399 26.4 14.1662 26.4 15.9998C26.4 17.9958 25.7912 19.8934 24.6496 21.515C24.1552 21.075 23.512 20.7998 22.8 20.7998C21.256 20.7998 20 22.0558 20 23.5998C20 24.0766 20.1304 24.5182 20.3416 24.9118C19.2168 25.3598 18.032 25.5998 16.8 25.5998ZM5.60005 8.3998C5.60005 6.8558 6.85605 5.5998 8.40005 5.5998C9.94405 5.5998 11.2 6.8558 11.2 8.3998C11.2 9.9438 9.94405 11.1998 8.40005 11.1998C6.85605 11.1998 5.60005 9.9438 5.60005 8.3998ZM23.6 6.3998C24.7032 6.3998 25.6 7.2974 25.6 8.3998C25.6 9.5022 24.7032 10.3998 23.6 10.3998C22.4968 10.3998 21.6 9.5022 21.6 8.3998C21.6 7.2974 22.4968 6.3998 23.6 6.3998ZM27.2 15.9998C27.2 13.9998 26.6288 12.0702 25.556 10.3982C26.0752 9.8886 26.4 9.183 26.4 8.3998C26.4 6.8558 25.144 5.5998 23.6 5.5998C22.7016 5.5998 21.9104 6.0326 21.3968 6.6926C18.3712 5.2054 14.6368 5.3022 11.6936 6.9582C11.1368 5.6902 9.87205 4.7998 8.40005 4.7998C6.41525 4.7998 4.80005 6.415 4.80005 8.3998C4.80005 9.9974 5.85205 11.339 7.29525 11.8086C6.71125 13.1302 6.40005 14.535 6.40005 15.9998C6.40005 21.7342 11.0656 26.3998 16.8 26.3998C18.2008 26.3998 19.5472 26.1126 20.8192 25.5766C21.3264 26.0846 22.0272 26.3998 22.8 26.3998C24.344 26.3998 25.6 25.1438 25.6 23.5998C25.6 23.067 25.4424 22.5734 25.1832 22.1494C26.5008 20.3558 27.2 18.2334 27.2 15.9998Z" fill="white"/>
</g>
<defs>
<linearGradient id="paint0_linear_854_27204" x1="-6.6304" y1="38.6304" x2="38.6261" y2="-6.62613" gradientUnits="userSpaceOnUse">
<stop stop-color="#055F4E"/>
<stop offset="1" stop-color="#56C0A7"/>
</linearGradient>
<clipPath id="clip0_854_27204">
<rect width="32" height="32" fill="white"/>
</clipPath>
</defs>
</svg>
