<svg width="32" height="32" viewBox="0 0 32 32" fill="none" xmlns="http://www.w3.org/2000/svg">
<g clip-path="url(#clip0_854_27226)">
<path d="M32 0H0V32H32V0Z" fill="url(#paint0_linear_854_27226)"/>
<path fill-rule="evenodd" clip-rule="evenodd" d="M24.7985 21.3474L16.0167 26.3369L7.2013 21.3474V10.5794L16.0167 5.66139L24.7985 10.5786V21.3474ZM25.3947 9.99267L16.2123 4.85068C16.0905 4.78245 15.9422 4.78325 15.822 4.85068L6.60586 9.99267C6.47924 10.0633 6.3999 10.1982 6.3999 10.3434V21.581C6.3999 21.7255 6.47764 21.8595 6.60346 21.9302L15.8196 27.1476C15.8805 27.1829 15.9486 27.1998 16.0167 27.1998C16.0849 27.1998 16.153 27.1829 16.2147 27.1476L25.3971 21.9302C25.5222 21.8587 25.5999 21.7255 25.5999 21.581V10.3434C25.5999 10.1982 25.5214 10.0641 25.3947 9.99267ZM16.8398 10.321C16.8398 10.7761 16.4703 11.1461 16.0167 11.1461C15.5631 11.1461 15.1937 10.7761 15.1937 10.321C15.1937 9.86584 15.5631 9.49581 16.0167 9.49581C16.4703 9.49581 16.8398 9.86584 16.8398 10.321ZM21.9824 14.7357C21.9824 15.1909 21.6129 15.5609 21.1593 15.5609C20.7049 15.5609 20.3355 15.1909 20.3355 14.7357C20.3355 14.2806 20.7049 13.9106 21.1593 13.9106C21.6129 13.9106 21.9824 14.2806 21.9824 14.7357ZM19.2007 18.9948C19.1927 18.9948 19.1863 18.9964 19.1783 18.9964L18.1372 17.3228L20.0294 15.902C20.1472 16.0168 20.2858 16.1099 20.4349 16.1846L19.615 19.055C19.482 19.0197 19.3442 18.9948 19.2007 18.9948ZM19.2007 21.4478C18.7455 21.4478 18.3761 21.0777 18.3761 20.6226C18.3761 20.1675 18.7455 19.7975 19.2007 19.7975C19.6543 19.7975 20.0237 20.1675 20.0237 20.6226C20.0237 21.0777 19.6543 21.4478 19.2007 21.4478ZM17.4945 17.806L18.3777 19.2259C18.2679 19.2918 18.1629 19.3672 18.0699 19.4563L16.6843 18.4144L17.4945 17.806ZM13.9627 19.4563C13.8706 19.3672 13.7656 19.2918 13.6558 19.2259L14.5389 17.806L15.3492 18.4144L13.9627 19.4563ZM12.8328 21.4478C12.3792 21.4478 12.0097 21.0777 12.0097 20.6226C12.0097 20.1675 12.3792 19.7975 12.8328 19.7975C13.288 19.7975 13.6574 20.1675 13.6574 20.6226C13.6574 21.0777 13.288 21.4478 12.8328 21.4478ZM11.5986 16.1846C11.7477 16.1099 11.8863 16.0168 12.0041 15.902L13.8962 17.3228L12.8552 18.9964C12.8472 18.9964 12.8408 18.9948 12.8328 18.9948C12.6893 18.9948 12.5515 19.0197 12.4184 19.055L11.5986 16.1846ZM10.0511 14.7357C10.0511 14.2806 10.4205 13.9106 10.8741 13.9106C11.3285 13.9106 11.698 14.2806 11.698 14.7357C11.698 15.1909 11.3285 15.5609 10.8741 15.5609C10.4205 15.5609 10.0511 15.1909 10.0511 14.7357ZM15.616 13.1641C14.914 13.3439 14.3923 13.9772 14.3923 14.7357C14.3923 15.1595 14.5582 15.5432 14.8242 15.8322L14.3218 16.6397L12.4208 15.2117C12.4665 15.06 12.4994 14.9027 12.4994 14.7357C12.4994 14.3231 12.3399 13.9491 12.0859 13.6617L14.9981 11.5788C15.1769 11.7249 15.3852 11.8332 15.616 11.8926V13.1641ZM15.4958 16.2697C15.6601 16.3266 15.8332 16.3636 16.0167 16.3636C16.2003 16.3636 16.3734 16.3266 16.5376 16.2697L17.0682 17.1229L16.0167 17.9136L14.9645 17.1229L15.4958 16.2697ZM16.0167 13.9106C16.4703 13.9106 16.8398 14.2806 16.8398 14.7357C16.8398 15.1909 16.4703 15.5609 16.0167 15.5609C15.5631 15.5609 15.1937 15.1909 15.1937 14.7357C15.1937 14.2806 15.5631 13.9106 16.0167 13.9106ZM17.0353 11.5788L19.9476 13.6617C19.6936 13.9491 19.5341 14.3231 19.5341 14.7357C19.5341 14.9027 19.5669 15.06 19.6126 15.2117L17.7117 16.6397L17.2092 15.8322C17.4753 15.5432 17.6412 15.1595 17.6412 14.7357C17.6412 13.9772 17.1195 13.3439 16.4174 13.1641V11.8926C16.6482 11.8332 16.8566 11.7249 17.0353 11.5788ZM14.3923 10.321C14.3923 10.5393 14.4364 10.7464 14.5149 10.9374L11.3758 13.1833L11.3878 13.1994C11.2251 13.1448 11.0552 13.1079 10.8741 13.1079C9.97816 13.1079 9.24969 13.8383 9.24969 14.7357C9.24969 15.6131 9.94691 16.3258 10.8156 16.358L11.7004 19.4587C11.3974 19.7549 11.2083 20.1659 11.2083 20.6226C11.2083 21.52 11.9368 22.2505 12.8328 22.2505C13.7287 22.2505 14.4588 21.52 14.4588 20.6226C14.4588 20.4557 14.4267 20.2975 14.3795 20.1458L16.0167 18.9161L17.654 20.1458C17.6067 20.2975 17.5747 20.4557 17.5747 20.6226C17.5747 21.52 18.3039 22.2505 19.2007 22.2505C20.0967 22.2505 20.8251 21.52 20.8251 20.6226C20.8251 20.1659 20.636 19.7549 20.3331 19.4587L21.2178 16.358C22.0866 16.3258 22.7838 15.6131 22.7838 14.7357C22.7838 13.8383 22.0553 13.1079 21.1593 13.1079C20.9782 13.1079 20.8083 13.1448 20.6456 13.1994L20.6577 13.1833L17.5186 10.9374C17.5971 10.7464 17.6412 10.5393 17.6412 10.321C17.6412 9.42357 16.9127 8.69312 16.0167 8.69312C15.1208 8.69312 14.3923 9.42357 14.3923 10.321Z" fill="white"/>
</g>
<defs>
<linearGradient id="paint0_linear_854_27226" x1="-6.6304" y1="38.6304" x2="38.6261" y2="-6.62613" gradientUnits="userSpaceOnUse">
<stop stop-color="#055F4E"/>
<stop offset="1" stop-color="#56C0A7"/>
</linearGradient>
<clipPath id="clip0_854_27226">
<rect width="32" height="32" fill="white"/>
</clipPath>
</defs>
</svg>
