<svg width="32" height="32" viewBox="0 0 32 32" fill="none" xmlns="http://www.w3.org/2000/svg">
<g clip-path="url(#clip0_854_27210)">
<path d="M32 0H0V32H32V0Z" fill="url(#paint0_linear_854_27210)"/>
<path fill-rule="evenodd" clip-rule="evenodd" d="M6.60007 11.2002H8.40009V10.4002H7.20008L7.80008 9.6002H10.0001C10.0713 9.6002 10.1377 9.5754 10.1977 9.5402L10.7665 10.6778L9.79691 12.0002H8.00009V12.8002H10.0001C10.1273 12.8002 10.2481 12.7394 10.3225 12.6362L11.4369 11.117H12.5793L13.6762 12.6346C13.7506 12.7386 13.8722 12.8002 14.0002 12.8002H15.5602L14.6466 14.4002H7.01447L5.68966 12.4138L6.60007 11.2002ZM11.7657 8.0002H13.8346L15.317 9.4834C15.3938 9.5586 15.5122 9.5994 15.6058 9.6002L17.753 9.5698L18.817 10.9722L17.6626 12.785L18.3378 13.2154L19.3314 11.6522L19.9098 12.4154L18.5858 14.4002H15.5682L17.2642 11.4322L16.569 11.0346L16.0002 12.0306V12.0002H14.205L13.2705 10.7074L14.1498 9.389L13.4833 8.945L12.5697 10.317H11.4817L10.8033 8.9626L11.7657 8.0002ZM6.46727 15.0218C6.54167 15.1338 6.66647 15.2002 6.80007 15.2002H18.8002C18.9338 15.2002 19.0586 15.1338 19.133 15.0218L20.733 12.6218C20.8274 12.4802 20.8218 12.2946 20.7186 12.1586L18.269 8.9258C18.1922 8.8242 18.0618 8.757 17.945 8.7666L15.7634 8.7978L14.2834 7.317C14.2082 7.2426 14.1066 7.2002 14.0002 7.2002H11.6001C11.4937 7.2002 11.3921 7.2426 11.3169 7.317L9.83451 8.8002H7.60008C7.47448 8.8002 7.35528 8.8594 7.28008 8.9602L4.88005 12.1602C4.77845 12.2962 4.77365 12.481 4.86725 12.6218L6.46727 15.0218ZM25.9147 17.2674C25.5739 17.553 25.0787 17.665 24.4395 17.6018C24.2619 17.5874 24.0955 17.6858 24.0291 17.8514C24.0011 17.921 21.161 24.8002 14.8002 24.8002C11.4345 24.8002 5.83526 23.853 5.60726 17.6002H22.0002C22.1378 17.6002 22.2651 17.5298 22.3387 17.4138C22.4123 17.2978 22.4203 17.1522 22.3611 17.0282C21.4458 15.1026 22.5075 13.9642 22.8947 13.633C23.1419 13.7026 23.6187 13.8842 23.8835 14.2842C24.0923 14.5994 24.1355 15.009 24.0123 15.5034C23.9795 15.6338 24.0155 15.773 24.1067 15.8722C24.1987 15.9714 24.3363 16.0186 24.4675 15.9946C24.4811 15.9938 25.5131 15.8266 26.3659 16.5442C26.3147 16.7322 26.1923 17.0354 25.9147 17.2674ZM27.0835 16.117C26.3323 15.3666 25.4355 15.2002 24.8747 15.1802C24.9139 14.6746 24.8051 14.2258 24.5507 13.8426C23.9867 12.9906 22.9083 12.8122 22.8627 12.805C22.7635 12.7906 22.6619 12.8122 22.5779 12.8674C22.5555 12.8826 20.557 14.2586 21.4074 16.8002H5.20005C4.97925 16.8002 4.80005 16.9794 4.80005 17.2002C4.80005 24.509 11.0657 25.6002 14.8002 25.6002C20.9498 25.6002 24.0299 19.7522 24.6523 18.417C25.3803 18.4346 25.9747 18.2602 26.4275 17.8818C27.1219 17.301 27.1963 16.4674 27.1987 16.4322C27.2083 16.3154 27.1659 16.2002 27.0835 16.117Z" fill="white"/>
</g>
<defs>
<linearGradient id="paint0_linear_854_27210" x1="-6.6304" y1="38.6304" x2="38.6261" y2="-6.62613" gradientUnits="userSpaceOnUse">
<stop stop-color="#055F4E"/>
<stop offset="1" stop-color="#56C0A7"/>
</linearGradient>
<clipPath id="clip0_854_27210">
<rect width="32" height="32" fill="white"/>
</clipPath>
</defs>
</svg>
