<svg width="32" height="32" viewBox="0 0 32 32" fill="none" xmlns="http://www.w3.org/2000/svg">
<g clip-path="url(#clip0_854_27187)">
<path d="M32 0H0V32H32V0Z" fill="url(#paint0_linear_854_27187)"/>
<path fill-rule="evenodd" clip-rule="evenodd" d="M19.9592 13.1598C19.6584 13.4606 19.1224 13.4526 18.8376 13.1694L17.492 11.727C17.3808 11.607 17.2064 11.567 17.0528 11.627C16.9008 11.6878 16.8 11.835 16.8 11.9998V20.3998C16.8 20.4558 16.7936 20.5102 16.776 20.611C16.6664 22.0622 15.4464 23.1998 14 23.1998C12.456 23.1998 11.2 21.943 11.2 20.3998C11.2 18.8558 12.456 17.5998 14 17.5998C14.2128 17.5998 14.436 17.6318 14.6992 17.6998C14.8184 17.7294 14.9464 17.7054 15.044 17.6294C15.1424 17.5534 15.2 17.4366 15.2 17.3126V9.1998C15.2 9.1038 15.2192 9.0054 15.26 8.8958C15.3416 8.6998 15.5 8.5414 15.7096 8.4574C15.9008 8.3806 16.0832 8.3766 16.3048 8.4606C16.404 8.5014 16.4912 8.5598 16.5656 8.6342L19.9592 12.0278C20.1104 12.179 20.1936 12.3798 20.1936 12.5934C20.1936 12.8078 20.1096 13.0086 19.9592 13.1598ZM17.132 8.06861C16.9824 7.91901 16.8064 7.8022 16.584 7.7126C16.204 7.563 15.8216 7.5542 15.3912 7.7206C15 7.8822 14.6816 8.19901 14.512 8.61581C14.4376 8.80781 14.4 9.0038 14.4 9.1998V12.7998V13.7054V14.5334V15.9998V16.8262C14.2632 16.8086 14.1312 16.7998 14 16.7998C12.0144 16.7998 10.4 18.4142 10.4 20.3998C10.4 22.3846 12.0144 23.9998 14 23.9998C15.8624 23.9998 17.4328 22.5382 17.568 20.7198C17.5888 20.6166 17.6 20.5094 17.6 20.3998V16.7998V15.9798V15.0854V14.3998V13.015L18.2624 13.7254C18.868 14.3302 19.9224 14.3294 20.5248 13.7254C20.8272 13.423 20.9936 13.0214 20.9936 12.5934C20.9936 12.1662 20.8272 11.7646 20.5248 11.4622L17.132 8.06861ZM26.4 14.3374C24.3872 16.0726 21.6736 16.6046 19.2 15.7934V16.6174C19.9664 16.843 20.7496 16.9686 21.5304 16.9686C23.256 16.9686 24.9592 16.4222 26.4 15.3686V24.3998C26.4 25.5022 25.5032 26.3998 24.4 26.3998H7.60005C6.49685 26.3998 5.60005 25.5022 5.60005 24.3998V18.2662L6.36645 17.2446C7.89525 15.207 10.3328 14.1414 12.8 14.2846V13.467C10.084 13.3238 7.40885 14.5214 5.72565 16.7646L5.60005 16.9326V7.5998C5.60005 6.4966 6.49685 5.5998 7.60005 5.5998H24.4C25.5032 5.5998 26.4 6.4966 26.4 7.5998V14.3374ZM24.4 4.7998H7.60005C6.05605 4.7998 4.80005 6.0558 4.80005 7.5998V24.3998C4.80005 25.943 6.05605 27.1998 7.60005 27.1998H24.4C25.9432 27.1998 27.2 25.943 27.2 24.3998V7.5998C27.2 6.0558 25.9432 4.7998 24.4 4.7998Z" fill="white"/>
</g>
<defs>
<linearGradient id="paint0_linear_854_27187" x1="-6.6304" y1="38.6304" x2="38.6261" y2="-6.62613" gradientUnits="userSpaceOnUse">
<stop stop-color="#055F4E"/>
<stop offset="1" stop-color="#56C0A7"/>
</linearGradient>
<clipPath id="clip0_854_27187">
<rect width="32" height="32" fill="white"/>
</clipPath>
</defs>
</svg>
