<svg width="32" height="32" viewBox="0 0 32 32" fill="none" xmlns="http://www.w3.org/2000/svg">
<g clip-path="url(#clip0_854_27027)">
<path d="M32 0H0V32H32V0Z" fill="url(#paint0_linear_854_27027)"/>
<path d="M23.2532 26.6667C22.7615 26.6668 22.2847 26.497 21.9037 26.186C21.5228 25.875 21.2609 25.4419 21.1626 24.9601H14.2506C14.1453 25.4785 13.8511 25.9394 13.4252 26.2532C12.9992 26.5669 12.4719 26.7112 11.9455 26.6581C11.4192 26.6049 10.9313 26.3581 10.5767 25.9654C10.2221 25.5728 10.0261 25.0624 10.0266 24.5334C10.0346 23.9707 10.2646 23.4339 10.6666 23.0401L8.05965 18.0481C7.86706 18.1047 7.66734 18.1335 7.46659 18.1334C6.90079 18.1334 6.35817 17.9086 5.95809 17.5086C5.55801 17.1085 5.33325 16.5659 5.33325 16.0001C5.33325 15.4343 5.55801 14.8917 5.95809 14.4916C6.35817 14.0915 6.90079 13.8667 7.46659 13.8667C7.66734 13.8667 7.86706 13.8954 8.05965 13.9521L10.6666 8.9814C10.367 8.68429 10.1623 8.30502 10.0783 7.89155C9.99424 7.47809 10.0347 7.04899 10.1945 6.65852C10.3544 6.26805 10.6264 5.93375 10.9763 5.69788C11.3261 5.46201 11.738 5.33517 12.1599 5.3334C12.6517 5.3333 13.1284 5.50312 13.5094 5.81413C13.8904 6.12513 14.1522 6.55821 14.2506 7.04007H21.1626C21.2588 6.56656 21.5129 6.13973 21.8833 5.82947C22.2537 5.5192 22.7185 5.34387 23.2016 5.33217C23.6846 5.32047 24.1573 5.4731 24.5423 5.76508C24.9273 6.05706 25.2018 6.47108 25.3208 6.93938C25.4398 7.40768 25.3963 7.90252 25.1975 8.34289C24.9986 8.78325 24.6561 9.14307 24.2261 9.36343C23.7961 9.5838 23.304 9.65165 22.8304 9.5559C22.3568 9.46014 21.9297 9.20645 21.6191 8.83634L17.0666 11.3067L17.4421 11.6779L16.8362 12.2838L16.2858 11.7291L12.5866 13.7174V14.7201H11.7333V14.1782L9.51032 15.3814C9.51032 15.4454 9.54445 15.5094 9.55725 15.5734H15.5733V16.4267H9.55725C9.55725 16.4907 9.52739 16.5547 9.51032 16.6187L11.7333 17.8219V17.2801H12.5866V18.2827L16.2517 20.2625L16.8063 19.7078L17.4122 20.3137L17.0367 20.6891L21.6191 23.1638C21.8495 22.8887 22.1456 22.6761 22.4799 22.5457C22.8143 22.4154 23.1761 22.3715 23.532 22.4182C23.8878 22.4648 24.2261 22.6004 24.5156 22.8125C24.805 23.0246 25.0363 23.3063 25.1881 23.6315C25.3398 23.9567 25.407 24.315 25.3835 24.673C25.36 25.0311 25.2466 25.3775 25.0537 25.6801C24.8608 25.9827 24.5947 26.2318 24.2799 26.4043C23.9652 26.5767 23.6121 26.667 23.2532 26.6667V26.6667ZM23.2532 23.2534C23.0001 23.2534 22.7526 23.3285 22.5421 23.4691C22.3316 23.6098 22.1676 23.8097 22.0707 24.0436C21.9738 24.2775 21.9485 24.5348 21.9978 24.7831C22.0472 25.0314 22.1691 25.2595 22.3482 25.4385C22.5272 25.6175 22.7552 25.7394 23.0035 25.7888C23.2518 25.8382 23.5092 25.8128 23.7431 25.716C23.977 25.6191 24.1769 25.455 24.3175 25.2445C24.4582 25.034 24.5332 24.7866 24.5332 24.5334C24.5332 24.1939 24.3984 23.8684 24.1583 23.6283C23.9183 23.3883 23.5927 23.2534 23.2532 23.2534V23.2534ZM12.1599 23.2534C11.9068 23.2534 11.6593 23.3285 11.4488 23.4691C11.2383 23.6098 11.0742 23.8097 10.9774 24.0436C10.8805 24.2775 10.8551 24.5348 10.9045 24.7831C10.9539 25.0314 11.0758 25.2595 11.2548 25.4385C11.4338 25.6175 11.6619 25.7394 11.9102 25.7888C12.1585 25.8382 12.4159 25.8128 12.6498 25.716C12.8836 25.6191 13.0836 25.455 13.2242 25.2445C13.3648 25.034 13.4399 24.7866 13.4399 24.5334C13.4399 24.1939 13.3051 23.8684 13.065 23.6283C12.825 23.3883 12.4994 23.2534 12.1599 23.2534V23.2534ZM14.2506 24.1067H21.1626C21.1626 24.0427 21.1924 23.9787 21.2095 23.9147L16.4053 21.3334L14.0799 23.6289C14.1541 23.7815 14.2113 23.9417 14.2506 24.1067V24.1067ZM12.5866 22.4427C12.9543 22.5178 13.2958 22.6885 13.5765 22.9377L15.6245 20.9067L12.5866 19.2513V22.4427ZM8.81485 17.6513L11.3749 22.5494C11.4893 22.503 11.6079 22.4673 11.729 22.4427V18.7734L9.09645 17.3526C9.01316 17.4616 8.91879 17.5617 8.81485 17.6513V17.6513ZM7.46659 14.7201C7.21342 14.7201 6.96595 14.7951 6.75546 14.9358C6.54496 15.0764 6.3809 15.2763 6.28402 15.5102C6.18714 15.7441 6.16179 16.0015 6.21118 16.2498C6.26057 16.4981 6.38248 16.7262 6.56149 16.9052C6.7405 17.0842 6.96857 17.2061 7.21687 17.2555C7.46516 17.3049 7.72253 17.2795 7.95642 17.1826C8.19031 17.0858 8.39022 16.9217 8.53087 16.7112C8.67151 16.5007 8.74658 16.2532 8.74658 16.0001C8.74658 15.6606 8.61173 15.335 8.37168 15.095C8.13164 14.8549 7.80606 14.7201 7.46659 14.7201ZM8.81485 14.3489C8.91941 14.4328 9.01519 14.5272 9.10072 14.6305L11.7333 13.2267V9.5574C11.6122 9.53288 11.4936 9.49717 11.3791 9.45074L8.81485 14.3489ZM12.5866 9.5574V12.7489L15.633 11.0934L13.5807 9.0454C13.3016 9.30264 12.9581 9.47956 12.5866 9.5574V9.5574ZM14.0799 8.36274C14.7455 9.0326 15.5605 9.839 16.401 10.6753L21.2095 8.10674C21.2095 8.04274 21.1754 7.97874 21.1626 7.91474H14.2506C14.2099 8.06975 14.1527 8.21994 14.0799 8.36274ZM23.2532 6.18674C23.0001 6.18674 22.7526 6.26181 22.5421 6.40246C22.3316 6.5431 22.1676 6.74301 22.0707 6.9769C21.9738 7.21079 21.9485 7.46816 21.9978 7.71645C22.0472 7.96475 22.1691 8.19282 22.3482 8.37183C22.5272 8.55085 22.7552 8.67275 23.0035 8.72214C23.2518 8.77153 23.5092 8.74618 23.7431 8.6493C23.977 8.55242 24.1769 8.38836 24.3175 8.17787C24.4582 7.96737 24.5332 7.7199 24.5332 7.46674C24.5332 7.12726 24.3984 6.80169 24.1583 6.56164C23.9183 6.32159 23.5927 6.18674 23.2532 6.18674V6.18674ZM12.1599 6.18674C11.9068 6.18674 11.6593 6.26181 11.4488 6.40246C11.2383 6.5431 11.0742 6.74301 10.9774 6.9769C10.8805 7.21079 10.8551 7.46816 10.9045 7.71645C10.9539 7.96475 11.0758 8.19282 11.2548 8.37183C11.4338 8.55085 11.6619 8.67275 11.9102 8.72214C12.1585 8.77153 12.4159 8.74618 12.6498 8.6493C12.8836 8.55242 13.0836 8.38836 13.2242 8.17787C13.3648 7.96737 13.4399 7.7199 13.4399 7.46674C13.4399 7.12726 13.3051 6.80169 13.065 6.56164C12.825 6.32159 12.4994 6.18674 12.1599 6.18674ZM22.5237 21.1201H20.5695C20.4564 21.1201 20.3478 21.0751 20.2678 20.9951C20.1878 20.9151 20.1428 20.8066 20.1428 20.6934V19.8955C20.0207 19.8542 19.901 19.8058 19.7844 19.7505L19.2213 20.3137C19.1816 20.3537 19.1344 20.3854 19.0824 20.4071C19.0304 20.4287 18.9746 20.4399 18.9183 20.4399C18.862 20.4399 18.8062 20.4287 18.7542 20.4071C18.7022 20.3854 18.655 20.3537 18.6154 20.3137L17.233 18.9313C17.193 18.8916 17.1613 18.8444 17.1396 18.7924C17.1179 18.7404 17.1068 18.6847 17.1068 18.6283C17.1068 18.572 17.1179 18.5162 17.1396 18.4643C17.1613 18.4123 17.193 18.3651 17.233 18.3254L17.7962 17.7622C17.7409 17.6457 17.6924 17.526 17.6511 17.4038H16.8533C16.7401 17.4038 16.6316 17.3589 16.5516 17.2788C16.4715 17.1988 16.4266 17.0903 16.4266 16.9771V15.023C16.4266 14.9098 16.4715 14.8013 16.5516 14.7213C16.6316 14.6413 16.7401 14.5963 16.8533 14.5963H17.6511C17.6924 14.4741 17.7409 14.3545 17.7962 14.2379L17.233 13.6747C17.193 13.6351 17.1613 13.5879 17.1396 13.5359C17.1179 13.4839 17.1068 13.4281 17.1068 13.3718C17.1068 13.3155 17.1179 13.2597 17.1396 13.2077C17.1613 13.1557 17.193 13.1085 17.233 13.0689L18.6154 11.6865C18.655 11.6465 18.7022 11.6147 18.7542 11.5931C18.8062 11.5714 18.862 11.5603 18.9183 11.5603C18.9746 11.5603 19.0304 11.5714 19.0824 11.5931C19.1344 11.6147 19.1816 11.6465 19.2213 11.6865L19.7844 12.2497C19.901 12.1944 20.0207 12.1459 20.1428 12.1046V11.3067C20.1428 11.1936 20.1878 11.0851 20.2678 11.005C20.3478 10.925 20.4564 10.8801 20.5695 10.8801H22.5237C22.6368 10.8801 22.7453 10.925 22.8253 11.005C22.9054 11.0851 22.9503 11.1936 22.9503 11.3067V12.1046C23.0725 12.1459 23.1922 12.1944 23.3087 12.2497L23.8932 11.6865C23.9329 11.6465 23.9801 11.6147 24.0321 11.5931C24.0841 11.5714 24.1399 11.5603 24.1962 11.5603C24.2525 11.5603 24.3083 11.5714 24.3603 11.5931C24.4123 11.6147 24.4595 11.6465 24.4991 11.6865L25.8815 13.0689C25.9215 13.1085 25.9532 13.1557 25.9749 13.2077C25.9966 13.2597 26.0077 13.3155 26.0077 13.3718C26.0077 13.4281 25.9966 13.4839 25.9749 13.5359C25.9532 13.5879 25.9215 13.6351 25.8815 13.6747L25.3183 14.2379C25.3736 14.3545 25.4221 14.4741 25.4634 14.5963H26.2399C26.3531 14.5963 26.4616 14.6413 26.5416 14.7213C26.6216 14.8013 26.6666 14.9098 26.6666 15.023V16.9771C26.6666 17.0903 26.6216 17.1988 26.5416 17.2788C26.4616 17.3589 26.3531 17.4038 26.2399 17.4038H25.4421C25.4007 17.526 25.3523 17.6457 25.297 17.7622L25.8602 18.3467C25.9002 18.3864 25.9319 18.4336 25.9536 18.4856C25.9752 18.5376 25.9864 18.5933 25.9864 18.6497C25.9864 18.706 25.9752 18.7618 25.9536 18.8138C25.9319 18.8657 25.9002 18.9129 25.8602 18.9526L24.4778 20.335C24.4381 20.375 24.3909 20.4067 24.3389 20.4284C24.2869 20.4501 24.2312 20.4612 24.1748 20.4612C24.1185 20.4612 24.0628 20.4501 24.0108 20.4284C23.9588 20.4067 23.9116 20.375 23.8719 20.335L23.3087 19.7718C23.1922 19.8271 23.0725 19.8755 22.9503 19.9169V20.6934C22.9503 20.8066 22.9054 20.9151 22.8253 20.9951C22.7453 21.0751 22.6368 21.1201 22.5237 21.1201ZM20.9962 20.2667H22.097V19.5841C22.0937 19.4877 22.1231 19.3931 22.1804 19.3157C22.2378 19.2382 22.3196 19.1824 22.4127 19.1574C22.68 19.084 22.9367 18.9765 23.1764 18.8374C23.2575 18.7912 23.3515 18.7729 23.444 18.7853C23.5364 18.7976 23.6223 18.8399 23.6885 18.9057L24.1748 19.3921L24.9557 18.6113L24.4692 18.1249C24.4035 18.0587 24.3612 17.9728 24.3488 17.8804C24.3365 17.7879 24.3548 17.6939 24.401 17.6129C24.5401 17.3731 24.6476 17.1164 24.721 16.8491C24.746 16.7561 24.8018 16.6742 24.8792 16.6168C24.9567 16.5595 25.0513 16.5301 25.1476 16.5334H25.8303V15.4497H25.1306C25.0343 15.453 24.9397 15.4236 24.8622 15.3662C24.7847 15.3089 24.7289 15.227 24.7039 15.1339C24.6306 14.8667 24.523 14.61 24.3839 14.3702C24.3378 14.2891 24.3194 14.1952 24.3318 14.1027C24.3441 14.0102 24.3864 13.9243 24.4522 13.8582L24.9386 13.3718L24.1578 12.591L23.6714 13.0774C23.6052 13.1432 23.5194 13.1855 23.4269 13.1978C23.3344 13.2101 23.2405 13.1918 23.1594 13.1457C22.9196 13.0066 22.6629 12.899 22.3957 12.8257C22.3026 12.8007 22.2207 12.7449 22.1634 12.6674C22.106 12.5899 22.0766 12.4953 22.0799 12.399V11.7334H20.9962V12.4161C20.9995 12.5124 20.9701 12.607 20.9127 12.6845C20.8554 12.762 20.7735 12.8177 20.6805 12.8427C20.4132 12.9161 20.1565 13.0237 19.9167 13.1627C19.8356 13.2089 19.7417 13.2272 19.6492 13.2149C19.5567 13.2026 19.4709 13.1603 19.4047 13.0945L18.9183 12.6081L18.1375 13.3889L18.6239 13.8753C18.6897 13.9414 18.732 14.0273 18.7443 14.1198C18.7567 14.2122 18.7383 14.3062 18.6922 14.3873C18.5531 14.627 18.4456 14.8837 18.3722 15.151C18.3472 15.2441 18.2914 15.326 18.2139 15.3833C18.1364 15.4406 18.0418 15.47 17.9455 15.4667H17.2799V16.5675H17.9626C18.0589 16.5642 18.1535 16.5936 18.231 16.651C18.3085 16.7083 18.3642 16.7902 18.3892 16.8833C18.4626 17.1506 18.5702 17.4073 18.7092 17.647C18.7554 17.7281 18.7737 17.822 18.7614 17.9145C18.7491 18.007 18.7068 18.0929 18.641 18.159L18.1546 18.6454L18.9354 19.4262L19.4218 18.9398C19.4879 18.874 19.5738 18.8317 19.6663 18.8194C19.7588 18.8071 19.8527 18.8254 19.9338 18.8715C20.1735 19.0106 20.4302 19.1182 20.6975 19.1915C20.7906 19.2165 20.8725 19.2723 20.9298 19.3498C20.9871 19.4273 21.0165 19.5219 21.0133 19.6182L20.9962 20.2667ZM21.5466 18.1846C21.1145 18.1846 20.6922 18.0565 20.3329 17.8164C19.9737 17.5764 19.6937 17.2352 19.5283 16.8361C19.363 16.4369 19.3197 15.9976 19.404 15.5739C19.4883 15.1501 19.6964 14.7609 20.0019 14.4554C20.3074 14.1499 20.6966 13.9418 21.1204 13.8575C21.5442 13.7732 21.9834 13.8165 22.3826 13.9818C22.7817 14.1472 23.1229 14.4272 23.363 14.7864C23.603 15.1457 23.7311 15.568 23.7311 16.0001C23.7311 16.5794 23.501 17.1351 23.0913 17.5448C22.6816 17.9544 22.126 18.1846 21.5466 18.1846V18.1846ZM21.5466 14.6689C21.2833 14.6689 21.0259 14.7469 20.807 14.8932C20.5881 15.0395 20.4175 15.2474 20.3167 15.4906C20.216 15.7339 20.1896 16.0015 20.241 16.2598C20.2923 16.518 20.4191 16.7552 20.6053 16.9414C20.7915 17.1275 21.0287 17.2543 21.2869 17.3057C21.5451 17.3571 21.8128 17.3307 22.056 17.2299C22.2993 17.1292 22.5072 16.9586 22.6534 16.7396C22.7997 16.5207 22.8778 16.2634 22.8778 16.0001C22.8778 15.647 22.7375 15.3084 22.4879 15.0588C22.2382 14.8091 21.8996 14.6689 21.5466 14.6689V14.6689Z" fill="white"/>
</g>
<defs>
<linearGradient id="paint0_linear_854_27027" x1="-6.62742" y1="38.6287" x2="38.6274" y2="-6.62613" gradientUnits="userSpaceOnUse">
<stop stop-color="#055F4E"/>
<stop offset="1" stop-color="#56C0A7"/>
</linearGradient>
<clipPath id="clip0_854_27027">
<rect width="32" height="32" fill="white"/>
</clipPath>
</defs>
</svg>
