<svg width="32" height="32" viewBox="0 0 32 32" fill="none" xmlns="http://www.w3.org/2000/svg">
<g clip-path="url(#clip0_854_27028)">
<path d="M32 0H0V32H32V0Z" fill="url(#paint0_linear_854_27028)"/>
<path d="M21.1199 26.6668H20.2666V20.7831C20.2525 20.3195 20.1809 19.8594 20.0532 19.4135H18.9866V18.5602H19.746C19.554 18.0866 19.3194 17.7367 19.1871 17.7068H18.1332V16.8535H19.1999C20.5055 16.8535 21.1284 20.0066 21.1284 20.7831L21.1199 26.6668ZM19.4132 26.6668H18.5599V21.5468H19.4132V26.6668ZM13.4399 26.6668H12.5865V23.2535H13.4399V26.6668ZM11.7332 22.8268H10.8799V20.7831C10.8799 20.0066 11.5199 16.8535 12.7999 16.8535H13.8665V17.7068H12.7999C12.6463 17.7367 12.4372 18.0866 12.2452 18.5602H16.8106V19.4135H11.9465C11.8131 19.8587 11.7357 20.3188 11.7161 20.7831L11.7332 22.8268ZM13.4399 22.4002H12.5865V20.6935H13.4399V22.4002ZM18.5599 19.4135H17.6724V18.5602H18.5599V19.4135ZM17.7066 18.1335H16.8532V17.2802H15.1465V18.1335H14.2932V16.4268H12.2836C11.9117 16.4257 11.5553 16.2774 11.2923 16.0144C11.0293 15.7514 10.881 15.395 10.8799 15.0231V6.73723C10.881 6.36528 11.0293 6.00889 11.2923 5.74588C11.5553 5.48288 11.9117 5.33462 12.2836 5.3335H15.9999V6.18683H12.2836C12.2112 6.18626 12.1394 6.20011 12.0723 6.22757C12.0053 6.25503 11.9444 6.29555 11.8932 6.34677C11.8419 6.39799 11.8014 6.4589 11.774 6.52593C11.7465 6.59296 11.7326 6.66479 11.7332 6.73723V15.0231C11.7326 15.0955 11.7465 15.1674 11.774 15.2344C11.8014 15.3014 11.8419 15.3623 11.8932 15.4136C11.9444 15.4648 12.0053 15.5053 12.0723 15.5328C12.1394 15.5602 12.2112 15.5741 12.2836 15.5735H19.7161C19.7886 15.5741 19.8604 15.5602 19.9275 15.5328C19.9945 15.5053 20.0554 15.4648 20.1066 15.4136C20.1578 15.3623 20.1984 15.3014 20.2258 15.2344C20.2533 15.1674 20.2671 15.0955 20.2666 15.0231V6.73723C20.2671 6.66479 20.2533 6.59296 20.2258 6.52593C20.1984 6.4589 20.1578 6.39799 20.1066 6.34677C20.0554 6.29555 19.9945 6.25503 19.9275 6.22757C19.8604 6.20011 19.7886 6.18626 19.7161 6.18683H18.5599V5.3335H19.7161C20.0881 5.33462 20.4445 5.48288 20.7075 5.74588C20.9705 6.00889 21.1188 6.36528 21.1199 6.73723V15.0231C21.1188 15.395 20.9705 15.7514 20.7075 16.0144C20.4445 16.2774 20.0881 16.4257 19.7161 16.4268H17.7066V18.1335ZM15.9999 13.4402C15.4936 13.4402 14.9986 13.29 14.5776 13.0087C14.1566 12.7274 13.8285 12.3276 13.6348 11.8598C13.441 11.3921 13.3903 10.8773 13.4891 10.3807C13.5879 9.88414 13.8317 9.42799 14.1897 9.06997C14.5477 8.71195 15.0039 8.46813 15.5005 8.36935C15.997 8.27057 16.5118 8.32127 16.9796 8.51503C17.4473 8.70879 17.8471 9.03691 18.1284 9.4579C18.4097 9.87889 18.5599 10.3738 18.5599 10.8802C18.5599 11.5591 18.2902 12.2103 17.8101 12.6904C17.33 13.1704 16.6788 13.4402 15.9999 13.4402ZM15.9999 9.1735C15.6623 9.1735 15.3324 9.27359 15.0517 9.46112C14.771 9.64865 14.5523 9.9152 14.4231 10.227C14.294 10.5389 14.2602 10.8821 14.326 11.2131C14.3919 11.5442 14.5544 11.8483 14.7931 12.087C15.0318 12.3256 15.3359 12.4882 15.6669 12.554C15.998 12.6199 16.3411 12.5861 16.653 12.4569C16.9648 12.3277 17.2314 12.109 17.4189 11.8283C17.6065 11.5477 17.7066 11.2177 17.7066 10.8802C17.7066 10.4275 17.5267 9.99343 17.2067 9.67337C16.8866 9.3533 16.4525 9.1735 15.9999 9.1735ZM17.7066 6.18683H16.8532V5.3335H17.7066V6.18683ZM15.9999 21.1202C15.8733 21.1202 15.7496 21.1577 15.6443 21.228C15.5391 21.2983 15.457 21.3983 15.4086 21.5152C15.3602 21.6322 15.3475 21.7609 15.3722 21.885C15.3969 22.0092 15.4578 22.1232 15.5473 22.2127C15.6368 22.3022 15.7509 22.3632 15.875 22.3879C15.9992 22.4126 16.1279 22.3999 16.2448 22.3514C16.3617 22.303 16.4617 22.221 16.532 22.1157C16.6023 22.0105 16.6399 21.8867 16.6399 21.7602C16.6399 21.5904 16.5725 21.4276 16.4524 21.3076C16.3324 21.1876 16.1696 21.1202 15.9999 21.1202ZM15.9999 23.2535C15.8733 23.2535 15.7496 23.291 15.6443 23.3614C15.5391 23.4317 15.457 23.5316 15.4086 23.6486C15.3602 23.7655 15.3475 23.8942 15.3722 24.0184C15.3969 24.1425 15.4578 24.2565 15.5473 24.346C15.6368 24.4355 15.7509 24.4965 15.875 24.5212C15.9992 24.5459 16.1279 24.5332 16.2448 24.4848C16.3617 24.4363 16.4617 24.3543 16.532 24.2491C16.6023 24.1438 16.6399 24.0201 16.6399 23.8935C16.6399 23.7238 16.5725 23.561 16.4524 23.4409C16.3324 23.3209 16.1696 23.2535 15.9999 23.2535V23.2535ZM15.9999 25.3868C15.8733 25.3868 15.7496 25.4244 15.6443 25.4947C15.5391 25.565 15.457 25.665 15.4086 25.7819C15.3602 25.8989 15.3475 26.0275 15.3722 26.1517C15.3969 26.2758 15.4578 26.3899 15.5473 26.4794C15.6368 26.5689 15.7509 26.6298 15.875 26.6545C15.9992 26.6792 16.1279 26.6665 16.2448 26.6181C16.3617 26.5697 16.4617 26.4876 16.532 26.3824C16.6023 26.2771 16.6399 26.1534 16.6399 26.0268C16.6399 25.8571 16.5725 25.6943 16.4524 25.5743C16.3324 25.4543 16.1696 25.3868 15.9999 25.3868ZM15.9999 10.2402C15.8733 10.2402 15.7496 10.2777 15.6443 10.348C15.5391 10.4183 15.457 10.5183 15.4086 10.6352C15.3602 10.7522 15.3475 10.8809 15.3722 11.005C15.3969 11.1292 15.4578 11.2432 15.5473 11.3327C15.6368 11.4222 15.7509 11.4832 15.875 11.5079C15.9992 11.5326 16.1279 11.5199 16.2448 11.4714C16.3617 11.423 16.4617 11.341 16.532 11.2357C16.6023 11.1305 16.6399 11.0067 16.6399 10.8802C16.6399 10.7104 16.5725 10.5476 16.4524 10.4276C16.3324 10.3076 16.1696 10.2402 15.9999 10.2402Z" fill="white"/>
</g>
<defs>
<linearGradient id="paint0_linear_854_27028" x1="-6.62613" y1="38.6274" x2="38.6287" y2="-6.62742" gradientUnits="userSpaceOnUse">
<stop stop-color="#055F4E"/>
<stop offset="1" stop-color="#56C0A7"/>
</linearGradient>
<clipPath id="clip0_854_27028">
<rect width="32" height="32" fill="white"/>
</clipPath>
</defs>
</svg>
