<svg width="32" height="32" viewBox="0 0 32 32" fill="none" xmlns="http://www.w3.org/2000/svg">
<g clip-path="url(#clip0_854_27236)">
<path d="M32 0H0V32H32V0Z" fill="url(#paint0_linear_854_27236)"/>
<path fill-rule="evenodd" clip-rule="evenodd" d="M23.6 21.61H19.2V22.4085H23.6C24.7032 22.4085 25.6 23.3045 25.6 24.4049C25.6 25.5053 24.7032 26.4013 23.6 26.4013H7.60005C6.49685 26.4013 5.60005 25.5053 5.60005 24.4049C5.60005 23.3045 6.49685 22.4085 7.60005 22.4085H11.9936V21.61H7.60005C6.05605 21.61 4.80005 22.8637 4.80005 24.4049C4.80005 25.9461 6.05605 27.1998 7.60005 27.1998H23.6C25.144 27.1998 26.4 25.9461 26.4 24.4049C26.4 22.8637 25.144 21.61 23.6 21.61ZM9.20005 10.4303C9.86165 10.4303 10.4 9.89293 10.4 9.23253C10.4 8.57213 9.86165 8.03471 9.20005 8.03471C8.53845 8.03471 8.00005 8.57213 8.00005 9.23253C8.00005 9.89293 8.53845 10.4303 9.20005 10.4303ZM13.6 14.8223V24.8042H12.8V15.1498L9.12165 14.4151C8.93445 14.3776 8.80005 14.2139 8.80005 14.0238V11.1882C7.88805 11.0029 7.20005 10.1964 7.20005 9.23253C7.20005 8.13214 8.09685 7.23617 9.20005 7.23617C10.3032 7.23617 11.2 8.13214 11.2 9.23253C11.2 10.1964 10.512 11.0029 9.60005 11.1882V13.6964L13.2784 14.4311C13.4656 14.4686 13.6 14.6323 13.6 14.8223ZM16.88 6.79617C16.88 6.13577 16.3416 5.59835 15.68 5.59835C15.0176 5.59835 14.48 6.13577 14.48 6.79617C14.48 7.45657 15.0176 7.99399 15.68 7.99399C16.3416 7.99399 16.88 7.45657 16.88 6.79617ZM16 8.75979V22.4085H15.2V8.72785C14.3288 8.51224 13.68 7.73127 13.68 6.79617C13.68 5.69497 14.5768 4.7998 15.68 4.7998C16.7832 4.7998 17.68 5.69497 17.68 6.79617C17.68 7.78716 16.9496 8.60567 16 8.75979ZM23.2 13.2253C23.2 12.5649 22.6616 12.0274 22 12.0274C21.3384 12.0274 20.8 12.5649 20.8 13.2253C20.8 13.8857 21.3384 14.4231 22 14.4231C22.6616 14.4231 23.2 13.8857 23.2 13.2253ZM24 13.2253C24 14.3257 23.1032 15.2216 22 15.2216C21.0336 15.2216 20.2264 14.5349 20.0408 13.6245H18.4V24.8042H17.6V13.2253C17.6 13.0049 17.7792 12.826 18 12.826H20.0408C20.2264 11.9156 21.0336 11.2289 22 11.2289C23.1032 11.2289 24 12.1249 24 13.2253ZM20 24.8042H21.6V24.0056H20V24.8042ZM22.4 24.8042H24V24.0056H22.4V24.8042Z" fill="white"/>
</g>
<defs>
<linearGradient id="paint0_linear_854_27236" x1="-6.6304" y1="38.6304" x2="38.6261" y2="-6.62613" gradientUnits="userSpaceOnUse">
<stop stop-color="#055F4E"/>
<stop offset="1" stop-color="#56C0A7"/>
</linearGradient>
<clipPath id="clip0_854_27236">
<rect width="32" height="32" fill="white"/>
</clipPath>
</defs>
</svg>
