<svg width="32" height="32" viewBox="0 0 32 32" fill="none" xmlns="http://www.w3.org/2000/svg">
<g clip-path="url(#clip0_854_27026)">
<path d="M32 0H0V32H32V0Z" fill="url(#paint0_linear_854_27026)"/>
<path d="M7.0442 23.006C6.86497 23.0075 6.68701 22.9756 6.5194 22.9121C5.66607 22.5793 5.28207 21.6321 5.41007 20.2796C5.41007 20.2796 5.41007 20.2028 5.46554 19.6737C5.51715 19.3342 5.59417 18.999 5.69594 18.671L5.73007 18.5686H5.67034C5.59751 18.5391 5.53426 18.4899 5.48759 18.4267C5.44091 18.3635 5.4126 18.2885 5.4058 18.2102C5.37559 17.7285 5.41003 17.2449 5.5082 16.7724V16.7169C5.56489 16.4586 5.64047 16.2047 5.73434 15.9574C5.94042 15.3898 6.31373 14.898 6.80504 14.5468C7.29634 14.1957 7.88255 14.0017 8.48634 13.9905C8.80154 14.0211 9.11955 13.9785 9.41558 13.866C9.71161 13.7535 9.97767 13.5742 10.193 13.342L10.8927 12.1046C11.9295 10.4236 14.6986 7.88064 21.6575 9.54464C21.7409 9.5643 21.8164 9.6086 21.8742 9.67176C21.932 9.73492 21.9695 9.81402 21.9818 9.89877H22.9887H23.0741C23.5123 9.92368 23.9399 10.0434 24.3274 10.2496C24.7149 10.4559 25.053 10.7438 25.3183 11.0934C25.6015 11.4512 25.81 11.862 25.9317 12.3017C26.0533 12.7414 26.0856 13.201 26.0266 13.6534L25.6511 16.5548C25.5657 17.2303 25.4054 17.8943 25.1733 18.5345L24.9002 19.3025L24.5034 20.2625C24.4743 20.3355 24.4255 20.3989 24.3626 20.446V20.5697C24.4058 20.7699 24.4038 20.9773 24.3565 21.1766C24.3093 21.3759 24.2181 21.5622 24.0895 21.7217C23.9378 21.9018 23.7473 22.0452 23.5323 22.1413C23.3173 22.2373 23.0833 22.2835 22.8479 22.2764H17.9839C17.7741 22.2745 17.5672 22.2274 17.3772 22.1383C17.1872 22.0493 17.0187 21.9202 16.8831 21.7601C16.7687 21.6351 16.6777 21.4906 16.6143 21.3334C16.4795 21.5735 16.3208 21.7993 16.1407 22.0076C15.889 22.2934 14.9887 23.2193 14.0799 22.9505C12.9109 22.6049 12.4885 20.7788 13.1029 18.6838C13.7173 16.5889 15.0527 15.2961 16.2218 15.6417C16.3445 15.6782 16.461 15.7328 16.5674 15.8038L16.1066 16.5206C16.068 16.4956 16.0265 16.4755 15.9829 16.4609C15.4026 16.2945 14.3957 17.3142 13.9221 18.9228C13.4485 20.5313 13.7386 21.9393 14.3189 22.11C14.6175 22.1953 15.1509 21.8198 15.5007 21.4188C15.9184 20.8985 16.2196 20.2947 16.3839 19.6481C16.5983 18.9586 16.6652 18.2318 16.5802 17.5148C16.5698 17.4587 16.5706 17.4012 16.5825 17.3455C16.5943 17.2897 16.6171 17.2369 16.6494 17.1899C16.6816 17.143 16.7229 17.1029 16.7707 17.0719C16.8185 17.0408 16.8719 17.0195 16.9279 17.0092C16.984 16.9988 17.0415 16.9996 17.0972 17.0114C17.153 17.0233 17.2058 17.046 17.2528 17.0783C17.2997 17.1106 17.3398 17.1518 17.3708 17.1996C17.4019 17.2474 17.4232 17.3009 17.4335 17.3569C17.5058 17.704 17.5486 18.0565 17.5615 18.4108L18.3466 18.1761C18.4618 18.6028 18.5557 18.9825 18.6325 19.311C18.6623 19.4433 18.6879 19.567 18.7135 19.6737H19.6266C19.6246 19.6581 19.6246 19.6423 19.6266 19.6268C19.7553 19.3906 19.9453 19.1935 20.1765 19.0561C20.4078 18.9187 20.6718 18.8461 20.9407 18.846H22.7413C22.8867 18.847 23.0293 18.8871 23.1539 18.9622C23.2785 19.0373 23.3806 19.1445 23.4495 19.2726C23.5247 19.4023 23.5645 19.5494 23.5647 19.6993H23.8037L24.081 19.0209L24.3498 18.2742C24.5579 17.6843 24.701 17.0734 24.7765 16.4524L25.1733 13.5254C25.219 13.1869 25.1965 12.8426 25.1071 12.5128C25.0177 12.1831 24.8632 11.8745 24.6527 11.6054C24.4578 11.3509 24.2092 11.1424 23.9245 10.9949C23.6399 10.8474 23.3262 10.7645 23.0058 10.7521H22.9333H21.6533C21.312 10.7426 20.9735 10.8152 20.6662 10.9637C20.3588 11.1122 20.0916 11.3323 19.8869 11.6054C19.8318 11.6765 19.7556 11.7284 19.6692 11.7536C19.5828 11.7788 19.4907 11.7761 19.406 11.7458C19.3213 11.7155 19.2483 11.6592 19.1975 11.585C19.1467 11.5107 19.1207 11.4223 19.1231 11.3324C19.1594 11.0751 19.2491 10.8283 19.3865 10.6079C19.5239 10.3874 19.706 10.1982 19.921 10.0524C14.6133 9.19903 12.4586 11.1745 11.6266 12.5228L10.9141 13.8028C10.9018 13.8253 10.8875 13.8468 10.8714 13.8668C10.5828 14.1974 10.2214 14.4565 9.81572 14.6238C9.41001 14.7912 8.97102 14.8621 8.53327 14.831C8.09989 14.84 7.67952 14.9807 7.32814 15.2346C6.97675 15.4884 6.71102 15.8432 6.56634 16.2518C6.49214 16.4482 6.43085 16.6491 6.38287 16.8534C6.37844 16.894 6.36986 16.9341 6.35727 16.9729C6.35727 17.054 6.3274 17.1308 6.31887 17.2076L6.51514 17.0412C6.59352 16.9735 6.69386 16.9366 6.79743 16.9374C6.90101 16.9382 7.00075 16.9767 7.07806 17.0456C7.15536 17.1146 7.20494 17.2093 7.21755 17.3121C7.23016 17.4149 7.20495 17.5188 7.1466 17.6044C6.88265 18.0168 6.67596 18.4632 6.5322 18.9313C6.44414 19.2101 6.3785 19.4954 6.33594 19.7846L6.28047 20.3564C6.22927 20.911 6.23354 21.8753 6.8522 22.1142C7.25754 22.2721 7.7866 21.9308 8.1322 21.5596C8.62855 21.0044 8.99187 20.3434 9.1946 19.6268C9.5402 18.5345 9.53167 17.4337 9.1946 16.8278L9.93274 16.4012C10.4063 17.2161 10.4405 18.5345 10.0223 19.8828C9.77151 20.7221 9.3339 21.4937 8.74234 22.1398C8.53124 22.39 8.27228 22.5955 7.98067 22.7443C7.68906 22.893 7.37067 22.982 7.0442 23.006V23.006ZM17.5487 18.526C17.5578 19.263 17.505 19.9994 17.3909 20.7276C17.3758 20.813 17.3803 20.9008 17.404 20.9843C17.4276 21.0677 17.4698 21.1448 17.5274 21.2097C17.5835 21.2762 17.6534 21.3296 17.7323 21.3665C17.8111 21.4033 17.8969 21.4226 17.9839 21.423H22.8437C22.9517 21.4291 23.0598 21.4112 23.1601 21.3707C23.2604 21.3301 23.3505 21.2678 23.4239 21.1884C23.4741 21.1207 23.5085 21.0427 23.5247 20.96C23.541 20.8774 23.5386 20.7921 23.5178 20.7105C23.5157 20.6878 23.5157 20.6649 23.5178 20.6422V20.527H23.0399C22.9737 20.5291 22.9079 20.5158 22.8477 20.488C22.7875 20.4603 22.7346 20.4189 22.6932 20.3671C22.6518 20.3154 22.623 20.2547 22.6091 20.1898C22.5952 20.125 22.5967 20.0579 22.6133 19.9937L22.6773 19.7462C22.6754 19.7292 22.6754 19.7121 22.6773 19.695H20.9535C20.8454 19.6953 20.7391 19.7229 20.6444 19.7751C20.5497 19.8273 20.4697 19.9024 20.4117 19.9937L20.3519 20.2113C20.3269 20.3044 20.2711 20.3863 20.1937 20.4436C20.1162 20.5009 20.0216 20.5303 19.9253 20.527H18.4661C18.3641 20.5468 18.2584 20.5286 18.1689 20.476C18.0793 20.4233 18.0121 20.3399 17.9797 20.2412C17.9242 20.0705 17.8645 19.8145 17.7919 19.5073C17.7194 19.2001 17.6469 18.8801 17.5487 18.526ZM7.1466 21.8369C6.6346 21.3249 6.5066 20.335 6.83087 19.3068C7.21487 18.078 8.11087 17.2502 8.9258 17.3356L8.8362 18.1889C8.4906 18.1505 7.9146 18.7094 7.6458 19.567C7.4026 20.3436 7.5178 21.0049 7.7482 21.231L7.1466 21.8369ZM14.5791 21.4657C14.097 20.958 13.9818 19.9724 14.2805 18.9526C14.6431 17.7196 15.4794 16.8833 16.2815 16.9729L16.1877 17.8262C15.9189 17.7921 15.3599 18.2998 15.0997 19.2001C14.8693 19.9852 14.9802 20.655 15.1978 20.9068L14.5791 21.4657ZM22.1055 17.199C21.8805 17.2005 21.6576 17.1549 21.4511 17.0653C21.2447 16.9757 21.0592 16.8439 20.9066 16.6785C20.7521 16.5065 20.637 16.3028 20.5692 16.0818C20.5014 15.8607 20.4826 15.6276 20.5141 15.3985L20.8213 12.975C20.8462 12.7676 20.9118 12.5672 21.0145 12.3853C21.1172 12.2034 21.2549 12.0436 21.4197 11.9152C21.5844 11.7868 21.773 11.6922 21.9744 11.637C22.1759 11.5818 22.3863 11.567 22.5935 11.5934C22.8007 11.6199 23.0006 11.6871 23.1817 11.7912C23.3628 11.8953 23.5215 12.0342 23.6487 12.1999C23.7759 12.3656 23.869 12.5549 23.9227 12.7567C23.9764 12.9586 23.9896 13.1691 23.9615 13.3761L23.6543 15.7996C23.6065 16.1751 23.4257 16.521 23.1446 16.7746C22.8636 17.0282 22.501 17.1728 22.1226 17.182L22.1055 17.199ZM22.3829 12.463H22.3615C22.1871 12.4659 22.0197 12.532 21.8903 12.6488C21.7608 12.7657 21.6781 12.9256 21.6575 13.0988L21.3333 15.5222C21.3208 15.6271 21.3307 15.7334 21.3623 15.8342C21.3939 15.9349 21.4466 16.0279 21.5167 16.1068C21.6094 16.2151 21.7317 16.2939 21.8687 16.3335C22.0056 16.3731 22.1511 16.3717 22.2873 16.3295C22.4234 16.2873 22.5442 16.2061 22.6348 16.096C22.7253 15.9859 22.7816 15.8517 22.7967 15.71L23.1082 13.2822C23.1204 13.178 23.1103 13.0725 23.0787 12.9724C23.047 12.8724 22.9946 12.7802 22.9247 12.702C22.8567 12.6258 22.7731 12.5651 22.6796 12.5239C22.5862 12.4827 22.485 12.462 22.3829 12.463Z" fill="white"/>
<path d="M23.3216 22.9677C22.9717 22.9677 22.6944 22.9677 22.6944 22.9677C22.607 22.9655 22.5223 22.9365 22.452 22.8846C22.3816 22.8327 22.3289 22.7604 22.3009 22.6775C22.273 22.5946 22.2712 22.5052 22.2958 22.4212C22.3204 22.3373 22.3702 22.263 22.4384 22.2083L22.7243 21.9821L22.8352 22.1187H23.5008C24.2944 22.1187 24.7808 21.8371 25.0368 21.2653C25.3952 20.412 25.1136 19.132 24.6827 18.1805L25.4549 17.8179C25.9541 18.8888 26.3083 20.4419 25.8261 21.5981C25.5616 22.2168 24.9472 22.9592 23.5093 22.9677H23.3216Z" fill="white"/>
<path d="M12.4586 17.1903L11.7205 16.7636C12.8938 14.7498 14.1055 13.7087 15.313 13.6831C15.7187 13.6926 16.1161 13.7994 16.4718 13.9947C16.8275 14.19 17.131 14.468 17.3567 14.8052L16.6399 15.266C16.488 15.0549 16.2916 14.8797 16.0645 14.7529C15.8374 14.6261 15.5852 14.5507 15.3258 14.5322C14.4469 14.5578 13.457 15.4751 12.4586 17.1903Z" fill="white"/>
<path d="M11.6735 20.625H9.04102V21.4783H11.6735V20.625Z" fill="white"/>
<path d="M21.9477 15.5861C21.7128 15.587 21.4828 15.518 21.2871 15.388C21.0914 15.258 20.9387 15.0728 20.8484 14.8559C20.7581 14.639 20.7343 14.4001 20.7799 14.1696C20.8255 13.9392 20.9386 13.7274 21.1047 13.5613C21.2709 13.3951 21.4826 13.2821 21.7131 13.2365C21.9436 13.1908 22.1824 13.2147 22.3993 13.305C22.6162 13.3953 22.8015 13.548 22.9315 13.7437C23.0615 13.9394 23.1304 14.1693 23.1296 14.4043C23.1296 14.7177 23.0051 15.0183 22.7834 15.24C22.5618 15.4616 22.2612 15.5861 21.9477 15.5861V15.5861ZM21.9477 14.0715C21.8595 14.0715 21.7748 14.1065 21.7124 14.1689C21.65 14.2313 21.6149 14.316 21.6149 14.4043C21.6149 14.4478 21.6235 14.4908 21.6403 14.531C21.6571 14.5711 21.6817 14.6075 21.7126 14.6381C21.7436 14.6687 21.7803 14.6928 21.8207 14.709C21.861 14.7253 21.9042 14.7334 21.9477 14.7328C21.991 14.7334 22.034 14.7253 22.0741 14.709C22.1142 14.6926 22.1507 14.6685 22.1813 14.6378C22.2119 14.6072 22.2361 14.5708 22.2524 14.5307C22.2687 14.4905 22.2768 14.4476 22.2762 14.4043C22.2751 14.3179 22.24 14.2354 22.1785 14.1747C22.117 14.114 22.0341 14.08 21.9477 14.08V14.0715Z" fill="white"/>
<path d="M13.5508 9.7793H7.16357V10.6326H13.5508V9.7793Z" fill="white"/>
<path d="M11.7675 11.3154H9.06665V12.1688H11.7675V11.3154Z" fill="white"/>
<path d="M10.7222 12.6636H5.9563V13.5169H10.7222V12.6636Z" fill="white"/>
</g>
<defs>
<linearGradient id="paint0_linear_854_27026" x1="-6.6304" y1="38.6304" x2="38.6261" y2="-6.62613" gradientUnits="userSpaceOnUse">
<stop stop-color="#055F4E"/>
<stop offset="1" stop-color="#56C0A7"/>
</linearGradient>
<clipPath id="clip0_854_27026">
<rect width="32" height="32" fill="white"/>
</clipPath>
</defs>
</svg>
