<svg width="32" height="32" viewBox="0 0 32 32" fill="none" xmlns="http://www.w3.org/2000/svg">
<g clip-path="url(#clip0_854_27025)">
<path d="M32 0H0V32H32V0Z" fill="url(#paint0_linear_854_27025)"/>
<path d="M25.916 17.5782C25.8708 17.5213 25.8096 17.4792 25.7404 17.4572L24.5697 17.0864C24.6439 16.3676 24.6242 15.6422 24.5111 14.9284L25.6546 14.4952C25.7043 14.4765 25.7497 14.4478 25.7879 14.4109C25.8262 14.374 25.8565 14.3296 25.877 14.2806C25.8979 14.2319 25.9087 14.1795 25.9087 14.1264C25.9087 14.0734 25.8979 14.021 25.877 13.9723L24.355 10.6006C24.3354 10.5531 24.3066 10.51 24.2702 10.4737C24.2339 10.4374 24.1907 10.4086 24.1432 10.3891C24.0957 10.3695 24.0448 10.3595 23.9934 10.3596C23.9421 10.3598 23.8912 10.37 23.8438 10.3899H23.8165L22.7316 10.9518C22.2777 10.3931 21.753 9.89592 21.1707 9.47279L21.6741 8.35669C21.6949 8.3098 21.7062 8.25928 21.7075 8.20801C21.7087 8.15673 21.6998 8.10572 21.6813 8.05787C21.6629 8.01003 21.6351 7.9663 21.5997 7.92919C21.5643 7.89207 21.522 7.8623 21.475 7.84157L18.158 6.6084H17.5999C17.5392 6.65404 17.493 6.71643 17.4672 6.78791L17.077 7.95864H16.9248V8.73913C17.0562 8.7301 17.1881 8.7433 17.315 8.77815C17.4075 8.7927 17.5022 8.77351 17.5817 8.72408C17.6612 8.67465 17.7203 8.59827 17.7482 8.50889L18.0916 7.42401L20.7804 8.46596L20.3121 9.4884C20.2787 9.57078 20.2744 9.66211 20.2999 9.74727C20.3255 9.83243 20.3794 9.90631 20.4526 9.95669C21.1661 10.4273 21.7932 11.0174 22.3063 11.7011C22.3612 11.7767 22.4414 11.8301 22.5323 11.8516C22.6233 11.8731 22.7189 11.8612 22.8019 11.8182L23.8282 11.2913L24.999 13.906L23.9375 14.2962C23.8516 14.3294 23.7803 14.3918 23.736 14.4725C23.6917 14.5532 23.6774 14.6469 23.6955 14.7372C23.8632 15.5739 23.887 16.433 23.7658 17.2777C23.7502 17.3708 23.7689 17.4663 23.8184 17.5467C23.8679 17.6271 23.9449 17.6868 24.035 17.7147L25.116 18.0543L24.0897 20.7352L23.0477 20.2864C22.9635 20.2489 22.8687 20.2424 22.7801 20.2681C22.6915 20.2938 22.6149 20.3501 22.5638 20.4269C22.0868 21.138 21.493 21.7634 20.8077 22.2767C20.7321 22.3316 20.6787 22.4118 20.6572 22.5028C20.6357 22.5937 20.6476 22.6894 20.6907 22.7723L21.2331 23.7791L18.6068 24.9499L18.2165 23.9001C18.1806 23.8107 18.113 23.7377 18.0265 23.6952C17.9401 23.6527 17.8409 23.6437 17.7482 23.6699C17.4811 23.7204 17.2114 23.7569 16.9404 23.7791V24.5596C17.1515 24.5523 17.3617 24.5275 17.5687 24.4855L18.0019 25.6172C18.0211 25.6662 18.05 25.7108 18.0869 25.7484C18.1237 25.7859 18.1678 25.8156 18.2165 25.8357C18.2663 25.8578 18.3201 25.8692 18.3746 25.8692C18.429 25.8692 18.4828 25.8578 18.5326 25.8357L21.9121 24.3294C21.9626 24.3079 22.0079 24.276 22.0453 24.2358C22.0826 24.1956 22.111 24.148 22.1287 24.0961C22.1463 24.0442 22.1529 23.9891 22.1478 23.9345C22.1428 23.8799 22.1263 23.8269 22.0994 23.7791L21.5414 22.7021C22.1028 22.2487 22.6027 21.7239 23.0282 21.1411L24.1404 21.6367C24.1881 21.66 24.24 21.6733 24.293 21.6758C24.346 21.6783 24.3989 21.67 24.4486 21.6514C24.4983 21.6328 24.5436 21.6042 24.5819 21.5675C24.6202 21.5307 24.6505 21.4865 24.6711 21.4377L25.916 18.1752V17.5782Z" fill="white"/>
<path d="M20.4526 16.1576C20.449 15.1667 20.094 14.2093 19.451 13.4555C18.8079 12.7016 17.9183 12.2003 16.9404 12.0405V12.821C17.7173 12.9673 18.4188 13.3804 18.9234 13.9889C19.4281 14.5974 19.7043 15.3631 19.7043 16.1537C19.7043 16.9443 19.4281 17.71 18.9234 18.3185C18.4188 18.927 17.7173 19.3401 16.9404 19.4864V20.2669C17.9184 20.1103 18.8087 19.6109 19.4521 18.8581C20.0956 18.1052 20.4503 17.148 20.4526 16.1576V16.1576Z" fill="white"/>
<path d="M16.3668 7.89219L14.0253 6.45218C13.966 6.41793 13.8987 6.3999 13.8302 6.3999C13.7617 6.3999 13.6944 6.41793 13.6351 6.45218L8.95212 9.22292C8.8908 9.25462 8.83898 9.30203 8.80196 9.36031C8.76494 9.41858 8.74404 9.48563 8.74139 9.55462V12.3254L6.61846 13.4415C6.55279 13.4736 6.49747 13.5236 6.45883 13.5857C6.42019 13.6478 6.39978 13.7195 6.39993 13.7927V18.4756C6.39919 18.5402 6.41449 18.6039 6.44446 18.6611C6.47442 18.7184 6.51812 18.7672 6.57164 18.8034L8.74529 20.22V22.7683C8.74449 22.8353 8.76095 22.9013 8.79307 22.9601C8.82519 23.0189 8.8719 23.0684 8.92871 23.1039L13.6116 25.8044C13.6718 25.8501 13.7433 25.8784 13.8185 25.8863C13.8885 25.8863 13.9573 25.8674 14.0175 25.8317L16.359 24.458C16.4179 24.424 16.467 24.3751 16.5012 24.3162C16.5354 24.2573 16.5537 24.1905 16.5541 24.1224V8.22779C16.5545 8.16044 16.5374 8.09414 16.5046 8.03533C16.4718 7.97652 16.4243 7.92721 16.3668 7.89219ZM15.7697 23.8922L13.8185 25.0356L12.0663 24.0249L14.2594 22.7097L13.8692 22.0424L11.3053 23.58L9.52578 22.5576V20.2434L11.6253 19.0336L11.2351 18.3585L9.13554 19.5566L7.18432 18.2454V16.3917L9.237 15.221L8.84676 14.5458L7.18432 15.4902V14.0229L9.13554 13.0122L11.0868 14.1049V15.9273L8.89359 17.18L9.28383 17.8473L11.477 16.5712L13.4282 17.5351V19.7595L10.9346 21.1917L11.3248 21.8746L15.7697 19.2483V23.8922ZM14.2087 19.3029V17.1449C14.21 17.0729 14.1913 17.0021 14.1548 16.9401C14.1183 16.8781 14.0654 16.8274 14.0019 16.7936L11.8672 15.7205V13.9488L14.0097 12.7429C14.07 12.709 14.1202 12.6597 14.1551 12.6001C14.1901 12.5404 14.2086 12.4726 14.2087 12.4034V9.33999H13.4282V12.1654L11.477 13.2424L9.52578 12.1497V9.61316L11.0868 8.67267V10.901H11.8672V8.21218L13.8185 7.07267L15.7697 8.27853V15.0727L14.4155 14.2922L14.0253 14.9673L15.7697 15.9741V18.4171L14.2087 19.3029Z" fill="white"/>
</g>
<defs>
<linearGradient id="paint0_linear_854_27025" x1="0" y1="32" x2="32" y2="0" gradientUnits="userSpaceOnUse">
<stop stop-color="#055F4E"/>
<stop offset="1" stop-color="#56C0A7"/>
</linearGradient>
<clipPath id="clip0_854_27025">
<rect width="32" height="32" fill="white"/>
</clipPath>
</defs>
</svg>
