<svg width="32" height="32" viewBox="0 0 32 32" fill="none" xmlns="http://www.w3.org/2000/svg">
<g clip-path="url(#clip0_854_27359)">
<path d="M32 0H0V32H32V0Z" fill="url(#paint0_linear_854_27359)"/>
<path d="M23.8933 10.2827C22.9757 9.05485 21.7845 8.05771 20.4144 7.37041C19.0443 6.68312 17.5328 6.32459 15.9999 6.32326C14.5241 6.31789 13.0662 6.6472 11.736 7.28645C10.4058 7.9257 9.23781 8.85823 8.31993 10.0139L7.67993 9.4806C8.69872 8.20502 9.99671 7.18031 11.4739 6.48539C12.9511 5.79047 14.5681 5.44388 16.2003 5.47232C17.8326 5.50076 19.4365 5.90347 20.8886 6.64943C22.3407 7.3954 23.6022 8.4647 24.5759 9.775L23.8933 10.2827Z" fill="white"/>
<path d="M13.6234 26.5303C11.2745 25.9817 9.17893 24.6577 7.67483 22.772C6.17073 20.8863 5.34585 18.5488 5.33329 16.1367C5.33125 15.341 5.42145 14.5478 5.60209 13.7729L6.42982 13.9692C6.26586 14.68 6.18426 15.4073 6.18662 16.1367C6.19756 18.3555 6.95594 20.506 8.33933 22.2408C9.72272 23.9757 11.6504 25.1937 13.8112 25.6983L13.6234 26.5303Z" fill="white"/>
<path d="M18.3765 26.53L18.1887 25.6767C20.3459 25.173 22.271 23.9581 23.654 22.2276C25.037 20.4971 25.7975 18.3516 25.8133 16.1364C25.8144 15.5221 25.7558 14.9091 25.6383 14.306L26.4917 14.1396C26.6214 14.7973 26.6857 15.4661 26.6837 16.1364C26.6702 18.5509 25.8429 20.8902 24.3354 22.7762C22.828 24.6622 20.7285 25.9848 18.3765 26.53V26.53Z" fill="white"/>
<path d="M22.1865 12.3435L16.2132 8.89603C16.1483 8.85858 16.0748 8.83887 15.9999 8.83887C15.925 8.83887 15.8514 8.85858 15.7865 8.89603L9.81319 12.3435C9.74808 12.3811 9.69406 12.4352 9.65659 12.5004C9.61913 12.5656 9.59956 12.6395 9.59986 12.7147V19.6267C9.59956 19.7019 9.61913 19.7758 9.65659 19.841C9.69406 19.9062 9.74808 19.9603 9.81319 19.9979L15.7865 23.4454C15.8514 23.4828 15.925 23.5025 15.9999 23.5025C16.0748 23.5025 16.1483 23.4828 16.2132 23.4454L22.1865 19.9979C22.2516 19.9603 22.3057 19.9062 22.3431 19.841C22.3806 19.7758 22.4002 19.7019 22.3999 19.6267V12.7147C22.4002 12.6395 22.3806 12.5656 22.3431 12.5004C22.3057 12.4352 22.2516 12.3811 22.1865 12.3435ZM15.9999 9.7579L21.1199 12.7104L15.9999 15.6715L10.8799 12.7104L15.9999 9.7579ZM10.4532 13.4528L15.5732 16.4096V22.319L10.4532 19.3664V13.4528ZM21.5465 19.3664L16.4265 22.319V16.4096L21.5465 13.4528V19.3664Z" fill="white"/>
</g>
<defs>
<linearGradient id="paint0_linear_854_27359" x1="-6.62613" y1="38.6261" x2="38.6261" y2="-6.62613" gradientUnits="userSpaceOnUse">
<stop stop-color="#055F4E"/>
<stop offset="1" stop-color="#56C0A7"/>
</linearGradient>
<clipPath id="clip0_854_27359">
<rect width="32" height="32" fill="white"/>
</clipPath>
</defs>
</svg>
