<svg width="32" height="32" viewBox="0 0 32 32" fill="none" xmlns="http://www.w3.org/2000/svg">
<g clip-path="url(#clip0_854_27262)">
<path d="M32 0H0V32H32V0Z" fill="url(#paint0_linear_854_27262)"/>
<path fill-rule="evenodd" clip-rule="evenodd" d="M19.0175 8.6278C19.0175 9.0686 19.3759 9.4278 19.8175 9.4278C20.2591 9.4278 20.6175 9.0686 20.6175 8.6278C20.6175 8.187 20.2591 7.8278 19.8175 7.8278C19.3759 7.8278 19.0175 8.187 19.0175 8.6278ZM18.2175 8.6278C18.2175 7.7454 18.9351 7.0278 19.8175 7.0278C20.6999 7.0278 21.4175 7.7454 21.4175 8.6278C21.4175 9.5102 20.6999 10.2278 19.8175 10.2278C18.9351 10.2278 18.2175 9.5102 18.2175 8.6278ZM25.2351 17.5486C25.2351 22.7422 21.0103 26.9662 15.8175 26.9662C10.6247 26.9662 6.3999 22.7422 6.3999 17.5486C6.3999 14.9702 7.4215 12.5638 9.2767 10.7726L15.5183 4.7998L16.0711 5.3782L9.8319 11.3494C8.1343 12.987 7.1999 15.1894 7.1999 17.5486C7.1999 22.3006 11.0655 26.1662 15.8175 26.1662C20.5695 26.1662 24.4351 22.3006 24.4351 17.5486C24.4351 15.1654 23.4839 12.9478 21.7567 11.3046L22.3079 10.7246C24.1959 12.5206 25.2351 14.9446 25.2351 17.5486Z" fill="white"/>
</g>
<defs>
<linearGradient id="paint0_linear_854_27262" x1="-6.6304" y1="38.6304" x2="38.6261" y2="-6.62613" gradientUnits="userSpaceOnUse">
<stop stop-color="#055F4E"/>
<stop offset="1" stop-color="#56C0A7"/>
</linearGradient>
<clipPath id="clip0_854_27262">
<rect width="32" height="32" fill="white"/>
</clipPath>
</defs>
</svg>
