<svg width="32" height="32" viewBox="0 0 32 32" fill="none" xmlns="http://www.w3.org/2000/svg">
<g clip-path="url(#clip0_868_12254)">
<path d="M25.2622 27.947C22.0938 30.4035 18.0792 31.5007 14.1018 30.9973C10.1244 30.4938 6.50982 28.431 4.05332 25.2625C1.59683 22.0941 0.499609 18.0796 1.00304 14.1021C1.50647 10.1247 3.56931 6.51013 6.73777 4.05364L6.89777 3.94697C10.0844 1.56832 14.0802 0.54162 18.0188 1.08947C21.9573 1.63732 25.5212 3.71557 27.9377 6.87361C30.3542 10.0316 31.4285 14.0149 30.9277 17.9597C30.4268 21.9046 28.3912 25.493 25.2622 27.947Z" fill="url(#paint0_radial_868_12254)"/>
<path opacity="0.6" d="M11.8933 12.8532C16.1676 8.78795 21.8346 6.51099 27.7333 6.48871C26.9585 5.53018 26.0689 4.67042 25.0845 3.92871C22.2148 4.10574 19.3958 4.76692 16.7467 5.88427C14.0192 7.05581 11.5532 8.76026 9.49335 10.8976C10.4834 11.2734 11.3253 11.9594 11.8933 12.8532Z" fill="white"/>
<path opacity="0.6" d="M4.40887 18.9336C3.79812 20.446 3.30481 22.0032 2.93332 23.5914C3.26154 24.162 3.62988 24.7085 4.03554 25.2269C4.35554 25.6358 4.65776 26.0092 5.01332 26.3825C5.44286 24.2665 6.08616 22.1996 6.93332 20.2136C5.98437 20.0442 5.10635 19.599 4.40887 18.9336Z" fill="white"/>
<path opacity="0.55" d="M6.15112 10.8624C5.52377 9.17879 5.11162 7.42267 4.92446 5.63574C4.17841 6.41929 3.52247 7.28394 2.9689 8.21352C3.16958 9.65324 3.50893 11.0702 3.98224 12.4446C4.53929 11.7209 5.29192 11.1719 6.15112 10.8624Z" fill="#F2F2F2"/>
<path d="M7.78665 20.2848C10.4671 20.2848 12.64 18.1119 12.64 15.4315C12.64 12.751 10.4671 10.5781 7.78665 10.5781C5.10623 10.5781 2.93332 12.751 2.93332 15.4315C2.93332 18.1119 5.10623 20.2848 7.78665 20.2848Z" fill="url(#paint1_linear_868_12254)"/>
<path opacity="0.55" d="M14.8622 24.3017C14.8629 23.8803 14.9482 23.4633 15.1131 23.0754C15.278 22.6876 15.5192 22.3368 15.8222 22.044C14.1833 21.1456 12.6708 20.0337 11.3245 18.7373C10.621 19.4984 9.69303 20.0153 8.67557 20.2129C9.47758 21.0339 10.3392 21.7945 11.2533 22.4884C12.3916 23.348 13.6124 24.0924 14.8978 24.7106C14.8772 24.5752 14.8653 24.4387 14.8622 24.3017Z" fill="#F2F2F2"/>
<path opacity="0.55" d="M26.0622 24.6753C24.4102 24.6763 22.7636 24.4854 21.1556 24.1064C21.1644 24.1713 21.1644 24.2371 21.1556 24.302C21.1568 24.711 21.0773 25.1162 20.9217 25.4945C20.7661 25.8728 20.5375 26.2166 20.2489 26.5064C22.2497 26.9029 24.2924 27.0462 26.3289 26.9331C27.1189 26.2186 27.8283 25.4198 28.4445 24.5509C27.6535 24.6387 26.8581 24.6803 26.0622 24.6753Z" fill="#F2F2F2"/>
<path d="M18.0089 27.4666C19.7566 27.4666 21.1733 26.0498 21.1733 24.3021C21.1733 22.5545 19.7566 21.1377 18.0089 21.1377C16.2612 21.1377 14.8445 22.5545 14.8445 24.3021C14.8445 26.0498 16.2612 27.4666 18.0089 27.4666Z" fill="url(#paint2_linear_868_12254)"/>
<path opacity="0.7" d="M21.9022 15.8758C22.0592 15.1804 22.4402 14.5558 22.9867 14.098C20.0594 11.9699 17.3975 9.49901 15.0578 6.73799C13.6943 5.13675 12.5026 3.39685 11.5022 1.54688C10.8382 1.74595 10.1904 1.99557 9.56445 2.29354C10.635 4.30787 11.9162 6.20292 13.3867 7.94688C15.8859 10.9323 18.7463 13.5957 21.9022 15.8758Z" fill="#F2F2F2"/>
<path d="M25.2089 19.8401C27.0646 19.8401 28.5689 18.3358 28.5689 16.4801C28.5689 14.6244 27.0646 13.1201 25.2089 13.1201C23.3532 13.1201 21.8489 14.6244 21.8489 16.4801C21.8489 18.3358 23.3532 19.8401 25.2089 19.8401Z" fill="url(#paint3_linear_868_12254)"/>
<path opacity="0.55" d="M30.8445 18.7374L30.2222 18.4352L29.6889 18.1508H29.5822L29.12 17.7774H28.9956L28.4444 17.4219C28.2535 18.0765 27.854 18.6508 27.3067 19.0574C27.52 19.1997 27.7511 19.3241 27.9822 19.4485L28.1244 19.5374L28.7467 19.8752L30.2756 20.6752C30.491 20.0296 30.6632 19.3704 30.7911 18.7019L30.8445 18.7374Z" fill="#F2F2F2"/>
<path d="M7.78665 20.2848C10.4671 20.2848 12.64 18.1119 12.64 15.4315C12.64 12.751 10.4671 10.5781 7.78665 10.5781C5.10623 10.5781 2.93332 12.751 2.93332 15.4315C2.93332 18.1119 5.10623 20.2848 7.78665 20.2848Z" fill="url(#paint4_linear_868_12254)"/>
<path d="M18.0089 27.4666C19.7566 27.4666 21.1733 26.0498 21.1733 24.3021C21.1733 22.5545 19.7566 21.1377 18.0089 21.1377C16.2612 21.1377 14.8445 22.5545 14.8445 24.3021C14.8445 26.0498 16.2612 27.4666 18.0089 27.4666Z" fill="url(#paint5_linear_868_12254)"/>
</g>
<defs>
<radialGradient id="paint0_radial_868_12254" cx="0" cy="0" r="1" gradientUnits="userSpaceOnUse" gradientTransform="translate(15.9849 15.9985) scale(15.112 15.112)">
<stop offset="0.18" stop-color="#5EA0EF"/>
<stop offset="1" stop-color="#0078D4"/>
</radialGradient>
<linearGradient id="paint1_linear_868_12254" x1="7.82221" y1="20.4092" x2="7.76887" y2="13.387" gradientUnits="userSpaceOnUse">
<stop stop-color="#CCCCCC"/>
<stop offset="1" stop-color="#FCFCFC"/>
</linearGradient>
<linearGradient id="paint2_linear_868_12254" x1="18.0089" y1="27.4666" x2="18.0089" y2="21.1555" gradientUnits="userSpaceOnUse">
<stop stop-color="#CCCCCC"/>
<stop offset="1" stop-color="#FCFCFC"/>
</linearGradient>
<linearGradient id="paint3_linear_868_12254" x1="25.2089" y1="19.8223" x2="25.2089" y2="13.1201" gradientUnits="userSpaceOnUse">
<stop stop-color="#CCCCCC"/>
<stop offset="1" stop-color="#FCFCFC"/>
</linearGradient>
<linearGradient id="paint4_linear_868_12254" x1="7.82221" y1="20.4092" x2="7.76887" y2="13.387" gradientUnits="userSpaceOnUse">
<stop stop-color="#CCCCCC"/>
<stop offset="1" stop-color="#FCFCFC"/>
</linearGradient>
<linearGradient id="paint5_linear_868_12254" x1="18.0089" y1="27.4666" x2="18.0089" y2="21.1555" gradientUnits="userSpaceOnUse">
<stop stop-color="#CCCCCC"/>
<stop offset="1" stop-color="#FCFCFC"/>
</linearGradient>
<clipPath id="clip0_868_12254">
<rect width="32" height="32" fill="white"/>
</clipPath>
</defs>
</svg>
