<svg width="32" height="32" viewBox="0 0 32 32" fill="none" xmlns="http://www.w3.org/2000/svg">
<path d="M31.1111 4.44435V23.6977C31.1111 23.8346 31.0839 23.9701 31.031 24.0964C30.978 24.2227 30.9005 24.3372 30.8028 24.4331C30.7052 24.5291 30.5894 24.6047 30.4623 24.6555C30.3351 24.7062 30.1991 24.7312 30.0622 24.7288H22.0267C21.9607 24.7288 21.8973 24.755 21.8507 24.8017C21.804 24.8484 21.7778 24.9117 21.7778 24.9777V28.0888C21.777 28.1812 21.7504 28.2716 21.7011 28.3498C21.6518 28.428 21.5817 28.491 21.4986 28.5316C21.4156 28.5722 21.3229 28.5889 21.2309 28.5797C21.1389 28.5706 21.0512 28.536 20.9778 28.4799L16.1422 24.7821H15.9822H1.93777C1.80088 24.7845 1.66488 24.7596 1.53772 24.7088C1.41056 24.658 1.29479 24.5825 1.19715 24.4865C1.09951 24.3905 1.02197 24.276 0.969039 24.1498C0.916113 24.0235 0.888865 23.8879 0.888886 23.751V4.44435C0.888865 4.30743 0.916113 4.17188 0.969039 4.04561C1.02197 3.91934 1.09951 3.80487 1.19715 3.70889C1.29479 3.6129 1.41056 3.53733 1.53772 3.48657C1.66488 3.43581 1.80088 3.41088 1.93777 3.41324H30.0622C30.1991 3.41088 30.3351 3.43581 30.4623 3.48657C30.5894 3.53733 30.7052 3.6129 30.8028 3.70889C30.9005 3.80487 30.978 3.91934 31.031 4.04561C31.0839 4.17188 31.1111 4.30743 31.1111 4.44435Z" fill="url(#paint0_linear_868_12253)"/>
<path d="M3.64445 16.0002L8.97779 20.4802C9.05288 20.5397 9.14306 20.5771 9.23822 20.5882C9.33338 20.5993 9.42975 20.5837 9.51651 20.5431C9.60328 20.5024 9.67702 20.4385 9.72945 20.3583C9.78188 20.2781 9.81093 20.1849 9.81334 20.0891V18.1335H31.0756V15.1113H3.96445C3.86442 15.118 3.76851 15.1537 3.68846 15.2141C3.6084 15.2744 3.54768 15.3568 3.51372 15.4511C3.47976 15.5454 3.47404 15.6476 3.49726 15.7451C3.52048 15.8427 3.57163 15.9313 3.64445 16.0002Z" fill="#FFE452"/>
<path d="M28.8711 11.484L23.3422 7.00404C23.2671 6.94454 23.1769 6.90715 23.0818 6.89605C22.9866 6.88495 22.8903 6.90059 22.8035 6.9412C22.7167 6.98182 22.643 7.0458 22.5906 7.12599C22.5381 7.20617 22.5091 7.29938 22.5067 7.39515V9.35071H0.888885V12.444H28.5511C28.6697 12.4594 28.7899 12.433 28.8912 12.3695C28.9924 12.3059 29.0685 12.2092 29.1063 12.0958C29.1441 11.9823 29.1413 11.8593 29.0984 11.7477C29.0555 11.6361 28.9752 11.5429 28.8711 11.484Z" fill="white"/>
<defs>
<linearGradient id="paint0_linear_868_12253" x1="16" y1="1.43991" x2="16" y2="37.831" gradientUnits="userSpaceOnUse">
<stop stop-color="#FFD70F"/>
<stop offset="0.34" stop-color="#EEB309"/>
<stop offset="0.77" stop-color="#DC8C03"/>
<stop offset="1" stop-color="#D57D01"/>
</linearGradient>
</defs>
</svg>
