<svg width="32" height="32" viewBox="0 0 32 32" fill="none" xmlns="http://www.w3.org/2000/svg">
<path d="M12.48 1.10352H25.3351C26.1595 1.10352 26.9704 1.31235 27.6922 1.71052C28.414 2.10869 29.0232 2.68323 29.4629 3.38052C29.9027 4.07781 30.1586 4.87512 30.2068 5.69807C30.255 6.52101 30.094 7.34275 29.7387 8.08663L29.9787 7.61018L25.5111 16.5453L25.472 16.6253L24.7734 18.0208L25.472 16.6235C25.0666 17.4344 24.4434 18.1164 23.6722 18.593C22.9011 19.0697 22.0124 19.3221 21.1058 19.3222H13.3867L7.92003 30.2537C7.82348 30.4469 7.67505 30.6094 7.49136 30.7229C7.30766 30.8365 7.09598 30.8966 6.88003 30.8966C6.66408 30.8966 6.45239 30.8365 6.2687 30.7229C6.08501 30.6094 5.93658 30.4469 5.84003 30.2537L2.02136 22.6093C1.8594 22.29 1.77589 21.9367 1.77774 21.5787C1.7796 21.2206 1.86677 20.8682 2.03203 20.5506L6.23647 12.1417C6.43008 11.7555 6.72733 11.4307 7.09498 11.2037C7.46263 10.9767 7.88618 10.8564 8.31825 10.8564H24.4285C23.5292 10.0131 22.3404 9.5473 21.1076 9.55507H9.42225C9.22387 9.55483 9.02885 9.5039 8.85567 9.40713C8.6825 9.31036 8.53692 9.17096 8.43274 9.00213C8.32856 8.83331 8.26924 8.64068 8.26041 8.44249C8.25157 8.24431 8.29351 8.04716 8.38225 7.86974L11.4383 1.74529C11.5354 1.55232 11.6843 1.39013 11.8682 1.27681C12.0522 1.16349 12.264 1.10349 12.48 1.10352Z" fill="white"/>
<mask id="mask0_868_12252" style="mask-type:luminance" maskUnits="userSpaceOnUse" x="1" y="1" width="30" height="30">
<path d="M12.48 1.10352H25.3351C26.1595 1.10352 26.9704 1.31235 27.6922 1.71052C28.414 2.10869 29.0232 2.68323 29.4629 3.38052C29.9027 4.07781 30.1586 4.87512 30.2068 5.69807C30.255 6.52101 30.094 7.34275 29.7387 8.08663L29.9787 7.61018L25.5111 16.5453L25.472 16.6253L24.7734 18.0208L25.472 16.6235C25.0666 17.4344 24.4434 18.1164 23.6722 18.593C22.9011 19.0697 22.0124 19.3221 21.1058 19.3222H13.3867L7.92003 30.2537C7.82348 30.4469 7.67505 30.6094 7.49136 30.7229C7.30766 30.8365 7.09598 30.8966 6.88003 30.8966C6.66408 30.8966 6.45239 30.8365 6.2687 30.7229C6.08501 30.6094 5.93658 30.4469 5.84003 30.2537L2.02136 22.6093C1.8594 22.29 1.77589 21.9367 1.77774 21.5787C1.7796 21.2206 1.86677 20.8682 2.03203 20.5506L6.23647 12.1417C6.43008 11.7555 6.72733 11.4307 7.09498 11.2037C7.46263 10.9767 7.88618 10.8564 8.31825 10.8564H24.4285C23.5292 10.0131 22.3404 9.5473 21.1076 9.55507H9.42225C9.22387 9.55483 9.02885 9.5039 8.85567 9.40713C8.6825 9.31036 8.53692 9.17096 8.43274 9.00213C8.32856 8.83331 8.26924 8.64068 8.26041 8.44249C8.25157 8.24431 8.29351 8.04716 8.38225 7.86974L11.4383 1.74529C11.5354 1.55232 11.6843 1.39013 11.8682 1.27681C12.0522 1.16349 12.264 1.10349 12.48 1.10352Z" fill="white"/>
</mask>
<g mask="url(#mask0_868_12252)">
<path d="M4.05871 19.3223H13.3867L7.92004 30.2538C7.82321 30.4469 7.67457 30.6093 7.49075 30.7227C7.30693 30.8362 7.09517 30.8963 6.87915 30.8963C6.66314 30.8963 6.45138 30.8362 6.26756 30.7227C6.08374 30.6093 5.9351 30.4469 5.83827 30.2538L2.02138 22.6094C1.84925 22.2625 1.76847 21.8775 1.7867 21.4907C1.80493 21.1039 1.92156 20.7282 2.12556 20.399C2.32955 20.0699 2.61415 19.7983 2.95244 19.6098C3.29072 19.4214 3.67149 19.3224 4.05871 19.3223Z" fill="url(#paint0_linear_868_12252)"/>
<path d="M12.4783 1.10352H25.3352C26.167 1.10337 26.985 1.31583 27.7116 1.72075C28.4382 2.12566 29.0492 2.70958 29.4867 3.41706C29.9241 4.12454 30.1735 4.9321 30.2111 5.76305C30.2486 6.59401 30.0732 7.42077 29.7014 8.16485L25.5094 16.5453L25.4721 16.6253L24.7734 18.0208L25.5094 16.5453C25.8651 15.8016 26.0265 14.9799 25.9786 14.1569C25.9307 13.3339 25.675 12.5365 25.2354 11.8391C24.7958 11.1417 24.1867 10.5671 23.4648 10.1689C22.743 9.77075 21.932 9.56201 21.1076 9.56218H9.42228C9.2239 9.56194 9.02887 9.51101 8.8557 9.41424C8.68253 9.31747 8.53695 9.17807 8.43277 9.00925C8.32859 8.84042 8.26927 8.64779 8.26043 8.44961C8.2516 8.25142 8.29354 8.05427 8.38228 7.87685L11.4383 1.74529C11.5353 1.55259 11.6839 1.39057 11.8675 1.27727C12.0511 1.16397 12.2625 1.10382 12.4783 1.10352Z" fill="url(#paint1_linear_868_12252)"/>
<path d="M12.4783 1.10352H25.3352C26.167 1.10337 26.985 1.31583 27.7116 1.72075C28.4382 2.12566 29.0492 2.70958 29.4867 3.41706C29.9241 4.12454 30.1735 4.9321 30.2111 5.76305C30.2486 6.59401 30.0732 7.42077 29.7014 8.16485L25.5005 16.5648L25.4703 16.6253L25.0987 17.3702L25.5005 16.5648C25.8598 15.821 26.0244 14.9981 25.9789 14.1733C25.9334 13.3485 25.6792 12.5487 25.2403 11.8489C24.8013 11.1491 24.1918 10.5722 23.469 10.1723C22.7462 9.77232 21.9337 9.5624 21.1076 9.56218H9.42228C9.2239 9.56194 9.02887 9.51101 8.8557 9.41424C8.68253 9.31747 8.53695 9.17807 8.43277 9.00925C8.32859 8.84042 8.26927 8.64779 8.26043 8.44961C8.2516 8.25142 8.29354 8.05427 8.38228 7.87685L11.4383 1.74529C11.5353 1.55259 11.6839 1.39057 11.8675 1.27727C12.0511 1.16397 12.2625 1.10382 12.4783 1.10352Z" fill="url(#paint2_linear_868_12252)"/>
<path d="M21.1058 19.4522H4.08892C3.65684 19.4523 3.2333 19.5725 2.86565 19.7995C2.498 20.0265 2.20075 20.3513 2.00714 20.7376L6.23647 12.2789C6.43008 11.8926 6.72733 11.5678 7.09498 11.3408C7.46263 11.1138 7.88618 10.9936 8.31825 10.9936H25.3351C26.239 10.9923 27.1246 10.7399 27.8934 10.2647C28.6622 9.78942 29.2838 9.10994 29.6889 8.30201L29.9716 7.74023L25.4649 16.7536C25.06 17.5634 24.4379 18.2446 23.6681 18.7212C22.8983 19.1978 22.0112 19.4509 21.1058 19.4522Z" fill="black" fill-opacity="0.24"/>
<path d="M21.1058 19.9727H4.08892C3.65684 19.9728 3.2333 20.093 2.86565 20.32C2.498 20.547 2.20075 20.8718 2.00714 21.2581L6.23647 12.7994C6.43008 12.4131 6.72733 12.0883 7.09498 11.8614C7.46263 11.6344 7.88618 11.5141 8.31825 11.5141H25.3351C26.239 11.5128 27.1246 11.2605 27.8934 10.7852C28.6622 10.3099 29.2838 9.63044 29.6889 8.82252L29.9716 8.26074L25.4649 17.2741C25.06 18.0839 24.4379 18.7651 23.6681 19.2417C22.8983 19.7183 22.0112 19.9714 21.1058 19.9727Z" fill="black" fill-opacity="0.32"/>
<path d="M21.1058 19.3219H4.08892C3.65684 19.3219 3.2333 19.4422 2.86565 19.6692C2.498 19.8962 2.20075 20.221 2.00714 20.6072L6.23647 12.1486C6.43008 11.7623 6.72733 11.4375 7.09498 11.2105C7.46263 10.9835 7.88618 10.8633 8.31825 10.8632H25.3351C26.2384 10.8625 27.1237 10.6109 27.8924 10.1366C28.6611 9.66234 29.2831 8.98394 29.6889 8.17701L29.9716 7.61523L25.4649 16.6286C25.0593 17.4374 24.4369 18.1175 23.6671 18.5931C22.8974 19.0687 22.0106 19.321 21.1058 19.3219Z" fill="url(#paint3_linear_868_12252)"/>
<path opacity="0.7" d="M21.0969 19.3221H4.10137C3.66929 19.3221 3.24575 19.4424 2.8781 19.6693C2.51045 19.8963 2.2132 20.2211 2.01959 20.6074L6.24893 12.1487C6.44254 11.7625 6.73979 11.4377 7.10743 11.2107C7.47508 10.9837 7.89863 10.8635 8.3307 10.8634H25.4223C26.2993 10.8635 27.1591 10.6203 27.9061 10.1608C28.6531 9.7013 29.258 9.04355 29.6534 8.26074L25.4596 16.627C25.0543 17.4369 24.4315 18.118 23.661 18.594C22.8904 19.07 22.0026 19.3221 21.0969 19.3221Z" fill="url(#paint4_linear_868_12252)"/>
</g>
<defs>
<linearGradient id="paint0_linear_868_12252" x1="7.00982" y1="18.4316" x2="10.2632" y2="30.7943" gradientUnits="userSpaceOnUse">
<stop stop-color="#159455"/>
<stop offset="1" stop-color="#3FBDA9"/>
</linearGradient>
<linearGradient id="paint1_linear_868_12252" x1="8.85339" y1="2.12574" x2="27.7281" y2="10.5168" gradientUnits="userSpaceOnUse">
<stop stop-color="#23A794"/>
<stop offset="0.568" stop-color="#007A84"/>
<stop offset="1" stop-color="#005158"/>
</linearGradient>
<linearGradient id="paint2_linear_868_12252" x1="22.1441" y1="14.4688" x2="18.7272" y2="5.52307" gradientUnits="userSpaceOnUse">
<stop stop-color="#004A8B"/>
<stop offset="0.406" stop-color="#105DA8" stop-opacity="0.5"/>
<stop offset="1" stop-color="#2170C6" stop-opacity="0"/>
</linearGradient>
<linearGradient id="paint3_linear_868_12252" x1="7.37959" y1="9.84279" x2="24.4587" y2="18.3015" gradientUnits="userSpaceOnUse">
<stop stop-color="#7FD9A2"/>
<stop offset="0.196" stop-color="#47BF79"/>
<stop offset="0.714" stop-color="#009280"/>
<stop offset="1" stop-color="#007A84"/>
</linearGradient>
<linearGradient id="paint4_linear_868_12252" x1="7.25337" y1="10.1416" x2="11.1574" y2="12.0936" gradientUnits="userSpaceOnUse">
<stop stop-color="#A8E47C" stop-opacity="0.86"/>
<stop offset="0.367" stop-color="#87D152" stop-opacity="0.2"/>
<stop offset="1" stop-color="#58BE5A" stop-opacity="0"/>
</linearGradient>
</defs>
</svg>
