<svg width="32" height="32" viewBox="0 0 32 32" fill="none" xmlns="http://www.w3.org/2000/svg">
<g clip-path="url(#clip0_853_6022)">
<path d="M25.2089 11.5371H17.1556C15.4886 11.6292 13.9072 12.3048 12.6883 13.4457C11.4695 14.5866 10.6909 16.1199 10.4889 17.7771H13.0133C13.2071 16.8068 13.7203 15.9293 14.4711 15.2848C15.222 14.6403 16.1671 14.266 17.1556 14.2216H25.2089C26.4211 14.2905 27.557 14.8354 28.3693 15.7377C29.1817 16.64 29.6049 17.8266 29.5467 19.0393C29.605 20.2539 29.1824 21.4425 28.3705 22.3476C27.5585 23.2527 26.4226 23.8015 25.2089 23.8749H17.1556C16.1671 23.8305 15.222 23.4561 14.4711 22.8116C13.7203 22.1671 13.2071 21.2897 13.0133 20.3193H10.4889C10.6674 21.9958 11.4358 23.5543 12.6568 24.7168C13.8779 25.8793 15.4723 26.5701 17.1556 26.666H25.2089C27.1114 26.5558 28.8931 25.6977 30.1653 24.279C31.4375 22.8602 32.0971 20.9958 32 19.0927C32.0922 17.1925 31.4305 15.3327 30.1588 13.9178C28.887 12.5029 27.1081 11.6473 25.2089 11.5371Z" fill="url(#paint0_linear_853_6022)"/>
<path d="M14.8445 17.7784H6.79112C6.18611 17.7444 5.59377 17.5913 5.04805 17.3279C4.50234 17.0645 4.01399 16.6959 3.611 16.2434C3.20801 15.7908 2.89831 15.2632 2.69965 14.6907C2.50099 14.1183 2.41729 13.5122 2.45334 12.9073C2.395 11.6928 2.81759 10.5042 3.62954 9.59904C4.44149 8.69392 5.5774 8.14519 6.79112 8.07176H14.8445C15.8329 8.1162 16.7781 8.49054 17.5289 9.13502C18.2797 9.77951 18.793 10.657 18.9867 11.6273H21.5111C21.3208 9.96046 20.5473 8.41455 19.3273 7.2629C18.1074 6.11125 16.5195 5.42801 14.8445 5.33398H6.79112C4.88865 5.44416 3.10695 6.30224 1.83471 7.72102C0.562474 9.13979 -0.0970539 11.0041 8.45362e-06 12.9073C-0.0922172 14.8075 0.56949 16.6673 1.84123 18.0822C3.11297 19.4971 4.89189 20.3527 6.79112 20.4629H14.8445C16.5114 20.3708 18.0928 19.6951 19.3117 18.5543C20.5305 17.4134 21.3091 15.8801 21.5111 14.2229H18.9867C18.793 15.1932 18.2797 16.0707 17.5289 16.7152C16.7781 17.3597 15.8329 17.734 14.8445 17.7784Z" fill="url(#paint1_linear_853_6022)"/>
<path d="M14.8444 17.7782H9.51111V20.516H14.8444C16.5195 20.422 18.1074 19.7387 19.3273 18.5871C20.5473 17.4354 21.3208 15.8895 21.5111 14.2227H18.9867C18.7929 15.193 18.2797 16.0705 17.5289 16.715C16.778 17.3594 15.8329 17.7338 14.8444 17.7782Z" fill="url(#paint2_linear_853_6022)"/>
</g>
<defs>
<linearGradient id="paint0_linear_853_6022" x1="21.2444" y1="26.666" x2="21.2444" y2="11.5371" gradientUnits="userSpaceOnUse">
<stop stop-color="#5E9624"/>
<stop offset="0.01" stop-color="#5E9724"/>
<stop offset="0.35" stop-color="#6CAB29"/>
<stop offset="0.68" stop-color="#73B82C"/>
<stop offset="1" stop-color="#76BC2D"/>
</linearGradient>
<linearGradient id="paint1_linear_853_6022" x1="10.7556" y1="20.4629" x2="10.7556" y2="5.33398" gradientUnits="userSpaceOnUse">
<stop stop-color="#0078D4"/>
<stop offset="0.82" stop-color="#5EA0EF"/>
</linearGradient>
<linearGradient id="paint2_linear_853_6022" x1="18.6844" y1="12.1249" x2="14.0978" y2="18.6671" gradientUnits="userSpaceOnUse">
<stop stop-color="#005BA1"/>
<stop offset="0.14" stop-color="#035DA3" stop-opacity="0.97"/>
<stop offset="0.3" stop-color="#0B63AA" stop-opacity="0.88"/>
<stop offset="0.47" stop-color="#196EB6" stop-opacity="0.73"/>
<stop offset="0.65" stop-color="#2D7CC6" stop-opacity="0.52"/>
<stop offset="0.84" stop-color="#468EDB" stop-opacity="0.26"/>
<stop offset="1" stop-color="#5EA0EF" stop-opacity="0"/>
</linearGradient>
<clipPath id="clip0_853_6022">
<rect width="32" height="32" fill="white"/>
</clipPath>
</defs>
</svg>
