<svg width="32" height="32" viewBox="0 0 32 32" fill="none" xmlns="http://www.w3.org/2000/svg">
<path d="M0.888916 10.293H31.1111V27.1463C31.1111 27.4151 31.0044 27.6728 30.8143 27.8628C30.6243 28.0529 30.3666 28.1596 30.0978 28.1596H1.90225C1.6335 28.1596 1.37575 28.0529 1.18571 27.8628C0.995678 27.6728 0.888916 27.4151 0.888916 27.1463V10.293Z" fill="url(#paint0_linear_853_6012)"/>
<path d="M1.90225 3.85742H30.0978C30.3666 3.85742 30.6243 3.96418 30.8143 4.15422C31.0044 4.34426 31.1111 4.602 31.1111 4.87076V10.293H0.888916V4.85298C0.893577 4.58732 1.00239 4.33412 1.19193 4.14791C1.38146 3.9617 1.63655 3.85738 1.90225 3.85742Z" fill="#005BA1"/>
<path d="M26.56 5.77734H5.4578C5.18288 5.77734 4.96002 6.00021 4.96002 6.27512V7.87512C4.96002 8.15004 5.18288 8.3729 5.4578 8.3729H26.56C26.8349 8.3729 27.0578 8.15004 27.0578 7.87512V6.27512C27.0578 6.00021 26.8349 5.77734 26.56 5.77734Z" fill="#F2F2F2"/>
<path d="M11.8756 16L10.2756 21.3333H8.99558L8.0178 17.7778C7.99809 17.6184 7.99809 17.4572 8.0178 17.2978C8.03791 17.4512 8.03791 17.6066 8.0178 17.76L6.75558 21.3333H5.49335L3.91113 16H5.17336L6.15113 19.8933C6.16517 20.0471 6.16517 20.2018 6.15113 20.3556C6.13592 20.2019 6.13592 20.047 6.15113 19.8933L7.43113 16H8.58669L9.56447 19.9111C9.57708 20.0649 9.57708 20.2195 9.56447 20.3733C9.55118 20.2195 9.55118 20.0649 9.56447 19.9111L10.6667 16H11.8756Z" fill="white"/>
<path d="M20.0533 16L18.4533 21.3333H17.1733L16.1955 17.7778C16.1758 17.6184 16.1758 17.4572 16.1955 17.2978C16.1431 17.4627 16.0777 17.6232 16 17.7778L14.9333 21.3333H13.6889L12.0889 16H13.3511L14.3466 19.8933C14.3595 20.0471 14.3595 20.2017 14.3466 20.3556C14.3466 20.2133 14.3466 20.0533 14.4355 19.8933L15.6266 16H16.7644L17.7422 19.9111C17.7548 20.0649 17.7548 20.2195 17.7422 20.3733C17.7289 20.2195 17.7289 20.0649 17.7422 19.9111L18.8978 16H20.0533Z" fill="white"/>
<path d="M28.2489 16L26.6667 21.3333H25.3867L24.3733 17.7778C24.3621 17.618 24.3621 17.4576 24.3733 17.2978C24.3643 17.4551 24.3344 17.6105 24.2844 17.76L23.1111 21.3333H21.8667L20.2667 16H21.5467L22.5244 19.8933C22.5385 20.0471 22.5385 20.2018 22.5244 20.3556C22.5086 20.2019 22.5086 20.047 22.5244 19.8933L23.8044 16H24.8889L25.8489 19.9111C25.8615 20.0649 25.8615 20.2195 25.8489 20.3733C25.8368 20.2195 25.8368 20.0649 25.8489 19.9111L27.0756 16H28.2489Z" fill="white"/>
<defs>
<linearGradient id="paint0_linear_853_6012" x1="16" y1="28.1419" x2="16" y2="10.293" gradientUnits="userSpaceOnUse">
<stop stop-color="#32BEDD"/>
<stop offset="0.18" stop-color="#32CAEA"/>
<stop offset="0.41" stop-color="#32D2F2"/>
<stop offset="0.78" stop-color="#32D4F5"/>
</linearGradient>
</defs>
</svg>
