<svg width="32" height="32" viewBox="0 0 32 32" fill="none" xmlns="http://www.w3.org/2000/svg">
<path d="M15.2355 15.4488H1.77777V3.87548C1.77775 3.3599 1.98134 2.86517 2.34424 2.49894C2.70714 2.13271 3.19999 1.92461 3.71555 1.91992H15.2355V15.4488ZM3.44888 13.7777H13.5644V3.55548H3.71555C3.64482 3.55548 3.577 3.58357 3.52699 3.63358C3.47698 3.68359 3.44888 3.75142 3.44888 3.82214V13.7777Z" fill="#949494"/>
<path d="M30.2222 15.4488H16.7645V1.91992H28.2845C28.8 1.92461 29.2929 2.13271 29.6558 2.49894C30.0187 2.86517 30.2223 3.3599 30.2222 3.87548V15.4488ZM18.4356 13.7777H28.5511V3.87548C28.5591 3.83628 28.5582 3.79579 28.5485 3.757C28.5387 3.7182 28.5203 3.6821 28.4947 3.65137C28.4691 3.62064 28.4369 3.59607 28.4005 3.57947C28.3641 3.56287 28.3245 3.55467 28.2845 3.55548H18.4356V13.7777Z" fill="#949494"/>
<path d="M15.2355 30.3646H3.71555C3.20468 30.3646 2.71448 30.1629 2.35158 29.8034C1.98868 29.4438 1.78246 28.9555 1.77777 28.4446V16.8535H15.2355V30.3646ZM3.44888 18.5246V28.4446C3.44888 28.5154 3.47698 28.5832 3.52699 28.6332C3.577 28.6832 3.64482 28.7113 3.71555 28.7113H13.5644V18.5246H3.44888Z" fill="#949494"/>
<path d="M28.2845 30.3646H16.7645V16.8535H30.2222V28.4446C30.2176 28.9555 30.0113 29.4438 29.6484 29.8034C29.2855 30.1629 28.7953 30.3646 28.2845 30.3646ZM18.4356 28.6935H28.2845C28.3552 28.6935 28.423 28.6654 28.473 28.6154C28.523 28.5654 28.5511 28.4976 28.5511 28.4268V18.5246H18.4356V28.6935Z" fill="#949494"/>
<path d="M26.08 18.8793C26.054 17.7942 25.6455 16.7532 24.9267 15.94C24.2078 15.1269 23.2248 14.5937 22.1511 14.4348C22.0955 12.9227 21.447 11.4932 20.3459 10.4553C19.2448 9.41736 17.7795 8.85443 16.2667 8.88815C15.0494 8.87515 13.8578 9.23888 12.8553 9.92951C11.8528 10.6201 11.0883 11.6039 10.6667 12.7459C9.37158 12.924 8.18291 13.5596 7.3156 14.5378C6.44829 15.5159 5.95957 16.7721 5.93781 18.0793C5.98887 19.5364 6.61344 20.9144 7.67557 21.9132C8.7377 22.9121 10.1514 23.451 11.6089 23.4126H21.3334H21.5822C22.7698 23.3765 23.8983 22.8862 24.7351 22.0428C25.5719 21.1994 26.0533 20.0671 26.08 18.8793Z" fill="url(#paint0_linear_853_6021)"/>
<defs>
<linearGradient id="paint0_linear_853_6021" x1="16" y1="6.61259" x2="16" y2="26.7015" gradientUnits="userSpaceOnUse">
<stop offset="0.18" stop-color="#5EA0EF"/>
<stop offset="1" stop-color="#0078D4"/>
</linearGradient>
</defs>
</svg>
