<svg width="32" height="32" viewBox="0 0 32 32" fill="none" xmlns="http://www.w3.org/2000/svg">
<g clip-path="url(#clip0_853_6016)">
<path d="M25.2622 27.947C22.0938 30.4035 18.0792 31.5007 14.1018 30.9973C10.1244 30.4938 6.50982 28.431 4.05332 25.2625C1.59683 22.0941 0.499609 18.0796 1.00304 14.1021C1.50647 10.1247 3.56931 6.51013 6.73777 4.05364L6.89777 3.94697C10.0844 1.56832 14.0802 0.54162 18.0188 1.08947C21.9573 1.63732 25.5212 3.71557 27.9377 6.87361C30.3542 10.0316 31.4285 14.0149 30.9277 17.9597C30.4268 21.9046 28.3912 25.493 25.2622 27.947Z" fill="url(#paint0_radial_853_6016)"/>
<path opacity="0.6" d="M11.8933 12.8541C16.1676 8.78892 21.8346 6.51196 27.7333 6.48969C26.9585 5.53116 26.0689 4.67139 25.0845 3.92969C22.2148 4.10671 19.3958 4.76789 16.7467 5.88524C14.0192 7.05679 11.5532 8.76123 9.49335 10.8986C10.4834 11.2744 11.3253 11.9604 11.8933 12.8541Z" fill="white"/>
<path opacity="0.6" d="M4.40887 18.9336C3.79812 20.446 3.30481 22.0032 2.93332 23.5914C3.26154 24.162 3.62988 24.7085 4.03554 25.2269C4.35554 25.6358 4.65776 26.0092 5.01332 26.3825C5.44286 24.2665 6.08616 22.1996 6.93332 20.2136C5.98437 20.0442 5.10635 19.599 4.40887 18.9336Z" fill="white"/>
<path opacity="0.55" d="M6.15112 10.8614C5.52377 9.17782 5.11162 7.42169 4.92446 5.63477C4.17841 6.41832 3.52247 7.28297 2.9689 8.21254C3.16958 9.65227 3.50893 11.0692 3.98224 12.4437C4.53929 11.72 5.29192 11.1709 6.15112 10.8614Z" fill="#F2F2F2"/>
<path d="M7.78665 20.2848C10.4671 20.2848 12.64 18.1119 12.64 15.4315C12.64 12.751 10.4671 10.5781 7.78665 10.5781C5.10623 10.5781 2.93332 12.751 2.93332 15.4315C2.93332 18.1119 5.10623 20.2848 7.78665 20.2848Z" fill="url(#paint1_linear_853_6016)"/>
<path opacity="0.55" d="M14.8622 24.3027C14.8629 23.8813 14.9482 23.4643 15.1131 23.0764C15.278 22.6886 15.5192 22.3378 15.8222 22.0449C14.1833 21.1466 12.6708 20.0347 11.3245 18.7383C10.621 19.4994 9.69303 20.0163 8.67557 20.2138C9.47758 21.0348 10.3392 21.7954 11.2533 22.4894C12.3916 23.3489 13.6124 24.0933 14.8978 24.7116C14.8772 24.5762 14.8653 24.4396 14.8622 24.3027Z" fill="#F2F2F2"/>
<path opacity="0.55" d="M26.0622 24.6763C24.4102 24.6773 22.7636 24.4864 21.1556 24.1074C21.1644 24.1723 21.1644 24.2381 21.1556 24.303C21.1568 24.712 21.0773 25.1172 20.9217 25.4955C20.7661 25.8737 20.5375 26.2176 20.2489 26.5074C22.2497 26.9039 24.2924 27.0472 26.3289 26.9341C27.1189 26.2196 27.8283 25.4208 28.4445 24.5519C27.6535 24.6397 26.8581 24.6812 26.0622 24.6763Z" fill="#F2F2F2"/>
<path d="M18.0089 27.4676C19.7566 27.4676 21.1733 26.0508 21.1733 24.3031C21.1733 22.5554 19.7566 21.1387 18.0089 21.1387C16.2612 21.1387 14.8445 22.5554 14.8445 24.3031C14.8445 26.0508 16.2612 27.4676 18.0089 27.4676Z" fill="url(#paint2_linear_853_6016)"/>
<path opacity="0.7" d="M21.9022 15.8758C22.0592 15.1804 22.4402 14.5558 22.9867 14.098C20.0594 11.9699 17.3975 9.49901 15.0578 6.73799C13.6943 5.13675 12.5026 3.39685 11.5022 1.54688C10.8382 1.74595 10.1904 1.99557 9.56445 2.29354C10.635 4.30787 11.9162 6.20292 13.3867 7.94688C15.8859 10.9323 18.7463 13.5957 21.9022 15.8758Z" fill="#F2F2F2"/>
<path d="M25.2089 19.8391C27.0646 19.8391 28.5689 18.3348 28.5689 16.4791C28.5689 14.6235 27.0646 13.1191 25.2089 13.1191C23.3532 13.1191 21.8489 14.6235 21.8489 16.4791C21.8489 18.3348 23.3532 19.8391 25.2089 19.8391Z" fill="url(#paint3_linear_853_6016)"/>
<path opacity="0.55" d="M30.8445 18.7374L30.2222 18.4352L29.6889 18.1508H29.5822L29.12 17.7774H28.9956L28.4444 17.4219C28.2535 18.0765 27.854 18.6508 27.3067 19.0574C27.52 19.1997 27.7511 19.3241 27.9822 19.4485L28.1244 19.5374L28.7467 19.8752L30.2756 20.6752C30.491 20.0296 30.6632 19.3704 30.7911 18.7019L30.8445 18.7374Z" fill="#F2F2F2"/>
<path d="M7.78665 20.2848C10.4671 20.2848 12.64 18.1119 12.64 15.4315C12.64 12.751 10.4671 10.5781 7.78665 10.5781C5.10623 10.5781 2.93332 12.751 2.93332 15.4315C2.93332 18.1119 5.10623 20.2848 7.78665 20.2848Z" fill="url(#paint4_linear_853_6016)"/>
<path d="M18.0089 27.4676C19.7566 27.4676 21.1733 26.0508 21.1733 24.3031C21.1733 22.5554 19.7566 21.1387 18.0089 21.1387C16.2612 21.1387 14.8445 22.5554 14.8445 24.3031C14.8445 26.0508 16.2612 27.4676 18.0089 27.4676Z" fill="url(#paint5_linear_853_6016)"/>
</g>
<defs>
<radialGradient id="paint0_radial_853_6016" cx="0" cy="0" r="1" gradientUnits="userSpaceOnUse" gradientTransform="translate(15.9849 15.9985) scale(15.112 15.112)">
<stop offset="0.18" stop-color="#5EA0EF"/>
<stop offset="1" stop-color="#0078D4"/>
</radialGradient>
<linearGradient id="paint1_linear_853_6016" x1="7.82221" y1="20.4092" x2="7.76887" y2="13.387" gradientUnits="userSpaceOnUse">
<stop stop-color="#CCCCCC"/>
<stop offset="1" stop-color="#FCFCFC"/>
</linearGradient>
<linearGradient id="paint2_linear_853_6016" x1="18.0089" y1="27.4676" x2="18.0089" y2="21.1564" gradientUnits="userSpaceOnUse">
<stop stop-color="#CCCCCC"/>
<stop offset="1" stop-color="#FCFCFC"/>
</linearGradient>
<linearGradient id="paint3_linear_853_6016" x1="25.2089" y1="19.8214" x2="25.2089" y2="13.1191" gradientUnits="userSpaceOnUse">
<stop stop-color="#CCCCCC"/>
<stop offset="1" stop-color="#FCFCFC"/>
</linearGradient>
<linearGradient id="paint4_linear_853_6016" x1="7.82221" y1="20.4092" x2="7.76887" y2="13.387" gradientUnits="userSpaceOnUse">
<stop stop-color="#CCCCCC"/>
<stop offset="1" stop-color="#FCFCFC"/>
</linearGradient>
<linearGradient id="paint5_linear_853_6016" x1="18.0089" y1="27.4676" x2="18.0089" y2="21.1564" gradientUnits="userSpaceOnUse">
<stop stop-color="#CCCCCC"/>
<stop offset="1" stop-color="#FCFCFC"/>
</linearGradient>
<clipPath id="clip0_853_6016">
<rect width="32" height="32" fill="white"/>
</clipPath>
</defs>
</svg>
