<svg width="32" height="32" viewBox="0 0 32 32" fill="none" xmlns="http://www.w3.org/2000/svg">
<path d="M30.9333 1.35156H1.06667C0.477563 1.35156 0 1.82913 0 2.41823V22.9516C0 23.5407 0.477563 24.0182 1.06667 24.0182H30.9333C31.5224 24.0182 32 23.5407 32 22.9516V2.41823C32 1.82913 31.5224 1.35156 30.9333 1.35156Z" fill="url(#paint0_linear_853_6011)"/>
<path d="M29.6 3.3418H2.39997C2.10542 3.3418 1.86664 3.58058 1.86664 3.87513V21.4751C1.86664 21.7697 2.10542 22.0085 2.39997 22.0085H29.6C29.8945 22.0085 30.1333 21.7697 30.1333 21.4751V3.87513C30.1333 3.58058 29.8945 3.3418 29.6 3.3418Z" fill="white"/>
<path d="M26.56 16.6054C26.5601 16.7391 26.5082 16.8676 26.4153 16.9638C26.3224 17.06 26.1958 17.1163 26.0622 17.121H14.5066C14.3699 17.121 14.2388 17.0666 14.1421 16.97C14.0454 16.8733 13.9911 16.7421 13.9911 16.6054C13.9911 16.4687 14.0454 16.3375 14.1421 16.2408C14.2388 16.1442 14.3699 16.0898 14.5066 16.0898H26.0622C26.1291 16.0898 26.1953 16.1032 26.2569 16.1294C26.3185 16.1555 26.3742 16.1937 26.4206 16.2419C26.4671 16.29 26.5034 16.347 26.5273 16.4094C26.5513 16.4719 26.5624 16.5385 26.56 16.6054Z" fill="#D15900"/>
<path d="M26.56 13.4042C26.5601 13.5379 26.5082 13.6664 26.4153 13.7626C26.3224 13.8588 26.1958 13.9152 26.0622 13.9198H14.5066C14.3699 13.9198 14.2388 13.8655 14.1421 13.7688C14.0454 13.6721 13.9911 13.541 13.9911 13.4042C13.9911 13.2675 14.0454 13.1364 14.1421 13.0397C14.2388 12.943 14.3699 12.8887 14.5066 12.8887H26.0622C26.1291 12.8886 26.1953 12.9021 26.2569 12.9282C26.3185 12.9543 26.3742 12.9926 26.4206 13.0407C26.4671 13.0888 26.5034 13.1458 26.5273 13.2083C26.5513 13.2707 26.5624 13.3374 26.56 13.4042Z" fill="#D15900"/>
<path d="M26.56 8.7636C26.5624 8.83045 26.5513 8.8971 26.5273 8.95956C26.5034 9.02202 26.4671 9.07901 26.4206 9.12713C26.3742 9.17526 26.3185 9.21352 26.2569 9.23964C26.1953 9.26576 26.1291 9.2792 26.0622 9.27916H6.7022C6.6345 9.27916 6.56746 9.26582 6.50491 9.23991C6.44236 9.21401 6.38552 9.17603 6.33765 9.12816C6.28977 9.08028 6.2518 9.02345 6.22589 8.9609C6.19998 8.89835 6.18665 8.83131 6.18665 8.7636C6.18665 8.6959 6.19998 8.62886 6.22589 8.56631C6.2518 8.50376 6.28977 8.44692 6.33765 8.39905C6.38552 8.35118 6.44236 8.3132 6.50491 8.28729C6.56746 8.26138 6.6345 8.24805 6.7022 8.24805H26.0622C26.1291 8.248 26.1953 8.26144 26.2569 8.28756C26.3185 8.31368 26.3742 8.35195 26.4206 8.40007C26.4671 8.44819 26.5034 8.50519 26.5273 8.56765C26.5513 8.63011 26.5624 8.69675 26.56 8.7636Z" fill="#D15900"/>
<path d="M9.12003 22.5605C8.29756 23.3001 7.23057 23.7093 6.12447 23.7093C5.01838 23.7093 3.95138 23.3001 3.12892 22.5605L2.75558 30.0094C2.74658 30.1305 2.77535 30.2514 2.83793 30.3554C2.90052 30.4594 2.99382 30.5414 3.10499 30.5902C3.21616 30.639 3.33972 30.652 3.45863 30.6276C3.57754 30.6032 3.68595 30.5425 3.76892 30.4539L6.08003 28.1072L8.40892 30.4717C8.49092 30.5588 8.59759 30.6187 8.71463 30.6435C8.83168 30.6683 8.9535 30.6567 9.06376 30.6102C9.17402 30.5638 9.26745 30.4848 9.33152 30.3838C9.3956 30.2827 9.42726 30.1645 9.42225 30.045L9.12003 22.5605Z" fill="#B31B1B"/>
<path d="M6.18668 24.1069C9.14202 24.1069 11.5378 21.7032 11.5378 18.738C11.5378 15.7729 9.14202 13.3691 6.18668 13.3691C3.23135 13.3691 0.835571 15.7729 0.835571 18.738C0.835571 21.7032 3.23135 24.1069 6.18668 24.1069Z" fill="#E62323"/>
<path d="M6.18665 22.8082C8.43506 22.8082 10.2578 20.9855 10.2578 18.7371C10.2578 16.4887 8.43506 14.666 6.18665 14.666C3.93824 14.666 2.11554 16.4887 2.11554 18.7371C2.11554 20.9855 3.93824 22.8082 6.18665 22.8082Z" fill="#FFB34D"/>
<defs>
<linearGradient id="paint0_linear_853_6011" x1="16" y1="24.0182" x2="16" y2="1.35156" gradientUnits="userSpaceOnUse">
<stop stop-color="#F78D1E"/>
<stop offset="0.44" stop-color="#F8911E"/>
<stop offset="0.85" stop-color="#F99C1D"/>
<stop offset="1" stop-color="#FAA21D"/>
</linearGradient>
</defs>
</svg>
