<svg width="32" height="32" viewBox="0 0 32 32" fill="none" xmlns="http://www.w3.org/2000/svg">
<g clip-path="url(#clip0_853_6010)">
<path d="M18.7733 30.0977C18.7757 30.2315 18.7512 30.3643 18.7011 30.4883C18.651 30.6124 18.5765 30.725 18.4819 30.8196C18.3873 30.9142 18.2746 30.9888 18.1506 31.0388C18.0266 31.0889 17.8937 31.1135 17.76 31.1111H2.02666C1.89441 31.1111 1.76348 31.0847 1.64153 31.0336C1.51957 30.9825 1.40902 30.9075 1.31633 30.8132C1.22365 30.7189 1.15069 30.607 1.10172 30.4842C1.05275 30.3613 1.02874 30.2299 1.0311 30.0977V1.90217C1.02874 1.76994 1.05275 1.63857 1.10172 1.51572C1.15069 1.39288 1.22365 1.28102 1.31633 1.18668C1.40902 1.09235 1.51957 1.01742 1.64153 0.96628C1.76348 0.91514 1.89441 0.888812 2.02666 0.888834H17.7778C17.9115 0.886423 18.0444 0.910987 18.1684 0.961059C18.2924 1.01113 18.4051 1.08568 18.4997 1.18026C18.5943 1.27484 18.6688 1.38752 18.7189 1.51155C18.7689 1.63558 18.7935 1.76843 18.7911 1.90217L18.7733 30.0977Z" fill="url(#paint0_linear_853_6010)"/>
<path d="M3.55554 11.4846C3.55526 11.2248 3.60771 10.9676 3.70971 10.7287C3.81171 10.4897 3.96114 10.274 4.14895 10.0945C4.33676 9.91499 4.55905 9.77547 4.80235 9.68439C5.04566 9.5933 5.30492 9.55253 5.56443 9.56456H14.4533C14.9532 9.57845 15.428 9.78685 15.7766 10.1454C16.1252 10.504 16.3202 10.9845 16.32 11.4846C16.3223 11.7382 16.2744 11.9898 16.179 12.2248C16.0835 12.4598 15.9425 12.6735 15.764 12.8537C15.5854 13.0339 15.373 13.1769 15.1389 13.2745C14.9048 13.3721 14.6536 13.4223 14.4 13.4223H5.5111C5.25513 13.4247 5.00124 13.3763 4.76408 13.28C4.52692 13.1836 4.3112 13.0413 4.12938 12.8611C3.94755 12.6809 3.80322 12.4665 3.70473 12.2302C3.60624 11.994 3.55553 11.7405 3.55554 11.4846Z" fill="#003067"/>
<path d="M3.55554 5.7594C3.55537 5.49883 3.60774 5.2409 3.70954 5.00104C3.81134 4.76118 3.96047 4.54431 4.14801 4.36341C4.33555 4.18251 4.55765 4.04129 4.80102 3.9482C5.04439 3.85511 5.30404 3.81206 5.56443 3.82162H14.4533C14.9563 3.83557 15.4338 4.04644 15.7829 4.40884C16.132 4.77125 16.3248 5.25622 16.32 5.7594C16.32 6.26861 16.1177 6.75697 15.7576 7.11704C15.3976 7.47711 14.9092 7.6794 14.4 7.6794H5.5111C5.25598 7.68412 5.00249 7.63795 4.76542 7.54358C4.52836 7.44921 4.31248 7.30853 4.13041 7.12977C3.94834 6.95101 3.80372 6.73775 3.70502 6.50245C3.60631 6.26716 3.5555 6.01455 3.55554 5.7594Z" fill="#003067"/>
<path d="M5.63555 7.05845C6.35229 7.05845 6.93332 6.47741 6.93332 5.76067C6.93332 5.04393 6.35229 4.46289 5.63555 4.46289C4.9188 4.46289 4.33777 5.04393 4.33777 5.76067C4.33777 6.47741 4.9188 7.05845 5.63555 7.05845Z" fill="#50E6FF"/>
<path d="M5.63555 12.7831C6.35229 12.7831 6.93332 12.202 6.93332 11.4853C6.93332 10.7685 6.35229 10.1875 5.63555 10.1875C4.9188 10.1875 4.33777 10.7685 4.33777 11.4853C4.33777 12.202 4.9188 12.7831 5.63555 12.7831Z" fill="#50E6FF"/>
<path d="M30.9689 25.5647C30.9322 24.2591 30.436 23.0084 29.5677 22.0328C28.6994 21.0571 27.5147 20.4192 26.2222 20.2313C26.1618 18.397 25.382 16.6601 24.0514 15.3959C22.7208 14.1318 20.9461 13.4421 19.1111 13.4758C17.6242 13.4531 16.1677 13.8972 14.9463 14.7454C13.7249 15.5937 12.8002 16.8035 12.3022 18.2047C10.7426 18.4084 9.30757 19.1642 8.25737 20.3351C7.20716 21.5059 6.61127 23.0144 6.57776 24.5869C6.62433 26.3615 7.37302 28.0451 8.65954 29.2683C9.94606 30.4915 11.6653 31.1543 13.44 31.1113H14.0444H25.1733H25.4755C26.933 31.0836 28.3222 30.4887 29.348 29.453C30.3738 28.4172 30.9552 27.0223 30.9689 25.5647Z" fill="url(#paint1_linear_853_6010)"/>
</g>
<defs>
<linearGradient id="paint0_linear_853_6010" x1="9.90221" y1="31.1111" x2="9.90221" y2="0.888834" gradientUnits="userSpaceOnUse">
<stop offset="0.05" stop-color="#949494"/>
<stop offset="0.36" stop-color="#979797"/>
<stop offset="0.54" stop-color="#9F9F9F"/>
<stop offset="0.69" stop-color="#ADADAD"/>
<stop offset="0.73" stop-color="#B3B3B3"/>
</linearGradient>
<linearGradient id="paint1_linear_853_6010" x1="18.7733" y1="10.7025" x2="18.7733" y2="35.0402" gradientUnits="userSpaceOnUse">
<stop offset="0.18" stop-color="#5EA0EF"/>
<stop offset="1" stop-color="#0078D4"/>
</linearGradient>
<clipPath id="clip0_853_6010">
<rect width="32" height="32" fill="white"/>
</clipPath>
</defs>
</svg>
