<svg width="32" height="32" viewBox="0 0 32 32" fill="none" xmlns="http://www.w3.org/2000/svg">
<g clip-path="url(#clip0_853_6019)">
<path d="M16.432 6.98069L24.2044 11.4518L29.6231 8.32291C28.4354 6.21146 26.7732 4.40497 24.7677 3.04607C22.7621 1.68717 20.4682 0.81305 18.0669 0.492717C15.6656 0.172384 13.2227 0.414608 10.9311 1.20027C8.63947 1.98593 6.56184 3.29351 4.86221 5.0198C8.82959 4.34777 12.9076 5.03893 16.432 6.98069Z" fill="url(#paint0_linear_853_6019)"/>
<path d="M24.1031 11.4527L23.9804 22.1798L29.6124 23.6927C30.7792 21.6339 31.4633 19.337 31.613 16.9753C31.7628 14.6136 31.3743 12.2487 30.477 10.059C29.5796 7.86934 28.1967 5.91199 26.4326 4.33461C24.6686 2.75723 22.5694 1.601 20.2933 0.953125C22.611 3.97888 23.9412 7.64471 24.1031 11.4527Z" fill="#0078D4"/>
<path d="M24.0924 20.7025L16 25.378L16.1262 31.6002C20.2643 31.5833 24.2271 29.9276 27.1472 26.9955C30.0672 24.0634 31.7067 20.0939 31.7067 15.9558C31.6922 14.7007 31.5202 13.4524 31.1947 12.2402C29.8341 15.7723 27.335 18.75 24.0924 20.7025Z" fill="#5EA0EF"/>
<path d="M16 25.3787L7.90221 20.7031L2.53333 23.9245C3.72731 25.9628 5.36838 27.7035 7.33286 29.0155C9.29734 30.3274 11.534 31.1764 13.8742 31.4984C16.2145 31.8203 18.5973 31.6069 20.8431 30.8742C23.0888 30.1415 25.139 28.9086 26.8391 27.2685C23.117 27.8121 19.3186 27.1498 16 25.3787Z" fill="url(#paint1_linear_853_6019)"/>
<path d="M7.89689 20.7038L8.01956 9.61581L2.47823 8.15625C1.08776 10.5363 0.355178 13.2433 0.35556 15.9998C0.370966 19.443 1.51587 22.786 3.61456 25.5158C5.71325 28.2455 8.64974 30.2111 11.9733 31.1109C9.55168 28.1582 8.12494 24.5158 7.89689 20.7038Z" fill="#0078D4"/>
<path d="M8.17778 11.1998L16 6.67887C12.7707 4.92488 9.09825 4.15541 5.43644 4.46554C3.83235 5.92775 2.55171 7.7092 1.67671 9.69555C0.801717 11.6819 0.351703 13.8292 0.355554 15.9998C0.361522 17.393 0.549178 18.7795 0.913777 20.1242C2.30763 16.4429 4.85607 13.3119 8.17778 11.1998Z" fill="#5EA0EF"/>
<path d="M24.0924 20.7046V11.3535L15.9947 6.67969L7.89688 11.3535V20.7046L15.9947 25.3801L24.0924 20.7046Z" fill="#C3F1FF"/>
<path d="M16.0053 16.1261V25.3794L7.89688 20.7039V11.3848L16.0053 16.1261Z" fill="url(#paint2_linear_853_6019)"/>
<path d="M15.9947 16.1261V25.3794L24.1031 20.7039V11.3848L15.9947 16.1261Z" fill="#50E6FF"/>
</g>
<defs>
<linearGradient id="paint0_linear_853_6019" x1="-22.8728" y1="5.95353" x2="39.8025" y2="5.90387" gradientUnits="userSpaceOnUse">
<stop stop-color="#005BA1"/>
<stop offset="0.366" stop-color="#004E8F"/>
<stop offset="1" stop-color="#003067"/>
</linearGradient>
<linearGradient id="paint1_linear_853_6019" x1="53.0862" y1="25.8902" x2="-23.6567" y2="26.3025" gradientUnits="userSpaceOnUse">
<stop stop-color="#005BA1"/>
<stop offset="0.451" stop-color="#004685"/>
<stop offset="1" stop-color="#003067"/>
</linearGradient>
<linearGradient id="paint2_linear_853_6019" x1="10.672" y1="25.6834" x2="13.2391" y2="11.0292" gradientUnits="userSpaceOnUse">
<stop offset="0.26" stop-color="#50E6FF"/>
<stop offset="0.42" stop-color="#79EAFF"/>
<stop offset="0.58" stop-color="#99EDFF"/>
<stop offset="0.733" stop-color="#B0EFFF"/>
<stop offset="0.876" stop-color="#BEF1FF"/>
<stop offset="1" stop-color="#C3F1FF"/>
</linearGradient>
<clipPath id="clip0_853_6019">
<rect width="32" height="32" fill="white"/>
</clipPath>
</defs>
</svg>
