<svg width="32" height="32" viewBox="0 0 32 32" fill="none" xmlns="http://www.w3.org/2000/svg">
<g clip-path="url(#clip0_853_6017)">
<path d="M13.04 13.0611H3.43109C3.29624 13.0611 3.16692 13.0075 3.07157 12.9122C2.97621 12.8168 2.92265 12.6875 2.92265 12.5526V3.4522C2.92265 3.31736 2.97621 3.18803 3.07157 3.09268C3.16692 2.99733 3.29624 2.94376 3.43109 2.94376H12.5315C12.6664 2.94376 12.7957 2.99733 12.8911 3.09268C12.9864 3.18803 13.04 3.31736 13.04 3.4522V13.0611ZM15.0755 15.0949V1.42198C15.076 1.35483 15.0632 1.28824 15.0379 1.22605C15.0126 1.16385 14.9752 1.10726 14.928 1.05953C14.8807 1.0118 14.8246 0.973858 14.7626 0.94789C14.7007 0.921922 14.6342 0.908435 14.5671 0.908203H1.39731C1.33016 0.908435 1.26371 0.921922 1.20178 0.94789C1.13985 0.973858 1.08366 1.0118 1.03642 1.05953C0.989181 1.10726 0.951832 1.16385 0.926512 1.22605C0.901192 1.28824 0.888399 1.35483 0.888867 1.42198V14.5864C0.888867 14.7213 0.942436 14.8506 1.03779 14.9459C1.13314 15.0413 1.26246 15.0949 1.39731 15.0949H15.0755Z" fill="url(#paint0_linear_853_6017)"/>
<path d="M18.96 13.0614V3.46144C18.96 3.32659 19.0136 3.19727 19.1089 3.10192C19.2043 3.00657 19.3336 2.953 19.4684 2.953H28.5689C28.6357 2.953 28.7018 2.96615 28.7635 2.9917C28.8251 3.01725 28.8812 3.0547 28.9284 3.10192C28.9756 3.14913 29.0131 3.20518 29.0386 3.26687C29.0642 3.32856 29.0773 3.39467 29.0773 3.46144V12.553C29.0773 12.6198 29.0642 12.6859 29.0386 12.7476C29.0131 12.8093 28.9756 12.8653 28.9284 12.9125C28.8812 12.9597 28.8251 12.9972 28.7635 13.0227C28.7018 13.0483 28.6357 13.0614 28.5689 13.0614H18.96ZM16.9244 15.0952H30.6027C30.7375 15.0952 30.8668 15.0417 30.9622 14.9463C31.0575 14.8509 31.1111 14.7216 31.1111 14.5868V1.42233C31.1111 1.28732 31.0576 1.15781 30.9623 1.06218C30.867 0.966543 30.7377 0.91258 30.6027 0.912109H17.4329C17.2979 0.91258 17.1686 0.966543 17.0732 1.06218C16.9779 1.15781 16.9244 1.28732 16.9244 1.42233V15.0952Z" fill="url(#paint1_linear_853_6017)"/>
<path d="M18.96 18.9381H28.5689C28.6357 18.9381 28.7018 18.9512 28.7635 18.9768C28.8251 19.0023 28.8812 19.0398 28.9284 19.087C28.9756 19.1342 29.0131 19.1903 29.0386 19.2519C29.0642 19.3136 29.0773 19.3797 29.0773 19.4465V28.547C29.0773 28.6137 29.0642 28.6799 29.0386 28.7415C29.0131 28.8032 28.9756 28.8593 28.9284 28.9065C28.8812 28.9537 28.8251 28.9912 28.7635 29.0167C28.7018 29.0423 28.6357 29.0554 28.5689 29.0554H19.4684C19.3336 29.0554 19.2043 29.0018 19.1089 28.9065C19.0136 28.8111 18.96 28.6818 18.96 28.547V18.947M16.9244 16.9043V30.5772C16.9244 30.7122 16.9779 30.8417 17.0732 30.9373C17.1686 31.033 17.2979 31.0869 17.4329 31.0874H30.6027C30.7377 31.0869 30.867 31.033 30.9623 30.9373C31.0576 30.8417 31.1111 30.7122 31.1111 30.5772V17.4216C31.1111 17.2868 31.0575 17.1575 30.9622 17.0621C30.8668 16.9668 30.7375 16.9132 30.6027 16.9132L16.9244 16.9043Z" fill="url(#paint2_linear_853_6017)"/>
<path d="M13.04 18.9381V28.5381C13.04 28.6048 13.0268 28.671 13.0013 28.7326C12.9757 28.7943 12.9383 28.8504 12.8911 28.8976C12.8439 28.9448 12.7878 28.9823 12.7261 29.0078C12.6644 29.0334 12.5983 29.0465 12.5315 29.0465H3.43109C3.36432 29.0465 3.29821 29.0334 3.23652 29.0078C3.17483 28.9823 3.11878 28.9448 3.07157 28.8976C3.02436 28.8504 2.9869 28.7943 2.96135 28.7326C2.9358 28.671 2.92265 28.6048 2.92265 28.5381V19.4465C2.92265 19.3117 2.97622 19.1823 3.07157 19.087C3.16692 18.9916 3.29625 18.9381 3.43109 18.9381H13.04ZM15.0755 16.9043H1.39732C1.32979 16.9043 1.26294 16.9177 1.20067 16.9438C1.13839 16.9699 1.08194 17.0082 1.03461 17.0563C0.987281 17.1045 0.950016 17.1616 0.924993 17.2243C0.899971 17.287 0.887691 17.3541 0.888872 17.4216V30.5772C0.888871 30.7122 0.942382 30.8417 1.03768 30.9373C1.13298 31.033 1.26231 31.0869 1.39732 31.0874H14.5671C14.7021 31.0869 14.8314 31.033 14.9267 30.9373C15.022 30.8417 15.0755 30.7122 15.0755 30.5772V16.9043Z" fill="url(#paint3_linear_853_6017)"/>
<path d="M26.4889 14.6127C26.336 11.6418 25.7163 8.71352 24.6525 5.9354C24.3882 6.55612 24.0523 7.14382 23.6516 7.68651C21.7304 5.81728 19.1569 4.76963 16.4765 4.76563C14.4958 4.76527 12.5594 5.3523 10.9124 6.45246C9.2653 7.55262 7.98148 9.11651 7.22325 10.9463C6.46503 12.7762 6.26646 14.7897 6.65266 16.7324C7.03886 18.6751 7.99248 20.4597 9.39292 21.8603C10.7934 23.261 12.5777 24.215 14.5203 24.6015C16.463 24.9881 18.4766 24.7899 20.3065 24.032C22.1365 23.2741 23.7006 21.9905 24.8011 20.3436C25.9015 18.6968 26.4889 16.7605 26.4889 14.7798V14.6127Z" fill="#5FB832"/>
<path d="M24.5707 19.2874C22.0676 22.5407 16.8107 21.4563 13.4738 21.6234C13.0825 21.627 12.6918 21.6549 12.304 21.7069L12.8053 21.5398C14.4838 21.0669 16.1284 20.4813 17.728 19.7869C19.2116 19.0326 20.5113 17.9616 21.5352 16.6495C22.5591 15.3374 23.2822 13.8164 23.6533 12.194C23.0253 13.7403 22.0755 15.1353 20.8669 16.2862C19.6583 17.4372 18.2187 18.3178 16.6436 18.8696C14.8425 19.4736 13.0009 19.9489 11.1325 20.2918L10.9653 20.2083C8.54934 19.0367 8.46578 13.7798 12.8 12.1105C14.72 11.3603 16.5547 11.7763 18.6418 11.2767C19.8575 10.9811 21.0015 10.4444 22.0059 9.69833C23.0103 8.95228 23.8547 8.01211 24.4889 6.93359C25.7404 10.5247 27.0756 15.9487 24.5707 19.2874ZM10.4693 22.5407C10.6342 22.5404 10.7952 22.4912 10.9321 22.3993C11.069 22.3075 11.1755 22.1772 11.2384 22.0248C11.3012 21.8724 11.3175 21.7048 11.2851 21.5432C11.2527 21.3816 11.1732 21.2332 11.0565 21.1167C10.9398 21.0003 10.7913 20.9211 10.6296 20.889C10.4679 20.857 10.3003 20.8736 10.1481 20.9368C9.99583 20.9999 9.86572 21.1068 9.77418 21.2439C9.68264 21.381 9.63379 21.5421 9.63379 21.7069C9.63378 21.8166 9.65541 21.9251 9.69742 22.0264C9.73943 22.1277 9.80101 22.2197 9.87862 22.2971C9.95623 22.3746 10.0484 22.436 10.1497 22.4777C10.2511 22.5195 10.3597 22.5409 10.4693 22.5407Z" fill="white"/>
</g>
<defs>
<linearGradient id="paint0_linear_853_6017" x1="-0.458688" y1="-0.402019" x2="15.5146" y2="15.502" gradientUnits="userSpaceOnUse">
<stop offset="0.059" stop-color="#0086EC"/>
<stop offset="1" stop-color="#004DAE"/>
</linearGradient>
<linearGradient id="paint1_linear_853_6017" x1="16.1138" y1="15.609" x2="31.0987" y2="1.18944" gradientUnits="userSpaceOnUse">
<stop stop-color="#004DAE"/>
<stop offset="0.941" stop-color="#0086EC"/>
</linearGradient>
<linearGradient id="paint2_linear_853_6017" x1="15.7564" y1="15.1087" x2="31.5911" y2="32.1434" gradientUnits="userSpaceOnUse">
<stop offset="0.059" stop-color="#0086EC"/>
<stop offset="1" stop-color="#004DAE"/>
</linearGradient>
<linearGradient id="paint3_linear_853_6017" x1="15.3653" y1="16.2892" x2="0.876428" y2="31.4163" gradientUnits="userSpaceOnUse">
<stop offset="0.059" stop-color="#0086EC"/>
<stop offset="1" stop-color="#004DAE"/>
</linearGradient>
<clipPath id="clip0_853_6017">
<rect width="32" height="32" fill="white"/>
</clipPath>
</defs>
</svg>
