<svg width="32" height="32" viewBox="0 0 32 32" fill="none" xmlns="http://www.w3.org/2000/svg">
<path d="M32 20.2318C31.9616 18.5243 31.3099 16.8878 30.1642 15.6212C29.0184 14.3547 27.4551 13.5428 25.76 13.334C25.6582 10.951 24.6215 8.70404 22.8744 7.08013C21.1274 5.45621 18.8108 4.58614 16.4267 4.65847C14.5009 4.6167 12.6093 5.17179 11.0115 6.24761C9.4137 7.32344 8.18788 8.86728 7.50222 10.6674C5.4614 10.9154 3.57871 11.8918 2.20036 13.4171C0.82201 14.9425 0.0406644 16.9141 0 18.9696C0.0879773 21.2741 1.08622 23.4497 2.77584 25.0194C4.46546 26.589 6.70857 27.4246 9.01333 27.3429H9.79556H24.3911C24.5208 27.3614 24.6525 27.3614 24.7822 27.3429C26.6726 27.325 28.4821 26.5734 29.8288 25.2466C31.1755 23.9198 31.954 22.1217 32 20.2318Z" fill="url(#paint0_linear_853_6025)"/>
<path d="M9.63553 18.471H8.07109C7.9641 18.0072 7.69016 17.599 7.30149 17.3242C6.91283 17.0495 6.43663 16.9274 5.96371 16.9812C5.49079 17.035 5.05422 17.261 4.73726 17.6161C4.4203 17.9712 4.24512 18.4306 4.24512 18.9065C4.24512 19.3825 4.4203 19.8418 4.73726 20.1969C5.05422 20.552 5.49079 20.778 5.96371 20.8319C6.43663 20.8857 6.91283 20.7636 7.30149 20.4888C7.69016 20.2141 7.9641 19.8059 8.07109 19.3421H9.63553C9.72983 19.3421 9.82027 19.3795 9.88695 19.4462C9.95363 19.5129 9.99109 19.6033 9.99109 19.6976V27.3421H10.8622V19.6976C10.8622 19.3723 10.733 19.0603 10.5029 18.8303C10.2729 18.6002 9.96087 18.471 9.63553 18.471ZM6.16887 20.0354C5.94383 20.0354 5.72386 19.9687 5.53675 19.8437C5.34964 19.7187 5.20381 19.541 5.1177 19.3331C5.03158 19.1251 5.00905 18.8964 5.05295 18.6757C5.09685 18.455 5.20521 18.2522 5.36434 18.0931C5.52346 17.934 5.72619 17.8256 5.9469 17.7817C6.1676 17.7378 6.39637 17.7604 6.60427 17.8465C6.81218 17.9326 6.98987 18.0784 7.11489 18.2655C7.23991 18.4526 7.30664 18.6726 7.30664 18.8976C7.30664 19.1994 7.18677 19.4888 6.9734 19.7022C6.76002 19.9155 6.47062 20.0354 6.16887 20.0354Z" fill="#9CEBFF"/>
<path d="M15.8934 18.8627V17.0849C15.8934 16.7549 15.7622 16.4383 15.5289 16.205C15.2955 15.9716 14.979 15.8405 14.6489 15.8405H11.8934C11.7991 15.8405 11.7086 15.803 11.6419 15.7363C11.5753 15.6697 11.5378 15.5792 11.5378 15.4849V6.04492L11.1289 6.25826L10.6667 6.50714V15.396C10.6667 15.7214 10.7959 16.0334 11.026 16.2634C11.256 16.4935 11.568 16.6227 11.8934 16.6227H14.6489C14.6979 16.6227 14.7465 16.6324 14.7918 16.6511C14.8371 16.6699 14.8782 16.6974 14.9129 16.732C14.9476 16.7667 14.9751 16.8079 14.9938 16.8532C15.0126 16.8985 15.0222 16.947 15.0222 16.996V18.7738C14.5927 18.8674 14.2083 19.1056 13.9332 19.4486C13.6582 19.7916 13.5092 20.2186 13.5111 20.6583C13.5108 21.0225 13.6132 21.3795 13.8065 21.6882C13.9998 21.9969 14.2761 22.245 14.6039 22.4038C14.9317 22.5626 15.2977 22.6258 15.6598 22.5862C16.0219 22.5466 16.3654 22.4057 16.6511 22.1797C16.9368 21.9537 17.153 21.6518 17.2749 21.3086C17.3968 20.9653 17.4195 20.5947 17.3404 20.2391C17.2613 19.8835 17.0836 19.5575 16.8277 19.2983C16.5717 19.0391 16.2479 18.8574 15.8934 18.7738V18.8627ZM15.4489 21.8849C15.2239 21.8849 15.0039 21.8182 14.8168 21.6932C14.6297 21.5682 14.4839 21.3905 14.3977 21.1826C14.3116 20.9747 14.2891 20.7459 14.333 20.5252C14.3769 20.3045 14.4853 20.1017 14.6444 19.9426C14.8035 19.7835 15.0062 19.6751 15.2269 19.6312C15.4476 19.5873 15.6764 19.6099 15.8843 19.696C16.0922 19.7821 16.2699 19.9279 16.3949 20.115C16.52 20.3021 16.5867 20.5221 16.5867 20.7471C16.5867 20.8966 16.5573 21.0445 16.5001 21.1826C16.4429 21.3206 16.3591 21.446 16.2534 21.5517C16.1478 21.6573 16.0224 21.7411 15.8843 21.7983C15.7463 21.8555 15.5983 21.8849 15.4489 21.8849Z" fill="#F2F2F2"/>
<path d="M25.8311 15.1105C25.3572 15.1122 24.9003 15.2876 24.5469 15.6034C24.1935 15.9192 23.9681 16.3536 23.9133 16.8244C23.8586 17.2952 23.9783 17.7698 24.2498 18.1583C24.5213 18.5468 24.9258 18.8223 25.3867 18.9327V19.2883C25.3867 19.3373 25.377 19.3858 25.3583 19.4311C25.3395 19.4764 25.312 19.5176 25.2773 19.5522C25.2427 19.5869 25.2015 19.6144 25.1562 19.6332C25.1109 19.6519 25.0624 19.6616 25.0133 19.6616H21.4578V13.4038C21.4578 13.2427 21.4261 13.0832 21.3644 12.9344C21.3028 12.7856 21.2124 12.6503 21.0985 12.5364C20.9846 12.4225 20.8494 12.3322 20.7005 12.2705C20.5517 12.2089 20.3922 12.1771 20.2311 12.1771H18.4C18.3064 11.7476 18.0682 11.3632 17.7252 11.0881C17.3822 10.8131 16.9552 10.6641 16.5156 10.666C16.1513 10.6657 15.7943 10.7681 15.4856 10.9614C15.1769 11.1547 14.9289 11.431 14.77 11.7588C14.6112 12.0866 14.548 12.4526 14.5876 12.8147C14.6273 13.1768 14.7681 13.5203 14.9941 13.806C15.2201 14.0917 15.522 14.3079 15.8653 14.4298C16.2085 14.5517 16.5792 14.5744 16.9347 14.4953C17.2903 14.4162 17.6163 14.2385 17.8755 13.9826C18.1347 13.7266 18.3165 13.4028 18.4 13.0483H20.3022C20.3965 13.0483 20.487 13.0857 20.5536 13.1524C20.6203 13.2191 20.6578 13.3095 20.6578 13.4038V27.3416H21.5289V20.5327H25.0845C25.4145 20.5327 25.731 20.4016 25.9644 20.1682C26.1978 19.9348 26.3289 19.6183 26.3289 19.2883V18.9327C26.7569 18.8361 27.1395 18.5971 27.414 18.2547C27.6885 17.9124 27.8387 17.4871 27.84 17.0483C27.8402 16.7877 27.7878 16.5298 27.686 16.2899C27.5842 16.05 27.4351 15.8332 27.2475 15.6523C27.06 15.4714 26.8379 15.3302 26.5945 15.2371C26.3512 15.144 26.0915 15.1009 25.8311 15.1105ZM16.5156 13.7416C16.2905 13.7416 16.0706 13.6749 15.8834 13.5498C15.6963 13.4248 15.5505 13.2471 15.4644 13.0392C15.3783 12.8313 15.3557 12.6026 15.3996 12.3818C15.4436 12.1611 15.5519 11.9584 15.711 11.7993C15.8702 11.6402 16.0729 11.5318 16.2936 11.4879C16.5143 11.444 16.7431 11.4665 16.951 11.5526C17.1589 11.6388 17.3366 11.7846 17.4616 11.9717C17.5866 12.1588 17.6533 12.3788 17.6533 12.6038C17.6533 12.7532 17.6239 12.9012 17.5667 13.0392C17.5096 13.1773 17.4257 13.3027 17.3201 13.4083C17.2144 13.514 17.089 13.5978 16.951 13.655C16.8129 13.7122 16.665 13.7416 16.5156 13.7416ZM25.8311 18.186C25.6054 18.1896 25.3837 18.1258 25.1942 18.003C25.0048 17.8801 24.8562 17.7037 24.7674 17.4961C24.6785 17.2886 24.6534 17.0593 24.6953 16.8374C24.7372 16.6155 24.8441 16.4111 25.0025 16.2502C25.1609 16.0893 25.3636 15.9792 25.5848 15.9338C25.8059 15.8885 26.0356 15.9099 26.2445 15.9955C26.4535 16.0811 26.6322 16.2269 26.7581 16.4143C26.8839 16.6018 26.9511 16.8225 26.9511 17.0483C26.9512 17.347 26.8337 17.6337 26.6242 17.8466C26.4146 18.0594 26.1298 18.1814 25.8311 18.186Z" fill="#9CEBFF"/>
<defs>
<linearGradient id="paint0_linear_853_6025" x1="16" y1="34.0096" x2="16" y2="-0.514862" gradientUnits="userSpaceOnUse">
<stop stop-color="#0078D4"/>
<stop offset="0.16" stop-color="#1380DA"/>
<stop offset="0.53" stop-color="#3C91E5"/>
<stop offset="0.82" stop-color="#559CEC"/>
<stop offset="1" stop-color="#5EA0EF"/>
</linearGradient>
</defs>
</svg>
