<svg width="32" height="32" viewBox="0 0 32 32" fill="none" xmlns="http://www.w3.org/2000/svg">
<path d="M32 20.1249C31.9686 18.3931 31.3245 16.7285 30.1821 15.4267C29.0398 14.1248 27.473 13.2699 25.76 13.0137C25.6902 10.601 24.6704 8.31339 22.9225 6.64872C21.1745 4.98405 18.84 4.07697 16.4267 4.12485C14.4835 4.10497 12.5826 4.69211 10.9892 5.80435C9.39569 6.91659 8.18913 8.49846 7.53778 10.3293C5.46655 10.5956 3.56188 11.6031 2.17612 13.1654C0.790367 14.7276 0.0173215 16.7389 0 18.8271C0.0834421 21.1503 1.07374 23.3485 2.75861 24.9502C4.44348 26.552 6.68882 27.43 9.01333 27.396H9.79556H24.3911C24.5208 27.4144 24.6525 27.4144 24.7822 27.396C26.6956 27.3636 28.5208 26.5855 29.8689 25.2274C31.2171 23.8692 31.9817 22.0384 32 20.1249Z" fill="url(#paint0_linear_853_6020)"/>
<path d="M21.92 11.7164C21.3625 10.7914 20.543 10.0527 19.5654 9.59364C18.5878 9.13463 17.496 8.97597 16.4282 9.13776C15.3604 9.29955 14.3646 9.77452 13.5668 10.5025C12.769 11.2305 12.2052 12.1789 11.9467 13.2275C11.6299 14.5987 11.8392 16.0388 12.5334 17.263L8.37336 21.4764C8.2422 21.6069 8.13813 21.762 8.06711 21.9328C7.99609 22.1037 7.95953 22.2869 7.95953 22.4719C7.95953 22.6569 7.99609 22.8401 8.06711 23.011C8.13813 23.1818 8.2422 23.337 8.37336 23.4675C8.50367 23.5985 8.65888 23.7022 8.82985 23.7724C9.00081 23.8427 9.18409 23.878 9.36891 23.8764C9.55401 23.88 9.7379 23.8457 9.90916 23.7753C10.0804 23.705 10.2354 23.6002 10.3645 23.4675L14.5067 19.2719C14.957 19.5337 15.4417 19.7312 15.9467 19.8586C16.9956 20.1105 18.0955 20.0469 19.1084 19.676C20.1214 19.305 21.0021 18.643 21.6402 17.7733C22.2783 16.9035 22.6453 15.8647 22.695 14.7871C22.7448 13.7095 22.4752 12.6412 21.92 11.7164ZM20.96 15.4497C20.7574 16.2834 20.2815 17.0253 19.608 17.557C18.9346 18.0887 18.1025 18.3795 17.2445 18.383C16.9378 18.3854 16.6324 18.3435 16.3378 18.2586C15.888 18.1573 15.4642 17.9636 15.0934 17.6897C14.7022 17.423 14.3645 17.0853 14.0978 16.6941C13.7965 16.2483 13.5918 15.7443 13.4969 15.2146C13.402 14.685 13.419 14.1413 13.5467 13.6186C13.7394 12.7815 14.2097 12.0342 14.8811 11.4983C15.5525 10.9625 16.3855 10.6697 17.2445 10.6675C17.5557 10.6679 17.8658 10.7037 18.1689 10.7741C19.1545 11.035 19.9976 11.6737 20.5156 12.5519C20.7785 12.9811 20.9533 13.4585 21.0296 13.956C21.1059 14.4536 21.0823 14.9614 20.96 15.4497Z" fill="#F2F2F2"/>
<path d="M17.2266 18.3831C19.3376 18.3831 21.0489 16.6639 21.0489 14.5431C21.0489 12.4224 19.3376 10.7031 17.2266 10.7031C15.1157 10.7031 13.4044 12.4224 13.4044 14.5431C13.4044 16.6639 15.1157 18.3831 17.2266 18.3831Z" fill="#83B9F9"/>
<defs>
<linearGradient id="paint0_linear_853_6020" x1="16" y1="0.640406" x2="16" y2="32.5515" gradientUnits="userSpaceOnUse">
<stop offset="0.18" stop-color="#5EA0EF"/>
<stop offset="1" stop-color="#0078D4"/>
</linearGradient>
</defs>
</svg>
