<svg width="32" height="32" viewBox="0 0 32 32" fill="none" xmlns="http://www.w3.org/2000/svg">
<path d="M31.1111 4.44533V23.6987C31.1111 23.8356 31.0839 23.9711 31.031 24.0974C30.978 24.2237 30.9005 24.3381 30.8028 24.4341C30.7052 24.5301 30.5894 24.6057 30.4623 24.6564C30.3351 24.7072 30.1991 24.7321 30.0622 24.7298H22.0267C21.9607 24.7298 21.8973 24.756 21.8507 24.8027C21.804 24.8493 21.7778 24.9127 21.7778 24.9787V28.0898C21.777 28.1822 21.7504 28.2726 21.7011 28.3508C21.6518 28.429 21.5817 28.492 21.4986 28.5326C21.4156 28.5732 21.3229 28.5898 21.2309 28.5807C21.1389 28.5716 21.0512 28.537 20.9778 28.4809L16.1422 24.7831H15.9822H1.93777C1.80088 24.7855 1.66488 24.7605 1.53772 24.7098C1.41056 24.659 1.29479 24.5834 1.19715 24.4875C1.09951 24.3915 1.02197 24.277 0.969039 24.1507C0.916113 24.0245 0.888865 23.8889 0.888886 23.752V4.44533C0.888865 4.30841 0.916113 4.17286 0.969039 4.04659C1.02197 3.92031 1.09951 3.80585 1.19715 3.70986C1.29479 3.61388 1.41056 3.5383 1.53772 3.48754C1.66488 3.43678 1.80088 3.41186 1.93777 3.41422H30.0622C30.1991 3.41186 30.3351 3.43678 30.4623 3.48754C30.5894 3.5383 30.7052 3.61388 30.8028 3.70986C30.9005 3.80585 30.978 3.92031 31.031 4.04659C31.0839 4.17286 31.1111 4.30841 31.1111 4.44533Z" fill="url(#paint0_linear_853_6024)"/>
<path d="M3.64445 16.0002L8.97779 20.4802C9.05288 20.5397 9.14306 20.5771 9.23822 20.5882C9.33338 20.5993 9.42975 20.5837 9.51651 20.5431C9.60328 20.5024 9.67702 20.4385 9.72945 20.3583C9.78188 20.2781 9.81093 20.1849 9.81334 20.0891V18.1335H31.0756V15.1113H3.96445C3.86442 15.118 3.76851 15.1537 3.68846 15.2141C3.6084 15.2744 3.54768 15.3568 3.51372 15.4511C3.47976 15.5454 3.47404 15.6476 3.49726 15.7451C3.52048 15.8427 3.57163 15.9313 3.64445 16.0002Z" fill="#FFE452"/>
<path d="M28.8711 11.486L23.3422 7.00599C23.2671 6.9465 23.1769 6.9091 23.0818 6.898C22.9866 6.8869 22.8903 6.90254 22.8035 6.94315C22.7167 6.98377 22.643 7.04776 22.5906 7.12794C22.5381 7.20812 22.5091 7.30133 22.5067 7.3971V9.35266H0.888885V12.446H28.5511C28.6697 12.4613 28.7899 12.435 28.8912 12.3714C28.9924 12.3079 29.0685 12.2111 29.1063 12.0977C29.1441 11.9843 29.1413 11.8613 29.0984 11.7497C29.0555 11.6381 28.9752 11.5449 28.8711 11.486Z" fill="white"/>
<defs>
<linearGradient id="paint0_linear_853_6024" x1="16" y1="1.44088" x2="16" y2="37.832" gradientUnits="userSpaceOnUse">
<stop stop-color="#FFD70F"/>
<stop offset="0.34" stop-color="#EEB309"/>
<stop offset="0.77" stop-color="#DC8C03"/>
<stop offset="1" stop-color="#D57D01"/>
</linearGradient>
</defs>
</svg>
