<svg width="32" height="32" viewBox="0 0 32 32" fill="none" xmlns="http://www.w3.org/2000/svg">
<path d="M12.48 1.10352H25.3351C26.1595 1.10352 26.9704 1.31235 27.6922 1.71052C28.414 2.10869 29.0232 2.68323 29.4629 3.38052C29.9026 4.07781 30.1585 4.87512 30.2068 5.69807C30.255 6.52101 30.0939 7.34275 29.7387 8.08663L29.9787 7.61018L25.5111 16.5453L25.472 16.6253L24.7733 18.0208L25.472 16.6235C25.0666 17.4344 24.4434 18.1164 23.6722 18.593C22.901 19.0697 22.0124 19.3221 21.1058 19.3222H13.3867L7.92 30.2537C7.82345 30.4469 7.67502 30.6094 7.49132 30.7229C7.30763 30.8365 7.09595 30.8966 6.88 30.8966C6.66405 30.8966 6.45236 30.8365 6.26867 30.7229C6.08498 30.6094 5.93655 30.4469 5.84 30.2537L2.02133 22.6093C1.85937 22.29 1.77585 21.9367 1.77771 21.5787C1.77956 21.2206 1.86674 20.8682 2.032 20.5506L6.23644 12.1417C6.43005 11.7555 6.7273 11.4307 7.09495 11.2037C7.4626 10.9767 7.88615 10.8564 8.31822 10.8564H24.4284C23.5291 10.0131 22.3404 9.5473 21.1076 9.55507H9.42222C9.22384 9.55483 9.02882 9.5039 8.85564 9.40713C8.68247 9.31036 8.53689 9.17096 8.43271 9.00213C8.32853 8.83331 8.26921 8.64068 8.26038 8.44249C8.25154 8.24431 8.29348 8.04716 8.38222 7.86974L11.4382 1.74529C11.5354 1.55232 11.6842 1.39013 11.8682 1.27681C12.0521 1.16349 12.2639 1.10349 12.48 1.10352Z" fill="white"/>
<mask id="mask0_853_6014" style="mask-type:luminance" maskUnits="userSpaceOnUse" x="1" y="1" width="30" height="30">
<path d="M12.48 1.10352H25.3351C26.1595 1.10352 26.9704 1.31235 27.6922 1.71052C28.414 2.10869 29.0232 2.68323 29.4629 3.38052C29.9026 4.07781 30.1585 4.87512 30.2068 5.69807C30.255 6.52101 30.0939 7.34275 29.7387 8.08663L29.9787 7.61018L25.5111 16.5453L25.472 16.6253L24.7733 18.0208L25.472 16.6235C25.0666 17.4344 24.4434 18.1164 23.6722 18.593C22.901 19.0697 22.0124 19.3221 21.1058 19.3222H13.3867L7.92 30.2537C7.82345 30.4469 7.67502 30.6094 7.49132 30.7229C7.30763 30.8365 7.09595 30.8966 6.88 30.8966C6.66405 30.8966 6.45236 30.8365 6.26867 30.7229C6.08498 30.6094 5.93655 30.4469 5.84 30.2537L2.02133 22.6093C1.85937 22.29 1.77585 21.9367 1.77771 21.5787C1.77956 21.2206 1.86674 20.8682 2.032 20.5506L6.23644 12.1417C6.43005 11.7555 6.7273 11.4307 7.09495 11.2037C7.4626 10.9767 7.88615 10.8564 8.31822 10.8564H24.4284C23.5291 10.0131 22.3404 9.5473 21.1076 9.55507H9.42222C9.22384 9.55483 9.02882 9.5039 8.85564 9.40713C8.68247 9.31036 8.53689 9.17096 8.43271 9.00213C8.32853 8.83331 8.26921 8.64068 8.26038 8.44249C8.25154 8.24431 8.29348 8.04716 8.38222 7.86974L11.4382 1.74529C11.5354 1.55232 11.6842 1.39013 11.8682 1.27681C12.0521 1.16349 12.2639 1.10349 12.48 1.10352Z" fill="white"/>
</mask>
<g mask="url(#mask0_853_6014)">
<path d="M4.05868 19.3223H13.3867L7.92001 30.2538C7.82318 30.4469 7.67454 30.6093 7.49072 30.7227C7.3069 30.8362 7.09514 30.8963 6.87912 30.8963C6.66311 30.8963 6.45135 30.8362 6.26753 30.7227C6.08371 30.6093 5.93507 30.4469 5.83823 30.2538L2.02135 22.6094C1.84921 22.2625 1.76844 21.8775 1.78667 21.4907C1.8049 21.1039 1.92153 20.7282 2.12553 20.399C2.32952 20.0699 2.61412 19.7983 2.95241 19.6098C3.29069 19.4214 3.67146 19.3224 4.05868 19.3223Z" fill="url(#paint0_linear_853_6014)"/>
<path d="M12.4782 1.10352H25.3351C26.1669 1.10337 26.985 1.31583 27.7116 1.72075C28.4382 2.12566 29.0492 2.70958 29.4866 3.41706C29.9241 4.12454 30.1735 4.9321 30.211 5.76305C30.2486 6.59401 30.0732 7.42077 29.7014 8.16485L25.5094 16.5453L25.472 16.6253L24.7734 18.0208L25.5094 16.5453C25.8651 15.8016 26.0265 14.9799 25.9786 14.1569C25.9307 13.3339 25.675 12.5365 25.2354 11.8391C24.7958 11.1417 24.1866 10.5671 23.4648 10.1689C22.7429 9.77075 21.932 9.56201 21.1076 9.56218H9.42225C9.22387 9.56194 9.02884 9.51101 8.85567 9.41424C8.6825 9.31747 8.53691 9.17807 8.43274 9.00925C8.32856 8.84042 8.26924 8.64779 8.2604 8.44961C8.25157 8.25142 8.29351 8.05427 8.38225 7.87685L11.4382 1.74529C11.5353 1.55259 11.6838 1.39057 11.8675 1.27727C12.0511 1.16397 12.2625 1.10382 12.4782 1.10352Z" fill="url(#paint1_linear_853_6014)"/>
<path d="M12.4782 1.10352H25.3351C26.1669 1.10337 26.985 1.31583 27.7116 1.72075C28.4382 2.12566 29.0492 2.70958 29.4866 3.41706C29.9241 4.12454 30.1735 4.9321 30.211 5.76305C30.2486 6.59401 30.0732 7.42077 29.7014 8.16485L25.5005 16.5648L25.4702 16.6253L25.0987 17.3702L25.5005 16.5648C25.8598 15.821 26.0244 14.9981 25.9789 14.1733C25.9334 13.3485 25.6792 12.5487 25.2402 11.8489C24.8012 11.1491 24.1918 10.5722 23.469 10.1723C22.7462 9.77232 21.9337 9.5624 21.1076 9.56218H9.42225C9.22387 9.56194 9.02884 9.51101 8.85567 9.41424C8.6825 9.31747 8.53691 9.17807 8.43274 9.00925C8.32856 8.84042 8.26924 8.64779 8.2604 8.44961C8.25157 8.25142 8.29351 8.05427 8.38225 7.87685L11.4382 1.74529C11.5353 1.55259 11.6838 1.39057 11.8675 1.27727C12.0511 1.16397 12.2625 1.10382 12.4782 1.10352Z" fill="url(#paint2_linear_853_6014)"/>
<path d="M21.1058 19.4522H4.08889C3.65681 19.4523 3.23327 19.5725 2.86562 19.7995C2.49797 20.0265 2.20072 20.3513 2.00711 20.7376L6.23644 12.2789C6.43005 11.8926 6.7273 11.5678 7.09495 11.3408C7.4626 11.1138 7.88615 10.9936 8.31822 10.9936H25.3351C26.2389 10.9923 27.1246 10.7399 27.8934 10.2647C28.6621 9.78942 29.2838 9.10994 29.6889 8.30201L29.9716 7.74023L25.4649 16.7536C25.06 17.5634 24.4379 18.2446 23.6681 18.7212C22.8983 19.1978 22.0112 19.4509 21.1058 19.4522Z" fill="black" fill-opacity="0.24"/>
<path d="M21.1058 19.9737H4.08889C3.65681 19.9738 3.23327 20.094 2.86562 20.321C2.49797 20.548 2.20072 20.8728 2.00711 21.2591L6.23644 12.8004C6.43005 12.4141 6.7273 12.0893 7.09495 11.8623C7.4626 11.6353 7.88615 11.5151 8.31822 11.5151H25.3351C26.2389 11.5138 27.1246 11.2614 27.8934 10.7862C28.6621 10.3109 29.2838 9.63142 29.6889 8.8235L29.9716 8.26172L25.4649 17.2751C25.06 18.0849 24.4379 18.7661 23.6681 19.2427C22.8983 19.7192 22.0112 19.9724 21.1058 19.9737Z" fill="black" fill-opacity="0.32"/>
<path d="M21.1058 19.3219H4.08889C3.65681 19.3219 3.23327 19.4422 2.86562 19.6692C2.49797 19.8962 2.20072 20.221 2.00711 20.6072L6.23644 12.1486C6.43005 11.7623 6.7273 11.4375 7.09495 11.2105C7.4626 10.9835 7.88615 10.8633 8.31822 10.8632H25.3351C26.2384 10.8625 27.1237 10.6109 27.8924 10.1366C28.6611 9.66234 29.283 8.98394 29.6889 8.17701L29.9716 7.61523L25.4649 16.6286C25.0593 17.4374 24.4369 18.1175 23.6671 18.5931C22.8974 19.0687 22.0106 19.321 21.1058 19.3219Z" fill="url(#paint3_linear_853_6014)"/>
<path opacity="0.7" d="M21.0969 19.3231H4.10134C3.66926 19.3231 3.24572 19.4433 2.87807 19.6703C2.51042 19.8973 2.21317 20.2221 2.01956 20.6084L6.2489 12.1497C6.44251 11.7634 6.73976 11.4387 7.1074 11.2117C7.47505 10.9847 7.8986 10.8644 8.33067 10.8644H25.4222C26.2992 10.8645 27.1591 10.6213 27.9061 10.1618C28.6531 9.70228 29.2579 9.04453 29.6533 8.26172L25.4596 16.6279C25.0542 17.4379 24.4315 18.119 23.6609 18.595C22.8904 19.071 22.0026 19.3231 21.0969 19.3231Z" fill="url(#paint4_linear_853_6014)"/>
</g>
<defs>
<linearGradient id="paint0_linear_853_6014" x1="7.00979" y1="18.4316" x2="10.2631" y2="30.7943" gradientUnits="userSpaceOnUse">
<stop stop-color="#159455"/>
<stop offset="1" stop-color="#3FBDA9"/>
</linearGradient>
<linearGradient id="paint1_linear_853_6014" x1="8.85336" y1="2.12574" x2="27.728" y2="10.5168" gradientUnits="userSpaceOnUse">
<stop stop-color="#23A794"/>
<stop offset="0.568" stop-color="#007A84"/>
<stop offset="1" stop-color="#005158"/>
</linearGradient>
<linearGradient id="paint2_linear_853_6014" x1="22.144" y1="14.4688" x2="18.7271" y2="5.52307" gradientUnits="userSpaceOnUse">
<stop stop-color="#004A8B"/>
<stop offset="0.406" stop-color="#105DA8" stop-opacity="0.5"/>
<stop offset="1" stop-color="#2170C6" stop-opacity="0"/>
</linearGradient>
<linearGradient id="paint3_linear_853_6014" x1="7.37955" y1="9.84279" x2="24.4587" y2="18.3015" gradientUnits="userSpaceOnUse">
<stop stop-color="#7FD9A2"/>
<stop offset="0.196" stop-color="#47BF79"/>
<stop offset="0.714" stop-color="#009280"/>
<stop offset="1" stop-color="#007A84"/>
</linearGradient>
<linearGradient id="paint4_linear_853_6014" x1="7.25334" y1="10.1426" x2="11.1573" y2="12.0946" gradientUnits="userSpaceOnUse">
<stop stop-color="#A8E47C" stop-opacity="0.86"/>
<stop offset="0.367" stop-color="#87D152" stop-opacity="0.2"/>
<stop offset="1" stop-color="#58BE5A" stop-opacity="0"/>
</linearGradient>
</defs>
</svg>
