<svg width="32" height="32" viewBox="0 0 32 32" fill="none" xmlns="http://www.w3.org/2000/svg">
<g clip-path="url(#clip0_853_6023)">
<path d="M25.2622 27.947C22.0938 30.4035 18.0793 31.5007 14.1018 30.9973C10.1244 30.4938 6.50985 28.431 4.05335 25.2625C1.59686 22.0941 0.49964 18.0796 1.00307 14.1021C1.5065 10.1247 3.56934 6.51013 6.7378 4.05364L6.8978 3.94697C10.0844 1.56832 14.0802 0.54162 18.0188 1.08947C21.9574 1.63732 25.5213 3.71557 27.9378 6.87361C30.3542 10.0316 31.4285 14.0149 30.9277 17.9597C30.4268 21.9046 28.3912 25.493 25.2622 27.947Z" fill="url(#paint0_radial_853_6023)"/>
<mask id="mask0_853_6023" style="mask-type:luminance" maskUnits="userSpaceOnUse" x="0" y="0" width="32" height="32">
<path d="M25.2622 27.947C22.0938 30.4035 18.0793 31.5007 14.1018 30.9973C10.1244 30.4938 6.50985 28.431 4.05335 25.2625C1.59686 22.0941 0.49964 18.0796 1.00307 14.1021C1.5065 10.1247 3.56934 6.51013 6.7378 4.05364L6.8978 3.94697C10.0844 1.56832 14.0802 0.54162 18.0188 1.08947C21.9574 1.63732 25.5213 3.71557 27.9378 6.87361C30.3542 10.0316 31.4285 14.0149 30.9277 17.9597C30.4268 21.9046 28.3912 25.493 25.2622 27.947Z" fill="white"/>
</mask>
<g mask="url(#mask0_853_6023)">
<path d="M7.34227 12.5333C7.27118 12.6029 7.2226 12.6923 7.20278 12.7898C7.18296 12.8873 7.19283 12.9885 7.2311 13.0804C7.26937 13.1722 7.3343 13.2505 7.41749 13.3051C7.50068 13.3597 7.59833 13.3881 7.69783 13.3866H18.5778C18.9578 13.3774 19.3356 13.4468 19.6874 13.5906C20.0393 13.7344 20.3575 13.9494 20.6223 14.2222C21.0469 14.6706 21.315 15.2444 21.3867 15.8577C21.4352 16.2246 21.4031 16.5976 21.2926 16.9507C21.182 17.3038 20.9957 17.6285 20.7467 17.9022C20.5103 18.2037 20.2079 18.4471 19.8627 18.6135C19.5175 18.7799 19.1388 18.865 18.7556 18.8622H15.0045C14.9693 18.8567 14.9334 18.8646 14.9037 18.8844C14.8741 18.9041 14.853 18.9343 14.8445 18.9689L13.8845 21.3333C13.6712 21.8489 13.44 22.3822 13.2267 22.9155C13.2107 22.9391 13.2021 22.967 13.2021 22.9955C13.2021 23.0241 13.2107 23.0519 13.2267 23.0755L16 25.7422L20.6045 30.3466L21.4223 31.2177L25.2267 29.1022L24.3912 28.4444L21.8489 25.8844L19.0934 23.1111H18.9689L19.8934 22.9866C20.995 22.7736 22.0272 22.2923 22.8985 21.5853C23.7699 20.8783 24.4535 19.9674 24.8889 18.9333C25.2658 18.0698 25.4603 17.1377 25.4603 16.1955C25.4603 15.2533 25.2658 14.3213 24.8889 13.4577C24.5732 12.7248 24.1343 12.0513 23.5912 11.4666C22.9754 10.7906 22.2243 10.2515 21.3867 9.88441C20.4575 9.47449 19.4512 9.26839 18.4356 9.27996H13.1023V7.19997C13.0689 7.14377 13.0148 7.10295 12.9516 7.08632C12.8884 7.06969 12.8212 7.07858 12.7645 7.11108L7.34227 12.5333Z" fill="#F2F2F2"/>
</g>
</g>
<defs>
<radialGradient id="paint0_radial_853_6023" cx="0" cy="0" r="1" gradientUnits="userSpaceOnUse" gradientTransform="translate(16 16.0003) scale(15.1111)">
<stop offset="0.18" stop-color="#5EA0EF"/>
<stop offset="1" stop-color="#0078D4"/>
</radialGradient>
<clipPath id="clip0_853_6023">
<rect width="32" height="32" fill="white"/>
</clipPath>
</defs>
</svg>
