<svg width="32" height="32" viewBox="0 0 32 32" fill="none" xmlns="http://www.w3.org/2000/svg">
<g clip-path="url(#clip0_853_6013)">
<path d="M0 9.95703H32V27.797C32 28.0799 31.8876 28.3512 31.6876 28.5513C31.4875 28.7513 31.2162 28.8637 30.9333 28.8637H1.06667C0.783769 28.8637 0.512458 28.7513 0.312419 28.5513C0.112381 28.3512 0 28.0799 0 27.797L0 9.95703Z" fill="url(#paint0_linear_853_6013)"/>
<path opacity="0.6" d="M28.864 11.8359H3.39375C2.80465 11.8359 2.32709 12.3135 2.32709 12.9026V25.9053C2.32709 26.4944 2.80465 26.9719 3.39375 26.9719H28.864C29.4531 26.9719 29.9306 26.4944 29.9306 25.9053V12.9026C29.9306 12.3135 29.4531 11.8359 28.864 11.8359Z" fill="#5EA0EF"/>
<path d="M1.06667 3.13672H30.9333C31.2162 3.13672 31.4875 3.2491 31.6876 3.44914C31.8876 3.64918 32 3.92049 32 4.20339V9.95627H1.48162e-06V4.20516C-0.000232229 4.06494 0.0271855 3.92604 0.0806858 3.79642C0.134186 3.6668 0.212719 3.549 0.311792 3.44977C0.410864 3.35053 0.528531 3.2718 0.658061 3.21808C0.787591 3.16437 0.926442 3.13672 1.06667 3.13672Z" fill="#005BA1"/>
<path opacity="0.8" d="M12.6382 23.4977L12.0676 24.0666C12.0437 24.0907 12.0154 24.1099 11.9841 24.123C11.9528 24.1361 11.9192 24.1428 11.8853 24.1428C11.8514 24.1428 11.8179 24.1361 11.7866 24.123C11.7553 24.1099 11.7269 24.0907 11.7031 24.0666L7.56978 19.9208C7.47316 19.8241 7.41888 19.6931 7.41888 19.5564C7.41888 19.4197 7.47316 19.2886 7.56978 19.1919L8.14045 18.623L12.64 23.1333C12.6881 23.1818 12.7149 23.2475 12.7146 23.3159C12.7142 23.3842 12.6868 23.4496 12.6382 23.4977ZM19.1324 23.4977L19.7031 24.0666C19.7269 24.0907 19.7553 24.1099 19.7866 24.123C19.8179 24.1361 19.8514 24.1428 19.8853 24.1428C19.9192 24.1428 19.9528 24.1361 19.9841 24.123C20.0154 24.1099 20.0437 24.0907 20.0676 24.0666L24.2009 19.9208C24.2975 19.8241 24.3518 19.6931 24.3518 19.5564C24.3518 19.4197 24.2975 19.2886 24.2009 19.1919L23.6284 18.623L19.1307 23.1333C19.0826 23.1818 19.0558 23.2475 19.0561 23.3159C19.0564 23.3842 19.0839 23.4496 19.1324 23.4977Z" fill="white"/>
<path d="M12.144 14.9924L12.7129 15.563C12.737 15.5868 12.7562 15.6152 12.7693 15.6465C12.7824 15.6778 12.7891 15.7113 12.7891 15.7452C12.7891 15.7791 12.7824 15.8127 12.7693 15.844C12.7562 15.8753 12.737 15.9037 12.7129 15.9275L8.13514 20.4928L7.56625 19.9204C7.51819 19.8726 7.48006 19.8158 7.45403 19.7533C7.42801 19.6907 7.41461 19.6237 7.41461 19.5559C7.41461 19.4882 7.42801 19.4211 7.45403 19.3585C7.48006 19.296 7.51819 19.2392 7.56625 19.1915L11.7796 14.9906C11.8282 14.9425 11.8938 14.9157 11.9622 14.916C12.0305 14.9164 12.0959 14.9438 12.144 14.9924ZM19.6231 14.9924L19.0542 15.563C19.0301 15.5868 19.0109 15.6152 18.9979 15.6465C18.9848 15.6778 18.9781 15.7113 18.9781 15.7452C18.9781 15.7791 18.9848 15.8127 18.9979 15.844C19.0109 15.8753 19.0301 15.9037 19.0542 15.9275L23.632 20.4928L24.2009 19.9221C24.2972 19.8249 24.3512 19.6936 24.3512 19.5568C24.3512 19.42 24.2972 19.2887 24.2009 19.1915L19.9876 14.9924C19.9636 14.9683 19.9352 14.9493 19.9038 14.9364C19.8725 14.9235 19.8389 14.9169 19.805 14.9171C19.7711 14.9172 19.7375 14.9241 19.7063 14.9373C19.6751 14.9506 19.6468 14.9699 19.6231 14.9941V14.9924Z" fill="white"/>
<path d="M14.5049 25.5347L13.5929 25.2449C13.5465 25.2295 13.508 25.1964 13.4857 25.1528C13.4635 25.1093 13.4592 25.0587 13.4738 25.012L17.1894 13.4049C17.196 13.3815 17.2074 13.3596 17.2228 13.3407C17.2382 13.3218 17.2573 13.3063 17.279 13.2951C17.3007 13.284 17.3244 13.2774 17.3488 13.2758C17.3731 13.2742 17.3975 13.2776 17.4205 13.2858L18.3325 13.5774C18.3559 13.584 18.3778 13.5954 18.3967 13.6108C18.4156 13.6262 18.4311 13.6454 18.4423 13.667C18.4534 13.6887 18.46 13.7125 18.4616 13.7368C18.4632 13.7611 18.4598 13.7855 18.4516 13.8085L14.736 25.4227C14.7287 25.4455 14.7167 25.4667 14.701 25.4848C14.6852 25.5029 14.666 25.5176 14.6444 25.5281C14.6228 25.5385 14.5993 25.5445 14.5753 25.5456C14.5514 25.5468 14.5274 25.5431 14.5049 25.5347Z" fill="white"/>
<path d="M5.62843 6.8394C5.62843 7.10662 5.54919 7.36784 5.40073 7.59003C5.25227 7.81222 5.04125 7.9854 4.79437 8.08766C4.54748 8.18992 4.27582 8.21668 4.01373 8.16455C3.75164 8.11241 3.5109 7.98373 3.32194 7.79478C3.13298 7.60582 3.0043 7.36508 2.95217 7.10299C2.90004 6.8409 2.92679 6.56923 3.02906 6.32235C3.13132 6.07547 3.30449 5.86445 3.52668 5.71599C3.74887 5.56753 4.0101 5.48829 4.27732 5.48829C4.45475 5.48829 4.63044 5.52323 4.79437 5.59113C4.95829 5.65903 5.10724 5.75856 5.2327 5.88402C5.35816 6.00948 5.45768 6.15843 5.52558 6.32235C5.59348 6.48627 5.62843 6.66197 5.62843 6.8394ZM8.53332 5.48829C8.2661 5.48829 8.00487 5.56753 7.78268 5.71599C7.56049 5.86445 7.38732 6.07547 7.28506 6.32235C7.18279 6.56923 7.15604 6.8409 7.20817 7.10299C7.2603 7.36508 7.38898 7.60582 7.57794 7.79478C7.7669 7.98373 8.00764 8.11241 8.26973 8.16455C8.53182 8.21668 8.80348 8.18992 9.05037 8.08766C9.29725 7.9854 9.50827 7.81222 9.65673 7.59003C9.80519 7.36784 9.88443 7.10662 9.88443 6.8394C9.88443 6.48106 9.74208 6.1374 9.4887 5.88402C9.23532 5.63064 8.89166 5.48829 8.53332 5.48829ZM12.7875 5.48829C12.5203 5.48829 12.2591 5.56753 12.0369 5.71599C11.8147 5.86445 11.6415 6.07547 11.5393 6.32235C11.437 6.56923 11.4103 6.8409 11.4624 7.10299C11.5145 7.36508 11.6432 7.60582 11.8322 7.79478C12.0211 7.98373 12.2619 8.11241 12.524 8.16455C12.786 8.21668 13.0577 8.18992 13.3046 8.08766C13.5515 7.9854 13.7625 7.81222 13.9109 7.59003C14.0594 7.36784 14.1387 7.10662 14.1387 6.8394C14.1387 6.66167 14.1036 6.48568 14.0355 6.32153C13.9673 6.15737 13.8675 6.00827 13.7417 5.88276C13.6158 5.75725 13.4665 5.6578 13.3021 5.59011C13.1378 5.52242 12.9617 5.48782 12.784 5.48829H12.7875Z" fill="white"/>
</g>
<defs>
<linearGradient id="paint0_linear_853_6013" x1="16" y1="28.8655" x2="16" y2="9.95525" gradientUnits="userSpaceOnUse">
<stop stop-color="#005BA1"/>
<stop offset="0.775" stop-color="#0078D4"/>
</linearGradient>
<clipPath id="clip0_853_6013">
<rect width="32" height="32" fill="white"/>
</clipPath>
</defs>
</svg>
