<svg width="32" height="32" viewBox="0 0 32 32" fill="none" xmlns="http://www.w3.org/2000/svg">
<g clip-path="url(#clip0_841_18085)">
<path fill-rule="evenodd" clip-rule="evenodd" d="M2 2V30H16V2H2ZM8 10H5.06667V6.93333H8V10ZM8 14.9333H5.06667V12H8V14.9333ZM8 20H5.06667V17.0667H8V20ZM8 25.0667H5.06667V22.1333H8V25.0667ZM13.0667 10H10V6.93333H12.9333V10H13.0667ZM13.0667 14.9333H10V12H12.9333V14.9333H13.0667ZM13.0667 20H10V17.0667H12.9333V20H13.0667ZM13.0667 25.0667H10V22.1333H12.9333V25.0667H13.0667Z" fill="#85A4E6"/>
<path fill-rule="evenodd" clip-rule="evenodd" d="M9.06665 2V30H16V2H9.06665ZM13.0667 10H9.99998V6.93333H12.9333V10H13.0667ZM13.0667 14.9333H9.99998V12H12.9333V14.9333H13.0667ZM13.0667 20H9.99998V17.0667H12.9333V20H13.0667ZM13.0667 25.0667H9.99998V22.1333H12.9333V25.0667H13.0667Z" fill="#5C85DE"/>
<path fill-rule="evenodd" clip-rule="evenodd" d="M16 14V30H30V14H16ZM22 20H19.0667V17.0667H22V20ZM22 25.0667H19.0667V22.1333H22V25.0667ZM26.9333 20H24V17.0667H26.9333V20ZM26.9333 25.0667H24V22.1333H26.9333V25.0667Z" fill="#85A4E6"/>
<path fill-rule="evenodd" clip-rule="evenodd" d="M22.9333 14V30H29.8667V14H22.9333ZM26.9334 20H24V17.0667H26.9334V20ZM26.9334 25.0667H24V22.1333H26.9334V25.0667Z" fill="#5C85DE"/>
<path d="M30 10.9333H16V13.8667H30V10.9333Z" fill="#85A4E6"/>
<path d="M30 14H16V15.0667H30V14Z" fill="#5C85DE"/>
<path d="M17.0667 10.9333H16V13.8667H17.0667V10.9333Z" fill="#3367D6"/>
<path d="M17.0667 14H16V30H17.0667V14Z" fill="#3367D6"/>
</g>
<defs>
<clipPath id="clip0_841_18085">
<rect width="32" height="32" fill="white"/>
</clipPath>
</defs>
</svg>
