<svg width="32" height="32" viewBox="0 0 32 32" fill="none" xmlns="http://www.w3.org/2000/svg">
<path d="M16 16.3866L5 9.79994L16 3.43994L26.9867 9.66661L16 16.3866ZM7.02667 9.81328L15.9867 15.1466L24.9467 9.66661L16 4.62661L7.02667 9.81328Z" fill="#669DF6"/>
<path d="M16 28.5867L4.95996 21.1867L16 15.0667L26.8666 21.2533L16 28.5867ZM6.93329 21.2533L16 27.3333L24.9333 21.3333L16 16.24L6.93329 21.2533Z" fill="#669DF6"/>
<path d="M6.39699 9.50809L5.49731 10.0027L15.4664 28.1364L16.3661 27.6418L6.39699 9.50809Z" fill="#4285F4"/>
<path d="M25.3396 9.6893L15.605 27.7684L16.5089 28.2552L26.2435 10.176L25.3396 9.6893Z" fill="#4285F4"/>
<path d="M15.4743 3.87203L5.63428 20.9154L6.5234 21.4287L16.3634 4.38536L15.4743 3.87203Z" fill="#4285F4"/>
<path d="M16.4971 3.77713L15.6052 4.28564L25.4783 21.6021L26.3702 21.0936L16.4971 3.77713Z" fill="#4285F4"/>
<path d="M16.5467 3.94666H15.52V27.8667H16.5467V3.94666Z" fill="#4285F4"/>
<path d="M6.44 9.90662H5.41333V21.4533H6.44V9.90662Z" fill="#4285F4"/>
<path d="M26.4 9.78662H25.3733V21.3333H26.4V9.78662Z" fill="#4285F4"/>
<path d="M16.0399 5.51996C16.8279 5.51996 17.4666 4.88122 17.4666 4.09329C17.4666 3.30537 16.8279 2.66663 16.0399 2.66663C15.252 2.66663 14.6133 3.30537 14.6133 4.09329C14.6133 4.88122 15.252 5.51996 16.0399 5.51996Z" fill="#AECBFA"/>
<path d="M25.8932 11.2133C26.6811 11.2133 27.3199 10.5746 27.3199 9.78665C27.3199 8.99873 26.6811 8.35999 25.8932 8.35999C25.1053 8.35999 24.4666 8.99873 24.4666 9.78665C24.4666 10.5746 25.1053 11.2133 25.8932 11.2133Z" fill="#AECBFA"/>
<path d="M6.1066 11.2133C6.89452 11.2133 7.53327 10.5746 7.53327 9.78665C7.53327 8.99873 6.89452 8.35999 6.1066 8.35999C5.31867 8.35999 4.67993 8.99873 4.67993 9.78665C4.67993 10.5746 5.31867 11.2133 6.1066 11.2133Z" fill="#AECBFA"/>
<path d="M16.04 18.1466C17.2772 18.1466 18.28 17.1437 18.28 15.9066C18.28 14.6695 17.2772 13.6666 16.04 13.6666C14.8029 13.6666 13.8 14.6695 13.8 15.9066C13.8 17.1437 14.8029 18.1466 16.04 18.1466Z" fill="#AECBFA"/>
<path d="M25.8932 22.68C26.6811 22.68 27.3199 22.0413 27.3199 21.2533C27.3199 20.4654 26.6811 19.8267 25.8932 19.8267C25.1053 19.8267 24.4666 20.4654 24.4666 21.2533C24.4666 22.0413 25.1053 22.68 25.8932 22.68Z" fill="#AECBFA"/>
<path d="M6.1066 22.68C6.89452 22.68 7.53327 22.0413 7.53327 21.2533C7.53327 20.4654 6.89452 19.8267 6.1066 19.8267C5.31867 19.8267 4.67993 20.4654 4.67993 21.2533C4.67993 22.0413 5.31867 22.68 6.1066 22.68Z" fill="#AECBFA"/>
<path d="M16.0399 29.3333C16.8279 29.3333 17.4666 28.6946 17.4666 27.9066C17.4666 27.1187 16.8279 26.48 16.0399 26.48C15.252 26.48 14.6133 27.1187 14.6133 27.9066C14.6133 28.6946 15.252 29.3333 16.0399 29.3333Z" fill="#AECBFA"/>
<path d="M16 16.3866L5 9.79994L16 3.43994L26.9867 9.66661L16 16.3866ZM7.02667 9.81328L15.9867 15.1466L24.9467 9.66661L16 4.62661L7.02667 9.81328Z" fill="#AECBFA"/>
<path d="M16 28.5867L4.95996 21.1867L16 15.0667L26.8666 21.2533L16 28.5867ZM6.93329 21.2533L16 27.3333L24.9333 21.3333L16 16.24L6.93329 21.2533Z" fill="#AECBFA"/>
<path d="M6.39699 9.50809L5.49731 10.0027L15.4664 28.1364L16.3661 27.6418L6.39699 9.50809Z" fill="#AECBFA"/>
<path d="M25.3396 9.6893L15.605 27.7684L16.5089 28.2552L26.2435 10.176L25.3396 9.6893Z" fill="#AECBFA"/>
<path d="M15.4743 3.87203L5.63428 20.9154L6.5234 21.4287L16.3634 4.38536L15.4743 3.87203Z" fill="#AECBFA"/>
<path d="M16.4971 3.77713L15.6052 4.28564L25.4783 21.6021L26.3702 21.0936L16.4971 3.77713Z" fill="#AECBFA"/>
<path d="M16.5467 3.94666H15.52V27.8667H16.5467V3.94666Z" fill="#AECBFA"/>
<path d="M6.44 9.90662H5.41333V21.4533H6.44V9.90662Z" fill="#AECBFA"/>
<path d="M26.4 9.78662H25.3733V21.3333H26.4V9.78662Z" fill="#AECBFA"/>
<path d="M16.0399 5.51996C16.8279 5.51996 17.4666 4.88122 17.4666 4.09329C17.4666 3.30537 16.8279 2.66663 16.0399 2.66663C15.252 2.66663 14.6133 3.30537 14.6133 4.09329C14.6133 4.88122 15.252 5.51996 16.0399 5.51996Z" fill="#669DF6"/>
<path d="M25.8932 11.2133C26.6811 11.2133 27.3199 10.5746 27.3199 9.78665C27.3199 8.99873 26.6811 8.35999 25.8932 8.35999C25.1053 8.35999 24.4666 8.99873 24.4666 9.78665C24.4666 10.5746 25.1053 11.2133 25.8932 11.2133Z" fill="#669DF6"/>
<path d="M6.1066 11.2133C6.89452 11.2133 7.53327 10.5746 7.53327 9.78665C7.53327 8.99873 6.89452 8.35999 6.1066 8.35999C5.31867 8.35999 4.67993 8.99873 4.67993 9.78665C4.67993 10.5746 5.31867 11.2133 6.1066 11.2133Z" fill="#669DF6"/>
<path d="M16.04 18.1466C17.2772 18.1466 18.28 17.1437 18.28 15.9066C18.28 14.6695 17.2772 13.6666 16.04 13.6666C14.8029 13.6666 13.8 14.6695 13.8 15.9066C13.8 17.1437 14.8029 18.1466 16.04 18.1466Z" fill="#669DF6"/>
<path d="M25.8932 22.68C26.6811 22.68 27.3199 22.0413 27.3199 21.2533C27.3199 20.4654 26.6811 19.8267 25.8932 19.8267C25.1053 19.8267 24.4666 20.4654 24.4666 21.2533C24.4666 22.0413 25.1053 22.68 25.8932 22.68Z" fill="#669DF6"/>
<path d="M6.1066 22.68C6.89452 22.68 7.53327 22.0413 7.53327 21.2533C7.53327 20.4654 6.89452 19.8267 6.1066 19.8267C5.31867 19.8267 4.67993 20.4654 4.67993 21.2533C4.67993 22.0413 5.31867 22.68 6.1066 22.68Z" fill="#669DF6"/>
<path d="M16.0399 29.3333C16.8279 29.3333 17.4666 28.6946 17.4666 27.9066C17.4666 27.1187 16.8279 26.48 16.0399 26.48C15.252 26.48 14.6133 27.1187 14.6133 27.9066C14.6133 28.6946 15.252 29.3333 16.0399 29.3333Z" fill="#669DF6"/>
</svg>
