<svg width="32" height="32" viewBox="0 0 32 32" fill="none" xmlns="http://www.w3.org/2000/svg">
<path fill-rule="evenodd" clip-rule="evenodd" d="M27.5867 16.5732L16 22.3732V29.3332L27.5867 23.5332V16.5732Z" fill="#4285F4"/>
<path fill-rule="evenodd" clip-rule="evenodd" d="M22.96 10.7867V16.5733L27.5866 14.2667V8.46667L22.96 10.7867Z" fill="#4285F4"/>
<path fill-rule="evenodd" clip-rule="evenodd" d="M16 20.0533L20.64 17.7467V11.9467L16 14.2667V20.0533Z" fill="#4285F4"/>
<path d="M9.04 6.14661L4.41333 8.46661L9.04 10.7866L13.68 8.46661L9.04 6.14661Z" fill="#AECBFA"/>
<path fill-rule="evenodd" clip-rule="evenodd" d="M16 2.66663L11.36 4.98663L16 7.30663L22.96 10.7866L27.5867 8.46663L16 2.66663Z" fill="#AECBFA"/>
<path d="M16 9.62659L11.36 11.9466L16 14.2666L20.64 11.9466L16 9.62659Z" fill="#AECBFA"/>
<path d="M11.36 20V26.96L16 29.3333V22.3733L11.36 20ZM14.84 26.96L12.52 25.8V22.3733L14.84 23.5333V26.96Z" fill="#669DF6"/>
<path d="M4.41333 8.46667V23.5333L9.04 25.8533V10.7867L4.41333 8.46667ZM7.89333 23.5333L5.56 22.3733V9.04001L7.89333 10.2V23.5333Z" fill="#669DF6"/>
<path d="M11.36 12L16 14.2667V20L11.36 17.7467V12ZM14.84 17.8V13.8L12.52 12.6V16.6L14.84 17.8Z" fill="#669DF6"/>
</svg>
