<svg width="32" height="32" viewBox="0 0 32 32" fill="none" xmlns="http://www.w3.org/2000/svg">
<path fill-rule="evenodd" clip-rule="evenodd" d="M15.0133 9.14668L10.4933 6.48001C10.3759 6.41441 10.2729 6.32579 10.1905 6.21946C10.1082 6.11314 10.0481 5.99129 10.0139 5.86121C9.97973 5.73113 9.97214 5.59549 9.9916 5.46241C10.0111 5.32933 10.0572 5.20154 10.1271 5.08669C10.1971 4.97183 10.2896 4.87228 10.3989 4.79398C10.5083 4.71568 10.6323 4.66025 10.7636 4.631C10.8949 4.60174 11.0307 4.59927 11.1629 4.62373C11.2952 4.64819 11.4212 4.69908 11.5333 4.77335L16.0133 7.44001L15.0133 9.14668Z" fill="#AECBFA"/>
<path fill-rule="evenodd" clip-rule="evenodd" d="M15.36 13.7467L6.25337 8.48002C6.13955 8.41436 6.03979 8.32692 5.95977 8.2227C5.87975 8.11849 5.82103 7.99953 5.78699 7.87262C5.71822 7.61632 5.75409 7.34321 5.8867 7.11335C6.01931 6.8835 6.23779 6.71574 6.49409 6.64697C6.75039 6.57821 7.02351 6.61408 7.25337 6.74668L15.36 11.44V13.7467Z" fill="#AECBFA"/>
<path fill-rule="evenodd" clip-rule="evenodd" d="M26.1334 7.10672C25.9978 6.88924 25.7849 6.7312 25.5375 6.6644C25.2901 6.5976 25.0266 6.62702 24.8 6.74672L17 11.2001V9.13339L21.52 6.46672C21.7381 6.33144 21.8948 6.11655 21.957 5.86763C22.0193 5.61872 21.9821 5.35535 21.8534 5.13339C21.7158 4.91795 21.501 4.76336 21.2531 4.70137C21.0051 4.63938 20.7428 4.67469 20.52 4.80005L15.5334 7.70672C15.3753 7.79953 15.2442 7.93199 15.153 8.09101C15.0618 8.25002 15.0137 8.43008 15.0134 8.61339V28.0001C14.9971 28.1402 15.0107 28.2821 15.0532 28.4166C15.0957 28.5511 15.1661 28.6751 15.26 28.7804C15.3538 28.8858 15.4688 28.9701 15.5975 29.0278C15.7262 29.0855 15.8657 29.1153 16.0067 29.1153C16.1478 29.1153 16.2872 29.0855 16.4159 29.0278C16.5446 28.9701 16.6597 28.8858 16.7535 28.7804C16.8473 28.6751 16.9177 28.5511 16.9602 28.4166C17.0027 28.2821 17.0163 28.1402 17 28.0001V13.5201L25.76 8.48005C25.9903 8.34614 26.1585 8.12696 26.2284 7.86995C26.2982 7.61294 26.2641 7.33876 26.1334 7.10672Z" fill="#669DF6"/>
<path d="M16.0133 5.24C16.6319 5.24 17.1333 4.73856 17.1333 4.12C17.1333 3.50144 16.6319 3 16.0133 3C15.3948 3 14.8933 3.50144 14.8933 4.12C14.8933 4.73856 15.3948 5.24 16.0133 5.24Z" fill="#669DF6"/>
<path d="M12.64 14.4267C12.7932 14.5104 12.9211 14.6338 13.0102 14.784C13.0994 14.9341 13.1465 15.1054 13.1466 15.28V20.72C13.1474 20.8966 13.1009 21.0702 13.0118 21.2226C12.9226 21.3751 12.7942 21.5008 12.64 21.5867C12.4889 21.671 12.3195 21.7168 12.1466 21.7201C11.9697 21.7153 11.7963 21.6697 11.64 21.5867L5.87995 18.2667C5.6501 18.1341 5.48234 17.9156 5.41357 17.6593C5.34481 17.403 5.38068 17.1299 5.51329 16.9C5.64589 16.6702 5.86438 16.5024 6.12068 16.4337C6.37698 16.3649 6.6501 16.4008 6.87995 16.5334L11.1466 18.9867V15.8667L9.21329 14.76C8.99333 14.6267 8.83319 14.4138 8.76615 14.1655C8.6991 13.9172 8.73031 13.6526 8.85329 13.4267C8.98423 13.2042 9.19719 13.0418 9.44647 12.9745C9.69574 12.9072 9.96147 12.9403 10.1866 13.0667L12.64 14.4267Z" fill="#AECBFA"/>
<path d="M7.01331 13.4667C7.63187 13.4667 8.13331 12.9652 8.13331 12.3467C8.13331 11.7281 7.63187 11.2267 7.01331 11.2267C6.39475 11.2267 5.89331 11.7281 5.89331 12.3467C5.89331 12.9652 6.39475 13.4667 7.01331 13.4667Z" fill="#AECBFA"/>
<path d="M21.7867 13.0267C22.0118 12.9003 22.2775 12.8672 22.5268 12.9345C22.7761 13.0018 22.9891 13.1641 23.12 13.3867C23.243 13.6126 23.2742 13.8772 23.2071 14.1255C23.1401 14.3738 22.98 14.5867 22.76 14.72L20.8267 15.8267V18.9467L25.0933 16.4933C25.2071 16.4277 25.3328 16.3851 25.4631 16.368C25.5933 16.3509 25.7257 16.3596 25.8526 16.3936C25.9795 16.4277 26.0985 16.4864 26.2027 16.5664C26.3069 16.6464 26.3943 16.7462 26.46 16.86C26.5257 16.9738 26.5683 17.0995 26.5854 17.2297C26.6025 17.36 26.5938 17.4924 26.5597 17.6193C26.5257 17.7462 26.467 17.8651 26.3869 17.9694C26.3069 18.0736 26.2071 18.161 26.0933 18.2267L20.3333 21.5467C20.177 21.6296 20.0036 21.6753 19.8267 21.68C19.6538 21.6767 19.4843 21.6309 19.3333 21.5467C19.1791 21.4608 19.0507 21.335 18.9615 21.1826C18.8724 21.0302 18.8258 20.8566 18.8267 20.68V15.28C18.8268 15.1054 18.8739 14.9341 18.9631 14.7839C19.0522 14.6338 19.1801 14.5104 19.3333 14.4267L21.7867 13.0267Z" fill="#4285F4"/>
<path d="M24.9867 13.4667C25.6053 13.4667 26.1067 12.9652 26.1067 12.3467C26.1067 11.7281 25.6053 11.2267 24.9867 11.2267C24.3681 11.2267 23.8667 11.7281 23.8667 12.3467C23.8667 12.9652 24.3681 13.4667 24.9867 13.4667Z" fill="#4285F4"/>
</svg>
