<svg width="32" height="32" viewBox="0 0 32 32" fill="none" xmlns="http://www.w3.org/2000/svg">
<path fill-rule="evenodd" clip-rule="evenodd" d="M22.1866 20.1734L23.1733 18.5067H27.88L29.3333 16L26.4266 11H22.3333L20.92 8.52004H19.3333V6.84004H21.92L23.3333 9.33337H25.4533L22.5333 4.33337H16.84V11H19.1466L20.12 12.6667H16.84V16H19.8533L21.2533 13.5067H25L25.96 15.1734H22.2266L20.8266 17.6667H16.84V23.5067H21.3733L20.4133 25.1734H16.84V27.6667H22.5333L26.9066 20.1734H24.12L23.1466 21.84H19.3333V20.1734H22.1866Z" fill="#4285F4"/>
<path fill-rule="evenodd" clip-rule="evenodd" d="M9.81329 20.1734L8.82663 18.5067H4.11996L2.66663 16L5.57329 11H9.66663L11.08 8.52004H12.6666V6.84004H10.08L8.66663 9.33337H6.54663L9.46663 4.33337H15.1733V11H12.8533L11.88 12.6667H15.1733V16H12.1466L10.7466 13.5067H6.99996L6.03996 15.1734H9.77329L11.1733 17.6667H15.1733V23.5067H10.6266L11.5866 25.1734H15.1733V27.6667H9.46663L5.09329 20.1734H7.87996L8.85329 21.84H12.6666V20.1734H9.81329Z" fill="#669DF6"/>
</svg>
