<svg width="32" height="32" viewBox="0 0 32 32" fill="none" xmlns="http://www.w3.org/2000/svg">
<path d="M14.04 15.5733L10.5734 13.48C10.6252 13.3293 10.6566 13.1723 10.6667 13.0133C10.6693 12.6509 10.5641 12.2959 10.3644 11.9935C10.1647 11.691 9.87958 11.4548 9.54526 11.3149C9.21094 11.175 8.84256 11.1377 8.48699 11.2078C8.13141 11.2779 7.80471 11.4521 7.54845 11.7084C7.29218 11.9646 7.11794 12.2913 7.04788 12.6469C6.97783 13.0025 7.01512 13.3709 7.15503 13.7052C7.29493 14.0395 7.53112 14.3246 7.83355 14.5243C8.13598 14.724 8.49098 14.8293 8.85338 14.8266C9.31084 14.8278 9.75081 14.6509 10.08 14.3333L13.56 16.4266C13.6342 16.4788 13.7227 16.5067 13.8134 16.5066C13.9212 16.5025 14.025 16.464 14.1095 16.3968C14.1939 16.3296 14.2547 16.2372 14.283 16.133C14.3113 16.0289 14.3056 15.9184 14.2666 15.8177C14.2277 15.717 14.1577 15.6314 14.0667 15.5733H14.04ZM8.82671 13.8266C8.611 13.8266 8.40413 13.7409 8.2516 13.5884C8.09907 13.4359 8.01338 13.229 8.01338 13.0133C8.01338 12.7976 8.09907 12.5907 8.2516 12.4382C8.40413 12.2856 8.611 12.2 8.82671 12.2C9.04242 12.2 9.2493 12.2856 9.40183 12.4382C9.55436 12.5907 9.64005 12.7976 9.64005 13.0133C9.64005 13.229 9.55436 13.4359 9.40183 13.5884C9.2493 13.7409 9.04242 13.8266 8.82671 13.8266Z" fill="#669DF6"/>
<path d="M12.2667 25.1067C10.4639 25.1146 8.69926 24.5872 7.19642 23.5914C5.69358 22.5956 4.52014 21.1761 3.82474 19.5128C3.12934 17.8495 2.94328 16.0172 3.29013 14.248C3.63698 12.4789 4.50114 10.8525 5.77312 9.57491C7.04511 8.29731 8.66768 7.426 10.4353 7.07137C12.2029 6.71673 14.036 6.89472 15.7023 7.58279C17.3687 8.27086 18.7933 9.43805 19.7958 10.9365C20.7982 12.4349 21.3333 14.1972 21.3333 16C21.3264 18.4062 20.3702 20.7124 18.6725 22.4176C16.9748 24.1228 14.6728 25.0891 12.2667 25.1067ZM12.2667 8.90668C10.86 8.90405 9.48413 9.31894 8.3134 10.0988C7.14268 10.8787 6.22973 11.9885 5.69019 13.2876C5.15065 14.5867 5.0088 16.0167 5.28258 17.3965C5.55637 18.7763 6.23349 20.0438 7.22817 21.0385C8.22286 22.0332 9.49037 22.7103 10.8702 22.9841C12.25 23.2579 13.68 23.116 14.9791 22.5765C16.2782 22.0369 17.388 21.124 18.1679 19.9533C18.9477 18.7826 19.3626 17.4067 19.36 16C19.3565 14.1198 18.608 12.3177 17.2785 10.9882C15.949 9.65867 14.1469 8.91021 12.2667 8.90668Z" fill="#AECBFA"/>
<path d="M26.36 20.72C25.8304 20.72 25.3153 20.8933 24.8934 21.2134L17.2134 16.8134C17.2804 16.5469 17.3206 16.2745 17.3334 16C17.325 15.726 17.2892 15.4536 17.2267 15.1867L24.9067 10.7867C25.3287 11.1068 25.8438 11.28 26.3734 11.28C26.8633 11.2774 27.3415 11.1297 27.7475 10.8556C28.1536 10.5815 28.4694 10.1933 28.6551 9.73989C28.8407 9.2865 28.8879 8.78828 28.7908 8.30809C28.6936 7.8279 28.4563 7.38725 28.109 7.04175C27.7616 6.69625 27.3197 6.46137 26.839 6.36676C26.3583 6.27214 25.8603 6.32203 25.4079 6.51012C24.9556 6.69821 24.569 7.01608 24.2971 7.42362C24.0252 7.83116 23.8801 8.31011 23.88 8.80003C23.8742 8.88438 23.8742 8.96902 23.88 9.05337L16.12 13.4934C15.6413 13.0854 15.0557 12.823 14.4325 12.7374C13.8093 12.6517 13.1746 12.7463 12.6035 13.01C12.0324 13.2737 11.5488 13.6954 11.2098 14.2252C10.8708 14.7551 10.6907 15.371 10.6907 16C10.6907 16.6291 10.8708 17.2449 11.2098 17.7748C11.5488 18.3047 12.0324 18.7264 12.6035 18.9901C13.1746 19.2537 13.8093 19.3483 14.4325 19.2627C15.0557 19.177 15.6413 18.9147 16.12 18.5067L23.88 22.9467C23.8742 23.031 23.8742 23.1157 23.88 23.2C23.88 23.6905 24.0255 24.17 24.298 24.5778C24.5705 24.9857 24.9578 25.3035 25.411 25.4913C25.8642 25.679 26.3628 25.7281 26.8439 25.6324C27.3249 25.5367 27.7668 25.3005 28.1137 24.9537C28.4605 24.6068 28.6967 24.1649 28.7924 23.6839C28.8881 23.2028 28.839 22.7041 28.6513 22.251C28.4636 21.7978 28.1457 21.4105 27.7379 21.138C27.33 20.8655 26.8505 20.72 26.36 20.72Z" fill="#4285F4"/>
</svg>
