<svg width="32" height="32" viewBox="0 0 32 32" fill="none" xmlns="http://www.w3.org/2000/svg">
<path d="M18.4326 21.6835L19.7075 22.9578C19.8201 22.9367 19.9363 22.9256 20.0551 22.9256C21.0882 22.9256 21.9257 23.7631 21.9257 24.7962C21.9257 25.8292 21.0882 26.6667 20.0551 26.6667C19.022 26.6667 18.1846 25.8292 18.1846 24.7962C18.1846 24.6779 18.1955 24.5621 18.2165 24.4499L16.9414 23.1747L18.4326 21.6835ZM20.0551 5.33337C21.0882 5.33337 21.9257 6.17085 21.9257 7.20393C21.9257 8.23701 21.0882 9.07449 20.0551 9.07449C19.9363 9.07449 19.8201 9.06342 19.7075 9.04225L12.7496 16L15.9446 19.195L18.1441 16.9964L19.6347 18.488L13.7649 24.3585C13.7986 24.4989 13.8164 24.6454 13.8164 24.7962C13.8164 25.8292 12.9789 26.6667 11.9458 26.6667C10.9128 26.6667 10.0753 25.8292 10.0753 24.7962C10.0753 23.7631 10.9128 22.9256 11.9458 22.9256C12.0312 22.9256 12.1152 22.9313 12.1975 22.9424L14.454 20.6866L7.55147 13.7833C7.43886 13.8045 7.32269 13.8155 7.20393 13.8155C6.17085 13.8155 5.33337 12.978 5.33337 11.945C5.33337 10.9119 6.17085 10.0744 7.20393 10.0744C8.23701 10.0744 9.07449 10.9119 9.07449 11.945C9.07449 12.0637 9.06342 12.1799 9.04225 12.2926L11.2581 14.5085L14.454 11.3135L12.1975 9.0577C12.1152 9.06877 12.0312 9.07449 11.9458 9.07449C10.9128 9.07449 10.0753 8.23701 10.0753 7.20393C10.0753 6.17085 10.9128 5.33337 11.9458 5.33337C12.9789 5.33337 13.8164 6.17085 13.8164 7.20393C13.8164 7.35466 13.7986 7.50122 13.7649 7.64163L15.9446 9.82201L18.2165 7.55015C18.1955 7.43795 18.1846 7.32222 18.1846 7.20393C18.1846 6.17085 19.022 5.33337 20.0551 5.33337ZM24.7962 10.0744C25.8292 10.0744 26.6667 10.9119 26.6667 11.945C26.6667 12.978 25.8292 13.8155 24.7962 13.8155C24.6454 13.8155 24.4989 13.7977 24.3585 13.764L22.1227 16L24.3585 18.236C24.4989 18.2024 24.6454 18.1846 24.7962 18.1846C25.8292 18.1846 26.6667 19.022 26.6667 20.0551C26.6667 21.0882 25.8292 21.9257 24.7962 21.9257C23.7631 21.9257 22.9256 21.0882 22.9256 20.0551C22.9256 19.9699 22.9313 19.8861 22.9423 19.804L16.941 13.8015L18.4326 12.3099L20.6311 14.5085L22.9423 12.1961C22.9313 12.114 22.9256 12.0301 22.9256 11.945C22.9256 10.9119 23.7631 10.0744 24.7962 10.0744ZM8.77058 16.9959L10.2618 18.4871L9.04225 19.7075C9.06342 19.8201 9.07449 19.9363 9.07449 20.0551C9.07449 21.0882 8.23701 21.9257 7.20393 21.9257C6.17085 21.9257 5.33337 21.0882 5.33337 20.0551C5.33337 19.022 6.17085 18.1846 7.20393 18.1846C7.32222 18.1846 7.43795 18.1955 7.55015 18.2165L8.77058 16.9959Z" fill="#4285F4"/>
</svg>
