<svg width="32" height="32" viewBox="0 0 32 32" fill="none" xmlns="http://www.w3.org/2000/svg">
<path d="M21.8534 18.6667V12.6267L16.52 9.57337V5.04004H15.3734V9.57337L10.04 12.6267V18.6667L6.04004 21L6.61337 21.9867L10.6134 19.6534H10.6667L16 22.6934L21.3334 19.6534L25.24 21.9067L25.8134 20.92L21.8534 18.6667ZM18.7467 19.84C18.5622 19.837 18.3813 19.7878 18.2206 19.6969C18.0599 19.6061 17.9245 19.4766 17.8267 19.32H12.1734V18.1867H17.8267C17.9245 18.0302 18.0599 17.9006 18.2206 17.8098C18.3813 17.719 18.5622 17.6698 18.7467 17.6667C19.0142 17.6964 19.2613 17.8236 19.4408 18.0241C19.6202 18.2246 19.7195 18.4843 19.7195 18.7534C19.7195 19.0225 19.6202 19.2821 19.4408 19.4826C19.2613 19.6831 19.0142 19.8104 18.7467 19.84ZM19.8267 16.52H16.9334C16.8383 16.6833 16.7021 16.8188 16.5383 16.9129C16.3746 17.0071 16.189 17.0566 16 17.0566C15.8111 17.0566 15.6255 17.0071 15.4617 16.9129C15.298 16.8188 15.1618 16.6833 15.0667 16.52H12.1734V15.3734H15.0934C15.1913 15.222 15.3256 15.0976 15.484 15.0115C15.6423 14.9253 15.8198 14.8802 16 14.8802C16.1803 14.8802 16.3577 14.9253 16.5161 15.0115C16.6745 15.0976 16.8087 15.222 16.9067 15.3734H19.8267V16.52ZM19.8267 13.7067H14.1734C14.0756 13.8632 13.9401 13.9928 13.7795 14.0836C13.6188 14.1744 13.4379 14.2236 13.2534 14.2267C12.9859 14.197 12.7388 14.0698 12.5593 13.8693C12.3798 13.6688 12.2806 13.4091 12.2806 13.14C12.2806 12.8709 12.3798 12.6113 12.5593 12.4108C12.7388 12.2103 12.9859 12.083 13.2534 12.0534C13.4379 12.0565 13.6188 12.1056 13.7795 12.1965C13.9401 12.2873 14.0756 12.4169 14.1734 12.5734H19.8267V13.7067Z" fill="#4285F4"/>
<path d="M27.4133 10.08V21.9067C27.4142 22.1124 27.3603 22.3147 27.2572 22.4928C27.1541 22.6709 27.0055 22.8183 26.8267 22.92L16.5867 28.84C16.4086 28.944 16.2062 28.9991 16 29V26.88L25.4267 21.44V10.56L16 5.12V3C16.2042 3.00331 16.4049 3.05349 16.5867 3.14667L26.8267 9.06667C27.0037 9.17042 27.1509 9.31833 27.2537 9.49594C27.3565 9.67354 27.4115 9.87478 27.4133 10.08Z" fill="#669DF6"/>
<path d="M4.58668 10.08V21.9067C4.58581 22.1124 4.63968 22.3147 4.74278 22.4928C4.84587 22.6709 4.99447 22.8183 5.17335 22.92L15.4133 28.84C15.5914 28.944 15.7938 28.9991 16 29V26.88L6.57335 21.44V10.56L16 5.12V3C15.7958 3.00331 15.5951 3.05349 15.4133 3.14667L5.17335 9.06667C4.99628 9.17042 4.84915 9.31833 4.74633 9.49594C4.6435 9.67354 4.5885 9.87478 4.58668 10.08Z" fill="#AECBFA"/>
</svg>
