<svg width="32" height="32" viewBox="0 0 32 32" fill="none" xmlns="http://www.w3.org/2000/svg">
<path d="M4.62666 20.9066C3.76965 20.1586 3.15394 19.173 2.85749 18.0748C2.56105 16.9765 2.59723 15.815 2.96143 14.7373C3.32564 13.6597 4.00149 12.7143 4.90339 12.0211C5.80528 11.3278 6.89264 10.9178 8.02773 10.843C9.16282 10.7682 10.2946 11.032 11.2796 11.6009C12.2647 12.1698 13.0588 13.0183 13.5613 14.0388C14.0637 15.0594 14.252 16.2061 14.1023 17.3338C13.9525 18.4614 13.4714 19.5193 12.72 20.3733C12.5604 20.564 12.3866 20.7423 12.2 20.9066C11.1508 21.822 9.80564 22.3263 8.41333 22.3263C7.02101 22.3263 5.67582 21.822 4.62666 20.9066ZM11.56 13.9733C11.042 13.3518 10.3514 12.8978 9.57557 12.6686C8.79969 12.4393 7.97327 12.4451 7.2007 12.6853C6.42812 12.9254 5.74403 13.3891 5.23483 14.0178C4.72562 14.6465 4.41414 15.412 4.33972 16.2176C4.2653 17.0232 4.43128 17.8328 4.81669 18.5442C5.20211 19.2555 5.78967 19.8367 6.50518 20.2143C7.22069 20.5919 8.03205 20.749 8.8368 20.6658C9.64154 20.5825 10.4036 20.2627 11.0267 19.7466C11.2208 19.5861 11.3994 19.4075 11.56 19.2133C12.1728 18.4778 12.5083 17.5507 12.5083 16.5933C12.5083 15.6359 12.1728 14.7089 11.56 13.9733Z" fill="#4285F4"/>
<path d="M19.8133 20.9066C18.9563 20.1586 18.3406 19.173 18.0441 18.0748C17.7477 16.9765 17.7839 15.815 18.1481 14.7373C18.5123 13.6597 19.1881 12.7143 20.09 12.0211C20.9919 11.3278 22.0793 10.9178 23.2144 10.843C24.3495 10.7682 25.4812 11.032 26.4663 11.6009C27.4514 12.1698 28.2454 13.0183 28.7479 14.0388C29.2504 15.0594 29.4387 16.2061 29.2889 17.3338C29.1391 18.4614 28.6581 19.5193 27.9066 20.3733C27.7424 20.5642 27.5642 20.7424 27.3733 20.9066C26.3263 21.821 24.9834 22.3248 23.5933 22.3248C22.2033 22.3248 20.8603 21.821 19.8133 20.9066ZM26.7466 13.9733C26.2286 13.3518 25.5381 12.8978 24.7622 12.6686C23.9863 12.4393 23.1599 12.4451 22.3873 12.6853C21.6148 12.9254 20.9307 13.3891 20.4215 14.0178C19.9123 14.6465 19.6008 15.412 19.5264 16.2176C19.4519 17.0232 19.6179 17.8328 20.0033 18.5442C20.3888 19.2555 20.9763 19.8367 21.6918 20.2143C22.4073 20.5919 23.2187 20.749 24.0234 20.6658C24.8282 20.5825 25.5902 20.2627 26.2133 19.7466C26.4075 19.5861 26.5861 19.4075 26.7466 19.2133C27.357 18.4766 27.691 17.55 27.691 16.5933C27.691 15.6366 27.357 14.71 26.7466 13.9733Z" fill="#4285F4"/>
<path d="M8.41337 18.8399C9.65785 18.8399 10.6667 17.8311 10.6667 16.5866C10.6667 15.3421 9.65785 14.3333 8.41337 14.3333C7.16889 14.3333 6.16003 15.3421 6.16003 16.5866C6.16003 17.8311 7.16889 18.8399 8.41337 18.8399Z" fill="#669DF6"/>
<path d="M23.5867 18.8399C24.8312 18.8399 25.84 17.8311 25.84 16.5866C25.84 15.3421 24.8312 14.3333 23.5867 14.3333C22.3422 14.3333 21.3334 15.3421 21.3334 16.5866C21.3334 17.8311 22.3422 18.8399 23.5867 18.8399Z" fill="#669DF6"/>
<path d="M19.1867 10.4133C19.2567 10.362 19.3087 10.29 19.3355 10.2074C19.3623 10.1249 19.3624 10.0361 19.3358 9.95345C19.3093 9.87085 19.2574 9.7987 19.1876 9.74722C19.1177 9.69574 19.0335 9.66754 18.9467 9.66663H13.0534C12.9666 9.66754 12.8823 9.69574 12.8125 9.74722C12.7427 9.7987 12.6908 9.87085 12.6642 9.95345C12.6377 10.0361 12.6378 10.1249 12.6646 10.2074C12.6913 10.29 12.7434 10.362 12.8134 10.4133C14.1553 11.3707 15.1515 12.7364 15.6534 14.3066C15.6891 14.3982 15.7596 14.472 15.8495 14.512C15.9394 14.5519 16.0414 14.5548 16.1334 14.52C16.1852 14.5006 16.2322 14.4703 16.2713 14.4312C16.3104 14.3921 16.3407 14.3451 16.36 14.2933C16.8557 12.7272 17.848 11.3652 19.1867 10.4133Z" fill="#AECBFA"/>
</svg>
