<svg width="32" height="32" viewBox="0 0 32 32" fill="none" xmlns="http://www.w3.org/2000/svg">
<path d="M7.82669 27.32C7.76994 27.8106 7.53482 28.2633 7.16605 28.5919C6.79728 28.9204 6.3206 29.102 5.82669 29.102C5.33278 29.102 4.85609 28.9204 4.48733 28.5919C4.11856 28.2633 3.88344 27.8106 3.82669 27.32V21.6133C3.79407 21.3313 3.82147 21.0455 3.90709 20.7748C3.99271 20.5041 4.13461 20.2546 4.32348 20.0426C4.51236 19.8306 4.74393 19.661 5.003 19.5449C5.26207 19.4287 5.54277 19.3687 5.82669 19.3687C6.1106 19.3687 6.39131 19.4287 6.65038 19.5449C6.90945 19.661 7.14102 19.8306 7.32989 20.0426C7.51877 20.2546 7.66067 20.5041 7.74629 20.7748C7.83191 21.0455 7.85931 21.3313 7.82669 21.6133V27.32Z" fill="#4285F4"/>
<path d="M14.6667 27.32C14.61 27.8106 14.3749 28.2633 14.0061 28.5919C13.6373 28.9204 13.1607 29.102 12.6667 29.102C12.1728 29.102 11.6962 28.9204 11.3274 28.5919C10.9586 28.2633 10.7235 27.8106 10.6667 27.32V21.6133C10.7235 21.1227 10.9586 20.67 11.3274 20.3414C11.6962 20.0129 12.1728 19.8313 12.6667 19.8313C13.1607 19.8313 13.6373 20.0129 14.0061 20.3414C14.3749 20.67 14.61 21.1227 14.6667 21.6133V27.32Z" fill="#4285F4"/>
<path d="M21.4133 27.32C21.3566 27.8106 21.1215 28.2633 20.7527 28.5919C20.3839 28.9204 19.9072 29.102 19.4133 29.102C18.9194 29.102 18.4427 28.9204 18.074 28.5919C17.7052 28.2633 17.4701 27.8106 17.4133 27.32V21.6133C17.4701 21.1227 17.7052 20.67 18.074 20.3414C18.4427 20.0129 18.9194 19.8313 19.4133 19.8313C19.9072 19.8313 20.3839 20.0129 20.7527 20.3414C21.1215 20.67 21.3566 21.1227 21.4133 21.6133V27.32Z" fill="#4285F4"/>
<path d="M28.2 27.32C28.1432 27.8106 27.9081 28.2633 27.5393 28.5919C27.1706 28.9204 26.6939 29.102 26.2 29.102C25.7061 29.102 25.2294 28.9204 24.8606 28.5919C24.4919 28.2633 24.2567 27.8106 24.2 27.32V21.6133C24.1674 21.3313 24.1948 21.0455 24.2804 20.7748C24.366 20.5041 24.5079 20.2546 24.6968 20.0426C24.8856 19.8306 25.1172 19.661 25.3763 19.5449C25.6354 19.4287 25.9161 19.3687 26.2 19.3687C26.4839 19.3687 26.7646 19.4287 27.0237 19.5449C27.2827 19.661 27.5143 19.8306 27.7032 20.0426C27.8921 20.2546 28.034 20.5041 28.1196 20.7748C28.2052 21.0455 28.2326 21.3313 28.2 21.6133V27.32Z" fill="#4285F4"/>
<path d="M12.6 17.9733C13.7119 17.9733 14.6133 17.0719 14.6133 15.96C14.6133 14.8481 13.7119 13.9467 12.6 13.9467C11.4881 13.9467 10.5867 14.8481 10.5867 15.96C10.5867 17.0719 11.4881 17.9733 12.6 17.9733Z" fill="#AECBFA"/>
<path d="M19.4001 17.9733C20.512 17.9733 21.4134 17.0719 21.4134 15.96C21.4134 14.8481 20.512 13.9467 19.4001 13.9467C18.2881 13.9467 17.3867 14.8481 17.3867 15.96C17.3867 17.0719 18.2881 17.9733 19.4001 17.9733Z" fill="#669DF6"/>
<path d="M19.4001 12.3333C20.512 12.3333 21.4134 11.4319 21.4134 10.32C21.4134 9.20804 20.512 8.30664 19.4001 8.30664C18.2881 8.30664 17.3867 9.20804 17.3867 10.32C17.3867 11.4319 18.2881 12.3333 19.4001 12.3333Z" fill="#AECBFA"/>
<path d="M26.1867 17.9733C27.2986 17.9733 28.2 17.0719 28.2 15.96C28.2 14.8481 27.2986 13.9467 26.1867 13.9467C25.0747 13.9467 24.1733 14.8481 24.1733 15.96C24.1733 17.0719 25.0747 17.9733 26.1867 17.9733Z" fill="#669DF6"/>
<path d="M26.1867 12.3333C27.2986 12.3333 28.2 11.4319 28.2 10.32C28.2 9.20804 27.2986 8.30664 26.1867 8.30664C25.0747 8.30664 24.1733 9.20804 24.1733 10.32C24.1733 11.4319 25.0747 12.3333 26.1867 12.3333Z" fill="#669DF6"/>
<path d="M26.1867 6.69329C27.2986 6.69329 28.2 5.79189 28.2 4.67996C28.2 3.56803 27.2986 2.66663 26.1867 2.66663C25.0747 2.66663 24.1733 3.56803 24.1733 4.67996C24.1733 5.79189 25.0747 6.69329 26.1867 6.69329Z" fill="#AECBFA"/>
</svg>
