<svg width="32" height="32" viewBox="0 0 32 32" fill="none" xmlns="http://www.w3.org/2000/svg">
<path d="M28.5601 12.0001L28.0934 11.8801L26.6667 11.5201L26.5467 11.2667C26.4801 11.1467 26.4267 11.0134 26.3601 10.8801C26.2934 10.7467 26.2401 10.6401 26.1734 10.5201L25.9601 10.1467L25.7467 9.80006L25.5201 9.45339C25.4431 9.33676 25.3585 9.2254 25.2667 9.12006C25.1867 9.01339 25.1067 8.89339 25.0134 8.78672L24.7467 8.46672L24.4801 8.16006L24.1334 7.86672L23.8401 7.57339L23.5201 7.30672L23.2134 7.04006L22.8801 6.78672L22.5467 6.53339L22.2001 6.30672L21.8534 6.09339L21.4801 5.88006L21.1201 5.69339L20.7334 5.50672L20.4801 5.40006L20.0934 3.90672L20.0001 3.44006C19.9403 3.21475 19.8067 3.01604 19.6205 2.8758C19.4343 2.73556 19.2064 2.66193 18.9734 2.66672H13.0267C12.7937 2.66193 12.5658 2.73556 12.3796 2.8758C12.1934 3.01604 12.0598 3.21475 12.0001 3.44006L11.8801 3.90672L11.5201 5.40006L11.2667 5.50672L10.8801 5.69339L10.5201 5.88006L10.1467 6.09339L9.80006 6.30672L9.45339 6.53339L9.12006 6.78672L8.78672 7.04006L8.46672 7.30672L8.16006 7.57339L7.86672 7.86672L7.57339 8.16006L7.30672 8.48006C7.21085 8.57599 7.12175 8.67846 7.04006 8.78672C6.94672 8.89339 6.86672 9.01339 6.78672 9.12006C6.69494 9.2254 6.61031 9.33676 6.53339 9.45339L6.30672 9.80006L6.09339 10.1467L5.88006 10.5201C5.88006 10.6401 5.74672 10.7601 5.69339 10.8801C5.64006 11.0001 5.57339 11.1467 5.50672 11.2667C5.44006 11.3867 5.42672 11.4401 5.40006 11.5201L3.90672 11.9067L3.44006 12.0001C3.21475 12.0598 3.01604 12.1934 2.8758 12.3796C2.73556 12.5658 2.66193 12.7937 2.66672 13.0267V18.9734C2.66787 19.2019 2.74424 19.4236 2.88402 19.6044C3.02379 19.7851 3.21921 19.9148 3.44006 19.9734L3.90672 20.0934L5.40006 20.4801C5.40006 20.5601 5.48006 20.6401 5.50672 20.7334C5.53339 20.8267 5.62672 20.9867 5.69339 21.1201C5.76006 21.2534 5.81339 21.3601 5.88006 21.4801L6.09339 21.8534L6.30672 22.2001L6.53339 22.5467C6.61031 22.6634 6.69494 22.7747 6.78672 22.8801C6.86672 22.9867 6.94672 23.1067 7.04006 23.2134C7.12175 23.3217 7.21085 23.4241 7.30672 23.5201L7.57339 23.8401L7.86672 24.1334L8.16006 24.4267L8.48006 24.6934L8.78672 24.9601L9.12006 25.2134L9.45339 25.4667L9.80006 25.6934L10.1467 25.9067L10.5201 26.1201L10.8801 26.3067L11.2667 26.4934L11.5201 26.6001L11.9067 28.0934L12.0267 28.5601C12.0853 28.7809 12.215 28.9763 12.3957 29.1161C12.5765 29.2559 12.7982 29.3322 13.0267 29.3334H18.9734C19.2019 29.3322 19.4236 29.2559 19.6044 29.1161C19.7851 28.9763 19.9148 28.7809 19.9734 28.5601L20.0934 28.0934L20.4801 26.6667L20.7334 26.5601L21.1201 26.3734L21.4801 26.1867L21.8534 25.9734L22.2001 25.7601L22.5467 25.5334L22.8801 25.2801L23.2134 25.0267L23.5334 24.7601L23.8401 24.4934L24.1334 24.2001L24.4267 23.9067L24.6934 23.5867C24.7893 23.4908 24.8784 23.3883 24.9601 23.2801C25.0534 23.1734 25.1334 23.0534 25.2134 22.9467C25.3052 22.8414 25.3898 22.73 25.4667 22.6134L25.6934 22.2667L25.9067 21.9201L26.1201 21.5467C26.1867 21.4267 26.2534 21.3067 26.3067 21.1867C26.3601 21.0667 26.4267 20.9201 26.4934 20.8001C26.5601 20.6801 26.5734 20.6267 26.6001 20.5467L28.0934 20.1601L28.5601 20.0401C28.7809 19.9815 28.9763 19.8518 29.1161 19.671C29.2559 19.4903 29.3322 19.2685 29.3334 19.0401V13.0267C29.3382 12.7937 29.2646 12.5658 29.1243 12.3796C28.9841 12.1934 28.7854 12.0598 28.5601 12.0001ZM16.0001 24.8934C14.2449 24.8908 12.5299 24.368 11.0716 23.3913C9.61336 22.4145 8.47725 21.0275 7.8068 19.4055C7.13635 17.7834 6.96162 15.999 7.30468 14.2777C7.64774 12.5564 8.49321 10.9754 9.73429 9.73429C10.9754 8.49321 12.5564 7.64774 14.2777 7.30468C15.999 6.96162 17.7834 7.13635 19.4055 7.8068C21.0275 8.47725 22.4145 9.61336 23.3913 11.0716C24.368 12.5299 24.8908 14.2449 24.8934 16.0001C24.892 16.596 24.8295 17.1902 24.7067 17.7734C24.3051 19.7851 23.2173 21.595 21.6293 22.8936C20.0412 24.1922 18.0515 24.8991 16.0001 24.8934Z" fill="#4285F4"/>
<path d="M16 9.17334C15.5023 9.17309 15.0061 9.22674 14.52 9.33334L14.88 10.9733C15.8734 10.7527 16.91 10.8314 17.8586 11.1997C18.8073 11.568 19.6255 12.2092 20.2098 13.0424C20.7941 13.8755 21.1183 14.8632 21.1414 15.8806C21.1646 16.898 20.8856 17.8994 20.3397 18.7582C19.7938 19.6171 19.0056 20.2948 18.0747 20.7058C17.1437 21.1168 16.1118 21.2426 15.1094 21.0672C14.107 20.8919 13.179 20.4233 12.4429 19.7208C11.7067 19.0182 11.1953 18.1131 10.9733 17.12C10.8939 16.752 10.8537 16.3765 10.8533 16H9.17334C9.17334 17.3502 9.57372 18.6701 10.3238 19.7927C11.074 20.9153 12.1401 21.7903 13.3876 22.307C14.635 22.8237 16.0076 22.9589 17.3318 22.6955C18.6561 22.4321 19.8725 21.7819 20.8272 20.8272C21.7819 19.8725 22.4321 18.6561 22.6955 17.3318C22.9589 16.0076 22.8237 14.635 22.307 13.3876C21.7903 12.1401 20.9153 11.074 19.7927 10.3238C18.6701 9.57372 17.3502 9.17334 16 9.17334Z" fill="#669DF6"/>
<path d="M16.0001 12.5601C15.749 12.5596 15.4986 12.5864 15.2534 12.6401L15.6134 14.2934C15.9534 14.217 16.3085 14.2432 16.6336 14.3688C16.9587 14.4944 17.2392 14.7137 17.4396 14.9989C17.6399 15.2841 17.7511 15.6223 17.7589 15.9707C17.7668 16.3192 17.6711 16.6621 17.4838 16.9561C17.2966 17.25 17.0263 17.4818 16.7072 17.6219C16.3881 17.7621 16.0346 17.8044 15.6914 17.7434C15.3483 17.6824 15.031 17.5209 14.7797 17.2794C14.5285 17.0379 14.3546 16.7272 14.2801 16.3867C14.267 16.2582 14.267 16.1286 14.2801 16.0001H12.5601C12.5601 16.6804 12.7618 17.3455 13.1398 17.9112C13.5178 18.4769 14.0551 18.9178 14.6836 19.1782C15.3122 19.4386 16.0039 19.5067 16.6712 19.374C17.3385 19.2412 17.9514 18.9136 18.4325 18.4325C18.9136 17.9514 19.2412 17.3385 19.374 16.6712C19.5067 16.0039 19.4386 15.3122 19.1782 14.6836C18.9178 14.0551 18.4769 13.5178 17.9112 13.1398C17.3455 12.7618 16.6804 12.5601 16.0001 12.5601Z" fill="#AECBFA"/>
</svg>
