<svg width="32" height="32" viewBox="0 0 32 32" fill="none" xmlns="http://www.w3.org/2000/svg">
<path fill-rule="evenodd" clip-rule="evenodd" d="M6.93329 16L8.69329 14.24L6.30663 11.8533C5.76688 11.3037 5.40101 10.6073 5.25472 9.85103C5.10843 9.09475 5.1882 8.31213 5.48406 7.60092C5.77993 6.88971 6.27877 6.28143 6.9183 5.85205C7.55782 5.42267 8.30968 5.19123 9.07996 5.18663C9.59286 5.18654 10.1007 5.28779 10.5744 5.48457C11.048 5.68135 11.4781 5.96978 11.84 6.33329L14.24 8.71996L16 6.93329L13.6133 4.54663C13.0239 3.92526 12.316 3.42824 11.5314 3.0849C10.7467 2.74156 9.9013 2.55885 9.04493 2.54756C8.18855 2.53626 7.33859 2.6966 6.54519 3.01912C5.75179 3.34165 5.03102 3.81982 4.42542 4.42542C3.81982 5.03102 3.34165 5.75179 3.01912 6.54519C2.6966 7.33859 2.53626 8.18855 2.54756 9.04493C2.55885 9.9013 2.74156 10.7467 3.0849 11.5314C3.42824 12.316 3.92526 13.0239 4.54663 13.6133L6.93329 16Z" fill="#669DF6"/>
<path fill-rule="evenodd" clip-rule="evenodd" d="M25.0667 16L23.3067 17.76L25.6933 20.16C26.3833 20.9042 26.7577 21.8869 26.7379 22.9016C26.7182 23.9162 26.3057 24.8836 25.5872 25.6003C24.8688 26.317 23.9004 26.7272 22.8857 26.7445C21.871 26.7619 20.8892 26.3851 20.1467 25.6933L17.76 23.3067L16 25.0667L18.3867 27.4533C18.9761 28.0747 19.684 28.5717 20.4686 28.9151C21.2532 29.2584 22.0987 29.4411 22.955 29.4524C23.8114 29.4637 24.6614 29.3034 25.4548 28.9808C26.2482 28.6583 26.9689 28.1801 27.5745 27.5745C28.1801 26.9689 28.6583 26.2482 28.9808 25.4548C29.3034 24.6614 29.4637 23.8114 29.4524 22.955C29.4411 22.0987 29.2584 21.2532 28.9151 20.4686C28.5717 19.684 28.0747 18.9761 27.4533 18.3867L25.0667 16Z" fill="#669DF6"/>
<path fill-rule="evenodd" clip-rule="evenodd" d="M11.8533 25.6933C11.1178 26.4288 10.1202 26.842 9.07996 26.842C8.03976 26.842 7.04216 26.4288 6.30663 25.6933C5.57109 24.9578 5.15787 23.9602 5.15787 22.92C5.15787 21.8798 5.57109 20.8822 6.30663 20.1466L8.69329 17.76L14.24 23.3066L11.8533 25.6933ZM20.16 6.30663C20.7071 5.76044 21.404 5.38888 22.1624 5.23896C22.9208 5.08905 23.7067 5.16753 24.4205 5.46447C25.1343 5.76141 25.7439 6.26345 26.1722 6.90705C26.6006 7.55065 26.8283 8.30686 26.8266 9.07996C26.8188 10.1182 26.4076 11.1127 25.68 11.8533L23.2933 14.24L17.76 8.69329L20.16 6.30663ZM16 20.2533C14.873 20.2498 13.7932 19.8005 12.9963 19.0036C12.1994 18.2067 11.7501 17.1269 11.7466 16C11.7536 14.8741 12.204 13.7963 13.0001 13.0001C13.7963 12.204 14.8741 11.7536 16 11.7466C17.1259 11.7536 18.2036 12.204 18.9998 13.0001C19.7959 13.7963 20.2463 14.8741 20.2533 16C20.2498 17.1269 19.8005 18.2067 19.0036 19.0036C18.2067 19.8005 17.1269 20.2498 16 20.2533ZM25.0666 16L27.4533 13.6133C28.0747 13.0239 28.5717 12.316 28.915 11.5314C29.2584 10.7467 29.4411 9.9013 29.4524 9.04493C29.4637 8.18855 29.3033 7.33859 28.9808 6.54519C28.6583 5.75179 28.1801 5.03102 27.5745 4.42542C26.9689 3.81982 26.2481 3.34165 25.4547 3.01912C24.6613 2.6966 23.8114 2.53626 22.955 2.54756C22.0986 2.55885 21.2532 2.74156 20.4686 3.0849C19.6839 3.42824 18.976 3.92526 18.3866 4.54663L16 6.93329L6.93329 16L4.54663 18.3866C3.92526 18.976 3.42824 19.6839 3.0849 20.4686C2.74156 21.2532 2.55885 22.0986 2.54756 22.955C2.53626 23.8114 2.6966 24.6613 3.01912 25.4547C3.34165 26.2481 3.81982 26.9689 4.42542 27.5745C5.03102 28.1801 5.75179 28.6583 6.54519 28.9808C7.33859 29.3033 8.18855 29.4637 9.04493 29.4524C9.9013 29.4411 10.7467 29.2584 11.5314 28.915C12.316 28.5717 13.0239 28.0747 13.6133 27.4533L16 25.0666L25.0666 16Z" fill="#4285F4"/>
</svg>
