<svg width="32" height="32" viewBox="0 0 32 32" fill="none" xmlns="http://www.w3.org/2000/svg">
<path fill-rule="evenodd" clip-rule="evenodd" d="M19.0668 13.3334L17.4401 14.96C17.7919 15.2606 18.044 15.661 18.1629 16.1082C18.2817 16.5554 18.2616 17.0282 18.1054 17.4637C17.9491 17.8993 17.664 18.277 17.288 18.5466C16.9119 18.8163 16.4627 18.9651 16.0001 18.9734C15.66 18.9698 15.3249 18.8915 15.0185 18.7441C14.712 18.5966 14.4417 18.3836 14.2268 18.12L12.6001 19.7467C13.0045 20.2378 13.5068 20.6392 14.0751 20.9251C14.6434 21.2111 15.2651 21.3753 15.9005 21.4073C16.5358 21.4393 17.1709 21.3385 17.7651 21.1111C18.3592 20.8838 18.8994 20.535 19.3511 20.087C19.8028 19.639 20.1561 19.1017 20.3884 18.5095C20.6206 17.9172 20.7268 17.283 20.7 16.6474C20.6732 16.0118 20.5142 15.3888 20.2329 14.8181C19.9517 14.2475 19.5545 13.7418 19.0668 13.3334Z" fill="#4285F4"/>
<path fill-rule="evenodd" clip-rule="evenodd" d="M16.0001 8.34668C14.3519 8.34668 12.7407 8.83542 11.3703 9.7511C9.99992 10.6668 8.93182 11.9683 8.30109 13.491C7.67036 15.0137 7.50533 16.6893 7.82687 18.3058C8.14842 19.9223 8.94209 21.4071 10.1075 22.5726C11.273 23.738 12.7578 24.5317 14.3743 24.8532C15.9908 25.1748 17.6664 25.0097 19.1891 24.379C20.7118 23.7483 22.0133 22.6802 22.929 21.3098C23.8447 19.9394 24.3334 18.3282 24.3334 16.68C24.3334 14.4699 23.4554 12.3503 21.8926 10.7875C20.3298 9.22465 18.2102 8.34668 16.0001 8.34668ZM16.0001 22.6667C14.8255 22.6693 13.6765 22.3232 12.6987 21.6723C11.7209 21.0213 10.9584 20.0948 10.5076 19.0101C10.0569 17.9254 9.93828 16.7313 10.1668 15.5791C10.3953 14.4269 10.9607 13.3685 11.7913 12.5379C12.6219 11.7073 13.6803 11.1419 14.8325 10.9134C15.9847 10.6849 17.1788 10.8035 18.2635 11.2542C19.3482 11.705 20.2747 12.4675 20.9257 13.4453C21.5766 14.4231 21.9227 15.572 21.9201 16.7467C21.9201 18.3168 21.2964 19.8225 20.1862 20.9328C19.0759 22.043 17.5702 22.6667 16.0001 22.6667Z" fill="#AECBFA"/>
<path fill-rule="evenodd" clip-rule="evenodd" d="M28.8267 15.8666L25.4133 14.7866C25.5626 15.4564 25.6386 16.1404 25.64 16.8266C25.6386 17.3085 25.603 17.7898 25.5333 18.2666H28.8267C28.9635 18.2479 29.0894 18.1814 29.1821 18.079C29.2748 17.9765 29.3283 17.8447 29.3333 17.7066V16.3733C29.3283 16.2352 29.2748 16.1034 29.1821 16.0009C29.0894 15.8985 28.9635 15.832 28.8267 15.8133" fill="#669DF6"/>
<path fill-rule="evenodd" clip-rule="evenodd" d="M16.0001 7.35999C16.6718 7.35913 17.3418 7.42614 18.0001 7.55999L16.7734 4.15999C16.6801 3.86665 16.4934 3.65332 16.2134 3.65332H15.7067C15.5695 3.66084 15.439 3.71527 15.337 3.8075C15.2351 3.89973 15.1679 4.02416 15.1467 4.15999L14.0801 7.54665C14.7127 7.42384 15.3556 7.36133 16.0001 7.35999Z" fill="#669DF6"/>
<path fill-rule="evenodd" clip-rule="evenodd" d="M6.36008 16.8266C6.36148 16.1404 6.43748 15.4564 6.58675 14.7866L3.17341 15.8666C3.03654 15.8854 2.91068 15.9518 2.818 16.0543C2.72531 16.1567 2.67175 16.2886 2.66675 16.4266V17.76C2.67175 17.898 2.72531 18.0299 2.818 18.1323C2.91068 18.2348 3.03654 18.3012 3.17341 18.32H6.46675C6.39709 17.8431 6.36144 17.3619 6.36008 16.88" fill="#669DF6"/>
<path fill-rule="evenodd" clip-rule="evenodd" d="M16.0001 13.3334C15.3408 13.3334 14.6963 13.5289 14.1482 13.8951C13.6 14.2614 13.1728 14.782 12.9205 15.3911C12.6682 16.0002 12.6022 16.6704 12.7308 17.317C12.8594 17.9636 13.1769 18.5576 13.6431 19.0237C14.1092 19.4899 14.7032 19.8074 15.3498 19.936C15.9964 20.0646 16.6666 19.9986 17.2757 19.7463C17.8848 19.494 18.4054 19.0668 18.7716 18.5186C19.1379 17.9704 19.3334 17.326 19.3334 16.6667C19.3334 15.7827 18.9822 14.9348 18.3571 14.3097C17.732 13.6846 16.8841 13.3334 16.0001 13.3334ZM16.0001 18.3334C15.6704 18.3334 15.3482 18.2356 15.0741 18.0525C14.8001 17.8694 14.5864 17.6091 14.4603 17.3045C14.3341 17 14.3011 16.6649 14.3654 16.3416C14.4297 16.0183 14.5885 15.7213 14.8216 15.4882C15.0547 15.2551 15.3516 15.0964 15.6749 15.0321C15.9982 14.9678 16.3333 15.0008 16.6379 15.1269C16.9424 15.2531 17.2027 15.4667 17.3859 15.7408C17.569 16.0148 17.6667 16.3371 17.6667 16.6667C17.6685 16.8867 17.6267 17.1049 17.5437 17.3086C17.4608 17.5124 17.3383 17.6977 17.1833 17.8538C17.0284 18.01 16.8441 18.134 16.641 18.2186C16.4379 18.3032 16.2201 18.3467 16.0001 18.3467V18.3334Z" fill="#AECBFA"/>
</svg>
