<svg width="32" height="32" viewBox="0 0 32 32" fill="none" xmlns="http://www.w3.org/2000/svg">
<path d="M16.041 13.4411L13.6184 15.8645L16.0419 18.2871L18.4644 15.8637L16.041 13.4411Z" fill="#4285F4"/>
<path fill-rule="evenodd" clip-rule="evenodd" d="M23.8267 15.8533L23.7333 15.9333L18.7067 20.9733L17.2933 19.5733L21.0267 15.8533L13.4133 8.23994V5.43994L13.5067 5.53327L23.8267 15.8533Z" fill="#669DF6"/>
<path fill-rule="evenodd" clip-rule="evenodd" d="M13.4133 8.23994L5.81333 15.8533L14.8133 24.8666L13.4133 26.2666L13.3333 26.1733L3 15.8533L13.4133 5.43994V8.23994Z" fill="#AECBFA"/>
<path fill-rule="evenodd" clip-rule="evenodd" d="M18.5867 23.4666V26.2666L18.5067 26.1733L8.17334 15.8666L13.2933 10.7333L14.7067 12.1466L10.9733 15.8666L18.5867 23.4666Z" fill="#669DF6"/>
<path d="M18.5868 23.4666L26.1868 15.8666L17.1868 6.85327L18.5868 5.43994L18.6668 5.53327L29.0001 15.8666L28.9068 15.9466L18.5868 26.2666V23.4666Z" fill="#4285F4"/>
</svg>
