<svg width="32" height="32" viewBox="0 0 32 32" fill="none" xmlns="http://www.w3.org/2000/svg">
<path d="M10.1733 24.6267V12.3867H12.6533V24.6267H10.1733ZM5.17334 24.6267V12.3867H7.58667V24.6267H5.17334ZM15.24 24.6267V12.3867H17.64V24.6267H15.24ZM22.5333 12.3867V18.0801L20.2267 19.1467V12.3867H22.5333Z" fill="#4285F4"/>
<path d="M22.9067 23.4133L22.32 23.9999L24 25.7199L24.7867 24.9066L25.04 24.6533V28.6533L24.7867 29.0266H24.7067C24.2357 28.892 23.7866 28.6899 23.3734 28.4266C22.5958 27.9036 21.9453 27.2129 21.47 26.4053C20.9946 25.5976 20.7065 24.6937 20.6267 23.7599V20.2533L24.8534 18.3199L25.1067 18.8133V23.4666L24.8534 23.7199L24 24.5333L22.9067 23.4133Z" fill="#AECBFA"/>
<path d="M24.7733 18.3199V23.6533L25.0266 23.3999L26.7466 21.6266L27.32 22.2133L25.0266 24.5866L24.7733 24.8399V28.9199H24.8533C25.3248 28.7864 25.774 28.5842 26.1866 28.3199C26.9663 27.7991 27.6182 27.1089 28.0938 26.3008C28.5694 25.4928 28.8564 24.5877 28.9333 23.6533V23.4533V20.2533L24.7733 18.3199Z" fill="#669DF6"/>
<path d="M20.0001 26H13.8534V23.8267H19.4134V23.9067C19.5006 24.6304 19.6985 25.3364 20.0001 26Z" fill="#669DF6"/>
<path d="M12.36 8.69334C12.36 9.0894 12.5173 9.46924 12.7974 9.74929C13.0774 10.0293 13.4573 10.1867 13.8533 10.1867V12.8533H3V10.6667L13.8533 3.05334V7.18668C13.4561 7.19019 13.0762 7.35048 12.7966 7.63266C12.5169 7.91483 12.36 8.29605 12.36 8.69334Z" fill="#AECBFA"/>
<path d="M24.7067 10.6667V12.7867H13.8534V10.1867C14.2268 10.1514 14.5737 9.97816 14.8261 9.70075C15.0786 9.42335 15.2185 9.06175 15.2185 8.68667C15.2185 8.31158 15.0786 7.94999 14.8261 7.67258C14.5737 7.39518 14.2268 7.22191 13.8534 7.18667V3L24.7067 10.6667Z" fill="#669DF6"/>
<path d="M13.8533 23.8134V26H3V23.84L13.8533 23.8134Z" fill="#AECBFA"/>
</svg>
