<svg width="32" height="32" viewBox="0 0 32 32" fill="none" xmlns="http://www.w3.org/2000/svg">
<path d="M20 13.7601H20.2133V13.5467V12.6534V12.4267H20H16.6667V11.1201V10.9067H16.4533H15.4133H15.2V11.1201V12.4267H11.9867H11.76V12.6534V13.5467V13.7601H11.9867H20Z" fill="#669DF6"/>
<path d="M20.4399 19.6667C19.2092 19.3452 18.0598 18.7682 17.0666 17.9734C17.7684 17.162 18.3112 16.2256 18.6666 15.2134H17.0799C16.8123 15.8479 16.448 16.4371 15.9999 16.96C15.5486 16.4395 15.184 15.8497 14.9199 15.2134H13.3333C13.7597 16.2153 14.3302 17.1496 15.0266 17.9867C14.0238 18.8524 12.8389 19.4813 11.5599 19.8267L12.3599 21.16C13.6982 20.6874 14.9337 19.9633 15.9999 19.0267C17.0426 19.9886 18.2996 20.6879 19.6666 21.0667L20.4399 19.6667Z" fill="#AECBFA"/>
<path d="M9.09326 25.9467L10.3599 28.1467H23.0133L29.3333 17.1867L26.7999 12.8L20.4799 23.7467H10.3599L9.09326 25.9467Z" fill="#4285F4"/>
<path d="M22.9066 6.05339L21.64 3.85339H8.98663L2.66663 14.8134L5.19996 19.2001L11.52 8.25339H21.64L22.9066 6.05339Z" fill="#4285F4"/>
</svg>
