<svg width="32" height="32" viewBox="0 0 32 32" fill="none" xmlns="http://www.w3.org/2000/svg">
<path d="M9.10657 25.9467L10.4399 28.1467H23.0799L29.3332 17.1867L26.7999 12.8L20.4799 23.7467H10.3732L9.10657 25.9467Z" fill="#4285F4"/>
<path d="M22.8933 6.05339L21.56 3.85339H8.98663L2.66663 14.8134L5.19996 19.2001L11.5333 8.25339H21.64L22.8933 6.05339Z" fill="#4285F4"/>
<path d="M20.6266 13.3201L18.8533 14.6401V17.4134L20.6266 18.7467V13.3201Z" fill="#669DF6"/>
<path d="M14.3866 16.4001L13.88 17.3201H12.6666L13.4266 16.0134L12.6666 14.6801H13.88L14.3866 15.5334H17.72V12.8268H15.0133L15.5866 13.7334H16.5866V14.7201H14.96L13.7466 12.8268H11.3733V19.1734H13.7466L14.96 17.2801H16.5866V18.2668H15.5866L15.0133 19.1734H17.72V16.4001H14.3866Z" fill="#AECBFA"/>
</svg>
