<svg width="32" height="32" viewBox="0 0 32 32" fill="none" xmlns="http://www.w3.org/2000/svg">
<path d="M26.0133 9.22661C25.596 9.66405 25.1506 10.0738 24.6799 10.4533C26.1287 12.4439 26.8529 14.8703 26.7321 17.3294C26.6114 19.7885 25.6531 22.1323 24.0164 23.9715C22.3796 25.8107 20.1629 27.0346 17.7345 27.44C15.306 27.8454 12.812 27.4078 10.6666 26.1999H12.9999C12.5586 25.6635 12.1743 25.0826 11.8533 24.4666H8.41326C7.92263 23.9783 7.47642 23.4473 7.07993 22.8799H11.1599C10.9574 22.3091 10.7926 21.7257 10.6666 21.1333H6.11993C5.89177 20.62 5.70452 20.0894 5.55993 19.5466H10.3199C10.2266 18.9866 10.1733 18.4133 10.1333 17.8133H5.25326C5.233 17.4714 5.233 17.1285 5.25326 16.7866V16.2133H10.0933C10.0956 15.6339 10.1312 15.0552 10.1999 14.4799H5.43993C5.55935 13.9396 5.71981 13.4092 5.91993 12.8933H10.4533C10.559 12.3059 10.706 11.7267 10.8933 11.1599H6.79993C7.14963 10.5948 7.55137 10.0636 7.99993 9.57328H11.4799C11.7477 8.96642 12.0643 8.38228 12.4266 7.82661H9.99993C11.5032 6.81595 13.2375 6.20165 15.0417 6.04081C16.846 5.87997 18.6616 6.17779 20.3199 6.90661C20.66 8.4079 21.2409 9.84424 22.0399 11.1599C22.0399 11.1599 25.9466 8.93328 26.5466 6.57328C26.744 5.75263 26.6119 4.88732 26.1788 4.16288C25.7457 3.43845 25.0459 2.91258 24.2296 2.69803C23.4133 2.48348 22.5454 2.59734 21.812 3.0152C21.0786 3.43305 20.5382 4.12163 20.3066 4.93328V5.02661C17.7994 4.10714 15.0643 4.0116 12.4991 4.75389C9.93388 5.49618 7.67242 7.03757 6.0437 9.15383C4.41498 11.2701 3.50397 13.8508 3.44319 16.5206C3.38242 19.1903 4.17506 21.8098 5.70579 23.998C7.23652 26.1862 9.4255 27.8289 11.9543 28.6871C14.4831 29.5454 17.2197 29.5744 19.7661 28.77C22.3125 27.9655 24.5358 26.3696 26.1126 24.2144C27.6894 22.0592 28.5374 19.4571 28.5333 16.7866C28.6112 14.0483 27.7186 11.3705 26.0133 9.22661ZM21.9999 5.33328C22.076 5.04216 22.2368 4.78017 22.4619 4.5805C22.687 4.38084 22.9663 4.25248 23.2645 4.21169C23.5626 4.17089 23.8661 4.2195 24.1366 4.35136C24.4071 4.48321 24.6323 4.69238 24.7838 4.95236C24.9353 5.21234 25.0062 5.51144 24.9876 5.81176C24.969 6.11208 24.8616 6.40012 24.6792 6.63939C24.4967 6.87865 24.2473 7.05837 23.9626 7.15579C23.6779 7.25321 23.3707 7.26393 23.0799 7.18661C22.8866 7.13704 22.7051 7.04955 22.5459 6.92924C22.3866 6.80893 22.2529 6.65818 22.1524 6.48575C22.0519 6.31333 21.9867 6.12266 21.9605 5.92482C21.9344 5.72697 21.9478 5.5259 21.9999 5.33328Z" fill="#4285F4"/>
</svg>
