<svg width="32" height="32" viewBox="0 0 32 32" fill="none" xmlns="http://www.w3.org/2000/svg">
<path fill-rule="evenodd" clip-rule="evenodd" d="M8.97327 14.4399V17.9466C9.52598 18.8994 10.3102 19.6974 11.2533 20.2666V14.4399H8.97327Z" fill="#AECBFA"/>
<path fill-rule="evenodd" clip-rule="evenodd" d="M13.1866 11.2133V21.2533C13.6774 21.3159 14.172 21.3427 14.6666 21.3333C15.1107 21.3611 15.556 21.3611 16 21.3333V11.2133H13.1866Z" fill="#669DF6"/>
<path fill-rule="evenodd" clip-rule="evenodd" d="M18.1866 15.8132V20.1999C19.1348 19.5951 19.9145 18.7604 20.4533 17.7732V15.8132H18.1866Z" fill="#AECBFA"/>
<path fill-rule="evenodd" clip-rule="evenodd" d="M23.6533 21.76L21.76 23.6533C21.7068 23.7055 21.6645 23.7677 21.6356 23.8364C21.6068 23.9051 21.5919 23.9788 21.5919 24.0533C21.5919 24.1278 21.6068 24.2016 21.6356 24.2703C21.6645 24.339 21.7068 24.4012 21.76 24.4533L26.48 29.1733C26.5848 29.2767 26.7261 29.3347 26.8733 29.3347C27.0206 29.3347 27.1619 29.2767 27.2667 29.1733L29.1733 27.2667C29.2767 27.1619 29.3347 27.0206 29.3347 26.8733C29.3347 26.7261 29.2767 26.5848 29.1733 26.48L24.4533 21.76C24.4012 21.7068 24.339 21.6645 24.2703 21.6356C24.2016 21.6068 24.1278 21.5919 24.0533 21.5919C23.9788 21.5919 23.9051 21.6068 23.8364 21.6356C23.7677 21.6645 23.7055 21.7068 23.6533 21.76Z" fill="#4285F4"/>
<path fill-rule="evenodd" clip-rule="evenodd" d="M14.6666 2.66663C12.2933 2.66663 9.97318 3.37041 7.99979 4.68899C6.0264 6.00757 4.48833 7.88171 3.58008 10.0744C2.67183 12.2671 2.43419 14.6799 2.89721 17.0077C3.36023 19.3355 4.50312 21.4737 6.18135 23.1519C7.85958 24.8301 9.99778 25.973 12.3255 26.4361C14.6533 26.8991 17.0661 26.6614 19.2588 25.7532C21.4515 24.8449 23.3257 23.3069 24.6443 21.3335C25.9628 19.3601 26.6666 17.04 26.6666 14.6666C26.6666 13.0908 26.3562 11.5303 25.7532 10.0744C25.1501 8.61852 24.2662 7.29565 23.1519 6.18134C22.0376 5.06704 20.7147 4.18313 19.2588 3.58007C17.8029 2.97701 16.2425 2.66663 14.6666 2.66663ZM14.6666 23.5866C12.9062 23.584 11.186 23.0597 9.72338 22.08C8.26073 21.1003 7.12121 19.7092 6.44874 18.0822C5.77627 16.4553 5.60101 14.6656 5.9451 12.9391C6.28919 11.2126 7.13719 9.62682 8.38201 8.38201C9.62683 7.13719 11.2126 6.28918 12.9391 5.94509C14.6656 5.601 16.4553 5.77626 18.0822 6.44873C19.7092 7.1212 21.1003 8.26072 22.08 9.72337C23.0597 11.186 23.584 12.9062 23.5866 14.6666C23.5884 15.8385 23.3589 16.9992 22.9112 18.0822C22.4636 19.1653 21.8066 20.1493 20.9779 20.9779C20.1493 21.8066 19.1653 22.4636 18.0822 22.9112C16.9992 23.3589 15.8385 23.5884 14.6666 23.5866Z" fill="#669DF6"/>
</svg>
