<svg width="32" height="32" viewBox="0 0 32 32" fill="none" xmlns="http://www.w3.org/2000/svg">
<path fill-rule="evenodd" clip-rule="evenodd" d="M21.6267 8.60001L16 5.25334C15.1732 4.73466 14.5766 3.91864 14.3334 2.97334C14.3334 2.97334 14.5467 2.54668 14.84 2.70668C15.1334 2.86668 19.5067 5.45334 21.84 6.84001C22.68 7.33334 22.16 9.50668 22.16 9.50668C22.1612 9.3215 22.1122 9.13946 22.0183 8.97985C21.9244 8.82024 21.7891 8.68899 21.6267 8.60001Z" fill="#669DF6"/>
<path fill-rule="evenodd" clip-rule="evenodd" d="M23.32 16.9201C23.3286 17.006 23.3133 17.0926 23.2756 17.1702C23.2379 17.2479 23.1795 17.3136 23.1067 17.3601L21.7734 18.2667V7.66673C21.7734 7.30673 22 6.92007 21.6934 6.7334L22.92 7.64006C23.0678 7.73001 23.189 7.85773 23.271 8.01006C23.353 8.16239 23.393 8.33383 23.3867 8.50673L23.32 16.9201Z" fill="#AECBFA"/>
<path fill-rule="evenodd" clip-rule="evenodd" d="M16.0001 18.1333C15.9053 18.1336 15.8125 18.1057 15.7335 18.0533L11.1201 15.3066V16.5066L16.0001 19.4133L16.3868 18.6533C16.3868 18.6533 16.0935 18.1333 16.0001 18.1333Z" fill="#669DF6"/>
<path fill-rule="evenodd" clip-rule="evenodd" d="M16.2668 20.5333C16.1878 20.586 16.095 20.6142 16.0001 20.6142C15.9052 20.6142 15.8124 20.586 15.7335 20.5333L11.1201 17.7866V18.6666C11.1204 18.7593 11.1437 18.8504 11.188 18.9319C11.2322 19.0133 11.2959 19.0825 11.3734 19.1333L15.7468 21.8C15.8233 21.8458 15.9109 21.87 16.0001 21.87C16.0893 21.87 16.1769 21.8458 16.2534 21.8C16.3743 21.5824 16.464 21.349 16.5201 21.1066L16.2668 20.5866V20.5333Z" fill="#669DF6"/>
<path fill-rule="evenodd" clip-rule="evenodd" d="M16.0001 16.9734L20.8801 14.0667V13.4934C20.8813 13.4022 20.8586 13.3124 20.8141 13.2328C20.7696 13.1532 20.705 13.0868 20.6268 13.04L16.2534 10.3734C16.1769 10.3275 16.0893 10.3033 16.0001 10.3033C15.9109 10.3033 15.8233 10.3275 15.7468 10.3734L11.3734 13.04C11.2969 13.0887 11.2337 13.1556 11.1895 13.2347C11.1453 13.3138 11.1214 13.4027 11.1201 13.4934V14.0667L16.0001 16.9734Z" fill="#AECBFA"/>
<path fill-rule="evenodd" clip-rule="evenodd" d="M16.0001 15.7734L11.3734 13.04C11.2969 13.0887 11.2337 13.1556 11.1895 13.2347C11.1453 13.3138 11.1214 13.4027 11.1201 13.4934V14.0667L16.0001 16.9734L16.3734 16.2267L16.0001 15.7734Z" fill="#669DF6"/>
<path fill-rule="evenodd" clip-rule="evenodd" d="M16 18.1333V19.4667L20.88 16.56V15.36L16.2667 18.0533C16.1827 18.0942 16.0926 18.1212 16 18.1333Z" fill="#4285F4"/>
<path fill-rule="evenodd" clip-rule="evenodd" d="M16.2667 20.5334C16.1876 20.5858 16.0948 20.6137 16 20.6134C16 20.9867 16 21.8134 16 21.8134C16.0971 21.8118 16.1926 21.7891 16.28 21.7467L20.6533 19.0801C20.7336 19.0322 20.7995 18.9636 20.8441 18.8815C20.8886 18.7994 20.9103 18.7068 20.9067 18.6134V17.7334L16.2667 20.5334Z" fill="#4285F4"/>
<path fill-rule="evenodd" clip-rule="evenodd" d="M20.6267 13.04L16 15.7734V16.9734L20.88 14.0667V13.4934C20.8812 13.4022 20.8584 13.3124 20.814 13.2328C20.7695 13.1533 20.7049 13.0868 20.6267 13.04Z" fill="#4285F4"/>
<path fill-rule="evenodd" clip-rule="evenodd" d="M10.3734 23.3733L15.9068 26.6666C16.3433 26.9251 16.7207 27.2722 17.0147 27.6856C17.3086 28.099 17.5126 28.5695 17.6134 29.0666C17.622 29.1134 17.6164 29.1617 17.5975 29.2053C17.5786 29.2489 17.5471 29.2859 17.5071 29.3116C17.4671 29.3373 17.4204 29.3506 17.3728 29.3497C17.3253 29.3488 17.2791 29.3338 17.2401 29.3066L9.97342 25C9.26675 24.5733 9.88009 22.4933 9.88009 22.4933C9.87962 22.67 9.92478 22.8439 10.0112 22.9981C10.0976 23.1522 10.2224 23.2815 10.3734 23.3733Z" fill="#669DF6"/>
<path fill-rule="evenodd" clip-rule="evenodd" d="M8.68005 23.64V14.8933C8.68354 14.8049 8.70842 14.7187 8.75254 14.6421C8.79666 14.5655 8.85872 14.5007 8.93339 14.4533L10.2667 13.6666V24.2133C10.2667 24.5733 10.2667 25.1333 10.5467 25.32L9.13339 24.44C8.99933 24.3526 8.8882 24.2344 8.80932 24.0952C8.73043 23.9559 8.6861 23.7998 8.68005 23.64Z" fill="#AECBFA"/>
<path fill-rule="evenodd" clip-rule="evenodd" d="M13.5467 7.28006C13.3963 7.19475 13.2263 7.1499 13.0534 7.1499C12.8805 7.1499 12.7105 7.19475 12.5601 7.28006L6.96006 10.6667C6.54625 10.9116 6.08652 11.0687 5.60942 11.1283C5.13233 11.1879 4.64806 11.1488 4.18672 11.0134C4.13959 10.9866 4.1004 10.9478 4.07313 10.901C4.04586 10.8542 4.03149 10.8009 4.03149 10.7467C4.03149 10.6925 4.04586 10.6393 4.07313 10.5924C4.1004 10.5456 4.13959 10.5068 4.18672 10.4801C4.42672 10.3601 12.6134 5.49339 12.6134 5.49339C12.9201 5.30673 13.6001 7.34673 13.6001 7.34673L13.5467 7.28006Z" fill="#669DF6"/>
<path fill-rule="evenodd" clip-rule="evenodd" d="M13.5334 5.44L20.6268 9.64C20.7035 9.67954 20.7685 9.73853 20.8153 9.81106C20.8621 9.88359 20.889 9.96713 20.8934 10.0533V11.6267L12.0001 6.34667C11.8497 6.26135 11.6797 6.21651 11.5068 6.21651C11.3338 6.21651 11.1639 6.26135 11.0134 6.34667L12.5868 5.42667C12.7338 5.33854 12.902 5.29199 13.0734 5.29199C13.2449 5.29199 13.4131 5.33854 13.5601 5.42667L13.5334 5.44Z" fill="#AECBFA"/>
<path fill-rule="evenodd" clip-rule="evenodd" d="M18.4267 24.6534C18.5763 24.7413 18.7466 24.7876 18.9201 24.7876C19.0935 24.7876 19.2638 24.7413 19.4134 24.6534L25.0134 21.3334C25.4316 21.087 25.8964 20.9302 26.3784 20.8729C26.8604 20.8155 27.349 20.8588 27.8134 21C27.8615 21.0227 27.9021 21.0585 27.9306 21.1033C27.959 21.1482 27.9741 21.2002 27.9741 21.2534C27.9741 21.3065 27.959 21.3585 27.9306 21.4034C27.9021 21.4482 27.8615 21.4841 27.8134 21.5067L19.3734 26.5067C19.0801 26.6934 18.3867 24.64 18.3867 24.64L18.4267 24.6534Z" fill="#669DF6"/>
<path fill-rule="evenodd" clip-rule="evenodd" d="M11.3468 22.3333C11.2234 22.2167 11.1435 22.0615 11.1201 21.8933V20.3467L20.0001 25.5867C20.1461 25.6777 20.3147 25.7259 20.4868 25.7259C20.6588 25.7259 20.8274 25.6777 20.9735 25.5867L19.4001 26.52C19.2521 26.6122 19.0812 26.661 18.9068 26.661C18.7324 26.661 18.5615 26.6122 18.4135 26.52L11.3468 22.3333Z" fill="#AECBFA"/>
<path fill-rule="evenodd" clip-rule="evenodd" d="M8.34667 13.08C8.19669 13.1696 8.07245 13.2966 7.98601 13.4484C7.89957 13.6003 7.85387 13.7719 7.85334 13.9466V20.6133C7.85206 21.1134 7.74849 21.608 7.549 22.0666C7.34952 22.5252 7.05832 22.9381 6.69334 23.28C6.65916 23.3106 6.61693 23.3307 6.57165 23.3381C6.52637 23.3454 6.47993 23.3396 6.43785 23.3214C6.39576 23.3031 6.35978 23.2732 6.33417 23.2351C6.30856 23.1971 6.29439 23.1525 6.29333 23.1066V13.0266C6.29333 12.6533 8.34667 13.0266 8.34667 13.0266V13.08Z" fill="#669DF6"/>
<path fill-rule="evenodd" clip-rule="evenodd" d="M13.0267 8.69338C13.0987 8.64845 13.1818 8.62463 13.2667 8.62463C13.3515 8.62463 13.4347 8.64845 13.5067 8.69338L14.84 9.48004L6.73335 14.2267C6.58233 14.3185 6.45757 14.4478 6.37114 14.6019C6.28471 14.7561 6.23955 14.93 6.24002 15.1067V13.2534C6.23872 13.0785 6.28524 12.9066 6.37453 12.7562C6.46382 12.6058 6.59251 12.4826 6.74668 12.4L13.0267 8.69338Z" fill="#AECBFA"/>
<path fill-rule="evenodd" clip-rule="evenodd" d="M24.2267 17.9201V11.2534C24.2274 10.7569 24.3268 10.2654 24.519 9.80762C24.7113 9.34983 24.9927 8.93482 25.3467 8.58672C25.3467 8.58672 25.7867 8.44006 25.7601 8.86672C25.7334 9.29339 25.7601 18.6934 25.7601 18.6934C25.3467 19.1867 23.6134 18.6934 23.6134 18.6934C23.7697 18.6225 23.9069 18.5154 24.0136 18.3809C24.1202 18.2464 24.1933 18.0884 24.2267 17.9201Z" fill="#669DF6"/>
<path fill-rule="evenodd" clip-rule="evenodd" d="M25.3334 19.48L19.0134 23.28C18.9394 23.3261 18.854 23.3506 18.7668 23.3506C18.6796 23.3506 18.5941 23.3261 18.5201 23.28L17.1868 22.52L25.3334 17.6267C25.4845 17.5349 25.6092 17.4056 25.6956 17.2515C25.7821 17.0973 25.8272 16.9234 25.8268 16.7467V18.6667C25.8001 18.9734 25.3334 19.48 25.3334 19.48Z" fill="#AECBFA"/>
</svg>
