<svg width="32" height="32" viewBox="0 0 32 32" fill="none" xmlns="http://www.w3.org/2000/svg">
<path d="M19.8133 15.4933H22.48V15.5733C22.48 23.4533 17.8933 26.24 16.3733 26.96V29L16.7066 28.8933C17.0133 28.7866 24.4 26.12 24.4 15.56V13.6H18.84L19.8133 15.4933Z" fill="#669DF6"/>
<path d="M18.84 13.6L19.7733 11.9067V3L18.28 4.16C15.0266 6.54667 11.6133 10.9333 11.8266 16.08C11.8594 17.7565 12.287 19.4017 13.0746 20.882C13.8623 22.3624 14.9878 23.6361 16.36 24.6L16.4933 24.6933L17.4933 23.0667L17.36 22.9867C16.9688 22.7034 16.6029 22.3867 16.2666 22.04L19.8133 20V15.4933L18.84 13.6ZM17.9067 15.4933V18.9067L15.0666 20.5467C14.2055 19.1808 13.7436 17.6013 13.7333 15.9867C13.56 11.5467 16.5733 8.18667 17.88 6.94667V11.3733L15.64 15.4933H17.9333" fill="#4285F4"/>
<path d="M16.32 26.96C14.1859 25.8746 12.4127 24.1933 11.2151 22.1201C10.0176 20.047 9.44727 17.6709 9.57329 15.28V13.5333H7.66663V15.28C7.66663 25.3067 15.1333 28.6133 15.9866 28.88L16.3066 29" fill="#AECBFA"/>
</svg>
