<svg width="32" height="32" viewBox="0 0 32 32" fill="none" xmlns="http://www.w3.org/2000/svg">
<g clip-path="url(#clip0_841_18315)">
<path d="M17.2 23.4667C17.6 25.0667 19.0667 26.2667 20.8 26.2667C22.9334 26.2667 24.5333 24.5333 24.5333 22.5333C24.5333 20.5333 22.8 18.8 20.8 18.8C19.0667 18.8 17.6 20 17.2 21.6H7.46668V23.6H17.2V23.4667ZM29.0667 29.0667H2.93335V14.9333H9.86668L12 17.0667H16H20L22 15.0667H28.9334V29.0667H29.0667ZM10.5334 23.4667H8.53335V25.4667H10.5334V23.4667ZM13.4667 23.4667H11.4667V25.4667H13.4667V23.4667ZM18.9334 22.5333C18.9334 23.6 19.7334 24.4 20.8 24.4C21.8667 24.4 22.6667 23.6 22.6667 22.5333C22.6667 21.4667 21.8667 20.6667 20.8 20.6667C19.7334 20.6667 18.9334 21.4667 18.9334 22.5333Z" fill="#3367D6"/>
<path d="M14.9333 16H12.5333L10.8 14H5.06665V10H14.9333V16Z" fill="#5C85DE"/>
<path d="M21.0667 14.4L19.3333 16H16V9.06668H8V6.93335H21.0667V14.4Z" fill="#85A4E6"/>
<path d="M26.9333 14H22V6H13.0667V4H26.9333V14Z" fill="#85A4E6"/>
</g>
<defs>
<clipPath id="clip0_841_18315">
<rect width="32" height="32" fill="white"/>
</clipPath>
</defs>
</svg>
