<svg width="32" height="32" viewBox="0 0 32 32" fill="none" xmlns="http://www.w3.org/2000/svg">
<path fill-rule="evenodd" clip-rule="evenodd" d="M27.5 11.1317V24.8492C27.5 26.3204 26.3204 27.5 24.8493 27.5H11.1317C9.67378 27.5 8.48096 26.3204 8.48096 24.8492H24.8493V8.48096C26.3204 8.48096 27.5 9.6738 27.5 11.1317Z" fill="#4285F4"/>
<path fill-rule="evenodd" clip-rule="evenodd" d="M20.8683 4.5H7.15075C5.69283 4.5 4.5 5.69283 4.5 7.15075V20.8683C4.5 22.3395 5.69283 23.5191 7.15075 23.5191H20.8683C22.3395 23.5191 23.5191 22.3395 23.5191 20.8683V7.15075C23.5191 5.69283 22.3395 4.5 20.8683 4.5ZM20.8683 20.8683H7.15075V7.15075H20.8683V20.8683Z" fill="#4285F4"/>
<path d="M17.4334 11.3102C17.3458 10.8467 17.1578 10.4333 16.9073 10.0574C16.5441 9.50623 16.0305 9.06776 15.4291 8.80468C14.9907 8.61678 14.5147 8.50403 14.0011 8.50403C13.5001 8.50403 13.024 8.61678 12.5856 8.80468C11.9843 9.06776 11.4707 9.50623 11.1074 10.0574C10.719 10.6086 10.5061 11.2851 10.5061 12.0117C10.5061 12.2497 10.5312 12.4878 10.5813 12.7133C10.5813 12.7258 10.5813 12.7383 10.5938 12.7634C10.6188 12.8761 10.6439 13.0014 10.6815 13.1141C10.7817 13.4148 10.9195 13.6904 11.0949 13.9409C11.2577 14.1789 11.4456 14.4044 11.6711 14.6049V19.0145L14.0011 16.8223L16.3435 19.0145V14.6049C16.7946 14.204 17.1327 13.6904 17.3333 13.1141C17.3707 13.0014 17.3958 12.8761 17.4209 12.7634C17.4334 12.7383 17.4334 12.7258 17.4334 12.7133C17.4835 12.4878 17.5086 12.2497 17.5086 12.0117C17.5086 11.7737 17.4835 11.5357 17.4334 11.3102ZM15.6295 12.0117C15.6295 12.9012 14.903 13.6277 14.0011 13.6277C13.1117 13.6277 12.3851 12.9012 12.3851 12.0117C12.3851 11.7612 12.4352 11.5231 12.548 11.3102C12.7985 10.759 13.3622 10.3831 14.0011 10.3831C14.6525 10.3831 15.2162 10.759 15.4667 11.3102C15.5794 11.5231 15.6295 11.7612 15.6295 12.0117Z" fill="#4285F4"/>
</svg>
