<svg width="32" height="32" viewBox="0 0 32 32" fill="none" xmlns="http://www.w3.org/2000/svg">
<path d="M16 0L3.06666 5.86667V14.5333C2.93333 22.6667 8.53333 30.1333 16 32C23.4667 30.1333 28.9333 22.6667 28.9333 14.5333V5.86667L16 0Z" fill="#4285F4"/>
<path d="M28.9333 16C28.7999 17.0667 28.6666 18.1333 28.3999 18.9333C28.1333 20.1333 27.7333 21.0667 27.4666 21.7333C27.3333 22.1333 27.1999 22.4 27.0666 22.6667C26.7999 23.0667 26.6666 23.4667 26.3999 23.8667C25.8666 24.8 25.3333 25.4667 24.7999 26.1333C24.2666 26.8 23.5999 27.4667 22.7999 28.2667C21.9999 28.9333 21.8666 29.2 20.9333 29.7333C19.9999 30.2667 19.4666 30.6667 17.7333 31.3333C17.3333 31.6 16.7999 31.7333 15.9999 32L11.7333 26.1333V8H15.9999H22.2666L28.9333 16Z" fill="#2879EA"/>
<path d="M16 4.40002C20 4.40002 23.2 7.60002 23.2 11.7334C23.2 14.1334 22.1334 16.2667 20.2667 17.6V26.2667L16 22.1334L11.7334 26.2667V17.6C10 16.2667 8.80005 14.1334 8.80005 11.7334C8.80005 7.60002 12 4.40002 16 4.40002ZM16 15.3334C18 15.3334 19.6 13.7334 19.6 11.7334C19.6 9.73336 18 8.00002 16 8.00002C14 8.00002 12.4 9.60002 12.4 11.6C12.4 13.6 14 15.3334 16 15.3334Z" fill="white"/>
</svg>
