<svg width="32" height="32" viewBox="0 0 32 32" fill="none" xmlns="http://www.w3.org/2000/svg">
<path d="M2.66663 20.7467L6.66663 24V8L2.66663 11.24V20.7467Z" fill="#669DF6"/>
<path d="M2.66663 13.3333L6.66663 10.6667V8L2.66663 13.3333Z" fill="#4285F4"/>
<path d="M6.66663 24V21.3333L2.66663 18.6666L6.66663 24Z" fill="#4285F4"/>
<path d="M10.6666 26.6666L2.66663 18.6666V24L7.99996 29.3333L10.6666 26.6666Z" fill="#AECBFA"/>
<path d="M7.98663 2.68005L2.66663 8.00005L2.67996 13.3334L10.6533 5.34672L7.98663 2.68005Z" fill="#AECBFA"/>
<path d="M29.3333 11.2668L25.3333 8.01343V24.0134L29.3333 20.7868V11.2668Z" fill="#669DF6"/>
<path d="M29.3333 18.6801L25.3333 21.3467V24.0134L29.3333 18.6801Z" fill="#4285F4"/>
<path d="M25.3333 8.01343V10.6801L29.3333 13.3468L25.3333 8.01343Z" fill="#4285F4"/>
<path d="M21.3333 5.34672L29.3333 13.3467V8.01339L23.9999 2.68005L21.3333 5.34672Z" fill="#AECBFA"/>
<path d="M24.0133 29.3334L29.3333 24.0134L29.32 18.6801L21.3467 26.6667L24.0133 29.3334Z" fill="#AECBFA"/>
<path d="M10.6666 17.3334C11.403 17.3334 11.9999 16.7365 11.9999 16.0001C11.9999 15.2637 11.403 14.6667 10.6666 14.6667C9.93021 14.6667 9.33325 15.2637 9.33325 16.0001C9.33325 16.7365 9.93021 17.3334 10.6666 17.3334Z" fill="#AECBFA"/>
<path d="M16 17.3334C16.7363 17.3334 17.3333 16.7365 17.3333 16.0001C17.3333 15.2637 16.7363 14.6667 16 14.6667C15.2636 14.6667 14.6666 15.2637 14.6666 16.0001C14.6666 16.7365 15.2636 17.3334 16 17.3334Z" fill="#AECBFA"/>
<path d="M21.3199 17.3334C22.0563 17.3334 22.6532 16.7365 22.6532 16.0001C22.6532 15.2637 22.0563 14.6667 21.3199 14.6667C20.5835 14.6667 19.9866 15.2637 19.9866 16.0001C19.9866 16.7365 20.5835 17.3334 21.3199 17.3334Z" fill="#AECBFA"/>
</svg>
