<svg width="32" height="32" viewBox="0 0 32 32" fill="none" xmlns="http://www.w3.org/2000/svg">
<path d="M10.9373 23.1107C9.41866 23.1214 8.19332 24.3521 8.18799 25.8707C8.18799 25.9814 8.19866 26.0907 8.20799 26.2014C8.39332 27.712 9.76932 28.7854 11.28 28.6001C12.5347 28.4454 13.524 27.456 13.6787 26.2014C13.688 26.0907 13.6987 25.9814 13.6987 25.8707C13.692 24.3481 12.46 23.1161 10.9373 23.1107ZM10.9373 27.6201C9.96799 27.6174 9.18399 26.8294 9.18799 25.8601C9.19199 24.8907 9.97866 24.1067 10.948 24.1107C11.9173 24.1134 12.7013 24.9014 12.6973 25.8707C12.6973 26.8374 11.9133 27.6214 10.948 27.6214C10.944 27.6201 10.9413 27.6201 10.9373 27.6201Z" fill="#AECBFA"/>
<path d="M23.7907 5.79997C23.6054 4.2893 22.2294 3.21597 20.7187 3.4013C19.464 3.55597 18.4747 4.5453 18.32 5.79997C18.3094 5.9093 18.3 6.01997 18.3 6.1293C18.3 7.65063 19.5334 8.88397 21.0547 8.88397C22.576 8.88397 23.8094 7.65063 23.8094 6.1293C23.812 6.01997 23.8 5.9093 23.7907 5.79997ZM21.0627 7.89063C20.0934 7.8933 19.3054 7.1093 19.3027 6.1413C19.3 5.17197 20.084 4.38397 21.052 4.3813C22.0214 4.37863 22.8094 5.16263 22.812 6.13063C22.8107 7.0973 22.0307 7.88263 21.0627 7.89063Z" fill="#AECBFA"/>
<path d="M17 13.4373C16.3573 13.184 15.6427 13.184 15 13.4373C13.5853 13.988 12.884 15.5826 13.436 16.9973C13.716 17.7146 14.2827 18.2826 15 18.5613C15.6427 18.8146 16.3573 18.8146 17 18.5613C18.4147 18.0106 19.116 16.416 18.564 15.0013C18.2853 14.284 17.7173 13.7173 17 13.4373ZM16 17.7493C15.0333 17.7493 14.2507 16.9653 14.2507 16C14.2507 15.0333 15.0347 14.2506 16 14.2506C16.9667 14.2506 17.7493 15.0346 17.7493 16C17.752 16.964 16.972 17.748 16.008 17.7493C16.0053 17.7506 16.0027 17.7506 16 17.7493Z" fill="#AECBFA"/>
<path d="M15 18.5626V20.8133C14.9987 22.1893 14.2987 23.4706 13.14 24.2133C13.504 24.6906 13.7013 25.2733 13.7027 25.8733C13.7027 25.984 13.692 26.0933 13.6827 26.2026C15.7187 25.1786 17.004 23.092 17 20.8133V18.5626C16.3573 18.816 15.6427 18.816 15 18.5626Z" fill="#4285F4"/>
<path d="M8.64533 10.468C8.64533 8.94671 7.41333 7.71338 5.892 7.71338C4.37066 7.71338 3.13733 8.94538 3.13733 10.4667C3.13733 11.988 4.36933 13.2214 5.89066 13.2214C7.412 13.22 8.64266 11.988 8.64533 10.468Z" fill="#4285F4"/>
<path d="M6.89063 20.812V16.3494C6.89063 15.7974 6.44263 15.3494 5.89063 15.3494C5.33863 15.3494 4.89062 15.7974 4.89062 16.3494V20.812C4.89062 23.092 6.17463 25.176 8.21063 26.2014C8.19996 26.0907 8.19063 25.9814 8.19063 25.872C8.19196 25.272 8.38929 24.6894 8.75329 24.212C7.59329 23.4707 6.89196 22.1894 6.89063 20.812Z" fill="#4285F4"/>
<path d="M26.1093 18.7787C24.5879 18.7787 23.3546 20.0107 23.3546 21.532C23.3546 23.0534 24.5866 24.2867 26.1079 24.2867C27.6293 24.2867 28.8626 23.0547 28.8626 21.5334C28.8599 20.0134 27.6293 18.78 26.1093 18.7787Z" fill="#4285F4"/>
<path d="M25.1107 11.188V15.6507C25.1107 16.2027 25.5587 16.6507 26.1107 16.6507C26.6627 16.6507 27.1107 16.2027 27.1107 15.6507V11.188C27.1094 8.90938 25.8254 6.82538 23.7907 5.80005C23.8 5.90938 23.8107 6.02005 23.8107 6.12938C23.8094 6.72938 23.612 7.31205 23.248 7.78938C24.4054 8.53205 25.108 9.81205 25.1107 11.188Z" fill="#4285F4"/>
<path d="M18.32 5.80005C16.2827 6.82272 14.9987 8.90805 15 11.188V13.4387C15.6427 13.1854 16.3573 13.1854 17 13.4387V11.188C17.0013 9.81205 17.7013 8.53072 18.86 7.78805C18.496 7.31072 18.2987 6.72805 18.2973 6.12805C18.3 6.02005 18.312 5.90938 18.32 5.80005Z" fill="#4285F4"/>
</svg>
