<svg width="32" height="32" viewBox="0 0 32 32" fill="none" xmlns="http://www.w3.org/2000/svg">
<path fill-rule="evenodd" clip-rule="evenodd" d="M17.7866 17.0134V11.2001H14.2133V17.0134L9.18665 19.9201L10.9733 23.0134L16 20.1067L21.0266 23.0134L22.8133 19.9201L17.7866 17.0134Z" fill="#669DF6"/>
<path fill-rule="evenodd" clip-rule="evenodd" d="M17.7866 17.0134V11.2001H16V18.0267L10.08 21.4667L10.9733 23.0134L16 20.1067L21.0266 23.0134L22.8133 19.9201L17.7866 17.0134Z" fill="#4285F4"/>
<path fill-rule="evenodd" clip-rule="evenodd" d="M14.2 3.69336L11.4933 5.32003V10.2934L16 12.7334V8.58669L14.2 7.76003V3.69336Z" fill="#AECBFA"/>
<path fill-rule="evenodd" clip-rule="evenodd" d="M17.8 7.76003L16 8.58669V12.7334L20.5067 10.2934V5.32003L17.8 3.69336V7.76003Z" fill="#669DF6"/>
<path fill-rule="evenodd" clip-rule="evenodd" d="M24.1866 22.7733L24.0799 24.6267L27.6799 26.6667L24.7732 28.2667L20.4532 25.7733L20.5999 20.6667L24.9599 18L29.3332 20.5067V23.8267L25.7466 21.76L24.1866 22.7733Z" fill="#669DF6"/>
<path fill-rule="evenodd" clip-rule="evenodd" d="M7.81329 22.7733L6.25329 21.76L2.66663 23.8266V20.5066L6.97329 18.0133L11.3333 20.68L11.48 25.7866L7.22663 28.3066L4.31996 26.6666L7.91996 24.5866L7.81329 22.7733Z" fill="#669DF6"/>
<path fill-rule="evenodd" clip-rule="evenodd" d="M29.3333 23.8267L29.2666 20.5067L24.96 18.0267L20.6 20.7067L24.1866 22.7734L25.7333 21.7601L29.3333 23.8267Z" fill="#AECBFA"/>
<path fill-rule="evenodd" clip-rule="evenodd" d="M2.66663 23.8267L6.26663 21.7601L7.81329 22.7734L11.4 20.7067L7.03996 18.0267L2.73329 20.5067L2.66663 23.8267Z" fill="#AECBFA"/>
</svg>
