<svg width="32" height="32" viewBox="0 0 32 32" fill="none" xmlns="http://www.w3.org/2000/svg">
<path d="M29.3333 5.33337H2.66663V14.6667H29.3333V5.33337Z" fill="#AECBFA"/>
<path d="M29.3333 5.33337H26.6666V14.6667H29.3333V5.33337Z" fill="#669DF6"/>
<path d="M29.3333 5.33337H26.6666V14.6667L29.3333 5.33337Z" fill="#4285F4"/>
<path d="M5.33329 5.33337H2.66663V14.6667H5.33329V5.33337Z" fill="#669DF6"/>
<path d="M16 9.33337H8V10.6667H16V9.33337Z" fill="white"/>
<path d="M24 10C24 8.89543 23.1046 8 22 8C20.8954 8 20 8.89543 20 10C20 11.1046 20.8954 12 22 12C23.1046 12 24 11.1046 24 10Z" fill="white"/>
<path d="M29.3333 17.3334H2.66663V26.6667H29.3333V17.3334Z" fill="#AECBFA"/>
<path d="M29.3333 17.3334H26.6666V26.6667H29.3333V17.3334Z" fill="#669DF6"/>
<path d="M29.3333 17.3334H26.6666V26.6667L29.3333 17.3334Z" fill="#4285F4"/>
<path d="M5.33329 17.3334H2.66663V26.6667H5.33329V17.3334Z" fill="#669DF6"/>
<path d="M16 21.3334H8V22.6667H16V21.3334Z" fill="white"/>
<path d="M24 22C24 20.8954 23.1046 20 22 20C20.8954 20 20 20.8954 20 22C20 23.1046 20.8954 24 22 24C23.1046 24 24 23.1046 24 22Z" fill="white"/>
</svg>
