<svg width="32" height="32" viewBox="0 0 32 32" fill="none" xmlns="http://www.w3.org/2000/svg">
<path d="M16.2 21.6534L20.8934 18.9467V13.5334L19.32 12.6134L14.6267 20.7467L16.2 21.6534Z" fill="#4285F4"/>
<path d="M11.5067 13.5334V18.9467L13.08 19.8534L17.7867 11.7334L16.2 10.8134L11.5067 13.5334Z" fill="#669DF6"/>
<path d="M15.28 23.2667L9.65332 20.0133V13.5333L4.65332 10.64V22.9067L15.28 29.04V23.2667Z" fill="#AECBFA"/>
<path d="M10.5733 11.9333L16.1999 8.67998L21.8266 11.9333L26.8399 9.03998L16.1999 2.89331L5.55994 9.03998L10.5733 11.9333Z" fill="#AECBFA"/>
<path d="M22.7467 20.0133L17.12 23.2667V29.04L27.76 22.9067V10.64L22.7467 13.5333V20.0133Z" fill="#AECBFA"/>
</svg>
