<svg width="32" height="32" viewBox="0 0 32 32" fill="none" xmlns="http://www.w3.org/2000/svg">
<path d="M8.55993 17.3334C7.22113 17.4011 5.95951 17.9806 5.03587 18.9521C4.11222 19.9236 3.59717 21.2129 3.59717 22.5534C3.59717 23.8939 4.11222 25.1832 5.03587 26.1547C5.95951 27.1262 7.22113 27.7057 8.55993 27.7734C9.89873 27.7057 11.1604 27.1262 12.084 26.1547C13.0076 25.1832 13.5227 23.8939 13.5227 22.5534C13.5227 21.2129 13.0076 19.9236 12.084 18.9521C11.1604 17.9806 9.89873 17.4011 8.55993 17.3334ZM7.99993 22.7867L7.15993 25.6L6.05327 26.16L6.87993 22.7867L6.05327 19.4267L7.15993 19.9867L7.99993 22.7867ZM7.99993 26.16L9.1066 22.7867L7.99993 19.4267L12.4266 22.7867L7.99993 26.16Z" fill="#AECBFA"/>
<path d="M17 4.17334L9.95996 16.56C10.5498 16.6982 11.1159 16.9229 11.64 17.2267L16.9733 7.81334L22.7333 17.9067L17 12.08L11.8133 17.3333C12.316 17.6581 12.7658 18.0583 13.1466 18.52L17 14.6667L23.0933 20.8533L17 18.0933L13.8666 19.4933C14.174 20.0204 14.3989 20.5915 14.5333 21.1867L17 20.08L22.8133 22.7467H14.6666C14.659 23.3623 14.5602 23.9734 14.3733 24.56H28.5733L17 4.17334Z" fill="#4285F4"/>
</svg>
