<svg width="32" height="32" viewBox="0 0 32 32" fill="none" xmlns="http://www.w3.org/2000/svg">
<path d="M23.32 16.5333V25.4666C23.32 25.608 23.2638 25.7437 23.1638 25.8437C23.0637 25.9437 22.9281 25.9999 22.7866 25.9999H6.53329C6.39184 25.9999 6.25619 25.9437 6.15617 25.8437C6.05615 25.7437 5.99996 25.608 5.99996 25.4666V9.19992C5.99996 9.05847 6.05615 8.92281 6.15617 8.8228C6.25619 8.72278 6.39184 8.66659 6.53329 8.66659H15.4666C15.6081 8.66659 15.7437 8.61039 15.8438 8.51038C15.9438 8.41036 16 8.2747 16 8.13325V5.86659C16 5.72514 15.9438 5.58948 15.8438 5.48946C15.7437 5.38944 15.6081 5.33325 15.4666 5.33325H3.19996C3.05851 5.33325 2.92286 5.38944 2.82284 5.48946C2.72282 5.58948 2.66663 5.72514 2.66663 5.86659V28.7999C2.66663 28.9414 2.72282 29.077 2.82284 29.177C2.92286 29.2771 3.05851 29.3333 3.19996 29.3333H26.1333C26.2747 29.3333 26.4104 29.2771 26.5104 29.177C26.6104 29.077 26.6666 28.9414 26.6666 28.7999V16.5333C26.6666 16.3918 26.6104 16.2561 26.5104 16.1561C26.4104 16.0561 26.2747 15.9999 26.1333 15.9999H23.8533C23.7833 15.9999 23.7139 16.0137 23.6492 16.0405C23.5845 16.0673 23.5257 16.1066 23.4762 16.1561C23.4266 16.2057 23.3874 16.2644 23.3606 16.3292C23.3338 16.3939 23.32 16.4632 23.32 16.5333Z" fill="#669DF6"/>
<path d="M18.6666 3.19996V12.8C18.6666 12.9414 18.7228 13.0771 18.8228 13.1771C18.9229 13.2771 19.0585 13.3333 19.2 13.3333H28.8C28.9414 13.3333 29.0771 13.2771 29.1771 13.1771C29.2771 13.0771 29.3333 12.9414 29.3333 12.8V3.19996C29.3333 3.05851 29.2771 2.92286 29.1771 2.82284C29.0771 2.72282 28.9414 2.66663 28.8 2.66663H19.2C19.0585 2.66663 18.9229 2.72282 18.8228 2.82284C18.7228 2.92286 18.6666 3.05851 18.6666 3.19996ZM26.1333 8.66663H23.8533C23.7118 8.66663 23.5762 8.61044 23.4762 8.51042C23.3761 8.4104 23.32 8.27474 23.32 8.13329V5.86663C23.32 5.72518 23.3761 5.58952 23.4762 5.4895C23.5762 5.38948 23.7118 5.33329 23.8533 5.33329H26.1333C26.2747 5.33329 26.4104 5.38948 26.5104 5.4895C26.6104 5.58952 26.6666 5.72518 26.6666 5.86663V8.13329C26.6666 8.27474 26.6104 8.4104 26.5104 8.51042C26.4104 8.61044 26.2747 8.66663 26.1333 8.66663Z" fill="#4285F4"/>
</svg>
