<svg width="32" height="32" viewBox="0 0 32 32" fill="none" xmlns="http://www.w3.org/2000/svg">
<path d="M8.59996 24.32C7.80883 24.32 7.03547 24.0854 6.37768 23.6459C5.71988 23.2063 5.20719 22.5816 4.90444 21.8507C4.60169 21.1198 4.52247 20.3155 4.67681 19.5396C4.83116 18.7637 5.21212 18.051 5.77153 17.4915C6.33094 16.9321 7.04367 16.5512 7.81959 16.3968C8.59552 16.2425 9.39979 16.3217 10.1307 16.6245C10.8616 16.9272 11.4863 17.4399 11.9258 18.0977C12.3654 18.7555 12.6 19.5288 12.6 20.32C12.6 21.3808 12.1785 22.3983 11.4284 23.1484C10.6782 23.8985 9.66082 24.32 8.59996 24.32ZM13.44 23.7866C13.9642 23.0244 14.3021 22.1496 14.4264 21.2329C14.5507 20.3161 14.4579 19.383 14.1555 18.5086C13.8531 17.6343 13.3495 16.8432 12.6854 16.1992C12.0212 15.5551 11.2151 15.076 10.3319 14.8006C9.44872 14.5251 8.51317 14.461 7.60065 14.6133C6.68813 14.7657 5.82415 15.1302 5.07833 15.6777C4.33251 16.2251 3.72571 16.94 3.3068 17.7649C2.8879 18.5898 2.66862 19.5015 2.66662 20.4266C2.64628 20.7241 2.64628 21.0225 2.66662 21.32C2.69376 21.5179 2.73385 21.7139 2.78662 21.9066L2.86662 22.1866C2.98443 22.5512 3.13621 22.9038 3.31996 23.24C3.58967 23.7323 3.93119 24.1816 4.33329 24.5733L4.53329 24.7733L4.97329 25.1333C5.27679 25.3617 5.60295 25.5583 5.94662 25.72C6.89669 26.2075 7.96092 26.4289 9.02657 26.3608C10.0922 26.2927 11.1196 25.9377 12 25.3333L15.9066 29.24C15.9476 29.2815 15.9963 29.3145 16.0501 29.337C16.1039 29.3595 16.1616 29.3711 16.22 29.3711C16.2783 29.3711 16.336 29.3595 16.3898 29.337C16.4436 29.3145 16.4924 29.2815 16.5333 29.24L17.4133 28.3733C17.4548 28.3324 17.4878 28.2836 17.5103 28.2298C17.5328 28.176 17.5444 28.1183 17.5444 28.06C17.5444 28.0017 17.5328 27.9439 17.5103 27.8901C17.4878 27.8364 17.4548 27.7876 17.4133 27.7466L13.44 23.7866Z" fill="#4285F4"/>
<path d="M15.7333 22.1067C15.9167 21.4515 16.0065 20.7737 16 20.0933C15.9614 18.1447 15.1529 16.2906 13.7512 14.9364C12.3496 13.5822 10.4687 12.8381 8.51996 12.8667C7.64644 12.877 6.78094 13.0348 5.95996 13.3333V7.77332C5.95996 7.55408 6.04706 7.34381 6.20209 7.18878C6.35712 7.03375 6.56738 6.94666 6.78663 6.94666H28.3733C28.5938 6.94663 28.8054 7.03329 28.9626 7.18795C29.1198 7.34261 29.2098 7.55286 29.2133 7.77332V21.3333C29.2133 21.5561 29.1248 21.7698 28.9673 21.9273C28.8097 22.0848 28.5961 22.1733 28.3733 22.1733L15.7333 22.1067Z" fill="#AECBFA"/>
<path fill-rule="evenodd" clip-rule="evenodd" d="M20.7732 6.94667V4.97333H14.8532V6.94667H12.8666V3.82667C12.8701 3.6062 12.9601 3.39596 13.1173 3.2413C13.2744 3.08664 13.4861 2.99997 13.7066 3H21.9199C22.0285 3 22.136 3.02138 22.2363 3.06293C22.3366 3.10447 22.4277 3.16536 22.5045 3.24213C22.5812 3.31889 22.6421 3.41002 22.6837 3.51031C22.7252 3.61061 22.7466 3.71811 22.7466 3.82667V6.94667H20.7732Z" fill="#669DF6"/>
<path fill-rule="evenodd" clip-rule="evenodd" d="M20.7733 6.94661L22.7466 6.31995V6.94661H20.7733Z" fill="#4285F4"/>
<path fill-rule="evenodd" clip-rule="evenodd" d="M12.8533 6.94668L14.8399 6.22668V6.94668H12.8533Z" fill="#4285F4"/>
</svg>
