<svg width="32" height="32" viewBox="0 0 32 32" fill="none" xmlns="http://www.w3.org/2000/svg">
<path d="M8.63997 12.8267C8.50913 12.8356 8.38014 12.7921 8.28137 12.7058C8.1826 12.6195 8.12215 12.4976 8.11331 12.3667C8.10447 12.2359 8.14797 12.1069 8.23423 12.0081C8.3205 11.9094 8.44247 11.8489 8.57331 11.8401L11.64 11.4134C11.7048 11.404 11.7709 11.4077 11.8344 11.4241C11.8978 11.4406 11.9573 11.4695 12.0095 11.5092C12.0616 11.549 12.1053 11.5987 12.138 11.6555C12.1707 11.7123 12.1918 11.775 12.2 11.8401C12.2191 11.9726 12.1849 12.1073 12.1049 12.2148C12.025 12.3222 11.9058 12.3936 11.7733 12.4134L8.70664 12.8267H8.63997Z" fill="#4285F4"/>
<path d="M12.7097 11.4395L12.3995 12.3901L17.9261 14.1933L18.2363 13.2426L12.7097 11.4395Z" fill="#4285F4"/>
<path d="M12.24 12.2134H12.0933C11.9702 12.1736 11.8676 12.0869 11.8078 11.9722C11.7479 11.8575 11.7355 11.7238 11.7733 11.6001L12.88 7.8134C12.9198 7.69027 13.0064 7.58773 13.1211 7.52788C13.2359 7.46802 13.3695 7.45563 13.4933 7.49339C13.5562 7.50881 13.6153 7.53678 13.6671 7.57563C13.7188 7.61448 13.7622 7.6634 13.7946 7.71945C13.827 7.7755 13.8477 7.83753 13.8555 7.90179C13.8633 7.96605 13.858 8.03123 13.84 8.0934L12.72 11.8401C12.6911 11.9458 12.6288 12.0394 12.5422 12.1067C12.4557 12.1741 12.3496 12.2115 12.24 12.2134Z" fill="#4285F4"/>
<path d="M19.0799 14.0801C18.9974 14.081 18.9159 14.0607 18.8435 14.021C18.7711 13.9813 18.7102 13.9235 18.6666 13.8534C18.6167 13.7759 18.5901 13.6856 18.5901 13.5934C18.5901 13.5012 18.6167 13.4109 18.6666 13.3334L20.8933 7.69339C20.9505 7.58384 21.0458 7.49898 21.1612 7.45478C21.2766 7.41058 21.4042 7.41008 21.5199 7.45339C21.6357 7.49842 21.7309 7.58441 21.7875 7.69503C21.844 7.80564 21.8579 7.93318 21.8266 8.05339L19.5866 13.7067C19.5546 13.8158 19.4877 13.9113 19.3962 13.9787C19.3047 14.0462 19.1936 14.0818 19.0799 14.0801Z" fill="#4285F4"/>
<path d="M12.8001 17.9531L7.55945 22.1382L8.18346 22.9196L13.4241 18.7345L12.8001 17.9531Z" fill="#4285F4"/>
<path d="M18.8267 14.2801L19.2133 13.3601L24.0667 15.4801L23.6667 16.3868L18.8267 14.2801Z" fill="#4285F4"/>
<path d="M18.6533 19.4534L19.3467 18.7201L23.6533 22.7868L22.96 23.5068L18.6533 19.4534Z" fill="#4285F4"/>
<path d="M12.6968 11.9516L11.7168 12.1506L12.7942 17.4557L13.7742 17.2566L12.6968 11.9516Z" fill="#4285F4"/>
<path d="M13.28 18.1334L18.7467 13.3334L19.4134 14.08L13.9467 18.88L13.28 18.1334Z" fill="#4285F4"/>
<path d="M18.3334 18.9601L18.6534 13.6667L19.6534 13.7334L19.32 19.0267L18.3334 18.9601Z" fill="#4285F4"/>
<path d="M13.3467 20.2401C14.3481 20.2401 15.16 19.4282 15.16 18.4267C15.16 17.4253 14.3481 16.6134 13.3467 16.6134C12.3452 16.6134 11.5333 17.4253 11.5333 18.4267C11.5333 19.4282 12.3452 20.2401 13.3467 20.2401Z" fill="#4285F4"/>
<path d="M19.16 15.9601C20.3455 15.9601 21.3066 14.999 21.3066 13.8134C21.3066 12.6278 20.3455 11.6667 19.16 11.6667C17.9744 11.6667 17.0133 12.6278 17.0133 13.8134C17.0133 14.999 17.9744 15.9601 19.16 15.9601Z" fill="#4285F4"/>
<path d="M19.1466 20.5067C19.7652 20.5067 20.2666 20.0053 20.2666 19.3867C20.2666 18.7682 19.7652 18.2667 19.1466 18.2667C18.5281 18.2667 18.0266 18.7682 18.0266 19.3867C18.0266 20.0053 18.5281 20.5067 19.1466 20.5067Z" fill="#4285F4"/>
<path d="M12.0533 12.8801C12.7823 12.8801 13.3733 12.2891 13.3733 11.5601C13.3733 10.8311 12.7823 10.2401 12.0533 10.2401C11.3243 10.2401 10.7333 10.8311 10.7333 11.5601C10.7333 12.2891 11.3243 12.8801 12.0533 12.8801Z" fill="#4285F4"/>
<path d="M17.3333 4H14.6666V9.33333H17.3333V4Z" fill="#669DF6"/>
<path d="M22.6667 4H20V9.33333H22.6667V4Z" fill="#669DF6"/>
<path d="M12 4H9.33337V9.33333H12V4Z" fill="#669DF6"/>
<path d="M17.3333 22.6666H14.6666V28H17.3333V22.6666Z" fill="#669DF6"/>
<path d="M22.6667 22.6666H20V28H22.6667V22.6666Z" fill="#669DF6"/>
<path d="M12 22.6666H9.33337V28H12V22.6666Z" fill="#669DF6"/>
<path d="M9.33333 14.6666H4V17.3333H9.33333V14.6666Z" fill="#669DF6"/>
<path d="M9.33333 9.33337H4V12H9.33333V9.33337Z" fill="#669DF6"/>
<path d="M9.33333 20H4V22.6667H9.33333V20Z" fill="#669DF6"/>
<path d="M28 14.6666H22.6666V17.3333H28V14.6666Z" fill="#669DF6"/>
<path d="M28 9.33337H22.6666V12H28V9.33337Z" fill="#669DF6"/>
<path d="M28 20H22.6666V22.6667H28V20Z" fill="#669DF6"/>
<path d="M24 6.66663H7.99996C7.64634 6.66663 7.3072 6.8071 7.05715 7.05715C6.8071 7.3072 6.66663 7.64634 6.66663 7.99996V24C6.66663 24.3536 6.8071 24.6927 7.05715 24.9428C7.3072 25.1928 7.64634 25.3333 7.99996 25.3333H24C24.3536 25.3333 24.6927 25.1928 24.9428 24.9428C25.1928 24.6927 25.3333 24.3536 25.3333 24V7.99996C25.3333 7.64634 25.1928 7.3072 24.9428 7.05715C24.6927 6.8071 24.3536 6.66663 24 6.66663ZM22.6666 21.96C22.6666 22.0528 22.6483 22.1447 22.6128 22.2304C22.5773 22.3161 22.5253 22.394 22.4596 22.4596C22.394 22.5253 22.3161 22.5773 22.2304 22.6128C22.1447 22.6483 22.0528 22.6666 21.96 22.6666H10.04C9.94716 22.6666 9.85527 22.6483 9.76953 22.6128C9.68379 22.5773 9.60589 22.5253 9.54027 22.4596C9.47465 22.394 9.4226 22.3161 9.38708 22.2304C9.35157 22.1447 9.33329 22.0528 9.33329 21.96V10.04C9.33329 9.85254 9.40774 9.6728 9.54027 9.54027C9.6728 9.40774 9.85254 9.33329 10.04 9.33329H21.96C22.0528 9.33329 22.1447 9.35157 22.2304 9.38708C22.3161 9.4226 22.394 9.47465 22.4596 9.54027C22.5253 9.60589 22.5773 9.68379 22.6128 9.76953C22.6483 9.85527 22.6666 9.94716 22.6666 10.04V21.96Z" fill="#669DF6"/>
</svg>
