<svg width="32" height="32" viewBox="0 0 32 32" fill="none" xmlns="http://www.w3.org/2000/svg">
<path d="M15.2667 19.2C17.3948 19.2 19.12 17.4748 19.12 15.3466C19.12 13.2185 17.3948 11.4933 15.2667 11.4933C13.1385 11.4933 11.4133 13.2185 11.4133 15.3466C11.4133 17.4748 13.1385 19.2 15.2667 19.2Z" fill="#669DF6"/>
<path d="M24.0667 9.07998C22.4891 6.86905 20.1381 5.33185 17.48 4.77332L17.12 6.50665C19.0925 6.91501 20.8725 7.96952 22.1782 9.50329C23.484 11.0371 24.2409 12.9625 24.3293 14.9749C24.4176 16.9872 23.8324 18.9716 22.6661 20.6139C21.4998 22.2562 19.8191 23.4627 17.89 24.0424C15.9609 24.622 13.8935 24.5418 12.0152 23.8143C10.1368 23.0869 8.55468 21.7538 7.51918 20.026C6.48368 18.2983 6.05396 16.2745 6.29802 14.275C6.54209 12.2756 7.44599 10.4146 8.86669 8.98665L7.53336 7.73332C6.13277 9.14051 5.14719 10.9066 4.6849 12.8374C4.22262 14.7682 4.30152 16.7891 4.91295 18.6781C5.52438 20.567 6.64466 22.2508 8.15071 23.5445C9.65675 24.8382 11.4903 25.6917 13.4498 26.0113C15.4093 26.3308 17.419 26.104 19.258 25.3558C21.0971 24.6076 22.6943 23.367 23.8741 21.7702C25.054 20.1734 25.7709 18.2823 25.946 16.3046C26.1211 14.3269 25.7476 12.3392 24.8667 10.56C24.6195 10.4006 24.4166 10.1814 24.2768 9.92265C24.1369 9.66392 24.0647 9.37408 24.0667 9.07998Z" fill="#AECBFA"/>
<path d="M19.2799 27.2266C18.8945 27.2997 18.4977 27.2868 18.1179 27.1889C17.738 27.091 17.3844 26.9106 17.0823 26.6603C16.7802 26.4101 16.537 26.0963 16.37 25.7413C16.2031 25.3863 16.1166 24.9989 16.1166 24.6066C16.1166 24.2143 16.2031 23.8269 16.37 23.4719C16.537 23.1169 16.7802 22.8031 17.0823 22.5529C17.3844 22.3027 17.738 22.1222 18.1179 22.0243C18.4977 21.9264 18.8945 21.9135 19.2799 21.9866" fill="#669DF6"/>
<path d="M19.28 21.9866C19.6654 21.9135 20.0622 21.9264 20.4421 22.0243C20.822 22.1222 21.1756 22.3027 21.4777 22.5529C21.7798 22.8031 22.023 23.1169 22.1899 23.4719C22.3568 23.8269 22.4434 24.2143 22.4434 24.6066C22.4434 24.9989 22.3568 25.3863 22.1899 25.7413C22.023 26.0963 21.7798 26.4101 21.4777 26.6603C21.1756 26.9106 20.822 27.091 20.4421 27.1889C20.0622 27.2868 19.6654 27.2997 19.28 27.2266" fill="#4285F4"/>
<path d="M25.8401 10.8C25.3946 10.7614 24.9797 10.5571 24.6775 10.2276C24.3753 9.89801 24.2076 9.46711 24.2076 9.01995C24.2076 8.57279 24.3753 8.14189 24.6775 7.81233C24.9797 7.48278 25.3946 7.27854 25.8401 7.23995V5.90662C25.0357 5.95884 24.2814 6.31518 23.7302 6.9033C23.179 7.49142 22.8723 8.26725 22.8723 9.07328C22.8723 9.87931 23.179 10.6551 23.7302 11.2433C24.2814 11.8314 25.0357 12.1877 25.8401 12.24V10.8Z" fill="#669DF6"/>
<path d="M25.84 7.24005C26.2855 7.27864 26.7003 7.48288 27.0025 7.81243C27.3048 8.14198 27.4724 8.57289 27.4724 9.02005C27.4724 9.46721 27.3048 9.89811 27.0025 10.2277C26.7003 10.5572 26.2855 10.7615 25.84 10.8V12.1334C26.6443 12.0812 27.3986 11.7248 27.9498 11.1367C28.501 10.5486 28.8077 9.77275 28.8077 8.96672C28.8077 8.16068 28.501 7.38486 27.9498 6.79673C27.3986 6.20861 26.6443 5.85227 25.84 5.80005V7.24005Z" fill="#4285F4"/>
<path d="M5.62662 17.04C5.24121 17.113 4.84442 17.1002 4.46454 17.0023C4.08467 16.9044 3.73107 16.7239 3.42896 16.4737C3.12684 16.2235 2.88365 15.9097 2.71673 15.5547C2.5498 15.1997 2.46326 14.8122 2.46326 14.42C2.46326 14.0277 2.5498 13.6402 2.71673 13.2852C2.88365 12.9302 3.12684 12.6164 3.42896 12.3662C3.73107 12.116 4.08467 11.9355 4.46454 11.8376C4.84442 11.7398 5.24121 11.7269 5.62662 11.8" fill="#669DF6"/>
<path d="M5.62671 11.8C6.23691 11.9157 6.78759 12.2408 7.18374 12.7191C7.5799 13.1974 7.79668 13.799 7.79668 14.42C7.79668 15.0411 7.5799 15.6427 7.18374 16.121C6.78759 16.5993 6.23691 16.9244 5.62671 17.04" fill="#4285F4"/>
</svg>
