<svg width="32" height="32" viewBox="0 0 32 32" fill="none" xmlns="http://www.w3.org/2000/svg">
<path d="M20 13.3334H12L10.6666 16L12 18.6667H20L21.3333 16L20 13.3334Z" fill="#4285F4"/>
<path d="M21.3333 16L20 13.3334H12.68H12L10.6666 16H21.3333Z" fill="#AECBFA"/>
<path d="M24 8H20L25.2933 16L27.2933 13L24 8Z" fill="#4285F4"/>
<path d="M29.2667 16L27.2933 13L25.2933 16L20 24H24L29.2667 16Z" fill="#AECBFA"/>
<path d="M7.93335 24H11.9333L6.64001 16L4.64001 19L7.93335 24Z" fill="#4285F4"/>
<path d="M2.66663 16L4.63996 19L6.63996 16L11.9333 8H7.93329L2.66663 16Z" fill="#AECBFA"/>
</svg>
