<svg width="32" height="32" viewBox="0 0 32 32" fill="none" xmlns="http://www.w3.org/2000/svg">
<path d="M23.88 13.6H21.4533L16 28H18.4267L19.76 24.4H25.52L26.8533 28H29.3333L23.88 13.6ZM20.6933 22L22.6667 16.8L24.64 22H20.6933Z" fill="#4285F4"/>
<path fill-rule="evenodd" clip-rule="evenodd" d="M17.0534 19.6933L13.9734 16.68C16.0464 14.4192 17.5943 11.7284 18.5067 8.8H22.0667V6.4H13.5734V4H11.1467V6.4H2.66675V8.78667H16.2001C15.3652 11.1653 14.0592 13.3511 12.3601 15.2133C11.262 14.0032 10.3212 12.6593 9.56008 11.2133H7.13341C8.04914 13.2108 9.26796 15.0547 10.7467 16.68L4.58675 22.6667L6.30675 24.4L12.3601 18.4L16.1334 22.1333L17.0534 19.6933Z" fill="#669DF6"/>
</svg>
