<svg width="32" height="32" viewBox="0 0 32 32" fill="none" xmlns="http://www.w3.org/2000/svg">
<path fill-rule="evenodd" clip-rule="evenodd" d="M16.4621 2.66663C17.4079 2.66663 18.2082 3.19097 18.8619 4.07626C19.3944 4.79743 19.8543 5.79228 20.2356 7.01315C20.9853 9.41363 21.4089 12.62 21.4089 16.0314C21.4089 19.4428 20.9853 22.6492 20.2356 25.0497C19.8543 26.2705 19.3944 27.2654 18.8619 27.9866C18.2082 28.8718 17.4079 29.3962 16.4621 29.3962C14.2979 29.3962 12.9593 27.5052 12.2453 24.278C12.2236 24.1798 12.2181 24.0821 12.2272 23.9871L14.4005 23.9875C14.6937 25.2926 15.0617 26.575 15.4711 26.9995C15.744 27.2823 16.021 27.3836 16.4621 27.3836C16.4701 27.3836 16.4801 27.382 16.4964 27.3767C16.5269 27.3668 16.5654 27.3479 16.6119 27.3175C16.7461 27.2296 16.9022 27.0741 17.067 26.8509C17.4514 26.3303 17.8247 25.5228 18.147 24.4907C18.8357 22.2858 19.2348 19.2646 19.2348 16.0314C19.2348 12.7982 18.8357 9.77706 18.147 7.57211C17.8247 6.53997 17.4514 5.73253 17.067 5.21196C16.9022 4.98874 16.7461 4.83325 16.6119 4.74536C16.5654 4.71491 16.5269 4.69603 16.4964 4.68614C16.4801 4.68083 16.4701 4.6792 16.4621 4.6792C16.108 4.6792 15.7954 4.8453 15.4538 5.29723C15.0187 5.87296 14.6394 6.81336 14.3465 8.13718L12.1319 8.13662C12.4856 6.3599 12.9925 5.04302 13.6724 4.14349C14.4034 3.17629 15.3628 2.66663 16.4621 2.66663ZM16.7548 19.3333V21.3459H6.18876C5.633 21.3459 5.18247 20.8953 5.18247 20.3396C5.18247 19.7838 5.633 19.3333 6.18876 19.3333H16.7548ZM28.3271 17.195C28.8829 17.195 29.3334 17.6455 29.3334 18.2013C29.3334 18.757 28.8829 19.2076 28.3271 19.2076L23.3358 19.2088C23.4185 18.5533 23.4776 17.8805 23.512 17.1956L28.3271 17.195ZM16.7548 15.0566V17.0691H3.67304C3.11728 17.0691 2.66675 16.6186 2.66675 16.0629C2.66675 15.5071 3.11728 15.0566 3.67304 15.0566H16.7548ZM23.4009 12.9168L28.3271 12.9183C28.8829 12.9183 29.3334 13.3688 29.3334 13.9245C29.3334 14.434 28.9548 14.855 28.4637 14.9216L28.3271 14.9308L23.5346 14.9303C23.5142 14.247 23.4692 13.5742 23.4009 12.9168ZM16.7548 10.7798V12.7924H6.18876C5.633 12.7924 5.18247 12.3419 5.18247 11.7861C5.18247 11.2767 5.56104 10.8557 6.05221 10.789L6.18876 10.7798H16.7548Z" fill="#4285F4"/>
</svg>
