<svg width="32" height="32" viewBox="0 0 32 32" fill="none" xmlns="http://www.w3.org/2000/svg">
<g clip-path="url(#clip0_843_18869)">
<path d="M26.6667 16H24V21.3333H26.6667V16Z" fill="#669DF6"/>
<path d="M17.3333 16H14.6666V21.3333H17.3333V16Z" fill="#669DF6"/>
<path d="M7.99992 16H5.33325V21.3333H7.99992V16Z" fill="#669DF6"/>
<path d="M17.3333 14.6666H14.6666V9.33325H17.3333V14.6666Z" fill="#4285F4"/>
<path d="M26.6666 14.6666H5.33325V17.3333H26.6666V14.6666Z" fill="#669DF6"/>
<path d="M24 2.66663H8V9.33329H24V2.66663Z" fill="#AECBFA"/>
<path d="M24 2.66663H16V9.33329H24V2.66663Z" fill="#669DF6"/>
<path d="M29.3333 21.3333H21.3333V29.3333H29.3333V21.3333Z" fill="#AECBFA"/>
<path d="M10.6666 21.3333H2.66663V29.3333H10.6666V21.3333Z" fill="#AECBFA"/>
<path d="M10.6666 21.3333H6.66663V29.3333H10.6666V21.3333Z" fill="#669DF6"/>
<path d="M20 21.3333H12V29.3333H20V21.3333Z" fill="#AECBFA"/>
<path d="M20 21.3333H16V29.3333H20V21.3333Z" fill="#669DF6"/>
<path d="M29.3333 21.3333H25.3333V29.3333H29.3333V21.3333Z" fill="#669DF6"/>
</g>
<defs>
<clipPath id="clip0_843_18869">
<rect width="32" height="32" fill="white"/>
</clipPath>
</defs>
</svg>
