<svg width="32" height="32" viewBox="0 0 32 32" fill="none" xmlns="http://www.w3.org/2000/svg">
<g clip-path="url(#clip0_845_19023)">
<path d="M26.6667 28C26.3169 27.9986 25.9817 27.8597 25.7334 27.6134L23.0667 24.9467C22.8483 24.6916 22.7341 24.3635 22.7471 24.028C22.76 23.6924 22.8992 23.3741 23.1366 23.1366C23.3741 22.8992 23.6924 22.76 24.028 22.7471C24.3635 22.7341 24.6916 22.8483 24.9467 23.0667L27.6134 25.7334C27.8617 25.9832 28.0011 26.3211 28.0011 26.6734C28.0011 27.0256 27.8617 27.3636 27.6134 27.6134C27.4888 27.7369 27.341 27.8347 27.1786 27.9011C27.0161 27.9674 26.8422 28.001 26.6667 28Z" fill="#669DF6"/>
<path d="M5.33336 28C5.06966 27.9989 4.81221 27.9196 4.59357 27.7722C4.37492 27.6248 4.2049 27.4158 4.105 27.1718C4.0051 26.9278 3.97981 26.6596 4.03232 26.4012C4.08484 26.1427 4.2128 25.9057 4.40003 25.72L7.06669 23.0533C7.19064 22.9284 7.33811 22.8292 7.50059 22.7615C7.66307 22.6938 7.83734 22.6589 8.01336 22.6589C8.18938 22.6589 8.36365 22.6938 8.52613 22.7615C8.68861 22.8292 8.83607 22.9284 8.96003 23.0533C9.20836 23.3032 9.34775 23.6411 9.34775 23.9933C9.34775 24.3456 9.20836 24.6835 8.96003 24.9333L6.29336 27.6C6.1683 27.7276 6.01888 27.8287 5.85397 27.8975C5.68905 27.9662 5.51201 28.001 5.33336 28Z" fill="#669DF6"/>
<path d="M7.29329 22.84L5.66663 24.4666C6.24001 25.1489 6.87368 25.7781 7.55996 26.3466L9.18663 24.72L7.29329 22.84Z" fill="#4285F4"/>
<path d="M26.3067 24.4134L24.9733 23.08C24.8799 22.9971 24.7769 22.9255 24.6667 22.8667L22.88 24.6534C22.9388 24.7636 23.0104 24.8666 23.0933 24.96L24.4267 26.2934C25.1083 25.7242 25.7375 25.095 26.3067 24.4134Z" fill="#4285F4"/>
<path d="M16 28C13.6266 28 11.3066 27.2962 9.33316 25.9776C7.35977 24.6591 5.8217 22.7849 4.91345 20.5922C4.0052 18.3995 3.76756 15.9867 4.23058 13.6589C4.6936 11.3312 5.83649 9.19295 7.51472 7.51472C9.19295 5.83649 11.3312 4.6936 13.6589 4.23058C15.9867 3.76756 18.3995 4.0052 20.5922 4.91345C22.7849 5.8217 24.6591 7.35977 25.9776 9.33316C27.2962 11.3066 28 13.6266 28 16C28 19.1826 26.7357 22.2348 24.4853 24.4853C22.2348 26.7357 19.1826 28 16 28ZM16 25.3333C17.846 25.3333 19.6505 24.7859 21.1853 23.7604C22.7202 22.7348 23.9165 21.2772 24.6229 19.5717C25.3293 17.8663 25.5141 15.9897 25.154 14.1792C24.7939 12.3687 23.905 10.7056 22.5997 9.40034C21.2944 8.09505 19.6313 7.20614 17.8208 6.84601C16.0104 6.48588 14.1337 6.67071 12.4283 7.37713C10.7228 8.08355 9.26518 9.27983 8.23962 10.8147C7.21406 12.3495 6.66667 14.154 6.66667 16C6.66667 18.4754 7.65 20.8493 9.40034 22.5997C11.1507 24.35 13.5247 25.3333 16 25.3333Z" fill="#669DF6"/>
<path d="M16.0001 22.6667C17.7682 22.6667 19.4639 21.9643 20.7141 20.7141C21.9643 19.4638 22.6667 17.7682 22.6667 16C22.6667 14.2319 21.9643 12.5362 20.7141 11.286C19.4639 10.0358 17.7682 9.33337 16.0001 9.33337V16L10.5601 19.88C11.1789 20.7447 11.9955 21.4488 12.9419 21.9335C13.8882 22.4183 14.9368 22.6697 16.0001 22.6667Z" fill="#4285F4"/>
<path d="M5.33328 8.09338C5.06844 8.09492 4.80915 8.01756 4.58846 7.87116C4.36776 7.72476 4.19567 7.51595 4.09411 7.27136C3.99256 7.02677 3.96614 6.75747 4.01824 6.49781C4.07033 6.23815 4.19857 5.99988 4.38661 5.81338L7.05327 3.14672C7.17723 3.02175 7.32469 2.92255 7.48717 2.85486C7.64965 2.78717 7.82393 2.75232 7.99994 2.75232C8.17596 2.75232 8.35023 2.78717 8.51271 2.85486C8.67519 2.92255 8.82266 3.02175 8.94661 3.14672C9.19494 3.39653 9.33433 3.73447 9.33433 4.08672C9.33433 4.43896 9.19494 4.7769 8.94661 5.02672L6.27994 7.69338C6.15646 7.81937 6.0092 7.91959 5.8467 7.98826C5.6842 8.05692 5.50968 8.09265 5.33328 8.09338Z" fill="#AECBFA"/>
<path d="M26.6667 8.09338C26.4903 8.09265 26.3158 8.05692 26.1533 7.98826C25.9908 7.91959 25.8435 7.81937 25.72 7.69338L23.0534 5.02672C22.805 4.7769 22.6656 4.43896 22.6656 4.08672C22.6656 3.73447 22.805 3.39653 23.0534 3.14672C23.1773 3.02175 23.3248 2.92255 23.4873 2.85486C23.6498 2.78717 23.824 2.75232 24 2.75232C24.1761 2.75232 24.3503 2.78717 24.5128 2.85486C24.6753 2.92255 24.8228 3.02175 24.9467 3.14672L27.6134 5.81338C27.8014 5.99988 27.9297 6.23815 27.9817 6.49781C28.0338 6.75747 28.0074 7.02677 27.9059 7.27136C27.8043 7.51595 27.6322 7.72476 27.4115 7.87116C27.1908 8.01756 26.9315 8.09492 26.6667 8.09338Z" fill="#AECBFA"/>
</g>
<defs>
<clipPath id="clip0_845_19023">
<rect width="32" height="32" fill="white"/>
</clipPath>
</defs>
</svg>
