<svg width="32" height="32" viewBox="0 0 32 32" fill="none" xmlns="http://www.w3.org/2000/svg">
<path fill-rule="evenodd" clip-rule="evenodd" d="M16.0002 29.3332L14.8936 28.3065V8.89319H17.1069V28.3065L16.0002 29.3332Z" fill="#AECBFA"/>
<path d="M16.0002 10.6666C16.9444 10.6666 17.8499 10.2915 18.5175 9.62387C19.1851 8.95624 19.5602 8.05074 19.5602 7.10657H12.4402C12.4402 8.05074 12.8153 8.95624 13.4829 9.62387C14.1505 10.2915 15.056 10.6666 16.0002 10.6666Z" fill="#4285F4"/>
<path d="M17.1066 25.1599H14.8933V23.1066H17.1066V25.1599Z" fill="#4285F4"/>
<path d="M17.1066 14.4933H14.8933V12.4399H17.1066V14.4933Z" fill="#4285F4"/>
<path d="M16.0002 9.78663C17.9663 9.78663 19.5602 8.19276 19.5602 6.22663C19.5602 4.26049 17.9663 2.66663 16.0002 2.66663C14.0341 2.66663 12.4402 4.26049 12.4402 6.22663C12.4402 8.19276 14.0341 9.78663 16.0002 9.78663Z" fill="#AECBFA"/>
<path d="M22.2267 13.56H9.10675C8.71961 13.5959 8.35984 13.7751 8.09792 14.0624C7.836 14.3497 7.69081 14.7245 7.69081 15.1133C7.69081 15.5021 7.836 15.8769 8.09792 16.1642C8.35984 16.4516 8.71961 16.6307 9.10675 16.6666H13.3334V18.8933H9.10675C8.14304 18.8361 7.23759 18.4129 6.5755 17.7103C5.91341 17.0077 5.54468 16.0787 5.54468 15.1133C5.54468 14.1479 5.91341 13.219 6.5755 12.5164C7.23759 11.8138 8.14304 11.3906 9.10675 11.3333H22.2267V9.77332L26.6667 12.44L22.2267 15.1066V13.56Z" fill="#669DF6"/>
<path d="M16.0002 9.77335C16.9421 9.77336 17.8455 9.40012 18.5128 8.73537C19.18 8.07062 19.5567 7.16854 19.5602 6.22668H12.4402C12.4437 7.16854 12.8203 8.07062 13.4876 8.73537C14.1548 9.40012 15.0583 9.77336 16.0002 9.77335Z" fill="#669DF6"/>
<path d="M17.8133 22H18.6666C19.0538 21.9641 19.4136 21.7849 19.6755 21.4975C19.9374 21.2102 20.0826 20.8354 20.0826 20.4466C20.0826 20.0578 19.9374 19.683 19.6755 19.3957C19.4136 19.1084 19.0538 18.9292 18.6666 18.8933H17.1066V16.6666H18.6666C19.6303 16.7239 20.5358 17.1471 21.1979 17.8497C21.86 18.5523 22.2287 19.4812 22.2287 20.4466C22.2287 21.412 21.86 22.341 21.1979 23.0436C20.5358 23.7462 19.6303 24.1694 18.6666 24.2266H13.3333V25.7733L8.89331 23.1066L13.3333 20.44V22H17.8133Z" fill="#669DF6"/>
</svg>
