<svg width="32" height="32" viewBox="0 0 32 32" fill="none" xmlns="http://www.w3.org/2000/svg">
<path fill-rule="evenodd" clip-rule="evenodd" d="M21.84 7.69336L15.0533 24.2934L16.9467 7.69336H21.84Z" fill="#669DF6"/>
<path fill-rule="evenodd" clip-rule="evenodd" d="M16.9467 7.69336L15.0534 24.2934H10.16L16.9467 7.69336Z" fill="#AECBFA"/>
<path fill-rule="evenodd" clip-rule="evenodd" d="M4.94667 19.5333L3 24.2933H6.42667L6.97333 19.5333H4.94667Z" fill="#AECBFA"/>
<path fill-rule="evenodd" clip-rule="evenodd" d="M7.77338 12.6533L7.22672 17.4267H5.80005L7.77338 12.6533Z" fill="#AECBFA"/>
<path fill-rule="evenodd" clip-rule="evenodd" d="M12.64 12.6533L12.6267 12.6933L10.6934 17.4267H7.22668L7.77335 12.6533H12.64Z" fill="#669DF6"/>
<path fill-rule="evenodd" clip-rule="evenodd" d="M29 7.69336L22.2 24.3067L24.1066 7.69336H29Z" fill="#669DF6"/>
<path fill-rule="evenodd" clip-rule="evenodd" d="M24.1066 7.69336L22.2 24.3067H17.3066L24.1066 7.69336Z" fill="#AECBFA"/>
<path fill-rule="evenodd" clip-rule="evenodd" d="M9.83997 19.5333L7.87997 24.2933H6.42664L6.9733 19.5333H9.83997Z" fill="#669DF6"/>
</svg>
