<svg width="32" height="32" viewBox="0 0 32 32" fill="none" xmlns="http://www.w3.org/2000/svg">
<g clip-path="url(#clip0_845_19153)">
<path d="M7.99996 16L16 22.6533V26.6667L2.66663 16H7.99996Z" fill="#669DF6"/>
<path d="M16 22.6533L24 16H29.3333L16 26.6667V22.6533Z" fill="#669DF6"/>
<path d="M2.66663 16L16 5.33337V9.34671L7.99996 16H2.66663Z" fill="#AECBFA"/>
<path d="M16 9.34671L24 16H29.3333L16 5.33337V9.34671Z" fill="#AECBFA"/>
<path d="M15.9999 18.6667C17.4727 18.6667 18.6666 17.4728 18.6666 16C18.6666 14.5273 17.4727 13.3334 15.9999 13.3334C14.5272 13.3334 13.3333 14.5273 13.3333 16C13.3333 17.4728 14.5272 18.6667 15.9999 18.6667Z" fill="#4285F4"/>
</g>
<defs>
<clipPath id="clip0_845_19153">
<rect width="32" height="32" fill="white"/>
</clipPath>
</defs>
</svg>
