<svg width="32" height="32" viewBox="0 0 32 32" fill="none" xmlns="http://www.w3.org/2000/svg">
<g clip-path="url(#clip0_843_18967)">
<path d="M31.2001 16.2666C31.2001 20.1333 29.7334 24 26.8001 26.9333C20.9334 32.8 11.4667 32.8 5.60007 26.9333C-0.266593 21.0666 -0.266593 11.6 5.60007 5.73329C11.0667 0.266626 19.8667 -0.133374 25.7334 4.66663L19.3334 11.0666C17.0667 9.73329 14.0001 9.99996 12.0001 12C9.60007 14.4 9.60007 18.1333 12.0001 20.5333C14.4001 22.9333 18.1334 22.9333 20.5334 20.5333C21.7334 19.3333 22.2667 17.8666 22.2667 16.2666H25.2001C25.2001 18.5333 24.2667 20.9333 22.5334 22.6666C19.0667 26.1333 13.3334 26.1333 9.86674 22.6666C6.40007 19.2 6.40007 13.3333 9.86674 9.86662C13.0667 6.66663 17.8667 6.39996 21.4667 8.93329L23.6001 6.79996C18.8001 3.06663 12.0001 3.46663 7.73341 7.73329C3.06674 12.4 3.06674 20 7.73341 24.6666C12.4001 29.3333 20.0001 29.3333 24.6667 24.6666C27.0667 22.2666 28.1334 19.2 28.1334 16.1333H31.2001V16.2666Z" fill="#5982DB"/>
<path d="M16.9334 13.3333C12.6667 12.8 12.5334 17.0667 14 18.4C15.4667 19.6 17.0667 19.6 18.2667 18.4C19.0667 17.6 19.3334 16.5333 19.0667 15.4667L27.8667 6.66666C26.6667 5.46666 26 4.79999 25.7334 4.53333L16.9334 13.3333Z" fill="#3367D6"/>
<path d="M3.73339 15.1999C5.64798 15.1999 7.20006 13.6479 7.20006 11.7333C7.20006 9.81868 5.64798 8.2666 3.73339 8.2666C1.8188 8.2666 0.266724 9.81868 0.266724 11.7333C0.266724 13.6479 1.8188 15.1999 3.73339 15.1999Z" fill="#3367D6"/>
<path d="M24.6667 30.1333C26.5813 30.1333 28.1334 28.5812 28.1334 26.6666C28.1334 24.752 26.5813 23.2 24.6667 23.2C22.7522 23.2 21.2001 24.752 21.2001 26.6666C21.2001 28.5812 22.7522 30.1333 24.6667 30.1333Z" fill="#3367D6"/>
<path d="M14.6668 11.2C16.0659 11.2 17.2001 10.0658 17.2001 8.66663C17.2001 7.26751 16.0659 6.1333 14.6668 6.1333C13.2676 6.1333 12.1334 7.26751 12.1334 8.66663C12.1334 10.0658 13.2676 11.2 14.6668 11.2Z" fill="#3367D6"/>
</g>
<defs>
<clipPath id="clip0_843_18967">
<rect width="32" height="32" fill="white"/>
</clipPath>
</defs>
</svg>
