<svg width="32" height="32" viewBox="0 0 32 32" fill="none" xmlns="http://www.w3.org/2000/svg">
<path d="M15.9999 3L15.4666 3.36V4.69333L15.9999 5.05333C17.2082 5.05331 18.3674 5.53148 19.2243 6.38339C20.0812 7.2353 20.5662 8.3917 20.5732 9.6V11.68C21.3293 12.053 22.0331 12.5237 22.6666 13.08V9.61333C22.6525 7.85448 21.9439 6.17246 20.6952 4.93373C19.4465 3.695 17.7588 2.99994 15.9999 3Z" fill="#669DF6"/>
<path d="M21.2401 25.0267L19.5334 23.32C19.7963 22.9893 20.0158 22.6264 20.1867 22.24C20.4244 21.679 20.5468 21.0759 20.5468 20.4667C20.5468 19.8574 20.4244 19.2544 20.1867 18.6933C19.9529 18.1468 19.6181 17.6493 19.2001 17.2267C18.7841 16.8102 18.2903 16.4794 17.7467 16.2533C17.5069 16.1474 17.2567 16.067 17.0001 16.0133V13.5867H14.9601V16C14.7091 16.0644 14.4639 16.1491 14.2267 16.2533C13.6865 16.4796 13.1935 16.8052 12.7734 17.2133C12.3569 17.6293 12.0262 18.1231 11.8001 18.6667C11.7001 18.9087 11.6198 19.1584 11.5601 19.4133H13.6801C13.8091 19.1252 13.9899 18.8631 14.2134 18.64C14.4427 18.4117 14.7145 18.2306 15.0134 18.1067C15.4744 17.9113 15.9831 17.8578 16.4747 17.9527C16.9662 18.0477 17.4184 18.287 17.7734 18.64C18.0099 18.8652 18.1962 19.1378 18.3201 19.44C18.5166 19.9039 18.5696 20.4162 18.4722 20.9105C18.3747 21.4049 18.1313 21.8587 17.7734 22.2133C17.5441 22.4416 17.2723 22.6228 16.9734 22.7467C16.5101 22.9413 15.9995 22.9946 15.506 22.8997C15.0125 22.8047 14.5581 22.566 14.2001 22.2133C13.9878 21.9839 13.8124 21.7231 13.6801 21.44H11.5734C11.6271 21.6966 11.7075 21.9469 11.8134 22.1867C12.1611 23.0105 12.7434 23.7139 13.4878 24.2094C14.2322 24.7048 15.1059 24.9705 16.0001 24.9733C16.6097 24.9639 17.2117 24.8372 17.7734 24.6L17.9201 24.52L19.6801 26.2933L21.2401 25.0267Z" fill="#4285F4"/>
<path d="M15.9999 3C14.241 2.99994 12.5534 3.695 11.3046 4.93373C10.0559 6.17246 9.34732 7.85448 9.33325 9.61333V13.0933C9.96227 12.5339 10.6615 12.0588 11.4133 11.68V9.6C11.4132 8.9983 11.532 8.40251 11.7626 7.84678C11.9933 7.29104 12.3314 6.78629 12.7575 6.36144C13.1835 5.93659 13.6893 5.6 14.2457 5.37096C14.8021 5.14191 15.3982 5.02491 15.9999 5.02667V3Z" fill="#AECBFA"/>
<path d="M17.3334 14C17.7594 14.0776 18.1754 14.2028 18.5734 14.3733C18.9651 14.5281 19.3366 14.7296 19.6801 14.9733L19.9734 15.1867L21.4134 13.7333C21.2161 13.5893 21.0114 13.4558 20.8001 13.3333C20.3454 13.0194 19.8581 12.7557 19.3467 12.5467C18.8214 12.3058 18.2715 12.1225 17.7067 12C17.145 11.8871 16.573 11.8335 16.0001 11.84L15.7334 12V13.88L15.9867 13.9467C16.3236 13.9121 16.6632 13.9121 17.0001 13.9467L17.3334 14Z" fill="#669DF6"/>
<path d="M24.4266 18.6667C24.3186 18.1073 24.1487 17.5618 23.92 17.04C23.7055 16.5354 23.442 16.0531 23.1333 15.6C23.04 15.4533 22.92 15.3067 22.8266 15.1733L21.3333 16.6667C21.3645 16.7035 21.3913 16.7437 21.4133 16.7867C21.6513 17.1359 21.8566 17.5064 22.0266 17.8933C22.5109 19.0244 22.6652 20.2695 22.4717 21.4846C22.2782 22.6997 21.7449 23.8352 20.9333 24.76C20.4768 25.2512 19.9513 25.6734 19.3733 26.0133C19.0989 26.1827 18.8139 26.3341 18.52 26.4667C18.1197 26.6311 17.7044 26.7561 17.28 26.84H16.96V28.9333C17.2019 28.9128 17.4424 28.8772 17.68 28.8267C18.2393 28.7186 18.7849 28.5487 19.3066 28.32C19.8155 28.1056 20.3022 27.8422 20.76 27.5333C21.2398 27.2296 21.6867 26.8766 22.0933 26.48C22.4832 26.1167 22.8401 25.7196 23.16 25.2933C23.4845 24.836 23.7657 24.3495 24 23.84C24.2167 23.3139 24.3863 22.7695 24.5066 22.2133C24.6183 21.6422 24.6763 21.0619 24.68 20.48C24.6527 19.8689 24.5679 19.2618 24.4266 18.6667Z" fill="#669DF6"/>
<path d="M10.5333 16.7866C10.9983 16.0816 11.6016 15.4783 12.3066 15.0133C12.6531 14.7745 13.0241 14.5734 13.4133 14.4133C13.8113 14.2427 14.2272 14.1175 14.6533 14.04C15.0924 13.9509 15.5386 13.9019 15.9866 13.8933V11.84C15.4004 11.8338 14.8152 11.8874 14.2399 12C13.6854 12.1099 13.1444 12.2798 12.6266 12.5066C12.1148 12.7237 11.6239 12.987 11.1599 13.2933C10.7054 13.6036 10.2812 13.9563 9.89326 14.3466C9.50478 14.7568 9.15652 15.2033 8.85326 15.68C8.54442 16.1377 8.28095 16.6244 8.06659 17.1333C7.85056 17.6276 7.68095 18.1409 7.55992 18.6666C7.33322 19.8111 7.33322 20.9888 7.55992 22.1333C7.66796 22.6926 7.83789 23.2382 8.06659 23.76C8.27365 24.3102 8.53729 24.8375 8.85326 25.3333C9.15887 25.7876 9.50712 26.2117 9.89326 26.6C10.2998 26.9965 10.7467 27.3495 11.2266 27.6533C11.6812 27.9672 12.1685 28.231 12.6799 28.44C13.2017 28.6686 13.7473 28.8386 14.3066 28.9466C14.5333 28.9466 14.7733 29.0266 15.0133 29.0666V26.9466H14.7066C14.2806 26.8691 13.8646 26.7438 13.4666 26.5733C13.0774 26.4132 12.7064 26.212 12.3599 25.9733C11.6378 25.4893 11.0172 24.8688 10.5333 24.1466C10.2979 23.7911 10.0928 23.4164 9.91992 23.0266C9.57668 22.2168 9.39979 21.3462 9.39979 20.4666C9.39979 19.587 9.57668 18.7165 9.91992 17.9066C10.0764 17.509 10.2825 17.1327 10.5333 16.7866Z" fill="#AECBFA"/>
</svg>
