<svg width="32" height="32" viewBox="0 0 32 32" fill="none" xmlns="http://www.w3.org/2000/svg">
<path d="M16.0414 16.0857C17.7939 16.0857 19.3741 16.8259 20.4848 18.0108C21.3018 17.0689 22.4949 16.5024 23.786 16.5024H24.9456C27.3689 16.5024 29.3333 18.4793 29.3333 20.9179C29.3333 23.3564 27.3689 25.3333 24.9456 25.3333H6.55731C4.40854 25.3333 2.66663 23.5804 2.66663 21.418C2.66663 19.2556 4.40854 17.5027 6.55731 17.5027H9.45441C10.1969 17.5027 10.9078 17.7135 11.5175 18.0979C12.6299 16.8633 14.2451 16.0857 16.0414 16.0857ZM9.45441 19.1651H6.55731C5.32087 19.1651 4.31854 20.1737 4.31854 21.418C4.31854 22.6623 5.32087 23.6709 6.55731 23.6709H9.96474L9.96396 23.5537L9.95569 22.1643L9.95463 22.1586L9.95596 22.096L9.96263 21.8733V21.8626L9.97229 21.7126C9.97772 21.6381 9.9845 21.5644 9.99259 21.491C9.99534 21.4671 9.99819 21.4426 10.0012 21.4181C10.0113 21.3343 10.0233 21.2511 10.0369 21.1686C10.0418 21.1401 10.0466 21.1121 10.0516 21.0842C10.0884 20.8783 10.1359 20.6755 10.1932 20.4769C10.2073 20.429 10.2216 20.3813 10.2366 20.3339C10.2555 20.2734 10.2755 20.2133 10.2964 20.1537L10.342 20.0287C10.411 19.8447 10.4887 19.6652 10.5745 19.4904L10.5838 19.472L10.552 19.4536C10.2222 19.2665 9.84668 19.1651 9.45441 19.1651ZM24.9456 18.1648H23.786C22.8394 18.1648 21.9783 18.6522 21.4805 19.435L21.4902 19.4539C21.5832 19.6402 21.667 19.8319 21.7408 20.0285C21.7507 20.0553 21.7603 20.0815 21.7698 20.1079C21.8008 20.1932 21.8299 20.2804 21.8571 20.3684C21.8638 20.3908 21.8707 20.4134 21.8774 20.4361L21.9105 20.5513L21.9411 20.667C21.9747 20.7996 22.004 20.9341 22.0287 21.0701C22.0345 21.1028 22.0402 21.1357 22.0457 21.1686C22.0578 21.2411 22.0685 21.3141 22.0778 21.3874C22.0834 21.432 22.0886 21.4764 22.0933 21.5209C22.1 21.584 22.1058 21.6479 22.1105 21.7121C22.1134 21.7531 22.116 21.7936 22.1182 21.8342L22.1248 21.9985L22.1271 22.1643V23.6709H24.9456C26.4565 23.6709 27.6814 22.4383 27.6814 20.9179C27.6814 19.3974 26.4565 18.1648 24.9456 18.1648ZM20.3493 21.1186V21.1226L20.3506 21.1253L20.3493 21.1186ZM20.0746 20.3293L20.0773 20.3333L20.0762 20.3302L20.068 20.3133L20.0746 20.3293ZM7.71693 10.5135C9.54239 10.5135 11.0278 11.9834 11.0278 13.8036C11.0278 15.6239 9.54239 17.0938 7.71693 17.0938C5.89147 17.0938 4.40606 15.6239 4.40606 13.8036C4.40606 11.9834 5.89147 10.5135 7.71693 10.5135ZM24.485 9.01313C26.4225 9.01313 27.9978 10.5769 27.9978 12.5117C27.9978 14.4464 26.4225 16.0102 24.485 16.0102C22.5474 16.0102 20.9721 14.4464 20.9721 12.5117C20.9721 10.5769 22.5474 9.01313 24.485 9.01313ZM7.71693 12.1759C6.79764 12.1759 6.05798 12.9078 6.05798 13.8036C6.05798 14.6995 6.79764 15.4314 7.71693 15.4314C8.63622 15.4314 9.37588 14.6995 9.37588 13.8036C9.37588 12.9078 8.63622 12.1759 7.71693 12.1759ZM16.0828 6.66663C18.2291 6.66663 19.9735 8.39835 19.9735 10.5402C19.9735 12.6821 18.2291 14.4139 16.0828 14.4139C13.9365 14.4139 12.1921 12.6821 12.1921 10.5402C12.1921 8.39835 13.9365 6.66663 16.0828 6.66663ZM24.485 10.6755C23.4547 10.6755 22.624 11.5001 22.624 12.5117C22.624 13.5232 23.4547 14.3478 24.485 14.3478C25.5152 14.3478 26.3459 13.5232 26.3459 12.5117C26.3459 11.5001 25.5152 10.6755 24.485 10.6755ZM16.0828 8.329C14.8439 8.329 13.844 9.32156 13.844 10.5402C13.844 11.7589 14.8439 12.7515 16.0828 12.7515C17.3217 12.7515 18.3216 11.7589 18.3216 10.5402C18.3216 9.32156 17.3217 8.329 16.0828 8.329ZM20.2506 20.7773L20.2706 20.8386L20.26 20.8016L20.2386 20.7386L20.2506 20.7773ZM20.2506 20.7773L20.2293 20.712L20.2289 20.7087L20.2146 20.6706L20.2133 20.6666L20.2055 20.6444L20.1946 20.616L20.1933 20.612L20.1832 20.584L20.1693 20.5506L20.1573 20.52L20.1533 20.5106L20.1499 20.5011L20.1493 20.4986L20.14 20.476L20.1453 20.4906L20.1013 20.3866L20.0933 20.368L20.0895 20.3603L20.0746 20.3293L20.0626 20.304L20.064 20.3053L20.0386 20.2533L20.0333 20.2426L20.028 20.232L20.0306 20.236L20.0295 20.2326L20.0145 20.2015L20.0013 20.1773L20 20.1746L19.9733 20.1226L19.96 20.0973L19.9506 20.08L19.944 20.068L19.9226 20.0293L19.8991 19.9861C19.8764 19.9462 19.8529 19.9066 19.829 19.8674L19.7618 19.7609L19.724 19.7053L19.744 19.7373L19.6852 19.6476C18.8848 18.4999 17.5518 17.748 16.0414 17.748C14.533 17.748 13.2015 18.4979 12.4007 19.6419L12.399 19.6454C12.2921 19.7984 12.1953 19.9574 12.1092 20.1215L12.0946 20.148L12.068 20.2013L12.0786 20.1773L12.0506 20.236L12.048 20.2426L12.0426 20.2533L12.0177 20.305L12.0066 20.3293L12.0053 20.3333L11.992 20.36L11.9893 20.368L11.9807 20.3874L11.9653 20.42L11.9733 20.404L11.8686 20.6667C11.8344 20.7611 11.8035 20.8567 11.7759 20.9533L11.7031 21.2463L11.696 21.2773L11.6933 21.292L11.6866 21.324L11.6772 21.3784L11.6706 21.4146V21.4173L11.664 21.4546V21.4586L11.6586 21.4906L11.656 21.5066L11.6533 21.52V21.5213L11.6289 21.7255C11.6148 21.8688 11.6076 22.0136 11.6076 22.1593L11.616 23.5537L11.6167 23.6709H20.4751V22.1643C20.4751 22.0618 20.4716 21.9599 20.4647 21.8586L20.4613 21.8306L20.4626 21.8333C20.462 21.8218 20.4613 21.8129 20.4606 21.804L20.4613 21.8306L20.46 21.8013L20.4573 21.7733L20.4541 21.7306L20.4506 21.712L20.444 21.648L20.44 21.616V21.612L20.4398 21.6034L20.4264 21.5074L20.419 21.4589L20.4038 21.3712L20.3826 21.2666L20.3786 21.2453L20.3733 21.2226L20.3634 21.1739L20.3506 21.1253L20.36 21.168L20.3493 21.1226L20.34 21.084L20.336 21.0693V21.0666L20.3086 20.9615L20.3053 20.9533L20.2946 20.9173L20.2506 20.7773Z" fill="#4285F4"/>
</svg>
