<svg width="32" height="32" viewBox="0 0 32 32" fill="none" xmlns="http://www.w3.org/2000/svg">
<path d="M17.0133 13C18.5302 13 19.7599 11.7703 19.7599 10.2534C19.7599 8.73644 18.5302 7.50671 17.0133 7.50671C15.4963 7.50671 14.2666 8.73644 14.2666 10.2534C14.2666 11.7703 15.4963 13 17.0133 13Z" fill="#4285F4"/>
<path d="M14.9867 24.4933C16.5036 24.4933 17.7333 23.2636 17.7333 21.7467C17.7333 20.2297 16.5036 19 14.9867 19C13.4697 19 12.24 20.2297 12.24 21.7467C12.24 23.2636 13.4697 24.4933 14.9867 24.4933Z" fill="#4285F4"/>
<path d="M21.7467 19.7601C23.2636 19.7601 24.4933 18.5303 24.4933 17.0134C24.4933 15.4964 23.2636 14.2667 21.7467 14.2667C20.2297 14.2667 19 15.4964 19 17.0134C19 18.5303 20.2297 19.7601 21.7467 19.7601Z" fill="#4285F4"/>
<path d="M10.2533 17.7333C11.7702 17.7333 12.9999 16.5036 12.9999 14.9867C12.9999 13.4697 11.7702 12.24 10.2533 12.24C8.73632 12.24 7.50659 13.4697 7.50659 14.9867C7.50659 16.5036 8.73632 17.7333 10.2533 17.7333Z" fill="#4285F4"/>
<path d="M12.0799 11.9066C12.912 11.9066 13.5866 11.2321 13.5866 10.4C13.5866 9.56787 12.912 8.89331 12.0799 8.89331C11.2478 8.89331 10.5732 9.56787 10.5732 10.4C10.5732 11.2321 11.2478 11.9066 12.0799 11.9066Z" fill="#669DF6"/>
<path d="M19.92 23.1067C20.7521 23.1067 21.4267 22.4322 21.4267 21.6001C21.4267 20.7679 20.7521 20.0934 19.92 20.0934C19.0879 20.0934 18.4133 20.7679 18.4133 21.6001C18.4133 22.4322 19.0879 23.1067 19.92 23.1067Z" fill="#669DF6"/>
<path d="M10.4 21.4267C11.2321 21.4267 11.9066 20.7521 11.9066 19.92C11.9066 19.0879 11.2321 18.4133 10.4 18.4133C9.56787 18.4133 8.89331 19.0879 8.89331 19.92C8.89331 20.7521 9.56787 21.4267 10.4 21.4267Z" fill="#669DF6"/>
<path d="M21.5999 13.5867C22.432 13.5867 23.1066 12.9121 23.1066 12.08C23.1066 11.2479 22.432 10.5734 21.5999 10.5734C20.7678 10.5734 20.0933 11.2479 20.0933 12.08C20.0933 12.9121 20.7678 13.5867 21.5999 13.5867Z" fill="#669DF6"/>
<path d="M14.8933 7.41333C15.9979 7.41333 16.8933 6.5179 16.8933 5.41333C16.8933 4.30876 15.9979 3.41333 14.8933 3.41333C13.7887 3.41333 12.8933 4.30876 12.8933 5.41333C12.8933 6.5179 13.7887 7.41333 14.8933 7.41333Z" fill="#669DF6"/>
<path d="M17.1067 28.5867C18.2113 28.5867 19.1067 27.6912 19.1067 26.5867C19.1067 25.4821 18.2113 24.5867 17.1067 24.5867C16.0021 24.5867 15.1067 25.4821 15.1067 26.5867C15.1067 27.6912 16.0021 28.5867 17.1067 28.5867Z" fill="#669DF6"/>
<path d="M5.41333 19.1067C6.5179 19.1067 7.41333 18.2113 7.41333 17.1067C7.41333 16.0021 6.5179 15.1067 5.41333 15.1067C4.30876 15.1067 3.41333 16.0021 3.41333 17.1067C3.41333 18.2113 4.30876 19.1067 5.41333 19.1067Z" fill="#669DF6"/>
<path d="M26.5867 16.8933C27.6912 16.8933 28.5867 15.9979 28.5867 14.8933C28.5867 13.7887 27.6912 12.8933 26.5867 12.8933C25.4821 12.8933 24.5867 13.7887 24.5867 14.8933C24.5867 15.9979 25.4821 16.8933 26.5867 16.8933Z" fill="#669DF6"/>
<path d="M22.0534 9.11995C23.2979 9.11995 24.3067 8.1111 24.3067 6.86661C24.3067 5.62213 23.2979 4.61328 22.0534 4.61328C20.8089 4.61328 19.8 5.62213 19.8 6.86661C19.8 8.1111 20.8089 9.11995 22.0534 9.11995Z" fill="#AECBFA"/>
<path d="M9.94669 27.3867C11.1912 27.3867 12.2 26.3778 12.2 25.1333C12.2 23.8889 11.1912 22.88 9.94669 22.88C8.70221 22.88 7.69336 23.8889 7.69336 25.1333C7.69336 26.3778 8.70221 27.3867 9.94669 27.3867Z" fill="#AECBFA"/>
<path d="M6.9733 12.0533C8.21779 12.0533 9.22664 11.0444 9.22664 9.79996C9.22664 8.55548 8.21779 7.54663 6.9733 7.54663C5.72882 7.54663 4.71997 8.55548 4.71997 9.79996C4.71997 11.0444 5.72882 12.0533 6.9733 12.0533Z" fill="#AECBFA"/>
<path d="M25.0268 24.4533C26.2713 24.4533 27.2801 23.4445 27.2801 22.2C27.2801 20.9555 26.2713 19.9467 25.0268 19.9467C23.7823 19.9467 22.7734 20.9555 22.7734 22.2C22.7734 23.4445 23.7823 24.4533 25.0268 24.4533Z" fill="#AECBFA"/>
</svg>
