<svg width="32" height="32" viewBox="0 0 32 32" fill="none" xmlns="http://www.w3.org/2000/svg">
<g clip-path="url(#clip0_845_19108)">
<path d="M17.3334 6.66663H14.6667V16H17.3334V6.66663Z" fill="#669DF6"/>
<path d="M17.3334 16H14.6667V25.3333H17.3334V16Z" fill="#4285F4"/>
<path d="M22.6667 6.66663H20V16H22.6667V6.66663Z" fill="#669DF6"/>
<path d="M22.6667 16H20V25.3333H22.6667V16Z" fill="#4285F4"/>
<path d="M27.9999 6.66663H25.3333V16H27.9999V6.66663Z" fill="#669DF6"/>
<path d="M27.9999 16H25.3333V25.3333H27.9999V16Z" fill="#4285F4"/>
<path d="M11.9999 6.66663H9.33325V16H11.9999V6.66663Z" fill="#669DF6"/>
<path d="M11.9999 16H9.33325V25.3333H11.9999V16Z" fill="#4285F4"/>
<path d="M6.66667 6.66663H4V16H6.66667V6.66663Z" fill="#669DF6"/>
<path d="M6.66667 16H4V25.3333H6.66667V16Z" fill="#4285F4"/>
</g>
<defs>
<clipPath id="clip0_845_19108">
<rect width="32" height="32" fill="white"/>
</clipPath>
</defs>
</svg>
