<svg width="32" height="32" viewBox="0 0 32 32" fill="none" xmlns="http://www.w3.org/2000/svg">
<path d="M21.9868 16L16.0001 21.9866L10.0134 16L16.0001 10.0133L21.9868 16ZM16.0001 19.88L19.8801 16L16.0001 12.12L12.1201 16L16.0001 19.88Z" fill="#4285F4"/>
<path d="M21.7734 20.0267H25.3068L29.3334 16H25.8001L21.7734 20.0267Z" fill="#669DF6"/>
<path d="M21.7734 11.9733L25.8001 15.9999H29.3334L25.3068 11.9733H21.7734Z" fill="#AECBFA"/>
<path d="M10.2267 11.9733H6.69341L2.66675 15.9999H6.20008L10.2267 11.9733Z" fill="#AECBFA"/>
<path d="M2.66675 16L6.69341 20.0267H10.2267L6.20008 16H2.66675Z" fill="#669DF6"/>
<path d="M11.9734 6.69329V10.2266L16.0001 6.19996V2.66663L11.9734 6.69329Z" fill="#AECBFA"/>
<path d="M16 2.66663V6.19996L20.0267 10.2266V6.69329L16 2.66663Z" fill="#669DF6"/>
<path d="M11.9734 21.7733V25.3066L16.0001 29.3333V25.8L11.9734 21.7733Z" fill="#AECBFA"/>
<path d="M16 25.8V29.3333L20.0267 25.3066V21.7733L16 25.8Z" fill="#669DF6"/>
</svg>
