<svg width="32" height="32" viewBox="0 0 32 32" fill="none" xmlns="http://www.w3.org/2000/svg">
<path d="M4.00005 17.3334L3.09338 16.9734V23.1601H5.93338V18.1067C5.22672 17.8801 4.57338 17.6134 4.00005 17.3334Z" fill="#669DF6"/>
<path d="M5 14.6666L5.90667 15.0266V3.02661H3V13.9599C3.69333 14.1599 4.36 14.4266 5 14.6666Z" fill="#AECBFA"/>
<path d="M10.2266 16C10.7139 15.9953 11.2 15.9507 11.68 15.8667V8.76001H8.77332V15.8933C9.25471 15.9624 9.74032 15.9981 10.2266 16Z" fill="#AECBFA"/>
<path d="M10.2266 18.92C9.74111 18.9198 9.25594 18.8931 8.77332 18.84V29H11.68V18.84C11.1974 18.8931 10.7122 18.9198 10.2266 18.92Z" fill="#669DF6"/>
<path d="M15.4667 14.6667C16.1067 14.4134 16.8 14.1467 17.44 13.92V5.92004H14.5867V15.0534C14.8533 14.92 15.16 14.8134 15.4667 14.6667Z" fill="#AECBFA"/>
<path d="M16.52 17.3334C15.8667 17.5867 15.1867 17.8534 14.5333 18.08V26.08H17.44V16.9867C17.1467 17.12 16.84 17.24 16.52 17.3334Z" fill="#669DF6"/>
<path d="M21.7733 13.12C22.2593 13.1183 22.7448 13.1495 23.2266 13.2133V3H20.3199V13.2267C20.8013 13.1575 21.287 13.1219 21.7733 13.12Z" fill="#AECBFA"/>
<path d="M21.7733 16C21.2863 15.9997 20.8002 16.0398 20.3199 16.12V23.16H23.2266V16.1467C22.747 16.0581 22.2609 16.009 21.7733 16Z" fill="#669DF6"/>
<path d="M27.0001 17.3334L26.0934 16.9734V28.9734H29.0001V18.1067C28.3067 17.8801 27.6534 17.6134 27.0001 17.3334Z" fill="#669DF6"/>
<path d="M28.0666 14.6667L28.9866 15.0267V8.76001H26.08V13.9333C26.7733 14.16 27.4266 14.4267 28.0666 14.6667Z" fill="#AECBFA"/>
</svg>
