<svg width="32" height="32" viewBox="0 0 32 32" fill="none" xmlns="http://www.w3.org/2000/svg">
<path fill-rule="evenodd" clip-rule="evenodd" d="M6.58667 18.2667L15.3733 26.96L16.8267 25.4267L8.4 17.24L6.58667 18.2667Z" fill="#669DF6"/>
<path fill-rule="evenodd" clip-rule="evenodd" d="M16.76 5.41333L15.3066 6.96L23.5866 15.2533L25.96 14.7467L16.76 5.41333Z" fill="#669DF6"/>
<path d="M16.84 6.83997H15.1733V13.5066H16.84V6.83997Z" fill="#4285F4"/>
<path d="M16.84 19.3333H15.1733V25.9999H16.84V19.3333Z" fill="#4285F4"/>
<path d="M16 8.50662C17.3843 8.50662 18.5066 7.38435 18.5066 5.99995C18.5066 4.61556 17.3843 3.49329 16 3.49329C14.6156 3.49329 13.4933 4.61556 13.4933 5.99995C13.4933 7.38435 14.6156 8.50662 16 8.50662Z" fill="#AECBFA"/>
<path d="M16 28.5066C17.3843 28.5066 18.5066 27.3843 18.5066 26C18.5066 24.6156 17.3843 23.4933 16 23.4933C14.6156 23.4933 13.4933 24.6156 13.4933 26C13.4933 27.3843 14.6156 28.5066 16 28.5066Z" fill="#AECBFA"/>
<path fill-rule="evenodd" clip-rule="evenodd" d="M3.54663 15.1733H23.64L28.4933 17.6667H8.39996L3.54663 15.1733Z" fill="#669DF6"/>
<path d="M5.99996 19.7466C7.84091 19.7466 9.33329 18.2542 9.33329 16.4133C9.33329 14.5723 7.84091 13.08 5.99996 13.08C4.15901 13.08 2.66663 14.5723 2.66663 16.4133C2.66663 18.2542 4.15901 19.7466 5.99996 19.7466Z" fill="#AECBFA"/>
<path d="M26 19.7466C27.8409 19.7466 29.3333 18.2542 29.3333 16.4133C29.3333 14.5723 27.8409 13.08 26 13.08C24.159 13.08 22.6666 14.5723 22.6666 16.4133C22.6666 18.2542 24.159 19.7466 26 19.7466Z" fill="#AECBFA"/>
</svg>
