<svg width="32" height="32" viewBox="0 0 32 32" fill="none" xmlns="http://www.w3.org/2000/svg">
<path d="M18.6668 22.6666H13.3335V28H18.6668V22.6666Z" fill="#4285F4"/>
<path fill-rule="evenodd" clip-rule="evenodd" d="M25.3335 14.4533L19.5469 8.67993L18.2002 10.0266L25.3335 17.1333V14.4533Z" fill="#669DF6"/>
<path fill-rule="evenodd" clip-rule="evenodd" d="M20.8935 12.7066L18.2002 10.0266L19.5469 8.67993L20.8935 10.0266V12.7066Z" fill="#4285F4"/>
<path fill-rule="evenodd" clip-rule="evenodd" d="M14.5867 16.3199L13.24 14.9733L19.5467 8.67993L20.8933 10.0266L14.5867 16.3199Z" fill="#AECBFA"/>
<path fill-rule="evenodd" clip-rule="evenodd" d="M14.5868 16.32L10.7734 12.52L12.1334 11.1733L15.9334 14.9733L14.5868 16.32Z" fill="#669DF6"/>
<path fill-rule="evenodd" clip-rule="evenodd" d="M13.4401 15.1733L10.7734 12.52L12.1334 11.1733L13.4401 12.48V15.1733Z" fill="#4285F4"/>
<path fill-rule="evenodd" clip-rule="evenodd" d="M7.25341 18.6533L13.4401 12.48L12.0934 11.1333L6.66675 16.5466V18.6533H7.25341Z" fill="#AECBFA"/>
<path fill-rule="evenodd" clip-rule="evenodd" d="M29.3334 5.39998C29.2735 5.06834 29.1138 4.7629 28.8755 4.5246C28.6372 4.2863 28.3317 4.12652 28.0001 4.06665H4.00008C3.66843 4.12652 3.363 4.2863 3.1247 4.5246C2.8864 4.7629 2.72662 5.06834 2.66675 5.39998V22.6666C2.71717 23.0023 2.87388 23.3129 3.11386 23.5529C3.35385 23.7929 3.66446 23.9496 4.00008 24H28.0001C28.3357 23.9496 28.6463 23.7929 28.8863 23.5529C29.1263 23.3129 29.283 23.0023 29.3334 22.6666V5.39998ZM26.6667 21.3333H5.33341V6.66665H26.6667V21.3333Z" fill="#669DF6"/>
<path fill-rule="evenodd" clip-rule="evenodd" d="M10.6667 29.3333C10.6667 28.4133 11.0801 28 12.0001 28H20.0001C20.9201 28 21.3334 28.4133 21.3334 29.3333H10.6667Z" fill="#669DF6"/>
</svg>
