<svg width="32" height="32" viewBox="0 0 32 32" fill="none" xmlns="http://www.w3.org/2000/svg">
<path d="M13.9733 8.46671C13.9733 8.19604 14.0267 7.92804 14.1333 7.67871C10.324 8.53338 7.46667 11.9374 7.46667 16C7.46667 16.552 7.91467 17 8.46667 17C9.01867 17 9.46667 16.552 9.46667 16C9.46667 12.956 11.5613 10.4 14.384 9.67738C14.1187 9.32938 13.9747 8.90404 13.9733 8.46671ZM23.5333 15C22.9813 15 22.5333 15.448 22.5333 16C22.5333 19.044 20.4387 21.6 17.616 22.3227C18.0533 22.896 18.1493 23.66 17.8667 24.3227C21.676 23.4667 24.5333 20.0627 24.5333 16C24.5333 15.448 24.0853 15 23.5333 15Z" fill="#669DF6"/>
<path d="M27.4734 13.9733C27.768 13.9746 28.0574 14.0399 28.324 14.1666C27.4307 8.15728 22.2534 3.52661 16 3.52661C15.448 3.52661 15 3.97461 15 4.52661C15 5.07861 15.448 5.52661 16 5.52661C21.2054 5.52661 25.524 9.34795 26.3267 14.3306C26.664 14.0973 27.064 13.9733 27.4734 13.9733ZM16 26.4733C10.7947 26.4733 6.47604 22.6519 5.67337 17.6693C5.08537 18.0786 4.32403 18.1413 3.67737 17.8333C4.56937 23.8426 9.7507 28.4733 16 28.4733C16.552 28.4733 17 28.0253 17 27.4733C17 26.9213 16.552 26.4733 16 26.4733Z" fill="#AECBFA"/>
<path d="M16 20.724C13.3907 20.724 11.276 18.6094 11.276 16C11.276 13.3907 13.3907 11.276 16 11.276C18.6093 11.276 20.724 13.3907 20.724 16C20.72 18.608 18.608 20.72 16 20.724ZM16 13.276C14.496 13.276 13.276 14.496 13.276 16C13.276 17.504 14.496 18.724 16 18.724C17.504 18.724 18.724 17.504 18.724 16C18.7213 14.496 17.504 13.2787 16 13.276ZM27.4733 14.9734C26.9067 14.9734 26.4467 15.4334 26.4467 16C26.4467 16.5667 26.9067 17.0267 27.4733 17.0267C28.04 17.0267 28.5 16.5667 28.5 16C28.4987 15.4334 28.04 14.9734 27.4733 14.9734ZM16 7.43738C15.4333 7.43738 14.9733 7.89738 14.9733 8.46404C14.9733 9.03071 15.4333 9.49071 16 9.49071C16.5667 9.49071 17.0267 9.03071 17.0267 8.46404C17.0267 7.89738 16.5667 7.43871 16 7.43738ZM4.52667 14.9734C3.96 14.9734 3.5 15.4334 3.5 16C3.5 16.5667 3.96 17.0267 4.52667 17.0267C5.09333 17.0267 5.55333 16.5667 5.55333 16C5.55333 15.4334 5.09333 14.9734 4.52667 14.9734ZM16 22.5067C15.4333 22.5067 14.9733 22.9667 14.9733 23.5334C14.9733 24.1 15.4333 24.56 16 24.56C16.5667 24.56 17.0267 24.1 17.0267 23.5334C17.0267 22.9667 16.5667 22.5067 16 22.5067Z" fill="#4285F4"/>
</svg>
