<svg width="32" height="32" viewBox="0 0 32 32" fill="none" xmlns="http://www.w3.org/2000/svg">
<path d="M20.4401 2.66663V5.83996H17.5601V2.66663H14.4401V5.83996H11.5601V2.66663H8.38675V5.83996C7.72076 5.86931 7.08992 6.14704 6.61854 6.61842C6.14716 7.0898 5.86943 7.72064 5.84008 8.38663H2.66675V11.56H5.84008V14.4133H2.66675V17.5866H5.84008V20.44H2.66675V23.6133H5.84008C5.86943 24.2793 6.14716 24.9101 6.61854 25.3815C7.08992 25.8529 7.72076 26.1306 8.38675 26.16V29.3333H11.5601V26.16H14.4401V29.3333H17.5601V26.16H20.4401V29.3333H23.6134V26.16C24.2794 26.1306 24.9102 25.8529 25.3816 25.3815C25.853 24.9101 26.1307 24.2793 26.1601 23.6133H29.3334V20.44H26.1601V17.5866H29.3334V14.4133H26.1601V11.56H29.3334V8.38663H26.1601C26.1307 7.72064 25.853 7.0898 25.3816 6.61842C24.9102 6.14704 24.2794 5.86931 23.6134 5.83996V2.66663H20.4401ZM22.4801 22.9866H9.52008C9.3857 22.9866 9.25683 22.9332 9.16181 22.8382C9.06679 22.7432 9.01341 22.6143 9.01341 22.48V9.51996C9.01341 9.38558 9.06679 9.25671 9.16181 9.16169C9.25683 9.06667 9.3857 9.01329 9.52008 9.01329H22.4801C22.6145 9.01329 22.7433 9.06667 22.8383 9.16169C22.9334 9.25671 22.9867 9.38558 22.9867 9.51996V22.48C22.9867 22.6143 22.9334 22.7432 22.8383 22.8382C22.7433 22.9332 22.6145 22.9866 22.4801 22.9866Z" fill="#4285F4"/>
<path d="M17.1068 10.0533V14.8267H19.7201L15.0535 21.3067V16.4667H12.2935L17.1068 10.0533Z" fill="#4285F4"/>
</svg>
