<svg width="32" height="32" viewBox="0 0 32 32" fill="none" xmlns="http://www.w3.org/2000/svg">
<path d="M20.3999 14.8933C20.3999 15.2533 20.3999 15.6133 20.3999 16C20.3999 16.3866 20.3999 16.7466 20.3999 17.1066H26.3999V14.8933H20.3999Z" fill="#4285F4"/>
<path d="M13.1466 7.85327H9.33325V10.0799H14.5733C14.1727 9.29227 13.6948 8.54638 13.1466 7.85327Z" fill="#4285F4"/>
<path d="M14.6666 21.9199H10.1333V24.1466H13.1866C13.7486 23.4523 14.2441 22.7068 14.6666 21.9199Z" fill="#4285F4"/>
<path d="M16 16C16.0206 15.6314 16.0206 15.2619 16 14.8933H6V17.1066H16C16.0206 16.738 16.0206 16.3686 16 16Z" fill="#4285F4"/>
<path d="M4.89332 16.6399C4.76621 16.6425 4.64118 16.6073 4.5342 16.5386C4.42721 16.4699 4.34311 16.3709 4.29262 16.2542C4.24213 16.1375 4.22754 16.0084 4.2507 15.8834C4.27387 15.7584 4.33375 15.6431 4.4227 15.5523C4.51165 15.4614 4.62565 15.3991 4.75014 15.3733C4.87464 15.3476 5.004 15.3594 5.12173 15.4074C5.23945 15.4555 5.3402 15.5375 5.41113 15.643C5.48206 15.7485 5.51996 15.8728 5.51999 15.9999C5.52002 16.1674 5.45443 16.3282 5.33727 16.4478C5.22012 16.5674 5.06074 16.6364 4.89332 16.6399ZM4.89332 13.7732C4.45237 13.7706 4.02056 13.8989 3.65264 14.142C3.28472 14.3851 2.99725 14.7319 2.82667 15.1385C2.65609 15.5451 2.61009 15.9933 2.69449 16.4261C2.7789 16.8589 2.98991 17.2569 3.30078 17.5696C3.61164 17.8824 4.00837 18.0958 4.44066 18.1828C4.87295 18.2698 5.32134 18.2264 5.72899 18.0583C6.13664 17.8902 6.48518 17.6048 6.73045 17.2383C6.97571 16.8719 7.10665 16.4409 7.10665 15.9999C7.10667 15.4117 6.8739 14.8473 6.4592 14.4301C6.0445 14.0129 5.48156 13.7768 4.89332 13.7732Z" fill="#669DF6"/>
<path d="M8.22653 23.6666C8.09942 23.6693 7.9744 23.634 7.86741 23.5653C7.76042 23.4966 7.67632 23.3976 7.62583 23.2809C7.57534 23.1642 7.56075 23.0351 7.58392 22.9101C7.60708 22.7851 7.66696 22.6698 7.75591 22.579C7.84487 22.4881 7.95886 22.4258 8.08336 22.4001C8.20785 22.3743 8.33721 22.3861 8.45494 22.4342C8.57266 22.4822 8.67341 22.5642 8.74435 22.6697C8.81528 22.7752 8.85317 22.8995 8.8532 23.0266C8.85498 23.11 8.84008 23.1929 8.80938 23.2705C8.77868 23.3481 8.7328 23.4188 8.67444 23.4784C8.61607 23.538 8.54638 23.5853 8.46947 23.6177C8.39256 23.65 8.30996 23.6666 8.22653 23.6666ZM8.22653 20.8133C7.78502 20.8106 7.35268 20.9393 6.98447 21.183C6.61626 21.4266 6.3288 21.7742 6.15862 22.1817C5.98844 22.5891 5.94322 23.0379 6.02871 23.471C6.1142 23.9042 6.32654 24.3022 6.63875 24.6144C6.95095 24.9266 7.34893 25.1389 7.7821 25.2244C8.21527 25.3099 8.66408 25.2647 9.07149 25.0945C9.4789 24.9243 9.82651 24.6369 10.0702 24.2687C10.3138 23.9005 10.4425 23.4681 10.4399 23.0266C10.4364 22.4407 10.2021 21.8797 9.78773 21.4654C9.37341 21.0511 8.81247 20.8168 8.22653 20.8133Z" fill="#669DF6"/>
<path d="M8.22672 9.59999C8.09905 9.60262 7.9735 9.567 7.86623 9.4977C7.75897 9.4284 7.67488 9.3286 7.6248 9.21113C7.57472 9.09365 7.56092 8.96388 7.58519 8.83851C7.60946 8.71313 7.67068 8.59788 7.76098 8.50758C7.85128 8.41728 7.96653 8.35606 8.09191 8.33179C8.21728 8.30752 8.34705 8.32132 8.46453 8.3714C8.582 8.42148 8.6818 8.50557 8.7511 8.61283C8.8204 8.7201 8.85602 8.84565 8.85339 8.97332C8.85339 9.13953 8.78737 9.29892 8.66984 9.41644C8.55232 9.53397 8.39293 9.59999 8.22672 9.59999ZM8.22672 6.74666C7.92072 6.72292 7.61312 6.76271 7.32323 6.86351C7.03334 6.96432 6.76741 7.12396 6.54215 7.33243C6.3169 7.54089 6.13717 7.79367 6.01425 8.0749C5.89133 8.35613 5.82788 8.65974 5.82788 8.96666C5.82788 9.27358 5.89133 9.57718 6.01425 9.85841C6.13717 10.1396 6.3169 10.3924 6.54215 10.6009C6.76741 10.8094 7.03334 10.969 7.32323 11.0698C7.61312 11.1706 7.92072 11.2104 8.22672 11.1867C8.78579 11.1433 9.30791 10.8906 9.68878 10.4791C10.0696 10.0675 10.2812 9.5274 10.2812 8.96666C10.2812 8.40591 10.0696 7.86581 9.68878 7.45426C9.30791 7.04271 8.78579 6.79002 8.22672 6.74666Z" fill="#669DF6"/>
<path d="M24.8933 19.3333V12.6666L29.3333 16L24.8933 19.3333Z" fill="#4285F4"/>
<path d="M12.6666 29.3333L11.5199 27.3333C13.2567 25.998 14.6636 24.2818 15.6322 22.3168C16.6008 20.3518 17.1053 18.1907 17.1066 16C17.0879 13.8109 16.5744 11.6545 15.6047 9.69188C14.6349 7.72929 13.234 6.01137 11.5066 4.66663L12.6666 2.66663C14.7342 4.22123 16.4126 6.23474 17.5695 8.5485C18.7264 10.8623 19.3302 13.4131 19.3333 16C19.3374 18.5881 18.7368 21.1414 17.5794 23.4563C16.4219 25.7713 14.7396 27.7837 12.6666 29.3333Z" fill="#4285F4"/>
</svg>
