<svg width="32" height="32" viewBox="0 0 32 32" fill="none" xmlns="http://www.w3.org/2000/svg">
<path d="M26.9333 3.55997H5.06666C4.751 3.55821 4.43812 3.61908 4.14614 3.73906C3.85416 3.85905 3.58888 4.03576 3.36566 4.25897C3.14245 4.48219 2.96574 4.74747 2.84575 5.03945C2.72577 5.33143 2.66489 5.64431 2.66666 5.95997V20.36C2.66489 20.6756 2.72577 20.9885 2.84575 21.2805C2.96574 21.5725 3.14245 21.8378 3.36566 22.061C3.58888 22.2842 3.85416 22.4609 4.14614 22.5809C4.43812 22.7009 4.751 22.7617 5.06666 22.76H13.3333V25.7733H10.6667V28.44H21.3333V25.7733H18.6667V22.76H26.9333C27.249 22.7617 27.5619 22.7009 27.8539 22.5809C28.1458 22.4609 28.4111 22.2842 28.6343 22.061C28.8575 21.8378 29.0343 21.5725 29.1542 21.2805C29.2742 20.9885 29.3351 20.6756 29.3333 20.36V5.95997C29.3351 5.64431 29.2742 5.33143 29.1542 5.03945C29.0343 4.74747 28.8575 4.48219 28.6343 4.25897C28.4111 4.03576 28.1458 3.85905 27.8539 3.73906C27.5619 3.61908 27.249 3.55821 26.9333 3.55997ZM22.2267 19.56H16.8933V16.8933H22.2267V19.56ZM22.2267 13.5066L10.1333 18.5733V16.0933L18.84 12.36L10.1333 8.53331V6.03997L22.2267 11.0266V13.5066Z" fill="#AECBFA"/>
<path d="M13.3334 22.76H18.6667V25.7733H13.3334V22.76Z" fill="#4285F4"/>
<path d="M21.3333 25.7733H10.6666V28.44H21.3333V25.7733Z" fill="#669DF6"/>
</svg>
