<svg width="32" height="32" viewBox="0 0 32 32" fill="none" xmlns="http://www.w3.org/2000/svg">
<path d="M7.2666 11.3734L11.3999 7.22668L15.5333 11.3734L11.3999 15.5334L7.2666 11.3734Z" fill="#AECBFA"/>
<path d="M2.66663 16L6.79996 11.84L10.9333 16L6.79996 20.16L2.66663 16Z" fill="#669DF6"/>
<path d="M7.2666 20.6267L11.3999 16.4667L15.5333 20.6267L11.3999 24.7867L7.2666 20.6267Z" fill="#4285F4"/>
<path d="M16.4667 11.3734L20.6 7.22668L24.7333 11.3734L20.6 15.5334L16.4667 11.3734Z" fill="#AECBFA"/>
<path d="M21.0667 16L25.2 11.84L29.3333 16L25.2 20.16L21.0667 16Z" fill="#669DF6"/>
<path d="M16.4667 20.6267L20.6 16.4667L24.7333 20.6267L20.6 24.7867L16.4667 20.6267Z" fill="#4285F4"/>
</svg>
