<svg width="32" height="32" viewBox="0 0 32 32" fill="none" xmlns="http://www.w3.org/2000/svg">
<path d="M26.6666 6.66663H22.6666V9.33329H26.6666V25.3333H22.6666V28H26.6666H29.3333V25.3333V9.33329V6.66663H26.6666Z" fill="#669DF6"/>
<path d="M26.6666 10.6666L29.3333 9.33325H26.6666V10.6666Z" fill="#4285F4"/>
<path d="M29.3333 23.9999L26.6666 25.3332H29.3333V23.9999Z" fill="#4285F4"/>
<path d="M5.33329 28H9.33329V25.3333H5.33329V9.33329H9.33329V6.66663H5.33329H2.66663V9.33329V25.3333V28H5.33329Z" fill="#669DF6"/>
<path d="M2.66663 23.9999L5.33329 25.3332H2.66663V23.9999Z" fill="#4285F4"/>
<path d="M5.33329 10.6666L2.66663 9.33325H5.33329V10.6666Z" fill="#4285F4"/>
<path d="M22.6666 16H9.33325V18.6667H22.6666V16Z" fill="#AECBFA"/>
<path d="M22.6666 20H9.33325V22.6667H22.6666V20Z" fill="#AECBFA"/>
<path d="M22.6666 12H9.33325V14.6667H22.6666V12Z" fill="#AECBFA"/>
</svg>
