<svg width="32" height="32" viewBox="0 0 32 32" fill="none" xmlns="http://www.w3.org/2000/svg">
<path d="M25.2135 15.0399H19.6401V16.8799H25.2135V15.0399Z" fill="#669DF6"/>
<path d="M25.7733 8.15991H23.9333V23.7732H25.7733V8.15991Z" fill="#669DF6"/>
<path d="M27.6001 23.0933H22.1067C21.9005 23.0933 21.7334 23.2604 21.7334 23.4666V28.9599C21.7334 29.1661 21.9005 29.3333 22.1067 29.3333H27.6001C27.8063 29.3333 27.9734 29.1661 27.9734 28.9599V23.4666C27.9734 23.2604 27.8063 23.0933 27.6001 23.0933Z" fill="#4285F4"/>
<path d="M27.6001 2.66663H22.1067C21.9005 2.66663 21.7334 2.83377 21.7334 3.03996V8.53329C21.7334 8.73948 21.9005 8.90663 22.1067 8.90663H27.6001C27.8063 8.90663 27.9734 8.73948 27.9734 8.53329V3.03996C27.9734 2.83377 27.8063 2.66663 27.6001 2.66663Z" fill="#4285F4"/>
<path d="M15.0133 15.0399H9.30664V16.8799H15.0133V15.0399Z" fill="#669DF6"/>
<path d="M9.9067 12.84H4.41337C4.20719 12.84 4.04004 13.0071 4.04004 13.2133V18.7066C4.04004 18.9128 4.20719 19.08 4.41337 19.08H9.9067C10.1129 19.08 10.28 18.9128 10.28 18.7066V13.2133C10.28 13.0071 10.1129 12.84 9.9067 12.84Z" fill="#4285F4"/>
<path d="M17.3335 18.8933C16.7533 18.8933 16.1862 18.7212 15.7038 18.3989C15.2214 18.0766 14.8455 17.6185 14.6234 17.0825C14.4014 16.5465 14.3433 15.9567 14.4565 15.3877C14.5697 14.8187 14.8491 14.296 15.2593 13.8858C15.6695 13.4755 16.1922 13.1962 16.7612 13.083C17.3302 12.9698 17.92 13.0279 18.456 13.2499C18.992 13.4719 19.4501 13.8479 19.7725 14.3303C20.0948 14.8127 20.2668 15.3798 20.2668 15.9599C20.2686 16.3457 20.1939 16.7279 20.0471 17.0846C19.9003 17.4413 19.6843 17.7653 19.4116 18.0381C19.1389 18.3108 18.8148 18.5268 18.4581 18.6736C18.1014 18.8204 17.7192 18.895 17.3335 18.8933ZM17.3335 14.1333C16.9682 14.1201 16.6072 14.216 16.2966 14.4088C15.986 14.6016 15.7399 14.8825 15.5896 15.2158C15.4394 15.549 15.3918 15.9195 15.453 16.2799C15.5141 16.6403 15.6812 16.9743 15.933 17.2394C16.1848 17.5044 16.5098 17.6884 16.8666 17.768C17.2234 17.8475 17.5958 17.819 17.9364 17.686C18.2769 17.553 18.5701 17.3216 18.7785 17.0213C18.987 16.7211 19.1013 16.3655 19.1068 15.9999C19.1176 15.5177 18.9372 15.0508 18.6049 14.7011C18.2727 14.3514 17.8156 14.1472 17.3335 14.1333Z" fill="#4285F4"/>
</svg>
