<svg width="32" height="32" viewBox="0 0 32 32" fill="none" xmlns="http://www.w3.org/2000/svg">
<path fill-rule="evenodd" clip-rule="evenodd" d="M29.3333 2.66663V12.6666H21.652L21.6502 12.7292C21.5032 15.1406 19.8404 17.2012 17.5064 17.8645L17.2341 17.9347V29.3333H14.8689V28.2764H12.6062V25.9717H14.8689V23.769H11.4715V21.4643H14.8689V17.9709C12.2746 17.4442 10.4396 15.2188 10.3435 12.6673L12.6691 12.6678C12.6642 12.5947 12.6618 12.5209 12.6618 12.4465C12.6618 10.6213 14.1401 9.14177 15.9637 9.14177C17.7873 9.14177 19.2656 10.6213 19.2656 12.4465C19.2656 12.5209 19.2631 12.5947 19.2583 12.6678H12.6691C12.7828 14.3898 14.2144 15.7512 15.9637 15.7512C17.713 15.7512 19.1445 14.3898 19.2583 12.6678L21.652 12.6666L21.6603 12.4494C21.6594 9.57762 19.4924 7.18247 16.6551 6.85548L16.3785 6.83034L16.1009 6.81854L15.8258 6.82009C13.0881 6.90142 10.7641 8.944 10.3909 11.6982C10.3467 12.0246 10.3315 12.3485 10.3435 12.6673L2.66663 12.6666V2.66663H29.3333Z" fill="#4285F4"/>
</svg>
