<svg width="32" height="32" viewBox="0 0 32 32" fill="none" xmlns="http://www.w3.org/2000/svg">
<path d="M17.5469 21.12H14.4402V24.64H17.5469V21.12Z" fill="#669DF6"/>
<path d="M24.6401 18.4933C24.5406 18.4929 24.4421 18.4727 24.3505 18.4338C24.2589 18.3948 24.1761 18.338 24.1067 18.2666L18.6667 12.6266L15.0134 16.4799C14.8825 16.614 14.7066 16.695 14.5195 16.7073C14.3325 16.7196 14.1475 16.6624 14.0001 16.5466L11.2267 14.3066L8.29341 18.1999C8.22304 18.292 8.13218 18.3665 8.02804 18.4174C7.9239 18.4683 7.80933 18.4943 7.69341 18.4933H2.66675V20.7733C2.66672 21.0362 2.77025 21.2885 2.95491 21.4757C3.13957 21.6628 3.39052 21.7697 3.65341 21.7733H28.3467C28.6096 21.7697 28.8606 21.6628 29.0452 21.4757C29.2299 21.2885 29.3334 21.0362 29.3334 20.7733V18.4933H24.6401Z" fill="#4285F4"/>
<path d="M7.33341 17.0133L10.5067 12.8C10.565 12.7204 10.6388 12.6534 10.7235 12.603C10.8083 12.5526 10.9024 12.5198 11.0001 12.5066C11.1999 12.4915 11.3985 12.5482 11.5601 12.6666L14.3867 14.96L18.1201 11.04C18.1884 10.9673 18.2711 10.9096 18.3629 10.8706C18.4547 10.8316 18.5537 10.8121 18.6534 10.8133C18.7532 10.8121 18.8521 10.8316 18.9439 10.8706C19.0357 10.9096 19.1184 10.9673 19.1867 11.04L24.9601 17.0133H29.3334V7.99997C29.3334 7.73829 29.2295 7.48733 29.0444 7.30229C28.8594 7.11726 28.6084 7.01331 28.3467 7.01331H3.65341C3.39173 7.01331 3.14077 7.11726 2.95574 7.30229C2.7707 7.48733 2.66675 7.73829 2.66675 7.99997V17.08L7.33341 17.0133Z" fill="#669DF6"/>
<path d="M20.0534 24.24H11.9601C11.7391 24.24 11.5601 24.4191 11.5601 24.64V24.6533C11.5601 24.8742 11.7391 25.0533 11.9601 25.0533H20.0534C20.2743 25.0533 20.4534 24.8742 20.4534 24.6533V24.64C20.4534 24.4191 20.2743 24.24 20.0534 24.24Z" fill="#4285F4"/>
</svg>
