<svg width="32" height="32" viewBox="0 0 32 32" fill="none" xmlns="http://www.w3.org/2000/svg">
<path fill-rule="evenodd" clip-rule="evenodd" d="M6.22656 13.9199V17.9333L15.9999 23.1333V19.1199L6.22656 13.9199Z" fill="#AECBFA"/>
<path fill-rule="evenodd" clip-rule="evenodd" d="M6.22656 20.12V24.1333L15.9999 29.3333V25.32L6.22656 20.12Z" fill="#AECBFA"/>
<path fill-rule="evenodd" clip-rule="evenodd" d="M16 23.1333L25.7733 17.9333V13.9199L16 19.1199V23.1333Z" fill="#669DF6"/>
<path fill-rule="evenodd" clip-rule="evenodd" d="M16 29.3333L25.7733 24.1333V20.12L16 25.32V29.3333Z" fill="#669DF6"/>
<path fill-rule="evenodd" clip-rule="evenodd" d="M25.7733 11.88V7.86663L16 2.66663V6.67996L25.7733 11.88Z" fill="#4285F4"/>
<path fill-rule="evenodd" clip-rule="evenodd" d="M15.9999 2.66663L6.22656 7.86663V11.88L15.9999 6.67996V2.66663Z" fill="#669DF6"/>
<path fill-rule="evenodd" clip-rule="evenodd" d="M6.22656 7.82666V11.8533L15.9999 17.0533V13.0267L6.22656 7.82666Z" fill="#AECBFA"/>
<path fill-rule="evenodd" clip-rule="evenodd" d="M16 17.0533L25.7733 11.8533V7.82666L16 13.0267V17.0533Z" fill="#669DF6"/>
</svg>
