<svg width="32" height="32" viewBox="0 0 32 32" fill="none" xmlns="http://www.w3.org/2000/svg">
<path d="M13.0134 27.4667L11.6267 26.0667L18.8934 18.76L20.28 20.16L13.0134 27.4667Z" fill="#AECBFA"/>
<path d="M9.37324 24.4267L7.98657 23.0267L17.7866 13.1733L19.1732 14.5733L9.37324 24.4267Z" fill="#AECBFA"/>
<path d="M7.12007 19.9732L5.7334 18.5733L12.2401 12.0399L13.6267 13.4399L7.12007 19.9732Z" fill="#AECBFA"/>
<path d="M16 4.81329L25.04 8.81329V14.88C25.0578 17.6452 24.1898 20.3434 22.5631 22.5796C20.9363 24.8157 18.6364 26.4723 16 27.3066C13.3647 26.4748 11.0651 24.8207 9.43829 22.5868C7.81146 20.3529 6.94294 17.6567 6.96 14.8933V8.83996L16 4.83996M16 2.66663L5 7.57329V14.8933C4.97374 18.15 6.01569 21.3255 7.9663 23.9335C9.9169 26.5415 12.6686 28.4383 15.8 29.3333H16H16.2C19.3203 28.4414 22.064 26.5546 24.0135 23.9601C25.963 21.3656 27.0117 18.2053 27 14.96V7.57329L16 2.66663Z" fill="#669DF6"/>
<path d="M19.5867 21.3866C20.6324 21.3866 21.48 20.539 21.48 19.4933C21.48 18.4476 20.6324 17.6 19.5867 17.6C18.541 17.6 17.6934 18.4476 17.6934 19.4933C17.6934 20.539 18.541 21.3866 19.5867 21.3866Z" fill="#669DF6"/>
<path d="M18.4666 15.8266C19.5122 15.8266 20.3599 14.9789 20.3599 13.9333C20.3599 12.8876 19.5122 12.0399 18.4666 12.0399C17.4209 12.0399 16.5732 12.8876 16.5732 13.9333C16.5732 14.9789 17.4209 15.8266 18.4666 15.8266Z" fill="#669DF6"/>
<path d="M12.9199 14.6933C13.9656 14.6933 14.8133 13.8456 14.8133 12.7999C14.8133 11.7543 13.9656 10.9066 12.9199 10.9066C11.8743 10.9066 11.0266 11.7543 11.0266 12.7999C11.0266 13.8456 11.8743 14.6933 12.9199 14.6933Z" fill="#669DF6"/>
</svg>
