<svg width="32" height="32" viewBox="0 0 32 32" fill="none" xmlns="http://www.w3.org/2000/svg">
<path d="M14.4933 2.66663H2.64001V5.62663H14.4933V2.66663Z" fill="#4285F4"/>
<path d="M14.4933 26.3733H2.64001V29.3333H14.4933V26.3733Z" fill="#4285F4"/>
<path d="M14.4933 14.52H2.64001V17.48H14.4933V14.52Z" fill="#4285F4"/>
<path d="M29.3067 2.66663H17.4534V5.62663H29.3067V2.66663Z" fill="#4285F4"/>
<path d="M29.3067 26.3733H17.4534V29.3333H29.3067V26.3733Z" fill="#4285F4"/>
<path d="M29.3067 14.52H17.4534V17.48H29.3067V14.52Z" fill="#4285F4"/>
<path d="M21.8934 8.58667H10.04V11.5467H21.8934V8.58667Z" fill="#4285F4"/>
<path d="M21.8934 20.4399H10.04V23.3999H21.8934V20.4399Z" fill="#4285F4"/>
<path d="M7.08001 8.58667H2.64001V11.5467H7.08001V8.58667Z" fill="#4285F4"/>
<path d="M7.08001 20.4399H2.64001V23.3999H7.08001V20.4399Z" fill="#4285F4"/>
<path d="M29.3067 8.58667H24.8667V11.5467H29.3067V8.58667Z" fill="#4285F4"/>
<path d="M29.3067 20.4399H24.8667V23.3999H29.3067V20.4399Z" fill="#4285F4"/>
</svg>
