<svg width="32" height="32" viewBox="0 0 32 32" fill="none" xmlns="http://www.w3.org/2000/svg">
<g clip-path="url(#clip0_841_18364)">
<path d="M17.0266 16.96C16.894 17.0938 16.7362 17.2001 16.5622 17.2726C16.3883 17.3451 16.2017 17.3824 16.0133 17.3824C15.8249 17.3824 15.6383 17.3451 15.4644 17.2726C15.2905 17.2001 15.1326 17.0938 15 16.96L13.0133 14.9733L14.0266 13.96L16 15.9066L21.6 10.3066L22.68 11.36L17.0266 16.96Z" fill="#4285F4"/>
<path d="M21.3334 15.4533C21.0568 15.4823 20.7987 15.6055 20.6021 15.8021C20.4055 15.9987 20.2824 16.2568 20.2533 16.5333C20.1234 17.4858 19.6765 18.3669 18.9847 19.0345C18.293 19.7021 17.3966 20.1173 16.44 20.2133C15.5928 20.2978 14.7396 20.1308 13.9867 19.7333C13.1745 19.3058 12.5223 18.627 12.1277 17.7983C11.733 16.9696 11.6171 16.0354 11.7971 15.1354C11.9771 14.2353 12.4434 13.4177 13.1264 12.8045C13.8095 12.1913 14.6725 11.8156 15.5867 11.7333C16.1306 11.6829 16.6792 11.7418 17.2 11.9066C17.4336 11.9898 17.6872 11.9985 17.926 11.9317C18.1647 11.8648 18.3769 11.7257 18.5333 11.5333C18.6613 11.3826 18.7504 11.2029 18.793 11.0098C18.8356 10.8168 18.8304 10.6162 18.7778 10.4256C18.7253 10.2351 18.6269 10.0602 18.4913 9.91632C18.3558 9.77242 18.1871 9.66382 18 9.59998C16.9433 9.26079 15.8186 9.19079 14.7279 9.39633C13.6373 9.60186 12.6152 10.0764 11.7544 10.777C10.8936 11.4775 10.2214 12.3819 9.79857 13.4081C9.37579 14.4342 9.21588 15.5497 9.33335 16.6533C9.41512 17.5291 9.6694 18.3801 10.0815 19.1572C10.4937 19.9343 11.0556 20.6222 11.7348 21.1812C12.4139 21.7401 13.197 22.1592 14.0389 22.4141C14.8808 22.6691 15.7648 22.7549 16.64 22.6666C18.1596 22.5316 19.5869 21.8795 20.6837 20.8191C21.7805 19.7587 22.4804 18.3542 22.6667 16.84C22.6855 16.6603 22.664 16.4786 22.6037 16.3082C22.5433 16.1379 22.4457 15.9832 22.3179 15.8554C22.1901 15.7276 22.0354 15.63 21.8651 15.5696C21.6947 15.5093 21.5131 15.4878 21.3334 15.5066V15.4533Z" fill="#669DF6"/>
<path d="M16 24C16.5275 24 17.043 24.1564 17.4816 24.4494C17.9201 24.7424 18.2619 25.1589 18.4637 25.6462C18.6656 26.1334 18.7184 26.6696 18.6155 27.1869C18.5126 27.7042 18.2586 28.1793 17.8857 28.5523C17.5127 28.9252 17.0376 29.1792 16.5203 29.2821C16.003 29.385 15.4668 29.3322 14.9796 29.1303C14.4923 28.9285 14.0758 28.5867 13.7828 28.1482C13.4898 27.7097 13.3334 27.1941 13.3334 26.6667C13.3334 25.9594 13.6143 25.2811 14.1144 24.781C14.6145 24.281 15.2928 24 16 24Z" fill="#AECBFA"/>
<path d="M16 2.66663C16.5275 2.66663 17.043 2.82302 17.4816 3.11604C17.9201 3.40906 18.2619 3.82553 18.4637 4.3128C18.6656 4.80007 18.7184 5.33625 18.6155 5.85353C18.5126 6.37082 18.2586 6.84597 17.8857 7.21891C17.5127 7.59185 17.0376 7.84583 16.5203 7.94872C16.003 8.05161 15.4668 7.99881 14.9796 7.79697C14.4923 7.59514 14.0758 7.25334 13.7828 6.81481C13.4898 6.37628 13.3334 5.86071 13.3334 5.33329C13.3334 4.62605 13.6143 3.94777 14.1144 3.44767C14.6145 2.94758 15.2928 2.66663 16 2.66663Z" fill="#AECBFA"/>
<path d="M23.9999 26.6666C23.7378 26.6655 23.4819 26.5872 23.264 26.4415C23.0462 26.2957 22.8761 26.089 22.7751 25.8472C22.6741 25.6053 22.6466 25.339 22.6961 25.0816C22.7456 24.8242 22.8698 24.5871 23.0533 24.4L26.6666 20.7866V11.2133L23.0799 7.59996C22.8316 7.35014 22.6922 7.01221 22.6922 6.65996C22.6922 6.30771 22.8316 5.96978 23.0799 5.71996C23.2039 5.59499 23.3514 5.4958 23.5138 5.4281C23.6763 5.36041 23.8506 5.32556 24.0266 5.32556C24.2026 5.32556 24.3769 5.36041 24.5394 5.4281C24.7019 5.4958 24.8493 5.59499 24.9733 5.71996L28.9733 9.71996C29.2131 9.97588 29.3425 10.316 29.3333 10.6666V21.3333C29.3318 21.6831 29.1929 22.0183 28.9466 22.2666L24.9466 26.2666C24.8231 26.3926 24.6759 26.4928 24.5134 26.5615C24.3509 26.6302 24.1763 26.6659 23.9999 26.6666Z" fill="#4285F4"/>
<path d="M7.99998 26.6666C7.82357 26.6659 7.64906 26.6302 7.48656 26.5615C7.32406 26.4928 7.1768 26.3926 7.05331 26.2666L3.05331 22.2666C2.80699 22.0183 2.66812 21.6831 2.66665 21.3333V10.6666C2.66563 10.4912 2.69927 10.3172 2.76562 10.1548C2.83197 9.9923 2.92974 9.84455 3.05331 9.71996L7.05331 5.71996C7.17727 5.59499 7.32473 5.4958 7.48721 5.4281C7.64969 5.36041 7.82397 5.32556 7.99998 5.32556C8.176 5.32556 8.35027 5.36041 8.51275 5.4281C8.67523 5.4958 8.8227 5.59499 8.94665 5.71996C9.19498 5.96978 9.33437 6.30771 9.33437 6.65996C9.33437 7.01221 9.19498 7.35014 8.94665 7.59996L5.33331 11.2133V20.7866L8.91998 24.4C9.04495 24.5239 9.14415 24.6714 9.21184 24.8339C9.27953 24.9963 9.31438 25.1706 9.31438 25.3466C9.31438 25.5226 9.27953 25.6969 9.21184 25.8594C9.14415 26.0219 9.04495 26.1693 8.91998 26.2933C8.67281 26.5315 8.34327 26.6653 7.99998 26.6666Z" fill="#669DF6"/>
</g>
<defs>
<clipPath id="clip0_841_18364">
<rect width="32" height="32" fill="white"/>
</clipPath>
</defs>
</svg>
