<svg width="32" height="32" viewBox="0 0 32 32" fill="none" xmlns="http://www.w3.org/2000/svg">
<path d="M8 10.4667V15.5067C7.98014 15.8397 7.98014 16.1737 8 16.5067C8.30595 18.8734 9.43952 21.0556 11.2 22.6667C12.4728 23.8908 14.0531 24.7478 15.7733 25.1467H16V20.16C14.8967 20.16 13.8386 19.7218 13.0584 18.9416C12.2783 18.1615 11.84 17.1033 11.84 16C11.84 14.8967 12.2783 13.8386 13.0584 13.0585C13.8386 12.2783 14.8967 11.84 16 11.84V6.7467L8 10.4667Z" fill="#AECBFA"/>
<path d="M26.96 14.96C27.2359 14.96 27.5004 15.0695 27.6954 15.2646C27.8905 15.4596 28 15.7241 28 16C28 16.2758 27.8905 16.5403 27.6954 16.7354C27.5004 16.9304 27.2359 17.04 26.96 17.04C26.6842 17.04 26.4197 16.9304 26.2247 16.7354C26.0296 16.5403 25.92 16.2758 25.92 16C25.92 15.7241 26.0296 15.4596 26.2247 15.2646C26.4197 15.0695 26.6842 14.96 26.96 14.96ZM26.96 13.96C26.5566 13.96 26.1622 14.0796 25.8267 14.3038C25.4912 14.5279 25.2297 14.8465 25.0753 15.2193C24.9209 15.592 24.8805 16.0022 24.9592 16.3979C25.038 16.7937 25.2322 17.1572 25.5175 17.4425C25.8028 17.7278 26.1663 17.922 26.5621 18.0008C26.9578 18.0795 27.368 18.0391 27.7407 17.8847C28.1135 17.7303 28.4321 17.4688 28.6562 17.1333C28.8804 16.7978 29 16.4034 29 16C29 15.4589 28.7851 14.94 28.4025 14.5575C28.02 14.1749 27.5011 13.96 26.96 13.96Z" fill="#AECBFA"/>
<path d="M16 6.7467V11.84C17.1033 11.84 18.1614 12.2783 18.9416 13.0585C19.7217 13.8386 20.16 14.8967 20.16 16C20.16 17.1033 19.7217 18.1615 18.9416 18.9416C18.1614 19.7218 17.1033 20.16 16 20.16V25.1734H16.2267C17.9498 24.7669 19.5303 23.9005 20.8 22.6667C22.5254 21.0501 23.6294 18.8798 23.92 16.5334C23.9399 16.2003 23.9399 15.8664 23.92 15.5334V10.4667L16 6.7467Z" fill="#4285F4"/>
<path d="M26.96 6.28003C27.0966 6.28003 27.2319 6.30693 27.358 6.35919C27.4842 6.41146 27.5989 6.48807 27.6954 6.58464C27.792 6.68121 27.8686 6.79586 27.9209 6.92204C27.9731 7.04822 28 7.18345 28 7.32003C28 7.4566 27.9731 7.59184 27.9209 7.71802C27.8686 7.8442 27.792 7.95885 27.6954 8.05542C27.5989 8.15199 27.4842 8.2286 27.358 8.28086C27.2319 8.33313 27.0966 8.36003 26.96 8.36003C26.6842 8.36003 26.4197 8.25046 26.2247 8.05542C26.0296 7.86038 25.92 7.59585 25.92 7.32003C25.92 7.0442 26.0296 6.77968 26.2247 6.58464C26.4197 6.3896 26.6842 6.28003 26.96 6.28003ZM26.96 5.28003C26.5566 5.28003 26.1622 5.39967 25.8267 5.62383C25.4912 5.84799 25.2297 6.16659 25.0753 6.53935C24.9209 6.91212 24.8805 7.32229 24.9592 7.71801C25.038 8.11374 25.2322 8.47723 25.5175 8.76253C25.8028 9.04783 26.1663 9.24212 26.5621 9.32083C26.9578 9.39955 27.368 9.35915 27.7407 9.20474C28.1135 9.05034 28.4321 8.78887 28.6562 8.45339C28.8804 8.11792 29 7.7235 29 7.32003C28.9895 6.78717 28.7696 6.2799 28.3877 5.90806C28.0059 5.53622 27.493 5.32975 26.96 5.33336V5.28003Z" fill="#4285F4"/>
<path d="M5.04003 23.6401C5.31585 23.6401 5.58038 23.7496 5.77542 23.9447C5.97046 24.1397 6.08003 24.4042 6.08003 24.6801C6.08003 24.9559 5.97046 25.2204 5.77542 25.4154C5.58038 25.6105 5.31585 25.7201 5.04003 25.7201C4.90345 25.7201 4.76822 25.6932 4.64204 25.6409C4.51586 25.5886 4.40121 25.512 4.30464 25.4154C4.20806 25.3189 4.13146 25.2042 4.07919 25.078C4.02693 24.9519 4.00003 24.8166 4.00003 24.6801C4.00003 24.5435 4.02693 24.4082 4.07919 24.2821C4.13146 24.1559 4.20806 24.0412 4.30464 23.9447C4.40121 23.8481 4.51586 23.7715 4.64204 23.7192C4.76822 23.667 4.90345 23.6401 5.04003 23.6401ZM5.04003 22.6401C4.636 22.6374 4.24028 22.7548 3.90306 22.9774C3.56583 23.1999 3.30228 23.5176 3.14583 23.8901C2.98939 24.2626 2.94708 24.6732 3.02428 25.0698C3.10148 25.4664 3.29471 25.8311 3.57948 26.1178C3.86424 26.4044 4.2277 26.6 4.62378 26.6798C5.01986 26.7596 5.43072 26.72 5.80426 26.566C6.1778 26.412 6.49719 26.1506 6.72195 25.8148C6.9467 25.479 7.06669 25.0841 7.0667 24.6801C7.05972 24.146 6.84355 23.6359 6.4646 23.2594C6.08565 22.883 5.57417 22.6702 5.04003 22.6667V22.6401Z" fill="#4285F4"/>
<path d="M5.04003 14.96C5.31585 14.96 5.58038 15.0696 5.77542 15.2646C5.97046 15.4597 6.08003 15.7242 6.08003 16C6.08003 16.2758 5.97046 16.5404 5.77542 16.7354C5.58038 16.9304 5.31585 17.04 5.04003 17.04C4.7642 17.04 4.49968 16.9304 4.30464 16.7354C4.1096 16.5404 4.00003 16.2758 4.00003 16C4.00003 15.7242 4.1096 15.4597 4.30464 15.2646C4.49968 15.0696 4.7642 14.96 5.04003 14.96ZM5.04003 13.96C4.636 13.9574 4.24028 14.0748 3.90306 14.2973C3.56583 14.5199 3.30228 14.8375 3.14583 15.21C2.98939 15.5826 2.94708 15.9932 3.02428 16.3898C3.10148 16.7863 3.29471 17.1511 3.57948 17.4377C3.86424 17.7244 4.2277 17.92 4.62378 17.9998C5.01986 18.0796 5.43072 18.04 5.80426 17.886C6.1778 17.732 6.49719 17.4705 6.72195 17.1347C6.9467 16.799 7.06669 16.404 7.0667 16C7.06671 15.4613 6.85361 14.9444 6.47392 14.5622C6.09422 14.18 5.57876 13.9635 5.04003 13.96Z" fill="#AECBFA"/>
<path d="M25 15.5067H24C24.0199 15.8398 24.0199 16.1737 24 16.5067H25.08C25.011 16.3443 24.9617 16.1742 24.9333 16C24.9349 15.8335 24.9573 15.6677 25 15.5067Z" fill="#669DF6"/>
<path d="M7 16.5067H8.08C8.06014 16.1737 8.06014 15.8398 8.08 15.5067H7C7.02036 15.6705 7.02036 15.8362 7 16C7.01951 16.1684 7.01951 16.3384 7 16.5067Z" fill="#669DF6"/>
<path d="M9.16 6.81335H7C7.02038 6.98163 7.02038 7.15175 7 7.32002C7.02036 7.48383 7.02036 7.64954 7 7.81335H8.86667L10.8667 9.14669L12 8.64002L9.16 6.81335Z" fill="#669DF6"/>
<path d="M25 6.81335H22.84L20.0667 8.64002L21.1333 9.14669L23.1333 7.81335H25C24.9573 7.65233 24.9349 7.4866 24.9333 7.32002C24.9349 7.14905 24.9573 6.97891 25 6.81335Z" fill="#669DF6"/>
<path d="M12 23.32C11.7218 23.1167 11.4547 22.8986 11.2 22.6666L8.86667 24.1866H7C7.02036 24.3504 7.02036 24.5161 7 24.68C7.02038 24.8482 7.02038 25.0184 7 25.1866H9.16L12 23.32Z" fill="#669DF6"/>
<path d="M25 24.1866H23.1333L20.8 22.6666C20.5502 22.9074 20.2876 23.1344 20.0133 23.3466L22.84 25.2133H25C24.9573 25.0477 24.9349 24.8776 24.9333 24.7066C24.9326 24.5311 24.955 24.3563 25 24.1866Z" fill="#669DF6"/>
<path d="M16 13.84C15.5728 13.84 15.1551 13.9666 14.7999 14.204C14.4447 14.4413 14.1679 14.7787 14.0044 15.1734C13.8409 15.5681 13.7981 16.0024 13.8815 16.4214C13.9648 16.8404 14.1705 17.2252 14.4726 17.5273C14.7747 17.8294 15.1596 18.0351 15.5786 18.1185C15.9976 18.2018 16.4319 18.159 16.8266 17.9955C17.2213 17.8321 17.5586 17.5552 17.7959 17.2C18.0333 16.8448 18.16 16.4272 18.16 16C18.1565 15.4282 17.9278 14.8808 17.5235 14.4765C17.1191 14.0722 16.5718 13.8435 16 13.84Z" fill="#669DF6"/>
<path d="M26.96 23.64C27.0966 23.64 27.2319 23.6669 27.358 23.7192C27.4842 23.7714 27.5989 23.8481 27.6954 23.9446C27.792 24.0412 27.8686 24.1558 27.9209 24.282C27.9731 24.4082 28 24.5434 28 24.68C28 24.8166 27.9731 24.9518 27.9209 25.078C27.8686 25.2042 27.792 25.3188 27.6954 25.4154C27.5989 25.512 27.4842 25.5886 27.358 25.6408C27.2319 25.6931 27.0966 25.72 26.96 25.72C26.6842 25.72 26.4197 25.6104 26.2247 25.4154C26.0296 25.2204 25.92 24.9558 25.92 24.68C25.92 24.4042 26.0296 24.1397 26.2247 23.9446C26.4197 23.7496 26.6842 23.64 26.96 23.64ZM26.96 22.64C26.5566 22.64 26.1622 22.7597 25.8267 22.9838C25.4912 23.208 25.2297 23.5266 25.0753 23.8993C24.9209 24.2721 24.8805 24.6823 24.9592 25.078C25.038 25.4737 25.2322 25.8372 25.5175 26.1225C25.8028 26.4078 26.1663 26.6021 26.5621 26.6808C26.9578 26.7595 27.368 26.7191 27.7407 26.5647C28.1135 26.4103 28.4321 26.1489 28.6562 25.8134C28.8804 25.4779 29 25.0835 29 24.68C28.993 24.1436 28.775 23.6316 28.3932 23.2547C28.0114 22.8779 27.4965 22.6666 26.96 22.6667V22.64Z" fill="#669DF6"/>
<path d="M5.04003 6.27995C5.31585 6.27995 5.58038 6.38952 5.77542 6.58456C5.97046 6.7796 6.08003 7.04413 6.08003 7.31995C6.08003 7.59578 5.97046 7.8603 5.77542 8.05534C5.58038 8.25038 5.31585 8.35995 5.04003 8.35995C4.7642 8.35995 4.49968 8.25038 4.30464 8.05534C4.1096 7.8603 4.00003 7.59578 4.00003 7.31995C4.00003 7.04413 4.1096 6.7796 4.30464 6.58456C4.49968 6.38952 4.7642 6.27995 5.04003 6.27995ZM5.04003 5.27995C4.636 5.27731 4.24028 5.39471 3.90306 5.61725C3.56583 5.8398 3.30228 6.15747 3.14583 6.52999C2.98939 6.90251 2.94708 7.3131 3.02428 7.7097C3.10148 8.10629 3.29471 8.47103 3.57948 8.75767C3.86424 9.0443 4.2277 9.23992 4.62378 9.31972C5.01986 9.39952 5.43072 9.35991 5.80426 9.20591C6.1778 9.0519 6.49719 8.79045 6.72195 8.45469C6.9467 8.11893 7.06669 7.72399 7.0667 7.31995C7.05622 6.78941 6.83808 6.28414 6.45914 5.91267C6.0802 5.5412 5.57067 5.33318 5.04003 5.33328V5.27995Z" fill="#669DF6"/>
</svg>
