<svg width="32" height="32" viewBox="0 0 32 32" fill="none" xmlns="http://www.w3.org/2000/svg">
<path d="M8.00008 10.6667H13.3334V5.33337H4.00008C3.64646 5.33337 3.30732 5.47385 3.05727 5.7239C2.80722 5.97395 2.66675 6.31309 2.66675 6.66671V28C2.67152 28.3387 2.80499 28.6629 3.04008 28.9067L8.00008 24V10.6667Z" fill="#AECBFA"/>
<path d="M21.3335 24.0001L26.2935 28.9601C26.4163 28.8328 26.5125 28.6824 26.5766 28.5176C26.6407 28.3528 26.6714 28.1769 26.6668 28.0001V18.6667H21.3335V24.0001Z" fill="#4285F4"/>
<path d="M28.9467 3.04004L24 8.00004V13.3334H29.3333V4.00004C29.3361 3.82233 29.3033 3.64585 29.2369 3.48099C29.1705 3.31613 29.0718 3.16621 28.9467 3.04004Z" fill="#669DF6"/>
<path d="M24.0001 8.00003L28.9601 3.04003C28.8328 2.91725 28.6824 2.82101 28.5176 2.75692C28.3528 2.69283 28.1769 2.66216 28.0001 2.6667H18.6667V8.00003H24.0001Z" fill="#AECBFA"/>
<path d="M2.66675 29.3333L8.00008 24H21.3334L26.6667 29.3333H2.66675Z" fill="#669DF6"/>
</svg>
