<svg width="32" height="32" viewBox="0 0 32 32" fill="none" xmlns="http://www.w3.org/2000/svg">
<path d="M20 12H12V20H20V12Z" fill="#AECBFA"/>
<path d="M17.3333 2.66663H14.6666V7.99996H17.3333V2.66663Z" fill="#669DF6"/>
<path d="M11.9999 2.66663H9.33325V7.99996H11.9999V2.66663Z" fill="#669DF6"/>
<path d="M22.6667 2.66663H20V7.99996H22.6667V2.66663Z" fill="#669DF6"/>
<path d="M17.3333 24H14.6666V29.3333H17.3333V24Z" fill="#4285F4"/>
<path d="M11.9999 24H9.33325V29.3333H11.9999V24Z" fill="#4285F4"/>
<path d="M22.6667 24H20V29.3333H22.6667V24Z" fill="#4285F4"/>
<path d="M24 14.6666V17.3333H29.3333V14.6666H24Z" fill="#4285F4"/>
<path d="M24 20V22.6666H29.3333V20H24Z" fill="#4285F4"/>
<path d="M24 9.33333V12H29.3333V9.33333H24Z" fill="#4285F4"/>
<path d="M2.66663 14.6666V17.3333H7.99996V14.6666H2.66663Z" fill="#669DF6"/>
<path d="M2.66663 20V22.6666H7.99996V20H2.66663Z" fill="#669DF6"/>
<path d="M2.66663 9.33333V12H7.99996V9.33333H2.66663Z" fill="#669DF6"/>
<path d="M6.66663 6.66663V25.3333H25.3333V6.66663H6.66663ZM22.6666 22.6666H9.33329V9.33329H22.6666V22.6666Z" fill="#AECBFA"/>
<path d="M12 20H20L16 16L12 20Z" fill="#669DF6"/>
<path d="M16 16L20 20V12L16 16Z" fill="#4285F4"/>
</svg>
