<svg width="32" height="32" viewBox="0 0 32 32" fill="none" xmlns="http://www.w3.org/2000/svg">
<path d="M7.68005 11.52V16.6933C7.72757 19.0967 8.56968 21.4167 10.0749 23.2909C11.5801 25.1652 13.6636 26.4882 16.0001 27.0534V7.64001L7.68005 11.52Z" fill="#4285F4"/>
<path d="M16 27.0534L16.88 26.8C19.012 26.09 20.8719 24.7372 22.2041 22.9275C23.5362 21.1178 24.2754 18.94 24.32 16.6933V11.52L16 7.64001V27.0534Z" fill="#AECBFA"/>
<path d="M23.72 5.51996C23.5912 5.5134 23.4622 5.5134 23.3334 5.51996L24.44 4.18663L23.68 3.54663L21.4534 6.2133L24.12 8.42663L24.76 7.66663L23.4267 6.5333C23.5422 6.52676 23.6579 6.52676 23.7734 6.5333C24.7069 6.5333 25.6023 6.90415 26.2624 7.56428C26.9225 8.22441 27.2934 9.11974 27.2934 10.0533C27.2937 10.6056 27.1611 11.1498 26.9067 11.64L27.64 12.3866L27.76 12.2133C28.1094 11.5468 28.2923 10.8058 28.2934 10.0533C28.2952 9.45409 28.1778 8.8605 27.9481 8.30705C27.7184 7.75361 27.381 7.25136 26.9554 6.82952C26.5299 6.40768 26.0247 6.07466 25.4692 5.84984C24.9138 5.62502 24.3192 5.51289 23.72 5.51996Z" fill="#AECBFA"/>
<path d="M7.56004 23.6001L6.74671 24.1867L7.76004 25.6001C7.64013 25.6066 7.51995 25.6066 7.40004 25.6001C6.81913 25.4499 6.28624 25.1537 5.85198 24.7397C5.41772 24.3257 5.0965 23.8075 4.91882 23.2344C4.74115 22.6613 4.71292 22.0523 4.83681 21.4652C4.96071 20.8782 5.23261 20.3325 5.62671 19.8801L5.10671 18.9734C5.05454 19.0189 5.00554 19.0679 4.96004 19.1201C4.42664 19.6934 4.05186 20.3959 3.87264 21.1583C3.69343 21.9206 3.71597 22.7165 3.93803 23.4675C4.1601 24.2185 4.57403 24.8987 5.13903 25.441C5.70402 25.9833 6.40058 26.369 7.16004 26.5601C7.28773 26.5887 7.41679 26.611 7.54671 26.6267L6.21338 27.6134L6.80004 28.4267L9.61338 26.4267L7.56004 23.6001Z" fill="#4285F4"/>
</svg>
