<svg width="32" height="32" viewBox="0 0 32 32" fill="none" xmlns="http://www.w3.org/2000/svg">
<path d="M14.6653 9.35071H11.9987V14.684H14.6653V9.35071Z" fill="#AECBFA"/>
<path d="M19.9987 9.35071H17.332V14.684H19.9987V9.35071Z" fill="#AECBFA"/>
<path d="M10.6667 25.24C8.63341 24.0673 7.04411 22.2561 6.14556 20.0877C5.24701 17.9193 5.08947 15.5148 5.69741 13.2477C6.30534 10.9806 7.64474 8.97754 9.50766 7.54959C11.3706 6.12164 13.6528 5.34865 16.0001 5.35063V2.68396C12.9402 2.68826 9.97495 3.74485 7.60185 5.67643C5.22875 7.60802 3.59222 10.2971 2.96687 13.2923C2.34152 16.2876 2.76541 19.4068 4.16741 22.1265C5.56941 24.8463 7.86421 27.0011 10.6667 28.2293V25.24Z" fill="#AECBFA"/>
<path d="M17.3319 22.6826H14.6653V29.3493H17.3319V22.6826Z" fill="#4285F4"/>
<path d="M22.6534 13.3507H9.33337V17.2667C9.33337 18.1429 9.50595 19.0105 9.84125 19.82C10.1765 20.6295 10.668 21.365 11.2876 21.9845C11.9071 22.6041 12.6426 23.0955 13.4521 23.4308C14.2616 23.7661 15.1292 23.9387 16.0054 23.9387C16.8816 23.9387 17.7492 23.7661 18.5586 23.4308C19.3681 23.0955 20.1036 22.6041 20.7232 21.9845C21.3427 21.365 21.8342 20.6295 22.1695 19.82C22.5048 19.0105 22.6774 18.1429 22.6774 17.2667L22.6534 13.3507Z" fill="#4285F4"/>
<path d="M16 24.016C14.2218 24.0023 12.5216 23.2842 11.2719 22.019C10.0223 20.7539 9.32515 19.0449 9.33332 17.2667V13.3507H16" fill="#669DF6"/>
<path d="M16 2.68262C19.062 2.68412 22.0302 3.73951 24.4059 5.67144C26.7815 7.60337 28.4198 10.2941 29.0455 13.2915C29.6711 16.2889 29.246 19.4104 27.8416 22.1313C26.4372 24.8523 24.1391 27.007 21.3333 28.2333V25.2413C23.3669 24.0685 24.9565 22.2572 25.8552 20.0885C26.754 17.9199 26.9116 15.5151 26.3037 13.2477C25.6957 10.9802 24.3562 8.97693 22.4931 7.54874C20.63 6.12055 18.3475 5.34739 16 5.34928V2.68262Z" fill="#4285F4"/>
</svg>
