<svg width="32" height="32" viewBox="0 0 32 32" fill="none" xmlns="http://www.w3.org/2000/svg">
<path d="M16.0001 2.66663C13.363 2.66663 10.7851 3.44861 8.59248 4.9137C6.39983 6.37878 4.69086 8.46116 3.68169 10.8975C2.67253 13.3339 2.40848 16.0147 2.92295 18.6012C3.43742 21.1876 4.7073 23.5633 6.572 25.428C8.4367 27.2927 10.8125 28.5626 13.3989 29.0771C15.9853 29.5916 18.6662 29.3275 21.1025 28.3184C23.5389 27.3092 25.6213 25.6002 27.0863 23.4076C28.5514 21.2149 29.3334 18.637 29.3334 16C29.3334 14.249 28.9885 12.5152 28.3185 10.8975C27.6484 9.27984 26.6663 7.80998 25.4282 6.57187C24.1901 5.33375 22.7202 4.35163 21.1025 3.68157C19.4849 3.0115 17.751 2.66663 16.0001 2.66663ZM16.0001 26.6666C14.0328 26.6662 12.1039 26.1217 10.4268 25.0933L15.2001 22.3333V16.3333L10.0134 13.3333V19.36L13.6801 21.48L9.06675 24.1466C7.74634 23.0323 6.7164 21.6138 6.06551 20.0133C5.41461 18.4128 5.16226 16.6781 5.33016 14.9585C5.49806 13.2389 6.08117 11.5858 7.02936 10.1414C7.97754 8.69698 9.2624 7.50454 10.7734 6.66663V12L16.0001 15.04L21.2001 12L16.0001 9.02663L12.3201 11.1466V5.95996C13.634 5.46662 15.0323 5.23743 16.435 5.28552C17.8376 5.33361 19.217 5.65803 20.4941 6.24019C21.7711 6.82235 22.9207 7.65081 23.877 8.67808C24.8332 9.70535 25.5774 10.9112 26.0668 12.2266C26.5167 13.4338 26.7469 14.7117 26.7468 16V16.0933L21.9468 13.3333L16.7468 16.3466V22.36L21.9468 19.36V15.12L26.5468 17.7866C26.1239 20.2754 24.8321 22.5336 22.9009 24.1596C20.9698 25.7856 18.5246 26.6739 16.0001 26.6666Z" fill="#4285F4"/>
</svg>
