<svg width="32" height="32" viewBox="0 0 32 32" fill="none" xmlns="http://www.w3.org/2000/svg">
<path fill-rule="evenodd" clip-rule="evenodd" d="M10.3638 5.86768L10.3639 11.194L10.3694 11.1938L10.3639 11.1972V18.1851L14.4807 20.5699L9.93707 23.2641L6.86061 21.4775C6.31543 21.161 5.98071 20.5833 5.98071 19.9591V9.42076C5.98071 8.79652 6.31543 8.21888 6.86061 7.90229L10.3638 5.86768Z" fill="#4285F4"/>
<path fill-rule="evenodd" clip-rule="evenodd" d="M21.5015 12.9758L25.9807 15.6547V19.9925C25.9807 20.6192 25.6477 21.199 25.1051 21.5168L15.9795 26.862L15.9524 26.8461L15.9721 26.862L12.0359 29.1879C11.8249 29.3126 11.5524 29.2434 11.4272 29.0335C11.3866 28.9654 11.3651 28.8878 11.365 28.8087L11.3557 24.2362L16.0661 21.4192L16.0522 21.396L21.5016 18.2119L21.5015 12.9758Z" fill="#4285F4"/>
<path fill-rule="evenodd" clip-rule="evenodd" d="M16.8874 2.99427L25.1622 7.81083C25.7081 8.12856 26.0432 8.70826 26.0432 9.33474V13.7865L21.408 11.0317L21.403 11.0397L15.9218 7.85708L11.8557 10.218V4.86733L15.0742 2.99427C15.6337 2.66858 16.3278 2.66858 16.8874 2.99427Z" fill="#4285F4"/>
</svg>
