<svg width="32" height="32" viewBox="0 0 32 32" fill="none" xmlns="http://www.w3.org/2000/svg">
<path fill-rule="evenodd" clip-rule="evenodd" d="M8.89342 4L2.66675 7.68V24.32L8.89342 28V24.8L5.33341 22.6933V9.30667L8.89342 7.2V4Z" fill="#AECBFA"/>
<path fill-rule="evenodd" clip-rule="evenodd" d="M12.4402 12.1867L16.0002 14.28L19.5602 12.1867V7.97334L16.0002 5.88L12.4402 7.97334V12.1867Z" fill="#AECBFA"/>
<path fill-rule="evenodd" clip-rule="evenodd" d="M12.4402 7.97339V12.1867L16.0002 14.2801L19.5602 12.1867V7.97339L16.0002 10.0801L12.4402 7.97339Z" fill="#669DF6"/>
<path fill-rule="evenodd" clip-rule="evenodd" d="M16 14.2801L19.56 12.1867V7.97339L16 10.0801V14.2801Z" fill="#4285F4"/>
<path fill-rule="evenodd" clip-rule="evenodd" d="M16.8933 20.84L20.44 22.9334L24 20.84V16.6267L20.44 14.52L16.8933 16.6267V20.84Z" fill="#AECBFA"/>
<path fill-rule="evenodd" clip-rule="evenodd" d="M16.8933 16.6267V20.84L20.44 22.9334L24 20.84V16.6267L20.44 18.7334L16.8933 16.6267Z" fill="#669DF6"/>
<path fill-rule="evenodd" clip-rule="evenodd" d="M20.4402 22.9334L24.0002 20.84V16.6267L20.4402 18.7334V22.9334Z" fill="#4285F4"/>
<path fill-rule="evenodd" clip-rule="evenodd" d="M8 20.84L11.56 22.9334L15.1067 20.84V16.6267L11.56 14.52L8 16.6267V20.84Z" fill="#AECBFA"/>
<path fill-rule="evenodd" clip-rule="evenodd" d="M8 16.6267V20.84L11.56 22.9334L15.1067 20.84V16.6267L11.56 18.7334L8 16.6267Z" fill="#669DF6"/>
<path fill-rule="evenodd" clip-rule="evenodd" d="M11.5601 22.9334L15.1067 20.84V16.6267L11.5601 18.7334V22.9334Z" fill="#4285F4"/>
<path fill-rule="evenodd" clip-rule="evenodd" d="M2.66675 10.8933V21.12L5.33341 22.6933V9.30664L2.66675 10.8933Z" fill="#669DF6"/>
<path fill-rule="evenodd" clip-rule="evenodd" d="M2.66675 10.8933L5.33341 10.28V9.30664L2.66675 10.8933Z" fill="#4285F4"/>
<path fill-rule="evenodd" clip-rule="evenodd" d="M5.33341 22.6933V21.92L2.66675 21.12L5.33341 22.6933Z" fill="#4285F4"/>
<path fill-rule="evenodd" clip-rule="evenodd" d="M23.1067 4V7.2L26.6667 9.30667V22.6933L23.1067 24.8V28L29.3334 24.32V7.68L23.1067 4Z" fill="#AECBFA"/>
<path fill-rule="evenodd" clip-rule="evenodd" d="M26.6667 22.6933L29.3334 21.12V10.8933L26.6667 9.30664V22.6933Z" fill="#669DF6"/>
<path fill-rule="evenodd" clip-rule="evenodd" d="M26.6667 10.28L29.3334 10.8933L26.6667 9.30664V10.28Z" fill="#4285F4"/>
<path fill-rule="evenodd" clip-rule="evenodd" d="M26.6667 21.92V22.6933L29.3334 21.12L26.6667 21.92Z" fill="#4285F4"/>
</svg>
