<svg width="32" height="32" viewBox="0 0 32 32" fill="none" xmlns="http://www.w3.org/2000/svg">
<path fill-rule="evenodd" clip-rule="evenodd" d="M18.3868 6.71996L18.0268 5.46662L16.1468 5.37329L13.8535 6.65329L15.8802 8.65329L15.8535 10.96L17.2135 10.9733L17.2402 8.66662L22.8935 12.08L22.8802 13.5066L25.2402 13.5466V10.8133L18.3868 6.71996Z" fill="#669DF6"/>
<path fill-rule="evenodd" clip-rule="evenodd" d="M16.1467 5.37329H16.1334L14.24 5.83996L13.8534 6.65329L6.84005 10.56L6.80005 13.2933L9.17338 13.3333L9.20005 11.9066L14.9467 8.63996L14.92 10.9466L16.0667 10.96L16.1467 5.37329Z" fill="#AECBFA"/>
<path fill-rule="evenodd" clip-rule="evenodd" d="M16.1468 5.37329H16.1335L11.5868 2.66663L9.26685 3.93329L13.8535 6.65329L16.1468 5.37329Z" fill="#669DF6"/>
<path fill-rule="evenodd" clip-rule="evenodd" d="M22.7867 20.0799L17.0533 23.3466L17.08 21.0533L14.7867 21.0266L14.76 23.3199L15.8533 26.6266L17.7467 26.4666L18.1333 25.3333L25.16 21.4266L25.2 18.6399L22.8133 18.6133L22.7867 20.0799Z" fill="#669DF6"/>
<path fill-rule="evenodd" clip-rule="evenodd" d="M15.8533 26.6266L11.24 29.2132H11.1733L8.95996 27.8932L13.6133 25.2799L15.8533 26.6266Z" fill="#669DF6"/>
<path fill-rule="evenodd" clip-rule="evenodd" d="M18.3867 6.71995L23.0401 4.10662L20.8267 2.78662H20.7601L16.1467 5.37329L18.3867 6.71995Z" fill="#4285F4"/>
<path fill-rule="evenodd" clip-rule="evenodd" d="M18.1468 25.3467L22.7335 28.0667L20.4802 29.3333H20.4135L15.8535 26.6267L18.1468 25.3467Z" fill="#4285F4"/>
<path fill-rule="evenodd" clip-rule="evenodd" d="M15.8533 26.6134L13.6133 25.28L6.76001 21.1867V18.52H9.10668L9.09334 19.9067L14.76 23.32L14.7867 21.0267L15.9333 21.04L15.8533 26.6134Z" fill="#AECBFA"/>
<path d="M24.1601 17.5733C24.9996 17.5733 25.6801 16.8928 25.6801 16.0533C25.6801 15.2139 24.9996 14.5333 24.1601 14.5333C23.3207 14.5333 22.6401 15.2139 22.6401 16.0533C22.6401 16.8928 23.3207 17.5733 24.1601 17.5733Z" fill="#AECBFA"/>
<path d="M7.84007 17.3599C8.67954 17.3599 9.36007 16.6794 9.36007 15.8399C9.36007 15.0005 8.67954 14.3199 7.84007 14.3199C7.0006 14.3199 6.32007 15.0005 6.32007 15.8399C6.32007 16.6794 7.0006 17.3599 7.84007 17.3599Z" fill="#AECBFA"/>
<path d="M16.0801 14.8399C16.9195 14.8399 17.6001 14.1594 17.6001 13.3199C17.6001 12.4805 16.9195 11.7999 16.0801 11.7999C15.2406 11.7999 14.5601 12.4805 14.5601 13.3199C14.5601 14.1594 15.2406 14.8399 16.0801 14.8399Z" fill="#AECBFA"/>
<path d="M15.9602 20.1866C16.7997 20.1866 17.4802 19.5061 17.4802 18.6666C17.4802 17.8271 16.7997 17.1466 15.9602 17.1466C15.1207 17.1466 14.4402 17.8271 14.4402 18.6666C14.4402 19.5061 15.1207 20.1866 15.9602 20.1866Z" fill="#AECBFA"/>
</svg>
