<svg width="32" height="32" viewBox="0 0 32 32" fill="none" xmlns="http://www.w3.org/2000/svg">
<path fill-rule="evenodd" clip-rule="evenodd" d="M25.9333 24.6267C25.6381 24.6187 25.3519 24.5233 25.1109 24.3527C24.8699 24.1821 24.6849 23.9438 24.5793 23.668C24.4737 23.3922 24.4522 23.0913 24.5176 22.8034C24.5829 22.5154 24.7322 22.2532 24.9466 22.0501C25.1609 21.8469 25.4306 21.7119 25.7217 21.662C26.0128 21.6122 26.3121 21.6497 26.5818 21.77C26.8516 21.8902 27.0796 22.0877 27.2371 22.3375C27.3946 22.5873 27.4745 22.8782 27.4667 23.1734C27.4527 23.5683 27.2842 23.942 26.9974 24.2138C26.7106 24.4857 26.3285 24.634 25.9333 24.6267ZM25.9333 25.9601C26.5755 25.9729 27.2023 25.7625 27.7065 25.3647C28.2108 24.9669 28.5614 24.4064 28.6984 23.7788C28.8354 23.1513 28.7504 22.4957 28.4578 21.9239C28.1652 21.3521 27.6832 20.8996 27.0941 20.6437C26.505 20.3877 25.8453 20.3442 25.2276 20.5205C24.61 20.6968 24.0727 21.082 23.7075 21.6104C23.3423 22.1388 23.1718 22.7775 23.2252 23.4176C23.2785 24.0577 23.5524 24.6594 24 25.1201C24.5197 25.6403 25.2247 25.9328 25.96 25.9334L25.9333 25.9601Z" fill="#4285F4"/>
<path d="M25.9466 5.7733C25.3994 5.77261 24.8644 5.93458 24.4094 6.23864C23.9545 6.5427 23.6002 6.97512 23.3916 7.48097C23.183 7.98683 23.1294 8.54328 23.2377 9.07963C23.346 9.61599 23.6113 10.108 23.9999 10.4933C24.2547 10.7534 24.56 10.9585 24.8971 11.0961C25.2342 11.2337 25.5959 11.3008 25.9599 11.2933C26.3394 11.3197 26.7202 11.2677 27.0788 11.1406C27.4373 11.0135 27.7658 10.814 28.044 10.5545C28.3221 10.295 28.5439 9.98106 28.6955 9.6322C28.8472 9.28334 28.9254 8.90702 28.9254 8.52663C28.9254 8.14624 28.8472 7.76992 28.6955 7.42106C28.5439 7.0722 28.3221 6.75827 28.044 6.49878C27.7658 6.23929 27.4373 6.03979 27.0788 5.91269C26.7202 5.78559 26.3394 5.7336 25.9599 5.75996L25.9466 5.7733ZM27.0132 9.58663C26.8716 9.72642 26.7024 9.83533 26.5166 9.90647C26.3307 9.97761 26.1321 10.0094 25.9332 9.99996C25.6414 9.98934 25.3591 9.89258 25.1221 9.72187C24.8851 9.55117 24.7039 9.31415 24.6014 9.04066C24.4988 8.76718 24.4794 8.46946 24.5457 8.185C24.612 7.90054 24.761 7.64206 24.9739 7.44211C25.1868 7.24215 25.4542 7.10967 25.7422 7.06134C26.0303 7.01301 26.3262 7.051 26.5927 7.17052C26.8592 7.29004 27.0844 7.48575 27.2399 7.733C27.3954 7.98025 27.4743 8.26798 27.4666 8.55996C27.452 8.94748 27.2898 9.31477 27.0132 9.58663Z" fill="#4285F4"/>
<path d="M21.2 13.3334H21.1333V14.6H21.2266C21.6192 14.6 21.9956 14.756 22.2732 15.0335C22.5507 15.3111 22.7066 15.6875 22.7066 16.08C22.7066 16.4726 22.5507 16.849 22.2732 17.1266C21.9956 17.4041 21.6192 17.56 21.2266 17.56H21.1333V18.8934H21.2266C21.6061 18.9197 21.9869 18.8677 22.3455 18.7406C22.704 18.6135 23.0326 18.414 23.3107 18.1546C23.5888 17.8951 23.8106 17.5811 23.9623 17.2323C24.1139 16.8834 24.1921 16.5071 24.1921 16.1267C24.1921 15.7463 24.1139 15.37 23.9623 15.0211C23.8106 14.6723 23.5888 14.3583 23.3107 14.0989C23.0326 13.8394 22.704 13.6399 22.3455 13.5128C21.9869 13.3857 21.6061 13.3337 21.2266 13.36L21.2 13.3334Z" fill="#4285F4"/>
<path d="M15.0934 2.66663C8.57336 2.66663 3.28003 5.33329 3.28003 8.53329C3.28003 11.7333 8.61336 14.4133 15.0934 14.4133H15.2267V2.66663H15.0934Z" fill="#4285F4"/>
<path d="M15.0934 16.6934C12.2154 16.7901 9.35418 16.2197 6.73336 15.0267C6.00915 14.7375 5.34906 14.3084 4.79082 13.7639C4.23259 13.2194 3.78717 12.5702 3.48003 11.8534H3.28003V16.0001C3.28003 19.2401 8.61336 21.8667 15.0934 21.8667H15.2267V16.6667L15.0934 16.6934Z" fill="#4285F4"/>
<path d="M15.0934 24.1333C12.2165 24.2342 9.35527 23.6683 6.73336 22.48C6.00915 22.1908 5.34906 21.7617 4.79082 21.2171C4.23259 20.6726 3.78717 20.0234 3.48003 19.3066H3.28003V23.4666C3.28003 26.7066 8.61336 29.3333 15.0934 29.3333H15.2267V24.1333H15.0934Z" fill="#4285F4"/>
<path d="M21.1468 2.66663H18.1868V29.3333H21.1468V2.66663Z" fill="#669DF6"/>
</svg>
