<svg width="32" height="32" viewBox="0 0 32 32" fill="none" xmlns="http://www.w3.org/2000/svg">
<path d="M26.6667 5.33337H10.2667C9.98821 5.33515 9.71579 5.41475 9.48018 5.56318C9.24457 5.71161 9.05516 5.92297 8.93333 6.17337L4 16H6.66667L10.6667 8.00004H25.3333V9.33337H28V6.66671C28 6.31309 27.8595 5.97395 27.6095 5.7239C27.3594 5.47385 27.0203 5.33337 26.6667 5.33337Z" fill="#A6CAFD"/>
<path d="M13.3334 20C15.5425 20 17.3334 18.2091 17.3334 16C17.3334 13.7909 15.5425 12 13.3334 12C11.1242 12 9.33337 13.7909 9.33337 16C9.33337 18.2091 11.1242 20 13.3334 20Z" fill="#559CFC"/>
<path d="M13.3333 17.3333C14.0697 17.3333 14.6667 16.7363 14.6667 16C14.6667 15.2636 14.0697 14.6666 13.3333 14.6666C12.597 14.6666 12 15.2636 12 16C12 16.7363 12.597 17.3333 13.3333 17.3333Z" fill="white"/>
<path d="M0 0H10.6667V1.33333H0V0Z" fill="white"/>
<path d="M28 10.6666H24C23.2636 10.6666 22.6666 11.2636 22.6666 12C22.6666 12.7363 23.2636 13.3333 24 13.3333H28C28.7363 13.3333 29.3333 12.7363 29.3333 12C29.3333 11.2636 28.7363 10.6666 28 10.6666Z" fill="#669DF6"/>
<path d="M28 14.6666H20C19.2636 14.6666 18.6666 15.2636 18.6666 16C18.6666 16.7363 19.2636 17.3333 20 17.3333H28C28.7363 17.3333 29.3333 16.7363 29.3333 16C29.3333 15.2636 28.7363 14.6666 28 14.6666Z" fill="#669DF6"/>
<path d="M28 18.6666H24C23.2636 18.6666 22.6666 19.2636 22.6666 20C22.6666 20.7363 23.2636 21.3333 24 21.3333H28C28.7363 21.3333 29.3333 20.7363 29.3333 20C29.3333 19.2636 28.7363 18.6666 28 18.6666Z" fill="#669DF6"/>
<path d="M25.3334 22.6666V24H10.6667L8.00004 18.6666H5.33337L8.92004 25.8266C9.04186 26.077 9.23128 26.2884 9.46689 26.4368C9.70249 26.5853 9.97491 26.6649 10.2534 26.6666H26.6667C27.0203 26.6666 27.3595 26.5262 27.6095 26.2761C27.8596 26.0261 28 25.6869 28 25.3333V22.6666H25.3334Z" fill="#A6CAFD"/>
<path d="M13.3333 16H2.66663" stroke="#2683FB" stroke-miterlimit="10"/>
</svg>
