<svg width="32" height="32" viewBox="0 0 32 32" fill="none" xmlns="http://www.w3.org/2000/svg">
<path fill-rule="evenodd" clip-rule="evenodd" d="M23.7999 18.9333L10.2266 26.7733L8.91992 24.5333L22.5066 16.6799L23.7999 18.9333Z" fill="#AECBFA"/>
<path fill-rule="evenodd" clip-rule="evenodd" d="M10.1733 24.2133V8.53333H12.6667V22.3333L10.1733 24.2133Z" fill="#AECBFA"/>
<path fill-rule="evenodd" clip-rule="evenodd" d="M12.7466 12.92L12.3999 9.77332L25.9866 17.6L24.6932 19.84L12.7466 12.92Z" fill="#AECBFA"/>
<path fill-rule="evenodd" clip-rule="evenodd" d="M19.1866 13.68L12.3999 9.77332L12.7466 12.92L14.7599 14.0666C15.4822 14.3242 16.2515 14.423 17.0154 14.3563C17.7793 14.2896 18.5199 14.0589 19.1866 13.68Z" fill="#4285F4"/>
<path fill-rule="evenodd" clip-rule="evenodd" d="M10.8399 11.0533C10.2851 10.0923 10.0629 8.97502 10.2079 7.87485C10.3528 6.77468 10.8569 5.75311 11.6417 4.96863C12.4266 4.18415 13.4484 3.68063 14.5486 3.53618C15.6488 3.39173 16.766 3.61442 17.7267 4.16972C18.6875 4.72501 19.4381 5.58186 19.8622 6.60732C20.2862 7.63279 20.36 8.76953 20.072 9.8412C19.7841 10.9129 19.1505 11.8595 18.2695 12.5343C17.3886 13.2091 16.3096 13.5743 15.1999 13.5733C14.3166 13.5698 13.4495 13.3354 12.6847 12.8933C11.9199 12.4513 11.2839 11.817 10.8399 11.0533ZM17.3332 7.31996C17.1183 6.94769 16.8093 6.63842 16.4373 6.42314C16.0652 6.20785 15.6431 6.09411 15.2132 6.09329C14.8917 6.09153 14.573 6.15335 14.2754 6.27518C13.9778 6.39702 13.7073 6.57647 13.4793 6.80322C13.2513 7.02997 13.0704 7.29955 12.9469 7.59645C12.8235 7.89336 12.7599 8.21174 12.7599 8.53329C12.7351 8.86978 12.7799 9.20778 12.8916 9.52616C13.0033 9.84454 13.1794 10.1365 13.409 10.3837C13.6387 10.6309 13.9168 10.8281 14.2261 10.9629C14.5354 11.0978 14.8692 11.1674 15.2066 11.1674C15.544 11.1674 15.8778 11.0978 16.187 10.9629C16.4963 10.8281 16.7745 10.6309 17.0041 10.3837C17.2337 10.1365 17.4099 9.84454 17.5216 9.52616C17.6333 9.20778 17.6781 8.86978 17.6532 8.53329C17.6561 8.10763 17.5456 7.68887 17.3332 7.31996Z" fill="#AECBFA"/>
<path fill-rule="evenodd" clip-rule="evenodd" d="M10.1733 17.2533V24.2133L12.6667 22.3333V20.16C12.4979 19.5185 12.1858 18.9236 11.7539 18.4202C11.3221 17.9167 10.7817 17.5178 10.1733 17.2533Z" fill="#4285F4"/>
<path fill-rule="evenodd" clip-rule="evenodd" d="M17.7733 22.4133L23.7999 18.9333L20.8533 17.6L19.1866 18.6666C18.2576 19.7178 17.7537 21.0773 17.7733 22.48V22.4133Z" fill="#4285F4"/>
<path fill-rule="evenodd" clip-rule="evenodd" d="M3.34661 24.9332C3.01446 24.361 2.79855 23.7288 2.71128 23.0729C2.624 22.417 2.66707 21.7504 2.83802 21.1112C3.00897 20.472 3.30443 19.8728 3.70746 19.3481C4.11048 18.8233 4.61315 18.3833 5.18661 18.0532C5.75647 17.7191 6.38732 17.5022 7.04216 17.4152C7.69699 17.3282 8.36261 17.3728 8.99994 17.5466C9.80257 17.7581 10.5405 18.1646 11.1482 18.73C11.756 19.2954 12.2146 20.0021 12.4835 20.7874C12.7524 21.5726 12.8232 22.4122 12.6896 23.2314C12.556 24.0506 12.2221 24.8241 11.7177 25.4833C11.2132 26.1424 10.5537 26.6668 9.79788 27.0097C9.04202 27.3527 8.21315 27.5037 7.38489 27.4493C6.55664 27.3948 5.75465 27.1367 5.05017 26.6978C4.34568 26.2588 3.7605 25.6527 3.34661 24.9332ZM9.81328 21.1866C9.6608 20.8981 9.4508 20.644 9.19624 20.4399C8.94169 20.2358 8.64798 20.086 8.33328 19.9999C7.86568 19.8727 7.37077 19.8875 6.91165 20.0426C6.45254 20.1977 6.05 20.486 5.75536 20.8708C5.46072 21.2555 5.28732 21.7193 5.25727 22.203C5.22721 22.6866 5.34187 23.1683 5.58661 23.5866C5.7477 23.8641 5.96187 24.1072 6.21691 24.3019C6.47194 24.4967 6.76283 24.6393 7.07298 24.7216C7.38312 24.804 7.70645 24.8244 8.0245 24.7818C8.34255 24.7392 8.64908 24.6343 8.92661 24.4732C9.20414 24.3121 9.44722 24.098 9.64197 23.8429C9.83673 23.5879 9.97935 23.297 10.0617 22.9869C10.144 22.6767 10.1645 22.3534 10.1218 22.0353C10.0792 21.7173 9.97437 21.4108 9.81328 21.1332V21.1866Z" fill="#AECBFA"/>
<path fill-rule="evenodd" clip-rule="evenodd" d="M19.1066 24.4799C18.668 23.7149 18.4373 22.8484 18.4373 21.9666C18.4373 21.0848 18.668 20.2183 19.1066 19.4533C19.776 18.2982 20.8753 17.4549 22.1644 17.1077C23.4535 16.7604 24.8276 16.9374 25.9866 17.5999C27.1421 18.269 27.9849 19.3694 28.3298 20.6593C28.6748 21.9492 28.4938 23.3233 27.8266 24.4799C27.3836 25.2439 26.7477 25.878 25.9825 26.3188C25.2173 26.7596 24.3497 26.9917 23.4666 26.9917C22.5835 26.9917 21.7159 26.7596 20.9507 26.3188C20.1855 25.878 19.5496 25.2439 19.1066 24.4799ZM25.5866 20.7333C25.3647 20.3682 25.0583 20.0618 24.6933 19.8399C24.1283 19.5203 23.4602 19.4363 22.8338 19.606C22.2073 19.7758 21.673 20.1856 21.3466 20.7466C21.1363 21.1188 21.0258 21.5391 21.0258 21.9666C21.0258 22.3941 21.1363 22.8144 21.3466 23.1866C21.6164 23.6542 22.0338 24.0192 22.5332 24.2243C23.0326 24.4293 23.586 24.463 24.1066 24.3199C24.4158 24.2379 24.7058 24.0955 24.9598 23.901C25.2138 23.7065 25.4268 23.4637 25.5866 23.1866C25.7968 22.8119 25.9073 22.3895 25.9073 21.9599C25.9073 21.5303 25.7968 21.1079 25.5866 20.7333Z" fill="#AECBFA"/>
<path fill-rule="evenodd" clip-rule="evenodd" d="M12.6533 21.5333C12.6533 21.5333 9.53326 24.2 8.91992 24.5333L12.7333 22.3333C12.7264 22.065 12.6997 21.7976 12.6533 21.5333Z" fill="#669DF6"/>
<path fill-rule="evenodd" clip-rule="evenodd" d="M13.5332 13.3333C13.5332 13.3333 12.7466 8.95999 12.7466 8.53333V12.92C12.997 13.0643 13.2604 13.1848 13.5332 13.28V13.3333Z" fill="#669DF6"/>
<path fill-rule="evenodd" clip-rule="evenodd" d="M20.3999 17.96C20.3999 17.96 24.0799 19.4933 24.6932 19.84L20.8799 17.6533C20.7076 17.7348 20.5463 17.8379 20.3999 17.96Z" fill="#669DF6"/>
</svg>
