<svg width="32" height="32" viewBox="0 0 32 32" fill="none" xmlns="http://www.w3.org/2000/svg">
<path d="M3.74658 12.4933L6.91992 6.83997H10.9999V9.3333H8.34658L6.58658 12.4533L7.66658 14.2666L5.54658 15.5066L3.74658 12.4933Z" fill="#4285F4"/>
<path d="M19.3333 17.4266L22.6666 15.5066L25.9999 17.4266V21.2799L22.6666 23.1999L19.3333 21.2799V17.4266Z" fill="#AECBFA"/>
<path d="M6 17.4266L9.33333 15.5066L12.6667 17.4266V21.2799L9.33333 23.1999L6 21.2799V17.4266Z" fill="#AECBFA"/>
<path d="M12.6665 6.11995L15.9998 4.19995L19.3332 6.11995V9.95995L15.9998 11.8933L12.6665 9.95995V6.11995Z" fill="#AECBFA"/>
<path d="M22.6665 15.5066L25.9998 17.4266V21.2799L22.6665 23.1999V15.5066Z" fill="#4285F4"/>
<path d="M9.33325 15.5066L12.6666 17.4266V21.2799L9.33325 23.1999V15.5066Z" fill="#4285F4"/>
<path d="M16 4.19995L19.3333 6.11995V9.95995L16 11.8933V4.19995Z" fill="#4285F4"/>
<path d="M24.3333 14.2666L25.4133 12.4666L23.6533 9.3333H21V6.83997H25.08L28.2533 12.4933L26.4533 15.5066L24.3333 14.2666Z" fill="#4285F4"/>
<path d="M12.8132 27.6666L10.8398 24.3866L12.9732 23.1466L14.2132 25.1733H17.7465L18.9998 23.1466L21.1332 24.3733L19.1465 27.6666H12.8132Z" fill="#4285F4"/>
</svg>
