<svg width="32" height="32" viewBox="0 0 32 32" fill="none" xmlns="http://www.w3.org/2000/svg">
<path fill-rule="evenodd" clip-rule="evenodd" d="M19.6148 11.7934C19.6957 11.7934 19.7643 11.8496 19.7885 11.9275L19.7978 11.9895V13.0679C19.7978 13.1545 19.7454 13.228 19.6726 13.254L19.6148 13.264H18.8826V15.1962C18.8826 15.2524 18.8919 15.3081 18.9097 15.3606L18.9429 15.4367L23.8797 24.5311C24.0172 24.7862 24.0368 25.0921 23.9386 25.3617L23.8797 25.4931L22.0889 28.8523C21.9514 29.1074 21.7139 29.2786 21.4469 29.3223L21.3112 29.3333H10.6888C10.4137 29.3333 10.1567 29.1986 9.98782 28.9727L9.91107 28.8523L8.12032 25.4931C7.98281 25.2379 7.96317 24.9321 8.06139 24.6625L8.12032 24.5311L13.0441 15.4367C13.0704 15.3879 13.0941 15.3348 13.107 15.2798L13.1173 15.1962V13.264H12.3851C12.3043 13.264 12.2357 13.2078 12.2115 13.1299L12.2021 13.0679V11.9895C12.2021 11.9028 12.2546 11.8293 12.3273 11.8034L12.3851 11.7934H19.6148ZM17.5099 13.264H14.49V15.496C14.49 15.6227 14.4667 15.7476 14.4218 15.8639L14.3697 15.977L9.64961 24.7879C9.58548 24.9069 9.57265 25.048 9.61118 25.176L9.6497 25.2689L10.8702 27.5334C10.9344 27.6524 11.0421 27.7349 11.1647 27.7631L11.2591 27.7739L12.7627 27.7733L11.4337 25.3056C11.3696 25.1865 11.3567 25.0454 11.3952 24.9175L11.4337 24.8246L12.5917 22.6758L21.2173 22.6746L20.532 21.396L17.3405 21.3963L16.8214 20.4331L20.016 20.432L19.056 18.6386L15.8327 18.6389L15.3136 17.6758L18.5387 17.6746L17.6303 15.977C17.5712 15.8673 17.533 15.7466 17.5177 15.6218L17.5099 15.496V13.264ZM21.796 23.7533L18.6081 23.7542L19.1272 24.7346L22.3213 24.7333L21.796 23.7533ZM14.1741 7.697C14.6701 7.697 15.0721 8.12779 15.0721 8.65907C15.0721 9.19035 14.6701 9.62103 14.1741 9.62103C13.6782 9.62103 13.2762 9.19035 13.2762 8.65907C13.2762 8.12779 13.6782 7.697 14.1741 7.697ZM17.5621 5.63284C18.3061 5.63284 18.9091 6.27882 18.9091 7.07579C18.9091 7.87265 18.3061 8.51873 17.5621 8.51873C16.8182 8.51873 16.2152 7.87265 16.2152 7.07579C16.2152 6.27882 16.8182 5.63284 17.5621 5.63284ZM15.521 2.66663C16.0169 2.66663 16.419 3.09741 16.419 3.62869C16.419 4.15997 16.0169 4.59066 15.521 4.59066C15.0252 4.59066 14.6231 4.15997 14.6231 3.62869C14.6231 3.09741 15.0252 2.66663 15.521 2.66663Z" fill="#4285F4"/>
</svg>
