<svg width="32" height="32" viewBox="0 0 32 32" fill="none" xmlns="http://www.w3.org/2000/svg">
<path d="M9.33329 7.99996L10.6666 6.66663H2.66663L3.99996 7.99996H9.33329Z" fill="#AECBFA"/>
<path d="M9.33325 7.99996V13.3333L10.6666 14.6666V6.66663L9.33325 7.99996Z" fill="#669DF6"/>
<path d="M3.99996 7.99996L2.66663 6.66663V14.6666L3.99996 13.3333V7.99996Z" fill="#AECBFA"/>
<path d="M3.99996 13.3333L2.66663 14.6666H10.6666L9.33329 13.3333H3.99996Z" fill="#4285F4"/>
<path d="M9.33333 8H4V13.3333H9.33333V8Z" fill="#AECBFA"/>
<path d="M18.6667 7.99996L20 6.66663H12L13.3333 7.99996H18.6667Z" fill="#4285F4"/>
<path d="M18.6666 7.99996V13.3333L20 14.6666V6.66663L18.6666 7.99996Z" fill="#AECBFA"/>
<path d="M13.3333 7.99996L12 6.66663V14.6666L13.3333 13.3333V7.99996Z" fill="#4285F4"/>
<path d="M13.3333 13.3333L12 14.6666H20L18.6667 13.3333H13.3333Z" fill="#AECBFA"/>
<path d="M18.6666 8H13.3333V13.3333H18.6666V8Z" fill="white"/>
<path d="M27.9999 7.99996L29.3333 6.66663H21.3333L22.6666 7.99996H27.9999Z" fill="#4285F4"/>
<path d="M28 7.99996V13.3333L29.3333 14.6666V6.66663L28 7.99996Z" fill="#AECBFA"/>
<path d="M22.6666 7.99996L21.3333 6.66663V14.6666L22.6666 13.3333V7.99996Z" fill="#4285F4"/>
<path d="M22.6666 13.3333L21.3333 14.6666H29.3333L27.9999 13.3333H22.6666Z" fill="#AECBFA"/>
<path d="M28 8H22.6666V13.3333H28V8Z" fill="white"/>
<path d="M9.33329 18.6666L10.6666 17.3333H2.66663L3.99996 18.6666H9.33329Z" fill="#4285F4"/>
<path d="M9.33325 18.6666V23.9999L10.6666 25.3333V17.3333L9.33325 18.6666Z" fill="#AECBFA"/>
<path d="M3.99996 18.6666L2.66663 17.3333V25.3333L3.99996 23.9999V18.6666Z" fill="#4285F4"/>
<path d="M3.99996 24L2.66663 25.3333H10.6666L9.33329 24H3.99996Z" fill="#AECBFA"/>
<path d="M9.33333 18.6666H4V24H9.33333V18.6666Z" fill="white"/>
<path d="M18.6667 18.6666L20 17.3333H12L13.3333 18.6666H18.6667Z" fill="#AECBFA"/>
<path d="M18.6666 18.6666V23.9999L20 25.3333V17.3333L18.6666 18.6666Z" fill="#669DF6"/>
<path d="M13.3333 18.6666L12 17.3333V25.3333L13.3333 23.9999V18.6666Z" fill="#AECBFA"/>
<path d="M13.3333 24L12 25.3333H20L18.6667 24H13.3333Z" fill="#4285F4"/>
<path d="M18.6666 18.6666H13.3333V24H18.6666V18.6666Z" fill="#AECBFA"/>
<path d="M27.9999 18.6666L29.3333 17.3333H21.3333L22.6666 18.6666H27.9999Z" fill="#AECBFA"/>
<path d="M28 18.6666V23.9999L29.3333 25.3333V17.3333L28 18.6666Z" fill="#669DF6"/>
<path d="M22.6666 18.6666L21.3333 17.3333V25.3333L22.6666 23.9999V18.6666Z" fill="#AECBFA"/>
<path d="M22.6666 24L21.3333 25.3333H29.3333L27.9999 24H22.6666Z" fill="#4285F4"/>
<path d="M28 18.6666H22.6666V24H28V18.6666Z" fill="#AECBFA"/>
</svg>
