<svg width="32" height="32" viewBox="0 0 32 32" fill="none" xmlns="http://www.w3.org/2000/svg">
<path d="M26 21.56H16.32C15.8574 21.5214 15.3918 21.5788 14.9524 21.7284C14.5129 21.8781 14.1091 22.1168 13.7662 22.4297C13.4233 22.7426 13.1486 23.1229 12.9594 23.5468C12.7702 23.9707 12.6706 24.4291 12.6667 24.8933C12.6645 25.3593 12.7601 25.8206 12.9473 26.2474C13.1344 26.6742 13.409 27.057 13.7532 27.3711C14.0975 27.6852 14.5038 27.9237 14.9459 28.071C15.388 28.2184 15.8561 28.2714 16.32 28.2267H26V21.56Z" fill="#669DF6"/>
<path d="M26 28.2266C27.8409 28.2266 29.3333 26.7342 29.3333 24.8933C29.3333 23.0523 27.8409 21.5599 26 21.5599C24.159 21.5599 22.6666 23.0523 22.6666 24.8933C22.6666 26.7342 24.159 28.2266 26 28.2266Z" fill="#4285F4"/>
<path d="M16 12.6667H6.31999C5.85738 12.6281 5.3918 12.6855 4.95237 12.8351C4.51294 12.9848 4.10913 13.2235 3.7662 13.5364C3.42328 13.8493 3.14863 14.2296 2.95943 14.6535C2.77023 15.0774 2.67056 15.5358 2.66666 16C2.66451 16.466 2.7601 16.9273 2.94726 17.3541C3.13442 17.7809 3.40899 18.1637 3.75325 18.4778C4.09751 18.7919 4.50381 19.0303 4.94592 19.1777C5.38803 19.3251 5.85612 19.3781 6.31999 19.3333H16V12.6667Z" fill="#669DF6"/>
<path d="M16 19.3333C17.8409 19.3333 19.3333 17.8409 19.3333 16C19.3333 14.159 17.8409 12.6666 16 12.6666C14.159 12.6666 12.6666 14.159 12.6666 16C12.6666 17.8409 14.159 19.3333 16 19.3333Z" fill="#4285F4"/>
<path d="M26 3.77335H16.32C15.8578 3.73681 15.393 3.79556 14.9545 3.94595C14.5159 4.09635 14.1129 4.33519 13.7704 4.64769C13.4279 4.96019 13.1532 5.33968 12.9634 5.76265C12.7735 6.18563 12.6725 6.64309 12.6667 7.10669C12.6645 7.57271 12.7601 8.034 12.9473 8.46079C13.1344 8.88757 13.409 9.27038 13.7532 9.58448C14.0975 9.89859 14.5038 10.137 14.9459 10.2844C15.388 10.4317 15.8561 10.4848 16.32 10.44H26V3.77335Z" fill="#669DF6"/>
<path d="M26 10.44C27.8409 10.44 29.3333 8.9476 29.3333 7.10665C29.3333 5.2657 27.8409 3.77332 26 3.77332C24.159 3.77332 22.6666 5.2657 22.6666 7.10665C22.6666 8.9476 24.159 10.44 26 10.44Z" fill="#4285F4"/>
</svg>
