<svg width="32" height="32" viewBox="0 0 32 32" fill="none" xmlns="http://www.w3.org/2000/svg">
<path fill-rule="evenodd" clip-rule="evenodd" d="M13.9734 14.6667C14.2134 14.6667 14.4479 14.7378 14.6475 14.8712C14.847 15.0045 15.0025 15.194 15.0944 15.4157C15.1862 15.6374 15.2102 15.8814 15.1634 16.1167C15.1166 16.3521 15.001 16.5683 14.8313 16.738C14.6617 16.9077 14.4455 17.0232 14.2101 17.07C13.9747 17.1169 13.7308 17.0928 13.5091 17.001C13.2874 16.9092 13.0979 16.7536 12.9645 16.5541C12.8312 16.3546 12.7601 16.12 12.7601 15.88C12.7601 15.5582 12.8879 15.2496 13.1154 15.0221C13.343 14.7945 13.6516 14.6667 13.9734 14.6667ZM13.9734 13.6C13.5219 13.5974 13.0798 13.7288 12.7031 13.9778C12.3264 14.2267 12.0321 14.5818 11.8575 14.9982C11.6828 15.4146 11.6358 15.8734 11.7223 16.3166C11.8087 16.7597 12.0248 17.1672 12.3431 17.4874C12.6615 17.8076 13.0677 18.0261 13.5103 18.1152C13.953 18.2042 14.4121 18.1599 14.8295 17.9877C15.2469 17.8155 15.6037 17.5233 15.8549 17.1481C16.106 16.7729 16.24 16.3315 16.2401 15.88C16.2418 15.5812 16.1845 15.285 16.0714 15.0085C15.9582 14.732 15.7916 14.4805 15.5809 14.2686C15.3702 14.0567 15.1198 13.8886 14.8439 13.7738C14.568 13.6591 14.2722 13.6 13.9734 13.6Z" fill="#669DF6"/>
<path fill-rule="evenodd" clip-rule="evenodd" d="M6.09338 14.6667C6.33336 14.6667 6.56794 14.7378 6.76747 14.8712C6.96701 15.0045 7.12252 15.194 7.21436 15.4157C7.30619 15.6374 7.33022 15.8814 7.2834 16.1167C7.23659 16.3521 7.12103 16.5683 6.95134 16.738C6.78165 16.9077 6.56546 17.0232 6.33009 17.07C6.09473 17.1169 5.85077 17.0928 5.62906 17.001C5.40735 16.9092 5.21786 16.7536 5.08453 16.5541C4.95121 16.3546 4.88005 16.12 4.88005 15.88C4.88005 15.5582 5.00788 15.2496 5.23543 15.0221C5.46297 14.7945 5.77159 14.6667 6.09338 14.6667ZM6.09338 13.6C5.64188 13.5974 5.19976 13.7288 4.82307 13.9778C4.44638 14.2267 4.15207 14.5818 3.97746 14.9982C3.80284 15.4146 3.75578 15.8734 3.84225 16.3166C3.92871 16.7597 4.1448 17.1672 4.46313 17.4874C4.78145 17.8076 5.18768 18.0261 5.63032 18.1152C6.07295 18.2042 6.53207 18.1599 6.94946 17.9877C7.36685 17.8155 7.72373 17.5233 7.97486 17.1481C8.22598 16.7729 8.36004 16.3315 8.36005 15.88C8.36181 15.5812 8.30448 15.285 8.19135 15.0085C8.07823 14.732 7.91155 14.4805 7.70089 14.2686C7.49024 14.0567 7.23977 13.8886 6.96389 13.7738C6.68801 13.6591 6.39217 13.6 6.09338 13.6Z" fill="#669DF6"/>
<path fill-rule="evenodd" clip-rule="evenodd" d="M10.1467 21.7466C10.4685 21.7466 10.7771 21.8744 11.0047 22.102C11.2322 22.3295 11.36 22.6381 11.36 22.9599C11.36 23.2817 11.2322 23.5903 11.0047 23.8179C10.7771 24.0454 10.4685 24.1733 10.1467 24.1733C9.8249 24.1733 9.51628 24.0454 9.28874 23.8179C9.06119 23.5903 8.93336 23.2817 8.93336 22.9599C8.93336 22.6381 9.06119 22.3295 9.28874 22.102C9.51628 21.8744 9.8249 21.7466 10.1467 21.7466ZM10.1467 20.6933C9.61867 20.6907 9.10612 20.8715 8.69655 21.2048C8.28698 21.538 8.00578 22.0031 7.90097 22.5207C7.79615 23.0382 7.87421 23.576 8.12183 24.0424C8.36944 24.5088 8.77126 24.8748 9.25867 25.0779C9.74609 25.2809 10.2889 25.3086 10.7944 25.156C11.2999 25.0034 11.7368 24.6801 12.0305 24.2413C12.3241 23.8024 12.4564 23.2753 12.4046 22.7498C12.3529 22.2243 12.1203 21.7331 11.7467 21.3599C11.3227 20.9345 10.7473 20.6947 10.1467 20.6933Z" fill="#669DF6"/>
<path fill-rule="evenodd" clip-rule="evenodd" d="M10.1467 7.72001C10.3848 7.72787 10.6153 7.80565 10.8095 7.94366C11.0037 8.08166 11.153 8.27379 11.2387 8.49607C11.3245 8.71836 11.3429 8.96096 11.2916 9.19363C11.2404 9.4263 11.1218 9.63873 10.9506 9.80444C10.7795 9.97015 10.5633 10.0818 10.3291 10.1255C10.0949 10.1691 9.85299 10.1429 9.6336 10.05C9.41422 9.9571 9.22703 9.80167 9.09539 9.6031C8.96376 9.40452 8.89349 9.17159 8.89336 8.93335C8.89509 8.77112 8.92898 8.61084 8.99307 8.46179C9.05716 8.31275 9.15019 8.1779 9.26675 8.06506C9.38332 7.95221 9.52111 7.86361 9.67216 7.80438C9.8232 7.74515 9.98449 7.71648 10.1467 7.72001ZM10.1467 6.65335C9.61867 6.65078 9.10612 6.83156 8.69655 7.16483C8.28698 7.49811 8.00578 7.96321 7.90097 8.48073C7.79615 8.99826 7.87421 9.53612 8.12183 10.0025C8.36944 10.4689 8.77126 10.8348 9.25867 11.0379C9.74609 11.241 10.2889 11.2686 10.7944 11.1161C11.2999 10.9635 11.7368 10.6402 12.0305 10.2014C12.3241 9.76252 12.4564 9.23536 12.4046 8.70986C12.3529 8.18437 12.1203 7.69313 11.7467 7.32001C11.3206 6.89948 10.7454 6.66461 10.1467 6.66668V6.65335Z" fill="#669DF6"/>
<path d="M16.4534 2.66663H14.2134V29.3333H16.4534V2.66663Z" fill="#4285F4"/>
<path fill-rule="evenodd" clip-rule="evenodd" d="M21.6667 6.49329H15.6534C15.5321 6.51604 15.4237 6.58343 15.3496 6.68216C15.2756 6.7809 15.2412 6.9038 15.2534 7.02662V10.7866C15.2416 10.9079 15.2764 11.0291 15.3507 11.1256C15.4249 11.2222 15.5332 11.2869 15.6534 11.3066H21.6667C21.7893 11.29 21.9008 11.2266 21.9778 11.1297C22.0549 11.0328 22.0915 10.9099 22.08 10.7866V7.03995C22.0954 6.91303 22.0609 6.78511 21.9838 6.68313C21.9067 6.58115 21.793 6.51309 21.6667 6.49329Z" fill="#4285F4"/>
<path fill-rule="evenodd" clip-rule="evenodd" d="M27.4267 13.5466H16.3333C15.92 13.5466 15.5867 13.7866 15.5867 14.0666V17.8266C15.5867 18.12 15.92 18.36 16.3333 18.36H27.4267C27.84 18.36 28.1733 18.1066 28.1733 17.8266V14.0666C28.1733 13.7733 27.84 13.5466 27.4267 13.5466Z" fill="#4285F4"/>
<path fill-rule="evenodd" clip-rule="evenodd" d="M19.5467 20.5867H14.84C14.6667 20.5867 14.5333 20.8267 14.5333 21.1067V24.8667C14.5333 25.16 14.6667 25.3867 14.84 25.3867H19.5467C19.72 25.3867 19.8667 25.1467 19.8667 24.8667V21.1067C19.8533 20.8133 19.72 20.5867 19.5467 20.5867Z" fill="#4285F4"/>
</svg>
