<svg width="32" height="32" viewBox="0 0 32 32" fill="none" xmlns="http://www.w3.org/2000/svg">
<path d="M6.25333 10.2666L12.5067 6.65328V3.02661L3 8.50661L3.52 9.14661L5.68 10.3199L6.25333 10.2666Z" fill="#4285F4"/>
<path fill-rule="evenodd" clip-rule="evenodd" d="M12.5067 23.1467L3 17.6667V14.2134L12.5067 19.7067V23.1467ZM12.5067 25.5067L3 20V23.4667L12.5067 28.96V25.5067ZM12.5067 13.8934L6.25333 10.2667L3 8.50671V11.84L12.5067 17.3334" fill="#AECBFA"/>
<path fill-rule="evenodd" clip-rule="evenodd" d="M12.5066 28.9733L21.8399 23.6399V20.1333L12.5066 25.4666M12.5066 19.6666L21.8399 14.3333H24.6132V17.4399H22.3732L12.5066 23.1599V19.6666ZM12.5066 17.3066L22.3866 11.5999H25.6399V13.4133L28.9866 10.0666L25.6399 6.73328V8.49328H21.8132L20.1732 9.45328L18.7599 10.2666L15.1332 12.3599L12.4666 13.8933L12.5066 17.3066Z" fill="#669DF6"/>
<path fill-rule="evenodd" clip-rule="evenodd" d="M12.5066 6.65328L16.7199 9.09328L19.8666 7.27994L12.5066 3.02661V6.65328Z" fill="#669DF6"/>
</svg>
