<svg width="32" height="32" viewBox="0 0 32 32" fill="none" xmlns="http://www.w3.org/2000/svg">
<path d="M22.388 8.5C22.685 8.50247 22.9688 8.62261 23.1773 8.83408C23.3857 9.04554 23.5018 9.33106 23.5 9.628V23.52C23.5104 23.6531 23.4915 23.7868 23.4446 23.9118C23.3978 24.0368 23.3241 24.1499 23.2287 24.2434C23.1334 24.3368 23.0187 24.4082 22.8928 24.4525C22.7669 24.4969 22.6329 24.5131 22.5 24.5H6.25069L3.00002 27.7493V9.628C2.99824 9.33106 3.11432 9.04554 3.32279 8.83408C3.53125 8.62261 3.81509 8.50247 4.11202 8.5H22.388Z" fill="#4285F4"/>
<path d="M20.2507 15.2506H16.5V21.7506H20.2507V15.2506Z" fill="#669DF6"/>
<path d="M15.2507 11.5H11.5V21.7507H15.2507V11.5Z" fill="#AECBFA"/>
<path d="M10.2507 13.5H6.5V21.7507H10.2507V13.5Z" fill="white"/>
<path d="M27.888 4.25061C28.1745 4.25235 28.4495 4.36396 28.6561 4.56242C28.8628 4.76088 28.9854 5.03107 28.9987 5.31728V23.4999L25.9987 20.4999H24.9987V8.09994C24.998 7.80914 24.8819 7.53052 24.6759 7.32526C24.4699 7.12001 24.1908 7.00492 23.9 7.00528H8.50002V5.37728C8.4983 5.08819 8.6083 4.80962 8.80705 4.59969C9.00579 4.38976 9.27794 4.2647 9.56669 4.25061H27.888Z" fill="#669DF6"/>
</svg>
