<svg width="32" height="32" viewBox="0 0 32 32" fill="none" xmlns="http://www.w3.org/2000/svg">
<path d="M28.9866 17.1867L23.4933 22.6934L22.08 21.2667L25.1733 18.1867H15.0133V16.1867H25.1733L22.08 13.0934L23.4933 11.6801L28.9866 17.1867Z" fill="#4285F4"/>
<path d="M15.6934 6.34668L16.0934 6.74668V8.00001L15.6934 8.40001C14.3137 8.46344 12.9938 8.98183 11.9398 9.87428C10.8857 10.7667 10.1568 11.983 9.86669 13.3333L9.69336 14.0133L9.00003 14.08C7.95885 14.1404 6.97613 14.5812 6.23867 15.3187C5.50121 16.0561 5.0604 17.0388 5.00003 18.08C4.98681 18.262 4.98681 18.4447 5.00003 18.6267L3.36003 20C3.11479 19.3709 2.98821 18.7019 2.98669 18.0267C3.03815 16.6107 3.5772 15.2561 4.51262 14.1919C5.44804 13.1277 6.72239 12.4193 8.12003 12.1867C8.6074 10.5402 9.60174 9.08947 10.9615 8.04093C12.3212 6.99239 13.9771 6.39951 15.6934 6.34668Z" fill="#AECBFA"/>
<path d="M18.6801 23.2667H8.50672L11.6001 26.36L10.1867 27.7733L4.68005 22.2667L10.1867 16.76L11.6001 18.1867L8.50672 21.2667H18.6801V23.2667Z" fill="#4285F4"/>
<path d="M22.1734 9.98668L20.7067 11.32C20.2042 10.425 19.4782 9.67558 18.5994 9.14508C17.7207 8.61458 16.7194 8.32111 15.6934 8.29335V6.34668C16.9903 6.36999 18.2612 6.71473 19.3921 7.35001C20.523 7.98528 21.4787 8.89124 22.1734 9.98668Z" fill="#669DF6"/>
</svg>
