<svg width="32" height="32" viewBox="0 0 32 32" fill="none" xmlns="http://www.w3.org/2000/svg">
<path d="M23.9199 5.15991H12.8666V7.65325H23.9199V5.15991Z" fill="#4285F4"/>
<path d="M17.12 15.1333H6.06665V17.6266H17.12V15.1333Z" fill="#4285F4"/>
<path d="M23.9199 24.2799H12.8666V26.7732H23.9199V24.2799Z" fill="#4285F4"/>
<path fill-rule="evenodd" clip-rule="evenodd" d="M8.75996 17.84L13.0933 25.1866L10.88 26.4266L6.54663 19.08L8.75996 17.84Z" fill="#4285F4"/>
<path fill-rule="evenodd" clip-rule="evenodd" d="M9.06659 14.5466L13.3999 7.19991L11.2533 5.98657L6.91992 13.3332L9.06659 14.5466Z" fill="#4285F4"/>
<path fill-rule="evenodd" clip-rule="evenodd" d="M9.97334 10.2133L7.76001 6.46663L9.97334 2.66663H14.3867L16.5867 6.46663L14.3867 10.2133H9.97334Z" fill="#AECBFA"/>
<path fill-rule="evenodd" clip-rule="evenodd" d="M17.6133 20.1867L15.4133 16.4533L17.6133 12.64H22.0267L24.24 16.4533L22.0267 20.1867H17.6133Z" fill="#AECBFA"/>
<path fill-rule="evenodd" clip-rule="evenodd" d="M4.86663 20.1867L2.66663 16.4533L4.86663 12.64H9.27996L11.48 16.4533L9.27996 20.1867H4.86663Z" fill="#AECBFA"/>
<path fill-rule="evenodd" clip-rule="evenodd" d="M22.72 10.2133L20.52 6.46663L22.72 2.66663H27.1334L29.3334 6.46663L27.1334 10.2133H22.72Z" fill="#AECBFA"/>
<path fill-rule="evenodd" clip-rule="evenodd" d="M22.72 29.3333L20.52 25.5866L22.72 21.7866H27.1334L29.3334 25.5866L27.1334 29.3333H22.72Z" fill="#AECBFA"/>
<path fill-rule="evenodd" clip-rule="evenodd" d="M9.97334 29.3333L7.76001 25.5866L9.97334 21.7866H14.3867L16.5867 25.5866L14.3867 29.3333H9.97334Z" fill="#AECBFA"/>
</svg>
