<svg width="32" height="32" viewBox="0 0 32 32" fill="none" xmlns="http://www.w3.org/2000/svg">
<g clip-path="url(#clip0_845_19404)">
<path d="M4.9495 8.15C6.16425 8.15 7.149 7.16503 7.149 5.95C7.149 4.73497 6.16425 3.75 4.9495 3.75C3.73475 3.75 2.75 4.73497 2.75 5.95C2.75 7.16503 3.73475 8.15 4.9495 8.15Z" fill="#185ABC"/>
<path d="M4.9495 18.123C6.16425 18.123 7.149 17.138 7.149 15.923C7.149 14.708 6.16425 13.723 4.9495 13.723C3.73475 13.723 2.75 14.708 2.75 15.923C2.75 17.138 3.73475 18.123 4.9495 18.123Z" fill="#185ABC"/>
<path d="M4.9495 28.096C6.16425 28.096 7.149 27.1111 7.149 25.896C7.149 24.681 6.16425 23.696 4.9495 23.696C3.73475 23.696 2.75 24.681 2.75 25.896C2.75 27.1111 3.73475 28.096 4.9495 28.096Z" fill="#185ABC"/>
<path d="M26.3423 18.6742C27.8611 18.6742 29.0923 17.443 29.0923 15.9242C29.0923 14.4054 27.8611 13.1742 26.3423 13.1742C24.8235 13.1742 23.5923 14.4054 23.5923 15.9242C23.5923 17.443 24.8235 18.6742 26.3423 18.6742Z" fill="#185ABC"/>
<path d="M9.26904 17.2436H13.9198C14.1031 16.9258 14.3021 16.6175 14.516 16.32L14.7943 15.9184C14.5028 15.5168 14.2245 15.1018 13.9463 14.5797H9.26904C9.37034 14.924 9.43258 15.2788 9.45454 15.6373V16.1995C9.43369 16.5537 9.37143 16.9042 9.26904 17.2436Z" fill="#669DF6"/>
<path d="M18.0008 11.8757L17.696 11.3268L17.325 10.711L16.742 9.54639C15.0725 6.19974 13.35 4.66028 9.87854 4.66028H9.26904C9.39423 5.09517 9.45671 5.54603 9.45454 5.99894C9.45708 6.45187 9.3946 6.90278 9.26904 7.3376H9.87854C12.025 7.3376 12.9658 8.02031 14.2643 10.3897L14.5823 10.9654L14.9003 11.6079C16.8215 15.49 18.2128 16.9626 21.4325 17.2838C21.3273 16.8455 21.274 16.3962 21.2735 15.9452C21.275 15.4925 21.3374 15.0422 21.459 14.6065H21.5385C19.975 14.4593 19.074 13.7766 18.0008 11.8757Z" fill="#185ABC"/>
<path d="M15.5628 19.0643L15.2448 19.6667L14.7413 20.6841L14.4233 21.2865L14.1185 21.8353C12.8995 23.9906 11.9455 24.6197 9.87854 24.6197H9.26904C9.37259 24.9635 9.43487 25.3185 9.45454 25.6773V26.1726C9.43375 26.5312 9.37149 26.8861 9.26904 27.2301H10.223C13.4163 27.1364 15.1388 25.5836 16.848 22.3574L17.5635 20.925L17.8418 20.4029L18.0803 19.9612C18.2721 19.6268 18.4845 19.3049 18.7163 18.9974C17.8942 18.6868 17.1319 18.2338 16.4638 17.6587C16.1263 18.1018 15.825 18.5719 15.5628 19.0643Z" fill="#669DF6"/>
</g>
<defs>
<clipPath id="clip0_845_19404">
<rect width="32" height="32" fill="white"/>
</clipPath>
</defs>
</svg>
