<svg width="32" height="32" viewBox="0 0 32 32" fill="none" xmlns="http://www.w3.org/2000/svg">
<path d="M19.8132 7.25339C18.3342 6.32531 16.5716 5.95761 14.8448 6.21687C13.1181 6.47613 11.5412 7.34522 10.3999 8.66672C9.22621 9.9877 8.58892 11.6998 8.61323 13.4667C8.61642 14.6591 8.91082 15.8326 9.47083 16.8852C10.0309 17.9379 10.8395 18.8378 11.8266 19.5067L11.5999 19.8801L10.8532 20.0934C9.66657 22.1734 9.22657 22.7601 8.10657 24.7334L10.0799 25.8667C11.2132 23.8667 11.6399 23.2801 12.8132 21.2267L12.5999 20.4134L12.7866 20.0667C14.473 20.8637 16.4 20.9868 18.1741 20.4109C19.9482 19.8351 21.4356 18.6037 22.3325 16.9682C23.2293 15.3328 23.468 13.4166 22.9998 11.6111C22.5316 9.8056 21.3918 8.24692 19.8132 7.25339ZM17.2532 18.3201C16.2888 18.5831 15.268 18.5543 14.32 18.2371C13.3719 17.9199 12.5393 17.3287 11.9274 16.5382C11.3154 15.7477 10.9517 14.7934 10.8822 13.7961C10.8127 12.7989 11.0406 11.8034 11.537 10.9357C12.0333 10.0679 12.7759 9.36693 13.6708 8.92132C14.5657 8.47572 15.5726 8.30555 16.5642 8.43234C17.5558 8.55913 18.4876 8.97718 19.2415 9.63361C19.9955 10.29 20.5378 11.1553 20.7999 12.1201C21.1473 13.4124 20.9694 14.7897 20.3049 15.9513C19.6404 17.1129 18.5434 17.9645 17.2532 18.3201Z" fill="#4285F4"/>
<path d="M2.73329 11.7067L2.90663 10.28H4.47996V10.7467H3.35996V11.3467C3.52861 11.2571 3.72124 11.223 3.91039 11.2494C4.09954 11.2757 4.27554 11.3611 4.41329 11.4934C4.57318 11.693 4.65388 11.9446 4.63996 12.2C4.63969 12.3674 4.59849 12.5322 4.51996 12.68C4.45366 12.8239 4.34097 12.9412 4.19996 13.0134C4.04736 13.1043 3.87049 13.1462 3.69329 13.1334C3.5268 13.1395 3.36153 13.1027 3.21329 13.0267C3.07563 12.9647 2.95625 12.8682 2.86663 12.7467C2.76062 12.6265 2.69122 12.4784 2.66663 12.32H3.22663C3.22686 12.3704 3.23766 12.4202 3.25833 12.4661C3.279 12.512 3.30908 12.5531 3.34663 12.5867C3.38153 12.6208 3.4235 12.6469 3.46958 12.663C3.51566 12.6791 3.56472 12.6849 3.61329 12.68C3.66974 12.6872 3.72708 12.6785 3.77888 12.655C3.83069 12.6314 3.87492 12.5939 3.90663 12.5467C3.98288 12.4331 4.01599 12.2959 3.99996 12.16C4.00471 12.0951 3.99655 12.0298 3.97596 11.968C3.95536 11.9062 3.92274 11.8491 3.87996 11.8C3.83689 11.7556 3.78495 11.7208 3.72751 11.6978C3.67007 11.6748 3.60844 11.6642 3.54663 11.6667C3.43138 11.6676 3.31938 11.705 3.22663 11.7734L2.73329 11.7067Z" fill="#669DF6"/>
<path d="M7.26657 13.0934H6.66657V10.9468L5.98657 11.1468V10.6668L7.15991 10.2534L7.26657 13.0934Z" fill="#AECBFA"/>
<path d="M3.99995 16.8801H3.45329V14.7334L2.78662 14.9334V14.4801L3.99995 14.0668V16.8801Z" fill="#AECBFA"/>
<path d="M7.81325 15.72C7.8289 16.0356 7.74495 16.3481 7.57325 16.6134C7.39129 16.7801 7.15342 16.8727 6.90659 16.8727C6.65975 16.8727 6.42189 16.7801 6.23992 16.6134C6.05725 16.3627 5.96767 16.0563 5.98659 15.7467V15.2267C5.96412 14.9104 6.04865 14.5958 6.22659 14.3334C6.40709 14.1637 6.64551 14.0692 6.89325 14.0692C7.141 14.0692 7.37941 14.1637 7.55992 14.3334C7.7351 14.5876 7.82391 14.8915 7.81325 15.2V15.72ZM7.25325 15.1467C7.25832 14.9817 7.22643 14.8177 7.15992 14.6667C7.12833 14.6145 7.08304 14.572 7.02897 14.5438C6.97489 14.5156 6.91412 14.5028 6.85325 14.5067C6.79568 14.5024 6.73801 14.5138 6.68637 14.5396C6.63473 14.5654 6.59104 14.6047 6.55992 14.6534C6.48957 14.8032 6.4575 14.9681 6.46659 15.1334V15.8134C6.4563 15.9916 6.48828 16.1698 6.55992 16.3334C6.589 16.3878 6.63383 16.4322 6.68854 16.4607C6.74326 16.4893 6.80531 16.5007 6.86659 16.4934C6.92572 16.4979 6.9849 16.4852 7.03696 16.4568C7.08902 16.4284 7.13173 16.3855 7.15992 16.3334C7.23138 16.1792 7.26345 16.0097 7.25325 15.84V15.1467Z" fill="#669DF6"/>
<path d="M25.5066 12.9867H24.9599V10.8267L24.2799 11.04V10.5867L25.4532 10.16L25.5066 12.9867Z" fill="#AECBFA"/>
<path d="M27.4933 11.6L27.6666 10.1733H29.24V10.6667H28.12L28 11.24C28.1267 11.1705 28.2688 11.1339 28.4133 11.1333C28.5318 11.128 28.6501 11.1478 28.7604 11.1914C28.8707 11.2351 28.9706 11.3016 29.0533 11.3867C29.2146 11.5803 29.2957 11.8284 29.28 12.08C29.2797 12.2517 29.2386 12.4208 29.16 12.5733C29.0848 12.7154 28.9687 12.8316 28.8266 12.9067C28.6704 12.9884 28.4962 13.0297 28.32 13.0267C28.1586 13.0248 27.9995 12.9884 27.8533 12.92C27.7126 12.8565 27.5925 12.7549 27.5066 12.6267C27.4211 12.5007 27.3748 12.3523 27.3733 12.2H28C28.0112 12.3058 28.0582 12.4046 28.1333 12.48C28.2072 12.5436 28.3025 12.577 28.4 12.5733C28.456 12.5765 28.512 12.566 28.5631 12.5428C28.6141 12.5196 28.6588 12.4843 28.6933 12.44C28.777 12.3097 28.8058 12.1515 28.7733 12C28.7808 11.865 28.7381 11.732 28.6533 11.6267C28.6086 11.5853 28.5561 11.5534 28.4988 11.5328C28.4416 11.5121 28.3807 11.5033 28.32 11.5067C28.2053 11.496 28.0909 11.5294 28 11.6H27.4933Z" fill="#669DF6"/>
<path d="M26.0532 15.72C26.0689 16.0356 25.9849 16.3481 25.8132 16.6134C25.6313 16.7801 25.3934 16.8727 25.1466 16.8727C24.8997 16.8727 24.6619 16.7801 24.4799 16.6134C24.2972 16.3627 24.2077 16.0563 24.2266 15.7467V15.2267C24.2041 14.9104 24.2886 14.5958 24.4666 14.3334C24.6471 14.1637 24.8855 14.0692 25.1332 14.0692C25.381 14.0692 25.6194 14.1637 25.7999 14.3334C25.9751 14.5876 26.0639 14.8915 26.0532 15.2V15.72ZM25.4932 15.1467C25.5024 14.9728 25.4704 14.7992 25.3999 14.64C25.3683 14.5879 25.323 14.5454 25.269 14.5171C25.2149 14.4889 25.1541 14.4761 25.0932 14.48C25.0357 14.4757 24.978 14.4871 24.9264 14.5129C24.8747 14.5388 24.831 14.5781 24.7999 14.6267C24.7296 14.7765 24.6975 14.9414 24.7066 15.1067V15.7867C24.6963 15.965 24.7283 16.1431 24.7999 16.3067C24.829 16.3611 24.8738 16.4055 24.9285 16.4341C24.9832 16.4626 25.0453 16.474 25.1066 16.4667C25.1657 16.4713 25.2249 16.4586 25.2769 16.4302C25.329 16.4018 25.3717 16.3589 25.3999 16.3067C25.4655 16.1507 25.4973 15.9826 25.4932 15.8134V15.1467Z" fill="#669DF6"/>
<path d="M27.4933 15.4934L27.6666 14.0668H29.24V14.5334H28.12L28.0533 15.1334C28.18 15.064 28.3221 15.0273 28.4666 15.0268C28.5852 15.0214 28.7035 15.0412 28.8138 15.0849C28.9241 15.1285 29.0239 15.1951 29.1066 15.2801C29.2697 15.4832 29.3506 15.7402 29.3333 16.0001C29.333 16.1675 29.2918 16.3323 29.2133 16.4801C29.1455 16.6274 29.0273 16.7456 28.88 16.8134C28.7262 16.9014 28.5502 16.9431 28.3733 16.9334C28.2112 16.9379 28.0507 16.9012 27.9066 16.8268C27.7665 16.7688 27.6461 16.6716 27.56 16.5468C27.4778 16.4192 27.4317 16.2718 27.4266 16.1201H28C28.0109 16.2221 28.0582 16.3168 28.1333 16.3868C28.1682 16.4209 28.2102 16.447 28.2563 16.4631C28.3023 16.4792 28.3514 16.485 28.4 16.4801C28.4564 16.4873 28.5138 16.4786 28.5656 16.4551C28.6174 16.4315 28.6616 16.394 28.6933 16.3468C28.7743 16.2349 28.8121 16.0976 28.8 15.9601C28.8047 15.8951 28.7966 15.8299 28.776 15.7681C28.7554 15.7063 28.7227 15.6492 28.68 15.6001C28.638 15.5542 28.5862 15.5184 28.5285 15.4954C28.4708 15.4723 28.4086 15.4625 28.3466 15.4668C28.2304 15.4612 28.1163 15.4992 28.0266 15.5734L27.4933 15.4934Z" fill="#AECBFA"/>
<path d="M12.9733 16.1468C12.9733 15.7201 12.9733 15.3068 12.9733 14.8935C12.9875 14.7303 13.0365 14.5721 13.117 14.4296C13.1975 14.287 13.3076 14.1633 13.4399 14.0668C13.7682 13.8059 14.1441 13.6111 14.5466 13.4935C15.0789 13.3152 15.6439 13.2563 16.2015 13.3208C16.7591 13.3853 17.2957 13.5717 17.7733 13.8668C17.9068 13.9358 18.0284 14.0258 18.1333 14.1335C18.2732 14.2574 18.3823 14.4124 18.4518 14.5861C18.5212 14.7597 18.5491 14.9471 18.5333 15.1335C18.5333 15.4668 18.5333 15.8001 18.5333 16.1468H12.9733Z" fill="#669DF6"/>
<path d="M15.7466 12.6667C15.4612 12.6667 15.1823 12.5819 14.9452 12.4231C14.7081 12.2643 14.5236 12.0386 14.415 11.7747C14.3064 11.5108 14.2787 11.2206 14.3353 10.9409C14.392 10.6612 14.5304 10.4046 14.7332 10.2038C14.9359 10.0029 15.1937 9.86685 15.4739 9.81281C15.7541 9.75876 16.0441 9.78918 16.3069 9.90022C16.5698 10.0113 16.7938 10.1979 16.9504 10.4365C17.107 10.675 17.1892 10.9547 17.1866 11.2401C17.1796 11.6186 17.0253 11.9795 16.7564 12.2459C16.4874 12.5123 16.1251 12.6633 15.7466 12.6667Z" fill="#669DF6"/>
</svg>
