<svg width="32" height="32" viewBox="0 0 32 32" fill="none" xmlns="http://www.w3.org/2000/svg">
<g clip-path="url(#clip0_845_19324)">
<path fill-rule="evenodd" clip-rule="evenodd" d="M7.45112 14.4563V20.432L11.6553 17.5963C11.9221 18.3217 12.3641 18.9624 12.93 19.4672L8.59125 22.3936L14.9324 26.2916L14.9324 20.5182C15.2847 20.6034 15.6526 20.6485 16.0311 20.6485C16.4334 20.6485 16.8239 20.5975 17.1963 20.5016L17.1963 26.2891L20.5512 24.2268L21.5964 26.0013L16.0625 29.25L5.1875 22.8659V14.4563H7.45112ZM20.398 17.62L24.1694 20.1638C24.5811 19.9018 25.0697 19.75 25.5938 19.75C27.0608 19.75 28.25 20.9392 28.25 22.4063C28.25 23.8733 27.0608 25.0625 25.5938 25.0625C24.1267 25.0625 22.9375 23.8733 22.9375 22.4063C22.9375 22.2948 22.9444 22.1849 22.9577 22.0771L19.1132 19.484C19.682 18.9821 20.1274 18.3437 20.398 17.62ZM25.5938 21.3438C25.0069 21.3438 24.5313 21.8194 24.5313 22.4063C24.5313 22.9931 25.0069 23.4688 25.5938 23.4688C26.1806 23.4688 26.6563 22.9931 26.6563 22.4063C26.6563 21.8194 26.1806 21.3438 25.5938 21.3438ZM16.0311 13.3244C17.502 13.3244 18.6944 14.5168 18.6944 15.9877C18.6944 17.4586 17.502 18.651 16.0311 18.651C14.5601 18.651 13.3677 17.4586 13.3677 15.9877C13.3677 14.5168 14.5601 13.3244 16.0311 13.3244ZM16.0625 2.75L26.9375 9.13409V17.5856H24.6735V11.546L20.4199 14.4151C20.1591 13.6872 19.7222 13.043 19.1607 12.5338L23.5164 9.59587L17.1963 5.71088L17.1963 11.4737C16.8239 11.3779 16.4334 11.3269 16.0311 11.3269C15.6526 11.3269 15.2847 11.372 14.9324 11.4571L14.9324 5.70838L11.3601 7.90431L10.2967 6.13469L16.0625 2.75ZM6.34375 6.9375C7.81076 6.9375 9 8.12674 9 9.59375C9 9.70371 8.99332 9.81211 8.98034 9.91857L12.8828 12.5508C12.3242 13.0628 11.8907 13.7093 11.6337 14.4389L7.77162 11.834C7.35926 12.0974 6.86933 12.25 6.34375 12.25C4.87674 12.25 3.6875 11.0608 3.6875 9.59375C3.6875 8.12674 4.87674 6.9375 6.34375 6.9375ZM6.34375 8.53125C5.75695 8.53125 5.28125 9.00695 5.28125 9.59375C5.28125 10.1806 5.75695 10.6563 6.34375 10.6563C6.93055 10.6563 7.40625 10.1806 7.40625 9.59375C7.40625 9.00695 6.93055 8.53125 6.34375 8.53125Z" fill="#4285F4"/>
</g>
<defs>
<clipPath id="clip0_845_19324">
<rect width="32" height="32" fill="white"/>
</clipPath>
</defs>
</svg>
