<svg width="32" height="32" viewBox="0 0 32 32" fill="none" xmlns="http://www.w3.org/2000/svg">
<g clip-path="url(#clip0_845_19416)">
<path fill-rule="evenodd" clip-rule="evenodd" d="M7.19995 16.9333H12.5333V15.0667H7.19995V16.9333Z" fill="#3367D6"/>
<path fill-rule="evenodd" clip-rule="evenodd" d="M6.13335 27.2L14.9333 18.4L13.7334 17.2L4.93335 26L6.13335 27.2Z" fill="#3367D6"/>
<path fill-rule="evenodd" clip-rule="evenodd" d="M5.33325 6.53337L14.1333 15.3334L15.3333 14.1334L6.53325 5.33337L5.33325 6.53337Z" fill="#3367D6"/>
<path fill-rule="evenodd" clip-rule="evenodd" d="M19.4666 16.9333H24.7999V15.0667H19.4666V16.9333Z" fill="#3367D6"/>
<path fill-rule="evenodd" clip-rule="evenodd" d="M17.0667 18.4L25.4667 26.6666L26.6666 25.4667L18.4 17.0667L17.0667 18.4Z" fill="#3367D6"/>
<path fill-rule="evenodd" clip-rule="evenodd" d="M19.3333 14L27.0667 6.13335L25.8667 4.93335L18 12.6667L19.3333 14Z" fill="#3367D6"/>
<path fill-rule="evenodd" clip-rule="evenodd" d="M2 30H8V24H2V30Z" fill="#5C85DE"/>
<path fill-rule="evenodd" clip-rule="evenodd" d="M24 30H30V24H24V30Z" fill="#5C85DE"/>
<path fill-rule="evenodd" clip-rule="evenodd" d="M2 8H8V2H2V8Z" fill="#5C85DE"/>
<path fill-rule="evenodd" clip-rule="evenodd" d="M24 8H30V2H24V8Z" fill="#5C85DE"/>
<path fill-rule="evenodd" clip-rule="evenodd" d="M10.9333 21.0667H21.0667V10.9333H10.9333V21.0667Z" fill="#85A4E6"/>
<path fill-rule="evenodd" clip-rule="evenodd" d="M2 18.9333H8V13.0667H2V18.9333Z" fill="#5C85DE"/>
<path fill-rule="evenodd" clip-rule="evenodd" d="M24 18.9333H30V13.0667H24V18.9333Z" fill="#5C85DE"/>
</g>
<defs>
<clipPath id="clip0_845_19416">
<rect width="32" height="32" fill="white"/>
</clipPath>
</defs>
</svg>
