<svg width="32" height="32" viewBox="0 0 32 32" fill="none" xmlns="http://www.w3.org/2000/svg">
<path d="M16.0002 8.5333C16.9861 8.51844 17.9651 8.69935 18.8806 9.06554C19.7961 9.43174 20.6298 9.97594 21.3335 10.6666L22.6668 9.3333C21.7914 8.45765 20.7521 7.76304 19.6082 7.28912C18.4644 6.81521 17.2383 6.57129 16.0002 6.57129C14.762 6.57129 13.536 6.81521 12.3921 7.28912C11.2482 7.76304 10.2089 8.45765 9.3335 9.3333L10.6668 10.6666C11.3705 9.97594 12.2042 9.43174 13.1197 9.06554C14.0352 8.69935 15.0143 8.51844 16.0002 8.5333Z" fill="#4285F4"/>
<path d="M16.0002 23.4666C15.0143 23.4814 14.0352 23.3005 13.1197 22.9343C12.2042 22.5681 11.3705 22.0239 10.6668 21.3333L9.3335 22.6666C10.2089 23.5422 11.2482 24.2369 12.3921 24.7108C13.536 25.1847 14.762 25.4286 16.0002 25.4286C17.2383 25.4286 18.4644 25.1847 19.6082 24.7108C20.7521 24.2369 21.7914 23.5422 22.6668 22.6666L21.3335 21.3333C20.6298 22.0239 19.7961 22.5681 18.8806 22.9343C17.9651 23.3005 16.9861 23.4814 16.0002 23.4666Z" fill="#4285F4"/>
<path d="M16.0001 20.0933C15.0791 20.1011 14.1825 19.797 13.4562 19.2305C12.73 18.664 12.2168 17.8685 12.0001 16.9733H6.81341V20.1466L2.66675 15.9999L6.81341 11.8666V15.0399H12.0001C12.2168 14.1447 12.73 13.3492 13.4562 12.7827C14.1825 12.2162 15.0791 11.9121 16.0001 11.9199C16.9211 11.9121 17.8177 12.2162 18.5439 12.7827C19.2702 13.3492 19.7834 14.1447 20.0001 15.0399H25.2134V11.8533L29.3334 15.9999L25.1867 20.1599V16.9733H20.0001C19.7834 17.8685 19.2702 18.664 18.5439 19.2305C17.8177 19.797 16.9211 20.1011 16.0001 20.0933ZM16.0001 13.8533C15.5755 13.8533 15.1605 13.9792 14.8075 14.215C14.4544 14.4509 14.1793 14.7862 14.0168 15.1784C13.8543 15.5707 13.8118 16.0023 13.8947 16.4187C13.9775 16.8351 14.1819 17.2176 14.4822 17.5179C14.7824 17.8181 15.1649 18.0225 15.5813 18.1054C15.9977 18.1882 16.4293 18.1457 16.8216 17.9832C17.2138 17.8207 17.5491 17.5456 17.785 17.1926C18.0208 16.8395 18.1467 16.4245 18.1467 15.9999C18.1467 15.4306 17.9206 14.8846 17.518 14.482C17.1154 14.0794 16.5694 13.8533 16.0001 13.8533Z" fill="#669DF6"/>
</svg>
