<svg width="32" height="32" viewBox="0 0 32 32" fill="none" xmlns="http://www.w3.org/2000/svg">
<path d="M15.9999 16.0001L5.33326 10.6667V19.6801C5.33274 19.7804 5.35531 19.8795 5.39925 19.9696C5.44318 20.0598 5.50728 20.1387 5.58659 20.2001L11.7733 23.8667C11.8432 23.9038 11.9014 23.9596 11.9415 24.0279C11.9815 24.0962 12.0017 24.1743 11.9999 24.2534V28.9334C12.0009 28.9734 12.0125 29.0124 12.0334 29.0465C12.0543 29.0805 12.0839 29.1084 12.1191 29.1274C12.1543 29.1464 12.1939 29.1557 12.2338 29.1544C12.2738 29.1531 12.3127 29.1413 12.3466 29.1201L26.3599 20.2001C26.4538 20.1398 26.5311 20.057 26.5847 19.9592C26.6382 19.8613 26.6664 19.7516 26.6666 19.6401V10.6667L15.9999 16.0001Z" fill="#4285F4"/>
<path d="M15.9999 13.3334L26.6666 8.00005L16.1599 2.74672C16.1109 2.71988 16.0558 2.70581 15.9999 2.70581C15.944 2.70581 15.889 2.71988 15.8399 2.74672L5.33325 8.00005L15.9999 13.3334Z" fill="#669DF6"/>
</svg>
