<svg width="32" height="32" viewBox="0 0 32 32" fill="none" xmlns="http://www.w3.org/2000/svg">
<path d="M16.888 2.99488L25.1477 7.82946C25.7077 8.13608 26.0585 8.71932 26.0655 9.35568V19.9662C26.0565 20.602 25.7064 21.1843 25.1477 21.4924L11.9872 29.1875C11.7742 29.313 11.4994 29.2436 11.3723 29.0321C11.333 28.9655 11.3109 28.8901 11.3081 28.8128V24.1427L6.79275 21.4924C6.23413 21.1843 5.88394 20.602 5.875 19.9662V9.35568C5.88203 8.71932 6.23274 8.13608 6.79275 7.82946L15.0525 2.99488C15.6204 2.66837 16.3201 2.66837 16.888 2.99488Z" fill="#AECBFA"/>
<path fill-rule="evenodd" clip-rule="evenodd" d="M13.0922 17.6484C13.0922 17.1224 12.6658 16.696 12.1398 16.696C11.6139 16.696 11.1875 17.1224 11.1875 17.6484V19.5531C11.1875 20.079 11.6139 20.5054 12.1398 20.5054C12.6658 20.5054 13.0922 20.079 13.0922 19.5531V17.6484Z" fill="#185ABC"/>
<path fill-rule="evenodd" clip-rule="evenodd" d="M13.0922 14.7915C13.0922 14.2655 12.6658 13.8391 12.1398 13.8391C11.6139 13.8391 11.1875 14.2655 11.1875 14.7915C11.1875 15.3174 11.6139 15.7438 12.1398 15.7438C12.6658 15.7438 13.0922 15.3174 13.0922 14.7915Z" fill="#4285F4"/>
<path fill-rule="evenodd" clip-rule="evenodd" d="M16.9015 14.7915C16.9015 14.2655 16.4751 13.8391 15.9492 13.8391C15.4232 13.8391 14.9968 14.2655 14.9968 14.7915C14.9968 15.3174 15.4232 15.7438 15.9492 15.7438C16.4751 15.7438 16.9015 15.3174 16.9015 14.7915Z" fill="#4285F4"/>
<path fill-rule="evenodd" clip-rule="evenodd" d="M16.9015 11.9344C16.9015 11.4084 16.4751 10.9821 15.9492 10.9821C15.4232 10.9821 14.9968 11.4084 14.9968 11.9344C14.9968 12.4604 15.4232 12.8867 15.9492 12.8867C16.4751 12.8867 16.9015 12.4604 16.9015 11.9344Z" fill="#669DF6"/>
<path fill-rule="evenodd" clip-rule="evenodd" d="M20.711 9.07734C20.711 8.55139 20.2846 8.125 19.7586 8.125C19.2327 8.125 18.8063 8.55139 18.8063 9.07734C18.8063 9.6033 19.2327 10.0297 19.7586 10.0297C20.2846 10.0297 20.711 9.6033 20.711 9.07734Z" fill="#669DF6"/>
<path fill-rule="evenodd" clip-rule="evenodd" d="M20.711 14.7915C20.711 14.2655 20.2846 13.8391 19.7586 13.8391C19.2327 13.8391 18.8063 14.2655 18.8063 14.7915C18.8063 15.3174 19.2327 15.7438 19.7586 15.7438C20.2846 15.7438 20.711 15.3174 20.711 14.7915Z" fill="#185ABC"/>
<path fill-rule="evenodd" clip-rule="evenodd" d="M20.711 11.9344C20.711 11.4084 20.2846 10.9821 19.7586 10.9821C19.2327 10.9821 18.8063 11.4084 18.8063 11.9344C18.8063 12.4604 19.2327 12.8867 19.7586 12.8867C20.2846 12.8867 20.711 12.4604 20.711 11.9344Z" fill="#4285F4"/>
<path fill-rule="evenodd" clip-rule="evenodd" d="M14.9968 17.6484C14.9968 17.1224 15.4232 16.696 15.9492 16.696C16.4751 16.696 16.9015 17.1224 16.9015 17.6484V19.5531C16.9015 20.079 16.4751 20.5054 15.9492 20.5054C15.4232 20.5054 14.9968 20.079 14.9968 19.5531V17.6484Z" fill="#185ABC"/>
<path fill-rule="evenodd" clip-rule="evenodd" d="M20.7108 17.6484C20.7108 17.1224 20.2845 16.696 19.7585 16.696C19.2325 16.696 18.8062 17.1224 18.8062 17.6484V19.5531C18.8062 20.079 19.2325 20.5054 19.7585 20.5054C20.2845 20.5054 20.7108 20.079 20.7108 19.5531V17.6484Z" fill="#185ABC"/>
</svg>
