<svg width="32" height="32" viewBox="0 0 32 32" fill="none" xmlns="http://www.w3.org/2000/svg">
<path d="M16.8669 2.87219L25.2045 7.75238C25.7698 8.06189 26.1239 8.65064 26.131 9.293V20.0036C26.1219 20.6454 25.7684 21.2332 25.2045 21.5442L11.9199 29.3119C11.7049 29.4386 11.4275 29.3685 11.2992 29.1551C11.2595 29.0878 11.2372 29.0117 11.2343 28.9337V24.2195L6.67641 21.5442C6.11251 21.2332 5.75902 20.6454 5.75 20.0036V9.293C5.75709 8.65064 6.11112 8.06189 6.67641 7.75238L15.0141 2.87219C15.5873 2.5426 16.2936 2.5426 16.8669 2.87219Z" fill="#AECBFA"/>
<path d="M10.9227 12.6394C10.6465 12.6394 10.4217 12.8592 10.4134 13.1334L10.4132 13.1489L10.4134 18.3931L10.415 18.4479C10.4337 18.7678 10.6092 19.059 10.885 19.2248L10.9044 19.2362L13.4693 20.6999V22.7543L13.4707 22.7923C13.4902 23.056 13.7102 23.2638 13.9788 23.2638C14.0616 23.2638 14.143 23.2437 14.2161 23.2052L14.2342 23.1952L21.0393 19.2547L21.0862 19.2262C21.3552 19.0521 21.5219 18.7559 21.53 18.4341L21.5303 18.4117V13.1499C21.5303 13.0609 21.507 12.9734 21.4627 12.8962C21.3253 12.6569 21.0233 12.5713 20.7815 12.7L20.7671 12.708L16.2415 15.3061L16.2028 15.3279C16.0505 15.4052 15.8688 15.4012 15.7196 15.3159L15.7031 15.3061L11.1764 12.7071C11.0992 12.6627 11.0117 12.6394 10.9227 12.6394Z" fill="#669DF6"/>
<path d="M16.3267 6.751C16.1379 6.64274 15.9073 6.63862 15.7152 6.73889L15.6967 6.74892L10.7071 9.56617C10.6275 9.61114 10.5614 9.67671 10.5158 9.75601C10.3784 9.99521 10.4566 10.2993 10.6896 10.4432L10.7038 10.4516L15.6925 13.3182C15.8842 13.4283 16.1186 13.431 16.3122 13.3265L16.3308 13.3161L21.243 10.4499C21.32 10.405 21.3839 10.3406 21.4282 10.2633C21.5655 10.0239 21.487 9.71997 21.2538 9.57625L21.2396 9.56782L16.3267 6.751Z" fill="#185ABC"/>
</svg>
