<svg width="32" height="32" viewBox="0 0 32 32" fill="none" xmlns="http://www.w3.org/2000/svg">
<path d="M16 4V6.66667H9.36295V25.3333H16V28H8.87223C7.71722 28 6.77111 27.0307 6.67471 25.8063L6.66663 25.6V6.4C6.66663 5.08 7.66414 4 8.88332 4L16 4Z" fill="#4285F4"/>
<path d="M12 20.6666H16V22.6666H12V20.6666Z" fill="#4285F4"/>
<path d="M12 16.6666H16V18.6666H12V16.6666Z" fill="#4285F4"/>
<path d="M12 12.6666H16V14.6666H12V12.6666Z" fill="#4285F4"/>
<path d="M22 24C23.1046 24 24 24.8954 24 26C24 27.1046 23.1046 28 22 28C20.8954 28 20 27.1046 20 26C20 24.8954 20.8954 24 22 24Z" fill="#4285F4"/>
<path d="M24.6666 12C25.7712 12 26.6666 12.8954 26.6666 14C26.6666 15.1046 25.7712 16 24.6666 16C23.5621 16 22.6666 15.1046 22.6666 14C22.6666 12.8954 23.5621 12 24.6666 12Z" fill="#4285F4"/>
<path d="M20.6666 9.33337C21.7712 9.33337 22.6666 8.43794 22.6666 7.33337C22.6666 6.2288 21.7712 5.33337 20.6666 5.33337C19.5621 5.33337 18.6666 6.2288 18.6666 7.33337C18.6666 8.43794 19.5621 9.33337 20.6666 9.33337Z" fill="#4285F4"/>
<path d="M17.3333 14H18.4188C20.9731 14 20.6538 13.0622 20.6538 8.66663" stroke="#4285F4"/>
<path d="M17.3333 17.9918H18.417C23.4531 17.9918 24.7281 18.2872 24.6643 15.3334" stroke="#4285F4"/>
<path d="M17.3333 22.011H18.0226C21.7301 22.0028 22.0374 21.716 21.9968 24.6666" stroke="#4285F4"/>
</svg>
