<svg width="32" height="32" viewBox="0 0 32 32" fill="none" xmlns="http://www.w3.org/2000/svg">
<path d="M24.6185 18.5876L29.4167 23.4557L24.6132 28.2565L23.2388 26.8409L25.6367 24.4436L2.75 24.4439V22.4569L25.662 22.4569L23.2336 19.9926L24.6185 18.5876ZM13.8281 10.1C18.1165 10.1 21.593 13.6307 21.593 17.9861C21.593 19.2345 21.3073 20.4151 20.7989 21.4642H6.85727C6.34879 20.4151 6.06318 19.2345 6.06318 17.9861C6.06318 13.6307 9.53964 10.1 13.8281 10.1ZM5.38729 7.22352L7.70858 9.61042L6.31448 11.006L3.9932 8.61913L5.38729 7.22352ZM22.3744 7.21349L23.75 8.62792L21.3974 10.983L20.0218 9.56862L22.3744 7.21349ZM12.9096 4.25647L14.8681 4.26978L14.8459 7.6229L12.8875 7.60959L12.9096 4.25647Z" fill="#4285F4"/>
</svg>
