<svg width="32" height="32" viewBox="0 0 32 32" fill="none" xmlns="http://www.w3.org/2000/svg">
<path fill-rule="evenodd" clip-rule="evenodd" d="M9.33329 2.66663L2.66663 9.33329V22.6666L9.33329 29.3333H16L12.6666 25.52H11L6.47996 21V11L11 6.47996H12.6666L16 2.66663H9.33329Z" fill="#669DF6"/>
<path fill-rule="evenodd" clip-rule="evenodd" d="M19.3333 2.66663L16 6.47996H21L25.52 11V21L21 25.52H16L19.3333 29.3333H22.6667L29.3333 22.6666V9.33329L22.6667 2.66663H19.3333Z" fill="#669DF6"/>
<path fill-rule="evenodd" clip-rule="evenodd" d="M15.9999 22.6666L12.6666 19.3333L15.9999 15.9999L12.6666 12.6666L15.9999 9.33325H12.6666L9.33325 12.6666V19.3333L12.6666 22.6666H15.9999Z" fill="#4285F4"/>
<path fill-rule="evenodd" clip-rule="evenodd" d="M19.3333 9.33325L16 12.6666L19.3333 15.9999L16 19.3333L19.3333 22.6666L22.6667 19.3333V12.6666L19.3333 9.33325Z" fill="#4285F4"/>
</svg>
