<svg width="32" height="32" viewBox="0 0 32 32" fill="none" xmlns="http://www.w3.org/2000/svg">
<path d="M23.9733 9.41331L9.68001 23.6666L8.46667 22.4533L22.7467 8.18665L23.9733 9.41331Z" fill="#4285F4"/>
<path d="M18.6098 18.7837C20.1044 17.342 20.1471 14.9617 18.7054 13.4671C17.2637 11.9726 14.8834 11.9298 13.3888 13.3716C11.8943 14.8133 11.8515 17.1936 13.2932 18.6881C14.735 20.1827 17.1153 20.2255 18.6098 18.7837Z" fill="#669DF6"/>
<path d="M29 16C29.0038 18.7804 28.1107 21.4878 26.4533 23.72C26.3176 23.462 26.1286 23.2357 25.8987 23.0564C25.6688 22.8771 25.4033 22.7488 25.12 22.68C26.1642 21.2668 26.8626 19.6283 27.159 17.8963C27.4554 16.1642 27.3416 14.3868 26.8266 12.7067C27.3827 12.4938 27.9005 12.1921 28.36 11.8134C28.8038 13.1638 29.0201 14.5787 29 16ZM23.6666 26.4534C21.9799 27.7024 20.0154 28.5235 17.9415 28.8463C15.8677 29.1691 13.7465 28.9839 11.76 28.3067C12.1387 27.8472 12.4404 27.3294 12.6533 26.7734C14.3392 27.2949 16.1241 27.4122 17.8638 27.1157C19.6034 26.8192 21.2487 26.1173 22.6666 25.0667C22.7299 25.3609 22.857 25.6376 23.039 25.8772C23.221 26.1169 23.4535 26.3135 23.72 26.4534H23.6666ZM20.1866 3.69337C19.8079 4.15282 19.5062 4.67066 19.2933 5.2267H19.2266C17.5578 4.72803 15.7961 4.62261 14.0796 4.91871C12.3632 5.21481 10.7386 5.90437 9.3333 6.93337C9.26221 6.65102 9.133 6.3866 8.95392 6.15702C8.77485 5.92743 8.54984 5.73773 8.2933 5.60004C9.98001 4.35103 11.9446 3.5299 14.0184 3.2071C16.0922 2.8843 18.2134 3.06946 20.2 3.7467L20.1866 3.69337ZM6.9333 9.33337C5.88902 10.7466 5.19066 12.3851 4.89426 14.1171C4.59787 15.8492 4.7117 17.6266 5.22663 19.3067C4.67059 19.5196 4.15275 19.8213 3.6933 20.2C3.01377 18.2116 2.8274 16.0879 3.15024 14.0115C3.47308 11.9351 4.29545 9.96826 5.54663 8.28004C5.68646 8.54649 5.88315 8.77896 6.12277 8.96098C6.3624 9.143 6.6391 9.27013 6.9333 9.33337Z" fill="#4285F4"/>
<path fill-rule="evenodd" clip-rule="evenodd" d="M26.0266 7.34667C26.0266 7.08297 25.9484 6.82518 25.8019 6.60591C25.6554 6.38665 25.4472 6.21575 25.2035 6.11483C24.9599 6.01392 24.6918 5.98751 24.4332 6.03896C24.1745 6.09041 23.9369 6.21739 23.7505 6.40386C23.564 6.59033 23.437 6.82791 23.3856 7.08655C23.3341 7.34519 23.3605 7.61328 23.4614 7.85692C23.5624 8.10055 23.7333 8.30879 23.9525 8.4553C24.1718 8.60181 24.4296 8.68001 24.6933 8.68001C25.0469 8.68001 25.386 8.53953 25.6361 8.28948C25.8861 8.03943 26.0266 7.7003 26.0266 7.34667ZM27.84 7.34667C27.84 7.9743 27.6538 8.58783 27.3051 9.10968C26.9565 9.63153 26.4609 10.0383 25.881 10.2785C25.3012 10.5186 24.6631 10.5815 24.0475 10.459C23.432 10.3366 22.8665 10.0344 22.4227 9.59056C21.9789 9.14676 21.6767 8.58133 21.5543 7.96576C21.4318 7.35019 21.4947 6.71214 21.7348 6.13229C21.975 5.55244 22.3818 5.05683 22.9036 4.70814C23.4255 4.35945 24.039 4.17334 24.6666 4.17334C25.5082 4.17334 26.3154 4.50767 26.9105 5.10279C27.5056 5.6979 27.84 6.50505 27.84 7.34667Z" fill="#AECBFA"/>
<path fill-rule="evenodd" clip-rule="evenodd" d="M26.0267 24.7333C26.0267 24.4696 25.9485 24.2118 25.802 23.9925C25.6555 23.7733 25.4473 23.6024 25.2036 23.5015C24.96 23.4005 24.6919 23.3741 24.4333 23.4256C24.1746 23.477 23.937 23.604 23.7506 23.7905C23.5641 23.977 23.4371 24.2145 23.3857 24.4732C23.3342 24.7318 23.3606 24.9999 23.4615 25.2435C23.5625 25.4872 23.7334 25.6954 23.9526 25.8419C24.1719 25.9884 24.4297 26.0666 24.6934 26.0666C25.047 26.0666 25.3861 25.9262 25.6362 25.6761C25.8862 25.4261 26.0267 25.0869 26.0267 24.7333ZM27.84 24.7333C27.8374 25.3603 27.6491 25.9726 27.2988 26.4927C26.9485 27.0128 26.452 27.4174 25.8719 27.6556C25.2918 27.8937 24.6542 27.9546 24.0395 27.8307C23.4248 27.7067 22.8606 27.4035 22.4182 26.9591C21.9757 26.5148 21.6748 25.9494 21.5534 25.3342C21.432 24.719 21.4957 24.0816 21.7362 23.5025C21.9768 22.9234 22.3835 22.4286 22.9051 22.0805C23.4267 21.7324 24.0397 21.5466 24.6667 21.5466C25.5096 21.5502 26.3167 21.8875 26.9114 22.4847C27.5062 23.0819 27.8401 23.8904 27.84 24.7333Z" fill="#AECBFA"/>
<path fill-rule="evenodd" clip-rule="evenodd" d="M8.61339 24.7333C8.61339 24.4696 8.53519 24.2118 8.38868 23.9926C8.24217 23.7733 8.03393 23.6024 7.7903 23.5015C7.54666 23.4006 7.27857 23.3742 7.01993 23.4256C6.76129 23.4771 6.52371 23.604 6.33724 23.7905C6.15077 23.977 6.02378 24.2146 5.97234 24.4732C5.92089 24.7318 5.9473 24.9999 6.04821 25.2436C6.14913 25.4872 6.32003 25.6954 6.53929 25.842C6.75856 25.9885 7.01634 26.0667 7.28005 26.0667C7.63367 26.0667 7.97281 25.9262 8.22286 25.6761C8.47291 25.4261 8.61339 25.0869 8.61339 24.7333ZM10.4267 24.7333C10.4241 25.3609 10.2354 25.9737 9.8845 26.4941C9.53362 27.0144 9.03631 27.4191 8.45545 27.6568C7.8746 27.8946 7.23629 27.9547 6.62125 27.8297C6.0062 27.7047 5.44205 27.4001 5.00012 26.9544C4.55819 26.5087 4.25834 25.942 4.13848 25.326C4.01862 24.7099 4.08415 24.0721 4.32676 23.4933C4.56937 22.9145 4.97818 22.4206 5.50149 22.0741C6.0248 21.7276 6.6391 21.544 7.26672 21.5467C7.68345 21.5484 8.09575 21.6322 8.48009 21.7933C8.86443 21.9544 9.21327 22.1896 9.50671 22.4855C9.80014 22.7814 10.0324 23.1322 10.1903 23.5179C10.3481 23.9036 10.4285 24.3166 10.4267 24.7333Z" fill="#AECBFA"/>
<path fill-rule="evenodd" clip-rule="evenodd" d="M8.61329 7.3467C8.61329 7.08299 8.53509 6.82521 8.38858 6.60594C8.24208 6.38668 8.03384 6.21578 7.7902 6.11486C7.54657 6.01395 7.27848 5.98754 7.01984 6.03899C6.7612 6.09043 6.52362 6.21742 6.33715 6.40389C6.15068 6.59036 6.02369 6.82794 5.97224 7.08658C5.9208 7.34522 5.9472 7.61331 6.04812 7.85695C6.14904 8.10058 6.31993 8.30882 6.5392 8.45533C6.75846 8.60184 7.01625 8.68003 7.27996 8.68003C7.63358 8.68003 7.97272 8.53956 8.22277 8.28951C8.47282 8.03946 8.61329 7.70032 8.61329 7.3467ZM10.4266 7.3467C10.4266 7.97489 10.2402 8.58895 9.89088 9.11109C9.5416 9.63323 9.0452 10.0399 8.46457 10.2797C7.88395 10.5195 7.24521 10.5816 6.62928 10.458C6.01336 10.3345 5.44795 10.031 5.00469 9.58583C4.56142 9.1407 4.26025 8.57402 4.13932 7.95757C4.01838 7.34113 4.08313 6.70267 4.32536 6.12305C4.56759 5.54344 4.97639 5.04876 5.5 4.70168C6.0236 4.3546 6.63844 4.17073 7.26662 4.17337C7.68273 4.17336 8.09473 4.25554 8.47899 4.41518C8.86325 4.57482 9.2122 4.80877 9.50581 5.10362C9.79942 5.39847 10.0319 5.7484 10.1899 6.13333C10.3479 6.51826 10.4284 6.9306 10.4266 7.3467Z" fill="#AECBFA"/>
</svg>
