<svg width="32" height="32" viewBox="0 0 32 32" fill="none" xmlns="http://www.w3.org/2000/svg">
<path d="M15.9999 14.6133H6.63989V15.9466H15.9999V14.6133Z" fill="#669DF6"/>
<path d="M25.36 14.6133H16V15.9466H25.36V14.6133Z" fill="#4285F4"/>
<path d="M6.66675 17.3334V29.3334H16.0001V17.3334H6.66675ZM10.3467 27.7067H8.30675V18.96H10.3201L10.3467 27.7067ZM14.4667 27.7067H12.4267V18.96H14.4401L14.4667 27.7067Z" fill="#669DF6"/>
<path d="M16 17.3334V29.3334H25.3333V17.3334H16ZM19.5733 27.7067H17.56V18.96H19.5733V27.7067ZM23.6933 27.7067H21.68V18.96H23.6933V27.7067Z" fill="#4285F4"/>
<path d="M24.64 10.8666L20.64 8.83997C20.2829 9.76215 19.6575 10.5561 18.8447 11.1194C18.0319 11.6827 17.0689 11.9894 16.08 12H16V13.3333H25.3333V12C25.3269 11.7669 25.2595 11.5397 25.1379 11.3408C25.0162 11.1419 24.8446 10.9784 24.64 10.8666Z" fill="#4285F4"/>
<path d="M15.9201 12C14.9289 11.9921 13.963 11.6866 13.1476 11.1231C12.3321 10.5597 11.7047 9.76425 11.3467 8.83997L7.34675 10.8666C7.14468 10.9801 6.97568 11.1444 6.85644 11.3431C6.73719 11.5419 6.67181 11.7682 6.66675 12V13.3333H16.0001V12H15.9201Z" fill="#669DF6"/>
<path d="M16 2.66663V3.87996C16.7956 3.87996 17.5587 4.19603 18.1213 4.75864C18.6839 5.32125 19 6.08431 19 6.87996V6.97329C18.9965 7.76663 18.6788 8.52627 18.1166 9.086C17.5544 9.64573 16.7933 9.95997 16 9.95996V11.1866C17.0886 11.1257 18.1126 10.6503 18.8617 9.85811C19.6108 9.06589 20.0282 8.01694 20.0282 6.92663C20.0282 5.83631 19.6108 4.78736 18.8617 3.99514C18.1126 3.20292 17.0886 2.72755 16 2.66663Z" fill="#4285F4"/>
<path d="M15.9999 9.95996C15.6037 9.96525 15.2104 9.89199 14.8427 9.74443C14.4749 9.59687 14.1401 9.37793 13.8574 9.10024C13.5748 8.82255 13.3499 8.49161 13.1959 8.12655C13.0419 7.76149 12.9617 7.36952 12.9599 6.97329V6.87996C12.9599 6.48261 13.0388 6.0892 13.1921 5.72259C13.3453 5.35599 13.5699 5.02348 13.8527 4.74437C14.1355 4.46527 14.471 4.24513 14.8396 4.09674C15.2082 3.94835 15.6026 3.87466 15.9999 3.87996V2.66663C14.9113 2.72755 13.8873 3.20292 13.1382 3.99514C12.3891 4.78736 11.9717 5.83631 11.9717 6.92663C11.9717 8.01694 12.3891 9.06589 13.1382 9.85811C13.8873 10.6503 14.9113 11.1257 15.9999 11.1866V9.95996Z" fill="#669DF6"/>
<path d="M16.6001 4.94666H15.3867V8.89332H16.6001V4.94666Z" fill="#4285F4"/>
</svg>
