<svg width="32" height="32" viewBox="0 0 32 32" fill="none" xmlns="http://www.w3.org/2000/svg">
<path fill-rule="evenodd" clip-rule="evenodd" d="M15.9845 9.59851C15.2522 9.59851 14.5489 9.7241 13.8934 9.9518L15.0089 11.252C15.3241 11.187 15.6504 11.1528 15.9845 11.1528C18.6443 11.1528 20.8082 13.3143 20.8082 15.9713C20.8082 18.6282 18.6443 20.7897 15.9845 20.7897C13.3246 20.7897 11.1608 18.6282 11.1608 15.9713C11.1608 15.3789 11.2689 14.8117 11.4654 14.2873L10.3498 12.9871C9.87487 13.878 9.60474 14.8936 9.60474 15.9713C9.60474 19.4852 12.4668 22.3441 15.9845 22.3441C19.5022 22.3441 22.3642 19.4852 22.3642 15.9713C22.3642 12.4574 19.5022 9.59851 15.9845 9.59851Z" fill="#4285F4"/>
<path fill-rule="evenodd" clip-rule="evenodd" d="M27.9688 10.3669C27.9688 9.16809 26.9913 8.19287 25.7897 8.19287C25.5731 8.19287 25.3644 8.22564 25.1669 8.28449C22.9665 5.66768 19.6676 4 15.9844 4C14.2581 4 12.6175 4.36881 11.1333 5.02725C11.251 5.38877 11.3151 5.77405 11.3151 6.17408C11.3151 6.34459 11.3027 6.51184 11.2803 6.67613C12.6947 5.95963 14.2924 5.55292 15.9844 5.55292C19.1669 5.55292 22.0192 6.98439 23.9336 9.23409C23.7303 9.5644 23.6108 9.95155 23.6108 10.3669C23.6108 11.5658 24.5883 12.541 25.7897 12.541C25.8037 12.541 25.8175 12.5392 25.8313 12.5389C26.2061 13.6105 26.4124 14.76 26.4124 15.9575C26.4124 20.5933 23.3575 24.5291 19.1512 25.87C18.7552 25.3225 18.112 24.9644 17.3852 24.9644C16.4657 24.9644 15.6792 25.5364 15.3597 26.3416C9.89959 26.018 5.55641 21.4852 5.55641 15.9575C5.55641 13.6984 6.28388 11.6071 7.51437 9.89936C6.93617 9.88943 6.38972 9.74796 5.90365 9.50321C4.70116 11.3666 4 13.5812 4 15.9575C4 22.3371 9.03344 27.5653 15.346 27.8976C15.6556 28.7225 16.4516 29.3125 17.3852 29.3125C18.5067 29.3125 19.4324 28.4623 19.5508 27.3743C24.4228 25.8559 27.9688 21.312 27.9688 15.9575C27.9688 14.5533 27.7228 13.2057 27.2753 11.9531C27.7008 11.556 27.9688 10.9928 27.9688 10.3669Z" fill="#4285F4"/>
<path fill-rule="evenodd" clip-rule="evenodd" d="M16.0119 16.5643C15.6687 16.5643 15.3895 16.286 15.3895 15.9439C15.3895 15.6017 15.6687 15.3233 16.0119 15.3233C16.3553 15.3233 16.6343 15.6017 16.6343 15.9439C16.6343 16.286 16.3553 16.5643 16.0119 16.5643ZM6.98695 6.17161C6.98695 5.82943 7.2661 5.55115 7.60936 5.55115C7.95262 5.55115 8.23178 5.82943 8.23178 6.17161C8.23178 6.51379 7.95262 6.79207 7.60936 6.79207C7.2661 6.79207 6.98695 6.51379 6.98695 6.17161ZM16.0119 13.7723C15.7549 13.7723 15.5094 13.8192 15.2802 13.9009L9.52405 7.20669C9.69211 6.89879 9.7878 6.54605 9.7878 6.17161C9.7878 4.97412 8.81062 4 7.60936 4C6.40809 4 5.43091 4.97412 5.43091 6.17161C5.43091 7.36909 6.40809 8.34321 7.60936 8.34321C7.86642 8.34321 8.11196 8.29621 8.34116 8.21447L14.0973 14.9088C13.9293 15.2167 13.8335 15.5695 13.8335 15.9439C13.8335 17.1413 14.8107 18.1155 16.0119 18.1155C17.2133 18.1155 18.1905 17.1413 18.1905 15.9439C18.1905 14.7464 17.2133 13.7723 16.0119 13.7723Z" fill="#4285F4"/>
</svg>
