<svg width="32" height="32" viewBox="0 0 32 32" fill="none" xmlns="http://www.w3.org/2000/svg">
<path fill-rule="evenodd" clip-rule="evenodd" d="M9.06661 9.06667C5.19995 9.06667 4.79995 4 9.06661 4C12.1333 4 13.4666 4.93333 15.9999 6C18.7999 4.93333 19.8666 4 22.9333 4C27.1999 4 26.7999 9.06667 22.9333 9.06667H9.06661Z" fill="#5C85DE"/>
<path fill-rule="evenodd" clip-rule="evenodd" d="M9.06663 9.06667H22.9333C24 9.06667 24.9333 8.53333 25.3333 8L16 9.06667L6.66663 8C7.06663 8.53333 7.99996 9.06667 9.06663 9.06667Z" fill="#3367D6"/>
<path fill-rule="evenodd" clip-rule="evenodd" d="M26.9333 17.0667H17.0667V28H25.0667C26.1333 28 27.0666 27.0667 27.0666 26V17.0667H26.9333Z" fill="#85A4E6"/>
<path fill-rule="evenodd" clip-rule="evenodd" d="M5.06665 17.0667H15.0667V28H7.06665C5.99998 28 5.06665 27.0667 5.06665 26V17.0667Z" fill="#85A4E6"/>
<path fill-rule="evenodd" clip-rule="evenodd" d="M14.9333 16V9.06665H5.06665C3.99998 9.06665 3.06665 9.99998 3.06665 11.0667V16H14.9333Z" fill="#85A4E6"/>
<path fill-rule="evenodd" clip-rule="evenodd" d="M29.0666 16H17.0667V9.06665H27.0666C28.1333 9.06665 29.0666 9.99998 29.0666 11.0667V16Z" fill="#85A4E6"/>
<path d="M15.0667 16H5.06665V18H15.0667V16Z" fill="#3367D6"/>
<path d="M27.0666 16H17.0667V18H27.0666V16Z" fill="#3367D6"/>
<path d="M19.0667 9.06665H18V28H19.0667V9.06665Z" fill="#3367D6"/>
<path d="M18 9.06665H14V28H18V9.06665Z" fill="#5C85DE"/>
</svg>
