<svg width="32" height="32" viewBox="0 0 32 32" fill="none" xmlns="http://www.w3.org/2000/svg">
<g clip-path="url(#clip0_845_19544)">
<path fill-rule="evenodd" clip-rule="evenodd" d="M5.01331 27.3066H27.3066C27.8663 27.3066 28.32 27.7603 28.32 28.32C28.32 28.8796 27.8663 29.3333 27.3066 29.3333H5.01331V27.3066Z" fill="#3367D6"/>
<path fill-rule="evenodd" clip-rule="evenodd" d="M26.2933 4V14.1333C26.2933 14.693 26.747 15.1467 27.3066 15.1467C27.8663 15.1467 28.3199 14.693 28.3199 14.1333V6.02667C28.3199 4.90737 27.4126 4 26.2933 4Z" fill="#3367D6"/>
<path fill-rule="evenodd" clip-rule="evenodd" d="M26.2933 4H20.2133C19.6537 4 19.2 4.45368 19.2 5.01333C19.2 5.57298 19.6537 6.02667 20.2133 6.02667H26.2933V4Z" fill="#5C85DE"/>
<path fill-rule="evenodd" clip-rule="evenodd" d="M28.3199 13.1201H20.2133C19.6536 13.1201 19.1999 13.5738 19.1999 14.1335C19.1999 14.6931 19.6536 15.1468 20.2133 15.1468H28.3199V13.1201Z" fill="#3367D6"/>
<path fill-rule="evenodd" clip-rule="evenodd" d="M4 13.1201H12.1067C12.6663 13.1201 13.12 13.5738 13.12 14.1335C13.12 14.6931 12.6663 15.1468 12.1067 15.1468H4V13.1201Z" fill="#3367D6"/>
<path fill-rule="evenodd" clip-rule="evenodd" d="M6.02667 4V14.1333C6.02667 14.693 5.57298 15.1467 5.01333 15.1467C4.45368 15.1467 4 14.693 4 14.1333V6.02667C4 4.90737 4.90737 4 6.02667 4Z" fill="#3367D6"/>
<path fill-rule="evenodd" clip-rule="evenodd" d="M6.02661 4H12.1066C12.6663 4 13.1199 4.45368 13.1199 5.01333C13.1199 5.57298 12.6663 6.02667 12.1066 6.02667H6.02661V4Z" fill="#5C85DE"/>
<path fill-rule="evenodd" clip-rule="evenodd" d="M26.0399 17.1733V28.1933C26.0399 28.8229 26.5503 29.3333 27.1799 29.3333C27.8096 29.3333 28.3199 28.8229 28.3199 28.1933V19.4533C28.3199 18.1941 27.2992 17.1733 26.0399 17.1733Z" fill="#3367D6"/>
<path fill-rule="evenodd" clip-rule="evenodd" d="M26.0399 17.1733H20.3054C19.6948 17.1733 19.1999 17.6683 19.1999 18.2788C19.1999 18.8893 19.6948 19.3842 20.3054 19.3842H26.0399V17.1733Z" fill="#5C85DE"/>
<path fill-rule="evenodd" clip-rule="evenodd" d="M6.28 17.1733V28.1933C6.28 28.8229 5.7696 29.3333 5.14 29.3333C4.5104 29.3333 4 28.8229 4 28.1933V19.4533C4 18.1941 5.02079 17.1733 6.28 17.1733Z" fill="#3367D6"/>
<path fill-rule="evenodd" clip-rule="evenodd" d="M6.28003 17.1733H12.0146C12.6251 17.1733 13.12 17.6683 13.12 18.2788C13.12 18.8893 12.6251 19.3842 12.0146 19.3842H6.28003V17.1733Z" fill="#5C85DE"/>
<path fill-rule="evenodd" clip-rule="evenodd" d="M22.2401 10.688H17.7814V15.1467H15.552V10.688H11.0934V8.45867H15.552V4H17.7814V8.45867H22.2401V10.688Z" fill="#3367D6"/>
<path fill-rule="evenodd" clip-rule="evenodd" d="M20.6585 22.6851C21.2519 22.0916 22.2149 22.0916 22.8083 22.6851C23.4017 23.2785 23.4017 24.2415 22.8083 24.8349C22.2149 25.4283 21.2519 25.4283 20.6585 24.8349C20.065 24.2415 20.065 23.2785 20.6585 22.6851Z" fill="#3367D6"/>
<path fill-rule="evenodd" clip-rule="evenodd" d="M15.0851 24.8349C14.4917 24.2415 14.4917 23.2785 15.0851 22.6851C15.6785 22.0916 16.6415 22.0916 17.2349 22.6851C17.8284 23.2785 17.8284 24.2415 17.2349 24.8349C16.6415 25.4283 15.6785 25.4283 15.0851 24.8349Z" fill="#3367D6"/>
<path fill-rule="evenodd" clip-rule="evenodd" d="M15.0851 19.7683C14.4917 19.1748 14.4917 18.2118 15.0851 17.6184C15.6785 17.025 16.6415 17.025 17.2349 17.6184C17.8284 18.2118 17.8284 19.1748 17.2349 19.7683C16.6415 20.3617 15.6785 20.3617 15.0851 19.7683Z" fill="#5C85DE"/>
<path fill-rule="evenodd" clip-rule="evenodd" d="M9.51173 24.8349C8.91829 24.2415 8.91829 23.2785 9.51173 22.6851C10.1052 22.0916 11.0681 22.0916 11.6616 22.6851C12.255 23.2785 12.255 24.2415 11.6616 24.8349C11.0681 25.4283 10.1052 25.4283 9.51173 24.8349Z" fill="#3367D6"/>
</g>
<defs>
<clipPath id="clip0_845_19544">
<rect width="32" height="32" fill="white"/>
</clipPath>
</defs>
</svg>
