<svg width="32" height="32" viewBox="0 0 32 32" fill="none" xmlns="http://www.w3.org/2000/svg">
<path d="M17.5626 4C17.8289 4 18.0758 4.16538 18.1503 4.39966L18.1713 4.504L18.5249 6.8263C19.619 7.24532 20.6186 7.84664 21.4838 8.59173L23.9534 7.648C24.2197 7.564 24.5054 7.627 24.6746 7.82092L24.7396 7.912L27.2756 12.064C27.4087 12.295 27.3671 12.5628 27.2017 12.7547L27.1234 12.832L24.7614 14.5826C24.8168 14.9962 24.8454 15.4179 24.8454 15.8462C24.8454 16.3523 24.8055 16.8493 24.7285 17.3345L21.8853 15.744L21.8854 15.7177C21.7337 12.1604 18.7277 9.33333 15.0266 9.33333C11.228 9.33333 8.16173 12.3111 8.16173 16C8.16173 19.6889 11.228 22.6667 15.0266 22.6667C16.1119 22.6667 17.1374 22.4236 18.0487 21.9903L20.8032 23.6369C20.1292 24.1223 19.39 24.5271 18.6006 24.8367L18.1966 27.496C18.1522 27.748 17.9331 27.9449 17.6751 27.9902L17.5626 28H12.4906C12.2021 28 11.9719 27.8346 11.8848 27.6003L11.8566 27.496L11.4708 24.9636C10.4195 24.5944 9.45025 24.0586 8.59694 23.389L6.07441 24.352C5.80813 24.436 5.52243 24.373 5.35323 24.1791L5.28824 24.088L2.75222 19.936C2.61908 19.705 2.66068 19.4373 2.82607 19.2453L2.90438 19.168L5.044 17.5814C4.93922 17.0184 4.8845 16.4385 4.8845 15.8462C4.8845 15.3489 4.92307 14.8603 4.99745 14.3832L2.90438 12.832C2.68248 12.664 2.61591 12.4041 2.70467 12.1649L2.75222 12.064L5.28824 7.912C5.44358 7.681 5.71541 7.57863 5.96782 7.62095L6.07441 7.648L8.33991 8.51195C9.26665 7.73368 10.3424 7.11828 11.5201 6.71157L11.8566 4.504C11.9009 4.252 12.1201 4.05513 12.378 4.00984L12.4906 4H17.5626ZM11.8139 12.0022C13.4886 10.7487 15.9018 10.5269 17.8229 11.6927C19.6479 12.8002 20.5246 14.7589 20.2366 16.6594L28.9775 21.9636C29.3437 22.121 29.4698 22.6515 29.1517 23.0421L27.7712 25.1875C27.5311 25.5607 27.0629 25.6656 26.6787 25.4325L17.9378 20.1283C16.3051 21.2127 14.108 21.3062 12.283 20.1987C10.3619 19.033 9.43121 16.8469 9.93527 14.8181L14.1436 17.307L15.9442 14.5086L11.8139 12.0022Z" fill="#4285F4"/>
</svg>
