<svg width="32" height="32" viewBox="0 0 32 32" fill="none" xmlns="http://www.w3.org/2000/svg">
<path d="M15.9999 18.1334C17.1781 18.1334 18.1332 17.1782 18.1332 16C18.1332 14.8218 17.1781 13.8667 15.9999 13.8667C14.8217 13.8667 13.8666 14.8218 13.8666 16C13.8666 17.1782 14.8217 18.1334 15.9999 18.1334Z" fill="#AECBFA"/>
<path fill-rule="evenodd" clip-rule="evenodd" d="M10.1066 12.2666H18.5999L19.5866 11.3332L18.5999 10.3999H10.1066V12.2666Z" fill="#4285F4"/>
<path d="M9.06664 12.9734C9.97238 12.9734 10.7066 12.2391 10.7066 11.3334C10.7066 10.4276 9.97238 9.69336 9.06664 9.69336C8.16089 9.69336 7.42664 10.4276 7.42664 11.3334C7.42664 12.2391 8.16089 12.9734 9.06664 12.9734Z" fill="#669DF6"/>
<path d="M22.9333 13.4666C24.1115 13.4666 25.0666 12.5115 25.0666 11.3333C25.0666 10.1551 24.1115 9.19995 22.9333 9.19995C21.7551 9.19995 20.7999 10.1551 20.7999 11.3333C20.7999 12.5115 21.7551 13.4666 22.9333 13.4666Z" fill="#AECBFA"/>
<path fill-rule="evenodd" clip-rule="evenodd" d="M12.48 20.6667L13.4666 21.6001H21.84V19.7334H13.4666L12.48 20.6667Z" fill="#4285F4"/>
<path d="M9.06668 22.7999C10.2449 22.7999 11.2 21.8447 11.2 20.6665C11.2 19.4883 10.2449 18.5332 9.06668 18.5332C7.88848 18.5332 6.93335 19.4883 6.93335 20.6665C6.93335 21.8447 7.88848 22.7999 9.06668 22.7999Z" fill="#AECBFA"/>
<path d="M22.9333 22.3066C23.8391 22.3066 24.5733 21.5724 24.5733 20.6666C24.5733 19.7609 23.8391 19.0266 22.9333 19.0266C22.0276 19.0266 21.2933 19.7609 21.2933 20.6666C21.2933 21.5724 22.0276 22.3066 22.9333 22.3066Z" fill="#669DF6"/>
<path fill-rule="evenodd" clip-rule="evenodd" d="M5.57324 6.66659H22.4799L23.4666 5.73326L22.4799 4.79993H5.57324V6.66659Z" fill="#4285F4"/>
<path d="M4.79991 7.37326C5.70566 7.37326 6.43991 6.63901 6.43991 5.73326C6.43991 4.82752 5.70566 4.09326 4.79991 4.09326C3.89417 4.09326 3.15991 4.82752 3.15991 5.73326C3.15991 6.63901 3.89417 7.37326 4.79991 7.37326Z" fill="#669DF6"/>
<path d="M27.2 7.86664C28.3782 7.86664 29.3333 6.91152 29.3333 5.73331C29.3333 4.5551 28.3782 3.59998 27.2 3.59998C26.0218 3.59998 25.0667 4.5551 25.0667 5.73331C25.0667 6.91152 26.0218 7.86664 27.2 7.86664Z" fill="#AECBFA"/>
<path fill-rule="evenodd" clip-rule="evenodd" d="M8.53333 26.2666L9.51999 27.1999H26.4533V25.3333H9.51999L8.53333 26.2666Z" fill="#4285F4"/>
<path d="M4.79996 28.4C5.97817 28.4 6.93329 27.4448 6.93329 26.2666C6.93329 25.0884 5.97817 24.1333 4.79996 24.1333C3.62175 24.1333 2.66663 25.0884 2.66663 26.2666C2.66663 27.4448 3.62175 28.4 4.79996 28.4Z" fill="#AECBFA"/>
<path d="M27.1999 27.9067C28.1057 27.9067 28.8399 27.1725 28.8399 26.2667C28.8399 25.361 28.1057 24.6267 27.1999 24.6267C26.2942 24.6267 25.5599 25.361 25.5599 26.2667C25.5599 27.1725 26.2942 27.9067 27.1999 27.9067Z" fill="#669DF6"/>
</svg>
