<svg width="32" height="32" viewBox="0 0 32 32" fill="none" xmlns="http://www.w3.org/2000/svg">
<g clip-path="url(#clip0_845_19582)">
<path fill-rule="evenodd" clip-rule="evenodd" d="M17.5999 0V7.33333H10.2666L17.5999 0Z" fill="#3367D6" fill-opacity="0.6"/>
<path fill-rule="evenodd" clip-rule="evenodd" d="M17.5999 7.33337V14.6667L10.2666 7.33337H17.5999Z" fill="#3367D6" fill-opacity="0.8"/>
<path d="M9.99998 21.9733V21.84L11.3333 19.44H22.2667C23.3333 19.44 24.4 18.7733 24.8 17.9733L30.4 7.70664L28 6.23997L26.4 9.17331L22.4 16.5066H12L11.8667 16.1066L8.53332 9.17331L7.19998 6.23997L5.86665 3.30664H1.06665V6.23997H3.99998L9.33332 17.3066L7.33332 20.9066C7.06665 21.3066 6.93332 21.84 6.93332 22.3733C6.93332 23.9733 8.26665 25.3066 9.86665 25.3066H27.4667V22.3733H10.4C10.2667 22.3733 9.99998 22.24 9.99998 21.9733Z" fill="#3367D6" fill-opacity="0.6"/>
<path fill-rule="evenodd" clip-rule="evenodd" d="M11.7334 26.5332C10.2667 26.5332 8.93335 27.7332 8.93335 29.3332C8.93335 30.7999 10.1334 32.1332 11.7334 32.1332C13.3334 32.1332 14.5333 30.9332 14.5333 29.3332C14.5333 27.7332 13.2 26.5332 11.7334 26.5332Z" fill="#3367D6"/>
<path fill-rule="evenodd" clip-rule="evenodd" d="M23.7333 26.5332C22.2667 26.5332 20.9333 27.7332 20.9333 29.3332C20.9333 30.7999 22.1333 32.1332 23.7333 32.1332C25.2 32.1332 26.5333 30.9332 26.5333 29.3332C26.5333 27.7332 25.2 26.5332 23.7333 26.5332Z" fill="#3367D6"/>
<path fill-rule="evenodd" clip-rule="evenodd" d="M17.6 0L24.9333 7.33333H17.6V0Z" fill="#3367D6" fill-opacity="0.8"/>
<path fill-rule="evenodd" clip-rule="evenodd" d="M24.9333 7.33337L17.6 14.6667V7.33337H24.9333Z" fill="#3367D6"/>
</g>
<defs>
<clipPath id="clip0_845_19582">
<rect width="32" height="32" fill="white"/>
</clipPath>
</defs>
</svg>
