<svg width="32" height="32" viewBox="0 0 32 32" fill="none" xmlns="http://www.w3.org/2000/svg">
<path fill-rule="evenodd" clip-rule="evenodd" d="M19.5733 17.4133L25.64 20.92V22.24L19.0533 18.44L19.5733 17.4133Z" fill="#4285F4"/>
<path fill-rule="evenodd" clip-rule="evenodd" d="M13.3067 18.1999L6.36002 22.2132L5.93335 21.1466L12.7067 17.2266L13.3067 18.1999Z" fill="#669DF6"/>
<path d="M16.5467 4.3866H15.4V12.0933H16.5467V4.3866Z" fill="#AECBFA"/>
<path fill-rule="evenodd" clip-rule="evenodd" d="M4.33337 9.33329V22.6666L16 29.3333L27.6534 22.6666V9.33329L16 2.66663L4.33337 9.33329ZM25.1734 21.1866L16 26.3733L6.82671 21.1866V10.8133L16 5.62663L25.16 10.8133V21.1866H25.1734Z" fill="#AECBFA"/>
<path fill-rule="evenodd" clip-rule="evenodd" d="M15.9734 15.3334L21.2801 12.28L15.9734 9.21338L10.6801 12.28L15.9734 15.3334Z" fill="#AECBFA"/>
<path fill-rule="evenodd" clip-rule="evenodd" d="M15.36 16.4L10.2134 13.3467V19.4667L15.36 22.52V16.4Z" fill="#669DF6"/>
<path fill-rule="evenodd" clip-rule="evenodd" d="M16.64 16.4V22.52L21.7867 19.4667V13.3467L16.64 16.4Z" fill="#4285F4"/>
</svg>
