<svg width="32" height="32" viewBox="0 0 32 32" fill="none" xmlns="http://www.w3.org/2000/svg">
<g clip-path="url(#clip0_845_19606)">
<path d="M19.2814 0.521916C17.1827 -0.14563 14.9328 -0.174349 12.8177 0.439406C10.7026 1.05316 8.81757 2.2817 7.4021 3.96898L12.662 8.39112L19.2814 0.521916Z" fill="#1A73E8"/>
<path d="M7.40217 3.96899C5.72248 5.96921 4.80322 8.4984 4.80657 11.1103C4.77927 12.9366 5.15437 14.7464 5.90523 16.4114L12.662 8.39113L7.40217 3.96899Z" fill="#EA4335"/>
<path d="M15.9169 6.86677C16.4753 6.86497 17.0286 6.9734 17.5451 7.18585C18.0615 7.3983 18.531 7.7106 18.9265 8.10483C19.322 8.49906 19.6358 8.96749 19.8499 9.48324C20.064 9.99899 20.1742 10.5519 20.1742 11.1104C20.1758 12.1182 19.8151 13.093 19.158 13.857L25.7774 5.98784C24.4231 3.37029 22.0877 1.3953 19.2816 0.494507L12.6621 8.39117C13.0588 7.91295 13.5563 7.52831 14.1189 7.26478C14.6816 7.00125 15.2956 6.86534 15.9169 6.86677Z" fill="#4285F4"/>
<path d="M15.9169 15.3678C14.7878 15.3678 13.7049 14.9192 12.9065 14.1208C12.1081 13.3224 11.6595 12.2396 11.6595 11.1104C11.6554 10.1046 12.011 9.13043 12.6621 8.36377L5.90527 16.4115C7.31072 18.9956 9.00131 21.414 10.9454 23.6215L19.1854 13.8571C18.7859 14.3346 18.2857 14.7177 17.7205 14.9789C17.1554 15.2401 16.5394 15.3729 15.9169 15.3678Z" fill="#FBBC04"/>
<path d="M19.0068 26.2856C22.7148 20.4901 27.027 17.8533 27.027 11.1789C27.027 9.39594 26.5984 7.63908 25.7773 6.0564L10.9453 23.6213C11.577 24.4453 12.2088 25.3243 12.8268 26.2856C15.0928 29.7739 14.461 31.8613 15.9168 31.8613C17.3725 31.8613 16.7408 29.7739 19.0068 26.2856Z" fill="#34A853"/>
</g>
<defs>
<clipPath id="clip0_845_19606">
<rect width="32" height="32" fill="white"/>
</clipPath>
</defs>
</svg>
