<svg width="32" height="32" viewBox="0 0 32 32" fill="none" xmlns="http://www.w3.org/2000/svg">
<path fill-rule="evenodd" clip-rule="evenodd" d="M6.49337 16.4372C8.58654 15.8462 10.7725 17.0392 11.3727 19.1002C11.9729 21.1611 10.7612 23.3134 8.66803 23.9044C7.97182 24.1009 7.27016 24.0961 6.61206 23.935L6.39437 23.8756L4.32262 27.5556L2.94666 26.8046L5.01624 23.1171C4.45008 22.6386 4.01056 22.003 3.78874 21.2414C3.18854 19.1804 4.40021 17.0281 6.49337 16.4372ZM18.0514 24.6416V26.6613H13.9488V24.6416H18.0514ZM22.1539 20.6022V22.6219H13.9488V20.6022H22.1539ZM9.85588 19.5284C9.49706 18.2963 8.17965 17.5773 6.92831 17.9306C5.67696 18.2839 4.94671 19.581 5.30553 20.8131C5.66434 22.0452 6.98175 22.7642 8.2331 22.4109C9.48444 22.0576 10.2147 20.7605 9.85588 19.5284ZM26.2565 16.5627V18.5825H13.9488V16.5627H26.2565ZM29.3334 12.5233V14.543H2.66675V12.5233H29.3334ZM29.3334 8.48388V10.5036H2.66675V8.48388H29.3334ZM15.0385 4.44446V6.46417H5.74367V4.44446H15.0385ZM26.2565 4.44446V6.46417H16.9616V4.44446H26.2565Z" fill="#4285F4"/>
</svg>
