<svg width="32" height="32" viewBox="0 0 32 32" fill="none" xmlns="http://www.w3.org/2000/svg">
<path d="M15.8 9.33325C14.4551 9.33325 13.1404 9.73207 12.0221 10.4793C10.9039 11.2265 10.0323 12.2885 9.51762 13.531C9.00295 14.7735 8.86828 16.1408 9.13066 17.4599C9.39304 18.7789 10.0407 19.9906 10.9917 20.9416C11.9427 21.8926 13.1543 22.5402 14.4734 22.8026C15.7925 23.065 17.1597 22.9303 18.4022 22.4156C19.6448 21.901 20.7068 21.0294 21.454 19.9111C22.2012 18.7929 22.6 17.4782 22.6 16.1333C22.6 14.3298 21.8836 12.6002 20.6083 11.3249C19.3331 10.0497 17.6035 9.33325 15.8 9.33325ZM15.8 21.4399C14.7452 21.4399 13.714 21.1271 12.837 20.5411C11.9599 19.9551 11.2763 19.1221 10.8726 18.1476C10.469 17.173 10.3634 16.1007 10.5691 15.0661C10.7749 14.0315 11.2829 13.0812 12.0288 12.3353C12.7746 11.5895 13.725 11.0815 14.7595 10.8757C15.7941 10.6699 16.8664 10.7756 17.841 11.1792C18.8155 11.5829 19.6485 12.2665 20.2345 13.1435C20.8205 14.0206 21.1333 15.0518 21.1333 16.1066C21.1351 16.8081 20.9984 17.503 20.7312 18.1517C20.464 18.8003 20.0714 19.3898 19.576 19.8864C19.0805 20.3831 18.492 20.7771 17.8441 21.046C17.1961 21.3149 16.5015 21.4533 15.8 21.4533V21.4399Z" fill="#4285F4"/>
<path d="M18.36 16.9467C18.2441 16.8384 18.1192 16.7403 17.9867 16.6533C17.4689 16.3412 16.8891 16.146 16.288 16.0815C15.6868 16.017 15.0789 16.0848 14.5067 16.28C14.0699 16.3991 13.6647 16.6131 13.32 16.9067C13.1778 17.0047 13.0596 17.1335 12.9742 17.2836C12.8888 17.4336 12.8383 17.6011 12.8267 17.7733V19.1067H18.7867V18.0133C18.7995 17.815 18.7679 17.6162 18.6941 17.4317C18.6203 17.2471 18.5061 17.0814 18.36 16.9467Z" fill="#669DF6"/>
<path d="M15.8 15.3733C16.1059 15.3707 16.4042 15.2774 16.657 15.1052C16.9099 14.9331 17.106 14.6898 17.2206 14.4062C17.3353 14.1226 17.3632 13.8114 17.3009 13.5119C17.2387 13.2124 17.089 12.9381 16.8708 12.7237C16.6527 12.5092 16.3758 12.3643 16.0753 12.3072C15.7748 12.2501 15.4641 12.2834 15.1825 12.4029C14.9009 12.5224 14.6611 12.7227 14.4933 12.9785C14.3256 13.2343 14.2374 13.5341 14.24 13.84C14.247 14.2491 14.4145 14.639 14.7063 14.9259C14.9981 15.2127 15.3909 15.3734 15.8 15.3733Z" fill="#669DF6"/>
<path d="M27.7067 14.2932H26.32L27.3467 15.3199H24.4V16.5199H27.3467L26.32 17.5599H27.7067L29.3334 15.9199L27.7067 14.2932Z" fill="#AECBFA"/>
<path d="M23.3868 11.3332L24.2401 12.1866L25.5468 10.8932V12.3466L26.5201 11.3599V9.05322H24.2134L23.2401 10.0399H24.6934L23.3868 11.3332Z" fill="#669DF6"/>
<path d="M25.5468 21.1067L24.2401 19.8133L23.3868 20.6533L24.6934 21.96H23.2401L24.2134 22.9333H26.5201V20.6267L25.5468 19.6533V21.1067Z" fill="#669DF6"/>
<path d="M4.46672 14.2C4.11129 14.2026 3.7646 14.3104 3.47035 14.5098C3.1761 14.7092 2.94747 14.9912 2.81327 15.3204C2.67908 15.6495 2.64533 16.011 2.71628 16.3593C2.78723 16.7075 2.95971 17.027 3.21197 17.2774C3.46422 17.5278 3.78497 17.6979 4.13377 17.7663C4.48256 17.8347 4.8438 17.7983 5.17193 17.6617C5.50006 17.525 5.7804 17.2943 5.9776 16.9986C6.1748 16.7029 6.28004 16.3554 6.28005 16C6.28006 15.7625 6.23306 15.5273 6.14177 15.3081C6.05048 15.0888 5.9167 14.8898 5.74814 14.7225C5.57958 14.5552 5.37957 14.4228 5.15965 14.3332C4.93972 14.2435 4.70422 14.1982 4.46672 14.2ZM4.46672 17C4.26574 17 4.0693 16.9402 3.90238 16.8283C3.73546 16.7163 3.6056 16.5573 3.52932 16.3713C3.45303 16.1854 3.43375 15.9809 3.47395 15.784C3.51414 15.5871 3.61198 15.4066 3.75503 15.2654C3.89809 15.1242 4.07989 15.0288 4.27733 14.9912C4.47477 14.9536 4.67892 14.9756 4.86383 15.0544C5.04875 15.1331 5.20607 15.2651 5.3158 15.4334C5.42552 15.6018 5.4827 15.799 5.48005 16C5.47655 16.2664 5.36824 16.5208 5.17858 16.7079C4.98892 16.8951 4.73318 17 4.46672 17Z" fill="#669DF6"/>
</svg>
