<svg width="32" height="32" viewBox="0 0 32 32" fill="none" xmlns="http://www.w3.org/2000/svg">
<path fill-rule="evenodd" clip-rule="evenodd" d="M16 2.66675L5.05334 7.22675V14.7334C5.05334 21.4801 9.72001 27.8001 16 29.4001C22.28 27.8667 26.9467 21.5467 26.9467 14.8001V7.22675L16 2.66675ZM16 7.72008C16.8113 7.72027 17.5974 8.00175 18.2244 8.51656C18.8514 9.03137 19.2805 9.74766 19.4386 10.5434C19.5967 11.3391 19.474 12.165 19.0914 12.8804C18.7089 13.5958 18.0901 14.1564 17.3405 14.4668C16.5909 14.7771 15.7569 14.8179 14.9806 14.5822C14.2043 14.3466 13.5337 13.849 13.0831 13.1744C12.6325 12.4998 12.4298 11.6898 12.5095 10.8824C12.5891 10.0751 12.9463 9.32031 13.52 8.74675C13.8457 8.42115 14.2324 8.1629 14.6579 7.98674C15.0834 7.81058 15.5395 7.71997 16 7.72008ZM21.48 22.5867C20.0829 24.4054 18.1748 25.7657 16 26.4934C13.8252 25.7657 11.9171 24.4054 10.52 22.5867V19.5867C10.52 17.3601 14.1733 16.2267 16 16.2267C17.8267 16.2267 21.48 17.3601 21.48 19.5867V22.5867Z" fill="#669DF6"/>
<path fill-rule="evenodd" clip-rule="evenodd" d="M16 2.66675V7.72008C16.93 7.72008 17.822 8.08953 18.4796 8.74716C19.1372 9.40479 19.5067 10.2967 19.5067 11.2267C19.5067 12.1568 19.1372 13.0487 18.4796 13.7063C17.822 14.364 16.93 14.7334 16 14.7334V16.2267C17.8267 16.2267 21.48 17.3601 21.48 19.5867V22.5867C20.0829 24.4054 18.1748 25.7657 16 26.4934V29.3334C22.28 27.8001 26.9467 21.4801 26.9467 14.7334V7.22675L16 2.66675Z" fill="#4285F4"/>
</svg>
