<svg width="32" height="32" viewBox="0 0 32 32" fill="none" xmlns="http://www.w3.org/2000/svg">
<path fill-rule="evenodd" clip-rule="evenodd" d="M4.43994 9.33329L15.9999 2.66663L27.5466 9.33329V22.2933L23.1066 18.6666H8.89328L4.43994 22.2266V9.33329ZM21.3333 11.56C21.3333 10.5051 21.0205 9.47398 20.4344 8.59692C19.8484 7.71986 19.0155 7.03627 18.0409 6.6326C17.0664 6.22893 15.994 6.12332 14.9595 6.3291C13.9249 6.53489 12.9746 7.04284 12.2287 7.78872C11.4828 8.5346 10.9749 9.48491 10.7691 10.5195C10.5633 11.554 10.6689 12.6264 11.0726 13.6009C11.4763 14.5755 12.1598 15.4084 13.0369 15.9945C13.914 16.5805 14.9451 16.8933 15.9999 16.8933C17.4144 16.8933 18.771 16.3314 19.7712 15.3312C20.7714 14.331 21.3333 12.9744 21.3333 11.56ZM19.5599 11.56C19.5599 12.2641 19.3512 12.9524 18.96 13.5378C18.5688 14.1232 18.0128 14.5795 17.3623 14.849C16.7118 15.1184 15.996 15.1889 15.3054 15.0516C14.6148 14.9142 13.9805 14.5751 13.4826 14.0773C12.9848 13.5794 12.6457 12.9451 12.5083 12.2545C12.371 11.5639 12.4415 10.8481 12.7109 10.1976C12.9804 9.5471 13.4367 8.9911 14.0221 8.59993C14.6076 8.20875 15.2958 7.99996 15.9999 7.99996C16.9441 7.99996 17.8496 8.37503 18.5172 9.04266C19.1849 9.71029 19.5599 10.6158 19.5599 11.56Z" fill="#669DF6"/>
<path fill-rule="evenodd" clip-rule="evenodd" d="M16 16.8933C17.4145 16.8933 18.771 16.3314 19.7712 15.3312C20.7714 14.331 21.3333 12.9744 21.3333 11.56C21.3333 10.1455 20.7714 8.78892 19.7712 7.78872C18.771 6.78853 17.4145 6.22663 16 6.22663V2.66663L27.5467 9.33329V22.2933L23.1067 18.6666H16V16.8933ZM19.56 11.56C19.5495 12.4972 19.1698 13.3924 18.5033 14.0514C17.8368 14.7104 16.9373 15.08 16 15.08V7.99996C16.9419 7.99995 17.8453 8.37319 18.5126 9.03794C19.1798 9.70269 19.5565 10.6048 19.56 11.5466V11.56Z" fill="#4285F4"/>
<path fill-rule="evenodd" clip-rule="evenodd" d="M5.33325 23.9999L15.9999 29.3333L26.6666 23.9999L22.2266 20.4399H9.77325L5.33325 23.9999Z" fill="#669DF6"/>
<path fill-rule="evenodd" clip-rule="evenodd" d="M16 29.3333L26.6667 23.9999L22.2267 20.4399H16V29.3333Z" fill="#4285F4"/>
</svg>
