<svg width="32" height="32" viewBox="0 0 32 32" fill="none" xmlns="http://www.w3.org/2000/svg">
<g clip-path="url(#clip0_845_19649)">
<path fill-rule="evenodd" clip-rule="evenodd" d="M24 14.6667V17.3334H28C28.3536 17.3334 28.6928 17.1929 28.9428 16.9429C29.1929 16.6928 29.3333 16.3537 29.3333 16.0001C29.3333 15.6465 29.1929 15.3073 28.9428 15.0573C28.6928 14.8072 28.3536 14.6667 28 14.6667H24Z" fill="#2683FB"/>
<mask id="mask0_845_19649" style="mask-type:luminance" maskUnits="userSpaceOnUse" x="24" y="14" width="6" height="4">
<path d="M24 14.6667V17.3334H28C28.3536 17.3334 28.6928 17.1929 28.9428 16.9429C29.1929 16.6928 29.3333 16.3537 29.3333 16.0001C29.3333 15.6465 29.1929 15.3073 28.9428 15.0573C28.6928 14.8072 28.3536 14.6667 28 14.6667H24Z" fill="white"/>
</mask>
<g mask="url(#mask0_845_19649)">
<path d="M32 0H0V32H32V0Z" fill="#2683FB"/>
<mask id="mask1_845_19649" style="mask-type:luminance" maskUnits="userSpaceOnUse" x="0" y="0" width="32" height="32">
<path d="M32 0H0V32H32V0Z" fill="white"/>
</mask>
<g mask="url(#mask1_845_19649)">
<path d="M36 8H18.6666V24H36V8Z" fill="#2683FB"/>
</g>
</g>
<path fill-rule="evenodd" clip-rule="evenodd" d="M2.66663 10.6666V11.9999H15.28C15.5018 11.9989 15.7205 12.0532 15.916 12.1579C16.1116 12.2627 16.2779 12.4146 16.4 12.5999L18.1733 15.2666C18.3195 15.4857 18.3975 15.7432 18.3975 16.0066C18.3975 16.27 18.3195 16.5275 18.1733 16.7466L16.4 19.4133C16.2779 19.5986 16.1116 19.7505 15.916 19.8553C15.7205 19.96 15.5018 20.0143 15.28 20.0133H2.66663V21.3466C2.66663 21.7002 2.8071 22.0394 3.05715 22.2894C3.3072 22.5395 3.64634 22.6799 3.99996 22.6799H16.6133C16.8352 22.681 17.0538 22.6267 17.2494 22.5219C17.4449 22.4172 17.6113 22.2652 17.7333 22.0799L20 18.6666H22.6666C23.0202 18.6666 23.3594 18.5261 23.6094 18.2761C23.8595 18.026 24 17.6869 24 17.3333V14.6666C24 14.313 23.8595 13.9738 23.6094 13.7238C23.3594 13.4737 23.0202 13.3333 22.6666 13.3333H20L17.7333 9.93327C17.6113 9.74797 17.4449 9.59605 17.2494 9.49128C17.0538 9.38651 16.8352 9.3322 16.6133 9.33327H3.99996C3.64634 9.33327 3.3072 9.47374 3.05715 9.72379C2.8071 9.97384 2.66663 10.313 2.66663 10.6666Z" fill="#A6CAFD"/>
<mask id="mask2_845_19649" style="mask-type:luminance" maskUnits="userSpaceOnUse" x="2" y="9" width="22" height="14">
<path d="M2.66663 10.6666V11.9999H15.28C15.5018 11.9989 15.7205 12.0532 15.916 12.1579C16.1116 12.2627 16.2779 12.4146 16.4 12.5999L18.1733 15.2666C18.3195 15.4857 18.3975 15.7432 18.3975 16.0066C18.3975 16.27 18.3195 16.5275 18.1733 16.7466L16.4 19.4133C16.2779 19.5986 16.1116 19.7505 15.916 19.8553C15.7205 19.96 15.5018 20.0143 15.28 20.0133H2.66663V21.3466C2.66663 21.7002 2.8071 22.0394 3.05715 22.2894C3.3072 22.5395 3.64634 22.6799 3.99996 22.6799H16.6133C16.8352 22.681 17.0538 22.6267 17.2494 22.5219C17.4449 22.4172 17.6113 22.2652 17.7333 22.0799L20 18.6666H22.6666C23.0202 18.6666 23.3594 18.5261 23.6094 18.2761C23.8595 18.026 24 17.6869 24 17.3333V14.6666C24 14.313 23.8595 13.9738 23.6094 13.7238C23.3594 13.4737 23.0202 13.3333 22.6666 13.3333H20L17.7333 9.93327C17.6113 9.74797 17.4449 9.59605 17.2494 9.49128C17.0538 9.38651 16.8352 9.3322 16.6133 9.33327H3.99996C3.64634 9.33327 3.3072 9.47374 3.05715 9.72379C2.8071 9.97384 2.66663 10.313 2.66663 10.6666Z" fill="white"/>
</mask>
<g mask="url(#mask2_845_19649)">
<path d="M32 0H0V32H32V0Z" fill="#A6CAFD"/>
<mask id="mask3_845_19649" style="mask-type:luminance" maskUnits="userSpaceOnUse" x="0" y="0" width="32" height="32">
<path d="M32 0H0V32H32V0Z" fill="white"/>
</mask>
<g mask="url(#mask3_845_19649)">
<path d="M32 2.66675H-4V29.3334H32V2.66675Z" fill="#A6CAFD"/>
</g>
</g>
<path fill-rule="evenodd" clip-rule="evenodd" d="M20 24H15.3866C15.1648 24.001 14.9461 23.9467 14.7506 23.842C14.555 23.7372 14.3887 23.5853 14.2666 23.4L10.6666 17.9333C10.541 17.7422 10.3683 17.5866 10.1651 17.4816C9.96197 17.3765 9.7352 17.3254 9.50663 17.3333H2.66663V20H5.33329V18.6666H7.27996C7.50183 18.6656 7.72045 18.7199 7.91602 18.8247C8.1116 18.9294 8.27793 19.0813 8.39996 19.2666L12.9333 26.0666C13.0553 26.2519 13.2217 26.4039 13.4172 26.5086C13.6128 26.6134 13.8314 26.6677 14.0533 26.6666H21.3333C21.6869 26.6666 22.0261 26.5262 22.2761 26.2761C22.5262 26.0261 22.6666 25.6869 22.6666 25.3333V22.6666H28C28.3536 22.6666 28.6927 22.5262 28.9428 22.2761C29.1928 22.0261 29.3333 21.6869 29.3333 21.3333C29.3333 20.9797 29.1928 20.6406 28.9428 20.3905C28.6927 20.1405 28.3536 20 28 20H21.3333C20.9797 20 20.6405 20.1405 20.3905 20.3905C20.1404 20.6406 20 20.9797 20 21.3333V24Z" fill="#559CFC"/>
<mask id="mask4_845_19649" style="mask-type:luminance" maskUnits="userSpaceOnUse" x="2" y="17" width="28" height="10">
<path d="M20 24H15.3866C15.1648 24.001 14.9461 23.9467 14.7506 23.842C14.555 23.7372 14.3887 23.5853 14.2666 23.4L10.6666 17.9333C10.541 17.7422 10.3683 17.5866 10.1651 17.4816C9.96197 17.3765 9.7352 17.3254 9.50663 17.3333H2.66663V20H5.33329V18.6666H7.27996C7.50183 18.6656 7.72045 18.7199 7.91602 18.8247C8.1116 18.9294 8.27793 19.0813 8.39996 19.2666L12.9333 26.0666C13.0553 26.2519 13.2217 26.4039 13.4172 26.5086C13.6128 26.6134 13.8314 26.6677 14.0533 26.6666H21.3333C21.6869 26.6666 22.0261 26.5262 22.2761 26.2761C22.5262 26.0261 22.6666 25.6869 22.6666 25.3333V22.6666H28C28.3536 22.6666 28.6927 22.5262 28.9428 22.2761C29.1928 22.0261 29.3333 21.6869 29.3333 21.3333C29.3333 20.9797 29.1928 20.6406 28.9428 20.3905C28.6927 20.1405 28.3536 20 28 20H21.3333C20.9797 20 20.6405 20.1405 20.3905 20.3905C20.1404 20.6406 20 20.9797 20 21.3333V24Z" fill="white"/>
</mask>
<g mask="url(#mask4_845_19649)">
<path d="M32 0H0V32H32V0Z" fill="#559CFC"/>
<mask id="mask5_845_19649" style="mask-type:luminance" maskUnits="userSpaceOnUse" x="0" y="0" width="32" height="32">
<path d="M32 0H0V32H32V0Z" fill="white"/>
</mask>
<g mask="url(#mask5_845_19649)">
<path d="M36 10.6667H-4V33.3334H36V10.6667Z" fill="#559CFC"/>
</g>
</g>
<path fill-rule="evenodd" clip-rule="evenodd" d="M22.6666 9.33327V6.6666C22.6666 6.31298 22.5262 5.97384 22.2761 5.72379C22.0261 5.47374 21.6869 5.33327 21.3333 5.33327H14.0533C13.8314 5.3322 13.6128 5.38651 13.4172 5.49128C13.2217 5.59605 13.0553 5.74797 12.9333 5.93327L8.39996 12.7333C8.27793 12.9186 8.1116 13.0705 7.91602 13.1753C7.72045 13.28 7.50183 13.3343 7.27996 13.3333H5.33329V11.9999H2.66663V14.6666H9.50663C9.7352 14.6745 9.96197 14.6234 10.1651 14.5183C10.3683 14.4133 10.541 14.2577 10.6666 14.0666L14.32 8.59993C14.4369 8.42202 14.5948 8.27471 14.7804 8.17032C14.966 8.06594 15.1738 8.00751 15.3866 7.99993H20V10.6666C20 11.0202 20.1404 11.3594 20.3905 11.6094C20.6405 11.8595 20.9797 11.9999 21.3333 11.9999H28C28.3536 11.9999 28.6927 11.8595 28.9428 11.6094C29.1928 11.3594 29.3333 11.0202 29.3333 10.6666C29.3333 10.313 29.1928 9.97384 28.9428 9.72379C28.6927 9.47374 28.3536 9.33327 28 9.33327H22.6666Z" fill="#559CFC"/>
<mask id="mask6_845_19649" style="mask-type:luminance" maskUnits="userSpaceOnUse" x="2" y="5" width="28" height="10">
<path d="M22.6666 9.33327V6.6666C22.6666 6.31298 22.5262 5.97384 22.2761 5.72379C22.0261 5.47374 21.6869 5.33327 21.3333 5.33327H14.0533C13.8314 5.3322 13.6128 5.38651 13.4172 5.49128C13.2217 5.59605 13.0553 5.74797 12.9333 5.93327L8.39996 12.7333C8.27793 12.9186 8.1116 13.0705 7.91602 13.1753C7.72045 13.28 7.50183 13.3343 7.27996 13.3333H5.33329V11.9999H2.66663V14.6666H9.50663C9.7352 14.6745 9.96197 14.6234 10.1651 14.5183C10.3683 14.4133 10.541 14.2577 10.6666 14.0666L14.32 8.59993C14.4369 8.42202 14.5948 8.27471 14.7804 8.17032C14.966 8.06594 15.1738 8.00751 15.3866 7.99993H20V10.6666C20 11.0202 20.1404 11.3594 20.3905 11.6094C20.6405 11.8595 20.9797 11.9999 21.3333 11.9999H28C28.3536 11.9999 28.6927 11.8595 28.9428 11.6094C29.1928 11.3594 29.3333 11.0202 29.3333 10.6666C29.3333 10.313 29.1928 9.97384 28.9428 9.72379C28.6927 9.47374 28.3536 9.33327 28 9.33327H22.6666Z" fill="white"/>
</mask>
<g mask="url(#mask6_845_19649)">
<path d="M32 0H0V32H32V0Z" fill="#559CFC"/>
<mask id="mask7_845_19649" style="mask-type:luminance" maskUnits="userSpaceOnUse" x="0" y="0" width="32" height="32">
<path d="M32 0H0V32H32V0Z" fill="white"/>
</mask>
<g mask="url(#mask7_845_19649)">
<path d="M36 -1.33325H-4V21.3334H36V-1.33325Z" fill="#559CFC"/>
</g>
</g>
<path d="M14 17.6666C14.9205 17.6666 15.6667 16.9204 15.6667 15.9999C15.6667 15.0794 14.9205 14.3333 14 14.3333C13.0796 14.3333 12.3334 15.0794 12.3334 15.9999C12.3334 16.9204 13.0796 17.6666 14 17.6666Z" fill="#2683FB"/>
<mask id="mask8_845_19649" style="mask-type:luminance" maskUnits="userSpaceOnUse" x="12" y="14" width="4" height="4">
<path d="M14 17.6666C14.9205 17.6666 15.6667 16.9204 15.6667 15.9999C15.6667 15.0794 14.9205 14.3333 14 14.3333C13.0796 14.3333 12.3334 15.0794 12.3334 15.9999C12.3334 16.9204 13.0796 17.6666 14 17.6666Z" fill="white"/>
</mask>
<g mask="url(#mask8_845_19649)">
<path d="M32 0H0V32H32V0Z" fill="#2683FB"/>
<mask id="mask9_845_19649" style="mask-type:luminance" maskUnits="userSpaceOnUse" x="0" y="0" width="32" height="32">
<path d="M32 0H0V32H32V0Z" fill="white"/>
</mask>
<g mask="url(#mask9_845_19649)">
<path d="M22.3333 7.66675H5.66663V24.3334H22.3333V7.66675Z" fill="#2683FB"/>
</g>
</g>
<path d="M10.0666 24H3.95996C3.24567 24 2.66663 24.579 2.66663 25.2933V25.3733C2.66663 26.0876 3.24567 26.6667 3.95996 26.6667H10.0666C10.7809 26.6667 11.36 26.0876 11.36 25.3733V25.2933C11.36 24.579 10.7809 24 10.0666 24Z" fill="#2683FB"/>
<path d="M10.0666 5.33325H3.95996C3.24567 5.33325 2.66663 5.9123 2.66663 6.62659V6.70659C2.66663 7.42087 3.24567 7.99992 3.95996 7.99992H10.0666C10.7809 7.99992 11.36 7.42087 11.36 6.70659V6.62659C11.36 5.9123 10.7809 5.33325 10.0666 5.33325Z" fill="#2683FB"/>
</g>
<defs>
<clipPath id="clip0_845_19649">
<rect width="32" height="32" fill="white"/>
</clipPath>
</defs>
</svg>
