<svg width="32" height="32" viewBox="0 0 32 32" fill="none" xmlns="http://www.w3.org/2000/svg">
<path fill-rule="evenodd" clip-rule="evenodd" d="M16.72 16.5733V10.6666C17.0289 10.5159 17.2775 10.2649 17.4254 9.95471C17.5733 9.64449 17.6117 9.29332 17.5344 8.95848C17.457 8.62363 17.2685 8.32488 16.9995 8.11096C16.7305 7.89705 16.397 7.78059 16.0534 7.78059C15.7097 7.78059 15.3762 7.89705 15.1072 8.11096C14.8382 8.32488 14.6497 8.62363 14.5724 8.95848C14.495 9.29332 14.5334 9.64449 14.6813 9.95471C14.8292 10.2649 15.0778 10.5159 15.3867 10.6666V16.5599H9.69336V12.7999C9.99471 12.6422 10.2344 12.3879 10.3742 12.0778C10.514 11.7677 10.5457 11.4197 10.4643 11.0894C10.3829 10.7592 10.193 10.4658 9.92516 10.2562C9.65728 10.0466 9.32683 9.93286 8.98669 9.93325C8.64769 9.93582 8.31927 10.0516 8.05365 10.2623C7.78804 10.473 7.60047 10.7664 7.52078 11.0959C7.44108 11.4254 7.47383 11.7721 7.61382 12.0809C7.7538 12.3896 7.99299 12.6427 8.29336 12.7999V16.5733H8.00002C7.2524 16.5703 6.51457 16.4029 5.83894 16.0828C5.16331 15.7626 4.56644 15.2977 4.09071 14.7209C3.61498 14.1442 3.27205 13.4698 3.08627 12.7456C2.90049 12.0214 2.87642 11.2652 3.01576 10.5307C3.1551 9.79614 3.45444 9.10129 3.89253 8.49545C4.33062 7.88961 4.89671 7.38765 5.55061 7.0252C6.20451 6.66275 6.93018 6.44869 7.67611 6.39824C8.42204 6.34778 9.16994 6.46216 9.86669 6.73325C10.4237 5.53754 11.309 4.52473 12.4195 3.81283C13.5299 3.10092 14.8198 2.71924 16.1389 2.71226C17.458 2.70527 18.7518 3.07327 19.8698 3.77337C20.9877 4.47347 21.8837 5.47684 22.4534 6.66659C22.9827 6.49257 23.5361 6.40259 24.0934 6.39992C25.4477 6.39992 26.7466 6.93794 27.7043 7.89563C28.662 8.85331 29.2 10.1522 29.2 11.5066C29.2 12.861 28.662 14.1599 27.7043 15.1175C26.7466 16.0752 25.4477 16.6133 24.0934 16.6133H23.76V12.7999C24.0609 12.6419 24.3001 12.3877 24.4395 12.0778C24.579 11.7679 24.6105 11.4202 24.5292 11.0903C24.4478 10.7603 24.2582 10.4672 23.9907 10.2576C23.7232 10.0481 23.3932 9.93418 23.0534 9.93418C22.7135 9.93418 22.3835 10.0481 22.116 10.2576C21.8485 10.4672 21.6589 10.7603 21.5776 11.0903C21.4962 11.4202 21.5278 11.7679 21.6672 12.0778C21.8066 12.3877 22.0458 12.6419 22.3467 12.7999V16.5733H16.72Z" fill="#4285F4"/>
<path fill-rule="evenodd" clip-rule="evenodd" d="M9.69335 20.5199C10.29 20.6607 10.8199 21.0027 11.1938 21.4884C11.5678 21.9741 11.7631 22.5738 11.7467 23.1866C11.7476 23.7028 11.6037 24.209 11.3313 24.6476C11.0589 25.0862 10.669 25.4395 10.2058 25.6676C9.7426 25.8956 9.22475 25.9892 8.71105 25.9376C8.19736 25.886 7.70843 25.6914 7.29981 25.3759C6.89119 25.0604 6.57926 24.6365 6.39946 24.1526C6.21967 23.6686 6.17922 23.144 6.2827 22.6382C6.38619 22.1324 6.62946 21.6657 6.98489 21.2913C7.34031 20.9169 7.79363 20.6496 8.29335 20.5199V16.5732H9.62668L9.69335 20.5199ZM8.98668 24.5199C9.3403 24.5199 9.67944 24.3794 9.92949 24.1294C10.1795 23.8793 10.32 23.5402 10.32 23.1866C10.32 22.833 10.1795 22.4938 9.92949 22.2438C9.67944 21.9937 9.3403 21.8532 8.98668 21.8532C8.63306 21.8532 8.29392 21.9937 8.04387 22.2438C7.79382 22.4938 7.65335 22.833 7.65335 23.1866C7.65335 23.5402 7.79382 23.8793 8.04387 24.1294C8.29392 24.3794 8.63306 24.5199 8.98668 24.5199ZM23.76 20.5199C24.408 20.6915 24.9713 21.0931 25.3449 21.6496C25.7185 22.2061 25.8768 22.8795 25.7903 23.5442C25.7037 24.2089 25.3783 24.8194 24.8746 25.2617C24.371 25.704 23.7236 25.9479 23.0533 25.9479C22.3831 25.9479 21.7357 25.704 21.2321 25.2617C20.7284 24.8194 20.403 24.2089 20.3164 23.5442C20.2299 22.8795 20.3882 22.2061 20.7618 21.6496C21.1354 21.0931 21.6987 20.6915 22.3467 20.5199V16.5866H23.76V20.5199ZM23.0533 24.5199C23.373 24.5368 23.688 24.4381 23.9409 24.2419C24.1938 24.0457 24.3677 23.765 24.4308 23.4512C24.4938 23.1374 24.4419 22.8114 24.2845 22.5327C24.1271 22.254 23.8747 22.0412 23.5733 21.9332C23.3931 21.8687 23.2011 21.8436 23.0103 21.8599C22.8196 21.8762 22.6345 21.9333 22.4678 22.0275C22.3011 22.1216 22.1567 22.2506 22.0443 22.4056C21.9318 22.5606 21.8541 22.7379 21.8164 22.9256C21.7787 23.1133 21.7818 23.307 21.8256 23.4933C21.8694 23.6797 21.9528 23.8545 22.0701 24.0058C22.1875 24.157 22.3361 24.2812 22.5057 24.37C22.6754 24.4587 22.8622 24.5098 23.0533 24.5199ZM16.72 23.9466C17.3703 24.1093 17.9386 24.5041 18.3179 25.0568C18.6972 25.6094 18.8614 26.2817 18.7794 26.947C18.6974 27.6122 18.375 28.2246 17.8729 28.6686C17.3708 29.1127 16.7236 29.3578 16.0533 29.3578C15.383 29.3578 14.7359 29.1127 14.2338 28.6686C13.7317 28.2246 13.4093 27.6122 13.3273 26.947C13.2453 26.2817 13.4095 25.6094 13.7888 25.0568C14.1681 24.5041 14.7364 24.1093 15.3867 23.9466V16.6132H16.8L16.72 23.9466ZM16 27.9466C16.2856 27.9451 16.5632 27.8521 16.7919 27.681C17.0206 27.51 17.1883 27.27 17.2704 26.9964C17.3525 26.7229 17.3446 26.4302 17.2478 26.1615C17.151 25.8928 16.9706 25.6623 16.7329 25.5039C16.4953 25.3454 16.2131 25.2675 15.9278 25.2815C15.6426 25.2956 15.3694 25.4008 15.1484 25.5818C14.9275 25.7628 14.7705 26.0099 14.7006 26.2868C14.6307 26.5637 14.6515 26.8557 14.76 27.1199C14.865 27.3605 15.0387 27.5648 15.2593 27.7071C15.4798 27.8494 15.7375 27.9234 16 27.9199V27.9466Z" fill="#669DF6"/>
</svg>
