<svg width="32" height="32" viewBox="0 0 32 32" fill="none" xmlns="http://www.w3.org/2000/svg">
<path fill-rule="evenodd" clip-rule="evenodd" d="M15.0933 22.7467H13.3333V24.6134H15.16V25.4534H17.0667V16.2401C18.0721 16.0019 18.9689 15.434 19.6141 14.6269C20.2593 13.8198 20.6158 12.82 20.6267 11.7867C20.6246 10.9242 20.3779 10.0799 19.9152 9.35188C19.4525 8.62389 18.7929 8.04205 18.0128 7.67392C17.2327 7.3058 16.3642 7.16648 15.5081 7.27214C14.652 7.37779 13.8435 7.7241 13.1763 8.27085C12.5092 8.8176 12.0107 9.54237 11.739 10.361C11.4672 11.1797 11.4332 12.0586 11.6409 12.8958C11.8486 13.733 12.2895 14.4941 12.9124 15.0908C13.5353 15.6875 14.3147 16.0952 15.16 16.2667V19.0934H12.3467V20.9601H15.0933V22.7467ZM16 2.66675L26.9467 7.22675V14.7334C26.9467 21.4801 22.28 27.8001 16 29.4001C9.72001 27.8667 5.05334 21.5467 5.05334 14.8001V7.22675L16 2.66675ZM16 9.33341C16.5818 9.33089 17.1464 9.53083 17.5969 9.89895C18.0474 10.2671 18.3559 10.7804 18.4694 11.3511C18.5829 11.9217 18.4943 12.514 18.219 13.0265C17.9436 13.539 17.4985 13.9398 16.96 14.1601C16.6178 14.3001 16.2489 14.3626 15.8797 14.3433C15.5104 14.3239 15.1501 14.2231 14.8244 14.0481C14.4987 13.8731 14.2158 13.6283 13.9958 13.3311C13.7759 13.0338 13.6245 12.6917 13.5524 12.329C13.4802 11.9664 13.4892 11.5923 13.5787 11.2336C13.6681 10.8748 13.8358 10.5403 14.0698 10.254C14.3037 9.96772 14.5981 9.73671 14.9318 9.57755C15.2655 9.41839 15.6303 9.33502 16 9.33341Z" fill="#669DF6"/>
<path fill-rule="evenodd" clip-rule="evenodd" d="M16 25.4534H17V16.2401C18.0055 16.0019 18.9023 15.434 19.5475 14.6269C20.1927 13.8198 20.5491 12.82 20.56 11.7867C20.56 10.5774 20.0796 9.41751 19.2244 8.56234C18.3692 7.70717 17.2094 7.22675 16 7.22675V2.66675L26.9467 7.22675V14.7334C26.9467 21.4801 22.28 27.8001 16 29.4001V25.4534ZM16 9.33341C16.5818 9.33089 17.1464 9.53083 17.5969 9.89895C18.0474 10.2671 18.3559 10.7804 18.4694 11.3511C18.5829 11.9217 18.4943 12.514 18.2189 13.0265C17.9436 13.539 17.4985 13.9398 16.96 14.1601C16.6728 14.336 16.3335 14.4066 16 14.3601V9.33341Z" fill="#4285F4"/>
</svg>
