<svg width="32" height="32" viewBox="0 0 32 32" fill="none" xmlns="http://www.w3.org/2000/svg">
<mask id="mask0_845_19745" style="mask-type:luminance" maskUnits="userSpaceOnUse" x="2" y="2" width="28" height="23">
<path d="M29.3126 2.6875H2.6875V24.1406H29.3126V2.6875Z" fill="white"/>
</mask>
<g mask="url(#mask0_845_19745)">
<path d="M28.8028 15.0257L25.3984 13.9631C25.5435 14.6301 25.6172 15.3106 25.6179 15.9931C25.6179 16.4731 25.5822 16.9531 25.5116 17.4282H28.806C28.9416 17.4075 29.0654 17.3406 29.1572 17.2394C29.2498 17.1382 29.304 17.0082 29.3122 16.8719V15.5863C29.304 15.4494 29.2491 15.3201 29.1572 15.2187C29.0647 15.1175 28.941 15.0506 28.806 15.0301" fill="#669DF6"/>
<path d="M16.0626 6.37438C16.7326 6.37501 17.4014 6.44501 18.057 6.58313L16.8351 3.19375C16.8144 3.05813 16.747 2.93313 16.6451 2.84126C16.5432 2.74875 16.4126 2.69438 16.2751 2.6875H15.7651C15.6276 2.69438 15.497 2.74813 15.3944 2.84063C15.2926 2.93313 15.2258 3.05813 15.2051 3.19375L14.1426 6.56938C14.772 6.44189 15.4132 6.37813 16.0558 6.37813" fill="#669DF6"/>
<path d="M6.38261 15.9931C6.38199 15.3088 6.45449 14.6256 6.59886 13.9563L3.19449 15.0188C3.05886 15.04 2.93386 15.107 2.84199 15.2088C2.74949 15.3107 2.69511 15.4412 2.68823 15.5788V16.8644C2.69637 17.0012 2.75137 17.1307 2.84323 17.2319C2.93511 17.3331 3.05949 17.3994 3.19449 17.4207H6.48886C6.41761 16.9456 6.38199 16.4663 6.38261 15.9856V15.9931Z" fill="#669DF6"/>
<path fill-rule="evenodd" clip-rule="evenodd" d="M21.7614 10.2319C20.2333 8.70382 18.1607 7.8457 16.0001 7.8457C14.3889 7.8457 12.8132 8.3232 11.4732 9.2182C10.1339 10.1138 9.08949 11.3863 8.47261 12.8751C7.85575 14.3639 7.69449 16.002 8.00887 17.5825C8.32324 19.1632 9.09949 20.6151 10.2389 21.7544C11.3782 22.8939 12.8301 23.6695 14.4107 23.9839C15.9907 24.2981 17.6295 24.1369 19.1182 23.5207C20.607 22.9039 21.8795 21.8595 22.7745 20.5195C23.6701 19.1801 24.1477 17.6044 24.1477 15.9932C24.1477 13.832 23.2895 11.7594 21.7614 10.2319ZM20.2282 11.6419L17.7338 13.4169L17.7251 13.4132C17.5033 13.5757 17.1914 13.5357 17.0189 13.3182C16.9482 13.2295 16.9114 13.1244 16.907 13.0188L16.9038 13.0176L16.7307 9.94882C18.0589 10.1132 19.2877 10.7163 20.2282 11.6419ZM16.4677 15.0057L17.0514 15.7383L16.8419 16.6525L15.9989 17.0595L15.1526 16.6513L14.9433 15.7369L15.5282 15.0057H16.4677ZM14.6451 10.0563C14.8533 10.0094 15.0607 9.97445 15.2677 9.94882L15.0945 13.0226L15.0819 13.0288C15.0701 13.3038 14.8445 13.5239 14.5677 13.5239C14.4545 13.5239 14.3495 13.4869 14.2645 13.4244L14.2595 13.4269L11.7489 11.6407C12.5201 10.8788 13.5077 10.3157 14.6451 10.0563ZM9.98512 16.6083C9.83512 15.2357 10.1576 13.9013 10.8382 12.7888L13.1307 14.8469L13.1282 14.8595C13.3351 15.0401 13.3657 15.3532 13.1932 15.5707C13.1226 15.6595 13.0276 15.7195 12.9264 15.7469L12.9239 15.7569L9.98512 16.6083ZM13.9077 18.2563L12.7401 21.0883C11.6489 20.3851 10.7795 19.3325 10.3139 18.0407L13.3276 17.5276L13.3326 17.5339C13.3663 17.5276 13.4007 17.5244 13.4338 17.5251C13.6657 17.5283 13.8738 17.6901 13.9277 17.9269C13.9533 18.0376 13.9407 18.1476 13.8989 18.2451L13.9077 18.2563ZM17.3545 21.8983C16.2182 22.1576 15.0857 22.0788 14.0601 21.7283L15.5419 19.0388H15.5445C15.6333 18.872 15.8019 18.7725 15.9801 18.7657C16.0607 18.7625 16.1426 18.7795 16.2207 18.8169C16.3226 18.8663 16.4019 18.9444 16.4514 19.0376H16.4626L17.9482 21.732C17.7557 21.7969 17.557 21.852 17.3545 21.8983ZM19.2695 21.0995L18.0895 18.2388L18.0933 18.2339C17.9845 17.9807 18.0933 17.6844 18.3426 17.5639C18.4063 17.5332 18.4733 17.5157 18.5395 17.5125C18.5795 17.5107 18.6189 17.5139 18.6582 17.5213L18.6633 17.5151L21.7033 18.0307C21.2582 19.2857 20.407 20.372 19.2695 21.0995ZM22.0226 16.5988L19.0682 15.7444L19.0657 15.732C18.8014 15.6595 18.6389 15.3895 18.7007 15.1188C18.7257 15.0076 18.7845 14.9139 18.8638 14.8444L18.8626 14.8383L21.1426 12.7901C21.4833 13.3439 21.7414 13.9632 21.8951 14.6339C22.047 15.2969 22.0851 15.9588 22.0226 16.5988Z" fill="#4285F4"/>
</g>
</svg>
