<svg width="32" height="32" viewBox="0 0 32 32" fill="none" xmlns="http://www.w3.org/2000/svg">
<path d="M20.9961 13.3761L24.7394 15.5532C24.9327 15.6656 24.9983 15.9134 24.8859 16.1067C24.8512 16.1664 24.8017 16.2162 24.7423 16.2515L19.2627 19.4974L25.1278 22.8114C25.2549 22.8832 25.3334 23.0179 25.3334 23.1638V26.2521C25.3334 26.4757 25.1522 26.657 24.9286 26.657C24.8571 26.657 24.7869 26.638 24.7251 26.6021L15.9161 21.4801L7.27797 26.6C7.08561 26.7139 6.83728 26.6504 6.7233 26.458C6.68628 26.3956 6.66675 26.3243 6.66675 26.2517V23.1667C6.66675 23.0226 6.74332 22.8894 6.86783 22.8168L18.7429 15.8999L17.6387 15.2748L20.9961 13.3761ZM7.07159 5.34326C7.14308 5.34326 7.21329 5.36219 7.27509 5.39813L16.0827 10.5188L24.7222 5.40025C24.9145 5.28627 25.1629 5.34981 25.2769 5.54216C25.3139 5.60464 25.3334 5.67592 25.3334 5.74854V8.83355C25.3334 8.97764 25.2568 9.11086 25.1323 9.18338L13.2572 16.1003L14.3614 16.7254L11.0041 18.6241L7.26075 16.447C7.06746 16.3346 7.00188 16.0868 7.11427 15.8935C7.149 15.8338 7.19843 15.784 7.25787 15.7488L12.7347 12.5028L6.87235 9.18881C6.7453 9.11698 6.66675 8.98233 6.66675 8.83639V5.7481C6.66675 5.52452 6.848 5.34326 7.07159 5.34326Z" fill="#4285F4"/>
</svg>
