<svg width="32" height="32" viewBox="0 0 32 32" fill="none" xmlns="http://www.w3.org/2000/svg">
<path d="M8.77143 1.77808C7.34903 1.77808 6.28223 2.84488 6.28223 4.26728C6.28223 4.74141 6.40076 5.21554 6.75636 5.68968L7.82316 4.62288C7.82316 4.50434 7.82316 4.38581 7.82316 4.26728C7.82316 3.67461 8.29729 3.20048 8.88996 3.20048C9.48263 3.20048 9.95676 3.67461 9.95676 4.26728C9.95676 4.85994 9.48263 5.33408 8.88996 5.33408C8.77143 5.33408 8.65289 5.33408 8.53436 5.33408L7.46756 6.28234C8.65289 6.99354 10.1938 6.75648 10.905 5.57114C11.6162 4.38581 11.3792 2.84488 10.1938 2.13368C9.83823 1.89661 9.36409 1.77808 8.77143 1.77808Z" fill="#D2E3FC"/>
<path d="M7.82318 9.00861C7.82318 8.17887 7.58612 7.34914 7.11198 6.63794L5.68958 8.06034C5.80812 8.41594 5.92665 8.65301 5.92665 9.00861C5.92665 9.60127 5.68958 10.0754 5.33398 10.431L6.04518 12.3275C7.23052 11.6163 7.82318 10.3125 7.82318 9.00861Z" fill="#5E97F6"/>
<path d="M4.03013 11.0236C2.96333 11.0236 2.01507 10.1939 2.01507 9.12706C2.01507 8.06026 2.8448 7.11199 3.9116 7.11199C4.2672 7.11199 4.74133 7.23052 5.09693 7.46759L6.51933 6.16372C5.6896 5.45252 4.85987 5.09692 3.9116 5.09692C1.778 5.09692 0 6.87492 0 9.00852C0 11.1421 1.65947 12.9201 3.9116 12.9201C4.14867 12.9201 4.50427 12.9201 4.74133 12.8016L4.03013 11.0236Z" fill="#5E97F6"/>
<path d="M8.89 12.5647C8.06027 12.5647 7.23053 12.6832 6.4008 12.9203L7.4676 15.528C7.94173 15.528 8.41587 15.4095 8.89 15.4095C12.2089 15.4095 14.8167 18.1358 14.8167 21.3362C14.8167 24.6551 12.0904 27.2628 8.89 27.2628C5.57107 27.2628 2.96333 24.5366 2.96333 21.3362C2.96333 19.084 4.14867 17.069 6.16373 16.1207L5.09693 13.513C0.7112 15.6466 -1.0668 20.9806 1.0668 25.2478C3.2004 29.6335 8.5344 31.4115 12.8016 29.2779C17.1873 27.1443 18.9653 21.8103 16.8317 17.5431C15.2908 14.5798 12.2089 12.5647 8.89 12.5647Z" fill="#4285F4"/>
</svg>
