<svg width="32" height="32" viewBox="0 0 32 32" fill="none" xmlns="http://www.w3.org/2000/svg">
<path d="M14.6667 2.66675V29.3334L28.0001 18.6667L14.6667 2.66675Z" fill="#669DF6"/>
<path d="M14.6667 2.66675L13.36 4.22675L25.16 18.3734L13.4267 27.7734L14.68 29.3334L28 18.6534L14.6667 2.66675Z" fill="#4285F4"/>
<path d="M14.6667 2.66675L9.33337 9.00008C9.92772 9.31767 10.4357 9.77532 10.8134 10.3334L14.6667 5.78675V2.66675Z" fill="#669DF6"/>
<path d="M11.1334 24C10.8696 24.6266 10.4467 25.1735 9.90674 25.5867L14.6667 29.3333V26.7733L11.1334 24Z" fill="#669DF6"/>
<path d="M8 13.3333C7.73629 13.3333 7.47851 13.2551 7.25924 13.1086C7.03998 12.9621 6.86908 12.7539 6.76816 12.5102C6.66725 12.2666 6.64084 11.9985 6.69229 11.7399C6.74374 11.4812 6.87072 11.2437 7.05719 11.0572C7.24366 10.8707 7.48124 10.7437 7.73988 10.6923C7.99852 10.6408 8.26661 10.6672 8.51025 10.7682C8.75388 10.8691 8.96212 11.04 9.10863 11.2592C9.25514 11.4785 9.33334 11.7363 9.33334 12C9.33334 12.3536 9.19286 12.6928 8.94281 12.9428C8.69276 13.1929 8.35362 13.3333 8 13.3333ZM8 8C7.20888 8 6.43552 8.2346 5.77772 8.67412C5.11992 9.11365 4.60723 9.73836 4.30448 10.4693C4.00173 11.2002 3.92252 12.0044 4.07686 12.7804C4.2312 13.5563 4.61216 14.269 5.17157 14.8284C5.73098 15.3878 6.44372 15.7688 7.21964 15.9231C7.99556 16.0775 8.79983 15.9983 9.53074 15.6955C10.2616 15.3928 10.8864 14.8801 11.3259 14.2223C11.7654 13.5645 12 12.7911 12 12C12 10.9391 11.5786 9.92172 10.8284 9.17157C10.0783 8.42143 9.06087 8 8 8Z" fill="#AECBFA"/>
<path d="M8 24.0001C7.73629 24.0001 7.47851 23.9219 7.25924 23.7754C7.03998 23.6289 6.86908 23.4206 6.76816 23.177C6.66725 22.9334 6.64084 22.6653 6.69229 22.4066C6.74374 22.148 6.87072 21.9104 7.05719 21.7239C7.24366 21.5375 7.48124 21.4105 7.73988 21.359C7.99852 21.3076 8.26661 21.334 8.51025 21.4349C8.75388 21.5358 8.96212 21.7067 9.10863 21.926C9.25514 22.1453 9.33334 22.403 9.33334 22.6667C9.33334 23.0204 9.19286 23.3595 8.94281 23.6096C8.69276 23.8596 8.35362 24.0001 8 24.0001ZM8 18.6667C7.20888 18.6667 6.43552 18.9013 5.77772 19.3409C5.11992 19.7804 4.60723 20.4051 4.30448 21.136C4.00173 21.8669 3.92252 22.6712 4.07686 23.4471C4.2312 24.223 4.61216 24.9358 5.17157 25.4952C5.73098 26.0546 6.44372 26.4355 7.21964 26.5899C7.99556 26.7442 8.79983 26.665 9.53074 26.3623C10.2616 26.0595 10.8864 25.5468 11.3259 24.889C11.7654 24.2312 12 23.4579 12 22.6667C12 21.6059 11.5786 20.5885 10.8284 19.8383C10.0783 19.0882 9.06087 18.6667 8 18.6667Z" fill="#AECBFA"/>
</svg>
