<svg width="32" height="32" viewBox="0 0 32 32" fill="none" xmlns="http://www.w3.org/2000/svg">
<path d="M24.7466 4C24.8114 3.99822 24.8759 4.00923 24.9365 4.0324C24.997 4.05557 25.0524 4.09043 25.0994 4.13501C25.1465 4.17959 25.1843 4.233 25.2107 4.29219C25.2371 4.35139 25.2516 4.41521 25.2533 4.48V10.0133C25.2339 10.1319 25.1729 10.2398 25.0813 10.3176C24.9897 10.3954 24.8735 10.4381 24.7533 10.4381C24.6331 10.4381 24.5169 10.3954 24.4253 10.3176C24.3337 10.2398 24.2727 10.1319 24.2533 10.0133V4.52C24.2497 4.45301 24.2598 4.38598 24.2829 4.32301C24.3061 4.26004 24.3418 4.20246 24.388 4.15379C24.4342 4.10512 24.4898 4.06637 24.5515 4.03993C24.6131 4.01349 24.6795 3.9999 24.7466 4ZM28.9466 5.88V8C28.9449 8.06479 28.9304 8.12861 28.904 8.1878C28.8776 8.247 28.8398 8.30041 28.7928 8.34499C28.7457 8.38956 28.6903 8.42443 28.6298 8.4476C28.5693 8.47076 28.5048 8.48177 28.44 8.48C28.3197 8.46994 28.2077 8.41497 28.1261 8.32602C28.0446 8.23707 27.9995 8.12067 28 8V5.92C27.9999 5.85583 28.0128 5.7923 28.0377 5.73318C28.0627 5.67406 28.0992 5.62054 28.1452 5.57579C28.1912 5.53103 28.2457 5.49596 28.3055 5.47264C28.3653 5.44931 28.4292 5.43822 28.4933 5.44C28.6148 5.44985 28.7284 5.50435 28.8121 5.59298C28.8958 5.68162 28.9437 5.79812 28.9466 5.92V5.88ZM26.0933 3.56V10.6667C26.1127 10.7853 26.1737 10.8931 26.2653 10.9709C26.3569 11.0487 26.4731 11.0914 26.5933 11.0914C26.7135 11.0914 26.8297 11.0487 26.9213 10.9709C27.0129 10.8931 27.0739 10.7853 27.0933 10.6667V3.56C27.0739 3.4414 27.0129 3.33358 26.9213 3.25577C26.8297 3.17797 26.7135 3.13525 26.5933 3.13525C26.4731 3.13525 26.3569 3.17797 26.2653 3.25577C26.1737 3.33358 26.1127 3.4414 26.0933 3.56ZM22.4266 5.58667V8.54666C22.4461 8.66526 22.507 8.77309 22.5986 8.85089C22.6902 8.9287 22.8065 8.97141 22.9266 8.97141C23.0468 8.97141 23.1631 8.9287 23.2547 8.85089C23.3463 8.77309 23.4072 8.66526 23.4266 8.54666V5.58667C23.4072 5.46807 23.3463 5.36024 23.2547 5.28244C23.1631 5.20464 23.0468 5.16192 22.9266 5.16192C22.8065 5.16192 22.6902 5.20464 22.5986 5.28244C22.507 5.36024 22.4461 5.46807 22.4266 5.58667Z" fill="#AECBFA"/>
<path d="M3 27.7734V7.06673C2.99999 6.40422 3.26225 5.76865 3.72947 5.29894C4.19668 4.82923 4.83084 4.56358 5.49333 4.56006H21.2V6.56006H5.49333C5.36128 6.56353 5.23581 6.61845 5.14365 6.71309C5.0515 6.80773 4.99995 6.93463 5 7.06673V22.9467L6.41333 21.5334H25.08C25.2121 21.5299 25.3375 21.475 25.4297 21.3804C25.5218 21.2857 25.5734 21.1588 25.5733 21.0267V12.4801H27.5733V21.0267C27.5733 21.6892 27.3111 22.3248 26.8439 22.7945C26.3767 23.2642 25.7425 23.5299 25.08 23.5334H7.24L3 27.7734Z" fill="#669DF6"/>
<path d="M18.3467 8.89339V10.5067H16.3333C15.8219 12.1004 14.9867 13.5711 13.88 14.8267L15.5733 16.4934L14.96 18.1334L12.8 16.0001L9.39999 19.3734L8.26666 18.2267L11.72 14.8267C10.939 13.939 10.2922 12.9418 9.79999 11.8667L9.67999 11.6134H11.3067C11.6942 12.3859 12.183 13.1033 12.76 13.7467C13.6203 12.7737 14.2898 11.6474 14.7333 10.4267H7.23999V8.89339H12V7.56006H13.6V8.89339H18.3467ZM16.5867 20.5601H18.2933L18.9867 18.5867H22.1333L22.8267 20.5601H24.5467L21.4533 12.3201H19.6667L16.5867 20.5601ZM19.48 17.1601L20.2133 15.0934L20.52 14.1067H20.6133L20.9067 15.0934L21.64 17.1601H19.48Z" fill="#4285F4"/>
</svg>
