<svg width="32" height="32" viewBox="0 0 32 32" fill="none" xmlns="http://www.w3.org/2000/svg">
<path fill-rule="evenodd" clip-rule="evenodd" d="M13.5858 2.66675C13.8304 2.66778 14.0344 2.84136 14.0824 3.07261L14.093 3.17491V5.77668H16.8251L16.8247 3.1757C16.8254 2.93032 16.9992 2.72589 17.2301 2.67783L17.3323 2.66714L18.1614 2.66675C18.4064 2.66778 18.6104 2.84166 18.6581 3.07298L18.6686 3.1753V5.77668H21.4007L21.4003 3.1757C21.4013 2.93032 21.5752 2.72619 21.8059 2.67821L21.9079 2.66753L22.7366 2.66714C22.9816 2.66817 23.1856 2.84175 23.2339 3.073L23.2447 3.1753L23.2443 5.77668H25.6724C25.9495 5.77808 26.1797 5.97806 26.2286 6.24209L26.2381 6.34384V8.76665H28.8253C29.0702 8.76734 29.2746 8.94148 29.3226 9.17314L29.3333 9.2756V10.1051C29.3326 10.3508 29.1585 10.5556 28.9274 10.6035L28.8253 10.614H26.2381V13.3507H28.8253C29.0706 13.3514 29.2752 13.5256 29.3228 13.7575L29.3333 13.8601V14.6892C29.3326 14.9346 29.1585 15.1393 28.9274 15.1869L28.8253 15.1973L26.2381 15.1977V17.9348H28.8253C29.0706 17.9355 29.2752 18.1099 29.3228 18.3414L29.3333 18.4438V19.2732C29.3326 19.5186 29.1585 19.7234 28.9274 19.771L28.8253 19.7814L26.2381 19.7818L26.2377 22.2054C26.2367 22.4833 26.0368 22.7144 25.7732 22.7631L25.6716 22.7726H23.2447L23.2443 25.3728C23.2439 25.6185 23.0698 25.8236 22.8385 25.8715L22.7362 25.8821H21.9087C21.6634 25.8814 21.4587 25.707 21.4111 25.4752L21.4007 25.3728L21.4003 22.7726H18.6686L18.6683 25.3728C18.6679 25.6185 18.4941 25.8233 18.2632 25.8714L18.161 25.8821H17.3327C17.0874 25.8814 16.883 25.707 16.8355 25.4752L16.8251 25.3728L16.8243 22.7726L15.4746 22.7721L15.4767 22.839C15.4767 26.3288 12.762 29.1757 9.35697 29.3271L9.07167 29.3334C5.53426 29.3334 2.66663 26.4258 2.66663 22.839C2.66663 19.2522 5.53426 16.3446 9.07167 16.3446C9.13377 16.3446 9.19566 16.3455 9.25733 16.3472L9.25597 15.1977H6.66921C6.42428 15.197 6.21994 15.0229 6.17241 14.7915L6.16199 14.6892L6.16159 13.8593C6.16228 13.6139 6.3358 13.4095 6.56669 13.3614L6.66882 13.3507L9.25597 13.3511L9.25558 10.614H6.66921C6.42428 10.613 6.22024 10.4391 6.17252 10.2081L6.16199 10.1059L6.1612 9.27482C6.16223 9.02978 6.33579 8.8254 6.56642 8.77708L6.66842 8.76626H9.25558V6.34345C9.25662 6.06551 9.45681 5.8348 9.72049 5.78613L9.82208 5.77668H12.2494L12.2491 3.1757C12.2501 2.93032 12.4236 2.72589 12.6545 2.67783L12.7567 2.66714L13.5858 2.66675ZM8.97254 19.3207L8.00203 20.3048L10.0602 22.3924L5.42689 22.3923V23.7839L10.0602 23.7844L8.00203 25.8694L8.97224 26.8538L12.6882 23.0883L8.97254 19.3207ZM24.329 7.68032L11.1655 7.68071L11.1665 16.6999C13.069 17.3672 14.5647 18.918 15.1766 20.8684L24.3278 20.8681L24.329 7.68032ZM20.4061 11.0435C20.6836 11.0442 20.9141 11.2448 20.9625 11.5089L20.9718 11.6107V16.9385C20.9708 17.2165 20.7709 17.4478 20.507 17.4966L20.4053 17.5061H15.0877C14.8103 17.5047 14.5797 17.3044 14.5311 17.0403L14.5216 16.9385L14.5212 11.6107C14.5223 11.3328 14.7222 11.1017 14.9858 11.0533L15.0873 11.0439L20.4061 11.0435Z" fill="#4285F4"/>
</svg>
