<svg width="32" height="32" viewBox="0 0 32 32" fill="none" xmlns="http://www.w3.org/2000/svg">
<path d="M16.6297 4L28.4824 24.4413L29.3333 25.9099L13.8826 25.9098C12.9578 27.9295 10.9124 29.3333 8.53776 29.3333C5.29522 29.3333 2.66663 26.7159 2.66663 23.4872C2.66663 20.2584 5.29522 17.641 8.53776 17.641C8.59821 17.641 8.65844 17.6419 8.71844 17.6437L16.6297 4ZM8.4469 20.3201L7.55729 21.2059L9.43814 23.0799L5.19681 23.0791V24.3378L9.44347 24.3385L7.55729 26.2151L8.44663 27.1012L11.8529 23.7116L8.4469 20.3201ZM16.6297 21.1308L14.2616 22.1802C14.358 22.6004 14.4089 23.0379 14.4089 23.4872C14.4089 23.6436 14.4027 23.7987 14.3906 23.952L22.9967 23.9507L16.6297 21.1308ZM16.6297 15.287L12.6179 19.2834C12.9554 19.6083 13.2539 19.9732 13.5058 20.3703L16.6297 18.9877L23.3181 21.9493L16.6297 15.287ZM16.6297 7.91469L10.7428 18.0673C10.8163 18.097 10.8891 18.1281 10.9611 18.1607L16.6297 12.5089L22.9394 18.8L16.6297 7.91469Z" fill="#4285F4"/>
</svg>
