<svg width="32" height="32" viewBox="0 0 32 32" fill="none" xmlns="http://www.w3.org/2000/svg">
<g clip-path="url(#clip0_845_19820)">
<mask id="mask0_845_19820" style="mask-type:luminance" maskUnits="userSpaceOnUse" x="2" y="8" width="28" height="19">
<path fill-rule="evenodd" clip-rule="evenodd" d="M24.5333 15.3333C27.6 15.5999 30 17.9999 30 21.0666C30 24.2666 27.3333 26.7999 24.1333 26.7999H9.06663C5.19997 26.7999 2.1333 23.7333 2.1333 19.8666C2.1333 16.2666 4.79997 13.3333 8.39997 13.0666C9.7333 10.2666 12.6666 8.2666 16 8.2666C20.2666 8.2666 23.7333 11.3333 24.5333 15.3333ZM24.1333 24.3999C26.1333 24.3999 27.6 22.7999 27.6 20.9333C27.6 19.0666 26 17.4666 24.1333 17.4666H22.4V16.9333C22.4 13.4666 19.6 10.6666 16 10.6666C13.0666 10.6666 10.5333 12.5333 9.86663 15.1999H9.06663C6.39997 15.1999 4.26663 17.3333 4.26663 19.8666C4.26663 22.3999 6.39997 24.3999 8.9333 24.3999H24.1333Z" fill="white"/>
</mask>
<g mask="url(#mask0_845_19820)">
<path fill-rule="evenodd" clip-rule="evenodd" d="M0 33.3333H32V1.33325H0V33.3333Z" fill="#5C85DE"/>
</g>
</g>
<defs>
<clipPath id="clip0_845_19820">
<rect width="32" height="32" fill="white"/>
</clipPath>
</defs>
</svg>
