<svg width="32" height="32" viewBox="0 0 32 32" fill="none" xmlns="http://www.w3.org/2000/svg">
<path d="M11.1468 10.4001C10.8875 10.6103 10.6466 10.8422 10.4268 11.0934L10.1201 10.7867L8.94678 9.61341L9.65344 8.90674L10.8268 10.0801L11.1468 10.4001Z" fill="#4285F4"/>
<path d="M23.0933 22.3466L22.3867 23.0533L20.9333 21.5866C21.1883 21.3762 21.4247 21.1442 21.64 20.8933L23.0933 22.3466Z" fill="#4285F4"/>
<path d="M8.77341 15.4666C8.75977 15.6441 8.75977 15.8224 8.77341 15.9999C8.75977 16.1551 8.75977 16.3113 8.77341 16.4666H6.49341V15.4666H8.77341Z" fill="#4285F4"/>
<path d="M25.5065 15.4666V16.4666H23.2932C23.2932 16.3199 23.2932 16.1599 23.2932 15.9999C23.2932 15.8399 23.2932 15.6399 23.2932 15.4666H25.5065Z" fill="#4285F4"/>
<path d="M10.3867 20.8667C10.6019 21.1218 10.8383 21.3582 11.0934 21.5734L9.61341 23.0534L8.90674 22.3467L10.3867 20.8667Z" fill="#4285F4"/>
<path d="M21.2 10.0534L22.3466 8.90674L23.0533 9.61341L21.6 11.0667C21.3849 10.8116 21.1484 10.5752 20.8933 10.3601L21.2 10.0534Z" fill="#4285F4"/>
<path d="M15.9999 23.2933H16.5066V25.5199H15.5066V23.2666L15.9999 23.2933Z" fill="#4285F4"/>
<path d="M16.5333 6.49341V8.74674C16.3825 8.73347 16.2308 8.73347 16.08 8.74674C15.9024 8.73346 15.7242 8.73346 15.5466 8.74674V6.49341H16.5333Z" fill="#4285F4"/>
<path fill-rule="evenodd" clip-rule="evenodd" d="M23.8932 15.4666C23.7751 13.7199 23.0757 12.063 21.9066 10.76C21.6833 10.5121 21.4427 10.2804 21.1866 10.0666C19.8943 8.92163 18.2565 8.24117 16.5332 8.1333H15.9999H15.5066C13.7731 8.24208 12.1258 8.92729 10.8266 10.08C10.5779 10.302 10.3419 10.5379 10.1199 10.7866C8.96675 12.0868 8.27743 13.7327 8.15991 15.4666C8.15991 15.64 8.15991 15.8266 8.15991 16C8.15991 16.1733 8.15991 16.32 8.15991 16.4666C8.26043 18.205 8.93582 19.8607 10.0799 21.1733C10.2985 21.4252 10.5346 21.6614 10.7866 21.88C12.1019 23.0547 13.7733 23.7542 15.5332 23.8666H16.5332C18.2718 23.752 19.9229 23.0625 21.2266 21.9066C21.4817 21.6915 21.7181 21.4551 21.9332 21.2C23.1027 19.889 23.7935 18.2206 23.8932 16.4666C23.8932 16.32 23.8932 16.16 23.8932 16C23.8932 15.84 23.9066 15.64 23.8932 15.4666ZM15.9999 22.88C14.6392 22.88 13.309 22.4765 12.1776 21.7205C11.0462 20.9645 10.1644 19.89 9.64362 18.6328C9.12289 17.3757 8.98664 15.9923 9.25211 14.6577C9.51758 13.3232 10.1728 12.0973 11.135 11.1351C12.0972 10.1729 13.3231 9.51763 14.6577 9.25216C15.9923 8.9867 17.3756 9.12295 18.6328 9.64368C19.8899 10.1644 20.9644 11.0462 21.7204 12.1776C22.4764 13.3091 22.8799 14.6392 22.8799 16C22.8799 17.8247 22.1551 19.5746 20.8648 20.8649C19.5746 22.1551 17.8246 22.88 15.9999 22.88ZM15.9999 10.76C14.9677 10.7784 13.9639 11.1012 13.1146 11.6881C12.2652 12.2749 11.6082 13.0996 11.2258 14.0585C10.8435 15.0175 10.753 16.068 10.9656 17.0783C11.1782 18.0885 11.6844 19.0134 12.4209 19.7369C13.1573 20.4605 14.091 20.9503 15.1048 21.1451C16.1186 21.3398 17.1674 21.2307 18.1195 20.8315C19.0715 20.4323 19.8845 19.7608 20.4562 18.9012C21.028 18.0416 21.3331 17.0323 21.3332 16C21.3316 15.3044 21.1918 14.6161 20.922 13.9751C20.6522 13.334 20.2578 12.7528 19.7617 12.2654C19.2655 11.7779 18.6775 11.3938 18.0318 11.1354C17.386 10.877 16.6954 10.7494 15.9999 10.76Z" fill="#669DF6"/>
<path fill-rule="evenodd" clip-rule="evenodd" d="M16.0001 6.66678C15.5339 6.62728 15.0997 6.41421 14.7832 6.06975C14.4667 5.7253 14.291 5.27456 14.291 4.80678C14.291 4.33899 14.4667 3.88826 14.7832 3.5438C15.0997 3.19934 15.5339 2.98628 16.0001 2.94678V4.00011C15.7904 4.02627 15.5975 4.1281 15.4577 4.28647C15.3179 4.44484 15.2407 4.64884 15.2407 4.86011C15.2407 5.07138 15.3179 5.27538 15.4577 5.43375C15.5975 5.59212 15.7904 5.69396 16.0001 5.72011V6.66678Z" fill="#AECBFA"/>
<path fill-rule="evenodd" clip-rule="evenodd" d="M16 6.66667V5.72C16.2096 5.69385 16.4025 5.59201 16.5424 5.43364C16.6822 5.27527 16.7594 5.07127 16.7594 4.86C16.7594 4.64873 16.6822 4.44473 16.5424 4.28636C16.4025 4.12799 16.2096 4.02615 16 4V3C16.4264 3.08168 16.811 3.30942 17.0876 3.64403C17.3642 3.97864 17.5155 4.3992 17.5155 4.83333C17.5155 5.26747 17.3642 5.68803 17.0876 6.02264C16.811 6.35725 16.4264 6.58499 16 6.66667Z" fill="#669DF6"/>
<path fill-rule="evenodd" clip-rule="evenodd" d="M16.0001 28.9999C15.5737 28.9182 15.1891 28.6905 14.9125 28.3559C14.6359 28.0213 14.4846 27.6007 14.4846 27.1666C14.4846 26.7325 14.6359 26.3119 14.9125 25.9773C15.1891 25.6427 15.5737 25.4149 16.0001 25.3333V26.3333C15.819 26.385 15.6597 26.4943 15.5463 26.6447C15.4328 26.795 15.3715 26.9782 15.3715 27.1666C15.3715 27.3549 15.4328 27.5381 15.5463 27.6885C15.6597 27.8389 15.819 27.9482 16.0001 27.9999V28.9999Z" fill="#AECBFA"/>
<path fill-rule="evenodd" clip-rule="evenodd" d="M16 28.9999V27.9999C16.2096 27.9738 16.4025 27.8719 16.5424 27.7136C16.6822 27.5552 16.7594 27.3512 16.7594 27.1399C16.7594 26.9286 16.6822 26.7246 16.5424 26.5663C16.4025 26.4079 16.2096 26.3061 16 26.2799V25.3333C16.4661 25.3728 16.9004 25.5858 17.2169 25.9303C17.5334 26.2747 17.709 26.7255 17.709 27.1933C17.709 27.661 17.5334 28.1118 17.2169 28.4562C16.9004 28.8007 16.4661 29.0138 16 29.0533V28.9999Z" fill="#669DF6"/>
<path fill-rule="evenodd" clip-rule="evenodd" d="M8.11994 9.97327C7.6284 9.97327 7.157 9.77801 6.80943 9.43044C6.46186 9.08287 6.2666 8.61147 6.2666 8.11994C6.2666 7.6284 6.46186 7.157 6.80943 6.80943C7.157 6.46186 7.6284 6.2666 8.11994 6.2666V7.2666C7.89362 7.2666 7.67657 7.35651 7.51654 7.51654C7.35651 7.67657 7.2666 7.89362 7.2666 8.11994C7.2666 8.34625 7.35651 8.5633 7.51654 8.72333C7.67657 8.88336 7.89362 8.97327 8.11994 8.97327V9.97327Z" fill="#AECBFA"/>
<path fill-rule="evenodd" clip-rule="evenodd" d="M8.12012 9.97327V8.97327C8.34644 8.97327 8.56348 8.88336 8.72351 8.72333C8.88355 8.5633 8.97345 8.34625 8.97345 8.11994C8.97345 7.89362 8.88355 7.67657 8.72351 7.51654C8.56348 7.35651 8.34644 7.2666 8.12012 7.2666V6.2666C8.61165 6.2666 9.08305 6.46186 9.43062 6.80943C9.77819 7.157 9.97345 7.6284 9.97345 8.11994C9.97345 8.61147 9.77819 9.08287 9.43062 9.43044C9.08305 9.77801 8.61165 9.97327 8.12012 9.97327Z" fill="#669DF6"/>
<path fill-rule="evenodd" clip-rule="evenodd" d="M23.8799 25.7333C23.3884 25.7333 22.917 25.538 22.5694 25.1904C22.2219 24.8429 22.0266 24.3715 22.0266 23.8799C22.0266 23.3884 22.2219 22.917 22.5694 22.5694C22.917 22.2219 23.3884 22.0266 23.8799 22.0266V23.0266C23.6536 23.0266 23.4366 23.1165 23.2765 23.2765C23.1165 23.4366 23.0266 23.6536 23.0266 23.8799C23.0266 24.1063 23.1165 24.3233 23.2765 24.4833C23.4366 24.6434 23.6536 24.7333 23.8799 24.7333V25.7333Z" fill="#AECBFA"/>
<path fill-rule="evenodd" clip-rule="evenodd" d="M23.8799 25.7333V24.7333C24.1062 24.7333 24.3233 24.6434 24.4833 24.4833C24.6433 24.3233 24.7332 24.1063 24.7332 23.8799C24.7332 23.6536 24.6433 23.4366 24.4833 23.2765C24.3233 23.1165 24.1062 23.0266 23.8799 23.0266V22.0266C24.3714 22.0266 24.8428 22.2219 25.1904 22.5694C25.538 22.917 25.7332 23.3884 25.7332 23.8799C25.7332 24.3715 25.538 24.8429 25.1904 25.1904C24.8428 25.538 24.3714 25.7333 23.8799 25.7333Z" fill="#669DF6"/>
<path fill-rule="evenodd" clip-rule="evenodd" d="M4.85333 17.8534C4.3618 17.8534 3.8904 17.6581 3.54283 17.3106C3.19526 16.963 3 16.4916 3 16.0001C3 15.5085 3.19526 15.0371 3.54283 14.6896C3.8904 14.342 4.3618 14.1467 4.85333 14.1467V15.1467C4.74127 15.1467 4.63031 15.1688 4.52678 15.2117C4.42325 15.2546 4.32917 15.3174 4.24994 15.3967C4.1707 15.4759 4.10784 15.57 4.06496 15.6735C4.02207 15.777 4 15.888 4 16.0001C4 16.1121 4.02207 16.2231 4.06496 16.3266C4.10784 16.4302 4.1707 16.5242 4.24994 16.6035C4.32917 16.6827 4.42325 16.7456 4.52678 16.7884C4.63031 16.8313 4.74127 16.8534 4.85333 16.8534V17.8534Z" fill="#AECBFA"/>
<path fill-rule="evenodd" clip-rule="evenodd" d="M4.85327 17.8534V16.8534C4.96533 16.8534 5.0763 16.8313 5.17983 16.7884C5.28336 16.7456 5.37743 16.6827 5.45667 16.6035C5.53591 16.5242 5.59876 16.4302 5.64165 16.3266C5.68453 16.2231 5.7066 16.1121 5.7066 16.0001C5.7066 15.888 5.68453 15.777 5.64165 15.6735C5.59876 15.57 5.53591 15.4759 5.45667 15.3967C5.37743 15.3174 5.28336 15.2546 5.17983 15.2117C5.0763 15.1688 4.96533 15.1467 4.85327 15.1467V14.1467C5.34481 14.1467 5.81621 14.342 6.16378 14.6896C6.51134 15.0371 6.70661 15.5085 6.70661 16.0001C6.70661 16.4916 6.51134 16.963 6.16378 17.3106C5.81621 17.6581 5.34481 17.8534 4.85327 17.8534Z" fill="#669DF6"/>
<path fill-rule="evenodd" clip-rule="evenodd" d="M27.1466 17.8534C26.9 17.8584 26.6548 17.8138 26.4258 17.7222C26.1967 17.6306 25.9884 17.4938 25.8133 17.3201C25.4912 16.9572 25.3195 16.4851 25.3333 16.0001C25.3368 15.5073 25.535 15.0359 25.8847 14.6887C26.2344 14.3416 26.7072 14.1467 27.2 14.1467V15.1467C26.9724 15.1467 26.754 15.2362 26.5918 15.3958C26.4296 15.5555 26.3368 15.7725 26.3333 16.0001C26.3351 16.2257 26.4262 16.4414 26.5866 16.6001C26.6648 16.6837 26.76 16.7496 26.8658 16.7933C26.9716 16.837 27.0856 16.8575 27.2 16.8534L27.1466 17.8534Z" fill="#AECBFA"/>
<path fill-rule="evenodd" clip-rule="evenodd" d="M27.1467 17.8534V16.8534C27.373 16.8534 27.5901 16.7635 27.7501 16.6035C27.9102 16.4434 28.0001 16.2264 28.0001 16.0001C28.0001 15.7737 27.9102 15.5567 27.7501 15.3967C27.5901 15.2366 27.373 15.1467 27.1467 15.1467V14.1467C27.6383 14.1467 28.1097 14.342 28.4572 14.6896C28.8048 15.0371 29.0001 15.5085 29.0001 16.0001C29.0001 16.4916 28.8048 16.963 28.4572 17.3106C28.1097 17.6581 27.6383 17.8534 27.1467 17.8534Z" fill="#669DF6"/>
<path fill-rule="evenodd" clip-rule="evenodd" d="M8.08007 25.7334C7.83164 25.7342 7.58559 25.685 7.35653 25.5888C7.12748 25.4926 6.92011 25.3513 6.74674 25.1734C6.57459 24.9983 6.44066 24.7894 6.35344 24.5599C6.26623 24.3304 6.22762 24.0853 6.24008 23.8401C6.26081 23.3425 6.47403 22.8725 6.83475 22.5292C7.19547 22.1859 7.67545 21.9962 8.17341 22.0001V23.0001C7.93608 22.9962 7.70645 23.0843 7.53252 23.2458C7.35859 23.4073 7.2538 23.6298 7.24007 23.8667C7.2338 23.975 7.25078 24.0834 7.28988 24.1846C7.32897 24.2858 7.38928 24.3774 7.46674 24.4534C7.63439 24.6167 7.8594 24.7076 8.09341 24.7067L8.08007 25.7334Z" fill="#AECBFA"/>
<path fill-rule="evenodd" clip-rule="evenodd" d="M8.08008 25.7333V24.7333C8.31741 24.7371 8.54703 24.6491 8.72097 24.4876C8.8949 24.3261 8.99968 24.1036 9.01341 23.8666C9.02058 23.7582 9.00401 23.6496 8.96486 23.5483C8.92571 23.4469 8.86493 23.3554 8.78675 23.28C8.6191 23.1167 8.39408 23.0257 8.16008 23.0266V22.0266C8.40851 22.0258 8.65457 22.075 8.88362 22.1712C9.11267 22.2674 9.32004 22.4087 9.49341 22.5866C9.66624 22.7612 9.80061 22.97 9.88787 23.1997C9.97513 23.4293 10.0134 23.6747 10.0001 23.92C9.97279 24.4105 9.75851 24.8718 9.40136 25.2092C9.04421 25.5465 8.57134 25.734 8.08008 25.7333Z" fill="#669DF6"/>
<path fill-rule="evenodd" clip-rule="evenodd" d="M23.8799 9.97327C23.3884 9.97327 22.917 9.77801 22.5694 9.43044C22.2219 9.08287 22.0266 8.61147 22.0266 8.11994C22.0266 7.6284 22.2219 7.157 22.5694 6.80943C22.917 6.46186 23.3884 6.2666 23.8799 6.2666V7.2666C23.6536 7.2666 23.4366 7.35651 23.2765 7.51654C23.1165 7.67657 23.0266 7.89362 23.0266 8.11994C23.0266 8.34625 23.1165 8.5633 23.2765 8.72333C23.4366 8.88336 23.6536 8.97327 23.8799 8.97327V9.97327Z" fill="#AECBFA"/>
<path fill-rule="evenodd" clip-rule="evenodd" d="M23.8799 9.97327V8.97327C24.1062 8.97327 24.3233 8.88336 24.4833 8.72333C24.6433 8.5633 24.7332 8.34625 24.7332 8.11994C24.7332 7.89362 24.6433 7.67657 24.4833 7.51654C24.3233 7.35651 24.1062 7.2666 23.8799 7.2666V6.2666C24.3714 6.2666 24.8428 6.46186 25.1904 6.80943C25.538 7.157 25.7332 7.6284 25.7332 8.11994C25.7332 8.61147 25.538 9.08287 25.1904 9.43044C24.8428 9.77801 24.3714 9.97327 23.8799 9.97327Z" fill="#669DF6"/>
<path fill-rule="evenodd" clip-rule="evenodd" d="M16.0001 10.7601V21.2268C15.2906 21.2626 14.5813 21.1538 13.9152 20.9069C13.249 20.6601 12.6401 20.2804 12.1252 19.7909C11.6104 19.3014 11.2005 18.7124 10.9204 18.0596C10.6403 17.4068 10.4958 16.7038 10.4958 15.9934C10.4958 15.283 10.6403 14.5801 10.9204 13.9273C11.2005 13.2744 11.6104 12.6854 12.1252 12.1959C12.6401 11.7064 13.249 11.3267 13.9152 11.0799C14.5813 10.8331 15.2906 10.7243 16.0001 10.7601Z" fill="#AECBFA"/>
<path fill-rule="evenodd" clip-rule="evenodd" d="M21.3333 16.0001C21.3335 16.6956 21.1948 17.384 20.9255 18.0252C20.6562 18.6664 20.2617 19.2474 19.765 19.7341C19.2683 20.2209 18.6794 20.6037 18.0329 20.86C17.3864 21.1163 16.6953 21.241 16 21.2268V10.7601C16.6959 10.7477 17.3874 10.8741 18.0339 11.1319C18.6805 11.3896 19.2692 11.7737 19.7657 12.2615C20.2622 12.7493 20.6566 13.3311 20.9257 13.9731C21.1949 14.615 21.3334 15.3041 21.3333 16.0001Z" fill="#669DF6"/>
<path d="M18.8399 17.3867H16.0266V18.3867H18.8399V17.3867Z" fill="#AECBFA"/>
<path d="M18.8399 15.5601H16.0266V16.5601H18.8399V15.5601Z" fill="#AECBFA"/>
<path d="M18.8399 13.7466H16.0266V14.7466H18.8399V13.7466Z" fill="#AECBFA"/>
<path d="M16.0267 17.3867H13.2134V18.3867H16.0267V17.3867Z" fill="white"/>
<path d="M16.0267 15.5601H13.2134V16.5601H16.0267V15.5601Z" fill="white"/>
<path d="M16.0267 13.7466H13.2134V14.7466H16.0267V13.7466Z" fill="white"/>
</svg>
