<svg width="32" height="32" viewBox="0 0 32 32" fill="none" xmlns="http://www.w3.org/2000/svg">
<path d="M15.9999 22.6667C15.7929 22.6807 15.5856 22.6431 15.3967 22.5572C15.2078 22.4713 15.0432 22.3398 14.9176 22.1746C14.792 22.0094 14.7095 21.8156 14.6773 21.6106C14.6451 21.4056 14.6643 21.1958 14.7333 21.0001L10.8799 17.1201C10.6074 17.2594 10.3059 17.3325 9.99992 17.3334C9.63302 17.3344 9.2729 17.2345 8.95899 17.0446C8.64507 16.8547 8.38945 16.582 8.2201 16.2566C8.05075 15.9311 7.97419 15.5653 7.99881 15.1992C8.02343 14.8331 8.14828 14.4809 8.35969 14.181C8.5711 13.8811 8.86092 13.6452 9.19745 13.499C9.53397 13.3528 9.90422 13.302 10.2677 13.3522C10.6311 13.4023 10.9738 13.5515 11.2582 13.7834C11.5425 14.0152 11.7576 14.3208 11.8799 14.6667H15.9999V13.3334H15.3333V10.4667C15.0892 10.3157 14.9004 10.0899 14.7949 9.82298C14.6894 9.55603 14.6728 9.26217 14.7477 8.98508C14.8226 8.70798 14.9849 8.46246 15.2105 8.28499C15.4361 8.10753 15.713 8.00761 15.9999 8.00008V2.66675L5.33325 6.66675V14.7334C5.33325 21.4801 9.87992 27.8001 15.9999 29.4001V22.6667Z" fill="#669DF6"/>
<path d="M11.8132 16.16L15.3332 19.72V17.3333H15.9999V16H11.8799L11.8132 16.16Z" fill="#669DF6"/>
<path d="M20.2 14.4801L16.6667 10.9468V13.3334H16V14.6668H20.12L20.2 14.4801Z" fill="#669DF6"/>
<path d="M17.3333 9.33341C17.3253 9.44256 17.3029 9.55016 17.2667 9.65341L21.1467 13.5334C21.512 13.3592 21.9216 13.2999 22.3214 13.3635C22.7211 13.427 23.0922 13.6103 23.3855 13.8892C23.6789 14.1681 23.8807 14.5294 23.9643 14.9254C24.0479 15.3214 24.0095 15.7335 23.8539 16.1072C23.6984 16.4809 23.4331 16.7986 23.0932 17.0183C22.7533 17.238 22.3547 17.3495 21.9501 17.3379C21.5455 17.3263 21.154 17.1922 20.8272 16.9533C20.5005 16.7144 20.2539 16.3821 20.12 16.0001H16V17.3334H16.6667V20.2001C16.9107 20.3511 17.0996 20.5769 17.2051 20.8438C17.3105 21.1108 17.3271 21.4047 17.2522 21.6818C17.1773 21.9588 17.015 22.2044 16.7894 22.3818C16.5638 22.5593 16.2869 22.6592 16 22.6667V29.3334C22.12 27.8001 26.6667 21.4801 26.6667 14.7334V6.66675L16 2.66675V8.00008C16.3536 8.00008 16.6928 8.14056 16.9428 8.39061C17.1929 8.64065 17.3333 8.97979 17.3333 9.33341Z" fill="#4285F4"/>
</svg>
