<svg width="32" height="32" viewBox="0 0 32 32" fill="none" xmlns="http://www.w3.org/2000/svg">
<path d="M9.73343 20.9333C8.61192 19.5336 8.00058 17.7936 8.00009 16H2.66676C2.66268 19.2089 3.82885 22.3092 5.94676 24.72L9.73343 20.9333Z" fill="#669DF6"/>
<path d="M16.0002 2.66675C12.7908 2.66908 9.68993 3.82894 7.26685 5.93341L11.0535 9.72008C12.233 8.79209 13.6497 8.2146 15.1419 8.05358C16.634 7.89257 18.1413 8.15452 19.4916 8.80951C20.842 9.4645 21.9808 10.4861 22.778 11.7576C23.5753 13.0292 23.9988 14.4993 24.0002 16.0001H29.3335C29.3335 14.2491 28.9886 12.5153 28.3186 10.8976C27.6485 9.27996 26.6664 7.81011 25.4283 6.57199C24.1902 5.33388 22.7203 4.35175 21.1026 3.68169C19.485 3.01162 17.7511 2.66675 16.0002 2.66675Z" fill="#669DF6"/>
<path d="M10.6667 28.0001C12.1394 28.0001 13.3333 26.8062 13.3333 25.3334C13.3333 23.8607 12.1394 22.6667 10.6667 22.6667C9.19391 22.6667 8 23.8607 8 25.3334C8 26.8062 9.19391 28.0001 10.6667 28.0001Z" fill="#AECBFA"/>
<path d="M25.3334 24.0001C26.8062 24.0001 28.0001 22.8062 28.0001 21.3334C28.0001 19.8607 26.8062 18.6667 25.3334 18.6667C23.8607 18.6667 22.6667 19.8607 22.6667 21.3334C22.6667 22.8062 23.8607 24.0001 25.3334 24.0001Z" fill="#4285F4"/>
<path d="M18.6667 29.3333C20.1394 29.3333 21.3333 28.1394 21.3333 26.6667C21.3333 25.1939 20.1394 24 18.6667 24C17.1939 24 16 25.1939 16 26.6667C16 28.1394 17.1939 29.3333 18.6667 29.3333Z" fill="#669DF6"/>
<path d="M8.00008 16H2.66675C2.66987 17.3152 2.86757 18.6227 3.25341 19.88L8.58675 18.8267C8.2214 17.9278 8.02261 16.97 8.00008 16Z" fill="#4285F4"/>
<path d="M6.66667 13.3333C8.13943 13.3333 9.33333 12.1394 9.33333 10.6667C9.33333 9.19391 8.13943 8 6.66667 8C5.19391 8 4 9.19391 4 10.6667C4 12.1394 5.19391 13.3333 6.66667 13.3333Z" fill="#AECBFA"/>
<path d="M23.48 13.1735C23.8225 14.0766 23.9987 15.0342 24 16.0001H29.3333C29.3345 14.6856 29.1413 13.3781 28.76 12.1201L23.48 13.1735Z" fill="#4285F4"/>
</svg>
