<svg width="32" height="32" viewBox="0 0 32 32" fill="none" xmlns="http://www.w3.org/2000/svg">
<path d="M5.26747 11.0152C5.58818 11.124 5.93039 11.1827 6.28571 11.1827C6.64019 11.1827 6.98161 11.1242 7.30167 11.016L7.30159 21.846C7.30159 24.0702 9.02162 25.8728 11.1429 25.8728C13.1883 25.8728 14.8608 24.1967 14.9776 22.0827L14.9841 21.846L14.9833 20.0509C15.3572 20.2048 15.7644 20.2893 16.1905 20.2893C16.4755 20.2893 16.7522 20.2514 17.0161 20.1803L17.0159 21.846C17.0159 25.2445 14.3867 27.9999 11.1429 27.9999C7.99172 27.9999 5.42058 25.3997 5.27623 22.1357L5.26984 21.846L5.26747 11.0152ZM25.7143 23.214C26.9767 23.214 28 24.2854 28 25.607C28 26.9286 26.9767 27.9999 25.7143 27.9999C24.4519 27.9999 23.4286 26.9286 23.4286 25.607C23.4286 24.2854 24.4519 23.214 25.7143 23.214ZM20.8571 5.43268C24.101 5.43268 26.7302 8.18811 26.7302 11.5866L26.7314 22.3176C26.411 22.2091 26.0692 22.1505 25.7143 22.1505C25.3598 22.1505 25.0184 22.2089 24.6983 22.3172L24.6984 11.5866C24.6984 9.36237 22.9784 7.55975 20.8571 7.55975C18.7359 7.55975 17.0159 9.36237 17.0159 11.5866L17.0161 13.4852C16.7522 13.4141 16.4755 13.3763 16.1905 13.3763C15.7644 13.3763 15.3572 13.4607 14.9833 13.6146L14.9841 11.5866C14.9841 8.18811 17.6133 5.43268 20.8571 5.43268ZM16.1905 14.4398C17.4528 14.4398 18.4762 15.5112 18.4762 16.8328C18.4762 18.1544 17.4528 19.2257 16.1905 19.2257C14.9281 19.2257 13.9048 18.1544 13.9048 16.8328C13.9048 15.5112 14.9281 14.4398 16.1905 14.4398ZM6.28571 5.33325C7.54808 5.33325 8.57143 6.40462 8.57143 7.72621C8.57143 9.04781 7.54808 10.1192 6.28571 10.1192C5.02335 10.1192 4 9.04781 4 7.72621C4 6.40462 5.02335 5.33325 6.28571 5.33325Z" fill="#4285F4"/>
</svg>
