<svg width="32" height="32" viewBox="0 0 32 32" fill="none" xmlns="http://www.w3.org/2000/svg">
<path d="M15.8628 21.5915C16.9421 21.5915 17.8171 22.4292 17.8171 23.4625C17.8171 24.4958 16.9421 25.3334 15.8628 25.3334C14.7835 25.3334 13.9085 24.4958 13.9085 23.4625C13.9085 22.4292 14.7835 21.5915 15.8628 21.5915ZM18.5786 19.1654L19.5399 20.7689L20.6577 20.7678C20.9214 20.0331 21.6495 19.5052 22.5063 19.5052C23.5857 19.5052 24.4606 20.3429 24.4606 21.3761C24.4606 22.4094 23.5857 23.2471 22.5063 23.2471C21.6629 23.2471 20.9443 22.7356 20.6704 22.0189L19.4059 22.0183C19.0147 22.0127 18.6562 21.8082 18.4649 21.4815L17.3986 19.7054H14.3253L13.2613 21.4812C13.07 21.808 12.7114 22.0127 12.3201 22.0183L11.0552 22.0189C10.7814 22.7356 10.0627 23.2471 9.21928 23.2471C8.13995 23.2471 7.26499 22.4094 7.26499 21.3761C7.26499 20.3429 8.13995 19.5052 9.21928 19.5052C10.0761 19.5052 10.8042 20.0331 11.0679 20.7678L12.1855 20.7686L13.1799 19.1094L11.6426 16.5561L9.12992 16.5572C8.88113 17.2286 8.2432 17.7238 7.47576 17.794L7.28755 17.8025C6.20822 17.8025 5.33325 16.9649 5.33325 15.9316C5.33325 14.8983 6.20822 14.0606 7.28755 14.0606C8.1379 14.0606 8.8614 14.5806 9.13011 15.3065L11.5466 15.3067L13.1266 12.7281L12.1854 11.1586L11.0616 11.159C10.7928 11.8846 10.0694 12.4043 9.21928 12.4043C8.13995 12.4043 7.26499 11.5667 7.26499 10.5334C7.26499 9.50008 8.13995 8.66243 9.21928 8.66243C10.0694 8.66243 10.7928 9.18211 11.0616 9.90775L12.3201 9.90888C12.7109 9.91453 13.0691 10.1186 13.2607 10.4448L14.2879 12.1561H17.4373L18.4643 10.4457C18.6558 10.1191 19.0143 9.91462 19.4055 9.90888L20.664 9.90775C20.9328 9.18211 21.6562 8.66243 22.5063 8.66243C23.5857 8.66243 24.4606 9.50008 24.4606 10.5334C24.4606 11.5667 23.5857 12.4043 22.5063 12.4043C21.6562 12.4043 20.9328 11.8846 20.664 11.159L19.5404 11.1582L18.5639 12.7841L20.0839 15.3067L22.8697 15.3065C23.1184 14.6348 23.7564 14.1394 24.5241 14.0692L24.7123 14.0606C25.7916 14.0606 26.6666 14.8983 26.6666 15.9316C26.6666 16.9649 25.7916 17.8025 24.7123 17.8025C23.8621 17.8025 23.1388 17.2828 22.8699 16.5572L20.1786 16.5561L18.5786 19.1654ZM15.8628 6.66675C16.9421 6.66675 17.8171 7.5044 17.8171 8.53769C17.8171 9.57098 16.9421 10.4086 15.8628 10.4086C14.7835 10.4086 13.9085 9.57098 13.9085 8.53769C13.9085 7.5044 14.7835 6.66675 15.8628 6.66675Z" fill="#4285F4"/>
</svg>
