<svg width="32" height="32" viewBox="0 0 32 32" fill="none" xmlns="http://www.w3.org/2000/svg">
<path d="M16 26.4253C16.7996 26.4253 17.4478 27.0763 17.4478 27.8794C17.4478 28.6824 16.7996 29.3334 16 29.3334C15.2004 29.3334 14.5522 28.6824 14.5522 27.8794C14.5522 27.0763 15.2004 26.4253 16 26.4253ZM17.785 7.2758C17.999 7.2758 18.1951 7.43284 18.2129 7.64222L18.5516 9.94543C19.1043 10.1548 19.6035 10.4514 20.067 10.8004L22.2776 9.92798C22.4916 9.85819 22.7233 9.92798 22.8303 10.1199L24.6131 13.1385C24.72 13.3305 24.6666 13.5573 24.5061 13.6969L22.6164 15.1451C22.6698 15.4243 22.6877 15.7035 22.6877 16.0001C22.6877 16.2967 22.652 16.5759 22.6164 16.8551L24.5239 18.3033C24.6844 18.4429 24.7379 18.6697 24.6309 18.8616L22.8481 21.8802C22.7233 22.0722 22.4916 22.142 22.2955 22.0722L20.067 21.1998C19.6213 21.5487 19.1043 21.8279 18.5695 22.0547L18.2307 24.3579C18.1951 24.5673 17.999 24.7244 17.785 24.7244H14.2195C13.9877 24.7244 13.8094 24.5673 13.7738 24.3579L13.4351 22.0547C12.8824 21.8453 12.3832 21.5487 11.9197 21.1998L9.70906 22.0722C9.49513 22.142 9.26337 22.0722 9.1564 21.8802L7.37362 18.8616C7.26666 18.6697 7.32014 18.4429 7.48059 18.3033L9.37033 16.8551C9.33468 16.5759 9.31685 16.2967 9.31685 16.0001C9.31685 15.7035 9.33468 15.4243 9.37033 15.1451L7.48059 13.6969C7.30231 13.5573 7.26666 13.3305 7.37362 13.1385L9.1564 10.1199C9.28119 9.92798 9.51295 9.85819 9.70906 9.92798L11.9197 10.8004C12.3832 10.4514 12.9002 10.1723 13.4351 9.94543L13.7738 7.64222C13.8094 7.43284 14.0056 7.2758 14.2195 7.2758H17.785ZM4.74614 20.6028C5.44546 20.2135 6.32662 20.4672 6.71426 21.1696C7.1019 21.872 6.84923 22.757 6.14991 23.1463C5.45059 23.5356 4.56943 23.2818 4.18178 22.5795C3.79414 21.8771 4.04681 20.9921 4.74614 20.6028ZM25.2857 21.1696C25.6734 20.4672 26.5545 20.2135 27.2539 20.6028C27.9532 20.9921 28.2059 21.8771 27.8182 22.5795C27.4306 23.2818 26.5494 23.5356 25.8501 23.1463C25.1508 22.757 24.8981 21.872 25.2857 21.1696ZM16.0023 13.3828C14.5226 13.3828 13.3281 14.5519 13.3281 16.0001C13.3281 17.4483 14.5226 18.6174 16.0023 18.6174C17.482 18.6174 18.6764 17.4483 18.6764 16.0001C18.6764 14.5519 17.482 13.3828 16.0023 13.3828ZM25.8501 8.85388C26.5494 8.46455 27.4306 8.71832 27.8182 9.42068C28.2059 10.123 27.9532 11.008 27.2539 11.3974C26.5545 11.7867 25.6734 11.5329 25.2857 10.8306C24.8981 10.1282 25.1508 9.2432 25.8501 8.85388ZM4.18178 9.42068C4.56943 8.71832 5.45059 8.46455 6.14991 8.85388C6.84923 9.2432 7.1019 10.1282 6.71426 10.8306C6.32662 11.5329 5.44546 11.7867 4.74614 11.3974C4.04681 11.008 3.79414 10.123 4.18178 9.42068ZM16 2.66675C16.7996 2.66675 17.4478 3.31775 17.4478 4.12079C17.4478 4.92384 16.7996 5.57484 16 5.57484C15.2004 5.57484 14.5522 4.92384 14.5522 4.12079C14.5522 3.31775 15.2004 2.66675 16 2.66675Z" fill="#4285F4"/>
</svg>
