<svg width="32" height="32" viewBox="0 0 32 32" fill="none" xmlns="http://www.w3.org/2000/svg">
<path d="M26.2073 27.8904L26.8432 28.6778C26.3052 29.0996 25.6384 29.3334 24.9366 29.3334C24.7943 29.3334 24.6531 29.3238 24.5137 29.3048L24.6536 28.308C24.7467 28.3207 24.8412 28.3271 24.9366 28.3271C25.4053 28.3271 25.8485 28.1718 26.2073 27.8904ZM17.7225 23.1723C19.4106 23.1723 20.7791 24.5207 20.7791 26.184C20.7791 27.8474 19.4106 29.1958 17.7225 29.1958C16.0343 29.1958 14.6658 27.8474 14.6658 26.184C14.6658 24.5207 16.0343 23.1723 17.7225 23.1723ZM22.9354 26.7203C23.0493 27.2691 23.3933 27.7459 23.8776 28.0359L23.3471 28.8958C22.6215 28.4613 22.106 27.7468 21.9348 26.9219L22.9354 26.7203ZM13.8628 2.66675C15.4655 2.66675 16.8217 3.68713 17.3395 5.09622H21.2599C22.6161 5.09622 23.7256 6.18948 23.7256 7.52569V14.8141H21.2599V7.52569H18.7942V11.1699H8.93141V7.52569H6.4657V25.7467H12.63V28.1762H6.4657C5.10957 28.1762 4 27.0829 4 25.7467V7.52569C4 6.18948 5.10957 5.09622 6.4657 5.09622H10.3862C10.904 3.68713 12.2601 2.66675 13.8628 2.66675ZM27.8131 25.2729C27.9296 25.5853 27.9932 25.916 28 26.2638C28.0006 26.7912 27.8874 27.2626 27.6635 27.6921L26.755 27.2324C26.9039 26.9468 26.9791 26.6335 26.9788 26.2742C26.9743 26.0479 26.932 25.8279 26.8545 25.6201L27.8131 25.2729ZM23.3614 23.7248L23.8871 24.5875C23.4013 24.8749 23.0546 25.3499 22.9377 25.898L21.9383 25.691C22.114 24.8672 22.6334 24.1554 23.3614 23.7248ZM24.9366 23.2957C25.8001 23.2957 26.6072 23.6502 27.183 24.2616L26.4343 24.9461C26.0498 24.5378 25.513 24.302 24.9366 24.302C24.852 24.3027 24.7492 24.3086 24.6665 24.3193L24.5331 23.3217C24.657 23.3056 24.8105 23.2968 24.9366 23.2957ZM24.7463 16.2517C26.4345 16.2517 27.803 17.6001 27.803 19.2634C27.803 20.9267 26.4345 22.2751 24.7463 22.2751C23.0582 22.2751 21.6896 20.9267 21.6896 19.2634C21.6896 17.6001 23.0582 16.2517 24.7463 16.2517ZM17.7225 16.2517C19.4106 16.2517 20.7791 17.6001 20.7791 19.2634C20.7791 20.9267 19.4106 22.2751 17.7225 22.2751C16.0343 22.2751 14.6658 20.9267 14.6658 19.2634C14.6658 17.6001 16.0343 16.2517 17.7225 16.2517ZM13.8628 5.09622C13.1847 5.09622 12.63 5.64285 12.63 6.31095C12.63 6.97906 13.1847 7.52569 13.8628 7.52569C14.5409 7.52569 15.0957 6.97906 15.0957 6.31095C15.0957 5.64285 14.5409 5.09622 13.8628 5.09622Z" fill="#4285F4"/>
</svg>
