<svg width="32" height="32" viewBox="0 0 32 32" fill="none" xmlns="http://www.w3.org/2000/svg">
<path d="M27.8448 14.0589C27.9708 14.8651 28.0063 15.6803 27.9525 16.4929C27.6423 21.1698 24.4288 25.3342 19.7416 26.9482C18.4139 27.4053 17.0442 27.633 15.6846 27.6354L15.4136 29.1882C15.4169 29.2362 15.3942 29.282 15.3536 29.3092C15.313 29.3363 15.2602 29.341 15.2141 29.3216L13.0813 27.3581L12.8583 27.3098L12.892 27.1834L11.7195 26.1043C11.6821 26.0718 11.6643 26.0235 11.6724 25.9763C11.6805 25.9292 11.7134 25.8899 11.7594 25.8725L16.0428 23.9645C16.0999 23.9113 16.1902 23.9085 16.2531 23.9578C16.316 24.0072 16.3317 24.0932 16.2897 24.1582L16.0208 25.706C17.0597 25.6754 18.1029 25.4868 19.118 25.1372C23.0244 23.7922 25.7025 20.3216 25.9609 16.424C25.9968 15.883 25.9851 15.3406 25.9252 14.8017L25.8713 14.3982L27.8448 14.0589ZM5.54885 20.4719C6.83962 19.4734 8.73333 19.6635 9.77858 20.8966C10.8238 22.1296 10.6248 23.9387 9.33402 24.9372C8.04325 25.9357 6.14953 25.7456 5.10429 24.5125C4.05905 23.2794 4.25808 21.4704 5.54885 20.4719ZM18.4333 14.3151C19.3659 15.5987 19.0327 17.4307 17.689 18.4069C16.3453 19.3832 14.4999 19.134 13.5673 17.8504C12.6347 16.5668 12.968 14.7348 14.3117 13.7585C15.6554 12.7823 17.5007 13.0314 18.4333 14.3151ZM16.9351 2.6786L20.4297 5.89588C20.4671 5.92833 20.4849 5.9767 20.4768 6.02384C20.4687 6.07098 20.4358 6.11023 20.3898 6.12767L16.1064 8.03569C16.0493 8.08883 15.9591 8.09168 15.8962 8.04232C15.8333 7.99296 15.8175 7.90694 15.8595 7.84193L16.1007 6.45658C15.0221 6.47564 13.9372 6.66507 12.8826 7.02821C8.34174 8.59175 5.53052 12.9958 6.08937 17.4828L6.12614 17.7468L4.15204 18.082C3.30529 12.5861 6.70279 7.13047 12.259 5.2173C13.6257 4.74671 15.0367 4.51937 16.435 4.53041L16.7357 2.812C16.7324 2.76395 16.755 2.71819 16.7956 2.691C16.8362 2.66386 16.889 2.65916 16.9351 2.6786ZM14.8746 14.5333C13.9788 15.1841 13.7566 16.4054 14.3783 17.2612C15.0001 18.1169 16.2303 18.2831 17.1261 17.6322C18.0219 16.9814 18.2441 15.76 17.6223 14.9043C17.0006 14.0485 15.7704 13.8824 14.8746 14.5333ZM22.5992 7.6246C23.8527 6.58366 25.7522 6.71055 26.8418 7.90801C27.9315 9.10546 27.7987 10.92 26.5452 11.961C25.2917 13.0019 23.3922 12.875 22.3025 11.6776C21.2128 10.4801 21.3457 8.66553 22.5992 7.6246Z" fill="#4285F4"/>
</svg>
