<svg width="32" height="32" viewBox="0 0 32 32" fill="none" xmlns="http://www.w3.org/2000/svg">
<path d="M17.0799 9.14648H14.9199V22.8398H17.0799V9.14648Z" fill="#4285F4"/>
<path d="M6.26663 14.9199H2.66663V17.0799H6.26663V14.9199Z" fill="#669DF6"/>
<path d="M12.0666 11.6799H6.22662C6.04989 11.6799 5.90662 11.8232 5.90662 11.9999V20.0133C5.90662 20.19 6.04989 20.3333 6.22662 20.3333H12.0666C12.2433 20.3333 12.3866 20.19 12.3866 20.0133V11.9999C12.3866 11.8232 12.2433 11.6799 12.0666 11.6799Z" fill="#4285F4"/>
<path d="M17.0799 9.14648H14.9199V22.8398H17.0799V9.14648Z" fill="#669DF6"/>
<path d="M29.3333 14.9199H25.7333V17.0799H29.3333V14.9199Z" fill="#669DF6"/>
<path d="M8.78662 22.8533V24.6266C8.78662 24.7292 8.82736 24.8275 8.89987 24.9C8.97239 24.9725 9.07074 25.0133 9.17329 25.0133H22.8266C22.9292 25.0133 23.0275 24.9725 23.1 24.9C23.1726 24.8275 23.2133 24.7292 23.2133 24.6266V22.8533H8.78662Z" fill="#669DF6"/>
<path d="M22.8266 6.98657H9.17329C9.07074 6.98657 8.97239 7.02731 8.89987 7.09982C8.82736 7.17234 8.78662 7.27069 8.78662 7.37324V9.14657H23.2133V7.37324C23.2133 7.27069 23.1726 7.17234 23.1 7.09982C23.0275 7.02731 22.9292 6.98657 22.8266 6.98657Z" fill="#669DF6"/>
<path d="M25.76 11.6799H19.92C19.7432 11.6799 19.6 11.8232 19.6 11.9999V20.0133C19.6 20.19 19.7432 20.3333 19.92 20.3333H25.76C25.9367 20.3333 26.08 20.19 26.08 20.0133V11.9999C26.08 11.8232 25.9367 11.6799 25.76 11.6799Z" fill="#4285F4"/>
</svg>
