<svg width="32" height="32" viewBox="0 0 32 32" fill="none" xmlns="http://www.w3.org/2000/svg">
<path d="M26.4763 20C26.554 20 26.6311 20.0033 26.7072 20.0097L26.4763 20C26.582 20 26.6865 20.006 26.7892 20.0178C26.8395 20.0235 26.8898 20.0307 26.9396 20.0392C26.9639 20.0434 26.9875 20.0478 27.011 20.0524C27.0674 20.0636 27.1239 20.0768 27.1798 20.0916C27.1928 20.0951 27.2051 20.0985 27.2174 20.1019C28.4359 20.4444 29.3334 21.6122 29.3334 23C29.3334 24.6569 28.0542 26 26.4763 26C24.8983 26 23.6191 24.6569 23.6191 23C23.6191 21.8374 24.2489 20.8293 25.1698 20.3313L25.2135 20.3082C25.2592 20.2845 25.3056 20.2621 25.3526 20.2409L25.1698 20.3313C25.2481 20.289 25.3284 20.2504 25.4106 20.2156C25.4571 20.196 25.5038 20.1778 25.5511 20.1608C25.5734 20.1528 25.5961 20.1449 25.6189 20.1374C25.6588 20.1243 25.6988 20.1121 25.7391 20.1008C25.7702 20.0921 25.8014 20.084 25.8328 20.0764C25.8788 20.0653 25.926 20.0552 25.9736 20.0463C25.9936 20.0425 26.0137 20.039 26.0338 20.0358C26.0899 20.0266 26.1461 20.0192 26.2028 20.0136C26.2194 20.0119 26.2359 20.0104 26.2525 20.0091C26.3261 20.0031 26.4008 20 26.4763 20ZM5.52389 20C5.60613 20 5.68755 20.0036 5.76803 20.0108L5.52389 20C5.62807 20 5.73095 20.0059 5.83225 20.0173C5.88512 20.0232 5.93795 20.0307 5.9903 20.0398C6.02171 20.0452 6.05237 20.051 6.08285 20.0574C6.13252 20.0677 6.18184 20.0794 6.23065 20.0925C6.25645 20.0994 6.28162 20.1065 6.30666 20.114C6.38007 20.1359 6.45316 20.1611 6.52489 20.1893C6.53133 20.1918 6.53806 20.1945 6.54478 20.1972C6.60844 20.2228 6.67072 20.2505 6.73182 20.2805C6.7411 20.2851 6.75026 20.2896 6.75939 20.2942C7.71901 20.7785 8.38103 21.8081 8.38103 23C8.38103 24.6569 7.10185 26 5.52389 26C3.94593 26 2.66675 24.6569 2.66675 23C2.66675 21.5088 3.70296 20.2717 5.06058 20.0392C5.07951 20.036 5.0988 20.0329 5.11816 20.03C5.1267 20.0287 5.13508 20.0275 5.14347 20.0264C5.2678 20.009 5.39485 20 5.52389 20ZM20.6132 15C21.057 15 21.4167 15.3694 21.4167 15.825C21.4167 15.952 21.3888 16.0722 21.3389 16.1797L21.3407 16.1836L17.1518 23.064C17.0755 23.2268 16.9741 23.3747 16.8525 23.5025C16.5607 23.8095 16.1533 24 15.7025 24C14.8149 24 14.0953 23.2613 14.0953 22.35C14.0953 21.9394 14.2414 21.5637 14.4832 21.275L14.5473 21.2053L14.5411 21.1997L20.0917 15.1919C20.2354 15.0729 20.416 15 20.6132 15ZM20.1447 9C24.0179 10.6189 26.8274 14.4412 27.1796 18.9932C26.9512 18.9488 26.7163 18.9259 26.4763 18.9259C26.0064 18.9259 25.5561 19.0136 25.1393 19.1742C24.8612 15.5329 22.6586 12.4609 19.6003 11.0792C19.8968 10.5592 20.085 9.96188 20.1327 9.32283L20.1447 9ZM12.3914 8.75659C12.3869 8.83712 12.3846 8.91828 12.3846 9C12.3846 9.67662 12.5417 10.3147 12.8196 10.8763C9.51662 12.135 7.09434 15.3257 6.79066 19.1486C6.39444 19.0042 5.96788 18.9259 5.52389 18.9259C5.25864 18.9259 4.99961 18.9539 4.74932 19.0071C5.09569 14.4528 7.90366 10.6258 11.776 8.99395L12.1053 8.86146L12.3914 8.75659ZM16.2646 6C17.7175 6 18.9171 7.13869 19.0982 8.6125C19.0977 8.61236 19.0969 8.61189 19.0982 8.6125L19.1125 8.75623C19.1186 8.83663 19.1218 8.91793 19.1218 9C19.1218 9.08161 19.1187 9.16246 19.1126 9.24243L19.1218 9C19.1218 9.10933 19.1162 9.21729 19.1053 9.32359C19.1 9.37621 19.0933 9.42814 19.0855 9.47964C19.0808 9.51019 19.0757 9.54047 19.0702 9.57058C19.0615 9.61767 19.0518 9.66449 19.0411 9.71089C19.0341 9.74109 19.0268 9.77073 19.019 9.80018C18.9572 10.0353 18.8688 10.2588 18.7575 10.467C18.7493 10.4822 18.7411 10.4973 18.7327 10.5123C18.7026 10.5664 18.671 10.6193 18.6379 10.671C18.6306 10.6823 18.6236 10.6932 18.6165 10.704C18.1009 11.487 17.2398 12 16.2646 12C15.0837 12 14.0701 11.2477 13.6348 10.1747C13.6236 10.146 13.6123 10.1172 13.6015 10.0881C13.5887 10.0542 13.5768 10.0204 13.5655 9.9862C13.5537 9.95029 13.5424 9.91388 13.5317 9.87718C13.4982 9.7624 13.4711 9.64436 13.4509 9.52383C13.4473 9.50235 13.4439 9.48047 13.4407 9.45851C13.4188 9.30876 13.4075 9.15577 13.4075 9C13.4075 8.82505 13.4218 8.6536 13.4491 8.48686C13.4515 8.47208 13.4541 8.45744 13.4567 8.44284C13.7054 7.05221 14.868 6 16.2646 6Z" fill="#4285F4"/>
</svg>
