<svg width="32" height="32" viewBox="0 0 32 32" fill="none" xmlns="http://www.w3.org/2000/svg">
<path fill-rule="evenodd" clip-rule="evenodd" d="M4.35996 16.5199L6.77329 13.6132C6.79066 13.5896 6.81533 13.5723 6.84349 13.5641C6.87165 13.556 6.90173 13.5573 6.92906 13.5679C6.9564 13.5785 6.97946 13.5979 6.99469 13.6229C7.00992 13.648 7.01646 13.6774 7.01329 13.7066V19.9999C7.01293 20.026 7.00491 20.0514 6.99023 20.073C6.97556 20.0946 6.95487 20.1114 6.93074 20.1213C6.9066 20.1312 6.88009 20.1339 6.85447 20.1289C6.82885 20.1239 6.80526 20.1115 6.78663 20.0932L5.71996 19.0266C5.32186 19.7706 5.14544 20.6133 5.21161 21.4545C5.27778 22.2958 5.58376 23.1005 6.09329 23.7732C6.42274 24.2076 6.83752 24.5701 7.31214 24.8383C7.78676 25.1066 8.31122 25.275 8.85329 25.3332C9.39101 25.4001 9.93676 25.354 10.4556 25.1979C10.9745 25.0418 11.4551 24.7791 11.8666 24.4266C12.2389 24.1124 12.5507 23.7328 12.7866 23.3066L12.9466 23.0399L13.12 23.2932C13.5286 23.9029 14.0025 24.4663 14.5333 24.9732L14.6666 25.0932L14.56 25.2399C13.9685 26.0799 13.1866 26.7679 12.2781 27.2476C11.3697 27.7273 10.3605 27.9851 9.33329 27.9999C8.44377 27.986 7.5657 27.797 6.74923 27.4437C5.93277 27.0904 5.19389 26.5797 4.57481 25.9408C3.95573 25.302 3.46858 24.5474 3.14117 23.7202C2.81376 22.893 2.65251 22.0094 2.66662 21.1199C2.65941 19.4328 3.2606 17.7996 4.35996 16.5199Z" fill="#669DF6"/>
<path fill-rule="evenodd" clip-rule="evenodd" d="M27.6399 16.5199L25.2266 13.6132C25.2092 13.5896 25.1845 13.5723 25.1564 13.5641C25.1282 13.556 25.0981 13.5573 25.0708 13.5679C25.0435 13.5785 25.0204 13.5979 25.0052 13.6229C24.99 13.648 24.9834 13.6774 24.9866 13.7066V19.9999C24.987 20.026 24.995 20.0514 25.0096 20.073C25.0243 20.0946 25.045 20.1114 25.0691 20.1213C25.0933 20.1312 25.1198 20.1339 25.1454 20.1289C25.171 20.1239 25.1946 20.1115 25.2133 20.0932L26.2799 19.0266C26.678 19.7706 26.8544 20.6133 26.7883 21.4545C26.7221 22.2958 26.4161 23.1005 25.9066 23.7732C25.5771 24.2076 25.1624 24.5701 24.6877 24.8383C24.2131 25.1066 23.6887 25.275 23.1466 25.3332C22.6089 25.4001 22.0631 25.354 21.5442 25.1979C21.0254 25.0418 20.5448 24.7791 20.1333 24.4266C19.7609 24.1124 19.4492 23.7328 19.2133 23.3066L19.0533 23.0399L18.8799 23.2932C18.4713 23.9029 17.9974 24.4663 17.4666 24.9732L17.3333 25.0932L17.4399 25.2399C18.0314 26.0799 18.8133 26.7679 19.7218 27.2476C20.6302 27.7273 21.6394 27.9851 22.6666 27.9999C23.5561 27.986 24.4342 27.797 25.2506 27.4437C26.0671 27.0904 26.806 26.5797 27.4251 25.9408C28.0441 25.302 28.5313 24.5474 28.8587 23.7202C29.1861 22.893 29.3474 22.0094 29.3333 21.1199C29.3405 19.4328 28.7393 17.7996 27.6399 16.5199Z" fill="#4285F4"/>
<path fill-rule="evenodd" clip-rule="evenodd" d="M14.6667 8C14.6667 7.64638 14.8071 7.30724 15.0572 7.05719C15.3072 6.80714 15.6464 6.66667 16 6.66667V4C14.9391 4 13.9217 4.42143 13.1716 5.17157C12.4214 5.92172 12 6.93913 12 8C12 9.06087 12.4214 10.0783 13.1716 10.8284C13.9217 11.5786 14.9391 12 16 12V9.33333C15.6464 9.33333 15.3072 9.19286 15.0572 8.94281C14.8071 8.69276 14.6667 8.35362 14.6667 8Z" fill="#669DF6"/>
<path fill-rule="evenodd" clip-rule="evenodd" d="M20 8C20 6.93913 19.5786 5.92172 18.8284 5.17157C18.0783 4.42143 17.0609 4 16 4V6.66667C16.3536 6.66667 16.6928 6.80714 16.9428 7.05719C17.1929 7.30724 17.3333 7.64638 17.3333 8C17.3333 8.35362 17.1929 8.69276 16.9428 8.94281C16.6928 9.19286 16.3536 9.33333 16 9.33333V12C17.0609 12 18.0783 11.5786 18.8284 10.8284C19.5786 10.0783 20 9.06087 20 8Z" fill="#4285F4"/>
<path fill-rule="evenodd" clip-rule="evenodd" d="M15.9999 22.6666C14.4133 22.6666 11.9999 19.7199 11.9999 17.1199V13.3333L15.9999 11.9999V9.33325L9.33325 11.9999V17.1199C9.33325 20.7333 12.5733 25.3333 15.9999 25.3333V22.6666Z" fill="#AECBFA"/>
<path fill-rule="evenodd" clip-rule="evenodd" d="M22.6667 17.1199V11.9999L16 9.33325V11.9999L20 13.3333V17.1199C20 19.7199 17.5867 22.6666 16 22.6666V25.3333C19.4267 25.3333 22.6667 20.7199 22.6667 17.1199Z" fill="#669DF6"/>
<path fill-rule="evenodd" clip-rule="evenodd" d="M16.5066 19.1867C16.374 19.3206 16.2161 19.4268 16.0422 19.4993C15.8683 19.5718 15.6817 19.6092 15.4933 19.6092C15.3049 19.6092 15.1183 19.5718 14.9444 19.4993C14.7704 19.4268 14.6126 19.3206 14.48 19.1867L12.4933 17.2001L13.5066 16.1867L15.4933 18.1734L21.1866 12.4934L22.2 13.5067L16.5066 19.1867Z" fill="#4285F4"/>
</svg>
