<svg width="32" height="32" viewBox="0 0 32 32" fill="none" xmlns="http://www.w3.org/2000/svg">
<path d="M21.5791 16.5572L26.8333 18.9407V22.516C26.8333 23.9342 26.4188 25.3107 25.7124 26.4787L24.0194 24.7506C24.7667 23.5946 24.6441 22.0214 23.6458 21.0025C22.5074 19.8405 20.6567 19.8405 19.5183 21.0025C18.3799 22.1644 18.3799 24.0534 19.5183 25.2154C20.5166 26.2344 22.0578 26.3655 23.1904 25.5968L25.0119 27.4559C24.107 28.5345 22.9219 29.333 21.5791 29.6667C18.5667 28.9158 16.3249 25.8232 16.3249 22.516V18.9407L21.5791 16.5572ZM21.6275 3L21.8137 3.00807C22.8534 3.09855 23.6813 3.93944 23.7751 4.98812L23.7839 5.18705L23.7907 16.6027L21.6267 15.6187L21.6275 5.18705H7.68316V22.6835L15.5693 22.6827L15.5719 22.7626C15.6004 23.4824 15.7204 24.1905 15.9202 24.8703L7.67225 24.8705C6.5347 24.8705 5.6029 23.9872 5.50797 22.8715L5.5 22.6835L5.51092 5.18705C5.51092 4.04748 6.38285 3.1042 7.49558 3.00807L7.68316 3H21.6275ZM15.5653 18.2838V20.458H9.80465V18.2838H15.5653ZM19.3002 13.9353V16.1095H9.80465V13.9353H19.3002ZM18.0974 9.58673V11.697H9.80465V9.58673H18.0974ZM21.5791 24.8996C22.5464 24.8996 23.3305 24.0992 23.3305 23.1119C23.3305 22.1246 22.5464 21.3242 21.5791 21.3242C20.6119 21.3242 19.8277 22.1246 19.8277 23.1119C19.8277 24.0992 20.6119 24.8996 21.5791 24.8996Z" fill="#4285F4"/>
</svg>
