<svg width="32" height="32" viewBox="0 0 32 32" fill="none" xmlns="http://www.w3.org/2000/svg">
<path d="M24.3066 8.31992C22.007 6.39554 19.1052 5.33865 16.1066 5.33325C9.6533 5.33325 4.14663 10.1999 2.66663 17.1999C2.62857 17.3409 2.61947 17.4881 2.63989 17.6326C2.66032 17.7772 2.70983 17.9161 2.78546 18.041C2.86108 18.1658 2.96123 18.2741 3.07987 18.3592C3.19851 18.4442 3.33316 18.5044 3.47569 18.536C3.61823 18.5675 3.76569 18.5699 3.90915 18.5429C4.05262 18.5158 4.18912 18.46 4.31041 18.3788C4.43169 18.2975 4.53525 18.1925 4.61481 18.0701C4.69437 17.9477 4.74828 17.8104 4.7733 17.6666C6.03997 11.6533 10.6666 7.46659 16.1066 7.46659C18.2277 7.47403 20.2967 8.12492 22.04 9.33325L24.3066 8.31992Z" fill="#4285F4"/>
<path d="M24.8933 10.04L17.0533 13.5467C16.5619 13.3523 16.024 13.3082 15.5076 13.4201C14.9912 13.532 14.5197 13.7947 14.1529 14.175C13.7861 14.5553 13.5405 15.036 13.4473 15.5561C13.3541 16.0762 13.4176 16.6122 13.6295 17.0962C13.8415 17.5801 14.1925 17.9902 14.6379 18.2744C15.0833 18.5586 15.6032 18.7041 16.1314 18.6923C16.6596 18.6806 17.1725 18.5122 17.6048 18.2085C18.0372 17.9049 18.3696 17.4796 18.5599 16.9867C18.6397 16.7901 18.6935 16.5839 18.7199 16.3734C18.7418 16.379 18.7647 16.379 18.7866 16.3734L25.4533 11.04C26.2399 10.32 25.8133 9.62668 24.8933 10.04Z" fill="#4285F4"/>
<path d="M26.72 14.44C27.3385 14.44 27.84 13.9385 27.84 13.32C27.84 12.7014 27.3385 12.2 26.72 12.2C26.1014 12.2 25.6 12.7014 25.6 13.32C25.6 13.9385 26.1014 14.44 26.72 14.44Z" fill="#669DF6"/>
<path d="M28.2133 18.5066C28.8318 18.5066 29.3333 18.0052 29.3333 17.3866C29.3333 16.768 28.8318 16.2666 28.2133 16.2666C27.5947 16.2666 27.0933 16.768 27.0933 17.3866C27.0933 18.0052 27.5947 18.5066 28.2133 18.5066Z" fill="#AECBFA"/>
</svg>
