<svg width="32" height="32" viewBox="0 0 32 32" fill="none" xmlns="http://www.w3.org/2000/svg">
<path d="M29 14.7068H3V17.3068H29V14.7068Z" fill="#AECBFA"/>
<path d="M16 25.0934C21.0221 25.0934 25.0933 21.0222 25.0933 16.0001C25.0933 10.978 21.0221 6.90674 16 6.90674C10.9778 6.90674 6.90662 10.978 6.90662 16.0001C6.90662 21.0222 10.9778 25.0934 16 25.0934Z" fill="#669DF6"/>
<path d="M19.2533 13.4001V12.7467C19.2533 11.8839 18.9106 11.0564 18.3005 10.4463C17.6903 9.83617 16.8628 9.49341 16 9.49341C15.1372 9.49341 14.3097 9.83617 13.6995 10.4463C13.0894 11.0564 12.7467 11.8839 12.7467 12.7467V13.4001C12.393 13.4001 12.0539 13.5406 11.8039 13.7906C11.5538 14.0406 11.4133 14.3798 11.4133 14.7334V19.9201C11.4133 20.2737 11.5538 20.6128 11.8039 20.8629C12.0539 21.1129 12.393 21.2534 12.7467 21.2534H19.2533C19.607 21.2534 19.9461 21.1129 20.1961 20.8629C20.4462 20.6128 20.5867 20.2737 20.5867 19.9201V14.6667C20.5695 14.3248 20.4215 14.0025 20.1733 13.7667C19.9251 13.5309 19.5957 13.3996 19.2533 13.4001Z" fill="white"/>
<path d="M18.2133 13.4001H13.7866V12.7468C13.7866 12.1598 14.0198 11.5968 14.4349 11.1817C14.85 10.7666 15.4129 10.5334 16 10.5334C16.587 10.5334 17.1499 10.7666 17.565 11.1817C17.9801 11.5968 18.2133 12.1598 18.2133 12.7468V13.4001Z" fill="#669DF6"/>
<path d="M16 18.5867C16.7143 18.5867 17.2933 18.0076 17.2933 17.2933C17.2933 16.579 16.7143 16 16 16C15.2857 16 14.7067 16.579 14.7067 17.2933C14.7067 18.0076 15.2857 18.5867 16 18.5867Z" fill="#4285F4"/>
</svg>
