<svg width="32" height="32" viewBox="0 0 32 32" fill="none" xmlns="http://www.w3.org/2000/svg">
<path d="M16 8.30664L9.70667 11.1066V15.3066C9.72622 16.6861 10.0636 18.0426 10.6926 19.2705C11.3216 20.4984 12.2252 21.5647 13.3333 22.3866C14.1264 23.0013 15.0324 23.4543 16 23.72V8.30664Z" fill="#669DF6"/>
<path d="M16 23.6933C17.8189 23.1709 19.4176 22.0692 20.5534 20.5556C21.6892 19.0419 22.3001 17.199 22.2933 15.3066V11.1066L16 8.30664V23.6933Z" fill="#4285F4"/>
<path d="M22.7734 15.4934C22.7734 15.8401 22.7734 16.1734 22.6934 16.5067H25.8667V15.4934H22.7734Z" fill="#4285F4"/>
<path d="M9.22663 15.4934C9.22663 15.8401 9.22663 16.1734 9.30663 16.5067H6.1333V15.4934H9.22663Z" fill="#4285F4"/>
<path d="M4.78664 16.9732C4.52849 16.9732 4.28092 16.8707 4.09839 16.6881C3.91585 16.5056 3.81331 16.258 3.81331 15.9999C3.81331 15.7418 3.91585 15.4942 4.09839 15.3116C4.28092 15.1291 4.52849 15.0266 4.78664 15.0266V14.2266C4.55376 14.2266 4.32316 14.2724 4.10801 14.3615C3.89286 14.4507 3.69737 14.5813 3.5327 14.746C3.36803 14.9106 3.23741 15.1061 3.14829 15.3213C3.05917 15.5364 3.01331 15.767 3.01331 15.9999C3.01331 16.2328 3.05917 16.4634 3.14829 16.6785C3.23741 16.8937 3.36803 17.0892 3.5327 17.2538C3.69737 17.4185 3.89286 17.5491 4.10801 17.6382C4.32316 17.7274 4.55376 17.7732 4.78664 17.7732V16.9732Z" fill="#AECBFA"/>
<path d="M18.96 19.0266C18.9565 19.2223 18.8763 19.4088 18.7367 19.546C18.597 19.6831 18.4091 19.76 18.2133 19.7599H13.7867H13.6533C13.4861 19.7317 13.3343 19.6453 13.2245 19.516C13.1147 19.3867 13.0541 19.2228 13.0533 19.0533V15.3333C13.0533 15.237 13.0723 15.1416 13.1092 15.0526C13.146 14.9637 13.2 14.8828 13.2681 14.8147C13.3362 14.7466 13.4171 14.6926 13.506 14.6557C13.595 14.6189 13.6904 14.5999 13.7867 14.5999H14.16V13.8533C14.1994 13.3906 14.411 12.9595 14.7529 12.6454C15.0949 12.3313 15.5423 12.157 16.0067 12.157C16.471 12.157 16.9185 12.3313 17.2604 12.6454C17.6024 12.9595 17.814 13.3906 17.8533 13.8533V14.6666H18.2133C18.2791 14.6512 18.3476 14.6512 18.4133 14.6666C18.5414 14.7039 18.6565 14.776 18.746 14.8748C18.8355 14.9737 18.8957 15.0955 18.92 15.2266C18.9277 15.2707 18.9277 15.3158 18.92 15.3599L18.96 19.0266ZM16 12.7199H15.8667C15.6133 12.748 15.3768 12.8606 15.1954 13.0396C15.0139 13.2187 14.8981 13.4536 14.8667 13.7066C14.8667 13.7066 14.8667 13.7999 14.8667 13.8399V14.6666H17.16V13.9199C17.1581 13.7585 17.1217 13.5994 17.0533 13.4533C16.9741 13.2378 16.8305 13.0519 16.6421 12.9207C16.4537 12.7896 16.2296 12.7195 16 12.7199Z" fill="white"/>
<path d="M16.3334 15.4399L14.8667 17.3999H15.7067V18.8799L17.1334 16.8933H16.3334V15.4399Z" fill="#4285F4"/>
<path d="M4.78662 17.7733C5.01999 17.7751 5.25139 17.7304 5.46734 17.6419C5.68329 17.5534 5.87949 17.4229 6.04451 17.2578C6.20954 17.0928 6.34009 16.8966 6.42858 16.6807C6.51707 16.4647 6.56173 16.2333 6.55995 15.9999C6.56173 15.7666 6.51707 15.5352 6.42858 15.3192C6.34009 15.1033 6.20954 14.9071 6.04451 14.7421C5.87949 14.577 5.68329 14.4465 5.46734 14.358C5.25139 14.2695 5.01999 14.2248 4.78662 14.2266V15.0266C5.04477 15.0266 5.29234 15.1292 5.47487 15.3117C5.65741 15.4942 5.75995 15.7418 5.75995 15.9999C5.75995 16.2581 5.65741 16.5057 5.47487 16.6882C5.29234 16.8707 5.04477 16.9733 4.78662 16.9733V17.7733Z" fill="#669DF6"/>
<path d="M27.2133 16.9732C26.9551 16.9732 26.7076 16.8707 26.525 16.6881C26.3425 16.5056 26.2399 16.258 26.2399 15.9999C26.2399 15.7418 26.3425 15.4942 26.525 15.3116C26.7076 15.1291 26.9551 15.0266 27.2133 15.0266V14.2266C26.743 14.2266 26.2919 14.4134 25.9593 14.746C25.6268 15.0785 25.4399 15.5296 25.4399 15.9999C25.4399 16.4702 25.6268 16.9213 25.9593 17.2538C26.2919 17.5864 26.743 17.7732 27.2133 17.7732V16.9732Z" fill="#AECBFA"/>
<path d="M27.2134 17.7733C27.4479 17.7768 27.6807 17.7335 27.8982 17.6458C28.1157 17.5581 28.3135 17.4278 28.4799 17.2626C28.6464 17.0974 28.7781 16.9006 28.8675 16.6838C28.9568 16.467 29.0018 16.2345 29 15.9999C29.0001 15.7659 28.9537 15.5343 28.8638 15.3182C28.7738 15.1022 28.642 14.9061 28.4759 14.7413C28.3099 14.5764 28.1128 14.4461 27.8961 14.3578C27.6794 14.2694 27.4474 14.2249 27.2134 14.2266V15.0266C27.4715 15.0266 27.7191 15.1292 27.9016 15.3117C28.0842 15.4942 28.1867 15.7418 28.1867 15.9999C28.1867 16.2581 28.0842 16.5057 27.9016 16.6882C27.7191 16.8707 27.4715 16.9733 27.2134 16.9733V17.7733Z" fill="#669DF6"/>
</svg>
