<svg width="32" height="32" viewBox="0 0 32 32" fill="none" xmlns="http://www.w3.org/2000/svg">
<path d="M21.3332 2.66675H10.6665V5.33341H21.3332V2.66675Z" fill="#669DF6"/>
<path d="M22.0532 9.90674L21.8799 10.0801L23.9999 12.2134L24.1599 12.0001C23.5587 11.2075 22.8496 10.5029 22.0532 9.90674Z" fill="#669DF6"/>
<path d="M27.48 8.73343L25.3466 6.6001L22.1333 9.81343L25.48 10.7334L27.48 8.73343Z" fill="#669DF6"/>
<path d="M22.1332 9.81348L22.0532 9.90681C22.8496 10.5029 23.5587 11.2075 24.1599 12.0001L25.4932 10.6668L22.1332 9.81348Z" fill="#4285F4"/>
<path d="M15.9998 24.0002C18.9454 24.0002 21.3332 21.6123 21.3332 18.6668C21.3332 15.7213 18.9454 13.3335 15.9998 13.3335C13.0543 13.3335 10.6665 15.7213 10.6665 18.6668C10.6665 21.6123 13.0543 24.0002 15.9998 24.0002Z" fill="#669DF6"/>
<path d="M15.9999 24.0002C17.4144 24.0002 18.7709 23.4383 19.7711 22.4381C20.7713 21.4379 21.3332 20.0813 21.3332 18.6668C21.3332 17.2523 20.7713 15.8958 19.7711 14.8956C18.7709 13.8954 17.4144 13.3335 15.9999 13.3335V18.6668L11.6399 21.7602C12.1346 22.455 12.7887 23.021 13.5473 23.4107C14.3059 23.8005 15.147 24.0026 15.9999 24.0002Z" fill="#AECBFA"/>
<path d="M15.9999 29.3333C13.8903 29.3333 11.828 28.7077 10.0738 27.5357C8.31972 26.3636 6.95254 24.6977 6.14521 22.7486C5.33787 20.7995 5.12664 18.6548 5.53821 16.5857C5.94979 14.5166 6.96569 12.616 8.45745 11.1242C9.94921 9.63244 11.8498 8.61654 13.919 8.20496C15.9881 7.79339 18.1328 8.00462 20.0819 8.81196C22.031 9.61929 23.6969 10.9865 24.8689 12.7406C26.041 14.4947 26.6666 16.557 26.6666 18.6667C26.6666 21.4956 25.5428 24.2088 23.5424 26.2091C21.542 28.2095 18.8289 29.3333 15.9999 29.3333ZM15.9999 26.6667C17.5822 26.6667 19.1289 26.1975 20.4445 25.3184C21.7601 24.4394 22.7855 23.1899 23.391 21.7281C23.9965 20.2663 24.1549 18.6578 23.8462 17.1059C23.5375 15.5541 22.7756 14.1286 21.6568 13.0098C20.538 11.891 19.1125 11.1291 17.5606 10.8204C16.0088 10.5117 14.4003 10.6701 12.9385 11.2756C11.4766 11.8811 10.2272 12.9065 9.34817 14.2221C8.46911 15.5377 7.99992 17.0844 7.99992 18.6667C7.99992 20.7884 8.84278 22.8232 10.3431 24.3235C11.8434 25.8238 13.8782 26.6667 15.9999 26.6667Z" fill="#669DF6"/>
</svg>
