<svg width="32" height="32" viewBox="0 0 32 32" fill="none" xmlns="http://www.w3.org/2000/svg">
<g clip-path="url(#clip0_845_19999)">
<path fill-rule="evenodd" clip-rule="evenodd" d="M1.06665 7.86665L4.93332 1.06665H12.6667L16.5333 7.86665L12.6667 14.5333H4.93332L1.06665 7.86665Z" fill="#85A4E6"/>
<path fill-rule="evenodd" clip-rule="evenodd" d="M15.1999 10.2667L11.3333 3.46668L12.6666 0.93335L16.5333 7.86668L15.1999 10.2667Z" fill="#5C85DE"/>
<path fill-rule="evenodd" clip-rule="evenodd" d="M3.6001 12.4H11.3334L14.0001 7.8667L15.2001 10.2667L12.6668 14.5334L4.93343 14.6667L3.6001 12.4Z" fill="#3367D6"/>
<path fill-rule="evenodd" clip-rule="evenodd" d="M14.9333 15.8666L18.9333 9.06665H26.6667L30.5333 15.8666L26.6667 22.5333H18.9333L14.9333 15.8666Z" fill="#85A4E6"/>
<path fill-rule="evenodd" clip-rule="evenodd" d="M29.1999 18.2667L25.3333 11.4667L26.6666 8.93335L30.5333 15.8667L29.1999 18.2667Z" fill="#5C85DE"/>
<path fill-rule="evenodd" clip-rule="evenodd" d="M17.6001 20.4H25.3334L28.0001 15.8667L29.2001 18.2667L26.6668 22.5334L18.9334 22.6667L17.6001 20.4Z" fill="#3367D6"/>
<path fill-rule="evenodd" clip-rule="evenodd" d="M1.06665 23.8666L4.93332 17.0667H12.6667L16.5333 23.8666L12.6667 30.5333H4.93332L1.06665 23.8666Z" fill="#85A4E6"/>
<path fill-rule="evenodd" clip-rule="evenodd" d="M15.1999 26.2667L11.3333 19.4667L12.6666 16.9333L16.5333 23.8667L15.1999 26.2667Z" fill="#5C85DE"/>
<path fill-rule="evenodd" clip-rule="evenodd" d="M3.6001 28.4H11.3334L14.0001 23.8667L15.2001 26.2667L12.6668 30.5334L4.93343 30.6667L3.6001 28.4Z" fill="#3367D6"/>
</g>
<defs>
<clipPath id="clip0_845_19999">
<rect width="32" height="32" fill="white"/>
</clipPath>
</defs>
</svg>
