<svg width="32" height="32" viewBox="0 0 32 32" fill="none" xmlns="http://www.w3.org/2000/svg">
<path d="M25.2933 13.24C26.5599 13.24 27.5867 12.2132 27.5867 10.9467C27.5867 9.68008 26.5599 8.65332 25.2933 8.65332C24.0268 8.65332 23 9.68008 23 10.9467C23 12.2132 24.0268 13.24 25.2933 13.24Z" fill="#669DF6"/>
<path d="M6.70666 13.24C7.97324 13.24 9 12.2132 9 10.9467C9 9.68008 7.97324 8.65332 6.70666 8.65332C5.44009 8.65332 4.41333 9.68008 4.41333 10.9467C4.41333 12.2132 5.44009 13.24 6.70666 13.24Z" fill="#669DF6"/>
<path d="M15.9999 29.3335C17.2664 29.3335 18.2932 28.3067 18.2932 27.0402C18.2932 25.7736 17.2664 24.7468 15.9999 24.7468C14.7333 24.7468 13.7065 25.7736 13.7065 27.0402C13.7065 28.3067 14.7333 29.3335 15.9999 29.3335Z" fill="#669DF6"/>
<path d="M16.5886 15.3018L15.5286 17.1462L24.855 22.5062L25.915 20.6618L16.5886 15.3018Z" fill="#4285F4"/>
<path d="M15.4618 15.4042L6.17798 20.7642L7.23798 22.6001L16.5218 17.2401L15.4618 15.4042Z" fill="#4285F4"/>
<path d="M17.0533 5.58667H14.9333V16.3067H17.0533V5.58667Z" fill="#4285F4"/>
<path d="M15.9999 20.0134C18.047 20.0134 19.7065 18.3539 19.7065 16.3068C19.7065 14.2596 18.047 12.6001 15.9999 12.6001C13.9527 12.6001 12.2932 14.2596 12.2932 16.3068C12.2932 18.3539 13.9527 20.0134 15.9999 20.0134Z" fill="#AECBFA"/>
<path d="M6.70662 24.5868C8.31929 24.5868 9.62662 23.2795 9.62662 21.6668C9.62662 20.0542 8.31929 18.7468 6.70662 18.7468C5.09395 18.7468 3.78662 20.0542 3.78662 21.6668C3.78662 23.2795 5.09395 24.5868 6.70662 24.5868Z" fill="#AECBFA"/>
<path d="M25.2933 24.5868C26.906 24.5868 28.2133 23.2795 28.2133 21.6668C28.2133 20.0542 26.906 18.7468 25.2933 18.7468C23.6806 18.7468 22.3733 20.0542 22.3733 21.6668C22.3733 23.2795 23.6806 24.5868 25.2933 24.5868Z" fill="#AECBFA"/>
<path d="M15.9998 8.50675C17.6125 8.50675 18.9198 7.19942 18.9198 5.58675C18.9198 3.97408 17.6125 2.66675 15.9998 2.66675C14.3872 2.66675 13.0798 3.97408 13.0798 5.58675C13.0798 7.19942 14.3872 8.50675 15.9998 8.50675Z" fill="#AECBFA"/>
</svg>
