<svg width="32" height="32" viewBox="0 0 32 32" fill="none" xmlns="http://www.w3.org/2000/svg">
<path d="M12.0133 2.66675H9.34668V6.66675H12.0133V2.66675Z" fill="#AECBFA"/>
<path d="M17.3468 2.66675H14.6802V6.66675H17.3468V2.66675Z" fill="#AECBFA"/>
<path d="M22.6801 2.66675H20.0134V6.66675H22.6801V2.66675Z" fill="#AECBFA"/>
<path d="M12.0133 25.3335H9.34668V29.3335H12.0133V25.3335Z" fill="#4285F4"/>
<path d="M17.3468 25.3335H14.6802V29.3335H17.3468V25.3335Z" fill="#4285F4"/>
<path d="M22.6801 25.3335H20.0134V29.3335H22.6801V25.3335Z" fill="#4285F4"/>
<path d="M29.3335 20H25.3335V22.6667H29.3335V20Z" fill="#4285F4"/>
<path d="M29.3335 14.6667H25.3335V17.3334H29.3335V14.6667Z" fill="#4285F4"/>
<path d="M29.3335 9.3335H25.3335V12.0002H29.3335V9.3335Z" fill="#4285F4"/>
<path d="M6.66675 20H2.66675V22.6667H6.66675V20Z" fill="#AECBFA"/>
<path d="M6.66675 14.6667H2.66675V17.3334H6.66675V14.6667Z" fill="#AECBFA"/>
<path d="M6.66675 9.3335H2.66675V12.0002H6.66675V9.3335Z" fill="#AECBFA"/>
<path d="M14.6668 17.3335H12.0002V9.3335H9.3335V20.0002H14.6668V24.0002H17.3335V20.0002H22.6668V9.3335H20.0002V17.3335H17.3335V8.00016H14.6668V17.3335ZM5.3335 26.6668V5.3335H26.6668V26.6668H5.3335Z" fill="#669DF6"/>
</svg>
