<svg width="32" height="32" viewBox="0 0 32 32" fill="none" xmlns="http://www.w3.org/2000/svg">
<path d="M7.99999 2.66675H5.33333V27.4401C5.31316 27.6793 5.3425 27.92 5.41952 28.1473C5.49653 28.3747 5.61958 28.5837 5.78097 28.7613C5.94237 28.939 6.13865 29.0815 6.35756 29.1799C6.57647 29.2783 6.81332 29.3306 7.05333 29.3334H24.9733C25.2123 29.3309 25.4481 29.2787 25.6658 29.18C25.8835 29.0813 26.0782 28.9383 26.2375 28.7601C26.3968 28.582 26.5173 28.3726 26.5911 28.1453C26.665 27.918 26.6908 27.6779 26.6667 27.4401V2.66675L24 2.85341V26.6667H7.99999V2.66675Z" fill="#669DF6"/>
<path d="M16 29.3334H24.9733C25.2123 29.3309 25.4482 29.2787 25.6658 29.18C25.8835 29.0813 26.0782 28.9383 26.2375 28.7601C26.3968 28.582 26.5173 28.3726 26.5912 28.1453C26.665 27.918 26.6908 27.6779 26.6667 27.4401V2.66675H24V26.6667H16V29.3334Z" fill="#4285F4"/>
<path d="M22.6667 16H9.33337V25.3333H22.6667V16Z" fill="#669DF6"/>
<path d="M22.6667 16H16V25.3333H22.6667V16Z" fill="#4285F4"/>
<path d="M10.6667 4H9.33337V8H10.6667V4Z" fill="#669DF6"/>
<path d="M10.6667 4H10V8H10.6667V4Z" fill="#4285F4"/>
<path d="M14.6667 4H13.3334V8H14.6667V4Z" fill="#669DF6"/>
<path d="M18.6667 4H17.3334V8H18.6667V4Z" fill="#669DF6"/>
<path d="M22.6667 4H21.3334V8H22.6667V4Z" fill="#669DF6"/>
<path d="M14.6667 4H14V8H14.6667V4Z" fill="#4285F4"/>
<path d="M18.6667 4H18V8H18.6667V4Z" fill="#4285F4"/>
<path d="M22.6667 4H22V8H22.6667V4Z" fill="#4285F4"/>
</svg>
