<svg width="32" height="32" viewBox="0 0 32 32" fill="none" xmlns="http://www.w3.org/2000/svg">
<g clip-path="url(#clip0_845_20057)">
<path d="M16.0001 30.2665C16.7365 30.2665 17.3334 29.6696 17.3334 28.9332C17.3334 28.1968 16.7365 27.5999 16.0001 27.5999C15.2637 27.5999 14.6667 28.1968 14.6667 28.9332C14.6667 29.6696 15.2637 30.2665 16.0001 30.2665Z" fill="#4285F4"/>
<path d="M4.60006 19.0666C5.33644 19.0666 5.93339 18.4696 5.93339 17.7332C5.93339 16.9969 5.33644 16.3999 4.60006 16.3999C3.86368 16.3999 3.26672 16.9969 3.26672 17.7332C3.26672 18.4696 3.86368 19.0666 4.60006 19.0666Z" fill="#4285F4"/>
<path d="M23.8 22.6667C24.5364 22.6667 25.1333 22.0697 25.1333 21.3333C25.1333 20.597 24.5364 20 23.8 20C23.0636 20 22.4667 20.597 22.4667 21.3333C22.4667 22.0697 23.0636 22.6667 23.8 22.6667Z" fill="#4285F4"/>
<path d="M21.28 22.7465L21.1734 22.5332L17.4534 26.3332L17.6267 26.4665C18.0267 26.7332 18.3467 27.0932 18.5734 27.5199L18.6934 27.7332L22.4 23.8799L22.24 23.7732C21.84 23.5065 21.52 23.1599 21.28 22.7465Z" fill="#4285F4"/>
<path d="M7.12003 19.1467C6.89336 19.56 6.56003 19.9067 6.17336 20.1733L5.98669 20.2933L13.3467 27.7333L13.4667 27.52C13.68 27.1067 14 26.7467 14.4 26.48L14.5734 26.36L7.22669 18.9333L7.12003 19.1467Z" fill="#4285F4"/>
<path d="M23.5468 2.1333C21.2934 2.14663 19.1468 3.0533 17.6001 4.63997L16.0001 6.18663L14.4001 4.63997C12.8668 3.0533 10.7201 2.14663 8.4801 2.1333C3.69344 2.23997 -0.0932314 6.06663 0.000101979 10.68C0.000101979 12.6266 0.666768 14.52 1.90677 16.0533L2.05344 16.2533L2.18677 16.0533C2.4401 15.6533 2.78677 15.32 3.2001 15.0933L3.38677 14.9866L3.26677 14.8133C2.33344 13.6266 1.8401 12.1733 1.8401 10.68C1.8001 8.94663 2.4801 7.26663 3.7201 6.0133C4.97344 4.74663 6.6801 4.02663 8.4801 3.98663C10.2668 3.99997 11.9601 4.71997 13.1734 5.98663L16.0001 8.82663L18.8534 5.94663C20.0668 4.6933 21.7734 3.98663 23.5468 3.98663C27.2934 4.07997 30.2534 7.06663 30.1734 10.68C30.1734 12.44 29.4801 14.1333 28.2401 15.4133L25.0401 18.6533L25.2534 18.7733C25.6534 19.0133 26.0001 19.3466 26.2401 19.7466L26.3468 19.9333L29.5468 16.7333C31.1334 15.0933 32.0134 12.9333 32.0001 10.68C32.0934 6.07997 28.3201 2.2533 23.5468 2.1333Z" fill="#4285F4"/>
</g>
<defs>
<clipPath id="clip0_845_20057">
<rect width="32" height="32" fill="white"/>
</clipPath>
</defs>
</svg>
