<svg width="32" height="32" viewBox="0 0 32 32" fill="none" xmlns="http://www.w3.org/2000/svg">
<path d="M16 2.66675H29.3333V16.0001H16V2.66675ZM21.9467 11.6801L25.7333 7.90675L24.6667 6.84008L22 9.50675L20.6667 8.17341L19.6 9.24008L21.9467 11.6801Z" fill="#AECBFA"/>
<path d="M2.66663 18.6667V29.3334H13.3333V18.6667H2.66663ZM10.6666 26.6667H5.33329V21.3334H10.6666V26.6667Z" fill="#4285F4"/>
<path d="M16 16.0002H29.3333V13.3735L18.6667 13.3335L16 16.0002Z" fill="#4285F4"/>
<path d="M26.6666 5.33341V13.3601L29.3333 16.0001V2.66675L26.6666 5.33341Z" fill="#669DF6"/>
<path d="M13.3333 29.3334L10.6666 26.6667V21.3334L13.3333 18.6667V29.3334Z" fill="#AECBFA"/>
<path d="M2.66663 29.3334L5.33329 26.6667H10.6666L13.3333 29.3334H2.66663Z" fill="#669DF6"/>
<path d="M2.66663 5.3335V16.0002H13.3333V5.3335H2.66663ZM10.6666 13.3335H5.33329V8.00016H10.6666V13.3335Z" fill="#4285F4"/>
<path d="M13.3333 16.0002L10.6666 13.3335V8.00016L13.3333 5.3335V16.0002Z" fill="#AECBFA"/>
<path d="M2.66663 16.0002L5.33329 13.3335H10.6666L13.3333 16.0002H2.66663Z" fill="#669DF6"/>
<path d="M16 18.6667V29.3334H26.6667V18.6667H16ZM24 26.6667H18.6667V21.3334H24V26.6667Z" fill="#4285F4"/>
<path d="M26.6667 29.3334L24 26.6667V21.3334L26.6667 18.6667V29.3334Z" fill="#AECBFA"/>
<path d="M16 29.3334L18.6667 26.6667H24L26.6667 29.3334H16Z" fill="#669DF6"/>
</svg>
