<svg width="32" height="32" viewBox="0 0 32 32" fill="none" xmlns="http://www.w3.org/2000/svg">
<path d="M16.6316 6.87727V9.68429H6.80702V26.8352H23.6491V16.7018H26.4561V26.5264C26.4561 28.0703 25.193 29.3334 23.6491 29.3334H6.80702C5.26316 29.3334 4 28.0703 4 26.5264V9.68429C4 8.14043 5.26316 6.87727 6.80702 6.87727H16.6316ZM16.6316 20.9124V23.7194H9.61404V20.9124H16.6316ZM20.8421 16.7018V19.5089H9.61404V16.7018H20.8421ZM20.8421 12.4913V15.2983H9.61404V12.4913H20.8421ZM25.0526 5.47377L26.3684 8.3685L29.2632 9.68429L26.3684 11.0001L25.0526 13.8948L23.7368 11.0001L20.8421 9.68429L23.7368 8.3685L25.0526 5.47377ZM20.8421 2.66675L21.7193 4.59657L23.6491 5.47377L21.7193 6.35096L20.8421 8.28078L19.9649 6.35096L18.0351 5.47377L19.9649 4.59657L20.8421 2.66675Z" fill="#4285F4"/>
</svg>
