<svg width="32" height="32" viewBox="0 0 32 32" fill="none" xmlns="http://www.w3.org/2000/svg">
<path d="M16.0001 13.9733V8.09334C16.0001 8.0268 15.987 7.96091 15.9615 7.89944C15.936 7.83797 15.8987 7.78212 15.8517 7.73507C15.8046 7.68802 15.7488 7.6507 15.6873 7.62524C15.6258 7.59978 15.5599 7.58667 15.4934 7.58667H13.4934C13.4275 7.58665 13.3622 7.59983 13.3015 7.62546C13.2407 7.65108 13.1857 7.68861 13.1398 7.73585C13.0938 7.78308 13.0577 7.83905 13.0337 7.90045C13.0097 7.96185 12.9983 8.02744 13.0001 8.09334V10.9333L14.3334 13.9733H16.0001Z" fill="#AECBFA"/>
<path d="M11.8 23.3468C11.3031 23.3441 10.8166 23.4892 10.4024 23.7636C9.98812 24.0381 9.66477 24.4294 9.47339 24.888C9.28202 25.3466 9.23125 25.8517 9.32755 26.3391C9.42384 26.8266 9.66285 27.2745 10.0142 27.6259C10.3656 27.9772 10.8134 28.2162 11.3009 28.3125C11.7884 28.4088 12.2935 28.3581 12.7521 28.1667C13.2107 27.9753 13.602 27.652 13.8764 27.2377C14.1509 26.8235 14.296 26.337 14.2933 25.8401C14.2898 25.1799 14.026 24.5477 13.5592 24.0809C13.0923 23.6141 12.4602 23.3503 11.8 23.3468ZM24.1733 23.3468C23.6764 23.3441 23.19 23.4892 22.7757 23.7636C22.3614 24.0381 22.0381 24.4294 21.8467 24.888C21.6554 25.3466 21.6046 25.8517 21.7009 26.3391C21.7972 26.8266 22.0362 27.2745 22.3875 27.6259C22.7389 27.9772 23.1868 28.2162 23.6743 28.3125C24.1617 28.4088 24.6669 28.3581 25.1254 28.1667C25.584 27.9753 25.9754 27.652 26.2498 27.2377C26.5242 26.8235 26.6693 26.337 26.6667 25.8401C26.6667 25.1788 26.404 24.5446 25.9364 24.077C25.4688 23.6094 24.8346 23.3468 24.1733 23.3468ZM19.8933 6.76008C19.8933 6.62571 19.8399 6.49684 19.7449 6.40182C19.6499 6.3068 19.521 6.25342 19.3867 6.25342H17.3333C17.2674 6.25339 17.2021 6.26658 17.1414 6.2922C17.0807 6.31783 17.0257 6.35536 16.9797 6.40259C16.9337 6.44983 16.8976 6.5058 16.8737 6.5672C16.8497 6.6286 16.8382 6.69419 16.84 6.76008V13.9734H19.84L19.8933 6.76008Z" fill="#669DF6"/>
<path d="M13.72 16.9733L12.2533 20H26.6666C26.9318 20 27.1862 20.1053 27.3737 20.2929C27.5613 20.4804 27.6666 20.7348 27.6666 21C27.6666 21.2652 27.5613 21.5196 27.3737 21.7071C27.1862 21.8946 26.9318 22 26.6666 22H12.2533C11.9149 22.0015 11.5818 21.9166 11.2854 21.7532C10.9891 21.5899 10.7394 21.3536 10.56 21.0667C10.3763 20.7812 10.2699 20.453 10.2512 20.1141C10.2325 19.7752 10.3022 19.4372 10.4533 19.1333L12 16L7.25329 5.65332H4.37329C4.10807 5.65332 3.85372 5.54796 3.66618 5.36043C3.47865 5.17289 3.37329 4.91854 3.37329 4.65332C3.37329 4.3881 3.47865 4.13375 3.66618 3.94621C3.85372 3.75868 4.10807 3.65332 4.37329 3.65332H7.90662C8.09805 3.65407 8.28524 3.70975 8.44596 3.81374C8.60668 3.91774 8.73417 4.06568 8.81329 4.23999L13.7333 14.9733H22.44L26.76 7.27999C26.8223 7.16238 26.9075 7.0584 27.0105 6.97415C27.1135 6.88989 27.2323 6.82704 27.36 6.7893C27.4876 6.75155 27.6215 6.73966 27.7538 6.75433C27.886 6.769 28.0141 6.80992 28.1303 6.87471C28.2466 6.9395 28.3488 7.02684 28.4308 7.13163C28.5129 7.23641 28.5732 7.35652 28.6083 7.48492C28.6433 7.61332 28.6524 7.74742 28.6349 7.87937C28.6175 8.01131 28.5738 8.13845 28.5066 8.25332L24.1733 16C24.0021 16.3101 23.7512 16.5688 23.4464 16.7493C23.1416 16.9298 22.7942 17.0256 22.44 17.0267L13.72 16.9733ZM23.8 10.5067V4.18665C23.8 4.12073 23.7868 4.05547 23.7612 3.99473C23.7355 3.93399 23.698 3.879 23.6508 3.83301C23.6036 3.78703 23.5476 3.75097 23.4862 3.72698C23.4248 3.70298 23.3592 3.69154 23.2933 3.69332H21.3333C21.268 3.69148 21.203 3.70298 21.1423 3.72712C21.0817 3.75126 21.0265 3.78754 20.9804 3.83372C20.9342 3.8799 20.8979 3.93502 20.8738 3.99571C20.8496 4.05639 20.8381 4.12137 20.84 4.18665V13.9733H21.8933L23.8 10.5067Z" fill="#4285F4"/>
</svg>
