<svg width="32" height="32" viewBox="0 0 32 32" fill="none" xmlns="http://www.w3.org/2000/svg">
<path d="M14.7193 1.33325C22.1122 1.33325 28.1053 7.32807 28.1053 14.7231L28.0934 15.2679L30.6667 16.4848V21.212C30.6667 25.5848 27.8223 29.6739 24 30.6666C22.1262 30.1799 20.4874 28.949 19.3035 27.3054C17.8749 27.8282 16.3304 28.1129 14.7193 28.1129C7.32647 28.1129 1.33337 22.118 1.33337 14.7231C1.33337 7.32807 7.32647 1.33325 14.7193 1.33325ZM17.4379 22.6673L11.6344 22.6695C11.758 23.0273 11.8903 23.3696 12.0307 23.6945C12.4908 24.7587 13.0173 25.5816 13.5558 26.1085C13.9955 26.5388 14.3904 26.7282 14.742 26.7324L14.776 26.7306L14.8889 26.7235C15.2088 26.6814 15.5628 26.4893 15.9519 26.1085C16.4904 25.5816 17.0169 24.7587 17.477 23.6945L17.5796 23.4437C17.5228 23.1875 17.4754 22.9285 17.4379 22.6673ZM10.0816 22.667L5.69684 22.668C7.30581 24.491 9.4595 25.8215 11.9031 26.4048C11.1872 25.4716 10.5663 24.1932 10.0816 22.667ZM25.3334 17.3333H22.6667V19.9986L20.0169 19.9994C20.0117 20.0276 20.0065 20.0557 20.0012 20.0837L20 22.6666L22.6667 22.6653V25.3333H25.3334V22.6653L28 22.6666V19.9999L25.3334 19.9986V17.3333ZM8.98437 16.0001L2.76144 16.001C2.96831 17.9573 3.64473 19.7734 4.67586 21.3346L9.7087 21.3345C9.31676 19.7335 9.06279 17.9262 8.98437 16.0001ZM18.3574 15.9999L10.4685 16.0012C10.5504 17.9219 10.8154 19.7398 11.2321 21.3348L17.3347 21.3333L17.3334 21.212V16.4848L18.3574 15.9999ZM9.44435 9.33302L3.96832 9.33338C3.16107 10.9385 2.70315 12.7497 2.69439 14.667L8.95737 14.6666L8.96135 14.298C8.985 12.536 9.15511 10.8598 9.44435 9.33302ZM18.5562 9.33267H10.9515C10.6243 10.9673 10.4449 12.7812 10.4414 14.6669L19.0654 14.6666L19.0603 14.118C19.0264 12.4295 18.8515 10.8081 18.5562 9.33267ZM25.4321 9.33338L19.9956 9.33302C20.305 10.966 20.4781 12.7699 20.4814 14.6669L21.1787 14.6666L24 13.3333L26.7027 14.6106L26.7011 14.369C26.6488 12.562 26.1974 10.8551 25.4321 9.33338ZM11.9026 3.04068L11.6177 3.11317C8.77911 3.8653 6.35297 5.63138 4.75016 8.00039L9.73624 8.00032C10.2541 5.93113 11.0038 4.21391 11.9026 3.04068ZM14.7444 2.71372C14.3993 2.71364 14.0005 2.90244 13.5558 3.33757C13.0173 3.86452 12.4908 4.68737 12.0307 5.75165C11.7372 6.43057 11.4794 7.18557 11.2615 8.00028H18.2462C18.0283 7.18557 17.7705 6.43057 17.477 5.75165C17.0169 4.68737 16.4904 3.86452 15.9519 3.33757C15.5132 2.90837 15.1192 2.71883 14.7683 2.71375C14.7605 2.71379 14.7525 2.71375 14.7444 2.71372ZM17.5465 3.05314L17.5785 3.09487C18.4591 4.2665 19.1938 5.96276 19.7037 8.00032L24.6503 8.00039C23.0032 5.56591 20.4866 3.76814 17.5465 3.05314Z" fill="#4285F4"/>
</svg>
