<svg width="32" height="32" viewBox="0 0 32 32" fill="none" xmlns="http://www.w3.org/2000/svg">
<path d="M29.3334 8V23.8491H24.0504C23.9115 23.8491 23.7988 23.7364 23.7988 23.5975V22.0881C23.7988 21.9491 23.9115 21.8365 24.0504 21.8365L27.3202 21.836V10.012L24.0504 10.0126C23.9115 10.0126 23.7988 9.89995 23.7988 9.76101V8.25157C23.7988 8.11263 23.9115 8 24.0504 8H29.3334ZM8.41222 8C8.55116 8 8.66379 8.11263 8.66379 8.25157V9.76101C8.66379 9.89995 8.55116 10.0126 8.41222 10.0126L4.67875 10.012V21.836L8.39002 21.8365C8.52896 21.8365 8.64159 21.9491 8.64159 22.0881V23.5975C8.64159 23.7364 8.52896 23.8491 8.39002 23.8491H2.66675V8H8.41222ZM23.2362 13.1572V15.0987L23.3173 15.1314L25.1176 14.4951L25.4906 15.5882L23.6741 16.2082L23.6255 16.3387L24.8743 18.0192L23.9336 18.7044L22.7172 17.0239H22.6037L21.3873 18.7044L20.4466 18.0192L21.6792 16.3387L21.6468 16.2082L19.8303 15.5882L20.2033 14.4951L21.9874 15.1314L22.0847 15.0987V13.1572H23.2362ZM9.59472 13.1572V15.0795L9.67581 15.1118L11.4761 14.4818L11.8491 15.5641L10.0326 16.178L9.98397 16.3072L11.2328 17.971L10.2921 18.6495L9.07572 16.9857H8.96218L7.74577 18.6495L6.80508 17.971L8.03771 16.3072L8.00527 16.178L6.18876 15.5641L6.56179 14.4818L8.34587 15.1118L8.44318 15.0795V13.1572H9.59472ZM16.3872 13.1572V15.0795L16.4683 15.1118L18.2686 14.4818L18.6416 15.5641L16.8251 16.178L16.7764 16.3072L18.0253 17.971L17.0846 18.6495L15.8682 16.9857H15.7546L14.5382 18.6495L13.5975 17.971L14.8302 16.3072L14.7977 16.178L12.9812 15.5641L13.3542 14.4818L15.1383 15.1118L15.2356 15.0795V13.1572H16.3872Z" fill="#4285F4"/>
</svg>
