<svg width="32" height="32" viewBox="0 0 32 32" fill="none" xmlns="http://www.w3.org/2000/svg">
<path d="M17.7466 9.13341C18.9501 9.44544 20.0482 10.0735 20.9273 10.9527C21.8065 11.8318 22.4346 12.9299 22.7466 14.1334H27.4532V6.98675L17.7466 2.66675V9.13341Z" fill="#4285F4"/>
<path d="M9.23996 14.1467C9.55071 12.9427 10.1784 11.8438 11.0577 10.9645C11.937 10.0852 13.0359 9.45749 14.24 9.14675V2.66675L4.54663 6.98675V14.1467H9.23996Z" fill="#4285F4"/>
<path d="M14.2532 22.6667C13.0497 22.3547 11.9515 21.7266 11.0724 20.8475C10.1933 19.9684 9.56521 18.8702 9.25318 17.6667H4.83984C5.33686 20.2323 6.4547 22.637 8.09564 24.6707C9.73659 26.7045 11.8507 28.3053 14.2532 29.3334V22.6667Z" fill="#4285F4"/>
<path d="M22.76 17.6667C22.448 18.8702 21.8199 19.9684 20.9408 20.8475C20.0616 21.7266 18.9635 22.3547 17.76 22.6667V29.3334C20.16 28.3036 22.2714 26.702 23.91 24.6683C25.5485 22.6347 26.6643 20.2309 27.16 17.6667H22.76Z" fill="#4285F4"/>
<path d="M16.0001 19.4001C17.9368 19.4001 19.5067 17.8301 19.5067 15.8934C19.5067 13.9567 17.9368 12.3867 16.0001 12.3867C14.0634 12.3867 12.4934 13.9567 12.4934 15.8934C12.4934 17.8301 14.0634 19.4001 16.0001 19.4001Z" fill="#669DF6"/>
</svg>
