<svg width="32" height="32" viewBox="0 0 32 32" fill="none" xmlns="http://www.w3.org/2000/svg">
<path d="M10.3733 22.1333V17.1333C10.3733 16.9333 9.98665 16.6799 9.71999 16.5599C8.63727 16.0528 7.69611 15.2869 6.97967 14.3297C6.26322 13.3725 5.79354 12.2536 5.61213 11.0719C5.43071 9.89014 5.54314 8.6819 5.93949 7.55391C6.33583 6.42592 7.00389 5.4129 7.88464 4.60437C8.76539 3.79583 9.83172 3.21666 10.9894 2.91802C12.1471 2.61938 13.3605 2.61047 14.5225 2.89207C15.6845 3.17367 16.7592 3.73712 17.6517 4.53263C18.5443 5.32814 19.2271 6.33124 19.64 7.45328C20.2806 9.14374 20.2619 11.0133 19.5875 12.6906C18.9131 14.3679 17.6325 15.7301 16 16.5066C15.7586 16.5909 15.5544 16.7571 15.4228 16.9763C15.2913 17.1956 15.2408 17.454 15.28 17.7066V29.3333H10.3733V26.9999H5.55999V22.1333H10.3733ZM15.2267 9.98662C15.2319 9.66794 15.1743 9.35135 15.0572 9.05493C14.9401 8.7585 14.7658 8.48804 14.5442 8.25899C14.0966 7.7964 13.4836 7.53056 12.84 7.51995C12.1964 7.50934 11.5749 7.75483 11.1124 8.20242C10.6498 8.65001 10.3839 9.26302 10.3733 9.90662C10.3662 10.5515 10.6146 11.1729 11.0644 11.6352C11.5141 12.0974 12.1285 12.3628 12.7733 12.3733C13.4103 12.3701 14.021 12.1192 14.4764 11.6738C14.9317 11.2284 15.196 10.6234 15.2133 9.98662H15.2267Z" fill="#4285F4"/>
<path d="M26.0266 7.45322C25.4214 5.79373 24.2314 4.41213 22.68 3.56766C21.1285 2.72319 19.3222 2.47389 17.6 2.86655C19.0753 3.19677 20.4107 3.97976 21.4192 5.10606C22.4278 6.23236 23.0592 7.64567 23.2252 9.1484C23.3912 10.6511 23.0835 12.1682 22.345 13.4875C21.6066 14.8067 20.4744 15.8623 19.1066 16.5066C18.8657 16.5927 18.6616 16.7588 18.5282 16.9771C18.3947 17.1954 18.3401 17.4529 18.3733 17.7066V29.3332H21.6133V17.7199C21.5775 17.4659 21.6311 17.2073 21.7649 16.9884C21.8986 16.7695 22.1043 16.6039 22.3466 16.5199C23.9895 15.7502 25.2812 14.3888 25.9635 12.7077C26.6458 11.0267 26.6683 9.15013 26.0266 7.45322Z" fill="#669DF6"/>
</svg>
