<svg width="32" height="32" viewBox="0 0 32 32" fill="none" xmlns="http://www.w3.org/2000/svg">
<path d="M16 1.33325L4 6.66659V14.6666C4 22.1333 9.06667 28.9333 16 30.6666C22.9333 28.9333 28 22.1333 28 14.6666V6.66659L16 1.33325ZM16 15.9999H25.3333C24.6667 21.4666 20.9333 26.3999 16 27.8666V15.9999H6.66667V8.39992L16 4.26659V15.9999Z" fill="#85A4E6"/>
<path d="M16 1.33325V30.6666C22.9333 28.9333 28 22.1333 28 14.6666V6.66659L16 1.33325ZM25.3333 15.9999C24.6667 21.4666 20.9333 26.3999 16 27.8666V15.9999H25.3333Z" fill="#5C85DE"/>
<path fill-rule="evenodd" clip-rule="evenodd" d="M28 16H25.3333C25.3333 16 25.3333 16.4 25.2 16.8L28 16Z" fill="#3367D6"/>
<path fill-rule="evenodd" clip-rule="evenodd" d="M4 16H6.66667V15.2L4 16Z" fill="#3367D6"/>
</svg>
