<svg width="32" height="32" viewBox="0 0 32 32" fill="none" xmlns="http://www.w3.org/2000/svg">
<path fill-rule="evenodd" clip-rule="evenodd" d="M24.24 22.9866C23.6366 23.6464 22.9613 24.2367 22.2267 24.7466L26.1467 28.6666C26.3965 28.9149 26.7344 29.0543 27.0867 29.0543C27.4389 29.0543 27.7769 28.9149 28.0267 28.6666C28.275 28.4168 28.4144 28.0788 28.4144 27.7266C28.4144 27.3743 28.275 27.0364 28.0267 26.7866L24.24 22.9866Z" fill="#4285F4"/>
<path d="M18.6666 20.6667H12.2533L17.5866 10.0001H13.3333V8.66675H19.7466L14.4133 19.3334H18.6666V20.6667Z" fill="#4285F4"/>
<path d="M18.6667 21.6666C19.5871 21.6666 20.3333 20.9204 20.3333 19.9999C20.3333 19.0794 19.5871 18.3333 18.6667 18.3333C17.7462 18.3333 17 19.0794 17 19.9999C17 20.9204 17.7462 21.6666 18.6667 21.6666Z" fill="#669DF6"/>
<path d="M13.3333 21.6666C14.2538 21.6666 15 20.9204 15 19.9999C15 19.0794 14.2538 18.3333 13.3333 18.3333C12.4128 18.3333 11.6666 19.0794 11.6666 19.9999C11.6666 20.9204 12.4128 21.6666 13.3333 21.6666Z" fill="#669DF6"/>
<path d="M21.3333 14H10.6666V15.3333H21.3333V14Z" fill="#4285F4"/>
<path fill-rule="evenodd" clip-rule="evenodd" d="M16 5.33341C17.846 5.33341 19.6505 5.88081 21.1853 6.90637C22.7202 7.93193 23.9165 9.38959 24.6229 11.095C25.3293 12.8005 25.5141 14.6771 25.154 16.4876C24.7939 18.2981 23.905 19.9611 22.5997 21.2664C21.2944 22.5717 19.6313 23.4606 17.8208 23.8207C16.0104 24.1809 14.1337 23.996 12.4283 23.2896C10.7228 22.5832 9.26518 21.3869 8.23962 19.8521C7.21406 18.3172 6.66667 16.5127 6.66667 14.6667C6.66667 12.1914 7.65 9.81742 9.40034 8.06708C11.1507 6.31675 13.5247 5.33341 16 5.33341ZM16 2.66675C13.6266 2.66675 11.3066 3.37054 9.33316 4.68911C7.35977 6.00769 5.8217 7.88183 4.91345 10.0745C4.0052 12.2673 3.76756 14.6801 4.23058 17.0078C4.6936 19.3356 5.83649 21.4738 7.51472 23.152C9.19295 24.8303 11.3312 25.9732 13.6589 26.4362C15.9867 26.8992 18.3995 26.6616 20.5922 25.7533C22.7849 24.8451 24.6591 23.307 25.9776 21.3336C27.2962 19.3602 28 17.0401 28 14.6667C28 11.4842 26.7357 8.4319 24.4853 6.18147C22.2348 3.93103 19.1826 2.66675 16 2.66675Z" fill="#669DF6"/>
<path d="M16 16.3333C16.9205 16.3333 17.6667 15.5871 17.6667 14.6667C17.6667 13.7462 16.9205 13 16 13C15.0796 13 14.3334 13.7462 14.3334 14.6667C14.3334 15.5871 15.0796 16.3333 16 16.3333Z" fill="#669DF6"/>
<path d="M10.6667 16.3333C11.5871 16.3333 12.3333 15.5871 12.3333 14.6667C12.3333 13.7462 11.5871 13 10.6667 13C9.74619 13 9 13.7462 9 14.6667C9 15.5871 9.74619 16.3333 10.6667 16.3333Z" fill="#669DF6"/>
<path d="M21.3333 16.3333C22.2538 16.3333 23 15.5871 23 14.6667C23 13.7462 22.2538 13 21.3333 13C20.4128 13 19.6666 13.7462 19.6666 14.6667C19.6666 15.5871 20.4128 16.3333 21.3333 16.3333Z" fill="#669DF6"/>
<path d="M18.6667 11.0001C19.5871 11.0001 20.3333 10.2539 20.3333 9.33341C20.3333 8.41294 19.5871 7.66675 18.6667 7.66675C17.7462 7.66675 17 8.41294 17 9.33341C17 10.2539 17.7462 11.0001 18.6667 11.0001Z" fill="#669DF6"/>
<path d="M13.3333 11.0001C14.2538 11.0001 15 10.2539 15 9.33341C15 8.41294 14.2538 7.66675 13.3333 7.66675C12.4128 7.66675 11.6666 8.41294 11.6666 9.33341C11.6666 10.2539 12.4128 11.0001 13.3333 11.0001Z" fill="#669DF6"/>
</svg>
