<svg width="32" height="32" viewBox="0 0 32 32" fill="none" xmlns="http://www.w3.org/2000/svg">
<g clip-path="url(#clip0_845_20158)">
<path d="M17.3333 2.66675H14.6666V29.3334H17.3333V2.66675Z" fill="#4285F4"/>
<path d="M12 10.6667H9.33337V21.3334H12V10.6667Z" fill="#4285F4"/>
<path d="M22.6667 10.6667H20V21.3334H22.6667V10.6667Z" fill="#4285F4"/>
<path d="M6.66667 6.66675H4V25.3334H6.66667V6.66675Z" fill="#4285F4"/>
<path d="M28 6.66675H25.3334V25.3334H28V6.66675Z" fill="#4285F4"/>
<path d="M17.3333 2.66675H14.6666V16.0001H17.3333V2.66675Z" fill="#669DF6"/>
<path d="M12 10.6667H9.33337V16.0001H12V10.6667Z" fill="#669DF6"/>
<path d="M22.6667 10.6667H20V16.0001H22.6667V10.6667Z" fill="#669DF6"/>
<path d="M6.66667 6.66675H4V16.0001H6.66667V6.66675Z" fill="#669DF6"/>
<path d="M28 6.66675H25.3334V16.0001H28V6.66675Z" fill="#669DF6"/>
</g>
<defs>
<clipPath id="clip0_845_20158">
<rect width="32" height="32" fill="white"/>
</clipPath>
</defs>
</svg>
