<svg width="32" height="32" viewBox="0 0 32 32" fill="none" xmlns="http://www.w3.org/2000/svg">
<path d="M8.83287 10.8576L8.94364 10.9373L15.5951 16.1215C15.7098 16.1057 15.8255 16.0973 15.9413 16.0965C17.0363 16.0963 18.0179 16.7668 18.4081 17.7818C18.7984 18.7968 18.5164 19.9454 17.6992 20.6686C16.8821 21.3918 15.6997 21.5395 14.7273 21.0397C13.8198 20.5732 13.2713 19.6332 13.3035 18.6324L13.3193 18.4172L13.3177 18.4153L8.18237 11.6745C7.60877 10.9216 8.10531 10.3784 8.83287 10.8576ZM28.2181 18.8772C28.834 18.8772 29.3333 19.3725 29.3333 19.9834C29.3333 20.5944 28.834 21.0897 28.2181 21.0897C27.6022 21.0897 27.1029 20.5944 27.1029 19.9834C27.1029 19.3725 27.6022 18.8772 28.2181 18.8772ZM6.45539 12.2864L7.73986 14.0509C6.25581 15.7944 5.24065 17.882 4.7889 20.1194C4.71652 20.4959 4.44519 20.8046 4.07896 20.9269C3.71273 21.0493 3.30846 20.9663 3.02118 20.7099C2.7339 20.4536 2.60821 20.0635 2.69231 19.6894C3.24684 16.9289 4.5476 14.37 6.45539 12.2864ZM26.7549 14.8602C27.3708 14.8602 27.8701 15.3554 27.8701 15.9664C27.8701 16.5773 27.3708 17.0726 26.7549 17.0726C26.139 17.0726 25.6397 16.5773 25.6397 15.9664C25.6397 15.3554 26.139 14.8602 26.7549 14.8602ZM24.1367 11.4275C24.7526 11.4275 25.2519 11.9228 25.2519 12.5337C25.2519 13.1447 24.7526 13.6399 24.1367 13.6399C23.5208 13.6399 23.0215 13.1447 23.0215 12.5337C23.0215 11.9228 23.5208 11.4275 24.1367 11.4275ZM20.502 8.99889C21.1179 8.99889 21.6172 9.49417 21.6172 10.1051C21.6172 10.7161 21.1179 11.2113 20.502 11.2113C19.8861 11.2113 19.3868 10.7161 19.3868 10.1051C19.3868 9.49417 19.8861 8.99889 20.502 8.99889ZM12.1325 8.72933C12.7484 8.72933 13.2477 9.2246 13.2477 9.83556C13.2477 10.4465 12.7484 10.9418 12.1325 10.9418C11.5166 10.9418 11.0173 10.4465 11.0173 9.83556C11.0173 9.2246 11.5166 8.72933 12.1325 8.72933ZM16.3369 8C16.9528 8 17.4521 8.49527 17.4521 9.10623C17.4521 9.71718 16.9528 10.2125 16.3369 10.2125C15.721 10.2125 15.2217 9.71718 15.2217 9.10623C15.2217 8.49527 15.721 8 16.3369 8Z" fill="#4285F4"/>
</svg>
