<svg width="32" height="32" viewBox="0 0 32 32" fill="none" xmlns="http://www.w3.org/2000/svg">
<path fill-rule="evenodd" clip-rule="evenodd" d="M10.312 8.00928H24.12L22.6102 10.1576H8.75366L10.312 8.00928Z" fill="#4285F4"/>
<path fill-rule="evenodd" clip-rule="evenodd" d="M7.2685 12.3955H21.0765L19.5667 14.5439H5.71021L7.2685 12.3955Z" fill="#4285F4"/>
<path fill-rule="evenodd" clip-rule="evenodd" d="M4.22504 16.7817H18.0331L16.5233 18.9301H2.66675L4.22504 16.7817Z" fill="#4285F4"/>
<path d="M16.4522 26.3599C17.5892 26.3599 18.511 25.4381 18.511 24.301C18.511 23.164 17.5892 22.2422 16.4522 22.2422C15.3151 22.2422 14.3933 23.164 14.3933 24.301C14.3933 25.4381 15.3151 26.3599 16.4522 26.3599Z" stroke="#4285F4" stroke-width="1.61127"/>
<path fill-rule="evenodd" clip-rule="evenodd" d="M16.9958 21.7012L27.511 6.67495L29.2987 7.9275L18.7836 22.9538L16.9958 21.7012Z" fill="#4285F4"/>
</svg>
