<svg width="32" height="32" viewBox="0 0 32 32" fill="none" xmlns="http://www.w3.org/2000/svg">
<path d="M11.5335 9.32007H2.68018V11.5467H11.5335V9.32007Z" fill="#669DF6"/>
<path d="M14.8934 20.4268H2.66675V22.6534H14.8934V20.4268Z" fill="#669DF6"/>
<path d="M6.01341 14.8801H2.66675V17.0935H8.24008H16.0001L13.7734 14.8801H6.01341Z" fill="#669DF6"/>
<path d="M16.0002 12.0934C16.0196 11.9591 16.087 11.8364 16.19 11.7482C16.293 11.6599 16.4246 11.612 16.5602 11.6134C16.6943 11.6124 16.8242 11.6607 16.925 11.7492C17.0258 11.8377 17.0905 11.9602 17.1069 12.0934V24.3334C17.1118 24.7556 17.2126 25.1713 17.4017 25.5488C17.5908 25.9264 17.8632 26.2561 18.1984 26.513C18.5336 26.7698 18.9228 26.9471 19.3365 27.0315C19.7503 27.1159 20.1779 27.1051 20.5869 27C21.1943 26.8245 21.7271 26.4539 22.103 25.9454C22.479 25.437 22.6771 24.8189 22.6669 24.1867V7.6667C22.6519 7.56273 22.6679 7.45666 22.713 7.36178C22.7581 7.2669 22.8301 7.18744 22.9202 7.13336C23.0093 7.07486 23.1136 7.04369 23.2202 7.04369C23.3268 7.04369 23.4311 7.07486 23.5202 7.13336C23.6103 7.18744 23.6823 7.2669 23.7274 7.36178C23.7725 7.45666 23.7885 7.56273 23.7735 7.6667V19.88C23.774 20.3029 23.8716 20.72 24.0589 21.0991C24.2462 21.4783 24.518 21.8093 24.8535 22.0667C25.185 22.3348 25.5759 22.5195 25.9935 22.6053C26.4111 22.6912 26.8432 22.6756 27.2535 22.56C27.8632 22.3839 28.3977 22.0113 28.7738 21.5001C29.1499 20.989 29.3467 20.3679 29.3335 19.7334V16H27.1069V19.8934C27.1219 19.9973 27.1058 20.1034 27.0607 20.1983C27.0157 20.2932 26.9436 20.3726 26.8535 20.4267C26.7644 20.4852 26.6601 20.5164 26.5535 20.5164C26.4469 20.5164 26.3426 20.4852 26.2535 20.4267C26.1635 20.3726 26.0914 20.2932 26.0463 20.1983C26.0013 20.1034 25.9852 19.9973 26.0002 19.8934V7.6667C25.9953 7.24443 25.8945 6.82881 25.7054 6.45122C25.5163 6.07363 25.2439 5.74395 24.9087 5.48709C24.5735 5.23024 24.1843 5.05293 23.7705 4.96855C23.3567 4.88417 22.9292 4.89494 22.5202 5.00003C21.9082 5.17676 21.3721 5.55137 20.9958 6.06525C20.6194 6.57913 20.424 7.20328 20.4402 7.84003V24.3334C20.4552 24.4373 20.4391 24.5434 20.3941 24.6383C20.349 24.7332 20.2769 24.8126 20.1869 24.8667C20.0977 24.9252 19.9935 24.9564 19.8869 24.9564C19.7803 24.9564 19.676 24.9252 19.5869 24.8667C19.4968 24.8126 19.4247 24.7332 19.3797 24.6383C19.3346 24.5434 19.3185 24.4373 19.3335 24.3334V12.1067C19.3365 11.4143 19.0792 10.7461 18.6126 10.2346C18.1459 9.72312 17.5041 9.40568 16.8144 9.34526C16.1247 9.28485 15.4374 9.48587 14.889 9.90847C14.3405 10.3311 13.9709 10.9444 13.8535 11.6267C13.8116 11.8285 13.7893 12.0339 13.7869 12.24V14.9067L16.0002 17.0934V12.0934Z" fill="#4285F4"/>
</svg>
