<svg width="32" height="32" viewBox="0 0 32 32" fill="none" xmlns="http://www.w3.org/2000/svg">
<path fill-rule="evenodd" clip-rule="evenodd" d="M8.90663 21.7334L5.69329 16.0534L8.90663 10.3867H5.89329L2.66663 16.0534L5.89329 21.7334H8.90663Z" fill="#669DF6"/>
<path fill-rule="evenodd" clip-rule="evenodd" d="M6.09329 16.7468L5.69329 16.0535H2.66663L4.14663 18.6801L6.09329 16.7468Z" fill="#4285F4"/>
<path fill-rule="evenodd" clip-rule="evenodd" d="M19.9999 8.49341H12.1599L7.74658 16.0001L12.1599 23.4534H19.9999L24.3866 16.0001L19.9999 8.49341ZM16.0932 19.6401C15.3982 19.6348 14.7203 19.4239 14.145 19.0339C13.5696 18.644 13.1226 18.0924 12.8603 17.4487C12.5979 16.8051 12.532 16.0982 12.6708 15.4172C12.8097 14.7361 13.147 14.1114 13.6403 13.6218C14.1336 13.1322 14.7609 12.7996 15.4429 12.6659C16.125 12.5322 16.8314 12.6035 17.473 12.8706C18.1147 13.1378 18.6629 13.589 19.0485 14.1673C19.4341 14.7455 19.6399 15.425 19.6399 16.1201C19.6382 16.5841 19.545 17.0432 19.3659 17.4712C19.1867 17.8992 18.9249 18.2878 18.5956 18.6146C18.2663 18.9415 17.8758 19.2003 17.4464 19.3762C17.0171 19.5522 16.5573 19.6418 16.0932 19.6401Z" fill="#AECBFA"/>
<path fill-rule="evenodd" clip-rule="evenodd" d="M5.69329 16.0801L8.90663 10.3867H5.89329L2.66663 16.0801L4.14663 18.7067L5.69329 16.0801Z" fill="#AECBFA"/>
<path fill-rule="evenodd" clip-rule="evenodd" d="M19.9999 8.6001L17.7332 13.0401C18.4261 13.4146 18.9746 14.009 19.2922 14.7297C19.6099 15.4504 19.6786 16.2563 19.4876 17.0203C19.2966 17.7844 18.8567 18.4631 18.2372 18.9496C17.6178 19.436 16.8541 19.7024 16.0666 19.7068C15.5212 19.7112 14.9824 19.5879 14.4932 19.3468L12.1599 23.5068H19.9999L24.3866 16.0001L19.9999 8.6001Z" fill="#669DF6"/>
<path fill-rule="evenodd" clip-rule="evenodd" d="M23.0933 10.3867L26.3066 16.0534L23.0933 21.7334H26.1199L29.3333 16.0534L26.1199 10.3867H23.0933Z" fill="#669DF6"/>
<path fill-rule="evenodd" clip-rule="evenodd" d="M25.9066 15.3734L26.3066 16.0534H29.3333L27.8533 13.4268L25.9066 15.3734Z" fill="#4285F4"/>
<path fill-rule="evenodd" clip-rule="evenodd" d="M26.3066 16.0268L23.0933 21.7335H26.1199L29.3333 16.0268L27.8533 13.4001L26.3066 16.0268Z" fill="#AECBFA"/>
</svg>
