<svg width="32" height="32" viewBox="0 0 32 32" fill="none" xmlns="http://www.w3.org/2000/svg">
<path d="M12 20.0001C11.799 18.5097 11.1965 17.1021 10.257 15.9277C9.31759 14.7534 8.07651 13.8567 6.66663 13.3334V10.6667C8.78031 11.2445 10.6723 12.4426 12.0983 14.1062C13.5243 15.7699 14.4189 17.8229 14.6666 20.0001H12Z" fill="#4285F4"/>
<path d="M6.66663 9.3335V14.6668L2.66663 12.0002L6.66663 9.3335ZM14.6666 20.5202V24.0002H12V20.5068" fill="#4285F4"/>
<path d="M12 6.66675H10.6666L13.3333 2.66675L16 6.66675H14.6666V24.0001H12V6.66675Z" fill="#669DF6"/>
<path d="M25.3334 22.6667V17.3333L29.3334 20L25.3334 22.6667ZM17.3334 11.4933V8H20V11.4933" fill="#AECBFA"/>
<path d="M20 25.3333H21.3333L18.6667 29.3333L16 25.3333H17.3333V8H20V25.3333Z" fill="#669DF6"/>
<path d="M17.3333 8H19.9999V11.24C20.0475 12.8685 20.5807 14.4456 21.531 15.7689C22.4813 17.0922 23.8053 18.1013 25.3333 18.6667V21.3333C23.0958 20.7229 21.1124 19.4127 19.673 17.5942C18.2335 15.7758 17.4137 13.5445 17.3333 11.2267" fill="#AECBFA"/>
</svg>
