<svg width="32" height="32" viewBox="0 0 32 32" fill="none" xmlns="http://www.w3.org/2000/svg">
<path d="M28.84 8.76001H12.3467C12.2895 8.75998 12.2329 8.77144 12.1803 8.79371C12.1276 8.81599 12.08 8.84861 12.0402 8.88965C12.0004 8.9307 11.9692 8.97932 11.9486 9.03263C11.9279 9.08595 11.9182 9.14287 11.92 9.20001V12.08C11.92 12.1932 11.965 12.3017 12.045 12.3817C12.125 12.4617 12.2335 12.5067 12.3467 12.5067H28.84C28.9014 12.5164 28.9641 12.5126 29.0238 12.4955C29.0835 12.4785 29.1388 12.4486 29.1858 12.408C29.2328 12.3673 29.2703 12.3169 29.2958 12.2603C29.3213 12.2036 29.3341 12.1421 29.3333 12.08V9.20001C29.3351 9.14397 29.3258 9.08813 29.306 9.03569C29.2862 8.98324 29.2563 8.93521 29.2179 8.89435C29.1795 8.85348 29.1334 8.82059 29.0823 8.79754C29.0312 8.77449 28.976 8.76173 28.92 8.76001H28.84ZM13.9867 11.6133C13.7391 11.6133 13.5017 11.515 13.3267 11.34C13.1517 11.1649 13.0533 10.9275 13.0533 10.68C13.0533 10.4325 13.1517 10.1951 13.3267 10.02C13.5017 9.84501 13.7391 9.74668 13.9867 9.74668C14.2342 9.74668 14.4716 9.84501 14.6466 10.02C14.8217 10.1951 14.92 10.4325 14.92 10.68C14.92 10.9275 14.8217 11.1649 14.6466 11.34C14.4716 11.515 14.2342 11.6133 13.9867 11.6133Z" fill="#4285F4"/>
<path d="M28.8399 14.1467H12.3466C12.2334 14.1467 12.1249 14.1917 12.0449 14.2717C11.9649 14.3517 11.9199 14.4602 11.9199 14.5734V17.4401C11.9199 17.5532 11.9649 17.6617 12.0449 17.7418C12.1249 17.8218 12.2334 17.8667 12.3466 17.8667H28.8399C28.9531 17.8667 29.0616 17.8218 29.1416 17.7418C29.2216 17.6617 29.2666 17.5532 29.2666 17.4401V14.5734C29.2666 14.4602 29.2216 14.3517 29.1416 14.2717C29.0616 14.1917 28.9531 14.1467 28.8399 14.1467ZM13.9866 17.0001C13.802 17.0001 13.6215 16.9453 13.4681 16.8428C13.3146 16.7402 13.1949 16.5944 13.1243 16.4239C13.0537 16.2534 13.0352 16.0657 13.0712 15.8846C13.1072 15.7036 13.1961 15.5373 13.3266 15.4068C13.4572 15.2762 13.6235 15.1873 13.8045 15.1513C13.9856 15.1153 14.1732 15.1338 14.3438 15.2044C14.5143 15.2751 14.6601 15.3947 14.7626 15.5482C14.8652 15.7017 14.9199 15.8821 14.9199 16.0667C14.9199 16.3143 14.8216 16.5517 14.6466 16.7267C14.4715 16.9017 14.2341 17.0001 13.9866 17.0001Z" fill="#4285F4"/>
<path d="M28.9066 19.4934H12.4266C12.3135 19.4934 12.2049 19.5384 12.1249 19.6184C12.0449 19.6984 12 19.8069 12 19.9201V22.8001C11.9982 22.8572 12.0079 22.9141 12.0285 22.9675C12.0492 23.0208 12.0803 23.0694 12.1201 23.1104C12.1599 23.1515 12.2076 23.1841 12.2602 23.2064C12.3129 23.2286 12.3695 23.2401 12.4266 23.2401H28.9066C28.9638 23.2401 29.0204 23.2286 29.073 23.2064C29.1257 23.1841 29.1733 23.1515 29.2131 23.1104C29.2529 23.0694 29.2841 23.0208 29.3047 22.9675C29.3254 22.9141 29.3351 22.8572 29.3333 22.8001V19.9201C29.3333 19.8069 29.2883 19.6984 29.2083 19.6184C29.1283 19.5384 29.0198 19.4934 28.9066 19.4934ZM14.0533 22.3334C13.8045 22.3299 13.5672 22.2286 13.3925 22.0515C13.2178 21.8743 13.1199 21.6355 13.12 21.3867C13.1474 21.1567 13.2582 20.9447 13.4315 20.791C13.6047 20.6372 13.8283 20.5522 14.06 20.5522C14.2916 20.5522 14.5152 20.6372 14.6885 20.791C14.8617 20.9447 14.9725 21.1567 15 21.3867C15 21.6378 14.9002 21.8786 14.7227 22.0561C14.5452 22.2337 14.3044 22.3334 14.0533 22.3334Z" fill="#4285F4"/>
<path d="M8.98662 13.1467H6.14662C5.86196 13.1838 5.5742 13.1063 5.34666 12.9313C5.11911 12.7562 4.97042 12.498 4.93329 12.2133C4.89616 11.9287 4.97363 11.6409 5.14867 11.4134C5.3237 11.1858 5.58196 11.0371 5.86662 11H8.98662C9.12758 10.9772 9.27163 10.9825 9.41056 11.0154C9.5495 11.0483 9.68059 11.1082 9.79635 11.1918C9.91212 11.2754 10.0103 11.3809 10.0853 11.5024C10.1602 11.6239 10.2105 11.759 10.2333 11.9C10.2561 12.0409 10.2508 12.185 10.2179 12.3239C10.185 12.4629 10.1251 12.594 10.0415 12.7097C9.95791 12.8255 9.85236 12.9237 9.73084 12.9986C9.60933 13.0736 9.47424 13.1239 9.33329 13.1467H8.98662Z" fill="#669DF6"/>
<path d="M8.98662 17.08H3.89328C3.6203 17.091 3.35309 16.9994 3.14428 16.8232C2.93546 16.647 2.80018 16.399 2.76506 16.1281C2.72993 15.8572 2.79752 15.5829 2.95451 15.3593C3.1115 15.1357 3.34652 14.979 3.61328 14.92H8.94662C9.23305 14.8687 9.52812 14.9333 9.76692 15.0996C10.0057 15.2659 10.1687 15.5202 10.2199 15.8067C10.2712 16.0931 10.2066 16.3882 10.0403 16.627C9.87405 16.8658 9.61972 17.0287 9.33328 17.08H8.98662Z" fill="#AECBFA"/>
<path d="M8.98662 20.9999H6.14662C5.86196 21.0371 5.5742 20.9596 5.34666 20.7846C5.11911 20.6095 4.97042 20.3513 4.93329 20.0666C4.89616 19.7819 4.97363 19.4942 5.14867 19.2666C5.3237 19.0391 5.58196 18.8904 5.86662 18.8533H8.98662C9.27129 18.8073 9.56256 18.8763 9.79635 19.0451C10.0301 19.2139 10.1873 19.4686 10.2333 19.7533C10.2793 20.0379 10.2103 20.3292 10.0415 20.563C9.8727 20.7968 9.61796 20.954 9.33329 20.9999H8.98662Z" fill="#669DF6"/>
</svg>
