<svg width="32" height="32" viewBox="0 0 32 32" fill="none" xmlns="http://www.w3.org/2000/svg">
<g clip-path="url(#clip0_845_20248)">
<path fill-rule="evenodd" clip-rule="evenodd" d="M27.8667 18L30.4 20C30.6667 20.2667 30.8 20.6667 30.5334 20.9334L27.6 26.1333C27.4667 26.4 27.0667 26.5333 26.6667 26.4L23.7334 25.2C22.6667 26 21.4667 26.6667 20.2667 27.2L19.8667 30.4C19.8667 30.8 19.4667 31.0667 19.0667 31.0667H12.9334C12.5334 31.0667 12.2667 30.8 12.1334 30.4L11.7334 27.2C10.5334 26.8 9.33337 26 8.26671 25.2L5.33337 26.4C4.93337 26.5333 4.66671 26.4 4.40004 26.1333L1.46671 20.9334C1.33337 20.5334 1.33337 20.1334 1.73337 20L4.26671 18C4.00004 16.6667 4.00004 15.3334 4.26671 14L1.73337 12C1.33337 11.8667 1.33337 11.4667 1.46671 11.0667L4.40004 5.86668C4.53337 5.60002 4.93337 5.46668 5.33337 5.60002L8.26671 6.80002C9.33337 5.86668 10.5334 5.20002 11.8667 4.80002L12.2667 1.60002C12.2667 1.20002 12.6667 0.93335 13.0667 0.93335H19.0667C19.4667 0.93335 19.7334 1.20002 19.8667 1.60002L20.2667 4.80002C21.4667 5.20002 22.6667 6.00002 23.7334 6.80002L26.6667 5.60002C27.0667 5.46668 27.3334 5.60002 27.6 5.86668L30.5334 11.0667C30.6667 11.4667 30.6667 11.8667 30.2667 12L27.7334 14C28 15.3334 28 16.6667 27.8667 18ZM16 24C17.0667 24 18 23.0667 18 22H14C14 23.0667 14.9334 24 16 24ZM21.0667 14.9334C21.0667 11.8667 20.4 10.2667 17.6 9.60002V9.06668C17.6 8.26668 16.9334 7.60002 16.1334 7.60002C15.3334 7.60002 14.5334 8.13335 14.5334 9.06668V9.73335C11.6 10.4 11.0667 12 11.0667 15.0667V18L9.06671 20V21.0667H23.0667V20L21.0667 18V14.9334Z" fill="#5C85DE"/>
<path fill-rule="evenodd" clip-rule="evenodd" d="M16 30.9333V24C17.0667 24 18 23.0667 18 22H16V20.9333H22.9333V20L20.9333 18V15.0667C20.9333 12 20.2667 10.4 17.4667 9.73332V9.06665C17.4667 8.26665 16.8 7.59998 16 7.59998V1.06665H18.9333C19.3333 1.06665 19.6 1.33332 19.7333 1.73332L20.1333 4.93332C21.3333 5.33332 22.5333 6.13332 23.6 6.93332L26.5333 5.73332C26.9333 5.59998 27.2 5.73332 27.4667 5.99998L30.4 11.2C30.6667 11.4667 30.6667 11.8667 30.2667 12L27.7333 14C28 15.3333 28 16.6667 27.7333 18L30.2667 20C30.5333 20.2667 30.6667 20.6667 30.4 20.9333L27.4667 26.1333C27.3333 26.4 26.9333 26.5333 26.5333 26.4L23.6 25.2C22.5333 26 21.3333 26.6667 20.1333 27.2L19.7333 30.4C19.7333 30.8 19.3333 31.0667 18.9333 31.0667H16V30.9333Z" fill="#3367D6"/>
</g>
<defs>
<clipPath id="clip0_845_20248">
<rect width="32" height="32" fill="white"/>
</clipPath>
</defs>
</svg>
