<svg width="32" height="32" viewBox="0 0 32 32" fill="none" xmlns="http://www.w3.org/2000/svg">
<path d="M26.6667 18.52C26.5078 18.3292 26.2852 18.2025 26.04 18.1633C25.7949 18.1241 25.5438 18.175 25.3333 18.3067L16 25.16V25.4533C16.1347 25.4374 16.2712 25.4501 16.4005 25.4908C16.5299 25.5314 16.6492 25.5989 16.7506 25.689C16.852 25.7791 16.9331 25.8896 16.9887 26.0133C17.0442 26.137 17.0729 26.2711 17.0729 26.4067C17.0729 26.5423 17.0442 26.6763 16.9887 26.8C16.9331 26.9237 16.852 27.0342 16.7506 27.1243C16.6492 27.2144 16.5299 27.2819 16.4005 27.3226C16.2712 27.3632 16.1347 27.3759 16 27.36C16.2165 27.361 16.4274 27.2907 16.6 27.16L26.48 19.8667C26.6725 19.7053 26.7982 19.4781 26.8327 19.2293C26.8672 18.9804 26.808 18.7277 26.6667 18.52Z" fill="#669DF6"/>
<path d="M16 27.3601C15.7666 27.3324 15.5514 27.2201 15.3953 27.0444C15.2392 26.8687 15.153 26.6418 15.153 26.4067C15.153 26.1717 15.2392 25.9448 15.3953 25.7691C15.5514 25.5934 15.7666 25.4811 16 25.4534V25.1601L6.66669 18.3067C6.45707 18.1722 6.20525 18.1196 5.95931 18.159C5.71337 18.1983 5.49054 18.3269 5.33335 18.5201C5.19277 18.7278 5.13659 18.9813 5.17621 19.2289C5.21584 19.4766 5.34831 19.6999 5.54669 19.8534L15.4267 27.1467C15.5952 27.2756 15.8012 27.3458 16.0134 27.3467L16 27.3601Z" fill="#AECBFA"/>
<path d="M16 24.4534C15.6124 24.4534 15.2334 24.5683 14.9111 24.7837C14.5888 24.9991 14.3376 25.3052 14.1892 25.6633C14.0409 26.0215 14.0021 26.4155 14.0777 26.7957C14.1533 27.1759 14.34 27.5252 14.6141 27.7993C14.8882 28.0734 15.2375 28.2601 15.6177 28.3357C15.9979 28.4113 16.392 28.3725 16.7501 28.2242C17.1082 28.0758 17.4144 27.8246 17.6297 27.5023C17.8451 27.18 17.96 26.801 17.96 26.4134C17.96 25.8935 17.7535 25.395 17.386 25.0274C17.0184 24.6599 16.5199 24.4534 16 24.4534ZM16 27.36C15.8096 27.36 15.6235 27.3034 15.4653 27.1973C15.3072 27.0912 15.1842 26.9405 15.1119 26.7643C15.0397 26.5881 15.0214 26.3944 15.0596 26.2078C15.0977 26.0212 15.1905 25.8502 15.3261 25.7165C15.4617 25.5828 15.634 25.4924 15.8211 25.4569C16.0082 25.4214 16.2016 25.4423 16.3767 25.517C16.5519 25.5917 16.7009 25.7168 16.8048 25.8764C16.9086 26.0361 16.9627 26.223 16.96 26.4134C16.9601 26.5388 16.9351 26.663 16.8867 26.7788C16.8383 26.8945 16.7674 26.9994 16.6781 27.0875C16.5887 27.1756 16.4828 27.2451 16.3664 27.2918C16.25 27.3386 16.1255 27.3618 16 27.36Z" fill="#4285F4"/>
<path d="M8.00008 8.14679C7.73593 8.14333 7.48358 8.03687 7.29679 7.85008C7.10999 7.66328 7.00353 7.41093 7.00008 7.14679V4.64012C6.98371 4.4982 6.99755 4.35441 7.04067 4.21821C7.08379 4.08201 7.15523 3.95647 7.25029 3.84982C7.34535 3.74317 7.46189 3.65782 7.59226 3.59939C7.72263 3.54095 7.86388 3.51074 8.00674 3.51074C8.14961 3.51074 8.29086 3.54095 8.42123 3.59939C8.55159 3.65782 8.66813 3.74317 8.76319 3.84982C8.85825 3.95647 8.92969 4.08201 8.97281 4.21821C9.01593 4.35441 9.02977 4.4982 9.01341 4.64012V7.14679C9.0099 7.41322 8.9016 7.66756 8.71194 7.85472C8.52228 8.04188 8.26653 8.14681 8.00008 8.14679Z" fill="#AECBFA"/>
<path d="M7.97329 17.0132C8.53294 17.0132 8.98663 16.5596 8.98663 15.9999C8.98663 15.4403 8.53294 14.9866 7.97329 14.9866C7.41365 14.9866 6.95996 15.4403 6.95996 15.9999C6.95996 16.5596 7.41365 17.0132 7.97329 17.0132Z" fill="#AECBFA"/>
<path d="M7.97329 14.0667C8.53294 14.0667 8.98663 13.613 8.98663 13.0534C8.98663 12.4937 8.53294 12.04 7.97329 12.04C7.41365 12.04 6.95996 12.4937 6.95996 13.0534C6.95996 13.613 7.41365 14.0667 7.97329 14.0667Z" fill="#AECBFA"/>
<path d="M7.97329 11.1067C8.53294 11.1067 8.98663 10.6531 8.98663 10.0934C8.98663 9.53376 8.53294 9.08008 7.97329 9.08008C7.41365 9.08008 6.95996 9.53376 6.95996 10.0934C6.95996 10.6531 7.41365 11.1067 7.97329 11.1067Z" fill="#AECBFA"/>
<path d="M24 11.0801C23.7336 11.0766 23.4792 10.9682 23.2921 10.7786C23.1049 10.5889 23 10.3332 23 10.0667V7.56006C23 7.29484 23.1054 7.04049 23.2929 6.85295C23.4804 6.66542 23.7348 6.56006 24 6.56006C24.2652 6.56006 24.5196 6.66542 24.7071 6.85295C24.8946 7.04049 25 7.29484 25 7.56006V10.0667C25.0018 10.1992 24.9772 10.3306 24.9277 10.4535C24.8783 10.5764 24.8049 10.6882 24.7119 10.7825C24.6188 10.8767 24.508 10.9516 24.3858 11.0027C24.2636 11.0538 24.1325 11.0801 24 11.0801Z" fill="#4285F4"/>
<path d="M24.0268 17.0267C24.5864 17.0267 25.0401 16.573 25.0401 16.0133C25.0401 15.4537 24.5864 15 24.0268 15C23.4671 15 23.0134 15.4537 23.0134 16.0133C23.0134 16.573 23.4671 17.0267 24.0268 17.0267Z" fill="#4285F4"/>
<path d="M24.0268 14.0267C24.5864 14.0267 25.0401 13.573 25.0401 13.0133C25.0401 12.4537 24.5864 12 24.0268 12C23.4671 12 23.0134 12.4537 23.0134 13.0133C23.0134 13.573 23.4671 14.0267 24.0268 14.0267Z" fill="#4285F4"/>
<path d="M24.0268 5.65338C24.5864 5.65338 25.0401 5.19969 25.0401 4.64004C25.0401 4.08039 24.5864 3.62671 24.0268 3.62671C23.4671 3.62671 23.0134 4.08039 23.0134 4.64004C23.0134 5.19969 23.4671 5.65338 24.0268 5.65338Z" fill="#4285F4"/>
<path d="M16 20.0001C15.7359 19.9967 15.4835 19.8902 15.2967 19.7034C15.1099 19.5166 15.0035 19.2642 15 19.0001V16.4534C15.0285 16.2064 15.1468 15.9785 15.3324 15.813C15.518 15.6476 15.758 15.5562 16.0067 15.5562C16.2553 15.5562 16.4953 15.6476 16.6809 15.813C16.8665 15.9785 16.9849 16.2064 17.0133 16.4534V18.9734C17.0151 19.1076 16.9902 19.2408 16.9401 19.3653C16.8899 19.4898 16.8156 19.6031 16.7213 19.6986C16.627 19.7941 16.5147 19.87 16.3909 19.9217C16.2671 19.9735 16.1342 20.0001 16 20.0001Z" fill="#669DF6"/>
<path d="M15.9999 22.9466C16.5596 22.9466 17.0132 22.4929 17.0132 21.9333C17.0132 21.3736 16.5596 20.9199 15.9999 20.9199C15.4403 20.9199 14.9866 21.3736 14.9866 21.9333C14.9866 22.4929 15.4403 22.9466 15.9999 22.9466Z" fill="#669DF6"/>
<path d="M15.9999 14.5333C16.5596 14.5333 17.0132 14.0796 17.0132 13.5199C17.0132 12.9603 16.5596 12.5066 15.9999 12.5066C15.4403 12.5066 14.9866 12.9603 14.9866 13.5199C14.9866 14.0796 15.4403 14.5333 15.9999 14.5333Z" fill="#669DF6"/>
<path d="M15.9999 11.5733C16.5596 11.5733 17.0132 11.1196 17.0132 10.56C17.0132 10.0003 16.5596 9.54663 15.9999 9.54663C15.4403 9.54663 14.9866 10.0003 14.9866 10.56C14.9866 11.1196 15.4403 11.5733 15.9999 11.5733Z" fill="#669DF6"/>
<path d="M20.0001 14.0533C19.7359 14.0498 19.4836 13.9434 19.2968 13.7566C19.11 13.5698 19.0035 13.3174 19.0001 13.0533V10.5466C18.9837 10.4047 18.9975 10.2609 19.0407 10.1247C19.0838 9.9885 19.1552 9.86296 19.2503 9.75631C19.3454 9.64966 19.4619 9.56432 19.5923 9.50588C19.7226 9.44745 19.8639 9.41724 20.0067 9.41724C20.1496 9.41724 20.2909 9.44745 20.4212 9.50588C20.5516 9.56432 20.6681 9.64966 20.7632 9.75631C20.8583 9.86296 20.9297 9.9885 20.9728 10.1247C21.0159 10.2609 21.0298 10.4047 21.0134 10.5466V13.0533C21.0099 13.3197 20.9016 13.5741 20.7119 13.7612C20.5223 13.9484 20.2665 14.0533 20.0001 14.0533Z" fill="#4285F4"/>
<path d="M20.0133 8.59991C20.573 8.59991 21.0267 8.14622 21.0267 7.58658C21.0267 7.02693 20.573 6.57324 20.0133 6.57324C19.4537 6.57324 19 7.02693 19 7.58658C19 8.14622 19.4537 8.59991 20.0133 8.59991Z" fill="#4285F4"/>
<path d="M20.0133 19.9334C20.573 19.9334 21.0267 19.4797 21.0267 18.9201C21.0267 18.3604 20.573 17.9067 20.0133 17.9067C19.4537 17.9067 19 18.3604 19 18.9201C19 19.4797 19.4537 19.9334 20.0133 19.9334Z" fill="#4285F4"/>
<path d="M20.0133 16.9734C20.573 16.9734 21.0267 16.5198 21.0267 15.9601C21.0267 15.4005 20.573 14.9468 20.0133 14.9468C19.4537 14.9468 19 15.4005 19 15.9601C19 16.5198 19.4537 16.9734 20.0133 16.9734Z" fill="#4285F4"/>
<path d="M11.9867 19.9334C12.5464 19.9334 13.0001 19.4797 13.0001 18.9201C13.0001 18.3604 12.5464 17.9067 11.9867 17.9067C11.4271 17.9067 10.9734 18.3604 10.9734 18.9201C10.9734 19.4797 11.4271 19.9334 11.9867 19.9334Z" fill="#AECBFA"/>
<path d="M11.9867 11.5733C12.5464 11.5733 13.0001 11.1196 13.0001 10.56C13.0001 10.0003 12.5464 9.54663 11.9867 9.54663C11.4271 9.54663 10.9734 10.0003 10.9734 10.56C10.9734 11.1196 11.4271 11.5733 11.9867 11.5733Z" fill="#AECBFA"/>
<path d="M11.9867 8.59991C12.5464 8.59991 13.0001 8.14622 13.0001 7.58658C13.0001 7.02693 12.5464 6.57324 11.9867 6.57324C11.4271 6.57324 10.9734 7.02693 10.9734 7.58658C10.9734 8.14622 11.4271 8.59991 11.9867 8.59991Z" fill="#AECBFA"/>
<path d="M11.9999 16.9732C11.7379 16.9734 11.4861 16.8722 11.2972 16.6907C11.1082 16.5092 10.9969 16.2616 10.9866 15.9999V13.4666C10.9866 13.2013 11.0919 12.947 11.2795 12.7594C11.467 12.5719 11.7214 12.4666 11.9866 12.4666C12.2518 12.4666 12.5061 12.5719 12.6937 12.7594C12.8812 12.947 12.9866 13.2013 12.9866 13.4666V15.9999C12.9797 16.2582 12.8731 16.5038 12.6892 16.6852C12.5053 16.8667 12.2583 16.9699 11.9999 16.9732Z" fill="#AECBFA"/>
</svg>
