<svg width="32" height="32" viewBox="0 0 32 32" fill="none" xmlns="http://www.w3.org/2000/svg">
<path d="M21.7733 6.43994H14.4133L16.3733 9.54661H19.1066V11.3199H15.2133L12.1066 6.43994H2.67993V12.2133H5.33326L7.01327 9.10661H10.4399L11.5866 10.8799H8.15993L6.47993 13.9866H2.67993V17.4399H6.47993L8.15993 20.6533H11.5866L10.4399 22.4399H7.01327L5.33326 19.3199H2.67993V25.1066H12.1066L15.2133 20.2133H19.1066V21.9866H16.3733L14.4133 25.1066H21.7733V16.6533H13.2266L12.1199 18.4399H9.6666L11.3466 15.7733L9.6666 13.1066H12.1199L13.1866 14.8799H21.7733V6.43994Z" fill="#669DF6"/>
<path d="M29.3333 7.90649L24 11.7865V19.9198L29.3333 23.8532V7.90649Z" fill="#4285F4"/>
</svg>
