<svg width="32" height="32" viewBox="0 0 32 32" fill="none" xmlns="http://www.w3.org/2000/svg">
<path d="M29.3335 2.66675H21.3335V10.6667H29.3335V2.66675Z" fill="#AECBFA"/>
<path d="M29.3335 2.66675H25.3335V10.6667H29.3335V2.66675Z" fill="#669DF6"/>
<path d="M29.3335 21.3335H21.3335V29.3335H29.3335V21.3335Z" fill="#AECBFA"/>
<path d="M29.3335 21.3335H25.3335V29.3335H29.3335V21.3335Z" fill="#669DF6"/>
<path d="M10.6667 2.66675H2.66675V10.6667H10.6667V2.66675Z" fill="#AECBFA"/>
<path d="M10.6667 2.66675H6.66675V10.6667H10.6667V2.66675Z" fill="#669DF6"/>
<path d="M10.6667 21.3335H2.66675V29.3335H10.6667V21.3335Z" fill="#AECBFA"/>
<path d="M10.6667 21.3335H6.66675V29.3335H10.6667V21.3335Z" fill="#669DF6"/>
<path d="M21.3334 5.3335H10.6667V8.00016H21.3334V5.3335Z" fill="#669DF6"/>
<path d="M21.3334 24H10.6667V26.6667H21.3334V24Z" fill="#669DF6"/>
<path d="M26.6667 10.6667H24V21.3334H26.6667V10.6667Z" fill="#669DF6"/>
<path d="M8.00016 10.6667H5.3335V21.3334H8.00016V10.6667Z" fill="#669DF6"/>
<path d="M8.00016 10.6667H5.3335V13.3334H8.00016V10.6667Z" fill="#4285F4"/>
<path d="M26.6667 10.6667H24V13.3334H26.6667V10.6667Z" fill="#4285F4"/>
<path d="M13.3334 5.3335H10.6667V8.00016H13.3334V5.3335Z" fill="#4285F4"/>
<path d="M13.3334 24H10.6667V26.6667H13.3334V24Z" fill="#4285F4"/>
</svg>
