<svg width="32" height="32" viewBox="0 0 32 32" fill="none" xmlns="http://www.w3.org/2000/svg">
<path fill-rule="evenodd" clip-rule="evenodd" d="M19.04 20.44L21.6133 23.0133L16 27.5333L1.59998 16H10.6666C10.6666 17.4145 11.2285 18.771 12.2287 19.7712C13.2289 20.7714 14.5855 21.3333 16 21.3333C17.0794 21.343 18.1374 21.0321 19.04 20.44ZM21.3333 16C21.3358 17.031 21.0394 18.0406 20.48 18.9067L23.2533 21.7067L30.4133 16H21.3333Z" fill="#669DF6"/>
<path fill-rule="evenodd" clip-rule="evenodd" d="M16 4.47998L1.59998 16H10.6666C10.6666 14.5855 11.2285 13.2289 12.2287 12.2287C13.2289 11.2286 14.5855 10.6666 16 10.6666C17.4145 10.6666 18.771 11.2286 19.7712 12.2287C20.7714 13.2289 21.3333 14.5855 21.3333 16H30.3866L16 4.47998Z" fill="#AECBFA"/>
<path fill-rule="evenodd" clip-rule="evenodd" d="M16 12.7601C16.4241 12.7568 16.8445 12.8389 17.2363 13.0016C17.628 13.1642 17.9829 13.404 18.28 13.7068C18.5844 14.0047 18.8262 14.3605 18.9913 14.7532C19.1564 15.1458 19.2414 15.5675 19.2414 15.9934C19.2414 16.4194 19.1564 16.8411 18.9913 17.2337C18.8262 17.6264 18.5844 17.9821 18.28 18.2801C17.9813 18.5808 17.6261 18.8195 17.2348 18.9824C16.8435 19.1453 16.4238 19.2291 16 19.2291C15.5761 19.2291 15.1565 19.1453 14.7652 18.9824C14.3739 18.8195 14.0187 18.5808 13.72 18.2801C13.4156 17.9821 13.1738 17.6264 13.0087 17.2337C12.8436 16.8411 12.7585 16.4194 12.7585 15.9934C12.7585 15.5675 12.8436 15.1458 13.0087 14.7532C13.1738 14.3605 13.4156 14.0047 13.72 13.7068C14.017 13.404 14.372 13.1642 14.7637 13.0016C15.1554 12.8389 15.5759 12.7568 16 12.7601Z" fill="#4285F4"/>
</svg>
