<svg width="32" height="32" viewBox="0 0 32 32" fill="none" xmlns="http://www.w3.org/2000/svg">
<path fill-rule="evenodd" clip-rule="evenodd" d="M8.45915 18.0093C11.6122 18.0093 14.1683 20.5629 14.1683 23.713C14.1683 26.863 11.6122 29.4167 8.45915 29.4167C5.30607 29.4167 2.75 26.863 2.75 23.713C2.75 20.5629 5.30607 18.0093 8.45915 18.0093ZM8.41343 20.4971L7.54485 21.369L9.38283 23.2156L5.24016 23.2147V24.4516L9.38549 24.4529L7.54485 26.2994L8.41316 27.1716L11.7389 23.8352L8.41343 20.4971ZM29.4167 2.75V19.4476L23.6574 19.4473L23.6577 25.2011L15.2881 25.2019C15.3989 24.7087 15.4574 24.1956 15.4574 23.669C15.4574 23.3617 15.4375 23.0591 15.3989 22.7623L21.2161 22.762L21.2164 17.0087H26.9747V5.18867H15.1441L15.1444 10.9425L9.38405 10.942L9.38411 16.7542C9.08742 16.7158 8.78487 16.696 8.4777 16.696C7.95053 16.696 7.43702 16.7544 6.94328 16.865L6.94405 8.5035L12.7027 8.50333L12.7031 2.75H29.4167ZM24.5966 7.56543V14.6322L18.8374 14.6313L18.8376 20.3857L14.6363 20.3848C13.9848 19.168 12.9826 18.1668 11.7645 17.516L11.7641 13.3189L17.5227 13.318L17.5231 7.56543H24.5966Z" fill="#4285F4"/>
</svg>
