<svg width="32" height="32" viewBox="0 0 32 32" fill="none" xmlns="http://www.w3.org/2000/svg">
<g clip-path="url(#clip0_845_20307)">
<path d="M5.33329 23.9999V7.99992H16V5.33325H3.99996C3.64634 5.33325 3.3072 5.47373 3.05715 5.72378C2.8071 5.97383 2.66663 6.31296 2.66663 6.66659V25.3333C2.66663 25.6869 2.8071 26.026 3.05715 26.2761C3.3072 26.5261 3.64634 26.6666 3.99996 26.6666H16V23.9999H5.33329Z" fill="#4285F4"/>
<path d="M28 5.33325H16V7.99992H26.6667V23.9999H16V26.6666H28C28.3536 26.6666 28.6928 26.5261 28.9428 26.2761C29.1929 26.026 29.3333 25.6869 29.3333 25.3333V6.66659C29.3333 6.31296 29.1929 5.97383 28.9428 5.72378C28.6928 5.47373 28.3536 5.33325 28 5.33325Z" fill="#669DF6"/>
<path d="M11.9999 15.9999V13.3333L15.9999 11.9999V9.33325L9.33325 11.9999V15.9999C9.33325 19.1733 13.3333 22.6666 15.9999 22.6666V19.9999C14.8133 19.9999 11.9999 18.1599 11.9999 15.9999Z" fill="#669DF6"/>
<path d="M20 15.9999C20 18.1599 17.2 19.9999 16 19.9999V22.6666C18.6667 22.6666 22.6667 19.1733 22.6667 15.9999V11.9999L16 9.33325V11.9999L20 13.3333V15.9999Z" fill="#AECBFA"/>
<path d="M16.7866 17.0665C16.5731 17.2711 16.2889 17.3853 15.9932 17.3853C15.6976 17.3853 15.4134 17.2711 15.1999 17.0665L13.8666 15.4399L14.6666 14.6665L15.9999 16.1199L19.9999 12.1199L20.7999 12.9065L16.7866 17.0665Z" fill="#4285F4"/>
</g>
<defs>
<clipPath id="clip0_845_20307">
<rect width="32" height="32" fill="white"/>
</clipPath>
</defs>
</svg>
