<svg width="32" height="32" viewBox="0 0 32 32" fill="none" xmlns="http://www.w3.org/2000/svg">
<path d="M15.2533 19.2933C17.4404 19.2933 19.2133 17.5203 19.2133 15.3333C19.2133 13.1462 17.4404 11.3733 15.2533 11.3733C13.0663 11.3733 11.2933 13.1462 11.2933 15.3333C11.2933 17.5203 13.0663 19.2933 15.2533 19.2933Z" fill="#4285F4"/>
<path d="M5.35996 17.08C6.84745 17.08 8.05329 15.8742 8.05329 14.3867C8.05329 12.8992 6.84745 11.6934 5.35996 11.6934C3.87247 11.6934 2.66663 12.8992 2.66663 14.3867C2.66663 15.8742 3.87247 17.08 5.35996 17.08Z" fill="#669DF6"/>
<path d="M19.36 27.52C20.8474 27.52 22.0533 26.3141 22.0533 24.8266C22.0533 23.3391 20.8474 22.1333 19.36 22.1333C17.8725 22.1333 16.6666 23.3391 16.6666 24.8266C16.6666 26.3141 17.8725 27.52 19.36 27.52Z" fill="#669DF6"/>
<path d="M26.0933 5.6001C25.4525 5.6001 24.826 5.79012 24.2932 6.14614C23.7604 6.50215 23.3451 7.00817 23.0999 7.6002C22.8547 8.19224 22.7905 8.84369 22.9155 9.47219C23.0405 10.1007 23.3491 10.678 23.8022 11.1311C24.2554 11.5842 24.8327 11.8928 25.4612 12.0178C26.0897 12.1429 26.7411 12.0787 27.3332 11.8335C27.9252 11.5882 28.4312 11.173 28.7872 10.6401C29.1433 10.1073 29.3333 9.48091 29.3333 8.8401C29.3333 7.9808 28.9919 7.15669 28.3843 6.54907C27.7767 5.94145 26.9526 5.6001 26.0933 5.6001ZM26.0933 10.6668C25.7314 10.6694 25.377 10.5645 25.0748 10.3654C24.7727 10.1663 24.5365 9.88196 24.3962 9.54842C24.2559 9.21488 24.2178 8.84719 24.2868 8.49198C24.3557 8.13676 24.5286 7.81004 24.7836 7.55324C25.0385 7.29644 25.3639 7.12114 25.7186 7.04957C26.0733 6.978 26.4413 7.01338 26.7759 7.15124C27.1104 7.2891 27.3965 7.52321 27.5978 7.82388C27.7991 8.12456 27.9066 8.47825 27.9066 8.8401C27.9066 9.32226 27.716 9.78487 27.3763 10.1271C27.0366 10.4692 26.5754 10.6632 26.0933 10.6668Z" fill="#669DF6"/>
<path d="M24.2666 8.90665C22.6559 6.63361 20.2463 5.0526 17.5199 4.47998L17.1466 6.26665C18.9412 6.64051 20.5846 7.53825 21.8689 8.8463C23.1532 10.1544 24.0207 11.8139 24.3617 13.6151C24.7026 15.4163 24.5017 17.2781 23.7843 18.965C23.0669 20.652 21.8653 22.0882 20.3314 23.0921C18.7976 24.096 17.0005 24.6224 15.1674 24.6048C13.3343 24.5871 11.5477 24.0262 10.0335 22.9929C8.51929 21.9597 7.34557 20.5005 6.66081 18.8C5.97605 17.0996 5.81102 15.2342 6.1866 13.44C6.54866 11.6876 7.41535 10.0793 8.67993 8.81331L7.3466 7.47998C5.91795 8.92546 4.91439 10.736 4.44573 12.7136C3.97706 14.6912 4.06134 16.7596 4.68934 18.6925C5.31734 20.6253 6.46487 22.3483 8.00638 23.6727C9.54789 24.9972 11.424 25.8722 13.4294 26.2019C15.4348 26.5316 17.4923 26.3034 19.3767 25.5423C21.2612 24.7811 22.9 23.5164 24.1138 21.8863C25.3276 20.2563 26.0698 18.3238 26.259 16.3002C26.4482 14.2767 26.0772 12.2401 25.1866 10.4133C24.9176 10.2614 24.6919 10.0432 24.5309 9.7795C24.3699 9.51581 24.2789 9.21536 24.2666 8.90665Z" fill="#669DF6"/>
</svg>
