<svg width="32" height="32" viewBox="0 0 32 32" fill="none" xmlns="http://www.w3.org/2000/svg">
<path d="M26 26.7467H25.0666V24.7467H26C26.2641 24.7432 26.5165 24.6367 26.7033 24.45C26.8901 24.2632 26.9965 24.0108 27 23.7467V18C26.9965 17.7359 26.8901 17.4835 26.7033 17.2967C26.5165 17.1099 26.2641 17.0035 26 17H21.1866V15H26C26.7956 15 27.5587 15.3161 28.1213 15.8787C28.6839 16.4413 29 17.2044 29 18V23.7467C29 24.5423 28.6839 25.3054 28.1213 25.868C27.5587 26.4306 26.7956 26.7467 26 26.7467Z" fill="#4285F4"/>
<path d="M15.4 26.7466H8.8667V24.7466H15.4V26.7466Z" fill="#4285F4"/>
<path fill-rule="evenodd" clip-rule="evenodd" d="M10.8267 17.0001H6C5.20435 17.0001 4.44129 16.684 3.87868 16.1214C3.31607 15.5588 3 14.7957 3 14.0001V8.25342C3 7.45777 3.31607 6.69471 3.87868 6.1321C4.44129 5.56949 5.20435 5.25342 6 5.25342H7.33333V7.25342H6C5.73478 7.25342 5.48043 7.35877 5.29289 7.54631C5.10536 7.73385 5 7.9882 5 8.25342V14.0001C5.00345 14.2642 5.10992 14.5166 5.29671 14.7034C5.4835 14.8902 5.73586 14.9966 6 15.0001H10.8267V17.0001Z" fill="#669DF6"/>
<path d="M23.0667 7.25342H15.76V5.25342H23.0667V7.25342Z" fill="#4285F4"/>
<path d="M11.5067 5.25342V3.25342H7.50667C7.10937 3.2534 6.72815 3.41031 6.44598 3.68999C6.1638 3.96966 6.00352 4.34947 6 4.74675V7.74675C6 8.14634 6.15874 8.52957 6.44129 8.81213C6.72385 9.09468 7.10707 9.25342 7.50667 9.25342H11.5067V7.25342H8V5.25342H11.5067Z" fill="#AECBFA"/>
<path fill-rule="evenodd" clip-rule="evenodd" d="M17 4.74675V7.74675C17.0001 8.14404 16.8432 8.52526 16.5635 8.80744C16.2838 9.08961 15.904 9.2499 15.5067 9.25342H11.5067V7.25342H15V5.25342H11.5067V3.25342H15.5067C15.9028 3.25342 16.2826 3.41075 16.5627 3.69081C16.8427 3.97086 17 4.35069 17 4.74675Z" fill="#669DF6"/>
<path d="M25.7466 9.50667C25.1032 9.50667 24.4742 9.31586 23.9392 8.95838C23.4042 8.6009 22.9872 8.0928 22.7409 7.49833C22.4947 6.90386 22.4303 6.24973 22.5558 5.61864C22.6813 4.98756 22.9912 4.40787 23.4462 3.95288C23.9012 3.49789 24.4808 3.18804 25.1119 3.06251C25.743 2.93698 26.3971 3.00141 26.9916 3.24765C27.5861 3.49388 28.0942 3.91087 28.4517 4.44588C28.8091 4.98089 29 5.60989 29 6.25334C28.9964 7.11509 28.6526 7.94055 28.0432 8.54991C27.4338 9.15927 26.6084 9.50316 25.7466 9.50667ZM25.7466 5C25.4987 5 25.2564 5.07351 25.0503 5.21123C24.8442 5.34894 24.6836 5.54469 24.5887 5.7737C24.4938 6.00272 24.469 6.25473 24.5174 6.49785C24.5657 6.74097 24.6851 6.96429 24.8604 7.13958C25.0357 7.31486 25.259 7.43423 25.5021 7.48259C25.7452 7.53095 25.9972 7.50613 26.2263 7.41126C26.4553 7.3164 26.651 7.15576 26.7887 6.94965C26.9264 6.74354 27 6.50122 27 6.25334C27 5.92093 26.8679 5.60214 26.6329 5.36709C26.3978 5.13205 26.079 5 25.7466 5Z" fill="#AECBFA"/>
<path d="M6.25336 29C5.60935 29.0027 4.97905 28.8141 4.44229 28.4583C3.90553 28.1024 3.48647 27.5952 3.23818 27.001C2.9899 26.4067 2.92357 25.7522 3.04759 25.1202C3.17161 24.4883 3.4804 23.9073 3.93486 23.451C4.38931 22.9947 4.96897 22.6835 5.60042 22.5569C6.23186 22.4303 6.88668 22.4939 7.48193 22.7398C8.07717 22.9856 8.58606 23.4026 8.94414 23.9379C9.30221 24.4732 9.49336 25.1027 9.49336 25.7467C9.49337 26.6072 9.15244 27.4327 8.5452 28.0425C7.93796 28.6522 7.11389 28.9965 6.25336 29ZM6.25336 24.4934C6.00493 24.4907 5.76131 24.562 5.55345 24.6981C5.3456 24.8342 5.18288 25.029 5.08597 25.2578C4.98906 25.4865 4.96233 25.739 5.00917 25.983C5.05602 26.2269 5.17432 26.4515 5.34906 26.6281C5.5238 26.8048 5.74709 26.9255 5.99057 26.9749C6.23405 27.0244 6.48673 27.0003 6.71653 26.9059C6.94632 26.8114 7.14286 26.6508 7.28118 26.4444C7.41949 26.238 7.49335 25.9952 7.49336 25.7467C7.49338 25.4166 7.36317 25.0998 7.131 24.8652C6.89883 24.6305 6.58345 24.4969 6.25336 24.4934Z" fill="#9AA0A6"/>
<path d="M6.25336 29C5.60935 29.0027 4.97905 28.8141 4.44229 28.4583C3.90553 28.1024 3.48647 27.5952 3.23818 27.001C2.9899 26.4067 2.92357 25.7522 3.04759 25.1202C3.17161 24.4883 3.4804 23.9073 3.93486 23.451C4.38931 22.9947 4.96897 22.6835 5.60042 22.5569C6.23186 22.4303 6.88668 22.4939 7.48193 22.7398C8.07717 22.9856 8.58606 23.4026 8.94414 23.9379C9.30221 24.4732 9.49336 25.1027 9.49336 25.7467C9.49337 26.6072 9.15244 27.4327 8.5452 28.0425C7.93796 28.6522 7.11389 28.9965 6.25336 29ZM6.25336 24.4934C6.00493 24.4907 5.76131 24.562 5.55345 24.6981C5.3456 24.8342 5.18288 25.029 5.08597 25.2578C4.98906 25.4865 4.96233 25.739 5.00917 25.983C5.05602 26.2269 5.17432 26.4515 5.34906 26.6281C5.5238 26.8048 5.74709 26.9255 5.99057 26.9749C6.23405 27.0244 6.48673 27.0003 6.71653 26.9059C6.94632 26.8114 7.14286 26.6508 7.28118 26.4444C7.41949 26.238 7.49335 25.9952 7.49336 25.7467C7.49338 25.4166 7.36317 25.0998 7.131 24.8652C6.89883 24.6305 6.58345 24.4969 6.25336 24.4934Z" fill="#AECBFA"/>
<path d="M20.48 24.76V22.76H16.48C16.0827 22.7635 15.7029 22.9238 15.4233 23.206C15.1436 23.4882 14.9867 23.8694 14.9867 24.2667V27.2667C14.9867 27.6627 15.144 28.0426 15.4241 28.3226C15.7041 28.6027 16.084 28.76 16.48 28.76H20.48V26.76H16.9867V24.76H20.48Z" fill="#AECBFA"/>
<path fill-rule="evenodd" clip-rule="evenodd" d="M25.9866 24.2667V27.2667C25.9831 27.664 25.8228 28.0438 25.5407 28.3234C25.2585 28.6031 24.8773 28.76 24.48 28.76H20.48V26.76H24V24.76H20.48V22.76H24.48C24.8785 22.7635 25.2597 22.9233 25.5415 23.2051C25.8233 23.487 25.9832 23.8682 25.9866 24.2667Z" fill="#669DF6"/>
<path d="M16 15V13H12C11.6027 13 11.2214 13.1569 10.9393 13.4366C10.6571 13.7162 10.4968 14.0961 10.4933 14.4933V17.4933C10.4933 17.8929 10.652 18.2762 10.9346 18.5587C11.2171 18.8413 11.6004 19 12 19H16V17H12.4933V15H16Z" fill="#AECBFA"/>
<path fill-rule="evenodd" clip-rule="evenodd" d="M21.4933 14.4933V17.4933C21.4933 17.8906 21.3364 18.2718 21.0568 18.554C20.7771 18.8362 20.3973 18.9965 20 19H16V17H19.4933V15H16V13H20C20.3961 13 20.7759 13.1573 21.0559 13.4374C21.336 13.7174 21.4933 14.0973 21.4933 14.4933Z" fill="#669DF6"/>
</svg>
