<?xml version="1.0" encoding="UTF-8" standalone="no"?><!-- Generator: Gravit.io --><svg xmlns="http://www.w3.org/2000/svg" xmlns:xlink="http://www.w3.org/1999/xlink" style="isolation:isolate" viewBox="0 0 300 300" width="300pt" height="300pt"><defs><clipPath id="_clipPath_YvShw2kIRyHfM0qWCfa7nzNgxq6MJ5I3"><rect width="300" height="300"/></clipPath></defs><g clip-path="url(#_clipPath_YvShw2kIRyHfM0qWCfa7nzNgxq6MJ5I3)"><g><g><path d=" M 157.206 44.42 C 152.699 41.957 147.196 41.957 142.689 44.42 L 68.267 85.353 C 68.267 85.353 68.162 85.405 68.11 85.457 L 58.309 90.856 C 53.487 93.528 50.5 98.56 50.5 104.063 L 50.5 195.99 C 50.5 201.493 53.487 206.576 58.309 209.197 L 133.465 250.496 C 133.465 250.496 133.674 250.601 133.779 250.653 L 142.741 255.58 C 147.248 258.043 152.752 258.043 157.259 255.58 L 166.273 250.653 C 166.273 250.653 166.43 250.548 166.535 250.496 L 241.691 209.197 C 246.513 206.524 249.5 201.493 249.5 195.99 L 249.5 104.01 C 249.5 98.507 246.513 93.424 241.691 90.803 L 231.943 85.457 C 231.943 85.457 231.785 85.353 231.733 85.353 L 157.311 44.42 L 157.206 44.42 Z  M 161.976 150.026 L 231.628 111.767 C 231.628 111.767 231.785 111.662 231.838 111.662 L 232.676 111.191 C 234.983 109.933 237.813 111.61 237.813 114.23 L 237.813 185.822 C 237.813 188.443 234.983 190.12 232.676 188.862 L 232.048 188.495 C 232.048 188.495 231.785 188.338 231.628 188.285 L 161.976 150.026 L 161.976 150.026 Z  M 68.057 111.662 C 68.057 111.662 68.162 111.715 68.215 111.767 L 137.867 150.026 L 68.215 188.285 C 68.215 188.285 67.953 188.443 67.848 188.495 L 67.166 188.862 C 64.86 190.12 62.03 188.443 62.03 185.822 L 62.03 114.178 C 62.03 111.557 64.86 109.88 67.166 111.138 L 68.057 111.61 L 68.057 111.662 Z  M 226.125 95.572 L 160.875 59.724 C 158.569 58.466 155.791 60.091 155.739 62.659 L 155.739 140.278 L 226.125 101.6 C 228.379 100.237 228.379 96.987 226.125 95.625 L 226.125 95.572 Z  M 73.718 101.547 L 144.104 140.226 L 144.104 62.607 C 144.052 60.039 141.221 58.414 138.968 59.672 L 73.718 95.52 C 71.412 96.883 71.412 100.184 73.718 101.495 L 73.718 101.547 Z  M 73.822 204.585 C 71.464 203.275 71.412 199.973 73.665 198.61 L 144.156 159.879 L 144.156 237.498 C 144.104 240.014 141.379 241.639 139.125 240.538 L 73.822 204.637 L 73.822 204.585 Z  M 155.739 237.341 L 155.739 159.827 L 226.23 198.558 C 228.431 199.973 228.379 203.275 226.021 204.532 L 160.77 240.433 C 158.517 241.586 155.844 239.961 155.739 237.446 L 155.739 237.446 L 155.739 237.341 Z " fill-rule="evenodd" fill="rgb(13,26,42)"/><path d=" M 148.244 54.536 C 149.292 53.959 150.55 53.959 151.599 54.536 L 226.021 95.468 C 228.431 96.778 228.431 100.237 226.021 101.547 L 151.599 142.479 C 150.55 143.056 149.292 143.056 148.244 142.479 L 73.822 101.547 C 71.412 100.237 71.412 96.778 73.822 95.468 L 148.244 54.536 Z " fill="rgb(230,194,32)"/><path d=" M 62.03 114.178 C 62.03 111.557 64.86 109.88 67.166 111.138 L 142.322 152.437 C 143.423 153.066 144.104 154.219 144.104 155.477 L 144.104 237.289 C 144.104 239.909 141.274 241.586 138.968 240.328 L 63.812 199.029 C 62.712 198.4 62.03 197.247 62.03 195.99 L 62.03 114.178 Z " fill="rgb(254,218,21)"/><path d=" M 232.676 111.138 C 234.983 109.88 237.813 111.557 237.813 114.178 L 237.813 195.99 C 237.813 197.247 237.131 198.453 236.031 199.029 L 160.875 240.328 C 158.569 241.586 155.739 239.909 155.739 237.289 L 155.739 155.477 C 155.739 154.219 156.42 153.014 157.521 152.437 L 232.676 111.138 Z " fill="rgb(255,255,255)"/><path d=" M 93.581 178.38 C 93.581 178.38 93.581 178.432 93.581 178.485 L 75.971 169.208 C 75.971 169.208 75.971 169.156 75.971 169.103 C 76.39 163.6 80.636 161.242 85.51 163.81 C 90.384 166.378 94 172.877 93.581 178.38 Z " fill="rgb(13,26,42)"/><path d=" M 121.306 194.365 C 121.306 194.365 121.306 194.417 121.306 194.47 L 103.696 185.193 C 103.696 185.193 103.696 185.141 103.696 185.088 C 104.115 179.585 108.36 177.227 113.235 179.795 C 118.109 182.363 121.725 188.862 121.306 194.365 Z " fill="rgb(13,26,42)"/></g></g></g></svg>