<svg width="32" height="32" viewBox="0 0 32 32" fill="none" xmlns="http://www.w3.org/2000/svg">
<g clip-path="url(#clip0_854_28679)">
<path d="M32 0H0V32H32V0Z" fill="#DD344C"/>
<path fill-rule="evenodd" clip-rule="evenodd" d="M11.4872 7.4502L10.9216 6.8846C12.1296 5.6766 14.2736 4.7998 16.0192 4.7998C17.748 4.7998 19.88 5.6766 21.0872 6.8846L20.5216 7.4502C19.4672 6.3958 17.532 5.5998 16.0192 5.5998C14.4904 5.5998 12.5416 6.3958 11.4872 7.4502ZM16.0192 7.0934C17.28 7.0934 18.6416 7.639 19.4872 8.4846L18.9216 9.0502C18.2296 8.3582 17.0632 7.8934 16.0192 7.8934C14.9728 7.8934 13.768 8.3686 13.0872 9.0502L12.5216 8.4846C13.3528 7.6526 14.7584 7.0934 16.0192 7.0934ZM26.396 24.5214L25.612 24.9166V21.4174L26.396 21.8134V24.5214ZM24.812 26.3798H23.9704V19.967H24.812V20.1166V26.2174V26.3798ZM7.19045 26.319V20.1182V19.955H7.98805V26.3798H7.19045V26.319ZM5.60005 24.531V21.8142L6.39045 21.4166V24.9662L5.60005 24.531ZM16.004 12.767C19.808 12.767 22.956 15.7646 23.1704 19.567V26.3798H8.78805V19.567C8.90405 15.8174 12.1416 12.767 16.004 12.767ZM15.2488 10.8614C15.2488 10.443 15.66 10.355 16.004 10.355C16.3488 10.355 16.76 10.443 16.76 10.8614V12.0046C16.5104 11.9806 16.2592 11.967 16.004 11.967C15.7496 11.967 15.4984 11.9814 15.2488 12.0046V10.8614ZM27.196 21.3214L25.612 20.5214V19.167H23.9304C23.5656 15.6294 20.94 12.7958 17.56 12.1206V10.8614C17.56 10.0678 16.9488 9.555 16.004 9.555C15.06 9.555 14.4488 10.0678 14.4488 10.8614V12.119C11.0088 12.7958 8.31765 15.6646 8.02165 19.155H6.39045V20.5206L4.80005 21.3206V25.0038L6.39045 25.879V27.1798H25.612V25.8134L27.196 25.0134V21.3214ZM13.204 18.767C13.6456 18.767 14.004 19.1262 14.004 19.567C14.004 20.0086 13.6456 20.367 13.204 20.367C12.7632 20.367 12.404 20.0086 12.404 19.567C12.404 19.1262 12.7632 18.767 13.204 18.767ZM13.204 21.167C14.0864 21.167 14.804 20.4502 14.804 19.567C14.804 18.6846 14.0864 17.967 13.204 17.967C12.3224 17.967 11.604 18.6846 11.604 19.567C11.604 20.4502 12.3224 21.167 13.204 21.167ZM18.804 18.767C19.2456 18.767 19.604 19.1262 19.604 19.567C19.604 20.0086 19.2456 20.367 18.804 20.367C18.3632 20.367 18.004 20.0086 18.004 19.567C18.004 19.1262 18.3632 18.767 18.804 18.767ZM18.804 21.167C19.6864 21.167 20.404 20.4502 20.404 19.567C20.404 18.6846 19.6864 17.967 18.804 17.967C17.9224 17.967 17.204 18.6846 17.204 19.567C17.204 20.4502 17.9224 21.167 18.804 21.167Z" fill="white"/>
</g>
<defs>
<clipPath id="clip0_854_28679">
<rect width="32" height="32" fill="white"/>
</clipPath>
</defs>
</svg>
