<svg width="32" height="32" viewBox="0 0 32 32" fill="none" xmlns="http://www.w3.org/2000/svg">
<g clip-path="url(#clip0_850_21933)">
<path d="M32 0H0V32H32V0Z" fill="#DD344C"/>
<path fill-rule="evenodd" clip-rule="evenodd" d="M11.9999 16.802H15.9999V15.9973H11.9999V16.802ZM11.9999 15.1925H20.7999V14.3878H11.9999V15.1925ZM11.9999 13.583H19.1999V12.7783H11.9999V13.583ZM15.9999 8.01903C12.4711 8.01903 9.5999 10.9073 9.5999 14.457C9.5999 17.0442 11.1079 19.3611 13.4415 20.3598L13.5983 20.4089C13.7791 20.4676 13.9895 20.5368 14.1815 20.6069L15.7591 21.1863C15.9167 21.2442 16.0215 21.3947 16.0215 21.5637V23.6045C19.8599 21.8285 22.3999 18.2192 22.3999 14.457C22.3999 10.9073 19.5287 8.01903 15.9999 8.01903ZM15.6215 24.6177C15.5431 24.6177 15.4647 24.5944 15.3975 24.5485C15.2871 24.4737 15.2215 24.3489 15.2215 24.2153V21.8454L13.9071 21.3625C13.7255 21.2957 13.5239 21.2305 13.3519 21.175L13.1615 21.1122C10.4991 19.9751 8.7999 17.3678 8.7999 14.457C8.7999 10.463 12.0295 7.21428 15.9999 7.21428C19.9703 7.21428 23.1999 10.463 23.1999 14.457C23.1999 18.7213 20.2151 22.7925 15.7711 24.5887C15.7223 24.608 15.6727 24.6177 15.6215 24.6177ZM15.9999 5.60479C11.1479 5.60479 7.1999 9.57541 7.1999 14.457C7.1999 18.0156 9.3087 21.216 12.5719 22.6091C12.6255 22.6324 12.7343 22.6662 12.8639 22.708C13.0167 22.7571 13.1967 22.8159 13.3591 22.8746C13.5167 22.9334 13.6215 23.0839 13.6215 23.2529V27.0223L14.5351 26.6867C20.4983 25.1368 24.7999 19.9985 24.7999 14.457C24.7999 9.57541 20.8519 5.60479 15.9999 5.60479ZM13.2215 28C13.1407 28 13.0607 27.9751 12.9927 27.9276C12.8855 27.852 12.8215 27.7289 12.8215 27.5977V23.5402C12.7519 23.5168 12.6831 23.4943 12.6191 23.4742C12.4599 23.4227 12.3263 23.3784 12.2591 23.3502C8.6999 21.8301 6.3999 18.3399 6.3999 14.457C6.3999 9.13199 10.7063 4.80005 15.9999 4.80005C21.2935 4.80005 25.5999 9.13199 25.5999 14.457C25.5999 20.3598 21.0463 25.8256 14.7727 27.4544L13.3591 27.9759C13.3151 27.992 13.2679 28 13.2215 28Z" fill="white"/>
</g>
<defs>
<clipPath id="clip0_850_21933">
<rect width="32" height="32" fill="white"/>
</clipPath>
</defs>
</svg>
