<svg width="32" height="32" viewBox="0 0 32 32" fill="none" xmlns="http://www.w3.org/2000/svg">
<g clip-path="url(#clip0_850_21922)">
<path d="M32 0H0V32H32V0Z" fill="#DD344C"/>
<path fill-rule="evenodd" clip-rule="evenodd" d="M22.306 8.40563C22.306 9.12402 22.8905 9.70852 23.6081 9.70852C24.3265 9.70852 24.9102 9.12402 24.9102 8.40563C24.9102 7.68724 24.3265 7.10275 23.6081 7.10275C22.8905 7.10275 22.306 7.68724 22.306 8.40563ZM15.7162 15.717L17.9949 13.4376C17.4424 13.0062 16.7553 12.7384 16.0017 12.7384C14.2041 12.7384 12.7408 14.2009 12.7408 15.9984C12.7408 17.796 14.2041 19.2593 16.0017 19.2593C17.7992 19.2593 19.2617 17.796 19.2617 15.9984C19.2617 15.244 18.9939 14.5577 18.5617 14.0044L16.2831 16.2839L15.7162 15.717ZM20.838 11.729L19.1286 13.4384C19.7043 14.1391 20.0634 15.0235 20.0634 15.9984C20.0634 18.2386 18.2418 20.061 16.0017 20.061C13.7615 20.061 11.9391 18.2386 11.9391 15.9984C11.9391 13.7591 13.7615 11.9367 16.0017 11.9367C16.9774 11.9367 17.861 12.2966 18.5617 12.8715L20.2711 11.1621C19.131 10.1543 17.6389 9.53774 16.0017 9.53774C12.4386 9.53774 9.54014 12.4362 9.54014 15.9984C9.54014 19.5615 12.4386 22.46 16.0017 22.46C19.5639 22.46 22.4624 19.5615 22.4624 15.9984C22.4624 14.3612 21.8458 12.8691 20.838 11.729ZM21.8594 9.57382C21.6357 9.23948 21.5042 8.83779 21.5042 8.40563C21.5042 7.24546 22.4479 6.30097 23.6081 6.30097C24.7683 6.30097 25.712 7.24546 25.712 8.40563C25.712 9.5658 24.7683 10.5103 23.6081 10.5103C23.1687 10.5103 22.7614 10.374 22.4239 10.1431L21.4048 11.1621C22.5562 12.4482 23.2641 14.1399 23.2641 15.9984C23.2641 20.0033 20.0065 23.2617 16.0017 23.2617C11.9968 23.2617 8.73837 20.0033 8.73837 15.9984C8.73837 11.9936 11.9968 8.73596 16.0017 8.73596C17.8602 8.73596 19.5519 9.44313 20.838 10.5953L21.8594 9.57382ZM27.2 16C27.2 22.1753 22.1753 27.2 16 27.2C9.82478 27.2 4.80005 22.1753 4.80005 16C4.80005 9.82478 9.82478 4.80005 16 4.80005C17.5683 4.80005 19.0853 5.11916 20.5116 5.74855L20.1869 6.48217C18.8648 5.89848 17.4561 5.60182 16 5.60182C10.2658 5.60182 5.60182 10.2666 5.60182 16C5.60182 21.7335 10.2658 26.3983 16 26.3983C21.7335 26.3983 26.3983 21.7335 26.3983 16C26.3983 14.5408 26.1032 13.1385 25.5235 11.8332L26.2564 11.5077C26.8825 12.9164 27.2 14.4278 27.2 16Z" fill="white"/>
</g>
<defs>
<clipPath id="clip0_850_21922">
<rect width="32" height="32" fill="white"/>
</clipPath>
</defs>
</svg>
