<svg width="32" height="32" viewBox="0 0 32 32" fill="none" xmlns="http://www.w3.org/2000/svg">
<g clip-path="url(#clip0_850_21928)">
<path d="M32 0H0V32H32V0Z" fill="#DD344C"/>
<path fill-rule="evenodd" clip-rule="evenodd" d="M26.4 18.5792L20 16.7296V14.4216L26.4 16.2832V18.5792ZM23.38 23.8064L21.828 25.3568L18.6448 19.6488L20.2032 18.0904L23.38 23.8064ZM17.9616 19.2H14.9696C14.7912 19.2 14.6344 19.3184 14.5848 19.4896L14.5272 19.6896L12.8 17.9624V14.9704C12.8 14.792 12.6824 14.6352 12.5112 14.5856L12.3112 14.528L14.0384 12.8H17.0304C17.2088 12.8 17.3656 12.6824 17.4152 12.5112L17.4728 12.3112L19.2 14.0384V17.0304C19.2 17.2088 19.3176 17.3648 19.4888 17.4144L19.6888 17.4728L17.9616 19.2ZM15.7168 26.4H13.4208L15.2704 20H17.5792L15.7168 26.4ZM8.19365 23.3792L6.64325 21.8288L12.3512 18.6448L13.9104 20.204L8.19365 23.3792ZM5.60005 15.7168V13.4216L12 15.2712V17.5792L5.60005 15.7168ZM8.62005 8.19445L10.172 6.64405L13.3552 12.3512L11.7968 13.9104L8.62005 8.19445ZM16.2832 5.60005H18.5792L16.7296 12H14.4208L16.2832 5.60005ZM23.8064 8.62085L25.3568 10.172L19.6488 13.356L18.0896 11.7968L23.8064 8.62085ZM26.912 15.5992L20.5752 13.7552L26.2089 10.6128C26.3185 10.5512 26.3928 10.4424 26.4104 10.3184C26.4272 10.1944 26.3856 10.0688 26.2968 9.98005L24.1584 7.84245C24.0328 7.71605 23.8376 7.68885 23.6816 7.77525L17.8472 11.0168L19.4952 5.31125C19.5304 5.19045 19.5064 5.06085 19.4304 4.96005C19.3544 4.85925 19.2368 4.80005 19.1112 4.80005H15.9832C15.8048 4.80005 15.6488 4.91765 15.5984 5.08885L13.7552 11.4256L10.6128 5.79205C10.5512 5.68245 10.4432 5.60805 10.3184 5.59045C10.1888 5.57285 10.0696 5.61525 9.98085 5.70405L7.84165 7.84245C7.71525 7.96805 7.68725 8.16325 7.77445 8.31925L11.0168 14.1544L5.31125 12.5048C5.19045 12.4712 5.06085 12.4944 4.95925 12.5696C4.85925 12.6456 4.80005 12.7632 4.80005 12.8896V16.0176C4.80005 16.1952 4.91685 16.352 5.08805 16.4016L11.4248 18.2456L5.79125 21.388C5.68165 21.4488 5.60725 21.5584 5.58965 21.6824C5.57285 21.8064 5.61445 21.9312 5.70325 22.02L7.84165 24.1584C7.96725 24.2848 8.16405 24.3128 8.31845 24.2256L14.1528 20.984L12.5048 26.6896C12.4696 26.8104 12.4936 26.94 12.5696 27.0408C12.6456 27.1416 12.7632 27.2 12.8888 27.2H16.0168C16.1952 27.2 16.3512 27.0824 16.4016 26.912L18.2448 20.5752L21.3872 26.2089C21.4488 26.3185 21.5568 26.3928 21.6816 26.4104C21.8112 26.428 21.9304 26.3848 22.0192 26.2968L24.1584 24.1584C24.2848 24.032 24.3128 23.8376 24.2256 23.6816L20.9832 17.8464L26.6888 19.496C26.8112 19.5312 26.94 19.5072 27.0408 19.4304C27.1408 19.3552 27.2 19.2368 27.2 19.1112V15.9832C27.2 15.8056 27.0832 15.6488 26.912 15.5992Z" fill="white"/>
</g>
<defs>
<clipPath id="clip0_850_21928">
<rect width="32" height="32" fill="white"/>
</clipPath>
</defs>
</svg>
