<svg width="32" height="32" viewBox="0 0 32 32" fill="none" xmlns="http://www.w3.org/2000/svg">
<g clip-path="url(#clip0_850_21938)">
<path d="M32 0H0V32H32V0Z" fill="#DD344C"/>
<path fill-rule="evenodd" clip-rule="evenodd" d="M15.166 23.5926H15.9664V21.1914H15.166V23.5926ZM9.20225 15.9496H11.6035V15.1492H9.20225V15.9496ZM15.166 19.5906H15.9664V17.1894H15.166V19.5906ZM15.9664 26.3996V25.1934H15.166V26.3996H5.60045V15.9496H7.60145V15.1492H5.60045V5.60045H15.166V15.1492H13.2043V15.9496H15.5662H26.3996V26.3996H15.9664ZM15.9664 6.11271L25.7753 15.1492H15.9664V6.11271ZM27.2 15.5494C27.2 15.4406 27.1544 15.3333 27.0712 15.2557L15.8376 4.9057C15.7615 4.83607 15.6647 4.80005 15.5662 4.80005H5.20025C4.97854 4.80005 4.80005 4.97854 4.80005 5.20025V26.7998C4.80005 27.0216 4.97854 27.2 5.20025 27.2H26.7998C27.0208 27.2 27.2 27.0216 27.2 26.7998V15.5494Z" fill="white"/>
</g>
<defs>
<clipPath id="clip0_850_21938">
<rect width="32" height="32" fill="white"/>
</clipPath>
</defs>
</svg>
