<svg width="32" height="32" viewBox="0 0 32 32" fill="none" xmlns="http://www.w3.org/2000/svg">
<g clip-path="url(#clip0_850_21944)">
<path d="M32 0H0V32H32V0Z" fill="#DD344C"/>
<path fill-rule="evenodd" clip-rule="evenodd" d="M5.60022 26.3999V6.16589L15.7176 16.2829C15.792 16.3581 15.8936 16.3997 16 16.3997C16.1065 16.3997 16.2081 16.3581 16.2833 16.2829L26.3999 6.16589V26.3999H5.60022ZM25.8342 5.60019L16 15.4339L6.16594 5.60019H25.8342ZM26.8 4.80005H5.20013C4.97929 4.80005 4.80005 4.97928 4.80005 5.20012V26.8C4.80005 27.0208 4.97929 27.2 5.20013 27.2H26.8C27.0216 27.2 27.2 27.0208 27.2 26.8V5.20012C27.2 4.97928 27.0216 4.80005 26.8 4.80005Z" fill="white"/>
</g>
<defs>
<clipPath id="clip0_850_21944">
<rect width="32" height="32" fill="white"/>
</clipPath>
</defs>
</svg>
