<svg width="32" height="32" viewBox="0 0 32 32" fill="none" xmlns="http://www.w3.org/2000/svg">
<g clip-path="url(#clip0_850_21889)">
<path d="M32 0H0V32H32V0Z" fill="#DD344C"/>
<path fill-rule="evenodd" clip-rule="evenodd" d="M20.3016 14.8116C19.86 14.8116 19.5016 14.4496 19.5016 14.0054C19.5016 13.5611 19.86 13.1991 20.3016 13.1991C20.7432 13.1991 21.1016 13.5611 21.1016 14.0054C21.1016 14.4496 20.7432 14.8116 20.3016 14.8116ZM16.3016 18.8429C15.86 18.8429 15.5016 18.4809 15.5016 18.0366C15.5016 17.5924 15.86 17.2304 16.3016 17.2304C16.7432 17.2304 17.1016 17.5924 17.1016 18.0366C17.1016 18.4809 16.7432 18.8429 16.3016 18.8429ZM13.1016 14.0054C12.66 14.0054 12.3016 13.6434 12.3016 13.1991C12.3016 12.7549 12.66 12.3929 13.1016 12.3929C13.5432 12.3929 13.9016 12.7549 13.9016 13.1991C13.9016 13.6434 13.5432 14.0054 13.1016 14.0054ZM9.90165 18.0366C9.46005 18.0366 9.10165 17.6746 9.10165 17.2304C9.10165 16.7861 9.46005 16.4241 9.90165 16.4241C10.3432 16.4241 10.7016 16.7861 10.7016 17.2304C10.7016 17.6746 10.3432 18.0366 9.90165 18.0366ZM20.3016 12.3929C19.4192 12.3929 18.7016 13.1161 18.7016 14.0054C18.7016 14.3021 18.7864 14.5762 18.9264 14.8157L17.1696 16.6854C16.9184 16.5217 16.6216 16.4241 16.3016 16.4241C16.244 16.4241 16.1888 16.4354 16.132 16.4411L14.5088 13.9505C14.628 13.7248 14.7016 13.4716 14.7016 13.1991C14.7016 12.3098 13.984 11.5866 13.1016 11.5866C12.2192 11.5866 11.5016 12.3098 11.5016 13.1991C11.5016 13.5627 11.6264 13.8949 11.828 14.165L10.3152 15.6792C10.1824 15.6437 10.0456 15.6179 9.90165 15.6179C9.01925 15.6179 8.30165 16.3411 8.30165 17.2304C8.30165 18.1197 9.01925 18.8429 9.90165 18.8429C10.784 18.8429 11.5016 18.1197 11.5016 17.2304C11.5016 16.7878 11.3232 16.3862 11.036 16.0952L12.4568 14.6729C12.6544 14.7608 12.872 14.8116 13.1016 14.8116C13.4144 14.8116 13.7032 14.7173 13.9504 14.5609L15.3664 16.7345C14.9656 17.028 14.7016 17.5005 14.7016 18.0366C14.7016 18.9259 15.4192 19.6491 16.3016 19.6491C17.184 19.6491 17.9016 18.9259 17.9016 18.0366C17.9016 17.7641 17.8272 17.511 17.7088 17.2852L19.4904 15.3873C19.7296 15.5308 20.0048 15.6179 20.3016 15.6179C21.184 15.6179 21.9016 14.8947 21.9016 14.0054C21.9016 13.1161 21.184 12.3929 20.3016 12.3929ZM23.2 20.4554H19.6C19.5144 20.4554 19.4312 20.4828 19.3624 20.5344L13.1016 25.1978V20.8585C13.1016 20.636 12.9224 20.4554 12.7016 20.4554H8.28805C7.92885 20.4554 7.59045 20.3554 7.30885 20.1668C6.52885 19.6451 5.60005 18.655 5.60005 16.8958C5.60005 14.4827 7.27125 13.6909 8.26725 13.4345C8.45285 13.3862 8.57925 13.2128 8.56725 13.0193L8.52725 12.3566C8.52725 10.4337 9.84565 8.36563 11.528 7.64726C12.2848 7.32395 12.9848 7.19575 13.6192 7.19575C15.4232 7.19575 16.6976 8.23582 17.2528 8.79859C17.8656 9.41779 18.344 10.2079 18.6728 11.148C18.7216 11.2883 18.8448 11.3899 18.9904 11.4125C19.1416 11.4334 19.2848 11.3721 19.372 11.2528C19.8704 10.5715 20.728 10.2877 21.5128 10.5465C22.3928 10.8392 22.8984 11.7075 22.896 12.9169C22.8656 13.133 23.0112 13.3346 23.224 13.3708C24.1792 13.5361 26.4 14.2142 26.4 16.9297C26.4 20.1627 23.3016 20.4457 23.2 20.4554ZM23.6904 12.6444C23.608 11.2182 22.9 10.1587 21.7624 9.7806C20.8688 9.48471 19.9016 9.68627 19.1912 10.2797C18.8408 9.4839 18.3816 8.79617 17.82 8.22856C16.016 6.40482 13.5472 5.90897 11.216 6.9047C9.22725 7.75368 7.72725 10.0975 7.72805 12.3808L7.75045 12.7468C6.66485 13.1056 4.80005 14.1247 4.80005 16.8958C4.80005 19.1243 6.09445 20.3224 6.86645 20.8384C7.28005 21.1149 7.77125 21.2617 8.28805 21.2617H12.3016V25.9968C12.3016 26.1492 12.3864 26.2878 12.5208 26.3564C12.5784 26.3854 12.64 26.3999 12.7016 26.3999C12.7856 26.3999 12.8696 26.3733 12.9392 26.3209L19.732 21.2617L23.2296 21.2608C23.2696 21.2576 27.2 20.9182 27.2 16.9297C27.2 13.853 24.8248 12.9161 23.6904 12.6444Z" fill="white"/>
</g>
<defs>
<clipPath id="clip0_850_21889">
<rect width="32" height="32" fill="white"/>
</clipPath>
</defs>
</svg>
