<svg width="32" height="32" viewBox="0 0 32 32" fill="none" xmlns="http://www.w3.org/2000/svg">
<g clip-path="url(#clip0_850_21883)">
<path d="M32 0H0V32H32V0Z" fill="#DD344C"/>
<path fill-rule="evenodd" clip-rule="evenodd" d="M13.5999 18.2488L15.9967 19.6384L21.5999 16.4816L21.5943 19.1824L15.9999 22.4264L13.5999 21.0352V18.2488ZM12.8775 11.2464L15.2479 12.6576L12.7999 14.0776V20.5712L10.3999 19.18V12.6824L12.8775 11.2464ZM13.5999 14.5384L16.0343 13.1264L18.3999 14.5352V17.3664L16.0031 18.7176L13.5999 17.324V14.5384ZM21.5999 15.5632L19.1999 16.916V14.0808L13.6695 10.7872L15.9999 9.43605L21.5999 12.6824V15.5632ZM24.7999 21.0352L22.3943 22.4304L22.3999 12.2216L15.9999 8.51125L9.5999 12.2216V19.6408L15.9999 23.3512L21.5943 20.108V22.8936L15.9999 26.1376L7.1999 21.0352V10.8272L15.9999 5.72485L24.7999 10.8272V21.0352ZM15.9999 4.80005L6.3999 10.3664V21.496L15.9999 27.0624L25.5999 21.496V10.3664L15.9999 4.80005Z" fill="white"/>
</g>
<defs>
<clipPath id="clip0_850_21883">
<rect width="32" height="32" fill="white"/>
</clipPath>
</defs>
</svg>
