<svg width="32" height="32" viewBox="0 0 32 32" fill="none" xmlns="http://www.w3.org/2000/svg">
<g clip-path="url(#clip0_850_21899)">
<path d="M32 0H0V32H32V0Z" fill="#DD344C"/>
<path fill-rule="evenodd" clip-rule="evenodd" d="M16 19.8472L14.6208 19.1592C14.4856 19.092 14.4 18.9528 14.4 18.8016V18.792H12.8V17.992H14.4V17.4288L12.0304 16.0616L11.2 16.608V18.5984L13.0744 20.0872L12.576 20.7136L10.5504 19.1048C10.4552 19.0288 10.4 18.9136 10.4 18.7912V16.5856L9.64165 16.0632L7.20005 17.4352V18.544L8.38005 19.1336L9.37845 18.468L9.82165 19.1336L8.80005 19.8144V20.78C8.80005 20.9136 8.73285 21.0384 8.62165 21.1128L7.42165 21.9128L6.97845 21.2472L8.00005 20.5656V19.8384L6.79765 19.2376L5.60005 19.8592V22.548L6.97765 23.2304C7.11445 23.2976 7.20005 23.4368 7.20005 23.5888V24.9616L7.47925 25.1216L9.24405 23.4336L9.79685 24.012L8.20245 25.5368L9.59605 26.3368L10.4 25.7888V24V23.2V22.1976L9.49605 21.508L9.98085 20.872L11.0424 21.6816C11.1416 21.7568 11.2 21.8752 11.2 21.9992V23.2H12.8V24H11.2V25.7928L12.0256 26.332L14.4 24.9688V23.5968C14.4 23.4456 14.4848 23.3072 14.62 23.2392L14.9432 23.0776L13.72 21.8816L14.28 21.3104L15.6976 22.6968L16 22.5448V19.8472ZM16.8 19.6V22.7912C16.8 22.9424 16.7152 23.0808 16.58 23.1488L15.2 23.8432V25.2008C15.2 25.344 15.1232 25.4768 14.9992 25.5472L12.212 27.1472C12.1504 27.1832 12.0816 27.2008 12.0128 27.2008C11.936 27.2008 11.86 27.1792 11.7936 27.1352L10.7984 26.4856L9.83925 27.1384C9.77125 27.1848 9.69285 27.208 9.61445 27.208C9.54565 27.208 9.47685 27.1904 9.41525 27.1552L6.60085 25.54C6.47685 25.4688 6.40005 25.336 6.40005 25.1928V23.8368L5.02245 23.1552C4.88565 23.0872 4.80005 22.948 4.80005 22.7968V19.616C4.80005 19.4664 4.88325 19.3296 5.01605 19.2608L6.40005 18.5424V17.2016C6.40005 17.0568 6.47845 16.924 6.60405 16.8528L9.46645 15.2432C9.59925 15.1688 9.76405 15.176 9.88885 15.2632L10.8168 15.9024L11.7976 15.2576C11.924 15.1752 12.0872 15.1696 12.2168 15.2456L15 16.8512C15.1232 16.9224 15.2 17.0544 15.2 17.1976V18.5544L16.5792 19.2424C16.7144 19.3096 16.8 19.448 16.8 19.6ZM13.6 12.8H14.4V7.20005H13.6V12.8ZM16 13.6H16.8V8.80005H16V13.6ZM18.4 15.2H19.2V7.20005H18.4V15.2ZM23.2 11.2H24V8.80005H23.2V11.2ZM11.2 12H12V8.80005H11.2V12ZM20.8 12.8H21.6V8.80005H20.8V12.8ZM21.2 22.2376C21.152 22.2376 21.104 22.2288 21.0568 22.2112C20.9024 22.152 20.8 22.0032 20.8 21.8376V18.4H17.6V17.6H21.2C21.4208 17.6 21.6 17.7792 21.6 18V20.792L23.6256 18.5328C23.7016 18.448 23.8104 18.4 23.9232 18.4H25.308C25.8592 18.4 26.4 17.8496 26.4 17.2888V6.62485C26.4 6.06005 25.9784 5.60005 25.4592 5.60005H9.77525C9.23765 5.60005 8.80005 6.06005 8.80005 6.62485V14.4H8.00005V6.62485C8.00005 5.61845 8.79605 4.80005 9.77525 4.80005H25.4592C26.4192 4.80005 27.2 5.61845 27.2 6.62485V17.2888C27.2 18.2888 26.2984 19.2 25.308 19.2H24.1024L21.4976 22.1048C21.42 22.1912 21.312 22.2376 21.2 22.2376Z" fill="white"/>
</g>
<defs>
<clipPath id="clip0_850_21899">
<rect width="32" height="32" fill="white"/>
</clipPath>
</defs>
</svg>
