<svg width="32" height="32" viewBox="0 0 32 32" fill="none" xmlns="http://www.w3.org/2000/svg">
<g clip-path="url(#clip0_850_21949)">
<path d="M32 0H0V32H32V0Z" fill="#DD344C"/>
<path fill-rule="evenodd" clip-rule="evenodd" d="M22.3056 24.3412C22.3056 23.69 21.8144 23.1981 21.1624 23.1981C20.5112 23.1981 20.02 23.69 20.02 24.3412C20.02 24.9923 20.5112 25.4834 21.1624 25.4834C21.8144 25.4834 22.3056 24.9923 22.3056 24.3412ZM16 24.1124C15.3384 24.1124 14.8 24.6251 14.8 25.2555C14.8 25.8866 15.3384 26.4001 16 26.4001C16.6616 26.4001 17.2 25.8866 17.2 25.2555C17.2 24.6251 16.6616 24.1124 16 24.1124ZM10.788 23.1981C10.136 23.1981 9.64485 23.69 9.64485 24.3412C9.64485 24.9923 10.136 25.4834 10.788 25.4834C11.4392 25.4834 11.9304 24.9923 11.9304 24.3412C11.9304 23.69 11.4392 23.1981 10.788 23.1981ZM11.1672 16.8492H20.8328L17.428 14.3126L16.2536 15.2797C16.18 15.3405 16.0888 15.3709 15.9992 15.3709C15.9096 15.3709 15.8192 15.3405 15.7456 15.2797L14.5712 14.3134L11.1672 16.8492ZM10.36 10.8466V16.4524L13.9352 13.7895L10.36 10.8466ZM20.924 10.3994H11.0752L15.9992 14.4526L20.924 10.3994ZM21.64 16.4524V10.8466L18.064 13.7895L21.64 16.4524ZM23.1056 24.3412C23.1056 25.4306 22.2528 26.2833 21.1624 26.2833C20.0728 26.2833 19.22 25.4306 19.22 24.3412C19.22 23.3893 19.8712 22.6181 20.7624 22.4382V20.8487H16.4V23.3525C17.312 23.5324 18 24.3172 18 25.2555C18 26.3273 17.1032 27.2 16 27.2C14.8968 27.2 14 26.3273 14 25.2555C14 24.3172 14.6888 23.5324 15.6 23.3525V20.8487H11.188V22.4382C12.0792 22.6181 12.7304 23.3893 12.7304 24.3412C12.7304 25.4306 11.8776 26.2833 10.788 26.2833C9.69765 26.2833 8.84485 25.4306 8.84485 24.3412C8.84485 23.3893 9.49605 22.6181 10.388 22.4382V20.4488C10.388 20.2272 10.5664 20.0488 10.788 20.0488H15.6V17.6491H9.96005C9.73925 17.6491 9.56005 17.4699 9.56005 17.2491V9.99949C9.56005 9.77872 9.73925 9.59953 9.96005 9.59953H22.04C22.2608 9.59953 22.44 9.77872 22.44 9.99949V17.2491C22.44 17.4699 22.2608 17.6491 22.04 17.6491H16.4V20.0488H21.1624C21.384 20.0488 21.5624 20.2272 21.5624 20.4488V22.4382C22.4544 22.6181 23.1056 23.3893 23.1056 24.3412ZM27.2 15.9988C27.2 18.189 26.4272 20.6639 25.1336 22.6189L24.4664 22.1774C25.6592 20.3752 26.4 18.0082 26.4 15.9988C26.4 10.2651 21.7352 5.59996 16.0008 5.59996C10.2656 5.59996 5.60005 10.2651 5.60005 15.9988C5.60005 18.0034 6.34085 20.3712 7.53365 22.1782L6.86645 22.6189C5.57285 20.6591 4.80005 18.1842 4.80005 15.9988C4.80005 9.82431 9.82405 4.80005 15.9992 4.80005C22.1752 4.80005 27.2 9.82431 27.2 15.9988Z" fill="white"/>
</g>
<defs>
<clipPath id="clip0_850_21949">
<rect width="32" height="32" fill="white"/>
</clipPath>
</defs>
</svg>
