<svg width="32" height="32" viewBox="0 0 32 32" fill="none" xmlns="http://www.w3.org/2000/svg">
<g clip-path="url(#clip0_850_21894)">
<path d="M32 0H0V32H32V0Z" fill="#DD344C"/>
<path fill-rule="evenodd" clip-rule="evenodd" d="M23.1967 14.4478V20.099C23.1967 20.2414 23.1215 20.3726 22.9991 20.4446L18.3991 23.1366V22.2094L22.3967 19.8694V15.1454L18.3991 17.4854V16.5582L22.5943 14.1022C22.7183 14.0302 22.8719 14.0294 22.9959 14.1006C23.1199 14.1718 23.1967 14.3046 23.1967 14.4478ZM9.6015 19.8694L13.6087 22.2166V23.1438L8.9991 20.4446C8.8767 20.3726 8.8015 20.2414 8.8015 20.099V14.4478C8.8015 14.3046 8.8783 14.1718 9.0023 14.1006C9.1263 14.0302 9.2799 14.031 9.4039 14.1022L13.6087 16.5654V17.4926L9.6015 15.1454V19.8694ZM20.1967 19.239L16.1927 21.4758C16.1319 21.5094 16.0647 21.5262 15.9975 21.5262C15.9303 21.5262 15.8631 21.5094 15.8023 21.4758L11.7991 19.239V18.323L15.9975 20.6678L20.1967 18.323V19.239ZM16.3967 26.0623L16.3975 23.695H15.5975L15.5967 26.0623L7.1999 20.9022V11.0198L15.5975 15.7102V17.5302H16.3975V15.7102L24.7951 11.0198V20.9022L16.3967 26.0623ZM15.9975 5.65905L24.3751 10.3382L15.9975 15.0166L7.6199 10.3382L15.9975 5.65905ZM25.3903 9.98865L16.1927 4.85105C16.0711 4.78305 15.9239 4.78305 15.8023 4.85105L6.6047 9.98865C6.4783 10.0598 6.3999 10.1934 6.3999 10.3382V21.1262C6.3999 21.2654 6.4719 21.3942 6.5903 21.467L15.7879 27.1182C15.8519 27.1574 15.9247 27.1774 15.9975 27.1774C16.0703 27.1774 16.1431 27.1574 16.2071 27.1182L25.4047 21.467C25.5231 21.3942 25.5951 21.2654 25.5951 21.1262V10.3382C25.5951 10.1934 25.5167 10.0598 25.3903 9.98865Z" fill="white"/>
</g>
<defs>
<clipPath id="clip0_850_21894">
<rect width="32" height="32" fill="white"/>
</clipPath>
</defs>
</svg>
