<svg width="32" height="32" viewBox="0 0 32 32" fill="none" xmlns="http://www.w3.org/2000/svg">
<g clip-path="url(#clip0_850_21917)">
<path d="M32 0H0V32H32V0Z" fill="#DD344C"/>
<path fill-rule="evenodd" clip-rule="evenodd" d="M10.4001 18.8C10.4001 19.4616 10.9385 20 11.6001 20H20.4001C21.0617 20 21.6001 19.4616 21.6001 18.8V11.6C21.6001 10.9384 21.0617 10.4 20.4001 10.4H11.6001C10.9385 10.4 10.4001 10.9384 10.4001 11.6V18.8ZM12.8001 9.60005H19.2001V7.80005C19.2001 6.58645 18.0673 5.60005 16.6753 5.60005H15.3249C13.9329 5.60005 12.8001 6.58645 12.8001 7.80005V9.60005ZM11.6001 9.60005H12.0001V7.80005C12.0001 6.14565 13.4913 4.80005 15.3249 4.80005H16.6753C18.5089 4.80005 20.0001 6.14565 20.0001 7.80005V9.60005H20.4001C21.5033 9.60005 22.4001 10.4976 22.4001 11.6V18.8C22.4001 19.9024 21.5033 20.8 20.4001 20.8H11.6001C10.4969 20.8 9.6001 19.9024 9.6001 18.8V11.6C9.6001 10.4976 10.4969 9.60005 11.6001 9.60005ZM24.4001 8.00005H20.8001V8.80005H24.4001C25.0617 8.80005 25.6001 9.33845 25.6001 10V22C25.6001 22.6616 25.0617 23.2 24.4001 23.2H14.8001C14.5793 23.2 14.4001 23.3792 14.4001 23.6V25.9672L11.0497 23.2872C10.9793 23.2312 10.8905 23.2 10.8001 23.2H7.6001C6.9385 23.2 6.4001 22.6616 6.4001 22V10C6.4001 9.33845 6.9385 8.80005 7.6001 8.80005H11.2001V8.00005H7.6001C6.4969 8.00005 5.6001 8.89765 5.6001 10V22C5.6001 23.1024 6.4969 24 7.6001 24H10.6593L14.5497 27.1128C14.6225 27.1704 14.7113 27.2 14.8001 27.2C14.8585 27.2 14.9177 27.1872 14.9737 27.1608C15.1121 27.0936 15.2001 26.9536 15.2001 26.8V24H24.4001C25.5033 24 26.4001 23.1024 26.4001 22V10C26.4001 8.89765 25.5033 8.00005 24.4001 8.00005ZM15.0833 18.2832L19.8833 13.4832L19.3169 12.9168L14.5169 17.7168L15.0833 18.2832ZM12.6833 17.4832L12.1169 16.9168L16.9169 12.1168L17.4833 12.6832L12.6833 17.4832Z" fill="white"/>
</g>
<defs>
<clipPath id="clip0_850_21917">
<rect width="32" height="32" fill="white"/>
</clipPath>
</defs>
</svg>
