<svg width="32" height="32" viewBox="0 0 32 32" fill="none" xmlns="http://www.w3.org/2000/svg">
<g clip-path="url(#clip0_850_25076)">
<path d="M32 0H0V32H32V0Z" fill="#01A88D"/>
<path fill-rule="evenodd" clip-rule="evenodd" d="M12.8014 19.1972H19.1931V12.7864H12.8014V19.1972ZM11.9978 19.48V12.5035C11.9978 12.2167 12.2316 11.9828 12.5185 11.9828H19.4752C19.7628 11.9828 19.9967 12.2167 19.9967 12.5035V19.48C19.9967 19.7669 19.7628 20.0007 19.4752 20.0007H12.5185C12.2316 20.0007 11.9978 19.7669 11.9978 19.48ZM27.1486 11.9989H22.4283V12.8024H26.3965V26.3962H12.8022V22.4283H11.9986V26.7466L12.0492 27.1998H26.7468L27.2 27.1484V12.4513L27.1486 11.9989ZM5.60364 19.1972H9.57095V20.0007H4.85469L4.80005 19.5443V4.85525L5.25649 4.7998H19.9461L20.0015 5.25703V9.57134H19.1979V5.60336H5.60364V19.1972Z" fill="white"/>
</g>
<defs>
<clipPath id="clip0_850_25076">
<rect width="32" height="32" fill="white"/>
</clipPath>
</defs>
</svg>
