<svg width="32" height="32" viewBox="0 0 32 32" fill="none" xmlns="http://www.w3.org/2000/svg">
<g clip-path="url(#clip0_850_25086)">
<path d="M32 0H0V32H32V0Z" fill="#01A88D"/>
<path fill-rule="evenodd" clip-rule="evenodd" d="M15.6 27.1806H16.4V24.8246H15.6V27.1806ZM16.3912 7.1998L15.6008 7.1966L15.6096 4.7998L16.4008 4.803L16.3912 7.1998ZM24.0128 16.375H27.2V15.575H24.0128V16.375ZM4.80005 16.375H8.02485V15.575H4.80005V16.375ZM5.60005 13.5998H4.80005V5.1998C4.80005 4.979 4.97925 4.7998 5.20005 4.7998H13.6V5.5998H5.60005V13.5998ZM27.2 5.1998V13.5998H26.4V5.5998H18.4V4.7998H26.8C27.0208 4.7998 27.2 4.979 27.2 5.1998ZM26.4 18.3998H27.2V26.7998C27.2 27.0206 27.0208 27.1998 26.8 27.1998H18.4V26.3998H26.4V18.3998ZM5.60005 26.3998H13.6V27.1998H5.20005C4.97925 27.1998 4.80005 27.0206 4.80005 26.7998V18.3998H5.60005V26.3998ZM16.4128 22.5246V16.1998L21.6 13.0598V19.383L16.4128 22.5246ZM10.4 13.0446L15.6128 16.1998V22.5398L10.4 19.383V13.0446ZM16 9.1758L21.2352 12.3454L16.0128 15.507L10.784 12.3422L16 9.1758ZM15.792 8.3662L9.82965 11.9854C9.72725 12.0342 9.64565 12.127 9.61285 12.2422C9.59696 12.295 9.59365 12.3494 9.60005 12.4022V19.6086C9.60005 19.7486 9.67365 19.8782 9.79285 19.9502L15.7928 23.5838C15.856 23.623 15.928 23.6422 16 23.6422C16.072 23.6422 16.144 23.623 16.2072 23.5838L22.2072 19.9502C22.3264 19.8782 22.4 19.7486 22.4 19.6086V12.3414C22.4 12.2014 22.3264 12.0718 22.2072 11.999L16.2072 8.3654C16.0808 8.2878 15.92 8.2886 15.792 8.3662Z" fill="white"/>
</g>
<defs>
<clipPath id="clip0_850_25086">
<rect width="32" height="32" fill="white"/>
</clipPath>
</defs>
</svg>
