<svg width="32" height="32" viewBox="0 0 32 32" fill="none" xmlns="http://www.w3.org/2000/svg">
<g clip-path="url(#clip0_850_25081)">
<path d="M32 0H0V32H32V0Z" fill="#01A88D"/>
<path fill-rule="evenodd" clip-rule="evenodd" d="M16.8 15.9998V25.8798L6.21508 15.9998H16.8ZM17.3592 27.1662C17.5056 27.103 17.6 26.959 17.6 26.7998V15.5998C17.6 15.379 17.4208 15.1998 17.2 15.1998H5.19988C5.03588 15.1998 4.88787 15.2998 4.82787 15.4526C4.76787 15.6062 4.80707 15.7806 4.92707 15.8926L16.9272 27.0926C17.0024 27.163 17.1008 27.1998 17.2 27.1998C17.2536 27.1998 17.308 27.1886 17.3592 27.1662ZM27.6 27.1998C27.5032 27.1998 27.4072 27.1646 27.3312 27.0966L18.9312 19.4966L19.4688 18.903L27.2 25.899V5.5998H6.16548L13.8831 13.3166L13.3167 13.883L4.91667 5.483C4.80307 5.3678 4.76867 5.1966 4.83027 5.047C4.89187 4.8974 5.03828 4.7998 5.19988 4.7998H27.6C27.8208 4.7998 28 4.979 28 5.1998V26.7998C28 26.9582 27.9072 27.1014 27.7624 27.1654C27.7104 27.1886 27.6544 27.1998 27.6 27.1998Z" fill="white"/>
</g>
<defs>
<clipPath id="clip0_850_25081">
<rect width="32" height="32" fill="white"/>
</clipPath>
</defs>
</svg>
