<svg width="32" height="32" viewBox="0 0 32 32" fill="none" xmlns="http://www.w3.org/2000/svg">
<path d="M31.7778 20.3362C31.7271 18.6549 31.0805 17.0464 29.9535 15.7979C28.8264 14.5493 27.2922 13.742 25.6249 13.5202C25.5227 11.172 24.4993 8.95868 22.7766 7.35976C21.0539 5.76084 18.7706 4.90509 16.4213 4.97793C14.5223 4.94295 12.6593 5.49875 11.0899 6.5685C9.52047 7.63825 8.3221 9.16912 7.66045 10.9495C5.65215 11.193 3.79758 12.148 2.43296 13.6414C1.06835 15.1349 0.284039 17.0679 0.222229 19.0899C0.309725 21.3618 1.29464 23.5062 2.96098 25.0529C4.62732 26.5996 6.83905 27.4223 9.11112 27.3406C9.37423 27.3406 9.63556 27.3281 9.89334 27.3068H24.2827C24.4109 27.3053 24.5383 27.2861 24.6613 27.2499C26.5097 27.236 28.2814 26.5094 29.6072 25.2213C30.933 23.9333 31.7105 22.1833 31.7778 20.3362Z" fill="url(#paint0_linear_868_12213)"/>
<path d="M14.8818 17.1894L18.9707 9.15024C19.0147 9.06523 19.0813 8.99396 19.1632 8.94422C19.245 8.89447 19.3389 8.86816 19.4347 8.86816C19.5304 8.86816 19.6243 8.89447 19.7062 8.94422C19.788 8.99396 19.8546 9.06523 19.8987 9.15024L23.9698 16.8302C24.2655 17.3098 24.4093 17.8675 24.3822 18.4302C24.3822 20.1156 22.1636 21.4809 19.4258 21.4809C16.688 21.4809 14.4693 20.1156 14.4693 18.4302C14.471 17.9832 14.6155 17.5484 14.8818 17.1894Z" fill="url(#paint1_linear_868_12213)"/>
<path d="M14.8818 17.2573C14.5458 17.9347 14.464 18.0484 14.464 18.4858C14.4658 18.5727 14.4729 18.6593 14.4854 18.7453C14.4854 18.7791 14.4854 18.8111 14.4854 18.8449H14.5085C14.7574 20.148 16.3431 21.2004 18.4 21.4671V21.204C16.4445 20.9427 14.9422 19.9596 14.7556 18.7418C14.8356 17.5204 16.3182 16.2067 18.4 15.9133V15.7587L18.3591 15.7818L18.1814 15.6822C17.0364 15.8558 15.9819 16.4056 15.184 17.2449L15.2125 17.1898L16.4782 14.7009L16.2507 14.5693L14.8818 17.268V17.2573Z" fill="white"/>
<g opacity="0.8">
<path d="M18.3929 15.6602V21.8913L13.008 25.0219V18.7819L18.3929 15.6602Z" fill="#9CEBFF"/>
</g>
<path opacity="0.85" d="M18.3929 15.6461L13.008 18.775L7.62311 15.6443L13.008 12.5137L18.3929 15.6461Z" fill="#9CEBFF"/>
<path d="M13.008 18.7803V25.0131L7.62311 21.8825V15.6514L13.008 18.7803Z" fill="#9CEBFF"/>
<path d="M13.008 25.1733L7.49689 21.9733V15.5857L13.008 12.3857L18.5191 15.5857V21.9662L13.008 25.1733ZM7.75289 21.8169L13.008 24.8711L18.2613 21.8169V15.7369L13.008 12.6809L7.75289 15.7351V21.8169Z" fill="white"/>
<path d="M24.3769 18.4166C24.4039 17.8538 24.2602 17.2961 23.9644 16.8166L19.8933 9.13657C19.8493 9.05156 19.7827 8.98029 19.7008 8.93054C19.619 8.8808 19.5251 8.85449 19.4293 8.85449C19.3336 8.85449 19.2397 8.8808 19.1578 8.93054C19.076 8.98029 19.0094 9.05156 18.9653 9.13657L16.2507 14.4912L16.4782 14.6228L19.2 9.26812C19.221 9.2244 19.2541 9.18761 19.2954 9.16209C19.3367 9.13657 19.3844 9.1234 19.4329 9.12412C19.4805 9.12346 19.5273 9.13608 19.5682 9.16058C19.609 9.18508 19.6422 9.22047 19.664 9.26279L23.7351 16.9428V16.9535V16.9641C23.8976 17.214 24.0066 17.4949 24.0551 17.789C23.4905 17.0593 22.7613 16.4734 21.9271 16.0792C21.093 15.685 20.1774 15.4935 19.2551 15.5206C18.8928 15.5206 18.5311 15.5521 18.1742 15.6148L18.352 15.7126L18.3929 15.6895V15.8441C18.6809 15.8032 18.9714 15.7824 19.2622 15.7819C21.8809 15.7819 23.9965 17.3446 24.0942 18.6815C23.8685 20.1037 21.8596 21.2059 19.4204 21.2059C19.0767 21.2051 18.7334 21.1814 18.3929 21.1348V21.3997C18.7336 21.4441 19.0768 21.4666 19.4204 21.4672C21.9609 21.4672 24.0516 20.2921 24.3396 18.7757H24.3644C24.3644 18.7455 24.3644 18.7152 24.3556 18.685C24.3689 18.5961 24.376 18.5064 24.3769 18.4166Z" fill="white"/>
<defs>
<linearGradient id="paint0_linear_868_12213" x1="16" y1="27.3406" x2="16" y2="4.97437" gradientUnits="userSpaceOnUse">
<stop stop-color="#0078D4"/>
<stop offset="0.156" stop-color="#1380DA"/>
<stop offset="0.528" stop-color="#3C91E5"/>
<stop offset="0.822" stop-color="#559CEC"/>
<stop offset="1" stop-color="#5EA0EF"/>
</linearGradient>
<linearGradient id="paint1_linear_868_12213" x1="19.4204" y1="8.86224" x2="19.4204" y2="21.4667" gradientUnits="userSpaceOnUse">
<stop stop-color="#C3F1FF"/>
<stop offset="0.107" stop-color="#BEEFFE"/>
<stop offset="0.765" stop-color="#32BEDD"/>
</linearGradient>
</defs>
</svg>
