<svg width="32" height="32" viewBox="0 0 32 32" fill="none" xmlns="http://www.w3.org/2000/svg">
<path d="M25.0311 21.8308C26.3468 21.8308 27.4133 20.7643 27.4133 19.4486C27.4133 18.133 26.3468 17.0664 25.0311 17.0664C23.7154 17.0664 22.6489 18.133 22.6489 19.4486C22.6489 20.7643 23.7154 21.8308 25.0311 21.8308Z" fill="#9CEBFF"/>
<path d="M25.0311 15.2178C24.1334 15.2036 23.2548 15.4778 22.5244 16L14.6133 10.4355L1.91998 19.4489L14.6133 29.0844L22.6667 22.9689C23.3684 23.4318 24.1904 23.6791 25.0311 23.68C26.1533 23.68 27.2295 23.2342 28.0229 22.4407C28.8164 21.6472 29.2622 20.571 29.2622 19.4489C29.2622 18.3267 28.8164 17.2505 28.0229 16.457C27.2295 15.6635 26.1533 15.2178 25.0311 15.2178ZM14.6133 26.7733L5.03109 19.5555L14.6133 12.6933L21.3333 17.4578C21.0023 18.0689 20.831 18.7538 20.8355 19.4489C20.8067 20.2031 20.9785 20.9516 21.3333 21.6178L14.6133 26.7733ZM25.0311 21.8844C24.6998 21.913 24.3661 21.8725 24.0513 21.7653C23.7364 21.6581 23.4473 21.4867 23.2023 21.2618C22.9572 21.037 22.7615 20.7637 22.6277 20.4593C22.4938 20.1548 22.4247 19.8259 22.4247 19.4933C22.4247 19.1608 22.4938 18.8318 22.6277 18.5274C22.7615 18.2229 22.9572 17.9496 23.2023 17.7248C23.4473 17.5 23.7364 17.3285 24.0513 17.2214C24.3661 17.1142 24.6998 17.0736 25.0311 17.1022C25.6297 17.1539 26.1871 17.4282 26.5932 17.8709C26.9994 18.3136 27.2247 18.8925 27.2247 19.4933C27.2247 20.0941 26.9994 20.6731 26.5932 21.1158C26.1871 21.5585 25.6297 21.8328 25.0311 21.8844Z" fill="#50E6FF"/>
<path d="M14.6133 14.3819C16.2726 14.3819 17.6178 13.0368 17.6178 11.3775C17.6178 9.71818 16.2726 8.37305 14.6133 8.37305C12.954 8.37305 11.6089 9.71818 11.6089 11.3775C11.6089 13.0368 12.954 14.3819 14.6133 14.3819Z" fill="url(#paint0_linear_868_12212)"/>
<path d="M4.19555 22.4532C5.85485 22.4532 7.19999 21.1081 7.19999 19.4488C7.19999 17.7895 5.85485 16.4443 4.19555 16.4443C2.53624 16.4443 1.1911 17.7895 1.1911 19.4488C1.1911 21.1081 2.53624 22.4532 4.19555 22.4532Z" fill="url(#paint1_linear_868_12212)"/>
<path d="M14.6133 31.1105C16.2726 31.1105 17.6178 29.7653 17.6178 28.106C17.6178 26.4467 16.2726 25.1016 14.6133 25.1016C12.954 25.1016 11.6089 26.4467 11.6089 28.106C11.6089 29.7653 12.954 31.1105 14.6133 31.1105Z" fill="url(#paint2_linear_868_12212)"/>
<path d="M25.0311 0.888672C24.2411 0.911456 23.4636 1.09124 22.7438 1.41755C22.024 1.74386 21.3764 2.21016 20.8386 2.78929C20.3009 3.36841 19.8837 4.04878 19.6116 4.79074C19.3394 5.53269 19.2176 6.3214 19.2533 7.11089C19.2533 9.83089 22.7022 16.1953 24.2667 19.9998C24.3286 20.1492 24.4334 20.277 24.5679 20.3668C24.7024 20.4567 24.8605 20.5047 25.0222 20.5047C25.184 20.5047 25.3421 20.4567 25.4766 20.3668C25.6111 20.277 25.7159 20.1492 25.7778 19.9998C27.36 16.1598 30.8089 9.742 30.8089 7.11089C30.8571 5.52246 30.2779 3.97893 29.1966 2.8144C28.1152 1.64988 26.6188 0.958049 25.0311 0.888672ZM25.0311 9.31534C24.5198 9.31885 24.019 9.17021 23.5923 8.88832C23.1657 8.60643 22.8326 8.20402 22.6352 7.73227C22.4379 7.26053 22.3854 6.74076 22.4843 6.23907C22.5832 5.73738 22.8291 5.27643 23.1906 4.91486C23.5522 4.55328 24.0132 4.30741 24.5148 4.20851C25.0165 4.10962 25.5363 4.16216 26.008 4.35947C26.4798 4.55678 26.8822 4.88993 27.1641 5.31655C27.446 5.74318 27.5946 6.244 27.5911 6.75534C27.5911 7.43429 27.3214 8.08544 26.8413 8.56553C26.3612 9.04562 25.7101 9.31534 25.0311 9.31534Z" fill="url(#paint3_linear_868_12212)"/>
<defs>
<linearGradient id="paint0_linear_868_12212" x1="14.6133" y1="14.3819" x2="14.6133" y2="8.37305" gradientUnits="userSpaceOnUse">
<stop stop-color="#773ADC"/>
<stop offset="1" stop-color="#B77AF4"/>
</linearGradient>
<linearGradient id="paint1_linear_868_12212" x1="4.19555" y1="22.4532" x2="4.19555" y2="16.4443" gradientUnits="userSpaceOnUse">
<stop stop-color="#773ADC"/>
<stop offset="1" stop-color="#B77AF4"/>
</linearGradient>
<linearGradient id="paint2_linear_868_12212" x1="14.6133" y1="31.1105" x2="14.6133" y2="25.1016" gradientUnits="userSpaceOnUse">
<stop stop-color="#773ADC"/>
<stop offset="1" stop-color="#B77AF4"/>
</linearGradient>
<linearGradient id="paint3_linear_868_12212" x1="25.0311" y1="0.888672" x2="25.0311" y2="20.5153" gradientUnits="userSpaceOnUse">
<stop stop-color="#B77AF4"/>
<stop offset="0.62" stop-color="#8C4FE4"/>
<stop offset="1" stop-color="#773ADC"/>
</linearGradient>
</defs>
</svg>
