<svg width="32" height="32" viewBox="0 0 32 32" fill="none" xmlns="http://www.w3.org/2000/svg">
<g clip-path="url(#clip0_854_28673)">
<path d="M32 0H0V32H32V0Z" fill="#ED7100"/>
<path fill-rule="evenodd" clip-rule="evenodd" d="M16.7718 18.7701C16.7718 19.4317 17.3102 19.9701 17.9718 19.9701C18.6334 19.9701 19.1718 19.4317 19.1718 18.7701C19.1718 18.1085 18.6334 17.5701 17.9718 17.5701C17.3102 17.5701 16.7718 18.1085 16.7718 18.7701ZM17.0046 20.5101C13.1206 24.0893 8.7526 27.1421 6.4078 27.1421C5.9174 27.1421 5.515 27.0085 5.2238 26.7181C4.2326 25.7277 5.139 23.5373 6.3126 21.5701H7.2574C5.5622 24.2901 5.3806 25.7429 5.7894 26.1525C6.699 27.0621 10.9886 24.9501 16.3926 19.9837C16.1326 19.6461 15.9718 19.2285 15.9718 18.7701C15.9718 17.6677 16.8686 16.7701 17.9718 16.7701C18.4438 16.7701 18.8718 16.9405 19.2142 17.2149C24.511 11.6645 27.1262 6.76133 26.1542 5.78773C25.747 5.38373 24.2974 5.55653 21.5718 7.25573V6.31013C23.5142 5.15253 25.723 4.22773 26.7198 5.22213C28.4342 6.93653 24.5262 12.8221 19.7286 17.8349C19.879 18.1157 19.9718 18.4309 19.9718 18.7701C19.9718 19.8725 19.075 20.7701 17.9718 20.7701C17.6198 20.7701 17.2918 20.6701 17.0046 20.5101ZM23.1718 15.7909V23.1701H15.7926C15.315 23.5701 14.8406 23.9565 14.3718 24.3197V26.3701H15.1718V23.9701H16.7718V26.3701H17.5718V23.9701H19.1718V26.3701H19.9718V23.9701H21.5718V26.3701H22.3718V23.9701H23.5718C23.7926 23.9701 23.9718 23.7909 23.9718 23.5701V22.3701H26.3718V21.5701H23.9718V19.9701H26.3718V19.1701H23.9718V17.5701H26.3718V16.7701H23.9718V15.1701H26.3718V14.3701H24.3214C23.9574 14.8381 23.5718 15.3133 23.1718 15.7909ZM7.9718 19.9701H5.5718V19.1701H7.9718V17.5701H5.5718V16.7701H7.9718V15.1701H5.5718V14.3701H7.9718V12.7701H5.5718V11.9701H7.9718V10.3701H5.5718V9.57013H7.9718V8.37013C7.9718 8.14933 8.151 7.97013 8.3718 7.97013H9.5718V5.57013H10.3718V7.97013H11.9718V5.57013H12.7718V7.97013H14.3718V5.57013H15.1718V7.97013H16.7718V5.57013H17.5718V7.97013H19.1718V5.57013H19.9718V7.97013H23.5718C23.7926 7.97013 23.9718 8.14933 23.9718 8.37013V9.24853C23.7422 9.63813 23.475 10.0597 23.1718 10.5109V8.77013H8.7718V23.1701H10.5134C10.0622 23.4733 9.6406 23.7397 9.251 23.9701H8.3718C8.151 23.9701 7.9718 23.7909 7.9718 23.5701V19.9701Z" fill="white"/>
</g>
<defs>
<clipPath id="clip0_854_28673">
<rect width="32" height="32" fill="white"/>
</clipPath>
</defs>
</svg>
