<svg width="32" height="32" viewBox="0 0 32 32" fill="none" xmlns="http://www.w3.org/2000/svg">
<path d="M31.9057 20.2112C31.855 18.5165 31.2033 16.8949 30.0669 15.6365C28.9306 14.3781 27.3838 13.5647 25.703 13.3419C25.6008 10.9736 24.5693 8.74106 22.8322 7.12809C21.0951 5.51512 18.7924 4.65172 16.423 4.72502C14.5083 4.69054 12.6302 5.25153 11.0481 6.33047C9.46599 7.40941 8.25799 8.95305 7.59101 10.7481C5.56711 10.9948 3.69841 11.9579 2.32323 13.4632C0.948058 14.9685 0.157298 16.9165 0.0941162 18.9543C0.181629 21.2443 1.17361 23.406 2.85256 24.9657C4.53151 26.5253 6.76041 27.3556 9.05056 27.2743C9.31723 27.2743 9.58389 27.2601 9.83989 27.2388H24.3554C24.4848 27.2373 24.6134 27.2182 24.7377 27.1819C26.6002 27.1666 28.385 26.4334 29.7203 25.1348C31.0556 23.8363 31.8384 22.0726 31.9057 20.2112Z" fill="url(#paint0_linear_868_12128)"/>
<path d="M16.832 18.7463C16.7998 17.0982 16.2816 15.4962 15.3425 14.1415C14.4034 12.7867 13.0851 11.7395 11.5531 11.131C10.021 10.5226 8.34344 10.3801 6.73074 10.7214C5.11803 11.0628 3.64203 11.8727 2.48787 13.0497C1.33371 14.2266 0.552799 15.7182 0.243085 17.3373C-0.0666292 18.9563 0.108649 20.6308 0.746933 22.1507C1.38522 23.6705 2.45808 24.968 3.83095 25.8805C5.20382 26.7929 6.81556 27.2796 8.46399 27.2796C8.55821 27.2796 8.64176 27.2796 8.7431 27.2796H16.8355V18.7463H16.832Z" fill="#50E6FF"/>
<path opacity="0.75" d="M2.35555 20.8835L5.52355 23.5021C5.56744 23.5386 5.62082 23.5618 5.67742 23.5691C5.73403 23.5763 5.79153 23.5673 5.84319 23.543C5.89485 23.5188 5.93854 23.4803 5.96914 23.4321C5.99974 23.384 6.01599 23.3281 6.01599 23.271V22.1315H13.5769V20.3537H2.55466C2.4922 20.3516 2.43065 20.3691 2.37868 20.4038C2.32671 20.4385 2.28693 20.4886 2.26494 20.5471C2.24296 20.6056 2.23988 20.6695 2.25613 20.7299C2.27238 20.7902 2.30715 20.8439 2.35555 20.8835Z" fill="white"/>
<path d="M14.1511 18.2308L10.9156 15.605C10.8716 15.5691 10.8184 15.5463 10.7621 15.5394C10.7058 15.5324 10.6486 15.5416 10.5973 15.5658C10.546 15.5899 10.5025 15.6282 10.472 15.676C10.4415 15.7239 10.4252 15.7794 10.4249 15.8361V16.9846H3.57333V18.7623H13.9609C14.023 18.763 14.0838 18.7443 14.1348 18.7088C14.1858 18.6733 14.2244 18.6228 14.2453 18.5643C14.2663 18.5058 14.2685 18.4423 14.2516 18.3825C14.2347 18.3227 14.1996 18.2697 14.1511 18.2308Z" fill="white"/>
<defs>
<linearGradient id="paint0_linear_868_12128" x1="15.9999" y1="27.2743" x2="15.9999" y2="4.72502" gradientUnits="userSpaceOnUse">
<stop stop-color="#0078D4"/>
<stop offset="0.817" stop-color="#5EA0EF"/>
</linearGradient>
</defs>
</svg>
