<svg width="32" height="32" viewBox="0 0 32 32" fill="none" xmlns="http://www.w3.org/2000/svg">
<g clip-path="url(#clip0_868_12125)">
<path d="M32 18.7204C31.9571 17.3471 31.4277 16.0336 30.5062 15.0144C29.5847 13.9952 28.331 13.3366 26.9689 13.156C26.8856 11.2367 26.0498 9.42738 24.6424 8.11976C23.2349 6.81215 21.3691 6.11144 19.4489 6.16934C17.9045 6.15315 16.3928 6.61402 15.1201 7.489C13.8473 8.36399 12.8757 9.61046 12.3378 11.0582C10.6788 11.251 9.14564 12.0377 8.02153 13.2729C6.89741 14.5082 6.25829 16.1085 6.22223 17.7782C6.31882 19.6236 7.12998 21.3589 8.48388 22.6166C9.83777 23.8743 11.6281 24.5555 13.4756 24.516H25.92H26.24C27.7666 24.4929 29.2236 23.8737 30.2998 22.7908C31.3761 21.7079 31.9863 20.2471 32 18.7204Z" fill="url(#paint0_linear_868_12125)"/>
<path d="M26.4889 19.9465C26.4468 18.5362 25.9055 17.1867 24.9613 16.1384C24.0172 15.09 22.7315 14.4109 21.3333 14.222C21.2364 12.2586 20.371 10.4122 18.924 9.0816C17.477 7.75102 15.5646 7.04314 13.6 7.1109C12.0113 7.07686 10.451 7.53534 9.13321 8.4234C7.81544 9.31146 6.8048 10.5856 6.24 12.0709C4.55671 12.2778 3.00278 13.0794 1.85856 14.3312C0.714337 15.583 0.0551755 17.2025 0 18.8976C0.0740782 20.806 0.901491 22.6072 2.301 23.9067C3.70051 25.2063 5.55802 25.8982 7.46667 25.8309H8.12444H20.1956H20.5156C22.0817 25.822 23.5825 25.2019 24.6982 24.1028C25.814 23.0036 26.4565 21.5123 26.4889 19.9465Z" fill="url(#paint1_linear_868_12125)"/>
<path d="M8.56888 16.6578H10.08C10.1362 16.6566 10.1921 16.6671 10.2441 16.6885C10.2961 16.7099 10.3431 16.7418 10.3822 16.7822L13.9378 20.3378C13.9803 20.3777 14.0142 20.4259 14.0373 20.4794C14.0605 20.5329 14.0725 20.5906 14.0725 20.6489C14.0725 20.7072 14.0605 20.7649 14.0373 20.8184C14.0142 20.8719 13.9803 20.9201 13.9378 20.96L9.10221 25.7067C9.06249 25.7463 9.01535 25.7776 8.96349 25.799C8.91163 25.8203 8.85607 25.8313 8.79999 25.8311H7.35999C7.28 25.8181 7.20509 25.7834 7.14338 25.7309C7.08167 25.6783 7.0355 25.6099 7.00987 25.533C6.98424 25.4561 6.98012 25.3737 6.99796 25.2946C7.01581 25.2156 7.05493 25.1429 7.1111 25.0845L11.2178 20.9245C11.2598 20.8861 11.2934 20.8395 11.3164 20.7874C11.3394 20.7354 11.3512 20.6791 11.3512 20.6222C11.3512 20.5653 11.3394 20.5091 11.3164 20.457C11.2934 20.405 11.2598 20.3583 11.2178 20.32L8.26666 17.3867C8.20678 17.327 8.16597 17.2509 8.14942 17.168C8.13287 17.0851 8.14132 16.9991 8.1737 16.921C8.20608 16.8429 8.26093 16.7762 8.33129 16.7294C8.40164 16.6825 8.48434 16.6576 8.56888 16.6578ZM14.6667 10.6667H16.2133C16.3287 10.673 16.4371 10.724 16.5155 10.8089L19.2355 13.5645C19.2753 13.6041 19.3069 13.6512 19.3284 13.7031C19.35 13.7549 19.361 13.8105 19.361 13.8667C19.361 13.9228 19.35 13.9784 19.3284 14.0303C19.3069 14.0822 19.2753 14.1293 19.2355 14.1689L15.68 17.5645C15.6403 17.604 15.5931 17.6354 15.5413 17.6568C15.4894 17.6781 15.4339 17.689 15.3778 17.6889H14.08C13.9974 17.685 13.9175 17.6581 13.8493 17.6112C13.7811 17.5643 13.7274 17.4994 13.6941 17.4236C13.6609 17.3479 13.6494 17.2643 13.661 17.1824C13.6727 17.1005 13.707 17.0235 13.76 16.96L16.48 14.2222C16.5562 14.14 16.5986 14.0321 16.5986 13.92C16.5986 13.8079 16.5562 13.7 16.48 13.6178L14.3644 11.4845C14.256 11.4444 14.1679 11.3629 14.1196 11.2578C14.0712 11.1528 14.0666 11.0329 14.1067 10.9245C14.1467 10.816 14.2282 10.7279 14.3333 10.6796C14.4383 10.6312 14.5582 10.6266 14.6667 10.6667ZM17.8489 17.7778H19.36C19.4719 17.7841 19.5784 17.8279 19.6622 17.9022L21.8844 20.1245C21.9607 20.2066 22.003 20.3146 22.003 20.4267C22.003 20.5388 21.9607 20.6467 21.8844 20.7289L18.6667 23.9822C18.6275 24.0226 18.5805 24.0546 18.5285 24.076C18.4765 24.0974 18.4207 24.1078 18.3644 24.1067H16.9067C16.8221 24.1069 16.7394 24.082 16.6691 24.0351C16.5987 23.9882 16.5439 23.9215 16.5115 23.8434C16.4791 23.7653 16.4706 23.6794 16.4872 23.5965C16.5037 23.5136 16.5446 23.4375 16.6044 23.3778L19.1289 20.8178C19.2051 20.7356 19.2475 20.6277 19.2475 20.5156C19.2475 20.4035 19.2051 20.2955 19.1289 20.2133L17.5467 18.5956C17.4894 18.5404 17.4487 18.4703 17.4292 18.3933C17.4096 18.3162 17.412 18.2352 17.436 18.1594C17.4601 18.0836 17.5048 18.0161 17.5652 17.9643C17.6256 17.9126 17.6992 17.8788 17.7778 17.8667L17.8489 17.7778Z" fill="white"/>
</g>
<defs>
<linearGradient id="paint0_linear_868_12125" x1="19.1111" y1="24.0716" x2="19.1111" y2="5.19156" gradientUnits="userSpaceOnUse">
<stop stop-color="#0078D4"/>
<stop offset="0.16" stop-color="#1380DA"/>
<stop offset="0.53" stop-color="#3C91E5"/>
<stop offset="0.82" stop-color="#559CEC"/>
<stop offset="1" stop-color="#5EA0EF"/>
</linearGradient>
<linearGradient id="paint1_linear_868_12125" x1="13.2444" y1="30.6487" x2="13.2444" y2="2.11534" gradientUnits="userSpaceOnUse">
<stop stop-color="#198AB3"/>
<stop offset="0.11" stop-color="#22A5CB"/>
<stop offset="0.23" stop-color="#29BADE"/>
<stop offset="0.37" stop-color="#2EC9EB"/>
<stop offset="0.53" stop-color="#31D1F3"/>
<stop offset="0.78" stop-color="#32D4F5"/>
</linearGradient>
<clipPath id="clip0_868_12125">
<rect width="32" height="32" fill="white"/>
</clipPath>
</defs>
</svg>
