<svg width="32" height="32" viewBox="0 0 32 32" fill="none" xmlns="http://www.w3.org/2000/svg">
<g clip-path="url(#clip0_868_7282)">
<path d="M25.2089 11.5376H17.1556C15.4886 11.6297 13.9072 12.3053 12.6883 13.4462C11.4695 14.587 10.6909 16.1204 10.4889 17.7776H13.0133C13.2071 16.8073 13.7203 15.9298 14.4711 15.2853C15.222 14.6408 16.1671 14.2665 17.1556 14.222H25.2089C26.4211 14.291 27.557 14.8359 28.3693 15.7382C29.1817 16.6404 29.6049 17.8271 29.5467 19.0398C29.605 20.2544 29.1824 21.443 28.3705 22.3481C27.5585 23.2532 26.4226 23.8019 25.2089 23.8754H17.1556C16.1671 23.8309 15.222 23.4566 14.4711 22.8121C13.7203 22.1676 13.2071 21.2902 13.0133 20.3198H10.4889C10.6674 21.9963 11.4358 23.5548 12.6568 24.7173C13.8779 25.8798 15.4723 26.5706 17.1556 26.6665H25.2089C27.1114 26.5563 28.8931 25.6982 30.1653 24.2795C31.4375 22.8607 32.0971 20.9963 32 19.0932C32.0922 17.193 31.4305 15.3332 30.1588 13.9183C28.887 12.5034 27.1081 11.6478 25.2089 11.5376Z" fill="url(#paint0_linear_868_7282)"/>
<path d="M14.8445 17.7779H6.79112C6.18611 17.7439 5.59377 17.5908 5.04805 17.3274C4.50234 17.064 4.01399 16.6954 3.611 16.2429C3.20801 15.7904 2.89831 15.2627 2.69965 14.6903C2.50099 14.1178 2.41729 13.5117 2.45334 12.9068C2.395 11.6923 2.81759 10.5037 3.62954 9.59855C4.44149 8.69343 5.5774 8.1447 6.79112 8.07127H14.8445C15.8329 8.11571 16.7781 8.49005 17.5289 9.13454C18.2797 9.77902 18.793 10.6565 18.9867 11.6268H21.5111C21.3208 9.95997 20.5473 8.41407 19.3273 7.26241C18.1074 6.11076 16.5195 5.42752 14.8445 5.3335H6.79112C4.88865 5.44367 3.10695 6.30175 1.83471 7.72053C0.562474 9.13931 -0.0970539 11.0036 8.45362e-06 12.9068C-0.0922172 14.807 0.56949 16.6668 1.84123 18.0817C3.11297 19.4966 4.89189 20.3522 6.79112 20.4624H14.8445C16.5114 20.3703 18.0928 19.6947 19.3117 18.5538C20.5305 17.4129 21.3091 15.8796 21.5111 14.2224H18.9867C18.793 15.1927 18.2797 16.0702 17.5289 16.7147C16.7781 17.3592 15.8329 17.7335 14.8445 17.7779Z" fill="url(#paint1_linear_868_7282)"/>
<path d="M14.8444 17.7777H9.51111V20.5155H14.8444C16.5195 20.4215 18.1074 19.7382 19.3273 18.5866C20.5473 17.4349 21.3208 15.889 21.5111 14.2222H18.9867C18.7929 15.1925 18.2797 16.07 17.5289 16.7145C16.778 17.3589 15.8329 17.7333 14.8444 17.7777Z" fill="url(#paint2_linear_868_7282)"/>
</g>
<defs>
<linearGradient id="paint0_linear_868_7282" x1="21.2444" y1="26.6665" x2="21.2444" y2="11.5376" gradientUnits="userSpaceOnUse">
<stop stop-color="#5E9624"/>
<stop offset="0.01" stop-color="#5E9724"/>
<stop offset="0.35" stop-color="#6CAB29"/>
<stop offset="0.68" stop-color="#73B82C"/>
<stop offset="1" stop-color="#76BC2D"/>
</linearGradient>
<linearGradient id="paint1_linear_868_7282" x1="10.7556" y1="20.4624" x2="10.7556" y2="5.3335" gradientUnits="userSpaceOnUse">
<stop stop-color="#0078D4"/>
<stop offset="0.82" stop-color="#5EA0EF"/>
</linearGradient>
<linearGradient id="paint2_linear_868_7282" x1="18.6844" y1="12.1244" x2="14.0978" y2="18.6666" gradientUnits="userSpaceOnUse">
<stop stop-color="#005BA1"/>
<stop offset="0.14" stop-color="#035DA3" stop-opacity="0.97"/>
<stop offset="0.3" stop-color="#0B63AA" stop-opacity="0.88"/>
<stop offset="0.47" stop-color="#196EB6" stop-opacity="0.73"/>
<stop offset="0.65" stop-color="#2D7CC6" stop-opacity="0.52"/>
<stop offset="0.84" stop-color="#468EDB" stop-opacity="0.26"/>
<stop offset="1" stop-color="#5EA0EF" stop-opacity="0"/>
</linearGradient>
<clipPath id="clip0_868_7282">
<rect width="32" height="32" fill="white"/>
</clipPath>
</defs>
</svg>
