<svg width="32" height="32" viewBox="0 0 32 32" fill="none" xmlns="http://www.w3.org/2000/svg">
<path d="M18.1867 30.9157L19.6267 29.3691V25.2446H12.4445V29.3691L13.8845 30.9157C13.9705 31.0187 14.0901 31.088 14.2222 31.1113H17.7778C17.8557 31.1085 17.9322 31.0896 18.0026 31.056C18.0729 31.0224 18.1356 30.9746 18.1867 30.9157Z" fill="#CECECE"/>
<path d="M16 0.888716C14.514 0.873725 13.0419 1.1752 11.6814 1.7731C10.321 2.371 9.10335 3.25163 8.10951 4.35645C7.11567 5.46128 6.36838 6.76499 5.91731 8.18093C5.46624 9.59687 5.32172 11.0926 5.49336 12.5687C5.97336 16.9598 10.1511 19.0043 11.3422 24.5687C11.3859 24.7585 11.492 24.9282 11.6435 25.0507C11.7949 25.1731 11.9831 25.2413 12.1778 25.2443H19.8222C20.017 25.2413 20.2051 25.1731 20.3566 25.0507C20.508 24.9282 20.6141 24.7585 20.6578 24.5687C21.8489 19.0043 25.9911 16.9598 26.5067 12.5687C26.6783 11.0926 26.5338 9.59687 26.0827 8.18093C25.6317 6.76499 24.8844 5.46128 23.8905 4.35645C22.8967 3.25163 21.6791 2.371 20.3186 1.7731C18.9582 1.1752 17.486 0.873725 16 0.888716Z" fill="url(#paint0_radial_868_7281)"/>
<path d="M20.3733 6.73779C19.7162 6.76099 19.0951 7.04323 18.6454 7.52288C18.1957 8.00252 17.9541 8.64061 17.9733 9.29779V10.6667H14.2222V9.29779C14.2293 8.96415 14.1697 8.63245 14.0469 8.32215C13.9241 8.01184 13.7406 7.72918 13.5071 7.49073C13.2737 7.25229 12.9949 7.06287 12.6873 6.93357C12.3796 6.80428 12.0492 6.73772 11.7155 6.73779C11.0585 6.76099 10.4373 7.04323 9.98762 7.52288C9.53795 8.00252 9.29633 8.64061 9.31553 9.29779C9.29624 9.95673 9.5373 10.5967 9.98651 11.0792C10.4357 11.5617 11.0569 11.8478 11.7155 11.8756H12.8533V22.5422C12.8533 22.712 12.9207 22.8748 13.0408 22.9948C13.1608 23.1148 13.3236 23.1822 13.4933 23.1822C13.663 23.1822 13.8258 23.1148 13.9459 22.9948C14.0659 22.8748 14.1333 22.712 14.1333 22.5422V11.8756H17.9733V22.5422C17.9733 22.712 18.0407 22.8748 18.1608 22.9948C18.2808 23.1148 18.4436 23.1822 18.6133 23.1822C18.783 23.1822 18.9458 23.1148 19.0659 22.9948C19.1859 22.8748 19.2533 22.712 19.2533 22.5422V11.8756H20.3733C20.7002 11.8641 21.0217 11.7883 21.3193 11.6525C21.6169 11.5167 21.8848 11.3236 22.1077 11.0842C22.3306 10.8448 22.5041 10.5638 22.6183 10.2572C22.7325 9.95072 22.7852 9.62469 22.7733 9.29779C22.7925 8.64061 22.5509 8.00252 22.1012 7.52288C21.6515 7.04323 21.0304 6.76099 20.3733 6.73779ZM12.8533 10.6667H11.6444C11.3049 10.6394 10.9892 10.4815 10.7637 10.2262C10.5383 9.97088 10.4206 9.63808 10.4355 9.29779C10.4206 8.95751 10.5383 8.62471 10.7637 8.36941C10.9892 8.1141 11.3049 7.95619 11.6444 7.9289C11.9839 7.95619 12.2996 8.1141 12.5251 8.36941C12.7506 8.62471 12.8682 8.95751 12.8533 9.29779V10.6667ZM20.4622 10.6667H19.2533V9.22668C19.2326 9.05683 19.2482 8.88453 19.299 8.72115C19.3499 8.55777 19.4348 8.40705 19.5482 8.27894C19.6617 8.15084 19.801 8.04827 19.957 7.97803C20.113 7.90779 20.2822 7.87146 20.4533 7.87146C20.6244 7.87146 20.7936 7.90779 20.9496 7.97803C21.1056 8.04827 21.2449 8.15084 21.3584 8.27894C21.4718 8.40705 21.5568 8.55777 21.6076 8.72115C21.6584 8.88453 21.674 9.05683 21.6533 9.22668C21.6729 9.40002 21.6574 9.57553 21.6076 9.74274C21.5579 9.90994 21.475 10.0654 21.3638 10.1998C21.2526 10.3342 21.1154 10.4449 20.9605 10.5251C20.8056 10.6053 20.6361 10.6535 20.4622 10.6667Z" fill="url(#paint1_linear_868_7281)"/>
<path d="M12.3734 28.0887L19.6267 26.6843V25.8843L12.3734 27.3065V28.0887Z" fill="#999999"/>
<path d="M19.6267 28.6401V27.8579L12.3734 29.2979V29.369L12.9245 29.9735L19.6267 28.6401Z" fill="#999999"/>
<defs>
<radialGradient id="paint0_radial_868_7281" cx="0" cy="0" r="1" gradientUnits="userSpaceOnUse" gradientTransform="translate(16 13.0665) scale(11.4133 11.4133)">
<stop stop-color="#B77AF4"/>
<stop offset="0.21" stop-color="#B378F2"/>
<stop offset="0.43" stop-color="#A672ED"/>
<stop offset="0.65" stop-color="#9267E4"/>
<stop offset="0.88" stop-color="#7559D8"/>
<stop offset="1" stop-color="#624FD0"/>
</radialGradient>
<linearGradient id="paint1_linear_868_7281" x1="16.0355" y1="6.95113" x2="16.1422" y2="20.4267" gradientUnits="userSpaceOnUse">
<stop stop-color="#F2F2F2"/>
<stop offset="0.23" stop-color="#F1F1F2" stop-opacity="0.99"/>
<stop offset="0.37" stop-color="#EDEDF1" stop-opacity="0.95"/>
<stop offset="0.48" stop-color="#E7E5F0" stop-opacity="0.89"/>
<stop offset="0.58" stop-color="#DEDBEE" stop-opacity="0.81"/>
<stop offset="0.67" stop-color="#D3CEEB" stop-opacity="0.7"/>
<stop offset="0.76" stop-color="#C4BEE8" stop-opacity="0.57"/>
<stop offset="0.84" stop-color="#B4ABE5" stop-opacity="0.41"/>
<stop offset="0.92" stop-color="#A095E1" stop-opacity="0.22"/>
<stop offset="0.99" stop-color="#8B7DDC" stop-opacity="0.02"/>
<stop offset="1" stop-color="#897BDC" stop-opacity="0"/>
</linearGradient>
</defs>
</svg>
