<svg width="32" height="32" viewBox="0 0 32 32" fill="none" xmlns="http://www.w3.org/2000/svg">
<path d="M4.60442 29.4222L2.71997 27.7511L11.9289 17.4399L19.7689 25.5111L27.1644 17.6711L28.9955 19.3955L19.7866 29.1555L12.0177 21.1199L4.60442 29.4222Z" fill="#76BC2D"/>
<path d="M11.968 22.3237C13.6371 22.3237 14.9902 20.9706 14.9902 19.3015C14.9902 17.6324 13.6371 16.2793 11.968 16.2793C10.2989 16.2793 8.9458 17.6324 8.9458 19.3015C8.9458 20.9706 10.2989 22.3237 11.968 22.3237Z" fill="url(#paint0_linear_868_7278)"/>
<path d="M19.7725 30.1084C21.4416 30.1084 22.7947 28.7553 22.7947 27.0862C22.7947 25.4171 21.4416 24.064 19.7725 24.064C18.1033 24.064 16.7502 25.4171 16.7502 27.0862C16.7502 28.7553 18.1033 30.1084 19.7725 30.1084Z" fill="url(#paint1_linear_868_7278)"/>
<path d="M28.0871 21.2925C29.7562 21.2925 31.1093 19.9394 31.1093 18.2703C31.1093 16.6011 29.7562 15.248 28.0871 15.248C26.418 15.248 25.0649 16.6011 25.0649 18.2703C25.0649 19.9394 26.418 21.2925 28.0871 21.2925Z" fill="url(#paint2_linear_868_7278)"/>
<path d="M3.91645 31.1113C5.58558 31.1113 6.93867 29.7582 6.93867 28.0891C6.93867 26.42 5.58558 25.0669 3.91645 25.0669C2.24732 25.0669 0.894226 26.42 0.894226 28.0891C0.894226 29.7582 2.24732 31.1113 3.91645 31.1113Z" fill="url(#paint3_linear_868_7278)"/>
<path fill-rule="evenodd" clip-rule="evenodd" d="M25.2089 14.7697L19.5556 20.496L13.8507 14.7697C13.106 14.0452 12.5113 13.1811 12.1006 12.2268C11.6899 11.2724 11.4712 10.2465 11.457 9.20763C11.4428 8.16875 11.6334 7.13726 12.0179 6.17204C12.4024 5.20682 12.9732 4.32678 13.6978 3.58219C13.7476 3.53063 13.7991 3.48085 13.8507 3.43108C14.5809 2.68501 15.451 2.09015 16.4112 1.68046C17.3714 1.27077 18.4029 1.0543 19.4468 1.0434C20.4907 1.03251 21.5265 1.2274 22.4951 1.61696C23.4636 2.00651 24.3459 2.58309 25.0916 3.31374L25.2089 3.43108C25.9534 4.16272 26.5466 5.03385 26.9545 5.99474C27.3623 6.95563 27.5769 7.98744 27.586 9.03127C27.5951 10.0751 27.3985 11.1105 27.0074 12.0783C26.6163 13.0462 26.0384 13.9275 25.3067 14.672L25.2089 14.7697Z" fill="#0078D4"/>
<path d="M14.6844 7.52511C14.4974 8.18973 14.4468 8.88533 14.5357 9.57001C14.6246 10.2547 14.8512 10.9143 15.2018 11.5091C15.4533 11.93 15.766 12.311 16.1298 12.6398C16.4781 12.9703 16.8705 13.2509 17.296 13.4736C17.7265 13.6821 18.1808 13.8373 18.6489 13.9358C19.1337 14.0105 19.6271 14.0105 20.112 13.9358L19.984 12.5473C19.9753 12.4782 19.9426 12.4143 19.8916 12.3669C19.8406 12.3194 19.7745 12.2914 19.7049 12.2878C19.4585 12.3144 19.2099 12.3144 18.9635 12.2878C18.65 12.2188 18.3457 12.1132 18.0569 11.9731C17.7659 11.8262 17.4972 11.6389 17.2587 11.4167C17.0099 11.1912 16.7976 10.9285 16.6293 10.638C16.3912 10.2552 16.2395 9.82505 16.1849 9.37756C16.1031 8.93688 16.1031 8.48491 16.1849 8.04422L16.6667 8.84067C16.7205 8.88792 16.7897 8.91398 16.8613 8.91398C16.933 8.91398 17.0021 8.88792 17.056 8.84067L17.7049 8.67356C17.766 8.63187 17.8094 8.56883 17.8265 8.49681C17.8436 8.42478 17.8332 8.34896 17.7973 8.28422L16.1973 5.67267C16.1712 5.60381 16.1201 5.5473 16.0542 5.51437C15.9884 5.48143 15.9125 5.47448 15.8418 5.49489L13.1378 7.09489C13.0905 7.14873 13.0645 7.21792 13.0645 7.28956C13.0645 7.36119 13.0905 7.43038 13.1378 7.48422L13.4702 8.05845C13.5091 8.12264 13.5709 8.1697 13.6432 8.19016C13.7154 8.21061 13.7927 8.20293 13.8595 8.16867L14.6844 7.52511Z" fill="white"/>
<path d="M20.2987 5.54329C20.6154 5.60054 20.9213 5.7067 21.2053 5.85796C21.7987 6.14671 22.2935 6.6044 22.6276 7.17351C22.862 7.5645 23.0133 7.99964 23.072 8.45174C23.1556 8.89883 23.1556 9.35753 23.072 9.80463L22.6098 9.00818C22.5723 8.9429 22.5114 8.89428 22.4395 8.87217C22.3675 8.85005 22.2899 8.8561 22.2222 8.88907L21.648 9.24463C21.5823 9.27842 21.5327 9.33689 21.51 9.4072C21.4874 9.47751 21.4935 9.55394 21.5271 9.61974V9.63396L23.1396 12.322C23.1737 12.3869 23.2319 12.4358 23.3018 12.458C23.3717 12.4803 23.4475 12.4742 23.5129 12.4411H23.5289L26.2151 10.8286C26.2662 10.7767 26.2949 10.7068 26.2949 10.634C26.2949 10.5611 26.2662 10.4912 26.2151 10.4393L25.8809 9.86507C25.8267 9.81851 25.7576 9.79291 25.6862 9.79291C25.6148 9.79291 25.5457 9.81851 25.4916 9.86507L24.5653 10.4215C24.7538 9.75787 24.8034 9.06252 24.7111 8.37885C24.6343 7.68616 24.4067 7.01868 24.0444 6.42329C23.8005 5.99739 23.4943 5.6103 23.136 5.27485C22.7763 4.95454 22.3779 4.68042 21.9502 4.45885C21.5243 4.23936 21.0685 4.08362 20.5973 3.99663C20.2229 3.89218 19.8374 3.8325 19.4489 3.81885C19.3734 3.8278 19.3043 3.86551 19.256 3.92412C19.2076 3.98273 19.1838 4.05774 19.1893 4.13351V5.22685C19.1983 5.29585 19.2311 5.35955 19.2821 5.40694C19.3331 5.45432 19.399 5.48243 19.4684 5.4864C19.7465 5.46915 20.0256 5.48827 20.2987 5.54329Z" fill="white"/>
<defs>
<linearGradient id="paint0_linear_868_7278" x1="11.6165" y1="22.2548" x2="12.1847" y2="16.2345" gradientUnits="userSpaceOnUse">
<stop stop-color="#5E9624"/>
<stop offset="0.82" stop-color="#86D633"/>
</linearGradient>
<linearGradient id="paint1_linear_868_7278" x1="19.752" y1="30.112" x2="19.8185" y2="24.0676" gradientUnits="userSpaceOnUse">
<stop stop-color="#5E9624"/>
<stop offset="0.82" stop-color="#86D633"/>
</linearGradient>
<linearGradient id="paint2_linear_868_7278" x1="27.7458" y1="21.3555" x2="28.2958" y2="15.3292" gradientUnits="userSpaceOnUse">
<stop stop-color="#5E9624"/>
<stop offset="0.82" stop-color="#86D633"/>
</linearGradient>
<linearGradient id="paint3_linear_868_7278" x1="3.57531" y1="31.2658" x2="4.12535" y2="25.2395" gradientUnits="userSpaceOnUse">
<stop stop-color="#5E9624"/>
<stop offset="0.82" stop-color="#86D633"/>
</linearGradient>
</defs>
</svg>
