<svg width="32" height="32" viewBox="0 0 32 32" fill="none" xmlns="http://www.w3.org/2000/svg">
<g clip-path="url(#clip0_868_7276)">
<path d="M29.8667 13.4953C29.8224 12.019 29.2545 10.6065 28.2644 9.51056C27.2742 8.41458 25.9265 7.70655 24.4623 7.5131C24.3762 5.44724 23.4778 3.49894 21.9627 2.09199C20.4476 0.685046 18.4381 -0.0667248 16.3716 0.000209178C14.703 -0.0297895 13.0663 0.45945 11.6879 1.40026C10.3095 2.34107 9.25746 3.68696 8.67736 5.25176C6.91158 5.46285 5.28009 6.30032 4.07928 7.61204C2.87848 8.92376 2.18803 10.6227 2.13336 12.4002C2.20976 14.3954 3.07425 16.2788 4.53728 17.6375C6.0003 18.9963 7.94244 19.7193 9.93781 19.6482C10.1689 19.6482 10.3983 19.6375 10.624 19.6198H23.264C23.3743 19.6169 23.4837 19.5996 23.5894 19.5682C25.2177 19.5633 26.7808 18.9282 27.9511 17.796C29.1214 16.6638 29.8079 15.1226 29.8667 13.4953Z" fill="url(#paint0_linear_868_7276)"/>
<path d="M24.9226 31.9999H3.19998C2.50131 31.9999 2.09598 30.8959 2.4782 30.311L9.95553 18.0994C10.0686 17.958 10.1272 17.7808 10.1209 17.5999V11.7012C10.1161 11.5891 10.0694 11.4829 9.99006 11.4036C9.91073 11.3242 9.80451 11.2776 9.69242 11.2728H9.28709C9.17464 11.2728 9.0633 11.2506 8.95944 11.2075C8.85558 11.1644 8.76123 11.1013 8.68181 11.0217C8.60238 10.9421 8.53943 10.8476 8.49656 10.7437C8.45369 10.6397 8.43174 10.5283 8.43198 10.4159V10.0336C8.43174 9.9212 8.45369 9.80982 8.49656 9.70586C8.53943 9.60191 8.60238 9.50743 8.68181 9.42784C8.76123 9.34825 8.85558 9.2851 8.95944 9.24202C9.0633 9.19893 9.17464 9.17676 9.28709 9.17676H18.8178C18.9302 9.17676 19.0415 9.19893 19.1454 9.24202C19.2493 9.2851 19.3436 9.34825 19.423 9.42784C19.5025 9.50743 19.5654 9.60191 19.6083 9.70586C19.6512 9.80982 19.6731 9.9212 19.6729 10.0336V10.4159C19.6731 10.5283 19.6512 10.6397 19.6083 10.7437C19.5654 10.8476 19.5025 10.9421 19.423 11.0217C19.3436 11.1013 19.2493 11.1644 19.1454 11.2075C19.0415 11.2506 18.9302 11.2728 18.8178 11.2728H18.4124C18.2988 11.2728 18.1898 11.3179 18.1095 11.3982C18.0291 11.4786 17.984 11.5876 17.984 11.7012V17.6265C17.9803 17.8048 18.036 17.9793 18.1422 18.1225L25.6213 30.311C26.0053 30.8728 25.6 31.9999 24.9226 31.9999Z" fill="url(#paint1_linear_868_7276)"/>
<path d="M4.70403 29.8291L11.0631 19.2354C11.3602 18.8591 11.5362 18.4017 11.568 17.9234V15.4949C11.5671 15.3983 11.5853 15.3024 11.6216 15.2129C11.6578 15.1233 11.7115 15.0418 11.7794 14.973C11.8473 14.9043 11.9282 14.8497 12.0173 14.8123C12.1064 14.775 12.2021 14.7556 12.2987 14.7554H15.9325C16.0287 14.7554 16.1239 14.7743 16.2128 14.8111C16.3016 14.8479 16.3824 14.9019 16.4504 14.9699C16.5184 15.0379 16.5724 15.1187 16.6092 15.2075C16.646 15.2964 16.6649 15.3916 16.6649 15.4878V18.1687C16.6634 18.4865 16.7603 18.797 16.9422 19.0576L23.4525 29.8274C23.5059 29.9125 23.5363 30.0101 23.5407 30.1105C23.5452 30.2109 23.5235 30.3108 23.4779 30.4004C23.4322 30.4899 23.3641 30.5661 23.2802 30.6215C23.1963 30.6768 23.0994 30.7095 22.9991 30.7163H5.33336C5.216 30.7694 5.08381 30.78 4.95949 30.7462C4.83517 30.7125 4.72646 30.6366 4.65202 30.5314C4.57759 30.4263 4.54207 30.2985 4.55156 30.1701C4.56105 30.0416 4.61495 29.9222 4.70403 29.8291Z" fill="#005BA1"/>
<path d="M18.4551 26.1193C18.2469 25.7723 17.9521 25.4853 17.5997 25.2865C17.2472 25.0876 16.8491 24.9838 16.4444 24.9851C16.4195 24.9851 16.4053 25.0064 16.3822 25.0118C16.3759 24.7274 16.3156 24.4469 16.2044 24.1851C16.4856 24.1193 16.7504 23.9972 16.983 23.8261C17.2155 23.6549 17.4109 23.4384 17.5573 23.1895C17.579 23.1521 17.5932 23.1107 17.5989 23.0678C17.6046 23.0248 17.6018 22.9812 17.5907 22.9394C17.5795 22.8975 17.5602 22.8583 17.5339 22.8239C17.5076 22.7895 17.4748 22.7606 17.4373 22.7389C17.3999 22.7172 17.3585 22.703 17.3155 22.6973C17.2726 22.6916 17.229 22.6944 17.1871 22.7055C17.1453 22.7167 17.106 22.736 17.0717 22.7623C17.0373 22.7886 17.0084 22.8214 16.9867 22.8589C16.8635 23.0685 16.6902 23.2442 16.4822 23.3702C16.2743 23.4962 16.0384 23.5685 15.7955 23.5807C15.5811 23.3376 15.3159 23.1446 15.0187 23.0153C15.1509 22.923 15.2592 22.8005 15.3346 22.658C15.41 22.5154 15.4504 22.357 15.4524 22.1958C15.4531 22.0594 15.4269 21.9243 15.3752 21.7982C15.3235 21.672 15.2474 21.5573 15.1513 21.4607C15.0551 21.364 14.9408 21.2874 14.815 21.235C14.6891 21.1827 14.5541 21.1558 14.4178 21.1558H13.8293C13.5551 21.1562 13.2922 21.2654 13.0982 21.4593C12.9043 21.6533 12.7951 21.9162 12.7947 22.1904C12.7967 22.3517 12.8371 22.5101 12.9125 22.6526C12.9879 22.7952 13.0962 22.9177 13.2284 23.01C12.8974 23.1585 12.608 23.3862 12.3858 23.6731C12.1424 23.6622 11.9057 23.5904 11.6973 23.4643C11.4889 23.3382 11.3155 23.1618 11.1929 22.9513C11.1493 22.8752 11.0772 22.8195 10.9925 22.7965C10.9078 22.7735 10.8175 22.785 10.7413 22.8287C10.6652 22.8723 10.6095 22.9443 10.5865 23.029C10.5635 23.1137 10.575 23.2041 10.6187 23.2802C10.7679 23.5352 10.9688 23.7561 11.2086 23.9288C11.4483 24.1015 11.7215 24.2221 12.0107 24.2829C11.9092 24.5351 11.855 24.8039 11.8507 25.0758V25.1078C11.8364 25.1078 11.8258 25.09 11.8098 25.09C11.4051 25.0887 11.007 25.1925 10.6545 25.3914C10.3021 25.5902 10.0073 25.8772 9.7991 26.2242C9.77644 26.2612 9.76131 26.3023 9.75459 26.3451C9.74787 26.3879 9.74968 26.4317 9.75992 26.4738C9.77016 26.5159 9.78864 26.5556 9.81428 26.5906C9.83992 26.6256 9.87222 26.6551 9.90933 26.6775C9.96307 26.7095 10.0246 26.7261 10.0871 26.7255C10.1438 26.7255 10.1995 26.7107 10.2487 26.6827C10.2979 26.6546 10.339 26.6143 10.368 26.5655C10.5182 26.3161 10.7304 26.1098 10.984 25.9668C11.2376 25.8238 11.524 25.749 11.8151 25.7495C11.8311 25.7495 11.8418 25.7353 11.856 25.7335V26.5229C11.8687 26.718 11.9076 26.9105 11.9715 27.0953C11.6282 27.2021 11.3143 27.387 11.0545 27.6357C10.7948 27.8843 10.5963 28.1898 10.4747 28.5282C10.4592 28.5688 10.452 28.6121 10.4533 28.6555C10.4546 28.699 10.4644 28.7417 10.4822 28.7813C10.5001 28.821 10.5255 28.8567 10.5572 28.8865C10.5888 28.9162 10.626 28.9395 10.6667 28.9549C10.7022 28.9666 10.7394 28.9726 10.7769 28.9727C10.8449 28.9727 10.9113 28.9516 10.967 28.9125C11.0227 28.8734 11.0649 28.818 11.088 28.754C11.1787 28.4997 11.3298 28.2712 11.5283 28.0882C11.7268 27.9052 11.9667 27.7731 12.2275 27.7033C12.4213 28.0249 12.694 28.2917 13.0197 28.4783C13.3455 28.665 13.7135 28.7654 14.0889 28.77H14.1529C14.5513 28.7659 14.9413 28.6545 15.2817 28.4473C15.6221 28.2402 15.9004 27.9451 16.0871 27.5931C16.3478 27.6632 16.5876 27.7953 16.7861 27.9783C16.9845 28.1613 17.1357 28.3896 17.2267 28.6438C17.2497 28.7078 17.292 28.7632 17.3476 28.8023C17.4033 28.8414 17.4697 28.8624 17.5378 28.8624C17.5752 28.8623 17.6124 28.8563 17.648 28.8447C17.689 28.8301 17.7267 28.8076 17.7591 28.7785C17.7914 28.7493 17.8176 28.7141 17.8363 28.6748C17.8549 28.6355 17.8656 28.5929 17.8678 28.5494C17.87 28.506 17.8635 28.4625 17.8489 28.4215C17.7238 28.0752 17.5184 27.7635 17.2496 27.512C16.9807 27.2604 16.6561 27.0762 16.3022 26.9744C16.3487 26.8295 16.3792 26.6798 16.3929 26.5282V25.6251C16.4107 25.6251 16.4213 25.6447 16.4409 25.6447C16.732 25.6441 17.0184 25.7189 17.272 25.862C17.5256 26.005 17.7378 26.2112 17.888 26.4607C17.9169 26.5094 17.9581 26.5497 18.0073 26.5778C18.0565 26.6058 18.1122 26.6206 18.1689 26.6207C18.2314 26.6212 18.2929 26.6046 18.3467 26.5727C18.4209 26.5267 18.474 26.4533 18.4943 26.3683C18.5147 26.2834 18.5006 26.1939 18.4551 26.1193Z" fill="#C3F1FF"/>
</g>
<defs>
<linearGradient id="paint0_linear_868_7276" x1="16" y1="19.6535" x2="16" y2="0.000210155" gradientUnits="userSpaceOnUse">
<stop stop-color="#0078D4"/>
<stop offset="1" stop-color="#5EA0EF"/>
</linearGradient>
<linearGradient id="paint1_linear_868_7276" x1="14.0533" y1="31.9999" x2="14.0533" y2="9.17676" gradientUnits="userSpaceOnUse">
<stop stop-color="#50E6FF"/>
<stop offset="1" stop-color="#9CEBFF"/>
</linearGradient>
<clipPath id="clip0_868_7276">
<rect width="32" height="32" fill="white"/>
</clipPath>
</defs>
</svg>
