<svg width="32" height="32" viewBox="0 0 32 32" fill="none" xmlns="http://www.w3.org/2000/svg">
<path d="M31.7333 17.2622C30.7644 20.7804 28.4124 21.9448 25.8791 23.0204C25.4855 23.1703 25.0664 23.2422 24.6453 23.232H13.7138C11.6533 23.232 8.51732 23.1982 7.05243 23.1822C6.51329 23.1865 5.98061 23.0647 5.49688 22.8266C4.07987 22.1973 2.85214 21.2082 1.93558 19.9576C1.01901 18.707 0.445503 17.2385 0.27199 15.6977C0.126212 14.4 -0.188455 9.10751 7.53599 7.07018C8.26742 5.29564 9.52051 3.78507 11.1294 2.73841C12.7383 1.69175 14.6271 1.15836 16.5458 1.20885C18.8376 1.19393 21.0482 2.05694 22.7237 3.62071C24.3992 5.18447 25.4125 7.33033 25.5555 9.61773C28.1298 10.1333 32.2489 12.6755 31.7333 17.2622Z" fill="url(#paint0_linear_868_7274)"/>
<path d="M29.8026 21.0949C29.8026 23.0126 29.234 24.8872 28.1686 26.4817C27.1032 28.0762 25.5889 29.319 23.8171 30.0529C22.0454 30.7867 20.0959 30.9787 18.2151 30.6046C16.3342 30.2305 14.6066 29.307 13.2505 27.951C11.8945 26.595 10.9711 24.8674 10.597 22.9865C10.2228 21.1057 10.4148 19.1561 11.1487 17.3844C11.8826 15.6127 13.1253 14.0984 14.7198 13.033C16.3143 11.9676 18.189 11.3989 20.1066 11.3989C22.6782 11.3989 25.1444 12.4205 26.9628 14.2388C28.7811 16.0572 29.8026 18.5234 29.8026 21.0949Z" fill="white"/>
<path fill-rule="evenodd" clip-rule="evenodd" d="M20.1067 29.5109C21.7719 29.5109 23.3997 29.0171 24.7843 28.0919C26.1689 27.1668 27.2481 25.8518 27.8853 24.3134C28.5226 22.7749 28.6893 21.082 28.3644 19.4488C28.0396 17.8155 27.2377 16.3153 26.0602 15.1378C24.8827 13.9603 23.3825 13.1584 21.7492 12.8336C20.116 12.5087 18.4231 12.6754 16.8846 13.3127C15.3462 13.9499 14.0312 15.0291 13.1061 16.4137C12.1809 17.7983 11.6871 19.4261 11.6871 21.0913C11.6871 23.3243 12.5742 25.4659 14.1531 27.0449C15.7321 28.6238 17.8737 29.5109 20.1067 29.5109ZM20.1067 30.7856C22.0245 30.7859 23.8994 30.2175 25.4941 29.1522C27.0889 28.087 28.332 26.5727 29.066 24.8009C29.8001 23.0291 29.9923 21.0794 29.6182 19.1984C29.2442 17.3174 28.3207 15.5896 26.9646 14.2335C25.6084 12.8773 23.8806 11.9538 21.9996 11.5798C20.1186 11.2057 18.1689 11.3979 16.3971 12.132C14.6253 12.8661 13.1111 14.1091 12.0458 15.7039C10.9805 17.2986 10.4121 19.1735 10.4124 21.0913C10.4124 23.6624 11.4338 26.1282 13.2518 27.9462C15.0698 29.7642 17.5356 30.7856 20.1067 30.7856Z" fill="url(#paint1_linear_868_7274)"/>
<path d="M23.7013 19.3779C23.1702 19.3794 22.6615 19.5916 22.2868 19.9679C21.9121 20.3443 21.7021 20.854 21.7031 21.3851C21.7016 22.0832 21.5281 22.7702 21.198 23.3854C20.8679 24.0005 20.3912 24.5248 19.8102 24.9119C19.2293 25.2991 18.5618 25.5371 17.867 25.6049C17.1722 25.6727 16.4713 25.5683 15.8264 25.3008C15.1816 25.0334 14.6125 24.6111 14.1697 24.0714C13.7268 23.5317 13.4237 22.8912 13.2873 22.2066C13.1508 21.5219 13.1852 20.8141 13.3873 20.1459C13.5895 19.4777 13.9531 18.8695 14.4462 18.3753C15.1162 17.6961 15.9968 17.2643 16.944 17.1504V18.1637C16.3271 18.2586 15.7504 18.5285 15.2823 18.9413C14.8141 19.3541 14.4743 19.8926 14.303 20.4928C14.1317 21.093 14.1362 21.7297 14.3159 22.3274C14.4957 22.9251 14.8431 23.4587 15.317 23.8649C15.7908 24.2711 16.3713 24.5328 16.9895 24.619C17.6076 24.7052 18.2375 24.6122 18.8045 24.3512C19.3714 24.0901 19.8515 23.6719 20.1879 23.1462C20.5243 22.6204 20.7028 22.0092 20.7022 21.3851C20.7027 20.6117 21.002 19.8685 21.5374 19.3105C22.0729 18.7525 22.8032 18.423 23.5759 18.3906C24.3485 18.3583 25.1038 18.6256 25.6841 19.1369C26.2643 19.6482 26.6246 20.3638 26.6898 21.1344H25.6853C25.6251 20.6503 25.3904 20.2047 25.0251 19.8814C24.6599 19.558 24.1892 19.379 23.7013 19.3779Z" fill="#417BE9"/>
<path fill-rule="evenodd" clip-rule="evenodd" d="M21.2907 23.2197C20.97 23.8836 20.4821 24.4528 19.8749 24.8712C19.2677 25.2895 18.5621 25.5428 17.8275 25.606C17.0928 25.6692 16.3544 25.5402 15.6847 25.2317C15.0149 24.9232 14.437 24.4458 14.0076 23.8464C13.5782 23.247 13.3121 22.5462 13.2354 21.8128C13.1588 21.0794 13.2742 20.3387 13.5704 19.6635C13.8666 18.9882 14.3334 18.4016 14.9248 17.9613C15.5163 17.521 16.2121 17.2422 16.944 17.1521V18.1655C16.3271 18.2604 15.7504 18.5302 15.2823 18.943C14.8142 19.3559 14.4743 19.8943 14.303 20.4945C14.1317 21.0947 14.1362 21.7314 14.3159 22.3291C14.4957 22.9268 14.8431 23.4604 15.317 23.8666C15.7908 24.2728 16.3713 24.5345 16.9895 24.6207C17.6076 24.7069 18.2375 24.614 18.8045 24.3529C19.3714 24.0918 19.8515 23.6736 20.1879 23.1479C20.5243 22.6221 20.7028 22.0109 20.7022 21.3868C20.7023 20.7351 20.9131 20.1009 21.3031 19.5788C21.6605 19.1045 22.1508 18.7471 22.7116 18.5519C23.2725 18.3567 23.8787 18.3326 24.4533 18.4825C25.028 18.6324 25.5451 18.9496 25.9392 19.3939C26.3332 19.8381 26.5864 20.3895 26.6667 20.9779C26.6667 21.033 26.6791 21.0881 26.6844 21.1432H25.68C25.6193 20.6364 25.3669 20.172 24.9746 19.8453C24.5823 19.5187 24.0799 19.3545 23.5704 19.3866C23.0609 19.4187 22.5831 19.6445 22.2348 20.0178C21.8866 20.391 21.6944 20.8834 21.6978 21.3939C21.6982 22.0279 21.5573 22.6541 21.2853 23.2268L21.2907 23.2197ZM17.0542 17.0277C17.0711 17.0438 17.0847 17.0631 17.0941 17.0844C17.1036 17.1058 17.1088 17.1288 17.1093 17.1521V18.1655C17.1093 18.2045 17.0954 18.2423 17.0699 18.272C17.0445 18.3017 17.0093 18.3213 16.9706 18.3272C16.2042 18.4529 15.5128 18.8619 15.0336 19.4731C14.5543 20.0844 14.3221 20.8533 14.3829 21.6277C14.4437 22.402 14.7932 23.1253 15.362 23.6542C15.9308 24.1832 16.6775 24.4792 17.4542 24.4837C17.9557 24.4863 18.4499 24.3641 18.8924 24.1281C19.39 23.8643 19.8062 23.4698 20.0963 22.9871C20.3863 22.5044 20.5393 21.9517 20.5387 21.3886C20.5373 20.5718 20.8519 19.7861 21.4167 19.1961C21.9815 18.6061 22.7527 18.2575 23.5688 18.2233C24.3848 18.189 25.1825 18.4718 25.7947 19.0125C26.407 19.5531 26.7863 20.3097 26.8533 21.1237C26.8555 21.1452 26.8534 21.167 26.847 21.1877C26.8406 21.2084 26.8302 21.2276 26.8162 21.2441C26.8023 21.2607 26.7852 21.2743 26.7659 21.2842C26.7466 21.294 26.7256 21.2999 26.704 21.3015H25.6853C25.6451 21.3017 25.6062 21.2872 25.5761 21.2607C25.5459 21.2341 25.5266 21.1974 25.5218 21.1575C25.4637 20.694 25.2311 20.2701 24.8713 19.9722C24.5115 19.6744 24.0517 19.5249 23.5855 19.5544C23.1194 19.5839 22.682 19.7901 22.3626 20.1309C22.0432 20.4717 21.8659 20.9215 21.8667 21.3886C21.8646 22.1134 21.6841 22.8265 21.341 23.4649C20.9979 24.1034 20.5028 24.6475 19.8995 25.0491C19.2962 25.4508 18.6032 25.6977 17.8818 25.7679C17.1605 25.8382 16.4329 25.7296 15.7634 25.4519C15.0939 25.1741 14.5032 24.7358 14.0434 24.1755C13.5836 23.6152 13.2689 22.9503 13.1271 22.2395C12.9852 21.5287 13.0207 20.794 13.2303 20.1002C13.4399 19.4063 13.8172 18.7748 14.3289 18.2615C15.0262 17.5575 15.9408 17.1096 16.9244 16.9903C16.9477 16.9877 16.9713 16.9899 16.9937 16.997C17.016 17.004 17.0367 17.0157 17.0542 17.0312V17.0277Z" fill="#417BE9"/>
<path d="M23.6747 24.48C23.1933 24.4801 22.7192 24.363 22.2933 24.1387L22.8036 23.2214C23.0746 23.3546 23.3726 23.424 23.6747 23.424C24.1332 23.419 24.5767 23.2604 24.9345 22.9736C25.2922 22.6867 25.5434 22.2882 25.648 21.8418H26.6898C26.5822 22.5679 26.2198 23.232 25.6674 23.7154C25.115 24.1988 24.4086 24.4698 23.6747 24.48Z" fill="#1453C8"/>
<path fill-rule="evenodd" clip-rule="evenodd" d="M22.1351 24.1779C22.1289 24.157 22.127 24.135 22.1294 24.1133C22.1319 24.0917 22.1386 24.0707 22.1493 24.0517L22.6595 23.1361C22.6799 23.099 22.7138 23.071 22.7541 23.0581C22.7945 23.0452 22.8383 23.0483 22.8764 23.0668C23.1253 23.1895 23.399 23.2534 23.6764 23.2534C24.098 23.2475 24.5054 23.1008 24.834 22.8367C25.1626 22.5725 25.3934 22.2061 25.4898 21.7957C25.4982 21.7596 25.5186 21.7275 25.5477 21.7046C25.5768 21.6817 25.6127 21.6693 25.6498 21.6694H26.6898C26.7336 21.6694 26.7757 21.6869 26.8067 21.7179C26.8377 21.7489 26.8551 21.7909 26.8551 21.8348C26.856 21.8436 26.856 21.8526 26.8551 21.8614C26.7416 22.6257 26.3598 23.3246 25.778 23.8331C25.1963 24.3415 24.4525 24.6264 23.68 24.6365C23.1717 24.639 22.6706 24.517 22.2204 24.281C22.1796 24.259 22.149 24.2221 22.1351 24.1779ZM26.6666 22.0072C26.5276 22.6983 26.1558 23.3207 25.6132 23.7708C25.0706 24.2208 24.3902 24.4712 23.6853 24.4801C23.2034 24.48 22.7288 24.3628 22.3022 24.1388L22.8124 23.2214C23.0841 23.3549 23.3827 23.4242 23.6853 23.4241C24.1436 23.4185 24.5869 23.2596 24.9445 22.9729C25.3021 22.6862 25.5535 22.288 25.6586 21.8419H26.6986C26.6832 21.8976 26.6726 21.9527 26.6666 22.0072Z" fill="#1453C8"/>
<path d="M20.0889 19.4967C19.9074 19.2566 19.6946 19.042 19.456 18.8585C18.9197 18.4477 18.274 18.2047 17.6 18.1599V17.1519C18.3258 17.1902 19.0315 17.4037 19.6569 17.7741C20.1017 18.0384 20.4965 18.379 20.8231 18.7803L20.0889 19.4967Z" fill="#88AEF1"/>
<path fill-rule="evenodd" clip-rule="evenodd" d="M20.0693 19.6606C20.0464 19.6588 20.024 19.6522 20.0038 19.6411C19.9836 19.6301 19.9659 19.6149 19.952 19.5966C19.7801 19.3676 19.5773 19.1635 19.3493 18.9904C18.8421 18.5994 18.2301 18.368 17.5911 18.3255C17.5496 18.3219 17.5109 18.303 17.4826 18.2724C17.4543 18.2419 17.4385 18.2018 17.4382 18.1601V17.1521C17.4382 17.1089 17.4551 17.0674 17.4854 17.0365C17.5156 17.0056 17.5567 16.9877 17.6 16.9868H17.6106C18.3636 17.0269 19.0956 17.2489 19.744 17.6339C20.2059 17.9076 20.6158 18.2609 20.9546 18.6775C20.9812 18.7093 20.9945 18.7501 20.9919 18.7914C20.9892 18.8328 20.9708 18.8715 20.9404 18.8997L20.1973 19.6108C20.1803 19.6268 20.1601 19.6389 20.138 19.6466C20.116 19.6542 20.0926 19.6572 20.0693 19.6553V19.6606ZM19.9804 19.3673C20.016 19.4099 20.0498 19.4526 20.0835 19.497L20.8266 18.7859C20.4334 18.3026 19.9429 17.9074 19.387 17.626C18.8311 17.3445 18.2223 17.1831 17.6 17.1521V18.1601C18.0571 18.1907 18.5033 18.3134 18.9118 18.5208C19.3202 18.7283 19.6825 19.0162 19.9769 19.3673H19.9804Z" fill="#88AEF1"/>
<defs>
<linearGradient id="paint0_linear_868_7274" x1="16.1369" y1="22.3448" x2="15.7049" y2="1.19107" gradientUnits="userSpaceOnUse">
<stop stop-color="#2889E0"/>
<stop offset="1" stop-color="#50E6FF"/>
</linearGradient>
<linearGradient id="paint1_linear_868_7274" x1="24.8818" y1="29.4682" x2="15.0347" y2="12.1989" gradientUnits="userSpaceOnUse">
<stop stop-color="#704CB3"/>
<stop offset="1" stop-color="#C398E9"/>
</linearGradient>
</defs>
</svg>
