<svg width="32" height="32" viewBox="0 0 32 32" fill="none" xmlns="http://www.w3.org/2000/svg">
<path d="M31.1111 16.1423C31.0616 14.5313 30.4407 12.9904 29.3594 11.7951C28.2781 10.5998 26.8069 9.82806 25.2089 9.61785C25.1163 7.36843 24.1403 5.24628 22.4928 3.71194C20.8453 2.17759 18.6592 1.35487 16.4089 1.4223C14.5881 1.39135 12.8017 1.9204 11.2914 2.93786C9.78112 3.95533 8.61976 5.41212 7.96444 7.11119C6.03942 7.34113 4.26148 8.2563 2.95573 9.68935C1.64999 11.1224 0.903702 12.9776 0.853333 14.9156C0.936628 17.0913 1.88039 19.1449 3.47719 20.625C5.07399 22.1051 7.19315 22.8907 9.36889 22.809C9.61747 22.8264 9.86697 22.8264 10.1156 22.809H23.8933C24.0111 22.8276 24.1311 22.8276 24.2489 22.809C26.0355 22.8097 27.7519 22.1136 29.0334 20.8687C30.3148 19.6238 31.0602 17.9282 31.1111 16.1423Z" fill="url(#paint0_linear_868_7272)"/>
<path d="M26.3289 30.5777H9.19112C8.64 30.5777 8.32 29.7066 8.62223 29.2444L14.5244 20.64C14.6103 20.5281 14.6543 20.3897 14.6489 20.2488V14.56C14.6446 14.4718 14.6076 14.3883 14.5452 14.3259C14.4827 14.2635 14.3993 14.2265 14.3111 14.2222H13.9911C13.8119 14.2222 13.6401 14.151 13.5134 14.0243C13.3867 13.8976 13.3156 13.7258 13.3156 13.5466V13.2444C13.3156 13.0652 13.3867 12.8934 13.5134 12.7667C13.6401 12.64 13.8119 12.5688 13.9911 12.5688H21.5111C21.6903 12.5688 21.8621 12.64 21.9888 12.7667C22.1155 12.8934 22.1867 13.0652 22.1867 13.2444V13.5466C22.1867 13.7258 22.1155 13.8976 21.9888 14.0243C21.8621 14.151 21.6903 14.2222 21.5111 14.2222H21.1911C21.1015 14.2222 21.0156 14.2578 20.9523 14.3211C20.8889 14.3845 20.8533 14.4704 20.8533 14.56V20.2666C20.8508 20.4071 20.8945 20.5446 20.9778 20.6577L26.88 29.2444C27.1822 29.6888 26.8622 30.5777 26.3289 30.5777Z" fill="url(#paint1_linear_868_7272)"/>
<path d="M11.1644 28.2667L15.6444 21.7244C15.8536 21.4593 15.9776 21.137 16 20.8V18.1689C16 18.0321 16.0543 17.901 16.151 17.8043C16.2477 17.7076 16.3788 17.6533 16.5155 17.6533H19.0755C19.2123 17.6533 19.3434 17.7076 19.4401 17.8043C19.5368 17.901 19.5911 18.0321 19.5911 18.1689V20.9778C19.5909 21.2003 19.6592 21.4176 19.7867 21.6L24.3733 28.2667C24.4102 28.3266 24.431 28.395 24.4337 28.4653C24.4364 28.5356 24.4209 28.6054 24.3887 28.668C24.3565 28.7305 24.3088 28.7837 24.25 28.8224C24.1913 28.8611 24.1235 28.884 24.0533 28.8889H11.6089C11.5268 28.9243 11.4351 28.9306 11.3489 28.9067C11.2628 28.8827 11.1874 28.8299 11.1355 28.7572C11.0835 28.6844 11.058 28.5961 11.0633 28.5068C11.0686 28.4175 11.1043 28.3328 11.1644 28.2667Z" fill="#552F99"/>
<defs>
<linearGradient id="paint0_linear_868_7272" x1="16" y1="29.1379" x2="16" y2="-3.44881" gradientUnits="userSpaceOnUse">
<stop stop-color="#0078D4"/>
<stop offset="0.16" stop-color="#1380DA"/>
<stop offset="0.53" stop-color="#3C91E5"/>
<stop offset="0.82" stop-color="#559CEC"/>
<stop offset="1" stop-color="#5EA0EF"/>
</linearGradient>
<linearGradient id="paint1_linear_868_7272" x1="17.5644" y1="12.64" x2="17.76" y2="30.7022" gradientUnits="userSpaceOnUse">
<stop stop-color="#32D4F5"/>
<stop offset="0.32" stop-color="#31D1F3"/>
<stop offset="0.53" stop-color="#2EC9EB"/>
<stop offset="0.7" stop-color="#29BADE"/>
<stop offset="0.86" stop-color="#22A5CB"/>
<stop offset="1" stop-color="#198AB3"/>
</linearGradient>
</defs>
</svg>
