<svg width="32" height="32" viewBox="0 0 32 32" fill="none" xmlns="http://www.w3.org/2000/svg">
<path d="M20.5849 22.0447L17.0524 18.5336L16.9582 18.4411C16.3794 17.8364 16.0641 17.0269 16.0814 16.19C16.0988 15.3531 16.4473 14.5573 17.0506 13.9771L18.3484 12.6758L17.344 11.2145C17.2465 11.0721 17.1944 10.9035 17.1946 10.7309V3.57001C17.1946 3.45732 17.2394 3.34925 17.3191 3.26957C17.3988 3.18988 17.5069 3.14512 17.6195 3.14512H18.0178C18.2436 3.14512 18.4602 3.0554 18.6199 2.8957C18.7796 2.73601 18.8693 2.51941 18.8693 2.29356V1.90956C18.8674 1.68511 18.7768 1.47052 18.6173 1.31264C18.4577 1.15476 18.2422 1.06642 18.0178 1.0669H8.58132C8.35547 1.0669 8.13887 1.15661 7.97918 1.31631C7.81948 1.47601 7.72976 1.69261 7.72976 1.91845V2.29356C7.73023 2.51927 7.8201 2.73559 7.9797 2.89518C8.13929 3.05478 8.35561 3.14465 8.58132 3.14512H8.97954C9.09239 3.14512 9.20065 3.18983 9.28061 3.26946C9.36058 3.34909 9.40574 3.45716 9.40621 3.57001V10.7131C9.40556 10.885 9.35356 11.0528 9.25687 11.1949L1.83998 22.0038C1.45243 22.5691 1.85776 23.6642 2.55109 23.6642H20.5849V22.0447Z" fill="url(#paint0_linear_868_7275)"/>
<path d="M29.5662 17.9969C30.0279 17.5548 30.2952 16.9475 30.3092 16.3084C30.3232 15.6693 30.0828 15.0508 29.6408 14.5889L29.5662 14.5142L25.2764 10.2725C25.0568 10.0442 24.7943 9.86147 24.504 9.73476C24.2136 9.60806 23.9011 9.53987 23.5844 9.53409C23.2677 9.52831 22.9529 9.58506 22.6582 9.70108C22.3634 9.81711 22.0944 9.99013 21.8666 10.2102L21.8044 10.2725L17.5768 14.5142C17.348 14.7329 17.1646 14.9944 17.037 15.284C16.9094 15.5736 16.8402 15.8855 16.8332 16.2019C16.8263 16.5182 16.8818 16.8329 16.9966 17.1278C17.1114 17.4227 17.2832 17.692 17.5022 17.9205L17.5768 17.9969L21.1324 21.5276C21.1974 21.5896 21.2488 21.6644 21.2834 21.7474C21.318 21.8303 21.335 21.9195 21.3333 22.0094V28.5765C21.333 28.797 21.4191 29.0089 21.5733 29.1667L23.1733 30.7667C23.2216 30.819 23.2798 30.8612 23.3444 30.8911C23.4091 30.9209 23.479 30.9377 23.5501 30.9405C23.6213 30.9433 23.6923 30.9321 23.7591 30.9074C23.8259 30.8828 23.8872 30.8452 23.9395 30.7969L23.968 30.7667L25.5217 29.2129L26.4391 28.2974C26.4964 28.2347 26.5282 28.1529 26.5282 28.068C26.5282 27.9831 26.4964 27.9013 26.4391 27.8387L25.776 27.1756C25.7124 27.1094 25.6769 27.0211 25.6769 26.9294C25.6769 26.8376 25.7124 26.7493 25.776 26.6831L26.4391 26.02C26.4964 25.9574 26.5282 25.8756 26.5282 25.7907C26.5282 25.7058 26.4964 25.624 26.4391 25.5614L25.776 24.8982C25.7124 24.832 25.6769 24.7438 25.6769 24.652C25.6769 24.5602 25.7124 24.472 25.776 24.4058L26.4391 23.7427C26.4956 23.6821 26.527 23.6024 26.527 23.5196C26.527 23.4368 26.4956 23.357 26.4391 23.2965L25.5217 22.3685V22.0307L29.5662 17.9969ZM23.5413 14.0858C23.1787 14.0765 22.8339 13.9268 22.5796 13.6682C22.3253 13.4096 22.1813 13.0623 22.1781 12.6996C22.1748 12.3369 22.3126 11.9871 22.5623 11.724C22.8119 11.4609 23.154 11.3051 23.5164 11.2894H23.5413C23.9035 11.3023 24.2466 11.4552 24.4982 11.716C24.7499 11.9769 24.8905 12.3251 24.8905 12.6876C24.8905 13.05 24.7499 13.3983 24.4982 13.6591C24.2466 13.9199 23.9035 14.0729 23.5413 14.0858Z" fill="url(#paint1_linear_868_7275)"/>
<path d="M22.4444 28.6722C22.488 28.7122 22.5423 28.7386 22.6006 28.748C22.659 28.7575 22.7188 28.7496 22.7727 28.7254C22.8267 28.7012 22.8723 28.6617 22.904 28.6118C22.9357 28.5619 22.9521 28.5038 22.9511 28.4447V23.1416C22.9504 23.0891 22.9369 23.0375 22.9118 22.9913C22.8867 22.9452 22.8508 22.9058 22.8071 22.8767C22.7608 22.8487 22.7078 22.8336 22.6537 22.833C22.5996 22.8325 22.5463 22.8465 22.4994 22.8735C22.4526 22.9006 22.4138 22.9397 22.3873 22.9869C22.3607 23.034 22.3473 23.0875 22.3484 23.1416V28.4447C22.347 28.4873 22.3549 28.5297 22.3715 28.569C22.388 28.6083 22.4129 28.6435 22.4444 28.6722Z" fill="#FAA21D"/>
<path d="M26.7342 15.9238H20.528C20.3218 15.9238 20.1547 16.091 20.1547 16.2972V16.3701C20.1547 16.5762 20.3218 16.7434 20.528 16.7434H26.7342C26.9404 16.7434 27.1076 16.5762 27.1076 16.3701V16.2972C27.1076 16.091 26.9404 15.9238 26.7342 15.9238Z" fill="#FAA21D"/>
<path d="M26.7342 17.2607H20.528C20.3218 17.2607 20.1547 17.4279 20.1547 17.6341V17.707C20.1547 17.9132 20.3218 18.0803 20.528 18.0803H26.7342C26.9404 18.0803 27.1076 17.9132 27.1076 17.707V17.6341C27.1076 17.4279 26.9404 17.2607 26.7342 17.2607Z" fill="#FAA21D"/>
<path d="M17.1342 18.457C17.1022 18.4267 17.0702 18.3947 17.04 18.3627C16.503 17.8064 16.1997 17.0655 16.1924 16.2923C16.1852 15.5192 16.4745 14.7726 17.0009 14.2063L15.7564 12.409C15.5979 12.1776 15.513 11.9037 15.5129 11.6232V8.09075C15.5129 7.91724 15.444 7.75083 15.3213 7.62814C15.1986 7.50545 15.0322 7.43652 14.8587 7.43652H11.6587C11.485 7.43652 11.3184 7.50539 11.1954 7.62803C11.0725 7.75067 11.0031 7.91707 11.0027 8.09075V11.3992C11.0041 11.8148 10.8802 12.2212 10.6471 12.5654L5.01333 20.7787C4.96289 20.8524 4.93348 20.9383 4.92827 21.0274C4.92305 21.1165 4.94224 21.2053 4.98374 21.2843C5.02525 21.3633 5.08752 21.4295 5.16384 21.4757C5.24016 21.522 5.32765 21.5465 5.41688 21.5467H20.2382L17.1342 18.457Z" fill="white"/>
<defs>
<linearGradient id="paint0_linear_868_7275" x1="10.9084" y1="1.18245" x2="11.1538" y2="23.826" gradientUnits="userSpaceOnUse">
<stop stop-color="#5EA0EF"/>
<stop offset="1" stop-color="#0078D4"/>
</linearGradient>
<linearGradient id="paint1_linear_868_7275" x1="23.5715" y1="9.53469" x2="23.5715" y2="30.9427" gradientUnits="userSpaceOnUse">
<stop offset="0.001" stop-color="#FFBD02"/>
<stop offset="1" stop-color="#FFD400"/>
</linearGradient>
</defs>
</svg>
