<svg width="32" height="32" viewBox="0 0 32 32" fill="none" xmlns="http://www.w3.org/2000/svg">
<path d="M0.888916 10.293H31.1111V27.1463C31.1111 27.4151 31.0044 27.6728 30.8143 27.8628C30.6243 28.0529 30.3666 28.1596 30.0978 28.1596H1.90225C1.6335 28.1596 1.37575 28.0529 1.18571 27.8628C0.995678 27.6728 0.888916 27.4151 0.888916 27.1463V10.293Z" fill="url(#paint0_linear_853_6565)"/>
<path d="M1.90225 3.85742H30.0978C30.3666 3.85742 30.6243 3.96418 30.8143 4.15422C31.0044 4.34426 31.1111 4.602 31.1111 4.87076V10.293H0.888916V4.85298C0.893577 4.58732 1.00239 4.33412 1.19193 4.14791C1.38146 3.9617 1.63655 3.85738 1.90225 3.85742Z" fill="#198AB3"/>
<path d="M4.99555 12.248H26.9689C27.0962 12.248 27.2183 12.2986 27.3083 12.3886C27.3983 12.4787 27.4489 12.6007 27.4489 12.728V15.2169C27.4489 15.3442 27.3983 15.4663 27.3083 15.5563C27.2183 15.6464 27.0962 15.6969 26.9689 15.6969H4.99555C4.87135 15.6923 4.75378 15.6397 4.66757 15.5502C4.58136 15.4607 4.53324 15.3412 4.53333 15.2169V12.728C4.53324 12.6038 4.58136 12.4843 4.66757 12.3948C4.75378 12.3052 4.87135 12.2526 4.99555 12.248Z" fill="white"/>
<path d="M5.01331 17.2092H26.9866C27.114 17.2092 27.236 17.2597 27.3261 17.3497C27.4161 17.4398 27.4666 17.5618 27.4666 17.6892V20.1958C27.4666 20.3231 27.4161 20.4452 27.3261 20.5352C27.236 20.6252 27.114 20.6758 26.9866 20.6758H5.01331C4.95109 20.6759 4.88949 20.6633 4.83222 20.639C4.77495 20.6147 4.72318 20.579 4.68002 20.5342C4.63686 20.4894 4.60319 20.4363 4.58104 20.3782C4.55888 20.32 4.5487 20.258 4.55109 20.1958V17.778C4.53472 17.7091 4.5344 17.6374 4.55018 17.5683C4.56595 17.4992 4.59739 17.4347 4.64206 17.3797C4.68673 17.3248 4.74344 17.2808 4.80782 17.2512C4.87219 17.2216 4.9425 17.2072 5.01331 17.2092Z" fill="#9CEBFF"/>
<path d="M5.01335 22.2227H26.9867C27.114 22.2227 27.2361 22.2732 27.3261 22.3632C27.4161 22.4533 27.4667 22.5754 27.4667 22.7027V25.2093C27.4667 25.3366 27.4161 25.4587 27.3261 25.5487C27.2361 25.6388 27.114 25.6893 26.9867 25.6893H5.01335C4.95112 25.6894 4.88953 25.6769 4.83226 25.6525C4.77499 25.6282 4.72322 25.5925 4.68006 25.5477C4.63689 25.5029 4.60323 25.4498 4.58107 25.3917C4.55892 25.3335 4.54873 25.2715 4.55112 25.2093V22.7027C4.54873 22.6405 4.55892 22.5785 4.58107 22.5203C4.60323 22.4622 4.63689 22.4091 4.68006 22.3643C4.72322 22.3194 4.77499 22.2838 4.83226 22.2595C4.88953 22.2351 4.95112 22.2226 5.01335 22.2227Z" fill="#9CEBFF"/>
<path d="M9.08447 13.9724V23.9102C9.08447 24.0422 9.13692 24.1688 9.23027 24.2621C9.32362 24.3555 9.45023 24.4079 9.58225 24.4079H13.76C13.8858 24.3989 14.0034 24.3425 14.0892 24.2501C14.175 24.1578 14.2226 24.0362 14.2223 23.9102V18.0079C14.2198 17.9419 14.2309 17.8761 14.2551 17.8145C14.2792 17.753 14.3158 17.6971 14.3625 17.6504C14.4092 17.6037 14.4651 17.5671 14.5266 17.543C14.5881 17.5188 14.654 17.5077 14.72 17.5102H17.2267C17.2927 17.5077 17.3586 17.5188 17.4201 17.543C17.4816 17.5671 17.5375 17.6037 17.5842 17.6504C17.631 17.6971 17.6675 17.753 17.6917 17.8145C17.7158 17.8761 17.727 17.9419 17.7245 18.0079V23.9102C17.7244 23.9771 17.7379 24.0433 17.764 24.1049C17.7901 24.1664 17.8284 24.2221 17.8765 24.2686C17.9246 24.315 17.9816 24.3513 18.0441 24.3753C18.1065 24.3992 18.1732 24.4103 18.24 24.4079H22.4178C22.5498 24.4079 22.6764 24.3555 22.7698 24.2621C22.8631 24.1688 22.9156 24.0422 22.9156 23.9102V13.9724C22.9156 13.8404 22.8631 13.7138 22.7698 13.6204C22.6764 13.5271 22.5498 13.4746 22.4178 13.4746H9.58225C9.45023 13.4746 9.32362 13.5271 9.23027 13.6204C9.13692 13.7138 9.08447 13.8404 9.08447 13.9724Z" fill="#0078D4"/>
<defs>
<linearGradient id="paint0_linear_853_6565" x1="16" y1="28.1419" x2="16" y2="10.293" gradientUnits="userSpaceOnUse">
<stop stop-color="#32BEDD"/>
<stop offset="0.18" stop-color="#32CAEA"/>
<stop offset="0.41" stop-color="#32D2F2"/>
<stop offset="0.78" stop-color="#32D4F5"/>
</linearGradient>
</defs>
</svg>
