<svg width="32" height="32" viewBox="0 0 32 32" fill="none" xmlns="http://www.w3.org/2000/svg">
<g clip-path="url(#clip0_853_6576)">
<path d="M30.72 6.93426H29.1022C28.7766 6.91269 28.45 6.91269 28.1244 6.93426C27.9172 6.93123 27.7142 6.87495 27.535 6.77085C27.3557 6.66675 27.2063 6.51831 27.101 6.3398C26.9956 6.16128 26.938 5.95869 26.9335 5.75147C26.9291 5.54424 26.978 5.33936 27.0755 5.15648L27.7689 3.91204C27.4964 3.69255 27.1902 3.51846 26.8622 3.39648L25.2089 6.3476C25.1006 6.53516 24.9452 6.69122 24.7582 6.80035C24.5711 6.90947 24.3588 6.96789 24.1422 6.96982H22.6667C22.4681 6.96831 22.2723 7.01725 22.0978 7.11204L19.3067 8.88982C19.2144 8.92098 19.1145 8.92098 19.0222 8.88982H9.36888C9.29949 8.89423 9.2317 8.91263 9.1696 8.94391C9.1075 8.9752 9.05237 9.01872 9.00753 9.07187C8.96269 9.12502 8.92906 9.18668 8.90867 9.25316C8.88828 9.31964 8.88155 9.38956 8.88888 9.45871V18.0276L5.77777 18.9876L6.00888 19.9832L8.88888 19.5565V24.712C8.88888 24.8488 8.9432 24.9799 9.03988 25.0766C9.13657 25.1733 9.2677 25.2276 9.40444 25.2276H26.0622L28.1067 27.8765L28.9778 27.3254L27.7689 25.2276H30.7555C30.8247 25.23 30.8937 25.2184 30.9583 25.1936C31.0229 25.1687 31.0819 25.1311 31.1316 25.083C31.1814 25.0349 31.221 24.9773 31.248 24.9135C31.275 24.8498 31.2889 24.7813 31.2889 24.712V7.4676C31.289 7.39446 31.2742 7.32208 31.2452 7.25494C31.2162 7.1878 31.1737 7.12734 31.1203 7.07732C31.067 7.0273 31.0039 6.98879 30.935 6.96418C30.8662 6.93957 30.793 6.92939 30.72 6.93426Z" fill="#005BA1"/>
<path d="M28.2311 3.85798C29.3013 3.85798 30.1689 2.9904 30.1689 1.9202C30.1689 0.849995 29.3013 -0.0175781 28.2311 -0.0175781C27.1609 -0.0175781 26.2933 0.849995 26.2933 1.9202C26.2933 2.9904 27.1609 3.85798 28.2311 3.85798Z" fill="#50E5FF"/>
<path d="M29.4756 32.0176C30.8698 32.0176 32 30.8874 32 29.4932C32 28.099 30.8698 26.9688 29.4756 26.9688C28.0813 26.9688 26.9511 28.099 26.9511 29.4932C26.9511 30.8874 28.0813 32.0176 29.4756 32.0176Z" fill="#50E5FF"/>
<path d="M3.14667 23.4847C4.88452 23.4847 6.29333 22.0759 6.29333 20.3381C6.29333 18.6002 4.88452 17.1914 3.14667 17.1914C1.40881 17.1914 0 18.6002 0 20.3381C0 22.0759 1.40881 23.4847 3.14667 23.4847Z" fill="#50E5FF"/>
<path d="M26.9689 8.44386L14.6844 6.66608H14.4356C14.0015 6.6624 13.5811 6.81765 13.2536 7.10256C12.9261 7.38747 12.7142 7.78235 12.6578 8.21275L12.1956 11.2172H28.4444V10.4883C28.4825 10.2571 28.4744 10.0207 28.4208 9.79256C28.3671 9.56448 28.2689 9.34925 28.1318 9.15925C27.9947 8.96925 27.8213 8.80824 27.6218 8.68547C27.4222 8.56269 27.2003 8.48058 26.9689 8.44386Z" fill="#0078D4"/>
<path d="M26.8444 9.20747L14.5778 7.42969H14.4178C14.1703 7.43159 13.9318 7.52243 13.7458 7.68562C13.5597 7.84881 13.4386 8.07347 13.4044 8.31858L12.9778 11.2164H27.5911L27.7156 10.3808C27.7357 10.2465 27.7291 10.1096 27.6962 9.97785C27.6633 9.84612 27.6047 9.72219 27.5238 9.61317C27.4428 9.50415 27.3411 9.41219 27.2246 9.34257C27.108 9.27294 26.9788 9.22703 26.8444 9.20747Z" fill="white"/>
<path d="M9.35112 8.88867H20.1067C20.2462 8.89585 20.3786 8.95259 20.48 9.04867L22.2578 10.8264C22.3059 10.877 22.3639 10.9173 22.428 10.9448C22.4922 10.9723 22.5613 10.9864 22.6311 10.9864H30.8089C30.9473 10.9864 31.0804 11.0401 31.1799 11.1363C31.2794 11.2325 31.3376 11.3637 31.3422 11.502V24.7109C31.3376 24.8492 31.2794 24.9804 31.1799 25.0766C31.0804 25.1728 30.9473 25.2265 30.8089 25.2264H9.47557C9.40215 25.2367 9.32739 25.231 9.25638 25.2097C9.18537 25.1884 9.11979 25.152 9.06411 25.1031C9.00843 25.0542 8.96395 24.9938 8.93371 24.9261C8.90348 24.8584 8.88819 24.785 8.8889 24.7109V9.45756C8.87865 9.32163 8.92084 9.18693 9.0068 9.08113C9.09276 8.97533 9.21597 8.90646 9.35112 8.88867Z" fill="url(#paint0_linear_853_6576)"/>
</g>
<defs>
<linearGradient id="paint0_linear_853_6576" x1="19.7333" y1="5.45756" x2="20.2489" y2="26.0265" gradientUnits="userSpaceOnUse">
<stop stop-color="#32D4F5"/>
<stop offset="0.23" stop-color="#31D0F1"/>
<stop offset="0.46" stop-color="#2CC3E6"/>
<stop offset="0.7" stop-color="#25AFD4"/>
<stop offset="0.94" stop-color="#1C92BA"/>
<stop offset="1" stop-color="#198AB3"/>
</linearGradient>
<clipPath id="clip0_853_6576">
<rect width="32" height="32" fill="white"/>
</clipPath>
</defs>
</svg>
