<svg width="32" height="32" viewBox="0 0 32 32" fill="none" xmlns="http://www.w3.org/2000/svg">
<g clip-path="url(#clip0_853_6566)">
<path d="M32 19.076C31.9542 17.4826 31.3421 15.9577 30.2734 14.775C29.2047 13.5923 27.7495 12.8292 26.1689 12.6226C26.0763 10.3983 25.1091 8.30056 23.4778 6.78571C21.8464 5.27087 19.6828 4.46152 17.4578 4.53375C15.653 4.49377 13.8807 5.01659 12.3866 6.02964C10.8925 7.0427 9.75079 8.49573 9.11998 10.1871C7.22032 10.4172 5.46701 11.3235 4.18079 12.7403C2.89458 14.1571 2.16145 15.9896 2.11554 17.9026C2.19887 20.0516 3.13079 22.0798 4.70704 23.5427C6.2833 25.0057 8.37527 25.784 10.5244 25.7071H11.2711H24.8889H25.2622C27.0281 25.6982 28.7206 25 29.9792 23.7614C31.2378 22.5227 31.9629 20.8415 32 19.076Z" fill="url(#paint0_linear_853_6566)"/>
<path fill-rule="evenodd" clip-rule="evenodd" d="M1.61606e-05 20.7286C-0.00950119 19.8388 0.158737 18.9561 0.494865 18.1321C0.830994 17.3082 1.32825 16.5597 1.95746 15.9305C2.58668 15.3013 3.33519 14.804 4.15911 14.4679C4.98304 14.1318 5.86578 13.9635 6.75557 13.973C7.6447 13.9659 8.52636 14.1358 9.34919 14.4728C10.172 14.8098 10.9196 15.3071 11.5483 15.9359C12.177 16.5646 12.6744 17.3121 13.0114 18.135C13.3483 18.9578 13.5182 19.8395 13.5111 20.7286V27.4664H6.75557C5.86729 27.4759 4.98602 27.3082 4.16328 26.9732C3.34054 26.6381 2.59284 26.1425 1.96386 25.5151C1.33488 24.8878 0.837258 24.1414 0.500066 23.3196C0.162873 22.4977 -0.0071222 21.6169 1.61606e-05 20.7286Z" fill="#50E6FF"/>
<path d="M10.9689 21.174V20.1784L9.95555 19.8229L9.70666 19.1473L10.2044 18.0984V17.9918L9.88444 17.6718L9.51111 17.2451H9.36889L8.37333 17.7784L7.69777 17.5829L7.25333 16.4629H6.27555L5.93777 17.4762L5.19111 17.7784L4.03555 17.2273L3.34222 17.9207V18.0451L3.85777 19.0407L3.55555 19.7873L2.36444 20.2318V21.2273H2.50666L3.55555 21.5829L3.84 22.2584L3.30666 23.414L4 24.1251H4.14222L5.12 23.6273L5.81333 23.9118L6.24 25.1029H7.23555V24.9607L7.57333 23.894L8.24889 23.6096L9.42222 24.1607L10.1156 23.4673V23.3251L9.61777 22.3296L9.81333 21.6362L10.9689 21.174ZM6.79111 22.0984C6.44813 22.0597 6.13144 21.896 5.90148 21.6385C5.67153 21.3811 5.54443 21.0481 5.54443 20.7029C5.54443 20.3577 5.67153 20.0246 5.90148 19.7672C6.13144 19.5098 6.44813 19.3461 6.79111 19.3073C6.9747 19.305 7.15693 19.3391 7.32722 19.4077C7.49752 19.4764 7.65249 19.5781 7.78314 19.7071C7.91379 19.8361 8.01753 19.9898 8.08832 20.1592C8.15912 20.3286 8.19557 20.5104 8.19555 20.694C8.19794 20.8791 8.16325 21.0628 8.09351 21.2343C8.02378 21.4057 7.92042 21.5615 7.78952 21.6924C7.65863 21.8233 7.50285 21.9267 7.33138 21.9964C7.1599 22.0661 6.9762 22.1008 6.79111 22.0984Z" fill="white"/>
</g>
<defs>
<linearGradient id="paint0_linear_853_6566" x1="17.0489" y1="31.9293" x2="17.0489" y2="-0.301809" gradientUnits="userSpaceOnUse">
<stop stop-color="#0078D4"/>
<stop offset="0.82" stop-color="#5EA0EF"/>
</linearGradient>
<clipPath id="clip0_853_6566">
<rect width="32" height="32" fill="white"/>
</clipPath>
</defs>
</svg>
