<svg width="32" height="32" viewBox="0 0 32 32" fill="none" xmlns="http://www.w3.org/2000/svg">
<path d="M32 16.8893C31.9616 15.1669 31.3134 13.514 30.1708 12.2246C29.0282 10.9352 27.4653 10.0929 25.76 9.84756C25.6815 7.44246 24.6572 5.16547 22.9096 3.51114C21.1621 1.85681 18.8325 0.958747 16.4267 1.01201C14.4807 0.986543 12.5751 1.56771 10.9745 2.6748C9.37391 3.78189 8.15782 5.35994 7.49511 7.18978C5.44644 7.46222 3.56343 8.46042 2.18812 10.0031C0.812813 11.5457 0.0364309 13.5305 0 15.5969C0.0637321 17.9231 1.04864 20.1287 2.73818 21.7289C4.42771 23.3291 6.68357 24.1928 9.00978 24.1302C9.27822 24.1302 9.54311 24.1178 9.80444 24.0947H24.3947C24.5254 24.0934 24.6553 24.0736 24.7804 24.036C26.673 24.005 28.4805 23.2444 29.8257 21.9128C31.1709 20.5812 31.9498 18.7815 32 16.8893Z" fill="url(#paint0_linear_853_6560)"/>
<path d="M28 12.9199H14.1333C13.5442 12.9199 13.0667 13.3975 13.0667 13.9866V27.8533C13.0667 28.4424 13.5442 28.9199 14.1333 28.9199H28C28.5891 28.9199 29.0667 28.4424 29.0667 27.8533V13.9866C29.0667 13.3975 28.5891 12.9199 28 12.9199Z" fill="#50E6FF"/>
<path d="M28.7733 12.7871H13.3582C12.7691 12.7871 12.2916 13.2647 12.2916 13.8538V29.2689C12.2916 29.858 12.7691 30.3356 13.3582 30.3356H28.7733C29.3624 30.3356 29.84 29.858 29.84 29.2689V13.8538C29.84 13.2647 29.3624 12.7871 28.7733 12.7871Z" fill="#50E6FF"/>
<path d="M27.3049 15.1797H15.4542C15.1597 15.1797 14.9209 15.4185 14.9209 15.713V17.6615C14.9209 17.956 15.1597 18.1948 15.4542 18.1948H27.3049C27.5995 18.1948 27.8382 17.956 27.8382 17.6615V15.713C27.8382 15.4185 27.5995 15.1797 27.3049 15.1797Z" fill="white"/>
<path opacity="0.8" d="M27.3049 20.0527H15.4542C15.1597 20.0527 14.9209 20.2915 14.9209 20.5861V22.5345C14.9209 22.8291 15.1597 23.0678 15.4542 23.0678H27.3049C27.5995 23.0678 27.8382 22.8291 27.8382 22.5345V20.5861C27.8382 20.2915 27.5995 20.0527 27.3049 20.0527Z" fill="white"/>
<path opacity="0.6" d="M27.3049 24.9258H15.4542C15.1597 24.9258 14.9209 25.1646 14.9209 25.4591V27.4076C14.9209 27.7021 15.1597 27.9409 15.4542 27.9409H27.3049C27.5995 27.9409 27.8382 27.7021 27.8382 27.4076V25.4591C27.8382 25.1646 27.5995 24.9258 27.3049 24.9258Z" fill="white"/>
<defs>
<linearGradient id="paint0_linear_853_6560" x1="16" y1="27.668" x2="16" y2="-4.12933" gradientUnits="userSpaceOnUse">
<stop stop-color="#0078D4"/>
<stop offset="1" stop-color="#5EA0EF"/>
</linearGradient>
</defs>
</svg>
