<svg width="32" height="32" viewBox="0 0 32 32" fill="none" xmlns="http://www.w3.org/2000/svg">
<path d="M28.4445 8.515L27.1467 7.875L23.2178 15.9461H19.8578V17.3683H23.2533L27.1467 25.3683L28.4445 24.7283L24.4978 16.6217L28.4445 8.515Z" fill="#949494"/>
<path d="M27.7867 10.9156C27.275 10.9195 26.7737 10.7709 26.3467 10.4889C26.0307 10.2953 25.7594 10.0366 25.551 9.73013C25.3426 9.42362 25.2017 9.07628 25.1378 8.71117C25.0471 8.31308 25.0472 7.89968 25.138 7.50161C25.2288 7.10355 25.4081 6.73104 25.6625 6.41172C25.917 6.09239 26.24 5.83445 26.6078 5.65701C26.9755 5.47957 27.3784 5.38719 27.7867 5.38672C28.3036 5.38564 28.8098 5.53379 29.2445 5.81339C29.5522 6.01456 29.8163 6.27565 30.0209 6.58109C30.2256 6.88652 30.3666 7.23005 30.4356 7.59117C30.5233 7.98802 30.5209 8.39948 30.4286 8.79529C30.3364 9.1911 30.1566 9.56121 29.9025 9.87841C29.6484 10.1956 29.3264 10.4518 28.9603 10.6282C28.5942 10.8047 28.1931 10.8968 27.7867 10.8978V10.9156Z" fill="white"/>
<path d="M27.7867 6.08C28.1903 6.0827 28.5848 6.19983 28.9245 6.41778C29.1581 6.56474 29.3602 6.75675 29.5189 6.98261C29.6777 7.20848 29.7898 7.46368 29.8489 7.73333C29.9119 8.00445 29.9208 8.28534 29.875 8.5599C29.8293 8.83446 29.7298 9.09729 29.5822 9.33333C29.3892 9.62998 29.126 9.87442 28.8159 10.045C28.5058 10.2155 28.1584 10.307 27.8045 10.3111C27.4024 10.3157 27.0074 10.2046 26.6667 9.99111C26.1882 9.68918 25.8493 9.20957 25.7245 8.65778C25.6586 8.34887 25.6622 8.0292 25.735 7.72185C25.8077 7.4145 25.9478 7.12714 26.1451 6.88051C26.3424 6.63388 26.592 6.43414 26.8759 6.2957C27.1598 6.15727 27.4709 6.08359 27.7867 6.08ZM27.7867 4.87111C26.986 4.871 26.2121 5.1599 25.6073 5.68471C25.0026 6.20951 24.6076 6.93496 24.4949 7.72771C24.3822 8.52047 24.5594 9.32726 24.994 9.99979C25.4286 10.6723 26.0913 11.1654 26.8603 11.3884C27.6293 11.6115 28.453 11.5494 29.18 11.2137C29.9069 10.878 30.4883 10.2912 30.8172 9.5612C31.1462 8.83116 31.2006 8.00692 30.9704 7.23999C30.7402 6.47306 30.241 5.81496 29.5645 5.38666C29.0335 5.04816 28.4164 4.86922 27.7867 4.87111Z" fill="#32BEDD"/>
<path d="M27.7867 27.7683C27.275 27.7722 26.7737 27.6236 26.3467 27.3416C26.0431 27.1547 25.7798 26.9092 25.5722 26.6194C25.3645 26.3297 25.2166 26.0014 25.1372 25.6539C25.0578 25.3064 25.0483 24.9465 25.1095 24.5953C25.1706 24.244 25.3011 23.9085 25.4934 23.6083C25.682 23.3041 25.9291 23.0404 26.2205 22.8326C26.5118 22.6247 26.8415 22.4768 27.1905 22.3974C27.5395 22.318 27.9008 22.3087 28.2534 22.3701C28.606 22.4315 28.9428 22.5623 29.2445 22.755C29.7403 23.0712 30.1203 23.5396 30.3275 24.09C30.5347 24.6403 30.558 25.2431 30.3938 25.8078C30.2296 26.3725 29.8867 26.8687 29.4167 27.2222C28.9467 27.5757 28.3748 27.7673 27.7867 27.7683Z" fill="white"/>
<path d="M27.7867 22.9335C28.1903 22.9362 28.5848 23.0533 28.9245 23.2713C29.1581 23.4183 29.3602 23.6103 29.5189 23.8361C29.6777 24.062 29.7898 24.3172 29.8489 24.5868C29.9119 24.858 29.9208 25.1389 29.875 25.4134C29.8293 25.688 29.7298 25.9508 29.5822 26.1868C29.3892 26.4835 29.126 26.7279 28.8159 26.8985C28.5058 27.0691 28.1584 27.1605 27.8045 27.1646C27.4024 27.1692 27.0074 27.0581 26.6667 26.8446C26.1882 26.5427 25.8493 26.0631 25.7245 25.5113C25.6586 25.2024 25.6622 24.8827 25.735 24.5754C25.8077 24.268 25.9478 23.9807 26.1451 23.734C26.3424 23.4874 26.592 23.2877 26.8759 23.1492C27.1598 23.0108 27.4709 22.9371 27.7867 22.9335ZM27.7867 21.7246C26.986 21.7245 26.2121 22.0134 25.6073 22.5382C25.0026 23.063 24.6076 23.7885 24.4949 24.5812C24.3822 25.374 24.5594 26.1808 24.994 26.8533C25.4286 27.5258 26.0913 28.0189 26.8603 28.242C27.6293 28.465 28.453 28.4029 29.18 28.0672C29.9069 27.7316 30.4883 27.1448 30.8172 26.4147C31.1462 25.6847 31.2006 24.8604 30.9704 24.0935C30.7402 23.3266 30.241 22.6685 29.5645 22.2402C29.0335 21.9017 28.4164 21.7227 27.7867 21.7246Z" fill="#32BEDD"/>
<path d="M10.6667 10.1684C5.33336 10.1684 0.888916 8.58622 0.888916 6.64844V25.3507C0.888916 27.2884 5.17336 28.9062 10.4711 28.9062H10.6667C16 28.9062 20.3911 27.3418 20.3911 25.3507V6.64844C20.32 8.58622 16 10.1684 10.6667 10.1684Z" fill="url(#paint0_linear_853_6574)"/>
<path d="M20.32 6.64891C20.32 8.58668 15.9645 10.2045 10.5956 10.2045C5.22669 10.2045 0.888916 8.58668 0.888916 6.64891C0.888916 4.71113 5.33336 3.12891 10.6667 3.12891C16 3.12891 20.3911 4.69335 20.3911 6.68446" fill="#E8E8E8"/>
<path d="M18.0444 6.365C18.0444 7.59167 14.72 8.58722 10.5956 8.58722C6.47111 8.58722 3.14667 7.59167 3.14667 6.365C3.14667 5.13833 6.48889 4.125 10.6667 4.125C14.8444 4.125 18.1156 5.12056 18.1156 6.365" fill="#50E6FF"/>
<path d="M10.6667 6.88085C8.67243 6.83121 6.68382 7.11358 4.78223 7.7164C6.67819 8.34651 8.66947 8.64129 10.6667 8.58751C12.6696 8.63939 14.6664 8.34468 16.5689 7.7164C14.6615 7.11227 12.6668 6.82989 10.6667 6.88085Z" fill="#198AB3"/>
<defs>
<linearGradient id="paint0_linear_853_6574" x1="0.888916" y1="17.7595" x2="20.32" y2="17.7595" gradientUnits="userSpaceOnUse">
<stop stop-color="#005BA1"/>
<stop offset="0.07" stop-color="#0060A9"/>
<stop offset="0.36" stop-color="#0071C8"/>
<stop offset="0.52" stop-color="#0078D4"/>
<stop offset="0.64" stop-color="#0074CD"/>
<stop offset="0.82" stop-color="#006ABB"/>
<stop offset="1" stop-color="#005BA1"/>
</linearGradient>
</defs>
</svg>
