<svg width="32" height="32" viewBox="0 0 32 32" fill="none" xmlns="http://www.w3.org/2000/svg">
<path d="M30.4 6.39989H17.2267C17.0858 6.40529 16.9474 6.36127 16.8356 6.27544L13.0667 3.76878C12.9483 3.69867 12.8131 3.66182 12.6756 3.66211H1.6C1.41444 3.66205 1.23621 3.73453 1.10335 3.86407C0.970488 3.9936 0.893524 4.16994 0.888885 4.35544V27.6443C0.893524 27.8298 0.970488 28.0062 1.10335 28.1357C1.23621 28.2652 1.41444 28.3377 1.6 28.3377H30.4C30.5856 28.3377 30.7638 28.2652 30.8966 28.1357C31.0295 28.0062 31.1065 27.8298 31.1111 27.6443V7.111C31.1111 6.9224 31.0362 6.74153 30.9028 6.60817C30.7695 6.47481 30.5886 6.39989 30.4 6.39989Z" fill="#005BA1"/>
<path d="M10.2222 5.01367H3.92888C3.77179 5.01367 3.64444 5.14102 3.64444 5.29812V6.09812C3.64444 6.25521 3.77179 6.38256 3.92888 6.38256H10.2222C10.3793 6.38256 10.5067 6.25521 10.5067 6.09812V5.29812C10.5067 5.14102 10.3793 5.01367 10.2222 5.01367Z" fill="white"/>
<path d="M4.81777 5.01367H3.84C3.73199 5.01367 3.64444 5.10123 3.64444 5.20923V6.18701C3.64444 6.29501 3.73199 6.38256 3.84 6.38256H4.81777C4.92578 6.38256 5.01333 6.29501 5.01333 6.18701V5.20923C5.01333 5.10123 4.92578 5.01367 4.81777 5.01367Z" fill="#1AC3F2"/>
<path d="M30.4 6.36361H16C15.9065 6.36062 15.8134 6.37817 15.7274 6.41503C15.6414 6.45189 15.5646 6.50716 15.5022 6.57694L13.1022 8.88805C12.9653 9.01105 12.7885 9.08048 12.6044 9.08361H1.6C1.4114 9.08361 1.23052 9.15853 1.09717 9.29189C0.963806 9.42525 0.888885 9.60612 0.888885 9.79472V27.5725C0.893524 27.758 0.970488 27.9343 1.10335 28.0639C1.23621 28.1934 1.41444 28.2659 1.6 28.2658H30.4C30.5856 28.2659 30.7638 28.1934 30.8966 28.0639C31.0295 27.9343 31.1065 27.758 31.1111 27.5725V7.11028C31.1159 7.01394 31.1011 6.91764 31.0675 6.82721C31.034 6.73679 30.9823 6.65414 30.9158 6.5843C30.8493 6.51445 30.7693 6.45887 30.6806 6.42093C30.5919 6.38299 30.4965 6.36349 30.4 6.36361Z" fill="url(#paint0_linear_853_6564)"/>
<path d="M18.0978 10.1327C18.0513 10.1198 18.0021 10.1198 17.9556 10.1327C17.9556 10.1327 17.7956 10.1327 17.7245 10.2571L12.1067 18.4171C12.0817 18.4604 12.0686 18.5094 12.0686 18.5594C12.0686 18.6093 12.0817 18.6584 12.1067 18.7016C12.1329 18.751 12.171 18.7931 12.2176 18.8241C12.2641 18.8552 12.3177 18.8741 12.3733 18.8794H15.6978L14.2222 23.8216C14.2077 23.8505 14.1994 23.8822 14.1978 23.9145C14.1963 23.9468 14.2015 23.9791 14.2133 24.0093C14.225 24.0394 14.2429 24.0668 14.2659 24.0896C14.2889 24.1124 14.3164 24.1301 14.3467 24.1416C14.3868 24.1566 14.431 24.1566 14.4711 24.1416C14.5778 24.1416 14.6311 24.1416 14.7022 24.0171L20.4978 15.7327C20.4978 15.7327 20.4978 15.626 20.4978 15.5549C20.4933 15.4779 20.4594 15.4055 20.4032 15.3526C20.347 15.2997 20.2727 15.2703 20.1956 15.2705H16.64L18.08 10.4171C18.1143 10.3785 18.1347 10.3296 18.138 10.278C18.1412 10.2264 18.127 10.1753 18.0978 10.1327Z" fill="white"/>
<defs>
<linearGradient id="paint0_linear_853_6564" x1="16.4267" y1="1.70583" x2="15.7333" y2="29.3681" gradientUnits="userSpaceOnUse">
<stop stop-color="#32D4F5"/>
<stop offset="0.23" stop-color="#31D0F1"/>
<stop offset="0.46" stop-color="#2CC3E6"/>
<stop offset="0.7" stop-color="#25AFD4"/>
<stop offset="0.94" stop-color="#1C92BA"/>
<stop offset="1" stop-color="#198AB3"/>
</linearGradient>
</defs>
</svg>
