<svg width="32" height="32" viewBox="0 0 32 32" fill="none" xmlns="http://www.w3.org/2000/svg">
<path d="M24.8889 8.53319C24.7919 6.37165 23.844 4.33618 22.2521 2.87079C20.6601 1.40539 18.5533 0.629001 16.3911 0.710967C14.6496 0.678993 12.9411 1.18863 11.5017 2.16948C10.0622 3.15033 8.96291 4.55398 8.35558 6.18652C6.51819 6.4106 4.82165 7.28482 3.5728 8.65105C2.32395 10.0173 1.60525 11.7853 1.54669 13.6354C1.63001 15.7151 2.53323 17.6773 4.05894 19.0931C5.58465 20.5089 7.60877 21.2631 9.68891 21.191H10.4H14.8978V25.8665C14.8978 25.8969 14.8918 25.9269 14.8802 25.955C14.8686 25.983 14.8516 26.0085 14.8301 26.0299C14.8087 26.0514 14.7832 26.0684 14.7551 26.08C14.7271 26.0917 14.697 26.0976 14.6667 26.0976H12.0534C12.0086 26.0989 11.9652 26.1132 11.9285 26.1387C11.8917 26.1641 11.8631 26.1997 11.8461 26.2411C11.8292 26.2826 11.8246 26.328 11.833 26.3719C11.8414 26.4159 11.8624 26.4565 11.8934 26.4887L16.2845 30.8799C16.3471 30.9386 16.4297 30.9713 16.5156 30.9713C16.6014 30.9713 16.6841 30.9386 16.7467 30.8799L21.1378 26.4887C21.1688 26.4565 21.1898 26.4159 21.1981 26.3719C21.2065 26.328 21.202 26.2826 21.185 26.2411C21.1681 26.1997 21.1395 26.1641 21.1027 26.1387C21.0659 26.1132 21.0225 26.0989 20.9778 26.0976H18.3467C18.3171 26.0977 18.2878 26.0917 18.2607 26.0799C18.2336 26.0681 18.2093 26.0507 18.1892 26.029C18.1691 26.0073 18.1538 25.9816 18.1442 25.9536C18.1346 25.9257 18.1309 25.896 18.1334 25.8665V21.1554H23.5734C23.6911 21.174 23.8111 21.174 23.9289 21.1554C25.6233 21.1473 27.2488 20.4839 28.4649 19.3041C29.6811 18.1244 30.3937 16.5198 30.4534 14.8265C30.4226 13.2881 29.8462 11.8106 28.827 10.6579C27.8077 9.50514 26.412 8.7521 24.8889 8.53319Z" fill="url(#paint0_linear_853_6573)"/>
<path d="M8.65777 14.5414L13.0489 10.168C13.0773 10.1344 13.1126 10.1073 13.1526 10.0887C13.1925 10.0702 13.236 10.0605 13.28 10.0605C13.324 10.0605 13.3675 10.0702 13.4074 10.0887C13.4474 10.1073 13.4827 10.1344 13.5111 10.168L17.9022 14.5414C17.9322 14.5713 17.9533 14.6089 17.9633 14.6501C17.9733 14.6913 17.9718 14.7344 17.9589 14.7748C17.9461 14.8151 17.9224 14.8512 17.8905 14.879C17.8585 14.9068 17.8195 14.9253 17.7778 14.9325H15.1289C15.0676 14.9325 15.0088 14.9568 14.9655 15.0002C14.9221 15.0435 14.8978 15.1023 14.8978 15.1636V21.1547H11.68V15.1636C11.68 15.1023 11.6556 15.0435 11.6123 15.0002C11.569 14.9568 11.5102 14.9325 11.4489 14.9325H8.88888C8.83822 14.9509 8.78272 14.951 8.73199 14.9328C8.68126 14.9146 8.63848 14.8792 8.61106 14.8328C8.58364 14.7864 8.5733 14.7319 8.58183 14.6786C8.59036 14.6254 8.61722 14.5769 8.65777 14.5414Z" fill="white"/>
<defs>
<linearGradient id="paint0_linear_853_6573" x1="16" y1="30.9332" x2="16" y2="0.710969" gradientUnits="userSpaceOnUse">
<stop stop-color="#0078D4"/>
<stop offset="0.82" stop-color="#5EA0EF"/>
</linearGradient>
</defs>
</svg>
