<svg width="32" height="32" viewBox="0 0 32 32" fill="none" xmlns="http://www.w3.org/2000/svg">
<path d="M32 14.0453C31.9734 12.7339 31.4784 11.4754 30.6045 10.4972C29.7307 9.51899 28.5357 8.88576 27.2356 8.71199C27.1569 6.89643 26.3668 5.18478 25.0361 3.9472C23.7054 2.70962 21.941 2.04557 20.1245 2.09866C18.647 2.07585 17.1992 2.51383 15.9821 3.35175C14.7651 4.18967 13.8393 5.38591 13.3334 6.77421C11.7762 6.96111 10.338 7.70116 9.28076 8.85957C8.22352 10.018 7.61759 11.5176 7.57336 13.0853C7.5963 13.9632 7.79292 14.8278 8.15186 15.6293C8.5108 16.4308 9.02495 17.1532 9.66463 17.7548C10.3043 18.3565 11.0568 18.8255 11.8788 19.1347C12.7007 19.4439 13.5757 19.5873 14.4534 19.5564H15.0578H26.1867H26.4889C27.9463 19.5425 29.34 18.9574 30.3705 17.9269C31.401 16.8964 31.9861 15.5027 32 14.0453Z" fill="url(#paint0_linear_853_6562)"/>
<path d="M25.5822 9.28079L22.3289 6.11634C21.9733 5.76079 21.6711 5.88523 21.6711 6.43634V7.85857C21.6712 7.91146 21.6605 7.96381 21.6397 8.01246C21.619 8.06111 21.5886 8.10504 21.5504 8.1416C21.5121 8.17816 21.4669 8.20659 21.4174 8.22517C21.3678 8.24374 21.3151 8.25208 21.2622 8.24968C19.1645 8.24968 13.3156 8.80079 13.1022 16.8008C13.1022 16.9092 13.1453 17.0132 13.222 17.0899C13.2987 17.1666 13.4027 17.2097 13.5111 17.2097H15.5911C15.6479 17.2099 15.7042 17.1983 15.7563 17.1755C15.8083 17.1528 15.8551 17.1194 15.8936 17.0776C15.9321 17.0358 15.9614 16.9864 15.9797 16.9326C15.998 16.8789 16.005 16.8218 16 16.7652C15.8345 16.0045 15.8524 15.2154 16.0522 14.4629C16.252 13.7105 16.628 13.0164 17.1491 12.438C17.6702 11.8596 18.3214 11.4135 19.049 11.1366C19.7765 10.8596 20.5596 10.7597 21.3333 10.8452C21.4418 10.8452 21.5458 10.8883 21.6225 10.965C21.6992 11.0417 21.7422 11.1457 21.7422 11.2541V12.5697C21.7422 13.2275 21.9556 13.3341 22.4 12.8897L25.5822 9.95634C25.6372 9.91882 25.6822 9.86844 25.7133 9.80958C25.7444 9.75071 25.7607 9.68514 25.7607 9.61857C25.7607 9.55199 25.7444 9.48642 25.7133 9.42755C25.6822 9.36869 25.6372 9.31831 25.5822 9.28079Z" fill="white"/>
<path d="M25.1022 24.2853C25.0633 22.9483 24.5502 21.6688 23.6545 20.6755C22.7589 19.6821 21.5391 19.0397 20.2133 18.8631C20.1347 16.9925 19.3214 15.2284 17.9502 13.9536C16.5789 12.6789 14.7602 11.9964 12.8889 12.0542C11.3765 12.0271 9.89317 12.4711 8.64448 13.3248C7.3958 14.1785 6.44364 15.3995 5.92 16.8186C4.32181 17.0095 2.84521 17.7677 1.75878 18.9553C0.672351 20.1428 0.0482534 21.6809 0 23.2897C0.034306 24.188 0.245681 25.0707 0.621993 25.887C0.998305 26.7034 1.53214 27.4374 2.19286 28.0469C2.85359 28.6564 3.62818 29.1294 4.47219 29.4388C5.3162 29.7482 6.213 29.8878 7.11111 29.8497H19.1644C19.2643 29.8681 19.3668 29.8681 19.4667 29.8497C20.9435 29.8318 22.3559 29.242 23.4068 28.2042C24.4578 27.1665 25.0655 25.7618 25.1022 24.2853Z" fill="url(#paint1_linear_853_6562)"/>
<defs>
<linearGradient id="paint0_linear_853_6562" x1="19.7867" y1="19.4675" x2="19.7867" y2="2.15199" gradientUnits="userSpaceOnUse">
<stop stop-color="#0078D4"/>
<stop offset="0.16" stop-color="#1380DA"/>
<stop offset="0.53" stop-color="#3C91E5"/>
<stop offset="0.82" stop-color="#559CEC"/>
<stop offset="1" stop-color="#5EA0EF"/>
</linearGradient>
<linearGradient id="paint1_linear_853_6562" x1="12.5511" y1="29.8497" x2="12.5511" y2="12.0542" gradientUnits="userSpaceOnUse">
<stop stop-color="#198AB3"/>
<stop offset="0.13" stop-color="#21A0C7"/>
<stop offset="0.31" stop-color="#28B7DB"/>
<stop offset="0.5" stop-color="#2EC7EA"/>
<stop offset="0.72" stop-color="#31D1F2"/>
<stop offset="1" stop-color="#32D4F5"/>
</linearGradient>
</defs>
</svg>
