<svg width="32" height="32" viewBox="0 0 32 32" fill="none" xmlns="http://www.w3.org/2000/svg">
<path d="M16 9.13832C9.7422 9.13832 4.67554 7.36054 4.67554 4.99609V26.9517C4.67554 29.2094 9.65331 31.0583 15.84 31.1117H16C22.2578 31.1117 27.3422 29.3339 27.3422 27.005V5.04943C27.36 7.32498 22.2755 9.15609 16 9.13832Z" fill="url(#paint0_linear_853_6568)"/>
<path d="M27.36 5.0488C27.36 7.32436 22.2756 9.15547 16.0178 9.13769C9.76003 9.11992 4.69336 7.35992 4.69336 4.99547C4.69336 2.63103 9.7778 0.871028 16 0.888805C22.2222 0.906583 27.3245 2.77325 27.3245 5.0488" fill="#F2F2F2"/>
<path d="M24.7111 4.71159C24.7111 6.15159 20.8178 7.32492 16.0178 7.30715C11.2178 7.28937 7.34222 6.11604 7.34222 4.65826C7.34222 3.20048 11.2356 2.04492 16 2.0627C20.7644 2.08048 24.6933 3.25381 24.6756 4.71159" fill="#50E6FF"/>
<path d="M16 5.33266C13.6614 5.27958 11.3303 5.61603 9.10223 6.32821C11.3277 7.0502 13.6615 7.38102 16 7.30599C18.3405 7.36776 20.674 7.02495 22.8978 6.29266C20.6661 5.59949 18.3362 5.27523 16 5.33266Z" fill="#198AB3"/>
<path d="M22.1689 18.0986L20.7111 17.6364C20.6222 17.6364 20.5689 17.6364 20.5333 17.4764L20.2311 16.7297C20.2134 16.6417 20.2134 16.5511 20.2311 16.463C20.4444 16.0008 20.6578 15.5386 20.9067 15.0942C20.926 15.0759 20.9415 15.0538 20.952 15.0294C20.9626 15.0049 20.968 14.9786 20.968 14.9519C20.968 14.9253 20.9626 14.899 20.952 14.8745C20.9415 14.85 20.926 14.828 20.9067 14.8097C20.6578 14.5608 20.4089 14.3475 20.1778 14.0808C20.157 14.0478 20.1281 14.0205 20.0939 14.0017C20.0597 13.9828 20.0213 13.9729 19.9822 13.9729C19.9432 13.9729 19.9047 13.9828 19.8705 14.0017C19.8363 14.0205 19.8075 14.0478 19.7867 14.0808L18.5422 14.703C18.4533 14.703 18.4 14.703 18.3111 14.703L17.5822 14.4008C17.5212 14.412 17.4582 14.3999 17.4056 14.3671C17.3529 14.3342 17.3145 14.2828 17.2978 14.223C17.12 13.743 16.9422 13.263 16.8 12.783C16.7923 12.7405 16.7706 12.7017 16.7384 12.6727C16.7063 12.6437 16.6654 12.6263 16.6222 12.623H15.4311C15.3067 12.623 15.2889 12.623 15.2178 12.7653C15.0756 13.263 14.9156 13.743 14.7378 14.223C14.7378 14.223 14.7378 14.383 14.5778 14.4008L13.8311 14.703C13.7397 14.7387 13.6381 14.7387 13.5467 14.703L12.1244 14.0097C12.0927 13.9891 12.0557 13.9781 12.0178 13.9781C11.9799 13.9781 11.9429 13.9891 11.9111 14.0097C11.6444 14.2942 11.3778 14.5964 11.0756 14.863C11.0604 14.8764 11.0483 14.8928 11.04 14.9112C11.0317 14.9296 11.0274 14.9495 11.0274 14.9697C11.0274 14.9899 11.0317 15.0098 11.04 15.0282C11.0483 15.0466 11.0604 15.063 11.0756 15.0764C11.3067 15.5208 11.52 15.983 11.7689 16.4275C11.7908 16.4717 11.8022 16.5204 11.8022 16.5697C11.8022 16.6191 11.7908 16.6677 11.7689 16.7119L11.4489 17.4053C11.4416 17.4593 11.4168 17.5094 11.3782 17.5479C11.3397 17.5865 11.2896 17.6113 11.2356 17.6186C10.7556 17.7964 10.2756 17.9742 9.79556 18.1164C9.67111 18.1164 9.63556 18.2053 9.63556 18.3119V19.5564C9.63556 19.6808 9.63556 19.7342 9.77778 19.7697C10.2756 19.9119 10.7556 20.1075 11.2356 20.2497C11.2816 20.2602 11.3234 20.2846 11.3552 20.3196C11.3869 20.3545 11.4073 20.3984 11.4133 20.4453C11.4133 20.6764 11.6267 20.9253 11.7156 21.1742C11.7337 21.2163 11.743 21.2616 11.743 21.3075C11.743 21.3533 11.7337 21.3987 11.7156 21.4408C11.4667 21.9208 11.2533 22.4008 11.0222 22.8808C11.0006 22.9088 10.9889 22.9432 10.9889 22.9786C10.9889 23.014 11.0006 23.0484 11.0222 23.0764L11.9111 23.9475C11.9111 23.9475 11.9111 24.0364 12.0533 23.9475L12.9067 23.503L13.5289 23.1119C13.5289 23.1119 13.6889 23.1119 13.7778 23.1119L14.5244 23.4142C14.6133 23.4142 14.6489 23.503 14.6844 23.5919C14.8622 24.0719 15.04 24.5875 15.1822 25.0675C15.1935 25.1115 15.2186 25.1508 15.2538 25.1796C15.2889 25.2083 15.3324 25.2251 15.3778 25.2275H16.5511C16.6756 25.2275 16.7111 25.2275 16.7644 25.0853C16.9244 24.6053 17.1022 24.1075 17.2444 23.6275C17.2554 23.5874 17.2756 23.5505 17.3034 23.5197C17.3312 23.4888 17.3658 23.4648 17.4044 23.4497L18.1689 23.1475C18.2049 23.1302 18.2444 23.1212 18.2844 23.1212C18.3245 23.1212 18.3639 23.1302 18.4 23.1475L19.8222 23.8408C19.853 23.8639 19.8904 23.8764 19.9289 23.8764C19.9674 23.8764 20.0048 23.8639 20.0356 23.8408C20.3022 23.5564 20.5867 23.2542 20.8889 22.9875C21.1911 22.7208 20.9778 22.863 20.8889 22.7386C20.633 22.2892 20.4016 21.8263 20.1956 21.3519C20.1618 21.3157 20.1431 21.2681 20.1431 21.2186C20.1431 21.1691 20.1618 21.1215 20.1956 21.0853C20.3022 20.8364 20.4089 20.6053 20.4978 20.3564C20.5071 20.3128 20.5288 20.2727 20.5604 20.2412C20.5919 20.2097 20.6319 20.1879 20.6756 20.1786C21.1556 20.0008 21.6533 19.8053 22.1333 19.663C22.2578 19.663 22.2756 19.5742 22.2756 19.4497C22.2756 19.023 22.2756 18.6675 22.2756 18.2942C22.2756 17.9208 22.2933 18.1519 22.1689 18.0986ZM17.9733 20.8008L17.8311 20.9253C17.3722 21.3109 16.8021 21.5396 16.2039 21.578C15.6058 21.6163 15.0111 21.4624 14.5067 21.1386L14.3289 21.0142C13.7437 20.585 13.3433 19.9495 13.2089 19.2364C13.1215 18.7835 13.1507 18.3158 13.2937 17.8773C13.4368 17.4388 13.689 17.0439 14.0267 16.7297C14.1156 16.6408 14.1156 16.6053 14.0267 16.5164L13.7956 16.2497H15.1822H15.2711V17.6186L14.88 17.2453C14.88 17.2453 14.88 17.1564 14.7022 17.2453C14.3091 17.5913 14.0682 18.0783 14.0316 18.6007C13.995 19.1231 14.1657 19.6389 14.5067 20.0364C14.5942 20.1392 14.696 20.229 14.8089 20.303L15.0222 20.4097C15.3165 20.6075 15.6632 20.7127 16.0178 20.7119C16.361 20.7279 16.7015 20.644 16.9981 20.4705C17.2947 20.297 17.5346 20.0412 17.6889 19.7342C17.8916 19.3646 17.9683 18.9391 17.9073 18.522C17.8464 18.1049 17.6511 17.7191 17.3511 17.423C17.3511 17.423 17.1733 17.2986 17.1556 17.1742C17.1378 17.0497 17.1556 17.1742 17.1556 17.0497C17.2712 16.9459 17.3782 16.833 17.4756 16.7119C17.7244 16.5164 17.7244 16.5164 17.9022 16.7119C18.4524 17.2455 18.7688 17.9754 18.7821 18.7417C18.7954 19.508 18.5046 20.2484 17.9733 20.8008Z" fill="white"/>
<defs>
<linearGradient id="paint0_linear_853_6568" x1="4.66374" y1="18.039" x2="27.3303" y2="18.0984" gradientUnits="userSpaceOnUse">
<stop stop-color="#005BA1"/>
<stop offset="0.07" stop-color="#0060A9"/>
<stop offset="0.36" stop-color="#0071C8"/>
<stop offset="0.52" stop-color="#0078D4"/>
<stop offset="0.64" stop-color="#0074CD"/>
<stop offset="0.82" stop-color="#006ABB"/>
<stop offset="1" stop-color="#005BA1"/>
</linearGradient>
</defs>
</svg>
