<svg width="32" height="32" viewBox="0 0 32 32" fill="none" xmlns="http://www.w3.org/2000/svg">
<path d="M28.832 11.7129H20.0765C19.9544 11.7129 19.8372 11.7614 19.7509 11.8478C19.6645 11.9341 19.616 12.0512 19.616 12.1733V17.4729C19.616 17.595 19.5675 17.7121 19.4812 17.7985C19.3948 17.8848 19.2777 17.9333 19.1556 17.9333H11.3885C11.2673 17.9333 11.1511 17.9815 11.0654 18.0672C10.9797 18.1528 10.9316 18.2691 10.9316 18.3902V23.8C10.9311 23.9223 10.8822 24.0394 10.7956 24.1257C10.7089 24.212 10.5916 24.2604 10.4694 24.2604H2.70403C2.58269 24.2604 2.46629 24.3085 2.38033 24.3942C2.29436 24.4798 2.24583 24.596 2.24536 24.7173V31.0836C2.24583 31.3262 2.34244 31.5588 2.51404 31.7304C2.68564 31.902 2.91824 31.9986 3.16092 31.9991H20.6116C20.6433 31.9992 20.6749 31.9956 20.7058 31.9884H28.832C28.9531 31.9887 29.073 31.965 29.185 31.9189C29.2969 31.8727 29.3986 31.8049 29.4843 31.7194C29.57 31.6338 29.638 31.5322 29.6844 31.4204C29.7308 31.3085 29.7547 31.1886 29.7547 31.0676V12.6338C29.7547 12.5127 29.7308 12.3928 29.6844 12.281C29.638 12.1691 29.57 12.0675 29.4843 11.982C29.3986 11.8964 29.2969 11.8287 29.185 11.7825C29.073 11.7363 28.9531 11.7127 28.832 11.7129Z" fill="url(#paint0_linear_853_6561)"/>
<path d="M27.84 25.7695H21.5289C21.2746 25.7695 21.0685 25.9757 21.0685 26.23V30.1286C21.0685 30.3829 21.2746 30.5891 21.5289 30.5891H27.84C28.0943 30.5891 28.3005 30.3829 28.3005 30.1286V26.23C28.3005 25.9757 28.0943 25.7695 27.84 25.7695Z" fill="#005BA1"/>
<path d="M27.84 19.4414H21.5289C21.2746 19.4414 21.0685 19.6476 21.0685 19.9019V23.8005C21.0685 24.0548 21.2746 24.261 21.5289 24.261H27.84C28.0943 24.261 28.3005 24.0548 28.3005 23.8005V19.9019C28.3005 19.6476 28.0943 19.4414 27.84 19.4414Z" fill="#5EA0EF"/>
<path d="M27.84 13.1152H21.5289C21.2746 13.1152 21.0685 13.3214 21.0685 13.5757V17.4743C21.0685 17.7286 21.2746 17.9348 21.5289 17.9348H27.84C28.0943 17.9348 28.3005 17.7286 28.3005 17.4743V13.5757C28.3005 13.3214 28.0943 13.1152 27.84 13.1152Z" fill="white"/>
<path d="M19.1556 25.7773H12.8445C12.5902 25.7773 12.384 25.9835 12.384 26.2378V30.1365C12.384 30.3908 12.5902 30.5969 12.8445 30.5969H19.1556C19.4099 30.5969 19.616 30.3908 19.616 30.1365V26.2378C19.616 25.9835 19.4099 25.7773 19.1556 25.7773Z" fill="#005BA1"/>
<path d="M19.1556 19.4531H12.8445C12.5902 19.4531 12.384 19.6593 12.384 19.9136V23.8122C12.384 24.0665 12.5902 24.2727 12.8445 24.2727H19.1556C19.4099 24.2727 19.616 24.0665 19.616 23.8122V19.9136C19.616 19.6593 19.4099 19.4531 19.1556 19.4531Z" fill="white"/>
<path d="M10.4711 25.7773H4.16003C3.90573 25.7773 3.69958 25.9835 3.69958 26.2378V30.1365C3.69958 30.3908 3.90573 30.5969 4.16003 30.5969H10.4711C10.7254 30.5969 10.9316 30.3908 10.9316 30.1365V26.2378C10.9316 25.9835 10.7254 25.7773 10.4711 25.7773Z" fill="#005BA1"/>
<path d="M18.8853 6.03711H11.3867C11.0843 6.03711 10.8391 6.28226 10.8391 6.58467V11.2158C10.8391 11.5182 11.0843 11.7633 11.3867 11.7633H18.8853C19.1877 11.7633 19.4329 11.5182 19.4329 11.2158V6.58467C19.4329 6.28226 19.1877 6.03711 18.8853 6.03711Z" fill="#5EA0EF"/>
<path d="M10.2916 12.0176H2.79292C2.49051 12.0176 2.24536 12.2627 2.24536 12.5651V17.1962C2.24536 17.4987 2.49051 17.7438 2.79292 17.7438H10.2916C10.594 17.7438 10.8391 17.4987 10.8391 17.1962V12.5651C10.8391 12.2627 10.594 12.0176 10.2916 12.0176Z" fill="#0078D4"/>
<path d="M10.2916 0H2.79292C2.49051 0 2.24536 0.245149 2.24536 0.547556V5.17867C2.24536 5.48107 2.49051 5.72622 2.79292 5.72622H10.2916C10.594 5.72622 10.8391 5.48107 10.8391 5.17867V0.547556C10.8391 0.245149 10.594 0 10.2916 0Z" fill="#83B9F9"/>
<defs>
<linearGradient id="paint0_linear_853_6561" x1="16.5085" y1="12.6267" x2="15.7796" y2="34.5147" gradientUnits="userSpaceOnUse">
<stop stop-color="#E6E6E6"/>
<stop offset="1" stop-color="#B3B3B3"/>
</linearGradient>
</defs>
</svg>
