<svg width="32" height="32" viewBox="0 0 32 32" fill="none" xmlns="http://www.w3.org/2000/svg">
<path d="M32 16.8881C31.9442 15.1841 31.287 13.5548 30.1448 12.289C29.0027 11.0232 27.4493 10.2026 25.76 9.97252C25.6537 7.59262 24.6149 5.35019 22.8684 3.73007C21.1219 2.10994 18.8078 1.2423 16.4267 1.31474C14.4994 1.27916 12.6088 1.84344 11.0163 2.92951C9.42379 4.01558 8.20823 5.56975 7.53778 7.37697C5.5023 7.62275 3.62241 8.59021 2.23936 10.1037C0.85631 11.6173 0.0617807 13.5765 0 15.6259C0.0879773 17.9304 1.08622 20.106 2.77584 21.6756C4.46546 23.2453 6.70857 24.0809 9.01333 23.9992H9.79556H24.3911C24.5213 24.009 24.652 24.009 24.7822 23.9992C26.6726 23.9813 28.4821 23.2297 29.8288 21.9029C31.1755 20.5761 31.954 18.778 32 16.8881Z" fill="url(#paint0_linear_853_6567)"/>
<path d="M23.4311 29.084H16.9422C16.6477 29.084 16.4089 29.3228 16.4089 29.6173V30.1506C16.4089 30.4452 16.6477 30.684 16.9422 30.684H23.4311C23.7256 30.684 23.9644 30.4452 23.9644 30.1506V29.6173C23.9644 29.3228 23.7256 29.084 23.4311 29.084Z" fill="#198AB3"/>
<path d="M23.4311 25.6895H16.9422C16.6477 25.6895 16.4089 25.9282 16.4089 26.2228V26.7561C16.4089 27.0507 16.6477 27.2895 16.9422 27.2895H23.4311C23.7256 27.2895 23.9644 27.0507 23.9644 26.7561V26.2228C23.9644 25.9282 23.7256 25.6895 23.4311 25.6895Z" fill="#32BEDD"/>
<path d="M23.4311 22.3105H16.9422C16.6477 22.3105 16.4089 22.5493 16.4089 22.8439V23.3772C16.4089 23.6718 16.6477 23.9105 16.9422 23.9105H23.4311C23.7256 23.9105 23.9644 23.6718 23.9644 23.3772V22.8439C23.9644 22.5493 23.7256 22.3105 23.4311 22.3105Z" fill="#50E6FF"/>
<path d="M15.8222 13.8672H9.33332C9.03877 13.8672 8.79999 14.106 8.79999 14.4005V14.9339C8.79999 15.2284 9.03877 15.4672 9.33332 15.4672H15.8222C16.1168 15.4672 16.3555 15.2284 16.3555 14.9339V14.4005C16.3555 14.106 16.1168 13.8672 15.8222 13.8672Z" fill="#F2F2F2"/>
<path d="M15.8222 16.9785H9.33332C9.03877 16.9785 8.79999 17.2173 8.79999 17.5118V18.0452C8.79999 18.3397 9.03877 18.5785 9.33332 18.5785H15.8222C16.1168 18.5785 16.3555 18.3397 16.3555 18.0452V17.5118C16.3555 17.2173 16.1168 16.9785 15.8222 16.9785Z" fill="#F2F2F2"/>
<path d="M15.8222 20.1074H9.33332C9.03877 20.1074 8.79999 20.3462 8.79999 20.6408V21.1741C8.79999 21.4686 9.03877 21.7074 9.33332 21.7074H15.8222C16.1168 21.7074 16.3555 21.4686 16.3555 21.1741V20.6408C16.3555 20.3462 16.1168 20.1074 15.8222 20.1074Z" fill="#F2F2F2"/>
<defs>
<linearGradient id="paint0_linear_853_6567" x1="16" y1="23.9992" x2="16" y2="1.31474" gradientUnits="userSpaceOnUse">
<stop stop-color="#0078D4"/>
<stop offset="0.16" stop-color="#1380DA"/>
<stop offset="0.53" stop-color="#3C91E5"/>
<stop offset="0.82" stop-color="#559CEC"/>
<stop offset="1" stop-color="#5EA0EF"/>
</linearGradient>
</defs>
</svg>
