<svg width="32" height="32" viewBox="0 0 32 32" fill="none" xmlns="http://www.w3.org/2000/svg">
<g clip-path="url(#clip0_853_6570)">
<path d="M32 18.2221C31.9442 16.518 31.287 14.8888 30.1448 13.623C29.0027 12.3572 27.4493 11.5366 25.76 11.3065C25.6537 8.92661 24.6149 6.68418 22.8684 5.06405C21.1219 3.44393 18.8078 2.57629 16.4267 2.64873C14.5006 2.61836 12.6122 3.18472 11.0208 4.2701C9.42932 5.35548 8.21268 6.9067 7.53778 8.71095C5.49941 8.94966 3.61535 9.915 2.23094 11.43C0.846516 12.945 0.0544798 14.9083 0 16.9598C0.0879773 19.2644 1.08622 21.44 2.77584 23.0096C4.46546 24.5793 6.70857 25.4149 9.01333 25.3332H9.79556H24.3911C24.5213 25.343 24.652 25.343 24.7822 25.3332C26.6726 25.3153 28.4821 24.5636 29.8288 23.2369C31.1755 21.9101 31.954 20.112 32 18.2221Z" fill="url(#paint0_linear_853_6570)"/>
<path d="M21.5644 11.0218H9.88443C9.86039 11.0247 9.83602 11.0221 9.81315 11.0141C9.79028 11.0062 9.76951 10.9932 9.75239 10.9761C9.73528 10.959 9.72227 10.9382 9.71434 10.9153C9.70642 10.8925 9.70379 10.8681 9.70665 10.844V8.78182C9.70215 8.74698 9.68834 8.714 9.66669 8.68634C9.64503 8.65868 9.61632 8.63736 9.58358 8.62463C9.55084 8.61189 9.51528 8.60821 9.48062 8.61398C9.44597 8.61974 9.41351 8.63473 9.38665 8.65738L5.83109 12.2129C5.79852 12.2462 5.78027 12.2908 5.78027 12.3374C5.78027 12.3839 5.79852 12.4286 5.83109 12.4618L9.38665 16.0174C9.41469 16.0406 9.44864 16.0555 9.48469 16.0604C9.52074 16.0654 9.55745 16.0602 9.5907 16.0454C9.62395 16.0306 9.65242 16.0068 9.6729 15.9768C9.69338 15.9467 9.70507 15.9115 9.70665 15.8752V13.7418C9.70665 13.6947 9.72538 13.6495 9.75872 13.6161C9.79206 13.5828 9.83728 13.564 9.88443 13.564H11.6622V28.444C11.6622 28.5654 11.6861 28.6857 11.7326 28.7978C11.779 28.91 11.8471 29.0119 11.933 29.0977C12.0188 29.1836 12.1207 29.2517 12.2329 29.2981C12.345 29.3446 12.4652 29.3685 12.5866 29.3685H21.4755C21.7207 29.3685 21.9559 29.2711 22.1292 29.0977C22.3026 28.9244 22.4 28.6892 22.4 28.444V11.9463C22.4011 11.7157 22.3159 11.4931 22.1614 11.3221C22.0068 11.1511 21.7939 11.044 21.5644 11.0218Z" fill="url(#paint1_linear_853_6570)"/>
<path d="M13.3156 17.4586C13.3132 17.3039 13.3419 17.1502 13.4 17.0068C13.4581 16.8634 13.5444 16.733 13.6539 16.6236C13.7633 16.5142 13.8936 16.4278 14.0371 16.3697C14.1805 16.3116 14.3342 16.2829 14.4889 16.2853H19.8222C20.1334 16.2853 20.4319 16.4089 20.6519 16.629C20.872 16.849 20.9956 17.1474 20.9956 17.4586C20.9909 17.7667 20.8652 18.0606 20.6457 18.2768C20.4261 18.493 20.1304 18.6142 19.8222 18.6142H14.4889C14.3357 18.6165 14.1835 18.5884 14.0412 18.5314C13.899 18.4744 13.7695 18.3896 13.6603 18.2821C13.5511 18.1745 13.4644 18.0464 13.4052 17.905C13.346 17.7636 13.3156 17.6119 13.3156 17.4586Z" fill="#003067"/>
<path d="M13.3155 13.9741C13.3155 13.6629 13.4391 13.3645 13.6592 13.1444C13.8792 12.9244 14.1776 12.8008 14.4888 12.8008H19.8222C20.1319 12.8054 20.4277 12.9305 20.6468 13.1495C20.8658 13.3686 20.9909 13.6644 20.9955 13.9741C20.9909 14.2839 20.8658 14.5797 20.6468 14.7987C20.4277 15.0178 20.1319 15.1429 19.8222 15.1474H14.4888C14.1776 15.1474 13.8792 15.0238 13.6592 14.8038C13.4391 14.5837 13.3155 14.2853 13.3155 13.9741Z" fill="#003067"/>
<path d="M14.5245 14.7559C14.9565 14.7559 15.3067 14.4056 15.3067 13.9736C15.3067 13.5416 14.9565 13.1914 14.5245 13.1914C14.0925 13.1914 13.7422 13.5416 13.7422 13.9736C13.7422 14.4056 14.0925 14.7559 14.5245 14.7559Z" fill="#50E6FF"/>
<path d="M14.5245 18.2402C14.9565 18.2402 15.3067 17.89 15.3067 17.458C15.3067 17.026 14.9565 16.6758 14.5245 16.6758C14.0925 16.6758 13.7422 17.026 13.7422 17.458C13.7422 17.89 14.0925 18.2402 14.5245 18.2402Z" fill="#50E6FF"/>
<path d="M17.5645 24.1606L14.0089 27.7162C13.9809 27.7394 13.9469 27.7543 13.9109 27.7592C13.8748 27.7642 13.8381 27.759 13.8048 27.7442C13.7716 27.7294 13.7431 27.7057 13.7226 27.6756C13.7022 27.6455 13.6905 27.6103 13.6889 27.574V25.4762C13.6889 25.429 13.6702 25.3838 13.6368 25.3505C13.6035 25.3172 13.5583 25.2984 13.5111 25.2984H11.6622V22.7562H13.5645C13.5885 22.7591 13.6129 22.7564 13.6357 22.7485C13.6586 22.7406 13.6794 22.7276 13.6965 22.7105C13.7136 22.6933 13.7266 22.6726 13.7345 22.6497C13.7425 22.6268 13.7451 22.6025 13.7422 22.5784V20.5162C13.7467 20.4814 13.7605 20.4484 13.7822 20.4207C13.8038 20.3931 13.8326 20.3717 13.8653 20.359C13.898 20.3463 13.9336 20.3426 13.9683 20.3484C14.0029 20.3541 14.0354 20.3691 14.0622 20.3918L17.6178 23.9473C17.6341 23.9837 17.6377 24.0245 17.6281 24.0632C17.6184 24.1019 17.596 24.1362 17.5645 24.1606Z" fill="#0078D4"/>
</g>
<defs>
<linearGradient id="paint0_linear_853_6570" x1="16" y1="31.9821" x2="16" y2="-2.5246" gradientUnits="userSpaceOnUse">
<stop stop-color="#0078D4"/>
<stop offset="0.14" stop-color="#077BD6"/>
<stop offset="0.34" stop-color="#1A83DB"/>
<stop offset="0.59" stop-color="#3990E4"/>
<stop offset="0.82" stop-color="#5EA0EF"/>
</linearGradient>
<linearGradient id="paint1_linear_853_6570" x1="14.1689" y1="29.3507" x2="14.1689" y2="8.60405" gradientUnits="userSpaceOnUse">
<stop stop-color="#949494"/>
<stop offset="0.31" stop-color="#B9B9B9"/>
<stop offset="0.77" stop-color="#ECECEC"/>
<stop offset="1" stop-color="white"/>
</linearGradient>
<clipPath id="clip0_853_6570">
<rect width="32" height="32" fill="white"/>
</clipPath>
</defs>
</svg>
