<svg width="32" height="32" viewBox="0 0 32 32" fill="none" xmlns="http://www.w3.org/2000/svg">
<path d="M0.888916 10.293H31.1111V27.1463C31.1111 27.4151 31.0044 27.6728 30.8143 27.8628C30.6243 28.0529 30.3666 28.1596 30.0978 28.1596H1.90225C1.6335 28.1596 1.37575 28.0529 1.18571 27.8628C0.995678 27.6728 0.888916 27.4151 0.888916 27.1463V10.293Z" fill="url(#paint0_linear_853_6563)"/>
<path d="M1.90225 3.85742H30.0978C30.3666 3.85742 30.6243 3.96418 30.8143 4.15422C31.0044 4.34426 31.1111 4.602 31.1111 4.87076V10.293H0.888916V4.85298C0.893577 4.58732 1.00239 4.33412 1.19193 4.14791C1.38146 3.9617 1.63655 3.85738 1.90225 3.85742Z" fill="#198AB3"/>
<path d="M4.99555 12.248H26.9867C27.1109 12.2526 27.2284 12.3052 27.3146 12.3948C27.4008 12.4843 27.449 12.6038 27.4489 12.728V15.2169C27.449 15.3412 27.4008 15.4607 27.3146 15.5502C27.2284 15.6397 27.1109 15.6923 26.9867 15.6969H4.99555C4.87135 15.6923 4.75378 15.6397 4.66757 15.5502C4.58136 15.4607 4.53324 15.3412 4.53333 15.2169V12.728C4.53324 12.6038 4.58136 12.4843 4.66757 12.3948C4.75378 12.3052 4.87135 12.2526 4.99555 12.248Z" fill="white"/>
<path d="M5.01333 17.209H27.0044C27.1286 17.2136 27.2462 17.2662 27.3324 17.3557C27.4186 17.4452 27.4667 17.5647 27.4667 17.689V20.1956C27.4667 20.3199 27.4186 20.4394 27.3324 20.5289C27.2462 20.6185 27.1286 20.671 27.0044 20.6757H5.01333C4.88913 20.671 4.77156 20.6185 4.68535 20.5289C4.59914 20.4394 4.55102 20.3199 4.55111 20.1956V17.7779C4.53817 17.7093 4.54034 17.6387 4.55746 17.5711C4.57459 17.5035 4.60625 17.4404 4.65025 17.3862C4.69425 17.3321 4.74953 17.2881 4.81224 17.2575C4.87494 17.2269 4.94356 17.2104 5.01333 17.209Z" fill="#9CEBFF"/>
<path d="M5.01331 22.2227H27.0044C27.1286 22.2273 27.2462 22.2799 27.3324 22.3694C27.4186 22.4589 27.4667 22.5784 27.4666 22.7027V25.2093C27.4667 25.3336 27.4186 25.4531 27.3324 25.5426C27.2462 25.6321 27.1286 25.6847 27.0044 25.6893H5.01331C4.88911 25.6847 4.77154 25.6321 4.68533 25.5426C4.59913 25.4531 4.551 25.3336 4.55109 25.2093V22.7027C4.551 22.5784 4.59913 22.4589 4.68533 22.3694C4.77154 22.2799 4.88911 22.2273 5.01331 22.2227Z" fill="#50E6FF"/>
<defs>
<linearGradient id="paint0_linear_853_6563" x1="16" y1="28.1419" x2="16" y2="10.293" gradientUnits="userSpaceOnUse">
<stop stop-color="#32BEDD"/>
<stop offset="0.18" stop-color="#32CAEA"/>
<stop offset="0.41" stop-color="#32D2F2"/>
<stop offset="0.78" stop-color="#32D4F5"/>
</linearGradient>
</defs>
</svg>
