<svg width="32" height="32" viewBox="0 0 32 32" fill="none" xmlns="http://www.w3.org/2000/svg">
<path d="M0.888885 10.293H31.1111V27.1463C31.1111 27.4151 31.0043 27.6728 30.8143 27.8628C30.6243 28.0529 30.3665 28.1596 30.0978 28.1596H1.90222C1.63347 28.1596 1.37572 28.0529 1.18568 27.8628C0.995647 27.6728 0.888885 27.4151 0.888885 27.1463V10.293Z" fill="url(#paint0_linear_853_6575)"/>
<path d="M1.90222 3.85742H30.0978C30.3665 3.85742 30.6243 3.96418 30.8143 4.15422C31.0043 4.34426 31.1111 4.602 31.1111 4.87076V10.293H0.888885V4.85298C0.893547 4.58732 1.00236 4.33412 1.1919 4.14791C1.38143 3.9617 1.63652 3.85738 1.90222 3.85742Z" fill="#37C2B1"/>
<path d="M4.99555 12.248H26.9867C27.1109 12.2526 27.2284 12.3052 27.3146 12.3948C27.4008 12.4843 27.449 12.6038 27.4489 12.728V15.2169C27.449 15.3412 27.4008 15.4607 27.3146 15.5502C27.2284 15.6397 27.1109 15.6923 26.9867 15.6969H4.99555C4.87135 15.6923 4.75378 15.6397 4.66757 15.5502C4.58136 15.4607 4.53324 15.3412 4.53333 15.2169V12.728C4.53324 12.6038 4.58136 12.4843 4.66757 12.3948C4.75378 12.3052 4.87135 12.2526 4.99555 12.248Z" fill="white"/>
<path d="M5.01333 17.209H27.0044C27.1286 17.2136 27.2462 17.2662 27.3324 17.3557C27.4186 17.4452 27.4667 17.5647 27.4667 17.689V20.1956C27.4667 20.3199 27.4186 20.4394 27.3324 20.5289C27.2462 20.6185 27.1286 20.671 27.0044 20.6757H5.01333C4.88913 20.671 4.77156 20.6185 4.68535 20.5289C4.59914 20.4394 4.55102 20.3199 4.55111 20.1956V17.7779C4.53817 17.7093 4.54034 17.6387 4.55746 17.5711C4.57459 17.5035 4.60625 17.4404 4.65025 17.3862C4.69425 17.3321 4.74953 17.2881 4.81224 17.2575C4.87494 17.2269 4.94356 17.2104 5.01333 17.209Z" fill="#37C2B1"/>
<path d="M5.01334 22.2227H27.0044C27.1286 22.2273 27.2462 22.2799 27.3324 22.3694C27.4186 22.4589 27.4668 22.5784 27.4667 22.7027V25.2093C27.4668 25.3336 27.4186 25.4531 27.3324 25.5426C27.2462 25.6321 27.1286 25.6847 27.0044 25.6893H5.01334C4.88914 25.6847 4.77157 25.6321 4.68536 25.5426C4.59916 25.4531 4.55103 25.3336 4.55112 25.2093V22.7027C4.55103 22.5784 4.59916 22.4589 4.68536 22.3694C4.77157 22.2799 4.88914 22.2273 5.01334 22.2227Z" fill="#258277"/>
<defs>
<linearGradient id="paint0_linear_853_6575" x1="16" y1="28.1419" x2="16" y2="10.293" gradientUnits="userSpaceOnUse">
<stop stop-color="#B3B3B3"/>
<stop offset="0.26" stop-color="#C1C1C1"/>
<stop offset="1" stop-color="#E6E6E6"/>
</linearGradient>
</defs>
</svg>
