<svg width="32" height="32" viewBox="0 0 32 32" fill="none" xmlns="http://www.w3.org/2000/svg">
<g clip-path="url(#clip0_850_25121)">
<path d="M32 0H0V32H32V0Z" fill="#8C4FFF"/>
<path fill-rule="evenodd" clip-rule="evenodd" d="M23.8016 20.3982C23.8016 20.067 24.0704 19.7982 24.4016 19.7982C24.7328 19.7982 25.0016 20.067 25.0016 20.3982C25.0016 20.7294 24.7328 20.9982 24.4016 20.9982C24.0704 20.9982 23.8016 20.7294 23.8016 20.3982ZM26.1464 26.1726C25.9968 26.3254 25.7816 26.3998 25.4888 26.3998C24.7032 26.3998 23.776 24.1838 23.2776 22.9926C23.2712 22.9782 23.2664 22.9654 23.26 22.951C23.6088 23.1078 23.9936 23.1998 24.4 23.1998C25.184 23.1998 25.8912 22.8734 26.4001 22.3526V25.4726C26.4001 25.4766 26.4056 25.9078 26.1464 26.1726ZM16.112 26.3998C15.8192 26.3998 15.6032 26.3254 15.4544 26.1726C15.1944 25.9078 15.2 25.4766 15.2 25.4614V22.3526C15.7088 22.8734 16.4168 23.1998 17.2 23.1998C17.6072 23.1998 17.9912 23.1078 18.3408 22.951C18.3344 22.9654 18.3288 22.9782 18.3232 22.9926C17.8248 24.1838 16.8968 26.3998 16.112 26.3998ZM17.2 18.3998C18.3032 18.3998 19.2 19.2966 19.2 20.3998C19.2 21.5022 18.3032 22.3998 17.2 22.3998C16.0968 22.3998 15.2 21.5022 15.2 20.3998C15.2 19.2966 16.0968 18.3998 17.2 18.3998ZM21.8808 21.5998H19.7192C19.8944 21.2342 20 20.831 20 20.3998C20 19.9686 19.8944 19.5646 19.7192 19.1998H21.8808C21.7064 19.5646 21.6 19.9686 21.6 20.3998C21.6 20.831 21.7064 21.2342 21.8808 21.5998ZM24.4 18.3998C25.5032 18.3998 26.4 19.2966 26.4 20.3998C26.4 21.5022 25.5032 22.3998 24.4 22.3998C23.2968 22.3998 22.4 21.5022 22.4 20.3998C22.4 19.2966 23.2968 18.3998 24.4 18.3998ZM27.2 25.4614V20.3998C27.2 18.8558 25.944 17.5998 24.4 17.5998C23.64 17.5998 22.952 17.9062 22.4472 18.3998H19.1536C18.6488 17.9062 17.96 17.5998 17.2 17.5998C15.6568 17.5998 14.4 18.8558 14.4 20.3998V25.4478C14.3976 25.5254 14.3888 26.2214 14.8752 26.7246C15.18 27.0398 15.5952 27.1998 16.112 27.1998C17.4296 27.1998 18.3344 25.0382 19.0608 23.3022C19.2032 22.9614 19.3328 22.651 19.4504 22.3998H22.1504C22.2672 22.651 22.3968 22.9614 22.5392 23.3022C23.2656 25.0382 24.1704 27.1998 25.4888 27.1998C26.0048 27.1998 26.4208 27.0398 26.7256 26.7246C27.212 26.2214 27.2024 25.5254 27.2 25.4614ZM16.8 20.7998H16V19.9998H16.8V19.1998H17.6V19.9998H18.4V20.7998H17.6V21.5998H16.8V20.7998ZM7.77845 19.495C8.38725 19.1726 9.08485 18.9054 9.84965 18.6966C10.2712 20.0246 10.8632 21.1206 11.5752 21.8742C10.096 21.4406 8.79205 20.6046 7.77845 19.495ZM7.26005 18.8678C6.29845 17.5822 5.70245 16.0126 5.62085 14.3062H9.16325C9.19205 15.6102 9.35605 16.8326 9.63125 17.9286C8.75205 18.1694 7.95125 18.4846 7.26005 18.8678ZM7.26005 8.9454C7.95125 9.3286 8.75125 9.6438 9.63125 9.8846C9.35605 10.9806 9.19205 12.203 9.16325 13.5062H5.62085C5.70245 11.8006 6.29765 10.231 7.26005 8.9454ZM11.5752 5.939C10.8624 6.6926 10.2712 7.7886 9.84885 9.1166C9.08485 8.9086 8.38645 8.6422 7.77765 8.3198C8.79045 7.2094 10.096 6.3726 11.5752 5.939ZM13.9072 5.5998C15.248 5.5998 16.4584 7.0886 17.1768 9.3054C16.156 9.5182 15.052 9.6366 13.9072 9.6366C12.7608 9.6366 11.6568 9.5182 10.6376 9.3062C11.356 7.0886 12.5664 5.5998 13.9072 5.5998ZM20.0352 8.3182C19.4272 8.6406 18.7288 8.9078 17.9648 9.1166C17.5432 7.7886 16.9512 6.6926 16.2392 5.939C17.7184 6.3726 19.0224 7.2086 20.0352 8.3182ZM20.5544 8.9454C21.5168 10.231 22.112 11.8006 22.1936 13.5062H18.6504C18.6216 12.203 18.4576 10.9798 18.1824 9.8838C19.0624 9.643 19.8632 9.3278 20.5544 8.9454ZM9.96325 13.5062C9.99285 12.2814 10.152 11.1166 10.4176 10.075C11.508 10.307 12.6872 10.4366 13.9072 10.4366C15.1256 10.4366 16.3048 10.307 17.396 10.075C17.6616 11.1158 17.8208 12.2814 17.8504 13.5062H9.96325ZM13.6 22.171C12.384 21.963 11.3008 20.5534 10.6376 18.5078C11.6576 18.295 12.7624 18.1758 13.9072 18.1758C13.9344 18.1758 13.96 18.1798 13.9864 18.1798V17.3782C13.96 17.3782 13.9336 17.3758 13.9072 17.3758C12.6888 17.3758 11.5096 17.5054 10.4176 17.7382C10.152 16.6966 9.99285 15.5318 9.96325 14.3062H17.8504C17.8296 15.1758 17.74 16.0134 17.5968 16.7998H18.4128C18.5464 16.0126 18.6312 15.1798 18.6504 14.3062H22.1936C22.152 15.1806 21.9736 16.0174 21.6816 16.7998H22.5352C22.8416 15.8894 23.0144 14.919 23.0144 13.9062C23.0144 8.88541 18.9288 4.7998 13.9072 4.7998C8.88565 4.7998 4.80005 8.88541 4.80005 13.9062C4.80005 18.8246 8.72085 22.8342 13.6 22.9982V22.171Z" fill="white"/>
</g>
<defs>
<clipPath id="clip0_850_25121">
<rect width="32" height="32" fill="white"/>
</clipPath>
</defs>
</svg>
