<svg width="32" height="32" viewBox="0 0 32 32" fill="none" xmlns="http://www.w3.org/2000/svg">
<g clip-path="url(#clip0_850_25115)">
<path d="M32 0H0V32H32V0Z" fill="#8C4FFF"/>
<path fill-rule="evenodd" clip-rule="evenodd" d="M23.8048 20.3982C23.8048 20.067 24.0736 19.7982 24.4048 19.7982C24.736 19.7982 25.0048 20.067 25.0048 20.3982C25.0048 20.7294 24.736 20.9982 24.4048 20.9982C24.0736 20.9982 23.8048 20.7294 23.8048 20.3982ZM26.1496 26.1726C26 26.3254 25.7848 26.3998 25.492 26.3998C24.7064 26.3998 23.7792 24.1838 23.2808 22.9926C23.2744 22.9782 23.2696 22.9654 23.2632 22.951C23.612 23.1078 23.9968 23.1998 24.4032 23.1998C25.1872 23.1998 25.8944 22.8734 26.4033 22.3526V25.4726C26.4033 25.4766 26.4088 25.9078 26.1496 26.1726ZM16.1152 26.3998C15.8224 26.3998 15.6064 26.3254 15.4576 26.1726C15.1976 25.9078 15.2032 25.4766 15.2032 25.4614V22.3526C15.712 22.8734 16.42 23.1998 17.2032 23.1998C17.6104 23.1998 17.9944 23.1078 18.344 22.951C18.3376 22.9654 18.332 22.9782 18.3264 22.9926C17.828 24.1838 16.9 26.3998 16.1152 26.3998ZM17.2032 18.3998C18.3064 18.3998 19.2032 19.2966 19.2032 20.3998C19.2032 21.5022 18.3064 22.3998 17.2032 22.3998C16.1 22.3998 15.2032 21.5022 15.2032 20.3998C15.2032 19.2966 16.1 18.3998 17.2032 18.3998ZM21.884 21.5998H19.7224C19.8976 21.2342 20.0032 20.831 20.0032 20.3998C20.0032 19.9686 19.8976 19.5646 19.7224 19.1998H21.884C21.7096 19.5646 21.6032 19.9686 21.6032 20.3998C21.6032 20.831 21.7096 21.2342 21.884 21.5998ZM24.4032 18.3998C25.5064 18.3998 26.4032 19.2966 26.4032 20.3998C26.4032 21.5022 25.5064 22.3998 24.4032 22.3998C23.3 22.3998 22.4032 21.5022 22.4032 20.3998C22.4032 19.2966 23.3 18.3998 24.4032 18.3998ZM27.2032 25.4614V20.3998C27.2032 18.8558 25.9472 17.5998 24.4032 17.5998C23.6432 17.5998 22.9552 17.9062 22.4504 18.3998H19.1568C18.652 17.9062 17.9632 17.5998 17.2032 17.5998C15.66 17.5998 14.4032 18.8558 14.4032 20.3998V25.4478C14.4008 25.5254 14.392 26.2214 14.8784 26.7246C15.1832 27.0398 15.5984 27.1998 16.1152 27.1998C17.4328 27.1998 18.3376 25.0382 19.064 23.3022C19.2064 22.9614 19.336 22.651 19.4536 22.3998H22.1536C22.2704 22.651 22.4 22.9614 22.5424 23.3022C23.2688 25.0382 24.1736 27.1998 25.492 27.1998C26.008 27.1998 26.424 27.0398 26.7288 26.7246C27.2152 26.2214 27.2056 25.5254 27.2032 25.4614ZM16.8032 20.7998H16.0032V19.9998H16.8032V19.1998H17.6032V19.9998H18.4032V20.7998H17.6032V21.5998H16.8032V20.7998ZM17.7888 6.5686C17.9888 6.8814 18.2544 7.147 18.5664 7.347C18.2544 7.547 17.9888 7.8134 17.7888 8.1254C17.5888 7.8134 17.3232 7.547 17.0104 7.347C17.3232 7.147 17.5888 6.8814 17.7888 6.5686ZM15.6408 7.747C16.604 7.747 17.3888 8.531 17.3888 9.4942C17.3888 9.7158 17.5672 9.8942 17.7888 9.8942C18.0096 9.8942 18.1888 9.7158 18.1888 9.4942C18.1888 8.531 18.9728 7.747 19.936 7.747C20.1576 7.747 20.336 7.5686 20.336 7.347C20.336 7.1262 20.1576 6.947 19.936 6.947C18.9728 6.947 18.1888 6.163 18.1888 5.1998C18.1888 4.9782 18.0096 4.7998 17.7888 4.7998C17.5672 4.7998 17.3888 4.9782 17.3888 5.1998C17.3888 6.163 16.604 6.947 15.6408 6.947C15.42 6.947 15.2408 7.1262 15.2408 7.347C15.2408 7.5686 15.42 7.747 15.6408 7.747ZM10.5168 18.163C9.91685 16.5382 8.69125 15.2262 7.18325 14.5998C8.69125 13.9726 9.91685 12.6614 10.5168 11.0366C11.1168 12.6614 12.3424 13.9726 13.8504 14.5998C12.3424 15.2262 11.1168 16.5382 10.5168 18.163ZM16.2328 14.5998C16.2328 14.3782 16.0544 14.1998 15.8328 14.1998C13.168 14.1998 10.9168 11.7262 10.9168 8.7998C10.9168 8.5782 10.7376 8.3998 10.5168 8.3998C10.296 8.3998 10.1168 8.5782 10.1168 8.7998C10.1168 11.7262 7.86485 14.1998 5.20005 14.1998C4.97925 14.1998 4.80005 14.3782 4.80005 14.5998C4.80005 14.8206 4.97925 14.9998 5.20005 14.9998C7.86485 14.9998 10.1168 17.4726 10.1168 20.3998C10.1168 20.6206 10.296 20.7998 10.5168 20.7998C10.7376 20.7998 10.9168 20.6206 10.9168 20.3998C10.9168 17.4726 13.168 14.9998 15.8328 14.9998C16.0544 14.9998 16.2328 14.8206 16.2328 14.5998ZM24.0072 11.5582C24.2984 12.0822 24.732 12.5158 25.2568 12.807C24.732 13.0982 24.2984 13.5318 24.0072 14.0558C23.7168 13.5318 23.2824 13.0982 22.7592 12.807C23.2824 12.5158 23.7168 12.0822 24.0072 11.5582ZM21.212 13.207C22.5328 13.207 23.6072 14.2822 23.6072 15.603C23.6072 15.8238 23.7864 16.003 24.0072 16.003C24.2288 16.003 24.4072 15.8238 24.4072 15.603C24.4072 14.2822 25.4824 13.207 26.8032 13.207C27.0248 13.207 27.2032 13.0278 27.2032 12.807C27.2032 12.5862 27.0248 12.407 26.8032 12.407C25.4824 12.407 24.4072 11.3326 24.4072 10.011C24.4072 9.7902 24.2288 9.611 24.0072 9.611C23.7864 9.611 23.6072 9.7902 23.6072 10.011C23.6072 11.3326 22.5328 12.407 21.212 12.407C20.9912 12.407 20.812 12.5862 20.812 12.807C20.812 13.0278 20.9912 13.207 21.212 13.207Z" fill="white"/>
</g>
<defs>
<clipPath id="clip0_850_25115">
<rect width="32" height="32" fill="white"/>
</clipPath>
</defs>
</svg>
