<svg width="32" height="32" viewBox="0 0 32 32" fill="none" xmlns="http://www.w3.org/2000/svg">
<g clip-path="url(#clip0_850_25127)">
<path d="M32 0H0V32H32V0Z" fill="#8C4FFF"/>
<path fill-rule="evenodd" clip-rule="evenodd" d="M23.8016 20.3985C23.8016 20.0673 24.0704 19.7985 24.4016 19.7985C24.7328 19.7985 25.0016 20.0673 25.0016 20.3985C25.0016 20.7297 24.7328 20.9985 24.4016 20.9985C24.0704 20.9985 23.8016 20.7297 23.8016 20.3985ZM26.1464 26.1729C25.9968 26.3257 25.7816 26.4001 25.4888 26.4001C24.7032 26.4001 23.776 24.1841 23.2776 22.9929C23.2712 22.9785 23.2664 22.9657 23.26 22.9513C23.6088 23.1081 23.9936 23.2001 24.4 23.2001C25.184 23.2001 25.8912 22.8737 26.4001 22.3529V25.4729C26.4001 25.4769 26.4056 25.9081 26.1464 26.1729ZM16.112 26.4001C15.8192 26.4001 15.6032 26.3257 15.4544 26.1729C15.1944 25.9081 15.2 25.4769 15.2 25.4617V22.3529C15.7088 22.8737 16.4168 23.2001 17.2 23.2001C17.6072 23.2001 17.9912 23.1081 18.3408 22.9513C18.3344 22.9657 18.3288 22.9785 18.3232 22.9929C17.8248 24.1841 16.8968 26.4001 16.112 26.4001ZM17.2 18.4001C18.3032 18.4001 19.2 19.2969 19.2 20.4001C19.2 21.5025 18.3032 22.4001 17.2 22.4001C16.0968 22.4001 15.2 21.5025 15.2 20.4001C15.2 19.2969 16.0968 18.4001 17.2 18.4001ZM21.8808 21.6001H19.7192C19.8944 21.2345 20 20.8313 20 20.4001C20 19.9689 19.8944 19.5649 19.7192 19.2001H21.8808C21.7064 19.5649 21.6 19.9689 21.6 20.4001C21.6 20.8313 21.7064 21.2345 21.8808 21.6001ZM24.4 18.4001C25.5032 18.4001 26.4 19.2969 26.4 20.4001C26.4 21.5025 25.5032 22.4001 24.4 22.4001C23.2968 22.4001 22.4 21.5025 22.4 20.4001C22.4 19.2969 23.2968 18.4001 24.4 18.4001ZM27.2 25.4617V20.4001C27.2 18.8561 25.944 17.6001 24.4 17.6001C23.64 17.6001 22.952 17.9065 22.4472 18.4001H19.1536C18.6488 17.9065 17.96 17.6001 17.2 17.6001C15.6568 17.6001 14.4 18.8561 14.4 20.4001V25.4481C14.3976 25.5257 14.3888 26.2217 14.8752 26.7249C15.18 27.0401 15.5952 27.2001 16.112 27.2001C17.4296 27.2001 18.3344 25.0385 19.0608 23.3025C19.2032 22.9617 19.3328 22.6513 19.4504 22.4001H22.1504C22.2672 22.6513 22.3968 22.9617 22.5392 23.3025C23.2656 25.0385 24.1704 27.2001 25.4888 27.2001C26.0048 27.2001 26.4208 27.0401 26.7256 26.7249C27.212 26.2217 27.2024 25.5257 27.2 25.4617ZM16.8 20.8001H16V20.0001H16.8V19.2001H17.6V20.0001H18.4V20.8001H17.6V21.6001H16.8V20.8001ZM5.60005 12.8001V11.7841L8.14805 9.6001H23.8528L26.4 11.7841V12.8001H26H22.4V11.6001C22.4 11.3785 22.2216 11.2001 22 11.2001H19.6C19.3792 11.2001 19.2 11.3785 19.2 11.6001V12.8001H12.8V11.6001C12.8 11.3785 12.6216 11.2001 12.4 11.2001H10C9.77925 11.2001 9.60005 11.3785 9.60005 11.6001V12.8001H6.00005H5.60005ZM12 8.8001H20V6.4001H12V8.8001ZM20 15.2001H21.6V12.0001H20V15.2001ZM10.4 15.2001H12V12.0001H10.4V15.2001ZM6.40005 20.4001V13.6001H9.60005V15.6001C9.60005 15.8209 9.77925 16.0001 10 16.0001H12.4C12.6216 16.0001 12.8 15.8209 12.8 15.6001V13.6001H19.2V15.6001C19.2 15.8209 19.3792 16.0001 19.6 16.0001H22C22.2216 16.0001 22.4 15.8209 22.4 15.6001V13.6001H25.6V16.7993H26.4V13.6001H26.8C27.0216 13.6001 27.2 13.4209 27.2 13.2001V11.6001C27.2 11.4833 27.1496 11.3721 27.06 11.2961L24.26 8.8961C24.188 8.8337 24.0952 8.8001 24 8.8001H20.8V6.0001C20.8 5.7785 20.6216 5.6001 20.4 5.6001H11.6C11.3792 5.6001 11.2 5.7785 11.2 6.0001V8.8001H8.00005C7.90485 8.8001 7.81285 8.8337 7.74005 8.8961L4.94005 11.2961C4.85125 11.3721 4.80005 11.4833 4.80005 11.6001V13.2001C4.80005 13.4209 4.97925 13.6001 5.20005 13.6001H5.60005V20.4001C5.60005 21.1513 6.04885 21.6001 6.80005 21.6001H13.6008V20.8001H6.80005C6.49365 20.8001 6.40005 20.7065 6.40005 20.4001Z" fill="white"/>
</g>
<defs>
<clipPath id="clip0_850_25127">
<rect width="32" height="32" fill="white"/>
</clipPath>
</defs>
</svg>
