<svg width="32" height="32" viewBox="0 0 32 32" fill="none" xmlns="http://www.w3.org/2000/svg">
<g clip-path="url(#clip0_850_25109)">
<path d="M32 0H0V32H32V0Z" fill="#8C4FFF"/>
<path fill-rule="evenodd" clip-rule="evenodd" d="M24.4016 20.9982C24.7328 20.9982 25.0016 20.7294 25.0016 20.3982C25.0016 20.067 24.7328 19.7982 24.4016 19.7982C24.0704 19.7982 23.8016 20.067 23.8016 20.3982C23.8016 20.7294 24.0704 20.9982 24.4016 20.9982ZM26.4001 25.4726V22.3526C25.8912 22.8734 25.184 23.1998 24.4 23.1998C23.9936 23.1998 23.6088 23.1078 23.26 22.951C23.2664 22.9654 23.2712 22.9782 23.2776 22.9926C23.776 24.1838 24.7032 26.3998 25.4888 26.3998C25.7816 26.3998 25.9968 26.3254 26.1464 26.1726C26.4056 25.9078 26.4001 25.4766 26.4001 25.4726ZM18.3232 22.9926C18.3288 22.9782 18.3344 22.9654 18.3408 22.951C17.9912 23.1078 17.6072 23.1998 17.2 23.1998C16.4168 23.1998 15.7088 22.8734 15.2 22.3526V25.4614C15.2 25.4766 15.1944 25.9078 15.4544 26.1726C15.6032 26.3254 15.8192 26.3998 16.112 26.3998C16.8968 26.3998 17.8248 24.1838 18.3232 22.9926ZM15.2 20.3998C15.2 21.5022 16.0968 22.3998 17.2 22.3998C18.3032 22.3998 19.2 21.5022 19.2 20.3998C19.2 19.2966 18.3032 18.3998 17.2 18.3998C16.0968 18.3998 15.2 19.2966 15.2 20.3998ZM21.6 20.3998C21.6 19.9686 21.7064 19.5646 21.8808 19.1998H19.7192C19.8944 19.5646 20 19.9686 20 20.3998C20 20.831 19.8944 21.2342 19.7192 21.5998H21.8808C21.7064 21.2342 21.6 20.831 21.6 20.3998ZM22.4 20.3998C22.4 21.5022 23.2968 22.3998 24.4 22.3998C25.5032 22.3998 26.4 21.5022 26.4 20.3998C26.4 19.2966 25.5032 18.3998 24.4 18.3998C23.2968 18.3998 22.4 19.2966 22.4 20.3998ZM26.7256 26.7246C26.4208 27.0398 26.0048 27.1998 25.4888 27.1998C24.1704 27.1998 23.2656 25.0382 22.5392 23.3022C22.3968 22.9614 22.2672 22.651 22.1504 22.3998H19.4504C19.3328 22.651 19.2032 22.9614 19.0608 23.3022C18.3344 25.0382 17.4296 27.1998 16.112 27.1998C15.5952 27.1998 15.18 27.0398 14.8752 26.7246C14.3888 26.2214 14.3976 25.5254 14.4 25.4478V20.3998C14.4 18.8558 15.6568 17.5998 17.2 17.5998C17.96 17.5998 18.6488 17.9062 19.1536 18.3998H22.4472C22.952 17.9062 23.64 17.5998 24.4 17.5998C25.944 17.5998 27.2 18.8558 27.2 20.3998V25.4614C27.2024 25.5254 27.212 26.2214 26.7256 26.7246ZM16.8 21.5998H17.6V20.7998H18.4V19.9998H17.6V19.1998H16.8V19.9998H16V20.7998H16.8V21.5998ZM21.9392 16.8566C21.98 16.5734 22 16.2854 22 15.9998C22 12.691 19.3088 9.9998 16 9.9998C12.692 9.9998 10 12.691 10 15.9998C10 18.1982 11.2008 20.219 13.1336 21.2718L13.5168 20.5694C11.8408 19.6566 10.8 17.9054 10.8 15.9998C10.8 13.1326 13.1328 10.7998 16 10.7998C18.8672 10.7998 21.2 13.1326 21.2 15.9998C21.2 16.2478 21.1824 16.4974 21.1472 16.743L21.9392 16.8566ZM12.5136 24.2822C12.9072 24.575 13.28 24.851 13.7024 24.963L13.4976 25.7366C12.9264 25.5854 12.4744 25.2494 12.0368 24.9254C11.9088 24.8302 11.7808 24.7358 11.6512 24.6462L10.556 25.7414C10.3952 25.9022 10.1816 25.9902 9.95445 25.9902C9.72725 25.9902 9.51365 25.9022 9.35365 25.7414L6.80805 23.1966C6.64725 23.0358 6.55925 22.8222 6.55925 22.595C6.55925 22.3678 6.64805 22.1542 6.80805 21.9942L7.91605 20.887C7.62565 20.3478 7.39125 19.7822 7.21525 19.1998H5.65045C5.18165 19.1998 4.80005 18.8182 4.80005 18.3494V14.4494C4.80005 13.9806 5.18165 13.5998 5.65045 13.5998H7.05605C7.22405 12.9654 7.44885 12.3502 7.72805 11.763L6.63045 10.511C6.35125 10.191 6.35125 9.7102 6.62965 9.3902L9.00965 6.6782C9.33125 6.3102 9.96565 6.3102 10.288 6.6782L11.2584 7.7854C11.752 7.4862 12.268 7.243 12.8 7.0606V5.6494C12.8 5.1806 13.1816 4.7998 13.6504 4.7998H17.5504C18.0192 4.7998 18.4 5.1806 18.4 5.6494V7.279C19.0328 7.4622 19.6472 7.7086 20.232 8.015L21.46 6.831C21.7896 6.5126 22.3088 6.5118 22.6384 6.831L25.3856 9.4814C25.5528 9.643 25.6448 9.8598 25.6448 10.0926C25.6448 10.3254 25.5528 10.543 25.3848 10.7046L24.1968 11.851C24.508 12.4102 24.76 12.9958 24.948 13.5998H26.3504C26.8192 13.5998 27.2 13.9806 27.2 14.4494V17.5998H26.4V14.4494L24.6488 14.3998C24.4688 14.3998 24.3104 14.279 24.2624 14.1054C24.06 13.367 23.7536 12.655 23.3512 11.987C23.2552 11.827 23.2824 11.623 23.416 11.4926L24.8288 10.1286L22.0832 7.407L20.5768 8.7934C20.4504 8.9166 20.2576 8.9398 20.1032 8.855C19.4096 8.4654 18.6688 8.1686 17.9008 7.9726C17.7248 7.927 17.6 7.7678 17.6 7.5846V5.6494L13.6504 5.5998L13.6 7.3518C13.6 7.5278 13.4848 7.6838 13.316 7.7342C12.6496 7.935 12.0064 8.2398 11.404 8.6398C11.236 8.7486 11.0136 8.7206 10.8824 8.5702L9.68645 7.2062L7.23205 9.9174L8.50645 11.4366C8.61445 11.5598 8.63605 11.7366 8.56165 11.8822C8.20725 12.5774 7.93685 13.3198 7.75925 14.0902C7.71685 14.271 7.55525 14.3998 7.36885 14.3998H5.65045L5.60005 18.3494L7.51765 18.3998C7.69845 18.3998 7.85845 18.5222 7.90405 18.6974C8.09365 19.415 8.38165 20.107 8.75845 20.7542C8.84965 20.911 8.82405 21.1094 8.69525 21.2382L7.37365 22.5598L9.91925 25.1758L11.312 23.8542C11.4408 23.7254 11.6384 23.699 11.796 23.791C12.0432 23.935 12.2776 24.1078 12.5136 24.2822Z" fill="white"/>
</g>
<defs>
<clipPath id="clip0_850_25109">
<rect width="32" height="32" fill="white"/>
</clipPath>
</defs>
</svg>
