<svg width="32" height="32" viewBox="0 0 32 32" fill="none" xmlns="http://www.w3.org/2000/svg">
<g clip-path="url(#clip0_854_27818)">
<path d="M32 0H0V32H32V0Z" fill="#01A88D"/>
<path fill-rule="evenodd" clip-rule="evenodd" d="M12.2073 13.4281L15.4073 10.2281C15.5633 10.0721 15.8169 10.0721 15.9729 10.2281L19.1729 13.4281L18.6073 13.9937L15.6905 11.0769L12.7729 13.9937L12.2073 13.4281ZM15.9729 15.0281L19.1729 18.2281L18.6073 18.7937L15.6905 15.8769L12.7729 18.7937L12.2073 18.2281L15.4073 15.0281C15.5633 14.8721 15.8169 14.8721 15.9729 15.0281ZM19.1729 15.8281L18.6073 16.3937L15.6905 13.4769L12.7729 16.3937L12.2073 15.8281L15.4073 12.6281C15.5633 12.4721 15.8169 12.4721 15.9729 12.6281L19.1729 15.8281ZM21.3825 22.2481C20.9889 22.6425 20.3505 22.6409 19.9569 22.2481C19.5633 21.8553 19.5633 21.2153 19.9569 20.8225C20.1537 20.6257 20.4113 20.5281 20.6689 20.5281C20.9273 20.5281 21.1857 20.6265 21.3825 20.8225C21.7753 21.2153 21.7753 21.8553 21.3825 22.2481ZM16.4033 25.4657C16.0097 25.8585 15.3705 25.8585 14.9769 25.4657C14.7865 25.2753 14.6817 25.0217 14.6817 24.7529C14.6817 24.4833 14.7865 24.2297 14.9769 24.0401C15.1737 23.8433 15.4313 23.7449 15.6905 23.7449C15.9489 23.7449 16.2065 23.8433 16.4033 24.0401C16.5937 24.2297 16.6985 24.4833 16.6985 24.7529C16.6985 25.0217 16.5937 25.2753 16.4033 25.4657ZM9.9457 22.2505C9.5529 21.8577 9.5529 21.2177 9.9457 20.8249C10.1425 20.6281 10.4001 20.5297 10.6585 20.5297C10.9169 20.5297 11.1745 20.6281 11.3713 20.8249C11.7641 21.2177 11.7641 21.8577 11.3713 22.2505C10.9769 22.6449 10.3385 22.6433 9.9457 22.2505ZM19.3905 20.2569C18.7913 20.8553 18.7073 21.7705 19.1249 22.4649L17.0721 23.5993C17.0369 23.5585 17.0081 23.5129 16.9689 23.4745C16.2641 22.7689 15.1161 22.7689 14.4113 23.4745C14.3801 23.5057 14.3569 23.5425 14.3273 23.5761L12.2689 22.3417C12.6057 21.6649 12.4993 20.8225 11.9369 20.2593C11.2329 19.5553 10.0857 19.5545 9.3801 20.2593C8.6753 20.9641 8.6753 22.1113 9.3801 22.8161C9.7321 23.1689 10.1953 23.3449 10.6577 23.3449C11.0465 23.3449 11.4313 23.2129 11.7545 22.9649L13.9513 24.2825C13.9105 24.4345 13.8817 24.5905 13.8817 24.7529C13.8817 25.2353 14.0697 25.6897 14.4113 26.0313C14.7633 26.3841 15.2265 26.5601 15.6905 26.5601C16.1537 26.5601 16.6169 26.3841 16.9689 26.0313C17.3105 25.6897 17.4985 25.2353 17.4985 24.7529C17.4985 24.6009 17.4737 24.4545 17.4377 24.3113L19.7025 23.0601C19.9969 23.2465 20.3321 23.3433 20.6689 23.3433C21.1321 23.3433 21.5953 23.1665 21.9481 22.8137C22.6537 22.1089 22.6537 20.9617 21.9481 20.2569C21.2425 19.5513 20.0945 19.5521 19.3905 20.2569ZM23.7377 18.9249C23.1817 18.9249 22.7289 18.4729 22.7289 17.9169C22.7289 17.3609 23.1817 16.9081 23.7377 16.9081C24.2929 16.9081 24.7457 17.3609 24.7457 17.9169C24.7457 18.4729 24.2929 18.9249 23.7377 18.9249ZM22.9633 11.0769C22.9633 10.5201 23.4161 10.0681 23.9713 10.0681C24.5273 10.0681 24.9801 10.5201 24.9801 11.0769C24.9801 11.6321 24.5273 12.0849 23.9713 12.0849C23.4161 12.0849 22.9633 11.6321 22.9633 11.0769ZM18.2457 8.4777C17.6897 8.4777 17.2369 8.0249 17.2369 7.4689C17.2369 6.9129 17.6897 6.4609 18.2457 6.4609C18.8009 6.4609 19.2537 6.9129 19.2537 7.4689C19.2537 8.0249 18.8009 8.4777 18.2457 8.4777ZM24.4905 16.2777V12.8001C25.2329 12.5753 25.7801 11.8921 25.7801 11.0769C25.7801 10.0793 24.9681 9.2681 23.9713 9.2681C23.5057 9.2681 23.0857 9.4497 22.7649 9.7393L19.9577 8.0201C20.0153 7.8457 20.0537 7.6625 20.0537 7.4689C20.0537 6.4721 19.2425 5.6609 18.2457 5.6609C17.2489 5.6609 16.4369 6.4721 16.4369 7.4689C16.4369 8.4657 17.2489 9.2777 18.2457 9.2777C18.7609 9.2777 19.2241 9.0577 19.5545 8.7105L22.2993 10.3921C22.2137 10.6041 22.1633 10.8345 22.1633 11.0769C22.1633 11.9769 22.8273 12.7201 23.6905 12.8561V16.1129C22.7161 16.1393 21.9289 16.9361 21.9289 17.9169C21.9289 18.9137 22.7409 19.7249 23.7377 19.7249C24.7345 19.7249 25.5457 18.9137 25.5457 17.9169C25.5457 17.1889 25.1113 16.5641 24.4905 16.2777ZM7.6425 18.9249C7.0873 18.9249 6.6345 18.4729 6.6345 17.9169C6.6345 17.3609 7.0873 16.9081 7.6425 16.9081C8.1985 16.9081 8.6513 17.3609 8.6513 17.9169C8.6513 18.4729 8.1985 18.9249 7.6425 18.9249ZM6.4001 11.0769C6.4001 10.5201 6.8529 10.0681 7.4089 10.0681C7.9641 10.0681 8.4169 10.5201 8.4169 11.0769C8.4169 11.6321 7.9641 12.0849 7.4089 12.0849C6.8529 12.0849 6.4001 11.6321 6.4001 11.0769ZM13.1177 6.4001C13.6737 6.4001 14.1257 6.8529 14.1257 7.4089C14.1257 7.9641 13.6737 8.4169 13.1177 8.4169C12.5617 8.4169 12.1097 7.9641 12.1097 7.4089C12.1097 6.8529 12.5617 6.4001 13.1177 6.4001ZM9.4513 17.9169C9.4513 16.9361 8.6641 16.1393 7.6905 16.1129V12.8561C8.5529 12.7201 9.2169 11.9777 9.2169 11.0769C9.2169 10.8345 9.1665 10.6033 9.0809 10.3921L11.8449 8.6913C12.1721 9.0153 12.6217 9.2169 13.1177 9.2169C14.1145 9.2169 14.9257 8.4057 14.9257 7.4089C14.9257 6.4113 14.1145 5.6001 13.1177 5.6001C12.1209 5.6001 11.3097 6.4113 11.3097 7.4089C11.3097 7.6217 11.3537 7.8233 11.4217 8.0129L8.6153 9.7393C8.2945 9.4497 7.8745 9.2681 7.4089 9.2681C6.4121 9.2681 5.6001 10.0793 5.6001 11.0769C5.6001 11.8921 6.1473 12.5753 6.8905 12.8001V16.2777C6.2689 16.5641 5.8345 17.1889 5.8345 17.9169C5.8345 18.9137 6.6457 19.7249 7.6425 19.7249C8.6393 19.7249 9.4513 18.9137 9.4513 17.9169Z" fill="white"/>
</g>
<defs>
<clipPath id="clip0_854_27818">
<rect width="32" height="32" fill="white"/>
</clipPath>
</defs>
</svg>
