<svg width="32" height="32" viewBox="0 0 32 32" fill="none" xmlns="http://www.w3.org/2000/svg">
<g clip-path="url(#clip0_854_27807)">
<path d="M32 0H0V32H32V0Z" fill="#01A88D"/>
<path fill-rule="evenodd" clip-rule="evenodd" d="M27.148 14.5311C27.148 14.6631 27.1424 14.7927 27.1312 14.9215C26.94 17.1815 24.9376 18.9527 22.5728 18.9527V18.1527C24.5256 18.1527 26.1776 16.7031 26.3344 14.8535C26.344 14.7471 26.348 14.6391 26.348 14.5311C26.348 12.5799 25.0264 11.1079 23.2728 11.1079C23.052 11.1079 22.8728 10.9295 22.8728 10.7079C22.8728 9.3895 22.1568 7.9807 20.1448 7.9807H19.7976C19.652 7.9807 19.5176 7.9015 19.4472 7.7743C18.5552 6.1623 16.8664 5.1999 14.9312 5.1999C12.0864 5.1999 9.77125 7.5151 9.77125 10.3607C9.77125 10.5815 9.59285 10.7607 9.37125 10.7607C7.29205 10.7607 5.60005 12.4519 5.60005 14.5311C5.60005 14.9031 5.70245 18.1639 9.23365 18.1639V18.9639C6.17125 18.9639 4.80005 16.7375 4.80005 14.5311C4.80005 12.1415 6.64405 10.1743 8.98405 9.9775C9.18165 6.8679 11.7736 4.3999 14.9312 4.3999C17.0784 4.3999 18.9656 5.4343 20.028 7.1807H20.1448C22.1584 7.1807 23.5024 8.4023 23.6584 10.3271C25.6728 10.5239 27.148 12.2655 27.148 14.5311ZM21.8984 22.5575L23.7488 24.0023L19.68 27.1807H12.2936L8.22485 24.0023L10.0752 22.5575L10.5672 23.1879L9.52485 24.0023L12.568 26.3807H19.4048L22.4488 24.0023L21.4064 23.1879L21.8984 22.5575ZM21.8984 18.5575L23.7488 20.0023L19.68 23.1807H12.2936L8.22485 20.0023L10.0752 18.5575L10.5672 19.1879L9.52485 20.0023L12.568 22.3807H19.4048L22.4488 20.0023L21.4064 19.1879L21.8984 18.5575ZM12.5576 13.5807H19.4512L22.5224 15.9807L19.4512 18.3807H12.5576L9.48565 15.9807L12.5576 13.5807ZM19.7264 19.1807L23.8224 15.9807L19.7264 12.7807H12.2824L8.18565 15.9807L12.2824 19.1807H19.7264Z" fill="white"/>
</g>
<defs>
<clipPath id="clip0_854_27807">
<rect width="32" height="32" fill="white"/>
</clipPath>
</defs>
</svg>
