<svg width="32" height="32" viewBox="0 0 32 32" fill="none" xmlns="http://www.w3.org/2000/svg">
<g clip-path="url(#clip0_854_27829)">
<path d="M32 0H0V32H32V0Z" fill="#01A88D"/>
<path fill-rule="evenodd" clip-rule="evenodd" d="M25.3948 23.4471L20.187 18.3906C19.7101 19.0212 19.1416 19.5793 18.4998 20.049L23.5573 25.2791C23.7189 25.4391 23.9167 25.4861 24.1725 25.4216C24.4483 25.3515 24.7619 25.1533 25.0555 24.8619C25.3852 24.5355 25.8693 23.9168 25.3948 23.4471ZM13.6169 20.8516C17.6908 20.8516 21.0048 17.604 21.0048 13.6112C21.0048 9.63271 17.6908 6.39627 13.6169 6.39627C9.57191 6.39627 6.40427 9.56583 6.40427 13.6112C6.40427 17.6717 9.57191 20.8516 13.6169 20.8516ZM25.624 25.4248C25.2251 25.8205 24.7925 26.0864 24.3727 26.1931C24.236 26.2281 24.1009 26.2456 23.9698 26.2456C23.5967 26.2456 23.2549 26.1055 22.9823 25.8356L17.8195 20.4973C16.5883 21.2226 15.1545 21.6477 13.6169 21.6477C9.12157 21.6477 5.6001 18.1183 5.6001 13.6112C5.6001 9.11918 9.12157 5.6001 13.6169 5.6001C18.1339 5.6001 21.809 9.19402 21.809 13.6112C21.809 15.1136 21.3788 16.5156 20.6454 17.7194L25.961 22.8818C26.6509 23.5641 26.5199 24.5378 25.624 25.4248ZM18.5336 13.6112C18.5336 10.9376 16.3736 8.84291 13.6169 8.84291C10.9133 8.84291 8.87549 10.8931 8.87549 13.6112C8.87549 16.3444 10.9133 18.4049 13.6169 18.4049C16.3736 18.4049 18.5336 16.2999 18.5336 13.6112ZM19.3378 13.6112C19.3378 16.694 16.7709 19.2011 13.6169 19.2011C10.5072 19.2011 8.07132 16.7457 8.07132 13.6112C8.07132 10.4392 10.4557 8.04674 13.6169 8.04674C16.8247 8.04674 19.3378 10.491 19.3378 13.6112ZM16.4781 10.4161H11.2044V11.2123H16.0761V15.9997H16.8802V10.8142C16.8802 10.5937 16.7001 10.4161 16.4781 10.4161ZM11.2044 16.0252H15.2252V15.229H11.2044V16.0252ZM10.4002 14.479H15.2252V13.6828H10.4002V14.479ZM15.2011 25.6039H8.76774V21.5729H7.96356V26.002C7.96356 26.2218 8.1437 26.4001 8.36565 26.4001H15.6032C15.826 26.4001 16.0053 26.2218 16.0053 26.002V22.3691H15.2011V25.6039ZM10.4002 12.8405H15.2252V12.0443H10.4002V12.8405Z" fill="white"/>
</g>
<defs>
<clipPath id="clip0_854_27829">
<rect width="32" height="32" fill="white"/>
</clipPath>
</defs>
</svg>
