<svg width="32" height="32" viewBox="0 0 32 32" fill="none" xmlns="http://www.w3.org/2000/svg">
<g clip-path="url(#clip0_854_27823)">
<path d="M32 0H0V32H32V0Z" fill="#01A88D"/>
<path fill-rule="evenodd" clip-rule="evenodd" d="M16.3505 17.5287C15.6889 17.5287 15.1505 16.9903 15.1505 16.3287C15.1505 15.6671 15.6889 15.1287 16.3505 15.1287C17.0121 15.1287 17.5505 15.6671 17.5505 16.3287C17.5505 16.9903 17.0121 17.5287 16.3505 17.5287ZM16.3505 14.3287C15.2473 14.3287 14.3505 15.2263 14.3505 16.3287C14.3505 17.4311 15.2473 18.3287 16.3505 18.3287C17.4537 18.3287 18.3505 17.4311 18.3505 16.3287C18.3505 15.2263 17.4537 14.3287 16.3505 14.3287ZM19.5161 18.9119C19.4257 18.9519 19.3537 19.0247 19.3129 19.1151L16.3889 25.6935L13.4841 19.1575C13.4433 19.0671 13.3713 18.9951 13.2809 18.9543L6.9857 16.1567L13.4713 13.2743C13.5625 13.2335 13.6337 13.1615 13.6745 13.0711L16.3889 6.9639L19.1225 13.1135C19.1633 13.2039 19.2345 13.2767 19.3257 13.3167L25.7153 16.1567L19.5161 18.9119ZM23.0473 22.9975L19.1321 21.4919L19.9817 19.5807L21.4769 18.9159L23.0473 22.9975ZM9.6537 22.9031L11.1929 18.9023L12.8153 19.6231L13.5993 21.3863L9.6537 22.9031ZM9.8025 9.7543L13.6209 11.2223L13.0057 12.6055L11.2065 13.4047L9.8025 9.7543ZM22.8985 9.6599L21.4633 13.3911L19.7913 12.6479L19.1097 11.1159L22.8985 9.6599ZM26.8633 15.7911L22.1953 13.7159L23.9673 9.1071C24.0249 8.9591 23.9889 8.7919 23.8769 8.6799C23.7649 8.5679 23.5977 8.5319 23.4505 8.5895L18.7849 10.3839L16.7545 5.8167C16.6265 5.5279 16.1513 5.5279 16.0233 5.8167L13.9457 10.4903L9.2505 8.6839C9.1033 8.6271 8.9353 8.6623 8.8241 8.7751C8.7121 8.8863 8.6761 9.0535 8.7337 9.2015L10.4745 13.7303L5.8377 15.7911C5.6937 15.8551 5.6001 15.9983 5.6001 16.1567C5.6001 16.3143 5.6937 16.4575 5.8377 16.5223L10.4609 18.5767L8.5841 23.4559C8.5273 23.6039 8.5633 23.7711 8.6745 23.8823C8.7513 23.9591 8.8537 23.9999 8.9577 23.9999C9.0057 23.9999 9.0545 23.9911 9.1009 23.9735L13.9241 22.1183L16.0233 26.8407C16.0873 26.9855 16.2313 27.0783 16.3889 27.0783C16.5465 27.0783 16.6905 26.9855 16.7545 26.8407L18.8065 22.2247L23.6001 24.0679C23.6465 24.0855 23.6953 24.0943 23.7433 24.0943C23.8473 24.0943 23.9497 24.0535 24.0265 23.9775C24.1377 23.8655 24.1737 23.6983 24.1169 23.5503L22.2089 18.5911L26.8633 16.5223C27.0073 16.4575 27.1009 16.3143 27.1009 16.1567C27.1009 15.9983 27.0073 15.8551 26.8633 15.7911Z" fill="white"/>
</g>
<defs>
<clipPath id="clip0_854_27823">
<rect width="32" height="32" fill="white"/>
</clipPath>
</defs>
</svg>
