<svg width="32" height="32" viewBox="0 0 32 32" fill="none" xmlns="http://www.w3.org/2000/svg">
<g clip-path="url(#clip0_854_27813)">
<path d="M32 0H0V32H32V0Z" fill="#01A88D"/>
<path fill-rule="evenodd" clip-rule="evenodd" d="M25.9855 10.5531C25.9239 10.7027 25.7775 10.8003 25.6159 10.8003H23.1975V14.0003H24.3999C24.6207 14.0003 24.7999 14.1787 24.7999 14.4003V25.6003C24.7999 25.8211 24.6207 26.0003 24.3999 26.0003H7.5999C6.9375 26.0003 6.3999 25.4619 6.3999 24.8003V11.2003C6.3999 10.9787 6.5783 10.8003 6.7999 10.8003H11.6967C11.8263 10.8003 11.9471 10.8627 12.0223 10.9683L13.0391 12.4003H15.1999V13.2003H12.8335C12.7031 13.2003 12.5823 13.1371 12.5071 13.0315L11.4903 11.6003H7.1999V24.8003C7.1999 25.0203 7.3791 25.2003 7.5999 25.2003C7.8199 25.2003 7.9999 25.0203 7.9999 24.8003V14.4003C7.9999 14.1787 8.1783 14.0003 8.3999 14.0003H15.1999V14.8003H8.7999V24.8003C8.7999 24.9411 8.7703 25.0739 8.7263 25.2003H23.9999V14.8003H23.2159H22.4159H21.5999V14.0003H22.3975V10.4003C22.3975 10.1787 22.5759 10.0003 22.7975 10.0003H24.6503L21.2159 6.5659L17.7815 10.0003H19.6015C19.8223 10.0003 20.0015 10.1787 20.0015 10.4003V12.4003V14.8003V15.6003H22.4159C22.5775 15.6003 22.7239 15.6971 22.7855 15.8467C22.8471 15.9963 22.8127 16.1683 22.6991 16.2827L18.2991 20.6827C18.2207 20.7611 18.1183 20.8003 18.0159 20.8003C17.9135 20.8003 17.8111 20.7611 17.7335 20.6827L13.3335 16.2827C13.2191 16.1683 13.1847 15.9963 13.2463 15.8467C13.3079 15.6971 13.4543 15.6003 13.6159 15.6003H15.9999V12.4003H16.7999V16.0003C16.7999 16.2211 16.6207 16.4003 16.3999 16.4003H14.5815L18.0159 19.8347L21.4503 16.4003H19.6015C19.3799 16.4003 19.2015 16.2211 19.2015 16.0003V14.8003V12.4003V10.8003H16.8159C16.6543 10.8003 16.5079 10.7027 16.4463 10.5531C16.3847 10.4035 16.4191 10.2315 16.5335 10.1171L20.9335 5.7171C21.0895 5.5611 21.3423 5.5611 21.4991 5.7171L25.8991 10.1171C26.0127 10.2315 26.0471 10.4035 25.9855 10.5531Z" fill="white"/>
</g>
<defs>
<clipPath id="clip0_854_27813">
<rect width="32" height="32" fill="white"/>
</clipPath>
</defs>
</svg>
