<svg width="32" height="32" viewBox="0 0 32 32" fill="none" xmlns="http://www.w3.org/2000/svg">
<g clip-path="url(#clip0_854_27802)">
<path d="M32 0H0V32H32V0Z" fill="#01A88D"/>
<path fill-rule="evenodd" clip-rule="evenodd" d="M23.8272 13.4693C23.4686 11.7825 22.5728 10.6331 21.3379 10.295C20.5286 10.073 19.6711 10.2457 18.9619 10.7437C18.8486 10.1085 18.6155 9.39826 18.1134 8.80988C16.6585 7.10768 13.3142 6.67426 11.0938 7.90188C9.14494 8.97937 8.4513 11.299 8.4513 13.1094V13.5589C7.25637 13.9221 6.01254 14.7107 6.01254 17.107H6.82763C6.82763 15.1893 7.6794 14.5807 8.95992 14.2563C9.14005 14.2103 9.26639 14.0496 9.26639 13.8656V13.1094C9.26639 11.6001 9.84918 9.51448 11.4916 8.60649C13.5513 7.46765 16.4066 8.06169 17.4915 9.33127C17.93 9.84459 18.1705 10.5661 18.2455 11.6001C18.2577 11.7639 18.3694 11.9043 18.5259 11.9552C18.6864 12.0068 18.8568 11.9568 18.9636 11.8317C19.5398 11.157 20.3696 10.8664 21.1211 11.073C22.1123 11.345 22.8279 12.383 23.0839 13.9221C23.1157 14.1166 23.286 14.2595 23.4857 14.2595C23.6047 14.2595 26.385 14.2926 26.385 17.107C26.385 20.6502 23.643 20.7349 23.5322 20.7374H21.0738V21.5445H23.5354C23.5721 21.5437 27.2001 21.4654 27.2001 17.107C27.2001 14.4564 25.1567 13.5944 23.8272 13.4693ZM16.4661 16.8196C16.3447 16.7196 16.1743 16.6978 16.0325 16.7656C15.8898 16.8317 15.7986 16.9738 15.7986 17.1304V18.3096H14.1586V19.1167H16.2061C16.4319 19.1167 16.6137 18.9359 16.6137 18.7131V17.9875L19.0051 19.9448L16.6137 21.9246V21.1191C16.6137 20.8955 16.4319 20.7156 16.2061 20.7156H10.0831V20.312C10.0831 20.1627 9.99998 20.0255 9.86712 19.9553C9.73263 19.885 9.57124 19.8931 9.44734 19.9771L5.77942 22.4218C5.66694 22.4969 5.6001 22.6228 5.6001 22.7576C5.6001 22.8915 5.66857 23.0174 5.78023 23.0917L9.46772 25.5324C9.53619 25.5776 9.61444 25.6002 9.69432 25.6002C9.76034 25.6002 9.82636 25.5849 9.88586 25.5526C10.0195 25.4824 10.1019 25.346 10.1019 25.1966V24.7673H11.7133V23.9601H9.69432C9.46935 23.9601 9.28677 24.1401 9.28677 24.3637V24.442L6.73878 22.7551L9.26802 21.0699V21.1191C9.26802 21.3419 9.44979 21.5227 9.67557 21.5227H15.7986V22.7874C15.7986 22.9448 15.8907 23.0869 16.0333 23.1538C16.1759 23.2192 16.3455 23.1982 16.4678 23.0973L19.9042 20.2523C19.9971 20.1756 20.0501 20.061 20.0501 19.9415C20.0501 19.8221 19.9955 19.7083 19.9026 19.6316L16.4661 16.8196ZM12.5284 24.76H14.1586V23.9529H12.5284V24.76ZM14.9729 24.76L19.8634 24.7648L19.8651 23.9577L14.9745 23.9529L14.9729 24.76ZM6.00764 19.1183H10.8982V18.3112H6.00764V19.1183ZM11.7133 19.1183H12.5284V18.3112H11.7133V19.1183Z" fill="white"/>
</g>
<defs>
<clipPath id="clip0_854_27802">
<rect width="32" height="32" fill="white"/>
</clipPath>
</defs>
</svg>
