<svg width="32" height="32" viewBox="0 0 32 32" fill="none" xmlns="http://www.w3.org/2000/svg">
<g clip-path="url(#clip0_854_27834)">
<path d="M32 0H0V32H32V0Z" fill="#01A88D"/>
<path fill-rule="evenodd" clip-rule="evenodd" d="M23.6736 14.1917C23.5008 12.7277 22.7304 11.6669 21.5792 11.3301C20.7392 11.0845 19.8568 11.2885 19.1904 11.8469C18.84 11.0581 18.3808 10.3765 17.8208 9.81412C16.0168 8.00452 13.5472 7.51332 11.216 8.50052C9.22725 9.34292 7.72725 11.6685 7.72725 13.9093C7.72725 14.0413 7.73125 14.1717 7.74005 14.3005C6.65365 14.6589 4.80005 15.6725 4.80005 18.4141C4.80005 18.5605 4.80645 18.7029 4.81765 18.8397C4.98485 20.9773 6.00725 22.3853 7.62405 22.7021L7.77685 21.9165C6.08405 21.5853 5.69525 19.8077 5.61445 18.7765C5.60485 18.6597 5.60005 18.5389 5.60005 18.4141C5.60005 16.0181 7.27125 15.2341 8.26645 14.9805C8.46085 14.9309 8.58965 14.7445 8.56485 14.5453C8.54085 14.3381 8.52725 14.1253 8.52725 13.9093C8.52725 12.0021 9.84565 9.95012 11.528 9.23732C14.4384 8.00452 16.5024 9.62532 17.2536 10.3789C17.8656 10.9933 18.344 11.7773 18.6728 12.7101C18.7224 12.8493 18.8448 12.9509 18.9904 12.9725C19.1408 12.9909 19.2832 12.9333 19.372 12.8149C19.8512 12.1669 20.6296 11.8853 21.3552 12.0981C22.2376 12.3565 22.8152 13.2565 22.896 14.4653C22.8656 14.6797 23.0112 14.8797 23.224 14.9165C24.1792 15.0805 26.4 15.7533 26.4 18.4469C26.4 21.6581 23.2928 22.0381 23.1936 22.0477H18.1104V22.7685L23.2256 22.7717C23.2656 22.7677 27.2 22.4029 27.2 18.4469C27.2 15.3797 24.8008 14.4565 23.6736 14.1917ZM14.1104 20.4477H14.9104V17.2477H11.7104V18.0477H13.5448L8.22725 23.3653L8.79285 23.9309L14.1104 18.6133V20.4477ZM20.5104 17.0133L13.5928 23.9309L13.0272 23.3653L19.9448 16.4477H16.5104V15.6477H21.3104V20.4477H20.5104V17.0133Z" fill="white"/>
</g>
<defs>
<clipPath id="clip0_854_27834">
<rect width="32" height="32" fill="white"/>
</clipPath>
</defs>
</svg>
