<svg width="32" height="32" viewBox="0 0 32 32" fill="none" xmlns="http://www.w3.org/2000/svg">
<g clip-path="url(#clip0_867_35637)">
<path d="M32 0H0V32H32V0Z" fill="url(#paint0_linear_867_35637)"/>
<path d="M13.44 20.48H8.74666C8.27188 20.4708 7.80864 20.3321 7.40692 20.0789C6.76022 19.6827 6.22852 19.1241 5.86473 18.4587C5.50093 17.7932 5.31772 17.0441 5.33332 16.2858C5.28994 15.4172 5.5398 14.5591 6.04277 13.8495C6.54574 13.1399 7.27263 12.62 8.10666 12.3733C8.10666 12.2624 8.10666 12.1514 8.10666 12.0405C8.13004 10.9565 8.45449 9.9003 9.04372 8.99008C9.63294 8.07987 10.4637 7.35148 11.4432 6.88636C12.4959 6.4206 13.6667 6.29073 14.7959 6.51444C15.9251 6.73814 16.9579 7.30455 17.7536 8.1365C18.2885 8.68121 18.7219 9.31694 19.0336 10.0138C19.4782 9.65496 20.0323 9.45921 20.6037 9.45916C21.7643 9.45916 23.0699 10.3381 23.3088 12.2666C24.4053 12.5269 26.6581 13.4229 26.6581 16.3242C26.6954 17.0508 26.5255 17.773 26.1682 18.4068C25.8109 19.0405 25.2809 19.5597 24.64 19.904L24.2133 19.1573C24.7186 18.884 25.1355 18.4724 25.4151 17.9706C25.6947 17.4688 25.8254 16.8977 25.792 16.3242C25.792 13.8154 23.7141 13.1925 22.8053 13.0389C22.7495 13.0289 22.6962 13.008 22.6486 12.9772C22.601 12.9464 22.56 12.9065 22.528 12.8597C22.4654 12.7703 22.4395 12.6604 22.4555 12.5525C22.3317 11.0037 21.4272 10.3125 20.5781 10.3125C20.3077 10.3149 20.0417 10.3815 19.8021 10.5069C19.5625 10.6323 19.3561 10.8128 19.2 11.0336C19.1543 11.0961 19.0924 11.1451 19.021 11.1751C18.9496 11.2052 18.8713 11.2153 18.7947 11.2042C18.7182 11.1923 18.6465 11.1597 18.5871 11.1101C18.5277 11.0605 18.483 10.9957 18.4576 10.9226C18.1794 10.1037 17.7217 9.35733 17.1179 8.7381C16.4428 8.03758 15.5694 7.56064 14.6151 7.37147C13.6608 7.18229 12.6715 7.28995 11.7803 7.67996C10.9584 8.07973 10.2613 8.69639 9.76429 9.46336C9.26726 10.2303 8.98915 11.1185 8.95999 12.032C8.96036 12.2287 8.97175 12.4253 8.99412 12.6208C9.00794 12.7289 8.97982 12.8383 8.91555 12.9263C8.85128 13.0144 8.75573 13.0745 8.64852 13.0944C7.92326 13.2426 7.27534 13.6463 6.82272 14.2321C6.37009 14.8178 6.14286 15.5466 6.18239 16.2858C6.16447 16.9006 6.31031 17.509 6.60496 18.0488C6.8996 18.5886 7.33246 19.0404 7.85919 19.3578C8.12453 19.5276 8.43169 19.6207 8.74666 19.6266H13.44V20.48Z" fill="white"/>
<path d="M26.1931 23.0402L23.1637 19.9981C23.5981 19.0224 23.6736 17.9246 23.3767 16.8986C23.0799 15.8727 22.4299 14.9847 21.5416 14.3918C20.6533 13.7988 19.584 13.5389 18.5227 13.6582C17.4613 13.7775 16.4763 14.2681 15.7418 15.0435C15.0073 15.8188 14.5706 16.8288 14.5088 17.8951C14.447 18.9613 14.7643 20.015 15.4044 20.87C16.0445 21.7249 16.9662 22.326 18.0067 22.567C19.0472 22.808 20.1393 22.6734 21.0901 22.1869L24.0768 25.1736C24.3617 25.4515 24.7454 25.605 25.1435 25.6002C25.34 25.603 25.5351 25.5666 25.7174 25.4934C25.8998 25.4202 26.0658 25.3114 26.2059 25.1736C26.3459 25.0331 26.4567 24.8663 26.5319 24.6827C26.6071 24.4992 26.6452 24.3026 26.6441 24.1042C26.6429 23.9059 26.6024 23.7097 26.525 23.5271C26.4476 23.3445 26.3348 23.179 26.1931 23.0402ZM19.0293 21.8328C18.3044 21.8328 17.5958 21.6178 16.9931 21.2151C16.3904 20.8124 15.9206 20.24 15.6432 19.5703C15.3658 18.9006 15.2933 18.1636 15.4347 17.4527C15.5761 16.7417 15.9252 16.0887 16.4377 15.5761C16.9503 15.0635 17.6033 14.7145 18.3143 14.5731C19.0253 14.4316 19.7622 14.5042 20.4319 14.7816C21.1016 15.059 21.674 15.5288 22.0767 16.1315C22.4794 16.7342 22.6944 17.4428 22.6944 18.1677C22.6944 19.1397 22.3082 20.072 21.6209 20.7593C20.9336 21.4466 20.0014 21.8328 19.0293 21.8328ZM25.6 24.5549C25.4755 24.6728 25.3106 24.7386 25.1392 24.7386C24.9677 24.7386 24.8028 24.6728 24.6784 24.5549L21.8368 21.7133C22.1838 21.4411 22.4886 21.119 22.7413 20.7576L25.6 23.6333C25.7209 23.7562 25.7887 23.9217 25.7887 24.0941C25.7887 24.2665 25.7209 24.432 25.6 24.5549Z" fill="white"/>
<path d="M20.2027 16.1835L19.6949 16.8704C19.4665 16.7012 19.1931 16.6035 18.9092 16.5896C18.6253 16.5757 18.3437 16.6463 18.0999 16.7924C17.8561 16.9385 17.661 17.1536 17.5394 17.4105C17.4178 17.6674 17.375 17.9546 17.4165 18.2358C17.4402 18.4267 17.5028 18.6108 17.6004 18.7767C17.698 18.9425 17.8285 19.0866 17.984 19.2L17.4933 19.8656C17.0174 19.4996 16.7042 18.9613 16.6211 18.3667C16.5379 17.7721 16.6915 17.1686 17.0488 16.6861C17.4061 16.2036 17.9385 15.8805 18.5315 15.7866C19.1245 15.6926 19.7307 15.8351 20.2197 16.1835H20.2027Z" fill="white"/>
</g>
<defs>
<linearGradient id="paint0_linear_867_35637" x1="-6.62613" y1="38.6261" x2="38.6261" y2="-6.62613" gradientUnits="userSpaceOnUse">
<stop stop-color="#B0084D"/>
<stop offset="1" stop-color="#FF4F8B"/>
</linearGradient>
<clipPath id="clip0_867_35637">
<rect width="32" height="32" fill="white"/>
</clipPath>
</defs>
</svg>
