<svg width="32" height="32" viewBox="0 0 32 32" fill="none" xmlns="http://www.w3.org/2000/svg">
<g clip-path="url(#clip0_854_27653)">
<path d="M32 0H0V32H32V0Z" fill="url(#paint0_linear_854_27653)"/>
<path fill-rule="evenodd" clip-rule="evenodd" d="M21.2 11.9998C20.5384 11.9998 20 11.4614 20 10.7998C20 10.1382 20.5384 9.5998 21.2 9.5998C21.8616 9.5998 22.4 10.1382 22.4 10.7998C22.4 11.4614 21.8616 11.9998 21.2 11.9998ZM17.2 7.9998C16.5384 7.9998 16 7.4614 16 6.7998C16 6.1382 16.5384 5.5998 17.2 5.5998C17.8616 5.5998 18.4 6.1382 18.4 6.7998C18.4 7.4614 17.8616 7.9998 17.2 7.9998ZM14.8 15.1998C14.1384 15.1998 13.6 14.6614 13.6 13.9998C13.6 13.3382 14.1384 12.7998 14.8 12.7998C15.4616 12.7998 16 13.3382 16 13.9998C16 14.6614 15.4616 15.1998 14.8 15.1998ZM10 11.1998C9.3384 11.1998 8.8 10.6614 8.8 9.9998C8.8 9.3382 9.3384 8.7998 10 8.7998C10.6616 8.7998 11.2 9.3382 11.2 9.9998C11.2 10.6614 10.6616 11.1998 10 11.1998ZM21.2 8.7998C20.7928 8.7998 20.4152 8.923 20.0984 9.1334L18.8672 7.9006C19.0768 7.5846 19.2 7.207 19.2 6.7998C19.2 5.6974 18.3032 4.7998 17.2 4.7998C16.0968 4.7998 15.2 5.6974 15.2 6.7998C15.2 7.5382 15.6064 8.1774 16.2032 8.5238L15.0368 12.0238C14.9576 12.0142 14.8816 11.9998 14.8 11.9998C14.1888 11.9998 13.648 12.2814 13.2808 12.715L11.6672 11.1006C11.8768 10.7846 12 10.407 12 9.9998C12 8.8974 11.1032 7.9998 10 7.9998C8.8968 7.9998 8 8.8974 8 9.9998C8 11.1022 8.8968 11.9998 10 11.9998C10.4072 11.9998 10.7848 11.8766 11.1016 11.6662L12.8856 13.451C12.836 13.627 12.8 13.8086 12.8 13.9998C12.8 15.1022 13.6968 15.9998 14.8 15.9998C15.9032 15.9998 16.8 15.1022 16.8 13.9998C16.8 13.2614 16.3936 12.6222 15.7968 12.2758L16.9632 8.7758C17.0424 8.7854 17.1184 8.7998 17.2 8.7998C17.6072 8.7998 17.9848 8.6766 18.3016 8.4662L19.5328 9.699C19.3232 10.015 19.2 10.3926 19.2 10.7998C19.2 11.9022 20.0968 12.7998 21.2 12.7998C22.3032 12.7998 23.2 11.9022 23.2 10.7998C23.2 9.6974 22.3032 8.7998 21.2 8.7998ZM18.6 19.9998H13.4L11.6 17.5998H20.4L18.6 19.9998ZM16.8872 26.3998H15.1128L13.7128 20.7998H18.2872L16.8872 26.3998ZM21.2 16.7998H10.8C10.6488 16.7998 10.5104 16.8854 10.4424 17.0206C10.3744 17.1566 10.3888 17.3182 10.48 17.4398L12.8312 20.575L14.412 26.8966C14.456 27.075 14.6168 27.1998 14.8 27.1998H17.2C17.3832 27.1998 17.544 27.075 17.588 26.8966L19.1688 20.575L21.52 17.4398C21.6112 17.3182 21.6256 17.1566 21.5576 17.0206C21.4896 16.8854 21.3512 16.7998 21.2 16.7998Z" fill="white"/>
</g>
<defs>
<linearGradient id="paint0_linear_854_27653" x1="-6.62742" y1="38.6287" x2="38.6274" y2="-6.62613" gradientUnits="userSpaceOnUse">
<stop stop-color="#B0084D"/>
<stop offset="1" stop-color="#FF4F8B"/>
</linearGradient>
<clipPath id="clip0_854_27653">
<rect width="32" height="32" fill="white"/>
</clipPath>
</defs>
</svg>
