<svg width="32" height="32" viewBox="0 0 32 32" fill="none" xmlns="http://www.w3.org/2000/svg">
<g clip-path="url(#clip0_854_27704)">
<path d="M32 0H0V32H32V0Z" fill="url(#paint0_linear_854_27704)"/>
<path fill-rule="evenodd" clip-rule="evenodd" d="M11.2 20.8009H12V16.8009H11.2V20.8009ZM18.4 20.8009H19.2V16.8009H18.4V20.8009ZM16 20.8009H16.8V11.2009H16V20.8009ZM13.6 20.8009H14.4V14.4009H13.6V20.8009ZM26.4 23.1081L11.7808 26.3513L5.64962 17.1537L10.2504 5.65294L18.44 7.14174L19.2032 13.2505C19.2304 13.4673 19.4152 13.6217 19.6448 13.5985L26.4 12.8481V23.1081ZM27.0664 12.1025C26.9824 12.0265 26.8672 11.9905 26.756 12.0033L19.948 12.7601L19.1968 6.75134C19.1752 6.57774 19.044 6.43854 18.872 6.40734L10.072 4.80734C9.88242 4.76974 9.69842 4.87614 9.62882 5.05214L4.82882 17.0521C4.78002 17.1745 4.79362 17.3129 4.86722 17.4225L11.2672 27.0225C11.3424 27.1353 11.468 27.2009 11.6 27.2009C11.6288 27.2009 11.6584 27.1977 11.6872 27.1913L26.8872 23.8201C27.0696 23.7793 27.2 23.6169 27.2 23.4297V12.4009C27.2 12.2873 27.152 12.1785 27.0664 12.1025Z" fill="white"/>
</g>
<defs>
<linearGradient id="paint0_linear_854_27704" x1="-6.62742" y1="38.6287" x2="38.6274" y2="-6.62613" gradientUnits="userSpaceOnUse">
<stop stop-color="#B0084D"/>
<stop offset="1" stop-color="#FF4F8B"/>
</linearGradient>
<clipPath id="clip0_854_27704">
<rect width="32" height="32" fill="white"/>
</clipPath>
</defs>
</svg>
