<svg width="32" height="32" viewBox="0 0 32 32" fill="none" xmlns="http://www.w3.org/2000/svg">
<g clip-path="url(#clip0_854_27615)">
<path d="M32 0H0V32H32V0Z" fill="url(#paint0_linear_854_27615)"/>
<path fill-rule="evenodd" clip-rule="evenodd" d="M13.9968 11.1909C14.6584 11.1909 15.1968 10.6525 15.1968 9.99089C15.1968 9.32929 14.6584 8.79089 13.9968 8.79089C13.3352 8.79089 12.7968 9.32929 12.7968 9.99089C12.7968 10.6525 13.3352 11.1909 13.9968 11.1909ZM13.9968 11.9909C12.8936 11.9909 11.9968 11.0933 11.9968 9.99089C11.9968 8.88849 12.8936 7.99089 13.9968 7.99089C15.1 7.99089 15.9968 8.88849 15.9968 9.99089C15.9968 11.0933 15.1 11.9909 13.9968 11.9909ZM9.59675 15.5909H10.3968C10.3968 14.9293 10.9352 14.3909 11.5968 14.3909C12.2584 14.3909 12.7968 14.9293 12.7968 15.5909H13.5968C13.5968 14.4885 12.7 13.5909 11.5968 13.5909C10.4936 13.5909 9.59675 14.4885 9.59675 15.5909ZM17.88 16.2741L19.1968 14.9565L20.5136 16.2741L21.08 15.7077L19.7624 14.3909L21.08 13.0741L20.5136 12.5077L19.1968 13.8253L17.88 12.5077L17.3136 13.0741L18.6312 14.3909L17.3136 15.7077L17.88 16.2741ZM10.3968 17.5909V23.1333C11.628 22.8173 12.7968 21.1645 12.7968 20.3909V17.5909H10.3968ZM12.7968 22.3013C12.1944 23.0973 11.3192 23.7901 10.3968 23.9517V24.3909C10.3968 25.6253 10.5976 26.3909 11.5968 26.3909C12.596 26.3909 12.7968 25.6253 12.7968 24.3909V22.3013ZM8.79675 16.7909H14.3968V17.5909H13.5968V24.3909C13.5968 25.1565 13.5968 27.1909 11.5968 27.1909C9.59675 27.1909 9.59675 25.1565 9.59675 24.3909V17.5909H8.79675V16.7909ZM26.8 15.0365C26.8 18.8621 22.9872 19.1869 22.9488 19.1901L15.1968 19.1909V18.3909H22.9192C23.016 18.3821 26 18.1117 26 15.0365C26 12.3893 23.632 11.7749 22.9064 11.6501C22.6896 11.6133 22.544 11.4077 22.58 11.1909C22.5808 10.0517 22.0992 9.22609 21.2584 8.95009C20.5168 8.70769 19.6984 8.97489 19.2224 9.61969C19.1352 9.73969 18.9912 9.79809 18.8416 9.77809C18.6952 9.75649 18.5728 9.65569 18.5232 9.51569C18.2088 8.62049 17.7504 7.86689 17.164 7.27569C16.444 6.55169 14.4704 4.99489 11.6832 6.17969C10.0736 6.86369 8.81195 8.83489 8.81195 10.6661L8.84875 11.2997C8.85995 11.4909 8.73515 11.6629 8.54875 11.7101C7.59755 11.9549 5.99995 12.7077 5.99995 15.0045C5.99995 16.7261 6.93195 17.6757 7.71355 18.1693C7.97835 18.3365 8.17035 18.3909 8.50235 18.3909L8.50075 19.1909C8.01915 19.1909 7.67915 19.0933 7.28635 18.8461C6.50715 18.3541 5.19995 17.2013 5.19995 15.0045C5.19995 12.3565 6.98395 11.3757 8.03195 11.0293L8.01275 10.6901C8.01195 8.50209 9.45595 6.25729 11.3712 5.44369C13.6152 4.49009 15.9928 4.96369 17.7312 6.71169C18.2672 7.25169 18.7064 7.90369 19.0424 8.65729C19.7264 8.09729 20.6488 7.90769 21.5088 8.19009C22.6064 8.55089 23.2896 9.56449 23.3728 10.9293C25.0864 11.3325 26.8 12.5933 26.8 15.0365Z" fill="white"/>
</g>
<defs>
<linearGradient id="paint0_linear_854_27615" x1="-6.62742" y1="38.6287" x2="38.6274" y2="-6.62613" gradientUnits="userSpaceOnUse">
<stop stop-color="#B0084D"/>
<stop offset="1" stop-color="#FF4F8B"/>
</linearGradient>
<clipPath id="clip0_854_27615">
<rect width="32" height="32" fill="white"/>
</clipPath>
</defs>
</svg>
