<svg width="32" height="32" viewBox="0 0 32 32" fill="none" xmlns="http://www.w3.org/2000/svg">
<g clip-path="url(#clip0_854_27638)">
<path d="M32 0H0V32H32V0Z" fill="url(#paint0_linear_854_27638)"/>
<path fill-rule="evenodd" clip-rule="evenodd" d="M20.6952 15.0662C20.6952 17.051 19.08 18.6662 17.0952 18.6662C15.1104 18.6662 13.4952 17.051 13.4952 15.0662C13.4952 13.0814 15.1104 11.4662 17.0952 11.4662C19.08 11.4662 20.6952 13.0814 20.6952 15.0662ZM21.4952 15.0662C21.4952 12.6398 19.5208 10.6662 17.0952 10.6662C14.6696 10.6662 12.6952 12.6398 12.6952 15.0662C12.6952 17.4926 14.6696 19.4662 17.0952 19.4662C19.5208 19.4662 21.4952 17.4926 21.4952 15.0662ZM19.3344 25.207C19.4104 25.127 19.4488 25.0198 19.4432 24.9102L19.3688 23.6094C20.1184 23.4094 20.836 23.1126 21.5072 22.723L22.3752 23.6966C22.448 23.7782 22.552 23.827 22.6616 23.8302C22.7888 23.8318 22.8784 23.791 22.956 23.7126L25.7288 20.939C25.8072 20.8614 25.8488 20.755 25.8456 20.6454C25.8432 20.535 25.7944 20.431 25.712 20.3582L24.7368 19.4878C25.1256 18.8166 25.4224 18.1006 25.6216 17.3518L26.9264 17.427C27.0368 17.4326 27.144 17.3942 27.224 17.3182C27.304 17.243 27.3488 17.1374 27.3488 17.0278V13.1054C27.3488 12.9958 27.304 12.8902 27.224 12.815C27.144 12.739 27.0368 12.7022 26.9264 12.7062L25.6201 12.7806C25.4201 12.0318 25.1232 11.3166 24.7352 10.6462L25.712 9.77421C25.7944 9.70141 25.8432 9.5974 25.8456 9.487C25.8488 9.3774 25.8072 9.271 25.7288 9.1934L22.956 6.4206C22.8784 6.343 22.764 6.303 22.6624 6.303C22.552 6.3062 22.448 6.355 22.3752 6.4366L21.5 7.4166C20.8304 7.0286 20.1152 6.73261 19.3688 6.53261L19.4432 5.2222C19.4488 5.1126 19.4104 5.0046 19.3344 4.9254C19.2584 4.8454 19.1536 4.7998 19.044 4.7998H15.1216C15.012 4.7998 14.9072 4.8454 14.8312 4.9254C14.7552 5.0054 14.716 5.1126 14.7224 5.2222L14.7976 6.53261C14.0504 6.73101 13.3352 7.027 12.664 7.415L11.7912 6.4366C11.7176 6.355 11.6136 6.3062 11.5048 6.303C11.3984 6.3062 11.288 6.343 11.2104 6.4206L8.43685 9.1934C8.35845 9.271 8.31605 9.3774 8.31925 9.487C8.32245 9.5974 8.37125 9.70061 8.45285 9.77421L9.43205 10.6486C9.04325 11.319 8.74565 12.0334 8.54645 12.7806L7.23925 12.7062C7.13045 12.7022 7.02165 12.739 6.94165 12.815C6.86165 12.8902 6.81605 12.9958 6.81605 13.1054V17.0278C6.81605 17.1374 6.86165 17.243 6.94245 17.3182C7.02165 17.395 7.13045 17.4326 7.24005 17.427L8.84005 17.3326L8.79285 16.5342L7.61605 16.603V13.5294L8.83285 13.5982C9.03925 13.6094 9.20165 13.4766 9.24485 13.287C9.44645 12.3998 9.79605 11.5574 10.284 10.7846C10.3888 10.619 10.3584 10.4022 10.212 10.2726L9.30165 9.4598L11.4768 7.28541L12.288 8.1958C12.4176 8.3406 12.6344 8.3718 12.8 8.267C13.5736 7.7806 14.4152 7.4318 15.304 7.2318C15.4944 7.1886 15.6256 7.0142 15.6144 6.8182L15.5456 5.5998H18.62L18.5512 6.819C18.5408 7.015 18.672 7.18861 18.8624 7.23261C19.7504 7.43261 20.592 7.7822 21.364 8.2694C21.5296 8.3734 21.7456 8.343 21.876 8.1974L22.6896 7.28541L24.864 9.4598L23.9544 10.2702C23.8088 10.4006 23.7784 10.6174 23.8824 10.783C24.3704 11.5534 24.7192 12.3966 24.9216 13.287C24.9648 13.4774 25.1168 13.6174 25.3344 13.5982L26.5488 13.5294V16.6038L25.3352 16.5342C25.1528 16.5246 24.9656 16.655 24.9224 16.8462C24.7216 17.7358 24.3728 18.579 23.884 19.3518C23.7792 19.5166 23.8104 19.7334 23.956 19.8638L24.864 20.6734L22.6896 22.8478L21.8824 21.943C21.7528 21.7974 21.5352 21.7662 21.3712 21.871C20.5984 22.359 19.7544 22.7086 18.8624 22.9102C18.672 22.9534 18.5408 23.1286 18.5512 23.323L18.62 24.5326H15.5584L15.6144 23.9014L14.8176 23.831L14.7232 24.8974C14.7128 25.0094 14.7504 25.1198 14.8264 25.2022C14.9024 25.2854 15.0096 25.3326 15.1216 25.3326H19.044C19.1536 25.3326 19.2584 25.287 19.3344 25.207ZM14.9576 22.023L14.408 21.4422L9.34165 26.2422L9.89125 26.823L14.9576 22.023ZM10.1568 18.8238L9.60885 18.2414L5.07525 22.5078L5.62325 23.091L10.1568 18.8238ZM5.36565 27.3494L4.80005 26.783L12.8 18.783L13.3656 19.3494L5.36565 27.3494Z" fill="white"/>
</g>
<defs>
<linearGradient id="paint0_linear_854_27638" x1="-6.62742" y1="38.6287" x2="38.6274" y2="-6.62613" gradientUnits="userSpaceOnUse">
<stop stop-color="#B0084D"/>
<stop offset="1" stop-color="#FF4F8B"/>
</linearGradient>
<clipPath id="clip0_854_27638">
<rect width="32" height="32" fill="white"/>
</clipPath>
</defs>
</svg>
