<svg width="32" height="32" viewBox="0 0 32 32" fill="none" xmlns="http://www.w3.org/2000/svg">
<g clip-path="url(#clip0_867_35665)">
<path d="M32 0H0V32H32V0Z" fill="url(#paint0_linear_867_35665)"/>
<path d="M15.6671 20.5058C15.5665 20.5071 15.469 20.4705 15.3941 20.4034C15.3486 20.3656 15.3114 20.3188 15.285 20.2659C15.2585 20.213 15.2434 20.1552 15.2405 20.0962L15.2106 19.3495C14.9508 19.3042 14.6953 19.2371 14.4469 19.149L14.0799 19.7804C14.0487 19.8313 14.0071 19.8751 13.9578 19.9089C13.9086 19.9427 13.8528 19.9658 13.7941 19.9767C13.7353 19.9875 13.675 19.9859 13.6169 19.9719C13.5589 19.958 13.5044 19.932 13.457 19.8956L11.8186 18.654C11.7725 18.618 11.7344 18.5729 11.7065 18.5215C11.6786 18.4702 11.6616 18.4136 11.6565 18.3554C11.651 18.2969 11.6576 18.2379 11.6759 18.1821C11.6943 18.1263 11.724 18.0749 11.7631 18.0311L12.2666 17.4935C12.1125 17.274 11.9783 17.0413 11.8655 16.798L11.1573 16.9687C11.0991 16.9826 11.0386 16.984 10.9798 16.973C10.921 16.962 10.8651 16.9387 10.8159 16.9047C10.7664 16.8712 10.7245 16.8277 10.6929 16.777C10.6613 16.7263 10.6407 16.6695 10.6325 16.6103L10.3637 14.5666C10.3553 14.5078 10.3592 14.448 10.3753 14.3909C10.3913 14.3338 10.4191 14.2806 10.4569 14.2349C10.4946 14.1891 10.5415 14.1517 10.5945 14.125C10.6475 14.0984 10.7055 14.0831 10.7647 14.0802L11.5199 14.0332C11.5545 13.7591 11.6159 13.489 11.7034 13.2268L11.0933 12.8514C11.0437 12.82 11.0011 12.7788 10.9681 12.7303C10.9352 12.6817 10.9126 12.6269 10.9018 12.5693C10.8909 12.5116 10.8921 12.4523 10.9053 12.3952C10.9184 12.338 10.9432 12.2841 10.9781 12.237L12.2111 10.59C12.2468 10.5419 12.2922 10.5018 12.3444 10.4724C12.3966 10.443 12.4544 10.4249 12.5141 10.4194C12.5738 10.4144 12.634 10.4221 12.6906 10.4419C12.7472 10.4618 12.799 10.4933 12.8426 10.5346L13.3759 11.0295C13.5916 10.8669 13.8215 10.7241 14.0629 10.6028L13.8965 9.87749C13.8832 9.81994 13.8821 9.76026 13.8931 9.70224C13.9041 9.64422 13.927 9.58912 13.9605 9.54043C13.9935 9.49142 14.0363 9.44981 14.0863 9.41823C14.1362 9.38665 14.1922 9.36578 14.2506 9.35696L16.2687 9.07109C16.328 9.06323 16.3882 9.0679 16.4455 9.0848C16.5029 9.10171 16.556 9.13047 16.6015 9.16923C16.647 9.20699 16.6842 9.25381 16.7106 9.30669C16.737 9.35957 16.7522 9.41737 16.7551 9.47643L16.7722 10.2402C17.0319 10.2854 17.2874 10.3525 17.5359 10.4407L17.9199 9.81349C17.9512 9.76263 17.9928 9.7189 18.042 9.68513C18.0913 9.65135 18.1471 9.62829 18.2058 9.61743C18.2645 9.60658 18.3248 9.60816 18.3829 9.62209C18.441 9.63602 18.4955 9.66198 18.5429 9.69829L20.1599 10.9399C20.2067 10.9755 20.2457 11.0204 20.2743 11.0718C20.303 11.1232 20.3207 11.18 20.3263 11.2386C20.3312 11.2973 20.3239 11.3565 20.3048 11.4123C20.2857 11.4681 20.2553 11.5194 20.2154 11.5628L19.7205 12.1132C19.8724 12.3311 20.0065 12.5608 20.1215 12.8002L20.8255 12.6338C20.8835 12.6201 20.9436 12.6188 21.0021 12.6298C21.0606 12.6408 21.1161 12.6639 21.1652 12.6977C21.2142 12.7314 21.2556 12.7751 21.2868 12.8258C21.3179 12.8765 21.3381 12.9332 21.3461 12.9922L21.6191 15.0316C21.627 15.0909 21.6223 15.1511 21.6054 15.2085C21.5885 15.2658 21.5597 15.3189 21.521 15.3644C21.4832 15.4099 21.4364 15.4471 21.3835 15.4735C21.3306 15.4999 21.2728 15.5151 21.2138 15.518L20.4799 15.5564C20.4373 15.8255 20.3688 16.0899 20.2751 16.3458L20.8981 16.7383C20.9476 16.7696 20.9903 16.8108 21.0232 16.8594C21.0562 16.9079 21.0787 16.9627 21.0895 17.0204C21.1004 17.078 21.0992 17.1373 21.086 17.1945C21.0729 17.2517 21.0481 17.3055 21.0133 17.3527L19.7802 18.9996C19.7442 19.048 19.6984 19.0883 19.6458 19.1177C19.5931 19.1471 19.5349 19.165 19.4748 19.1702C19.4147 19.1755 19.3542 19.1679 19.2973 19.1481C19.2403 19.1282 19.1883 19.0965 19.1445 19.0551L18.6154 18.5602C18.401 18.7246 18.1709 18.8675 17.9285 18.9868L18.0949 19.7122C18.1085 19.7698 18.11 19.8296 18.0992 19.8879C18.0885 19.9461 18.0657 20.0015 18.0324 20.0504C17.9991 20.0994 17.956 20.1409 17.9058 20.1723C17.8555 20.2036 17.7993 20.2242 17.7407 20.2327L15.7269 20.5186L15.6671 20.5058ZM14.2762 18.189C14.3366 18.1892 14.3962 18.2023 14.4511 18.2274C14.8327 18.4013 15.2409 18.5095 15.6586 18.5474C15.765 18.557 15.8639 18.6061 15.9358 18.6851C16.0076 18.7641 16.0473 18.8672 16.0469 18.974L16.0725 19.6098L17.1605 19.4562L17.0197 18.8332C16.9964 18.7327 17.0105 18.6271 17.0591 18.5361C17.1077 18.4451 17.1877 18.3749 17.2842 18.3383C17.6734 18.18 18.0327 17.9563 18.3466 17.677C18.4247 17.6074 18.5257 17.5689 18.6303 17.5689C18.7349 17.5689 18.8359 17.6074 18.9141 17.677L19.3663 18.1036L20.0533 17.2119L19.5242 16.8791C19.4367 16.8243 19.372 16.7396 19.3422 16.6407C19.3124 16.5419 19.3195 16.4356 19.3621 16.3415C19.5391 15.952 19.6473 15.5348 19.6821 15.1084C19.6912 15.0056 19.7374 14.9096 19.8119 14.8383C19.8864 14.7669 19.9843 14.7249 20.0874 14.7202L20.7103 14.6946L20.5653 13.581L19.9679 13.726C19.8656 13.7513 19.7576 13.7378 19.6646 13.6882C19.5717 13.6386 19.5004 13.5563 19.4645 13.4572C19.3188 13.0628 19.1067 12.6963 18.8373 12.3735C18.77 12.2959 18.733 12.1967 18.733 12.094C18.733 11.9914 18.77 11.8921 18.8373 11.8146L19.2639 11.3452L18.3978 10.6668L18.0735 11.2002C18.0192 11.2894 17.9341 11.3557 17.8342 11.3863C17.7343 11.417 17.6267 11.41 17.5317 11.3666C17.1501 11.1926 16.7418 11.0844 16.3242 11.0466C16.2206 11.0384 16.1236 10.9927 16.0513 10.918C15.9791 10.8434 15.9365 10.745 15.9317 10.6412L15.9061 10.0098L14.8181 10.1634L14.9589 10.7863C14.9812 10.8857 14.9672 10.9898 14.9195 11.0798C14.8718 11.1698 14.7934 11.2397 14.6986 11.277C14.3043 11.4305 13.9381 11.6482 13.6149 11.9212C13.5367 11.9908 13.4357 12.0292 13.3311 12.0292C13.2265 12.0292 13.1255 11.9908 13.0474 11.9212L12.5951 11.4946L11.9466 12.3735L12.4799 12.7063C12.5674 12.7611 12.6321 12.8458 12.6619 12.9447C12.6917 13.0435 12.6847 13.1498 12.6421 13.2439C12.4656 13.6321 12.3573 14.0478 12.3221 14.4727C12.3139 14.5762 12.2682 14.6733 12.1935 14.7455C12.1189 14.8178 12.0205 14.8604 11.9167 14.8652L11.2895 14.8908L11.4389 16.0044L12.0405 15.8594C12.1421 15.8353 12.2491 15.8493 12.3412 15.8989C12.4332 15.9484 12.5038 16.03 12.5397 16.1282C12.6857 16.525 12.8978 16.8943 13.1669 17.2204C13.2341 17.298 13.2711 17.3972 13.2711 17.4999C13.2711 17.6026 13.2341 17.7018 13.1669 17.7794L12.7402 18.253L13.5935 18.9271L13.9221 18.3895C13.9597 18.3292 14.0118 18.2793 14.0737 18.2443C14.1355 18.2093 14.2051 18.1902 14.2762 18.189Z" fill="white"/>
<path d="M16.0298 17.5574C15.874 17.5572 15.7185 17.5444 15.5647 17.519C14.8616 17.4006 14.2314 17.0151 13.8057 16.443C13.3801 15.8709 13.192 15.1565 13.2806 14.449C13.3692 13.7414 13.7278 13.0955 14.2814 12.6461C14.835 12.1967 15.5408 11.9785 16.2515 12.0372C16.9621 12.0959 17.6226 12.4269 18.095 12.961C18.5674 13.4951 18.8151 14.1911 18.7865 14.9036C18.7579 15.6161 18.4551 16.2899 17.9414 16.7845C17.4277 17.279 16.7428 17.5559 16.0298 17.5574V17.5574ZM16.0298 12.8982C15.667 12.8984 15.3117 13.0023 15.006 13.1976C14.7002 13.393 14.4567 13.6717 14.3041 14.0009C14.1515 14.33 14.0962 14.696 14.1447 15.0556C14.1932 15.4152 14.3435 15.7534 14.5779 16.0304C14.8123 16.3073 15.1209 16.5115 15.4675 16.6189C15.8141 16.7263 16.1842 16.7323 16.5341 16.6363C16.884 16.5403 17.1991 16.3462 17.4424 16.077C17.6857 15.8078 17.8469 15.4747 17.9071 15.1169C17.9887 14.6193 17.8704 14.1096 17.5779 13.6988C17.2854 13.288 16.8425 13.0095 16.3455 12.9238C16.2397 12.9068 16.1327 12.8982 16.0255 12.8982H16.0298Z" fill="white"/>
<path d="M22.8096 26.0735C22.7155 26.0778 22.6226 26.0509 22.5454 25.9969C22.4682 25.9428 22.4111 25.8648 22.3829 25.7749L22.2507 25.3482C21.9573 25.3143 21.6701 25.2396 21.3973 25.1263L21.0773 25.4335C20.9976 25.5117 20.8903 25.5555 20.7787 25.5555C20.667 25.5555 20.5597 25.5117 20.48 25.4335L19.4133 24.3455C19.3351 24.2658 19.2914 24.1586 19.2914 24.0469C19.2914 23.9352 19.3351 23.828 19.4133 23.7482L19.7163 23.4239C19.5999 23.1517 19.5223 22.8644 19.4859 22.5706L19.0592 22.4426C18.9579 22.41 18.8724 22.3408 18.8195 22.2484C18.7666 22.1561 18.7501 22.0473 18.7733 21.9434L19.1659 20.4458C19.1941 20.3387 19.2628 20.2468 19.3576 20.1895C19.4523 20.1322 19.5656 20.1139 19.6736 20.1386L20.1003 20.2367C20.1859 20.1204 20.28 20.0106 20.3819 19.9082C20.4799 19.8081 20.5839 19.7141 20.6933 19.6266L20.5867 19.1999C20.5606 19.092 20.5776 18.978 20.6342 18.8824C20.6907 18.7868 20.7824 18.717 20.8896 18.6879L22.3829 18.2613C22.4898 18.232 22.6039 18.2454 22.7011 18.2988C22.7982 18.3521 22.8708 18.4412 22.9035 18.5471L23.0357 18.9738C23.3311 19.0071 23.62 19.0833 23.8933 19.1999L24.2133 18.8927C24.2929 18.8158 24.3992 18.7728 24.5099 18.7728C24.6205 18.7728 24.7268 18.8158 24.8064 18.8927L25.9072 19.9765C25.9841 20.056 26.0271 20.1624 26.0271 20.273C26.0271 20.3837 25.9841 20.49 25.9072 20.5695L25.6 20.9066C25.7177 21.1787 25.7967 21.4659 25.8347 21.7599L26.2613 21.8879C26.3679 21.9188 26.4582 21.99 26.5132 22.0864C26.5682 22.1828 26.5834 22.2968 26.5557 22.4042L26.1632 23.8933C26.135 24.0004 26.0662 24.0923 25.9715 24.1496C25.8767 24.2069 25.7634 24.2252 25.6555 24.2005L25.2288 24.1023C25.1404 24.2177 25.0449 24.3274 24.9429 24.4309C24.84 24.5332 24.7317 24.63 24.6187 24.721L24.7211 25.1477C24.7473 25.2551 24.7309 25.3685 24.6751 25.464C24.6194 25.5595 24.5288 25.6297 24.4224 25.6597L22.9291 26.0863C22.8888 26.0888 22.8484 26.0845 22.8096 26.0735V26.0735ZM21.3333 24.1919C21.4048 24.1916 21.4752 24.2092 21.5381 24.2431C21.8602 24.4147 22.2186 24.5069 22.5835 24.5119C22.6738 24.5135 22.7613 24.5436 22.8333 24.5981C22.9054 24.6525 22.9583 24.7284 22.9845 24.8149L23.0827 25.1263L23.7781 24.9343L23.7013 24.6229C23.6799 24.535 23.687 24.4426 23.7215 24.359C23.756 24.2754 23.8162 24.205 23.8933 24.1578C24.2019 23.9601 24.4628 23.6963 24.6571 23.3855C24.7031 23.3092 24.7719 23.2493 24.8538 23.2141C24.9357 23.1789 25.0265 23.1702 25.1136 23.1893L25.4293 23.2618L25.6128 22.5621L25.2971 22.4682C25.2105 22.443 25.1341 22.391 25.079 22.3197C25.0238 22.2485 24.9926 22.1615 24.9899 22.0714C24.9802 21.705 24.8821 21.3464 24.704 21.0261C24.6608 20.9477 24.6433 20.8578 24.6541 20.769C24.6648 20.6802 24.7031 20.597 24.7637 20.5311L24.9856 20.2922L24.4736 19.7887L24.2389 20.0149C24.1736 20.0761 24.0906 20.1153 24.0018 20.1268C23.913 20.1383 23.8228 20.1215 23.744 20.0789C23.4197 19.9085 23.0606 19.815 22.6944 19.8058C22.6046 19.8045 22.5175 19.775 22.4455 19.7214C22.3735 19.6678 22.3202 19.5928 22.2933 19.5071L22.208 19.1999L21.5125 19.3919L21.5893 19.7034C21.6111 19.7908 21.6047 19.8829 21.571 19.9664C21.5373 20.05 21.478 20.1207 21.4016 20.1685C21.2463 20.2649 21.1031 20.3795 20.9749 20.5098C20.8471 20.6391 20.7341 20.7822 20.6379 20.9365C20.5915 21.0136 20.522 21.0741 20.4393 21.1093C20.3565 21.1446 20.2647 21.1528 20.1771 21.1327L19.8656 21.0602L19.6821 21.7599L19.9936 21.8538C20.0801 21.879 20.1565 21.931 20.2117 22.0023C20.2669 22.0736 20.2981 22.1605 20.3008 22.2506C20.3124 22.6167 20.4104 22.9749 20.5867 23.2959C20.6298 23.3743 20.6473 23.4642 20.6366 23.553C20.6259 23.6419 20.5875 23.725 20.5269 23.7909L20.3093 24.0255L20.8213 24.529L21.0517 24.3071C21.1282 24.2354 21.2285 24.1944 21.3333 24.1919V24.1919Z" fill="white"/>
<path d="M22.6517 23.825C22.3228 23.8266 22.0009 23.7304 21.7267 23.5487C21.4526 23.367 21.2386 23.1079 21.112 22.8043C20.9853 22.5008 20.9517 22.1664 21.0155 21.8438C21.0792 21.5211 21.2374 21.2246 21.4699 20.992C21.6621 20.7972 21.8995 20.6529 22.1608 20.5718C22.4222 20.4907 22.6995 20.4753 22.9682 20.527C23.2369 20.5787 23.4888 20.6958 23.7014 20.8681C23.914 21.0403 24.0809 21.2624 24.1872 21.5145C24.2936 21.7667 24.3361 22.0411 24.311 22.3136C24.2859 22.5861 24.194 22.8482 24.0434 23.0767C23.8928 23.3052 23.6882 23.493 23.4477 23.6236C23.2072 23.7541 22.9382 23.8233 22.6645 23.825H22.6517ZM22.0757 21.5936C21.9642 21.7074 21.8886 21.8516 21.8586 22.0081C21.8285 22.1647 21.8452 22.3266 21.9067 22.4737C21.9682 22.6207 22.0716 22.7464 22.2041 22.835C22.3367 22.9236 22.4924 22.9711 22.6517 22.9717C22.8656 22.9687 23.0695 22.8812 23.2192 22.7285C23.2965 22.6545 23.3582 22.5658 23.4007 22.4676C23.4432 22.3695 23.4656 22.2638 23.4667 22.1568C23.4672 22.0503 23.4464 21.9448 23.4053 21.8466C23.3643 21.7484 23.3039 21.6594 23.2277 21.585C23.1524 21.5096 23.063 21.4497 22.9645 21.4088C22.8661 21.368 22.7605 21.347 22.6539 21.347C22.5473 21.347 22.4417 21.368 22.3432 21.4088C22.2448 21.4497 22.1553 21.5096 22.08 21.585L22.0757 21.5936Z" fill="white"/>
<path d="M24.1493 10.8374L23.3898 11.2256C22.5942 9.66792 21.3271 8.40108 19.7693 7.60568C18.2114 6.81029 16.4423 6.52693 14.7139 6.796C12.9856 7.06506 11.3863 7.87281 10.1439 9.10413C8.90158 10.3355 8.07961 11.9275 7.79515 13.6534L8.53329 12.9067L9.13915 13.5083L7.64582 15.0016L7.55195 15.0955C7.51244 15.1358 7.46531 15.1679 7.41331 15.1899C7.36131 15.2118 7.30547 15.2233 7.24902 15.2235C7.19257 15.2233 7.13673 15.2118 7.08473 15.1899C7.03273 15.1679 6.9856 15.1358 6.94609 15.0955L5.35889 13.5083L5.97329 12.9067L6.91195 13.8411C7.20186 11.6424 8.28425 9.62517 9.95596 8.16792C11.6277 6.71068 13.7738 5.91365 15.9914 5.92645C17.6732 5.90605 19.3275 6.35476 20.7685 7.22222C22.2095 8.08968 23.3802 9.34156 24.1493 10.8374V10.8374Z" fill="white"/>
<path d="M6.83093 14.9717L6.8608 15.0015H6.83093V14.9717Z" fill="white"/>
<path d="M7.68416 14.9717V15.0015H7.6543L7.68416 14.9717Z" fill="white"/>
<path d="M26.6325 16.1367L26.0266 16.7426L25.1306 15.8423C25.0547 16.6534 24.8725 17.451 24.5887 18.2146L23.7909 17.9202C24.0254 17.2827 24.1829 16.6196 24.2602 15.9447L23.4666 16.7426L22.8607 16.1367L24.4479 14.5495C24.4876 14.5096 24.5348 14.4778 24.5868 14.4562C24.6388 14.4345 24.6945 14.4233 24.7509 14.4233C24.8072 14.4233 24.8629 14.4345 24.9149 14.4562C24.9669 14.4778 25.0141 14.5096 25.0538 14.5495L26.6325 16.1367Z" fill="white"/>
<path d="M16.0127 24.0128C14.3226 24.0168 12.6646 23.5514 11.2235 22.6685C9.78231 21.7856 8.61464 20.5198 7.85059 19.0123L8.61005 18.624C9.47007 20.3243 10.8893 21.6766 12.629 22.4536C14.3687 23.2306 16.323 23.385 18.1631 22.8907L18.3893 23.7142C17.6139 23.919 16.8147 24.0194 16.0127 24.0128Z" fill="white"/>
</g>
<defs>
<linearGradient id="paint0_linear_867_35665" x1="-6.62613" y1="38.6304" x2="38.6304" y2="-6.62613" gradientUnits="userSpaceOnUse">
<stop stop-color="#B0084D"/>
<stop offset="1" stop-color="#FF4F8B"/>
</linearGradient>
<clipPath id="clip0_867_35665">
<rect width="32" height="32" fill="white"/>
</clipPath>
</defs>
</svg>
