<svg width="32" height="32" viewBox="0 0 32 32" fill="none" xmlns="http://www.w3.org/2000/svg">
<g clip-path="url(#clip0_867_35687)">
<path d="M32 0H0V32H32V0Z" fill="url(#paint0_linear_867_35687)"/>
<path d="M22.9845 8.99007H20.3221C20.2089 8.99007 20.1004 8.94512 20.0204 8.86511C19.9403 8.78509 19.8954 8.67657 19.8954 8.56341V5.90527H20.7487V8.13674H22.9845V8.99007Z" fill="white"/>
<path d="M22.9845 24.2903H18.9951V23.4369H22.5578V8.74252L20.1471 6.33186H9.44208V23.4369H13.0047V24.2903H9.01541C8.90225 24.2903 8.79373 24.2453 8.71371 24.1653C8.6337 24.0853 8.58875 23.9767 8.58875 23.8636V5.90519C8.58875 5.79203 8.6337 5.68351 8.71371 5.60349C8.79373 5.52348 8.90225 5.47852 9.01541 5.47852H20.3221C20.3782 5.4782 20.4339 5.48896 20.4859 5.51019C20.5379 5.53143 20.5851 5.56271 20.625 5.60226L23.2874 8.26466C23.3662 8.34413 23.4107 8.45139 23.4111 8.56332V23.8636C23.4111 23.9767 23.3662 24.0853 23.2862 24.1653C23.2062 24.2453 23.0976 24.2903 22.9845 24.2903Z" fill="white"/>
<path d="M17.9967 26.5216C17.897 26.5218 17.8004 26.487 17.7237 26.4234L16.017 24.9898L14.3103 26.4234C14.2483 26.4752 14.1729 26.5082 14.0929 26.5188C14.0128 26.5294 13.9314 26.517 13.8581 26.4832C13.784 26.4489 13.7213 26.3941 13.6775 26.3253C13.6336 26.2565 13.6104 26.1765 13.6106 26.0949V22.5322H14.4639V25.1733L15.7439 24.0938C15.8206 24.03 15.9172 23.995 16.017 23.995C16.1168 23.995 16.2134 24.03 16.2901 24.0938L17.5701 25.1733V22.5322H18.4234V26.0949C18.4234 26.2081 18.3784 26.3166 18.2984 26.3966C18.2184 26.4766 18.1099 26.5216 17.9967 26.5216V26.5216Z" fill="white"/>
<path d="M16 22.959C15.717 22.9581 15.4407 22.8733 15.206 22.7154C14.9713 22.5574 14.7888 22.3333 14.6816 22.0715C14.5109 22.0124 14.3442 21.9426 14.1824 21.8624C14.0193 21.9269 13.8457 21.9602 13.6704 21.9606C13.2931 21.9594 12.9318 21.8088 12.6654 21.5417C12.3991 21.2745 12.2496 20.9127 12.2496 20.5355C12.2485 20.3618 12.2803 20.1895 12.3434 20.0278C12.2646 19.8659 12.1962 19.6991 12.1386 19.5286C11.8771 19.4213 11.6534 19.2386 11.496 19.0039C11.3386 18.7691 11.2545 18.4928 11.2545 18.2102C11.2545 17.9275 11.3386 17.6512 11.496 17.4165C11.6534 17.1817 11.8771 16.9991 12.1386 16.8918C12.1947 16.7206 12.2631 16.5538 12.3434 16.3926C12.2415 16.1355 12.217 15.8543 12.273 15.5835C12.329 15.3127 12.4631 15.0643 12.6586 14.8688C12.8541 14.6733 13.1025 14.5392 13.3733 14.4832C13.6441 14.4272 13.9253 14.4517 14.1824 14.5536C14.3442 14.4734 14.5109 14.4036 14.6816 14.3446C14.7889 14.0831 14.9715 13.8594 15.2063 13.7019C15.441 13.5445 15.7173 13.4604 16 13.4604C16.2826 13.4604 16.5589 13.5445 16.7937 13.7019C17.0284 13.8594 17.2111 14.0831 17.3184 14.3446C17.489 14.4036 17.6557 14.4734 17.8176 14.5536C17.9806 14.4891 18.1542 14.4558 18.3296 14.4555C18.5603 14.457 18.7872 14.5143 18.9909 14.6225C19.1947 14.7307 19.3692 14.8867 19.4996 15.077C19.63 15.2674 19.7123 15.4864 19.7397 15.7155C19.767 15.9446 19.7384 16.1769 19.6565 16.3926C19.7368 16.5538 19.8052 16.7206 19.8613 16.8918C20.1228 16.9991 20.3465 17.1817 20.5039 17.4165C20.6613 17.6512 20.7454 17.9275 20.7454 18.2102C20.7454 18.4928 20.6613 18.7691 20.5039 19.0039C20.3465 19.2386 20.1228 19.4213 19.8613 19.5286C19.8037 19.6991 19.7353 19.8659 19.6565 20.0278C19.7196 20.1895 19.7514 20.3618 19.7504 20.5355C19.7504 20.9098 19.6032 21.2691 19.3405 21.5357C19.0779 21.8023 18.7209 21.955 18.3466 21.9606C18.1713 21.9602 17.9976 21.9269 17.8346 21.8624C17.6728 21.9426 17.5061 22.0124 17.3354 22.0715C17.2271 22.336 17.0419 22.5619 16.8039 22.7201C16.5658 22.8783 16.2858 22.9615 16 22.959V22.959ZM14.1909 20.9579C14.2641 20.959 14.3358 20.9781 14.4 21.0134C14.6311 21.1453 14.8776 21.2485 15.1338 21.3206C15.2105 21.3413 15.28 21.383 15.3342 21.4411C15.3885 21.4991 15.4255 21.5712 15.441 21.6491C15.4685 21.7769 15.539 21.8914 15.6407 21.9736C15.7424 22.0557 15.8692 22.1005 16 22.1005C16.1307 22.1005 16.2575 22.0557 16.3592 21.9736C16.4609 21.8914 16.5314 21.7769 16.5589 21.6491C16.5744 21.5712 16.6114 21.4991 16.6657 21.4411C16.72 21.383 16.7894 21.3413 16.8661 21.3206C17.1223 21.2485 17.3688 21.1453 17.6 21.0134C17.6648 20.9759 17.7384 20.9562 17.8133 20.9562C17.8882 20.9562 17.9618 20.9759 18.0266 21.0134C18.1126 21.0635 18.2102 21.0901 18.3097 21.0906C18.4092 21.0911 18.5071 21.0654 18.5935 21.0162C18.68 20.9669 18.7519 20.8958 18.8022 20.8099C18.8525 20.724 18.8793 20.6265 18.88 20.527C18.8809 20.4226 18.8513 20.3202 18.7946 20.2326C18.7572 20.1677 18.7375 20.0941 18.7375 20.0192C18.7375 19.9443 18.7572 19.8708 18.7946 19.8059C18.9242 19.5741 19.0259 19.3277 19.0976 19.072C19.119 18.9961 19.161 18.9276 19.219 18.8741C19.277 18.8206 19.3487 18.7843 19.4261 18.7691C19.5545 18.7419 19.6697 18.6716 19.7527 18.57C19.8358 18.4683 19.8816 18.3414 19.8826 18.2102C19.8832 18.0785 19.8379 17.9507 19.7547 17.8488C19.6714 17.7468 19.5552 17.677 19.4261 17.6512C19.3482 17.6357 19.2761 17.5987 19.2181 17.5444C19.16 17.4902 19.1183 17.4207 19.0976 17.344C19.0251 17.0886 18.9235 16.8423 18.7946 16.6102C18.7572 16.5453 18.7375 16.4717 18.7375 16.3968C18.7375 16.3219 18.7572 16.2484 18.7946 16.1835C18.8513 16.0958 18.8809 15.9935 18.88 15.8891C18.8825 15.7424 18.8285 15.6004 18.7292 15.4924C18.63 15.3844 18.493 15.3187 18.3466 15.3088C18.2412 15.31 18.1381 15.3395 18.048 15.3942C17.9831 15.4316 17.9095 15.4513 17.8346 15.4513C17.7597 15.4513 17.6862 15.4316 17.6213 15.3942C17.3909 15.2617 17.1442 15.1599 16.8874 15.0912C16.8107 15.0705 16.7413 15.0288 16.687 14.9707C16.6327 14.9127 16.5958 14.8406 16.5802 14.7627C16.5572 14.6312 16.4885 14.512 16.3862 14.4262C16.284 14.3403 16.1548 14.2933 16.0213 14.2933C15.8878 14.2933 15.7586 14.3403 15.6563 14.4262C15.5541 14.512 15.4854 14.6312 15.4624 14.7627C15.4468 14.8406 15.4098 14.9127 15.3556 14.9707C15.3013 15.0288 15.2319 15.0705 15.1552 15.0912C14.8984 15.1599 14.6517 15.2617 14.4213 15.3942C14.3564 15.4316 14.2829 15.4513 14.208 15.4513C14.1331 15.4513 14.0595 15.4316 13.9946 15.3942C13.9045 15.3395 13.8014 15.31 13.696 15.3088C13.5451 15.31 13.4007 15.3707 13.2944 15.4778C13.1881 15.5849 13.1285 15.7297 13.1285 15.8806C13.1275 15.9849 13.1572 16.0873 13.2138 16.175C13.2513 16.2398 13.271 16.3134 13.271 16.3883C13.271 16.4632 13.2513 16.5368 13.2138 16.6016C13.0843 16.8334 12.9826 17.0798 12.9109 17.3355C12.8902 17.4122 12.8484 17.4816 12.7904 17.5359C12.7323 17.5902 12.6603 17.6272 12.5824 17.6427C12.4532 17.6684 12.3371 17.7383 12.2538 17.8402C12.1705 17.9422 12.1253 18.07 12.1258 18.2016C12.1228 18.3321 12.1643 18.4598 12.2433 18.5637C12.3224 18.6675 12.4344 18.7415 12.561 18.7734C12.6384 18.7885 12.7101 18.8249 12.7681 18.8784C12.8261 18.9319 12.8682 19.0004 12.8896 19.0763C12.9605 19.3323 13.0622 19.5787 13.1925 19.8102C13.2299 19.875 13.2497 19.9486 13.2497 20.0235C13.2497 20.0984 13.2299 20.172 13.1925 20.2368C13.1359 20.3245 13.1062 20.4269 13.1072 20.5312C13.1078 20.6307 13.1346 20.7283 13.1849 20.8142C13.2352 20.9 13.3072 20.9712 13.3936 21.0204C13.48 21.0697 13.5779 21.0954 13.6774 21.0949C13.7769 21.0944 13.8745 21.0678 13.9605 21.0176C14.0301 20.9763 14.11 20.9555 14.1909 20.9579V20.9579Z" fill="white"/>
<path d="M14.6688 7.36865H10.6794V8.22199H14.6688V7.36865Z" fill="white"/>
<path d="M21.3205 9.46777H10.6794V10.3211H21.3205V9.46777Z" fill="white"/>
<path d="M21.3205 10.7988H10.6794V11.6522H21.3205V10.7988Z" fill="white"/>
<path d="M21.3205 12.1304H10.6794V12.9837H21.3205V12.1304Z" fill="white"/>
<path d="M15.633 19.3411C15.5769 19.3414 15.5212 19.3307 15.4692 19.3094C15.4172 19.2882 15.3699 19.2569 15.3301 19.2174L14.6133 18.5006L15.2191 17.9203L15.6458 18.347L16.7765 17.2163L17.3781 17.8179L15.9359 19.2003C15.8975 19.2429 15.8509 19.2774 15.7988 19.3016C15.7468 19.3258 15.6904 19.3392 15.633 19.3411Z" fill="white"/>
<path d="M15.9914 21.1326C15.4106 21.1335 14.8426 20.962 14.3594 20.64C13.8761 20.318 13.4991 19.8598 13.2763 19.3235C13.0535 18.7872 12.9947 18.1968 13.1075 17.6271C13.2203 17.0574 13.4995 16.534 13.9099 16.123C14.3203 15.712 14.8433 15.432 15.4129 15.3184C15.9824 15.2048 16.5728 15.2627 17.1095 15.4848C17.6461 15.7068 18.1048 16.0831 18.4276 16.5659C18.7503 17.0487 18.9226 17.6164 18.9226 18.1972C18.9226 18.975 18.6139 19.721 18.0643 20.2714C17.5147 20.8217 16.7692 21.1315 15.9914 21.1326V21.1326ZM15.9914 16.1193C15.5792 16.1185 15.1761 16.24 14.833 16.4684C14.4899 16.6969 14.2224 17.022 14.0643 17.4027C13.9062 17.7833 13.8646 18.2023 13.9448 18.6066C14.025 19.0109 14.2234 19.3823 14.5148 19.6737C14.8063 19.9652 15.1777 20.1636 15.5819 20.2438C15.9862 20.324 16.4052 20.2824 16.7859 20.1243C17.1665 19.9661 17.4916 19.6986 17.7201 19.3556C17.9486 19.0125 18.0701 18.6094 18.0692 18.1972C18.0681 17.6464 17.8488 17.1186 17.4594 16.7292C17.07 16.3397 16.5421 16.1204 15.9914 16.1193V16.1193Z" fill="white"/>
</g>
<defs>
<linearGradient id="paint0_linear_867_35687" x1="-6.62742" y1="38.6261" x2="38.6274" y2="-6.6287" gradientUnits="userSpaceOnUse">
<stop stop-color="#B0084D"/>
<stop offset="1" stop-color="#FF4F8B"/>
</linearGradient>
<clipPath id="clip0_867_35687">
<rect width="32" height="32" fill="white"/>
</clipPath>
</defs>
</svg>
