<svg width="32" height="32" viewBox="0 0 32 32" fill="none" xmlns="http://www.w3.org/2000/svg">
<g clip-path="url(#clip0_854_27563)">
<path d="M32 0H0V32H32V0Z" fill="url(#paint0_linear_854_27563)"/>
<path fill-rule="evenodd" clip-rule="evenodd" d="M13.7064 11.0494L11.7256 8.5734L12.3512 8.0734L14.2112 10.3998H21.0344L20.1176 9.4822L20.6832 8.9166L22.2832 10.5166C22.4392 10.6726 22.4392 10.9262 22.2832 11.0822L20.6832 12.6822L20.1176 12.1166L21.0344 11.199H14.0192C13.8968 11.199 13.7824 11.1446 13.7064 11.0494ZM22.2832 20.9166C22.4392 21.0726 22.4392 21.3262 22.2832 21.4822L20.6832 23.0822L20.1176 22.5166L21.0344 21.5998H14.2112L12.3512 23.9254L11.7256 23.4254L13.7064 20.9494C13.7824 20.8542 13.8968 20.7998 14.0192 20.7998H21.0344L20.1176 19.8822L20.6832 19.3166L22.2832 20.9166ZM27.0832 16.2822L25.4832 17.8822L24.9176 17.3166L25.8344 16.399H16.8V15.599H25.8344L24.9176 14.6822L25.4832 14.1166L27.0832 15.7166C27.2392 15.8726 27.2392 16.1262 27.0832 16.2822ZM7.20005 26.399C6.31845 26.399 5.60005 25.6822 5.60005 24.799C5.60005 23.9166 6.31845 23.1998 7.20005 23.1998C8.08245 23.1998 8.80005 23.9166 8.80005 24.799C8.80005 25.6822 8.08245 26.399 7.20005 26.399ZM12.8 14.399C13.6824 14.399 14.4 15.1166 14.4 15.999C14.4 16.8822 13.6824 17.5998 12.8 17.5998C11.9184 17.5998 11.2 16.8822 11.2 15.999C11.2 15.1166 11.9184 14.399 12.8 14.399ZM5.60005 7.1998C5.60005 6.3166 6.31845 5.5998 7.20005 5.5998C8.08245 5.5998 8.80005 6.3166 8.80005 7.1998C8.80005 8.0822 8.08245 8.799 7.20005 8.799C6.31845 8.799 5.60005 8.0822 5.60005 7.1998ZM8.75765 22.9894L12.2712 18.3358C12.4424 18.375 12.6184 18.3998 12.8 18.3998C14.1232 18.3998 15.2 17.323 15.2 15.999C15.2 14.6758 14.1232 13.5998 12.8 13.5998C12.6184 13.5998 12.4424 13.6238 12.2712 13.663L8.75765 9.0094C9.26885 8.5694 9.60005 7.9254 9.60005 7.1998C9.60005 5.8758 8.52325 4.7998 7.20005 4.7998C5.87685 4.7998 4.80005 5.8758 4.80005 7.1998C4.80005 8.523 5.87685 9.5998 7.20005 9.5998C7.52325 9.5998 7.82965 9.5334 8.11125 9.4174L8.08085 9.4406L11.5096 13.9822C10.8448 14.4094 10.4 15.1518 10.4 15.999C10.4 16.847 10.8448 17.5894 11.5096 18.0166L8.08085 22.5582L8.11125 22.5814C7.82965 22.4654 7.52325 22.3998 7.20005 22.3998C5.87685 22.3998 4.80005 23.4758 4.80005 24.799C4.80005 26.123 5.87685 27.199 7.20005 27.199C8.52325 27.199 9.60005 26.123 9.60005 24.799C9.60005 24.0734 9.26885 23.4294 8.75765 22.9894Z" fill="white"/>
</g>
<defs>
<linearGradient id="paint0_linear_854_27563" x1="-6.62742" y1="38.6287" x2="38.6274" y2="-6.62613" gradientUnits="userSpaceOnUse">
<stop stop-color="#B0084D"/>
<stop offset="1" stop-color="#FF4F8B"/>
</linearGradient>
<clipPath id="clip0_854_27563">
<rect width="32" height="32" fill="white"/>
</clipPath>
</defs>
</svg>
