<svg width="32" height="32" viewBox="0 0 32 32" fill="none" xmlns="http://www.w3.org/2000/svg">
<g clip-path="url(#clip0_867_35726)">
<path d="M32 0H0V32H32V0Z" fill="url(#paint0_linear_867_35726)"/>
<path d="M26.24 26.2398H23.2534V25.3864H25.8134V10.0264H6.18671V25.3864H18.1334V26.2398H5.76004C5.64688 26.2398 5.53836 26.1948 5.45834 26.1148C5.37833 26.0348 5.33337 25.9263 5.33337 25.8131V6.18643C5.33337 6.07327 5.37833 5.96475 5.45834 5.88473C5.53836 5.80472 5.64688 5.75977 5.76004 5.75977H26.24C26.3532 5.75977 26.4617 5.80472 26.5417 5.88473C26.6218 5.96475 26.6667 6.07327 26.6667 6.18643V25.8131C26.6667 25.9263 26.6218 26.0348 26.5417 26.1148C26.4617 26.1948 26.3532 26.2398 26.24 26.2398ZM6.18671 9.1731H25.8134V6.6131H6.18671V9.1731ZM17.1435 24.0723H14.8566C14.7434 24.0723 14.6349 24.0273 14.5549 23.9473C14.4749 23.8673 14.4299 23.7588 14.4299 23.6456V23.2659C14.0439 23.1508 13.6708 22.9964 13.3163 22.8051L13.0475 23.0739C12.9676 23.1534 12.8594 23.198 12.7467 23.198C12.634 23.198 12.5258 23.1534 12.4459 23.0739L10.8288 21.4611C10.7893 21.4212 10.758 21.3739 10.7368 21.322C10.7155 21.27 10.7048 21.2143 10.7051 21.1582C10.7048 21.102 10.7155 21.0463 10.7368 20.9944C10.758 20.9424 10.7893 20.8951 10.8288 20.8552L11.1019 20.5864C10.9068 20.2333 10.7509 19.8598 10.6368 19.4728H10.24C10.1269 19.4728 10.0184 19.4279 9.93834 19.3479C9.85833 19.2678 9.81337 19.1593 9.81337 19.0462V16.7635C9.81337 16.6503 9.85833 16.5418 9.93834 16.4618C10.0184 16.3818 10.1269 16.3368 10.24 16.3368H10.624C10.7411 15.9502 10.8984 15.577 11.0934 15.2232L10.8288 14.9331C10.7494 14.8532 10.7048 14.745 10.7048 14.6323C10.7048 14.5196 10.7494 14.4114 10.8288 14.3315L12.4459 12.7144C12.5254 12.6356 12.6326 12.5912 12.7446 12.5907C12.8007 12.5904 12.8564 12.6011 12.9084 12.6224C12.9604 12.6436 13.0076 12.6749 13.0475 12.7144L13.3206 12.9875C13.6736 12.7963 14.0453 12.6419 14.4299 12.5267V12.1427C14.4299 12.0295 14.4749 11.921 14.5549 11.841C14.6349 11.761 14.7434 11.716 14.8566 11.716H17.1435C17.2567 11.716 17.3652 11.761 17.4452 11.841C17.5252 11.921 17.5702 12.0295 17.5702 12.1427V12.531C17.9561 12.6424 18.3282 12.797 18.6795 12.9918L18.9526 12.7144C18.9924 12.6749 19.0397 12.6436 19.0917 12.6224C19.1437 12.6011 19.1994 12.5904 19.2555 12.5907C19.3674 12.5912 19.4747 12.6356 19.5542 12.7144L21.1712 14.3315C21.2507 14.4114 21.2953 14.5196 21.2953 14.6323C21.2953 14.745 21.2507 14.8532 21.1712 14.9331L20.8982 15.2062C21.0937 15.5586 21.2483 15.9322 21.359 16.3198H21.76C21.8732 16.3198 21.9817 16.3647 22.0617 16.4447C22.1418 16.5247 22.1867 16.6333 22.1867 16.7464V19.0291C22.1867 19.1423 22.1418 19.2508 22.0617 19.3308C21.9817 19.4108 21.8732 19.4558 21.76 19.4558H21.376C21.2631 19.8493 21.1057 20.2286 20.9067 20.5864L21.1798 20.8552C21.2198 20.8949 21.2515 20.9421 21.2732 20.9941C21.2948 21.0461 21.306 21.1018 21.306 21.1582C21.306 21.2145 21.2948 21.2703 21.2732 21.3223C21.2515 21.3742 21.2198 21.4214 21.1798 21.4611L19.5627 23.0739C19.4828 23.1534 19.3746 23.198 19.2619 23.198C19.1492 23.198 19.041 23.1534 18.9611 23.0739L18.6923 22.8051C18.3387 22.9981 17.9653 23.1526 17.5787 23.2659V23.6456C17.5787 23.7024 17.5674 23.7586 17.5454 23.8109C17.5235 23.8632 17.4913 23.9107 17.4507 23.9504C17.4102 23.9901 17.3622 24.0214 17.3094 24.0423C17.2567 24.0632 17.2003 24.0734 17.1435 24.0723ZM15.2832 23.219H16.7168V22.9374C16.7142 22.8393 16.7455 22.7434 16.8053 22.6657C16.8651 22.5879 16.9499 22.5332 17.0454 22.5107C17.5696 22.3919 18.0702 22.1856 18.5259 21.9006C18.6078 21.8491 18.7048 21.8269 18.8009 21.8378C18.897 21.8486 18.9866 21.8918 19.055 21.9603L19.2555 22.1608L20.2667 21.1496L20.0534 20.9534C19.9849 20.885 19.9417 20.7954 19.9309 20.6993C19.92 20.6032 19.9421 20.5062 19.9936 20.4243C20.2821 19.9734 20.4887 19.4751 20.6038 18.9523C20.6254 18.856 20.6798 18.7703 20.7576 18.7096C20.8354 18.6489 20.9318 18.6171 21.0304 18.6195H21.3334V17.1902H21.0475C20.9489 17.1926 20.8525 17.1607 20.7747 17.1001C20.6969 17.0394 20.6425 16.9536 20.6208 16.8574C20.5039 16.3338 20.2975 15.8344 20.0107 15.3811C19.957 15.3011 19.932 15.2052 19.9398 15.1091C19.9475 15.0131 19.9875 14.9224 20.0534 14.852L20.2582 14.6472L19.2555 13.6531L19.0507 13.8622C18.9816 13.931 18.8909 13.9741 18.7938 13.9841C18.6968 13.9942 18.5992 13.9708 18.5174 13.9176C18.0734 13.6278 17.5826 13.417 17.0667 13.2947C16.9712 13.2722 16.8865 13.2175 16.8266 13.1397C16.7668 13.062 16.7356 12.9661 16.7382 12.868V12.5864H15.2832V12.8766C15.2856 12.9752 15.2538 13.0716 15.1931 13.1494C15.1324 13.2272 15.0467 13.2816 14.9504 13.3032C14.4291 13.4229 13.9315 13.6291 13.4784 13.9134C13.3965 13.9649 13.2996 13.987 13.2034 13.9761C13.1073 13.9653 13.0177 13.9221 12.9494 13.8536L12.7446 13.6531L11.7334 14.6472L11.9382 14.852C12.0077 14.9207 12.0515 15.0111 12.0624 15.1081C12.0733 15.2052 12.0505 15.3031 11.9979 15.3854C11.7121 15.8377 11.5058 16.3355 11.3878 16.8574C11.3661 16.9536 11.3117 17.0394 11.2339 17.1001C11.1562 17.1607 11.0597 17.1926 10.9611 17.1902H10.6667V18.6195H10.9526C11.0512 18.6171 11.1476 18.6489 11.2254 18.7096C11.3032 18.7703 11.3576 18.856 11.3792 18.9523C11.498 19.4752 11.7043 19.9743 11.9894 20.4286C12.0431 20.5086 12.0681 20.6045 12.0603 20.7005C12.0526 20.7966 12.0125 20.8872 11.9467 20.9576L11.7419 21.1582L12.7446 22.1864L12.9494 21.9816C13.0182 21.9138 13.1081 21.8714 13.2042 21.8614C13.3003 21.8513 13.397 21.8741 13.4784 21.9262C13.9271 22.2034 14.4188 22.4039 14.9334 22.5192C15.0296 22.5409 15.1154 22.5953 15.1761 22.6731C15.2367 22.7509 15.2686 22.8473 15.2662 22.9459L15.2832 23.219ZM16 20.1982C15.5453 20.1982 15.1008 20.0631 14.723 19.8101C14.3451 19.5571 14.0509 19.1976 13.8777 18.7771C13.7045 18.3567 13.66 17.8943 13.75 17.4486C13.84 17.0028 14.0603 16.5939 14.383 16.2735C14.7058 15.9532 15.1164 15.7359 15.5628 15.6493C16.0092 15.5626 16.4712 15.6105 16.8904 15.7869C17.3095 15.9633 17.6668 16.2601 17.917 16.6399C18.1671 17.0196 18.2989 17.4651 18.2955 17.9198C18.2899 18.5252 18.0457 19.1041 17.6159 19.5306C17.1862 19.9572 16.6055 20.1971 16 20.1982V20.1982ZM16 16.4648C15.7154 16.4648 15.4371 16.5491 15.2002 16.707C14.9633 16.8649 14.7785 17.0894 14.669 17.3522C14.5594 17.6149 14.5301 17.9042 14.5848 18.1836C14.6394 18.463 14.7755 18.72 14.9759 18.9222C15.1763 19.1244 15.432 19.2627 15.7109 19.3198C15.9898 19.3769 16.2794 19.3502 16.5431 19.243C16.8068 19.1358 17.0329 18.9529 17.1929 18.7175C17.3529 18.482 17.4396 18.2044 17.4422 17.9198C17.4439 17.7293 17.4078 17.5404 17.3361 17.364C17.2644 17.1875 17.1584 17.027 17.0243 16.8917C16.8903 16.7565 16.7307 16.6491 16.5549 16.5758C16.3791 16.5025 16.1905 16.4648 16 16.4648ZM11.3067 8.31977H10.4534V7.46643H11.3067V8.31977ZM9.60004 8.31977H8.74671V7.46643H9.60004V8.31977ZM7.89337 8.31977H7.04004V7.46643H7.89337V8.31977Z" fill="white"/>
</g>
<defs>
<linearGradient id="paint0_linear_867_35726" x1="-6.62613" y1="38.6261" x2="38.6261" y2="-6.62613" gradientUnits="userSpaceOnUse">
<stop stop-color="#B0084D"/>
<stop offset="1" stop-color="#FF4F8B"/>
</linearGradient>
<clipPath id="clip0_867_35726">
<rect width="32" height="32" fill="white"/>
</clipPath>
</defs>
</svg>
