<svg width="32" height="32" viewBox="0 0 32 32" fill="none" xmlns="http://www.w3.org/2000/svg">
<g clip-path="url(#clip0_854_27699)">
<path d="M32 0H0V32H32V0Z" fill="url(#paint0_linear_854_27699)"/>
<path fill-rule="evenodd" clip-rule="evenodd" d="M20.0826 19.1998H21.6826V19.9998H20.0826V21.5998H19.2826V19.9998H17.6826V19.1998H19.2826V17.5998H20.0826V19.1998ZM22.4826 14.3998H25.6826V11.1998H22.4826V14.3998ZM26.0826 10.3998H22.0826C21.8618 10.3998 21.6826 10.579 21.6826 10.7998V14.7998C21.6826 15.0206 21.8618 15.1998 22.0826 15.1998H26.0826C26.3034 15.1998 26.4826 15.0206 26.4826 14.7998V10.7998C26.4826 10.579 26.3034 10.3998 26.0826 10.3998ZM24.8826 24.7998H26.4826V25.5998H24.8826V27.1998H24.0826V25.5998H22.4826V24.7998H24.0826V23.1998H24.8826V24.7998ZM16.0826 25.5998H20.0826V24.7998H16.0826V25.5998ZM18.2882 14.2166L17.4122 13.3406L18.8858 11.867L19.7618 12.743L18.2882 14.2166ZM6.64105 25.863L5.76585 24.987L16.8466 13.9062L17.7226 14.7822L6.64105 25.863ZM20.6098 12.4606L19.1682 11.0182C19.0938 10.9438 18.9922 10.9014 18.8858 10.9014C18.7794 10.9014 18.6778 10.9438 18.6026 11.0182L4.91705 24.7038C4.76105 24.8606 4.76105 25.1134 4.91705 25.2694L6.35865 26.7118C6.43305 26.7862 6.53465 26.8286 6.64105 26.8286C6.74745 26.8286 6.84905 26.7862 6.92425 26.7118L20.6098 13.0262C20.7658 12.8694 20.7658 12.6166 20.6098 12.4606ZM10.4826 12.7998H8.88265V11.9998H10.4826V10.3998H11.2826V11.9998H12.8826V12.7998H11.2826V14.3998H10.4826V12.7998ZM16.8826 8.7998H20.0826V5.5998H16.8826V8.7998ZM16.4826 9.5998H20.4826C20.7034 9.5998 20.8826 9.4206 20.8826 9.1998V5.1998C20.8826 4.979 20.7034 4.7998 20.4826 4.7998H16.4826C16.2618 4.7998 16.0826 4.979 16.0826 5.1998V9.1998C16.0826 9.4206 16.2618 9.5998 16.4826 9.5998ZM8.88265 7.1998H11.2826V6.3998H8.88265V7.1998ZM4.88265 7.1998H8.08265V6.3998H4.88265V7.1998ZM22.4826 8.7998H25.6826V5.5998H22.4826V8.7998ZM26.0826 4.7998H22.0826C21.8618 4.7998 21.6826 4.979 21.6826 5.1998V9.1998C21.6826 9.4206 21.8618 9.5998 22.0826 9.5998H26.0826C26.3034 9.5998 26.4826 9.4206 26.4826 9.1998V5.1998C26.4826 4.979 26.3034 4.7998 26.0826 4.7998Z" fill="white"/>
</g>
<defs>
<linearGradient id="paint0_linear_854_27699" x1="-6.62742" y1="38.6287" x2="38.6274" y2="-6.62613" gradientUnits="userSpaceOnUse">
<stop stop-color="#B0084D"/>
<stop offset="1" stop-color="#FF4F8B"/>
</linearGradient>
<clipPath id="clip0_854_27699">
<rect width="32" height="32" fill="white"/>
</clipPath>
</defs>
</svg>
