<svg width="32" height="32" viewBox="0 0 32 32" fill="none" xmlns="http://www.w3.org/2000/svg">
<g clip-path="url(#clip0_867_35708)">
<path d="M32 0H0V32H32V0Z" fill="url(#paint0_linear_867_35708)"/>
<path d="M23.68 5.3335H5.76004C5.64688 5.3335 5.53836 5.37845 5.45834 5.45846C5.37833 5.53848 5.33337 5.647 5.33337 5.76016V21.9735C5.33337 22.0867 5.37833 22.1952 5.45834 22.2752C5.53836 22.3552 5.64688 22.4002 5.76004 22.4002H14.5067C14.4381 22.1197 14.391 21.8345 14.3659 21.5468H6.18671V6.18683H23.2534V14.7202C23.5473 14.8277 23.8325 14.9575 24.1067 15.1084V5.76016C24.1067 5.647 24.0618 5.53848 23.9817 5.45846C23.9017 5.37845 23.7932 5.3335 23.68 5.3335Z" fill="white"/>
<path d="M21.9734 9.17337H21.5468V7.46671C21.5468 7.35355 21.5018 7.24502 21.4218 7.16501C21.3418 7.08499 21.2332 7.04004 21.1201 7.04004H19.4134C19.3003 7.04004 19.1917 7.08499 19.1117 7.16501C19.0317 7.24502 18.9868 7.35355 18.9868 7.46671V9.17337H18.5601C18.4469 9.17337 18.3384 9.21832 18.2584 9.29834C18.1784 9.37835 18.1334 9.48688 18.1334 9.60004V11.3067C18.1334 11.4199 18.1784 11.5284 18.2584 11.6084C18.3384 11.6884 18.4469 11.7334 18.5601 11.7334H18.9868V14.592C19.2656 14.5023 19.5509 14.4338 19.8401 14.3872V11.7334H20.6934V14.2934H20.9452C21.1461 14.2925 21.3469 14.3024 21.5468 14.3232V11.7334H21.9734C22.0866 11.7334 22.1951 11.6884 22.2751 11.6084C22.3551 11.5284 22.4001 11.4199 22.4001 11.3067V9.60004C22.4001 9.48688 22.3551 9.37835 22.2751 9.29834C22.1951 9.21832 22.0866 9.17337 21.9734 9.17337ZM19.8401 7.89337H20.6934V9.17337H19.8401V7.89337ZM21.5468 10.88H18.9868V10.0267H21.5468V10.88Z" fill="white"/>
<path d="M16.4267 13.8667H16V7.46671C16 7.35355 15.9551 7.24502 15.875 7.16501C15.795 7.08499 15.6865 7.04004 15.5733 7.04004H13.8667C13.8088 7.03997 13.7515 7.05167 13.6983 7.07443C13.6451 7.0972 13.5971 7.13055 13.5572 7.17245C13.5173 7.21436 13.4863 7.26395 13.4661 7.3182C13.446 7.37246 13.4371 7.43024 13.44 7.48804V13.888H13.0133C12.9002 13.888 12.7917 13.933 12.7116 14.013C12.6316 14.093 12.5867 14.2015 12.5867 14.3147V16.0214C12.5867 16.1345 12.6316 16.2431 12.7116 16.3231C12.7917 16.4031 12.9002 16.448 13.0133 16.448H13.44V20.288C13.44 20.4012 13.485 20.5097 13.565 20.5897C13.645 20.6698 13.7535 20.7147 13.8667 20.7147H14.3531C14.3606 20.4287 14.3877 20.1436 14.4341 19.8614H14.2933V16.448H15.1467V17.7536C15.3832 17.318 15.6696 16.9114 16 16.5419V16.4267H16.0853C16.3213 16.1671 16.5781 15.9274 16.8533 15.7099V14.2934C16.8533 14.1802 16.8084 14.0717 16.7284 13.9917C16.6484 13.9117 16.5398 13.8667 16.4267 13.8667ZM14.2933 7.89337H15.1467V13.8667H14.2933V7.89337ZM16 15.5734H13.44V14.72H16V15.5734Z" fill="white"/>
<path d="M10.88 10.4534H10.4534V7.46671C10.4534 7.35355 10.4084 7.24502 10.3284 7.16501C10.2484 7.08499 10.1399 7.04004 10.0267 7.04004H8.32004C8.20688 7.04004 8.09836 7.08499 8.01834 7.16501C7.93832 7.24502 7.89337 7.35355 7.89337 7.46671V10.4534H7.46671C7.35355 10.4534 7.24502 10.4983 7.16501 10.5783C7.08499 10.6584 7.04004 10.7669 7.04004 10.88V12.5867C7.04004 12.6999 7.08499 12.8084 7.16501 12.8884C7.24502 12.9684 7.35355 13.0134 7.46671 13.0134H7.89337V20.2667C7.89337 20.3799 7.93832 20.4884 8.01834 20.5684C8.09836 20.6484 8.20688 20.6934 8.32004 20.6934H10.0267C10.1399 20.6934 10.2484 20.6484 10.3284 20.5684C10.4084 20.4884 10.4534 20.3799 10.4534 20.2667V13.0134H10.88C10.9932 13.0134 11.1017 12.9684 11.1817 12.8884C11.2618 12.8084 11.3067 12.6999 11.3067 12.5867V10.88C11.3067 10.7669 11.2618 10.6584 11.1817 10.5783C11.1017 10.4983 10.9932 10.4534 10.88 10.4534ZM8.74671 7.89337H9.60004V10.4534H8.74671V7.89337ZM9.60004 19.84H8.74671V13.0134H9.60004V19.84ZM10.4534 12.16H7.89337V11.3067H10.4534V12.16Z" fill="white"/>
<path d="M26.5345 19.5374C26.4919 19.4973 26.4415 19.4663 26.3864 19.4465C26.3314 19.4267 26.2729 19.4184 26.2145 19.4222L25.6769 19.452C25.583 19.1452 25.4602 18.8481 25.3099 18.5646L25.711 18.2019C25.7549 18.1645 25.7901 18.1181 25.8144 18.0658C25.8387 18.0135 25.8515 17.9566 25.8518 17.899C25.8539 17.8407 25.8439 17.7826 25.8227 17.7283C25.8014 17.674 25.7692 17.6246 25.7281 17.5832L24.2305 16.0856C24.1452 16.0046 24.0324 15.9588 23.9147 15.9576C23.8563 15.9595 23.7989 15.9733 23.7461 15.9983C23.6932 16.0232 23.6461 16.0588 23.6075 16.1027L23.2491 16.508C22.9663 16.3554 22.669 16.2311 22.3617 16.1368L22.3915 15.5992C22.3953 15.5409 22.387 15.4823 22.3672 15.4273C22.3474 15.3722 22.3165 15.3218 22.2763 15.2792C22.2362 15.2371 22.1878 15.2037 22.1343 15.1809C22.0807 15.1582 22.0231 15.1466 21.9649 15.147H19.8315C19.7733 15.1469 19.7156 15.1587 19.6621 15.1817C19.6086 15.2048 19.5604 15.2385 19.5204 15.2809C19.4804 15.3232 19.4496 15.3733 19.4297 15.4281C19.4098 15.4829 19.4014 15.5411 19.4049 15.5992L19.4347 16.1368C19.1279 16.2307 18.8308 16.3535 18.5473 16.5038L18.1846 16.1027C18.1461 16.0588 18.0989 16.0232 18.0461 15.9983C17.9932 15.9733 17.9358 15.9595 17.8774 15.9576C17.8195 15.9567 17.7621 15.9676 17.7085 15.9896C17.655 16.0116 17.6065 16.0443 17.5659 16.0856L16.0854 17.5832C16.0435 17.6243 16.0105 17.6735 15.9885 17.7278C15.9665 17.7821 15.9559 17.8404 15.9574 17.899C15.9598 17.9567 15.9739 18.0133 15.9989 18.0653C16.0238 18.1174 16.0591 18.1639 16.1025 18.2019L16.5035 18.5646C16.3533 18.8481 16.2304 19.1452 16.1366 19.452L15.599 19.4222C15.5406 19.4184 15.4821 19.4267 15.427 19.4465C15.372 19.4663 15.3216 19.4973 15.279 19.5374C15.2369 19.5775 15.2034 19.6259 15.1807 19.6794C15.1579 19.733 15.1464 19.7907 15.1467 19.8488V21.9822C15.1464 22.0404 15.1579 22.098 15.1807 22.1516C15.2034 22.2052 15.2369 22.2535 15.279 22.2936C15.3216 22.3338 15.372 22.3647 15.427 22.3845C15.4821 22.4043 15.5406 22.4126 15.599 22.4088L16.1323 22.379C16.2265 22.6877 16.3509 22.9864 16.5035 23.2707L16.1025 23.6291C16.0591 23.6672 16.0238 23.7136 15.9989 23.7657C15.9739 23.8178 15.9598 23.8744 15.9574 23.932C15.9559 23.9906 15.9665 24.0489 15.9885 24.1032C16.0105 24.1576 16.0435 24.2068 16.0854 24.2478L17.583 25.7454C17.6235 25.7867 17.672 25.8194 17.7256 25.8414C17.7791 25.8634 17.8366 25.8743 17.8945 25.8734C17.9529 25.8715 18.0103 25.8577 18.0631 25.8327C18.116 25.8078 18.1631 25.7722 18.2017 25.7283L18.5601 25.3272C18.8444 25.4799 19.1431 25.6043 19.4518 25.6984L19.4219 26.2318C19.4184 26.2899 19.4269 26.3482 19.4468 26.4029C19.4666 26.4577 19.4975 26.5078 19.5375 26.5502C19.5775 26.5925 19.6257 26.6263 19.6792 26.6493C19.7327 26.6723 19.7904 26.6842 19.8486 26.684H21.9819C22.0401 26.6844 22.0978 26.6729 22.1513 26.6501C22.2049 26.6274 22.2533 26.5939 22.2934 26.5518C22.3335 26.5092 22.3644 26.4588 22.3843 26.4038C22.4041 26.3487 22.4124 26.2902 22.4086 26.2318L22.3787 25.6984C22.6874 25.6043 22.9861 25.4799 23.2705 25.3272L23.6246 25.7283C23.6631 25.7722 23.7103 25.8078 23.7631 25.8327C23.816 25.8577 23.8734 25.8715 23.9318 25.8734C24.0496 25.8731 24.1628 25.8272 24.2475 25.7454L25.7451 24.2478C25.7862 24.2064 25.8184 24.157 25.8397 24.1027C25.861 24.0484 25.8709 23.9903 25.8689 23.932C25.8686 23.8744 25.8558 23.8175 25.8315 23.7652C25.8072 23.7129 25.7719 23.6665 25.7281 23.6291L25.327 23.2707C25.4765 22.9854 25.5994 22.6869 25.6939 22.379L26.2315 22.4088C26.2899 22.4126 26.3485 22.4043 26.4035 22.3845C26.4586 22.3647 26.5089 22.3338 26.5515 22.2936C26.5937 22.2535 26.6271 22.2052 26.6499 22.1516C26.6726 22.098 26.6842 22.0404 26.6838 21.9822V19.8488C26.682 19.7894 26.6678 19.731 26.6421 19.6773C26.6163 19.6237 26.5797 19.576 26.5345 19.5374V19.5374ZM25.8134 21.5171L25.3867 21.4915C25.2881 21.4891 25.1917 21.5209 25.1139 21.5816C25.0361 21.6423 24.9817 21.7281 24.9601 21.8243C24.8563 22.2782 24.6759 22.711 24.4267 23.1043C24.3728 23.1897 24.351 23.2915 24.365 23.3915C24.3791 23.4915 24.4282 23.5832 24.5035 23.6504L24.8278 23.9363L23.9745 24.7896L23.6886 24.4654C23.6214 24.39 23.5296 24.3409 23.4296 24.3269C23.3296 24.3128 23.2279 24.3347 23.1425 24.3886C22.749 24.6384 22.3163 24.8201 21.8625 24.9262C21.767 24.9487 21.6822 25.0034 21.6224 25.0811C21.5626 25.1588 21.5313 25.2548 21.5339 25.3528L21.5553 25.7795H20.2966L20.3222 25.3528C20.3246 25.2542 20.2928 25.1578 20.2321 25.08C20.1714 25.0022 20.0857 24.9479 19.9894 24.9262C19.536 24.819 19.1034 24.6373 18.7094 24.3886C18.624 24.3347 18.5223 24.3128 18.4223 24.3269C18.3223 24.3409 18.2305 24.39 18.1633 24.4654L17.8774 24.7896L17.0241 23.9363L17.3483 23.6504C17.4237 23.5832 17.4728 23.4915 17.4868 23.3915C17.5009 23.2915 17.479 23.1897 17.4251 23.1043C17.1753 22.7114 16.9949 22.2784 16.8918 21.8243C16.8701 21.7281 16.8158 21.6423 16.738 21.5816C16.6602 21.5209 16.5638 21.4891 16.4651 21.4915L16.0385 21.5171V20.2968L16.4651 20.3224C16.5638 20.3249 16.6602 20.293 16.738 20.2323C16.8158 20.1717 16.8701 20.0859 16.8918 19.9896C16.9944 19.5354 17.1749 19.1024 17.4251 18.7096C17.479 18.6243 17.5009 18.5225 17.4868 18.4225C17.4728 18.3225 17.4237 18.2307 17.3483 18.1635L17.0241 17.8734L17.8774 17.02L18.1675 17.3443C18.2348 17.4197 18.3265 17.4688 18.4265 17.4828C18.5265 17.4969 18.6283 17.475 18.7137 17.4211C19.1084 17.1747 19.5408 16.9946 19.9937 16.8878C20.0899 16.8661 20.1757 16.8117 20.2364 16.734C20.297 16.6562 20.3289 16.5597 20.3265 16.4611L20.3009 16.0344H21.5169L21.4955 16.4611C21.4929 16.5592 21.5242 16.6551 21.584 16.7328C21.6438 16.8105 21.7286 16.8653 21.8241 16.8878C22.2782 16.9909 22.7111 17.1713 23.1041 17.4211C23.1895 17.475 23.2912 17.4969 23.3912 17.4828C23.4912 17.4688 23.583 17.4197 23.6502 17.3443L23.9403 17.0158L24.7937 17.8691L24.4694 18.1592C24.394 18.2265 24.345 18.3182 24.3309 18.4182C24.3168 18.5182 24.3387 18.62 24.3926 18.7054C24.6411 19.099 24.8214 19.5318 24.9259 19.9854C24.9476 20.0816 25.002 20.1674 25.0798 20.2281C25.1576 20.2887 25.254 20.3206 25.3526 20.3182L25.7793 20.2926L25.8134 21.5171Z" fill="white"/>
<path d="M24.1152 19.1105L23.5606 20.4246C23.5279 20.5017 23.4733 20.5675 23.4034 20.6138C23.3336 20.6601 23.2518 20.6848 23.168 20.6849H23.1211L21.7003 20.5355L21.7899 19.6822L22.4384 19.7505C22.2172 19.4521 21.9139 19.2246 21.5655 19.0958C21.2171 18.9671 20.8387 18.9426 20.4766 19.0254C20.1145 19.1082 19.7844 19.2948 19.5266 19.5622C19.2688 19.8296 19.0946 20.1664 19.0251 20.5313L18.1718 20.3606C18.278 19.8386 18.5329 19.3584 18.9056 18.9778C19.2783 18.5972 19.7531 18.3324 20.2728 18.2152C20.7924 18.098 21.3349 18.1334 21.8349 18.3172C22.3349 18.5011 22.7712 18.8254 23.0912 19.2513L23.3259 18.7734L24.1152 19.1105Z" fill="white"/>
<path d="M23.6331 21.4701C23.5295 21.9796 23.2844 22.4497 22.9258 22.8262C22.5673 23.2027 22.1098 23.4705 21.6059 23.5989C21.102 23.7272 20.5722 23.7108 20.0772 23.5516C19.5822 23.3924 19.1421 23.0969 18.8075 22.6989L18.7136 23.0573L17.8859 22.8354L18.2571 21.4445C18.2842 21.3427 18.3481 21.2547 18.4363 21.1972C18.5245 21.1397 18.6309 21.1168 18.7349 21.133L20.1003 21.3378L19.9723 22.1911L19.4261 22.1101C19.6512 22.397 19.9537 22.6134 20.2979 22.7336C20.6422 22.8538 21.0136 22.8729 21.3683 22.7884C21.7231 22.704 22.0461 22.5197 22.2993 22.2573C22.5525 21.9949 22.7251 21.6654 22.7968 21.3079L23.6331 21.4701Z" fill="white"/>
</g>
<defs>
<linearGradient id="paint0_linear_867_35708" x1="-6.6304" y1="38.6304" x2="38.6261" y2="-6.62613" gradientUnits="userSpaceOnUse">
<stop stop-color="#B0084D"/>
<stop offset="1" stop-color="#FF4F8B"/>
</linearGradient>
<clipPath id="clip0_867_35708">
<rect width="32" height="32" fill="white"/>
</clipPath>
</defs>
</svg>
