<svg width="32" height="32" viewBox="0 0 32 32" fill="none" xmlns="http://www.w3.org/2000/svg">
<g clip-path="url(#clip0_854_27689)">
<path d="M32 0H0V32H32V0Z" fill="url(#paint0_linear_854_27689)"/>
<path fill-rule="evenodd" clip-rule="evenodd" d="M23.1886 25.6007H25.6014V23.1697H23.1886V25.6007ZM15.1685 25.6007H17.6308V23.1697H15.1685V25.6007ZM7.19868 25.6007H9.6282V23.1697H7.19868V25.6007ZM26.0007 22.3705H24.8027V20.3726C24.8027 20.1521 24.6238 19.9731 24.4034 19.9731H16.8161V18.3747H16.0175V19.9731H8.43021C8.20899 19.9731 8.03088 20.1521 8.03088 20.3726V22.3705H6.79935C6.57813 22.3705 6.40002 22.5495 6.40002 22.7701V26.0003C6.40002 26.2209 6.57813 26.3999 6.79935 26.3999H10.0275C10.248 26.3999 10.4269 26.2209 10.4269 26.0003V22.7701C10.4269 22.5495 10.248 22.3705 10.0275 22.3705H8.82954V20.7722H16.0175V22.3705H14.7692C14.5487 22.3705 14.3698 22.5495 14.3698 22.7701V26.0003C14.3698 26.2209 14.5487 26.3999 14.7692 26.3999H18.0301C18.2513 26.3999 18.4294 26.2209 18.4294 26.0003V22.7701C18.4294 22.5495 18.2513 22.3705 18.0301 22.3705H16.8161V20.7722H24.004V22.3705H22.7893C22.5689 22.3705 22.39 22.5495 22.39 22.7701V26.0003C22.39 26.2209 22.5689 26.3999 22.7893 26.3999H26.0007C26.2211 26.3999 26.4 26.2209 26.4 26.0003V22.7701C26.4 22.5495 26.2211 22.3705 26.0007 22.3705ZM16.4296 7.23203L20.2599 8.81836L16.4176 10.7355L12.5976 8.81916L16.4296 7.23203ZM16.8273 16.5119L16.8169 11.4292L20.8222 9.43052V14.136L16.8273 16.5119ZM12.037 9.43212L16.0183 11.4292L16.0286 16.5103L12.037 14.136V9.43212ZM16.2251 17.5572C16.2882 17.5939 16.3593 17.6131 16.4296 17.6131C16.4999 17.6131 16.5709 17.5939 16.634 17.5572L21.426 14.7074C21.5466 14.6355 21.6209 14.5044 21.6209 14.3637V8.7848C21.6209 8.62337 21.5234 8.47712 21.3749 8.41559L16.5829 6.43047C16.4847 6.38971 16.3753 6.38971 16.277 6.43047L11.4851 8.41559C11.3357 8.47712 11.2383 8.62337 11.2383 8.7848V14.3637C11.2383 14.5044 11.3126 14.6355 11.4332 14.7074L16.2251 17.5572Z" fill="white"/>
</g>
<defs>
<linearGradient id="paint0_linear_854_27689" x1="-6.62742" y1="38.6287" x2="38.6274" y2="-6.62613" gradientUnits="userSpaceOnUse">
<stop stop-color="#B0084D"/>
<stop offset="1" stop-color="#FF4F8B"/>
</linearGradient>
<clipPath id="clip0_854_27689">
<rect width="32" height="32" fill="white"/>
</clipPath>
</defs>
</svg>
