<svg width="32" height="32" viewBox="0 0 32 32" fill="none" xmlns="http://www.w3.org/2000/svg">
<g clip-path="url(#clip0_867_35704)">
<path d="M32 0H0V32H32V0Z" fill="url(#paint0_linear_867_35704)"/>
<path d="M18.56 21.5469H23.68V22.4002H18.56V22.8269H17.7067V22.4002H16.4267V21.5469H17.7067V21.1202H18.56V21.5469ZM20.2667 18.9869H19.4133V19.4135H16.4267V20.2669H19.4133V20.6935H20.2667V20.2669H23.68V19.4135H20.2667V18.9869ZM7.86346 18.2914C7.3367 17.9729 6.90392 17.5203 6.60932 16.9799C6.31472 16.4394 6.16887 15.8304 6.18666 15.2151C6.14742 14.4715 6.3785 13.7388 6.83726 13.1522C7.29602 12.5656 7.95148 12.1648 8.68266 12.0237C8.77653 11.9995 8.85937 11.944 8.91754 11.8665C8.9757 11.7889 9.00573 11.6939 9.00266 11.597L8.95999 10.9613C8.98582 10.0464 9.262 9.1562 9.75849 8.38739C10.255 7.61858 10.9528 7.00062 11.776 6.60073C12.6738 6.20336 13.6727 6.09379 14.6353 6.28708C15.598 6.48038 16.4771 6.96704 17.152 7.6802C17.7563 8.29908 18.2141 9.04557 18.4917 9.86473C18.5177 9.93703 18.5628 10.001 18.6221 10.0498C18.6814 10.0986 18.7528 10.1305 18.8288 10.1421C18.9051 10.1536 18.9831 10.1442 19.0545 10.1149C19.1258 10.0856 19.1879 10.0375 19.2341 9.97567C19.4541 9.67322 19.7638 9.44777 20.1191 9.33135C20.4745 9.21493 20.8576 9.21346 21.2139 9.32713C22.016 9.59167 22.4939 10.3725 22.4939 11.4605C22.4824 11.5161 22.4822 11.5734 22.4932 11.629C22.5042 11.6847 22.5262 11.7377 22.5579 11.7847C22.5903 11.832 22.632 11.8722 22.6804 11.903C22.7288 11.9338 22.7829 11.9545 22.8395 11.9639C23.7355 12.1218 25.8261 12.749 25.8261 15.2535C25.8261 15.3559 25.8261 15.4498 25.8261 15.5437L26.6795 15.5778C26.6795 15.4754 26.6795 15.3687 26.6795 15.2535C26.6795 12.3735 24.4523 11.469 23.3515 11.2002C23.2619 9.86047 22.5792 8.86633 21.4955 8.50793C21.085 8.37255 20.6474 8.34066 20.2217 8.41509C19.7959 8.48953 19.3951 8.66798 19.0549 8.9346C18.7441 8.23597 18.3106 7.5987 17.7749 7.053C16.9793 6.22106 15.9465 5.65465 14.8172 5.43094C13.688 5.20723 12.5173 5.33711 11.4645 5.80287C10.4769 6.26762 9.63902 6.99944 9.04562 7.91556C8.45221 8.83167 8.12697 9.89554 8.10666 10.9869V11.2941C7.26797 11.5385 6.53608 12.0584 6.02906 12.7698C5.52203 13.4811 5.26942 14.3426 5.31199 15.2151C5.29607 15.974 5.47911 16.7239 5.8429 17.3901C6.20669 18.0563 6.73855 18.6156 7.38559 19.0125C7.75599 19.2682 8.19418 19.4078 8.64426 19.4135H12.1045V18.5602H8.66559C8.37698 18.5549 8.09696 18.4611 7.86346 18.2914V18.2914ZM21.9733 16.8535H21.12V17.2802H16.4267V18.1335H21.12V18.5602H21.9733V18.1335H23.68V17.2802H21.9733V16.8535ZM26.5344 18.2573C26.576 18.2969 26.6092 18.3446 26.6319 18.3974C26.6546 18.4502 26.6664 18.507 26.6667 18.5645V21.1245C26.6664 21.1819 26.6546 21.2388 26.6319 21.2916C26.6092 21.3444 26.576 21.392 26.5344 21.4317C26.4922 21.4725 26.4419 21.5043 26.3869 21.5248C26.3318 21.5454 26.2731 21.5543 26.2144 21.5511L25.5019 21.5085C25.3827 21.9174 25.2196 22.3122 25.0155 22.6861L25.5488 23.1597C25.5932 23.1975 25.6288 23.2447 25.6531 23.2977C25.6774 23.3508 25.6899 23.4085 25.6896 23.4669C25.6911 23.5244 25.6809 23.5817 25.6596 23.6353C25.6383 23.6888 25.6064 23.7375 25.5659 23.7783L23.7696 25.5789C23.6828 25.657 23.5706 25.701 23.4539 25.7026C23.3958 25.7013 23.3386 25.6881 23.2857 25.6639C23.2329 25.6397 23.1856 25.605 23.1467 25.5618L22.6731 25.0285C22.2997 25.2347 21.9048 25.3993 21.4955 25.5191L21.5381 26.2274C21.5413 26.2851 21.5327 26.3428 21.5129 26.3971C21.4931 26.4514 21.4625 26.501 21.4229 26.5431C21.3831 26.586 21.335 26.6203 21.2814 26.6438C21.2278 26.6673 21.17 26.6795 21.1115 26.6797H18.5515C18.493 26.6795 18.4351 26.6673 18.3815 26.6438C18.328 26.6203 18.2798 26.586 18.24 26.5431C18.2004 26.501 18.1698 26.4514 18.15 26.3971C18.1302 26.3428 18.1216 26.2851 18.1248 26.2274L18.1675 25.5191C17.7581 25.3993 17.3632 25.2347 16.9899 25.0285L16.5163 25.5618C16.4773 25.605 16.43 25.6397 16.3772 25.6639C16.3244 25.6881 16.2672 25.7013 16.2091 25.7026C16.092 25.7026 15.9792 25.6584 15.8933 25.5789L14.1141 23.7655C14.0735 23.7247 14.0417 23.676 14.0204 23.6225C13.9991 23.5689 13.9889 23.5116 13.9904 23.4541C13.9901 23.3957 14.0025 23.338 14.0269 23.2849C14.0512 23.2319 14.0868 23.1847 14.1312 23.1469L14.6603 22.6733C14.4561 22.2994 14.293 21.9046 14.1739 21.4957L13.4656 21.5383C13.3481 21.5421 13.2337 21.5009 13.1456 21.4231C13.1035 21.383 13.07 21.3346 13.0473 21.2811C13.0245 21.2275 13.013 21.1699 13.0133 21.1117V18.5517C13.0132 18.4934 13.025 18.4358 13.0481 18.3823C13.0711 18.3287 13.1048 18.2805 13.1472 18.2405C13.1896 18.2006 13.2397 18.1697 13.2944 18.1498C13.3492 18.13 13.4074 18.1215 13.4656 18.125L14.1781 18.1634C14.2981 17.7561 14.4612 17.3628 14.6645 16.9901L14.1312 16.5122C14.0873 16.4748 14.052 16.4284 14.0278 16.3761C14.0035 16.3238 13.9907 16.2669 13.9904 16.2093C13.9883 16.151 13.9983 16.0929 14.0195 16.0386C14.0408 15.9843 14.073 15.9349 14.1141 15.8935L15.9104 14.093C15.9961 14.0131 16.109 13.9689 16.2261 13.9693C16.2845 13.9711 16.3419 13.985 16.3948 14.0099C16.4476 14.0349 16.4948 14.0704 16.5333 14.1143L17.0112 14.6477C17.3832 14.4428 17.7767 14.2797 18.1845 14.1613L18.1419 13.4445C18.1387 13.3868 18.1473 13.3291 18.1671 13.2748C18.1869 13.2205 18.2175 13.1708 18.2571 13.1287C18.2972 13.0866 18.3456 13.0531 18.3991 13.0304C18.4527 13.0077 18.5103 12.9961 18.5685 12.9965H21.1285C21.1867 12.9961 21.2444 13.0077 21.2979 13.0304C21.3515 13.0531 21.3998 13.0866 21.44 13.1287C21.4796 13.1708 21.5102 13.2205 21.53 13.2748C21.5498 13.3291 21.5584 13.3868 21.5552 13.4445L21.5125 14.1613C21.9203 14.2797 22.3138 14.4428 22.6859 14.6477L23.1637 14.1143C23.2023 14.0704 23.2494 14.0349 23.3023 14.0099C23.3551 13.985 23.4125 13.9711 23.4709 13.9693C23.5881 13.9689 23.701 14.0131 23.7867 14.093L25.5829 15.8935C25.624 15.9349 25.6562 15.9843 25.6775 16.0386C25.6988 16.0929 25.7087 16.151 25.7067 16.2093C25.7063 16.2669 25.6936 16.3238 25.6693 16.3761C25.645 16.4284 25.6097 16.4748 25.5659 16.5122L25.0325 16.9901C25.2374 17.3621 25.4005 17.7556 25.5189 18.1634L26.2315 18.125C26.2882 18.1258 26.3442 18.1379 26.3963 18.1606C26.4483 18.1833 26.4952 18.2162 26.5344 18.2573V18.2573ZM25.8133 19.0167L25.2032 19.0551C25.1046 19.0575 25.0081 19.0257 24.9304 18.965C24.8526 18.9043 24.7982 18.8186 24.7765 18.7223C24.6513 18.1645 24.432 17.6321 24.128 17.1479C24.0741 17.0625 24.0522 16.9608 24.0663 16.8608C24.0804 16.7608 24.1294 16.669 24.2048 16.6018L24.6443 16.2135L23.4667 15.0359L23.04 15.4925C22.9728 15.5678 22.881 15.6169 22.781 15.631C22.681 15.645 22.5793 15.6232 22.4939 15.5693C22.0212 15.2726 21.5019 15.0577 20.9579 14.9335C20.8616 14.9119 20.7758 14.8575 20.7152 14.7797C20.6545 14.7019 20.6226 14.6055 20.6251 14.5069L20.6592 13.8925H19.0208L19.0549 14.5026C19.0573 14.6012 19.0255 14.6976 18.9648 14.7754C18.9041 14.8532 18.8184 14.9076 18.7221 14.9293C18.1654 15.0537 17.6343 15.2731 17.152 15.5778C17.0666 15.6317 16.9648 15.6536 16.8648 15.6395C16.7648 15.6254 16.6731 15.5764 16.6059 15.501L16.1792 15.0445L15.0357 16.2135L15.4965 16.6402C15.5719 16.7074 15.621 16.7992 15.635 16.8992C15.6491 16.9992 15.6272 17.1009 15.5733 17.1863C15.2737 17.658 15.0573 18.1775 14.9333 18.7223C14.9117 18.8186 14.8573 18.9043 14.7795 18.965C14.7017 19.0257 14.6053 19.0575 14.5067 19.0551L13.8965 19.0167V20.6594L14.5067 20.6253C14.6053 20.6229 14.7017 20.6547 14.7795 20.7154C14.8573 20.7761 14.9117 20.8618 14.9333 20.9581C15.0593 21.515 15.2801 22.0461 15.5861 22.5282C15.64 22.6136 15.6619 22.7153 15.6478 22.8153C15.6338 22.9153 15.5847 23.0071 15.5093 23.0743L15.0528 23.501L16.2133 24.6402L16.6187 24.1879C16.6859 24.1126 16.7776 24.0635 16.8776 24.0494C16.9776 24.0354 17.0794 24.0572 17.1648 24.1111C17.6447 24.4087 18.1711 24.6236 18.7221 24.7469C18.8184 24.7685 18.9041 24.8229 18.9648 24.9007C19.0255 24.9785 19.0573 25.0749 19.0549 25.1735L19.0208 25.7837H20.6592L20.6251 25.1735C20.6226 25.0749 20.6545 24.9785 20.7152 24.9007C20.7758 24.8229 20.8616 24.7685 20.9579 24.7469C21.5159 24.6202 22.0483 24.3994 22.5323 24.0941C22.6177 24.0402 22.7194 24.0183 22.8194 24.0324C22.9194 24.0464 23.0112 24.0955 23.0784 24.1709L23.4667 24.6402L24.6443 23.4669L24.1877 23.0402C24.1124 22.973 24.0633 22.8812 24.0492 22.7812C24.0352 22.6812 24.057 22.5795 24.1109 22.4941C24.4067 22.0209 24.6216 21.5018 24.7467 20.9581C24.7683 20.8618 24.8227 20.7761 24.9005 20.7154C24.9783 20.6547 25.0747 20.6229 25.1733 20.6253L25.7835 20.6594L25.8133 19.0167Z" fill="white"/>
</g>
<defs>
<linearGradient id="paint0_linear_867_35704" x1="-6.62613" y1="38.6274" x2="38.6287" y2="-6.62742" gradientUnits="userSpaceOnUse">
<stop stop-color="#B0084D"/>
<stop offset="1" stop-color="#FF4F8B"/>
</linearGradient>
<clipPath id="clip0_867_35704">
<rect width="32" height="32" fill="white"/>
</clipPath>
</defs>
</svg>
