<svg width="32" height="32" viewBox="0 0 32 32" fill="none" xmlns="http://www.w3.org/2000/svg">
<g clip-path="url(#clip0_867_35655)">
<path d="M32 0H0V32H32V0Z" fill="url(#paint0_linear_867_35655)"/>
<path d="M14.5749 16.7298C14.5218 16.6242 14.439 16.5364 14.3367 16.4773C14.2343 16.4181 14.1169 16.3902 13.9989 16.397H9.09651C9.00384 16.3938 8.91216 16.417 8.83212 16.4638C8.75207 16.5107 8.68693 16.5792 8.64425 16.6615L8.57171 16.781L7.95731 17.8477C7.42398 18.7735 6.82238 19.8189 6.22505 20.8343C6.14763 20.9506 6.10632 21.0872 6.10632 21.2269C6.10632 21.3665 6.14763 21.5031 6.22505 21.6194C7.07838 23.0615 7.83358 24.3842 8.56745 25.6727C8.62623 25.7967 8.72039 25.9006 8.83807 25.9712C8.95575 26.0418 9.0917 26.076 9.22878 26.0695C9.77918 26.0695 10.321 26.0695 10.88 26.0695H12.288C12.8256 26.0695 13.3802 26.0695 13.9221 26.0695H13.9477C14.0833 26.0765 14.2178 26.0433 14.3347 25.9743C14.4515 25.9053 14.5455 25.8033 14.6048 25.6813C15.4581 24.2178 16.3114 22.7245 16.9898 21.5895C17.0599 21.4839 17.0973 21.36 17.0973 21.2333C17.0973 21.1065 17.0599 20.9826 16.9898 20.877C16.1365 19.4263 15.296 17.9757 14.5749 16.7298ZM13.8794 25.2247H10.8928C10.368 25.2247 9.82611 25.2247 9.28425 25.2247C8.58452 24.0002 7.82932 22.6946 6.98025 21.2354C7.57332 20.2199 8.17065 19.1831 8.68692 18.2487L9.25865 17.2503H13.8666C14.609 18.5303 15.4069 19.9085 16.1877 21.2397C15.6074 22.2253 14.7413 23.693 13.8752 25.2034V25.1735L13.8794 25.2247Z" fill="white"/>
<path d="M15.1126 20.5997C14.7456 19.9853 14.3104 19.2642 13.8923 18.5389C13.7852 18.3449 13.6264 18.1844 13.4336 18.0752C13.2408 17.9659 13.0215 17.9123 12.8 17.9202H12.7531C12.4843 17.9202 12.2112 17.9202 11.9467 17.9202H10.3254C10.1202 17.9167 9.91796 17.9693 9.7405 18.0723C9.56305 18.1753 9.4171 18.3248 9.31842 18.5047C8.92162 19.2002 8.49922 19.9255 8.06828 20.6594C7.95824 20.84 7.90002 21.0474 7.90002 21.2589C7.90002 21.4703 7.95824 21.6777 8.06828 21.8583C8.46935 22.541 8.87895 23.2493 9.28428 23.9618C9.38925 24.1554 9.54552 24.3163 9.73594 24.427C9.92636 24.5376 10.1436 24.5937 10.3638 24.589C11.1787 24.589 11.9808 24.589 12.8128 24.589C13.0308 24.5936 13.2458 24.5379 13.434 24.428C13.6223 24.318 13.7764 24.1582 13.8795 23.9661C14.272 23.2877 14.6859 22.5922 15.104 21.901C15.2321 21.7085 15.3012 21.4828 15.3027 21.2516C15.3042 21.0204 15.2381 20.7938 15.1126 20.5997V20.5997ZM14.3702 21.453C13.9435 22.1485 13.5382 22.8482 13.1414 23.5351C13.111 23.5976 13.0627 23.6496 13.0027 23.6846C12.9427 23.7195 12.8736 23.7358 12.8043 23.7314H10.3552C10.2869 23.7365 10.2187 23.7203 10.1599 23.6852C10.1011 23.6501 10.0546 23.5977 10.0267 23.5351C9.60002 22.8098 9.20322 22.0973 8.80642 21.4018C8.77211 21.3515 8.75377 21.292 8.75377 21.2311C8.75377 21.1702 8.77211 21.1108 8.80642 21.0605C9.23308 20.3437 9.65975 19.6183 10.0566 18.9058C10.0844 18.8607 10.1244 18.8243 10.1719 18.8009C10.2195 18.7776 10.2726 18.768 10.3254 18.7735H11.9467C12.2283 18.7735 12.5056 18.7735 12.8 18.7735C12.873 18.7668 12.9462 18.7829 13.0096 18.8196C13.0731 18.8563 13.1236 18.9117 13.1542 18.9783C13.5808 19.7122 14.0075 20.4119 14.383 21.0605C14.4187 21.1179 14.4365 21.1847 14.4343 21.2523C14.432 21.3199 14.4097 21.3853 14.3702 21.4402V21.453Z" fill="white"/>
<path d="M15.5946 15.0526L15.569 15.0952C15.5444 15.1347 15.523 15.176 15.505 15.219C15.479 15.2751 15.4656 15.3363 15.4656 15.3982C15.4656 15.46 15.479 15.5212 15.505 15.5774C15.5358 15.6303 15.5777 15.676 15.6278 15.7114C15.6778 15.7467 15.7349 15.7709 15.7952 15.7822C15.8476 15.7883 15.9006 15.7883 15.953 15.7822H16.4992C16.8106 15.7822 17.1349 15.7822 17.4549 15.7822H17.4933C17.6156 15.7885 17.7369 15.7582 17.8418 15.6951C17.9467 15.632 18.0304 15.539 18.0821 15.428C18.3552 14.9331 18.6453 14.4382 18.9354 13.956L19.2469 13.4142H19.2981H19.5029H21.8794C21.9547 13.4063 22.0306 13.4227 22.0959 13.4611C22.1612 13.4995 22.2124 13.5578 22.2421 13.6275C22.4426 13.9859 22.6688 14.3528 22.8608 14.7027V14.724L23.2874 15.4835C23.33 15.5766 23.3986 15.6555 23.4848 15.7108C23.5711 15.766 23.6714 15.7952 23.7738 15.795H25.4165C25.499 15.8076 25.5834 15.7957 25.6593 15.7608C25.7351 15.7259 25.799 15.6696 25.8432 15.5987C25.8811 15.5236 25.8983 15.4397 25.8931 15.3557C25.8878 15.2717 25.8603 15.1906 25.8133 15.1208L25.7621 15.0355L25.2245 14.1011C24.7125 13.2136 24.1792 12.2963 23.6629 11.3918C23.6127 11.2891 23.5332 11.2035 23.4345 11.1459C23.3359 11.0882 23.2223 11.0609 23.1082 11.0675H18.2656C18.1519 11.0605 18.0387 11.0872 17.9401 11.1441C17.8415 11.201 17.7618 11.2856 17.7109 11.3875C17.1477 12.3774 16.5674 13.3758 16.0042 14.3443L15.5946 15.0526ZM16.64 14.9331L16.7253 14.7923C17.2885 13.8152 17.8432 12.8595 18.385 11.9123H22.9845C23.4666 12.7656 23.9658 13.619 24.4437 14.4467L24.7466 14.9331H23.9829L23.6544 14.3656L23.5989 14.2675C23.3984 13.9219 23.1722 13.5635 22.9888 13.2051C22.8814 13.0014 22.7187 12.8321 22.5195 12.7166C22.3203 12.6011 22.0925 12.5442 21.8624 12.5523H19.4901H19.2384L18.7349 12.5822L18.1674 13.5635C17.9114 13.9902 17.6469 14.4595 17.3952 14.916H16.64V14.9331Z" fill="white"/>
<path d="M6.56634 10.6197C6.65013 10.6487 6.73794 10.6646 6.82661 10.6666H8.33274C8.44442 10.672 8.55518 10.6441 8.65092 10.5863C8.74665 10.5286 8.82304 10.4436 8.87034 10.3423L9.38661 9.45059L9.41221 9.41219C9.59141 9.10499 9.77487 8.78925 9.94981 8.47352C9.97743 8.40984 10.0245 8.35655 10.0843 8.32129C10.1441 8.28603 10.2135 8.27062 10.2826 8.27725H11.5285C11.9253 8.27725 12.2751 8.27725 12.5994 8.27725H12.6378C12.7343 8.26746 12.8313 8.29087 12.9128 8.34362C12.9942 8.39636 13.0553 8.47529 13.0858 8.56739C13.0942 8.58534 13.1042 8.60248 13.1157 8.61859L13.3759 9.04525C13.6191 9.47192 13.8666 9.89859 14.1098 10.3253C14.1541 10.4219 14.2259 10.5033 14.3162 10.5595C14.4065 10.6156 14.5113 10.644 14.6175 10.641H14.6517C14.8138 10.641 14.9802 10.641 15.1637 10.641H16.2559C16.3324 10.6444 16.4085 10.6273 16.476 10.5912C16.5436 10.5552 16.6002 10.5016 16.6399 10.4362C16.6784 10.3678 16.6987 10.2907 16.6987 10.2122C16.6987 10.1337 16.6784 10.0566 16.6399 9.98819L16.5887 9.90285L16.0255 8.95992C15.4965 8.04685 14.9717 7.13379 14.4511 6.22072C14.4009 6.12232 14.3226 6.04102 14.2261 5.98711C14.1297 5.93319 14.0194 5.90907 13.9093 5.91779H9.07514C8.95672 5.90865 8.83826 5.93503 8.7349 5.99355C8.63154 6.05207 8.54797 6.14007 8.49487 6.24632C8.06821 7.02285 7.60741 7.79512 7.15941 8.56739L6.60047 9.54019L6.54074 9.63832C6.46821 9.76632 6.38287 9.90712 6.31461 10.065C6.28928 10.1176 6.27612 10.1752 6.27612 10.2335C6.27612 10.2919 6.28928 10.3495 6.31461 10.4021C6.33985 10.4533 6.37514 10.499 6.41839 10.5364C6.46163 10.5738 6.51194 10.6021 6.56634 10.6197V10.6197ZM11.5199 7.43672C11.0933 7.43672 10.6965 7.43672 10.2869 7.43672H10.257C10.0353 7.42935 9.81608 7.48522 9.62493 7.59779C9.43379 7.71036 9.27862 7.87499 9.17754 8.07245C9.00261 8.38819 8.81914 8.70392 8.65274 8.98552L8.61434 9.05379C8.46927 9.30552 8.32421 9.55299 8.18767 9.80899H7.44101L7.96154 8.90872C8.36687 8.20472 8.77221 7.50499 9.18181 6.77539H13.7813C14.2819 7.64579 14.7825 8.51619 15.2831 9.38659L15.5221 9.81325H14.7797C14.5621 9.42925 14.353 9.05379 14.1226 8.67405L13.8623 8.22605C13.7622 7.98418 13.5903 7.77883 13.3698 7.63769C13.1493 7.49655 12.8909 7.4264 12.6293 7.43672H12.5695C12.2538 7.43245 11.9125 7.43672 11.5199 7.43672Z" fill="white"/>
<path d="M25.4763 16.0341H24.9046C24.5547 16.0341 24.1878 16.0341 23.8337 16.0341C23.7262 16.0306 23.6201 16.0592 23.529 16.1161C23.4378 16.1731 23.3656 16.2559 23.3216 16.3541C23.1638 16.6314 23.0016 16.9087 22.8395 17.2074C22.6774 17.5061 22.464 17.8517 22.2763 18.1845C22.2389 18.264 22.1779 18.3301 22.1015 18.3736C22.0251 18.4171 21.9372 18.436 21.8496 18.4277H20.591C20.224 18.4277 19.8998 18.4277 19.6011 18.4277H19.5755C19.4699 18.4365 19.3641 18.4121 19.273 18.3577C19.1819 18.3034 19.1102 18.2219 19.0678 18.1247C18.8843 17.7919 18.6881 17.4549 18.5174 17.1562C18.3467 16.8575 18.223 16.6527 18.0907 16.3967C18.0432 16.2796 17.9598 16.1806 17.8525 16.1139C17.7451 16.0472 17.6194 16.0163 17.4934 16.0255V16.0255C17.3099 16.0255 17.1179 16.0255 16.8832 16.0255H15.9531C15.8714 16.0174 15.789 16.0331 15.7159 16.0706C15.6429 16.1081 15.5822 16.166 15.5412 16.2372C15.5002 16.3083 15.4806 16.3899 15.4848 16.4719C15.489 16.5539 15.5168 16.633 15.5648 16.6997L16.3841 18.1333L16.4438 18.2357C16.8704 18.9695 17.2971 19.7034 17.7238 20.4373C17.7737 20.5372 17.8524 20.6198 17.9498 20.6746C18.0471 20.7293 18.1586 20.7537 18.2699 20.7445C18.8502 20.7445 19.4475 20.7445 20.0192 20.7445H22.0118C22.4043 20.7445 22.7286 20.7445 23.0273 20.7445H23.04C23.1777 20.7512 23.3144 20.7172 23.4328 20.6466C23.5512 20.576 23.6461 20.472 23.7057 20.3477C24.1323 19.5541 24.6187 18.7562 25.0667 17.9797L25.1392 17.8559L25.7409 16.8106L25.7664 16.7679C25.7963 16.7205 25.822 16.6705 25.8432 16.6186C25.874 16.5562 25.8882 16.487 25.8845 16.4175C25.8807 16.3481 25.8592 16.2807 25.8219 16.222C25.7846 16.1633 25.7328 16.1152 25.6716 16.0823C25.6103 16.0493 25.5416 16.0327 25.4721 16.0341H25.4763ZM20.591 19.2511H21.8283C22.0682 19.2588 22.3055 19.1989 22.5129 19.0781C22.7204 18.9574 22.8898 18.7808 23.0016 18.5685C23.1808 18.2527 23.3643 17.9327 23.5563 17.6085L23.5905 17.5487C23.7185 17.3269 23.8507 17.1221 23.9787 16.8789H24.7168L24.4225 17.3909C23.9745 18.1631 23.4667 19.0335 22.9889 19.8826C22.6987 19.8826 22.383 19.8826 21.999 19.8826H18.3809L17.1009 17.6511L16.6742 16.8831H17.408L17.792 17.5487L17.8219 17.5999C17.984 17.8815 18.1718 18.2015 18.3425 18.513C18.4569 18.7454 18.6364 18.9397 18.859 19.0722C19.0817 19.2047 19.338 19.2698 19.5968 19.2597H19.6267C19.9254 19.2511 20.2411 19.2511 20.591 19.2511Z" fill="white"/>
<path d="M6.40003 11.6223L6.44696 11.5967L6.40003 11.6223L6.42563 11.665L6.81816 12.3476L7.20216 13.009C7.62883 13.7727 8.0811 14.5322 8.5163 15.2959C8.55201 15.3812 8.61091 15.4548 8.68632 15.5084C8.76174 15.5619 8.85064 15.5933 8.94296 15.5988H10.6496C10.712 15.6012 10.7742 15.5897 10.8317 15.5654C10.8892 15.5411 10.9406 15.5044 10.9824 15.458C11.018 15.421 11.0449 15.3765 11.0611 15.3278C11.0774 15.2791 11.0826 15.2274 11.0763 15.1764C11.062 15.0798 11.0286 14.987 10.9782 14.9034L10.4918 14.05L9.90296 13.0346C9.54883 12.4202 9.1819 11.7887 8.82776 11.1615C8.78521 11.0738 8.71834 11.0003 8.63511 10.9496C8.55189 10.8989 8.45584 10.8732 8.35843 10.8756H8.31576C8.13656 10.8756 7.9531 10.8756 7.77816 10.8756H7.1851C7.01016 10.8756 6.83096 10.8756 6.65603 10.8756C6.59107 10.8753 6.52705 10.8912 6.46971 10.9217C6.41237 10.9522 6.36351 10.9965 6.3275 11.0506C6.29413 11.1076 6.27445 11.1715 6.27001 11.2374C6.26557 11.3033 6.27648 11.3694 6.3019 11.4303C6.33176 11.5199 6.36163 11.5668 6.40003 11.6223ZM7.4539 11.7418H8.18776L9.13496 13.3802L9.76643 14.5066L9.91576 14.7668H9.1819L7.93603 12.5823L7.4539 11.7418Z" fill="white"/>
<path d="M14.5066 14.8055C14.5781 14.8038 14.648 14.7841 14.7099 14.7483C14.7717 14.7125 14.8236 14.6618 14.8608 14.6007C14.9248 14.4983 14.9845 14.3959 15.0314 14.3063L15.2192 13.9479C15.3173 13.7602 15.4197 13.5682 15.5264 13.3804C15.697 13.0903 15.872 12.8044 16.0469 12.5271L16.6144 11.5202C16.6558 11.4576 16.68 11.3852 16.6845 11.3103C16.6889 11.2354 16.6736 11.1606 16.64 11.0935C16.5958 11.0273 16.5353 10.9736 16.4643 10.9377C16.3933 10.9018 16.3141 10.8849 16.2346 10.8887H14.6048C14.4979 10.8854 14.3924 10.9136 14.3014 10.9697C14.2104 11.0259 14.1378 11.1075 14.0928 11.2044C13.8666 11.6311 13.6149 12.0578 13.3034 12.5783C13.244 12.6674 13.2123 12.772 13.2123 12.8791C13.2123 12.9862 13.244 13.0908 13.3034 13.1799L13.4272 13.389L13.7728 13.982L13.9477 14.2892L14.0074 14.3959L14.033 14.4428C14.0629 14.494 14.097 14.5452 14.1312 14.5964C14.1697 14.6614 14.2247 14.715 14.2907 14.7517C14.3566 14.7884 14.4312 14.807 14.5066 14.8055V14.8055ZM14.5066 13.4956C14.4042 13.3122 14.2976 13.1287 14.1909 12.9452L14.1482 12.877C14.3957 12.4503 14.6048 12.1047 14.801 11.7463H15.5264L15.3258 12.0791C15.1509 12.3692 14.976 12.6636 14.8053 12.958C14.6645 13.133 14.5664 13.3164 14.4725 13.4956H14.5066Z" fill="white"/>
<path d="M13.807 14.558L13.6192 14.238C13.4784 13.999 13.3376 13.7558 13.1926 13.5126C13.149 13.4288 13.0816 13.3597 12.9989 13.3141C12.9161 13.2686 12.8216 13.2485 12.7275 13.2566C12.5611 13.2566 12.3862 13.2566 12.2198 13.2566H11.0934C11.0196 13.2517 10.9458 13.266 10.8792 13.2982C10.8127 13.3303 10.7556 13.3792 10.7136 13.4401C10.6785 13.5057 10.6602 13.579 10.6602 13.6534C10.6602 13.7279 10.6785 13.8011 10.7136 13.8668L10.7392 13.9137L11.008 14.383V14.4086C11.183 14.7073 11.3536 15.0102 11.5243 15.3089C11.5685 15.3974 11.6378 15.4709 11.7236 15.5202C11.8093 15.5695 11.9077 15.5925 12.0064 15.5862H13.5894C13.6753 15.5933 13.7617 15.5782 13.8401 15.5424C13.9186 15.5065 13.9865 15.4511 14.0374 15.3814C14.0678 15.3094 14.0805 15.2312 14.0746 15.1533C14.0687 15.0754 14.0442 15 14.0032 14.9334L13.807 14.558ZM12.928 14.7457H12.1942L11.8272 14.1142H12.5611L12.8811 14.6689L12.928 14.7457Z" fill="white"/>
</g>
<defs>
<linearGradient id="paint0_linear_867_35655" x1="-6.62742" y1="38.6287" x2="38.6274" y2="-6.62613" gradientUnits="userSpaceOnUse">
<stop stop-color="#B0084D"/>
<stop offset="1" stop-color="#FF4F8B"/>
</linearGradient>
<clipPath id="clip0_867_35655">
<rect width="32" height="32" fill="white"/>
</clipPath>
</defs>
</svg>
