<svg width="32" height="32" viewBox="0 0 32 32" fill="none" xmlns="http://www.w3.org/2000/svg">
<g clip-path="url(#clip0_867_35700)">
<path d="M32 0H0V32H32V0Z" fill="url(#paint0_linear_867_35700)"/>
<path d="M16.0256 19.8403C16.1107 19.8353 16.1923 19.805 16.2599 19.7533C16.3276 19.7016 16.3783 19.6309 16.4054 19.5501L18.9398 11.9469L20.2795 16.9731C20.3045 17.0661 20.3603 17.148 20.4378 17.2053C20.5152 17.2627 20.6098 17.2921 20.7062 17.2888H26.6795V16.4355H21.0219L19.4006 10.3512C19.3767 10.2624 19.3247 10.1836 19.2525 10.1267C19.1802 10.0698 19.0915 10.0378 18.9995 10.0355C18.9065 10.0306 18.8144 10.0563 18.7373 10.1087C18.6603 10.1611 18.6025 10.2373 18.5728 10.3256L15.9275 18.2659L13.8283 13.6877C13.7953 13.6162 13.7431 13.5553 13.6776 13.5116C13.6121 13.4679 13.5358 13.4432 13.4571 13.4403C13.3791 13.4369 13.3016 13.455 13.2331 13.4926C13.1647 13.5302 13.1078 13.5859 13.0688 13.6536L11.4859 16.4269H7.04004V17.2803H11.7334C11.8086 17.2806 11.8825 17.261 11.9477 17.2235C12.0129 17.1861 12.067 17.132 12.1046 17.0669L13.3846 14.7971L15.5947 19.5928C15.629 19.6669 15.6838 19.7295 15.7526 19.7734C15.8214 19.8173 15.9014 19.8405 15.983 19.8403H16.0256ZM6.18671 16.4269H5.33337V17.2803H6.18671V16.4269ZM22.5878 18.1336L22.3787 18.3981L16.3371 26.0781C16.2972 26.1295 16.2461 26.1711 16.1877 26.1997C16.1293 26.2283 16.0651 26.2432 16 26.2432C15.935 26.2432 15.8708 26.2283 15.8124 26.1997C15.754 26.1711 15.7029 26.1295 15.663 26.0781L9.45924 18.1336H10.543L16 25.1224L21.5126 18.1336H22.5878ZM26.6667 11.1448C26.668 12.0081 26.4555 12.8583 26.048 13.6195C25.9186 13.8743 25.7688 14.1183 25.6 14.3491L25.2502 14.7757L24.6144 15.5864H23.5478L24.9344 13.8285C25.0749 13.6386 25.2018 13.439 25.3142 13.2312C25.6544 12.5931 25.8318 11.8808 25.8304 11.1576C25.808 9.93465 25.3012 8.77059 24.4212 7.92103C23.5412 7.07146 22.3601 6.60584 21.1371 6.62639C18.799 6.62639 16.4438 7.83386 16.4438 10.5389C16.4438 10.6521 16.3988 10.7606 16.3188 10.8406C16.2388 10.9206 16.1303 10.9656 16.0171 10.9656C15.9039 10.9656 15.7954 10.9206 15.7154 10.8406C15.6354 10.7606 15.5904 10.6521 15.5904 10.5389C15.5904 7.83386 13.2352 6.62639 10.8971 6.62639C9.67413 6.60584 8.49298 7.07146 7.61302 7.92103C6.73306 8.77059 6.22621 9.93465 6.20377 11.1576C6.19685 11.878 6.36835 12.5889 6.70297 13.2269L8.53337 15.5736H7.46244L6.00751 13.7091L5.97337 13.6536C5.55311 12.8844 5.33441 12.0213 5.33764 11.1448C5.36123 9.6959 5.95834 8.31547 6.99808 7.30612C8.03782 6.29677 9.43535 5.74086 10.8843 5.76026C13.312 5.76026 15.1979 6.84399 16.0043 8.55492C16.8107 6.84826 18.6966 5.76026 21.1243 5.76026C22.5725 5.742 23.969 6.29842 25.0078 7.30764C26.0466 8.31687 26.6431 9.69665 26.6667 11.1448V11.1448Z" fill="white"/>
</g>
<defs>
<linearGradient id="paint0_linear_867_35700" x1="-6.62742" y1="38.6261" x2="38.6274" y2="-6.6287" gradientUnits="userSpaceOnUse">
<stop stop-color="#B0084D"/>
<stop offset="1" stop-color="#FF4F8B"/>
</linearGradient>
<clipPath id="clip0_867_35700">
<rect width="32" height="32" fill="white"/>
</clipPath>
</defs>
</svg>
