<svg width="32" height="32" viewBox="0 0 32 32" fill="none" xmlns="http://www.w3.org/2000/svg">
<g clip-path="url(#clip0_867_35766)">
<path d="M32 0H0V32H32V0Z" fill="url(#paint0_linear_867_35766)"/>
<path d="M26.6667 14.9334C26.6816 15.8117 26.3573 16.6619 25.7613 17.3072C25.1653 17.9525 24.3434 18.3431 23.4667 18.3979H17.28V17.5446H23.4667C23.5264 17.5446 25.8347 17.2886 25.8347 14.9291C25.8347 12.9494 24.1792 12.4544 23.471 12.3307C23.3604 12.3119 23.2618 12.2503 23.1963 12.1593C23.1308 12.0682 23.1038 11.9551 23.1211 11.8443C23.1211 10.991 22.7627 10.3808 22.1355 10.176C21.8576 10.0805 21.5563 10.0766 21.276 10.1649C20.9957 10.2532 20.7511 10.4291 20.5782 10.6667C20.5302 10.7321 20.4646 10.7825 20.3891 10.812C20.3135 10.8415 20.2311 10.8488 20.1515 10.8331C20.0756 10.8215 20.0042 10.7896 19.9448 10.7408C19.8855 10.692 19.8404 10.6281 19.8144 10.5558C19.6011 9.90411 19.2455 9.30803 18.7734 8.81071C18.2307 8.2416 17.5253 7.85415 16.7539 7.70139C15.9825 7.54864 15.1827 7.63805 14.464 7.95738C13.6298 8.34743 12.9635 9.0243 12.5867 9.86458H11.648C11.8623 9.27526 12.1908 8.73406 12.6147 8.27205C13.0387 7.81004 13.5497 7.4363 14.1184 7.17231C14.9931 6.78685 15.9649 6.67917 16.9027 6.86382C17.8405 7.04848 18.699 7.51657 19.3622 8.20484C19.7848 8.63201 20.1312 9.12844 20.3862 9.67258C20.6722 9.47121 21.0019 9.34035 21.3482 9.29067C21.6944 9.24099 22.0476 9.2739 22.3787 9.38671C22.8312 9.55121 23.223 9.84953 23.5019 10.242C23.7809 10.6345 23.9338 11.1026 23.9403 11.584C25.3142 11.9126 26.6667 12.9494 26.6667 14.9334ZM14.72 14.5622V11.5755H6.18671V24.3755H14.72V17.1222H15.5734V24.8022C15.5734 24.9153 15.5284 25.0239 15.4484 25.1039C15.3684 25.1839 15.2599 25.2288 15.1467 25.2288H5.76004C5.64688 25.2288 5.53836 25.1839 5.45834 25.1039C5.37833 25.0239 5.33337 24.9153 5.33337 24.8022V11.1488C5.33337 11.0357 5.37833 10.9272 5.45834 10.8471C5.53836 10.7671 5.64688 10.7222 5.76004 10.7222H15.1467C15.2599 10.7222 15.3684 10.7671 15.4484 10.8471C15.5284 10.9272 15.5734 11.0357 15.5734 11.1488V14.5622H14.72ZM20.2667 15.4155H7.46671V16.2688H20.2667V15.4155ZM10.88 13.2822H7.46671V14.1355H10.88V13.2822ZM12.16 17.5488H7.46671V18.4022H12.16V17.5488ZM10.415 19.6822H7.48377V20.5355H10.415V19.6822ZM13.44 19.6822H11.3067V20.5355H13.44V19.6822ZM22.8267 15.4155H21.12V16.2688H22.8267V15.4155Z" fill="white"/>
</g>
<defs>
<linearGradient id="paint0_linear_867_35766" x1="-6.62742" y1="38.6287" x2="38.6274" y2="-6.62613" gradientUnits="userSpaceOnUse">
<stop stop-color="#B0084D"/>
<stop offset="1" stop-color="#FF4F8B"/>
</linearGradient>
<clipPath id="clip0_867_35766">
<rect width="32" height="32" fill="white"/>
</clipPath>
</defs>
</svg>
