<svg width="32" height="32" viewBox="0 0 32 32" fill="none" xmlns="http://www.w3.org/2000/svg">
<g clip-path="url(#clip0_867_35770)">
<path d="M32 0H0V32H32V0Z" fill="url(#paint0_linear_867_35770)"/>
<path d="M23.6715 14.9334C23.6677 14.4142 23.506 13.9085 23.2081 13.4833C22.9101 13.058 22.4899 12.7335 22.0032 12.5526C21.6352 12.4306 21.2432 12.3995 20.8605 12.4619C20.4779 12.5243 20.116 12.6784 19.8059 12.911C19.5277 12.3045 19.1433 11.7525 18.671 11.2812C17.9478 10.5378 17.0149 10.0329 15.9971 9.83392C14.9792 9.63492 13.9249 9.75132 12.975 10.1676C12.0901 10.5801 11.3386 11.2327 10.8061 12.051C10.2736 12.8694 9.98142 13.8207 9.9627 14.7969V15.0273C9.44396 15.1838 8.96823 15.4576 8.57237 15.8275C8.17652 16.1975 7.87118 16.6537 7.68003 17.1606H8.61016C8.80587 16.8004 9.07732 16.4868 9.40583 16.2416C9.73434 15.9963 10.1121 15.8251 10.5131 15.7398C10.607 15.7156 10.6898 15.6602 10.748 15.5827C10.8061 15.5051 10.8362 15.4101 10.8331 15.3132L10.799 14.7713C10.8253 13.9683 11.0711 13.1879 11.5096 12.5147C11.9481 11.8415 12.5626 11.3013 13.2864 10.9526C14.0831 10.6039 14.9673 10.5069 15.8206 10.6747C16.6738 10.8424 17.4555 11.2669 18.0608 11.8913C18.5935 12.4307 18.9963 13.0844 19.2384 13.8028C19.2648 13.8756 19.3105 13.9399 19.3706 13.9888C19.4307 14.0377 19.503 14.0692 19.5798 14.0801C19.6554 14.0908 19.7325 14.081 19.803 14.0517C19.8736 14.0225 19.935 13.9748 19.9808 13.9137C20.1754 13.6508 20.4481 13.456 20.7599 13.3572C21.0718 13.2583 21.4068 13.2605 21.7174 13.3633C22.4214 13.598 22.8224 14.2849 22.8224 15.215C22.8051 15.3258 22.8322 15.4389 22.8976 15.53C22.9631 15.621 23.0618 15.6826 23.1723 15.7014C23.9574 15.838 25.792 16.3841 25.792 18.5601C25.792 21.1585 23.232 21.4316 23.1552 21.4401H14.3019V22.2934H23.2107C24.4054 22.1868 26.6582 21.2694 26.6582 18.5601C26.6582 16.3969 25.1734 15.2833 23.6715 14.9334ZM6.17816 22.2934H5.32483V21.4401H6.17816V22.2934ZM10.0182 22.2934H7.0315V21.4401H10.0182V22.2934ZM13.4315 22.2934H10.8715V21.4401H13.4315V22.2934ZM9.5915 20.5868H5.7515V19.7334H9.5915V20.5868ZM17.6982 20.5868H12.5782V19.7334H17.6982V20.5868ZM13.4315 18.8801H10.8715V18.0268H13.4315V18.8801ZM10.0182 18.8801H6.60483V18.0268H10.0182V18.8801ZM11.7248 20.5868H10.4448V19.7334H11.7248V20.5868Z" fill="white"/>
</g>
<defs>
<linearGradient id="paint0_linear_867_35770" x1="-6.62613" y1="38.6261" x2="38.6261" y2="-6.62613" gradientUnits="userSpaceOnUse">
<stop stop-color="#B0084D"/>
<stop offset="1" stop-color="#FF4F8B"/>
</linearGradient>
<clipPath id="clip0_867_35770">
<rect width="32" height="32" fill="white"/>
</clipPath>
</defs>
</svg>
