<svg width="32" height="32" viewBox="0 0 32 32" fill="none" xmlns="http://www.w3.org/2000/svg">
<g clip-path="url(#clip0_867_35722)">
<path d="M32 0H0V32H32V0Z" fill="url(#paint0_linear_867_35722)"/>
<path opacity="0.99" d="M22.1867 15.2748L19.4134 13.6748V10.4705C19.4137 10.3953 19.3941 10.3214 19.3567 10.2562C19.3192 10.191 19.2652 10.1369 19.2001 10.0993L16.2134 8.39263C16.1485 8.35518 16.075 8.33547 16.0001 8.33547C15.9252 8.33547 15.8516 8.35518 15.7867 8.39263L12.8001 10.0993C12.7349 10.1369 12.6809 10.191 12.6435 10.2562C12.606 10.3214 12.5864 10.3953 12.5867 10.4705V13.6748L9.81339 15.2748C9.74828 15.3124 9.69426 15.3665 9.65679 15.4317C9.61933 15.4969 9.59976 15.5708 9.60006 15.646V19.0934C9.59976 19.1686 9.61933 19.2425 9.65679 19.3077C9.69426 19.3729 9.74828 19.427 9.81339 19.4646L12.8001 21.1713C12.8649 21.2087 12.9385 21.2285 13.0134 21.2285C13.0883 21.2285 13.1619 21.2087 13.2267 21.1713L16.0001 19.5713L18.7734 21.1884C18.8383 21.2258 18.9118 21.2455 18.9867 21.2455C19.0616 21.2455 19.1352 21.2258 19.2001 21.1884L22.1867 19.4817C22.2518 19.4441 22.3059 19.39 22.3433 19.3248C22.3808 19.2596 22.4004 19.1857 22.4001 19.1105V15.646C22.4004 15.5708 22.3808 15.4969 22.3433 15.4317C22.3059 15.3665 22.2518 15.3124 22.1867 15.2748ZM12.5867 20.079L10.4534 18.846V16.3841L12.5867 17.6129V20.079ZM13.0134 16.8748L10.8801 15.6417L13.0134 14.4129L15.1467 15.6417L13.0134 16.8748ZM15.5734 18.846L13.4401 20.079V17.6129L15.5734 16.3841V18.846ZM15.5734 14.9036L13.4401 13.6748V11.2129L15.5734 12.4417V14.9036ZM13.8667 10.4705L16.0001 9.23743L18.1334 10.4705L16.0001 11.7036L13.8667 10.4705ZM18.5601 11.2129V13.6748L16.4267 14.9036V12.4417L18.5601 11.2129ZM18.5601 20.079L16.4267 18.846V16.3841L18.5601 17.6129V20.079ZM18.9867 16.8748L16.8534 15.6417L18.9867 14.4129L21.1201 15.6417L18.9867 16.8748ZM21.5467 18.846L19.4134 20.079V17.6129L21.5467 16.3841V18.846ZM25.8134 13.8924L24.9601 14.0204C25.021 14.4357 25.0509 14.855 25.0497 15.2748C25.0519 17.1857 24.4498 19.0484 23.3294 20.5964C22.209 22.1444 20.6277 23.2985 18.8118 23.8934C18.5696 23.9772 18.3232 24.0484 18.0737 24.1068C17.9732 23.5834 17.6804 23.1166 17.2531 22.7982C16.8257 22.4798 16.2946 22.3329 15.7644 22.3864C15.2342 22.4399 14.7432 22.69 14.388 23.0873C14.0329 23.4846 13.8393 24.0005 13.8454 24.5334C13.8428 24.5775 13.8428 24.6216 13.8454 24.6657C13.8773 25.1786 14.0932 25.6627 14.4535 26.0291C14.8138 26.3954 15.2943 26.6195 15.8065 26.6599C16.3188 26.7004 16.8285 26.5547 17.2418 26.2494C17.6552 25.9442 17.9445 25.5 18.0566 24.9985C18.4037 24.9289 18.7458 24.8362 19.0806 24.7212C21.07 24.0689 22.802 22.8037 24.0283 21.1068C25.2546 19.4099 25.9123 17.3684 25.9073 15.2748C25.912 14.8125 25.8835 14.3505 25.8219 13.8924H25.8134ZM17.2545 24.6145C17.2511 24.954 17.113 25.2782 16.8705 25.5158C16.6281 25.7535 16.3011 25.8851 15.9617 25.8817C15.6222 25.8783 15.298 25.7402 15.0603 25.4977C14.8227 25.2553 14.6911 24.9284 14.6945 24.5889V24.5334C14.6945 24.194 14.8293 23.8684 15.0694 23.6283C15.3094 23.3883 15.635 23.2534 15.9745 23.2534C16.3139 23.2534 16.6395 23.3883 16.8796 23.6283C17.1196 23.8684 17.2545 24.194 17.2545 24.5334C17.2559 24.5604 17.2559 24.5875 17.2545 24.6145V24.6145ZM24.5334 8.9601C24.2736 8.95895 24.016 9.00671 23.7739 9.1009C23.5699 8.84318 23.352 8.59677 23.1211 8.36276C22.1968 7.40526 21.0895 6.64327 19.8649 6.12205C18.6404 5.60083 17.3235 5.33102 15.9927 5.32863C14.6618 5.32624 13.344 5.59133 12.1176 6.10815C10.8912 6.62497 9.78115 7.38298 8.85339 8.33716L9.46779 8.9601C10.3143 8.08618 11.3278 7.39132 12.4481 6.91678C13.5684 6.44224 14.7727 6.19771 15.9894 6.19771C17.2061 6.19771 18.4103 6.44224 19.5307 6.91678C20.651 7.39132 21.6645 8.08618 22.511 8.9601C22.6984 9.15359 22.8751 9.35728 23.0401 9.57023C22.8363 9.76793 22.6746 10.0048 22.5646 10.2665C22.4546 10.5283 22.3986 10.8095 22.4001 11.0934C22.4001 11.6592 22.6248 12.2018 23.0249 12.6019C23.425 13.002 23.9676 13.2268 24.5334 13.2268C24.7899 13.2268 25.0443 13.1805 25.2843 13.0902C25.752 12.9144 26.143 12.58 26.3894 12.1453C26.6357 11.7107 26.7217 11.2034 26.6323 10.7118C26.5429 10.2203 26.2839 9.77568 25.9003 9.45556C25.5167 9.13544 25.033 8.9601 24.5334 8.9601ZM24.9601 12.2924C24.8239 12.3449 24.6793 12.3723 24.5334 12.3734C24.1939 12.3734 23.8683 12.2386 23.6283 11.9985C23.3882 11.7585 23.2534 11.4329 23.2534 11.0934C23.257 10.8722 23.3178 10.6557 23.4299 10.4651C23.5421 10.2744 23.7018 10.116 23.8934 10.0054C24.0852 9.88415 24.3065 9.81774 24.5334 9.81343C24.8315 9.81836 25.1186 9.92723 25.3451 10.1212C25.5715 10.3153 25.7231 10.5823 25.7737 10.8761C25.8243 11.17 25.7707 11.4723 25.6221 11.7309C25.4736 11.9895 25.2394 12.188 24.9601 12.2924V12.2924ZM6.86939 15.279C6.86788 14.8507 6.89783 14.4229 6.95899 13.999C6.99739 13.7302 7.04859 13.4614 7.10832 13.2012C7.21986 13.2183 7.33254 13.2269 7.44539 13.2268C7.91278 13.2266 8.36719 13.073 8.73877 12.7895C9.11036 12.506 9.37856 12.1083 9.50216 11.6576C9.62575 11.2068 9.59789 10.7279 9.42287 10.2946C9.24785 9.86118 8.93534 9.49727 8.53339 9.25876C8.21033 9.06703 7.84237 8.964 7.46672 8.9601C7.00529 8.96118 6.55664 9.11184 6.18808 9.38948C5.81953 9.66713 5.55092 10.0568 5.42257 10.5C5.29422 10.9432 5.31303 11.4161 5.4762 11.8478C5.63936 12.2794 5.93807 12.6465 6.32752 12.894C6.24633 13.2175 6.18224 13.545 6.13552 13.8753C5.8072 16.1863 6.3022 18.5392 7.53386 20.522C8.76553 22.5049 10.6554 23.9913 12.8726 24.7212L13.1371 23.9105C11.3168 23.3161 9.73169 22.1601 8.60941 20.6085C7.48713 19.057 6.88543 17.1897 6.89072 15.2748L6.86939 15.279ZM6.18672 11.0934C6.18672 10.754 6.32158 10.4284 6.56163 10.1883C6.80167 9.94829 7.12725 9.81343 7.46672 9.81343C7.69389 9.81268 7.91684 9.87469 8.11099 9.99263C8.30365 10.1049 8.46366 10.2655 8.57517 10.4585C8.68667 10.6516 8.74581 10.8705 8.74672 11.0934C8.74672 11.4329 8.61187 11.7585 8.37182 11.9985C8.13177 12.2386 7.8062 12.3734 7.46672 12.3734C7.30268 12.3753 7.14001 12.3433 6.98886 12.2796C6.75217 12.1843 6.54934 12.0205 6.40642 11.8092C6.26349 11.5978 6.18699 11.3486 6.18672 11.0934V11.0934Z" fill="white"/>
</g>
<defs>
<linearGradient id="paint0_linear_867_35722" x1="-6.62742" y1="38.6287" x2="38.6274" y2="-6.62613" gradientUnits="userSpaceOnUse">
<stop stop-color="#B0084D"/>
<stop offset="1" stop-color="#FF4F8B"/>
</linearGradient>
<clipPath id="clip0_867_35722">
<rect width="32" height="32" fill="white"/>
</clipPath>
</defs>
</svg>
