<svg width="32" height="32" viewBox="0 0 32 32" fill="none" xmlns="http://www.w3.org/2000/svg">
<g clip-path="url(#clip0_854_27610)">
<path d="M32 0H0V32H32V0Z" fill="url(#paint0_linear_854_27610)"/>
<path fill-rule="evenodd" clip-rule="evenodd" d="M25.2 22.3998V19.1998C25.8616 19.1998 26.4 19.9174 26.4 20.7998C26.4 21.6822 25.8616 22.3998 25.2 22.3998ZM7.59998 22.3998C6.93838 22.3998 6.39998 21.6822 6.39998 20.7998C6.39998 19.9174 6.93838 19.1998 7.59998 19.1998V22.3998ZM25.2 18.3998V18.355C25.2 17.0566 24.1832 15.9998 22.9336 15.9998H16.4V16.7998H22.9336C23.7424 16.7998 24.4 17.4974 24.4 18.355V23.2446C24.4 24.1022 23.7424 24.7998 22.9336 24.7998H9.86638C9.05758 24.7998 8.39998 24.1022 8.39998 23.2446V18.355C8.39998 17.4974 9.05758 16.7998 9.86638 16.7998H12.4V15.9998H9.86638C8.61678 15.9998 7.59998 17.0566 7.59998 18.355V18.3998C6.49678 18.3998 5.59998 19.4766 5.59998 20.7998C5.59998 22.123 6.49678 23.1998 7.59998 23.1998V23.2446C7.59998 24.543 8.61678 25.5998 9.86638 25.5998H14V27.1998H14.8V25.5998H18V27.1998H18.8V25.5998H22.9336C24.1832 25.5998 25.2 24.543 25.2 23.2446V23.1998C26.3032 23.1998 27.2 22.123 27.2 20.7998C27.2 19.4766 26.3032 18.3998 25.2 18.3998ZM16.4 8.7998H18V7.9998H16.4V8.7998ZM13.2 8.7998H14.8V7.9998H13.2V8.7998ZM9.99998 8.7998H11.6V7.9998H9.99998V8.7998ZM12.8 21.5998C12.1384 21.5998 11.6 21.0614 11.6 20.3998C11.6 19.7382 12.1384 19.1998 12.8 19.1998C13.4616 19.1998 14 19.7382 14 20.3998C14 21.0614 13.4616 21.5998 12.8 21.5998ZM12.8 18.3998C11.6968 18.3998 10.8 19.2974 10.8 20.3998C10.8 21.5022 11.6968 22.3998 12.8 22.3998C13.9032 22.3998 14.8 21.5022 14.8 20.3998C14.8 19.2974 13.9032 18.3998 12.8 18.3998ZM18.8 20.3998C18.8 19.7382 19.3384 19.1998 20 19.1998C20.6616 19.1998 21.2 19.7382 21.2 20.3998C21.2 21.0614 20.6616 21.5998 20 21.5998C19.3384 21.5998 18.8 21.0614 18.8 20.3998ZM22 20.3998C22 19.2974 21.1032 18.3998 20 18.3998C18.8968 18.3998 18 19.2974 18 20.3998C18 21.5022 18.8968 22.3998 20 22.3998C21.1032 22.3998 22 21.5022 22 20.3998ZM8.39998 5.9638C8.39998 5.763 8.56318 5.5998 8.76398 5.5998H19.2536C19.4448 5.5998 19.6 5.755 19.6 5.9454V11.623C19.6 11.831 19.4312 11.9998 19.2232 11.9998H14.4C14.1792 11.9998 14 12.179 14 12.3998V14.6086L12.2384 12.1662C12.1632 12.0614 12.0432 11.9998 11.9144 11.9998H8.76398C8.56318 11.9998 8.39998 11.8366 8.39998 11.6358V5.9638ZM8.76398 12.7998H11.7096L14.076 16.0814C14.152 16.1878 14.2744 16.2478 14.4 16.2478C14.4408 16.2478 14.4832 16.2414 14.5224 16.2278C14.688 16.175 14.8 16.0206 14.8 15.8478V12.7998H19.2232C19.872 12.7998 20.4 12.2718 20.4 11.623V5.9454C20.4 5.3142 19.8856 4.7998 19.2536 4.7998H8.76398C8.12158 4.7998 7.59998 5.3214 7.59998 5.9638V11.6358C7.59998 12.2782 8.12158 12.7998 8.76398 12.7998Z" fill="white"/>
</g>
<defs>
<linearGradient id="paint0_linear_854_27610" x1="-6.62742" y1="38.6287" x2="38.6274" y2="-6.62613" gradientUnits="userSpaceOnUse">
<stop stop-color="#B0084D"/>
<stop offset="1" stop-color="#FF4F8B"/>
</linearGradient>
<clipPath id="clip0_854_27610">
<rect width="32" height="32" fill="white"/>
</clipPath>
</defs>
</svg>
