<svg width="32" height="32" viewBox="0 0 32 32" fill="none" xmlns="http://www.w3.org/2000/svg">
<g clip-path="url(#clip0_854_27679)">
<path d="M32 0H0V32H32V0Z" fill="url(#paint0_linear_854_27679)"/>
<path fill-rule="evenodd" clip-rule="evenodd" d="M17.6 15.6002V16.8002H13.6V15.6002C13.6 14.217 14.2168 13.6002 15.6 13.6002C16.9832 13.6002 17.6 14.217 17.6 15.6002ZM19.7144 6.0114L19.4096 6.7514C23.6384 8.4954 26.1416 12.9002 25.496 17.4634C24.8712 21.8818 21.1888 25.4458 16.7408 25.937C13.8544 26.2546 11.0776 25.3746 8.93125 23.4522C6.81445 21.5562 5.60005 18.8402 5.60005 16.0002C5.60005 10.6202 9.87045 6.2186 15.2 6.0082V12.8282C13.6336 12.9658 12.8 13.9106 12.8 15.6002V17.2002C12.8 17.421 12.9792 17.6002 13.2 17.6002H13.6V20.0002H14.4V17.6002H16.8V20.0002H17.6V17.6002H18C18.2208 17.6002 18.4 17.421 18.4 17.2002V15.6002C18.4 13.9106 17.5664 12.9658 16 12.8282V5.6002C16 5.3794 15.8208 5.2002 15.6 5.2002C9.64485 5.2002 4.80005 10.045 4.80005 16.0002C4.80005 19.0674 6.11125 22.0002 8.39765 24.0482C10.4048 25.8458 12.9184 26.801 15.5832 26.801C15.9944 26.801 16.4104 26.7786 16.828 26.7322C21.6344 26.201 25.6136 22.3498 26.288 17.5746C26.9848 12.6498 24.2816 7.8946 19.7144 6.0114Z" fill="white"/>
</g>
<defs>
<linearGradient id="paint0_linear_854_27679" x1="-6.62742" y1="38.6287" x2="38.6274" y2="-6.62613" gradientUnits="userSpaceOnUse">
<stop stop-color="#B0084D"/>
<stop offset="1" stop-color="#FF4F8B"/>
</linearGradient>
<clipPath id="clip0_854_27679">
<rect width="32" height="32" fill="white"/>
</clipPath>
</defs>
</svg>
