<svg width="32" height="32" viewBox="0 0 32 32" fill="none" xmlns="http://www.w3.org/2000/svg">
<g clip-path="url(#clip0_854_27621)">
<path d="M32 0H0V32H32V0Z" fill="url(#paint0_linear_854_27621)"/>
<path fill-rule="evenodd" clip-rule="evenodd" d="M24.1776 11.9871C24.1936 10.7655 23.4928 9.71585 22.3296 9.26145C21.3496 8.87745 20.2912 9.01985 19.5512 9.58705C19.1912 8.76305 18.716 8.05105 18.1352 7.46625C16.2888 5.60545 13.7608 5.09905 11.3736 6.11505C9.33765 6.98145 7.80245 9.37185 7.80245 11.6767C7.80245 11.8151 7.80725 11.9527 7.81605 12.0879C6.70485 12.4543 4.80005 13.4943 4.80005 16.3175C4.80005 16.4679 4.80645 16.6135 4.81765 16.7543C5.01685 19.3207 6.34325 20.7935 8.45685 20.7959H10.4552V19.9959H8.45765C6.20725 19.9935 5.71045 17.9247 5.61445 16.6927C5.60485 16.5711 5.60005 16.4463 5.60005 16.3175C5.60005 13.8407 7.31925 13.0303 8.34325 12.7679C8.53765 12.7183 8.66485 12.5327 8.64085 12.3335C8.61605 12.1183 8.60245 11.8991 8.60245 11.6767C8.60245 9.70625 9.95765 7.58705 11.6864 6.85105C14.6776 5.58065 16.7952 7.25185 17.568 8.02945C18.1968 8.66385 18.6872 9.47265 19.0264 10.4367C19.0752 10.5759 19.1976 10.6775 19.3448 10.6991C19.4896 10.7175 19.6376 10.6599 19.7256 10.5407C20.2912 9.77185 21.3208 9.72625 22.0384 10.0063C22.7664 10.2911 23.4968 11.0215 23.3584 12.2455C23.3248 12.4615 23.4696 12.6647 23.6856 12.7015C24.6752 12.8727 26.9752 13.5703 26.9512 16.3487C26.9416 17.5079 26.5001 18.2247 26.1313 18.6215L26.7176 19.1663C27.1832 18.6655 27.74 17.7703 27.7515 16.3551C27.7776 13.2351 25.3544 12.2703 24.1776 11.9871ZM20.4608 21.9959V22.7959H22.964C22.0904 24.5303 20.3048 25.6623 18.3272 25.6623C15.46 25.6623 13.1272 23.3295 13.1272 20.4623C13.1272 17.5951 15.46 15.2623 18.3272 15.2623C21.012 15.2623 23.2888 17.3559 23.5096 20.0287L24.3064 19.9631C24.052 16.8783 21.4256 14.4623 18.3272 14.4623C15.0184 14.4623 12.3272 17.1535 12.3272 20.4623C12.3272 23.7711 15.0184 26.4623 18.3272 26.4623C20.5952 26.4623 22.6448 25.1735 23.6608 23.1927V25.9959H24.4608V21.9959H20.4608ZM17.16 22.2911L20.8328 18.3239L21.4208 18.8679L17.4776 23.1255C17.3984 23.2103 17.292 23.2535 17.184 23.2535C17.088 23.2535 16.992 23.2191 16.9152 23.1503L14.792 21.2255L15.3288 20.6327L17.16 22.2911Z" fill="white"/>
</g>
<defs>
<linearGradient id="paint0_linear_854_27621" x1="-6.62742" y1="38.6287" x2="38.6274" y2="-6.62613" gradientUnits="userSpaceOnUse">
<stop stop-color="#B0084D"/>
<stop offset="1" stop-color="#FF4F8B"/>
</linearGradient>
<clipPath id="clip0_854_27621">
<rect width="32" height="32" fill="white"/>
</clipPath>
</defs>
</svg>
