<svg width="32" height="32" viewBox="0 0 32 32" fill="none" xmlns="http://www.w3.org/2000/svg">
<g clip-path="url(#clip0_867_35748)">
<path d="M32 0H0V32H32V0Z" fill="url(#paint0_linear_867_35748)"/>
<path d="M16 9.22424L14.1141 7.33411L16 5.44824L17.8859 7.33411L16 9.22424ZM15.3216 7.33411L16 8.01678L16.6784 7.33411L16 6.65571L15.3216 7.33411Z" fill="white"/>
<path d="M24.6655 17.8855L22.7754 15.9996L24.6655 14.1138L26.5514 15.9996L24.6655 17.8855ZM23.9829 15.9996L24.6655 16.678L25.3439 15.9996L24.6655 15.3212L23.9829 15.9996Z" fill="white"/>
<path d="M7.33435 17.8855L5.44849 15.9996L7.33435 14.1138L9.22449 15.9996L7.33435 17.8855ZM6.65595 15.9996L7.33435 16.678L8.01702 15.9996L7.33435 15.3212L6.65595 15.9996Z" fill="white"/>
<path d="M16 26.5514L14.1141 24.6655L16 22.7754L17.8859 24.6655L16 26.5514ZM15.3216 24.6655L16 25.3439L16.6784 24.6655L16 23.9829L15.3216 24.6655Z" fill="white"/>
<path d="M21.4527 15.5732H10.5428V16.4266H21.4527V15.5732Z" fill="white"/>
<path d="M16.4266 10.5469H15.5732V21.4567H16.4266V10.5469Z" fill="white"/>
<path d="M11.6864 17.7445L9.94128 15.9995L11.6864 14.2544L12.2922 14.856L11.1488 15.9995L12.2922 17.1429L11.6864 17.7445Z" fill="white"/>
<path d="M17.1434 12.2919L15.9999 11.1484L14.8565 12.2919L14.2549 11.686L15.9999 9.94092L17.745 11.686L17.1434 12.2919Z" fill="white"/>
<path d="M15.9999 22.0585L14.2549 20.3134L14.8565 19.7075L15.9999 20.851L17.1434 19.7075L17.745 20.3134L15.9999 22.0585Z" fill="white"/>
<path d="M20.3135 17.7445L19.7076 17.1429L20.8511 15.9995L19.7076 14.856L20.3135 14.2544L22.0586 15.9995L20.3135 17.7445Z" fill="white"/>
<path d="M15.9999 18.8071C15.3493 18.808 14.7184 18.5833 14.2149 18.1711C13.7113 17.759 13.3664 17.1849 13.2387 16.5469C13.1111 15.9088 13.2087 15.2463 13.5149 14.6721C13.8211 14.098 14.317 13.6478 14.918 13.3984C15.5189 13.149 16.1878 13.1157 16.8106 13.3042C17.4334 13.4928 17.9715 13.8915 18.3332 14.4324C18.6948 14.9733 18.8577 15.6229 18.7941 16.2705C18.7304 16.9181 18.4441 17.5235 17.9839 17.9836C17.7243 18.2455 17.4152 18.4532 17.0746 18.5945C16.734 18.7359 16.3687 18.8082 15.9999 18.8071V18.8071ZM15.9999 14.0455C15.4817 14.0455 14.9846 14.2513 14.6182 14.6178C14.2517 14.9843 14.0458 15.4813 14.0458 15.9996C14.0445 16.2564 14.0943 16.511 14.1925 16.7483C14.2907 16.9857 14.4352 17.2011 14.6175 17.382C14.799 17.5636 15.0145 17.7077 15.2517 17.806C15.4889 17.9044 15.7432 17.955 15.9999 17.955C16.2567 17.955 16.511 17.9044 16.7482 17.806C16.9854 17.7077 17.2009 17.5636 17.3823 17.382C17.7482 17.0149 17.9536 16.5178 17.9536 15.9996C17.9536 15.4814 17.7482 14.9843 17.3823 14.6172C17.2008 14.4358 16.9852 14.2919 16.748 14.1938C16.5108 14.0957 16.2566 14.0453 15.9999 14.0455V14.0455Z" fill="white"/>
<path d="M9.03678 15.0183L8.43518 14.4125L9.64265 13.2263L10.24 13.8109L9.03678 15.0183ZM11.4517 12.6034L10.8501 12.0018L12.0533 10.7943L12.6592 11.3959L11.4517 12.6034ZM13.8666 10.1927L13.2608 9.58686L14.2933 8.55859L14.8949 9.16019L13.8666 10.1927Z" fill="white"/>
<path d="M17.745 23.5219L17.1434 22.916L18.3466 21.7128L18.9482 22.3144L17.745 23.5219ZM20.16 21.1069L19.5541 20.5053L20.7616 19.2979L21.3674 19.8995L20.16 21.1069ZM22.5706 18.692L21.969 18.0904L23.0016 17.0664L23.6032 17.668L22.5706 18.692Z" fill="white"/>
<path d="M23.0016 14.6941L21.7941 13.4909L22.3957 12.885L23.6032 14.0797L23.0016 14.6941ZM20.5866 12.2834L19.3792 11.093L19.9808 10.4872L21.1882 11.6946L20.5866 12.2834ZM18.1717 9.86851L17.1434 8.84024L17.745 8.23438L18.7733 9.26691L18.1717 9.86851Z" fill="white"/>
<path d="M14.2933 23.6413L13.0858 22.4338L13.6874 21.8279L14.8949 23.0397L14.2933 23.6413ZM11.8784 21.2263L10.6666 20.0188L11.2725 19.4172L12.4757 20.6204L11.8784 21.2263ZM9.46345 18.8114L8.43518 17.7831L9.03678 17.1772L10.0693 18.2098L9.46345 18.8114Z" fill="white"/>
</g>
<defs>
<linearGradient id="paint0_linear_867_35748" x1="-6.62565" y1="38.6261" x2="38.6292" y2="-6.6287" gradientUnits="userSpaceOnUse">
<stop stop-color="#B0084D"/>
<stop offset="1" stop-color="#FF4F8B"/>
</linearGradient>
<clipPath id="clip0_867_35748">
<rect width="32" height="32" fill="white"/>
</clipPath>
</defs>
</svg>
