<svg width="32" height="32" viewBox="0 0 32 32" fill="none" xmlns="http://www.w3.org/2000/svg">
<g clip-path="url(#clip0_867_35643)">
<path d="M32 0H0V32H32V0Z" fill="url(#paint0_linear_867_35643)"/>
<path d="M24.5333 26.6668H21.9733C21.8602 26.6668 21.7516 26.6219 21.6716 26.5419C21.5916 26.4619 21.5466 26.3533 21.5466 26.2402V21.9735C21.5466 21.8603 21.5916 21.7518 21.6716 21.6718C21.7516 21.5918 21.8602 21.5468 21.9733 21.5468H22.8266V20.6935H16.4266V21.5468H17.28C17.3931 21.5468 17.5017 21.5918 17.5817 21.6718C17.6617 21.7518 17.7066 21.8603 17.7066 21.9735V26.2402C17.7066 26.3533 17.6617 26.4619 17.5817 26.5419C17.5017 26.6219 17.3931 26.6668 17.28 26.6668H14.72C14.6068 26.6668 14.4983 26.6219 14.4183 26.5419C14.3383 26.4619 14.2933 26.3533 14.2933 26.2402V21.9735C14.2933 21.8603 14.3383 21.7518 14.4183 21.6718C14.4983 21.5918 14.6068 21.5468 14.72 21.5468H15.5733V20.6935H9.17331V21.5468H10.0266C10.1398 21.5468 10.2483 21.5918 10.3283 21.6718C10.4084 21.7518 10.4533 21.8603 10.4533 21.9735V26.2402C10.4533 26.3533 10.4084 26.4619 10.3283 26.5419C10.2483 26.6219 10.1398 26.6668 10.0266 26.6668H7.46664C7.35349 26.6668 7.24496 26.6219 7.16495 26.5419C7.08493 26.4619 7.03998 26.3533 7.03998 26.2402V21.9735C7.03998 21.8603 7.08493 21.7518 7.16495 21.6718C7.24496 21.5918 7.35349 21.5468 7.46664 21.5468H8.31998V20.2668C8.31998 20.1537 8.36493 20.0452 8.44495 19.9651C8.52496 19.8851 8.63349 19.8402 8.74664 19.8402H15.5733V18.1335H16.4266V19.8402H23.2533C23.3665 19.8402 23.475 19.8851 23.555 19.9651C23.635 20.0452 23.68 20.1537 23.68 20.2668V21.5468H24.5333C24.6465 21.5468 24.755 21.5918 24.835 21.6718C24.915 21.7518 24.96 21.8603 24.96 21.9735V26.2402C24.96 26.3533 24.915 26.4619 24.835 26.5419C24.755 26.6219 24.6465 26.6668 24.5333 26.6668ZM22.4 25.8135H24.1066V22.4002H22.4V25.8135ZM15.1466 25.8135H16.8533V22.4002H15.1466V25.8135ZM7.89331 25.8135H9.59998V22.4002H7.89331V25.8135ZM17.1008 17.2802H14.8992C14.841 17.2805 14.7833 17.269 14.7298 17.2462C14.6762 17.2235 14.6279 17.19 14.5877 17.1479C14.5481 17.1058 14.5175 17.0561 14.4977 17.0019C14.4779 16.9476 14.4693 16.8899 14.4725 16.8322L14.5066 16.2562C14.1788 16.1567 13.8615 16.0253 13.5594 15.8636L13.1797 16.2903C13.1418 16.3347 13.0947 16.3703 13.0417 16.3946C12.9886 16.419 12.9309 16.4314 12.8725 16.4311C12.8149 16.4326 12.7576 16.4224 12.7041 16.4011C12.6506 16.3798 12.6019 16.348 12.561 16.3074L10.9994 14.75C10.9575 14.7102 10.9241 14.6622 10.9012 14.609C10.8784 14.5558 10.8666 14.4986 10.8666 14.4407C10.8666 14.3828 10.8784 14.3256 10.9012 14.2724C10.9241 14.2192 10.9575 14.1712 10.9994 14.1314L11.4261 13.7474C11.2698 13.4449 11.144 13.1276 11.0506 12.8002L10.4789 12.8343C10.4208 12.8378 10.3625 12.8294 10.3078 12.8095C10.253 12.7896 10.2029 12.7587 10.1605 12.7188C10.1182 12.6788 10.0844 12.6306 10.0614 12.5771C10.0384 12.5235 10.0265 12.4659 10.0266 12.4076V10.2018C10.0265 10.1435 10.0384 10.0859 10.0614 10.0324C10.0844 9.97885 10.1182 9.93062 10.1605 9.89065C10.2029 9.85067 10.253 9.8198 10.3078 9.79993C10.3625 9.78006 10.4208 9.77161 10.4789 9.7751L11.0506 9.8135C11.1486 9.48648 11.2801 9.17048 11.4432 8.87057L11.0165 8.48657C10.9734 8.44765 10.9386 8.40033 10.9144 8.3475C10.8902 8.29468 10.877 8.23747 10.8757 8.17937C10.8742 8.12179 10.8845 8.06451 10.9057 8.01098C10.927 7.95745 10.9589 7.90878 10.9994 7.8679L12.561 6.3063C12.6019 6.26572 12.6506 6.23384 12.7041 6.21258C12.7576 6.19131 12.8149 6.1811 12.8725 6.18257C12.9306 6.18388 12.9878 6.19705 13.0406 6.22126C13.0935 6.24547 13.1408 6.28022 13.1797 6.32337L13.5637 6.75004C13.8643 6.58845 14.1802 6.45696 14.5066 6.3575L14.4768 5.78577C14.473 5.72738 14.4813 5.66885 14.5011 5.6138C14.5209 5.55875 14.5519 5.50836 14.592 5.46577C14.6321 5.42365 14.6805 5.39019 14.734 5.36744C14.7876 5.34469 14.8453 5.33315 14.9034 5.3335H17.105C17.1632 5.33315 17.2209 5.34469 17.2744 5.36744C17.328 5.39019 17.3764 5.42365 17.4165 5.46577C17.4566 5.50836 17.4876 5.55875 17.5074 5.6138C17.5272 5.66885 17.5355 5.72738 17.5317 5.78577L17.4933 6.3575C17.8191 6.45882 18.1348 6.59023 18.4362 6.75004L18.8202 6.32337C18.8592 6.28022 18.9065 6.24547 18.9593 6.22126C19.0121 6.19705 19.0693 6.18388 19.1274 6.18257C19.185 6.1811 19.2423 6.19131 19.2958 6.21258C19.3494 6.23384 19.398 6.26572 19.4389 6.3063L21.0005 7.8679C21.0411 7.90878 21.073 7.95745 21.0942 8.01098C21.1155 8.06451 21.1257 8.12179 21.1242 8.17937C21.1229 8.23747 21.1098 8.29468 21.0856 8.3475C21.0613 8.40033 21.0266 8.44765 20.9834 8.48657L20.5568 8.87057C20.7198 9.17048 20.8514 9.48648 20.9493 9.8135L21.521 9.78364C21.5794 9.77987 21.638 9.78816 21.693 9.80797C21.7481 9.82779 21.7985 9.85872 21.841 9.89884C21.8826 9.93849 21.9158 9.98615 21.9385 10.0389C21.9613 10.0917 21.9731 10.1486 21.9733 10.206V12.4119C21.9737 12.4701 21.9621 12.5277 21.9394 12.5813C21.9166 12.6349 21.8832 12.6832 21.841 12.7234C21.753 12.8012 21.6385 12.8424 21.521 12.8386L20.9493 12.8002C20.8505 13.1282 20.719 13.4456 20.5568 13.7474L20.9834 14.1314C21.0254 14.1712 21.0588 14.2192 21.0816 14.2724C21.1045 14.3256 21.1162 14.3828 21.1162 14.4407C21.1162 14.4986 21.1045 14.5558 21.0816 14.609C21.0588 14.6622 21.0254 14.7102 20.9834 14.75L19.4218 16.3074C19.381 16.348 19.3323 16.3798 19.2788 16.4011C19.2252 16.4224 19.168 16.4326 19.1104 16.4311C19.052 16.4314 18.9943 16.419 18.9412 16.3946C18.8882 16.3703 18.8411 16.3347 18.8032 16.2903L18.4234 15.8636C18.1271 16.0248 17.8155 16.1563 17.4933 16.2562L17.5232 16.8279C17.5264 16.8856 17.5178 16.9433 17.498 16.9976C17.4782 17.0519 17.4476 17.1016 17.408 17.1436C17.3683 17.1852 17.3207 17.2184 17.2679 17.2411C17.2151 17.2639 17.1583 17.2757 17.1008 17.2759V17.2802ZM15.3514 16.4268H16.6314L16.64 15.9575C16.6376 15.8589 16.6694 15.7625 16.7301 15.6847C16.7908 15.6069 16.8765 15.5525 16.9728 15.5308C17.4511 15.4238 17.9073 15.2347 18.321 14.9719C18.4064 14.918 18.5082 14.8961 18.6082 14.9102C18.7082 14.9243 18.8 14.9733 18.8672 15.0487L19.1786 15.3986L20.096 14.477L19.7461 14.1655C19.6707 14.0983 19.6217 14.0065 19.6076 13.9065C19.5935 13.8065 19.6154 13.7048 19.6693 13.6194C19.9328 13.2075 20.122 12.7526 20.2282 12.2754C20.2499 12.1791 20.3043 12.0934 20.3821 12.0327C20.4599 11.972 20.5563 11.9402 20.6549 11.9426L21.1242 11.9682V10.6668H20.6506C20.5526 10.6695 20.4566 10.6382 20.3789 10.5784C20.3012 10.5185 20.2465 10.4338 20.224 10.3383C20.114 9.86225 19.9251 9.40797 19.665 8.9943C19.6111 8.90891 19.5893 8.80716 19.6033 8.70716C19.6174 8.60716 19.6665 8.51539 19.7418 8.44817L20.0917 8.13244L19.1744 7.2151L18.8586 7.56497C18.7914 7.64033 18.6997 7.68941 18.5997 7.70347C18.4997 7.71753 18.3979 7.69567 18.3125 7.64177C17.8995 7.38135 17.4449 7.19374 16.9685 7.0871C16.8723 7.06543 16.7865 7.01107 16.7258 6.93328C16.6651 6.85548 16.6333 6.75907 16.6357 6.66044L16.64 6.18684H15.36V6.65617C15.3624 6.7548 15.3305 6.85122 15.2699 6.92901C15.2092 7.0068 15.1234 7.06116 15.0272 7.08284C14.5507 7.18947 14.0961 7.37708 13.6832 7.6375C13.5978 7.6914 13.496 7.71327 13.396 7.6992C13.296 7.68514 13.2043 7.63606 13.137 7.5607L12.8213 7.20657L11.904 8.12817L12.2538 8.4439C12.3292 8.51112 12.3783 8.60289 12.3923 8.70289C12.4064 8.80289 12.3845 8.90464 12.3306 8.99004C12.0706 9.40371 11.8817 9.85798 11.7717 10.334C11.7492 10.4295 11.6945 10.5143 11.6168 10.5741C11.539 10.634 11.4431 10.6652 11.345 10.6626L10.88 10.6668V11.9468H11.3493C11.4479 11.9444 11.5444 11.9763 11.6221 12.0369C11.6999 12.0976 11.7543 12.1834 11.776 12.2796C11.8822 12.7569 12.0714 13.2118 12.3349 13.6236C12.3888 13.709 12.4107 13.8108 12.3966 13.9108C12.3825 14.0108 12.3335 14.1026 12.2581 14.1698L11.9082 14.4812L12.8256 15.4028L13.137 15.053C13.2043 14.9776 13.296 14.9285 13.396 14.9145C13.496 14.9004 13.5978 14.9223 13.6832 14.9762C14.0987 15.2355 14.5543 15.4243 15.0314 15.5351C15.1277 15.5568 15.2135 15.6111 15.2741 15.6889C15.3348 15.7667 15.3667 15.8631 15.3642 15.9618L15.3514 16.4268ZM16 13.9522C15.4768 13.9522 14.9653 13.797 14.5303 13.5064C14.0953 13.2157 13.7562 12.8025 13.556 12.3192C13.3558 11.8358 13.3034 11.3039 13.4055 10.7908C13.5075 10.2776 13.7595 9.80626 14.1294 9.4363C14.4994 9.06635 14.9708 8.8144 15.4839 8.71233C15.997 8.61026 16.5289 8.66265 17.0123 8.86287C17.4957 9.06309 17.9088 9.40215 18.1995 9.83717C18.4902 10.2722 18.6453 10.7836 18.6453 11.3068C18.6442 12.0081 18.3651 12.6803 17.8693 13.1761C17.3734 13.672 16.7012 13.951 16 13.9522V13.9522ZM16 9.51484C15.6456 9.51484 15.2991 9.61994 15.0044 9.81684C14.7097 10.0138 14.48 10.2936 14.3444 10.6211C14.2088 10.9485 14.1733 11.3088 14.2424 11.6564C14.3116 12.0041 14.4822 12.3234 14.7328 12.574C14.9835 12.8246 15.3028 12.9953 15.6504 13.0644C15.998 13.1336 16.3583 13.0981 16.6857 12.9624C17.0132 12.8268 17.2931 12.5971 17.49 12.3024C17.6869 12.0077 17.792 11.6613 17.792 11.3068C17.792 10.8316 17.6032 10.3758 17.2671 10.0397C16.931 9.70364 16.4752 9.51484 16 9.51484Z" fill="white"/>
</g>
<defs>
<linearGradient id="paint0_linear_867_35643" x1="-6.62742" y1="38.6287" x2="38.6274" y2="-6.62613" gradientUnits="userSpaceOnUse">
<stop stop-color="#B0084D"/>
<stop offset="1" stop-color="#FF4F8B"/>
</linearGradient>
<clipPath id="clip0_867_35643">
<rect width="32" height="32" fill="white"/>
</clipPath>
</defs>
</svg>
