<svg width="32" height="32" viewBox="0 0 32 32" fill="none" xmlns="http://www.w3.org/2000/svg">
<g clip-path="url(#clip0_867_35647)">
<path d="M32 0H0V32H32V0Z" fill="url(#paint0_linear_867_35647)"/>
<path d="M15.5734 6.82691V10.8589H16.4267V6.82691L18.415 8.81091L19.0166 8.20931L16.303 5.49144C16.2633 5.45145 16.2161 5.41971 16.1641 5.39805C16.1121 5.37639 16.0564 5.36523 16.0001 5.36523C15.9437 5.36523 15.888 5.37639 15.836 5.39805C15.784 5.41971 15.7368 5.45145 15.6971 5.49144L12.9835 8.20931L13.5851 8.81091L15.5734 6.82691Z" fill="white"/>
<path d="M16.4267 25.1735V21.0903H15.5734V25.1735L13.5851 23.1853L12.9835 23.7911L15.6971 26.5047C15.7368 26.5447 15.784 26.5765 15.836 26.5981C15.888 26.6198 15.9437 26.6309 16.0001 26.6309C16.0564 26.6309 16.1121 26.6198 16.1641 26.5981C16.2161 26.5765 16.2633 26.5447 16.303 26.5047L19.0166 23.7911L18.415 23.1853L16.4267 25.1735Z" fill="white"/>
<path d="M8.00857 12.9795L7.40697 13.5854L9.38671 15.5438H5.33337V16.3971H9.42511L7.40697 18.411L8.00857 19.0126L10.7264 16.299C10.8059 16.219 10.8505 16.1109 10.8505 15.9982C10.8505 15.8854 10.8059 15.7773 10.7264 15.6974L8.00857 12.9795Z" fill="white"/>
<path d="M26.6667 15.5438H22.6347L24.5931 13.5854L23.9872 12.9795L21.2736 15.6974C21.1941 15.7773 21.1495 15.8854 21.1495 15.9982C21.1495 16.1109 21.1941 16.219 21.2736 16.299L23.9872 19.0126L24.5931 18.411L22.5749 16.3971H26.6667V15.5438Z" fill="white"/>
<path d="M19.6267 13.6749L16.2134 11.7549C16.1485 11.7175 16.0749 11.6978 16 11.6978C15.9251 11.6978 15.8516 11.7175 15.7867 11.7549L12.3734 13.6749C12.3075 13.712 12.2526 13.7659 12.2143 13.8311C12.1761 13.8963 12.1559 13.9705 12.1558 14.0461V17.8861C12.1559 17.9617 12.1761 18.0359 12.2143 18.1012C12.2526 18.1664 12.3075 18.2203 12.3734 18.2573L15.7867 20.173C15.8487 20.2096 15.9195 20.2287 15.9915 20.2285C16.0636 20.2294 16.1345 20.2102 16.1963 20.173L19.6096 18.2573C19.6755 18.2203 19.7304 18.1664 19.7686 18.1012C19.8069 18.0359 19.8271 17.9617 19.8272 17.8861V14.0461C19.8288 13.9722 19.8112 13.8991 19.7761 13.834C19.7409 13.7689 19.6894 13.7141 19.6267 13.6749ZM16 12.6253L18.56 14.0675L16 15.5523L13.44 14.0675L16 12.6253ZM13.0134 14.8098L15.5734 16.2904V19.0637L13.0134 17.6259V14.8098ZM16.4267 19.0765V16.2946L18.9867 14.8098V17.6259L16.4267 19.0765Z" fill="white"/>
</g>
<defs>
<linearGradient id="paint0_linear_867_35647" x1="-6.62742" y1="38.6287" x2="38.6274" y2="-6.62613" gradientUnits="userSpaceOnUse">
<stop stop-color="#B0084D"/>
<stop offset="1" stop-color="#FF4F8B"/>
</linearGradient>
<clipPath id="clip0_867_35647">
<rect width="32" height="32" fill="white"/>
</clipPath>
</defs>
</svg>
