<svg width="32" height="32" viewBox="0 0 32 32" fill="none" xmlns="http://www.w3.org/2000/svg">
<g clip-path="url(#clip0_867_35718)">
<path d="M32 0H0V32H32V0Z" fill="url(#paint0_linear_867_35718)"/>
<path d="M24.9599 20.8428C24.6592 20.8484 24.3651 20.9322 24.1066 21.086L22.7413 19.4476C24.114 18.3958 25.2227 17.0387 25.9797 15.4839L25.2117 15.1084C24.3686 16.8282 23.06 18.2771 21.4347 19.2905C19.8094 20.3039 17.9324 20.8411 16.017 20.8411C14.1016 20.8411 12.2247 20.3039 10.5993 19.2905C8.97397 18.2771 7.66542 16.8282 6.82234 15.1084L6.05434 15.4839C6.79446 17.0059 7.873 18.3383 9.20741 19.3793L7.83354 21.0305C7.59281 20.9084 7.32693 20.8442 7.05701 20.8428C6.71946 20.8428 6.3895 20.9429 6.10884 21.1304C5.82818 21.3179 5.60943 21.5845 5.48025 21.8963C5.35108 22.2082 5.31728 22.5513 5.38314 22.8824C5.44899 23.2135 5.61153 23.5176 5.85021 23.7562C6.0889 23.9949 6.39299 24.1575 6.72406 24.2233C7.05512 24.2892 7.39827 24.2554 7.71012 24.1262C8.02198 23.997 8.28852 23.7783 8.47605 23.4976C8.66358 23.217 8.76368 22.887 8.76368 22.5495C8.76434 22.2124 8.66158 21.8833 8.46928 21.6065L9.90288 19.8999C11.5705 20.9859 13.4996 21.6034 15.4879 21.6876V23.8935C15.0915 24.0174 14.7539 24.2816 14.5383 24.6366C14.3227 24.9916 14.244 25.4131 14.317 25.822C14.3899 26.2309 14.6094 26.5992 14.9344 26.8578C15.2594 27.1164 15.6675 27.2477 16.0823 27.2269C16.4972 27.2062 16.8902 27.0349 17.1878 26.7451C17.4853 26.4554 17.667 26.067 17.6988 25.6529C17.7306 25.2388 17.6102 24.8273 17.3603 24.4955C17.1104 24.1638 16.7481 23.9345 16.3413 23.8508V21.6748C18.3599 21.622 20.3248 21.0138 22.0202 19.9169L23.4666 21.6961C23.3162 21.9554 23.2367 22.2497 23.2362 22.5495C23.2362 22.887 23.3363 23.217 23.5238 23.4976C23.7114 23.7783 23.9779 23.997 24.2898 24.1262C24.6016 24.2554 24.9448 24.2892 25.2758 24.2233C25.6069 24.1575 25.911 23.9949 26.1497 23.7562C26.3884 23.5176 26.5509 23.2135 26.6167 22.8824C26.6826 22.5513 26.6488 22.2082 26.5196 21.8963C26.3905 21.5845 26.1717 21.3179 25.891 21.1304C25.6104 20.9429 25.2804 20.8428 24.9429 20.8428H24.9599ZM7.03994 23.4028C6.87117 23.4028 6.70619 23.3527 6.56586 23.259C6.42553 23.1652 6.31615 23.0319 6.25157 22.876C6.18698 22.7201 6.17008 22.5485 6.20301 22.383C6.23593 22.2174 6.3172 22.0654 6.43655 21.9461C6.55589 21.8267 6.70794 21.7454 6.87347 21.7125C7.039 21.6796 7.21057 21.6965 7.3665 21.7611C7.52243 21.8257 7.6557 21.935 7.74946 22.0754C7.84323 22.2157 7.89328 22.3807 7.89328 22.5495C7.89328 22.7758 7.80337 22.9928 7.64334 23.1528C7.48331 23.3129 7.26626 23.4028 7.03994 23.4028ZM16.8533 25.5361C16.8533 25.7049 16.8032 25.8699 16.7095 26.0102C16.6157 26.1505 16.4824 26.2599 16.3265 26.3245C16.1706 26.3891 15.999 26.406 15.8335 26.3731C15.6679 26.3401 15.5159 26.2589 15.3965 26.1395C15.2772 26.0202 15.1959 25.8681 15.163 25.7026C15.1301 25.5371 15.147 25.3655 15.2116 25.2096C15.2762 25.0536 15.3855 24.9204 15.5259 24.8266C15.6662 24.7328 15.8312 24.6828 15.9999 24.6828C16.2263 24.6828 16.4433 24.7727 16.6033 24.9327C16.7634 25.0928 16.8533 25.3098 16.8533 25.5361ZM24.9599 23.4028C24.7912 23.4028 24.6262 23.3527 24.4859 23.259C24.3455 23.1652 24.2362 23.0319 24.1716 22.876C24.107 22.7201 24.0901 22.5485 24.123 22.383C24.1559 22.2174 24.2372 22.0654 24.3565 21.9461C24.4759 21.8267 24.6279 21.7454 24.7935 21.7125C24.959 21.6796 25.1306 21.6965 25.2865 21.7611C25.4424 21.8257 25.5757 21.935 25.6695 22.0754C25.7632 22.2157 25.8133 22.3807 25.8133 22.5495C25.8133 22.7758 25.7234 22.9928 25.5633 23.1528C25.4033 23.3129 25.1863 23.4028 24.9599 23.4028ZM21.6959 6.82678L16.1493 4.77025C16.0527 4.73609 15.9472 4.73609 15.8506 4.77025L10.3039 6.82678C10.2223 6.8573 10.1519 6.91209 10.1023 6.9838C10.0528 7.0555 10.0263 7.14067 10.0266 7.22785V13.3761C10.0597 14.5158 10.3072 15.639 10.7562 16.6871C11.1664 17.7309 11.892 18.6208 12.832 19.2327C13.7719 19.8445 14.8794 20.1479 15.9999 20.1004C21.905 20.1004 21.9733 13.8327 21.9733 13.7644V7.25345C21.979 7.16198 21.9551 7.07109 21.9052 6.99425C21.8552 6.9174 21.7819 6.85868 21.6959 6.82678ZM21.1199 13.7516C21.0893 14.7075 20.8719 15.6482 20.4799 16.5207C19.6266 18.3212 18.1333 19.2343 16.0127 19.2343C10.9653 19.2343 10.8927 13.6151 10.8927 13.3761V7.53505L16.0127 5.64065L21.1327 7.53505L21.1199 13.7516ZM19.9935 7.97878L16.1535 6.47265C16.054 6.43852 15.9459 6.43852 15.8463 6.47265L12.0063 7.97878C11.9262 8.00973 11.8572 8.06416 11.8085 8.13496C11.7597 8.20577 11.7335 8.28964 11.7333 8.37558V14.0076C11.7312 14.0331 11.7312 14.0588 11.7333 14.0844C11.7674 14.2679 12.5866 18.5644 15.9999 18.5644C19.4133 18.5644 20.2239 14.2679 20.2666 14.0844C20.2687 14.0588 20.2687 14.0331 20.2666 14.0076V8.37558C20.2664 8.28964 20.2401 8.20577 20.1914 8.13496C20.1427 8.06416 20.0737 8.00973 19.9935 7.97878ZM15.5733 17.6727C13.3717 17.3271 12.6634 14.3276 12.5866 13.9607V8.66998L15.5733 7.50092V17.6727ZM19.4133 13.9607C19.3365 14.3276 18.6367 17.3271 16.4266 17.6727V7.50092L19.4133 8.66998V13.9607Z" fill="white"/>
</g>
<defs>
<linearGradient id="paint0_linear_867_35718" x1="-6.62613" y1="38.6261" x2="38.6261" y2="-6.62613" gradientUnits="userSpaceOnUse">
<stop stop-color="#B0084D"/>
<stop offset="1" stop-color="#FF4F8B"/>
</linearGradient>
<clipPath id="clip0_867_35718">
<rect width="32" height="32" fill="white"/>
</clipPath>
</defs>
</svg>
