<svg width="32" height="32" viewBox="0 0 32 32" fill="none" xmlns="http://www.w3.org/2000/svg">
<g clip-path="url(#clip0_854_27669)">
<path d="M32 0H0V32H32V0Z" fill="url(#paint0_linear_854_27669)"/>
<path fill-rule="evenodd" clip-rule="evenodd" d="M17.5888 21.0586C17.5824 20.7386 17.4512 20.4394 17.22 20.217C16.988 19.9938 16.688 19.8834 16.3888 19.8834C16.0736 19.8834 15.7592 20.0066 15.524 20.2506C15.3024 20.4818 15.1824 20.7858 15.1888 21.1066C15.1952 21.4266 15.3264 21.725 15.5576 21.9474C16.0336 22.4058 16.7952 22.3914 17.2536 21.9138C17.4752 21.6834 17.5952 21.3794 17.5888 21.0586ZM17.7744 19.641C18.16 20.0106 18.3776 20.509 18.388 21.0426C18.3992 21.577 18.2008 22.0834 17.8304 22.469C17.4384 22.8762 16.9136 23.0818 16.3888 23.0818C15.8896 23.0818 15.3904 22.8962 15.0032 22.5242C14.6176 22.1546 14.4 21.6562 14.3896 21.1218C14.3784 20.5874 14.5768 20.081 14.9472 19.6962C15.712 18.9018 16.9792 18.877 17.7744 19.641ZM21.9184 21.389L20.308 20.6482C20.2056 20.6018 20.1288 20.5138 20.0944 20.4066L19.816 19.5354C19.7824 19.4298 19.7944 19.3146 19.8488 19.2178L20.7152 17.6762L18.5008 16.065L17.312 17.3538C17.2376 17.4354 17.132 17.4818 17.0208 17.4826L16.0896 17.4882C15.964 17.4826 15.8696 17.4418 15.7928 17.3586L14.5992 16.0618L12.3816 17.6706L13.2504 19.2186C13.3056 19.3154 13.3168 19.4314 13.2824 19.5386L13.0016 20.4002C12.9664 20.5058 12.8888 20.593 12.7872 20.6394L11.172 21.3802L12.0168 23.9866L13.744 23.641C13.856 23.6194 13.9704 23.6442 14.0608 23.7114L14.8088 24.2658C14.8976 24.3314 14.9552 24.4314 14.9688 24.541L15.1712 26.2826L17.9104 26.285L18.1152 24.5314C18.1288 24.421 18.1872 24.321 18.2768 24.2554L19.0168 23.7138C19.1072 23.6474 19.2208 23.6234 19.332 23.6442L21.0712 23.993L21.9184 21.389ZM22.7896 21.2978L21.7216 24.5794C21.6584 24.7714 21.464 24.889 21.2624 24.8474L19.3464 24.4634L18.8904 24.7978L18.664 26.7322C18.6392 26.9338 18.4696 27.0858 18.2664 27.0858L14.8144 27.0826C14.6112 27.0826 14.44 26.9298 14.4168 26.7282L14.1936 24.8058L13.7272 24.4594L11.824 24.841C11.6264 24.8794 11.4272 24.765 11.3656 24.5722L10.3016 21.2882C10.2384 21.0946 10.3304 20.8858 10.5152 20.801L12.2952 19.985L12.468 19.457L11.5096 17.7514C11.4096 17.5746 11.4592 17.3514 11.6232 17.2322L14.4168 15.2058C14.5824 15.0866 14.808 15.1098 14.9464 15.2586L16.2616 16.6866L16.8416 16.6834L18.1544 15.261C18.292 15.1106 18.52 15.0898 18.6832 15.209L21.4736 17.2394C21.6384 17.3586 21.6872 17.5818 21.5872 17.7586L20.632 19.4586L20.8032 19.9954L22.576 20.8106C22.7608 20.8954 22.852 21.105 22.7896 21.2978ZM7.48645 5.80579C8.37445 5.44659 9.37685 5.56179 10.1656 6.11139L10.6232 5.45539C9.60965 4.75059 8.32645 4.60419 7.18645 5.06419C6.04485 5.52579 5.22325 6.52499 4.98725 7.73539L5.77285 7.88899C5.95685 6.94419 6.59765 6.16579 7.48645 5.80579ZM8.80645 9.50579C10.4496 8.84179 12.3048 9.05219 13.7648 10.0714L14.2224 9.41459C12.5384 8.24099 10.4024 7.99779 8.50645 8.76419C6.60965 9.53139 5.24325 11.1922 4.85045 13.2066L5.63685 13.3594C5.97685 11.6122 7.16245 10.1714 8.80645 9.50579ZM19.5384 5.64819C22.376 5.85059 24.92 7.32499 26.516 9.69379L27.18 9.24739C25.4448 6.67299 22.68 5.06979 19.5944 4.85059C17.0448 4.66579 14.5552 5.45859 12.5752 7.07299L13.08 7.69299C14.9032 6.20899 17.1856 5.48099 19.5384 5.64819ZM27.1728 20.3554C27.1728 22.517 25.9296 23.701 25.1872 24.2138C24.8064 24.4762 24.1176 24.6826 23.6184 24.6826H23.1888V23.8826H23.6184C23.96 23.8826 24.48 23.7298 24.7328 23.5554C25.4808 23.0378 26.3728 22.0626 26.3728 20.3554C26.3728 17.9634 24.7088 17.1786 23.7176 16.9242C23.532 16.8762 23.4056 16.7042 23.4176 16.513L23.4584 15.8322C23.4576 13.9506 22.1448 11.9002 20.4696 11.1882C17.5712 9.95779 15.5168 11.5762 14.7688 12.329C14.1592 12.9418 13.6832 13.725 13.3544 14.6578C13.3056 14.797 13.1824 14.8986 13.036 14.9202C12.8904 14.9386 12.7424 14.881 12.6552 14.7618C12.1592 14.0882 11.304 13.8074 10.528 14.061C9.64965 14.3498 9.14565 15.2106 9.14565 16.4242C9.17605 16.6378 9.03365 16.825 8.82005 16.8618C8.06485 16.9922 5.60005 17.6306 5.60005 20.3882C5.60005 23.5922 8.52485 23.8738 8.64885 23.8834L9.58885 23.8826V24.6826H8.61685C8.54805 24.6778 4.80005 24.341 4.80005 20.3882C4.80005 17.3434 7.20805 16.4114 8.35365 16.141C8.43685 14.725 9.14245 13.6746 10.2776 13.3018C11.1696 13.009 12.1296 13.209 12.836 13.7962C13.1856 13.0074 13.6432 12.3258 14.2016 11.765C15.9984 9.95699 18.4584 9.46659 20.7816 10.4522C22.7632 11.2938 24.2576 13.617 24.2576 15.8562L24.2352 16.2426C25.316 16.5978 27.1728 17.609 27.1728 20.3554Z" fill="white"/>
</g>
<defs>
<linearGradient id="paint0_linear_854_27669" x1="-6.62742" y1="38.6287" x2="38.6274" y2="-6.62613" gradientUnits="userSpaceOnUse">
<stop stop-color="#B0084D"/>
<stop offset="1" stop-color="#FF4F8B"/>
</linearGradient>
<clipPath id="clip0_854_27669">
<rect width="32" height="32" fill="white"/>
</clipPath>
</defs>
</svg>
