<svg width="32" height="32" viewBox="0 0 32 32" fill="none" xmlns="http://www.w3.org/2000/svg">
<g clip-path="url(#clip0_854_27605)">
<path d="M32 0H0V32H32V0Z" fill="url(#paint0_linear_854_27605)"/>
<path fill-rule="evenodd" clip-rule="evenodd" d="M26.1968 24.341L21.852 19.9578C21.396 20.6834 20.7928 21.3066 20.0784 21.7794L24.3552 26.1914C24.5264 26.361 24.7496 26.4314 25.0216 26.3882C25.3176 26.3426 25.6296 26.1698 25.8992 25.9002C26.36 25.4386 26.6104 24.7554 26.1968 24.341ZM21.1168 24.0002L19.356 22.1834C18.576 22.5562 17.7072 22.7714 16.7864 22.7714C16.5192 22.7714 16.2584 22.7474 16 22.7138V26.193L21.1168 24.0002ZM5.59999 21.7442L15.2 26.1746V22.5514C12.6696 21.853 10.8032 19.537 10.8032 16.7882C10.8032 15.5682 11.172 14.4338 11.8008 13.4874L5.59999 10.6258V21.7442ZM6.15439 10.0002L12.304 12.8378C13.4016 11.5946 15.0016 10.8042 16.7864 10.8042C18.1872 10.8042 19.4736 11.2914 20.4944 12.1002L25.0448 10.0002L15.6 5.641L6.15439 10.0002ZM21.9704 16.7882C21.9704 13.9298 19.6456 11.6042 16.7864 11.6042C13.928 11.6042 11.6032 13.9298 11.6032 16.7882C11.6032 19.6458 13.928 21.9714 16.7864 21.9714C19.6456 21.9714 21.9704 19.6458 21.9704 16.7882ZM25.0368 22.0338L25.6 21.753V10.625L21.132 12.6874C22.1448 13.7594 22.7704 15.2002 22.7704 16.7882C22.7704 17.6546 22.5808 18.4762 22.248 19.2202L25.0368 22.0338ZM26.764 23.7762C27.4552 24.469 27.3296 25.6002 26.4648 26.4658C26.076 26.8546 25.6064 27.1082 25.144 27.1794C25.052 27.193 24.9624 27.2002 24.8752 27.2002C24.4576 27.2002 24.0784 27.0458 23.7848 26.7522L21.7128 24.6154L15.7576 27.1674C15.7072 27.189 15.6536 27.2002 15.6 27.2002C15.5432 27.2002 15.4848 27.1882 15.432 27.1634L5.03199 22.3634C4.89039 22.2978 4.79999 22.1562 4.79999 22.0002V10.0002C4.79999 9.8442 4.89039 9.7026 5.03199 9.637L15.432 4.837C15.54 4.7874 15.66 4.7874 15.768 4.837L26.168 9.637C26.3096 9.7026 26.4 9.8442 26.4 10.0002V22.0002C26.4 22.1514 26.3136 22.2898 26.1792 22.3578L25.6296 22.6322L26.764 23.7762ZM15.2 18.3994H16V16.7994H15.2V18.3994ZM15.2 20.7994H16V19.1994H15.2V20.7994ZM17.932 13.2834L18.268 14.0098L19.2816 13.541L18.9464 12.8146L17.932 13.2834ZM16.8496 13.7818L17.1856 14.5082L16 15.0562V15.9994H15.2V15.0562L13.6264 14.3298L13.9624 13.6034L15.6 14.3594L16.8496 13.7818Z" fill="white"/>
</g>
<defs>
<linearGradient id="paint0_linear_854_27605" x1="-6.62742" y1="38.6287" x2="38.6274" y2="-6.62613" gradientUnits="userSpaceOnUse">
<stop stop-color="#B0084D"/>
<stop offset="1" stop-color="#FF4F8B"/>
</linearGradient>
<clipPath id="clip0_854_27605">
<rect width="32" height="32" fill="white"/>
</clipPath>
</defs>
</svg>
