<svg width="32" height="32" viewBox="0 0 32 32" fill="none" xmlns="http://www.w3.org/2000/svg">
<g clip-path="url(#clip0_867_35677)">
<path d="M32 0H0V32H32V0Z" fill="url(#paint0_linear_867_35677)"/>
<path d="M26.24 26.2398H23.2534V25.3864H25.8134V6.6131H6.18671V25.3864H18.1334V26.2398H5.76004C5.64688 26.2398 5.53836 26.1948 5.45834 26.1148C5.37833 26.0348 5.33337 25.9263 5.33337 25.8131V6.18643C5.33337 6.07327 5.37833 5.96475 5.45834 5.88473C5.53836 5.80472 5.64688 5.75977 5.76004 5.75977H26.24C26.3532 5.75977 26.4617 5.80472 26.5417 5.88473C26.6218 5.96475 26.6667 6.07327 26.6667 6.18643V25.8131C26.6667 25.9263 26.6218 26.0348 26.5417 26.1148C26.4617 26.1948 26.3532 26.2398 26.24 26.2398Z" fill="white"/>
<path d="M26.24 9.17334H5.76001V10.0267H26.24V9.17334Z" fill="white"/>
<path d="M7.89337 7.46631H7.04004V8.31964H7.89337V7.46631Z" fill="white"/>
<path d="M9.60004 7.46631H8.7467V8.31964H9.60004V7.46631Z" fill="white"/>
<path d="M11.3067 7.46631H10.4534V8.31964H11.3067V7.46631Z" fill="white"/>
<path d="M10.24 21.6789L9.63843 21.073L13.4315 17.2842L9.63843 13.4911L10.24 12.8853L14.336 16.9813C14.3756 17.0211 14.4069 17.0684 14.4281 17.1204C14.4493 17.1724 14.4601 17.228 14.4598 17.2842C14.4593 17.3961 14.4149 17.5034 14.336 17.5829L10.24 21.6789Z" fill="white"/>
<path d="M21.5467 19.4131H15.1467V20.2664H21.5467V19.4131Z" fill="white"/>
</g>
<defs>
<linearGradient id="paint0_linear_867_35677" x1="-6.62613" y1="38.6261" x2="38.6261" y2="-6.62613" gradientUnits="userSpaceOnUse">
<stop stop-color="#B0084D"/>
<stop offset="1" stop-color="#FF4F8B"/>
</linearGradient>
<clipPath id="clip0_867_35677">
<rect width="32" height="32" fill="white"/>
</clipPath>
</defs>
</svg>
