<svg width="32" height="32" viewBox="0 0 32 32" fill="none" xmlns="http://www.w3.org/2000/svg">
<g clip-path="url(#clip0_854_27626)">
<path d="M32 0H0V32H32V0Z" fill="url(#paint0_linear_854_27626)"/>
<path fill-rule="evenodd" clip-rule="evenodd" d="M26.4 7.1999H25.2C24.14 7.1999 24.0128 8.2815 24 8.4239V12.7999H23.2V8.7999H21.6V14.3999H23.6C23.8104 14.3999 23.984 14.5623 23.9992 14.7711C24.0096 14.8959 24.1296 15.9999 25.2 15.9999H26.4V7.1999ZM5.60005 12.7999H12V10.3999H5.60005V12.7999ZM27.2 6.7999V16.3999C27.2 16.6207 27.0208 16.7999 26.8 16.7999H25.2C23.9688 16.7999 23.4312 15.8943 23.2608 15.1999H21.2H20V14.3999H20.8V8.7999H14C13.3384 8.7999 12.8 9.3383 12.8 9.9999V10.3999V12.7999V13.1999C12.8 13.8615 13.3384 14.3999 14 14.3999H15.2V15.1999H14C13.0336 15.1999 12.2264 14.5119 12.0408 13.5999H5.60005V15.1999H4.80005V13.1999V9.9999V7.9999H5.60005V9.5999H12.0408C12.2264 8.6879 13.0336 7.9999 14 7.9999H21.2H21.6H23.2608C23.4312 7.3055 23.9688 6.3999 25.2 6.3999H26.8C27.0208 6.3999 27.2 6.5791 27.2 6.7999ZM23.6 20.7999H26.4V21.5999H23.8712L22.3712 25.3487C22.3112 25.5007 22.1632 25.5999 22 25.5999H21.9912C21.8248 25.5967 21.6784 25.4903 21.6224 25.3335L17.2112 12.8327L13.58 23.7263C13.5272 23.8839 13.3832 23.9927 13.2168 23.9999C13.0544 24.0095 12.8968 23.9095 12.832 23.7575L10.8056 19.0287L9.17365 22.9535C9.11125 23.1023 8.96565 23.1999 8.80405 23.1999H5.60005V22.3999H8.53685L10.4304 17.8463C10.492 17.6983 10.6368 17.6007 10.7976 17.5999H10.8C10.96 17.5999 11.1048 17.6951 11.168 17.8423L13.1528 22.4751L16.82 11.4735C16.8744 11.3111 17.0256 11.2015 17.1968 11.1999C17.3744 11.1871 17.5208 11.3063 17.5776 11.4663L22.0232 24.0647L23.2288 21.0511C23.2888 20.8999 23.4368 20.7999 23.6 20.7999Z" fill="white"/>
</g>
<defs>
<linearGradient id="paint0_linear_854_27626" x1="-6.62742" y1="38.6287" x2="38.6274" y2="-6.62613" gradientUnits="userSpaceOnUse">
<stop stop-color="#B0084D"/>
<stop offset="1" stop-color="#FF4F8B"/>
</linearGradient>
<clipPath id="clip0_854_27626">
<rect width="32" height="32" fill="white"/>
</clipPath>
</defs>
</svg>
