<svg width="32" height="32" viewBox="0 0 32 32" fill="none" xmlns="http://www.w3.org/2000/svg">
<g clip-path="url(#clip0_854_27579)">
<path d="M32 0H0V32H32V0Z" fill="url(#paint0_linear_854_27579)"/>
<path fill-rule="evenodd" clip-rule="evenodd" d="M10.2832 15.3168C10.4392 15.4728 10.4392 15.7264 10.2832 15.8824L7.48325 18.6824L6.91765 18.1168L9.03445 16H4.80005V15.2H9.03445L6.91765 13.0824L7.48325 12.5168L10.2832 15.3168ZM27.2 16H22.9664L25.0832 18.1168L24.5176 18.6824L21.7176 15.8824C21.5616 15.7264 21.5616 15.4728 21.7176 15.3168L24.5176 12.5168L25.0832 13.0824L22.9664 15.2H27.2V16ZM18.9176 23.7168L19.4832 24.2824L16.6832 27.0824C16.6048 27.1608 16.5024 27.2 16.4 27.2C16.2984 27.2 16.196 27.1608 16.1176 27.0824L13.3176 24.2824L13.8832 23.7168L16 25.8336V22.4H16.8V25.8336L18.9176 23.7168ZM13.8832 8.2824L13.3176 7.7168L16.1176 4.9168C16.2736 4.7608 16.5272 4.7608 16.6832 4.9168L19.4832 7.7168L18.9176 8.2824L16.8 6.1656V9.6H16V6.1656L13.8832 8.2824ZM19.2 13.4344C18.8192 13.3192 18.3928 13.3488 17.9952 13.5336C17.692 13.676 17.4472 13.9184 17.3056 14.2176C17.0536 14.752 17.0808 15.3312 17.3808 15.8048C17.7616 16.4056 18.5352 16.6824 19.2 16.48V18.4H17.2C17.036 18.4 16.8896 18.4992 16.8288 18.6512C16.768 18.8032 16.8064 18.9776 16.9256 19.0896C17.0336 19.1936 17.3736 19.5616 17.16 19.9608C17.1032 20.0664 17.0032 20.208 16.848 20.2808C16.4544 20.4648 16.1584 20.3408 16.0152 20.2504C15.7848 20.1032 15.6472 19.8536 15.6472 19.5832C15.6472 19.3792 15.7072 19.2504 15.8752 19.0896C15.9944 18.9768 16.0328 18.8032 15.972 18.6512C15.9112 18.4992 15.7648 18.4 15.6 18.4H12.8V12.4C12.8 12.2456 13.0192 12 13.2 12H19.2V13.4344ZM19.6 11.2H13.2C12.5952 11.2 12 11.7944 12 12.4V18.8C12 19.0208 12.1792 19.2 12.4 19.2H14.8952C14.8632 19.32 14.8472 19.4472 14.8472 19.5832C14.8472 20.1288 15.1232 20.6304 15.5856 20.9248C15.848 21.092 16.1424 21.176 16.444 21.176C16.6912 21.176 16.944 21.1192 17.188 21.0056C17.468 20.8736 17.7024 20.6432 17.8664 20.3376C18.056 19.9816 18.0744 19.5784 17.9376 19.2H19.6C19.8216 19.2 20 19.0208 20 18.8V15.7776C20 15.6144 19.9008 15.4672 19.7496 15.4064C19.5984 15.3448 19.4264 15.3824 19.312 15.5C18.964 15.8632 18.3216 15.7936 18.0568 15.3776C17.968 15.2376 17.8472 14.9456 18.0296 14.5592C18.0912 14.4288 18.2 14.3216 18.3336 14.2584C18.6944 14.0904 19.0584 14.148 19.312 14.412C19.4248 14.5296 19.5984 14.568 19.7496 14.5064C19.9008 14.4456 20 14.2984 20 14.1352V11.6C20 11.3784 19.8216 11.2 19.6 11.2Z" fill="white"/>
</g>
<defs>
<linearGradient id="paint0_linear_854_27579" x1="-6.62742" y1="38.6287" x2="38.6274" y2="-6.62613" gradientUnits="userSpaceOnUse">
<stop stop-color="#B0084D"/>
<stop offset="1" stop-color="#FF4F8B"/>
</linearGradient>
<clipPath id="clip0_854_27579">
<rect width="32" height="32" fill="white"/>
</clipPath>
</defs>
</svg>
