<svg width="32" height="32" viewBox="0 0 32 32" fill="none" xmlns="http://www.w3.org/2000/svg">
<g clip-path="url(#clip0_855_10073)">
<path d="M15.2672 1.19161L1.17534 15.2835C0.779605 15.6792 0.779605 16.3208 1.17534 16.7165L15.2672 30.8084C15.6629 31.2041 16.3045 31.2041 16.7003 30.8084L30.7921 16.7165C31.1878 16.3208 31.1878 15.6792 30.7921 15.2835L16.7003 1.19161C16.3045 0.795881 15.6629 0.79588 15.2672 1.19161Z" fill="url(#paint0_linear_855_10073)"/>
<path d="M19.36 18.6841H24.4089C24.4576 18.6797 24.5029 18.6571 24.5358 18.6209C24.5687 18.5847 24.5869 18.5375 24.5867 18.4886V13.4574C24.5909 13.4186 24.5822 13.3794 24.5619 13.346C24.5415 13.3125 24.5108 13.2868 24.4743 13.2726C24.4379 13.2584 24.3978 13.2566 24.3603 13.2676C24.3227 13.2785 24.2898 13.3015 24.2667 13.333L22.88 14.7197V14.8086C22.8468 14.8411 22.8021 14.8594 22.7555 14.8594C22.709 14.8594 22.6643 14.8411 22.6311 14.8086L16.4622 8.72855C16.429 8.69598 16.3843 8.67773 16.3378 8.67773C16.2912 8.67773 16.2466 8.69598 16.2133 8.72855L14.6489 10.293C14.6151 10.3292 14.5964 10.3768 14.5964 10.4263C14.5964 10.4758 14.6151 10.5235 14.6489 10.5597L20.7111 16.6219C20.7448 16.6581 20.7636 16.7057 20.7636 16.7552C20.7636 16.8047 20.7448 16.8524 20.7111 16.8886L20.6222 16.9774L19.2355 18.3641C19.2129 18.391 19.1979 18.4234 19.1921 18.4581C19.1864 18.4927 19.1901 18.5283 19.2028 18.561C19.2155 18.5938 19.2368 18.6225 19.2645 18.6441C19.2922 18.6658 19.3251 18.6796 19.36 18.6841Z" fill="white"/>
<path d="M12.3022 18.6841H7.25332C7.21112 18.6722 7.17416 18.6464 7.14836 18.6109C7.12257 18.5755 7.10945 18.5324 7.1111 18.4886V13.4574C7.11159 13.4226 7.12228 13.3888 7.14185 13.36C7.16141 13.3312 7.18899 13.3088 7.22117 13.2956C7.25335 13.2823 7.28871 13.2788 7.32287 13.2854C7.35702 13.2921 7.38848 13.3086 7.41332 13.333L8.81777 14.7197V14.8086C8.851 14.8411 8.89568 14.8594 8.94221 14.8594C8.98875 14.8594 9.03342 14.8411 9.06666 14.8086L15.2 8.72855C15.2332 8.69598 15.2779 8.67773 15.3244 8.67773C15.371 8.67773 15.4156 8.69598 15.4489 8.72855L17.0133 10.293C17.0471 10.3292 17.0658 10.3768 17.0658 10.4263C17.0658 10.4758 17.0471 10.5235 17.0133 10.5597L10.9511 16.6219C10.9174 16.6581 10.8986 16.7057 10.8986 16.7552C10.8986 16.8047 10.9174 16.8524 10.9511 16.8886V16.9774L12.3378 18.3641C12.3617 18.3849 12.3802 18.4111 12.3918 18.4406C12.4033 18.4701 12.4075 18.502 12.404 18.5334C12.4005 18.5649 12.3894 18.5951 12.3717 18.6213C12.354 18.6476 12.3301 18.6691 12.3022 18.6841Z" fill="white"/>
<path d="M12.1244 23.2353L15.68 26.7908C15.7132 26.8234 15.7579 26.8416 15.8044 26.8416C15.851 26.8416 15.8957 26.8234 15.9289 26.7908L19.4844 23.2353C19.5088 23.2104 19.5253 23.179 19.532 23.1448C19.5387 23.1106 19.5351 23.0753 19.5219 23.0431C19.5086 23.0109 19.4862 22.9833 19.4575 22.9638C19.4287 22.9442 19.3948 22.9335 19.36 22.933H17.28C17.2342 22.929 17.1913 22.909 17.1588 22.8765C17.1262 22.844 17.1062 22.8011 17.1022 22.7553V14.2219C17.1047 14.1971 17.102 14.1721 17.0942 14.1484C17.0863 14.1248 17.0736 14.103 17.0569 14.0846C17.0401 14.0661 17.0197 14.0514 16.9968 14.0414C16.974 14.0314 16.9494 14.0262 16.9244 14.0264H14.72C14.6681 14.0264 14.6184 14.047 14.5817 14.0836C14.545 14.1203 14.5244 14.1701 14.5244 14.2219V22.7553C14.5244 22.8024 14.5057 22.8476 14.4724 22.881C14.439 22.9143 14.3938 22.933 14.3467 22.933H12.2489C12.2141 22.9335 12.1802 22.9442 12.1514 22.9638C12.1227 22.9833 12.1002 23.0109 12.087 23.0431C12.0737 23.0753 12.0702 23.1106 12.0769 23.1448C12.0835 23.179 12.1001 23.2104 12.1244 23.2353Z" fill="white"/>
<path d="M18.9333 13.831C17.9206 14.5615 16.6638 14.8703 15.4278 14.6923C14.1919 14.5143 13.0733 13.8633 12.308 12.8766C11.5426 11.89 11.1902 10.6447 11.3251 9.40327C11.46 8.16186 12.0717 7.02133 13.0311 6.22208C14.049 5.51512 15.3002 5.22762 16.5247 5.41935C17.7491 5.61108 18.8525 6.26729 19.6056 7.25157C20.3587 8.23586 20.7035 9.47251 20.5684 10.7045C20.4332 11.9364 19.8285 13.0689 18.88 13.8665" fill="#0078D4"/>
<path d="M13.3867 11.4136C14.2409 11.4136 14.9333 10.7212 14.9333 9.86698C14.9333 9.01278 14.2409 8.32031 13.3867 8.32031C12.5325 8.32031 11.84 9.01278 11.84 9.86698C11.84 10.7212 12.5325 11.4136 13.3867 11.4136Z" fill="url(#paint1_linear_855_10073)"/>
<path opacity="0.55" d="M11.8578 12.4443L12.1956 12.9776L12.4445 13.3332C12.5821 12.6633 12.7846 12.0084 13.0489 11.3776C12.7469 11.3256 12.4679 11.183 12.2489 10.9688C12.0872 11.4517 11.9565 11.9446 11.8578 12.4443Z" fill="#F2F2F2"/>
<path opacity="0.55" d="M12.8711 8.40919C12.663 7.87722 12.5197 7.32211 12.4444 6.75586C12.2121 7.00423 12.0093 7.27864 11.84 7.57364C11.9101 8.02382 12.0294 8.46497 12.1956 8.88919C12.3798 8.67821 12.6113 8.51374 12.8711 8.40919Z" fill="#F2F2F2"/>
<path opacity="0.55" d="M14.5244 10.916C14.297 11.1576 13.9978 11.3197 13.6711 11.3782C13.9272 11.6391 14.2004 11.8826 14.4889 12.1071C14.8521 12.3731 15.2389 12.6052 15.6444 12.8005V12.676C15.6483 12.5387 15.6821 12.404 15.7435 12.2811C15.805 12.1583 15.8925 12.0504 16 11.9649C15.4609 11.687 14.9641 11.3338 14.5244 10.916Z" fill="#F2F2F2"/>
<path opacity="0.55" d="M19.1822 12.7998C18.6618 12.7954 18.1434 12.7358 17.6355 12.6221C17.6361 12.7507 17.6112 12.8781 17.5624 12.9971C17.5136 13.116 17.4418 13.2242 17.3511 13.3154C17.9812 13.4533 18.6276 13.5012 19.2711 13.4576C19.5137 13.2303 19.734 12.9803 19.9289 12.711L19.1822 12.7998Z" fill="#F2F2F2"/>
<path d="M16.64 13.6708C17.1898 13.6708 17.6356 13.2251 17.6356 12.6752C17.6356 12.1254 17.1898 11.6797 16.64 11.6797C16.0902 11.6797 15.6444 12.1254 15.6444 12.6752C15.6444 13.2251 16.0902 13.6708 16.64 13.6708Z" fill="url(#paint2_linear_855_10073)"/>
<path d="M18.9155 11.271C19.5046 11.271 19.9822 10.7935 19.9822 10.2044C19.9822 9.61526 19.5046 9.1377 18.9155 9.1377C18.3264 9.1377 17.8489 9.61526 17.8489 10.2044C17.8489 10.7935 18.3264 11.271 18.9155 11.271Z" fill="#F2F2F2"/>
<path opacity="0.55" d="M16.3733 7.85779C17.4164 7.35875 18.5593 7.10343 19.7156 7.11112C19.4775 6.80521 19.196 6.5357 18.88 6.31112C17.968 6.36575 17.0721 6.5762 16.2311 6.93334C16.0533 6.93334 15.8933 7.1289 15.7156 7.21779C15.2901 6.70388 14.915 6.15021 14.5956 5.56445L13.9911 5.79556C14.3088 6.42937 14.6964 7.02567 15.1467 7.57334C14.7147 7.85423 14.3152 8.18216 13.9556 8.55112C14.2714 8.66961 14.5399 8.88812 14.72 9.17334C15.0466 8.8471 15.4106 8.56066 15.8045 8.32001C16.4467 8.9699 17.1425 9.5646 17.8845 10.0978C17.9349 9.87329 18.0603 9.67266 18.24 9.5289C17.5723 9.02487 16.9479 8.46589 16.3733 7.85779Z" fill="#F2F2F2"/>
<path opacity="0.55" d="M20.5334 10.8264H20.3556H20.2134L20.0356 10.7197C19.9735 10.9293 19.8496 11.1152 19.68 11.2531L19.8934 11.3775L20.0889 11.4842L20.5867 11.7331C20.6505 11.5285 20.7039 11.3208 20.7467 11.1108L20.5334 10.8264Z" fill="#F2F2F2"/>
<path d="M13.3867 11.4136C14.2409 11.4136 14.9333 10.7212 14.9333 9.86698C14.9333 9.01278 14.2409 8.32031 13.3867 8.32031C12.5325 8.32031 11.84 9.01278 11.84 9.86698C11.84 10.7212 12.5325 11.4136 13.3867 11.4136Z" fill="#F2F2F2"/>
<path d="M16.64 13.6708C17.1898 13.6708 17.6356 13.2251 17.6356 12.6752C17.6356 12.1254 17.1898 11.6797 16.64 11.6797C16.0902 11.6797 15.6444 12.1254 15.6444 12.6752C15.6444 13.2251 16.0902 13.6708 16.64 13.6708Z" fill="#F2F2F2"/>
</g>
<defs>
<linearGradient id="paint0_linear_855_10073" x1="15.9937" y1="34.2196" x2="15.9937" y2="-0.82039" gradientUnits="userSpaceOnUse">
<stop stop-color="#5E9624"/>
<stop offset="0.55" stop-color="#6DAD2A"/>
<stop offset="1" stop-color="#76BC2D"/>
</linearGradient>
<linearGradient id="paint1_linear_855_10073" x1="13.4044" y1="11.4492" x2="13.3867" y2="9.2092" gradientUnits="userSpaceOnUse">
<stop stop-color="#CCCCCC"/>
<stop offset="0.12" stop-color="#D7D7D7"/>
<stop offset="0.42" stop-color="#EBEBEB"/>
<stop offset="0.72" stop-color="#F8F8F8"/>
<stop offset="1" stop-color="#FCFCFC"/>
</linearGradient>
<linearGradient id="paint2_linear_855_10073" x1="16.64" y1="13.6708" x2="16.64" y2="11.6797" gradientUnits="userSpaceOnUse">
<stop stop-color="#CCCCCC"/>
<stop offset="0.12" stop-color="#D7D7D7"/>
<stop offset="0.42" stop-color="#EBEBEB"/>
<stop offset="0.72" stop-color="#F8F8F8"/>
<stop offset="1" stop-color="#FCFCFC"/>
</linearGradient>
<clipPath id="clip0_855_10073">
<rect width="32" height="32" fill="white"/>
</clipPath>
</defs>
</svg>
