<svg width="32" height="32" viewBox="0 0 32 32" fill="none" xmlns="http://www.w3.org/2000/svg">
<g clip-path="url(#clip0_855_10062)">
<path d="M10.6667 18.8084V15.3417H29.0667V5.5284C29.0667 5.22665 28.9468 4.93725 28.7334 4.72387C28.52 4.5105 28.2306 4.39062 27.9289 4.39062H1.13778C0.83602 4.39062 0.546622 4.5105 0.333247 4.72387C0.119873 4.93725 0 5.22665 0 5.5284L0 19.3062C0 19.6079 0.119873 19.8973 0.333247 20.1107C0.546622 20.3241 0.83602 20.444 1.13778 20.444H16V18.8084H10.6667ZM13.9556 14.2217H6.08V10.6662H13.9556V14.2217ZM23.1111 14.2217H15.1644V10.6662H23.1111V14.2217ZM27.7156 14.2217H24.3733V10.6662H27.6444L27.7156 14.2217ZM19.7689 5.99062H27.6444V9.54618H19.7689V5.99062ZM10.6667 5.99062H18.5422V9.54618H10.6667V5.99062ZM1.6 5.99062H9.49333V9.54618H1.6V5.99062ZM1.6 10.6662H4.88889V14.2217H1.6V10.6662ZM9.49333 18.8084H1.6V15.3417H9.49333V18.8084Z" fill="#821010"/>
<path d="M9.47553 5.99023H1.59998V9.47468H9.47553V5.99023Z" fill="#E62323"/>
<path d="M18.56 5.99023H10.6844V9.47468H18.56V5.99023Z" fill="#FF7381"/>
<path d="M27.6444 5.99023H19.7689V9.47468H27.6444V5.99023Z" fill="#E62323"/>
<path d="M4.87109 10.666H1.59998V14.1505H4.87109V10.666Z" fill="#E62323"/>
<path d="M27.6445 10.666H24.3734V14.1505H27.6445V10.666Z" fill="#FF7381"/>
<path d="M13.9556 10.666H6.08002V14.1505H13.9556V10.666Z" fill="#FF7381"/>
<path d="M23.04 10.666H15.1644V14.1505H23.04V10.666Z" fill="#E62323"/>
<path d="M9.47553 15.3418H1.59998V18.8262H9.47553V15.3418Z" fill="#E62323"/>
<path d="M16 15.7688C16.0023 15.7105 16.0161 15.6531 16.0406 15.6C16.065 15.547 16.0997 15.4993 16.1427 15.4597C16.1856 15.42 16.2359 15.3893 16.2908 15.3691C16.3456 15.3489 16.4039 15.3398 16.4622 15.3422H10.6667V18.8088H16V15.7866V15.7688Z" fill="#FF7381"/>
<path d="M32 15.7861V17.475H16V27.1461C16.0023 27.2092 16.017 27.2712 16.0433 27.3285C16.0695 27.3859 16.1068 27.4375 16.1531 27.4804C16.1993 27.5234 16.2535 27.5568 16.3127 27.5787C16.3718 27.6007 16.4347 27.6107 16.4978 27.6084H31.4489C31.578 27.6133 31.704 27.5678 31.8002 27.4816C31.8964 27.3953 31.9553 27.275 31.9644 27.1461V15.7861H32ZM17.28 19.9284C17.28 19.7983 17.3186 19.6711 17.3909 19.5629C17.4631 19.4547 17.5659 19.3704 17.6861 19.3206C17.8063 19.2709 17.9385 19.2578 18.0661 19.2832C18.1937 19.3086 18.3109 19.3712 18.4029 19.4632C18.4949 19.5552 18.5575 19.6724 18.5829 19.8C18.6083 19.9276 18.5953 20.0599 18.5455 20.1801C18.4957 20.3003 18.4114 20.403 18.3032 20.4753C18.195 20.5476 18.0679 20.5861 17.9378 20.5861C17.7647 20.5816 17.6 20.5109 17.4776 20.3885C17.3552 20.2661 17.2845 20.1014 17.28 19.9284ZM17.9378 25.9017C17.8077 25.9017 17.6805 25.8631 17.5723 25.7908C17.4642 25.7186 17.3799 25.6158 17.3301 25.4956C17.2803 25.3754 17.2673 25.2432 17.2926 25.1156C17.318 24.988 17.3807 24.8708 17.4727 24.7788C17.5646 24.6868 17.6819 24.6242 17.8095 24.5988C17.937 24.5734 18.0693 24.5864 18.1895 24.6362C18.3097 24.686 18.4124 24.7703 18.4847 24.8785C18.557 24.9866 18.5956 25.1138 18.5956 25.2439C18.5911 25.4169 18.5203 25.5817 18.3979 25.7041C18.2755 25.8264 18.1108 25.8972 17.9378 25.9017ZM17.9378 23.0928C17.7647 23.0883 17.6 23.0176 17.4776 22.8952C17.3552 22.7728 17.2845 22.6081 17.28 22.435C17.28 22.2606 17.3493 22.0933 17.4727 21.9699C17.596 21.8465 17.7633 21.7772 17.9378 21.7772C18.1122 21.7772 18.2795 21.8465 18.4029 21.9699C18.5263 22.0933 18.5956 22.2606 18.5956 22.435C18.5956 22.6112 18.5269 22.7803 18.404 22.9065C18.2811 23.0327 18.1138 23.1059 17.9378 23.1106V23.0928ZM30.2222 25.5106C30.2222 25.635 30.0444 25.7417 29.8311 25.7417H19.9644C19.7511 25.7417 19.5733 25.635 19.5733 25.5106V24.8884C19.5733 24.7817 19.7511 24.675 19.9644 24.675H29.8311C30.0444 24.675 30.2222 24.7817 30.2222 24.8884V25.5106ZM30.2222 22.7017C30.2222 22.8261 30.0444 22.9328 29.8311 22.9328H19.9644C19.7511 22.9328 19.5733 22.8261 19.5733 22.7017V22.1506C19.5733 22.0261 19.7511 21.9372 19.9644 21.9372H29.8311C30.0444 21.9372 30.2222 22.0261 30.2222 22.1506V22.7017ZM30.2222 20.195C30.2222 20.3195 30.0444 20.4261 29.8311 20.4261H19.9644C19.7511 20.4261 19.5733 20.3195 19.5733 20.195V19.6439C19.5733 19.5372 19.7511 19.4306 19.9644 19.4306H29.8311C30.0444 19.4306 30.2222 19.5372 30.2222 19.6439V20.195Z" fill="#E6E6E6"/>
<path d="M16.5155 15.3241C16.4515 15.3137 16.386 15.3175 16.3235 15.3351C16.2611 15.3527 16.2033 15.3838 16.1542 15.4262C16.1051 15.4685 16.0658 15.5211 16.0392 15.5803C16.0125 15.6394 15.9991 15.7037 16 15.7685V17.4574H32V15.7863C31.9909 15.6669 31.9357 15.5556 31.8462 15.476C31.7566 15.3964 31.6397 15.3547 31.52 15.3596H16.5155V15.3241Z" fill="#666666"/>
<path d="M29.8311 21.9375H19.9645C19.7511 21.9375 19.5734 22.0264 19.5734 22.1508V22.7019C19.5734 22.8264 19.7511 22.9331 19.9645 22.9331H29.8311C30.0445 22.9331 30.2223 22.8264 30.2223 22.7019V22.1508C30.2223 22.0264 30.0445 21.9375 29.8311 21.9375Z" fill="#666666"/>
<path d="M29.8311 19.4307H19.9645C19.7511 19.4307 19.5734 19.5373 19.5734 19.644V20.1951C19.5734 20.3196 19.7511 20.4262 19.9645 20.4262H29.8311C30.0445 20.4262 30.2223 20.3196 30.2223 20.1951V19.644C30.2223 19.5551 30.0445 19.4307 29.8311 19.4307Z" fill="#666666"/>
<path d="M29.8311 24.7461H19.9645C19.7511 24.7461 19.5734 24.8528 19.5734 24.9594V25.5105C19.5734 25.635 19.7511 25.7416 19.9645 25.7416H29.8311C30.0445 25.7416 30.2223 25.635 30.2223 25.5105V24.8883C30.2223 24.8883 30.0445 24.7461 29.8311 24.7461Z" fill="#666666"/>
<path d="M17.9378 20.5861C18.3011 20.5861 18.5956 20.2916 18.5956 19.9283C18.5956 19.565 18.3011 19.2705 17.9378 19.2705C17.5745 19.2705 17.28 19.565 17.28 19.9283C17.28 20.2916 17.5745 20.5861 17.9378 20.5861Z" fill="#666666"/>
<path d="M17.9378 23.0929C18.3011 23.0929 18.5956 22.7984 18.5956 22.4351C18.5956 22.0718 18.3011 21.7773 17.9378 21.7773C17.5745 21.7773 17.28 22.0718 17.28 22.4351C17.28 22.7984 17.5745 23.0929 17.9378 23.0929Z" fill="#666666"/>
<path d="M17.9378 25.9015C18.3011 25.9015 18.5956 25.607 18.5956 25.2437C18.5956 24.8804 18.3011 24.5859 17.9378 24.5859C17.5745 24.5859 17.28 24.8804 17.28 25.2437C17.28 25.607 17.5745 25.9015 17.9378 25.9015Z" fill="#666666"/>
</g>
<defs>
<clipPath id="clip0_855_10062">
<rect width="32" height="32" fill="white"/>
</clipPath>
</defs>
</svg>
