<svg width="32" height="32" viewBox="0 0 32 32" fill="none" xmlns="http://www.w3.org/2000/svg">
<g clip-path="url(#clip0_855_10047)">
<path d="M25.6711 2.70256H1.08444C0.943103 2.69522 0.801767 2.71705 0.669232 2.76669C0.536698 2.81634 0.415803 2.89274 0.314074 2.99113C0.212345 3.08952 0.131961 3.2078 0.0779262 3.33861C0.0238919 3.46942 -0.00263577 3.60995 -4.92588e-06 3.75145V16.3915C-2.52777e-05 16.5284 0.0272227 16.6639 0.080149 16.7902C0.133075 16.9165 0.21062 17.0309 0.308259 17.1269C0.405897 17.2229 0.521674 17.2985 0.648833 17.3492C0.775993 17.4 0.911988 17.4249 1.04888 17.4226H14.6667V12.4448C14.6653 12.2593 14.7232 12.0782 14.832 11.928C14.9407 11.7777 15.0945 11.666 15.2711 11.6092H15.5022C17.5782 11.621 19.5898 10.8895 21.1733 9.54701C21.556 9.33471 21.9701 9.18469 22.4 9.10256C22.8888 8.9787 23.3894 8.90719 23.8933 8.88923C24.3948 8.88277 24.8955 8.93045 25.3867 9.03145C25.8483 9.11914 26.2926 9.28125 26.7022 9.51145V3.75145C26.7046 3.61455 26.6797 3.47856 26.6289 3.3514C26.5781 3.22424 26.5026 3.10846 26.4066 3.01083C26.3106 2.91319 26.1961 2.83564 26.0698 2.78272C25.9436 2.72979 25.808 2.70254 25.6711 2.70256ZM18.1689 12.7292V16.0003H25.3867V12.7292H18.1689Z" fill="#821010"/>
<path d="M8.74666 4.16016H1.51111V7.36016H8.74666V4.16016Z" fill="#E62323"/>
<path d="M17.0667 4.16016H9.83112V7.36016H17.0667V4.16016Z" fill="#FF7381"/>
<path d="M25.4044 4.16016H18.1689V7.36016H25.4044V4.16016Z" fill="#E62323"/>
<path d="M4.51555 8.44434H1.51111V11.6443H4.51555V8.44434Z" fill="#E62323"/>
<path d="M25.3867 8.44434V9.08434C24.8974 8.9654 24.3967 8.89983 23.8933 8.88878C23.3919 8.88341 22.8914 8.93108 22.4 9.031V8.44434H25.3867Z" fill="#FF7381"/>
<path d="M12.8533 8.44434H5.61777V11.6443H12.8533V8.44434Z" fill="#FF7381"/>
<path d="M21.1733 8.44434V9.52878C19.5898 10.8713 17.5782 11.6028 15.5022 11.591H15.2711H13.9378V8.44434H21.1733Z" fill="#E62323"/>
<path d="M8.74666 12.7471H1.51111V15.9471H8.74666V12.7471Z" fill="#E62323"/>
<path d="M14.6667 12.7295H9.83112V15.9295H14.6667V12.7295Z" fill="#FF7381"/>
<path d="M32 19.5561C32 24.8895 25.6 29.1206 24.2133 29.9917C24.1312 30.0353 24.0396 30.0581 23.9467 30.0581C23.8537 30.0581 23.7621 30.0353 23.68 29.9917C22.24 29.1384 15.84 24.8895 15.84 19.5561V13.2095C15.8399 13.0758 15.8918 12.9473 15.9847 12.8511C16.0775 12.7549 16.2041 12.6985 16.3378 12.6939C21.3156 12.5695 20.16 10.3828 23.8933 10.3828C27.6267 10.3828 26.4711 12.5695 31.4489 12.6939C31.5825 12.6985 31.7091 12.7549 31.802 12.8511C31.8949 12.9473 31.9467 13.0758 31.9467 13.2095L32 19.5561Z" fill="#DFA500"/>
<path d="M23.8933 20.2313V11.2002C27.3244 11.2002 26.2578 13.2091 30.8267 13.3335C30.9492 13.3335 31.0668 13.3822 31.1535 13.4689C31.2402 13.5556 31.2889 13.6732 31.2889 13.7958V19.5558C31.2889 19.7691 31.2889 19.9646 31.2889 20.1602L23.8933 20.2313ZM23.8933 20.2313H16.5333C16.9778 24.8002 22.4355 28.4269 23.6444 29.1202H23.8578L23.8933 20.2313Z" fill="url(#paint0_linear_855_10047)"/>
<path d="M16.96 13.3335C21.5289 13.2091 20.5155 11.2002 23.8933 11.2002V20.2313H16.5333C16.5333 20.0358 16.5333 19.8402 16.5333 19.6269V13.7958C16.533 13.6791 16.5768 13.5666 16.6559 13.4809C16.735 13.3951 16.8437 13.3425 16.96 13.3335Z" fill="#FFD400"/>
<path d="M31.2533 20.2314H23.8933V29.2626H24.0889C25.3689 28.4448 30.8089 24.8892 31.2533 20.2314Z" fill="#FFD400"/>
</g>
<defs>
<linearGradient id="paint0_linear_855_10047" x1="23.9111" y1="11.2002" x2="23.9111" y2="29.2624" gradientUnits="userSpaceOnUse">
<stop stop-color="#FFD70F"/>
<stop offset="0.12" stop-color="#FFCC11"/>
<stop offset="0.44" stop-color="#FEB517"/>
<stop offset="0.75" stop-color="#FEA61A"/>
<stop offset="1" stop-color="#FEA11B"/>
</linearGradient>
<clipPath id="clip0_855_10047">
<rect width="32" height="32" fill="white"/>
</clipPath>
</defs>
</svg>
