<svg width="32" height="32" viewBox="0 0 32 32" fill="none" xmlns="http://www.w3.org/2000/svg">
<g clip-path="url(#clip0_855_10057)">
<path d="M29.5776 21.5237L28.1516 22.9537C28.0307 23.0749 27.8667 23.1431 27.6955 23.1434C27.5244 23.1436 27.3601 23.0759 27.239 22.955L16.6872 12.4331C16.4445 12.191 16.3079 11.8625 16.3074 11.5197C16.3069 11.1769 16.4426 10.848 16.6847 10.6053L18.1107 9.17522L29.5776 20.6098C29.6377 20.6697 29.6854 20.7409 29.7179 20.8193C29.7505 20.8977 29.7672 20.9818 29.7672 21.0667C29.7672 21.1516 29.7505 21.2357 29.718 21.3141C29.6854 21.3925 29.6377 21.4637 29.5776 21.5237Z" fill="#83B9F9"/>
<path d="M27.9393 0.188375L29.3694 1.6144C29.4294 1.67424 29.477 1.74531 29.5095 1.82356C29.5421 1.90181 29.5589 1.9857 29.559 2.07045C29.5591 2.15519 29.5426 2.23913 29.5102 2.31748C29.4779 2.39582 29.4305 2.46702 29.3707 2.52703L18.1031 13.8265L16.673 12.4005C16.4303 12.1585 16.2937 11.8299 16.2932 11.4871C16.2927 11.1444 16.4284 10.8154 16.6704 10.5727L27.0241 0.189668C27.145 0.0684739 27.309 0.00025189 27.4802 9.9255e-06C27.6514 -0.00023205 27.8156 0.0675258 27.9368 0.188378L27.9393 0.188375Z" fill="url(#paint0_linear_855_10057)"/>
<path d="M13.8894 18.0322L15.3154 19.4623C15.5575 19.705 15.6932 20.0339 15.6927 20.3767C15.6922 20.7195 15.5556 21.048 15.3128 21.2901L4.76112 31.812C4.70111 31.8718 4.6299 31.9193 4.55156 31.9516C4.47322 31.9839 4.38928 32.0005 4.30454 32.0004C4.21979 32.0003 4.1359 31.9834 4.05765 31.9509C3.9794 31.9184 3.90832 31.8707 3.84848 31.8107L2.42121 30.3794C2.30036 30.2582 2.2326 30.094 2.23284 29.9228C2.23308 29.7517 2.3013 29.5876 2.4225 29.4668L13.8894 18.0322Z" fill="#83B9F9"/>
<path d="M15.3253 21.2558L13.8952 22.6818L2.63017 11.3849C2.57033 11.3248 2.5229 11.2536 2.49058 11.1753C2.45826 11.097 2.44168 11.013 2.4418 10.9283C2.44192 10.8435 2.45873 10.7596 2.49127 10.6814C2.52382 10.6031 2.57145 10.5321 2.63146 10.4722L4.06152 9.04619C4.18271 8.92534 4.34695 8.85758 4.51811 8.85782C4.68926 8.85807 4.85331 8.92629 4.97416 9.04748L15.3279 19.4305C15.4477 19.5507 15.5427 19.6933 15.6074 19.8502C15.6722 20.0071 15.7054 20.1752 15.7051 20.3449C15.7049 20.5147 15.6712 20.6827 15.6061 20.8394C15.5409 20.9961 15.4455 21.1385 15.3253 21.2583L15.3253 21.2558Z" fill="url(#paint1_linear_855_10057)"/>
</g>
<defs>
<linearGradient id="paint0_linear_855_10057" x1="22.9267" y1="-0.959659" x2="22.9267" y2="12.3061" gradientUnits="userSpaceOnUse">
<stop stop-color="#5EA0EF"/>
<stop offset="1" stop-color="#0078D4"/>
</linearGradient>
<linearGradient id="paint1_linear_855_10057" x1="9.07263" y1="8.95064" x2="9.07263" y2="22.2164" gradientUnits="userSpaceOnUse">
<stop stop-color="#5EA0EF"/>
<stop offset="1" stop-color="#0078D4"/>
</linearGradient>
<clipPath id="clip0_855_10057">
<rect width="32" height="32" fill="white"/>
</clipPath>
</defs>
</svg>
