<svg width="32" height="32" viewBox="0 0 32 32" fill="none" xmlns="http://www.w3.org/2000/svg">
<path d="M2.95111 14.311V14.5599C2.95111 15.0705 3.365 15.4844 3.87556 15.4844H11.3778C11.8883 15.4844 12.3022 15.0705 12.3022 14.5599V14.311C12.3022 13.8005 11.8883 13.3866 11.3778 13.3866H3.87556C3.365 13.3866 2.95111 13.8005 2.95111 14.311Z" fill="#B3B3B3"/>
<path d="M0 18.5601L0 18.809C0 19.3195 0.413887 19.7334 0.924444 19.7334H8.42667C8.93722 19.7334 9.35111 19.3195 9.35111 18.809V18.5601C9.35111 18.0495 8.93722 17.6356 8.42667 17.6356H0.924444C0.413887 17.6356 0 18.0495 0 18.5601Z" fill="#A3A3A3"/>
<path d="M2.95111 22.8091V23.058C2.95111 23.5685 3.365 23.9824 3.87555 23.9824H11.3778C11.8883 23.9824 12.3022 23.5685 12.3022 23.058V22.8091C12.3022 22.2985 11.8883 21.8846 11.3778 21.8846H3.87555C3.365 21.8846 2.95111 22.2985 2.95111 22.8091Z" fill="#7A7A7A"/>
<path d="M32 19.5559C31.9721 18.1745 31.4546 16.8479 30.5397 15.8125C29.6248 14.7772 28.3719 14.1003 27.0045 13.9026C26.944 11.9708 26.1243 10.1407 24.7231 8.80947C23.322 7.4782 21.4524 6.7531 19.52 6.79149C17.9656 6.7845 16.4472 7.25938 15.1738 8.15079C13.9003 9.0422 12.9344 10.3063 12.4089 11.7693C10.7633 11.9867 9.2508 12.7888 8.1476 14.0291C7.04441 15.2694 6.42412 16.8651 6.40002 18.5248C6.46498 20.3859 7.2574 22.1473 8.60703 23.4304C9.95666 24.7136 11.7558 25.4161 13.6178 25.387H14.2578H25.9556H26.2578C27.783 25.3458 29.233 24.7155 30.3036 23.6283C31.3742 22.5411 31.9822 21.0816 32 19.5559Z" fill="url(#paint0_linear_855_10059)"/>
<defs>
<linearGradient id="paint0_linear_855_10059" x1="19.1822" y1="3.85816" x2="19.1822" y2="29.4404" gradientUnits="userSpaceOnUse">
<stop offset="0.18" stop-color="#5EA0EF"/>
<stop offset="1" stop-color="#0078D4"/>
</linearGradient>
</defs>
</svg>
