<svg width="32" height="32" viewBox="0 0 32 32" fill="none" xmlns="http://www.w3.org/2000/svg">
<g clip-path="url(#clip0_855_10086)">
<path d="M16 31.1109C24.3457 31.1109 31.1111 24.3454 31.1111 15.9998C31.1111 7.65415 24.3457 0.888672 16 0.888672C7.65439 0.888672 0.888916 7.65415 0.888916 15.9998C0.888916 24.3454 7.65439 31.1109 16 31.1109Z" fill="url(#paint0_radial_855_10086)"/>
<path d="M16 29.1558C23.2656 29.1558 29.1555 23.2659 29.1555 16.0003C29.1555 8.73467 23.2656 2.84473 16 2.84473C8.73436 2.84473 2.84442 8.73467 2.84442 16.0003C2.84442 23.2659 8.73436 29.1558 16 29.1558Z" fill="white"/>
<mask id="mask0_855_10086" style="mask-type:luminance" maskUnits="userSpaceOnUse" x="15" y="8" width="9" height="13">
<path d="M18.8089 14.8263L23.1111 19.4129C23.1786 19.4853 23.2161 19.5806 23.2161 19.6796C23.2161 19.7786 23.1786 19.8739 23.1111 19.9463L22.2755 20.8174C22.2422 20.8552 22.2011 20.8855 22.1552 20.9063C22.1092 20.927 22.0593 20.9378 22.0089 20.9378C21.9584 20.9378 21.9086 20.927 21.8626 20.9063C21.8166 20.8855 21.7756 20.8552 21.7422 20.8174L16 14.8263C15.9553 14.7896 15.9193 14.7434 15.8946 14.6912C15.8699 14.6389 15.8571 14.5818 15.8571 14.524C15.8571 14.4662 15.8699 14.4092 15.8946 14.3569C15.9193 14.3046 15.9553 14.2585 16 14.2218L21.6 8.3196C21.6333 8.28176 21.6744 8.25146 21.7204 8.23071C21.7663 8.20995 21.8162 8.19922 21.8666 8.19922C21.9171 8.19922 21.967 8.20995 22.0129 8.23071C22.0589 8.25146 22.0999 8.28176 22.1333 8.3196L22.9689 9.19071C23.0376 9.26603 23.0757 9.36431 23.0757 9.46626C23.0757 9.56822 23.0376 9.66649 22.9689 9.74182L18.8089 14.2218C18.7642 14.2585 18.7282 14.3046 18.7035 14.3569C18.6788 14.4092 18.666 14.4662 18.666 14.524C18.666 14.5818 18.6788 14.6389 18.7035 14.6912C18.7282 14.7434 18.7642 14.7896 18.8089 14.8263Z" fill="white"/>
</mask>
<g mask="url(#mask0_855_10086)">
<path d="M18.5422 14.5598L23.3956 19.6798L22.0267 21.102L15.8044 14.5598L21.9378 8.10645L23.3067 9.52867L18.5422 14.5598Z" fill="#5E9624"/>
<path d="M23.3955 19.6796L18.5422 14.5596L17.1911 15.9818L22.0267 21.1018L23.3955 19.6796Z" fill="#86D633"/>
</g>
<mask id="mask1_855_10086" style="mask-type:luminance" maskUnits="userSpaceOnUse" x="8" y="11" width="8" height="13">
<path d="M12.64 17.6175L8.31999 22.1863C8.25128 22.2617 8.2132 22.3599 8.2132 22.4619C8.2132 22.5639 8.25128 22.6621 8.31999 22.7375L9.15555 23.6086C9.18891 23.6464 9.22995 23.6767 9.27593 23.6975C9.3219 23.7182 9.37177 23.7289 9.42222 23.7289C9.47266 23.7289 9.52253 23.7182 9.5685 23.6975C9.61448 23.6767 9.65552 23.6464 9.68888 23.6086L15.3778 17.6175C15.4453 17.5451 15.4828 17.4498 15.4828 17.3508C15.4828 17.2518 15.4453 17.1565 15.3778 17.0841L9.77777 11.1819C9.74441 11.1441 9.70337 11.1138 9.65739 11.093C9.61142 11.0723 9.56155 11.0615 9.5111 11.0615C9.46066 11.0615 9.41079 11.0723 9.36482 11.093C9.31884 11.1138 9.2778 11.1441 9.24444 11.1819L8.40888 12.053C8.3414 12.1254 8.30388 12.2207 8.30388 12.3197C8.30388 12.4187 8.3414 12.5139 8.40888 12.5863L12.64 17.0841C12.6778 17.1175 12.7081 17.1585 12.7289 17.2045C12.7496 17.2505 12.7604 17.3003 12.7604 17.3508C12.7604 17.4012 12.7496 17.4511 12.7289 17.4971C12.7081 17.5431 12.6778 17.5841 12.64 17.6175Z" fill="white"/>
</mask>
<g mask="url(#mask1_855_10086)">
<path d="M12.9067 17.3508L8.07111 22.4708L9.42222 23.893L15.6444 17.3508L9.51111 10.8975L8.14222 12.3197L12.9067 17.3508Z" fill="#5E9624"/>
<path d="M8.07111 22.4706L12.9067 17.3506L14.2578 18.7728L9.42222 23.8928L8.07111 22.4706Z" fill="#86D633"/>
</g>
</g>
<defs>
<radialGradient id="paint0_radial_855_10086" cx="0" cy="0" r="1" gradientUnits="userSpaceOnUse" gradientTransform="translate(15.6352 15.6574) scale(15.04)">
<stop offset="0.18" stop-color="#5EA0EF"/>
<stop offset="0.56" stop-color="#5C9FEE"/>
<stop offset="0.69" stop-color="#559CED"/>
<stop offset="0.78" stop-color="#4A97E9"/>
<stop offset="0.86" stop-color="#3990E4"/>
<stop offset="0.93" stop-color="#2387DE"/>
<stop offset="0.99" stop-color="#087BD6"/>
<stop offset="1" stop-color="#0078D4"/>
</radialGradient>
<clipPath id="clip0_855_10086">
<rect width="32" height="32" fill="white"/>
</clipPath>
</defs>
</svg>
