<svg width="32" height="32" viewBox="0 0 32 32" fill="none" xmlns="http://www.w3.org/2000/svg">
<path d="M29.0844 14.9333C29.0844 23.5378 18.6844 30.4711 16.4267 31.8756C16.2982 31.9541 16.1506 31.9957 16 31.9957C15.8494 31.9957 15.7018 31.9541 15.5733 31.8756C13.3156 30.4711 2.91556 23.5378 2.91556 14.9333V4.58667C2.91551 4.37282 2.99922 4.16747 3.14876 4.01461C3.2983 3.86174 3.50177 3.77354 3.71556 3.76889C11.8044 3.55556 9.93778 0 16 0C22.0622 0 20.1956 3.55556 28.2844 3.76889C28.4982 3.77354 28.7017 3.86174 28.8512 4.01461C29.0008 4.16747 29.0845 4.37282 29.0844 4.58667V14.9333Z" fill="#0078D4"/>
<path d="M28 15.0219C28 22.9152 18.4711 29.2441 16.3911 30.5597C16.2728 30.6301 16.1377 30.6673 16 30.6673C15.8623 30.6673 15.7272 30.6301 15.6089 30.5597C13.5289 29.2797 4 22.9152 4 15.0219V5.52856C3.99994 5.33358 4.07617 5.1463 4.21237 5.00678C4.34858 4.86725 4.53396 4.78654 4.72889 4.7819C12.1422 4.58634 10.4356 1.33301 16 1.33301C21.5644 1.33301 19.8578 4.58634 27.2711 4.7819C27.466 4.78654 27.6514 4.86725 27.7876 5.00678C27.9238 5.1463 28.0001 5.33358 28 5.52856V15.0219Z" fill="url(#paint0_linear_855_10067)"/>
<path d="M20.9778 22.2582C20.9778 22.4846 20.8879 22.7016 20.7278 22.8616C20.5678 23.0217 20.3508 23.1116 20.1244 23.1116H11.8756C11.6492 23.1116 11.4322 23.0217 11.2722 22.8616C11.1121 22.7016 11.0222 22.4846 11.0222 22.2582V7.0049C11.0199 6.89135 11.0402 6.77847 11.082 6.67288C11.1238 6.56729 11.1863 6.47111 11.2658 6.38998C11.3453 6.30885 11.4401 6.24439 11.5448 6.2004C11.6495 6.15641 11.762 6.13376 11.8756 6.13379H20.1244C20.238 6.13376 20.3504 6.15641 20.4552 6.2004C20.5599 6.24439 20.6547 6.30885 20.7342 6.38998C20.8137 6.47111 20.8762 6.56729 20.918 6.67288C20.9598 6.77847 20.9801 6.89135 20.9778 7.0049V22.2582Z" fill="#E6E6E6"/>
<path d="M12.4445 8.88893C12.4445 8.60603 12.5568 8.33472 12.7569 8.13469C12.9569 7.93465 13.2282 7.82227 13.5111 7.82227H18.4889C18.629 7.82227 18.7677 7.84986 18.8971 7.90346C19.0265 7.95707 19.1441 8.03564 19.2431 8.13469C19.3422 8.23373 19.4208 8.35132 19.4744 8.48074C19.528 8.61015 19.5556 8.74886 19.5556 8.88893C19.5579 9.0305 19.5321 9.17112 19.4795 9.30259C19.427 9.43406 19.3488 9.55376 19.2495 9.6547C19.1502 9.75564 19.0318 9.8358 18.9012 9.89051C18.7707 9.94523 18.6305 9.9734 18.4889 9.97338H13.5111C13.3695 9.9734 13.2294 9.94523 13.0988 9.89051C12.9682 9.8358 12.8498 9.75564 12.7505 9.6547C12.6512 9.55376 12.573 9.43406 12.5205 9.30259C12.4679 9.17112 12.4421 9.0305 12.4445 8.88893Z" fill="#003067"/>
<path d="M13.5644 9.60036C13.967 9.60036 14.2933 9.27402 14.2933 8.87147C14.2933 8.46891 13.967 8.14258 13.5644 8.14258C13.1619 8.14258 12.8355 8.46891 12.8355 8.87147C12.8355 9.27402 13.1619 9.60036 13.5644 9.60036Z" fill="#50E6FF"/>
<path d="M12.4445 12.2671C12.4444 11.9825 12.5562 11.7093 12.7558 11.5065C12.9553 11.3036 13.2266 11.1873 13.5111 11.1826H18.4889C18.7734 11.1873 19.0447 11.3036 19.2442 11.5065C19.4438 11.7093 19.5556 11.9825 19.5556 12.2671C19.5579 12.4086 19.5321 12.5492 19.4795 12.6807C19.427 12.8122 19.3488 12.9319 19.2495 13.0328C19.1502 13.1338 19.0318 13.2139 18.9012 13.2686C18.7707 13.3234 18.6305 13.3515 18.4889 13.3515H13.5111C13.3695 13.3515 13.2294 13.3234 13.0988 13.2686C12.9682 13.2139 12.8498 13.1338 12.7505 13.0328C12.6512 12.9319 12.573 12.8122 12.5205 12.6807C12.4679 12.5492 12.4421 12.4086 12.4445 12.2671Z" fill="#003067"/>
<path d="M13.5644 12.9959C13.967 12.9959 14.2933 12.6695 14.2933 12.267C14.2933 11.8644 13.967 11.5381 13.5644 11.5381C13.1619 11.5381 12.8355 11.8644 12.8355 12.267C12.8355 12.6695 13.1619 12.9959 13.5644 12.9959Z" fill="#50E6FF"/>
<defs>
<linearGradient id="paint0_linear_855_10067" x1="16" y1="2.41745" x2="16" y2="31.7686" gradientUnits="userSpaceOnUse">
<stop offset="0.18" stop-color="#5EA0EF"/>
<stop offset="1" stop-color="#0078D4"/>
</linearGradient>
</defs>
</svg>
