<svg width="32" height="32" viewBox="0 0 32 32" fill="none" xmlns="http://www.w3.org/2000/svg">
<g clip-path="url(#clip0_855_10079)">
<path d="M29.2338 15.9427C29.2328 19.4268 27.8484 22.7679 25.3848 25.2315C22.9212 27.6951 19.5801 29.0795 16.096 29.0805C15.5254 29.0815 14.9554 29.0458 14.3893 28.9738C12.6147 28.7505 10.9067 28.157 9.37601 27.2316L9.23379 26.1827L9.07379 24.9383L8.96712 24.1738C8.91429 23.8926 8.77065 23.6366 8.55823 23.4449C8.34227 23.2809 8.07468 23.1997 7.80398 23.216C7.53328 23.2323 7.27738 23.345 7.08267 23.5338L6.70934 23.9071L6.12267 24.4938C4.17398 22.2387 3.0571 19.3837 2.95823 16.4049C2.94377 16.2513 2.93783 16.097 2.94045 15.9427C2.94045 12.4536 4.32648 9.10746 6.79363 6.64032C9.26077 4.17317 12.6069 2.78715 16.096 2.78715C18.4414 2.78156 20.7439 3.41588 22.7556 4.62181L22.8978 5.68848L23.0756 6.91515L23.2 7.82181C23.2338 8.06078 23.3392 8.2839 23.5022 8.46181C23.7129 8.66388 23.9926 8.77827 24.2845 8.78181C24.4298 8.78458 24.5741 8.75762 24.7086 8.70259C24.8431 8.64756 24.965 8.56563 25.0667 8.46181L26.08 7.44848C28.1207 9.80721 29.2407 12.8237 29.2338 15.9427Z" fill="url(#paint0_linear_855_10079)"/>
<path d="M25.8027 8.35506C25.7176 8.23461 25.6225 8.12161 25.5182 8.01729L25.0738 8.46173C24.9721 8.56555 24.8502 8.64748 24.7157 8.70251C24.5812 8.75754 24.4369 8.7845 24.2916 8.78173C23.9997 8.77819 23.72 8.6638 23.5094 8.46173C22.8428 8.70155 22.1595 8.8917 21.4649 9.03062L21.2694 9.06618L21.1982 8.87062C20.8725 7.70192 20.4006 6.57899 19.7938 5.5284L19.4916 5.01284L20.0605 5.22618C21.1494 5.62893 22.169 6.19872 23.0827 6.91507L22.9049 5.6884C21.0986 4.48397 19.0087 3.77302 16.8427 3.62618C16.6116 3.62618 16.3449 3.6084 16.096 3.6084C15.8471 3.6084 15.5627 3.62618 15.3494 3.62618C14.8118 3.66111 14.2773 3.73238 13.7494 3.83951C11.0662 4.36534 8.63014 5.75826 6.81602 7.80395C6.6738 7.98173 6.5138 8.15951 6.37158 8.35506C4.66944 10.5184 3.74849 13.1935 3.75824 15.9462C3.75109 16.2074 3.76297 16.4689 3.7938 16.7284C3.93626 19.2083 4.83599 21.5848 6.37158 23.5373C6.47825 23.6617 6.58491 23.7862 6.70936 23.9106L7.08269 23.5373C7.2774 23.3485 7.53329 23.2358 7.804 23.2194C8.0747 23.2031 8.34229 23.2844 8.55825 23.4484C9.26853 23.2087 9.99285 23.0127 10.7271 22.8617L10.9227 22.8084L10.976 23.004C11.3029 24.1723 11.7747 25.2951 12.3805 26.3462L12.7005 26.8795L12.1138 26.6662C11.0165 26.254 9.99065 25.6721 9.0738 24.9417L9.2338 26.1862C10.6012 27.0999 12.1359 27.7343 13.7494 28.0528C13.8738 28.0706 14.016 28.1062 14.1405 28.124C14.5316 28.1773 14.9405 28.2306 15.3494 28.2484C15.5627 28.2662 15.8116 28.284 16.096 28.284C16.3805 28.284 16.6116 28.2662 16.8427 28.2484C17.3796 28.2172 17.914 28.1519 18.4427 28.0528C21.1207 27.5266 23.5509 26.1334 25.3582 24.0884C25.5005 23.9106 25.6605 23.7151 25.8205 23.5373C27.5149 21.3709 28.4293 18.6965 28.416 15.9462C28.4342 13.1921 27.5124 10.5143 25.8027 8.35506ZM14.1049 4.7284L14.1582 4.67507L14.2222 4.65373C14.8342 4.56084 15.4522 4.5133 16.0711 4.51151C16.7019 4.514 17.3316 4.56153 17.9556 4.65373L18.0267 4.67151L18.0622 4.72484C19.1215 5.95969 19.8873 7.4184 20.3022 8.99151L20.3734 9.22262L20.1245 9.25818C18.7888 9.46068 17.4398 9.56171 16.0889 9.5604C14.7321 9.56102 13.3772 9.45999 12.0356 9.25818L11.8045 9.22262L11.8756 8.99151C12.2797 7.41641 13.0427 5.95613 14.1049 4.72484V4.7284ZM10.4249 20.5862H10.4605V20.7817C10.5138 21.1017 10.5849 21.4217 10.656 21.7417L10.6916 21.9551L10.4782 21.9906C9.39258 22.2291 8.32827 22.5561 7.29602 22.9684L7.13602 23.0395L7.02936 22.9151C5.76493 21.2676 4.97221 19.3073 4.73602 17.244C4.68527 16.8133 4.66152 16.3798 4.66491 15.9462C4.66784 13.4268 5.49861 10.9783 7.02936 8.97729L7.13602 8.83506L7.29602 8.90618C8.32611 9.32458 9.39094 9.65176 10.4782 9.88395L10.6916 9.93729L10.656 10.1506C10.2348 12.0535 10.0261 13.9973 10.0338 15.9462C10.028 17.5001 10.1589 19.0516 10.4249 20.5826V20.5862ZM10.7271 9.03062C9.81744 8.84692 8.92525 8.58521 8.06047 8.2484L7.74047 8.14173L7.97158 7.89284C9.14392 6.71572 10.557 5.80604 12.1138 5.22618L12.7005 5.01284L12.3805 5.5284C11.7779 6.58107 11.3062 7.70347 10.976 8.87062L10.9227 9.06618L10.7271 9.03062ZM11.5805 21.7951L11.5271 21.5817C11.1248 19.7305 10.928 17.8406 10.9405 15.9462C10.9281 14.0459 11.1248 12.1501 11.5271 10.2928L11.5805 10.0973L11.776 10.1328C13.2054 10.3548 14.6495 10.4677 16.096 10.4706C17.5425 10.467 18.9866 10.3541 20.416 10.1328L20.6116 10.0973L20.6471 10.2928C21.0644 12.1479 21.2672 14.0448 21.2516 15.9462C21.2672 17.8417 21.0644 19.7327 20.6471 21.5817L20.6116 21.7951L20.416 21.7595C18.9878 21.5281 17.5429 21.4151 16.096 21.4217C14.6491 21.4144 13.2042 21.5274 11.776 21.7595L11.5805 21.7951ZM18.0694 27.164L18.0338 27.2173H17.9556C17.339 27.3235 16.7145 27.377 16.0889 27.3773C15.4631 27.3773 14.8385 27.3226 14.2222 27.2137L14.1511 27.196L14.0978 27.1426C13.7836 26.821 13.5091 26.4629 13.28 26.076C12.7911 25.3023 12.3972 24.4727 12.1067 23.6048C12.0138 23.3732 11.9366 23.1357 11.8756 22.8937L11.8045 22.6448L12.0356 22.6093C13.3777 22.4135 14.7326 22.3185 16.0889 22.3248C17.4393 22.3178 18.7884 22.4129 20.1245 22.6093L20.3734 22.6448L20.3022 22.8937C19.8929 24.4676 19.1292 25.927 18.0694 27.1604V27.164ZM24.2027 23.9817C23.0343 25.1679 21.6205 26.0842 20.0605 26.6662L19.4916 26.8795L19.7938 26.3462C20.4081 25.2993 20.8803 24.1754 21.1982 23.004L21.2694 22.8084L21.4649 22.8617C22.372 23.048 23.2635 23.3036 24.1316 23.6262L24.4338 23.7506L24.2027 23.9817ZM25.1449 22.9151L25.056 23.0395L24.896 22.9684C23.8596 22.5506 22.7889 22.2235 21.696 21.9906L21.4827 21.9551L21.536 21.7417C21.9554 19.8385 22.164 17.895 22.1582 15.9462C22.165 13.9973 21.9563 12.0536 21.536 10.1506L21.4827 9.93729L21.696 9.88395C22.7889 9.6511 23.8596 9.32395 24.896 8.90618L25.0382 8.83506L25.1449 8.97729C26.6903 10.9717 27.5289 13.4231 27.5289 15.9462C27.5289 18.4692 26.6903 20.9207 25.1449 22.9151Z" fill="#5EA0EF"/>
<path d="M17.4951 19.6832C17.0276 19.6832 16.5582 19.6832 16.0907 19.6832C15.6231 19.6832 15.1538 19.6832 14.6845 19.6832C14.6128 19.6841 14.5419 19.668 14.4777 19.6361C14.4135 19.6042 14.3579 19.5575 14.3153 19.4998C14.2727 19.4421 14.2445 19.3751 14.233 19.3044C14.2214 19.2336 14.2269 19.1612 14.2489 19.093C14.3218 18.8334 14.9902 16.6236 15.248 15.7703C14.8761 15.581 14.5787 15.2719 14.4038 14.893C14.229 14.514 14.1868 14.0872 14.2841 13.6813C14.3815 13.2755 14.6127 12.9142 14.9404 12.6558C15.2681 12.3974 15.6733 12.2568 16.0907 12.2568C16.5081 12.2568 16.9133 12.3974 17.241 12.6558C17.5687 12.9142 17.7999 13.2755 17.8972 13.6813C17.9946 14.0872 17.9524 14.514 17.7776 14.893C17.6027 15.2719 17.3053 15.581 16.9334 15.7703C17.1911 16.6236 17.8578 18.8334 17.9325 19.093C17.9541 19.1613 17.9593 19.2338 17.9474 19.3045C17.9356 19.3752 17.9072 19.4422 17.8645 19.4998C17.8219 19.5574 17.7661 19.604 17.7019 19.6359C17.6377 19.6678 17.5668 19.684 17.4951 19.6832Z" fill="#003067"/>
<path d="M32 15.9251C32.0038 18.0264 31.591 20.1076 30.7854 22.0483C29.9798 23.9891 28.7974 25.7509 27.3067 27.2318C27.118 27.4212 26.8629 27.5296 26.5956 27.534C26.4629 27.5335 26.3316 27.5064 26.2095 27.4546C26.0874 27.4027 25.9769 27.3269 25.8844 27.2318C25.6964 27.0429 25.5909 26.7872 25.5909 26.5207C25.5909 26.2541 25.6964 25.9985 25.8844 25.8096C27.1834 24.5125 28.2133 22.9715 28.915 21.2753C29.6167 19.579 29.9764 17.7608 29.9733 15.9251C29.9894 12.3477 28.6122 8.90455 26.1333 6.32511L24.5333 7.92511C24.4866 7.96715 24.4296 7.99605 24.3681 8.00888C24.3065 8.0217 24.2427 8.01798 24.1831 7.99811C24.1235 7.97824 24.0702 7.94291 24.0286 7.89574C23.9871 7.84856 23.9588 7.79122 23.9467 7.72956L23.2 2.32511C23.1914 2.27181 23.1957 2.21724 23.2123 2.16588C23.2289 2.11452 23.2575 2.06783 23.2957 2.02966C23.3338 1.99149 23.3805 1.96291 23.4319 1.94629C23.4832 1.92966 23.5378 1.92545 23.5911 1.934L28.9956 2.66289C29.0607 2.67294 29.1217 2.70088 29.1719 2.7436C29.222 2.78633 29.2593 2.84215 29.2796 2.90484C29.2999 2.96753 29.3024 3.03462 29.2867 3.09863C29.2711 3.16264 29.238 3.22105 29.1911 3.26733L27.5733 4.88511C30.4286 7.84931 32.0165 11.8094 32 15.9251ZM8.19556 24.2807C8.18597 24.2175 8.15955 24.1581 8.11907 24.1087C8.0786 24.0593 8.02556 24.0217 7.96554 23.9999C7.90551 23.9781 7.84072 23.9728 7.77796 23.9847C7.7152 23.9965 7.6568 24.0251 7.60889 24.0673L5.99111 25.6851C3.4219 23.0549 1.99302 19.518 2.01432 15.8413C2.03562 12.1646 3.50538 8.64446 6.10489 6.04422C6.20178 5.951 6.27887 5.83919 6.33152 5.71547C6.38417 5.59175 6.41131 5.45868 6.41131 5.32422C6.41131 5.18977 6.38417 5.05669 6.33152 4.93298C6.27887 4.80926 6.20178 4.69744 6.10489 4.60422C5.91599 4.41619 5.66031 4.31064 5.39378 4.31064C5.12725 4.31064 4.87157 4.41619 4.68267 4.60422C1.70691 7.59053 0.0271938 11.6288 0.00722957 15.8446C-0.0127346 20.0603 1.62866 24.1143 4.576 27.1287L2.95822 28.7464C2.91113 28.7911 2.87776 28.8483 2.86202 28.9113C2.84628 28.9743 2.84882 29.0404 2.86934 29.102C2.88987 29.1636 2.92753 29.218 2.97791 29.259C3.02829 29.2999 3.0893 29.3256 3.15378 29.3331L8.55822 30.0798C8.61265 30.0859 8.66775 30.0794 8.71925 30.0608C8.77074 30.0421 8.81723 30.0118 8.85509 29.9722C8.89295 29.9327 8.92115 29.8849 8.9375 29.8326C8.95385 29.7803 8.9579 29.725 8.94933 29.6709L8.19556 24.2807Z" fill="#50E6FF"/>
</g>
<defs>
<linearGradient id="paint0_linear_855_10079" x1="16.0871" y1="2.12581" x2="16.0871" y2="30.0298" gradientUnits="userSpaceOnUse">
<stop stop-color="#0078D4"/>
<stop offset="1" stop-color="#005BA1"/>
</linearGradient>
<clipPath id="clip0_855_10079">
<rect width="32" height="32" fill="white"/>
</clipPath>
</defs>
</svg>
