<svg width="32" height="32" viewBox="0 0 32 32" fill="none" xmlns="http://www.w3.org/2000/svg">
<g clip-path="url(#clip0_855_10088)">
<path d="M25.2622 27.947C22.0938 30.4035 18.0793 31.5007 14.1018 30.9973C10.1244 30.4938 6.50985 28.431 4.05335 25.2625C1.59686 22.0941 0.49964 18.0796 1.00307 14.1021C1.5065 10.1247 3.56934 6.51013 6.7378 4.05364L6.8978 3.94697C10.0844 1.56832 14.0802 0.54162 18.0188 1.08947C21.9574 1.63732 25.5213 3.71557 27.9378 6.87361C30.3542 10.0316 31.4285 14.0149 30.9277 17.9597C30.4268 21.9046 28.3912 25.493 25.2622 27.947Z" fill="url(#paint0_radial_855_10088)"/>
<path d="M16 2.3291C13.2961 2.3291 10.6529 3.1309 8.40471 4.6331C6.15651 6.1353 4.40425 8.27044 3.36952 10.7685C2.33478 13.2666 2.06405 16.0154 2.59155 18.6673C3.11905 21.3193 4.4211 23.7552 6.33304 25.6671C8.24498 27.5791 10.6809 28.8811 13.3329 29.4086C15.9848 29.9361 18.7336 29.6654 21.2317 28.6307C23.7298 27.5959 25.8649 25.8437 27.3671 23.5955C28.8693 21.3473 29.6711 18.7041 29.6711 16.0002C29.6664 12.3759 28.2245 8.90128 25.6617 6.33847C23.0989 3.77566 19.6243 2.33381 16 2.3291ZM25.1555 6.93355C23.9635 7.60422 22.6738 8.0841 21.3333 8.35577C20.8694 6.64159 20.118 5.01855 19.1111 3.55577C21.398 4.105 23.4893 5.27369 25.1555 6.93355ZM16 3.09355C16.6492 3.09309 17.2974 3.14661 17.9378 3.25355C19.238 4.80146 20.1683 6.62546 20.6578 8.58688C17.4548 9.17374 14.1718 9.17374 10.9689 8.58688C11.457 6.66412 12.3749 4.87708 13.6533 3.36021C14.4259 3.20057 15.2113 3.11132 16 3.09355ZM12.4444 3.55577C11.4253 5.00335 10.6617 6.6148 10.1866 8.32021C8.98584 8.07644 7.84059 7.61231 6.80886 6.95132C8.36701 5.35731 10.307 4.18841 12.4444 3.55577ZM6.61331 24.8891C7.57567 24.2472 8.64857 23.7891 9.77775 23.538C10.2186 25.3045 11.0374 26.9542 12.1778 28.3735C10.0533 27.7119 8.13625 26.5114 6.61331 24.8891ZM18.0089 28.8002C17.3432 28.8893 16.6714 28.925 16 28.9069C15.1396 28.9089 14.2815 28.8196 13.44 28.6402C11.9519 27.1896 10.9201 25.3359 10.4711 23.3069C13.9201 22.6043 17.4754 22.6043 20.9244 23.3069C20.4655 25.34 19.421 27.1942 17.92 28.6402L18.0089 28.8002ZM19.3066 28.5158C20.4821 27.0581 21.3199 25.3581 21.76 23.538C23.0175 23.8332 24.2185 24.3316 25.3155 25.0135C23.6695 26.6924 21.5891 27.8804 19.3066 28.4447V28.5158ZM21.9378 22.7913C22.08 22.1513 22.2044 21.4935 22.2933 20.8002L21.4755 20.9958C21.3866 21.5469 21.2978 22.098 21.1733 22.6135C17.6012 21.8846 13.9187 21.8846 10.3466 22.6135C10.2222 22.1335 10.1333 21.618 10.0444 21.0847C10.0358 21.0317 10.0358 20.9776 10.0444 20.9247L9.22664 20.6935C9.21679 20.8593 9.21679 21.0255 9.22664 21.1913C9.22664 21.7602 9.4222 22.2935 9.52886 22.8091C8.26034 23.0883 7.05471 23.6007 5.97331 24.3202C4.01197 21.9671 2.95416 18.9917 2.99001 15.9286C3.02585 12.8655 4.15299 9.91563 6.16886 7.6091C7.29951 8.33691 8.55215 8.85483 9.86664 9.13799C9.7422 9.56466 9.63553 10.0269 9.54664 10.4891C9.45775 10.9513 9.54664 10.9335 9.40442 11.1469L10.24 10.9513V10.6491C10.3466 10.1869 10.4533 9.74243 10.5778 9.31577C12.3657 9.64379 14.1827 9.78677 16 9.74243C17.6582 9.74236 19.3127 9.58761 20.9422 9.28021C21.0666 9.76021 21.1911 10.2758 21.2978 10.7913L22.1155 10.9869C21.9852 10.3469 21.8429 9.75429 21.6889 9.2091C23.1298 8.89282 24.5105 8.34656 25.7778 7.59132C27.8308 9.916 28.9728 12.9055 28.9924 16.0069C29.012 19.1083 27.908 22.112 25.8844 24.4624C24.6744 23.6712 23.3404 23.0883 21.9378 22.738V22.7913Z" fill="#5EA0EF"/>
<path d="M6.56001 12.4441C7.24301 12.3462 7.93227 12.2987 8.62224 12.3019C9.71602 12.2145 10.8023 12.5448 11.6622 13.2263C12.0036 13.5655 12.2726 13.9704 12.4529 14.4165C12.6332 14.8627 12.721 15.3408 12.7111 15.8219C12.7384 16.3561 12.6562 16.8902 12.4697 17.3916C12.2833 17.8929 11.9964 18.3509 11.6267 18.7374C10.7078 19.5159 9.52142 19.905 8.32001 19.8219C7.72624 19.8247 7.13277 19.795 6.54224 19.733L6.56001 12.4441ZM7.53779 19.0752C7.86333 19.0977 8.19003 19.0977 8.51557 19.0752C8.94848 19.1243 9.38688 19.0745 9.79776 18.9296C10.2086 18.7847 10.5813 18.5484 10.8876 18.2387C11.194 17.9289 11.4261 17.5536 11.5664 17.1412C11.7067 16.7287 11.7517 16.2898 11.6978 15.8574C11.7342 15.4561 11.6792 15.0516 11.5369 14.6746C11.3946 14.2975 11.1686 13.9576 10.876 13.6804C10.5835 13.4032 10.2318 13.196 9.84764 13.0742C9.46343 12.9524 9.05662 12.9194 8.65779 12.9774C8.28538 12.9403 7.9102 12.9403 7.53779 12.9774V19.0752Z" fill="white"/>
<path d="M13.9733 19.751V12.2666H15.0222L17.4222 15.9999C17.9244 16.782 18.3757 17.5955 18.7733 18.4355C18.6844 17.4399 18.6667 16.5333 18.6667 15.3599V12.2666H19.5555V19.751H18.5778L16.2311 15.9999C15.7155 15.1644 15.2178 14.2222 14.8267 13.511C14.8267 14.4533 14.8267 15.2888 14.8267 16.6044V19.8044L13.9733 19.751Z" fill="white"/>
<path d="M21.1378 18.5775C21.6779 18.8908 22.2911 19.0564 22.9155 19.0575C23.9111 19.0575 24.48 18.5419 24.48 17.7775C24.48 17.013 24.0889 16.6752 23.0755 16.3019C22.0622 15.9286 21.0844 15.2352 21.0844 14.1686C21.1016 13.872 21.1795 13.5821 21.3133 13.3169C21.4472 13.0516 21.6341 12.8167 21.8624 12.6267C22.0908 12.4367 22.3557 12.2956 22.6409 12.2122C22.926 12.1288 23.2252 12.1049 23.52 12.1419C24.0917 12.1257 24.6588 12.2477 25.1733 12.4975L24.8889 13.2975C24.4531 13.059 23.9634 12.9366 23.4667 12.9419C22.4355 12.9419 22.0444 13.5464 22.0444 14.0619C22.0444 14.5775 22.5067 15.1108 23.5378 15.5019C24.5689 15.893 25.4578 16.6041 25.4578 17.7064C25.4578 18.8086 24.6044 19.8575 22.8267 19.8575C22.1617 19.8649 21.5063 19.6995 20.9244 19.3775L21.1378 18.5775Z" fill="white"/>
</g>
<defs>
<radialGradient id="paint0_radial_855_10088" cx="0" cy="0" r="1" gradientUnits="userSpaceOnUse" gradientTransform="translate(16.3734 16.3648) scale(15.1111)">
<stop offset="0.18" stop-color="#5EA0EF"/>
<stop offset="1" stop-color="#0078D4"/>
</radialGradient>
<clipPath id="clip0_855_10088">
<rect width="32" height="32" fill="white"/>
</clipPath>
</defs>
</svg>
