<svg width="32" height="32" viewBox="0 0 32 32" fill="none" xmlns="http://www.w3.org/2000/svg">
<g clip-path="url(#clip0_855_10087)">
<path d="M15.9372 9.50414L12.8888 7.74414L4.44435 22.3703L7.49276 24.1303L15.9372 9.50414Z" fill="#A67AF4"/>
<path d="M19.0007 8.01734L15.9523 9.77734L24.3967 24.4036L27.4451 22.6436L19.0007 8.01734Z" fill="#A67AF4"/>
<path d="M24.2489 27.9106V24.3906H7.36001V27.9106H24.2489Z" fill="#773ADC"/>
<path d="M16.1245 9.86674C18.4907 9.86674 20.4089 7.94853 20.4089 5.5823C20.4089 3.21606 18.4907 1.29785 16.1245 1.29785C13.7582 1.29785 11.84 3.21606 11.84 5.5823C11.84 7.94853 13.7582 9.86674 16.1245 9.86674Z" fill="url(#paint0_linear_855_10087)"/>
<path d="M27.7155 30.7027C30.0818 30.7027 32 28.7845 32 26.4182C32 24.052 30.0818 22.1338 27.7155 22.1338C25.3493 22.1338 23.4311 24.052 23.4311 26.4182C23.4311 28.7845 25.3493 30.7027 27.7155 30.7027Z" fill="url(#paint1_linear_855_10087)"/>
<path d="M4.28444 30.7027C6.65068 30.7027 8.56889 28.7845 8.56889 26.4182C8.56889 24.052 6.65068 22.1338 4.28444 22.1338C1.91821 22.1338 0 24.052 0 26.4182C0 28.7845 1.91821 30.7027 4.28444 30.7027Z" fill="url(#paint2_linear_855_10087)"/>
</g>
<defs>
<linearGradient id="paint0_linear_855_10087" x1="13.0914" y1="2.54684" x2="19.1621" y2="8.60059" gradientUnits="userSpaceOnUse">
<stop stop-color="#86D633"/>
<stop offset="1" stop-color="#5E9624"/>
</linearGradient>
<linearGradient id="paint1_linear_855_10087" x1="21.0489" y1="25.8493" x2="27.0933" y2="31.9116" gradientUnits="userSpaceOnUse">
<stop stop-color="#86D633"/>
<stop offset="1" stop-color="#5E9624"/>
</linearGradient>
<linearGradient id="paint2_linear_855_10087" x1="-2.38222" y1="25.8316" x2="3.66222" y2="31.876" gradientUnits="userSpaceOnUse">
<stop stop-color="#86D633"/>
<stop offset="1" stop-color="#5E9624"/>
</linearGradient>
<clipPath id="clip0_855_10087">
<rect width="32" height="32" fill="white"/>
</clipPath>
</defs>
</svg>
