<svg width="32" height="32" viewBox="0 0 32 32" fill="none" xmlns="http://www.w3.org/2000/svg">
<path d="M32 18.0268C31.9442 16.3227 31.287 14.6935 30.1448 13.4277C29.0027 12.1619 27.4493 11.3412 25.76 11.1112C25.6537 8.7313 24.6149 6.48887 22.8684 4.86874C21.1219 3.24861 18.8078 2.38098 16.4267 2.45342C14.4994 2.41783 12.6088 2.98211 11.0163 4.06818C9.42379 5.15425 8.20823 6.70842 7.53778 8.51564C5.5023 8.76142 3.62241 9.72888 2.23936 11.2424C0.85631 12.7559 0.0617807 14.7152 0 16.7645C0.0879773 19.0691 1.08622 21.2447 2.77584 22.8143C4.46546 24.384 6.70857 25.2196 9.01333 25.1379H9.79556H24.3911C24.5213 25.1477 24.652 25.1477 24.7822 25.1379C26.6726 25.12 28.4821 24.3683 29.8288 23.0415C31.1755 21.7148 31.954 19.9167 32 18.0268Z" fill="url(#paint0_linear_855_10078)"/>
<path d="M25.4045 19.893C25.3998 19.698 25.3191 19.5126 25.1796 19.3764C25.0401 19.2402 24.8528 19.164 24.6578 19.1641H7.34225C7.14726 19.164 6.95999 19.2402 6.82046 19.3764C6.68093 19.5126 6.60022 19.698 6.59558 19.893V28.7818C6.60022 28.9768 6.68093 29.1622 6.82046 29.2984C6.95999 29.4346 7.14726 29.5108 7.34225 29.5107H24.6578C24.8528 29.5108 25.0401 29.4346 25.1796 29.2984C25.3191 29.1622 25.3998 28.9768 25.4045 28.7818V19.893Z" fill="#821010"/>
<path d="M12.7467 20.1953H7.64447V22.4531H12.7467V20.1953Z" fill="#E62323"/>
<path d="M18.6133 20.1953H13.5111V22.4531H18.6133V20.1953Z" fill="#FF7381"/>
<path d="M24.48 20.1953H19.3778V22.4531H24.48V20.1953Z" fill="#E62323"/>
<path d="M9.76003 23.2178H7.64447V25.4756H9.76003V23.2178Z" fill="#E62323"/>
<path d="M24.48 23.2178H22.3644V25.4756H24.48V23.2178Z" fill="#FF7381"/>
<path d="M15.6266 23.2178H10.5244V25.4756H15.6266V23.2178Z" fill="#FF7381"/>
<path d="M21.5111 23.2178H16.4089V25.4756H21.5111V23.2178Z" fill="#E62323"/>
<path d="M12.7467 26.2402H7.64447V28.498H12.7467V26.2402Z" fill="#E62323"/>
<path d="M18.6133 26.2402H13.5111V28.498H18.6133V26.2402Z" fill="#FF7381"/>
<path d="M24.48 26.2402H19.3778V28.498H24.48V26.2402Z" fill="#E62323"/>
<defs>
<linearGradient id="paint0_linear_855_10078" x1="16" y1="25.1379" x2="16" y2="2.45342" gradientUnits="userSpaceOnUse">
<stop stop-color="#0078D4"/>
<stop offset="0.82" stop-color="#5EA0EF"/>
</linearGradient>
</defs>
</svg>
