<svg width="32" height="32" viewBox="0 0 32 32" fill="none" xmlns="http://www.w3.org/2000/svg">
<path d="M32 17.4758C31.9407 15.7839 31.2797 14.1686 30.1358 12.9205C28.992 11.6724 27.4404 10.8733 25.76 10.667C25.6811 8.26823 24.6543 5.99866 22.9047 4.35574C21.1552 2.71283 18.8256 1.83062 16.4267 1.90251C14.4994 1.86692 12.6088 2.4312 11.0163 3.51727C9.42379 4.60335 8.20823 6.15751 7.53778 7.96473C5.50373 8.21401 3.62591 9.18253 2.24353 10.6953C0.861158 12.2081 0.0653946 14.1654 0 16.2136C0.0879773 18.5182 1.08622 20.6938 2.77584 22.2634C4.46546 23.8331 6.70857 24.6686 9.01333 24.587H9.79556H24.3911C24.5208 24.6054 24.6525 24.6054 24.7822 24.587C26.674 24.5735 28.486 23.8233 29.8337 22.4956C31.1813 21.1679 31.9584 19.3672 32 17.4758Z" fill="url(#paint0_linear_855_10071)"/>
<path d="M11.7867 12.124H20.7822V24.5685H11.7867V12.124Z" fill="#F2F2F2"/>
<path d="M22.4178 11.3247L16.2133 7.76911C16.1048 7.73445 15.9871 7.7428 15.8845 7.79242C15.782 7.84205 15.7024 7.92916 15.6622 8.03578C15.6622 8.03578 15.6622 8.14245 15.6622 8.178V29.6536C15.6621 29.7684 15.7065 29.8788 15.7861 29.9617C15.8656 30.0446 15.9741 30.0934 16.0889 30.098H16.2311L22.4356 26.4358C22.5217 26.4067 22.5969 26.3519 22.6509 26.2788C22.705 26.2057 22.7353 26.1178 22.7378 26.0269V11.8047C22.7468 11.7002 22.72 11.5958 22.6619 11.5086C22.6037 11.4214 22.5176 11.3565 22.4178 11.3247Z" fill="#50E6FF"/>
<defs>
<linearGradient id="paint0_linear_855_10071" x1="16" y1="24.587" x2="16" y2="1.90251" gradientUnits="userSpaceOnUse">
<stop stop-color="#0078D4"/>
<stop offset="0.82" stop-color="#5EA0EF"/>
</linearGradient>
</defs>
</svg>
