<svg width="32" height="32" viewBox="0 0 32 32" fill="none" xmlns="http://www.w3.org/2000/svg">
<path d="M0.888885 7.87402H17.8631V17.3442C17.8631 17.4956 17.803 17.6407 17.696 17.7478C17.5889 17.8548 17.4438 17.9149 17.2924 17.9149H1.45955C1.3082 17.9149 1.16305 17.8548 1.05603 17.7478C0.949009 17.6407 0.888885 17.4956 0.888885 17.3442V7.87402Z" fill="#83B9F9"/>
<path d="M1.45955 4.24707H17.2924C17.4438 4.24707 17.5889 4.30719 17.696 4.41421C17.803 4.52124 17.8631 4.66639 17.8631 4.81774V7.87374H0.888885V4.81774C0.888885 4.66639 0.949009 4.52124 1.05603 4.41421C1.16305 4.30719 1.3082 4.24707 1.45955 4.24707Z" fill="#1F56A3"/>
<path d="M15.2924 5.33887H3.45776C3.29969 5.33887 3.17154 5.46701 3.17154 5.62509V6.51398C3.17154 6.67205 3.29969 6.8002 3.45776 6.8002H15.2924C15.4505 6.8002 15.5786 6.67205 15.5786 6.51398V5.62509C15.5786 5.46701 15.4505 5.33887 15.2924 5.33887Z" fill="#F2F2F2"/>
<path d="M7.504 12.7764H24.496V22.2448C24.496 22.3962 24.4359 22.5413 24.3289 22.6483C24.2218 22.7554 24.0767 22.8155 23.9253 22.8155H8.07466C7.92331 22.8155 7.77816 22.7554 7.67114 22.6483C7.56412 22.5413 7.504 22.3962 7.504 22.2448V12.7764Z" fill="#83B9F9"/>
<path d="M8.07468 9.16602H23.9076C24.0589 9.16602 24.2041 9.22614 24.3111 9.33316C24.4181 9.44018 24.4782 9.58533 24.4782 9.73668V12.7767H7.52179V9.73668C7.52172 9.58836 7.57939 9.44584 7.6826 9.33932C7.78581 9.23279 7.92643 9.17064 8.07468 9.16602Z" fill="#1F56A3"/>
<path d="M21.9093 10.2578H10.0747C9.9166 10.2578 9.78845 10.386 9.78845 10.544V11.4329C9.78845 11.591 9.9166 11.7191 10.0747 11.7191H21.9093C22.0674 11.7191 22.1956 11.591 22.1956 11.4329V10.544C22.1956 10.386 22.0674 10.2578 21.9093 10.2578Z" fill="#F2F2F2"/>
<path d="M14.1369 17.7119H31.1111V27.1821C31.1111 27.3335 31.051 27.4786 30.9439 27.5857C30.8369 27.6927 30.6918 27.7528 30.5404 27.7528H14.7075C14.5562 27.7528 14.411 27.6927 14.304 27.5857C14.197 27.4786 14.1369 27.3335 14.1369 27.1821V17.7119Z" fill="url(#paint0_linear_855_10072)"/>
<path d="M14.7075 14.085H30.5404C30.6154 14.085 30.6896 14.0997 30.7588 14.1284C30.828 14.1571 30.891 14.1991 30.9439 14.2521C30.9969 14.3051 31.039 14.368 31.0677 14.4372C31.0963 14.5065 31.1111 14.5807 31.1111 14.6556V17.7116H14.1369V14.6556C14.1369 14.5043 14.197 14.3591 14.304 14.2521C14.411 14.1451 14.5562 14.085 14.7075 14.085Z" fill="#0078D4"/>
<path d="M26.4426 23.4874C27.2026 23.4874 27.8186 22.8713 27.8186 22.1114C27.8186 21.3514 27.2026 20.7354 26.4426 20.7354C25.6827 20.7354 25.0667 21.3514 25.0667 22.1114C25.0667 22.8713 25.6827 23.4874 26.4426 23.4874Z" fill="#0078D4"/>
<path d="M22.6827 23.4874C23.4426 23.4874 24.0587 22.8713 24.0587 22.1114C24.0587 21.3514 23.4426 20.7354 22.6827 20.7354C21.9227 20.7354 21.3067 21.3514 21.3067 22.1114C21.3067 22.8713 21.9227 23.4874 22.6827 23.4874Z" fill="#0078D4"/>
<path d="M18.8035 23.4874C19.5635 23.4874 20.1796 22.8713 20.1796 22.1114C20.1796 21.3514 19.5635 20.7354 18.8035 20.7354C18.0436 20.7354 17.4276 21.3514 17.4276 22.1114C17.4276 22.8713 18.0436 23.4874 18.8035 23.4874Z" fill="#0078D4"/>
<path d="M28.5404 15.1768H16.7057C16.5477 15.1768 16.4195 15.3049 16.4195 15.463V16.3519C16.4195 16.5099 16.5477 16.6381 16.7057 16.6381H28.5404C28.6985 16.6381 28.8266 16.5099 28.8266 16.3519V15.463C28.8266 15.3049 28.6985 15.1768 28.5404 15.1768Z" fill="#F2F2F2"/>
<defs>
<linearGradient id="paint0_linear_855_10072" x1="22.624" y1="27.7368" x2="22.624" y2="17.7119" gradientUnits="userSpaceOnUse">
<stop stop-color="#32BEDD"/>
<stop offset="0.18" stop-color="#32CAEA"/>
<stop offset="0.41" stop-color="#32D2F2"/>
<stop offset="0.78" stop-color="#32D4F5"/>
</linearGradient>
</defs>
</svg>
