<svg width="32" height="32" viewBox="0 0 32 32" fill="none" xmlns="http://www.w3.org/2000/svg">
<g clip-path="url(#clip0_855_10055)">
<path d="M0.32001 15.2354L15.2356 0.319827C15.335 0.217687 15.4538 0.136502 15.5851 0.0810666C15.7164 0.0256314 15.8575 -0.00292969 16 -0.00292969C16.1425 -0.00292969 16.2836 0.0256314 16.4149 0.0810666C16.5462 0.136502 16.6651 0.217687 16.7645 0.319827L31.68 15.2354C31.7821 15.3348 31.8633 15.4536 31.9188 15.5849C31.9742 15.7162 32.0028 15.8573 32.0028 15.9998C32.0028 16.1423 31.9742 16.2834 31.9188 16.4147C31.8633 16.546 31.7821 16.6649 31.68 16.7643L16.7467 31.6976C16.5473 31.893 16.2792 32.0025 16 32.0025C15.7208 32.0025 15.4527 31.893 15.2533 31.6976L0.32001 16.7643C0.21787 16.6649 0.136685 16.546 0.0812497 16.4147C0.0258145 16.2834 -0.00274658 16.1423 -0.00274658 15.9998C-0.00274658 15.8573 0.0258145 15.7162 0.0812497 15.5849C0.136685 15.4536 0.21787 15.3348 0.32001 15.2354Z" fill="url(#paint0_linear_855_10055)"/>
<path d="M19.9111 7.1111L16.1422 3.35999C16.1031 3.325 16.0525 3.30566 16 3.30566C15.9475 3.30566 15.8969 3.325 15.8578 3.35999L12.0889 7.1111C12.0542 7.13444 12.0289 7.16926 12.0173 7.20944C12.0057 7.24962 12.0087 7.29259 12.0257 7.3308C12.0427 7.369 12.0726 7.4 12.1102 7.41834C12.1477 7.43669 12.1906 7.44121 12.2311 7.4311H14.4356C14.4613 7.4311 14.4867 7.43616 14.5104 7.44598C14.5341 7.45581 14.5557 7.47022 14.5738 7.48838C14.592 7.50654 14.6064 7.52809 14.6162 7.55182C14.6261 7.57554 14.6311 7.60097 14.6311 7.62665V11.1822C14.6311 11.2341 14.6517 11.2838 14.6884 11.3205C14.7251 11.3572 14.7748 11.3778 14.8267 11.3778H17.1733C17.2252 11.3778 17.275 11.3572 17.3116 11.3205C17.3483 11.2838 17.3689 11.2341 17.3689 11.1822V7.62665C17.3689 7.60097 17.374 7.57554 17.3838 7.55182C17.3936 7.52809 17.408 7.50654 17.4262 7.48838C17.4443 7.47022 17.4659 7.45581 17.4896 7.44598C17.5134 7.43616 17.5388 7.4311 17.5645 7.4311H19.7689C19.8095 7.44121 19.8523 7.43669 19.8899 7.41834C19.9275 7.4 19.9574 7.369 19.9743 7.3308C19.9913 7.29259 19.9943 7.24962 19.9827 7.20944C19.9712 7.16926 19.9458 7.13444 19.9111 7.1111Z" fill="#B4EC36"/>
<path d="M7.11109 11.7512L3.37776 15.5379C3.34402 15.5741 3.32526 15.6217 3.32526 15.6712C3.32526 15.7207 3.34402 15.7684 3.37776 15.8046L7.11109 19.5557C7.13843 19.5847 7.17398 19.6047 7.213 19.613C7.25201 19.6212 7.29262 19.6173 7.32937 19.6019C7.36613 19.5864 7.39727 19.5601 7.41863 19.5264C7.43999 19.4927 7.45054 19.4533 7.44887 19.4135V17.2268C7.44887 17.1749 7.46947 17.1252 7.50615 17.0885C7.54282 17.0518 7.59256 17.0312 7.64443 17.0312H11.2C11.2249 17.0314 11.2496 17.0262 11.2724 17.0162C11.2952 17.0062 11.3157 16.9915 11.3324 16.973C11.3492 16.9546 11.3619 16.9328 11.3697 16.9092C11.3775 16.8855 11.3802 16.8605 11.3778 16.8357V14.489C11.3926 14.4641 11.4012 14.4359 11.4027 14.4069C11.4041 14.3779 11.3985 14.349 11.3862 14.3227C11.3739 14.2964 11.3554 14.2735 11.3322 14.256C11.3091 14.2385 11.282 14.2269 11.2533 14.2223H7.69776C7.67296 14.2248 7.64792 14.2221 7.62426 14.2143C7.60059 14.2065 7.57883 14.1938 7.56039 14.177C7.54195 14.1602 7.52724 14.1398 7.51722 14.117C7.50719 14.0942 7.50208 14.0695 7.5022 14.0446V11.8935C7.52106 11.8416 7.51855 11.7844 7.49521 11.7343C7.47187 11.6843 7.42962 11.6456 7.37776 11.6268C7.32589 11.6079 7.26866 11.6104 7.21865 11.6338C7.16864 11.6571 7.12995 11.6994 7.11109 11.7512Z" fill="#B4EC36"/>
<path d="M25.0311 19.5554L28.8178 15.7865C28.8515 15.7503 28.8703 15.7026 28.8703 15.6531C28.8703 15.6036 28.8515 15.556 28.8178 15.5198L25.0311 11.7509C25.0031 11.7277 24.9691 11.7128 24.9331 11.7079C24.897 11.7029 24.8603 11.7081 24.827 11.7229C24.7938 11.7377 24.7653 11.7614 24.7448 11.7915C24.7244 11.8216 24.7127 11.8568 24.7111 11.8931V14.1154C24.7112 14.1403 24.7061 14.1649 24.6961 14.1878C24.6861 14.2106 24.6713 14.231 24.6529 14.2478C24.6345 14.2646 24.6127 14.2773 24.589 14.2851C24.5654 14.2929 24.5403 14.2956 24.5155 14.2931H20.96C20.9351 14.293 20.9104 14.2981 20.8876 14.3082C20.8648 14.3182 20.8443 14.3329 20.8275 14.3513C20.8108 14.3698 20.7981 14.3915 20.7903 14.4152C20.7825 14.4389 20.7797 14.4639 20.7822 14.4887V16.8354C20.7797 16.8602 20.7825 16.8852 20.7903 16.9089C20.7981 16.9325 20.8108 16.9543 20.8275 16.9727C20.8443 16.9912 20.8648 17.0059 20.8876 17.0159C20.9104 17.0259 20.9351 17.031 20.96 17.0309H24.5155C24.5674 17.0309 24.6171 17.0515 24.6538 17.0882C24.6905 17.1249 24.7111 17.1746 24.7111 17.2265V19.4309C24.7156 19.4658 24.7294 19.4987 24.7511 19.5264C24.7727 19.5541 24.8014 19.5754 24.8342 19.5881C24.8669 19.6008 24.9025 19.6045 24.9371 19.5988C24.9718 19.593 25.0042 19.578 25.0311 19.5554Z" fill="#B4EC36"/>
<path d="M20.96 15.9995C20.9657 15.0747 20.7128 14.1666 20.2297 13.3779C19.7465 12.5893 19.0525 11.9514 18.226 11.5363C17.3995 11.1212 16.4734 10.9455 15.5523 11.029C14.6312 11.1126 13.7518 11.4519 13.0134 12.0089C12.275 12.5658 11.707 13.3181 11.3736 14.1808C11.0402 15.0435 10.9546 15.9822 11.1266 16.891C11.2985 17.7997 11.7212 18.6423 12.3467 19.3235C12.9723 20.0048 13.7758 20.4976 14.6667 20.7462V22.4351C14.0614 22.7479 13.5787 23.2549 13.2961 23.8749C13.0134 24.4949 12.9473 25.1919 13.1083 25.8539C13.2692 26.516 13.6479 27.1048 14.1836 27.5259C14.7193 27.9469 15.3809 28.1758 16.0622 28.1758C16.7436 28.1758 17.4052 27.9469 17.9409 27.5259C18.4765 27.1048 18.8552 26.516 19.0162 25.8539C19.1771 25.1919 19.111 24.4949 18.8284 23.8749C18.5458 23.2549 18.0631 22.7479 17.4578 22.4351V20.6573C18.4612 20.3547 19.342 19.7398 19.9718 18.9021C20.6017 18.0644 20.9479 17.0475 20.96 15.9995Z" fill="white"/>
<path d="M16.0178 18.8625C17.6083 18.8625 18.8978 17.5731 18.8978 15.9825C18.8978 14.392 17.6083 13.1025 16.0178 13.1025C14.4272 13.1025 13.1378 14.392 13.1378 15.9825C13.1378 17.5731 14.4272 18.8625 16.0178 18.8625Z" fill="#5EA0EF"/>
</g>
<defs>
<linearGradient id="paint0_linear_855_10055" x1="16" y1="35.2887" x2="16" y2="-1.81351" gradientUnits="userSpaceOnUse">
<stop stop-color="#5E9624"/>
<stop offset="0.02" stop-color="#5F9724"/>
<stop offset="1" stop-color="#76BC2D"/>
</linearGradient>
<clipPath id="clip0_855_10055">
<rect width="32" height="32" fill="white"/>
</clipPath>
</defs>
</svg>
