<svg width="32" height="32" viewBox="0 0 32 32" fill="none" xmlns="http://www.w3.org/2000/svg">
<g clip-path="url(#clip0_855_10052)">
<path d="M10.5369 25.7277H6.61512C6.55901 25.7277 6.5052 25.7499 6.46553 25.7896C6.42585 25.8293 6.40356 25.8831 6.40356 25.9392V31.8734C6.40356 31.9017 6.4148 31.9289 6.43481 31.9489C6.45481 31.9689 6.48194 31.9801 6.51023 31.9801C6.53404 31.9795 6.55704 31.9714 6.57601 31.957L8.51201 30.4405C8.52435 30.4305 8.53903 30.4238 8.55468 30.421L10.7556 28.7054V25.9392C10.7556 25.9108 10.7499 25.8827 10.7388 25.8566C10.7277 25.8304 10.7115 25.8068 10.6911 25.7871C10.6707 25.7673 10.6465 25.7519 10.62 25.7417C10.5935 25.7315 10.5653 25.7267 10.5369 25.7277Z" fill="url(#paint0_linear_855_10052)"/>
<path d="M8.54755 30.4158L10.7484 28.7002V31.9002C10.7471 31.9271 10.7354 31.9524 10.7159 31.9709C10.6964 31.9895 10.6705 31.9998 10.6435 31.9998C10.6199 31.9998 10.5969 31.9923 10.5778 31.9784L8.54755 30.4158Z" fill="#76BC2D"/>
<path d="M3.32624 2.90166L5.4969 0.373657C5.59584 0.256522 5.71918 0.162419 5.85828 0.0979325C5.99739 0.0334458 6.14891 0.000132772 6.30224 0.000324075H27.1165C27.3063 -0.0185923 27.4979 6.29625e-05 27.6805 0.0552246C27.8631 0.110386 28.0331 0.200974 28.1807 0.321815C28.3282 0.442656 28.4506 0.591384 28.5407 0.759506C28.6308 0.927628 28.6869 1.11185 28.7058 1.30166C28.7106 1.36082 28.7106 1.42027 28.7058 1.47944V25.4012C28.7054 25.5476 28.6734 25.6921 28.6121 25.8249C28.5507 25.9578 28.4614 26.0758 28.3502 26.171L26.0196 28.3043H4.74312L3.29068 27.7141L3.32624 2.90166Z" fill="#0078D4"/>
<path d="M5.08267 2.89291L6.40889 1.37647C6.4865 1.2834 6.58207 1.20694 6.68989 1.15165C6.79772 1.09636 6.91559 1.06338 7.03645 1.05469H26.5618C26.8087 1.05516 27.0454 1.15345 27.22 1.32805C27.3946 1.50265 27.4929 1.73932 27.4933 1.98624V24.5996C27.4953 24.7312 27.4691 24.8617 27.4167 24.9825C27.3643 25.1033 27.2868 25.2115 27.1893 25.3L25.1093 27.1827L5.08267 2.89291Z" fill="white"/>
<path d="M24.9653 2.86426H3.4471C3.41834 2.86426 3.39075 2.87568 3.37042 2.89602C3.35008 2.91636 3.33865 2.94394 3.33865 2.9727V27.7763C3.3442 27.9583 3.42044 28.131 3.5512 28.2578C3.68196 28.3846 3.85697 28.4555 4.0391 28.4554H24.9653C25.1454 28.4554 25.3182 28.3838 25.4455 28.2565C25.5729 28.1291 25.6444 27.9564 25.6444 27.7763V3.57004C25.6432 3.38778 25.5721 3.21293 25.4458 3.08159C25.3194 2.95025 25.1474 2.87246 24.9653 2.86426Z" fill="url(#paint1_linear_855_10052)"/>
<path opacity="0.9" d="M14.4995 25.1079C13.928 25.1079 13.3693 24.9383 12.8942 24.6207C12.419 24.3032 12.0488 23.8518 11.8302 23.3237C11.6117 22.7956 11.5547 22.2146 11.6664 21.6541C11.7782 21.0936 12.0537 20.5788 12.4581 20.175C12.8624 19.7711 13.3775 19.4962 13.9381 19.3852C14.4988 19.2741 15.0797 19.3318 15.6075 19.551C16.1354 19.7702 16.5863 20.141 16.9033 20.6166C17.2203 21.0921 17.3891 21.651 17.3884 22.2225C17.387 22.9879 17.0821 23.7216 16.5405 24.2625C15.999 24.8034 15.265 25.1074 14.4995 25.1079ZM14.4995 20.5532C14.1703 20.5553 13.849 20.6548 13.5762 20.8393C13.3034 21.0237 13.0914 21.2848 12.9667 21.5895C12.8421 21.8943 12.8105 22.2292 12.8759 22.5519C12.9413 22.8746 13.1008 23.1708 13.3342 23.403C13.5677 23.6352 13.8646 23.7931 14.1877 23.8568C14.5108 23.9205 14.8455 23.8871 15.1496 23.7608C15.4537 23.6346 15.7136 23.4211 15.8966 23.1474C16.0796 22.8736 16.1774 22.5518 16.1778 22.2225C16.178 22.0025 16.1347 21.7846 16.0503 21.5814C15.966 21.3781 15.8422 21.1936 15.6862 21.0384C15.5302 20.8833 15.345 20.7605 15.1414 20.6772C14.9377 20.5939 14.7196 20.5518 14.4995 20.5532Z" fill="white"/>
<path d="M21.2338 11.9765H17.6107C17.5853 11.9759 17.5603 11.983 17.539 11.9969C17.5177 12.0107 17.5011 12.0306 17.4913 12.054C17.4815 12.0775 17.479 12.1033 17.4841 12.1281C17.4893 12.153 17.5018 12.1758 17.52 12.1934L18.5547 13.2281C18.5821 13.2557 18.5975 13.2931 18.5975 13.3321C18.5975 13.371 18.5821 13.4084 18.5547 13.4361L15.7493 16.2432C15.6231 16.3676 15.5324 16.5134 15.4169 16.645V9.15519C15.4169 9.12124 15.4304 9.08868 15.4544 9.06468C15.4784 9.04067 15.5109 9.02719 15.5449 9.02719H17.056C17.081 9.02645 17.1052 9.0185 17.1258 9.00431C17.1464 8.99011 17.1625 8.97027 17.172 8.94717C17.1816 8.92407 17.1843 8.8987 17.1798 8.8741C17.1753 8.8495 17.1638 8.82673 17.1467 8.80852L14.5778 6.24852C14.5541 6.22507 14.5222 6.21191 14.4889 6.21191C14.4556 6.21191 14.4236 6.22507 14.4 6.24852L11.8436 8.80852C11.8264 8.82673 11.8149 8.8495 11.8104 8.8741C11.8059 8.8987 11.8086 8.92407 11.8182 8.94717C11.8278 8.97027 11.8438 8.99011 11.8644 9.00431C11.885 9.0185 11.9092 9.02645 11.9342 9.02719H13.4329C13.4658 9.03034 13.4965 9.04484 13.5199 9.06819C13.5432 9.09155 13.5577 9.12231 13.5609 9.15519V16.6396C13.4471 16.5099 13.3564 16.3659 13.2338 16.2432L10.4284 13.4361C10.4146 13.4225 10.4037 13.4063 10.3962 13.3885C10.3887 13.3706 10.3848 13.3514 10.3848 13.3321C10.3848 13.3127 10.3887 13.2935 10.3962 13.2757C10.4037 13.2578 10.4146 13.2416 10.4284 13.2281L11.4613 12.1934C11.4844 12.1695 11.4972 12.1377 11.4972 12.1045C11.4972 12.0714 11.4844 12.0395 11.4613 12.0156C11.4496 12.0041 11.4357 11.9951 11.4204 11.989C11.4052 11.9829 11.3889 11.9798 11.3724 11.9801H7.74933C7.71585 11.9801 7.68375 11.9934 7.66008 12.017C7.63641 12.0407 7.62311 12.0728 7.62311 12.1063V15.7259C7.62311 15.7426 7.62643 15.7591 7.63288 15.7746C7.63934 15.79 7.64879 15.804 7.6607 15.8157C7.67261 15.8275 7.68674 15.8367 7.70226 15.843C7.71778 15.8492 7.73438 15.8523 7.75111 15.8521C7.78405 15.8513 7.81561 15.8387 7.84 15.8165L8.92444 14.7321C8.93801 14.7183 8.9542 14.7073 8.97205 14.6998C8.98991 14.6923 9.00908 14.6885 9.02844 14.6885C9.0478 14.6885 9.06697 14.6923 9.08483 14.6998C9.10269 14.7073 9.11887 14.7183 9.13244 14.7321L11.9378 17.5374C12.5243 18.1289 12.966 18.8481 13.2284 19.6387C13.6184 19.4374 14.0505 19.3314 14.4894 19.3295C14.9282 19.3277 15.3613 19.43 15.7529 19.6281C16.0176 18.8417 16.4591 18.1264 17.0436 17.5374L19.8489 14.7321C19.8626 14.7182 19.8789 14.7072 19.8969 14.6997C19.9149 14.6922 19.9343 14.6883 19.9538 14.6883C19.9733 14.6883 19.9926 14.6922 20.0106 14.6997C20.0286 14.7072 20.0449 14.7182 20.0587 14.7321L21.1431 15.8165C21.1668 15.8387 21.1978 15.8514 21.2302 15.8521C21.264 15.8521 21.2965 15.8389 21.3208 15.8153C21.345 15.7918 21.3591 15.7597 21.36 15.7259V12.1027C21.3595 12.0694 21.3461 12.0376 21.3225 12.014C21.2989 11.9904 21.2671 11.977 21.2338 11.9765Z" fill="url(#paint2_linear_855_10052)"/>
</g>
<defs>
<linearGradient id="paint0_linear_855_10052" x1="8.57601" y1="32.805" x2="8.57601" y2="25.9499" gradientUnits="userSpaceOnUse">
<stop stop-color="#76BC2D"/>
<stop offset="0.4" stop-color="#84D332"/>
<stop offset="0.75" stop-color="#86D633"/>
</linearGradient>
<linearGradient id="paint1_linear_855_10052" x1="14.4907" y1="33.9576" x2="14.4907" y2="2.5247" gradientUnits="userSpaceOnUse">
<stop stop-color="#0078D4"/>
<stop offset="1" stop-color="#83B9F9"/>
</linearGradient>
<linearGradient id="paint2_linear_855_10052" x1="14.4907" y1="7.42719" x2="14.4907" y2="18.981" gradientUnits="userSpaceOnUse">
<stop stop-color="white"/>
<stop offset="1" stop-color="white" stop-opacity="0.7"/>
</linearGradient>
<clipPath id="clip0_855_10052">
<rect width="32" height="32" fill="white"/>
</clipPath>
</defs>
</svg>
