<svg width="32" height="32" viewBox="0 0 32 32" fill="none" xmlns="http://www.w3.org/2000/svg">
<g clip-path="url(#clip0_855_10083)">
<path d="M15.2672 1.19161L1.17534 15.2835C0.779605 15.6792 0.779605 16.3208 1.17534 16.7165L15.2672 30.8084C15.6629 31.2041 16.3045 31.2041 16.7003 30.8084L30.7921 16.7165C31.1878 16.3208 31.1878 15.6792 30.7921 15.2835L16.7003 1.19161C16.3045 0.795881 15.6629 0.79588 15.2672 1.19161Z" fill="url(#paint0_linear_855_10083)"/>
<path d="M12.5333 8.3198L15.8755 4.97758C15.9088 4.945 15.9534 4.92676 16 4.92676C16.0465 4.92676 16.0912 4.945 16.1244 4.97758L19.5555 8.3198C19.5838 8.3416 19.604 8.37222 19.6128 8.4068C19.6217 8.44138 19.6187 8.47792 19.6044 8.51062C19.5901 8.54332 19.5653 8.5703 19.5339 8.58726C19.5024 8.60423 19.4663 8.61021 19.4311 8.60424H17.3866C17.3395 8.60424 17.2943 8.62297 17.2609 8.65631C17.2276 8.68965 17.2089 8.73487 17.2089 8.78202V13.102C17.2089 13.1445 17.192 13.1852 17.162 13.2152C17.132 13.2452 17.0913 13.262 17.0489 13.262H14.9689C14.9464 13.2645 14.9237 13.2623 14.9022 13.2553C14.8806 13.2484 14.8608 13.2371 14.844 13.2219C14.8273 13.2068 14.8138 13.1883 14.8047 13.1677C14.7956 13.147 14.7909 13.1246 14.7911 13.102V8.78202C14.7913 8.7378 14.775 8.69508 14.7454 8.6622C14.7159 8.62933 14.6751 8.60867 14.6311 8.60424H12.6577C12.6263 8.60119 12.5961 8.58978 12.5705 8.5712C12.5449 8.55262 12.5247 8.52754 12.512 8.49855C12.4993 8.46956 12.4946 8.43771 12.4984 8.40628C12.5021 8.37486 12.5142 8.345 12.5333 8.3198ZM19.5555 23.6798L16.1244 27.022C16.0912 27.0546 16.0465 27.0728 16 27.0728C15.9534 27.0728 15.9088 27.0546 15.8755 27.022L12.5333 23.6798C12.5142 23.6546 12.5021 23.6247 12.4984 23.5933C12.4946 23.5619 12.4993 23.53 12.512 23.501C12.5247 23.4721 12.5449 23.447 12.5705 23.4284C12.5961 23.4098 12.6263 23.3984 12.6577 23.3954H14.6311C14.6751 23.3909 14.7159 23.3703 14.7454 23.3374C14.775 23.3045 14.7913 23.2618 14.7911 23.2176V18.8976C14.7909 18.875 14.7956 18.8526 14.8047 18.8319C14.8138 18.8113 14.8273 18.7928 14.844 18.7777C14.8608 18.7625 14.8806 18.7512 14.9022 18.7442C14.9237 18.7373 14.9464 18.7351 14.9689 18.7376H17.0489C17.0913 18.7376 17.132 18.7544 17.162 18.7844C17.192 18.8144 17.2089 18.8551 17.2089 18.8976V23.2176C17.2089 23.2647 17.2276 23.3099 17.2609 23.3433C17.2943 23.3766 17.3395 23.3954 17.3866 23.3954H19.3422C19.3799 23.3671 19.4273 23.3549 19.474 23.3616C19.5207 23.3683 19.5628 23.3932 19.5911 23.4309C19.6194 23.4686 19.6315 23.516 19.6249 23.5627C19.6182 23.6094 19.5932 23.6515 19.5555 23.6798ZM9.4933 19.2709V17.3154C9.4893 17.2695 9.46928 17.2266 9.43677 17.1941C9.40426 17.1616 9.36133 17.1416 9.31553 17.1376H4.99553C4.9513 17.1378 4.90858 17.1215 4.87571 17.0919C4.84284 17.0624 4.82217 17.0216 4.81775 16.9776V14.8976C4.82175 14.8518 4.84177 14.8088 4.87428 14.7763C4.90679 14.7438 4.94972 14.7238 4.99553 14.7198H9.31553C9.35975 14.72 9.40247 14.7037 9.43534 14.6742C9.46822 14.6446 9.48888 14.6038 9.4933 14.5598V12.5865C9.47972 12.5495 9.48023 12.5089 9.49474 12.4723C9.50924 12.4357 9.53672 12.4057 9.57192 12.3881C9.60712 12.3705 9.64758 12.3665 9.68555 12.3769C9.72352 12.3872 9.75635 12.4112 9.77775 12.4442L13.12 15.822C13.1356 15.837 13.148 15.8549 13.1565 15.8748C13.1649 15.8946 13.1693 15.916 13.1693 15.9376C13.1693 15.9592 13.1649 15.9805 13.1565 16.0004C13.148 16.0203 13.1356 16.0382 13.12 16.0531L9.77775 19.3954C9.75595 19.4236 9.72533 19.4438 9.69075 19.4526C9.65617 19.4615 9.61963 19.4585 9.58693 19.4442C9.55423 19.4299 9.52725 19.4051 9.51028 19.3737C9.49332 19.3423 9.48734 19.3061 9.4933 19.2709ZM22.5066 12.5865V14.5598C22.5111 14.6038 22.5317 14.6446 22.5646 14.6742C22.5975 14.7037 22.6402 14.72 22.6844 14.7198H27.0044C27.0502 14.7238 27.0931 14.7438 27.1257 14.7763C27.1582 14.8088 27.1782 14.8518 27.1822 14.8976V16.9776C27.1778 17.0216 27.1571 17.0624 27.1242 17.0919C27.0914 17.1215 27.0486 17.1378 27.0044 17.1376H22.6844C22.6386 17.1416 22.5957 17.1616 22.5632 17.1941C22.5307 17.2266 22.5106 17.2695 22.5066 17.3154V19.2709C22.5126 19.3061 22.5066 19.3423 22.4897 19.3737C22.4727 19.4051 22.4457 19.4299 22.413 19.4442C22.3803 19.4585 22.3438 19.4615 22.3092 19.4526C22.2746 19.4438 22.244 19.4236 22.2222 19.3954L18.88 15.9998C18.8644 15.9849 18.852 15.9669 18.8435 15.9471C18.835 15.9272 18.8306 15.9058 18.8306 15.8842C18.8306 15.8626 18.835 15.8413 18.8435 15.8214C18.852 15.8016 18.8644 15.7836 18.88 15.7687L22.2222 12.4442C22.2436 12.4112 22.2764 12.3872 22.3144 12.3769C22.3524 12.3665 22.3928 12.3705 22.428 12.3881C22.4632 12.4057 22.4907 12.4357 22.5052 12.4723C22.5197 12.5089 22.5202 12.5495 22.5066 12.5865Z" fill="white"/>
</g>
<defs>
<linearGradient id="paint0_linear_855_10083" x1="15.9937" y1="31.6241" x2="15.9937" y2="3.23294" gradientUnits="userSpaceOnUse">
<stop stop-color="#258277"/>
<stop offset="0.42" stop-color="#49A498"/>
<stop offset="0.78" stop-color="#60BAAD"/>
<stop offset="1" stop-color="#68C2B5"/>
</linearGradient>
<clipPath id="clip0_855_10083">
<rect width="32" height="32" fill="white"/>
</clipPath>
</defs>
</svg>
