<svg width="32" height="32" viewBox="0 0 32 32" fill="none" xmlns="http://www.w3.org/2000/svg">
<g clip-path="url(#clip0_855_10069)">
<path d="M15.2557 0.535418L0.53401 15.2571C0.123699 15.6674 0.123699 16.3326 0.53401 16.7429L15.2557 31.4646C15.666 31.8749 16.3312 31.8749 16.7415 31.4646L31.4632 16.7429C31.8735 16.3326 31.8735 15.6674 31.4632 15.2571L16.7415 0.535418C16.3312 0.125107 15.666 0.125107 15.2557 0.535418Z" fill="url(#paint0_linear_855_10069)"/>
<path d="M25.0524 17.8976L24.416 17.2611V14.8096H19.3369V17.5118H21.6142L15.8933 23.2345L10.1706 17.5118H12.4853V14.8096H6.90664V17.5118H7.11819L6.73419 17.8976L14.7306 25.894L15.8933 24.7331L17.0542 25.894L25.0524 17.8976Z" fill="#9CEBFF"/>
<path d="M9.06581 18.1491C10.1583 17.0519 10.1501 15.2723 9.04736 14.1742C7.94462 13.0762 6.165 13.0754 5.07246 14.1726C3.97992 15.2698 3.98818 17.0494 5.09091 18.1474C6.19364 19.2455 7.97326 19.2463 9.06581 18.1491Z" fill="white"/>
<path d="M8.20842 17.2967C8.82982 16.674 8.82367 15.6604 8.19469 15.0327C7.56572 14.4051 6.55208 14.4011 5.93068 15.0238C5.30929 15.6465 5.31543 16.6602 5.94441 17.2878C6.57339 17.9155 7.58702 17.9194 8.20842 17.2967Z" fill="#86D633"/>
<path d="M26.9097 18.1501C28.0023 17.0529 27.994 15.2733 26.8913 14.1752C25.7886 13.0771 24.0089 13.0764 22.9164 14.1736C21.8239 15.2707 21.8321 17.0503 22.9348 18.1484C24.0376 19.2465 25.8172 19.2472 26.9097 18.1501Z" fill="white"/>
<path d="M26.0531 17.2987C26.6745 16.6759 26.6684 15.6623 26.0394 15.0347C25.4104 14.407 24.3968 14.4031 23.7754 15.0258C23.154 15.6485 23.1602 16.6621 23.7891 17.2898C24.4181 17.9174 25.4317 17.9214 26.0531 17.2987Z" fill="#86D633"/>
<path d="M19.6266 8.54459L16.0711 4.98904C16.0463 4.96404 16.0168 4.9442 15.9843 4.93066C15.9518 4.91713 15.9169 4.91016 15.8817 4.91016C15.8465 4.91016 15.8117 4.91713 15.7792 4.93066C15.7467 4.9442 15.7172 4.96404 15.6924 4.98904L12.1369 8.54459C12.099 8.58179 12.0731 8.62944 12.0625 8.68144C12.0518 8.73344 12.057 8.78743 12.0772 8.8365C12.0975 8.88556 12.1319 8.92747 12.1761 8.95687C12.2203 8.98626 12.2722 9.00179 12.3253 9.00148H14.3431C14.3935 9.00148 14.4419 9.02152 14.4776 9.05719C14.5133 9.09287 14.5333 9.14125 14.5333 9.1917V27.437H17.2444V9.1917C17.2443 9.14334 17.2626 9.09675 17.2957 9.06141C17.3287 9.02607 17.3739 9.00464 17.4222 9.00148H19.4329C19.4864 9.00288 19.5391 8.98814 19.5841 8.95916C19.6292 8.93019 19.6644 8.88832 19.6853 8.83903C19.7062 8.78973 19.7118 8.73528 19.7014 8.68276C19.6909 8.63025 19.6648 8.5821 19.6266 8.54459Z" fill="white"/>
<path d="M17.882 27.1257C18.9746 26.0285 18.9663 24.2489 17.8636 23.1508C16.7608 22.0527 14.9812 22.052 13.8887 23.1491C12.7961 24.2463 12.8044 26.0259 13.9071 27.124C15.0099 28.2221 16.7895 28.2228 17.882 27.1257Z" fill="white"/>
<path d="M17.0245 26.2743C17.6459 25.6515 17.6398 24.6379 17.0108 24.0103C16.3818 23.3826 15.3682 23.3786 14.7468 24.0014C14.1254 24.6241 14.1315 25.6377 14.7605 26.2654C15.3895 26.893 16.4031 26.897 17.0245 26.2743Z" fill="#86D633"/>
</g>
<defs>
<linearGradient id="paint0_linear_855_10069" x1="15.9998" y1="32.3021" x2="15.9998" y2="2.67724" gradientUnits="userSpaceOnUse">
<stop stop-color="#238AB0"/>
<stop offset="0.109" stop-color="#2DA4C8"/>
<stop offset="0.775" stop-color="#3ED3F2"/>
</linearGradient>
<clipPath id="clip0_855_10069">
<rect width="32" height="32" fill="white"/>
</clipPath>
</defs>
</svg>
