<svg width="32" height="32" viewBox="0 0 32 32" fill="none" xmlns="http://www.w3.org/2000/svg">
<path d="M29.0844 14.9333C29.0844 23.5378 18.6844 30.4711 16.4267 31.8756C16.2982 31.9541 16.1506 31.9957 16 31.9957C15.8494 31.9957 15.7018 31.9541 15.5733 31.8756C13.3156 30.4711 2.91556 23.5378 2.91556 14.9333V4.58667C2.91551 4.37282 2.99922 4.16747 3.14876 4.01461C3.2983 3.86174 3.50177 3.77354 3.71556 3.76889C11.8044 3.55556 9.93778 0 16 0C22.0622 0 20.1956 3.55556 28.2844 3.76889C28.4982 3.77354 28.7017 3.86174 28.8512 4.01461C29.0008 4.16747 29.0845 4.37282 29.0844 4.58667V14.9333Z" fill="#0078D4"/>
<path d="M28 15.0219C28 22.9152 18.4711 29.2441 16.3911 30.5597C16.2728 30.6301 16.1377 30.6673 16 30.6673C15.8623 30.6673 15.7272 30.6301 15.6089 30.5597C13.5289 29.2797 4 22.9152 4 15.0219V5.52856C3.99994 5.33358 4.07617 5.1463 4.21237 5.00678C4.34858 4.86725 4.53396 4.78654 4.72889 4.7819C12.1422 4.58634 10.4356 1.33301 16 1.33301C21.5644 1.33301 19.8578 4.58634 27.2711 4.7819C27.466 4.78654 27.6514 4.86725 27.7876 5.00678C27.9238 5.1463 28.0001 5.33358 28 5.52856V15.0219Z" fill="#6BB9F2"/>
<path d="M16 15.9997V1.33301C21.5645 1.33301 19.8578 4.58634 27.2711 4.7819C27.4676 4.79105 27.6531 4.87561 27.7888 5.01799C27.9246 5.16037 28.0002 5.34961 28 5.54634V15.0397C28.0177 15.3594 28.0177 15.6799 28 15.9997H16ZM16 15.9997H4.05334C4.76446 23.4308 13.6178 29.333 15.6089 30.5597C15.7052 30.621 15.8151 30.6577 15.9289 30.6663H16V15.9997Z" fill="url(#paint0_linear_855_10061)"/>
<path d="M4.72889 4.7819C12.1422 4.58634 10.4356 1.33301 16 1.33301V15.9997H4.05333C4.03565 15.6799 4.03565 15.3594 4.05333 15.0397V5.54634C4.05205 5.3581 4.12028 5.176 4.24494 5.03494C4.36959 4.89389 4.54192 4.80378 4.72889 4.7819Z" fill="#50E6FF"/>
<path d="M27.9467 16H16V30.6667C16.1138 30.658 16.2237 30.6214 16.32 30.56C18.3822 29.3333 27.2356 23.4311 27.9467 16Z" fill="#50E6FF"/>
<defs>
<linearGradient id="paint0_linear_855_10061" x1="16.0178" y1="1.33301" x2="16.0178" y2="30.6663" gradientUnits="userSpaceOnUse">
<stop stop-color="#5EA0EF"/>
<stop offset="0.18" stop-color="#559CEC"/>
<stop offset="0.47" stop-color="#3C91E5"/>
<stop offset="0.84" stop-color="#1380DA"/>
<stop offset="1" stop-color="#0078D4"/>
</linearGradient>
</defs>
</svg>
