<svg width="32" height="32" viewBox="0 0 32 32" fill="none" xmlns="http://www.w3.org/2000/svg">
<path d="M28.2489 5.17285H30.5067C30.667 5.17285 30.8207 5.23653 30.9341 5.34989C31.0474 5.46324 31.1111 5.61699 31.1111 5.7773V11.9995C31.1111 12.1598 31.0474 12.3136 30.9341 12.4269C30.8207 12.5403 30.667 12.604 30.5067 12.604H28.2489V5.17285Z" fill="#FFCA00"/>
<path d="M28.2489 16H30.5067C30.667 16 30.8207 16.0637 30.9341 16.177C31.0474 16.2904 31.1111 16.4441 31.1111 16.6044V27.0222C31.1111 27.1825 31.0474 27.3363 30.9341 27.4496C30.8207 27.563 30.667 27.6267 30.5067 27.6267H28.2489V16Z" fill="#FFCA00"/>
<path d="M27.0222 2.66699H5.01335C4.33588 2.66699 3.78668 3.21619 3.78668 3.89366V28.107C3.78668 28.7845 4.33588 29.3337 5.01335 29.3337H27.0222C27.6997 29.3337 28.2489 28.7845 28.2489 28.107V3.89366C28.2489 3.21619 27.6997 2.66699 27.0222 2.66699Z" fill="url(#paint0_linear_855_10060)"/>
<path d="M10.4889 22.9337H9.22667C9.17996 22.9314 9.13416 22.9199 9.09189 22.8999C9.04962 22.8799 9.0117 22.8518 8.98033 22.8171C8.94895 22.7824 8.92472 22.7419 8.90903 22.6978C8.89335 22.6538 8.8865 22.6071 8.8889 22.5604V7.71591C8.88648 7.67008 8.89343 7.62424 8.90932 7.58118C8.92521 7.53812 8.94971 7.49876 8.98132 7.46548C9.01293 7.43221 9.05099 7.40573 9.09317 7.38765C9.13535 7.36958 9.18078 7.36029 9.22667 7.36035H12.6578C12.7037 7.36029 12.7491 7.36958 12.7913 7.38765C12.8335 7.40573 12.8715 7.43221 12.9031 7.46548C12.9348 7.49876 12.9592 7.53812 12.9751 7.58118C12.991 7.62424 12.998 7.67008 12.9956 7.71591C12.998 7.76261 12.9911 7.80933 12.9754 7.85339C12.9597 7.89745 12.9355 7.93797 12.9041 7.97265C12.8728 8.00733 12.8348 8.03548 12.7926 8.05549C12.7503 8.07549 12.7045 8.08696 12.6578 8.08924H9.56445V22.187H10.4889C10.5356 22.1893 10.5814 22.2008 10.6237 22.2208C10.666 22.2408 10.7039 22.2689 10.7352 22.3036C10.7666 22.3383 10.7908 22.3788 10.8065 22.4229C10.8222 22.4669 10.8291 22.5136 10.8267 22.5604C10.8271 22.6535 10.7927 22.7434 10.7302 22.8125C10.6677 22.8816 10.5816 22.9248 10.4889 22.9337Z" fill="#B4EC36"/>
<path d="M10.6667 24.747H7.82222C7.77551 24.7447 7.72971 24.7332 7.68744 24.7132C7.64516 24.6932 7.60725 24.6651 7.57588 24.6304C7.5445 24.5957 7.52027 24.5552 7.50458 24.5111C7.48889 24.4671 7.48205 24.4204 7.48445 24.3737L7.25333 6.00922C7.25159 5.95979 7.26018 5.91055 7.27854 5.86463C7.29691 5.81872 7.32465 5.77714 7.36 5.74255C7.38759 5.70804 7.42284 5.68044 7.46296 5.66192C7.50307 5.64341 7.54695 5.63449 7.59111 5.63588H12.6578V6.36477H7.94667L8.16 24.0003H10.6667V24.747Z" fill="#B4EC36"/>
<path d="M21.3333 23.1107H18.5067C18.4587 23.1088 18.4117 23.0968 18.3688 23.0753C18.3259 23.0538 18.288 23.0235 18.2578 22.9863C18.2229 22.9551 18.1952 22.9166 18.1768 22.8736C18.1584 22.8306 18.1496 22.7841 18.1511 22.7374V14.044C18.1487 13.9982 18.1556 13.9524 18.1715 13.9093C18.1874 13.8662 18.2119 13.8269 18.2435 13.7936C18.2751 13.7603 18.3132 13.7339 18.3554 13.7158C18.3976 13.6977 18.443 13.6884 18.4889 13.6885H20.1067V9.68848H20.7822V14.0263C20.7872 14.1177 20.7568 14.2076 20.6972 14.2772C20.6375 14.3467 20.5534 14.3906 20.4622 14.3996H18.8444V22.2574H21.3333V23.1107Z" fill="#B4EC36"/>
<path d="M23.0222 4.07129H13.0311C12.7759 4.07129 12.5689 4.27823 12.5689 4.53351V9.13796C12.5689 9.39323 12.7759 9.60018 13.0311 9.60018H23.0222C23.2775 9.60018 23.4845 9.39323 23.4845 9.13796V4.53351C23.4845 4.27823 23.2775 4.07129 23.0222 4.07129Z" fill="#365615"/>
<path d="M15.7333 27.4315V19.6448C15.7333 19.3896 15.5264 19.1826 15.2711 19.1826H14.2578C14.0025 19.1826 13.7956 19.3896 13.7956 19.6448V27.4315C13.7956 27.6868 14.0025 27.8937 14.2578 27.8937H15.2711C15.5264 27.8937 15.7333 27.6868 15.7333 27.4315Z" fill="#365615"/>
<path d="M12.4266 27.4667V19.68C12.4266 19.4247 12.2197 19.2178 11.9644 19.2178H10.9511C10.6958 19.2178 10.4889 19.4247 10.4889 19.68V27.4667C10.4889 27.7219 10.6958 27.9289 10.9511 27.9289H11.9644C12.2197 27.9289 12.4266 27.7219 12.4266 27.4667Z" fill="#365615"/>
<path d="M23.0578 27.4667V19.68C23.0578 19.4247 22.8509 19.2178 22.5956 19.2178H21.5822C21.327 19.2178 21.12 19.4247 21.12 19.68V27.4667C21.12 27.7219 21.327 27.9289 21.5822 27.9289H22.5956C22.8509 27.9289 23.0578 27.7219 23.0578 27.4667Z" fill="#F2F2F2"/>
<path d="M14.4178 16.3201C15.4389 16.3201 16.2667 15.4287 16.2667 14.329C16.2667 13.2293 15.4389 12.3379 14.4178 12.3379C13.3967 12.3379 12.5689 13.2293 12.5689 14.329C12.5689 15.4287 13.3967 16.3201 14.4178 16.3201Z" fill="#F2F2F2"/>
<path d="M3.7511 21.7773H1.49332C1.3446 21.7784 1.20073 21.7245 1.08921 21.6261C0.977696 21.5277 0.90637 21.3917 0.888877 21.244L0.888877 10.8262C0.888877 10.6659 0.952559 10.5122 1.06591 10.3988C1.17927 10.2855 1.33301 10.2218 1.49332 10.2218H3.7511L3.7511 21.7773Z" fill="#3B3B3B"/>
<defs>
<linearGradient id="paint0_linear_855_10060" x1="16.0178" y1="29.3337" x2="16.0178" y2="2.66699" gradientUnits="userSpaceOnUse">
<stop stop-color="#5E9641"/>
<stop offset="0.34" stop-color="#6BAA42"/>
<stop offset="0.67" stop-color="#73B743"/>
<stop offset="1" stop-color="#76BB43"/>
</linearGradient>
</defs>
</svg>
