<svg width="32" height="32" viewBox="0 0 32 32" fill="none" xmlns="http://www.w3.org/2000/svg">
<g clip-path="url(#clip0_855_10068)">
<path d="M32 16.267C31.9477 14.5619 31.2917 12.9307 30.1489 11.6642C29.0061 10.3977 27.4508 9.57808 25.76 9.35143C25.6537 6.97153 24.6149 4.7291 22.8684 3.10897C21.1219 1.48885 18.8078 0.621209 16.4267 0.693651C14.5015 0.656741 12.6124 1.21842 11.0202 2.30114C9.42797 3.38386 8.21116 4.9342 7.53778 6.7381C5.50223 6.99136 3.62413 7.96348 2.24204 9.47921C0.859958 10.9949 0.0648291 12.9545 0 15.0048C0.0879241 17.3078 1.08675 19.4816 2.77692 21.0485C4.46709 22.6153 6.71027 23.4468 9.01333 23.3603C9.27376 23.3784 9.53513 23.3784 9.79556 23.3603H24.3911C24.5208 23.3788 24.6525 23.3788 24.7822 23.3603C26.671 23.347 28.4805 22.5993 29.8276 21.2754C31.1748 19.9514 31.9539 18.1552 32 16.267Z" fill="url(#paint0_linear_855_10068)"/>
<path d="M16.8355 14.7913C16.8075 13.1302 16.2891 11.5145 15.3455 10.1472C14.4019 8.77993 13.0752 7.72205 11.5321 7.10654C9.98909 6.49104 8.29852 6.34537 6.67292 6.68784C5.04732 7.03031 3.55921 7.84564 2.39563 9.03137C1.23204 10.2171 0.444901 11.7203 0.133127 13.3521C-0.178647 14.9838 -0.00114086 16.6714 0.643337 18.2025C1.28782 19.7337 2.37051 21.0402 3.75534 21.9579C5.14018 22.8756 6.76536 23.3634 8.42665 23.3602H16.8355V14.7913Z" fill="#50E6FF"/>
<path d="M20.9778 27.2707L16.9778 31.2529C16.9612 31.275 16.9398 31.2929 16.9151 31.3053C16.8904 31.3176 16.8632 31.324 16.8356 31.324C16.808 31.324 16.7808 31.3176 16.7561 31.3053C16.7314 31.2929 16.7099 31.275 16.6934 31.2529L12.7111 27.2707C12.6844 27.2411 12.6666 27.2046 12.6596 27.1653C12.6526 27.1261 12.6567 27.0856 12.6715 27.0486C12.6863 27.0116 12.7112 26.9795 12.7433 26.9559C12.7755 26.9323 12.8136 26.9182 12.8534 26.9151H15.2C15.2309 26.9163 15.2616 26.9102 15.2896 26.8972C15.3176 26.8842 15.3422 26.8648 15.3612 26.8405C15.3803 26.8163 15.3934 26.7878 15.3993 26.7575C15.4053 26.7272 15.404 26.6959 15.3956 26.6662V21.5107C15.3978 21.485 15.4051 21.4599 15.4171 21.4371C15.429 21.4142 15.4454 21.3939 15.4652 21.3774C15.485 21.3608 15.5079 21.3484 15.5326 21.3408C15.5573 21.3331 15.5832 21.3305 15.6089 21.3329H18.08C18.1319 21.3329 18.1816 21.3535 18.2183 21.3902C18.255 21.4269 18.2756 21.4766 18.2756 21.5285V26.6662C18.2755 26.6935 18.281 26.7205 18.292 26.7454C18.3029 26.7704 18.3189 26.7928 18.339 26.8112C18.3591 26.8296 18.3828 26.8436 18.4086 26.8523C18.4344 26.8611 18.4618 26.8643 18.4889 26.8618H20.8356C20.8624 26.8525 20.8908 26.8485 20.9192 26.8501C20.9476 26.8518 20.9754 26.859 21.001 26.8714C21.0266 26.8838 21.0495 26.9011 21.0684 26.9223C21.0873 26.9435 21.1018 26.9683 21.1111 26.9951C21.1205 27.022 21.1244 27.0504 21.1228 27.0788C21.1211 27.1072 21.1139 27.1349 21.1015 27.1605C21.0891 27.1861 21.0718 27.209 21.0506 27.2279C21.0294 27.2468 21.0046 27.2613 20.9778 27.2707Z" fill="#0078D4"/>
<path d="M12.7111 17.4578L16.64 13.5289C16.6958 13.4776 16.7687 13.4492 16.8445 13.4492C16.9202 13.4492 16.9931 13.4776 17.0489 13.5289L20.9778 17.4578C21.0068 17.4851 21.0268 17.5206 21.0351 17.5597C21.0433 17.5987 21.0395 17.6393 21.024 17.676C21.0085 17.7128 20.9822 17.7439 20.9485 17.7653C20.9148 17.7866 20.8754 17.7972 20.8356 17.7955H18.4889C18.4323 17.7955 18.3781 17.818 18.338 17.858C18.298 17.898 18.2756 17.9523 18.2756 18.0089V23.3422H15.3956V18.0089C15.398 17.9808 15.3949 17.9526 15.3863 17.9258C15.3778 17.899 15.3641 17.8741 15.3459 17.8526C15.3277 17.8311 15.3055 17.8135 15.2804 17.8006C15.2554 17.7878 15.2281 17.78 15.2 17.7778H12.8533C12.817 17.7762 12.7818 17.7645 12.7517 17.744C12.7217 17.7235 12.6979 17.6951 12.6831 17.6618C12.6683 17.6286 12.6631 17.5918 12.6681 17.5558C12.673 17.5197 12.6879 17.4858 12.7111 17.4578Z" fill="white"/>
</g>
<defs>
<linearGradient id="paint0_linear_855_10068" x1="16" y1="23.3603" x2="16" y2="0.693649" gradientUnits="userSpaceOnUse">
<stop stop-color="#0078D4"/>
<stop offset="0.82" stop-color="#5EA0EF"/>
</linearGradient>
<clipPath id="clip0_855_10068">
<rect width="32" height="32" fill="white"/>
</clipPath>
</defs>
</svg>
