<svg width="32" height="32" viewBox="0 0 32 32" fill="none" xmlns="http://www.w3.org/2000/svg">
<g clip-path="url(#clip0_855_10051)">
<path d="M15.5307 9.2959H11.7689C10.5912 9.30409 9.45957 9.75405 8.59782 10.5567C7.73607 11.3594 7.20704 12.4564 7.1154 13.6305C7.02376 14.8046 7.37619 15.9703 8.10296 16.897C8.82973 17.8237 9.87788 18.4438 11.04 18.6346C10.9539 18.0543 10.9701 17.4634 11.088 16.8888C10.3712 16.7293 9.73896 16.3098 9.3134 15.7113C8.88784 15.1129 8.69917 14.378 8.78383 13.6485C8.86849 12.9191 9.22047 12.2469 9.77178 11.7618C10.3231 11.2768 11.0346 11.0132 11.7689 11.0221H15.5307C16.3204 11.0221 17.0778 11.3358 17.6363 11.8943C18.1947 12.4527 18.5084 13.2101 18.5084 13.9999C18.5084 14.7897 18.1947 15.5471 17.6363 16.1055C17.0778 16.6639 16.3204 16.9777 15.5307 16.9777H14.496C14.3558 17.2717 14.2806 17.5924 14.2756 17.9181C14.277 18.1864 14.3276 18.4521 14.4249 18.7021H15.5307C16.7617 18.6782 17.9342 18.1723 18.7964 17.2933C19.6585 16.4142 20.1415 15.2321 20.1415 14.0008C20.1415 12.7695 19.6585 11.5874 18.7964 10.7083C17.9342 9.82923 16.7617 9.32339 15.5307 9.29945V9.2959Z" fill="url(#paint0_linear_855_10051)"/>
<path d="M20.96 13.2765C20.9944 13.515 21.0128 13.7556 21.0151 13.9965C21.0173 14.3412 20.9828 14.685 20.912 15.0223C21.6255 15.1853 22.2537 15.606 22.6762 16.2036C23.0987 16.8013 23.2856 17.5338 23.2013 18.2609C23.1169 18.9879 22.7671 19.6582 22.219 20.1432C21.6708 20.6282 20.963 20.8937 20.2311 20.889H16.4693C15.6796 20.889 14.9222 20.5753 14.3637 20.0168C13.8053 19.4584 13.4915 18.701 13.4915 17.9112C13.4915 17.1215 13.8053 16.364 14.3637 15.8056C14.9222 15.2472 15.6796 14.9334 16.4693 14.9334H17.504C17.6358 14.667 17.7103 14.3758 17.7225 14.0788C17.7348 13.7817 17.6846 13.4854 17.5751 13.209H16.4693C15.2383 13.2329 14.0657 13.7388 13.2036 14.6178C12.3415 15.4969 11.8585 16.679 11.8585 17.9103C11.8585 19.1416 12.3415 20.3237 13.2036 21.2028C14.0657 22.0819 15.2383 22.5877 16.4693 22.6117H20.2311C21.4087 22.6035 22.5404 22.1535 23.4022 21.3508C24.2639 20.5481 24.7929 19.4512 24.8846 18.2771C24.9762 17.103 24.6238 15.9372 23.897 15.0106C23.1702 14.0839 22.1221 13.4638 20.96 13.273V13.2765Z" fill="url(#paint1_linear_855_10051)"/>
<path d="M16 -0.0449219L2.04443 7.9373V23.884L16 31.9551L29.9555 23.9729V7.97286L16 -0.0449219ZM27.3778 22.3017L16 28.8795L4.62221 22.3711V9.51952L16 2.94174L27.3778 9.5373V22.3017Z" fill="#0078D4"/>
<path d="M16 0L2.04443 7.98222L4.62221 9.56444L16 2.98667L27.3778 9.56444L29.9555 7.98222L16 0Z" fill="url(#paint2_linear_855_10051)"/>
</g>
<defs>
<linearGradient id="paint0_linear_855_10051" x1="13.6676" y1="9.2959" x2="13.6676" y2="18.6986" gradientUnits="userSpaceOnUse">
<stop offset="0.23" stop-color="#5EA0EF"/>
<stop offset="0.32" stop-color="#5B9FEE"/>
<stop offset="0.48" stop-color="#509AEB"/>
<stop offset="0.57" stop-color="#3F92E6"/>
<stop offset="0.75" stop-color="#2688DF"/>
<stop offset="0.93" stop-color="#127FD9"/>
</linearGradient>
<linearGradient id="paint1_linear_855_10051" x1="18.3324" y1="13.2125" x2="18.3324" y2="22.6152" gradientUnits="userSpaceOnUse">
<stop offset="0.2" stop-color="#50E6FF"/>
<stop offset="0.65" stop-color="#32BEDD"/>
<stop offset="1" stop-color="#198AB3"/>
</linearGradient>
<linearGradient id="paint2_linear_855_10051" x1="16" y1="9.56444" x2="16" y2="0" gradientUnits="userSpaceOnUse">
<stop offset="0.199" stop-color="#005BA1"/>
<stop offset="1" stop-color="#0078D4"/>
</linearGradient>
<clipPath id="clip0_855_10051">
<rect width="32" height="32" fill="white"/>
</clipPath>
</defs>
</svg>
