<svg width="32" height="32" viewBox="0 0 32 32" fill="none" xmlns="http://www.w3.org/2000/svg">
<g clip-path="url(#clip0_855_10066)">
<path d="M15.2676 10.8017H12.0676C11.0695 10.812 10.1115 11.1957 9.38228 11.8772C8.65308 12.5588 8.20557 13.4887 8.12795 14.4838C8.05032 15.4789 8.3482 16.467 8.96289 17.2534C9.57758 18.0397 10.4645 18.5674 11.4489 18.7323C11.3773 18.2374 11.393 17.7338 11.4951 17.2443C10.8901 17.1054 10.3577 16.7481 9.99973 16.241C9.64181 15.7338 9.48358 15.1124 9.55537 14.4959C9.62715 13.8793 9.92391 13.3109 10.3888 12.8995C10.8536 12.4882 11.4539 12.2628 12.0747 12.2666H15.2747C15.9451 12.2666 16.5881 12.5329 17.0622 13.007C17.5363 13.4811 17.8027 14.1241 17.8027 14.7946C17.8027 15.465 17.5363 16.108 17.0622 16.5821C16.5881 17.0562 15.9451 17.3226 15.2747 17.3226H14.3893C14.2729 17.5726 14.2123 17.845 14.2116 18.1208C14.2115 18.3484 14.2543 18.5739 14.3378 18.7857H15.2747C15.806 18.7969 16.3342 18.7019 16.8284 18.5063C17.3225 18.3108 17.7726 18.0185 18.1524 17.6467C18.5321 17.2749 18.8338 16.831 19.0398 16.3411C19.2457 15.8512 19.3518 15.3251 19.3518 14.7937C19.3518 14.2622 19.2457 13.7361 19.0398 13.2462C18.8338 12.7563 18.5321 12.3124 18.1524 11.9406C17.7726 11.5688 17.3225 11.2766 16.8284 11.081C16.3342 10.8854 15.806 10.7905 15.2747 10.8017H15.2676Z" fill="url(#paint0_linear_855_10066)"/>
<path d="M19.8791 14.1807C19.9079 14.384 19.9234 14.5888 19.9254 14.7941C19.9275 15.0867 19.8983 15.3787 19.8383 15.6652C20.4431 15.8041 20.9754 16.1612 21.3333 16.6682C21.6913 17.1751 21.8496 17.7963 21.7781 18.4128C21.7065 19.0292 21.4101 19.5976 20.9456 20.0091C20.481 20.4206 19.881 20.6463 19.2605 20.643H16.0605C15.39 20.643 14.747 20.3766 14.2729 19.9025C13.7988 19.4284 13.5325 18.7854 13.5325 18.115C13.5325 17.4445 13.7988 16.8015 14.2729 16.3274C14.747 15.8533 15.39 15.587 16.0605 15.587H16.9387C17.0565 15.3374 17.1172 15.0647 17.1165 14.7887C17.1164 14.5606 17.0736 14.3345 16.9903 14.1221H16.0658C15.0216 14.1441 14.0277 14.5744 13.297 15.3206C12.5664 16.0669 12.1572 17.0697 12.1572 18.1141C12.1572 19.1585 12.5664 20.1613 13.297 20.9075C14.0277 21.6538 15.0216 22.084 16.0658 22.1061H19.2658C20.2639 22.0958 21.2219 21.7121 21.9511 21.0305C22.6803 20.349 23.1278 19.419 23.2054 18.4239C23.283 17.4288 22.9852 16.4408 22.3705 15.6544C21.7558 14.868 20.8689 14.3403 19.8845 14.1754L19.8791 14.1807Z" fill="url(#paint1_linear_855_10066)"/>
<path d="M9.92002 23.7885L9.18758 24.528C9.14098 24.5749 9.08558 24.6121 9.02456 24.6375C8.96354 24.6628 8.89811 24.6759 8.83202 24.6759C8.76593 24.6759 8.70049 24.6628 8.63947 24.6375C8.57845 24.6121 8.52306 24.5749 8.47646 24.528L0.291574 16.3556C0.103112 16.1669 -0.00274658 15.9111 -0.00274658 15.6445C-0.00274658 15.3778 0.103112 15.122 0.291574 14.9333L1.03113 14.208L9.92002 23.0845C9.96576 23.13 10.0021 23.1842 10.0268 23.2438C10.0516 23.3035 10.0643 23.3674 10.0643 23.432C10.0643 23.4966 10.0516 23.5605 10.0268 23.6202C10.0021 23.6798 9.96576 23.734 9.92002 23.7796V23.7885Z" fill="#50E6FF"/>
<path d="M9.03468 6.89035L9.85246 7.70813C9.89933 7.75472 9.93653 7.81012 9.96191 7.87114C9.9873 7.93216 10.0004 7.9976 10.0004 8.06369C10.0004 8.12978 9.9873 8.19521 9.96191 8.25623C9.93653 8.31725 9.89933 8.37265 9.85246 8.41924L1.11113 17.1819L0.291574 16.3712C0.103112 16.1826 -0.00274658 15.9268 -0.00274658 15.6601C-0.00274658 15.3935 0.103112 15.1377 0.291574 14.949L8.32891 6.89035C8.42279 6.79732 8.54962 6.74512 8.6818 6.74512C8.81397 6.74512 8.9408 6.79732 9.03468 6.89035Z" fill="#1490DF"/>
<path d="M22.0747 24.3674C22.0282 24.3225 21.9911 24.2689 21.9654 24.2096C21.9397 24.1503 21.926 24.0866 21.925 24.022C21.924 23.9574 21.9358 23.8933 21.9596 23.8333C21.9835 23.7732 22.0189 23.7185 22.064 23.6722H22.0747L30.9635 14.8047L31.7031 15.5425C31.8916 15.7311 31.9974 15.9869 31.9974 16.2536C31.9974 16.5202 31.8916 16.776 31.7031 16.9647L23.5058 25.1211C23.4609 25.1676 23.4073 25.2047 23.348 25.2304C23.2888 25.2561 23.225 25.2698 23.1604 25.2708C23.0958 25.2718 23.0317 25.26 22.9717 25.2362C22.9117 25.2123 22.8569 25.1768 22.8107 25.1318L22.8 25.1229L22.0747 24.3674Z" fill="#50E6FF"/>
<path d="M23.664 7.47531L31.7084 15.5393C31.8944 15.7268 31.9988 15.9801 31.9988 16.2442C31.9988 16.5083 31.8944 16.7616 31.7084 16.9491L30.8889 17.7669L22.1404 8.99887C22.0479 8.90364 21.9962 8.77609 21.9962 8.64331C21.9962 8.51054 22.0479 8.38299 22.1404 8.28776L22.9582 7.47531C23.0521 7.38228 23.1789 7.33008 23.3111 7.33008C23.4433 7.33008 23.5701 7.38228 23.664 7.47531Z" fill="#1490DF"/>
</g>
<defs>
<linearGradient id="paint0_linear_855_10066" x1="13.6871" y1="10.8017" x2="13.6871" y2="18.7857" gradientUnits="userSpaceOnUse">
<stop offset="0.23" stop-color="#5EA0EF"/>
<stop offset="0.93" stop-color="#127FD9"/>
</linearGradient>
<linearGradient id="paint1_linear_855_10066" x1="17.648" y1="14.1274" x2="17.648" y2="22.1114" gradientUnits="userSpaceOnUse">
<stop offset="0.02" stop-color="#5EA0EF"/>
<stop offset="0.93" stop-color="#127FD9"/>
</linearGradient>
<clipPath id="clip0_855_10066">
<rect width="32" height="32" fill="white"/>
</clipPath>
</defs>
</svg>
