<svg width="32" height="32" viewBox="0 0 32 32" fill="none" xmlns="http://www.w3.org/2000/svg">
<g clip-path="url(#clip0_855_10048)">
<path d="M14.6702 4.48145H16.6649V17.0557H14.6702V4.48145Z" fill="#7A7A7A"/>
<path d="M18.5938 4.08861C18.5927 4.66756 18.4201 5.2332 18.0976 5.71405C17.7752 6.19489 17.3174 6.56935 16.7822 6.79009C16.247 7.01083 15.6583 7.06795 15.0906 6.95423C14.523 6.84051 14.0018 6.56105 13.5929 6.15117C13.184 5.74129 12.9058 5.2194 12.7935 4.65145C12.6811 4.0835 12.7397 3.495 12.9617 2.96032C13.1837 2.42564 13.5593 1.96878 14.0409 1.6475C14.5226 1.32622 15.0886 1.15492 15.6676 1.15527C16.0524 1.15527 16.4335 1.2312 16.789 1.3787C17.1445 1.5262 17.4674 1.74238 17.7392 2.01486C18.0111 2.28734 18.2265 2.61076 18.3731 2.96661C18.5197 3.32245 18.5947 3.70373 18.5938 4.08861Z" fill="#1490DF"/>
<path d="M15.2676 16.3906H12.0676C11.0695 16.4009 10.1115 16.7846 9.38228 17.4662C8.65308 18.1477 8.20557 19.0777 8.12795 20.0728C8.05032 21.0679 8.3482 22.0559 8.96289 22.8423C9.57758 23.6287 10.4645 24.1563 11.4489 24.3213C11.3756 23.828 11.3888 23.3256 11.488 22.8368C10.883 22.6979 10.3506 22.3406 9.99262 21.8335C9.6347 21.3263 9.47647 20.705 9.54826 20.0884C9.62004 19.4718 9.9168 18.9034 10.3817 18.492C10.8465 18.0807 11.4468 17.8553 12.0676 17.8591H15.2676C15.938 17.8591 16.581 18.1254 17.0551 18.5995C17.5292 19.0736 17.7956 19.7166 17.7956 20.3871C17.7956 21.0575 17.5292 21.7005 17.0551 22.1746C16.581 22.6487 15.938 22.9151 15.2676 22.9151H14.3893C14.2731 23.1658 14.2124 23.4387 14.2116 23.7151C14.2116 23.9426 14.2544 24.1682 14.3378 24.38H15.2747C15.806 24.3912 16.3342 24.2962 16.8284 24.1006C17.3225 23.905 17.7726 23.6128 18.1524 23.241C18.5321 22.8692 18.8338 22.4253 19.0398 21.9354C19.2457 21.4455 19.3518 20.9194 19.3518 20.388C19.3518 19.8565 19.2457 19.3304 19.0398 18.8405C18.8338 18.3506 18.5321 17.9067 18.1524 17.5349C17.7726 17.1631 17.3225 16.8709 16.8284 16.6753C16.3342 16.4797 15.806 16.3847 15.2747 16.396L15.2676 16.3906Z" fill="url(#paint0_linear_855_10048)"/>
<path d="M19.8791 19.7706C19.9079 19.9732 19.9233 20.1775 19.9254 20.3821C19.9275 20.6754 19.8983 20.968 19.8383 21.255C20.4431 21.3939 20.9754 21.7511 21.3333 22.258C21.6913 22.765 21.8496 23.3862 21.7781 24.0026C21.7065 24.619 21.4101 25.1874 20.9456 25.5989C20.481 26.0104 19.881 26.2361 19.2605 26.2328H16.0605C15.4014 26.2153 14.7751 25.9412 14.3152 25.4689C13.8552 24.9965 13.5978 24.3632 13.5978 23.7039C13.5978 23.0446 13.8552 22.4113 14.3152 21.939C14.7751 21.4666 15.4014 21.1925 16.0605 21.175H16.9387C17.0567 20.9255 17.1174 20.6528 17.1165 20.3768C17.1166 20.1492 17.0738 19.9236 16.9903 19.7119H16.0658C15.0216 19.734 14.0277 20.1642 13.297 20.9105C12.5664 21.6567 12.1572 22.6595 12.1572 23.7039C12.1572 24.7483 12.5664 25.7511 13.297 26.4974C14.0277 27.2436 15.0216 27.6739 16.0658 27.6959H19.2658C20.2639 27.6856 21.2219 27.3019 21.9511 26.6204C22.6803 25.9388 23.1278 25.0089 23.2054 24.0138C23.283 23.0187 22.9852 22.0306 22.3705 21.2442C21.7558 20.4578 20.8689 19.9302 19.8845 19.7652L19.8791 19.7706Z" fill="url(#paint1_linear_855_10048)"/>
<path d="M9.91998 29.3779L9.18754 30.1156C9.14119 30.163 9.08587 30.2005 9.02482 30.2262C8.96376 30.2518 8.8982 30.2651 8.83198 30.2651C8.76576 30.2651 8.7002 30.2518 8.63915 30.2262C8.57809 30.2005 8.52277 30.163 8.47643 30.1156L0.286203 21.9379C0.0977413 21.7492 -0.00811768 21.4934 -0.00811768 21.2268C-0.00811768 20.9601 0.0977413 20.7043 0.286203 20.5156L1.02576 19.7832L9.91465 28.6579C9.96039 28.7035 9.99669 28.7576 10.0215 28.8173C10.0462 28.8769 10.059 28.9408 10.059 29.0054C10.059 29.07 10.0462 29.1339 10.0215 29.1936C9.99669 29.2532 9.96039 29.3074 9.91465 29.353L9.91998 29.3779Z" fill="#50E6FF"/>
<path d="M9.03468 12.4797L9.85246 13.2975C9.89933 13.3441 9.93653 13.3995 9.96191 13.4605C9.9873 13.5215 10.0004 13.587 10.0004 13.653C10.0004 13.7191 9.9873 13.7846 9.96191 13.8456C9.93653 13.9066 9.89933 13.962 9.85246 14.0086L1.11113 22.7713L0.291574 21.9588C0.103112 21.7702 -0.00274658 21.5144 -0.00274658 21.2477C-0.00274658 20.981 0.103112 20.7253 0.291574 20.5366L8.32891 12.4797C8.37516 12.4332 8.43015 12.3963 8.49071 12.3711C8.55127 12.346 8.61621 12.333 8.6818 12.333C8.74738 12.333 8.81232 12.346 8.87288 12.3711C8.93344 12.3963 8.98843 12.4332 9.03468 12.4797Z" fill="#1490DF"/>
<path d="M22.0747 29.9568C21.9812 29.8657 21.9276 29.7412 21.9256 29.6106C21.9236 29.48 21.9734 29.354 22.064 29.26H22.0747L30.9636 20.3906L31.7031 21.1302C31.8916 21.3189 31.9975 21.5746 31.9975 21.8413C31.9975 22.108 31.8916 22.3637 31.7031 22.5524L23.5058 30.7088C23.4149 30.8022 23.2907 30.8558 23.1604 30.8578C23.0302 30.8598 22.9044 30.8101 22.8107 30.7195L22.8 30.7106L22.0747 29.9568Z" fill="#50E6FF"/>
<path d="M23.664 13.0652L31.7085 21.1292C31.8944 21.3167 31.9988 21.5701 31.9988 21.8341C31.9988 22.0982 31.8944 22.3516 31.7085 22.539L30.8889 23.3568L22.1405 14.5888C22.0488 14.4932 21.9976 14.3658 21.9976 14.2332C21.9976 14.1007 22.0488 13.9733 22.1405 13.8777L22.9582 13.067C23.0519 12.9738 23.1786 12.9212 23.3108 12.9209C23.4429 12.9206 23.5699 12.9724 23.664 13.0652Z" fill="#1490DF"/>
</g>
<defs>
<linearGradient id="paint0_linear_855_10048" x1="13.6871" y1="16.3906" x2="13.6871" y2="24.3746" gradientUnits="userSpaceOnUse">
<stop offset="0.23" stop-color="#5EA0EF"/>
<stop offset="0.32" stop-color="#5B9FEE"/>
<stop offset="0.48" stop-color="#509AEB"/>
<stop offset="0.57" stop-color="#3F92E6"/>
<stop offset="0.75" stop-color="#2688DF"/>
<stop offset="0.93" stop-color="#127FD9"/>
</linearGradient>
<linearGradient id="paint1_linear_855_10048" x1="17.648" y1="19.7172" x2="17.648" y2="27.7012" gradientUnits="userSpaceOnUse">
<stop offset="0.02" stop-color="#5EA0EF"/>
<stop offset="0.14" stop-color="#5B9FEE"/>
<stop offset="0.23" stop-color="#5B9FEE"/>
<stop offset="0.34" stop-color="#509AEB"/>
<stop offset="0.44" stop-color="#3F92E6"/>
<stop offset="0.63" stop-color="#2688DF"/>
<stop offset="0.93" stop-color="#127FD9"/>
</linearGradient>
<clipPath id="clip0_855_10048">
<rect width="32" height="32" fill="white"/>
</clipPath>
</defs>
</svg>
