<svg width="32" height="32" viewBox="0 0 32 32" fill="none" xmlns="http://www.w3.org/2000/svg">
<g clip-path="url(#clip0_855_10084)">
<path d="M7.689e-06 27.7335C-0.002087 27.7887 0.0119266 27.8433 0.0403383 27.8906C0.0687501 27.938 0.110331 27.976 0.160008 28.0002L2.3289 29.2446L6.0089 31.3779C6.08017 31.4181 6.16411 31.4294 6.24346 31.4095C6.32281 31.3897 6.39155 31.3402 6.43556 31.2713L7.68001 29.1024C7.73002 29.0496 7.75789 28.9796 7.75789 28.9068C7.75789 28.8341 7.73002 28.7641 7.68001 28.7113L3.23556 26.1868C3.19172 26.1575 3.1558 26.1179 3.13099 26.0713C3.10618 26.0248 3.09324 25.9729 3.09334 25.9202V6.08017C3.09324 6.02744 3.10618 5.97551 3.13099 5.92899C3.1558 5.88246 3.19172 5.84279 3.23556 5.8135L7.55556 3.32461C7.58997 3.3077 7.6206 3.28401 7.64562 3.25496C7.67064 3.22592 7.68952 3.19211 7.70115 3.15558C7.71277 3.11905 7.71689 3.08054 7.71326 3.04238C7.70962 3.00422 7.69832 2.96718 7.68001 2.9335L6.43556 0.711277C6.39155 0.642338 6.32281 0.592869 6.24346 0.573032C6.16411 0.553194 6.08017 0.564494 6.0089 0.60461L2.45334 2.70239L0.14223 4.00017C0.0925535 4.02429 0.0509723 4.06234 0.0225606 4.1097C-0.00585119 4.15705 -0.0198648 4.21165 -0.0177701 4.26683L7.689e-06 27.7335Z" fill="#949494"/>
<path d="M7.64445 2.89794L6.43556 0.711274C6.40181 0.659036 6.35357 0.617765 6.29674 0.592507C6.23991 0.567248 6.17695 0.559098 6.11556 0.569052C6.06983 0.551202 6.01906 0.551202 5.97334 0.569052L2.41778 2.66683L0.106669 4.00016L2.5779e-06 4.08905V4.23127L3.09334 6.00905C3.09324 5.95633 3.10617 5.90439 3.13098 5.85787C3.15579 5.81135 3.19172 5.77168 3.23556 5.74238L7.55556 3.2535C7.58996 3.23659 7.62059 3.2129 7.64561 3.18385C7.67063 3.1548 7.68952 3.121 7.70114 3.08446C7.71277 3.04793 7.71688 3.00943 7.71325 2.97127C7.70962 2.9331 7.69831 2.89607 7.68 2.86239L7.64445 2.89794ZM7.64445 29.1024L6.4 31.2713C6.36625 31.3235 6.31801 31.3648 6.26118 31.39C6.20435 31.4153 6.14139 31.4235 6.08 31.4135H5.93778L2.38222 29.3157L0.0711137 27.9824L-0.035553 27.8757V27.7335L3.05778 25.9557C3.05768 26.0084 3.07061 26.0604 3.09543 26.1069C3.12024 26.1534 3.15616 26.1931 3.2 26.2224L7.52 28.7113C7.58177 28.7484 7.62714 28.8076 7.64694 28.8769C7.66674 28.9462 7.6595 29.0204 7.62667 29.0846L7.64445 29.1024Z" fill="#A3A3A3"/>
<path d="M32 4.26663C32.0021 4.21145 31.9881 4.15685 31.9597 4.1095C31.9313 4.06215 31.8897 4.02409 31.84 3.99997L29.6711 2.75552L25.9911 0.622189C25.9198 0.582072 25.8359 0.570772 25.7565 0.59061C25.6772 0.610447 25.6085 0.659916 25.5644 0.728855L24.32 2.89774C24.2977 2.92848 24.2822 2.96362 24.2746 3.00082C24.267 3.03802 24.2674 3.07642 24.2758 3.11345C24.2842 3.15047 24.3004 3.18528 24.3234 3.21553C24.3463 3.24578 24.3755 3.27078 24.4089 3.28886L28.7289 5.77774C28.7727 5.80704 28.8086 5.84671 28.8335 5.89323C28.8583 5.93975 28.8712 5.99169 28.8711 6.04441V25.9022C28.8712 25.9549 28.8583 26.0068 28.8335 26.0534C28.8086 26.0999 28.7727 26.1396 28.7289 26.1689L24.4089 28.6577C24.3745 28.6747 24.3438 28.6983 24.3188 28.7274C24.2938 28.7564 24.2749 28.7902 24.2633 28.8268C24.2517 28.8633 24.2476 28.9018 24.2512 28.94C24.2548 28.9781 24.2661 29.0152 24.2844 29.0489L25.5289 31.2177C25.5729 31.2867 25.6416 31.3362 25.721 31.356C25.8003 31.3758 25.8843 31.3645 25.9555 31.3244L29.5111 29.2266L31.7511 27.9289C31.8008 27.9047 31.8424 27.8667 31.8708 27.8193C31.8992 27.772 31.9132 27.7174 31.9111 27.6622V4.26663H32Z" fill="#949494"/>
<path d="M24.3555 29.1024L25.6 31.2713C25.6337 31.3235 25.682 31.3648 25.7388 31.39C25.7956 31.4153 25.8586 31.4235 25.92 31.4135H26.0622L29.6178 29.3157L31.8578 28.0179L32.0355 27.9113C32.0534 27.8655 32.0534 27.8148 32.0355 27.7691L28.9422 25.9913C28.9423 26.044 28.9294 26.0959 28.9046 26.1425C28.8798 26.189 28.8438 26.2286 28.8 26.2579L24.48 28.7468C24.4289 28.7847 24.3911 28.8378 24.372 28.8985C24.3528 28.9591 24.3533 29.0242 24.3733 29.0846L24.3555 29.1024ZM24.3555 2.89794L25.6 0.711274C25.6337 0.659036 25.682 0.617765 25.7388 0.592507C25.7956 0.567248 25.8586 0.559098 25.92 0.569052C25.9657 0.551202 26.0165 0.551202 26.0622 0.569052L29.6178 2.66683L31.8578 3.96461L32.0355 4.07127C32.0534 4.117 32.0534 4.16777 32.0355 4.2135L28.9422 5.99127C28.9423 5.93855 28.9294 5.88662 28.9046 5.84009C28.8798 5.79357 28.8438 5.7539 28.8 5.72461L24.48 3.28905C24.4456 3.27214 24.415 3.24845 24.3899 3.2194C24.3649 3.19036 24.346 3.15655 24.3344 3.12002C24.3228 3.08349 24.3187 3.04499 24.3223 3.00682C24.3259 2.96866 24.3372 2.93162 24.3555 2.89794Z" fill="#A3A3A3"/>
<path d="M15.1467 22.9331C15.1468 23.0039 15.1324 23.074 15.1043 23.1389C15.0762 23.2039 15.035 23.2624 14.9833 23.3108C14.9316 23.3592 14.8705 23.3964 14.8038 23.4201C14.7371 23.4438 14.6662 23.4535 14.5955 23.4486H5.9911C5.92103 23.4535 5.85069 23.4444 5.78413 23.422C5.71757 23.3995 5.6561 23.3642 5.60324 23.3179C5.55038 23.2717 5.50718 23.2154 5.47611 23.1525C5.44504 23.0895 5.42673 23.0209 5.42221 22.9509V8.9953C5.42451 8.92525 5.44059 8.85634 5.46953 8.79251C5.49848 8.72867 5.53972 8.67117 5.59091 8.62329C5.64209 8.57541 5.70221 8.53809 5.76783 8.51346C5.83344 8.48883 5.90327 8.47737 5.97332 8.47974H14.5778C14.6484 8.47486 14.7193 8.48458 14.786 8.50829C14.8527 8.53201 14.9138 8.56921 14.9655 8.61758C15.0172 8.66595 15.0584 8.72445 15.0865 8.78943C15.1146 8.85442 15.129 8.9245 15.1289 8.9953L15.1467 22.9331Z" fill="#999999"/>
<path d="M6.86222 14.88C6.85504 14.7352 6.8765 14.5905 6.92535 14.454C6.97421 14.3175 7.04951 14.192 7.14694 14.0847C7.24437 13.9773 7.36202 13.8903 7.49315 13.8285C7.62427 13.7666 7.7663 13.7313 7.91111 13.7245H12.7467C13.0406 13.7383 13.3173 13.8673 13.5169 14.0836C13.7165 14.2998 13.823 14.5859 13.8133 14.88C13.8205 15.0272 13.7986 15.1742 13.7488 15.3129C13.6991 15.4515 13.6225 15.579 13.5234 15.688C13.4243 15.797 13.3047 15.8853 13.1714 15.948C13.0381 16.0107 12.8938 16.0465 12.7467 16.0534H7.91111C7.62031 16.035 7.3481 15.9041 7.15227 15.6883C6.95644 15.4726 6.85239 15.189 6.86222 14.8978V14.88ZM6.86222 11.4311C6.84762 11.1369 6.94952 10.8488 7.14584 10.6292C7.34216 10.4096 7.6171 10.2762 7.91111 10.2578H12.7467C12.8938 10.2647 13.0381 10.3004 13.1714 10.3631C13.3047 10.4258 13.4243 10.5142 13.5234 10.6232C13.6225 10.7322 13.6991 10.8597 13.7488 10.9983C13.7986 11.1369 13.8205 11.284 13.8133 11.4311C13.823 11.7253 13.7165 12.0114 13.5169 12.2276C13.3173 12.4439 13.0406 12.5728 12.7467 12.5867H7.91111C7.62031 12.5684 7.3481 12.4374 7.15227 12.2217C6.95644 12.0059 6.85239 11.7224 6.86222 11.4311Z" fill="#003067"/>
<path d="M8.21334 12.2129C8.64535 12.2129 8.99557 11.8627 8.99557 11.4307C8.99557 10.9987 8.64535 10.6484 8.21334 10.6484C7.78133 10.6484 7.43112 10.9987 7.43112 11.4307C7.43112 11.8627 7.78133 12.2129 8.21334 12.2129Z" fill="#50E6FF"/>
<path d="M8.21334 15.6621C8.64535 15.6621 8.99557 15.3119 8.99557 14.8799C8.99557 14.4479 8.64535 14.0977 8.21334 14.0977C7.78133 14.0977 7.43112 14.4479 7.43112 14.8799C7.43112 15.3119 7.78133 15.6621 8.21334 15.6621Z" fill="#50E6FF"/>
<path d="M26.8089 22.9331C26.8091 23.0039 26.7946 23.074 26.7665 23.139C26.7384 23.204 26.6972 23.2625 26.6455 23.3108C26.5938 23.3592 26.5327 23.3964 26.466 23.4201C26.3993 23.4438 26.3284 23.4535 26.2578 23.4487H17.6533C17.5833 23.4535 17.5129 23.4444 17.4464 23.422C17.3798 23.3996 17.3183 23.3642 17.2655 23.318C17.2126 23.2717 17.1694 23.2155 17.1383 23.1525C17.1073 23.0895 17.089 23.021 17.0844 22.9509V8.99533C17.0867 8.92528 17.1028 8.85637 17.1318 8.79254C17.1607 8.72871 17.202 8.67121 17.2531 8.62333C17.3043 8.57545 17.3644 8.53812 17.4301 8.51349C17.4957 8.48886 17.5655 8.4774 17.6356 8.47978H26.24C26.3101 8.47495 26.3804 8.48401 26.447 8.50644C26.5135 8.52887 26.575 8.56422 26.6279 8.61047C26.6807 8.65673 26.7239 8.71296 26.755 8.77596C26.7861 8.83895 26.8044 8.90746 26.8089 8.97756V22.9331Z" fill="#999999"/>
<path d="M18.4889 14.88C18.4837 14.5871 18.5917 14.3036 18.7904 14.0883C18.9891 13.8731 19.2632 13.7427 19.5555 13.7245H24.3911C24.6851 13.7383 24.9617 13.8673 25.1614 14.0836C25.361 14.2998 25.4674 14.5859 25.4578 14.88C25.4649 15.0272 25.443 15.1742 25.3933 15.3129C25.3435 15.4515 25.2669 15.579 25.1678 15.688C25.0687 15.797 24.9491 15.8853 24.8159 15.948C24.6826 16.0107 24.5382 16.0465 24.3911 16.0534H19.5555C19.4084 16.0465 19.2641 16.0107 19.1308 15.948C18.9975 15.8853 18.8779 15.797 18.7788 15.688C18.6797 15.579 18.6031 15.4515 18.5534 15.3129C18.5036 15.1742 18.4817 15.0272 18.4889 14.88ZM18.4889 11.4311C18.4791 11.1352 18.585 10.8471 18.7841 10.6281C18.9833 10.409 19.26 10.2762 19.5555 10.2578H24.3911C24.5382 10.2647 24.6826 10.3004 24.8159 10.3631C24.9491 10.4258 25.0687 10.5142 25.1678 10.6232C25.2669 10.7322 25.3435 10.8597 25.3933 10.9983C25.443 11.1369 25.4649 11.284 25.4578 11.4311C25.4674 11.7253 25.361 12.0114 25.1614 12.2276C24.9617 12.4439 24.6851 12.5728 24.3911 12.5867H19.5555C19.2632 12.5684 18.9891 12.4381 18.7904 12.2229C18.5917 12.0076 18.4837 11.724 18.4889 11.4311Z" fill="#003067"/>
<path d="M19.8755 12.2129C20.3076 12.2129 20.6578 11.8627 20.6578 11.4307C20.6578 10.9987 20.3076 10.6484 19.8755 10.6484C19.4435 10.6484 19.0933 10.9987 19.0933 11.4307C19.0933 11.8627 19.4435 12.2129 19.8755 12.2129Z" fill="#50E6FF"/>
<path d="M19.8755 15.6621C20.3076 15.6621 20.6578 15.3119 20.6578 14.8799C20.6578 14.4479 20.3076 14.0977 19.8755 14.0977C19.4435 14.0977 19.0933 14.4479 19.0933 14.8799C19.0933 15.3119 19.4435 15.6621 19.8755 15.6621Z" fill="#50E6FF"/>
</g>
<defs>
<clipPath id="clip0_855_10084">
<rect width="32" height="32" fill="white"/>
</clipPath>
</defs>
</svg>
