<svg width="32" height="32" viewBox="0 0 32 32" fill="none" xmlns="http://www.w3.org/2000/svg">
<path d="M0 7.39551H17.9733V17.4222C17.9733 17.5825 17.9097 17.7362 17.7963 17.8496C17.6829 17.9629 17.5292 18.0266 17.3689 18.0266H0.604444C0.444136 18.0266 0.290393 17.9629 0.177038 17.8496C0.0636824 17.7362 0 17.5825 0 17.4222L0 7.39551Z" fill="url(#paint0_linear_855_10090)"/>
<path d="M0.604444 3.55566H17.3689C17.5292 3.55566 17.6829 3.61935 17.7963 3.7327C17.9097 3.84606 17.9733 3.9998 17.9733 4.16011V7.39566H0V4.16011C0 3.9998 0.0636824 3.84606 0.177038 3.7327C0.290393 3.61935 0.444136 3.55566 0.604444 3.55566Z" fill="#767676"/>
<path d="M15.2533 4.71094H2.72001C2.5531 4.71094 2.41779 4.84625 2.41779 5.01316V5.95538C2.41779 6.12229 2.5531 6.2576 2.72001 6.2576H15.2533C15.4203 6.2576 15.5556 6.12229 15.5556 5.95538V5.01316C15.5556 4.84625 15.4203 4.71094 15.2533 4.71094Z" fill="#F2F2F2"/>
<path d="M7.00446 12.5869H24.9956V22.6136C24.9956 22.7739 24.9319 22.9276 24.8185 23.041C24.7052 23.1543 24.5514 23.218 24.3911 23.218H7.6089C7.44859 23.218 7.29485 23.1543 7.18149 23.041C7.06814 22.9276 7.00446 22.7739 7.00446 22.6136V12.5869Z" fill="url(#paint1_linear_855_10090)"/>
<path d="M7.60888 8.76465H24.3733C24.5336 8.76465 24.6874 8.82833 24.8007 8.94169C24.9141 9.05504 24.9778 9.20878 24.9778 9.36909V12.5869H7.02222V9.36909C7.02215 9.21182 7.08338 9.06071 7.19292 8.94785C7.30246 8.83499 7.45168 8.76927 7.60888 8.76465Z" fill="#767676"/>
<path d="M22.2578 9.91992H9.72446C9.55755 9.91992 9.42224 10.0552 9.42224 10.2221V11.1644C9.42224 11.3313 9.55755 11.4666 9.72446 11.4666H22.2578C22.4247 11.4666 22.56 11.3313 22.56 11.1644V10.2221C22.56 10.0552 22.4247 9.91992 22.2578 9.91992Z" fill="#F2F2F2"/>
<path d="M14.0267 17.8135H32V27.8401C32 28.0005 31.9363 28.1542 31.823 28.2675C31.7096 28.3809 31.5559 28.4446 31.3956 28.4446H14.6311C14.4708 28.4446 14.3171 28.3809 14.2037 28.2675C14.0904 28.1542 14.0267 28.0005 14.0267 27.8401V17.8135Z" fill="url(#paint2_linear_855_10090)"/>
<path d="M14.6311 13.9736H31.3956C31.5559 13.9736 31.7096 14.0373 31.823 14.1507C31.9363 14.264 32 14.4178 32 14.5781V17.8136H14.0267V14.5781C14.0267 14.4178 14.0904 14.264 14.2037 14.1507C14.3171 14.0373 14.4708 13.9736 14.6311 13.9736Z" fill="#767676"/>
<path d="M27.0578 23.9292C27.8629 23.9292 28.5155 23.2766 28.5155 22.4715C28.5155 21.6663 27.8629 21.0137 27.0578 21.0137C26.2526 21.0137 25.6 21.6663 25.6 22.4715C25.6 23.2766 26.2526 23.9292 27.0578 23.9292Z" fill="#F2F2F2"/>
<path d="M23.0756 23.9292C23.8807 23.9292 24.5334 23.2766 24.5334 22.4715C24.5334 21.6663 23.8807 21.0137 23.0756 21.0137C22.2705 21.0137 21.6178 21.6663 21.6178 22.4715C21.6178 23.2766 22.2705 23.9292 23.0756 23.9292Z" fill="#F2F2F2"/>
<path d="M18.9689 23.9292C19.774 23.9292 20.4267 23.2766 20.4267 22.4715C20.4267 21.6663 19.774 21.0137 18.9689 21.0137C18.1638 21.0137 17.5111 21.6663 17.5111 22.4715C17.5111 23.2766 18.1638 23.9292 18.9689 23.9292Z" fill="#F2F2F2"/>
<path d="M29.28 15.1289H16.7467C16.5798 15.1289 16.4445 15.2642 16.4445 15.4311V16.3734C16.4445 16.5403 16.5798 16.6756 16.7467 16.6756H29.28C29.4469 16.6756 29.5822 16.5403 29.5822 16.3734V15.4311C29.5822 15.2642 29.4469 15.1289 29.28 15.1289Z" fill="#F2F2F2"/>
<defs>
<linearGradient id="paint0_linear_855_10090" x1="8.98667" y1="18.0088" x2="8.98667" y2="7.39551" gradientUnits="userSpaceOnUse">
<stop stop-color="#32BEDD"/>
<stop offset="0.18" stop-color="#32CAEA"/>
<stop offset="0.41" stop-color="#32D2F2"/>
<stop offset="0.78" stop-color="#32D4F5"/>
</linearGradient>
<linearGradient id="paint1_linear_855_10090" x1="16" y1="23.218" x2="16" y2="12.6047" gradientUnits="userSpaceOnUse">
<stop stop-color="#32BEDD"/>
<stop offset="0.18" stop-color="#32CAEA"/>
<stop offset="0.41" stop-color="#32D2F2"/>
<stop offset="0.78" stop-color="#32D4F5"/>
</linearGradient>
<linearGradient id="paint2_linear_855_10090" x1="23.0133" y1="28.4268" x2="23.0133" y2="17.8135" gradientUnits="userSpaceOnUse">
<stop stop-color="#32BEDD"/>
<stop offset="0.18" stop-color="#32CAEA"/>
<stop offset="0.41" stop-color="#32D2F2"/>
<stop offset="0.78" stop-color="#32D4F5"/>
</linearGradient>
</defs>
</svg>
