<svg width="32" height="32" viewBox="0 0 32 32" fill="none" xmlns="http://www.w3.org/2000/svg">
<path d="M0.888885 10.293H31.1111V27.1463C31.1111 27.4151 31.0043 27.6728 30.8143 27.8628C30.6243 28.0529 30.3665 28.1596 30.0978 28.1596H1.90222C1.63347 28.1596 1.37572 28.0529 1.18568 27.8628C0.995647 27.6728 0.888885 27.4151 0.888885 27.1463V10.293Z" fill="url(#paint0_linear_855_10065)"/>
<path d="M1.90222 3.85742H30.0978C30.3665 3.85742 30.6243 3.96418 30.8143 4.15422C31.0043 4.34426 31.1111 4.602 31.1111 4.87076V10.293H0.888885V4.85298C0.893547 4.58732 1.00236 4.33412 1.1919 4.14791C1.38143 3.9617 1.63652 3.85738 1.90222 3.85742Z" fill="#767676"/>
<path d="M22.7911 20.5688C24.146 20.5688 25.2444 19.4704 25.2444 18.1154C25.2444 16.7605 24.146 15.6621 22.7911 15.6621C21.4362 15.6621 20.3378 16.7605 20.3378 18.1154C20.3378 19.4704 21.4362 20.5688 22.7911 20.5688Z" fill="#F2F2F2"/>
<path d="M16.1067 20.5688C17.4616 20.5688 18.56 19.4704 18.56 18.1154C18.56 16.7605 17.4616 15.6621 16.1067 15.6621C14.7517 15.6621 13.6533 16.7605 13.6533 18.1154C13.6533 19.4704 14.7517 20.5688 16.1067 20.5688Z" fill="#F2F2F2"/>
<path d="M9.20889 20.5688C10.5638 20.5688 11.6622 19.4704 11.6622 18.1154C11.6622 16.7605 10.5638 15.6621 9.20889 15.6621C7.85395 15.6621 6.75555 16.7605 6.75555 18.1154C6.75555 19.4704 7.85395 20.5688 9.20889 20.5688Z" fill="#F2F2F2"/>
<path d="M26.56 5.77734H5.45777C5.18285 5.77734 4.95999 6.00021 4.95999 6.27512V7.87512C4.95999 8.15004 5.18285 8.3729 5.45777 8.3729H26.56C26.8349 8.3729 27.0578 8.15004 27.0578 7.87512V6.27512C27.0578 6.00021 26.8349 5.77734 26.56 5.77734Z" fill="#F2F2F2"/>
<defs>
<linearGradient id="paint0_linear_855_10065" x1="16" y1="28.1419" x2="16" y2="10.293" gradientUnits="userSpaceOnUse">
<stop stop-color="#32BEDD"/>
<stop offset="0.18" stop-color="#32CAEA"/>
<stop offset="0.41" stop-color="#32D2F2"/>
<stop offset="0.78" stop-color="#32D4F5"/>
</linearGradient>
</defs>
</svg>
