<svg width="32" height="32" viewBox="0 0 32 32" fill="none" xmlns="http://www.w3.org/2000/svg">
<path d="M0.888916 10.0625H31.1111V26.9158C31.1111 27.1846 31.0044 27.4423 30.8143 27.6324C30.6243 27.8224 30.3666 27.9292 30.0978 27.9292H1.90225C1.6335 27.9292 1.37575 27.8224 1.18571 27.6324C0.995678 27.4423 0.888916 27.1846 0.888916 26.9158V10.0625Z" fill="url(#paint0_linear_855_10064)"/>
<path d="M1.90225 3.55567H30.0978C30.3666 3.55567 30.6243 3.66243 30.8143 3.85246C31.0044 4.0425 31.1111 4.30025 31.1111 4.569V10.0623H0.888917V4.62233C0.88167 4.48484 0.902518 4.34731 0.950188 4.21815C0.997859 4.08898 1.07135 3.97088 1.16618 3.87106C1.26101 3.77125 1.37518 3.6918 1.50174 3.63757C1.62829 3.58334 1.76457 3.55547 1.90225 3.55567Z" fill="#0078D4"/>
<path d="M22.7911 20.3373C24.146 20.3373 25.2444 19.2389 25.2444 17.884C25.2444 16.5291 24.146 15.4307 22.7911 15.4307C21.4362 15.4307 20.3378 16.5291 20.3378 17.884C20.3378 19.2389 21.4362 20.3373 22.7911 20.3373Z" fill="#F2F2F2"/>
<path d="M16.1067 20.3373C17.4616 20.3373 18.56 19.2389 18.56 17.884C18.56 16.5291 17.4616 15.4307 16.1067 15.4307C14.7517 15.4307 13.6533 16.5291 13.6533 17.884C13.6533 19.2389 14.7517 20.3373 16.1067 20.3373Z" fill="#F2F2F2"/>
<path d="M9.20889 20.3373C10.5638 20.3373 11.6622 19.2389 11.6622 17.884C11.6622 16.5291 10.5638 15.4307 9.20889 15.4307C7.85395 15.4307 6.75555 16.5291 6.75555 17.884C6.75555 19.2389 7.85395 20.3373 9.20889 20.3373Z" fill="#F2F2F2"/>
<path d="M26.56 5.54688H5.4578C5.18288 5.54688 4.96002 5.76974 4.96002 6.04465V7.64465C4.96002 7.91957 5.18288 8.14243 5.4578 8.14243H26.56C26.8349 8.14243 27.0578 7.91957 27.0578 7.64465V6.04465C27.0578 5.76974 26.8349 5.54688 26.56 5.54688Z" fill="#F2F2F2"/>
<defs>
<linearGradient id="paint0_linear_855_10064" x1="16" y1="27.9114" x2="16" y2="10.0625" gradientUnits="userSpaceOnUse">
<stop stop-color="#32BEDD"/>
<stop offset="0.18" stop-color="#32CAEA"/>
<stop offset="0.41" stop-color="#32D2F2"/>
<stop offset="0.78" stop-color="#32D4F5"/>
</linearGradient>
</defs>
</svg>
