<svg width="32" height="32" viewBox="0 0 32 32" fill="none" xmlns="http://www.w3.org/2000/svg">
<path d="M0.506653 10.1455H31.4933V28.0655C31.4933 28.1692 31.4521 28.2687 31.3788 28.3421C31.3054 28.4154 31.2059 28.4566 31.1022 28.4566H0.897764C0.794035 28.4566 0.694554 28.4154 0.621207 28.3421C0.547859 28.2687 0.506653 28.1692 0.506653 28.0655V10.1455Z" fill="url(#paint0_linear_855_10085)"/>
<path d="M0.904905 3.54297H31.0951C31.1989 3.54297 31.2983 3.58417 31.3717 3.65752C31.445 3.73087 31.4862 3.83035 31.4862 3.93408V10.1456H0.513794V3.93408C0.513794 3.83035 0.555 3.73087 0.628348 3.65752C0.701695 3.58417 0.801176 3.54297 0.904905 3.54297Z" fill="#0078D4"/>
<path d="M22.9636 20.6821C24.3538 20.6821 25.4809 19.5551 25.4809 18.1648C25.4809 16.7745 24.3538 15.6475 22.9636 15.6475C21.5733 15.6475 20.4462 16.7745 20.4462 18.1648C20.4462 19.5551 21.5733 20.6821 22.9636 20.6821Z" fill="#0078D4"/>
<path d="M16.1031 20.6821C17.4934 20.6821 18.6204 19.5551 18.6204 18.1648C18.6204 16.7745 17.4934 15.6475 16.1031 15.6475C14.7128 15.6475 13.5858 16.7745 13.5858 18.1648C13.5858 19.5551 14.7128 20.6821 16.1031 20.6821Z" fill="#0078D4"/>
<path d="M9.03644 20.6821C10.4267 20.6821 11.5538 19.5551 11.5538 18.1648C11.5538 16.7745 10.4267 15.6475 9.03644 15.6475C7.64615 15.6475 6.5191 16.7745 6.5191 18.1648C6.5191 19.5551 7.64615 20.6821 9.03644 20.6821Z" fill="#0078D4"/>
<path d="M27.1271 5.51465H4.87109C4.76309 5.51465 4.67554 5.6022 4.67554 5.7102V7.97865C4.67554 8.08665 4.76309 8.1742 4.87109 8.1742H27.1271C27.2351 8.1742 27.3226 8.08665 27.3226 7.97865V5.7102C27.3226 5.6022 27.2351 5.51465 27.1271 5.51465Z" fill="#F2F2F2"/>
<defs>
<linearGradient id="paint0_linear_855_10085" x1="16" y1="28.4566" x2="16" y2="10.1455" gradientUnits="userSpaceOnUse">
<stop stop-color="#32BEDD"/>
<stop offset="0.175" stop-color="#32CAEA"/>
<stop offset="0.41" stop-color="#32D2F2"/>
<stop offset="0.775" stop-color="#32D4F5"/>
</linearGradient>
</defs>
</svg>
