<svg width="32" height="32" viewBox="0 0 32 32" fill="none" xmlns="http://www.w3.org/2000/svg">
<g clip-path="url(#clip0_855_10050)">
<path d="M8.61688 18.6608L15.9698 14.3906L23.3102 18.6608L15.9698 22.9328L8.61688 18.6608Z" fill="#9CEBFF"/>
<path d="M23.3351 18.6436V27.1573L15.9591 31.4418V22.9138L23.3351 18.6436Z" fill="#32BEDD"/>
<path d="M15.9591 22.928V31.4418L8.59735 27.1573V18.6436L15.9591 22.928Z" fill="#50E6FF"/>
<path d="M7.11113 28.7089L6.58669 29.2422C6.5536 29.2758 6.51417 29.3025 6.47068 29.3207C6.42718 29.3389 6.3805 29.3483 6.33335 29.3483C6.2862 29.3483 6.23952 29.3389 6.19603 29.3207C6.15254 29.3025 6.1131 29.2758 6.08002 29.2422L0.213354 23.3862C0.145894 23.32 0.0923077 23.2411 0.055727 23.1539C0.0191463 23.0668 0.000305176 22.9732 0.000305176 22.8787C0.000305176 22.7842 0.0191463 22.6906 0.055727 22.6035C0.0923077 22.5163 0.145894 22.4373 0.213354 22.3711L0.746687 21.8467L7.11113 28.204C7.17628 28.2705 7.21277 28.3598 7.21277 28.4529C7.21277 28.546 7.17628 28.6353 7.11113 28.7018V28.7089Z" fill="#50E6FF"/>
<path d="M6.47468 16.5993L7.06134 17.186C7.09467 17.219 7.12112 17.2584 7.13917 17.3017C7.15722 17.345 7.16652 17.3915 7.16652 17.4384C7.16652 17.4854 7.15722 17.5318 7.13917 17.5752C7.12112 17.6185 7.09467 17.6578 7.06134 17.6909L0.796453 23.9753L0.209787 23.394C0.0756036 23.2588 0.000305176 23.076 0.000305176 22.8855C0.000305176 22.6951 0.0756036 22.5123 0.209787 22.3771L5.96979 16.5993C6.00284 16.566 6.04217 16.5395 6.08549 16.5215C6.12882 16.5034 6.17529 16.4941 6.22223 16.4941C6.26917 16.4941 6.31564 16.5034 6.35897 16.5215C6.4023 16.5395 6.44162 16.566 6.47468 16.5993Z" fill="#1490DF"/>
<path d="M24.9298 28.6757C24.8657 28.6094 24.8299 28.5208 24.8299 28.4286C24.8299 28.3364 24.8657 28.2478 24.9298 28.1815L31.2658 21.8633L31.7991 22.3966C31.8658 22.4627 31.9187 22.5414 31.9548 22.628C31.9909 22.7147 32.0095 22.8076 32.0095 22.9015C32.0095 22.9954 31.9909 23.0883 31.9548 23.175C31.9187 23.2616 31.8658 23.3403 31.7991 23.4064L25.9556 29.2019C25.8892 29.2666 25.8002 29.3027 25.7076 29.3027C25.6149 29.3027 25.526 29.2666 25.4596 29.2019L24.9298 28.6757Z" fill="#50E6FF"/>
<path d="M26.0622 16.6439L31.792 22.3879C31.925 22.5212 31.9997 22.7018 31.9997 22.8901C31.9997 23.0784 31.925 23.259 31.792 23.3923L31.2089 23.9754L24.9866 17.7301C24.9208 17.6618 24.884 17.5707 24.884 17.4759C24.884 17.381 24.9208 17.2899 24.9866 17.2216L25.568 16.6439C25.6343 16.5798 25.7229 16.5439 25.8151 16.5439C25.9073 16.5439 25.9959 16.5798 26.0622 16.6439Z" fill="#1490DF"/>
<path d="M15.1538 13.0075C15.4024 12.8629 15.6849 12.7868 15.9725 12.7868C16.2601 12.7868 16.5425 12.8629 16.7911 13.0075L17.0258 13.1444V3.88574H15.0311V13.0786L15.1538 13.0075Z" fill="url(#paint0_linear_855_10050)"/>
<path d="M18.9565 3.48659C18.9565 4.0657 18.7847 4.6318 18.463 5.1133C18.1413 5.59481 17.684 5.9701 17.149 6.19171C16.6139 6.41333 16.0252 6.47131 15.4572 6.35833C14.8893 6.24536 14.3675 5.96649 13.9581 5.557C13.5486 5.14751 13.2697 4.62579 13.1567 4.05782C13.0437 3.48984 13.1017 2.90112 13.3233 2.3661C13.545 1.83107 13.9202 1.37378 14.4018 1.05205C14.8833 0.730318 15.4494 0.558594 16.0285 0.558594C16.8049 0.559065 17.5493 0.867701 18.0984 1.41671C18.6474 1.96571 18.956 2.71018 18.9565 3.48659Z" fill="#1490DF"/>
</g>
<defs>
<linearGradient id="paint0_linear_855_10050" x1="16.0285" y1="5.53908" x2="16.0285" y2="12.732" gradientUnits="userSpaceOnUse">
<stop stop-color="#A3A3A3"/>
<stop offset="1" stop-color="#999999"/>
</linearGradient>
<clipPath id="clip0_855_10050">
<rect width="32" height="32" fill="white"/>
</clipPath>
</defs>
</svg>
