<svg width="32" height="32" viewBox="0 0 32 32" fill="none" xmlns="http://www.w3.org/2000/svg">
<g clip-path="url(#clip0_855_10070)">
<path d="M32 16.2843L28.2311 20.0532C28.2078 20.0879 28.1729 20.1132 28.1328 20.1248C28.0926 20.1363 28.0496 20.1334 28.0114 20.1164C27.9732 20.0994 27.9422 20.0695 27.9239 20.0319C27.9055 19.9944 27.901 19.9515 27.9111 19.911V17.7776C27.9067 17.7289 27.8841 17.6836 27.8479 17.6507C27.8117 17.6178 27.7645 17.5996 27.7156 17.5998H21.4933L25.3689 21.3332C25.3982 21.3594 25.4362 21.3739 25.4756 21.3739C25.5149 21.3739 25.5529 21.3594 25.5822 21.3332L26.6667 20.231C26.6864 20.2082 26.7129 20.1924 26.7422 20.1857C26.7716 20.179 26.8023 20.1817 26.83 20.1936C26.8576 20.2055 26.8808 20.2258 26.8962 20.2517C26.9116 20.2776 26.9184 20.3076 26.9156 20.3376V24.231C26.9156 24.2875 26.8931 24.3418 26.8531 24.3818C26.8131 24.4218 26.7588 24.4443 26.7022 24.4443H22.88C22.85 24.4471 22.8199 24.4403 22.794 24.425C22.7682 24.4096 22.7478 24.3864 22.736 24.3587C22.7241 24.331 22.7213 24.3003 22.728 24.271C22.7348 24.2416 22.7506 24.2152 22.7733 24.1954L23.8756 23.111C23.9018 23.0816 23.9163 23.0436 23.9163 23.0043C23.9163 22.9649 23.9018 22.927 23.8756 22.8976L20.6933 19.5554V12.7465L23.9467 9.51096C23.9717 9.48454 23.9856 9.44955 23.9856 9.41318C23.9856 9.37681 23.9717 9.34182 23.9467 9.3154L22.8444 8.23096C22.8217 8.2112 22.8059 8.18474 22.7992 8.15539C22.7924 8.12604 22.7952 8.09532 22.8071 8.06764C22.8189 8.03997 22.8393 8.01678 22.8652 8.0014C22.891 7.98602 22.9211 7.97925 22.9511 7.98207H26.8444C26.9026 7.98656 26.9569 8.01287 26.9965 8.05574C27.0361 8.0986 27.0579 8.15485 27.0578 8.21318V11.9998C27.0606 12.0298 27.0538 12.0599 27.0384 12.0858C27.0231 12.1117 26.9999 12.132 26.9722 12.1439C26.9445 12.1557 26.9138 12.1585 26.8845 12.1518C26.8551 12.1451 26.8286 12.1292 26.8089 12.1065L25.7244 11.0221C25.6951 10.9958 25.6571 10.9813 25.6178 10.9813C25.5784 10.9813 25.5404 10.9958 25.5111 11.0221L21.5467 14.7732H27.6444C27.6963 14.7732 27.746 14.7526 27.7827 14.7159C27.8194 14.6792 27.84 14.6295 27.84 14.5776V12.4443C27.8299 12.4037 27.8344 12.3609 27.8527 12.3233C27.8711 12.2857 27.9021 12.2558 27.9403 12.2389C27.9785 12.2219 28.0215 12.2189 28.0617 12.2305C28.1018 12.242 28.1367 12.2674 28.16 12.3021L32 15.9998C32.0221 16.0164 32.04 16.0379 32.0523 16.0626C32.0647 16.0872 32.0711 16.1145 32.0711 16.1421C32.0711 16.1697 32.0647 16.1969 32.0523 16.2216C32.04 16.2463 32.0221 16.2677 32 16.2843Z" fill="#0078D4"/>
<path d="M19.6622 6.0625H1.03111C0.461644 6.0625 0 6.52414 0 7.09361V24.9069C0 25.4764 0.461644 25.9381 1.03111 25.9381H19.6622C20.2317 25.9381 20.6933 25.4764 20.6933 24.9069V7.09361C20.6933 6.52414 20.2317 6.0625 19.6622 6.0625Z" fill="url(#paint0_linear_855_10070)"/>
<path d="M8.37333 8.49805H4.55111C4.26637 8.49805 4.03555 8.72887 4.03555 9.0136V12.6225C4.03555 12.9072 4.26637 13.138 4.55111 13.138H8.37333C8.65806 13.138 8.88889 12.9072 8.88889 12.6225V9.0136C8.88889 8.72887 8.65806 8.49805 8.37333 8.49805Z" fill="white"/>
<path d="M16.64 13.8135H12.8178C12.533 13.8135 12.3022 14.0443 12.3022 14.329V17.9379C12.3022 18.2227 12.533 18.4535 12.8178 18.4535H16.64C16.9247 18.4535 17.1555 18.2227 17.1555 17.9379V14.329C17.1555 14.0443 16.9247 13.8135 16.64 13.8135Z" fill="white"/>
<path d="M8.37333 18.8623H4.55111C4.26637 18.8623 4.03555 19.0931 4.03555 19.3779V22.9868C4.03555 23.2715 4.26637 23.5023 4.55111 23.5023H8.37333C8.65806 23.5023 8.88889 23.2715 8.88889 22.9868V19.3779C8.88889 19.0931 8.65806 18.8623 8.37333 18.8623Z" fill="white"/>
</g>
<defs>
<linearGradient id="paint0_linear_855_10070" x1="10.3467" y1="25.8257" x2="10.3467" y2="6.00277" gradientUnits="userSpaceOnUse">
<stop stop-color="#5E9624"/>
<stop offset="0.01" stop-color="#5F9724"/>
<stop offset="0.35" stop-color="#6CAB29"/>
<stop offset="0.68" stop-color="#73B82C"/>
<stop offset="1" stop-color="#76BC2D"/>
</linearGradient>
<clipPath id="clip0_855_10070">
<rect width="32" height="32" fill="white"/>
</clipPath>
</defs>
</svg>
