<svg width="32" height="32" viewBox="0 0 32 32" fill="none" xmlns="http://www.w3.org/2000/svg">
<path d="M28.8533 30.5245C29.4179 30.5342 29.9635 30.3215 30.3726 29.9323C30.7817 29.5432 31.0214 29.0088 31.04 28.4445V28.089C30.1689 21.2268 26.2578 15.6445 18.7911 15.6445C11.3244 15.6445 7.27111 20.3734 6.50666 28.089C6.44689 28.6686 6.61904 29.2484 6.9855 29.7014C7.35195 30.1545 7.88289 30.444 8.46222 30.5068H28.8533V30.5245Z" fill="url(#paint0_linear_855_10075)"/>
<path opacity="0.8" d="M18.7911 17.2622C17.4681 17.2681 16.1717 16.8915 15.0578 16.1777L18.7555 25.8133L22.4178 16.2311C21.33 16.9093 20.0729 17.2667 18.7911 17.2622Z" fill="white"/>
<path d="M18.7911 17.262C22.5908 17.262 25.6711 14.1817 25.6711 10.382C25.6711 6.58223 22.5908 3.50195 18.7911 3.50195C14.9914 3.50195 11.9111 6.58223 11.9111 10.382C11.9111 14.1817 14.9914 17.262 18.7911 17.262Z" fill="url(#paint1_linear_855_10075)"/>
<path d="M10.6667 10.4529V1.77736C10.6691 1.73853 10.6635 1.69962 10.6503 1.66304C10.6371 1.62645 10.6166 1.59295 10.5899 1.56463C10.5632 1.5363 10.5311 1.51375 10.4953 1.49835C10.4596 1.48296 10.4211 1.47506 10.3822 1.47513H8.12443C8.08328 1.47271 8.04206 1.47873 8.00331 1.49283C7.96457 1.50693 7.92912 1.5288 7.89914 1.55711C7.86917 1.58542 7.8453 1.61956 7.82902 1.65744C7.81273 1.69532 7.80436 1.73613 7.80443 1.77736V10.1507C7.80017 10.2295 7.76696 10.3039 7.71118 10.3597C7.6554 10.4154 7.58098 10.4486 7.50221 10.4529H5.5111C5.46088 10.4444 5.41535 10.4183 5.38275 10.3791C5.35014 10.34 5.33261 10.2905 5.33332 10.2396V7.91069C5.33499 7.87084 5.32444 7.83144 5.30308 7.79777C5.28172 7.76409 5.25058 7.73775 5.21382 7.72227C5.17707 7.7068 5.13647 7.70293 5.09745 7.71119C5.05844 7.71944 5.02288 7.73943 4.99554 7.76847L1.04888 11.6796C1.01861 11.7063 0.994371 11.7391 0.977767 11.7759C0.961163 11.8127 0.952576 11.8526 0.952576 11.8929C0.952576 11.9333 0.961163 11.9732 0.977767 12.0099C0.994371 12.0467 1.01861 12.0796 1.04888 12.1062L4.95999 15.9996C4.97649 16.0491 5.01198 16.09 5.05866 16.1133C5.10534 16.1367 5.15937 16.1405 5.20888 16.124C5.25839 16.1075 5.29931 16.072 5.32265 16.0254C5.34598 15.9787 5.34982 15.9246 5.33332 15.8751V13.5285C5.33312 13.4795 5.35126 13.4323 5.38418 13.3961C5.41709 13.3599 5.46238 13.3374 5.5111 13.3329H10.3822C10.4592 13.3284 10.5316 13.2945 10.5845 13.2383C10.6374 13.1822 10.6668 13.1079 10.6667 13.0307V10.4529Z" fill="#0078D4"/>
<defs>
<linearGradient id="paint0_linear_855_10075" x1="18.7733" y1="13.8134" x2="18.7733" y2="34.2045" gradientUnits="userSpaceOnUse">
<stop offset="0.22" stop-color="#32D4F5"/>
<stop offset="1" stop-color="#198AB3"/>
</linearGradient>
<linearGradient id="paint1_linear_855_10075" x1="18.1867" y1="2.89751" x2="19.68" y2="21.4042" gradientUnits="userSpaceOnUse">
<stop offset="0.22" stop-color="#32D4F5"/>
<stop offset="1" stop-color="#198AB3"/>
</linearGradient>
</defs>
</svg>
