<svg width="32" height="32" viewBox="0 0 32 32" fill="none" xmlns="http://www.w3.org/2000/svg">
<path d="M23.7333 5.11956C23.731 4.58027 23.8349 4.04579 24.0391 3.54665C24.2433 3.04751 24.5439 2.59348 24.9236 2.21049C25.3033 1.8275 25.7547 1.52305 26.252 1.31451C26.7494 1.10598 27.2829 0.997447 27.8222 0.995117C28.6198 1.11195 29.3472 1.51608 29.8677 2.13156C30.3883 2.74703 30.6661 3.53145 30.6489 4.33734C30.655 5.09972 30.3975 5.8408 29.92 6.43512C29.8014 6.5798 29.6522 6.69632 29.4831 6.77626C29.314 6.8562 29.1293 6.89756 28.9422 6.89734H23.6089L23.7333 5.11956Z" fill="#0078D4"/>
<path d="M24.1067 0.906264H8.10666C7.03311 0.915641 6.00672 1.3487 5.25091 2.11116C4.4951 2.87363 4.07107 3.90378 4.07111 4.97738V31.0929H20.0711C21.1508 31.0929 22.1863 30.664 22.9498 29.9005C23.7133 29.137 24.1422 28.1015 24.1422 27.0218V22.7018V9.40404C24.0386 7.62777 24.0386 5.84698 24.1422 4.07071C24.7822 0.532931 28.6044 1.15515 28.6044 1.15515C27.1195 0.901242 25.6105 0.817739 24.1067 0.906264Z" fill="url(#paint0_linear_855_10080)"/>
<path d="M14.2222 20.6929V12.3373C14.3674 12.2556 14.4883 12.1369 14.5726 11.9932C14.6569 11.8496 14.7017 11.6861 14.7023 11.5196C14.7023 11.265 14.6011 11.0208 14.4211 10.8407C14.241 10.6607 13.9969 10.5596 13.7422 10.5596C13.5366 10.568 13.3391 10.6423 13.1789 10.7715C13.0187 10.9007 12.9042 11.078 12.8524 11.2772C12.8006 11.4764 12.8142 11.687 12.8912 11.8779C12.9682 12.0687 13.1045 12.2298 13.28 12.3373V20.6929C13.1347 20.7789 13.0141 20.901 12.9299 21.0474C12.8458 21.1939 12.8011 21.3596 12.8 21.5285C12.7814 21.6643 12.7921 21.8025 12.8314 21.9338C12.8706 22.0652 12.9376 22.1866 13.0277 22.2899C13.1178 22.3932 13.229 22.476 13.3538 22.5327C13.4786 22.5894 13.6141 22.6188 13.7511 22.6188C13.8882 22.6188 14.0237 22.5894 14.1485 22.5327C14.2733 22.476 14.3845 22.3932 14.4746 22.2899C14.5647 22.1866 14.6316 22.0652 14.6709 21.9338C14.7102 21.8025 14.7209 21.6643 14.7023 21.5285C14.7012 21.3596 14.6564 21.1939 14.5723 21.0474C14.4882 20.901 14.3676 20.7789 14.2222 20.6929Z" fill="#F2F2F2"/>
<path d="M20.3556 30.9871C19.7311 30.8915 19.1478 30.617 18.6759 30.197C18.2041 29.777 17.864 29.2293 17.6967 28.6202C17.5293 28.011 17.542 27.3665 17.733 26.7644C17.9241 26.1623 18.2854 25.6283 18.7733 25.2271C18.8406 25.1737 18.8893 25.1004 18.9126 25.0177C18.9359 24.9351 18.9325 24.8471 18.903 24.7664C18.8735 24.6858 18.8193 24.6164 18.7482 24.5683C18.677 24.5202 18.5925 24.4956 18.5067 24.4982H4.60445H4.08889C3.33143 24.6363 2.64642 25.0358 2.15322 25.6271C1.66002 26.2183 1.38989 26.9638 1.38989 27.7338C1.38989 28.5037 1.66002 29.2493 2.15322 29.8405C2.64642 30.4318 3.33143 30.8312 4.08889 30.9693C4.26025 30.9877 4.43309 30.9877 4.60445 30.9693L20.3556 30.9871Z" fill="#5EA0EF"/>
<path d="M16.7822 12.5151C17.3222 12.5151 17.76 12.0774 17.76 11.5373C17.76 10.9973 17.3222 10.5596 16.7822 10.5596C16.2422 10.5596 15.8044 10.9973 15.8044 11.5373C15.8044 12.0774 16.2422 12.5151 16.7822 12.5151Z" fill="#F2F2F2"/>
<path d="M13.6711 12.5151C14.2111 12.5151 14.6489 12.0774 14.6489 11.5373C14.6489 10.9973 14.2111 10.5596 13.6711 10.5596C13.1311 10.5596 12.6934 10.9973 12.6934 11.5373C12.6934 12.0774 13.1311 12.5151 13.6711 12.5151Z" fill="#F2F2F2"/>
<path d="M10.5778 12.5151C11.1178 12.5151 11.5555 12.0774 11.5555 11.5373C11.5555 10.9973 11.1178 10.5596 10.5778 10.5596C10.0377 10.5596 9.59998 10.9973 9.59998 11.5373C9.59998 12.0774 10.0377 12.5151 10.5778 12.5151Z" fill="#F2F2F2"/>
<path d="M10.6666 16.0003L11.2355 15.4314C11.2793 15.3825 11.3034 15.3193 11.3034 15.2537C11.3034 15.1881 11.2793 15.1248 11.2355 15.0759L6.80887 10.667L6.23998 11.2359C6.19268 11.2822 6.1551 11.3375 6.12945 11.3986C6.10379 11.4597 6.09058 11.5252 6.09058 11.5914C6.09058 11.6577 6.10379 11.7232 6.12945 11.7843C6.1551 11.8453 6.19268 11.9006 6.23998 11.947L10.3644 16.0003C10.4089 16.0309 10.4616 16.0473 10.5155 16.0473C10.5695 16.0473 10.6222 16.0309 10.6666 16.0003Z" fill="#B3B3B3"/>
<path d="M11.2 7.64421L10.6666 7.11087C10.6178 7.06714 10.5545 7.04297 10.4889 7.04297C10.4233 7.04297 10.36 7.06714 10.3111 7.11087L6.23998 11.1464C6.19268 11.1928 6.1551 11.2481 6.12945 11.3091C6.10379 11.3702 6.09058 11.4358 6.09058 11.502C6.09058 11.5682 6.10379 11.6338 6.12945 11.6948C6.1551 11.7559 6.19268 11.8112 6.23998 11.8575L6.79109 12.4442L11.2 7.99976C11.2261 7.97807 11.2471 7.9509 11.2615 7.92018C11.2759 7.88945 11.2834 7.85593 11.2834 7.82199C11.2834 7.78804 11.2759 7.75452 11.2615 7.72379C11.2471 7.69307 11.2261 7.6659 11.2 7.64421Z" fill="#F2F2F2"/>
<path d="M16.5689 16.0003L16 15.4137C15.9739 15.392 15.9529 15.3648 15.9385 15.3341C15.924 15.3033 15.9166 15.2698 15.9166 15.2359C15.9166 15.2019 15.924 15.1684 15.9385 15.1377C15.9529 15.107 15.9739 15.0798 16 15.0581L20.4978 10.667L21.0489 11.2359C21.0962 11.2822 21.1338 11.3375 21.1594 11.3986C21.1851 11.4597 21.1983 11.5252 21.1983 11.5914C21.1983 11.6577 21.1851 11.7232 21.1594 11.7843C21.1338 11.8453 21.0962 11.9006 21.0489 11.947L16.9244 16.0003C16.8756 16.0441 16.8123 16.0682 16.7467 16.0682C16.6811 16.0682 16.6178 16.0441 16.5689 16.0003Z" fill="#B3B3B3"/>
<path d="M16.0889 7.64421L16.6578 7.11087C16.7067 7.06714 16.77 7.04297 16.8356 7.04297C16.9012 7.04297 16.9645 7.06714 17.0133 7.11087L21.0489 11.1642C21.0962 11.2106 21.1338 11.2659 21.1594 11.3269C21.1851 11.388 21.1983 11.4535 21.1983 11.5198C21.1983 11.586 21.1851 11.6515 21.1594 11.7126C21.1338 11.7737 21.0962 11.829 21.0489 11.8753L20.4978 12.4442L16.0889 7.99976C16.0452 7.95087 16.021 7.88758 16.021 7.82199C16.021 7.75639 16.0452 7.6931 16.0889 7.64421Z" fill="#F2F2F2"/>
<defs>
<linearGradient id="paint0_linear_855_10080" x1="16.3378" y1="31.1107" x2="16.3378" y2="0.888488" gradientUnits="userSpaceOnUse">
<stop stop-color="#0078D4"/>
<stop offset="0.82" stop-color="#5EA0EF"/>
</linearGradient>
</defs>
</svg>
