<svg width="32" height="32" viewBox="0 0 32 32" fill="none" xmlns="http://www.w3.org/2000/svg">
<path d="M30.2898 1.89355H1.71202C1.17397 1.89355 0.737793 2.32973 0.737793 2.86778V21.2696C0.737793 21.8076 1.17397 22.2438 1.71202 22.2438H30.2898C30.8278 22.2438 31.264 21.8076 31.264 21.2696V2.86778C31.264 2.32973 30.8278 1.89355 30.2898 1.89355Z" fill="url(#paint0_linear_855_10074)"/>
<path d="M22.1209 28.4006C19.0987 27.9295 18.9849 25.7517 18.9938 22.2441H13.0062C13.0062 25.7517 12.896 27.933 9.87735 28.4006C9.46671 28.4644 9.09141 28.6701 8.81665 28.9819C8.54189 29.2937 8.38504 29.6918 8.37335 30.1073H23.6445C23.632 29.689 23.4724 29.2885 23.1937 28.9763C22.915 28.6641 22.5351 28.4602 22.1209 28.4006Z" fill="url(#paint1_linear_855_10074)"/>
<path d="M16.0516 19.0756C20.0231 19.0756 23.2427 15.856 23.2427 11.8845C23.2427 7.91293 20.0231 4.69336 16.0516 4.69336C12.08 4.69336 8.86047 7.91293 8.86047 11.8845C8.86047 15.856 12.08 19.0756 16.0516 19.0756Z" fill="url(#paint2_linear_855_10074)"/>
<path d="M20.2844 9.54199V14.4469L16.0444 16.9127V11.9989L20.2844 9.54199Z" fill="#50E6FF"/>
<path d="M20.2844 9.54195L16.0462 12.0059L11.8062 9.54195L16.0462 7.07617L20.2844 9.54195Z" fill="#C3F1FF"/>
<path d="M16.0551 12.0238L16.0125 16.9305L11.7956 14.4291L11.8383 9.52246L16.0551 12.0238Z" fill="#9CEBFF"/>
<path d="M21.7422 6.36804C21.6887 6.31434 21.6251 6.27174 21.5551 6.24267C21.4851 6.21359 21.41 6.19863 21.3342 6.19863C21.2584 6.19863 21.1833 6.21359 21.1133 6.24267C21.0433 6.27174 20.9797 6.31434 20.9262 6.36804C20.8164 6.47975 20.7549 6.6301 20.7549 6.78671C20.7549 6.94332 20.8164 7.09367 20.9262 7.20538C22.0394 8.32212 22.7346 9.78774 22.8952 11.3563C23.0558 12.9249 22.672 14.501 21.8083 15.8202C20.9445 17.1393 19.6533 18.1213 18.1514 18.6012C16.6494 19.0812 15.0281 19.03 13.5594 18.4562C12.0907 17.8824 10.8641 16.8209 10.0853 15.4499C9.3065 14.0789 9.02296 12.4817 9.28223 10.9264C9.5415 9.37104 10.3278 7.95221 11.5092 6.90794C12.6906 5.86367 14.1953 5.25751 15.7707 5.19115L15.6871 5.64093C15.6804 5.67936 15.6839 5.71888 15.6972 5.75552C15.7106 5.79216 15.7334 5.82464 15.7633 5.84968C15.7932 5.87473 15.8292 5.89146 15.8676 5.89819C15.9061 5.90492 15.9456 5.90142 15.9822 5.88804L18.1991 5.04538C18.2476 5.02715 18.2904 4.9963 18.3231 4.95603C18.3557 4.91575 18.3771 4.86749 18.3848 4.81623C18.3926 4.76498 18.3866 4.71257 18.3674 4.66441C18.3482 4.61625 18.3165 4.57409 18.2755 4.54227L16.4267 3.07915C16.3962 3.05495 16.3599 3.03923 16.3214 3.03358C16.283 3.02794 16.2437 3.03257 16.2076 3.04702C16.1715 3.06146 16.1398 3.0852 16.1159 3.11582C16.0919 3.14644 16.0765 3.18286 16.0711 3.22138L15.9573 4.01249C14.1033 4.0358 12.3145 4.69967 10.8942 5.89152C9.47385 7.08336 8.50951 8.7298 8.1647 10.5516C7.81988 12.3734 8.11583 14.2584 9.00235 15.8868C9.88886 17.5153 11.3114 18.787 13.0286 19.4862C14.7458 20.1855 16.652 20.2692 18.424 19.7232C20.1959 19.1772 21.7244 18.0352 22.7503 16.4907C23.7762 14.9463 24.2363 13.0945 24.0526 11.2495C23.8688 9.40449 23.0526 7.67984 21.7422 6.36804Z" fill="white"/>
<defs>
<linearGradient id="paint0_linear_855_10074" x1="16" y1="22.2456" x2="16" y2="1.89355" gradientUnits="userSpaceOnUse">
<stop stop-color="#0078D4"/>
<stop offset="0.817" stop-color="#5EA0EF"/>
</linearGradient>
<linearGradient id="paint1_linear_855_10074" x1="16.0054" y1="30.1073" x2="16.0054" y2="22.2441" gradientUnits="userSpaceOnUse">
<stop offset="0.149" stop-color="#CCCCCC"/>
<stop offset="1" stop-color="#707070"/>
</linearGradient>
<linearGradient id="paint2_linear_855_10074" x1="16.0516" y1="0.336026" x2="16.0516" y2="19.0134" gradientUnits="userSpaceOnUse">
<stop stop-color="#0078D4"/>
<stop offset="1" stop-color="#005BA1"/>
</linearGradient>
</defs>
</svg>
