<svg width="32" height="32" viewBox="0 0 32 32" fill="none" xmlns="http://www.w3.org/2000/svg">
<path d="M23.6835 1.60742H1.5271C1.08626 1.60742 0.728882 1.9648 0.728882 2.40564V16.667C0.728882 17.1078 1.08626 17.4652 1.5271 17.4652H23.6835C24.1244 17.4652 24.4818 17.1078 24.4818 16.667V2.40564C24.4818 1.9648 24.1244 1.60742 23.6835 1.60742Z" fill="#005BA1"/>
<path d="M27.3156 4.83594H5.15912C4.71828 4.83594 4.3609 5.19331 4.3609 5.63416V19.8955C4.3609 20.3363 4.71828 20.6937 5.15912 20.6937H27.3156C27.7564 20.6937 28.1138 20.3363 28.1138 19.8955V5.63416C28.1138 5.19331 27.7564 4.83594 27.3156 4.83594Z" fill="#0078D4"/>
<path d="M30.4747 8.52344H8.31824C7.8774 8.52344 7.52002 8.88081 7.52002 9.32166V23.583C7.52002 24.0238 7.8774 24.3812 8.31824 24.3812H30.4747C30.9155 24.3812 31.2729 24.0238 31.2729 23.583V9.32166C31.2729 8.88081 30.9155 8.52344 30.4747 8.52344Z" fill="url(#paint0_linear_855_10076)"/>
<path d="M24.0942 29.0541C21.744 28.679 21.744 26.9866 21.744 24.3555H17.0453C17.0453 27.0808 17.0453 28.7715 14.6969 29.0541C14.375 29.1037 14.0808 29.2651 13.866 29.5098C13.6511 29.7546 13.5293 30.0672 13.5218 30.3928H25.2693C25.2619 30.0672 25.14 29.7546 24.9252 29.5098C24.7103 29.2651 24.4161 29.1037 24.0942 29.0541Z" fill="url(#paint1_linear_855_10076)"/>
<path d="M19.1147 21.59C22.0779 21.59 24.48 19.1879 24.48 16.2247C24.48 13.2615 22.0779 10.8594 19.1147 10.8594C16.1515 10.8594 13.7493 13.2615 13.7493 16.2247C13.7493 19.1879 16.1515 21.59 19.1147 21.59Z" fill="url(#paint2_linear_855_10076)"/>
<path d="M22.272 14.4766V18.137L19.1093 19.9752V16.3095L22.272 14.4766Z" fill="#50E6FF"/>
<path d="M22.272 14.4767L19.1093 16.3149L15.9467 14.4749L19.1093 12.6367L22.272 14.4767Z" fill="#C3F1FF"/>
<path d="M19.1182 16.3296L19.0862 19.99L15.9377 18.1233L15.9697 14.4629L19.1182 16.3296Z" fill="#9CEBFF"/>
<path d="M23.36 12.1086C23.2791 12.0285 23.1699 11.9836 23.056 11.9836C22.9421 11.9836 22.8329 12.0285 22.752 12.1086C22.67 12.1918 22.6241 12.3039 22.6241 12.4206C22.6241 12.5374 22.67 12.6495 22.752 12.7326C23.5823 13.5655 24.1008 14.6586 24.2207 15.8285C24.3406 16.9984 24.0546 18.1739 23.4105 19.1579C22.7665 20.1419 21.8037 20.8745 20.6835 21.2328C19.5634 21.5911 18.3541 21.5532 17.2586 21.1256C16.1631 20.698 15.2479 19.9067 14.6666 18.8844C14.0854 17.8621 13.8733 16.6709 14.0661 15.5108C14.2589 14.3507 14.8448 13.2922 15.7255 12.5128C16.6062 11.7335 17.7282 11.2807 18.9031 11.2304L18.8409 11.5664C18.8365 11.5948 18.8396 11.6238 18.8499 11.6506C18.8603 11.6773 18.8775 11.7009 18.8998 11.7189C18.9222 11.7369 18.9488 11.7487 18.9772 11.7532C19.0055 11.7576 19.0346 11.7545 19.0613 11.7442L20.7147 11.1166C20.7507 11.1029 20.7824 11.0799 20.8067 11.05C20.8309 11.02 20.8469 10.9842 20.8528 10.9461C20.8588 10.908 20.8546 10.8691 20.8406 10.8331C20.8266 10.7972 20.8034 10.7656 20.7733 10.7415L19.3778 9.66065C19.3549 9.64295 19.3279 9.63154 19.2993 9.62756C19.2707 9.62357 19.2415 9.62715 19.2147 9.63794C19.1879 9.64873 19.1644 9.66636 19.1466 9.68905C19.1287 9.71175 19.1171 9.73874 19.1129 9.76732L19.0293 10.3558C17.6459 10.3765 16.3121 10.875 15.2542 11.7667C14.1963 12.6585 13.4794 13.8887 13.2249 15.2487C12.9704 16.6088 13.1941 18.0149 13.8581 19.2289C14.522 20.4428 15.5853 21.3898 16.8677 21.9093C18.1501 22.4288 19.5727 22.4888 20.8943 22.0792C22.2159 21.6696 23.3552 20.8155 24.119 19.6619C24.8828 18.5082 25.2242 17.1258 25.0852 15.7492C24.9462 14.3726 24.3354 13.0864 23.3564 12.1086H23.36Z" fill="white"/>
<defs>
<linearGradient id="paint0_linear_855_10076" x1="19.3956" y1="24.4061" x2="19.3956" y2="8.52344" gradientUnits="userSpaceOnUse">
<stop stop-color="#0078D4"/>
<stop offset="0.817" stop-color="#5EA0EF"/>
</linearGradient>
<linearGradient id="paint1_linear_855_10076" x1="19.3956" y1="30.3928" x2="19.3956" y2="24.2612" gradientUnits="userSpaceOnUse">
<stop offset="0.15" stop-color="#CCCCCC"/>
<stop offset="1" stop-color="#707070"/>
</linearGradient>
<linearGradient id="paint2_linear_855_10076" x1="19.1147" y1="7.60782" x2="19.1147" y2="21.5438" gradientUnits="userSpaceOnUse">
<stop stop-color="#0078D4"/>
<stop offset="1" stop-color="#005BA1"/>
</linearGradient>
</defs>
</svg>
