<svg width="32" height="32" viewBox="0 0 32 32" fill="none" xmlns="http://www.w3.org/2000/svg">
<path d="M16.0551 13.6895C15.596 13.6902 15.1474 13.8271 14.7662 14.0828C14.385 14.3385 14.0882 14.7017 13.9134 15.1262C13.7386 15.5507 13.6937 16.0175 13.7843 16.4675C13.875 16.9176 14.0971 17.3306 14.4226 17.6543C14.7481 17.9781 15.1623 18.198 15.6128 18.2862C16.0633 18.3744 16.5299 18.327 16.9535 18.15C17.377 17.9729 17.7385 17.6741 17.9922 17.2915C18.2459 16.9089 18.3804 16.4596 18.3786 16.0006C18.3763 15.3862 18.1303 14.7978 17.6947 14.3646C17.2591 13.9313 16.6695 13.6885 16.0551 13.6895Z" fill="url(#paint0_linear_855_10053)"/>
<path d="M11.2723 23.7774L10.1576 24.8953C10.063 24.9901 9.93467 25.0435 9.80077 25.0437C9.66686 25.0439 9.53837 24.9909 9.44355 24.8963L1.19679 16.6728C1.00716 16.4837 0.900405 16.227 0.900027 15.9592C0.899649 15.6914 1.00567 15.4344 1.19477 15.2448L2.30948 14.1269L11.27 23.0622C11.3172 23.1089 11.3548 23.1645 11.3804 23.2258C11.4061 23.2871 11.4194 23.3529 11.4197 23.4193C11.4199 23.4858 11.407 23.5516 11.3817 23.6131C11.3564 23.6745 11.3192 23.7304 11.2723 23.7774Z" fill="#50E6FF"/>
<path d="M9.98948 7.10469L11.1061 8.21814C11.2009 8.31269 11.2543 8.44104 11.2545 8.57494C11.2547 8.70885 11.2016 8.83735 11.1071 8.93216L2.30116 17.763L1.18833 16.6533C0.998697 16.4642 0.891947 16.2076 0.891569 15.9397C0.89119 15.6719 0.997213 15.4149 1.18632 15.2253L9.27924 7.10947C9.37379 7.01465 9.50213 6.96127 9.63604 6.96108C9.76994 6.9609 9.89844 7.01391 9.99326 7.10846L9.98948 7.10469Z" fill="#1490DF"/>
<path d="M29.6924 14.1289L30.8072 15.2468C30.9963 15.4364 31.1023 15.6934 31.1019 15.9612C31.1015 16.229 30.9948 16.4857 30.8051 16.6748L22.5584 24.8983C22.5114 24.9451 22.4557 24.9822 22.3944 25.0075C22.3331 25.0328 22.2675 25.0457 22.2012 25.0457C22.1349 25.0456 22.0692 25.0324 22.008 25.007C21.9468 24.9815 21.8912 24.9442 21.8444 24.8973L20.7296 23.7794C20.6828 23.7325 20.6457 23.6767 20.6204 23.6155C20.5951 23.5542 20.5822 23.4885 20.5823 23.4222C20.5824 23.3559 20.5955 23.2903 20.621 23.229C20.6464 23.1678 20.6837 23.1122 20.7307 23.0654L29.6924 14.1289Z" fill="#50E6FF"/>
<path d="M30.814 16.6483L29.6961 17.763L20.8902 8.93212C20.8434 8.88517 20.8063 8.82946 20.781 8.76817C20.7557 8.70687 20.7427 8.6412 20.7428 8.5749C20.7429 8.5086 20.7561 8.44296 20.7815 8.38174C20.807 8.32052 20.8443 8.26492 20.8912 8.2181L22.0078 7.10465C22.0548 7.05783 22.1105 7.02072 22.1718 6.99543C22.2331 6.97015 22.2987 6.95718 22.365 6.95727C22.4313 6.95737 22.497 6.97052 22.5582 6.99598C22.6194 7.02144 22.675 7.05871 22.7218 7.10566L30.8148 15.2215C31.0039 15.4111 31.1099 15.6681 31.1095 15.9359C31.1091 16.2037 31.0024 16.4604 30.8127 16.6495L30.814 16.6483Z" fill="#1490DF"/>
<defs>
<linearGradient id="paint0_linear_855_10053" x1="16.0586" y1="18.3206" x2="16.0586" y2="13.6806" gradientUnits="userSpaceOnUse">
<stop stop-color="#5E9624"/>
<stop offset="0.241" stop-color="#6FB02A"/>
<stop offset="0.501" stop-color="#7CC52F"/>
<stop offset="0.756" stop-color="#83D232"/>
<stop offset="1" stop-color="#86D633"/>
</linearGradient>
</defs>
</svg>
