<svg width="32" height="32" viewBox="0 0 32 32" fill="none" xmlns="http://www.w3.org/2000/svg">
<g clip-path="url(#clip0_855_10058)">
<path d="M21.8489 0.888672H10.1511C10.0184 0.889116 9.88716 0.916081 9.76504 0.967981C9.64292 1.01988 9.5324 1.09567 9.44 1.19089L1.19111 9.43978C1.09588 9.53219 1.0201 9.6427 0.968195 9.76482C0.916294 9.88694 0.889329 10.0182 0.888885 10.1509V21.8487C0.889329 21.9814 0.916294 22.1126 0.968195 22.2347C1.0201 22.3569 1.09588 22.4674 1.19111 22.5598L9.44 30.8087C9.5324 30.9039 9.64292 30.9797 9.76504 31.0316C9.88716 31.0835 10.0184 31.1104 10.1511 31.1109H21.8489C21.9816 31.1104 22.1128 31.0835 22.235 31.0316C22.3571 30.9797 22.4676 30.9039 22.56 30.8087L30.8089 22.5598C30.9041 22.4674 30.9799 22.3569 31.0318 22.2347C31.0837 22.1126 31.1107 21.9814 31.1111 21.8487V10.1509C31.1107 10.0182 31.0837 9.88694 31.0318 9.76482C30.9799 9.6427 30.9041 9.53219 30.8089 9.43978L22.56 1.19089C22.4676 1.09567 22.3571 1.01988 22.235 0.967981C22.1128 0.916081 21.9816 0.889116 21.8489 0.888672Z" fill="url(#paint0_linear_855_10058)"/>
<path d="M10.6667 13.5819L10.5422 13.7063L8.76444 15.4841C8.73459 15.5195 8.71523 15.5626 8.70854 15.6085C8.70185 15.6543 8.70809 15.7011 8.72657 15.7436C8.74505 15.7861 8.77503 15.8226 8.81313 15.849C8.85123 15.8754 8.89594 15.8906 8.94222 15.893H15.6978C15.7638 15.893 15.8271 15.8667 15.8738 15.8201C15.9204 15.7734 15.9467 15.7101 15.9467 15.6441V8.97741C15.9585 8.89962 15.9389 8.82032 15.8922 8.75698C15.8455 8.69363 15.7756 8.65142 15.6978 8.63964C15.62 8.62785 15.5407 8.64745 15.4773 8.69412C15.414 8.7408 15.3718 8.81073 15.36 8.88852L13.5822 10.6663L13.4578 10.7907C13.4089 10.8345 13.3456 10.8587 13.28 10.8587C13.2144 10.8587 13.1511 10.8345 13.1022 10.7907L8.53333 6.29297L6.09778 8.7463L10.6667 13.2263C10.7104 13.2752 10.7346 13.3385 10.7346 13.4041C10.7346 13.4697 10.7104 13.533 10.6667 13.5819Z" fill="#F2F2F2"/>
<path d="M28.7645 10.5071L21.4933 3.23602C21.4464 3.19002 21.3908 3.15376 21.3298 3.12935C21.2688 3.10494 21.2035 3.09286 21.1378 3.0938H10.8622C10.7965 3.09286 10.7313 3.10494 10.6702 3.12935C10.6092 3.15376 10.5536 3.19002 10.5067 3.23602L3.23557 10.5071C3.18956 10.5541 3.15331 10.6097 3.1289 10.6707C3.10448 10.7317 3.0924 10.797 3.09334 10.8627V21.1382C3.0951 21.2703 3.14578 21.397 3.23557 21.4938L10.5067 28.7649C10.5536 28.8109 10.6092 28.8472 10.6702 28.8716C10.7313 28.896 10.7965 28.9081 10.8622 28.9071H21.1378C21.2035 28.9081 21.2688 28.896 21.3298 28.8716C21.3908 28.8472 21.4464 28.8109 21.4933 28.7649L28.7645 21.4938C28.8542 21.397 28.9049 21.2703 28.9067 21.1382V10.8627C28.9076 10.797 28.8955 10.7317 28.8711 10.6707C28.8467 10.6097 28.8105 10.5541 28.7645 10.5071ZM28.1245 20.196L22.5245 14.596L23.8756 13.2271C23.9058 13.2004 23.9301 13.1676 23.9467 13.1308C23.9633 13.0941 23.9719 13.0542 23.9719 13.0138C23.9719 12.9734 23.9633 12.9336 23.9467 12.8968C23.9301 12.86 23.9058 12.8272 23.8756 12.8005C23.8124 12.7774 23.7431 12.7774 23.68 12.8005L18.8622 12.676C18.7851 12.6759 18.7108 12.7053 18.6546 12.7582C18.5984 12.8111 18.5645 12.8834 18.56 12.9605L18.6845 17.7782C18.6844 17.8171 18.6923 17.8556 18.7077 17.8914C18.7231 17.9271 18.7456 17.9593 18.7739 17.9859C18.8023 18.0126 18.8358 18.0332 18.8724 18.0464C18.9089 18.0596 18.9479 18.0651 18.9867 18.0627C19.0196 18.0798 19.0562 18.0888 19.0933 18.0888C19.1305 18.0888 19.1671 18.0798 19.2 18.0627L20.7111 16.5694L26.6667 22.436L22.1511 26.9516L16 20.8182L17.4222 19.556C17.4525 19.5293 17.4767 19.4965 17.4933 19.4597C17.5099 19.4229 17.5185 19.383 17.5185 19.3427C17.5185 19.3023 17.5099 19.2624 17.4933 19.2257C17.4767 19.1889 17.4525 19.156 17.4222 19.1294C17.3712 19.0753 17.301 19.0434 17.2267 19.0405L12.4445 18.8271C12.3673 18.827 12.293 18.8564 12.2368 18.9093C12.1806 18.9622 12.1468 19.0345 12.1422 19.1116L12.2667 23.9294C12.2666 23.9683 12.2745 24.0068 12.2899 24.0425C12.3053 24.0782 12.3278 24.1104 12.3562 24.137C12.3845 24.1637 12.418 24.1843 12.4546 24.1975C12.4912 24.2107 12.5301 24.2162 12.5689 24.2138C12.649 24.2136 12.7257 24.1816 12.7822 24.1249L14.2222 22.6494L19.6978 28.1249H10.9689L3.85779 21.0138V10.9694L6.09779 8.74713L8.53334 6.2938L10.9689 3.85825H21.0311L28.1422 10.9694L28.1245 20.196Z" fill="#F2F2F2"/>
</g>
<defs>
<linearGradient id="paint0_linear_855_10058" x1="16" y1="31.1109" x2="16" y2="0.888672" gradientUnits="userSpaceOnUse">
<stop offset="0.16" stop-color="#6F4BB2"/>
<stop offset="0.32" stop-color="#7450B5"/>
<stop offset="0.51" stop-color="#825DBF"/>
<stop offset="0.72" stop-color="#9A72CE"/>
<stop offset="0.94" stop-color="#BB90E4"/>
<stop offset="1" stop-color="#C69AEB"/>
</linearGradient>
<clipPath id="clip0_855_10058">
<rect width="32" height="32" fill="white"/>
</clipPath>
</defs>
</svg>
