<svg width="32" height="32" viewBox="0 0 32 32" fill="none" xmlns="http://www.w3.org/2000/svg">
<g clip-path="url(#clip0_855_10077)">
<path d="M22.6489 18.0444C23.7878 18.0444 24.7111 17.1211 24.7111 15.9821C24.7111 14.8432 23.7878 13.9199 22.6489 13.9199C21.51 13.9199 20.5867 14.8432 20.5867 15.9821C20.5867 17.1211 21.51 18.0444 22.6489 18.0444Z" fill="url(#paint0_linear_855_10077)"/>
<path d="M16.0711 18.0619C17.2101 18.0619 18.1334 17.1387 18.1334 15.9997C18.1334 14.8608 17.2101 13.9375 16.0711 13.9375C14.9322 13.9375 14.0089 14.8608 14.0089 15.9997C14.0089 17.1387 14.9322 18.0619 16.0711 18.0619Z" fill="url(#paint1_linear_855_10077)"/>
<path d="M9.49331 18.0619C10.6322 18.0619 11.5555 17.1387 11.5555 15.9997C11.5555 14.8608 10.6322 13.9375 9.49331 13.9375C8.35438 13.9375 7.43109 14.8608 7.43109 15.9997C7.43109 17.1387 8.35438 18.0619 9.49331 18.0619Z" fill="url(#paint2_linear_855_10077)"/>
<path d="M10.9904 24.2448L9.8104 25.4281C9.71053 25.5283 9.57495 25.5847 9.4335 25.5849C9.29205 25.5851 9.15632 25.5291 9.05616 25.4292L0.319859 16.7173C0.119541 16.5175 0.00678202 16.2463 0.00638685 15.9634C0.00599184 15.6805 0.117994 15.4091 0.317753 15.2088L1.49776 14.0255L10.9894 23.4906C11.0895 23.5905 11.1459 23.726 11.1461 23.8675C11.1463 24.0089 11.0903 24.1447 10.9904 24.2448Z" fill="#50E6FF"/>
<path d="M9.63186 6.59242L10.8152 7.77242C10.9153 7.8723 10.9717 8.00788 10.9719 8.14933C10.9721 8.29077 10.9161 8.42651 10.8162 8.52667L1.48917 17.8798L0.30587 16.6998C0.105552 16.5 -0.00720728 16.2289 -0.00760221 15.946C-0.00799714 15.6631 0.104005 15.3916 0.303763 15.1913L8.87761 6.59347C8.97749 6.49331 9.11307 6.43693 9.25452 6.43673C9.39597 6.43654 9.5317 6.49254 9.63186 6.59242Z" fill="#1490DF"/>
<path d="M30.5007 14.0088L31.6807 15.1921C31.8805 15.3924 31.9925 15.6639 31.9921 15.9468C31.9917 16.2297 31.8789 16.5008 31.6786 16.7006L22.9423 25.4125C22.8422 25.5124 22.7064 25.5684 22.565 25.5682C22.4235 25.568 22.288 25.5116 22.1881 25.4115L21.0081 24.2282C20.9082 24.128 20.8522 23.9923 20.8524 23.8508C20.8526 23.7094 20.909 23.5738 21.0091 23.4739L30.5007 14.0088Z" fill="#50E6FF"/>
<path d="M31.6771 16.6886L30.4938 17.8686L21.1667 8.51547C21.0668 8.41531 21.0108 8.27958 21.011 8.13813C21.0112 7.99668 21.0676 7.86111 21.1678 7.76123L22.3637 6.56867C22.4638 6.46879 22.5995 6.41279 22.741 6.41299C22.8824 6.41319 23.018 6.46957 23.1179 6.56972L31.6918 15.1676C31.8915 15.3679 32.0035 15.6393 32.0031 15.9222C32.0027 16.2051 31.89 16.4763 31.6896 16.676L31.6771 16.6886Z" fill="#1490DF"/>
</g>
<defs>
<linearGradient id="paint0_linear_855_10077" x1="22.6592" y1="18.0533" x2="22.6534" y2="13.9289" gradientUnits="userSpaceOnUse">
<stop stop-color="#0078D4"/>
<stop offset="0.82" stop-color="#5EA0EF"/>
</linearGradient>
<linearGradient id="paint1_linear_855_10077" x1="12.4267" y1="20.1242" x2="12.4445" y2="15.9997" gradientUnits="userSpaceOnUse">
<stop stop-color="#0078D4"/>
<stop offset="0.82" stop-color="#5EA0EF"/>
</linearGradient>
<linearGradient id="paint2_linear_855_10077" x1="5.84887" y1="20.1242" x2="5.86665" y2="15.9997" gradientUnits="userSpaceOnUse">
<stop stop-color="#0078D4"/>
<stop offset="0.82" stop-color="#5EA0EF"/>
</linearGradient>
<clipPath id="clip0_855_10077">
<rect width="32" height="32" fill="white"/>
</clipPath>
</defs>
</svg>
