<svg width="32" height="32" viewBox="0 0 32 32" fill="none" xmlns="http://www.w3.org/2000/svg">
<path d="M16 30.8076C24.1777 30.8076 30.8071 24.1782 30.8071 16.0005C30.8071 7.82273 24.1777 1.19336 16 1.19336C7.82224 1.19336 1.19287 7.82273 1.19287 16.0005C1.19287 24.1782 7.82224 30.8076 16 30.8076Z" fill="url(#paint0_linear_855_10082)"/>
<path d="M11.7333 7.35686L15.8222 3.26797C15.8673 3.22266 15.9209 3.1867 15.9799 3.16217C16.039 3.13763 16.1023 3.125 16.1662 3.125C16.2301 3.125 16.2934 3.13763 16.3525 3.16217C16.4115 3.1867 16.4651 3.22266 16.5102 3.26797L20.5991 7.35686C20.6298 7.38709 20.6509 7.42581 20.6595 7.46806C20.6682 7.51031 20.664 7.55418 20.6476 7.59406C20.6312 7.63394 20.6033 7.66803 20.5674 7.69196C20.5315 7.71589 20.4893 7.72858 20.4462 7.72842H17.9306C17.902 7.72841 17.8737 7.73408 17.8472 7.74509C17.8208 7.7561 17.7968 7.77224 17.7766 7.79257C17.7565 7.8129 17.7405 7.83702 17.7297 7.86354C17.7189 7.89006 17.7135 7.91845 17.7137 7.94708V13.0546C17.7137 13.1018 17.695 13.147 17.6617 13.1803C17.6283 13.2137 17.5831 13.2324 17.536 13.2324H14.7929C14.7457 13.2324 14.7005 13.2137 14.6671 13.1803C14.6338 13.147 14.6151 13.1018 14.6151 13.0546V7.94708C14.6153 7.9186 14.6099 7.89035 14.5992 7.86395C14.5886 7.83754 14.5728 7.8135 14.5528 7.7932C14.5328 7.77289 14.5091 7.75672 14.4828 7.7456C14.4566 7.73449 14.4284 7.72865 14.4 7.72842H11.888C11.8451 7.72809 11.8032 7.71515 11.7676 7.69121C11.732 7.66727 11.7042 7.63339 11.6878 7.59379C11.6713 7.55418 11.6668 7.5106 11.6749 7.46847C11.683 7.42634 11.7033 7.38753 11.7333 7.35686Z" fill="#9CEBFF"/>
<path d="M20.5973 24.6441L16.5084 28.733C16.4633 28.7783 16.4097 28.8143 16.3507 28.8388C16.2916 28.8633 16.2283 28.876 16.1644 28.876C16.1005 28.876 16.0372 28.8633 15.9782 28.8388C15.9191 28.8143 15.8655 28.7783 15.8204 28.733L11.7315 24.6441C11.7015 24.6134 11.6812 24.5746 11.6731 24.5325C11.665 24.4904 11.6695 24.4468 11.686 24.4072C11.7025 24.3676 11.7302 24.3337 11.7658 24.3098C11.8014 24.2858 11.8433 24.2729 11.8862 24.2726H14.4C14.4286 24.2726 14.457 24.2669 14.4834 24.2559C14.5098 24.2449 14.5338 24.2287 14.554 24.2084C14.5741 24.1881 14.5901 24.164 14.6009 24.1374C14.6117 24.1109 14.6171 24.0825 14.6169 24.0539V18.9463C14.6169 18.8992 14.6356 18.854 14.6689 18.8206C14.7023 18.7873 14.7475 18.7686 14.7946 18.7686H17.5395C17.5867 18.7686 17.6319 18.7873 17.6652 18.8206C17.6986 18.854 17.7173 18.8992 17.7173 18.9463V24.0539C17.7171 24.0825 17.7225 24.1109 17.7333 24.1374C17.7441 24.164 17.76 24.1881 17.7802 24.2084C17.8004 24.2287 17.8244 24.2449 17.8508 24.2559C17.8772 24.2669 17.9056 24.2726 17.9342 24.2726H20.4444C20.4875 24.2724 20.5297 24.2851 20.5656 24.309C20.6015 24.3329 20.6294 24.367 20.6458 24.4069C20.6622 24.4468 20.6664 24.4907 20.6577 24.5329C20.6491 24.5752 20.6281 24.6139 20.5973 24.6441Z" fill="#9CEBFF"/>
<path d="M22.9049 20.4677L18.816 16.3788C18.7707 16.3337 18.7347 16.2801 18.7102 16.2211C18.6857 16.1621 18.673 16.0988 18.673 16.0348C18.673 15.9709 18.6857 15.9076 18.7102 15.8486C18.7347 15.7895 18.7707 15.7359 18.816 15.6908L22.9049 11.602C22.9351 11.5712 22.9738 11.5502 23.0161 11.5415C23.0583 11.5329 23.1022 11.537 23.1421 11.5534C23.182 11.5698 23.2161 11.5978 23.24 11.6336C23.2639 11.6695 23.2766 11.7117 23.2765 11.7548V14.2704C23.2764 14.3281 23.2992 14.3834 23.3399 14.4244C23.3805 14.4653 23.4357 14.4886 23.4933 14.4891H28.6027C28.6498 14.4891 28.695 14.5078 28.7284 14.5411C28.7617 14.5745 28.7804 14.6197 28.7804 14.6668V17.4082C28.7804 17.4553 28.7617 17.5005 28.7284 17.5339C28.695 17.5672 28.6498 17.586 28.6027 17.586H23.4933C23.4358 17.586 23.3806 17.6088 23.34 17.6495C23.2993 17.6902 23.2765 17.7453 23.2765 17.8028V20.3166C23.2754 20.3592 23.262 20.4006 23.2378 20.4357C23.2136 20.4707 23.1797 20.498 23.1402 20.514C23.1008 20.5301 23.0575 20.5342 23.0156 20.526C22.9738 20.5178 22.9353 20.4975 22.9049 20.4677Z" fill="#F2F2F2"/>
<path d="M9.0951 11.6039L13.184 15.6928C13.2293 15.7379 13.2653 15.7915 13.2898 15.8505C13.3143 15.9096 13.327 15.9729 13.327 16.0368C13.327 16.1007 13.3143 16.164 13.2898 16.2231C13.2653 16.2821 13.2293 16.3357 13.184 16.3808L9.0951 20.4697C9.06443 20.4997 9.02561 20.52 8.98348 20.5281C8.94136 20.5362 8.89778 20.5317 8.85817 20.5152C8.81856 20.4987 8.78468 20.471 8.76074 20.4354C8.73681 20.3998 8.72387 20.3579 8.72354 20.315V17.7995C8.72354 17.7419 8.70069 17.6868 8.66002 17.6461C8.61934 17.6054 8.56418 17.5826 8.50665 17.5826H3.39732C3.35017 17.5826 3.30495 17.5638 3.27161 17.5305C3.23827 17.4972 3.21954 17.4519 3.21954 17.4048V14.6617C3.21954 14.6145 3.23827 14.5693 3.27161 14.536C3.30495 14.5026 3.35017 14.4839 3.39732 14.4839H8.50665C8.56434 14.4834 8.6195 14.4602 8.66013 14.4192C8.70075 14.3783 8.72355 14.3229 8.72354 14.2652V11.7568C8.72338 11.7137 8.73607 11.6715 8.76 11.6356C8.78393 11.5997 8.81802 11.5718 8.8579 11.5554C8.89778 11.539 8.94165 11.5348 8.9839 11.5435C9.02615 11.5521 9.06487 11.5731 9.0951 11.6039Z" fill="#F2F2F2"/>
<defs>
<linearGradient id="paint0_linear_855_10082" x1="16" y1="30.8076" x2="16" y2="1.19336" gradientUnits="userSpaceOnUse">
<stop stop-color="#005BA1"/>
<stop offset="0.15" stop-color="#0063AF"/>
<stop offset="0.439" stop-color="#006FC3"/>
<stop offset="0.724" stop-color="#0076D0"/>
<stop offset="1" stop-color="#0078D4"/>
</linearGradient>
</defs>
</svg>
