<svg width="32" height="32" viewBox="0 0 32 32" fill="none" xmlns="http://www.w3.org/2000/svg">
<g clip-path="url(#clip0_855_10049)">
<path d="M25.4009 16.806V16.8166L30.2098 16.7064L30.176 15.206L25.3973 15.3162V15.2877L21.408 14.8291V10.4877L21.3973 10.4682L24.2204 3.24685L22.8195 2.70996L19.9769 9.97929L19.9804 9.98107L16.9262 13.5064L12.1155 9.95085L12.0533 9.89929L9.24088 2.70996L7.83999 3.24685L10.6844 10.518L10.7218 10.5037L13.3013 16.1482L7.10399 15.2877L7.07377 15.3375V15.3162L2.31821 15.206L2.28265 16.7064L7.03821 16.8166L7.05065 16.3028L10.192 17.3037L10.816 19.4193L10.7555 21.8513L7.9111 29.1206L9.31199 29.6593L12.1564 22.3882L11.9253 22.2993L14.1671 20.1233L20.0071 21.5046L20.7378 22.1233L20.048 22.3882L22.8907 29.6593L24.2915 29.1206L21.4489 21.8513L21.3973 21.8708L21.8151 18.8468L25.4009 16.806Z" fill="#9CEBFF"/>
<path d="M32 16.0661C32 16.5211 31.8651 16.9658 31.6123 17.3441C31.3595 17.7224 31.0002 18.0173 30.5799 18.1914C30.1595 18.3655 29.697 18.4111 29.2508 18.3223C28.8045 18.2336 28.3946 18.0145 28.0729 17.6927C27.7512 17.371 27.5321 16.9611 27.4433 16.5149C27.3546 16.0686 27.4001 15.6061 27.5742 15.1857C27.7483 14.7654 28.0432 14.4061 28.4215 14.1533C28.7998 13.9006 29.2446 13.7656 29.6996 13.7656C30.3097 13.7656 30.8948 14.008 31.3262 14.4394C31.7576 14.8708 32 15.456 32 16.0661ZM2.30045 13.7656C1.84546 13.7656 1.40069 13.9006 1.02239 14.1533C0.644081 14.4061 0.349227 14.7654 0.175112 15.1857C0.000996749 15.6061 -0.0445597 16.0686 0.0442034 16.5149C0.132967 16.9611 0.352063 17.371 0.673786 17.6927C0.995509 18.0145 1.40541 18.2336 1.85165 18.3223C2.29789 18.4111 2.76044 18.3655 3.18079 18.1914C3.60114 18.0173 3.96042 17.7224 4.21319 17.3441C4.46597 16.9658 4.60089 16.5211 4.60089 16.0661C4.60089 15.456 4.35852 14.8708 3.9271 14.4394C3.49569 14.008 2.91056 13.7656 2.30045 13.7656ZM8.48533 27.3585C8.03027 27.3582 7.58533 27.4928 7.20679 27.7454C6.82825 27.9979 6.53312 28.3571 6.35873 28.7774C6.18435 29.1977 6.13854 29.6603 6.2271 30.1067C6.31566 30.553 6.53462 30.9631 6.85627 31.285C7.17792 31.6069 7.58782 31.8262 8.03411 31.9151C8.4804 32.004 8.94303 31.9585 9.36349 31.7845C9.78394 31.6104 10.1433 31.3156 10.3962 30.9372C10.649 30.5589 10.784 30.114 10.784 29.659C10.784 29.0492 10.5419 28.4643 10.1108 28.0329C9.67981 27.6016 9.09514 27.359 8.48533 27.3585ZM23.9164 27.3585C23.4614 27.3582 23.0164 27.4928 22.6379 27.7454C22.2594 27.9979 21.9642 28.3571 21.7898 28.7774C21.6155 29.1977 21.5696 29.6603 21.6582 30.1067C21.7468 30.553 21.9657 30.9631 22.2874 31.285C22.609 31.6069 23.0189 31.8262 23.4652 31.9151C23.9115 32.004 24.3741 31.9585 24.7946 31.7845C25.2151 31.6104 25.5744 31.3156 25.8273 30.9372C26.0801 30.5589 26.2151 30.114 26.2151 29.659C26.2151 29.0492 25.973 28.4643 25.542 28.0329C25.1109 27.6016 24.5263 27.359 23.9164 27.3585ZM8.23467 0.0429694C7.77961 0.0429696 7.33477 0.177933 6.95642 0.430788C6.57808 0.683643 6.28323 1.04303 6.10916 1.46348C5.9351 1.88394 5.88965 2.34657 5.97856 2.79286C6.06746 3.23915 6.28674 3.64905 6.60864 3.9707C6.93054 4.29235 7.3406 4.51131 7.78696 4.59987C8.23332 4.68843 8.69592 4.64262 9.11624 4.46824C9.53656 4.29385 9.89572 3.99872 10.1483 3.62018C10.4008 3.24164 10.5355 2.7967 10.5351 2.34164C10.5351 2.03962 10.4756 1.74057 10.36 1.46156C10.2443 1.18256 10.0749 0.929079 9.86122 0.715604C9.64758 0.50213 9.39397 0.332849 9.11487 0.217434C8.83578 0.10202 8.53668 0.0427359 8.23467 0.0429694ZM24.0853 0.0429694C23.6302 0.0426178 23.1852 0.177282 22.8066 0.429923C22.428 0.682564 22.1329 1.04183 21.9586 1.46225C21.7842 1.88267 21.7385 2.34536 21.8272 2.79177C21.9159 3.23818 22.1351 3.64824 22.4569 3.97007C22.7787 4.2919 23.1888 4.51103 23.6352 4.59974C24.0816 4.68845 24.5443 4.64274 24.9647 4.46841C25.3851 4.29407 25.7444 3.99894 25.997 3.62036C26.2497 3.24178 26.3844 2.79677 26.384 2.34164C26.384 1.73199 26.1418 1.14732 25.7107 0.716233C25.2797 0.28515 24.695 0.0429694 24.0853 0.0429694Z" fill="#86D633"/>
<path d="M6.28088 12.4785H25.7191V23.323C25.7191 23.4951 25.6507 23.6601 25.5291 23.7818C25.4074 23.9035 25.2423 23.9718 25.0702 23.9718H6.93333C6.76123 23.9718 6.59618 23.9035 6.47449 23.7818C6.3528 23.6601 6.28444 23.4951 6.28444 23.323V12.4785H6.28088Z" fill="url(#paint0_linear_855_10049)"/>
<path d="M6.93331 8.33594H25.0666C25.2387 8.33594 25.4038 8.4043 25.5255 8.52599C25.6472 8.64768 25.7155 8.81273 25.7155 8.98483V12.4782H6.28442V8.98483C6.28442 8.81273 6.35279 8.64768 6.47448 8.52599C6.59617 8.4043 6.76122 8.33594 6.93331 8.33594Z" fill="#0078D4"/>
<path d="M18.7911 16.916C18.9623 16.916 19.1297 16.9668 19.2721 17.0619C19.4145 17.1571 19.5255 17.2923 19.591 17.4505C19.6565 17.6087 19.6737 17.7828 19.6403 17.9507C19.6068 18.1186 19.5244 18.2729 19.4033 18.394C19.2822 18.5151 19.128 18.5975 18.96 18.6309C18.7921 18.6643 18.618 18.6472 18.4598 18.5817C18.3016 18.5161 18.1664 18.4052 18.0712 18.2628C17.9761 18.1204 17.9253 17.953 17.9253 17.7818C17.9253 17.6681 17.9477 17.5555 17.9912 17.4505C18.0347 17.3454 18.0985 17.25 18.1789 17.1696C18.2593 17.0892 18.3548 17.0254 18.4598 16.9819C18.5648 16.9384 18.6774 16.916 18.7911 16.916ZM15.1662 17.7889C15.1662 17.9602 15.217 18.1277 15.3123 18.2701C15.4075 18.4125 15.5428 18.5235 15.7011 18.5889C15.8594 18.6544 16.0336 18.6715 16.2016 18.6379C16.3696 18.6044 16.5238 18.5217 16.6448 18.4005C16.7658 18.2792 16.8482 18.1248 16.8814 17.9567C16.9146 17.7887 16.8972 17.6145 16.8314 17.4564C16.7656 17.2982 16.6543 17.1631 16.5117 17.0682C16.3691 16.9733 16.2015 16.9228 16.0302 16.9231C15.8009 16.9236 15.5812 17.015 15.4192 17.1773C15.2572 17.3396 15.1662 17.5596 15.1662 17.7889ZM12.4053 17.7889C12.4053 17.9601 12.4561 18.1275 12.5512 18.2699C12.6464 18.4123 12.7816 18.5233 12.9398 18.5888C13.098 18.6543 13.2721 18.6715 13.44 18.638C13.608 18.6046 13.7622 18.5222 13.8833 18.4011C14.0044 18.28 14.0868 18.1258 14.1203 17.9578C14.1537 17.7899 14.1365 17.6158 14.071 17.4576C14.0055 17.2994 13.8945 17.1642 13.7521 17.069C13.6097 16.9739 13.4423 16.9231 13.2711 16.9231C13.0415 16.9231 12.8213 17.0143 12.6589 17.1767C12.4965 17.3391 12.4053 17.5593 12.4053 17.7889Z" fill="url(#paint1_linear_855_10049)"/>
<path d="M13.8986 21.2482L13.4044 21.7442C13.3624 21.7861 13.3055 21.8097 13.2462 21.8097C13.1869 21.8097 13.13 21.7861 13.088 21.7442L9.4222 18.0891C9.38049 18.0477 9.34739 17.9984 9.3248 17.944C9.30222 17.8897 9.29059 17.8315 9.29059 17.7727C9.29059 17.7139 9.30222 17.6556 9.3248 17.6013C9.34739 17.547 9.38049 17.4977 9.4222 17.4562L9.91643 16.9602L13.8986 20.9318C13.9406 20.9738 13.9641 21.0307 13.9641 21.09C13.9641 21.1493 13.9406 21.2062 13.8986 21.2482ZM22.0853 16.9531L18.1031 20.9247C18.0821 20.9454 18.0655 20.97 18.0541 20.9971C18.0428 21.0243 18.0369 21.0535 18.0369 21.0829C18.0369 21.1123 18.0428 21.1415 18.0541 21.1687C18.0655 21.1958 18.0821 21.2205 18.1031 21.2411L18.5991 21.7371C18.6198 21.7581 18.6444 21.7747 18.6716 21.7861C18.6987 21.7975 18.7279 21.8033 18.7573 21.8033C18.7868 21.8033 18.8159 21.7975 18.8431 21.7861C18.8702 21.7747 18.8949 21.7581 18.9155 21.7371L22.5778 18.082C22.6616 17.998 22.7086 17.8842 22.7086 17.7656C22.7086 17.6469 22.6616 17.5331 22.5778 17.4491L22.0835 16.9531H22.0853Z" fill="white"/>
<path opacity="0.8" d="M13.3333 13.8417L13.8293 14.336C13.8712 14.3779 13.8948 14.4348 13.8948 14.4942C13.8948 14.5535 13.8712 14.6104 13.8293 14.6524L9.9182 18.5777L9.4222 18.0817C9.38049 18.0403 9.34739 17.991 9.3248 17.9366C9.30222 17.8823 9.29059 17.8241 9.29059 17.7653C9.29059 17.7065 9.30222 17.6482 9.3248 17.5939C9.34739 17.5396 9.38049 17.4903 9.4222 17.4488L13.0133 13.8417C13.0342 13.8204 13.0591 13.8035 13.0865 13.792C13.114 13.7804 13.1435 13.7745 13.1733 13.7745C13.2031 13.7745 13.2326 13.7804 13.2601 13.792C13.2876 13.8035 13.3125 13.8204 13.3333 13.8417ZM22.5778 18.0711C22.6195 18.0296 22.6526 17.9803 22.6752 17.926C22.6977 17.8717 22.7094 17.8134 22.7094 17.7546C22.7094 17.6958 22.6977 17.6376 22.6752 17.5833C22.6526 17.5289 22.6195 17.4796 22.5778 17.4382L18.9866 13.8311C18.9447 13.7892 18.8878 13.7656 18.8284 13.7656C18.7691 13.7656 18.7122 13.7892 18.6702 13.8311L18.1689 14.3324C18.127 14.3744 18.1034 14.4313 18.1034 14.4906C18.1034 14.5499 18.127 14.6068 18.1689 14.6488L22.08 18.5724L22.576 18.0764L22.5778 18.0711Z" fill="white"/>
</g>
<defs>
<linearGradient id="paint0_linear_855_10049" x1="16" y1="23.9647" x2="16" y2="12.4785" gradientUnits="userSpaceOnUse">
<stop stop-color="#0078D4"/>
<stop offset="0.775" stop-color="#5EA0EF"/>
</linearGradient>
<linearGradient id="paint1_linear_855_10049" x1="16.0302" y1="16.9213" x2="16.0302" y2="18.6582" gradientUnits="userSpaceOnUse">
<stop stop-color="white"/>
<stop offset="1" stop-color="white" stop-opacity="0.6"/>
</linearGradient>
<clipPath id="clip0_855_10049">
<rect width="32" height="32" fill="white"/>
</clipPath>
</defs>
</svg>
