<svg width="32" height="32" viewBox="0 0 32 32" fill="none" xmlns="http://www.w3.org/2000/svg">
<g clip-path="url(#clip0_855_10056)">
<path d="M26.7733 15.4131H24.9955V9.93759C25.011 7.36586 24.0664 4.88088 22.3467 2.9687C21.5423 2.03162 20.5437 1.28071 19.4201 0.768052C18.2966 0.255394 17.075 -0.00674556 15.84 -0.000189855C14.5931 -0.0171393 13.3577 0.239978 12.221 0.752991C11.0844 1.266 10.0744 2.02239 9.26221 2.9687C7.53037 4.87349 6.58397 7.36336 6.61332 9.93759V15.4131H5.17332C4.84942 15.4177 4.54008 15.5485 4.31102 15.7775C4.08196 16.0066 3.95125 16.3159 3.94666 16.6398V30.862C3.95125 31.1859 4.08196 31.4953 4.31102 31.7243C4.54008 31.9534 4.84942 32.0841 5.17332 32.0887H26.7733C27.0989 32.0842 27.4102 31.9541 27.6421 31.7255C27.874 31.4969 28.0086 31.1875 28.0178 30.862V16.6398C28.0086 16.3143 27.874 16.0049 27.6421 15.7763C27.4102 15.5477 27.0989 15.4176 26.7733 15.4131ZM20.7822 15.4131H10.8978V9.8487C10.9137 8.42534 11.4661 7.0604 12.4444 6.02648C12.861 5.54892 13.3745 5.16557 13.9508 4.90195C14.5271 4.63833 15.1529 4.50049 15.7867 4.49759C16.4228 4.50137 17.051 4.63952 17.63 4.903C18.2091 5.16648 18.7259 5.54933 19.1467 6.02648C19.3574 6.26488 19.5477 6.5206 19.7155 6.79092C20.3823 7.66793 20.7612 8.72991 20.8 9.83092L20.7822 15.4131Z" fill="url(#paint0_linear_855_10056)"/>
<path d="M26.8267 15.4131H5.1911C4.90203 15.414 4.62348 15.5217 4.40887 15.7153L27.6089 31.7153C27.7471 31.6041 27.8588 31.4633 27.9357 31.3034C28.0126 31.1434 28.0528 30.9683 28.0533 30.7909V16.5686C28.0271 16.2587 27.8875 15.9694 27.6611 15.7562C27.4347 15.5429 27.1376 15.4207 26.8267 15.4131Z" fill="#50E6FF"/>
<path opacity="0.2" d="M5.22665 15.4131H26.8444C27.1384 15.4162 27.4218 15.5232 27.6444 15.7153L4.42665 31.7153C4.29113 31.6017 4.18139 31.4604 4.10475 31.301C4.02812 31.1416 3.98634 30.9677 3.98221 30.7909V16.5686C4.01255 16.2572 4.15591 15.9677 4.3852 15.7548C4.61449 15.5419 4.91383 15.4203 5.22665 15.4131Z" fill="white"/>
<path d="M13.8667 18.8441L16 16.7108C16.0224 16.692 16.0507 16.6816 16.08 16.6816C16.1093 16.6816 16.1376 16.692 16.16 16.7108L18.2755 18.8441C18.2902 18.8538 18.3022 18.867 18.3106 18.8825C18.3189 18.8981 18.3233 18.9154 18.3233 18.933C18.3233 18.9506 18.3189 18.9679 18.3106 18.9834C18.3022 18.9989 18.2902 19.0121 18.2755 19.0219H17.0311C17.0028 19.0219 16.9757 19.0331 16.9557 19.0531C16.9357 19.0731 16.9244 19.1003 16.9244 19.1285V21.8663C16.9244 21.8946 16.9132 21.9217 16.8932 21.9417C16.8732 21.9617 16.8461 21.973 16.8178 21.973H15.4133C15.3986 21.9764 15.3833 21.976 15.3688 21.9718C15.3543 21.9677 15.3411 21.9599 15.3304 21.9492C15.3197 21.9386 15.3119 21.9254 15.3078 21.9109C15.3036 21.8963 15.3032 21.881 15.3067 21.8663V19.1285C15.3024 19.0987 15.2874 19.0714 15.2645 19.0518C15.2416 19.0322 15.2124 19.0216 15.1822 19.0219H13.9378C13.9179 19.0204 13.8988 19.0133 13.8828 19.0015C13.8667 18.9897 13.8543 18.9736 13.8468 18.9551C13.8394 18.9366 13.8374 18.9164 13.8409 18.8968C13.8444 18.8772 13.8533 18.8589 13.8667 18.8441ZM18.2578 28.5863L16.1422 30.7019C16.1322 30.7132 16.1199 30.7223 16.1061 30.7285C16.0923 30.7348 16.0773 30.738 16.0622 30.738C16.0471 30.738 16.0321 30.7348 16.0183 30.7285C16.0045 30.7223 15.9922 30.7132 15.9822 30.7019L13.8667 28.5863C13.852 28.5766 13.84 28.5634 13.8316 28.5479C13.8233 28.5324 13.819 28.515 13.819 28.4974C13.819 28.4798 13.8233 28.4625 13.8316 28.447C13.84 28.4315 13.852 28.4183 13.8667 28.4085H15.1111C15.1412 28.4088 15.1705 28.3982 15.1934 28.3786C15.2163 28.359 15.2312 28.3317 15.2355 28.3019V25.5463C15.2355 25.518 15.2468 25.4909 15.2668 25.4709C15.2868 25.4509 15.3139 25.4397 15.3422 25.4397H16.6578C16.6861 25.4397 16.7132 25.4509 16.7332 25.4709C16.7532 25.4909 16.7644 25.518 16.7644 25.5463V28.3019C16.7644 28.3302 16.7757 28.3573 16.7957 28.3773C16.8157 28.3973 16.8428 28.4085 16.8711 28.4085H18.1155C18.1391 28.3897 18.1692 28.381 18.1992 28.3843C18.2292 28.3876 18.2567 28.4027 18.2755 28.4263C18.2944 28.4499 18.3031 28.48 18.2998 28.51C18.2965 28.54 18.2813 28.5675 18.2578 28.5863ZM9.90221 25.8308V24.5863C9.90221 24.558 9.89097 24.5309 9.87097 24.5109C9.85097 24.4909 9.82384 24.4797 9.79555 24.4797H7.1111C7.08281 24.4797 7.05568 24.4684 7.03568 24.4484C7.01567 24.4284 7.00444 24.4013 7.00444 24.373V23.1108C6.99419 23.0935 6.98904 23.0736 6.98957 23.0536C6.9901 23.0335 6.9963 23.0139 7.00745 22.9972C7.01859 22.9805 7.03424 22.9673 7.05258 22.959C7.07092 22.9508 7.0912 22.948 7.1111 22.9508H9.79555C9.82384 22.9508 9.85097 22.9395 9.87097 22.9195C9.89097 22.8995 9.90221 22.8724 9.90221 22.8441V21.5996C9.90444 21.578 9.91229 21.5574 9.92497 21.5398C9.93765 21.5221 9.95473 21.5081 9.9745 21.4991C9.99428 21.4901 10.0161 21.4865 10.0377 21.4885C10.0593 21.4906 10.08 21.4982 10.0978 21.5108L12.2133 23.6441C12.2308 23.6637 12.2405 23.689 12.2405 23.7152C12.2405 23.7414 12.2308 23.7668 12.2133 23.7863L10.0978 25.9197C10.08 25.9322 10.0593 25.9398 10.0377 25.9419C10.0161 25.9439 9.99428 25.9403 9.9745 25.9313C9.95473 25.9223 9.93765 25.9083 9.92497 25.8906C9.91229 25.873 9.90444 25.8524 9.90221 25.8308ZM22.2222 21.5996V22.8441C22.2222 22.8724 22.2334 22.8995 22.2535 22.9195C22.2735 22.9395 22.3006 22.9508 22.3289 22.9508H25.0667C25.0667 22.9508 25.1911 22.9508 25.1911 23.0574V24.373C25.1868 24.4028 25.1718 24.4301 25.1489 24.4497C25.126 24.4693 25.0968 24.48 25.0667 24.4797H22.3289C22.3149 24.4797 22.301 24.4824 22.2881 24.4878C22.2751 24.4931 22.2634 24.501 22.2535 24.5109C22.2435 24.5208 22.2357 24.5326 22.2303 24.5455C22.225 24.5584 22.2222 24.5723 22.2222 24.5863V25.8308C22.2242 25.8521 22.2197 25.8736 22.2092 25.8924C22.1988 25.9112 22.1829 25.9264 22.1637 25.936C22.1445 25.9456 22.1228 25.9491 22.1015 25.9462C22.0803 25.9433 22.0604 25.9341 22.0444 25.9197L19.9289 23.7863V23.6441L22.0444 21.5108C22.0444 21.5108 22.2222 21.493 22.2222 21.5996Z" fill="white"/>
</g>
<defs>
<linearGradient id="paint0_linear_855_10056" x1="15.2711" y1="-13.8491" x2="16.2133" y2="35.6443" gradientUnits="userSpaceOnUse">
<stop offset="0.22" stop-color="#32D4F5"/>
<stop offset="0.47" stop-color="#31D1F3"/>
<stop offset="0.63" stop-color="#2EC9EB"/>
<stop offset="0.77" stop-color="#29BADE"/>
<stop offset="0.89" stop-color="#22A5CB"/>
<stop offset="1" stop-color="#198AB3"/>
</linearGradient>
<clipPath id="clip0_855_10056">
<rect width="32" height="32" fill="white"/>
</clipPath>
</defs>
</svg>
