<svg width="32" height="32" viewBox="0 0 32 32" fill="none" xmlns="http://www.w3.org/2000/svg">
<path d="M31.1111 15.8224C31.0633 14.211 30.4489 12.6681 29.3758 11.465C28.3028 10.2619 26.8399 9.47568 25.2444 9.24466C25.1198 6.99231 24.1212 4.8775 22.4611 3.3502C20.801 1.8229 18.6105 1.00369 16.3556 1.06688C14.5504 1.05691 12.7849 1.59556 11.2928 2.61147C9.80064 3.62739 8.65235 5.07263 8 6.75577C6.09367 7.03776 4.34374 7.97097 3.04745 9.39689C1.75116 10.8228 0.988455 12.6535 0.888885 14.578C0.914411 15.6666 1.15651 16.7391 1.60105 17.7331C2.04559 18.7271 2.68366 19.6226 3.47803 20.3673C4.2724 21.1121 5.20716 21.6911 6.22773 22.0707C7.24831 22.4502 8.33427 22.6227 9.42222 22.578H24.3556C26.1472 22.578 27.8655 21.8662 29.1324 20.5993C30.3994 19.3324 31.1111 17.6141 31.1111 15.8224Z" fill="url(#paint0_linear_855_10063)"/>
<path d="M16 30.7558C20.3201 30.7558 23.8222 27.2536 23.8222 22.9335C23.8222 18.6135 20.3201 15.1113 16 15.1113C11.6799 15.1113 8.17776 18.6135 8.17776 22.9335C8.17776 27.2536 11.6799 30.7558 16 30.7558Z" fill="#F2F2F2"/>
<path d="M22.5778 17.9557C21.2726 16.2466 19.3467 15.1204 17.2172 14.8209C15.0877 14.5215 12.9259 15.0729 11.2 16.3557C10.3458 17.0045 9.6289 17.8163 9.09071 18.7442C8.55251 19.672 8.20375 20.6974 8.06462 21.7609C7.9255 22.8245 7.99877 23.9051 8.2802 24.9401C8.56163 25.9752 9.04563 26.9441 9.70415 27.7907C10.3627 28.6374 11.1826 29.345 12.1166 29.8726C13.0505 30.4001 14.0798 30.7371 15.1449 30.8641C16.2099 30.991 17.2896 30.9054 18.3214 30.6122C19.3531 30.3189 20.3165 29.8239 21.1555 29.1557C22.8032 27.8408 23.8734 25.9354 24.1389 23.8442C24.4044 21.7531 23.8444 19.6407 22.5778 17.9557ZM9.06666 22.4002C9.13445 21.4175 9.37518 20.4546 9.77777 19.5557H11.7333C11.5165 20.489 11.3973 21.4422 11.3778 22.4002H9.06666ZM12.8 19.5557H15.4667V22.4002H12.4444C12.464 21.4422 12.5832 20.489 12.8 19.5557ZM16.5333 19.5557H19.2C19.4168 20.489 19.536 21.4422 19.5555 22.4002H16.5333V19.5557ZM15.6444 23.289V26.1335H12.8L12.2667 23.4668L15.6444 23.289ZM16.5333 23.289H19.7333C19.6918 24.2452 19.5729 25.1965 19.3778 26.1335H16.5333V23.289ZM20.8 23.289H23.1111C23.0433 24.2717 22.8026 25.2346 22.4 26.1335H20.4444C20.6613 25.2002 20.7804 24.247 20.8 23.289ZM20.8 22.4002C20.7585 21.444 20.6396 20.4927 20.4444 19.5557H22.4C22.823 20.4474 23.0647 21.4143 23.1111 22.4002H20.8ZM21.6889 18.489H20.0889C19.8419 17.7286 19.4824 17.0095 19.0222 16.3557C20.0565 16.8631 20.9668 17.5914 21.6889 18.489ZM19.0222 18.489H16.5333V16.0002C17.1158 16.188 17.6453 16.5116 18.078 16.9444C18.5108 17.3771 18.8344 17.9066 19.0222 18.489ZM15.6444 16.0002V18.6668H13.1555C13.3105 18.0479 13.6202 17.4784 14.0555 17.012C14.4909 16.5455 15.0376 16.1974 15.6444 16.0002ZM11.7333 17.2446C12.1815 16.9087 12.6572 16.6113 13.1555 16.3557C12.6245 17.0323 12.2592 17.8238 12.0889 18.6668H10.4889C10.8054 18.115 11.2284 17.6315 11.7333 17.2446ZM9.06666 23.4668H11.3778C11.4193 24.423 11.5382 25.3743 11.7333 26.3113H9.77777C9.39511 25.4056 9.15522 24.446 9.06666 23.4668ZM10.4889 27.2002H12.0889L13.1555 29.3335C12.0847 28.8857 11.1608 28.1466 10.4889 27.2002ZM13.1555 27.2002H15.4667V29.8668C14.9156 29.6097 14.425 29.2394 14.0268 28.7799C13.6286 28.3204 13.3317 27.7821 13.1555 27.2002ZM16.5333 29.8668V27.2002H18.8444C18.7301 27.8096 18.4558 28.3776 18.0497 28.8462C17.6436 29.3148 17.1203 29.667 16.5333 29.8668ZM20.4444 28.4446C19.9751 28.8437 19.4313 29.1458 18.8444 29.3335C19.339 28.7008 19.7017 27.9754 19.9111 27.2002H21.5111C21.3134 27.7278 20.9356 28.1685 20.4444 28.4446Z" fill="#0078D4"/>
<path d="M9.06666 20.2664C8.05555 19.7747 7.17452 19.0517 6.495 18.156C5.81548 17.2603 5.3566 16.217 5.15555 15.1109C5.16875 14.1034 5.41664 13.1128 5.87954 12.2179C6.34244 11.323 7.0076 10.5483 7.82221 9.9553L8.88888 9.06641L9.77777 10.1331L8.7111 11.022C8.0439 11.4297 7.4956 12.0057 7.12117 12.6921C6.74675 13.3785 6.55935 14.1514 6.57777 14.9331C6.72359 15.829 7.09338 16.6735 7.6528 17.3884C8.21222 18.1032 8.94316 18.6651 9.77777 19.022L9.06666 20.2664Z" fill="#E6E6E6"/>
<path d="M9.42223 11.5556C10.5023 11.5556 11.3778 10.6801 11.3778 9.60009C11.3778 8.52006 10.5023 7.64453 9.42223 7.64453C8.34221 7.64453 7.46667 8.52006 7.46667 9.60009C7.46667 10.6801 8.34221 11.5556 9.42223 11.5556Z" fill="#F2F2F2"/>
<path d="M22.5778 20.2673L21.8667 19.0229C22.6814 18.6372 23.3948 18.0668 23.9503 17.357C24.5059 16.6472 24.8881 15.8175 25.0667 14.934C25.0466 14.1596 24.8427 13.4012 24.4718 12.7211C24.1009 12.0411 23.5735 11.459 22.9333 11.0229L21.8667 10.3118L22.7556 9.24512L23.8222 9.95623C24.7065 10.4779 25.4258 11.2383 25.8975 12.1503C26.3691 13.0622 26.5741 14.0886 26.4889 15.1118C26.2878 16.218 25.829 17.2612 25.1494 18.1569C24.4699 19.0527 23.5889 19.7757 22.5778 20.2673Z" fill="#E6E6E6"/>
<path d="M22.4 11.5556C23.48 11.5556 24.3555 10.6801 24.3555 9.60009C24.3555 8.52006 23.48 7.64453 22.4 7.64453C21.32 7.64453 20.4444 8.52006 20.4444 9.60009C20.4444 10.6801 21.32 11.5556 22.4 11.5556Z" fill="#F2F2F2"/>
<path d="M9.42223 21.6894C10.5023 21.6894 11.3778 20.8139 11.3778 19.7339C11.3778 18.6539 10.5023 17.7783 9.42223 17.7783C8.34221 17.7783 7.46667 18.6539 7.46667 19.7339C7.46667 20.8139 8.34221 21.6894 9.42223 21.6894Z" fill="#CE74B6"/>
<path d="M22.4 21.6894C23.48 21.6894 24.3555 20.8139 24.3555 19.7339C24.3555 18.6539 23.48 17.7783 22.4 17.7783C21.32 17.7783 20.4444 18.6539 20.4444 19.7339C20.4444 20.8139 21.32 21.6894 22.4 21.6894Z" fill="#CE74B6"/>
<defs>
<linearGradient id="paint0_linear_855_10063" x1="16" y1="22.5851" x2="16" y2="1.08999" gradientUnits="userSpaceOnUse">
<stop stop-color="#198AB3"/>
<stop offset="0.11" stop-color="#22A5CB"/>
<stop offset="0.23" stop-color="#29BADE"/>
<stop offset="0.37" stop-color="#2EC9EB"/>
<stop offset="0.53" stop-color="#31D1F3"/>
<stop offset="0.78" stop-color="#32D4F5"/>
</linearGradient>
</defs>
</svg>
