<svg width="32" height="32" viewBox="0 0 32 32" fill="none" xmlns="http://www.w3.org/2000/svg">
<g clip-path="url(#clip0_855_10089)">
<path d="M24.7111 27.5556C21.5502 30.0083 17.5466 31.1093 13.576 30.6179C9.60538 30.1266 5.99096 28.0827 3.52328 24.9335C1.05561 21.7843 -0.0644961 17.786 0.407971 13.8131C0.880439 9.84018 2.90702 6.21607 6.04446 3.73342L6.22224 3.55564C9.4078 1.14318 13.4176 0.0871233 17.3782 0.617464C21.3388 1.1478 24.9294 3.22158 27.3681 6.38714C29.8067 9.5527 30.8958 13.5536 30.3982 17.5185C29.9005 21.4833 27.8565 25.091 24.7111 27.5556Z" fill="url(#paint0_radial_855_10089)"/>
<path d="M3.73332 18.667C3.17837 20.1817 2.70363 21.7246 2.3111 23.2892L3.37776 24.8892L4.44443 25.9559C4.82543 23.8062 5.48273 21.7148 6.39998 19.7337C5.41838 19.6792 4.48168 19.3045 3.73332 18.667Z" fill="#83B9F9"/>
<path d="M5.5111 10.4886C4.90924 8.82065 4.49193 7.09182 4.26665 5.33301C3.51893 6.08262 2.86252 6.91805 2.3111 7.8219C2.49806 9.28103 2.85608 10.7131 3.37776 12.0886C3.92553 11.3665 4.66454 10.8122 5.5111 10.4886Z" fill="#83B9F9"/>
<path d="M7.1111 19.9115C9.76206 19.9115 11.9111 17.7625 11.9111 15.1115C11.9111 12.4606 9.76206 10.3115 7.1111 10.3115C4.46013 10.3115 2.3111 12.4606 2.3111 15.1115C2.3111 17.7625 4.46013 19.9115 7.1111 19.9115Z" fill="url(#paint1_linear_855_10089)"/>
<path d="M14.2222 24.0004C14.2478 23.1515 14.5613 22.3366 15.1111 21.6893C13.447 20.8264 11.9436 19.6838 10.6667 18.3115C9.95022 19.0552 9.01675 19.5531 8 19.7337C8.84389 20.6103 9.73405 21.4411 10.6667 22.2226C11.7438 23.1 12.9412 23.8185 14.2222 24.356V24.0004Z" fill="#83B9F9"/>
<path d="M25.4222 24.3556C23.7488 24.3541 22.0802 24.1753 20.4444 23.8223V24C20.4478 24.3972 20.3708 24.791 20.2181 25.1576C20.0653 25.5242 19.8399 25.8561 19.5555 26.1334C21.546 26.5171 23.5783 26.6367 25.6 26.4889C26.3111 25.7778 27.0222 24.8889 27.7333 24.1778C26.9732 24.3323 26.197 24.392 25.4222 24.3556Z" fill="#83B9F9"/>
<path d="M16.5333 8.71076C19.795 7.0946 23.3822 6.2434 27.0222 6.22188C26.2658 5.26082 25.3664 4.42144 24.3556 3.73299C21.4846 3.93965 18.6645 4.59968 16 5.68854C15.39 5.94872 14.7963 6.24556 14.2222 6.57743C12.8776 4.97448 11.6872 3.24832 10.6667 1.42188C10.0968 1.4615 9.54632 1.645 9.06666 1.95521C10.1455 3.89914 11.3949 5.74342 12.8 7.46632C11.3598 8.28356 10.043 9.30112 8.88889 10.4885C9.84055 10.8896 10.6469 11.5719 11.2 12.4441C12.2001 11.4065 13.3364 10.5094 14.5778 9.77743C16.5557 11.9086 18.7615 13.8163 21.1556 15.4663C21.3338 14.7839 21.704 14.167 22.2222 13.6885C20.202 12.1765 18.3002 10.5124 16.5333 8.71076Z" fill="#83B9F9"/>
<path d="M24.5333 19.5554C26.3988 19.5554 27.9111 18.0431 27.9111 16.1776C27.9111 14.3121 26.3988 12.7998 24.5333 12.7998C22.6678 12.7998 21.1555 14.3121 21.1555 16.1776C21.1555 18.0431 22.6678 19.5554 24.5333 19.5554Z" fill="#F2F2F2"/>
<path d="M30.2222 18.4886C30.0445 18.3108 29.8667 18.3108 29.6889 18.1331C29.5111 17.9553 29.3334 17.9553 29.1556 17.7775H28.9778L28.4445 17.422H28.2667L27.7334 17.0664C27.5964 17.7169 27.2145 18.2898 26.6667 18.6664C26.8445 18.8442 27.0222 18.8442 27.3778 19.022H27.5556C27.7334 19.1997 27.9111 19.1997 28.0889 19.3775C28.6222 19.7331 29.1556 19.9108 29.6889 20.2664C29.8667 19.7331 30.0445 19.022 30.2222 18.4886Z" fill="#83B9F9"/>
<path d="M7.1111 19.9115C9.76206 19.9115 11.9111 17.7625 11.9111 15.1115C11.9111 12.4606 9.76206 10.3115 7.1111 10.3115C4.46013 10.3115 2.3111 12.4606 2.3111 15.1115C2.3111 17.7625 4.46013 19.9115 7.1111 19.9115Z" fill="#F2F2F2"/>
<path d="M17.4222 27.1998C19.1895 27.1998 20.6222 25.7671 20.6222 23.9998C20.6222 22.2325 19.1895 20.7998 17.4222 20.7998C15.6549 20.7998 14.2222 22.2325 14.2222 23.9998C14.2222 25.7671 15.6549 27.1998 17.4222 27.1998Z" fill="#F2F2F2"/>
<path d="M9.24445 18.667H30.7556C31.1111 18.667 31.6444 19.0225 31.6444 19.3781V30.7559C31.6294 30.9867 31.5309 31.2041 31.3674 31.3677C31.2038 31.5312 30.9864 31.6297 30.7556 31.6448H9.24445C9.03329 31.6189 8.84065 31.5114 8.70775 31.3452C8.57485 31.1791 8.51225 30.9676 8.53334 30.7559V19.5559C8.51225 19.3442 8.57485 19.1326 8.70775 18.9665C8.84065 18.8004 9.03329 18.6929 9.24445 18.667Z" fill="#821010"/>
<path d="M15.8222 20.0889H9.42221V22.9333H15.8222V20.0889Z" fill="#E62323"/>
<path d="M23.2889 20.0889H16.8889V22.9333H23.2889V20.0889Z" fill="#FF7381"/>
<path d="M30.5778 20.0889H24.1778V22.9333H30.5778V20.0889Z" fill="#E62323"/>
<path d="M12.0889 23.8223H9.42221V26.6667H12.0889V23.8223Z" fill="#E62323"/>
<path d="M30.5778 23.8223H27.9111V26.6667H30.5778V23.8223Z" fill="#FF7381"/>
<path d="M19.5555 23.8223H13.1555V26.6667H19.5555V23.8223Z" fill="#FF7381"/>
<path d="M26.8445 23.8223H20.4445V26.6667H26.8445V23.8223Z" fill="#E62323"/>
<path d="M15.8222 27.5557H9.42221V30.4001H15.8222V27.5557Z" fill="#E62323"/>
<path d="M23.2889 27.5557H16.8889V30.4001H23.2889V27.5557Z" fill="#FF7381"/>
<path d="M30.5778 27.5557H24.1778V30.4001H30.5778V27.5557Z" fill="#E62323"/>
</g>
<defs>
<radialGradient id="paint0_radial_855_10089" cx="0" cy="0" r="1" gradientUnits="userSpaceOnUse" gradientTransform="translate(15.3949 15.6386) scale(15.1003 15.1003)">
<stop offset="0.183" stop-color="#5EA0EF"/>
<stop offset="1" stop-color="#0078D4"/>
</radialGradient>
<linearGradient id="paint1_linear_855_10089" x1="7.15021" y1="20.084" x2="7.0951" y2="13.0457" gradientUnits="userSpaceOnUse">
<stop stop-color="#CCCCCC"/>
<stop offset="0.123" stop-color="#D7D7D7"/>
<stop offset="0.421" stop-color="#EBEBEB"/>
<stop offset="0.716" stop-color="#F8F8F8"/>
<stop offset="1" stop-color="#FCFCFC"/>
</linearGradient>
<clipPath id="clip0_855_10089">
<rect width="32" height="32" fill="white"/>
</clipPath>
</defs>
</svg>
