<svg width="32" height="32" viewBox="0 0 32 32" fill="none" xmlns="http://www.w3.org/2000/svg">
<g clip-path="url(#clip0_850_24597)">
<path d="M32 0H0V32H32V0Z" fill="#3B48CC"/>
<path d="M18.9739 13.8325C19.3348 14.0047 19.633 14.285 19.8272 14.6346V8.41378C19.8272 6.41272 16.0896 5.33325 12.5739 5.33325C9.05816 5.33325 5.32056 6.41272 5.32056 8.41378V23.5861C5.32056 25.5871 9.05816 26.6666 12.5739 26.6666C16.0896 26.6666 19.8272 25.5871 19.8272 23.5861V21.5466H18.9739V23.5861C18.9739 24.6399 16.3456 25.8133 12.5739 25.8133C8.80216 25.8133 6.17389 24.6399 6.17389 23.5861V20.4202C7.45389 21.4613 10.0864 22.0117 12.5739 22.0117C13.3001 22.0121 14.0256 21.965 14.7456 21.8709C14.5647 21.6306 14.4341 21.3563 14.3616 21.0645C13.7678 21.1273 13.171 21.1586 12.5739 21.1583C8.81496 21.1583 6.17389 19.985 6.17389 18.9311H6.18669V15.2063C7.46669 16.2474 10.0992 16.7978 12.5867 16.7978C13.8663 16.8072 15.1426 16.664 16.3883 16.3711C16.278 16.1241 16.2213 15.8566 16.2219 15.5861V15.5391C15.0322 15.8299 13.8113 15.9732 12.5867 15.9658C8.82776 15.9658 6.18669 14.7925 6.18669 13.7386V13.7386V9.94125C7.49656 10.9738 10.0992 11.5157 12.5867 11.5157C15.0742 11.5157 17.6768 10.9738 18.9867 9.94125V13.7386C18.9852 13.7702 18.981 13.8016 18.9739 13.8325V13.8325ZM12.5739 10.641C8.80216 10.641 6.17389 9.46765 6.17389 8.41378C6.17389 7.35992 8.80216 6.18659 12.5739 6.18659C16.3456 6.18659 18.9739 7.35992 18.9739 8.41378C18.9739 9.46765 16.3584 10.641 12.5867 10.641H12.5739ZM25.6 21.5466C25.3171 21.5466 25.0458 21.659 24.8458 21.859C24.6457 22.059 24.5334 22.3304 24.5334 22.6133C24.5332 22.6894 24.5418 22.7652 24.559 22.8394L23.1467 23.7226C22.9196 23.5055 22.6355 23.3575 22.3275 23.2959L22.2422 21.3973C22.6311 21.3019 22.9866 21.1023 23.2706 20.8199C23.5545 20.5375 23.756 20.183 23.8534 19.7946C23.9508 19.4062 23.9405 18.9986 23.8235 18.6156C23.7065 18.2327 23.4872 17.8889 23.1894 17.6213L24.5206 15.3599C24.6583 15.405 24.8023 15.4281 24.9472 15.4282C25.2426 15.4282 25.5313 15.3406 25.7769 15.1765C26.0225 15.0124 26.2139 14.7792 26.3269 14.5063C26.4399 14.2335 26.4695 13.9332 26.4119 13.6435C26.3542 13.3538 26.212 13.0878 26.0032 12.8789C25.7943 12.6701 25.5282 12.5278 25.2386 12.4702C24.9489 12.4126 24.6486 12.4422 24.3757 12.5552C24.1029 12.6682 23.8697 12.8596 23.7056 13.1052C23.5415 13.3508 23.4539 13.6395 23.4539 13.9349C23.4522 14.283 23.5748 14.6204 23.7995 14.8863L22.4427 17.169C22.2086 17.0933 21.9632 17.0586 21.7174 17.0666C21.2923 17.0644 20.8763 17.1892 20.5227 17.425L19.1232 15.9914C19.1771 15.8587 19.2032 15.7164 19.2 15.5733C19.2 15.3623 19.1375 15.1561 19.0203 14.9806C18.903 14.8052 18.7365 14.6685 18.5416 14.5878C18.3466 14.507 18.1322 14.4859 17.9253 14.5271C17.7183 14.5682 17.5283 14.6698 17.3791 14.819C17.2299 14.9682 17.1283 15.1582 17.0872 15.3652C17.046 15.5721 17.0672 15.7865 17.1479 15.9814C17.2286 16.1764 17.3653 16.3429 17.5407 16.4602C17.7162 16.5774 17.9224 16.6399 18.1334 16.6399C18.2616 16.6395 18.3887 16.6164 18.5088 16.5717L19.9083 18.001C19.6472 18.3669 19.5083 18.8059 19.5115 19.2554V19.2554L17.8603 19.6266C17.655 19.3362 17.3526 19.1288 17.0077 19.042C16.6628 18.9552 16.2982 18.9947 15.9799 19.1534C15.6616 19.3121 15.4106 19.5795 15.2724 19.9071C15.1341 20.2348 15.1177 20.6012 15.2261 20.9399C15.3345 21.2786 15.5605 21.5674 15.8633 21.7539C16.1661 21.9404 16.5257 22.0124 16.877 21.9568C17.2283 21.9013 17.5481 21.7218 17.7785 21.4509C18.0089 21.18 18.1348 20.8356 18.1334 20.4799C18.1355 20.4658 18.1355 20.4514 18.1334 20.4373L19.6907 20.113C19.8378 20.4609 20.0722 20.765 20.3712 20.996C20.6701 21.2269 21.0235 21.3769 21.3974 21.4314L21.4827 23.3258C21.1796 23.4167 20.9079 23.5902 20.6977 23.8267C20.4875 24.0632 20.3472 24.3534 20.2924 24.6651C20.2377 24.9767 20.2706 25.2974 20.3876 25.5914C20.5046 25.8854 20.701 26.1411 20.9549 26.3299C21.2088 26.5187 21.5102 26.6332 21.8254 26.6606C22.1406 26.6881 22.4572 26.6273 22.7399 26.4852C23.0226 26.3431 23.2602 26.1252 23.4262 25.8559C23.5922 25.5865 23.6801 25.2763 23.68 24.9599C23.6816 24.7859 23.6542 24.6129 23.599 24.4479L25.0624 23.5349C25.2252 23.6309 25.411 23.6811 25.6 23.6799C25.8829 23.6799 26.1542 23.5675 26.3543 23.3675C26.5543 23.1675 26.6667 22.8961 26.6667 22.6133C26.6667 22.3304 26.5543 22.059 26.3543 21.859C26.1542 21.659 25.8829 21.5466 25.6 21.5466V21.5466ZM24.96 13.3077C25.0866 13.3077 25.2103 13.3452 25.3156 13.4155C25.4208 13.4858 25.5029 13.5858 25.5513 13.7027C25.5997 13.8197 25.6124 13.9484 25.5877 14.0725C25.563 14.1967 25.5021 14.3107 25.4126 14.4002C25.3231 14.4897 25.209 14.5507 25.0849 14.5754C24.9607 14.6 24.832 14.5874 24.7151 14.5389C24.5982 14.4905 24.4982 14.4085 24.4279 14.3032C24.3576 14.198 24.32 14.0742 24.32 13.9477C24.32 13.7779 24.3874 13.6151 24.5075 13.4951C24.6275 13.3751 24.7903 13.3077 24.96 13.3077V13.3077ZM18.1334 15.7866C18.0768 15.7866 18.0225 15.7641 17.9825 15.7241C17.9425 15.6841 17.92 15.6298 17.92 15.5733C17.92 15.5167 17.9425 15.4624 17.9825 15.4224C18.0225 15.3824 18.0768 15.3599 18.1334 15.3599C18.1899 15.3599 18.2442 15.3824 18.2842 15.4224C18.3242 15.4624 18.3467 15.5167 18.3467 15.5733C18.3467 15.6298 18.3242 15.6841 18.2842 15.7241C18.2442 15.7641 18.1899 15.7866 18.1334 15.7866ZM16.64 21.1199C16.5134 21.1199 16.3897 21.0824 16.2845 21.0121C16.1792 20.9417 16.0972 20.8418 16.0487 20.7248C16.0003 20.6079 15.9876 20.4792 16.0123 20.3551C16.037 20.2309 16.098 20.1169 16.1875 20.0274C16.277 19.9379 16.391 19.8769 16.5152 19.8522C16.6393 19.8275 16.768 19.8402 16.8849 19.8886C17.0019 19.9371 17.1018 20.0191 17.1722 20.1244C17.2425 20.2296 17.28 20.3533 17.28 20.4799C17.28 20.6497 17.2126 20.8124 17.0926 20.9325C16.9725 21.0525 16.8098 21.1199 16.64 21.1199ZM20.3648 19.2554C20.3648 18.9879 20.4441 18.7264 20.5928 18.504C20.7414 18.2815 20.9526 18.1082 21.1998 18.0058C21.4469 17.9034 21.7189 17.8767 21.9812 17.9288C22.2436 17.981 22.4846 18.1098 22.6737 18.299C22.8629 18.4882 22.9917 18.7292 23.0439 18.9915C23.0961 19.2539 23.0693 19.5258 22.9669 19.773C22.8646 20.0201 22.6912 20.2314 22.4688 20.38C22.2464 20.5286 21.9849 20.6079 21.7174 20.6079C21.3586 20.6079 21.0146 20.4654 20.761 20.2118C20.5073 19.9581 20.3648 19.6141 20.3648 19.2554V19.2554ZM21.9734 25.8133C21.8046 25.8133 21.6396 25.7632 21.4993 25.6694C21.3589 25.5757 21.2496 25.4424 21.185 25.2865C21.1204 25.1305 21.1035 24.959 21.1364 24.7934C21.1693 24.6279 21.2506 24.4759 21.37 24.3565C21.4893 24.2372 21.6413 24.1559 21.8069 24.123C21.9724 24.0901 22.144 24.107 22.2999 24.1715C22.4558 24.2361 22.5891 24.3455 22.6829 24.4858C22.7766 24.6262 22.8267 24.7911 22.8267 24.9599C22.8267 25.1862 22.7368 25.4033 22.5768 25.5633C22.4167 25.7233 22.1997 25.8133 21.9734 25.8133ZM25.6 22.8266C25.5434 22.8266 25.4892 22.8041 25.4492 22.7641C25.4092 22.7241 25.3867 22.6698 25.3867 22.6133C25.3867 22.5567 25.4092 22.5024 25.4492 22.4624C25.4892 22.4224 25.5434 22.3999 25.6 22.3999C25.6566 22.3999 25.7109 22.4224 25.7509 22.4624C25.7909 22.5024 25.8134 22.5567 25.8134 22.6133C25.8134 22.6698 25.7909 22.7241 25.7509 22.7641C25.7109 22.8041 25.6566 22.8266 25.6 22.8266Z" fill="white"/>
</g>
<defs>
<clipPath id="clip0_850_24597">
<rect width="32" height="32" fill="white"/>
</clipPath>
</defs>
</svg>
