<svg width="32" height="32" viewBox="0 0 32 32" fill="none" xmlns="http://www.w3.org/2000/svg">
<g clip-path="url(#clip0_850_24585)">
<path d="M32 0H0V32H32V0Z" fill="#3B48CC"/>
<path d="M17.0924 21.8667H16.5378C16.4246 21.8667 16.3161 21.8217 16.2361 21.7417C16.156 21.6617 16.1111 21.5532 16.1111 21.44V11.9467C16.1111 11.8335 16.156 11.725 16.2361 11.645C16.3161 11.565 16.4246 11.52 16.5378 11.52H21.5767C21.6365 11.5207 21.6956 11.534 21.75 11.559C21.8044 11.5839 21.8529 11.6201 21.8924 11.6651L23.1724 13.2054L22.5708 13.7558L21.389 12.3734H16.9474V21.0475H17.0924V21.8667Z" fill="white"/>
<path d="M24.8834 23.4114H17.9884C17.8753 23.4114 17.7668 23.3664 17.6867 23.2864C17.6067 23.2064 17.5618 23.0979 17.5618 22.9847V13.4914C17.5618 13.3782 17.6067 13.2697 17.6867 13.1897C17.7668 13.1096 17.8753 13.0647 17.9884 13.0647H23.309C23.4173 13.0662 23.5211 13.1089 23.5991 13.1842L25.1735 14.7799C25.2487 14.8579 25.2914 14.9617 25.293 15.07V23.0018C25.2888 23.109 25.2443 23.2108 25.1683 23.2867C25.0924 23.3626 24.9907 23.4072 24.8834 23.4114ZM18.398 22.6135H24.4738V15.2407L23.1383 13.901H18.398V22.6135Z" fill="white"/>
<path d="M24.8833 15.9061H22.8822C22.7691 15.9061 22.6605 15.8612 22.5805 15.7812C22.5005 15.7011 22.4556 15.5926 22.4556 15.4795V13.4741H23.2748V15.0656H24.8662L24.8833 15.9061Z" fill="white"/>
<path d="M21.0688 21.184H20.8C20.6962 21.1864 20.5932 21.1654 20.4987 21.1226C20.4042 21.0797 20.3205 21.0161 20.2539 20.9365C20.0853 20.6863 20.0224 20.3796 20.0789 20.0832C20.0533 19.3237 19.6267 19.2 19.6267 19.2C19.5457 19.1693 19.476 19.1147 19.4268 19.0434C19.3777 18.9722 19.3513 18.8876 19.3513 18.8011C19.3513 18.7145 19.3777 18.6299 19.4268 18.5587C19.476 18.4874 19.5457 18.4328 19.6267 18.4021C19.6651 18.4021 20.0533 18.2443 20.0533 17.4933C20.0533 17.0453 20.2624 16.5461 20.7616 16.5291H21.0432V17.3525H20.9067C20.9002 17.3992 20.9002 17.4466 20.9067 17.4933C20.9358 17.9696 20.7833 18.4392 20.48 18.8075C20.7827 19.1744 20.9351 19.6425 20.9067 20.1173C20.9109 20.1427 20.9109 20.1687 20.9067 20.1941C20.9003 20.2551 20.9003 20.3166 20.9067 20.3776H21.0901L21.0688 21.184Z" fill="white"/>
<path d="M22.2165 21.1842V20.365H22.3744C22.3786 20.3196 22.3786 20.2739 22.3744 20.2284C22.3452 19.7522 22.4977 19.2826 22.8011 18.9143C22.4984 18.5473 22.3459 18.0793 22.3744 17.6044C22.3723 17.5789 22.3723 17.5532 22.3744 17.5276C22.3807 17.4681 22.3807 17.408 22.3744 17.3484H22.1909V16.525H22.4597C22.5634 16.5235 22.666 16.5449 22.7604 16.5877C22.8549 16.6304 22.9387 16.6935 23.0059 16.7724C23.1736 17.023 23.2364 17.3294 23.1808 17.6258C23.1808 18.3511 23.6075 18.4791 23.6075 18.5047C23.6966 18.5336 23.7737 18.5911 23.8269 18.6682C23.8801 18.7453 23.9064 18.8378 23.9019 18.9314C23.9025 19.0208 23.8729 19.1077 23.8179 19.1782C23.7629 19.2487 23.6858 19.2985 23.5989 19.3196C23.5648 19.3196 23.1723 19.4775 23.1723 20.2327C23.1723 20.6807 22.9632 21.1799 22.464 21.1927L22.2165 21.1842Z" fill="white"/>
<path d="M13.7515 11.6054C10.3382 11.6054 6.70728 10.5558 6.70728 8.61875C6.70728 6.68168 10.3339 5.63208 13.7515 5.63208C17.1691 5.63208 20.7958 6.68168 20.7958 8.61875C20.7958 10.5558 17.1649 11.6054 13.7515 11.6054ZM13.7515 6.43421C10.0822 6.43421 7.52648 7.58195 7.52648 8.61021C7.52648 9.63848 10.0865 10.7819 13.7515 10.7819C17.4166 10.7819 19.9723 9.63848 19.9723 8.61021C19.9723 7.58195 17.4166 6.43421 13.7515 6.43421Z" fill="white"/>
<path d="M20.7916 8.61011H19.9724V11.1957H20.7916V8.61011Z" fill="white"/>
<path d="M13.7515 26.385C10.3382 26.385 6.70728 25.3354 6.70728 23.3984V8.61011H7.52648V23.3898C7.52648 24.4181 10.0865 25.5658 13.7515 25.5658C17.4166 25.5658 19.9723 24.4181 19.9723 23.3898H20.7958C20.7958 25.3354 17.1649 26.385 13.7515 26.385Z" fill="white"/>
<path d="M13.7643 16.7723C9.75786 16.7723 6.73706 15.4923 6.73706 13.7856H7.56053C7.56053 14.8139 10.1205 15.9616 13.7643 15.9616C14.3788 15.9611 14.9927 15.9255 15.6032 15.855L15.6971 16.6699C15.0553 16.7413 14.41 16.7754 13.7643 16.7723Z" fill="white"/>
<path d="M13.7643 21.8497C9.75786 21.8497 6.73706 20.5697 6.73706 18.863H7.56053C7.56053 19.8913 10.1205 21.039 13.7643 21.039C14.3787 21.0393 14.9926 21.0051 15.6032 20.9366L15.6928 21.7601C15.052 21.8244 14.4082 21.8543 13.7643 21.8497V21.8497Z" fill="white"/>
</g>
<defs>
<clipPath id="clip0_850_24585">
<rect width="32" height="32" fill="white"/>
</clipPath>
</defs>
</svg>
