<svg width="32" height="32" viewBox="0 0 32 32" fill="none" xmlns="http://www.w3.org/2000/svg">
<g clip-path="url(#clip0_850_24599)">
<path d="M32 0H0V32H32V0Z" fill="#3B48CC"/>
<path d="M15.1381 9.72792C13.0858 9.72792 10.8714 10.2485 10.8714 11.3919V18.4746C10.8714 19.6181 13.0773 20.1386 15.1381 20.1386C17.1989 20.1386 19.4047 19.6181 19.4047 18.4746V11.3919C19.3962 10.2399 17.1861 9.72792 15.1381 9.72792ZM11.7247 11.3919C11.7887 11.1487 13.0047 10.5813 15.1381 10.5813C17.2714 10.5813 18.4831 11.1487 18.5514 11.3919C18.4959 11.6394 17.2714 12.2026 15.1381 12.2026C13.0047 12.2026 11.7845 11.6351 11.7247 11.3962V11.3919ZM18.5514 18.4703C18.5002 18.7135 17.2714 19.2853 15.1381 19.2853C13.0047 19.2853 11.7845 18.7135 11.7247 18.4746V17.3439C12.8053 17.7918 13.9689 18.0041 15.1381 17.9669C16.2974 18.0056 17.4518 17.7992 18.5258 17.361L18.5514 18.4703ZM18.5514 16.337C18.3893 16.5973 17.1861 17.1135 15.1637 17.1135C13.0303 17.1135 11.8229 16.5503 11.7503 16.3029V14.9333C12.8309 15.3811 13.9945 15.5935 15.1637 15.5562C16.3213 15.5883 17.4728 15.3761 18.5429 14.9333L18.5514 16.337ZM18.5514 13.905C18.3893 14.1653 17.1903 14.6815 15.1637 14.6815C13.0303 14.6815 11.8229 14.1183 11.7503 13.8709V12.4458C12.8324 12.8874 13.9956 13.0953 15.1637 13.0559C16.3317 13.0945 17.4947 12.8866 18.577 12.4458L18.5514 13.905ZM19.4047 13.8709C19.411 13.9261 19.411 13.982 19.4047 14.0373V13.8709ZM19.4047 16.3029C19.411 16.3581 19.411 16.414 19.4047 16.4693V16.3029ZM9.00685 18.4021C6.67299 17.5487 5.33325 16.2687 5.33325 14.8394C5.33325 13.4101 6.67299 12.1258 9.00685 11.2725L9.30125 12.0746C7.35138 12.7871 6.18659 13.8197 6.18659 14.8394C6.18659 15.8591 7.35138 16.8917 9.30125 17.5999L9.00685 18.4021ZM21.0517 18.4831L20.7786 17.6767C22.8607 16.9642 24.1066 15.9061 24.1066 14.8394C24.1066 13.7727 22.8607 12.7061 20.7786 11.9978L21.0517 11.1914C23.5348 12.0447 24.9599 13.3674 24.9599 14.8394C24.9599 16.3114 23.5348 17.6383 21.0517 18.4831ZM24.9599 5.75992V9.17325H24.1066V6.79245L21.4228 9.47618L20.817 8.87032L23.5007 6.18659H21.1199V5.33325H24.5332C24.6464 5.33325 24.7549 5.3782 24.8349 5.45822C24.915 5.53824 24.9599 5.64676 24.9599 5.75992ZM9.47618 8.87032L8.87032 9.47618L6.18659 6.79245V9.17325H5.33325V5.75992C5.33325 5.64676 5.3782 5.53824 5.45822 5.45822C5.53824 5.3782 5.64676 5.33325 5.75992 5.33325H9.17325V6.18659H6.79245L9.47618 8.87032ZM6.79245 23.6799H9.17325V24.5332H5.75992C5.64676 24.5332 5.53824 24.4883 5.45822 24.4083C5.3782 24.3283 5.33325 24.2197 5.33325 24.1066V20.6933H6.18659V23.0741L8.87032 20.3903L9.47618 20.9962L6.79245 23.6799ZM26.2399 26.6666H15.9999C15.8868 26.6666 15.7782 26.6216 15.6982 26.5416C15.6182 26.4616 15.5733 26.3531 15.5733 26.2399V22.9503C15.5733 22.8897 15.5863 22.8299 15.6113 22.7747C15.6363 22.7195 15.6728 22.6703 15.7183 22.6303L17.8517 20.7701C17.928 20.7073 18.0238 20.673 18.1226 20.673C18.2214 20.673 18.3172 20.7073 18.3935 20.7701L19.8399 21.8922V20.2666C19.8399 20.1534 19.8849 20.0449 19.9649 19.9649C20.0449 19.8849 20.1534 19.8399 20.2666 19.8399H26.2399C26.3531 19.8399 26.4616 19.8849 26.5416 19.9649C26.6216 20.0449 26.6666 20.1534 26.6666 20.2666V26.2399C26.6666 26.3531 26.6216 26.4616 26.5416 26.5416C26.4616 26.6216 26.3531 26.6666 26.2399 26.6666ZM16.4266 25.8132H25.8132V20.6933H20.6933V22.7455C20.6926 22.8248 20.6699 22.9023 20.6277 22.9693C20.5855 23.0364 20.5255 23.0904 20.4543 23.1253C20.3858 23.1564 20.3102 23.1689 20.2352 23.1614C20.1603 23.1539 20.0887 23.1267 20.0276 23.0826L18.1717 21.6447L16.465 23.1466L16.4266 25.8132ZM22.3999 22.8266H21.5466V21.5466H22.3999V22.8266ZM23.6799 22.8266H22.8266V21.5466H23.6799V22.8266ZM24.9599 22.8266H24.1066V21.5466H24.9599V22.8266Z" fill="white"/>
</g>
<defs>
<clipPath id="clip0_850_24599">
<rect width="32" height="32" fill="white"/>
</clipPath>
</defs>
</svg>
