<svg width="32" height="32" viewBox="0 0 32 32" fill="none" xmlns="http://www.w3.org/2000/svg">
<g clip-path="url(#clip0_850_24598)">
<path d="M32 0H0V32H32V0Z" fill="#3B48CC"/>
<path d="M12.1856 11.7591C8.40959 11.7591 5.56372 10.5644 5.56372 8.98146C5.56372 7.39852 8.40959 6.20386 12.1856 6.20386C15.9616 6.20386 18.8117 7.39852 18.8117 8.98146C18.8117 10.5644 15.9616 11.7591 12.1856 11.7591ZM12.1856 6.85239C8.66559 6.85239 6.21225 7.97452 6.21225 8.98572C6.21225 9.99692 8.66559 11.1191 12.1856 11.1191C15.7056 11.1191 18.1589 9.99692 18.1589 8.98572C18.1589 7.97452 15.7099 6.85239 12.1856 6.85239Z" fill="white"/>
<path d="M18.8116 8.98145H18.1631V13.7132H18.8116V8.98145Z" fill="white"/>
<path d="M12.1856 25.7964C8.40956 25.7964 5.54663 24.6017 5.54663 23.0401V8.98145H6.19516V23.0401C6.19516 24.047 8.6485 25.1734 12.1685 25.1734C15.6885 25.1734 18.1418 24.0513 18.1418 23.0401V20.0534H18.7904V23.0401C18.8117 24.6017 15.9616 25.7964 12.1856 25.7964Z" fill="white"/>
<path d="M9.44205 16.4267C7.03138 15.9744 5.60205 15.0272 5.60205 13.8667H6.25058C6.25058 14.6347 7.58605 15.3942 9.56578 15.7654L9.44205 16.4267Z" fill="white"/>
<path d="M12.2026 21.4912C8.43511 21.4912 5.59351 20.2966 5.59351 18.7136H6.24204C6.24204 19.7206 8.69111 20.847 12.2154 20.847C15.0399 20.847 16.529 20.1814 16.546 20.1771L16.8148 20.7659C16.738 20.7915 15.1807 21.4912 12.2026 21.4912Z" fill="white"/>
<path d="M13.5551 18.3468H12.113C11.9123 18.3456 11.7202 18.2651 11.5787 18.1228C11.4372 17.9805 11.3578 17.788 11.3578 17.5873V16.1324C11.3561 16.0319 11.3743 15.9321 11.4115 15.8388C11.4486 15.7454 11.5039 15.6604 11.5741 15.5886C11.6444 15.5167 11.7282 15.4596 11.8207 15.4203C11.9132 15.3811 12.0125 15.3607 12.113 15.3601H13.5551C13.7565 15.3601 13.9497 15.4401 14.0921 15.5826C14.2346 15.725 14.3146 15.9182 14.3146 16.1196V17.5574C14.3186 17.6597 14.3019 17.7616 14.2656 17.8573C14.2292 17.9529 14.1739 18.0402 14.103 18.1139C14.032 18.1876 13.947 18.2462 13.8528 18.2862C13.7587 18.3263 13.6574 18.3469 13.5551 18.3468V18.3468ZM12.113 16.0385C12.0843 16.0396 12.0572 16.0518 12.0373 16.0725C12.0174 16.0932 12.0063 16.1207 12.0063 16.1494V17.5873C12.0063 17.6156 12.0175 17.6427 12.0375 17.6627C12.0576 17.6827 12.0847 17.694 12.113 17.694H13.5551C13.5834 17.694 13.6105 17.6827 13.6305 17.6627C13.6505 17.6427 13.6618 17.6156 13.6618 17.5873V16.1324C13.6618 16.1037 13.6507 16.0761 13.6308 16.0554C13.6109 16.0347 13.5838 16.0225 13.5551 16.0214L12.113 16.0385Z" fill="white"/>
<path d="M19.0593 18.3468H17.6171C17.4164 18.3456 17.2244 18.2651 17.0829 18.1228C16.9414 17.9805 16.8619 17.788 16.8619 17.5873V16.1324C16.8602 16.0319 16.8785 15.9321 16.9156 15.8388C16.9528 15.7454 17.0081 15.6604 17.0783 15.5886C17.1485 15.5167 17.2323 15.4596 17.3248 15.4203C17.4173 15.3811 17.5167 15.3607 17.6171 15.3601H19.0593C19.2599 15.3612 19.452 15.4417 19.5935 15.5841C19.735 15.7264 19.8145 15.9189 19.8145 16.1196V17.5574C19.8185 17.6593 19.8019 17.7609 19.7658 17.8563C19.7297 17.9516 19.6748 18.0387 19.6043 18.1123C19.5339 18.186 19.4493 18.2447 19.3556 18.285C19.262 18.3253 19.1612 18.3463 19.0593 18.3468V18.3468ZM17.6171 16.0385C17.5884 16.0396 17.5613 16.0518 17.5414 16.0725C17.5215 16.0932 17.5104 16.1207 17.5105 16.1494V17.5873C17.5105 17.6156 17.5217 17.6427 17.5417 17.6627C17.5617 17.6827 17.5888 17.694 17.6171 17.694H19.0593C19.0875 17.694 19.1147 17.6827 19.1347 17.6627C19.1547 17.6427 19.1659 17.6156 19.1659 17.5873V16.1324C19.1659 16.1037 19.1548 16.0761 19.135 16.0554C19.1151 16.0347 19.0879 16.0225 19.0593 16.0214L17.6171 16.0385Z" fill="white"/>
<path d="M24.559 18.3468H23.1211C22.9197 18.3468 22.7266 18.2668 22.5841 18.1243C22.4417 17.9819 22.3617 17.7887 22.3617 17.5873V16.1324C22.36 16.0316 22.3784 15.9314 22.4158 15.8378C22.4532 15.7442 22.5089 15.6589 22.5795 15.5871C22.6502 15.5152 22.7345 15.4581 22.8275 15.4191C22.9205 15.3802 23.0203 15.3601 23.1211 15.3601H24.559C24.7604 15.3601 24.9536 15.4401 25.096 15.5826C25.2385 15.725 25.3185 15.9182 25.3185 16.1196V17.5574C25.3225 17.6597 25.3058 17.7616 25.2695 17.8573C25.2331 17.9529 25.1778 18.0402 25.1069 18.1139C25.036 18.1876 24.9509 18.2462 24.8567 18.2862C24.7626 18.3263 24.6613 18.3469 24.559 18.3468ZM23.1211 16.0385C23.0917 16.0385 23.0635 16.0502 23.0427 16.071C23.0219 16.0918 23.0102 16.12 23.0102 16.1494V17.5873C23.0113 17.616 23.0235 17.6431 23.0442 17.663C23.0649 17.6829 23.0924 17.694 23.1211 17.694H24.559C24.5877 17.694 24.6153 17.6829 24.636 17.663C24.6567 17.6431 24.6688 17.616 24.6699 17.5873V16.1324C24.6699 16.103 24.6583 16.0747 24.6375 16.0539C24.6167 16.0331 24.5884 16.0214 24.559 16.0214L23.1211 16.0385Z" fill="white"/>
<path d="M25.7835 19.4391H21.9136C21.8269 19.4386 21.7413 19.4209 21.6615 19.3871C21.5817 19.3533 21.5094 19.304 21.4487 19.2422C21.388 19.1803 21.3402 19.107 21.3079 19.0266C21.2757 18.9462 21.2597 18.8602 21.2608 18.7735V17.7495H20.9323V18.7735C20.9323 18.8593 20.9154 18.9442 20.8826 19.0234C20.8498 19.1026 20.8017 19.1745 20.7411 19.2351C20.6804 19.2958 20.6085 19.3438 20.5293 19.3766C20.4501 19.4095 20.3652 19.4263 20.2795 19.4263H16.4096C16.2368 19.4252 16.0714 19.3561 15.9492 19.2339C15.827 19.1117 15.7579 18.9463 15.7568 18.7735V17.7581H15.4112V18.7735C15.4101 18.9463 15.3409 19.1117 15.2188 19.2339C15.0966 19.3561 14.9312 19.4252 14.7584 19.4263H10.8885C10.7165 19.4241 10.5522 19.3545 10.4309 19.2324C10.3096 19.1104 10.2411 18.9456 10.24 18.7735V14.9335C10.2411 14.7608 10.3102 14.5954 10.4324 14.4732C10.5546 14.351 10.72 14.2819 10.8928 14.2807H14.7627C14.9347 14.283 15.099 14.3526 15.2203 14.4747C15.3415 14.5967 15.4101 14.7615 15.4112 14.9335V16.2135H15.7568V14.9335C15.7579 14.7608 15.827 14.5954 15.9492 14.4732C16.0714 14.351 16.2368 14.2819 16.4096 14.2807H20.2795C20.4526 14.2807 20.6186 14.3495 20.7411 14.4719C20.8635 14.5944 20.9323 14.7604 20.9323 14.9335V16.2135H21.2608V14.9335C21.2619 14.7608 21.331 14.5954 21.4532 14.4732C21.5754 14.351 21.7408 14.2819 21.9136 14.2807H25.7835C25.8706 14.2785 25.9573 14.2937 26.0385 14.3254C26.1197 14.3572 26.1937 14.405 26.2561 14.4658C26.3186 14.5266 26.3682 14.5994 26.4021 14.6797C26.4359 14.7601 26.4534 14.8464 26.4533 14.9335V18.7735C26.4551 18.8618 26.4389 18.9495 26.4058 19.0313C26.3727 19.1131 26.3234 19.1874 26.2608 19.2496C26.1982 19.3119 26.1236 19.3607 26.0415 19.3933C25.9595 19.4259 25.8717 19.4415 25.7835 19.4391ZM21.9136 17.1138V18.7735H25.7877V14.9335H21.9136V16.8621H20.2837V14.9335H16.4096V16.8621H14.7627V14.9335H10.8885V18.7735H14.7627V17.1138H16.4096V18.8205H20.2795V17.1181L21.9136 17.1138Z" fill="white"/>
</g>
<defs>
<clipPath id="clip0_850_24598">
<rect width="32" height="32" fill="white"/>
</clipPath>
</defs>
</svg>
