<svg width="32" height="32" viewBox="0 0 32 32" fill="none" xmlns="http://www.w3.org/2000/svg">
<g clip-path="url(#clip0_850_24857)">
<path d="M32 0H0V32H32V0Z" fill="url(#paint0_linear_850_24857)"/>
<path fill-rule="evenodd" clip-rule="evenodd" d="M12.4435 10.0995C8.66 10.0995 6.023 9.019 6.023 8.0495C6.023 7.08 8.66 6 12.4435 6C16.1845 6 18.5 7.064 18.5 8.0495C18.5 9.0355 16.1845 10.0995 12.4435 10.0995ZM8.8265 21.181L9.71 21.6495C11.4445 18.375 14.8165 16.341 18.5105 16.341C19.2565 16.341 20.0005 16.4245 20.722 16.589L20.9435 15.6135C20.47 15.506 19.987 15.4335 19.5 15.39V7.9495H19.4905C19.387 6.1815 16.5855 5 12.4435 5C8.8195 5 5.16 6.014 5.035 7.9495H5V23.842C5 25.018 6.247 25.9605 8.5125 26.4955L8.742 25.522C7.0765 25.129 6 24.4695 6 23.842V20.3025C6.5085 20.6705 7.1995 20.9865 8.0775 21.2305L8.345 20.267C6.9125 19.8695 6.023 19.271 6.023 18.706H6V15.1235C7.2665 16.0505 9.588 16.554 11.9 16.65L11.941 15.651C8.286 15.499 6.023 14.412 6.023 13.4915H6V9.643C7.35 10.604 9.9075 11.0995 12.4435 11.0995C15.1765 11.0995 17.3225 10.5835 18.5 9.726V15.3415C14.439 15.3455 10.733 17.582 8.8265 21.181ZM23.596 17.7415C22.9675 17.3665 22.298 17.061 21.606 16.834L21.9175 15.8835C22.68 16.1335 23.4165 16.47 24.1085 16.883L23.596 17.7415ZM19.92 25.9495C19.8475 25.5555 19.6845 25.1955 19.4555 24.885L23.7035 20.868C25.0285 22.1855 25.861 24.03 25.984 25.9495H19.92ZM17.3685 24.8195C18.086 24.8195 18.6875 25.2975 18.889 25.9495H15.847C16.049 25.2975 16.651 24.8195 17.3685 24.8195ZM24.428 20.183L25.794 18.8915L25.1065 18.165L18.716 24.2075C18.322 23.966 17.8635 23.8195 17.3685 23.8195C16.0955 23.8195 15.038 24.7405 14.816 25.9495H10.6415C10.8955 21.879 14.2395 18.6465 18.3125 18.6465C19.418 18.6465 20.485 18.876 21.4835 19.3285L21.8965 18.418C20.767 17.906 19.5615 17.6465 18.3125 17.6465C13.5225 17.6465 9.6255 21.5955 9.6255 26.4495V26.9495H27V26.4495C27 24.103 26.04 21.799 24.428 20.183Z" fill="white"/>
</g>
<defs>
<linearGradient id="paint0_linear_850_24857" x1="-6.6304" y1="38.6304" x2="38.6261" y2="-6.62613" gradientUnits="userSpaceOnUse">
<stop stop-color="#2E27AD"/>
<stop offset="1" stop-color="#527FFF"/>
</linearGradient>
<clipPath id="clip0_850_24857">
<rect width="32" height="32" fill="white"/>
</clipPath>
</defs>
</svg>
