<svg width="32" height="32" viewBox="0 0 32 32" fill="none" xmlns="http://www.w3.org/2000/svg">
<g clip-path="url(#clip0_850_24596)">
<path d="M32 0H0V32H32V0Z" fill="#3B48CC"/>
<path d="M16.0088 11.52C13.1458 11.52 10.2402 12.2667 10.2402 13.696V23.424C10.2402 24.8534 13.133 25.6 15.996 25.6C18.8589 25.6 21.7602 24.8534 21.7602 23.424V13.696C21.7602 12.2667 18.8632 11.52 16.0088 11.52ZM16.0088 24.7467C12.8344 24.7467 11.0936 23.8934 11.0936 23.424V21.3718C12.1602 22.0203 14.0802 22.3574 15.996 22.3574C17.9117 22.3574 19.836 22.0203 20.8941 21.376V23.424C20.9069 23.8934 19.1746 24.7467 16.0088 24.7467ZM16.0088 21.504C12.8344 21.504 11.1064 20.6507 11.1064 20.1814V18.1334C12.173 18.7776 14.093 19.1147 16.0088 19.1147C17.9245 19.1147 19.8488 18.7776 20.9069 18.1334V20.1814C20.9069 20.6294 19.1746 21.504 16.0088 21.504ZM16.0088 18.2614C12.8344 18.2614 11.1064 17.408 11.1064 16.9387V14.8864C12.173 15.535 14.093 15.872 16.0088 15.872C17.9245 15.872 19.8488 15.535 20.9069 14.8864V16.9387C20.9069 17.3867 19.1746 18.2614 16.0088 18.2614ZM16.0088 15.0187C12.8344 15.0187 11.0936 14.144 11.0936 13.696C11.0936 13.248 12.8002 12.3734 15.996 12.3734C19.1917 12.3734 20.9069 13.248 20.9069 13.696C20.9069 14.144 19.1746 15.0187 16.0088 15.0187V15.0187Z" fill="white"/>
<path d="M26.4534 8.18764C26.5666 8.18764 26.6751 8.14268 26.7551 8.06267C26.8352 7.98265 26.8801 7.87413 26.8801 7.76097V6.82657C26.8801 6.71341 26.8352 6.60489 26.7551 6.52487C26.6751 6.44485 26.5666 6.3999 26.4534 6.3999H5.54678C5.43362 6.3999 5.3251 6.44485 5.24509 6.52487C5.16507 6.60489 5.12012 6.71341 5.12012 6.82657V7.7567C5.12012 7.86986 5.16507 7.97839 5.24509 8.0584C5.3251 8.13842 5.43362 8.18337 5.54678 8.18337C5.78139 8.20571 5.99924 8.31471 6.15778 8.48907C6.31633 8.66343 6.40418 8.89064 6.40418 9.1263C6.40418 9.36197 6.31633 9.58917 6.15778 9.76353C5.99924 9.9379 5.78139 10.0469 5.54678 10.0692C5.43362 10.0692 5.3251 10.1142 5.24509 10.1942C5.16507 10.2742 5.12012 10.3827 5.12012 10.4959V17.9199C5.12012 18.0331 5.16507 18.1416 5.24509 18.2216C5.3251 18.3016 5.43362 18.3466 5.54678 18.3466H9.38678V17.4932H7.68012V17.0666H9.38678V16.2132H7.25345C7.14029 16.2132 7.03177 16.2582 6.95175 16.3382C6.87174 16.4182 6.82678 16.5267 6.82678 16.6399V17.4932H5.97345V10.8671C6.34608 10.7536 6.67237 10.5233 6.90423 10.2103C7.13608 9.89722 7.26123 9.51798 7.26123 9.12844C7.26123 8.73889 7.13608 8.35965 6.90423 8.04662C6.67237 7.73358 6.34608 7.50332 5.97345 7.38977V7.25324H26.0268V7.39404C25.6596 7.5121 25.3394 7.74365 25.1122 8.05533C24.885 8.36701 24.7626 8.74275 24.7626 9.12844C24.7626 9.51412 24.885 9.88986 25.1122 10.2015C25.3394 10.5132 25.6596 10.7448 26.0268 10.8628V17.4932H25.6001V16.6399C25.6001 16.5267 25.5552 16.4182 25.4751 16.3382C25.3951 16.2582 25.2866 16.2132 25.1734 16.2132H22.6134V17.0666H24.7468V17.4932H22.6134V18.3466H26.4534C26.5666 18.3466 26.6751 18.3016 26.7551 18.2216C26.8352 18.1416 26.8801 18.0331 26.8801 17.9199V10.4959C26.8801 10.3827 26.8352 10.2742 26.7551 10.1942C26.6751 10.1142 26.5666 10.0692 26.4534 10.0692C26.2228 10.0423 26.0102 9.93159 25.8558 9.75815C25.7014 9.58471 25.6162 9.36061 25.6162 9.12844C25.6162 8.89626 25.7014 8.67217 25.8558 8.49873C26.0102 8.32529 26.2228 8.21458 26.4534 8.18764V8.18764Z" fill="white"/>
<path d="M15.7868 10.6667V8.53336C15.7868 8.4202 15.7418 8.31167 15.6618 8.23166C15.5818 8.15164 15.4733 8.10669 15.3601 8.10669H12.3734C12.2603 8.10669 12.1518 8.15164 12.0717 8.23166C11.9917 8.31167 11.9468 8.4202 11.9468 8.53336V11.0934H12.8001V8.96002H14.9334V10.6667H15.7868Z" fill="white"/>
<path d="M20.0534 11.0934V8.53336C20.0534 8.4202 20.0084 8.31167 19.9284 8.23166C19.8484 8.15164 19.7399 8.10669 19.6267 8.10669H16.64C16.5269 8.10669 16.4184 8.15164 16.3383 8.23166C16.2583 8.31167 16.2134 8.4202 16.2134 8.53336V10.6667H17.0667V8.96002H19.2V11.0934H20.0534Z" fill="white"/>
<path d="M22.6136 14.5067V15.36H23.8936C24.0067 15.36 24.1152 15.3151 24.1953 15.2351C24.2753 15.155 24.3202 15.0465 24.3202 14.9334V8.53336C24.3202 8.4202 24.2753 8.31167 24.1953 8.23166C24.1152 8.15164 24.0067 8.10669 23.8936 8.10669H20.9069C20.7937 8.10669 20.6852 8.15164 20.6052 8.23166C20.5252 8.31167 20.4802 8.4202 20.4802 8.53336V11.52H21.3336V8.96002H23.4669V14.5067H22.6136Z" fill="white"/>
<path d="M8.53351 8.96002H10.6668V11.52H11.5202V8.53336C11.5202 8.4202 11.4752 8.31167 11.3952 8.23166C11.3152 8.15164 11.2067 8.10669 11.0935 8.10669H8.10684C7.99368 8.10669 7.88516 8.15164 7.80514 8.23166C7.72513 8.31167 7.68018 8.4202 7.68018 8.53336V14.9334C7.68018 15.0465 7.72513 15.155 7.80514 15.2351C7.88516 15.3151 7.99368 15.36 8.10684 15.36H9.38684V14.5067H8.53351V8.96002Z" fill="white"/>
</g>
<defs>
<clipPath id="clip0_850_24596">
<rect width="32" height="32" fill="white"/>
</clipPath>
</defs>
</svg>
