<svg width="32" height="32" viewBox="0 0 32 32" fill="none" xmlns="http://www.w3.org/2000/svg">
<g clip-path="url(#clip0_850_24584)">
<path d="M32 0H0V32H32V0Z" fill="#3B48CC"/>
<path d="M10.8286 12.5997C7.52195 12.5997 4.00195 11.597 4.00195 9.74099C4.00195 7.88499 7.51342 6.88232 10.8286 6.88232C14.1438 6.88232 17.6553 7.88499 17.6553 9.74099C17.6553 11.597 14.131 12.5997 10.8286 12.5997ZM10.8286 7.73566C7.41529 7.73566 4.85529 8.79379 4.85529 9.74099C4.85529 10.6882 7.41529 11.7463 10.8286 11.7463C14.242 11.7463 16.802 10.6882 16.802 9.74099C16.802 8.79379 14.2377 7.73566 10.8286 7.73566V7.73566Z" fill="white"/>
<path d="M17.6683 9.8689H16.8149V17.1222H17.6683V9.8689Z" fill="white"/>
<path d="M10.8245 26.4534C7.52207 26.4534 3.9978 25.4636 3.9978 23.6246V9.8689H4.85114V23.6332C4.85114 24.5718 7.41114 25.6172 10.8245 25.6172C14.2378 25.6172 16.7978 24.5718 16.7978 23.6332V22.2422H17.6511V23.6332C17.6682 25.4721 14.1311 26.4534 10.8245 26.4534Z" fill="white"/>
<path d="M10.8286 17.4209C7.52622 17.4209 4.00195 16.4183 4.00195 14.5623H4.85529C4.85529 15.5095 7.41529 16.5676 10.8286 16.5676C14.242 16.5676 16.802 15.5095 16.802 14.5623H17.6553C17.6468 16.4183 14.1353 17.4209 10.8286 17.4209Z" fill="white"/>
<path d="M10.8586 22.1143C7.55625 22.1143 4.03198 21.1116 4.03198 19.2556H4.88532C4.88532 20.2028 7.44532 21.2609 10.8586 21.2609C12.2554 21.2797 13.6463 21.0781 14.9802 20.6636L15.2533 21.47C13.8316 21.9155 12.3484 22.133 10.8586 22.1143Z" fill="white"/>
<path d="M20.8427 26.8247C20.7296 26.8247 20.621 26.7798 20.541 26.6997C20.461 26.6197 20.416 26.5112 20.416 26.398C20.416 23.4668 17.0667 20.109 14.1227 20.109C14.0096 20.109 13.901 20.064 13.821 19.984C13.741 19.904 13.696 19.7955 13.696 19.6823C13.696 19.5692 13.741 19.4606 13.821 19.3806C13.901 19.3006 14.0096 19.2556 14.1227 19.2556C17.0624 19.2556 20.416 15.902 20.416 12.9623C20.416 12.8492 20.461 12.7406 20.541 12.6606C20.621 12.5806 20.7296 12.5356 20.8427 12.5356C20.9559 12.5356 21.0644 12.5806 21.1444 12.6606C21.2244 12.7406 21.2694 12.8492 21.2694 12.9623C21.2694 15.902 24.6187 19.2556 27.5627 19.2556C27.6759 19.2556 27.7844 19.3006 27.8644 19.3806C27.9444 19.4606 27.9894 19.5692 27.9894 19.6823C27.9894 19.7955 27.9444 19.904 27.8644 19.984C27.7844 20.064 27.6759 20.109 27.5627 20.109C24.6187 20.109 21.2694 23.4583 21.2694 26.398C21.2694 26.5112 21.2244 26.6197 21.1444 26.6997C21.0644 26.7798 20.9559 26.8247 20.8427 26.8247V26.8247ZM16.2134 19.6823C18.2987 20.5707 19.9581 22.2333 20.8427 24.3202C21.7288 22.2299 23.3937 20.5665 25.4848 19.6823C23.3934 18.7964 21.7287 17.1316 20.8427 15.0402C19.9583 17.1282 18.2989 18.7921 16.2134 19.6823V19.6823Z" fill="white"/>
<path d="M23.6414 9.44214H22.7881V12.0021H23.6414V9.44214Z" fill="white"/>
<path d="M24.4948 10.2957H21.9348V11.149H24.4948V10.2957Z" fill="white"/>
<path d="M18.9483 5.17554H18.095V7.73554H18.9483V5.17554Z" fill="white"/>
<path d="M19.8015 6.02881H17.2415V6.88214H19.8015V6.02881Z" fill="white"/>
</g>
<defs>
<clipPath id="clip0_850_24584">
<rect width="32" height="32" fill="white"/>
</clipPath>
</defs>
</svg>
