<svg width="32" height="32" viewBox="0 0 32 32" fill="none" xmlns="http://www.w3.org/2000/svg">
<g clip-path="url(#clip0_850_24600)">
<path d="M32 0H0V32H32V0Z" fill="url(#paint0_linear_850_24600)"/>
<path d="M20.6719 12.0449C20.6719 10.8076 18.2441 10.2358 15.9785 10.2358C13.7129 10.2358 11.2852 10.8076 11.2852 12.0449C11.2833 12.1068 11.2905 12.1686 11.3065 12.2284V19.9297C11.2852 21.2097 13.7172 21.7558 15.9999 21.7558C18.2825 21.7558 20.6932 21.1926 20.6932 19.9553V12.0449H20.6719ZM15.9871 11.0934C18.4745 11.0934 19.8271 11.7718 19.8271 12.0492C19.8271 12.3265 18.4831 13.0049 15.9871 13.0049C13.4911 13.0049 12.1471 12.3308 12.1471 12.0492C12.1471 11.7676 13.4996 11.0934 15.9871 11.0934ZM19.8271 19.9596C19.8271 20.2326 18.4788 20.9068 15.9871 20.9068C13.4953 20.9068 12.1471 20.2326 12.1471 19.9596V18.6113C13.0473 19.102 14.5577 19.3366 15.9871 19.3366C17.4164 19.3366 18.914 19.1062 19.8271 18.6241V19.9596ZM19.8271 17.5318C19.8271 17.8049 18.4831 18.4876 15.9871 18.4876C13.4911 18.4876 12.1471 17.8049 12.1471 17.5318H12.1599V15.902C13.0601 16.3884 14.5705 16.623 15.9999 16.623C17.4292 16.623 18.9268 16.3926 19.8399 15.9105L19.8271 17.5318ZM19.8271 14.814C19.8271 15.0913 18.4831 15.774 15.9871 15.774C13.4911 15.774 12.1471 15.0913 12.1471 14.814H12.1599V13.15C13.0687 13.6321 14.562 13.854 15.9999 13.854C17.4377 13.854 18.9481 13.6236 19.8399 13.1329L19.8271 14.814Z" fill="white"/>
<path d="M6.78819 25.8176H9.59992V26.6709H5.75992C5.64676 26.6709 5.53824 26.626 5.45822 26.546C5.3782 26.4659 5.33325 26.3574 5.33325 26.2443V22.4043H6.18659V25.2075L9.38659 22.0117L9.98392 22.6133L6.78819 25.8176Z" fill="white"/>
<path d="M26.6666 22.4042V26.2442C26.6666 26.3574 26.6216 26.4659 26.5416 26.5459C26.4616 26.6259 26.3531 26.6709 26.2399 26.6709H22.3999V25.8175H25.2117L22.0586 22.6559L22.6602 22.0586L25.8133 25.2074V22.4042H26.6666Z" fill="white"/>
<path d="M26.6666 5.76431V9.60431H25.8133V6.78831L22.6602 9.94138L22.0586 9.33978L25.2074 6.19098H22.3999V5.33765H26.2399C26.3531 5.33765 26.4616 5.3826 26.5416 5.46261C26.6216 5.54263 26.6666 5.65115 26.6666 5.76431Z" fill="white"/>
<path d="M9.98392 9.3867L9.38659 9.98403L6.18659 6.7883V9.59577H5.33325V5.75577C5.33325 5.64261 5.3782 5.53408 5.45822 5.45407C5.53824 5.37405 5.64676 5.3291 5.75992 5.3291H9.59992V6.18243H6.78819L9.98392 9.3867Z" fill="white"/>
<path d="M9.45476 19.8231C6.84783 18.8844 5.35449 17.4508 5.35449 15.8935C5.35449 14.3361 6.84783 12.9068 9.45476 11.9639L9.74489 12.766C7.53049 13.5639 6.20783 14.7329 6.20783 15.8935C6.20783 17.054 7.53049 18.2231 9.74489 19.0209L9.45476 19.8231Z" fill="white"/>
<path d="M22.306 19.9168L22.033 19.1061C24.401 18.3083 25.8132 17.1051 25.8132 15.8933C25.8132 14.6816 24.401 13.4784 22.033 12.6763L22.306 11.8699C25.0751 12.8 26.6666 14.2763 26.6666 15.8933C26.6666 17.5104 25.0751 18.9781 22.306 19.9168Z" fill="white"/>
</g>
<defs>
<linearGradient id="paint0_linear_850_24600" x1="-6.62613" y1="38.6261" x2="38.6304" y2="-6.6304" gradientUnits="userSpaceOnUse">
<stop stop-color="#2E27AD"/>
<stop offset="1" stop-color="#527FFF"/>
</linearGradient>
<clipPath id="clip0_850_24600">
<rect width="32" height="32" fill="white"/>
</clipPath>
</defs>
</svg>
