<svg width="32" height="32" viewBox="0 0 32 32" fill="none" xmlns="http://www.w3.org/2000/svg">
<g clip-path="url(#clip0_850_24605)">
<path d="M32 0H0V32H32V0Z" fill="url(#paint0_linear_850_24605)"/>
<path d="M13.5167 11.4134C9.5402 11.4134 6.42554 10.1334 6.42554 8.45656C6.42554 6.77976 9.5402 5.49976 13.5167 5.49976C17.4933 5.49976 20.6079 6.77976 20.6079 8.45656C20.6079 10.1334 17.4933 11.4134 13.5167 11.4134ZM13.5167 6.13976C9.71514 6.13976 7.06554 7.36002 7.06554 8.45656C7.06554 9.55309 9.71514 10.7734 13.5167 10.7734C17.3183 10.7734 19.9679 9.55309 19.9679 8.45656C19.9679 7.36002 17.3183 6.13976 13.5167 6.13976Z" fill="white"/>
<path d="M20.608 8.45654H19.968V13.504H20.608V8.45654Z" fill="white"/>
<path d="M13.5167 26.5003C9.5402 26.5003 6.42554 25.2203 6.42554 23.5435V8.45654H7.06554V23.5435C7.06554 24.64 9.71514 25.8603 13.5167 25.8603C17.3183 25.8603 19.9679 24.64 19.9679 23.5435V22.1013H20.6079V23.5435C20.6079 25.2032 17.4933 26.5003 13.5167 26.5003Z" fill="white"/>
<path d="M13.5338 16.6913C9.56585 16.6913 6.45972 15.4113 6.45972 13.7302H7.09972C7.09972 14.8268 9.74078 16.0513 13.5338 16.0513C14.164 16.0506 14.7935 16.015 15.4197 15.9446L15.4922 16.5804C14.8421 16.6543 14.1882 16.6913 13.5338 16.6913V16.6913Z" fill="white"/>
<path d="M13.5338 21.8751C9.56585 21.8751 6.45972 20.5738 6.45972 18.9141H7.09972C7.09972 20.0106 9.74078 21.2351 13.5338 21.2351C14.1639 21.2337 14.7935 21.1981 15.4197 21.1285L15.488 21.7599C14.8393 21.8347 14.1869 21.8732 13.5338 21.8751V21.8751Z" fill="white"/>
<path d="M25.0795 21.807H16.384C16.3418 21.8075 16.2999 21.7997 16.2609 21.7838C16.2218 21.7679 16.1863 21.7444 16.1564 21.7145C16.1266 21.6847 16.1031 21.6492 16.0872 21.6101C16.0713 21.571 16.0634 21.5292 16.064 21.487V13.1499H16.704V21.167H25.0795V21.807Z" fill="white"/>
<path d="M18.0189 18.5941L17.0867 19.5264L17.5392 19.9789L18.4715 19.0467L18.0189 18.5941Z" fill="white"/>
<path d="M19.4047 18.1164L18.9524 17.6641L19.8228 16.7895H21.9945L24.8532 13.9351L25.3055 14.3873L22.2633 17.4295H20.0873L19.4047 18.1164Z" fill="white"/>
<path d="M20.1087 15.855L19.0463 14.7926H17.1604V14.1526H19.3108L20.1087 14.9505L20.9108 14.1526H21.9519L23.1337 15.3345L22.6815 15.7867L21.6873 14.7926H21.1753L20.1087 15.855Z" fill="white"/>
<path d="M23.9098 16.1109L23.4573 16.5635L24.8541 17.9603L25.3067 17.5078L23.9098 16.1109Z" fill="white"/>
<path d="M24.4608 20.6677L24.0085 20.2155L24.6272 19.5968L24.0085 18.9781L24.4608 18.5259L25.5317 19.5968L24.4608 20.6677Z" fill="white"/>
<path d="M20.2666 20.3607L17.0879 17.182L17.5402 16.7297L20.2666 19.4561L21.5082 18.2145L22.5706 19.2769H25.0794V19.9169H22.306L21.5082 19.1191L20.2666 20.3607Z" fill="white"/>
<path d="M25.5742 18.2359H24.0596V17.5959H24.9342V16.7212H25.5742V18.2359Z" fill="white"/>
<path d="M25.5742 15.0698H24.9342V14.1952H24.0596V13.5552H25.5742V15.0698Z" fill="white"/>
</g>
<defs>
<linearGradient id="paint0_linear_850_24605" x1="-6.6304" y1="38.6304" x2="38.6261" y2="-6.62613" gradientUnits="userSpaceOnUse">
<stop stop-color="#2E27AD"/>
<stop offset="1" stop-color="#527FFF"/>
</linearGradient>
<clipPath id="clip0_850_24605">
<rect width="32" height="32" fill="white"/>
</clipPath>
</defs>
</svg>
