<svg width="32" height="32" viewBox="0 0 32 32" fill="none" xmlns="http://www.w3.org/2000/svg">
<g clip-path="url(#clip0_850_24591)">
<path d="M32 0H0V32H32V0Z" fill="#3B48CC"/>
<path d="M21.4399 17.2714L18.6197 20.0874C19.1271 19.9458 19.6166 19.7468 20.0789 19.4943C20.2139 19.5781 20.3292 19.6901 20.4169 19.8227C20.5045 19.9552 20.5624 20.1052 20.5866 20.2623C20.5866 21.0431 18.9311 21.8922 16.4735 22.2378C15.7155 22.3403 14.9516 22.3945 14.1866 22.3999H13.7599C10.3125 22.3188 7.78661 21.2308 7.78661 20.2666C7.81079 20.1095 7.86869 19.9595 7.95634 19.8269C8.04398 19.6944 8.15929 19.5823 8.29435 19.4986C9.63408 20.2452 11.8058 20.689 14.1866 20.689H14.2335L14.4725 19.8356C14.3786 19.8356 14.2847 19.8356 14.1866 19.8356C11.8399 19.8356 9.66395 19.3706 8.50768 18.6367C8.04688 18.3338 7.79088 18.0052 7.78661 17.7194V15.7439C9.09221 16.7423 11.6949 17.2628 14.1866 17.2628C14.5237 17.2628 14.8607 17.2628 15.1893 17.233L15.4325 16.3796C15.0058 16.4095 14.609 16.4223 14.1866 16.4223C10.5258 16.4223 7.78661 15.3002 7.78661 14.289C7.81079 14.1319 7.86869 13.9819 7.95634 13.8493C8.04398 13.7168 8.15929 13.6047 8.29435 13.521C9.47195 14.1823 11.281 14.5962 13.3333 14.69L13.3546 13.8367C11.3365 13.7386 9.51461 13.3034 8.50768 12.6591C8.05115 12.3647 7.79515 12.0319 7.78661 11.7418V9.77056C9.09221 10.769 11.6949 11.2895 14.1866 11.2895H14.2805L14.7327 10.4362H14.1866C10.5258 10.4362 7.78661 9.31403 7.78661 8.30283C7.78661 7.29163 10.5258 6.1695 14.1866 6.1695C15.4196 6.16427 16.6487 6.30753 17.8474 6.59616H20.1898C18.9098 5.81536 16.6997 5.31616 14.1866 5.31616C10.6709 5.31616 6.93328 6.35723 6.93328 8.30283V11.7375C6.94611 11.9808 7.01013 12.2187 7.12114 12.4356C7.23216 12.6524 7.38768 12.8435 7.57755 12.9962C7.38527 13.1514 7.22833 13.3459 7.11723 13.5666C7.00612 13.7873 6.94341 14.0293 6.93328 14.2762V17.6895C6.94314 17.9365 7.00573 18.1785 7.11685 18.3992C7.22798 18.62 7.38506 18.8145 7.57755 18.9695C7.38527 19.1247 7.22833 19.3192 7.11723 19.5399C7.00612 19.7607 6.94341 20.0026 6.93328 20.2495V23.6628C6.93077 23.6926 6.93077 23.7226 6.93328 23.7524C7.04848 25.6255 10.7178 26.6324 14.1866 26.6324C17.6554 26.6324 21.3247 25.6255 21.4399 23.7439C21.4441 23.7142 21.4441 23.684 21.4399 23.6543V20.241C21.4318 19.9937 21.3699 19.7511 21.2587 19.5301C21.1474 19.309 20.9894 19.1149 20.7957 18.961C20.9882 18.8059 21.1453 18.6115 21.2564 18.3907C21.3675 18.1699 21.4301 17.9279 21.4399 17.681V17.2714ZM20.5866 23.6714C20.5866 24.6783 17.8474 25.8047 14.1866 25.8047C10.5258 25.8047 7.78661 24.6911 7.78661 23.6714V21.7087C9.09221 22.6986 11.6949 23.2191 14.1866 23.2191C16.6783 23.2191 19.281 22.6986 20.5866 21.7087V23.6714Z" fill="white"/>
<path d="M9.06654 12.2752C9.36109 12.2752 9.59987 12.0364 9.59987 11.7418C9.59987 11.4473 9.36109 11.2085 9.06654 11.2085C8.77198 11.2085 8.5332 11.4473 8.5332 11.7418C8.5332 12.0364 8.77198 12.2752 9.06654 12.2752Z" fill="white"/>
<path d="M9.06654 18.2486C9.36109 18.2486 9.59987 18.0098 9.59987 17.7152C9.59987 17.4207 9.36109 17.1819 9.06654 17.1819C8.77198 17.1819 8.5332 17.4207 8.5332 17.7152C8.5332 18.0098 8.77198 18.2486 9.06654 18.2486Z" fill="white"/>
<path d="M9.06654 24.2217C9.36109 24.2217 9.59987 23.9829 9.59987 23.6884C9.59987 23.3938 9.36109 23.155 9.06654 23.155C8.77198 23.155 8.5332 23.3938 8.5332 23.6884C8.5332 23.9829 8.77198 24.2217 9.06654 24.2217Z" fill="white"/>
<path d="M15.2533 21.9648C15.1782 21.964 15.1046 21.9434 15.04 21.9051C14.9569 21.8572 14.8923 21.7828 14.8567 21.6938C14.8211 21.6048 14.8165 21.5064 14.8437 21.4144L17.2416 13.4315H14.8266C14.7521 13.4324 14.6786 13.4138 14.6135 13.3776C14.5484 13.3413 14.494 13.2886 14.4556 13.2247C14.4171 13.1609 14.3961 13.088 14.3946 13.0135C14.3931 12.939 14.4111 12.8654 14.4469 12.8L17.0069 7.68002C17.0424 7.60965 17.0966 7.55048 17.1636 7.50906C17.2307 7.46764 17.3079 7.44559 17.3866 7.44535H22.9333C23.0024 7.44191 23.0714 7.45534 23.1341 7.48448C23.1969 7.51362 23.2517 7.55759 23.2937 7.6126C23.3356 7.66761 23.3636 7.73201 23.3752 7.80025C23.3867 7.86849 23.3815 7.93851 23.36 8.00428L22.2677 11.2854H24.6613C24.7447 11.2857 24.8262 11.3104 24.8956 11.3565C24.9651 11.4026 25.0195 11.4681 25.0522 11.5448C25.0849 11.6215 25.0944 11.7061 25.0795 11.7881C25.0646 11.8702 25.026 11.9461 24.9685 12.0064L15.5818 21.8197C15.5409 21.8664 15.4903 21.9035 15.4336 21.9285C15.3768 21.9536 15.3153 21.966 15.2533 21.9648V21.9648ZM15.5178 12.5781H17.8133C17.8796 12.5781 17.9449 12.5936 18.0041 12.6232C18.0634 12.6528 18.1149 12.6958 18.1546 12.7488C18.1944 12.8018 18.2213 12.8633 18.2331 12.9285C18.245 12.9937 18.2415 13.0607 18.2229 13.1243L16.1706 19.9509L23.6416 12.1429H21.6533C21.5837 12.1466 21.5142 12.1332 21.451 12.1039C21.3878 12.0745 21.3327 12.0301 21.2906 11.9745C21.2485 11.919 21.2206 11.8539 21.2095 11.7851C21.1984 11.7163 21.2042 11.6458 21.2266 11.5797L22.3189 8.30295H17.6256L15.5178 12.5781Z" fill="white"/>
</g>
<defs>
<clipPath id="clip0_850_24591">
<rect width="32" height="32" fill="white"/>
</clipPath>
</defs>
</svg>
