<svg width="32" height="32" viewBox="0 0 32 32" fill="none" xmlns="http://www.w3.org/2000/svg">
<g clip-path="url(#clip0_850_24878)">
<path d="M32 0H0V32H32V0Z" fill="url(#paint0_linear_850_24878)"/>
<path fill-rule="evenodd" clip-rule="evenodd" d="M26.368 13.152L25 13.44L26.068 14.604C25.868 14.972 25.58 15.188 25.204 15.252L24.3995 13.812L23.5955 15.252C23.2195 15.188 22.9315 14.972 22.732 14.604L23.7995 13.44L22.4315 13.152C22.4235 13.072 22.42 13.004 22.42 12.948C22.42 12.62 22.536 12.348 22.768 12.132L24.028 12.78L23.836 11.268C24.0115 11.188 24.2 11.148 24.3995 11.148C24.5995 11.148 24.788 11.188 24.9635 11.268L24.772 12.78L26.032 12.132C26.2635 12.348 26.3795 12.62 26.3795 12.948C26.3795 13.004 26.376 13.072 26.368 13.152ZM20.447 21.786C21.07 21.786 21.7615 21.6615 22.521 21.412V22.211C21.818 22.528 21.11 22.687 20.396 22.687C19.081 22.687 18.084 22.31 17.404 21.5565C16.724 20.803 16.3835 19.695 16.3835 18.233C16.3835 16.7825 16.7295 15.6745 17.4205 14.9095C18.112 14.1445 19.115 13.762 20.4295 13.762C21.1325 13.762 21.7955 13.898 22.419 14.17V14.969C21.7955 14.765 21.149 14.663 20.481 14.663C19.404 14.663 18.625 14.938 18.1435 15.4875C17.6615 16.0375 17.4205 16.9185 17.4205 18.131V18.335C17.4205 19.514 17.6645 20.3835 18.152 20.9445C18.639 21.5055 19.404 21.786 20.447 21.786ZM13.5 6C17.22 6 20 7.188 20 8.25C20 9.312 17.22 10.5 13.5 10.5C9.7795 10.5 7 9.312 7 8.25C7 7.188 9.7795 6 13.5 6ZM13.36 25.7015C9.72 25.7015 7 24.554 7 23.528V20.4995C8.355 21.49 10.884 22.012 13.3105 22.012C13.98 22.012 14.6535 21.975 15.313 21.9015L15.2025 20.9075C14.5795 20.9765 13.943 21.012 13.3105 21.012C9.6985 21.012 7 19.8645 7 18.8385V15.247C8.355 16.237 10.884 16.759 13.3105 16.759C13.994 16.759 14.6685 16.7215 15.3155 16.6465L15.2 15.653C14.591 15.7235 13.9555 15.759 13.3105 15.759C9.6985 15.759 7 14.6115 7 13.5855V9.933C8.3835 10.959 10.9955 11.5 13.5 11.5C16.004 11.5 18.616 10.959 20 9.933V11H21V8.25C21 6.139 17.1355 5 13.5 5C9.864 5 6 6.139 6 8.25V23.528C6 25.5895 9.792 26.7015 13.36 26.7015C16.1275 26.7015 18.6165 26.0795 19.856 25.0785L19.228 24.3005C18.1735 25.152 15.871 25.7015 13.36 25.7015Z" fill="white"/>
</g>
<defs>
<linearGradient id="paint0_linear_850_24878" x1="-6.6304" y1="38.6304" x2="38.6261" y2="-6.62613" gradientUnits="userSpaceOnUse">
<stop stop-color="#2E27AD"/>
<stop offset="1" stop-color="#527FFF"/>
</linearGradient>
<clipPath id="clip0_850_24878">
<rect width="32" height="32" fill="white"/>
</clipPath>
</defs>
</svg>
