<svg width="32" height="32" viewBox="0 0 32 32" fill="none" xmlns="http://www.w3.org/2000/svg">
<g clip-path="url(#clip0_850_24603)">
<path d="M32 0H0V32H32V0Z" fill="#3B48CC"/>
<path d="M15.9999 26.6666C12.4842 26.6666 8.74658 25.6469 8.74658 23.7568V8.24316H9.59992V23.7568C9.59992 24.6101 12.0362 25.8133 15.9999 25.8133C19.9636 25.8133 22.3999 24.6186 22.3999 23.7568V8.24316H23.2532V23.7568C23.2532 25.6469 19.5156 26.6666 15.9999 26.6666Z" fill="white"/>
<path d="M15.9999 26.6666C12.4842 26.6666 8.74658 25.6469 8.74658 23.7568V8.24316H9.59992V23.7568C9.59992 24.6101 12.0362 25.8133 15.9999 25.8133C19.9636 25.8133 22.3999 24.6186 22.3999 23.7568V8.24316H23.2532V23.7568C23.2532 25.6469 19.5156 26.6666 15.9999 26.6666Z" fill="white"/>
<path d="M15.9999 11.1487C12.4842 11.1487 8.74658 10.129 8.74658 8.24312C8.74658 6.35725 12.4842 5.33325 15.9999 5.33325C19.5156 5.33325 23.2532 6.35299 23.2532 8.24312C23.2532 10.1333 19.5156 11.1487 15.9999 11.1487ZM15.9999 6.18659C12.0362 6.18659 9.59992 7.38125 9.59992 8.24312C9.59992 9.10498 12.0362 10.2954 15.9999 10.2954C19.9636 10.2954 22.3999 9.10072 22.3999 8.24312C22.3999 7.38552 19.9636 6.18659 15.9999 6.18659V6.18659Z" fill="white"/>
<path d="M14.7905 16.8351L14.6013 17.6672L17.1891 18.2556L17.3783 17.4236L14.7905 16.8351Z" fill="white"/>
<path d="M19.3805 14.2861L18.3936 16.7864L19.1873 17.0997L20.1742 14.5994L19.3805 14.2861Z" fill="white"/>
<path d="M12.8457 17.8368L11.9749 19.8774L12.7597 20.2124L13.6305 18.1717L12.8457 17.8368Z" fill="white"/>
<path d="M11.9467 22.5152C11.6513 22.5152 11.3626 22.4277 11.1171 22.2636C10.8715 22.0995 10.6801 21.8662 10.567 21.5934C10.454 21.3205 10.4244 21.0202 10.4821 20.7306C10.5397 20.4409 10.6819 20.1748 10.8908 19.966C11.0996 19.7571 11.3657 19.6149 11.6554 19.5573C11.945 19.4996 12.2453 19.5292 12.5182 19.6422C12.791 19.7553 13.0243 19.9467 13.1884 20.1922C13.3525 20.4378 13.44 20.7265 13.44 21.0219C13.44 21.418 13.2827 21.7978 13.0026 22.0778C12.7226 22.3579 12.3428 22.5152 11.9467 22.5152V22.5152ZM11.9467 20.3819C11.8201 20.3819 11.6964 20.4194 11.5911 20.4898C11.4859 20.5601 11.4039 20.66 11.3554 20.777C11.307 20.8939 11.2943 21.0226 11.319 21.1468C11.3437 21.2709 11.4046 21.3849 11.4942 21.4744C11.5837 21.564 11.6977 21.6249 11.8218 21.6496C11.946 21.6743 12.0747 21.6616 12.1916 21.6132C12.3086 21.5647 12.4085 21.4827 12.4788 21.3775C12.5492 21.2722 12.5867 21.1485 12.5867 21.0219C12.5867 20.8522 12.5193 20.6894 12.3993 20.5694C12.2792 20.4493 12.1164 20.3819 11.9467 20.3819V20.3819Z" fill="white"/>
<path d="M13.6532 18.513C13.3579 18.513 13.0692 18.4255 12.8236 18.2614C12.578 18.0973 12.3866 17.864 12.2736 17.5912C12.1606 17.3183 12.131 17.018 12.1886 16.7284C12.2462 16.4387 12.3885 16.1726 12.5973 15.9638C12.8061 15.7549 13.0722 15.6127 13.3619 15.5551C13.6516 15.4974 13.9518 15.527 14.2247 15.64C14.4976 15.7531 14.7308 15.9445 14.8949 16.19C15.059 16.4356 15.1466 16.7243 15.1466 17.0197C15.1466 17.4158 14.9892 17.7956 14.7092 18.0756C14.4291 18.3557 14.0493 18.513 13.6532 18.513ZM13.6532 16.3797C13.5267 16.3797 13.4029 16.4172 13.2977 16.4876C13.1924 16.5579 13.1104 16.6578 13.062 16.7748C13.0135 16.8917 13.0008 17.0204 13.0255 17.1446C13.0502 17.2687 13.1112 17.3827 13.2007 17.4722C13.2902 17.5618 13.4042 17.6227 13.5284 17.6474C13.6525 17.6721 13.7812 17.6594 13.8982 17.611C14.0151 17.5625 14.1151 17.4805 14.1854 17.3753C14.2557 17.27 14.2932 17.1463 14.2932 17.0197C14.2932 16.85 14.2258 16.6872 14.1058 16.5672C13.9858 16.4471 13.823 16.3797 13.6532 16.3797V16.3797Z" fill="white"/>
<path d="M18.3466 19.4132C18.0513 19.4132 17.7625 19.3256 17.517 19.1615C17.2714 18.9974 17.08 18.7642 16.9669 18.4913C16.8539 18.2185 16.8243 17.9182 16.882 17.6285C16.9396 17.3388 17.0818 17.0727 17.2907 16.8639C17.4995 16.6551 17.7656 16.5128 18.0553 16.4552C18.3449 16.3976 18.6452 16.4272 18.9181 16.5402C19.191 16.6532 19.4242 16.8446 19.5883 17.0902C19.7524 17.3358 19.8399 17.6245 19.8399 17.9198C19.8399 18.3159 19.6826 18.6957 19.4026 18.9758C19.1225 19.2558 18.7427 19.4132 18.3466 19.4132V19.4132ZM18.3466 17.2798C18.22 17.2798 18.0963 17.3174 17.991 17.3877C17.8858 17.458 17.8038 17.558 17.7553 17.6749C17.7069 17.7919 17.6942 17.9206 17.7189 18.0447C17.7436 18.1689 17.8046 18.2829 17.8941 18.3724C17.9836 18.4619 18.0976 18.5229 18.2217 18.5475C18.3459 18.5722 18.4746 18.5596 18.5915 18.5111C18.7085 18.4627 18.8084 18.3807 18.8787 18.2754C18.9491 18.1702 18.9866 18.0464 18.9866 17.9198C18.9866 17.7501 18.9192 17.5873 18.7992 17.4673C18.6791 17.3473 18.5163 17.2798 18.3466 17.2798Z" fill="white"/>
<path d="M20.0531 14.9332C19.7578 14.9332 19.4691 14.8456 19.2235 14.6815C18.9779 14.5174 18.7865 14.2842 18.6735 14.0113C18.5605 13.7385 18.5309 13.4382 18.5885 13.1485C18.6461 12.8589 18.7884 12.5928 18.9972 12.3839C19.206 12.1751 19.4721 12.0328 19.7618 11.9752C20.0515 11.9176 20.3518 11.9472 20.6246 12.0602C20.8975 12.1732 21.1307 12.3646 21.2948 12.6102C21.4589 12.8558 21.5465 13.1445 21.5465 13.4399V13.4612C21.5398 13.8532 21.3796 14.2269 21.1004 14.5022C20.8212 14.7774 20.4452 14.9321 20.0531 14.9332ZM20.0531 12.7999C19.9275 12.7999 19.8046 12.837 19.6999 12.9064C19.5952 12.9758 19.5132 13.0746 19.4642 13.1903C19.4152 13.306 19.4013 13.4336 19.4243 13.5571C19.4473 13.6806 19.5062 13.7946 19.5936 13.8849C19.681 13.9752 19.793 14.0378 19.9157 14.0649C20.0384 14.0919 20.1664 14.0822 20.2836 14.0371C20.4009 13.9919 20.5023 13.9132 20.5751 13.8108C20.6479 13.7084 20.689 13.5868 20.6931 13.4612C20.696 13.3754 20.6816 13.2899 20.6507 13.2097C20.6198 13.1296 20.5731 13.0565 20.5134 12.9948C20.4537 12.9331 20.3822 12.884 20.3031 12.8505C20.224 12.8171 20.139 12.7998 20.0531 12.7999Z" fill="white"/>
</g>
<defs>
<clipPath id="clip0_850_24603">
<rect width="32" height="32" fill="white"/>
</clipPath>
</defs>
</svg>
