<svg width="32" height="32" viewBox="0 0 32 32" fill="none" xmlns="http://www.w3.org/2000/svg">
<g clip-path="url(#clip0_850_24607)">
<path d="M32 0H0V32H32V0Z" fill="url(#paint0_linear_850_24607)"/>
<path d="M22.1439 7.46674C22.0159 5.80274 18.914 4.90674 15.9871 4.90674C13.0602 4.90674 9.95403 5.80274 9.81323 7.46674V20.2667C9.81323 21.9947 13.0004 22.9291 15.9999 22.9291C18.9994 22.9291 22.1866 21.999 22.1866 20.271V7.471L22.1439 7.46674ZM15.9871 5.76007C19.281 5.76007 21.3034 6.81394 21.3034 7.5734C21.3034 8.33287 19.281 9.38674 15.9871 9.38674C12.6932 9.38674 10.6666 8.3286 10.6666 7.5734C10.6666 6.8182 12.689 5.76007 15.9871 5.76007ZM15.9871 22.0801C12.689 22.0801 10.6666 21.0262 10.6666 20.271V17.8091C11.8058 18.6625 13.9562 19.0891 16.0127 19.0891C18.0692 19.0891 20.1855 18.6625 21.3332 17.8091V20.2539C21.3034 21.0262 19.281 22.0801 15.9871 22.0801ZM16.0127 18.2401C12.7188 18.2401 10.6964 17.1819 10.6964 16.4267H10.6666V13.5425C11.8058 14.3958 13.9562 14.8225 16.0127 14.8225C18.0692 14.8225 20.1855 14.3958 21.3332 13.5425V16.4267C21.3332 17.1819 19.3108 18.2401 16.0127 18.2401ZM16.0127 13.9734C12.7188 13.9734 10.6964 12.9153 10.6964 12.1601H10.6666V8.96007C11.8143 9.7878 13.9434 10.2401 15.9871 10.2401C18.0308 10.2401 20.194 9.8134 21.3332 8.96007V12.1601C21.3332 12.9153 19.3108 13.9734 16.0127 13.9734Z" fill="white"/>
<path d="M11.0933 23.6802H10.24V26.2402H11.0933V23.6802Z" fill="white"/>
<path d="M21.7598 23.6802H20.9065V26.2402H21.7598V23.6802Z" fill="white"/>
<path d="M14.5067 24.5334H13.6533V27.0934H14.5067V24.5334Z" fill="white"/>
<path d="M18.3465 24.5334H17.4932V27.0934H18.3465V24.5334Z" fill="white"/>
</g>
<defs>
<linearGradient id="paint0_linear_850_24607" x1="-6.62613" y1="38.6261" x2="38.6261" y2="-6.62613" gradientUnits="userSpaceOnUse">
<stop stop-color="#2E27AD"/>
<stop offset="1" stop-color="#527FFF"/>
</linearGradient>
<clipPath id="clip0_850_24607">
<rect width="32" height="32" fill="white"/>
</clipPath>
</defs>
</svg>
