<svg width="32" height="32" viewBox="0 0 32 32" fill="none" xmlns="http://www.w3.org/2000/svg">
<g clip-path="url(#clip0_855_67130)">
<path d="M18.7733 30.0977C18.7757 30.2315 18.7512 30.3643 18.7011 30.4883C18.651 30.6124 18.5765 30.725 18.4819 30.8196C18.3873 30.9142 18.2746 30.9888 18.1506 31.0388C18.0266 31.0889 17.8937 31.1135 17.76 31.1111H2.02666C1.89441 31.1111 1.76348 31.0847 1.64153 31.0336C1.51957 30.9825 1.40902 30.9075 1.31633 30.8132C1.22365 30.7189 1.15069 30.607 1.10172 30.4842C1.05275 30.3613 1.02874 30.2299 1.0311 30.0977V1.90217C1.02874 1.76994 1.05275 1.63857 1.10172 1.51572C1.15069 1.39288 1.22365 1.28102 1.31633 1.18668C1.40902 1.09235 1.51957 1.01742 1.64153 0.96628C1.76348 0.91514 1.89441 0.888812 2.02666 0.888834H17.7778C17.9115 0.886423 18.0444 0.910987 18.1684 0.961059C18.2924 1.01113 18.4051 1.08568 18.4997 1.18026C18.5943 1.27484 18.6688 1.38752 18.7189 1.51155C18.7689 1.63558 18.7935 1.76843 18.7911 1.90217L18.7733 30.0977Z" fill="url(#paint0_linear_855_67130)"/>
<path d="M3.55554 11.4844C3.55526 11.2246 3.60771 10.9675 3.70971 10.7286C3.81171 10.4896 3.96114 10.2739 4.14895 10.0944C4.33676 9.91487 4.55905 9.77535 4.80235 9.68426C5.04566 9.59317 5.30492 9.55241 5.56443 9.56444H14.4533C14.9532 9.57833 15.428 9.78673 15.7766 10.1453C16.1252 10.5039 16.3202 10.9843 16.32 11.4844C16.3223 11.7381 16.2744 11.9896 16.179 12.2246C16.0835 12.4597 15.9425 12.6734 15.764 12.8536C15.5854 13.0338 15.373 13.1768 15.1389 13.2744C14.9048 13.372 14.6536 13.4222 14.4 13.4222H5.5111C5.25513 13.4246 5.00124 13.3762 4.76408 13.2798C4.52692 13.1835 4.3112 13.0411 4.12938 12.861C3.94755 12.6808 3.80322 12.4664 3.70473 12.2301C3.60624 11.9939 3.55553 11.7404 3.55554 11.4844Z" fill="#003067"/>
<path d="M3.55554 5.76001C3.55537 5.49944 3.60774 5.24151 3.70954 5.00165C3.81134 4.76179 3.96047 4.54492 4.14801 4.36402C4.33555 4.18312 4.55765 4.0419 4.80102 3.94881C5.04439 3.85572 5.30404 3.81267 5.56443 3.82223H14.4533C14.9563 3.83618 15.4338 4.04705 15.7829 4.40945C16.132 4.77186 16.3248 5.25683 16.32 5.76001C16.32 6.26922 16.1177 6.75758 15.7576 7.11765C15.3976 7.47772 14.9092 7.68001 14.4 7.68001H5.5111C5.25598 7.68473 5.00249 7.63856 4.76542 7.54419C4.52836 7.44982 4.31248 7.30914 4.13041 7.13038C3.94834 6.95162 3.80372 6.73836 3.70502 6.50306C3.60631 6.26777 3.5555 6.01516 3.55554 5.76001Z" fill="#003067"/>
<path d="M5.63555 7.05784C6.35229 7.05784 6.93332 6.4768 6.93332 5.76006C6.93332 5.04332 6.35229 4.46228 5.63555 4.46228C4.9188 4.46228 4.33777 5.04332 4.33777 5.76006C4.33777 6.4768 4.9188 7.05784 5.63555 7.05784Z" fill="#50E6FF"/>
<path d="M5.63555 12.7822C6.35229 12.7822 6.93332 12.2012 6.93332 11.4844C6.93332 10.7677 6.35229 10.1866 5.63555 10.1866C4.9188 10.1866 4.33777 10.7677 4.33777 11.4844C4.33777 12.2012 4.9188 12.7822 5.63555 12.7822Z" fill="#50E6FF"/>
<path d="M30.9689 25.5644C30.9322 24.2589 30.436 23.0081 29.5677 22.0325C28.6994 21.0569 27.5147 20.419 26.2222 20.2311C26.1618 18.3967 25.382 16.6598 24.0514 15.3957C22.7208 14.1316 20.9461 13.4419 19.1111 13.4755C17.6242 13.4529 16.1677 13.8969 14.9463 14.7452C13.7249 15.5934 12.8002 16.8033 12.3022 18.2044C10.7426 18.4081 9.30757 19.1639 8.25737 20.3348C7.20716 21.5057 6.61127 23.0141 6.57776 24.5867C6.62433 26.3612 7.37302 28.0449 8.65954 29.2681C9.94606 30.4913 11.6653 31.1541 13.44 31.1111H14.0444H25.1733H25.4755C26.933 31.0834 28.3222 30.4885 29.348 29.4527C30.3738 28.417 30.9552 27.0221 30.9689 25.5644Z" fill="url(#paint1_linear_855_67130)"/>
</g>
<defs>
<linearGradient id="paint0_linear_855_67130" x1="9.90221" y1="31.1111" x2="9.90221" y2="0.888834" gradientUnits="userSpaceOnUse">
<stop offset="0.05" stop-color="#949494"/>
<stop offset="0.36" stop-color="#979797"/>
<stop offset="0.54" stop-color="#9F9F9F"/>
<stop offset="0.69" stop-color="#ADADAD"/>
<stop offset="0.73" stop-color="#B3B3B3"/>
</linearGradient>
<linearGradient id="paint1_linear_855_67130" x1="18.7733" y1="10.7022" x2="18.7733" y2="35.04" gradientUnits="userSpaceOnUse">
<stop offset="0.18" stop-color="#5EA0EF"/>
<stop offset="1" stop-color="#0078D4"/>
</linearGradient>
<clipPath id="clip0_855_67130">
<rect width="32" height="32" fill="white"/>
</clipPath>
</defs>
</svg>
