<svg width="32" height="32" viewBox="0 0 32 32" fill="none" xmlns="http://www.w3.org/2000/svg">
<g clip-path="url(#clip0_855_67129)">
<path d="M25.2622 27.9466C22.0938 30.4031 18.0793 31.5003 14.1018 30.9969C10.1244 30.4935 6.50985 28.4306 4.05335 25.2622C1.59686 22.0937 0.49964 18.0792 1.00307 14.1018C1.5065 10.1243 3.56934 6.50977 6.7378 4.05327L6.8978 3.94661C10.0844 1.56796 14.0802 0.541253 18.0188 1.08911C21.9574 1.63696 25.5213 3.71521 27.9378 6.87324C30.3542 10.0313 31.4285 14.0145 30.9277 17.9594C30.4268 21.9042 28.3912 25.4926 25.2622 27.9466Z" fill="url(#paint0_radial_855_67129)"/>
<path opacity="0.6" d="M11.8933 12.8533C16.1676 8.78807 21.8346 6.51111 27.7333 6.48883C26.9585 5.5303 26.0689 4.67054 25.0845 3.92883C22.2148 4.10586 19.3958 4.76704 16.7467 5.88439C14.0192 7.05594 11.5532 8.76038 9.49335 10.8977C10.4834 11.2735 11.3253 11.9595 11.8933 12.8533Z" fill="white"/>
<path opacity="0.6" d="M4.40891 18.9333C3.79815 20.4457 3.30484 22.0029 2.93335 23.5911C3.26157 24.1617 3.62991 24.7083 4.03557 25.2267C4.35557 25.6356 4.65779 26.0089 5.01335 26.3822C5.44289 24.2663 6.08619 22.1994 6.93335 20.2134C5.9844 20.0439 5.10639 19.5987 4.40891 18.9333Z" fill="white"/>
<path opacity="0.55" d="M6.15109 10.8622C5.52374 9.17855 5.11159 7.42242 4.92443 5.6355C4.17838 6.41905 3.52244 7.2837 2.96887 8.21328C3.16955 9.653 3.5089 11.07 3.98221 12.4444C4.53926 11.7207 5.29189 11.1717 6.15109 10.8622Z" fill="#F2F2F2"/>
<path d="M7.78668 20.2844C10.4671 20.2844 12.64 18.1115 12.64 15.4311C12.64 12.7507 10.4671 10.5778 7.78668 10.5778C5.10626 10.5778 2.93335 12.7507 2.93335 15.4311C2.93335 18.1115 5.10626 20.2844 7.78668 20.2844Z" fill="url(#paint1_linear_855_67129)"/>
<path opacity="0.55" d="M14.8622 24.3022C14.8629 23.8808 14.9482 23.4638 15.1131 23.0759C15.278 22.6881 15.5191 22.3373 15.8222 22.0445C14.1832 21.1461 12.6708 20.0342 11.3244 18.7378C10.6209 19.4989 9.693 20.0158 8.67554 20.2133C9.47755 21.0343 10.3392 21.7949 11.2533 22.4889C12.3916 23.3484 13.6124 24.0928 14.8978 24.7111C14.8771 24.5757 14.8652 24.4392 14.8622 24.3022Z" fill="#F2F2F2"/>
<path opacity="0.55" d="M26.0622 24.6756C24.4102 24.6766 22.7636 24.4857 21.1556 24.1067C21.1644 24.1716 21.1644 24.2374 21.1556 24.3022C21.1568 24.7113 21.0773 25.1165 20.9217 25.4947C20.7661 25.873 20.5375 26.2169 20.2489 26.5067C22.2497 26.9031 24.2924 27.0465 26.3289 26.9334C27.1189 26.2189 27.8283 25.42 28.4445 24.5511C27.6535 24.6389 26.8581 24.6805 26.0622 24.6756Z" fill="#F2F2F2"/>
<path d="M18.0089 27.4667C19.7565 27.4667 21.1733 26.0499 21.1733 24.3023C21.1733 22.5546 19.7565 21.1378 18.0089 21.1378C16.2612 21.1378 14.8444 22.5546 14.8444 24.3023C14.8444 26.0499 16.2612 27.4667 18.0089 27.4667Z" fill="url(#paint2_linear_855_67129)"/>
<path opacity="0.7" d="M21.9022 15.8755C22.0592 15.1801 22.4402 14.5555 22.9867 14.0977C20.0594 11.9697 17.3975 9.49877 15.0578 6.73774C13.6943 5.13651 12.5026 3.39661 11.5022 1.54663C10.8382 1.7457 10.1904 1.99532 9.56445 2.2933C10.635 4.30762 11.9162 6.20267 13.3867 7.94663C15.8859 10.9321 18.7463 13.5954 21.9022 15.8755Z" fill="#F2F2F2"/>
<path d="M25.2089 19.84C27.0646 19.84 28.5689 18.3357 28.5689 16.48C28.5689 14.6243 27.0646 13.12 25.2089 13.12C23.3532 13.12 21.8489 14.6243 21.8489 16.48C21.8489 18.3357 23.3532 19.84 25.2089 19.84Z" fill="url(#paint3_linear_855_67129)"/>
<path opacity="0.55" d="M30.8444 18.7378L30.2222 18.4356L29.6889 18.1511H29.5822L29.12 17.7778H28.9955L28.4444 17.4222C28.2535 18.0768 27.854 18.6512 27.3066 19.0578C27.52 19.2 27.7511 19.3245 27.9822 19.4489L28.1244 19.5378L28.7466 19.8756L30.2755 20.6756C30.491 20.03 30.6632 19.3707 30.7911 18.7022L30.8444 18.7378Z" fill="#F2F2F2"/>
<path d="M7.78668 20.2844C10.4671 20.2844 12.64 18.1115 12.64 15.4311C12.64 12.7507 10.4671 10.5778 7.78668 10.5778C5.10626 10.5778 2.93335 12.7507 2.93335 15.4311C2.93335 18.1115 5.10626 20.2844 7.78668 20.2844Z" fill="url(#paint4_linear_855_67129)"/>
<path d="M18.0089 27.4667C19.7565 27.4667 21.1733 26.0499 21.1733 24.3023C21.1733 22.5546 19.7565 21.1378 18.0089 21.1378C16.2612 21.1378 14.8444 22.5546 14.8444 24.3023C14.8444 26.0499 16.2612 27.4667 18.0089 27.4667Z" fill="url(#paint5_linear_855_67129)"/>
</g>
<defs>
<radialGradient id="paint0_radial_855_67129" cx="0" cy="0" r="1" gradientUnits="userSpaceOnUse" gradientTransform="translate(15.9849 15.9982) scale(15.112 15.112)">
<stop offset="0.18" stop-color="#5EA0EF"/>
<stop offset="1" stop-color="#0078D4"/>
</radialGradient>
<linearGradient id="paint1_linear_855_67129" x1="7.82224" y1="20.4089" x2="7.76891" y2="13.3866" gradientUnits="userSpaceOnUse">
<stop stop-color="#CCCCCC"/>
<stop offset="1" stop-color="#FCFCFC"/>
</linearGradient>
<linearGradient id="paint2_linear_855_67129" x1="18.0089" y1="27.4667" x2="18.0089" y2="21.1556" gradientUnits="userSpaceOnUse">
<stop stop-color="#CCCCCC"/>
<stop offset="1" stop-color="#FCFCFC"/>
</linearGradient>
<linearGradient id="paint3_linear_855_67129" x1="25.2089" y1="19.8222" x2="25.2089" y2="13.12" gradientUnits="userSpaceOnUse">
<stop stop-color="#CCCCCC"/>
<stop offset="1" stop-color="#FCFCFC"/>
</linearGradient>
<linearGradient id="paint4_linear_855_67129" x1="7.82224" y1="20.4089" x2="7.76891" y2="13.3866" gradientUnits="userSpaceOnUse">
<stop stop-color="#CCCCCC"/>
<stop offset="1" stop-color="#FCFCFC"/>
</linearGradient>
<linearGradient id="paint5_linear_855_67129" x1="18.0089" y1="27.4667" x2="18.0089" y2="21.1556" gradientUnits="userSpaceOnUse">
<stop stop-color="#CCCCCC"/>
<stop offset="1" stop-color="#FCFCFC"/>
</linearGradient>
<clipPath id="clip0_855_67129">
<rect width="32" height="32" fill="white"/>
</clipPath>
</defs>
</svg>
