<svg width="32" height="32" viewBox="0 0 32 32" fill="none" xmlns="http://www.w3.org/2000/svg">
<path d="M30.9333 1.35107H1.06667C0.477563 1.35107 0 1.82864 0 2.41774V22.9511C0 23.5402 0.477563 24.0177 1.06667 24.0177H30.9333C31.5224 24.0177 32 23.5402 32 22.9511V2.41774C32 1.82864 31.5224 1.35107 30.9333 1.35107Z" fill="url(#paint0_linear_855_67135)"/>
<path d="M29.6 3.34216H2.4C2.10545 3.34216 1.86667 3.58094 1.86667 3.8755V21.4755C1.86667 21.77 2.10545 22.0088 2.4 22.0088H29.6C29.8946 22.0088 30.1333 21.77 30.1333 21.4755V3.8755C30.1333 3.58094 29.8946 3.34216 29.6 3.34216Z" fill="white"/>
<path d="M26.56 16.6044C26.5601 16.7381 26.5082 16.8666 26.4153 16.9628C26.3225 17.059 26.1959 17.1154 26.0622 17.12H14.5067C14.3699 17.12 14.2388 17.0657 14.1421 16.969C14.0454 16.8723 13.9911 16.7412 13.9911 16.6044C13.9911 16.4677 14.0454 16.3366 14.1421 16.2399C14.2388 16.1432 14.3699 16.0889 14.5067 16.0889H26.0622C26.1291 16.0888 26.1953 16.1023 26.2569 16.1284C26.3185 16.1545 26.3742 16.1928 26.4207 16.2409C26.4671 16.289 26.5034 16.346 26.5273 16.4085C26.5513 16.4709 26.5624 16.5376 26.56 16.6044Z" fill="#D15900"/>
<path d="M26.56 13.4045C26.5601 13.5382 26.5082 13.6667 26.4153 13.7629C26.3225 13.8591 26.1959 13.9154 26.0622 13.92H14.5067C14.3699 13.92 14.2388 13.8657 14.1421 13.769C14.0454 13.6723 13.9911 13.5412 13.9911 13.4045C13.9911 13.2677 14.0454 13.1366 14.1421 13.0399C14.2388 12.9432 14.3699 12.8889 14.5067 12.8889H26.0622C26.1291 12.8889 26.1953 12.9023 26.2569 12.9284C26.3185 12.9546 26.3742 12.9928 26.4207 13.0409C26.4671 13.0891 26.5034 13.1461 26.5273 13.2085C26.5513 13.271 26.5624 13.3376 26.56 13.4045Z" fill="#D15900"/>
<path d="M26.56 8.76446C26.5624 8.83131 26.5513 8.89795 26.5273 8.96041C26.5034 9.02287 26.4671 9.07987 26.4207 9.12799C26.3742 9.17611 26.3185 9.21438 26.2569 9.2405C26.1953 9.26662 26.1291 9.28006 26.0622 9.28001H6.70223C6.63453 9.28001 6.56749 9.26668 6.50494 9.24077C6.44239 9.21486 6.38555 9.17688 6.33768 9.12901C6.2898 9.08114 6.25183 9.0243 6.22592 8.96175C6.20001 8.8992 6.18668 8.83216 6.18668 8.76446C6.18668 8.69675 6.20001 8.62971 6.22592 8.56716C6.25183 8.50461 6.2898 8.44778 6.33768 8.3999C6.38555 8.35203 6.44239 8.31406 6.50494 8.28815C6.56749 8.26224 6.63453 8.2489 6.70223 8.2489H26.0622C26.1291 8.24886 26.1953 8.2623 26.2569 8.28842C26.3185 8.31454 26.3742 8.3528 26.4207 8.40093C26.4671 8.44905 26.5034 8.50604 26.5273 8.5685C26.5513 8.63096 26.5624 8.69761 26.56 8.76446Z" fill="#D15900"/>
<path d="M9.12 22.5601C8.29753 23.2996 7.23054 23.7088 6.12444 23.7088C5.01835 23.7088 3.95135 23.2996 3.12889 22.5601L2.75555 30.0089C2.74655 30.13 2.77532 30.2509 2.8379 30.3549C2.90049 30.4589 2.99379 30.541 3.10496 30.5897C3.21613 30.6385 3.33969 30.6515 3.4586 30.6271C3.57751 30.6027 3.68592 30.542 3.76889 30.4534L6.08 28.1067L8.40889 30.4712C8.49089 30.5583 8.59756 30.6182 8.7146 30.643C8.83165 30.6678 8.95347 30.6562 9.06373 30.6097C9.17399 30.5633 9.26742 30.4843 9.33149 30.3833C9.39557 30.2822 9.42723 30.164 9.42222 30.0445L9.12 22.5601Z" fill="#B31B1B"/>
<path d="M6.18665 24.1067C9.14199 24.1067 11.5378 21.7029 11.5378 18.7378C11.5378 15.7726 9.14199 13.3689 6.18665 13.3689C3.23131 13.3689 0.835541 15.7726 0.835541 18.7378C0.835541 21.7029 3.23131 24.1067 6.18665 24.1067Z" fill="#E62323"/>
<path d="M6.18668 22.8088C8.43509 22.8088 10.2578 20.9861 10.2578 18.7377C10.2578 16.4893 8.43509 14.6666 6.18668 14.6666C3.93827 14.6666 2.11557 16.4893 2.11557 18.7377C2.11557 20.9861 3.93827 22.8088 6.18668 22.8088Z" fill="#FFB34D"/>
<defs>
<linearGradient id="paint0_linear_855_67135" x1="16" y1="24.0177" x2="16" y2="1.35107" gradientUnits="userSpaceOnUse">
<stop stop-color="#F78D1E"/>
<stop offset="0.44" stop-color="#F8911E"/>
<stop offset="0.85" stop-color="#F99C1D"/>
<stop offset="1" stop-color="#FAA21D"/>
</linearGradient>
</defs>
</svg>
