<svg width="32" height="32" viewBox="0 0 32 32" fill="none" xmlns="http://www.w3.org/2000/svg">
<path d="M0.888885 10.2933H31.1111V27.1467C31.1111 27.4154 31.0043 27.6732 30.8143 27.8632C30.6243 28.0532 30.3665 28.16 30.0978 28.16H1.90222C1.63347 28.16 1.37572 28.0532 1.18568 27.8632C0.995647 27.6732 0.888885 27.4154 0.888885 27.1467V10.2933Z" fill="url(#paint0_linear_855_67132)"/>
<path d="M1.90222 3.85779H30.0978C30.3665 3.85779 30.6243 3.96455 30.8143 4.15459C31.0043 4.34462 31.1111 4.60237 31.1111 4.87112V10.2933H0.888885V4.85334C0.893547 4.58768 1.00236 4.33448 1.1919 4.14827C1.38143 3.96207 1.63652 3.85775 1.90222 3.85779Z" fill="#005BA1"/>
<path d="M26.56 5.77783H5.45777C5.18285 5.77783 4.95999 6.00069 4.95999 6.27561V7.87561C4.95999 8.15052 5.18285 8.37339 5.45777 8.37339H26.56C26.8349 8.37339 27.0578 8.15052 27.0578 7.87561V6.27561C27.0578 6.00069 26.8349 5.77783 26.56 5.77783Z" fill="#F2F2F2"/>
<path d="M11.8755 16L10.2755 21.3333H8.99555L8.01777 17.7778C7.99806 17.6184 7.99806 17.4572 8.01777 17.2978C8.03788 17.4512 8.03788 17.6066 8.01777 17.76L6.75555 21.3333H5.49332L3.9111 16H5.17332L6.1511 19.8933C6.16514 20.0471 6.16514 20.2018 6.1511 20.3556C6.13589 20.2019 6.13589 20.047 6.1511 19.8933L7.4311 16H8.58666L9.56444 19.9111C9.57705 20.0649 9.57705 20.2195 9.56444 20.3733C9.55115 20.2195 9.55115 20.0649 9.56444 19.9111L10.6667 16H11.8755Z" fill="white"/>
<path d="M20.0533 16L18.4533 21.3333H17.1733L16.1956 17.7778C16.1759 17.6184 16.1759 17.4572 16.1956 17.2978C16.1431 17.4627 16.0777 17.6232 16 17.7778L14.9333 21.3333H13.6889L12.0889 16H13.3511L14.3467 19.8933C14.3595 20.0471 14.3595 20.2017 14.3467 20.3556C14.3467 20.2133 14.3467 20.0533 14.4356 19.8933L15.6267 16H16.7645L17.7422 19.9111C17.7548 20.0649 17.7548 20.2195 17.7422 20.3733C17.7289 20.2195 17.7289 20.0649 17.7422 19.9111L18.8978 16H20.0533Z" fill="white"/>
<path d="M28.2489 16L26.6667 21.3333H25.3867L24.3733 17.7778C24.3621 17.618 24.3621 17.4576 24.3733 17.2978C24.3643 17.4551 24.3344 17.6105 24.2844 17.76L23.1111 21.3333H21.8667L20.2667 16H21.5467L22.5244 19.8933C22.5385 20.0471 22.5385 20.2018 22.5244 20.3556C22.5086 20.2019 22.5086 20.047 22.5244 19.8933L23.8044 16H24.8889L25.8489 19.9111C25.8615 20.0649 25.8615 20.2195 25.8489 20.3733C25.8368 20.2195 25.8368 20.0649 25.8489 19.9111L27.0756 16H28.2489Z" fill="white"/>
<defs>
<linearGradient id="paint0_linear_855_67132" x1="16" y1="28.1422" x2="16" y2="10.2933" gradientUnits="userSpaceOnUse">
<stop stop-color="#32BEDD"/>
<stop offset="0.18" stop-color="#32CAEA"/>
<stop offset="0.41" stop-color="#32D2F2"/>
<stop offset="0.78" stop-color="#32D4F5"/>
</linearGradient>
</defs>
</svg>
