<svg width="32" height="32" viewBox="0 0 32 32" fill="none" xmlns="http://www.w3.org/2000/svg">
<path d="M15.2355 15.4489H1.77777V3.8756C1.77775 3.36002 1.98134 2.86529 2.34424 2.49906C2.70714 2.13283 3.19999 1.92473 3.71555 1.92004H15.2355V15.4489ZM3.44888 13.7778H13.5644V3.5556H3.71555C3.64482 3.5556 3.577 3.58369 3.52699 3.6337C3.47698 3.68371 3.44888 3.75154 3.44888 3.82227V13.7778Z" fill="#949494"/>
<path d="M30.2222 15.4489H16.7645V1.92004H28.2845C28.8 1.92473 29.2929 2.13283 29.6558 2.49906C30.0187 2.86529 30.2223 3.36002 30.2222 3.8756V15.4489ZM18.4356 13.7778H28.5511V3.8756C28.5591 3.83641 28.5582 3.79591 28.5485 3.75712C28.5387 3.71833 28.5203 3.68223 28.4947 3.6515C28.4691 3.62076 28.4369 3.59619 28.4005 3.57959C28.3641 3.56299 28.3245 3.55479 28.2845 3.5556H18.4356V13.7778Z" fill="#949494"/>
<path d="M15.2355 30.3644H3.71555C3.20468 30.3644 2.71448 30.1627 2.35158 29.8031C1.98868 29.4436 1.78246 28.9552 1.77777 28.4444V16.8533H15.2355V30.3644ZM3.44888 18.5244V28.4444C3.44888 28.5151 3.47698 28.5829 3.52699 28.6329C3.577 28.683 3.64482 28.711 3.71555 28.711H13.5644V18.5244H3.44888Z" fill="#949494"/>
<path d="M28.2845 30.3644H16.7645V16.8533H30.2222V28.4444C30.2176 28.9552 30.0113 29.4436 29.6484 29.8031C29.2855 30.1627 28.7953 30.3644 28.2845 30.3644ZM18.4356 28.6933H28.2845C28.3552 28.6933 28.423 28.6652 28.473 28.6152C28.523 28.5652 28.5511 28.4973 28.5511 28.4266V18.5244H18.4356V28.6933Z" fill="#949494"/>
<path d="M26.08 18.88C26.054 17.7949 25.6455 16.754 24.9267 15.9408C24.2078 15.1276 23.2248 14.5945 22.1511 14.4355C22.0955 12.9234 21.447 11.4939 20.3459 10.456C19.2448 9.41809 17.7795 8.85517 16.2667 8.88888C15.0494 8.87588 13.8578 9.23961 12.8553 9.93024C11.8528 10.6209 11.0883 11.6046 10.6667 12.7467C9.37158 12.9247 8.18291 13.5603 7.3156 14.5385C6.44829 15.5167 5.95957 16.7729 5.93781 18.08C5.98887 19.5371 6.61344 20.9151 7.67557 21.914C8.7377 22.9128 10.1514 23.4517 11.6089 23.4133H21.3334H21.5822C22.7698 23.3772 23.8983 22.8869 24.7351 22.0435C25.5719 21.2001 26.0533 20.0678 26.08 18.88Z" fill="url(#paint0_linear_855_67133)"/>
<defs>
<linearGradient id="paint0_linear_855_67133" x1="16" y1="6.61333" x2="16" y2="26.7022" gradientUnits="userSpaceOnUse">
<stop offset="0.18" stop-color="#5EA0EF"/>
<stop offset="1" stop-color="#0078D4"/>
</linearGradient>
</defs>
</svg>
