<svg width="32" height="32" viewBox="0 0 32 32" fill="none" xmlns="http://www.w3.org/2000/svg">
<path d="M2.95111 14.3112V14.5601C2.95111 15.0706 3.365 15.4845 3.87556 15.4845H11.3778C11.8883 15.4845 12.3022 15.0706 12.3022 14.5601V14.3112C12.3022 13.8006 11.8883 13.3867 11.3778 13.3867H3.87556C3.365 13.3867 2.95111 13.8006 2.95111 14.3112Z" fill="#B3B3B3"/>
<path d="M0 18.5599L0 18.8088C0 19.3194 0.413887 19.7333 0.924444 19.7333H8.42667C8.93722 19.7333 9.35111 19.3194 9.35111 18.8088V18.5599C9.35111 18.0494 8.93722 17.6355 8.42667 17.6355H0.924444C0.413887 17.6355 0 18.0494 0 18.5599Z" fill="#A3A3A3"/>
<path d="M2.95111 22.8088V23.0577C2.95111 23.5683 3.365 23.9822 3.87555 23.9822H11.3778C11.8883 23.9822 12.3022 23.5683 12.3022 23.0577V22.8088C12.3022 22.2983 11.8883 21.8844 11.3778 21.8844H3.87555C3.365 21.8844 2.95111 22.2983 2.95111 22.8088Z" fill="#7A7A7A"/>
<path d="M32 19.5556C31.9721 18.1742 31.4546 16.8475 30.5397 15.8122C29.6248 14.7768 28.3719 14.0999 27.0045 13.9022C26.944 11.9704 26.1243 10.1404 24.7231 8.80911C23.322 7.47784 21.4524 6.75274 19.52 6.79112C17.9656 6.78413 16.4472 7.25901 15.1738 8.15042C13.9003 9.04184 12.9344 10.306 12.4089 11.7689C10.7633 11.9864 9.2508 12.7884 8.1476 14.0287C7.04441 15.269 6.42412 16.8647 6.40002 18.5245C6.46498 20.3856 7.2574 22.1469 8.60703 23.4301C9.95666 24.7132 11.7558 25.4157 13.6178 25.3867H14.2578H25.9556H26.2578C27.783 25.3454 29.233 24.7151 30.3036 23.6279C31.3742 22.5408 31.9822 21.0813 32 19.5556Z" fill="url(#paint0_linear_855_67128)"/>
<defs>
<linearGradient id="paint0_linear_855_67128" x1="19.1822" y1="3.85779" x2="19.1822" y2="29.44" gradientUnits="userSpaceOnUse">
<stop offset="0.18" stop-color="#5EA0EF"/>
<stop offset="1" stop-color="#0078D4"/>
</linearGradient>
</defs>
</svg>
