<svg width="32" height="32" viewBox="0 0 32 32" fill="none" xmlns="http://www.w3.org/2000/svg">
<path d="M32 20.1245C31.9686 18.3927 31.3245 16.7282 30.1821 15.4263C29.0398 14.1244 27.473 13.2695 25.76 13.0134C25.6902 10.6006 24.6704 8.31303 22.9225 6.64835C21.1745 4.98368 18.84 4.0766 16.4267 4.12448C14.4835 4.10461 12.5826 4.69174 10.9892 5.80398C9.39569 6.91622 8.18913 8.49809 7.53778 10.3289C5.46655 10.5953 3.56188 11.6027 2.17612 13.165C0.790367 14.7272 0.0173215 16.7385 0 18.8267C0.0834421 21.15 1.07374 23.3481 2.75861 24.9499C4.44348 26.5517 6.68882 27.4296 9.01333 27.3956H9.79556H24.3911C24.5208 27.4141 24.6525 27.4141 24.7822 27.3956C26.6956 27.3632 28.5208 26.5851 29.8689 25.227C31.2171 23.8689 31.9817 22.0381 32 20.1245Z" fill="url(#paint0_linear_855_67131)"/>
<path d="M21.92 11.7155C21.3624 10.7905 20.543 10.0518 19.5654 9.59279C18.5878 9.13377 17.496 8.97512 16.4282 9.13691C15.3603 9.2987 14.3645 9.77366 13.5668 10.5017C12.769 11.2297 12.2052 12.178 11.9467 13.2266C11.6298 14.5978 11.8392 16.038 12.5333 17.2622L8.37332 21.4755C8.24217 21.606 8.1381 21.7611 8.06708 21.932C7.99606 22.1028 7.9595 22.286 7.9595 22.4711C7.9595 22.6561 7.99606 22.8393 8.06708 23.0101C8.1381 23.181 8.24217 23.3361 8.37332 23.4666C8.50364 23.5977 8.65885 23.7014 8.82982 23.7716C9.00078 23.8418 9.18406 23.8771 9.36888 23.8755C9.55398 23.8792 9.73787 23.8448 9.90913 23.7745C10.0804 23.7041 10.2354 23.5993 10.3644 23.4666L14.5067 19.2711C14.9569 19.5328 15.4416 19.7303 15.9467 19.8577C16.9956 20.1096 18.0955 20.0461 19.1084 19.6751C20.1213 19.3041 21.0021 18.6422 21.6402 17.7724C22.2783 16.9027 22.6452 15.8638 22.695 14.7862C22.7448 13.7087 22.4752 12.6404 21.92 11.7155ZM20.96 15.4488C20.7574 16.2826 20.2814 17.0245 19.608 17.5562C18.9345 18.0878 18.1024 18.3786 17.2444 18.3822C16.9378 18.3846 16.6324 18.3427 16.3378 18.2577C15.888 18.1564 15.4642 17.9627 15.0933 17.6888C14.7022 17.4221 14.3645 17.0844 14.0978 16.6933C13.7965 16.2474 13.5918 15.7435 13.4969 15.2138C13.402 14.6841 13.4189 14.1405 13.5467 13.6177C13.7393 12.7806 14.2096 12.0333 14.881 11.4975C15.5524 10.9617 16.3854 10.6688 17.2444 10.6666C17.5556 10.667 17.8658 10.7028 18.1689 10.7733C19.1545 11.0341 19.9976 11.6729 20.5155 12.5511C20.7785 12.9803 20.9533 13.4576 21.0296 13.9552C21.1059 14.4527 21.0822 14.9605 20.96 15.4488Z" fill="#F2F2F2"/>
<path d="M17.2267 18.3823C19.3376 18.3823 21.0489 16.663 21.0489 14.5423C21.0489 12.4215 19.3376 10.7023 17.2267 10.7023C15.1157 10.7023 13.4044 12.4215 13.4044 14.5423C13.4044 16.663 15.1157 18.3823 17.2267 18.3823Z" fill="#83B9F9"/>
<defs>
<linearGradient id="paint0_linear_855_67131" x1="16" y1="0.64004" x2="16" y2="32.5512" gradientUnits="userSpaceOnUse">
<stop offset="0.18" stop-color="#5EA0EF"/>
<stop offset="1" stop-color="#0078D4"/>
</linearGradient>
</defs>
</svg>
