<svg width="32" height="32" viewBox="0 0 32 32" fill="none" xmlns="http://www.w3.org/2000/svg">
<path d="M31.1111 4.44447V23.6978C31.1111 23.8347 31.0839 23.9703 31.031 24.0965C30.978 24.2228 30.9005 24.3373 30.8028 24.4333C30.7052 24.5293 30.5894 24.6048 30.4623 24.6556C30.3351 24.7064 30.1991 24.7313 30.0622 24.7289H22.0267C21.9607 24.7289 21.8973 24.7551 21.8507 24.8018C21.804 24.8485 21.7778 24.9118 21.7778 24.9778V28.0889C21.777 28.1814 21.7504 28.2718 21.7011 28.35C21.6518 28.4282 21.5817 28.4911 21.4986 28.5317C21.4156 28.5723 21.3229 28.589 21.2309 28.5799C21.1389 28.5707 21.0512 28.5362 20.9778 28.48L16.1422 24.7823H15.9822H1.93777C1.80088 24.7846 1.66488 24.7597 1.53772 24.7089C1.41056 24.6582 1.29479 24.5826 1.19715 24.4866C1.09951 24.3906 1.02197 24.2762 0.969039 24.1499C0.916113 24.0236 0.888865 23.8881 0.888886 23.7511V4.44447C0.888865 4.30756 0.916113 4.17201 0.969039 4.04573C1.02197 3.91946 1.09951 3.80499 1.19715 3.70901C1.29479 3.61303 1.41056 3.53745 1.53772 3.48669C1.66488 3.43593 1.80088 3.411 1.93777 3.41336H30.0622C30.1991 3.411 30.3351 3.43593 30.4623 3.48669C30.5894 3.53745 30.7052 3.61303 30.8028 3.70901C30.9005 3.80499 30.978 3.91946 31.031 4.04573C31.0839 4.17201 31.1111 4.30756 31.1111 4.44447Z" fill="url(#paint0_linear_855_67134)"/>
<path d="M3.64445 16L8.97779 20.48C9.05288 20.5395 9.14306 20.5769 9.23822 20.588C9.33338 20.5991 9.42975 20.5834 9.51651 20.5428C9.60328 20.5022 9.67702 20.4382 9.72945 20.358C9.78188 20.2778 9.81093 20.1846 9.81334 20.0889V18.1333H31.0756V15.1111H3.96445C3.86442 15.1178 3.76851 15.1535 3.68846 15.2138C3.6084 15.2742 3.54768 15.3565 3.51372 15.4509C3.47976 15.5452 3.47404 15.6474 3.49726 15.7449C3.52048 15.8424 3.57163 15.9311 3.64445 16Z" fill="#FFE452"/>
<path d="M28.8711 11.4845L23.3422 7.00453C23.2671 6.94503 23.1769 6.90764 23.0818 6.89654C22.9866 6.88544 22.8903 6.90107 22.8035 6.94169C22.7167 6.9823 22.643 7.04629 22.5906 7.12648C22.5381 7.20666 22.5091 7.29986 22.5067 7.39564V9.35119H0.888885V12.4445H28.5511C28.6697 12.4599 28.7899 12.4335 28.8912 12.37C28.9924 12.3064 29.0685 12.2097 29.1063 12.0963C29.1441 11.9828 29.1413 11.8598 29.0984 11.7482C29.0555 11.6366 28.9752 11.5434 28.8711 11.4845Z" fill="white"/>
<defs>
<linearGradient id="paint0_linear_855_67134" x1="16" y1="1.44003" x2="16" y2="37.8311" gradientUnits="userSpaceOnUse">
<stop stop-color="#FFD70F"/>
<stop offset="0.34" stop-color="#EEB309"/>
<stop offset="0.77" stop-color="#DC8C03"/>
<stop offset="1" stop-color="#D57D01"/>
</linearGradient>
</defs>
</svg>
