<svg width="32" height="32" viewBox="0 0 32 32" fill="none" xmlns="http://www.w3.org/2000/svg">
<path d="M12.6933 4.47998H1.38666C1.11175 4.47998 0.888885 4.70284 0.888885 4.97776V13.4222C0.888885 13.6971 1.11175 13.92 1.38666 13.92H12.6933C12.9682 13.92 13.1911 13.6971 13.1911 13.4222V4.97776C13.1911 4.70284 12.9682 4.47998 12.6933 4.47998Z" fill="url(#paint0_linear_855_11187)"/>
<path d="M30.6133 9.91998H19.3067C19.0318 9.91998 18.8089 10.1428 18.8089 10.4178V18.8622C18.8089 19.1371 19.0318 19.36 19.3067 19.36H30.6133C30.8883 19.36 31.1111 19.1371 31.1111 18.8622V10.4178C31.1111 10.1428 30.8883 9.91998 30.6133 9.91998Z" fill="url(#paint1_linear_855_11187)"/>
<path d="M14.7911 18.0978H3.98223C3.56986 18.0978 3.23557 18.4321 3.23557 18.8444V26.7911C3.23557 27.2035 3.56986 27.5378 3.98223 27.5378H14.7911C15.2035 27.5378 15.5378 27.2035 15.5378 26.7911V18.8444C15.5378 18.4321 15.2035 18.0978 14.7911 18.0978Z" fill="url(#paint2_linear_855_11187)"/>
<path d="M23.3778 15.8578L23.7867 14.72L8.56888 9.12L8.15999 10.24L23.3778 15.8578ZM24.32 15.6978L23.7511 14.6311L9.40443 22.1867L9.95554 23.2533L24.32 15.6978ZM8.88888 23.7689L10.08 23.5556L7.66221 9.84888L6.4711 10.0622L8.88888 23.7689Z" fill="#773ADC"/>
<path d="M25.9786 16.2573C26.8738 15.689 27.1388 14.5026 26.5705 13.6073C26.0021 12.7121 24.8157 12.4471 23.9205 13.0155C23.0252 13.5838 22.7603 14.7703 23.3286 15.6655C23.8969 16.5607 25.0834 16.8257 25.9786 16.2573Z" fill="white"/>
<path d="M8.07647 10.816C8.97169 10.2477 9.23667 9.06121 8.66833 8.166C8.09999 7.27078 6.91354 7.0058 6.01833 7.57414C5.12311 8.14248 4.85813 9.32893 5.42647 10.2241C5.99481 11.1194 7.18126 11.3843 8.07647 10.816Z" fill="white"/>
<path d="M10.438 24.4231C11.3333 23.8548 11.5982 22.6683 11.0299 21.7731C10.4616 20.8779 9.27512 20.6129 8.3799 21.1813C7.48469 21.7496 7.2197 22.936 7.78804 23.8313C8.35638 24.7265 9.54283 24.9915 10.438 24.4231Z" fill="white"/>
<defs>
<linearGradient id="paint0_linear_855_11187" x1="7.04" y1="4.47998" x2="7.04" y2="13.9022" gradientUnits="userSpaceOnUse">
<stop stop-color="#32D4F5"/>
<stop offset="1" stop-color="#198AB3"/>
</linearGradient>
<linearGradient id="paint1_linear_855_11187" x1="24.96" y1="9.91998" x2="24.96" y2="19.36" gradientUnits="userSpaceOnUse">
<stop stop-color="#32D4F5"/>
<stop offset="1" stop-color="#198AB3"/>
</linearGradient>
<linearGradient id="paint2_linear_855_11187" x1="9.40445" y1="18.0978" x2="9.40445" y2="27.52" gradientUnits="userSpaceOnUse">
<stop stop-color="#32D4F5"/>
<stop offset="1" stop-color="#198AB3"/>
</linearGradient>
</defs>
</svg>
