<svg width="32" height="32" viewBox="0 0 32 32" fill="none" xmlns="http://www.w3.org/2000/svg">
<g clip-path="url(#clip0_855_11186)">
<path d="M2.61334 2.61336L29.3867 29.3867C29.5246 29.5458 29.7087 29.6579 29.9134 29.7076C30.118 29.7572 30.333 29.7418 30.5286 29.6636C30.7241 29.5854 30.8904 29.4483 31.0043 29.2712C31.1183 29.0941 31.1743 28.8859 31.1645 28.6756V1.90225C31.1646 1.76457 31.1368 1.62829 31.0825 1.50174C31.0283 1.37518 30.9489 1.26101 30.8491 1.16618C30.7492 1.07135 30.6311 0.997859 30.502 0.950188C30.3728 0.902518 30.2353 0.88167 30.0978 0.888917H3.32445C3.1256 0.891027 2.93177 0.951597 2.7671 1.06308C2.60243 1.17457 2.47421 1.33204 2.3984 1.51588C2.32258 1.69972 2.30254 1.90181 2.34076 2.09696C2.37898 2.29211 2.47378 2.4717 2.61334 2.61336Z" fill="url(#paint0_linear_855_11186)"/>
<path d="M9.83112 9.83114L22.1689 22.1689L31.0578 13.28V1.90225C31.0581 1.64249 30.9587 1.39251 30.7801 1.20393C30.6014 1.01535 30.3572 0.902587 30.0978 0.888916H18.7733L9.83112 9.83114Z" fill="#50E6FF"/>
<path d="M12.1285 17.7429L1.02853 28.8429C0.841077 29.0304 0.841076 29.3343 1.02853 29.5217L2.48674 30.9799C2.67419 31.1674 2.97811 31.1674 3.16556 30.9799L14.2656 19.8799C14.453 19.6925 14.453 19.3886 14.2656 19.2011L12.8074 17.7429C12.6199 17.5554 12.316 17.5554 12.1285 17.7429Z" fill="url(#paint1_linear_855_11186)"/>
<path d="M7.88641 13.4171L1.03533 20.2681C0.847882 20.4556 0.847883 20.7595 1.03533 20.947L2.49355 22.4052C2.681 22.5926 2.98492 22.5926 3.17237 22.4052L10.0234 15.5541C10.2109 15.3666 10.2109 15.0627 10.0234 14.8753L8.56524 13.4171C8.37778 13.2296 8.07386 13.2296 7.88641 13.4171Z" fill="url(#paint2_linear_855_11186)"/>
<path d="M16.3737 21.9651L9.52258 28.8162C9.33513 29.0037 9.33513 29.3076 9.52258 29.4951L10.9808 30.9533C11.1682 31.1407 11.4722 31.1407 11.6596 30.9533L18.5107 24.1022C18.6981 23.9147 18.6981 23.6108 18.5107 23.4234L17.0525 21.9651C16.865 21.7777 16.5611 21.7777 16.3737 21.9651Z" fill="url(#paint3_linear_855_11186)"/>
<path d="M17.3697 8.29702L16.188 9.47867C15.9242 9.74249 15.9242 10.1702 16.188 10.434L17.3697 11.6157C17.6335 11.8795 18.0613 11.8795 18.3251 11.6157L19.5067 10.434C19.7706 10.1702 19.7706 9.74249 19.5067 9.47867L18.3251 8.29702C18.0613 8.03319 17.6335 8.03319 17.3697 8.29702Z" fill="white"/>
<path d="M21.6364 4.02303L20.4547 5.20468C20.1909 5.4685 20.1909 5.89624 20.4547 6.16006L21.6364 7.34172C21.9002 7.60554 22.3279 7.60554 22.5917 7.34172L23.7734 6.16006C24.0372 5.89624 24.0372 5.4685 23.7734 5.20468L22.5917 4.02303C22.3279 3.75921 21.9002 3.75921 21.6364 4.02303Z" fill="white"/>
<path d="M21.6437 12.5637L20.462 13.7453C20.1982 14.0092 20.1982 14.4369 20.462 14.7007L21.6437 15.8824C21.9075 16.1462 22.3352 16.1462 22.5991 15.8824L23.7807 14.7007C24.0445 14.4369 24.0445 14.0092 23.7807 13.7453L22.5991 12.5637C22.3352 12.2999 21.9075 12.2999 21.6437 12.5637Z" fill="white"/>
<path d="M24.7289 9.47557L25.9022 8.30224C25.965 8.23881 26.0398 8.18846 26.1222 8.1541C26.2046 8.11974 26.2929 8.10205 26.3822 8.10205C26.4715 8.10205 26.5599 8.11974 26.6422 8.1541C26.7246 8.18846 26.7994 8.23881 26.8622 8.30224L28.0355 9.47557C28.099 9.53838 28.1493 9.61315 28.1837 9.69553C28.218 9.77792 28.2357 9.8663 28.2357 9.95557C28.2357 10.0448 28.218 10.1332 28.1837 10.2156C28.1493 10.298 28.099 10.3728 28.0355 10.4356L26.8622 11.6089C26.7994 11.6723 26.7246 11.7227 26.6422 11.757C26.5599 11.7914 26.4715 11.8091 26.3822 11.8091C26.2929 11.8091 26.2046 11.7914 26.1222 11.757C26.0398 11.7227 25.965 11.6723 25.9022 11.6089L24.7289 10.4356C24.6654 10.3728 24.6151 10.298 24.5807 10.2156C24.5464 10.1332 24.5287 10.0448 24.5287 9.95557C24.5287 9.8663 24.5464 9.77792 24.5807 9.69553C24.6151 9.61315 24.6654 9.53838 24.7289 9.47557Z" fill="white"/>
</g>
<defs>
<linearGradient id="paint0_linear_855_11186" x1="2.31112" y1="15.2889" x2="31.1111" y2="15.2889" gradientUnits="userSpaceOnUse">
<stop offset="0.1" stop-color="#54AEF0"/>
<stop offset="1" stop-color="#1988D9"/>
</linearGradient>
<linearGradient id="paint1_linear_855_11186" x1="0.886613" y1="24.3611" x2="14.4155" y2="24.3611" gradientUnits="userSpaceOnUse">
<stop stop-color="#B3B2B3"/>
<stop offset="1" stop-color="#979797"/>
</linearGradient>
<linearGradient id="paint2_linear_855_11186" x1="0.880847" y1="17.9115" x2="10.1608" y2="17.9115" gradientUnits="userSpaceOnUse">
<stop stop-color="#B3B2B3"/>
<stop offset="1" stop-color="#979797"/>
</linearGradient>
<linearGradient id="paint3_linear_855_11186" x1="9.39316" y1="26.4625" x2="18.6554" y2="26.4625" gradientUnits="userSpaceOnUse">
<stop stop-color="#B3B2B3"/>
<stop offset="1" stop-color="#979797"/>
</linearGradient>
<clipPath id="clip0_855_11186">
<rect width="32" height="32" fill="white"/>
</clipPath>
</defs>
</svg>
