<svg width="32" height="32" viewBox="0 0 32 32" fill="none" xmlns="http://www.w3.org/2000/svg">
<path d="M2.05334 8.76447V9.67469L16 17.5431L28.4551 10.5085V13.3529L16 20.4285L2.75557 12.9031L2.05334 13.2942V18.7378L16 26.5867L28.4551 19.5787V22.3982L16 29.4774L2.75557 21.9502L2.05334 22.3414V23.264L16 31.1111L29.9467 23.264V17.8151L29.2356 17.4276L16 24.9529L3.54134 17.8738V15.0685L16 22.0694L29.9467 14.2222V8.8498L29.2356 8.46047L16 15.9876L4.18134 9.27114L16 2.59558L25.7351 8.09603L26.5867 7.6178V6.86758L16 0.888916L2.05334 8.76447Z" fill="#FF3621"/>
</svg>
