<svg width="32" height="32" viewBox="0 0 32 32" fill="none" xmlns="http://www.w3.org/2000/svg">
<g clip-path="url(#clip0_855_11184)">
<path d="M23.5556 18.6311V11.68C23.5563 11.6303 23.5421 11.5814 23.5148 11.5398C23.4875 11.4982 23.4484 11.4658 23.4025 11.4466C23.3565 11.4275 23.3059 11.4226 23.2572 11.4325C23.2084 11.4424 23.1637 11.4667 23.1289 11.5022L16.0178 18.6133L8.62225 26.0089V31.1111H30.0978C30.2315 31.1135 30.3644 31.089 30.4884 31.0389C30.6125 30.9888 30.7251 30.9143 30.8197 30.8197C30.9143 30.7251 30.9888 30.6124 31.0389 30.4884C31.089 30.3644 31.1136 30.2315 31.1111 30.0978V11.68C31.1119 11.6303 31.0977 11.5814 31.0704 11.5398C31.0431 11.4982 31.0039 11.4658 30.958 11.4466C30.9121 11.4275 30.8615 11.4226 30.8127 11.4325C30.764 11.4424 30.7193 11.4667 30.6845 11.5022L23.5556 18.6311Z" fill="#005BA1"/>
<path d="M8.44445 6.36449C4.26667 6.36449 0.888895 5.13783 0.888895 3.5556V13.6356V30.0978C0.886484 30.2316 0.911048 30.3644 0.96112 30.4884C1.01119 30.6125 1.08574 30.7251 1.18032 30.8197C1.27491 30.9143 1.38758 30.9889 1.51161 31.0389C1.63564 31.089 1.76849 31.1136 1.90223 31.1112H16V3.5556C16 5.13783 12.6222 6.36449 8.44445 6.36449Z" fill="url(#paint0_linear_855_11184)"/>
<path d="M26.4889 23.0578H23.4489C23.174 23.0578 22.9511 23.2807 22.9511 23.5556V26.5956C22.9511 26.8705 23.174 27.0934 23.4489 27.0934H26.4889C26.7638 27.0934 26.9867 26.8705 26.9867 26.5956V23.5556C26.9867 23.2807 26.7638 23.0578 26.4889 23.0578Z" fill="white"/>
<path d="M19.4844 23.0578H16.4444C16.1695 23.0578 15.9467 23.2807 15.9467 23.5556V26.5956C15.9467 26.8705 16.1695 27.0934 16.4444 27.0934H19.4844C19.7593 27.0934 19.9822 26.8705 19.9822 26.5956V23.5556C19.9822 23.2807 19.7593 23.0578 19.4844 23.0578Z" fill="white"/>
<path d="M12.48 23.0578H9.43998C9.16506 23.0578 8.9422 23.2807 8.9422 23.5556V26.5956C8.9422 26.8705 9.16506 27.0934 9.43998 27.0934H12.48C12.7549 27.0934 12.9778 26.8705 12.9778 26.5956V23.5556C12.9778 23.2807 12.7549 23.0578 12.48 23.0578Z" fill="white"/>
<path d="M15.9999 3.55558C15.9999 5.06669 12.6221 6.29336 8.44435 6.29336C4.26657 6.29336 0.888794 5.1378 0.888794 3.55558C0.888794 1.97336 4.26657 0.888916 8.44435 0.888916C12.6221 0.888916 15.9999 2.11558 15.9999 3.55558Z" fill="#EAEAEA"/>
<path d="M14.2222 3.39559C14.2222 4.37336 11.6267 5.17336 8.42666 5.17336C5.22666 5.17336 2.6311 4.40892 2.6311 3.39559C2.6311 2.38225 5.33333 1.67114 8.44444 1.67114C11.5555 1.67114 14.2222 2.43559 14.2222 3.39559Z" fill="#50E6FF"/>
<path d="M8.44445 3.8045C6.89002 3.77378 5.34094 3.99594 3.85779 4.46227C5.33666 4.94866 6.88815 5.17717 8.44445 5.13783C10.0008 5.17717 11.5522 4.94866 13.0311 4.46227C11.548 3.99594 9.99889 3.77378 8.44445 3.8045Z" fill="#198AB3"/>
</g>
<defs>
<linearGradient id="paint0_linear_855_11184" x1="0.888895" y1="17.3689" x2="16" y2="17.3689" gradientUnits="userSpaceOnUse">
<stop stop-color="#005BA1"/>
<stop offset="0.07" stop-color="#0060A9"/>
<stop offset="0.36" stop-color="#0071C8"/>
<stop offset="0.52" stop-color="#0078D4"/>
<stop offset="0.64" stop-color="#0074CD"/>
<stop offset="0.81" stop-color="#006ABB"/>
<stop offset="0.99" stop-color="#005BA1"/>
</linearGradient>
<clipPath id="clip0_855_11184">
<rect width="32" height="32" fill="white"/>
</clipPath>
</defs>
</svg>
