<svg width="32" height="32" viewBox="0 0 32 32" fill="none" xmlns="http://www.w3.org/2000/svg">
<g clip-path="url(#clip0_855_11178)">
<path d="M19.6978 30.88L2.43555 23.1111C1.80307 22.8239 1.30981 22.2983 1.06335 21.6489C0.816905 20.9994 0.837264 20.2789 1.11999 19.6444L8.88888 2.43553C9.03061 2.11119 9.23633 1.81878 9.49372 1.57581C9.7511 1.33283 10.0549 1.14429 10.3868 1.02146C10.7188 0.898638 11.0721 0.844055 11.4257 0.860982C11.7792 0.877909 12.1257 0.965997 12.4444 1.11998L29.5644 8.88886C29.8888 9.03059 30.1812 9.23631 30.4242 9.4937C30.6671 9.75109 30.8557 10.0549 30.9785 10.3868C31.1013 10.7188 31.1559 11.0721 31.139 11.4257C31.1221 11.7792 31.034 12.1257 30.88 12.4444L23.1111 29.5644C22.8239 30.1836 22.3073 30.667 21.6705 30.9124C21.0336 31.1579 20.3262 31.1463 19.6978 30.88Z" fill="#50E6FF"/>
<path d="M25.4222 28.1066H6.4889C5.79252 28.102 5.12599 27.8233 4.63357 27.3309C4.14115 26.8384 3.86245 26.1719 3.85779 25.4755V6.52442C3.86245 5.82805 4.14115 5.16152 4.63357 4.66909C5.12599 4.17667 5.79252 3.89797 6.4889 3.89331H25.4222C26.12 3.89331 26.7893 4.17052 27.2827 4.66395C27.7761 5.15737 28.0533 5.82661 28.0533 6.52442V25.4755C28.0533 26.1733 27.7761 26.8426 27.2827 27.336C26.7893 27.8294 26.12 28.1066 25.4222 28.1066Z" fill="url(#paint0_linear_855_11178)"/>
<path d="M15.52 17.6H12.6578C12.6314 17.6098 12.6028 17.6125 12.575 17.6077C12.5473 17.603 12.5212 17.591 12.4996 17.5729C12.4779 17.5549 12.4614 17.5314 12.4518 17.505C12.4421 17.4785 12.4396 17.4499 12.4445 17.4222L16 9.75997C16.0252 9.74869 16.0524 9.74286 16.08 9.74286C16.1076 9.74286 16.1348 9.74869 16.16 9.75997H19.52C19.5624 9.75997 19.6031 9.77683 19.6331 9.80683C19.6631 9.83684 19.68 9.87754 19.68 9.91997L15.5733 15.8755H19.5556C19.598 15.8755 19.6387 15.8924 19.6687 15.9224C19.6987 15.9524 19.7156 15.9931 19.7156 16.0355C19.7233 16.0707 19.7233 16.1071 19.7156 16.1422L13.1022 23.7511C13.1022 23.7511 12.6045 24.1955 12.8178 23.5733L15.52 17.6Z" fill="#F2F2F2"/>
</g>
<defs>
<linearGradient id="paint0_linear_855_11178" x1="15.9645" y1="28.1066" x2="15.9645" y2="3.89331" gradientUnits="userSpaceOnUse">
<stop stop-color="#1988D9"/>
<stop offset="0.9" stop-color="#54AEF0"/>
</linearGradient>
<clipPath id="clip0_855_11178">
<rect width="32" height="32" fill="white"/>
</clipPath>
</defs>
</svg>
