<svg width="32" height="32" viewBox="0 0 32 32" fill="none" xmlns="http://www.w3.org/2000/svg">
<path d="M30.4 6.40001H17.2267C17.0858 6.40542 16.9474 6.3614 16.8356 6.27557L13.0667 3.7689C12.9483 3.69879 12.8131 3.66194 12.6756 3.66223H1.6C1.41444 3.66218 1.23621 3.73465 1.10335 3.86419C0.970488 3.99373 0.893524 4.17007 0.888885 4.35557V27.6445C0.893524 27.83 0.970488 28.0063 1.10335 28.1358C1.23621 28.2654 1.41444 28.3378 1.6 28.3378H30.4C30.5856 28.3378 30.7638 28.2654 30.8966 28.1358C31.0295 28.0063 31.1065 27.83 31.1111 27.6445V7.11112C31.1111 6.92252 31.0362 6.74165 30.9028 6.60829C30.7695 6.47493 30.5886 6.40001 30.4 6.40001Z" fill="#005BA1"/>
<path d="M10.2222 5.01331H3.92888C3.77179 5.01331 3.64444 5.14066 3.64444 5.29775V6.09775C3.64444 6.25484 3.77179 6.38219 3.92888 6.38219H10.2222C10.3793 6.38219 10.5067 6.25484 10.5067 6.09775V5.29775C10.5067 5.14066 10.3793 5.01331 10.2222 5.01331Z" fill="white"/>
<path d="M4.81777 5.01331H3.84C3.73199 5.01331 3.64444 5.10086 3.64444 5.20886V6.18664C3.64444 6.29464 3.73199 6.38219 3.84 6.38219H4.81777C4.92578 6.38219 5.01333 6.29464 5.01333 6.18664V5.20886C5.01333 5.10086 4.92578 5.01331 4.81777 5.01331Z" fill="#1AC3F2"/>
<path d="M30.4 6.36446H16C15.9065 6.36147 15.8134 6.37902 15.7274 6.41588C15.6414 6.45274 15.5646 6.50801 15.5022 6.5778L13.1022 8.88891C12.9653 9.0119 12.7885 9.08134 12.6044 9.08446H1.6C1.4114 9.08446 1.23052 9.15938 1.09717 9.29274C0.963806 9.4261 0.888885 9.60698 0.888885 9.79557V27.5734C0.893524 27.7589 0.970488 27.9352 1.10335 28.0647C1.23621 28.1943 1.41444 28.2667 1.6 28.2667H30.4C30.5856 28.2667 30.7638 28.1943 30.8966 28.0647C31.0295 27.9352 31.1065 27.7589 31.1111 27.5734V7.11113C31.1159 7.0148 31.1011 6.91849 31.0675 6.82807C31.034 6.73765 30.9823 6.655 30.9158 6.58515C30.8493 6.51531 30.7693 6.45972 30.6806 6.42178C30.5919 6.38384 30.4965 6.36434 30.4 6.36446Z" fill="url(#paint0_linear_855_11180)"/>
<path d="M18.0978 10.1333C18.0513 10.1204 18.0021 10.1204 17.9556 10.1333C17.9556 10.1333 17.7956 10.1333 17.7245 10.2578L12.1067 18.4178C12.0817 18.461 12.0686 18.51 12.0686 18.56C12.0686 18.6099 12.0817 18.659 12.1067 18.7022C12.1329 18.7516 12.171 18.7937 12.2176 18.8247C12.2641 18.8558 12.3177 18.8747 12.3733 18.88H15.6978L14.2222 23.8222C14.2077 23.8511 14.1994 23.8828 14.1978 23.9151C14.1963 23.9474 14.2015 23.9797 14.2133 24.0099C14.225 24.0401 14.2429 24.0674 14.2659 24.0902C14.2889 24.113 14.3164 24.1307 14.3467 24.1422C14.3868 24.1572 14.431 24.1572 14.4711 24.1422C14.5778 24.1422 14.6311 24.1422 14.7022 24.0178L20.4978 15.7333C20.4978 15.7333 20.4978 15.6266 20.4978 15.5555C20.4933 15.4785 20.4594 15.4061 20.4032 15.3532C20.347 15.3003 20.2727 15.271 20.1956 15.2711H16.64L18.08 10.4178C18.1143 10.3792 18.1347 10.3302 18.138 10.2786C18.1412 10.227 18.127 10.1759 18.0978 10.1333Z" fill="white"/>
<defs>
<linearGradient id="paint0_linear_855_11180" x1="16.4267" y1="1.70669" x2="15.7333" y2="29.3689" gradientUnits="userSpaceOnUse">
<stop stop-color="#32D4F5"/>
<stop offset="0.23" stop-color="#31D0F1"/>
<stop offset="0.46" stop-color="#2CC3E6"/>
<stop offset="0.7" stop-color="#25AFD4"/>
<stop offset="0.94" stop-color="#1C92BA"/>
<stop offset="1" stop-color="#198AB3"/>
</linearGradient>
</defs>
</svg>
