<svg width="32" height="32" viewBox="0 0 32 32" fill="none" xmlns="http://www.w3.org/2000/svg">
<g clip-path="url(#clip0_855_11176)">
<path d="M16.3556 19.4578C16.219 18.2743 16.3342 17.0754 16.6934 15.9395C17.0527 14.8036 17.648 13.7566 18.4403 12.8669C19.2326 11.9772 20.204 11.2651 21.2909 10.7771C22.3777 10.2892 23.5553 10.0365 24.7467 10.0356H24.8889C25.215 10.0353 25.5409 10.0537 25.8649 10.0907C27.2727 10.2643 28.6134 10.7922 29.7618 11.6249V1.08979C29.7618 0.959071 29.7359 0.829639 29.6858 0.708935C29.6356 0.588231 29.562 0.478636 29.4693 0.38645C29.3767 0.294265 29.2667 0.221306 29.1457 0.171768C29.0247 0.12223 28.8952 0.0970899 28.7644 0.0977927H0.990222C0.727436 0.0982636 0.475573 0.202985 0.289921 0.388971C0.104269 0.574956 -4.21992e-07 0.827006 0 1.08979L0 20.2898C0 20.5529 0.104514 20.8052 0.29055 20.9912C0.476586 21.1773 0.728905 21.2818 0.992 21.2818H16.8551C16.5986 20.7021 16.4302 20.0873 16.3556 19.4578Z" fill="#0078D4"/>
<path opacity="0.9" d="M16.2933 18.3964C16.3236 16.1741 17.2261 14.0528 18.8061 12.4897C20.3861 10.9267 22.517 10.0472 24.7395 10.0409H24.8889C25.8785 10.0353 26.8604 10.2162 27.7831 10.5742V2.13333C27.7831 2.05742 27.7529 1.98462 27.6992 1.93094C27.6456 1.87726 27.5728 1.84711 27.4969 1.84711H2.27908C2.20331 1.84757 2.13078 1.87788 2.07721 1.93145C2.02363 1.98503 1.99333 2.05756 1.99286 2.13333V19.0631C1.99333 19.1389 2.02363 19.2114 2.07721 19.265C2.13078 19.3186 2.20331 19.3489 2.27908 19.3493H16.3431C16.3087 19.0329 16.2921 18.7147 16.2933 18.3964Z" fill="url(#paint0_linear_855_11176)"/>
<path d="M17.1235 0.631104H12.7146C12.5399 0.631104 12.3982 0.772781 12.3982 0.947548V1.00088C12.3982 1.17565 12.5399 1.31733 12.7146 1.31733H17.1235C17.2983 1.31733 17.44 1.17565 17.44 1.00088V0.947548C17.44 0.772781 17.2983 0.631104 17.1235 0.631104Z" fill="#F2F2F2"/>
<path d="M17.6302 18.3947C17.6271 18.6917 17.6426 18.9885 17.6764 19.2836C18.0035 22.2667 20.8409 23.6551 21.6515 27.4365C21.681 27.5654 21.7529 27.6807 21.8558 27.7639C21.9586 27.8471 22.0864 27.8933 22.2186 27.8951H27.4115C27.5439 27.893 27.6718 27.8468 27.7749 27.7637C27.878 27.6806 27.9503 27.5654 27.9804 27.4365C28.7893 23.6551 31.6035 22.2667 31.9538 19.2836C32.0694 18.2872 31.9729 17.2775 31.6706 16.3211C31.3683 15.3646 30.8671 14.4829 30.1998 13.7339C29.5326 12.9849 28.7144 12.3855 27.7991 11.9752C26.8838 11.5648 25.892 11.3527 24.8889 11.3529H24.7431C22.8687 11.3523 21.07 12.0918 19.738 13.4105C18.406 14.7292 17.6485 16.5204 17.6302 18.3947Z" fill="url(#paint1_radial_855_11176)"/>
<path d="M27.7831 15.3422C27.3369 15.358 26.915 15.5497 26.6095 15.8754C26.3041 16.2012 26.14 16.6345 26.1529 17.0809V18.0107H23.6036V17.0809C23.6085 16.8573 23.5694 16.6349 23.4883 16.4265C23.4072 16.2181 23.2859 16.0277 23.1312 15.8662C22.9765 15.7047 22.7914 15.5753 22.5866 15.4854C22.3819 15.3955 22.1614 15.3468 21.9378 15.3422H21.9005C21.4592 15.3737 21.0463 15.5713 20.7448 15.895C20.4434 16.2188 20.2758 16.6447 20.2758 17.0871C20.2758 17.5295 20.4434 17.9554 20.7448 18.2792C21.0463 18.603 21.4592 18.8005 21.9005 18.832H22.6738V26.08C22.6809 26.1905 22.7297 26.2941 22.8105 26.3699C22.8912 26.4456 22.9978 26.4877 23.1085 26.4877C23.2192 26.4877 23.3257 26.4456 23.4065 26.3699C23.4872 26.2941 23.5361 26.1905 23.5431 26.08V18.832H26.1529V26.08C26.16 26.1905 26.2089 26.2941 26.2896 26.3699C26.3703 26.4456 26.4769 26.4877 26.5876 26.4877C26.6983 26.4877 26.8048 26.4456 26.8856 26.3699C26.9663 26.2941 27.0152 26.1905 27.0222 26.08V18.832H27.7831C28.005 18.8244 28.2231 18.7732 28.4252 18.6813C28.6272 18.5893 28.8091 18.4584 28.9605 18.2961C29.1119 18.1338 29.2298 17.9433 29.3075 17.7354C29.3852 17.5275 29.4212 17.3063 29.4134 17.0844C29.4273 16.6375 29.2635 16.2032 28.958 15.8767C28.6525 15.5502 28.23 15.358 27.7831 15.3422ZM22.6738 18.0089H21.8525C21.6637 18.0324 21.4722 17.9978 21.3036 17.9098C21.1349 17.8218 20.997 17.6846 20.9083 17.5163C20.8195 17.3481 20.7841 17.1568 20.8067 16.9679C20.8293 16.779 20.9088 16.6015 21.0348 16.4589C21.1607 16.3163 21.3271 16.2155 21.5117 16.1697C21.6964 16.124 21.8906 16.1356 22.0685 16.2029C22.2464 16.2702 22.3996 16.3901 22.5078 16.5466C22.6159 16.7032 22.6738 16.8889 22.6738 17.0791V18.0089ZM27.8436 18.0089H27.0222V17.0311C27.0005 16.8172 27.0634 16.6033 27.1976 16.4354C27.3317 16.2674 27.5264 16.1587 27.7398 16.1326C27.9532 16.1066 28.1683 16.1652 28.3389 16.296C28.5096 16.4267 28.6221 16.6192 28.6525 16.832C28.6614 16.8981 28.6614 16.965 28.6525 17.0311C28.677 17.2632 28.6093 17.4957 28.464 17.6783C28.3186 17.8609 28.1073 17.979 27.8756 18.0071L27.8436 18.0089Z" fill="url(#paint2_linear_855_11176)"/>
<path d="M26.2969 31.7689L27.2765 30.7182V27.9111H22.4V30.7129L23.3778 31.7636C23.4366 31.8332 23.5176 31.8803 23.6071 31.8969H26.0231C26.0749 31.8946 26.1258 31.8821 26.1728 31.8602C26.2197 31.8382 26.2619 31.8072 26.2969 31.7689Z" fill="#CECECE"/>
<path d="M22.3484 29.8489L27.2765 28.8942V28.3502L22.3484 29.3173V29.8489Z" fill="#999999"/>
<path d="M27.2765 30.2222V29.6907L22.3484 30.6702V30.7182L22.7218 31.1289L27.2765 30.2222Z" fill="#999999"/>
</g>
<defs>
<linearGradient id="paint0_linear_855_11176" x1="13.7351" y1="-7.85245" x2="16.3093" y2="33.4364" gradientUnits="userSpaceOnUse">
<stop stop-color="#83B9F9"/>
<stop offset="1" stop-color="#0078D4"/>
</linearGradient>
<radialGradient id="paint1_radial_855_11176" cx="0" cy="0" r="1" gradientUnits="userSpaceOnUse" gradientTransform="translate(24.816 19.6267) scale(10.0338)">
<stop stop-color="#B4EC36"/>
<stop offset="0.813" stop-color="#86D633"/>
</radialGradient>
<linearGradient id="paint2_linear_855_11176" x1="24.8338" y1="16.0658" x2="24.9138" y2="26.1387" gradientUnits="userSpaceOnUse">
<stop stop-color="#F2F2F2"/>
<stop offset="1" stop-color="#B4EC36" stop-opacity="0.02"/>
</linearGradient>
<clipPath id="clip0_855_11176">
<rect width="32" height="32" fill="white"/>
</clipPath>
</defs>
</svg>
