<svg width="32" height="32" viewBox="0 0 32 32" fill="none" xmlns="http://www.w3.org/2000/svg">
<path d="M19.2534 14.9689C19.2583 15.0886 19.2166 15.2055 19.137 15.2951C19.0574 15.3846 18.9461 15.4398 18.8267 15.4489H15.1111C14.9914 15.4538 14.8745 15.4121 14.7849 15.3325C14.6954 15.2529 14.6402 15.1417 14.6311 15.0222V12.2489C14.6262 12.1292 14.6679 12.0122 14.7475 11.9227C14.8271 11.8331 14.9383 11.778 15.0578 11.7689H18.7734C18.8931 11.7639 19.01 11.8057 19.0996 11.8852C19.1891 11.9648 19.2442 12.0761 19.2534 12.1956V14.9689Z" fill="#76BC2D"/>
<path d="M25.8489 17.7778C25.8539 17.8975 25.8122 18.0144 25.7326 18.104C25.653 18.1935 25.5417 18.2487 25.4223 18.2578H21.7067C21.587 18.2627 21.4701 18.221 21.3805 18.1414C21.291 18.0618 21.2358 17.9506 21.2267 17.8311V15.0755C21.2218 14.9558 21.2635 14.8389 21.3431 14.7493C21.4227 14.6598 21.5339 14.6047 21.6534 14.5955H25.3689C25.4886 14.5906 25.6056 14.6323 25.6951 14.7119C25.7847 14.7915 25.8398 14.9028 25.8489 15.0222V17.7778Z" fill="#76BC2D"/>
<path d="M19.2534 20.6222C19.2583 20.7419 19.2166 20.8589 19.137 20.9484C19.0574 21.038 18.9461 21.0931 18.8267 21.1022H15.1111C14.9914 21.1072 14.8745 21.0654 14.7849 20.9859C14.6954 20.9063 14.6402 20.795 14.6311 20.6755V17.9022C14.6262 17.7825 14.6679 17.6656 14.7475 17.576C14.8271 17.4865 14.9383 17.4313 15.0578 17.4222H18.7734C18.8931 17.4173 19.01 17.459 19.0996 17.5386C19.1891 17.6182 19.2442 17.7294 19.2534 17.8489V20.6222Z" fill="#76BC2D"/>
<path d="M12.6578 12.16C12.6628 12.275 12.6229 12.3875 12.5467 12.4737C12.4704 12.5599 12.3637 12.6131 12.2489 12.6222H8.42672C8.30981 12.6275 8.19526 12.5882 8.10617 12.5124C8.01709 12.4365 7.9601 12.3296 7.94672 12.2134V9.33336C7.95076 9.21978 7.9965 9.11167 8.07521 9.02969C8.15391 8.9477 8.26006 8.89759 8.37338 8.88892H12.0889C12.4801 8.88892 12.6578 9.08447 12.6578 9.36892V12.16Z" fill="#86D633"/>
<path d="M12.6578 17.7778C12.6627 17.8362 12.6559 17.895 12.638 17.9507C12.62 18.0065 12.5912 18.0582 12.5532 18.1028C12.5152 18.1474 12.4688 18.1841 12.4166 18.2107C12.3643 18.2373 12.3074 18.2533 12.2489 18.2578H8.42671C8.363 18.2603 8.29947 18.2496 8.2401 18.2263C8.18073 18.2031 8.12681 18.1678 8.08173 18.1227C8.03665 18.0777 8.00138 18.0237 7.97815 17.9644C7.95491 17.905 7.9442 17.8415 7.94671 17.7778V14.9689C7.94636 14.8522 7.99015 14.7397 8.06928 14.654C8.14842 14.5683 8.25705 14.5156 8.37337 14.5067H12.0889C12.48 14.5067 12.6578 14.7022 12.6578 14.9689V17.7778Z" fill="#76BC2D"/>
<path d="M12.6578 23.4489C12.6627 23.5073 12.656 23.5661 12.638 23.6219C12.6201 23.6777 12.5913 23.7294 12.5532 23.774C12.5152 23.8186 12.4688 23.8553 12.4166 23.8818C12.3643 23.9084 12.3074 23.9244 12.2489 23.9289H8.42672C8.30702 23.9339 8.19006 23.8922 8.10052 23.8126C8.01097 23.733 7.95583 23.6217 7.94672 23.5023V20.6223C7.94434 20.5639 7.95349 20.5056 7.97365 20.4508C7.99381 20.3959 8.02459 20.3456 8.06422 20.3027C8.10384 20.2597 8.15155 20.2251 8.2046 20.2006C8.25765 20.1761 8.31501 20.1623 8.37339 20.16H12.0889C12.4801 20.16 12.6578 20.3378 12.6578 20.6223V23.4489Z" fill="#76BC2D"/>
<path d="M1.90225 2.68445H4.19558V9.08445C4.19558 9.22118 4.14127 9.35232 4.04458 9.449C3.9479 9.54569 3.81676 9.6 3.68003 9.6H1.40447C1.26774 9.6 1.1366 9.54569 1.03992 9.449C0.943234 9.35232 0.888917 9.22118 0.888917 9.08445V3.75112C0.88167 3.61362 0.902518 3.4761 0.950188 3.34693C0.997859 3.21777 1.07135 3.09967 1.16618 2.99985C1.26101 2.90003 1.37518 2.82058 1.50174 2.76635C1.62829 2.71213 1.76457 2.68426 1.90225 2.68445Z" fill="#999999"/>
<path opacity="0.5" d="M1.90225 2.68445H4.19558V9.08445C4.19558 9.22118 4.14127 9.35232 4.04458 9.449C3.9479 9.54569 3.81676 9.6 3.68003 9.6H1.40447C1.26774 9.6 1.1366 9.54569 1.03992 9.449C0.943234 9.35232 0.888917 9.22118 0.888917 9.08445V3.75112C0.88167 3.61362 0.902518 3.4761 0.950188 3.34693C0.997859 3.21777 1.07135 3.09967 1.16618 2.99985C1.26101 2.90003 1.37518 2.82058 1.50174 2.76635C1.62829 2.71213 1.76457 2.68426 1.90225 2.68445Z" fill="#999999"/>
<path d="M27.8045 2.68445H30.0978C30.3665 2.68445 30.6243 2.79121 30.8143 2.98125C31.0044 3.17128 31.1111 3.42903 31.1111 3.69778V9.03112C31.1111 9.16785 31.0568 9.29898 30.9601 9.39567C30.8634 9.49235 30.7323 9.54667 30.5956 9.54667H28.3022C28.1655 9.54667 28.0344 9.49235 27.9377 9.39567C27.841 9.29898 27.7867 9.16785 27.7867 9.03112V2.68445H27.8045Z" fill="#999999"/>
<path opacity="0.5" d="M27.8045 2.68445H30.0978C30.3665 2.68445 30.6243 2.79121 30.8143 2.98125C31.0044 3.17128 31.1111 3.42903 31.1111 3.69778V9.03112C31.1111 9.16785 31.0568 9.29898 30.9601 9.39567C30.8634 9.49235 30.7323 9.54667 30.5956 9.54667H28.3022C28.1655 9.54667 28.0344 9.49235 27.9377 9.39567C27.841 9.29898 27.7867 9.16785 27.7867 9.03112V2.68445H27.8045Z" fill="#999999"/>
<path d="M31.1111 3.69778V5.92L0.888924 5.92V3.69778C0.888924 3.42903 0.995686 3.17128 1.18572 2.98125C1.37576 2.79121 1.6335 2.68445 1.90226 2.68445L30.1156 2.68445C30.3812 2.68911 30.6345 2.79792 30.8207 2.98746C31.0069 3.17699 31.1112 3.43208 31.1111 3.69778Z" fill="#949494"/>
<path d="M1.40447 22.6844H3.6978C3.83454 22.6844 3.96567 22.7388 4.06236 22.8354C4.15904 22.9321 4.21336 23.0633 4.21336 23.2V29.6H1.90225C1.6335 29.6 1.37575 29.4932 1.18571 29.3032C0.995678 29.1132 0.888916 28.8554 0.888916 28.5867V23.1111C0.91005 22.9903 0.973567 22.881 1.06806 22.8028C1.16255 22.7246 1.28183 22.6826 1.40447 22.6844Z" fill="#999999"/>
<path opacity="0.5" d="M1.40447 22.6844H3.6978C3.83454 22.6844 3.96567 22.7388 4.06236 22.8354C4.15904 22.9321 4.21336 23.0633 4.21336 23.2V29.6H1.90225C1.6335 29.6 1.37575 29.4932 1.18571 29.3032C0.995678 29.1132 0.888916 28.8554 0.888916 28.5867V23.1111C0.91005 22.9903 0.973567 22.881 1.06806 22.8028C1.16255 22.7246 1.28183 22.6826 1.40447 22.6844Z" fill="#999999"/>
<path d="M28.3022 22.6844H30.5956C30.7323 22.6844 30.8634 22.7388 30.9601 22.8355C31.0568 22.9321 31.1111 23.0633 31.1111 23.2V28.5333C31.1111 28.8021 31.0043 29.0598 30.8143 29.2499C30.6243 29.4399 30.3665 29.5467 30.0978 29.5467H27.8044V23.1111C27.825 22.9933 27.886 22.8863 27.9768 22.8085C28.0676 22.7306 28.1826 22.6868 28.3022 22.6844Z" fill="#999999"/>
<path opacity="0.5" d="M28.3022 22.6844H30.5956C30.7323 22.6844 30.8634 22.7388 30.9601 22.8355C31.0568 22.9321 31.1111 23.0633 31.1111 23.2V28.5333C31.1111 28.8021 31.0043 29.0598 30.8143 29.2499C30.6243 29.4399 30.3665 29.5467 30.0978 29.5467H27.8044V23.1111C27.825 22.9933 27.886 22.8863 27.9768 22.8085C28.0676 22.7306 28.1826 22.6868 28.3022 22.6844Z" fill="#999999"/>
<path d="M0.888916 28.5866L0.888916 26.3644H31.1111V28.5866C31.1111 28.8554 31.0044 29.1131 30.8143 29.3032C30.6243 29.4932 30.3666 29.6 30.0978 29.6L1.90225 29.6C1.6335 29.6 1.37575 29.4932 1.18571 29.3032C0.995678 29.1131 0.888916 28.8554 0.888916 28.5866Z" fill="#949494"/>
</svg>
