<svg width="32" height="32" viewBox="0 0 32 32" fill="none" xmlns="http://www.w3.org/2000/svg">
<path d="M16.3201 14.6489H17.4756V17.8667C17.4756 17.9327 17.4494 17.996 17.4027 18.0427C17.356 18.0893 17.2927 18.1156 17.2267 18.1156H16.0001C15.934 18.1156 15.8707 18.0893 15.8241 18.0427C15.7774 17.996 15.7512 17.9327 15.7512 17.8667V15.1644C15.7508 15.092 15.7657 15.0203 15.7948 14.954C15.824 14.8877 15.8668 14.8283 15.9205 14.7797C15.9742 14.731 16.0375 14.6942 16.1063 14.6717C16.1752 14.6492 16.248 14.6414 16.3201 14.6489Z" fill="#B3B3B3"/>
<path opacity="0.5" d="M16.3201 14.6489H17.4756V17.8667C17.4756 17.9327 17.4494 17.996 17.4027 18.0427C17.356 18.0893 17.2927 18.1156 17.2267 18.1156H16.0001C15.934 18.1156 15.8707 18.0893 15.8241 18.0427C15.7774 17.996 15.7512 17.9327 15.7512 17.8667V15.1644C15.7508 15.092 15.7657 15.0203 15.7948 14.954C15.824 14.8877 15.8668 14.8283 15.9205 14.7797C15.9742 14.731 16.0375 14.6942 16.1063 14.6717C16.1752 14.6492 16.248 14.6414 16.3201 14.6489Z" fill="#B3B3B3"/>
<path d="M29.4401 14.6489H30.5956C30.7324 14.6489 30.8635 14.7032 30.9602 14.7999C31.0569 14.8966 31.1112 15.0277 31.1112 15.1644V17.8844C31.1112 17.9171 31.1047 17.9495 31.0922 17.9797C31.0797 18.0099 31.0614 18.0373 31.0383 18.0604C31.0152 18.0835 30.9877 18.1019 30.9575 18.1144C30.9273 18.1269 30.895 18.1333 30.8623 18.1333H29.689C29.6229 18.1333 29.5596 18.1071 29.513 18.0604C29.4663 18.0137 29.4401 17.9504 29.4401 17.8844V14.6489Z" fill="#B3B3B3"/>
<path opacity="0.5" d="M29.4401 14.6489H30.5956C30.7324 14.6489 30.8635 14.7032 30.9602 14.7999C31.0569 14.8966 31.1112 15.0277 31.1112 15.1644V17.8844C31.1112 17.9171 31.1047 17.9495 31.0922 17.9797C31.0797 18.0099 31.0614 18.0373 31.0383 18.0604C31.0152 18.0835 30.9877 18.1019 30.9575 18.1144C30.9273 18.1269 30.895 18.1333 30.8623 18.1333H29.689C29.6229 18.1333 29.5596 18.1071 29.513 18.0604C29.4663 18.0137 29.4401 17.9504 29.4401 17.8844V14.6489Z" fill="#B3B3B3"/>
<path d="M31.1111 15.1111V16.2311H15.8223V15.1111C15.8223 14.9743 15.8766 14.8432 15.9733 14.7465C16.0699 14.6498 16.2011 14.5955 16.3378 14.5955L30.56 14.5955C30.6307 14.5906 30.7015 14.6004 30.7683 14.6241C30.835 14.6478 30.8961 14.685 30.9478 14.7334C30.9995 14.7817 31.0407 14.8402 31.0688 14.9052C31.0969 14.9702 31.1113 15.0403 31.1111 15.1111Z" fill="#B3B3B3"/>
<path d="M16 24.8889H17.1556C17.2216 24.8889 17.2849 24.9151 17.3315 24.9618C17.3782 25.0085 17.4044 25.0718 17.4044 25.1378V28.3556H16.32C16.1833 28.3556 16.0521 28.3013 15.9554 28.2046C15.8588 28.1079 15.8044 27.9768 15.8044 27.84V25.0845C15.814 25.0362 15.8377 24.9918 15.8726 24.957C15.9074 24.9222 15.9517 24.8985 16 24.8889Z" fill="#B3B3B3"/>
<path opacity="0.5" d="M16 24.8889H17.1556C17.2216 24.8889 17.2849 24.9151 17.3315 24.9618C17.3782 25.0085 17.4044 25.0718 17.4044 25.1378V28.3556H16.32C16.1833 28.3556 16.0521 28.3013 15.9554 28.2046C15.8588 28.1079 15.8044 27.9768 15.8044 27.84V25.0845C15.814 25.0362 15.8377 24.9918 15.8726 24.957C15.9074 24.9222 15.9517 24.8985 16 24.8889Z" fill="#B3B3B3"/>
<path d="M29.6889 24.8889H30.8445C30.9105 24.8889 30.9738 24.9151 31.0205 24.9618C31.0671 25.0085 31.0934 25.0718 31.0934 25.1378V27.8578C31.0934 27.9945 31.039 28.1257 30.9424 28.2224C30.8457 28.319 30.7145 28.3734 30.5778 28.3734H29.4222V25.0845C29.435 25.0249 29.4693 24.972 29.5184 24.936C29.5676 24.9 29.6282 24.8832 29.6889 24.8889Z" fill="#B3B3B3"/>
<path opacity="0.5" d="M29.6889 24.8889H30.8445C30.9105 24.8889 30.9738 24.9151 31.0205 24.9618C31.0671 25.0085 31.0934 25.0718 31.0934 25.1378V27.8578C31.0934 27.9945 31.039 28.1257 30.9424 28.2224C30.8457 28.319 30.7145 28.3734 30.5778 28.3734H29.4222V25.0845C29.435 25.0249 29.4693 24.972 29.5184 24.936C29.5676 24.9 29.6282 24.8832 29.6889 24.8889Z" fill="#B3B3B3"/>
<path d="M15.8222 27.8578V26.7378H31.1289V27.8578C31.1289 27.9945 31.0746 28.1256 30.9779 28.2223C30.8812 28.319 30.7501 28.3733 30.6133 28.3733H16.3911C16.3191 28.3808 16.2462 28.3731 16.1774 28.3505C16.1085 28.328 16.0452 28.2912 15.9916 28.2426C15.9379 28.1939 15.8951 28.1345 15.8659 28.0682C15.8367 28.0019 15.8218 27.9302 15.8222 27.8578Z" fill="#B3B3B3"/>
<path d="M25.0489 20.8711C25.0496 20.9267 25.0301 20.9807 24.9942 21.0231C24.9583 21.0656 24.9083 21.0936 24.8533 21.1022H23.1111C23.0816 21.1047 23.052 21.101 23.024 21.0914C22.996 21.0817 22.9704 21.0664 22.9486 21.0464C22.9269 21.0263 22.9096 21.0019 22.8978 20.9748C22.886 20.9477 22.8799 20.9184 22.88 20.8889V19.5555C22.8827 19.5009 22.9033 19.4486 22.9386 19.4068C22.974 19.365 23.0221 19.3361 23.0756 19.3244H24.8533C24.8828 19.3219 24.9125 19.3256 24.9404 19.3352C24.9684 19.3449 24.9941 19.3602 25.0158 19.3802C25.0376 19.4003 25.0549 19.4247 25.0667 19.4518C25.0785 19.4789 25.0846 19.5082 25.0845 19.5377L25.0489 20.8711Z" fill="#76BC2D"/>
<path d="M28.2311 22.2222C28.2318 22.2778 28.2124 22.3318 28.1765 22.3742C28.1405 22.4167 28.0905 22.4448 28.0356 22.4533H26.2578C26.2283 22.4558 26.1987 22.4521 26.1707 22.4425C26.1427 22.4329 26.1171 22.4175 26.0953 22.3975C26.0736 22.3774 26.0563 22.3531 26.0444 22.3259C26.0326 22.2988 26.0266 22.2696 26.0267 22.24V20.9244C26.0242 20.8973 26.0274 20.8699 26.0361 20.8441C26.0449 20.8183 26.0589 20.7946 26.0773 20.7745C26.0957 20.7544 26.1181 20.7384 26.1431 20.7275C26.168 20.7166 26.195 20.711 26.2222 20.7111H28C28.0285 20.7058 28.0578 20.7069 28.0858 20.7144C28.1138 20.7218 28.1398 20.7354 28.1619 20.7541C28.184 20.7728 28.2017 20.7962 28.2137 20.8226C28.2257 20.849 28.2316 20.8777 28.2311 20.9066V22.2222Z" fill="#5E9624"/>
<path d="M25.0489 23.5734C25.0513 23.6014 25.0482 23.6296 25.0397 23.6564C25.0312 23.6833 25.0174 23.7081 24.9992 23.7296C24.9811 23.7511 24.9588 23.7688 24.9338 23.7816C24.9087 23.7945 24.8814 23.8022 24.8534 23.8045H23.1111C23.0831 23.8069 23.0549 23.8038 23.028 23.7952C23.0012 23.7867 22.9764 23.773 22.9549 23.7548C22.9334 23.7366 22.9157 23.7144 22.9029 23.6893C22.89 23.6643 22.8823 23.637 22.88 23.6089V22.2756C22.8773 22.2445 22.8814 22.2133 22.8921 22.184C22.9027 22.1547 22.9197 22.1282 22.9417 22.1061C22.9637 22.0841 22.9903 22.0672 23.0196 22.0565C23.0489 22.0459 23.0801 22.0417 23.1111 22.0445H24.8889C24.9174 22.0392 24.9467 22.0403 24.9747 22.0478C25.0027 22.0552 25.0287 22.0688 25.0508 22.0875C25.0729 22.1062 25.0906 22.1296 25.1026 22.156C25.1145 22.1823 25.1205 22.2111 25.12 22.24V23.5734H25.0489Z" fill="#5E9624"/>
<path d="M21.8667 19.5556C21.8692 19.5827 21.866 19.61 21.8572 19.6359C21.8485 19.6617 21.8345 19.6854 21.8161 19.7055C21.7977 19.7256 21.7753 19.7416 21.7503 19.7525C21.7254 19.7634 21.6984 19.769 21.6711 19.7689H19.8934C19.8794 19.7911 19.8611 19.8103 19.8397 19.8254C19.8183 19.8405 19.7941 19.8513 19.7685 19.8571C19.7429 19.8628 19.7164 19.8635 19.6906 19.8591C19.6647 19.8546 19.64 19.8451 19.6178 19.8311C19.5956 19.8171 19.5764 19.7989 19.5613 19.7774C19.5462 19.756 19.5354 19.7318 19.5296 19.7062C19.5238 19.6806 19.5232 19.6542 19.5276 19.6283C19.5321 19.6025 19.5416 19.5777 19.5556 19.5556V18.1867C19.5531 18.1595 19.5563 18.1322 19.565 18.1064C19.5738 18.0805 19.5878 18.0568 19.6062 18.0367C19.6246 18.0167 19.647 18.0006 19.672 17.9897C19.6969 17.9788 19.7239 17.9732 19.7511 17.9733H21.5289C21.7067 17.9733 21.7956 18.0622 21.7956 18.1867L21.8667 19.5556Z" fill="#86D633"/>
<path d="M21.8667 22.2222C21.8691 22.2503 21.866 22.2785 21.8574 22.3053C21.8489 22.3321 21.8352 22.357 21.817 22.3785C21.7988 22.4 21.7766 22.4176 21.7515 22.4305C21.7265 22.4433 21.6992 22.4511 21.6711 22.4533H19.8933C19.8368 22.4533 19.7825 22.4309 19.7425 22.3908C19.7025 22.3508 19.68 22.2966 19.68 22.24V20.8889C19.6776 20.8609 19.6807 20.8326 19.6892 20.8058C19.6978 20.779 19.7115 20.7541 19.7297 20.7326C19.7479 20.7112 19.7701 20.6935 19.7951 20.6806C19.8202 20.6678 19.8475 20.66 19.8756 20.6578H21.6533C21.8311 20.6578 21.92 20.7467 21.92 20.8889L21.8667 22.2222Z" fill="#76BC2D"/>
<path d="M21.8667 24.8889C21.8719 24.9174 21.8708 24.9467 21.8634 24.9747C21.8559 25.0027 21.8424 25.0287 21.8237 25.0508C21.805 25.0729 21.7816 25.0906 21.7552 25.1026C21.7288 25.1145 21.7001 25.1205 21.6711 25.12H19.8933C19.8577 25.1491 19.8135 25.1659 19.7675 25.1678C19.7215 25.1698 19.676 25.1568 19.638 25.1308C19.6 25.1048 19.5714 25.0671 19.5566 25.0236C19.5417 24.98 19.5414 24.9327 19.5556 24.8889V23.5022C19.5531 23.4742 19.5563 23.446 19.5648 23.4191C19.5733 23.3923 19.5871 23.3675 19.6052 23.346C19.6234 23.3245 19.6457 23.3068 19.6707 23.294C19.6957 23.2811 19.7231 23.2734 19.7511 23.2711H21.5289C21.5621 23.266 21.596 23.2681 21.6283 23.2774C21.6606 23.2866 21.6904 23.3028 21.7158 23.3248C21.7412 23.3468 21.7615 23.3741 21.7753 23.4047C21.789 23.4354 21.796 23.4686 21.7956 23.5022L21.8667 24.8889Z" fill="#5E9624"/>
<path d="M23.6623 10.3111C23.6627 10.241 23.6483 10.1716 23.62 10.1075C23.5917 10.0433 23.5502 9.98586 23.4982 9.93886C23.4462 9.89187 23.3848 9.85639 23.3181 9.83477C23.2514 9.81314 23.1809 9.80584 23.1112 9.81335H8.88897C8.82212 9.81096 8.75547 9.82207 8.69301 9.84602C8.63055 9.86996 8.57356 9.90625 8.52544 9.95271C8.47731 9.99917 8.43905 10.0549 8.41293 10.1164C8.38681 10.178 8.37337 10.2442 8.37341 10.3111V13.0311C8.37793 13.0987 8.40801 13.1621 8.45753 13.2083C8.50706 13.2545 8.57233 13.2802 8.64008 13.28H9.77786C9.84387 13.28 9.90717 13.2538 9.95385 13.2071C10.0005 13.1604 10.0267 13.0971 10.0267 13.0311V11.4311H21.9734V13.0311C21.9779 13.0987 22.008 13.1621 22.0575 13.2083C22.1071 13.2545 22.1723 13.2802 22.2401 13.28H23.3956C23.4634 13.2802 23.5287 13.2545 23.5782 13.2083C23.6277 13.1621 23.6578 13.0987 23.6623 13.0311V10.3111Z" fill="#949494"/>
<path d="M10.0267 20.1244C10.0267 20.0584 10.0005 19.9951 9.95382 19.9484C9.90715 19.9018 9.84384 19.8755 9.77783 19.8755H8.62227C8.55453 19.8754 8.48926 19.901 8.43973 19.9473C8.3902 19.9935 8.36012 20.0568 8.35561 20.1244V22.8444C8.34031 22.9598 8.37084 23.0765 8.44064 23.1696C8.51044 23.2626 8.61395 23.3246 8.72894 23.3422H14.9156V21.7244H10.0267V20.1244Z" fill="#949494"/>
<path d="M16.1956 4.19555C16.1956 4.05881 16.1413 3.92768 16.0446 3.831C15.9479 3.73431 15.8168 3.67999 15.68 3.67999H1.45782C1.32108 3.67999 1.18995 3.73431 1.09326 3.831C0.996578 3.92768 0.942261 4.05881 0.942261 4.19555V6.91555C0.951864 6.96383 0.975568 7.00818 1.01038 7.04299C1.04519 7.0778 1.08954 7.1015 1.13782 7.1111H2.31115C2.37716 7.1111 2.44046 7.08488 2.48714 7.03821C2.53382 6.99153 2.56004 6.92822 2.56004 6.86221V5.33333H14.5067V6.9511C14.5288 7.00232 14.5665 7.0453 14.6143 7.074C14.6621 7.1027 14.7178 7.11568 14.7734 7.1111H16C16.0678 7.11125 16.1331 7.08561 16.1826 7.03939C16.2321 6.99316 16.2622 6.92981 16.2667 6.86221V4.19555H16.1956Z" fill="#949494"/>
<path d="M2.56003 14.0089C2.56018 13.9411 2.53454 13.8758 2.48831 13.8263C2.44208 13.7768 2.37874 13.7467 2.31114 13.7422H1.13781C1.07021 13.7467 1.00686 13.7768 0.960635 13.8263C0.914408 13.8758 0.888766 13.9411 0.888917 14.0089V16.7111C0.888917 16.9777 1.06669 17.2089 1.26225 17.2089H7.44892V15.6089H2.56003V14.0089Z" fill="#949494"/>
<path d="M13.9022 14.7911C13.9047 14.8182 13.9015 14.8456 13.8928 14.8714C13.8841 14.8972 13.8701 14.9209 13.8516 14.941C13.8332 14.9611 13.8108 14.9771 13.7859 14.988C13.7609 14.999 13.7339 15.0045 13.7067 15.0044H11.9289C11.9004 15.0097 11.8711 15.0086 11.8431 15.0011C11.8151 14.9937 11.7891 14.9801 11.767 14.9614C11.7449 14.9427 11.7272 14.9193 11.7152 14.8929C11.7033 14.8665 11.6973 14.8378 11.6978 14.8089V13.44C11.6925 13.4115 11.6936 13.3822 11.7011 13.3542C11.7085 13.3262 11.7221 13.3002 11.7408 13.2781C11.7595 13.256 11.7829 13.2383 11.8093 13.2263C11.8357 13.2143 11.8644 13.2084 11.8934 13.2089H13.6711C13.8489 13.2089 13.9378 13.2978 13.9378 13.44L13.9022 14.7911ZM13.9022 16.1422C13.9022 16 13.8134 16 13.6356 16H11.8578C11.8297 16.0022 11.8024 16.01 11.7774 16.0228C11.7523 16.0357 11.7301 16.0534 11.7119 16.0748C11.6937 16.0963 11.68 16.1212 11.6715 16.148C11.6629 16.1748 11.6598 16.2031 11.6622 16.2311V17.6178C11.6645 17.6458 11.6722 17.6731 11.6851 17.6982C11.6979 17.7232 11.7156 17.7455 11.7371 17.7636C11.7586 17.7818 11.7834 17.7956 11.8103 17.8041C11.8371 17.8126 11.8653 17.8157 11.8934 17.8133H13.6711C13.6992 17.8111 13.7265 17.8033 13.7515 17.7905C13.7766 17.7776 13.7988 17.7599 13.817 17.7385C13.8352 17.717 13.8489 17.6921 13.8575 17.6653C13.866 17.6385 13.8691 17.6102 13.8667 17.5822L13.9022 16.1422ZM13.9022 18.8444C13.9022 18.72 13.8134 18.6311 13.6356 18.6311H11.8578C11.8305 18.631 11.8036 18.6366 11.7786 18.6475C11.7536 18.6584 11.7312 18.6744 11.7128 18.6945C11.6944 18.7146 11.6804 18.7383 11.6717 18.7641C11.663 18.7899 11.6598 18.8173 11.6622 18.8444V20.2311C11.6618 20.2601 11.6677 20.2888 11.6797 20.3152C11.6917 20.3415 11.7093 20.3649 11.7315 20.3836C11.7536 20.4024 11.7796 20.4159 11.8076 20.4234C11.8356 20.4308 11.8649 20.4319 11.8934 20.4266H13.6711C13.7001 20.4271 13.7288 20.4212 13.7552 20.4092C13.7816 20.3972 13.805 20.3796 13.8237 20.3574C13.8424 20.3353 13.856 20.3093 13.8634 20.2813C13.8708 20.2533 13.872 20.224 13.8667 20.1955L13.9022 18.8444ZM6.43557 7.30665C6.43125 7.27614 6.42087 7.24681 6.40504 7.22037C6.38922 7.19394 6.36827 7.17093 6.34342 7.15271C6.31858 7.13449 6.29034 7.12142 6.26037 7.11428C6.2304 7.10713 6.1993 7.10605 6.16891 7.11109H4.39113C4.36308 7.11333 4.33575 7.1211 4.31071 7.13394C4.28568 7.14679 4.26343 7.16446 4.24525 7.18595C4.22707 7.20743 4.21333 7.23229 4.2048 7.25911C4.19628 7.28593 4.19314 7.31417 4.19557 7.3422V8.72887C4.20687 8.77289 4.23194 8.81215 4.26712 8.84093C4.30229 8.86971 4.34574 8.88651 4.39113 8.88887H6.16891C6.19787 8.88935 6.22658 8.88339 6.25297 8.87142C6.27935 8.85945 6.30274 8.84177 6.32146 8.81966C6.34017 8.79754 6.35373 8.77154 6.36117 8.74355C6.36861 8.71555 6.36973 8.68624 6.36446 8.65776L6.43557 7.30665ZM6.43557 10.0089C6.43557 9.88442 6.34668 9.79554 6.16891 9.79554H4.39113C4.36388 9.79542 4.33691 9.801 4.31195 9.81192C4.28698 9.82284 4.26458 9.83886 4.24616 9.85895C4.22775 9.87903 4.21374 9.90274 4.20503 9.92856C4.19632 9.95438 4.1931 9.98173 4.19557 10.0089V11.3778C4.19546 11.405 4.20104 11.432 4.21196 11.4569C4.22288 11.4819 4.2389 11.5043 4.25899 11.5227C4.27907 11.5411 4.30278 11.5551 4.3286 11.5639C4.35442 11.5726 4.38177 11.5758 4.40891 11.5733H6.18668C6.21393 11.5734 6.2409 11.5678 6.26587 11.5569C6.29083 11.546 6.31324 11.53 6.33165 11.5099C6.35006 11.4898 6.36407 11.4661 6.37278 11.4403C6.3815 11.4145 6.38472 11.3871 6.38224 11.36L6.43557 10.0089ZM6.43557 12.7289C6.43557 12.5866 6.34668 12.4978 6.16891 12.4978H4.39113C4.36308 12.5 4.33575 12.5078 4.31071 12.5206C4.28568 12.5335 4.26343 12.5511 4.24525 12.5726C4.22707 12.5941 4.21333 12.619 4.2048 12.6458C4.19628 12.6726 4.19314 12.7008 4.19557 12.7289V14.08C4.19557 14.1366 4.21805 14.1908 4.25806 14.2308C4.29806 14.2708 4.35233 14.2933 4.40891 14.2933H6.18668C6.21474 14.2911 6.24207 14.2833 6.2671 14.2705C6.29214 14.2576 6.31439 14.2399 6.33256 14.2185C6.35074 14.197 6.36449 14.1721 6.37301 14.1453C6.38154 14.1185 6.38467 14.0902 6.38224 14.0622L6.43557 12.7289Z" fill="#76BC2D"/>
</svg>
