<svg width="32" height="32" viewBox="0 0 32 32" fill="none" xmlns="http://www.w3.org/2000/svg">
<path d="M13.0133 21.0489H18.8978C19.0102 21.0475 19.1188 21.0081 19.206 20.9371C19.2931 20.8661 19.3537 20.7676 19.3778 20.6578C19.6973 19.1431 20.5409 17.7896 21.76 16.8356C21.8575 16.7642 21.9245 16.6586 21.9476 16.54C21.9706 16.4213 21.9481 16.2983 21.8844 16.1956L18.8267 10.8623C18.7671 10.7616 18.6727 10.6862 18.5614 10.6502C18.4501 10.6142 18.3295 10.62 18.2222 10.6667C17.5091 10.9245 16.7582 11.0627 16 11.0756C15.2168 11.0824 14.4392 10.9437 13.7067 10.6667C13.5949 10.6269 13.4726 10.6283 13.3618 10.6706C13.2509 10.713 13.1589 10.7936 13.1022 10.8978L10.0444 16.2311C9.98473 16.3349 9.96445 16.4568 9.9873 16.5743C10.0102 16.6919 10.0746 16.7973 10.1689 16.8711C11.3779 17.8236 12.2145 19.1699 12.5333 20.6756C12.5579 20.7837 12.6192 20.8799 12.7067 20.948C12.7942 21.016 12.9025 21.0517 13.0133 21.0489ZM9.45778 4.53336H5.90222C5.81522 4.53228 5.72957 4.55487 5.65442 4.59871C5.57926 4.64255 5.51744 4.70599 5.47556 4.78225L0.96 12.5511C0.916311 12.6268 0.893311 12.7127 0.893311 12.8C0.893311 12.8874 0.916311 12.9732 0.96 13.0489L2.61333 15.8934C2.67705 16.0041 2.77962 16.0872 2.90115 16.1267C3.02269 16.1661 3.15453 16.159 3.27111 16.1067C4.15635 15.6724 5.12954 15.4474 6.11556 15.4489C6.35226 15.4313 6.58996 15.4313 6.82667 15.4489C6.92426 15.4553 7.0218 15.4357 7.10928 15.3919C7.19676 15.3482 7.27102 15.282 7.32444 15.2L8.72889 12.8L10.8444 9.13781C10.9011 9.05707 10.9314 8.96086 10.9314 8.86225C10.9314 8.76365 10.9011 8.66743 10.8444 8.5867C9.91116 7.44099 9.39688 6.01105 9.38667 4.53336H9.45778ZM26.56 4.78225C26.5181 4.70599 26.4563 4.64255 26.3811 4.59871C26.306 4.55487 26.2203 4.53228 26.1333 4.53336H22.5778C22.5809 5.99595 22.0926 7.41718 21.1911 8.56892C21.1345 8.64966 21.1041 8.74587 21.1041 8.84447C21.1041 8.94308 21.1345 9.03929 21.1911 9.12003L23.3244 12.8L24.7289 15.2356C24.7776 15.3219 24.8511 15.3917 24.9397 15.4361C25.0284 15.4804 25.1283 15.4973 25.2267 15.4845H25.9022C26.8932 15.4894 27.8707 15.7141 28.7644 16.1423C28.8595 16.1804 28.9642 16.1872 29.0634 16.1616C29.1625 16.136 29.2509 16.0794 29.3156 16L30.9689 13.1378C31.0126 13.0621 31.0356 12.9763 31.0356 12.8889C31.0356 12.8015 31.0126 12.7157 30.9689 12.64L26.56 4.78225ZM19.1467 23.8934H12.7644C12.6611 23.8903 12.5594 23.9194 12.4734 23.9767C12.3873 24.0341 12.3213 24.1168 12.2844 24.2134C11.8204 25.51 10.9547 26.6248 9.81333 27.3956C9.70733 27.468 9.63217 27.5774 9.60258 27.7024C9.57299 27.8273 9.59109 27.9588 9.65333 28.0711L11.0578 30.4889C11.1024 30.5628 11.1648 30.6243 11.2394 30.6678C11.3139 30.7113 11.3982 30.7353 11.4844 30.7378H20.4622C20.5485 30.7353 20.6328 30.7113 20.7073 30.6678C20.7818 30.6243 20.8443 30.5628 20.8889 30.4889L22.2756 28.0889C22.3421 27.9777 22.3626 27.8448 22.3328 27.7186C22.3029 27.5925 22.225 27.483 22.1156 27.4134C20.968 26.6371 20.0965 25.5167 19.6267 24.2134C19.5898 24.1168 19.5238 24.0341 19.4377 23.9767C19.3517 23.9194 19.25 23.8903 19.1467 23.8934Z" fill="#0078D4"/>
<path d="M6.11555 25.2977C7.93195 25.2977 9.40444 23.8253 9.40444 22.0089C9.40444 20.1925 7.93195 18.72 6.11555 18.72C4.29915 18.72 2.82666 20.1925 2.82666 22.0089C2.82666 23.8253 4.29915 25.2977 6.11555 25.2977Z" fill="url(#paint0_linear_855_11174)"/>
<path d="M25.7955 25.2977C27.6119 25.2977 29.0844 23.8253 29.0844 22.0089C29.0844 20.1925 27.6119 18.72 25.7955 18.72C23.9791 18.72 22.5067 20.1925 22.5067 22.0089C22.5067 23.8253 23.9791 25.2977 25.7955 25.2977Z" fill="url(#paint1_linear_855_11174)"/>
<path d="M15.9644 7.82222C17.7808 7.82222 19.2533 6.34974 19.2533 4.53333C19.2533 2.71693 17.7808 1.24445 15.9644 1.24445C14.148 1.24445 12.6755 2.71693 12.6755 4.53333C12.6755 6.34974 14.148 7.82222 15.9644 7.82222Z" fill="url(#paint2_linear_855_11174)"/>
<path d="M25.7956 11.4134C24.7413 11.411 23.6926 11.5668 22.6845 11.8756L23.2178 12.8L24.6222 15.2356C24.671 15.3219 24.7444 15.3917 24.8331 15.4361C24.9218 15.4804 25.0217 15.4973 25.12 15.4845H25.7956C26.7866 15.4894 27.7641 15.7141 28.6578 16.1422C28.7642 16.2095 28.8928 16.2323 29.0158 16.2057C29.1388 16.1791 29.2465 16.1052 29.3156 16L30.72 13.5822L31.0934 12.9245C29.4943 11.9561 27.6649 11.4343 25.7956 11.4134ZM19.3778 20.6578C19.6974 19.1431 20.5409 17.7896 21.76 16.8356C21.8575 16.7642 21.9245 16.6586 21.9476 16.5399C21.9706 16.4213 21.9481 16.2983 21.8845 16.1956L20.1067 13.0667C18.7451 13.9418 17.6006 15.1153 16.7597 16.4982C15.9188 17.8812 15.4037 19.4374 15.2534 21.0489H18.9156C19.0249 21.0436 19.1294 21.0024 19.213 20.9317C19.2966 20.861 19.3545 20.7647 19.3778 20.6578ZM19.6267 24.2134C19.5898 24.1168 19.5238 24.0341 19.4378 23.9767C19.3518 23.9194 19.25 23.8902 19.1467 23.8934H15.36C15.8757 26.6738 17.4743 29.1356 19.8045 30.7378H20.4622C20.5485 30.7353 20.6328 30.7113 20.7073 30.6678C20.7819 30.6243 20.8443 30.5628 20.8889 30.4889L22.2756 28.0889C22.3421 27.9776 22.3627 27.8448 22.3328 27.7186C22.3029 27.5925 22.225 27.4829 22.1156 27.4134C20.9416 26.6484 20.0442 25.5267 19.5556 24.2134H19.6267Z" fill="#5EA0EF"/>
<defs>
<linearGradient id="paint0_linear_855_11174" x1="6.11555" y1="25.28" x2="6.11555" y2="18.7377" gradientUnits="userSpaceOnUse">
<stop offset="0.09" stop-color="#32BEDD"/>
<stop offset="1" stop-color="#50E6FF"/>
</linearGradient>
<linearGradient id="paint1_linear_855_11174" x1="25.7955" y1="25.28" x2="25.7955" y2="18.7377" gradientUnits="userSpaceOnUse">
<stop offset="0.09" stop-color="#32BEDD"/>
<stop offset="1" stop-color="#50E6FF"/>
</linearGradient>
<linearGradient id="paint2_linear_855_11174" x1="15.9644" y1="7.82222" x2="15.9644" y2="1.26222" gradientUnits="userSpaceOnUse">
<stop offset="0.09" stop-color="#32BEDD"/>
<stop offset="1" stop-color="#50E6FF"/>
</linearGradient>
</defs>
</svg>
