<svg width="32" height="32" viewBox="0 0 32 32" fill="none" xmlns="http://www.w3.org/2000/svg">
<mask id="mask0_855_11182" style="mask-type:luminance" maskUnits="userSpaceOnUse" x="4" y="0" width="24" height="32">
<path d="M17.2622 2.10665C17.2622 1.77142 17.3954 1.44991 17.6324 1.21287C17.8695 0.975822 18.191 0.842651 18.5262 0.842651H26.1049C26.2708 0.842651 26.4351 0.875358 26.5883 0.938902C26.7416 1.00245 26.8808 1.09558 26.998 1.21298C27.1153 1.33037 27.2082 1.46973 27.2715 1.62307C27.3349 1.77642 27.3673 1.94074 27.3671 2.10665V29.8933C27.3673 30.0592 27.3349 30.2236 27.2715 30.3769C27.2082 30.5302 27.1153 30.6696 26.998 30.787C26.8808 30.9044 26.7416 30.9975 26.5883 31.0611C26.4351 31.1246 26.2708 31.1573 26.1049 31.1573H5.8951C5.72919 31.1573 5.56491 31.1246 5.41165 31.0611C5.2584 30.9975 5.11917 30.9044 5.00194 30.787C4.88471 30.6696 4.79177 30.5302 4.72845 30.3769C4.66512 30.2236 4.63264 30.0592 4.63287 29.8933V17.2622C4.63287 16.9274 4.76586 16.6064 5.00257 16.3697C5.23928 16.133 5.56033 16 5.8951 16H10.9475V9.68532C10.9475 9.35008 11.0807 9.02858 11.3178 8.79154C11.5548 8.55449 11.8763 8.42132 12.2115 8.42132H17.2622V2.10665Z" fill="white"/>
</mask>
<g mask="url(#mask0_855_11182)">
<path d="M27.3671 0.842651V31.1573H17.2622V0.842651H27.3671Z" fill="url(#paint0_linear_855_11182)"/>
<path d="M21.0524 9.68533V31.1573H10.9475V8.42133H19.7884C20.1237 8.42133 20.4452 8.5545 20.6822 8.79154C20.9193 9.02859 21.0524 9.35009 21.0524 9.68533Z" fill="url(#paint1_linear_855_11182)"/>
<path d="M4.63287 16V31.1573H14.7378V17.2622C14.7373 16.9273 14.6039 16.6062 14.3669 16.3696C14.1299 16.1329 13.8087 16 13.4738 16H4.63287Z" fill="url(#paint2_linear_855_11182)"/>
</g>
<defs>
<linearGradient id="paint0_linear_855_11182" x1="15.2409" y1="1.00265" x2="28.5653" y2="29.248" gradientUnits="userSpaceOnUse">
<stop stop-color="#E6AD10"/>
<stop offset="1" stop-color="#C87E0E"/>
</linearGradient>
<linearGradient id="paint1_linear_855_11182" x1="10.1138" y1="8.85155" x2="21.3209" y2="30.5849" gradientUnits="userSpaceOnUse">
<stop stop-color="#F6D751"/>
<stop offset="1" stop-color="#E6AD10"/>
</linearGradient>
<linearGradient id="paint2_linear_855_11182" x1="6.02665" y1="15.4116" x2="12.2186" y2="30.0889" gradientUnits="userSpaceOnUse">
<stop stop-color="#F9E589"/>
<stop offset="1" stop-color="#F6D751"/>
</linearGradient>
</defs>
</svg>
