<svg width="32" height="32" viewBox="0 0 32 32" fill="none" xmlns="http://www.w3.org/2000/svg">
<path d="M12.48 1.104H25.3351C26.1595 1.104 26.9704 1.31283 27.6922 1.71101C28.414 2.10918 29.0232 2.68371 29.4629 3.38101C29.9027 4.0783 30.1586 4.87561 30.2068 5.69855C30.255 6.5215 30.094 7.34324 29.7387 8.08711L29.9787 7.61067L25.5111 16.5458L25.472 16.6258L24.7734 18.0213L25.472 16.624C25.0666 17.4349 24.4434 18.1169 23.6722 18.5935C22.9011 19.0701 22.0124 19.3226 21.1058 19.3227H13.3867L7.92003 30.2542C7.82348 30.4474 7.67505 30.6099 7.49136 30.7234C7.30766 30.8369 7.09598 30.8971 6.88003 30.8971C6.66408 30.8971 6.45239 30.8369 6.2687 30.7234C6.08501 30.6099 5.93658 30.4474 5.84003 30.2542L2.02136 22.6098C1.8594 22.2905 1.77589 21.9372 1.77774 21.5792C1.7796 21.2211 1.86677 20.8687 2.03203 20.5511L6.23647 12.1422C6.43008 11.756 6.72733 11.4312 7.09498 11.2042C7.46263 10.9772 7.88618 10.8569 8.31825 10.8569H24.4285C23.5292 10.0136 22.3404 9.54779 21.1076 9.55556H9.42225C9.22387 9.55531 9.02885 9.50439 8.85567 9.40762C8.6825 9.31085 8.53692 9.17144 8.43274 9.00262C8.32856 8.8338 8.26924 8.64116 8.26041 8.44298C8.25157 8.2448 8.29351 8.04765 8.38225 7.87023L11.4383 1.74578C11.5354 1.55281 11.6843 1.39061 11.8682 1.27729C12.0522 1.16397 12.264 1.10398 12.48 1.104Z" fill="white"/>
<mask id="mask0_855_11181" style="mask-type:luminance" maskUnits="userSpaceOnUse" x="1" y="1" width="30" height="30">
<path d="M12.48 1.104H25.3351C26.1595 1.104 26.9704 1.31283 27.6922 1.71101C28.414 2.10918 29.0232 2.68371 29.4629 3.38101C29.9027 4.0783 30.1586 4.87561 30.2068 5.69855C30.255 6.5215 30.094 7.34324 29.7387 8.08711L29.9787 7.61067L25.5111 16.5458L25.472 16.6258L24.7734 18.0213L25.472 16.624C25.0666 17.4349 24.4434 18.1169 23.6722 18.5935C22.9011 19.0701 22.0124 19.3226 21.1058 19.3227H13.3867L7.92003 30.2542C7.82348 30.4474 7.67505 30.6099 7.49136 30.7234C7.30766 30.8369 7.09598 30.8971 6.88003 30.8971C6.66408 30.8971 6.45239 30.8369 6.2687 30.7234C6.08501 30.6099 5.93658 30.4474 5.84003 30.2542L2.02136 22.6098C1.8594 22.2905 1.77589 21.9372 1.77774 21.5792C1.7796 21.2211 1.86677 20.8687 2.03203 20.5511L6.23647 12.1422C6.43008 11.756 6.72733 11.4312 7.09498 11.2042C7.46263 10.9772 7.88618 10.8569 8.31825 10.8569H24.4285C23.5292 10.0136 22.3404 9.54779 21.1076 9.55556H9.42225C9.22387 9.55531 9.02885 9.50439 8.85567 9.40762C8.6825 9.31085 8.53692 9.17144 8.43274 9.00262C8.32856 8.8338 8.26924 8.64116 8.26041 8.44298C8.25157 8.2448 8.29351 8.04765 8.38225 7.87023L11.4383 1.74578C11.5354 1.55281 11.6843 1.39061 11.8682 1.27729C12.0522 1.16397 12.264 1.10398 12.48 1.104Z" fill="white"/>
</mask>
<g mask="url(#mask0_855_11181)">
<path d="M4.05871 19.3227H13.3867L7.92004 30.2542C7.82321 30.4473 7.67457 30.6097 7.49075 30.7231C7.30693 30.8366 7.09517 30.8967 6.87915 30.8967C6.66314 30.8967 6.45138 30.8366 6.26756 30.7231C6.08374 30.6097 5.9351 30.4473 5.83827 30.2542L2.02138 22.6098C1.84925 22.2629 1.76847 21.8779 1.7867 21.4911C1.80493 21.1043 1.92156 20.7286 2.12556 20.3995C2.32955 20.0703 2.61415 19.7987 2.95244 19.6103C3.29072 19.4218 3.67149 19.3229 4.05871 19.3227Z" fill="url(#paint0_linear_855_11181)"/>
<path d="M12.4783 1.104H25.3352C26.167 1.10385 26.985 1.31632 27.7116 1.72124C28.4382 2.12615 29.0492 2.71007 29.4867 3.41755C29.9241 4.12503 30.1735 4.93259 30.2111 5.76354C30.2486 6.59449 30.0732 7.42126 29.7014 8.16534L25.5094 16.5458L25.4721 16.6258L24.7734 18.0213L25.5094 16.5458C25.8651 15.8021 26.0265 14.9804 25.9786 14.1574C25.9307 13.3344 25.675 12.537 25.2354 11.8396C24.7958 11.1422 24.1867 10.5676 23.4648 10.1694C22.743 9.77124 21.932 9.5625 21.1076 9.56267H9.42228C9.2239 9.56243 9.02887 9.5115 8.8557 9.41473C8.68253 9.31796 8.53695 9.17856 8.43277 9.00973C8.32859 8.84091 8.26927 8.64827 8.26043 8.45009C8.2516 8.25191 8.29354 8.05476 8.38228 7.87734L11.4383 1.74578C11.5353 1.55308 11.6839 1.39106 11.8675 1.27776C12.0511 1.16446 12.2625 1.10431 12.4783 1.104Z" fill="url(#paint1_linear_855_11181)"/>
<path d="M12.4783 1.104H25.3352C26.167 1.10385 26.985 1.31632 27.7116 1.72124C28.4382 2.12615 29.0492 2.71007 29.4867 3.41755C29.9241 4.12503 30.1735 4.93259 30.2111 5.76354C30.2486 6.59449 30.0732 7.42126 29.7014 8.16534L25.5005 16.5653L25.4703 16.6258L25.0987 17.3707L25.5005 16.5653C25.8598 15.8215 26.0244 14.9986 25.9789 14.1738C25.9334 13.349 25.6792 12.5492 25.2403 11.8494C24.8013 11.1496 24.1918 10.5727 23.469 10.1728C22.7462 9.77281 21.9337 9.56289 21.1076 9.56267H9.42228C9.2239 9.56243 9.02887 9.5115 8.8557 9.41473C8.68253 9.31796 8.53695 9.17856 8.43277 9.00973C8.32859 8.84091 8.26927 8.64827 8.26043 8.45009C8.2516 8.25191 8.29354 8.05476 8.38228 7.87734L11.4383 1.74578C11.5353 1.55308 11.6839 1.39106 11.8675 1.27776C12.0511 1.16446 12.2625 1.10431 12.4783 1.104Z" fill="url(#paint2_linear_855_11181)"/>
<path d="M21.1058 19.4525H4.08892C3.65684 19.4525 3.2333 19.5728 2.86565 19.7998C2.498 20.0267 2.20075 20.3515 2.00714 20.7378L6.23647 12.2791C6.43008 11.8929 6.72733 11.5681 7.09498 11.3411C7.46263 11.1141 7.88618 10.9939 8.31825 10.9938H25.3351C26.239 10.9925 27.1246 10.7402 27.8934 10.2649C28.6622 9.78967 29.2838 9.11018 29.6889 8.30226L29.9716 7.74048L25.4649 16.7538C25.06 17.5636 24.4379 18.2449 23.6681 18.7214C22.8983 19.198 22.0112 19.4511 21.1058 19.4525Z" fill="black" fill-opacity="0.24"/>
<path d="M21.1058 19.9734H4.08892C3.65684 19.9734 3.2333 20.0936 2.86565 20.3206C2.498 20.5476 2.20075 20.8724 2.00714 21.2587L6.23647 12.8C6.43008 12.4137 6.72733 12.089 7.09498 11.862C7.46263 11.635 7.88618 11.5147 8.31825 11.5147H25.3351C26.239 11.5134 27.1246 11.2611 27.8934 10.7858C28.6622 10.3105 29.2838 9.63105 29.6889 8.82313L29.9716 8.26135L25.4649 17.2747C25.06 18.0845 24.4379 18.7657 23.6681 19.2423C22.8983 19.7189 22.0112 19.972 21.1058 19.9734Z" fill="black" fill-opacity="0.32"/>
<path d="M21.1058 19.3227H4.08892C3.65684 19.3227 3.2333 19.443 2.86565 19.67C2.498 19.897 2.20075 20.2218 2.00714 20.608L6.23647 12.1494C6.43008 11.7631 6.72733 11.4383 7.09498 11.2113C7.46263 10.9843 7.88618 10.8641 8.31825 10.864H25.3351C26.2384 10.8632 27.1237 10.6117 27.8924 10.1374C28.6611 9.66313 29.2831 8.98473 29.6889 8.17781L29.9716 7.61603L25.4649 16.6294C25.0593 17.4382 24.4369 18.1183 23.6671 18.5939C22.8974 19.0695 22.0106 19.3218 21.1058 19.3227Z" fill="url(#paint3_linear_855_11181)"/>
<path opacity="0.7" d="M21.0969 19.3227H4.10137C3.66929 19.3227 3.24575 19.443 2.8781 19.67C2.51045 19.897 2.2132 20.2217 2.01959 20.608L6.24893 12.1494C6.44254 11.7631 6.73979 11.4383 7.10743 11.2113C7.47508 10.9843 7.89863 10.8641 8.3307 10.864H25.4223C26.2993 10.8641 27.1591 10.6209 27.9061 10.1614C28.6531 9.70191 29.258 9.04416 29.6534 8.26135L25.4596 16.6276C25.0543 17.4375 24.4315 18.1186 23.661 18.5946C22.8904 19.0706 22.0026 19.3227 21.0969 19.3227Z" fill="url(#paint4_linear_855_11181)"/>
</g>
<defs>
<linearGradient id="paint0_linear_855_11181" x1="7.00982" y1="18.432" x2="10.2632" y2="30.7947" gradientUnits="userSpaceOnUse">
<stop stop-color="#159455"/>
<stop offset="1" stop-color="#3FBDA9"/>
</linearGradient>
<linearGradient id="paint1_linear_855_11181" x1="8.85339" y1="2.12623" x2="27.7281" y2="10.5173" gradientUnits="userSpaceOnUse">
<stop stop-color="#23A794"/>
<stop offset="0.568" stop-color="#007A84"/>
<stop offset="1" stop-color="#005158"/>
</linearGradient>
<linearGradient id="paint2_linear_855_11181" x1="22.1441" y1="14.4693" x2="18.7272" y2="5.52356" gradientUnits="userSpaceOnUse">
<stop stop-color="#004A8B"/>
<stop offset="0.406" stop-color="#105DA8" stop-opacity="0.5"/>
<stop offset="1" stop-color="#2170C6" stop-opacity="0"/>
</linearGradient>
<linearGradient id="paint3_linear_855_11181" x1="7.37959" y1="9.84358" x2="24.4587" y2="18.3022" gradientUnits="userSpaceOnUse">
<stop stop-color="#7FD9A2"/>
<stop offset="0.196" stop-color="#47BF79"/>
<stop offset="0.714" stop-color="#009280"/>
<stop offset="1" stop-color="#007A84"/>
</linearGradient>
<linearGradient id="paint4_linear_855_11181" x1="7.25337" y1="10.1422" x2="11.1574" y2="12.0942" gradientUnits="userSpaceOnUse">
<stop stop-color="#A8E47C" stop-opacity="0.86"/>
<stop offset="0.367" stop-color="#87D152" stop-opacity="0.2"/>
<stop offset="1" stop-color="#58BE5A" stop-opacity="0"/>
</linearGradient>
</defs>
</svg>
