<svg width="32" height="32" viewBox="0 0 32 32" fill="none" xmlns="http://www.w3.org/2000/svg">
<g clip-path="url(#clip0_855_11172)">
<path d="M15.5307 9.29602H11.7689C10.5912 9.30421 9.45957 9.75417 8.59782 10.5569C7.73607 11.3596 7.20704 12.4565 7.1154 13.6306C7.02376 14.8047 7.37619 15.9704 8.10296 16.8971C8.82973 17.8238 9.87788 18.4439 11.04 18.6347C10.9539 18.0544 10.9701 17.4636 11.088 16.8889C10.3712 16.7294 9.73896 16.3099 9.3134 15.7114C8.88784 15.113 8.69917 14.3781 8.78383 13.6486C8.86849 12.9192 9.22047 12.247 9.77178 11.762C10.3231 11.2769 11.0346 11.0133 11.7689 11.0222H15.5307C16.3204 11.0222 17.0778 11.336 17.6363 11.8944C18.1947 12.4529 18.5084 13.2103 18.5084 14C18.5084 14.7898 18.1947 15.5472 17.6363 16.1056C17.0778 16.6641 16.3204 16.9778 15.5307 16.9778H14.496C14.3558 17.2718 14.2806 17.5926 14.2756 17.9182C14.277 18.1865 14.3276 18.4522 14.4249 18.7022H15.5307C16.7617 18.6783 17.9342 18.1725 18.7964 17.2934C19.6585 16.4143 20.1415 15.2322 20.1415 14.0009C20.1415 12.7696 19.6585 11.5875 18.7964 10.7084C17.9342 9.82935 16.7617 9.32352 15.5307 9.29958V9.29602Z" fill="url(#paint0_linear_855_11172)"/>
<path d="M20.96 13.2765C20.9944 13.515 21.0128 13.7555 21.0151 13.9965C21.0173 14.3411 20.9828 14.685 20.912 15.0223C21.6255 15.1853 22.2537 15.6059 22.6762 16.2036C23.0987 16.8012 23.2856 17.5338 23.2013 18.2608C23.1169 18.9878 22.7671 19.6581 22.219 20.1431C21.6708 20.6281 20.963 20.8937 20.2311 20.8889H16.4693C15.6796 20.8889 14.9222 20.5752 14.3637 20.0168C13.8053 19.4583 13.4915 18.7009 13.4915 17.9111C13.4915 17.1214 13.8053 16.364 14.3637 15.8055C14.9222 15.2471 15.6796 14.9334 16.4693 14.9334H17.504C17.6358 14.6669 17.7103 14.3757 17.7225 14.0787C17.7348 13.7816 17.6846 13.4853 17.5751 13.2089H16.4693C15.2383 13.2329 14.0657 13.7387 13.2036 14.6178C12.3415 15.4968 11.8585 16.679 11.8585 17.9103C11.8585 19.1415 12.3415 20.3237 13.2036 21.2027C14.0657 22.0818 15.2383 22.5877 16.4693 22.6116H20.2311C21.4087 22.6034 22.5404 22.1534 23.4022 21.3507C24.2639 20.5481 24.7929 19.4511 24.8846 18.277C24.9762 17.1029 24.6238 15.9372 23.897 15.0105C23.1702 14.0838 22.1221 13.4637 20.96 13.2729V13.2765Z" fill="url(#paint1_linear_855_11172)"/>
<path d="M16 -0.0444336L2.04443 7.93779V23.8845L16 31.9556L29.9555 23.9733V7.97334L16 -0.0444336ZM27.3778 22.3022L16 28.88L4.62221 22.3716V9.52001L16 2.94223L27.3778 9.53779V22.3022Z" fill="#0078D4"/>
<path d="M16 0L2.04443 7.98222L4.62221 9.56444L16 2.98667L27.3778 9.56444L29.9555 7.98222L16 0Z" fill="url(#paint2_linear_855_11172)"/>
</g>
<defs>
<linearGradient id="paint0_linear_855_11172" x1="13.6676" y1="9.29602" x2="13.6676" y2="18.6987" gradientUnits="userSpaceOnUse">
<stop offset="0.23" stop-color="#5EA0EF"/>
<stop offset="0.32" stop-color="#5B9FEE"/>
<stop offset="0.48" stop-color="#509AEB"/>
<stop offset="0.57" stop-color="#3F92E6"/>
<stop offset="0.75" stop-color="#2688DF"/>
<stop offset="0.93" stop-color="#127FD9"/>
</linearGradient>
<linearGradient id="paint1_linear_855_11172" x1="18.3324" y1="13.2125" x2="18.3324" y2="22.6151" gradientUnits="userSpaceOnUse">
<stop offset="0.2" stop-color="#50E6FF"/>
<stop offset="0.65" stop-color="#32BEDD"/>
<stop offset="1" stop-color="#198AB3"/>
</linearGradient>
<linearGradient id="paint2_linear_855_11172" x1="16" y1="9.56444" x2="16" y2="0" gradientUnits="userSpaceOnUse">
<stop offset="0.199" stop-color="#005BA1"/>
<stop offset="1" stop-color="#0078D4"/>
</linearGradient>
<clipPath id="clip0_855_11172">
<rect width="32" height="32" fill="white"/>
</clipPath>
</defs>
</svg>
