<svg width="32" height="32" viewBox="0 0 32 32" fill="none" xmlns="http://www.w3.org/2000/svg">
<g clip-path="url(#clip0_855_11171)">
<path d="M32 17.2267V14.0444L31.8222 13.8844L28.5511 12.7822L27.7155 10.6667L29.3333 7.32443L29.5111 6.9511L28.4444 5.86665L27.2 4.63999L26.7733 4.85332L23.5733 6.4711L21.4222 5.86665L20.0355 2.3111H16.8533L16.6933 2.4711L15.5911 5.72443L13.3511 6.55999L9.6533 4.78221L7.37775 7.00443L7.59108 7.4311L9.29775 10.6667C11.0129 9.63312 12.9844 9.10329 14.9866 9.13776C17.2595 9.14936 19.4743 9.85662 21.3333 11.1644C21.5567 11.304 21.7705 11.4585 21.9733 11.6267C22.7204 12.2722 23.2897 13.0985 23.6266 14.0267C23.8749 14.6549 24.0016 15.3245 24 16C24 16.7571 23.8503 17.5067 23.5595 18.2057C23.2687 18.9047 22.8425 19.5393 22.3056 20.073C21.7686 20.6067 21.1314 21.0289 20.4306 21.3154C19.7298 21.6018 18.9793 21.7469 18.2222 21.7422C17.0328 21.7409 15.8725 21.3748 14.8977 20.6933C12.9731 22.5435 10.4517 23.6466 7.78664 23.8044L7.44886 24.4978L9.72441 26.7911L10.1866 26.6667L13.3866 24.8889L15.5911 25.7955L16.9955 29.6355H20.1955L20.32 29.1911L21.4577 25.7955L23.6266 24.8889L27.3777 26.6667L29.6355 24.4267L29.4222 24L27.7689 20.8178L28.4444 18.5955L32 17.2267Z" fill="url(#paint0_linear_855_11171)"/>
<path d="M7.11106 18.9333C6.26684 18.9377 5.43009 18.7751 4.649 18.4547C3.86792 18.1343 3.15794 17.6626 2.55995 17.0667C2.45184 17.0008 2.36049 16.9108 2.2931 16.8036C2.2257 16.6965 2.1841 16.5752 2.17156 16.4492C2.15903 16.3232 2.1759 16.1961 2.22086 16.0778C2.26581 15.9594 2.33763 15.8532 2.43064 15.7673C2.52365 15.6815 2.63532 15.6184 2.75686 15.583C2.8784 15.5476 3.00649 15.541 3.13104 15.5635C3.2556 15.5861 3.37321 15.6372 3.47463 15.713C3.57606 15.7887 3.65851 15.887 3.7155 16C4.16733 16.4304 4.70017 16.7668 5.28307 16.9896C5.86598 17.2124 6.48733 17.3171 7.11106 17.2978C7.72627 17.313 8.33838 17.2061 8.91205 16.9834C9.48571 16.7606 10.0095 16.4264 10.4533 16C11.0535 15.4182 11.7634 14.9615 12.5416 14.6563C13.3198 14.3511 14.1509 14.2036 14.9866 14.2222C16.6838 14.1926 18.3247 14.8311 19.5555 16C19.6365 16.0747 19.7016 16.165 19.7469 16.2654C19.7921 16.3659 19.8166 16.4745 19.8189 16.5847C19.8211 16.6948 19.801 16.8043 19.7599 16.9065C19.7188 17.0088 19.6574 17.1016 19.5795 17.1795C19.5016 17.2575 19.4087 17.3188 19.3065 17.36C19.2043 17.4011 19.0948 17.4211 18.9846 17.4189C18.8744 17.4167 18.7659 17.3922 18.6654 17.3469C18.5649 17.3017 18.4746 17.2366 18.4 17.1555C17.5061 16.2691 16.2988 15.7709 15.04 15.7689C14.4184 15.7644 13.8022 15.8848 13.2281 16.123C12.654 16.3612 12.1335 16.7123 11.6977 17.1555C11.0877 17.7389 10.3685 18.1963 9.58148 18.5013C8.79443 18.8064 7.95493 18.9532 7.11106 18.9333Z" fill="#50E6FF"/>
<path d="M7.11108 15.68C6.27172 15.6793 5.46661 15.3471 4.87108 14.7556C4.72799 14.6003 4.65048 14.3957 4.65477 14.1847C4.65907 13.9736 4.74483 13.7723 4.89412 13.623C5.04342 13.4737 5.24466 13.388 5.45575 13.3837C5.66683 13.3794 5.8714 13.4569 6.02664 13.6C6.16809 13.7434 6.33707 13.8567 6.52344 13.9331C6.70981 14.0094 6.9097 14.0473 7.11108 14.0444C7.50384 14.0093 7.87627 13.8542 8.17775 13.6C9.99425 11.8075 12.4436 10.8026 14.9955 10.8026C17.5475 10.8026 19.9968 11.8075 21.8133 13.6C21.9564 13.7552 22.0339 13.9598 22.0296 14.1709C22.0253 14.382 21.9396 14.5832 21.7903 14.7325C21.641 14.8818 21.4397 14.9676 21.2286 14.9719C21.0176 14.9762 20.813 14.8987 20.6578 14.7556C19.1426 13.252 17.0946 12.4082 14.96 12.4082C12.8254 12.4082 10.7773 13.252 9.2622 14.7556C8.67489 15.3051 7.91398 15.6321 7.11108 15.68Z" fill="#50E6FF"/>
<path d="M7.11108 22.1866C5.83407 22.1958 4.56801 21.9506 3.38677 21.4653C2.20553 20.98 1.13277 20.2643 0.231084 19.36C0.0873824 19.2054 0.00750732 19.0022 0.00750732 18.7911C0.00750732 18.58 0.0873824 18.3768 0.231084 18.2222C0.38743 18.068 0.598178 17.9816 0.81775 17.9816C1.03732 17.9816 1.24807 18.068 1.40442 18.2222C2.15112 18.9741 3.04065 19.569 4.02069 19.972C5.00072 20.375 6.05146 20.578 7.11108 20.5689C8.16854 20.5703 9.21578 20.3621 10.1923 19.9562C11.1687 19.5504 12.0551 18.955 12.8 18.2044C13.3948 17.6743 14.1549 17.3665 14.9511 17.3333C15.7828 17.3461 16.578 17.6769 17.1733 18.2578C17.3264 18.4111 17.4123 18.6189 17.4123 18.8355C17.4123 19.0522 17.3264 19.26 17.1733 19.4133C17.017 19.5675 16.8062 19.6539 16.5866 19.6539C16.3671 19.6539 16.1563 19.5675 16 19.4133C15.8633 19.2734 15.7002 19.1621 15.5201 19.0858C15.3401 19.0095 15.1466 18.9697 14.9511 18.9689C14.5538 18.9991 14.1781 19.1618 13.8844 19.4311C12.0775 21.2056 9.6436 22.1957 7.11108 22.1866Z" fill="#32BEDD"/>
</g>
<defs>
<linearGradient id="paint0_linear_855_11171" x1="19.6977" y1="29.4542" x2="19.6977" y2="2.19181" gradientUnits="userSpaceOnUse">
<stop stop-color="#949494"/>
<stop offset="0.33" stop-color="#9B9B9B"/>
<stop offset="0.82" stop-color="#AEAFB0"/>
<stop offset="1" stop-color="#B6B8B9"/>
</linearGradient>
<clipPath id="clip0_855_11171">
<rect width="32" height="32" fill="white"/>
</clipPath>
</defs>
</svg>
