<svg width="20" height="20" viewBox="0 0 20 20" fill="none" xmlns="http://www.w3.org/2000/svg">
<g clip-path="url(#clip0_2_1588)">
<path d="M6.07275 9.07275C6.07275 9.29688 6.09619 9.47852 6.13867 9.61182C6.18701 9.74512 6.24561 9.89014 6.33057 10.0469C6.35986 10.0952 6.37158 10.1436 6.37158 10.186C6.37158 10.2461 6.33643 10.3062 6.25879 10.3677L5.88086 10.6211C5.82666 10.6577 5.77393 10.6753 5.72559 10.6753C5.66553 10.6753 5.60547 10.646 5.54541 10.5903C5.46191 10.501 5.39014 10.4028 5.33008 10.3062C5.27002 10.2036 5.21143 10.0894 5.14551 9.9502C4.67822 10.5068 4.09082 10.7852 3.38477 10.7852C2.88232 10.7852 2.48096 10.6387 2.18652 10.3486C1.89355 10.0586 1.74414 9.67188 1.74414 9.18848C1.74414 8.67432 1.92432 8.25684 2.28906 7.94336C2.65381 7.62842 3.13867 7.47168 3.75537 7.47168C3.95898 7.47168 4.16846 7.48926 4.38965 7.52002C4.6123 7.54932 4.83936 7.59766 5.07959 7.65186V7.21094C5.07959 6.75244 4.98291 6.43164 4.79834 6.24414C4.60645 6.05664 4.28271 5.96582 3.82129 5.96582C3.61182 5.96582 3.39648 5.98926 3.17529 6.04346C2.9541 6.09912 2.73877 6.16504 2.5293 6.25C2.43262 6.29248 2.36084 6.31592 2.31982 6.3291C2.27734 6.34082 2.24658 6.34668 2.22314 6.34668C2.13965 6.34668 2.09863 6.28662 2.09863 6.15918V5.86328C2.09863 5.7666 2.11035 5.69336 2.13965 5.65088C2.17041 5.6084 2.22461 5.56592 2.30811 5.52344C2.51758 5.41504 2.76807 5.32422 3.0625 5.25244C3.35547 5.17334 3.66602 5.13672 3.99561 5.13672C4.70898 5.13672 5.229 5.30078 5.56445 5.62744C5.89404 5.9541 6.06104 6.44922 6.06104 7.11426V9.07275H6.07275ZM3.64258 9.99268C3.83887 9.99268 4.04248 9.95605 4.25781 9.88281C4.47461 9.81104 4.66504 9.67773 4.82764 9.49609C4.92285 9.38184 4.99463 9.25439 5.03125 9.10938C5.06641 8.96436 5.09131 8.78857 5.09131 8.5835V8.33008C4.91699 8.2876 4.73096 8.25098 4.54053 8.22607C4.34863 8.20264 4.1626 8.19092 3.97656 8.19092C3.5752 8.19092 3.28223 8.26855 3.08447 8.43262C2.88672 8.59521 2.7915 8.8252 2.7915 9.12695C2.7915 9.41113 2.86328 9.62354 3.0127 9.76855C3.15771 9.91943 3.36719 9.99268 3.64258 9.99268ZM8.44873 10.646C8.3418 10.646 8.27002 10.627 8.22168 10.5845C8.17334 10.5493 8.13232 10.4644 8.0957 10.3486L6.68945 5.67578C6.65283 5.5542 6.63525 5.47656 6.63525 5.43408C6.63525 5.3374 6.68359 5.2832 6.77881 5.2832H7.36621C7.479 5.2832 7.55664 5.30078 7.59912 5.34326C7.64746 5.37988 7.68262 5.46338 7.71924 5.5791L8.72412 9.58105L9.65869 5.5791C9.68799 5.45752 9.72461 5.37988 9.77148 5.34326C9.81982 5.30664 9.90332 5.2832 10.0117 5.2832H10.4907C10.6035 5.2832 10.6826 5.30078 10.7295 5.34326C10.7778 5.37988 10.8203 5.46338 10.8438 5.5791L11.79 9.62939L12.8257 5.5791C12.8608 5.45752 12.9033 5.37988 12.9443 5.34326C12.9927 5.30664 13.0703 5.2832 13.1787 5.2832H13.7354C13.8306 5.2832 13.8848 5.33154 13.8848 5.43408C13.8848 5.46338 13.8789 5.49414 13.873 5.53076C13.8672 5.56738 13.8555 5.61572 13.8306 5.68164L12.3877 10.3545C12.3525 10.4761 12.3101 10.5552 12.2632 10.5903C12.2148 10.627 12.1372 10.6519 12.0347 10.6519H11.5205C11.4062 10.6519 11.3286 10.6328 11.2803 10.5903C11.2319 10.5493 11.1909 10.4702 11.1675 10.3486L10.2388 6.44922L9.31738 10.3428C9.28809 10.4644 9.25146 10.542 9.20459 10.5845C9.15625 10.627 9.07275 10.646 8.96436 10.646H8.44873ZM16.1421 10.8086C15.8315 10.8086 15.5195 10.772 15.2207 10.7002C14.9204 10.627 14.6875 10.5493 14.5322 10.4585C14.4355 10.4028 14.3696 10.3428 14.3462 10.2886C14.3228 10.2344 14.3096 10.1743 14.3096 10.1201V9.81104C14.3096 9.68359 14.3579 9.62354 14.4473 9.62354C14.4839 9.62354 14.5205 9.62939 14.5557 9.64258C14.5908 9.6543 14.645 9.67773 14.7051 9.70264C14.9087 9.79346 15.1299 9.86523 15.3643 9.91357C15.603 9.96191 15.8359 9.98682 16.0762 9.98682C16.4526 9.98682 16.7471 9.91943 16.9507 9.78613C17.1543 9.65283 17.2612 9.45947 17.2612 9.21191C17.2612 9.04346 17.207 8.9043 17.1001 8.78857C16.9917 8.67432 16.7881 8.57178 16.4951 8.4751L15.6279 8.20264C15.1899 8.06348 14.8677 7.85693 14.6699 7.58594C14.4722 7.31934 14.3696 7.02344 14.3696 6.7085C14.3696 6.45508 14.4238 6.23096 14.5322 6.0376C14.6392 5.84424 14.7842 5.67432 14.9629 5.54102C15.1431 5.40186 15.3467 5.29932 15.5854 5.22754C15.8242 5.15576 16.0762 5.125 16.3398 5.125C16.4717 5.125 16.6094 5.13086 16.7412 5.14844C16.8789 5.16748 17.0049 5.19092 17.1309 5.21582C17.2495 5.24512 17.3638 5.27588 17.4722 5.3125C17.5791 5.34912 17.6626 5.38428 17.7227 5.4209C17.8076 5.46924 17.8662 5.51758 17.9028 5.57178C17.9395 5.62012 17.957 5.68604 17.957 5.771V6.05518C17.957 6.18262 17.9087 6.24854 17.8193 6.24854C17.771 6.24854 17.6934 6.2251 17.5908 6.17676C17.2495 6.02002 16.8672 5.94092 16.4424 5.94092C16.1011 5.94092 15.8315 5.99512 15.6455 6.11084C15.4609 6.2251 15.3643 6.40088 15.3643 6.64844C15.3643 6.81689 15.4243 6.96191 15.5444 7.07764C15.6646 7.19189 15.8857 7.30762 16.2021 7.41016L17.0532 7.68262C17.4839 7.82178 17.7959 8.01514 17.9805 8.2627C18.1665 8.51025 18.2559 8.79443 18.2559 9.10938C18.2559 9.36865 18.2017 9.60449 18.1006 9.81104C17.9922 10.0161 17.8486 10.1978 17.6641 10.3428C17.478 10.4937 17.2568 10.6021 16.999 10.6812C16.728 10.7661 16.4468 10.8086 16.1421 10.8086Z" fill="black"/>
<path d="M17.273 13.7471C15.3043 15.2163 12.442 15.9956 9.98101 15.9956C6.53424 15.9956 3.42584 14.708 1.07916 12.5679C0.894589 12.3994 1.06158 12.1694 1.28277 12.3027C3.82135 13.7896 6.95172 14.6904 10.192 14.6904C12.376 14.6904 14.7769 14.2305 16.9859 13.2871C17.3155 13.1362 17.5967 13.5054 17.273 13.7471ZM18.0933 12.8037C17.8414 12.4771 16.4293 12.647 15.7891 12.7246C15.5972 12.7495 15.5679 12.5796 15.7408 12.4521C16.8658 11.6553 18.7159 11.8838 18.9312 12.1504C19.148 12.4229 18.8712 14.2905 17.8179 15.1855C17.6568 15.3247 17.5015 15.2529 17.5733 15.0713C17.8121 14.4722 18.3453 13.1245 18.0933 12.8037Z" fill="#FF9900"/>
</g>
<defs>
<clipPath id="clip0_2_1588">
<rect width="18" height="18" fill="white" transform="translate(1 1)"/>
</clipPath>
</defs>
</svg>
