<svg width="20" height="20" viewBox="0 0 20 20" fill="none" xmlns="http://www.w3.org/2000/svg">
<g clip-path="url(#clip0_2_1574)">
<path d="M7.40643 4.11111H12.0122L7.23084 15.0582C7.13021 15.2889 6.85032 15.4441 6.53499 15.4441H2.95062C2.54566 15.4441 2.21729 15.1904 2.21729 14.8775C2.21729 14.8158 2.23032 14.7547 2.25558 14.6961L6.71058 4.49739C6.81121 4.26663 7.0911 4.11111 7.40643 4.11111Z" fill="url(#paint0_linear_2_1574)"/>
<path d="M14.0994 11.4539H6.79577C6.60918 11.4535 6.45762 11.5706 6.45721 11.7148C6.45721 11.7876 6.49592 11.8568 6.56477 11.9062L11.2581 15.2911C11.3946 15.3897 11.5747 15.4444 11.7617 15.4444H15.8973L14.0994 11.4539Z" fill="#0078D4"/>
<path d="M7.40645 4.11111C7.08745 4.11017 6.80511 4.26978 6.70896 4.50463L2.2613 14.6873C2.12482 14.9814 2.32282 15.3056 2.70333 15.4111C2.78319 15.4331 2.86752 15.4444 2.95267 15.4444H6.62993C6.90859 15.406 7.13919 15.2546 7.2333 15.0481L8.12022 13.0282L11.2882 15.3116C11.421 15.3966 11.5877 15.4435 11.76 15.4444H15.8805L14.0733 11.4539L8.80507 11.4548L12.0289 4.11111H7.40645Z" fill="url(#paint1_linear_2_1574)"/>
<path d="M13.2894 4.49676C13.1888 4.26632 12.9093 4.11111 12.5944 4.11111H7.46106C7.77558 4.11111 8.05547 4.26632 8.15569 4.49645L12.6107 14.6961C12.7402 14.9927 12.5341 15.3141 12.1503 15.4142C12.0749 15.4344 11.9959 15.4444 11.9161 15.4444H17.0494C17.4544 15.4444 17.7827 15.1907 17.7827 14.8775C17.7827 14.8158 17.7697 14.7547 17.744 14.6964L13.2894 4.49676Z" fill="url(#paint2_linear_2_1574)"/>
</g>
<defs>
<linearGradient id="paint0_linear_2_1574" x1="9.08523" y1="4.95112" x2="6.10573" y2="16.3421" gradientUnits="userSpaceOnUse">
<stop stop-color="#114A8B"/>
<stop offset="1" stop-color="#0669BC"/>
</linearGradient>
<linearGradient id="paint1_linear_2_1574" x1="10.5793" y1="10.0393" x2="9.54462" y2="10.4923" gradientUnits="userSpaceOnUse">
<stop stop-opacity="0.3"/>
<stop offset="0.071" stop-opacity="0.2"/>
<stop offset="0.321" stop-opacity="0.1"/>
<stop offset="0.623" stop-opacity="0.05"/>
<stop offset="1" stop-opacity="0"/>
</linearGradient>
<linearGradient id="paint2_linear_2_1574" x1="10.0051" y1="4.62253" x2="13.3043" y2="15.9979" gradientUnits="userSpaceOnUse">
<stop stop-color="#3CCBF4"/>
<stop offset="1" stop-color="#2892DF"/>
</linearGradient>
<clipPath id="clip0_2_1574">
<rect width="16" height="11.5556" fill="white" transform="translate(2 4)"/>
</clipPath>
</defs>
</svg>
