<svg width="20" height="20" viewBox="0 0 20 20" fill="none" xmlns="http://www.w3.org/2000/svg">
<path d="M12.1263 6.60079H12.608L13.9815 5.22716L14.0488 4.64385C11.4926 2.38726 7.59115 2.63101 5.33455 5.18746C4.70759 5.89699 4.25327 6.74222 4.00458 7.65659C4.15727 7.59398 4.32715 7.58351 4.48655 7.62815L7.23361 7.17481C7.23361 7.17481 7.37307 6.94331 7.44616 6.95753C8.03485 6.31105 8.84836 5.91402 9.72019 5.8477C10.592 5.78138 11.4562 6.0508 12.1359 6.60079H12.1263Z" fill="#EA4335"/>
<path d="M15.9386 7.65659C15.6232 6.49398 14.975 5.44884 14.0737 4.64958L12.1462 6.57709C12.548 6.90544 12.87 7.32075 13.0879 7.79169C13.3058 8.26262 13.4139 8.77689 13.4041 9.2957V9.63822C13.8591 9.63838 14.2955 9.81922 14.6172 10.141C14.939 10.4628 15.1199 10.8991 15.12 11.3542C15.1199 11.8092 14.939 12.2456 14.6172 12.5674C14.2955 12.8891 13.8591 13.07 13.4041 13.0701H9.97216L9.62964 13.4174V15.4759L9.97216 15.8184H13.4041C15.8685 15.8373 17.8823 13.8549 17.9012 11.3905C17.9072 10.6546 17.7311 9.92871 17.3887 9.27733C17.0462 8.62595 16.5481 8.06933 15.9386 7.65699V7.65659Z" fill="#4285F4"/>
<path d="M6.53531 15.7964H9.96721V13.0494H6.53531C6.29078 13.0491 6.04916 12.9964 5.82677 12.8947L5.34479 13.0446L3.96168 14.4183L3.84119 14.9C4.6161 15.4863 5.56306 15.8012 6.53531 15.7964Z" fill="#34A853"/>
<path d="M6.53531 6.88543C4.06993 6.89965 2.08455 8.90973 2.09877 11.3751C2.10274 12.0544 2.26179 12.7237 2.56379 13.3321C2.8658 13.9406 3.30277 14.472 3.84139 14.8858L5.83151 12.8957C5.4169 12.7082 5.09369 12.3638 4.9329 11.9382C4.77211 11.5125 4.7869 11.0404 4.97403 10.6257C5.16149 10.2111 5.50589 9.88786 5.93155 9.72707C6.35721 9.56628 6.8293 9.58107 7.24405 9.7682C7.6245 9.93985 7.92889 10.2452 8.10153 10.6257L10.0915 8.63556C9.67412 8.08903 9.13585 7.64661 8.51887 7.34296C7.90189 7.03932 7.22296 6.88272 6.53531 6.88543Z" fill="#FBBC05"/>
</svg>
