<svg width="32" height="32" viewBox="0 0 32 32" fill="none" xmlns="http://www.w3.org/2000/svg">
<g clip-path="url(#clip0_850_21990)">
<path d="M32 0H0V32H32V0Z" fill="#7AA116"/>
<path fill-rule="evenodd" clip-rule="evenodd" d="M17.5901 16.8579H20.7934V16.0585H17.5901V16.8579ZM23.1959 16.8579H25.5984V16.0585H23.1959V16.8579ZM17.5901 15.2214H21.5942V14.422H17.5901V15.2214ZM6.80132 25.6006C6.19509 25.6006 5.60088 25.0075 5.60088 24.4031C5.60088 23.7987 6.19509 23.2047 6.80132 23.2047C7.40595 23.2047 8.00096 23.7987 8.00096 24.4031C8.00096 25.0075 7.40595 25.6006 6.80132 25.6006ZM6.80132 19.9877C6.19509 19.9877 5.60088 19.3945 5.60088 18.7902C5.60088 18.1858 6.19509 17.5918 6.80132 17.5918C7.40595 17.5918 8.00096 18.1858 8.00096 18.7902C8.00096 19.3945 7.40595 19.9877 6.80132 19.9877ZM6.80132 14.3636C6.19509 14.3636 5.60088 13.7704 5.60088 13.1661C5.60088 12.5617 6.19509 11.9685 6.80132 11.9685C7.40595 11.9685 8.00096 12.5617 8.00096 13.1661C8.00096 13.7704 7.40595 14.3636 6.80132 14.3636ZM6.80132 8.79549C6.21752 8.79549 5.60088 8.17991 5.60088 7.59791C5.60088 7.01592 6.21752 6.39954 6.80132 6.39954C7.38352 6.39954 8.00096 7.01592 8.00096 7.59791C8.00096 8.17991 7.38352 8.79549 6.80132 8.79549ZM20.7934 19.1899V18.3904H12.7227V7.59791C12.7227 7.37727 12.5441 7.19819 12.3222 7.19819H8.75134C8.54232 6.33319 7.69425 5.6001 6.80132 5.6001C5.77226 5.6001 4.80005 6.57143 4.80005 7.59791C4.80005 8.6244 5.77226 9.59493 6.80132 9.59493C7.69425 9.59493 8.54232 8.86264 8.75134 7.99764H11.9218V12.8439H8.76576C8.59598 11.9333 7.73909 11.169 6.80132 11.169C5.75384 11.169 4.80005 12.1212 4.80005 13.1661C4.80005 14.2117 5.75384 15.1631 6.80132 15.1631C7.68464 15.1631 8.49508 14.4835 8.72812 13.6433H11.9218V18.3904H8.75374C8.55113 17.5142 7.71186 16.7923 6.80132 16.7923C5.75384 16.7923 4.80005 17.7445 4.80005 18.7902C4.80005 19.8358 5.75384 20.7872 6.80132 20.7872C7.71186 20.7872 8.55113 20.0661 8.75374 19.1899H11.9218V24.0034H8.75374C8.55113 23.1272 7.71186 22.4053 6.80132 22.4053C5.75384 22.4053 4.80005 23.3574 4.80005 24.4031C4.80005 25.448 5.75384 26.4001 6.80132 26.4001C7.71186 26.4001 8.55113 25.679 8.75374 24.8028H12.3222C12.5441 24.8028 12.7227 24.6237 12.7227 24.4031V19.1899H20.7934ZM22.3951 19.1899H25.5984V18.3904H22.3951V19.1899ZM23.1959 15.2214H25.5984V14.422H23.1959V15.2214ZM23.1831 8.69316L23.8454 9.47901L25.9395 11.9613H23.1831V8.69316ZM27.1936 12.3258C27.192 12.3115 27.1896 12.2995 27.1872 12.2859C27.1736 12.2195 27.1504 12.1556 27.1064 12.1036L23.0886 7.34049C23.0413 7.28373 22.9773 7.24856 22.9084 7.22617C22.8884 7.21898 22.8708 7.21658 22.8507 7.21338C22.8275 7.20938 22.8067 7.19819 22.7827 7.19819H16.3552C16.1342 7.19819 15.9548 7.37727 15.9548 7.59791V17.5742H16.7556V7.99764H22.3823V12.361C22.3823 12.5817 22.5608 12.7607 22.7827 12.7607H26.3992V24.0034H16.7556V19.9725H15.9548V24.4031C15.9548 24.6237 16.1342 24.8028 16.3552 24.8028H26.7996C27.0215 24.8028 27.2 24.6237 27.2 24.4031V12.361C27.2 12.349 27.1952 12.3378 27.1936 12.3258Z" fill="white"/>
</g>
<defs>
<clipPath id="clip0_850_21990">
<rect width="32" height="32" fill="white"/>
</clipPath>
</defs>
</svg>
