<svg width="32" height="32" viewBox="0 0 32 32" fill="none" xmlns="http://www.w3.org/2000/svg">
<g clip-path="url(#clip0_850_21963)">
<path d="M32 0H0V32H32V0Z" fill="#7AA116"/>
<path fill-rule="evenodd" clip-rule="evenodd" d="M19.6216 22.4001C18.5184 22.4001 17.6216 21.5025 17.6216 20.4001C17.6216 19.2977 18.5184 18.4001 19.6216 18.4001C20.7248 18.4001 21.6216 19.2977 21.6216 20.4001C21.6216 21.5025 20.7248 22.4001 19.6216 22.4001ZM19.6216 17.6001C18.0776 17.6001 16.8216 18.8561 16.8216 20.4001C16.8216 21.9441 18.0776 23.2001 19.6216 23.2001C21.1656 23.2001 22.4216 21.9441 22.4216 20.4001C22.4216 18.8561 21.1656 17.6001 19.6216 17.6001ZM25.6792 25.8385C25.5256 26.0113 25.2584 26.0241 25.0872 25.8697L22.6016 23.6281C22.8064 23.4385 22.9936 23.2305 23.1592 23.0049L25.6481 25.2465C25.8193 25.4017 25.8336 25.6673 25.6792 25.8385ZM16.0216 20.4001C16.0216 18.4153 17.6368 16.8001 19.6216 16.8001C21.6064 16.8001 23.2216 18.4153 23.2216 20.4001C23.2216 22.3849 21.6064 24.0001 19.6216 24.0001C17.6368 24.0001 16.0216 22.3849 16.0216 20.4001ZM26.184 24.6521L23.5808 22.3073C23.8608 21.7297 24.0216 21.0841 24.0216 20.4001C24.0216 17.9737 22.0472 16.0001 19.6216 16.0001C17.196 16.0001 15.2216 17.9737 15.2216 20.4001C15.2216 22.8265 17.196 24.8001 19.6216 24.8001C20.4792 24.8001 21.2784 24.5497 21.956 24.1225L24.552 26.4641C24.784 26.6737 25.076 26.7769 25.3672 26.7769C25.7008 26.7761 26.0336 26.6409 26.2736 26.3745C26.7224 25.8753 26.6824 25.1025 26.184 24.6521ZM7.19845 17.5505C7.67205 17.4449 8.09125 17.1561 8.38325 16.7713L10.4768 18.3369C10.4312 18.5001 10.3992 18.6665 10.3992 18.8401C10.3992 19.7673 11.1088 20.5961 11.996 20.7937V26.3825H7.19845V17.5505ZM5.60005 15.5953C5.60005 14.9769 6.18245 14.3921 6.79925 14.3921C7.41525 14.3921 7.99845 14.9769 7.99845 15.5953C7.99845 16.2121 7.41525 16.7945 6.79925 16.7945C6.18245 16.7945 5.60005 16.2121 5.60005 15.5953ZM12.3984 17.6401C13.0144 17.6401 13.5976 18.2233 13.5976 18.8401C13.5976 19.4561 13.0144 20.0393 12.3984 20.0393C11.7816 20.0393 11.1992 19.4561 11.1992 18.8401C11.1992 18.2233 11.7816 17.6401 12.3984 17.6401ZM18.0016 10.1921C18.6176 10.1921 19.2008 10.7753 19.2008 11.3921C19.2008 12.0081 18.6176 12.5913 18.0016 12.5913C17.3848 12.5913 16.8024 12.0081 16.8024 11.3921C16.8024 10.7753 17.3848 10.1921 18.0016 10.1921ZM24.4048 7.8617C25.0208 7.8617 25.604 8.4441 25.604 9.0609C25.604 9.6777 25.0208 10.2609 24.4048 10.2609C23.788 10.2609 23.2048 9.6777 23.2048 9.0609C23.2048 8.4441 23.788 7.8617 24.4048 7.8617ZM12.796 20.7953C13.6848 20.5993 14.3976 19.7697 14.3976 18.8401C14.3976 18.5025 14.296 18.1833 14.1344 17.8977L17.532 13.3233C17.5528 13.3289 17.572 13.3393 17.5944 13.3441V15.2001H18.3944V13.3489C19.2856 13.1545 20.0008 12.3233 20.0008 11.3921C20.0008 11.3433 19.9888 11.2969 19.9848 11.2497L22.5544 9.7809C22.8056 10.3905 23.356 10.8721 24.0048 11.0161V16.7977H24.8048V11.0161C25.6928 10.8185 26.4041 9.9897 26.4041 9.0609C26.4041 8.1321 25.6928 7.3033 24.8048 7.1065V5.6001H24.0048V7.1065C23.1568 7.2945 22.4792 8.0593 22.4184 8.9369L19.7456 10.4649C19.4624 9.9537 18.9688 9.5601 18.3944 9.4345V5.6001H17.5944V9.4393C16.7088 9.6393 16.0024 10.4657 16.0024 11.3921C16.0024 12.0153 16.3264 12.5865 16.8048 12.9593L13.5992 17.2761C13.3624 17.0905 13.0912 16.9497 12.796 16.8841V5.6001H11.996V16.8857C11.5416 16.9873 11.1408 17.2577 10.8512 17.6177L8.73845 16.0385C8.77445 15.8945 8.79845 15.7473 8.79845 15.5953C8.79845 14.6641 8.08645 13.8337 7.19845 13.6369V5.6001H6.39845V13.6377C5.51045 13.8353 4.80005 14.6649 4.80005 15.5953C4.80005 16.5241 5.51045 17.3521 6.39845 17.5497V27.1825H20.8216V26.3825H12.796V20.7953Z" fill="white"/>
</g>
<defs>
<clipPath id="clip0_850_21963">
<rect width="32" height="32" fill="white"/>
</clipPath>
</defs>
</svg>
