<svg width="32" height="32" viewBox="0 0 32 32" fill="none" xmlns="http://www.w3.org/2000/svg">
<g clip-path="url(#clip0_850_21985)">
<path d="M32 0H0V32H32V0Z" fill="#7AA116"/>
<path fill-rule="evenodd" clip-rule="evenodd" d="M19.1769 11.1752V9.30165L16.4473 12.0312C16.3041 12.1752 16.0745 12.1888 15.9145 12.06L14.2985 10.7672L11.8977 13.168L11.3321 12.6024L13.9865 9.94885C14.1305 9.80485 14.3601 9.79205 14.5193 9.91925L16.1345 11.212L18.6113 8.73605H16.8153V7.93605H19.5769C19.7977 7.93605 19.9769 8.11525 19.9769 8.33605V11.1752H19.1769ZM10.4401 16.7752H9.6401V5.20005C9.6401 4.97925 9.8193 4.80005 10.0401 4.80005H22.0401C22.2609 4.80005 22.4401 4.97925 22.4401 5.20005V16.7752H21.6401V5.60005H10.4401V16.7752ZM6.4001 25.7048V16.7312L11.3473 20.096L6.4001 25.7048ZM16.0153 23.188C16.0937 23.188 16.1721 23.1648 16.2401 23.1184L19.9689 20.5816L25.1361 26.3624H6.8865L12.0137 20.5496L15.7905 23.1184C15.8585 23.1648 15.9361 23.188 16.0153 23.188ZM20.6369 20.128L25.6297 16.7312V25.7145L20.6369 20.128ZM26.2897 15.6712L23.4745 13.2712L22.9561 13.8792L25.3713 15.9392L16.0153 22.304L6.6593 15.9392L9.0745 13.8792L8.5561 13.2712L5.7409 15.6712C5.6521 15.7464 5.6001 15.8584 5.6001 15.9752V26.7624C5.6001 26.984 5.7793 27.1624 6.0001 27.1624H26.0297C26.2513 27.1624 26.4297 26.984 26.4297 26.7624V15.9752C26.4297 15.8584 26.3785 15.7464 26.2897 15.6712Z" fill="white"/>
</g>
<defs>
<clipPath id="clip0_850_21985">
<rect width="32" height="32" fill="white"/>
</clipPath>
</defs>
</svg>
