<svg width="32" height="32" viewBox="0 0 32 32" fill="none" xmlns="http://www.w3.org/2000/svg">
<g clip-path="url(#clip0_850_21973)">
<path d="M32 0H0V32H32V0Z" fill="#7AA116"/>
<path fill-rule="evenodd" clip-rule="evenodd" d="M5.6374 14.4H8.887C9.0454 13.032 9.5974 11.688 10.4366 10.6632L10.435 6.41205C7.6414 8.18085 5.8902 11.1432 5.6374 14.4ZM26.399 15.2H27.199C27.199 18.3808 25.8398 21.4224 23.4686 23.5456C21.5942 25.224 19.2918 26.188 16.835 26.3648V26.4H16.043C16.0342 26.4 16.0254 26.4008 16.0174 26.4008C15.5894 26.4008 15.159 26.3776 14.7254 26.3296C9.5758 25.7608 5.4302 21.6096 4.8678 16.4584C4.371 11.9024 6.6374 7.54645 10.6438 5.36165L11.235 5.03845L11.2374 15.2H10.4374L10.4366 12.0944C9.927 13.032 9.635 14.1272 9.635 15.2C9.635 18.7288 12.5062 21.6 16.035 21.6C19.5638 21.6 22.435 18.7288 22.435 15.2H23.235C23.235 19.1696 20.0054 22.4 16.035 22.4C12.0646 22.4 8.835 19.1696 8.835 15.2H5.635V14.4368C5.5878 15.0736 5.5918 15.72 5.663 16.372C6.1854 21.1528 10.0334 25.0064 14.8134 25.5344C15.223 25.58 15.6302 25.5968 16.035 25.596V22.4H16.835V25.56C19.095 25.3848 21.2102 24.4944 22.935 22.9496C25.1366 20.9784 26.399 18.1528 26.399 15.2ZM26.435 13.6H27.235V8.00005H26.435V13.6ZM22.435 13.6H23.235V4.80005H22.435V13.6ZM18.435 17.6H19.235V9.60005H18.435V17.6ZM14.435 19.2H15.235V7.20005H14.435V19.2Z" fill="white"/>
</g>
<defs>
<clipPath id="clip0_850_21973">
<rect width="32" height="32" fill="white"/>
</clipPath>
</defs>
</svg>
