<svg width="32" height="32" viewBox="0 0 32 32" fill="none" xmlns="http://www.w3.org/2000/svg">
<g clip-path="url(#clip0_850_21979)">
<path d="M32 0H0V32H32V0Z" fill="#7AA116"/>
<path fill-rule="evenodd" clip-rule="evenodd" d="M20.8001 9.60005H24.2345L20.8001 6.16565V9.60005ZM25.6001 10V26.8C25.6001 27.0208 25.4209 27.2 25.2001 27.2H8.4001C8.1793 27.2 8.0001 27.0208 8.0001 26.8V21.6H8.8001V26.4H24.8001V10.4H20.4001C20.1793 10.4 20.0001 10.2208 20.0001 10V5.60005H8.8001V14.4H8.0001V5.20005C8.0001 4.97925 8.1793 4.80005 8.4001 4.80005H20.4001C20.5065 4.80005 20.6081 4.84245 20.6833 4.91685L25.4833 9.71685C25.5577 9.79205 25.6001 9.89365 25.6001 10ZM18.4001 21.6H20.0001V20.8H18.4001V21.6ZM16.0001 21.6H17.6001V20.8H16.0001V21.6ZM13.6001 21.6H15.2001V20.8H13.6001V21.6ZM18.4001 20H20.0001V19.2H18.4001V20ZM16.0001 20H17.6001V19.2H16.0001V20ZM13.6001 20H15.2001V19.2H13.6001V20ZM14.4001 16.8H19.2001V15.2H14.4001V16.8ZM20.0001 14.8V17.2C20.0001 17.4208 19.8209 17.6 19.6001 17.6H14.0001C13.7793 17.6 13.6001 17.4208 13.6001 17.2V14.8C13.6001 14.5792 13.7793 14.4 14.0001 14.4H19.6001C19.8209 14.4 20.0001 14.5792 20.0001 14.8ZM12.0001 23.2H21.6001V12.8H12.0001V23.2ZM11.6001 24C11.3793 24 11.2001 23.8208 11.2001 23.6V12.4C11.2001 12.1792 11.3793 12 11.6001 12H22.0001C22.2209 12 22.4001 12.1792 22.4001 12.4V23.6C22.4001 23.8208 22.2209 24 22.0001 24H11.6001ZM6.4001 20.8H10.4001V20H6.4001V20.8ZM7.2001 18.4H10.4001V17.6H7.2001V18.4ZM5.6001 16H10.4001V15.2H5.6001V16Z" fill="white"/>
</g>
<defs>
<clipPath id="clip0_850_21979">
<rect width="32" height="32" fill="white"/>
</clipPath>
</defs>
</svg>
