<svg width="32" height="32" viewBox="0 0 32 32" fill="none" xmlns="http://www.w3.org/2000/svg">
<g clip-path="url(#clip0_850_21968)">
<path d="M32 0H0V32H32V0Z" fill="#7AA116"/>
<path fill-rule="evenodd" clip-rule="evenodd" d="M22.7033 22.1377L19.8833 19.3177L19.3177 19.8833L22.1361 22.7025L16.4025 25.0793L10.6625 22.7033L13.4833 19.8833L12.9177 19.3177L10.0985 22.1369L7.7209 16.4025L10.0969 10.6625L12.9177 13.4833L13.4833 12.9177L10.6641 10.0985L16.3977 7.7209L22.1377 10.0969L19.3177 12.9177L19.8833 13.4833L22.7017 10.6641L25.0793 16.3977L22.7033 22.1377ZM27.2001 16.8001V16.0001H25.7801L23.3145 10.0513L24.6833 8.6833L24.1177 8.1177L22.7505 9.4849L16.8001 7.0217V5.6001H16.0001V7.0209L10.0521 9.4857L8.6833 8.1177L8.1177 8.6833L9.4849 10.0505L7.0217 16.0001H5.6001V16.8001H7.0201L9.4865 22.7489L8.1177 24.1177L8.6833 24.6833L10.0505 23.3161L16.0001 25.7785V27.2001H16.8001V25.7801L22.7489 23.3145L24.1177 24.6833L24.6833 24.1177L23.3161 22.7505L25.7785 16.8001H27.2001ZM16.4001 18.5921C15.1913 18.5921 14.2081 17.6089 14.2081 16.4001C14.2081 15.1913 15.1913 14.2081 16.4001 14.2081C17.6089 14.2081 18.5921 15.1913 18.5921 16.4001C18.5921 17.6089 17.6089 18.5921 16.4001 18.5921ZM16.4001 13.4081C14.7505 13.4081 13.4081 14.7505 13.4081 16.4001C13.4081 18.0505 14.7505 19.3921 16.4001 19.3921C18.0505 19.3921 19.3921 18.0505 19.3921 16.4001C19.3921 14.7505 18.0505 13.4081 16.4001 13.4081Z" fill="white"/>
</g>
<defs>
<clipPath id="clip0_850_21968">
<rect width="32" height="32" fill="white"/>
</clipPath>
</defs>
</svg>
