<svg width="32" height="32" viewBox="0 0 32 32" fill="none" xmlns="http://www.w3.org/2000/svg">
<g clip-path="url(#clip0_850_21957)">
<path d="M32 0H0V32H32V0Z" fill="#7AA116"/>
<path fill-rule="evenodd" clip-rule="evenodd" d="M27.2 16.6336L24.912 18.2112C24.8448 18.2576 24.7648 18.2816 24.684 18.2816C24.6576 18.2816 24.6304 18.2792 24.6032 18.2728C24.4952 18.2504 24.4024 18.1848 24.3456 18.092L22.9016 15.7528L23.5816 15.3344L24.5576 16.9168C24.6744 16.32 24.7528 15.716 24.7528 15.1032C24.7528 9.86165 20.4568 5.59765 15.176 5.59765C9.89445 5.59765 5.59845 9.86165 5.59845 15.1032C5.59845 16.1448 5.76645 17.168 6.09845 18.144L5.34245 18.4C4.98325 17.3416 4.80005 16.232 4.80005 15.1032C4.80005 9.42245 9.45445 4.80005 15.176 4.80005C20.8968 4.80005 25.5512 9.42245 25.5512 15.1032C25.5512 15.7128 25.492 16.3184 25.3856 16.916L26.7464 15.9776L27.2 16.6336ZM16.7808 13.7848C17.9712 14.5912 21.1336 16.7328 21.1336 20.4208C21.1336 24.1096 18.6936 26.4008 14.7664 26.4008C10.84 26.4008 8.40005 24.1096 8.40005 20.4208C8.40005 16.7328 11.5624 14.5912 12.7528 13.7848C12.86 13.7128 12.9504 13.6512 13.0208 13.6H16.5128C16.5832 13.6512 16.6736 13.7128 16.7808 13.7848ZM13.2368 10.9912C13.3376 11.0168 13.4432 11.0016 13.5328 10.9504C13.588 10.9184 13.6224 10.8984 14.8016 9.70085L15.9832 10.8856C16.0832 10.9848 16.2264 11.0264 16.3632 10.9912L18.188 10.5336L16.456 12.8H12.9728L11.3528 10.5192L13.2368 10.9912ZM23.3688 12.8592C23.1152 12.7416 22.9096 12.5288 22.7576 12.2264C22.46 11.6328 22.0496 11.4824 21.756 11.4608C20.9384 11.4032 20.0544 12.3608 19.7136 12.8032H17.4616L19.5176 10.1112C19.6208 9.97605 19.6272 9.79045 19.5344 9.64805C19.4416 9.50645 19.268 9.43765 19.1032 9.48005L16.3888 10.16L15.0832 8.85045C15.008 8.77525 14.9064 8.73285 14.8 8.73285H14.7984C14.692 8.73365 14.5896 8.77605 14.5152 8.85205C14.0048 9.37125 13.4392 9.94245 13.2232 10.1632L10.4968 9.48005C10.3352 9.43845 10.164 9.50485 10.0696 9.64245C9.97525 9.78085 9.97685 9.96325 10.0744 10.1L12.2488 13.1616C11.036 13.9832 7.60005 16.368 7.60005 20.4208C7.60005 24.5392 10.4136 27.2 14.7664 27.2C19.12 27.2 21.9336 24.5392 21.9336 20.4208C21.9336 16.9352 19.3928 14.6856 17.9096 13.6H19.916C20.0464 13.6 20.168 13.5368 20.2432 13.4312C20.5904 12.9392 21.2616 12.2368 21.6976 12.256C21.744 12.2592 21.8848 12.2696 22.0424 12.5832C22.2736 13.044 22.616 13.3896 23.0312 13.5816L23.3688 12.8592ZM16.4 21.9496C16.4 22.7 15.888 23.3264 15.2 23.5064V20.456C15.8232 20.6824 16.4 21.1576 16.4 21.9496ZM13.2 17.92C13.2 17.1704 13.712 16.544 14.4 16.3632V19.4136C13.7768 19.1872 13.2 18.712 13.2 17.92ZM12.4 17.92C12.4 19.0264 13.1928 19.9248 14.4 20.2488V23.5064C13.712 23.3264 13.2 22.7 13.2 21.9496H12.4C12.4 23.1432 13.2672 24.1304 14.4 24.3232V24.7104H15.2V24.3232C16.3328 24.1304 17.2 23.1432 17.2 21.9496C17.2 20.8432 16.4072 19.9448 15.2 19.6208V16.3632C15.888 16.544 16.4 17.1704 16.4 17.92H17.2C17.2 16.7272 16.3328 15.7392 15.2 15.5464V15.1104H14.4V15.5464C13.2672 15.7392 12.4 16.7272 12.4 17.92Z" fill="white"/>
</g>
<defs>
<clipPath id="clip0_850_21957">
<rect width="32" height="32" fill="white"/>
</clipPath>
</defs>
</svg>
