<svg width="32" height="32" viewBox="0 0 32 32" fill="none" xmlns="http://www.w3.org/2000/svg">
<g clip-path="url(#clip0_855_68142)">
<path d="M25.2622 27.9467C22.0938 30.4032 18.0792 31.5004 14.1018 30.997C10.1244 30.4936 6.50982 28.4307 4.05332 25.2623C1.59683 22.0938 0.499609 18.0793 1.00304 14.1019C1.50647 10.1244 3.56931 6.50989 6.73777 4.0534L6.89777 3.94673C10.0844 1.56808 14.0802 0.541376 18.0188 1.08923C21.9573 1.63708 25.5212 3.71533 27.9377 6.87336C30.3542 10.0314 31.4285 14.0147 30.9277 17.9595C30.4268 21.9043 28.3912 25.4928 25.2622 27.9467Z" fill="url(#paint0_radial_855_68142)"/>
<path opacity="0.6" d="M11.8933 12.8534C16.1676 8.78819 21.8346 6.51123 27.7333 6.48896C26.9585 5.53043 26.0689 4.67066 25.0845 3.92896C22.2148 4.10598 19.3958 4.76716 16.7467 5.88451C14.0192 7.05606 11.5532 8.7605 9.49335 10.8978C10.4834 11.2736 11.3253 11.9596 11.8933 12.8534Z" fill="white"/>
<path opacity="0.6" d="M4.40887 18.9333C3.79812 20.4457 3.30481 22.0029 2.93332 23.5911C3.26154 24.1617 3.62988 24.7083 4.03554 25.2267C4.35554 25.6356 4.65776 26.0089 5.01332 26.3822C5.44286 24.2663 6.08616 22.1994 6.93332 20.2134C5.98437 20.0439 5.10635 19.5987 4.40887 18.9333Z" fill="white"/>
<path opacity="0.55" d="M6.15112 10.8622C5.52377 9.17855 5.11162 7.42242 4.92446 5.6355C4.17841 6.41905 3.52247 7.2837 2.9689 8.21328C3.16958 9.653 3.50893 11.07 3.98224 12.4444C4.53929 11.7207 5.29192 11.1717 6.15112 10.8622Z" fill="#F2F2F2"/>
<path d="M7.78665 20.2845C10.4671 20.2845 12.64 18.1116 12.64 15.4312C12.64 12.7508 10.4671 10.5779 7.78665 10.5779C5.10623 10.5779 2.93332 12.7508 2.93332 15.4312C2.93332 18.1116 5.10623 20.2845 7.78665 20.2845Z" fill="url(#paint1_linear_855_68142)"/>
<path opacity="0.55" d="M14.8622 24.3022C14.8629 23.8808 14.9482 23.4638 15.1131 23.0759C15.278 22.6881 15.5192 22.3373 15.8222 22.0445C14.1833 21.1461 12.6708 20.0342 11.3245 18.7378C10.621 19.4989 9.69303 20.0158 8.67557 20.2133C9.47758 21.0343 10.3392 21.7949 11.2533 22.4889C12.3916 23.3484 13.6124 24.0928 14.8978 24.7111C14.8772 24.5757 14.8653 24.4392 14.8622 24.3022Z" fill="#F2F2F2"/>
<path opacity="0.55" d="M26.0622 24.6756C24.4102 24.6766 22.7636 24.4857 21.1556 24.1067C21.1644 24.1716 21.1644 24.2374 21.1556 24.3022C21.1568 24.7113 21.0773 25.1165 20.9217 25.4947C20.7661 25.873 20.5375 26.2169 20.2489 26.5067C22.2497 26.9031 24.2924 27.0465 26.3289 26.9334C27.1189 26.2189 27.8283 25.42 28.4445 24.5511C27.6535 24.6389 26.8581 24.6805 26.0622 24.6756Z" fill="#F2F2F2"/>
<path d="M18.0089 27.4666C19.7566 27.4666 21.1733 26.0498 21.1733 24.3021C21.1733 22.5545 19.7566 21.1377 18.0089 21.1377C16.2612 21.1377 14.8445 22.5545 14.8445 24.3021C14.8445 26.0498 16.2612 27.4666 18.0089 27.4666Z" fill="url(#paint2_linear_855_68142)"/>
<path opacity="0.7" d="M21.9022 15.8755C22.0592 15.1801 22.4402 14.5555 22.9867 14.0977C20.0594 11.9697 17.3975 9.49877 15.0578 6.73774C13.6943 5.13651 12.5026 3.39661 11.5022 1.54663C10.8382 1.7457 10.1904 1.99532 9.56445 2.2933C10.635 4.30762 11.9162 6.20267 13.3867 7.94663C15.8859 10.9321 18.7463 13.5954 21.9022 15.8755Z" fill="#F2F2F2"/>
<path d="M25.2089 19.8401C27.0646 19.8401 28.5689 18.3358 28.5689 16.4801C28.5689 14.6244 27.0646 13.1201 25.2089 13.1201C23.3532 13.1201 21.8489 14.6244 21.8489 16.4801C21.8489 18.3358 23.3532 19.8401 25.2089 19.8401Z" fill="url(#paint3_linear_855_68142)"/>
<path opacity="0.55" d="M30.8445 18.7377L30.2222 18.4355L29.6889 18.151H29.5822L29.12 17.7777H28.9956L28.4444 17.4221C28.2535 18.0767 27.854 18.651 27.3067 19.0577C27.52 19.1999 27.7511 19.3243 27.9822 19.4488L28.1244 19.5377L28.7467 19.8755L30.2756 20.6755C30.491 20.0298 30.6632 19.3706 30.7911 18.7021L30.8445 18.7377Z" fill="#F2F2F2"/>
<path d="M7.78665 20.2845C10.4671 20.2845 12.64 18.1116 12.64 15.4312C12.64 12.7508 10.4671 10.5779 7.78665 10.5779C5.10623 10.5779 2.93332 12.7508 2.93332 15.4312C2.93332 18.1116 5.10623 20.2845 7.78665 20.2845Z" fill="url(#paint4_linear_855_68142)"/>
<path d="M18.0089 27.4666C19.7566 27.4666 21.1733 26.0498 21.1733 24.3021C21.1733 22.5545 19.7566 21.1377 18.0089 21.1377C16.2612 21.1377 14.8445 22.5545 14.8445 24.3021C14.8445 26.0498 16.2612 27.4666 18.0089 27.4666Z" fill="url(#paint5_linear_855_68142)"/>
</g>
<defs>
<radialGradient id="paint0_radial_855_68142" cx="0" cy="0" r="1" gradientUnits="userSpaceOnUse" gradientTransform="translate(15.9849 15.9983) scale(15.112 15.112)">
<stop offset="0.18" stop-color="#5EA0EF"/>
<stop offset="1" stop-color="#0078D4"/>
</radialGradient>
<linearGradient id="paint1_linear_855_68142" x1="7.82221" y1="20.409" x2="7.76887" y2="13.3868" gradientUnits="userSpaceOnUse">
<stop stop-color="#CCCCCC"/>
<stop offset="1" stop-color="#FCFCFC"/>
</linearGradient>
<linearGradient id="paint2_linear_855_68142" x1="18.0089" y1="27.4666" x2="18.0089" y2="21.1555" gradientUnits="userSpaceOnUse">
<stop stop-color="#CCCCCC"/>
<stop offset="1" stop-color="#FCFCFC"/>
</linearGradient>
<linearGradient id="paint3_linear_855_68142" x1="25.2089" y1="19.8223" x2="25.2089" y2="13.1201" gradientUnits="userSpaceOnUse">
<stop stop-color="#CCCCCC"/>
<stop offset="1" stop-color="#FCFCFC"/>
</linearGradient>
<linearGradient id="paint4_linear_855_68142" x1="7.82221" y1="20.409" x2="7.76887" y2="13.3868" gradientUnits="userSpaceOnUse">
<stop stop-color="#CCCCCC"/>
<stop offset="1" stop-color="#FCFCFC"/>
</linearGradient>
<linearGradient id="paint5_linear_855_68142" x1="18.0089" y1="27.4666" x2="18.0089" y2="21.1555" gradientUnits="userSpaceOnUse">
<stop stop-color="#CCCCCC"/>
<stop offset="1" stop-color="#FCFCFC"/>
</linearGradient>
<clipPath id="clip0_855_68142">
<rect width="32" height="32" fill="white"/>
</clipPath>
</defs>
</svg>
