<svg width="32" height="32" viewBox="0 0 32 32" fill="none" xmlns="http://www.w3.org/2000/svg">
<g clip-path="url(#clip0_855_68162)">
<path d="M16 31.1111C24.3456 31.1111 31.1111 24.3457 31.1111 16C31.1111 7.65439 24.3456 0.888916 16 0.888916C7.65436 0.888916 0.888885 7.65439 0.888885 16C0.888885 24.3457 7.65436 31.1111 16 31.1111Z" fill="url(#paint0_linear_855_68162)"/>
<path d="M13.824 18.9013H18.176V23.2533H13.824V18.9013ZM8.74668 13.0986H13.0987V8.74658H9.35468C9.27477 8.74635 9.1956 8.76192 9.12173 8.79239C9.04786 8.82286 8.98074 8.86764 8.92423 8.92414C8.86773 8.98064 8.82295 9.04776 8.79248 9.12164C8.76201 9.19551 8.74644 9.27468 8.74668 9.35458V13.0986ZM9.35468 23.2533H13.0987V18.9013H8.74668V22.6453C8.74644 22.7252 8.76201 22.8043 8.79248 22.8782C8.82295 22.9521 8.86773 23.0192 8.92423 23.0757C8.98074 23.1322 9.04786 23.177 9.12173 23.2074C9.1956 23.2379 9.27477 23.2535 9.35468 23.2533ZM8.74668 18.1759H13.0987V13.8239H8.74668V18.1759ZM18.9013 23.2533H22.6453C22.7253 23.2535 22.8044 23.2379 22.8783 23.2074C22.9522 23.177 23.0193 23.1322 23.0758 23.0757C23.1323 23.0192 23.1771 22.9521 23.2075 22.8782C23.238 22.8043 23.2536 22.7252 23.2533 22.6453V18.9013H18.9013V23.2533ZM13.824 18.1759H18.176V13.8239H13.824V18.1759ZM18.9013 18.1759H23.2533V13.8239H18.9013V18.1759ZM18.9013 8.7537V13.0986H23.2533V9.35458C23.2536 9.27468 23.238 9.19551 23.2075 9.12164C23.1771 9.04776 23.1323 8.98064 23.0758 8.92414C23.0193 8.86764 22.9522 8.82286 22.8783 8.79239C22.8044 8.76192 22.7253 8.74635 22.6453 8.74658L18.9013 8.7537ZM13.824 13.0986H18.176V8.74658H13.824V13.0986Z" fill="white"/>
</g>
<defs>
<linearGradient id="paint0_linear_855_68162" x1="16" y1="31.1111" x2="16" y2="0.888916" gradientUnits="userSpaceOnUse">
<stop stop-color="#005BA1"/>
<stop offset="0.168" stop-color="#0063AE"/>
<stop offset="0.577" stop-color="#0072CA"/>
<stop offset="0.815" stop-color="#0078D4"/>
</linearGradient>
<clipPath id="clip0_855_68162">
<rect width="32" height="32" fill="white"/>
</clipPath>
</defs>
</svg>
