<svg width="32" height="32" viewBox="0 0 32 32" fill="none" xmlns="http://www.w3.org/2000/svg">
<path d="M30.9333 1.21777H1.06667C0.477563 1.21777 0 1.69534 0 2.28444V21.4844C0 22.0735 0.477563 22.5511 1.06667 22.5511H30.9333C31.5224 22.5511 32 22.0735 32 21.4844V2.28444C32 1.69534 31.5224 1.21777 30.9333 1.21777Z" fill="url(#paint0_linear_855_68159)"/>
<path d="M22.4177 29.0044C19.2533 28.5066 19.1289 26.231 19.1289 22.551H12.8533C12.8533 26.231 12.7466 28.5066 9.58219 29.0044C9.14536 29.0527 8.74191 29.2611 8.44972 29.5894C8.15753 29.9177 7.99731 30.3426 7.99997 30.7821H24C24.0026 30.3426 23.8424 29.9177 23.5502 29.5894C23.258 29.2611 22.8546 29.0527 22.4177 29.0044Z" fill="url(#paint1_linear_855_68159)"/>
<path opacity="0.8" d="M17.9716 3.87371C17.9088 3.85795 17.8435 3.85472 17.7794 3.86419C17.7154 3.87367 17.6538 3.89566 17.5983 3.92893C17.5427 3.96219 17.4943 4.00607 17.4557 4.05806C17.4171 4.11005 17.3891 4.16913 17.3734 4.23194C17.3576 4.29474 17.3544 4.36003 17.3638 4.42408C17.3733 4.48813 17.3953 4.54969 17.4286 4.60524C17.4618 4.66079 17.5057 4.70924 17.5577 4.74783C17.6097 4.78642 17.6688 4.8144 17.7316 4.83016C19.2265 5.2001 20.5662 6.03329 21.5591 7.21057C22.552 8.38786 23.1472 9.84894 23.2595 11.3849C23.3719 12.9208 22.9958 14.453 22.1848 15.7623C21.3739 17.0715 20.1697 18.0909 18.7446 18.6745C17.3194 19.2581 15.7461 19.3761 14.2498 19.0116C12.7535 18.6472 11.4107 17.8189 10.4136 16.6453C9.41637 15.4716 8.81584 14.0128 8.69782 12.4772C8.5798 10.9417 8.95034 9.40817 9.75646 8.09593L9.9538 8.23282L11.3387 9.19816C11.3515 9.19887 11.3643 9.1967 11.3761 9.19179C11.388 9.18687 11.3986 9.17936 11.4071 9.16979C11.4157 9.16022 11.4219 9.14886 11.4255 9.13653C11.429 9.12421 11.4297 9.11124 11.4276 9.0986L11.1022 5.3226C11.0983 5.30051 11.0859 5.28085 11.0676 5.26788C11.0493 5.2549 11.0266 5.24965 11.0045 5.25327L7.46669 6.39993C7.45411 6.40251 7.44228 6.4079 7.43207 6.41569C7.42186 6.42347 7.41355 6.43346 7.40774 6.44491C7.40193 6.45636 7.39877 6.46897 7.39852 6.48181C7.39826 6.49464 7.4009 6.50737 7.40624 6.51905L8.8658 7.48082L8.94757 7.53593C8.02949 9.01747 7.6035 10.7514 7.73054 12.4897C7.85758 14.228 8.53115 15.8816 9.65487 17.2139C10.7786 18.5462 12.2949 19.489 13.9869 19.9074C15.6789 20.3257 17.4598 20.1982 19.075 19.5432C20.6901 18.8881 22.0567 17.7389 22.9792 16.2602C23.9017 14.7814 24.3329 13.0487 24.211 11.31C24.0892 9.57138 23.4206 7.91579 22.3008 6.58012C21.1811 5.24445 19.6676 4.29714 17.9769 3.87371H17.9716Z" fill="white"/>
<path d="M19.8809 10.3112L19.2871 9.28189L19.6089 7.40456L18.0996 6.53345L16.6347 7.75123H15.4471L13.9822 6.53345L12.4729 7.40456L12.8 9.289L12.2009 10.3112L10.4142 10.9708V12.7148L12.2009 13.3743L12.7947 14.4019L12.4729 16.2881L13.9822 17.1592L15.4471 15.9414H16.6347L18.0996 17.1592L19.6089 16.2881L19.2871 14.409L19.8809 13.3814L21.6676 12.7219V10.9779L19.8809 10.3112ZM16.0409 14.4819C15.5199 14.4833 15.0101 14.3301 14.5762 14.0416C14.1423 13.7532 13.8037 13.3425 13.6034 12.8615C13.403 12.3805 13.3499 11.8509 13.4506 11.3397C13.5514 10.8285 13.8016 10.3587 14.1696 9.9898C14.5375 9.62087 15.0066 9.36941 15.5175 9.26724C16.0285 9.16507 16.5582 9.21679 17.0397 9.41586C17.5212 9.61492 17.9328 9.95238 18.2225 10.3855C18.5121 10.8186 18.6667 11.328 18.6667 11.849C18.6667 12.5461 18.3903 13.2147 17.8981 13.7082C17.4058 14.2018 16.738 14.48 16.0409 14.4819Z" fill="white"/>
<defs>
<linearGradient id="paint0_linear_855_68159" x1="16" y1="22.5511" x2="16" y2="1.21777" gradientUnits="userSpaceOnUse">
<stop stop-color="#0078D4"/>
<stop offset="0.8" stop-color="#5EA0EF"/>
</linearGradient>
<linearGradient id="paint1_linear_855_68159" x1="16" y1="30.7821" x2="16" y2="22.551" gradientUnits="userSpaceOnUse">
<stop stop-color="#CCCCCC"/>
<stop offset="1" stop-color="#707070"/>
</linearGradient>
</defs>
</svg>
