<svg width="32" height="32" viewBox="0 0 32 32" fill="none" xmlns="http://www.w3.org/2000/svg">
<g clip-path="url(#clip0_855_68155)">
<path d="M7.27114 0.888916H3.76892V1.90225H7.27114V0.888916Z" fill="#0078D4"/>
<path d="M29.5645 1.90225H30.1333V2.45336H31.1111V0.888916H29.5645V1.90225Z" fill="#0078D4"/>
<path d="M2.50669 30.0267H2.00892V29.4578H0.888916V31.1111H2.50669V30.0267Z" fill="#0078D4"/>
<path d="M30.1333 29.5112V30.0268H29.5645V31.1112H31.1111V29.5112H30.1333Z" fill="#0078D4"/>
<path d="M2.00892 2.4178V1.90225H2.50669V0.888916H0.888916V2.4178H2.00892Z" fill="#0078D4"/>
<path d="M21.1023 6.31104H6.50671C6.22197 6.31104 5.99115 6.54186 5.99115 6.82659V16.2488C5.99115 16.5335 6.22197 16.7644 6.50671 16.7644H21.1023C21.387 16.7644 21.6178 16.5335 21.6178 16.2488V6.82659C21.6178 6.54186 21.387 6.31104 21.1023 6.31104Z" fill="#0078D4"/>
<path d="M16.4089 10.0266V13.0666L13.8134 14.5955V11.5377L16.4089 10.0266Z" fill="#50E6FF"/>
<path d="M16.4089 10.0267L13.8133 11.5556L11.2 10.0267L13.8133 8.4978L16.4089 10.0267Z" fill="#C3F1FF"/>
<path d="M13.8133 11.5555V14.5955L11.2 13.0666V10.0266L13.8133 11.5555Z" fill="#9CEBFF"/>
<path d="M25.6178 12.1423H11.0223C10.7375 12.1423 10.5067 12.3732 10.5067 12.6579V22.0801C10.5067 22.3648 10.7375 22.5957 11.0223 22.5957H25.6178C25.9026 22.5957 26.1334 22.3648 26.1334 22.0801V12.6579C26.1334 12.3732 25.9026 12.1423 25.6178 12.1423Z" fill="url(#paint0_linear_855_68155)"/>
<path d="M20.9245 15.8401V18.8801L18.3289 20.409V17.369L20.9245 15.8401Z" fill="#50E6FF"/>
<path d="M20.9245 15.8402L18.3289 17.3691L15.7156 15.8402L18.3289 14.3113L20.9245 15.8402Z" fill="#C3F1FF"/>
<path d="M18.3289 17.369V20.409L15.7156 18.8801V15.8401L18.3289 17.369Z" fill="#9CEBFF"/>
<path d="M15.7156 18.8803L18.3289 17.3691V20.4091L15.7156 18.8803Z" fill="#C3F1FF"/>
<path d="M20.9245 18.8803L18.3289 17.3691V20.4091L20.9245 18.8803Z" fill="#9CEBFF"/>
<path d="M21.4578 25.7423C19.9112 25.4934 19.8578 24.3734 19.8578 22.5779H16.7823C16.7823 24.3557 16.7823 25.4934 15.1823 25.7423C14.9732 25.7755 14.7823 25.8807 14.6427 26.0398C14.5031 26.1989 14.4235 26.4018 14.4178 26.6134H22.2401C22.2337 26.3992 22.1516 26.1942 22.0084 26.0347C21.8652 25.8752 21.6702 25.7716 21.4578 25.7423Z" fill="url(#paint1_linear_855_68155)"/>
<path d="M12.5156 0.888916H9.01337V1.90225H12.5156V0.888916Z" fill="#0078D4"/>
<path d="M17.7423 0.888916H14.2401V1.90225H17.7423V0.888916Z" fill="#0078D4"/>
<path d="M22.9867 0.888916H19.4845V1.90225H22.9867V0.888916Z" fill="#0078D4"/>
<path d="M28.2312 0.888916H24.7289V1.90225H28.2312V0.888916Z" fill="#0078D4"/>
<path d="M7.30667 30.0266H3.80444V31.0399H7.30667V30.0266Z" fill="#0078D4"/>
<path d="M12.5334 30.0266H9.03113V31.0399H12.5334V30.0266Z" fill="#0078D4"/>
<path d="M17.7778 30.0266H14.2756V31.0399H17.7778V30.0266Z" fill="#0078D4"/>
<path d="M23.0222 30.0266H19.52V31.0399H23.0222V30.0266Z" fill="#0078D4"/>
<path d="M28.2489 30.0266H24.7467V31.0399H28.2489V30.0266Z" fill="#0078D4"/>
<path d="M31.1111 3.64453H30.0978V7.14675H31.1111V3.64453Z" fill="#0078D4"/>
<path d="M31.1111 8.87109H30.0978V12.3733H31.1111V8.87109Z" fill="#0078D4"/>
<path d="M31.1111 14.1155H30.0978V17.6177H31.1111V14.1155Z" fill="#0078D4"/>
<path d="M31.1111 19.3423H30.0978V22.8445H31.1111V19.3423Z" fill="#0078D4"/>
<path d="M31.1111 24.5867H30.0978V28.0889H31.1111V24.5867Z" fill="#0078D4"/>
<path d="M1.90225 3.60889H0.888916V7.11111H1.90225V3.60889Z" fill="#0078D4"/>
<path d="M1.90225 8.85327H0.888916V12.3555H1.90225V8.85327Z" fill="#0078D4"/>
<path d="M1.90225 14.0801H0.888916V17.5823H1.90225V14.0801Z" fill="#0078D4"/>
<path d="M1.90225 19.3245H0.888916V22.8267H1.90225V19.3245Z" fill="#0078D4"/>
<path d="M1.90225 24.551H0.888916V28.0532H1.90225V24.551Z" fill="#0078D4"/>
</g>
<defs>
<linearGradient id="paint0_linear_855_68155" x1="18.3289" y1="22.5779" x2="18.3289" y2="12.1423" gradientUnits="userSpaceOnUse">
<stop stop-color="#0078D4"/>
<stop offset="0.82" stop-color="#5EA0EF"/>
</linearGradient>
<linearGradient id="paint1_linear_855_68155" x1="18.329" y1="26.6134" x2="18.329" y2="22.5779" gradientUnits="userSpaceOnUse">
<stop offset="0.15" stop-color="#CCCCCC"/>
<stop offset="1" stop-color="#707070"/>
</linearGradient>
<clipPath id="clip0_855_68155">
<rect width="32" height="32" fill="white"/>
</clipPath>
</defs>
</svg>
