<svg width="32" height="32" viewBox="0 0 32 32" fill="none" xmlns="http://www.w3.org/2000/svg">
<g clip-path="url(#clip0_855_68156)">
<path d="M13.9645 4.49067H12.8836C12.6819 4.49068 12.4883 4.41118 12.3449 4.2694C12.2014 4.12762 12.1197 3.935 12.1173 3.73333V0.766222C12.1173 0.563007 12.1981 0.368116 12.3418 0.224421C12.4855 0.0807267 12.6804 0 12.8836 0L13.9645 0C14.065 -2.71869e-07 14.1645 0.0198314 14.2574 0.0583595C14.3503 0.0968875 14.4346 0.153355 14.5056 0.224529C14.5766 0.295702 14.6329 0.380184 14.6712 0.473136C14.7095 0.566088 14.7291 0.665684 14.7289 0.766222V3.73333C14.727 3.93484 14.6457 4.12746 14.5025 4.26929C14.3593 4.41111 14.166 4.49068 13.9645 4.49067ZM19.5182 3.73333V0.766222C19.5182 0.563007 19.4375 0.368116 19.2938 0.224421C19.1501 0.0807267 18.9552 0 18.752 0H17.6729C17.5723 0 17.4726 0.0198189 17.3797 0.0583252C17.2867 0.0968315 17.2022 0.153271 17.1311 0.224421C17.0599 0.295572 17.0035 0.380039 16.965 0.473002C16.9265 0.565964 16.9067 0.6656 16.9067 0.766222V3.73333C16.9067 3.93655 16.9874 4.13144 17.1311 4.27513C17.2748 4.41883 17.4697 4.49956 17.6729 4.49956H18.752C18.9552 4.49956 19.1501 4.41883 19.2938 4.27513C19.4375 4.13144 19.5182 3.93655 19.5182 3.73333ZM14.7289 31.3102V29.0453C14.7289 28.8633 14.657 28.6887 14.5288 28.5595C14.4005 28.4303 14.2265 28.357 14.0445 28.3556H12.8C12.7094 28.3556 12.6197 28.3734 12.536 28.4081C12.4524 28.4427 12.3763 28.4935 12.3123 28.5576C12.2482 28.6216 12.1974 28.6977 12.1627 28.7814C12.1281 28.8651 12.1102 28.9548 12.1102 29.0453V31.3102C12.1102 31.4932 12.1829 31.6686 12.3123 31.798C12.4416 31.9273 12.6171 32 12.8 32H14.0445C14.2265 31.9986 14.4005 31.9253 14.5288 31.7961C14.657 31.6669 14.7289 31.4922 14.7289 31.3102ZM19.5182 31.3102V29.0453C19.5182 28.8624 19.4456 28.6869 19.3162 28.5576C19.1868 28.4282 19.0114 28.3556 18.8285 28.3556H17.6C17.4171 28.3556 17.2416 28.4282 17.1123 28.5576C16.9829 28.6869 16.9102 28.8624 16.9102 29.0453V31.3102C16.9102 31.4932 16.9829 31.6686 17.1123 31.798C17.2416 31.9273 17.4171 32 17.6 32H18.832C19.0143 31.9991 19.1889 31.926 19.3175 31.7967C19.446 31.6675 19.5182 31.4925 19.5182 31.3102ZM28.0516 15.1076H31.2107C31.4202 15.1071 31.621 15.0235 31.7689 14.8752C31.9169 14.7269 32 14.526 32 14.3164V13.2622C32 13.0524 31.9167 12.8512 31.7683 12.7028C31.6199 12.5545 31.4187 12.4711 31.2089 12.4711H28.0498C27.84 12.4711 27.6388 12.5545 27.4904 12.7028C27.342 12.8512 27.2587 13.0524 27.2587 13.2622V14.3164C27.2582 14.4206 27.2783 14.5239 27.3179 14.6203C27.3574 14.7167 27.4156 14.8043 27.4891 14.8781C27.5626 14.952 27.65 15.0106 27.7462 15.0506C27.8424 15.0905 27.9456 15.1111 28.0498 15.1111L28.0516 15.1076ZM28.0516 19.9413H31.2107C31.4202 19.9409 31.621 19.8573 31.7689 19.709C31.9169 19.5607 32 19.3597 32 19.1502V18.0942C32 17.9904 31.9795 17.8876 31.9398 17.7917C31.9 17.6959 31.8417 17.6088 31.7682 17.5354C31.6947 17.4621 31.6075 17.404 31.5115 17.3645C31.4155 17.3249 31.3127 17.3047 31.2089 17.3049H28.0498C27.946 17.3047 27.8431 17.3249 27.7472 17.3645C27.6512 17.404 27.564 17.4621 27.4905 17.5354C27.417 17.6088 27.3587 17.6959 27.3189 17.7917C27.2792 17.8876 27.2587 17.9904 27.2587 18.0942V19.1502C27.2587 19.36 27.342 19.5613 27.4904 19.7096C27.6388 19.858 27.84 19.9413 28.0498 19.9413H28.0516ZM0.684454 15.1111H2.87112C2.9613 15.1111 3.0506 15.0933 3.13387 15.0587C3.21714 15.0241 3.29275 14.9733 3.35636 14.9094C3.41996 14.8455 3.4703 14.7696 3.50449 14.6861C3.53868 14.6027 3.55603 14.5133 3.55556 14.4231V13.1556C3.55556 12.974 3.48345 12.7999 3.3551 12.6716C3.22674 12.5432 3.05265 12.4711 2.87112 12.4711H0.684454C0.502928 12.4711 0.328837 12.5432 0.200478 12.6716C0.0721201 12.7999 9.23607e-06 12.974 9.23607e-06 13.1556V14.4231C-0.000459244 14.5133 0.0168987 14.6027 0.0510854 14.6861C0.0852722 14.7696 0.135614 14.8455 0.199217 14.9094C0.26282 14.9733 0.338431 15.0241 0.421704 15.0587C0.504978 15.0933 0.594271 15.1111 0.684454 15.1111ZM0.684454 19.9449H2.87112C2.9613 19.9449 3.0506 19.9271 3.13387 19.8925C3.21714 19.8578 3.29275 19.8071 3.35636 19.7432C3.41996 19.6792 3.4703 19.6034 3.50449 19.5199C3.53868 19.4365 3.55603 19.3471 3.55556 19.2569V17.9893C3.55556 17.8078 3.48345 17.6337 3.3551 17.5054C3.22674 17.377 3.05265 17.3049 2.87112 17.3049H0.684454C0.502928 17.3049 0.328837 17.377 0.200478 17.5054C0.0721201 17.6337 9.23607e-06 17.8078 9.23607e-06 17.9893V19.2569C9.23607e-06 19.4384 0.0721201 19.6125 0.200478 19.7409C0.328837 19.8692 0.502928 19.9413 0.684454 19.9413V19.9449Z" fill="#773ADC"/>
<path d="M26.9884 3.35474H4.64709C3.78307 3.35474 3.08264 4.05516 3.08264 4.91918V27.4934C3.08264 28.3574 3.78307 29.0578 4.64709 29.0578H26.9884C27.8524 29.0578 28.5529 28.3574 28.5529 27.4934V4.91918C28.5529 4.05516 27.8524 3.35474 26.9884 3.35474Z" fill="url(#paint0_linear_855_68156)"/>
<path d="M21.5057 12.7964V19.2035L16.0071 22.4213V15.9999L21.5057 12.7964Z" fill="#50E6FF"/>
<path d="M21.5058 12.7964L16.0071 16.0142L10.4942 12.7964L16.0071 9.57861L21.5058 12.7964Z" fill="#C3F1FF"/>
<path d="M16.0071 16.0142V22.4213L10.4942 19.2035V12.7964L16.0071 16.0142Z" fill="#9CEBFF"/>
<path d="M10.4942 19.2036L16.0071 16V22.4213L10.4942 19.2036Z" fill="#C3F1FF"/>
<path d="M21.5057 19.2036L16.0071 16V22.4213L21.5057 19.2036Z" fill="#9CEBFF"/>
</g>
<defs>
<linearGradient id="paint0_linear_855_68156" x1="15.8186" y1="29.0578" x2="15.8186" y2="3.35474" gradientUnits="userSpaceOnUse">
<stop offset="0.001" stop-color="#773ADC"/>
<stop offset="1" stop-color="#A67AF4"/>
</linearGradient>
<clipPath id="clip0_855_68156">
<rect width="32" height="32" fill="white"/>
</clipPath>
</defs>
</svg>
