<svg width="32" height="32" viewBox="0 0 32 32" fill="none" xmlns="http://www.w3.org/2000/svg">
<g clip-path="url(#clip0_855_68147)">
<path d="M13.04 13.0613H3.43109C3.29624 13.0613 3.16692 13.0078 3.07157 12.9124C2.97621 12.8171 2.92265 12.6877 2.92265 12.5529V3.45245C2.92265 3.3176 2.97621 3.18827 3.07157 3.09292C3.16692 2.99757 3.29624 2.944 3.43109 2.944H12.5315C12.6664 2.944 12.7957 2.99757 12.8911 3.09292C12.9864 3.18827 13.04 3.3176 13.04 3.45245V13.0613ZM15.0755 15.0951V1.42223C15.076 1.35507 15.0632 1.28849 15.0379 1.22629C15.0126 1.16409 14.9752 1.1075 14.928 1.05977C14.8807 1.01204 14.8246 0.974102 14.7626 0.948134C14.7007 0.922166 14.6342 0.90868 14.5671 0.908447H1.39731C1.33016 0.90868 1.26371 0.922166 1.20178 0.948134C1.13985 0.974102 1.08366 1.01204 1.03642 1.05977C0.989181 1.1075 0.951832 1.16409 0.926512 1.22629C0.901192 1.28849 0.888399 1.35507 0.888867 1.42223V14.5867C0.888867 14.7215 0.942436 14.8508 1.03779 14.9462C1.13314 15.0415 1.26246 15.0951 1.39731 15.0951H15.0755Z" fill="url(#paint0_linear_855_68147)"/>
<path d="M18.96 13.0614V3.46144C18.96 3.32659 19.0136 3.19727 19.1089 3.10192C19.2043 3.00657 19.3336 2.953 19.4684 2.953H28.5689C28.6357 2.953 28.7018 2.96615 28.7635 2.9917C28.8251 3.01725 28.8812 3.0547 28.9284 3.10192C28.9756 3.14913 29.0131 3.20518 29.0386 3.26687C29.0642 3.32856 29.0773 3.39467 29.0773 3.46144V12.553C29.0773 12.6198 29.0642 12.6859 29.0386 12.7476C29.0131 12.8093 28.9756 12.8653 28.9284 12.9125C28.8812 12.9597 28.8251 12.9972 28.7635 13.0227C28.7018 13.0483 28.6357 13.0614 28.5689 13.0614H18.96ZM16.9244 15.0952H30.6027C30.7375 15.0952 30.8668 15.0417 30.9622 14.9463C31.0575 14.8509 31.1111 14.7216 31.1111 14.5868V1.42233C31.1111 1.28732 31.0576 1.15781 30.9623 1.06218C30.867 0.966543 30.7377 0.91258 30.6027 0.912109H17.4329C17.2979 0.91258 17.1686 0.966543 17.0732 1.06218C16.9779 1.15781 16.9244 1.28732 16.9244 1.42233V15.0952Z" fill="url(#paint1_linear_855_68147)"/>
<path d="M18.96 18.9386H28.5689C28.6357 18.9386 28.7018 18.9517 28.7635 18.9773C28.8251 19.0028 28.8812 19.0403 28.9284 19.0875C28.9756 19.1347 29.0131 19.1907 29.0386 19.2524C29.0642 19.3141 29.0773 19.3802 29.0773 19.447V28.5475C29.0773 28.6142 29.0642 28.6803 29.0386 28.742C29.0131 28.8037 28.9756 28.8598 28.9284 28.907C28.8812 28.9542 28.8251 28.9916 28.7635 29.0172C28.7018 29.0427 28.6357 29.0559 28.5689 29.0559H19.4684C19.3336 29.0559 19.2043 29.0023 19.1089 28.907C19.0136 28.8116 18.96 28.6823 18.96 28.5475V18.9475M16.9244 16.9048V30.5777C16.9244 30.7127 16.9779 30.8422 17.0732 30.9378C17.1686 31.0335 17.2979 31.0874 17.4329 31.0879H30.6027C30.7377 31.0874 30.867 31.0335 30.9623 30.9378C31.0576 30.8422 31.1111 30.7127 31.1111 30.5777V17.4221C31.1111 17.2873 31.0575 17.1579 30.9622 17.0626C30.8668 16.9672 30.7375 16.9137 30.6027 16.9137L16.9244 16.9048Z" fill="url(#paint2_linear_855_68147)"/>
<path d="M13.04 18.9386V28.5386C13.04 28.6053 13.0268 28.6714 13.0013 28.7331C12.9757 28.7948 12.9383 28.8509 12.8911 28.8981C12.8439 28.9453 12.7878 28.9828 12.7261 29.0083C12.6644 29.0339 12.5983 29.047 12.5315 29.047H3.43109C3.36432 29.047 3.29821 29.0339 3.23652 29.0083C3.17483 28.9828 3.11878 28.9453 3.07157 28.8981C3.02436 28.8509 2.9869 28.7948 2.96135 28.7331C2.9358 28.6714 2.92265 28.6053 2.92265 28.5386V19.447C2.92265 19.3122 2.97622 19.1828 3.07157 19.0875C3.16692 18.9921 3.29625 18.9386 3.43109 18.9386H13.04ZM15.0755 16.9048H1.39732C1.32979 16.9048 1.26294 16.9182 1.20067 16.9443C1.13839 16.9704 1.08194 17.0087 1.03461 17.0568C0.987281 17.105 0.950016 17.1621 0.924993 17.2248C0.899971 17.2875 0.887691 17.3546 0.888872 17.4221V30.5777C0.888871 30.7127 0.942382 30.8422 1.03768 30.9378C1.13298 31.0335 1.26231 31.0874 1.39732 31.0879H14.5671C14.7021 31.0874 14.8314 31.0335 14.9267 30.9378C15.022 30.8422 15.0755 30.7127 15.0755 30.5777V16.9048Z" fill="url(#paint3_linear_855_68147)"/>
<path d="M26.4889 14.6132C26.336 11.6423 25.7163 8.71401 24.6525 5.93589C24.3882 6.55661 24.0523 7.1443 23.6516 7.687C21.7304 5.81777 19.1569 4.77012 16.4765 4.76611C14.4958 4.76576 12.5594 5.35279 10.9124 6.45295C9.2653 7.55311 7.98148 9.117 7.22325 10.9468C6.46503 12.7767 6.26646 14.7902 6.65266 16.7329C7.03886 18.6756 7.99248 20.4601 9.39292 21.8608C10.7934 23.2615 12.5777 24.2155 14.5203 24.602C16.463 24.9886 18.4766 24.7903 20.3065 24.0324C22.1365 23.2745 23.7006 21.991 24.8011 20.3441C25.9015 18.6973 26.4889 16.761 26.4889 14.7803V14.6132Z" fill="#5FB832"/>
<path d="M24.5707 19.2869C22.0676 22.5402 16.8107 21.4558 13.4738 21.6229C13.0825 21.6265 12.6918 21.6544 12.304 21.7064L12.8053 21.5393C14.4838 21.0664 16.1284 20.4808 17.728 19.7864C19.2116 19.0321 20.5113 17.9611 21.5352 16.649C22.5591 15.337 23.2822 13.8159 23.6533 12.1935C23.0253 13.7398 22.0755 15.1348 20.8669 16.2858C19.6583 17.4367 18.2187 18.3173 16.6436 18.8691C14.8425 19.4732 13.0009 19.9484 11.1325 20.2913L10.9653 20.2078C8.54934 19.0362 8.46578 13.7793 12.8 12.11C14.72 11.3598 16.5547 11.7758 18.6418 11.2762C19.8575 10.9806 21.0015 10.4439 22.0059 9.69784C23.0103 8.95179 23.8547 8.01162 24.4889 6.93311C25.7404 10.5242 27.0756 15.9482 24.5707 19.2869ZM10.4693 22.5402C10.6342 22.5399 10.7952 22.4907 10.9321 22.3988C11.069 22.307 11.1755 22.1767 11.2384 22.0243C11.3012 21.8719 11.3175 21.7043 11.2851 21.5427C11.2527 21.3811 11.1732 21.2327 11.0565 21.1162C10.9398 20.9998 10.7913 20.9206 10.6296 20.8886C10.4679 20.8565 10.3003 20.8731 10.1481 20.9363C9.99583 20.9995 9.86572 21.1063 9.77418 21.2434C9.68264 21.3805 9.63379 21.5416 9.63379 21.7064C9.63378 21.8161 9.65541 21.9246 9.69742 22.0259C9.73943 22.1272 9.80101 22.2192 9.87862 22.2966C9.95623 22.3741 10.0484 22.4355 10.1497 22.4773C10.2511 22.5191 10.3597 22.5404 10.4693 22.5402Z" fill="white"/>
</g>
<defs>
<linearGradient id="paint0_linear_855_68147" x1="-0.458688" y1="-0.401775" x2="15.5146" y2="15.5022" gradientUnits="userSpaceOnUse">
<stop offset="0.059" stop-color="#0086EC"/>
<stop offset="1" stop-color="#004DAE"/>
</linearGradient>
<linearGradient id="paint1_linear_855_68147" x1="16.1138" y1="15.609" x2="31.0987" y2="1.18944" gradientUnits="userSpaceOnUse">
<stop stop-color="#004DAE"/>
<stop offset="0.941" stop-color="#0086EC"/>
</linearGradient>
<linearGradient id="paint2_linear_855_68147" x1="15.7564" y1="15.1092" x2="31.5911" y2="32.1439" gradientUnits="userSpaceOnUse">
<stop offset="0.059" stop-color="#0086EC"/>
<stop offset="1" stop-color="#004DAE"/>
</linearGradient>
<linearGradient id="paint3_linear_855_68147" x1="15.3653" y1="16.2897" x2="0.876428" y2="31.4168" gradientUnits="userSpaceOnUse">
<stop offset="0.059" stop-color="#0086EC"/>
<stop offset="1" stop-color="#004DAE"/>
</linearGradient>
<clipPath id="clip0_855_68147">
<rect width="32" height="32" fill="white"/>
</clipPath>
</defs>
</svg>
