<svg width="32" height="32" viewBox="0 0 32 32" fill="none" xmlns="http://www.w3.org/2000/svg">
<path d="M28.0533 15.8045L31.3778 12.4445C31.6445 12.16 31.5556 11.9289 31.1467 11.9289H29.4933C29.4381 11.9289 29.3835 11.9178 29.3327 11.8962C29.2818 11.8745 29.236 11.8428 29.1977 11.8029C29.1595 11.763 29.1298 11.7158 29.1103 11.6642C29.0909 11.6125 29.0821 11.5574 29.0845 11.5022C29.0845 9.40445 28.5511 3.55556 20.5511 3.36001C20.4959 3.3576 20.4409 3.36641 20.3892 3.38588C20.3375 3.40535 20.2903 3.43508 20.2504 3.4733C20.2106 3.51151 20.1788 3.5574 20.1572 3.6082C20.1355 3.65901 20.1244 3.71367 20.1245 3.76889V5.79556C20.1242 5.85239 20.1359 5.90863 20.1586 5.96071C20.1813 6.01278 20.2147 6.05955 20.2565 6.09802C20.2983 6.1365 20.3477 6.16583 20.4015 6.18416C20.4553 6.20248 20.5123 6.20939 20.5689 6.20445C21.3301 6.03481 22.1208 6.04973 22.8751 6.24797C23.6294 6.44621 24.3252 6.82202 24.9047 7.34402C25.4841 7.86601 25.9302 8.51905 26.2058 9.24861C26.4814 9.97817 26.5785 10.7631 26.4889 11.5378C26.4913 11.593 26.4825 11.648 26.463 11.6997C26.4436 11.7514 26.4138 11.7986 26.3756 11.8385C26.3374 11.8783 26.2915 11.9101 26.2407 11.9317C26.1899 11.9534 26.1352 11.9645 26.08 11.9645H24.5333C24.1245 11.9645 24.0356 12.1956 24.3022 12.4978L27.3956 15.8756C27.4406 15.9201 27.495 15.954 27.5548 15.9749C27.6147 15.9958 27.6784 16.0031 27.7413 15.9963C27.8043 15.9895 27.865 15.9687 27.919 15.9356C27.9729 15.9024 28.0188 15.8576 28.0533 15.8045Z" fill="#949494"/>
<path d="M22.5955 0.604492H2.4711C1.91145 0.604492 1.45776 1.05818 1.45776 1.61783V14.9512C1.45776 15.5108 1.91145 15.9645 2.4711 15.9645H22.5955C23.1552 15.9645 23.6089 15.5108 23.6089 14.9512V1.61783C23.6089 1.05818 23.1552 0.604492 22.5955 0.604492Z" fill="url(#paint0_linear_855_68145)"/>
<path d="M2.45332 0.604492H22.88C22.9757 0.604492 23.0705 0.623345 23.1589 0.659976C23.2474 0.696606 23.3277 0.750295 23.3954 0.817979C23.4631 0.885662 23.5168 0.966014 23.5534 1.05445C23.59 1.14288 23.6089 1.23766 23.6089 1.33338V4.26671H1.45776V1.61783C1.45772 1.35212 1.56204 1.09704 1.74825 0.907504C1.93446 0.71797 2.18766 0.609154 2.45332 0.604492Z" fill="#83B9F9"/>
<path d="M23.6089 4.2666H1.45776V6.71993H23.6089V4.2666Z" fill="url(#paint1_linear_855_68145)"/>
<path d="M31.04 19.4666H18.24C17.8865 19.4666 17.6 19.7531 17.6 20.1066V28.5866C17.6 28.94 17.8865 29.2266 18.24 29.2266H31.04C31.3935 29.2266 31.68 28.94 31.68 28.5866V20.1066C31.68 19.7531 31.3935 19.4666 31.04 19.4666Z" fill="#005BA1"/>
<path d="M4.63999 5.67115H20.4089C20.4955 5.67103 20.5788 5.70417 20.6417 5.76372C20.7045 5.82327 20.7421 5.90468 20.7467 5.99115V7.64448C20.7378 7.72777 20.6984 7.80481 20.636 7.86066C20.5736 7.9165 20.4926 7.94717 20.4089 7.9467H4.63999C4.59796 7.9491 4.55586 7.94318 4.51611 7.92928C4.47637 7.91538 4.43975 7.89378 4.40838 7.8657C4.377 7.83763 4.35147 7.80363 4.33325 7.76567C4.31503 7.72771 4.30449 7.68653 4.30222 7.64448V5.99115C4.30215 5.94759 4.31098 5.90447 4.32816 5.86444C4.34534 5.82441 4.37051 5.78831 4.40214 5.75835C4.43376 5.72839 4.47117 5.7052 4.51207 5.69021C4.55297 5.67521 4.5965 5.66873 4.63999 5.67115Z" fill="white"/>
<path d="M4.63999 8.88886H20.4267C20.4678 8.88644 20.509 8.89246 20.5478 8.90656C20.5865 8.92066 20.622 8.94253 20.6519 8.97084C20.6819 8.99915 20.7058 9.0333 20.7221 9.07117C20.7384 9.10905 20.7467 9.14986 20.7467 9.19109V10.8444C20.7467 10.9293 20.7129 11.0107 20.6529 11.0707C20.5929 11.1307 20.5115 11.1644 20.4267 11.1644H4.63999C4.55512 11.1644 4.47373 11.1307 4.41371 11.0707C4.3537 11.0107 4.31999 10.9293 4.31999 10.8444V9.2622C4.30849 9.21551 4.3083 9.16675 4.31942 9.11997C4.33055 9.07319 4.35268 9.02974 4.38398 8.99323C4.41527 8.95673 4.45482 8.92821 4.49935 8.91006C4.54387 8.89191 4.59209 8.88464 4.63999 8.88886Z" fill="white"/>
<path d="M4.64001 12.2488H20.4267C20.5115 12.2488 20.5929 12.2825 20.6529 12.3425C20.713 12.4025 20.7467 12.4839 20.7467 12.5688V14.2221C20.7421 14.3039 20.7064 14.3808 20.6469 14.437C20.5874 14.4932 20.5086 14.5245 20.4267 14.5243H4.64001C4.55813 14.5245 4.47932 14.4932 4.41979 14.437C4.36027 14.3808 4.32456 14.3039 4.32001 14.2221V12.5688C4.32001 12.5268 4.32828 12.4851 4.34437 12.4463C4.36045 12.4075 4.38402 12.3722 4.41373 12.3425C4.44345 12.3128 4.47872 12.2892 4.51755 12.2731C4.55637 12.2571 4.59798 12.2488 4.64001 12.2488Z" fill="white"/>
<path d="M28.7111 17.3689H15.9111C15.5577 17.3689 15.2711 17.6554 15.2711 18.0089V26.4889C15.2711 26.8424 15.5577 27.1289 15.9111 27.1289H28.7111C29.0646 27.1289 29.3511 26.8424 29.3511 26.4889V18.0089C29.3511 17.6554 29.0646 17.3689 28.7111 17.3689Z" fill="#0078D4"/>
<path d="M16 17.3688H28.9778C29.0385 17.3688 29.0986 17.3807 29.1547 17.404C29.2107 17.4272 29.2617 17.4612 29.3046 17.5042C29.3475 17.5471 29.3816 17.598 29.4048 17.6541C29.4281 17.7102 29.44 17.7703 29.44 17.831V19.6088H15.2711V17.9199C15.282 17.8355 15.3096 17.7541 15.3523 17.6806C15.395 17.607 15.452 17.5426 15.5199 17.4913C15.5877 17.44 15.6652 17.4027 15.7476 17.3817C15.83 17.3607 15.9158 17.3563 16 17.3688Z" fill="#83B9F9"/>
<path d="M17.2978 20.6043H27.3244C27.3781 20.6041 27.4298 20.6242 27.4693 20.6604C27.5089 20.6966 27.5333 20.7464 27.5378 20.7999V21.8488C27.5333 21.9022 27.5089 21.952 27.4693 21.9883C27.4298 22.0245 27.3781 22.0445 27.3244 22.0443H17.2978C17.2706 22.0468 17.2433 22.0436 17.2175 22.0349C17.1917 22.0262 17.1679 22.0121 17.1479 21.9937C17.1278 21.9753 17.1118 21.9529 17.1008 21.928C17.0899 21.903 17.0843 21.876 17.0844 21.8488V20.7999C17.0843 20.7726 17.0899 20.7457 17.1008 20.7207C17.1118 20.6957 17.1278 20.6733 17.1479 20.6549C17.1679 20.6365 17.1917 20.6225 17.2175 20.6138C17.2433 20.6051 17.2706 20.6018 17.2978 20.6043Z" fill="white"/>
<path d="M17.2978 22.6844H27.3244C27.3516 22.6819 27.3789 22.6851 27.4047 22.6939C27.4306 22.7026 27.4543 22.7166 27.4744 22.735C27.4944 22.7534 27.5105 22.7758 27.5214 22.8008C27.5323 22.8257 27.5379 22.8527 27.5378 22.88V23.9288C27.5379 23.9561 27.5323 23.9831 27.5214 24.008C27.5105 24.033 27.4944 24.0554 27.4744 24.0738C27.4543 24.0922 27.4306 24.1062 27.4047 24.1149C27.3789 24.1237 27.3516 24.1269 27.3244 24.1244H17.2978C17.2441 24.1246 17.1924 24.1046 17.1529 24.0683C17.1133 24.0321 17.0889 23.9823 17.0844 23.9288V22.88C17.0889 22.8265 17.1133 22.7767 17.1529 22.7405C17.1924 22.7042 17.2441 22.6842 17.2978 22.6844Z" fill="white"/>
<path d="M17.2978 24.7823H27.3244C27.3516 24.7798 27.3789 24.783 27.4047 24.7918C27.4306 24.8005 27.4543 24.8145 27.4744 24.8329C27.4944 24.8513 27.5105 24.8737 27.5214 24.8987C27.5323 24.9236 27.5379 24.9506 27.5378 24.9779V26.0267C27.5379 26.054 27.5323 26.081 27.5214 26.1059C27.5105 26.1309 27.4944 26.1533 27.4744 26.1717C27.4543 26.1901 27.4306 26.2041 27.4047 26.2128C27.3789 26.2216 27.3516 26.2248 27.3244 26.2223H17.2978C17.2441 26.2225 17.1924 26.2025 17.1529 26.1662C17.1133 26.13 17.0889 26.0802 17.0844 26.0267V24.9779C17.0889 24.9244 17.1133 24.8746 17.1529 24.8384C17.1924 24.8021 17.2441 24.7821 17.2978 24.7823Z" fill="white"/>
<defs>
<linearGradient id="paint0_linear_855_68145" x1="12.5333" y1="15.9645" x2="12.5333" y2="0.604492" gradientUnits="userSpaceOnUse">
<stop stop-color="#0078D4"/>
<stop offset="1" stop-color="#5EA0EF"/>
</linearGradient>
<linearGradient id="paint1_linear_855_68145" x1="12.5333" y1="6.71993" x2="12.5333" y2="4.2666" gradientUnits="userSpaceOnUse">
<stop stop-color="#194F9B" stop-opacity="0"/>
<stop offset="0.26" stop-color="#194F9C" stop-opacity="0.01"/>
<stop offset="0.41" stop-color="#18519E" stop-opacity="0.05"/>
<stop offset="0.52" stop-color="#1654A2" stop-opacity="0.11"/>
<stop offset="0.62" stop-color="#1457A7" stop-opacity="0.21"/>
<stop offset="0.71" stop-color="#115CAE" stop-opacity="0.33"/>
<stop offset="0.8" stop-color="#0D62B6" stop-opacity="0.47"/>
<stop offset="0.88" stop-color="#096AC0" stop-opacity="0.65"/>
<stop offset="0.95" stop-color="#0472CB" stop-opacity="0.85"/>
<stop offset="1" stop-color="#0078D4"/>
</linearGradient>
</defs>
</svg>
