<svg width="32" height="32" viewBox="0 0 32 32" fill="none" xmlns="http://www.w3.org/2000/svg">
<g clip-path="url(#clip0_855_68149)">
<path d="M32 18.7556C31.9722 17.0228 31.3293 15.3564 30.1863 14.0538C29.0433 12.7512 27.4745 11.8972 25.76 11.6445C25.6948 9.23016 24.6764 6.93984 22.9275 5.27419C21.1785 3.60853 18.8413 2.70302 16.4267 2.75559C14.4884 2.73574 12.5919 3.31873 10.9994 4.42389C9.40697 5.52905 8.19731 7.10176 7.53778 8.92447C5.46204 9.19524 3.5547 10.2089 2.16885 11.7778C0.783001 13.3467 0.012504 15.3645 0 17.4578C0.0651243 19.7841 1.05095 21.9895 2.74095 23.5895C4.43095 25.1895 6.68692 26.0533 9.01333 25.9911H9.79556H24.3911C24.5213 26.001 24.652 26.001 24.7822 25.9911C26.6895 25.959 28.5095 25.1858 29.8567 23.8353C31.2039 22.4848 31.9726 20.663 32 18.7556Z" fill="url(#paint0_linear_855_68149)"/>
<path d="M9.31557 18.4178C10.0127 18.4178 10.5778 17.8526 10.5778 17.1555C10.5778 16.4584 10.0127 15.8933 9.31557 15.8933C8.61846 15.8933 8.05334 16.4584 8.05334 17.1555C8.05334 17.8526 8.61846 18.4178 9.31557 18.4178Z" fill="#E3E3E3"/>
<path d="M13.76 17.6356V16.6223H13.6178L12.5333 16.2667L12.2489 15.5734L12.8 14.4001L12.0889 13.689H11.9467L10.9333 14.2223L10.24 13.9378L9.79554 12.7112H8.78221V12.8534L8.42665 13.9378L7.67999 14.2223L6.52443 13.6712L5.81332 14.3823V14.5245L6.32888 15.5378L6.04443 16.2312L4.79999 16.6756V17.7778H4.94221L6.02665 18.1334L6.3111 18.8267L5.75999 20.0001L6.4711 20.7112H6.61332L7.62665 20.1956L8.31999 20.4801L8.76443 21.7067H9.77777V21.5645L10.1333 20.4801L10.8267 20.1956L12 20.7467L12.7111 20.0356V19.8934L12.1955 18.8801L12.48 18.1867L13.76 17.6356ZM9.31554 19.1112C8.92877 19.1112 8.55068 18.9965 8.22909 18.7816C7.90751 18.5667 7.65686 18.2613 7.50885 17.904C7.36083 17.5467 7.32211 17.1535 7.39756 16.7741C7.47302 16.3948 7.65927 16.0463 7.93276 15.7728C8.20625 15.4994 8.55469 15.3131 8.93403 15.2376C9.31337 15.1622 9.70657 15.2009 10.0639 15.3489C10.4212 15.4969 10.7266 15.7476 10.9415 16.0692C11.1564 16.3908 11.2711 16.7689 11.2711 17.1556C11.2735 17.4131 11.2245 17.6685 11.1271 17.9068C11.0296 18.1451 10.8857 18.3616 10.7036 18.5437C10.5216 18.7258 10.305 18.8697 10.0667 18.9672C9.82837 19.0646 9.57301 19.1136 9.31554 19.1112Z" fill="white"/>
<path d="M17.7778 13.2088C18.6025 13.2088 19.2711 12.5402 19.2711 11.7155C19.2711 10.8908 18.6025 10.2222 17.7778 10.2222C16.953 10.2222 16.2845 10.8908 16.2845 11.7155C16.2845 12.5402 16.953 13.2088 17.7778 13.2088Z" fill="#E3E3E3"/>
<path d="M23.1111 12.2843V11.0754H22.9511L21.6356 10.6665L21.3333 9.75988L21.9911 8.33766L21.1378 7.48432H20.9778L19.7511 8.10655L18.9333 7.76877L18.4 6.29321H17.1378V6.47099L16.7111 7.76877L15.8756 8.10655L14.4889 7.44877L13.6356 8.3021L13.7245 8.4621L14.2222 9.77766L13.9378 10.6665L12.4445 11.1465V12.4443H12.6222L13.92 12.871L14.2222 13.671L13.5645 15.0932L14.4533 15.9999L14.6311 15.911L15.84 15.2888L16.6756 15.6265L17.2089 17.1021H18.4178V16.9243L18.8445 15.6265L19.68 15.2888L21.0845 15.9465L21.9378 15.0932L21.8489 14.9332L21.3333 13.6532L21.6711 12.8177L23.1111 12.2843ZM17.7778 14.0621C17.3137 14.0621 16.86 13.9245 16.4741 13.6666C16.0881 13.4088 15.7874 13.0423 15.6098 12.6135C15.4321 12.1847 15.3857 11.7128 15.4762 11.2576C15.5668 10.8024 15.7903 10.3843 16.1184 10.0561C16.4466 9.7279 16.8648 9.50441 17.32 9.41386C17.7752 9.32331 18.247 9.36978 18.6758 9.5474C19.1046 9.72501 19.4711 10.0258 19.729 10.4117C19.9868 10.7976 20.1245 11.2513 20.1245 11.7154C20.1268 12.0243 20.0677 12.3305 19.9506 12.6163C19.8336 12.902 19.6608 13.1617 19.4424 13.3801C19.224 13.5984 18.9644 13.7712 18.6786 13.8883C18.3928 14.0054 18.0866 14.0645 17.7778 14.0621Z" fill="white"/>
</g>
<defs>
<linearGradient id="paint0_linear_855_68149" x1="15.9822" y1="29.5289" x2="15.9822" y2="-2.25775" gradientUnits="userSpaceOnUse">
<stop stop-color="#0078D4"/>
<stop offset="0.16" stop-color="#1380DA"/>
<stop offset="0.53" stop-color="#3C91E5"/>
<stop offset="0.82" stop-color="#559CEC"/>
<stop offset="1" stop-color="#5EA0EF"/>
</linearGradient>
<clipPath id="clip0_855_68149">
<rect width="32" height="32" fill="white"/>
</clipPath>
</defs>
</svg>
