<svg width="32" height="32" viewBox="0 0 32 32" fill="none" xmlns="http://www.w3.org/2000/svg">
<g clip-path="url(#clip0_855_68143)">
<path d="M30.9867 14.5956C30.9409 12.9975 30.3268 11.4682 29.2548 10.2821C28.1828 9.09607 26.7231 8.33107 25.1378 8.12448C25.0452 5.89074 24.0743 3.78393 22.4363 2.26242C20.7982 0.740912 18.6256 -0.0721848 16.3911 3.6194e-05C14.5884 -0.0296592 12.8208 0.49958 11.331 1.51504C9.84125 2.5305 8.70247 3.98236 8.07113 5.67115C6.15501 5.89212 4.3823 6.79494 3.07674 8.21474C1.77117 9.63455 1.01987 11.4766 0.960022 13.4045C0.992068 14.4848 1.23792 15.548 1.68338 16.5326C2.12883 17.5173 2.76505 18.4039 3.55525 19.1412C4.34545 19.8785 5.27395 20.4519 6.28709 20.8282C7.30023 21.2044 8.3779 21.3761 9.4578 21.3334H10.2045H23.8578H24.2311C26.014 21.3149 27.719 20.5997 28.9814 19.3406C30.2438 18.0815 30.9636 16.3784 30.9867 14.5956Z" fill="url(#paint0_linear_855_68143)"/>
<path d="M11.3066 11.4843L16 6.87988C16.0497 6.82881 16.1091 6.78822 16.1747 6.7605C16.2404 6.73279 16.3109 6.71851 16.3822 6.71851C16.4535 6.71851 16.524 6.73279 16.5896 6.7605C16.6553 6.78822 16.7147 6.82881 16.7644 6.87988L21.3333 11.4843C21.3728 11.5161 21.4008 11.5599 21.4129 11.6091C21.4251 11.6583 21.4207 11.7102 21.4005 11.7566C21.3803 11.8031 21.3454 11.8416 21.3011 11.8663C21.2568 11.891 21.2057 11.9005 21.1555 11.8932H18.2755C18.2109 11.8974 18.15 11.925 18.1042 11.9708C18.0584 12.0166 18.0308 12.0775 18.0266 12.1421V17.9021C18.0266 17.954 18.006 18.0037 17.9694 18.0404C17.9327 18.0771 17.8829 18.0977 17.8311 18.0977H14.7378C14.6859 18.0977 14.6361 18.0771 14.5995 18.0404C14.5628 18.0037 14.5422 17.954 14.5422 17.9021V12.1421C14.5424 12.0791 14.5186 12.0183 14.4757 11.9721C14.4328 11.9259 14.374 11.8977 14.3111 11.8932H11.4666C11.4181 11.8959 11.3699 11.8832 11.3289 11.8569C11.288 11.8306 11.2564 11.792 11.2387 11.7467C11.2209 11.7014 11.218 11.6516 11.2302 11.6045C11.2424 11.5574 11.2691 11.5153 11.3066 11.4843Z" fill="#F2F2F2"/>
<path d="M24.8889 20.2133C24.8913 20.1625 24.877 20.1124 24.8481 20.0706C24.8191 20.0288 24.7773 19.9978 24.7289 19.9822L16.2844 17.1555H16V32H16.2311L24.6044 28.6577C24.6375 28.6656 24.6718 28.6661 24.705 28.6592C24.7383 28.6523 24.7696 28.6382 24.7967 28.6178C24.8239 28.5975 24.8462 28.5714 24.8621 28.5414C24.8781 28.5114 24.8872 28.4783 24.8889 28.4444V20.2133Z" fill="#A67AF4"/>
<path d="M16 17.2089L7.98219 18.6844C7.92546 18.6925 7.87326 18.7199 7.83439 18.762C7.79553 18.8041 7.77238 18.8584 7.76886 18.9156V29.9911C7.7706 30.048 7.79053 30.1029 7.82572 30.1477C7.86091 30.1925 7.90951 30.2248 7.96442 30.24L16 32C16.0344 32.0082 16.0703 32.0083 16.1048 32.0005C16.1394 31.9926 16.1716 31.9769 16.1991 31.9545C16.2266 31.9322 16.2486 31.9038 16.2634 31.8716C16.2782 31.8395 16.2854 31.8043 16.2844 31.7689V17.5467C16.3018 17.5046 16.3073 17.4585 16.3003 17.4135C16.2933 17.3685 16.274 17.3263 16.2447 17.2915C16.2154 17.2566 16.177 17.2305 16.1339 17.2159C16.0907 17.2014 16.0444 17.1989 16 17.2089Z" fill="#552F99"/>
<path opacity="0.75" d="M12.3022 19.4134V29.7422L15.0934 30.1867V18.9333L12.3022 19.4134Z" fill="#B77AF4"/>
<path opacity="0.75" d="M8.85333 19.9821V29.0132L11.2889 29.511V19.5732L8.85333 19.9821Z" fill="#B77AF4"/>
</g>
<defs>
<linearGradient id="paint0_linear_855_68143" x1="16" y1="21.2445" x2="16" y2="3.74055e-05" gradientUnits="userSpaceOnUse">
<stop stop-color="#0078D4"/>
<stop offset="0.16" stop-color="#1380DA"/>
<stop offset="0.53" stop-color="#3C91E5"/>
<stop offset="0.82" stop-color="#559CEC"/>
<stop offset="1" stop-color="#5EA0EF"/>
</linearGradient>
<clipPath id="clip0_855_68143">
<rect width="32" height="32" fill="white"/>
</clipPath>
</defs>
</svg>
