<svg width="32" height="32" viewBox="0 0 32 32" fill="none" xmlns="http://www.w3.org/2000/svg">
<g clip-path="url(#clip0_855_68158)">
<path d="M10.3111 2.16895L5.22668 3.11117V10.0445L10.3111 11.1289L15.4134 9.0845V3.91117L10.3111 2.16895Z" fill="url(#paint0_linear_855_68158)"/>
<path d="M5.22668 3.1111V10.0444L10.3645 11.1289V2.23999L5.22668 3.1111ZM7.39557 9.5111L5.95557 9.22666V3.89332L7.39557 3.66221V9.5111ZM9.63557 9.91999L7.98224 9.65332V3.55555L9.63557 3.2711V9.91999Z" fill="#341A6E"/>
<path d="M21.3156 2.25781L16.2311 3.20003V10.1334L21.3156 11.2178L26.4 9.15559V4.00003L21.3156 2.25781Z" fill="url(#paint1_linear_855_68158)"/>
<path d="M16.2311 3.19997V10.1333L21.3334 11.2177V2.32886L16.2311 3.19997ZM18.3823 9.59997L16.9423 9.31552V3.98219L18.3823 3.75108V9.59997ZM20.6223 10.0089L18.9689 9.74219V3.64441L20.6223 3.34219V10.0089Z" fill="#341A6E"/>
<path d="M5.10221 11.7334L0.0177612 12.6756V19.609L5.10221 20.6934L10.2044 18.649V13.4756L5.10221 11.7334Z" fill="url(#paint2_linear_855_68158)"/>
<path d="M0 12.6757V19.5557L5.13778 20.6401V11.7512L0 12.6757ZM2.15111 19.0934L0.711111 18.7912V13.4579L2.15111 13.209V19.0934ZM4.40889 19.5557L2.75556 19.289V13.1201L4.40889 12.8357V19.5557Z" fill="#341A6E"/>
<path d="M16.0711 11.6621L10.9867 12.6043V19.5377L16.0711 20.6399L21.1556 18.5777V13.4043L16.0711 11.6621Z" fill="url(#paint3_linear_855_68158)"/>
<path d="M10.9867 12.6046V19.5557L16.1067 20.6401V11.7512L10.9867 12.6046ZM13.1378 19.0223L11.6978 18.7201V13.3868L13.1378 13.1379V19.0223ZM15.3778 19.4134L13.7245 19.1468V13.049L15.3778 12.7646V19.4134Z" fill="#341A6E"/>
<path d="M27.04 11.7512L21.9556 12.6934V19.6268L27.04 20.7112L32.1422 18.6668V13.4934L27.04 11.7512Z" fill="url(#paint4_linear_855_68158)"/>
<path d="M21.9556 12.6934V19.5557L27.0933 20.6401V11.7512L21.9556 12.6934ZM24.1245 19.1112L22.6845 18.809V13.4757L24.1245 13.2268V19.1112ZM26.3645 19.5023L24.7111 19.2357V13.1379L26.3645 12.8534V19.5023Z" fill="#341A6E"/>
<path d="M10.1867 21.4045L5.10223 22.329V29.2623L10.1867 30.3645L15.2889 28.3023V23.1468L10.1867 21.4045Z" fill="url(#paint5_linear_855_68158)"/>
<path d="M5.10223 22.3288V29.2621L10.24 30.3644V21.3333L5.10223 22.3288ZM7.27112 28.7466L5.83112 28.4444V23.111L7.27112 22.8621V28.7466ZM9.51112 29.1555L7.85779 28.8888V22.7733L9.51112 22.4888V29.1555Z" fill="#341A6E"/>
<path d="M21.1733 21.4756L16.0889 22.4178V29.3511L21.1733 30.4356L26.2755 28.3911V23.2178L21.1733 21.4756Z" fill="url(#paint6_linear_855_68158)"/>
<path d="M16.0889 22.4177V29.3511L21.2266 30.4355V21.5466L16.0889 22.4177ZM18.2578 28.8355L16.8178 28.5333V23.2L18.2578 22.9511V28.8355ZM20.4978 29.2266L18.8444 28.96V22.8622L20.4978 22.5777V29.2266Z" fill="#341A6E"/>
</g>
<defs>
<linearGradient id="paint0_linear_855_68158" x1="5.22668" y1="6.64895" x2="15.4134" y2="6.64895" gradientUnits="userSpaceOnUse">
<stop stop-color="#B77AF4"/>
<stop offset="1" stop-color="#773ADC"/>
</linearGradient>
<linearGradient id="paint1_linear_855_68158" x1="16.2311" y1="6.73781" x2="26.4" y2="6.73781" gradientUnits="userSpaceOnUse">
<stop stop-color="#B77AF4"/>
<stop offset="1" stop-color="#773ADC"/>
</linearGradient>
<linearGradient id="paint2_linear_855_68158" x1="0.0177612" y1="16.2134" x2="10.1866" y2="16.2134" gradientUnits="userSpaceOnUse">
<stop stop-color="#B77AF4"/>
<stop offset="1" stop-color="#773ADC"/>
</linearGradient>
<linearGradient id="paint3_linear_855_68158" x1="10.9867" y1="16.1421" x2="21.1556" y2="16.1421" gradientUnits="userSpaceOnUse">
<stop stop-color="#B77AF4"/>
<stop offset="1" stop-color="#773ADC"/>
</linearGradient>
<linearGradient id="paint4_linear_855_68158" x1="21.9556" y1="16.2312" x2="32.1422" y2="16.2312" gradientUnits="userSpaceOnUse">
<stop stop-color="#B77AF4"/>
<stop offset="1" stop-color="#773ADC"/>
</linearGradient>
<linearGradient id="paint5_linear_855_68158" x1="5.10223" y1="25.8845" x2="15.2889" y2="25.8845" gradientUnits="userSpaceOnUse">
<stop stop-color="#B77AF4"/>
<stop offset="1" stop-color="#773ADC"/>
</linearGradient>
<linearGradient id="paint6_linear_855_68158" x1="16.0889" y1="25.9556" x2="26.2755" y2="25.9556" gradientUnits="userSpaceOnUse">
<stop stop-color="#B77AF4"/>
<stop offset="1" stop-color="#773ADC"/>
</linearGradient>
<clipPath id="clip0_855_68158">
<rect width="32" height="32" fill="white"/>
</clipPath>
</defs>
</svg>
