<svg width="32" height="32" viewBox="0 0 32 32" fill="none" xmlns="http://www.w3.org/2000/svg">
<g clip-path="url(#clip0_855_68135)">
<path d="M16.0178 24.1956C21.9775 24.1956 26.8089 22.2137 26.8089 19.769C26.8089 17.3242 21.9775 15.3423 16.0178 15.3423C10.058 15.3423 5.22665 17.3242 5.22665 19.769C5.22665 22.2137 10.058 24.1956 16.0178 24.1956Z" fill="#76BC2D"/>
<path d="M16.2844 20.7112C18.2678 20.7112 19.8756 20.2734 19.8756 19.7334C19.8756 19.1934 18.2678 18.7556 16.2844 18.7556C14.3011 18.7556 12.6933 19.1934 12.6933 19.7334C12.6933 20.2734 14.3011 20.7112 16.2844 20.7112Z" fill="#5E9624"/>
<path d="M16.0178 14.3646C21.9775 14.3646 26.8089 12.3827 26.8089 9.9379C26.8089 7.49312 21.9775 5.51123 16.0178 5.51123C10.058 5.51123 5.22665 7.49312 5.22665 9.9379C5.22665 12.3827 10.058 14.3646 16.0178 14.3646Z" fill="url(#paint0_linear_855_68135)"/>
<path d="M16.2844 10.8623C18.2678 10.8623 19.8756 10.4245 19.8756 9.88452C19.8756 9.3445 18.2678 8.90674 16.2844 8.90674C14.3011 8.90674 12.6933 9.3445 12.6933 9.88452C12.6933 10.4245 14.3011 10.8623 16.2844 10.8623Z" fill="#005BA1"/>
<path d="M6.91554 0.213265H1.58221C1.44233 0.208417 1.30293 0.232097 1.1725 0.282863C1.04207 0.333628 0.923336 0.410417 0.823539 0.508551C0.723742 0.606685 0.644968 0.724109 0.592018 0.853669C0.539067 0.983229 0.513048 1.12221 0.515545 1.26215V6.59549C0.515545 6.73222 0.569862 6.86336 0.666548 6.96004C0.763233 7.05673 0.894367 7.11104 1.0311 7.11104H1.61777C1.68695 7.11343 1.75591 7.10186 1.82053 7.07702C1.88514 7.05218 1.94409 7.01459 1.99387 6.96647C2.04364 6.91836 2.08321 6.86071 2.11023 6.79698C2.13724 6.73324 2.15114 6.66471 2.1511 6.59549V1.77771H6.91554C6.98473 1.7801 7.05369 1.76853 7.1183 1.74369C7.18292 1.71885 7.24187 1.68125 7.29165 1.63314C7.34142 1.58503 7.38099 1.52738 7.40801 1.46364C7.43502 1.39991 7.44892 1.33138 7.44888 1.26215V0.746599C7.45136 0.675891 7.43927 0.60543 7.41334 0.539599C7.38742 0.473769 7.34822 0.413979 7.29819 0.36395C7.24817 0.313922 7.18837 0.274726 7.12254 0.248803C7.05671 0.222879 6.98625 0.210782 6.91554 0.213265Z" fill="#949494"/>
<path d="M30.2222 0.213351H24.8889C24.8188 0.213351 24.7495 0.227146 24.6848 0.253949C24.6201 0.280751 24.5613 0.320036 24.5117 0.369561C24.4622 0.419085 24.4229 0.47788 24.3961 0.542587C24.3693 0.607294 24.3555 0.676646 24.3555 0.746684V1.31557C24.3729 1.44437 24.4366 1.56241 24.5348 1.64752C24.633 1.73263 24.7589 1.77896 24.8889 1.7778H29.6711V6.5778C29.6684 6.65008 29.681 6.72211 29.708 6.78922C29.735 6.85633 29.7758 6.917 29.8278 6.9673C29.8797 7.01761 29.9417 7.05641 30.0097 7.08119C30.0776 7.10596 30.15 7.11617 30.2222 7.11113H30.8089C30.878 7.11352 30.947 7.10195 31.0116 7.07711C31.0762 7.05227 31.1352 7.01467 31.185 6.96656C31.2347 6.91844 31.2743 6.8608 31.3013 6.79706C31.3283 6.73332 31.3422 6.6648 31.3422 6.59557V1.26224C31.3425 1.1183 31.3132 0.975841 31.2561 0.843716C31.199 0.711591 31.1153 0.592633 31.0103 0.494244C30.9052 0.395856 30.781 0.320143 30.6455 0.271819C30.5099 0.223495 30.3658 0.203592 30.2222 0.213351Z" fill="#949494"/>
<path d="M6.91557 30.5956H2.15112V25.7956C2.15116 25.7264 2.13726 25.6579 2.11025 25.5942C2.08323 25.5304 2.04366 25.4728 1.99389 25.4247C1.94411 25.3765 1.88516 25.339 1.82055 25.3141C1.75593 25.2893 1.68697 25.2777 1.61779 25.2801H1.03112C0.894386 25.2801 0.763253 25.3344 0.666567 25.4311C0.569882 25.5278 0.515565 25.6589 0.515565 25.7956V31.129C0.513204 31.2659 0.538131 31.4019 0.588891 31.529C0.639652 31.6562 0.715229 31.772 0.811212 31.8696C0.907196 31.9672 1.02166 32.0448 1.14794 32.0977C1.27421 32.1506 1.40976 32.1779 1.54668 32.1779H6.88001C6.94919 32.1803 7.01815 32.1687 7.08277 32.1438C7.14738 32.119 7.20634 32.0814 7.25611 32.0333C7.30588 31.9852 7.34546 31.9275 7.37247 31.8638C7.39948 31.8001 7.41338 31.7315 7.41334 31.6623V31.0934C7.40498 30.9642 7.34985 30.8423 7.25825 30.7507C7.16665 30.6591 7.04484 30.604 6.91557 30.5956Z" fill="#949494"/>
<path d="M30.7378 25.2799H30.2222C30.0855 25.2799 29.9543 25.3342 29.8576 25.4309C29.761 25.5276 29.7066 25.6587 29.7066 25.7954V30.5954H24.8889C24.7488 30.5999 24.6157 30.6575 24.5167 30.7566C24.4176 30.8557 24.36 30.9887 24.3555 31.1288V31.6977C24.3601 31.836 24.4184 31.9671 24.5179 32.0634C24.6174 32.1596 24.7504 32.2133 24.8889 32.2132H30.2222C30.5004 32.2132 30.7672 32.1027 30.9639 31.906C31.1606 31.7093 31.2711 31.4425 31.2711 31.1643V25.831C31.2761 25.7588 31.2659 25.6864 31.2411 25.6185C31.2164 25.5505 31.1776 25.4885 31.1273 25.4366C31.077 25.3846 31.0163 25.3438 30.9492 25.3168C30.8821 25.2898 30.81 25.2772 30.7378 25.2799Z" fill="#949494"/>
<path d="M16 24.1066C21.9556 24.1066 26.7911 22.1333 26.7911 19.6799V22.2933C26.6667 24.6755 21.8489 26.6666 16 26.6666C10.1511 26.6666 5.20889 24.6755 5.20889 22.2399V19.6799C5.22667 22.1333 10.0622 24.1066 16 24.1066Z" fill="#5E9624"/>
<path d="M16 14.2223C21.9555 14.2223 26.7911 12.2312 26.7911 9.79565V12.4445C26.6667 14.8445 21.8489 16.7468 16 16.7468C10.1511 16.7468 5.22665 14.7557 5.22665 12.3023V9.84899C5.22665 12.2845 10.0622 14.2223 16 14.2223Z" fill="#0078D4"/>
</g>
<defs>
<linearGradient id="paint0_linear_855_68135" x1="16.0178" y1="20.7823" x2="16.0178" y2="4.40901" gradientUnits="userSpaceOnUse">
<stop stop-color="#0078D4"/>
<stop offset="0.54" stop-color="#358EE3"/>
<stop offset="1" stop-color="#5EA0EF"/>
</linearGradient>
<clipPath id="clip0_855_68135">
<rect width="32" height="32" fill="white"/>
</clipPath>
</defs>
</svg>
