<svg width="32" height="32" viewBox="0 0 32 32" fill="none" xmlns="http://www.w3.org/2000/svg">
<path d="M15.9289 26.489C23.2927 26.489 29.2622 24.0375 29.2622 21.0134C29.2622 17.9893 23.2927 15.5378 15.9289 15.5378C8.56509 15.5378 2.59555 17.9893 2.59555 21.0134C2.59555 24.0375 8.56509 26.489 15.9289 26.489Z" fill="#76BC2D"/>
<path d="M16.2667 22.169C18.7114 22.169 20.6933 21.6278 20.6933 20.9601C20.6933 20.2925 18.7114 19.7512 16.2667 19.7512C13.8219 19.7512 11.84 20.2925 11.84 20.9601C11.84 21.6278 13.8219 22.169 16.2667 22.169Z" fill="#5E9624"/>
<path d="M15.9289 14.3466C23.2927 14.3466 29.2622 11.8951 29.2622 8.87106C29.2622 5.847 23.2927 3.39551 15.9289 3.39551C8.56509 3.39551 2.59555 5.847 2.59555 8.87106C2.59555 11.8951 8.56509 14.3466 15.9289 14.3466Z" fill="url(#paint0_linear_855_68140)"/>
<path d="M16.2667 10.0088C18.7114 10.0088 20.6933 9.4676 20.6933 8.79995C20.6933 8.1323 18.7114 7.59106 16.2667 7.59106C13.8219 7.59106 11.84 8.1323 11.84 8.79995C11.84 9.4676 13.8219 10.0088 16.2667 10.0088Z" fill="#005BA1"/>
<path d="M16 26.3823C23.3778 26.3823 29.3333 23.929 29.3333 20.9067V24.1423C29.0845 27.0756 23.2178 29.4756 16 29.4756C8.78223 29.4756 2.66667 27.0223 2.66667 24.0001V20.9067C2.59556 23.929 8.5689 26.3823 16 26.3823Z" fill="#5E9624"/>
<path d="M16 14.2221C23.3778 14.2221 29.3333 11.7688 29.3333 8.74658V11.9821C29.0845 14.9155 23.2178 17.3155 16 17.3155C8.78223 17.3155 2.66667 14.8621 2.66667 11.8399V8.74658C2.59556 11.7688 8.5689 14.2221 16 14.2221Z" fill="#0078D4"/>
<defs>
<linearGradient id="paint0_linear_855_68140" x1="9.79555" y1="-4.95116" x2="29.4373" y2="8.48286" gradientUnits="userSpaceOnUse">
<stop stop-color="#0078D4"/>
<stop offset="0.02" stop-color="#0D7ED8"/>
<stop offset="0.08" stop-color="#2B8AE0"/>
<stop offset="0.15" stop-color="#4194E7"/>
<stop offset="0.22" stop-color="#519BEB"/>
<stop offset="0.29" stop-color="#5B9FEE"/>
<stop offset="0.4" stop-color="#5EA0EF"/>
<stop offset="0.55" stop-color="#5B9FEE"/>
<stop offset="0.68" stop-color="#509AEB"/>
<stop offset="0.8" stop-color="#3F92E6"/>
<stop offset="0.91" stop-color="#2688DF"/>
<stop offset="0.99" stop-color="#127FD9"/>
</linearGradient>
</defs>
</svg>
