<svg width="32" height="32" viewBox="0 0 32 32" fill="none" xmlns="http://www.w3.org/2000/svg">
<g clip-path="url(#clip0_855_68133)">
<path d="M3.76892 0.888916H7.28892V1.90225H3.76892V0.888916ZM29.5467 1.90225H30.1156V2.43558H31.0934V0.888916H29.5467V1.90225ZM2.48892 30.0445H1.99114V29.4756H0.888916V31.1289H2.48892V30.0623V30.0445ZM30.1334 29.5111V30.0445H29.5645V31.1111H31.1111V29.5111H30.1334ZM2.00892 2.4178V1.88447H2.50669V0.888916H0.888916V2.4178H2.00892ZM9.01336 0.888916H12.5156V1.90225H9.01336V0.888916ZM14.2222 0.888916H17.7245V1.90225H14.2222V0.888916ZM19.4845 0.888916H22.9867V1.90225H19.4845V0.888916ZM24.7111 0.888916H28.2134V1.90225H24.7111V0.888916ZM3.80447 30.0445H7.28892V31.0578H3.80447V30.0445ZM9.03114 30.0445H12.5334V31.0578H9.03114V30.0445ZM14.2756 30.0445H17.7778V31.0578H14.2756V30.0445ZM19.52 30.0445H23.0222V31.0578H19.52V30.0445ZM24.7467 30.0445H28.2489V31.0578H24.7467V30.0445ZM30.08 3.64447H31.0934V7.14669H30.08V3.64447ZM30.08 8.88892H31.0934V12.3911H30.08V8.88892ZM30.08 14.1156H31.0934V17.6H30.08V14.1156ZM30.08 19.3422H31.0934V22.8445H30.08V19.3422ZM30.08 24.5867H31.0934V28.0889H30.08V24.5867ZM0.888916 3.60892H1.90225V7.11114H0.888916V3.60892ZM0.888916 8.85336H1.90225V12.3556H0.888916V8.85336ZM0.888916 14.08H1.90225V17.6H0.888916V14.08ZM0.888916 19.3245H1.90225V22.8267H0.888916V19.3245ZM0.888916 24.5334H1.90225V28.0356H0.888916V24.5334Z" fill="#0078D4"/>
<path d="M18.3111 19.5556C17.8171 19.0563 17.5401 18.3824 17.5401 17.68C17.5401 16.9777 17.8171 16.3037 18.3111 15.8045L19.6622 14.4534C18.104 14.1064 16.512 13.9334 14.9156 13.9378C9.45778 13.9378 5.04889 15.7156 5.04889 17.9912C5.04889 20.2667 9.42222 22.0445 14.8978 22.0445C16.657 22.0263 18.4069 21.7874 20.1067 21.3334L18.3111 19.5556Z" fill="#76BC2D"/>
<path d="M14.8978 13.0312C20.3372 13.0312 24.7467 11.2165 24.7467 8.97789C24.7467 6.7393 20.3372 4.92456 14.8978 4.92456C9.45839 4.92456 5.04889 6.7393 5.04889 8.97789C5.04889 11.2165 9.45839 13.0312 14.8978 13.0312Z" fill="url(#paint0_radial_855_68133)"/>
<path d="M15.1289 9.81342C16.9355 9.81342 18.4 9.41545 18.4 8.92453C18.4 8.43361 16.9355 8.03564 15.1289 8.03564C13.3223 8.03564 11.8578 8.43361 11.8578 8.92453C11.8578 9.41545 13.3223 9.81342 15.1289 9.81342Z" fill="#005BA1"/>
<path d="M27.6978 18.9333C27.8699 18.7675 28.0067 18.5687 28.1002 18.3487C28.1937 18.1288 28.2419 17.8923 28.2419 17.6533C28.2419 17.4144 28.1937 17.1778 28.1002 16.9579C28.0067 16.738 27.8699 16.5392 27.6978 16.3733L24.5689 13.2267C24.4031 13.0546 24.2043 12.9177 23.9843 12.8243C23.7644 12.7308 23.5279 12.6826 23.2889 12.6826C23.05 12.6826 22.8134 12.7308 22.5935 12.8243C22.3736 12.9177 22.1748 13.0546 22.0089 13.2267L18.88 16.3556C18.708 16.5214 18.5711 16.7202 18.4777 16.9401C18.3842 17.1601 18.336 17.3966 18.336 17.6356C18.336 17.8745 18.3842 18.111 18.4777 18.331C18.5711 18.5509 18.708 18.7497 18.88 18.9156L21.4934 21.5822C21.5804 21.6807 21.6307 21.8064 21.6356 21.9378V26.7911C21.6379 26.9509 21.7015 27.1037 21.8134 27.2178L23.0045 28.4089C23.0837 28.4839 23.1887 28.5257 23.2978 28.5257C23.4069 28.5257 23.5119 28.4839 23.5912 28.4089L25.4045 26.5956C25.447 26.5496 25.4706 26.4893 25.4706 26.4267C25.4706 26.3641 25.447 26.3038 25.4045 26.2578L24.8712 25.76C24.845 25.7383 24.824 25.7111 24.8096 25.6804C24.7952 25.6497 24.7877 25.6162 24.7877 25.5822C24.7877 25.5483 24.7952 25.5148 24.8096 25.484C24.824 25.4533 24.845 25.4261 24.8712 25.4044L25.3512 24.9067C25.3936 24.8607 25.4172 24.8004 25.4172 24.7378C25.4172 24.6752 25.3936 24.6149 25.3512 24.5689L24.8712 24.0889C24.8447 24.0655 24.8235 24.0368 24.8089 24.0046C24.7944 23.9724 24.7869 23.9375 24.7869 23.9022C24.7869 23.8669 24.7944 23.832 24.8089 23.7998C24.8235 23.7676 24.8447 23.7389 24.8712 23.7156L25.3512 23.2356C25.3936 23.1896 25.4172 23.1293 25.4172 23.0667C25.4172 23.0041 25.3936 22.9438 25.3512 22.8978L24.6756 22.1867V21.9556L27.6978 18.9333ZM23.2889 13.9911C23.4401 13.956 23.5973 13.9556 23.7487 13.9897C23.9001 14.0238 24.0419 14.0917 24.1634 14.1883C24.2849 14.2848 24.3831 14.4076 24.4505 14.5474C24.518 14.6871 24.553 14.8403 24.553 14.9956C24.553 15.1508 24.518 15.304 24.4505 15.4438C24.3831 15.5835 24.2849 15.7063 24.1634 15.8028C24.0419 15.8994 23.9001 15.9673 23.7487 16.0014C23.5973 16.0356 23.4401 16.0351 23.2889 16C23.0155 16 22.7532 15.8914 22.5598 15.698C22.3665 15.5046 22.2578 15.2424 22.2578 14.9689C22.2578 14.6954 22.3665 14.4332 22.5598 14.2398C22.7532 14.0464 23.0155 13.9378 23.2889 13.9378V13.9911Z" fill="#0078D4"/>
<path d="M21.4222 12.6222C21.8944 12.1458 22.5298 11.8663 23.2 11.84C23.5997 11.8462 23.9936 11.9371 24.3556 12.1067C24.5162 11.8471 24.6193 11.5561 24.6578 11.2534V8.88892C24.6578 11.1111 20.2489 12.9245 14.8089 12.9245C9.36891 12.9245 5.03113 11.1467 5.03113 8.88892V11.1289C5.03113 13.3689 9.44002 15.1822 14.8978 15.1822C16.3779 15.1855 17.8547 15.0425 19.3067 14.7556L21.4222 12.6222Z" fill="#0078D4"/>
<path opacity="0.75" d="M22.4889 26.8445C22.5319 26.8858 22.5892 26.9088 22.6489 26.9088C22.7085 26.9088 22.7658 26.8858 22.8089 26.8445C22.8267 26.7987 22.8267 26.748 22.8089 26.7022V22.7022C22.7995 22.6259 22.7614 22.5559 22.7022 22.5067C22.6602 22.4704 22.6066 22.4504 22.5511 22.4504C22.4956 22.4504 22.442 22.4704 22.4 22.5067C22.3891 22.5256 22.3833 22.5471 22.3833 22.5689C22.3833 22.5908 22.3891 22.6122 22.4 22.6311V26.6667C22.3975 26.7016 22.4045 26.7364 22.4201 26.7677C22.4358 26.799 22.4595 26.8255 22.4889 26.8445Z" fill="#C3F1FF"/>
<path opacity="0.75" d="M25.6533 17.4045H21.0844C20.9273 17.4045 20.8 17.5319 20.8 17.689V17.7245C20.8 17.8816 20.9273 18.009 21.0844 18.009H25.6533C25.8104 18.009 25.9378 17.8816 25.9378 17.7245V17.689C25.9378 17.5319 25.8104 17.4045 25.6533 17.4045Z" fill="#C3F1FF"/>
<path opacity="0.75" d="M25.6533 18.4001H21.0844C20.9273 18.4001 20.8 18.5275 20.8 18.6846V18.7201C20.8 18.8772 20.9273 19.0046 21.0844 19.0046H25.6533C25.8104 19.0046 25.9378 18.8772 25.9378 18.7201V18.6846C25.9378 18.5275 25.8104 18.4001 25.6533 18.4001Z" fill="#C3F1FF"/>
<path d="M20.8 22.0799L20.0533 21.3333C18.3652 21.7403 16.6343 21.9432 14.8978 21.9377C9.44002 21.9377 5.03113 20.1599 5.03113 17.8844V20.1422C5.03113 22.3822 9.44002 24.1955 14.8978 24.1955C16.8942 24.2071 18.8819 23.9317 20.8 23.3777V22.0799ZM17.5467 17.3155C16.7589 17.1022 15.945 17.0005 15.1289 17.0133C13.3511 17.0133 11.8578 17.4222 11.8578 17.9022C11.8578 18.3822 13.3334 18.7911 15.1289 18.7911C15.9884 18.8048 16.8451 18.6909 17.6711 18.4533C17.5501 18.0809 17.5077 17.6874 17.5467 17.2977V17.3155Z" fill="#5E9624"/>
</g>
<defs>
<radialGradient id="paint0_radial_855_68133" cx="0" cy="0" r="1" gradientUnits="userSpaceOnUse" gradientTransform="translate(14.8978 7.20829) scale(7.2 11.448)">
<stop stop-color="#5EA0EF"/>
<stop offset="0.11" stop-color="#519AEB"/>
<stop offset="0.51" stop-color="#2588DF"/>
<stop offset="0.82" stop-color="#0A7CD7"/>
<stop offset="1" stop-color="#0078D4"/>
</radialGradient>
<clipPath id="clip0_855_68133">
<rect width="32" height="32" fill="white"/>
</clipPath>
</defs>
</svg>
