<svg width="32" height="32" viewBox="0 0 32 32" fill="none" xmlns="http://www.w3.org/2000/svg">
<g clip-path="url(#clip0_855_68151)">
<path d="M9.84969 23.2979L8.80779 24.3427C8.7189 24.4319 8.59824 24.482 8.47235 24.4822C8.34646 24.4824 8.22565 24.4326 8.13651 24.3437L0.397072 16.6261C0.21912 16.4486 0.118949 16.2078 0.118594 15.9564C0.118238 15.7051 0.217728 15.464 0.395178 15.286L1.4421 14.2361L9.85377 22.6241C9.94291 22.713 9.99309 22.8336 9.99327 22.9595C9.99344 23.0854 9.94361 23.2062 9.85471 23.2953L9.84969 23.2979Z" fill="#50E6FF"/>
<path d="M8.64599 7.65304L9.69462 8.6987C9.78376 8.78759 9.83394 8.90826 9.83412 9.03414C9.83429 9.16003 9.78446 9.28084 9.69556 9.36998L1.43192 17.657L0.382038 16.6101C0.204086 16.4327 0.103914 16.1918 0.103559 15.9405C0.103203 15.6892 0.202695 15.448 0.380144 15.2701L7.97722 7.65147C8.06634 7.56342 8.18665 7.51418 8.31193 7.51448C8.4372 7.51477 8.55728 7.56458 8.64599 7.65304Z" fill="#1490DF"/>
<path d="M30.5593 14.2434L31.605 15.292C31.7824 15.47 31.8819 15.7111 31.8816 15.9624C31.8812 16.2138 31.781 16.4546 31.6031 16.6321L23.8637 24.3497C23.7745 24.4386 23.6537 24.4884 23.5278 24.4882C23.4019 24.488 23.2813 24.4379 23.1924 24.3487L22.1517 23.3051C22.0628 23.216 22.013 23.0952 22.0132 22.9693C22.0134 22.8434 22.0635 22.7227 22.1527 22.6338L30.5631 14.2472L30.5593 14.2434Z" fill="#50E6FF"/>
<path d="M31.6123 16.6058L30.5637 17.6515L22.3 9.36443C22.2112 9.27528 22.1613 9.15448 22.1615 9.02859C22.1617 8.9027 22.2118 8.78204 22.301 8.69315L23.3496 7.64748C23.4388 7.55859 23.5596 7.50875 23.6855 7.50893C23.8113 7.50911 23.932 7.55929 24.0209 7.64843L31.618 15.267C31.7954 15.445 31.8949 15.6861 31.8946 15.9374C31.8942 16.1887 31.794 16.4296 31.6161 16.6071L31.6123 16.6058Z" fill="#1490DF"/>
<path d="M15.0382 17.6001H8.6578C8.56825 17.6035 8.48092 17.5718 8.41448 17.5117C8.34803 17.4515 8.30775 17.3678 8.30225 17.2783C8.3023 17.232 8.31326 17.1863 8.33425 17.145L15.984 2.00901C16.0166 1.95031 16.0646 1.90169 16.123 1.86846C16.1813 1.83522 16.2476 1.81866 16.3147 1.82056H23.8614C23.9509 1.81714 24.0382 1.84889 24.1047 1.90902C24.1711 1.96916 24.2114 2.0529 24.2169 2.14234C24.2163 2.20683 24.1944 2.26931 24.1547 2.32012L15.1716 14.1619H23.9325C24.022 14.1585 24.1093 14.1902 24.1758 14.2504C24.2422 14.3105 24.2825 14.3942 24.288 14.4837C24.2867 14.5653 24.2535 14.6431 24.1956 14.7006L9.63736 29.8455C9.50047 29.9272 8.52802 30.7343 9.00447 29.5095L15.0382 17.6001Z" fill="url(#paint0_linear_855_68151)"/>
</g>
<defs>
<linearGradient id="paint0_linear_855_68151" x1="16.2224" y1="29.9682" x2="16.2224" y2="1.59705" gradientUnits="userSpaceOnUse">
<stop stop-color="#FEA11B"/>
<stop offset="0.284" stop-color="#FEA51A"/>
<stop offset="0.547" stop-color="#FEB018"/>
<stop offset="0.8" stop-color="#FFC314"/>
<stop offset="1" stop-color="#FFD70F"/>
</linearGradient>
<clipPath id="clip0_855_68151">
<rect width="32" height="32" fill="white"/>
</clipPath>
</defs>
</svg>
