<svg width="32" height="32" viewBox="0 0 32 32" fill="none" xmlns="http://www.w3.org/2000/svg">
<path d="M15.04 9.70654H16.8178V26.7732H15.04V9.70654Z" fill="#32BEDD"/>
<path d="M27.5199 1.15552H4.55104C4.28378 1.16474 4.03056 1.27743 3.84481 1.46981C3.65906 1.66219 3.55532 1.91921 3.55548 2.18663V8.67552C3.55544 8.94593 3.66163 9.20554 3.85117 9.39841C4.04072 9.59128 4.29844 9.70197 4.56881 9.70663H27.5199C27.6545 9.70665 27.7877 9.67986 27.9119 9.62783C28.036 9.5758 28.1485 9.49956 28.2428 9.40357C28.3372 9.30758 28.4114 9.19377 28.4613 9.06877C28.5112 8.94376 28.5356 8.81008 28.5333 8.67552V2.18663C28.5356 2.05207 28.5112 1.91838 28.4613 1.79338C28.4114 1.66838 28.3372 1.55456 28.2428 1.45857C28.1485 1.36259 28.036 1.28635 27.9119 1.23432C27.7877 1.18228 27.6545 1.1555 27.5199 1.15552Z" fill="url(#paint0_linear_855_68136)"/>
<path d="M27.4489 12.7466H4.48003C4.22697 12.7689 3.9915 12.8854 3.82029 13.0731C3.64908 13.2607 3.5546 13.5059 3.55558 13.7599V20.2666C3.55317 20.4003 3.57774 20.5332 3.62781 20.6572C3.67788 20.7812 3.75243 20.8939 3.84701 20.9885C3.94159 21.0831 4.05426 21.1576 4.1783 21.2077C4.30233 21.2578 4.43518 21.2823 4.56891 21.2799H27.4489C27.7146 21.2753 27.9678 21.1664 28.154 20.9769C28.3402 20.7874 28.4445 20.5323 28.4445 20.2666V13.7599C28.4401 13.4956 28.3343 13.243 28.149 13.0545C27.9638 12.8659 27.7131 12.7557 27.4489 12.7466Z" fill="url(#paint1_linear_855_68136)"/>
<path d="M16.1067 30.8445C17.5893 30.8445 18.7911 29.6426 18.7911 28.16C18.7911 26.6775 17.5893 25.4756 16.1067 25.4756C14.6241 25.4756 13.4222 26.6775 13.4222 28.16C13.4222 29.6426 14.6241 30.8445 16.1067 30.8445Z" fill="#7FBA00"/>
<path d="M16.0356 30.8267C17.5182 30.8267 18.72 29.6248 18.72 28.1422C18.72 26.6596 17.5182 25.4578 16.0356 25.4578C14.553 25.4578 13.3511 26.6596 13.3511 28.1422C13.3511 29.6248 14.553 30.8267 16.0356 30.8267Z" fill="url(#paint2_linear_855_68136)"/>
<path d="M25.9911 2.75562H24.6578C24.5105 2.75562 24.3911 2.87501 24.3911 3.02228V4.35562C24.3911 4.50289 24.5105 4.62228 24.6578 4.62228H25.9911C26.1384 4.62228 26.2578 4.50289 26.2578 4.35562V3.02228C26.2578 2.87501 26.1384 2.75562 25.9911 2.75562Z" fill="#B4EC36"/>
<path d="M25.9911 5.97339H24.6578C24.5105 5.97339 24.3911 6.09278 24.3911 6.24006V7.57339C24.3911 7.72067 24.5105 7.84006 24.6578 7.84006H25.9911C26.1384 7.84006 26.2578 7.72067 26.2578 7.57339V6.24006C26.2578 6.09278 26.1384 5.97339 25.9911 5.97339Z" fill="#B4EC36"/>
<path d="M25.9911 14.2932H24.6578C24.5105 14.2932 24.3911 14.4126 24.3911 14.5599V15.8932C24.3911 16.0405 24.5105 16.1599 24.6578 16.1599H25.9911C26.1384 16.1599 26.2578 16.0405 26.2578 15.8932V14.5599C26.2578 14.4126 26.1384 14.2932 25.9911 14.2932Z" fill="#B4EC36"/>
<path d="M25.9911 17.511H24.6578C24.5105 17.511 24.3911 17.6304 24.3911 17.7777V19.111C24.3911 19.2583 24.5105 19.3777 24.6578 19.3777H25.9911C26.1384 19.3777 26.2578 19.2583 26.2578 19.111V17.7777C26.2578 17.6304 26.1384 17.511 25.9911 17.511Z" fill="#B4EC36"/>
<defs>
<linearGradient id="paint0_linear_855_68136" x1="16.0355" y1="9.70663" x2="16.0355" y2="1.15552" gradientUnits="userSpaceOnUse">
<stop stop-color="#198AB3"/>
<stop offset="1" stop-color="#32D4F5"/>
</linearGradient>
<linearGradient id="paint1_linear_855_68136" x1="15.9645" y1="21.2799" x2="15.9645" y2="12.7466" gradientUnits="userSpaceOnUse">
<stop stop-color="#198AB3"/>
<stop offset="1" stop-color="#32D4F5"/>
</linearGradient>
<linearGradient id="paint2_linear_855_68136" x1="16.0356" y1="30.8267" x2="16.0356" y2="25.4578" gradientUnits="userSpaceOnUse">
<stop stop-color="#198AB3"/>
<stop offset="1" stop-color="#32D4F5"/>
</linearGradient>
</defs>
</svg>
