<svg width="32" height="32" viewBox="0 0 32 32" fill="none" xmlns="http://www.w3.org/2000/svg">
<path d="M24.8889 0.97767H3.55559C3.39534 0.975313 3.23623 1.00484 3.0875 1.06454C2.93877 1.12423 2.8034 1.21291 2.68926 1.3254C2.57511 1.43789 2.48447 1.57195 2.42261 1.71979C2.36075 1.86763 2.3289 2.0263 2.32892 2.18656V7.66211C2.32892 7.98745 2.45816 8.29945 2.6882 8.5295C2.91825 8.75954 3.23025 8.88878 3.55559 8.88878H24.8889C25.2143 8.88878 25.5263 8.75954 25.7563 8.5295C25.9863 8.29945 26.1156 7.98745 26.1156 7.66211V2.18656C26.1109 1.86432 25.9796 1.55686 25.7501 1.33064C25.5205 1.10443 25.2112 0.977636 24.8889 0.97767ZM24.8889 11.9288H3.55559C3.39534 11.9264 3.23623 11.956 3.0875 12.0156C2.93877 12.0753 2.8034 12.164 2.68926 12.2765C2.57511 12.389 2.48447 12.5231 2.42261 12.6709C2.36075 12.8187 2.3289 12.9774 2.32892 13.1377V18.6132C2.32892 18.9386 2.45816 19.2506 2.6882 19.4806C2.91825 19.7107 3.23025 19.8399 3.55559 19.8399H24.8889C25.2143 19.8399 25.5263 19.7107 25.7563 19.4806C25.9863 19.2506 26.1156 18.9386 26.1156 18.6132V13.1377C26.1156 12.9774 26.0838 12.8187 26.0219 12.6709C25.96 12.5231 25.8694 12.389 25.7552 12.2765C25.6411 12.164 25.5057 12.0753 25.357 12.0156C25.2083 11.956 25.0492 11.9264 24.8889 11.9288Z" fill="#198AB3"/>
<path d="M16.2667 8.88867H18.0445V27.1287H16.2667V8.88867Z" fill="#32BEDD"/>
<path d="M28.6756 3.41335H6.9689C6.70015 3.41335 6.4424 3.52011 6.25237 3.71014C6.06233 3.90018 5.95557 4.15793 5.95557 4.42668V9.76001C5.98201 10.0099 6.10034 10.241 6.28759 10.4085C6.47483 10.5761 6.71765 10.6681 6.9689 10.6667H28.6756C28.9443 10.6667 29.2021 10.5599 29.3921 10.3699C29.5821 10.1798 29.6889 9.9221 29.6889 9.65335V4.32001C29.6625 4.07015 29.5441 3.83902 29.3569 3.67149C29.1696 3.50395 28.9268 3.41195 28.6756 3.41335Z" fill="url(#paint0_linear_855_68138)"/>
<path d="M27.3956 4.42651H26.0623C25.915 4.42651 25.7956 4.5459 25.7956 4.69318V6.02651C25.7956 6.17379 25.915 6.29318 26.0623 6.29318H27.3956C27.5429 6.29318 27.6623 6.17379 27.6623 6.02651V4.69318C27.6623 4.5459 27.5429 4.42651 27.3956 4.42651Z" fill="#B4EC36"/>
<path d="M27.3956 7.64429H26.0623C25.915 7.64429 25.7956 7.76368 25.7956 7.91095V9.24429C25.7956 9.39156 25.915 9.51095 26.0623 9.51095H27.3956C27.5429 9.51095 27.6623 9.39156 27.6623 9.24429V7.91095C27.6623 7.76368 27.5429 7.64429 27.3956 7.64429Z" fill="#B4EC36"/>
<path d="M28.6756 14.3643H6.9689C6.70015 14.3643 6.4424 14.471 6.25237 14.6611C6.06233 14.8511 5.95557 15.1088 5.95557 15.3776V20.7109C5.95557 20.9797 6.06233 21.2374 6.25237 21.4275C6.4424 21.6175 6.70015 21.7243 6.9689 21.7243H28.6756C28.9443 21.7243 29.2021 21.6175 29.3921 21.4275C29.5821 21.2374 29.6889 20.9797 29.6889 20.7109V15.3776C29.6889 15.1088 29.5821 14.8511 29.3921 14.6611C29.2021 14.471 28.9443 14.3643 28.6756 14.3643Z" fill="url(#paint1_linear_855_68138)"/>
<path d="M17.1733 31.0398C18.6559 31.0398 19.8578 29.8379 19.8578 28.3553C19.8578 26.8728 18.6559 25.6709 17.1733 25.6709C15.6908 25.6709 14.4889 26.8728 14.4889 28.3553C14.4889 29.8379 15.6908 31.0398 17.1733 31.0398Z" fill="url(#paint2_linear_855_68138)"/>
<path d="M27.3956 15.4666H26.0623C25.915 15.4666 25.7956 15.5859 25.7956 15.7332V17.0666C25.7956 17.2138 25.915 17.3332 26.0623 17.3332H27.3956C27.5429 17.3332 27.6623 17.2138 27.6623 17.0666V15.7332C27.6623 15.5859 27.5429 15.4666 27.3956 15.4666Z" fill="#B4EC36"/>
<path d="M27.3956 18.6843H26.0623C25.915 18.6843 25.7956 18.8037 25.7956 18.951V20.2843C25.7956 20.4316 25.915 20.551 26.0623 20.551H27.3956C27.5429 20.551 27.6623 20.4316 27.6623 20.2843V18.951C27.6623 18.8037 27.5429 18.6843 27.3956 18.6843Z" fill="#B4EC36"/>
<defs>
<linearGradient id="paint0_linear_855_68138" x1="17.8311" y1="10.7022" x2="17.8311" y2="3.41335" gradientUnits="userSpaceOnUse">
<stop stop-color="#198AB3"/>
<stop offset="0.1" stop-color="#1C93BB"/>
<stop offset="0.7" stop-color="#2CC2E5"/>
<stop offset="1" stop-color="#32D4F5"/>
</linearGradient>
<linearGradient id="paint1_linear_855_68138" x1="17.8311" y1="21.6531" x2="17.8311" y2="14.3643" gradientUnits="userSpaceOnUse">
<stop stop-color="#198AB3"/>
<stop offset="0.1" stop-color="#1C93BB"/>
<stop offset="0.7" stop-color="#2CC2E5"/>
<stop offset="1" stop-color="#32D4F5"/>
</linearGradient>
<linearGradient id="paint2_linear_855_68138" x1="17.1733" y1="31.022" x2="17.1733" y2="25.6709" gradientUnits="userSpaceOnUse">
<stop stop-color="#198AB3"/>
<stop offset="0.1" stop-color="#1C93BB"/>
<stop offset="0.7" stop-color="#2CC2E5"/>
<stop offset="1" stop-color="#32D4F5"/>
</linearGradient>
</defs>
</svg>
