<svg width="32" height="32" viewBox="0 0 32 32" fill="none" xmlns="http://www.w3.org/2000/svg">
<g clip-path="url(#clip0_855_68134)">
<path d="M30.5778 1.54663H0.711137C0.122033 1.54663 -0.35553 2.02419 -0.35553 2.6133V21.8133C-0.35553 22.4024 0.122033 22.88 0.711137 22.88H30.5778C31.1669 22.88 31.6445 22.4024 31.6445 21.8133V2.6133C31.6445 2.02419 31.1669 1.54663 30.5778 1.54663Z" fill="url(#paint0_linear_855_68134)"/>
<path d="M20.9778 9.10229V15.3067L15.6445 18.4356V12.2134L20.9778 9.10229Z" fill="#50E6FF"/>
<path d="M20.9778 9.10232L15.6622 12.2312L10.3111 9.10232L15.6622 5.99121L20.9778 9.10232Z" fill="#C3F1FF"/>
<path d="M15.6444 12.2312V18.4356L10.3111 15.3067V9.10229L15.6444 12.2312Z" fill="#9CEBFF"/>
<path d="M10.3111 15.3067L15.6444 12.2134V18.4356L10.3111 15.3067Z" fill="#C3F1FF"/>
<path d="M20.9778 15.3067L15.6445 12.2134V18.4356L20.9778 15.3067Z" fill="#9CEBFF"/>
<path d="M22.0622 29.3332C18.8978 28.8354 18.7733 26.5599 18.7911 22.8799H12.4444C12.4444 26.5599 12.4444 28.8354 9.22666 29.3332C8.79304 29.3856 8.39389 29.5958 8.10535 29.9237C7.8168 30.2516 7.65906 30.6742 7.66222 31.111H23.6622C23.6425 30.6753 23.4722 30.2599 23.1804 29.9357C22.8886 29.6115 22.4934 29.3986 22.0622 29.3332Z" fill="url(#paint1_linear_855_68134)"/>
<path d="M8.31997 3.67993H3.43108C3.1199 3.67993 2.82146 3.80355 2.60141 4.02359C2.38137 4.24364 2.25775 4.54208 2.25775 4.85327V9.75993C2.25775 9.91552 2.31956 10.0647 2.42958 10.1748C2.5396 10.2848 2.68882 10.3466 2.84442 10.3466H3.23553C3.39112 10.3466 3.54034 10.2848 3.65037 10.1748C3.76039 10.0647 3.8222 9.91552 3.8222 9.75993V5.2266H8.31997C8.47247 5.22198 8.61716 5.15813 8.72336 5.04861C8.82957 4.93908 8.88893 4.79249 8.88886 4.63993V4.2666C8.88893 4.11404 8.82957 3.96745 8.72336 3.85792C8.61716 3.7484 8.47247 3.68455 8.31997 3.67993Z" fill="white"/>
<path d="M8.31999 19.0757H3.80443V14.5779C3.80443 14.5008 3.78926 14.4245 3.75977 14.3534C3.73029 14.2822 3.68708 14.2175 3.6326 14.163C3.57812 14.1086 3.51345 14.0654 3.44227 14.0359C3.37109 14.0064 3.29481 13.9912 3.21776 13.9912H2.84443C2.76739 13.9912 2.6911 14.0064 2.61992 14.0359C2.54875 14.0654 2.48407 14.1086 2.42959 14.163C2.37512 14.2175 2.3319 14.2822 2.30242 14.3534C2.27294 14.4245 2.25776 14.5008 2.25776 14.5779V19.5557C2.25541 19.7112 2.28402 19.8657 2.34192 20.0101C2.39983 20.1545 2.48589 20.286 2.59508 20.3968C2.70427 20.5077 2.83441 20.5957 2.97794 20.6558C3.12146 20.7159 3.27551 20.7468 3.4311 20.7468H8.31999C8.4044 20.7427 8.48704 20.721 8.56255 20.6831C8.63806 20.6451 8.70478 20.5918 8.75839 20.5264C8.81199 20.4611 8.85131 20.3852 8.87378 20.3038C8.89626 20.2223 8.9014 20.137 8.88888 20.0534V19.6623C8.88895 19.5098 8.82958 19.3632 8.72338 19.2536C8.61717 19.1441 8.47248 19.0803 8.31999 19.0757Z" fill="white"/>
<path d="M27.9289 3.73335H23.1111C22.9555 3.73335 22.8063 3.79516 22.6963 3.90518C22.5863 4.01521 22.5245 4.16443 22.5245 4.32002V4.69335C22.517 4.77476 22.5267 4.85682 22.5528 4.93427C22.579 5.01172 22.621 5.08286 22.6762 5.14312C22.7315 5.20337 22.7987 5.25142 22.8736 5.28418C22.9485 5.31694 23.0294 5.33369 23.1111 5.33335H27.6089V9.79558C27.6089 9.95117 27.6707 10.1004 27.7807 10.2104C27.8908 10.3204 28.04 10.3822 28.1956 10.3822H28.6045C28.7601 10.3822 28.9093 10.3204 29.0193 10.2104C29.1293 10.1004 29.1911 9.95117 29.1911 9.79558V4.90669C29.1916 4.74483 29.1586 4.58462 29.0941 4.43615C29.0297 4.28767 28.9352 4.15414 28.8167 4.04393C28.6981 3.93373 28.558 3.84925 28.4053 3.7958C28.2525 3.74235 28.0903 3.72109 27.9289 3.73335Z" fill="white"/>
<path d="M28.5333 14.0268H28.16C28.0044 14.0268 27.8552 14.0886 27.7451 14.1986C27.6351 14.3086 27.5733 14.4579 27.5733 14.6135V19.129H23.1111C22.9555 19.129 22.8063 19.1908 22.6962 19.3008C22.5862 19.4109 22.5244 19.5601 22.5244 19.7157V20.1068C22.5244 20.2624 22.5862 20.4116 22.6962 20.5216C22.8063 20.6316 22.9555 20.6935 23.1111 20.6935H28C28.3128 20.6935 28.6131 20.5704 28.836 20.3509C29.0589 20.1314 29.1864 19.8329 29.1911 19.5201V14.6135C29.1917 14.53 29.1745 14.4475 29.1407 14.3712C29.1069 14.295 29.0572 14.2268 28.9949 14.1713C28.9327 14.1158 28.8593 14.0742 28.7797 14.0493C28.7001 14.0243 28.6161 14.0167 28.5333 14.0268Z" fill="white"/>
</g>
<defs>
<linearGradient id="paint0_linear_855_68134" x1="15.6445" y1="22.88" x2="15.6445" y2="1.54663" gradientUnits="userSpaceOnUse">
<stop stop-color="#0078D4"/>
<stop offset="0.82" stop-color="#5EA0EF"/>
</linearGradient>
<linearGradient id="paint1_linear_855_68134" x1="15.6622" y1="31.111" x2="15.6622" y2="22.8799" gradientUnits="userSpaceOnUse">
<stop stop-color="#1490DF"/>
<stop offset="0.98" stop-color="#1F56A3"/>
</linearGradient>
<clipPath id="clip0_855_68134">
<rect width="32" height="32" fill="white"/>
</clipPath>
</defs>
</svg>
