<svg width="32" height="32" viewBox="0 0 32 32" fill="none" xmlns="http://www.w3.org/2000/svg">
<g clip-path="url(#clip0_855_68148)">
<path d="M23.6622 0.995605H1.67112C1.12129 0.995605 0.675568 1.44133 0.675568 1.99116V30.0089C0.675568 30.5588 1.12129 31.0045 1.67112 31.0045H23.6622C24.2121 31.0045 24.6578 30.5588 24.6578 30.0089V1.99116C24.6578 1.44133 24.2121 0.995605 23.6622 0.995605Z" fill="url(#paint0_linear_855_68148)"/>
<path d="M31.2533 22.009L26.1511 16.9067C26.1141 16.8734 26.0685 16.851 26.0194 16.8423C25.9703 16.8335 25.9198 16.8387 25.8735 16.8572C25.8273 16.8757 25.7871 16.9068 25.7576 16.947C25.7281 16.9872 25.7105 17.0348 25.7067 17.0845V20.0712C19.5733 20.0712 13.44 23.3423 13.44 29.2445C14.3111 27.929 18.7733 24.4267 25.7067 24.4267V27.289C25.7105 27.3387 25.7281 27.3863 25.7576 27.4265C25.7871 27.4666 25.8273 27.4978 25.8735 27.5163C25.9198 27.5348 25.9703 27.5399 26.0194 27.5312C26.0685 27.5224 26.1141 27.5001 26.1511 27.4667L31.2533 22.3645C31.2971 22.3156 31.3212 22.2523 31.3212 22.1867C31.3212 22.1211 31.2971 22.0578 31.2533 22.009Z" fill="#773ADC"/>
<path d="M19.6622 9.95557V18.0978L12.6756 22.1867V14.0267L19.6622 9.95557Z" fill="#50E6FF"/>
<path d="M19.6622 9.95559L12.6756 14.0445L5.67111 9.95559L12.6756 5.8667L19.6622 9.95559Z" fill="#C3F1FF"/>
<path d="M12.6756 14.0445V22.1867L5.67111 18.0978V9.95557L12.6756 14.0445Z" fill="#9CEBFF"/>
<path d="M5.67111 18.0977L12.6756 14.0266V22.1866L5.67111 18.0977Z" fill="#C3F1FF"/>
<path d="M19.6622 18.0977L12.6756 14.0266V22.1866L19.6622 18.0977Z" fill="#9CEBFF"/>
</g>
<defs>
<linearGradient id="paint0_linear_855_68148" x1="12.6578" y1="31.0045" x2="12.6578" y2="0.995605" gradientUnits="userSpaceOnUse">
<stop stop-color="#32BEDD"/>
<stop offset="0.36" stop-color="#34C1E0"/>
<stop offset="0.63" stop-color="#3CCBE8"/>
<stop offset="0.88" stop-color="#48DBF6"/>
<stop offset="1" stop-color="#50E6FF"/>
</linearGradient>
<clipPath id="clip0_855_68148">
<rect width="32" height="32" fill="white"/>
</clipPath>
</defs>
</svg>
