<svg width="32" height="32" viewBox="0 0 32 32" fill="none" xmlns="http://www.w3.org/2000/svg">
<path d="M21.0134 1.15552H1.4578C0.966878 1.15552 0.568909 1.55349 0.568909 2.04441V26.9511C0.568909 27.442 0.966878 27.84 1.4578 27.84H21.0134C21.5043 27.84 21.9022 27.442 21.9022 26.9511V2.04441C21.9022 1.55349 21.5043 1.15552 21.0134 1.15552Z" fill="#0078D4"/>
<path d="M24.1244 4.15991H4.56888C4.07796 4.15991 3.67999 4.55788 3.67999 5.0488V29.9555C3.67999 30.4464 4.07796 30.8444 4.56888 30.8444H24.1244C24.6154 30.8444 25.0133 30.4464 25.0133 29.9555V5.0488C25.0133 4.55788 24.6154 4.15991 24.1244 4.15991Z" fill="url(#paint0_linear_855_68152)"/>
<path d="M31.36 22.7377L26.2578 17.6532C26.2247 17.6105 26.1786 17.5796 26.1264 17.5654C26.0742 17.5512 26.0187 17.5543 25.9685 17.5744C25.9183 17.5945 25.876 17.6305 25.848 17.6767C25.82 17.723 25.8078 17.7772 25.8134 17.831V20.7999C19.68 20.7999 13.5467 24.071 13.5467 29.991C14.4178 28.6755 18.88 25.1732 25.8134 25.1732V28.0177C25.814 28.0689 25.8293 28.1188 25.8576 28.1616C25.8858 28.2043 25.9257 28.238 25.9726 28.2586C26.0195 28.2792 26.0713 28.2859 26.1219 28.2779C26.1724 28.2698 26.2196 28.2474 26.2578 28.2132L31.36 23.111C31.4018 23.0578 31.4246 22.9921 31.4246 22.9244C31.4246 22.8567 31.4018 22.7909 31.36 22.7377Z" fill="#773ADC"/>
<path d="M20.5689 12.1245V19.3601L14.3467 23.0045V15.7512L20.5689 12.1245Z" fill="#50E6FF"/>
<path d="M20.5689 12.1244L14.3467 15.7689L8.12445 12.1244L14.3467 8.47998L20.5689 12.1244Z" fill="#C3F1FF"/>
<path d="M14.3467 15.769V23.0045L8.12445 19.3601V12.1245L14.3467 15.769Z" fill="#9CEBFF"/>
<path d="M8.12445 19.3599L14.3467 15.751V23.0043L8.12445 19.3599Z" fill="#C3F1FF"/>
<path d="M20.5689 19.3599L14.3467 15.751V23.0043L20.5689 19.3599Z" fill="#9CEBFF"/>
<defs>
<linearGradient id="paint0_linear_855_68152" x1="14.3467" y1="30.8444" x2="14.3467" y2="4.15991" gradientUnits="userSpaceOnUse">
<stop stop-color="#32BEDD"/>
<stop offset="0.3" stop-color="#36C3E1"/>
<stop offset="0.67" stop-color="#41D2EE"/>
<stop offset="1" stop-color="#50E6FF"/>
</linearGradient>
</defs>
</svg>
