<svg width="32" height="32" viewBox="0 0 32 32" fill="none" xmlns="http://www.w3.org/2000/svg">
<path d="M15.2427 21.927C15.1887 21.9259 15.1355 21.9141 15.0862 21.8924C15.0368 21.8707 14.9922 21.8394 14.9548 21.8005C14.9175 21.7615 14.8883 21.7156 14.8687 21.6653C14.8492 21.615 14.8397 21.5614 14.8409 21.5075C14.8409 21.2888 14.8409 21.063 14.8409 20.8301H14.1547C14.0457 20.8301 13.9413 20.7869 13.8643 20.7098C13.7873 20.6328 13.744 20.5284 13.744 20.4195C13.744 20.3105 13.7873 20.2061 13.8643 20.1291C13.9413 20.0521 14.0457 20.0088 14.1547 20.0088H15.2498C15.3587 20.0088 15.4631 20.0521 15.5402 20.1291C15.6172 20.2061 15.6604 20.3105 15.6604 20.4195C15.6604 20.807 15.6604 21.1756 15.6604 21.5252C15.6581 21.6338 15.6128 21.7371 15.5345 21.8124C15.4562 21.8877 15.3513 21.9289 15.2427 21.927Z" fill="#37C2B1"/>
<path d="M13.6622 25.8507C13.57 25.8497 13.4807 25.8176 13.4089 25.7597C13.3371 25.7018 13.2869 25.6214 13.2663 25.5315C13.2458 25.4415 13.2561 25.3473 13.2957 25.2639C13.3353 25.1806 13.4018 25.113 13.4845 25.072C13.7687 24.9318 14.0172 24.7286 14.211 24.4778C14.4048 24.227 14.5387 23.9353 14.6027 23.6249C14.6331 23.5214 14.7031 23.434 14.7974 23.3816C14.8918 23.3293 15.003 23.3162 15.1069 23.3452C15.2108 23.3741 15.2992 23.4428 15.3529 23.5364C15.4066 23.63 15.4213 23.741 15.3938 23.8454C15.2978 24.2667 15.1094 24.6615 14.8422 25.0013C14.575 25.341 14.2358 25.6171 13.8489 25.8098C13.7907 25.8378 13.7268 25.8518 13.6622 25.8507Z" fill="#37C2B1"/>
<path d="M12.3129 27.6729H11.2178C11.1638 27.6731 11.1103 27.6627 11.0603 27.6421C11.0104 27.6215 10.965 27.5913 10.9269 27.5531C10.8887 27.5149 10.8584 27.4696 10.8379 27.4196C10.8173 27.3697 10.8069 27.3162 10.8071 27.2622C10.8098 26.7884 10.9914 26.3331 11.3155 25.9875C11.3898 25.9076 11.4928 25.8605 11.6018 25.8565C11.7108 25.8525 11.817 25.8919 11.8969 25.9662C11.9768 26.0405 12.0239 26.1434 12.0279 26.2525C12.0319 26.3615 11.9925 26.4676 11.9182 26.5475C11.8344 26.637 11.7659 26.7398 11.7155 26.8515H12.3129C12.4218 26.8515 12.5263 26.8948 12.6033 26.9718C12.6803 27.0488 12.7235 27.1533 12.7235 27.2622C12.7235 27.3711 12.6803 27.4756 12.6033 27.5526C12.5263 27.6296 12.4218 27.6729 12.3129 27.6729Z" fill="#37C2B1"/>
<path d="M21.1876 27.6729H18.9689C18.86 27.6729 18.7555 27.6296 18.6785 27.5526C18.6015 27.4756 18.5582 27.3711 18.5582 27.2622C18.5582 27.1533 18.6015 27.0489 18.6785 26.9718C18.7555 26.8948 18.86 26.8516 18.9689 26.8516H21.1876C21.2965 26.8516 21.4009 26.8948 21.4779 26.9718C21.555 27.0489 21.5982 27.1533 21.5982 27.2622C21.5982 27.3711 21.555 27.4756 21.4779 27.5526C21.4009 27.6296 21.2965 27.6729 21.1876 27.6729Z" fill="#37C2B1"/>
<path d="M24.5013 27.6729H23.4062C23.2973 27.6729 23.1928 27.6296 23.1158 27.5526C23.0388 27.4756 22.9955 27.3712 22.9955 27.2622C22.9955 27.1533 23.0388 27.0489 23.1158 26.9719C23.1928 26.8948 23.2973 26.8516 23.4062 26.8516H24C23.9492 26.7406 23.8808 26.6385 23.7973 26.5494C23.73 26.4688 23.696 26.3655 23.7025 26.2607C23.7089 26.1559 23.7552 26.0576 23.8319 25.9859C23.9086 25.9142 24.0099 25.8746 24.1149 25.8753C24.2199 25.8759 24.3206 25.9167 24.3964 25.9894C24.7234 26.3328 24.9072 26.788 24.9102 27.2622C24.9102 27.3709 24.8672 27.475 24.7906 27.552C24.7139 27.629 24.6099 27.6724 24.5013 27.6729Z" fill="#37C2B1"/>
<path d="M22.0533 25.8524C21.9918 25.8523 21.931 25.8384 21.8756 25.8115C21.4886 25.6205 21.1489 25.346 20.8808 25.0079C20.6127 24.6697 20.423 24.2763 20.3253 23.856C20.3107 23.804 20.3065 23.7497 20.3129 23.6961C20.3193 23.6426 20.3362 23.5908 20.3626 23.5437C20.389 23.4967 20.4245 23.4553 20.4669 23.4219C20.5093 23.3886 20.5578 23.3639 20.6098 23.3493C20.6617 23.3347 20.716 23.3305 20.7696 23.3369C20.8232 23.3433 20.875 23.3602 20.922 23.3866C20.9691 23.413 21.0105 23.4484 21.0438 23.4908C21.0772 23.5332 21.1019 23.5818 21.1164 23.6337C21.1814 23.9442 21.3161 24.2359 21.5105 24.4866C21.7048 24.7373 21.9537 24.9406 22.2382 25.0808C22.3209 25.1218 22.3874 25.1894 22.427 25.2727C22.4666 25.3561 22.4769 25.4503 22.4564 25.5403C22.4358 25.6302 22.3856 25.7106 22.3138 25.7686C22.2419 25.8265 22.1527 25.8585 22.0604 25.8595L22.0533 25.8524Z" fill="#37C2B1"/>
<path d="M20.4676 21.927C20.3602 21.927 20.257 21.885 20.1803 21.8099C20.1035 21.7348 20.0592 21.6326 20.0569 21.5252C20.0569 21.1697 20.0569 20.8141 20.0569 20.4195C20.0574 20.3107 20.1008 20.2065 20.1777 20.1296C20.2546 20.0527 20.3588 20.0093 20.4676 20.0088H21.5627C21.6716 20.0088 21.776 20.0521 21.853 20.1291C21.9301 20.2061 21.9733 20.3105 21.9733 20.4195C21.9733 20.5284 21.9301 20.6328 21.853 20.7098C21.776 20.7869 21.6716 20.8301 21.5627 20.8301H20.8711C20.8711 21.063 20.8711 21.2888 20.8711 21.5075C20.8723 21.5614 20.8628 21.615 20.8433 21.6653C20.8237 21.7156 20.7945 21.7615 20.7571 21.8005C20.7198 21.8394 20.6752 21.8707 20.6258 21.8924C20.5764 21.9141 20.5233 21.9259 20.4693 21.927H20.4676Z" fill="#37C2B1"/>
<path d="M30.1636 20.8301H28.0124C27.9035 20.8301 27.7991 20.7869 27.7221 20.7099C27.645 20.6328 27.6018 20.5284 27.6018 20.4195C27.6018 20.3106 27.645 20.2061 27.7221 20.1291C27.7991 20.0521 27.9035 20.0088 28.0124 20.0088H30.1636C30.2725 20.0088 30.3769 20.0521 30.4539 20.1291C30.531 20.2061 30.5742 20.3106 30.5742 20.4195C30.5742 20.5284 30.531 20.6328 30.4539 20.7099C30.3769 20.7869 30.2725 20.8301 30.1636 20.8301ZM25.8596 20.8301H23.7084C23.5995 20.8301 23.4951 20.7869 23.4181 20.7099C23.341 20.6328 23.2978 20.5284 23.2978 20.4195C23.2978 20.3106 23.341 20.2061 23.4181 20.1291C23.4951 20.0521 23.5995 20.0088 23.7084 20.0088H25.8596C25.9685 20.0088 26.0729 20.0521 26.1499 20.1291C26.227 20.2061 26.2702 20.3106 26.2702 20.4195C26.2702 20.5284 26.227 20.6328 26.1499 20.7099C26.0729 20.7869 25.9685 20.8301 25.8596 20.8301ZM11.9929 20.8301H9.84C9.73108 20.8301 9.62663 20.7869 9.54961 20.7099C9.4726 20.6328 9.42933 20.5284 9.42933 20.4195C9.42933 20.3106 9.4726 20.2061 9.54961 20.1291C9.62663 20.0521 9.73108 20.0088 9.84 20.0088H11.9929C12.1018 20.0088 12.2063 20.0521 12.2833 20.1291C12.3603 20.2061 12.4036 20.3106 12.4036 20.4195C12.4036 20.5284 12.3603 20.6328 12.2833 20.7099C12.2063 20.7869 12.1018 20.8301 11.9929 20.8301ZM7.68889 20.8301H5.536C5.42708 20.8301 5.32263 20.7869 5.24561 20.7099C5.1686 20.6328 5.12533 20.5284 5.12533 20.4195C5.12533 20.3106 5.1686 20.2061 5.24561 20.1291C5.32263 20.0521 5.42708 20.0088 5.536 20.0088H7.68889C7.7978 20.0088 7.90226 20.0521 7.97927 20.1291C8.05629 20.2061 8.09956 20.3106 8.09956 20.4195C8.09956 20.5284 8.05629 20.6328 7.97927 20.7099C7.90226 20.7869 7.7978 20.8301 7.68889 20.8301ZM31.1396 19.2728C31.0856 19.273 31.0321 19.2626 30.9821 19.242C30.9322 19.2215 30.8868 19.1912 30.8486 19.153C30.8105 19.1149 30.7802 19.0695 30.7597 19.0196C30.7391 18.9696 30.7287 18.9161 30.7289 18.8621V16.711C30.7289 16.6021 30.7722 16.4977 30.8492 16.4206C30.9262 16.3436 31.0306 16.3004 31.1396 16.3004C31.2485 16.3004 31.3529 16.3436 31.4299 16.4206C31.507 16.4977 31.5502 16.6021 31.5502 16.711V18.8621C31.5502 18.9711 31.507 19.0755 31.4299 19.1525C31.3529 19.2295 31.2485 19.2728 31.1396 19.2728ZM4.57244 19.2728C4.46353 19.2728 4.35907 19.2295 4.28206 19.1525C4.20504 19.0755 4.16178 18.9711 4.16178 18.8621V16.7004C4.16178 16.5914 4.20504 16.487 4.28206 16.41C4.35907 16.333 4.46353 16.2897 4.57244 16.2897C4.68136 16.2897 4.78581 16.333 4.86283 16.41C4.93984 16.487 4.98311 16.5914 4.98311 16.7004V18.8533C4.98264 18.962 4.93923 19.0662 4.86231 19.1431C4.7854 19.22 4.68122 19.2635 4.57244 19.2639V19.2728ZM31.1396 14.9688C31.0856 14.969 31.0321 14.9586 30.9821 14.938C30.9322 14.9175 30.8868 14.8872 30.8486 14.849C30.8105 14.8109 30.7802 14.7655 30.7597 14.7156C30.7391 14.6656 30.7287 14.6121 30.7289 14.5581V12.407C30.7289 12.2981 30.7722 12.1937 30.8492 12.1166C30.9262 12.0396 31.0306 11.9964 31.1396 11.9964C31.2485 11.9964 31.3529 12.0396 31.4299 12.1166C31.507 12.1937 31.5502 12.2981 31.5502 12.407V14.5581C31.5502 14.6671 31.507 14.7715 31.4299 14.8485C31.3529 14.9255 31.2485 14.9688 31.1396 14.9688ZM4.57244 14.9599C4.46353 14.9599 4.35907 14.9166 4.28206 14.8396C4.20504 14.7626 4.16178 14.6582 4.16178 14.5493V12.3964C4.16178 12.2874 4.20504 12.183 4.28206 12.106C4.35907 12.029 4.46353 11.9857 4.57244 11.9857C4.68136 11.9857 4.78581 12.029 4.86283 12.106C4.93984 12.183 4.98311 12.2874 4.98311 12.3964V14.5493C4.98264 14.658 4.93923 14.7622 4.86231 14.8391C4.7854 14.916 4.68122 14.9594 4.57244 14.9599ZM31.1396 10.6666C31.0856 10.6668 31.0321 10.6564 30.9821 10.6358C30.9322 10.6152 30.8868 10.585 30.8486 10.5468C30.8105 10.5086 30.7802 10.4633 30.7597 10.4134C30.7391 10.3634 30.7287 10.3099 30.7289 10.2559V8.10303C30.7289 7.99411 30.7722 7.88966 30.8492 7.81264C30.9262 7.73563 31.0306 7.69236 31.1396 7.69236C31.2485 7.69236 31.3529 7.73563 31.4299 7.81264C31.507 7.88966 31.5502 7.99411 31.5502 8.10303V10.2541C31.5505 10.3082 31.54 10.3618 31.5195 10.4118C31.4989 10.4619 31.4687 10.5074 31.4306 10.5457C31.3924 10.584 31.3471 10.6144 31.2971 10.6352C31.2472 10.6559 31.1936 10.6666 31.1396 10.6666ZM4.57244 10.6541C4.51845 10.6544 4.46494 10.6439 4.41501 10.6234C4.36508 10.6028 4.31972 10.5726 4.28153 10.5344C4.24335 10.4962 4.21311 10.4508 4.19256 10.4009C4.172 10.351 4.16154 10.2975 4.16178 10.2435V8.09236C4.16178 7.98345 4.20504 7.87899 4.28206 7.80198C4.35907 7.72496 4.46353 7.6817 4.57244 7.6817C4.68136 7.6817 4.78581 7.72496 4.86283 7.80198C4.93984 7.87899 4.98311 7.98345 4.98311 8.09236V10.2435C4.98311 10.2974 4.97249 10.3508 4.95185 10.4006C4.93121 10.4505 4.90096 10.4957 4.86283 10.5339C4.8247 10.572 4.77942 10.6022 4.7296 10.6229C4.67978 10.6435 4.62637 10.6541 4.57244 10.6541ZM31.1396 6.36081C31.0856 6.36104 31.0321 6.35058 30.9821 6.33003C30.9322 6.30947 30.8868 6.27923 30.8486 6.24105C30.8105 6.20287 30.7802 6.1575 30.7597 6.10757C30.7391 6.05764 30.7287 6.00413 30.7289 5.95014V3.79903C30.7289 3.69011 30.7722 3.58566 30.8492 3.50864C30.9262 3.43163 31.0306 3.38836 31.1396 3.38836C31.2485 3.38836 31.3529 3.43163 31.4299 3.50864C31.507 3.58566 31.5502 3.69011 31.5502 3.79903V5.95014C31.5502 6.05905 31.507 6.16351 31.4299 6.24052C31.3529 6.31754 31.2485 6.36081 31.1396 6.36081ZM4.57244 6.35014C4.51845 6.35037 4.46494 6.33991 4.41501 6.31936C4.36508 6.2988 4.31972 6.26856 4.28153 6.23038C4.24335 6.1922 4.21311 6.14684 4.19256 6.09691C4.172 6.04698 4.16154 5.99347 4.16178 5.93947V3.78836C4.16178 3.67945 4.20504 3.57499 4.28206 3.49798C4.35907 3.42096 4.46353 3.3777 4.57244 3.3777C4.68136 3.3777 4.78581 3.42096 4.86283 3.49798C4.93984 3.57499 4.98311 3.67945 4.98311 3.78836V5.93947C4.98311 5.9934 4.97249 6.0468 4.95185 6.09663C4.93121 6.14645 4.90096 6.19172 4.86283 6.22986C4.8247 6.26799 4.77942 6.29824 4.7296 6.31888C4.67978 6.33952 4.62637 6.35014 4.57244 6.35014ZM29.6889 3.11992H27.5449C27.436 3.11992 27.3315 3.07665 27.2545 2.99964C27.1775 2.92262 27.1342 2.81817 27.1342 2.70925C27.1342 2.60034 27.1775 2.49588 27.2545 2.41887C27.3315 2.34185 27.436 2.29858 27.5449 2.29858H29.6889C29.7428 2.29858 29.7962 2.30921 29.846 2.32984C29.8959 2.35048 29.9411 2.38073 29.9793 2.41887C30.0174 2.457 30.0477 2.50227 30.0683 2.5521C30.0889 2.60192 30.0996 2.65532 30.0996 2.70925C30.0996 2.76318 30.0889 2.81658 30.0683 2.86641C30.0477 2.91623 30.0174 2.9615 29.9793 2.99964C29.9411 3.03777 29.8959 3.06802 29.846 3.08866C29.7962 3.1093 29.7428 3.11992 29.6889 3.11992ZM25.3831 3.11992H23.232C23.1231 3.11992 23.0186 3.07665 22.9416 2.99964C22.8646 2.92262 22.8213 2.81817 22.8213 2.70925C22.8213 2.60034 22.8646 2.49588 22.9416 2.41887C23.0186 2.34185 23.1231 2.29858 23.232 2.29858H25.3831C25.437 2.29858 25.4904 2.30921 25.5403 2.32984C25.5901 2.35048 25.6354 2.38073 25.6735 2.41887C25.7116 2.457 25.7419 2.50227 25.7625 2.5521C25.7832 2.60192 25.7938 2.65532 25.7938 2.70925C25.7938 2.76318 25.7832 2.81658 25.7625 2.86641C25.7419 2.91623 25.7116 2.9615 25.6735 2.99964C25.6354 3.03777 25.5901 3.06802 25.5403 3.08866C25.4904 3.1093 25.437 3.11992 25.3831 3.11992ZM21.0791 3.11992H18.928C18.8191 3.11992 18.7146 3.07665 18.6376 2.99964C18.5606 2.92262 18.5173 2.81817 18.5173 2.70925C18.5173 2.60034 18.5606 2.49588 18.6376 2.41887C18.7146 2.34185 18.8191 2.29858 18.928 2.29858H21.0791C21.133 2.29858 21.1864 2.30921 21.2363 2.32984C21.2861 2.35048 21.3314 2.38073 21.3695 2.41887C21.4076 2.457 21.4379 2.50227 21.4585 2.5521C21.4792 2.60192 21.4898 2.65532 21.4898 2.70925C21.4898 2.76318 21.4792 2.81658 21.4585 2.86641C21.4379 2.91623 21.4076 2.9615 21.3695 2.99964C21.3314 3.03777 21.2861 3.06802 21.2363 3.08866C21.1864 3.1093 21.133 3.11992 21.0791 3.11992ZM16.7751 3.11992H14.6329C14.524 3.11992 14.4195 3.07665 14.3425 2.99964C14.2655 2.92262 14.2222 2.81817 14.2222 2.70925C14.2222 2.60034 14.2655 2.49588 14.3425 2.41887C14.4195 2.34185 14.524 2.29858 14.6329 2.29858H16.784C16.8379 2.29858 16.8913 2.30921 16.9412 2.32984C16.991 2.35048 17.0363 2.38073 17.0744 2.41887C17.1125 2.457 17.1428 2.50227 17.1634 2.5521C17.184 2.60192 17.1947 2.65532 17.1947 2.70925C17.1947 2.76318 17.184 2.81658 17.1634 2.86641C17.1428 2.91623 17.1125 2.9615 17.0744 2.99964C17.0363 3.03777 16.991 3.06802 16.9412 3.08866C16.8913 3.1093 16.8379 3.11992 16.784 3.11992H16.7751ZM12.4711 3.11992H10.3289C10.22 3.11992 10.1155 3.07665 10.0385 2.99964C9.96149 2.92262 9.91822 2.81817 9.91822 2.70925C9.91822 2.60034 9.96149 2.49588 10.0385 2.41887C10.1155 2.34185 10.22 2.29858 10.3289 2.29858H12.48C12.5339 2.29858 12.5873 2.30921 12.6372 2.32984C12.687 2.35048 12.7323 2.38073 12.7704 2.41887C12.8085 2.457 12.8388 2.50227 12.8594 2.5521C12.88 2.60192 12.8907 2.65532 12.8907 2.70925C12.8907 2.76318 12.88 2.81658 12.8594 2.86641C12.8388 2.91623 12.8085 2.9615 12.7704 2.99964C12.7323 3.03777 12.687 3.06802 12.6372 3.08866C12.5873 3.1093 12.5339 3.11992 12.48 3.11992H12.4711ZM8.16711 3.11992H6.02489C5.91597 3.11992 5.81152 3.07665 5.7345 2.99964C5.65749 2.92262 5.61422 2.81817 5.61422 2.70925C5.61422 2.60034 5.65749 2.49588 5.7345 2.41887C5.81152 2.34185 5.91597 2.29858 6.02489 2.29858H8.17778C8.28669 2.29858 8.39115 2.34185 8.46816 2.41887C8.54518 2.49588 8.58844 2.60034 8.58844 2.70925C8.58844 2.81817 8.54518 2.92262 8.46816 2.99964C8.39115 3.07665 8.28669 3.11992 8.17778 3.11992H8.16711Z" fill="#37C2B1"/>
<path d="M26.1298 5.14844H1.33688C0.846941 5.14844 0.449768 5.54561 0.449768 6.03555V21.9733C0.449768 22.4633 0.846941 22.8604 1.33688 22.8604H26.1298C26.6197 22.8604 27.0169 22.4633 27.0169 21.9733V6.03555C27.0169 5.54561 26.6197 5.14844 26.1298 5.14844Z" fill="url(#paint0_linear_855_68153)"/>
<path d="M19.0613 28.2168C16.4356 27.8061 16.3324 25.9057 16.3396 22.8604H11.1289C11.1289 25.911 11.0329 27.8061 8.40534 28.2168C8.04815 28.2723 7.72169 28.4512 7.48266 28.7224C7.24364 28.9936 7.10714 29.3399 7.09689 29.7012H20.3804C20.3681 29.3389 20.2295 28.9922 19.9886 28.7211C19.7477 28.4501 19.4198 28.2717 19.0613 28.2168Z" fill="#1F56A3"/>
<path d="M17.7547 11.3403V16.0177L13.7333 18.3768V13.687L17.7547 11.3403Z" fill="#50E6FF"/>
<path d="M17.7547 11.3403L13.7476 13.6994L9.71378 11.3403L13.7476 8.99536L17.7547 11.3403Z" fill="#C3F1FF"/>
<path d="M13.7333 13.6994V18.3768L9.71378 16.0177V11.3403L13.7333 13.6994Z" fill="#9CEBFF"/>
<path d="M9.71378 16.0177L13.7333 13.687V18.3768L9.71378 16.0177Z" fill="#C3F1FF"/>
<path d="M17.7547 16.0177L13.7333 13.687V18.3768L17.7547 16.0177Z" fill="#9CEBFF"/>
<path d="M8.21155 7.25317H4.52622C4.29047 7.25317 4.06438 7.34682 3.89768 7.51352C3.73098 7.68022 3.63733 7.90631 3.63733 8.14206V11.8398C3.63733 11.898 3.64878 11.9555 3.67103 12.0092C3.69327 12.0629 3.72588 12.1117 3.76698 12.1529C3.80809 12.194 3.85689 12.2266 3.91059 12.2488C3.9643 12.2711 4.02186 12.2825 4.08 12.2825H4.37511C4.49251 12.2825 4.6051 12.2359 4.68812 12.1529C4.77114 12.0698 4.81777 11.9572 4.81777 11.8398V8.4194H8.21155C8.32662 8.41615 8.43586 8.36802 8.51591 8.28531C8.59597 8.20259 8.64051 8.09184 8.64 7.97673V7.69584C8.64051 7.58073 8.59597 7.46998 8.51591 7.38726C8.43586 7.30455 8.32662 7.25642 8.21155 7.25317Z" fill="white"/>
<path d="M8.21156 18.8603H4.8V15.4665C4.8 15.3496 4.75355 15.2375 4.67087 15.1548C4.58819 15.0721 4.47605 15.0256 4.35911 15.0256H4.08889C3.9718 15.0256 3.85947 15.072 3.77651 15.1547C3.69354 15.2373 3.6467 15.3494 3.64623 15.4665V19.2194C3.64384 19.4536 3.734 19.6794 3.89713 19.8475C4.06025 20.0156 4.28314 20.1125 4.51734 20.1172H8.21156C8.27142 20.1147 8.3302 20.1003 8.38448 20.075C8.43877 20.0496 8.48749 20.0138 8.52783 19.9694C8.56816 19.9251 8.59932 19.8733 8.61949 19.8169C8.63966 19.7604 8.64844 19.7006 8.64534 19.6407V19.5945V19.3012C8.64535 19.1855 8.59988 19.0744 8.51873 18.9919C8.43758 18.9094 8.32725 18.8622 8.21156 18.8603Z" fill="white"/>
<path d="M22.9955 7.28882H19.3635C19.3055 7.28859 19.248 7.29982 19.1943 7.32187C19.1406 7.34392 19.0918 7.37636 19.0506 7.41733C19.0095 7.45829 18.9769 7.50697 18.9546 7.56058C18.9323 7.61419 18.9209 7.67166 18.9209 7.72971V8.01771C18.9153 8.07556 18.9212 8.13395 18.9383 8.18949C18.9554 8.24504 18.9834 8.29663 19.0206 8.34128C19.0578 8.38593 19.1035 8.42275 19.1551 8.4496C19.2066 8.47645 19.263 8.49281 19.3209 8.49771H22.7555V11.863C22.7553 11.9212 22.7666 11.9789 22.7888 12.0327C22.8109 12.0865 22.8435 12.1354 22.8847 12.1766C22.9258 12.2177 22.9747 12.2503 23.0285 12.2725C23.0823 12.2947 23.14 12.3059 23.1982 12.3057H23.5058C23.564 12.3059 23.6216 12.2947 23.6754 12.2725C23.7293 12.2503 23.7782 12.2177 23.8193 12.1766C23.8605 12.1354 23.8931 12.0865 23.9152 12.0327C23.9374 11.9789 23.9487 11.9212 23.9484 11.863V8.17771C23.9484 7.94196 23.8548 7.71587 23.6881 7.54917C23.5214 7.38247 23.2953 7.28882 23.0595 7.28882H22.9955Z" fill="white"/>
<path d="M23.4507 15.054H23.1698C23.1117 15.0538 23.0542 15.065 23.0005 15.087C22.9468 15.1091 22.898 15.1415 22.8569 15.1825C22.8158 15.2235 22.7831 15.2721 22.7609 15.3258C22.7386 15.3794 22.7271 15.4368 22.7271 15.4949V18.8993H19.3636C19.2462 18.8993 19.1336 18.946 19.0506 19.029C18.9675 19.112 18.9209 19.2246 18.9209 19.342V19.6371C18.9209 19.7545 18.9675 19.8671 19.0506 19.9501C19.1336 20.0331 19.2462 20.0798 19.3636 20.0798H23.0489C23.2855 20.0798 23.5125 19.9864 23.6806 19.82C23.8487 19.6535 23.9443 19.4274 23.9467 19.1909V15.4949C23.9472 15.3778 23.9012 15.2653 23.8189 15.182C23.7366 15.0987 23.6247 15.0514 23.5076 15.0504C23.4885 15.0499 23.4695 15.051 23.4507 15.054Z" fill="white"/>
<defs>
<linearGradient id="paint0_linear_855_68153" x1="13.7333" y1="22.8604" x2="13.7333" y2="5.14844" gradientUnits="userSpaceOnUse">
<stop stop-color="#0078D4"/>
<stop offset="0.817" stop-color="#5EA0EF"/>
</linearGradient>
</defs>
</svg>
