<svg width="32" height="32" viewBox="0 0 32 32" fill="none" xmlns="http://www.w3.org/2000/svg">
<path d="M12.7644 26.0214C19.6668 26.0214 25.2622 20.426 25.2622 13.5237C25.2622 6.62132 19.6668 1.02588 12.7644 1.02588C5.86211 1.02588 0.266663 6.62132 0.266663 13.5237C0.266663 20.426 5.86211 26.0214 12.7644 26.0214Z" fill="url(#paint0_radial_855_68144)"/>
<path d="M12.8142 24.4054C18.8241 24.4054 23.696 19.5335 23.696 13.5236C23.696 7.51378 18.8241 2.64185 12.8142 2.64185C6.80437 2.64185 1.93243 7.51378 1.93243 13.5236C1.93243 19.5335 6.80437 24.4054 12.8142 24.4054Z" fill="white"/>
<path d="M12.512 20.8533H13.1129V22.72H12.512V20.8533ZM5.93421 7.07552L6.36087 6.64885L7.67999 7.96796L7.25332 8.39463L5.93421 7.07552ZM6.02665 19.8755L7.34576 18.5564L7.77243 18.9831L6.45332 20.3022L6.02665 19.8755ZM3.45776 13.2089H5.32443V13.8097H3.45776V13.2089ZM17.3244 16.8604L14.1458 13.6995C14.0073 13.5636 13.8224 13.4855 13.6284 13.4809C13.6903 13.3725 13.7233 13.2501 13.7244 13.1253V5.08085C13.724 4.87825 13.6433 4.68409 13.5 4.54083C13.3568 4.39757 13.1626 4.31688 12.96 4.31641H12.8142C12.6113 4.31641 12.4167 4.39689 12.273 4.5402C12.1294 4.68351 12.0485 4.87794 12.048 5.08085V13.1342C12.0485 13.3371 12.1294 13.5315 12.273 13.6748C12.4167 13.8181 12.6113 13.8986 12.8142 13.8986H12.8995C12.7904 14.0434 12.7366 14.2225 12.748 14.4035C12.7594 14.5845 12.8353 14.7554 12.9618 14.8853L16.1262 18.0444C16.27 18.1868 16.4642 18.2667 16.6667 18.2667C16.8691 18.2667 17.0633 18.1868 17.2071 18.0444L17.3102 17.9413C17.4526 17.7975 17.5325 17.6033 17.5325 17.4009C17.5325 17.1984 17.4526 17.0042 17.3102 16.8604H17.3244Z" fill="#7A7A7A"/>
<path d="M12.8213 15.2747C13.7992 15.2747 14.592 14.482 14.592 13.5041C14.592 12.5262 13.7992 11.7334 12.8213 11.7334C11.8434 11.7334 11.0507 12.5262 11.0507 13.5041C11.0507 14.482 11.8434 15.2747 12.8213 15.2747Z" fill="url(#paint1_radial_855_68144)"/>
<path d="M15.7422 29.4792L25.5822 18.2366C26.4655 18.4309 27.3843 18.3894 28.2465 18.1164C29.1087 17.8434 29.8839 17.3483 30.4942 16.681C31.0647 16.0516 31.4573 15.2816 31.6316 14.4502C31.806 13.6188 31.7558 12.7559 31.4862 11.9503L28.8818 14.8748L26.096 14.3592L25.1716 11.7157L27.7778 8.83568C26.9254 8.67644 26.0466 8.73737 25.2243 9.01269C24.4021 9.28801 23.6637 9.76861 23.0791 10.409C22.51 11.0356 22.1205 11.8041 21.9515 12.6335C21.7826 13.463 21.8405 14.3226 22.1191 15.1219L11.6302 27.113C11.2319 27.5785 11.0332 28.1824 11.0773 28.7935C11.1214 29.4046 11.4048 29.9737 11.8659 30.3772C12.3269 30.7807 12.9286 30.9861 13.5401 30.9488C14.1517 30.9115 14.7239 30.6345 15.1325 30.1779L15.7422 29.4792Z" fill="#949494"/>
<defs>
<radialGradient id="paint0_radial_855_68144" cx="0" cy="0" r="1" gradientUnits="userSpaceOnUse" gradientTransform="translate(12.7602 13.5179) scale(12.491)">
<stop offset="0.183" stop-color="#5EA0EF"/>
<stop offset="0.555" stop-color="#5C9FEE"/>
<stop offset="0.689" stop-color="#559CED"/>
<stop offset="0.785" stop-color="#4A97E9"/>
<stop offset="0.862" stop-color="#3990E4"/>
<stop offset="0.928" stop-color="#2387DE"/>
<stop offset="0.985" stop-color="#087BD6"/>
<stop offset="1" stop-color="#0078D4"/>
</radialGradient>
<radialGradient id="paint1_radial_855_68144" cx="0" cy="0" r="1" gradientUnits="userSpaceOnUse" gradientTransform="translate(12.8113 13.5388) scale(1.74518)">
<stop stop-color="#7F7F7F"/>
<stop offset="1" stop-color="#5E5E5E"/>
</radialGradient>
</defs>
</svg>
