<svg width="32" height="32" viewBox="0 0 32 32" fill="none" xmlns="http://www.w3.org/2000/svg">
<g clip-path="url(#clip0_855_68132)">
<path d="M18.0445 5.2942L15.792 3.64087L13.5769 5.27642L3.07913 12.7591L7.16447 25.1111L8.01958 27.7262H11.3867V25.1129L9.90758 25.1111L6.27558 13.8133L15.792 6.94754L25.3831 13.8311L24.7485 15.8026H27.4987V15.9022L28.5067 12.8498V12.7591L18.0445 5.2942Z" fill="#E27908"/>
<path d="M8.65423 31.2496C11.1324 31.2496 13.1413 29.2407 13.1413 26.7625C13.1413 24.2843 11.1324 22.2754 8.65423 22.2754C6.17606 22.2754 4.16711 24.2843 4.16711 26.7625C4.16711 29.2407 6.17606 31.2496 8.65423 31.2496Z" fill="url(#paint0_linear_855_68132)"/>
<path d="M27.2356 17.8097C29.7137 17.8097 31.7227 15.8007 31.7227 13.3226C31.7227 10.8444 29.7137 8.83545 27.2356 8.83545C24.7574 8.83545 22.7484 10.8444 22.7484 13.3226C22.7484 15.8007 24.7574 17.8097 27.2356 17.8097Z" fill="url(#paint1_linear_855_68132)"/>
<path d="M4.76446 17.8097C7.24262 17.8097 9.25157 15.8007 9.25157 13.3226C9.25157 10.8444 7.24262 8.83545 4.76446 8.83545C2.28629 8.83545 0.277344 10.8444 0.277344 13.3226C0.277344 15.8007 2.28629 17.8097 4.76446 17.8097Z" fill="url(#paint2_linear_855_68132)"/>
<path d="M15.792 9.62657C18.2702 9.62657 20.2791 7.61762 20.2791 5.13945C20.2791 2.66129 18.2702 0.652344 15.792 0.652344C13.3138 0.652344 11.3049 2.66129 11.3049 5.13945C11.3049 7.61762 13.3138 9.62657 15.792 9.62657Z" fill="url(#paint3_linear_855_68132)"/>
<path d="M23.4862 29.3902L24.5227 28.9564L26.3218 29.7848L27.3991 28.7075L27.2942 28.4977L26.5458 27.0755L26.848 25.9982L28.5689 25.2871V23.7511L28.4889 23.6853L26.8889 23.1342L26.4818 22.0835L27.296 20.5066L27.3742 20.3288L26.8889 19.8044L26.3111 19.1999L26.1014 19.3048L24.5636 20.0924L23.5129 19.7902L22.8445 18.0835H21.3209L21.2409 18.1617L20.7165 19.7244L19.6391 20.1315L17.8614 19.2906L16.784 20.3679L16.8889 20.5777L17.6907 22.1013L17.2569 23.1519L15.408 23.8222V25.3582L15.632 25.4239L17.2605 25.9573L17.6942 27.0737L16.8534 28.8515L17.9307 29.9413L18.1405 29.8506L19.6765 29.0631L20.7271 29.4951L21.3974 31.3475H22.9476M22.1191 26.7111C21.693 26.7135 21.2757 26.5895 20.92 26.3548C20.5643 26.1201 20.2862 25.7852 20.1209 25.3924C19.9555 24.9997 19.9103 24.5667 19.9911 24.1483C20.0718 23.7298 20.2748 23.3447 20.5744 23.0417C20.874 22.7386 21.2567 22.5312 21.6742 22.4456C22.0916 22.3601 22.5251 22.4002 22.9198 22.561C23.3144 22.7218 23.6525 22.996 23.8913 23.349C24.1301 23.702 24.2589 24.1178 24.2614 24.5439C24.2614 25.1144 24.0365 25.6619 23.6354 26.0676C23.2344 26.4733 22.6896 26.7045 22.1191 26.7111Z" fill="url(#paint4_linear_855_68132)"/>
</g>
<defs>
<linearGradient id="paint0_linear_855_68132" x1="8.64487" y1="29.8862" x2="8.6389" y2="20.9048" gradientUnits="userSpaceOnUse">
<stop stop-color="#EF7100"/>
<stop offset="1" stop-color="#FAA21D"/>
</linearGradient>
<linearGradient id="paint1_linear_855_68132" x1="27.2356" y1="17.8097" x2="27.2356" y2="8.83723" gradientUnits="userSpaceOnUse">
<stop stop-color="#EF7100"/>
<stop offset="1" stop-color="#FAA21D"/>
</linearGradient>
<linearGradient id="paint2_linear_855_68132" x1="4.76445" y1="17.8097" x2="4.76445" y2="8.83723" gradientUnits="userSpaceOnUse">
<stop stop-color="#EF7100"/>
<stop offset="1" stop-color="#FAA21D"/>
</linearGradient>
<linearGradient id="paint3_linear_855_68132" x1="15.792" y1="9.62479" x2="15.792" y2="0.652344" gradientUnits="userSpaceOnUse">
<stop stop-color="#EF7100"/>
<stop offset="1" stop-color="#FAA21D"/>
</linearGradient>
<linearGradient id="paint4_linear_855_68132" x1="21.9876" y1="31.3475" x2="21.9876" y2="18.0835" gradientUnits="userSpaceOnUse">
<stop stop-color="#773ADC"/>
<stop offset="0.204" stop-color="#7B3FDE"/>
<stop offset="0.459" stop-color="#864FE4"/>
<stop offset="0.741" stop-color="#9968ED"/>
<stop offset="0.899" stop-color="#A67AF4"/>
</linearGradient>
<clipPath id="clip0_855_68132">
<rect width="32" height="32" fill="white"/>
</clipPath>
</defs>
</svg>
