<svg width="32" height="32" viewBox="0 0 32 32" fill="none" xmlns="http://www.w3.org/2000/svg">
<g clip-path="url(#clip0_855_68146)">
<path d="M16 17.2444L11.5556 21.6889C11.5556 21.3333 11.2 20.9777 11.0222 20.6222C10.8444 20.2666 10.6667 20.2666 10.4889 20.2666L14.7556 16L10.1333 11.3777C10.4165 11.2694 10.6737 11.1026 10.8882 10.8881C11.1026 10.6737 11.2694 10.4165 11.3778 10.1333L16 14.7555L20.6222 10.1333C20.8 10.4889 20.8 10.6666 21.1556 10.8444C21.4231 10.9774 21.6641 11.1582 21.8667 11.3777L17.2444 16L21.6889 20.4444C21.3864 20.543 21.1217 20.7324 20.9308 20.987C20.7399 21.2415 20.6322 21.5487 20.6222 21.8666L16 17.2444Z" fill="#E27908"/>
<path d="M9.77777 24.1778L13.6889 28.0889V27.9112C13.7204 27.1687 14.0391 26.4676 14.5778 25.9556L11.3778 22.7556C11.2869 23.127 11.0851 23.462 10.7993 23.716C10.5136 23.97 10.1573 24.1311 9.77777 24.1778Z" fill="#E27908"/>
<path d="M3.9111 18.1333L7.64444 22.0444C7.66414 21.6827 7.79388 21.3356 8.01629 21.0497C8.23869 20.7637 8.54314 20.5525 8.88888 20.4444L5.86666 17.2444C5.35471 17.783 4.65355 18.1017 3.9111 18.1333Z" fill="#E27908"/>
<path d="M7.64443 9.95557L4.44443 13.1556C4.81336 13.2214 5.16352 13.3668 5.47054 13.5818C5.77756 13.7967 6.03407 14.0759 6.22221 14.4L9.24443 11.3778L8.17776 10.8445C7.99998 10.4889 7.82221 10.3111 7.64443 9.95557Z" fill="#E27908"/>
<path d="M13.6889 3.91113L9.95554 7.64447C10.3 7.72886 10.6147 7.90607 10.8654 8.15682C11.1162 8.40757 11.2934 8.72226 11.3778 9.06669L14.5778 5.86669C14.2958 5.62536 14.0702 5.32524 13.9166 4.98741C13.7631 4.64957 13.6853 4.28221 13.6889 3.91113Z" fill="#E27908"/>
<path d="M22.2222 7.64442L18.6666 4.08887C18.6357 4.44679 18.5236 4.79294 18.3387 5.101C18.1539 5.40906 17.9012 5.67092 17.6 5.86664L20.8 9.06664C20.8844 8.72222 21.0616 8.40752 21.3123 8.15677C21.5631 7.90603 21.8778 7.72882 22.2222 7.64442Z" fill="#E27908"/>
<path d="M27.9111 13.3333L24.5333 9.95557C24.4489 10.3 24.2717 10.6147 24.021 10.8654C23.7702 11.1162 23.4555 11.2934 23.1111 11.3778L26.3111 14.5778C26.4405 14.2452 26.6575 13.9538 26.9393 13.7347C27.221 13.5155 27.5568 13.3769 27.9111 13.3333Z" fill="#E27908"/>
<path d="M26.3111 17.4224L23.2889 20.4446C23.6444 20.6224 23.8222 20.6224 24 20.9779C24.1737 21.1344 24.3113 21.3267 24.4034 21.5415C24.4955 21.7564 24.5398 21.9887 24.5333 22.2224L28.2667 18.489C27.5174 18.3521 26.8319 17.9782 26.3111 17.4224Z" fill="#E27908"/>
<path d="M20.8 22.9333L17.7778 25.9556L17.9555 26.1333C18.1961 26.3602 18.3844 26.6368 18.5072 26.9438C18.63 27.2508 18.6844 27.5809 18.6667 27.9111L22.4 24.1778C22.1663 24.1843 21.934 24.14 21.7192 24.0479C21.5043 23.9558 21.312 23.8182 21.1555 23.6445C20.9686 23.4483 20.8447 23.2006 20.8 22.9333Z" fill="#E27908"/>
<path d="M9.59999 12.2667C11.0727 12.2667 12.2667 11.0728 12.2667 9.60002C12.2667 8.12726 11.0727 6.93335 9.59999 6.93335C8.12723 6.93335 6.93332 8.12726 6.93332 9.60002C6.93332 11.0728 8.12723 12.2667 9.59999 12.2667Z" fill="#F78D1E"/>
<path d="M22.4 12.2667C23.8728 12.2667 25.0667 11.0728 25.0667 9.60002C25.0667 8.12726 23.8728 6.93335 22.4 6.93335C20.9272 6.93335 19.7333 8.12726 19.7333 9.60002C19.7333 11.0728 20.9272 12.2667 22.4 12.2667Z" fill="#F78D1E"/>
<path d="M9.59999 25.0667C11.0727 25.0667 12.2667 23.8728 12.2667 22.4001C12.2667 20.9273 11.0727 19.7334 9.59999 19.7334C8.12723 19.7334 6.93332 20.9273 6.93332 22.4001C6.93332 23.8728 8.12723 25.0667 9.59999 25.0667Z" fill="#F78D1E"/>
<path d="M22.4 25.0667C23.8728 25.0667 25.0667 23.8728 25.0667 22.4001C25.0667 20.9273 23.8728 19.7334 22.4 19.7334C20.9272 19.7334 19.7333 20.9273 19.7333 22.4001C19.7333 23.8728 20.9272 25.0667 22.4 25.0667Z" fill="#F78D1E"/>
<path d="M3.9111 12.6223C4.57916 12.6223 5.23222 12.8204 5.7877 13.1916C6.34317 13.5627 6.77611 14.0903 7.03176 14.7075C7.28742 15.3247 7.35431 16.0038 7.22398 16.6591C7.09365 17.3143 6.77194 17.9162 6.29955 18.3885C5.82716 18.8609 5.2253 19.1826 4.57007 19.313C3.91485 19.4433 3.23569 19.3764 2.61848 19.1208C2.00128 18.8651 1.47374 18.4322 1.10258 17.8767C0.731428 17.3212 0.533325 16.6682 0.533325 16.0001C0.533325 15.1043 0.889197 14.2451 1.52265 13.6116C2.15611 12.9782 3.01526 12.6223 3.9111 12.6223ZM28.0889 12.6223C28.7569 12.6223 29.41 12.8204 29.9655 13.1916C30.5209 13.5627 30.9539 14.0903 31.2095 14.7075C31.4652 15.3247 31.5321 16.0038 31.4018 16.6591C31.2714 17.3143 30.9497 17.9162 30.4773 18.3885C30.0049 18.8609 29.4031 19.1826 28.7479 19.313C28.0926 19.4433 27.4135 19.3764 26.7963 19.1208C26.1791 18.8651 25.6515 18.4322 25.2804 17.8767C24.9092 17.3212 24.7111 16.6682 24.7111 16.0001C24.7111 15.1043 25.067 14.2451 25.7004 13.6116C26.3339 12.9782 27.193 12.6223 28.0889 12.6223Z" fill="url(#paint0_linear_855_68146)"/>
<path d="M16 0.533447C16.6681 0.533447 17.3211 0.73155 17.8766 1.10271C18.4321 1.47386 18.865 2.0014 19.1207 2.61861C19.3763 3.23581 19.4432 3.91497 19.3129 4.5702C19.1825 5.22542 18.8608 5.82728 18.3885 6.29967C17.9161 6.77207 17.3142 7.09377 16.659 7.2241C16.0037 7.35443 15.3246 7.28754 14.7074 7.03189C14.0902 6.77623 13.5626 6.34329 13.1915 5.78782C12.8203 5.23235 12.6222 4.57929 12.6222 3.91123C12.6222 3.01538 12.9781 2.15623 13.6116 1.52278C14.245 0.889319 15.1042 0.533447 16 0.533447ZM16 24.7112C16.6681 24.7112 17.3211 24.9093 17.8766 25.2805C18.4321 25.6516 18.865 26.1792 19.1207 26.7964C19.3763 27.4136 19.4432 28.0927 19.3129 28.748C19.1825 29.4032 18.8608 30.0051 18.3885 30.4775C17.9161 30.9498 17.3142 31.2715 16.659 31.4019C16.0037 31.5322 15.3246 31.4653 14.7074 31.2097C14.0902 30.954 13.5626 30.5211 13.1915 29.9656C12.8203 29.4101 12.6222 28.7571 12.6222 28.089C12.6222 27.1932 12.9781 26.334 13.6116 25.7006C14.245 25.0671 15.1042 24.7112 16 24.7112Z" fill="url(#paint1_linear_855_68146)"/>
</g>
<defs>
<linearGradient id="paint0_linear_855_68146" x1="16" y1="19.6623" x2="16" y2="13.3868" gradientUnits="userSpaceOnUse">
<stop stop-color="#E26708"/>
<stop offset="1" stop-color="#F78D1E"/>
</linearGradient>
<linearGradient id="paint1_linear_855_68146" x1="16" y1="31.4668" x2="16" y2="0.533447" gradientUnits="userSpaceOnUse">
<stop stop-color="#E26708"/>
<stop offset="0.005" stop-color="#E26808"/>
<stop offset="0.117" stop-color="#EC7912"/>
<stop offset="0.257" stop-color="#F28419"/>
<stop offset="0.454" stop-color="#F68B1D"/>
<stop offset="1" stop-color="#F78D1E"/>
</linearGradient>
<clipPath id="clip0_855_68146">
<rect width="32" height="32" fill="white"/>
</clipPath>
</defs>
</svg>
