<svg width="32" height="32" viewBox="0 0 32 32" fill="none" xmlns="http://www.w3.org/2000/svg">
<g clip-path="url(#clip0_855_68137)">
<path d="M30.6311 1.54663H0.764421C0.175317 1.54663 -0.302246 2.02419 -0.302246 2.6133V21.8133C-0.302246 22.4024 0.175317 22.88 0.764421 22.88H30.6311C31.2202 22.88 31.6978 22.4024 31.6978 21.8133V2.6133C31.6978 2.02419 31.2202 1.54663 30.6311 1.54663Z" fill="url(#paint0_linear_855_68137)"/>
<path d="M29.3334 3.32446H2.06225C1.73825 3.32446 1.47559 3.58712 1.47559 3.91113V20.5156C1.47559 20.8396 1.73825 21.1022 2.06225 21.1022H29.3334C29.6574 21.1022 29.92 20.8396 29.92 20.5156V3.91113C29.92 3.58712 29.6574 3.32446 29.3334 3.32446Z" fill="white"/>
<path d="M21.0311 9.10229V15.3067L15.6978 18.4356V12.2134L21.0311 9.10229Z" fill="#0078D4"/>
<path d="M21.0311 9.10232L15.6978 12.2312L10.3644 9.10232L15.6978 5.99121L21.0311 9.10232Z" fill="#83B9F9"/>
<path d="M15.6978 12.2312V18.4356L10.3644 15.3067V9.10229L15.6978 12.2312Z" fill="#5EA0EF"/>
<path opacity="0.2" d="M10.3644 15.3067L15.6978 12.2134V18.4356L10.3644 15.3067Z" fill="#83B9F9"/>
<path opacity="0.2" d="M21.0311 15.3067L15.6978 12.2134V18.4356L21.0311 15.3067Z" fill="#5EA0EF"/>
<path d="M22.1156 29.3332C18.9511 28.8354 18.8267 26.5599 18.8267 22.8799H12.5511C12.5511 26.5599 12.4445 28.8354 9.28001 29.3332C8.84317 29.3816 8.43973 29.59 8.14754 29.9183C7.85534 30.2466 7.69512 30.6715 7.69779 31.111H23.6978C23.7005 30.6715 23.5402 30.2466 23.248 29.9183C22.9558 29.59 22.5524 29.3816 22.1156 29.3332Z" fill="url(#paint1_linear_855_68137)"/>
<path d="M9.06668 4.569H4.65779C4.51856 4.56664 4.38025 4.59203 4.25094 4.64368C4.12162 4.69533 4.00389 4.77222 3.9046 4.86985C3.80531 4.96749 3.72645 5.08392 3.67263 5.21235C3.61881 5.34078 3.59111 5.47864 3.59113 5.61789V10.0268C3.59113 10.1682 3.64732 10.3039 3.74734 10.4039C3.84735 10.5039 3.98301 10.5601 4.12446 10.5601H4.48001C4.62146 10.5601 4.75712 10.5039 4.85714 10.4039C4.95716 10.3039 5.01335 10.1682 5.01335 10.0268V5.95566H9.06668C9.20813 5.95566 9.34379 5.89947 9.4438 5.79946C9.54382 5.69944 9.60001 5.56378 9.60001 5.42233V5.08455C9.5954 4.94621 9.53718 4.81508 9.43766 4.71887C9.33813 4.62267 9.2051 4.56892 9.06668 4.569Z" fill="#5EA0EF"/>
<path d="M9.06668 18.4355H4.99557V14.3822C4.99557 14.2408 4.93938 14.1051 4.83936 14.0051C4.73934 13.9051 4.60369 13.8489 4.46224 13.8489H4.12446C3.98301 13.8489 3.84735 13.9051 3.74734 14.0051C3.64732 14.1051 3.59113 14.2408 3.59113 14.3822V18.7911C3.59111 18.9303 3.61881 19.0682 3.67263 19.1966C3.72645 19.3251 3.80531 19.4415 3.9046 19.5391C4.00389 19.6368 4.12162 19.7137 4.25094 19.7653C4.38025 19.817 4.51856 19.8423 4.65779 19.84H9.06668C9.2051 19.8401 9.33813 19.7863 9.43766 19.6901C9.53718 19.5939 9.5954 19.4628 9.60001 19.3244V18.9689C9.60001 18.8988 9.58622 18.8295 9.55942 18.7648C9.53261 18.7001 9.49333 18.6413 9.4438 18.5918C9.39428 18.5422 9.33549 18.5029 9.27078 18.4761C9.20607 18.4493 9.13672 18.4355 9.06668 18.4355Z" fill="#5EA0EF"/>
<path d="M26.6667 4.60448H22.3289C22.2582 4.60199 22.1877 4.61409 22.1219 4.64001C22.056 4.66594 21.9963 4.70513 21.9462 4.75516C21.8962 4.80519 21.857 4.86498 21.8311 4.93081C21.8052 4.99664 21.7931 5.0671 21.7955 5.13781V5.47559C21.7955 5.54481 21.8094 5.61334 21.8364 5.67708C21.8634 5.74082 21.903 5.79846 21.9528 5.84657C22.0026 5.89469 22.0615 5.93228 22.1261 5.95712C22.1907 5.98196 22.2597 5.99353 22.3289 5.99114H26.3822V10.08C26.3822 10.1493 26.3961 10.2178 26.4231 10.2815C26.4501 10.3453 26.4897 10.4029 26.5394 10.451C26.5892 10.4991 26.6482 10.5367 26.7128 10.5616C26.7774 10.5864 26.8464 10.598 26.9155 10.5956H27.2711C27.4078 10.5956 27.539 10.5413 27.6357 10.4446C27.7323 10.3479 27.7867 10.2168 27.7867 10.08V5.67114C27.7895 5.52572 27.762 5.3813 27.706 5.24707C27.65 5.11283 27.5667 4.99171 27.4613 4.8914C27.356 4.79109 27.231 4.71378 27.0942 4.66439C26.9574 4.61499 26.8118 4.59459 26.6667 4.60448Z" fill="#5EA0EF"/>
<path d="M27.2711 13.8845H26.9333C26.7919 13.8845 26.6562 13.9407 26.5562 14.0407C26.4562 14.1408 26.4 14.2764 26.4 14.4179V18.4712H22.3289C22.2582 18.4687 22.1877 18.4808 22.1219 18.5067C22.056 18.5326 21.9963 18.5718 21.9462 18.6219C21.8962 18.6719 21.857 18.7317 21.8311 18.7975C21.8052 18.8634 21.7931 18.9338 21.7955 19.0045V19.3601C21.7955 19.5015 21.8517 19.6372 21.9518 19.7372C22.0518 19.8372 22.1874 19.8934 22.3289 19.8934H26.6667C26.8059 19.8934 26.9438 19.8657 27.0722 19.8119C27.2006 19.7581 27.3171 19.6792 27.4147 19.5799C27.5123 19.4807 27.5892 19.3629 27.6409 19.2336C27.6925 19.1043 27.7179 18.966 27.7155 18.8267V14.4179C27.7173 14.2905 27.6735 14.1668 27.592 14.069C27.5105 13.9712 27.3966 13.9057 27.2711 13.8845Z" fill="#5EA0EF"/>
</g>
<defs>
<linearGradient id="paint0_linear_855_68137" x1="15.6978" y1="22.88" x2="15.6978" y2="1.54663" gradientUnits="userSpaceOnUse">
<stop stop-color="#0078D4"/>
<stop offset="0.82" stop-color="#5EA0EF"/>
</linearGradient>
<linearGradient id="paint1_linear_855_68137" x1="15.6978" y1="31.111" x2="15.6978" y2="22.8799" gradientUnits="userSpaceOnUse">
<stop stop-color="#1490DF"/>
<stop offset="0.98" stop-color="#1F56A3"/>
</linearGradient>
<clipPath id="clip0_855_68137">
<rect width="32" height="32" fill="white"/>
</clipPath>
</defs>
</svg>
