<svg width="32" height="32" viewBox="0 0 32 32" fill="none" xmlns="http://www.w3.org/2000/svg">
<path d="M20.181 26.8219C26.6581 26.8219 31.9088 21.5711 31.9088 15.094C31.9088 8.61694 26.6581 3.36621 20.181 3.36621C13.7039 3.36621 8.45319 8.61694 8.45319 15.094C8.45319 21.5711 13.7039 26.8219 20.181 26.8219Z" fill="#005BA1"/>
<path d="M11.9467 3.02344C9.57363 3.48681 7.39236 4.64644 5.681 6.35445C3.96964 8.06245 2.80573 10.2414 2.3377 12.6136C1.86967 14.9857 2.11871 17.4435 3.05308 19.6735C3.98745 21.9035 5.5648 23.8047 7.584 25.1347L8.00249 24.0841C8.0171 24.0459 8.04162 24.0123 8.07353 23.9867C8.10544 23.9611 8.14358 23.9445 8.18404 23.9386C8.22449 23.9327 8.26579 23.9377 8.30369 23.953C8.34159 23.9684 8.37471 23.9935 8.39965 24.0259L11.4068 27.9072C11.4449 27.9563 11.4622 28.0183 11.4551 28.0801C11.448 28.1418 11.417 28.1983 11.3687 28.2375C11.3357 28.264 11.296 28.2809 11.254 28.2864L6.42631 28.9744C6.39578 28.9783 6.36476 28.9762 6.33505 28.9681C6.30535 28.96 6.27753 28.9461 6.25321 28.9272C6.22889 28.9083 6.20855 28.8848 6.19334 28.858C6.17814 28.8312 6.16838 28.8017 6.16463 28.7712C6.15947 28.7313 6.16442 28.6908 6.17903 28.6533L6.79111 27.0986C3.66396 25.1715 1.40803 22.1046 0.499559 18.5454C-0.337775 15.3941 0.101513 12.0396 1.72208 9.2102C3.34264 6.38075 6.01372 4.30459 9.15556 3.43233C10.0667 3.18694 11.0035 3.0497 11.9467 3.02344Z" fill="#86D633"/>
<path d="M14.7284 3.2959C12.4178 3.29396 10.1575 3.97111 8.22858 5.24319C6.29965 6.51527 4.78709 8.32619 3.87891 10.4509C2.97073 12.5755 2.70698 14.9202 3.12045 17.1936C3.53391 19.4669 4.60635 21.5686 6.20447 23.2374C6.54984 23.58 6.91688 23.9001 7.30332 24.1956L7.43683 23.8605C7.49997 23.7007 7.61041 23.564 7.75339 23.4687C7.89636 23.3734 8.06503 23.324 8.23683 23.3272C8.33836 23.3295 8.43862 23.3503 8.53265 23.3887C8.66982 23.4445 8.78984 23.5355 8.88056 23.6525L10.8836 26.2379C12.504 26.7978 14.2269 26.9976 15.9324 26.8236C17.6379 26.6495 19.285 26.1058 20.7589 25.2302C22.2328 24.3546 23.4981 23.1682 24.4667 21.7536C25.4352 20.3391 26.0838 18.7304 26.3671 17.0396C26.6505 15.3488 26.5619 13.6166 26.1074 11.9635C25.6529 10.3105 24.8435 8.77644 23.7356 7.46815C22.6277 6.15987 21.2479 5.10885 19.6923 4.38828C18.1367 3.66772 16.4428 3.29493 14.7284 3.2959Z" fill="url(#paint0_linear_855_68128)"/>
<path d="M19.8755 11.9094V17.897L14.7289 20.9156V14.9121L19.8755 11.9094Z" fill="url(#paint1_linear_855_68128)"/>
<path d="M19.8755 11.9094L14.7449 14.9281L9.58221 11.9094L14.7449 8.90674L19.8755 11.9094Z" fill="#C3F1FF"/>
<path d="M14.7289 14.9281V20.9156L9.58221 17.897V11.9094L14.7289 14.9281Z" fill="url(#paint2_linear_855_68128)"/>
<path d="M11.3111 7.71558H7.66451C7.4324 7.71562 7.20982 7.80785 7.0457 7.97197C6.88158 8.13609 6.78935 8.35867 6.78931 8.59078V12.2502C6.78931 12.3662 6.8354 12.4775 6.91745 12.5595C6.9995 12.6416 7.11078 12.6877 7.22682 12.6877H7.51855C7.57602 12.6877 7.63293 12.6764 7.68603 12.6544C7.73914 12.6324 7.78739 12.6002 7.82803 12.5596C7.86868 12.519 7.90092 12.4707 7.92292 12.4176C7.94492 12.3645 7.95624 12.3076 7.95624 12.2502V8.86864H11.3111C11.4249 8.86522 11.5328 8.81759 11.612 8.73587C11.6913 8.65416 11.7355 8.54478 11.7354 8.43095V8.15255C11.7353 8.03887 11.6909 7.92969 11.6117 7.84814C11.5325 7.76658 11.4247 7.71904 11.3111 7.71558Z" fill="white"/>
<path d="M11.3111 21.2266H7.94295V17.8716C7.94295 17.7556 7.89686 17.6443 7.81481 17.5622C7.73276 17.4802 7.62148 17.4341 7.50544 17.4341H7.22687C7.11083 17.4341 6.99955 17.4802 6.9175 17.5622C6.83545 17.6443 6.78935 17.7556 6.78935 17.8716V21.5847C6.78754 21.6996 6.8084 21.8138 6.85074 21.9207C6.89308 22.0276 6.95607 22.1251 7.03611 22.2077C7.11615 22.2902 7.21167 22.3562 7.31721 22.4018C7.42276 22.4474 7.53625 22.4718 7.65122 22.4735H11.3111C11.3703 22.4707 11.4283 22.4563 11.4818 22.4311C11.5354 22.4058 11.5835 22.3703 11.6233 22.3265C11.6631 22.2827 11.6939 22.2314 11.7139 22.1757C11.7339 22.12 11.7428 22.0609 11.7399 22.0017L11.7355 21.9555V21.6638C11.7354 21.55 11.6911 21.4408 11.6119 21.3592C11.5327 21.2776 11.4248 21.23 11.3111 21.2266Z" fill="white"/>
<path d="M21.7259 7.75591H18.1323C18.0748 7.75591 18.0179 7.76723 17.9648 7.78923C17.9117 7.81123 17.8635 7.84347 17.8228 7.88411C17.7822 7.92476 17.75 7.97301 17.728 8.02611C17.706 8.07921 17.6947 8.13613 17.6948 8.1936V8.472C17.6895 8.52922 17.6956 8.58692 17.7126 8.6418C17.7297 8.69668 17.7574 8.74766 17.7942 8.79183C17.8309 8.83599 17.876 8.87248 17.9269 8.8992C17.9778 8.92592 18.0334 8.94235 18.0907 8.94755C18.1045 8.9488 18.1184 8.94951 18.1323 8.94951H21.4873V12.2779C21.4873 12.3939 21.5334 12.5052 21.6154 12.5872C21.6975 12.6693 21.8088 12.7154 21.9248 12.7154H22.2299C22.3459 12.7154 22.4572 12.6693 22.5392 12.5872C22.6213 12.5052 22.6674 12.3939 22.6674 12.2779V8.63111C22.6677 8.51617 22.6454 8.4023 22.6017 8.29599C22.558 8.18968 22.4938 8.09302 22.4128 8.01152C22.3318 7.93002 22.2355 7.86527 22.1294 7.82099C22.0234 7.77671 21.9096 7.75374 21.7947 7.75342C21.7717 7.75342 21.7488 7.75431 21.7259 7.75591Z" fill="white"/>
<path d="M22.1767 17.462H21.8983C21.7822 17.462 21.6709 17.5081 21.5888 17.5902C21.5067 17.6722 21.4606 17.7836 21.4606 17.8997V21.2678H18.1323C18.0162 21.2678 17.905 21.3139 17.8229 21.396C17.7409 21.478 17.6948 21.5893 17.6948 21.7053V21.9971C17.6947 22.0545 17.706 22.1115 17.728 22.1646C17.75 22.2177 17.7822 22.2659 17.8228 22.3066C17.8635 22.3472 17.9117 22.3794 17.9648 22.4014C18.0179 22.4234 18.0748 22.4348 18.1323 22.4348H21.779C22.0124 22.4348 22.2365 22.343 22.4028 22.1793C22.5691 22.0155 22.6643 21.7929 22.6679 21.5596V17.8997C22.6688 17.7836 22.6235 17.672 22.5421 17.5893C22.4606 17.5066 22.3497 17.4597 22.2336 17.4588C22.2146 17.4586 22.1956 17.4596 22.1767 17.462Z" fill="white"/>
<defs>
<linearGradient id="paint0_linear_855_68128" x1="14.7284" y1="26.8923" x2="14.7284" y2="3.2959" gradientUnits="userSpaceOnUse">
<stop stop-color="#0078D4"/>
<stop offset="1" stop-color="#5EA0EF"/>
</linearGradient>
<linearGradient id="paint1_linear_855_68128" x1="19.8315" y1="18.1245" x2="15.3417" y2="15.0861" gradientUnits="userSpaceOnUse">
<stop stop-color="#32BEDD"/>
<stop offset="1" stop-color="#9CEBFF"/>
</linearGradient>
<linearGradient id="paint2_linear_855_68128" x1="12.1548" y1="20.9162" x2="12.1548" y2="11.9091" gradientUnits="userSpaceOnUse">
<stop stop-color="#32BEDD"/>
<stop offset="1" stop-color="#9CEBFF"/>
</linearGradient>
</defs>
</svg>
