<svg width="32" height="32" viewBox="0 0 32 32" fill="none" xmlns="http://www.w3.org/2000/svg">
<path d="M14.4827 1.54663C11.8396 2.06292 9.41019 3.35462 7.50414 5.25705C5.59809 7.15949 4.30177 9.58645 3.78047 12.2285C3.25916 14.8706 3.53649 17.6081 4.57709 20.0919C5.61769 22.5757 7.37442 24.6934 9.62329 26.1749L10.0894 25.0046C10.1058 24.9621 10.1331 24.9247 10.1687 24.8963C10.2042 24.8679 10.2467 24.8494 10.2917 24.8428C10.3368 24.8362 10.3828 24.8418 10.425 24.8588C10.4672 24.8759 10.5041 24.9038 10.5319 24.9399L13.8812 29.2631C13.9237 29.3177 13.9431 29.3869 13.9352 29.4556C13.9273 29.5244 13.8927 29.5873 13.8389 29.6309C13.8022 29.6605 13.758 29.6794 13.7113 29.6855L8.33387 30.4519C8.29984 30.4563 8.26527 30.4539 8.23217 30.4448C8.19907 30.4358 8.16808 30.4203 8.14098 30.3993C8.11388 30.3782 8.09122 30.352 8.07428 30.3222C8.05735 30.2923 8.04648 30.2594 8.04231 30.2254C8.03655 30.181 8.04205 30.1359 8.05831 30.0942L8.73938 28.3625C5.25648 26.2156 2.74395 22.7995 1.73209 18.8352C0.799376 15.3251 1.28858 11.5888 3.09352 8.4372C4.89847 5.28558 7.87351 2.97295 11.373 2.00121C12.3881 1.72817 13.4319 1.5756 14.4827 1.54663Z" fill="#86D633"/>
<path d="M17.5811 1.84888C15.0073 1.84662 12.4896 2.60084 10.3409 4.01779C8.19224 5.43475 6.50739 7.45194 5.49579 9.81863C4.48419 12.1853 4.19045 14.7971 4.6511 17.3294C5.11175 19.8616 6.30646 22.2027 8.08673 24.0615C8.47129 24.443 8.88008 24.7993 9.31055 25.1282L9.45917 24.7548C9.5297 24.577 9.65283 24.4249 9.81212 24.3189C9.97141 24.2129 10.1593 24.1581 10.3506 24.1618C10.4895 24.1651 10.6259 24.1993 10.75 24.262C10.874 24.3246 10.9825 24.4142 11.0675 24.5241L13.2986 27.4041C15.1036 28.0278 17.0229 28.2504 18.9227 28.0566C20.8225 27.8627 22.6573 27.2571 24.2991 26.2817C25.9409 25.3064 27.3504 23.9848 28.4293 22.4091C29.5082 20.8334 30.2307 19.0414 30.5463 17.158C30.8619 15.2746 30.7631 13.345 30.2568 11.5036C29.7505 9.66224 28.8489 7.9534 27.6147 6.4961C26.3806 5.0388 24.8435 3.86807 23.1107 3.06548C21.3778 2.26288 19.4908 1.84771 17.5811 1.84888Z" fill="url(#paint0_linear_855_68130)"/>
<path d="M23.3138 11.4434V18.1118L17.5804 21.4754V14.7874L23.3138 11.4434Z" fill="url(#paint1_linear_855_68130)"/>
<path d="M23.3138 11.4434L17.6 14.8069L11.8489 11.4434L17.6 8.09937L23.3138 11.4434Z" fill="#C3F1FF"/>
<path d="M17.5804 14.8069V21.4754L11.8489 18.1118V11.4434L17.5804 14.8069Z" fill="url(#paint2_linear_855_68130)"/>
<path d="M13.7749 6.77148H9.71285C9.45433 6.77148 9.2064 6.87418 9.0236 7.05698C8.84079 7.23979 8.7381 7.48772 8.7381 7.74624V11.823C8.7381 11.9523 8.78943 12.0763 8.88081 12.1677C8.97219 12.2591 9.09613 12.3105 9.22539 12.3105H9.55036C9.67965 12.3105 9.80364 12.2591 9.89506 12.1677C9.98647 12.0763 10.0378 11.9523 10.0378 11.823V8.05646H13.7749C13.9016 8.05262 14.0218 7.99957 14.11 7.90856C14.1982 7.81755 14.2475 7.69575 14.2474 7.569V7.25877C14.2475 7.13205 14.1982 7.01029 14.11 6.91932C14.0217 6.82835 13.9016 6.77532 13.7749 6.77148Z" fill="white"/>
<path d="M13.775 21.8217H10.0231V18.0846C10.0231 17.9553 9.97177 17.8314 9.88035 17.7399C9.78893 17.6485 9.66495 17.5972 9.53566 17.5972H9.22544C9.09619 17.5972 8.97224 17.6486 8.88086 17.74C8.78948 17.8314 8.73815 17.9554 8.73815 18.0846V22.2205C8.7362 22.3485 8.75948 22.4756 8.80667 22.5946C8.85386 22.7136 8.92404 22.8222 9.01318 22.9141C9.10233 23.006 9.2087 23.0794 9.32623 23.1302C9.44376 23.1809 9.57014 23.208 9.69815 23.21H9.71291H13.775C13.908 23.2036 14.033 23.1446 14.1226 23.046C14.2121 22.9474 14.2588 22.8173 14.2525 22.6843L14.2475 22.6338V22.3092C14.2476 22.1824 14.1983 22.0606 14.1101 21.9696C14.0219 21.8786 13.9016 21.8255 13.775 21.8217Z" fill="white"/>
<path d="M25.3756 6.81723H21.3728C21.3088 6.81721 21.2454 6.8298 21.1862 6.85429C21.1271 6.87878 21.0733 6.91468 21.028 6.95995C20.9828 7.00523 20.9469 7.05897 20.9224 7.11812C20.8979 7.17728 20.8853 7.24068 20.8853 7.3047V7.61474C20.8736 7.74348 20.9134 7.87162 20.9961 7.97097C21.0789 8.07032 21.1977 8.13275 21.3264 8.14452C21.3418 8.14597 21.3573 8.14662 21.3728 8.14648H25.1097V11.854C25.1097 11.9833 25.161 12.1073 25.2525 12.1987C25.3439 12.2901 25.4679 12.3415 25.5971 12.3415H25.9378C26.0671 12.3415 26.191 12.2901 26.2825 12.1987C26.3739 12.1073 26.4252 11.9833 26.4252 11.854V7.79199C26.4259 7.53343 26.3239 7.28518 26.1416 7.10182C25.9594 6.91846 25.7117 6.81501 25.4531 6.81421C25.4267 6.81439 25.4011 6.81528 25.3756 6.81723Z" fill="white"/>
<path d="M25.8779 17.6283H25.5677C25.5037 17.6283 25.4403 17.6409 25.3811 17.6654C25.322 17.6899 25.2683 17.7258 25.223 17.771C25.1777 17.8163 25.1418 17.87 25.1173 17.9292C25.0928 17.9883 25.0802 18.0517 25.0802 18.1157V21.8668H21.3728C21.3088 21.8668 21.2454 21.8794 21.1863 21.9039C21.1271 21.9284 21.0734 21.9643 21.0281 22.0096C20.9828 22.0548 20.9469 22.1086 20.9224 22.1677C20.8979 22.2269 20.8854 22.2903 20.8854 22.3543V22.6793C20.8854 22.7433 20.898 22.8067 20.9225 22.8658C20.947 22.9249 20.9829 22.9787 21.0282 23.0239C21.0734 23.0692 21.1272 23.105 21.1863 23.1295C21.2455 23.154 21.3088 23.1666 21.3728 23.1666H25.4347C25.6946 23.1666 25.9442 23.0644 26.1293 22.882C26.3145 22.6996 26.4205 22.4517 26.4244 22.1918V18.1155C26.4249 18.0463 26.4106 17.9777 26.3825 17.9143C26.3544 17.851 26.3131 17.7944 26.2614 17.7482C26.2097 17.7021 26.1487 17.6675 26.0826 17.6468C26.0165 17.6261 25.9467 17.6199 25.8779 17.6283Z" fill="white"/>
<defs>
<linearGradient id="paint0_linear_855_68130" x1="17.5811" y1="28.1326" x2="17.5811" y2="1.84924" gradientUnits="userSpaceOnUse">
<stop stop-color="#0078D4"/>
<stop offset="1" stop-color="#5EA0EF"/>
</linearGradient>
<linearGradient id="paint1_linear_855_68130" x1="23.2652" y1="18.3662" x2="18.2644" y2="14.9817" gradientUnits="userSpaceOnUse">
<stop stop-color="#32BEDD"/>
<stop offset="1" stop-color="#9CEBFF"/>
</linearGradient>
<linearGradient id="paint2_linear_855_68130" x1="14.7147" y1="21.4757" x2="14.7147" y2="11.4428" gradientUnits="userSpaceOnUse">
<stop stop-color="#32BEDD"/>
<stop offset="1" stop-color="#9CEBFF"/>
</linearGradient>
</defs>
</svg>
