<svg width="32" height="32" viewBox="0 0 32 32" fill="none" xmlns="http://www.w3.org/2000/svg">
<path d="M28.4444 12.7999L18.2044 5.49327L16 3.87549L13.8311 5.47549L3.55554 12.7999L7.55554 24.8888L8.3911 27.4488H23.68L24.48 24.8888L28.4444 12.8888V12.7999ZM10.24 24.8888L6.68443 13.831L16 7.11104L25.3867 13.8488L21.8311 24.9066L10.24 24.8888Z" fill="#E27908"/>
<path d="M9.01333 30.8977C11.4385 30.8977 13.4044 28.9317 13.4044 26.5066C13.4044 24.0814 11.4385 22.1155 9.01333 22.1155C6.58819 22.1155 4.62222 24.0814 4.62222 26.5066C4.62222 28.9317 6.58819 30.8977 9.01333 30.8977Z" fill="url(#paint0_linear_855_68150)"/>
<path d="M22.7378 30.8977C25.1629 30.8977 27.1289 28.9317 27.1289 26.5066C27.1289 24.0814 25.1629 22.1155 22.7378 22.1155C20.3126 22.1155 18.3467 24.0814 18.3467 26.5066C18.3467 28.9317 20.3126 30.8977 22.7378 30.8977Z" fill="url(#paint1_linear_855_68150)"/>
<path d="M27.2 17.7422C29.6252 17.7422 31.5911 15.7762 31.5911 13.3511C31.5911 10.9259 29.6252 8.95996 27.2 8.95996C24.7749 8.95996 22.8089 10.9259 22.8089 13.3511C22.8089 15.7762 24.7749 17.7422 27.2 17.7422Z" fill="url(#paint2_linear_855_68150)"/>
<path d="M4.79999 17.7422C7.22513 17.7422 9.1911 15.7762 9.1911 13.3511C9.1911 10.9259 7.22513 8.95996 4.79999 8.95996C2.37484 8.95996 0.408875 10.9259 0.408875 13.3511C0.408875 15.7762 2.37484 17.7422 4.79999 17.7422Z" fill="url(#paint3_linear_855_68150)"/>
<path d="M16 9.88452C18.4251 9.88452 20.3911 7.91855 20.3911 5.49341C20.3911 3.06826 18.4251 1.10229 16 1.10229C13.5749 1.10229 11.6089 3.06826 11.6089 5.49341C11.6089 7.91855 13.5749 9.88452 16 9.88452Z" fill="url(#paint4_linear_855_68150)"/>
<defs>
<linearGradient id="paint0_linear_855_68150" x1="9.24795" y1="29.5494" x2="9.24243" y2="20.7582" gradientUnits="userSpaceOnUse">
<stop stop-color="#EF7100"/>
<stop offset="1" stop-color="#FAA21D"/>
</linearGradient>
<linearGradient id="paint1_linear_855_68150" x1="22.7378" y1="30.8977" x2="22.7378" y2="22.1155" gradientUnits="userSpaceOnUse">
<stop stop-color="#EF7100"/>
<stop offset="1" stop-color="#FAA21D"/>
</linearGradient>
<linearGradient id="paint2_linear_855_68150" x1="27.2" y1="17.7422" x2="27.2" y2="8.95996" gradientUnits="userSpaceOnUse">
<stop stop-color="#EF7100"/>
<stop offset="1" stop-color="#FAA21D"/>
</linearGradient>
<linearGradient id="paint3_linear_855_68150" x1="4.79999" y1="17.7422" x2="4.79999" y2="8.95996" gradientUnits="userSpaceOnUse">
<stop stop-color="#EF7100"/>
<stop offset="1" stop-color="#FAA21D"/>
</linearGradient>
<linearGradient id="paint4_linear_855_68150" x1="16" y1="9.88452" x2="16" y2="1.10229" gradientUnits="userSpaceOnUse">
<stop stop-color="#EF7100"/>
<stop offset="1" stop-color="#FAA21D"/>
</linearGradient>
</defs>
</svg>
