<svg width="32" height="32" viewBox="0 0 32 32" fill="none" xmlns="http://www.w3.org/2000/svg">
<path d="M26.9689 0.995605H10.7378C10.3254 0.995605 9.99109 1.3299 9.99109 1.74227V22.4356C9.99109 22.848 10.3254 23.1823 10.7378 23.1823H26.9689C27.3812 23.1823 27.7155 22.848 27.7155 22.4356V1.74227C27.7155 1.3299 27.3812 0.995605 26.9689 0.995605Z" fill="#005BA1"/>
<path d="M24.2844 3.39551H8.05331C7.64093 3.39551 7.30664 3.7298 7.30664 4.14217V24.8355C7.30664 25.2479 7.64093 25.5822 8.05331 25.5822H24.2844C24.6968 25.5822 25.0311 25.2479 25.0311 24.8355V4.14217C25.0311 3.7298 24.6968 3.39551 24.2844 3.39551Z" fill="#0078D4"/>
<path d="M21.5644 5.81348H5.33334C4.92096 5.81348 4.58667 6.14777 4.58667 6.56014V27.2535C4.58667 27.6658 4.92096 28.0001 5.33334 28.0001H21.5644C21.9768 28.0001 22.3111 27.6658 22.3111 27.2535V6.56014C22.3111 6.14777 21.9768 5.81348 21.5644 5.81348Z" fill="#32BEDD"/>
<path d="M18.6311 12.4268V18.4534L13.4578 21.4756V15.449L18.6311 12.4268Z" fill="#50E6FF"/>
<path d="M18.6311 12.4268L13.4578 15.4668L8.28442 12.4268L13.4578 9.40454L18.6311 12.4268Z" fill="#C3F1FF"/>
<path d="M13.4578 15.4668V21.4756L8.28442 18.4534V12.4268L13.4578 15.4668Z" fill="#9CEBFF"/>
<path d="M8.28442 18.4534L13.4578 15.449V21.4756L8.28442 18.4534Z" fill="#C3F1FF"/>
<path d="M18.6311 18.4534L13.4578 15.449V21.4756L18.6311 18.4534Z" fill="#9CEBFF"/>
<path d="M29.9911 20.3379H1.9911C1.44127 20.3379 0.995544 20.7836 0.995544 21.3334V29.9912C0.995544 30.5411 1.44127 30.9868 1.9911 30.9868H29.9911C30.5409 30.9868 30.9867 30.5411 30.9867 29.9912V21.3334C30.9867 20.7836 30.5409 20.3379 29.9911 20.3379Z" fill="url(#paint0_linear_855_68126)"/>
<path d="M19.52 22.969H12.4978C12.0756 22.969 11.7333 23.3112 11.7333 23.7334V23.7512C11.7333 24.1734 12.0756 24.5157 12.4978 24.5157H19.52C19.9422 24.5157 20.2844 24.1734 20.2844 23.7512V23.7334C20.2844 23.3112 19.9422 22.969 19.52 22.969Z" fill="#F2F2F2"/>
<defs>
<linearGradient id="paint0_linear_855_68126" x1="16" y1="31.0046" x2="16" y2="20.3379" gradientUnits="userSpaceOnUse">
<stop stop-color="#0078D4"/>
<stop offset="0.82" stop-color="#5EA0EF"/>
</linearGradient>
</defs>
</svg>
