<svg width="32" height="32" viewBox="0 0 32 32" fill="none" xmlns="http://www.w3.org/2000/svg">
<g clip-path="url(#clip0_855_68125)">
<path d="M30.72 0.373291H0.853349C0.264245 0.373291 -0.213318 0.850854 -0.213318 1.43996V20.64C-0.213318 21.2291 0.264245 21.7066 0.853349 21.7066H30.72C31.3091 21.7066 31.7867 21.2291 31.7867 20.64V1.43996C31.7867 0.850854 31.3091 0.373291 30.72 0.373291Z" fill="url(#paint0_linear_855_68125)"/>
<path d="M21.12 7.92896V14.1334L15.7867 17.2623V11.0401L21.12 7.92896Z" fill="#50E6FF"/>
<path d="M21.12 7.92898L15.7866 11.0579L10.4533 7.92898L15.7866 4.81787L21.12 7.92898Z" fill="#C3F1FF"/>
<path d="M15.7866 11.0578V17.2623L10.4533 14.1334V7.92896L15.7866 11.0578Z" fill="#9CEBFF"/>
<path d="M10.4533 14.1334L15.7866 11.04V17.2623L10.4533 14.1334Z" fill="#C3F1FF"/>
<path d="M21.12 14.1334L15.7867 11.04V17.2623L21.12 14.1334Z" fill="#9CEBFF"/>
<path d="M22.2044 28.1601C19.04 27.6623 18.9155 25.3868 18.9155 21.7068H12.64C12.64 25.3868 12.5333 27.6623 9.36888 28.1601C8.93204 28.2085 8.5286 28.4169 8.2364 28.7452C7.94421 29.0735 7.78399 29.4984 7.78665 29.9379H23.7867C23.7893 29.4984 23.6291 29.0735 23.3369 28.7452C23.0447 28.4169 22.6413 28.2085 22.2044 28.1601Z" fill="url(#paint1_linear_855_68125)"/>
</g>
<defs>
<linearGradient id="paint0_linear_855_68125" x1="15.7867" y1="21.7066" x2="15.7867" y2="0.373291" gradientUnits="userSpaceOnUse">
<stop stop-color="#0078D4"/>
<stop offset="0.82" stop-color="#5EA0EF"/>
</linearGradient>
<linearGradient id="paint1_linear_855_68125" x1="15.7867" y1="29.9379" x2="15.7867" y2="21.7068" gradientUnits="userSpaceOnUse">
<stop offset="0.15" stop-color="#CCCCCC"/>
<stop offset="1" stop-color="#707070"/>
</linearGradient>
<clipPath id="clip0_855_68125">
<rect width="32" height="32" fill="white"/>
</clipPath>
</defs>
</svg>
