<svg width="32" height="32" viewBox="0 0 32 32" fill="none" xmlns="http://www.w3.org/2000/svg">
<g clip-path="url(#clip0_855_68157)">
<path d="M30.6844 1.81323H0.817765C0.228662 1.81323 -0.248901 2.2908 -0.248901 2.8799V22.0799C-0.248901 22.669 0.228662 23.1466 0.817765 23.1466H30.6844C31.2735 23.1466 31.7511 22.669 31.7511 22.0799V2.8799C31.7511 2.2908 31.2735 1.81323 30.6844 1.81323Z" fill="url(#paint0_linear_855_68157)"/>
<path d="M29.3867 3.59106H2.11554C1.79153 3.59106 1.52887 3.85372 1.52887 4.17773V20.7822C1.52887 21.1062 1.79153 21.3688 2.11554 21.3688H29.3867C29.7107 21.3688 29.9733 21.1062 29.9733 20.7822V4.17773C29.9733 3.85372 29.7107 3.59106 29.3867 3.59106Z" fill="white"/>
<path d="M21.0844 9.3689V15.5733L15.7511 18.7022V12.48L21.0844 9.3689Z" fill="#0078D4"/>
<path d="M21.0845 9.36892L15.7511 12.4978L10.4178 9.36892L15.7511 6.25781L21.0845 9.36892Z" fill="#83B9F9"/>
<path d="M15.7511 12.4978V18.7022L10.4178 15.5733V9.3689L15.7511 12.4978Z" fill="#5EA0EF"/>
<path opacity="0.2" d="M10.4178 15.5733L15.7511 12.48V18.7022L10.4178 15.5733Z" fill="#83B9F9"/>
<path opacity="0.2" d="M21.0844 15.5733L15.7511 12.48V18.7022L21.0844 15.5733Z" fill="#5EA0EF"/>
<path d="M22.1511 29.6001C19.0045 29.1023 18.88 26.809 18.88 23.1467H12.6045C12.6045 26.809 12.48 29.1023 9.33335 29.6001C8.89652 29.6484 8.49307 29.8568 8.20088 30.1851C7.90869 30.5134 7.74847 30.9383 7.75113 31.3778H23.7511C23.7533 30.9356 23.5906 30.5084 23.2948 30.1797C22.9989 29.8509 22.5912 29.6443 22.1511 29.6001Z" fill="url(#paint1_linear_855_68157)"/>
</g>
<defs>
<linearGradient id="paint0_linear_855_68157" x1="15.7511" y1="23.1466" x2="15.7511" y2="1.81323" gradientUnits="userSpaceOnUse">
<stop stop-color="#0078D4"/>
<stop offset="0.82" stop-color="#5EA0EF"/>
</linearGradient>
<linearGradient id="paint1_linear_855_68157" x1="15.7511" y1="31.3778" x2="15.7511" y2="23.1467" gradientUnits="userSpaceOnUse">
<stop stop-color="#1490DF"/>
<stop offset="0.98" stop-color="#1F56A3"/>
</linearGradient>
<clipPath id="clip0_855_68157">
<rect width="32" height="32" fill="white"/>
</clipPath>
</defs>
</svg>
