<svg width="32" height="32" viewBox="0 0 32 32" fill="none" xmlns="http://www.w3.org/2000/svg">
<path d="M18.7733 1.58228H2.00886C1.67504 1.58228 1.40442 1.85289 1.40442 2.18672V12.9778C1.40442 13.3117 1.67504 13.5823 2.00886 13.5823H18.7733C19.1071 13.5823 19.3778 13.3117 19.3778 12.9778V2.18672C19.3778 1.85289 19.1071 1.58228 18.7733 1.58228Z" fill="#005BA1"/>
<path d="M13.3867 5.83105V9.33328L10.4 11.0755V7.59105L13.3867 5.83105Z" fill="#50E6FF"/>
<path d="M13.3867 5.83104L10.4 7.59104L7.39557 5.83104L10.4 4.07104L13.3867 5.83104Z" fill="#C3F1FF"/>
<path d="M10.4 7.59105V11.0755L7.39557 9.33328V5.83105L10.4 7.59105Z" fill="#9CEBFF"/>
<path d="M25.8311 8.46216H9.06666C8.73284 8.46216 8.46222 8.73278 8.46222 9.0666V19.8577C8.46222 20.1915 8.73284 20.4622 9.06666 20.4622H25.8311C26.1649 20.4622 26.4356 20.1915 26.4356 19.8577V9.0666C26.4356 8.73278 26.1649 8.46216 25.8311 8.46216Z" fill="#0078D4"/>
<path d="M20.4444 12.729V16.2134L17.4578 17.9734V14.4712L20.4444 12.729Z" fill="#50E6FF"/>
<path d="M20.4444 12.729L17.4578 14.4712L14.4533 12.729L17.4578 10.969L20.4444 12.729Z" fill="#C3F1FF"/>
<path d="M17.4578 14.4712V17.9734L14.4533 16.2134V12.729L17.4578 14.4712Z" fill="#9CEBFF"/>
<path d="M31.0222 15.1467H14.2578C13.9239 15.1467 13.6533 15.4173 13.6533 15.7512V26.5423C13.6533 26.8761 13.9239 27.1467 14.2578 27.1467H31.0222C31.356 27.1467 31.6267 26.8761 31.6267 26.5423V15.7512C31.6267 15.4173 31.356 15.1467 31.0222 15.1467Z" fill="url(#paint0_linear_855_68127)"/>
<path d="M25.6355 19.4133V22.8978L22.6489 24.6578V21.1556L25.6355 19.4133Z" fill="#50E6FF"/>
<path d="M25.6356 19.4133L22.6489 21.1733L19.6445 19.4133L22.6489 17.6533L25.6356 19.4133Z" fill="#C3F1FF"/>
<path d="M22.6489 21.1733V24.6578L19.6445 22.8978V19.4133L22.6489 21.1733Z" fill="#9CEBFF"/>
<path d="M19.6445 22.8977L22.6489 21.1555V24.6577L19.6445 22.8977Z" fill="#C3F1FF"/>
<path d="M25.6355 22.8977L22.6489 21.1555V24.6577L25.6355 22.8977Z" fill="#9CEBFF"/>
<path d="M26.24 30.7912C24.4622 30.5067 24.4622 29.2267 24.4622 27.2356H20.9067C20.9067 29.2978 20.9067 30.5778 19.1289 30.7912C18.8853 30.8287 18.6627 30.9508 18.5001 31.1361C18.3376 31.3214 18.2455 31.5581 18.24 31.8045H27.1289C27.1234 31.5581 27.0313 31.3214 26.8688 31.1361C26.7062 30.9508 26.4836 30.8287 26.24 30.7912Z" fill="url(#paint1_linear_855_68127)"/>
<defs>
<linearGradient id="paint0_linear_855_68127" x1="22.6489" y1="27.1645" x2="22.6489" y2="15.1467" gradientUnits="userSpaceOnUse">
<stop stop-color="#0078D4"/>
<stop offset="0.82" stop-color="#5EA0EF"/>
</linearGradient>
<linearGradient id="paint1_linear_855_68127" x1="22.6489" y1="31.8045" x2="22.6489" y2="27.1645" gradientUnits="userSpaceOnUse">
<stop offset="0.15" stop-color="#CCCCCC"/>
<stop offset="1" stop-color="#707070"/>
</linearGradient>
</defs>
</svg>
