<svg width="32" height="32" viewBox="0 0 32 32" fill="none" xmlns="http://www.w3.org/2000/svg">
<path d="M1.77778 2.93336H30.2222C30.4492 2.92809 30.6696 3.00988 30.8382 3.16194C31.0068 3.31401 31.1108 3.52482 31.1289 3.75113V23.4845C31.1151 23.7124 31.0124 23.9258 30.8428 24.0788C30.6732 24.2317 30.4504 24.312 30.2222 24.3022H1.77778C1.54778 24.3122 1.32291 24.2325 1.15048 24.08C0.978059 23.9274 0.871535 23.714 0.853333 23.4845V3.78669C0.857909 3.66993 0.885463 3.55522 0.934416 3.44911C0.983369 3.34301 1.05276 3.2476 1.13862 3.16835C1.22449 3.08909 1.32513 3.02754 1.4348 2.98722C1.54448 2.9469 1.66102 2.92859 1.77778 2.93336Z" fill="url(#paint0_linear_855_68160)"/>
<path d="M21.1022 14.8266L25.8311 17.5643L30.5778 20.2843C30.6095 20.3042 30.6369 20.3302 30.6585 20.3608C30.6801 20.3914 30.6954 20.426 30.7035 20.4626C30.7116 20.4991 30.7123 20.5369 30.7057 20.5738C30.6991 20.6106 30.6852 20.6458 30.6649 20.6772C30.6429 20.7125 30.6131 20.7423 30.5778 20.7643L27.4133 22.5421L29.6711 26.4177C29.8721 26.7746 29.9251 27.1961 29.8188 27.5916C29.7124 27.9872 29.4551 28.3253 29.1022 28.5332L28.64 28.7999C28.2863 29.0071 27.8648 29.0655 27.4682 28.9622C27.0715 28.8588 26.732 28.6022 26.5244 28.2488L24.2667 24.3377L21.12 26.1154C21.078 26.1422 21.0293 26.1567 20.9794 26.1572C20.9296 26.1577 20.8806 26.1443 20.838 26.1183C20.7955 26.0924 20.761 26.0551 20.7386 26.0106C20.7161 25.9661 20.7066 25.9162 20.7111 25.8666V15.0754C20.7152 15.0001 20.7489 14.9295 20.8049 14.8789C20.8608 14.8283 20.9344 14.8018 21.0098 14.8052C21.0416 14.807 21.0728 14.8143 21.1022 14.8266Z" fill="#50E6FF"/>
<path d="M13.5111 5.90234H18.6311C18.6971 5.90234 18.7604 5.92857 18.8071 5.97524C18.8538 6.02192 18.88 6.08522 18.88 6.15123V11.4846C18.88 11.5459 18.8557 11.6046 18.8123 11.648C18.769 11.6913 18.7102 11.7157 18.6489 11.7157H13.6178C13.5518 11.7157 13.4885 11.6895 13.4418 11.6428C13.3951 11.5961 13.3689 11.5328 13.3689 11.4668V6.13346C13.3661 6.08264 13.3804 6.03235 13.4093 5.99051C13.4383 5.94867 13.4804 5.91765 13.5289 5.90234H13.5111Z" fill="white"/>
<path d="M13.5111 14.489H18.6311C18.6956 14.4936 18.7563 14.5212 18.802 14.567C18.8478 14.6127 18.8755 14.6734 18.88 14.7379V20.0712C18.88 20.1325 18.8557 20.1913 18.8123 20.2347C18.769 20.278 18.7102 20.3023 18.6489 20.3023H13.6178C13.5851 20.3023 13.5527 20.2959 13.5225 20.2834C13.4923 20.2709 13.4649 20.2526 13.4418 20.2294C13.4187 20.2063 13.4003 20.1789 13.3878 20.1487C13.3753 20.1185 13.3689 20.0861 13.3689 20.0535V14.7201C13.3661 14.6693 13.3804 14.619 13.4093 14.5772C13.4383 14.5353 13.4804 14.5043 13.5289 14.489H13.5111ZM22.9333 5.90234H28.0533C28.1194 5.90234 28.1827 5.92857 28.2293 5.97524C28.276 6.02192 28.3022 6.08522 28.3022 6.15123V11.4846C28.3022 11.5459 28.2779 11.6046 28.2345 11.648C28.1912 11.6913 28.1324 11.7157 28.0711 11.7157H23.0222C22.9562 11.7157 22.8929 11.6895 22.8462 11.6428C22.7996 11.5961 22.7733 11.5328 22.7733 11.4668V6.13346C22.7706 6.08264 22.7848 6.03235 22.8138 5.99051C22.8427 5.94867 22.8848 5.91765 22.9333 5.90234Z" fill="#83B9F9"/>
<path d="M4.5511 14.4888H9.6711C9.7356 14.4933 9.7963 14.521 9.84203 14.5667C9.88775 14.6125 9.91543 14.6732 9.91999 14.7377V20.071C9.91999 20.1323 9.89564 20.1911 9.85229 20.2344C9.80895 20.2778 9.75017 20.3021 9.68887 20.3021H4.65776C4.62508 20.3021 4.59271 20.2957 4.56252 20.2832C4.53232 20.2706 4.50488 20.2523 4.48177 20.2292C4.45866 20.2061 4.44033 20.1787 4.42782 20.1485C4.41531 20.1183 4.40887 20.0859 4.40887 20.0532V14.7199C4.40612 14.6691 4.42035 14.6188 4.44932 14.5769C4.47828 14.5351 4.52034 14.5041 4.56887 14.4888H4.5511Z" fill="white"/>
<path d="M4.5511 5.90234H9.6711C9.7356 5.90689 9.7963 5.93458 9.84203 5.9803C9.88775 6.02603 9.91543 6.08673 9.91999 6.15123V11.4846C9.91999 11.5459 9.89564 11.6046 9.85229 11.648C9.80895 11.6913 9.75017 11.7157 9.68887 11.7157H4.65776C4.59175 11.7157 4.52845 11.6895 4.48177 11.6428C4.4351 11.5961 4.40887 11.5328 4.40887 11.4668V6.13346C4.40612 6.08264 4.42035 6.03235 4.44932 5.99051C4.47828 5.94867 4.52034 5.91765 4.56887 5.90234H4.5511Z" fill="white"/>
<defs>
<linearGradient id="paint0_linear_855_68160" x1="15.9911" y1="-0.266644" x2="15.9911" y2="27.7156" gradientUnits="userSpaceOnUse">
<stop stop-color="#5EA0EF"/>
<stop offset="1" stop-color="#0078D4"/>
</linearGradient>
</defs>
</svg>
