<svg width="32" height="32" viewBox="0 0 32 32" fill="none" xmlns="http://www.w3.org/2000/svg">
<g clip-path="url(#clip0_855_68129)">
<path d="M16 31.1111C24.3456 31.1111 31.1111 24.3457 31.1111 16C31.1111 7.65439 24.3456 0.888916 16 0.888916C7.65436 0.888916 0.888885 7.65439 0.888885 16C0.888885 24.3457 7.65436 31.1111 16 31.1111Z" fill="url(#paint0_linear_855_68129)"/>
<path fill-rule="evenodd" clip-rule="evenodd" d="M15.7867 8.33789C15.4319 8.33789 15.0917 8.47868 14.8407 8.72935C14.5897 8.98001 14.4485 9.32005 14.448 9.67478V16.2419C14.4485 16.5966 14.5897 16.9367 14.8407 17.1873C15.0917 17.438 15.4319 17.5788 15.7867 17.5788H22.352C22.7066 17.5788 23.0466 17.4379 23.2973 17.1872C23.548 16.9365 23.6889 16.5965 23.6889 16.2419V9.67478C23.6889 9.32021 23.548 8.98017 23.2973 8.72946C23.0466 8.47874 22.7066 8.33789 22.352 8.33789H15.7867ZM16.9902 10.0766C16.8848 10.0763 16.7803 10.0969 16.6828 10.1371C16.5854 10.1773 16.4968 10.2363 16.4221 10.3108C16.3475 10.3852 16.2883 10.4737 16.2479 10.5711C16.2075 10.6685 16.1867 10.7729 16.1867 10.8783V15.0366C16.1867 15.2497 16.2713 15.4541 16.422 15.6048C16.5727 15.7555 16.7771 15.8401 16.9902 15.8401H21.1556C21.261 15.8401 21.3654 15.8193 21.4628 15.7789C21.5602 15.7385 21.6487 15.6793 21.7231 15.6046C21.7976 15.53 21.8566 15.4414 21.8968 15.3439C21.937 15.2464 21.9576 15.142 21.9573 15.0366V10.8783C21.9573 10.6657 21.8729 10.4618 21.7225 10.3114C21.5721 10.161 21.3682 10.0766 21.1556 10.0766H16.9902Z" fill="#7DE2FB"/>
<path d="M8.3111 13.3335C8.3111 13.1209 8.39557 12.9169 8.54593 12.7666C8.69629 12.6162 8.90023 12.5317 9.11287 12.5317H12.4035C12.6162 12.5317 12.8201 12.6162 12.9705 12.7666C13.1208 12.9169 13.2053 13.1209 13.2053 13.3335V16.642C13.2053 16.8546 13.1208 17.0585 12.9705 17.2089C12.8201 17.3593 12.6162 17.4437 12.4035 17.4437H9.11287C8.90023 17.4437 8.69629 17.3593 8.54593 17.2089C8.39557 17.0585 8.3111 16.8546 8.3111 16.642V13.3335Z" fill="white"/>
<path d="M8.3111 19.5698C8.3111 19.3572 8.39557 19.1533 8.54593 19.0029C8.69629 18.8525 8.90023 18.7681 9.11287 18.7681H12.4035C12.6162 18.7681 12.8201 18.8525 12.9705 19.0029C13.1208 19.1533 13.2053 19.3572 13.2053 19.5698V22.8605C13.2053 23.0732 13.1208 23.2771 12.9705 23.4275C12.8201 23.5778 12.6162 23.6623 12.4035 23.6623H9.11287C8.90023 23.6623 8.69629 23.5778 8.54593 23.4275C8.39557 23.2771 8.3111 23.0732 8.3111 22.8605V19.5698Z" fill="white"/>
<path d="M14.448 19.49C14.448 19.3846 14.4688 19.2802 14.5092 19.1828C14.5496 19.0854 14.6088 18.9969 14.6835 18.9224C14.7581 18.848 14.8467 18.7889 14.9442 18.7488C15.0417 18.7086 15.1461 18.688 15.2516 18.6882H18.5404C18.7533 18.6882 18.9574 18.7727 19.108 18.923C19.2587 19.0733 19.3435 19.2772 19.344 19.49V22.7807C19.3435 22.9935 19.2587 23.1974 19.108 23.3477C18.9574 23.498 18.7533 23.5825 18.5404 23.5825H15.2516C15.1461 23.5827 15.0417 23.5621 14.9442 23.5219C14.8467 23.4817 14.7581 23.4227 14.6835 23.3482C14.6088 23.2738 14.5496 23.1853 14.5092 23.0879C14.4688 22.9905 14.448 22.8861 14.448 22.7807V19.49Z" fill="white"/>
</g>
<defs>
<linearGradient id="paint0_linear_855_68129" x1="16" y1="31.1111" x2="16" y2="0.888916" gradientUnits="userSpaceOnUse">
<stop stop-color="#005BA1"/>
<stop offset="0.168" stop-color="#0063AE"/>
<stop offset="0.577" stop-color="#0072CA"/>
<stop offset="0.815" stop-color="#0078D4"/>
</linearGradient>
<clipPath id="clip0_855_68129">
<rect width="32" height="32" fill="white"/>
</clipPath>
</defs>
</svg>
