<svg width="32" height="32" viewBox="0 0 32 32" fill="none" xmlns="http://www.w3.org/2000/svg">
<path d="M32 0H0V32H32V0Z" fill="url(#paint0_linear_854_26849)"/>
<path d="M24.7023 6.61332C19.7829 6.57492 16.745 5.37599 16.5957 4.90666C16.5957 4.7935 16.5507 4.68497 16.4707 4.60496C16.3907 4.52494 16.2821 4.47999 16.169 4.47999C16.0642 4.47923 15.9627 4.51709 15.884 4.58634C15.8053 4.65559 15.7549 4.75139 15.7423 4.85546C15.7383 4.87085 15.7383 4.887 15.7423 4.90239C15.5674 5.38879 12.5295 6.57919 7.63565 6.60906C7.52249 6.60906 7.41397 6.65401 7.33395 6.73403C7.25394 6.81404 7.20898 6.92257 7.20898 7.03572V13.5893C7.46685 13.3745 7.75423 13.1977 8.06232 13.0645V7.45812C11.4757 7.38132 14.9829 6.69439 16.169 5.67039C17.3594 6.69439 20.8623 7.37706 24.2757 7.45812V13.0731C24.5851 13.2073 24.8728 13.387 25.129 13.6064V7.03999C25.129 6.92683 25.084 6.81831 25.004 6.73829C24.924 6.65828 24.8155 6.61332 24.7023 6.61332Z" fill="white"/>
<path d="M20.5081 15.9957C20.5594 16.5895 20.8315 17.1425 21.2707 17.5453C21.71 17.9482 22.2844 18.1717 22.8804 18.1716C23.3791 18.1735 23.8653 18.015 24.267 17.7194C24.661 17.4392 24.9589 17.0444 25.1204 16.5887C25.3139 16.0744 25.3139 15.5073 25.1204 14.993C24.9577 14.538 24.66 14.1435 24.267 13.8623C23.8653 13.5667 23.3791 13.4082 22.8804 13.41C22.3619 13.4118 21.858 13.5816 21.4441 13.8939C21.0303 14.2062 20.7288 14.6442 20.5849 15.1423H18.2937C18.1806 15.1423 18.072 15.1873 17.992 15.2673C17.912 15.3473 17.867 15.4558 17.867 15.569V24.0511L16.587 24.6911V12.1812C17.1706 12.0747 17.6933 11.7538 18.0523 11.2816C18.4113 10.8094 18.5807 10.2199 18.5272 9.62913C18.4738 9.03833 18.2013 8.48888 17.7633 8.08877C17.3254 7.68865 16.7536 7.4668 16.1604 7.4668C15.5672 7.4668 14.9954 7.68865 14.5574 8.08877C14.1195 8.48888 13.847 9.03833 13.7935 9.62913C13.74 10.2199 13.9095 10.8094 14.2685 11.2816C14.6275 11.7538 15.1501 12.0747 15.7337 12.1812V24.6911L14.4537 24.0511V15.569C14.4537 15.4558 14.4088 15.3473 14.3287 15.2673C14.2487 15.1873 14.1402 15.1423 14.027 15.1423H11.7145C11.6087 14.7779 11.4173 14.4441 11.1563 14.1686C10.8952 13.8932 10.5722 13.6842 10.214 13.5589C9.85577 13.4337 9.47282 13.3959 9.09705 13.4486C8.72127 13.5014 8.36355 13.6432 8.05371 13.8623C7.66736 14.132 7.37024 14.5108 7.20038 14.9503C6.98659 15.4991 6.98659 16.1082 7.20038 16.657C7.37132 17.097 7.66812 17.4769 8.05371 17.7493C8.39584 17.9894 8.79524 18.135 9.21163 18.1715C9.62801 18.2079 10.0466 18.1339 10.4253 17.9569C10.804 17.7799 11.1292 17.5062 11.3683 17.1634C11.6074 16.8205 11.7518 16.4207 11.787 16.0042H13.6004V23.6245L9.28251 21.4655C8.91266 21.2828 8.60146 21 8.38425 20.6493C8.16704 20.2986 8.05253 19.894 8.05371 19.4815V18.9567C7.74474 18.8234 7.45719 18.6451 7.20038 18.4277V19.4815C7.20047 20.0525 7.36037 20.6121 7.66198 21.0969C7.96359 21.5818 8.39488 21.9725 8.90704 22.225L15.9769 25.7621C16.0364 25.7925 16.1021 25.8086 16.1689 25.809C16.237 25.8082 16.3041 25.7921 16.3652 25.7621L23.4265 22.225C23.939 21.9729 24.3705 21.5823 24.6722 21.0973C24.9739 20.6124 25.1336 20.0526 25.1332 19.4815V18.4106C24.8769 18.6311 24.5893 18.8122 24.2798 18.9482V19.4815C24.282 19.8942 24.1679 20.2992 23.9506 20.6501C23.7333 21.001 23.4215 21.2836 23.051 21.4655L18.7204 23.6245V15.9957H20.5081ZM22.8804 14.2634C23.1725 14.2643 23.4582 14.3488 23.7039 14.5068C23.9496 14.6648 24.145 14.8897 24.267 15.1551C24.364 15.3545 24.4144 15.5734 24.4144 15.7951C24.4144 16.0169 24.364 16.2357 24.267 16.4351C24.1221 16.7547 23.8715 17.0147 23.5575 17.1712C23.2434 17.3278 22.885 17.3715 22.5425 17.2949C22.2001 17.2183 21.8944 17.0261 21.677 16.7506C21.4596 16.4751 21.3436 16.1332 21.3486 15.7823C21.3531 15.3786 21.5163 14.993 21.803 14.7087C22.0896 14.4245 22.4767 14.2645 22.8804 14.2634V14.2634ZM9.42331 17.3183C9.13801 17.3186 8.85837 17.2388 8.61622 17.0879C8.37408 16.9371 8.17918 16.7212 8.05371 16.465C7.94716 16.2532 7.89166 16.0194 7.89166 15.7823C7.89166 15.5452 7.94716 15.3114 8.05371 15.0997C8.17523 14.8564 8.35947 14.65 8.5874 14.5018C8.81534 14.3536 9.07871 14.2689 9.35032 14.2564C9.62193 14.244 9.89194 14.3043 10.1325 14.4311C10.373 14.5579 10.5753 14.7466 10.7185 14.9777C10.8617 15.2088 10.9407 15.474 10.9472 15.7458C10.9537 16.0176 10.8875 16.2863 10.7555 16.524C10.6235 16.7617 10.4304 16.9598 10.1962 17.0979C9.96202 17.2361 9.6952 17.3092 9.42331 17.3098V17.3183ZM16.1476 11.3706C15.8455 11.3706 15.5502 11.281 15.299 11.1132C15.0478 10.9453 14.852 10.7068 14.7364 10.4277C14.6208 10.1485 14.5905 9.84142 14.6495 9.54512C14.7084 9.24882 14.8539 8.97665 15.0675 8.76303C15.2811 8.54941 15.5533 8.40394 15.8496 8.345C16.1459 8.28606 16.453 8.31631 16.7321 8.43192C17.0112 8.54753 17.2498 8.74331 17.4176 8.9945C17.5855 9.24569 17.675 9.54101 17.675 9.84312C17.6756 10.0439 17.6365 10.2427 17.5599 10.4283C17.4834 10.6139 17.3709 10.7825 17.2289 10.9245C17.087 11.0664 16.9184 11.1789 16.7328 11.2555C16.5472 11.332 16.3483 11.3711 16.1476 11.3706Z" fill="white"/>
<defs>
<linearGradient id="paint0_linear_854_26849" x1="-6.62613" y1="38.6261" x2="38.6261" y2="-6.62613" gradientUnits="userSpaceOnUse">
<stop stop-color="#1B660F"/>
<stop offset="1" stop-color="#6CAE3E"/>
</linearGradient>
</defs>
</svg>
