<svg width="32" height="32" viewBox="0 0 32 32" fill="none" xmlns="http://www.w3.org/2000/svg">
<g clip-path="url(#clip0_854_26818)">
<path d="M32 0H0V32H32V0Z" fill="url(#paint0_linear_854_26818)"/>
<path fill-rule="evenodd" clip-rule="evenodd" d="M23.2 15.9998V15.1998H22.4V14.3998H23.6C23.8208 14.3998 24 14.579 24 14.7998V15.9998H23.2ZM23.2 22.3998H24V23.5998C24 23.8206 23.8208 23.9998 23.6 23.9998H22.4V23.1998H23.2V22.3998ZM14.8 14.3998H16V15.1998H15.2V15.9998H14.4V14.7998C14.4 14.579 14.5792 14.3998 14.8 14.3998ZM17.6 15.1998H20.8V14.3998H17.6V15.1998ZM9.60005 18.3998H17.6V23.1998V23.9998V26.3998H9.60005V18.3998ZM27.2 15.1586C27.2 12.1162 24.8019 11.1991 23.674 10.9369C23.5011 9.49149 22.7343 8.44129 21.5896 8.10378C20.746 7.85526 19.8607 8.05488 19.1899 8.61365C18.8393 7.83201 18.3798 7.15539 17.8195 6.59742C16.0161 4.80486 13.549 4.31744 11.2165 5.29549C9.22738 6.13084 7.72652 8.43808 7.72652 10.6619C7.72652 10.7902 7.73052 10.9177 7.73933 11.0451C6.65151 11.4003 4.80005 12.4064 4.80005 15.1257C4.80005 15.2997 4.80805 15.4672 4.82246 15.6275C5.00577 17.566 6.72515 19.1557 8.76391 19.4003V26.799C8.76391 27.0202 8.94322 27.1998 9.16414 27.1998H17.9692C18.1901 27.1998 18.3694 27.0202 18.3694 26.799V23.9931H20.7708V23.1914H18.3694V17.9805C18.3694 17.7592 18.1901 17.5796 17.9692 17.5796H9.16414C8.94322 17.5796 8.76391 17.7592 8.76391 17.9805V18.5994C7.12778 18.3645 5.7654 17.093 5.61972 15.5522C5.60691 15.4151 5.60051 15.274 5.60051 15.1257C5.60051 12.7832 7.23264 11.9967 8.23161 11.7346C8.24842 11.7322 8.26683 11.7282 8.28364 11.7226C8.47095 11.6664 8.58941 11.4837 8.5654 11.2897C8.54059 11.0836 8.52698 10.8744 8.52698 10.6619C8.52698 8.77318 9.84453 6.74092 11.5263 6.03464C14.4408 4.81208 16.5035 6.41865 17.2544 7.16661C17.8667 7.77589 18.3446 8.55192 18.6736 9.47545C18.7224 9.61414 18.8449 9.71516 18.9906 9.7368C19.1346 9.75684 19.2835 9.69832 19.3708 9.57967C19.8518 8.93512 20.6299 8.65694 21.3631 8.87259C22.2412 9.13153 22.8159 10.0214 22.8968 11.2039C22.8616 11.4211 23.0081 11.6264 23.2242 11.6632C24.1791 11.826 26.3996 12.4922 26.3996 15.1586C26.3996 17.3175 24.8731 18.1665 23.9726 18.4815V17.5796H23.1721V20.7864H23.9726V19.3249C24.9956 19.0259 27.2 18.0454 27.2 15.1586Z" fill="white"/>
</g>
<defs>
<linearGradient id="paint0_linear_854_26818" x1="-6.62613" y1="38.6261" x2="38.6261" y2="-6.62613" gradientUnits="userSpaceOnUse">
<stop stop-color="#1B660F"/>
<stop offset="1" stop-color="#6CAE3E"/>
</linearGradient>
<clipPath id="clip0_854_26818">
<rect width="32" height="32" fill="white"/>
</clipPath>
</defs>
</svg>
