<svg width="32" height="32" viewBox="0 0 32 32" fill="none" xmlns="http://www.w3.org/2000/svg">
<path d="M32 0H0V32H32V0Z" fill="url(#paint0_linear_854_26846)"/>
<path d="M16.5368 25.7066C16.0276 25.7066 15.5392 25.5044 15.1791 25.1443C14.8191 24.7842 14.6168 24.2959 14.6168 23.7866C14.6168 23.2774 14.8191 22.7891 15.1791 22.429C15.5392 22.0689 16.0276 21.8666 16.5368 21.8666L17.1597 19.3066H12.3512C12.2185 19.3069 12.0859 19.2984 11.9544 19.281L9.94903 21.2778C10.1988 21.6784 10.2923 22.1569 10.2117 22.6219C10.131 23.087 9.88188 23.5061 9.51183 23.7991C9.14177 24.0921 8.67675 24.2386 8.20556 24.2105C7.73438 24.1824 7.29006 23.9817 6.95747 23.6467C6.62488 23.3118 6.42733 22.8661 6.40255 22.3947C6.37777 21.9233 6.5275 21.4593 6.82313 21.0914C7.11877 20.7234 7.5396 20.4772 8.00524 20.3999C8.47088 20.3225 8.9487 20.4194 9.34743 20.672L11.0029 19.0208C10.4925 18.8033 10.052 18.4492 9.72987 17.9976C9.40769 17.5459 9.21631 17.0142 9.17677 16.4608C9.17677 16.3925 9.17677 16.3242 9.17677 16.2517C9.15556 15.6181 9.34213 14.995 9.70803 14.4774C10.0739 13.9597 10.5991 13.5759 11.2034 13.3845C11.2034 13.3376 11.2034 13.2906 11.2034 13.2394C11.2181 12.4427 11.4642 11.6674 11.9117 11.008L10.2562 8.90452C9.91982 9.08265 9.54463 9.17498 9.16397 9.17331C8.62752 9.17351 8.1072 8.98989 7.68968 8.65306C7.27216 8.31624 6.98265 7.84652 6.86938 7.32217C6.7561 6.79782 6.8259 6.25049 7.06714 5.77134C7.30838 5.2922 7.70651 4.91018 8.19519 4.68891C8.68388 4.46764 9.23363 4.42048 9.75286 4.55529C10.2721 4.6901 10.7295 4.99875 11.0488 5.4298C11.3681 5.86086 11.5301 6.38831 11.5078 6.9243C11.4854 7.46028 11.2802 7.97243 10.9261 8.37545L12.4578 10.321C12.8125 9.95695 13.236 9.66689 13.7037 9.46771C14.4905 9.12765 15.3616 9.03246 16.2033 9.19456C17.045 9.35667 17.8184 9.76854 18.4226 10.3765C18.7928 10.7357 19.0987 11.1557 19.3272 11.6181C19.7309 11.3404 20.2249 11.2261 20.7096 11.2981L22.1005 8.50771C21.7017 8.19823 21.4256 7.75736 21.3212 7.26348C21.2169 6.76961 21.291 6.25472 21.5305 5.81035C21.7699 5.36599 22.1592 5.02093 22.6291 4.83652C23.099 4.6521 23.6191 4.64029 24.0968 4.80317C24.5746 4.96605 24.9792 5.29307 25.2386 5.72611C25.498 6.15914 25.5954 6.67013 25.5136 7.16823C25.4318 7.66634 25.1759 8.11929 24.7916 8.44657C24.4073 8.77385 23.9194 8.95426 23.4146 8.95572C23.2354 8.96113 23.0562 8.94393 22.8813 8.90452L21.5245 11.6266C21.796 11.8234 22.023 12.0752 22.1906 12.3656C22.3582 12.656 22.4627 12.9785 22.4973 13.312C24.0888 13.7386 24.9592 14.7754 24.9592 16.2986C24.9908 16.8219 24.8727 17.3433 24.6189 17.802C24.365 18.2606 23.9858 18.6375 23.5256 18.8885L24.9421 20.8512C25.3612 20.6246 25.8492 20.5604 26.3127 20.6709C26.7761 20.7814 27.1826 21.0589 27.4544 21.4502C27.7262 21.8416 27.8442 22.3194 27.7859 22.7923C27.7275 23.2651 27.497 23.7 27.1382 24.0135C26.7795 24.3271 26.3178 24.4975 25.8414 24.4921C25.3649 24.4867 24.9072 24.3059 24.5557 23.9842C24.2042 23.6626 23.9835 23.2226 23.936 22.7485C23.8884 22.2745 24.0172 21.7995 24.2978 21.4144L22.6978 19.2C22.3816 19.2729 22.0581 19.3101 21.7336 19.3109H18.0301L17.3645 22.0586C17.7573 22.2464 18.0747 22.5622 18.2645 22.954C18.4543 23.3459 18.5052 23.7907 18.409 24.2153C18.3127 24.6399 18.075 25.0193 17.7348 25.291C17.3946 25.5628 16.9722 25.7108 16.5368 25.7109V25.7066ZM16.5368 22.72C16.3258 22.72 16.1196 22.7825 15.9442 22.8997C15.7687 23.017 15.632 23.1835 15.5513 23.3785C15.4706 23.5734 15.4494 23.7878 15.4906 23.9947C15.5318 24.2017 15.6333 24.3917 15.7825 24.5409C15.9317 24.6901 16.1218 24.7917 16.3287 24.8328C16.5356 24.874 16.7501 24.8529 16.945 24.7721C17.1399 24.6914 17.3065 24.5547 17.4237 24.3793C17.5409 24.2038 17.6034 23.9976 17.6034 23.7866C17.6034 23.5038 17.4911 23.2324 17.291 23.0324C17.091 22.8324 16.8197 22.72 16.5368 22.72ZM25.8296 21.4741C25.6186 21.4741 25.4124 21.5367 25.237 21.6539C25.0615 21.7711 24.9248 21.9377 24.8441 22.1326C24.7634 22.3275 24.7422 22.542 24.7834 22.7489C24.8246 22.9558 24.9261 23.1459 25.0753 23.295C25.2245 23.4442 25.4146 23.5458 25.6215 23.587C25.8284 23.6281 26.0429 23.607 26.2378 23.5263C26.4327 23.4455 26.5993 23.3088 26.7165 23.1334C26.8337 22.958 26.8962 22.7517 26.8962 22.5408C26.8962 22.2579 26.7839 21.9866 26.5838 21.7865C26.3838 21.5865 26.1125 21.4741 25.8296 21.4741V21.4741ZM8.33623 21.2266C8.12527 21.2266 7.91904 21.2892 7.74362 21.4064C7.56821 21.5236 7.43149 21.6902 7.35076 21.8851C7.27003 22.08 7.2489 22.2945 7.29006 22.5014C7.33122 22.7083 7.43281 22.8984 7.58199 23.0476C7.73116 23.1967 7.92122 23.2983 8.12814 23.3395C8.33505 23.3806 8.54952 23.3595 8.74443 23.2788C8.93934 23.1981 9.10593 23.0613 9.22313 22.8859C9.34034 22.7105 9.4029 22.5043 9.4029 22.2933C9.4029 22.0104 9.29052 21.7391 9.09048 21.5391C8.89044 21.339 8.61913 21.2266 8.33623 21.2266V21.2266ZM11.7496 14.1098C11.2557 14.2 10.811 14.4655 10.4974 14.8575C10.1838 15.2495 10.0224 15.7416 10.0429 16.2432C10.0429 16.2986 10.0429 16.3541 10.0429 16.4053C10.0969 16.9778 10.3669 17.5082 10.7981 17.8887C11.2293 18.2691 11.7892 18.471 12.364 18.4533H21.7506C22.4632 18.4533 24.1229 18.24 24.1229 16.2645C24.1229 15.0784 23.4232 14.336 22.0408 14.0586C21.9486 14.04 21.8651 13.9914 21.8034 13.9204C21.7416 13.8494 21.7051 13.76 21.6994 13.6661C21.6525 12.8853 21.3112 12.3434 20.7693 12.177C20.5436 12.1114 20.3031 12.1172 20.0809 12.1935C19.8586 12.2699 19.6654 12.4132 19.5277 12.6037C19.4814 12.664 19.4198 12.7109 19.3492 12.7394C19.2787 12.7679 19.2019 12.777 19.1266 12.7658C19.0512 12.7546 18.9801 12.7234 18.9208 12.6753C18.8615 12.6273 18.8162 12.5643 18.7896 12.4928C18.5939 11.928 18.2713 11.4157 17.8466 10.9952C17.3883 10.5128 16.797 10.1773 16.1479 10.0312C15.4987 9.885 14.8207 9.93477 14.1998 10.1742C13.579 10.4136 13.0431 10.8318 12.6601 11.376C12.2771 11.9201 12.0641 12.5657 12.0482 13.2309C12.0472 13.3736 12.0557 13.5161 12.0738 13.6576C12.0828 13.7593 12.0551 13.8609 11.9956 13.9439C11.9361 14.0268 11.8488 14.0857 11.7496 14.1098V14.1098ZM9.18957 5.32905C8.89421 5.32905 8.60549 5.41663 8.35991 5.58072C8.11434 5.74481 7.92293 5.97804 7.80991 6.25091C7.69688 6.52378 7.66731 6.82404 7.72493 7.11372C7.78255 7.4034 7.92477 7.66948 8.13362 7.87833C8.34247 8.08717 8.60855 8.2294 8.89823 8.28702C9.18791 8.34464 9.48817 8.31507 9.76104 8.20204C10.0339 8.08902 10.2671 7.89761 10.4312 7.65203C10.5953 7.40646 10.6829 7.11774 10.6829 6.82238C10.6824 6.62427 10.6425 6.42823 10.5657 6.24562C10.4888 6.06301 10.3765 5.89747 10.2352 5.75857C10.094 5.61968 9.92652 5.5102 9.74264 5.43647C9.55875 5.36274 9.36206 5.32623 9.16397 5.32905H9.18957ZM23.4573 5.54238C23.2041 5.54238 22.9567 5.61745 22.7462 5.7581C22.5357 5.89875 22.3716 6.09866 22.2747 6.33255C22.1779 6.56644 22.1525 6.8238 22.2019 7.0721C22.2513 7.32039 22.3732 7.54847 22.5522 7.72748C22.7312 7.90649 22.9593 8.0284 23.2076 8.07779C23.4559 8.12718 23.7132 8.10183 23.9471 8.00495C24.181 7.90807 24.3809 7.74401 24.5216 7.53351C24.6622 7.32302 24.7373 7.07554 24.7373 6.82238C24.7373 6.65211 24.7034 6.48355 24.6375 6.32656C24.5716 6.16957 24.475 6.02731 24.3534 5.90811C24.2318 5.78891 24.0877 5.69517 23.9294 5.63237C23.7711 5.56957 23.6019 5.53898 23.4317 5.54238H23.4573Z" fill="white"/>
<defs>
<linearGradient id="paint0_linear_854_26846" x1="-6.62613" y1="38.6261" x2="38.6261" y2="-6.62613" gradientUnits="userSpaceOnUse">
<stop stop-color="#1B660F"/>
<stop offset="1" stop-color="#6CAE3E"/>
</linearGradient>
</defs>
</svg>
