<svg width="32" height="32" viewBox="0 0 32 32" fill="none" xmlns="http://www.w3.org/2000/svg">
<g clip-path="url(#clip0_850_25876)">
<path d="M32 0H0V32H32V0Z" fill="url(#paint0_linear_850_25876)"/>
<path d="M7.65449 19.9209C6.68869 18.3647 6.21299 16.5541 6.28915 14.7241L7.14249 14.7583C7.07589 16.4113 7.50692 18.0462 8.37982 19.4516L7.65449 19.9209Z" fill="white"/>
<path d="M18.7094 23.693L18.4065 22.8951C20.4039 22.149 22.0373 20.6623 22.9676 18.7437L23.7356 19.1149C22.7116 21.2307 20.9114 22.8704 18.7094 23.693V23.693Z" fill="white"/>
<path d="M23.1254 11.7761C23.0599 11.6253 22.9917 11.4831 22.9206 11.3494C21.9915 9.51428 20.4187 8.08592 18.5029 7.33737C16.5871 6.58882 14.4625 6.5726 12.5355 7.2918L12.2368 6.49393C14.3591 5.69919 16.7 5.71505 18.8113 6.53849C20.9227 7.36193 22.6562 8.9351 23.68 10.9569C23.7611 11.1147 23.8379 11.2726 23.9062 11.4347L23.1254 11.7761Z" fill="white"/>
<path d="M13.1372 12.8596H11.7932V12.0062H12.7105V8.55451H11.7932V7.70117H13.1372C13.2504 7.70117 13.3589 7.74612 13.4389 7.82614C13.5189 7.90616 13.5639 8.01468 13.5639 8.12784V12.4329C13.5639 12.5461 13.5189 12.6546 13.4389 12.7346C13.3589 12.8146 13.2504 12.8596 13.1372 12.8596Z" fill="white"/>
<path d="M14.4812 9.85596H13.1372V10.7093H14.4812V9.85596Z" fill="white"/>
<path d="M17.5872 9.72803H16.2432V10.5814H17.5872V9.72803Z" fill="white"/>
<path d="M19.4943 12.147H17.7279C17.6148 12.147 17.5063 12.1021 17.4262 12.0221C17.3462 11.9421 17.3013 11.8335 17.3013 11.7204V8.58438C17.3013 8.47122 17.3462 8.3627 17.4262 8.28268C17.5063 8.20267 17.6148 8.15771 17.7279 8.15771H19.4943C19.6075 8.15771 19.716 8.20267 19.796 8.28268C19.8761 8.3627 19.921 8.47122 19.921 8.58438V11.7204C19.921 11.8335 19.8761 11.9421 19.796 12.0221C19.716 12.1021 19.6075 12.147 19.4943 12.147ZM18.1546 11.2937H19.0677V9.01105H18.1546V11.2937Z" fill="white"/>
<path d="M16.2432 12.147H14.4811C14.368 12.147 14.2594 12.1021 14.1794 12.0221C14.0994 11.9421 14.0544 11.8335 14.0544 11.7204V8.58438C14.0544 8.47122 14.0994 8.3627 14.1794 8.28268C14.2594 8.20267 14.368 8.15771 14.4811 8.15771H16.2432C16.3564 8.15771 16.4649 8.20267 16.5449 8.28268C16.625 8.3627 16.6699 8.47122 16.6699 8.58438V11.7204C16.6699 11.8335 16.625 11.9421 16.5449 12.0221C16.4649 12.1021 16.3564 12.147 16.2432 12.147ZM14.9078 11.2937H15.8166V9.01105H14.9078V11.2937Z" fill="white"/>
<path d="M10.0266 12.0063H8.68262V12.8597H10.0266V12.0063Z" fill="white"/>
<path d="M8.41816 14.4301H6.65176C6.53861 14.4301 6.43008 14.3852 6.35007 14.3052C6.27005 14.2251 6.2251 14.1166 6.2251 14.0035V10.8632C6.2251 10.75 6.27005 10.6415 6.35007 10.5615C6.43008 10.4815 6.53861 10.4365 6.65176 10.4365H8.41816C8.53132 10.4365 8.63985 10.4815 8.71986 10.5615C8.79988 10.6415 8.84483 10.75 8.84483 10.8632V14.0035C8.84483 14.1166 8.79988 14.2251 8.71986 14.3052C8.63985 14.3852 8.53132 14.4301 8.41816 14.4301ZM7.07843 13.5768H7.9915V11.2899H7.07843V13.5768Z" fill="white"/>
<path d="M11.7932 9.89021H10.0268C9.91361 9.89021 9.80508 9.84526 9.72507 9.76524C9.64505 9.68523 9.6001 9.5767 9.6001 9.46355V6.32755C9.6001 6.21439 9.64505 6.10586 9.72507 6.02585C9.80508 5.94583 9.91361 5.90088 10.0268 5.90088H11.7932C11.9063 5.90088 12.0148 5.94583 12.0949 6.02585C12.1749 6.10586 12.2198 6.21439 12.2198 6.32755V9.46355C12.2198 9.5767 12.1749 9.68523 12.0949 9.76524C12.0148 9.84526 11.9063 9.89021 11.7932 9.89021ZM10.4534 9.03688H11.3665V6.75421H10.4534V9.03688Z" fill="white"/>
<path d="M11.7932 14.4301H10.0268C9.91361 14.4301 9.80508 14.3852 9.72507 14.3052C9.64505 14.2251 9.6001 14.1166 9.6001 14.0035V10.8632C9.6001 10.75 9.64505 10.6415 9.72507 10.5615C9.80508 10.4815 9.91361 10.4365 10.0268 10.4365H11.7932C11.9063 10.4365 12.0148 10.4815 12.0949 10.5615C12.1749 10.6415 12.2198 10.75 12.2198 10.8632V14.0035C12.2198 14.1166 12.1749 14.2251 12.0949 14.3052C12.0148 14.3852 11.9063 14.4301 11.7932 14.4301ZM10.4534 13.5768H11.3665V11.2899H10.4534V13.5768Z" fill="white"/>
<path d="M7.79956 20.6548L7.83796 20.9919L7.87209 21.3332L7.91049 21.6703L9.61716 21.9092C9.75713 22.2922 9.9542 22.6519 10.2017 22.9759L9.47209 24.5375L9.74089 24.7508L10.0054 24.9642L10.27 25.1775L11.6438 24.1407C12.0117 24.3151 12.4048 24.4303 12.8086 24.482L13.4017 26.0991L13.743 26.0607L14.0801 26.0266L14.4214 25.9882L14.6561 24.2815C15.0395 24.1462 15.3994 23.9519 15.7228 23.7055L17.2844 24.4266L17.4977 24.162L17.7153 23.8932L17.9286 23.6287L16.8918 22.2591C17.0651 21.889 17.1816 21.4949 17.2374 21.09L18.846 20.4799L18.8118 20.1428L18.7734 19.8015L18.7393 19.4644L17.0326 19.2255C16.8954 18.8387 16.6981 18.4758 16.4481 18.1503L17.1649 16.5972L16.9004 16.3839L16.6358 16.1706L16.3713 15.9572L15.006 16.9855C14.6372 16.8088 14.2425 16.6921 13.8369 16.6399L13.2481 15.0356L12.9068 15.0698L12.5697 15.1082L12.2284 15.1466L11.9937 16.8532C11.6053 16.992 11.2411 17.1906 10.9142 17.442L9.38676 16.7252L9.16916 16.9898L8.95583 17.2543L8.74249 17.5231L9.77503 18.8884C9.5927 19.2552 9.46889 19.6482 9.40809 20.0532L7.79956 20.6548Z" stroke="white" stroke-width="2" stroke-linejoin="round"/>
<path d="M13.3207 23.2023C12.8411 23.1991 12.3715 23.0647 11.9628 22.8137C11.554 22.5627 11.2218 22.2046 11.0021 21.7783C10.7823 21.352 10.6834 20.8737 10.7161 20.3951C10.7487 19.9166 10.9117 19.4562 11.1873 19.0636C11.5887 18.4941 12.1997 18.1072 12.8861 17.988C13.5726 17.8688 14.2783 18.027 14.8481 18.4279C15.2723 18.7271 15.5983 19.1451 15.7852 19.6293C15.9721 20.1135 16.0114 20.6422 15.8982 21.1487C15.7851 21.6553 15.5245 22.1169 15.1493 22.4756C14.7741 22.8342 14.3011 23.0737 13.79 23.1639C13.6349 23.1899 13.4779 23.2028 13.3207 23.2023V23.2023ZM13.3207 18.8034C13.0153 18.8025 12.7149 18.8804 12.4485 19.0296C12.1821 19.1788 11.9586 19.3942 11.7998 19.6549C11.6409 19.9157 11.552 20.2131 11.5417 20.5182C11.5313 20.8234 11.5999 21.1261 11.7408 21.397C11.8816 21.6679 12.09 21.898 12.3457 22.0648C12.6014 22.2317 12.8959 22.3297 13.2006 22.3495C13.5053 22.3693 13.81 22.3101 14.0851 22.1777C14.3603 22.0454 14.5966 21.8442 14.7713 21.5938V21.5938C14.9066 21.4043 15.0023 21.1896 15.0529 20.9623C15.1035 20.7351 15.1078 20.5001 15.0657 20.2711C14.996 19.8593 14.7822 19.4858 14.4626 19.2169C14.143 18.9481 13.7383 18.8016 13.3207 18.8034V18.8034Z" fill="white"/>
<path d="M20.9492 17.8561L21.1242 17.9457L21.2991 18.0353L21.474 18.1249L22.1268 17.3825C22.3573 17.4369 22.5947 17.4556 22.8308 17.438L23.3556 18.2913L23.5434 18.2316L23.7311 18.1718L23.9146 18.1121L23.8506 17.118C24.0519 16.9871 24.2318 16.8259 24.3839 16.6401L25.3524 16.8662L25.442 16.687L25.5316 16.5121L25.6212 16.3372L24.8746 15.6972C24.929 15.4682 24.9477 15.2321 24.93 14.9974L25.7834 14.4726L25.7236 14.2849L25.6511 14.0801L25.5999 13.9094L24.61 13.9777C24.4856 13.7754 24.3301 13.594 24.1492 13.4401L24.3711 12.4758L24.1962 12.3734L24.0212 12.2838L23.8463 12.1942L23.1935 12.9366C22.9634 12.8799 22.7256 12.8612 22.4895 12.8812L21.969 12.0278L21.7812 12.0876L21.5935 12.1473L21.4058 12.2113L21.4698 13.1926C21.267 13.3164 21.0855 13.472 20.9322 13.6534L19.9722 13.4316L19.8783 13.6065L19.7887 13.7814L19.6991 13.9564L20.4415 14.6049C20.3821 14.8519 20.3634 15.107 20.386 15.3601L19.5327 15.8806L19.5924 16.0684L19.6522 16.2561L19.7119 16.4438L20.6975 16.3798C20.8236 16.5809 20.9789 16.7621 21.1583 16.9174L20.9492 17.8561Z" stroke="white" stroke-width="2" stroke-linejoin="round"/>
<path d="M22.6603 16.8663C22.2704 16.8571 21.8954 16.7146 21.5978 16.4625C21.3002 16.2104 21.0979 15.8641 21.0246 15.481C20.9513 15.098 21.0113 14.7013 21.1948 14.3572C21.3783 14.0131 21.6742 13.7421 22.0331 13.5895C22.3447 13.4707 22.6843 13.4458 23.0099 13.5178C23.3355 13.5899 23.6329 13.7558 23.8653 13.995C24.0976 14.2342 24.2549 14.5362 24.3175 14.8637C24.3801 15.1913 24.3454 15.53 24.2176 15.8381C24.1308 16.0433 24.0038 16.2291 23.8441 16.3845C23.6843 16.5398 23.4951 16.6616 23.2875 16.7426C23.0881 16.823 22.8753 16.865 22.6603 16.8663V16.8663ZM22.6603 14.3063C22.5535 14.3054 22.4476 14.3257 22.3488 14.3661C22.1465 14.4446 21.9818 14.5971 21.888 14.7927C21.8027 15.0005 21.8027 15.2335 21.888 15.4413C21.9726 15.6482 22.135 15.8136 22.3403 15.9021C22.4421 15.9454 22.5517 15.9677 22.6624 15.9677C22.7731 15.9677 22.8827 15.9454 22.9845 15.9021C23.1809 15.8195 23.3392 15.6664 23.4284 15.473C23.5176 15.2795 23.5313 15.0597 23.4667 14.8567C23.4033 14.7001 23.2949 14.5658 23.1551 14.4709C23.0154 14.3759 22.8506 14.3246 22.6816 14.3234L22.6603 14.3063Z" fill="white"/>
</g>
<defs>
<linearGradient id="paint0_linear_850_25876" x1="-6.6304" y1="38.6304" x2="38.6261" y2="-6.62613" gradientUnits="userSpaceOnUse">
<stop stop-color="#1B660F"/>
<stop offset="1" stop-color="#6CAE3E"/>
</linearGradient>
<clipPath id="clip0_850_25876">
<rect width="32" height="32" fill="white"/>
</clipPath>
</defs>
</svg>
