<svg width="32" height="32" viewBox="0 0 32 32" fill="none" xmlns="http://www.w3.org/2000/svg">
<g clip-path="url(#clip0_850_25874)">
<path d="M32 0H0V32H32V0Z" fill="url(#paint0_linear_850_25874)"/>
<path d="M26.1888 26.667H21.9221V25.8136H25.7621V21.9736H26.6155V26.2403C26.6155 26.3535 26.5705 26.462 26.4905 26.542C26.4105 26.622 26.3019 26.667 26.1888 26.667Z" fill="white"/>
<path d="M9.97556 26.667H5.70889C5.59573 26.667 5.48721 26.622 5.40719 26.542C5.32718 26.462 5.28223 26.3535 5.28223 26.2403V21.9736H6.13556V25.8136H9.97556V26.667Z" fill="white"/>
<path d="M26.6155 10.0268H25.7621V6.18683H21.9221V5.3335H26.1888C26.3019 5.3335 26.4105 5.37845 26.4905 5.45846C26.5705 5.53848 26.6155 5.647 26.6155 5.76016V10.0268Z" fill="white"/>
<path d="M6.13556 10.0268H5.28223V5.76016C5.28223 5.647 5.32718 5.53848 5.40719 5.45846C5.48721 5.37845 5.59573 5.3335 5.70889 5.3335H9.97556V6.18683H6.13556V10.0268Z" fill="white"/>
<path d="M22.4512 21.1204H9.51038C8.15247 21.1204 6.85018 20.5809 5.88999 19.6208C4.92981 18.6606 4.39038 17.3583 4.39038 16.0004C4.39038 14.6425 4.92981 13.3402 5.88999 12.38C6.85018 11.4198 8.15247 10.8804 9.51038 10.8804H22.4896C23.8475 10.8804 25.1498 11.4198 26.11 12.38C27.0702 13.3402 27.6096 14.6425 27.6096 16.0004C27.6096 17.3583 27.0702 18.6606 26.11 19.6208C25.1498 20.5809 23.8475 21.1204 22.4896 21.1204H22.4512ZM9.58718 20.267H22.4512C23.5828 20.267 24.668 19.8175 25.4682 19.0174C26.2683 18.2172 26.7178 17.132 26.7178 16.0004C26.7178 14.8688 26.2683 13.7835 25.4682 12.9834C24.668 12.1832 23.5828 11.7337 22.4512 11.7337H9.54878C8.41719 11.7337 7.33195 12.1832 6.53179 12.9834C5.73164 13.7835 5.28211 14.8688 5.28211 16.0004C5.28211 17.132 5.73164 18.2172 6.53179 19.0174C7.33195 19.8175 8.41719 20.267 9.54878 20.267H9.58718Z" fill="white"/>
<path d="M22.3787 19.4136C21.7036 19.4136 21.0436 19.2134 20.4823 18.8383C19.921 18.4633 19.4835 17.9302 19.2252 17.3065C18.9668 16.6828 18.8992 15.9965 19.0309 15.3343C19.1626 14.6722 19.4877 14.064 19.9651 13.5867C20.4424 13.1093 21.0506 12.7842 21.7128 12.6525C22.3749 12.5208 23.0612 12.5884 23.6849 12.8467C24.3086 13.1051 24.8417 13.5426 25.2167 14.1039C25.5918 14.6652 25.792 15.3252 25.792 16.0002C25.792 16.9055 25.4324 17.7737 24.7923 18.4138C24.1521 19.054 23.2839 19.4136 22.3787 19.4136ZM22.3787 13.4402C21.8723 13.4402 21.3774 13.5904 20.9564 13.8717C20.5354 14.153 20.2073 14.5528 20.0135 15.0206C19.8198 15.4884 19.7691 16.0031 19.8679 16.4997C19.9666 16.9963 20.2105 17.4524 20.5685 17.8104C20.9265 18.1685 21.3826 18.4123 21.8792 18.5111C22.3758 18.6098 22.8906 18.5591 23.3583 18.3654C23.8261 18.1716 24.2259 17.8435 24.5072 17.4225C24.7885 17.0015 24.9387 16.5066 24.9387 16.0002C24.9387 15.3213 24.669 14.6701 24.1889 14.1901C23.7088 13.71 23.0576 13.4402 22.3787 13.4402V13.4402Z" fill="white"/>
<path d="M16.5889 16.8535C16.3779 16.8535 16.1717 16.791 15.9963 16.6738C15.8209 16.5566 15.6841 16.39 15.6034 16.1951C15.5227 16.0002 15.5016 15.7857 15.5427 15.5788C15.5839 15.3719 15.6855 15.1818 15.8346 15.0326C15.9838 14.8835 16.1739 14.7819 16.3808 14.7407C16.5877 14.6996 16.8022 14.7207 16.9971 14.8014C17.192 14.8821 17.3586 15.0189 17.4758 15.1943C17.593 15.3697 17.6556 15.5759 17.6556 15.7869C17.6556 15.927 17.628 16.0657 17.5744 16.1951C17.5208 16.3245 17.4422 16.4421 17.3431 16.5411C17.2441 16.6402 17.1265 16.7187 16.9971 16.7724C16.8677 16.826 16.729 16.8535 16.5889 16.8535Z" fill="white"/>
</g>
<defs>
<linearGradient id="paint0_linear_850_25874" x1="-6.62613" y1="38.6261" x2="38.6261" y2="-6.62613" gradientUnits="userSpaceOnUse">
<stop stop-color="#1B660F"/>
<stop offset="1" stop-color="#6CAE3E"/>
</linearGradient>
<clipPath id="clip0_850_25874">
<rect width="32" height="32" fill="white"/>
</clipPath>
</defs>
</svg>
