<svg width="32" height="32" viewBox="0 0 32 32" fill="none" xmlns="http://www.w3.org/2000/svg">
<path d="M32 0H0V32H32V0Z" fill="url(#paint0_linear_854_26851)"/>
<path d="M19.3664 22.3044C18.1174 22.3044 16.8926 21.9594 15.8273 21.3074C14.7619 20.6553 13.8974 19.7217 13.3291 18.6095L14.0843 18.2212C14.4806 18.9953 15.0423 19.6729 15.7296 20.2057C16.4168 20.7386 17.2129 21.1138 18.0614 21.3048C18.9098 21.4957 19.7899 21.4977 20.6392 21.3106C21.4885 21.1236 22.2863 20.752 22.976 20.2223L23.4966 20.8964C22.4284 21.7225 21.1366 22.2086 19.7888 22.2916L19.3664 22.3044Z" fill="white"/>
<path d="M13.7301 13.6858L12.9194 13.4213C13.3367 12.1274 14.1353 10.9898 15.2103 10.1576C16.2854 9.32543 17.5868 8.83751 18.944 8.75781L18.9994 9.61115C17.8126 9.67949 16.6742 10.1052 15.7337 10.8325C14.7933 11.5597 14.0948 12.5543 13.7301 13.6858V13.6858Z" fill="white"/>
<path d="M15.2874 15.0724L14.4341 14.9572C14.5997 13.7881 15.1692 12.7139 16.044 11.9208C16.9187 11.1276 18.0435 10.6657 19.2231 10.615C20.4028 10.5643 21.563 10.9281 22.5025 11.6433C23.4421 12.3585 24.1016 13.38 24.3669 14.5306L23.5349 14.7226C23.3131 13.7664 22.7636 12.918 21.9817 12.3246C21.1998 11.7312 20.2349 11.4302 19.2543 11.4738C18.2738 11.5174 17.3394 11.9028 16.6132 12.5632C15.8871 13.2237 15.415 14.1174 15.2789 15.0895L15.2874 15.0724Z" fill="white"/>
<path d="M19.3963 20.7043C18.2862 20.7029 17.2071 20.3374 16.3247 19.6638C15.4422 18.9902 14.8051 18.0458 14.511 16.9753L15.3345 16.7534C15.591 17.6853 16.1599 18.5007 16.946 19.0631C17.7321 19.6255 18.6875 19.9006 19.6523 19.8425L19.7035 20.6958L19.3963 20.7043Z" fill="white"/>
<path d="M10.8074 24.4676C10.4553 24.4684 10.1109 24.3648 9.81776 24.1698C9.52461 23.9748 9.29591 23.6972 9.16059 23.3722C9.02527 23.0472 8.98943 22.6893 9.05759 22.3439C9.12576 21.9985 9.29488 21.6811 9.54353 21.4318C9.79219 21.1826 10.1092 21.0127 10.4544 20.9437C10.7997 20.8747 11.1577 20.9097 11.483 21.0442C11.8084 21.1787 12.0865 21.4068 12.2822 21.6995C12.4779 21.9921 12.5823 22.3363 12.5823 22.6884C12.5823 23.1595 12.3955 23.6114 12.0627 23.945C11.73 24.2785 11.2785 24.4664 10.8074 24.4676V24.4676ZM10.8074 21.7668C10.6239 21.7659 10.4443 21.8196 10.2914 21.921C10.1385 22.0224 10.0192 22.167 9.94856 22.3364C9.87796 22.5057 9.85926 22.6922 9.89485 22.8722C9.93044 23.0522 10.0187 23.2176 10.1484 23.3473C10.2782 23.4771 10.4436 23.5653 10.6236 23.6009C10.8035 23.6365 10.9901 23.6178 11.1594 23.5472C11.3288 23.4766 11.4733 23.3573 11.5747 23.2044C11.6761 23.0514 11.7298 22.8719 11.729 22.6884C11.7279 22.4443 11.6304 22.2105 11.4578 22.0379C11.2852 21.8654 11.0515 21.7679 10.8074 21.7668V21.7668Z" fill="white"/>
<path d="M10.8074 11.1512C10.4551 11.152 10.1106 11.0483 9.81731 10.8531C9.52407 10.6579 9.29537 10.3801 9.16018 10.0548C9.02499 9.72953 8.98939 9.37144 9.05791 9.02591C9.12642 8.68039 9.29596 8.36297 9.54504 8.11389C9.79412 7.86481 10.1115 7.69527 10.4571 7.62675C10.8026 7.55824 11.1607 7.59383 11.486 7.72902C11.8112 7.86422 12.0891 8.09292 12.2843 8.38616C12.4794 8.6794 12.5832 9.02398 12.5823 9.37624C12.5812 9.84663 12.3938 10.2974 12.0612 10.6301C11.7286 10.9627 11.2778 11.15 10.8074 11.1512ZM10.8074 8.45037C10.6241 8.44952 10.4447 8.50311 10.2918 8.60433C10.139 8.70555 10.0197 8.84985 9.94896 9.01896C9.87823 9.18806 9.85929 9.37435 9.89453 9.55423C9.92977 9.73411 10.0176 9.89949 10.1469 10.0294C10.2762 10.1593 10.4412 10.2479 10.6209 10.284C10.8006 10.3201 10.987 10.302 11.1564 10.232C11.3259 10.1621 11.4707 10.0434 11.5726 9.89106C11.6746 9.73871 11.729 9.55954 11.729 9.37624C11.729 9.13142 11.632 8.89656 11.4593 8.72305C11.2866 8.54954 11.0522 8.4515 10.8074 8.45037V8.45037Z" fill="white"/>
<path d="M7.53921 17.8499C7.18732 17.8499 6.84333 17.7456 6.55074 17.5501C6.25815 17.3546 6.03011 17.0767 5.89544 16.7516C5.76078 16.4265 5.72555 16.0687 5.7942 15.7236C5.86285 15.3785 6.0323 15.0614 6.28113 14.8126C6.52995 14.5638 6.84697 14.3943 7.19211 14.3257C7.53724 14.257 7.89497 14.2923 8.22008 14.4269C8.54519 14.5616 8.82306 14.7896 9.01856 15.0822C9.21406 15.3748 9.31841 15.7188 9.31841 16.0707C9.31841 16.5426 9.13096 16.9951 8.79729 17.3288C8.46363 17.6625 8.01108 17.8499 7.53921 17.8499ZM7.53921 15.1491C7.35591 15.1491 7.17673 15.2035 7.02439 15.3054C6.87204 15.4074 6.75337 15.5522 6.68342 15.7217C6.61347 15.8911 6.59539 16.0775 6.63146 16.2572C6.66753 16.4369 6.75613 16.6019 6.88605 16.7312C7.01596 16.8605 7.18133 16.9483 7.36121 16.9836C7.54109 17.0188 7.72739 16.9999 7.89649 16.9291C8.06559 16.8584 8.2099 16.7391 8.31112 16.5862C8.41234 16.4334 8.46592 16.254 8.46508 16.0707C8.46508 15.9493 8.4411 15.8291 8.39452 15.717C8.34794 15.6049 8.27967 15.5032 8.19364 15.4175C8.10761 15.3319 8.00551 15.2641 7.8932 15.218C7.78089 15.172 7.66059 15.1485 7.53921 15.1491V15.1491Z" fill="white"/>
<path d="M13.7563 18.7049L11.4697 21.1348L12.0912 21.7196L14.3777 19.2897L13.7563 18.7049Z" fill="white"/>
<path d="M11.8403 10.0229L11.2366 10.626L13.3594 12.751L13.9631 12.148L11.8403 10.0229Z" fill="white"/>
<path d="M16.384 15.644H9.01978V16.4974H16.384V15.644Z" fill="white"/>
<path d="M19.4687 19.3644H19.2682C18.6241 19.3275 18.0028 19.1129 17.4731 18.7446C16.9435 18.3763 16.5262 17.8685 16.2674 17.2775C16.0086 16.6866 15.9184 16.0355 16.0069 15.3964C16.0954 14.7574 16.3591 14.1553 16.7687 13.6569C17.1784 13.1585 17.718 12.7833 18.3278 12.5727C18.9376 12.3621 19.5938 12.3245 20.2237 12.464C20.8536 12.6034 21.4326 12.9146 21.8965 13.3629C22.3604 13.8112 22.6912 14.3791 22.8522 15.0039L22.0287 15.2172C21.8729 14.6049 21.5035 14.0683 20.9869 13.7044C20.4704 13.3404 19.8408 13.1731 19.2118 13.2325C18.5827 13.2919 17.9956 13.5741 17.5563 14.0283C17.117 14.4825 16.8545 15.0787 16.8162 15.7094C16.7778 16.3401 16.9661 16.9638 17.347 17.4679C17.728 17.972 18.2766 18.3233 18.8938 18.4586C19.511 18.5938 20.1562 18.504 20.7131 18.2054C21.2699 17.9068 21.7017 17.419 21.9306 16.83L22.7284 17.1372C22.4739 17.7945 22.0262 18.3592 21.4443 18.7568C20.8623 19.1544 20.1735 19.3662 19.4687 19.3644V19.3644Z" fill="white"/>
<path d="M26.2444 15.6484H20.9324V16.5018H26.2444V15.6484Z" fill="white"/>
<path d="M24.9514 19.3685L24.2517 18.8821C24.6964 18.2476 25.0111 17.5312 25.1776 16.7744L26.0309 16.9536C25.8343 17.8221 25.4674 18.6429 24.9514 19.3685Z" fill="white"/>
<path d="M25.2843 15.1533C25.2404 14.5188 25.0964 13.8953 24.8577 13.3058L25.647 12.9858C25.9235 13.6655 26.085 14.3865 26.1249 15.1192L25.2843 15.1533Z" fill="white"/>
<defs>
<linearGradient id="paint0_linear_854_26851" x1="-6.6304" y1="38.6261" x2="38.6261" y2="-6.6304" gradientUnits="userSpaceOnUse">
<stop stop-color="#1B660F"/>
<stop offset="1" stop-color="#6CAE3E"/>
</linearGradient>
</defs>
</svg>
