<svg width="32" height="32" viewBox="0 0 32 32" fill="none" xmlns="http://www.w3.org/2000/svg">
<path d="M32 0H0V32H32V0Z" fill="url(#paint0_linear_854_26852)"/>
<path d="M22.9333 7.94154C23.0633 7.67575 23.1318 7.38409 23.1338 7.0882C23.1369 6.69821 23.028 6.31551 22.8202 5.98548C22.6124 5.65545 22.3143 5.39193 21.9613 5.22614C21.6083 5.06036 21.2151 4.99928 20.8285 5.05013C20.4418 5.10098 20.0778 5.26163 19.7797 5.51305C19.4815 5.76446 19.2617 6.09609 19.1463 6.46863C19.0309 6.84117 19.0247 7.23899 19.1285 7.61493C19.2323 7.99087 19.4417 8.32917 19.7319 8.58973C20.0221 8.85028 20.3809 9.02217 20.7658 9.085V10.5954H21.6191V9.02954C21.9133 8.95122 22.1851 8.8051 22.4127 8.60287C23.5033 9.49346 24.3812 10.6165 24.9821 11.8899C25.583 13.1633 25.8917 14.5548 25.8858 15.9629C25.8695 17.9257 25.2545 19.8369 24.1231 21.4409C22.9916 23.0449 21.3976 24.2655 19.5539 24.9394C17.7103 25.6133 15.7049 25.7085 13.8058 25.2122C11.9066 24.716 10.2041 23.652 8.92579 22.1623C9.16459 21.9098 9.33368 21.5996 9.41646 21.2621H10.9525V20.4087H9.45912C9.38258 19.9971 9.1804 19.6192 8.88038 19.3271C8.58036 19.035 8.19723 18.843 7.78366 18.7775C7.37009 18.712 6.94638 18.7762 6.57078 18.9613C6.19518 19.1464 5.88613 19.4433 5.68612 19.8111C5.4861 20.179 5.40493 20.5998 5.45378 21.0157C5.50263 21.4315 5.67908 21.822 5.9589 22.1336C6.23871 22.4451 6.60814 22.6622 7.0164 22.7553C7.42467 22.8483 7.85172 22.8126 8.23886 22.653C9.1636 23.7834 10.315 24.7073 11.6188 25.3653C12.9227 26.0232 14.3499 26.4006 15.8086 26.4729C17.2672 26.5453 18.7248 26.3111 20.0874 25.7854C21.4499 25.2598 22.6872 24.4543 23.7193 23.421C24.7513 22.3878 25.5554 21.1496 26.0794 19.7864C26.6035 18.4233 26.836 16.9654 26.762 15.5068C26.6879 14.0483 26.3089 12.6214 25.6495 11.3184C24.99 10.0153 24.0647 8.86496 22.9333 7.94154V7.94154ZM21.0986 8.253C20.8659 8.25216 20.6386 8.18238 20.4455 8.05247C20.2524 7.92256 20.1022 7.73835 20.0137 7.5231C19.9252 7.30785 19.9025 7.07121 19.9484 6.84306C19.9943 6.61491 20.1068 6.40548 20.2717 6.24122C20.4365 6.07695 20.6464 5.96522 20.8747 5.92013C21.103 5.87504 21.3396 5.8986 21.5545 5.98786C21.7694 6.07711 21.9531 6.22805 22.0823 6.42161C22.2115 6.61517 22.2805 6.84268 22.2805 7.0754C22.2771 7.38703 22.1512 7.68481 21.9301 7.90437C21.7089 8.12393 21.4102 8.24763 21.0986 8.24874V8.253ZM6.25912 20.7799C6.25659 20.5448 6.32399 20.3142 6.45277 20.1175C6.58155 19.9208 6.7659 19.7668 6.9824 19.675C7.19891 19.5833 7.43779 19.5579 7.66871 19.6023C7.89964 19.6466 8.11218 19.7585 8.27935 19.9239C8.44651 20.0892 8.56076 20.3006 8.60758 20.531C8.65439 20.7614 8.63166 21.0006 8.54227 21.218C8.45288 21.4355 8.30087 21.6215 8.10555 21.7524C7.91022 21.8834 7.68039 21.9533 7.44526 21.9533C7.13254 21.9544 6.83212 21.8316 6.6098 21.6116C6.38748 21.3917 6.26138 21.0926 6.25912 20.7799V20.7799Z" fill="white"/>
<path d="M9.57864 11.2352C9.96105 11.2339 10.3353 11.1244 10.6581 10.9194L20.1642 20.4085H19.0592V21.2618H21.1925C21.3057 21.2618 21.4142 21.2169 21.4942 21.1369C21.5742 21.0569 21.6192 20.9483 21.6192 20.8352V18.7018H20.7658V19.8069L11.2725 10.3136C11.4963 9.98225 11.6152 9.59126 11.6138 9.19145C11.613 8.78808 11.4926 8.39402 11.2678 8.0591C11.043 7.72418 10.7239 7.46345 10.3509 7.30987C9.97792 7.15628 9.56777 7.11675 9.17232 7.19628C8.77686 7.2758 8.41387 7.4708 8.12925 7.75662C7.84462 8.04244 7.65114 8.40624 7.57327 8.80202C7.49541 9.1978 7.53665 9.60779 7.69179 9.98013C7.84694 10.3525 8.109 10.6704 8.44486 10.8938C8.78072 11.1172 9.17528 11.236 9.57864 11.2352V11.2352ZM9.57864 8.03091C9.81136 8.0326 10.0384 8.10321 10.231 8.23381C10.4236 8.36442 10.5732 8.54917 10.6609 8.76474C10.7486 8.98031 10.7704 9.21703 10.7237 9.44501C10.677 9.67299 10.5637 9.88201 10.3983 10.0457C10.2328 10.2093 10.0226 10.3203 9.7941 10.3646C9.56562 10.4088 9.32916 10.3844 9.11455 10.2944C8.89995 10.2044 8.71683 10.0528 8.58832 9.85875C8.45981 9.66472 8.39167 9.43697 8.39251 9.20425C8.39195 9.04832 8.42224 8.89383 8.48165 8.74967C8.54106 8.6055 8.62841 8.47452 8.73866 8.36427C8.84892 8.25401 8.9799 8.16666 9.12406 8.10725C9.26823 8.04784 9.42272 8.01755 9.57864 8.01811V8.03091Z" fill="white"/>
<path d="M14.3658 20.4087H12.2324V21.262H14.3658V20.4087Z" fill="white"/>
<path d="M17.7791 20.4087H15.6458V21.262H17.7791V20.4087Z" fill="white"/>
<path d="M21.6192 11.8755H20.7659V14.0088H21.6192V11.8755Z" fill="white"/>
<path d="M21.6192 15.2886H20.7659V17.4219H21.6192V15.2886Z" fill="white"/>
<defs>
<linearGradient id="paint0_linear_854_26852" x1="-6.62613" y1="38.6261" x2="38.6261" y2="-6.62613" gradientUnits="userSpaceOnUse">
<stop stop-color="#1B660F"/>
<stop offset="1" stop-color="#6CAE3E"/>
</linearGradient>
</defs>
</svg>
