<svg width="32" height="32" viewBox="0 0 32 32" fill="none" xmlns="http://www.w3.org/2000/svg">
<path d="M32 0H0V32H32V0Z" fill="url(#paint0_linear_854_26848)"/>
<path d="M9.45906 19.9608H9.39933C8.37668 19.9559 7.38736 19.5966 6.59992 18.9441C5.81248 18.2916 5.27565 17.3863 5.0809 16.3823C4.88615 15.3784 5.04553 14.338 5.53188 13.4384C6.01824 12.5388 6.80147 11.8356 7.74813 11.4488C7.8059 10.1817 8.28401 8.96995 9.10697 8.00478C9.92994 7.03962 11.0509 6.37601 12.2929 6.11871C13.5349 5.8614 14.8273 6.02505 15.9659 6.58382C17.1046 7.1426 18.0248 8.06467 18.5812 9.2045C19.0013 8.94655 19.4808 8.80128 19.9735 8.78271C20.4661 8.76415 20.9552 8.87292 21.3935 9.09852C21.8319 9.32412 22.2046 9.65893 22.4758 10.0706C22.747 10.4823 22.9075 10.957 22.9417 11.4488C23.8911 11.6255 24.7484 12.1297 25.3643 12.8735C25.9802 13.6172 26.3157 14.5535 26.3124 15.5192C26.3162 16.067 26.2041 16.6095 25.9835 17.1109C25.7629 17.6124 25.4388 18.0616 25.0324 18.429L24.4479 17.8061C24.7669 17.5204 25.0219 17.1705 25.1962 16.7793C25.3704 16.3881 25.46 15.9645 25.4591 15.5362C25.4646 14.7128 25.1607 13.9173 24.6076 13.3073C24.0545 12.6973 23.2924 12.3172 22.4724 12.2424C22.3622 12.2326 22.2602 12.1804 22.1877 12.0968C22.1153 12.0132 22.0782 11.9048 22.0841 11.7944V11.7304C22.0864 11.702 22.0864 11.6734 22.0841 11.645C22.0853 11.1083 21.8734 10.593 21.4951 10.2122C21.1167 9.83147 20.6028 9.61636 20.066 9.6141C19.5468 9.61385 19.0478 9.81587 18.6751 10.1773C18.6241 10.2271 18.5615 10.2633 18.4929 10.2827C18.4243 10.3021 18.352 10.304 18.2825 10.2882C18.2165 10.2706 18.1557 10.2374 18.1052 10.1913C18.0547 10.1453 18.016 10.0878 17.9924 10.0237C17.5957 8.95324 16.8347 8.05662 15.843 7.49107C14.8513 6.92553 13.6922 6.72715 12.5689 6.93075C11.4456 7.13434 10.4298 7.7269 9.69967 8.60451C8.96954 9.48212 8.57168 10.5888 8.57586 11.7304C8.57609 11.8198 8.54821 11.9071 8.49614 11.9798C8.44408 12.0525 8.37047 12.1071 8.28573 12.1357C7.48189 12.4006 6.79842 12.9426 6.35744 13.665C5.91646 14.3874 5.74671 15.243 5.87852 16.079C6.01034 16.915 6.43513 17.6769 7.07698 18.2286C7.71883 18.7803 8.53593 19.0857 9.38226 19.0904H9.45906V19.9608Z" fill="white"/>
<path d="M22.2122 17.7295C21.9627 16.9983 21.5526 16.3322 21.0122 15.78C20.4718 15.2277 19.8147 14.8034 19.089 14.5381C19.0509 14.0851 18.844 13.663 18.5093 13.3553C18.1747 13.0477 17.7367 12.877 17.2821 12.877C16.8275 12.877 16.3895 13.0477 16.0549 13.3553C15.7202 13.663 15.5133 14.0851 15.4752 14.5381C14.7503 14.8047 14.0939 15.2295 13.5537 15.7816C13.0134 16.3336 12.6029 16.999 12.352 17.7295C11.8861 17.7608 11.4503 17.971 11.1359 18.3162C10.8214 18.6613 10.6525 19.1147 10.6647 19.5815C10.6768 20.0483 10.8689 20.4923 11.2009 20.8207C11.5329 21.1491 11.979 21.3364 12.4458 21.3434C12.9573 22.635 13.9589 23.6718 15.232 24.2277V26.4207H16.0853V24.5306C16.3651 24.6006 16.6508 24.6448 16.9386 24.6629V26.4421H17.792V24.633C18.0807 24.6048 18.3663 24.5506 18.6453 24.4709V26.4207H19.4986V24.1637C20.7101 23.5972 21.6584 22.5879 22.1482 21.3434C22.6143 21.333 23.0582 21.143 23.3876 20.8132C23.717 20.4835 23.9064 20.0392 23.9163 19.5732C23.9262 19.1072 23.7559 18.6554 23.4408 18.3119C23.1257 17.9684 22.6902 17.7598 22.225 17.7295H22.2122ZM12.5056 20.4943C12.3157 20.4943 12.1301 20.438 11.9722 20.3325C11.8144 20.2271 11.6913 20.0771 11.6187 19.9017C11.546 19.7263 11.527 19.5333 11.564 19.3471C11.6011 19.1608 11.6925 18.9898 11.8268 18.8555C11.961 18.7213 12.1321 18.6298 12.3183 18.5928C12.5045 18.5557 12.6975 18.5748 12.873 18.6474C13.0484 18.7201 13.1983 18.8431 13.3038 19.001C13.4093 19.1589 13.4656 19.3445 13.4656 19.5343C13.4656 19.7889 13.3644 20.0331 13.1844 20.2132C13.0044 20.3932 12.7602 20.4943 12.5056 20.4943ZM15.2192 23.2805C14.3655 22.8072 13.691 22.0667 13.2992 21.1727C13.5362 21.062 13.7461 20.9008 13.9142 20.7003C14.0823 20.4998 14.2044 20.2649 14.272 20.0122H15.2192V23.2805ZM16.9258 23.7882C16.6369 23.7637 16.3511 23.7108 16.0725 23.6303V19.5898C16.0725 19.4766 16.0276 19.3681 15.9475 19.2881C15.8675 19.2081 15.759 19.1631 15.6458 19.1631H14.2805C14.2182 18.8793 14.0883 18.6148 13.9019 18.3919C13.7154 18.1691 13.4779 17.9945 13.2096 17.8831C13.4213 17.329 13.7445 16.8242 14.1591 16.4C14.5738 15.9758 15.0711 15.6413 15.6202 15.417C15.7363 15.6853 15.9157 15.9213 16.1431 16.1049C16.3706 16.2885 16.6392 16.414 16.9258 16.4709V23.7882ZM17.2842 15.6389C17.0944 15.6389 16.9088 15.5826 16.7509 15.4771C16.593 15.3716 16.47 15.2217 16.3973 15.0462C16.3247 14.8708 16.3057 14.6778 16.3427 14.4916C16.3797 14.3054 16.4712 14.1343 16.6054 14C16.7397 13.8658 16.9107 13.7744 17.097 13.7373C17.2832 13.7003 17.4762 13.7193 17.6516 13.7919C17.827 13.8646 17.977 13.9877 18.0825 14.1455C18.1879 14.3034 18.2442 14.489 18.2442 14.6789C18.2442 14.9335 18.1431 15.1777 17.9631 15.3577C17.783 15.5377 17.5389 15.6389 17.2842 15.6389ZM19.072 19.1674C18.9588 19.1674 18.8503 19.2124 18.7703 19.2924C18.6903 19.3724 18.6453 19.4809 18.6453 19.5941V23.5877C18.3675 23.6774 18.0818 23.7403 17.792 23.7754V16.4239C18.05 16.3518 18.2886 16.2228 18.4902 16.0463C18.6918 15.8699 18.8512 15.6504 18.9568 15.4042C19.5066 15.6274 20.0045 15.9615 20.4193 16.3859C20.8341 16.8102 21.1569 17.3156 21.3674 17.8703C21.0995 17.9823 20.8623 18.1571 20.676 18.3798C20.4896 18.6026 20.3595 18.8668 20.2965 19.1503L19.072 19.1674ZM19.4986 23.2037V20.0207H20.3264C20.3964 20.2719 20.5199 20.505 20.6886 20.7039C20.8573 20.9027 21.067 21.0627 21.3034 21.1727C20.9244 22.0228 20.2888 22.733 19.4858 23.2037H19.4986ZM22.0586 20.4943C21.8688 20.4943 21.6832 20.438 21.5253 20.3325C21.3674 20.2271 21.2444 20.0771 21.1717 19.9017C21.0991 19.7263 21.0801 19.5333 21.1171 19.3471C21.1541 19.1608 21.2456 18.9898 21.3798 18.8555C21.5141 18.7213 21.6851 18.6298 21.8714 18.5928C22.0576 18.5557 22.2506 18.5748 22.426 18.6474C22.6014 18.7201 22.7514 18.8431 22.8569 19.001C22.9623 19.1589 23.0186 19.3445 23.0186 19.5343C23.0175 19.7879 22.9166 20.0308 22.7377 20.2104C22.5589 20.3901 22.3164 20.4921 22.0629 20.4943H22.0586Z" fill="white"/>
<defs>
<linearGradient id="paint0_linear_854_26848" x1="-6.62613" y1="38.6261" x2="38.6261" y2="-6.62613" gradientUnits="userSpaceOnUse">
<stop stop-color="#1B660F"/>
<stop offset="1" stop-color="#6CAE3E"/>
</linearGradient>
</defs>
</svg>
