<svg width="32" height="32" viewBox="0 0 32 32" fill="none" xmlns="http://www.w3.org/2000/svg">
<g clip-path="url(#clip0_854_26786)">
<path d="M32 0H0V32H32V0Z" fill="url(#paint0_linear_854_26786)"/>
<path fill-rule="evenodd" clip-rule="evenodd" d="M8.00005 25.1998C8.00005 24.5382 7.46165 23.9998 6.80005 23.9998C6.13845 23.9998 5.60005 24.5382 5.60005 25.1998C5.60005 25.8614 6.13845 26.3998 6.80005 26.3998C7.46165 26.3998 8.00005 25.8614 8.00005 25.1998ZM8.75925 24.7998H14.4V25.5998H8.75925C8.57365 26.5118 7.76645 27.1998 6.80005 27.1998C5.69685 27.1998 4.80005 26.3022 4.80005 25.1998C4.80005 24.0974 5.69685 23.1998 6.80005 23.1998C7.76645 23.1998 8.57365 23.8878 8.75925 24.7998ZM26.4 25.1998C26.4 24.5382 25.8616 23.9998 25.2 23.9998C24.5384 23.9998 24 24.5382 24 25.1998C24 25.8614 24.5384 26.3998 25.2 26.3998C25.8616 26.3998 26.4 25.8614 26.4 25.1998ZM16.2 19.9998C18.2952 19.9998 20 18.295 20 16.1998C20 14.1046 18.2952 12.3998 16.2 12.3998C14.1048 12.3998 12.4 14.1046 12.4 16.1998C12.4 18.295 14.1048 19.9998 16.2 19.9998ZM8.00005 6.7998C8.00005 6.1382 7.46165 5.5998 6.80005 5.5998C6.13845 5.5998 5.60005 6.1382 5.60005 6.7998C5.60005 7.4614 6.13845 7.9998 6.80005 7.9998C7.46165 7.9998 8.00005 7.4614 8.00005 6.7998ZM27.2 25.1998C27.2 26.3022 26.3032 27.1998 25.2 27.1998C24.2336 27.1998 23.4264 26.5118 23.2408 25.5998H16.4C16.1792 25.5998 16 25.4206 16 25.1998V20.7894C13.5568 20.6838 11.6 18.6686 11.6 16.1998C11.6 13.731 13.5568 11.7158 16 11.6102V7.1998H8.75925C8.57365 8.1118 7.76645 8.7998 6.80005 8.7998C5.69685 8.7998 4.80005 7.9022 4.80005 6.7998C4.80005 5.6974 5.69685 4.7998 6.80005 4.7998C7.76645 4.7998 8.57365 5.4878 8.75925 6.3998H16.4C16.6208 6.3998 16.8 6.579 16.8 6.7998V11.6438C19.0536 11.939 20.8 13.867 20.8 16.1998C20.8 18.5326 19.0536 20.4606 16.8 20.7558V24.7998H23.2408C23.4264 23.8878 24.2336 23.1998 25.2 23.1998C26.3032 23.1998 27.2 24.0974 27.2 25.1998ZM24 6.7998C24 7.4614 24.5384 7.9998 25.2 7.9998C25.8616 7.9998 26.4 7.4614 26.4 6.7998C26.4 6.1382 25.8616 5.5998 25.2 5.5998C24.5384 5.5998 24 6.1382 24 6.7998ZM23.2408 7.1998H18.4V6.3998H23.2408C23.4264 5.4878 24.2336 4.7998 25.2 4.7998C26.3032 4.7998 27.2 5.6974 27.2 6.7998C27.2 7.9022 26.3032 8.7998 25.2 8.7998C24.2336 8.7998 23.4264 8.1118 23.2408 7.1998ZM21.6168 21.6158C24.7136 18.519 24.7136 13.4806 21.6168 10.3838L21.0504 10.9494C23.788 13.687 23.788 18.3126 21.0504 21.0502L21.6168 21.6158ZM10.9496 10.9494C8.21205 13.687 8.21205 18.3126 10.9496 21.0502L10.3832 21.6158C7.28645 18.519 7.28645 13.4806 10.3832 10.3838L10.9496 10.9494Z" fill="white"/>
</g>
<defs>
<linearGradient id="paint0_linear_854_26786" x1="-6.62613" y1="38.6261" x2="38.6261" y2="-6.62613" gradientUnits="userSpaceOnUse">
<stop stop-color="#1B660F"/>
<stop offset="1" stop-color="#6CAE3E"/>
</linearGradient>
<clipPath id="clip0_854_26786">
<rect width="32" height="32" fill="white"/>
</clipPath>
</defs>
</svg>
