<svg width="32" height="33" viewBox="0 0 32 33" fill="none" xmlns="http://www.w3.org/2000/svg">
<g clip-path="url(#clip0_850_25875)">
<path d="M32 0.272461H0V32.2725H32V0.272461Z" fill="url(#paint0_linear_850_25875)"/>
<path d="M8.83196 20.9405C8.76373 20.9408 8.69643 20.9247 8.6357 20.8936L5.78556 19.4088C5.71692 19.3753 5.65853 19.3239 5.6165 19.2601C5.57447 19.1963 5.55034 19.1224 5.54663 19.0461C5.54725 18.9685 5.56903 18.8925 5.60963 18.8263C5.65023 18.7602 5.7081 18.7064 5.77703 18.6706L7.42396 17.8173L7.80796 18.5768L6.91623 19.0461L8.83196 20.0445L10.8245 19.0461L9.8133 18.5085L10.24 17.7661L11.9466 18.6536C12.0154 18.6902 12.0728 18.7449 12.1127 18.8119C12.1526 18.8788 12.1733 18.9554 12.1728 19.0333C12.1729 19.1117 12.1515 19.1885 12.1109 19.2555C12.0702 19.3225 12.0119 19.377 11.9424 19.413L9.01543 20.8936C8.95909 20.9241 8.89606 20.9403 8.83196 20.9405V20.9405Z" fill="white"/>
<path d="M15.9615 24.3621C15.8931 24.3638 15.8255 24.3476 15.7652 24.3151L12.9151 22.8303C12.8463 22.7937 12.7889 22.739 12.749 22.672C12.7092 22.6051 12.6884 22.5285 12.689 22.4506C12.6896 22.373 12.7114 22.297 12.752 22.2308C12.7926 22.1647 12.8505 22.1108 12.9194 22.0751L14.626 21.2218L15.0143 21.9813L14.0458 22.4591L15.9615 23.4575L17.954 22.4591L17.0239 21.9642L17.4164 21.209L19.0847 22.0623C19.1535 22.0989 19.2109 22.1537 19.2508 22.2206C19.2906 22.2876 19.3114 22.3641 19.3108 22.4421C19.311 22.5204 19.2896 22.5973 19.249 22.6643C19.2083 22.7312 19.15 22.7857 19.0804 22.8218L16.1535 24.3023C16.0959 24.3387 16.0296 24.3593 15.9615 24.3621Z" fill="white"/>
<path d="M23.0912 20.9405C23.0229 20.9408 22.9556 20.9247 22.8949 20.8936L20.0533 19.4088C19.9845 19.3722 19.9271 19.3174 19.8872 19.2505C19.8474 19.1835 19.8266 19.107 19.8272 19.029C19.8278 18.9514 19.8496 18.8754 19.8902 18.8093C19.9308 18.7431 19.9886 18.6893 20.0576 18.6536L21.7002 17.8216L22.0842 18.581L21.1754 19.0461L23.0912 20.0445L25.0837 19.0461L24.0896 18.5298L24.4821 17.7661L26.2144 18.6664C26.2855 18.7012 26.3456 18.7552 26.3878 18.8223C26.43 18.8894 26.4527 18.9669 26.4533 19.0461C26.4535 19.1245 26.432 19.2013 26.3914 19.2683C26.3508 19.3353 26.2925 19.3898 26.2229 19.4258L23.296 20.9064C23.2321 20.9361 23.1613 20.9479 23.0912 20.9405V20.9405Z" fill="white"/>
<path d="M23.0997 19.1568C22.7289 19.1576 22.3662 19.0484 22.0575 18.8429C21.7488 18.6374 21.5081 18.3449 21.3658 18.0025C21.2235 17.66 21.1861 17.2831 21.2582 16.9193C21.3303 16.5556 21.5088 16.2215 21.771 15.9593C22.0332 15.697 22.3674 15.5186 22.7311 15.4464C23.0948 15.3743 23.4718 15.4117 23.8142 15.554C24.1567 15.6963 24.4492 15.9371 24.6546 16.2458C24.8601 16.5544 24.9694 16.9172 24.9685 17.288C24.9674 17.7833 24.7702 18.2579 24.4199 18.6082C24.0697 18.9584 23.595 19.1556 23.0997 19.1568V19.1568ZM23.0997 16.2682C22.8979 16.2674 22.7003 16.3265 22.532 16.438C22.3638 16.5496 22.2324 16.7085 22.1546 16.8948C22.0768 17.081 22.056 17.2862 22.0948 17.4843C22.1337 17.6824 22.2305 17.8645 22.3729 18.0075C22.5153 18.1506 22.697 18.2481 22.895 18.2878C23.0929 18.3275 23.2981 18.3075 23.4847 18.2305C23.6713 18.1534 23.8308 18.0227 23.943 17.855C24.0553 17.6872 24.1152 17.4898 24.1152 17.288C24.1152 17.0183 24.0084 16.7595 23.818 16.5684C23.6277 16.3773 23.3694 16.2694 23.0997 16.2682V16.2682Z" fill="white"/>
<path d="M8.85329 19.1568C8.48265 19.1568 8.12034 19.0468 7.81223 18.8408C7.50411 18.6348 7.26404 18.342 7.12239 17.9995C6.98075 17.657 6.94391 17.2802 7.01653 16.9167C7.08915 16.5533 7.26797 16.2195 7.53035 15.9577C7.79273 15.696 8.12687 15.5179 8.49049 15.4461C8.85411 15.3743 9.23086 15.412 9.57304 15.5545C9.91522 15.6969 10.2075 15.9376 10.4128 16.2462C10.6181 16.5548 10.7272 16.9173 10.7264 17.288C10.7252 17.784 10.5274 18.2593 10.1762 18.6097C9.82509 18.96 9.34932 19.1568 8.85329 19.1568V19.1568ZM8.85329 16.2682C8.6516 16.2682 8.45445 16.3281 8.28675 16.4401C8.11906 16.5522 7.98836 16.7114 7.91118 16.8977C7.834 17.0841 7.8138 17.2891 7.85315 17.4869C7.89249 17.6847 7.98961 17.8664 8.13223 18.009C8.27484 18.1517 8.45654 18.2488 8.65435 18.2881C8.85216 18.3275 9.05719 18.3073 9.24352 18.2301C9.42985 18.1529 9.58912 18.0222 9.70117 17.8545C9.81321 17.6868 9.87302 17.4897 9.87302 17.288C9.87302 17.0175 9.76558 16.7582 9.57435 16.5669C9.38311 16.3757 9.12374 16.2682 8.85329 16.2682V16.2682Z" fill="white"/>
<path d="M16.0171 22.6514C15.6465 22.6514 15.2842 22.5414 14.976 22.3354C14.6679 22.1294 14.4279 21.8366 14.2862 21.4941C14.1446 21.1516 14.1077 20.7748 14.1803 20.4114C14.253 20.0479 14.4318 19.7142 14.6942 19.4524C14.9565 19.1906 15.2907 19.0125 15.6543 18.9407C16.0179 18.869 16.3947 18.9067 16.7369 19.0491C17.079 19.1915 17.3713 19.4322 17.5766 19.7408C17.7819 20.0494 17.891 20.412 17.8902 20.7826C17.889 21.2786 17.6912 21.754 17.3401 22.1043C16.9889 22.4547 16.5131 22.6514 16.0171 22.6514V22.6514ZM16.0171 19.7629C15.8154 19.7629 15.6183 19.8227 15.4506 19.9347C15.2829 20.0468 15.1522 20.206 15.075 20.3924C14.9978 20.5787 14.9776 20.7837 15.017 20.9815C15.0563 21.1794 15.1534 21.3611 15.296 21.5037C15.4387 21.6463 15.6204 21.7434 15.8182 21.7827C16.016 21.8221 16.221 21.8019 16.4073 21.7247C16.5937 21.6475 16.7529 21.5168 16.865 21.3491C16.977 21.1814 17.0368 20.9843 17.0368 20.7826C17.0368 20.5122 16.9294 20.2528 16.7382 20.0615C16.5469 19.8703 16.2876 19.7629 16.0171 19.7629V19.7629Z" fill="white"/>
<path d="M19.1486 13.2362L18.5662 13.8599L21.4569 16.5593L22.0393 15.9356L19.1486 13.2362Z" fill="white"/>
<path d="M13.1032 12.9167L9.57764 16.1929L10.1585 16.818L13.6841 13.5418L13.1032 12.9167Z" fill="white"/>
<path d="M16.0981 15.2699C15.3959 15.2732 14.7086 15.0681 14.1232 14.6803C13.5378 14.2926 13.0807 13.7398 12.8098 13.092C12.539 12.4442 12.4665 11.7305 12.6018 11.0415C12.737 10.3525 13.0737 9.71914 13.5693 9.22174C14.065 8.72434 14.6971 8.38529 15.3856 8.24758C16.0741 8.10986 16.788 8.17968 17.4368 8.44819C18.0856 8.71669 18.6401 9.17179 19.0299 9.75578C19.4198 10.3398 19.6274 11.0264 19.6266 11.7285C19.6255 12.6652 19.2538 13.5634 18.5927 14.2269C17.9315 14.8904 17.0347 15.2654 16.0981 15.2699V15.2699ZM16.0981 9.03627C15.5649 9.03289 15.0427 9.18791 14.5977 9.48168C14.1527 9.77545 13.805 10.1947 13.5986 10.6864C13.3922 11.178 13.3365 11.7199 13.4384 12.2432C13.5403 12.7666 13.7954 13.2479 14.1712 13.6261C14.5471 14.0044 15.0267 14.2625 15.5495 14.3678C16.0722 14.473 16.6144 14.4207 17.1073 14.2175C17.6002 14.0142 18.0217 13.6691 18.3183 13.226C18.6149 12.7829 18.7733 12.2617 18.7733 11.7285C18.7722 11.0178 18.4905 10.3362 17.9895 9.83205C17.4886 9.32789 16.8088 9.04189 16.0981 9.03627Z" fill="white"/>
<path d="M16.4437 15.0947H15.5903V19.195H16.4437V15.0947Z" fill="white"/>
</g>
<defs>
<linearGradient id="paint0_linear_850_25875" x1="-6.62613" y1="38.8999" x2="38.6287" y2="-6.35496" gradientUnits="userSpaceOnUse">
<stop stop-color="#1B660F"/>
<stop offset="1" stop-color="#6CAE3E"/>
</linearGradient>
<clipPath id="clip0_850_25875">
<rect width="32" height="32" fill="white" transform="translate(0 0.272461)"/>
</clipPath>
</defs>
</svg>
