<svg width="32" height="32" viewBox="0 0 32 32" fill="none" xmlns="http://www.w3.org/2000/svg">
<path d="M32 0H0V32H32V0Z" fill="url(#paint0_linear_854_26847)"/>
<path d="M24.7421 13.056C24.5138 13.0557 24.2867 13.0887 24.068 13.1541C23.6481 11.9712 22.9952 10.8845 22.148 9.95838L22.2589 9.84745C22.7421 10.1795 23.3319 10.3191 23.9126 10.2388C24.4933 10.1584 25.0231 9.86402 25.398 9.41327C25.7729 8.96252 25.9658 8.38797 25.939 7.80232C25.9121 7.21667 25.6674 6.66218 25.2529 6.24763C24.8383 5.83307 24.2838 5.58837 23.6982 5.56152C23.1125 5.53467 22.538 5.72761 22.0872 6.1025C21.6365 6.47738 21.3421 7.00715 21.2617 7.58789C21.1814 8.16863 21.321 8.75842 21.653 9.24158L21.5421 9.35251C20.6146 8.50691 19.5263 7.85682 18.3421 7.44105C18.3988 7.24117 18.4275 7.03441 18.4275 6.82665C18.4275 6.20427 18.1802 5.60739 17.7401 5.1673C17.3 4.72722 16.7032 4.47998 16.0808 4.47998C15.4584 4.47998 14.8615 4.72722 14.4214 5.1673C13.9814 5.60739 13.7341 6.20427 13.7341 6.82665C13.7341 6.88638 13.7341 6.94611 13.7341 7.00158C12.223 7.2316 10.791 7.82715 9.56238 8.73647C8.3338 9.6458 7.34586 10.8414 6.68442 12.2194C6.02298 13.5973 5.70805 15.116 5.76699 16.6433C5.82594 18.1707 6.25698 19.6606 7.02265 20.9834C6.59591 21.422 6.35733 22.0098 6.35776 22.6217C6.35818 23.2336 6.59758 23.8211 7.02493 24.259C7.45228 24.6969 8.03377 24.9506 8.64545 24.966C9.25714 24.9814 9.85064 24.7572 10.2994 24.3413C12.0972 25.4348 14.2102 25.8926 16.2994 25.6412C18.3885 25.3897 20.3326 24.4436 21.8195 22.9546C23.2312 21.539 24.1574 19.712 24.4648 17.7365C24.5458 17.7408 24.627 17.7408 24.708 17.7365C25.3304 17.7365 25.9272 17.4893 26.3673 17.0492C26.8074 16.6091 27.0546 16.0122 27.0546 15.3898C27.0546 14.7675 26.8074 14.1706 26.3673 13.7305C25.9272 13.2904 25.3304 13.0432 24.708 13.0432L24.7421 13.056ZM23.5688 6.42131C23.8641 6.42131 24.1529 6.5089 24.3984 6.67299C24.644 6.83708 24.8354 7.0703 24.9484 7.34317C25.0615 7.61604 25.091 7.9163 25.0334 8.20598C24.9758 8.49566 24.8336 8.76175 24.6247 8.97059C24.4159 9.17944 24.1498 9.32167 23.8601 9.37929C23.5704 9.43691 23.2702 9.40733 22.9973 9.29431C22.7244 9.18128 22.4912 8.98988 22.3271 8.7443C22.163 8.49872 22.0754 8.21 22.0754 7.91465C22.0754 7.51859 22.2328 7.13875 22.5128 6.8587C22.7929 6.57865 23.1727 6.42131 23.5688 6.42131V6.42131ZM23.2829 13.5552C23.001 13.7736 22.7729 14.0536 22.6161 14.3739C22.4593 14.6941 22.378 15.0461 22.3784 15.4026C22.3771 15.5735 22.3958 15.7439 22.4338 15.9104L10.8925 21.8325C10.8402 21.6824 10.77 21.5392 10.6834 21.4058L21.525 10.5642C22.3128 11.428 22.9116 12.4467 23.2829 13.5552V13.5552ZM17.9752 8.21758C19.0596 8.59161 20.0558 9.18409 20.9021 9.95838L10.1075 20.7701C9.97664 20.6671 9.83327 20.581 9.68078 20.5141L15.5432 9.10931C15.722 9.15237 15.9054 9.17386 16.0893 9.17331C16.4566 9.17334 16.8188 9.08682 17.1464 8.92078C17.4741 8.75473 17.758 8.51382 17.9752 8.21758V8.21758ZM16.0893 5.33331C16.3847 5.33331 16.6734 5.4209 16.919 5.58499C17.1645 5.74908 17.356 5.9823 17.469 6.25517C17.582 6.52804 17.6116 6.8283 17.554 7.11798C17.4963 7.40766 17.3541 7.67375 17.1453 7.88259C16.9364 8.09144 16.6703 8.23367 16.3807 8.29129C16.091 8.34891 15.7907 8.31933 15.5178 8.20631C15.245 8.09328 15.0117 7.90188 14.8477 7.6563C14.6836 7.41072 14.596 7.122 14.596 6.82665C14.596 6.43059 14.7533 6.05076 15.0334 5.7707C15.3134 5.49065 15.6933 5.33331 16.0893 5.33331V5.33331ZM6.62585 16.2986C6.62769 14.2399 7.37152 12.2509 8.72097 10.6961C10.0704 9.14132 11.9351 8.12504 13.9731 7.83358C14.1498 8.20645 14.4222 8.52589 14.7624 8.75945L8.84452 20.2794C8.7934 20.2752 8.74203 20.2752 8.69092 20.2794C8.35949 20.2782 8.03182 20.3496 7.73092 20.4885C7.00584 19.2112 6.62504 17.7674 6.62585 16.2986V16.2986ZM8.69092 24.128C8.39556 24.128 8.10684 24.0404 7.86127 23.8763C7.61569 23.7122 7.42428 23.479 7.31126 23.2061C7.19823 22.9332 7.16866 22.633 7.22628 22.3433C7.2839 22.0536 7.42612 21.7875 7.63497 21.5787C7.84382 21.3699 8.1099 21.2276 8.39958 21.17C8.68926 21.1124 8.98952 21.142 9.26239 21.255C9.53526 21.368 9.76849 21.5594 9.93258 21.805C10.0967 22.0506 10.1842 22.3393 10.1842 22.6346C10.1842 23.0307 10.0269 23.4105 9.74686 23.6906C9.46681 23.9706 9.08697 24.128 8.69092 24.128V24.128ZM21.2306 22.3488C19.8844 23.6947 18.1266 24.5518 16.2371 24.7838C14.3476 25.0157 12.4348 24.6092 10.8029 23.6288C10.9466 23.3392 11.0252 23.0218 11.0333 22.6986L22.7709 16.6997C22.9934 17.0352 23.2992 17.3072 23.6584 17.489C23.4001 19.3302 22.5477 21.0366 21.2306 22.3488V22.3488ZM24.7421 16.896C24.4468 16.896 24.158 16.8084 23.9125 16.6443C23.6669 16.4802 23.4755 16.247 23.3625 15.9741C23.2494 15.7012 23.2199 15.401 23.2775 15.1113C23.3351 14.8216 23.4773 14.5555 23.6862 14.3467C23.895 14.1379 24.1611 13.9956 24.4508 13.938C24.7405 13.8804 25.0407 13.91 25.3136 14.023C25.5865 14.136 25.8197 14.3274 25.9838 14.573C26.1479 14.8186 26.2354 15.1073 26.2354 15.4026C26.2354 15.7987 26.0781 16.1785 25.7981 16.4586C25.518 16.7386 25.1382 16.896 24.7421 16.896V16.896Z" fill="white"/>
<defs>
<linearGradient id="paint0_linear_854_26847" x1="-6.62613" y1="38.6261" x2="38.6261" y2="-6.62613" gradientUnits="userSpaceOnUse">
<stop stop-color="#1B660F"/>
<stop offset="1" stop-color="#6CAE3E"/>
</linearGradient>
</defs>
</svg>
