<svg width="32" height="32" viewBox="0 0 32 32" fill="none" xmlns="http://www.w3.org/2000/svg">
<g clip-path="url(#clip0_854_26834)">
<path d="M32 0H0V32H32V0Z" fill="url(#paint0_linear_854_26834)"/>
<path fill-rule="evenodd" clip-rule="evenodd" d="M25.1273 11.2757C24.5945 10.9493 23.9737 10.6941 23.3809 10.5573C23.2097 9.21167 22.4721 8.22447 21.3729 7.89167C20.5321 7.63807 19.6457 7.82287 18.9753 8.36047C18.6297 7.62207 18.1777 6.98367 17.6281 6.45807C15.8569 4.76367 13.4345 4.30527 11.1489 5.22687C9.19049 6.01727 7.71369 8.20527 7.71369 10.3157C7.71369 10.4309 7.71689 10.5453 7.72409 10.6589C6.65289 10.9981 4.84009 11.9549 4.84009 14.5309C4.84009 16.8669 5.92409 17.8661 6.57129 18.2533C6.91049 18.4573 7.78329 18.8221 8.31289 18.8229H8.95609V18.0229H8.31289C8.01769 18.0221 7.31289 17.7661 6.98169 17.5677C6.36969 17.2005 5.64009 16.3757 5.64009 14.5309C5.64009 12.3093 7.27449 11.5805 8.24809 11.3437C8.44569 11.2957 8.57689 11.1069 8.55049 10.9045C8.52649 10.7117 8.51369 10.5149 8.51369 10.3157C8.51369 8.54207 9.80329 6.63327 11.4489 5.96927C13.4329 5.16527 15.5385 5.56607 17.0753 7.03567C17.6737 7.60847 18.1401 8.33887 18.4625 9.20767C18.5129 9.34367 18.6337 9.44207 18.7777 9.46367C18.9137 9.48447 19.0649 9.42767 19.1537 9.31327C19.6337 8.69327 20.4129 8.43647 21.1409 8.65727C21.9801 8.91167 22.5289 9.74127 22.6073 10.8213C22.5889 10.9261 22.6137 11.0341 22.6761 11.1213C22.7377 11.2085 22.8321 11.2669 22.9369 11.2837C23.5201 11.3789 24.1657 11.6245 24.7089 11.9581C26.1937 12.8677 26.3657 13.8133 26.3657 14.4453C26.3657 17.8501 23.2825 18.0173 23.1513 18.0229L23.1809 18.8221C23.2209 18.8213 27.1657 18.6301 27.1657 14.4453C27.1657 13.1533 26.4985 12.1165 25.1273 11.2757ZM20.7889 13.5533C20.7889 13.1477 20.4585 12.8173 20.0529 12.8173H19.9889V11.2173H19.1889V12.8173H17.5889V11.2173H16.7889V12.8173H15.1889V11.2173H14.3889V12.8173H12.7889V11.2173H11.9889V12.8173H11.9249C11.5193 12.8173 11.1889 13.1477 11.1889 13.5533V13.6173H9.58889V14.4173H11.1889V16.0173H9.58889V16.8173H11.1889V18.4173H9.58889V19.2173H11.1889V20.8173H9.58889V21.6173H11.1889V21.6813C11.1889 22.0877 11.5193 22.4173 11.9249 22.4173H13.5889V21.6173H11.9889V13.6173H19.9889V21.6173H15.9889V22.4173H20.0529C20.4585 22.4173 20.7889 22.0877 20.7889 21.6813V21.6173H22.3889V20.8173H20.7889V19.2173H22.3889V18.4173H20.7889V16.8173H22.3889V16.0173H20.7889V14.4173H22.3889V13.6173H20.7889V13.5533ZM19.1889 25.6173H19.9889V23.2173H19.1889V25.6173ZM16.7889 26.4173H17.5889V24.0173H16.7889V26.4173ZM14.3889 25.6173H15.1889V20.0173H14.3889V25.6173ZM11.9889 27.2173H12.7889V23.2173H11.9889V27.2173Z" fill="white"/>
</g>
<defs>
<linearGradient id="paint0_linear_854_26834" x1="-6.62613" y1="38.6261" x2="38.6261" y2="-6.62613" gradientUnits="userSpaceOnUse">
<stop stop-color="#1B660F"/>
<stop offset="1" stop-color="#6CAE3E"/>
</linearGradient>
<clipPath id="clip0_854_26834">
<rect width="32" height="32" fill="white"/>
</clipPath>
</defs>
</svg>
