<svg width="32" height="32" viewBox="0 0 32 32" fill="none" xmlns="http://www.w3.org/2000/svg">
<g clip-path="url(#clip0_854_26797)">
<path d="M32 0H0V32H32V0Z" fill="url(#paint0_linear_854_26797)"/>
<path fill-rule="evenodd" clip-rule="evenodd" d="M16.792 24.8257V22.2137C16.792 21.4297 17.3248 20.7921 17.9792 20.7921H20.6336C20.1928 22.7409 18.704 24.2921 16.792 24.8257ZM14.3808 24.9409V22.2137C14.3808 20.9889 13.2816 19.9921 11.9312 19.9921H9.91604C9.90644 19.8593 9.89604 19.7273 9.89604 19.5921C9.89604 19.4569 9.90644 19.3249 9.91604 19.1921H11.6528C12.5328 19.1913 13.3424 18.8177 13.82 18.1921C14.2048 17.6889 14.7872 17.4001 15.42 17.4001C16.0528 17.4001 16.636 17.6889 17.02 18.1929C17.4984 18.8185 18.3088 19.1921 19.1872 19.1921H20.7512C20.7608 19.3249 20.772 19.4569 20.772 19.5921C20.772 19.7273 20.7608 19.8593 20.7512 19.9921H17.9792C16.8832 19.9921 15.992 20.9889 15.992 22.2137V24.9865C15.776 25.0121 15.5576 25.0297 15.3344 25.0297C15.0088 25.0297 14.6912 24.9961 14.3808 24.9409ZM10.0336 20.7921H11.9312C12.8416 20.7921 13.5808 21.4297 13.5808 22.2137V24.7345C11.8112 24.1297 10.452 22.6393 10.0336 20.7921ZM15.3344 14.1545C17.92 14.1545 20.0856 15.9697 20.6336 18.3921H19.1872C18.556 18.3921 17.9832 18.1361 17.656 17.7073C17.1192 17.0041 16.3048 16.6001 15.42 16.6001C14.5368 16.6001 13.7208 17.0033 13.184 17.7073C12.8568 18.1353 12.284 18.3913 11.6528 18.3921H10.0336C10.5824 15.9697 12.7488 14.1545 15.3344 14.1545ZM15.3344 13.3545C11.8944 13.3545 9.09604 16.1529 9.09604 19.5921C9.09604 23.0313 11.8944 25.8297 15.3344 25.8297C18.7736 25.8297 21.572 23.0313 21.572 19.5921C21.572 16.1529 18.7736 13.3545 15.3344 13.3545ZM23.3904 19.1921L23.2192 19.1913C23.0088 15.0185 19.5584 11.6865 15.3344 11.6865C11.3144 11.6865 7.99204 14.7041 7.49844 18.5921C6.59924 17.9473 5.96884 16.8329 5.85924 15.6409C5.84564 15.4977 5.84004 15.3489 5.84004 15.1945C5.84004 14.0545 6.65684 12.4529 8.19204 12.4105C8.39364 12.4049 8.56004 12.2497 8.57924 12.0489L8.62084 11.6169C8.62324 11.5889 8.62324 11.5601 8.61924 11.5313C8.59444 11.3169 8.58084 11.0977 8.58084 10.8753C8.58084 8.90493 9.91364 6.78573 11.6144 6.05053C14.5528 4.78093 16.6336 6.45053 17.3928 7.22733C18.012 7.86093 18.4952 8.67053 18.828 9.63373C18.8768 9.77453 19 9.87613 19.1472 9.89853C19.2952 9.92013 19.4424 9.85853 19.5304 9.73693C20.0088 9.07533 20.788 8.78493 21.5144 8.99213C22.4184 9.25213 23.0088 10.1849 23.092 11.4449C23.0584 11.6601 23.204 11.8625 23.4184 11.9001C24.3832 12.0697 26.6288 12.7633 26.6288 15.5489C26.6288 18.8673 23.4888 19.1817 23.3904 19.1921ZM15.3344 26.6977C11.4152 26.6977 8.22804 23.5105 8.22804 19.5921C8.22804 15.6737 11.4152 12.4865 15.3344 12.4865C19.252 12.4865 22.44 15.6737 22.44 19.5921C22.44 23.5105 19.252 26.6977 15.3344 26.6977ZM23.8704 11.1769C23.6984 9.65773 22.912 8.56173 21.736 8.22413C20.8984 7.98333 20.0144 8.19293 19.3472 8.76253C18.9936 7.94973 18.5304 7.24733 17.9648 6.66893C16.1448 4.80493 13.6512 4.29773 11.2976 5.31613C9.29284 6.18253 7.78084 8.57293 7.78084 10.8753C7.78084 11.1145 7.79444 11.3513 7.82004 11.5825L7.81444 11.6417C6.09124 11.8953 5.04004 13.6185 5.04004 15.1945C5.04004 15.3737 5.04724 15.5465 5.06244 15.7137C5.21044 17.3249 6.11844 18.7713 7.43284 19.4985C7.43204 19.5297 7.42804 19.5609 7.42804 19.5921C7.42804 23.9513 10.9752 27.4977 15.3344 27.4977C19.5592 27.4977 23.0104 24.1641 23.2192 19.9905L23.4216 19.9913C23.4624 19.9873 27.4288 19.6113 27.4288 15.5489C27.4288 12.3961 25.0072 11.4481 23.8704 11.1769Z" fill="white"/>
</g>
<defs>
<linearGradient id="paint0_linear_854_26797" x1="-6.62613" y1="38.6261" x2="38.6261" y2="-6.62613" gradientUnits="userSpaceOnUse">
<stop stop-color="#1B660F"/>
<stop offset="1" stop-color="#6CAE3E"/>
</linearGradient>
<clipPath id="clip0_854_26797">
<rect width="32" height="32" fill="white"/>
</clipPath>
</defs>
</svg>
