<svg width="32" height="32" viewBox="0 0 32 32" fill="none" xmlns="http://www.w3.org/2000/svg">
<path d="M32 0H0V32H32V0Z" fill="url(#paint0_linear_854_26850)"/>
<path d="M25.4934 9.96008L16.1067 4.53714C16.0419 4.4997 15.9683 4.47998 15.8934 4.47998C15.8185 4.47998 15.7449 4.4997 15.6801 4.53714L6.29341 9.96008C6.22893 9.99731 6.17531 10.0508 6.13788 10.1151C6.10046 10.1795 6.08053 10.2526 6.08008 10.327V21.1686C6.08053 21.2431 6.10046 21.3161 6.13788 21.3805C6.17531 21.4449 6.22893 21.4983 6.29341 21.5355L15.6801 26.9542C15.7449 26.9917 15.8185 27.0114 15.8934 27.0114C15.9683 27.0114 16.0419 26.9917 16.1067 26.9542L25.4934 21.5355C25.5579 21.4983 25.6115 21.4449 25.6489 21.3805C25.6864 21.3161 25.7063 21.2431 25.7067 21.1686V10.327C25.7063 10.2526 25.6864 10.1795 25.6489 10.1151C25.6115 10.0508 25.5579 9.99731 25.4934 9.96008V9.96008ZM24.8534 20.9211L15.8934 26.0923L6.93341 20.9211V10.5745L15.8934 5.40328L24.8534 10.5745V20.9211Z" fill="white"/>
<path d="M20.8641 12.7933C20.7898 11.5253 20.2337 10.3337 19.3097 9.46229C18.3857 8.59085 17.1635 8.10547 15.8934 8.10547C14.6233 8.10547 13.4012 8.59085 12.4772 9.46229C11.5532 10.3337 10.9971 11.5253 10.9228 12.7933C9.83641 13.4797 9.05781 14.5598 8.75004 15.8075C8.44226 17.0551 8.62919 18.3734 9.27167 19.4863C9.91414 20.5992 10.9623 21.4203 12.1967 21.7777C13.431 22.1351 14.7558 22.0009 15.8934 21.4034C17.0311 22.0009 18.3558 22.1351 19.5902 21.7777C20.8245 21.4203 21.8727 20.5992 22.5152 19.4863C23.1577 18.3734 23.3446 17.0551 23.0368 15.8075C22.729 14.5598 21.9504 13.4797 20.8641 12.7933V12.7933ZM17.2289 17.06C17.2289 16.8743 17.2839 16.6928 17.3871 16.5385C17.4902 16.3841 17.6368 16.2638 17.8083 16.1927C17.9799 16.1217 18.1686 16.1031 18.3507 16.1393C18.5328 16.1755 18.7 16.2649 18.8313 16.3962C18.9626 16.5275 19.052 16.6947 19.0882 16.8768C19.1244 17.0589 19.1058 17.2476 19.0348 17.4192C18.9637 17.5907 18.8434 17.7373 18.6891 17.8404C18.5347 17.9436 18.3532 17.9986 18.1676 17.9986C17.9186 17.9986 17.6799 17.8997 17.5038 17.7237C17.3278 17.5477 17.2289 17.3089 17.2289 17.06V17.06ZM16.3756 17.2093C16.0498 17.252 15.7199 17.252 15.3942 17.2093C15.3985 17.1596 15.3985 17.1096 15.3942 17.06C15.3937 16.7141 15.2931 16.3758 15.1046 16.0858C14.9161 15.7958 14.6477 15.5666 14.3318 15.4258C14.4616 15.0994 14.6353 14.7922 14.8481 14.5128C15.1494 14.7239 15.5084 14.8371 15.8764 14.8371C16.2443 14.8371 16.6033 14.7239 16.9046 14.5128C17.1174 14.7922 17.2911 15.0994 17.4209 15.4258C17.105 15.5666 16.8366 15.7958 16.6481 16.0858C16.4596 16.3758 16.359 16.7141 16.3585 17.06C16.3627 17.1104 16.3713 17.1603 16.3841 17.2093H16.3756ZM14.5494 17.06C14.5494 17.2456 14.4944 17.4271 14.3912 17.5814C14.2881 17.7358 14.1415 17.8561 13.97 17.9272C13.7985 17.9982 13.6097 18.0168 13.4276 17.9806C13.2455 17.9444 13.0783 17.855 12.947 17.7237C12.8157 17.5924 12.7263 17.4252 12.6901 17.2431C12.6539 17.061 12.6725 16.8723 12.7435 16.7007C12.8146 16.5292 12.9349 16.3826 13.0893 16.2795C13.2436 16.1763 13.4251 16.1213 13.6108 16.1213C13.7346 16.1207 13.8573 16.1446 13.9719 16.1914C14.0865 16.2383 14.1908 16.3073 14.2788 16.3944C14.3667 16.4816 14.4366 16.5852 14.4846 16.6994C14.5325 16.8136 14.5574 16.9361 14.558 17.06H14.5494ZM14.9462 13.045C14.9462 12.8594 15.0013 12.6779 15.1044 12.5235C15.2076 12.3692 15.3542 12.2488 15.5257 12.1778C15.6972 12.1068 15.8859 12.0882 16.068 12.1244C16.2501 12.1606 16.4174 12.25 16.5486 12.3813C16.6799 12.5126 16.7693 12.6798 16.8055 12.8619C16.8417 13.044 16.8232 13.2327 16.7521 13.4042C16.6811 13.5757 16.5607 13.7223 16.4064 13.8255C16.252 13.9286 16.0705 13.9837 15.8849 13.9837C15.6378 13.9803 15.4018 13.8801 15.2279 13.7045C15.0539 13.529 14.9559 13.2922 14.9548 13.045H14.9462ZM18.287 15.2722C18.0971 14.758 17.8247 14.2781 17.4806 13.8514C17.6114 13.6029 17.6788 13.3259 17.6769 13.045C17.6769 12.9896 17.6769 12.9384 17.6769 12.8829C18.4791 12.7881 19.2915 12.929 20.015 13.2882C19.9807 14.1214 19.6918 14.924 19.1873 15.588C18.9236 15.4049 18.6157 15.2959 18.2956 15.2722H18.287ZM15.8934 8.98315C16.8514 8.98674 17.7787 9.32191 18.5176 9.93169C19.2565 10.5415 19.7615 11.3883 19.9468 12.3282C19.1311 12.0185 18.249 11.9259 17.3868 12.0594C17.2233 11.813 17.0014 11.6108 16.7408 11.471C16.4803 11.3312 16.1891 11.258 15.8934 11.258C15.5977 11.258 15.3066 11.3312 15.046 11.471C14.7855 11.6108 14.5636 11.813 14.4001 12.0594C13.5379 11.9255 12.6557 12.0181 11.8401 12.3282C12.0254 11.3883 12.5304 10.5415 13.2693 9.93169C14.0082 9.32191 14.9354 8.98674 15.8934 8.98315V8.98315ZM14.11 12.8829C14.11 12.9384 14.11 12.9896 14.11 13.045C14.108 13.3259 14.1754 13.6029 14.3062 13.8514C13.9621 14.2781 13.6898 14.758 13.4998 15.2722C13.1797 15.2959 12.8718 15.4049 12.6081 15.588C12.1036 14.924 11.8147 14.1214 11.7804 13.2882C12.5013 12.9306 13.3106 12.7898 14.11 12.8829V12.8829ZM13.6193 21.0834C12.7819 21.0716 11.968 20.8053 11.2856 20.3199C10.6032 19.8344 10.0847 19.1528 9.799 18.3656C9.51329 17.5784 9.4739 16.7229 9.68606 15.9127C9.89821 15.1026 10.3519 14.3762 10.9868 13.8301C11.1138 14.7195 11.4811 15.5575 12.0492 16.2536C11.916 16.5018 11.8443 16.7783 11.8401 17.06C11.8407 17.5201 12.0182 17.9623 12.3359 18.2951C12.6536 18.6279 13.0872 18.8258 13.5468 18.8477C13.8606 19.6306 14.3704 20.3197 15.0273 20.8488C14.5752 21.0084 14.0987 21.0878 13.6193 21.0834ZM14.4001 18.6642C14.6903 18.522 14.9366 18.3038 15.1126 18.0328C15.6239 18.118 16.1458 18.118 16.6572 18.0328C16.8379 18.3061 17.0903 18.5246 17.3868 18.6642C17.0711 19.3784 16.5554 19.986 15.902 20.4136C15.2422 19.9885 14.7204 19.3807 14.4001 18.6642V18.6642ZM18.1676 21.0834C17.6828 21.0838 17.2018 20.9986 16.7468 20.8317C17.406 20.3089 17.9202 19.6258 18.2401 18.8477C18.6997 18.8258 19.1332 18.6279 19.4509 18.2951C19.7687 17.9623 19.9462 17.5201 19.9468 17.06C19.9472 16.7747 19.8784 16.4936 19.7462 16.2408C20.3168 15.5497 20.6885 14.7163 20.8214 13.8301C21.4576 14.3774 21.9117 15.1057 22.1232 15.9178C22.3348 16.73 22.2936 17.5873 22.0052 18.3754C21.7169 19.1635 21.195 19.8449 20.5094 20.3288C19.8237 20.8126 19.0067 21.0759 18.1676 21.0834V21.0834Z" fill="white"/>
<defs>
<linearGradient id="paint0_linear_854_26850" x1="-6.62613" y1="38.6304" x2="38.6304" y2="-6.62613" gradientUnits="userSpaceOnUse">
<stop stop-color="#1B660F"/>
<stop offset="1" stop-color="#6CAE3E"/>
</linearGradient>
</defs>
</svg>
