<svg width="32" height="32" viewBox="0 0 32 32" fill="none" xmlns="http://www.w3.org/2000/svg">
<g clip-path="url(#clip0_854_26765)">
<path d="M32 0H0V32H32V0Z" fill="url(#paint0_linear_854_26765)"/>
<path fill-rule="evenodd" clip-rule="evenodd" d="M9.20085 22.4006C8.53925 22.4006 8.00085 21.8622 8.00085 21.2006C8.00085 20.539 8.53925 20.0006 9.20085 20.0006C9.86245 20.0006 10.4008 20.539 10.4008 21.2006C10.4008 21.8622 9.86245 22.4006 9.20085 22.4006ZM13.6 17.2006H12.8V20.8006H11.16C10.9744 19.8886 10.1672 19.2006 9.20085 19.2006C8.09765 19.2006 7.20085 20.0982 7.20085 21.2006C7.20085 22.303 8.09765 23.2006 9.20085 23.2006C10.1672 23.2006 10.9744 22.5126 11.16 21.6006H13.2C13.4208 21.6006 13.6 21.4214 13.6 21.2006V17.2006ZM15.6 26.4006C14.9384 26.4006 14.4 25.8622 14.4 25.2006C14.4 24.539 14.9384 24.0006 15.6 24.0006C16.2616 24.0006 16.8 24.539 16.8 25.2006C16.8 25.8622 16.2616 26.4006 15.6 26.4006ZM16 23.2414V17.6102H15.2V23.2414C14.288 23.427 13.6 24.235 13.6 25.2006C13.6 26.303 14.4968 27.2006 15.6 27.2006C16.7032 27.2006 17.6 26.303 17.6 25.2006C17.6 24.235 16.912 23.427 16 23.2414ZM21.9992 22.4006C21.3376 22.4006 20.7992 21.8622 20.7992 21.2006C20.7992 20.539 21.3376 20.0006 21.9992 20.0006C22.6608 20.0006 23.1992 20.539 23.1992 21.2006C23.1992 21.8622 22.6608 22.4006 21.9992 22.4006ZM21.9992 19.2006C21.0328 19.2006 20.2256 19.8886 20.04 20.8006H18.4V17.2006H17.6V21.2006C17.6 21.4214 17.7792 21.6006 18 21.6006H20.04C20.2256 22.5126 21.0328 23.2006 21.9992 23.2006C23.1024 23.2006 23.9992 22.303 23.9992 21.2006C23.9992 20.0982 23.1024 19.2006 21.9992 19.2006ZM15.6 11.9766L6.42245 8.7998L15.6 5.623L24.7776 8.7998L15.6 11.9766ZM22.7944 13.0086C22.6584 14.4734 19.8024 15.9998 15.6 15.9998C11.3976 15.9998 8.54165 14.4734 8.40565 13.0086L9.80725 10.8182L15.4696 12.7782C15.512 12.7926 15.5552 12.7998 15.6 12.7998C15.6448 12.7998 15.688 12.7926 15.7304 12.7782L21.3928 10.8182L22.7944 13.0086ZM26.1304 8.4214L15.7304 4.8214C15.6464 4.7926 15.5536 4.7926 15.4696 4.8214L5.06965 8.4214C4.90805 8.4774 4.80005 8.6294 4.80005 8.7998C4.80005 8.9702 4.90805 9.1222 5.06965 9.1782L9.02965 10.5486L7.66325 12.6838C7.62165 12.7486 7.60005 12.823 7.60005 12.8998C7.60005 15.0862 11.1144 16.7998 15.6 16.7998C20.0856 16.7998 23.6 15.0862 23.6 12.8998C23.6 12.823 23.5784 12.7486 23.5368 12.6838L22.1704 10.5486L26.1304 9.1782C26.292 9.1222 26.4 8.9702 26.4 8.7998C26.4 8.6294 26.292 8.4774 26.1304 8.4214Z" fill="white"/>
</g>
<defs>
<linearGradient id="paint0_linear_854_26765" x1="-6.62613" y1="38.6261" x2="38.6261" y2="-6.62613" gradientUnits="userSpaceOnUse">
<stop stop-color="#1B660F"/>
<stop offset="1" stop-color="#6CAE3E"/>
</linearGradient>
<clipPath id="clip0_854_26765">
<rect width="32" height="32" fill="white"/>
</clipPath>
</defs>
</svg>
