<svg width="32" height="32" viewBox="0 0 32 32" fill="none" xmlns="http://www.w3.org/2000/svg">
<path d="M32 0H0V32H32V0Z" fill="url(#paint0_linear_854_26845)"/>
<path d="M26.6666 10.0268V9.17346H24.9599V7.89346C24.9599 7.7803 24.915 7.67178 24.8349 7.59176C24.7549 7.51175 24.6464 7.4668 24.5332 7.4668H7.46659C7.35343 7.4668 7.2449 7.51175 7.16489 7.59176C7.08487 7.67178 7.03992 7.7803 7.03992 7.89346V9.17346H5.33325V10.0268H7.03992V11.3068H5.33325V12.1601H7.03992V13.4401H5.33325V14.2935H7.03992V15.5735H5.33325V16.4268H7.03992V17.7068H5.33325V18.5601H7.03992V19.8401H5.33325V20.6935H7.03992V21.9735H5.33325V22.8268H7.03992V24.1068C7.03992 24.22 7.08487 24.3285 7.16489 24.4085C7.2449 24.4885 7.35343 24.5335 7.46659 24.5335H24.5332C24.6464 24.5335 24.7549 24.4885 24.8349 24.4085C24.915 24.3285 24.9599 24.22 24.9599 24.1068V22.8268H26.6666V21.9735H24.9599V20.6935H26.6666V19.8401H24.9599V18.5601H26.6666V17.7068H24.9599V16.4268H26.6666V15.5735H24.9599V14.2935H26.6666V13.4401H24.9599V12.1601H26.6666V11.3068H24.9599V10.0268H26.6666ZM24.1066 23.6801H7.89325V8.32013H24.1066V23.6801Z" fill="white"/>
<path d="M20.7401 14.2463C20.4959 13.5527 20.1016 12.9216 19.5853 12.3979C19.069 11.8743 18.4435 11.471 17.7535 11.217C17.7225 10.7731 17.5243 10.3574 17.1988 10.0539C16.8734 9.75033 16.4449 9.58154 15.9999 9.58154C15.5548 9.58154 15.1264 9.75033 14.8009 10.0539C14.4755 10.3574 14.2773 10.7731 14.2463 11.217C13.5568 11.4733 12.932 11.8778 12.4159 12.402C11.8998 12.9262 11.5051 13.5572 11.2596 14.2506C10.82 14.2941 10.4127 14.5011 10.1185 14.8306C9.82434 15.1602 9.66465 15.5882 9.67109 16.0299C9.67753 16.4716 9.84964 16.8948 10.1533 17.2156C10.457 17.5364 10.8701 17.7314 11.3108 17.7621C11.4903 18.2238 11.7392 18.6555 12.0489 19.0421L12.1428 19.1573C12.6069 19.7189 13.1898 20.1706 13.8495 20.4799V22.3999H14.7028V20.7957C14.9819 20.8731 15.2676 20.9245 15.5561 20.9493V22.3999H16.4095V20.9493C16.6979 20.9259 16.9836 20.8759 17.2628 20.7999V22.3999H18.1161V20.4799C19.2858 19.9286 20.2013 18.9521 20.6761 17.7493C21.1168 17.7186 21.5299 17.5236 21.8336 17.2028C22.1373 16.882 22.3094 16.4588 22.3158 16.0171C22.3223 15.5754 22.1626 15.1474 21.8684 14.8178C21.5742 14.4883 21.1669 14.2813 20.7273 14.2378L20.7401 14.2463ZM11.5625 16.8959C11.51 16.9003 11.4572 16.9003 11.4047 16.8959C11.1636 16.8959 10.9325 16.8002 10.762 16.6298C10.5916 16.4593 10.4959 16.2282 10.4959 15.9871C10.4959 15.7461 10.5916 15.515 10.762 15.3445C10.9325 15.1741 11.1636 15.0783 11.4047 15.0783C11.4614 15.0718 11.5186 15.0718 11.5753 15.0783C11.7844 15.1167 11.9734 15.2272 12.1095 15.3905C12.2455 15.5538 12.3201 15.7596 12.3201 15.9722C12.3201 16.1848 12.2455 16.3906 12.1095 16.5539C11.9734 16.7172 11.7844 16.8277 11.5753 16.8661L11.5625 16.8959ZM13.8665 19.5242C13.4607 19.2841 13.0997 18.9751 12.7999 18.6111C12.7999 18.6111 12.7657 18.5727 12.7359 18.5301C12.505 18.2444 12.3141 17.9286 12.1684 17.5914C12.4028 17.4797 12.6095 17.3173 12.7733 17.1158C12.9371 16.9143 13.0541 16.6789 13.1156 16.4266H13.8665V19.5242ZM15.5732 20.0917C15.2828 20.0626 14.9966 20.0011 14.7199 19.9082V15.9999C14.7199 15.8868 14.6749 15.7783 14.5949 15.6982C14.5149 15.6182 14.4064 15.5733 14.2932 15.5733H13.1113C13.0477 15.3126 12.925 15.07 12.7526 14.8643C12.5802 14.6586 12.3628 14.4953 12.1172 14.3871C12.3228 13.8699 12.6299 13.3992 13.0205 13.0027C13.4111 12.6063 13.8773 12.2921 14.3913 12.0789C14.5004 12.3222 14.6636 12.5375 14.8684 12.7082C15.0732 12.879 15.3142 13.0009 15.5732 13.0645V20.0917ZM15.9999 12.2666C15.7876 12.2652 15.5825 12.1899 15.4197 12.0536C15.257 11.9174 15.1468 11.7286 15.1081 11.5199C15.1016 11.4618 15.1016 11.4031 15.1081 11.345C15.1081 11.104 15.2039 10.8728 15.3743 10.7024C15.5447 10.532 15.7759 10.4362 16.0169 10.4362C16.258 10.4362 16.4891 10.532 16.6596 10.7024C16.83 10.8728 16.9257 11.104 16.9257 11.345C16.9299 11.3918 16.9299 11.439 16.9257 11.4858C16.8953 11.7074 16.7838 11.9098 16.6128 12.054C16.4418 12.1982 16.2234 12.274 15.9999 12.2666V12.2666ZM17.7065 15.5733C17.5934 15.5733 17.4848 15.6182 17.4048 15.6982C17.3248 15.7783 17.2799 15.8868 17.2799 15.9999V19.9082C17.0033 20.0016 16.717 20.0632 16.4265 20.0917V13.0645C16.6864 13.0004 16.9283 12.878 17.1339 12.7065C17.3394 12.5349 17.5031 12.3189 17.6127 12.0746C18.1264 12.2888 18.5919 12.6038 18.9818 13.001C19.3716 13.3982 19.6779 13.8696 19.8825 14.3871C19.6369 14.4953 19.4195 14.6586 19.2472 14.8643C19.0748 15.07 18.952 15.3126 18.8884 15.5733H17.7065ZM18.1332 19.5242V16.4266H18.8884C18.9501 16.6794 19.0676 16.9152 19.2322 17.1168C19.3968 17.3183 19.6045 17.4805 19.8399 17.5914C19.4839 18.3963 18.8878 19.0714 18.1332 19.5242V19.5242ZM20.6207 16.9087H20.5951C20.354 16.9087 20.1229 16.813 19.9524 16.6426C19.782 16.4721 19.6863 16.241 19.6863 15.9999C19.6863 15.7589 19.782 15.5278 19.9524 15.3573C20.1229 15.1869 20.354 15.0911 20.5951 15.0911V15.0911C20.8361 15.0911 21.0673 15.1869 21.2377 15.3573C21.4081 15.5278 21.5039 15.7589 21.5039 15.9999C21.5039 16.241 21.4081 16.4721 21.2377 16.6426C21.0673 16.813 20.8361 16.9087 20.5951 16.9087H20.6207Z" fill="white"/>
<defs>
<linearGradient id="paint0_linear_854_26845" x1="-6.62742" y1="38.6287" x2="38.6274" y2="-6.62613" gradientUnits="userSpaceOnUse">
<stop stop-color="#1B660F"/>
<stop offset="1" stop-color="#6CAE3E"/>
</linearGradient>
</defs>
</svg>
