<svg width="32" height="32" viewBox="0 0 32 32" fill="none" xmlns="http://www.w3.org/2000/svg">
<path d="M25.76 12.7111C25.6851 10.3023 24.6629 8.02023 22.9154 6.36059C21.1679 4.70095 18.8362 3.79775 16.4267 3.84714C14.4778 3.82402 12.5702 4.40904 10.9694 5.52076C9.36856 6.63248 8.15413 8.21561 7.49511 10.0498C5.44286 10.3273 3.5581 11.3313 2.1829 12.8797C0.807707 14.4281 0.0332172 16.4183 0 18.4889C0.0614531 20.8181 1.04482 23.0276 2.73413 24.6322C4.42344 26.2369 6.68056 27.1054 9.00978 27.0471H24.5689C26.4963 26.999 28.3341 26.223 29.7127 24.875C31.0913 23.5271 31.9085 21.7073 32 19.7814C31.9643 18.0552 31.3178 16.3975 30.1753 15.103C29.0328 13.8085 27.4684 12.961 25.76 12.7111Z" fill="url(#paint0_linear_868_7097)"/>
<path d="M22.9333 20.2668V14.2224H21.3333V21.5646H25.7066V20.2668H22.9333ZM10.24 17.2979C9.90956 17.1652 9.60324 16.979 9.33331 16.7468C9.26169 16.671 9.20593 16.5816 9.1693 16.4839C9.13266 16.3862 9.1159 16.2822 9.11998 16.1779C9.11488 16.0736 9.13673 15.9697 9.18344 15.8763C9.23015 15.7829 9.30013 15.7031 9.38665 15.6446C9.60547 15.4937 9.86778 15.4187 10.1333 15.4313C10.7665 15.4028 11.3914 15.584 11.9111 15.9468V14.4179C11.3431 14.2066 10.7389 14.1099 10.1333 14.1335C9.43586 14.0965 8.74828 14.311 8.19553 14.7379C7.95464 14.9237 7.76133 15.164 7.63151 15.4391C7.50169 15.7141 7.43909 16.0161 7.44887 16.3202C7.44887 17.2268 8.01776 17.9379 9.22664 18.4713C9.61905 18.6383 9.98927 18.8533 10.3289 19.1113C10.4121 19.1809 10.4791 19.268 10.5251 19.3662C10.5712 19.4645 10.5952 19.5716 10.5955 19.6802C10.5954 19.788 10.5696 19.8943 10.5201 19.9902C10.4706 20.086 10.399 20.1687 10.3111 20.2313C10.0693 20.3733 9.79115 20.4413 9.51109 20.4268C8.79603 20.4209 8.10744 20.1556 7.57331 19.6802V21.3335C8.16048 21.636 8.81541 21.7829 9.47553 21.7602C10.2207 21.8048 10.9594 21.5982 11.5733 21.1735C11.7902 20.9681 11.9562 20.7149 12.058 20.434C12.1599 20.1532 12.1948 19.8524 12.16 19.5557C12.1689 19.1005 12.0108 18.6578 11.7155 18.3113C11.3 17.874 10.7973 17.5288 10.24 17.2979ZM19.5555 20.1246C19.9416 19.506 20.1462 18.7915 20.1462 18.0624C20.1462 17.3332 19.9416 16.6187 19.5555 16.0002C19.2782 15.4449 18.8459 14.9818 18.3111 14.6668C17.7692 14.3597 17.1562 14.2003 16.5333 14.2046C15.8619 14.19 15.1989 14.3558 14.6133 14.6846C14.0642 14.9906 13.614 15.447 13.3155 16.0002C13.0011 16.6289 12.8426 17.324 12.8533 18.0268C12.8568 18.6444 13.0028 19.2528 13.28 19.8046C13.5518 20.3534 13.9782 20.8107 14.5066 21.1202C15.0435 21.4479 15.6558 21.6316 16.2844 21.6535L17.8133 23.4313H19.9644L17.7778 21.4757C18.5141 21.2549 19.1456 20.7749 19.5555 20.1246ZM17.7778 19.6802C17.6158 19.8811 17.4096 20.0418 17.1752 20.1497C16.9408 20.2576 16.6846 20.3099 16.4266 20.3024C16.1667 20.3114 15.9084 20.2579 15.6733 20.1466C15.4382 20.0352 15.2333 19.8692 15.0755 19.6624C14.7002 19.1488 14.5176 18.5194 14.56 17.8846C14.5186 17.2499 14.701 16.6209 15.0755 16.1068C15.2429 15.9006 15.4543 15.7344 15.6942 15.6206C15.9342 15.5068 16.1966 15.4481 16.4622 15.449C16.7218 15.4377 16.9801 15.492 17.2132 15.607C17.4463 15.722 17.6466 15.8939 17.7955 16.1068C18.1459 16.6309 18.3145 17.2554 18.2755 17.8846C18.3377 18.5241 18.1604 19.164 17.7778 19.6802Z" fill="#F2F2F2"/>
<defs>
<linearGradient id="paint0_linear_868_7097" x1="17.6142" y1="28.3431" x2="13.3618" y2="4.23647" gradientUnits="userSpaceOnUse">
<stop offset="0.15" stop-color="#0078D4"/>
<stop offset="0.8" stop-color="#5EA0EF"/>
<stop offset="1" stop-color="#83B9F9"/>
</linearGradient>
</defs>
</svg>
