<svg width="32" height="32" viewBox="0 0 32 32" fill="none" xmlns="http://www.w3.org/2000/svg">
<g clip-path="url(#clip0_868_7087)">
<path d="M23.1325 2.94952C21.248 2.94952 19.7173 2.39663 19.7173 1.70508V8.28286C19.7173 8.96019 21.2196 9.50952 23.0827 9.5273H23.1325C25.0169 9.5273 26.5476 8.97441 26.5476 8.28286V1.71219C26.5422 2.39663 25.0151 2.94952 23.1325 2.94952Z" fill="url(#paint0_linear_868_7087)"/>
<path d="M26.5422 1.71212C26.5422 2.39656 25.0151 2.95656 23.1271 2.95656C21.2391 2.95656 19.7173 2.40367 19.7173 1.71212C19.7173 1.02056 21.2445 0.476562 23.1325 0.476562C25.0205 0.476562 26.5476 1.03123 26.5476 1.72101" fill="#E8E8E8"/>
<path d="M25.7458 1.61244C25.7458 2.04799 24.5742 2.39822 23.1289 2.39822C21.6836 2.39822 20.5138 2.04266 20.5138 1.61244C20.5138 1.18222 21.6889 0.82666 23.1325 0.82666C24.576 0.82666 25.7458 1.18222 25.7458 1.61244Z" fill="#50E6FF"/>
<path d="M23.1325 1.7941C22.4297 1.77837 21.7293 1.8793 21.0596 2.09276C21.7274 2.31509 22.4288 2.41975 23.1325 2.4021C23.8348 2.41799 24.5348 2.31336 25.2018 2.09276C24.5333 1.87917 23.834 1.77824 23.1325 1.7941Z" fill="#198AB3"/>
<path d="M31.328 17.6962C31.2835 16.2171 30.7147 14.8019 29.7231 13.7034C28.7314 12.605 27.3816 11.8948 25.9147 11.6998C25.8254 9.63301 24.925 7.68472 23.4088 6.27735C21.8926 4.86997 19.8828 4.11696 17.8151 4.18157C16.1439 4.1511 14.5045 4.64056 13.1236 5.5823C11.7427 6.52404 10.6885 7.87152 10.1067 9.43846C8.33852 9.65152 6.70534 10.4913 5.50339 11.8054C4.30144 13.1196 3.61037 14.8211 3.55554 16.6011C3.63239 18.6004 4.49908 20.4876 5.96549 21.8487C7.43191 23.2098 9.37832 23.9337 11.3778 23.8616C11.6089 23.8616 11.8382 23.8491 12.0658 23.8314H24.7271C24.8396 23.829 24.9513 23.8123 25.0595 23.7816C26.6873 23.7707 28.248 23.1317 29.416 21.9979C30.5839 20.864 31.2689 19.323 31.328 17.6962Z" fill="url(#paint1_linear_868_7087)"/>
<path d="M30.7253 5.64797C30.11 4.90287 29.2568 4.39246 28.3093 4.20264V6.13153C28.6773 6.25673 29.0039 6.48057 29.2533 6.77864C30.8231 8.8373 27.9698 15.5857 19.7565 21.9004C11.5431 28.2151 4.31112 29.2266 2.74134 27.1662C1.97156 26.1564 2.28623 24.0089 3.76179 21.344C3.34649 20.7386 3.01294 20.0811 2.76979 19.3884C0.476453 23.0169 -0.225769 26.3217 1.26756 28.2897C3.96801 31.8293 12.7502 29.6284 20.8853 23.3724C29.0205 17.1164 33.4222 9.18753 30.7253 5.64797Z" fill="#0072C6"/>
<path d="M15.0471 20.2436C11.8151 20.2436 9.19287 19.2943 9.19287 18.1245V29.4027C9.19287 30.5636 11.7706 31.5076 14.9671 31.5236H15.0471C18.2809 31.5236 20.9013 30.5743 20.9013 29.4027V18.1334C20.9013 19.2943 18.2809 20.2436 15.0471 20.2436Z" fill="url(#paint2_linear_868_7087)"/>
<path d="M20.9013 18.1333C20.9013 19.3031 18.2809 20.2524 15.0471 20.2524C11.8133 20.2524 9.19287 19.2942 9.19287 18.1333C9.19287 16.9724 11.8151 16 15.0471 16C18.2791 16 20.9013 16.9493 20.9013 18.1209" fill="#E8E8E8"/>
<path d="M19.5342 17.9556C19.5342 18.7005 17.5253 19.3049 15.0471 19.3049C12.5689 19.3049 10.56 18.6969 10.56 17.9556C10.56 17.2143 12.5689 16.6045 15.0471 16.6045C17.5253 16.6045 19.5342 17.2089 19.5342 17.952" fill="#50E6FF"/>
<path d="M15.0471 18.2633C13.8417 18.2346 12.6399 18.4076 11.4916 18.7753C12.6372 19.1564 13.8401 19.3368 15.0471 19.3087C16.2542 19.3368 17.457 19.1564 18.6027 18.7753C17.4543 18.4076 16.2526 18.2346 15.0471 18.2633Z" fill="#198AB3"/>
<path d="M18.6062 25.9555V22.8693H17.7565V26.6417H20.0036V25.9555H18.6062ZM12.0889 24.4319C11.9191 24.3619 11.7609 24.2666 11.6196 24.1493C11.5813 24.1109 11.5513 24.065 11.5314 24.0146C11.5115 23.9641 11.5022 23.9101 11.504 23.8559C11.5031 23.8016 11.5156 23.7478 11.5404 23.6995C11.5652 23.6511 11.6016 23.6096 11.6462 23.5786C11.7605 23.5038 11.8956 23.4671 12.032 23.4737C12.3421 23.4691 12.6459 23.5611 12.9014 23.7368V22.951C12.6079 22.8459 12.2974 22.7964 11.9858 22.8053C11.629 22.788 11.2774 22.8961 10.992 23.111C10.8699 23.2078 10.7721 23.3319 10.7067 23.4733C10.6412 23.6147 10.6098 23.7695 10.6151 23.9253C10.6314 24.1746 10.7224 24.4132 10.8762 24.6101C11.0299 24.807 11.2394 24.9531 11.4774 25.0293C11.6784 25.1137 11.8678 25.2237 12.0409 25.3564C12.0838 25.3931 12.1182 25.4386 12.1419 25.4898C12.1655 25.5411 12.1778 25.5968 12.1778 25.6533C12.1795 25.7082 12.1671 25.7626 12.1419 25.8115C12.1167 25.8603 12.0795 25.9019 12.0338 25.9324C11.9132 26.0096 11.7714 26.0469 11.6285 26.039C11.2602 26.0357 10.9058 25.8986 10.6311 25.6533V26.4959C10.934 26.6457 11.2694 26.7178 11.6071 26.7057C11.9882 26.729 12.3663 26.6259 12.6827 26.4124C12.8104 26.3159 12.9127 26.1896 12.9805 26.0446C13.0484 25.8996 13.0798 25.7403 13.072 25.5804C13.081 25.3458 13.001 25.1166 12.848 24.9386C12.6316 24.7204 12.3734 24.5481 12.0889 24.4319ZM16.8231 25.8844C17.0083 25.5572 17.112 25.1903 17.1253 24.8146C17.1386 24.4389 17.0612 24.0656 16.8996 23.7262C16.7569 23.4414 16.5345 23.2043 16.2596 23.0435C15.9759 22.8821 15.6544 22.7992 15.328 22.8035C14.9818 22.7978 14.6402 22.8837 14.3378 23.0524C14.0495 23.2185 13.8164 23.4658 13.6676 23.7635C13.504 24.0872 13.4222 24.4461 13.4294 24.8088C13.4255 25.1418 13.501 25.4709 13.6498 25.7688C13.789 26.0483 14.004 26.2831 14.2702 26.4462C14.5438 26.6128 14.8566 26.7042 15.1769 26.711L15.9591 27.5893H17.0667L15.9734 26.5759C16.3307 26.4529 16.6334 26.2081 16.8285 25.8844H16.8231ZM15.9734 25.6533C15.8906 25.7577 15.7843 25.8411 15.6632 25.8967C15.5421 25.9523 15.4096 25.9786 15.2765 25.9733C15.1431 25.9776 15.0107 25.9499 14.8903 25.8923C14.77 25.8348 14.6652 25.7491 14.5849 25.6426C14.4111 25.3787 14.3185 25.0697 14.3185 24.7537C14.3185 24.4377 14.4111 24.1287 14.5849 23.8648C14.6683 23.7565 14.7763 23.6697 14.9 23.6116C15.0237 23.5535 15.1595 23.5257 15.296 23.5306C15.4285 23.525 15.5602 23.5524 15.6794 23.6105C15.7986 23.6685 15.9015 23.7553 15.9787 23.863C16.1582 24.1301 16.2456 24.4484 16.2276 24.7697C16.2509 25.0843 16.1628 25.3971 15.9787 25.6533H15.9734Z" fill="url(#paint3_radial_868_7087)"/>
</g>
<defs>
<linearGradient id="paint0_linear_868_7087" x1="19.7173" y1="5.61797" x2="26.5476" y2="5.61797" gradientUnits="userSpaceOnUse">
<stop stop-color="#005BA1"/>
<stop offset="0.068" stop-color="#0060A9"/>
<stop offset="0.517" stop-color="#0078D4"/>
<stop offset="0.82" stop-color="#006ABB"/>
<stop offset="1" stop-color="#005BA1"/>
</linearGradient>
<linearGradient id="paint1_linear_868_7087" x1="17.4453" y1="23.8616" x2="17.4453" y2="4.1798" gradientUnits="userSpaceOnUse">
<stop stop-color="#198AB3"/>
<stop offset="0.097" stop-color="#209EC5"/>
<stop offset="0.396" stop-color="#2EC7E9"/>
<stop offset="0.775" stop-color="#32D4F5"/>
</linearGradient>
<linearGradient id="paint2_linear_868_7087" x1="9.19287" y1="10.7325" x2="20.9013" y2="10.7325" gradientUnits="userSpaceOnUse">
<stop stop-color="#005BA1"/>
<stop offset="0.068" stop-color="#0060A9"/>
<stop offset="0.517" stop-color="#0078D4"/>
<stop offset="0.82" stop-color="#006ABB"/>
<stop offset="1" stop-color="#005BA1"/>
</linearGradient>
<radialGradient id="paint3_radial_868_7087" cx="0" cy="0" r="1" gradientUnits="userSpaceOnUse" gradientTransform="translate(15.3725 25.1946) scale(6.45689 6.45689)">
<stop stop-color="#F2F2F2"/>
<stop offset="0.58" stop-color="#EEEEEE"/>
<stop offset="1" stop-color="#E6E6E6"/>
</radialGradient>
<clipPath id="clip0_868_7087">
<rect width="32" height="32" fill="white"/>
</clipPath>
</defs>
</svg>
