<svg width="32" height="32" viewBox="0 0 32 32" fill="none" xmlns="http://www.w3.org/2000/svg">
<g clip-path="url(#clip0_868_7110)">
<path d="M18.8036 15.6446C18.0394 15.6446 17.3065 15.3413 16.7658 14.8013C16.2252 14.2613 15.9209 13.5288 15.92 12.7646C15.1957 12.7727 14.4915 13.0041 13.9036 13.4273C13.3157 13.8506 12.8728 14.4449 12.6353 15.1293C12.3978 15.8136 12.3774 16.5546 12.5768 17.251C12.7761 17.9473 13.1856 18.5652 13.7492 19.0202C14.3129 19.4752 15.0032 19.7451 15.726 19.7931C16.4488 19.8411 17.1688 19.6649 17.7876 19.2884C18.4065 18.9119 18.894 18.3536 19.1837 17.6897C19.4734 17.0258 19.5511 16.2886 19.4062 15.5789C19.2082 15.6217 19.0062 15.6438 18.8036 15.6446Z" fill="url(#paint0_linear_868_7110)"/>
<path d="M22.8658 19.9662C22.7369 18.6976 22.3394 17.471 21.6996 16.368C21.6101 17.8198 20.971 19.183 19.9122 20.1803C18.8534 21.1776 17.4545 21.7342 16 21.7369C15.8631 21.7369 15.7351 21.7067 15.6018 21.696C12.5796 21.6563 9.68435 20.475 7.4969 18.3894C5.61618 16.5825 4.22148 14.3306 3.44179 11.8418C2.41262 12.7771 1.43798 13.7708 0.522677 14.8178C0.358711 14.9691 0.227857 15.1528 0.138358 15.3571C0.0488596 15.5615 0.00265503 15.7822 0.00265503 16.0054C0.00265503 16.2285 0.0488596 16.4492 0.138358 16.6536C0.227857 16.8579 0.358711 17.0416 0.522677 17.1929C2.49016 19.5522 4.80811 21.5956 7.39557 23.2516C9.99776 25.0349 13.0783 25.9898 16.2329 25.9911C18.2831 26.0027 20.3061 25.5217 22.1316 24.5885C22.2471 24.5351 22.3467 24.464 22.4605 24.4107C22.8652 22.9663 23.0025 21.46 22.8658 19.9662Z" fill="url(#paint1_linear_868_7110)"/>
<path d="M10.9476 18.6667C10.3571 17.5792 10.1401 16.328 10.33 15.1053C10.5198 13.8825 11.1059 12.7559 11.9982 11.8987C13.4393 9.95886 15.4595 8.52703 17.7671 7.8098C19.0252 7.42563 20.331 7.21977 21.6462 7.19824C20.588 6.73968 19.4802 6.40559 18.3449 6.20269C15.2361 5.67932 12.0415 6.20665 9.26579 7.70135C7.71277 8.50687 6.2472 9.47081 4.89246 10.5778C5.53193 13.0186 6.8223 15.2399 8.62579 17.0045C9.3214 17.6605 10.1024 18.2196 10.9476 18.6667Z" fill="url(#paint2_linear_868_7110)"/>
<path d="M31.52 14.8959C29.7827 12.815 27.7764 10.9742 25.5538 9.42217C23.2296 8.78753 20.7763 8.79982 18.4587 9.45772C17.7622 9.66968 17.0905 9.95576 16.4551 10.3111C17.448 10.381 18.4053 10.7095 19.232 11.2639C19.3061 11.2852 19.3767 11.3169 19.4418 11.3582C20.8098 12.2768 21.9728 13.4689 22.8573 14.8592C23.7419 16.2495 24.3289 17.808 24.5813 19.4364C24.7442 20.7133 24.7244 22.0068 24.5227 23.2782C27.157 21.604 29.5152 19.5306 31.5129 17.1324C31.6663 16.9895 31.7888 16.8167 31.8728 16.6247C31.9567 16.4326 32.0004 16.2253 32.0011 16.0157C32.0017 15.8061 31.9594 15.5986 31.8766 15.4059C31.7939 15.2133 31.6725 15.0398 31.52 14.8959Z" fill="url(#paint3_linear_868_7110)"/>
</g>
<defs>
<linearGradient id="paint0_linear_868_7110" x1="15.9591" y1="19.794" x2="15.9591" y2="12.7611" gradientUnits="userSpaceOnUse">
<stop stop-color="#29BADE"/>
<stop offset="1" stop-color="#50E6FF"/>
</linearGradient>
<linearGradient id="paint1_linear_868_7110" x1="11.4596" y1="26.0018" x2="11.4596" y2="5.99824" gradientUnits="userSpaceOnUse">
<stop offset="0.041" stop-color="#32BEDD"/>
<stop offset="0.495" stop-color="#50E6FF"/>
<stop offset="0.92" stop-color="#C3F1FF"/>
</linearGradient>
<linearGradient id="paint2_linear_868_7110" x1="13.2693" y1="17.8614" x2="13.2693" y2="0.451577" gradientUnits="userSpaceOnUse">
<stop offset="0.244" stop-color="#0078D4"/>
<stop offset="0.6" stop-color="#2E8CE1"/>
<stop offset="0.933" stop-color="#589EED"/>
</linearGradient>
<linearGradient id="paint3_linear_868_7110" x1="24.2276" y1="26.0017" x2="24.2276" y2="7.45417" gradientUnits="userSpaceOnUse">
<stop stop-color="#005BA1"/>
<stop offset="0.399" stop-color="#0078D4"/>
<stop offset="0.857" stop-color="#5EA0EF"/>
</linearGradient>
<clipPath id="clip0_868_7110">
<rect width="32" height="32" fill="white"/>
</clipPath>
</defs>
</svg>
