<svg width="32" height="32" viewBox="0 0 32 32" fill="none" xmlns="http://www.w3.org/2000/svg">
<g clip-path="url(#clip0_868_7106)">
<path d="M2.61334 2.61354L29.3867 29.3869C29.5246 29.546 29.7087 29.6581 29.9134 29.7077C30.118 29.7574 30.333 29.742 30.5286 29.6638C30.7241 29.5856 30.8904 29.4484 31.0043 29.2714C31.1183 29.0943 31.1743 28.8861 31.1645 28.6758V1.90243C31.1646 1.76475 31.1368 1.62847 31.0825 1.50192C31.0283 1.37537 30.9489 1.26119 30.8491 1.16636C30.7492 1.07153 30.6311 0.998042 30.502 0.950372C30.3728 0.902701 30.2353 0.881853 30.0978 0.8891H3.32445C3.1256 0.89121 2.93177 0.95178 2.7671 1.06327C2.60243 1.17475 2.47421 1.33222 2.3984 1.51606C2.32258 1.69991 2.30254 1.90199 2.34076 2.09714C2.37898 2.29229 2.47378 2.47188 2.61334 2.61354Z" fill="url(#paint0_linear_868_7106)"/>
<path d="M9.83112 9.83138L22.1689 22.1692L31.0578 13.2803V1.90249C31.0581 1.64273 30.9587 1.39275 30.7801 1.20417C30.6014 1.0156 30.3572 0.902832 30.0978 0.88916H18.7733L9.83112 9.83138Z" fill="#50E6FF"/>
<path d="M12.1285 17.7432L1.02853 28.8432C0.841077 29.0307 0.841076 29.3346 1.02853 29.522L2.48674 30.9802C2.67419 31.1677 2.97811 31.1677 3.16556 30.9802L14.2656 19.8802C14.453 19.6928 14.453 19.3889 14.2656 19.2014L12.8074 17.7432C12.6199 17.5557 12.316 17.5557 12.1285 17.7432Z" fill="url(#paint1_linear_868_7106)"/>
<path d="M7.88641 13.4174L1.03533 20.2685C0.847882 20.456 0.847883 20.7599 1.03533 20.9473L2.49355 22.4055C2.681 22.593 2.98492 22.593 3.17237 22.4055L10.0234 15.5545C10.2109 15.367 10.2109 15.0631 10.0234 14.8756L8.56524 13.4174C8.37778 13.23 8.07386 13.23 7.88641 13.4174Z" fill="url(#paint2_linear_868_7106)"/>
<path d="M16.3737 21.9653L9.52258 28.8164C9.33513 29.0038 9.33513 29.3077 9.52258 29.4952L10.9808 30.9534C11.1682 31.1408 11.4722 31.1408 11.6596 30.9534L18.5107 24.1023C18.6981 23.9149 18.6981 23.6109 18.5107 23.4235L17.0525 21.9653C16.865 21.7778 16.5611 21.7778 16.3737 21.9653Z" fill="url(#paint3_linear_868_7106)"/>
<path d="M17.3697 8.2972L16.188 9.47885C15.9242 9.74267 15.9242 10.1704 16.188 10.4342L17.3697 11.6159C17.6335 11.8797 18.0613 11.8797 18.3251 11.6159L19.5067 10.4342C19.7706 10.1704 19.7706 9.74267 19.5067 9.47885L18.3251 8.2972C18.0613 8.03338 17.6335 8.03338 17.3697 8.2972Z" fill="white"/>
<path d="M21.6364 4.02327L20.4547 5.20493C20.1909 5.46875 20.1909 5.89649 20.4547 6.16031L21.6364 7.34196C21.9002 7.60578 22.3279 7.60578 22.5917 7.34196L23.7734 6.16031C24.0372 5.89649 24.0372 5.46875 23.7734 5.20493L22.5917 4.02327C22.3279 3.75945 21.9002 3.75945 21.6364 4.02327Z" fill="white"/>
<path d="M21.6437 12.5638L20.462 13.7455C20.1982 14.0093 20.1982 14.437 20.462 14.7008L21.6437 15.8825C21.9075 16.1463 22.3352 16.1463 22.5991 15.8825L23.7807 14.7008C24.0445 14.437 24.0445 14.0093 23.7807 13.7455L22.5991 12.5638C22.3352 12.3 21.9075 12.3 21.6437 12.5638Z" fill="white"/>
<path d="M24.7289 9.47557L25.9022 8.30224C25.965 8.23881 26.0398 8.18846 26.1222 8.1541C26.2046 8.11974 26.2929 8.10205 26.3822 8.10205C26.4715 8.10205 26.5599 8.11974 26.6422 8.1541C26.7246 8.18846 26.7994 8.23881 26.8622 8.30224L28.0355 9.47557C28.099 9.53838 28.1493 9.61315 28.1837 9.69553C28.218 9.77792 28.2357 9.8663 28.2357 9.95557C28.2357 10.0448 28.218 10.1332 28.1837 10.2156C28.1493 10.298 28.099 10.3728 28.0355 10.4356L26.8622 11.6089C26.7994 11.6723 26.7246 11.7227 26.6422 11.757C26.5599 11.7914 26.4715 11.8091 26.3822 11.8091C26.2929 11.8091 26.2046 11.7914 26.1222 11.757C26.0398 11.7227 25.965 11.6723 25.9022 11.6089L24.7289 10.4356C24.6654 10.3728 24.6151 10.298 24.5807 10.2156C24.5464 10.1332 24.5287 10.0448 24.5287 9.95557C24.5287 9.8663 24.5464 9.77792 24.5807 9.69553C24.6151 9.61315 24.6654 9.53838 24.7289 9.47557Z" fill="white"/>
</g>
<defs>
<linearGradient id="paint0_linear_868_7106" x1="2.31112" y1="15.2891" x2="31.1111" y2="15.2891" gradientUnits="userSpaceOnUse">
<stop offset="0.1" stop-color="#54AEF0"/>
<stop offset="1" stop-color="#1988D9"/>
</linearGradient>
<linearGradient id="paint1_linear_868_7106" x1="0.886613" y1="24.3614" x2="14.4155" y2="24.3614" gradientUnits="userSpaceOnUse">
<stop stop-color="#B3B2B3"/>
<stop offset="1" stop-color="#979797"/>
</linearGradient>
<linearGradient id="paint2_linear_868_7106" x1="0.880847" y1="17.9118" x2="10.1608" y2="17.9118" gradientUnits="userSpaceOnUse">
<stop stop-color="#B3B2B3"/>
<stop offset="1" stop-color="#979797"/>
</linearGradient>
<linearGradient id="paint3_linear_868_7106" x1="9.39316" y1="26.4626" x2="18.6554" y2="26.4626" gradientUnits="userSpaceOnUse">
<stop stop-color="#B3B2B3"/>
<stop offset="1" stop-color="#979797"/>
</linearGradient>
<clipPath id="clip0_868_7106">
<rect width="32" height="32" fill="white"/>
</clipPath>
</defs>
</svg>
