<svg width="32" height="32" viewBox="0 0 32 32" fill="none" xmlns="http://www.w3.org/2000/svg">
<path d="M16 0L2.04443 7.98222V23.9289L16 32L29.9555 24.0178V8.01778L16 0ZM27.3778 22.3467L16 28.9244L4.62221 22.416V9.56444L16 2.98667L27.3778 9.58222V22.3467Z" fill="#0078D4"/>
<path d="M16 0L2.04443 7.98222L4.62221 9.56444L16 2.98667L27.3778 9.56444L29.9555 7.98222L16 0Z" fill="url(#paint0_linear_868_7102)"/>
<path d="M22.6489 18.6222C22.5131 18.3987 22.3129 18.2215 22.0747 18.1138C21.3515 16.5352 20.2438 15.1635 18.8529 14.1242C17.462 13.0849 15.8325 12.4114 14.1138 12.1653L25.6284 5.5111L22.9511 3.9751L9.83821 11.5555C9.58346 11.7022 9.38431 11.9289 9.27173 12.2004C9.15914 12.4719 9.13944 12.7731 9.21568 13.0569C9.29192 13.3408 9.45984 13.5915 9.69331 13.7701C9.92677 13.9487 10.2127 14.0452 10.5067 14.0444C10.5608 14.0344 10.6143 14.0208 10.6667 14.0035L10.8889 14.9333C12.5607 14.5391 14.3164 14.7168 15.8753 15.4381C17.4342 16.1594 18.7062 17.3825 19.488 18.912L6.4231 26.4622L9.08976 28.0018L22.1618 20.4444C22.3361 20.3402 22.4834 20.1965 22.592 20.0249L22.7253 19.9929C22.7129 19.9413 22.6933 19.8951 22.6809 19.8435C22.7755 19.6528 22.822 19.4418 22.8164 19.2289C22.8108 19.016 22.7533 18.8078 22.6489 18.6222Z" fill="#50E6FF"/>
<path d="M21.4951 16.0233C20.8446 16.0233 20.2088 16.2162 19.6679 16.5776C19.1271 16.939 18.7055 17.4526 18.4566 18.0536C18.2077 18.6546 18.1425 19.3159 18.2694 19.9538C18.3963 20.5918 18.7096 21.1778 19.1695 21.6378C19.6295 22.0978 20.2155 22.411 20.8535 22.5379C21.4915 22.6648 22.1528 22.5997 22.7537 22.3508C23.3547 22.1018 23.8683 21.6803 24.2297 21.1394C24.5911 20.5986 24.784 19.9627 24.784 19.3122C24.784 18.4399 24.4375 17.6034 23.8207 16.9866C23.2039 16.3698 22.3674 16.0233 21.4951 16.0233ZM10.5049 9.36377C9.85441 9.36377 9.21854 9.55666 8.67768 9.91805C8.13683 10.2794 7.71528 10.7931 7.46636 11.3941C7.21743 11.995 7.1523 12.6563 7.2792 13.2943C7.4061 13.9323 7.71934 14.5183 8.1793 14.9783C8.63926 15.4382 9.22528 15.7514 9.86326 15.8784C10.5012 16.0053 11.1625 15.9401 11.7635 15.6912C12.3645 15.4423 12.8781 15.0207 13.2395 14.4799C13.6009 13.939 13.7938 13.3031 13.7938 12.6527C13.7938 11.7804 13.4473 10.9438 12.8305 10.3271C12.2137 9.71028 11.3772 9.36377 10.5049 9.36377Z" fill="url(#paint1_linear_868_7102)"/>
<defs>
<linearGradient id="paint0_linear_868_7102" x1="16" y1="9.56444" x2="16" y2="0" gradientUnits="userSpaceOnUse">
<stop offset="0.199" stop-color="#005BA1"/>
<stop offset="1" stop-color="#0078D4"/>
</linearGradient>
<linearGradient id="paint1_linear_868_7102" x1="16" y1="22.6011" x2="16" y2="9.39933" gradientUnits="userSpaceOnUse">
<stop stop-color="#198AB3"/>
<stop offset="0.172" stop-color="#32BEDD"/>
<stop offset="0.5" stop-color="#198AB3"/>
<stop offset="0.662" stop-color="#32BEDD"/>
<stop offset="0.975" stop-color="#50E6FF"/>
</linearGradient>
</defs>
</svg>
