<svg width="32" height="32" viewBox="0 0 32 32" fill="none" xmlns="http://www.w3.org/2000/svg">
<g clip-path="url(#clip0_868_7098)">
<path d="M30.8445 14.4534C30.7989 12.8741 30.1923 11.3626 29.1336 10.1899C28.0749 9.0171 26.6331 8.25969 25.0667 8.05335C24.9696 5.84008 24.0048 3.75408 22.3811 2.24686C20.7574 0.739637 18.6055 -0.067546 16.3911 1.77403e-05C14.6045 -0.0292769 12.8526 0.494931 11.3758 1.50073C9.89891 2.50653 8.76941 3.94465 8.14224 5.6178C6.25465 5.8504 4.51261 6.7508 3.23116 8.15615C1.94971 9.56151 1.21347 11.379 1.15558 13.28C1.23431 15.4179 2.15861 17.4371 3.72537 18.8939C5.29213 20.3506 7.37315 21.1258 9.51113 21.0489H23.7334C23.8517 21.0588 23.9706 21.0588 24.0889 21.0489C25.8519 21.0449 27.5438 20.3537 28.8052 19.1221C30.0666 17.8905 30.7982 16.2157 30.8445 14.4534Z" fill="url(#paint0_linear_868_7098)"/>
<path d="M16.0889 18.6488C11.7333 18.6488 8.21332 17.5288 8.21332 16.1421V29.4932C8.21332 30.8621 11.7689 31.9821 15.9822 31.9999H16.0889C20.4267 31.9999 23.9467 30.8799 23.9467 29.4932V16.1421C23.9467 17.5288 20.4267 18.6488 16.0889 18.6488Z" fill="url(#paint1_linear_868_7098)"/>
<path d="M23.9467 16.1424C23.9467 17.5291 20.3911 18.6491 16.0889 18.6491C11.7867 18.6491 8.21332 17.5291 8.21332 16.1424C8.21332 14.7557 11.7689 13.6357 16.0889 13.6357C20.4089 13.6357 23.9467 14.7557 23.9467 16.1424Z" fill="#E8E8E8"/>
<path d="M22.1155 15.9999C22.1155 16.871 19.4133 17.5999 16.0889 17.5999C12.7644 17.5999 10.0444 16.871 10.0444 15.9999C10.0444 15.1288 12.7467 14.3999 16.0889 14.3999C19.4311 14.3999 22.1155 15.111 22.1155 15.9999Z" fill="#50E6FF"/>
<path d="M16.0889 16.3198C14.4736 16.2822 12.8617 16.4859 11.3066 16.9243C12.8601 17.3721 14.4725 17.5819 16.0889 17.5465C17.7051 17.5795 19.3171 17.3697 20.8711 16.9243C19.3155 16.4885 17.704 16.2848 16.0889 16.3198Z" fill="#32BEDD"/>
<path d="M11.1822 8.88898L15.7866 4.2312C15.8363 4.18013 15.8958 4.13954 15.9614 4.11182C16.0271 4.0841 16.0976 4.06982 16.1689 4.06982C16.2401 4.06982 16.3107 4.0841 16.3763 4.11182C16.442 4.13954 16.5014 4.18013 16.5511 4.2312L21.1555 8.88898C21.195 8.92072 21.223 8.96457 21.2352 9.01377C21.2473 9.06298 21.2429 9.1148 21.2227 9.16128C21.2025 9.20775 21.1676 9.24629 21.1233 9.27098C21.0791 9.29566 21.0279 9.30511 20.9778 9.29787H18.1511C18.0851 9.29787 18.0218 9.32409 17.9751 9.37077C17.9284 9.41744 17.9022 9.48075 17.9022 9.54676V15.2534C17.905 15.2798 17.9019 15.3065 17.893 15.3314C17.8842 15.3564 17.8699 15.3792 17.8511 15.3979C17.8324 15.4167 17.8097 15.431 17.7847 15.4398C17.7597 15.4486 17.733 15.4518 17.7066 15.449H14.6133C14.5615 15.449 14.5117 15.4284 14.475 15.3917C14.4384 15.355 14.4178 15.3053 14.4178 15.2534V9.49342C14.4229 9.43485 14.4056 9.37649 14.3693 9.33025C14.3329 9.28401 14.2803 9.25335 14.2222 9.24454H11.3422C11.3037 9.23895 11.2673 9.22376 11.2363 9.20036C11.2052 9.17696 11.1806 9.14611 11.1646 9.11066C11.1487 9.07521 11.1419 9.03632 11.145 8.99757C11.1481 8.95882 11.1609 8.92147 11.1822 8.88898Z" fill="#F2F2F2"/>
</g>
<defs>
<linearGradient id="paint0_linear_868_7098" x1="16" y1="21.0489" x2="16" y2="1.81751e-05" gradientUnits="userSpaceOnUse">
<stop stop-color="#0078D4"/>
<stop offset="0.16" stop-color="#1380DA"/>
<stop offset="0.53" stop-color="#3C91E5"/>
<stop offset="0.82" stop-color="#559CEC"/>
<stop offset="1" stop-color="#5EA0EF"/>
</linearGradient>
<linearGradient id="paint1_linear_868_7098" x1="8.21332" y1="24.071" x2="23.9467" y2="24.071" gradientUnits="userSpaceOnUse">
<stop stop-color="#32BEDD"/>
<stop offset="0.06" stop-color="#37C5E3"/>
<stop offset="0.3" stop-color="#49DDF7"/>
<stop offset="0.45" stop-color="#50E6FF"/>
<stop offset="0.55" stop-color="#50E6FF"/>
<stop offset="0.7" stop-color="#49DDF7"/>
<stop offset="0.94" stop-color="#37C5E3"/>
<stop offset="1" stop-color="#32BEDD"/>
</linearGradient>
<clipPath id="clip0_868_7098">
<rect width="32" height="32" fill="white"/>
</clipPath>
</defs>
</svg>
