<svg width="32" height="32" viewBox="0 0 32 32" fill="none" xmlns="http://www.w3.org/2000/svg">
<path d="M30.0267 2.09766H1.95558C1.40575 2.09766 0.960022 2.54338 0.960022 3.09321V21.1377C0.960022 21.6875 1.40575 22.1332 1.95558 22.1332H30.0267C30.5765 22.1332 31.0222 21.6875 31.0222 21.1377V3.09321C31.0222 2.54338 30.5765 2.09766 30.0267 2.09766Z" fill="url(#paint0_linear_868_7101)"/>
<path d="M22.0267 28.2131C19.0578 27.7509 18.9333 25.5998 18.9511 22.1509H13.0489C13.0489 25.5998 12.9422 27.7509 9.97334 28.2131C9.55267 28.2812 9.17048 28.4982 8.89638 28.8245C8.62229 29.1509 8.47452 29.5648 8.48001 29.9909H23.52C23.5255 29.5648 23.3777 29.1509 23.1036 28.8245C22.8295 28.4982 22.4473 28.2812 22.0267 28.2131Z" fill="url(#paint1_linear_868_7101)"/>
<path d="M23.2356 14.0267V7.83999H21.4578V15.3955H25.9556V14.0267H23.2356ZM10.1867 10.9689C9.85235 10.8331 9.54063 10.6473 9.26223 10.4178C9.18373 10.3387 9.12263 10.244 9.08283 10.14C9.04303 10.0359 9.02542 9.92461 9.03112 9.81332C9.02793 9.70488 9.05237 9.59741 9.10213 9.50101C9.15188 9.40461 9.22533 9.32243 9.31556 9.26221C9.54188 9.11461 9.81061 9.04587 10.08 9.06665C10.7126 9.0434 11.3358 9.22415 11.8578 9.58221V8.01777C11.2888 7.80846 10.6862 7.706 10.08 7.71554C9.35807 7.68045 8.64683 7.90074 8.07112 8.33777C7.8271 8.53272 7.63237 8.78234 7.50267 9.06647C7.37296 9.35059 7.31191 9.66124 7.32445 9.97332C7.34066 10.4536 7.49756 10.9185 7.77568 11.3104C8.0538 11.7023 8.44089 12.0039 8.8889 12.1778C9.29254 12.3408 9.66994 12.5624 10.0089 12.8355C10.0986 12.9045 10.171 12.9935 10.2204 13.0953C10.2697 13.1971 10.2947 13.3091 10.2933 13.4222C10.2933 13.5326 10.2676 13.6415 10.2183 13.7402C10.1689 13.839 10.0972 13.9249 10.0089 13.9911C9.78821 14.14 9.52845 14.2204 9.26223 14.2222C8.52503 14.2146 7.81637 13.9362 7.27112 13.44V15.2178C7.8768 15.5219 8.54934 15.6687 9.22667 15.6444C10 15.6534 10.7552 15.41 11.3778 14.9511C11.6333 14.7563 11.8379 14.5026 11.9742 14.2116C12.1104 13.9206 12.1741 13.601 12.16 13.28C12.1708 13.0467 12.1355 12.8136 12.0562 12.594C11.9769 12.3744 11.8551 12.1725 11.6978 12C11.2697 11.5568 10.7555 11.2059 10.1867 10.9689ZM19.68 13.8844C20.0974 13.1873 20.3071 12.3855 20.2845 11.5733C20.294 10.8763 20.1355 10.1872 19.8222 9.56443C19.5373 8.99366 19.0926 8.51805 18.5422 8.19554C18.0005 7.886 17.3884 7.72073 16.7645 7.71554C16.0746 7.70693 15.3944 7.87851 14.7911 8.21332C14.2093 8.54244 13.7389 9.03763 13.44 9.63554C13.0838 10.2777 12.8943 10.999 12.8889 11.7333C12.8822 12.3975 13.0282 13.0544 13.3156 13.6533C13.604 14.2112 14.0408 14.6788 14.5778 15.0044C15.1147 15.3319 15.727 15.5156 16.3556 15.5378L17.92 17.3155H20.1245L17.9733 15.2533C18.6869 15.0145 19.292 14.5291 19.68 13.8844ZM17.9022 13.4222C17.7386 13.6314 17.5274 13.7986 17.2863 13.9099C17.0451 14.0212 16.7809 14.0734 16.5156 14.0622C16.2483 14.0744 15.982 14.0208 15.7403 13.9061C15.4985 13.7914 15.2886 13.6191 15.1289 13.4044C14.7509 12.8913 14.5624 12.2631 14.5956 11.6267C14.5653 10.9906 14.7535 10.3633 15.1289 9.84888C15.3 9.63787 15.5171 9.46886 15.7636 9.35484C16.0102 9.24081 16.2796 9.1848 16.5511 9.1911C16.8159 9.17876 17.0796 9.2324 17.3186 9.34722C17.5575 9.46203 17.7642 9.63442 17.92 9.84888C18.2729 10.3724 18.4475 10.9959 18.4178 11.6267C18.4886 12.259 18.331 12.8959 17.9733 13.4222H17.9022Z" fill="url(#paint2_radial_868_7101)"/>
<defs>
<linearGradient id="paint0_linear_868_7101" x1="16" y1="22.151" x2="16" y2="2.09766" gradientUnits="userSpaceOnUse">
<stop stop-color="#0078D4"/>
<stop offset="0.82" stop-color="#5EA0EF"/>
</linearGradient>
<linearGradient id="paint1_linear_868_7101" x1="16" y1="29.902" x2="16" y2="22.1509" gradientUnits="userSpaceOnUse">
<stop offset="0.15" stop-color="#CCCCCC"/>
<stop offset="1" stop-color="#707070"/>
</linearGradient>
<radialGradient id="paint2_radial_868_7101" cx="0" cy="0" r="1" gradientUnits="userSpaceOnUse" gradientTransform="translate(16.7645 12.4978) scale(12.9244 12.9244)">
<stop stop-color="#F2F2F2"/>
<stop offset="0.58" stop-color="#EEEEEE"/>
<stop offset="1" stop-color="#E6E6E6"/>
</radialGradient>
</defs>
</svg>
