<svg width="32" height="32" viewBox="0 0 32 32" fill="none" xmlns="http://www.w3.org/2000/svg">
<g clip-path="url(#clip0_868_7100)">
<path d="M5.25156 9.36196C5.21041 9.36219 5.16962 9.35426 5.13155 9.33862C5.09348 9.32298 5.05889 9.29994 5.02979 9.27084C5.00069 9.24174 4.97765 9.20715 4.96201 9.16908C4.94637 9.13102 4.93844 9.09022 4.93867 9.04907C4.93726 8.10227 4.56052 7.19465 3.89103 6.52516C3.22154 5.85566 2.31392 5.47892 1.36712 5.47751C1.28444 5.47751 1.20513 5.44479 1.1465 5.3865C1.08787 5.32821 1.0547 5.24908 1.05423 5.1664C1.05423 5.08342 1.08719 5.00383 1.14587 4.94516C1.20455 4.88648 1.28414 4.85351 1.36712 4.85351C2.31423 4.8521 3.22212 4.47512 3.89166 3.80524C4.5612 3.13537 4.93773 2.22729 4.93867 1.28018C4.93844 1.23902 4.94637 1.19823 4.96201 1.16016C4.97765 1.1221 5.00069 1.08751 5.02979 1.05841C5.05889 1.02931 5.09348 1.00627 5.13155 0.990627C5.16962 0.974986 5.21041 0.967054 5.25156 0.96729C5.29272 0.967054 5.33351 0.974986 5.37158 0.990627C5.40965 1.00627 5.44423 1.02931 5.47334 1.05841C5.50244 1.08751 5.52548 1.1221 5.54112 1.16016C5.55676 1.19823 5.56469 1.23902 5.56445 1.28018C5.56586 2.22698 5.9426 3.1346 6.61209 3.80409C7.28159 4.47358 8.18921 4.85032 9.13601 4.85174C9.17716 4.8515 9.21796 4.85943 9.25602 4.87507C9.29409 4.89071 9.32868 4.91375 9.35778 4.94285C9.38688 4.97195 9.40992 5.00654 9.42556 5.04461C9.4412 5.08268 9.44913 5.12347 9.4489 5.16462C9.44913 5.20578 9.4412 5.24657 9.42556 5.28464C9.40992 5.32271 9.38688 5.35729 9.35778 5.3864C9.32868 5.4155 9.29409 5.43854 9.25602 5.45418C9.21796 5.46982 9.17716 5.47775 9.13601 5.47751C8.18906 5.47845 7.28117 5.85504 6.61158 6.52464C5.94198 7.19423 5.56539 8.10212 5.56445 9.04907C5.56399 9.13191 5.53087 9.21122 5.47229 9.2698C5.41372 9.32838 5.3344 9.36149 5.25156 9.36196Z" fill="#50E6FF"/>
<path d="M27.7529 31.033C27.6864 31.033 27.6226 31.0066 27.5756 30.9596C27.5286 30.9126 27.5022 30.8488 27.5022 30.7824C27.5013 30.025 27.2 29.2988 26.6644 28.7633C26.1288 28.2277 25.4027 27.9264 24.6453 27.9255C24.5791 27.9255 24.5157 27.8993 24.4687 27.8527C24.4217 27.8061 24.3951 27.7428 24.3947 27.6766C24.3947 27.6101 24.4211 27.5463 24.4681 27.4993C24.5151 27.4523 24.5788 27.4259 24.6453 27.4259C25.4029 27.4254 26.1293 27.1243 26.6649 26.5886C27.2006 26.053 27.5017 25.3266 27.5022 24.569C27.5022 24.5025 27.5286 24.4388 27.5756 24.3918C27.6226 24.3448 27.6864 24.3184 27.7529 24.3184C27.8194 24.3184 27.8831 24.3448 27.9301 24.3918C27.9771 24.4388 28.0035 24.5025 28.0035 24.569C28.004 25.3266 28.3052 26.053 28.8408 26.5886C29.3765 27.1243 30.1029 27.4254 30.8604 27.4259C30.9269 27.4259 30.9907 27.4523 31.0377 27.4993C31.0847 27.5463 31.1111 27.6101 31.1111 27.6766C31.1111 27.7431 31.0847 27.8068 31.0377 27.8538C30.9907 27.9008 30.9269 27.9272 30.8604 27.9272C30.103 27.9282 29.3769 28.2295 28.8413 28.7651C28.3058 29.3006 28.0045 30.0267 28.0035 30.7841C28.0031 30.8503 27.9765 30.9136 27.9295 30.9602C27.8825 31.0069 27.819 31.033 27.7529 31.033Z" fill="#50E6FF"/>
<path d="M26.6115 13.3868C27.113 15.4856 26.9807 17.6859 26.2316 19.7096C25.4825 21.7332 24.1501 23.4893 22.403 24.7557C20.6559 26.0221 18.5724 26.7419 16.4162 26.8243C14.2599 26.9066 12.1276 26.3476 10.289 25.2181C8.45041 24.0886 6.98804 22.4392 6.08682 20.4786C5.1856 18.518 4.88602 16.3341 5.22596 14.2032C5.5659 12.0723 6.53009 10.0901 7.99661 8.50716C9.46312 6.92425 11.3661 5.81175 13.4649 5.31036C16.2792 4.63802 19.2454 5.11121 21.7109 6.62584C24.1764 8.14046 25.9392 10.5725 26.6115 13.3868Z" fill="url(#paint0_radial_868_7100)"/>
<mask id="mask0_868_7100" style="mask-type:luminance" maskUnits="userSpaceOnUse" x="5" y="5" width="22" height="22">
<path d="M26.6115 13.3868C27.113 15.4856 26.9807 17.6859 26.2316 19.7096C25.4825 21.7332 24.1501 23.4893 22.403 24.7557C20.6559 26.0221 18.5724 26.7419 16.4162 26.8243C14.2599 26.9066 12.1276 26.3476 10.289 25.2181C8.45041 24.0886 6.98804 22.4392 6.08682 20.4786C5.1856 18.518 4.88602 16.3341 5.22596 14.2032C5.5659 12.0723 6.53009 10.0901 7.99661 8.50716C9.46312 6.92425 11.3661 5.81175 13.4649 5.31036C16.2792 4.63802 19.2454 5.11121 21.7109 6.62584C24.1764 8.14046 25.9392 10.5725 26.6115 13.3868Z" fill="white"/>
</mask>
<g mask="url(#mask0_868_7100)">
<path d="M10.1493 23.3155C10.5376 23.3257 10.9241 23.2581 11.2859 23.1167C11.6476 22.9752 11.9775 22.7628 12.2559 22.492C12.5344 22.2211 12.7558 21.8973 12.9073 21.5396C13.0587 21.1819 13.137 20.7974 13.1376 20.409C13.1382 20.0205 13.061 19.6359 12.9107 19.2777C12.7604 18.9195 12.5399 18.595 12.2623 18.3233C11.9847 18.0516 11.6555 17.8382 11.2941 17.6957C10.9328 17.5531 10.5466 17.4843 10.1582 17.4933C10.1668 17.4106 10.171 17.3276 10.1707 17.2444C10.1636 16.4675 9.84882 15.7251 9.2953 15.1799C8.74178 14.6347 7.99468 14.3313 7.21776 14.336H5.03465C4.82108 15.9491 4.96434 17.5893 5.45431 19.141C5.94428 20.6926 6.769 22.1177 7.87021 23.3155H10.1493Z" fill="#F2F2F2"/>
<path d="M26.7466 13.8935C26.7466 13.8669 26.7466 13.8402 26.7342 13.8153C26.3826 11.913 25.5183 10.1427 24.2346 8.69532C24.0681 8.62785 23.8963 8.57433 23.7209 8.53532C23.2537 8.40203 22.7624 8.37649 22.284 8.46062C21.8055 8.54474 21.3524 8.73633 20.9588 9.02097C20.5651 9.30561 20.2411 9.67586 20.0113 10.1038C19.7815 10.5318 19.6518 11.0064 19.632 11.4918C19.5139 11.4781 19.3953 11.4704 19.2764 11.4687C18.5483 11.4686 17.8435 11.7259 17.2866 12.195C16.7297 12.6642 16.3565 13.315 16.233 14.0326C16.1094 14.7502 16.2434 15.4884 16.6113 16.1168C16.9792 16.7452 17.5573 17.2234 18.2435 17.4669C18.5499 17.5869 18.8763 17.6473 19.2053 17.6447H22.8142C24.2633 16.5478 25.5826 15.2893 26.7466 13.8935Z" fill="#F2F2F2"/>
</g>
<path d="M30.5618 6.81261C29.4436 4.95127 26.8285 4.22594 23.1751 4.76994C21.9234 4.94733 20.6864 5.2159 19.4738 5.5735C20.4357 5.90558 21.3492 6.36412 22.1902 6.93705C22.6187 6.84283 23.0489 6.73083 23.4613 6.66861C24.1102 6.56759 24.7656 6.5147 25.4222 6.51039C26.0642 6.41785 26.7191 6.48729 27.3273 6.71239C27.9356 6.9375 28.4779 7.31113 28.9049 7.79927C29.5858 8.9335 29.0116 10.8731 27.3298 13.1326C24.9925 16.0418 22.1284 18.4849 18.8871 20.3344C15.7185 22.312 12.2062 23.6762 8.53335 24.3557C5.7529 24.7717 3.76535 24.3557 3.08446 23.2251C2.40357 22.0944 2.97779 20.1495 4.65957 17.9006C4.86757 17.6215 4.91913 17.4846 5.15557 17.2037C5.04444 16.2399 5.05998 15.2657 5.20179 14.3059C4.44597 15.0635 3.75052 15.8791 3.12179 16.7451C0.919125 19.6908 0.321792 22.3397 1.43824 24.2011C2.02801 24.9901 2.8146 25.6104 3.71934 26.0001C4.62408 26.3898 5.61527 26.5351 6.59379 26.4215C7.33851 26.4176 8.0819 26.3581 8.81779 26.2437C12.7383 25.5282 16.489 24.0807 19.8738 21.9771C23.3306 19.9988 26.3832 17.3859 28.8711 14.2757C31.0809 11.3228 31.6782 8.67572 30.5618 6.81261Z" fill="#50E6FF"/>
</g>
<defs>
<radialGradient id="paint0_radial_868_7100" cx="0" cy="0" r="1" gradientUnits="userSpaceOnUse" gradientTransform="translate(15.916 15.9183) scale(10.9659 10.8707)">
<stop offset="0.183" stop-color="#5EA0EF"/>
<stop offset="1" stop-color="#0078D4"/>
</radialGradient>
<clipPath id="clip0_868_7100">
<rect width="32" height="32" fill="white"/>
</clipPath>
</defs>
</svg>
