<svg width="32" height="32" viewBox="0 0 32 32" fill="none" xmlns="http://www.w3.org/2000/svg">
<g clip-path="url(#clip0_868_7095)">
<path d="M16 9.13763C9.70665 9.13763 4.60443 7.35985 4.60443 5.01318V26.9865C4.60443 29.2443 9.61776 31.0754 15.84 31.111H16C22.2933 31.111 27.3955 29.3332 27.3955 26.9865V5.01318C27.3955 7.28874 22.2933 9.13763 16 9.13763Z" fill="url(#paint0_linear_868_7095)"/>
<path d="M27.3955 5.01312C27.3955 7.28867 22.2933 9.13756 16 9.13756C9.70665 9.13756 4.60443 7.35978 4.60443 5.01312C4.60443 2.66645 9.70665 0.888672 16 0.888672C22.2933 0.888672 27.3955 2.66645 27.3955 5.01312Z" fill="#E8E8E8"/>
<path d="M24.7289 4.67535C24.7289 6.13312 20.8178 7.30646 16 7.30646C11.1822 7.30646 7.25333 6.13312 7.25333 4.69312C7.25333 3.25312 11.1644 2.06201 16 2.06201C20.8355 2.06201 24.7289 3.23535 24.7289 4.67535Z" fill="#50E6FF"/>
<path d="M16 5.33353C13.6481 5.27504 11.3035 5.61772 9.06668 6.34687C11.3057 7.06184 13.651 7.38657 16 7.30687C18.3474 7.36386 20.6869 7.01503 22.9156 6.27576C20.6781 5.58255 18.3414 5.26418 16 5.33353Z" fill="#198AB3"/>
<path d="M21.6071 15.9838C21.6071 16.1314 21.5591 16.4105 21.5111 16.7341C21.4438 17.1043 21.3999 17.4783 21.3796 17.8541C21.3796 18.0692 21.4293 18.3981 21.4649 18.6861C21.4969 18.9296 21.5253 19.1589 21.5342 19.3172C21.5346 19.8624 21.3751 20.3958 21.0756 20.8514C21.056 20.8941 21.0364 20.9349 21.0151 20.9758C21.0738 21.0487 21.1342 21.1198 21.1929 21.1892C22.0064 19.8587 22.6507 18.432 23.1111 16.9421C23.6231 15.2532 23.6836 14.0372 23.2747 13.5198C22.7005 12.8254 21.9384 12.311 21.0796 12.0383C20.2208 11.7656 19.3016 11.7461 18.432 11.9821C19.0427 12.2915 19.5988 12.6986 20.0782 13.1874C20.5096 13.5252 20.8677 13.9474 21.1306 14.4282C21.3934 14.909 21.5556 15.4383 21.6071 15.9838ZM21.0489 16.1314C20.5715 16.0124 20.0673 16.0672 19.6267 16.2861C19.0933 16.6149 19.2604 17.2656 19.5342 18.0834C19.7062 18.6036 19.9135 19.1114 20.1547 19.6034L20.3182 19.8985C20.4053 20.0532 20.4711 20.1723 20.5138 20.2541C20.5564 20.3358 20.608 20.4087 20.6578 20.4834C20.8679 20.1367 20.982 19.7403 20.9884 19.3349C20.9884 19.1963 20.9529 18.9794 20.9227 18.7429C20.8818 18.4265 20.8409 18.0994 20.8338 17.8541C20.8509 17.4448 20.8966 17.0373 20.9707 16.6345C21.0027 16.4638 21.0311 16.2718 21.0489 16.1314ZM20.4978 16.8532C20.412 16.9468 20.2976 17.0093 20.1725 17.0309H20.1102C20.0176 17.0309 19.927 17.0044 19.8489 16.9547C19.7708 16.9049 19.7085 16.8339 19.6693 16.7501V16.7358C19.6498 16.5972 19.8791 16.4905 20.1173 16.4567C20.2255 16.4372 20.3363 16.4372 20.4444 16.4567C20.5476 16.4816 20.6116 16.5314 20.6222 16.5954C20.6196 16.6444 20.6072 16.6925 20.5858 16.7367C20.5645 16.781 20.5345 16.8206 20.4978 16.8532ZM12.0053 18.4532C12.0196 18.3216 12.032 18.2078 12.032 18.1492C12.032 18.0478 12.032 17.9429 12.0213 17.8345C11.9879 17.2675 12.0057 16.6987 12.0747 16.1349C12.1449 15.4558 12.2892 14.7863 12.5049 14.1385C12.7251 13.5367 13.0747 12.9905 13.5289 12.5385C12.7403 12.2778 11.9182 12.1323 11.088 12.1065C10.3876 12.0762 9.69483 12.2624 9.10401 12.6398C8.64882 13.0377 8.3042 13.5465 8.10361 14.1169C7.90301 14.6872 7.85324 15.2997 7.95912 15.8949C8.12844 17.2501 8.42243 18.5867 8.83734 19.8878C9.46845 21.9323 10.1582 23.1749 10.7787 23.3776C11.056 23.4701 11.3333 23.3456 11.6267 22.9989C12.1333 22.3909 12.6062 21.8683 12.8871 21.5767C12.4847 21.1746 12.1923 20.6758 12.0379 20.1283C11.8835 19.5808 11.8723 19.0027 12.0053 18.4496V18.4532ZM12.4907 19.1643C12.474 19.497 12.5082 19.8303 12.592 20.1527C12.693 20.4477 12.8553 20.718 13.0684 20.9456C13.246 21.136 13.4616 21.2868 13.7013 21.3883C13.9268 21.4821 14.1682 21.5316 14.4125 21.5341C14.5273 21.1714 14.6621 20.8153 14.816 20.4674C14.9674 20.1268 15.0975 19.7771 15.2053 19.4203C15.2805 18.7635 15.2971 18.1013 15.2551 17.4416C15.2285 17.2638 15.1965 17.0861 15.1538 16.8958C15.1361 16.7146 15.0585 16.5445 14.9333 16.4123C14.9182 16.3971 14.9022 16.3829 14.8853 16.3696C14.7332 16.2639 14.5547 16.2024 14.3698 16.1918C14.2255 16.1775 14.0802 16.1775 13.936 16.1918C13.6351 16.2319 13.3424 16.3189 13.0684 16.4496C12.8926 16.5369 12.7263 16.6423 12.5724 16.7643C12.5724 16.8354 12.5724 16.9012 12.5724 16.9669C12.5938 17.3225 12.6009 17.6887 12.5902 18.0496V18.1332C12.5903 18.2259 12.5843 18.3185 12.5724 18.4105C12.5582 18.6434 12.5405 18.8763 12.512 19.1074L12.4907 19.1643ZM13.6889 16.7696C13.6999 16.7465 13.7164 16.7263 13.7369 16.7109C13.8919 16.6276 14.0716 16.6023 14.2436 16.6398C14.3635 16.6538 14.4799 16.69 14.5867 16.7465C14.7484 16.8336 14.7644 16.9332 14.7484 16.9847V17.0114C14.7042 17.1076 14.6333 17.189 14.5441 17.246C14.4549 17.3031 14.3512 17.3333 14.2453 17.3332H14.1742C13.8791 17.2905 13.6409 16.9936 13.6658 16.8372C13.6688 16.8133 13.6767 16.7903 13.6889 16.7696ZM15.0205 22.0781C14.9289 22.0912 14.8441 22.1336 14.7787 22.1989C14.6773 22.3127 14.6009 22.4123 14.5333 22.4941C14.2293 22.8781 14.1013 22.9989 13.2053 23.1803C13.0415 23.1981 12.8842 23.2547 12.7467 23.3456C12.8728 23.4503 13.0221 23.5235 13.1822 23.5589C13.6008 23.6932 14.0508 23.6932 14.4693 23.5589C14.7016 23.4837 14.9189 23.3681 15.1111 23.2176C15.2849 23.0753 15.4093 22.8819 15.4667 22.6647C15.4744 22.5755 15.4625 22.4856 15.4318 22.4015C15.4011 22.3173 15.3523 22.2409 15.2889 22.1776C15.2543 22.1411 15.2118 22.1132 15.1646 22.0959C15.1174 22.0786 15.0668 22.0725 15.0169 22.0781H15.0205ZM23.376 22.0781C22.7058 22.299 21.98 22.282 21.3209 22.0301C21.2367 22.0114 21.149 22.015 21.0667 22.0407C20.941 22.0815 20.8355 22.1686 20.7716 22.2843C20.7186 22.4672 20.697 22.6577 20.7076 22.8478C21.3768 22.9935 22.0745 22.9314 22.7076 22.6701C23.0372 22.5325 23.3323 22.3237 23.5716 22.0585C23.5025 22.0579 23.4335 22.0633 23.3653 22.0745L23.376 22.0781ZM19.0222 18.2558C18.7751 17.5181 18.4053 16.4034 19.3458 15.8238C19.8395 15.5549 20.4105 15.4633 20.9636 15.5643C20.6896 14.8353 20.2698 14.1698 19.7298 13.6087C19.6729 13.5483 19.616 13.4914 19.552 13.4309C19.488 13.3705 19.4756 13.3598 19.4364 13.3261L19.4222 13.3118L19.3013 13.2052L19.2196 13.1394L19.1716 13.0985C18.3158 12.4318 17.2626 12.0685 16.1778 12.0656C15.5349 12.0314 14.8971 12.1952 14.3502 12.5349C13.7379 12.9812 13.273 13.6003 13.0151 14.3127C12.8296 14.8772 12.7021 15.4592 12.6347 16.0496C13.1703 15.7316 13.7915 15.5875 14.4125 15.6372C14.6105 15.651 14.8038 15.7043 14.9809 15.794C15.158 15.8836 15.3154 16.0078 15.4438 16.1592C15.5722 16.3106 15.669 16.4862 15.7285 16.6756C15.788 16.865 15.809 17.0644 15.7902 17.2621C15.8396 18.0178 15.82 18.7765 15.7316 19.5287C15.6191 19.9147 15.4801 20.2925 15.3156 20.6594C15.1929 20.9563 15.0596 21.2798 14.9778 21.5287C15.1056 21.5157 15.2347 21.5317 15.3554 21.5758C15.4761 21.6198 15.5853 21.6906 15.6747 21.7829C15.7964 21.9031 15.8897 22.049 15.9478 22.2098C16.006 22.3707 16.0274 22.5425 16.0107 22.7127C16.0018 22.8549 15.9965 22.9989 15.9805 23.1429C15.8443 24.609 15.9873 26.0875 16.4018 27.5003C16.5102 27.6688 16.6652 27.8022 16.848 27.8843C17.0185 27.9901 17.2129 28.0513 17.4133 28.0621C17.7327 28.0849 18.0533 28.0436 18.3565 27.9408C18.6597 27.8379 18.9392 27.6754 19.1787 27.4629C19.4912 27.1468 19.6761 26.7265 19.6978 26.2825C19.8382 25.4718 20.1067 23.2372 20.1422 22.7732C20.1094 22.496 20.1681 22.2157 20.3093 21.9749C20.424 21.7879 20.5934 21.6408 20.7947 21.5536C19.9907 20.583 19.3882 19.4619 19.0222 18.2558Z" fill="white"/>
<path d="M28.5077 29.4726C30.8251 27.5161 31.5531 24.5671 30.1338 22.8859C28.7144 21.2046 25.685 21.4277 23.3676 23.3842C21.0501 25.3407 20.3221 28.2897 21.7415 29.971C23.1609 31.6522 26.1902 31.4291 28.5077 29.4726Z" fill="#76BC2D"/>
<path d="M24.6115 28.1618C24.3405 27.9816 24.1196 27.7357 23.9693 27.447C23.8191 27.1583 23.7443 26.8363 23.7522 26.5109C23.76 26.1856 23.85 25.8675 24.014 25.5863C24.178 25.3052 24.4104 25.0702 24.6898 24.9032C26.7502 23.4276 26.8764 25.552 25.2231 25.8276C25.2231 26.592 27.3707 26.5014 28.2951 24.7929C29.3333 22.8712 26.2827 21.6534 23.6391 24.5672C21.9484 26.432 21.9058 28.9832 23.4009 29.5449C24.1066 29.7559 24.8533 29.7908 25.5757 29.6468C26.298 29.5027 26.9741 29.1839 27.5449 28.7183C28.1157 28.2527 28.5639 27.6545 28.8502 26.9758C29.1365 26.2971 29.2524 25.5587 29.1875 24.8249C27.7689 28.1547 25.7404 28.6365 24.6115 28.1618Z" fill="white"/>
</g>
<defs>
<linearGradient id="paint0_linear_868_7095" x1="4.60443" y1="18.0639" x2="27.4009" y2="18.0639" gradientUnits="userSpaceOnUse">
<stop stop-color="#005BA1"/>
<stop offset="0.07" stop-color="#0060A9"/>
<stop offset="0.36" stop-color="#0071C8"/>
<stop offset="0.52" stop-color="#0078D4"/>
<stop offset="0.64" stop-color="#0074CD"/>
<stop offset="0.82" stop-color="#006ABB"/>
<stop offset="1" stop-color="#005BA1"/>
</linearGradient>
<clipPath id="clip0_868_7095">
<rect width="32" height="32" fill="white"/>
</clipPath>
</defs>
</svg>
