<svg width="32" height="32" viewBox="0 0 32 32" fill="none" xmlns="http://www.w3.org/2000/svg">
<path d="M16 9.13763C9.70665 9.13763 4.60443 7.35985 4.60443 5.01318V26.9865C4.60443 29.2443 9.61776 31.0754 15.84 31.111H16C22.2933 31.111 27.3955 29.3332 27.3955 26.9865V5.01318C27.3955 7.30652 22.2933 9.13763 16 9.13763Z" fill="url(#paint0_linear_868_7109)"/>
<path d="M27.3955 5.01312C27.3955 7.30645 22.2933 9.13756 16 9.13756C9.70665 9.13756 4.60443 7.35978 4.60443 5.01312C4.60443 2.66645 9.70665 0.888672 16 0.888672C22.2933 0.888672 27.3955 2.66645 27.3955 5.01312Z" fill="#E8E8E8"/>
<path d="M24.7467 4.67535C24.7467 6.13312 20.8178 7.30646 16 7.30646C11.1822 7.30646 7.25336 6.13312 7.25336 4.67535C7.25336 3.21757 11.1822 2.06201 16 2.06201C20.8178 2.06201 24.7467 3.23535 24.7467 4.67535Z" fill="#50E6FF"/>
<path d="M16 5.33345C13.6539 5.27353 11.3148 5.61627 9.08447 6.34679C11.3169 7.06373 13.6567 7.38853 16 7.30679C18.3481 7.37557 20.6897 7.02643 22.9156 6.27567C20.6789 5.57895 18.3416 5.26049 16 5.33345Z" fill="#198AB3"/>
<path d="M22.4711 16V18.8978H20.6933C20.5946 18.8954 20.4976 18.872 20.4087 18.829C20.3197 18.7861 20.241 18.7247 20.1778 18.6489V16H17.7778V19.1644C17.7842 19.3872 17.8361 19.6063 17.9302 19.8083C18.0244 20.0103 18.1588 20.191 18.3253 20.3391C18.4918 20.4873 18.6868 20.5999 18.8983 20.6699C19.1099 20.74 19.3335 20.7661 19.5555 20.7467H22.2044L22.6667 20.5156C22.6667 20.5156 22.4711 21.2444 22.2044 21.28H17.9733V23.0578H22.7022C22.9969 23.063 23.2895 23.0076 23.5619 22.8951C23.8343 22.7826 24.0806 22.6152 24.2856 22.4035C24.4907 22.1918 24.65 21.9403 24.7538 21.6644C24.8576 21.3886 24.9035 21.0944 24.8889 20.8V16H22.4711Z" fill="#F2F2F2"/>
<path d="M16.9422 16V15.1289C16.9857 14.8366 16.9237 14.5383 16.7674 14.2875C16.611 14.0367 16.3705 13.8497 16.0889 13.76C15.8011 13.6695 15.5016 13.6216 15.2 13.6178C14.8571 13.6027 14.5179 13.6936 14.2284 13.8781C13.939 14.0626 13.7133 14.3317 13.5822 14.6489L12.1956 18.0267L10.4178 14.6489C10.2942 14.3446 10.0827 14.0841 9.81044 13.9004C9.53814 13.7168 9.21732 13.6184 8.88888 13.6178C8.57948 13.6159 8.27229 13.6701 7.98222 13.7778C7.36 13.9734 7.21777 14.3823 7.21777 15.0756V20.96H9.29777V16.9956L10.4178 19.7867C10.5652 20.1359 10.8127 20.4337 11.129 20.6425C11.4454 20.8513 11.8165 20.9618 12.1956 20.96C12.9778 20.96 13.2978 20.4978 13.6178 19.7867L14.8089 17.1023V20.9245H16.9067V16H16.9422Z" fill="#F2F2F2"/>
<defs>
<linearGradient id="paint0_linear_868_7109" x1="4.60443" y1="18.0621" x2="27.3955" y2="18.0621" gradientUnits="userSpaceOnUse">
<stop stop-color="#005BA1"/>
<stop offset="0.07" stop-color="#0060A9"/>
<stop offset="0.36" stop-color="#0071C8"/>
<stop offset="0.52" stop-color="#0078D4"/>
<stop offset="0.64" stop-color="#0074CD"/>
<stop offset="0.82" stop-color="#006ABB"/>
<stop offset="1" stop-color="#005BA1"/>
</linearGradient>
</defs>
</svg>
