<svg width="32" height="32" viewBox="0 0 32 32" fill="none" xmlns="http://www.w3.org/2000/svg">
<path d="M16 9.13763C9.70665 9.13763 4.60443 7.35985 4.60443 5.01318V26.9865C4.60443 29.2443 9.61776 31.0754 15.84 31.111H16C22.2933 31.111 27.3955 29.3332 27.3955 26.9865V5.01318C27.3955 7.28874 22.2933 9.13763 16 9.13763Z" fill="url(#paint0_linear_868_7099)"/>
<path d="M27.3955 5.01312C27.3955 7.28867 22.2933 9.13756 16 9.13756C9.70665 9.13756 4.60443 7.35978 4.60443 5.01312C4.60443 2.66645 9.70665 0.888672 16 0.888672C22.2933 0.888672 27.3955 2.66645 27.3955 5.01312Z" fill="#E8E8E8"/>
<path d="M24.7289 4.67535C24.7289 6.13312 20.8178 7.30646 16 7.30646C11.1822 7.30646 7.25336 6.13312 7.25336 4.69312C7.25336 3.25312 11.1645 2.06201 16 2.06201C20.8356 2.06201 24.7289 3.23535 24.7289 4.67535Z" fill="#50E6FF"/>
<path d="M16 5.3332C13.6481 5.27474 11.3034 5.61742 9.06665 6.34653C11.3056 7.06168 13.6509 7.38641 16 7.30653C18.3473 7.36356 20.6869 7.01473 22.9155 6.27542C20.6782 5.5816 18.3414 5.26322 16 5.3332Z" fill="#198AB3"/>
<path d="M21.3333 16C21.3333 16.1422 21.3333 16.4267 21.3333 16.7467C21.2628 17.1167 21.2153 17.4908 21.1911 17.8667C21.1911 18.08 21.1911 18.4 21.28 18.6845C21.3689 18.9689 21.28 19.1645 21.28 19.3245C21.2729 19.8649 21.1193 20.3933 20.8356 20.8533C20.8322 20.8948 20.8322 20.9364 20.8356 20.9778L21.0133 21.1911C21.8139 19.864 22.4469 18.4428 22.8978 16.96C23.3956 15.2711 23.4489 14.0622 23.0578 13.5467C22.497 12.8579 21.7482 12.3467 20.9024 12.0753C20.0566 11.8039 19.1502 11.7839 18.2933 12.0178C18.8973 12.3185 19.4446 12.7215 19.9111 13.2089C20.3215 13.5565 20.6586 13.9823 20.9028 14.4615C21.1469 14.9407 21.2933 15.4637 21.3333 16ZM20.7822 16.1422C20.3099 16.0269 19.812 16.0836 19.3778 16.3022C18.8622 16.6222 19.0222 17.28 19.3778 18.08C19.5552 18.5956 19.763 19.1001 20 19.5911L20.16 19.8756C20.2489 20.0178 20.3022 20.1422 20.3556 20.2311L20.4978 20.4622C20.7058 20.1126 20.8163 19.7135 20.8178 19.3067C20.8291 19.1113 20.8291 18.9154 20.8178 18.72C20.8178 18.4178 20.8178 18.08 20.7289 17.8489C20.753 17.4376 20.8004 17.0281 20.8711 16.6222C20.8178 16.4267 20.8356 16.2311 20.8533 16.0889L20.7822 16.1422ZM20.2489 16.8711C20.1596 16.9573 20.0492 17.0186 19.9289 17.0489C19.8469 17.0667 19.762 17.0667 19.68 17.0489C19.6349 17.0058 19.6002 16.953 19.5786 16.8944C19.557 16.8359 19.5492 16.7732 19.5556 16.7111C19.5556 16.5867 19.7511 16.48 19.9822 16.4445H20.32C20.32 16.4445 20.48 16.4445 20.48 16.5867C20.4704 16.6341 20.4513 16.679 20.4238 16.7187C20.3963 16.7585 20.361 16.7922 20.32 16.8178L20.2489 16.8711ZM11.9111 18.4533C11.9111 18.3289 11.9111 18.2222 11.9111 18.1511C11.9197 18.0506 11.9197 17.9495 11.9111 17.8489C11.8576 17.2575 11.8576 16.6625 11.9111 16.0711C12.017 15.4018 12.1958 14.746 12.4444 14.1156C12.6541 13.4862 13.0071 12.9142 13.4756 12.4445C12.6967 12.2118 11.8884 12.092 11.0756 12.0889C10.3841 12.0588 9.70044 12.2452 9.12 12.6222C8.67607 13.0237 8.34067 13.5307 8.14489 14.0963C7.9491 14.6619 7.89926 15.2678 8 15.8578C8.17123 17.2101 8.46882 18.5433 8.88889 19.84C9.49333 21.8667 10.1867 23.1111 10.7911 23.3067C11.0578 23.3956 11.3422 23.3067 11.6267 22.9333C12.1244 22.3289 12.5867 21.8133 12.8533 21.5111C12.457 21.1085 12.1692 20.6119 12.0169 20.0678C11.8646 19.5237 11.8526 18.9499 11.9822 18.4L11.9111 18.4533ZM12.3733 19.1645C12.3657 19.4995 12.4015 19.8342 12.48 20.16C12.5882 20.4453 12.7445 20.7099 12.9422 20.9422C13.1174 21.131 13.3291 21.2822 13.5644 21.3867C13.7849 21.4762 14.0199 21.5245 14.2578 21.5289C14.2578 21.2267 14.5067 20.8533 14.6667 20.4622C14.8161 20.122 14.9409 19.7715 15.04 19.4133C15.0953 18.7567 15.0953 18.0966 15.04 17.44C15.04 17.28 15.04 17.1022 14.9333 16.9067C14.9183 16.7272 14.8431 16.5581 14.72 16.4267C14.5801 16.2922 14.4091 16.1944 14.2222 16.1422H13.8667C13.5707 16.1788 13.2825 16.2628 13.0133 16.3911C12.8136 16.4858 12.6232 16.5989 12.4444 16.7289V16.9245C12.4444 17.28 12.4444 17.6533 12.4444 18.0089C12.4522 18.0976 12.4522 18.1868 12.4444 18.2756V18.9689L12.3733 19.1645ZM13.5467 16.7822C13.7086 16.7305 13.8825 16.7305 14.0444 16.7822C14.1622 16.7987 14.2764 16.8348 14.3822 16.8889C14.5422 16.8889 14.56 17.0845 14.5422 17.1378C14.4908 17.2309 14.4176 17.3102 14.3289 17.3689C14.2906 17.3496 14.2548 17.3257 14.2222 17.2978C14.0977 17.2772 13.9827 17.2181 13.8934 17.1288C13.8041 17.0396 13.745 16.9246 13.7244 16.8L13.5467 16.7822ZM14.8622 22.1156C14.7758 22.1256 14.6948 22.163 14.6311 22.2222L14.3822 22.5245C14.08 22.8978 13.9556 23.0222 13.0844 23.2C12.9171 23.2161 12.7573 23.2776 12.6222 23.3778C12.7475 23.4749 12.8935 23.5418 13.0489 23.5733C13.4651 23.7067 13.9126 23.7067 14.3289 23.5733C14.5802 23.452 14.8136 23.2965 15.0222 23.1111C15.1948 22.9685 15.319 22.776 15.3778 22.56C15.3853 22.4692 15.3733 22.3778 15.3427 22.2919C15.312 22.2061 15.2634 22.1278 15.2 22.0622C15.1627 22.0332 15.1183 22.0146 15.0715 22.0084C15.0246 22.0021 14.9769 22.0084 14.9333 22.0267L14.8622 22.1156ZM23.0578 22.1156C22.4096 22.3551 21.6971 22.3551 21.0489 22.1156C20.9681 22.0885 20.8807 22.0885 20.8 22.1156C20.6713 22.1572 20.5633 22.2462 20.4978 22.3645C20.4715 22.5472 20.4715 22.7328 20.4978 22.9156C21.1522 23.0627 21.8362 23.0005 22.4533 22.7378C22.7785 22.601 23.0697 22.3947 23.3067 22.1333L23.0578 22.1156ZM18.7911 18.3111C18.5422 17.5822 18.1867 16.5333 19.1111 15.8933C19.5923 15.6256 20.151 15.5314 20.6933 15.6267C20.4608 14.8733 20.0732 14.1769 19.5556 13.5822L19.3778 13.4045L19.2711 13.2978C19.2401 13.2579 19.2043 13.2221 19.1644 13.1911C18.8126 12.8765 18.4099 12.624 17.9733 12.4445C17.3517 12.1724 16.6784 12.039 16 12.0533C15.5756 12.0196 15.1492 12.0866 14.7556 12.2489C14.5722 12.2979 14.3937 12.3633 14.2222 12.4445C13.6142 12.8906 13.1556 13.5104 12.9067 14.2222C12.7305 14.8028 12.6056 15.3976 12.5333 16C13.0679 15.6794 13.6902 15.5363 14.3111 15.5911C14.5075 15.6068 14.6988 15.6612 14.874 15.7511C15.0493 15.841 15.205 15.9647 15.3323 16.1151C15.4595 16.2655 15.5557 16.4395 15.6154 16.6273C15.6751 16.815 15.697 17.0127 15.68 17.2089C15.746 17.96 15.746 18.7155 15.68 19.4667C15.5764 19.8511 15.4396 20.2259 15.2711 20.5867C15.1644 20.8889 15.0222 21.2089 14.9511 21.4578C15.0748 21.4499 15.1989 21.4679 15.3152 21.5108C15.4316 21.5536 15.5376 21.6204 15.6267 21.7067C15.749 21.8291 15.8427 21.9771 15.9011 22.14C15.9595 22.3029 15.9811 22.4767 15.9644 22.6489H16C16 22.7911 16 22.9333 16 23.0756C15.8679 24.5355 16.0127 26.0072 16.4267 27.4133C16.5281 27.5779 16.6768 27.708 16.8533 27.7867C17.0171 27.8956 17.2079 27.9571 17.4044 27.9645C17.7266 27.9937 18.0513 27.955 18.3575 27.8509C18.6637 27.7468 18.9447 27.5796 19.1822 27.36C19.4872 27.042 19.6698 26.6264 19.6978 26.1867C19.8222 25.3867 20.0889 23.1645 20.1244 22.6311C20.093 22.36 20.1491 22.0859 20.2844 21.8489C20.3994 21.6629 20.5662 21.5145 20.7644 21.4222C19.9241 20.4857 19.2776 19.3921 18.8622 18.2045L18.7911 18.3111Z" fill="#F2F2F2"/>
<defs>
<linearGradient id="paint0_linear_868_7099" x1="4.58996" y1="18.0791" x2="27.3989" y2="18.0751" gradientUnits="userSpaceOnUse">
<stop stop-color="#005BA1"/>
<stop offset="0.07" stop-color="#0060A9"/>
<stop offset="0.36" stop-color="#0071C8"/>
<stop offset="0.52" stop-color="#0078D4"/>
<stop offset="0.64" stop-color="#0074CD"/>
<stop offset="0.82" stop-color="#006ABB"/>
<stop offset="1" stop-color="#005BA1"/>
</linearGradient>
</defs>
</svg>
