<svg width="32" height="32" viewBox="0 0 32 32" fill="none" xmlns="http://www.w3.org/2000/svg">
<path d="M16 9.13763C9.70665 9.13763 4.60443 7.35985 4.60443 5.01318V26.9865C4.60443 29.2443 9.61776 31.0754 15.84 31.111H16C22.2933 31.111 27.3955 29.3332 27.3955 26.9865V5.01318C27.3955 7.30652 22.2933 9.13763 16 9.13763Z" fill="url(#paint0_linear_868_7094)"/>
<path d="M27.3955 5.01312C27.3955 7.30645 22.2933 9.13756 16 9.13756C9.70665 9.13756 4.60443 7.35978 4.60443 5.01312C4.60443 2.66645 9.70665 0.888672 16 0.888672C22.2933 0.888672 27.3955 2.66645 27.3955 5.01312Z" fill="#E8E8E8"/>
<path d="M24.7467 4.67535C24.7467 6.13312 20.8178 7.30646 16 7.30646C11.1822 7.30646 7.25336 6.13312 7.25336 4.67535C7.25336 3.21757 11.1822 2.06201 16 2.06201C20.8178 2.06201 24.7467 3.23535 24.7467 4.67535Z" fill="#50E6FF"/>
<path d="M16 5.33345C13.6539 5.27353 11.3148 5.61627 9.08447 6.34679C11.3169 7.06373 13.6567 7.38853 16 7.30679C18.3481 7.37557 20.6897 7.02643 22.9156 6.27567C20.6789 5.57895 18.3416 5.26049 16 5.33345Z" fill="#198AB3"/>
<path d="M25.3334 11.2354C24.7467 11.2354 25.44 11.6798 23.36 11.7687C21.28 11.8576 20.5511 13.9909 19.2 15.7865C17.7649 17.2126 15.8805 18.0982 13.8667 18.2931C12.513 18.7304 11.3394 19.5982 10.5245 20.7642C10.4081 21.0115 10.2316 21.2257 10.0111 21.3872C9.79056 21.5487 9.53312 21.6523 9.26224 21.6887C8.78224 21.6887 7.73335 21.8309 7.73335 21.8309C7.29802 21.9256 6.87464 22.0687 6.47113 22.2576C6.61335 22.8442 7.78669 22.5954 7.78669 22.5954C7.4975 22.8942 7.18866 23.1733 6.86224 23.4309C7.44468 23.5671 8.0469 23.5972 8.64002 23.5198C9.40446 23.5198 9.99113 22.7909 11.3956 22.0265C12.8 21.262 16.0356 22.0265 16.5511 22.0265C17.0667 22.0265 17.8311 20.6754 18.0089 20.2487C18.1511 21.2087 16.5511 23.8042 16.5511 23.8042C17.1493 23.7653 17.7294 23.5835 18.2429 23.2742C18.7563 22.9649 19.1882 22.537 19.5022 22.0265C19.6445 21.8487 20.0889 20.9242 20.1422 21.0131C20.1956 21.102 20.4267 21.3509 20.5156 21.3154C20.6791 21.1703 20.8279 21.0095 20.96 20.8354C21.8968 19.5005 22.5835 18.0066 22.9867 16.4265C23.1111 15.9998 23.1111 14.4531 24.1778 13.8131C25.2445 13.1731 25.3867 12.5865 25.3867 12.5331V12.4442C25.1235 12.2756 24.8894 12.0655 24.6934 11.822C24.6762 11.7923 24.6672 11.7586 24.6672 11.7242C24.6672 11.6899 24.6762 11.6562 24.6934 11.6265C24.7818 11.7914 24.9032 11.9365 25.05 12.0527C25.1968 12.1689 25.3658 12.2537 25.5467 12.302C25.5467 12.302 25.92 11.2354 25.3334 11.2354ZM23.1111 13.1198H23.0045C22.9106 13.1374 22.814 13.1337 22.7217 13.1091C22.6294 13.0845 22.5438 13.0396 22.4711 12.9776C22.5416 12.7968 22.6716 12.6455 22.8397 12.5486C23.0077 12.4516 23.2038 12.4148 23.3956 12.4442C23.4435 12.5719 23.4407 12.713 23.3878 12.8386C23.3349 12.9643 23.2359 13.0649 23.1111 13.1198ZM24.1067 13.1198C24.2606 12.754 24.4575 12.4079 24.6934 12.0887C24.4446 12.4311 24.2358 12.801 24.0711 13.1909L24.1067 13.1198ZM24.7467 12.2131C24.6562 12.507 24.6083 12.8123 24.6045 13.1198C24.5791 12.8953 24.5791 12.6687 24.6045 12.4442C24.4752 12.6597 24.3793 12.8934 24.32 13.1376C24.3925 12.83 24.5255 12.5399 24.7111 12.2842L24.7467 12.2131Z" fill="#F2F2F2"/>
<path d="M21.7067 20.48C21.7067 20.48 20.8356 21.2978 20.8 21.5822C20.7644 21.8666 21.76 22.3111 22.3822 22.1511C22.12 21.6098 21.8943 21.0515 21.7067 20.48Z" fill="#F2F2F2"/>
<defs>
<linearGradient id="paint0_linear_868_7094" x1="4.60443" y1="18.0621" x2="27.3955" y2="18.0621" gradientUnits="userSpaceOnUse">
<stop stop-color="#005BA1"/>
<stop offset="0.07" stop-color="#0060A9"/>
<stop offset="0.36" stop-color="#0071C8"/>
<stop offset="0.52" stop-color="#0078D4"/>
<stop offset="0.64" stop-color="#0074CD"/>
<stop offset="0.82" stop-color="#006ABB"/>
<stop offset="1" stop-color="#005BA1"/>
</linearGradient>
</defs>
</svg>
