<svg width="32" height="32" viewBox="0 0 32 32" fill="none" xmlns="http://www.w3.org/2000/svg">
<path d="M24 8.21354C20.0711 8.21354 16.8889 7.20021 16.8889 5.93799V18.0091C16.8889 19.2358 20.0178 20.2491 23.9111 20.2669H24C27.9289 20.2669 31.1111 19.2535 31.1111 18.0091V5.93799C31.1111 7.20021 27.9289 8.21354 24 8.21354Z" fill="url(#paint0_linear_868_7108)"/>
<path d="M31.1111 5.93795C31.1111 7.20018 27.9289 8.21351 24 8.21351C20.0711 8.21351 16.8889 7.20018 16.8889 5.93795C16.8889 4.67573 20.0711 3.68018 24 3.68018C27.9289 3.68018 31.1111 4.69351 31.1111 5.93795Z" fill="#E8E8E8"/>
<path d="M29.4578 5.75982C29.4578 6.55982 27.0045 7.19982 24 7.19982C20.9956 7.19982 18.5422 6.55982 18.5422 5.75982C18.5422 4.95982 20.9956 4.31982 24 4.31982C27.0045 4.31982 29.4578 4.95982 29.4578 5.75982Z" fill="#50E6FF"/>
<path d="M24 6.09755C22.542 6.0696 21.0874 6.24917 19.68 6.63089C21.081 7.04699 22.539 7.23899 24 7.19977C25.461 7.23899 26.919 7.04699 28.32 6.63089C26.9126 6.24917 25.458 6.0696 24 6.09755Z" fill="#32BEDD"/>
<path d="M8 8.21354C4.07111 8.21354 0.888885 7.20021 0.888885 5.93799V18.0091C0.888885 19.2358 4.01777 20.2491 8 20.2669C11.9289 20.2669 15.1111 19.2535 15.1111 18.0091V5.93799C15.1111 7.20021 11.9289 8.21354 8 8.21354Z" fill="url(#paint1_linear_868_7108)"/>
<path d="M15.1111 5.93795C15.1111 7.20018 11.9289 8.21351 8 8.21351C4.07111 8.21351 0.888885 7.20018 0.888885 5.93795C0.888885 4.67573 4.07111 3.68018 8 3.68018C11.9289 3.68018 15.1111 4.69351 15.1111 5.93795Z" fill="#E8E8E8"/>
<path d="M13.4578 5.75982C13.4578 6.55982 11.0045 7.19982 8.00001 7.19982C4.99557 7.19982 2.54224 6.55982 2.54224 5.75982C2.54224 4.95982 4.99557 4.31982 8.00001 4.31982C11.0045 4.31982 13.4578 4.95982 13.4578 5.75982Z" fill="#50E6FF"/>
<path d="M7.99999 6.09755C6.54199 6.0696 5.08742 6.24917 3.67999 6.63089C5.08102 7.04699 6.53901 7.23899 7.99999 7.19977C9.46097 7.23899 10.919 7.04699 12.32 6.63089C10.9126 6.24917 9.458 6.0696 7.99999 6.09755Z" fill="#32BEDD"/>
<path d="M16 16.2668C12.0711 16.2668 8.88889 15.2534 8.88889 13.9912V26.0623C8.88889 27.3068 12.0178 28.3023 15.9111 28.3201H16C19.9289 28.3201 23.1111 27.3068 23.1111 26.0623V13.9912C23.1111 15.2534 19.9289 16.2668 16 16.2668Z" fill="url(#paint2_linear_868_7108)"/>
<path d="M23.1111 13.9912C23.1111 15.2534 19.9289 16.2667 16 16.2667C12.0711 16.2667 8.88889 15.2534 8.88889 13.9912C8.88889 12.729 12.0711 11.7334 16 11.7334C19.9289 11.7334 23.1111 12.7467 23.1111 13.9912Z" fill="#E8E8E8"/>
<path d="M21.4578 13.8132C21.4578 14.6132 19.0044 15.2532 16 15.2532C12.9955 15.2532 10.5422 14.6132 10.5422 13.8132C10.5422 13.0132 12.9955 12.4443 16 12.4443C19.0044 12.4443 21.4578 13.0843 21.4578 13.8843" fill="#50E6FF"/>
<path d="M16 14.2224C14.542 14.1944 13.0874 14.374 11.68 14.7557C13.0849 15.1478 14.5428 15.3158 16 15.2535C17.461 15.2927 18.919 15.1007 20.32 14.6846C18.9091 14.3269 17.4546 14.1712 16 14.2224Z" fill="#32BEDD"/>
<defs>
<linearGradient id="paint0_linear_868_7108" x1="16.8889" y1="13.1024" x2="31.1111" y2="13.1024" gradientUnits="userSpaceOnUse">
<stop stop-color="#005BA1"/>
<stop offset="0.07" stop-color="#0060A9"/>
<stop offset="0.36" stop-color="#0071C8"/>
<stop offset="0.52" stop-color="#0078D4"/>
<stop offset="1" stop-color="#005BA1"/>
</linearGradient>
<linearGradient id="paint1_linear_868_7108" x1="0.888885" y1="13.1024" x2="15.1111" y2="13.1024" gradientUnits="userSpaceOnUse">
<stop stop-color="#005BA1"/>
<stop offset="0.07" stop-color="#0060A9"/>
<stop offset="0.36" stop-color="#0071C8"/>
<stop offset="0.52" stop-color="#0078D4"/>
<stop offset="1" stop-color="#005BA1"/>
</linearGradient>
<linearGradient id="paint2_linear_868_7108" x1="8.88889" y1="21.1557" x2="23.1111" y2="21.1557" gradientUnits="userSpaceOnUse">
<stop stop-color="#005BA1"/>
<stop offset="0.07" stop-color="#0060A9"/>
<stop offset="0.36" stop-color="#0071C8"/>
<stop offset="0.52" stop-color="#0078D4"/>
<stop offset="1" stop-color="#005BA1"/>
</linearGradient>
</defs>
</svg>
