<svg width="32" height="32" viewBox="0 0 32 32" fill="none" xmlns="http://www.w3.org/2000/svg">
<g clip-path="url(#clip0_868_7092)">
<path d="M23.5556 18.6309V11.6798C23.5563 11.63 23.5421 11.5812 23.5148 11.5396C23.4875 11.498 23.4484 11.4655 23.4025 11.4464C23.3565 11.4273 23.3059 11.4223 23.2572 11.4322C23.2084 11.4421 23.1637 11.4664 23.1289 11.502L16.0178 18.6131L8.62225 26.0086V31.1109H30.0978C30.2315 31.1133 30.3644 31.0887 30.4884 31.0386C30.6125 30.9886 30.7251 30.914 30.8197 30.8194C30.9143 30.7249 30.9888 30.6122 31.0389 30.4882C31.089 30.3641 31.1136 30.2313 31.1111 30.0975V11.6798C31.1119 11.63 31.0977 11.5812 31.0704 11.5396C31.0431 11.498 31.0039 11.4655 30.958 11.4464C30.9121 11.4273 30.8615 11.4223 30.8127 11.4322C30.764 11.4421 30.7193 11.4664 30.6845 11.502L23.5556 18.6309Z" fill="#005BA1"/>
<path d="M8.44445 6.36406C4.26667 6.36406 0.888895 5.1374 0.888895 3.55518V13.6352V30.0974C0.886484 30.2311 0.911048 30.364 0.96112 30.488C1.01119 30.612 1.08574 30.7247 1.18032 30.8193C1.27491 30.9139 1.38758 30.9884 1.51161 31.0385C1.63564 31.0886 1.76849 31.1131 1.90223 31.1107H16V3.55518C16 5.1374 12.6222 6.36406 8.44445 6.36406Z" fill="url(#paint0_linear_868_7092)"/>
<path d="M26.4889 23.0576H23.4489C23.174 23.0576 22.9511 23.2805 22.9511 23.5554V26.5954C22.9511 26.8703 23.174 27.0932 23.4489 27.0932H26.4889C26.7638 27.0932 26.9867 26.8703 26.9867 26.5954V23.5554C26.9867 23.2805 26.7638 23.0576 26.4889 23.0576Z" fill="white"/>
<path d="M19.4844 23.0576H16.4444C16.1695 23.0576 15.9467 23.2805 15.9467 23.5554V26.5954C15.9467 26.8703 16.1695 27.0932 16.4444 27.0932H19.4844C19.7593 27.0932 19.9822 26.8703 19.9822 26.5954V23.5554C19.9822 23.2805 19.7593 23.0576 19.4844 23.0576Z" fill="white"/>
<path d="M12.48 23.0576H9.43998C9.16506 23.0576 8.9422 23.2805 8.9422 23.5554V26.5954C8.9422 26.8703 9.16506 27.0932 9.43998 27.0932H12.48C12.7549 27.0932 12.9778 26.8703 12.9778 26.5954V23.5554C12.9778 23.2805 12.7549 23.0576 12.48 23.0576Z" fill="white"/>
<path d="M15.9999 3.55534C15.9999 5.06645 12.6221 6.29312 8.44435 6.29312C4.26657 6.29312 0.888794 5.13756 0.888794 3.55534C0.888794 1.97312 4.26657 0.888672 8.44435 0.888672C12.6221 0.888672 15.9999 2.11534 15.9999 3.55534Z" fill="#EAEAEA"/>
<path d="M14.2222 3.39534C14.2222 4.37312 11.6267 5.17312 8.42666 5.17312C5.22666 5.17312 2.6311 4.40868 2.6311 3.39534C2.6311 2.38201 5.33333 1.6709 8.44444 1.6709C11.5555 1.6709 14.2222 2.43534 14.2222 3.39534Z" fill="#50E6FF"/>
<path d="M8.44445 3.80407C6.89002 3.77335 5.34094 3.99551 3.85779 4.46185C5.33666 4.94823 6.88815 5.17675 8.44445 5.1374C10.0008 5.17675 11.5522 4.94823 13.0311 4.46185C11.548 3.99551 9.99889 3.77335 8.44445 3.80407Z" fill="#198AB3"/>
</g>
<defs>
<linearGradient id="paint0_linear_868_7092" x1="0.888895" y1="17.3685" x2="16" y2="17.3685" gradientUnits="userSpaceOnUse">
<stop stop-color="#005BA1"/>
<stop offset="0.07" stop-color="#0060A9"/>
<stop offset="0.36" stop-color="#0071C8"/>
<stop offset="0.52" stop-color="#0078D4"/>
<stop offset="0.64" stop-color="#0074CD"/>
<stop offset="0.81" stop-color="#006ABB"/>
<stop offset="0.99" stop-color="#005BA1"/>
</linearGradient>
<clipPath id="clip0_868_7092">
<rect width="32" height="32" fill="white"/>
</clipPath>
</defs>
</svg>
