<svg width="32" height="32" viewBox="0 0 32 32" fill="none" xmlns="http://www.w3.org/2000/svg">
<path d="M11.5022 9.42203C5.63557 9.42203 0.835571 7.64425 0.835571 5.58203V26.0087C0.835571 28.1065 5.51113 29.8309 11.2889 29.8487H11.4489C17.2978 29.8487 22.1156 28.0709 22.1156 26.0087V5.58203C22.0978 7.69759 17.3511 9.42203 11.5022 9.42203Z" fill="url(#paint0_linear_868_7107)"/>
<path d="M22.0978 5.58228C22.0978 7.69783 17.3511 9.42228 11.4311 9.42228C5.51113 9.42228 0.764465 7.6445 0.764465 5.58228C0.764465 3.52005 5.63558 1.77783 11.5022 1.77783C17.3689 1.77783 22.1689 3.55561 22.1689 5.63561" fill="#EAEAEA"/>
<path d="M19.5555 5.33333C19.5555 6.68444 16 7.76888 11.4311 7.76888C6.86221 7.76888 3.35999 6.61333 3.35999 5.33333C3.35999 4.05333 7.00443 2.82666 11.5022 2.82666C16 2.82666 19.5555 3.9111 19.5555 5.33333Z" fill="#50E6FF"/>
<path d="M11.5022 5.83091C9.31454 5.7758 7.13312 6.08829 5.04889 6.75535C7.13124 7.43209 9.31331 7.75069 11.5022 7.69757C13.6853 7.7497 15.8613 7.43111 17.9378 6.75535C15.8592 6.09026 13.684 5.7778 11.5022 5.83091Z" fill="#198AB3"/>
<path d="M29.7778 22.6489C29.0429 21.9602 28.1217 21.5028 27.1289 21.3334C27.0641 19.818 26.4043 18.3894 25.2926 17.3575C24.1809 16.3257 22.7071 15.7741 21.1911 15.8222C19.9605 15.7986 18.7527 16.1568 17.734 16.8476C16.7152 17.5384 15.9356 18.5279 15.5022 19.68C14.2056 19.8241 13.0038 20.4294 12.1162 21.3856C11.2286 22.3418 10.7141 23.5851 10.6667 24.8889C10.7223 26.354 11.3557 27.7374 12.4284 28.7368C13.5011 29.7362 14.9258 30.2703 16.3911 30.2222H16.9067H26.2045H26.4356C27.6298 30.214 28.7749 29.7455 29.6325 28.9144C30.4902 28.0833 30.9943 26.9534 31.04 25.76C31.0333 25.1819 30.912 24.6108 30.6831 24.0798C30.4543 23.5489 30.1224 23.0686 29.7067 22.6667" fill="url(#paint1_linear_868_7107)"/>
<path d="M25.4222 28.0888H23.7511V23.5911C23.7511 23.117 23.7511 22.5837 23.7511 21.9911C23.7511 22.4355 23.5733 22.7733 23.52 22.9866L21.7422 28.0888H20.3556L18.5778 23.0222C18.4786 22.6838 18.4014 22.3394 18.3467 21.9911C18.3467 22.72 18.3467 23.3777 18.3467 23.9288V28.0888H16.8533V20.5688H19.3422L20.8711 25.0311C20.9933 25.3775 21.0826 25.7346 21.1378 26.0977C21.2267 25.6888 21.3333 25.3155 21.4222 25.0133L22.9689 20.5688H25.4222V28.0888Z" fill="white"/>
<defs>
<linearGradient id="paint0_linear_868_7107" x1="0.888905" y1="17.7065" x2="22.0978" y2="17.7065" gradientUnits="userSpaceOnUse">
<stop stop-color="#005BA1"/>
<stop offset="0.07" stop-color="#0060A9"/>
<stop offset="0.36" stop-color="#0071C8"/>
<stop offset="0.52" stop-color="#0078D4"/>
<stop offset="0.64" stop-color="#0074CD"/>
<stop offset="0.82" stop-color="#006ABB"/>
<stop offset="1" stop-color="#005BA1"/>
</linearGradient>
<linearGradient id="paint1_linear_868_7107" x1="20.9245" y1="30.2756" x2="20.9245" y2="15.8222" gradientUnits="userSpaceOnUse">
<stop stop-color="#198AB3"/>
<stop offset="0.11" stop-color="#22A5CB"/>
<stop offset="0.23" stop-color="#29BADE"/>
<stop offset="0.37" stop-color="#2EC9EB"/>
<stop offset="0.53" stop-color="#31D1F3"/>
<stop offset="0.78" stop-color="#32D4F5"/>
</linearGradient>
</defs>
</svg>
