<svg width="32" height="32" viewBox="0 0 32 32" fill="none" xmlns="http://www.w3.org/2000/svg">
<g clip-path="url(#clip0_868_7089)">
<path d="M15.2295 0.324228L0.320529 15.2332C-0.102973 15.6567 -0.102973 16.3433 0.320529 16.7668L15.2295 31.6758C15.653 32.0993 16.3396 32.0993 16.7631 31.6758L31.6721 16.7668C32.0956 16.3433 32.0956 15.6567 31.6721 15.2332L16.7631 0.324228C16.3396 -0.0992739 15.653 -0.0992731 15.2295 0.324228Z" fill="url(#paint0_linear_868_7089)"/>
<path d="M16 6.06225C14.3111 6.06225 12.96 5.63558 12.96 5.08447V10.2578C12.96 10.7734 14.2934 11.2178 15.9467 11.2178H16C17.6711 11.2178 19.04 10.7911 19.04 10.2578V5.08447C19.0578 5.63558 17.7778 6.06225 16 6.06225Z" fill="#50E6FF"/>
<path d="M19.0578 5.08451C19.0578 5.63562 17.6889 6.06229 16.0178 6.06229C14.3467 6.06229 12.9778 5.63562 12.9778 5.08451C12.9778 4.5334 14.3289 4.12451 16 4.12451C17.6711 4.12451 19.04 4.55118 19.04 5.08451" fill="#EAEAEA"/>
<path d="M18.3467 5.01334C18.3467 5.35111 17.2978 5.63556 16.0178 5.63556C14.7378 5.63556 13.6889 5.33334 13.6889 5.01334C13.6889 4.69334 14.72 4.39111 16 4.39111C17.28 4.39111 18.3289 4.67556 18.3289 5.01334" fill="#50E6FF"/>
<path d="M16 5.15538C15.402 5.13052 14.8035 5.19037 14.2222 5.33316C14.7998 5.50113 15.3985 5.58495 16 5.58205C16.6015 5.58495 17.2002 5.50113 17.7778 5.33316C17.1963 5.19153 16.598 5.13169 16 5.15538Z" fill="#32BEDD"/>
<path d="M16 22.7913C14.3111 22.7913 12.96 22.3646 12.96 21.8135V26.9868C12.96 27.5024 14.2934 27.9468 15.9467 27.9468H16C17.6711 27.9468 19.04 27.5201 19.04 26.9868V21.8135C19.0578 22.3646 17.7778 22.7913 16 22.7913Z" fill="#50E6FF"/>
<path d="M19.0578 21.8135C19.0578 22.3646 17.6889 22.7913 16.0178 22.7913C14.3467 22.7913 12.9778 22.3646 12.9778 21.8135C12.9778 21.2624 14.3289 20.8535 16.0178 20.8535C17.7067 20.8535 19.0578 21.2802 19.0578 21.8135Z" fill="#EAEAEA"/>
<path d="M18.3467 21.7423C18.3467 22.0801 17.2978 22.3646 16.0178 22.3646C14.7378 22.3646 13.6889 22.0801 13.6889 21.7423C13.6889 21.4046 14.72 21.1201 16.0178 21.1201C17.3156 21.1201 18.3467 21.4046 18.3467 21.7423Z" fill="#50E6FF"/>
<path d="M16 21.8843C15.3995 21.8768 14.8009 21.9546 14.2222 22.1154C14.7998 22.2834 15.3985 22.3672 16 22.3643C16.6015 22.3672 17.2002 22.2834 17.7778 22.1154C17.1989 21.9558 16.6005 21.878 16 21.8843Z" fill="#32BEDD"/>
<path d="M23.5022 14.3824C21.7244 14.3824 20.4622 13.9557 20.4622 13.4224V18.5779C20.4622 19.1113 21.7956 19.5379 23.4667 19.5557C25.1378 19.5557 26.5067 19.1113 26.5067 18.5779V13.4224C26.5422 13.9557 25.1733 14.3824 23.5022 14.3824Z" fill="#50E6FF"/>
<path d="M26.5422 13.4221C26.5422 13.9554 25.1733 14.3821 23.5022 14.3821C21.8311 14.3821 20.4622 13.9554 20.4622 13.4221C20.4622 12.8888 21.8133 12.4443 23.5022 12.4443C25.1911 12.4443 26.5422 12.8888 26.5422 13.4221Z" fill="#EAEAEA"/>
<path d="M25.8311 13.3334C25.8311 13.689 24.7822 13.9557 23.5022 13.9557C22.2222 13.9557 21.1733 13.689 21.1733 13.3334C21.1733 12.9779 22.2045 12.729 23.5022 12.729C24.8 12.729 25.8311 12.9957 25.8311 13.3334Z" fill="#50E6FF"/>
<path d="M23.5022 13.4757C22.9007 13.4728 22.302 13.5566 21.7244 13.7245C22.3031 13.8853 22.9017 13.9631 23.5022 13.9557C24.1027 13.9631 24.7013 13.8853 25.28 13.7245C24.7022 13.5578 24.1036 13.474 23.5022 13.4757Z" fill="#32BEDD"/>
<path d="M8.74667 14.3824C7.05778 14.3824 5.70667 13.9557 5.70667 13.4224V18.5779C5.70667 19.1113 7.04 19.5379 8.69333 19.5557C10.3644 19.5557 11.7333 19.1113 11.7333 18.5779V13.4224C11.7867 13.9557 10.4178 14.3824 8.74667 14.3824Z" fill="#50E6FF"/>
<path d="M11.7867 13.4221C11.7867 13.9554 10.4178 14.3821 8.74667 14.3821C7.07555 14.3821 5.70667 13.9554 5.70667 13.4221C5.70667 12.8888 7.11111 12.4443 8.74667 12.4443C10.3822 12.4443 11.7867 12.8888 11.7867 13.4221Z" fill="#EAEAEA"/>
<path d="M11.0756 13.3334C11.0756 13.689 10.0267 13.9557 8.74667 13.9557C7.46667 13.9557 6.41779 13.689 6.41779 13.3334C6.41779 12.9779 7.4489 12.729 8.74667 12.729C10.0445 12.729 11.0756 12.9957 11.0756 13.3334Z" fill="#50E6FF"/>
<path d="M8.74665 13.4757C8.14518 13.4728 7.54642 13.5566 6.96887 13.7245C7.54754 13.8853 8.14611 13.9631 8.74665 13.9557C9.34719 13.9631 9.94576 13.8853 10.5244 13.7245C9.94662 13.5578 9.34804 13.474 8.74665 13.4757Z" fill="#32BEDD"/>
</g>
<defs>
<linearGradient id="paint0_linear_868_7089" x1="43.5992" y1="92.326" x2="43.5992" y2="60.6477" gradientUnits="userSpaceOnUse">
<stop stop-color="#005BA1"/>
<stop offset="0.1" stop-color="#0060A9"/>
<stop offset="0.52" stop-color="#0071C8"/>
<stop offset="0.75" stop-color="#0078D4"/>
</linearGradient>
<clipPath id="clip0_868_7089">
<rect width="32" height="32" fill="white"/>
</clipPath>
</defs>
</svg>
