<svg width="32" height="32" viewBox="0 0 32 32" fill="none" xmlns="http://www.w3.org/2000/svg">
<path d="M16 9.13763C9.70665 9.13763 4.60443 7.35985 4.60443 5.01318V26.9865C4.60443 29.2443 9.61776 31.0754 15.84 31.111H16C22.2933 31.111 27.3955 29.3332 27.3955 26.9865V5.01318C27.3955 7.30652 22.2933 9.13763 16 9.13763Z" fill="url(#paint0_linear_868_7105)"/>
<path d="M27.3955 5.01312C27.3955 7.30645 22.2933 9.13756 16 9.13756C9.70665 9.13756 4.60443 7.35978 4.60443 5.01312C4.60443 2.66645 9.70665 0.888672 16 0.888672C22.2933 0.888672 27.3955 2.66645 27.3955 5.01312Z" fill="#E8E8E8"/>
<path d="M24.7467 4.67535C24.7467 6.13312 20.8178 7.30646 16 7.30646C11.1822 7.30646 7.25333 6.13312 7.25333 4.67535C7.25333 3.21757 11.1822 2.06201 16 2.06201C20.8178 2.06201 24.7467 3.23535 24.7467 4.67535Z" fill="#50E6FF"/>
<path d="M16 5.33345C13.6538 5.27353 11.3148 5.61627 9.08444 6.34679C11.3169 7.06373 13.6567 7.38853 16 7.30679C18.3481 7.37557 20.6897 7.02643 22.9156 6.27567C20.6789 5.57895 18.3416 5.26049 16 5.33345Z" fill="#198AB3"/>
<path d="M22.9333 20.2669V14.2224H21.3333V21.5646H25.7067V20.2669H22.9333ZM10.24 17.298C9.90967 17.1651 9.60337 16.9789 9.33334 16.7469C9.26164 16.6711 9.20582 16.5817 9.16919 16.484C9.13255 16.3863 9.11583 16.2822 9.12001 16.178C9.11456 16.0736 9.13626 15.9696 9.183 15.8761C9.22974 15.7827 9.29991 15.7029 9.38668 15.6446C9.60533 15.4933 9.86776 15.4184 10.1333 15.4313C10.7665 15.4028 11.3914 15.5841 11.9111 15.9469V14.418C11.3431 14.2066 10.7389 14.11 10.1333 14.1335C9.43587 14.0964 8.74824 14.3109 8.19556 14.738C7.95467 14.9237 7.76136 15.164 7.63154 15.4391C7.50172 15.7142 7.43912 16.0162 7.4489 16.3202C7.4489 17.2269 8.01779 17.938 9.22668 18.4713C9.61931 18.6379 9.98958 18.8529 10.3289 19.1113C10.412 19.1811 10.4789 19.2681 10.525 19.3663C10.571 19.4646 10.5951 19.5717 10.5956 19.6802C10.5956 19.7881 10.5698 19.8944 10.5203 19.9903C10.4708 20.0862 10.3991 20.1688 10.3111 20.2313C10.0692 20.373 9.79114 20.4409 9.51112 20.4269C8.79606 20.421 8.10747 20.1556 7.57334 19.6802V21.3335C8.16043 21.6363 8.81542 21.7832 9.47556 21.7602C10.2207 21.8044 10.9592 21.5979 11.5733 21.1735C11.7902 20.9681 11.9562 20.7149 12.0581 20.434C12.1599 20.1532 12.1948 19.8525 12.16 19.5557C12.1686 19.1006 12.0105 18.658 11.7156 18.3113C11.3002 17.8738 10.7975 17.5286 10.24 17.298ZM19.5556 20.1246C19.9592 19.4485 20.1626 18.6718 20.1422 17.8846C20.1021 17.2183 19.9007 16.5716 19.5556 16.0002C19.278 15.445 18.8458 14.982 18.3111 14.6669C17.7692 14.3597 17.1562 14.2003 16.5333 14.2046C15.8619 14.1899 15.1988 14.3556 14.6133 14.6846C14.0645 14.9909 13.6143 15.4472 13.3156 16.0002C13.0008 16.6288 12.8423 17.324 12.8533 18.0269C12.8571 18.6444 13.0031 19.2527 13.28 19.8046C13.5513 20.3538 13.9778 20.8112 14.5067 21.1202C15.0436 21.4477 15.6559 21.6314 16.2845 21.6535L17.8133 23.4313H19.9645L17.7778 21.4757C18.5141 21.2549 19.1456 20.775 19.5556 20.1246ZM17.7778 19.6802C17.6159 19.8812 17.4097 20.042 17.1753 20.1499C16.9409 20.2579 16.6846 20.3101 16.4267 20.3024C16.1668 20.3108 15.9087 20.2571 15.6737 20.1458C15.4387 20.0345 15.2337 19.8688 15.0756 19.6624C14.6998 19.149 14.5172 18.5194 14.56 17.8846C14.5187 17.25 14.7012 16.621 15.0756 16.1069C15.2429 15.9006 15.4543 15.7344 15.6943 15.6206C15.9342 15.5068 16.1966 15.4482 16.4622 15.4491C16.7218 15.4379 16.9801 15.4923 17.2131 15.6072C17.4462 15.7222 17.6465 15.894 17.7956 16.1069C18.1458 16.6309 18.3144 17.2555 18.2756 17.8846C18.3376 18.5241 18.1602 19.1639 17.7778 19.6802Z" fill="url(#paint1_radial_868_7105)"/>
<defs>
<linearGradient id="paint0_linear_868_7105" x1="4.60443" y1="18.0621" x2="27.3955" y2="18.0621" gradientUnits="userSpaceOnUse">
<stop stop-color="#005BA1"/>
<stop offset="0.07" stop-color="#0060A9"/>
<stop offset="0.36" stop-color="#0071C8"/>
<stop offset="0.52" stop-color="#0078D4"/>
<stop offset="0.64" stop-color="#0074CD"/>
<stop offset="0.82" stop-color="#006ABB"/>
<stop offset="1" stop-color="#005BA1"/>
</linearGradient>
<radialGradient id="paint1_radial_868_7105" cx="0" cy="0" r="1" gradientUnits="userSpaceOnUse" gradientTransform="translate(16.64 18.7913) scale(12.5689 12.5689)">
<stop stop-color="#F2F2F2"/>
<stop offset="0.58" stop-color="#EEEEEE"/>
<stop offset="1" stop-color="#E6E6E6"/>
</radialGradient>
</defs>
</svg>
