<svg width="32" height="32" viewBox="0 0 32 32" fill="none" xmlns="http://www.w3.org/2000/svg">
<path d="M18.3467 29.7957C18.3421 30.0631 18.2339 30.3182 18.0448 30.5072C17.8558 30.6963 17.6007 30.8045 17.3333 30.8091H1.90223C1.63348 30.8091 1.37573 30.7023 1.18569 30.5123C0.995656 30.3222 0.888895 30.0645 0.888895 29.7957V2.09797C0.886484 1.96423 0.911048 1.83138 0.96112 1.70735C1.01119 1.58332 1.08574 1.47065 1.18032 1.37606C1.27491 1.28148 1.38758 1.20693 1.51161 1.15686C1.63564 1.10679 1.76849 1.08222 1.90223 1.08463H17.3333C17.6021 1.08463 17.8598 1.1914 18.0499 1.38143C18.2399 1.57147 18.3467 1.82921 18.3467 2.09797V29.7957Z" fill="url(#paint0_linear_868_7104)"/>
<path d="M3.44891 11.5024C3.45355 11.004 3.65358 10.5274 4.00598 10.175C4.35838 9.8226 4.83501 9.62257 5.33336 9.61794H14.0445C14.2972 9.61084 14.5489 9.65421 14.7847 9.7455C15.0205 9.8368 15.2357 9.9742 15.4178 10.1497C15.5999 10.3251 15.7452 10.5351 15.8451 10.7674C15.9451 10.9997 15.9978 11.2495 16 11.5024C16.0001 11.7567 15.9492 12.0085 15.8503 12.2429C15.7514 12.4772 15.6065 12.6893 15.4242 12.8667C15.2418 13.044 15.0258 13.183 14.7888 13.2754C14.5518 13.3678 14.2987 13.4117 14.0445 13.4046H5.33336C4.83194 13.3999 4.35266 13.1974 3.99976 12.8412C3.64686 12.485 3.44889 12.0038 3.44891 11.5024Z" fill="#003067"/>
<path d="M3.44891 5.88442C3.44889 5.38298 3.64686 4.90182 3.99976 4.54559C4.35266 4.18936 4.83194 3.98688 5.33336 3.98219H14.0445C14.2987 3.97506 14.5518 4.01899 14.7888 4.11139C15.0258 4.20379 15.2418 4.34278 15.4242 4.52013C15.6065 4.69748 15.7514 4.9096 15.8503 5.14393C15.9492 5.37827 16.0001 5.63006 16 5.88442C15.9978 6.13727 15.9451 6.38714 15.8451 6.6194C15.7452 6.85167 15.5999 7.06167 15.4178 7.23714C15.2357 7.4126 15.0205 7.54999 14.7847 7.64129C14.5489 7.73259 14.2972 7.77596 14.0445 7.76886H5.33336C4.83501 7.76422 4.35838 7.5642 4.00598 7.21179C3.65358 6.85939 3.45355 6.38277 3.44891 5.88442Z" fill="#003067"/>
<path d="M5.43997 7.16449C6.1469 7.16449 6.71997 6.59142 6.71997 5.88449C6.71997 5.17757 6.1469 4.60449 5.43997 4.60449C4.73305 4.60449 4.15997 5.17757 4.15997 5.88449C4.15997 6.59142 4.73305 7.16449 5.43997 7.16449Z" fill="#50E6FF"/>
<path d="M5.43997 12.7822C6.1469 12.7822 6.71997 12.2091 6.71997 11.5022C6.71997 10.7952 6.1469 10.2222 5.43997 10.2222C4.73305 10.2222 4.15997 10.7952 4.15997 11.5022C4.15997 12.2091 4.73305 12.7822 5.43997 12.7822Z" fill="#50E6FF"/>
<path d="M31.1111 25.0313C31.0649 23.6195 30.5198 22.2698 29.5727 21.2218C28.6256 20.1738 27.3377 19.4953 25.9378 19.3069C25.8364 17.3451 24.9696 15.5014 23.5236 14.1717C22.0776 12.8421 20.1678 12.1326 18.2044 12.1958C16.6173 12.1578 15.0574 12.6126 13.7393 13.4977C12.4213 14.3827 11.4099 15.6545 10.8444 17.138C9.15501 17.3414 7.59452 18.1439 6.4463 19.3998C5.29809 20.6556 4.63828 22.2816 4.58667 23.9824C4.66075 25.8908 5.48816 27.6921 6.88767 28.9916C8.28718 30.2912 10.1447 30.9831 12.0533 30.9158H12.7111H24.8889H25.1911C26.7466 30.8887 28.2314 30.2611 29.3347 29.1643C30.4381 28.0676 31.0746 26.5866 31.1111 25.0313Z" fill="url(#paint1_linear_868_7104)"/>
<path d="M24.1956 25.689V19.7157H22.5422V27.0401H26.8978V25.689H24.1956ZM11.5733 22.7557C11.2478 22.6134 10.9428 22.4281 10.6667 22.2046C10.595 22.1288 10.5392 22.0394 10.5025 21.9417C10.4659 21.844 10.4492 21.7399 10.4533 21.6357C10.4479 21.5313 10.4696 21.4273 10.5163 21.3338C10.5631 21.2404 10.6332 21.1606 10.72 21.1023C10.9375 20.9485 11.2008 20.8733 11.4667 20.889C12.0992 20.8658 12.7225 21.0465 13.2445 21.4046V19.8757C12.6721 19.683 12.0703 19.5927 11.4667 19.609C10.7723 19.5745 10.0875 19.7818 9.5289 20.1957C9.29339 20.3851 9.10501 20.6266 8.97854 20.9011C8.85207 21.1757 8.79096 21.4758 8.80001 21.7779C8.82878 22.2612 9.00412 22.7242 9.30267 23.1053C9.60121 23.4865 10.0088 23.7676 10.4711 23.9112C10.861 24.0722 11.2262 24.2877 11.5556 24.5512C11.6387 24.621 11.7056 24.708 11.7516 24.8063C11.7977 24.9045 11.8218 25.0116 11.8222 25.1201C11.8277 25.2245 11.806 25.3285 11.7592 25.422C11.7125 25.5154 11.6423 25.5952 11.5556 25.6535C11.3183 25.8077 11.0381 25.8824 10.7556 25.8668C10.0457 25.8615 9.36251 25.5958 8.83557 25.1201V26.7557C9.40489 27.0352 10.0325 27.1754 10.6667 27.1646C11.3837 27.2193 12.0995 27.045 12.7111 26.6668C12.9615 26.4805 13.1621 26.2355 13.2954 25.9534C13.4287 25.6713 13.4906 25.3607 13.4756 25.049C13.4928 24.5925 13.3337 24.1469 13.0311 23.8046C12.6266 23.3538 12.1293 22.996 11.5733 22.7557ZM20.7467 25.5646C21.1476 24.8873 21.3508 24.1114 21.3333 23.3246C21.3574 22.6338 21.2044 21.9484 20.8889 21.3335C20.6167 20.7849 20.1904 20.3277 19.6622 20.0179C19.0913 19.6867 18.4372 19.5262 17.7778 19.5557C17.1526 19.5835 16.5431 19.7602 16 20.0712C15.4443 20.3927 14.9936 20.8681 14.7022 21.4401C14.3852 22.0686 14.2208 22.7629 14.2222 23.4668C14.2119 24.1143 14.3583 24.7547 14.6489 25.3335C14.9243 25.8741 15.3423 26.329 15.8578 26.649C16.3945 26.9748 17.0078 27.1527 17.6356 27.1646L19.1467 28.9423H21.28L19.1645 26.9868C19.8371 26.7046 20.3947 26.2034 20.7467 25.5646ZM19.0933 25.1201C18.9334 25.3233 18.7275 25.4856 18.4926 25.5937C18.2578 25.7019 18.0006 25.7528 17.7422 25.7423C17.4851 25.7493 17.23 25.6949 16.9981 25.5836C16.7663 25.4723 16.5643 25.3073 16.4089 25.1023C16.0366 24.5879 15.8601 23.9575 15.9111 23.3246C15.8586 22.6888 16.0422 22.0559 16.4267 21.5468C16.5847 21.3346 16.7917 21.1639 17.0301 21.0494C17.2686 20.9348 17.5312 20.8798 17.7956 20.889C18.0525 20.8792 18.3077 20.9343 18.5376 21.0493C18.7676 21.1643 18.9648 21.3354 19.1111 21.5468C19.4779 22.0639 19.6538 22.6922 19.6089 23.3246C19.6641 23.9662 19.4806 24.6056 19.0933 25.1201Z" fill="#F2F2F2"/>
<defs>
<linearGradient id="paint0_linear_868_7104" x1="9.61778" y1="30.8091" x2="9.61778" y2="1.08464" gradientUnits="userSpaceOnUse">
<stop stop-color="#949494"/>
<stop offset="0.53" stop-color="#A2A2A2"/>
<stop offset="1" stop-color="#B3B3B3"/>
</linearGradient>
<linearGradient id="paint1_linear_868_7104" x1="17.8489" y1="30.9158" x2="17.8489" y2="12.1247" gradientUnits="userSpaceOnUse">
<stop stop-color="#0078D4"/>
<stop offset="0.16" stop-color="#1380DA"/>
<stop offset="0.53" stop-color="#3C91E5"/>
<stop offset="0.82" stop-color="#559CEC"/>
<stop offset="1" stop-color="#5EA0EF"/>
</linearGradient>
</defs>
</svg>
