<svg width="32" height="32" viewBox="0 0 32 32" fill="none" xmlns="http://www.w3.org/2000/svg">
<g clip-path="url(#clip0_868_7088)">
<path d="M12.16 9.04885C5.93781 9.04885 0.888916 7.27107 0.888916 4.95996V26.6666C0.888916 28.9066 5.84892 30.72 12 30.7555H12.16C18.3822 30.7555 23.4311 28.9777 23.4311 26.6666V4.95996C23.4311 7.21774 18.3822 9.04885 12.16 9.04885Z" fill="url(#paint0_linear_868_7088)"/>
<path d="M23.4311 4.95998C23.4311 7.21776 18.3822 9.04887 12.16 9.04887C5.93781 9.04887 0.888916 7.21776 0.888916 4.95998C0.888916 2.7022 5.93781 0.871094 12.16 0.871094C18.3822 0.871094 23.4311 2.64887 23.4311 4.95998Z" fill="#E8E8E8"/>
<path d="M20.8 4.62241C20.8 6.06241 16.9244 7.21797 12.16 7.21797C7.39554 7.21797 3.55554 6.06241 3.55554 4.62241C3.55554 3.18241 7.39554 2.02686 12.16 2.02686C16.9244 2.02686 20.8 3.20019 20.8 4.62241Z" fill="#50E6FF"/>
<path d="M12.16 5.22668C9.84646 5.18021 7.54078 5.51045 5.33331 6.20446C7.5386 6.93731 9.85473 7.28022 12.1778 7.21779C14.5008 7.28022 16.8169 6.93731 19.0222 6.20446C16.8034 5.50662 14.4854 5.17633 12.16 5.22668Z" fill="#198AB3"/>
<path d="M19.0934 19.7332V13.7243H17.44V21.0843H21.8134V19.7332H19.0934ZM6.38224 16.7643C6.05314 16.629 5.74722 16.443 5.47557 16.2132C5.35619 16.0492 5.3052 15.8452 5.33335 15.6443C5.3333 15.5364 5.3591 15.43 5.40859 15.3342C5.45808 15.2383 5.52982 15.1556 5.61779 15.0932C5.84063 14.9527 6.10138 14.8844 6.36446 14.8976C6.99685 14.8756 7.61973 15.0563 8.14224 15.4132V13.8843C7.57322 13.6769 6.96977 13.5804 6.36446 13.5998C5.60083 13.5358 4.84062 13.7576 4.23113 14.2221C3.99628 14.416 3.80862 14.6609 3.68235 14.9381C3.55607 15.2153 3.49448 15.5176 3.50224 15.8221C3.50224 16.7287 4.07113 17.4398 5.28002 17.9732C5.66629 18.1414 6.03049 18.3563 6.36446 18.6132C6.45278 18.6794 6.52446 18.7653 6.57383 18.864C6.6232 18.9628 6.64891 19.0717 6.64891 19.1821C6.64895 19.29 6.62315 19.3963 6.57366 19.4922C6.52417 19.5881 6.45244 19.6707 6.36446 19.7332C6.12719 19.8874 5.84701 19.9621 5.56446 19.9465C4.81563 19.9547 4.09378 19.6672 3.55557 19.1465V20.7998C4.14728 21.0879 4.79999 21.2282 5.45779 21.2087C6.19929 21.2427 6.93284 21.0438 7.55557 20.6398C7.80504 20.4487 8.00476 20.2003 8.13783 19.9156C8.2709 19.6309 8.33339 19.3183 8.32002 19.0043C8.33726 18.5478 8.17811 18.1021 7.87557 17.7598C7.45332 17.3267 6.94447 16.9875 6.38224 16.7643ZM15.6267 19.5554C16.0282 18.8719 16.2313 18.0901 16.2133 17.2976C16.2283 16.6191 16.0757 15.9474 15.7689 15.3421C15.4914 14.7869 15.0592 14.3238 14.5245 14.0087C13.9826 13.7016 13.3695 13.5422 12.7467 13.5465C12.0699 13.5345 11.4018 13.7 10.8089 14.0265C10.2532 14.3479 9.80248 14.8234 9.51113 15.3954C9.19016 16.0281 9.03133 16.7306 9.04891 17.4398C9.03861 18.0874 9.18499 18.7278 9.47557 19.3065C9.74514 19.8558 10.1641 20.3179 10.6845 20.6398C11.2211 20.9656 11.8345 21.1435 12.4622 21.1554L13.9733 22.9332H16.0889L13.9556 20.9598C14.6592 20.7007 15.2503 20.204 15.6267 19.5554ZM13.9733 19.0932C13.8065 19.2914 13.5983 19.4507 13.3634 19.5601C13.1284 19.6694 12.8725 19.726 12.6133 19.726C12.3542 19.726 12.0983 19.6694 11.8633 19.5601C11.6284 19.4507 11.4202 19.2914 11.2533 19.0932C10.8825 18.5781 10.7061 17.9482 10.7556 17.3154C10.7064 16.6799 10.8896 16.0482 11.2711 15.5376C11.4308 15.3229 11.6408 15.1507 11.8825 15.036C12.1243 14.9213 12.3905 14.8677 12.6578 14.8798C12.9169 14.8719 13.174 14.9277 13.4065 15.0424C13.639 15.1571 13.8398 15.3271 13.9911 15.5376C14.3414 16.0617 14.51 16.6862 14.4711 17.3154C14.5423 17.9667 14.3644 18.6208 13.9733 19.1465V19.0932Z" fill="#F2F2F2"/>
<path d="M26.3289 31.0932L26.7556 29.6888L27.5911 29.2088L29.0311 29.8488L29.9556 28.9065V28.7999L29.2978 27.5376L29.6889 26.6488L31.1289 26.1332H31.2889V24.8354H31.1111L29.6889 24.4088L29.2267 23.591L29.8489 22.1332L28.9067 21.2265H28.8L27.5378 21.8665L26.6667 21.3332L26.0978 19.751H24.7822V19.9465L24.3556 21.351L23.4489 21.7421L21.9022 21.031L20.9956 21.9732L21.0844 22.151L21.76 23.4665L21.4044 24.3732L19.7333 24.8888V26.2043H19.9289L21.3333 26.631L21.7244 27.5376L21.0311 29.0665L21.9733 29.991L22.1333 29.9021L23.4489 29.2265L24.3556 29.5821L24.96 31.1643H26.2578L26.3289 31.0932ZM24.1956 26.8976C23.8372 26.5464 23.6331 26.0672 23.6281 25.5654C23.6231 25.0636 23.8176 24.5804 24.1689 24.2221C24.5202 23.8638 24.9994 23.6596 25.5011 23.6546C26.0029 23.6496 26.4861 23.8442 26.8444 24.1954C27.0219 24.3693 27.1633 24.5765 27.2607 24.8051C27.358 25.0337 27.4094 25.2792 27.4119 25.5277C27.4144 25.7761 27.3679 26.0226 27.2751 26.2531C27.1823 26.4836 27.045 26.6935 26.8711 26.871C26.6972 27.0484 26.49 27.1898 26.2614 27.2872C26.0328 27.3846 25.7873 27.436 25.5389 27.4384C25.2904 27.4409 25.0439 27.3944 24.8134 27.3016C24.5829 27.2088 24.373 27.0716 24.1956 26.8976Z" fill="#949494"/>
</g>
<defs>
<linearGradient id="paint0_linear_868_7088" x1="0.888916" y1="17.8488" x2="23.4311" y2="17.8488" gradientUnits="userSpaceOnUse">
<stop stop-color="#005BA1"/>
<stop offset="0.07" stop-color="#0060A9"/>
<stop offset="0.36" stop-color="#0071C8"/>
<stop offset="0.52" stop-color="#0078D4"/>
<stop offset="0.64" stop-color="#0074CD"/>
<stop offset="0.82" stop-color="#006ABB"/>
<stop offset="1" stop-color="#005BA1"/>
</linearGradient>
<clipPath id="clip0_868_7088">
<rect width="32" height="32" fill="white"/>
</clipPath>
</defs>
</svg>
