<svg width="32" height="32" viewBox="0 0 32 32" fill="none" xmlns="http://www.w3.org/2000/svg">
<path d="M13.1022 0.888672L1.20889 7.78645V9.49312H3.39556V22.4353H5.54667V9.49312H20.6578V23.5198H22.8089V9.49312H24.9956V7.78645L13.1022 0.888672Z" fill="url(#paint0_linear_868_7090)"/>
<path d="M7.69778 22.4352H12.0178V18.1329H7.69778V22.4352ZM14.1689 22.4352H18.4889V18.1329H14.2222L14.1689 22.4352ZM7.69778 15.9996H12.0178V11.644H7.69778V15.9996ZM14.2222 11.644V15.9996H18.4889V11.644H14.2222Z" fill="#50E6FF"/>
<path d="M23.36 18.5065C19.2533 18.5065 16 17.4399 16 16.1421V28.7465C16 30.0443 19.2711 31.0932 23.3244 31.111H23.4311C27.5378 31.111 30.8622 30.0443 30.8622 28.7465V16.1421C30.7911 17.4399 27.4667 18.5065 23.36 18.5065Z" fill="url(#paint1_linear_868_7090)"/>
<path d="M30.7911 16.1418C30.7911 17.4396 27.4667 18.5062 23.36 18.5062C19.2533 18.5062 16 17.4396 16 16.1418C16 14.844 19.3244 13.7773 23.4311 13.7773C27.5378 13.7773 30.8622 14.8262 30.8622 16.1418" fill="#E8E8E8"/>
<path d="M29.0667 15.9999C29.0667 16.8354 26.5067 17.511 23.36 17.511C20.2133 17.511 17.6711 16.7821 17.6711 15.9999C17.6711 15.2177 20.2133 14.4888 23.36 14.4888C26.5067 14.4888 29.0667 15.1643 29.0667 15.9999Z" fill="#50E6FF"/>
<path d="M23.36 16.3019C21.8349 16.2649 20.3128 16.4566 18.8445 16.8707C20.3114 17.2933 21.8338 17.4911 23.36 17.4574C24.8862 17.4911 26.4087 17.2933 27.8756 16.8707C26.4072 16.4566 24.8852 16.2649 23.36 16.3019Z" fill="#32BEDD"/>
<defs>
<linearGradient id="paint0_linear_868_7090" x1="13.1022" y1="0.888672" x2="13.1022" y2="23.5198" gradientUnits="userSpaceOnUse">
<stop stop-color="#B3B2B3"/>
<stop offset="0.38" stop-color="#AFAEAF"/>
<stop offset="0.76" stop-color="#A2A2A2"/>
<stop offset="1" stop-color="#979797"/>
</linearGradient>
<linearGradient id="paint1_linear_868_7090" x1="15.9289" y1="23.6265" x2="30.7911" y2="23.6265" gradientUnits="userSpaceOnUse">
<stop stop-color="#005BA1"/>
<stop offset="0.07" stop-color="#0060A9"/>
<stop offset="0.36" stop-color="#0071C8"/>
<stop offset="0.52" stop-color="#0078D4"/>
<stop offset="0.64" stop-color="#0074CD"/>
<stop offset="0.82" stop-color="#006ABB"/>
<stop offset="1" stop-color="#005BA1"/>
</linearGradient>
</defs>
</svg>
