<svg width="32" height="32" viewBox="0 0 32 32" fill="none" xmlns="http://www.w3.org/2000/svg">
<path d="M11.1289 9.74252C5.33334 9.74252 0.711121 8.05363 0.711121 5.97363V26.027C0.711121 28.0892 5.33334 29.7781 10.9867 29.7959H11.1289C16.8711 29.7959 21.5289 28.0181 21.5289 26.027V5.97363C21.5289 8.05363 16.8711 9.74252 11.1289 9.74252Z" fill="url(#paint0_linear_868_7086)"/>
<path d="M21.5289 5.97348C21.5289 8.05348 16.8711 9.74237 11.1289 9.74237C5.38668 9.74237 0.711121 8.05348 0.711121 5.97348C0.711121 3.89348 5.33334 2.20459 11.1289 2.20459C16.9245 2.20459 21.5289 3.98237 21.5289 5.97348Z" fill="#E8E8E8"/>
<path d="M19.1111 5.67148C19.1111 6.98704 15.5556 8.07148 11.1289 8.07148C6.70222 8.07148 3.14667 6.98704 3.14667 5.67148C3.14667 4.35593 6.70222 3.27148 11.1289 3.27148C15.5556 3.27148 19.1111 4.33815 19.1111 5.67148Z" fill="#50E6FF"/>
<path d="M11.1289 6.22229C8.98465 6.16724 6.8461 6.4676 4.79999 7.11118C6.8395 7.78788 8.9807 8.10665 11.1289 8.0534C13.2713 8.10711 15.4067 7.7883 17.44 7.11118C15.4001 6.4673 13.2673 6.16691 11.1289 6.22229Z" fill="#198AB3"/>
<path d="M17.4578 19.8935V14.418H16V21.1202H19.9822V19.8935H17.4578ZM5.86666 17.1913C5.56901 17.0598 5.28844 16.8927 5.0311 16.6935C4.90139 16.5465 4.8316 16.3562 4.83555 16.1602C4.83555 16.0636 4.85804 15.9683 4.90124 15.8819C4.94444 15.7955 5.00716 15.7204 5.08444 15.6624C5.2904 15.5301 5.53355 15.4678 5.77777 15.4846C6.33333 15.4977 6.87218 15.6773 7.32444 16.0002V14.5602C6.80601 14.3436 6.2507 14.2289 5.68888 14.2224C5.04933 14.1867 4.41827 14.3823 3.9111 14.7735C3.69442 14.9446 3.52056 15.1638 3.4033 15.4138C3.28604 15.6637 3.2286 15.9375 3.23555 16.2135C3.26235 16.6606 3.42471 17.089 3.70102 17.4415C3.97733 17.794 4.35446 18.054 4.78221 18.1869C5.13639 18.3344 5.47082 18.5255 5.77777 18.7558C5.85322 18.8232 5.9142 18.9052 5.95698 18.9969C5.99976 19.0886 6.02347 19.188 6.02666 19.2891C6.02939 19.3881 6.00622 19.4861 5.95945 19.5734C5.91268 19.6607 5.84393 19.7343 5.75999 19.7869C5.55014 19.9268 5.30078 19.9954 5.04888 19.9824C4.39041 19.9819 3.75606 19.7345 3.2711 19.2891V20.7824C3.81972 21.0648 4.43239 21.1996 5.04888 21.1735C5.7245 21.2111 6.39351 21.0236 6.9511 20.6402C7.17599 20.4674 7.35627 20.2433 7.47689 19.9866C7.5975 19.7299 7.65495 19.4481 7.64444 19.1646C7.66336 18.7495 7.52352 18.3427 7.25332 18.0269C6.85412 17.6551 6.38187 17.3705 5.86666 17.1913ZM14.2222 19.7691C14.6048 19.1745 14.8141 18.485 14.8267 17.778C14.8402 17.1606 14.6997 16.5496 14.4178 16.0002C14.1668 15.4991 13.7783 15.0797 13.2978 14.7913C12.803 14.4529 12.2251 14.2562 11.6267 14.2224C11.0046 14.2058 10.3899 14.3594 9.84888 14.6669C9.32938 14.9794 8.91948 15.4452 8.67555 16.0002C8.41757 16.5574 8.28394 17.164 8.28394 17.778C8.28394 18.392 8.41757 18.9986 8.67555 19.5558C8.93121 20.0536 9.31862 20.4718 9.79555 20.7646C10.2699 21.078 10.8125 21.2731 11.3778 21.3335L12.7644 22.8802H14.72L12.7822 21.1024C13.4043 20.8416 13.9143 20.3693 14.2222 19.7691ZM12.7111 19.3602C12.5631 19.5462 12.3732 19.6947 12.157 19.7936C11.9407 19.8924 11.7042 19.9389 11.4667 19.9291C11.2301 19.9368 10.9952 19.8876 10.7817 19.7855C10.5682 19.6834 10.3824 19.5314 10.24 19.3424C9.93961 18.8788 9.80202 18.3284 9.84888 17.778C9.81949 17.2107 9.98928 16.6511 10.3289 16.1958C10.4711 16.001 10.6589 15.844 10.8759 15.7387C11.0928 15.6333 11.3323 15.5827 11.5733 15.5913C11.8119 15.5825 12.0489 15.6331 12.263 15.7386C12.4771 15.8441 12.6616 16.0012 12.8 16.1958C13.1218 16.6649 13.2782 17.2279 13.2444 17.7958C13.2763 18.355 13.1129 18.908 12.7822 19.3602H12.7111Z" fill="url(#paint1_radial_868_7086)"/>
<path d="M25.92 2.38232H19.4311C19.2944 2.38232 19.1633 2.43664 19.0666 2.53333C18.9699 2.63001 18.9156 2.76115 18.9156 2.89788V16.889C18.9156 17.0257 18.9699 17.1569 19.0666 17.2535C19.1633 17.3502 19.2944 17.4045 19.4311 17.4045H30.6845C30.8212 17.4045 30.9523 17.3502 31.049 17.2535C31.1457 17.1569 31.2 17.0257 31.2 16.889V7.62677C31.2 7.49003 31.1457 7.3589 31.049 7.26222C30.9523 7.16553 30.8212 7.11121 30.6845 7.11121H26.9511C26.8144 7.11121 26.6833 7.0569 26.5866 6.96021C26.4899 6.86352 26.4356 6.73239 26.4356 6.59566V2.89788C26.4356 2.76115 26.3813 2.63001 26.2846 2.53333C26.1879 2.43664 26.0568 2.38232 25.92 2.38232Z" fill="white"/>
<path d="M25.6889 3.04014V6.5957C25.6889 6.93517 25.8237 7.26075 26.0638 7.50079C26.3038 7.74084 26.6294 7.8757 26.9689 7.8757H30.5244V16.7646H19.5555V3.04014H25.6355M25.8844 2.2757H19.3066C19.2375 2.27331 19.1685 2.28488 19.1039 2.30972C19.0393 2.33456 18.9803 2.37215 18.9305 2.42027C18.8808 2.46838 18.8412 2.52603 18.8142 2.58976C18.7872 2.6535 18.7733 2.72203 18.7733 2.79125V17.0135C18.7733 17.0827 18.7872 17.1512 18.8142 17.215C18.8412 17.2787 18.8808 17.3363 18.9305 17.3845C18.9803 17.4326 19.0393 17.4702 19.1039 17.495C19.1685 17.5198 19.2375 17.5314 19.3066 17.529H30.72C30.8567 17.529 30.9879 17.4747 31.0845 17.378C31.1812 17.2813 31.2355 17.1502 31.2355 17.0135V7.59125C31.2278 7.46949 31.177 7.35443 31.0924 7.26654C31.0078 7.17865 30.8947 7.12363 30.7733 7.11125H26.9689C26.8321 7.11125 26.701 7.05694 26.6043 6.96025C26.5076 6.86356 26.4533 6.73243 26.4533 6.5957V2.79125C26.4533 2.65452 26.399 2.52339 26.3023 2.4267C26.2056 2.33001 26.0745 2.2757 25.9378 2.2757H25.8844Z" fill="#50E6FF"/>
<path d="M31.0934 7.11104L26.2756 2.31104V6.22215C26.2755 6.45485 26.3667 6.67829 26.5296 6.84448C26.6925 7.01068 26.914 7.10638 27.1467 7.11104H31.0934Z" fill="#32BEDD"/>
<path d="M28.1956 10.4536H21.9022C21.6371 10.4536 21.4222 10.6685 21.4222 10.9336C21.4222 11.1987 21.6371 11.4136 21.9022 11.4136H28.1956C28.4607 11.4136 28.6756 11.1987 28.6756 10.9336C28.6756 10.6685 28.4607 10.4536 28.1956 10.4536Z" fill="#32BEDD"/>
<path d="M28.1956 12.0713H21.9022C21.6371 12.0713 21.4222 12.2862 21.4222 12.5513C21.4222 12.8164 21.6371 13.0313 21.9022 13.0313H28.1956C28.4607 13.0313 28.6756 12.8164 28.6756 12.5513C28.6756 12.2862 28.4607 12.0713 28.1956 12.0713Z" fill="#32BEDD"/>
<path d="M24.8711 13.7246H21.8667C21.6212 13.7246 21.4222 13.9236 21.4222 14.1691C21.4222 14.4145 21.6212 14.6135 21.8667 14.6135H24.8711C25.1166 14.6135 25.3156 14.4145 25.3156 14.1691C25.3156 13.9236 25.1166 13.7246 24.8711 13.7246Z" fill="#32BEDD"/>
<defs>
<linearGradient id="paint0_linear_868_7086" x1="0.711121" y1="17.8847" x2="21.5289" y2="17.8847" gradientUnits="userSpaceOnUse">
<stop stop-color="#005BA1"/>
<stop offset="0.07" stop-color="#0060A9"/>
<stop offset="0.36" stop-color="#0071C8"/>
<stop offset="0.52" stop-color="#0078D4"/>
<stop offset="0.64" stop-color="#0074CD"/>
<stop offset="0.82" stop-color="#006ABB"/>
<stop offset="1" stop-color="#005BA1"/>
</linearGradient>
<radialGradient id="paint1_radial_868_7086" cx="0" cy="0" r="1" gradientUnits="userSpaceOnUse" gradientTransform="translate(11.6978 18.5424) scale(11.4844)">
<stop stop-color="#F2F2F2"/>
<stop offset="0.58" stop-color="#EEEEEE"/>
<stop offset="1" stop-color="#E6E6E6"/>
</radialGradient>
</defs>
</svg>
