<svg width="32" height="32" viewBox="0 0 32 32" fill="none" xmlns="http://www.w3.org/2000/svg">
<path d="M13.576 8.78258C6.95649 8.78258 1.59009 6.91282 1.59009 4.44434V27.556C1.59009 29.9307 6.86305 31.8565 13.4077 31.8939H13.576C20.1939 31.8939 25.56 30.0242 25.56 27.556V4.44434C25.56 6.8565 20.1939 8.78258 13.576 8.78258Z" fill="url(#paint0_linear_868_7085)"/>
<path d="M25.56 4.44437C25.56 6.85652 20.1939 8.78261 13.576 8.78261C6.95809 8.78261 1.58881 6.91221 1.58881 4.44437C1.58881 1.97653 6.95521 0.106445 13.576 0.106445C20.1968 0.106445 25.56 1.97621 25.56 4.44437Z" fill="#E8E8E8"/>
<path d="M22.7744 4.08881C22.7744 5.62257 18.6419 6.85649 13.5747 6.85649C8.50754 6.85649 4.37506 5.62257 4.37506 4.08881C4.37506 2.55505 8.50754 1.34033 13.5747 1.34033C18.6419 1.34033 22.7744 2.57457 22.7744 4.08881Z" fill="#50E6FF"/>
<path d="M13.576 4.72077C11.1111 4.6926 8.65713 5.0523 6.30402 5.78669C7.89922 6.37517 11.1565 6.95309 13.6211 6.86701C16.0923 6.93235 18.5555 6.55844 20.896 5.76269C18.5228 5.04717 16.0547 4.69587 13.576 4.72077Z" fill="#198AB3"/>
<path d="M23.3248 30.79C24.5675 30.79 25.7823 30.4215 26.8156 29.7311C27.8488 29.0407 28.6542 28.0594 29.1297 26.9113C29.6053 25.7632 29.7297 24.4999 29.4873 23.281C29.2448 22.0622 28.6464 20.9427 27.7677 20.0639C26.889 19.1852 25.7694 18.5868 24.5506 18.3444C23.3318 18.1019 22.0684 18.2264 20.9203 18.7019C19.7722 19.1775 18.7909 19.9828 18.1005 21.0161C17.4101 22.0493 17.0416 23.2641 17.0416 24.5068C17.0416 26.1732 17.7036 27.7714 18.8819 28.9497C20.0602 30.1281 21.6584 30.79 23.3248 30.79Z" fill="white"/>
<path d="M23.1747 19.1772C24.4973 19.1765 25.7729 19.6678 26.7534 20.5555C27.7339 21.4431 28.3492 22.6638 28.4796 23.9799C28.61 25.2961 28.2462 26.6137 27.4589 27.6765C26.6717 28.7394 25.5173 29.4714 24.2202 29.7302C22.9232 29.989 21.5762 29.7562 20.4413 29.077C19.3065 28.3978 18.4648 27.3207 18.08 26.0553C17.6952 24.7899 17.7948 23.4266 18.3595 22.2306C18.9241 21.0345 19.9135 20.0913 21.135 19.5843C21.7816 19.316 22.4747 19.1776 23.1747 19.1772ZM23.1747 17.27C21.4982 17.2677 19.8728 17.847 18.5755 18.909C17.2783 19.971 16.3895 21.4501 16.0607 23.0941C15.732 24.738 15.9835 26.4452 16.7725 27.9244C17.5616 29.4037 18.8392 30.5635 20.3876 31.2062C21.9361 31.8489 23.6595 31.9346 25.2641 31.4488C26.8687 30.963 28.2552 29.9358 29.1871 28.5421C30.1191 27.1485 30.5389 25.4748 30.3749 23.8063C30.211 22.1378 29.4734 20.5778 28.288 19.3923C26.9323 18.0349 25.0931 17.2715 23.1747 17.27Z" fill="#003067"/>
<path d="M19.825 26.1904C19.8267 26.4171 19.9178 26.634 20.0785 26.7939C20.2392 26.9539 20.4565 27.0439 20.6832 27.0445H20.689L23.5661 27.0195V25.2106H21.7101V21.8784L20.6541 21.8848C20.4839 21.8856 20.3177 21.937 20.1768 22.0325C20.0359 22.128 19.9266 22.2633 19.8627 22.4211C19.82 22.5259 19.7983 22.638 19.7987 22.7511L19.8074 24.0215H18.6669V24.8733H19.8135L19.825 26.1904Z" fill="#76BC2D"/>
<path d="M26.7242 22.7056C26.7225 22.4789 26.6314 22.262 26.4707 22.1021C26.31 21.9422 26.0926 21.8521 25.8659 21.8516H25.8602L23.04 21.8752V23.8823H24.896V27.0183L25.8947 27.0119C26.0076 27.0113 26.1192 26.9885 26.2232 26.9447C26.3272 26.901 26.4215 26.8372 26.5009 26.7569C26.5802 26.6767 26.6429 26.5816 26.6854 26.4771C26.728 26.3726 26.7495 26.2607 26.7488 26.1479L26.7402 24.8762H27.8829V24.0215H26.7347L26.7242 22.7056Z" fill="#76BC2D"/>
<defs>
<linearGradient id="paint0_linear_868_7085" x1="1.59009" y1="18.1691" x2="25.56" y2="18.1691" gradientUnits="userSpaceOnUse">
<stop stop-color="#005BA1"/>
<stop offset="0.07" stop-color="#0060A9"/>
<stop offset="0.36" stop-color="#0071C8"/>
<stop offset="0.52" stop-color="#0078D4"/>
<stop offset="0.64" stop-color="#0074CD"/>
<stop offset="0.82" stop-color="#006ABB"/>
<stop offset="1" stop-color="#005BA1"/>
</linearGradient>
</defs>
</svg>
