<svg width="32" height="32" viewBox="0 0 32 32" fill="none" xmlns="http://www.w3.org/2000/svg">
<path d="M13.8133 18.9866C13.791 19.1643 13.7008 19.3265 13.5616 19.4391C13.4225 19.5518 13.2451 19.6063 13.0667 19.5911H1.63555C1.45713 19.6063 1.27975 19.5518 1.14057 19.4391C1.00139 19.3265 0.911199 19.1643 0.888885 18.9866V2.13331C0.911199 1.95563 1.00139 1.79348 1.14057 1.68081C1.27975 1.56814 1.45713 1.51369 1.63555 1.52886H13.0667C13.2451 1.51369 13.4225 1.56814 13.5616 1.68081C13.7008 1.79348 13.791 1.95563 13.8133 2.13331V18.9866Z" fill="#949494"/>
<path d="M2.79111 9.24429C2.79111 8.87181 2.93907 8.51458 3.20246 8.2512C3.46584 7.98781 3.82307 7.83984 4.19555 7.83984H10.6667C11.0391 7.83984 11.3964 7.98781 11.6598 8.2512C11.9231 8.51458 12.0711 8.87181 12.0711 9.24429C12.0735 9.43021 12.0389 9.61475 11.9693 9.78721C11.8998 9.95966 11.7967 10.1166 11.6661 10.2489C11.5354 10.3812 11.3798 10.4862 11.2083 10.5579C11.0367 10.6296 10.8526 10.6665 10.6667 10.6665H4.19555C3.82307 10.6665 3.46584 10.5185 3.20246 10.2552C2.93907 9.99177 2.79111 9.63455 2.79111 9.26207V9.24429Z" fill="#003067"/>
<path d="M2.7911 5.08433C2.78874 4.89841 2.82333 4.71387 2.89286 4.54141C2.96238 4.36896 3.06546 4.21203 3.19611 4.07973C3.32676 3.94742 3.48238 3.84238 3.65395 3.77069C3.82551 3.699 4.0096 3.66209 4.19554 3.66211H10.6667C10.8526 3.66209 11.0367 3.699 11.2082 3.77069C11.3798 3.84238 11.5354 3.94742 11.6661 4.07973C11.7967 4.21203 11.8998 4.36896 11.9693 4.54141C12.0389 4.71387 12.0735 4.89841 12.0711 5.08433C12.0711 5.26877 12.0348 5.45139 11.9642 5.62179C11.8936 5.79218 11.7902 5.94701 11.6597 6.07742C11.5293 6.20784 11.3745 6.31129 11.2041 6.38187C11.0337 6.45245 10.8511 6.48878 10.6667 6.48878H4.19554C3.82306 6.48878 3.46583 6.34081 3.20245 6.07742C2.93907 5.81404 2.7911 5.45681 2.7911 5.08433Z" fill="#003067"/>
<path d="M4.24889 6.02653C4.76927 6.02653 5.19112 5.60469 5.19112 5.08431C5.19112 4.56394 4.76927 4.14209 4.24889 4.14209C3.72852 4.14209 3.30667 4.56394 3.30667 5.08431C3.30667 5.60469 3.72852 6.02653 4.24889 6.02653Z" fill="#50E6FF"/>
<path d="M4.24889 10.1867C4.76927 10.1867 5.19112 9.76484 5.19112 9.24447C5.19112 8.72409 4.76927 8.30225 4.24889 8.30225C3.72852 8.30225 3.30667 8.72409 3.30667 9.24447C3.30667 9.76484 3.72852 10.1867 4.24889 10.1867Z" fill="#50E6FF"/>
<path d="M28.0711 18.8976C28.0531 19.0785 27.9647 19.2451 27.8251 19.3615C27.6854 19.4778 27.5056 19.5347 27.3244 19.5198H15.8933C15.7122 19.5347 15.5324 19.4778 15.3927 19.3615C15.2531 19.2451 15.1647 19.0785 15.1467 18.8976V2.06205C15.1647 1.88116 15.2531 1.71458 15.3927 1.5982C15.5324 1.48182 15.7122 1.42495 15.8933 1.43983H27.3244C27.5056 1.42495 27.6854 1.48182 27.8251 1.5982C27.9647 1.71458 28.0531 1.88116 28.0711 2.06205V18.8976Z" fill="#949494"/>
<path d="M17.0489 9.173C17.0489 8.80052 17.1969 8.44329 17.4602 8.17991C17.7236 7.91652 18.0809 7.76855 18.4533 7.76855H24.8889C25.2614 7.76855 25.6186 7.91652 25.882 8.17991C26.1454 8.44329 26.2933 8.80052 26.2933 9.173C26.3055 9.36477 26.2782 9.557 26.2131 9.73779C26.1479 9.91858 26.0464 10.0841 25.9148 10.2241C25.7831 10.364 25.6242 10.4755 25.4477 10.5516C25.2712 10.6277 25.081 10.6667 24.8889 10.6663H18.4533C18.0809 10.6663 17.7236 10.5184 17.4602 10.255C17.1969 9.9916 17.0489 9.63437 17.0489 9.26189V9.173Z" fill="#003067"/>
<path d="M17.0489 4.99518C17.0441 4.80777 17.077 4.62131 17.1454 4.44679C17.2139 4.27227 17.3166 4.11322 17.4474 3.97902C17.5783 3.84481 17.7348 3.73817 17.9075 3.66538C18.0803 3.59259 18.2659 3.55512 18.4533 3.55518H24.8889C25.2599 3.55979 25.6145 3.70923 25.8769 3.97163C26.1393 4.23402 26.2887 4.58857 26.2933 4.95962C26.2981 5.14702 26.2653 5.33348 26.1968 5.508C26.1283 5.68252 26.0257 5.84157 25.8948 5.97578C25.7639 6.10998 25.6074 6.21662 25.4347 6.28942C25.2619 6.36221 25.0763 6.39968 24.8889 6.39962H18.4533C18.0808 6.39962 17.7236 6.25165 17.4602 5.98827C17.1968 5.72488 17.0489 5.36766 17.0489 4.99518Z" fill="#003067"/>
<path d="M18.5067 5.93767C19.027 5.93767 19.4489 5.51582 19.4489 4.99544C19.4489 4.47507 19.027 4.05322 18.5067 4.05322C17.9863 4.05322 17.5645 4.47507 17.5645 4.99544C17.5645 5.51582 17.9863 5.93767 18.5067 5.93767Z" fill="#50E6FF"/>
<path d="M18.5067 10.1154C19.027 10.1154 19.4489 9.69355 19.4489 9.17318C19.4489 8.6528 19.027 8.23096 18.5067 8.23096C17.9863 8.23096 17.5645 8.6528 17.5645 9.17318C17.5645 9.69355 17.9863 10.1154 18.5067 10.1154Z" fill="#50E6FF"/>
<path d="M16 29.9375C15.982 30.1184 15.8936 30.285 15.7539 30.4013C15.6143 30.5177 15.4345 30.5746 15.2533 30.5597H3.80444C3.62326 30.5746 3.44348 30.5177 3.30382 30.4013C3.16417 30.285 3.0758 30.1184 3.05777 29.9375V13.1019C3.06225 13.0093 3.08528 12.9184 3.12551 12.8348C3.16574 12.7512 3.22235 12.6765 3.29198 12.6151C3.36161 12.5538 3.44285 12.507 3.53087 12.4777C3.6189 12.4483 3.71192 12.4369 3.80444 12.4442H15.2355C15.3295 12.4344 15.4244 12.4439 15.5145 12.4721C15.6046 12.5003 15.688 12.5466 15.7596 12.6082C15.8312 12.6698 15.8894 12.7454 15.9308 12.8303C15.9721 12.9152 15.9957 13.0076 16 13.1019V29.9375Z" fill="url(#paint0_linear_868_7103)"/>
<path d="M4.95999 20.213C4.95999 19.8406 5.10796 19.4833 5.37134 19.2199C5.63473 18.9566 5.99195 18.8086 6.36444 18.8086H12.8C13.1725 18.8086 13.5297 18.9566 13.7931 19.2199C14.0565 19.4833 14.2044 19.8406 14.2044 20.213H14.2222C14.2176 20.5841 14.0682 20.9386 13.8058 21.201C13.5434 21.4634 13.1888 21.6129 12.8178 21.6175H6.36444C5.99195 21.6175 5.63473 21.4695 5.37134 21.2061C5.10796 20.9427 4.95999 20.5855 4.95999 20.213Z" fill="#003067"/>
<path d="M4.95999 15.9998C4.95999 15.6273 5.10796 15.2701 5.37134 15.0067C5.63473 14.7433 5.99195 14.5953 6.36444 14.5953H12.8C12.9859 14.593 13.1705 14.6276 13.3429 14.6971C13.5154 14.7666 13.6723 14.8697 13.8046 15.0003C13.9369 15.131 14.0419 15.2866 14.1136 15.4582C14.1853 15.6297 14.2222 15.8138 14.2222 15.9998C14.2176 16.3708 14.0682 16.7254 13.8058 16.9878C13.5434 17.2502 13.1888 17.3996 12.8178 17.4042H6.36444C5.99195 17.4042 5.63473 17.2562 5.37134 16.9929C5.10796 16.7295 4.95999 16.3723 4.95999 15.9998Z" fill="#003067"/>
<path d="M6.41778 16.9777C6.93815 16.9777 7.36 16.5559 7.36 16.0355C7.36 15.5151 6.93815 15.0933 6.41778 15.0933C5.8974 15.0933 5.47556 15.5151 5.47556 16.0355C5.47556 16.5559 5.8974 16.9777 6.41778 16.9777Z" fill="#50E6FF"/>
<path d="M6.41778 21.1554C6.93815 21.1554 7.36 20.7336 7.36 20.2132C7.36 19.6928 6.93815 19.271 6.41778 19.271C5.8974 19.271 5.47556 19.6928 5.47556 20.2132C5.47556 20.7336 5.8974 21.1554 6.41778 21.1554Z" fill="#50E6FF"/>
<path d="M31.1111 23.1108C31.0745 21.9423 30.6234 20.8249 29.8385 19.9585C29.0535 19.0921 27.9859 18.5333 26.8267 18.3819C26.7573 16.7518 26.0486 15.2147 24.854 14.1033C23.6595 12.992 22.0753 12.3959 20.4445 12.4441C19.1239 12.4164 17.8274 12.8003 16.7348 13.5425C15.6422 14.2847 14.8076 15.3485 14.3467 16.5863C12.9513 16.7555 11.6625 17.4185 10.7136 18.4555C9.76472 19.4924 9.21833 20.8348 9.17334 22.2397C9.23814 23.8195 9.92483 25.3097 11.0837 26.3853C12.2426 27.4609 13.7797 28.0348 15.36 27.9819H25.9022C25.9903 27.9987 26.0808 27.9987 26.1689 27.9819C27.4646 27.9729 28.7058 27.4591 29.6287 26.5495C30.5516 25.6399 31.0834 24.4063 31.1111 23.1108Z" fill="url(#paint1_linear_868_7103)"/>
<defs>
<linearGradient id="paint0_linear_868_7103" x1="9.5111" y1="12.4797" x2="9.5111" y2="30.5597" gradientUnits="userSpaceOnUse">
<stop stop-color="#B3B2B3"/>
<stop offset="0.38" stop-color="#AFAEAF"/>
<stop offset="0.76" stop-color="#A2A2A2"/>
<stop offset="1" stop-color="#979797"/>
</linearGradient>
<linearGradient id="paint1_linear_868_7103" x1="20.1422" y1="27.9819" x2="20.1422" y2="12.4263" gradientUnits="userSpaceOnUse">
<stop stop-color="#0078D4"/>
<stop offset="0.16" stop-color="#1380DA"/>
<stop offset="0.53" stop-color="#3C91E5"/>
<stop offset="0.82" stop-color="#559CEC"/>
<stop offset="1" stop-color="#5EA0EF"/>
</linearGradient>
</defs>
</svg>
