<svg width="32" height="32" viewBox="0 0 32 32" fill="none" xmlns="http://www.w3.org/2000/svg">
<g clip-path="url(#clip0_854_28144)">
<path d="M32 0H0V32H32V0Z" fill="#693CC5"/>
<path d="M20.6975 26.2398C20.6072 26.2401 20.519 26.2118 20.4458 26.1588C20.3907 26.1195 20.3456 26.0677 20.3145 26.0076C20.2833 25.9475 20.2669 25.8808 20.2666 25.8132V6.18648C20.2669 6.11357 20.2859 6.04195 20.3217 5.97846C20.3576 5.91497 20.4091 5.86173 20.4714 5.82381C20.5344 5.78307 20.607 5.75965 20.6819 5.7559C20.7568 5.75216 20.8313 5.76822 20.8981 5.80248L26.4447 8.51182C26.5159 8.54668 26.5759 8.60067 26.6181 8.66774C26.6603 8.73481 26.683 8.81231 26.6837 8.89155V23.97C26.6882 24.0635 26.6619 24.156 26.6087 24.2331C26.5555 24.3102 26.4784 24.3677 26.3893 24.3966L20.8426 26.2398C20.7945 26.2468 20.7456 26.2468 20.6975 26.2398ZM21.1242 6.87342V25.2201L25.8175 23.6628V9.15608L21.1242 6.87342Z" fill="white"/>
<path d="M11.3067 26.2398C11.2614 26.246 11.2154 26.246 11.1701 26.2398L5.62348 24.3966C5.53517 24.3669 5.459 24.3092 5.40661 24.2321C5.35422 24.1551 5.32849 24.063 5.33334 23.9699V8.89155C5.33398 8.81231 5.35667 8.73481 5.39887 8.66774C5.44107 8.60067 5.50112 8.54668 5.57228 8.51182L11.1189 5.80248C11.1857 5.76822 11.2602 5.75216 11.3351 5.7559C11.41 5.75965 11.4826 5.78307 11.5456 5.82381C11.6071 5.86224 11.6578 5.91571 11.6929 5.97917C11.728 6.04262 11.7463 6.11397 11.7461 6.18648V25.8131C11.7458 25.8808 11.7294 25.9475 11.6983 26.0076C11.6671 26.0677 11.6221 26.1195 11.5669 26.1588C11.4923 26.2153 11.4002 26.244 11.3067 26.2398V26.2398ZM6.18668 23.6798L10.88 25.2372V6.89048L6.18668 9.18168V23.6798Z" fill="white"/>
<path d="M20.2666 11.7332H18.9866V10.8799H20.2666V11.7332ZM17.7066 11.7332H16.4266V10.8799H17.7066V11.7332ZM15.1466 11.7332H13.8666V10.8799H15.1466V11.7332ZM12.5866 11.7332H11.3066V10.8799H12.5866V11.7332Z" fill="white"/>
<path d="M20.2666 21.1199H18.9866V20.2666H20.2666V21.1199ZM17.7066 21.1199H16.4266V20.2666H17.7066V21.1199ZM15.1466 21.1199H13.8666V20.2666H15.1466V21.1199ZM12.5866 21.1199H11.3066V20.2666H12.5866V21.1199Z" fill="white"/>
<path d="M14.1269 17.4673L12.5227 16.0977C12.4758 16.0577 12.4382 16.0079 12.4124 15.952C12.3866 15.896 12.3733 15.8351 12.3733 15.7735C12.3733 15.7118 12.3866 15.6509 12.4124 15.5949C12.4382 15.539 12.4758 15.4892 12.5227 15.4492L14.1227 14.0796L14.6773 14.7281L13.4571 15.7863L14.6773 16.8316L14.1269 17.4673Z" fill="white"/>
<path d="M17.8773 17.4673L17.3226 16.8188L18.5429 15.7863L17.3184 14.7452L17.873 14.0796L19.4773 15.4449C19.5241 15.485 19.5617 15.5347 19.5875 15.5907C19.6133 15.6467 19.6267 15.7076 19.6267 15.7692C19.6267 15.8308 19.6133 15.8917 19.5875 15.9477C19.5617 16.0037 19.5241 16.0534 19.4773 16.0935L17.8773 17.4673Z" fill="white"/>
<path d="M16.441 13.3512L14.7451 18.3672L15.5535 18.6405L17.2494 13.6245L16.441 13.3512Z" fill="white"/>
</g>
<defs>
<clipPath id="clip0_854_28144">
<rect width="32" height="32" fill="white"/>
</clipPath>
</defs>
</svg>
