<svg width="32" height="32" viewBox="0 0 32 32" fill="none" xmlns="http://www.w3.org/2000/svg">
<g clip-path="url(#clip0_854_28164)">
<path d="M32 0H0V32H32V0Z" fill="url(#paint0_linear_854_28164)"/>
<path d="M15.5476 19.8486H9.57429C7.23616 19.8486 5.44843 18.287 5.32896 16.1409C5.32896 16.0513 5.32896 15.9489 5.32896 15.8465C5.29263 14.9561 5.55937 14.0797 6.08559 13.3605C6.6118 12.6413 7.36638 12.1219 8.22603 11.887C8.22603 11.7718 8.22603 11.6609 8.22603 11.5457C8.24755 10.397 8.60856 9.28042 9.26358 8.33658C9.91861 7.39274 10.8383 6.66389 11.9069 6.24186C12.9754 5.81982 14.145 5.7235 15.2682 5.96501C16.3914 6.20652 17.4179 6.77507 18.2186 7.59902C18.7769 8.15166 19.2308 8.80067 19.5583 9.51475C20.0264 9.13867 20.609 8.93393 21.2095 8.93449C22.4468 8.93449 23.7695 9.81769 23.9871 11.7846C25.0385 11.9926 25.9871 12.5542 26.6751 13.3761L26.0052 13.9009C25.3664 13.17 24.4871 12.6917 23.5263 12.5526C23.4303 12.5372 23.3424 12.4895 23.2772 12.4173C23.212 12.3452 23.1735 12.2529 23.1679 12.1558C23.0698 10.5217 22.114 9.78782 21.2095 9.78782C20.9255 9.79046 20.6459 9.85887 20.3927 9.98767C20.1395 10.1165 19.9197 10.3022 19.7503 10.5302C19.7045 10.5913 19.6431 10.639 19.5725 10.6683C19.502 10.6975 19.4249 10.7073 19.3492 10.6966C19.2733 10.685 19.2019 10.6531 19.1425 10.6043C19.0832 10.5555 19.0382 10.4916 19.0122 10.4193C18.7201 9.58986 18.2463 8.8362 17.6255 8.21342C16.9439 7.5122 16.0707 7.02758 15.1151 6.82023C14.1594 6.61288 13.1639 6.69201 12.253 7.04771C11.3421 7.40341 10.5564 8.01988 9.99415 8.81995C9.43192 9.62003 9.11816 10.5682 9.09216 11.5457C9.09277 11.7495 9.10417 11.9532 9.12629 12.1558C9.13657 12.2576 9.10991 12.3598 9.05117 12.4436C8.99243 12.5274 8.90552 12.5873 8.80629 12.6124C7.83776 12.8513 6.20363 13.5937 6.20363 15.8465C6.19936 15.9232 6.19936 16.0001 6.20363 16.0769C6.29749 17.7836 7.72683 18.9953 9.61696 18.9953H15.5903L15.5476 19.8486Z" fill="white"/>
<path d="M21.5209 26.1378C16.4606 26.1378 16.4009 20.4503 16.4009 20.3948V15.2023C16.4006 15.1151 16.427 15.0299 16.4766 14.9582C16.5262 14.8865 16.5966 14.8317 16.6782 14.8012L21.3715 13.0647C21.4682 13.0305 21.5736 13.0305 21.6702 13.0647L26.3635 14.8012C26.4452 14.8317 26.5156 14.8865 26.5652 14.9582C26.6147 15.0299 26.6412 15.1151 26.6409 15.2023V20.7148C26.6409 20.7703 26.5811 26.1378 21.5209 26.1378ZM17.2542 15.501V20.3948C17.2542 20.5954 17.3139 25.2844 21.5209 25.2844C25.7278 25.2844 25.7875 20.9026 25.7875 20.7148V15.501L21.5209 13.918L17.2542 15.501Z" fill="white"/>
<path d="M21.521 24.5421C18.8074 24.5421 18.1418 21.0989 18.1077 20.9538C18.1034 20.9284 18.1034 20.9024 18.1077 20.877V16.4567C18.1076 16.3713 18.1332 16.2878 18.1811 16.217C18.229 16.1463 18.2971 16.0915 18.3765 16.0599L21.3631 14.8823C21.4645 14.842 21.5775 14.842 21.6789 14.8823L24.6655 16.0599C24.7449 16.0915 24.813 16.1463 24.8609 16.217C24.9088 16.2878 24.9344 16.3713 24.9343 16.4567V20.877C24.9364 20.9026 24.9364 20.9282 24.9343 20.9538C24.9002 21.0989 24.2346 24.5421 21.521 24.5421ZM18.961 20.8343C19.0293 21.1586 19.6394 23.6887 21.521 23.6887C23.4026 23.6887 24.0127 21.1629 24.081 20.8343V16.7469L21.521 15.7399L18.961 16.7469V20.8343Z" fill="white"/>
</g>
<defs>
<linearGradient id="paint0_linear_854_28164" x1="-6.62613" y1="38.6261" x2="38.6261" y2="-6.62613" gradientUnits="userSpaceOnUse">
<stop stop-color="#4D27A8"/>
<stop offset="1" stop-color="#A166FF"/>
</linearGradient>
<clipPath id="clip0_854_28164">
<rect width="32" height="32" fill="white"/>
</clipPath>
</defs>
</svg>
