<svg width="32" height="32" viewBox="0 0 32 32" fill="none" xmlns="http://www.w3.org/2000/svg">
<g clip-path="url(#clip0_854_28175)">
<path d="M32 0H0V32H32V0Z" fill="url(#paint0_linear_854_28175)"/>
<path d="M19.6862 25.8861L18.9267 25.4935C19.3314 24.7239 19.656 23.9146 19.8953 23.0786L20.7145 23.3175C20.4598 24.2064 20.1152 25.067 19.6862 25.8861V25.8861ZM20.4798 18.0738C20.3322 15.6847 19.5565 13.3769 18.2313 11.3837L18.9438 10.9186C20.3522 13.0347 21.1765 15.4854 21.3331 18.0226L20.4798 18.0738ZM14.8521 7.77833C14.2328 7.31589 13.5731 6.91033 12.8809 6.5666L13.2691 5.80713C14.006 6.16967 14.7086 6.59808 15.3683 7.08713L14.8521 7.77833Z" fill="white"/>
<path d="M18.3467 19.1572C16.9999 17.8196 15.3718 16.7993 13.5808 16.1705L13.8453 15.3599C15.7528 16.0293 17.4872 17.1152 18.9227 18.5385L18.3467 19.1572Z" fill="white"/>
<path d="M21.8624 24.252C21.7046 23.8253 21.5254 23.4328 21.3291 23.036L22.0928 22.6562C22.3033 23.0732 22.4927 23.5004 22.6603 23.9362L21.8624 24.252Z" fill="white"/>
<path d="M19.4432 26.0908L19.1702 25.2844C20.1923 24.94 21.1487 24.425 21.999 23.7612L22.5238 24.4354C21.5978 25.1572 20.5562 25.717 19.4432 26.0908V26.0908Z" fill="white"/>
<path d="M5.87937 15.7866L5.68311 14.9588C6.62919 14.7271 7.59781 14.5998 8.57164 14.5791L8.59297 15.4324C7.67823 15.4512 6.76828 15.5699 5.87937 15.7866V15.7866Z" fill="white"/>
<path d="M12.8767 13.0732L12.1599 12.6081C12.7862 11.5909 13.5581 10.6709 14.4511 9.87744L15.0143 10.5217C14.1804 11.2627 13.4602 12.1224 12.8767 13.0732V13.0732Z" fill="white"/>
<path d="M19.2213 8.0128L18.9312 7.21066C19.5734 6.9699 20.234 6.78155 20.9066 6.64746L21.0645 7.50079C20.4369 7.61987 19.8204 7.79113 19.2213 8.0128V8.0128Z" fill="white"/>
<path d="M10.7733 25.1733C10.076 23.5549 9.7034 21.8153 9.67676 20.0533C9.69088 19.3743 9.77959 18.699 9.94129 18.0394C9.97116 17.8901 10.0053 17.7365 10.0352 17.5786L10.8885 17.745C10.8586 17.9071 10.8245 18.0607 10.7946 18.2143C10.6455 18.8165 10.5626 19.4331 10.5472 20.0533C10.5665 21.7086 10.9116 23.344 11.5626 24.8661L10.7733 25.1733Z" fill="white"/>
<path d="M15.9999 26.6667C13.1709 26.6667 10.4578 25.5429 8.45745 23.5425C6.45706 21.5421 5.33325 18.829 5.33325 16C5.33325 15.7824 5.33325 15.5734 5.35459 15.3558C5.48645 13.1727 6.28618 11.083 7.64541 9.3696C9.00465 7.65624 10.8577 6.40211 12.9535 5.7771C14.322 5.37009 15.7582 5.24194 17.1771 5.40025C18.596 5.55856 19.9687 6.0001 21.2138 6.6987C22.7506 7.56042 24.0501 8.78942 24.996 10.2759C25.942 11.7624 26.505 13.46 26.6347 15.2172C26.7645 16.9744 26.4569 18.7363 25.7395 20.3456C25.0221 21.9549 23.9173 23.3614 22.5237 24.4395C20.6524 25.8778 18.36 26.6604 15.9999 26.6667V26.6667ZM15.9999 6.1867C15.0496 6.18976 14.1049 6.33354 13.1967 6.61336C11.2705 7.18815 9.56732 8.34058 8.3174 9.91482C7.06747 11.4891 6.33112 13.4092 6.20792 15.4155C6.20792 15.616 6.18659 15.808 6.18659 16C6.18659 18.6027 7.22049 21.0987 9.06084 22.9391C10.9012 24.7795 13.3973 25.8134 15.9999 25.8134C17.0773 25.815 18.1474 25.6362 19.1658 25.2843C20.1897 24.9409 21.1477 24.4258 21.9989 23.7611C23.6173 22.5087 24.8038 20.7817 25.3922 18.8216C25.9806 16.8616 25.9415 14.7666 25.2804 12.8299C24.6193 10.8932 23.3693 9.21157 21.7052 8.0204C20.0412 6.82923 18.0464 6.18809 15.9999 6.1867V6.1867Z" fill="white"/>
<path d="M17.0366 11.0635C16.6626 11.0635 16.297 10.9525 15.9861 10.7446C15.6751 10.5367 15.4329 10.2413 15.29 9.89567C15.147 9.55005 15.1098 9.16978 15.1831 8.80302C15.2564 8.43625 15.4368 8.09947 15.7016 7.8353C15.9664 7.57113 16.3036 7.39145 16.6705 7.319C17.0374 7.24655 17.4176 7.2846 17.7629 7.42831C18.1082 7.57202 18.4031 7.81495 18.6103 8.12634C18.8175 8.43773 18.9276 8.80359 18.9267 9.1776C18.9267 9.42562 18.8778 9.6712 18.7828 9.90028C18.6877 10.1294 18.5485 10.3374 18.3729 10.5126C18.1973 10.6878 17.9889 10.8266 17.7596 10.9211C17.5303 11.0157 17.2846 11.064 17.0366 11.0635V11.0635ZM17.0366 8.1408C16.8316 8.1408 16.6311 8.20161 16.4606 8.31554C16.2901 8.42946 16.1572 8.59139 16.0787 8.78084C16.0003 8.97029 15.9797 9.17875 16.0197 9.37987C16.0597 9.58099 16.1585 9.76573 16.3035 9.91073C16.4485 10.0557 16.6332 10.1545 16.8343 10.1945C17.0355 10.2345 17.2439 10.214 17.4334 10.1355C17.6228 10.057 17.7848 9.92412 17.8987 9.75362C18.0126 9.58312 18.0734 9.38266 18.0734 9.1776C18.0734 8.90263 17.9642 8.63891 17.7697 8.44448C17.5753 8.25004 17.3116 8.1408 17.0366 8.1408V8.1408Z" fill="white"/>
<path d="M11.217 17.0156C10.8432 17.0156 10.4778 16.9048 10.1669 16.6971C9.8561 16.4894 9.61384 16.1942 9.47078 15.8488C9.32772 15.5034 9.29029 15.1234 9.36322 14.7567C9.43615 14.3901 9.61617 14.0533 9.88051 13.789C10.1449 13.5246 10.4816 13.3446 10.8483 13.2717C11.2149 13.1987 11.595 13.2362 11.9404 13.3792C12.2857 13.5223 12.5809 13.7646 12.7886 14.0754C12.9963 14.3862 13.1072 14.7517 13.1072 15.1255C13.106 15.6264 12.9065 16.1065 12.5523 16.4608C12.1981 16.815 11.718 17.0145 11.217 17.0156ZM11.217 14.0887C11.012 14.0887 10.8115 14.1495 10.641 14.2634C10.4705 14.3773 10.3376 14.5393 10.2592 14.7287C10.1807 14.9182 10.1602 15.1266 10.2002 15.3278C10.2402 15.5289 10.3389 15.7136 10.4839 15.8586C10.6289 16.0036 10.8136 16.1024 11.0148 16.1424C11.2159 16.1824 11.4244 16.1618 11.6138 16.0834C11.8033 16.0049 11.9652 15.872 12.0791 15.7015C12.193 15.531 12.2538 15.3305 12.2538 15.1255C12.255 14.9886 12.229 14.8529 12.1774 14.7261C12.1258 14.5993 12.0496 14.484 11.9532 14.3868C11.8568 14.2897 11.7421 14.2125 11.6158 14.1599C11.4894 14.1072 11.3539 14.0801 11.217 14.0802V14.0887Z" fill="white"/>
<path d="M20.5995 22.4853C20.2253 22.4862 19.8593 22.3759 19.5478 22.1686C19.2363 21.9612 18.9934 21.6661 18.8498 21.3205C18.7062 20.975 18.6684 20.5946 18.7412 20.2275C18.814 19.8605 18.9941 19.5233 19.2587 19.2587C19.5233 18.9941 19.8605 18.814 20.2275 18.7412C20.5946 18.6684 20.975 18.7062 21.3205 18.8498C21.6661 18.9934 21.9612 19.2363 22.1686 19.5478C22.3759 19.8593 22.4862 20.2253 22.4853 20.5995C22.4853 21.0996 22.2867 21.5793 21.933 21.933C21.5793 22.2866 21.0996 22.4853 20.5995 22.4853V22.4853ZM20.5995 19.5627C20.3942 19.5618 20.1934 19.6219 20.0223 19.7353C19.8512 19.8487 19.7177 20.0104 19.6386 20.1997C19.5594 20.3891 19.5383 20.5977 19.5778 20.7991C19.6173 21.0005 19.7157 21.1857 19.8606 21.3311C20.0054 21.4765 20.1901 21.5757 20.3914 21.616C20.5926 21.6564 20.8013 21.6361 20.991 21.5578C21.1807 21.4794 21.3429 21.3465 21.457 21.1759C21.5711 21.0053 21.632 20.8047 21.632 20.5995C21.632 20.3252 21.5234 20.0622 21.3298 19.8679C21.1363 19.6735 20.8737 19.5638 20.5995 19.5627V19.5627Z" fill="white"/>
</g>
<defs>
<linearGradient id="paint0_linear_854_28175" x1="-6.6287" y1="38.6274" x2="38.6261" y2="-6.62742" gradientUnits="userSpaceOnUse">
<stop stop-color="#4D27A8"/>
<stop offset="1" stop-color="#A166FF"/>
</linearGradient>
<clipPath id="clip0_854_28175">
<rect width="32" height="32" fill="white"/>
</clipPath>
</defs>
</svg>
