<svg width="32" height="32" viewBox="0 0 32 32" fill="none" xmlns="http://www.w3.org/2000/svg">
<g clip-path="url(#clip0_854_28459)">
<path d="M32 0H0V32H32V0Z" fill="url(#paint0_linear_854_28459)"/>
<path fill-rule="evenodd" clip-rule="evenodd" d="M21.6 17.571C21.6 18.8846 21.196 23.171 16 23.171C10.6704 23.171 10.4 18.5062 10.4 17.571V10.9894L16 8.8558L21.6 10.9894V17.571ZM5.60005 7.9998H8.00005V5.5998H5.60005V7.9998ZM24 7.9998H26.4V5.5998H24V7.9998ZM24 26.3998H26.4V23.9998H24V26.3998ZM5.60005 26.3998H8.00005V23.9998H5.60005V26.3998ZM26.8 8.7998C27.0208 8.7998 27.2 8.6206 27.2 8.3998V5.1998C27.2 4.9782 27.0208 4.7998 26.8 4.7998H23.6C23.3792 4.7998 23.2 4.9782 23.2 5.1998V8.2342L21.3824 10.051L16.1424 8.0542C16.0512 8.019 15.9488 8.019 15.8576 8.0542L10.6176 10.051L8.80005 8.2342V5.1998C8.80005 4.9782 8.62085 4.7998 8.40005 4.7998H5.20005C4.97925 4.7998 4.80005 4.9782 4.80005 5.1998V8.3998C4.80005 8.6206 4.97925 8.7998 5.20005 8.7998H8.23445L9.81125 10.3766C9.68725 10.4462 9.60005 10.5686 9.60005 10.7142V17.571C9.60005 18.715 9.85605 19.931 10.4392 20.995L8.23445 23.1998H5.20005C4.97925 23.1998 4.80005 23.3782 4.80005 23.5998V26.7998C4.80005 27.0206 4.97925 27.1998 5.20005 27.1998H8.40005C8.62085 27.1998 8.80005 27.0206 8.80005 26.7998V23.7654L10.884 21.6814C11.8816 23.0142 13.516 23.971 16 23.971C18.672 23.971 20.2304 22.9454 21.1392 21.7038L23.2 23.7654V26.7998C23.2 27.0206 23.3792 27.1998 23.6 27.1998H26.8C27.0208 27.1998 27.2 27.0206 27.2 26.7998V23.5998C27.2 23.3782 27.0208 23.1998 26.8 23.1998H23.7656L21.5696 21.003C22.3216 19.5846 22.4 18.0854 22.4 17.571V10.7142C22.4 10.5686 22.3128 10.4462 22.1888 10.3766L23.7656 8.7998H26.8ZM19.2 17.571C19.2 19.5814 18.2744 20.615 16.4 20.7446V11.5766L19.2 12.643V17.571ZM12.8 17.571V12.643L15.6 11.5766V20.7438C13.7496 20.6094 12.8 19.5518 12.8 17.571ZM15.8576 10.6222L12.2576 11.9934C12.1024 12.0526 12 12.2014 12 12.3678V17.571C12 20.1502 13.42 21.571 16 21.571C18.6168 21.571 20 20.1878 20 17.571V12.3678C20 12.2014 19.8976 12.0526 19.7424 11.9934L16.1424 10.6222C16.0512 10.5878 15.9488 10.5878 15.8576 10.6222Z" fill="white"/>
</g>
<defs>
<linearGradient id="paint0_linear_854_28459" x1="-6.62613" y1="38.6261" x2="38.6261" y2="-6.62613" gradientUnits="userSpaceOnUse">
<stop stop-color="#4D27A8"/>
<stop offset="1" stop-color="#A166FF"/>
</linearGradient>
<clipPath id="clip0_854_28459">
<rect width="32" height="32" fill="white"/>
</clipPath>
</defs>
</svg>
