<svg width="32" height="32" viewBox="0 0 32 32" fill="none" xmlns="http://www.w3.org/2000/svg">
<g clip-path="url(#clip0_854_28174)">
<path d="M32 0H0V32H32V0Z" fill="#693CC5"/>
<path d="M11.6438 18.3212C12.1817 18.5119 12.7459 18.6184 13.3163 18.637C13.6828 18.6668 14.0477 18.5638 14.3446 18.3468C14.4623 18.2391 14.5551 18.1069 14.6163 17.9595C14.6775 17.812 14.7056 17.653 14.6987 17.4935C14.7142 17.3274 14.6924 17.16 14.6348 17.0035C14.5772 16.847 14.4853 16.7054 14.3659 16.589C14.0442 16.374 13.6591 16.2747 13.2736 16.3074C12.8173 16.3115 12.3616 16.34 11.9083 16.3927V15.7868L12.0747 13.1543H15.2875V13.8668H12.8L12.6848 15.6546C12.9661 15.6004 13.2517 15.5719 13.5382 15.5692C14.0803 15.5371 14.6139 15.716 15.0272 16.0684C15.2089 16.248 15.3504 16.4641 15.4423 16.7024C15.5342 16.9407 15.5745 17.1958 15.5606 17.4508C15.57 17.7155 15.5188 17.9788 15.4108 18.2206C15.3028 18.4624 15.141 18.6764 14.9376 18.846C14.4715 19.2177 13.8862 19.4072 13.2907 19.3794C12.7115 19.3824 12.1384 19.2617 11.6096 19.0252L11.6438 18.3212Z" fill="white"/>
<path d="M18.6155 15.761H18.7051H18.7734C19.2807 15.7255 19.7822 15.8876 20.1728 16.2132C20.3463 16.3764 20.482 16.5755 20.5704 16.7966C20.6589 17.0177 20.6979 17.2555 20.6848 17.4932C20.6915 17.7547 20.6381 18.0141 20.5286 18.2516C20.4191 18.489 20.2565 18.6982 20.0534 18.8628C19.575 19.2251 18.9845 19.4079 18.3851 19.3791C17.8217 19.3758 17.2652 19.2552 16.751 19.025V18.321C17.2756 18.5118 17.8272 18.6183 18.3851 18.6367C18.7537 18.6614 19.1192 18.5556 19.4176 18.338C19.5391 18.2331 19.6347 18.1014 19.6969 17.9534C19.7591 17.8054 19.7862 17.645 19.776 17.4847C19.776 16.7764 19.328 16.4223 18.432 16.4223C18.147 16.4208 17.8622 16.435 17.5787 16.465V15.8847L19.4262 13.8666H16.8448V13.1455H20.4288V13.841L18.6155 15.761Z" fill="white"/>
<path d="M16.0001 24.1068C15.925 24.1061 15.8514 24.0855 15.7868 24.0471C14.404 23.2285 12.8919 22.6513 11.3153 22.3404C10.4151 22.1783 7.47534 21.4871 7.47534 19.3538C7.47534 18.3895 7.84654 17.7495 8.32867 16.9388C9.03517 15.9028 9.43586 14.6889 9.48494 13.4359C9.48052 12.2336 9.1278 11.0584 8.46947 10.0524C8.42129 9.97667 8.39824 9.88763 8.4036 9.798C8.40897 9.70837 8.44247 9.62272 8.49934 9.55323L9.18201 8.6999C9.24561 8.62148 9.33496 8.56815 9.43418 8.5494C9.53339 8.53065 9.63604 8.54769 9.72387 8.5975C10.5993 9.10571 11.5917 9.37771 12.6039 9.38684C13.7325 9.40322 14.8364 9.05618 15.7527 8.39697C15.8249 8.34552 15.9114 8.31787 16.0001 8.31787C16.0888 8.31787 16.1753 8.34552 16.2476 8.39697C17.1638 9.05618 18.2678 9.40322 19.3964 9.38684C20.4119 9.37789 21.4075 9.10436 22.2849 8.59323C22.3728 8.54343 22.4754 8.52638 22.5746 8.54513C22.6739 8.56388 22.7632 8.61721 22.8268 8.69563L23.5095 9.54897C23.5663 9.61845 23.5998 9.7041 23.6052 9.79373C23.6106 9.88336 23.5875 9.9724 23.5393 10.0482C22.8806 11.054 22.5278 12.2293 22.5239 13.4316C22.5239 14.9463 23.1383 15.9916 23.6759 16.9346C24.1495 17.7452 24.5292 18.3852 24.5292 19.3495C24.5292 21.4828 21.5937 22.1868 20.6892 22.3362C19.1126 22.6471 17.6005 23.2242 16.2177 24.0428C16.1523 24.0834 16.0771 24.1055 16.0001 24.1068ZM9.34414 9.8135C9.98752 10.8953 10.3279 12.1303 10.3297 13.389C10.3297 15.134 9.62574 16.3458 9.04974 17.3186C8.62307 18.0738 8.32441 18.573 8.32441 19.3068C8.32441 20.8258 10.9313 21.3719 11.4561 21.4658C13.0511 21.783 14.5832 22.3596 15.9916 23.1724C17.4 22.3596 18.9322 21.783 20.5271 21.4658C21.0519 21.3719 23.6588 20.8258 23.6588 19.3068C23.6588 18.573 23.3687 18.0738 22.9335 17.3186C22.366 16.3458 21.6535 15.134 21.6535 13.389C21.6604 12.1287 22.0068 10.8936 22.6561 9.8135L22.3873 9.4807C21.4636 9.95754 20.4402 10.209 19.4007 10.2146C18.1912 10.2299 17.004 9.88854 15.9873 9.23323C14.9707 9.88854 13.7835 10.2299 12.574 10.2146C11.5345 10.209 10.5111 9.95754 9.58734 9.4807L9.34414 9.8135Z" fill="white"/>
<path d="M16 26.6668C15.9023 26.6672 15.8074 26.6341 15.7312 26.5729C14.2959 25.5376 12.6615 24.8112 10.9312 24.4396C7.42404 23.8081 5.3291 21.8796 5.3291 19.3196C5.36356 18.0705 5.75601 16.8577 6.45977 15.8252C6.92484 15.0273 7.3131 14.3361 7.3131 13.4017C7.28719 12.7824 7.13624 12.1747 6.86934 11.6152C6.60243 11.0558 6.2251 10.5561 5.76004 10.1462C5.71201 10.1106 5.67201 10.0653 5.64264 10.0132C5.61327 9.96105 5.59518 9.90336 5.58955 9.84382C5.58392 9.78427 5.59087 9.72421 5.60995 9.66752C5.62903 9.61084 5.65981 9.5588 5.7003 9.51478C5.7003 9.48491 8.20483 6.48118 8.7723 5.70038C8.81028 5.64695 8.86006 5.60299 8.91778 5.57192C8.97549 5.54084 9.03959 5.52348 9.1051 5.52118C9.16997 5.51574 9.23522 5.52522 9.29587 5.54888C9.35651 5.57255 9.41093 5.60977 9.45497 5.65771C9.84335 6.11836 10.322 6.49456 10.8613 6.76314C11.4007 7.03171 11.9893 7.18696 12.591 7.21931C13.7814 7.21931 14.7243 6.69025 15.6331 5.51265C15.6763 5.4607 15.7305 5.41891 15.7917 5.39023C15.8529 5.36155 15.9196 5.34668 15.9872 5.34668C16.0548 5.34668 16.1216 5.36155 16.1828 5.39023C16.244 5.41891 16.2981 5.4607 16.3414 5.51265C17.2544 6.70731 18.1931 7.21931 19.3835 7.21931C19.9852 7.18696 20.5738 7.03171 21.1132 6.76314C21.6525 6.49456 22.1311 6.11836 22.5195 5.65771C22.5635 5.60977 22.618 5.57255 22.6786 5.54888C22.7392 5.52522 22.8045 5.51574 22.8694 5.52118C22.9349 5.52348 22.999 5.54084 23.0567 5.57192C23.1144 5.60299 23.1642 5.64695 23.2022 5.70038C23.7696 6.48118 26.2528 9.48491 26.2742 9.51478C26.3131 9.55943 26.3423 9.6117 26.36 9.66827C26.3776 9.72483 26.3832 9.78444 26.3766 9.84331C26.3632 9.96129 26.3052 10.0697 26.2144 10.1462C25.7494 10.5561 25.372 11.0558 25.1051 11.6152C24.8382 12.1747 24.6873 12.7824 24.6614 13.4017C24.6614 14.3361 25.0624 15.0273 25.5147 15.8252C26.2185 16.8577 26.6109 18.0705 26.6454 19.3196C26.6454 21.8796 24.5504 23.8081 21.0432 24.4396C19.3133 24.8083 17.6797 25.535 16.2475 26.5729C16.177 26.6296 16.0904 26.6625 16 26.6668ZM6.6603 9.76651C7.62516 10.7359 8.18109 12.0387 8.21337 13.406C8.21337 14.5793 7.71417 15.4412 7.23204 16.2732C6.7115 17.1734 6.21657 18.0182 6.21657 19.3238C6.21657 22.447 9.94563 23.3601 11.0891 23.5649C12.8512 23.9299 14.5216 24.6468 16 25.6726C17.4772 24.6473 19.1461 23.9304 20.9067 23.5649C22.0502 23.3601 25.7792 22.447 25.7792 19.3238C25.7792 18.0182 25.2843 17.1905 24.7638 16.2732C24.2816 15.4198 23.7824 14.5665 23.7824 13.406C23.8147 12.0387 24.3706 10.7359 25.3355 9.76651C24.7766 9.08811 23.4838 7.51371 22.8054 6.63905C21.8948 7.54439 20.6754 8.07177 19.392 8.11531C18.7355 8.11719 18.0871 7.96992 17.4959 7.68462C16.9046 7.39933 16.3858 6.98345 15.9787 6.46838C15.5716 6.98345 15.0528 7.39933 14.4616 7.68462C13.8703 7.96992 13.2219 8.11719 12.5654 8.11531C11.282 8.07177 10.0627 7.54439 9.15204 6.63905C8.53337 7.51371 7.21923 9.08811 6.6603 9.76651Z" fill="white"/>
</g>
<defs>
<clipPath id="clip0_854_28174">
<rect width="32" height="32" fill="white"/>
</clipPath>
</defs>
</svg>
