<svg width="32" height="32" viewBox="0 0 32 32" fill="none" xmlns="http://www.w3.org/2000/svg">
<g clip-path="url(#clip0_854_28166)">
<path d="M32 0H0V32H32V0Z" fill="url(#paint0_linear_854_28166)"/>
<path d="M19.729 20.4331H17.7066V19.5798H19.5242C19.8596 19.592 20.1913 19.5076 20.48 19.3366C20.7219 19.1865 20.9224 18.9782 21.0632 18.7308C21.2041 18.4834 21.2808 18.2047 21.2864 17.92C21.286 17.4711 21.1138 17.0393 20.8052 16.7132C20.4966 16.3871 20.0749 16.1915 19.6266 16.1664H16.6058C16.4355 16.169 16.2656 16.1861 16.0981 16.2176C15.7804 16.3161 15.4924 16.4926 15.2606 16.7312C15.0288 16.9697 14.8605 17.2626 14.7712 17.583C14.7243 17.7437 14.7013 17.9105 14.7029 18.0779C14.7021 18.3631 14.7663 18.6447 14.8906 18.9014L14.0373 19.328C13.8484 18.9401 13.752 18.5137 13.7557 18.0822C13.7549 17.8328 13.7879 17.5845 13.8538 17.344C13.9649 16.8536 14.2205 16.4077 14.5877 16.064C14.8056 15.8682 15.0533 15.7083 15.3216 15.5904C15.642 15.4624 15.9753 15.3694 16.3157 15.3131C16.5376 15.3131 16.4778 15.3131 19.7802 15.3131C20.4248 15.3324 21.0377 15.5971 21.4937 16.053C21.9496 16.509 22.2143 17.1219 22.2336 17.7664C22.2336 18.7606 21.9349 19.6352 20.9877 20.1472C20.5986 20.346 20.1659 20.4443 19.729 20.4331ZM16.1706 20.9067C16.3404 20.8024 16.4978 20.6793 16.64 20.5398C16.8783 20.3018 17.0673 20.0191 17.1961 19.7079C17.325 19.3968 17.3912 19.0632 17.3909 18.7264C17.3954 18.644 17.3954 18.5614 17.3909 18.479C17.3568 18.1351 17.2534 17.8017 17.0869 17.4988C16.9204 17.196 16.6944 16.93 16.4224 16.7168L15.872 17.391C16.0542 17.5331 16.2056 17.7108 16.3171 17.9132C16.4286 18.1157 16.4978 18.3386 16.5205 18.5686C16.5205 18.6198 16.5205 18.671 16.5205 18.7307C16.5201 18.9552 16.4755 19.1774 16.3891 19.3846C16.3027 19.5918 16.1763 19.7799 16.017 19.9382C15.9253 20.0306 15.822 20.1109 15.7098 20.1771C15.4449 20.3462 15.1367 20.4351 14.8224 20.4331H11.6181C11.1655 20.4331 10.7314 20.2533 10.4113 19.9332C10.0913 19.6132 9.91145 19.1791 9.91145 18.7264C9.91145 18.2738 10.0913 17.8397 10.4113 17.5197C10.7314 17.1996 11.1655 17.0198 11.6181 17.0198H13.44V16.1664H11.6181C10.9392 16.1664 10.288 16.4362 9.80792 16.9163C9.32783 17.3963 9.05811 18.0475 9.05811 18.7264C9.05811 19.4054 9.32783 20.0565 9.80792 20.5366C10.288 21.0167 10.9392 21.2864 11.6181 21.2864H14.8309C15.3044 21.2888 15.7688 21.1572 16.1706 20.9067V20.9067ZM27.0933 19.0294C27.0933 16.9302 25.856 15.488 23.5989 14.9334C23.424 13.5467 22.6816 12.5398 21.568 12.1984C21.1591 12.0741 20.7259 12.0519 20.3064 12.1337C19.8869 12.2155 19.4938 12.3989 19.1616 12.6678C18.8322 11.9514 18.3754 11.3008 17.8133 10.7478C17.0106 9.92475 15.9827 9.35711 14.8586 9.11606C13.7345 8.87502 12.5642 8.97131 11.4946 9.39286C10.4251 9.8144 9.50378 10.5424 8.8464 11.4856C8.18901 12.4288 7.8248 13.5451 7.79945 14.6944C7.79945 14.8096 7.79945 14.9206 7.79945 15.0358C6.93941 15.2705 6.18431 15.7898 5.65738 16.5089C5.13045 17.228 4.8628 18.1045 4.89812 18.9952C4.89812 19.0976 4.89812 19.1915 4.89812 19.2896C5.01758 21.423 6.80958 22.9974 9.16478 22.9974H22.8181C25.6 22.9931 27.0933 21.5851 27.0933 19.0251V19.0294ZM8.68692 15.2918C8.66479 15.092 8.6534 14.8912 8.65278 14.6902C8.67814 13.7083 8.99307 12.7558 9.55802 11.9524C10.123 11.1489 10.9127 10.5303 11.8281 10.1743C12.7435 9.81827 13.7437 9.74067 14.7031 9.95125C15.6624 10.1618 16.5381 10.6512 17.2202 11.3579C17.8456 11.9779 18.3213 12.7323 18.6112 13.5638C18.6372 13.6361 18.6822 13.7 18.7416 13.7488C18.8009 13.7976 18.8723 13.8295 18.9482 13.8411C19.0235 13.8523 19.1003 13.8432 19.1709 13.8146C19.2414 13.7861 19.303 13.7393 19.3493 13.679C19.5697 13.3754 19.8791 13.1478 20.2345 13.0278C20.59 12.9078 20.974 12.9013 21.3333 13.0091C22.1866 13.2694 22.7157 14.1227 22.7882 15.3003C22.7939 15.3942 22.8304 15.4836 22.8922 15.5546C22.9539 15.6256 23.0374 15.6742 23.1296 15.6928C25.2032 16.1195 26.2528 17.2331 26.2528 19.0251C26.2528 21.0944 25.105 22.1398 22.8394 22.1398H9.18612C7.30878 22.1398 5.87518 20.9195 5.77278 19.2384C5.77278 19.1574 5.77278 19.0763 5.77278 18.991C5.77278 16.7638 7.37278 16.0043 8.33278 15.7654C8.44156 15.7475 8.53919 15.6882 8.6052 15.5999C8.67122 15.5116 8.7005 15.4012 8.68692 15.2918Z" fill="white"/>
</g>
<defs>
<linearGradient id="paint0_linear_854_28166" x1="-6.62742" y1="38.6261" x2="38.6274" y2="-6.6287" gradientUnits="userSpaceOnUse">
<stop stop-color="#4D27A8"/>
<stop offset="1" stop-color="#A166FF"/>
</linearGradient>
<clipPath id="clip0_854_28166">
<rect width="32" height="32" fill="white"/>
</clipPath>
</defs>
</svg>
