<svg width="32" height="32" viewBox="0 0 32 32" fill="none" xmlns="http://www.w3.org/2000/svg">
<g clip-path="url(#clip0_854_28169)">
<path d="M32 0H0V32H32V0Z" fill="url(#paint0_linear_854_28169)"/>
<path d="M20.6122 17.0068C20.5467 17.0062 20.4822 16.9904 20.4238 16.9608C20.3653 16.9312 20.3144 16.8886 20.2751 16.8362C20.0319 16.4991 17.8901 13.5252 17.8901 12.1428C17.8756 11.776 17.9353 11.41 18.0656 11.0668C18.196 10.7236 18.3943 10.4103 18.6487 10.1456C18.9031 9.88098 19.2084 9.67041 19.5461 9.52657C19.8839 9.38273 20.2472 9.30859 20.6143 9.30859C20.9815 9.30859 21.3448 9.38273 21.6826 9.52657C22.0203 9.67041 22.3255 9.88098 22.58 10.1456C22.8344 10.4103 23.0327 10.7236 23.1631 11.0668C23.2934 11.41 23.3531 11.776 23.3386 12.1428C23.3386 13.5167 21.2053 16.4906 20.9535 16.8362C20.9138 16.8892 20.8623 16.9322 20.803 16.9618C20.7438 16.9914 20.6784 17.0068 20.6122 17.0068ZM20.6122 10.2612C20.1117 10.2624 19.632 10.462 19.2784 10.8163C18.9249 11.1707 18.7263 11.6508 18.7263 12.1514C18.7263 12.8767 19.7759 14.6431 20.6122 15.8634C21.4655 14.6431 22.5023 12.8767 22.5023 12.1514C22.5023 11.6501 22.3032 11.1693 21.9487 10.8148C21.5943 10.4604 21.1135 10.2612 20.6122 10.2612V10.2612Z" fill="white"/>
<path d="M20.6123 13.6108C20.3235 13.6108 20.0412 13.5251 19.8011 13.3646C19.5611 13.204 19.3741 12.9759 19.2637 12.709C19.1534 12.4421 19.1248 12.1485 19.1814 11.8653C19.2381 11.5822 19.3775 11.3222 19.582 11.1183C19.7865 10.9144 20.0469 10.7757 20.3302 10.7199C20.6136 10.6641 20.9071 10.6936 21.1736 10.8047C21.4402 10.9158 21.6678 11.1035 21.8276 11.344C21.9875 11.5845 22.0723 11.8671 22.0715 12.1558C22.0715 12.3473 22.0337 12.5368 21.9603 12.7136C21.8869 12.8904 21.7794 13.051 21.6438 13.1862C21.5083 13.3213 21.3474 13.4284 21.1704 13.5013C20.9933 13.5741 20.8037 13.6113 20.6123 13.6108V13.6108ZM20.6123 11.5329C20.4891 11.5329 20.3686 11.5695 20.2662 11.6379C20.1637 11.7063 20.0839 11.8036 20.0368 11.9175C19.9896 12.0313 19.9773 12.1565 20.0013 12.2774C20.0253 12.3982 20.0847 12.5092 20.1718 12.5963C20.2589 12.6834 20.3699 12.7428 20.4907 12.7668C20.6116 12.7908 20.7368 12.7785 20.8507 12.7314C20.9645 12.6842 21.0618 12.6044 21.1302 12.5019C21.1987 12.3995 21.2352 12.2791 21.2352 12.1558C21.2369 12.073 21.2221 11.9906 21.1915 11.9135C21.161 11.8365 21.1154 11.7663 21.0573 11.7071C20.9993 11.6479 20.9301 11.6008 20.8537 11.5687C20.7772 11.5366 20.6952 11.5201 20.6123 11.5201V11.5329Z" fill="white"/>
<path d="M22.7413 22.9332H9.65118C8.6129 22.9451 7.60884 22.5623 6.84211 21.8621C6.07537 21.1619 5.60318 20.1966 5.52104 19.1615C5.52104 19.0548 5.52104 18.9482 5.52104 18.8372C5.47859 17.9787 5.72545 17.1307 6.22208 16.4291C6.71871 15.7274 7.4364 15.2127 8.26024 14.9674C8.26024 14.8564 8.26024 14.7455 8.26024 14.6346C8.2795 13.5665 8.5943 12.5247 9.16971 11.6247C9.74511 10.7246 10.5586 10.0017 11.52 9.5359C12.5561 9.07692 13.7087 8.94945 14.82 9.17095C15.9314 9.39245 16.947 9.9521 17.728 10.7732L17.1349 11.362C16.472 10.6597 15.607 10.1809 14.6598 9.99205C13.7126 9.80322 12.7301 9.9137 11.8485 10.3082C11.0372 10.7065 10.3502 11.3187 9.86141 12.0789C9.37266 12.8391 9.1008 13.7184 9.07518 14.6218C9.07507 14.8187 9.0879 15.0154 9.11358 15.2106C9.12395 15.3167 9.09423 15.4228 9.03027 15.5081C8.96631 15.5934 8.87274 15.6516 8.76798 15.6714C8.05451 15.8212 7.41828 16.2215 6.9745 16.7999C6.53072 17.3783 6.30875 18.0965 6.34878 18.8244C6.34878 18.914 6.34878 19.0079 6.34878 19.0932C6.41684 19.9159 6.79489 20.682 7.40641 21.2365C8.01793 21.791 8.81726 22.0925 9.64264 22.0799H22.6986C22.7882 22.0799 25.6426 21.7898 25.6426 18.8372C25.6426 16.3583 23.5989 15.7396 22.72 15.5903L22.8608 14.7668C23.7141 14.9119 26.4789 15.6202 26.4789 18.8372C26.4874 22.5834 22.7797 22.929 22.7413 22.9332Z" fill="white"/>
<path d="M12.7999 13.653H8.88306V12.7997H12.3732V9.47168H13.2265V13.2263C13.2265 13.3395 13.1816 13.448 13.1016 13.528C13.0215 13.6081 12.913 13.653 12.7999 13.653Z" fill="white"/>
<path d="M7.58614 21.585L7.0144 20.9749L12.2368 16.081V15.5818H8.72107V14.7285H12.6549C12.7681 14.7285 12.8766 14.7735 12.9566 14.8535C13.0367 14.9335 13.0816 15.042 13.0816 15.1552V16.2517C13.0814 16.3092 13.0696 16.366 13.0468 16.4188C13.0241 16.4716 12.9909 16.5193 12.9493 16.5589L7.58614 21.585Z" fill="white"/>
<path d="M8.74226 22.6133L8.16626 22.0074L12.4969 17.8559C12.5574 17.8027 12.6318 17.7676 12.7114 17.7549C12.791 17.7421 12.8725 17.7522 12.9467 17.7839C13.0208 17.8156 13.0844 17.8676 13.1302 17.934C13.1759 18.0004 13.2019 18.0783 13.2052 18.1589V22.5152H12.3732V19.1317L8.74226 22.6133Z" fill="white"/>
<path d="M17.3057 16.4178H14.6689C14.5557 16.4178 14.4472 16.3729 14.3672 16.2928C14.2871 16.2128 14.2422 16.1043 14.2422 15.9911V9.47168H15.0955V15.5815H16.8961V12.373H17.7494V15.9997C17.7483 16.0565 17.7359 16.1124 17.7129 16.1644C17.6899 16.2163 17.6567 16.2631 17.6154 16.302C17.5741 16.341 17.5254 16.3713 17.4722 16.3911C17.419 16.411 17.3624 16.4201 17.3057 16.4178V16.4178Z" fill="white"/>
<path d="M17.3057 20.1725H14.6689C14.5557 20.1725 14.4472 20.1275 14.3672 20.0475C14.2871 19.9675 14.2422 19.859 14.2422 19.7458V17.2797C14.2422 17.1665 14.2871 17.058 14.3672 16.978C14.4472 16.898 14.5557 16.853 14.6689 16.853H17.3057C17.4188 16.853 17.5273 16.898 17.6074 16.978C17.6874 17.058 17.7323 17.1665 17.7323 17.2797V19.7544C17.7301 19.866 17.6841 19.9724 17.6044 20.0506C17.5246 20.1287 17.4173 20.1725 17.3057 20.1725ZM15.087 19.3192H16.8875V17.6978H15.087V19.3192Z" fill="white"/>
<path d="M17.3313 22.933H14.6945C14.5813 22.933 14.4728 22.888 14.3928 22.808C14.3128 22.728 14.2678 22.6195 14.2678 22.5063V21.0258C14.2678 20.9126 14.3128 20.8041 14.3928 20.7241C14.4728 20.6441 14.5813 20.5991 14.6945 20.5991H17.3313C17.4444 20.5991 17.553 20.6441 17.633 20.7241C17.713 20.8041 17.758 20.9126 17.758 21.0258V22.5149C17.7557 22.6265 17.7098 22.7329 17.63 22.8111C17.5502 22.8892 17.443 22.933 17.3313 22.933ZM15.1126 22.0797H16.9132V21.4439H15.1126V22.0797Z" fill="white"/>
<path d="M19.6778 22.6557H18.8245V18.0136C18.8245 17.9004 18.8694 17.7919 18.9494 17.7119C19.0294 17.6319 19.138 17.5869 19.2511 17.5869H26.0778V18.4402H19.6778V22.6557Z" fill="white"/>
</g>
<defs>
<linearGradient id="paint0_linear_854_28169" x1="-6.62613" y1="38.6274" x2="38.6287" y2="-6.62742" gradientUnits="userSpaceOnUse">
<stop stop-color="#4D27A8"/>
<stop offset="1" stop-color="#A166FF"/>
</linearGradient>
<clipPath id="clip0_854_28169">
<rect width="32" height="32" fill="white"/>
</clipPath>
</defs>
</svg>
