<svg width="32" height="32" viewBox="0 0 32 32" fill="none" xmlns="http://www.w3.org/2000/svg">
<g clip-path="url(#clip0_854_28479)">
<path d="M32 0H0V32H32V0Z" fill="url(#paint0_linear_854_28479)"/>
<path fill-rule="evenodd" clip-rule="evenodd" d="M12.9384 25.2246L12.6616 25.975C10.0072 24.9942 7.88085 22.8694 6.82645 20.1438L7.57365 19.8558C8.54405 22.367 10.5 24.3238 12.9384 25.2246ZM7.57365 12.9438L6.82645 12.6558C7.88085 9.931 10.0072 7.8054 12.6616 6.8246L12.9384 7.575C10.5 8.4766 8.54405 10.4334 7.57365 12.9438ZM25.2264 19.8558L25.9736 20.1438C24.92 22.8694 22.7928 24.9942 20.1384 25.975L19.8616 25.2246C22.3 24.3238 24.256 22.367 25.2264 19.8558ZM16.4 26.3998C15.7384 26.3998 15.2 25.8614 15.2 25.1998C15.2 24.5382 15.7384 23.9998 16.4 23.9998C17.0616 23.9998 17.6 24.5382 17.6 25.1998C17.6 25.8614 17.0616 26.3998 16.4 26.3998ZM16.4 23.1998C15.2968 23.1998 14.4 24.0974 14.4 25.1998C14.4 26.303 15.2968 27.1998 16.4 27.1998C17.5032 27.1998 18.4 26.303 18.4 25.1998C18.4 24.0974 17.5032 23.1998 16.4 23.1998ZM6.80005 17.5998C6.13845 17.5998 5.60005 17.0614 5.60005 16.3998C5.60005 15.7382 6.13845 15.1998 6.80005 15.1998C7.46165 15.1998 8.00005 15.7382 8.00005 16.3998C8.00005 17.0614 7.46165 17.5998 6.80005 17.5998ZM8.80005 16.3998C8.80005 15.2974 7.90325 14.3998 6.80005 14.3998C5.69685 14.3998 4.80005 15.2974 4.80005 16.3998C4.80005 17.503 5.69685 18.3998 6.80005 18.3998C7.90325 18.3998 8.80005 17.503 8.80005 16.3998ZM19.8616 7.575L20.1384 6.8246C22.7928 7.8054 24.92 9.931 25.9736 12.6558L25.2264 12.9438C24.256 10.4334 22.3 8.4766 19.8616 7.575ZM16.4 5.5998C17.0616 5.5998 17.6 6.1382 17.6 6.7998C17.6 7.4614 17.0616 7.9998 16.4 7.9998C15.7384 7.9998 15.2 7.4614 15.2 6.7998C15.2 6.1382 15.7384 5.5998 16.4 5.5998ZM16.4 8.7998C17.5032 8.7998 18.4 7.903 18.4 6.7998C18.4 5.6974 17.5032 4.7998 16.4 4.7998C15.2968 4.7998 14.4 5.6974 14.4 6.7998C14.4 7.903 15.2968 8.7998 16.4 8.7998ZM25.2 17.5998C24.5384 17.5998 24 17.0614 24 16.3998C24 15.7382 24.5384 15.1998 25.2 15.1998C25.8616 15.1998 26.4 15.7382 26.4 16.3998C26.4 17.0614 25.8616 17.5998 25.2 17.5998ZM25.2 14.3998C24.0968 14.3998 23.2 15.2974 23.2 16.3998C23.2 17.503 24.0968 18.3998 25.2 18.3998C26.3032 18.3998 27.2 17.503 27.2 16.3998C27.2 15.2974 26.3032 14.3998 25.2 14.3998ZM15.3696 18.9326L13.6784 17.3414L14.2264 16.7582L15.4056 17.8678L18.1464 15.615L18.6544 16.2326L15.3696 18.9326ZM13.6 12.215C13.6 11.6558 14.1976 11.1998 14.9328 11.1998H17.0672C17.8024 11.1998 18.4 11.6558 18.4 12.215V13.5998H13.6V12.215ZM20 14.4438V19.9566C20 19.9806 19.9808 19.9998 19.956 19.9998L12 19.9566L12.044 14.3998L20 14.4438ZM12.8 13.5998H12.044C11.5784 13.5998 11.2 13.9782 11.2 14.4438V19.9566C11.2 20.4214 11.5784 20.7998 12.044 20.7998H19.956C20.4216 20.7998 20.8 20.4214 20.8 19.9566V14.4438C20.8 13.9782 20.4216 13.5998 19.956 13.5998H19.2V12.215C19.2 11.2142 18.2432 10.3998 17.0672 10.3998H14.9328C13.7568 10.3998 12.8 11.2142 12.8 12.215V13.5998Z" fill="white"/>
</g>
<defs>
<linearGradient id="paint0_linear_854_28479" x1="-6.62613" y1="38.6261" x2="38.6261" y2="-6.62613" gradientUnits="userSpaceOnUse">
<stop stop-color="#4D27A8"/>
<stop offset="1" stop-color="#A166FF"/>
</linearGradient>
<clipPath id="clip0_854_28479">
<rect width="32" height="32" fill="white"/>
</clipPath>
</defs>
</svg>
