<svg width="32" height="32" viewBox="0 0 32 32" fill="none" xmlns="http://www.w3.org/2000/svg">
<g clip-path="url(#clip0_854_28168)">
<path d="M32 0H0V32H32V0Z" fill="url(#paint0_linear_854_28168)"/>
<path d="M19.4133 24.9301H12.5866C12.2472 24.9301 11.9216 24.7953 11.6815 24.5552C11.4415 24.3152 11.3066 23.9896 11.3066 23.6501V18.4363C11.3066 18.0968 11.4415 17.7712 11.6815 17.5312C11.9216 17.2911 12.2472 17.1562 12.5866 17.1562H19.4133C19.7528 17.1562 20.0784 17.2911 20.3184 17.5312C20.5585 17.7712 20.6933 18.0968 20.6933 18.4363V23.6459C20.6939 23.8143 20.6612 23.9812 20.5971 24.137C20.533 24.2928 20.4388 24.4344 20.3199 24.5537C20.201 24.673 20.0597 24.7677 19.9041 24.8323C19.7486 24.8969 19.5818 24.9301 19.4133 24.9301ZM12.5866 18.0053C12.4735 18.0053 12.365 18.0503 12.2849 18.1303C12.2049 18.2103 12.16 18.3188 12.16 18.432V23.6459C12.16 23.759 12.2049 23.8675 12.2849 23.9475C12.365 24.0276 12.4735 24.0725 12.5866 24.0725H19.4133C19.5265 24.0725 19.635 24.0276 19.715 23.9475C19.795 23.8675 19.84 23.759 19.84 23.6459V18.4363C19.84 18.3231 19.795 18.2146 19.715 18.1346C19.635 18.0545 19.5265 18.0096 19.4133 18.0096L12.5866 18.0053Z" fill="white"/>
<path d="M19.153 16.6398H18.2997V15.6499C18.2997 15.3105 18.1649 14.9849 17.9248 14.7448C17.6848 14.5048 17.3592 14.3699 17.0197 14.3699H14.9717C14.6322 14.3699 14.3067 14.5048 14.0666 14.7448C13.8266 14.9849 13.6917 15.3105 13.6917 15.6499V16.6398H12.8384V15.6499C12.8384 15.0841 13.0631 14.5415 13.4632 14.1414C13.8633 13.7414 14.4059 13.5166 14.9717 13.5166H17.0197C17.5855 13.5166 18.1281 13.7414 18.5282 14.1414C18.9283 14.5415 19.153 15.0841 19.153 15.6499V16.6398Z" fill="white"/>
<path d="M16.0129 23.4665C15.6666 23.4645 15.3303 23.3505 15.0541 23.1415C14.778 22.9325 14.5769 22.6398 14.4809 22.3071C14.3849 21.9744 14.3991 21.6195 14.5214 21.2956C14.6437 20.9716 14.8676 20.6959 15.1595 20.5097V19.4942C15.1595 19.264 15.251 19.0431 15.4138 18.8803C15.5767 18.7175 15.7975 18.626 16.0278 18.626C16.2581 18.626 16.4789 18.7175 16.6418 18.8803C16.8046 19.0431 16.8961 19.264 16.8961 19.4942V20.5012C17.1851 20.6891 17.4061 20.965 17.5264 21.2881C17.6468 21.6112 17.6602 21.9644 17.5646 22.2956C17.469 22.6269 17.2695 22.9187 16.9955 23.1279C16.7215 23.3372 16.3875 23.4529 16.0427 23.458L16.0129 23.4665ZM16.0129 19.49V20.77C16.0121 20.8547 15.9861 20.9373 15.9383 21.0072C15.8904 21.0771 15.8228 21.1312 15.7441 21.1625C15.5825 21.2279 15.4487 21.3474 15.3656 21.5005C15.2825 21.6537 15.2553 21.831 15.2886 22.0021C15.3219 22.1731 15.4136 22.3273 15.5481 22.4381C15.6826 22.549 15.8514 22.6096 16.0257 22.6096C16.1999 22.6096 16.3688 22.549 16.5033 22.4381C16.6377 22.3273 16.7295 22.1731 16.7628 22.0021C16.7961 21.831 16.7688 21.6537 16.6857 21.5005C16.6026 21.3474 16.4688 21.2279 16.3073 21.1625C16.2294 21.1305 16.1627 21.0761 16.1156 21.0063C16.0685 20.9364 16.0432 20.8542 16.0427 20.77V19.49H16.0129Z" fill="white"/>
<path d="M22.6944 20.8553H21.1114V20.002H22.6602C22.7413 20.002 25.5701 19.7119 25.5701 16.7935C25.5701 14.3444 23.5477 13.7343 22.6773 13.5849C22.5668 13.5661 22.4681 13.5045 22.4026 13.4135C22.3372 13.3224 22.3101 13.2093 22.3274 13.0985C22.3274 13.0985 22.3274 13.0431 22.3274 13.0388C22.4038 12.6683 22.3456 12.2827 22.1634 11.9512C21.9813 11.6197 21.687 11.3639 21.3333 11.2297C20.625 10.914 19.6266 10.9481 19.153 11.6137C19.1056 11.6799 19.0402 11.7312 18.9646 11.7614C18.889 11.7917 18.8064 11.7996 18.7264 11.7844C18.6492 11.7731 18.5765 11.741 18.5163 11.6913C18.4562 11.6417 18.4107 11.5765 18.385 11.5028C18.1221 10.7055 17.6848 9.9767 17.105 9.36946C16.4482 8.67301 15.5909 8.19821 14.6521 8.0109C13.7132 7.82359 12.7394 7.93306 11.8656 8.32413C11.0633 8.71828 10.3838 9.32395 9.9003 10.0758C9.41684 10.8277 9.14777 11.6973 9.1221 12.5908C9.12283 12.7847 9.13423 12.9784 9.15623 13.1711C9.17292 13.2781 9.14826 13.3875 9.08725 13.4771C9.02623 13.5666 8.93344 13.6296 8.8277 13.6532C8.1213 13.7992 7.49076 14.1939 7.05072 14.7655C6.61068 15.3371 6.39037 16.0476 6.42983 16.7679C6.42983 16.8617 6.42983 16.9513 6.42983 17.0367C6.4988 17.8503 6.87337 18.6076 7.47816 19.1562C8.08296 19.7048 8.87309 20.0039 9.68956 19.9935H10.88V20.8468H9.6981C8.66507 20.8576 7.66641 20.4761 6.90378 19.7792C6.14115 19.0823 5.67137 18.122 5.5893 17.0921C5.5893 16.9855 5.5893 16.8788 5.5893 16.7679C5.54636 15.9158 5.79097 15.074 6.28385 14.3776C6.77673 13.6812 7.48929 13.1707 8.30716 12.9279C8.30716 12.8169 8.30716 12.7103 8.30716 12.6036C8.32932 11.5412 8.64626 10.5058 9.22262 9.61301C9.79897 8.72023 10.6121 8.00516 11.5712 7.54759C12.6008 7.08983 13.7469 6.96179 14.8522 7.18102C15.9576 7.40025 16.968 7.95602 17.745 8.77213C18.2797 9.30731 18.7133 9.93461 19.025 10.6239C19.4272 10.373 19.8855 10.2265 20.3586 10.1974C20.8317 10.1684 21.3045 10.2577 21.7344 10.4575C22.2085 10.6415 22.6122 10.971 22.8874 11.3988C23.1626 11.8265 23.2952 12.3305 23.2661 12.8383C24.3626 13.1156 26.4661 14.0201 26.4661 16.802C26.4234 19.7673 23.9829 20.7487 22.6944 20.8553Z" fill="white"/>
</g>
<defs>
<linearGradient id="paint0_linear_854_28168" x1="-6.62613" y1="38.6261" x2="38.6261" y2="-6.62613" gradientUnits="userSpaceOnUse">
<stop stop-color="#4D27A8"/>
<stop offset="1" stop-color="#A166FF"/>
</linearGradient>
<clipPath id="clip0_854_28168">
<rect width="32" height="32" fill="white"/>
</clipPath>
</defs>
</svg>
