<svg width="32" height="32" viewBox="0 0 32 32" fill="none" xmlns="http://www.w3.org/2000/svg">
<g clip-path="url(#clip0_854_28448)">
<path d="M32 0H0V32H32V0Z" fill="url(#paint0_linear_854_28448)"/>
<path fill-rule="evenodd" clip-rule="evenodd" d="M12.1952 7.84878L8.6128 5.12638L9.0976 4.48958L12.6792 7.21198L12.1952 7.84878ZM19.3504 7.83918L18.8664 7.20238L22.448 4.47998L22.9328 5.11678L19.3504 7.83918ZM22.448 13.9768L18.8664 11.2536L19.3504 10.6168L22.9328 13.34L22.448 13.9768ZM20 9.58798H25.6V8.78798H20V9.58798ZM12.1952 10.6272L12.6792 11.264L9.0976 13.9864L8.6128 13.3496L12.1952 10.6272ZM6.4 9.58798H12V8.78798H6.4V9.58798ZM19.2 26.2328V19.188H12.8V26.2216C9.3016 25.9984 7.132 25.448 6.8016 25.1032C6.9616 20.2112 10.944 16.388 15.8944 16.388C20.6456 16.388 24.7064 20.3592 24.9784 25.2544C24.6352 25.5992 22.5336 26.0472 19.2 26.2328ZM18.4 26.2712C17.644 26.3016 16.8376 26.32 15.9768 26.32C15.132 26.32 14.3432 26.2992 13.6 26.2648V19.988H18.4V26.2712ZM14.4 9.88318C14.4 9.00078 15.1176 8.28318 16 8.28318C16.8816 8.28318 17.6 9.00078 17.6 9.88318C17.6 10.7656 16.8816 11.4832 16 11.4832C15.1176 11.4832 14.4 10.7656 14.4 9.88318ZM16.4 15.6144V12.2424C17.5328 12.0512 18.4 11.0696 18.4 9.88318C18.4 8.55998 17.3232 7.48318 16 7.48318C14.6768 7.48318 13.6 8.55998 13.6 9.88318C13.6 11.0696 14.4672 12.0512 15.6 12.2424V15.6024C10.3288 15.7528 6.136 19.8856 6 25.1576C6 26.7672 13.2016 27.12 15.9768 27.12C17.6136 27.12 25.7816 27.0328 25.7816 25.3072L25.7808 25.288C25.5336 20.1152 21.3736 15.8872 16.4 15.6144Z" fill="white"/>
</g>
<defs>
<linearGradient id="paint0_linear_854_28448" x1="-6.62613" y1="38.6261" x2="38.6261" y2="-6.62613" gradientUnits="userSpaceOnUse">
<stop stop-color="#4D27A8"/>
<stop offset="1" stop-color="#A166FF"/>
</linearGradient>
<clipPath id="clip0_854_28448">
<rect width="32" height="32" fill="white"/>
</clipPath>
</defs>
</svg>
