<svg width="32" height="32" viewBox="0 0 32 32" fill="none" xmlns="http://www.w3.org/2000/svg">
<g clip-path="url(#clip0_854_28167)">
<path d="M32 0H0V32H32V0Z" fill="url(#paint0_linear_854_28167)"/>
<path d="M9.05826 11.1913L8.63159 10.4403L11.1361 9.07925L11.5628 9.83018L9.05826 11.1913ZM13.0604 9.01098L12.6337 8.26005L14.878 7.03125L15.3047 7.78218L13.0604 9.01098Z" fill="white"/>
<path d="M15.3601 15.1851L13.0987 14.0033L13.4913 13.2481L15.7611 14.4299L15.3601 15.1851ZM11.5841 13.2267L9.31421 12.0321L9.70674 11.2769L11.9766 12.4587L11.5841 13.2267Z" fill="white"/>
<path d="M17.0324 15.1339L16.6399 14.3659L18.9567 13.2267L19.3322 13.9904L17.0324 15.1339ZM20.8724 13.2523L20.4799 12.4886L22.7754 11.3579L23.1508 12.1259L20.8724 13.2523Z" fill="white"/>
<path d="M15.1082 25.2415L12.5482 23.8889L12.945 23.1337L15.505 24.4863L15.1082 25.2415ZM11.2682 23.2532L9.01538 22.0415L9.42071 21.2905L11.6735 22.5023L11.2682 23.2532Z" fill="white"/>
<path d="M8.97711 12.3052H8.12378V15.5905H8.97711V12.3052Z" fill="white"/>
<path d="M16.4693 20.8169H15.616V24.179H16.4693V20.8169Z" fill="white"/>
<path d="M8.53335 12.6465C8.22743 12.6453 7.93442 12.523 7.7185 12.3063C7.50258 12.0896 7.38135 11.7961 7.38135 11.4902C7.38211 11.3362 7.41386 11.1839 7.4747 11.0425C7.53554 10.901 7.62423 10.7732 7.73548 10.6667C7.95625 10.4512 8.25255 10.3306 8.56108 10.3306C8.86961 10.3306 9.16591 10.4512 9.38668 10.6667V10.6667C9.49479 10.7731 9.58064 10.9 9.63924 11.0399C9.69785 11.1798 9.72802 11.33 9.72802 11.4817C9.72802 11.6334 9.69785 11.7835 9.63924 11.9234C9.58064 12.0634 9.49479 12.1902 9.38668 12.2966C9.27702 12.4116 9.14434 12.5022 8.99731 12.5625C8.85027 12.6228 8.69218 12.6514 8.53335 12.6465V12.6465ZM8.53335 11.1915C8.49381 11.1904 8.45444 11.1973 8.41767 11.2119C8.3809 11.2265 8.3475 11.2484 8.31953 11.2764C8.29156 11.3044 8.2696 11.3378 8.25501 11.3745C8.24042 11.4113 8.2335 11.4507 8.23468 11.4902C8.23412 11.5296 8.24137 11.5688 8.25601 11.6054C8.27066 11.642 8.29241 11.6754 8.32001 11.7035C8.36237 11.7456 8.41619 11.7741 8.47473 11.7857C8.53326 11.7972 8.5939 11.7912 8.64904 11.7684C8.70418 11.7457 8.75137 11.7071 8.78468 11.6576C8.81799 11.6081 8.83594 11.5499 8.83628 11.4902C8.83407 11.4104 8.80211 11.3343 8.74668 11.2769C8.68881 11.2226 8.61265 11.1922 8.53335 11.1915V11.1915Z" fill="white"/>
<path d="M8.53303 22.1867C8.30511 22.1857 8.08259 22.1173 7.89342 21.9902C7.70426 21.8631 7.55687 21.6829 7.4698 21.4722C7.38272 21.2616 7.35983 21.03 7.40401 20.8064C7.44819 20.5828 7.55746 20.3772 7.71809 20.2155C7.93784 20.0063 8.22962 19.8896 8.53303 19.8896C8.83643 19.8896 9.12822 20.0063 9.34796 20.2155V20.2155C9.45619 20.3223 9.54214 20.4495 9.60079 20.5898C9.65945 20.73 9.68966 20.8806 9.68966 21.0326C9.68966 21.1846 9.65945 21.3352 9.60079 21.4754C9.54214 21.6157 9.45619 21.7429 9.34796 21.8497C9.24134 21.9572 9.11436 22.0424 8.97443 22.1003C8.83451 22.1581 8.68445 22.1875 8.53303 22.1867V22.1867ZM8.53303 20.7318C8.49344 20.7318 8.45426 20.7397 8.41774 20.7549C8.38122 20.7702 8.3481 20.7926 8.32031 20.8208C8.29252 20.849 8.27061 20.8824 8.25586 20.9191C8.2411 20.9559 8.23379 20.9952 8.23436 21.0347C8.23435 21.0941 8.25202 21.1521 8.2851 21.2013C8.31819 21.2506 8.36519 21.2889 8.42012 21.3113C8.47505 21.3337 8.53542 21.3393 8.59352 21.3273C8.65163 21.3152 8.70484 21.2862 8.74636 21.2438C8.77528 21.2163 8.7983 21.1832 8.81403 21.1465C8.82977 21.1099 8.83788 21.0704 8.83788 21.0305C8.83788 20.9906 8.82977 20.9511 8.81403 20.9144C8.7983 20.8777 8.77528 20.8446 8.74636 20.8171V20.8171C8.6868 20.7676 8.6103 20.7431 8.53303 20.7489V20.7318Z" fill="white"/>
<path d="M16.0427 26.0267C15.8533 26.0265 15.6668 25.9797 15.4998 25.8904C15.3328 25.801 15.1905 25.6719 15.0853 25.5143C14.9801 25.3568 14.9154 25.1758 14.8969 24.9873C14.8784 24.7988 14.9066 24.6087 14.9791 24.4337C15.0516 24.2587 15.1661 24.1043 15.3125 23.9842C15.4589 23.864 15.6327 23.7818 15.8184 23.7448C16.0042 23.7078 16.1962 23.7172 16.3774 23.7722C16.5587 23.8271 16.7236 23.9259 16.8576 24.0597C17.0188 24.2208 17.1287 24.4262 17.1732 24.6497C17.2177 24.8733 17.1949 25.105 17.1076 25.3156C17.0204 25.5262 16.8726 25.7062 16.683 25.8327C16.4935 25.9593 16.2706 26.0268 16.0427 26.0267ZM16.0427 24.576C15.9634 24.5766 15.8872 24.6071 15.8293 24.6613C15.7867 24.7036 15.7576 24.7576 15.7457 24.8164C15.7338 24.8752 15.7397 24.9363 15.7626 24.9918C15.7854 25.0473 15.8242 25.0947 15.8741 25.1281C15.924 25.1615 15.9826 25.1793 16.0427 25.1793C16.1027 25.1793 16.1614 25.1615 16.2112 25.1281C16.2611 25.0947 16.2999 25.0473 16.3228 24.9918C16.3456 24.9363 16.3515 24.8752 16.3396 24.8164C16.3277 24.7576 16.2986 24.7036 16.256 24.6613C16.1988 24.6055 16.1226 24.5735 16.0427 24.5717V24.576Z" fill="white"/>
<path d="M16.0426 16.4566C15.7749 16.4568 15.5155 16.3642 15.3085 16.1945C15.1015 16.0249 14.9598 15.7886 14.9075 15.5261C14.8552 15.2636 14.8957 14.9911 15.0219 14.7551C15.1481 14.5191 15.3523 14.3341 15.5996 14.2318C15.8469 14.1295 16.1221 14.1162 16.3781 14.1941C16.6342 14.272 16.8553 14.4364 17.0037 14.6591C17.1521 14.8818 17.2187 15.1492 17.192 15.4155C17.1654 15.6818 17.0472 15.9306 16.8575 16.1195C16.6411 16.3351 16.3481 16.4563 16.0426 16.4566V16.4566ZM16.0426 15.0016C15.9838 15.0028 15.9266 15.021 15.878 15.0541C15.8294 15.0872 15.7914 15.1337 15.7688 15.188C15.7462 15.2423 15.7399 15.302 15.7506 15.3598C15.7613 15.4176 15.7887 15.4711 15.8293 15.5136C15.8865 15.5689 15.963 15.5998 16.0426 15.5998C16.1222 15.5998 16.1987 15.5689 16.2559 15.5136C16.2965 15.4711 16.3239 15.4176 16.3346 15.3598C16.3453 15.302 16.339 15.2423 16.3164 15.188C16.2938 15.1337 16.2558 15.0872 16.2072 15.0541C16.1586 15.021 16.1014 15.0028 16.0426 15.0016V15.0016Z" fill="white"/>
<path d="M23.4666 22.1867C23.3151 22.188 23.1649 22.1588 23.0249 22.1009C22.8849 22.043 22.758 21.9576 22.6517 21.8497C22.544 21.7426 22.4585 21.6153 22.4001 21.4751C22.3418 21.3349 22.3118 21.1845 22.3118 21.0326C22.3118 20.8807 22.3418 20.7304 22.4001 20.5901C22.4585 20.4499 22.544 20.3226 22.6517 20.2155C22.8714 20.0063 23.1632 19.8896 23.4666 19.8896C23.77 19.8896 24.0618 20.0063 24.2815 20.2155C24.4422 20.3772 24.5514 20.5828 24.5956 20.8064C24.6398 21.03 24.6169 21.2616 24.5298 21.4722C24.4428 21.6829 24.2954 21.8631 24.1062 21.9902C23.917 22.1173 23.6945 22.1857 23.4666 22.1867V22.1867ZM23.4666 20.7318C23.3965 20.7314 23.3284 20.7553 23.274 20.7995C23.2195 20.8437 23.1821 20.9054 23.1681 20.974C23.154 21.0427 23.1642 21.1142 23.197 21.1762C23.2297 21.2382 23.2829 21.2869 23.3475 21.314C23.4122 21.3412 23.4842 21.3451 23.5514 21.325C23.6186 21.305 23.6768 21.2623 23.716 21.2042C23.7552 21.1461 23.773 21.0761 23.7665 21.0063C23.7599 20.9365 23.7293 20.8712 23.6799 20.8214C23.621 20.7703 23.5445 20.7443 23.4666 20.7489V20.7318Z" fill="white"/>
<path d="M23.4667 12.6462C23.3149 12.6469 23.1646 12.6171 23.0245 12.5584C22.8845 12.4998 22.7578 12.4136 22.6518 12.3049C22.5442 12.1982 22.4588 12.0712 22.4005 11.9314C22.3423 11.7915 22.3123 11.6415 22.3123 11.4899C22.3123 11.3384 22.3423 11.1884 22.4005 11.0485C22.4588 10.9087 22.5442 10.7817 22.6518 10.675C22.8715 10.4658 23.1633 10.3491 23.4667 10.3491C23.7701 10.3491 24.0619 10.4658 24.2817 10.675V10.675C24.4969 10.8916 24.6177 11.1846 24.6177 11.4899C24.6177 11.7953 24.4969 12.0883 24.2817 12.3049C24.1757 12.4136 24.0489 12.4998 23.9089 12.5584C23.7689 12.6171 23.6185 12.6469 23.4667 12.6462V12.6462ZM23.4667 11.1913C23.3874 11.1919 23.3113 11.2224 23.2534 11.2766C23.1981 11.3339 23.1672 11.4104 23.1672 11.4899C23.1672 11.5695 23.1981 11.646 23.2534 11.7033C23.3101 11.7596 23.3868 11.7911 23.4667 11.7911C23.5466 11.7911 23.6233 11.7596 23.6801 11.7033C23.7353 11.646 23.7662 11.5695 23.7662 11.4899C23.7662 11.4104 23.7353 11.3339 23.6801 11.2766C23.6222 11.2224 23.546 11.1919 23.4667 11.1913V11.1913Z" fill="white"/>
<path d="M16.0427 8.28154C15.8533 8.28142 15.6668 8.23462 15.4998 8.14525C15.3328 8.05589 15.1905 7.92674 15.0853 7.76923C14.9801 7.61171 14.9154 7.4307 14.8969 7.24221C14.8784 7.05372 14.9066 6.86357 14.9791 6.68859C15.0516 6.51362 15.1661 6.35922 15.3125 6.23906C15.4589 6.1189 15.6327 6.03669 15.8184 5.99971C16.0042 5.96273 16.1962 5.97212 16.3774 6.02704C16.5587 6.08197 16.7236 6.18074 16.8576 6.31461C17.0188 6.47572 17.1287 6.68105 17.1732 6.9046C17.2177 7.12816 17.1949 7.3599 17.1076 7.57048C17.0204 7.78107 16.8726 7.96104 16.683 8.08761C16.4935 8.21419 16.2706 8.28168 16.0427 8.28154ZM16.0427 6.83087C15.9634 6.83151 15.8872 6.86198 15.8293 6.91621C15.7867 6.95847 15.7576 7.01245 15.7457 7.07128C15.7338 7.13011 15.7397 7.19114 15.7626 7.24664C15.7854 7.30214 15.8242 7.34959 15.8741 7.38299C15.924 7.41639 15.9826 7.43421 16.0427 7.43421C16.1027 7.43421 16.1614 7.41639 16.2112 7.38299C16.2611 7.34959 16.2999 7.30214 16.3228 7.24664C16.3456 7.19114 16.3515 7.13011 16.3396 7.07128C16.3277 7.01245 16.2986 6.95847 16.256 6.91621C16.1988 6.86042 16.1226 6.8284 16.0427 6.82661V6.83087Z" fill="white"/>
<path d="M8.97711 16.4438H8.12378V20.1345H8.97711V16.4438Z" fill="white"/>
<path d="M23.8294 12.3052H22.9761V15.5905H23.8294V12.3052Z" fill="white"/>
<path d="M23.8294 16.4438H22.9761V20.1345H23.8294V16.4438Z" fill="white"/>
<path d="M20.5441 9.81312L20.9708 9.06645L23.4199 10.372L22.9932 11.123L20.5441 9.81312ZM16.4524 7.59872L16.8791 6.85205L19.4732 8.24725L19.0465 8.99392L16.4524 7.59872Z" fill="white"/>
<path d="M16.4693 16.1064H15.616V19.4814H16.4693V16.1064Z" fill="white"/>
<path d="M16.6016 24.4907L19.0677 23.2107L19.4645 23.9701L16.9984 25.2501L16.6016 24.4907ZM20.3306 22.5749L22.7712 21.2949L23.1978 22.0459L20.7573 23.3259L20.3306 22.5749Z" fill="white"/>
</g>
<defs>
<linearGradient id="paint0_linear_854_28167" x1="-6.62919" y1="38.6287" x2="38.6256" y2="-6.62613" gradientUnits="userSpaceOnUse">
<stop stop-color="#4D27A8"/>
<stop offset="1" stop-color="#A166FF"/>
</linearGradient>
<clipPath id="clip0_854_28167">
<rect width="32" height="32" fill="white"/>
</clipPath>
</defs>
</svg>
