<svg width="32" height="32" viewBox="0 0 32 32" fill="none" xmlns="http://www.w3.org/2000/svg">
<g clip-path="url(#clip0_854_28453)">
<path d="M32 0H0V32H32V0Z" fill="url(#paint0_linear_854_28453)"/>
<path fill-rule="evenodd" clip-rule="evenodd" d="M14.4216 20.3998C14.4216 21.0614 14.96 21.5998 15.6216 21.5998C16.2832 21.5998 16.8216 21.0614 16.8216 20.3998C16.8216 19.7382 16.2832 19.1998 15.6216 19.1998C14.96 19.1998 14.4216 19.7382 14.4216 20.3998ZM13.6216 20.3998C13.6216 19.2974 14.5184 18.3998 15.6216 18.3998C16.7248 18.3998 17.6216 19.2974 17.6216 20.3998C17.6216 21.3654 16.9336 22.1734 16.0216 22.359V23.9998H15.2216V22.359C14.3096 22.1734 13.6216 21.3654 13.6216 20.3998ZM23.5048 7.7166L22.9384 8.283L25.056 10.3998H6.18721L8.30481 8.283L7.73841 7.7166L4.65601 10.7998L7.73841 13.883L8.30481 13.3166L6.18721 11.1998H25.056L22.9384 13.3166L23.5048 13.883L26.5872 10.7998L23.5048 7.7166ZM8.82161 26.3998H22.4216V15.9998H8.82161V26.3998ZM20.0216 15.1998H23.2216V27.1998H8.02161V15.1998H11.2216V12.0662H12.0216V15.1998H19.2216V11.9998H20.0216V15.1998ZM12.0216 9.5998H11.2216V9.1998C11.2216 6.7734 13.196 4.7998 15.6216 4.7998C18.0472 4.7998 20.0216 6.7734 20.0216 9.1998V9.5998H19.2216V9.1998C19.2216 7.215 17.6064 5.5998 15.6216 5.5998C13.6368 5.5998 12.0216 7.215 12.0216 9.1998V9.5998Z" fill="white"/>
</g>
<defs>
<linearGradient id="paint0_linear_854_28453" x1="-6.62613" y1="38.6261" x2="38.6261" y2="-6.62613" gradientUnits="userSpaceOnUse">
<stop stop-color="#4D27A8"/>
<stop offset="1" stop-color="#A166FF"/>
</linearGradient>
<clipPath id="clip0_854_28453">
<rect width="32" height="32" fill="white"/>
</clipPath>
</defs>
</svg>
