<svg width="32" height="32" viewBox="0 0 32 32" fill="none" xmlns="http://www.w3.org/2000/svg">
<g clip-path="url(#clip0_854_28464)">
<path d="M32 0H0V32H32V0Z" fill="url(#paint0_linear_854_28464)"/>
<path fill-rule="evenodd" clip-rule="evenodd" d="M21.044 12.6902C20.5192 12.967 19.9072 13.1942 19.2368 13.3686C19.38 14.059 19.4648 14.8102 19.4872 15.5998H21.24H22.0176C21.984 15.0926 21.8848 14.6038 21.7336 14.1382C21.5672 13.6222 21.3368 13.135 21.044 12.6902ZM21.12 19.1846C21.376 18.775 21.584 18.3326 21.736 17.8654C21.888 17.399 21.984 16.9086 22.0176 16.3998H21.24H19.4872C19.4664 17.1318 19.3904 17.8278 19.2656 18.475C19.9568 18.6566 20.5864 18.8942 21.12 19.1846ZM20.652 19.8446C20.1976 19.6062 19.6696 19.4078 19.0888 19.2534C18.8184 20.2502 18.4256 21.0926 17.9472 21.7102C19.0136 21.3454 19.948 20.695 20.652 19.8446ZM16 23.1998C15.1176 23.1998 14.4 23.9174 14.4 24.7998C14.4 25.6822 15.1176 26.3998 16 26.3998C16.8816 26.3998 17.6 25.6822 17.6 24.7998C17.6 23.9174 16.8816 23.1998 16 23.1998ZM14.052 21.7102C13.5736 21.0926 13.1808 20.2502 12.9104 19.2534C12.3296 19.4078 11.8016 19.6062 11.3464 19.8438C12.0504 20.695 12.9856 21.3454 14.052 21.7102ZM12.7336 18.475C12.6088 17.8278 12.5328 17.131 12.512 16.3998H10.7592H9.98165C10.0152 16.9086 10.1112 17.399 10.2632 17.8654C10.4152 18.3326 10.6232 18.7742 10.8784 19.1838C11.4128 18.8934 12.0432 18.6566 12.7336 18.475ZM10.9552 12.6902C10.6624 13.135 10.432 13.6222 10.2656 14.1382C10.1152 14.6038 10.0152 15.0926 9.98165 15.5998H10.7592H12.512C12.5344 14.8102 12.6192 14.059 12.7624 13.3686C12.092 13.1942 11.4808 12.967 10.9552 12.6902ZM11.4496 12.043C11.8928 12.2646 12.4 12.4494 12.9552 12.5942C13.2232 11.6646 13.5984 10.8758 14.0512 10.291C13.0344 10.639 12.1408 11.2494 11.4496 12.043ZM16 8.7998C16.8816 8.7998 17.6 8.0822 17.6 7.1998C17.6 6.3174 16.8816 5.5998 16 5.5998C15.1176 5.5998 14.4 6.3174 14.4 7.1998C14.4 8.0822 15.1176 8.7998 16 8.7998ZM16 12.9662C16.7872 12.9662 17.5512 12.8942 18.2648 12.7646C17.9856 11.8126 17.5912 11.0758 17.1528 10.5934C16.788 10.1926 16.3944 9.9646 16.0056 9.9622C16.004 9.9622 16.0016 9.9622 16 9.9622C15.9976 9.9622 15.9952 9.9622 15.9936 9.9622C15.6056 9.9646 15.2112 10.1926 14.8464 10.5934C14.4088 11.0758 14.0144 11.8126 13.7344 12.7646C14.448 12.8942 15.212 12.9662 16 12.9662ZM18.688 15.5998C18.6656 14.8558 18.588 14.163 18.4608 13.5406C17.6832 13.6854 16.852 13.7662 16 13.7662C15.1472 13.7662 14.316 13.6854 13.5392 13.5406C13.4112 14.163 13.3336 14.8558 13.3112 15.5998H18.688ZM15.9992 18.8702C15.1944 18.8702 14.4144 18.9454 13.6888 19.0798C13.9704 20.1078 14.384 20.8982 14.8464 21.407C15.2128 21.8094 15.6096 22.0382 16 22.0382C16.3896 22.0382 16.7864 21.8094 17.1528 21.407C17.6152 20.8982 18.0288 20.1078 18.3104 19.0798C17.584 18.9454 16.804 18.8702 15.9992 18.8702ZM18.4888 18.3014C18.5984 17.7198 18.668 17.083 18.688 16.3998H13.3112C13.3312 17.083 13.4008 17.7198 13.5104 18.3006C14.296 18.1526 15.136 18.0702 15.9992 18.0702C16.8624 18.0702 17.7032 18.1526 18.4888 18.3014ZM17.948 10.291C18.4016 10.8758 18.776 11.6646 19.044 12.5942C19.5992 12.4494 20.1064 12.2646 20.5496 12.043C19.8584 11.2494 18.9648 10.639 17.948 10.291ZM23.2 15.9998C23.2 16.8822 23.9176 17.5998 24.8 17.5998C25.6816 17.5998 26.4 16.8822 26.4 15.9998C26.4 15.1174 25.6816 14.3998 24.8 14.3998C23.9176 14.3998 23.2 15.1174 23.2 15.9998ZM8.80005 15.9998C8.80005 15.1174 8.08165 14.3998 7.20005 14.3998C6.31765 14.3998 5.60005 15.1174 5.60005 15.9998C5.60005 16.8822 6.31765 17.5998 7.20005 17.5998C8.08165 17.5998 8.80005 16.8822 8.80005 15.9998ZM22.3032 13.4158C22.4864 13.8622 22.6416 14.3238 22.7272 14.811C23.1424 14.091 23.9104 13.5998 24.8 13.5998C26.1232 13.5998 27.2 14.6766 27.2 15.9998C27.2 17.3238 26.1232 18.3998 24.8 18.3998C23.9104 18.3998 23.1424 17.9086 22.7272 17.1886C22.6416 17.6766 22.4864 18.1374 22.3032 18.5838C21.6096 20.2694 20.2696 21.6102 18.584 22.3038C18.1376 22.487 17.676 22.6422 17.1888 22.7278C17.9088 23.143 18.4 23.911 18.4 24.7998C18.4 26.1238 17.3232 27.1998 16 27.1998C14.676 27.1998 13.6 26.1238 13.6 24.7998C13.6 23.911 14.0912 23.1422 14.8104 22.7278C14.3232 22.6422 13.8616 22.487 13.416 22.3038C11.7296 21.6102 10.3896 20.2702 9.69605 18.5838C9.51285 18.1374 9.35765 17.6766 9.27205 17.1886C8.85685 17.9086 8.08885 18.3998 7.20005 18.3998C5.87605 18.3998 4.80005 17.3238 4.80005 15.9998C4.80005 14.6766 5.87605 13.5998 7.20005 13.5998C8.08885 13.5998 8.85685 14.091 9.27205 14.811C9.35765 14.3238 9.51285 13.8622 9.69605 13.4158C10.3896 11.7302 11.7304 10.3902 13.416 9.6966C13.8624 9.5134 14.3232 9.359 14.8112 9.2726C14.0912 8.8582 13.6 8.0894 13.6 7.1998C13.6 5.8766 14.676 4.7998 16 4.7998C17.3232 4.7998 18.4 5.8766 18.4 7.1998C18.4 8.0894 17.908 8.8582 17.188 9.2726C17.676 9.3582 18.1368 9.5134 18.5832 9.6966C20.2688 10.3902 21.6096 11.7302 22.3032 13.4158ZM19.432 23.7718C19.5112 24.0358 19.5624 24.3094 19.5792 24.595C21.8376 23.6502 23.6496 21.8374 24.5944 19.579C24.3096 19.563 24.036 19.5118 23.772 19.4326C22.9144 21.3638 21.3632 22.915 19.432 23.7718ZM8.22725 19.4326C7.96405 19.5118 7.69045 19.563 7.40485 19.579C8.34965 21.8374 10.1616 23.6502 12.42 24.595C12.4368 24.3094 12.488 24.0358 12.5672 23.7718C10.636 22.915 9.08485 21.3638 8.22725 19.4326ZM12.5672 8.2278C12.488 7.9646 12.4368 7.691 12.42 7.4054C10.1616 8.3502 8.34965 10.1622 7.40485 12.4206C7.69045 12.4374 7.96405 12.4886 8.22725 12.5678C9.08485 10.6366 10.636 9.0854 12.5672 8.2278ZM19.432 8.2278C19.5112 7.9646 19.5624 7.691 19.5792 7.4054C21.8376 8.3502 23.6496 10.1622 24.5944 12.4206C24.3096 12.4374 24.036 12.4886 23.772 12.5678C22.9144 10.6366 21.3632 9.0854 19.432 8.2278Z" fill="white"/>
</g>
<defs>
<linearGradient id="paint0_linear_854_28464" x1="-6.62613" y1="38.6261" x2="38.6261" y2="-6.62613" gradientUnits="userSpaceOnUse">
<stop stop-color="#4D27A8"/>
<stop offset="1" stop-color="#A166FF"/>
</linearGradient>
<clipPath id="clip0_854_28464">
<rect width="32" height="32" fill="white"/>
</clipPath>
</defs>
</svg>
