<svg width="32" height="32" viewBox="0 0 32 32" fill="none" xmlns="http://www.w3.org/2000/svg">
<g clip-path="url(#clip0_854_28171)">
<path d="M32 0H0V32H32V0Z" fill="url(#paint0_linear_854_28171)"/>
<path d="M16.0599 21.7602C14.6479 21.761 13.2674 21.3431 12.093 20.5592C10.9186 19.7754 10.003 18.6609 9.46207 17.3566C8.92114 16.0524 8.77918 14.617 9.05412 13.2321C9.32907 11.8471 10.0086 10.5748 11.0067 9.57611C12.0048 8.5774 13.2767 7.89713 14.6615 7.62136C16.0462 7.34559 17.4817 7.4867 18.7863 8.02684C20.0908 8.56698 21.2059 9.48189 21.9905 10.6558C22.775 11.8298 23.1938 13.2101 23.1938 14.622C23.1926 16.5141 22.4408 18.3284 21.1033 19.6667C19.7658 21.005 17.9519 21.7579 16.0599 21.7602V21.7602ZM16.0599 8.34149C14.8165 8.34064 13.6008 8.70863 12.5666 9.39889C11.5324 10.0891 10.7262 11.0707 10.25 12.2192C9.77383 13.3678 9.64901 14.6318 9.89137 15.8513C10.1337 17.0709 10.7324 18.1911 11.6116 19.0703C12.4908 19.9495 13.611 20.5482 14.8306 20.7905C16.0501 21.0329 17.3141 20.9081 18.4627 20.4319C19.6112 19.9557 20.5928 19.1495 21.283 18.1153C21.9733 17.0811 22.3413 15.8654 22.3404 14.622C22.3382 12.9566 21.6759 11.36 20.4987 10.182C19.3214 9.00398 17.7253 8.34061 16.0599 8.33722V8.34149Z" fill="white"/>
<path d="M16.0598 11.8358C14.2147 11.8866 12.3851 11.4852 10.7307 10.6667L11.1574 9.92432C12.6854 10.6722 14.372 11.0382 16.0726 10.991C17.7718 11.0382 19.457 10.6721 20.9835 9.92432L21.4102 10.6667C19.7495 11.489 17.9121 11.8904 16.0598 11.8358V11.8358Z" fill="white"/>
<path d="M20.9708 19.1618C19.4441 18.4099 17.7568 18.0422 16.0556 18.0908C14.3559 18.0433 12.6703 18.4109 11.1447 19.1618L10.718 18.4151C12.3741 17.592 14.2069 17.1876 16.0556 17.2375C17.9012 17.1914 19.7303 17.5956 21.3847 18.4151L20.9708 19.1618Z" fill="white"/>
<path d="M16.0597 21.7603C14.0373 21.7603 12.4543 18.6285 12.4543 14.6264C12.4543 10.6243 14.0373 7.48828 16.0597 7.48828C18.0821 7.48828 19.6607 10.6243 19.6607 14.6264C19.6607 18.6285 18.0778 21.7603 16.0597 21.7603ZM16.0597 8.34161C14.7285 8.34161 13.3077 10.8675 13.3077 14.6264C13.3077 18.3853 14.7285 20.9069 16.0597 20.9069C17.3909 20.9069 18.8074 18.3853 18.8074 14.6264C18.8074 10.8675 17.3866 8.33735 16.0597 8.33735V8.34161Z" fill="white"/>
<path d="M16.4608 15.8979H15.6074V24.2051H16.4608V15.8979Z" fill="white"/>
<path d="M12.0662 25.408C11.7884 25.4089 11.5166 25.3273 11.2852 25.1736C11.0538 25.0198 10.8732 24.8009 10.7663 24.5445C10.6594 24.288 10.631 24.0057 10.6847 23.7331C10.7383 23.4605 10.8717 23.21 11.0678 23.0132C11.264 22.8165 11.5141 22.6824 11.7865 22.6279C12.0589 22.5734 12.3414 22.6009 12.5981 22.707C12.8549 22.8131 13.0744 22.9931 13.2288 23.224C13.3832 23.4549 13.4657 23.7265 13.4657 24.0043C13.4646 24.3755 13.3169 24.7313 13.0548 24.9942C12.7927 25.257 12.4374 25.4058 12.0662 25.408V25.408ZM12.0662 23.4582C11.957 23.4573 11.85 23.489 11.7588 23.5492C11.6677 23.6093 11.5965 23.6952 11.5543 23.796C11.5121 23.8967 11.5008 24.0077 11.5219 24.1149C11.543 24.2221 11.5955 24.3205 11.6728 24.3978C11.75 24.475 11.8485 24.5275 11.9556 24.5486C12.0628 24.5697 12.1738 24.5584 12.2745 24.5162C12.3753 24.4741 12.4612 24.4029 12.5214 24.3117C12.5815 24.2205 12.6132 24.1135 12.6123 24.0043C12.609 23.8613 12.5501 23.7252 12.4482 23.6249C12.3463 23.5245 12.2092 23.4678 12.0662 23.4667V23.4582Z" fill="white"/>
<path d="M16.0256 26.5814C15.7481 26.5814 15.4769 26.4992 15.2461 26.3451C15.0154 26.1911 14.8355 25.9721 14.7291 25.7158C14.6227 25.4596 14.5947 25.1776 14.6485 24.9054C14.7023 24.6332 14.8356 24.3831 15.0315 24.1866C15.2274 23.9901 15.4771 23.8561 15.7491 23.8014C16.0211 23.7468 16.3032 23.774 16.5598 23.8796C16.8164 23.9852 17.0359 24.1644 17.1906 24.3947C17.3454 24.625 17.4284 24.8959 17.4293 25.1734C17.4293 25.5461 17.2815 25.9036 17.0184 26.1675C16.7553 26.4314 16.3982 26.5803 16.0256 26.5814ZM16.0256 24.6315C15.9163 24.6315 15.8096 24.664 15.7189 24.7249C15.6282 24.7858 15.5577 24.8722 15.5163 24.9733C15.4749 25.0744 15.4645 25.1855 15.4864 25.2925C15.5084 25.3995 15.5616 25.4975 15.6395 25.5741C15.7173 25.6508 15.8162 25.7025 15.9235 25.7228C16.0308 25.743 16.1418 25.7309 16.2422 25.6879C16.3426 25.645 16.4279 25.5731 16.4874 25.4815C16.5468 25.3898 16.5776 25.2826 16.576 25.1734C16.5737 25.0289 16.5147 24.8911 16.4118 24.7897C16.3088 24.6883 16.1701 24.6315 16.0256 24.6315V24.6315Z" fill="white"/>
<path d="M20.0022 25.408C19.7244 25.4089 19.4526 25.3273 19.2212 25.1736C18.9898 25.0198 18.8092 24.8009 18.7023 24.5445C18.5954 24.288 18.567 24.0057 18.6207 23.7331C18.6744 23.4605 18.8077 23.21 19.0039 23.0132C19.2 22.8165 19.4501 22.6824 19.7225 22.6279C19.995 22.5734 20.2774 22.6009 20.5342 22.707C20.7909 22.8131 21.0104 22.9931 21.1648 23.224C21.3193 23.4549 21.4017 23.7265 21.4017 24.0043C21.4017 24.3759 21.2544 24.7323 20.9921 24.9954C20.7297 25.2585 20.3738 25.4069 20.0022 25.408V25.408ZM20.0022 23.4582C19.893 23.4573 19.786 23.489 19.6949 23.5492C19.6037 23.6093 19.5325 23.6952 19.4903 23.796C19.4481 23.8967 19.4369 24.0077 19.458 24.1149C19.4791 24.2221 19.5316 24.3205 19.6088 24.3978C19.686 24.475 19.7845 24.5275 19.8917 24.5486C19.9988 24.5697 20.1098 24.5584 20.2106 24.5162C20.3113 24.4741 20.3972 24.4029 20.4574 24.3117C20.5175 24.2205 20.5492 24.1135 20.5484 24.0043C20.5451 23.8613 20.4862 23.7252 20.3842 23.6249C20.2823 23.5245 20.1453 23.4678 20.0022 23.4667V23.4582Z" fill="white"/>
<path d="M20.4288 22.9632H19.5755V22.5877H16.0342V21.7344H19.567C20.0832 21.7344 20.4203 21.9733 20.4203 22.3274L20.4288 22.9632Z" fill="white"/>
<path d="M12.4927 22.9632H11.6394V22.3274C11.6394 21.9733 11.985 21.7344 12.4927 21.7344H16.0255V22.5877H12.4842L12.4927 22.9632Z" fill="white"/>
<path d="M15.2235 17.0795L14.6177 16.4779L16.0598 15.04L17.4977 16.4779L16.8918 17.0795L16.0598 16.2475L15.2235 17.0795Z" fill="white"/>
<path d="M22.5323 21.1842L21.9264 20.5783C23.0981 19.4062 23.8959 17.9131 24.219 16.2877C24.5421 14.6623 24.3759 12.9775 23.7416 11.4465C23.1073 9.91547 22.0332 8.60691 20.6553 7.68626C19.2773 6.76561 17.6573 6.27422 16 6.27422C14.3428 6.27422 12.7228 6.76561 11.3448 7.68626C9.96683 8.60691 8.89278 9.91547 8.25845 11.4465C7.62412 12.9775 7.458 14.6623 7.7811 16.2877C8.1042 17.9131 8.902 19.4062 10.0736 20.5783L9.46777 21.1842C8.17604 19.8922 7.2964 18.2463 6.94009 16.4545C6.58378 14.6626 6.76679 12.8054 7.46598 11.1176C8.16517 9.42975 9.34915 7.98715 10.8682 6.9722C12.3872 5.95725 14.1731 5.41553 16 5.41553C17.8269 5.41553 19.6128 5.95725 21.1319 6.9722C22.6509 7.98715 23.8349 9.42975 24.5341 11.1176C25.2333 12.8054 25.4163 14.6626 25.06 16.4545C24.7037 18.2463 23.824 19.8922 22.5323 21.1842V21.1842Z" fill="white"/>
<path d="M22.7671 13.7944H9.34839V14.6478H22.7671V13.7944Z" fill="white"/>
</g>
<defs>
<linearGradient id="paint0_linear_854_28171" x1="-6.6287" y1="38.6274" x2="38.6261" y2="-6.62742" gradientUnits="userSpaceOnUse">
<stop stop-color="#4D27A8"/>
<stop offset="1" stop-color="#A166FF"/>
</linearGradient>
<clipPath id="clip0_854_28171">
<rect width="32" height="32" fill="white"/>
</clipPath>
</defs>
</svg>
