<svg width="32" height="32" viewBox="0 0 32 32" fill="none" xmlns="http://www.w3.org/2000/svg">
<g clip-path="url(#clip0_854_28170)">
<path d="M32 0H0V32H32V0Z" fill="url(#paint0_linear_854_28170)"/>
<path d="M22.3999 18.9824H19.4132V18.129H22.3999C23.4281 18.129 25.8132 17.8218 25.8132 14.9717C25.8132 13.265 24.8105 12.1941 22.8265 11.793C22.7343 11.7744 22.6509 11.7258 22.5891 11.6548C22.5274 11.5838 22.4909 11.4944 22.4852 11.4005C22.3871 9.7365 21.4186 9.14343 20.6207 9.14343C20.3499 9.14608 20.0834 9.2114 19.8421 9.33428C19.6007 9.45716 19.3912 9.63426 19.2297 9.8517C19.1833 9.9121 19.1216 9.95898 19.051 9.98746C18.9803 10.0159 18.9033 10.025 18.828 10.0137C18.7527 10.0024 18.6818 9.97108 18.6226 9.92309C18.5634 9.8751 18.5182 9.81214 18.4916 9.74077C18.2158 8.93672 17.7589 8.20682 17.1562 7.60743C16.5029 6.92968 15.6636 6.46053 14.7441 6.25918C13.8246 6.05782 12.866 6.13327 11.9894 6.476C11.1127 6.81874 10.3571 7.41341 9.81795 8.18502C9.27881 8.95663 8.98023 9.87062 8.95988 10.8117C8.96037 11.0042 8.97177 11.1965 8.99402 11.3877C9.00759 11.4916 8.98249 11.5968 8.92347 11.6834C8.86446 11.7699 8.77567 11.8317 8.67402 11.857C7.74815 12.0832 6.18655 12.8 6.18655 14.9333C6.18655 15.0144 6.18655 15.0912 6.18655 15.168C6.26226 15.9932 6.65021 16.7583 7.27114 17.3071C7.89206 17.8558 8.6991 18.1468 9.52735 18.1205H11.7332V18.9738H9.53588C8.48926 19.0004 7.47205 18.626 6.69239 17.9272C5.91274 17.2285 5.42957 16.2582 5.34175 15.2149C5.34175 15.121 5.34175 15.0272 5.34175 14.9333C5.3071 14.0804 5.56119 13.2407 6.06291 12.55C6.56464 11.8594 7.28467 11.3581 8.10655 11.1274C8.10655 11.025 8.10655 10.9184 8.10655 10.8117C8.13096 9.70491 8.48176 8.62999 9.11491 7.72186C9.74806 6.81373 10.6354 6.11286 11.6654 5.70722C12.6955 5.30157 13.8224 5.20923 14.9048 5.44178C15.9871 5.67434 16.9767 6.22142 17.7492 7.01437C18.2833 7.54027 18.717 8.15909 19.0292 8.8405C19.4802 8.48463 20.0377 8.29077 20.6122 8.2901C21.8068 8.2901 23.0655 9.14343 23.3002 11.0293C25.4676 11.5626 26.658 12.9536 26.658 14.9717C26.6665 17.92 24.4607 18.9824 22.3999 18.9824Z" fill="white"/>
<path d="M19.9721 24.1025H19.8398V21.871C19.8243 21.5454 19.6814 21.239 19.4419 21.0179C19.2024 20.7967 18.8856 20.6787 18.5598 20.6891H12.5993C12.2735 20.6787 11.9567 20.7967 11.7172 21.0179C11.4777 21.239 11.3348 21.5454 11.3193 21.871V24.1025H11.187C10.859 24.1286 10.5546 24.2831 10.3397 24.5323C10.1248 24.7815 10.0169 25.1054 10.0393 25.4337V26.6625H10.8926V25.4337C10.8926 25.1606 11.0505 24.9558 11.187 24.9558H19.9721C20.1086 24.9558 20.2665 25.1606 20.2665 25.4337V26.6625H21.1198V25.4337C21.1422 25.1054 21.0342 24.7815 20.8194 24.5323C20.6045 24.2831 20.3001 24.1286 19.9721 24.1025V24.1025ZM12.1598 21.871C12.1598 21.6918 12.3603 21.5424 12.5865 21.5424H18.547C18.7859 21.5424 18.9737 21.6918 18.9737 21.871V24.1025H12.147L12.1598 21.871Z" fill="white"/>
<path d="M13.0133 13.0088C12.5988 13.01 12.1988 13.162 11.8882 13.4365C11.5775 13.7109 11.3774 14.0891 11.3251 14.5003C11.2729 14.9116 11.3721 15.3277 11.6042 15.6712C11.8364 16.0146 12.1856 16.2618 12.5867 16.3667V20.2621H13.44V16.3667C13.8411 16.2618 14.1903 16.0146 14.4224 15.6712C14.6545 15.3277 14.7538 14.9116 14.7015 14.5003C14.6492 14.0891 14.4491 13.7109 14.1385 13.4365C13.8278 13.162 13.4279 13.01 13.0133 13.0088ZM13.0133 15.5688C12.8445 15.5688 12.6796 15.5187 12.5392 15.425C12.3989 15.3312 12.2895 15.1979 12.2249 15.042C12.1604 14.8861 12.1435 14.7145 12.1764 14.549C12.2093 14.3834 12.2906 14.2314 12.4099 14.1121C12.5293 13.9927 12.6813 13.9114 12.8468 13.8785C13.0124 13.8456 13.184 13.8625 13.3399 13.9271C13.4958 13.9917 13.6291 14.101 13.7228 14.2414C13.8166 14.3817 13.8667 14.5467 13.8667 14.7155C13.8667 14.9418 13.7767 15.1588 13.6167 15.3189C13.4567 15.4789 13.2396 15.5688 13.0133 15.5688Z" fill="white"/>
<path d="M15.5475 10.0225C15.1323 10.0258 14.7325 10.1804 14.423 10.4573C14.1136 10.7343 13.9157 11.1146 13.8665 11.5269C13.8173 11.9393 13.9202 12.3554 14.1558 12.6974C14.3914 13.0394 14.7436 13.2837 15.1465 13.3846V20.2625H15.9998V13.3718C16.3957 13.2603 16.7379 13.0095 16.9636 12.6658C17.1893 12.322 17.2833 11.9083 17.2283 11.5007C17.1732 11.0932 16.9729 10.7192 16.6641 10.4476C16.3553 10.176 15.9588 10.025 15.5475 10.0225ZM15.5475 12.5825C15.3788 12.5825 15.2138 12.5324 15.0735 12.4386C14.9331 12.3449 14.8238 12.2116 14.7592 12.0557C14.6946 11.8998 14.6777 11.7282 14.7106 11.5627C14.7435 11.3971 14.8248 11.2451 14.9441 11.1257C15.0635 11.0064 15.2155 10.9251 15.3811 10.8922C15.5466 10.8593 15.7182 10.8762 15.8741 10.9408C16.03 11.0053 16.1633 11.1147 16.2571 11.255C16.3508 11.3954 16.4009 11.5604 16.4009 11.7291C16.4009 11.9554 16.311 12.1725 16.1509 12.3325C15.9909 12.4926 15.7739 12.5825 15.5475 12.5825Z" fill="white"/>
<path d="M18.1332 13.0088C17.7187 13.01 17.3187 13.162 17.0081 13.4365C16.6974 13.7109 16.4973 14.0891 16.445 14.5003C16.3928 14.9116 16.492 15.3277 16.7241 15.6712C16.9563 16.0146 17.3055 16.2618 17.7065 16.3667V20.2621H18.5599V16.3667C18.9609 16.2618 19.3101 16.0146 19.5423 15.6712C19.7744 15.3277 19.8736 14.9116 19.8214 14.5003C19.7691 14.0891 19.569 13.7109 19.2583 13.4365C18.9477 13.162 18.5477 13.01 18.1332 13.0088V13.0088ZM18.1332 15.5688C17.9644 15.5688 17.7994 15.5187 17.6591 15.425C17.5188 15.3312 17.4094 15.1979 17.3448 15.042C17.2802 14.8861 17.2633 14.7145 17.2963 14.549C17.3292 14.3834 17.4105 14.2314 17.5298 14.1121C17.6491 13.9927 17.8012 13.9114 17.9667 13.8785C18.1322 13.8456 18.3038 13.8625 18.4597 13.9271C18.6157 13.9917 18.749 14.101 18.8427 14.2414C18.9365 14.3817 18.9865 14.5467 18.9865 14.7155C18.9865 14.9418 18.8966 15.1588 18.7366 15.3189C18.5766 15.4789 18.3595 15.5688 18.1332 15.5688Z" fill="white"/>
</g>
<defs>
<linearGradient id="paint0_linear_854_28170" x1="-6.62613" y1="38.6261" x2="38.6261" y2="-6.62613" gradientUnits="userSpaceOnUse">
<stop stop-color="#4D27A8"/>
<stop offset="1" stop-color="#A166FF"/>
</linearGradient>
<clipPath id="clip0_854_28170">
<rect width="32" height="32" fill="white"/>
</clipPath>
</defs>
</svg>
