<svg width="32" height="32" viewBox="0 0 32 32" fill="none" xmlns="http://www.w3.org/2000/svg">
<g clip-path="url(#clip0_854_28172)">
<path d="M32 0H0V32H32V0Z" fill="url(#paint0_linear_854_28172)"/>
<path d="M16.0001 10.3512C15.599 10.3512 15.207 10.2322 14.8737 10.0093C14.5403 9.78645 14.2805 9.46968 14.1273 9.0991C13.974 8.72853 13.9341 8.32082 14.0126 7.92756C14.0912 7.53431 14.2846 7.1732 14.5685 6.88994C14.8524 6.60668 15.2139 6.41399 15.6073 6.33628C16.0007 6.25856 16.4083 6.2993 16.7786 6.45335C17.1488 6.6074 17.4651 6.86783 17.6872 7.20167C17.9094 7.53551 18.0276 7.92777 18.0267 8.32879C18.0256 8.86555 17.8116 9.37995 17.4316 9.7591C17.0517 10.1383 16.5368 10.3512 16.0001 10.3512V10.3512ZM16.0001 7.15545C15.768 7.15545 15.5411 7.22427 15.3482 7.3532C15.1552 7.48212 15.0048 7.66537 14.916 7.87977C14.8272 8.09417 14.804 8.33009 14.8493 8.55769C14.8945 8.7853 15.0063 8.99436 15.1704 9.15846C15.3345 9.32255 15.5435 9.4343 15.7711 9.47957C15.9988 9.52485 16.2347 9.50161 16.4491 9.4128C16.6635 9.324 16.8467 9.17361 16.9756 8.98065C17.1046 8.7877 17.1734 8.56085 17.1734 8.32879C17.1734 8.0176 17.0498 7.71916 16.8297 7.49911C16.6097 7.27907 16.3112 7.15545 16.0001 7.15545Z" fill="white"/>
<path d="M23.6714 18.027C23.2706 18.027 22.8788 17.9081 22.5455 17.6854C22.2122 17.4627 21.9524 17.1462 21.799 16.7759C21.6457 16.4055 21.6055 15.9981 21.6837 15.6049C21.7619 15.2118 21.9549 14.8507 22.2384 14.5672C22.5218 14.2838 22.8829 14.0908 23.2761 14.0126C23.6692 13.9344 24.0767 13.9745 24.447 14.1279C24.8173 14.2813 25.1339 14.5411 25.3566 14.8743C25.5792 15.2076 25.6981 15.5995 25.6981 16.0003C25.6981 16.5378 25.4846 17.0533 25.1045 17.4334C24.7244 17.8134 24.2089 18.027 23.6714 18.027V18.027ZM23.6714 14.827C23.4394 14.827 23.2125 14.8958 23.0196 15.0247C22.8266 15.1536 22.6762 15.3369 22.5874 15.5513C22.4986 15.7657 22.4754 16.0016 22.5207 16.2292C22.5659 16.4568 22.6777 16.6659 22.8418 16.83C23.0059 16.9941 23.2149 17.1058 23.4425 17.1511C23.6701 17.1964 23.9061 17.1731 24.1205 17.0843C24.3349 16.9955 24.5181 16.8451 24.647 16.6522C24.776 16.4592 24.8448 16.2324 24.8448 16.0003C24.8448 15.6891 24.7212 15.3907 24.5011 15.1706C24.2811 14.9506 23.9826 14.827 23.6714 14.827V14.827Z" fill="white"/>
<path d="M16.0001 25.6984C15.5992 25.6984 15.2074 25.5795 14.8741 25.3568C14.5408 25.1341 14.2811 24.8176 14.1277 24.4473C13.9743 24.0769 13.9341 23.6694 14.0123 23.2763C14.0905 22.8832 14.2836 22.5221 14.567 22.2386C14.8504 21.9552 15.2115 21.7622 15.6047 21.684C15.9978 21.6058 16.4053 21.6459 16.7756 21.7993C17.146 21.9527 17.4625 22.2124 17.6852 22.5457C17.9079 22.879 18.0267 23.2708 18.0267 23.6717C18.0267 24.2092 17.8132 24.7247 17.4331 25.1048C17.0531 25.4848 16.5376 25.6984 16.0001 25.6984V25.6984ZM16.0001 22.5026C15.7678 22.5026 15.5408 22.5715 15.3477 22.7007C15.1547 22.8298 15.0043 23.0133 14.9156 23.2279C14.827 23.4426 14.804 23.6787 14.8496 23.9064C14.8952 24.1342 15.0074 24.3432 15.1719 24.5071C15.3364 24.6711 15.5459 24.7825 15.7738 24.8273C16.0017 24.872 16.2377 24.8482 16.452 24.7587C16.6664 24.6693 16.8493 24.5182 16.9777 24.3247C17.1061 24.1312 17.1742 23.9039 17.1734 23.6717C17.1723 23.3612 17.0481 23.0639 16.8282 22.8448C16.6083 22.6256 16.3105 22.5026 16.0001 22.5026V22.5026Z" fill="white"/>
<path d="M8.32854 18.027C7.92752 18.0278 7.53527 17.9097 7.20143 17.6875C6.86758 17.4653 6.60715 17.1491 6.45311 16.7788C6.29906 16.4086 6.25831 16.001 6.33603 15.6075C6.41375 15.2141 6.60643 14.8526 6.8897 14.5687C7.17296 14.2849 7.53407 14.0914 7.92732 14.0129C8.32057 13.9343 8.72828 13.9742 9.09886 14.1275C9.46943 14.2808 9.78621 14.5405 10.0091 14.8739C10.232 15.2073 10.3509 15.5993 10.3509 16.0003C10.3509 16.5371 10.138 17.0519 9.75885 17.4319C9.3797 17.8118 8.86531 18.0258 8.32854 18.027V18.027ZM8.32854 14.827C8.0963 14.8261 7.86903 14.8942 7.67551 15.0226C7.482 15.151 7.33095 15.334 7.24149 15.5483C7.15202 15.7626 7.12818 15.9987 7.17297 16.2266C7.21776 16.4545 7.32917 16.6639 7.49309 16.8284C7.65702 16.993 7.86607 17.1051 8.0938 17.1508C8.32152 17.1964 8.55765 17.1734 8.7723 17.0847C8.98695 16.996 9.17045 16.8457 9.29957 16.6526C9.42868 16.4596 9.49761 16.2325 9.49761 16.0003C9.49761 15.6898 9.37458 15.392 9.15546 15.1721C8.93634 14.9522 8.63899 14.8281 8.32854 14.827V14.827Z" fill="white"/>
<path d="M16 26.3384C13.9553 26.3384 11.9565 25.7321 10.2564 24.5961C8.55635 23.4601 7.23128 21.8455 6.44881 19.9565C5.66634 18.0674 5.46162 15.9888 5.86051 13.9834C6.25941 11.978 7.24403 10.1359 8.68984 8.69008C10.1357 7.24427 11.9777 6.25966 13.9831 5.86076C15.9885 5.46186 18.0672 5.66659 19.9562 6.44906C21.8453 7.23153 23.4599 8.55659 24.5958 10.2567C25.7318 11.9568 26.3381 13.9556 26.3381 16.0002C26.3347 18.7411 25.2445 21.3686 23.3064 23.3067C21.3684 25.2447 18.7408 26.335 16 26.3384V26.3384ZM16 6.51545C14.1241 6.51545 12.2903 7.07172 10.7305 8.11392C9.17076 9.15613 7.95507 10.6375 7.23719 12.3706C6.51931 14.1037 6.33148 16.0108 6.69745 17.8506C7.06342 19.6905 7.96676 21.3805 9.29324 22.707C10.6197 24.0335 12.3097 24.9368 14.1496 25.3028C15.9895 25.6688 17.8966 25.4809 19.6297 24.7631C21.3628 24.0452 22.8441 22.8295 23.8863 21.2697C24.9285 19.71 25.4848 17.8762 25.4848 16.0002C25.4814 13.4858 24.481 11.0752 22.703 9.29722C20.925 7.51921 18.5145 6.51883 16 6.51545V6.51545Z" fill="white"/>
<path d="M16 18.9571C15.4152 18.9571 14.8435 18.7836 14.3573 18.4587C13.8711 18.1339 13.4921 17.6721 13.2683 17.1318C13.0445 16.5915 12.9859 15.997 13.1 15.4234C13.2141 14.8499 13.4957 14.323 13.9092 13.9095C14.3228 13.496 14.8496 13.2144 15.4232 13.1003C15.9967 12.9862 16.5912 13.0447 17.1315 13.2685C17.6718 13.4923 18.1336 13.8713 18.4585 14.3575C18.7834 14.8438 18.9568 15.4155 18.9568 16.0003C18.9557 16.7841 18.6438 17.5355 18.0895 18.0898C17.5353 18.644 16.7839 18.9559 16 18.9571ZM16 13.8968C15.584 13.8968 15.1773 14.0202 14.8314 14.2513C14.4855 14.4824 14.2159 14.8109 14.0567 15.1953C13.8975 15.5797 13.8558 16.0026 13.937 16.4106C14.0181 16.8187 14.2185 17.1935 14.5126 17.4876C14.8068 17.7818 15.1816 17.9821 15.5896 18.0633C15.9977 18.1445 16.4206 18.1028 16.805 17.9436C17.1893 17.7844 17.5179 17.5148 17.749 17.1689C17.9801 16.823 18.1035 16.4163 18.1035 16.0003C18.1035 15.724 18.0491 15.4505 17.9434 15.1953C17.8377 14.9401 17.6827 14.7082 17.4874 14.5129C17.2921 14.3176 17.0602 14.1626 16.805 14.0569C16.5498 13.9512 16.2762 13.8968 16 13.8968Z" fill="white"/>
<path d="M13.4656 15.5737H9.92432V16.4271H13.4656V15.5737Z" fill="white"/>
<path d="M22.0714 15.5737H18.53V16.4271H22.0714V15.5737Z" fill="white"/>
<path d="M16.4266 18.5303H15.5732V22.0716H16.4266V18.5303Z" fill="white"/>
<path d="M16.4266 9.92432H15.5732V13.4656H16.4266V9.92432Z" fill="white"/>
</g>
<defs>
<linearGradient id="paint0_linear_854_28172" x1="-6.62742" y1="38.6287" x2="38.6274" y2="-6.62613" gradientUnits="userSpaceOnUse">
<stop stop-color="#4D27A8"/>
<stop offset="1" stop-color="#A166FF"/>
</linearGradient>
<clipPath id="clip0_854_28172">
<rect width="32" height="32" fill="white"/>
</clipPath>
</defs>
</svg>
