<svg width="32" height="32" viewBox="0 0 32 32" fill="none" xmlns="http://www.w3.org/2000/svg">
<g clip-path="url(#clip0_854_28524)">
<path d="M32 0H0V32H32V0Z" fill="url(#paint0_linear_854_28524)"/>
<path fill-rule="evenodd" clip-rule="evenodd" d="M12.0001 21.6001C8.9129 21.6001 6.4001 19.0881 6.4001 16.0001C6.4001 12.9121 8.9129 10.4001 12.0001 10.4001C15.0873 10.4001 17.6001 12.9121 17.6001 16.0001C17.6001 19.0881 15.0873 21.6001 12.0001 21.6001ZM23.2001 22.4001C24.0825 22.4001 24.8001 23.1177 24.8001 24.0001C24.8001 24.8825 24.0825 25.6001 23.2001 25.6001C22.3177 25.6001 21.6001 24.8825 21.6001 24.0001C21.6001 23.1177 22.3177 22.4001 23.2001 22.4001ZM23.2001 6.4001C24.0825 6.4001 24.8001 7.1177 24.8001 8.0001C24.8001 8.8825 24.0825 9.6001 23.2001 9.6001C22.3177 9.6001 21.6001 8.8825 21.6001 8.0001C21.6001 7.1177 22.3177 6.4001 23.2001 6.4001ZM24.0001 14.8001C24.8825 14.8001 25.6001 15.5177 25.6001 16.4001C25.6001 17.2825 24.8825 18.0001 24.0001 18.0001C23.1177 18.0001 22.4001 17.2825 22.4001 16.4001C22.4001 15.5177 23.1177 14.8001 24.0001 14.8001ZM18.3449 16.8001H21.6409C21.8321 17.9329 22.8137 18.8001 24.0001 18.8001C25.3233 18.8001 26.4001 17.7233 26.4001 16.4001C26.4001 15.0769 25.3233 14.0001 24.0001 14.0001C22.8137 14.0001 21.8321 14.8673 21.6409 16.0001H18.4001C18.4001 14.8089 18.0673 13.6961 17.4977 12.7401L21.3593 9.5217C21.8001 10.0537 22.4569 10.4001 23.2001 10.4001C24.5233 10.4001 25.6001 9.3233 25.6001 8.0001C25.6001 6.6769 24.5233 5.6001 23.2001 5.6001C21.8769 5.6001 20.8001 6.6769 20.8001 8.0001C20.8001 8.2889 20.8593 8.5617 20.9529 8.8177L17.0449 12.0753C15.8721 10.5721 14.0497 9.6001 12.0001 9.6001C8.4713 9.6001 5.6001 12.4713 5.6001 16.0001C5.6001 19.5289 8.4713 22.4001 12.0001 22.4001C14.0497 22.4001 15.8721 21.4281 17.0449 19.9249L20.9529 23.1825C20.8593 23.4385 20.8001 23.7113 20.8001 24.0001C20.8001 25.3233 21.8769 26.4001 23.2001 26.4001C24.5233 26.4001 25.6001 25.3233 25.6001 24.0001C25.6001 22.6769 24.5233 21.6001 23.2001 21.6001C22.4569 21.6001 21.8001 21.9465 21.3593 22.4785L17.4977 19.2601C17.9377 18.5217 18.2329 17.6905 18.3449 16.8001Z" fill="white"/>
</g>
<defs>
<linearGradient id="paint0_linear_854_28524" x1="-6.62613" y1="38.6261" x2="38.6261" y2="-6.62613" gradientUnits="userSpaceOnUse">
<stop stop-color="#4D27A8"/>
<stop offset="1" stop-color="#A166FF"/>
</linearGradient>
<clipPath id="clip0_854_28524">
<rect width="32" height="32" fill="white"/>
</clipPath>
</defs>
</svg>
