<svg width="32" height="32" viewBox="0 0 32 32" fill="none" xmlns="http://www.w3.org/2000/svg">
<g clip-path="url(#clip0_854_28173)">
<path d="M28.96 2.72021H2.71997V28.9602H28.96V2.72021Z" fill="url(#paint0_linear_854_28173)"/>
<path d="M28.48 3.20023V28.4802H3.19999V3.20023H28.48ZM29.44 2.24023H2.23999V29.4402H29.44V2.24023Z" fill="white"/>
<path d="M21.1712 17.2802C22.6368 17.2802 23.5104 16.2466 23.5104 14.5154C23.5104 13.4434 22.7776 12.301 20.752 12.173C20.7804 11.7976 20.7209 11.4208 20.5781 11.0725C20.4354 10.7242 20.2133 10.414 19.9296 10.1666C19.7604 10.0083 19.5565 9.89188 19.3342 9.82685C19.1118 9.76181 18.8773 9.74994 18.6496 9.79218C18.1792 8.39058 17.12 7.68018 15.4976 7.68018C15.4656 7.68018 12.1152 7.72818 11.952 11.7634C9.14875 11.9394 9.11675 14.4898 9.11675 14.5154C9.10664 14.8807 9.17103 15.2442 9.30599 15.5838C9.44095 15.9234 9.64366 16.2319 9.90175 16.4906C10.1598 16.7493 10.4679 16.9527 10.8072 17.0885C11.1465 17.2242 11.5098 17.2894 11.8752 17.2802H15.04L12.7296 19.2706C12.4751 19.0934 12.1724 18.9985 11.8624 18.9986C11.5591 18.9979 11.2624 19.0873 11.0099 19.2553C10.7574 19.4234 10.5605 19.6626 10.444 19.9426C10.3274 20.2226 10.2966 20.5309 10.3554 20.8284C10.4142 21.126 10.5599 21.3994 10.7742 21.6141C10.9884 21.8288 11.2615 21.9751 11.5589 22.0345C11.8564 22.0939 12.1647 22.0637 12.445 21.9478C12.7253 21.8319 12.9648 21.6354 13.1334 21.3833C13.302 21.1311 13.392 20.8347 13.392 20.5314C13.3924 20.2507 13.3137 19.9757 13.1648 19.7378L16 17.3122V20.6498C15.6296 20.7288 15.3017 20.9422 15.0793 21.2487C14.8569 21.5552 14.7559 21.9331 14.7956 22.3097C14.8354 22.6863 15.0131 23.0348 15.2946 23.2881C15.576 23.5414 15.9413 23.6816 16.32 23.6816C16.6986 23.6816 17.0639 23.5414 17.3453 23.2881C17.6268 23.0348 17.8045 22.6863 17.8443 22.3097C17.884 21.9331 17.783 21.5552 17.5606 21.2487C17.3382 20.9422 17.0103 20.7288 16.64 20.6498V17.3122L19.4624 19.7378C19.3135 19.9757 19.2347 20.2507 19.2352 20.5314C19.2352 20.8347 19.3251 21.1311 19.4937 21.3833C19.6623 21.6354 19.9018 21.8319 20.1821 21.9478C20.4624 22.0637 20.7707 22.0939 21.0682 22.0345C21.3656 21.9751 21.6387 21.8288 21.8529 21.6141C22.0672 21.3994 22.2129 21.126 22.2717 20.8284C22.3305 20.5309 22.2997 20.2226 22.1832 19.9426C22.0667 19.6626 21.8697 19.4234 21.6172 19.2553C21.3647 19.0873 21.068 18.9979 20.7648 18.9986C20.4547 18.9985 20.152 19.0934 19.8976 19.2706L17.6 17.2802H21.1712ZM9.76955 14.5186C9.76955 14.4322 9.81435 12.3938 12.2784 12.3938C12.3632 12.3938 12.4446 12.3601 12.5046 12.3C12.5646 12.24 12.5984 12.1586 12.5984 12.0738C12.5984 8.38098 15.3952 8.32018 15.5104 8.32018C16.96 8.32018 17.8016 8.96018 18.1408 10.2818C18.1527 10.3285 18.175 10.3719 18.2061 10.4088C18.2371 10.4456 18.2761 10.475 18.3201 10.4947C18.3641 10.5144 18.412 10.5239 18.4601 10.5225C18.5083 10.5211 18.5556 10.5088 18.5984 10.4866C18.7503 10.418 18.9194 10.3972 19.0834 10.4269C19.2475 10.4566 19.3986 10.5354 19.5168 10.653C19.7567 10.8637 19.9341 11.1364 20.0295 11.4411C20.1249 11.7459 20.1346 12.0711 20.0576 12.381C20.0414 12.4303 20.0375 12.4828 20.0462 12.534C20.0548 12.5852 20.0758 12.6335 20.1073 12.6747C20.1388 12.716 20.1799 12.749 20.2269 12.7708C20.274 12.7927 20.3257 12.8028 20.3776 12.8002C21.9488 12.8002 22.8864 13.4402 22.8864 14.5154C22.8864 15.309 22.6656 16.6402 21.1872 16.6402H11.9072C11.6251 16.6504 11.3439 16.6026 11.081 16.4998C10.8181 16.3969 10.5791 16.2413 10.3787 16.0425C10.1784 15.8436 10.021 15.6058 9.91617 15.3437C9.81139 15.0816 9.76149 14.8007 9.76955 14.5186V14.5186ZM11.8752 21.4402C11.6984 21.4408 11.5255 21.389 11.3783 21.2913C11.231 21.1936 11.1161 21.0543 11.048 20.8913C10.98 20.7282 10.9618 20.5486 10.9959 20.3752C11.03 20.2018 11.1148 20.0424 11.2395 19.9172C11.3642 19.792 11.5233 19.7067 11.6966 19.672C11.8699 19.6373 12.0495 19.6548 12.2129 19.7222C12.3762 19.7897 12.5158 19.9041 12.6141 20.051C12.7123 20.1979 12.7648 20.3707 12.7648 20.5474C12.7648 20.7836 12.6711 21.0102 12.5044 21.1776C12.3376 21.3449 12.1114 21.4393 11.8752 21.4402V21.4402ZM17.2128 22.1634C17.2096 22.3392 17.1546 22.5103 17.0546 22.655C16.9546 22.7997 16.8141 22.9116 16.6507 22.9767C16.4873 23.0418 16.3083 23.0573 16.1362 23.021C15.9641 22.9848 15.8065 22.8985 15.6832 22.773C15.5599 22.6476 15.4765 22.4885 15.4433 22.3158C15.4101 22.143 15.4287 21.9643 15.4968 21.8021C15.5648 21.6399 15.6792 21.5014 15.8256 21.404C15.9721 21.3066 16.1441 21.2546 16.32 21.2546C16.5567 21.2546 16.7838 21.3486 16.9513 21.5161C17.1187 21.6835 17.2128 21.9106 17.2128 22.1474V22.1634ZM20.7648 19.6546C20.9415 19.6539 21.1144 19.7058 21.2616 19.8035C21.4089 19.9012 21.5238 20.0404 21.5919 20.2035C21.6599 20.3666 21.6781 20.5462 21.644 20.7196C21.6099 20.893 21.5251 21.0524 21.4004 21.1775C21.2757 21.3027 21.1166 21.3881 20.9433 21.4228C20.77 21.4575 20.5904 21.44 20.427 21.3725C20.2637 21.305 20.1241 21.1906 20.0258 21.0437C19.9276 20.8968 19.8752 20.7241 19.8752 20.5474C19.873 20.4291 19.8945 20.3115 19.9382 20.2015C19.9819 20.0916 20.047 19.9914 20.1298 19.9068C20.2126 19.8223 20.3113 19.755 20.4203 19.709C20.5293 19.6629 20.6464 19.639 20.7648 19.6386V19.6546Z" fill="white"/>
</g>
<defs>
<linearGradient id="paint0_linear_854_28173" x1="2.71997" y1="28.9602" x2="28.96" y2="2.72021" gradientUnits="userSpaceOnUse">
<stop stop-color="#4D27A8"/>
<stop offset="1" stop-color="#A166FF"/>
</linearGradient>
<clipPath id="clip0_854_28173">
<rect width="32" height="32" fill="white"/>
</clipPath>
</defs>
</svg>
