<svg width="32" height="32" viewBox="0 0 32 32" fill="none" xmlns="http://www.w3.org/2000/svg">
<path d="M14.3865 15.3852L19.8535 19.696L16.2345 10.757L14.3865 15.3852ZM16 2C8.26617 2 2 8.26617 2 16C2 23.7338 8.26617 30 16 30C23.7338 30 30 23.7338 30 16C30 8.26617 23.7338 2 16 2ZM22.7632 22.1892C22.7503 22.7387 22.293 23.1715 21.7423 23.1575C21.467 23.1575 21.257 23.0525 20.9677 22.8157L13.746 16.9823L11.3205 23.0525H9.22283L15.3443 8.34667C15.489 7.98033 15.8425 7.74 16.2357 7.75633C16.616 7.74 16.9707 7.97683 17.1013 8.34667L22.671 21.7563C22.7235 21.8858 22.7643 22.0293 22.7643 22.1623C22.7632 22.1728 22.7632 22.1728 22.7632 22.1892Z" fill="black"/>
</svg>
