<svg width="32" height="32" viewBox="0 0 32 32" fill="none" xmlns="http://www.w3.org/2000/svg">
<path d="M15.9522 2.00002C14.1195 1.99711 12.3044 2.3567 10.6113 3.05809C8.91821 3.75948 7.38055 4.78882 6.08684 6.08685C4.78909 7.381 3.75994 8.91891 3.05858 10.6122C2.35721 12.3054 1.99746 14.1206 2.00001 15.9533C1.99769 18.0729 2.47932 20.165 3.40818 22.0702C4.24818 23.7898 5.61084 25.5048 7.15084 26.7882C8.15417 26.2398 8.72584 25.6332 8.84601 24.9857C8.96267 24.3638 8.68967 23.6942 7.98617 22.8798C6.31477 20.9596 5.39515 18.4991 5.39734 15.9533C5.39734 10.134 10.1317 5.39851 15.9522 5.39851H16.0455C21.8672 5.39851 26.6015 10.134 26.6015 15.9533C26.6038 18.4986 25.6846 20.9586 24.0138 22.8787C23.315 23.6872 23.0338 24.386 23.1563 25.0137C23.2823 25.6623 23.8505 26.2597 24.8468 26.7893C26.3892 25.506 27.7507 23.791 28.5907 22.069C29.5212 20.1648 30.0033 18.0728 30 15.9533C30.002 14.1207 29.6419 12.3057 28.9406 10.6125C28.2393 8.91932 27.2104 7.38134 25.9132 6.08685C24.6189 4.78925 23.081 3.7602 21.3877 3.05885C19.6945 2.3575 17.8794 1.99766 16.0467 2.00002H15.9988H15.9522ZM15.9463 7.64318C14.3953 7.6406 12.8749 8.07528 11.5597 8.89734C10.6252 9.48191 9.81497 10.2446 9.17501 11.142C8.51795 12.0697 8.05705 13.1217 7.82051 14.2337C7.56848 15.4377 7.58441 16.6824 7.86717 17.8795C8.13023 18.9794 8.61451 20.0143 9.29051 20.921C9.47017 21.1625 9.67084 21.383 9.88434 21.6175L10.1002 21.8532L10.106 21.8602C10.1142 21.8683 10.1258 21.8788 10.1363 21.8917C10.8772 22.7527 11.2528 23.6802 11.2528 24.645C11.2519 25.3603 11.0575 26.0621 10.6903 26.676C10.3231 27.2899 9.79666 27.793 9.16684 28.1322C10.1556 28.6806 11.2075 29.1065 12.2993 29.4003C12.4627 29.2977 13.0157 28.8858 13.5558 28.1368C14.2935 27.1255 14.6788 25.9 14.6525 24.6485C14.6341 23.6995 14.4403 22.762 14.0808 21.8835C13.7219 21.0076 13.2073 20.2041 12.5618 19.5117L12.5595 19.507L12.4148 19.3413C12.1698 19.0555 11.9155 18.7615 11.7125 18.4173C11.4676 18.0054 11.2859 17.559 11.1735 17.0932C11.0061 16.3845 10.9965 15.6476 11.1455 14.9348C11.2861 14.2787 11.5583 13.658 11.9458 13.1102C12.4001 12.4713 13.0005 11.9502 13.697 11.5904C14.3935 11.2306 15.1659 11.0424 15.9498 11.0417H16.049C16.8332 11.0411 17.6061 11.2286 18.3028 11.5885C18.9995 11.9485 19.5997 12.4703 20.053 13.1102C20.438 13.6538 20.7157 14.285 20.8533 14.936C21.0021 15.6484 20.9929 16.3847 20.8265 17.0932C20.7135 17.559 20.5314 18.0054 20.2863 18.4173C20.0845 18.7615 19.8302 19.0555 19.584 19.3413L19.4405 19.507L19.4358 19.5117C18.7912 20.2044 18.277 21.008 17.918 21.8835C17.5588 22.7621 17.365 23.6995 17.3463 24.6485C17.3199 25.9 17.7052 27.1256 18.443 28.1368C18.9832 28.8858 19.5362 29.2977 19.6983 29.4003C20.7915 29.1083 21.8444 28.6824 22.8332 28.1322C22.2032 27.7934 21.6766 27.2905 21.3092 26.6768C20.9418 26.0631 20.7472 25.3614 20.746 24.6462C20.746 23.693 21.1112 22.7912 21.8613 21.894C21.8718 21.88 21.8847 21.8683 21.8928 21.859L21.8998 21.8543L22.1145 21.6163C22.328 21.383 22.5287 21.1613 22.7095 20.921C23.3856 20.014 23.8699 18.9787 24.1328 17.8783C24.4146 16.6815 24.4305 15.4374 24.1795 14.2337C23.9426 13.122 23.4822 12.0702 22.8262 11.142C22.1862 10.2446 21.3759 9.48194 20.4415 8.89734C19.1255 8.07497 17.6043 7.64029 16.0525 7.64318H15.9463ZM16 13.3318C15.2696 13.3328 14.5694 13.6232 14.0529 14.1396C13.5363 14.6559 13.2456 15.356 13.2443 16.0863C13.2456 16.8166 13.5364 17.5165 14.053 18.0327C14.5695 18.5488 15.2697 18.8391 16 18.8397C16.7299 18.8387 17.4297 18.5484 17.9459 18.0322C18.462 17.5161 18.7524 16.8163 18.7533 16.0863C18.753 15.3559 18.463 14.6554 17.9468 14.1385C17.4306 13.6217 16.7305 13.3307 16 13.3295V13.3318Z" fill="black"/>
</svg>
