<svg width="32" height="32" viewBox="0 0 32 32" fill="none" xmlns="http://www.w3.org/2000/svg">
<path d="M18.2957 3.56662C16.9467 1.97316 15.7851 0.354794 15.5478 0.0186734C15.5228 -0.00622446 15.4853 -0.00622446 15.4603 0.0186734C15.223 0.354794 14.0614 1.97316 12.7124 3.56662C1.13372 18.2688 14.536 28.1906 14.536 28.1906L14.6484 28.2653C14.7484 29.7966 14.9982 32 14.9982 32H15.4978H15.9974C15.9974 32 16.2472 29.809 16.3472 28.2653L16.4596 28.1782C16.4721 28.1782 29.8744 18.2688 18.2957 3.56662ZM15.4978 27.9665C15.4978 27.9665 14.8983 27.4561 14.7359 27.1947V27.1699L15.4603 11.1605C15.4603 11.1107 15.5353 11.1107 15.5353 11.1605L16.2597 27.1699V27.1947C16.0973 27.4561 15.4978 27.9665 15.4978 27.9665Z" fill="#00684A"/>
</svg>
