<svg width="32" height="32" viewBox="0 0 32 32" fill="none" xmlns="http://www.w3.org/2000/svg">
<path d="M28.976 8.40186V23.5983L16 31.1112V16.0854L28.976 8.40186Z" fill="#773ADC"/>
<path d="M23.2427 16.1779C25.1218 15.1468 26.4889 16.0001 26.4889 18.0499C26.4092 19.1732 26.0759 20.2637 25.5139 21.2395C24.9519 22.2154 24.176 23.051 23.2444 23.6837C21.3671 24.7077 20 23.8615 20 21.8064C20.0448 20.6758 20.3632 19.5731 20.928 18.5927C21.4928 17.6124 22.2871 16.7837 23.2427 16.1779Z" fill="url(#paint0_linear_855_67552)"/>
<path d="M28.976 8.4018L16 16.0854L3.02399 8.4018L16 0.888916L28.976 8.4018Z" fill="#B796F9"/>
<path d="M16 16.0854V31.1112L3.02399 23.5983V8.40186L16 16.0854Z" fill="#A67AF4"/>
<defs>
<linearGradient id="paint0_linear_855_67552" x1="25.6267" y1="24.0979" x2="21.0969" y2="16.1708" gradientUnits="userSpaceOnUse">
<stop offset="0.101" stop-color="#773ADC"/>
<stop offset="1" stop-color="#403457"/>
</linearGradient>
</defs>
</svg>
