<svg width="32" height="32" viewBox="0 0 32 32" fill="none" xmlns="http://www.w3.org/2000/svg">
<path d="M23.6018 6.41413V18.8444L12.9174 25.0915V12.6399L23.6018 6.41413Z" fill="#773ADC"/>
<path d="M23.6018 6.41424L12.9209 12.6578L2.25421 6.41069L12.9209 0.163574L23.6018 6.41424Z" fill="#B796F9"/>
<path d="M12.9191 12.6577V25.0915L2.23645 18.8444V6.41235L12.9209 12.6595L12.9191 12.6577Z" fill="#A67AF4"/>
<path d="M20.7289 23.289C20.7289 23.3476 20.7182 23.4063 20.7075 23.4667C20.6969 23.5272 20.6844 23.5627 20.672 23.609L20.624 23.7778C20.6062 23.8347 20.5884 23.8667 20.5671 23.913L20.4835 24.0907C20.4405 24.1727 20.393 24.2522 20.3413 24.329L20.3129 24.3645C20.2577 24.4441 20.1984 24.5206 20.1351 24.5938L20.0995 24.6383L19.8631 24.8694C19.8068 24.9204 19.7475 24.9679 19.6853 25.0116L19.5253 25.1361L19.3244 25.2712L19.1111 25.4081C18.9379 25.5065 18.7599 25.5961 18.5778 25.6765L18.4 25.7441L17.9555 25.9112L17.7778 25.9645L17.488 26.0481L17.2675 26.1067L16.9564 26.1743L16.7431 26.217L16.1031 26.3058C16.0373 26.3058 15.9698 26.3165 15.9022 26.3236L15.5253 26.3503H14.7555L14.4711 26.3361L13.9449 26.2756L13.6924 26.2401L13.3955 26.1867L13.1644 26.1387L12.8089 26.0534L12.6169 26.0001L12.0124 25.7974L11.728 25.6765L11.5858 25.6143L11.1733 25.401C10.7167 25.1977 10.3225 24.8764 10.0313 24.4702C9.74003 24.064 9.56232 23.5875 9.51642 23.0898V25.5894C9.56232 26.0871 9.74003 26.5636 10.0313 26.9698C10.3225 27.376 10.7167 27.6973 11.1733 27.9005L11.5858 28.1138C11.632 28.137 11.6818 28.1565 11.7315 28.1778L11.9804 28.2881L12.0124 28.2987L12.6631 28.5174C12.7093 28.5316 12.7591 28.5405 12.8053 28.553L13.1609 28.6383L13.2533 28.6614L13.3955 28.6863L13.6924 28.7396L13.8115 28.7574C13.856 28.7574 13.9004 28.7681 13.9449 28.7752L14.224 28.8054C14.2702 28.8054 14.3129 28.8178 14.3573 28.8232H14.4853L14.7698 28.8374H15.5786C15.7055 28.8303 15.8317 28.8214 15.9573 28.8107H16.1564L16.7964 28.7218H16.8266L17.0044 28.6863L17.3173 28.6187L17.536 28.5601L17.8275 28.4765L17.888 28.4587C17.9235 28.4481 17.9538 28.4338 17.9875 28.4232L18.432 28.2561L18.6098 28.1885L19.1431 27.9218L19.2142 27.881C19.2675 27.8507 19.3084 27.817 19.3564 27.785L19.5591 27.6498L19.7155 27.5254L19.8933 27.3832L19.9289 27.3547C20 27.289 20.0675 27.2196 20.1315 27.1521L20.1671 27.1076L20.2738 26.9832C20.3005 26.9496 20.3254 26.9146 20.3484 26.8783L20.3769 26.8427L20.5013 26.6472L20.5191 26.6045C20.5494 26.5467 20.5766 26.4873 20.6009 26.4267L20.6489 26.3236L20.6595 26.2881C20.6782 26.2332 20.6942 26.1774 20.7075 26.121L20.7395 26.0072V25.977C20.7494 25.9181 20.7565 25.8587 20.7609 25.7992C20.7662 25.7387 20.7733 25.721 20.7733 25.6836V23.1112L20.7502 23.289H20.7289Z" fill="#32BEDD"/>
<path d="M19.0845 20.8001C21.2854 22.0694 21.296 24.1299 19.1111 25.3992C17.8809 26.0254 16.52 26.3518 15.1396 26.3518C13.7591 26.3518 12.3983 26.0254 11.168 25.3992C8.96713 24.1281 8.95824 22.0676 11.1449 20.7983C12.3746 20.1723 13.735 19.8461 15.1149 19.8464C16.4948 19.8467 17.855 20.1735 19.0845 20.8001Z" fill="#50E6FF"/>
<path d="M29.7493 26.2649C29.7493 26.3236 29.7405 26.3822 29.7316 26.4427C29.7227 26.5031 29.7067 26.5387 29.696 26.5849L29.648 26.7538C29.6302 26.8071 29.6125 26.8427 29.5911 26.8907L29.5094 27.0684C29.4791 27.1289 29.4205 27.2462 29.3671 27.3067L29.3405 27.3422L29.1627 27.5733L29.1271 27.616L28.8907 27.8471C28.8335 27.8971 28.7742 27.9446 28.7129 27.9893L28.5565 28.1138C28.5031 28.1547 28.4231 28.2027 28.3538 28.2471L28.1405 28.384C27.9677 28.4831 27.7897 28.5727 27.6071 28.6524L27.4293 28.7236L26.9885 28.8907L26.8285 28.944L26.5387 29.0258L26.3182 29.0862L26.0071 29.152L25.7938 29.1947L25.1538 29.2836L24.9529 29.3013L24.5742 29.3262H23.7654C23.6694 29.3262 23.5751 29.3262 23.4809 29.3084C23.3867 29.2907 23.3031 29.296 23.2214 29.2871L22.9405 29.2551L22.6916 29.2196L22.3929 29.1662L22.1618 29.12L21.8062 29.0347L21.6142 28.9813L21.0098 28.7769L20.7254 28.656L20.5831 28.5938L20.1707 28.3804C19.7139 28.1774 19.3196 27.8561 19.0284 27.4499C18.7372 27.0437 18.5595 26.5671 18.5138 26.0693V28.5671C18.5597 29.0648 18.7374 29.5413 19.0286 29.9475C19.3198 30.3537 19.7141 30.675 20.1707 30.8782L20.5831 31.0916L20.7254 31.1538L20.9796 31.264L21.0098 31.2747C21.2053 31.3505 21.4068 31.4181 21.6142 31.4773L21.6622 31.4951L21.8045 31.5307L22.16 31.6196C22.192 31.6196 22.2222 31.6373 22.2525 31.6409L22.3947 31.6658L22.6934 31.7191C22.7325 31.7191 22.7716 31.7369 22.8107 31.7404L22.944 31.7547L23.2249 31.7867L23.3582 31.8009H23.4827C23.5769 31.8009 23.6711 31.8116 23.7671 31.8151H24.576C24.7005 31.8151 24.8285 31.7973 24.9547 31.7902C25.0045 31.7902 25.056 31.7902 25.1076 31.7796H25.1556L25.7956 31.6907H25.8258L26.0036 31.6516L26.3129 31.5858L26.5334 31.5253L26.8231 31.4436L26.8854 31.4258L26.9849 31.3902L27.4258 31.2213L27.6036 31.1538C27.7858 31.0733 27.9638 30.9838 28.1369 30.8853L28.208 30.8444C28.2613 30.8142 28.304 30.7804 28.3502 30.7484L28.5529 30.6133L28.7094 30.4889L28.8871 30.3467L28.9227 30.3164C28.9937 30.2525 29.0614 30.1848 29.1253 30.1138L29.1609 30.0693L29.2676 29.9449L29.344 29.8418L29.3707 29.8062L29.4951 29.6284L29.5165 29.5858C29.5467 29.5289 29.5698 29.4702 29.5982 29.408L29.6462 29.3049V29.2693C29.664 29.2124 29.6818 29.1573 29.6942 29.1004L29.7298 28.9884V28.9564C29.7405 28.8978 29.744 28.8391 29.7476 28.7787C29.7511 28.7182 29.76 28.7022 29.76 28.6631V26.1244C29.7725 26.1707 29.7636 26.2258 29.7582 26.2809L29.7493 26.2649Z" fill="#32BEDD"/>
<path d="M28.0889 23.7867C28.5694 23.948 28.9875 24.2556 29.2845 24.6663C29.5816 25.0771 29.7427 25.5704 29.7455 26.0773C29.7482 26.5842 29.5924 27.0793 29.2998 27.4932C29.0072 27.9072 28.5925 28.2192 28.1138 28.3858C26.8837 29.0125 25.5227 29.3392 24.1422 29.3392C22.7617 29.3392 21.4007 29.0125 20.1707 28.3858C17.9715 27.1147 17.9609 25.0542 20.1475 23.7849C21.3776 23.1589 22.7382 22.8327 24.1184 22.833C25.4986 22.8333 26.8591 23.1601 28.0889 23.7867Z" fill="#50E6FF"/>
<path d="M29.7636 20.6578C29.7636 20.7111 29.7547 20.768 29.7493 20.8214L29.7316 20.9991C29.7209 21.0578 29.7067 21.0951 29.696 21.1414L29.648 21.3085C29.6302 21.3618 29.6125 21.3974 29.5911 21.4454L29.5093 21.6231C29.4791 21.6836 29.4205 21.8009 29.3671 21.8614L29.3405 21.8969L29.1627 22.128L29.1271 22.1707C29.0519 22.2519 28.973 22.3296 28.8907 22.4036C28.8335 22.4536 28.7742 22.501 28.7129 22.5458L28.5529 22.6702L28.352 22.8036L28.1387 22.9422C27.9657 23.0404 27.7877 23.1294 27.6053 23.2089L27.4276 23.28L26.9831 23.4471L26.8053 23.5005L26.5156 23.584L26.2951 23.6427L25.984 23.7085L25.7707 23.7511L25.1307 23.84L24.9298 23.8578L24.5511 23.8827H23.744C23.648 23.8827 23.5538 23.8827 23.4596 23.8649C23.3653 23.8471 23.2818 23.8525 23.2 23.8436L22.9191 23.8116L22.6702 23.776L22.3716 23.7227L22.1405 23.6765L21.7849 23.5876L21.5929 23.5342C21.3867 23.475 21.1852 23.4074 20.9885 23.3316L20.704 23.2107L20.5582 23.1485L20.1458 22.9351C19.6889 22.732 19.2945 22.4108 19.0029 22.0046C18.7114 21.5984 18.5334 21.1219 18.4871 20.624V23.1236C18.5334 23.6214 18.7114 24.0979 19.0029 24.5041C19.2945 24.9103 19.6889 25.2315 20.1458 25.4347L20.5582 25.648L20.7005 25.7102L20.9547 25.8205L20.9849 25.8311L21.5893 26.0338L21.6373 26.0516L21.7796 26.0871L22.1351 26.1725C22.1671 26.1725 22.1973 26.1902 22.2293 26.1956L22.368 26.2205L22.6667 26.2738C22.7058 26.2738 22.7449 26.2916 22.7858 26.2951L22.9173 26.3094L23.1982 26.3414L23.3316 26.3556H23.456C23.5502 26.3556 23.6445 26.3662 23.7405 26.3698H24.5476C24.6756 26.3698 24.8018 26.3556 24.928 26.3449C24.9778 26.3449 25.0293 26.3449 25.0809 26.3342H25.1271L25.7671 26.2454H25.7991L25.9769 26.2062L26.288 26.1405L26.5067 26.08L26.7982 25.9982L26.8605 25.9805C26.896 25.9698 26.9245 25.9538 26.9582 25.9449L27.4027 25.7778L27.5805 25.7067C27.7628 25.6266 27.9408 25.537 28.1138 25.4382L28.1813 25.3991L28.3271 25.3014L28.528 25.168L28.688 25.0436L28.8658 24.9014L28.9013 24.8711C28.972 24.8067 29.0396 24.7391 29.104 24.6685L29.1396 24.6258L29.2462 24.4978L29.3227 24.3947L29.3493 24.3591C29.3938 24.2962 29.4347 24.231 29.472 24.1636L29.4933 24.1209C29.5236 24.064 29.5467 24.0054 29.5751 23.9431L29.6231 23.8418V23.8062C29.6418 23.7507 29.6578 23.6944 29.6711 23.6374L29.7067 23.5254V23.4951C29.7173 23.4365 29.7209 23.376 29.7245 23.3174C29.728 23.2587 29.7369 23.2409 29.7369 23.2036V23.1538L29.7636 20.6578Z" fill="#32BEDD"/>
<path d="M29.7642 20.6556C29.7692 18.8589 27.259 17.3952 24.1574 17.3864C21.0558 17.3777 18.5373 18.8271 18.5322 20.6239C18.5271 22.4206 21.0374 23.8843 24.139 23.8931C27.2406 23.9018 29.7591 22.4524 29.7642 20.6556Z" fill="#50E6FF"/>
</svg>
