<svg width="32" height="32" viewBox="0 0 32 32" fill="none" xmlns="http://www.w3.org/2000/svg">
<g clip-path="url(#clip0_855_67554)">
<path d="M23.3422 4.2666V12.4266L16.32 16.5333V8.35549L23.3422 4.2666Z" fill="#773ADC"/>
<path d="M20.3556 8.37331C21.3333 7.80443 22.1333 8.24887 22.1333 9.36887C22.1009 9.98305 21.9228 10.5807 21.6136 11.1124C21.3045 11.6441 20.8733 12.0946 20.3556 12.4266C19.3778 12.9955 18.5778 12.5511 18.5778 11.4133C18.6116 10.8019 18.7904 10.2072 19.0996 9.67862C19.4087 9.15 19.8392 8.70256 20.3556 8.37331Z" fill="#552F99"/>
<path d="M14.0444 19.5557V27.7157L7.02222 31.8223V23.6446L14.0444 19.5557Z" fill="#773ADC"/>
<path d="M10.5245 24.0532C11.5022 23.5021 12.3022 23.9466 12.3022 25.0666C12.267 25.6801 12.0876 26.2766 11.7787 26.8079C11.4699 27.3392 11.0402 27.7902 10.5245 28.1243C9.54667 28.6932 8.74667 28.231 8.74667 27.111C8.78194 26.4975 8.96128 25.9009 9.27015 25.3697C9.57903 24.8384 10.0087 24.3874 10.5245 24.0532Z" fill="#552F99"/>
<path d="M7.02222 23.6446V31.8223L0 27.7157V19.5557L7.02222 23.6446Z" fill="#A67AF4"/>
<path d="M32 19.5732V27.7332L24.9778 31.8399V23.6621L32 19.5732Z" fill="#773ADC"/>
<path d="M20.4267 11.0223C21.4252 11.4411 22.3199 12.0735 23.0478 12.8751C23.7757 13.6767 24.3192 14.6281 24.64 15.6623L24.9778 15.4667L26.7556 16.4978C26.5256 14.9133 25.8888 13.4155 24.9073 12.1505C23.9259 10.8855 22.6332 9.89652 21.1556 9.28006C20.9198 9.18341 20.6553 9.18436 20.4203 9.28271C20.1852 9.38106 19.9989 9.56876 19.9022 9.80451C19.8056 10.0403 19.8065 10.3047 19.9049 10.5398C20.0032 10.7748 20.1909 10.9612 20.4267 11.0578V11.0223Z" fill="#32BEDD"/>
<path d="M24.9778 23.6799V31.8399L17.9556 27.7332V19.5732L24.9778 23.6799Z" fill="#A67AF4"/>
<path d="M21.6711 24.16C20.7467 23.6267 20 24.0711 20 25.12C20.0312 25.7004 20.1988 26.2652 20.4891 26.7687C20.7795 27.2721 21.1844 27.7001 21.6711 28.0178C22.5956 28.5511 23.3422 28.1245 23.3422 27.0578C23.311 26.4774 23.1434 25.9126 22.8531 25.4091C22.5627 24.9057 22.1578 24.4777 21.6711 24.16Z" fill="#552F99"/>
<path d="M16.3556 28.6401C14.3319 28.6513 12.3553 28.0297 10.7022 26.8623C10.5863 26.7927 10.486 26.6998 10.4078 26.5895C10.3296 26.4792 10.2751 26.3539 10.2478 26.2215C10.2204 26.089 10.2209 25.9523 10.2491 25.8201C10.2773 25.6878 10.3326 25.5629 10.4115 25.4531C10.4905 25.3433 10.5914 25.2511 10.7078 25.1822C10.8242 25.1134 10.9536 25.0695 11.0878 25.0532C11.2221 25.037 11.3582 25.0487 11.4877 25.0878C11.6172 25.1268 11.7371 25.1923 11.84 25.2801C13.0766 26.1669 14.5468 26.6701 16.0674 26.727C17.588 26.7839 19.0918 26.392 20.3911 25.6001C20.6127 25.4634 20.8796 25.4203 21.133 25.4803C21.3863 25.5403 21.6055 25.6985 21.7422 25.9201C21.879 26.1417 21.9221 26.4085 21.8621 26.6619C21.802 26.9153 21.6438 27.1345 21.4222 27.2712C19.8883 28.1774 18.1372 28.6505 16.3556 28.6401Z" fill="#32BEDD"/>
<path d="M23.3422 4.26658L16.3378 8.37325L9.31555 4.26658L16.3378 0.159912L23.3422 4.26658Z" fill="#B796F9"/>
<path d="M9.31555 9.42212C8.11765 10.2062 7.1162 11.2554 6.38868 12.4885C5.66116 13.7216 5.22707 15.1055 5.12 16.5332L7.11111 15.4488V15.5377C7.47014 14.1218 8.2366 12.8423 9.31555 11.8577V9.42212Z" fill="#32BEDD"/>
<path d="M32 19.5732L24.9778 23.6799L17.9556 19.5732L24.9778 15.4666L32 19.5732Z" fill="#B796F9"/>
<path d="M14.0444 19.5556L7.02222 23.6445L0 19.5556L7.02222 15.449L14.0444 19.5556Z" fill="#B796F9"/>
<path d="M16.32 8.37327V16.5333L9.31555 12.4266V4.2666L16.32 8.37327Z" fill="#A67AF4"/>
</g>
<defs>
<clipPath id="clip0_855_67554">
<rect width="32" height="32" fill="white"/>
</clipPath>
</defs>
</svg>
