<svg width="32" height="32" viewBox="0 0 32 32" fill="none" xmlns="http://www.w3.org/2000/svg">
<path d="M27.4311 6.68433V19.9821L16 26.6665V13.351L27.4311 6.68433Z" fill="#773ADC"/>
<path d="M27.4311 6.68444L16 13.3689L4.56891 6.68444L16 0L27.4311 6.68444Z" fill="#B796F9"/>
<path d="M16 13.3688V26.6665L4.56891 19.9821V6.68433L16 13.3688Z" fill="#A67AF4"/>
<path d="M21.1378 15.9999L16.1067 10.8799C16.0568 10.8311 15.9898 10.8037 15.92 10.8037C15.8502 10.8037 15.7832 10.8311 15.7333 10.8799L10.6667 15.9999C10.6297 16.0358 10.6047 16.0821 10.5952 16.1327C10.5857 16.1833 10.5921 16.2356 10.6136 16.2824C10.635 16.3292 10.6705 16.3682 10.715 16.394C10.7595 16.4199 10.811 16.4312 10.8622 16.4266H13.8311C13.8661 16.4266 13.9008 16.4335 13.9332 16.4469C13.9655 16.4603 13.9949 16.4799 14.0197 16.5047C14.0445 16.5295 14.0641 16.5589 14.0775 16.5912C14.0909 16.6236 14.0978 16.6583 14.0978 16.6933V21.3333C14.0976 21.401 14.1233 21.4663 14.1695 21.5158C14.2157 21.5653 14.2791 21.5954 14.3467 21.5999H17.4756C17.5135 21.605 17.552 21.6019 17.5886 21.5908C17.6251 21.5797 17.6589 21.5609 17.6876 21.5356C17.7162 21.5103 17.7391 21.4792 17.7547 21.4443C17.7703 21.4093 17.7781 21.3715 17.7778 21.3333V16.6222C17.7776 16.5544 17.8033 16.4891 17.8495 16.4396C17.8957 16.3901 17.9591 16.36 18.0267 16.3555H20.9956C21.0304 16.3443 21.0622 16.3255 21.089 16.3005C21.1157 16.2756 21.1366 16.245 21.1501 16.2111C21.1637 16.1772 21.1696 16.1406 21.1675 16.1041C21.1654 16.0676 21.1552 16.0321 21.1378 15.9999Z" fill="white"/>
<path d="M21.44 20.9956H10.2756C9.9123 20.9956 9.6178 21.2901 9.6178 21.6534V31.3423C9.6178 31.7056 9.9123 32 10.2756 32H21.44C21.8033 32 22.0978 31.7056 22.0978 31.3423V21.6534C22.0978 21.2901 21.8033 20.9956 21.44 20.9956Z" fill="url(#paint0_linear_855_67551)"/>
<path d="M14.4 28.9779L11.8933 26.4713L14.3467 24.0179C14.3792 23.9847 14.3975 23.94 14.3975 23.8935C14.3975 23.847 14.3792 23.8023 14.3467 23.7691L13.9555 23.3779C13.9193 23.3519 13.8758 23.3379 13.8311 23.3379C13.7865 23.3379 13.7429 23.3519 13.7067 23.3779L10.8622 26.2224C10.8279 26.2818 10.8098 26.3493 10.8098 26.4179C10.8098 26.4866 10.8279 26.554 10.8622 26.6135C10.8541 26.6546 10.8541 26.6969 10.8622 26.7379L13.7422 29.6179C13.7754 29.6505 13.8201 29.6688 13.8667 29.6688C13.9132 29.6688 13.9579 29.6505 13.9911 29.6179L14.3822 29.2268C14.4173 29.196 14.4388 29.1526 14.4421 29.106C14.4454 29.0595 14.4303 29.0135 14.4 28.9779Z" fill="white"/>
<path d="M21.3334 26.2224L18.5067 23.3779C18.4704 23.3519 18.4269 23.3379 18.3823 23.3379C18.3376 23.3379 18.2941 23.3519 18.2578 23.3779L17.8667 23.7691C17.8341 23.8023 17.8159 23.847 17.8159 23.8935C17.8159 23.94 17.8341 23.9847 17.8667 24.0179L20.3023 26.4713L17.7778 28.9779C17.7452 29.0112 17.727 29.0559 17.727 29.1024C17.727 29.1489 17.7452 29.1936 17.7778 29.2268L18.1689 29.6179C18.2022 29.6505 18.2468 29.6688 18.2934 29.6688C18.3399 29.6688 18.3846 29.6505 18.4178 29.6179L21.3334 26.6668C21.3839 26.6038 21.4114 26.5254 21.4114 26.4446C21.4114 26.3638 21.3839 26.2855 21.3334 26.2224Z" fill="white"/>
<defs>
<linearGradient id="paint0_linear_855_67551" x1="15.8934" y1="32.1956" x2="15.84" y2="24.16" gradientUnits="userSpaceOnUse">
<stop stop-color="#32BEDD"/>
<stop offset="0.36" stop-color="#34C1E0"/>
<stop offset="0.63" stop-color="#3CCBE8"/>
<stop offset="0.88" stop-color="#48DBF6"/>
<stop offset="1" stop-color="#50E6FF"/>
</linearGradient>
</defs>
</svg>
