<svg width="32" height="32" viewBox="0 0 32 32" fill="none" xmlns="http://www.w3.org/2000/svg">
<g clip-path="url(#clip0_855_67550)">
<path d="M21.5111 3.64429V10.3998L15.8222 13.7776V7.02207L21.5111 3.64429Z" fill="#773ADC"/>
<path d="M19.0222 7.22124C19.8027 6.75368 20.2667 7.0648 20.2667 8.00168C20.2197 8.43138 20.085 8.84685 19.871 9.22238C19.6569 9.5979 19.368 9.92547 19.0222 10.1848C18.3982 10.6524 17.7778 10.3412 17.7778 9.40435C17.8247 8.97466 17.9594 8.55918 18.1734 8.18366C18.3875 7.80813 18.6764 7.48056 19.0222 7.22124Z" fill="#552F99"/>
<path d="M21.5111 3.64438L15.8222 7.02216L9.95551 3.64438L15.8222 0.266602L21.5111 3.64438Z" fill="#B796F9"/>
<path d="M15.8222 7.02207V13.7776L9.95551 10.3998V3.64429L15.8222 7.02207Z" fill="#A67AF4"/>
<path d="M12.6507 7.20003C11.9396 6.84448 11.2284 7.20003 11.2284 7.91114C11.2253 8.3909 11.357 8.86189 11.6084 9.27048C11.8599 9.67908 12.221 10.0089 12.6507 10.2223C13.3618 10.5778 14.0729 10.2223 14.0729 9.51114C14.039 9.03997 13.8921 8.58391 13.6445 8.18159C13.3969 7.77928 13.056 7.44258 12.6507 7.20003Z" fill="#773ADC"/>
<path d="M31.6444 12.5332V19.2888L25.9555 22.6665V15.911L31.6444 12.5332Z" fill="#5E9624"/>
<path d="M25.9556 15.911V22.6665L20.2667 19.2888V12.5332L25.9556 15.911Z" fill="#76BC2D"/>
<path d="M23.2889 16.4444C22.5777 16.0889 21.8666 16.4444 21.8666 17.1555C21.8635 17.6353 21.9952 18.1063 22.2466 18.5149C22.498 18.9235 22.8592 19.2532 23.2889 19.4666C24 19.8222 24.7111 19.4666 24.7111 18.7555C24.6772 18.2844 24.5303 17.8283 24.2827 17.426C24.0351 17.0237 23.6942 16.687 23.2889 16.4444Z" fill="#5E9624"/>
<path d="M23.3546 10.7963C22.4223 9.69334 21.2424 8.82648 19.9111 8.26657C19.795 8.21432 19.6694 8.18674 19.5421 8.18558C19.4148 8.18443 19.2887 8.20972 19.1717 8.25986C19.0547 8.31 18.9494 8.38389 18.8625 8.47685C18.7755 8.56982 18.7088 8.67982 18.6666 8.7999C18.624 8.90444 18.6041 9.01688 18.6084 9.1297C18.6127 9.24252 18.6411 9.35313 18.6916 9.45411C18.742 9.5551 18.8135 9.64413 18.9012 9.71527C18.9889 9.7864 19.0907 9.83798 19.2 9.86657C20.1822 10.2799 21.0661 10.896 21.7937 11.6746L23.3546 10.7963Z" fill="#32BEDD"/>
<path d="M23.3493 14.3625C23.3813 14.4674 23.44 14.5599 23.4666 14.6665L23.68 14.5599L23.3493 14.3625Z" fill="#32BEDD"/>
<path d="M11.9111 12.8889V19.4667L6.04443 22.8445V16.2667L11.9111 12.8889Z" fill="#258277"/>
<path d="M6.04442 16.2667V22.8445L0.35553 19.4667V12.8889L6.04442 16.2667Z" fill="#37C2B1"/>
<path d="M13.1555 8.80004C13.0176 8.5595 12.8001 8.37461 12.5404 8.27725C12.2808 8.1799 11.9954 8.17617 11.7333 8.2667C10.4832 8.93304 9.36411 9.82024 8.43018 10.8854L10.3111 11.9627C10.973 11.2511 11.7554 10.6619 12.6222 10.2223C12.8627 10.0843 13.0476 9.86681 13.145 9.60719C13.2423 9.34757 13.246 9.06211 13.1555 8.80004Z" fill="#32BEDD"/>
<path d="M22.0444 21.5999V28.3554L16.3555 31.7332V24.9776L22.0444 21.5999Z" fill="#D15900"/>
<path d="M16.3555 24.9776V31.7332L10.6666 28.3554V21.5999L16.3555 24.9776Z" fill="#F78D1E"/>
<path d="M23.4667 17.8667C23.3673 17.7722 23.2482 17.7009 23.1179 17.658C22.9877 17.6151 22.8495 17.6017 22.7135 17.6187C22.5774 17.6357 22.4468 17.6827 22.3311 17.7564C22.2154 17.83 22.1175 17.9284 22.0444 18.0444C21.3801 18.8901 20.5748 19.6148 19.664 20.1867L21.3813 21.2053C22.2216 20.6755 22.9834 20.0304 23.6444 19.2889C23.739 19.1895 23.8102 19.0704 23.8531 18.9401C23.896 18.8099 23.9094 18.6717 23.8924 18.5357C23.8754 18.3996 23.8284 18.269 23.7547 18.1533C23.6811 18.0376 23.5827 17.9397 23.4667 17.8667Z" fill="#32BEDD"/>
<path d="M9.26575 16.3342C10.0764 15.8915 10.6666 16.2613 10.6666 17.1448C10.6321 17.6297 10.4881 18.1005 10.2455 18.5217C10.0029 18.9429 9.66788 19.3037 9.26575 19.5768C8.45686 20.0195 7.86664 19.6497 7.86664 18.7662C7.88586 18.2779 8.02319 17.8015 8.26687 17.378C8.51055 16.9544 8.8533 16.5962 9.26575 16.3342Z" fill="#207067"/>
<path d="M13.1964 20.0978C12.0674 19.6 11.0769 18.8342 10.3111 17.8667C10.2364 17.7527 10.1377 17.6562 10.0221 17.5841C9.90637 17.5119 9.77637 17.4658 9.64109 17.4489C9.5058 17.432 9.36845 17.4447 9.23857 17.4862C9.10868 17.5276 8.98935 17.5968 8.88886 17.6889C8.77482 17.7636 8.67839 17.8623 8.60625 17.978C8.5341 18.0936 8.48798 18.2236 8.47107 18.3589C8.45416 18.4942 8.46686 18.6316 8.50831 18.7614C8.54975 18.8913 8.61894 19.0107 8.71109 19.1112C9.39895 19.9757 10.2278 20.718 11.1626 21.3067L13.1964 20.0978Z" fill="#32BEDD"/>
<path d="M22.0444 21.5999L16.3555 24.9777L10.6666 21.5999L16.3555 18.2222L22.0444 21.5999Z" fill="#FFB34D"/>
<path d="M11.9111 12.8888L6.04442 16.2665L0.35553 12.8888L6.04442 9.51099L11.9111 12.8888Z" fill="#42E8CA"/>
<path d="M31.6444 12.5333L25.9556 15.911L20.2667 12.5333L25.9556 9.33325L31.6444 12.5333Z" fill="#B4EC36"/>
</g>
<defs>
<clipPath id="clip0_855_67550">
<rect width="32" height="32" fill="white"/>
</clipPath>
</defs>
</svg>
