<svg width="32" height="32" viewBox="0 0 32 32" fill="none" xmlns="http://www.w3.org/2000/svg">
<g clip-path="url(#clip0_855_67549)">
<path d="M26.0978 7.34229V19.0223L16.0711 24.8712V13.1912L26.0978 7.34229Z" fill="#773ADC"/>
<path d="M26.0978 7.34225L16.0711 13.2089L6.04443 7.34225L16.0711 1.47559L26.0978 7.34225Z" fill="#B796F9"/>
<path d="M16.0711 13.209V24.8712L6.04443 19.0223V7.34229L16.0711 13.209Z" fill="#A67AF4"/>
<path d="M10.7733 13.3689C9.45778 12.6222 8.39111 13.2266 8.39111 14.7378C8.4344 15.5621 8.67297 16.3643 9.08715 17.0783C9.50134 17.7923 10.0793 18.3976 10.7733 18.8444C12.0711 19.6089 13.1556 19.0044 13.1556 17.4933C13.1053 16.6683 12.8639 15.8662 12.4504 15.1504C12.037 14.4346 11.4629 13.8247 10.7733 13.3689Z" fill="#773ADC"/>
<path d="M32 25.5111L27.3956 20.8889C27.3722 20.8624 27.3435 20.8412 27.3113 20.8267C27.2791 20.8122 27.2442 20.8046 27.2089 20.8046C27.1736 20.8046 27.1387 20.8122 27.1065 20.8267C27.0743 20.8412 27.0456 20.8624 27.0222 20.8889V24.4445H5.97333C5.03034 24.4445 4.12597 24.0699 3.45918 23.4031C2.79238 22.7363 2.41778 21.8319 2.41778 20.8889C2.41778 19.9459 2.79238 19.0415 3.45918 18.3747C4.12597 17.708 5.03034 17.3334 5.97333 17.3334H10.2222C10.5397 17.3287 10.8427 17.1993 11.0656 16.973C11.2884 16.7468 11.4134 16.442 11.4133 16.1245C11.4133 15.8086 11.2878 15.5056 11.0645 15.2822C10.8411 15.0588 10.5381 14.9333 10.2222 14.9333H5.97333C4.38911 14.9333 2.86977 15.5627 1.74955 16.6829C0.629331 17.8031 0 19.3225 0 20.9067C0 22.4909 0.629331 24.0103 1.74955 25.1305C2.86977 26.2507 4.38911 26.88 5.97333 26.88H26.9511V30.4356C26.9745 30.4621 27.0032 30.4833 27.0354 30.4978C27.0676 30.5123 27.1025 30.5198 27.1378 30.5198C27.1731 30.5198 27.208 30.5123 27.2402 30.4978C27.2724 30.4833 27.3011 30.4621 27.3244 30.4356L32 25.8311C32.0413 25.7881 32.0643 25.7308 32.0643 25.6711C32.0643 25.6115 32.0413 25.5542 32 25.5111Z" fill="#32BEDD"/>
</g>
<defs>
<clipPath id="clip0_855_67549">
<rect width="32" height="32" fill="white"/>
</clipPath>
</defs>
</svg>
