<svg width="32" height="32" viewBox="0 0 32 32" fill="none" xmlns="http://www.w3.org/2000/svg">
<g clip-path="url(#clip0_850_25097)">
<path d="M32 0H0V32H32V0Z" fill="#DD344C"/>
<path fill-rule="evenodd" clip-rule="evenodd" d="M16.0005 22.3657L6.92686 17.9841L9.32446 16.8465L15.8261 19.9881C15.8821 20.0153 15.9413 20.0281 16.0005 20.0281C16.0597 20.0281 16.1189 20.0153 16.1749 19.9881L22.6757 16.8473L25.0741 17.9841L16.0005 22.3657ZM25.0157 21.2705L16.0005 25.6393L6.98526 21.2705L9.65486 20.1905L15.8261 23.1697C15.8821 23.1969 15.9413 23.2097 16.0005 23.2097C16.0597 23.2097 16.1189 23.1969 16.1749 23.1697L22.3461 20.1905L25.0157 21.2705ZM26.4006 17.9801C26.3997 17.8257 26.3117 17.6857 26.1717 17.6201L23.5997 16.4001L26.1749 15.1561C26.3133 15.0889 26.4006 14.9489 26.4006 14.7961C26.4006 14.6425 26.3133 14.5025 26.1749 14.4353L19.5629 11.2401L19.5789 11.3353C19.6221 11.5969 19.5941 11.8593 19.5125 12.1049L25.0813 14.7961L16.0005 19.1841L6.91966 14.7961L12.4893 12.1041C12.4069 11.8569 12.3789 11.5937 12.4229 11.3305L12.4389 11.2401L5.82606 14.4353C5.68766 14.5025 5.60027 14.6425 5.60027 14.7961C5.60027 14.9489 5.68766 15.0889 5.82606 15.1561L8.40046 16.4001L5.82926 17.6201C5.68926 17.6857 5.60126 17.8257 5.60027 17.9801C5.59966 18.1337 5.68766 18.2745 5.82606 18.3417L8.68366 19.7209L5.85006 20.8673C5.70366 20.9265 5.60606 21.0665 5.60027 21.2249C5.59566 21.3825 5.68366 21.5289 5.82606 21.5977L15.8261 26.4441C15.8813 26.4705 15.9413 26.4841 16.0005 26.4841C16.0597 26.4841 16.1197 26.4705 16.1749 26.4441L26.1749 21.5977C26.3173 21.5289 26.4053 21.3825 26.4006 21.2249C26.3949 21.0665 26.2973 20.9265 26.1509 20.8673L23.3173 19.7209L26.1749 18.3417C26.3133 18.2745 26.4013 18.1337 26.4006 17.9801ZM17.2429 9.0409C17.2045 9.1169 17.1917 9.2025 17.2061 9.2857L17.5277 11.2001H14.4749L14.8045 9.2777C14.8181 9.1937 14.8061 9.1065 14.7677 9.0305L13.4493 6.4001H18.5549L17.2429 9.0409ZM19.5405 5.7897C19.4677 5.6721 19.3389 5.6001 19.2005 5.6001H12.8005C12.6613 5.6001 12.5333 5.6721 12.4597 5.7905C12.3869 5.9081 12.3813 6.0561 12.4429 6.1801L13.9933 9.2713L13.6061 11.5329C13.5861 11.6489 13.6181 11.7681 13.6949 11.8585C13.7709 11.9489 13.8829 12.0001 14.0005 12.0001H15.6005V15.2001H16.4005V12.0001H18.0005C18.1181 12.0001 18.2301 11.9489 18.3061 11.8585C18.3821 11.7689 18.4149 11.6497 18.3949 11.5337L18.0165 9.2809L19.5581 6.1785C19.6197 6.0545 19.6141 5.9073 19.5405 5.7897Z" fill="white"/>
</g>
<defs>
<clipPath id="clip0_850_25097">
<rect width="32" height="32" fill="white"/>
</clipPath>
</defs>
</svg>
