<svg width="32" height="32" viewBox="0 0 32 32" fill="none" xmlns="http://www.w3.org/2000/svg">
<g clip-path="url(#clip0_850_25092)">
<path d="M32 0H0V32H32V0Z" fill="#DD344C"/>
<path fill-rule="evenodd" clip-rule="evenodd" d="M23.2188 24L15.2148 8.8H17.5124L25.5148 24H23.2188ZM18.1076 8.2136C18.0388 8.0824 17.902 8 17.754 8H14.5524C14.4124 8 14.282 8.0736 14.21 8.1936C14.1372 8.3136 14.1332 8.4624 14.1988 8.5864L22.6236 24.5864C22.6932 24.7176 22.8292 24.8 22.9772 24.8H26.1772C26.3172 24.8 26.4476 24.7264 26.5196 24.6064C26.5924 24.4864 26.5972 24.3376 26.5316 24.2136L18.1076 8.2136ZM18.2468 24L12.4572 12.4224L13.5532 10.4616L20.5428 24H18.2468ZM13.9228 9.4336C13.8548 9.3024 13.7212 9.2192 13.5732 9.2168H13.5676C13.4228 9.2168 13.2892 9.2952 13.218 9.4216L11.6556 12.2168C11.5908 12.3328 11.5876 12.4728 11.6468 12.5912L17.642 24.5792C17.71 24.7144 17.8484 24.8 18.0004 24.8H21.2004C21.3396 24.8 21.4684 24.7272 21.5412 24.608C21.614 24.4888 21.6196 24.3408 21.5556 24.2168L13.9228 9.4336ZM5.88356 24L11.0868 14.7408L11.9468 16.396L8.99956 21.84C8.93236 21.9648 8.93556 22.1144 9.00676 22.2352C9.07876 22.3568 9.20996 22.4312 9.35076 22.4312H14.95L15.7476 24H5.88356ZM15.5516 21.8496C15.4836 21.7152 15.346 21.6312 15.1956 21.6312H10.0228L12.7516 16.5904C12.8148 16.4736 12.8164 16.3336 12.7548 16.216L11.4548 13.716C11.3876 13.5848 11.2532 13.5024 11.106 13.5H11.1004C10.9556 13.5 10.822 13.5776 10.7516 13.704L4.85156 24.204C4.78196 24.328 4.78276 24.4792 4.85476 24.6016C4.92676 24.7248 5.05796 24.8 5.20036 24.8H16.4004C16.5388 24.8 16.6684 24.728 16.7404 24.6088C16.814 24.4904 16.8196 24.3424 16.7564 24.2184L15.5516 21.8496Z" fill="white"/>
</g>
<defs>
<clipPath id="clip0_850_25092">
<rect width="32" height="32" fill="white"/>
</clipPath>
</defs>
</svg>
