<svg width="32" height="32" viewBox="0 0 32 32" fill="none" xmlns="http://www.w3.org/2000/svg">
<g clip-path="url(#clip0_850_25103)">
<path d="M32 0H0V32H32V0Z" fill="#DD344C"/>
<path fill-rule="evenodd" clip-rule="evenodd" d="M20.1058 20.5563L20.5112 21.2477L18.8688 22.21L18.4634 21.5185L20.1058 20.5563ZM12.5706 20.5435L14.2275 21.4793L13.8333 22.1771L12.1765 21.2413L12.5706 20.5435ZM20.1058 11.26L18.4634 10.2986L18.8688 9.60637L20.5112 10.5686L20.1058 11.26ZM12.5706 11.2737L12.1765 10.575L13.8333 9.63922L14.2275 10.3371L12.5706 11.2737ZM22.4372 16.7795H23.2384V15.1979H22.4372V16.7795ZM9.60064 16.7795H10.4018V15.2075H9.60064V16.7795ZM25.5987 21.1652L16.4332 26.3393L7.20109 21.1644V10.8346L16.4332 5.65969L25.5987 10.8338V21.1652ZM26.1972 10.2513L16.631 4.85128C16.5101 4.78318 16.3594 4.78238 16.2385 4.85048L6.6042 10.2505C6.47762 10.3218 6.3999 10.4548 6.3999 10.5999V21.3992C6.3999 21.5442 6.47762 21.6772 6.6042 21.7485L16.2385 27.1485C16.2986 27.1822 16.3667 27.1998 16.434 27.1998C16.5021 27.1998 16.5702 27.1822 16.631 27.1477L26.1972 21.7477C26.323 21.6764 26.3999 21.5434 26.3999 21.3992V10.5999C26.3999 10.4556 26.323 10.3226 26.1972 10.2513ZM10.107 20.324C9.68957 20.324 9.35067 19.9842 9.35067 19.5676C9.35067 19.1502 9.68957 18.8113 10.107 18.8113C10.5236 18.8113 10.8633 19.1502 10.8633 19.5676C10.8633 19.9842 10.5236 20.324 10.107 20.324ZM10.107 18.0101C9.24812 18.0101 8.54948 18.7087 8.54948 19.5676C8.54948 20.4265 9.24812 21.1251 10.107 21.1251C10.9659 21.1251 11.6645 20.4265 11.6645 19.5676C11.6645 18.7087 10.9659 18.0101 10.107 18.0101ZM22.6704 20.324C22.2538 20.324 21.9141 19.9842 21.9141 19.5676C21.9141 19.1502 22.2538 18.8113 22.6704 18.8113C23.0878 18.8113 23.4275 19.1502 23.4275 19.5676C23.4275 19.9842 23.0878 20.324 22.6704 20.324ZM22.6704 18.0101C21.8115 18.0101 21.1129 18.7087 21.1129 19.5676C21.1129 20.4265 21.8115 21.1251 22.6704 21.1251C23.5293 21.1251 24.2287 20.4265 24.2287 19.5676C24.2287 18.7087 23.5293 18.0101 22.6704 18.0101ZM17.1454 8.6866C17.1454 9.10322 16.8057 9.44213 16.3883 9.44213C15.9717 9.44213 15.6328 9.10322 15.6328 8.6866C15.6328 8.26918 15.9717 7.92947 16.3883 7.92947C16.8057 7.92947 17.1454 8.26918 17.1454 8.6866ZM14.8316 8.6866C14.8316 9.54468 15.5302 10.2433 16.3883 10.2433C17.248 10.2433 17.9466 9.54468 17.9466 8.6866C17.9466 7.82692 17.248 7.12828 16.3883 7.12828C15.5302 7.12828 14.8316 7.82692 14.8316 8.6866ZM22.6704 11.5573C23.0878 11.5573 23.4275 11.8962 23.4275 12.3136C23.4275 12.7302 23.0878 13.0699 22.6704 13.0699C22.2538 13.0699 21.9141 12.7302 21.9141 12.3136C21.9141 11.8962 22.2538 11.5573 22.6704 11.5573ZM16.3883 16.7106C15.9717 16.7106 15.6328 16.3709 15.6328 15.9542C15.6328 15.5368 15.9717 15.1979 16.3883 15.1979C16.8057 15.1979 17.1454 15.5368 17.1454 15.9542C17.1454 16.3709 16.8057 16.7106 16.3883 16.7106ZM17.1454 23.1938C17.1454 23.6105 16.8057 23.9502 16.3883 23.9502C15.9717 23.9502 15.6328 23.6105 15.6328 23.1938C15.6328 22.7764 15.9717 22.4375 16.3883 22.4375C16.8057 22.4375 17.1454 22.7764 17.1454 23.1938ZM10.107 13.0699C9.68957 13.0699 9.35067 12.7302 9.35067 12.3136C9.35067 11.8962 9.68957 11.5573 10.107 11.5573C10.5236 11.5573 10.8633 11.8962 10.8633 12.3136C10.8633 12.7302 10.5236 13.0699 10.107 13.0699ZM17.4314 14.8053C17.1542 14.5538 16.7905 14.3967 16.3883 14.3967C15.9661 14.3967 15.5823 14.5674 15.3019 14.8422L11.61 12.6998C11.6421 12.5756 11.6645 12.4474 11.6645 12.3136C11.6645 11.4547 10.9659 10.7561 10.107 10.7561C9.24812 10.7561 8.54948 11.4547 8.54948 12.3136C8.54948 13.1725 9.24812 13.8711 10.107 13.8711C10.5428 13.8711 10.937 13.6901 11.2198 13.4L14.8965 15.5336C14.8588 15.6682 14.8316 15.8076 14.8316 15.9542C14.8316 16.6905 15.3467 17.3051 16.0334 17.4677V21.6804C15.3467 21.8422 14.8316 22.4575 14.8316 23.1938C14.8316 24.0527 15.5302 24.7514 16.3883 24.7514C17.248 24.7514 17.9466 24.0527 17.9466 23.1938C17.9466 22.4912 17.4755 21.9023 16.8345 21.7084V17.4389C17.4755 17.2458 17.9466 16.6569 17.9466 15.9542C17.9466 15.7876 17.9137 15.6306 17.8649 15.4799L21.5247 13.3616C21.8107 13.6724 22.2161 13.8711 22.6704 13.8711C23.5293 13.8711 24.2287 13.1725 24.2287 12.3136C24.2287 11.4547 23.5293 10.7561 22.6704 10.7561C21.8115 10.7561 21.1129 11.4547 21.1129 12.3136C21.1129 12.4298 21.1273 12.5428 21.1529 12.6525L17.4314 14.8053Z" fill="white"/>
</g>
<defs>
<clipPath id="clip0_850_25103">
<rect width="32" height="32" fill="white"/>
</clipPath>
</defs>
</svg>
