<svg width="32" height="32" viewBox="0 0 32 32" fill="none" xmlns="http://www.w3.org/2000/svg">
<path d="M19.7867 30.4001C19.7821 30.6768 19.6701 30.941 19.4744 31.1367C19.2787 31.3324 19.0145 31.4444 18.7378 31.449H2.63111C2.35292 31.449 2.08613 31.3385 1.88943 31.1418C1.69273 30.9451 1.58222 30.6783 1.58222 30.4001V1.5112C1.57981 1.3728 1.6053 1.23532 1.65715 1.10698C1.70901 0.978635 1.78619 0.862046 1.88407 0.764164C1.98195 0.666282 2.09854 0.589111 2.22688 0.537251C2.35523 0.485392 2.4927 0.459907 2.63111 0.462314H18.7378C19.016 0.462314 19.2827 0.572822 19.4794 0.769527C19.6762 0.966231 19.7867 1.23302 19.7867 1.5112V30.4001Z" fill="url(#paint0_linear_855_67388)"/>
<path d="M4.24887 11.3247C4.25356 10.7997 4.4654 10.2978 4.8383 9.9282C5.2112 9.55863 5.71497 9.3513 6.23998 9.35132H15.2889C15.8122 9.35132 16.3142 9.55922 16.6842 9.92929C17.0543 10.2994 17.2622 10.8013 17.2622 11.3247C17.2646 11.5853 17.2152 11.8438 17.1171 12.0853C17.019 12.3267 16.874 12.5464 16.6905 12.7315C16.5071 12.9166 16.2887 13.0636 16.0482 13.1639C15.8076 13.2641 15.5495 13.3158 15.2889 13.3158H6.23998C5.71191 13.3158 5.20546 13.106 4.83205 12.7326C4.45865 12.3592 4.24887 11.8527 4.24887 11.3247Z" fill="#003067"/>
<path d="M4.24887 5.45798C4.26738 4.94395 4.48587 4.45747 4.85778 4.10215C5.2297 3.74684 5.72565 3.55079 6.23998 3.55576H15.2889C15.8015 3.55091 16.2955 3.74753 16.6646 4.1033C17.0336 4.45907 17.2482 4.94554 17.2622 5.45798C17.2622 5.98134 17.0543 6.48326 16.6842 6.85334C16.3142 7.22341 15.8122 7.43131 15.2889 7.43131H6.23998C5.71497 7.43133 5.2112 7.224 4.8383 6.85443C4.4654 6.48486 4.25356 5.98297 4.24887 5.45798Z" fill="#003067"/>
<path d="M6.31112 6.79118C7.0475 6.79118 7.64445 6.19422 7.64445 5.45785C7.64445 4.72147 7.0475 4.12451 6.31112 4.12451C5.57474 4.12451 4.97778 4.72147 4.97778 5.45785C4.97778 6.19422 5.57474 6.79118 6.31112 6.79118Z" fill="#50E6FF"/>
<path d="M6.31112 12.6579C7.0475 12.6579 7.64445 12.0609 7.64445 11.3245C7.64445 10.5882 7.0475 9.99121 6.31112 9.99121C5.57474 9.99121 4.97778 10.5882 4.97778 11.3245C4.97778 12.0609 5.57474 12.6579 6.31112 12.6579Z" fill="#50E6FF"/>
<path d="M22.4356 29.7778C26.844 29.7778 30.4178 28.3133 30.4178 26.5067C30.4178 24.7001 26.844 23.2356 22.4356 23.2356C18.0271 23.2356 14.4533 24.7001 14.4533 26.5067C14.4533 28.3133 18.0271 29.7778 22.4356 29.7778Z" fill="#76BC2D"/>
<path d="M22.6311 27.2002C24.094 27.2002 25.28 26.8739 25.28 26.4713C25.28 26.0688 24.094 25.7424 22.6311 25.7424C21.1682 25.7424 19.9822 26.0688 19.9822 26.4713C19.9822 26.8739 21.1682 27.2002 22.6311 27.2002Z" fill="#5E9624"/>
<path d="M22.4356 22.5068C26.844 22.5068 30.4178 21.0423 30.4178 19.2357C30.4178 17.4291 26.844 15.9646 22.4356 15.9646C18.0271 15.9646 14.4533 17.4291 14.4533 19.2357C14.4533 21.0423 18.0271 22.5068 22.4356 22.5068Z" fill="url(#paint1_linear_855_67388)"/>
<path d="M22.6311 19.929C24.094 19.929 25.28 19.6026 25.28 19.2001C25.28 18.7975 24.094 18.4712 22.6311 18.4712C21.1682 18.4712 19.9822 18.7975 19.9822 19.2001C19.9822 19.6026 21.1682 19.929 22.6311 19.929Z" fill="#005BA1"/>
<path d="M22.4356 29.7244C26.8444 29.7244 30.4178 28.2489 30.4178 26.4355V28.4444C30.2578 30.2222 26.7556 31.6089 22.4356 31.6089C18.1156 31.6089 14.4533 30.1511 14.4533 28.3378V26.56C14.4533 28.2489 18.0267 29.7244 22.4356 29.7244Z" fill="#5E9624"/>
<path d="M22.4356 22.4357C26.8444 22.4357 30.4178 20.9779 30.4178 19.1646V21.1023C30.2578 22.8801 26.7556 24.2668 22.4356 24.2668C18.1156 24.2668 14.4533 22.7912 14.4533 20.9779V19.2001C14.4533 20.9779 18.0267 22.4357 22.4356 22.4357Z" fill="#0078D4"/>
<defs>
<linearGradient id="paint0_linear_855_67388" x1="10.6844" y1="31.449" x2="10.6844" y2="0.462313" gradientUnits="userSpaceOnUse">
<stop stop-color="#949494"/>
<stop offset="0.53" stop-color="#A2A2A2"/>
<stop offset="1" stop-color="#B3B3B3"/>
</linearGradient>
<linearGradient id="paint1_linear_855_67388" x1="18.7556" y1="9.48407" x2="30.5202" y2="17.5317" gradientUnits="userSpaceOnUse">
<stop stop-color="#0078D4"/>
<stop offset="0.02" stop-color="#0D7ED8"/>
<stop offset="0.08" stop-color="#2B8AE0"/>
<stop offset="0.15" stop-color="#4194E7"/>
<stop offset="0.22" stop-color="#519BEB"/>
<stop offset="0.29" stop-color="#5B9FEE"/>
<stop offset="0.4" stop-color="#5EA0EF"/>
<stop offset="0.55" stop-color="#5B9FEE"/>
<stop offset="0.68" stop-color="#509AEB"/>
<stop offset="0.8" stop-color="#3F92E6"/>
<stop offset="0.91" stop-color="#2688DF"/>
<stop offset="0.99" stop-color="#127FD9"/>
</linearGradient>
</defs>
</svg>
