<svg width="32" height="32" viewBox="0 0 32 32" fill="none" xmlns="http://www.w3.org/2000/svg">
<path d="M19.5555 17.0132C18.2115 16.9784 16.8711 17.1708 15.5911 17.5821C16.8695 18.0022 18.2103 18.2006 19.5555 18.1688C20.901 18.2035 22.2423 18.005 23.52 17.5821C22.2406 17.1677 20.8998 16.9753 19.5555 17.0132Z" fill="#198AB3"/>
<path d="M20.3911 29.8844C20.3911 30.019 20.3643 30.1523 20.3123 30.2764C20.2603 30.4005 20.184 30.513 20.0881 30.6073C19.9921 30.7017 19.8782 30.7759 19.7532 30.8258C19.6282 30.8757 19.4946 30.9001 19.36 30.8978H3.71555C3.58182 30.9002 3.44897 30.8756 3.32493 30.8256C3.2009 30.7755 3.08823 30.7009 2.99365 30.6063C2.89907 30.5118 2.82452 30.3991 2.77444 30.2751C2.72437 30.151 2.69981 30.0182 2.70222 29.8844V1.77778C2.70688 1.51212 2.8157 1.25892 3.00523 1.07271C3.19476 0.886503 3.44985 0.782186 3.71555 0.782227H19.36C19.6304 0.782186 19.89 0.888377 20.0829 1.07792C20.2758 1.26746 20.3864 1.52518 20.3911 1.79556V29.8844Z" fill="url(#paint0_linear_855_67392)"/>
<path d="M5.33334 11.3421C5.33325 10.839 5.53065 10.356 5.88306 9.99689C6.23548 9.63783 6.71475 9.43144 7.21778 9.42212H16C16.5092 9.42212 16.9976 9.6244 17.3576 9.98447C17.7177 10.3445 17.92 10.8329 17.92 11.3421C17.9224 11.5957 17.8744 11.8473 17.779 12.0823C17.6835 12.3173 17.5425 12.5311 17.364 12.7113C17.1855 12.8914 16.973 13.0345 16.7389 13.1321C16.5048 13.2297 16.2536 13.2799 16 13.2799H7.21778C6.71166 13.2705 6.22971 13.0617 5.8768 12.6988C5.52388 12.3359 5.32856 11.8483 5.33334 11.3421Z" fill="#003067"/>
<path d="M5.33334 5.63558C5.33326 5.13246 5.53065 4.64941 5.88307 4.29035C6.23549 3.93128 6.71476 3.72489 7.21779 3.71558H16C16.5092 3.71558 16.9976 3.91786 17.3577 4.27793C17.7177 4.638 17.92 5.12636 17.92 5.63558C17.92 6.14479 17.7177 6.63315 17.3577 6.99322C16.9976 7.35329 16.5092 7.55558 16 7.55558H7.21779C6.71476 7.54626 6.23549 7.33987 5.88307 6.9808C5.53065 6.62174 5.33326 6.13869 5.33334 5.63558Z" fill="#003067"/>
<path d="M7.30666 6.93345C8.0234 6.93345 8.60444 6.35241 8.60444 5.63567C8.60444 4.91893 8.0234 4.33789 7.30666 4.33789C6.58992 4.33789 6.00888 4.91893 6.00888 5.63567C6.00888 6.35241 6.58992 6.93345 7.30666 6.93345Z" fill="#50E6FF"/>
<path d="M7.30666 12.64C8.0234 12.64 8.60444 12.059 8.60444 11.3422C8.60444 10.6255 8.0234 10.0444 7.30666 10.0444C6.58992 10.0444 6.00888 10.6255 6.00888 11.3422C6.00888 12.059 6.58992 12.64 7.30666 12.64Z" fill="#50E6FF"/>
<path d="M23.5911 20.2311C20.4444 20.2311 17.8844 19.2889 17.8844 18.1511V29.1556C17.8844 30.2756 20.4089 31.2 23.52 31.2178C26.6844 31.2178 29.2267 30.2933 29.2267 29.1556V18.1511C29.2978 19.2889 26.7555 20.2311 23.5911 20.2311Z" fill="url(#paint1_linear_855_67392)"/>
<path d="M29.2978 18.1511C29.2978 19.2889 26.7555 20.2311 23.5911 20.2311C20.4267 20.2311 17.8844 19.2889 17.8844 18.1511C17.8844 17.0133 20.4444 16.0889 23.5911 16.0889C26.7378 16.0889 29.2978 17.0133 29.2978 18.1511Z" fill="#E6E6E6"/>
<path d="M27.9644 17.9911C27.9644 18.72 26.0089 19.3066 23.5911 19.3066C21.1733 19.3066 19.2178 18.72 19.2178 17.9911C19.2178 17.2622 21.1733 16.6755 23.5911 16.6755C26.0089 16.6755 27.9644 17.2622 27.9644 17.9911Z" fill="#50E6FF"/>
<path d="M24.32 15.3956L28.1067 11.6089C28.1357 11.5816 28.1557 11.546 28.1639 11.507C28.1722 11.468 28.1683 11.4274 28.1528 11.3906C28.1374 11.3539 28.111 11.3227 28.0774 11.3014C28.0437 11.28 28.0043 11.2695 27.9644 11.2711H25.76C25.76 6.70223 23.3244 2.15112 18.9333 2.15112C20.1401 3.33129 21.0814 4.75514 21.6945 6.32775C22.3076 7.90036 22.5784 9.5856 22.4889 11.2711H20.3911C20.3513 11.2695 20.3119 11.28 20.2782 11.3014C20.2445 11.3227 20.2182 11.3539 20.2027 11.3906C20.1872 11.4274 20.1833 11.468 20.1916 11.507C20.1999 11.546 20.2198 11.5816 20.2489 11.6089L24.0355 15.3956C24.0747 15.4306 24.1253 15.4499 24.1778 15.4499C24.2302 15.4499 24.2809 15.4306 24.32 15.3956Z" fill="#50E6FF"/>
<defs>
<linearGradient id="paint0_linear_855_67392" x1="11.5378" y1="30.8978" x2="11.5378" y2="0.782227" gradientUnits="userSpaceOnUse">
<stop stop-color="#949494"/>
<stop offset="0.53" stop-color="#A2A2A2"/>
<stop offset="1" stop-color="#B3B3B3"/>
</linearGradient>
<linearGradient id="paint1_linear_855_67392" x1="17.8844" y1="24.6933" x2="29.2978" y2="24.6933" gradientUnits="userSpaceOnUse">
<stop stop-color="#005BA1"/>
<stop offset="0.07" stop-color="#0060A9"/>
<stop offset="0.36" stop-color="#0071C8"/>
<stop offset="0.52" stop-color="#0078D4"/>
<stop offset="0.64" stop-color="#0074CD"/>
<stop offset="0.82" stop-color="#006ABB"/>
<stop offset="1" stop-color="#005BA1"/>
</linearGradient>
</defs>
</svg>
