<svg width="32" height="32" viewBox="0 0 32 32" fill="none" xmlns="http://www.w3.org/2000/svg">
<g clip-path="url(#clip0_855_67391)">
<path d="M28.9991 21.2373C29.1719 21.2377 29.343 21.2042 29.5028 21.1385C29.6626 21.0728 29.8079 20.9763 29.9304 20.8545C30.0529 20.7326 30.1502 20.5879 30.2167 20.4284C30.2833 20.269 30.3178 20.098 30.3182 19.9253C30.3226 19.8726 30.3226 19.8197 30.3182 19.767C29.792 15.6302 27.4329 12.2666 22.9333 12.2666C18.352 12.2666 15.9876 15.1199 15.5271 19.783C15.4913 20.1321 15.5955 20.4812 15.8168 20.7535C16.0382 21.0258 16.3585 21.1992 16.7076 21.2355C16.752 21.2381 16.7965 21.2381 16.8409 21.2355L28.9991 21.2373Z" fill="#773ADC"/>
<path d="M22.9298 13.2427C25.2224 13.2427 27.0809 11.3841 27.0809 9.09154C27.0809 6.79895 25.2224 4.94043 22.9298 4.94043C20.6372 4.94043 18.7787 6.79895 18.7787 9.09154C18.7787 11.3841 20.6372 13.2427 22.9298 13.2427Z" fill="#773ADC"/>
<path d="M20.1867 25.177C20.7093 25.1784 21.211 24.9723 21.5817 24.6039C21.9524 24.2355 22.1617 23.7351 22.1636 23.2125C22.1642 23.1329 22.1594 23.0533 22.1494 22.9743C21.376 16.7805 17.8418 11.7334 11.0987 11.7334C4.24003 11.7334 0.70047 16.0001 0.0106925 22.9921C-0.0430027 23.5147 0.112953 24.0372 0.444296 24.4449C0.775638 24.8526 1.25527 25.112 1.7778 25.1663C1.84394 25.1734 1.9104 25.1769 1.97691 25.177H20.1867Z" fill="url(#paint0_linear_855_67391)"/>
<path opacity="0.8" d="M11.2 13.2053C10.008 13.2057 8.84129 12.8619 7.84003 12.2151L11.1716 20.9173L14.4782 12.2666C13.4955 12.8815 12.3593 13.2068 11.2 13.2053Z" fill="white"/>
<path d="M11.1591 13.2054C14.5917 13.2054 17.3743 10.4228 17.3743 6.99026C17.3743 3.55775 14.5917 0.775146 11.1591 0.775146C7.72663 0.775146 4.94403 3.55775 4.94403 6.99026C4.94403 10.4228 7.72663 13.2054 11.1591 13.2054Z" fill="url(#paint1_linear_855_67391)"/>
<path d="M24.1138 16.96L16.2276 28.0017L24.1138 31.2248L32 28.0017L24.1138 16.96Z" fill="url(#paint2_linear_855_67391)"/>
<path d="M24.1138 16.96L16.2276 28.0017L24.1138 31.2248V16.96Z" fill="#50E6FF"/>
</g>
<defs>
<linearGradient id="paint0_linear_855_67391" x1="11.0827" y1="10.0961" x2="11.0827" y2="28.4978" gradientUnits="userSpaceOnUse">
<stop offset="0.227" stop-color="#A67AF4"/>
<stop offset="1" stop-color="#773ADC"/>
</linearGradient>
<linearGradient id="paint1_linear_855_67391" x1="10.6169" y1="0.231147" x2="11.9591" y2="16.9405" gradientUnits="userSpaceOnUse">
<stop offset="0.225" stop-color="#A67AF4"/>
<stop offset="1" stop-color="#773ADC"/>
</linearGradient>
<linearGradient id="paint2_linear_855_67391" x1="16.2276" y1="24.0924" x2="32" y2="24.0924" gradientUnits="userSpaceOnUse">
<stop stop-color="#1988D9"/>
<stop offset="0.9" stop-color="#54AEF0"/>
</linearGradient>
<clipPath id="clip0_855_67391">
<rect width="32" height="32" fill="white"/>
</clipPath>
</defs>
</svg>
