<svg width="32" height="32" viewBox="0 0 32 32" fill="none" xmlns="http://www.w3.org/2000/svg">
<path d="M30.8089 5.49325L26.6666 1.43992C26.4658 1.24705 26.1984 1.13884 25.92 1.1377L18.4177 1.42214C18.2927 1.4357 18.1717 1.47415 18.0618 1.53521C17.9519 1.59628 17.8553 1.67872 17.7777 1.7777L1.19108 18.1688C1.09423 18.2602 1.01707 18.3704 0.964337 18.4927C0.911601 18.615 0.884399 18.7467 0.884399 18.8799C0.884399 19.0131 0.911601 19.1448 0.964337 19.2671C1.01707 19.3894 1.09423 19.4996 1.19108 19.591L12.2133 30.5599C12.4029 30.7467 12.6583 30.8513 12.9244 30.8513C13.1905 30.8513 13.4459 30.7467 13.6355 30.5599L30.2222 14.0799C30.3982 13.9183 30.5062 13.6959 30.5244 13.4577L31.1289 6.34658C31.1445 6.18934 31.1237 6.0306 31.0683 5.88264C31.0128 5.73468 30.924 5.60146 30.8089 5.49325ZM25.8844 8.1777C25.5328 8.1777 25.1891 8.07343 24.8967 7.87809C24.6044 7.68274 24.3765 7.40509 24.242 7.08024C24.1074 6.7554 24.0722 6.39795 24.1408 6.05309C24.2094 5.70824 24.3787 5.39147 24.6273 5.14284C24.876 4.89421 25.1927 4.7249 25.5376 4.6563C25.8824 4.5877 26.2399 4.62291 26.5647 4.75746C26.8896 4.89202 27.1672 5.11988 27.3626 5.41224C27.5579 5.70459 27.6622 6.04831 27.6622 6.39992C27.6622 6.87141 27.4749 7.3236 27.1415 7.657C26.8081 7.9904 26.3559 8.1777 25.8844 8.1777Z" fill="url(#paint0_linear_855_67389)"/>
<path d="M25.8844 3.05767C25.2347 3.06118 24.6006 3.25705 24.0621 3.62056C23.5235 3.98408 23.1048 4.49895 22.8586 5.10022C22.6124 5.70149 22.5498 6.36221 22.6787 6.99901C22.8076 7.63582 23.1222 8.22018 23.5829 8.67836C24.0435 9.13654 24.6296 9.44802 25.2671 9.57349C25.9045 9.69896 26.5649 9.6328 27.1648 9.38335C27.7648 9.13391 28.2774 8.71236 28.638 8.1719C28.9986 7.63144 29.1911 6.99628 29.1911 6.34655C29.1911 5.91315 29.1054 5.48402 28.939 5.08383C28.7726 4.68364 28.5288 4.32029 28.2215 4.01465C27.9142 3.70902 27.5495 3.46713 27.1485 3.3029C26.7474 3.13866 26.3178 3.05532 25.8844 3.05767ZM27.6622 6.70211C27.5679 7.17361 27.2901 7.58833 26.8901 7.85505C26.49 8.12177 26.0003 8.21863 25.5288 8.12433C25.0573 8.03003 24.6426 7.75229 24.3759 7.35222C24.1092 6.95214 24.0123 6.46249 24.1066 5.991C24.1702 5.63237 24.3424 5.30193 24.6 5.04438C24.8575 4.78683 25.188 4.6146 25.5466 4.551C25.8436 4.4779 26.1545 4.48268 26.4491 4.56487C26.7438 4.64706 27.0122 4.80389 27.2285 5.02019C27.4448 5.23649 27.6017 5.50493 27.6839 5.79958C27.766 6.09422 27.7708 6.40508 27.6977 6.70211H27.6622Z" fill="#005BA1"/>
<path d="M17.3155 9.26226L16.64 8.5867L16 9.26226L15.1289 8.39115L16.6222 6.84448L18.1689 8.39115L17.3155 9.26226ZM9.11997 16.0889L8.24886 15.2178L10.1689 13.2978L10.6666 13.7423L10.2222 13.2978L11.04 14.2223L9.11997 16.0889ZM13.6 9.90226L14.4711 10.7911L12.5866 12.6756L11.7155 11.8045L13.6 9.90226ZM6.75553 19.8223L5.20886 18.2756L6.75553 16.7823L7.62664 17.6534L6.95108 18.2756L7.62664 18.9511L6.75553 19.8223ZM9.24442 20.5689L11.3066 22.6489L10.4178 23.52L8.35553 21.4578L9.24442 20.5689ZM13.5822 26.6667L12.0355 25.12L12.9778 24.2489L13.5822 24.8711L14.2222 24.3023L15.0933 25.1734L13.5822 26.6667ZM17.7778 20.8534L18.6666 21.7245L16.6933 23.6089L15.8222 22.7378L17.7778 20.8534ZM20.1778 20.1956L19.2533 19.3245L21.1733 17.4045L22.0444 18.2756L20.2666 20.1956L19.84 19.7689L20.1778 20.1956ZM23.6089 16.7823L22.6666 16L23.2889 15.3067L22.6666 14.7023L23.5378 13.76L25.0844 15.3067L23.6089 16.7823ZM19.84 10.0445L21.9022 12.1067L21.0133 12.9956L18.9511 10.9334L19.84 10.0445Z" fill="white"/>
<defs>
<linearGradient id="paint0_linear_855_67389" x1="23.84" y1="25.6533" x2="12.4444" y2="6.61325" gradientUnits="userSpaceOnUse">
<stop stop-color="#0078D4"/>
<stop offset="0.16" stop-color="#1380DA"/>
<stop offset="0.53" stop-color="#3C91E5"/>
<stop offset="0.82" stop-color="#559CEC"/>
<stop offset="1" stop-color="#5EA0EF"/>
</linearGradient>
</defs>
</svg>
