<svg width="32" height="32" viewBox="0 0 32 32" fill="none" xmlns="http://www.w3.org/2000/svg">
<path d="M17.7778 1.29761H4.99557C4.72682 1.29761 4.46907 1.40437 4.27904 1.59441C4.089 1.78444 3.98224 2.04219 3.98224 2.31094V29.6887C3.98224 29.9575 4.089 30.2152 4.27904 30.4053C4.46907 30.5953 4.72682 30.7021 4.99557 30.7021H27.0045C27.2732 30.7021 27.531 30.5953 27.721 30.4053C27.911 30.2152 28.0178 29.9575 28.0178 29.6887V11.5732C28.0178 11.3044 27.911 11.0467 27.721 10.8566C27.531 10.6666 27.2732 10.5598 27.0045 10.5598H19.6978C19.4338 10.5598 19.1805 10.4549 18.9938 10.2682C18.8071 10.0815 18.7022 9.82831 18.7022 9.56427V2.31094C18.7074 2.05572 18.6144 1.80825 18.4424 1.61967C18.2703 1.43108 18.0324 1.31579 17.7778 1.29761Z" fill="white"/>
<path d="M17.2267 2.57772V9.45772C17.2267 10.1272 17.4926 10.7693 17.9661 11.2428C18.4395 11.7162 19.0816 11.9822 19.7511 11.9822H26.6667V29.4222H5.33333V2.57772H17.2444M17.7778 1.08438H4.83555C4.70099 1.08202 4.56731 1.10649 4.44231 1.15636C4.3173 1.20622 4.20349 1.28049 4.1075 1.37482C4.01151 1.46916 3.93528 1.58166 3.88324 1.70578C3.83121 1.8299 3.80442 1.96314 3.80444 2.09772V29.9022C3.80442 30.0367 3.83121 30.17 3.88324 30.2941C3.93528 30.4182 4.01151 30.5307 4.1075 30.6251C4.20349 30.7194 4.3173 30.7937 4.44231 30.8435C4.56731 30.8934 4.70099 30.9179 4.83555 30.9155H27.1644C27.299 30.9179 27.4327 30.8934 27.5577 30.8435C27.6827 30.7937 27.7965 30.7194 27.8925 30.6251C27.9885 30.5307 28.0647 30.4182 28.1168 30.2941C28.1688 30.17 28.1956 30.0367 28.1956 29.9022V11.5022C28.1956 11.3676 28.1688 11.2343 28.1168 11.1102C28.0647 10.9861 27.9885 10.8736 27.8925 10.7793C27.7965 10.6849 27.6827 10.6107 27.5577 10.5608C27.4327 10.5109 27.299 10.4865 27.1644 10.4888H19.7511C19.6165 10.4888 19.4833 10.4621 19.3592 10.41C19.2351 10.358 19.1225 10.2818 19.0282 10.1858C18.9339 10.0898 18.8596 9.97597 18.8097 9.85096C18.7599 9.72596 18.7354 9.59228 18.7378 9.45772V2.09772C18.7381 1.83796 18.6387 1.58797 18.4601 1.3994C18.2814 1.21082 18.0372 1.09806 17.7778 1.08438Z" fill="url(#paint0_linear_855_67390)"/>
<path d="M27.8044 10.6665L18.3822 1.29761V8.88872C18.3822 9.36021 18.5695 9.8124 18.9029 10.1458C19.2363 10.4792 19.6885 10.6665 20.16 10.6665H27.8044Z" fill="#0078D4"/>
<path d="M23.5733 15.0933H12.4444C12.2511 15.0933 12.0657 15.1701 11.929 15.3067C11.7923 15.4434 11.7155 15.6288 11.7155 15.8222C11.7155 16.0155 11.7923 16.2009 11.929 16.3376C12.0657 16.4742 12.2511 16.551 12.4444 16.551H23.6444C23.8377 16.551 24.0231 16.4742 24.1598 16.3376C24.2965 16.2009 24.3733 16.0155 24.3733 15.8222C24.3733 15.6288 24.2965 15.4434 24.1598 15.3067C24.0231 15.1701 23.8377 15.0933 23.6444 15.0933H23.5733ZM23.5733 19.431H12.4444C12.3404 19.4146 12.234 19.421 12.1327 19.4496C12.0314 19.4783 11.9374 19.5285 11.8574 19.597C11.7773 19.6654 11.713 19.7504 11.6689 19.846C11.6249 19.9417 11.6021 20.0457 11.6021 20.151C11.6021 20.2564 11.6249 20.3604 11.6689 20.4561C11.713 20.5517 11.7773 20.6367 11.8574 20.7051C11.9374 20.7735 12.0314 20.8238 12.1327 20.8525C12.234 20.8811 12.3404 20.8874 12.4444 20.871H23.6444C23.7485 20.8874 23.8548 20.8811 23.9562 20.8525C24.0575 20.8238 24.1514 20.7735 24.2315 20.7051C24.3116 20.6367 24.3758 20.5517 24.4199 20.4561C24.464 20.3604 24.4868 20.2564 24.4868 20.151C24.4868 20.0457 24.464 19.9417 24.4199 19.846C24.3758 19.7504 24.3116 19.6654 24.2315 19.597C24.1514 19.5285 24.0575 19.4783 23.9562 19.4496C23.8548 19.421 23.7485 19.4146 23.6444 19.431H23.5733ZM23.5733 23.7866H12.4444C12.2511 23.7866 12.0657 23.8634 11.929 24.0001C11.7923 24.1368 11.7155 24.3222 11.7155 24.5155C11.7155 24.7088 11.7923 24.8942 11.929 25.0309C12.0657 25.1676 12.2511 25.2444 12.4444 25.2444H23.6444C23.8377 25.2444 24.0231 25.1676 24.1598 25.0309C24.2965 24.8942 24.3733 24.7088 24.3733 24.5155C24.3733 24.3222 24.2965 24.1368 24.1598 24.0001C24.0231 23.8634 23.8377 23.7866 23.6444 23.7866H23.5733Z" fill="#83B9F9"/>
<path d="M8.51557 17.2801V14.9334C8.41056 14.9931 8.29644 15.0351 8.17779 15.0578L7.78668 15.1645V14.4356C7.97531 14.3779 8.1595 14.3066 8.33779 14.2223C8.53175 14.1642 8.71709 14.0805 8.8889 13.9734H9.45779V17.2801H8.51557ZM7.82224 21.9023V21.6356C7.80212 21.4822 7.80212 21.3268 7.82224 21.1734C7.88027 21.0396 7.94556 20.909 8.01779 20.7823C8.16741 20.6115 8.33422 20.4566 8.51557 20.3201C8.65499 20.2394 8.78096 20.1374 8.8889 20.0178C8.8889 20.0178 8.8889 19.8934 9.01335 19.8578C9.02655 19.8269 9.03336 19.7937 9.03336 19.7601C9.03336 19.7264 9.02655 19.6932 9.01335 19.6623C9.01335 19.4312 8.8889 19.3245 8.62224 19.3245C8.33963 19.3313 8.06867 19.4385 7.85779 19.6267V18.8267C8.01378 18.7386 8.18133 18.6728 8.35557 18.6312C8.52098 18.6127 8.68794 18.6127 8.85335 18.6312C9.14897 18.62 9.4389 18.7146 9.67113 18.8978C9.76844 18.9848 9.84583 19.0918 9.89799 19.2115C9.95015 19.3311 9.97585 19.4607 9.97335 19.5912C9.96868 19.8025 9.91384 20.0097 9.81335 20.1956C9.65631 20.3955 9.46338 20.5643 9.24446 20.6934L8.8889 20.9067C8.83461 20.9525 8.79708 21.015 8.78224 21.0845H10.08V21.8312L7.82224 21.9023ZM10.0267 25.6001C10.0397 25.7405 10.0152 25.882 9.95592 26.01C9.8966 26.138 9.80448 26.248 9.6889 26.3289C9.40943 26.512 9.08062 26.605 8.74668 26.5956C8.59315 26.6139 8.43799 26.6139 8.28446 26.5956L7.87557 26.4712V25.7067C7.97827 25.7713 8.09332 25.8137 8.21335 25.8312C8.34295 25.8512 8.47486 25.8512 8.60446 25.8312C8.72794 25.8531 8.85432 25.8531 8.97779 25.8312C9.01291 25.8029 9.04201 25.7679 9.06338 25.7282C9.08476 25.6885 9.09797 25.6449 9.10224 25.6001C9.1035 25.5377 9.08284 25.4768 9.04386 25.4281C9.00488 25.3794 8.95004 25.3459 8.8889 25.3334C8.75087 25.2864 8.60757 25.2565 8.46224 25.2445H8.21335V24.5512H8.48002C8.55184 24.5622 8.62516 24.5584 8.69547 24.5401C8.76579 24.5217 8.83161 24.4892 8.8889 24.4445C8.93244 24.4254 8.96833 24.3922 8.99088 24.3503C9.01342 24.3085 9.02133 24.2603 9.01335 24.2134C9.01335 24.2134 9.01335 24.0534 9.01335 24.0178C9.01335 23.9823 8.85335 24.0178 8.71113 24.0178C8.4926 24.0272 8.27939 24.0881 8.0889 24.1956V23.4667C8.34751 23.3554 8.62519 23.295 8.90668 23.2889C9.2143 23.2708 9.51963 23.3518 9.77779 23.5201C9.87353 23.5875 9.95009 23.6787 9.99996 23.7847C10.0498 23.8906 10.0713 24.0077 10.0622 24.1245C10.0662 24.3037 10.0098 24.479 9.90224 24.6223C9.78322 24.7614 9.62007 24.8556 9.44002 24.8889C9.54246 24.8944 9.6427 24.9208 9.73446 24.9667C9.82622 25.0126 9.90754 25.0769 9.97335 25.1556C10.0235 25.2981 10.0417 25.4498 10.0267 25.6001Z" fill="#0078D4"/>
<defs>
<linearGradient id="paint0_linear_855_67390" x1="16" y1="30.9155" x2="16" y2="1.08438" gradientUnits="userSpaceOnUse">
<stop stop-color="#0078D4"/>
<stop offset="0.82" stop-color="#5EA0EF"/>
</linearGradient>
</defs>
</svg>
