<svg width="32" height="32" viewBox="0 0 32 32" fill="none" xmlns="http://www.w3.org/2000/svg">
<g clip-path="url(#clip0_855_67386)">
<path d="M23.2889 0.462158H10.8445C10.6323 0.462158 10.4288 0.546444 10.2788 0.696473C10.1288 0.846502 10.0445 1.04998 10.0445 1.26216V19.3955C10.6738 18.851 11.3455 18.3576 12.0534 17.9199H14.4178L15.7334 19.6977V22.4355L14.08 24.6399L11.8045 24.3377L10.0267 23.6444V24.1244C10.0243 24.2309 10.0433 24.3369 10.0824 24.436C10.1215 24.5351 10.1801 24.6254 10.2546 24.7016C10.3291 24.7778 10.4181 24.8383 10.5164 24.8796C10.6146 24.9209 10.7201 24.9422 10.8267 24.9422H23.2711C23.3777 24.9422 23.4832 24.9209 23.5814 24.8796C23.6797 24.8383 23.7687 24.7778 23.8432 24.7016C23.9177 24.6254 23.9763 24.5351 24.0154 24.436C24.0546 24.3369 24.0735 24.2309 24.0711 24.1244V1.26216C24.0712 1.05303 23.9893 0.852195 23.8431 0.702667C23.6969 0.553138 23.498 0.466805 23.2889 0.462158Z" fill="#0078D4"/>
<path d="M11.9111 3.68001H14.2223C14.2494 3.67753 14.2767 3.68075 14.3026 3.68946C14.3284 3.69818 14.3521 3.71219 14.3722 3.7306C14.3923 3.74901 14.4083 3.77142 14.4192 3.79638C14.4301 3.82135 14.4357 3.84832 14.4356 3.87556V6.89779C14.4356 6.95437 14.4131 7.00863 14.3731 7.04864C14.3331 7.08864 14.2788 7.11112 14.2223 7.11112H11.9111C11.8839 7.11123 11.8569 7.10565 11.832 7.09473C11.807 7.08381 11.7846 7.06779 11.7662 7.04771C11.7478 7.02762 11.7338 7.00391 11.725 6.97809C11.7163 6.95228 11.7131 6.92492 11.7156 6.89779V3.87556C11.7156 3.8237 11.7362 3.77396 11.7729 3.73729C11.8095 3.70061 11.8593 3.68001 11.9111 3.68001ZM16 3.68001H18.2934C18.3452 3.68001 18.395 3.70061 18.4316 3.73729C18.4683 3.77396 18.4889 3.8237 18.4889 3.87556V6.89779C18.4914 6.92492 18.4882 6.95228 18.4795 6.97809C18.4708 7.00391 18.4567 7.02762 18.4383 7.04771C18.4199 7.06779 18.3975 7.08381 18.3726 7.09473C18.3476 7.10565 18.3206 7.11123 18.2934 7.11112H16C15.9728 7.11123 15.9458 7.10565 15.9209 7.09473C15.8959 7.08381 15.8735 7.06779 15.8551 7.04771C15.8367 7.02762 15.8226 7.00391 15.8139 6.97809C15.8052 6.95228 15.802 6.92492 15.8045 6.89779V3.87556C15.8045 3.8237 15.8251 3.77396 15.8618 3.73729C15.8984 3.70061 15.9482 3.68001 16 3.68001ZM20.0356 3.68001H22.3111C22.363 3.68001 22.4128 3.70061 22.4494 3.73729C22.4861 3.77396 22.5067 3.8237 22.5067 3.87556V6.89779C22.5092 6.92492 22.506 6.95228 22.4972 6.97809C22.4885 7.00391 22.4745 7.02762 22.4561 7.04771C22.4377 7.06779 22.4153 7.08381 22.3903 7.09473C22.3654 7.10565 22.3384 7.11123 22.3111 7.11112H19.9645C19.9079 7.11112 19.8536 7.08864 19.8136 7.04864C19.7736 7.00863 19.7511 6.95437 19.7511 6.89779V3.87556C19.751 3.84832 19.7566 3.82135 19.7675 3.79638C19.7785 3.77142 19.7945 3.74901 19.8146 3.7306C19.8346 3.71219 19.8584 3.69818 19.8842 3.68946C19.91 3.68075 19.9373 3.67753 19.9645 3.68001H20.0356ZM11.9111 9.17334H14.2223C14.2494 9.17087 14.2767 9.17409 14.3026 9.1828C14.3284 9.19151 14.3521 9.20552 14.3722 9.22393C14.3923 9.24235 14.4083 9.26475 14.4192 9.28972C14.4301 9.31468 14.4357 9.34165 14.4356 9.3689V12.4445C14.4269 12.4932 14.4 12.5368 14.3604 12.5665C14.3208 12.5961 14.2715 12.6097 14.2223 12.6045H11.9111C11.8649 12.6052 11.8199 12.5896 11.7841 12.5603C11.7483 12.531 11.724 12.4899 11.7156 12.4445V9.3689C11.7156 9.31703 11.7362 9.26729 11.7729 9.23062C11.8095 9.19395 11.8593 9.17334 11.9111 9.17334ZM16 9.17334H18.2934C18.3452 9.17334 18.395 9.19395 18.4316 9.23062C18.4683 9.26729 18.4889 9.31703 18.4889 9.3689V12.4445C18.4889 12.4963 18.4683 12.5461 18.4316 12.5827C18.395 12.6194 18.3452 12.64 18.2934 12.64H16C15.9693 12.6521 15.936 12.6562 15.9033 12.652C15.8706 12.6477 15.8394 12.6352 15.8128 12.6157C15.7862 12.5962 15.7649 12.5703 15.7511 12.5403C15.7372 12.5104 15.7311 12.4774 15.7334 12.4445V9.3689C15.7311 9.33597 15.7372 9.30299 15.7511 9.27304C15.7649 9.24309 15.7862 9.21715 15.8128 9.19763C15.8394 9.17811 15.8706 9.16564 15.9033 9.16139C15.936 9.15715 15.9693 9.16126 16 9.17334ZM20.0356 9.17334H22.3111C22.363 9.17334 22.4128 9.19395 22.4494 9.23062C22.4861 9.26729 22.5067 9.31703 22.5067 9.3689V12.4445C22.5067 12.4963 22.4861 12.5461 22.4494 12.5827C22.4128 12.6194 22.363 12.64 22.3111 12.64H19.9645C19.9373 12.6425 19.91 12.6393 19.8842 12.6306C19.8584 12.6218 19.8346 12.6078 19.8146 12.5894C19.7945 12.571 19.7785 12.5486 19.7675 12.5236C19.7566 12.4987 19.751 12.4717 19.7511 12.4445V9.3689C19.751 9.34165 19.7566 9.31468 19.7675 9.28972C19.7785 9.26475 19.7945 9.24235 19.8146 9.22393C19.8346 9.20552 19.8584 9.19151 19.8842 9.1828C19.91 9.17409 19.9373 9.17087 19.9645 9.17334H20.0356Z" fill="#F2F2F2"/>
<path d="M12.6578 19.6443C12.2517 19.6325 11.8538 19.7601 11.5303 20.0059C11.2068 20.2518 10.9773 20.601 10.88 20.9954H4.49778C4.43496 21.3058 4.39927 21.6211 4.39111 21.9376V22.0265H10.88C10.9896 22.3279 11.1787 22.594 11.4273 22.7967C11.6758 22.9993 11.9746 23.131 12.2918 23.1777C12.6091 23.2244 12.9331 23.1844 13.2295 23.0619C13.5259 22.9395 13.7837 22.7391 13.9755 22.4821C14.1673 22.2251 14.286 21.921 14.319 21.602C14.3521 21.283 14.2982 20.961 14.1631 20.6702C14.0281 20.3793 13.8168 20.1304 13.5518 19.9498C13.2868 19.7692 12.9779 19.6636 12.6578 19.6443Z" fill="#50E6FF"/>
<path d="M17.5645 18.8445C17.5227 17.6153 17.0001 16.4516 16.109 15.6038C15.218 14.756 14.0298 14.2918 12.8 14.3112C11.8055 14.2953 10.8312 14.5922 10.0146 15.16C9.19795 15.7278 8.58033 16.5378 8.24891 17.4756C7.45144 17.6039 6.70223 17.9413 6.07764 18.4535C5.45305 18.9657 4.97539 19.6343 4.69336 20.3912H10.4889C10.6898 19.9871 10.999 19.6469 11.3819 19.4083C11.7649 19.1697 12.2066 19.0422 12.6578 19.04C13.1116 19.0207 13.5621 19.125 13.9612 19.3419C14.3603 19.5587 14.693 19.8799 14.9237 20.2711C15.1544 20.6624 15.2745 21.1089 15.2711 21.5631C15.2677 22.0173 15.141 22.462 14.9045 22.8498C14.668 23.2376 14.3305 23.5538 13.9282 23.7646C13.5259 23.9755 13.0739 24.0731 12.6205 24.047C12.167 24.0208 11.7292 23.872 11.3537 23.6164C10.9783 23.3608 10.6794 23.0079 10.4889 22.5956H4.4978C4.72301 23.6158 5.29365 24.5268 6.11322 25.1747C6.9328 25.8226 7.95099 26.1675 8.99558 26.1511H16.8534H17.0667C18.0228 26.2028 18.9607 25.876 19.6779 25.2417C20.395 24.6073 20.8337 23.7161 20.8991 22.7609C20.9644 21.8057 20.6513 20.8631 20.0273 20.1369C19.4033 19.4107 18.5187 18.9592 17.5645 18.88V18.8445Z" fill="#32BEDD"/>
<path d="M12.6578 19.6445C12.2517 19.6327 11.8538 19.7603 11.5303 20.0061C11.2069 20.252 10.9774 20.6012 10.88 20.9956H4.4978C4.27617 20.9874 4.05587 20.9577 3.84002 20.9067C3.0776 20.7437 2.3985 20.3136 1.92509 19.6942C1.45169 19.0747 1.21511 18.3065 1.25801 17.528C1.3009 16.7495 1.62043 16.012 2.15903 15.4482C2.69763 14.8845 3.41986 14.5317 4.19557 14.4534H4.4978L4.60446 14.1512C4.85186 13.4152 5.33334 12.7805 5.97536 12.3439C6.61739 11.9073 7.38467 11.6929 8.16002 11.7334C8.80781 11.7203 9.44768 11.8776 10.0155 12.1896C10.5834 12.5016 11.0593 12.9573 11.3956 13.5112C11.7406 13.4397 12.0921 13.404 12.4445 13.4045C12.0602 12.5764 11.4444 11.8773 10.6716 11.3915C9.89868 10.9057 9.0017 10.654 8.08891 10.6667C7.16784 10.6582 6.26477 10.9219 5.49305 11.4248C4.72132 11.9277 4.11533 12.6473 3.75113 13.4934C2.79551 13.6707 1.9281 14.1664 1.29021 14.8998C0.652307 15.6331 0.281512 16.5608 0.23822 17.5318C0.194928 18.5027 0.481692 19.4597 1.0518 20.2469C1.6219 21.0341 2.44175 21.605 3.3778 21.8667C3.71207 21.9954 4.0687 22.0558 4.42669 22.0445H10.88C10.9896 22.3459 11.1787 22.612 11.4273 22.8147C11.6758 23.0173 11.9746 23.149 12.2919 23.1957C12.6091 23.2424 12.9331 23.2024 13.2295 23.0799C13.5259 22.9575 13.7837 22.7571 13.9755 22.5001C14.1673 22.2431 14.286 21.939 14.319 21.62C14.3521 21.301 14.2982 20.979 14.1631 20.6881C14.0281 20.3973 13.8169 20.1483 13.5519 19.9677C13.2868 19.7871 12.9779 19.6816 12.6578 19.6623V19.6445Z" fill="#50E6FF"/>
<path d="M14.2223 20.0711L22.2223 12.0711C22.402 11.8931 22.6448 11.7932 22.8978 11.7932C23.1508 11.7932 23.3936 11.8931 23.5734 12.0711L31.5556 20.0711C31.6155 20.1308 31.6563 20.2069 31.6728 20.2898C31.6894 20.3727 31.6809 20.4587 31.6485 20.5368C31.6162 20.6149 31.5613 20.6816 31.491 20.7285C31.4206 20.7753 31.3379 20.8002 31.2534 20.8H26.4178C26.3047 20.8 26.1961 20.845 26.1161 20.925C26.0361 21.005 25.9911 21.1135 25.9911 21.2267V31.2C25.9911 31.2896 25.9556 31.3755 25.8922 31.4389C25.8289 31.5022 25.743 31.5378 25.6534 31.5378H20.32C20.275 31.5404 20.2299 31.5334 20.1878 31.5174C20.1456 31.5013 20.1074 31.4765 20.0755 31.4446C20.0436 31.4127 20.0188 31.3744 20.0027 31.3323C19.9866 31.2901 19.9797 31.2451 19.9823 31.2V21.2267C19.9823 21.1135 19.9373 21.005 19.8573 20.925C19.7773 20.845 19.6687 20.8 19.5556 20.8H14.5956C14.505 20.8173 14.4112 20.8048 14.3283 20.7643C14.2455 20.7238 14.178 20.6575 14.1359 20.5754C14.0939 20.4933 14.0795 20.3998 14.0951 20.3089C14.1107 20.218 14.1553 20.1346 14.2223 20.0711Z" fill="url(#paint0_linear_855_67386)"/>
</g>
<defs>
<linearGradient id="paint0_linear_855_67386" x1="23.1289" y1="10.3645" x2="22.72" y2="35.2356" gradientUnits="userSpaceOnUse">
<stop stop-color="#9CEBFF"/>
<stop offset="1" stop-color="#50E6FF"/>
</linearGradient>
<clipPath id="clip0_855_67386">
<rect width="32" height="32" fill="white"/>
</clipPath>
</defs>
</svg>
