<svg width="32" height="32" viewBox="0 0 32 32" fill="none" xmlns="http://www.w3.org/2000/svg">
<path d="M24.9778 30.4177C25.6065 30.4177 26.2098 30.1692 26.656 29.7263C27.1023 29.2834 27.3553 28.682 27.36 28.0533C27.3694 27.9587 27.3694 27.8634 27.36 27.7688C26.4178 20.3022 22.1689 14.2222 14.0445 14.2222C5.92001 14.2222 1.5289 19.3777 0.711125 27.7866C0.646395 28.4135 0.832673 29.0404 1.22918 29.5302C1.62568 30.02 2.2001 30.3327 2.82668 30.3999H24.9778V30.4177Z" fill="url(#paint0_linear_855_67387)"/>
<path opacity="0.8" d="M14.0445 15.9999C12.6113 16.0093 11.2073 15.5949 10.0089 14.8088L14.0089 25.2799L17.9911 14.8799C16.8071 15.6171 15.4392 16.0053 14.0445 15.9999Z" fill="white"/>
<path d="M14.0445 16.0177C18.178 16.0177 21.5289 12.6668 21.5289 8.53327C21.5289 4.39973 18.178 1.04883 14.0445 1.04883C9.91093 1.04883 6.56003 4.39973 6.56003 8.53327C6.56003 12.6668 9.91093 16.0177 14.0445 16.0177Z" fill="url(#paint1_linear_855_67387)"/>
<path d="M30.7023 20.3555C30.8893 20.1689 31.0377 19.9473 31.139 19.7032C31.2402 19.4592 31.2924 19.1975 31.2924 18.9333C31.2924 18.6691 31.2402 18.4075 31.139 18.1634C31.0377 17.9194 30.8893 17.6977 30.7023 17.5111L27.2534 13.9555C27.068 13.7663 26.8467 13.616 26.6025 13.5134C26.3583 13.4108 26.096 13.3579 25.8311 13.3579C25.5662 13.3579 25.304 13.4108 25.0598 13.5134C24.8156 13.616 24.5943 13.7663 24.4089 13.9555L20.8534 17.4044C20.4745 17.7843 20.2617 18.299 20.2617 18.8355C20.2617 19.3721 20.4745 19.8867 20.8534 20.2666L23.7156 23.1822C23.7667 23.2337 23.8071 23.2947 23.8346 23.3618C23.862 23.4289 23.876 23.5008 23.8756 23.5733V28.9066C23.8726 29.0002 23.8901 29.0932 23.927 29.1792C23.9639 29.2652 24.0191 29.3421 24.0889 29.4044L25.3867 30.7378C25.4757 30.8215 25.5934 30.8681 25.7156 30.8681C25.8378 30.8681 25.9554 30.8215 26.0445 30.7378L27.3245 29.4578L28.0711 28.6933C28.0948 28.6701 28.1136 28.6425 28.1264 28.612C28.1392 28.5814 28.1458 28.5486 28.1458 28.5155C28.1458 28.4824 28.1392 28.4496 28.1264 28.4191C28.1136 28.3886 28.0948 28.3609 28.0711 28.3378L27.52 27.7866C27.4688 27.7309 27.4404 27.6579 27.4404 27.5822C27.4404 27.5065 27.4688 27.4335 27.52 27.3778L28.0711 26.8266C28.0972 26.805 28.1183 26.7778 28.1327 26.7471C28.1471 26.7163 28.1546 26.6828 28.1546 26.6489C28.1546 26.6149 28.1471 26.5814 28.1327 26.5507C28.1183 26.5199 28.0972 26.4928 28.0711 26.4711L27.5378 25.92C27.4866 25.8642 27.4582 25.7913 27.4582 25.7155C27.4582 25.6398 27.4866 25.5669 27.5378 25.5111L28.0889 24.96C28.1126 24.9368 28.1314 24.9091 28.1442 24.8786C28.157 24.8481 28.1636 24.8153 28.1636 24.7822C28.1636 24.7491 28.157 24.7163 28.1442 24.6858C28.1314 24.6553 28.1126 24.6276 28.0889 24.6044L27.3422 23.84V23.6444L30.7023 20.3555ZM25.8489 14.8266C26.1508 14.8358 26.4376 14.961 26.6496 15.1762C26.8615 15.3915 26.9823 15.6802 26.9867 15.9822C26.9892 16.1338 26.9609 16.2843 26.9034 16.4247C26.846 16.565 26.7607 16.6922 26.6526 16.7986C26.5446 16.905 26.4161 16.9883 26.2749 17.0436C26.1336 17.0988 25.9827 17.1248 25.8311 17.12C25.5516 17.0851 25.2944 16.9493 25.108 16.7382C24.9215 16.527 24.8186 16.255 24.8186 15.9733C24.8186 15.6916 24.9215 15.4196 25.108 15.2085C25.2944 14.9973 25.5516 14.8615 25.8311 14.8266H25.8489Z" fill="url(#paint2_radial_855_67387)"/>
<path opacity="0.75" d="M24.8889 29.12C24.9237 29.1555 24.9684 29.1798 25.0172 29.1897C25.0659 29.1996 25.1165 29.1947 25.1625 29.1756C25.2084 29.1564 25.2475 29.124 25.2748 29.0824C25.3021 29.0408 25.3163 28.992 25.3156 28.9422V24.5867C25.317 24.5425 25.3081 24.4986 25.2896 24.4585C25.271 24.4184 25.2434 24.3831 25.2089 24.3555C25.171 24.3291 25.1264 24.3137 25.0802 24.3112C25.034 24.3086 24.988 24.319 24.9474 24.3412C24.9067 24.3633 24.8731 24.3964 24.8502 24.4366C24.8273 24.4768 24.8161 24.5226 24.8178 24.5689V28.9422C24.8163 28.9752 24.8218 29.0081 24.8341 29.0388C24.8464 29.0695 24.8651 29.0972 24.8889 29.12Z" fill="#FF9300"/>
<path opacity="0.75" d="M23.0382 18.9079L23.0377 18.979C23.0367 19.1459 23.1712 19.2821 23.3381 19.2831L28.4402 19.3143C28.6071 19.3153 28.7433 19.1808 28.7443 19.0139L28.7447 18.9428C28.7457 18.7759 28.6113 18.6397 28.4444 18.6387L23.3422 18.6076C23.1753 18.6065 23.0392 18.741 23.0382 18.9079Z" fill="#FF9300"/>
<path opacity="0.75" d="M23.0203 20.0168L23.0198 20.0879C23.0188 20.2548 23.1533 20.391 23.3202 20.392L28.4223 20.4232C28.5892 20.4242 28.7254 20.2897 28.7264 20.1228L28.7268 20.0517C28.7278 19.8848 28.5934 19.7486 28.4264 19.7476L23.3243 19.7164C23.1574 19.7154 23.0213 19.8499 23.0203 20.0168Z" fill="#FF9300"/>
<defs>
<linearGradient id="paint0_linear_855_67387" x1="14.0267" y1="12.2666" x2="14.0267" y2="34.3999" gradientUnits="userSpaceOnUse">
<stop offset="0.22" stop-color="#32D4F5"/>
<stop offset="1" stop-color="#198AB3"/>
</linearGradient>
<linearGradient id="paint1_linear_855_67387" x1="13.3867" y1="0.39105" x2="15.0045" y2="20.4977" gradientUnits="userSpaceOnUse">
<stop offset="0.22" stop-color="#32D4F5"/>
<stop offset="1" stop-color="#198AB3"/>
</linearGradient>
<radialGradient id="paint2_radial_855_67387" cx="0" cy="0" r="1" gradientUnits="userSpaceOnUse" gradientTransform="translate(24.6743 21.6658) rotate(0.609507) scale(10.2445 10.2445)">
<stop offset="0.27" stop-color="#FFD70F"/>
<stop offset="1" stop-color="#FEA11B"/>
</radialGradient>
</defs>
</svg>
