<svg width="32" height="32" viewBox="0 0 32 32" fill="none" xmlns="http://www.w3.org/2000/svg">
<g clip-path="url(#clip0_867_35018)">
<path d="M32 0H0V32H32V0Z" fill="#C925D1"/>
<path fill-rule="evenodd" clip-rule="evenodd" d="M23.7232 22.6678C23.6288 22.7598 23.5856 22.8918 23.6072 23.0214L24.132 26.0774L21.3872 24.635C21.3296 24.6038 21.2656 24.5886 21.2016 24.5886C21.1376 24.5886 21.0728 24.6038 21.0152 24.635L18.2712 26.0774L18.7952 23.0214C18.8168 22.8918 18.7736 22.7598 18.6792 22.6678L16.4592 20.503L19.528 20.0574C19.6576 20.0382 19.7712 19.9566 19.8288 19.8382L21.2016 17.0582L22.5736 19.8382C22.6312 19.9566 22.744 20.0382 22.8736 20.0574L25.9432 20.503L23.7232 22.6678ZM27.1832 20.1006C27.1368 19.9558 27.0104 19.8502 26.8608 19.8286L23.1976 19.2958L21.56 15.9774C21.4928 15.8406 21.3536 15.7542 21.2016 15.7542C21.0488 15.7542 20.9096 15.8406 20.8424 15.9774L19.2048 19.2958L15.5416 19.8286C15.3912 19.8502 15.2664 19.9558 15.2192 20.1006C15.1728 20.2454 15.2112 20.4038 15.3208 20.5102L17.9712 23.0942L17.3448 26.7414C17.3192 26.891 17.3808 27.043 17.5048 27.1326C17.628 27.2222 17.7912 27.2342 17.9256 27.163L21.2016 25.4406L24.4768 27.163C24.536 27.1934 24.5992 27.2086 24.6632 27.2086C24.7456 27.2086 24.8288 27.183 24.8984 27.1326C25.0216 27.043 25.0832 26.891 25.0576 26.7414L24.432 23.0942L27.0816 20.5102C27.1912 20.4038 27.2304 20.2454 27.1832 20.1006ZM10.2624 9.8934C10.2624 7.5254 12.1888 5.5998 14.5568 5.5998C16.924 5.5998 18.8496 7.5254 18.8496 9.8934C18.8496 12.2606 16.924 14.187 14.5568 14.187C12.1888 14.187 10.2624 12.2606 10.2624 9.8934ZM14.3264 15.1742C15.7624 15.1742 17.1864 15.551 18.444 16.263L18.8384 15.567C18.0776 15.1358 17.2592 14.8294 16.416 14.631C18.3064 13.8854 19.6496 12.0454 19.6496 9.8934C19.6496 7.0846 17.3656 4.7998 14.5568 4.7998C11.7472 4.7998 9.46239 7.0846 9.46239 9.8934C9.46239 11.9782 10.7232 13.7726 12.5216 14.5598C8.12959 15.4502 4.79999 19.5318 4.79999 24.4086C4.79999 24.6302 4.97839 24.8086 5.19999 24.8086H16V24.0086H5.60719C5.80639 19.1086 9.64079 15.1742 14.3264 15.1742Z" fill="white"/>
</g>
<defs>
<clipPath id="clip0_867_35018">
<rect width="32" height="32" fill="white"/>
</clipPath>
</defs>
</svg>
