<svg width="32" height="32" viewBox="0 0 32 32" fill="none" xmlns="http://www.w3.org/2000/svg">
<g clip-path="url(#clip0_867_34201)">
<path d="M32 0H0V32H32V0Z" fill="#C925D1"/>
<path fill-rule="evenodd" clip-rule="evenodd" d="M26.4 15.9774C26.4 20.2094 23.856 23.8518 20.22 25.4742V24.587C23.4008 23.0214 25.6 19.7558 25.6 15.9774C25.6 11.5062 22.5224 7.7494 18.3776 6.6878L17.984 5.7726C22.7728 6.7022 26.4 10.9222 26.4 15.9774ZM11.78 24.587V25.4742C8.14478 23.8518 5.59998 20.2094 5.59998 15.9774C5.59998 10.9238 9.22478 6.7054 14.0096 5.7734L13.6168 6.6894C9.47438 7.7534 6.39998 11.5078 6.39998 15.9774C6.39998 19.7558 8.59918 23.0214 11.78 24.587ZM12.8 27.1774H13.6V19.1774H12.8V27.1774ZM18.4 27.1774H19.2V19.1774H18.4V27.1774ZM15.6 25.5774H16.4V16.7774H15.6V25.5774ZM16 6.135L20.1648 15.8774L16.244 12.8878C16.1176 12.7918 15.8904 12.815 15.7512 12.8918L11.8352 15.8774L16 6.135ZM10.6248 17.431C10.7696 17.5422 10.9704 17.5438 11.1136 17.4334L15.9968 13.7054L20.8864 17.4334C20.9576 17.4878 21.044 17.515 21.1288 17.515C21.216 17.515 21.3024 17.487 21.3752 17.431C21.5176 17.319 21.568 17.1254 21.4968 16.9582L16.3936 5.0206C16.2672 4.7262 15.7328 4.7262 15.6064 5.0206L10.5032 16.9582C10.432 17.1254 10.4824 17.319 10.6248 17.431Z" fill="white"/>
</g>
<defs>
<clipPath id="clip0_867_34201">
<rect width="32" height="32" fill="white"/>
</clipPath>
</defs>
</svg>
