<svg width="32" height="32" viewBox="0 0 32 32" fill="none" xmlns="http://www.w3.org/2000/svg">
<g clip-path="url(#clip0_867_34167)">
<path d="M32 0H0V32H32V0Z" fill="#C925D1"/>
<path fill-rule="evenodd" clip-rule="evenodd" d="M9.60325 22.0862L13.0168 19.2934L13.5224 19.9118L9.63125 23.0974L7.12805 21.271L7.60005 20.6246L9.60325 22.0862ZM7.60005 8.379C7.60005 6.8462 8.85605 5.5998 10.4 5.5998C11.944 5.5998 13.2 6.8462 13.2 8.379C13.2 9.9118 11.944 11.1582 10.4 11.1582C8.85605 11.1582 7.60005 9.9118 7.60005 8.379ZM10.4176 11.983C10.4304 11.9838 11.7736 11.9518 13.0592 12.747L13.48 12.0662C13.0312 11.7886 12.5832 11.607 12.1672 11.4782C13.256 10.8622 14 9.711 14 8.379C14 6.4054 12.3856 4.7998 10.4 4.7998C8.41525 4.7998 6.80005 6.4054 6.80005 8.379C6.80005 9.699 7.53045 10.8406 8.60245 11.4614C5.85045 12.3006 5.06885 14.9774 4.88245 15.9038L5.66645 16.0622C5.91285 14.8406 6.86645 11.9838 10.4176 11.983ZM15.2 23.983V18.0878C16.4056 17.2254 17.7488 16.783 19.2 16.783C20.5104 16.783 21.8288 17.1494 22.9144 17.8142C24.8936 19.027 26.2568 21.4694 26.3888 23.983H15.2ZM14.4 24.1358L10 26.383L5.60005 24.1358V18.2302L10 15.983L14.4 18.2302V24.1358ZM15.4 12.183C15.4 10.0878 17.1048 8.383 19.2 8.383C21.2952 8.383 23 10.0878 23 12.183C23 14.2782 21.2952 15.983 19.2 15.983C17.1048 15.983 15.4 14.2782 15.4 12.183ZM27.2 24.383C27.2 21.4182 25.6816 18.571 23.3312 17.1318C22.712 16.7526 22.0232 16.463 21.3048 16.2686C22.7848 15.503 23.8 13.9606 23.8 12.183C23.8 9.647 21.7368 7.583 19.2 7.583C16.6632 7.583 14.6 9.647 14.6 12.183C14.6 13.9678 15.6232 15.5142 17.1128 16.2766C16.2544 16.5214 15.4424 16.9222 14.6808 17.4758L10 15.183L4.80005 17.7358V24.6302L10 27.183L14.8944 24.783H27.2V24.383Z" fill="white"/>
</g>
<defs>
<clipPath id="clip0_867_34167">
<rect width="32" height="32" fill="white"/>
</clipPath>
</defs>
</svg>
