<svg width="32" height="32" viewBox="0 0 32 32" fill="none" xmlns="http://www.w3.org/2000/svg">
<g clip-path="url(#clip0_867_34179)">
<path d="M32 0H0V32H32V0Z" fill="#C925D1"/>
<path fill-rule="evenodd" clip-rule="evenodd" d="M22.4 23.0782C21.7384 23.0782 21.2 22.5398 21.2 21.8782C21.2 21.2166 21.7384 20.6782 22.4 20.6782C23.0616 20.6782 23.6 21.2166 23.6 21.8782C23.6 22.5398 23.0616 23.0782 22.4 23.0782ZM22.4 19.8782C21.2968 19.8782 20.4 20.7758 20.4 21.8782C20.4 22.9806 21.2968 23.8782 22.4 23.8782C23.5032 23.8782 24.4 22.9806 24.4 21.8782C24.4 20.7758 23.5032 19.8782 22.4 19.8782ZM26.4 22.3294L26.0929 22.3118C25.8969 22.307 25.7233 22.4318 25.6809 22.623C25.5961 22.995 25.4504 23.347 25.2464 23.671C25.1424 23.8366 25.172 24.0526 25.3176 24.183L25.548 24.3878L24.9096 25.0254L24.7064 24.7974C24.5768 24.651 24.3584 24.6206 24.1944 24.7254C23.8704 24.9294 23.5168 25.0758 23.1448 25.1606C22.9536 25.2038 22.8224 25.3782 22.8336 25.5734L22.8504 25.8782H21.9496L21.9664 25.5726C21.9776 25.3774 21.8464 25.2022 21.6552 25.1598C21.284 25.0758 20.9312 24.9294 20.6064 24.7246C20.4416 24.6206 20.2248 24.6518 20.0944 24.7966L19.8904 25.0254L19.252 24.3878L19.4816 24.1838C19.6264 24.0534 19.6568 23.8374 19.5528 23.6726C19.3496 23.3478 19.204 22.995 19.1192 22.623C19.0776 22.4318 18.9024 22.307 18.7072 22.3118L18.4 22.3294V21.427L18.708 21.4446C18.9024 21.455 19.0776 21.3254 19.12 21.1342C19.2056 20.7622 19.3512 20.4102 19.5552 20.087C19.6592 19.9222 19.6296 19.7054 19.4832 19.575L19.252 19.3686L19.8904 18.7302L20.0968 18.9614C20.2264 19.107 20.444 19.1374 20.6088 19.0334C20.9312 18.8302 21.2832 18.6838 21.6552 18.6006C21.8464 18.5574 21.9776 18.383 21.9664 18.1878L21.9496 17.8782H22.8504L22.8336 18.1878C22.8224 18.383 22.9536 18.5574 23.1448 18.6006C23.5168 18.6846 23.8688 18.831 24.1912 19.0342C24.356 19.1382 24.5736 19.1086 24.7032 18.9622L24.9096 18.731L25.548 19.3686L25.3168 19.5742C25.1712 19.7046 25.1408 19.9214 25.2456 20.0862C25.4496 20.4094 25.5952 20.7614 25.68 21.1334C25.7216 21.3246 25.8969 21.455 26.0921 21.4446L26.4 21.427V22.3294ZM27.0753 20.7126C26.9945 20.6374 26.8848 20.6022 26.7776 20.6046L26.3712 20.6278C26.2976 20.395 26.2049 20.171 26.0921 19.955L26.396 19.6838C26.4784 19.6102 26.5264 19.507 26.5296 19.3966C26.5328 19.2862 26.4904 19.1798 26.4128 19.1022L25.176 17.8654C25.0984 17.7878 24.992 17.7526 24.8816 17.7486C24.772 17.7518 24.668 17.7998 24.5944 17.8822L24.3216 18.1878C24.1072 18.075 23.8824 17.9822 23.6504 17.9094L23.6736 17.5006C23.68 17.391 23.6408 17.283 23.5648 17.2038C23.4888 17.1238 23.384 17.0782 23.2744 17.0782H21.5256C21.416 17.0782 21.3112 17.1238 21.2352 17.2038C21.1592 17.283 21.12 17.391 21.1264 17.5006L21.1496 17.9086C20.9176 17.9814 20.6928 18.075 20.4776 18.187L20.2056 17.8822C20.132 17.7998 20.028 17.7518 19.9176 17.7486C19.84 17.7558 19.7024 17.7878 19.624 17.8654L18.3872 19.1022C18.3096 19.1798 18.2672 19.2862 18.2704 19.3966C18.2736 19.5062 18.3216 19.6102 18.404 19.6838L18.7088 19.9558C18.596 20.171 18.5032 20.3958 18.4296 20.6278L18.0224 20.6046C17.9168 20.6022 17.8056 20.6374 17.7248 20.7126C17.6456 20.7886 17.6 20.8934 17.6 21.0038V22.7526C17.6 22.863 17.6456 22.9678 17.7248 23.0438C17.8056 23.1198 17.9168 23.1614 18.0224 23.1518L18.428 23.1286C18.5008 23.3614 18.5936 23.5862 18.7072 23.8022L18.404 24.0726C18.3216 24.1462 18.2736 24.2494 18.2704 24.3598C18.2672 24.4694 18.3096 24.5766 18.3872 24.6542L19.624 25.891C19.7024 25.9686 19.8152 26.0142 19.9184 26.0078C20.028 26.0046 20.132 25.9566 20.2056 25.8742L20.476 25.5718C20.692 25.6846 20.9168 25.7782 21.1496 25.851L21.1264 26.2558C21.12 26.3654 21.1592 26.4726 21.2352 26.5526C21.3112 26.6326 21.416 26.6782 21.5256 26.6782H23.2744C23.384 26.6782 23.4888 26.6326 23.5648 26.5526C23.6408 26.4726 23.68 26.3654 23.6736 26.2558L23.6504 25.8518C23.8832 25.7782 24.1088 25.6854 24.3248 25.5718L24.5944 25.8742C24.6672 25.9566 24.7712 26.0046 24.8816 26.0078C24.9952 26.0174 25.0984 25.9686 25.176 25.891L26.4128 24.6542C26.4904 24.5766 26.5328 24.4702 26.5296 24.3598C26.5264 24.2494 26.4784 24.1462 26.396 24.0726L26.0929 23.8022C26.2057 23.5862 26.2984 23.3614 26.372 23.1286L26.7776 23.1518C26.8848 23.1614 26.9945 23.1198 27.0753 23.0438C27.1545 22.9678 27.2 22.863 27.2 22.7526V21.0038C27.2 20.8934 27.1545 20.7886 27.0753 20.7126ZM12 12.6782C12 11.1342 13.256 9.8782 14.8 9.8782C16.344 9.8782 17.6 11.1342 17.6 12.6782C17.6 14.2222 16.344 15.4782 14.8 15.4782C13.256 15.4782 12 14.2222 12 12.6782ZM14.4024 16.5166C15.2424 16.5166 16.3688 17.0294 17.3416 17.8558L17.8584 17.2454C17.2512 16.7302 16.5984 16.3318 15.9616 16.0694C17.3752 15.583 18.4 14.255 18.4 12.6782C18.4 10.6934 16.7848 9.0782 14.8 9.0782C12.8152 9.0782 11.2 10.6934 11.2 12.6782C11.2 14.0862 12.02 15.295 13.2008 15.8862C10.8592 16.5422 9.09685 19.0774 8.86965 22.2646L5.60005 20.4998V10.3558L14.4 5.7046L23.2 10.3558V15.4782H24V9.8742L14.4 4.7998L4.80005 9.8742V20.9774L14.3888 26.1534L16.9728 24.9134L16.6272 24.1926L14.4112 25.2558L9.64885 22.6846C9.75445 19.2142 11.8176 16.5166 14.4024 16.5166Z" fill="white"/>
</g>
<defs>
<clipPath id="clip0_867_34179">
<rect width="32" height="32" fill="white"/>
</clipPath>
</defs>
</svg>
