<svg width="32" height="32" viewBox="0 0 32 32" fill="none" xmlns="http://www.w3.org/2000/svg">
<g clip-path="url(#clip0_867_34196)">
<path d="M32 0H0V32H32V0Z" fill="#C925D1"/>
<path fill-rule="evenodd" clip-rule="evenodd" d="M8.04245 15.375C8.04245 13.831 9.29845 12.575 10.8424 12.575C12.3864 12.575 13.6424 13.831 13.6424 15.375C13.6424 16.919 12.3864 18.175 10.8424 18.175C9.29845 18.175 8.04245 16.919 8.04245 15.375ZM26.0425 10.2054H5.24245C5.02165 10.175 4.84245 10.3542 4.84245 10.575V21.4702C4.82885 21.4886 4.81365 21.5046 4.80005 21.523L4.84245 21.5526V22.1798C4.84245 22.3222 4.91765 22.4526 5.04005 22.5246L13.9344 27.7502C13.9968 27.787 14.0664 27.8054 14.1368 27.8054C14.2064 27.8054 14.2752 27.7878 14.3368 27.7518L20.536 24.1654L19.7368 23.7038L17.548 24.9702C17.4568 23.9926 17.1792 23.0398 16.7064 22.1678L16.4768 21.8054L15.784 22.2054L16.0168 22.5726C16.4856 23.4374 16.7392 24.4166 16.7752 25.4166L14.1384 26.9422L5.64245 21.951V21.7478C6.82645 20.2342 8.65685 19.3302 10.6128 19.3302C11.7448 19.3302 12.8456 19.6398 13.7992 20.2246L14.0672 20.4246L14.8152 19.9926L14.3552 19.647C14.3296 19.6198 14.3016 19.595 14.2704 19.5758C13.6184 19.1678 12.9 18.8894 12.1544 18.719C13.4912 18.1926 14.4424 16.8966 14.4424 15.375C14.4424 13.3902 12.8272 11.775 10.8424 11.775C8.85765 11.775 7.24245 13.3902 7.24245 15.375C7.24245 16.8302 8.11445 18.0806 9.36005 18.647C7.95525 18.8998 6.65925 19.5654 5.64245 20.5558V10.975H25.6425V12.9438L26.4425 13.4054V10.575C26.4425 10.3542 26.2633 10.175 26.0425 10.2054ZM26.4425 15.0878V20.4086C26.4425 20.551 26.3657 20.683 26.2425 20.7542L21.4424 23.5254C21.3808 23.5614 21.3112 23.579 21.2424 23.579C21.1768 23.579 21.1112 23.563 21.052 23.531L17.2024 21.3862L17.9648 20.9454L21.236 22.7206L25.6425 20.1766V15.319L21.2424 12.7782L16.8424 15.319V18.8222L16.0424 19.2846V15.0878C16.0424 14.9446 16.1192 14.8126 16.2424 14.7414L21.0424 11.971C21.1656 11.899 21.3192 11.899 21.4424 11.971L26.2425 14.7414C26.3657 14.8126 26.4425 14.9446 26.4425 15.0878ZM6.33125 9.37501L14.0296 4.81181L21.8816 9.37501H23.376L14.2152 4.05021C14.0984 3.98221 13.956 3.98381 13.8392 4.05181L4.85845 9.37501H6.33125ZM12.3568 23.247L11.9568 22.555L20.224 17.7822L20.624 18.475L12.3568 23.247Z" fill="white"/>
</g>
<defs>
<clipPath id="clip0_867_34196">
<rect width="32" height="32" fill="white"/>
</clipPath>
</defs>
</svg>
