<svg width="32" height="32" viewBox="0 0 32 32" fill="none" xmlns="http://www.w3.org/2000/svg">
<g clip-path="url(#clip0_867_34184)">
<path d="M32 0H0V32H32V0Z" fill="#C925D1"/>
<path fill-rule="evenodd" clip-rule="evenodd" d="M15.4103 18.3998H21.0103V17.5998H15.4103V18.3998ZM15.4103 11.9998H20.2103V11.1998H15.4103V11.9998ZM15.4103 9.5998H22.6103V8.7998H15.4103V9.5998ZM20.6407 26.3998C20.8191 25.0918 21.8607 24.0846 23.1151 24.0846C23.5639 24.0846 24.0039 24.215 24.3863 24.4606C25.0399 24.879 25.4799 25.5998 25.5911 26.3998H20.6407ZM23.1151 20.3294C23.8095 20.3294 24.3743 20.8942 24.3743 21.5878C24.3743 22.2822 23.8095 22.847 23.1151 22.847C22.4215 22.847 21.8567 22.2822 21.8567 21.5878C21.8567 20.8942 22.4215 20.3294 23.1151 20.3294ZM18.2103 20.7998C17.9887 20.7998 17.8103 20.979 17.8103 21.1998V22.5598L16.5895 20.9574C16.5143 20.8582 16.3967 20.7998 16.2719 20.7998H14.9007C14.1383 20.7998 13.4127 20.4286 12.9591 19.8054C12.5015 19.1766 12.3807 18.3774 12.6279 17.6118C12.9343 16.663 13.9015 15.9998 14.9807 15.9998H23.4983C24.5359 15.9998 25.4551 16.6006 25.7879 17.495C26.2647 18.7774 25.6807 19.8934 24.8191 20.4342C24.4487 19.8886 23.8231 19.5294 23.1151 19.5294C22.2599 19.5294 21.5255 20.055 21.2151 20.7998H18.2103ZM5.6415 11.4654C5.4511 9.959 5.8991 8.5046 6.9007 7.3686C7.8919 6.2446 9.3135 5.5998 10.7991 5.5998H20.2567C21.8623 5.5998 23.3911 6.291 24.4511 7.4974C25.4391 8.6206 25.8807 10.0294 25.6959 11.4638C25.4911 13.0502 24.7303 14.4406 23.6575 15.2118C23.6047 15.2094 23.5527 15.1998 23.4983 15.1998H14.9807C14.1599 15.1998 13.3919 15.5038 12.8055 15.9998H11.0479C8.2903 15.9998 5.9663 14.0502 5.6415 11.4654ZM24.8183 23.787C24.5711 23.6286 24.3055 23.5078 24.0295 23.423C24.7047 23.0854 25.1743 22.3934 25.1743 21.5878C25.1743 21.4446 25.1591 21.3046 25.1303 21.1686C26.3471 20.463 27.1647 18.9046 26.5383 17.2166C26.2223 16.3678 25.5207 15.723 24.6575 15.4102C25.6207 14.4774 26.2911 13.0998 26.4895 11.5662C26.7047 9.8998 26.1935 8.267 25.0519 6.9686C23.8399 5.5902 22.0919 4.7998 20.2567 4.7998H10.7991C9.0831 4.7998 7.4447 5.543 6.3015 6.839C5.1615 8.131 4.6319 9.8534 4.8471 11.5654C5.2223 14.5494 7.8879 16.7998 11.0479 16.7998H12.1287C12.0239 16.979 11.9319 17.1654 11.8671 17.3662C11.5407 18.3774 11.7031 19.4382 12.3127 20.2766C12.9151 21.1054 13.8831 21.5998 14.9007 21.5998H16.0735L17.8919 23.987C17.9687 24.0886 18.0871 24.1454 18.2103 24.1454C18.2527 24.1454 18.2959 24.1382 18.3383 24.1238C18.5007 24.0694 18.6103 23.9166 18.6103 23.7454V21.5998H21.0583C21.0631 22.407 21.5375 23.0998 22.2191 23.4326C20.8351 23.8518 19.8135 25.1942 19.8135 26.7998C19.8135 27.0206 19.9919 27.1998 20.2135 27.1998H26.0183C26.2399 27.1998 26.4183 27.0206 26.4183 26.7998C26.4183 25.5558 25.8207 24.4302 24.8183 23.787ZM8.5631 13.5998C8.7399 12.4238 9.6807 11.5238 10.8135 11.5238C11.2207 11.5238 11.6207 11.6422 11.9695 11.8662C12.5551 12.2422 12.9527 12.8838 13.0623 13.5998H8.5631ZM10.8135 8.2222C11.4367 8.2222 11.9447 8.7294 11.9447 9.3534C11.9447 9.9774 11.4367 10.4846 10.8135 10.4846C10.1895 10.4846 9.6815 9.9774 9.6815 9.3534C9.6815 8.7294 10.1895 8.2222 10.8135 8.2222ZM13.8927 13.9998C13.8927 12.8414 13.3359 11.7918 12.4015 11.1926C12.2439 11.0918 12.0767 11.0126 11.9055 10.943C12.4111 10.595 12.7447 10.0126 12.7447 9.3534C12.7447 8.2886 11.8783 7.4222 10.8135 7.4222C9.7479 7.4222 8.8815 8.2886 8.8815 9.3534C8.8815 10.0142 9.2159 10.5974 9.7239 10.9462C8.5639 11.4158 7.7335 12.603 7.7335 13.9998C7.7335 14.2206 7.9127 14.3998 8.1335 14.3998H13.4927C13.7135 14.3998 13.8927 14.2206 13.8927 13.9998Z" fill="white"/>
</g>
<defs>
<clipPath id="clip0_867_34184">
<rect width="32" height="32" fill="white"/>
</clipPath>
</defs>
</svg>
