<svg width="32" height="32" viewBox="0 0 32 32" fill="none" xmlns="http://www.w3.org/2000/svg">
<g clip-path="url(#clip0_867_34173)">
<path d="M32 0H0V32H32V0Z" fill="#C925D1"/>
<path fill-rule="evenodd" clip-rule="evenodd" d="M17.8688 23.8177L18.0784 24.5897C17.2912 24.8041 16.4672 24.9129 15.6304 24.9129C11.9824 24.9129 9.11205 23.2281 7.54805 20.1697L8.26005 19.8057C9.68085 22.5833 12.2976 24.1129 15.6304 24.1129C16.3968 24.1129 17.1496 24.0137 17.8688 23.8177ZM26.9672 16.8601L26.4 17.4241L25.4256 16.4433C25.312 17.3049 25.048 18.1881 24.6672 18.9281L23.956 18.5625C24.2816 17.9297 24.5072 17.1785 24.616 16.4401L23.3648 17.4529L22.8616 16.8313L24.84 15.2281C24.9976 15.0993 25.2304 15.1113 25.3752 15.2569L26.9672 16.8601ZM8.59205 14.2841L6.99205 15.8929C6.91445 15.9713 6.81205 16.0113 6.70885 16.0113C6.60725 16.0113 6.50645 15.9729 6.42805 15.8961L4.80005 14.2961L5.36085 13.7257L6.35285 14.7009C6.79685 9.6825 10.852 5.6001 15.608 5.6001C19.1304 5.6001 22.6072 7.7721 24.26 11.0057L23.548 11.3697C22.052 8.4441 18.7864 6.4001 15.608 6.4001C11.3216 6.4001 7.65845 10.0521 7.16885 14.5817L8.02485 13.7193L8.59205 14.2841ZM15.476 17.0305C14.5192 17.0305 13.7408 16.2521 13.7408 15.2953C13.7408 14.3385 14.5192 13.5601 15.476 13.5601C16.4328 13.5601 17.212 14.3385 17.212 15.2953C17.212 16.2521 16.4328 17.0305 15.476 17.0305ZM15.476 12.7601C14.0784 12.7601 12.9408 13.8977 12.9408 15.2953C12.9408 16.6937 14.0784 17.8305 15.476 17.8305C16.8744 17.8305 18.012 16.6937 18.012 15.2953C18.012 13.8977 16.8744 12.7601 15.476 12.7601ZM18.2104 18.8937C18.0808 18.7481 17.8624 18.7169 17.6984 18.8217C17.2968 19.0745 16.86 19.2561 16.3984 19.3601C16.208 19.4033 16.0768 19.5777 16.0872 19.7729L16.1136 20.2337H14.8384L14.8648 19.7729C14.8768 19.5777 14.7448 19.4025 14.5536 19.3593C14.0936 19.2561 13.6568 19.0745 13.2544 18.8209C13.0896 18.7169 12.8736 18.7481 12.7432 18.8929L12.4352 19.2377L11.5336 18.3361L11.8792 18.0289C12.0248 17.8985 12.0552 17.6817 11.9512 17.5161C11.6976 17.1169 11.5176 16.6801 11.4136 16.2177C11.3704 16.0273 11.192 15.8953 11 15.9065L10.5376 15.9329V14.6577L11.0016 14.6841C11.212 14.6945 11.3712 14.5633 11.4144 14.3737C11.5192 13.9121 11.7008 13.4761 11.9528 13.0769C12.0576 12.9113 12.0272 12.6953 11.8816 12.5649L11.5336 12.2545L12.4352 11.3521L12.7456 11.7001C12.8752 11.8457 13.092 11.8753 13.2568 11.7721C13.6568 11.5193 14.0936 11.3393 14.5536 11.2353C14.7448 11.1921 14.876 11.0177 14.8648 10.8225L14.8384 10.3569H16.1136L16.0872 10.8225C16.0768 11.0177 16.208 11.1921 16.3984 11.2353C16.8584 11.3401 17.2944 11.5209 17.6944 11.7729C17.8592 11.8777 18.0776 11.8473 18.2064 11.7009L18.5176 11.3529L19.4184 12.2545L19.072 12.5641C18.9256 12.6937 18.8952 12.9105 19 13.0761C19.252 13.4753 19.4336 13.9121 19.5384 14.3737C19.5816 14.5633 19.7424 14.7025 19.9512 14.6841L20.4144 14.6577V15.9329L19.952 15.9065C19.756 15.8953 19.5816 16.0273 19.5392 16.2177C19.4344 16.6785 19.2536 17.1153 19.0008 17.5161C18.896 17.6809 18.9264 17.8977 19.0728 18.0281L19.4184 18.3361L18.5176 19.2377L18.2104 18.8937ZM20.284 18.6025C20.3616 18.5249 20.404 18.4185 20.4008 18.3089C20.3976 18.1985 20.3496 18.0953 20.2672 18.0217L19.8496 17.6489C20.0088 17.3537 20.1368 17.0441 20.2328 16.7233L20.7912 16.7553C20.8936 16.7657 21.0088 16.7233 21.0888 16.6473C21.1688 16.5713 21.2144 16.4665 21.2144 16.3561V14.2345C21.2144 14.1241 21.1688 14.0193 21.0888 13.9441C21.0088 13.8681 20.9048 13.8345 20.7912 13.8353L20.2312 13.8673C20.1352 13.5465 20.0072 13.2369 19.8488 12.9433L20.2672 12.5689C20.3496 12.4961 20.3976 12.3921 20.4008 12.2825C20.404 12.1721 20.3616 12.0657 20.284 11.9881L18.784 10.4873C18.7056 10.4097 18.5736 10.3705 18.4896 10.3705C18.38 10.3737 18.276 10.4217 18.2024 10.5041L17.8272 10.9249C17.5328 10.7665 17.224 10.6377 16.9048 10.5417L16.936 9.9801C16.9424 9.8697 16.9032 9.7625 16.8272 9.6825C16.752 9.6025 16.6472 9.5569 16.5368 9.5569H14.4152C14.3048 9.5569 14.1992 9.6025 14.124 9.6825C14.0488 9.7625 14.0096 9.8697 14.016 9.9801L14.048 10.5417C13.7272 10.6369 13.4192 10.7649 13.124 10.9233L12.7504 10.5041C12.6768 10.4217 12.5728 10.3737 12.4624 10.3705C12.3856 10.3737 12.2472 10.4105 12.1688 10.4873L10.6688 11.9881C10.5904 12.0657 10.5488 12.1721 10.552 12.2825C10.5544 12.3921 10.6032 12.4961 10.6856 12.5689L11.1048 12.9433C10.9456 13.2377 10.8176 13.5465 10.7208 13.8673L10.16 13.8353C10.0544 13.8345 9.94405 13.8681 9.86245 13.9441C9.78325 14.0193 9.73765 14.1241 9.73765 14.2345V16.3561C9.73765 16.4665 9.78325 16.5713 9.86245 16.6473C9.94405 16.7233 10.0656 16.7657 10.16 16.7553L10.7184 16.7233C10.8152 17.0449 10.9432 17.3545 11.1024 17.6497L10.6856 18.0217C10.6032 18.0953 10.5544 18.1985 10.552 18.3089C10.5488 18.4185 10.5904 18.5249 10.6688 18.6025L12.1688 20.1025C12.2472 20.1809 12.3608 20.2185 12.4632 20.2201C12.5728 20.2169 12.6768 20.1681 12.7504 20.0865L13.1216 19.6689C13.4184 19.8289 13.7272 19.9569 14.048 20.0529L14.016 20.6105C14.0096 20.7201 14.0488 20.8281 14.124 20.9081C14.1992 20.9881 14.3048 21.0337 14.4152 21.0337H16.5368C16.6472 21.0337 16.752 20.9881 16.8272 20.9081C16.9032 20.8281 16.9424 20.7201 16.936 20.6105L16.9048 20.0537C17.2256 19.9577 17.5352 19.8297 17.8312 19.6697L18.2024 20.0865C18.276 20.1681 18.38 20.2169 18.4888 20.2201C18.5984 20.2217 18.7064 20.1809 18.784 20.1025L20.284 18.6025ZM22.7872 23.1281C22.552 23.3737 22.1592 23.3817 21.9136 23.1457C21.7936 23.0313 21.7264 22.8777 21.7232 22.7121C21.72 22.5473 21.7816 22.3905 21.896 22.2713C22.0112 22.1521 22.1648 22.0849 22.3296 22.0817H22.3424C22.5024 22.0817 22.6536 22.1425 22.7704 22.2545C22.8896 22.3689 22.9568 22.5225 22.96 22.6873C22.9632 22.8529 22.9024 23.0097 22.7872 23.1281ZM21.3192 21.7169C20.7776 22.2809 20.7952 23.1809 21.3584 23.7225C21.6248 23.9785 21.9728 24.1185 22.3408 24.1185C22.3504 24.1185 22.36 24.1177 22.3696 24.1177C22.7488 24.1105 23.1016 23.9561 23.364 23.6833C23.6264 23.4097 23.7672 23.0513 23.76 22.6721C23.752 22.2937 23.5976 21.9401 23.3248 21.6777C22.76 21.1361 21.8616 21.1529 21.3192 21.7169ZM24.8096 24.1713L23.9592 24.0009C23.8488 23.9793 23.7352 24.0033 23.644 24.0697L23.2192 24.3809C23.1304 24.4465 23.072 24.5465 23.0592 24.6569L22.9584 25.5137L21.6888 25.5121L21.5904 24.6633C21.5776 24.5529 21.5192 24.4537 21.4312 24.3873L21.0016 24.0689C20.9112 24.0025 20.7968 23.9769 20.6856 23.9985L19.8416 24.1673L19.4504 22.9593L20.24 22.5977C20.3416 22.5505 20.4192 22.4641 20.4536 22.3577L20.6152 21.8625C20.6496 21.7561 20.6376 21.6401 20.5832 21.5433L20.1584 20.7865L21.1856 20.0417L21.7688 20.6745C21.8456 20.7569 21.9664 20.8065 22.0656 20.8033L22.6008 20.8001C22.712 20.7993 22.8176 20.7529 22.892 20.6713L23.4712 20.0433L24.4976 20.7897L24.0752 21.5425C24.02 21.6393 24.0088 21.7545 24.0424 21.8601L24.2016 22.3609C24.236 22.4681 24.3136 22.5553 24.416 22.6025L25.2024 22.9641L24.8096 24.1713ZM25.86 22.3849L24.9104 21.9497L24.8568 21.7833L25.3696 20.8721C25.4696 20.6953 25.42 20.4713 25.256 20.3521L23.6536 19.1865C23.4912 19.0673 23.2624 19.0897 23.1248 19.2393L22.4216 20.0009L22.2376 20.0017L21.5336 19.2377C21.396 19.0881 21.1696 19.0665 21.004 19.1849L19.4 20.3481C19.236 20.4673 19.1864 20.6905 19.2864 20.8673L19.8 21.7817L19.748 21.9433L18.7936 22.3809C18.6096 22.4657 18.5176 22.6745 18.58 22.8673L19.1896 24.7521C19.252 24.9449 19.452 25.0625 19.6488 25.0217L20.668 24.8177L20.816 24.9273L20.9352 25.9577C20.9584 26.1593 21.1296 26.3113 21.332 26.3121L23.3136 26.3137C23.5168 26.3137 23.6872 26.1617 23.712 25.9601L23.8328 24.9233L23.9752 24.8193L25.0008 25.0257C25.2016 25.0665 25.3968 24.9497 25.46 24.7569L26.0736 22.8729C26.136 22.6801 26.0448 22.4697 25.86 22.3849Z" fill="white"/>
</g>
<defs>
<clipPath id="clip0_867_34173">
<rect width="32" height="32" fill="white"/>
</clipPath>
</defs>
</svg>
