<svg width="32" height="32" viewBox="0 0 32 32" fill="none" xmlns="http://www.w3.org/2000/svg">
<path d="M9.36354 14.5191L4.28442 16.3733C4.34436 17.1912 4.48307 18.0015 4.69865 18.7928L9.51642 17.0488C9.35803 16.2155 9.30665 15.3654 9.36354 14.5191ZM31.8222 8.88883C31.4698 8.16083 31.0615 7.46125 30.6009 6.79639L25.5146 8.64883C26.0967 9.25358 26.603 9.92699 27.0222 10.6542C26.9973 10.6328 31.8222 8.88883 31.8222 8.88883Z" fill="#C32034"/>
<path d="M20.6435 7.44905C21.6681 7.93238 22.5982 8.5946 23.3902 9.4046L28.4711 7.55216C26.6282 4.97036 23.9898 3.06378 20.96 2.12438C17.9303 1.18497 14.6761 1.26453 11.6958 2.35086C8.71559 3.43719 6.17354 5.47042 4.45898 8.13918C2.74442 10.8079 1.95185 13.9651 2.20265 17.1273L7.28888 15.2748C7.37032 14.1418 7.65832 13.0331 8.13865 12.0037C9.19532 9.74364 11.1052 7.9949 13.4494 7.14106C15.7937 6.28722 18.3809 6.39798 20.6435 7.44905Z" fill="#DB212F"/>
<path d="M5.00265 18.6436L0.177765 20.3876C0.632619 22.1541 1.40357 23.8237 2.45332 25.3156L7.5111 23.4667C6.22576 22.1377 5.35428 20.464 5.00265 18.6489" fill="#EA2227"/>
<path d="M26.0622 16.7255C25.9699 17.8569 25.6818 18.9638 25.2106 19.9966C24.6875 21.1193 23.9482 22.1278 23.0349 22.9644C22.1216 23.8011 21.0524 24.4495 19.8883 24.8725C18.7242 25.2955 17.4882 25.4849 16.2508 25.4298C15.0135 25.3747 13.7992 25.0761 12.6773 24.5513C11.6528 24.0679 10.7226 23.4057 9.93064 22.5957L4.87286 24.4428C6.31899 26.4809 8.27276 28.1056 10.5404 29.1557C12.8386 30.2303 15.3784 30.6832 17.9063 30.4693C20.4343 30.2554 22.8619 29.3821 24.9468 27.9366C27.0317 26.4912 28.701 24.5241 29.7879 22.2318C30.8749 19.9394 31.3416 17.4021 31.1413 14.873L26.0622 16.7255Z" fill="#DB212F"/>
<path d="M27.3102 10.519L22.4924 12.263C23.3999 13.8815 23.8093 15.7319 23.6693 17.5822L28.7271 15.7297C28.5793 13.9198 28.0971 12.1531 27.3049 10.519" fill="#EA2227"/>
<path d="M4.29688 16.3559L9.35465 14.5248L9.33332 15.5274L4.44443 17.339L4.29688 16.3559ZM25.5093 8.619L30.6542 6.875L31.2 7.66078L26.208 9.403C26.1849 9.42611 25.5093 8.619 25.5093 8.619Z" fill="#AD213A"/>
<path d="M4.84622 24.4339L9.904 22.6241L11.4293 24.0463L6.11022 26.0019C6.13333 26.0037 4.84622 24.4339 4.84622 24.4339ZM31.2107 14.9121L26.0658 16.7432L25.696 18.7717L31.1893 16.8517C31.1662 16.8303 31.2107 14.9121 31.2107 14.9121Z" fill="#BA2034"/>
</svg>
