<svg width="32" height="32" viewBox="0 0 32 32" fill="none" xmlns="http://www.w3.org/2000/svg">
<path d="M28.0533 15.8042L31.3778 12.4442C31.6445 12.1598 31.5556 11.9287 31.1467 11.9287H29.4933C29.4381 11.9287 29.3835 11.9176 29.3327 11.8959C29.2818 11.8743 29.236 11.8425 29.1977 11.8027C29.1595 11.7628 29.1298 11.7156 29.1103 11.6639C29.0909 11.6122 29.0821 11.5572 29.0845 11.502C29.0845 9.40421 28.5511 3.55532 20.5511 3.35976C20.4959 3.35736 20.4409 3.36616 20.3892 3.38563C20.3375 3.4051 20.2903 3.43484 20.2504 3.47305C20.2106 3.51126 20.1788 3.55715 20.1572 3.60796C20.1355 3.65876 20.1244 3.71343 20.1245 3.76865V5.79532C20.1242 5.85214 20.1359 5.90839 20.1586 5.96046C20.1813 6.01254 20.2147 6.05931 20.2565 6.09778C20.2983 6.13625 20.3477 6.16559 20.4015 6.18391C20.4553 6.20224 20.5123 6.20915 20.5689 6.20421C21.3301 6.03456 22.1208 6.04948 22.8751 6.24773C23.6294 6.44597 24.3252 6.82178 24.9047 7.34377C25.4841 7.86577 25.9302 8.51881 26.2058 9.24837C26.4814 9.97792 26.5785 10.7628 26.4889 11.5375C26.4913 11.5927 26.4825 11.6478 26.463 11.6995C26.4436 11.7512 26.4138 11.7984 26.3756 11.8382C26.3374 11.8781 26.2915 11.9098 26.2407 11.9315C26.1899 11.9531 26.1352 11.9643 26.08 11.9642H24.5333C24.1245 11.9642 24.0356 12.1953 24.3022 12.4975L27.3956 15.8753C27.4406 15.9199 27.495 15.9538 27.5548 15.9747C27.6147 15.9956 27.6784 16.0029 27.7413 15.9961C27.8043 15.9892 27.865 15.9685 27.919 15.9353C27.9729 15.9021 28.0188 15.8573 28.0533 15.8042Z" fill="#949494"/>
<path d="M22.5955 0.604492H2.4711C1.91145 0.604492 1.45776 1.05818 1.45776 1.61783V14.9512C1.45776 15.5108 1.91145 15.9645 2.4711 15.9645H22.5955C23.1552 15.9645 23.6089 15.5108 23.6089 14.9512V1.61783C23.6089 1.05818 23.1552 0.604492 22.5955 0.604492Z" fill="url(#paint0_linear_868_6839)"/>
<path d="M2.45332 0.604492H22.88C22.9757 0.604492 23.0705 0.623345 23.1589 0.659976C23.2474 0.696606 23.3277 0.750295 23.3954 0.817979C23.4631 0.885662 23.5168 0.966014 23.5534 1.05445C23.59 1.14288 23.6089 1.23766 23.6089 1.33338V4.26671H1.45776V1.61783C1.45772 1.35212 1.56204 1.09704 1.74825 0.907504C1.93446 0.71797 2.18766 0.609154 2.45332 0.604492Z" fill="#83B9F9"/>
<path d="M23.6089 4.2666H1.45776V6.71993H23.6089V4.2666Z" fill="url(#paint1_linear_868_6839)"/>
<path d="M31.04 19.4668H18.24C17.8865 19.4668 17.6 19.7533 17.6 20.1068V28.5868C17.6 28.9403 17.8865 29.2268 18.24 29.2268H31.04C31.3934 29.2268 31.68 28.9403 31.68 28.5868V20.1068C31.68 19.7533 31.3934 19.4668 31.04 19.4668Z" fill="#005BA1"/>
<path d="M4.64002 5.6709H20.4089C20.4955 5.67078 20.5788 5.70392 20.6417 5.76347C20.7045 5.82302 20.7421 5.90444 20.7467 5.9909V7.64424C20.7379 7.72753 20.6984 7.80457 20.636 7.86041C20.5736 7.91626 20.4927 7.94692 20.4089 7.94646H4.64002C4.59799 7.94886 4.55589 7.94294 4.51614 7.92904C4.4764 7.91514 4.43979 7.89353 4.40841 7.86546C4.37703 7.83738 4.3515 7.80339 4.33328 7.76543C4.31506 7.72747 4.30452 7.68628 4.30225 7.64424V5.9909C4.30218 5.94734 4.31101 5.90423 4.32819 5.8642C4.34537 5.82417 4.37054 5.78806 4.40217 5.75811C4.43379 5.72815 4.4712 5.70496 4.5121 5.68996C4.553 5.67497 4.59653 5.66848 4.64002 5.6709Z" fill="white"/>
<path d="M4.63999 8.88886H20.4267C20.4678 8.88644 20.509 8.89246 20.5478 8.90656C20.5865 8.92066 20.622 8.94253 20.6519 8.97084C20.6819 8.99915 20.7058 9.0333 20.7221 9.07117C20.7384 9.10905 20.7467 9.14986 20.7467 9.19109V10.8444C20.7467 10.9293 20.7129 11.0107 20.6529 11.0707C20.5929 11.1307 20.5115 11.1644 20.4267 11.1644H4.63999C4.55512 11.1644 4.47373 11.1307 4.41371 11.0707C4.3537 11.0107 4.31999 10.9293 4.31999 10.8444V9.2622C4.30849 9.21551 4.3083 9.16675 4.31942 9.11997C4.33055 9.07319 4.35268 9.02974 4.38398 8.99323C4.41527 8.95673 4.45482 8.92821 4.49935 8.91006C4.54387 8.89191 4.59209 8.88464 4.63999 8.88886Z" fill="white"/>
<path d="M4.64001 12.249H20.4267C20.5115 12.249 20.5929 12.2827 20.6529 12.3427C20.713 12.4028 20.7467 12.4842 20.7467 12.569V14.2224C20.7421 14.3041 20.7064 14.381 20.6469 14.4372C20.5874 14.4934 20.5086 14.5247 20.4267 14.5246H4.64001C4.55813 14.5247 4.47932 14.4934 4.41979 14.4372C4.36027 14.381 4.32456 14.3041 4.32001 14.2224V12.569C4.32001 12.527 4.32828 12.4854 4.34437 12.4466C4.36045 12.4077 4.38402 12.3725 4.41373 12.3427C4.44345 12.313 4.47872 12.2895 4.51755 12.2734C4.55637 12.2573 4.59798 12.249 4.64001 12.249Z" fill="white"/>
<path d="M28.7111 17.3687H15.9111C15.5577 17.3687 15.2711 17.6552 15.2711 18.0087V26.4887C15.2711 26.8421 15.5577 27.1287 15.9111 27.1287H28.7111C29.0646 27.1287 29.3511 26.8421 29.3511 26.4887V18.0087C29.3511 17.6552 29.0646 17.3687 28.7111 17.3687Z" fill="#0078D4"/>
<path d="M16 17.3688H28.9778C29.0385 17.3688 29.0986 17.3807 29.1547 17.404C29.2107 17.4272 29.2617 17.4612 29.3046 17.5042C29.3475 17.5471 29.3816 17.598 29.4048 17.6541C29.4281 17.7102 29.44 17.7703 29.44 17.831V19.6088H15.2711V17.9199C15.282 17.8355 15.3096 17.7541 15.3523 17.6806C15.395 17.607 15.452 17.5426 15.5199 17.4913C15.5877 17.44 15.6652 17.4027 15.7476 17.3817C15.83 17.3607 15.9158 17.3563 16 17.3688Z" fill="#83B9F9"/>
<path d="M17.2978 20.6043H27.3245C27.3781 20.6041 27.4298 20.6242 27.4694 20.6604C27.5089 20.6966 27.5333 20.7464 27.5378 20.7999V21.8488C27.5333 21.9022 27.5089 21.952 27.4694 21.9883C27.4298 22.0245 27.3781 22.0445 27.3245 22.0443H17.2978C17.2707 22.0468 17.2433 22.0436 17.2175 22.0349C17.1917 22.0262 17.168 22.0121 17.1479 21.9937C17.1278 21.9753 17.1118 21.9529 17.1009 21.928C17.0899 21.903 17.0844 21.876 17.0845 21.8488V20.7999C17.0844 20.7726 17.0899 20.7457 17.1009 20.7207C17.1118 20.6957 17.1278 20.6733 17.1479 20.6549C17.168 20.6365 17.1917 20.6225 17.2175 20.6138C17.2433 20.6051 17.2707 20.6018 17.2978 20.6043Z" fill="white"/>
<path d="M17.2978 22.6844H27.3245C27.3516 22.6819 27.379 22.6851 27.4048 22.6939C27.4306 22.7026 27.4543 22.7166 27.4744 22.735C27.4945 22.7534 27.5105 22.7758 27.5214 22.8008C27.5323 22.8257 27.5379 22.8527 27.5378 22.88V23.9288C27.5379 23.9561 27.5323 23.9831 27.5214 24.008C27.5105 24.033 27.4945 24.0554 27.4744 24.0738C27.4543 24.0922 27.4306 24.1062 27.4048 24.1149C27.379 24.1237 27.3516 24.1269 27.3245 24.1244H17.2978C17.2442 24.1246 17.1924 24.1046 17.1529 24.0683C17.1134 24.0321 17.0889 23.9823 17.0845 23.9288V22.88C17.0889 22.8265 17.1134 22.7767 17.1529 22.7405C17.1924 22.7042 17.2442 22.6842 17.2978 22.6844Z" fill="white"/>
<path d="M17.2978 24.7821H27.3245C27.3516 24.7796 27.379 24.7828 27.4048 24.7915C27.4306 24.8002 27.4543 24.8142 27.4744 24.8327C27.4945 24.8511 27.5105 24.8735 27.5214 24.8984C27.5323 24.9234 27.5379 24.9504 27.5378 24.9776V26.0265C27.5379 26.0538 27.5323 26.0807 27.5214 26.1057C27.5105 26.1307 27.4945 26.1531 27.4744 26.1715C27.4543 26.1899 27.4306 26.2039 27.4048 26.2126C27.379 26.2213 27.3516 26.2245 27.3245 26.2221H17.2978C17.2442 26.2222 17.1924 26.2022 17.1529 26.166C17.1134 26.1297 17.0889 26.0799 17.0845 26.0265V24.9776C17.0889 24.9242 17.1134 24.8744 17.1529 24.8381C17.1924 24.8019 17.2442 24.7819 17.2978 24.7821Z" fill="white"/>
<defs>
<linearGradient id="paint0_linear_868_6839" x1="12.5333" y1="15.9645" x2="12.5333" y2="0.604492" gradientUnits="userSpaceOnUse">
<stop stop-color="#0078D4"/>
<stop offset="1" stop-color="#5EA0EF"/>
</linearGradient>
<linearGradient id="paint1_linear_868_6839" x1="12.5333" y1="6.71993" x2="12.5333" y2="4.2666" gradientUnits="userSpaceOnUse">
<stop stop-color="#194F9B" stop-opacity="0"/>
<stop offset="0.26" stop-color="#194F9C" stop-opacity="0.01"/>
<stop offset="0.41" stop-color="#18519E" stop-opacity="0.05"/>
<stop offset="0.52" stop-color="#1654A2" stop-opacity="0.11"/>
<stop offset="0.62" stop-color="#1457A7" stop-opacity="0.21"/>
<stop offset="0.71" stop-color="#115CAE" stop-opacity="0.33"/>
<stop offset="0.8" stop-color="#0D62B6" stop-opacity="0.47"/>
<stop offset="0.88" stop-color="#096AC0" stop-opacity="0.65"/>
<stop offset="0.95" stop-color="#0472CB" stop-opacity="0.85"/>
<stop offset="1" stop-color="#0078D4"/>
</linearGradient>
</defs>
</svg>
