<svg width="32" height="32" viewBox="0 0 32 32" fill="none" xmlns="http://www.w3.org/2000/svg">
<g clip-path="url(#clip0_868_6840)">
<path d="M13.2089 14.5386L17.8116 11.7421L30.7093 16.5972C30.4277 15.3443 29.782 14.2025 28.8533 13.3154L28.8356 13.2266C27.7515 12.1792 26.3755 11.4849 24.8889 11.2354C24.7918 8.92609 23.7828 6.74949 22.0831 5.1831C20.3834 3.61671 18.1318 2.78841 15.8222 2.87989C13.9594 2.84619 12.1319 3.39046 10.5911 4.43784C9.05029 5.48521 7.87182 6.98425 7.21778 8.72878C5.25861 8.96787 3.451 9.9043 2.12562 11.3668C0.800239 12.8293 0.0456893 14.7201 0 16.6932C0.087962 18.9144 1.05187 21.0104 2.68095 22.5229C4.31003 24.0354 6.47172 24.8413 8.69333 24.7643H13.2089V14.5386Z" fill="url(#paint0_linear_868_6840)"/>
<path d="M17.9022 12.7271L17.92 20.3359L31.9822 23.3226V18.0248L17.9022 12.7271Z" fill="#767676"/>
<path d="M17.9022 12.7271L14.0978 15.0382V22.1137L17.92 20.3359" fill="#999999"/>
<path d="M24.32 20.4425L25.6 20.7981V16.6559L24.32 16.2114V20.4425Z" fill="#A3A3A3"/>
<path d="M23.04 15.8026L21.76 15.3403V19.767L23.04 20.1226V15.8026Z" fill="#A3A3A3"/>
<path d="M26.88 21.1361L28.1244 21.4739L28.16 17.5273L26.88 17.1006V21.1361Z" fill="#A3A3A3"/>
<path d="M19.2178 19.1093L20.4978 19.4293V14.9315L19.2178 14.5049V19.1093Z" fill="#A3A3A3"/>
<path d="M30.7022 18.3981L29.4222 17.9536V21.8114L30.7022 22.1669V18.3981Z" fill="#A3A3A3"/>
<path d="M15.3956 20.2117L14.7556 20.5851V15.554L15.3956 15.2162V20.2117ZM16.6578 14.4873L16 14.914V19.8029L16.6578 19.4473V14.4873Z" fill="#B3B3B3"/>
<path d="M31.9822 23.3226L28.1422 24.6382L14.0978 22.1137L17.92 20.3359L31.9822 23.3226Z" fill="url(#paint1_linear_868_6840)"/>
<path d="M31.9822 28.745L17.8489 31.4295L17.92 21.4917L31.9822 24.105V28.745Z" fill="#767676"/>
<path d="M19.2178 29.7935V23.4824L20.4978 23.6424V29.5802L19.2178 29.7935Z" fill="#A3A3A3"/>
<path d="M23.04 29.1538L21.76 29.385V23.8027L23.04 23.9983V29.1538Z" fill="#A3A3A3"/>
<path d="M24.32 28.9581V24.1226L25.6 24.2826V28.727L24.32 28.9581Z" fill="#A3A3A3"/>
<path d="M28.1422 28.2829L26.88 28.514V24.4429L28.1422 24.6384V28.2829Z" fill="#A3A3A3"/>
<path d="M30.7378 27.8738L29.4222 28.1049V24.7627L30.6489 24.9227L30.7378 27.8738Z" fill="#A3A3A3"/>
<path d="M14.0978 29.1554V23.3598L17.9378 21.582V31.5376L14.0978 29.1554Z" fill="#999999"/>
<path d="M15.3067 29.1358L14.7378 28.8513V23.9447L15.3067 23.678V29.1358ZM16.6756 23.0024L16 23.3402V29.5269L16.6578 29.8647V23.0024H16.6756Z" fill="#B3B3B3"/>
</g>
<defs>
<linearGradient id="paint0_linear_868_6840" x1="15.3547" y1="-3.53966" x2="15.3547" y2="29.7581" gradientUnits="userSpaceOnUse">
<stop stop-color="#5EA0EF"/>
<stop offset="1" stop-color="#0078D4"/>
</linearGradient>
<linearGradient id="paint1_linear_868_6840" x1="23.04" y1="20.3359" x2="23.04" y2="24.6382" gradientUnits="userSpaceOnUse">
<stop stop-color="#333132"/>
<stop offset="1" stop-color="#5B5A5C"/>
</linearGradient>
<clipPath id="clip0_868_6840">
<rect width="32" height="32" fill="white"/>
</clipPath>
</defs>
</svg>
