<svg width="32" height="32" viewBox="0 0 32 32" fill="none" xmlns="http://www.w3.org/2000/svg">
<g clip-path="url(#clip0_868_6838)">
<path d="M30.9867 14.5956C30.9409 12.9975 30.3268 11.4682 29.2548 10.2821C28.1828 9.09607 26.7231 8.33107 25.1378 8.12448C25.0452 5.89074 24.0743 3.78393 22.4363 2.26242C20.7982 0.740912 18.6256 -0.0721848 16.3911 3.6194e-05C14.5884 -0.0296592 12.8208 0.49958 11.331 1.51504C9.84125 2.5305 8.70247 3.98236 8.07113 5.67115C6.15501 5.89212 4.3823 6.79494 3.07674 8.21474C1.77117 9.63455 1.01987 11.4766 0.960022 13.4045C0.992068 14.4848 1.23792 15.548 1.68338 16.5326C2.12883 17.5173 2.76505 18.4039 3.55525 19.1412C4.34545 19.8785 5.27395 20.4519 6.28709 20.8282C7.30023 21.2044 8.3779 21.3761 9.4578 21.3334H10.2045H23.8578H24.2311C26.014 21.3149 27.719 20.5997 28.9814 19.3406C30.2438 18.0815 30.9636 16.3784 30.9867 14.5956Z" fill="url(#paint0_linear_868_6838)"/>
<path d="M11.3066 11.4846L16 6.88013C16.0497 6.82906 16.1091 6.78847 16.1747 6.76075C16.2404 6.73303 16.3109 6.71875 16.3822 6.71875C16.4535 6.71875 16.524 6.73303 16.5896 6.76075C16.6553 6.78847 16.7147 6.82906 16.7644 6.88013L21.3333 11.4846C21.3728 11.5163 21.4008 11.5602 21.4129 11.6094C21.4251 11.6586 21.4207 11.7104 21.4005 11.7569C21.3803 11.8033 21.3454 11.8419 21.3011 11.8666C21.2568 11.8912 21.2057 11.9007 21.1555 11.8935H18.2755C18.2109 11.8976 18.15 11.9252 18.1042 11.971C18.0584 12.0168 18.0308 12.0777 18.0266 12.1424V17.9023C18.0266 17.9542 18.006 18.004 17.9694 18.0406C17.9327 18.0773 17.8829 18.0979 17.8311 18.0979H14.7378C14.6859 18.0979 14.6361 18.0773 14.5995 18.0406C14.5628 18.004 14.5422 17.9542 14.5422 17.9023V12.1424C14.5424 12.0793 14.5186 12.0186 14.4757 11.9724C14.4328 11.9262 14.374 11.898 14.3111 11.8935H11.4666C11.4181 11.8961 11.3699 11.8834 11.3289 11.8571C11.288 11.8308 11.2564 11.7922 11.2387 11.7469C11.2209 11.7016 11.218 11.6518 11.2302 11.6047C11.2424 11.5576 11.2691 11.5156 11.3066 11.4846Z" fill="#F2F2F2"/>
<path d="M24.8889 20.2135C24.8913 20.1628 24.877 20.1126 24.8481 20.0709C24.8191 20.0291 24.7773 19.998 24.7289 19.9824L16.2844 17.1558H16V32.0002H16.2311L24.6044 28.658C24.6375 28.6659 24.6718 28.6664 24.705 28.6595C24.7383 28.6526 24.7696 28.6384 24.7967 28.6181C24.8239 28.5977 24.8462 28.5716 24.8621 28.5416C24.8781 28.5117 24.8872 28.4786 24.8889 28.4447V20.2135Z" fill="#A67AF4"/>
<path d="M16 17.2091L7.98219 18.6847C7.92546 18.6928 7.87326 18.7202 7.83439 18.7623C7.79553 18.8044 7.77238 18.8586 7.76886 18.9158V29.9914C7.7706 30.0483 7.79053 30.1032 7.82572 30.148C7.86091 30.1927 7.90951 30.2251 7.96442 30.2402L16 32.0002C16.0344 32.0084 16.0703 32.0086 16.1048 32.0007C16.1394 31.9928 16.1716 31.9771 16.1991 31.9548C16.2266 31.9324 16.2486 31.9041 16.2634 31.8719C16.2782 31.8397 16.2854 31.8045 16.2844 31.7691V17.5469C16.3018 17.5048 16.3073 17.4587 16.3003 17.4137C16.2933 17.3687 16.274 17.3265 16.2447 17.2917C16.2154 17.2569 16.177 17.2307 16.1339 17.2162C16.0907 17.2016 16.0444 17.1992 16 17.2091Z" fill="#552F99"/>
<path opacity="0.75" d="M12.3022 19.4131V29.742L15.0934 30.1864V18.9331L12.3022 19.4131Z" fill="#B77AF4"/>
<path opacity="0.75" d="M8.85333 19.9821V29.0132L11.2889 29.511V19.5732L8.85333 19.9821Z" fill="#B77AF4"/>
</g>
<defs>
<linearGradient id="paint0_linear_868_6838" x1="16" y1="21.2445" x2="16" y2="3.74055e-05" gradientUnits="userSpaceOnUse">
<stop stop-color="#0078D4"/>
<stop offset="0.16" stop-color="#1380DA"/>
<stop offset="0.53" stop-color="#3C91E5"/>
<stop offset="0.82" stop-color="#559CEC"/>
<stop offset="1" stop-color="#5EA0EF"/>
</linearGradient>
<clipPath id="clip0_868_6838">
<rect width="32" height="32" fill="white"/>
</clipPath>
</defs>
</svg>
