<svg width="32" height="32" viewBox="0 0 32 32" fill="none" xmlns="http://www.w3.org/2000/svg">
<g clip-path="url(#clip0_855_8532)">
<path d="M25.4045 30.0446C25.7218 30.046 26.0363 29.9849 26.33 29.8646C26.6236 29.7444 26.8907 29.5674 27.116 29.3438C27.3412 29.1202 27.5201 28.8545 27.6425 28.5617C27.7649 28.2689 27.8284 27.9549 27.8293 27.6375C27.8294 27.5401 27.824 27.4428 27.8133 27.346C26.864 19.7513 22.5298 13.5664 14.2631 13.5664C5.85246 13.5664 1.5129 18.8037 0.668458 27.3655C0.63548 27.6829 0.665389 28.0037 0.756475 28.3096C0.847562 28.6155 0.99804 28.9004 1.19931 29.148C1.40057 29.3957 1.64868 29.6012 1.92944 29.753C2.2102 29.9047 2.51811 29.9995 2.83557 30.0322C2.91557 30.0322 2.99735 30.0446 3.07912 30.0446H25.4045Z" fill="url(#paint0_linear_855_8532)"/>
<path opacity="0.8" d="M14.2631 15.3666C12.7981 15.3696 11.3636 14.9478 10.1334 14.1523L14.2223 24.819L18.2774 14.2217C17.0731 14.9722 15.6821 15.3689 14.2631 15.3666Z" fill="white"/>
<path d="M14.2631 15.3686C18.4723 15.3686 21.8845 11.9565 21.8845 7.74731C21.8845 3.53816 18.4723 0.125977 14.2631 0.125977C10.054 0.125977 6.64178 3.53816 6.64178 7.74731C6.64178 11.9565 10.054 15.3686 14.2631 15.3686Z" fill="url(#paint1_linear_855_8532)"/>
<path d="M28.7609 23.2227C27.8799 24.0142 26.7373 24.4521 25.5529 24.4521C24.3685 24.4521 23.2259 24.0142 22.3449 23.2227L21.9467 31.1871C21.9402 31.3152 21.9728 31.4423 22.0401 31.5514C22.1075 31.6606 22.2064 31.7467 22.3238 31.7984C22.4412 31.8501 22.5716 31.8648 22.6976 31.8407C22.8236 31.8167 22.9393 31.7549 23.0293 31.6635L25.5182 30.0867L27.9876 31.6867C28.0771 31.7781 28.1923 31.8402 28.3179 31.8648C28.4435 31.8895 28.5736 31.8754 28.691 31.8246C28.8085 31.7738 28.9078 31.6885 28.9758 31.5801C29.0438 31.4717 29.0774 31.3452 29.072 31.2173L28.7609 23.2227Z" fill="url(#paint2_linear_855_8532)"/>
<path d="M25.6178 24.8871C28.7803 24.8871 31.344 22.3146 31.344 19.1413C31.344 15.968 28.7803 13.3955 25.6178 13.3955C22.4553 13.3955 19.8916 15.968 19.8916 19.1413C19.8916 22.3146 22.4553 24.8871 25.6178 24.8871Z" fill="#A67AF4"/>
<path d="M25.6178 23.5004C28.0174 23.5004 29.9627 21.5488 29.9627 19.1413C29.9627 16.7339 28.0174 14.7822 25.6178 14.7822C23.2182 14.7822 21.2729 16.7339 21.2729 19.1413C21.2729 21.5488 23.2182 23.5004 25.6178 23.5004Z" fill="#FFE452"/>
</g>
<defs>
<linearGradient id="paint0_linear_855_8532" x1="14.2418" y1="11.554" x2="14.2418" y2="34.1175" gradientUnits="userSpaceOnUse">
<stop offset="0.225" stop-color="#32D4F5"/>
<stop offset="0.473" stop-color="#31D1F3"/>
<stop offset="0.633" stop-color="#2EC9EB"/>
<stop offset="0.999" stop-color="#198AB3"/>
<stop offset="1" stop-color="#198AB3"/>
</linearGradient>
<linearGradient id="paint1_linear_855_8532" x1="13.5982" y1="-0.54069" x2="15.2445" y2="19.9446" gradientUnits="userSpaceOnUse">
<stop offset="0.225" stop-color="#32D4F5"/>
<stop offset="0.473" stop-color="#31D1F3"/>
<stop offset="0.633" stop-color="#2EC9EB"/>
<stop offset="0.999" stop-color="#198AB3"/>
<stop offset="1" stop-color="#198AB3"/>
</linearGradient>
<linearGradient id="paint2_linear_855_8532" x1="25.5093" y1="31.8733" x2="25.5093" y2="23.2227" gradientUnits="userSpaceOnUse">
<stop stop-color="#A67AF4"/>
<stop offset="0.999" stop-color="#773ADC"/>
</linearGradient>
<clipPath id="clip0_855_8532">
<rect width="32" height="32" fill="white"/>
</clipPath>
</defs>
</svg>
