<svg width="32" height="32" viewBox="0 0 32 32" fill="none" xmlns="http://www.w3.org/2000/svg">
<path d="M10.08 18.8624H17.7778V26.5424H10.08V18.8624ZM1.19111 8.62238H8.88888V0.942383H2.18666C1.90376 0.942383 1.63245 1.05476 1.43241 1.2548C1.23238 1.45484 1.12 1.72615 1.12 2.00905L1.19111 8.62238ZM2.25777 26.5424H8.88888V18.8624H1.12V25.4757C1.12 25.7586 1.23238 26.0299 1.43241 26.23C1.63245 26.43 1.90376 26.5424 2.18666 26.5424H2.25777ZM1.19111 17.6535H8.88888V9.90238H1.12L1.19111 17.6535ZM19.1111 26.5424H25.7244C26.0073 26.5424 26.2786 26.43 26.4787 26.23C26.6787 26.0299 26.7911 25.7586 26.7911 25.4757V18.8624H19.04L19.1111 26.5424ZM10.2222 17.6535H17.7778V9.90238H10.08L10.2222 17.6535ZM19.1111 17.6535H26.6667V9.90238H19.04L19.1111 17.6535ZM19.1111 1.01349V8.62238H26.6667V2.00905C26.6667 1.72615 26.5543 1.45484 26.3542 1.2548C26.1542 1.05476 25.8829 0.942383 25.6 0.942383L19.1111 1.01349ZM10.2222 8.69349H17.7778V0.942383H10.08L10.2222 8.69349Z" fill="url(#paint0_linear_855_8585)"/>
<path d="M30.88 19.0225V27.0402L24 31.058V23.0402L30.88 19.0225Z" fill="#32BEDD"/>
<path d="M30.88 19.0227L24 23.0582L17.12 19.0227L24 15.0049L30.88 19.0227Z" fill="#9CEBFF"/>
<path d="M24 23.058V31.058L17.12 27.0402V19.0225L24 23.058Z" fill="#50E6FF"/>
<path d="M17.12 27.04L24 23.04V31.0578L17.12 27.04Z" fill="#9CEBFF"/>
<path d="M30.88 27.04L24 23.04V31.0578L30.88 27.04Z" fill="#50E6FF"/>
<defs>
<linearGradient id="paint0_linear_855_8585" x1="14.2755" y1="0.995716" x2="14.2755" y2="26.5957" gradientUnits="userSpaceOnUse">
<stop stop-color="#5EA0EF"/>
<stop offset="0.18" stop-color="#589EED"/>
<stop offset="0.41" stop-color="#4897E9"/>
<stop offset="0.66" stop-color="#2E8CE1"/>
<stop offset="0.94" stop-color="#0A7CD7"/>
<stop offset="1" stop-color="#0078D4"/>
</linearGradient>
</defs>
</svg>
