<svg width="32" height="32" viewBox="0 0 32 32" fill="none" xmlns="http://www.w3.org/2000/svg">
<path d="M31.9396 20.3418C31.8756 16.7791 29.2462 13.7836 25.7227 13.2573C25.5787 8.25467 21.4293 4.30268 16.4249 4.40223C12.4569 4.36134 8.89957 6.8449 7.56979 10.5836C3.30312 11.1329 0.0960109 14.7471 0.0604553 19.0493C0.2329 23.8636 4.22223 27.6573 9.04001 27.5862H24.3591C24.4889 27.604 24.6187 27.604 24.7485 27.5862C28.7129 27.5187 31.9005 24.3062 31.9396 20.3418Z" fill="url(#paint0_linear_855_8553)"/>
<path d="M18.5902 12.1781L17.8364 11.7159C17.728 11.6483 17.6444 11.547 17.6 11.4261L17.0258 9.82255C16.9458 9.59855 16.7324 9.44922 16.4942 9.44922H15.5342C15.28 9.44922 15.056 9.61988 14.9902 9.86522L14.5831 11.3657C14.5387 11.531 14.4195 11.6679 14.2613 11.7354L13.5075 12.0608C13.36 12.1248 13.1947 12.1212 13.0489 12.0554L11.5378 11.3603C11.3191 11.2608 11.0613 11.3088 10.896 11.4812L10.2187 12.187C10.0515 12.3612 10.0142 12.6208 10.1227 12.8341L10.864 14.2812C10.9369 14.4252 10.9458 14.5941 10.8871 14.7434L10.5955 15.4866C10.5333 15.6466 10.4018 15.7692 10.2364 15.819L8.61688 16.3186C8.38044 16.3914 8.21866 16.6101 8.21866 16.8572V17.8101C8.21866 18.0643 8.38932 18.2866 8.63288 18.3541L10.112 18.7594C10.2773 18.8039 10.4124 18.923 10.4818 19.0794L10.8071 19.835C10.8693 19.9808 10.8693 20.1461 10.8035 20.2901L10.128 21.787C10.0302 22.0021 10.0782 22.2563 10.2471 22.4217L10.9564 23.1186C11.1307 23.2892 11.3955 23.3301 11.6124 23.2163L13.0311 22.4803C13.1751 22.4057 13.3458 22.3968 13.4987 22.4554L14.2631 22.7577C14.4107 22.8163 14.5262 22.9337 14.5831 23.0812L15.1787 24.6386C15.2622 24.8572 15.472 25.0012 15.7049 25.0012H16.6844C16.9262 25.0012 17.1395 24.8483 17.2178 24.6208L17.7067 23.195C17.7511 23.0652 17.8418 22.9568 17.9591 22.8892L18.6649 22.4839C18.8213 22.395 19.0098 22.3843 19.1733 22.4572L20.5209 23.0546C20.736 23.1488 20.9867 23.1008 21.152 22.9337L21.8595 22.2119C22.0267 22.043 22.0693 21.787 21.9662 21.5719L21.3547 20.2972C21.2835 20.1497 21.28 19.9772 21.3458 19.8261L21.6693 19.0866C21.7333 18.939 21.8595 18.8252 22.0124 18.7754L23.5627 18.2759C23.7955 18.2012 23.9538 17.9843 23.9538 17.739V16.811C23.9538 16.5568 23.7831 16.3328 23.536 16.267L22.0018 15.8546C21.856 15.8154 21.7315 15.7194 21.6569 15.5879L21.2818 14.923C21.1947 14.7701 21.1858 14.5852 21.2533 14.4234L21.8382 13.0528C21.9307 12.8377 21.8791 12.587 21.7102 12.4252L20.9867 11.7283C20.8195 11.5666 20.5689 11.5257 20.3573 11.6234L19.1164 12.2012C18.944 12.2812 18.7449 12.2706 18.5831 12.171L18.5902 12.1781ZM13.5769 18.4786C13.4773 18.379 13.4151 18.2439 13.4115 18.1034C13.3262 14.891 16.3111 14.0092 17.888 15.5026C18.896 16.507 18.8995 18.139 17.8969 19.147C16.912 20.1372 15.3155 20.1621 14.3004 19.2021L13.5769 18.4786Z" fill="url(#paint1_linear_855_8553)"/>
<path d="M16.0907 21.0611C18.1309 21.0611 19.7849 19.3999 19.7849 17.3508C19.7849 15.3017 18.1309 13.6406 16.0907 13.6406C14.0504 13.6406 12.3965 15.3017 12.3965 17.3508C12.3965 19.3999 14.0504 21.0611 16.0907 21.0611Z" fill="url(#paint2_linear_855_8553)"/>
<path d="M17.8951 15.696L15.3369 18.2666L14.0907 17.0204L14.0284 16.9689C13.824 16.832 13.5467 16.8853 13.408 17.0915C13.2907 17.2675 13.312 17.5004 13.4578 17.6515L15.0204 19.216L15.0827 19.2675C15.2604 19.3902 15.5004 19.3689 15.6516 19.2142L18.5316 16.3271L18.5831 16.2649C18.7182 16.0586 18.6596 15.7813 18.4533 15.6462C18.2791 15.5324 18.0516 15.5538 17.9004 15.696H17.8933H17.8951Z" fill="white"/>
<defs>
<linearGradient id="paint0_linear_855_8553" x1="16" y1="0.932009" x2="16" y2="32.7222" gradientUnits="userSpaceOnUse">
<stop offset="0.18" stop-color="#5EA0EF"/>
<stop offset="1" stop-color="#0078D4"/>
</linearGradient>
<linearGradient id="paint1_linear_855_8553" x1="16.0907" y1="25.003" x2="16.0907" y2="9.44922" gradientUnits="userSpaceOnUse">
<stop stop-color="#86D633"/>
<stop offset="0.596" stop-color="#A4E434"/>
<stop offset="0.999" stop-color="#B4EC36"/>
</linearGradient>
<linearGradient id="paint2_linear_855_8553" x1="16.0907" y1="21.0611" x2="16.0907" y2="13.6406" gradientUnits="userSpaceOnUse">
<stop stop-color="#5E9624"/>
<stop offset="0.111" stop-color="#64A026"/>
<stop offset="0.348" stop-color="#6EAF2A"/>
<stop offset="0.619" stop-color="#74B92C"/>
<stop offset="0.999" stop-color="#76BC2D"/>
</linearGradient>
</defs>
</svg>
