<svg width="32" height="32" viewBox="0 0 32 32" fill="none" xmlns="http://www.w3.org/2000/svg">
<g clip-path="url(#clip0_855_8518)">
<path d="M31.1982 27.012C30.9138 28.2565 29.3582 29.4849 26.5458 30.4413C19.5109 32.5098 12.0308 32.5203 4.99021 30.4716C2.39998 29.5578 1.00265 28.3916 0.783984 27.2005C0.744873 26.9907 0.783984 23.7053 0.783984 23.7053L31.248 23.4209C31.248 23.4209 31.2338 26.8609 31.1982 27.012Z" fill="#5EA0EF"/>
<path d="M16.0546 28.9043C24.4744 28.8198 31.2764 26.3915 31.2471 23.4805C31.2179 20.5695 24.3686 18.2781 15.9488 18.3626C7.52896 18.4471 0.727022 20.8755 0.756237 23.7865C0.785452 26.6975 7.63476 28.9888 16.0546 28.9043Z" fill="#50E6FF"/>
<path d="M27.9822 0H4.01777C3.5455 0 3.16266 0.382846 3.16266 0.855111V16.2613C3.16266 16.7336 3.5455 17.1164 4.01777 17.1164H27.9822C28.4545 17.1164 28.8373 16.7336 28.8373 16.2613V0.855111C28.8373 0.382846 28.4545 0 27.9822 0Z" fill="url(#paint0_linear_855_8518)"/>
<path d="M21.1555 22.2931C18.6169 21.8949 18.5173 20.0691 18.5173 17.1162H13.4755C13.4755 20.0691 13.3902 21.8949 10.8515 22.2931C10.5014 22.3309 10.1778 22.4973 9.94333 22.7601C9.70884 23.0228 9.58017 23.3632 9.58221 23.7153H22.4178C22.42 23.3643 22.2923 23.0248 22.0593 22.7622C21.8263 22.4997 21.5044 22.3326 21.1555 22.2931Z" fill="url(#paint1_linear_855_8518)"/>
<path d="M21.6889 9.8577V4.5457H20.16V11.0328H24.0213V9.8577H21.6889ZM10.4889 7.23192C10.1993 7.11413 9.92902 6.95352 9.68711 6.75548C9.62013 6.68729 9.56801 6.60595 9.53405 6.5166C9.50008 6.42725 9.48501 6.33183 9.48978 6.23637C9.4872 6.14315 9.50817 6.05079 9.55074 5.96783C9.59331 5.88486 9.65611 5.81397 9.73333 5.7617C9.92768 5.6354 10.1582 5.57666 10.3893 5.59459C10.9317 5.5778 11.4651 5.73545 11.9111 6.04437V4.69681C11.4234 4.5209 10.9077 4.43536 10.3893 4.44437C9.76985 4.41508 9.15968 4.60379 8.66489 4.9777C8.45538 5.14516 8.28814 5.35951 8.17667 5.60346C8.06519 5.84741 8.01259 6.11414 8.02311 6.38215C8.03746 6.79458 8.17243 7.19376 8.41131 7.53028C8.65019 7.86679 8.9825 8.12588 9.36711 8.27548C9.7139 8.41455 10.038 8.60448 10.3289 8.83903C10.4061 8.89837 10.4683 8.97492 10.5106 9.06259C10.5528 9.15026 10.574 9.2466 10.5724 9.34392C10.5728 9.43876 10.5509 9.53237 10.5087 9.61726C10.4664 9.70215 10.4048 9.77596 10.3289 9.83281C10.1387 9.95951 9.91566 10.0281 9.68711 10.0301C9.05443 10.0236 8.4463 9.78436 7.97867 9.35815V10.8799C8.49829 11.1414 9.07556 11.2674 9.65689 11.2461C10.321 11.2541 10.9696 11.045 11.504 10.6506C11.7236 10.4836 11.8995 10.2658 12.0166 10.016C12.1336 9.76609 12.1883 9.49157 12.176 9.21592C12.1853 9.01573 12.1551 8.81566 12.0871 8.62714C12.0191 8.43862 11.9146 8.26536 11.7796 8.11726C11.4142 7.73725 10.975 7.43597 10.4889 7.23192ZM18.64 9.73503C18.9986 9.13671 19.1788 8.44833 19.1591 7.75103C19.1673 7.15216 19.0314 6.56009 18.7627 6.02481C18.5171 5.53555 18.1357 5.12753 17.664 4.8497C17.1955 4.58611 16.6674 4.44659 16.1298 4.44437C15.5374 4.43717 14.9533 4.58486 14.4356 4.87281C13.936 5.15569 13.5318 5.58084 13.2747 6.09415C12.9697 6.64328 12.8066 7.25982 12.8 7.88792C12.7941 8.45807 12.9194 9.02192 13.1662 9.53592C13.4132 10.0159 13.7886 10.4178 14.2507 10.6968C14.7115 10.9778 15.2367 11.1357 15.776 11.1555L17.12 12.6808H19.0222L17.1751 10.903C17.7841 10.6987 18.3007 10.2848 18.6329 9.73503H18.64ZM17.1147 9.33859C16.974 9.51815 16.7926 9.66162 16.5855 9.75715C16.3783 9.85268 16.1515 9.8975 15.9236 9.88792C15.6939 9.89837 15.4652 9.85228 15.2575 9.75372C15.0499 9.65515 14.8696 9.50711 14.7324 9.32259C14.4075 8.88263 14.2454 8.34348 14.2738 7.79726C14.2486 7.25088 14.4104 6.71223 14.7324 6.27015C14.8791 6.08868 15.0655 5.94333 15.2773 5.84531C15.4891 5.74729 15.7205 5.69922 15.9538 5.70481C16.1812 5.69404 16.4077 5.74008 16.6129 5.83878C16.818 5.93748 16.9954 6.08573 17.1289 6.27015C17.4324 6.71977 17.5827 7.25537 17.5573 7.79726C17.6179 8.34018 17.4823 8.88686 17.1751 9.33859H17.1147Z" fill="white"/>
</g>
<defs>
<linearGradient id="paint0_linear_855_8518" x1="16" y1="17.1164" x2="16" y2="0" gradientUnits="userSpaceOnUse">
<stop stop-color="#0078D4"/>
<stop offset="0.82" stop-color="#5EA0EF"/>
</linearGradient>
<linearGradient id="paint1_linear_855_8518" x1="16" y1="23.7207" x2="16" y2="17.1162" gradientUnits="userSpaceOnUse">
<stop offset="0.151" stop-color="#CCCCCC"/>
<stop offset="1" stop-color="#707070"/>
</linearGradient>
<clipPath id="clip0_855_8518">
<rect width="32" height="32" fill="white"/>
</clipPath>
</defs>
</svg>
