<svg width="32" height="32" viewBox="0 0 32 32" fill="none" xmlns="http://www.w3.org/2000/svg">
<g clip-path="url(#clip0_855_8520)">
<path d="M31.1983 26.9267C30.9138 28.1711 29.3583 29.3996 26.5458 30.356C19.5111 32.4254 12.0308 32.4359 4.99027 30.3863C2.40005 29.4725 1.00271 28.3063 0.784045 27.1116C0.744934 26.9018 0.784045 23.6165 0.784045 23.6165L31.248 23.332C31.248 23.332 31.2338 26.7756 31.1983 26.9267Z" fill="#5EA0EF"/>
<path d="M16.0538 28.8194C24.4736 28.7349 31.2755 26.3065 31.2463 23.3955C31.2171 20.4845 24.3678 18.1932 15.948 18.2777C7.52814 18.3622 0.726198 20.7905 0.755413 23.7015C0.784628 26.6125 7.63393 28.9039 16.0538 28.8194Z" fill="#50E6FF"/>
<path d="M16 7.22996C10.5209 7.22996 6.07825 5.68329 6.07825 3.64062V22.7695C6.07825 24.7357 10.4445 26.3251 15.856 26.3606H16C21.4791 26.3606 25.92 24.8122 25.92 22.7695V3.64062C25.9271 5.63707 21.4862 7.22996 16 7.22996Z" fill="url(#paint0_linear_855_8520)"/>
<path d="M25.9271 3.64092C25.9271 5.63736 21.4827 7.23025 16.0071 7.23025C10.5315 7.23025 6.08533 5.68892 6.08533 3.64092C6.08533 1.59292 10.528 0.0498047 16 0.0498047C21.472 0.0498047 25.92 1.59647 25.92 3.64092" fill="#E8E8E8"/>
<path d="M23.6213 3.34552C23.6213 4.61485 20.2009 5.63707 16.0071 5.63707C11.8133 5.63707 8.39111 4.61129 8.39111 3.34552C8.39111 2.07974 11.8116 1.06641 16 1.06641C20.1884 1.06641 23.6142 2.08685 23.6142 3.3473" fill="#50E6FF"/>
<path d="M16 3.9112C13.9569 3.86124 11.9203 4.16189 9.9787 4.80009C11.9222 5.4259 13.9594 5.7104 16 5.64098C18.0434 5.70417 20.0817 5.40318 22.0196 4.75209C20.0737 4.13946 18.0393 3.85527 16 3.9112Z" fill="#198AB3"/>
</g>
<defs>
<linearGradient id="paint0_linear_855_8520" x1="6.08536" y1="15.0006" x2="25.9271" y2="15.0006" gradientUnits="userSpaceOnUse">
<stop stop-color="#005BA1"/>
<stop offset="0.52" stop-color="#0078D4"/>
<stop offset="1" stop-color="#005BA1"/>
</linearGradient>
<clipPath id="clip0_855_8520">
<rect width="32" height="32" fill="white"/>
</clipPath>
</defs>
</svg>
