<svg width="32" height="32" viewBox="0 0 32 32" fill="none" xmlns="http://www.w3.org/2000/svg">
<g clip-path="url(#clip0_855_8515)">
<path d="M31.9057 26.8536C31.6089 28.1567 29.9804 29.442 27.0382 30.4411C19.6756 32.6062 11.8469 32.6173 4.47819 30.4731C1.76708 29.5114 0.303967 28.2971 0.0746337 27.0456C0.0355226 26.8251 0.0746337 23.3869 0.0746337 23.3869L31.9591 23.0918C31.9591 23.0918 31.9431 26.6936 31.9057 26.8536Z" fill="#5EA0EF"/>
<path d="M16.0574 28.8322C24.87 28.7437 31.9892 26.2023 31.9586 23.1558C31.928 20.1094 24.7593 17.7114 15.9467 17.7998C7.13416 17.8883 0.0149589 20.4296 0.0455335 23.4761C0.076108 26.5226 7.24488 28.9206 16.0574 28.8322Z" fill="#50E6FF"/>
<path d="M11.2391 0.0732422L6.88892 0.878576V6.81102L11.2391 7.73902L15.6036 5.98969V1.56302L11.2391 0.0732422Z" fill="url(#paint0_linear_855_8515)"/>
<path d="M20.6525 0.149414L16.304 0.954747V6.88719L20.6525 7.81519L25.0027 6.04986V1.63919L20.6525 0.149414Z" fill="url(#paint1_linear_855_8515)"/>
<path d="M6.78223 8.25684L2.43201 9.06217V14.9946L6.78223 15.9226L11.1467 14.1733V9.74661L6.78223 8.25684Z" fill="url(#paint2_linear_855_8515)"/>
<path d="M16.1671 8.19434L11.8169 9.00145V14.9321L16.1671 15.8761L20.5156 14.1108V9.68589L16.1671 8.19434Z" fill="url(#paint3_linear_855_8515)"/>
<path d="M25.5502 8.27051L21.2 9.07762V15.0083L25.5502 15.9363L29.9165 14.187V9.76206L25.5502 8.27051Z" fill="url(#paint4_linear_855_8515)"/>
<path d="M11.1324 16.5303L6.78223 17.3214V23.2521L11.1324 24.1961L15.4969 22.4307V18.0201L11.1324 16.5303Z" fill="url(#paint5_linear_855_8515)"/>
<path d="M20.5316 16.5908L16.1813 17.3962V23.3286L20.5316 24.2566L24.896 22.5073V18.0806L20.5316 16.5908Z" fill="url(#paint6_linear_855_8515)"/>
<path d="M6.8889 0.878678V6.81112L11.2836 7.73912V0.133789L6.8889 0.878678ZM8.7449 6.35423L7.5129 6.11068V1.5489L8.7449 1.35157V6.35423ZM10.6667 6.70446L9.24445 6.4769V1.25912L10.6667 1.01557V6.70446ZM16.304 0.955122V6.88757L20.6685 7.81557V0.210234L16.304 0.955122ZM18.144 6.43068L16.912 6.18712V1.62534L18.144 1.42268V6.43068ZM20.0605 6.78623L18.6382 6.55868V1.33557L20.0605 1.07779V6.78623ZM2.41779 9.06712V14.948L6.81245 15.876V8.27068L2.41779 9.06712ZM4.26667 14.5533L3.02223 14.2938V9.73201L4.25423 9.51868L4.26667 14.5533ZM6.19734 14.948L4.77512 14.7205V9.44223L6.19734 9.19868V14.948ZM11.8169 9.00135V14.948L16.1973 15.876V8.27068L11.8169 9.00135ZM13.6569 14.4911L12.4249 14.2333V9.66979L13.6569 9.45823V14.4911ZM15.5733 14.8271L14.1511 14.5978V9.38179L15.5733 9.13823V14.8271ZM21.2 9.07779V14.9445L25.6 15.876V8.27068L21.2 9.07779ZM23.056 14.5676L21.824 14.3098V9.74623L23.056 9.5329V14.5676ZM24.9725 14.9018L23.5591 14.6742V9.45823L24.9813 9.21468L24.9725 14.9018ZM6.78223 17.3213V23.252L11.1787 24.196V16.4698L6.78223 17.3213ZM8.63823 22.8111L7.40623 22.5533V17.9898L8.63823 17.7782V22.8111ZM10.5547 23.1667L9.13245 22.9391V17.7018L10.5547 17.4582V23.1667ZM16.1778 17.396V23.3285L20.5742 24.2565V16.6511L16.1778 17.396ZM18.0338 22.8876L16.8018 22.628V18.0662L18.0338 17.8529V22.8876ZM19.9502 23.2218L18.528 22.9942V17.7782L19.9502 17.5347V23.2218Z" fill="#341A6E"/>
</g>
<defs>
<linearGradient id="paint0_linear_855_8515" x1="6.88892" y1="3.90613" x2="15.6036" y2="3.90613" gradientUnits="userSpaceOnUse">
<stop stop-color="#B77AF4"/>
<stop offset="1" stop-color="#773ADC"/>
</linearGradient>
<linearGradient id="paint1_linear_855_8515" x1="16.304" y1="3.9823" x2="25.0027" y2="3.9823" gradientUnits="userSpaceOnUse">
<stop stop-color="#B77AF4"/>
<stop offset="1" stop-color="#773ADC"/>
</linearGradient>
<linearGradient id="paint2_linear_855_8515" x1="2.43201" y1="12.0897" x2="11.1467" y2="12.0897" gradientUnits="userSpaceOnUse">
<stop stop-color="#B77AF4"/>
<stop offset="1" stop-color="#773ADC"/>
</linearGradient>
<linearGradient id="paint3_linear_855_8515" x1="11.8169" y1="12.0361" x2="20.5156" y2="12.0361" gradientUnits="userSpaceOnUse">
<stop stop-color="#B77AF4"/>
<stop offset="1" stop-color="#773ADC"/>
</linearGradient>
<linearGradient id="paint4_linear_855_8515" x1="21.2" y1="12.1034" x2="29.9165" y2="12.1034" gradientUnits="userSpaceOnUse">
<stop stop-color="#B77AF4"/>
<stop offset="1" stop-color="#773ADC"/>
</linearGradient>
<linearGradient id="paint5_linear_855_8515" x1="6.78223" y1="20.3632" x2="15.4969" y2="20.3632" gradientUnits="userSpaceOnUse">
<stop stop-color="#B77AF4"/>
<stop offset="1" stop-color="#773ADC"/>
</linearGradient>
<linearGradient id="paint6_linear_855_8515" x1="16.1813" y1="20.4237" x2="24.896" y2="20.4237" gradientUnits="userSpaceOnUse">
<stop stop-color="#B77AF4"/>
<stop offset="1" stop-color="#773ADC"/>
</linearGradient>
<clipPath id="clip0_855_8515">
<rect width="32" height="32" fill="white"/>
</clipPath>
</defs>
</svg>
