<svg width="32" height="32" viewBox="0 0 32 32" fill="none" xmlns="http://www.w3.org/2000/svg">
<g clip-path="url(#clip0_855_8531)">
<path d="M31.1982 26.9267C30.9138 28.1711 29.3582 29.3996 26.5458 30.356C19.511 32.4254 12.0307 32.4359 4.99021 30.3863C2.39998 29.4725 1.00265 28.3063 0.783984 27.1116C0.744873 26.9018 0.783984 23.6165 0.783984 23.6165L31.248 23.332C31.248 23.332 31.2338 26.7756 31.1982 26.9267Z" fill="#5EA0EF"/>
<path d="M16.0537 28.8194C24.4736 28.7349 31.2755 26.3065 31.2463 23.3955C31.2171 20.4845 24.3678 18.1932 15.9479 18.2777C7.52811 18.3622 0.726167 20.7905 0.755382 23.7015C0.784597 26.6125 7.6339 28.9039 16.0537 28.8194Z" fill="#50E6FF"/>
<path d="M18.432 23.984C18.4283 24.2073 18.338 24.4204 18.1801 24.5783C18.0222 24.7362 17.8091 24.8266 17.5858 24.8302H4.6951C4.47067 24.8302 4.25543 24.7411 4.09673 24.5824C3.93803 24.4237 3.84888 24.2084 3.84888 23.984V0.846222C3.84507 0.625855 3.92886 0.412981 4.08184 0.254328C4.23483 0.0956742 4.44452 0.00420556 4.66488 0L17.5858 0C17.8102 0 18.0254 0.0891553 18.1841 0.247853C18.3428 0.40655 18.432 0.62179 18.432 0.846222V23.984Z" fill="url(#paint0_linear_855_8531)"/>
<path d="M5.98754 8.70243C5.99126 8.286 6.15845 7.8877 6.45309 7.5934C6.74773 7.29909 7.14621 7.13234 7.56265 7.12909H14.8391C15.0476 7.12317 15.2552 7.1584 15.4501 7.23276C15.645 7.30712 15.8233 7.41916 15.9749 7.56246C16.1264 7.70577 16.2483 7.87754 16.3334 8.06796C16.4185 8.25837 16.4653 8.4637 16.4711 8.6722V8.70243C16.4711 9.12493 16.304 9.53029 16.0062 9.83004C15.7085 10.1298 15.3043 10.2996 14.8818 10.3024H7.56265C7.35417 10.3008 7.14805 10.2581 6.95606 10.1768C6.76407 10.0955 6.58997 9.97723 6.44371 9.82866C6.29744 9.68008 6.18188 9.50415 6.10361 9.31091C6.02534 9.11767 5.9859 8.91091 5.98754 8.70243ZM7.56265 5.5842H14.8693C15.2901 5.58752 15.6949 5.42367 15.9949 5.12866C16.2949 4.83365 16.4656 4.43161 16.4693 4.01087C16.4702 3.99548 16.4702 3.98004 16.4693 3.96465C16.4636 3.75614 16.4168 3.55081 16.3316 3.3604C16.2465 3.16998 16.1246 2.99821 15.9731 2.85491C15.8215 2.7116 15.6432 2.59957 15.4483 2.52521C15.2534 2.45085 15.0458 2.41562 14.8373 2.42154H7.56265C7.15243 2.43529 6.76361 2.60792 6.47828 2.90298C6.19296 3.19803 6.03345 3.59242 6.03345 4.00287C6.03345 4.41332 6.19296 4.80771 6.47828 5.10276C6.76361 5.39782 7.15243 5.57045 7.56265 5.5842Z" fill="#003067"/>
<path d="M7.64443 2.94043C7.85539 2.94043 8.06162 3.00299 8.23703 3.1202C8.41245 3.2374 8.54916 3.40399 8.6299 3.5989C8.71063 3.79381 8.73175 4.00828 8.6906 4.21519C8.64944 4.42211 8.54785 4.61217 8.39867 4.76134C8.2495 4.91052 8.05943 5.01211 7.85252 5.05327C7.64561 5.09442 7.43114 5.0733 7.23623 4.99257C7.04132 4.91183 6.87473 4.77512 6.75752 4.5997C6.64032 4.42429 6.57776 4.21806 6.57776 4.0071C6.57776 3.86702 6.60535 3.72831 6.65895 3.5989C6.71256 3.46949 6.79113 3.3519 6.89018 3.25285C6.98923 3.1538 7.10682 3.07523 7.23623 3.02162C7.36564 2.96802 7.50435 2.94043 7.64443 2.94043ZM6.57776 8.70221C6.57776 8.91317 6.64032 9.1194 6.75752 9.29482C6.87473 9.47023 7.04132 9.60695 7.23623 9.68768C7.43114 9.76841 7.64561 9.78954 7.85252 9.74838C8.05943 9.70722 8.2495 9.60563 8.39867 9.45645C8.54785 9.30728 8.64944 9.11722 8.6906 8.9103C8.73175 8.70339 8.71063 8.48892 8.6299 8.29401C8.54916 8.0991 8.41245 7.93251 8.23703 7.81531C8.06162 7.6981 7.85539 7.63554 7.64443 7.63554C7.36153 7.63554 7.09022 7.74792 6.89018 7.94796C6.69014 8.148 6.57776 8.41931 6.57776 8.70221Z" fill="#50E6FF"/>
<path d="M29.0951 20.0035C29.0564 18.8243 28.601 17.6969 27.8097 16.8217C27.0185 15.9465 25.9427 15.3801 24.7733 15.223C24.6894 13.5835 23.9653 12.0424 22.7568 10.9313C21.5483 9.82018 19.9519 9.22784 18.3111 9.2817C16.9859 9.25103 15.6836 9.63138 14.5832 10.3705C13.4828 11.1096 12.6382 12.1713 12.1653 13.4097C10.753 13.5789 9.44831 14.2491 8.48823 15.2985C7.52815 16.348 6.97642 17.7071 6.93332 19.1288C6.99489 20.7228 7.68592 22.2274 8.85493 23.3127C10.0239 24.3981 11.5756 24.9757 13.1698 24.919H24.1458C25.446 24.8978 26.6875 24.3741 27.6101 23.4578C28.5328 22.5414 29.065 21.3035 29.0951 20.0035Z" fill="url(#paint1_linear_855_8531)"/>
<path d="M23.3191 20.5551V15.5648H21.9378V21.6893H25.5769V20.5622L23.3191 20.5551ZM12.7751 18.1035C12.5031 17.9849 12.2483 17.83 12.0178 17.6431C11.9581 17.5797 11.9116 17.5052 11.881 17.4236C11.8505 17.3421 11.8366 17.2554 11.84 17.1684C11.8358 17.081 11.8542 16.9941 11.8934 16.9159C11.9327 16.8377 11.9914 16.771 12.064 16.7222C12.246 16.5943 12.4659 16.5316 12.688 16.5444C13.2161 16.525 13.7365 16.6758 14.1724 16.9746V15.6982C13.6946 15.537 13.1921 15.4617 12.688 15.476C12.1078 15.4463 11.5353 15.6191 11.0684 15.9648C10.8719 16.1234 10.7147 16.3253 10.6092 16.5548C10.5037 16.7843 10.4528 17.0351 10.4604 17.2875C10.4847 17.6906 10.6313 18.0767 10.8806 18.3943C11.13 18.7119 11.4702 18.946 11.856 19.0653C12.1814 19.1993 12.486 19.3789 12.7609 19.5986C12.8303 19.6569 12.8862 19.7295 12.9249 19.8114C12.9636 19.8933 12.984 19.9827 12.9849 20.0733C12.9891 20.1606 12.9707 20.2476 12.9314 20.3258C12.8922 20.404 12.8334 20.4707 12.7609 20.5195C12.5624 20.6477 12.3284 20.7099 12.0924 20.6973C11.5007 20.6924 10.9313 20.4704 10.4924 20.0733V21.4404C10.9686 21.6734 11.4931 21.7903 12.0231 21.7817C12.6217 21.828 13.2195 21.6822 13.7298 21.3657C13.9384 21.2097 14.1057 21.005 14.2173 20.7695C14.3288 20.5341 14.3812 20.2749 14.3698 20.0146C14.3839 19.6331 14.2509 19.2608 13.9982 18.9746C13.6582 18.5993 13.2409 18.3021 12.7751 18.1035ZM20.4444 20.4448C20.7799 19.879 20.9499 19.2305 20.9351 18.5728C20.9545 17.9962 20.8266 17.4241 20.5635 16.9106C20.3367 16.4523 19.9808 16.0704 19.5395 15.812C19.0592 15.5352 18.5092 15.4031 17.9556 15.4315C17.4335 15.4546 16.9246 15.6021 16.4711 15.8617C16.0068 16.1301 15.6302 16.5271 15.3867 17.0048C15.1222 17.5298 14.9846 18.1095 14.9849 18.6973C14.9761 19.238 15.098 19.7729 15.3404 20.2564C15.5706 20.7083 15.9197 21.0888 16.3502 21.3568C16.7985 21.6285 17.3106 21.7769 17.8347 21.7871L19.0969 23.2715H20.8747L19.1075 21.6377C19.6763 21.4043 20.148 20.9834 20.4444 20.4448ZM19.0631 20.0733C18.9256 20.2375 18.7536 20.3693 18.5592 20.4593C18.3649 20.5493 18.153 20.5953 17.9389 20.5939C17.7247 20.5926 17.5135 20.5439 17.3203 20.4515C17.1271 20.359 16.9567 20.225 16.8213 20.0591C16.5101 19.629 16.3626 19.102 16.4053 18.5728C16.3618 18.042 16.5149 17.5137 16.8356 17.0884C16.9675 16.9113 17.1405 16.7688 17.3396 16.6732C17.5386 16.5775 17.7579 16.5315 17.9787 16.5391C18.1935 16.5309 18.4069 16.5769 18.5992 16.6729C18.7915 16.7689 18.9566 16.9118 19.0791 17.0884C19.3852 17.5203 19.5322 18.0448 19.4951 18.5728C19.5403 19.1118 19.3838 19.6484 19.056 20.0786L19.0631 20.0733Z" fill="#F2F2F2"/>
</g>
<defs>
<linearGradient id="paint0_linear_855_8531" x1="11.1413" y1="24.8302" x2="11.1413" y2="0" gradientUnits="userSpaceOnUse">
<stop stop-color="#949494"/>
<stop offset="1" stop-color="#B3B3B3"/>
</linearGradient>
<linearGradient id="paint1_linear_855_8531" x1="18.0178" y1="24.9244" x2="18.0178" y2="9.27814" gradientUnits="userSpaceOnUse">
<stop stop-color="#0078D4"/>
<stop offset="1" stop-color="#5EA0EF"/>
</linearGradient>
<clipPath id="clip0_855_8531">
<rect width="32" height="32" fill="white"/>
</clipPath>
</defs>
</svg>
