<svg width="32" height="32" viewBox="0 0 32 32" fill="none" xmlns="http://www.w3.org/2000/svg">
<g clip-path="url(#clip0_855_8534)">
<path d="M31.1983 26.9267C30.9138 28.1711 29.3583 29.3996 26.5458 30.356C19.5111 32.4254 12.0308 32.4359 4.99027 30.3863C2.40005 29.4725 1.00271 28.3063 0.784045 27.1116C0.744934 26.9018 0.784045 23.6165 0.784045 23.6165L31.248 23.332C31.248 23.332 31.2338 26.7756 31.1983 26.9267Z" fill="#5EA0EF"/>
<path d="M16.0538 28.8194C24.4736 28.7349 31.2755 26.3065 31.2463 23.3955C31.2171 20.4845 24.3678 18.1932 15.948 18.2777C7.52814 18.3622 0.726198 20.7905 0.755413 23.7015C0.784628 26.6125 7.63393 28.9039 16.0538 28.8194Z" fill="#50E6FF"/>
<path d="M15.1467 7.22996C9.66757 7.22996 5.22668 5.68329 5.22668 3.64062V22.7695C5.22668 24.7357 9.59113 26.3251 15.0045 26.3606H15.1467C20.6258 26.3606 25.0667 24.8122 25.0667 22.7695V3.64062C25.0667 5.63707 20.6222 7.22996 15.1467 7.22996Z" fill="url(#paint0_linear_855_8534)"/>
<path d="M25.0667 3.64092C25.0667 5.63736 20.6222 7.23025 15.1467 7.23025C9.67113 7.23025 5.22668 5.68892 5.22668 3.64092C5.22668 1.59292 9.66757 0.0498047 15.1467 0.0498047C20.6258 0.0498047 25.0667 1.60003 25.0667 3.64092Z" fill="#E8E8E8"/>
<path d="M22.7556 3.34552C22.7556 4.61485 19.3351 5.63707 15.1414 5.63707C10.9476 5.63707 7.53247 4.61129 7.53247 3.34552C7.53247 2.07974 10.9529 1.06641 15.1467 1.06641C19.3405 1.06641 22.7556 2.09218 22.7556 3.35263" fill="#50E6FF"/>
<path d="M15.1467 3.91138C13.1041 3.86144 11.0681 4.16209 9.12714 4.80026C11.0701 5.42548 13.1068 5.70938 15.1467 5.63938C17.1901 5.70283 19.2284 5.40184 21.1662 4.75049C19.2203 4.13832 17.1859 3.85474 15.1467 3.91138Z" fill="#198AB3"/>
<path d="M20.1031 13.3228V13.9717C20.0428 14.2943 20.0018 14.6202 19.9805 14.9477C19.9711 15.1872 19.9969 15.4268 20.0569 15.6588C20.0969 15.8422 20.0969 16.032 20.0569 16.2153C20.0517 16.6854 19.9183 17.1452 19.6711 17.5451C19.6676 17.5811 19.6676 17.6175 19.6711 17.6535L19.8258 17.8402C20.522 16.6853 21.0726 15.4486 21.4649 14.1584C21.8987 12.6882 21.9449 11.6375 21.6036 11.1877C21.1156 10.5883 20.4641 10.1435 19.7281 9.90743C18.9921 9.67135 18.2034 9.65417 17.4578 9.85796C17.9838 10.1189 18.4603 10.4696 18.8658 10.8944C19.223 11.1967 19.5164 11.5671 19.7289 11.9841C19.9413 12.401 20.0686 12.8562 20.1031 13.3228ZM19.6249 13.4473C19.2137 13.3464 18.78 13.3956 18.4018 13.586C17.9538 13.8651 18.0925 14.4357 18.4018 15.1326C18.554 15.5811 18.7321 16.0203 18.9351 16.4482L19.0738 16.6953C19.152 16.818 19.1982 16.9264 19.2516 17.0046L19.3742 17.2055C19.5556 16.9011 19.652 16.5536 19.6533 16.1993C19.664 16.0294 19.664 15.859 19.6533 15.6891C19.6691 15.4342 19.6433 15.1784 19.5769 14.9317C19.5973 14.5741 19.6382 14.218 19.6996 13.8651C19.6647 13.7122 19.6593 13.5542 19.6836 13.3993L19.6249 13.4473ZM19.1609 14.0802C19.0837 14.1562 18.9872 14.2096 18.8818 14.2348C18.8104 14.2508 18.7363 14.2508 18.6649 14.2348C18.6257 14.1975 18.5955 14.1516 18.5767 14.1007C18.5579 14.0499 18.551 13.9954 18.5565 13.9415C18.5565 13.8331 18.7342 13.7406 18.928 13.7104H19.2213C19.2213 13.7104 19.3618 13.7104 19.3618 13.8331C19.3533 13.8744 19.3365 13.9135 19.3123 13.948C19.2882 13.9826 19.2572 14.0118 19.2213 14.034L19.1609 14.0802ZM11.9111 15.4668V15.1948C11.9182 15.1073 11.9182 15.0193 11.9111 14.9317C11.8631 14.4173 11.8631 13.8995 11.9111 13.3851C12.0021 12.8025 12.1577 12.2318 12.3751 11.6837C12.5549 11.1368 12.8592 10.639 13.264 10.2295C12.5874 10.0266 11.885 9.92244 11.1787 9.92018C10.577 9.89315 9.98199 10.0554 9.47734 10.3842C9.09082 10.7331 8.79869 11.174 8.62807 11.666C8.45745 12.158 8.41386 12.6851 8.50134 13.1984C8.65082 14.3749 8.90972 15.5349 9.27468 16.6633C9.80801 18.4268 10.4053 19.5077 10.9298 19.6855C11.1627 19.7637 11.4098 19.6855 11.6569 19.362C12.0907 18.8286 12.4925 18.386 12.7236 18.1175C12.3783 17.7676 12.1276 17.3359 11.9948 16.8626C11.862 16.3893 11.8516 15.8901 11.9645 15.4117L11.9111 15.4668ZM12.3129 16.0855C12.3062 16.3769 12.3373 16.6679 12.4053 16.9513C12.4998 17.1993 12.6357 17.4296 12.8071 17.6322C12.9514 17.7929 13.128 17.9213 13.3252 18.0092C13.5225 18.0971 13.736 18.1425 13.952 18.1424C14.0217 17.8165 14.1417 17.5034 14.3076 17.2144C14.4389 16.9191 14.5476 16.6142 14.6329 16.3024C14.6809 15.731 14.6809 15.1565 14.6329 14.5851C14.6446 14.4249 14.6126 14.2645 14.5405 14.1211C14.529 13.959 14.4611 13.8061 14.3485 13.6891C14.2275 13.5718 14.0789 13.4868 13.9165 13.442H13.6071C13.3495 13.4732 13.0985 13.5458 12.864 13.6571C12.6904 13.7398 12.5249 13.8386 12.3698 13.9522V15.0651C12.3751 15.1426 12.3751 15.2204 12.3698 15.298V15.9006L12.3129 16.0855ZM13.3333 14.0037C13.4745 13.9593 13.6259 13.9593 13.7671 14.0037C13.8692 14.0185 13.9683 14.0497 14.0605 14.0962C14.1991 14.0962 14.2151 14.274 14.1991 14.3131C14.1561 14.3928 14.0953 14.4616 14.0213 14.514C13.9878 14.4976 13.9567 14.4767 13.9289 14.4517C13.821 14.433 13.7215 14.3815 13.6439 14.3042C13.5662 14.2269 13.5143 14.1276 13.4951 14.0197L13.3333 14.0037ZM14.4782 18.6437C14.4031 18.6524 14.3328 18.6848 14.2773 18.7362L14.0605 18.9993C13.7973 19.3246 13.6889 19.4331 12.9316 19.5877C12.7861 19.6018 12.6472 19.6553 12.5298 19.7424C12.638 19.8299 12.7653 19.8908 12.9013 19.9202C13.2633 20.0358 13.6523 20.0358 14.0142 19.9202C14.2323 19.8139 14.435 19.6788 14.6169 19.5184C14.7678 19.3948 14.876 19.2269 14.9262 19.0384C14.9331 18.9592 14.9229 18.8795 14.8962 18.8046C14.8695 18.7298 14.827 18.6616 14.7716 18.6046C14.7392 18.5796 14.7007 18.5636 14.6601 18.5582C14.6195 18.5529 14.5782 18.5585 14.5405 18.5744L14.4782 18.6437ZM21.6089 18.6437C21.0453 18.8535 20.425 18.8535 19.8613 18.6437C19.7908 18.6211 19.715 18.6211 19.6445 18.6437C19.5326 18.6803 19.4386 18.7578 19.3813 18.8606C19.36 19.0199 19.36 19.1813 19.3813 19.3406C19.9513 19.4682 20.5468 19.4141 21.0845 19.186C21.3677 19.0647 21.6208 18.8826 21.8258 18.6526L21.6089 18.6437ZM17.8916 15.3335C17.6747 14.6988 17.3582 13.7868 18.1707 13.2304C18.5917 12.9957 19.0809 12.9134 19.5556 12.9975C19.3532 12.3423 19.0159 11.7367 18.5653 11.2197L18.4107 11.0651L18.3111 10.9708C18.284 10.9366 18.2529 10.9056 18.2187 10.8784C17.9123 10.6051 17.5619 10.3857 17.1822 10.2295C16.6418 9.99283 16.0565 9.87637 15.4667 9.88818C15.0969 9.86206 14.7261 9.92295 14.384 10.066C14.2242 10.1108 14.0689 10.1703 13.92 10.2437C13.3904 10.6313 12.9912 11.1707 12.7751 11.7904C12.6213 12.2908 12.5107 12.8035 12.4445 13.3228C12.9095 13.0438 13.4509 12.9194 13.9911 12.9673C14.1613 12.9808 14.3272 13.0276 14.4793 13.1053C14.6314 13.1829 14.7667 13.2897 14.8775 13.4196C14.9883 13.5496 15.0724 13.7001 15.125 13.8625C15.1776 14.025 15.1976 14.1962 15.184 14.3664V14.3753C15.2427 15.0288 15.2427 15.6862 15.184 16.3397C15.0948 16.6744 14.9758 17.0005 14.8285 17.314C14.736 17.5771 14.6116 17.8473 14.5511 18.0713C14.6586 18.0646 14.7663 18.0804 14.8674 18.1178C14.9684 18.1551 15.0605 18.2132 15.1378 18.2882C15.2441 18.3948 15.3257 18.5234 15.3767 18.6651C15.4277 18.8067 15.4469 18.9578 15.4329 19.1077H15.4667V19.4793C15.3511 20.7495 15.4772 22.0302 15.8382 23.2535C15.9255 23.3977 16.0553 23.5114 16.2098 23.5788C16.3521 23.673 16.5175 23.7265 16.688 23.7335C16.9691 23.7578 17.2521 23.7229 17.5188 23.631C17.7855 23.5391 18.03 23.3924 18.2365 23.2002C18.5014 22.9235 18.6601 22.5621 18.6845 22.1797C18.7929 21.4828 19.024 19.5504 19.056 19.0864C19.0281 18.8504 19.0767 18.6118 19.1947 18.4055C19.2946 18.2434 19.4398 18.1142 19.6125 18.034C18.8814 17.2213 18.3183 16.2722 17.9556 15.2411L17.8916 15.3335Z" fill="#F2F2F2"/>
<path d="M26.7077 24.9262C28.7166 23.2313 29.3484 20.6759 28.1188 19.2186C26.8892 17.7613 24.264 17.9539 22.2551 19.6488C20.2462 21.3438 19.6144 23.8992 20.844 25.3565C22.0736 26.8138 24.6989 26.6212 26.7077 24.9262Z" fill="#76BC2D"/>
<path d="M23.3084 23.7796C23.0733 23.6235 22.8816 23.4103 22.7513 23.1599C22.6209 22.9095 22.5562 22.6302 22.5631 22.348C22.57 22.0659 22.6484 21.79 22.7909 21.5464C22.9333 21.3027 23.1353 21.0992 23.3778 20.9547C25.1556 19.6765 25.2711 21.5183 23.8436 21.7565C23.8436 22.4178 25.7049 22.3396 26.5102 20.8676C27.4098 19.2018 24.768 18.1476 22.4764 20.6738C21.0116 22.2898 20.976 24.5014 22.2684 24.9832C22.88 25.1661 23.5271 25.1965 24.1532 25.0718C24.7793 24.9472 25.3653 24.6711 25.8601 24.2678C26.3549 23.8645 26.7435 23.3462 26.992 22.7582C27.2404 22.1701 27.3411 21.5302 27.2853 20.8943C26.0444 23.7743 24.2862 24.1938 23.3084 23.7796Z" fill="white"/>
</g>
<defs>
<linearGradient id="paint0_linear_855_8534" x1="5.22668" y1="15.0006" x2="25.0667" y2="15.0006" gradientUnits="userSpaceOnUse">
<stop stop-color="#005BA1"/>
<stop offset="1" stop-color="#005BA1"/>
</linearGradient>
<clipPath id="clip0_855_8534">
<rect width="32" height="32" fill="white"/>
</clipPath>
</defs>
</svg>
