<svg width="32" height="32" viewBox="0 0 32 32" fill="none" xmlns="http://www.w3.org/2000/svg">
<path d="M31.4667 13.1643C31.4301 11.9283 30.955 10.7457 30.1265 9.82784C29.2979 8.91001 28.1698 8.31688 26.944 8.15452C26.8677 6.42824 26.1152 4.80131 24.8491 3.62536C23.583 2.44941 21.905 1.81889 20.1778 1.87008C18.7815 1.84518 17.4118 2.25444 16.2581 3.04133C15.1044 3.82822 14.2234 4.95392 13.7369 6.26297C12.2604 6.44244 10.8971 7.14486 9.89391 8.24294C8.89074 9.34102 8.31408 10.7621 8.26843 12.2487C8.3337 13.918 9.05798 15.4934 10.2826 16.6297C11.5072 17.766 13.1323 18.3706 14.8018 18.311C14.9941 18.3152 15.1865 18.3069 15.3778 18.2861H25.9555C26.0501 18.2843 26.1439 18.2699 26.2347 18.2434C27.5931 18.2338 28.8954 17.7003 29.8701 16.754C30.8449 15.8078 31.4168 14.5219 31.4667 13.1643Z" fill="url(#paint0_linear_855_8521)"/>
<path d="M19.1591 17.7154L19.1929 18.4816L19.9537 18.5829C21.0109 18.7251 21.9836 19.2369 22.6994 20.0276C23.4153 20.8183 23.8282 21.8369 23.8649 22.9029C23.8287 24.0843 23.3378 25.2061 22.4944 26.0343C21.6511 26.8624 20.5205 27.3328 19.3386 27.3474H19.2604L19.2035 27.358L19.1413 27.3456H7.40796C6.66189 27.3901 5.9143 27.2887 5.20707 27.0469C4.48478 26.7947 3.81739 26.4067 3.24085 25.9038C2.68731 25.3811 2.24 24.7563 1.92352 24.0638C1.53033 23.1164 1.41499 22.0766 1.59097 21.066C1.76695 20.0555 2.22699 19.1159 2.9173 18.3572C3.83593 17.3873 5.07128 16.7781 6.39996 16.6398L6.95641 16.574L7.15019 16.0496C7.59219 14.8521 8.3931 13.8202 9.44352 13.0949C10.4893 12.3789 11.7319 12.0061 12.9991 12.0283H13.0435C14.6066 11.9796 16.1256 12.55 17.2705 13.6152C18.4153 14.6805 19.0934 16.1546 19.1573 17.7172L19.1591 17.7154Z" fill="white"/>
<path d="M19.184 28.2667L19.0329 28.2329H7.40797C6.56396 28.2773 5.71923 28.1602 4.91908 27.888C4.08661 27.5983 3.31767 27.151 2.6542 26.5707C2.00605 25.9671 1.48241 25.2423 1.11286 24.4374C0.651706 23.3305 0.514485 22.1154 0.717176 20.9336C0.919867 19.7517 1.45413 18.6518 2.25775 17.7618C3.32424 16.6293 4.76207 15.9177 6.30931 15.7565V15.7423C6.81192 14.3716 7.7283 13.1912 8.93153 12.3645C10.1225 11.5268 11.5526 11.0971 13.008 11.1396C14.8027 11.0902 16.545 11.7476 17.8597 12.9703C19.1744 14.1929 19.9564 15.8829 20.0373 17.6765L20.0622 17.7014C21.3292 17.8684 22.4958 18.4801 23.3537 19.4273C24.2117 20.3744 24.7054 21.5956 24.7466 22.8729C24.7186 24.2937 24.1389 25.6478 23.1303 26.6488C22.1216 27.6499 20.7631 28.2192 19.3422 28.2365L19.184 28.2667ZM12.9778 12.9174C11.8912 12.9 10.8262 13.2218 9.93116 13.8381C9.03609 14.4543 8.35544 15.3343 7.98397 16.3556L7.60175 17.392L6.50486 17.52C5.3799 17.634 4.33327 18.1482 3.55553 18.9689C2.98455 19.6038 2.60478 20.3872 2.46007 21.2286C2.31537 22.0701 2.41163 22.9354 2.73775 23.7245C3.00544 24.302 3.38142 24.8228 3.84531 25.2587C4.32867 25.6775 4.8882 25.9992 5.49331 26.2063C6.08908 26.4102 6.71892 26.496 7.34753 26.4587H19.2178H19.2355H19.2533C20.2173 26.4624 21.1447 26.0901 21.8386 25.4209C22.5324 24.7516 22.9379 23.8382 22.9689 22.8747C22.9302 22.0274 22.5941 21.2208 22.0195 20.5968C21.445 19.9729 20.6688 19.5714 19.8275 19.4632L18.3289 19.2658L18.2631 17.7512C18.2062 16.4251 17.6297 15.1747 16.6584 14.2702C15.687 13.3657 14.3987 12.8797 13.072 12.9174H12.9778Z" fill="#50E6FF"/>
<path d="M9.06668 22.2227V21.6894L8.5209 21.5116L8.38224 21.1382L8.6489 20.5818V20.5178L8.47112 20.34L8.26846 20.1249H8.19912L7.66579 20.3934L7.29246 20.2974L7.06668 19.6982H6.53335L6.35557 20.244L5.98224 20.3827L5.36179 20.0894L4.97779 20.4751V20.5391L5.24446 21.0725L5.09512 21.4458L4.44446 21.6716V22.2049H4.51912L5.08624 22.3969L5.24624 22.7614L4.94757 23.3818L5.33335 23.7676H5.39735L5.93068 23.4902L6.30401 23.6396L6.54046 24.292H7.07379V24.2174L7.26757 23.6396L7.62312 23.4902L8.25424 23.7782L8.62757 23.4049V23.3302L8.3929 22.8165L8.49957 22.4414L9.06668 22.2227ZM6.81068 22.7151C6.69803 22.717 6.58638 22.6938 6.48383 22.6471C6.38128 22.6004 6.2904 22.5316 6.21778 22.4454C6.14516 22.3593 6.09263 22.2581 6.06399 22.1491C6.03535 22.0401 6.03132 21.9262 6.05219 21.8155C6.07307 21.7047 6.11833 21.6001 6.18468 21.509C6.25104 21.418 6.33683 21.3428 6.43583 21.2891C6.53483 21.2353 6.64456 21.2042 6.75706 21.1981C6.86956 21.192 6.982 21.211 7.08624 21.2538C7.22534 21.3114 7.34459 21.4085 7.42935 21.5329C7.51304 21.6581 7.5576 21.8054 7.55735 21.956C7.55991 22.1499 7.48728 22.3373 7.35471 22.4788C7.22213 22.6203 7.0399 22.705 6.84624 22.7151H6.81068Z" fill="#0078D4"/>
<path fill-rule="evenodd" clip-rule="evenodd" d="M6.78399 28.2751C5.54196 28.2677 4.32993 27.8927 3.3008 27.1973C2.27167 26.5019 1.47153 25.5173 1.00133 24.3677C0.531122 23.2181 0.411913 21.9549 0.658736 20.7377C0.90556 19.5204 1.50736 18.4035 2.38822 17.5278C3.26908 16.6521 4.38954 16.057 5.60827 15.8173C6.82699 15.5777 8.08938 15.7044 9.23619 16.1814C10.383 16.6584 11.3628 17.4644 12.0521 18.4976C12.7414 19.5308 13.1093 20.7451 13.1093 21.9871H11.2C11.2007 21.1214 10.9447 20.275 10.4643 19.5548C9.98398 18.8347 9.30086 18.2731 8.50135 17.9412C7.70185 17.6093 6.82188 17.5219 5.97271 17.6901C5.12354 17.8583 4.34331 18.2745 3.73069 18.8861C3.11808 19.4977 2.70059 20.2773 2.53101 21.1262C2.36144 21.9751 2.4474 22.8552 2.77803 23.6552C3.10866 24.4553 3.6691 25.1393 4.38848 25.6208C5.10787 26.1024 5.95388 26.3597 6.81955 26.3604H8.21333C8.23094 26.3653 8.24954 26.3652 8.2671 26.3602C8.28465 26.3552 8.30049 26.3454 8.31288 26.332C8.32601 26.3192 8.33578 26.3033 8.34133 26.2858C8.34487 26.2682 8.34487 26.25 8.34133 26.2324V24.6822C8.34529 24.6561 8.35587 24.6315 8.37205 24.6106C8.38823 24.5898 8.40948 24.5734 8.43377 24.5631C8.45921 24.5573 8.48561 24.5571 8.51112 24.5627C8.53662 24.5682 8.56059 24.5793 8.58133 24.5951L11.248 27.2618C11.2569 27.2901 11.2569 27.3205 11.248 27.3489C11.2405 27.3783 11.2236 27.4045 11.2 27.4236L8.53333 30.0902C8.51192 30.1077 8.48605 30.1188 8.45866 30.1222C8.43193 30.1261 8.40465 30.1218 8.38044 30.1098C8.35526 30.0988 8.33369 30.0809 8.31822 30.0582C8.30215 30.036 8.29344 30.0092 8.29333 29.9818V28.4067C8.2933 28.3713 8.27923 28.3374 8.25422 28.3124C8.24176 28.2997 8.22681 28.2896 8.21029 28.2829C8.19377 28.2762 8.17605 28.2729 8.15822 28.2733L6.78399 28.2751Z" fill="#0078D4"/>
<defs>
<linearGradient id="paint0_linear_855_8521" x1="19.8684" y1="18.3145" x2="19.8684" y2="1.86652" gradientUnits="userSpaceOnUse">
<stop stop-color="#0078D4"/>
<stop offset="0.149" stop-color="#1882DB"/>
<stop offset="0.373" stop-color="#378FE4"/>
<stop offset="0.594" stop-color="#4C99EA"/>
<stop offset="0.806" stop-color="#5A9EEE"/>
<stop offset="1" stop-color="#5EA0EF"/>
</linearGradient>
</defs>
</svg>
