<svg width="32" height="32" viewBox="0 0 32 32" fill="none" xmlns="http://www.w3.org/2000/svg">
<path d="M27.7333 10.1336H0.11911V5.31584C0.11911 5.20928 0.16144 5.10709 0.236788 5.03174C0.312136 4.95639 0.41433 4.91406 0.520888 4.91406H27.3244C27.4312 4.91406 27.5335 4.95633 27.6092 5.03163C27.6848 5.10693 27.7275 5.20912 27.728 5.31584L27.7333 10.1336Z" fill="#949494"/>
<path d="M0.112 10.1338H27.7209V26.5853C27.7209 26.6943 27.6776 26.7987 27.6006 26.8757C27.5236 26.9527 27.4191 26.996 27.3102 26.996H0.522666C0.413751 26.996 0.309296 26.9527 0.232281 26.8757C0.155266 26.7987 0.112 26.6943 0.112 26.5853V10.1338Z" fill="#BFBFBF"/>
<path d="M2.01779 11.5557H25.7867V25.0134H2.01779V11.5557Z" fill="#005BA1"/>
<path d="M12.7111 19.0898H8.60266C8.34443 19.0898 8.1351 19.2992 8.1351 19.5574V19.5592C8.1351 19.8174 8.34443 20.0267 8.60266 20.0267H12.7111C12.9693 20.0267 13.1787 19.8174 13.1787 19.5592V19.5574C13.1787 19.2992 12.9693 19.0898 12.7111 19.0898Z" fill="white"/>
<path d="M4.75555 19.9381L7.73332 16.9603C7.7623 16.9323 7.78535 16.8988 7.80109 16.8616C7.81683 16.8245 7.82494 16.7846 7.82494 16.7443C7.82494 16.704 7.81683 16.6641 7.80109 16.627C7.78535 16.5899 7.7623 16.5563 7.73332 16.5283L4.7111 13.6252C4.68176 13.5973 4.6471 13.5756 4.6092 13.5613C4.57129 13.5471 4.53091 13.5406 4.49045 13.5422C4.44999 13.5439 4.41027 13.5537 4.37366 13.571C4.33705 13.5883 4.30429 13.6128 4.27732 13.643L4.05332 13.867C4.00133 13.9256 3.97413 14.0021 3.97744 14.0804C3.98076 14.1586 4.01434 14.2326 4.0711 14.2866L6.44088 16.5337C6.46915 16.5619 6.49159 16.5954 6.50689 16.6323C6.52219 16.6693 6.53007 16.7088 6.53007 16.7488C6.53007 16.7887 6.52219 16.8283 6.50689 16.8652C6.49159 16.9021 6.46915 16.9357 6.44088 16.9639L4.12977 19.3337C4.07428 19.3905 4.04322 19.4667 4.04322 19.5461C4.04322 19.6255 4.07428 19.7018 4.12977 19.7586L4.30755 19.9363C4.33575 19.9677 4.37022 19.9929 4.40874 20.0101C4.44725 20.0274 4.48895 20.0364 4.53115 20.0366C4.57336 20.0367 4.61513 20.0281 4.65378 20.0111C4.69242 19.9941 4.72709 19.9693 4.75555 19.9381Z" fill="white"/>
<path d="M31.888 23.0366C31.8607 22.0644 31.4878 21.1337 30.8361 20.4117C30.1845 19.6897 29.2968 19.2236 28.3324 19.0971C28.2741 17.7386 27.6826 16.4579 26.6862 15.5327C25.6898 14.6075 24.3688 14.1124 23.0098 14.1549C21.9122 14.1337 20.8351 14.4538 19.9272 15.0709C19.0194 15.6881 18.3254 16.5718 17.9413 17.6002C16.7798 17.7408 15.7071 18.293 14.9178 19.1567C14.1285 20.0203 13.6748 21.1383 13.6391 22.3078C13.6896 23.6211 14.2587 24.861 15.2218 25.7554C16.1849 26.6498 17.4633 27.1259 18.7769 27.0793L19.2302 27.0615H27.5555C27.6302 27.0603 27.7044 27.0489 27.776 27.0278C28.843 27.0194 29.8657 26.6001 30.6315 25.8572C31.3973 25.1142 31.8473 24.1029 31.888 23.0366Z" fill="url(#paint0_linear_855_8597)"/>
<defs>
<linearGradient id="paint0_linear_855_8597" x1="22.7644" y1="27.0882" x2="22.7644" y2="14.1549" gradientUnits="userSpaceOnUse">
<stop stop-color="#0078D4"/>
<stop offset="0.156" stop-color="#1380DA"/>
<stop offset="0.528" stop-color="#3C91E5"/>
<stop offset="0.822" stop-color="#559CEC"/>
<stop offset="1" stop-color="#5EA0EF"/>
</linearGradient>
</defs>
</svg>
