<svg width="32" height="32" viewBox="0 0 32 32" fill="none" xmlns="http://www.w3.org/2000/svg">
<g clip-path="url(#clip0_855_8563)">
<path d="M31.9218 18.4031C31.8704 16.6981 31.2147 15.0669 30.0716 13.8007C28.9286 12.5346 27.3727 11.716 25.6818 11.4911C25.5772 9.11124 24.5403 6.8681 22.7951 5.24666C21.0499 3.62521 18.7367 2.75575 16.3555 2.82624C14.4282 2.79013 12.5373 3.3542 10.9447 4.44034C9.3521 5.52648 8.13665 7.08095 7.46664 8.88846C5.43059 9.13517 3.55022 10.1029 2.16616 11.6165C0.782103 13.13 -0.0141097 15.0892 -0.0782471 17.1391C0.0115725 19.4418 1.01012 21.615 2.69876 23.183C4.3874 24.7511 6.62855 25.5861 8.93153 25.5054C9.19998 25.5054 9.46486 25.4929 9.7262 25.4716H24.3164C24.4496 25.4732 24.5825 25.4565 24.7111 25.4218C26.5858 25.4065 28.3822 24.6679 29.7257 23.3603C31.0691 22.0526 31.8558 20.2768 31.9218 18.4031Z" fill="url(#paint0_linear_855_8563)"/>
<path d="M20.5404 14.0011C20.5439 13.2072 20.3373 12.4265 19.9418 11.7381C19.5462 11.0497 18.9757 10.4782 18.2881 10.0813C17.6004 9.68452 16.8201 9.47656 16.0262 9.47853C15.2322 9.4805 14.4529 9.69234 13.7673 10.0926C13.0816 10.4928 12.5139 11.0672 12.1218 11.7575C11.7297 12.4479 11.5271 13.2296 11.5344 14.0235C11.5418 14.8174 11.759 15.5952 12.1638 16.2781C12.5687 16.9611 13.147 17.5248 13.84 17.9122V23.7416H18.1618V17.9549C18.879 17.5729 19.4791 17.0033 19.898 16.307C20.3169 15.6107 20.5389 14.8137 20.5404 14.0011ZM16.8284 22.3993H15.1733V18.4171C15.4579 18.4732 15.7472 18.5024 16.0373 18.5042C16.3029 18.5011 16.5676 18.4743 16.8284 18.4242V22.3993ZM16.8284 17.0553C16.5705 17.1261 16.3047 17.1637 16.0373 17.1673C15.7444 17.1635 15.4535 17.118 15.1733 17.0322L16.8284 17.0553ZM18.1618 16.3442L13.84 16.2784C13.3793 15.8379 13.062 15.2688 12.9294 14.6453C12.7968 14.0218 12.8551 13.3728 13.0966 12.7829C13.3381 12.193 13.7516 11.6895 14.2834 11.338C14.8151 10.9865 15.4404 10.8032 16.0777 10.8121C16.7151 10.8211 17.335 11.0217 17.8567 11.388C18.3784 11.7542 18.7777 12.2691 19.0026 12.8655C19.2275 13.462 19.2676 14.1123 19.1176 14.7318C18.9676 15.3514 18.6345 15.9114 18.1618 16.3389V16.3442Z" fill="white"/>
<path d="M26.1528 22.4033H5.89507C5.49448 22.4033 5.16974 22.7281 5.16974 23.1287V27.6122C5.16974 28.0128 5.49448 28.3375 5.89507 28.3375H26.1528C26.5534 28.3375 26.8782 28.0128 26.8782 27.6122V23.1287C26.8782 22.7281 26.5534 22.4033 26.1528 22.4033Z" fill="url(#paint1_linear_855_8563)"/>
<path d="M24.848 23.4414H23.952C23.7517 23.4414 23.5893 23.6038 23.5893 23.8041V24.7001C23.5893 24.9004 23.7517 25.0627 23.952 25.0627H24.848C25.0483 25.0627 25.2106 24.9004 25.2106 24.7001V23.8041C25.2106 23.6038 25.0483 23.4414 24.848 23.4414Z" fill="white"/>
<path opacity="0.6" d="M24.848 25.6777H23.952C23.7517 25.6777 23.5893 25.8401 23.5893 26.0404V26.9364C23.5893 27.1367 23.7517 27.2991 23.952 27.2991H24.848C25.0483 27.2991 25.2106 27.1367 25.2106 26.9364V26.0404C25.2106 25.8401 25.0483 25.6777 24.848 25.6777Z" fill="white"/>
<path d="M19.2 14.0013C19.2032 13.4106 19.0412 12.8307 18.7324 12.3271C18.4235 11.8235 17.9801 11.4163 17.4522 11.1513C16.9242 10.8863 16.3327 10.7741 15.7443 10.8274C15.156 10.8807 14.5943 11.0973 14.1225 11.4528C13.6507 11.8084 13.2877 12.2887 13.0744 12.8396C12.861 13.3905 12.8059 13.99 12.9152 14.5705C13.0244 15.1511 13.2938 15.6895 13.6928 16.1252C14.0918 16.5608 14.6046 16.8763 15.1733 17.036V22.3995H16.8284V17.0662C17.5077 16.8907 18.1093 16.4944 18.5386 15.9395C18.9679 15.3847 19.2006 14.7029 19.2 14.0013Z" fill="#76BC2D"/>
</g>
<defs>
<linearGradient id="paint0_linear_855_8563" x1="15.9218" y1="25.5053" x2="15.9218" y2="2.82624" gradientUnits="userSpaceOnUse">
<stop stop-color="#0078D4"/>
<stop offset="1" stop-color="#5EA0EF"/>
</linearGradient>
<linearGradient id="paint1_linear_855_8563" x1="16.0248" y1="28.3393" x2="16.0248" y2="22.4033" gradientUnits="userSpaceOnUse">
<stop stop-color="#76BC2D"/>
<stop offset="0.817" stop-color="#86D633"/>
</linearGradient>
<clipPath id="clip0_855_8563">
<rect width="32" height="32" fill="white"/>
</clipPath>
</defs>
</svg>
