<svg width="32" height="32" viewBox="0 0 32 32" fill="none" xmlns="http://www.w3.org/2000/svg">
<path d="M7.73507 3.69681C6.73036 5.01226 5.98469 6.5066 5.53774 8.10037H2.82662C3.93108 6.13034 5.65718 4.5818 7.73507 3.69681ZM2.19729 16.6515H5.34396C5.00772 15.4828 4.82837 14.2746 4.81062 13.0586C4.81247 11.7544 4.95975 10.4545 5.24974 9.18303H2.29862C1.307 11.5671 1.27072 14.2414 2.19729 16.6515ZM8.43907 22.6764C7.22239 21.216 6.28961 19.541 5.68885 17.7377H2.67907C3.89294 20.0631 5.95567 21.8317 8.43907 22.6764ZM6.83907 17.7377C7.51506 19.896 8.84284 21.7921 10.64 23.1653C10.7377 23.1759 10.8373 23.1759 10.9351 23.1795C10.9351 23.1493 10.9173 23.1226 10.9173 23.0906V18.9857C10.9245 18.7033 11.0175 18.4299 11.184 18.2017V17.7377H6.83907ZM5.89862 13.0586C5.92181 14.2779 6.11876 15.4877 6.48351 16.6515H11.2V9.18481H6.35374C6.04983 10.4536 5.89707 11.7539 5.89862 13.0586ZM6.65418 8.10037H11.2V2.91992C10.8693 2.93592 10.544 2.96614 10.2222 3.01414C8.42252 4.18711 7.14453 6.00891 6.65418 8.10037ZM12.9351 2.98214C12.7164 2.95548 12.496 2.93948 12.2755 2.92703V8.09859H16.5706C16.3322 7.04807 15.8882 6.05513 15.2642 5.177C14.6403 4.29888 13.8487 3.55292 12.9351 2.98214ZM12.2755 16.6515H16.7413C17.1058 15.4876 17.3033 14.2779 17.328 13.0586C17.3299 11.7532 17.1766 10.4522 16.8711 9.18303H12.2755V16.6515ZM15.4222 3.61859C16.4638 4.94973 17.234 6.47246 17.6888 8.10037H20.5475C19.4018 6.0643 17.5929 4.48246 15.4222 3.61859ZM17.9697 9.18303C18.2596 10.4534 18.4069 11.7521 18.4088 13.055C18.3911 14.2722 18.2118 15.4816 17.8755 16.6515H21.1715C22.0976 14.2419 22.0613 11.5684 21.0702 9.18481L17.9697 9.18303Z" fill="url(#paint0_linear_855_8579)"/>
<path d="M30.8906 24.75H12.3502C11.983 24.75 11.6853 25.0477 11.6853 25.4149V29.518C11.6853 29.8852 11.983 30.1829 12.3502 30.1829H30.8906C31.2578 30.1829 31.5555 29.8852 31.5555 29.518V25.4149C31.5555 25.0477 31.2578 24.75 30.8906 24.75Z" fill="url(#paint1_linear_855_8579)"/>
<path d="M29.6213 25.7012H28.8017C28.6181 25.7012 28.4693 25.85 28.4693 26.0336V26.8532C28.4693 27.0368 28.6181 27.1856 28.8017 27.1856H29.6213C29.8049 27.1856 29.9537 27.0368 29.9537 26.8532V26.0336C29.9537 25.85 29.8049 25.7012 29.6213 25.7012Z" fill="white"/>
<path opacity="0.6" d="M29.6213 27.7471H28.8017C28.6181 27.7471 28.4693 27.8959 28.4693 28.0795V28.8991C28.4693 29.0827 28.6181 29.2315 28.8017 29.2315H29.6213C29.8049 29.2315 29.9537 29.0827 29.9537 28.8991V28.0795C29.9537 27.8959 29.8049 27.7471 29.6213 27.7471Z" fill="white"/>
<path d="M10.9404 23.18C10.8426 23.18 10.7431 23.18 10.6453 23.1657C8.8482 21.7925 7.52042 19.8965 6.84442 17.7382H11.1893V18.2022C11.3149 18.0076 11.4865 17.8471 11.689 17.7348C11.8916 17.6225 12.1187 17.562 12.3502 17.5586H21.9502C22.6118 16.1051 22.9475 14.5245 22.9337 12.9275C22.9199 11.3306 22.5569 9.75601 21.8702 8.31418L21.7671 8.0973C20.9527 6.44874 19.7468 5.02481 18.2549 3.95003C16.763 2.87526 15.0305 2.18237 13.2089 1.93196C13.037 1.89121 12.8611 1.86974 12.6844 1.86796C12.3555 1.83774 12.0231 1.81641 11.6871 1.81641C11.3049 1.81641 10.9209 1.83596 10.5404 1.8733C10.3339 1.88411 10.129 1.91568 9.92887 1.96752C8.15476 2.25281 6.47466 2.9584 5.02884 4.02537C3.58301 5.09234 2.41344 6.48973 1.61776 8.10085H1.59998V8.12396C0.807402 9.7282 0.410733 11.499 0.443188 13.288C0.475642 15.0771 0.936276 16.8323 1.78651 18.4068C2.63675 19.9812 3.85185 21.329 5.33004 22.3373C6.80824 23.3456 8.50651 23.9851 10.2826 24.2022C10.3103 24.2107 10.3391 24.2149 10.368 24.2146C10.7885 24.2679 11.2117 24.2964 11.6355 24.3C11.4372 24.184 11.2702 24.0214 11.149 23.8262C11.0279 23.631 10.9563 23.4092 10.9404 23.18ZM21.1769 16.652H17.8809C18.2171 15.482 18.3965 14.2727 18.4142 13.0555C18.4123 11.7525 18.265 10.4538 17.9751 9.18352H21.0809C22.0708 11.5683 22.1051 14.2425 21.1769 16.652ZM20.5475 8.10085H17.6889C17.234 6.47295 16.4639 4.95021 15.4222 3.61907C17.5929 4.48294 19.4019 6.06478 20.5475 8.10085ZM12.2755 2.92752C12.496 2.93996 12.7164 2.95596 12.9351 2.98263C13.8487 3.55341 14.6403 4.29936 15.2642 5.17749C15.8882 6.05562 16.3322 7.04856 16.5706 8.09907H12.2755V2.92752ZM12.2755 9.18352H16.8711C17.1766 10.4527 17.33 11.7537 17.328 13.0591C17.3033 14.2784 17.1058 15.4881 16.7413 16.652H12.2755V9.18352ZM11.2 16.652H6.48353C6.11878 15.4882 5.92183 14.2784 5.89864 13.0591C5.89695 11.7538 6.04971 10.4529 6.35376 9.18352H11.2V16.652ZM10.2151 3.02174C10.5369 2.97374 10.8622 2.94352 11.1929 2.92752V8.10085H6.6542C7.14445 6.01317 8.4196 4.19435 10.2151 3.02174ZM7.7262 3.70441C6.72544 5.01842 5.98285 6.51024 5.53776 8.10085H2.82664C3.9311 6.13083 5.6572 4.58228 7.73509 3.6973L7.7262 3.70441ZM2.29864 9.18352H5.25509C4.9651 10.455 4.81782 11.7549 4.81598 13.0591C4.83373 14.275 5.01308 15.4833 5.34931 16.652H2.19731C1.27074 14.2418 1.30702 11.5676 2.29864 9.18352ZM2.67909 17.7382H5.68887C6.29177 19.542 7.22699 21.2171 8.4462 22.6768C5.96015 21.8337 3.89465 20.0649 2.67909 17.7382Z" fill="#B796F9"/>
<path d="M30.8906 18.3232H12.3502C11.983 18.3232 11.6853 18.6209 11.6853 18.9881V23.0912C11.6853 23.4585 11.983 23.7561 12.3502 23.7561H30.8906C31.2578 23.7561 31.5555 23.4585 31.5555 23.0912V18.9881C31.5555 18.6209 31.2578 18.3232 30.8906 18.3232Z" fill="url(#paint2_linear_855_8579)"/>
<path d="M29.6213 19.2725H28.8017C28.6181 19.2725 28.4693 19.4213 28.4693 19.6049V20.4245C28.4693 20.6081 28.6181 20.7569 28.8017 20.7569H29.6213C29.8049 20.7569 29.9537 20.6081 29.9537 20.4245V19.6049C29.9537 19.4213 29.8049 19.2725 29.6213 19.2725Z" fill="white"/>
<path opacity="0.6" d="M29.6213 21.3203H28.8017C28.6181 21.3203 28.4693 21.4692 28.4693 21.6528V22.4723C28.4693 22.6559 28.6181 22.8048 28.8017 22.8048H29.6213C29.8049 22.8048 29.9537 22.6559 29.9537 22.4723V21.6528C29.9537 21.4692 29.8049 21.3203 29.6213 21.3203Z" fill="white"/>
<defs>
<linearGradient id="paint0_linear_855_8579" x1="11.6871" y1="2.91992" x2="11.6871" y2="23.1368" gradientUnits="userSpaceOnUse">
<stop stop-color="#9D79EB"/>
<stop offset="1" stop-color="#7548D6"/>
</linearGradient>
<linearGradient id="paint1_linear_855_8579" x1="21.6409" y1="24.686" x2="21.6017" y2="30.2469" gradientUnits="userSpaceOnUse">
<stop stop-color="#3CD4C2"/>
<stop offset="1" stop-color="#37C2B1"/>
</linearGradient>
<linearGradient id="paint2_linear_855_8579" x1="21.6409" y1="18.2575" x2="21.6017" y2="23.8201" gradientUnits="userSpaceOnUse">
<stop stop-color="#3CD4C2"/>
<stop offset="1" stop-color="#37C2B1"/>
</linearGradient>
</defs>
</svg>
