<svg width="32" height="32" viewBox="0 0 32 32" fill="none" xmlns="http://www.w3.org/2000/svg">
<g clip-path="url(#clip0_855_8533)">
<path d="M21.6604 0.903118V14.0231L21.4827 14.1298L15.6338 17.5076C15.5457 17.5557 15.4686 17.6217 15.4074 17.7013C15.3462 17.7808 15.3022 17.8723 15.2782 17.9698V18.0053C15.2579 18.0626 15.2459 18.1225 15.2427 18.1831V26.5031H0.913778C0.672984 26.5041 0.441625 26.4096 0.27036 26.2403C0.0990947 26.071 0.00187935 25.8408 0 25.6V0.903118C0.00187935 0.66233 0.0990947 0.432096 0.27036 0.26283C0.441625 0.0935645 0.672984 -0.00094088 0.913778 7.06303e-06H20.7538C20.9933 0.000935564 21.2229 0.0962705 21.3926 0.265335C21.5623 0.434399 21.6586 0.663561 21.6604 0.903118Z" fill="url(#paint0_linear_855_8533)"/>
<path opacity="0.8" d="M2.74313 4.63086H5.15557C5.27533 4.63086 5.39019 4.67843 5.47487 4.76312C5.55955 4.8478 5.60713 4.96265 5.60713 5.08241V6.84597C5.60713 6.90527 5.59545 6.96399 5.57276 7.01877C5.55006 7.07356 5.5168 7.12334 5.47487 7.16527C5.43294 7.2072 5.38316 7.24046 5.32838 7.26315C5.27359 7.28585 5.21487 7.29753 5.15557 7.29753H2.74313C2.6232 7.29753 2.50817 7.25001 2.4232 7.16538C2.33823 7.08074 2.29027 6.96589 2.28979 6.84597V5.08241C2.29027 4.96249 2.33823 4.84764 2.4232 4.76301C2.50817 4.67838 2.6232 4.63086 2.74313 4.63086ZM2.31113 9.98197V11.7455C2.3116 11.8654 2.35957 11.9803 2.44453 12.0649C2.5295 12.1496 2.64454 12.1971 2.76446 12.1971H5.18757C5.30733 12.1971 5.42219 12.1495 5.50687 12.0648C5.59155 11.9801 5.63913 11.8653 5.63913 11.7455V9.98197C5.63913 9.86221 5.59155 9.74736 5.50687 9.66267C5.42219 9.57799 5.30733 9.53042 5.18757 9.53042H2.75557C2.6372 9.53274 2.52442 9.58128 2.44137 9.66566C2.35832 9.75004 2.31157 9.86357 2.31113 9.98197Z" fill="white"/>
<path d="M8.32711 4.63086H18.8587C18.9784 4.63086 19.0933 4.67843 19.178 4.76312C19.2626 4.8478 19.3102 4.96265 19.3102 5.08241V6.84597C19.3102 6.90527 19.2985 6.96399 19.2759 7.01877C19.2532 7.07356 19.2199 7.12334 19.178 7.16527C19.136 7.2072 19.0863 7.24046 19.0315 7.26315C18.9767 7.28585 18.918 7.29753 18.8587 7.29753H8.32711C8.20719 7.29753 8.09215 7.25001 8.00718 7.16538C7.92222 7.08074 7.87425 6.96589 7.87378 6.84597V5.08241C7.87425 4.96249 7.92222 4.84764 8.00718 4.76301C8.09215 4.67838 8.20719 4.63086 8.32711 4.63086ZM7.87378 9.98197V11.7455C7.87425 11.8654 7.92222 11.9803 8.00718 12.0649C8.09215 12.1496 8.20719 12.1971 8.32711 12.1971H18.9173C19.0373 12.1971 19.1523 12.1496 19.2373 12.0649C19.3222 11.9803 19.3702 11.8654 19.3707 11.7455V9.98197C19.3702 9.86205 19.3222 9.7472 19.2373 9.66256C19.1523 9.57793 19.0373 9.53041 18.9173 9.53042H8.32711C8.20719 9.53041 8.09215 9.57793 8.00718 9.66256C7.92222 9.7472 7.87425 9.86205 7.87378 9.98197Z" fill="white"/>
<path d="M32 18.1514V27.3887L24.0089 32.0003L24.0018 31.986V22.7558L32 18.1514Z" fill="#50E6FF"/>
<path d="M32 18.1509L24.0018 22.7553L16.0231 18.1669L16.0071 18.1989V27.3491L16 27.3562V18.1847L16.0071 18.1509L24.0089 13.5322L32 18.1509Z" fill="#C3F1FF"/>
<path d="M24.0017 22.7554V31.9857L16.0071 27.3812V18.199L16.0231 18.167L24.0017 22.7554Z" fill="#9CEBFF"/>
<path d="M24.384 12.8818L24.2596 12.832C24.2809 12.832 24.3058 12.848 24.3271 12.8551C24.3485 12.8623 24.3645 12.8729 24.384 12.8818Z" fill="white"/>
<path d="M21.6604 0.903118V14.0231L21.4827 14.1298L15.6338 17.5076C15.5457 17.5557 15.4686 17.6217 15.4074 17.7013C15.3462 17.7808 15.3022 17.8723 15.2782 17.9698V18.0053C15.2579 18.0626 15.2459 18.1225 15.2427 18.1831V26.5031H0.913778C0.672984 26.5041 0.441625 26.4096 0.27036 26.2403C0.0990947 26.071 0.00187935 25.8408 0 25.6V0.903118C0.00187935 0.66233 0.0990947 0.432096 0.27036 0.26283C0.441625 0.0935645 0.672984 -0.00094088 0.913778 7.06303e-06H20.7538C20.9933 0.000935564 21.2229 0.0962705 21.3926 0.265335C21.5623 0.434399 21.6586 0.663561 21.6604 0.903118Z" fill="url(#paint1_linear_855_8533)"/>
<path opacity="0.8" d="M2.74313 4.63086H5.15557C5.27533 4.63086 5.39019 4.67843 5.47487 4.76312C5.55955 4.8478 5.60713 4.96265 5.60713 5.08241V6.84597C5.60713 6.90527 5.59545 6.96399 5.57276 7.01877C5.55006 7.07356 5.5168 7.12334 5.47487 7.16527C5.43294 7.2072 5.38316 7.24046 5.32838 7.26315C5.27359 7.28585 5.21487 7.29753 5.15557 7.29753H2.74313C2.6232 7.29753 2.50817 7.25001 2.4232 7.16538C2.33823 7.08074 2.29027 6.96589 2.28979 6.84597V5.08241C2.29027 4.96249 2.33823 4.84764 2.4232 4.76301C2.50817 4.67838 2.6232 4.63086 2.74313 4.63086ZM2.31113 9.98197V11.7455C2.3116 11.8654 2.35957 11.9803 2.44453 12.0649C2.5295 12.1496 2.64454 12.1971 2.76446 12.1971H5.18757C5.30733 12.1971 5.42219 12.1495 5.50687 12.0648C5.59155 11.9801 5.63913 11.8653 5.63913 11.7455V9.98197C5.63913 9.86221 5.59155 9.74736 5.50687 9.66267C5.42219 9.57799 5.30733 9.53042 5.18757 9.53042H2.75557C2.6372 9.53274 2.52442 9.58128 2.44137 9.66566C2.35832 9.75004 2.31157 9.86357 2.31113 9.98197Z" fill="white"/>
<path d="M8.32711 4.63086H18.8587C18.9784 4.63086 19.0933 4.67843 19.178 4.76312C19.2626 4.8478 19.3102 4.96265 19.3102 5.08241V6.84597C19.3102 6.90527 19.2985 6.96399 19.2759 7.01877C19.2532 7.07356 19.2199 7.12334 19.178 7.16527C19.136 7.2072 19.0863 7.24046 19.0315 7.26315C18.9767 7.28585 18.918 7.29753 18.8587 7.29753H8.32711C8.20719 7.29753 8.09215 7.25001 8.00718 7.16538C7.92222 7.08074 7.87425 6.96589 7.87378 6.84597V5.08241C7.87425 4.96249 7.92222 4.84764 8.00718 4.76301C8.09215 4.67838 8.20719 4.63086 8.32711 4.63086ZM7.87378 9.98197V11.7455C7.87425 11.8654 7.92222 11.9803 8.00718 12.0649C8.09215 12.1496 8.20719 12.1971 8.32711 12.1971H18.9173C19.0373 12.1971 19.1523 12.1496 19.2373 12.0649C19.3222 11.9803 19.3702 11.8654 19.3707 11.7455V9.98197C19.3702 9.86205 19.3222 9.7472 19.2373 9.66256C19.1523 9.57793 19.0373 9.53041 18.9173 9.53042H8.32711C8.20719 9.53041 8.09215 9.57793 8.00718 9.66256C7.92222 9.7472 7.87425 9.86205 7.87378 9.98197Z" fill="white"/>
<path d="M24.384 12.8818L24.2596 12.832C24.2809 12.832 24.3058 12.848 24.3271 12.8551C24.3485 12.8623 24.3645 12.8729 24.384 12.8818Z" fill="white"/>
<path opacity="0.5" d="M29.1378 16.4957L21.36 21.2335L21.3511 22.7375C21.3509 22.7526 21.3477 22.7675 21.3416 22.7813C21.3356 22.7952 21.3268 22.8076 21.3159 22.8181C21.305 22.8285 21.2921 22.8366 21.278 22.842C21.2639 22.8474 21.2489 22.85 21.2338 22.8495C21.2011 22.847 21.1703 22.8332 21.1467 22.8104L20.1138 21.5784C20.1001 21.5633 20.0828 21.5519 20.0635 21.5453C20.0442 21.5388 20.0236 21.5373 20.0036 21.541L19.0418 21.7437C19.0273 21.7479 19.012 21.749 18.9971 21.7469C18.9821 21.7448 18.9678 21.7396 18.955 21.7315C18.9422 21.7234 18.9313 21.7127 18.923 21.7001C18.9147 21.6875 18.9091 21.6733 18.9067 21.6584C18.9049 21.6545 18.904 21.6502 18.904 21.6459C18.904 21.6416 18.9049 21.6374 18.9067 21.6335V19.8219L26.7022 15.0859H26.7111L29.1378 16.4957Z" fill="white"/>
</g>
<defs>
<linearGradient id="paint0_linear_855_8533" x1="10.8338" y1="27.0453" x2="10.8338" y2="0.538674" gradientUnits="userSpaceOnUse">
<stop stop-color="#0078D4"/>
<stop offset="1" stop-color="#5EA0EF"/>
</linearGradient>
<linearGradient id="paint1_linear_855_8533" x1="10.8338" y1="27.0453" x2="10.8338" y2="0.538674" gradientUnits="userSpaceOnUse">
<stop stop-color="#0078D4"/>
<stop offset="1" stop-color="#5EA0EF"/>
</linearGradient>
<clipPath id="clip0_855_8533">
<rect width="32" height="32" fill="white"/>
</clipPath>
</defs>
</svg>
