<svg width="32" height="32" viewBox="0 0 32 32" fill="none" xmlns="http://www.w3.org/2000/svg">
<g clip-path="url(#clip0_855_8578)">
<path d="M16.3413 31.3528C16.1382 31.3432 15.9467 31.2557 15.8063 31.1086C15.666 30.9614 15.5877 30.7659 15.5877 30.5626C15.5877 30.3592 15.666 30.1637 15.8063 30.0166C15.9467 29.8694 16.1382 29.782 16.3413 29.7723C19.1153 29.7454 21.8192 28.8976 24.1119 27.3358C26.4046 25.774 28.1835 23.5682 29.224 20.9966C30.2646 18.4251 30.5203 15.6029 29.9589 12.8862C29.3974 10.1695 28.044 7.6799 26.0693 5.73146C24.0886 3.78917 21.5771 2.47696 18.8515 1.96036C16.1259 1.44376 13.3084 1.74591 10.7543 2.8287C8.20027 3.91148 6.02407 5.72639 4.50025 8.0445C2.97643 10.3626 2.17324 13.0801 2.192 15.8541C2.19785 15.961 2.18195 16.0679 2.14529 16.1684C2.10862 16.2689 2.05194 16.361 1.97868 16.439C1.90542 16.517 1.81709 16.5793 1.71906 16.6221C1.62102 16.665 1.5153 16.6876 1.4083 16.6884C1.3013 16.6892 1.19524 16.6684 1.09654 16.627C0.997842 16.5857 0.90855 16.5248 0.834069 16.448C0.759588 16.3712 0.701467 16.28 0.663221 16.1801C0.624976 16.0801 0.607401 15.9735 0.61156 15.8666C0.586148 12.7782 1.47706 9.75174 3.17165 7.16974C4.86623 4.58774 7.28839 2.5662 10.1318 1.36073C12.9753 0.155268 16.1123 -0.179983 19.1463 0.397373C22.1803 0.974728 24.9749 2.43876 27.1769 4.60435C29.3788 6.77015 30.889 9.54025 31.5165 12.5643C32.1441 15.5884 31.8608 18.7307 30.7025 21.5938C29.5442 24.4569 27.5629 26.9122 25.0092 28.6493C22.4555 30.3864 19.444 31.3272 16.3556 31.3528H16.3413Z" fill="#E6E6E6"/>
<path opacity="0.51" d="M7.48802 31.8759C5.71697 31.8267 4.01967 31.1561 2.69328 29.9815C1.36689 28.8069 0.495936 27.2031 0.232905 25.451C0.179325 25.0814 0.154953 24.7081 0.160016 24.3346C0.17246 23.835 0.414238 23.5346 0.805349 23.5275C1.19646 23.5204 1.51646 23.8172 1.51646 24.3292C1.48894 25.2035 1.65973 26.0726 2.01602 26.8715C2.43452 27.8632 3.1116 28.7245 3.97657 29.3652C4.84155 30.006 5.86268 30.4028 6.93335 30.5141C7.21957 30.5515 7.51113 30.5675 7.79913 30.5817C8.26313 30.603 8.51024 30.8128 8.51024 31.2146C8.51024 31.6164 8.26135 31.851 7.81868 31.8759C7.70846 31.8812 7.59824 31.8759 7.48802 31.8759Z" fill="#B3B3B3"/>
<path opacity="0.51" d="M7.55202 29.3923C6.89542 29.3782 6.24804 29.2347 5.64695 28.9701C5.04587 28.7055 4.50289 28.3249 4.04909 27.8501C3.5953 27.3754 3.23962 26.8158 3.0024 26.2033C2.76519 25.5909 2.65111 24.9377 2.66669 24.2811C2.67158 24.1156 2.69726 23.9514 2.74313 23.7923C2.78011 23.6646 2.85896 23.5531 2.96698 23.4757C3.07501 23.3983 3.20594 23.3595 3.33869 23.3656C3.47094 23.3539 3.60329 23.3868 3.71474 23.4589C3.82618 23.5311 3.91033 23.6384 3.9538 23.7638C4.02053 23.9756 4.04351 24.1988 4.02136 24.4198C4.03205 25.3759 4.41771 26.2896 5.09532 26.9642C5.77293 27.6389 6.68832 28.0205 7.64447 28.0269C7.78263 28.0215 7.92099 28.0251 8.05869 28.0376C8.23928 28.0586 8.40449 28.1494 8.51908 28.2906C8.63367 28.4317 8.68855 28.6121 8.67202 28.7931C8.66937 28.8765 8.6499 28.9584 8.6148 29.034C8.57969 29.1096 8.52967 29.1773 8.46774 29.2331C8.40581 29.2889 8.33324 29.3316 8.25439 29.3586C8.17555 29.3857 8.09205 29.3965 8.00891 29.3905C7.8578 29.3976 7.70491 29.3923 7.55202 29.3923Z" fill="#B3B3B3"/>
<path d="M28.4414 20.5206L11.6305 3.70972C11.2903 3.36953 10.7387 3.36953 10.3986 3.70972L7.17918 6.9291C6.83899 7.26929 6.83899 7.82084 7.17918 8.16103L23.9901 24.9719C24.3303 25.3121 24.8818 25.3121 25.222 24.9719L28.4414 21.7526C28.7816 21.4124 28.7816 20.8608 28.4414 20.5206Z" fill="url(#paint0_linear_855_8578)"/>
<path d="M11.5778 21.6114L10.4439 20.4775L8.0718 22.8496L9.20569 23.9835L11.5778 21.6114Z" fill="#005BA1"/>
<path d="M7.47022 26.6023C8.58363 26.6023 9.48622 25.6997 9.48622 24.5863C9.48622 23.4729 8.58363 22.5703 7.47022 22.5703C6.35682 22.5703 5.45422 23.4729 5.45422 24.5863C5.45422 25.6997 6.35682 26.6023 7.47022 26.6023Z" fill="url(#paint1_linear_855_8578)"/>
<path d="M18.4855 19.4629L12.5948 13.5723L11.4282 14.7388L17.3189 20.6295L18.4855 19.4629Z" fill="#005BA1"/>
<path d="M21.5148 7.44412L24.6135 10.5428C24.6898 10.6192 24.7327 10.7227 24.7327 10.8307C24.7327 10.9387 24.6898 11.0422 24.6135 11.1186L22.8259 12.9061L19.1515 9.23169L20.9391 7.44412C21.0154 7.36777 21.119 7.32488 21.2269 7.32488C21.3349 7.32488 21.4385 7.36777 21.5148 7.44412Z" fill="#005BA1"/>
<path d="M18.7621 8.84074L23.216 13.2946C23.408 13.4866 23.5159 13.7471 23.5159 14.0186C23.5159 14.2902 23.408 14.5507 23.216 14.7427L18.4818 19.4769L12.5735 13.5686L17.3077 8.83446C17.4033 8.73883 17.5169 8.6631 17.642 8.61162C17.767 8.56014 17.901 8.53393 18.0362 8.53452C18.1714 8.5351 18.3052 8.56246 18.4298 8.61502C18.5544 8.66758 18.6673 8.7443 18.7621 8.84074Z" fill="#50E6FF"/>
<path d="M13.7333 25.3778L6.67201 18.3378C6.50482 18.1664 6.38446 17.9549 6.32248 17.7237C6.2605 17.4925 6.25897 17.2492 6.31805 17.0172C6.37712 16.7852 6.49481 16.5722 6.65983 16.3988C6.82485 16.2253 7.03167 16.0972 7.26045 16.0266L11.5271 14.6631L17.4365 20.5724L16.0356 24.7982C15.9628 25.0243 15.8338 25.2281 15.6605 25.3905C15.4873 25.5529 15.2755 25.6686 15.0452 25.7266C14.8149 25.7845 14.5736 25.7829 14.3441 25.7219C14.1146 25.6609 13.9044 25.5425 13.7333 25.3778Z" fill="url(#paint2_linear_855_8578)"/>
</g>
<defs>
<linearGradient id="paint0_linear_855_8578" x1="22.4777" y1="9.96653" x2="15.8442" y2="16.6" gradientUnits="userSpaceOnUse">
<stop offset="0.302" stop-color="#0078D4"/>
<stop offset="1" stop-color="#005BA1"/>
</linearGradient>
<linearGradient id="paint1_linear_855_8578" x1="9.39964" y1="22.6574" x2="5.77674" y2="26.2803" gradientUnits="userSpaceOnUse">
<stop stop-color="#9CEBFF"/>
<stop offset="1" stop-color="#50E6FF"/>
</linearGradient>
<linearGradient id="paint2_linear_855_8578" x1="15.4475" y1="16.61" x2="10.0948" y2="21.9626" gradientUnits="userSpaceOnUse">
<stop stop-color="#5EA0EF"/>
<stop offset="1" stop-color="#0078D4"/>
</linearGradient>
<clipPath id="clip0_855_8578">
<rect width="32" height="32" fill="white"/>
</clipPath>
</defs>
</svg>
