<svg width="32" height="32" viewBox="0 0 32 32" fill="none" xmlns="http://www.w3.org/2000/svg">
<g clip-path="url(#clip0_855_8506)">
<path d="M16 31.1109C24.3457 31.1109 31.1111 24.3454 31.1111 15.9998C31.1111 7.65415 24.3457 0.888672 16 0.888672C7.65439 0.888672 0.888916 7.65415 0.888916 15.9998C0.888916 24.3454 7.65439 31.1109 16 31.1109Z" fill="url(#paint0_radial_855_8506)"/>
<path d="M16 29.0146C23.1881 29.0146 29.0151 23.1875 29.0151 15.9995C29.0151 8.81144 23.1881 2.98438 16 2.98438C8.81199 2.98438 2.98492 8.81144 2.98492 15.9995C2.98492 23.1875 8.81199 29.0146 16 29.0146Z" fill="#005BA1"/>
<path d="M16.1778 17.6662L11.1396 12.6671C10.9712 12.5024 10.7449 12.4102 10.5094 12.4102C10.2738 12.4102 10.0476 12.5024 9.87914 12.6671L9.24448 13.2982C9.1641 13.3759 9.10017 13.469 9.0565 13.572C9.01282 13.6749 8.99029 13.7855 8.99025 13.8973C8.99006 14.0094 9.01211 14.1204 9.05514 14.2238C9.09817 14.3273 9.16132 14.4211 9.24092 14.5L13.0311 18.2724L9.15914 22.1178C9.07916 22.1961 9.01561 22.2896 8.97222 22.3927C8.92884 22.4959 8.90649 22.6067 8.90649 22.7187C8.90649 22.8306 8.92884 22.9414 8.97222 23.0446C9.01561 23.1478 9.07916 23.2413 9.15914 23.3196L9.80092 23.9507C9.96934 24.1154 10.1956 24.2076 10.4311 24.2076C10.6667 24.2076 10.8929 24.1154 11.0614 23.9507L16.1778 18.8662C16.2573 18.7876 16.3204 18.6941 16.3634 18.5909C16.4064 18.4878 16.4285 18.3771 16.4285 18.2653C16.429 18.1538 16.4071 18.0432 16.364 17.9403C16.321 17.8374 16.2576 17.7442 16.1778 17.6662Z" fill="#F2F2F2"/>
<path d="M15.5645 13.6499C15.5644 13.7617 15.5865 13.8724 15.6295 13.9755C15.6726 14.0786 15.7357 14.1722 15.8151 14.2508L20.9351 19.3335C21.1035 19.4982 21.3298 19.5904 21.5653 19.5904C21.8009 19.5904 22.0271 19.4982 22.1956 19.3335L22.8373 18.7006C22.9177 18.6229 22.9816 18.5298 23.0253 18.4269C23.069 18.3239 23.0915 18.2133 23.0916 18.1015C23.0916 17.9897 23.0695 17.8791 23.0265 17.7759C22.9834 17.6728 22.9204 17.5792 22.8409 17.5006L18.976 13.657L22.7662 9.88281C22.8457 9.80423 22.9088 9.71065 22.9518 9.6075C22.9948 9.50435 23.017 9.39369 23.0169 9.28193C23.0169 9.17012 22.9943 9.05946 22.9507 8.95654C22.907 8.85362 22.8431 8.76053 22.7627 8.68281L22.1209 8.04993C21.9525 7.8852 21.7263 7.79297 21.4907 7.79297C21.2551 7.79297 21.0289 7.8852 20.8605 8.04993L15.8222 13.049C15.7412 13.1268 15.6767 13.2201 15.6324 13.3233C15.5881 13.4266 15.565 13.5376 15.5645 13.6499Z" fill="#F2F2F2"/>
</g>
<defs>
<radialGradient id="paint0_radial_855_8506" cx="0" cy="0" r="1" gradientUnits="userSpaceOnUse" gradientTransform="translate(16 15.9998) scale(15.1111)">
<stop stop-color="#198AB3"/>
<stop offset="0.382" stop-color="#1A8CB5"/>
<stop offset="0.576" stop-color="#1C94BC"/>
<stop offset="0.727" stop-color="#21A1C8"/>
<stop offset="0.856" stop-color="#27B4D8"/>
<stop offset="0.97" stop-color="#2FCCEE"/>
<stop offset="1" stop-color="#32D4F5"/>
</radialGradient>
<clipPath id="clip0_855_8506">
<rect width="32" height="32" fill="white"/>
</clipPath>
</defs>
</svg>
