<svg width="32" height="32" viewBox="0 0 32 32" fill="none" xmlns="http://www.w3.org/2000/svg">
<path d="M32 20.2363C31.9361 21.989 31.2413 23.6597 30.0435 24.9409C28.8456 26.222 27.2254 27.0274 25.4809 27.2087C25.2482 27.2329 25.0144 27.2454 24.7804 27.2461C24.6556 27.2826 24.5265 27.3023 24.3964 27.3047H9.80622C9.56089 27.3261 9.29956 27.3385 9.04 27.3385H9.01333C6.71047 27.4231 4.46811 26.5907 2.77831 25.0239C1.08852 23.4571 0.0893233 21.2839 0 18.9812C0.0601255 16.9287 0.854658 14.966 2.23919 13.4497C3.62372 11.9333 5.50634 10.9641 7.54489 10.7181C8.21577 8.91156 9.43161 7.35825 11.0241 6.27311C12.6166 5.18798 14.5071 4.62468 16.4338 4.66119C18.8161 4.59075 21.1303 5.46118 22.8757 7.08414C24.6211 8.7071 25.6573 10.952 25.76 13.3332C27.4499 13.5567 29.0052 14.3737 30.1483 15.6383C31.2914 16.9028 31.9477 18.5325 32 20.2363Z" fill="url(#paint0_linear_855_8540)"/>
<path d="M20.3396 16.4959H18.0373C18.0023 16.4959 17.9676 16.5028 17.9353 16.5162C17.9029 16.5296 17.8735 16.5492 17.8488 16.574C17.824 16.5987 17.8044 16.6281 17.791 16.6605C17.7776 16.6928 17.7707 16.7275 17.7707 16.7625V27.3048H14.2222V16.7625C14.2222 16.7275 14.2153 16.6928 14.2019 16.6605C14.1885 16.6281 14.1689 16.5987 14.1441 16.574C14.1194 16.5492 14.09 16.5296 14.0576 16.5162C14.0252 16.5028 13.9906 16.4959 13.9556 16.4959H11.6622C11.6112 16.4957 11.5614 16.4809 11.5185 16.4532C11.4757 16.4255 11.4417 16.3862 11.4205 16.3398C11.3994 16.2934 11.392 16.2419 11.3992 16.1914C11.4065 16.1409 11.428 16.0936 11.4613 16.055L15.7973 11.0221C15.8225 10.9931 15.8537 10.9698 15.8886 10.9539C15.9236 10.9379 15.9616 10.9297 16 10.9297C16.0384 10.9297 16.0764 10.9379 16.1114 10.9539C16.1463 10.9698 16.1775 10.9931 16.2027 11.0221L20.5422 16.0479C20.5779 16.0864 20.6015 16.1345 20.61 16.1864C20.6184 16.2382 20.6114 16.2914 20.5897 16.3392C20.5681 16.3871 20.5328 16.4275 20.4883 16.4553C20.4438 16.4832 20.392 16.4973 20.3396 16.4959Z" fill="url(#paint1_linear_855_8540)"/>
<path opacity="0.9" d="M24.0178 17.232L21.0987 20.6098C21.0652 20.6485 21.0437 20.696 21.0365 20.7467C21.0293 20.7973 21.0369 20.8489 21.0583 20.8954C21.0796 20.9419 21.1139 20.9812 21.157 21.0088C21.2001 21.0363 21.2502 21.0508 21.3013 21.0507H22.6933C22.7642 21.0512 22.832 21.0797 22.882 21.1299C22.932 21.1802 22.96 21.2482 22.96 21.3191V27.3031H24.3964C24.5265 27.3007 24.6556 27.281 24.7804 27.2445C25.0144 27.2438 25.2482 27.2313 25.4809 27.2071V21.3209C25.4809 21.25 25.5089 21.182 25.5589 21.1317C25.6088 21.0814 25.6767 21.0529 25.7475 21.0525H27.1395C27.1907 21.0526 27.2408 21.0381 27.2839 21.0105C27.327 20.983 27.3613 20.9436 27.3826 20.8972C27.404 20.8507 27.4115 20.7991 27.4044 20.7484C27.3972 20.6978 27.3756 20.6503 27.3422 20.6116L24.4231 17.2338C24.3982 17.2044 24.3672 17.1808 24.3323 17.1645C24.2974 17.1482 24.2594 17.1397 24.2208 17.1396C24.1823 17.1394 24.1442 17.1476 24.1092 17.1635C24.0741 17.1795 24.0429 17.2029 24.0178 17.232ZM7.57688 17.232L4.65777 20.6098C4.62436 20.6485 4.60278 20.696 4.59562 20.7467C4.58845 20.7973 4.596 20.8489 4.61736 20.8954C4.63872 20.9419 4.67299 20.9812 4.71609 21.0088C4.75919 21.0363 4.80929 21.0508 4.86044 21.0507H6.25244C6.32332 21.0512 6.39115 21.0797 6.44111 21.1299C6.49107 21.1802 6.5191 21.2482 6.5191 21.3191V27.0667C7.33139 27.2761 8.16968 27.3671 9.00799 27.3369H9.03466V21.3209C9.03466 21.25 9.06269 21.182 9.11265 21.1317C9.16261 21.0814 9.23044 21.0529 9.30132 21.0525H10.6933C10.7445 21.0526 10.7946 21.0381 10.8377 21.0105C10.8808 20.983 10.915 20.9436 10.9364 20.8972C10.9578 20.8507 10.9653 20.7991 10.9581 20.7484C10.951 20.6978 10.9294 20.6503 10.896 20.6116L7.98221 17.232C7.95718 17.2028 7.9261 17.1792 7.89111 17.1631C7.85613 17.147 7.81807 17.1387 7.77955 17.1387C7.74103 17.1387 7.70297 17.147 7.66798 17.1631C7.63299 17.1792 7.60192 17.2028 7.57688 17.232Z" fill="url(#paint2_linear_855_8540)"/>
<defs>
<linearGradient id="paint0_linear_855_8540" x1="16" y1="4.65586" x2="16" y2="27.3439" gradientUnits="userSpaceOnUse">
<stop stop-color="#5EA0EF"/>
<stop offset="1" stop-color="#0078D4"/>
</linearGradient>
<linearGradient id="paint1_linear_855_8540" x1="16.0018" y1="10.9688" x2="16.0018" y2="27.4808" gradientUnits="userSpaceOnUse">
<stop offset="0.33" stop-color="#B4EC36"/>
<stop offset="1" stop-color="#86D633"/>
</linearGradient>
<linearGradient id="paint2_linear_855_8540" x1="16" y1="17.1591" x2="16" y2="27.4525" gradientUnits="userSpaceOnUse">
<stop offset="0.429" stop-color="#86D633"/>
<stop offset="0.999" stop-color="#76BC2D"/>
</linearGradient>
</defs>
</svg>
