<svg width="32" height="32" viewBox="0 0 32 32" fill="none" xmlns="http://www.w3.org/2000/svg">
<g clip-path="url(#clip0_855_8525)">
<path d="M27.5929 1.08301H1.35289C0.605709 1.08301 0 1.68872 0 2.4359V24.0466C0 24.7937 0.605709 25.3995 1.35289 25.3995H27.5929C28.3401 25.3995 28.9458 24.7937 28.9458 24.0466V2.4359C28.9458 1.68872 28.3401 1.08301 27.5929 1.08301Z" fill="url(#paint0_linear_855_8525)"/>
<path d="M11.5983 11.4948C12.7087 11.4948 13.6089 10.5898 13.6089 9.47348C13.6089 8.35713 12.7087 7.45215 11.5983 7.45215C10.4878 7.45215 9.58759 8.35713 9.58759 9.47348C9.58759 10.5898 10.4878 11.4948 11.5983 11.4948Z" fill="white"/>
<path d="M17.1716 15.2839C18.282 15.2839 19.1822 14.3789 19.1822 13.2625C19.1822 12.1462 18.282 11.2412 17.1716 11.2412C16.0611 11.2412 15.1609 12.1462 15.1609 13.2625C15.1609 14.3789 16.0611 15.2839 17.1716 15.2839Z" fill="white"/>
<path d="M22.5689 8.10517C23.6794 8.10517 24.5796 7.20018 24.5796 6.08383C24.5796 4.96748 23.6794 4.0625 22.5689 4.0625C21.4584 4.0625 20.5582 4.96748 20.5582 6.08383C20.5582 7.20018 21.4584 8.10517 22.5689 8.10517Z" fill="white"/>
<path d="M6.37688 18.9294C7.48734 18.9294 8.38754 18.0244 8.38754 16.9081C8.38754 15.7917 7.48734 14.8867 6.37688 14.8867C5.26642 14.8867 4.36621 15.7917 4.36621 16.9081C4.36621 18.0244 5.26642 18.9294 6.37688 18.9294Z" fill="white"/>
<path d="M7.10401 17.4183L5.64801 16.3978L11.3742 8.24847L16.9707 12.0494L21.8596 5.5498L23.28 6.61825L17.3742 14.4725L11.8222 10.7018L7.10401 17.4183Z" fill="white"/>
<path d="M12.3218 30.3859C11.7716 30.3854 11.2439 30.1667 10.8547 29.7778C10.4654 29.3889 10.2463 28.8615 10.2454 28.3112C10.6009 21.3974 14.7591 17.001 20.8658 17.001C26.9725 17.001 31.1591 21.3974 31.4862 28.201C31.4999 28.4739 31.4596 28.7469 31.3677 29.0042C31.2758 29.2616 31.1341 29.4983 30.9507 29.7009C30.7673 29.9035 30.5457 30.0679 30.2987 30.1849C30.0517 30.3018 29.7841 30.3689 29.5111 30.3823H12.32L12.3218 30.3859Z" fill="white"/>
<path d="M20.8658 17.5115C26.9582 17.5115 30.6791 22.043 30.976 28.2297C30.9863 28.4352 30.956 28.6406 30.8869 28.8344C30.8178 29.0281 30.7112 29.2064 30.5731 29.3589C30.4351 29.5114 30.2684 29.6353 30.0825 29.7234C29.8966 29.8115 29.6952 29.8621 29.4898 29.8724H12.3218C12.1162 29.8726 11.9125 29.8323 11.7225 29.7538C11.5325 29.6753 11.3598 29.5601 11.2144 29.4148C11.0689 29.2695 10.9535 29.0969 10.8748 28.907C10.7961 28.7171 10.7555 28.5135 10.7555 28.3079C10.7555 28.2813 10.7555 28.2546 10.7555 28.2261C11.0702 22.0448 14.784 17.5115 20.8658 17.5115ZM20.8658 16.4893C14.4658 16.4893 10.096 21.0777 9.73688 28.1764V28.3115C9.73876 28.9971 10.0122 29.654 10.4973 30.1385C10.9824 30.6229 11.6397 30.8954 12.3253 30.8964H29.4382H29.5431C29.8829 30.8793 30.2161 30.7954 30.5235 30.6496C30.8309 30.5037 31.1065 30.2987 31.3347 30.0463C31.5629 29.7938 31.739 29.4989 31.8532 29.1784C31.9674 28.8579 32.0172 28.518 32 28.1781C31.664 21.1879 27.1911 16.4893 20.8693 16.4893H20.8658Z" fill="#0078D4"/>
<path d="M25.5431 21.8173C24.3711 20.7626 22.8811 20.1283 21.3085 20.0146V23.3053C22.0285 23.3992 22.7088 23.6895 23.2747 24.1444L25.5431 21.8173Z" fill="#50E6FF"/>
<path d="M16.0782 21.8173L18.3467 24.1444C18.9126 23.6895 19.5929 23.3992 20.3129 23.3053V20.0146C18.7404 20.1287 17.2505 20.7629 16.0782 21.8173Z" fill="#50E6FF"/>
<path d="M24 24.8769C24.4477 25.4655 24.7311 26.1625 24.8213 26.8965H28.0213C27.9144 25.2977 27.2996 23.7748 26.2667 22.5498L24 24.8769Z" fill="#32BEDD"/>
<path d="M17.6302 24.8769L15.3618 22.5498C14.3286 23.7745 13.7144 25.2977 13.6089 26.8965H16.8089C16.8993 26.1625 17.1827 25.4656 17.6302 24.8769Z" fill="#50E6FF"/>
<path d="M26.2631 24.0461C26.2064 23.9226 26.1154 23.8179 26.0011 23.7445C25.8867 23.6711 25.7537 23.632 25.6178 23.6318C25.515 23.632 25.4136 23.655 25.3209 23.6994L20.3929 26.0105L20.9867 27.3012L25.92 24.9901C26.0905 24.9102 26.2224 24.766 26.2867 24.589C26.351 24.412 26.3425 24.2168 26.2631 24.0461Z" fill="#E62323"/>
<path d="M20.8658 28.2973C21.8025 28.2973 22.5618 27.5379 22.5618 26.6013C22.5618 25.6646 21.8025 24.9053 20.8658 24.9053C19.9291 24.9053 19.1698 25.6646 19.1698 26.6013C19.1698 27.5379 19.9291 28.2973 20.8658 28.2973Z" fill="#4F4F4F"/>
</g>
<defs>
<linearGradient id="paint0_linear_855_8525" x1="14.4729" y1="1.86345" x2="14.4729" y2="24.4288" gradientUnits="userSpaceOnUse">
<stop stop-color="#5EA0EF"/>
<stop offset="1" stop-color="#0078D4"/>
</linearGradient>
<clipPath id="clip0_855_8525">
<rect width="32" height="32" fill="white"/>
</clipPath>
</defs>
</svg>
