<svg width="32" height="32" viewBox="0 0 32 32" fill="none" xmlns="http://www.w3.org/2000/svg">
<g clip-path="url(#clip0_855_8558)">
<path d="M32 29.6639H0L5.92356 24.0657C6.11556 23.8844 6.36978 23.7812 6.63467 23.7812H26.0978C26.2453 23.7812 26.3911 23.815 26.5244 23.8755C26.6596 23.9377 26.7787 24.0266 26.8764 24.1368L32 29.6639Z" fill="url(#paint0_linear_855_8558)"/>
<path d="M0 29.6641H32V30.393C32 30.6685 31.8898 30.9352 31.6942 31.129C31.4987 31.3227 31.2338 31.4347 30.9582 31.4347H1.04178C0.766222 31.4347 0.501333 31.3245 0.305778 31.129C0.110222 30.9334 0 30.6685 0 30.393V29.6641Z" fill="#3CD4C2"/>
<path d="M30.9867 15.3206C30.9405 13.7223 30.3271 12.1935 29.2551 11.0077C28.1831 9.8219 26.7236 9.05745 25.1378 8.84945C25.0454 6.61656 24.0747 4.50812 22.4356 2.98812C20.7982 1.46634 18.624 0.653896 16.3911 0.725007C14.5885 0.694785 12.8214 1.22456 11.3316 2.23967C9.8418 3.25478 8.70224 4.70723 8.07113 6.39612C6.15469 6.61656 4.38224 7.51967 3.07736 8.94012C1.77247 10.3606 1.02047 12.2023 0.960022 14.1295C0.992022 15.2103 1.23736 16.2735 1.68358 17.2583C2.1298 18.2432 2.76447 19.1303 3.55558 19.8663C4.34491 20.6041 5.27469 21.1766 6.28802 21.5535C7.30135 21.9303 8.37869 22.101 9.45958 22.0583H24.2311C26.0142 22.0406 27.7191 21.3241 28.9814 20.0655C30.2436 18.8068 30.9636 17.1037 30.9867 15.3206Z" fill="url(#paint1_linear_855_8558)"/>
<path d="M11.3067 12.2096L16 7.60514C16.0498 7.55358 16.1084 7.51269 16.1742 7.48603C16.24 7.45758 16.3111 7.44336 16.3822 7.44336C16.4533 7.44336 16.5244 7.45758 16.5902 7.48603C16.656 7.51447 16.7147 7.55358 16.7644 7.60514L21.3333 12.2096C21.3724 12.2416 21.4009 12.286 21.4133 12.334C21.4258 12.3838 21.4204 12.4354 21.4009 12.4816C21.3813 12.5278 21.3458 12.5669 21.3013 12.5918C21.2569 12.6167 21.2053 12.6256 21.1555 12.6185H18.2755C18.2115 12.622 18.1493 12.6505 18.1049 12.6967C18.0587 12.7429 18.032 12.8034 18.0267 12.8674L17.9893 21.8843C17.9893 21.9358 17.968 21.9856 17.9324 22.0229C17.8951 22.0602 17.8453 22.0798 17.7938 22.0798H14.7004C14.6489 22.0798 14.5991 22.0585 14.5618 22.0229C14.5244 21.9856 14.5049 21.9358 14.5049 21.8843L14.5422 12.8674C14.5422 12.8051 14.5191 12.7429 14.4764 12.6967C14.4338 12.6505 14.3751 12.622 14.3111 12.6185H11.4667C11.4187 12.622 11.3707 12.6078 11.3298 12.5829C11.2889 12.558 11.2569 12.5189 11.2391 12.4727C11.2213 12.4282 11.2178 12.3785 11.2302 12.3305C11.2427 12.2842 11.2693 12.2416 11.3067 12.2096Z" fill="#F2F2F2"/>
</g>
<defs>
<linearGradient id="paint0_linear_855_8558" x1="16" y1="29.6639" x2="16" y2="23.7812" gradientUnits="userSpaceOnUse">
<stop offset="0.001" stop-color="#37C2B1"/>
<stop offset="1" stop-color="#3CD4C2"/>
</linearGradient>
<linearGradient id="paint1_linear_855_8558" x1="15.9734" y1="21.9695" x2="15.9734" y2="0.725006" gradientUnits="userSpaceOnUse">
<stop stop-color="#0078D4"/>
<stop offset="0.156" stop-color="#1380DA"/>
<stop offset="0.528" stop-color="#3C91E5"/>
<stop offset="0.822" stop-color="#559CEC"/>
<stop offset="1" stop-color="#5EA0EF"/>
</linearGradient>
<clipPath id="clip0_855_8558">
<rect width="32" height="32" fill="white"/>
</clipPath>
</defs>
</svg>
