<svg width="32" height="32" viewBox="0 0 32 32" fill="none" xmlns="http://www.w3.org/2000/svg">
<g clip-path="url(#clip0_855_8546)">
<path d="M19.8916 8.58105V13.3597L15.7618 15.7597V10.9757L19.8916 8.58105Z" fill="#32BEDD"/>
<path d="M19.8915 8.58112L15.7618 10.9811L11.6284 8.57578L15.7618 6.17578L19.8915 8.58112Z" fill="#9CEBFF"/>
<path d="M15.7618 10.9815V15.7602L11.6284 13.3602V8.57617L15.7618 10.9815Z" fill="#50E6FF"/>
<path d="M14.9689 17.0723V21.8492L10.8409 24.2492V19.4652L14.9689 17.0723Z" fill="#32BEDD"/>
<path d="M14.9689 17.0722L10.8409 19.4722L6.70758 17.065L10.8409 14.665L14.9689 17.0722Z" fill="#9CEBFF"/>
<path d="M10.8409 19.4716V24.2485L6.70758 21.8485V17.0645L10.8409 19.4716Z" fill="#50E6FF"/>
<path d="M24.9689 17.0859V21.8628L20.8409 24.2628V19.4788L24.9689 17.0859Z" fill="#32BEDD"/>
<path d="M24.9689 17.0858L20.8409 19.4858L16.7058 17.0787L20.8409 14.6787L24.9689 17.0858Z" fill="#9CEBFF"/>
<path d="M20.8409 19.4862V24.2631L16.7058 21.8631V17.0791L20.8409 19.4862Z" fill="#50E6FF"/>
<path d="M17.0791 0.922852L18.032 1.45618L18.4178 1.66952C18.497 1.71273 18.5634 1.77611 18.6103 1.85326C18.6572 1.9304 18.6828 2.01856 18.6846 2.1088C18.6864 2.19905 18.6643 2.28816 18.6206 2.36712C18.5768 2.44607 18.513 2.51207 18.4356 2.55841L18.0569 2.78596L16.9067 3.48107C19.1564 3.64177 21.3211 4.40594 23.1731 5.69318C25.0251 6.98041 26.4959 8.7431 27.4305 10.7957C28.3652 12.8483 28.7293 15.115 28.4844 17.357C28.2396 19.5991 27.3948 21.7337 26.0391 23.5362C26.0209 23.5616 26.0071 23.5898 25.9982 23.6197L25.5218 25.3975C25.4983 25.4842 25.4982 25.5755 25.5213 25.6622C25.5444 25.749 25.59 25.8281 25.6535 25.8916C25.717 25.955 25.7961 26.0007 25.8828 26.0238C25.9696 26.0469 26.0609 26.0467 26.1476 26.0233L27.5698 25.6429C27.6224 25.6299 27.6693 25.5999 27.7031 25.5575C29.4593 23.4154 30.5924 20.8315 30.9783 18.0885C31.3643 15.3455 30.9882 12.5492 29.8913 10.0057C28.7943 7.46211 27.0188 5.26934 24.7591 3.66735C22.4993 2.06536 19.8424 1.11588 17.0791 0.922852Z" fill="#005BA1"/>
<path d="M25.4916 26.9829L25.0631 27.0966C24.9766 27.1197 24.8855 27.1196 24.799 27.0963C24.7125 27.0729 24.6337 27.0273 24.5705 26.9639C24.5072 26.9005 24.4618 26.8215 24.4387 26.735C24.4157 26.6484 24.4158 26.5573 24.4391 26.4709L24.5529 26.0442L24.8693 24.8655C23.5572 26.1771 21.9706 27.1815 20.2237 27.8064C18.4768 28.4313 16.6131 28.6611 14.7667 28.4794C12.9204 28.2976 11.1373 27.7088 9.54577 26.7553C7.95426 25.8018 6.59392 24.5073 5.56268 22.9651C5.53957 22.9297 5.50773 22.9009 5.47023 22.8815L4.22579 22.2469C4.14583 22.2063 4.05661 22.1874 3.96706 22.1921C3.87751 22.1968 3.79077 22.225 3.71553 22.2738C3.64028 22.3226 3.57917 22.3903 3.53831 22.4701C3.49744 22.5499 3.47826 22.6391 3.48268 22.7286L3.57334 24.5064C3.57683 24.5555 3.59341 24.6028 3.62134 24.6433C4.24627 25.5348 4.96505 26.3567 5.76534 27.0949C8.62969 29.7441 12.4096 31.1797 16.3104 31.0998C20.2113 31.0199 23.9292 29.4307 26.6827 26.6664L25.4916 26.9829Z" fill="#00FFFF"/>
<path d="M2.67734 21.8843L2.65423 21.4416C2.64959 21.352 2.66866 21.2628 2.70951 21.1829C2.75037 21.103 2.81156 21.0353 2.88693 20.9867C2.96229 20.938 3.04916 20.91 3.13877 20.9056C3.22838 20.9012 3.31757 20.9206 3.39734 20.9616L3.79023 21.1625L4.81245 21.6852C3.8615 19.8167 3.39362 17.7398 3.45153 15.644C3.50944 13.5482 4.09128 11.5003 5.14396 9.68712C6.19664 7.87397 7.68664 6.35331 9.47797 5.26392C11.2693 4.17453 13.3049 3.5511 15.3991 3.45052C15.44 3.44857 15.4798 3.43634 15.5147 3.41496L16.9049 2.57585C16.9828 2.52987 17.0471 2.464 17.0912 2.38499C17.1353 2.30598 17.1576 2.21667 17.1557 2.12621C17.1539 2.03575 17.1281 1.9474 17.0809 1.87022C17.0337 1.79303 16.9668 1.72978 16.8871 1.68696L15.5058 0.929628C15.4638 0.906991 15.4166 0.895946 15.3689 0.897628C12.8022 1.00326 10.305 1.762 8.11337 3.10207C5.92177 4.44213 4.10831 6.31919 2.84457 8.55567C1.58082 10.7921 0.908579 13.3141 0.891449 15.8828C0.874319 18.4516 1.51286 20.9823 2.74667 23.2354L2.67734 21.8843Z" fill="#32BEDD"/>
</g>
<defs>
<clipPath id="clip0_855_8546">
<rect width="32" height="32" fill="white"/>
</clipPath>
</defs>
</svg>
