<svg width="32" height="32" viewBox="0 0 32 32" fill="none" xmlns="http://www.w3.org/2000/svg">
<path d="M1.6 4.40208H25.9964C26.3906 4.37458 26.7797 4.50365 27.0792 4.76127C27.3788 5.01889 27.5646 5.38426 27.5964 5.77808V22.4643C27.5637 22.8578 27.3776 23.2226 27.0783 23.48C26.7789 23.7375 26.3904 23.8669 25.9964 23.8403H16.0124C15.955 23.8404 15.8989 23.8571 15.8507 23.8883L10.7289 27.2661C10.6539 27.3237 10.5649 27.3604 10.471 27.3723C10.3772 27.3842 10.2818 27.3709 10.1948 27.3338C10.1078 27.2967 10.0322 27.2372 9.97575 27.1612C9.91934 27.0853 9.88414 26.9957 9.87378 26.9016V24.0696C9.86833 24.0041 9.83731 23.9433 9.78742 23.9003C9.73753 23.8574 9.67276 23.8359 9.60711 23.8403H1.6C1.20597 23.8673 0.817145 23.7381 0.517695 23.4806C0.218244 23.223 0.0322599 22.8579 0 22.4643L0 5.77808C0.0327072 5.38462 0.218819 5.0198 0.518163 4.76236C0.817508 4.50493 1.20608 4.37552 1.6 4.40208Z" fill="url(#paint0_linear_855_8512)"/>
<path opacity="0.8" d="M19.6107 11.8418C19.9711 11.8418 20.3234 11.9487 20.623 12.1489C20.9227 12.3491 21.1563 12.6337 21.2942 12.9667C21.4321 13.2997 21.4682 13.666 21.3979 14.0195C21.3276 14.373 21.154 14.6977 20.8992 14.9525C20.6443 15.2074 20.3197 15.3809 19.9662 15.4512C19.6127 15.5215 19.2463 15.4855 18.9133 15.3475C18.5804 15.2096 18.2958 14.9761 18.0956 14.6764C17.8953 14.3767 17.7885 14.0244 17.7885 13.664C17.7885 13.1807 17.9804 12.7172 18.3222 12.3755C18.6639 12.0338 19.1274 11.8418 19.6107 11.8418ZM11.9769 13.6889C11.9787 14.0489 12.087 14.4004 12.2883 14.6988C12.4896 14.9973 12.7748 15.2295 13.1079 15.3661C13.441 15.5026 13.8071 15.5374 14.16 15.4661C14.5129 15.3948 14.8368 15.2206 15.0907 14.9654C15.3447 14.7102 15.5174 14.3855 15.587 14.0323C15.6565 13.679 15.6199 13.3131 15.4818 12.9806C15.3436 12.6482 15.11 12.3641 14.8106 12.1643C14.5111 11.9645 14.1591 11.8578 13.7991 11.8578C13.5591 11.8578 13.3214 11.9052 13.0997 11.9974C12.8781 12.0895 12.6768 12.2245 12.5075 12.3947C12.3381 12.5648 12.2041 12.7667 12.113 12.9888C12.022 13.211 11.9757 13.4489 11.9769 13.6889ZM6.16357 13.6889C6.16532 14.0489 6.27368 14.4004 6.47498 14.6988C6.67627 14.9973 6.96147 15.2295 7.29459 15.3661C7.62771 15.5026 7.99381 15.5374 8.3467 15.4661C8.69959 15.3948 9.02345 15.2206 9.2774 14.9654C9.53136 14.7102 9.70403 14.3855 9.77362 14.0323C9.84321 13.679 9.80661 13.3131 9.66843 12.9806C9.53026 12.6482 9.2967 12.3641 8.99723 12.1643C8.69776 11.9645 8.34581 11.8578 7.98579 11.8578C7.74574 11.8578 7.50806 11.9052 7.28639 11.9974C7.06473 12.0895 6.86345 12.2245 6.69413 12.3947C6.5248 12.5648 6.39076 12.7667 6.29971 12.9888C6.20866 13.211 6.16239 13.4489 6.16357 13.6889Z" fill="white"/>
<path d="M24.7573 27.5986C28.7574 27.5986 32 24.356 32 20.3559C32 16.3559 28.7574 13.1133 24.7573 13.1133C20.7573 13.1133 17.5147 16.3559 17.5147 20.3559C17.5147 24.356 20.7573 27.5986 24.7573 27.5986Z" fill="url(#paint1_linear_855_8512)"/>
<path d="M28.736 24.2454L27.7813 22.7983C27.708 22.6834 27.5934 22.601 27.4611 22.5679C27.3289 22.5349 27.189 22.5537 27.0702 22.6206L26.3858 22.9886C26.3202 23.024 26.245 23.0373 26.1713 23.0264C26.0976 23.0155 26.0294 22.981 25.9769 22.9281C25.5253 22.4752 25.1153 21.9825 24.752 21.4561L24.2044 20.5263C23.934 19.9463 23.7168 19.343 23.5555 18.7237C23.538 18.6515 23.5435 18.5757 23.5712 18.5068C23.599 18.438 23.6476 18.3795 23.7102 18.3397L24.3733 17.9361C24.4879 17.867 24.5724 17.7574 24.6099 17.629C24.6474 17.5006 24.6353 17.3627 24.576 17.2428L23.8222 15.6872C23.7639 15.57 23.6624 15.4799 23.5392 15.4358C23.4159 15.3917 23.2803 15.3971 23.1609 15.4508C22.4995 15.833 22.0049 16.4487 21.7742 17.177C21.1484 18.6259 22.272 20.3308 23.1022 21.7814H23.1111C23.9413 23.2321 24.8462 25.0632 26.4107 25.2588C27.1555 25.4285 27.9369 25.313 28.6009 24.9352C28.709 24.8606 28.7836 24.7467 28.8089 24.6178C28.8341 24.489 28.808 24.3553 28.736 24.2454Z" fill="#0078D4"/>
<defs>
<linearGradient id="paint0_linear_855_8512" x1="13.7991" y1="4.40208" x2="13.7991" y2="27.3621" gradientUnits="userSpaceOnUse">
<stop offset="0.002" stop-color="#A67AF4"/>
<stop offset="1" stop-color="#773ADC"/>
</linearGradient>
<linearGradient id="paint1_linear_855_8512" x1="24.7573" y1="13.1133" x2="24.7573" y2="27.5986" gradientUnits="userSpaceOnUse">
<stop stop-color="#C3F1FF"/>
<stop offset="1" stop-color="#50E6FF"/>
</linearGradient>
</defs>
</svg>
