<svg width="32" height="32" viewBox="0 0 32 32" fill="none" xmlns="http://www.w3.org/2000/svg">
<path d="M28.8569 14.9619C28.8569 23.4099 18.6436 30.2116 16.4231 31.5912C16.2963 31.6705 16.1496 31.7126 16 31.7126C15.8504 31.7126 15.7038 31.6705 15.5769 31.5912C13.3565 30.2116 3.14313 23.4134 3.14313 14.9619V4.80009C3.14354 4.58938 3.22634 4.38719 3.37383 4.23671C3.52132 4.08623 3.7218 3.99939 3.93246 3.99475C11.8756 3.77431 10.0462 0.288086 16 0.288086C21.9538 0.288086 20.1245 3.77431 28.0676 3.98942C28.2782 3.99406 28.4787 4.0809 28.6262 4.23138C28.7737 4.38186 28.8565 4.58405 28.8569 4.79475V14.9619Z" fill="#1B93EB"/>
<path d="M27.7902 15.0467C27.7902 22.7961 18.4249 29.0325 16.3876 30.2983C16.2712 30.3706 16.137 30.4089 16 30.4089C15.863 30.4089 15.7288 30.3706 15.6125 30.2983C13.5751 29.0325 4.2098 22.7961 4.2098 15.0467V5.72405C4.20834 5.52956 4.28338 5.34229 4.41874 5.20261C4.55409 5.06293 4.73891 4.98205 4.93335 4.97739C12.2169 4.78716 10.5405 1.59961 16 1.59961C21.4596 1.59961 19.7831 4.79961 27.0667 4.99339C27.2599 4.99802 27.4437 5.07792 27.5788 5.21607C27.714 5.35421 27.7898 5.53968 27.7902 5.73294V15.0467Z" fill="url(#paint0_linear_855_8513)"/>
<path d="M19.5218 8.42874L18.2258 7.89541C18.1742 7.87449 18.1276 7.84295 18.089 7.80282C18.0504 7.76269 18.0207 7.71489 18.0018 7.66252L17.2053 5.4563C17.1776 5.37896 17.1267 5.31205 17.0596 5.26466C16.9925 5.21727 16.9124 5.19169 16.8302 5.19141H15.1591C15.0723 5.19152 14.988 5.21985 14.9187 5.27212C14.8494 5.32439 14.799 5.39777 14.7751 5.48118L14.1511 7.64474C14.1343 7.70302 14.1045 7.75669 14.0638 7.80167C14.0231 7.84665 13.9727 7.88175 13.9164 7.9043L12.768 8.35585C12.7171 8.37849 12.662 8.39019 12.6062 8.39019C12.5505 8.39019 12.4954 8.37849 12.4444 8.35585L10.2453 7.30696C10.1709 7.27202 10.0874 7.26078 10.0064 7.27477C9.92529 7.28876 9.85047 7.3273 9.792 7.38518L8.61156 8.55496C8.55286 8.61288 8.5135 8.68752 8.49886 8.76868C8.48422 8.84983 8.49502 8.93352 8.52978 9.00829L9.58756 11.2714C9.62613 11.3616 9.63055 11.4627 9.6 11.5559L9.20356 12.8003C9.18377 12.8609 9.14995 12.916 9.10485 12.9611C9.05975 13.0062 9.00464 13.0401 8.944 13.0599L6.75378 13.771C6.67279 13.7964 6.60202 13.847 6.55181 13.9154C6.5016 13.9838 6.47457 14.0665 6.47467 14.1514V15.8759C6.47507 15.9626 6.50351 16.0468 6.55574 16.116C6.60796 16.1852 6.68118 16.2357 6.76445 16.2599L8.91556 16.8821C8.9751 16.8993 9.02983 16.9302 9.07547 16.9721C9.12112 17.014 9.15644 17.066 9.17867 17.1239L9.58934 18.2083C9.60802 18.2581 9.61654 18.3111 9.61441 18.3642C9.61227 18.4173 9.59951 18.4695 9.57689 18.5176L8.59023 20.651C8.55625 20.7246 8.54537 20.8068 8.55902 20.8868C8.57266 20.9668 8.61019 21.0407 8.66667 21.099L9.856 22.3114C9.9153 22.3716 9.99206 22.4115 10.0754 22.4255C10.1587 22.4396 10.2443 22.427 10.32 22.3896L10.3769 22.3612L12.3787 21.3336C12.4297 21.3073 12.4859 21.2924 12.5433 21.29C12.6007 21.2875 12.658 21.2975 12.7111 21.3194L13.8667 21.787C13.9192 21.8076 13.9666 21.8391 14.0059 21.8796C14.0451 21.9201 14.0753 21.9685 14.0942 22.0216L14.8889 24.2225C14.917 24.2998 14.9683 24.3665 15.0358 24.4136C15.1032 24.4607 15.1835 24.4858 15.2658 24.4856H16.8409C16.9275 24.4859 17.0119 24.458 17.0812 24.406C17.1505 24.354 17.2009 24.2809 17.2249 24.1976L17.8489 22.0394C17.8661 21.9814 17.8962 21.9279 17.9368 21.883C17.9774 21.8381 18.0275 21.8028 18.0836 21.7799L19.2338 21.3159C19.2845 21.2948 19.339 21.2848 19.3938 21.2863C19.4487 21.2878 19.5026 21.3009 19.552 21.3247L21.6462 22.3043C21.7206 22.3398 21.8041 22.3513 21.8853 22.3373C21.9665 22.3233 22.0414 22.2844 22.0996 22.2261L23.2107 21.115C23.272 21.0531 23.3115 20.9731 23.3234 20.8868C23.3352 20.8006 23.3188 20.7128 23.2764 20.6367L23.2551 20.5923L22.4 18.4767C22.361 18.3804 22.361 18.2726 22.4 18.1763L22.8764 16.9994C22.8976 16.9475 22.9295 16.9006 22.9699 16.8617C23.0103 16.8228 23.0584 16.7928 23.1111 16.7736L25.2551 15.9807C25.3316 15.9522 25.3976 15.901 25.4443 15.834C25.491 15.767 25.5162 15.6873 25.5164 15.6056V14.0305C25.5162 13.9431 25.4874 13.858 25.4345 13.7884C25.3816 13.7188 25.3073 13.6683 25.2231 13.6447L23.0898 13.0527C23.0267 13.0355 22.9689 13.003 22.9214 12.958C22.8739 12.913 22.8383 12.857 22.8178 12.795L22.4 11.5292C22.3675 11.4322 22.3738 11.3264 22.4178 11.2341L23.4062 9.10074C23.4411 9.02641 23.4521 8.94312 23.4377 8.86229C23.4234 8.78146 23.3845 8.70703 23.3262 8.64918L22.2453 7.5683C22.1738 7.49693 22.0823 7.44902 21.9829 7.43092C21.8835 7.41282 21.781 7.42539 21.6889 7.46696L19.5218 8.42874Z" fill="url(#paint1_linear_855_8513)"/>
<path d="M21.3529 17.4545C21.3367 16.9035 21.1573 16.3697 20.8373 15.9209C20.5173 15.4721 20.0712 15.1285 19.5556 14.9336C19.8176 14.7636 20.0178 14.5137 20.1265 14.2209C20.2353 13.9281 20.2468 13.6081 20.1593 13.3083C20.0718 13.0085 19.8901 12.7449 19.6409 12.5565C19.3918 12.3682 19.0886 12.2652 18.7763 12.2627C18.464 12.2603 18.1592 12.3586 17.9072 12.5431C17.6552 12.7275 17.4693 12.9883 17.3772 13.2867C17.2851 13.5851 17.2916 13.9053 17.3958 14.1997C17.4999 14.4941 17.6963 14.7471 17.9556 14.9211C17.4248 15.0938 16.9645 15.4342 16.6438 15.8911C16.3232 16.3479 16.1597 16.8966 16.1778 17.4545C16.1714 17.5149 16.177 17.5761 16.1943 17.6344C16.2116 17.6927 16.2402 17.7471 16.2785 17.7943C16.3168 17.8415 16.3641 17.8807 16.4176 17.9097C16.4711 17.9386 16.5297 17.9567 16.5902 17.9629H16.6365H20.9031C21.0254 17.9629 21.1427 17.9145 21.2293 17.8282C21.316 17.7419 21.3649 17.6247 21.3654 17.5025C21.3626 17.4861 21.3584 17.4701 21.3529 17.4545Z" fill="#198AB3"/>
<path d="M17.9556 18.8444C18.0459 18.8446 18.1354 18.827 18.219 18.7927C18.3026 18.7583 18.3785 18.7078 18.4426 18.6441C18.5066 18.5804 18.5575 18.5047 18.5923 18.4213C18.6271 18.3379 18.6451 18.2485 18.6453 18.1581C18.6453 18.1315 18.6453 18.103 18.6453 18.0763C18.645 17.0458 18.24 16.0566 17.5174 15.3217C16.7949 14.5869 15.8127 14.1652 14.7822 14.1475C12.3858 14.1475 11.1485 15.6408 10.9085 18.0817C10.8991 18.172 10.9076 18.2633 10.9336 18.3504C10.9595 18.4374 11.0024 18.5185 11.0597 18.589C11.1169 18.6595 11.1876 18.718 11.2675 18.7612C11.3474 18.8044 11.435 18.8315 11.5253 18.8408H11.5947L17.9556 18.8444Z" fill="url(#paint2_linear_855_8513)"/>
<path opacity="0.8" d="M14.8196 14.6681C14.4017 14.6659 13.9934 14.5424 13.6445 14.3125L14.8071 17.3543L15.9645 14.3321C15.6218 14.549 15.2251 14.6654 14.8196 14.6681Z" fill="white"/>
<path d="M14.8035 14.6681C16.0034 14.6681 16.976 13.6955 16.976 12.4957C16.976 11.2959 16.0034 10.3232 14.8035 10.3232C13.6037 10.3232 12.6311 11.2959 12.6311 12.4957C12.6311 13.6955 13.6037 14.6681 14.8035 14.6681Z" fill="url(#paint3_linear_855_8513)"/>
<defs>
<linearGradient id="paint0_linear_855_8513" x1="16" y1="2.66272" x2="16" y2="31.4823" gradientUnits="userSpaceOnUse">
<stop stop-color="#6BB9F2"/>
<stop offset="1" stop-color="#1B93EB"/>
</linearGradient>
<linearGradient id="paint1_linear_855_8513" x1="16" y1="24.4803" x2="16" y2="5.19141" gradientUnits="userSpaceOnUse">
<stop stop-color="#E6E6E6"/>
<stop offset="1" stop-color="white"/>
</linearGradient>
<linearGradient id="paint2_linear_855_8513" x1="14.7769" y1="13.5821" x2="14.7769" y2="20.0123" gradientUnits="userSpaceOnUse">
<stop offset="0.225" stop-color="#32D4F5"/>
<stop offset="0.473" stop-color="#31D1F3"/>
<stop offset="0.633" stop-color="#2EC9EB"/>
<stop offset="0.999" stop-color="#198AB3"/>
<stop offset="1" stop-color="#198AB3"/>
</linearGradient>
<linearGradient id="paint3_linear_855_8513" x1="14.6133" y1="10.1348" x2="15.0844" y2="15.973" gradientUnits="userSpaceOnUse">
<stop offset="0.225" stop-color="#32D4F5"/>
<stop offset="0.473" stop-color="#31D1F3"/>
<stop offset="0.633" stop-color="#2EC9EB"/>
<stop offset="0.999" stop-color="#198AB3"/>
<stop offset="1" stop-color="#198AB3"/>
</linearGradient>
</defs>
</svg>
