<svg width="32" height="32" viewBox="0 0 32 32" fill="none" xmlns="http://www.w3.org/2000/svg">
<path d="M30.6489 3.55566H1.35111C0.604913 3.55566 0 4.16058 0 4.90678V27.0934C0 27.8396 0.604913 28.4446 1.35111 28.4446H30.6489C31.3951 28.4446 32 27.8396 32 27.0934V4.90678C32 4.16058 31.3951 3.55566 30.6489 3.55566Z" fill="url(#paint0_linear_855_8545)"/>
<path d="M14.7872 8.55112C14.7872 8.55112 14.7803 8.57921 14.7716 8.62668C14.0002 8.84146 13.2709 9.18594 12.6151 9.64535C11.3669 9.17854 9.98436 9.22617 8.7712 9.77779C8.6409 11.0998 8.9938 12.4244 9.76462 13.5063C9.51978 14.1911 9.35583 14.9021 9.27608 15.6249C8.14497 16.2139 7.2834 17.2149 6.86951 18.4212C7.71096 19.4512 8.90916 20.1269 10.226 20.314L10.2308 20.3102C10.5567 20.894 10.9561 21.4337 11.419 21.9161C11.0829 22.8793 11.1111 23.9323 11.4985 24.8761C12.6088 24.9284 13.7029 24.5949 14.5952 23.9321C15.5034 24.2362 16.4599 24.3703 17.4167 24.3277C17.964 25.0443 18.7687 25.5198 19.6604 25.6535C20.3024 25.028 20.686 24.1841 20.7353 23.2891L20.7342 23.2416L20.7314 23.1922C21.4351 22.7017 22.0303 22.0716 22.4798 21.341C23.2004 21.3607 23.9016 21.1061 24.4416 20.6286C24.3491 19.8932 23.9868 19.2182 23.4249 18.7348L23.3968 18.7143L23.3716 18.698C23.4599 17.9862 23.3938 17.2638 23.1778 16.5798C22.9617 15.8959 22.6009 15.2666 22.1198 14.7347C21.6386 14.2028 21.0485 13.7808 20.3896 13.4975C19.7307 13.2141 19.0185 13.0761 18.3015 13.0928C13.2622 12.9097 13.8016 21.7835 18.806 19.336C19.1138 18.5966 17.9458 19.3785 17.629 19.2126C17.0865 19.1733 16.5812 18.9227 16.2214 18.5148C15.8617 18.1069 15.6763 17.5742 15.7051 17.0311C15.7472 16.5852 15.9033 16.1577 16.1583 15.7894C16.4133 15.4212 16.7586 15.1247 17.1612 14.9284C17.5638 14.732 18.01 14.6425 18.4572 14.6682C18.9043 14.694 19.3373 14.8343 19.7147 15.0756C23.062 16.9474 20.67 22.1717 17.1744 21.8795C17.1986 21.8795 17.1705 21.8795 17.1714 21.8784C15.7548 21.8427 14.4078 21.257 13.4156 20.2453C12.4234 19.2337 11.864 17.8755 11.8558 16.4585C11.8303 15.6866 11.9571 14.9173 12.229 14.1945C12.5009 13.4717 12.9126 12.8095 13.4406 12.2459C13.9685 11.6822 14.6023 11.2281 15.3058 10.9095C16.0093 10.591 16.7687 10.4141 17.5406 10.3892C20.9484 10.0667 23.5378 12.8356 24.5072 15.6997C24.6146 14.728 24.4876 13.7447 24.1367 12.8323C23.7858 11.9198 23.2213 11.1047 22.4905 10.4553C22.6371 9.76564 22.5191 9.04606 22.16 8.4393C21.4733 8.37644 20.786 8.55313 20.2148 8.93939C19.5931 8.67326 18.9385 8.49173 18.2686 8.39966C17.9714 7.51454 17.3432 6.77881 16.5156 6.34668C15.6822 6.83737 15.0647 7.62474 14.7872 8.55112Z" fill="#F2F2F2"/>
<defs>
<linearGradient id="paint0_linear_855_8545" x1="16" y1="3.55566" x2="16" y2="28.4446" gradientUnits="userSpaceOnUse">
<stop offset="0.18" stop-color="#5EA0EF"/>
<stop offset="1" stop-color="#0078D4"/>
</linearGradient>
</defs>
</svg>
