<svg width="32" height="32" viewBox="0 0 32 32" fill="none" xmlns="http://www.w3.org/2000/svg">
<path d="M15.922 6.35799C17.4684 6.35799 18.722 5.05604 18.722 3.44999C18.722 1.84395 17.4684 0.541992 15.922 0.541992C14.3756 0.541992 13.122 1.84395 13.122 3.44999C13.122 5.05604 14.3756 6.35799 15.922 6.35799Z" fill="url(#paint0_linear_855_8544)"/>
<path d="M19.388 3.65234C19.3636 4.12961 19.2468 4.5976 19.044 5.03034C21.7142 5.78575 24.0617 7.39875 25.7244 9.62054C27.387 11.8423 28.2724 14.5495 28.244 17.3243C28.245 19.6354 27.6291 21.9048 26.46 23.8983C26.891 24.0848 27.2796 24.3569 27.602 24.6983C28.9214 22.4665 29.6164 19.921 29.614 17.3283C29.6503 14.2416 28.6682 11.2289 26.8196 8.75666C24.971 6.28439 22.359 4.49039 19.388 3.65234Z" fill="#37C2B1"/>
<path d="M25.124 30.148C26.6704 30.148 27.924 28.8461 27.924 27.24C27.924 25.634 26.6704 24.332 25.124 24.332C23.5776 24.332 22.324 25.634 22.324 27.24C22.324 28.8461 23.5776 30.148 25.124 30.148Z" fill="url(#paint1_linear_855_8544)"/>
<path d="M6.23201 30.148C7.7784 30.148 9.03201 28.8461 9.03201 27.24C9.03201 25.634 7.7784 24.332 6.23201 24.332C4.68561 24.332 3.43201 25.634 3.43201 27.24C3.43201 28.8461 4.68561 30.148 6.23201 30.148Z" fill="url(#paint2_linear_855_8544)"/>
<path d="M21.862 28.4768C19.9841 29.5523 17.8462 30.0895 15.6829 30.0291C13.5197 29.9688 11.415 29.3133 9.6 28.1348C9.4867 28.6 9.28281 29.0384 9 29.4248C11.0241 30.7059 13.3603 31.4084 15.7553 31.456C18.1503 31.5036 20.5126 30.8945 22.586 29.6948C22.2678 29.3396 22.0219 28.9259 21.862 28.4768Z" fill="#37C2B1"/>
<path d="M5.442 23.7224C4.33799 21.7701 3.7585 19.5652 3.76 17.3224C3.73229 14.5723 4.60175 11.8881 6.23662 9.67646C7.87149 7.46488 10.1827 5.84644 12.82 5.06638C12.6116 4.63623 12.4893 4.16947 12.46 3.69238C9.52789 4.55991 6.95897 6.36055 5.14332 8.82089C3.32767 11.2812 2.36448 14.2668 2.4 17.3244C2.39795 19.7724 3.01728 22.181 4.2 24.3244C4.56827 24.0406 4.99106 23.8356 5.442 23.7224Z" fill="#37C2B1"/>
<path d="M21.68 24.0237C22.9322 23.9754 24.1186 23.4502 24.9962 22.5555C25.8737 21.6609 26.3759 20.4646 26.4 19.2117C26.3953 18.0702 25.985 16.9677 25.2424 16.1009C24.4997 15.2341 23.4732 14.6594 22.346 14.4797C22.3155 13.0496 21.7813 11.6762 20.8376 10.6014C19.8938 9.52664 18.601 8.81938 17.1869 8.60426C15.7728 8.38914 14.3282 8.67995 13.1075 9.42548C11.8868 10.171 10.9684 11.3234 10.514 12.6797C9.06781 12.8786 7.75306 13.6249 6.84082 14.7645C5.92858 15.9042 5.48838 17.3505 5.61097 18.8051C5.73356 20.2598 6.40959 21.612 7.49971 22.5829C8.58982 23.5539 10.0109 24.0695 11.47 24.0237H21.68Z" fill="url(#paint3_linear_855_8544)"/>
<path d="M20.546 17.1761V16.0961L20.49 16.0421L19.428 15.6701L19.156 14.9281L19.682 13.8001L19.738 13.6741L19.4 13.3221L19 12.9061L18.862 12.9781L17.824 13.5321L17.108 13.3221L16.654 12.1221H15.63L15.578 12.1761L15.22 13.2781L14.494 13.5621L13.294 12.9621L12.56 13.7181L12.63 13.8601L13.162 14.9381L12.864 15.6801L11.6 16.1421V17.2221L11.748 17.2681L12.856 17.6481L13.154 18.3921L12.6 19.6401L13.334 20.4121L13.472 20.3401L14.512 19.7881L15.226 20.0961L15.682 21.3981H16.72L16.764 21.2441L17.13 20.0941L17.836 19.7861L19.05 20.3761L19.784 19.6141L19.714 19.4681L19.176 18.4001L19.376 17.6461L20.546 17.1761ZM16.172 18.1761C15.8705 18.1888 15.572 18.1112 15.315 17.9531C15.0579 17.7951 14.854 17.5638 14.7293 17.289C14.6046 17.0142 14.5649 16.7084 14.6152 16.4108C14.6656 16.1133 14.8037 15.8376 15.0118 15.6191C15.22 15.4006 15.4887 15.2493 15.7834 15.1846C16.0782 15.1199 16.3855 15.1448 16.6661 15.256C16.9466 15.3673 17.1875 15.5598 17.3578 15.8089C17.5281 16.058 17.6201 16.3523 17.622 16.6541V16.6601C17.6279 17.0522 17.479 17.4309 17.2076 17.7139C16.9361 17.997 16.564 18.1616 16.172 18.1721V18.1761Z" fill="white"/>
<defs>
<linearGradient id="paint0_linear_855_8544" x1="15.922" y1="6.35799" x2="15.922" y2="0.541992" gradientUnits="userSpaceOnUse">
<stop offset="0.001" stop-color="#37C2B1"/>
<stop offset="0.496" stop-color="#3ACEBC"/>
<stop offset="1" stop-color="#3CD4C2"/>
</linearGradient>
<linearGradient id="paint1_linear_855_8544" x1="25.124" y1="30.148" x2="25.124" y2="24.332" gradientUnits="userSpaceOnUse">
<stop offset="0.001" stop-color="#37C2B1"/>
<stop offset="0.496" stop-color="#3ACEBC"/>
<stop offset="1" stop-color="#3CD4C2"/>
</linearGradient>
<linearGradient id="paint2_linear_855_8544" x1="6.23201" y1="30.148" x2="6.23201" y2="24.332" gradientUnits="userSpaceOnUse">
<stop offset="0.001" stop-color="#37C2B1"/>
<stop offset="0.496" stop-color="#3ACEBC"/>
<stop offset="1" stop-color="#3CD4C2"/>
</linearGradient>
<linearGradient id="paint3_linear_855_8544" x1="16" y1="8.57966" x2="16" y2="24.0517" gradientUnits="userSpaceOnUse">
<stop stop-color="#9D79EB"/>
<stop offset="1" stop-color="#7548D6"/>
</linearGradient>
</defs>
</svg>
