<svg width="32" height="32" viewBox="0 0 32 32" fill="none" xmlns="http://www.w3.org/2000/svg">
<path d="M31.8062 13.6548C31.7691 12.437 31.3004 11.2721 30.4836 10.3681C29.6669 9.46403 28.5553 8.87979 27.3476 8.71968C27.274 7.01838 26.533 5.41459 25.2851 4.25588C24.0372 3.09717 22.383 2.47689 20.6809 2.52946C19.3051 2.50415 17.9553 2.90694 16.8184 3.68212C15.6814 4.4573 14.8133 5.56658 14.3342 6.85657C12.8797 7.03315 11.5365 7.72508 10.5483 8.80691C9.56004 9.88875 8.99215 11.2889 8.94757 12.7535C9.01147 14.3984 9.7246 15.951 10.9308 17.0712C12.137 18.1914 13.738 18.788 15.3831 18.7303C15.5751 18.7303 15.7636 18.7303 15.9502 18.7055H26.3733C26.4666 18.7037 26.5592 18.69 26.6489 18.6646C27.9886 18.6553 29.2729 18.1291 30.2339 17.1956C31.1948 16.2622 31.7581 14.9936 31.8062 13.6548Z" fill="url(#paint0_linear_855_8522)"/>
<path d="M17.4844 19.5552L17.5164 20.2912L18.2453 20.389C19.2428 20.5216 20.16 21.0067 20.831 21.7566C21.502 22.5066 21.8826 23.4718 21.904 24.4779C21.8901 25.5968 21.4389 26.6658 20.6468 27.4562C19.8547 28.2467 18.7847 28.6957 17.6658 28.7072H6.46577C5.76929 28.7312 5.07495 28.6173 4.42261 28.3721C3.77027 28.1269 3.1728 27.7553 2.6645 27.2786C2.15621 26.8018 1.74711 26.2294 1.4607 25.5941C1.17428 24.9587 1.01621 24.2731 0.995544 23.5765C1.03732 22.3377 1.52117 21.1547 2.35954 20.2417C3.19791 19.3286 4.33541 18.7458 5.56621 18.5988L6.09954 18.533L6.27732 18.0263C6.68341 16.9067 7.42902 15.9418 8.41004 15.2664C9.39105 14.5911 10.5585 14.2389 11.7493 14.2592H11.7884C13.2432 14.2167 14.6563 14.7485 15.7221 15.7395C16.788 16.7305 17.4211 18.1012 17.4844 19.5552Z" fill="white"/>
<path d="M24.1778 10.0616L21.3565 7.32734C21.0489 7.01978 20.7893 7.12823 20.7893 7.60467V8.83312C20.7888 8.87901 20.7792 8.92434 20.7609 8.96645C20.7429 9.00776 20.7166 9.04489 20.6836 9.07549C20.6505 9.10609 20.6115 9.1295 20.5689 9.14423C20.5263 9.16005 20.481 9.1673 20.4356 9.16556C18.6222 9.16556 13.5662 9.642 13.3831 16.5558C13.3831 16.6501 13.4206 16.7405 13.4873 16.8072C13.5539 16.8739 13.6444 16.9113 13.7387 16.9113H15.5342C15.5832 16.9112 15.6316 16.9009 15.6765 16.8811C15.7213 16.8614 15.7618 16.833 15.7956 16.7976C15.8281 16.7605 15.8534 16.7177 15.8702 16.6713C15.886 16.6251 15.892 16.576 15.888 16.5273C15.7453 15.87 15.7609 15.1882 15.9336 14.5382C16.1064 13.8881 16.4312 13.2885 16.8813 12.7887C17.3314 12.2889 17.8939 11.9033 18.5225 11.6637C19.151 11.4242 19.8274 11.3375 20.496 11.4109C20.5903 11.4109 20.6807 11.4484 20.7474 11.515C20.8141 11.5817 20.8516 11.6721 20.8516 11.7664V12.9024C20.8516 13.4713 21.0293 13.5638 21.4205 13.1798L24.1778 10.6464C24.2259 10.6141 24.2651 10.57 24.2916 10.5184C24.318 10.4677 24.3319 10.4113 24.3319 10.354C24.3319 10.2967 24.318 10.2403 24.2916 10.1896C24.2646 10.1383 24.2256 10.0943 24.1778 10.0616Z" fill="white"/>
<path d="M6.36089 29.4696C4.75741 29.4699 3.21687 28.8456 2.06592 27.7292C0.914959 26.6128 0.244091 25.0919 0.195557 23.4892V23.4341C0.242451 21.9835 0.807134 20.5977 1.78739 19.5274C2.76764 18.4572 4.09868 17.7732 5.53956 17.5994C6.00946 16.3114 6.86875 15.2017 7.99813 14.4243C9.1275 13.647 10.4709 13.2406 11.8418 13.2616C13.5277 13.2115 15.1655 13.8274 16.4006 14.976C17.6357 16.1246 18.3687 17.7134 18.4409 19.3985C19.6448 19.5589 20.7517 20.1441 21.5621 21.0487C22.3725 21.9533 22.8329 23.1177 22.8604 24.3319V24.3621C22.8456 25.7116 22.3022 27.0014 21.3469 27.9547C20.3916 28.908 19.1006 29.4487 17.7511 29.4607H6.57778C6.50489 29.4696 6.432 29.4696 6.36089 29.4696ZM1.95556 23.4661C1.9991 24.6339 2.50396 25.7368 3.35943 26.5329C4.21491 27.3291 5.35118 27.7535 6.51911 27.7132H17.7422C18.6296 27.7021 19.4776 27.3448 20.1053 26.7175C20.7329 26.0901 21.0907 25.2423 21.1022 24.355C21.0771 23.5652 20.7723 22.8099 20.2423 22.2239C19.7122 21.6378 18.9913 21.259 18.208 21.155L16.7467 20.9594L16.6844 19.4874C16.6331 18.2629 16.1015 17.1079 15.2048 16.2724C14.3081 15.4369 13.1184 14.9882 11.8933 15.0234H11.8364C10.8268 15.0024 9.83593 15.2979 9.00282 15.8686C8.1697 16.4393 7.53617 17.2566 7.19111 18.2056L6.82133 19.2207L5.75467 19.3487C4.73477 19.47 3.79166 19.9514 3.09516 20.7062C2.39867 21.461 1.99454 22.4397 1.95556 23.4661Z" fill="url(#paint1_linear_855_8522)"/>
<defs>
<linearGradient id="paint0_linear_855_8522" x1="20.3769" y1="18.7303" x2="20.3769" y2="2.52946" gradientUnits="userSpaceOnUse">
<stop stop-color="#0078D4"/>
<stop offset="0.149" stop-color="#1882DB"/>
<stop offset="0.373" stop-color="#378FE4"/>
<stop offset="0.594" stop-color="#4C99EA"/>
<stop offset="0.806" stop-color="#5A9EEE"/>
<stop offset="1" stop-color="#5EA0EF"/>
</linearGradient>
<linearGradient id="paint1_linear_855_8522" x1="11.5271" y1="29.4696" x2="11.5271" y2="13.2634" gradientUnits="userSpaceOnUse">
<stop stop-color="#32BEDD"/>
<stop offset="1" stop-color="#50E6FF"/>
</linearGradient>
</defs>
</svg>
