<svg width="32" height="32" viewBox="0 0 32 32" fill="none" xmlns="http://www.w3.org/2000/svg">
<path d="M29.6427 28.6863H3.34932C3.12583 28.6863 2.91149 28.5975 2.75346 28.4395C2.59543 28.2815 2.50665 28.0671 2.50665 27.8436C2.50665 27.6202 2.59543 27.4058 2.75346 27.2478C2.91149 27.0898 3.12583 27.001 3.34932 27.001H29.6427C29.8661 27.001 30.0805 27.0898 30.2385 27.2478C30.3965 27.4058 30.4853 27.6202 30.4853 27.8436C30.4853 28.0671 30.3965 28.2815 30.2385 28.4395C30.0805 28.5975 29.8661 28.6863 29.6427 28.6863Z" fill="#76BC2D"/>
<path d="M17.8169 22.585H15.8098V27.9076H17.8169V22.585Z" fill="#76BC2D"/>
<path d="M31.1111 8.01775V2.81952C31.1111 2.26282 30.6598 1.81152 30.1031 1.81152L1.89689 1.81152C1.34019 1.81152 0.888893 2.26282 0.888893 2.81952V8.01775C0.888893 8.57445 1.34019 9.02575 1.89689 9.02575L30.1031 9.02575C30.6598 9.02575 31.1111 8.57445 31.1111 8.01775Z" fill="#5EA0EF"/>
<path d="M31.1111 15.0812V9.883C31.1111 9.3263 30.6598 8.875 30.1031 8.875L1.89689 8.875C1.34019 8.875 0.888893 9.3263 0.888893 9.883V15.0812C0.888893 15.6379 1.34019 16.0892 1.89689 16.0892H30.1031C30.6598 16.0892 31.1111 15.6379 31.1111 15.0812Z" fill="#0078D4"/>
<path d="M31.1111 22.2453V17.0471C31.1111 16.4904 30.6598 16.0391 30.1031 16.0391L1.8969 16.0391C1.34019 16.0391 0.888893 16.4904 0.888893 17.0471V22.2453C0.888893 22.802 1.34019 23.2533 1.8969 23.2533H30.1031C30.6598 23.2533 31.1111 22.802 31.1111 22.2453Z" fill="#005BA1"/>
<path d="M31.1111 8.01952V2.81952C31.1111 2.55219 31.0049 2.2958 30.8159 2.10676C30.6268 1.91772 30.3704 1.81152 30.1031 1.81152H1.89689C1.62955 1.81152 1.37316 1.91772 1.18412 2.10676C0.995085 2.2958 0.888886 2.55219 0.888886 2.81952V8.01952C0.889117 8.21934 0.948728 8.41457 1.06015 8.58044C1.17157 8.7463 1.32977 8.87531 1.51466 8.95108C1.32963 9.02665 1.1713 9.15561 1.05985 9.32152C0.948397 9.48743 0.88888 9.68277 0.888886 9.88263V15.0826C0.889167 15.3116 0.967534 15.5336 1.11105 15.7121C1.25456 15.8905 1.45463 16.0146 1.67822 16.064C1.45433 16.1134 1.25403 16.2378 1.11049 16.4166C0.966945 16.5954 0.888762 16.8178 0.888886 17.0471V22.2453C0.888886 22.5126 0.995085 22.769 1.18412 22.9581C1.37316 23.1471 1.62955 23.2533 1.89689 23.2533H30.1031C30.3704 23.2533 30.6268 23.1471 30.8159 22.9581C31.0049 22.769 31.1111 22.5126 31.1111 22.2453V17.0471C31.1112 16.8178 31.033 16.5954 30.8895 16.4166C30.746 16.2378 30.5457 16.1134 30.3218 16.064C30.5454 16.0146 30.7454 15.8905 30.8889 15.7121C31.0325 15.5336 31.1108 15.3116 31.1111 15.0826V9.88263C31.1111 9.68277 31.0516 9.48743 30.9401 9.32152C30.8287 9.15561 30.6704 9.02665 30.4853 8.95108C30.6702 8.87531 30.8284 8.7463 30.9398 8.58044C31.0513 8.41457 31.1109 8.21934 31.1111 8.01952Z" fill="url(#paint0_linear_855_8517)"/>
<path d="M5.71555 6.88374C6.63161 6.88374 7.37422 6.14113 7.37422 5.22507C7.37422 4.30902 6.63161 3.56641 5.71555 3.56641C4.79949 3.56641 4.05688 4.30902 4.05688 5.22507C4.05688 6.14113 4.79949 6.88374 5.71555 6.88374Z" fill="#F2F2F2"/>
<path d="M10.8231 6.88374C11.7392 6.88374 12.4818 6.14113 12.4818 5.22507C12.4818 4.30902 11.7392 3.56641 10.8231 3.56641C9.90704 3.56641 9.16443 4.30902 9.16443 5.22507C9.16443 6.14113 9.90704 6.88374 10.8231 6.88374Z" fill="#F2F2F2"/>
<path d="M5.71555 13.7919C6.63161 13.7919 7.37422 13.0493 7.37422 12.1333C7.37422 11.2172 6.63161 10.4746 5.71555 10.4746C4.79949 10.4746 4.05688 11.2172 4.05688 12.1333C4.05688 13.0493 4.79949 13.7919 5.71555 13.7919Z" fill="#83B9F9"/>
<path d="M10.8231 13.7919C11.7392 13.7919 12.4818 13.0493 12.4818 12.1333C12.4818 11.2172 11.7392 10.4746 10.8231 10.4746C9.90704 10.4746 9.16443 11.2172 9.16443 12.1333C9.16443 13.0493 9.90704 13.7919 10.8231 13.7919Z" fill="#83B9F9"/>
<path d="M5.71555 20.6328C6.63161 20.6328 7.37422 19.8902 7.37422 18.9741C7.37422 18.058 6.63161 17.3154 5.71555 17.3154C4.79949 17.3154 4.05688 18.058 4.05688 18.9741C4.05688 19.8902 4.79949 20.6328 5.71555 20.6328Z" fill="#83B9F9"/>
<path d="M10.8231 20.6328C11.7392 20.6328 12.4818 19.8902 12.4818 18.9741C12.4818 18.058 11.7392 17.3154 10.8231 17.3154C9.90704 17.3154 9.16443 18.058 9.16443 18.9741C9.16443 19.8902 9.90704 20.6328 10.8231 20.6328Z" fill="#83B9F9"/>
<path d="M18.7751 25.0557H14.8C13.3832 25.0557 12.2346 26.2042 12.2346 27.621V27.6228C12.2346 29.0396 13.3832 30.1881 14.8 30.1881H18.7751C20.1919 30.1881 21.3404 29.0396 21.3404 27.6228V27.621C21.3404 26.2042 20.1919 25.0557 18.7751 25.0557Z" fill="url(#paint1_linear_855_8517)"/>
<defs>
<linearGradient id="paint0_linear_855_8517" x1="16" y1="23.2533" x2="16" y2="1.81152" gradientUnits="userSpaceOnUse">
<stop stop-color="#005BA1"/>
<stop offset="0.16" stop-color="#005FA8" stop-opacity="0.866"/>
<stop offset="0.491" stop-color="#0069B9" stop-opacity="0.52"/>
<stop offset="0.939" stop-color="#0078D4" stop-opacity="0"/>
</linearGradient>
<linearGradient id="paint1_linear_855_8517" x1="16.7875" y1="30.1881" x2="16.7875" y2="25.0557" gradientUnits="userSpaceOnUse">
<stop stop-color="#005BA1"/>
<stop offset="0.15" stop-color="#0063AF"/>
<stop offset="0.439" stop-color="#006FC3"/>
<stop offset="0.724" stop-color="#0076D0"/>
<stop offset="1" stop-color="#0078D4"/>
</linearGradient>
</defs>
</svg>
