<svg width="32" height="32" viewBox="0 0 32 32" fill="none" xmlns="http://www.w3.org/2000/svg">
<g clip-path="url(#clip0_855_8524)">
<path d="M1.08269 24.3768H16.4836C16.6265 24.3768 16.7681 24.3484 16.8999 24.2931C17.0318 24.2379 17.1513 24.157 17.2516 24.055L31.6854 9.4666C31.8354 9.3147 31.9372 9.1218 31.9779 8.91219C32.0187 8.70257 31.9965 8.4856 31.9142 8.28855C31.8319 8.09151 31.6932 7.92319 31.5155 7.80477C31.3379 7.68636 31.1291 7.62313 30.9156 7.62305H1.08269C0.939996 7.62281 0.798667 7.65083 0.666856 7.70549C0.535045 7.76015 0.415361 7.84036 0.314709 7.94151C0.214057 8.04266 0.134429 8.16274 0.0804189 8.29481C0.0264083 8.42689 -0.000915573 8.56836 2.34039e-05 8.71105V23.2888C-0.000915573 23.4315 0.0264083 23.573 0.0804189 23.7051C0.134429 23.8371 0.214057 23.9572 0.314709 24.0584C0.415361 24.1595 0.535045 24.2397 0.666856 24.2944C0.798667 24.349 0.939996 24.3771 1.08269 24.3768Z" fill="url(#paint0_linear_855_8524)"/>
<path opacity="0.6" d="M14.8071 13.8076V17.8023L11.3564 19.8094V15.8094L14.8071 13.8076Z" fill="white"/>
<path opacity="0.9" d="M14.8071 13.8083L11.3565 15.8155L7.89868 13.803L11.3565 11.7959L14.8071 13.8083Z" fill="white"/>
<path opacity="0.75" d="M11.3565 15.8152V19.8098L7.89868 17.8027V13.8027L11.3565 15.8152Z" fill="white"/>
<path opacity="0.75" d="M11.8489 9.09668L12.2863 9.33668L12.464 9.43446C12.4995 9.45513 12.5288 9.48472 12.5492 9.52027C12.5697 9.55583 12.5804 9.59612 12.5804 9.63712C12.5804 9.67813 12.5697 9.71841 12.5492 9.75397C12.5288 9.78953 12.4995 9.81912 12.464 9.83979L12.2863 9.94468L11.7529 10.2611C12.7831 10.3347 13.7745 10.6847 14.6226 11.2741C15.4707 11.8636 16.1443 12.6707 16.5724 13.6106C17.0005 14.5506 17.1673 15.5885 17.0554 16.6153C16.9434 17.642 16.5567 18.6196 15.936 19.4451C15.9271 19.4568 15.9205 19.4701 15.9165 19.4842L15.6978 20.2985C15.6854 20.3398 15.6846 20.3838 15.6957 20.4255C15.7068 20.4673 15.7293 20.5051 15.7607 20.5348C15.792 20.5645 15.831 20.5849 15.8733 20.5937C15.9155 20.6025 15.9594 20.5994 16 20.5847L16.6489 20.4069C16.6729 20.3999 16.694 20.3856 16.7094 20.366C17.511 19.3855 18.0277 18.2036 18.2033 16.9494C18.3788 15.6951 18.2064 14.4168 17.7049 13.2538C17.2033 12.0909 16.3919 11.0882 15.3592 10.355C14.3265 9.62192 13.1122 9.18663 11.8489 9.09668Z" fill="#00FFFF"/>
<path opacity="0.5" d="M15.7013 21.0296L15.5058 21.0812C15.4661 21.0921 15.4243 21.0923 15.3846 21.0818C15.3448 21.0712 15.3086 21.0504 15.2795 21.0213C15.2504 20.9922 15.2295 20.956 15.219 20.9162C15.2085 20.8765 15.2087 20.8346 15.2196 20.795L15.2729 20.5994L15.4169 20.0661C14.4074 21.081 13.0545 21.6813 11.6246 21.7487C10.1946 21.8162 8.79127 21.3459 7.69068 20.4305C7.2622 20.0745 6.88684 19.6591 6.57601 19.1968C6.56535 19.1807 6.55063 19.1679 6.53335 19.1594L5.96624 18.8679C5.92971 18.849 5.88883 18.8401 5.84775 18.8421C5.80667 18.8441 5.76685 18.857 5.73236 18.8794C5.69786 18.9017 5.66991 18.9329 5.65135 18.9696C5.63278 19.0063 5.62427 19.0473 5.62668 19.0883L5.66757 19.9043C5.66923 19.9271 5.67656 19.9491 5.6889 19.9683C5.97525 20.376 6.30422 20.7521 6.67024 21.0901C7.98234 22.302 9.71303 22.9584 11.4988 22.9212C13.2846 22.8841 14.9865 22.1564 16.2471 20.891L15.7013 21.0296Z" fill="#00FFFF"/>
<path d="M5.25515 18.6954L5.24448 18.4891C5.24262 18.4483 5.25149 18.4076 5.2702 18.3712C5.2889 18.3348 5.3168 18.304 5.35112 18.2817C5.38545 18.2594 5.425 18.2465 5.46585 18.2442C5.50671 18.2419 5.54745 18.2504 5.58404 18.2687L5.76181 18.3611L6.22937 18.5994C5.85416 17.8626 5.64243 17.0536 5.60863 16.2275C5.57483 15.4014 5.71977 14.5777 6.03354 13.8128C6.34732 13.0478 6.82252 12.3597 7.4267 11.7952C8.03087 11.2308 8.74976 10.8035 9.53426 10.5425C10.0342 10.3757 10.5546 10.2782 11.0809 10.2527C11.0999 10.2526 11.1184 10.2471 11.1343 10.2367L11.7707 9.8527C11.8057 9.8315 11.8345 9.80145 11.8542 9.76558C11.8739 9.7297 11.8838 9.68927 11.8829 9.64835C11.882 9.60743 11.8703 9.56748 11.8491 9.5325C11.8278 9.49753 11.7977 9.46878 11.7618 9.44914L11.1289 9.09359C11.11 9.08281 11.0884 9.07786 11.0667 9.07936C10.5405 9.10001 10.0185 9.18174 9.51115 9.32292C8.50541 9.59986 7.57542 10.1009 6.79093 10.7885C6.00643 11.4761 5.38779 12.3323 4.98139 13.2931C4.57499 14.2538 4.39138 15.2941 4.44433 16.336C4.49729 17.3778 4.78543 18.3941 5.28715 19.3087L5.25515 18.6954Z" fill="#00FFFF"/>
</g>
<defs>
<linearGradient id="paint0_linear_855_8524" x1="16" y1="24.3768" x2="16" y2="7.62305" gradientUnits="userSpaceOnUse">
<stop stop-color="#005BA1"/>
<stop offset="1" stop-color="#0078D4"/>
</linearGradient>
<clipPath id="clip0_855_8524">
<rect width="32" height="32" fill="white"/>
</clipPath>
</defs>
</svg>
