<svg width="32" height="32" viewBox="0 0 32 32" fill="none" xmlns="http://www.w3.org/2000/svg">
<path d="M17.1324 22.7239C17.1348 20.6113 17.975 18.586 19.4688 17.0922C20.9626 15.5985 22.9879 14.7582 25.1004 14.7559C26.2643 14.7613 27.4125 15.0248 28.4622 15.5274C28.2054 14.201 27.5433 12.987 26.5674 12.0528C25.5914 11.1185 24.3497 10.5101 23.0133 10.3114C22.9551 8.15457 22.0454 6.10848 20.483 4.62039C18.9206 3.13231 16.8327 2.32326 14.6756 2.37009C12.944 2.35254 11.2497 2.87342 9.82705 3.86071C8.4044 4.84801 7.32364 6.25293 6.73422 7.8812C4.87883 8.12367 3.17418 9.03033 1.936 10.4333C0.697818 11.8362 0.0100212 13.6403 0 15.5114C0.0576849 17.5899 0.938098 19.5604 2.44781 20.9901C3.95752 22.4198 5.97304 23.1918 8.05156 23.1363H17.1751C17.168 22.9959 17.1324 22.8661 17.1324 22.7239Z" fill="url(#paint0_linear_855_8602)"/>
<path d="M7.66934 16.5098C8.31441 16.5098 8.83734 15.9869 8.83734 15.3418C8.83734 14.6968 8.31441 14.1738 7.66934 14.1738C7.02427 14.1738 6.50134 14.6968 6.50134 15.3418C6.50134 15.9869 7.02427 16.5098 7.66934 16.5098Z" fill="#E3E3E3"/>
<path d="M11.7814 15.7869V14.85H11.6498L10.6454 14.5211L10.3822 13.8794L10.8925 12.8002L10.2347 12.1425H10.1031L9.16624 12.6225L8.53336 12.3647L8.12091 11.2305H7.17513V11.362L6.84624 12.3647L6.15469 12.6225L5.08802 12.1122L4.43024 12.77V12.9016L4.90669 13.8385L4.64358 14.4802L3.49158 14.8909V15.9114H3.62313L4.62758 16.2402L4.88891 16.8891L4.37869 17.9754L5.03647 18.6331H5.16802L6.10669 18.1549L6.74669 18.418L7.15913 19.5558H8.09602V19.4242L8.42491 18.4198L9.06669 18.1567L10.1529 18.6669L10.8107 18.0091V17.8776L10.3325 16.9407L10.5956 16.2989L11.7814 15.7869ZM7.66936 17.1522C7.19549 17.148 6.7426 16.9563 6.40976 16.6189C6.07693 16.2816 5.89126 15.8262 5.89337 15.3523C5.89549 14.8784 6.08522 14.4247 6.42105 14.0904C6.75688 13.756 7.21147 13.5683 7.68535 13.5683C8.15924 13.5683 8.61383 13.756 8.94966 14.0904C9.28549 14.4247 9.47522 14.8784 9.47734 15.3523C9.47945 15.8262 9.29378 16.2816 8.96095 16.6189C8.62811 16.9563 8.17522 17.148 7.70135 17.1522H7.66936Z" fill="white"/>
<path d="M15.4986 11.6904C16.2615 11.6904 16.88 11.072 16.88 10.3091C16.88 9.54618 16.2615 8.92773 15.4986 8.92773C14.7358 8.92773 14.1173 9.54618 14.1173 10.3091C14.1173 11.072 14.7358 11.6904 15.4986 11.6904Z" fill="#E3E3E3"/>
<path d="M20.4338 10.8445V9.71741H20.2844L19.0684 9.33874L18.7875 8.49963L19.3973 7.18407L18.608 6.40007H18.4586L17.3244 6.97607L16.5671 6.66318L16.0746 5.29785H14.9066V5.46141L14.512 6.66318L13.7386 6.97607L12.4551 6.3663L11.6658 7.15563L11.7475 7.30496L12.208 8.52096L11.9449 9.34407L10.5635 9.78852V10.9885H10.7289L11.9289 11.3779L12.208 12.1192L11.6 13.4347L12.4231 14.2739L12.5866 14.1921L13.7049 13.6161L14.4782 13.9272L14.9724 15.2925H16.0906V15.129L16.4853 13.9272L17.2586 13.6161L18.5582 14.2223L19.3475 13.433L19.2658 13.2854L18.7875 12.0996L19.1004 11.3281L20.4338 10.8445ZM15.4986 12.4801C15.0693 12.4801 14.6495 12.3527 14.2925 12.1141C13.9355 11.8755 13.6573 11.5364 13.493 11.1397C13.3288 10.7429 13.2859 10.3064 13.3698 9.88528C13.4537 9.46416 13.6606 9.07739 13.9644 8.77389C14.2681 8.47038 14.6551 8.26379 15.0763 8.18023C15.4974 8.09668 15.934 8.13992 16.3306 8.30448C16.7272 8.46905 17.0661 8.74755 17.3044 9.10474C17.5427 9.46194 17.6697 9.88179 17.6693 10.3112C17.6736 10.8817 17.4514 11.4307 17.0514 11.8376C16.6515 12.2445 16.1065 12.4762 15.536 12.4819L15.4986 12.4801Z" fill="white"/>
<path d="M25.104 15.8223C23.7388 15.8212 22.404 16.2251 21.2684 16.9828C20.1327 17.7404 19.2474 18.8179 18.7242 20.0789C18.201 21.3398 18.0636 22.7276 18.3293 24.0667C18.595 25.4058 19.2518 26.636 20.2168 27.6017C21.1818 28.5674 22.4114 29.2252 23.7503 29.4919C25.0892 29.7587 26.4771 29.6223 27.7385 29.1001C28.9998 28.5779 30.078 27.6934 30.8365 26.5583C31.5951 25.4233 32 24.0888 32 22.7236C32 20.8936 31.2731 19.1385 29.9793 17.8443C28.6854 16.5501 26.9305 15.8227 25.1004 15.8223H25.104Z" fill="url(#paint1_linear_855_8602)"/>
<path d="M28.6222 18.8711L24.5547 18.896C24.506 18.8937 24.4577 18.9064 24.4163 18.9322C24.375 18.9581 24.3425 18.9959 24.3232 19.0407C24.3039 19.0855 24.2987 19.1351 24.3083 19.183C24.3179 19.2308 24.3418 19.2746 24.3769 19.3084L25.84 20.7431L23.1111 23.4791L21.6782 22.0178C21.6447 21.9837 21.6019 21.9603 21.5551 21.9505C21.5083 21.9408 21.4597 21.9451 21.4153 21.963C21.371 21.9809 21.333 22.0115 21.306 22.051C21.2791 22.0905 21.2645 22.1371 21.264 22.1849L21.2391 26.2524C21.2391 26.3387 21.2734 26.4215 21.3344 26.4825C21.3954 26.5435 21.4782 26.5778 21.5645 26.5778L25.632 26.5529C25.6637 26.5529 25.695 26.5466 25.7243 26.5344C25.7535 26.5223 25.7801 26.5044 25.8024 26.482C25.8247 26.4595 25.8423 26.4328 25.8543 26.4035C25.8662 26.3742 25.8723 26.3428 25.872 26.3111C25.8726 26.2782 25.8666 26.2456 25.8544 26.215C25.8422 26.1845 25.824 26.1567 25.8009 26.1333L24.3378 24.6986L27.0738 21.9626L28.5085 23.424C28.5423 23.4572 28.5851 23.4799 28.6316 23.4892C28.6781 23.4984 28.7264 23.4939 28.7703 23.4762C28.8143 23.4584 28.8522 23.4282 28.8793 23.3893C28.9063 23.3503 28.9214 23.3043 28.9227 23.2569L28.9476 19.1893C28.9457 19.1043 28.9106 19.0233 28.8498 18.9639C28.789 18.9044 28.7073 18.8711 28.6222 18.8711Z" fill="white"/>
<defs>
<linearGradient id="paint0_linear_855_8602" x1="14.2329" y1="3.31942" x2="14.2329" y2="22.5692" gradientUnits="userSpaceOnUse">
<stop stop-color="#5EA0EF"/>
<stop offset="1" stop-color="#0078D4"/>
</linearGradient>
<linearGradient id="paint1_linear_855_8602" x1="25.1004" y1="15.824" x2="25.1004" y2="29.9965" gradientUnits="userSpaceOnUse">
<stop stop-color="#FAA21D"/>
<stop offset="0.4" stop-color="#F79415"/>
<stop offset="1" stop-color="#EF7100"/>
</linearGradient>
</defs>
</svg>
