<svg width="32" height="32" viewBox="0 0 32 32" fill="none" xmlns="http://www.w3.org/2000/svg">
<g clip-path="url(#clip0_855_8583)">
<path d="M32 15.9801C32.001 17.474 31.7498 18.9574 31.2569 20.3676C31.1538 20.661 31.04 20.949 30.9191 21.2316C30.722 21.6926 30.4976 22.1414 30.2471 22.5756C29.3612 24.1199 28.173 25.4697 26.7536 26.5443C25.3341 27.6189 23.7125 28.3962 21.9858 28.8298H21.9609L21.8507 28.8583L21.7956 28.869C21.2685 28.9936 20.7341 29.0851 20.1956 29.1427C19.936 29.1712 19.6729 29.1907 19.408 29.2014C19.36 29.2014 19.312 29.2014 19.264 29.2014C19.1058 29.2014 18.9476 29.2121 18.7894 29.2121C15.9984 29.2128 13.2787 28.3307 11.0195 26.692C8.7603 25.0532 7.07738 22.7418 6.21158 20.0885C6.02226 19.5071 5.87434 18.913 5.76892 18.3107C5.63068 17.5374 5.56167 16.7532 5.56269 15.9676C5.56212 15.2146 5.62516 14.4629 5.75114 13.7205C6.2788 10.6464 7.87557 7.85763 10.2596 5.84641C12.6435 3.8352 15.6614 2.73092 18.7805 2.72852C18.9867 2.72852 19.1929 2.72852 19.3991 2.74274C22.7989 2.90507 26.0053 4.37123 28.352 6.83648C30.6988 9.30173 32.0053 12.5765 32 15.9801Z" fill="url(#paint0_linear_855_8583)"/>
<path d="M18.7804 22.2218C22.2218 22.2218 25.0115 19.4273 25.0115 15.9801C25.0115 12.5328 22.2218 9.73828 18.7804 9.73828C15.3391 9.73828 12.5493 12.5328 12.5493 15.9801C12.5493 19.4273 15.3391 22.2218 18.7804 22.2218Z" fill="url(#paint1_linear_855_8583)"/>
<path d="M18.464 1.04492H0.935111C0.418664 1.04492 0 1.46359 0 1.98003V30.0209C0 30.5374 0.418664 30.956 0.935111 30.956H18.464C18.9804 30.956 19.3991 30.5374 19.3991 30.0209V1.98003C19.3991 1.46359 18.9804 1.04492 18.464 1.04492Z" fill="url(#paint2_linear_855_8583)"/>
<path d="M14.928 12.9102L14.9653 19.0257L9.744 22.1279L9.70667 15.9999L14.928 12.9102Z" fill="#50E6FF"/>
<path d="M14.928 12.9101L9.70844 16.0123L4.43555 12.9723L9.6711 9.87012L14.928 12.9101Z" fill="#C3F1FF"/>
<path d="M9.70844 16.0127L9.74399 22.1282L4.47288 19.09L4.43555 12.9727L9.70844 16.0127Z" fill="#9CEBFF"/>
<path d="M4.4729 19.0898L9.70668 16L9.74401 22.128L4.4729 19.0898Z" fill="#C3F1FF"/>
<path d="M14.9653 19.0258L9.70667 16L9.744 22.128L14.9653 19.0258Z" fill="#9CEBFF"/>
</g>
<defs>
<linearGradient id="paint0_linear_855_8583" x1="18.7805" y1="2.3694" x2="18.7805" y2="29.8041" gradientUnits="userSpaceOnUse">
<stop stop-color="#999999"/>
<stop offset="0.999" stop-color="#767676"/>
</linearGradient>
<linearGradient id="paint1_linear_855_8583" x1="18.7804" y1="9.56228" x2="18.7804" y2="22.4974" gradientUnits="userSpaceOnUse">
<stop offset="0.001" stop-color="#B3B3B3"/>
<stop offset="1" stop-color="#999999"/>
</linearGradient>
<linearGradient id="paint2_linear_855_8583" x1="9.69956" y1="0.623589" x2="9.69956" y2="31.612" gradientUnits="userSpaceOnUse">
<stop stop-color="#0078D4"/>
<stop offset="1" stop-color="#005BA1"/>
</linearGradient>
<clipPath id="clip0_855_8583">
<rect width="32" height="32" fill="white"/>
</clipPath>
</defs>
</svg>
