<svg width="32" height="32" viewBox="0 0 32 32" fill="none" xmlns="http://www.w3.org/2000/svg">
<g clip-path="url(#clip0_855_8569)">
<path d="M22.8444 4.01244L16 8.03022L9.15556 4.01244L16 0L22.8444 4.01244ZM10.9333 18.3964L9.63556 17.632L6.85156 16L0 19.9964L6.84444 24.0142L13.6889 19.9964L10.9333 18.3964ZM25.1556 15.9964L22.3644 17.632L21.0667 18.3964L18.3111 19.9964L23.84 23.2498L25.1556 24.0142L25.7956 23.6409L32 19.9964L25.1556 15.9964Z" fill="#B796F9"/>
<path d="M16 8.03243V16.0004L13.2267 14.3826L11.9289 13.6182L9.15555 12.0004V4.01465L15.36 7.65909L16 8.03243ZM0 20.0058V27.988L6.85156 32.0004V24.0235L0 20.0058ZM23.8471 23.2502V23.2324L18.3182 19.9969V27.9969L25.1627 32.0004V24.0182L23.8471 23.2502Z" fill="#A67AF4"/>
<path d="M21.4773 23.9821C21.7532 24.1612 21.9784 24.408 22.1316 24.6991C22.2847 24.9901 22.3606 25.3156 22.352 25.6443C22.3539 25.7687 22.3101 25.8893 22.2288 25.9834C22.1475 26.0775 22.0344 26.1384 21.9111 26.1545H21.8685C21.9911 26.6985 22.112 27.2372 22.2347 27.7759C22.2702 27.9412 22.3076 28.1065 22.3449 28.2701C22.384 28.4621 22.2827 28.5634 22.1333 28.4763L21.8862 28.3359L21.6409 28.1937C21.3541 28.0265 21.0679 27.8618 20.7822 27.6994C20.7077 27.6495 20.6485 27.5798 20.6111 27.4982C20.5738 27.4166 20.5598 27.3263 20.5707 27.2372C20.7307 26.7448 20.8818 26.247 21.0365 25.751C21.0525 25.703 21.0489 25.6745 21.0027 25.6123C20.7062 25.2677 20.5546 24.8218 20.5796 24.3679C20.6205 23.9821 20.8231 23.8079 21.1556 23.8594C21.2693 23.8808 21.3783 23.9223 21.4773 23.9821Z" fill="url(#paint0_linear_855_8569)"/>
<path d="M22.8516 4.01465V11.9969L20.0782 13.6146L18.7805 14.3791L16 16.0004V8.01465L22.8516 4.01465ZM8.16712 23.2324V23.2502L6.85156 24.0146V32.0004L13.696 28.0004V20.0004L8.16712 23.2324ZM25.1627 24.0093V32.0004L32 27.988V20.0058L25.1627 24.0093ZM13.6889 23.268V24.7791H18.3111V23.268H13.6889ZM11.9289 13.6146L9.63556 17.6324L10.9333 18.3969L13.2267 14.3791L11.9289 13.6146ZM20.0711 13.6146L18.7733 14.3791L21.0667 18.3969L22.3645 17.6324L20.0711 13.6146Z" fill="#773ADC"/>
<path d="M12.3235 7.99988C12.5992 8.17904 12.8242 8.42597 12.977 8.71702C13.1299 9.00807 13.2054 9.33349 13.1964 9.6621C13.198 9.78586 13.1542 9.9059 13.0733 9.99957C12.9924 10.0932 12.88 10.1541 12.7573 10.1705H12.7129C12.8355 10.7145 12.9564 11.2532 13.0791 11.7919C13.1147 11.9572 13.1538 12.1225 13.1893 12.2879C13.2249 12.4532 13.1271 12.5794 12.9778 12.4923L12.7307 12.3519L12.4853 12.2097L11.6267 11.7119C11.5521 11.6619 11.4929 11.5923 11.4555 11.5107C11.4182 11.4291 11.4042 11.3387 11.4151 11.2497C11.5751 10.7572 11.7262 10.2594 11.8809 9.76344C11.8969 9.71544 11.8933 9.68699 11.8471 9.62477C11.5507 9.28016 11.399 8.83422 11.424 8.38033C11.4649 7.99455 11.6693 7.82033 12.0018 7.87366C12.1158 7.89588 12.2248 7.93865 12.3235 7.99988Z" fill="url(#paint1_linear_855_8569)"/>
<path d="M3.16797 23.9821C3.44336 24.1615 3.66818 24.4085 3.82098 24.6995C3.97379 24.9905 4.04949 25.3158 4.04086 25.6443C4.04283 25.7684 3.99922 25.8889 3.91828 25.9829C3.83735 26.0769 3.72472 26.138 3.60175 26.1545H3.5573C3.67997 26.6985 3.80086 27.2372 3.92353 27.7759C3.95908 27.9412 3.99819 28.1065 4.03375 28.2701C4.07464 28.4621 3.97153 28.5634 3.82219 28.4763L3.57508 28.3359L3.32975 28.1937C3.04293 28.0265 2.75671 27.8618 2.47108 27.6994C2.39653 27.6495 2.33729 27.5798 2.29995 27.4982C2.2626 27.4166 2.24861 27.3263 2.25953 27.2372C2.41953 26.7448 2.57064 26.247 2.72708 25.751C2.74308 25.703 2.73775 25.6745 2.69153 25.6123C2.39507 25.2677 2.24345 24.8218 2.26841 24.3679C2.3093 23.9821 2.51375 23.8079 2.84619 23.8594C2.95974 23.8814 3.06862 23.9229 3.16797 23.9821Z" fill="url(#paint2_linear_855_8569)"/>
</g>
<defs>
<linearGradient id="paint0_linear_855_8569" x1="20.56" y1="26.1848" x2="22.3591" y2="26.1848" gradientUnits="userSpaceOnUse">
<stop offset="0.001" stop-color="#773ADC"/>
<stop offset="1" stop-color="#552F99"/>
</linearGradient>
<linearGradient id="paint1_linear_855_8569" x1="11.4044" y1="10.1919" x2="13.2035" y2="10.1919" gradientUnits="userSpaceOnUse">
<stop offset="0.001" stop-color="#773ADC"/>
<stop offset="1" stop-color="#552F99"/>
</linearGradient>
<linearGradient id="paint2_linear_855_8569" x1="2.24886" y1="26.1848" x2="4.04975" y2="26.1848" gradientUnits="userSpaceOnUse">
<stop offset="0.001" stop-color="#773ADC"/>
<stop offset="1" stop-color="#552F99"/>
</linearGradient>
<clipPath id="clip0_855_8569">
<rect width="32" height="32" fill="white"/>
</clipPath>
</defs>
</svg>
