<svg width="32" height="32" viewBox="0 0 32 32" fill="none" xmlns="http://www.w3.org/2000/svg">
<path d="M15.3191 15.3672H1.13599V3.1716C1.13596 2.62803 1.35054 2.10644 1.73307 1.72026C2.11559 1.33407 2.63511 1.11453 3.17865 1.10938H15.3191V15.3672ZM2.89776 13.6054H13.5644V2.83382H3.17865C3.10416 2.83382 3.03271 2.86341 2.98003 2.91609C2.92736 2.96877 2.89776 3.04021 2.89776 3.11471V13.6054Z" fill="#949494"/>
<path d="M31.1111 15.3672H16.9297V1.10938H29.0684C29.612 1.11453 30.1315 1.33407 30.514 1.72026C30.8965 2.10644 31.1111 2.62803 31.1111 3.1716V15.3672ZM18.6897 13.6054H29.3564V3.1716C29.3642 3.13539 29.3647 3.098 29.3579 3.06159C29.3511 3.02519 29.3371 2.99051 29.3167 2.95957C29.2964 2.92863 29.2701 2.90204 29.2393 2.88137C29.2086 2.8607 29.1741 2.84635 29.1377 2.83915C29.117 2.83733 29.0962 2.83733 29.0755 2.83915H18.6897V13.6054Z" fill="#949494"/>
<path d="M15.3191 31.0849H3.17865C2.64028 31.0849 2.12366 30.8724 1.74114 30.4936C1.35862 30.1147 1.14114 29.6001 1.13599 29.0618V16.8467H15.3191V31.0849ZM2.89776 18.6085V29.0618C2.89776 29.1363 2.92736 29.2077 2.98003 29.2604C3.03271 29.3131 3.10416 29.3427 3.17865 29.3427H13.5573V18.6085H2.89776Z" fill="#949494"/>
<path d="M29.0684 31.0849H16.9297V16.8467H31.1111V29.0618C31.1059 29.6001 30.8884 30.1147 30.5059 30.4936C30.1234 30.8724 29.6068 31.0849 29.0684 31.0849ZM18.6897 29.3231H29.0684C29.1054 29.3234 29.142 29.3163 29.1762 29.3022C29.2104 29.2882 29.2414 29.2675 29.2676 29.2414C29.2937 29.2153 29.3144 29.1842 29.3284 29.15C29.3424 29.1158 29.3495 29.0792 29.3493 29.0422V18.6085H18.6826L18.6897 29.3231Z" fill="#949494"/>
<path d="M25.9556 11.1889C25.9553 11.0797 25.9209 10.9733 25.8572 10.8847C25.7934 10.796 25.7035 10.7296 25.6 10.6947L16.0782 7.47513C16.0529 7.46764 16.0264 7.46464 16 7.46624C15.9689 7.466 15.938 7.47196 15.9092 7.48376C15.8804 7.49555 15.8543 7.51296 15.8323 7.53497C15.8103 7.55697 15.7929 7.58313 15.7811 7.61192C15.7693 7.64072 15.7633 7.67157 15.7636 7.70268V24.4938C15.7636 24.5565 15.7885 24.6166 15.8328 24.661C15.8772 24.7053 15.9373 24.7302 16 24.7302C16.0299 24.7297 16.0594 24.7236 16.0871 24.7125L25.6249 20.8991C25.7216 20.8606 25.8045 20.7939 25.8629 20.7077C25.9212 20.6215 25.9523 20.5197 25.952 20.4156L25.9556 11.1889Z" fill="url(#paint0_linear_855_8605)"/>
<path d="M15.9395 7.46642L6.52976 9.18376C6.46465 9.19653 6.406 9.23153 6.36385 9.28277C6.32169 9.334 6.29864 9.3983 6.29865 9.46465V22.4531C6.29838 22.5182 6.32048 22.5815 6.36125 22.6323C6.40202 22.6831 6.459 22.7184 6.52265 22.7322L15.9324 24.7286C16.0059 24.7446 16.0828 24.731 16.1463 24.6907C16.2099 24.6505 16.255 24.5868 16.272 24.5135C16.2737 24.4922 16.2737 24.4708 16.272 24.4495V7.74731C16.2711 7.6746 16.2425 7.60496 16.1919 7.55272C16.1413 7.50048 16.0726 7.4696 16 7.46642C15.9799 7.46432 15.9596 7.46432 15.9395 7.46642Z" fill="url(#paint1_linear_855_8605)"/>
<path opacity="0.5" d="M11.5911 10.055V22.1439L14.8658 22.6773V9.48438L11.5911 10.055ZM7.56976 10.7075V21.2942L10.4142 21.8737V10.2293L7.56976 10.7075Z" fill="#B796F9"/>
<defs>
<linearGradient id="paint0_linear_855_8605" x1="20.8516" y1="8.67513" x2="20.8516" y2="23.2867" gradientUnits="userSpaceOnUse">
<stop offset="0.001" stop-color="#773ADC"/>
<stop offset="0.528" stop-color="#6635BB"/>
<stop offset="1" stop-color="#552F99"/>
</linearGradient>
<linearGradient id="paint1_linear_855_8605" x1="11.2889" y1="24.7358" x2="11.2889" y2="7.46287" gradientUnits="userSpaceOnUse">
<stop offset="0.001" stop-color="#773ADC"/>
<stop offset="0.307" stop-color="#793DDD"/>
<stop offset="0.532" stop-color="#8046E1"/>
<stop offset="0.731" stop-color="#8C56E7"/>
<stop offset="0.915" stop-color="#9C6DEF"/>
<stop offset="1" stop-color="#A67AF4"/>
</linearGradient>
</defs>
</svg>
