<svg width="32" height="32" viewBox="0 0 32 32" fill="none" xmlns="http://www.w3.org/2000/svg">
<g clip-path="url(#clip0_855_8510)">
<path d="M8.2969 9.51133H0.567122C0.416715 9.51133 0.272468 9.45158 0.166114 9.34523C0.0597602 9.23888 1.1147e-05 9.09463 1.1147e-05 8.94422V3.74778C1.1147e-05 3.59737 0.0597602 3.45312 0.166114 3.34677C0.272468 3.24042 0.416715 3.18067 0.567122 3.18067H8.2969C8.44731 3.18067 8.59155 3.24042 8.69791 3.34677C8.80426 3.45312 8.86401 3.59737 8.86401 3.74778V8.94422C8.86401 9.09463 8.80426 9.23888 8.69791 9.34523C8.59155 9.45158 8.44731 9.51133 8.2969 9.51133ZM8.2969 18.7558H0.567122C0.492498 18.7558 0.418608 18.741 0.349687 18.7124C0.280766 18.6838 0.218169 18.6419 0.165484 18.589C0.1128 18.5362 0.0710638 18.4735 0.0426686 18.4045C0.0142733 18.3354 -0.000222784 18.2615 1.1147e-05 18.1869V12.9904C1.1147e-05 12.84 0.0597602 12.6958 0.166114 12.5894C0.272468 12.4831 0.416715 12.4233 0.567122 12.4233H8.2969C8.44731 12.4233 8.59155 12.4831 8.69791 12.5894C8.80426 12.6958 8.86401 12.84 8.86401 12.9904V18.1869C8.86401 18.3373 8.80426 18.4815 8.69791 18.5879C8.59155 18.6943 8.44731 18.754 8.2969 18.754V18.7558ZM19.9911 9.51133H12.2667C12.1921 9.51157 12.1181 9.49707 12.0491 9.46868C11.9801 9.44028 11.9174 9.39854 11.8645 9.34586C11.8117 9.29318 11.7697 9.23058 11.7411 9.16166C11.7125 9.09274 11.6978 9.01885 11.6978 8.94422V3.74778C11.6978 3.67315 11.7125 3.59926 11.7411 3.53034C11.7697 3.46142 11.8117 3.39882 11.8645 3.34614C11.9174 3.29346 11.9801 3.25172 12.0491 3.22332C12.1181 3.19493 12.1921 3.18043 12.2667 3.18067H19.9947C20.0692 3.18067 20.1429 3.19534 20.2117 3.22384C20.2805 3.25234 20.343 3.29411 20.3957 3.34677C20.4483 3.39943 20.4901 3.46195 20.5186 3.53075C20.5471 3.59956 20.5618 3.6733 20.5618 3.74778V8.94422C20.5618 9.019 20.547 9.09303 20.5183 9.16207C20.4896 9.23111 20.4475 9.29378 20.3944 9.34649C20.3414 9.3992 20.2785 9.4409 20.2092 9.46919C20.14 9.49748 20.0659 9.5118 19.9911 9.51133ZM19.9911 28.0002H12.2667C12.1158 28.0002 11.9711 27.9403 11.8644 27.8336C11.7577 27.7269 11.6978 27.5822 11.6978 27.4313V22.2331C11.6978 22.1585 11.7125 22.0846 11.7411 22.0157C11.7697 21.9468 11.8117 21.8842 11.8645 21.8315C11.9174 21.7788 11.9801 21.7371 12.0491 21.7087C12.1181 21.6803 12.1921 21.6658 12.2667 21.666H19.9947C20.0692 21.666 20.1429 21.6807 20.2117 21.7092C20.2805 21.7377 20.343 21.7794 20.3957 21.8321C20.4483 21.8848 20.4901 21.9473 20.5186 22.0161C20.5471 22.0849 20.5618 22.1586 20.5618 22.2331V27.4296C20.562 27.5045 20.5474 27.5787 20.5188 27.6479C20.4902 27.7172 20.4481 27.7801 20.3951 27.833C20.342 27.8859 20.279 27.9277 20.2097 27.9561C20.1403 27.9845 20.066 27.9989 19.9911 27.9984V28.0002ZM8.2969 28.0002H0.567122C0.492348 28.0002 0.418312 27.9854 0.349274 27.9567C0.280236 27.928 0.21756 27.8859 0.164852 27.8329C0.112144 27.7798 0.0704452 27.7169 0.0421551 27.6477C0.0138651 27.5785 -0.000457657 27.5043 1.1147e-05 27.4296V22.2331C1.1147e-05 22.0827 0.0597602 21.9385 0.166114 21.8321C0.272468 21.7257 0.416715 21.666 0.567122 21.666H8.2969C8.44731 21.666 8.59155 21.7257 8.69791 21.8321C8.80426 21.9385 8.86401 22.0827 8.86401 22.2331V27.4296C8.86424 27.5042 8.84975 27.5781 8.82135 27.6471C8.79296 27.7161 8.75122 27.7789 8.69854 27.8317C8.64585 27.8846 8.58326 27.9265 8.51433 27.9551C8.44541 27.9837 8.37152 27.9984 8.2969 27.9984V28.0002Z" fill="url(#paint0_linear_855_8510)"/>
<path d="M23.4969 6.68092L31.7138 14.896C31.8974 15.0797 32.0005 15.3288 32.0005 15.5885C32.0005 15.8482 31.8974 16.0972 31.7138 16.2809L23.4969 24.4978C23.4357 24.559 23.3578 24.6007 23.2729 24.6176C23.1881 24.6345 23.1001 24.6258 23.0202 24.5927C22.9403 24.5596 22.8719 24.5035 22.8239 24.4315C22.7758 24.3596 22.7502 24.275 22.7502 24.1885V19.136C22.7502 19.0786 22.7389 19.0217 22.7169 18.9687C22.695 18.9156 22.6628 18.8674 22.6221 18.8268C22.5815 18.7862 22.5333 18.754 22.4803 18.732C22.4272 18.71 22.3703 18.6987 22.3129 18.6987H12.0445C11.9502 18.6987 11.8597 18.6612 11.793 18.5946C11.7264 18.5279 11.6889 18.4374 11.6889 18.3431V12.832C11.6889 12.7377 11.7264 12.6473 11.793 12.5806C11.8597 12.5139 11.9502 12.4765 12.0445 12.4765H22.3129C22.3703 12.4765 22.4272 12.4652 22.4803 12.4432C22.5333 12.4212 22.5815 12.389 22.6221 12.3484C22.6628 12.3078 22.695 12.2596 22.7169 12.2065C22.7389 12.1534 22.7502 12.0966 22.7502 12.0391V6.99025C22.7502 6.90373 22.7758 6.81914 22.8239 6.74719C22.8719 6.67523 22.9403 6.61915 23.0202 6.58603C23.1001 6.55292 23.1881 6.54426 23.2729 6.56115C23.3578 6.57804 23.4357 6.61972 23.4969 6.68092Z" fill="#86D633"/>
</g>
<defs>
<linearGradient id="paint0_linear_855_8510" x1="10.2791" y1="3.18067" x2="10.2791" y2="27.9984" gradientUnits="userSpaceOnUse">
<stop stop-color="#5EA0EF"/>
<stop offset="1" stop-color="#0078D4"/>
</linearGradient>
<clipPath id="clip0_855_8510">
<rect width="32" height="32" fill="white"/>
</clipPath>
</defs>
</svg>
