<svg width="32" height="32" viewBox="0 0 32 32" fill="none" xmlns="http://www.w3.org/2000/svg">
<g clip-path="url(#clip0_855_8572)">
<path d="M24.8996 0.835555V16.0871H24.816H24.7662L23.7138 16.096H23.6444C23.6202 16.0943 23.5958 16.0943 23.5716 16.096C22.3854 16.2126 21.2378 16.5816 20.206 17.1783C19.1742 17.775 18.282 18.5856 17.5893 19.5556C17.5396 19.6231 17.4951 19.6889 17.4507 19.7547C17.4321 19.7759 17.416 19.7991 17.4027 19.824C17.3867 19.8469 17.373 19.8713 17.3618 19.8969L17.344 19.936L17.3209 20.0071H16.1156C16.1429 19.7836 16.0954 19.5572 15.9804 19.3636C15.8921 19.2103 15.7826 19.0702 15.6551 18.9476L12.7431 15.776C12.6381 15.6425 12.5061 15.5329 12.3556 15.4542C12.1902 15.3704 12.0076 15.3266 11.8222 15.3262C11.6468 15.3263 11.4737 15.366 11.3158 15.4423C11.1578 15.5186 11.0192 15.6297 10.9102 15.7671L7.78133 18.9991C7.63702 19.1223 7.52428 19.2783 7.45252 19.4539C7.38077 19.6296 7.3521 19.8199 7.36889 20.0089H0.847999C0.626849 20.0079 0.41505 19.9196 0.258838 19.763C0.102627 19.6065 0.0146887 19.3945 0.0142212 19.1733V0.819556C0.0179515 0.600898 0.10744 0.392459 0.263401 0.239158C0.419362 0.0858574 0.62931 -3.18084e-05 0.847999 8.83677e-09H24.064C24.2855 0.0004697 24.4977 0.088652 24.6543 0.245247C24.8109 0.401843 24.8991 0.614097 24.8996 0.835555Z" fill="#005BA1"/>
<path d="M27.232 8.05176V16.5638C26.1231 16.1612 24.9414 15.998 23.7649 16.085C22.5883 16.172 21.4435 16.5071 20.4058 17.0684C19.3681 17.6296 18.461 18.4043 17.7442 19.3413C17.0274 20.2784 16.5172 21.3566 16.2471 22.5051H3.59824C3.38088 22.5051 3.17243 22.4187 3.01873 22.265C2.86503 22.1114 2.77869 21.9029 2.77869 21.6855V8.05176H27.232Z" fill="url(#paint0_linear_855_8572)"/>
<path d="M3.60001 2.84473H26.4107C26.5185 2.84449 26.6252 2.86552 26.7249 2.9066C26.8245 2.94768 26.9151 3.00802 26.9913 3.08414C27.0676 3.16027 27.1282 3.25069 27.1695 3.35024C27.2108 3.44979 27.232 3.55651 27.232 3.66428V8.05184H2.78046V3.65006C2.78373 3.43503 2.87157 3.22994 3.02497 3.07921C3.17836 2.92848 3.38496 2.84424 3.60001 2.84473Z" fill="#0078D4"/>
<path d="M21.1342 11.7178C21.5097 11.7178 21.8768 11.8291 22.1891 12.0378C22.5013 12.2464 22.7447 12.5429 22.8884 12.8899C23.0321 13.2368 23.0697 13.6185 22.9964 13.9869C22.9231 14.3552 22.7423 14.6935 22.4768 14.959C22.2112 15.2245 21.8729 15.4054 21.5046 15.4786C21.1363 15.5519 20.7546 15.5143 20.4076 15.3706C20.0607 15.2269 19.7642 14.9835 19.5555 14.6713C19.3469 14.359 19.2356 13.992 19.2356 13.6164C19.2356 13.1129 19.4356 12.6299 19.7917 12.2739C20.1477 11.9178 20.6307 11.7178 21.1342 11.7178ZM13.1893 13.6164C13.1893 13.992 13.3007 14.359 13.5093 14.6713C13.7179 14.9835 14.0145 15.2269 14.3614 15.3706C14.7083 15.5143 15.0901 15.5519 15.4584 15.4786C15.8267 15.4054 16.165 15.2245 16.4306 14.959C16.6961 14.6935 16.8769 14.3552 16.9502 13.9869C17.0234 13.6185 16.9858 13.2368 16.8421 12.8899C16.6984 12.5429 16.4551 12.2464 16.1428 12.0378C15.8306 11.8291 15.4635 11.7178 15.088 11.7178C14.8386 11.7175 14.5916 11.7665 14.3611 11.8618C14.1307 11.9572 13.9213 12.097 13.7449 12.2734C13.5686 12.4497 13.4287 12.6591 13.3334 12.8896C13.238 13.12 13.1891 13.367 13.1893 13.6164ZM6.97955 13.6164C6.97955 13.992 7.09095 14.3592 7.29966 14.6715C7.50837 14.9837 7.805 15.2271 8.15204 15.3707C8.49908 15.5144 8.88093 15.5519 9.24929 15.4785C9.61764 15.4051 9.95595 15.2241 10.2214 14.9584C10.4869 14.6927 10.6676 14.3542 10.7406 13.9858C10.8137 13.6173 10.7758 13.2355 10.6318 12.8886C10.4879 12.5417 10.2442 12.2453 9.93177 12.0369C9.6193 11.8285 9.25204 11.7174 8.87644 11.7178C8.62719 11.7178 8.38038 11.7669 8.15012 11.8623C7.91987 11.9578 7.71068 12.0977 7.53451 12.274C7.35835 12.4503 7.21866 12.6596 7.12344 12.89C7.02821 13.1203 6.97932 13.3672 6.97955 13.6164Z" fill="white"/>
<path d="M28.3715 28.0885H31.0542C31.628 27.0466 31.9472 25.8837 31.9858 24.6948H29.0453C29.0335 25.8581 28.805 27.009 28.3715 28.0885ZM29.0453 24.1579H31.9858C31.9487 22.969 31.6301 21.8059 31.056 20.7641H28.3271C28.7901 21.8344 29.0343 22.9865 29.0453 24.1525V24.1579ZM25.056 31.9997C26.1947 31.8985 27.296 31.5424 28.2784 30.9577C29.2607 30.3729 30.0988 29.5746 30.7306 28.6219H28.1066C27.3928 29.9884 26.343 31.1508 25.056 31.9997ZM28.0569 20.2219H30.7235C30.0767 19.2471 29.2137 18.4346 28.2018 17.8475C27.1899 17.2605 26.0562 16.9147 24.8889 16.837H24.7715L24.8889 16.9028C26.2015 17.7332 27.2905 18.8728 28.0604 20.2219H28.0569ZM24.4906 20.2219H27.472C27.344 20.0192 27.2124 19.8237 27.0702 19.6352C26.4642 18.82 25.7271 18.1111 24.8889 17.5374C24.7609 17.4485 24.6293 17.3597 24.4942 17.2797L24.4906 20.2219ZM24.4906 24.1525H28.5084C28.5011 22.9788 28.2385 21.8208 27.7386 20.7588H24.4906V24.1525ZM24.4906 28.0832H27.7706C28.2427 27.0132 28.4937 25.8588 28.5084 24.6894H24.4906V28.0832ZM27.5129 28.6165H24.4906V31.7294C25.7385 30.9593 26.7757 29.8916 27.5093 28.6219L27.5129 28.6165ZM23.9573 28.6165H21.1555C21.8422 29.8153 22.8029 30.8345 23.9591 31.5908L23.9573 28.6165ZM23.9573 17.2725C22.8553 17.9591 21.9263 18.8905 21.2426 19.9943L21.1093 20.2148H23.9538L23.9573 17.2725ZM23.9573 24.6823H20.1529C20.1659 25.8519 20.4169 27.0066 20.8906 28.0761H23.9573V24.6823ZM23.9573 20.7517H20.8551C20.6587 21.2116 20.5017 21.6874 20.3858 22.1739C20.2312 22.8228 20.1519 23.4873 20.1493 24.1543H23.9538L23.9573 20.7517ZM23.584 31.9997C22.3043 31.1471 21.2605 29.9852 20.5493 28.6219H18.0426C18.0693 28.6592 18.0924 28.6965 18.1226 28.7321C18.314 29.0159 18.5255 29.2857 18.7555 29.5392C20.0093 30.9231 21.7275 31.7986 23.584 31.9997ZM23.6444 16.8405C22.5613 16.9473 21.5136 17.2846 20.5716 17.8298C19.6296 18.375 18.8152 19.1155 18.1831 20.0014C18.1298 20.0743 18.0818 20.1454 18.0338 20.2165H20.5226C20.5618 20.1454 20.5991 20.0743 20.64 20.0014C21.3624 18.7139 22.3952 17.6274 23.6444 16.8405ZM16.7698 24.149H19.6142C19.6164 23.4826 19.6915 22.8185 19.8382 22.1685C19.9454 21.687 20.0899 21.2144 20.2702 20.7552H17.7102C17.4614 21.2073 17.2601 21.6839 17.1093 22.1774C16.9122 22.8184 16.7999 23.4824 16.7751 24.1525L16.7698 24.149ZM17.7102 28.0885H20.2844C20.2542 28.0103 20.2222 27.9303 20.1955 27.8521C19.8879 27.0286 19.7 26.1653 19.6373 25.2885C19.6213 25.093 19.6142 24.8939 19.6124 24.6948H16.768C16.768 24.8192 16.7804 24.9437 16.7911 25.0663C16.8135 25.3409 16.8521 25.614 16.9066 25.8841C17.0572 26.6565 17.3284 27.4004 17.7102 28.0885ZM17.1075 28.533C15.1767 28.3356 13.399 27.3924 12.153 25.9043C10.9069 24.4162 10.2907 22.5005 10.4355 20.565C10.4388 20.5122 10.4303 20.4594 10.4106 20.4103C10.394 20.3613 10.3672 20.3163 10.332 20.2783C10.2967 20.2403 10.2539 20.2102 10.2062 20.1899C10.1577 20.1696 10.1058 20.1587 10.0533 20.1579H8.63109C8.08175 20.1579 7.95909 19.861 8.31109 19.5037L11.4684 16.2539C11.5062 16.1975 11.5575 16.1517 11.6178 16.1205C11.6761 16.0907 11.7407 16.0752 11.8062 16.0752C11.8717 16.0752 11.9363 16.0907 11.9946 16.1205C12.0544 16.1517 12.1052 16.1976 12.1422 16.2539L15.0631 19.4308C15.1465 19.5113 15.2194 19.6021 15.28 19.701C15.3724 19.8681 15.3351 19.9748 15.1698 20.0352C15.0314 20.0763 14.8873 20.0944 14.7431 20.0885H13.4346C13.3809 20.0883 13.3276 20.0987 13.2779 20.1192C13.2282 20.1397 13.183 20.1698 13.145 20.2078C13.107 20.2458 13.0769 20.291 13.0564 20.3407C13.0359 20.3904 13.0255 20.4437 13.0258 20.4974C12.9069 21.566 13.1446 22.6439 13.7018 23.5634C14.259 24.483 15.1044 25.1926 16.1066 25.5819C16.2495 26.6186 16.5892 27.6185 17.1075 28.5277V28.533Z" fill="#50E6FF"/>
</g>
<defs>
<linearGradient id="paint0_linear_855_8572" x1="15.0045" y1="8.05176" x2="15.0045" y2="22.5051" gradientUnits="userSpaceOnUse">
<stop offset="0.196" stop-color="#5EA0EF"/>
<stop offset="1" stop-color="#0078D4"/>
</linearGradient>
<clipPath id="clip0_855_8572">
<rect width="32" height="32" fill="white"/>
</clipPath>
</defs>
</svg>
