<svg width="32" height="32" viewBox="0 0 32 32" fill="none" xmlns="http://www.w3.org/2000/svg">
<path d="M10.7911 8.65674C5.24445 8.64252 0.753787 6.99274 0.759121 4.97852L0.711121 24.4345C0.711121 26.4381 5.12179 28.0772 10.608 28.1181H10.7449C16.2916 28.1323 20.7911 26.5056 20.7965 24.4861L20.8462 5.02296C20.8373 7.04607 16.3378 8.67096 10.7911 8.65674Z" fill="url(#paint0_linear_855_8601)"/>
<path d="M20.8427 5.02429C20.8427 7.04385 16.3378 8.67051 10.7911 8.65629C5.24443 8.64207 0.753766 6.99229 0.759099 4.97807C0.764432 2.96385 5.26221 1.32474 10.8107 1.33896C16.3591 1.35318 20.848 3.00296 20.8427 5.02429Z" fill="#E6E6E6"/>
<path d="M18.4889 4.72184C18.4889 6.00718 15.0365 7.03295 10.7858 7.03295C6.53515 7.03295 3.09337 5.96629 3.09693 4.68806C3.10048 3.40984 6.54937 2.37695 10.8018 2.37695C15.0543 2.37695 18.496 3.44362 18.4943 4.72362" fill="#50E6FF"/>
<path d="M10.7982 5.23758C8.73145 5.18436 6.67036 5.4776 4.70044 6.10514C6.66368 6.76337 8.72634 7.07557 10.7964 7.0278C12.8658 7.08748 14.9297 6.7867 16.896 6.13891C14.928 5.50003 12.8669 5.19537 10.7982 5.23758Z" fill="#198AB3"/>
<path d="M10.048 30.6613H20.6311C20.7302 30.6617 20.8283 30.6424 20.9199 30.6046C21.0114 30.5667 21.0945 30.5111 21.1644 30.4409L31.0809 20.416C31.1841 20.3112 31.2539 20.1782 31.2817 20.0338C31.3094 19.8894 31.2938 19.74 31.2367 19.6044C31.1797 19.4689 31.0838 19.3533 30.9612 19.2721C30.8385 19.191 30.6946 19.1479 30.5475 19.1484H10.048C9.85073 19.1489 9.66172 19.2276 9.52241 19.3672C9.3831 19.5069 9.30487 19.6961 9.30487 19.8933V29.9182C9.30487 30.1153 9.38316 30.3043 9.52252 30.4437C9.66188 30.583 9.8509 30.6613 10.048 30.6613Z" fill="url(#paint1_linear_855_8601)"/>
<path opacity="0.6" d="M20.8427 22.5586V26.8341L17.1484 28.9817V24.7026L20.8427 22.5586Z" fill="white"/>
<path opacity="0.9" d="M20.8426 22.5583L17.1484 24.7059L13.4506 22.5548L17.1484 20.4072L20.8426 22.5583Z" fill="white"/>
<path opacity="0.75" d="M17.1484 24.7058V28.9814L13.4506 26.8338V22.5547L17.1484 24.7058Z" fill="white"/>
<defs>
<linearGradient id="paint0_linear_855_8601" x1="1.33076" y1="16.5303" x2="21.4161" y2="16.5905" gradientUnits="userSpaceOnUse">
<stop stop-color="#005BA1"/>
<stop offset="1" stop-color="#0078D4"/>
</linearGradient>
<linearGradient id="paint1_linear_855_8601" x1="20.2986" y1="30.6613" x2="20.2986" y2="19.1484" gradientUnits="userSpaceOnUse">
<stop stop-color="#32BEDD"/>
<stop offset="0.302" stop-color="#36C3E1"/>
<stop offset="0.66" stop-color="#41D1EE"/>
<stop offset="1" stop-color="#50E6FF"/>
</linearGradient>
</defs>
</svg>
