<svg width="32" height="32" viewBox="0 0 32 32" fill="none" xmlns="http://www.w3.org/2000/svg">
<g clip-path="url(#clip0_855_8527)">
<mask id="mask0_855_8527" style="mask-type:luminance" maskUnits="userSpaceOnUse" x="0" y="0" width="32" height="32">
<path d="M32 0H0V32H32V0Z" fill="white"/>
</mask>
<g mask="url(#mask0_855_8527)">
<path d="M8.39402 21.4766C8.39425 21.6869 8.68312 21.8574 9.03939 21.8574H23.1374C23.2055 21.8577 23.2731 21.8498 23.3364 21.8336C23.3995 21.8176 23.4569 21.7939 23.5056 21.7639C23.5541 21.7338 23.5929 21.6981 23.6194 21.6586C23.6461 21.6192 23.6601 21.5769 23.6606 21.534V15.7062C23.6606 15.6196 23.6061 15.5366 23.5088 15.4755C23.4116 15.4143 23.2797 15.3799 23.1422 15.3799H23.1374H22.8702H9.43119H9.03276C8.67616 15.3799 8.38714 15.5506 8.38739 15.7612L8.39402 21.4766Z" fill="url(#paint0_linear_855_8527)"/>
<path opacity="0.6" d="M9.7668 16.5785C9.90875 16.5785 10.0238 16.4634 10.0238 16.3215C10.0238 16.1795 9.90875 16.0645 9.7668 16.0645C9.62484 16.0645 9.50977 16.1795 9.50977 16.3215C9.50977 16.4634 9.62484 16.5785 9.7668 16.5785Z" fill="white"/>
<path opacity="0.6" d="M22.49 16.5785C22.6318 16.5785 22.7469 16.4634 22.7469 16.3215C22.7469 16.1795 22.6318 16.0645 22.49 16.0645C22.3479 16.0645 22.2329 16.1795 22.2329 16.3215C22.2329 16.4634 22.3479 16.5785 22.49 16.5785Z" fill="white"/>
<path opacity="0.6" d="M22.49 21.3335C22.6318 21.3335 22.7469 21.2184 22.7469 21.0764C22.7469 20.9345 22.6318 20.8193 22.49 20.8193C22.3479 20.8193 22.2329 20.9345 22.2329 21.0764C22.2329 21.2184 22.3479 21.3335 22.49 21.3335Z" fill="white"/>
<path opacity="0.6" d="M9.7668 21.3335C9.90875 21.3335 10.0238 21.2184 10.0238 21.0764C10.0238 20.9345 9.90875 20.8193 9.7668 20.8193C9.62484 20.8193 9.50977 20.9345 9.50977 21.0764C9.50977 21.2184 9.62484 21.3335 9.7668 21.3335Z" fill="white"/>
<path opacity="0.7" d="M11.0977 17.0537H10.8626C10.7517 17.0537 10.6617 17.1092 10.6617 17.1777V20.0636C10.6617 20.1322 10.7517 20.1877 10.8626 20.1877H11.0977C11.2087 20.1877 11.2987 20.1322 11.2987 20.0636V17.1777C11.2987 17.1092 11.2087 17.0537 11.0977 17.0537Z" fill="white"/>
<path opacity="0.7" d="M12.1307 17.0537H11.8956C11.7846 17.0537 11.6946 17.1092 11.6946 17.1777V20.0636C11.6946 20.1322 11.7846 20.1877 11.8956 20.1877H12.1307C12.2416 20.1877 12.3316 20.1322 12.3316 20.0636V17.1777C12.3316 17.1092 12.2416 17.0537 12.1307 17.0537Z" fill="white"/>
<path opacity="0.7" d="M13.1635 17.0537H12.9284C12.8174 17.0537 12.7274 17.1092 12.7274 17.1777V20.0636C12.7274 20.1322 12.8174 20.1877 12.9284 20.1877H13.1635C13.2744 20.1877 13.3644 20.1322 13.3644 20.0636V17.1777C13.3644 17.1092 13.2744 17.0537 13.1635 17.0537Z" fill="white"/>
<path d="M4.15109 17.6085C4.15109 18.0202 3.81529 18.3539 3.40105 18.3539C2.98681 18.3539 2.651 18.0202 2.651 17.6085C2.651 17.197 2.98681 16.8633 3.40105 16.8633C3.81529 16.8633 4.15109 17.197 4.15109 17.6085Z" fill="#004C87"/>
<path d="M28.6464 18.3538C29.0606 18.3538 29.3965 18.0202 29.3965 17.6086C29.3965 17.197 29.0606 16.8633 28.6464 16.8633C28.2322 16.8633 27.8964 17.197 27.8964 17.6086C27.8964 18.0202 28.2322 18.3538 28.6464 18.3538Z" fill="#004C87"/>
<path fill-rule="evenodd" clip-rule="evenodd" d="M7.31988 14.8387C7.31988 13.0467 8.78187 11.5941 10.5853 11.5941H21.4621C23.2656 11.5941 24.7275 13.0467 24.7275 14.8387V17.2454C24.7275 19.5493 26.6073 21.4172 28.9261 21.4172C29.5211 21.3945 29.9748 21.2289 30.5195 21.0473L30.2407 20.1646L28.9261 20.4901C27.1225 20.4901 25.6605 19.0375 25.6605 17.2454V14.8387C25.6605 12.5347 23.7808 10.667 21.4621 10.667H10.5853C8.2666 10.667 6.3869 12.5347 6.3869 14.8387V17.2454C6.3869 19.0375 4.92491 20.4901 3.12146 20.4901L1.67066 20.1065L1.41364 21.0704C1.94907 21.3152 2.35076 21.3678 3.12146 21.4172C5.44018 21.4172 7.31988 19.5495 7.31988 17.2454V14.8387ZM4.15108 17.6089C4.15108 18.0206 3.81528 18.3543 3.40104 18.3543C2.9868 18.3543 2.65099 18.0206 2.65099 17.6089C2.65099 17.1974 2.9868 16.8637 3.40104 16.8637C3.81528 16.8637 4.15108 17.1974 4.15108 17.6089ZM5.08406 17.6089C5.08406 18.5326 4.33055 19.2812 3.40104 19.2812C2.47153 19.2812 1.71801 18.5326 1.71801 17.6089C1.71801 16.6854 2.47153 15.9366 3.40104 15.9366C4.33055 15.9366 5.08406 16.6854 5.08406 17.6089ZM28.6464 18.3543C29.0606 18.3543 29.3965 18.0206 29.3965 17.609C29.3965 17.1974 29.0606 16.8637 28.6464 16.8637C28.2322 16.8637 27.8964 17.1974 27.8964 17.609C27.8964 18.0206 28.2322 18.3543 28.6464 18.3543ZM28.6464 19.2814C29.5758 19.2814 30.3294 18.5326 30.3294 17.609C30.3294 16.6854 29.5758 15.9367 28.6464 15.9367C27.7168 15.9367 26.9634 16.6854 26.9634 17.609C26.9634 18.5326 27.7168 19.2814 28.6464 19.2814Z" fill="#004C87"/>
<path d="M5.8589 15.6178L5.68761 15.3576C5.3986 14.9849 5.02992 14.6814 4.60848 14.4692C4.18704 14.257 3.72345 14.1414 3.25156 14.1309H3.17484C2.53929 14.1324 1.91868 14.3235 1.39269 14.6796C0.866688 15.0358 0.459292 15.5409 0.222796 16.1299C0.222796 16.1299 0.107194 16.5003 0.0956336 16.5402C0.0643013 16.6683 0.0418284 16.7984 0.0283744 16.9295C0.0137198 17.0234 0.0042477 17.118 0 17.2129C0 17.2454 0.0105087 17.5151 0.021018 17.6169C0.0315271 17.7186 0.0315273 17.7911 0.0462404 17.8771C0.0801858 18.0495 0.127983 18.2191 0.189166 18.3839C0.203879 18.4248 0.211236 18.4679 0.226999 18.5087C0.314809 18.7221 0.425076 18.9255 0.55594 19.1153L0.564347 19.1247C0.951061 19.6807 1.50547 20.0986 2.14676 20.3178C2.78805 20.537 3.48268 20.5459 4.1294 20.3432C4.77612 20.1406 5.34112 19.737 5.74201 19.1912C6.14292 18.6455 6.35876 17.9863 6.3581 17.3094C6.35701 16.7095 6.18379 16.1225 5.8589 15.6178ZM2.44971 17.3094C2.44949 17.1672 2.49154 17.0281 2.57051 16.9097C2.64949 16.7914 2.76185 16.6991 2.89337 16.6445C3.02489 16.59 3.16967 16.5756 3.30939 16.6032C3.4491 16.6308 3.57746 16.6992 3.67824 16.7997C3.77902 16.9002 3.8477 17.0282 3.87556 17.1677C3.90341 17.3072 3.88923 17.4518 3.83477 17.5832C3.78032 17.7146 3.68805 17.827 3.56964 17.9059C3.45124 17.985 3.31202 18.0271 3.16958 18.0271C3.07509 18.0273 2.98151 18.0088 2.89419 17.9727C2.80684 17.9368 2.72748 17.884 2.66062 17.8174C2.59376 17.7506 2.54071 17.6714 2.50452 17.5843C2.46834 17.4972 2.44971 17.4037 2.44971 17.3094ZM5.82738 18.2119C5.4115 17.7531 4.85849 17.4388 4.25099 17.3167V17.3094C4.24878 17.0455 4.14839 16.7919 3.96933 16.5979C4.33614 16.1203 4.86356 15.7912 5.45429 15.6713C5.72084 16.0316 5.89424 16.4519 5.95913 16.895C6.02398 17.3379 5.97922 17.7907 5.82738 18.2119ZM2.92683 14.516C2.6821 15.0809 2.62286 15.7087 2.75762 16.3093C2.60068 16.3777 2.46245 16.4826 2.35456 16.6154C2.24667 16.7481 2.17225 16.9048 2.13758 17.0722C1.53526 17.0576 0.958416 16.8266 0.512852 16.4216C0.685609 15.9031 1.00648 15.4463 1.43596 15.1075C1.86542 14.7687 2.38475 14.5627 2.92997 14.5149L2.92683 14.516ZM1.04777 19.1427C1.65672 19.0088 2.20688 18.6842 2.61785 18.2161C2.78261 18.3255 2.97495 18.3863 3.17275 18.3912C3.28041 18.3863 3.3867 18.3651 3.48802 18.3283C3.78116 18.8577 3.8694 19.476 3.73604 20.0661C3.55131 20.1036 3.36334 20.123 3.17484 20.1239C2.77099 20.1228 2.37209 20.0346 2.00539 19.8657C1.63868 19.6968 1.31277 19.4508 1.04987 19.1447L1.04777 19.1427Z" fill="url(#paint1_linear_855_8527)"/>
<path d="M4.25101 17.3163C4.85852 17.4384 5.41153 17.7527 5.8274 18.2114C5.97924 17.7903 6.02401 17.3375 5.95916 16.8946C5.89427 16.4514 5.72086 16.0311 5.45432 15.6709C4.86358 15.7908 4.33617 16.1198 3.96936 16.5975C4.14842 16.7915 4.24881 17.0451 4.25101 17.309V17.3163Z" fill="url(#paint2_linear_855_8527)"/>
<path d="M1.04779 19.1424C1.65674 19.0085 2.2069 18.6839 2.61787 18.2158C2.78263 18.3252 2.97497 18.386 3.17277 18.3909C3.28043 18.386 3.38672 18.3648 3.48804 18.328C3.78118 18.8574 3.86942 19.4757 3.73606 20.0658C3.55133 20.1033 3.36336 20.1227 3.17486 20.1236C2.77101 20.1225 2.37211 20.0343 2.00541 19.8654C1.6387 19.6965 1.31279 19.4505 1.04989 19.1444L1.04779 19.1424Z" fill="url(#paint3_linear_855_8527)"/>
<path d="M2.92685 14.5157C2.68212 15.0806 2.62289 15.7084 2.75764 16.3091C2.6007 16.3774 2.46248 16.4823 2.35459 16.6151C2.24669 16.7479 2.17228 16.9045 2.13761 17.0719C1.53528 17.0573 0.958443 16.8263 0.512878 16.4213C0.685636 15.9028 1.00651 15.446 1.43598 15.1072C1.86545 14.7684 2.38477 14.5624 2.93 14.5146L2.92685 14.5157Z" fill="url(#paint4_linear_855_8527)"/>
<path d="M31.501 15.6588L31.3298 15.3986C31.0407 15.0259 30.672 14.7224 30.2507 14.5102C29.8292 14.298 29.3655 14.1824 28.8937 14.1719H28.8171C28.1815 14.1734 27.5609 14.3645 27.0349 14.7207C26.5088 15.0769 26.1015 15.5819 25.8649 16.1709C25.8649 16.1709 25.7494 16.5413 25.7378 16.5812C25.7065 16.7093 25.6839 16.8394 25.6706 16.9705C25.6558 17.0644 25.6464 17.159 25.6422 17.2538C25.6422 17.2864 25.6526 17.5561 25.6631 17.6579C25.6736 17.7596 25.6736 17.832 25.6884 17.918C25.7223 18.0907 25.7702 18.2601 25.8313 18.4249C25.8461 18.466 25.8534 18.509 25.8692 18.5499C25.957 18.763 26.0672 18.9664 26.1981 19.1563L26.2066 19.1659C26.5933 19.7216 27.1476 20.1396 27.789 20.3588C28.4302 20.578 29.1248 20.5868 29.7716 20.3842C30.4183 20.1817 30.9833 19.778 31.3842 19.2322C31.7851 18.6866 32.0009 18.0272 32.0002 17.3504C31.9991 16.7505 31.826 16.1635 31.501 15.6588ZM28.0919 17.3504C28.0916 17.2082 28.1337 17.0691 28.2126 16.9508C28.2916 16.8324 28.4039 16.7401 28.5355 16.6855C28.667 16.631 28.8118 16.6166 28.9515 16.6442C29.0912 16.6718 29.2196 16.7402 29.3204 16.8407C29.4212 16.9412 29.4898 17.0693 29.5177 17.2087C29.5456 17.3482 29.5314 17.4928 29.477 17.6242C29.4224 17.7556 29.3302 17.8679 29.2118 17.947C29.0934 18.026 28.9542 18.0681 28.8118 18.0681C28.7172 18.0683 28.6237 18.0498 28.5364 18.0139C28.4491 17.9778 28.3696 17.925 28.3028 17.8583C28.2359 17.7916 28.183 17.7125 28.1467 17.6253C28.1104 17.5382 28.0919 17.4447 28.0919 17.3504ZM31.4695 18.2528C31.0537 17.7941 30.5006 17.4799 29.8932 17.3577V17.3504C29.8909 17.0866 29.7906 16.833 29.6116 16.6389C29.9783 16.1613 30.5058 15.8322 31.0964 15.7123C31.363 16.0726 31.5364 16.4929 31.6013 16.9361C31.6661 17.3789 31.6213 17.8318 31.4695 18.2528ZM28.5689 14.557C28.3243 15.1219 28.2651 15.7497 28.3998 16.3503C28.2429 16.4187 28.1046 16.5236 27.9966 16.6564C27.8889 16.7891 27.8144 16.9458 27.7797 17.1132C27.1774 17.0986 26.6006 16.8676 26.155 16.4626C26.3278 15.9441 26.6487 15.4873 27.0781 15.1485C27.5076 14.8097 28.0269 14.6037 28.5721 14.5559L28.5689 14.557ZM26.69 19.1836C27.2989 19.05 27.8491 18.7252 28.2599 18.2571C28.4247 18.3664 28.6171 18.4272 28.815 18.4324C28.9225 18.4272 29.0288 18.406 29.1302 18.3692C29.4233 18.8987 29.5115 19.517 29.3782 20.107C29.1934 20.1445 29.0055 20.1639 28.8171 20.1648C28.4132 20.1637 28.0142 20.0757 27.6475 19.9067C27.2809 19.7378 26.9549 19.4919 26.6921 19.1858L26.69 19.1836Z" fill="url(#paint5_linear_855_8527)"/>
<path d="M29.8932 17.3583C30.5006 17.4804 31.0537 17.7947 31.4695 18.2534C31.6213 17.8324 31.6661 17.3795 31.6013 16.9366C31.5364 16.4934 31.363 16.0731 31.0964 15.7129C30.5058 15.8327 29.9783 16.1618 29.6116 16.6395C29.7906 16.8335 29.8909 17.0871 29.8932 17.351V17.3583Z" fill="url(#paint6_linear_855_8527)"/>
<path d="M26.6899 19.1844C27.2988 19.0507 27.8491 18.7259 28.2599 18.2578C28.4247 18.3671 28.6171 18.4279 28.8149 18.4331C28.9225 18.4279 29.0288 18.4068 29.1301 18.37C29.4233 18.8994 29.5115 19.5177 29.3781 20.1078C29.1934 20.1453 29.0055 20.1647 28.8171 20.1655C28.4131 20.1645 28.0142 20.0765 27.6475 19.9074C27.2809 19.7385 26.9548 19.4927 26.6921 19.1865L26.6899 19.1844Z" fill="url(#paint7_linear_855_8527)"/>
<path d="M28.5689 14.5577C28.3243 15.1226 28.2651 15.7504 28.3998 16.351C28.2429 16.4194 28.1045 16.5243 27.9966 16.6571C27.8889 16.7898 27.8144 16.9465 27.7797 17.1139C27.1774 17.0993 26.6005 16.8683 26.155 16.4633C26.3278 15.9448 26.6487 15.488 27.0781 15.1492C27.5076 14.8104 28.0269 14.6044 28.5721 14.5566L28.5689 14.5577Z" fill="url(#paint8_linear_855_8527)"/>
</g>
</g>
<defs>
<linearGradient id="paint0_linear_855_8527" x1="15.2615" y1="14.7445" x2="15.2615" y2="22.3918" gradientUnits="userSpaceOnUse">
<stop stop-color="#5EA0EF"/>
<stop offset="1" stop-color="#0078D4"/>
</linearGradient>
<linearGradient id="paint1_linear_855_8527" x1="3.17904" y1="20.489" x2="3.17904" y2="14.1309" gradientUnits="userSpaceOnUse">
<stop stop-color="#0078D4"/>
<stop offset="0.156" stop-color="#1380DA"/>
<stop offset="0.528" stop-color="#3C91E5"/>
<stop offset="0.822" stop-color="#559CEC"/>
<stop offset="1" stop-color="#5EA0EF"/>
</linearGradient>
<linearGradient id="paint2_linear_855_8527" x1="3.17907" y1="20.4886" x2="3.17907" y2="14.1304" gradientUnits="userSpaceOnUse">
<stop stop-color="#0078D4"/>
<stop offset="0.156" stop-color="#1380DA"/>
<stop offset="0.528" stop-color="#3C91E5"/>
<stop offset="0.822" stop-color="#559CEC"/>
<stop offset="1" stop-color="#5EA0EF"/>
</linearGradient>
<linearGradient id="paint3_linear_855_8527" x1="3.17906" y1="20.4887" x2="3.17906" y2="14.1306" gradientUnits="userSpaceOnUse">
<stop stop-color="#0078D4"/>
<stop offset="0.156" stop-color="#1380DA"/>
<stop offset="0.528" stop-color="#3C91E5"/>
<stop offset="0.822" stop-color="#559CEC"/>
<stop offset="1" stop-color="#5EA0EF"/>
</linearGradient>
<linearGradient id="paint4_linear_855_8527" x1="3.17907" y1="20.4887" x2="3.17907" y2="14.1306" gradientUnits="userSpaceOnUse">
<stop stop-color="#0078D4"/>
<stop offset="0.156" stop-color="#1380DA"/>
<stop offset="0.528" stop-color="#3C91E5"/>
<stop offset="0.822" stop-color="#559CEC"/>
<stop offset="1" stop-color="#5EA0EF"/>
</linearGradient>
<linearGradient id="paint5_linear_855_8527" x1="28.8212" y1="20.53" x2="28.8212" y2="14.1719" gradientUnits="userSpaceOnUse">
<stop stop-color="#0078D4"/>
<stop offset="0.156" stop-color="#1380DA"/>
<stop offset="0.528" stop-color="#3C91E5"/>
<stop offset="0.822" stop-color="#559CEC"/>
<stop offset="1" stop-color="#5EA0EF"/>
</linearGradient>
<linearGradient id="paint6_linear_855_8527" x1="28.8212" y1="20.5305" x2="28.8212" y2="14.1724" gradientUnits="userSpaceOnUse">
<stop stop-color="#0078D4"/>
<stop offset="0.156" stop-color="#1380DA"/>
<stop offset="0.528" stop-color="#3C91E5"/>
<stop offset="0.822" stop-color="#559CEC"/>
<stop offset="1" stop-color="#5EA0EF"/>
</linearGradient>
<linearGradient id="paint7_linear_855_8527" x1="28.8211" y1="20.5307" x2="28.8211" y2="14.1726" gradientUnits="userSpaceOnUse">
<stop stop-color="#0078D4"/>
<stop offset="0.156" stop-color="#1380DA"/>
<stop offset="0.528" stop-color="#3C91E5"/>
<stop offset="0.822" stop-color="#559CEC"/>
<stop offset="1" stop-color="#5EA0EF"/>
</linearGradient>
<linearGradient id="paint8_linear_855_8527" x1="28.8212" y1="20.5306" x2="28.8212" y2="14.1726" gradientUnits="userSpaceOnUse">
<stop stop-color="#0078D4"/>
<stop offset="0.156" stop-color="#1380DA"/>
<stop offset="0.528" stop-color="#3C91E5"/>
<stop offset="0.822" stop-color="#559CEC"/>
<stop offset="1" stop-color="#5EA0EF"/>
</linearGradient>
<clipPath id="clip0_855_8527">
<rect width="32" height="32" fill="white"/>
</clipPath>
</defs>
</svg>
