<svg width="32" height="32" viewBox="0 0 32 32" fill="none" xmlns="http://www.w3.org/2000/svg">
<path d="M30.2898 1.89355H1.71208C1.17403 1.89355 0.737854 2.32973 0.737854 2.86778V21.2695C0.737854 21.8076 1.17403 22.2437 1.71208 22.2437H30.2898C30.8279 22.2437 31.264 21.8076 31.264 21.2695V2.86778C31.264 2.32973 30.8279 1.89355 30.2898 1.89355Z" fill="url(#paint0_linear_855_8589)"/>
<path d="M22.1211 28.3996C19.0988 27.9285 18.9851 25.7507 18.994 22.2432H13.0064C13.0064 25.7507 12.8961 27.9321 9.87747 28.3996C9.46684 28.4634 9.09154 28.6691 8.81678 28.9808C8.54203 29.2926 8.38517 29.6908 8.37347 30.1063H23.6446C23.6322 29.688 23.4725 29.2874 23.1938 28.9753C22.9152 28.6631 22.5353 28.4592 22.1211 28.3996Z" fill="url(#paint1_linear_855_8589)"/>
<path d="M7.18973 11.2948L7.80657 10.6797L12.6621 15.5489C12.7143 15.6013 12.7436 15.6724 12.7435 15.7464C12.7434 15.8204 12.7139 15.8914 12.6615 15.9437L12.0447 16.5587C11.9923 16.611 11.9212 16.6403 11.8472 16.6402C11.7732 16.6401 11.7022 16.6106 11.6499 16.5582L7.18735 12.083C7.08281 11.9781 7.0242 11.8361 7.02441 11.688C7.02463 11.54 7.08363 11.3981 7.18847 11.2935L7.18973 11.2948Z" fill="url(#paint2_linear_855_8589)"/>
<path d="M7.79707 12.7001L7.18198 12.0832C7.07744 11.9784 7.01883 11.8363 7.01904 11.6883C7.01926 11.5402 7.07826 11.3983 7.1831 11.2938L11.7364 6.75335C11.7888 6.70108 11.8598 6.67179 11.9339 6.67188C12.0079 6.67198 12.0788 6.70149 12.1311 6.75392L12.7462 7.37075C12.7985 7.42316 12.8278 7.4942 12.8277 7.56823C12.8276 7.64226 12.798 7.71321 12.7456 7.76548L7.79707 12.7001Z" fill="#F2F2F2"/>
<path d="M20.3026 16.5631L19.6857 15.948C19.6597 15.9221 19.6391 15.8914 19.6251 15.8575C19.611 15.8237 19.6037 15.7874 19.6037 15.7507C19.6036 15.7141 19.6108 15.6778 19.6247 15.6439C19.6388 15.61 19.6592 15.5792 19.6852 15.5533L24.5468 10.6777L25.1637 11.2928C25.2686 11.3974 25.3276 11.5393 25.3278 11.6873C25.328 11.8354 25.2693 11.9774 25.1648 12.0823L20.696 16.5638C20.6437 16.6162 20.5728 16.6457 20.4987 16.6458C20.4247 16.6459 20.355 16.6154 20.3026 16.5631Z" fill="url(#paint3_linear_855_8589)"/>
<path d="M19.5918 7.37466L20.2069 6.75783C20.2592 6.7054 20.3301 6.67589 20.4043 6.67578C20.4782 6.67567 20.5493 6.70499 20.6016 6.75726L25.155 11.2977C25.2597 11.4022 25.3187 11.5441 25.3189 11.6922C25.3193 11.8402 25.2606 11.9823 25.1561 12.0871L24.541 12.704L19.5963 7.77315C19.5694 7.74744 19.5481 7.71667 19.5333 7.68263C19.5186 7.64856 19.5107 7.61191 19.5104 7.5748C19.51 7.5377 19.517 7.5009 19.531 7.46652C19.5449 7.43216 19.5657 7.40092 19.5918 7.37466Z" fill="#F2F2F2"/>
<path d="M18.8233 5.22441L17.8379 4.90895C17.7331 4.87542 17.6211 4.93314 17.5875 5.03787L13.571 17.584C13.5375 17.6887 13.5952 17.8008 13.6999 17.8344L14.6853 18.1498C14.79 18.1834 14.9021 18.1256 14.9357 18.0209L18.9522 5.47476C18.9858 5.37003 18.928 5.25794 18.8233 5.22441Z" fill="#F2F2F2"/>
<defs>
<linearGradient id="paint0_linear_855_8589" x1="16.0001" y1="22.2455" x2="16.0001" y2="1.89355" gradientUnits="userSpaceOnUse">
<stop stop-color="#0078D4"/>
<stop offset="0.817" stop-color="#5EA0EF"/>
</linearGradient>
<linearGradient id="paint1_linear_855_8589" x1="16.0055" y1="30.1063" x2="16.0055" y2="22.2432" gradientUnits="userSpaceOnUse">
<stop offset="0.149" stop-color="#CCCCCC"/>
<stop offset="1" stop-color="#707070"/>
</linearGradient>
<linearGradient id="paint2_linear_855_8589" x1="7.02443" y1="13.6631" x2="12.7507" y2="13.6631" gradientUnits="userSpaceOnUse">
<stop stop-color="#5EA0EF"/>
<stop offset="0.372" stop-color="#9FC6F5"/>
<stop offset="0.8" stop-color="#E4EFFC"/>
<stop offset="1" stop-color="white"/>
</linearGradient>
<linearGradient id="paint3_linear_855_8589" x1="19.6028" y1="13.6631" x2="25.3273" y2="13.6631" gradientUnits="userSpaceOnUse">
<stop stop-color="white"/>
<stop offset="0.2" stop-color="#E4EFFC"/>
<stop offset="0.628" stop-color="#9FC6F5"/>
<stop offset="1" stop-color="#5EA0EF"/>
</linearGradient>
</defs>
</svg>
