<svg width="32" height="32" viewBox="0 0 32 32" fill="none" xmlns="http://www.w3.org/2000/svg">
<path fill-rule="evenodd" clip-rule="evenodd" d="M11.8154 4.25469C7.73698 4.25469 4.43077 7.52008 4.43077 11.5481C4.43077 15.189 7.13244 18.2076 10.6638 18.7535L11.0799 18.8179V19.2339V22.7315V23.2177H10.5876H5.70148C5.02473 23.2177 4.42389 22.79 4.20988 22.1558C4.12988 21.9189 3.90532 21.759 3.65236 21.759H2.6106C2.06695 21.759 1.55926 22.0273 1.2577 22.4741C1.07964 22.7379 0.984615 23.0478 0.984615 23.3649V26.5622C0.984615 27.0938 1.19838 27.6035 1.57888 27.9793L1.68212 28.0812C1.99652 28.3918 2.42295 28.5662 2.86757 28.5662H3.65236C3.90532 28.5662 4.12988 28.4063 4.20988 28.1694C4.42389 27.5352 5.02473 27.1075 5.70148 27.1075H10.5876H26.2985C26.9753 27.1075 27.5762 27.5352 27.79 28.1694C27.87 28.4063 28.0948 28.5662 28.3476 28.5662H29.1324C29.5771 28.5662 30.0036 28.3918 30.3179 28.0812L30.4212 27.9793C30.8016 27.6035 31.0155 27.0938 31.0155 26.5622V24.1902C31.0155 23.4248 30.6507 22.7043 30.0308 22.2453L29.7413 22.0307C29.5031 21.8543 29.2135 21.759 28.9157 21.759H28.3476C28.0948 21.759 27.87 21.9189 27.79 22.1558C27.5762 22.79 26.9753 23.2177 26.2985 23.2177H13.4272H12.9349V22.7315V19.1647V18.7694L13.327 18.6888C16.6805 18.0001 19.2 15.0641 19.2 11.5481C19.2 7.52008 15.8938 4.25469 11.8154 4.25469ZM3.44615 11.5481C3.44615 6.98301 7.19319 3.28223 11.8154 3.28223C16.4376 3.28223 20.1845 6.98301 20.1845 11.5481C20.1845 15.3959 17.5232 18.6287 13.9195 19.5505V22.2453H26.2985C26.5515 22.2453 26.776 22.0853 26.856 21.8483C27.07 21.2142 27.6709 20.7864 28.3476 20.7864H28.9157C29.4265 20.7864 29.9234 20.9502 30.3321 21.2527L30.6215 21.4673C31.4892 22.11 32 23.1189 32 24.1902V26.5622C32 27.3516 31.6825 28.1087 31.1173 28.667L31.014 28.7688C30.515 29.2618 29.8382 29.5386 29.1324 29.5386H28.3476C27.6709 29.5386 27.07 29.1109 26.856 28.4769C26.776 28.2398 26.5515 28.0799 26.2985 28.0799H10.5876H5.70148C5.44853 28.0799 5.22396 28.2398 5.14396 28.4769C4.92996 29.1109 4.32912 29.5386 3.65236 29.5386H2.86757C2.16181 29.5386 1.48494 29.2618 0.985886 28.7688L0.882654 28.667C0.317501 28.1087 0 27.3516 0 26.5622V23.3649C0 22.8558 0.152558 22.3582 0.43845 21.9347C0.922626 21.2174 1.73774 20.7864 2.6106 20.7864H3.65236C4.32912 20.7864 4.92996 21.2142 5.14396 21.8483C5.22396 22.0853 5.44853 22.2453 5.70148 22.2453H10.0953V19.6392C6.29815 18.8556 3.44615 15.5312 3.44615 11.5481ZM3.44615 23.7039H1.96923V22.7315H3.44615V23.7039ZM29.5385 23.7039H28.0615V22.7315H29.5385V23.7039ZM1.96923 24.6764H2.46155H2.46379H2.46606H2.46832H2.4706H2.47287H2.47515H2.47742H2.47972H2.48201H2.4843H2.48661H2.48892H2.49124H2.49355H2.49588H2.49819H2.50052H2.50286H2.50519H2.50754H2.50988H2.51223H2.5146H2.51694H2.51931H2.52167H2.52405H2.52642H2.5288H2.53118H2.53356H2.53596H2.53836H2.54075H2.54316H2.54556H2.54796H2.55038H2.5528H2.55522H2.55764H2.56007H2.56249H2.56492H2.56736H2.56981H2.57225H2.5747H2.57714H2.57959H2.58206H2.58452H2.58697H2.58944H2.59191H2.59438H2.59685H2.59932H2.60181H2.60428H2.60677H2.60926H2.61175H2.61424H2.61675H2.61924H2.62174H2.62425H2.62676H2.62926H2.63177H2.63428H2.6368H2.63931H2.64183H2.64436H2.64688H2.6494H2.65193H2.65445H2.657H2.65952H2.66206H2.6646H2.66715H2.66969H2.67223H2.67477H2.67732H2.67986H2.68242H2.68496H2.68752H2.69008H2.69264H2.69518H2.69774H2.7003H2.70288H2.70544H2.708H2.71056H2.71314H2.7157H2.71828H2.72084H2.72341H2.72599H2.72857H2.73113H2.73371H2.73628H2.73886H2.74144H2.74402H2.7466H2.74917H2.75177H2.75435H2.75692H2.7595H2.7621H2.76468H2.76725H2.76985H2.77243H2.77502H2.7776H2.7802H2.78277H2.78537H2.78795H2.79054H2.79312H2.79572H2.79829H2.80089H2.80347H2.80606H2.80864H2.81124H2.81381H2.81641H2.81899H2.82156H2.82416H2.82674H2.82933H2.83191H2.83449H2.83707H2.83966H2.84224H2.84482H2.8474H2.84997H2.85255H2.85513H2.85771H2.86028H2.86286H2.86544H2.86802H2.87058H2.87316H2.87573H2.87829H2.88087H2.88343H2.88599H2.88857H2.89113H2.89369H2.89625H2.89881H2.90137H2.90391H2.90647H2.90903H2.91157H2.91413H2.91668H2.91922H2.92176H2.9243H2.92684H2.92939H2.93193H2.93445H2.937H2.93952H2.94206H2.94459H2.94711H2.94964H2.95214H2.95467H2.95719H2.9597H2.9622H2.96473H2.96724H2.96972H2.97223H2.97474H2.97723H2.97973H2.98222H2.98471H2.9872H2.98967H2.99216H2.99463H2.99712H2.99959H3.00206H3.00452H3.00699H3.00944H3.01191H3.01436H3.01682H3.01925H3.02171H3.02414H3.02658H3.02901H3.03145H3.03388H3.0363H3.03872H3.04114H3.04356H3.04597H3.04837H3.05077H3.05317H3.05557H3.05797H3.06036H3.06274H3.06512H3.0675H3.06988H3.07225H3.07461H3.07698H3.07932H3.08169H3.08404H3.08638H3.08871H3.09106H3.09339H3.09572H3.09804H3.10036H3.10267H3.10498H3.10729H3.10958H3.11189H3.11419H3.11646H3.11876H3.12103H3.12331H3.12556H3.12784H3.1301H3.13234H3.1346H3.13684H3.13908H3.14132H3.14354H3.14576H3.14798H3.15019H3.15241H3.1546H3.1568H3.15899H3.16117H3.16336H3.16553H3.1677H3.16987H3.17204H3.17419H3.17634H3.17847H3.1806H3.18274H3.18487H3.18699H3.1891H3.1912H3.19332H3.1954H3.19749H3.19957H3.20165H3.20372H3.2058H3.20784H3.2099H3.21195H3.21399H3.21602H3.21804H3.22007H3.22208H3.22409H3.2261H3.22809H3.23008H3.23205H3.23403H3.236H3.23796H3.23991H3.24187H3.2438H3.24574H3.24766H3.24958H3.2515H3.2534H3.25531H3.25721H3.25909H3.26096H3.26284H3.26469H3.26656H3.26841H3.27024H3.27209H3.2739H3.27573H3.27755H3.27934H3.28114H3.28293H3.28471H3.28825H3.29175H3.29524H3.29868H3.3021H3.30548H3.30884H3.31214H3.31543H3.31868H3.3219H3.32508H3.32823H3.33134H3.33442H3.33746H3.34046H3.34345H3.34638H3.34928H3.35214H3.35497H3.35915H3.36188H3.36457H3.36724H3.36985H3.37243H3.37497H3.37748H3.37993H3.38236H3.38475H3.38708H3.38939H3.39164H3.39387H3.39604H3.39817H3.40027H3.40231H3.40432H3.40725H3.40916H3.411H3.41282H3.4163H3.41961H3.42274H3.42569H3.42974H3.43221H3.43449H3.43657H3.44053H3.4429H3.44501L3.44615 25.1626V25.6488H3.44396H3.44162H3.43932H3.43657H3.43449H3.43221H3.42974H3.42709H3.42423H3.42121H3.41799H3.4146H3.411H3.40916H3.40725H3.40532H3.40332H3.4013H3.39924H3.39712H3.39495H3.39276H3.39052H3.38823H3.38592H3.38356H3.38116H3.3787H3.37623H3.37371H3.37115H3.36855H3.3659H3.36324H3.36052H3.35776H3.35497H3.35214H3.34928H3.34638H3.34345H3.34046H3.33746H3.33442H3.33134H3.32823H3.32508H3.3219H3.31868H3.31543H3.31214H3.30884H3.30548H3.3021H3.29868H3.29524H3.29175H3.28825H3.28471H3.28293H3.28114H3.27934H3.27755H3.27573H3.2739H3.27209H3.27024H3.26841H3.26656H3.26469H3.26284H3.26096H3.25909H3.25721H3.25531H3.2534H3.2515H3.24958H3.24766H3.24574H3.2438H3.24187H3.23991H3.23796H3.236H3.23403H3.23205H3.23008H3.22809H3.2261H3.22409H3.22208H3.22007H3.21804H3.21602H3.21399H3.21195H3.2099H3.20784H3.2058H3.20372H3.20165H3.19957H3.19749H3.1954H3.19332H3.1912H3.1891H3.18699H3.18487H3.18274H3.1806H3.17847H3.17634H3.17419H3.17204H3.16987H3.1677H3.16553H3.16336H3.16117H3.15899H3.1568H3.1546H3.15241H3.15019H3.14798H3.14576H3.14354H3.14132H3.13908H3.13684H3.1346H3.13234H3.1301H3.12784H3.12556H3.12331H3.12103H3.11876H3.11646H3.11419H3.11189H3.10958H3.10729H3.10498H3.10267H3.10036H3.09804H3.09572H3.09339H3.09106H3.08871H3.08638H3.08404H3.08169H3.07932H3.07698H3.07461H3.07225H3.06988H3.0675H3.06512H3.06274H3.06036H3.05797H3.05557H3.05317H3.05077H3.04837H3.04597H3.04356H3.04114H3.03872H3.0363H3.03388H3.03145H3.02901H3.02658H3.02414H3.02171H3.01925H3.01682H3.01436H3.01191H3.00944H3.00699H3.00452H3.00206H2.99959H2.99712H2.99463H2.99216H2.98967H2.9872H2.98471H2.98222H2.97973H2.97723H2.97474H2.97223H2.96972H2.96724H2.96473H2.9622H2.9597H2.95719H2.95467H2.95214H2.94964H2.94711H2.94459H2.94206H2.93952H2.937H2.93445H2.93193H2.92939H2.92684H2.9243H2.92176H2.91922H2.91668H2.91413H2.91157H2.90903H2.90647H2.90391H2.90137H2.89881H2.89625H2.89369H2.89113H2.88857H2.88599H2.88343H2.88087H2.87829H2.87573H2.87316H2.87058H2.86802H2.86544H2.86286H2.86028H2.85771H2.85513H2.85255H2.84997H2.8474H2.84482H2.84224H2.83966H2.83707H2.83449H2.83191H2.82933H2.82674H2.82416H2.82156H2.81899H2.81641H2.81381H2.81124H2.80864H2.80606H2.80347H2.80089H2.79829H2.79572H2.79312H2.79054H2.78795H2.78537H2.78277H2.7802H2.7776H2.77502H2.77243H2.76985H2.76725H2.76468H2.7621H2.7595H2.75692H2.75435H2.75177H2.74917H2.7466H2.74402H2.74144H2.73886H2.73628H2.73371H2.73113H2.72857H2.72599H2.72341H2.72084H2.71828H2.7157H2.71314H2.71056H2.708H2.70544H2.70288H2.7003H2.69774H2.69518H2.69264H2.69008H2.68752H2.68496H2.68242H2.67986H2.67732H2.67477H2.67223H2.66969H2.66715H2.6646H2.66206H2.65952H2.657H2.65445H2.65193H2.6494H2.64688H2.64436H2.64183H2.63931H2.6368H2.63428H2.63177H2.62926H2.62676H2.62425H2.62174H2.61924H2.61675H2.61424H2.61175H2.60926H2.60677H2.60428H2.60181H2.59932H2.59685H2.59438H2.59191H2.58944H2.58697H2.58452H2.58206H2.57959H2.57714H2.5747H2.57225H2.56981H2.56736H2.56492H2.56249H2.56007H2.55764H2.55522H2.5528H2.55038H2.54796H2.54556H2.54316H2.54075H2.53836H2.53596H2.53356H2.53118H2.5288H2.52642H2.52405H2.52167H2.51931H2.51694H2.5146H2.51223H2.50988H2.50754H2.50519H2.50286H2.50052H2.49819H2.49588H2.49355H2.49124H2.48892H2.48661H2.4843H2.48201H2.47972H2.47742H2.47515H2.47287H2.4706H2.46832H2.46606H2.46379H2.46155H1.96923V24.6764ZM28.0615 24.6764H28.5538H28.5561H28.5584H28.5607H28.5628H28.5652H28.5675H28.5698H28.5721H28.5744H28.5765H28.5788H28.5812H28.5835H28.5858H28.5883H28.5906H28.5929H28.5952H28.5975H28.5998H28.6021H28.6046H28.6069H28.6092H28.6116H28.614H28.6164H28.6187H28.6212H28.6235H28.626H28.6283H28.6308H28.6331H28.6356H28.6379H28.6404H28.6427H28.6452H28.6475H28.65H28.6524H28.6548H28.6572H28.6597H28.662H28.6645H28.667H28.6695H28.6718H28.6743H28.6768H28.6793H28.6818H28.6843H28.6868H28.6892H28.6916H28.694H28.6965H28.699H28.7015H28.704H28.7065H28.709H28.7115H28.7141H28.7166H28.7191H28.7216H28.7241H28.7266H28.7291H28.7316H28.7342H28.7367H28.7392H28.7417H28.7442H28.7468H28.7493H28.7518H28.7543H28.757H28.7595H28.762H28.7646H28.7671H28.7696H28.7721H28.7748H28.7772H28.7799H28.7824H28.7849H28.7876H28.79H28.7925H28.7952H28.7977H28.8004H28.8028H28.8055H28.808H28.8107H28.8132H28.8156H28.8183H28.8208H28.8235H28.826H28.8286H28.8311H28.8338H28.8363H28.8389H28.8414H28.8441H28.8466H28.8492H28.8519H28.8544H28.8571H28.8596H28.8622H28.8647H28.8674H28.8699H28.8725H28.875H28.8777H28.8802H28.8828H28.8855H28.888H28.8907H28.8932H28.8958H28.8983H28.901H28.9035H28.9061H28.9088H28.9113H28.914H28.9164H28.9191H28.9216H28.9243H28.9268H28.9294H28.9319H28.9346H28.9371H28.9397H28.9422H28.9449H28.9474H28.95H28.9525H28.9552H28.9577H28.9604H28.9628H28.9655H28.968H28.9707H28.9732H28.9758H28.9783H28.9808H28.9835H28.986H28.9886H28.9911H28.9936H28.9963H28.9988H29.0012H29.0039H29.0064H29.0091H29.0116H29.014H29.0165H29.0192H29.0217H29.0242H29.0268H29.0293H29.0318H29.0343H29.037H29.0395H29.042H29.0444H29.0469H29.0494H29.0521H29.0546H29.0571H29.0596H29.062H29.0645H29.067H29.0695H29.072H29.0745H29.077H29.0795H29.082H29.0844H29.0869H29.0894H29.0919H29.0944H29.0969H29.0994H29.1017H29.1042H29.1067H29.1092H29.1116H29.114H29.1164H29.1189H29.1212H29.1237H29.1262H29.1285H29.131H29.1335H29.1358H29.1383H29.1406H29.1431H29.1454H29.1479H29.1502H29.1527H29.155H29.1575H29.1598H29.1621H29.1646H29.1669H29.1692H29.1716H29.174H29.1764H29.1787H29.181H29.1833H29.1858H29.1881H29.1904H29.1927H29.195H29.1973H29.1996H29.202H29.2043H29.2066H29.2087H29.211H29.2133H29.2156H29.218H29.2201H29.2224H29.2247H29.2268H29.2292H29.2315H29.2336H29.2359H29.238H29.2404H29.2425H29.2446H29.2469H29.2491H29.2514H29.2535H29.2556H29.2578H29.2601H29.2622H29.2644H29.2665H29.2686H29.2708H29.2729H29.275H29.2772H29.2793H29.2814H29.2836H29.2857H29.2876H29.2898H29.2919H29.294H29.296H29.2981H29.3001H29.3022H29.3042H29.3063H29.3083H29.3104H29.3124H29.3143H29.3164H29.3184H29.3204H29.3223H29.3244H29.3264H29.3284H29.3303H29.3323H29.3342H29.3362H29.3381H29.3419H29.3438H29.3458H29.3495H29.3515H29.3552H29.3589H29.3625H29.3644H29.368H29.3717H29.3753H29.3788H29.3824H29.3858H29.3876H29.3909H29.3945H29.3979H29.4011H29.4028H29.406H29.4078H29.411H29.4142H29.4174H29.4206H29.4236H29.4267H29.4297H29.4327H29.4357H29.4388H29.4416H29.4444H29.4473H29.4514H29.4542H29.4569H29.4596H29.4622H29.4647H29.4672H29.4699H29.4722H29.4747H29.477H29.4795H29.4818H29.4839H29.4862H29.4884H29.4905H29.4926H29.4946H29.4967H29.4996H29.5015H29.5051H29.5068H29.5102H29.515H29.518H29.5221H29.5244H29.5268H29.5289H29.5328H29.5353H29.5372L29.5385 25.1626V25.6488H29.5364H29.5339H29.5316H29.5289H29.5268H29.5244H29.5221H29.5195H29.5166H29.5136H29.5102H29.5068H29.5051H29.5015H29.4996H29.4976H29.4956H29.4937H29.4916H29.4894H29.4873H29.4852H29.4828H29.4805H29.4782H29.4759H29.4734H29.4709H29.4686H29.466H29.4635H29.4608H29.4581H29.4555H29.4528H29.4501H29.4473H29.4444H29.4416H29.4388H29.4357H29.4327H29.4297H29.4267H29.4236H29.4206H29.4174H29.4142H29.411H29.4078H29.406H29.4028H29.4011H29.3979H29.3961H29.3927H29.3893H29.3858H29.3824H29.3788H29.3771H29.3735H29.3698H29.3662H29.3625H29.3589H29.357H29.3532H29.3495H29.3476H29.3438H29.3419H29.3399H29.3362H29.3342H29.3323H29.3303H29.3284H29.3264H29.3244H29.3223H29.3204H29.3184H29.3164H29.3143H29.3124H29.3104H29.3083H29.3063H29.3042H29.3022H29.3001H29.2981H29.296H29.294H29.2919H29.2898H29.2876H29.2857H29.2836H29.2814H29.2793H29.2772H29.275H29.2729H29.2708H29.2686H29.2665H29.2644H29.2622H29.2601H29.2578H29.2556H29.2535H29.2514H29.2491H29.2469H29.2446H29.2425H29.2404H29.238H29.2359H29.2336H29.2315H29.2292H29.2268H29.2247H29.2224H29.2201H29.218H29.2156H29.2133H29.211H29.2087H29.2066H29.2043H29.202H29.1996H29.1973H29.195H29.1927H29.1904H29.1881H29.1858H29.1833H29.181H29.1787H29.1764H29.174H29.1716H29.1692H29.1669H29.1646H29.1621H29.1598H29.1575H29.155H29.1527H29.1502H29.1479H29.1454H29.1431H29.1406H29.1383H29.1358H29.1335H29.131H29.1285H29.1262H29.1237H29.1212H29.1189H29.1164H29.114H29.1116H29.1092H29.1067H29.1042H29.1017H29.0994H29.0969H29.0944H29.0919H29.0894H29.0869H29.0844H29.082H29.0795H29.077H29.0745H29.072H29.0695H29.067H29.0645H29.062H29.0596H29.0571H29.0546H29.0521H29.0494H29.0469H29.0444H29.042H29.0395H29.037H29.0343H29.0318H29.0293H29.0268H29.0242H29.0217H29.0192H29.0165H29.014H29.0116H29.0091H29.0064H29.0039H29.0012H28.9988H28.9963H28.9936H28.9911H28.9886H28.986H28.9835H28.9808H28.9783H28.9758H28.9732H28.9707H28.968H28.9655H28.9628H28.9604H28.9577H28.9552H28.9525H28.95H28.9474H28.9449H28.9422H28.9397H28.9371H28.9346H28.9319H28.9294H28.9268H28.9243H28.9216H28.9191H28.9164H28.914H28.9113H28.9088H28.9061H28.9035H28.901H28.8983H28.8958H28.8932H28.8907H28.888H28.8855H28.8828H28.8802H28.8777H28.875H28.8725H28.8699H28.8674H28.8647H28.8622H28.8596H28.8571H28.8544H28.8519H28.8492H28.8466H28.8441H28.8414H28.8389H28.8363H28.8338H28.8311H28.8286H28.826H28.8235H28.8208H28.8183H28.8156H28.8132H28.8107H28.808H28.8055H28.8028H28.8004H28.7977H28.7952H28.7925H28.79H28.7876H28.7849H28.7824H28.7799H28.7772H28.7748H28.7721H28.7696H28.7671H28.7646H28.762H28.7595H28.757H28.7543H28.7518H28.7493H28.7468H28.7442H28.7417H28.7392H28.7367H28.7342H28.7316H28.7291H28.7266H28.7241H28.7216H28.7191H28.7166H28.7141H28.7115H28.709H28.7065H28.704H28.7015H28.699H28.6965H28.694H28.6916H28.6892H28.6868H28.6843H28.6818H28.6793H28.6768H28.6743H28.6718H28.6695H28.667H28.6645H28.662H28.6597H28.6572H28.6548H28.6524H28.65H28.6475H28.6452H28.6427H28.6404H28.6379H28.6356H28.6331H28.6308H28.6283H28.626H28.6235H28.6212H28.6187H28.6164H28.614H28.6116H28.6092H28.6069H28.6046H28.6021H28.5998H28.5975H28.5952H28.5929H28.5906H28.5883H28.5858H28.5835H28.5812H28.5788H28.5765H28.5744H28.5721H28.5698H28.5675H28.5652H28.5628H28.5607H28.5584H28.5561H28.5538H28.0615V24.6764ZM3.44615 27.5937H1.96923V26.6213H3.44615V27.5937ZM29.5385 27.5937H28.0615V26.6213H29.5385V27.5937ZM11.8154 16.4104C14.5343 16.4104 16.7385 14.2335 16.7385 11.5481C16.7385 8.86276 14.5343 6.68584 11.8154 6.68584C9.09645 6.68584 6.8923 8.86276 6.8923 11.5481C6.8923 14.2335 9.09645 16.4104 11.8154 16.4104ZM11.8154 17.3829C15.0781 17.3829 17.7231 14.7706 17.7231 11.5481C17.7231 8.32569 15.0781 5.71337 11.8154 5.71337C8.55266 5.71337 5.9077 8.32569 5.9077 11.5481C5.9077 14.7706 8.55266 17.3829 11.8154 17.3829ZM12.3077 12.5206V7.6583H11.3231V12.5206H12.3077Z" fill="url(#paint0_linear_855_8586)"/>
<path fill-rule="evenodd" clip-rule="evenodd" d="M4.43078 11.5483C4.43078 7.52027 7.73698 4.25488 11.8154 4.25488C15.8938 4.25488 19.2 7.52027 19.2 11.5483C19.2 15.0643 16.6805 18.0003 13.327 18.689L12.9349 18.7696V19.1649V22.7317V23.2179H13.4272H26.2985C26.9753 23.2179 27.5762 22.7902 27.79 22.156C27.87 21.9191 28.0948 21.7592 28.3476 21.7592H28.9157C29.2135 21.7592 29.5031 21.8545 29.7413 22.0309L30.0308 22.2455C30.6507 22.7045 31.0155 23.425 31.0155 24.1903V26.5624C31.0155 27.094 30.8016 27.6037 30.4212 27.9795L30.3179 28.0814C30.0036 28.392 29.5771 28.5663 29.1324 28.5663H28.3476C28.0948 28.5663 27.87 28.4065 27.79 28.1695C27.5762 27.5354 26.9753 27.1077 26.2985 27.1077H10.5876H5.70148C5.02473 27.1077 4.4239 27.5354 4.20989 28.1695C4.12989 28.4065 3.90532 28.5663 3.65236 28.5663H2.86758C2.42296 28.5663 1.99652 28.392 1.68212 28.0814L1.57889 27.9795C1.19838 27.6037 0.984619 27.094 0.984619 26.5624V23.3651C0.984619 23.048 1.07964 22.7381 1.2577 22.4743C1.55927 22.0275 2.06696 21.7592 2.6106 21.7592H3.65236C3.90532 21.7592 4.12989 21.9191 4.20989 22.156C4.4239 22.7902 5.02473 23.2179 5.70148 23.2179H10.5876H11.08V22.7317V19.2341V18.8181L10.6638 18.7537C7.13245 18.2078 4.43078 15.1892 4.43078 11.5483ZM3.44616 23.7041H1.96923V22.7317H3.44616V23.7041ZM29.5385 23.7041H28.0615V22.7317H29.5385V23.7041ZM1.96923 24.6766H2.46155H2.46379H2.46607H2.46832H2.4706H2.47288H2.47515H2.47743H2.47972H2.48201H2.48431H2.48662H2.48893H2.49124H2.49355H2.49588H2.49819H2.50052H2.50287H2.5052H2.50754H2.50989H2.51224H2.5146H2.51695H2.51931H2.52168H2.52406H2.52642H2.5288H2.53119H2.53357H2.53597H2.53837H2.54075H2.54317H2.54557H2.54797H2.55039H2.5528H2.55522H2.55764H2.56008H2.56249H2.56493H2.56736H2.56982H2.57225H2.57471H2.57714H2.5796H2.58207H2.58452H2.58697H2.58944H2.59192H2.59439H2.59686H2.59933H2.60182H2.60429H2.60678H2.60927H2.61176H2.61424H2.61675H2.61924H2.62175H2.62425H2.62676H2.62927H2.63177H2.63428H2.6368H2.63931H2.64184H2.64436H2.64688H2.64941H2.65193H2.65446H2.657H2.65952H2.66207H2.66461H2.66715H2.66969H2.67224H2.67478H2.67732H2.67986H2.68242H2.68496H2.68752H2.69008H2.69264H2.69519H2.69775H2.70031H2.70288H2.70544H2.708H2.71056H2.71314H2.7157H2.71828H2.72084H2.72342H2.726H2.72857H2.73113H2.73371H2.73629H2.73887H2.74144H2.74402H2.7466H2.74918H2.75177H2.75435H2.75693H2.75951H2.7621H2.76468H2.76726H2.76985H2.77243H2.77503H2.7776H2.7802H2.78278H2.78537H2.78795H2.79055H2.79312H2.79572H2.7983H2.80089H2.80347H2.80607H2.80864H2.81124H2.81382H2.81641H2.81899H2.82157H2.82416H2.82674H2.82934H2.83192H2.83449H2.83707H2.83967H2.84224H2.84482H2.8474H2.84998H2.85256H2.85513H2.85771H2.86029H2.86287H2.86544H2.86802H2.87058H2.87316H2.87574H2.8783H2.88088H2.88344H2.886H2.88857H2.89113H2.89369H2.89625H2.89881H2.90137H2.90392H2.90648H2.90904H2.91158H2.91414H2.91668H2.91922H2.92176H2.92431H2.92685H2.92939H2.93193H2.93446H2.937H2.93952H2.94207H2.94459H2.94712H2.94964H2.95215H2.95467H2.9572H2.9597H2.96221H2.96473H2.96724H2.96973H2.97224H2.97474H2.97723H2.97974H2.98223H2.98472H2.9872H2.98968H2.99216H2.99464H2.99712H2.9996H3.00207H3.00452H3.00699H3.00944H3.01192H3.01437H3.01682H3.01926H3.02171H3.02415H3.02658H3.02902H3.03145H3.03389H3.03631H3.03872H3.04114H3.04356H3.04598H3.04838H3.05078H3.05318H3.05558H3.05798H3.06036H3.06274H3.06512H3.06751H3.06989H3.07225H3.07462H3.07698H3.07933H3.08169H3.08404H3.08639H3.08872H3.09106H3.09339H3.09572H3.09805H3.10036H3.10267H3.10498H3.10729H3.10959H3.1119H3.11419H3.11647H3.11876H3.12104H3.12331H3.12557H3.12784H3.1301H3.13234H3.1346H3.13684H3.13908H3.14132H3.14354H3.14576H3.14799H3.15019H3.15241H3.1546H3.1568H3.15899H3.16118H3.16336H3.16553H3.1677H3.16987H3.17204H3.17419H3.17634H3.17848H3.18061H3.18274H3.18488H3.18699H3.18911H3.1912H3.19332H3.1954H3.1975H3.19958H3.20166H3.20372H3.2058H3.20784H3.20991H3.21195H3.214H3.21602H3.21805H3.22008H3.22208H3.22409H3.2261H3.22809H3.23008H3.23206H3.23403H3.236H3.23796H3.23992H3.24187H3.24381H3.24575H3.24767H3.24959H3.25151H3.25341H3.25531H3.25721H3.2591H3.26096H3.26285H3.2647H3.26656H3.26841H3.27024H3.27209H3.27391H3.27574H3.27755H3.27935H3.28114H3.28294H3.28472H3.28825H3.29175H3.29524H3.29869H3.3021H3.30548H3.30884H3.31215H3.31544H3.31869H3.32191H3.32509H3.32824H3.33135H3.33442H3.33746H3.34047H3.34345H3.34639H3.34928H3.35215H3.35497H3.35915H3.36189H3.36457H3.36724H3.36985H3.37243H3.37497H3.37748H3.37993H3.38237H3.38475H3.38708H3.38939H3.39165H3.39387H3.39604H3.39817H3.40027H3.40232H3.40432H3.40726H3.40916H3.41101H3.41282H3.41631H3.41961H3.42274H3.42569H3.42975H3.43222H3.43449H3.43657H3.44054H3.4429H3.44502L3.44616 25.1628V25.649H3.44397H3.44162H3.43933H3.43657H3.43449H3.43222H3.42975H3.4271H3.42424H3.42121H3.418H3.4146H3.41101H3.40916H3.40726H3.40532H3.40333H3.4013H3.39924H3.39712H3.39496H3.39277H3.39053H3.38824H3.38592H3.38356H3.38116H3.37871H3.37624H3.37371H3.37115H3.36856H3.36591H3.36324H3.36052H3.35776H3.35497H3.35215H3.34928H3.34639H3.34345H3.34047H3.33746H3.33442H3.33135H3.32824H3.32509H3.32029H3.31705H3.3138H3.31049H3.30717H3.30379H3.3004H3.29696H3.2935H3.29001H3.28649H3.28294H3.28114H3.27935H3.27755H3.27574H3.27391H3.27209H3.27024H3.26841H3.26656H3.2647H3.26285H3.26096H3.2591H3.25721H3.25531H3.25341H3.25151H3.24959H3.24767H3.24575H3.24381H3.24187H3.23992H3.23796H3.236H3.23403H3.23206H3.23008H3.22809H3.2261H3.22409H3.22208H3.22008H3.21805H3.21602H3.214H3.21195H3.20991H3.20784H3.2058H3.20372H3.20166H3.19958H3.1975H3.1954H3.19332H3.1912H3.18911H3.18699H3.18488H3.18274H3.18061H3.17848H3.17634H3.17419H3.17204H3.16987H3.1677H3.16553H3.16336H3.16118H3.15899H3.1568H3.1546H3.15241H3.15019H3.14799H3.14576H3.14354H3.14132H3.13908H3.13684H3.1346H3.13234H3.1301H3.12784H3.12557H3.12331H3.12104H3.11876H3.11647H3.11419H3.1119H3.10959H3.10729H3.10498H3.10267H3.10036H3.09805H3.09572H3.09339H3.09106H3.08872H3.08639H3.08404H3.08169H3.07933H3.07698H3.07462H3.07225H3.06989H3.06751H3.06512H3.06274H3.06036H3.05798H3.05558H3.05318H3.05078H3.04838H3.04598H3.04356H3.04114H3.03872H3.03631H3.03389H3.03145H3.02902H3.02658H3.02415H3.02171H3.01926H3.01682H3.01437H3.01192H3.00944H3.00699H3.00452H3.00207H2.9996H2.99712H2.99464H2.99216H2.98968H2.9872H2.98472H2.98223H2.97974H2.97723H2.97474H2.97224H2.96973H2.96724H2.96473H2.96221H2.9597H2.9572H2.95467H2.95215H2.94964H2.94712H2.94459H2.94207H2.93952H2.937H2.93446H2.93193H2.92939H2.92685H2.92431H2.92176H2.91922H2.91668H2.91414H2.91158H2.90904H2.90648H2.90392H2.90137H2.89881H2.89625H2.89369H2.89113H2.88857H2.886H2.88344H2.88088H2.8783H2.87574H2.87316H2.87058H2.86802H2.86544H2.86287H2.86029H2.85771H2.85513H2.85256H2.84998H2.8474H2.84482H2.84224H2.83967H2.83707H2.83449H2.83192H2.82934H2.82674H2.82416H2.82157H2.81899H2.81641H2.81382H2.81124H2.80864H2.80607H2.80347H2.80089H2.7983H2.79572H2.79312H2.79055H2.78795H2.78537H2.78278H2.7802H2.7776H2.77503H2.77243H2.76985H2.76726H2.76468H2.7621H2.75951H2.75693H2.75435H2.75177H2.74918H2.7466H2.74402H2.74144H2.73887H2.73629H2.73371H2.73113H2.72857H2.726H2.72342H2.72084H2.71828H2.7157H2.71314H2.71056H2.708H2.70544H2.70288H2.70031H2.69775H2.69519H2.69264H2.69008H2.68752H2.68496H2.68242H2.67986H2.67732H2.67478H2.67224H2.66969H2.66715H2.66461H2.66207H2.65952H2.657H2.65446H2.65193H2.64941H2.64688H2.64436H2.64184H2.63931H2.6368H2.63428H2.63177H2.62927H2.62676H2.62425H2.62175H2.61924H2.61675H2.61424H2.61176H2.60927H2.60678H2.60429H2.60182H2.59933H2.59686H2.59439H2.59192H2.58944H2.58697H2.58452H2.58207H2.5796H2.57714H2.57471H2.57225H2.56982H2.56736H2.56493H2.56249H2.56008H2.55764H2.55522H2.5528H2.55039H2.54797H2.54557H2.54317H2.54075H2.53837H2.53597H2.53357H2.53119H2.5288H2.52642H2.52406H2.52168H2.51931H2.51695H2.5146H2.51224H2.50989H2.50754H2.5052H2.50287H2.50052H2.49819H2.49588H2.49355H2.49124H2.48893H2.48662H2.48431H2.48201H2.47972H2.47743H2.47515H2.47288H2.4706H2.46832H2.46607H2.46379H2.46155H1.96923V24.6766ZM28.0615 24.6766H28.5538H28.5561H28.5584H28.5607H28.5628H28.5652H28.5675H28.5698H28.5721H28.5744H28.5765H28.5788H28.5812H28.5835H28.5858H28.5883H28.5906H28.5929H28.5952H28.5975H28.5998H28.6021H28.6046H28.6069H28.6092H28.6116H28.614H28.6164H28.6187H28.6212H28.6235H28.626H28.6283H28.6308H28.6331H28.6356H28.6379H28.6404H28.6427H28.6452H28.6475H28.65H28.6524H28.6548H28.6572H28.6597H28.662H28.6645H28.667H28.6695H28.6718H28.6743H28.6768H28.6793H28.6818H28.6843H28.6868H28.6892H28.6916H28.694H28.6965H28.699H28.7015H28.704H28.7065H28.709H28.7115H28.7141H28.7166H28.7191H28.7216H28.7241H28.7266H28.7291H28.7316H28.7342H28.7367H28.7392H28.7417H28.7442H28.7468H28.7493H28.7518H28.7543H28.757H28.7595H28.762H28.7646H28.7671H28.7696H28.7721H28.7748H28.7772H28.7799H28.7824H28.7849H28.7876H28.79H28.7925H28.7952H28.7977H28.8004H28.8028H28.8055H28.808H28.8107H28.8132H28.8156H28.8183H28.8208H28.8235H28.826H28.8286H28.8311H28.8338H28.8363H28.8389H28.8414H28.8441H28.8466H28.8492H28.8519H28.8544H28.8571H28.8596H28.8622H28.8647H28.8674H28.8699H28.8725H28.875H28.8777H28.8802H28.8828H28.8855H28.888H28.8907H28.8932H28.8958H28.8983H28.901H28.9035H28.9061H28.9088H28.9113H28.914H28.9164H28.9191H28.9216H28.9243H28.9268H28.9294H28.9319H28.9346H28.9371H28.9397H28.9422H28.9449H28.9474H28.9501H28.9525H28.9552H28.9577H28.9604H28.9628H28.9655H28.968H28.9707H28.9732H28.9758H28.9783H28.9808H28.9835H28.986H28.9886H28.9911H28.9936H28.9963H28.9988H29.0012H29.0039H29.0064H29.0091H29.0116H29.014H29.0165H29.0192H29.0217H29.0242H29.0268H29.0293H29.0318H29.0343H29.037H29.0395H29.042H29.0444H29.0469H29.0494H29.0521H29.0546H29.0571H29.0596H29.062H29.0645H29.067H29.0695H29.072H29.0745H29.077H29.0795H29.082H29.0844H29.0869H29.0894H29.0919H29.0944H29.0969H29.0994H29.1017H29.1042H29.1067H29.1092H29.1116H29.114H29.1164H29.1189H29.1212H29.1237H29.1262H29.1285H29.131H29.1335H29.1358H29.1383H29.1406H29.1431H29.1454H29.1479H29.1502H29.1527H29.155H29.1575H29.1598H29.1621H29.1646H29.1669H29.1692H29.1716H29.174H29.1764H29.1787H29.181H29.1833H29.1858H29.1881H29.1904H29.1927H29.195H29.1973H29.1996H29.202H29.2043H29.2066H29.2087H29.211H29.2133H29.2156H29.218H29.2201H29.2224H29.2247H29.2268H29.2292H29.2315H29.2336H29.2359H29.238H29.2404H29.2425H29.2446H29.2469H29.2491H29.2514H29.2535H29.2556H29.2578H29.2601H29.2622H29.2644H29.2665H29.2686H29.2708H29.2729H29.275H29.2772H29.2793H29.2814H29.2836H29.2857H29.2876H29.2898H29.2919H29.294H29.296H29.2981H29.3001H29.3022H29.3042H29.3063H29.3083H29.3104H29.3124H29.3143H29.3164H29.3184H29.3204H29.3223H29.3244H29.3264H29.3284H29.3303H29.3323H29.3342H29.3362H29.3381H29.3419H29.3438H29.3458H29.3495H29.3515H29.3552H29.3589H29.3625H29.3644H29.368H29.3717H29.3753H29.3788H29.3824H29.3858H29.3876H29.3909H29.3945H29.3979H29.4011H29.4028H29.406H29.4078H29.411H29.4142H29.4174H29.4206H29.4236H29.4267H29.4297H29.4327H29.4357H29.4388H29.4416H29.4444H29.4473H29.4514H29.4542H29.4569H29.4596H29.4622H29.4647H29.4672H29.4699H29.4722H29.4747H29.477H29.4795H29.4818H29.4839H29.4862H29.4884H29.4905H29.4926H29.4946H29.4967H29.4996H29.5015H29.5051H29.5068H29.5102H29.515H29.518H29.5221H29.5244H29.5268H29.5289H29.5328H29.5353H29.5372L29.5385 25.1628V25.649H29.5364H29.5339H29.5316H29.5289H29.5268H29.5244H29.5221H29.5195H29.5166H29.5136H29.5102H29.5068H29.5051H29.5015H29.4996H29.4976H29.4956H29.4937H29.4916H29.4894H29.4873H29.4852H29.4828H29.4805H29.4782H29.4759H29.4734H29.4709H29.4686H29.466H29.4635H29.4608H29.4581H29.4555H29.4528H29.4501H29.4473H29.4444H29.4416H29.4388H29.4357H29.4327H29.4297H29.4267H29.4236H29.4206H29.4174H29.4126H29.4094H29.406H29.4028H29.4011H29.3979H29.3961H29.3927H29.3893H29.3858H29.3824H29.3788H29.3771H29.3735H29.3698H29.3662H29.3625H29.3589H29.357H29.3532H29.3495H29.3476H29.3438H29.3419H29.3399H29.3362H29.3342H29.3323H29.3303H29.3284H29.3264H29.3244H29.3223H29.3204H29.3184H29.3164H29.3143H29.3124H29.3104H29.3083H29.3063H29.3042H29.3022H29.3001H29.2981H29.296H29.294H29.2919H29.2898H29.2876H29.2857H29.2836H29.2814H29.2793H29.2772H29.275H29.2729H29.2708H29.2686H29.2665H29.2644H29.2622H29.2601H29.2578H29.2556H29.2535H29.2514H29.2491H29.2469H29.2446H29.2425H29.2404H29.238H29.2359H29.2336H29.2315H29.2292H29.2268H29.2247H29.2224H29.2201H29.218H29.2156H29.2133H29.211H29.2087H29.2066H29.2043H29.202H29.1996H29.1973H29.195H29.1927H29.1904H29.1881H29.1858H29.1833H29.181H29.1787H29.1764H29.174H29.1716H29.1692H29.1669H29.1646H29.1621H29.1598H29.1575H29.155H29.1527H29.1502H29.1479H29.1454H29.1431H29.1406H29.1383H29.1358H29.1335H29.131H29.1285H29.1262H29.1237H29.1212H29.1189H29.1164H29.114H29.1116H29.1092H29.1067H29.1042H29.1017H29.0994H29.0969H29.0944H29.0919H29.0894H29.0869H29.0844H29.082H29.0795H29.077H29.0745H29.072H29.0695H29.067H29.0645H29.062H29.0596H29.0571H29.0546H29.0521H29.0494H29.0469H29.0444H29.042H29.0395H29.037H29.0343H29.0318H29.0293H29.0268H29.0242H29.0217H29.0192H29.0165H29.014H29.0116H29.0091H29.0064H29.0039H29.0012H28.9988H28.9963H28.9936H28.9911H28.9886H28.986H28.9835H28.9808H28.9783H28.9758H28.9732H28.9707H28.968H28.9655H28.9628H28.9604H28.9577H28.9552H28.9525H28.9501H28.9474H28.9449H28.9422H28.9397H28.9371H28.9346H28.9319H28.9294H28.9268H28.9243H28.9216H28.9191H28.9164H28.914H28.9113H28.9088H28.9061H28.9035H28.901H28.8983H28.8958H28.8932H28.8907H28.888H28.8855H28.8828H28.8802H28.8777H28.875H28.8725H28.8699H28.8674H28.8647H28.8622H28.8596H28.8571H28.8544H28.8519H28.8492H28.8466H28.8441H28.8414H28.8389H28.8363H28.8338H28.8311H28.8286H28.826H28.8235H28.8208H28.8183H28.8156H28.8132H28.8107H28.808H28.8055H28.8028H28.8004H28.7977H28.7952H28.7925H28.79H28.7876H28.7849H28.7824H28.7799H28.7772H28.7748H28.7721H28.7696H28.7671H28.7646H28.762H28.7595H28.757H28.7543H28.7518H28.7493H28.7468H28.7442H28.7417H28.7392H28.7367H28.7342H28.7316H28.7291H28.7266H28.7241H28.7216H28.7191H28.7166H28.7141H28.7115H28.709H28.7065H28.704H28.7015H28.699H28.6965H28.694H28.6916H28.6892H28.6868H28.6843H28.6818H28.6793H28.6768H28.6743H28.6718H28.6695H28.667H28.6645H28.662H28.6597H28.6572H28.6548H28.6524H28.65H28.6475H28.6452H28.6427H28.6404H28.6379H28.6356H28.6331H28.6308H28.6283H28.626H28.6235H28.6212H28.6187H28.6164H28.614H28.6116H28.6092H28.6069H28.6046H28.6021H28.5998H28.5975H28.5952H28.5929H28.5906H28.5883H28.5858H28.5835H28.5812H28.5788H28.5765H28.5744H28.5721H28.5698H28.5675H28.5652H28.5628H28.5607H28.5584H28.5561H28.5538H28.0615V24.6766ZM3.44616 27.5939H1.96923V26.6215H3.44616V27.5939ZM29.5385 27.5939H28.0615V26.6215H29.5385V27.5939ZM11.8154 17.3831C15.0781 17.3831 17.7231 14.7708 17.7231 11.5483C17.7231 8.32589 15.0781 5.71357 11.8154 5.71357C8.55266 5.71357 5.9077 8.32589 5.9077 11.5483C5.9077 14.7708 8.55266 17.3831 11.8154 17.3831Z" fill="url(#paint1_linear_855_8586)"/>
<path fill-rule="evenodd" clip-rule="evenodd" d="M1.96924 23.7035H3.44616V22.731H1.96924V23.7035ZM28.0615 23.7035H29.5385V22.731H28.0615V23.7035ZM2.46156 24.6759H1.96924V25.6483H2.46156H2.4638H2.46607H2.46833H2.47061H2.47288H2.47516H2.47743H2.47973H2.48202H2.48431H2.48663H2.48894H2.49125H2.49356H2.49589H2.4982H2.50053H2.50287H2.5052H2.50755H2.5099H2.51224H2.51461H2.51695H2.51932H2.52168H2.52407H2.52643H2.52881H2.53119H2.53358H2.53598H2.53838H2.54076H2.54318H2.54558H2.54798H2.55039H2.55281H2.55523H2.55765H2.56008H2.5625H2.56494H2.56737H2.56983H2.57226H2.57471H2.57715H2.5796H2.58207H2.58453H2.58698H2.58945H2.59192H2.59439H2.59686H2.59934H2.60183H2.6043H2.60679H2.60927H2.61176H2.61425H2.61676H2.61925H2.62175H2.62426H2.62677H2.62927H2.63178H2.63429H2.63681H2.63932H2.64184H2.64437H2.64689H2.64942H2.65194H2.65446H2.65701H2.65953H2.66207H2.66462H2.66716H2.6697H2.67224H2.67478H2.67733H2.67987H2.68243H2.68497H2.68753H2.69009H2.69265H2.69519H2.69775H2.70031H2.70289H2.70545H2.70801H2.71057H2.71315H2.71571H2.71829H2.72085H2.72342H2.726H2.72858H2.73114H2.73372H2.7363H2.73887H2.74145H2.74403H2.74661H2.74918H2.75178H2.75436H2.75694H2.75951H2.76211H2.76469H2.76726H2.76986H2.77244H2.77503H2.77761H2.78021H2.78278H2.78538H2.78796H2.79055H2.79313H2.79573H2.79831H2.8009H2.80348H2.80607H2.80865H2.81125H2.81382H2.81642H2.819H2.82158H2.82417H2.82675H2.82935H2.83192H2.8345H2.83708H2.83967H2.84225H2.84483H2.84741H2.84998H2.85256H2.85514H2.85772H2.8603H2.86287H2.86545H2.86803H2.87059H2.87317H2.87574H2.87831H2.88088H2.88344H2.886H2.88858H2.89114H2.8937H2.89626H2.89882H2.90138H2.90392H2.90648H2.90904H2.91159H2.91414H2.91669H2.91923H2.92177H2.92431H2.92686H2.9294H2.93194H2.93446H2.93701H2.93953H2.94207H2.9446H2.94712H2.94965H2.95215H2.95468H2.9572H2.95971H2.96222H2.96474H2.96725H2.96974H2.97224H2.97475H2.97724H2.97975H2.98223H2.98472H2.98721H2.98968H2.99217H2.99464H2.99713H2.9996H3.00207H3.00453H3.007H3.00945H3.01192H3.01438H3.01683H3.01927H3.02172H3.02415H3.02659H3.02902H3.03146H3.0339H3.03631H3.03873H3.04115H3.04357H3.04598H3.04839H3.05079H3.05318H3.05559H3.05799H3.06037H3.06275H3.06513H3.06751H3.0699H3.07226H3.07463H3.07699H3.07934H3.0817H3.08405H3.08639H3.08872H3.09107H3.0934H3.09573H3.09806H3.10037H3.10268H3.10499H3.1073H3.10959H3.1119H3.1142H3.11647H3.11877H3.12104H3.12332H3.12558H3.12785H3.13011H3.13235H3.13461H3.13685H3.13909H3.14133H3.14355H3.14577H3.14799H3.1502H3.15242H3.15461H3.15681H3.159H3.16118H3.16337H3.16554H3.16771H3.16988H3.17205H3.1742H3.17635H3.17848H3.18062H3.18275H3.18488H3.187H3.18911H3.19121H3.19333H3.19541H3.1975H3.19958H3.20167H3.20373H3.20581H3.20785H3.20991H3.21196H3.214H3.21603H3.21806H3.22008H3.22209H3.2241H3.22611H3.2281H3.23009H3.23206H3.23404H3.23601H3.23797H3.23992H3.24188H3.24382H3.24575H3.24767H3.24959H3.25151H3.25342H3.25532H3.25722H3.25911H3.26097H3.26286H3.26471H3.26657H3.26842H3.27025H3.2721H3.27391H3.27575H3.27756H3.27935H3.28115H3.28295H3.28472H3.28826H3.29176H3.29525H3.2987H3.30211H3.30549H3.30885H3.31215H3.31544H3.3187H3.3251H3.32824H3.33135H3.33443H3.33747H3.34047H3.34346H3.34639H3.34929H3.35215H3.35498H3.35777H3.36053H3.36325H3.36591H3.36856H3.37116H3.37372H3.37624H3.37871H3.38117H3.38357H3.38593H3.38824H3.39054H3.39278H3.39496H3.39713H3.39925H3.40131H3.40334H3.40533H3.40726H3.40917H3.41102H3.41283H3.41631H3.42122H3.42424H3.4271H3.42975H3.43222H3.4345H3.43658H3.43934H3.44163H3.44398H3.44616V25.1621L3.44502 24.6759H3.44291H3.44054H3.43658H3.4345H3.43222H3.42975H3.4257H3.42275H3.41962H3.41631H3.41283H3.41102H3.40917H3.40726H3.40433H3.40232H3.40028H3.39818H3.39605H3.39388H3.39166H3.3894H3.38709H3.38476H3.38238H3.37994H3.37749H3.37498H3.37244H3.36986H3.36725H3.36458H3.3619H3.35916H3.35498H3.35215H3.34929H3.34639H3.34346H3.34047H3.33747H3.33443H3.33135H3.32824H3.3251H3.32191H3.3187H3.31544H3.31215H3.30885H3.30549H3.30211H3.2987H3.29525H3.29176H3.28826H3.28472H3.28295H3.28115H3.27935H3.27756H3.27575H3.27391H3.2721H3.27025H3.26842H3.26657H3.26471H3.26286H3.26097H3.25911H3.25722H3.25532H3.25342H3.25151H3.24959H3.24767H3.24575H3.24382H3.24188H3.23992H3.23797H3.23601H3.23404H3.23206H3.23009H3.2281H3.22611H3.2241H3.22209H3.22008H3.21806H3.21603H3.214H3.21196H3.20991H3.20785H3.20581H3.20373H3.20167H3.19958H3.1975H3.19541H3.19333H3.19121H3.18911H3.187H3.18488H3.18275H3.18062H3.17848H3.17635H3.1742H3.17205H3.16988H3.16771H3.16554H3.16337H3.16118H3.159H3.15681H3.15461H3.15242H3.1502H3.14799H3.14577H3.14355H3.14133H3.13909H3.13685H3.13461H3.13235H3.13011H3.12785H3.12558H3.12332H3.12104H3.11877H3.11647H3.1142H3.1119H3.10959H3.1073H3.10499H3.10268H3.10037H3.09806H3.09573H3.0934H3.09107H3.08872H3.08639H3.08405H3.0817H3.07934H3.07699H3.07463H3.07226H3.0699H3.06751H3.06513H3.06275H3.06037H3.05799H3.05559H3.05318H3.05079H3.04839H3.04598H3.04357H3.04115H3.03873H3.03631H3.0339H3.03146H3.02902H3.02659H3.02415H3.02172H3.01927H3.01683H3.01438H3.01192H3.00945H3.007H3.00453H3.00207H2.9996H2.99713H2.99464H2.99217H2.98968H2.98721H2.98472H2.98223H2.97975H2.97724H2.97475H2.97224H2.96974H2.96725H2.96474H2.96222H2.95971H2.9572H2.95468H2.95215H2.94965H2.94712H2.9446H2.94207H2.93953H2.93701H2.93446H2.93194H2.9294H2.92686H2.92431H2.92177H2.91923H2.91669H2.91414H2.91159H2.90904H2.90648H2.90392H2.90138H2.89882H2.89626H2.8937H2.89114H2.88858H2.886H2.88344H2.88088H2.87831H2.87574H2.87317H2.87059H2.86803H2.86545H2.86287H2.8603H2.85772H2.85514H2.85256H2.84998H2.84741H2.84483H2.84225H2.83967H2.83708H2.8345H2.83192H2.82935H2.82675H2.82417H2.82158H2.819H2.81642H2.81382H2.81125H2.80865H2.80607H2.80348H2.8009H2.79831H2.79573H2.79313H2.79055H2.78796H2.78538H2.78278H2.78021H2.77761H2.77503H2.77244H2.76986H2.76726H2.76469H2.76211H2.75951H2.75694H2.75436H2.75178H2.74918H2.74661H2.74403H2.74145H2.73887H2.7363H2.73372H2.73114H2.72858H2.726H2.72342H2.72085H2.71829H2.71571H2.71315H2.71057H2.70801H2.70545H2.70289H2.70031H2.69775H2.69519H2.69265H2.69009H2.68753H2.68497H2.68243H2.67987H2.67733H2.67478H2.67224H2.6697H2.66716H2.66462H2.66207H2.65953H2.65701H2.65446H2.65194H2.64942H2.64689H2.64437H2.64184H2.63932H2.63681H2.63429H2.63178H2.62927H2.62677H2.62426H2.62175H2.61925H2.61676H2.61425H2.61176H2.60927H2.60679H2.6043H2.60183H2.59934H2.59686H2.59439H2.59192H2.58945H2.58698H2.58453H2.58207H2.5796H2.57715H2.57471H2.57226H2.56983H2.56737H2.56494H2.5625H2.56008H2.55765H2.55523H2.55281H2.55039H2.54798H2.54558H2.54318H2.54076H2.53838H2.53598H2.53358H2.53119H2.52881H2.52643H2.52407H2.52168H2.51932H2.51695H2.51461H2.51224H2.5099H2.50755H2.5052H2.50287H2.50053H2.4982H2.49589H2.49356H2.49125H2.48894H2.48663H2.48431H2.48202H2.47973H2.47743H2.47516H2.47288H2.47061H2.46833H2.46607H2.4638H2.46156ZM28.5538 24.6759H28.0615V25.6483H28.5538H28.5561H28.5584H28.5607H28.5629H28.5652H28.5675H28.5698H28.5721H28.5744H28.5765H28.5789H28.5812H28.5835H28.5858H28.5883H28.5906H28.5929H28.5952H28.5975H28.5998H28.6021H28.6046H28.6069H28.6093H28.6116H28.6141H28.6164H28.6187H28.6212H28.6235H28.626H28.6283H28.6308H28.6331H28.6356H28.6379H28.6404H28.6427H28.6452H28.6475H28.65H28.6525H28.6548H28.6573H28.6597H28.6621H28.6645H28.667H28.6695H28.6718H28.6743H28.6768H28.6793H28.6818H28.6843H28.6868H28.6893H28.6916H28.6941H28.6965H28.699H28.7015H28.704H28.7065H28.709H28.7115H28.7141H28.7166H28.7191H28.7216H28.7241H28.7266H28.7291H28.7316H28.7342H28.7367H28.7392H28.7417H28.7442H28.7469H28.7493H28.7518H28.7543H28.757H28.7595H28.762H28.7646H28.7671H28.7696H28.7721H28.7748H28.7773H28.7799H28.7824H28.7849H28.7876H28.7901H28.7925H28.7952H28.7977H28.8004H28.8029H28.8055H28.808H28.8107H28.8132H28.8157H28.8183H28.8208H28.8235H28.826H28.8286H28.8311H28.8338H28.8363H28.8389H28.8414H28.8441H28.8466H28.8493H28.8519H28.8544H28.8571H28.8596H28.8622H28.8647H28.8674H28.8699H28.8725H28.875H28.8777H28.8802H28.8829H28.8855H28.888H28.8907H28.8932H28.8958H28.8983H28.901H28.9035H28.9061H28.9088H28.9113H28.914H28.9165H28.9191H28.9216H28.9243H28.9268H28.9294H28.9319H28.9346H28.9371H28.9397H28.9422H28.9449H28.9474H28.9501H28.9525H28.9552H28.9577H28.9604H28.9629H28.9655H28.968H28.9707H28.9732H28.9758H28.9783H28.9808H28.9835H28.986H28.9886H28.9911H28.9936H28.9963H28.9988H29.0013H29.0039H29.0064H29.0091H29.0116H29.0141H29.0165H29.0192H29.0217H29.0242H29.0269H29.0293H29.0318H29.0343H29.037H29.0395H29.042H29.0445H29.0469H29.0494H29.0521H29.0546H29.0571H29.0596H29.0621H29.0645H29.067H29.0695H29.072H29.0745H29.077H29.0795H29.082H29.0845H29.0869H29.0894H29.0919H29.0944H29.0969H29.0994H29.1017H29.1042H29.1067H29.1092H29.1117H29.114H29.1165H29.1189H29.1213H29.1237H29.1262H29.1285H29.131H29.1335H29.1358H29.1383H29.1406H29.1431H29.1454H29.1479H29.1502H29.1527H29.155H29.1575H29.1598H29.1621H29.1646H29.1669H29.1693H29.1716H29.1741H29.1764H29.1787H29.181H29.1833H29.1858H29.1881H29.1904H29.1927H29.195H29.1973H29.1997H29.202H29.2043H29.2066H29.2087H29.211H29.2133H29.2157H29.218H29.2201H29.2224H29.2247H29.2269H29.2292H29.2315H29.2336H29.2359H29.2381H29.2404H29.2425H29.2446H29.2469H29.2491H29.2514H29.2535H29.2557H29.2578H29.2601H29.2622H29.2644H29.2665H29.2686H29.2708H29.2729H29.275H29.2772H29.2793H29.2814H29.2836H29.2857H29.2877H29.2898H29.2919H29.2941H29.296H29.2981H29.3001H29.3022H29.3042H29.3063H29.3083H29.3104H29.3124H29.3143H29.3165H29.3184H29.3204H29.3223H29.3245H29.3264H29.3284H29.3303H29.3323H29.3342H29.3362H29.3381H29.3419H29.3438H29.3458H29.3495H29.3515H29.3552H29.3589H29.3625H29.3645H29.368H29.3717H29.3753H29.3789H29.3824H29.3858H29.3876H29.3909H29.3945H29.3979H29.4011H29.4029H29.4061H29.4078H29.411H29.4174H29.4206H29.4237H29.4267H29.4297H29.4327H29.4357H29.4388H29.4416H29.4445H29.4473H29.4501H29.4528H29.4555H29.4581H29.4608H29.4635H29.466H29.4686H29.4709H29.4734H29.4759H29.4782H29.4805H29.4829H29.4852H29.4873H29.4894H29.4916H29.4937H29.4957H29.4976H29.4996H29.5015H29.5051H29.5069H29.5102H29.5136H29.5166H29.5195H29.5221H29.5245H29.5268H29.5289H29.5316H29.5339H29.5364H29.5385V25.1621L29.5373 24.6759H29.5353H29.5328H29.5289H29.5268H29.5245H29.5221H29.5181H29.515H29.512H29.5086H29.5051H29.5015H29.4996H29.4967H29.4946H29.4926H29.4905H29.4884H29.4862H29.4839H29.4818H29.4795H29.477H29.4747H29.4722H29.4699H29.4672H29.4647H29.4622H29.4596H29.4569H29.4542H29.4514H29.4473H29.4445H29.4416H29.4388H29.4357H29.4327H29.4297H29.4267H29.4237H29.4206H29.4174H29.4142H29.411H29.4078H29.4061H29.4029H29.4011H29.3979H29.3961H29.3927H29.3893H29.3858H29.3824H29.3789H29.3771H29.3735H29.3698H29.3662H29.3625H29.3589H29.357H29.3533H29.3495H29.3476H29.3438H29.3419H29.3399H29.3362H29.3342H29.3323H29.3303H29.3284H29.3264H29.3245H29.3223H29.3204H29.3184H29.3165H29.3143H29.3124H29.3104H29.3083H29.3063H29.3042H29.3022H29.3001H29.2981H29.296H29.2941H29.2919H29.2898H29.2877H29.2857H29.2836H29.2814H29.2793H29.2772H29.275H29.2729H29.2708H29.2686H29.2665H29.2644H29.2622H29.2601H29.2578H29.2557H29.2535H29.2514H29.2491H29.2469H29.2446H29.2425H29.2404H29.2381H29.2359H29.2336H29.2315H29.2292H29.2269H29.2247H29.2224H29.2201H29.218H29.2157H29.2133H29.211H29.2087H29.2066H29.2043H29.202H29.1997H29.1973H29.195H29.1927H29.1904H29.1881H29.1858H29.1833H29.181H29.1787H29.1764H29.1741H29.1716H29.1693H29.1669H29.1646H29.1621H29.1598H29.1575H29.155H29.1527H29.1502H29.1479H29.1454H29.1431H29.1406H29.1383H29.1358H29.1335H29.131H29.1285H29.1262H29.1237H29.1213H29.1189H29.1165H29.114H29.1117H29.1092H29.1067H29.1042H29.1017H29.0994H29.0969H29.0944H29.0919H29.0894H29.0869H29.0845H29.082H29.0795H29.077H29.0745H29.072H29.0695H29.067H29.0645H29.0621H29.0596H29.0571H29.0546H29.0521H29.0494H29.0469H29.0445H29.042H29.0395H29.037H29.0343H29.0318H29.0293H29.0269H29.0242H29.0217H29.0192H29.0165H29.0141H29.0116H29.0091H29.0064H29.0039H29.0013H28.9988H28.9963H28.9936H28.9911H28.9886H28.986H28.9835H28.9808H28.9783H28.9758H28.9732H28.9707H28.968H28.9655H28.9629H28.9604H28.9577H28.9552H28.9525H28.9501H28.9474H28.9449H28.9422H28.9397H28.9371H28.9346H28.9319H28.9294H28.9268H28.9243H28.9216H28.9191H28.9165H28.914H28.9113H28.9088H28.9061H28.9035H28.901H28.8983H28.8958H28.8932H28.8907H28.888H28.8855H28.8829H28.8802H28.8777H28.875H28.8725H28.8699H28.8674H28.8647H28.8622H28.8596H28.8571H28.8544H28.8519H28.8493H28.8466H28.8441H28.8414H28.8389H28.8363H28.8338H28.8311H28.8286H28.826H28.8235H28.8208H28.8183H28.8157H28.8132H28.8107H28.808H28.8055H28.8029H28.8004H28.7977H28.7952H28.7925H28.7901H28.7876H28.7849H28.7824H28.7799H28.7773H28.7748H28.7721H28.7696H28.7671H28.7646H28.762H28.7595H28.757H28.7543H28.7518H28.7493H28.7469H28.7442H28.7417H28.7392H28.7367H28.7342H28.7316H28.7291H28.7266H28.7241H28.7216H28.7191H28.7166H28.7141H28.7115H28.709H28.7065H28.704H28.7015H28.699H28.6965H28.6941H28.6916H28.6893H28.6868H28.6843H28.6818H28.6793H28.6768H28.6743H28.6718H28.6695H28.667H28.6645H28.6621H28.6597H28.6573H28.6548H28.6525H28.65H28.6475H28.6452H28.6427H28.6404H28.6379H28.6356H28.6331H28.6308H28.6283H28.626H28.6235H28.6212H28.6187H28.6164H28.6141H28.6116H28.6093H28.6069H28.6046H28.6021H28.5998H28.5975H28.5952H28.5929H28.5906H28.5883H28.5858H28.5835H28.5812H28.5789H28.5765H28.5744H28.5721H28.5698H28.5675H28.5652H28.5629H28.5607H28.5584H28.5561H28.5538ZM1.96924 27.5932H3.44616V26.6208H1.96924V27.5932ZM28.0615 27.5932H29.5385V26.6208H28.0615V27.5932ZM16.7385 11.5476C16.7385 14.233 14.5343 16.41 11.8154 16.41C9.09646 16.41 6.89231 14.233 6.89231 11.5476C6.89231 8.86228 9.09646 6.68535 11.8154 6.68535C14.5343 6.68535 16.7385 8.86228 16.7385 11.5476ZM17.7231 11.5476C17.7231 14.7701 15.0781 17.3824 11.8154 17.3824C8.55267 17.3824 5.90771 14.7701 5.90771 11.5476C5.90771 8.32521 8.55267 5.71289 11.8154 5.71289C15.0781 5.71289 17.7231 8.32521 17.7231 11.5476ZM12.3077 7.65782V12.5201H11.3231V7.65782H12.3077Z" fill="#002050"/>
<defs>
<linearGradient id="paint0_linear_855_8586" x1="16" y1="29.5386" x2="16" y2="3.28223" gradientUnits="userSpaceOnUse">
<stop stop-color="#0078D4"/>
<stop offset="0.156" stop-color="#1380DA"/>
<stop offset="0.528" stop-color="#3C91E5"/>
<stop offset="0.822" stop-color="#559CEC"/>
<stop offset="1" stop-color="#5EA0EF"/>
</linearGradient>
<linearGradient id="paint1_linear_855_8586" x1="16" y1="29.5388" x2="16" y2="3.28242" gradientUnits="userSpaceOnUse">
<stop stop-color="#0078D4"/>
<stop offset="0.156" stop-color="#1380DA"/>
<stop offset="0.528" stop-color="#3C91E5"/>
<stop offset="0.822" stop-color="#559CEC"/>
<stop offset="1" stop-color="#5EA0EF"/>
</linearGradient>
</defs>
</svg>
