<svg width="32" height="32" viewBox="0 0 32 32" fill="none" xmlns="http://www.w3.org/2000/svg">
<path d="M28 23.9047H27.7778V24.1269V27.8571C27.7778 28.1561 27.7211 28.4325 27.6089 28.6887C27.4942 28.9508 27.3426 29.1765 27.1541 29.368C26.9659 29.5593 26.744 29.7131 26.4868 29.8292C26.2356 29.9426 25.9648 30 25.6718 30H2.32813C2.03258 30 1.75955 29.9468 1.50686 29.8423C1.25485 29.738 1.03635 29.5868 0.849626 29.3877C0.659011 29.1844 0.506202 28.9518 0.391097 28.6887C0.279018 28.4325 0.222229 28.1561 0.222229 27.8571V10.2381C0.222229 9.93652 0.274778 9.6579 0.378137 9.40018C0.481217 9.14315 0.630382 8.92078 0.8264 8.73113C1.02649 8.53755 1.25508 8.38263 1.51333 8.26603C1.7645 8.15262 2.03524 8.09524 2.32813 8.09524H4.00001H4.22223V7.87301V4.14286C4.22223 3.84128 4.27478 3.56267 4.37814 3.30494C4.48122 3.04789 4.63039 2.82555 4.82641 2.63589C5.0265 2.44231 5.25508 2.2874 5.51332 2.17079C5.7645 2.05739 6.03524 2 6.32813 2H29.6718C29.9648 2 30.2356 2.05739 30.4868 2.17079C30.744 2.28693 30.9659 2.44075 31.1541 2.63209C31.3426 2.82343 31.4942 3.04917 31.6089 3.31129C31.7211 3.56747 31.7778 3.84386 31.7778 4.14286V21.762C31.7778 22.061 31.7211 22.3372 31.6089 22.5934C31.4942 22.8556 31.3426 23.0812 31.1541 23.2727C30.9659 23.464 30.744 23.6178 30.4868 23.734C30.2356 23.8475 29.9648 23.9047 29.6718 23.9047H28ZM30.221 21.7861L30.2222 21.762V4.14286C30.2222 3.99657 30.1657 3.8674 30.0645 3.76475C29.9643 3.66272 29.8379 3.60464 29.6969 3.58871L29.6718 3.58731H6.32813C6.18084 3.58731 6.05208 3.6462 5.95101 3.74887C5.85073 3.85076 5.79451 3.97776 5.7791 4.1187L5.77778 4.14286V7.87301V8.09524H6.00001H13.6944L4.22223 18.81V9.90476V9.68254H4.00001H2.32813C2.18084 9.68254 2.05208 9.74144 1.95101 9.84411C1.85073 9.94599 1.79451 10.073 1.7791 10.2139L1.77778 10.2381V27.8571C1.77778 28.0034 1.83435 28.1326 1.93538 28.2352C2.03583 28.3372 2.16207 28.3954 2.30321 28.4114L2.32813 28.4126H25.6718C25.8192 28.4126 25.9479 28.3538 26.0491 28.2512C26.1493 28.1493 26.2055 28.0222 26.221 27.8812L26.2222 27.8571V24.1269V23.9047H26H18.3056L27.7778 13.1901V22.0953V22.3175H28H29.6718C29.8192 22.3175 29.9479 22.2585 30.0491 22.1559C30.1493 22.054 30.2055 21.9269 30.221 21.7861ZM26 8.09524C26.2612 8.09524 26.5061 8.14715 26.7374 8.25049C26.9118 8.32848 27.0722 8.44009 27.2185 8.58804L13.6811 23.9047H6.00001C5.73887 23.9047 5.4938 23.8528 5.26257 23.7495C5.08811 23.6715 4.92774 23.56 4.78161 23.4119L18.3189 8.09524H26Z" fill="url(#paint0_linear_855_8511)" stroke="white" stroke-width="0.25"/>
<defs>
<linearGradient id="paint0_linear_855_8511" x1="16" y1="30.2222" x2="16" y2="1.77778" gradientUnits="userSpaceOnUse">
<stop stop-color="#0078D4"/>
<stop offset="0.156" stop-color="#1380DA"/>
<stop offset="0.528" stop-color="#3C91E5"/>
<stop offset="0.822" stop-color="#559CEC"/>
<stop offset="1" stop-color="#5EA0EF"/>
</linearGradient>
</defs>
</svg>
