<svg width="32" height="32" viewBox="0 0 32 32" fill="none" xmlns="http://www.w3.org/2000/svg">
<g clip-path="url(#clip0_855_8581)">
<path d="M9.44414 9.55194L8.75216 8.49354C9.4226 8.05596 10.2366 7.63711 11.1963 7.29863L11.9499 8.72778L12.9983 8.175L12.3529 6.95109C13.2645 6.72243 14.2822 6.56895 15.4074 6.52872V7.90092H16.5926V6.52871C17.681 6.56764 18.6683 6.71246 19.5556 6.92844L18.9888 8.14442L20.0631 8.64506L20.7063 7.26474C21.7609 7.62696 22.6432 8.08682 23.3561 8.56524L22.5925 9.50174L23.5111 10.2507L24.2976 9.28607C24.7897 9.71759 25.1369 10.1258 25.347 10.449L25.3538 10.4594L24.589 11.5007L25.5444 12.2023L26.7943 10.5003L26.3404 9.8027C25.9851 9.25635 25.3925 8.60887 24.5742 7.9812C23.5838 7.22147 22.2464 6.47799 20.5598 5.97311C19.2487 5.58062 17.7288 5.33301 16 5.33301C12.163 5.33301 9.36146 6.55256 7.58924 7.85829C6.68508 8.52444 6.03769 9.22135 5.65948 9.8027L5.20569 10.5003L6.45572 12.2023L7.41095 11.5007L6.64617 10.4594L6.65294 10.449C6.87707 10.1045 7.25632 9.66407 7.79947 9.2022L8.45216 10.2005L9.44414 9.55194Z" fill="url(#paint0_linear_855_8581)"/>
<path fill-rule="evenodd" clip-rule="evenodd" d="M3.55554 3.55566H28.4444V18.9631H16.9031L11.7465 11.5147L10.772 12.1893L15.4616 18.9631H3.55554V3.55566Z" fill="url(#paint1_linear_855_8581)"/>
<path fill-rule="evenodd" clip-rule="evenodd" d="M3.55556 0C1.59188 0 0 1.59188 0 3.55556V28.4444C0 30.4082 1.59188 32 3.55556 32H28.4444C30.4082 32 32 30.4082 32 28.4444V3.55556C32 1.59188 30.4082 0 28.4444 0H3.55556Z" fill="url(#paint2_linear_855_8581)"/>
<path d="M9.44414 9.55194L8.75216 8.49354C9.4226 8.05596 10.2366 7.63711 11.1963 7.29863L11.9499 8.72778L12.9983 8.175L12.3529 6.95109C13.2645 6.72241 14.2822 6.56895 15.4074 6.52871V7.9009H16.5926V6.52871C17.681 6.56764 18.6683 6.71246 19.5556 6.92844L18.9888 8.1444L20.0631 8.64506L20.7063 7.26474C21.7609 7.62696 22.6432 8.08682 23.3561 8.56524L22.5925 9.50174L23.5111 10.2507L24.2976 9.28606C24.7897 9.71759 25.1369 10.1258 25.347 10.449L25.3538 10.4594L24.589 11.5007L25.5444 12.2023L26.7943 10.5003L26.3404 9.8027C25.9851 9.25635 25.3925 8.60887 24.5742 7.9812C23.5838 7.22147 22.2464 6.47799 20.5598 5.97311C19.2487 5.58062 17.7288 5.33301 16 5.33301C12.163 5.33301 9.36146 6.55256 7.58924 7.85829C6.68508 8.52444 6.03769 9.22135 5.65948 9.8027L5.20569 10.5003L6.45572 12.2023L7.41095 11.5007L6.64617 10.4594L6.65294 10.449C6.87707 10.1045 7.25632 9.66407 7.79947 9.2022L8.45216 10.2005L9.44414 9.55194Z" fill="url(#paint3_linear_855_8581)"/>
<path fill-rule="evenodd" clip-rule="evenodd" d="M2.37036 2.37012H29.6297V20.1478H2.37036V2.37012Z" fill="url(#paint4_linear_855_8581)"/>
<path d="M2.96295 29.0366H5.9259V27.8516H2.96295V29.0366Z" fill="url(#paint5_linear_855_8581)"/>
<path d="M29.037 29.0366H26.0742V27.8516H29.037V29.0366Z" fill="url(#paint6_linear_855_8581)"/>
<path fill-rule="evenodd" clip-rule="evenodd" d="M9.44414 9.55194L8.75216 8.49354C9.4226 8.05596 10.2366 7.63711 11.1963 7.29863L11.9499 8.72778L12.9983 8.175L12.3529 6.95109C13.2645 6.72241 14.2822 6.56895 15.4074 6.52871V7.9009H16.5926V6.52871C17.681 6.56764 18.6683 6.71246 19.5556 6.92844L18.9888 8.1444L20.0631 8.64506L20.7063 7.26474C21.7609 7.62696 22.6432 8.08682 23.3561 8.56524L22.5925 9.50174L23.5111 10.2507L24.2976 9.28606C24.7897 9.71759 25.1369 10.1258 25.347 10.449L25.3538 10.4594L24.589 11.5007L25.5444 12.2023L26.7943 10.5003L26.3404 9.8027C25.9851 9.25635 25.3925 8.60887 24.5742 7.9812C23.5838 7.22147 22.2464 6.47799 20.5598 5.97311C19.2487 5.58062 17.7288 5.33301 16 5.33301C12.163 5.33301 9.36146 6.55256 7.58924 7.85829C6.68508 8.52444 6.03769 9.22135 5.65948 9.8027L5.20569 10.5003L6.45572 12.2023L7.41095 11.5007L6.64617 10.4594L6.65294 10.449C6.87707 10.1045 7.25632 9.66407 7.79947 9.2022L8.45216 10.2005L9.44414 9.55194Z" fill="url(#paint7_linear_855_8581)"/>
<path d="M9.44414 9.55194L8.75216 8.49354C9.4226 8.05596 10.2366 7.63711 11.1963 7.29863L11.9499 8.72778L12.9983 8.175L12.3529 6.95109C13.2645 6.72241 14.2822 6.56895 15.4074 6.52871V7.9009H16.5926V6.52871C17.681 6.56764 18.6683 6.71246 19.5556 6.92844L18.9888 8.1444L20.0631 8.64506L20.7063 7.26474C21.7609 7.62696 22.6432 8.08682 23.3561 8.56524L22.5925 9.50174L23.5111 10.2507L24.2976 9.28606C24.7897 9.71759 25.1369 10.1258 25.347 10.449L25.3538 10.4594L24.589 11.5007L25.5444 12.2023L26.7943 10.5003L26.3404 9.8027C25.9851 9.25635 25.3925 8.60887 24.5742 7.9812C23.5838 7.22147 22.2464 6.47799 20.5598 5.97311C19.2487 5.58062 17.7288 5.33301 16 5.33301C12.163 5.33301 9.36146 6.55256 7.58924 7.85829C6.68508 8.52444 6.03769 9.22135 5.65948 9.8027L5.20569 10.5003L6.45572 12.2023L7.41095 11.5007L6.64617 10.4594L6.65294 10.449C6.87707 10.1045 7.25632 9.66407 7.79947 9.2022L8.45216 10.2005L9.44414 9.55194Z" fill="#005BA1"/>
<path d="M2.96295 29.0366H5.9259V27.8516H2.96295V29.0366Z" fill="#005BA1"/>
<path d="M29.037 29.0366H26.0742V27.8516H29.037V29.0366Z" fill="#005BA1"/>
<path fill-rule="evenodd" clip-rule="evenodd" d="M29.6297 2.37012H2.37036V20.1478H29.6297V2.37012ZM28.4444 3.55531H3.55555V18.9628H15.4616H16.9031H28.4444V3.55531Z" fill="#005BA1"/>
<path d="M11.3375 10.7025C11.0811 10.7995 10.8789 10.9788 10.7754 11.2012C10.6718 11.4235 10.6753 11.6707 10.785 11.8887L15.0348 20.13L16.9711 19.4008L12.718 11.154C12.6069 10.9376 12.3993 10.7686 12.1405 10.684C11.8818 10.5994 11.5931 10.606 11.3375 10.7025Z" fill="#0078D4"/>
<path d="M19.3457 21.0525C19.2857 19.4808 17.963 18.2555 16.3913 18.3156C14.8198 18.3757 13.5944 19.6984 13.6545 21.2699C13.7145 22.8415 15.0373 24.0669 16.6088 24.0068C18.1804 23.9467 19.4058 22.624 19.3457 21.0525Z" fill="#767676"/>
</g>
<defs>
<linearGradient id="paint0_linear_855_8581" x1="16" y1="31.9133" x2="16" y2="0.0861603" gradientUnits="userSpaceOnUse">
<stop offset="0.09" stop-color="#32BEDD"/>
<stop offset="1" stop-color="#50E6FF"/>
</linearGradient>
<linearGradient id="paint1_linear_855_8581" x1="16" y1="31.9137" x2="16" y2="0.0865949" gradientUnits="userSpaceOnUse">
<stop offset="0.09" stop-color="#32BEDD"/>
<stop offset="1" stop-color="#50E6FF"/>
</linearGradient>
<linearGradient id="paint2_linear_855_8581" x1="16" y1="31.9136" x2="16" y2="0.0864862" gradientUnits="userSpaceOnUse">
<stop offset="0.09" stop-color="#32BEDD"/>
<stop offset="1" stop-color="#50E6FF"/>
</linearGradient>
<linearGradient id="paint3_linear_855_8581" x1="16.1482" y1="-0.000325534" x2="16.1482" y2="32.1495" gradientUnits="userSpaceOnUse">
<stop stop-color="#C3F1FF"/>
<stop offset="0.999" stop-color="#9CEBFF"/>
</linearGradient>
<linearGradient id="paint4_linear_855_8581" x1="16.1482" y1="-0.000247134" x2="16.1482" y2="32.1496" gradientUnits="userSpaceOnUse">
<stop stop-color="#C3F1FF"/>
<stop offset="0.999" stop-color="#9CEBFF"/>
</linearGradient>
<linearGradient id="paint5_linear_855_8581" x1="16.1482" y1="-0.000320707" x2="16.1482" y2="32.1495" gradientUnits="userSpaceOnUse">
<stop stop-color="#C3F1FF"/>
<stop offset="0.999" stop-color="#9CEBFF"/>
</linearGradient>
<linearGradient id="paint6_linear_855_8581" x1="16.1483" y1="-0.000320707" x2="16.1483" y2="32.1495" gradientUnits="userSpaceOnUse">
<stop stop-color="#C3F1FF"/>
<stop offset="0.999" stop-color="#9CEBFF"/>
</linearGradient>
<linearGradient id="paint7_linear_855_8581" x1="16.1482" y1="-0.000325534" x2="16.1482" y2="32.1495" gradientUnits="userSpaceOnUse">
<stop stop-color="#C3F1FF"/>
<stop offset="0.999" stop-color="#9CEBFF"/>
</linearGradient>
<clipPath id="clip0_855_8581">
<rect width="32" height="32" fill="white"/>
</clipPath>
</defs>
</svg>
