<svg width="32" height="32" viewBox="0 0 32 32" fill="none" xmlns="http://www.w3.org/2000/svg">
<path fill-rule="evenodd" clip-rule="evenodd" d="M17.7123 18.3607C19.467 19.2773 20.6597 21.075 20.6597 23.1429C20.6597 26.141 18.1524 28.5714 15.0597 28.5714C11.9669 28.5714 9.45966 26.141 9.45966 23.1429C9.45966 21.075 10.6523 19.2773 12.407 18.3607V6.57143C12.407 5.15127 13.5947 4 15.0597 4C16.5247 4 17.7123 5.15127 17.7123 6.57143V18.3607ZM12.9965 6.57143C12.9965 5.46686 13.9202 4.57143 15.0597 4.57143C16.1991 4.57143 17.1228 5.46686 17.1228 6.57143V18.0946V18.2857V18.7152C17.2236 18.7595 17.3226 18.8068 17.4197 18.8571C18.997 19.675 20.0702 21.2875 20.0702 23.1429C20.0702 25.8254 17.8269 28 15.0597 28C12.2924 28 10.0491 25.8254 10.0491 23.1429C10.0491 21.2875 11.1223 19.675 12.6997 18.8571C12.7968 18.8068 12.8957 18.7595 12.9965 18.7152V18.2857V18.2171V18.0946V6.57143ZM17.1228 18.0946L17.7123 18.3607C17.5221 18.2613 17.3254 18.1724 17.1228 18.0946Z" fill="#9CEBFF"/>
<path fill-rule="evenodd" clip-rule="evenodd" d="M22.2549 8.57129C23.3945 8.57129 24.3181 7.67586 24.3181 6.57129C24.3181 5.46672 23.3945 4.57129 22.2549 4.57129C21.1156 4.57129 20.1918 5.46672 20.1918 6.57129C20.1918 7.67586 21.1156 8.57129 22.2549 8.57129ZM22.2549 7.99986C23.0688 7.99986 23.7287 7.36027 23.7287 6.57129C23.7287 5.78231 23.0688 5.14272 22.2549 5.14272C21.4411 5.14272 20.7813 5.78231 20.7813 6.57129C20.7813 7.36027 21.4411 7.99986 22.2549 7.99986Z" fill="#9CEBFF"/>
<path fill-rule="evenodd" clip-rule="evenodd" d="M24.3181 11.5381C24.3181 12.6427 23.3945 13.5381 22.2549 13.5381C21.1156 13.5381 20.1918 12.6427 20.1918 11.5381C20.1918 10.4335 21.1156 9.53809 22.2549 9.53809C23.3945 9.53809 24.3181 10.4335 24.3181 11.5381ZM23.7287 11.5381C23.7287 12.3271 23.0688 12.9667 22.2549 12.9667C21.4411 12.9667 20.7813 12.3271 20.7813 11.5381C20.7813 10.7491 21.4411 10.1095 22.2549 10.1095C23.0688 10.1095 23.7287 10.7491 23.7287 11.5381Z" fill="#9CEBFF"/>
<path fill-rule="evenodd" clip-rule="evenodd" d="M5.33331 3.42857C5.33331 1.53502 6.91682 0 8.87015 0H24.1964C26.1498 0 27.7333 1.53502 27.7333 3.42857V28.5714C27.7333 30.4649 26.1498 32 24.1964 32H8.87015C6.91682 32 5.33331 30.4649 5.33331 28.5714V3.42857ZM8.87015 0.571429H24.1964C25.8243 0.571429 27.1438 1.85061 27.1438 3.42857V28.5714C27.1438 30.1493 25.8243 31.4286 24.1964 31.4286H8.87015C7.24236 31.4286 5.92279 30.1493 5.92279 28.5714V3.42857C5.92279 1.85061 7.24236 0.571429 8.87015 0.571429Z" fill="#9CEBFF"/>
<path d="M22.2222 14.7695C22.3191 14.7695 22.3993 14.8408 22.4119 14.9332L22.4137 14.9589L22.4133 15.8036L22.968 15.322C23.0475 15.253 23.1684 15.2607 23.2382 15.3393C23.3079 15.4179 23.3001 15.5375 23.2208 15.6065L22.4133 16.3078L22.4132 17.0415H23.1557L23.8652 16.2435C23.9287 16.1721 24.0345 16.1593 24.1129 16.2094L24.1355 16.2263C24.2076 16.2891 24.2206 16.3937 24.17 16.4712L24.1529 16.4935L23.6658 17.0412L24.5196 17.0414C24.6165 17.0414 24.6967 17.1126 24.7093 17.2051L24.7111 17.2308C24.7111 17.3266 24.6391 17.4059 24.5456 17.4184L24.5196 17.4201L23.6651 17.4202L24.1524 17.9687C24.2158 18.0401 24.2151 18.1454 24.1547 18.2159L24.1349 18.2359C24.0626 18.2986 23.9561 18.2979 23.885 18.2382L23.8647 18.2186L23.1552 17.4202L22.413 17.4199L22.4132 18.1541L23.2208 18.856C23.293 18.9187 23.306 19.0232 23.2553 19.1008L23.2382 19.1232C23.1748 19.1944 23.069 19.2074 22.9906 19.1573L22.968 19.1404L22.4132 18.6583L22.4128 19.5032C22.4128 19.5992 22.3408 19.6783 22.2473 19.691L22.2213 19.6926C22.1244 19.6926 22.0443 19.6213 22.0316 19.5288L22.0299 19.5032L22.0297 18.659L21.4764 19.1404C21.3972 19.2094 21.2761 19.2017 21.2062 19.1232C21.1365 19.0446 21.1442 18.9249 21.2236 18.856L22.03 18.1546V17.4202H21.3445L20.5796 18.2816C20.5099 18.3601 20.3888 18.3679 20.3093 18.299C20.23 18.2298 20.2222 18.1102 20.2919 18.0316L20.835 17.4202L19.9248 17.4204C19.8279 17.4204 19.7477 17.3492 19.7351 17.2568L19.7333 17.2311C19.7333 17.1352 19.8053 17.056 19.8988 17.0435L19.9248 17.0417H20.7223L20.2919 16.5564C20.222 16.4778 20.23 16.3582 20.3095 16.2892C20.389 16.2202 20.5099 16.228 20.5797 16.3066L21.2318 17.0415H22.0302V16.3073L21.2236 15.6059C21.1515 15.5431 21.1385 15.4386 21.1892 15.3611L21.2062 15.3387C21.2697 15.2673 21.3755 15.2545 21.4539 15.3046L21.4764 15.3215L22.0306 15.8031L22.0308 14.9588C22.0308 14.8717 22.0903 14.7983 22.1714 14.7763L22.1963 14.7713L22.2222 14.7695Z" fill="#9CEBFF"/>
<path fill-rule="evenodd" clip-rule="evenodd" d="M24.1964 0.571289H8.87015C7.24236 0.571289 5.92279 1.85047 5.92279 3.42843V28.5712C5.92279 30.1492 7.24236 31.4285 8.87015 31.4285H24.1964C25.8243 31.4285 27.1438 30.1492 27.1438 28.5712V3.42843C27.1438 1.85047 25.8243 0.571289 24.1964 0.571289ZM17.7123 18.3606C19.467 19.2772 20.6597 21.0749 20.6597 23.1428C20.6597 26.1408 18.1523 28.5712 15.0596 28.5712C11.9668 28.5712 9.45963 26.1408 9.45963 23.1428C9.45963 21.0749 10.6522 19.2772 12.407 18.3606V6.57129C12.407 5.15113 13.5946 3.99986 15.0596 3.99986C16.5246 3.99986 17.7123 5.15113 17.7123 6.57129V18.3606ZM22.2549 8.57129C23.3945 8.57129 24.318 7.67586 24.318 6.57129C24.318 5.46672 23.3945 4.57129 22.2549 4.57129C21.1155 4.57129 20.1918 5.46672 20.1918 6.57129C20.1918 7.67586 21.1155 8.57129 22.2549 8.57129ZM24.318 11.5383C24.318 12.6429 23.3945 13.5383 22.2549 13.5383C21.1155 13.5383 20.1918 12.6429 20.1918 11.5383C20.1918 10.4337 21.1155 9.53831 22.2549 9.53831C23.3945 9.53831 24.318 10.4337 24.318 11.5383ZM22.4119 14.9328C22.3993 14.8404 22.3191 14.7691 22.2222 14.7691L22.1962 14.7708L22.1714 14.7759C22.0903 14.7979 22.0307 14.8713 22.0307 14.9584L22.0306 15.8027L21.4764 15.3211L21.4538 15.3041C21.3754 15.254 21.2697 15.2668 21.2062 15.3382L21.1891 15.3606C21.1385 15.4381 21.1514 15.5427 21.2236 15.6055L22.0302 16.3069V17.041H21.2318L20.5797 16.3062C20.5098 16.2276 20.389 16.2198 20.3095 16.2888C20.23 16.3577 20.222 16.4774 20.2919 16.556L20.7223 17.0413H19.9248L19.8988 17.043C19.8053 17.0555 19.7333 17.1348 19.7333 17.2306L19.7351 17.2563C19.7477 17.3487 19.8279 17.42 19.9248 17.42L20.835 17.4197L20.2919 18.0311C20.2222 18.1097 20.23 18.2294 20.3093 18.2985C20.3888 18.3675 20.5098 18.3597 20.5795 18.2811L21.3445 17.4197H22.03V18.1542L21.2236 18.8555C21.1442 18.9245 21.1365 19.0441 21.2062 19.1227C21.2761 19.2013 21.3971 19.2089 21.4764 19.1399L22.0297 18.6585L22.0298 19.5028L22.0316 19.5284C22.0442 19.6208 22.1244 19.6921 22.2213 19.6921L22.2473 19.6905C22.3408 19.6779 22.4128 19.5988 22.4128 19.5028L22.4131 18.6578L22.968 19.1399L22.9906 19.1568C23.069 19.207 23.1747 19.194 23.2382 19.1227L23.2553 19.1003C23.3059 19.0228 23.293 18.9183 23.2208 18.8555L22.4131 18.1536L22.413 17.4195L23.1552 17.4197L23.8647 18.2182L23.885 18.2377C23.9561 18.2975 24.0626 18.2982 24.1349 18.2354L24.1546 18.2155C24.2151 18.1449 24.2158 18.0397 24.1523 17.9682L23.665 17.4197L24.5196 17.4197L24.5456 17.418C24.6391 17.4054 24.7111 17.3262 24.7111 17.2303L24.7093 17.2046C24.6967 17.1122 24.6165 17.041 24.5196 17.041L23.6658 17.0408L24.1529 16.4931L24.1699 16.4707C24.2206 16.3932 24.2076 16.2886 24.1354 16.2259L24.1129 16.2089C24.0345 16.1588 23.9287 16.1716 23.8652 16.243L23.1557 17.041H22.4131L22.4133 16.3074L23.2208 15.6061C23.3001 15.5371 23.3079 15.4174 23.2382 15.3388C23.1683 15.2603 23.0474 15.2526 22.968 15.3216L22.4133 15.8032L22.4137 14.9585L22.4119 14.9328Z" fill="#9CEBFF"/>
<path d="M16.5334 23.1423C16.5334 23.9313 15.8736 24.571 15.0597 24.571C14.2458 24.571 13.586 23.9313 13.586 23.1423C13.586 22.5254 13.9895 21.9998 14.5546 21.7999V21.2028V14.189C14.5546 13.8635 14.8185 13.5996 15.144 13.5996C15.4695 13.5996 15.7334 13.8635 15.7334 14.189V21.2515V21.8716C16.2085 22.1087 16.5334 22.5887 16.5334 23.1423Z" fill="url(#paint0_radial_855_8587)"/>
<path d="M22.2222 14.7695C22.3193 14.7695 22.3993 14.8408 22.4119 14.9332L22.4137 14.9589L22.4135 15.8036L22.968 15.322C23.0475 15.253 23.1685 15.2607 23.2382 15.3393C23.3081 15.4179 23.3003 15.5375 23.2208 15.6065L22.4135 16.3078L22.4132 17.0415H23.1557L23.8652 16.2435C23.9287 16.1721 24.0345 16.1593 24.1129 16.2094L24.1355 16.2263C24.2076 16.2891 24.2206 16.3937 24.17 16.4712L24.1529 16.4935L23.6658 17.0412L24.5196 17.0414C24.6165 17.0414 24.6967 17.1126 24.7095 17.2051L24.7111 17.2308C24.7111 17.3266 24.6391 17.4059 24.5458 17.4184L24.5196 17.4201L23.6651 17.4202L24.1524 17.9687C24.2158 18.0401 24.2151 18.1454 24.1548 18.2159L24.1349 18.2359C24.0628 18.2986 23.9561 18.2979 23.885 18.2382L23.8647 18.2186L23.1552 17.4202L22.413 17.4199L22.4132 18.1541L23.2208 18.856C23.293 18.9187 23.306 19.0232 23.2553 19.1008L23.2382 19.1232C23.1748 19.1944 23.069 19.2074 22.9906 19.1573L22.968 19.1404L22.4132 18.6583L22.413 19.5032C22.4128 19.5992 22.3408 19.6783 22.2475 19.691L22.2215 19.6926C22.1244 19.6926 22.0444 19.6213 22.0318 19.5288L22.03 19.5032L22.0299 18.659L21.4766 19.1404C21.3972 19.2094 21.2761 19.2017 21.2064 19.1232C21.1365 19.0446 21.1444 18.9249 21.2236 18.856L22.03 18.1546V17.4202H21.3447L20.5796 18.2816C20.5099 18.3601 20.3888 18.3679 20.3095 18.299C20.23 18.2298 20.2222 18.1102 20.2919 18.0316L20.8352 17.4202L19.9248 17.4204C19.8279 17.4204 19.7477 17.3492 19.7351 17.2568L19.7333 17.2311C19.7333 17.1352 19.8053 17.056 19.8988 17.0435L19.9248 17.0417H20.7223L20.2919 16.5564C20.2222 16.4778 20.23 16.3582 20.3095 16.2892C20.389 16.2202 20.51 16.228 20.5797 16.3066L21.2318 17.0415H22.0302V16.3073L21.2236 15.6059C21.1515 15.5431 21.1385 15.4386 21.1892 15.3611L21.2064 15.3387C21.2699 15.2673 21.3756 15.2545 21.4539 15.3046L21.4766 15.3215L22.0306 15.8031L22.0308 14.9588C22.0309 14.8717 22.0903 14.7983 22.1714 14.7763L22.1963 14.7713L22.2222 14.7695Z" fill="url(#paint1_linear_855_8587)"/>
<path d="M22.2549 12.9675C23.069 12.9675 23.7287 12.3279 23.7287 11.5389C23.7287 10.7499 23.069 10.1104 22.2549 10.1104C21.441 10.1104 20.7813 10.7499 20.7813 11.5389C20.7813 12.3279 21.441 12.9675 22.2549 12.9675Z" fill="url(#paint2_linear_855_8587)"/>
<path d="M23.7287 6.57115C23.7287 7.36012 23.069 7.99972 22.2549 7.99972C21.441 7.99972 20.7813 7.36012 20.7813 6.57115C20.7813 5.78217 21.441 5.14258 22.2549 5.14258C23.069 5.14258 23.7287 5.78217 23.7287 6.57115Z" fill="url(#paint3_linear_855_8587)"/>
<path d="M21.8855 14.7695C21.9824 14.7695 22.0626 14.8408 22.0752 14.9332L22.077 14.9589L22.0766 15.8036L22.6313 15.322C22.7107 15.253 22.8316 15.2607 22.9015 15.3393C22.9712 15.4179 22.9634 15.5375 22.8839 15.6065L22.0766 16.3078L22.0764 17.0415H22.819L23.5285 16.2435C23.592 16.1721 23.6978 16.1593 23.776 16.2094L23.7987 16.2263C23.8709 16.2891 23.8839 16.3937 23.8332 16.4712L23.816 16.4935L23.3291 17.0412L24.1829 17.0414C24.2798 17.0414 24.36 17.1126 24.3726 17.2051L24.3744 17.2308C24.3744 17.3266 24.3024 17.4059 24.2089 17.4184L24.1829 17.4201L23.3282 17.4202L23.8156 17.9687C23.8789 18.0401 23.8784 18.1454 23.8179 18.2159L23.798 18.2359C23.7259 18.2986 23.6194 18.2979 23.5481 18.2382L23.5278 18.2186L22.8185 17.4202L22.0761 17.4199L22.0764 18.1541L22.8839 18.856C22.9561 18.9187 22.9692 19.0232 22.9186 19.1008L22.9015 19.1232C22.838 19.1944 22.7323 19.2074 22.6539 19.1573L22.6313 19.1404L22.0764 18.6583L22.0761 19.5032C22.0761 19.5992 22.0041 19.6783 21.9106 19.691L21.8846 19.6926C21.7877 19.6926 21.7075 19.6213 21.6949 19.5288L21.6931 19.5032L21.693 18.659L21.1397 19.1404C21.0603 19.2094 20.9394 19.2017 20.8695 19.1232C20.7996 19.0446 20.8075 18.9249 20.8869 18.856L21.6933 18.1546V17.4202H21.0078L20.2428 18.2816C20.173 18.3601 20.0521 18.3679 19.9726 18.299C19.8931 18.2298 19.8853 18.1102 19.9552 18.0316L20.4983 17.4202L19.5881 17.4204C19.4912 17.4204 19.411 17.3492 19.3984 17.2568L19.3966 17.2311C19.3966 17.1352 19.4686 17.056 19.5619 17.0435L19.5881 17.0417H20.3854L19.955 16.5564C19.8853 16.4778 19.8933 16.3582 19.9728 16.2892C20.0523 16.2202 20.1731 16.228 20.2428 16.3066L20.8949 17.0415H21.6935V16.3073L20.8869 15.6059C20.8147 15.5431 20.8018 15.4386 20.8524 15.3611L20.8695 15.3387C20.933 15.2673 21.0387 15.2545 21.1171 15.3046L21.1397 15.3215L21.6937 15.8031L21.694 14.9588C21.694 14.8717 21.7536 14.7983 21.8347 14.7763L21.8595 14.7713L21.8855 14.7695Z" fill="url(#paint4_linear_855_8587)"/>
<path d="M21.9182 12.9675C22.7321 12.9675 23.3918 12.3279 23.3918 11.5389C23.3918 10.7499 22.7321 10.1104 21.9182 10.1104C21.1044 10.1104 20.4445 10.7499 20.4445 11.5389C20.4445 12.3279 21.1044 12.9675 21.9182 12.9675Z" fill="url(#paint5_linear_855_8587)"/>
<path d="M23.3918 6.57115C23.3918 7.36012 22.7321 7.99972 21.9182 7.99972C21.1044 7.99972 20.4445 7.36012 20.4445 6.57115C20.4445 5.78217 21.1044 5.14258 21.9182 5.14258C22.7321 5.14258 23.3918 5.78217 23.3918 6.57115Z" fill="url(#paint6_linear_855_8587)"/>
<defs>
<radialGradient id="paint0_radial_855_8587" cx="0" cy="0" r="1" gradientUnits="userSpaceOnUse" gradientTransform="translate(15.0602 19.1084) scale(3.25212 4.33838)">
<stop offset="0.196" stop-color="#FFD70F"/>
<stop offset="0.438" stop-color="#FFCB12"/>
<stop offset="0.873" stop-color="#FEAC19"/>
<stop offset="1" stop-color="#FEA11B"/>
</radialGradient>
<linearGradient id="paint1_linear_855_8587" x1="18.3019" y1="19.6926" x2="18.3019" y2="0.000304699" gradientUnits="userSpaceOnUse">
<stop stop-color="#0078D4"/>
<stop offset="0.156" stop-color="#1380DA"/>
<stop offset="0.528" stop-color="#3C91E5"/>
<stop offset="0.822" stop-color="#559CEC"/>
<stop offset="1" stop-color="#5EA0EF"/>
</linearGradient>
<linearGradient id="paint2_linear_855_8587" x1="18.3018" y1="19.6927" x2="18.3018" y2="0.000466533" gradientUnits="userSpaceOnUse">
<stop stop-color="#0078D4"/>
<stop offset="0.156" stop-color="#1380DA"/>
<stop offset="0.528" stop-color="#3C91E5"/>
<stop offset="0.822" stop-color="#559CEC"/>
<stop offset="1" stop-color="#5EA0EF"/>
</linearGradient>
<linearGradient id="paint3_linear_855_8587" x1="18.3018" y1="19.692" x2="18.3018" y2="-0.000284213" gradientUnits="userSpaceOnUse">
<stop stop-color="#0078D4"/>
<stop offset="0.156" stop-color="#1380DA"/>
<stop offset="0.528" stop-color="#3C91E5"/>
<stop offset="0.822" stop-color="#559CEC"/>
<stop offset="1" stop-color="#5EA0EF"/>
</linearGradient>
<linearGradient id="paint4_linear_855_8587" x1="17.965" y1="19.6926" x2="17.965" y2="0.000304699" gradientUnits="userSpaceOnUse">
<stop stop-color="#0078D4"/>
<stop offset="0.156" stop-color="#1380DA"/>
<stop offset="0.528" stop-color="#3C91E5"/>
<stop offset="0.822" stop-color="#559CEC"/>
<stop offset="1" stop-color="#5EA0EF"/>
</linearGradient>
<linearGradient id="paint5_linear_855_8587" x1="17.965" y1="19.6927" x2="17.965" y2="0.000466533" gradientUnits="userSpaceOnUse">
<stop stop-color="#0078D4"/>
<stop offset="0.156" stop-color="#1380DA"/>
<stop offset="0.528" stop-color="#3C91E5"/>
<stop offset="0.822" stop-color="#559CEC"/>
<stop offset="1" stop-color="#5EA0EF"/>
</linearGradient>
<linearGradient id="paint6_linear_855_8587" x1="17.965" y1="19.692" x2="17.965" y2="-0.000284213" gradientUnits="userSpaceOnUse">
<stop stop-color="#0078D4"/>
<stop offset="0.156" stop-color="#1380DA"/>
<stop offset="0.528" stop-color="#3C91E5"/>
<stop offset="0.822" stop-color="#559CEC"/>
<stop offset="1" stop-color="#5EA0EF"/>
</linearGradient>
</defs>
</svg>
