<svg width="32" height="32" viewBox="0 0 32 32" fill="none" xmlns="http://www.w3.org/2000/svg">
<g clip-path="url(#clip0_855_8577)">
<path fill-rule="evenodd" clip-rule="evenodd" d="M1.41644 3.97357L8.03706 15.2993L8.1141 15.4311V15.5828V24.7557V25.3286H7.52609H4.43681C4.11204 25.3286 3.84877 25.585 3.84877 25.9014V28.0942C3.84877 28.2367 3.96744 28.3523 4.11382 28.3523H10.0853H25.41H30.7021C30.7694 28.3523 30.824 28.2991 30.824 28.2335V25.9014C30.824 25.585 30.5607 25.3286 30.2359 25.3286H28.8528H16.0568H12.6445H12.0565V24.7557V21.42V15.5828V15.4311L12.1335 15.2993L18.7541 3.97357C17.7432 2.94057 14.9205 1.14551 10.0853 1.14551C5.25012 1.14551 2.4274 2.94057 1.41644 3.97357ZM9.81873 2.80471C6.59464 2.80471 4.67876 4.11298 4.06996 4.90381L3.82033 5.22807L4.05112 5.56532L5.97051 8.37024L6.2252 8.74242L6.65757 8.59197C7.16399 8.41574 7.6188 8.27741 8.04173 8.17458C9.70964 7.769 10.9499 7.89399 12.982 8.5927L13.4133 8.74098L13.667 8.37024L15.5864 5.56532L15.8171 5.22807L15.5675 4.90381C14.9587 4.11298 13.0428 2.80471 9.81873 2.80471Z" fill="url(#paint0_linear_855_8577)"/>
<path fill-rule="evenodd" clip-rule="evenodd" d="M1.41644 3.97381L8.03705 15.2995L8.1141 15.4314V15.5831V24.7559V25.3289H7.52608H4.4368C4.11204 25.3289 3.84876 25.5852 3.84876 25.9017V28.0944C3.84876 28.237 3.96743 28.3525 4.11381 28.3525H10.0853H25.41H30.702C30.7694 28.3525 30.824 28.2994 30.824 28.2338V25.9017C30.824 25.5852 30.5607 25.3289 30.2359 25.3289H28.8528H16.0567H12.6445H12.0565V24.7559V21.4203V15.5831V15.4314L12.1335 15.2995L18.7541 3.97381C17.7432 2.94082 14.9204 1.14575 10.0853 1.14575C5.25012 1.14575 2.4274 2.94082 1.41644 3.97381ZM0.230548 3.56549C1.21228 2.28594 4.47184 0 10.0853 0C15.6987 0 18.9582 2.28594 19.9401 3.56549L20.1705 3.86597L19.9799 4.19198L13.2325 15.7347V21.4203V24.1831H15.4687V23.4C15.4687 22.4508 16.2585 21.6814 17.2328 21.6814H27.6768C28.651 21.6814 29.4407 22.4508 29.4407 23.4V24.1831H30.2359C31.2101 24.1831 32 24.9525 32 25.9017V28.2338C32 28.726 31.7115 29.1524 31.2901 29.3614V30.1796C31.2901 31.1287 30.5003 31.8981 29.526 31.8981H26.586C25.6117 31.8981 24.8219 31.1287 24.8219 30.1796V29.4983H10.6733H9.49726H4.70183L3.52578 29.3765C3.02302 29.1573 2.67271 28.6656 2.67271 28.0944V25.9017C2.67271 24.9525 3.46252 24.1831 4.4368 24.1831H6.93806V15.7347L0.190567 4.19198L0 3.86597L0.230548 3.56549ZM25.9979 29.4983V30.1796C25.9979 30.496 26.2612 30.7524 26.586 30.7524H29.526C29.8508 30.7524 30.1141 30.496 30.1141 30.1796V29.4983H25.9979ZM28.2647 24.1831V23.4C28.2647 23.0836 28.0014 22.8272 27.6768 22.8272H17.2328C16.9081 22.8272 16.6448 23.0836 16.6448 23.4V24.1831H28.2647ZM5.28908 5.30917L6.69712 7.36681C6.81996 7.32699 6.94082 7.28919 7.05991 7.25342L6.41182 5.96782L7.46743 5.46272L8.22252 6.96059C9.82805 6.64514 11.1603 6.79678 12.9395 7.36805L14.3484 5.30917C13.7198 4.77104 12.2466 3.9507 9.81872 3.9507C7.39088 3.9507 5.91764 4.77104 5.28908 5.30917ZM4.06996 4.90405C4.67876 4.11323 6.59463 2.80496 9.81872 2.80496C13.0428 2.80496 14.9587 4.11323 15.5675 4.90405L15.8171 5.22832L15.5863 5.56556L13.667 8.37049L13.4133 8.74123L12.982 8.59294C10.9499 7.89424 9.70964 7.76924 8.04172 8.17483C7.61879 8.27765 7.16398 8.41598 6.65756 8.59221L6.22519 8.74267L5.97051 8.37049L4.05111 5.56556L3.82032 5.22832L4.06996 4.90405Z" fill="url(#paint1_linear_855_8577)"/>
<path d="M4.70184 29.498V30.2812C4.70184 30.5974 4.96511 30.854 5.28988 30.854H8.90924C9.234 30.854 9.49727 30.5974 9.49727 30.2812V29.498H4.70184Z" fill="#1E87DD"/>
<path d="M25.9979 29.498V30.1793C25.9979 30.4957 26.2612 30.7521 26.586 30.7521H29.526C29.8508 30.7521 30.1141 30.4957 30.1141 30.1793V29.498H25.9979Z" fill="#1E87DD"/>
<path d="M28.2647 24.1831V23.3999C28.2647 23.0835 28.0014 22.8271 27.6768 22.8271H17.2328C16.908 22.8271 16.6448 23.0835 16.6448 23.3999V24.1831H28.2647Z" fill="#1E87DD"/>
<path fill-rule="evenodd" clip-rule="evenodd" d="M5.28908 5.3089L6.69711 7.36654C6.81996 7.32671 6.94081 7.28892 7.0599 7.25315L6.41181 5.96755L7.46742 5.46245L8.22252 6.96031C9.82805 6.64487 11.1603 6.79651 12.9395 7.36778L14.3483 5.3089C13.7198 4.77077 12.2466 3.95043 9.81871 3.95043C7.39087 3.95043 5.91763 4.77077 5.28908 5.3089ZM4.06995 4.90378C4.67875 4.11295 6.59462 2.80469 9.81871 2.80469C13.0428 2.80469 14.9587 4.11295 15.5675 4.90378L15.8171 5.22805L15.5863 5.56529L13.6669 8.37022L13.4133 8.74095L12.982 8.59267C10.9499 7.89397 9.70963 7.76897 8.04172 8.17455C7.61878 8.27738 7.16397 8.41571 6.65756 8.59194L6.22518 8.74239L5.9705 8.37022L4.0511 5.56529L3.82031 5.22805L4.06995 4.90378Z" fill="#1E87DD"/>
<path d="M3.52576 29.377V30.2818C3.52576 31.231 4.31557 32.0004 5.28985 32.0004H8.9092C9.88348 32.0004 10.6733 31.231 10.6733 30.2818V29.4987H9.49724V30.2818C9.49724 30.5981 9.23397 30.8546 8.9092 30.8546H5.28985C4.96508 30.8546 4.70181 30.5981 4.70181 30.2818V29.4987L3.52576 29.377Z" fill="#1E87DD"/>
<path d="M24.8218 29.498V30.1793C24.8218 31.1284 25.6117 31.8979 26.5859 31.8979H29.526C30.5002 31.8979 31.2901 31.1284 31.2901 30.1793V29.498H30.1141V30.1793C30.1141 30.4957 29.8508 30.7521 29.526 30.7521H26.5859C26.2611 30.7521 25.9978 30.4957 25.9978 30.1793V29.498H24.8218Z" fill="#1E87DD"/>
<path d="M29.4407 24.1833V23.4002C29.4407 22.4511 28.651 21.6816 27.6768 21.6816H17.2328C16.2586 21.6816 15.4688 22.4511 15.4688 23.4002V24.1833H16.6448V23.4002C16.6448 23.0838 16.9081 22.8274 17.2328 22.8274H27.6768C28.0014 22.8274 28.2647 23.0838 28.2647 23.4002V24.1833H29.4407Z" fill="#1E87DD"/>
</g>
<defs>
<linearGradient id="paint0_linear_855_8577" x1="16" y1="31.9134" x2="16" y2="0.0862403" gradientUnits="userSpaceOnUse">
<stop offset="0.09" stop-color="#32BEDD"/>
<stop offset="1" stop-color="#50E6FF"/>
</linearGradient>
<linearGradient id="paint1_linear_855_8577" x1="16" y1="31.9136" x2="16" y2="0.0864862" gradientUnits="userSpaceOnUse">
<stop offset="0.09" stop-color="#32BEDD"/>
<stop offset="1" stop-color="#50E6FF"/>
</linearGradient>
<clipPath id="clip0_855_8577">
<rect width="32" height="32" fill="white"/>
</clipPath>
</defs>
</svg>
