<svg width="32" height="32" viewBox="0 0 32 32" fill="none" xmlns="http://www.w3.org/2000/svg">
<g clip-path="url(#clip0_855_8593)">
<mask id="mask0_855_8593" style="mask-type:luminance" maskUnits="userSpaceOnUse" x="0" y="0" width="32" height="32">
<path d="M32 0H0V32H32V0Z" fill="white"/>
</mask>
<g mask="url(#mask0_855_8593)">
<path d="M30.3954 0H1.60465C0.718427 0 0 0.659036 0 1.472V30.528C0 31.341 0.718427 32 1.60465 32H30.3954C31.2816 32 32 31.341 32 30.528V1.472C32 0.659036 31.2816 0 30.3954 0Z" fill="url(#paint0_linear_855_8593)"/>
<path d="M5.67609 7.8075V6.15633C5.67906 6.09523 5.69406 6.03532 5.72023 5.98001C5.7464 5.92472 5.78323 5.87512 5.82858 5.83407C5.87395 5.79304 5.92697 5.76134 5.9846 5.74081C6.04224 5.7203 6.10336 5.71134 6.16446 5.71448H25.5831C25.643 5.71132 25.7029 5.7204 25.7593 5.74118C25.8156 5.76198 25.8672 5.79402 25.9106 5.83537C25.9541 5.87672 25.9888 5.92652 26.0124 5.9817C26.0361 6.03688 26.0482 6.0963 26.0482 6.15633V8.71269C26.0482 8.77272 26.0361 8.83215 26.0124 8.88734C25.9888 8.94252 25.9541 8.9923 25.9106 9.03365C25.8672 9.075 25.8156 9.10705 25.7593 9.12783C25.7029 9.14862 25.643 9.1577 25.5831 9.15455C25.522 9.15768 25.4608 9.14872 25.4032 9.12821C25.3456 9.10767 25.2926 9.07599 25.2471 9.03494C25.2018 8.9939 25.165 8.9443 25.1388 8.88901C25.1127 8.8337 25.0976 8.77379 25.0948 8.71269V6.5982H6.65283V7.8075C6.64985 7.8686 6.63484 7.92853 6.60867 7.98382C6.5825 8.03912 6.54569 8.0887 6.50032 8.12975C6.45495 8.1708 6.40194 8.20248 6.3443 8.22302C6.28666 8.24353 6.22554 8.25249 6.16446 8.24936C6.04259 8.24991 5.92494 8.20488 5.83458 8.12314C5.74421 8.04138 5.68768 7.92879 5.67609 7.8075Z" fill="#9CEBFF"/>
<path d="M3.30396 8.04059V4.31967C3.30692 4.25856 3.32193 4.19865 3.3481 4.14335C3.37428 4.08806 3.4111 4.03846 3.45647 3.99741C3.50184 3.95638 3.55485 3.92468 3.61249 3.90415C3.67011 3.88363 3.73123 3.87467 3.79233 3.8778L27.8156 3.57549C27.8802 3.57319 27.9447 3.58443 28.0048 3.60847C28.0647 3.63248 28.1191 3.66879 28.1644 3.71503C28.2096 3.75111 28.2457 3.79723 28.2699 3.84971C28.294 3.90217 28.3058 3.95958 28.304 4.01734V10.6452H27.3504V4.48246L4.2807 4.76153V8.04059H3.30396Z" fill="#9CEBFF"/>
<path d="M21.5294 14.6561V4.4908C21.5294 4.23107 21.1458 4.02051 20.6724 4.02051H12.1349C11.6616 4.02051 11.2779 4.23107 11.2779 4.4908V14.6561C11.2779 14.9158 11.6616 15.1264 12.1349 15.1264H20.6724C21.1458 15.1264 21.5294 14.9158 21.5294 14.6561Z" fill="url(#paint1_linear_855_8593)"/>
<path d="M12.4346 23.7175V25.6362C12.4346 25.6992 12.6638 25.7502 12.9466 25.7502H14.0692C14.352 25.7502 14.5813 25.6992 14.5813 25.6362V23.7175C14.5813 23.6545 14.352 23.6035 14.0692 23.6035H12.9466C12.6638 23.6035 12.4346 23.6545 12.4346 23.7175Z" fill="#2A4E77"/>
<path d="M17.8012 23.7175V25.6362C17.8012 25.6992 18.0306 25.7502 18.3134 25.7502H19.4359C19.7188 25.7502 19.9481 25.6992 19.9481 25.6362V23.7175C19.9481 23.6545 19.7188 23.6035 19.4359 23.6035H18.3134C18.0306 23.6035 17.8012 23.6545 17.8012 23.7175Z" fill="#2A4E77"/>
<path d="M24.0267 16.5087V2.36152C24.0267 2.00006 23.4482 1.70703 22.7346 1.70703L9.86266 1.70703C9.14902 1.70703 8.5705 2.00006 8.5705 2.36152V16.5087C8.5705 16.8702 9.14902 17.1632 9.86266 17.1632H22.7346C23.4482 17.1632 24.0267 16.8702 24.0267 16.5087Z" fill="#2A4E77"/>
<path d="M3.4184 8.46072V24.5794C3.4184 25.1077 3.69351 25.5362 4.03287 25.5362H5.37996C5.71932 25.5362 5.99443 25.1077 5.99443 24.5794V8.46072C5.99443 7.9323 5.71932 7.50391 5.37996 7.50391H4.03287C3.69351 7.50391 3.4184 7.9323 3.4184 8.46072Z" fill="#2A4E77"/>
<path d="M25.9586 9.68045V24.6477C25.9586 25.1384 26.2338 25.5362 26.5732 25.5362H27.9202C28.2596 25.5362 28.5348 25.1384 28.5348 24.6477V9.68045C28.5348 9.18977 28.2596 8.79199 27.9202 8.79199H26.5732C26.2338 8.79199 25.9586 9.18977 25.9586 9.68045Z" fill="#2A4E77"/>
<path d="M14.3667 29.0777C14.3667 29.967 15.0875 30.6877 15.9767 30.6877C16.8659 30.6877 17.5867 29.967 17.5867 29.0777C17.5867 28.1885 16.8659 27.4678 15.9767 27.4678C15.0875 27.4678 14.3667 28.1885 14.3667 29.0777Z" fill="#2A4E77"/>
</g>
</g>
<defs>
<linearGradient id="paint0_linear_855_8593" x1="0" y1="16" x2="32" y2="16" gradientUnits="userSpaceOnUse">
<stop stop-color="#5EA0EF"/>
<stop offset="1" stop-color="#83B9F9"/>
</linearGradient>
<linearGradient id="paint1_linear_855_8593" x1="16.4036" y1="4.02051" x2="16.4036" y2="15.1264" gradientUnits="userSpaceOnUse">
<stop stop-color="#5EA0EF"/>
<stop offset="1" stop-color="#83B9F9"/>
</linearGradient>
<clipPath id="clip0_855_8593">
<rect width="32" height="32" fill="white"/>
</clipPath>
</defs>
</svg>
