<svg width="32" height="32" viewBox="0 0 32 32" fill="none" xmlns="http://www.w3.org/2000/svg">
<g clip-path="url(#clip0_855_8568)">
<path fill-rule="evenodd" clip-rule="evenodd" d="M27.5556 22.8432H4.44444C2.6035 22.8432 1.11111 24.6 1.11111 26.7673C1.11111 28.9346 2.6035 30.6914 4.44444 30.6914H27.5556C29.3964 30.6914 30.8889 28.9346 30.8889 26.7673C30.8889 24.6 29.3964 22.8432 27.5556 22.8432ZM4.44444 21.5352C1.98985 21.5352 0 23.8777 0 26.7673C0 29.6569 1.98985 31.9995 4.44444 31.9995H27.5556C30.0101 31.9995 32 29.6569 32 26.7673C32 23.8777 30.0101 21.5352 27.5556 21.5352H4.44444Z" fill="#0078D4"/>
<path d="M4.44445 22.8438H27.5556C29.3964 22.8438 30.8889 24.6006 30.8889 26.7678C30.8889 28.9351 29.3964 30.6919 27.5556 30.6919H4.44445C2.60351 30.6919 1.11111 28.9351 1.11111 26.7678C1.11111 24.6006 2.60351 22.8438 4.44445 22.8438Z" fill="#0078D4"/>
<path fill-rule="evenodd" clip-rule="evenodd" d="M8.88893 26.8708C8.88893 28.5706 7.56237 29.9485 5.92596 29.9485C4.28957 29.9485 2.96301 28.5706 2.96301 26.8708C2.96301 25.1709 4.28957 23.793 5.92596 23.793C7.56237 23.793 8.88893 25.1709 8.88893 26.8708ZM7.90127 26.8708C7.90127 28.004 7.0169 28.9226 5.92596 28.9226C4.83503 28.9226 3.95066 28.004 3.95066 26.8708C3.95066 25.7375 4.83503 24.8189 5.92596 24.8189C7.0169 24.8189 7.90127 25.7375 7.90127 26.8708Z" fill="#7DB6F8"/>
<path fill-rule="evenodd" clip-rule="evenodd" d="M15.6049 26.8708C15.6049 28.5706 14.2784 29.9485 12.642 29.9485C11.0056 29.9485 9.67902 28.5706 9.67902 26.8708C9.67902 25.1709 11.0056 23.793 12.642 23.793C14.2784 23.793 15.6049 25.1709 15.6049 26.8708ZM14.6173 26.8708C14.6173 28.004 13.7329 28.9226 12.642 28.9226C11.551 28.9226 10.6667 28.004 10.6667 26.8708C10.6667 25.7375 11.551 24.8189 12.642 24.8189C13.7329 24.8189 14.6173 25.7375 14.6173 26.8708Z" fill="#7DB6F8"/>
<path fill-rule="evenodd" clip-rule="evenodd" d="M19.3581 29.9485C20.9945 29.9485 22.3211 28.5706 22.3211 26.8708C22.3211 25.1709 20.9945 23.793 19.3581 23.793C17.7217 23.793 16.3951 25.1709 16.3951 26.8708C16.3951 28.5706 17.7217 29.9485 19.3581 29.9485ZM19.3581 28.9226C20.4491 28.9226 21.3333 28.004 21.3333 26.8708C21.3333 25.7375 20.4491 24.8189 19.3581 24.8189C18.2672 24.8189 17.3828 25.7375 17.3828 26.8708C17.3828 28.004 18.2672 28.9226 19.3581 28.9226Z" fill="#7DB6F8"/>
<path fill-rule="evenodd" clip-rule="evenodd" d="M29.0372 26.8708C29.0372 28.5706 27.7106 29.9485 26.0741 29.9485C24.4377 29.9485 23.1111 28.5706 23.1111 26.8708C23.1111 25.1709 24.4377 23.793 26.0741 23.793C27.7106 23.793 29.0372 25.1709 29.0372 26.8708ZM28.0494 26.8708C28.0494 28.004 27.165 28.9226 26.0741 28.9226C24.9831 28.9226 24.0988 28.004 24.0988 26.8708C24.0988 25.7375 24.9831 24.8189 26.0741 24.8189C27.165 24.8189 28.0494 25.7375 28.0494 26.8708Z" fill="#7DB6F8"/>
<path d="M5.92596 28.922C7.01689 28.922 7.90127 28.0034 7.90127 26.8703C7.90127 25.7369 7.01689 24.8184 5.92596 24.8184C4.83503 24.8184 3.95065 25.7369 3.95065 26.8703C3.95065 28.0034 4.83503 28.922 5.92596 28.922Z" fill="#7DB6F8"/>
<path d="M12.642 28.922C13.7329 28.922 14.6173 28.0034 14.6173 26.8703C14.6173 25.7369 13.7329 24.8184 12.642 24.8184C11.551 24.8184 10.6667 25.7369 10.6667 26.8703C10.6667 28.0034 11.551 28.922 12.642 28.922Z" fill="#7DB6F8"/>
<path d="M21.3333 26.8703C21.3333 28.0034 20.4491 28.922 19.358 28.922C18.2672 28.922 17.3828 28.0034 17.3828 26.8703C17.3828 25.7369 18.2672 24.8184 19.358 24.8184C20.4491 24.8184 21.3333 25.7369 21.3333 26.8703Z" fill="#7DB6F8"/>
<path d="M26.0741 28.922C27.165 28.922 28.0494 28.0034 28.0494 26.8703C28.0494 25.7369 27.165 24.8184 26.0741 24.8184C24.9831 24.8184 24.0988 25.7369 24.0988 26.8703C24.0988 28.0034 24.9831 28.922 26.0741 28.922Z" fill="#7DB6F8"/>
<path fill-rule="evenodd" clip-rule="evenodd" d="M23.6295 1.3174H5.99991V18.7072H23.6295V1.3174ZM4.74066 0V20.0245H24.8889V0H4.74066Z" fill="url(#paint0_linear_855_8568)"/>
<path d="M5.99994 1.31738H23.6295V18.7072H5.99994V1.31738Z" fill="url(#paint1_linear_855_8568)"/>
<path fill-rule="evenodd" clip-rule="evenodd" d="M19.5061 1.4787H10.1234V4.0435H19.5061V1.4787ZM8.88889 0.196289V5.32592H20.7408V0.196289H8.88889Z" fill="#B1D4F7"/>
<path d="M10.1234 1.47852H19.5061V4.04332H10.1234V1.47852Z" fill="#B1D4F7"/>
</g>
<defs>
<linearGradient id="paint0_linear_855_8568" x1="14.8147" y1="20.0245" x2="14.8147" y2="0" gradientUnits="userSpaceOnUse">
<stop stop-color="#0078D4"/>
<stop offset="0.156" stop-color="#1380DA"/>
<stop offset="0.528" stop-color="#3C91E5"/>
<stop offset="0.822" stop-color="#559CEC"/>
<stop offset="1" stop-color="#5EA0EF"/>
</linearGradient>
<linearGradient id="paint1_linear_855_8568" x1="14.8147" y1="20.0245" x2="14.8147" y2="-2.04429e-05" gradientUnits="userSpaceOnUse">
<stop stop-color="#0078D4"/>
<stop offset="0.156" stop-color="#1380DA"/>
<stop offset="0.528" stop-color="#3C91E5"/>
<stop offset="0.822" stop-color="#559CEC"/>
<stop offset="1" stop-color="#5EA0EF"/>
</linearGradient>
<clipPath id="clip0_855_8568">
<rect width="32" height="32" fill="white"/>
</clipPath>
</defs>
</svg>
