<svg width="32" height="32" viewBox="0 0 32 32" fill="none" xmlns="http://www.w3.org/2000/svg">
<g clip-path="url(#clip0_855_8538)">
<path d="M5.8413 0H1.77778C0.795938 0 0 0.795938 0 1.77778V30.2222C0 31.2041 0.795938 32 1.77778 32H5.8413C6.82314 32 7.61908 31.2041 7.61908 30.2222V1.77778C7.61908 0.795938 6.82314 0 5.8413 0Z" fill="url(#paint0_linear_855_8538)"/>
<path d="M2.70517 4.37572H5.05255C5.12668 4.37572 5.19779 4.34626 5.2504 4.29378C5.303 4.24128 5.33282 4.17003 5.33335 4.09554V1.73631C5.33335 1.66147 5.30377 1.58969 5.25111 1.53676C5.19845 1.48383 5.12702 1.4541 5.05255 1.4541H2.70517C2.6307 1.4541 2.55929 1.48383 2.50661 1.53676C2.45395 1.58969 2.42437 1.66147 2.42437 1.73631V4.08741C2.42329 4.12505 2.42976 4.16253 2.44341 4.1976C2.45707 4.23268 2.47762 4.26462 2.50382 4.29154C2.53003 4.31844 2.56137 4.33977 2.59596 4.35424C2.63056 4.36869 2.6677 4.376 2.70517 4.37572ZM2.70517 18.9025H5.05255C5.12702 18.9025 5.19845 18.8728 5.25111 18.8198C5.30377 18.767 5.33335 18.6952 5.33335 18.6204V6.92983C5.33282 6.85534 5.303 6.78409 5.2504 6.73159C5.19779 6.67911 5.12668 6.64965 5.05255 6.64965H2.70517C2.66839 6.64939 2.63193 6.65645 2.59787 6.6704C2.56382 6.68436 2.53285 6.70496 2.50674 6.731C2.48064 6.75705 2.45993 6.78802 2.44579 6.82215C2.43166 6.85627 2.42437 6.89287 2.42437 6.92983V18.6204C2.42357 18.6579 2.43024 18.6952 2.44398 18.7302C2.45774 18.7651 2.47829 18.7969 2.50444 18.8239C2.53061 18.8508 2.56183 18.8721 2.5963 18.8865C2.63077 18.9011 2.66779 18.9087 2.70517 18.9087V18.9025Z" fill="white"/>
<path fill-rule="evenodd" clip-rule="evenodd" d="M12.336 32C12.3303 32 12.3246 32 12.3189 31.9998C12.1771 31.9968 12.0446 31.9559 11.931 31.8868C11.824 31.8217 11.7338 31.7316 11.6687 31.6245C11.5997 31.5109 11.5588 31.3785 11.5557 31.2366C11.5556 31.2309 11.5555 31.2252 11.5555 31.2196V30.4005H12.336V31.2196H13.1612V32H12.336ZM16.3808 32V31.2196H14.7303V32H16.3808ZM19.5555 27.6334H18.7751V29.2713H19.5555V27.6334ZM19.5555 24.8663H18.7751V26.504H19.5555V24.8663ZM19.5555 22.099H18.7751V23.7369H19.5555V22.099ZM19.5555 19.3319H18.7751V20.9698H19.5555V19.3319ZM19.5555 16.5647H18.7751V18.2025H19.5555V16.5647ZM19.5555 13.7975H18.7751V15.4353H19.5555V13.7975ZM19.5555 11.0303H18.7751V12.6681H19.5555V11.0303ZM19.5555 8.26313H18.7751V9.90096H19.5555V8.26313ZM19.5555 5.49593H18.7751V7.13378H19.5555V5.49593ZM19.5555 2.72875H18.7751V4.3666H19.5555V2.72875ZM14.7303 0V0.780487H16.3808V0H14.7303ZM11.5555 1.59941H12.336V0.780487H13.1612V0H12.336C12.3303 0 12.3246 6.12992e-05 12.3189 0.000183276C12.1771 0.00322955 12.0446 0.0441207 11.931 0.113164C11.824 0.178279 11.7338 0.268432 11.6687 0.375495C11.5997 0.489019 11.5588 0.621552 11.5557 0.763403C11.5556 0.769083 11.5555 0.774779 11.5555 0.780487V1.59941ZM11.5555 2.72875H12.336V4.3666H11.5555V2.72875ZM11.5555 5.49593H12.336V7.13378H11.5555V5.49593ZM11.5555 8.26311H12.336V9.90096H11.5555V8.26311ZM11.5555 11.0303H12.336V12.6681H11.5555V11.0303ZM11.5555 13.7975H12.336V15.4353H11.5555V13.7975ZM11.5555 16.5647H12.336V18.2025H11.5555V16.5647ZM11.5555 19.3319H12.336V20.9698H11.5555V19.3319ZM11.5555 22.099H12.336V23.7369H11.5555V22.099ZM11.5555 24.8663H12.336V26.504H11.5555V24.8663ZM11.5555 27.6334H12.336V29.2713H11.5555V27.6334ZM17.9499 0H18.7751C18.7808 0 18.7865 6.1299e-05 18.7922 0.000183275C18.934 0.00322955 19.0665 0.0441209 19.1801 0.113164C19.2871 0.178279 19.3772 0.268434 19.4423 0.375497C19.5115 0.489019 19.5523 0.621552 19.5554 0.763404C19.5555 0.769084 19.5555 0.774779 19.5555 0.780487V1.59941H18.7751V0.780487H17.9499V0ZM19.5555 30.4005V31.2196C19.5555 31.2252 19.5555 31.2309 19.5554 31.2366C19.5523 31.3785 19.5115 31.5109 19.4423 31.6245C19.3772 31.7316 19.2871 31.8217 19.1801 31.8868C19.0665 31.9559 18.934 31.9968 18.7922 31.9998C18.7865 32 18.7808 32 18.7751 32H17.9499V31.2196H18.7751V30.4005H19.5555Z" fill="#00188F"/>
<path fill-rule="evenodd" clip-rule="evenodd" d="M24.7804 32C24.7748 32 24.7691 32 24.7634 31.9998C24.6215 31.9968 24.4891 31.9559 24.3755 31.8868C24.2684 31.8217 24.1783 31.7316 24.1132 31.6245C24.0441 31.5109 24.0032 31.3785 24.0002 31.2366C24 31.2309 24 31.2252 24 31.2196V30.4005H24.7804V31.2196H25.6057V32H24.7804ZM28.8252 32V31.2196H27.1748V32H28.8252ZM32 27.6334H31.2196V29.2713H32V27.6334ZM32 24.8663H31.2196V26.504H32V24.8663ZM32 22.099H31.2196V23.7369H32V22.099ZM32 19.3319H31.2196V20.9698H32V19.3319ZM32 16.5647H31.2196V18.2025H32V16.5647ZM32 13.7975H31.2196V15.4353H32V13.7975ZM32 11.0303H31.2196V12.6681H32V11.0303ZM32 8.26313H31.2196V9.90096H32V8.26313ZM32 5.49593H31.2196V7.13378H32V5.49593ZM32 2.72875H31.2196V4.3666H32V2.72875ZM27.1748 0V0.780487H28.8252V0H27.1748ZM24 1.59941H24.7804V0.780487H25.6057V0H24.7804C24.7748 0 24.7691 6.12992e-05 24.7634 0.000183276C24.6215 0.00322955 24.4891 0.0441207 24.3755 0.113164C24.2684 0.178279 24.1783 0.268432 24.1132 0.375495C24.0441 0.489019 24.0032 0.621552 24.0002 0.763403C24 0.769083 24 0.774779 24 0.780487V1.59941ZM24 2.72875H24.7804V4.3666H24V2.72875ZM24 5.49593H24.7804V7.13378H24V5.49593ZM24 8.26311H24.7804V9.90096H24V8.26311ZM24 11.0303H24.7804V12.6681H24V11.0303ZM24 13.7975H24.7804V15.4353H24V13.7975ZM24 16.5647H24.7804V18.2025H24V16.5647ZM24 19.3319H24.7804V20.9698H24V19.3319ZM24 22.099H24.7804V23.7369H24V22.099ZM24 24.8663H24.7804V26.504H24V24.8663ZM24 27.6334H24.7804V29.2713H24V27.6334ZM30.3943 0H31.2196C31.2252 0 31.2309 6.1299e-05 31.2366 0.000183275C31.3785 0.00322955 31.5109 0.0441209 31.6245 0.113164C31.7316 0.178279 31.8217 0.268434 31.8868 0.375497C31.9559 0.489019 31.9968 0.621552 31.9998 0.763404C32 0.769084 32 0.774779 32 0.780487V1.59941H31.2196V0.780487H30.3943V0ZM32 30.4005V31.2196C32 31.2252 32 31.2309 31.9998 31.2366C31.9968 31.3785 31.9559 31.5109 31.8868 31.6245C31.8217 31.7316 31.7316 31.8217 31.6245 31.8868C31.5109 31.9559 31.3785 31.9968 31.2366 31.9998C31.2309 32 31.2252 32 31.2196 32H30.3943V31.2196H31.2196V30.4005H32Z" fill="#00188F"/>
</g>
<defs>
<linearGradient id="paint0_linear_855_8538" x1="3.80953" y1="32" x2="3.80953" y2="0" gradientUnits="userSpaceOnUse">
<stop stop-color="#0078D4"/>
<stop offset="0.156" stop-color="#1380DA"/>
<stop offset="0.528" stop-color="#3C91E5"/>
<stop offset="0.822" stop-color="#559CEC"/>
<stop offset="1" stop-color="#5EA0EF"/>
</linearGradient>
<clipPath id="clip0_855_8538">
<rect width="32" height="32" fill="white"/>
</clipPath>
</defs>
</svg>
