<svg width="32" height="32" viewBox="0 0 32 32" fill="none" xmlns="http://www.w3.org/2000/svg">
<path d="M17.5834 7.44423L18.9542 6.3416C19.2678 6.08923 19.7446 6.13845 20.0196 6.45151C20.2946 6.76457 20.2633 7.22259 19.9497 7.4749L18.3447 8.76603C18.194 8.88765 17.992 8.94405 17.7965 8.92388L14.7824 8.61282C14.5108 8.58478 14.2304 8.36388 14.1357 8.14323L13.0075 5.51434L10.4592 5.25136C10.0427 5.20836 9.72779 4.84989 9.75513 4.44986C9.78246 4.04984 10.1416 3.76093 10.5581 3.80391L13.1064 4.0669L14.5756 1.70608C14.6964 1.51248 14.9846 1.34544 15.277 1.37561L18.291 1.68667C18.4864 1.70685 18.6781 1.80388 18.8102 1.95466L20.2174 3.55662C20.4925 3.86968 20.4612 4.3277 20.1474 4.58001C19.8338 4.83232 19.357 4.78311 19.082 4.47005L17.8802 3.10192L15.6439 2.87113L14.3652 4.92563L15.3471 7.21344L17.5834 7.44423Z" fill="#605E5C"/>
<path d="M18.029 19.5569L18.011 19.5402C17.2029 18.874 14.3656 16.8418 13.2703 16.8418L8.88867 20.1565L10.5946 22.3719C10.5767 22.4719 10.5767 22.5718 10.5767 22.6717V26.1142C10.5767 26.5806 10.9717 26.9471 11.4745 26.9471H18.6574C19.1604 26.9471 19.5554 26.5806 19.5554 26.1142V22.6717C19.5552 21.4557 18.9986 20.3231 18.029 19.5569Z" fill="#A19F9D"/>
<path d="M10.3909 7.0902L8.92281 13.9139C8.88161 14.108 8.77213 14.2726 8.62162 14.3879C8.46047 14.5113 8.25165 14.5774 8.03007 14.5626L4.86289 14.3509C4.00756 14.2976 3.25654 14.8519 3.07624 15.6678C2.97439 16.1245 2.50639 16.4033 2.02742 16.2887C1.54919 16.1725 1.24109 15.7077 1.33828 15.248C1.38401 15.0333 3.65928 4.34984 3.61355 4.56451L3.61378 4.56216C3.71773 4.10271 4.18219 3.82237 4.66226 3.93825C5.88987 4.23186 4.90777 5.44162 5.73101 6.43128C6.35718 7.18402 7.47816 7.32868 8.23064 6.75246L8.95378 6.19869C9.24413 5.97636 9.65369 5.96285 9.97753 6.16349C10.3014 6.36413 10.4669 6.73614 10.3909 7.0902Z" fill="#A19F9D"/>
<path d="M19.9687 24.834H9.45713C7.04138 24.834 5.07727 26.7855 5.07727 29.184C5.07727 29.6648 5.46906 30.054 5.95324 30.054H23.4727C23.9568 30.054 24.3486 29.6648 24.3486 29.184C24.3486 26.7855 22.3845 24.834 19.9687 24.834Z" fill="url(#paint0_linear_855_8570)"/>
<path d="M18.3148 18.5275C17.3454 18.1134 16.2666 18.0552 15.2615 18.367C13.2157 19.0014 11.8276 21.1015 12.4336 23.4816L3.04418 19.4343C0.9215 18.4509 0.271267 16.0319 1.41081 14.3332C2.33559 12.9504 4.14727 12.4252 5.72316 13.0872L18.3148 18.5275C18.3262 18.5324 18.3374 18.5373 18.3486 18.5422L18.3148 18.5275Z" fill="url(#paint1_linear_855_8570)"/>
<path d="M9.8279 8.40132L6.9874 7.92239C4.8996 7.57037 3.429 5.65056 3.7105 3.64207C3.98893 1.65542 5.88367 0.280652 8.00822 0.63887L10.8487 1.1178C11.372 1.20604 11.7385 1.68464 11.6679 2.18789L10.9023 7.65052C10.8318 8.15375 10.3512 8.48956 9.8279 8.40132Z" fill="url(#paint2_linear_855_8570)"/>
<path d="M19.9146 25.2387C22.4 25.2387 24.4146 23.2433 24.4146 20.782C24.4146 18.3205 22.4 16.3252 19.9146 16.3252C17.4295 16.3252 15.4149 18.3205 15.4149 20.782C15.4149 23.2433 17.4295 25.2387 19.9146 25.2387Z" fill="white"/>
<path d="M31.1785 22.1682L31.4668 22.0658V21.7741V19.6757V19.3887L31.1851 19.2838L30.8868 19.1726L30.8681 19.1663L28.7964 18.4946L28.3456 17.4044L29.4213 15.1392L29.5442 14.8804L29.3372 14.6754L27.8508 13.2033L27.6208 12.9754L27.3252 13.1205L27.0268 13.2669L27.0228 13.269L25.0946 14.2399L24.0199 13.8041L23.1564 11.4545L23.0524 11.1719H22.7367H20.618H20.304L20.1991 11.4522L20.0896 11.7451L20.0844 11.7596L19.4011 13.8199L18.3319 14.2543L16.1031 13.1797L15.8087 13.0377L15.5804 13.2639L14.094 14.736L13.8817 14.9462L14.0142 15.2087L14.1621 15.5016L14.1634 15.5043L15.1565 17.4364L14.7036 18.5289L12.2887 19.3849L12 19.4873V19.7793V21.875V22.162L12.2818 22.2669L12.5801 22.378L12.5984 22.3844L14.6705 23.0585L15.1212 24.1466L14.0455 26.4143L13.9228 26.6729L14.1297 26.8779L15.616 28.3499L15.8478 28.5795L16.1445 28.4314L16.4428 28.2824L18.3723 27.3108L19.4466 27.7465L20.3102 30.1106L20.4137 30.394H20.7301H22.8489H23.1612L23.267 30.1155L23.3792 29.8201L23.3851 29.8034L24.066 27.7434L25.1385 27.3076L27.4076 28.3636L27.6997 28.4996L27.9248 28.2768L29.411 26.8047L29.6226 26.5951L29.4916 26.3332L29.3436 26.0378L29.3417 26.0338L28.3486 24.1017L28.7991 23.014L31.1785 22.1682ZM21.7348 24.3957C21.0203 24.3957 20.3204 24.186 19.723 23.7908C19.1253 23.3951 18.6567 22.8311 18.3792 22.1677C18.1017 21.5039 18.0288 20.7728 18.1705 20.0671C18.3122 19.3616 18.6615 18.7159 19.1716 18.2108C19.6812 17.706 20.3282 17.3645 21.0293 17.2264C21.7305 17.0883 22.4574 17.159 23.1191 17.4305C23.7812 17.702 24.35 18.1633 24.7518 18.7588C25.1538 19.3545 25.3694 20.0569 25.3694 20.7767C25.3694 21.7424 24.9819 22.665 24.298 23.3424C23.6146 24.0191 22.6921 24.3957 21.7348 24.3957Z" fill="url(#paint3_linear_855_8570)" stroke="white" stroke-width="0.5"/>
<defs>
<linearGradient id="paint0_linear_855_8570" x1="14.713" y1="23.9712" x2="14.713" y2="30.8409" gradientUnits="userSpaceOnUse">
<stop stop-color="#E6E6E6"/>
<stop offset="1" stop-color="#999999"/>
</linearGradient>
<linearGradient id="paint1_linear_855_8570" x1="6.84035" y1="9.643" x2="11.816" y2="25.6876" gradientUnits="userSpaceOnUse">
<stop stop-color="#E6E6E6"/>
<stop offset="1" stop-color="#999999"/>
</linearGradient>
<linearGradient id="paint2_linear_855_8570" x1="8.17695" y1="-0.564963" x2="6.56833" y2="8.97557" gradientUnits="userSpaceOnUse">
<stop stop-color="#E6E6E6"/>
<stop offset="1" stop-color="#999999"/>
</linearGradient>
<linearGradient id="paint3_linear_855_8570" x1="21.7335" y1="29.973" x2="21.7335" y2="11.5929" gradientUnits="userSpaceOnUse">
<stop stop-color="#0078D4"/>
<stop offset="0.156" stop-color="#1380DA"/>
<stop offset="0.528" stop-color="#3C91E5"/>
<stop offset="0.822" stop-color="#559CEC"/>
<stop offset="1" stop-color="#5EA0EF"/>
</linearGradient>
</defs>
</svg>
