<svg width="32" height="32" viewBox="0 0 32 32" fill="none" xmlns="http://www.w3.org/2000/svg">
<path opacity="0.9" d="M15.5569 21.5756C14.9458 21.5756 14.3484 21.3843 13.8404 21.0259C13.3323 20.6675 12.9365 20.158 12.7028 19.5619C12.4691 18.966 12.4082 18.3101 12.5276 17.6776C12.6471 17.045 12.9417 16.4641 13.3741 16.0082C13.8064 15.5524 14.3572 15.2422 14.9566 15.1168C15.556 14.9915 16.1772 15.0566 16.7415 15.304C17.3059 15.5514 17.7881 15.97 18.127 16.5067C18.466 17.0434 18.6464 17.6741 18.6457 18.3192C18.6442 19.183 18.3181 20.0109 17.7391 20.6214C17.1601 21.2319 16.3753 21.575 15.5569 21.5756ZM15.5569 16.4351C15.2048 16.4375 14.8613 16.5498 14.5696 16.758C14.2779 16.9661 14.0512 17.2608 13.9179 17.6048C13.7847 17.9487 13.7509 18.3267 13.8208 18.6909C13.8907 19.0552 14.0613 19.3894 14.3109 19.6515C14.5605 19.9135 14.878 20.0916 15.2234 20.1636C15.5689 20.2355 15.9267 20.1978 16.2519 20.0554C16.577 19.9128 16.8549 19.6719 17.0506 19.3629C17.2463 19.054 17.3509 18.6908 17.3512 18.3192C17.3516 18.0708 17.3053 17.8248 17.215 17.5955C17.1247 17.3662 16.9925 17.1579 16.8257 16.9828C16.6589 16.8077 16.4609 16.6691 16.2431 16.5751C16.0253 16.4811 15.7921 16.4335 15.5569 16.4351Z" fill="url(#paint0_linear_855_8562)"/>
<path d="M22.7571 6.75602H18.8831C18.8559 6.75537 18.8293 6.76337 18.8066 6.77898C18.7837 6.79458 18.766 6.81707 18.7556 6.84349C18.7451 6.86993 18.7424 6.89908 18.7478 6.92715C18.7534 6.95521 18.7667 6.98088 18.7862 7.00081L19.8924 8.16854C19.9219 8.19974 19.9384 8.24195 19.9384 8.28593C19.9384 8.32991 19.9219 8.3721 19.8924 8.4033L16.893 11.5715C16.758 11.7119 16.6611 11.8764 16.5375 12.0249V3.57183C16.5375 3.53352 16.5519 3.49677 16.5776 3.46968C16.6033 3.44258 16.6381 3.42737 16.6744 3.42737H18.29C18.3168 3.42653 18.3428 3.41755 18.3647 3.40154C18.3867 3.38552 18.4039 3.36312 18.4142 3.33706C18.4244 3.31099 18.4273 3.28235 18.4224 3.25458C18.4177 3.22682 18.4054 3.20113 18.3871 3.18058L15.6403 0.291316C15.615 0.26485 15.5809 0.25 15.5453 0.25C15.5097 0.25 15.4755 0.26485 15.4502 0.291316L12.7168 3.18058C12.6985 3.20113 12.6862 3.22682 12.6814 3.25458C12.6766 3.28235 12.6795 3.31099 12.6897 3.33706C12.6999 3.36312 12.7171 3.38552 12.7391 3.40154C12.7611 3.41755 12.7871 3.42653 12.8138 3.42737H14.4162C14.4513 3.43092 14.4842 3.44728 14.5092 3.47364C14.5342 3.50001 14.5497 3.53471 14.553 3.57183V12.0189C14.4314 11.8724 14.3344 11.7099 14.2033 11.5715L11.2038 8.4033C11.189 8.38799 11.1773 8.36971 11.1693 8.34957C11.1613 8.32941 11.1571 8.30778 11.1571 8.28593C11.1571 8.26408 11.1613 8.24244 11.1693 8.22228C11.1773 8.20212 11.189 8.18387 11.2038 8.16854L12.3082 7.00081C12.3328 6.97387 12.3465 6.93791 12.3465 6.90049C12.3465 6.86306 12.3328 6.8271 12.3082 6.80017C12.2956 6.78719 12.2808 6.77695 12.2644 6.77007C12.2481 6.76319 12.2307 6.75978 12.2131 6.76004H8.33924C8.30345 6.76004 8.26911 6.77505 8.24381 6.80177C8.2185 6.82847 8.20428 6.86472 8.20428 6.9025V10.9876C8.20428 11.0065 8.20784 11.0251 8.21473 11.0426C8.22163 11.06 8.23174 11.0758 8.24447 11.089C8.25722 11.1023 8.27231 11.1127 8.28892 11.1198C8.30551 11.1268 8.32326 11.1303 8.34114 11.13C8.37636 11.1292 8.41011 11.1149 8.43618 11.0899L9.59568 9.86598C9.6102 9.85039 9.62749 9.83802 9.64659 9.82955C9.66567 9.82111 9.68617 9.81675 9.70689 9.81675C9.72759 9.81675 9.74808 9.82111 9.76718 9.82955C9.78626 9.83802 9.80358 9.85039 9.81808 9.86598L12.8176 13.0321C13.4447 13.6997 13.917 14.5114 14.1976 15.4037C14.6145 15.1764 15.0766 15.0568 15.5458 15.0547C16.015 15.0526 16.478 15.1681 16.8967 15.3917C17.1798 14.5041 17.6519 13.6969 18.2767 13.0321L21.2763 9.86598C21.291 9.85034 21.3083 9.83791 21.3277 9.82943C21.3469 9.82095 21.3676 9.81658 21.3885 9.81658C21.4092 9.81658 21.4299 9.82095 21.4491 9.82943C21.4685 9.83791 21.4858 9.85034 21.5005 9.86598L22.6601 11.0899C22.6853 11.1149 22.7185 11.1292 22.7532 11.13C22.7894 11.1301 22.8241 11.1152 22.85 11.0886C22.876 11.062 22.891 11.0257 22.892 10.9876V6.89848C22.8915 6.86086 22.8772 6.82493 22.8519 6.79832C22.8266 6.77172 22.7926 6.75654 22.7571 6.75602Z" fill="url(#paint1_linear_855_8562)"/>
<path d="M30.3601 25.3337V25.9687C30.3601 26.2059 30.2637 26.4334 30.0923 26.6011C29.9208 26.7687 29.6882 26.8629 29.4457 26.8629H26.0229V24.4395H29.4457C29.6882 24.4395 29.9208 24.5337 30.0923 24.7013C30.2637 24.8691 30.3601 25.0965 30.3601 25.3337Z" fill="#32BEDD"/>
<path d="M4.33713 24.4395V26.8629H0.914365C0.67186 26.8629 0.439288 26.7687 0.267811 26.6011C0.0963347 26.4334 0 26.2059 0 25.9687V25.3337C0 25.0965 0.0963347 24.8691 0.267811 24.7013C0.439288 24.5337 0.67186 24.4395 0.914365 24.4395H4.33713Z" fill="#32BEDD"/>
<path d="M26.398 20.4648H4.26122C4.00164 20.4656 3.75288 20.5811 3.56954 20.7866C3.38618 20.992 3.2832 21.2702 3.2832 21.5603V28.5665C3.2832 28.8565 3.38624 29.1345 3.56967 29.3395C3.75308 29.5445 4.00184 29.6595 4.26122 29.6595H26.398C26.5265 29.6595 26.6536 29.6312 26.7722 29.5763C26.8909 29.5214 26.9987 29.441 27.0895 29.3395C27.1803 29.238 27.2524 29.1175 27.3016 28.9848C27.3507 28.8522 27.376 28.7102 27.376 28.5665V21.5603C27.3755 21.2704 27.2723 20.9925 27.089 20.7872C26.9058 20.582 26.6574 20.4661 26.398 20.4648Z" fill="url(#paint2_linear_855_8562)"/>
<path d="M24.7606 21.7256H23.2187C23.0547 21.7256 22.9216 21.8742 22.9216 22.0575V23.7807C22.9216 23.964 23.0547 24.1126 23.2187 24.1126H24.7606C24.9247 24.1126 25.0577 23.964 25.0577 23.7807V22.0575C25.0577 21.8742 24.9247 21.7256 24.7606 21.7256Z" fill="#B4EC36"/>
<path d="M24.7606 25.8359H23.2187C23.0547 25.8359 22.9216 25.9846 22.9216 26.168V27.891C22.9216 28.0743 23.0547 28.2231 23.2187 28.2231H24.7606C24.9247 28.2231 25.0577 28.0743 25.0577 27.891V26.168C25.0577 25.9846 24.9247 25.8359 24.7606 25.8359Z" fill="#B4EC36"/>
<path d="M11.0598 18.083H19.6039C19.7455 18.083 19.8811 18.1458 19.9811 18.2576C20.0812 18.3694 20.1374 18.5211 20.1374 18.6793V20.4702H10.5242V18.6768C10.5245 18.5986 10.5385 18.5211 10.5656 18.4489C10.5927 18.3767 10.6322 18.3111 10.6819 18.256C10.7317 18.2009 10.7907 18.1571 10.8555 18.1275C10.9203 18.0978 10.9898 18.0827 11.0598 18.083Z" fill="#198AB3"/>
<defs>
<linearGradient id="paint0_linear_855_8562" x1="12.468" y1="18.3151" x2="18.6457" y2="18.3151" gradientUnits="userSpaceOnUse">
<stop stop-color="#5EA0EF"/>
<stop offset="1" stop-color="#83B9F9"/>
</linearGradient>
<linearGradient id="paint1_linear_855_8562" x1="8.20428" y1="7.82687" x2="22.892" y2="7.82687" gradientUnits="userSpaceOnUse">
<stop stop-color="#5EA0EF"/>
<stop offset="1" stop-color="#83B9F9"/>
</linearGradient>
<linearGradient id="paint2_linear_855_8562" x1="15.3296" y1="29.6595" x2="15.3296" y2="20.4648" gradientUnits="userSpaceOnUse">
<stop stop-color="#198AB3"/>
<stop offset="0.101" stop-color="#1C93BB"/>
<stop offset="0.701" stop-color="#2CC2E5"/>
<stop offset="1" stop-color="#32D4F5"/>
</linearGradient>
</defs>
</svg>
