<svg width="32" height="32" viewBox="0 0 32 32" fill="none" xmlns="http://www.w3.org/2000/svg">
<g clip-path="url(#clip0_855_8590)">
<mask id="mask0_855_8590" style="mask-type:luminance" maskUnits="userSpaceOnUse" x="0" y="0" width="32" height="32">
<path d="M32 0H0V32H32V0Z" fill="white"/>
</mask>
<g mask="url(#mask0_855_8590)">
<path fill-rule="evenodd" clip-rule="evenodd" d="M22.4009 4.9202L22.4 1.2L22.3892 1.03717C22.3097 0.45144 21.8075 0 21.2 0L21.0372 0.01096L20.8809 0.0428638C20.3732 0.182576 20 0.647712 20 1.2V4.7984H17.1988L17.2 1.2L17.1891 1.03717C17.1096 0.45144 16.6075 0 16 0L15.8371 0.01096C15.2515 0.090416 14.8 0.59248 14.8 1.2L14.7984 4.7984H12V1.2L11.989 1.03717C11.9096 0.45144 11.4075 0 10.8 0C10.1373 0 9.6 0.537264 9.6 1.2L9.60073 4.91988C7.24994 5.39675 5.3981 7.248 4.92034 9.59847L1.2 9.6L1.03717 9.61097C0.45144 9.69042 0 10.1925 0 10.8L0.01096 10.9628C0.090416 11.5486 0.59248 12 1.2 12L4.8 11.9984V14.7984L1.2 14.8L1.03717 14.8109C0.45144 14.8904 0 15.3925 0 16L0.01096 16.1629C0.090416 16.7485 0.59248 17.2 1.2 17.2L4.8 17.1984V19.9984L1.2 20L1.03717 20.0108C0.45144 20.0905 0 20.5925 0 21.2C0 21.8628 0.537264 22.4 1.2 22.4H4.92002C5.39726 24.7513 7.2494 26.6032 9.60073 27.0802L9.6 30.8L9.61097 30.9628C9.69042 31.5484 10.1925 32 10.8 32L10.9628 31.9892C11.5486 31.9097 12 31.4075 12 30.8V27.1984H14.7984L14.8 30.8L14.8109 30.9628C14.8904 31.5484 15.3925 32 16 32L16.1629 31.9892C16.7485 31.9097 17.2 31.4075 17.2 30.8L17.1984 27.1984H20V30.8L20.0108 30.9628C20.0905 31.5484 20.5925 32 21.2 32C21.8628 32 22.4 31.4628 22.4 30.8L22.4009 27.0798C24.7488 26.6028 26.5988 24.7547 27.0784 22.4076L30.8 22.4078L30.9628 22.397C31.5484 22.3175 32 21.8153 32 21.2078L31.9892 21.0452C31.9097 20.4594 31.4075 20.0078 30.8 20.0078L27.2 20.0064V17.2064L30.8 17.2078L30.9628 17.197C31.5484 17.1174 32 16.6154 32 16.0078L31.9892 15.8451C31.9097 15.2594 31.4075 14.8078 30.8 14.8078L27.2 14.8064V12.0064L30.8 12.0079L30.9628 11.9969C31.5484 11.9175 32 11.4154 32 10.8079C32 10.1452 31.4628 9.60789 30.8 9.60789L27.0812 9.60665C26.6062 7.25284 24.7536 5.39815 22.4009 4.9202ZM25.6103 10.4057L25.5129 9.92318C25.1652 8.19986 23.8048 6.8381 22.0823 6.48816L21.6 6.39019V6.3984H10.4V6.39033L9.91883 6.48793C8.19772 6.83707 6.83806 8.1963 6.48827 9.91717L6.3906 10.3977H6.4V21.5977H6.3898L6.48804 22.0818C6.83746 23.8032 8.19735 25.1628 9.91881 25.5122L10.4 25.6098V25.5984H21.6V25.6098L22.0823 25.5118C23.8012 25.1627 25.1596 23.8057 25.5108 22.0873L25.6092 21.6057H25.6V10.4057H25.6103Z" fill="url(#paint0_linear_855_8590)"/>
<path d="M25.5129 9.92362L25.6103 10.4062H25.6V21.6061H25.6092L25.5107 22.0877C25.1596 23.8061 23.8012 25.1631 22.0823 25.5123L21.6 25.6102V25.5988H10.4V25.6102L9.91878 25.5126C8.19733 25.1633 6.83743 23.8036 6.48801 22.0822L6.38977 21.5981H6.39997V10.3981H6.39057L6.48824 9.91761C6.83804 8.19674 8.1977 6.83751 9.9188 6.48837L10.4 6.39077V6.39884H21.6V6.39062L22.0823 6.4886C23.8048 6.83854 25.1651 8.2003 25.5129 9.92362Z" fill="url(#paint1_linear_855_8590)"/>
<path d="M8.34257 16.0809L8.86835 15.5566L13.007 19.7071C13.0516 19.7517 13.0766 19.8123 13.0765 19.8754C13.0764 19.9386 13.0512 19.999 13.0066 20.0434L12.4808 20.5677C12.4361 20.6123 12.3756 20.6374 12.3125 20.6372C12.2494 20.6372 12.1889 20.612 12.1443 20.5674L8.34054 16.7528C8.25144 16.6634 8.20148 16.5423 8.20166 16.4161C8.20184 16.2899 8.25322 16.17 8.34257 16.0809Z" fill="url(#paint2_linear_855_8590)"/>
<path d="M8.86027 17.2789L8.33596 16.7531C8.24686 16.6638 8.19691 16.5427 8.19708 16.4165C8.19726 16.2903 8.24755 16.1693 8.33692 16.0802L12.218 12.2101C12.2627 12.1655 12.3232 12.1405 12.3863 12.1406C12.4494 12.1407 12.5099 12.1659 12.5545 12.2105L13.0788 12.7363C13.1233 12.781 13.1483 12.8415 13.1482 12.9046C13.1481 12.9678 13.123 13.0282 13.0783 13.0728L8.86027 17.2789Z" fill="#F2F2F2"/>
<path d="M19.5194 20.5712L18.9936 20.0469C18.9715 20.0249 18.9539 19.9986 18.942 19.9698C18.9299 19.941 18.9237 19.91 18.9237 19.8788C18.9237 19.8475 18.9298 19.8165 18.9417 19.7877C18.9536 19.7588 18.9712 19.7326 18.9932 19.7104L23.1372 15.5547L23.6631 16.079C23.7523 16.1681 23.8026 16.289 23.8028 16.4152C23.803 16.5414 23.753 16.6625 23.664 16.7519L19.8547 20.5717C19.8103 20.6165 19.7498 20.6416 19.6867 20.6418C19.6236 20.6418 19.5641 20.6158 19.5194 20.5712Z" fill="url(#paint3_linear_855_8590)"/>
<path d="M18.9136 12.7393L19.438 12.2135C19.4825 12.1688 19.5429 12.1437 19.606 12.1436C19.6691 12.1435 19.7298 12.1685 19.7744 12.213L23.6555 16.0831C23.7449 16.1722 23.7952 16.2932 23.7954 16.4194C23.7955 16.5456 23.7456 16.6667 23.6565 16.7561L23.1321 17.2818L18.9173 13.0789C18.8946 13.057 18.8763 13.0308 18.8638 13.0018C18.8512 12.9727 18.8446 12.9415 18.8443 12.9099C18.8439 12.8782 18.8498 12.8469 18.8617 12.8176C18.8738 12.7883 18.8914 12.7617 18.9136 12.7393Z" fill="#F2F2F2"/>
<path d="M18.2586 10.9069L17.4188 10.638C17.3295 10.6094 17.234 10.6586 17.2054 10.7479L13.7818 21.4418C13.7532 21.5311 13.8024 21.6267 13.8917 21.6552L14.7316 21.9242C14.8209 21.9528 14.9164 21.9035 14.945 21.8143L18.3685 11.1203C18.3971 11.031 18.3479 10.9355 18.2586 10.9069Z" fill="#F2F2F2"/>
</g>
</g>
<defs>
<linearGradient id="paint0_linear_855_8590" x1="16" y1="32" x2="16" y2="0" gradientUnits="userSpaceOnUse">
<stop stop-color="#0078D4"/>
<stop offset="0.156" stop-color="#1380DA"/>
<stop offset="0.528" stop-color="#3C91E5"/>
<stop offset="0.822" stop-color="#559CEC"/>
<stop offset="1" stop-color="#5EA0EF"/>
</linearGradient>
<linearGradient id="paint1_linear_855_8590" x1="16" y1="32.0004" x2="16" y2="0.00043869" gradientUnits="userSpaceOnUse">
<stop stop-color="#0078D4"/>
<stop offset="0.156" stop-color="#1380DA"/>
<stop offset="0.528" stop-color="#3C91E5"/>
<stop offset="0.822" stop-color="#559CEC"/>
<stop offset="1" stop-color="#5EA0EF"/>
</linearGradient>
<linearGradient id="paint2_linear_855_8590" x1="8.20166" y1="18.0996" x2="13.0825" y2="18.0996" gradientUnits="userSpaceOnUse">
<stop stop-color="#5EA0EF"/>
<stop offset="0.372" stop-color="#9FC6F5"/>
<stop offset="0.8" stop-color="#E4EFFC"/>
<stop offset="1" stop-color="white"/>
</linearGradient>
<linearGradient id="paint3_linear_855_8590" x1="18.923" y1="18.0994" x2="23.8025" y2="18.0994" gradientUnits="userSpaceOnUse">
<stop stop-color="white"/>
<stop offset="0.2" stop-color="#E4EFFC"/>
<stop offset="0.628" stop-color="#9FC6F5"/>
<stop offset="1" stop-color="#5EA0EF"/>
</linearGradient>
<clipPath id="clip0_855_8590">
<rect width="32" height="32" fill="white"/>
</clipPath>
</defs>
</svg>
