<svg width="32" height="32" viewBox="0 0 32 32" fill="none" xmlns="http://www.w3.org/2000/svg">
<g clip-path="url(#clip0_855_8559)">
<path d="M27.9689 6.22599L25.7682 6.16972H25.5049L21.6116 5.58839L19.1099 4.48196L17.5299 0L13.8998 0.037506L13.7305 0.543836L12.4891 4.44446L9.98754 5.51337L5.73673 3.63808L3.21632 6.16972L3.47964 6.67605L5.36055 10.2954L4.36368 12.7895L0 14.421V18.0779L0.507842 18.2466L4.42011 19.4468L5.49221 21.941L3.61131 26.1979L6.22576 28.7296L6.69598 28.467L10.3261 26.5916L11.4923 28.0169L14.5017 31.9739H18.1317L18.3012 31.4676L19.5989 29.1796L21.6679 28.1483L25.7682 27.9044L28.3262 25.2978V25.054L28.8341 23.1787L30.32 18.7342L27.9689 6.22599ZM16.0064 24.1726C14.3767 24.1762 12.7828 23.6969 11.427 22.7952C10.0713 21.8937 9.01495 20.6107 8.39221 19.1092C7.76948 17.6076 7.60846 15.9554 7.92964 14.3625C8.25081 12.7695 9.03966 11.3078 10.196 10.1628C11.3523 9.01787 12.8239 8.24148 14.4237 7.93227C16.0236 7.62306 17.6796 7.79499 19.1812 8.42622C20.6828 9.05746 21.9623 10.1195 22.8572 11.4774C23.7522 12.8353 24.222 14.4278 24.2071 16.0526C24.1922 18.2112 23.3216 20.2764 21.7852 21.7977C20.2491 23.3189 18.1716 24.1726 16.0064 24.1726Z" fill="url(#paint0_linear_855_8559)"/>
<path d="M16.0052 22.6571C16.0894 22.8144 16.2538 22.9422 16.4643 23.014L24.2084 26.0507C24.5042 26.1666 24.8334 26.2309 25.1694 26.2382C25.5056 26.2455 25.8395 26.1957 26.1444 26.0928L31.5929 23.7481C31.6789 23.718 31.7538 23.6732 31.811 23.6178C31.8683 23.5623 31.9063 23.4976 31.922 23.4291C31.9262 23.4053 31.9262 23.381 31.922 23.357C31.8933 23.2649 31.835 23.1788 31.7518 23.1059C31.6688 23.0331 31.5632 22.9755 31.4436 22.9378L23.7132 19.9033C23.4176 19.7872 23.0884 19.7228 22.7522 19.7155C22.416 19.7083 22.0821 19.758 21.7772 19.8611L16.3122 22.2018C16.1937 22.2379 16.0973 22.3038 16.0409 22.3875C15.9844 22.4713 15.9717 22.5671 16.0052 22.6571Z" fill="url(#paint1_linear_855_8559)"/>
<path d="M26.706 31.1875L26.6894 31.2074L26.2414 31.398L26.222 31.4082C25.9172 31.5111 25.5833 31.561 25.2471 31.5538C24.9109 31.5463 24.5819 31.4821 24.286 31.366L16.5419 28.3314C16.163 28.1769 16.0026 27.9664 16.08 27.7818L15.9971 22.6572C16.0813 22.8146 16.2457 22.9424 16.4562 23.0142L24.2002 26.0508C24.4962 26.1669 24.8252 26.2311 25.1614 26.2384C25.4976 26.2457 25.8315 26.1959 26.1364 26.093L26.1584 26.083L31.5849 23.7463C31.6704 23.7161 31.7449 23.6713 31.8016 23.6158C31.8585 23.5602 31.896 23.4956 31.9111 23.4274L31.997 28.6723C32.0011 28.6963 32.0011 28.7205 31.997 28.7445C31.9804 28.8126 31.9419 28.877 31.8848 28.9324C31.8276 28.9879 31.7532 29.0327 31.6677 29.0634L31.4686 29.1477L26.706 31.1875Z" fill="#003067"/>
<path fill-rule="evenodd" clip-rule="evenodd" d="M19.8276 25.4855L17.2673 24.4121V24.8253L19.8276 25.8989V25.4855ZM19.8276 26.5382L17.2785 25.4694V25.8825L19.8276 26.9513V26.5382ZM20.2542 27.1302V26.717L23.3632 28.0206V28.4338L20.2542 27.1302ZM19.8276 27.597L17.2785 26.5282V26.9414L19.8276 28.0102V27.597ZM20.2542 28.189V27.7758L23.3632 29.0795V29.4926L20.2542 28.189ZM20.2542 26.0777V25.6646L23.3518 26.9634V27.3766L20.2542 26.0777Z" fill="#32B0E7"/>
<path d="M29.8782 26.2567C29.6736 26.1705 29.6736 25.8917 29.8782 25.6329C30.0828 25.3742 30.4313 25.2318 30.6249 25.326C30.8185 25.4204 30.8268 25.6912 30.6249 25.9479C30.4231 26.2046 30.0746 26.3429 29.8782 26.2567Z" fill="#50E6FF"/>
<path d="M16.0052 14.8583C16.0893 15.0154 16.2534 15.143 16.4635 15.2147L24.1949 18.2464C24.4903 18.3622 24.8189 18.4262 25.1545 18.4336C25.49 18.4409 25.8233 18.3911 26.1277 18.2884L31.5673 15.9476C31.6532 15.9175 31.7278 15.8728 31.7851 15.8174C31.8421 15.762 31.8802 15.6975 31.8958 15.6292C31.8999 15.6053 31.8999 15.5811 31.8958 15.5572C31.8672 15.4651 31.8091 15.3792 31.7261 15.3065C31.643 15.2338 31.5376 15.1763 31.4181 15.1386L23.7006 12.109C23.4053 11.9931 23.0768 11.9289 22.7412 11.9216C22.4055 11.9143 22.0722 11.9641 21.7678 12.067L16.3117 14.4038C16.1934 14.4398 16.0971 14.5057 16.0408 14.5893C15.9844 14.6729 15.9718 14.7685 16.0052 14.8583Z" fill="url(#paint2_linear_855_8559)"/>
<path d="M26.6884 23.3756L26.6718 23.3956L26.2245 23.5859L26.2052 23.5958C25.901 23.6988 25.5676 23.7485 25.232 23.7412C24.8964 23.734 24.5676 23.6698 24.2724 23.5539L16.541 20.5242C16.1627 20.37 16.0026 20.1597 16.0799 19.9756L15.9971 14.8594C16.0812 15.0164 16.2453 15.144 16.4554 15.2158L24.1868 18.2474C24.4821 18.3633 24.8107 18.4273 25.1463 18.4346C25.482 18.4419 25.8153 18.3923 26.1196 18.2895L26.1417 18.2796L31.5593 15.9467C31.6448 15.9164 31.7189 15.8717 31.7756 15.8163C31.8324 15.7609 31.8699 15.6964 31.885 15.6283L31.9707 20.8646C31.9748 20.8884 31.9748 20.9128 31.9707 20.9366C31.9541 21.0047 31.9157 21.0689 31.8587 21.1244C31.8016 21.1796 31.7275 21.2244 31.642 21.255L31.4432 21.3391L26.6884 23.3756Z" fill="#003067"/>
<path fill-rule="evenodd" clip-rule="evenodd" d="M19.8211 17.683L17.2651 16.6113V17.0238L19.8211 18.0955V17.683ZM19.8211 18.7337L17.2763 17.6666V18.0791L19.8211 19.1461V18.7337ZM20.2471 19.3248V18.9122L23.3509 20.2137V20.6261L20.2471 19.3248ZM19.8211 19.7909L17.2763 18.7239V19.1364L19.8211 20.2034V19.7909ZM20.2471 20.382V19.9694L23.3509 21.2709V21.6834L20.2471 20.382ZM20.2471 18.2741V17.8617L23.3397 19.1584V19.5708L20.2471 18.2741Z" fill="#32B0E7"/>
<path d="M29.8555 18.4524C29.6512 18.3663 29.6512 18.0879 29.8555 17.8296C30.0599 17.5713 30.4078 17.4292 30.6011 17.5233C30.7943 17.6174 30.8027 17.8877 30.6011 18.1441C30.3995 18.4003 30.0516 18.5384 29.8555 18.4524Z" fill="#50E6FF"/>
<path d="M16.0052 6.58974C16.0893 6.74679 16.2534 6.8744 16.4635 6.94618L24.1949 9.97781C24.4903 10.0936 24.8189 10.1577 25.1545 10.165C25.49 10.1723 25.8233 10.1226 26.1277 10.0199L31.5673 7.67905C31.6532 7.64892 31.7278 7.60426 31.7851 7.54887C31.8421 7.49347 31.8802 7.42894 31.8958 7.36067C31.8999 7.33674 31.8999 7.31251 31.8958 7.28858C31.8672 7.19651 31.8091 7.11065 31.7261 7.03794C31.643 6.96522 31.5376 6.90771 31.4181 6.87008L23.7006 3.84046C23.4053 3.72453 23.0768 3.66034 22.7412 3.65305C22.4055 3.64574 22.0722 3.69552 21.7678 3.7984L16.3117 6.1352C16.1934 6.17125 16.0971 6.23717 16.0408 6.32076C15.9844 6.40434 15.9718 6.49991 16.0052 6.58974Z" fill="url(#paint3_linear_855_8559)"/>
<path d="M26.6884 15.106L26.6718 15.1261L26.2245 15.3163L26.2052 15.3263C25.901 15.4292 25.5676 15.479 25.232 15.4717C24.8964 15.4644 24.5676 15.4002 24.2724 15.2843L16.541 12.2546C16.1627 12.1004 16.0026 11.8902 16.0799 11.706L15.9971 6.58984C16.0812 6.74687 16.2453 6.87448 16.4554 6.94627L24.1868 9.9779C24.4821 10.0937 24.8107 10.1578 25.1463 10.1651C25.482 10.1724 25.8153 10.1227 26.1196 10.0199L26.1417 10.0099L31.5593 7.67713C31.6448 7.64689 31.7189 7.60218 31.7756 7.54677C31.8324 7.49135 31.8699 7.42687 31.885 7.35877L31.9707 12.595C31.9748 12.619 31.9748 12.6432 31.9707 12.6671C31.9541 12.7352 31.9157 12.7994 31.8587 12.8547C31.8016 12.91 31.7275 12.9548 31.642 12.9855L31.4432 13.0696L26.6884 15.106Z" fill="#003067"/>
<path fill-rule="evenodd" clip-rule="evenodd" d="M19.8211 9.41353L17.2651 8.3418V8.75429L19.8211 9.82601V9.41353ZM19.8211 10.4641L17.2763 9.39709V9.80958L19.8211 10.8766V10.4641ZM20.2471 11.0552V10.6427L23.3509 11.9441V12.3566L20.2471 11.0552ZM19.8211 11.5214L17.2763 10.4543V10.8668L19.8211 11.9338V11.5214ZM20.2471 12.1125V11.7L23.3509 13.0014V13.4139L20.2471 12.1125ZM20.2471 10.0046V9.59214L23.3397 10.8889V11.3014L20.2471 10.0046Z" fill="#32B0E7"/>
<path d="M29.8555 10.1838C29.6512 10.0977 29.6512 9.8194 29.8555 9.5611C30.0599 9.30279 30.4078 9.16062 30.6011 9.25472C30.7943 9.34884 30.8027 9.61917 30.6011 9.87547C30.3995 10.1318 30.0516 10.2699 29.8555 10.1838Z" fill="#50E6FF"/>
</g>
<defs>
<linearGradient id="paint0_linear_855_8559" x1="15.16" y1="0" x2="15.16" y2="31.9739" gradientUnits="userSpaceOnUse">
<stop stop-color="#7A7A7A"/>
<stop offset="1" stop-color="#454545"/>
</linearGradient>
<linearGradient id="paint1_linear_855_8559" x1="23.9559" y1="19.7148" x2="23.9559" y2="26.2387" gradientUnits="userSpaceOnUse">
<stop stop-color="#5EA0EF"/>
<stop offset="0.18" stop-color="#559CEC"/>
<stop offset="0.47" stop-color="#3C91E5"/>
<stop offset="0.84" stop-color="#1380DA"/>
<stop offset="1" stop-color="#0078D4"/>
</linearGradient>
<linearGradient id="paint2_linear_855_8559" x1="23.9429" y1="11.9209" x2="23.9429" y2="18.4342" gradientUnits="userSpaceOnUse">
<stop stop-color="#5EA0EF"/>
<stop offset="0.18" stop-color="#559CEC"/>
<stop offset="0.47" stop-color="#3C91E5"/>
<stop offset="0.84" stop-color="#1380DA"/>
<stop offset="1" stop-color="#0078D4"/>
</linearGradient>
<linearGradient id="paint3_linear_855_8559" x1="23.9429" y1="3.65237" x2="23.9429" y2="10.1657" gradientUnits="userSpaceOnUse">
<stop stop-color="#5EA0EF"/>
<stop offset="0.18" stop-color="#559CEC"/>
<stop offset="0.47" stop-color="#3C91E5"/>
<stop offset="0.84" stop-color="#1380DA"/>
<stop offset="1" stop-color="#0078D4"/>
</linearGradient>
<clipPath id="clip0_855_8559">
<rect width="32" height="32" fill="white"/>
</clipPath>
</defs>
</svg>
