<svg width="32" height="32" viewBox="0 0 32 32" fill="none" xmlns="http://www.w3.org/2000/svg">
<g clip-path="url(#clip0_855_8576)">
<mask id="mask0_855_8576" style="mask-type:luminance" maskUnits="userSpaceOnUse" x="0" y="0" width="32" height="32">
<path d="M32 0H0V32H32V0Z" fill="white"/>
</mask>
<g mask="url(#mask0_855_8576)">
<path d="M1.25709 14.7429L14.7429 1.25703C15.4372 0.562763 16.5628 0.562761 17.2571 1.25703L30.7429 14.7429C31.4372 15.4371 31.4372 16.5628 30.7429 17.257L17.2571 30.7429C16.5628 31.4371 15.4372 31.4371 14.7429 30.7429L1.25709 17.257C0.562824 16.5628 0.562822 15.4371 1.25709 14.7429Z" fill="url(#paint0_linear_855_8576)"/>
<path opacity="0.9" d="M16.3121 26.2461C15.6691 26.2461 15.0406 26.0555 14.5061 25.6982C13.9715 25.3408 13.555 24.8331 13.3091 24.239C13.0632 23.6448 12.9991 22.9912 13.1248 22.3606C13.2506 21.73 13.5605 21.151 14.0154 20.6966C14.4703 20.2422 15.0498 19.933 15.6805 19.808C16.3112 19.6831 16.9648 19.7481 17.5586 19.9947C18.1524 20.2413 18.6597 20.6585 19.0164 21.1935C19.373 21.7284 19.5629 22.3572 19.5621 23.0002C19.5605 23.8612 19.2174 24.6866 18.6082 25.2952C17.9989 25.9035 17.1732 26.2456 16.3121 26.2461ZM16.3121 21.1222C15.9416 21.1245 15.5802 21.2365 15.2733 21.444C14.9664 21.6514 14.7279 21.9451 14.5877 22.288C14.4474 22.631 14.4119 23.0077 14.4855 23.3707C14.559 23.7337 14.7384 24.0669 15.0011 24.3282C15.2637 24.5894 15.5978 24.767 15.9613 24.8386C16.3247 24.9103 16.7012 24.8728 17.0434 24.7307C17.3855 24.5887 17.6779 24.3485 17.8837 24.0406C18.0896 23.7327 18.1997 23.3705 18.2 23.0002C18.2004 22.7526 18.1517 22.5074 18.0567 22.2788C17.9618 22.0502 17.8226 21.8427 17.6471 21.6681C17.4716 21.4936 17.2633 21.3554 17.0341 21.2617C16.805 21.168 16.5596 21.1206 16.3121 21.1222Z" fill="white"/>
<path d="M23.8878 11.4735H19.8117C19.7831 11.4728 19.755 11.4808 19.7312 11.4963C19.7072 11.5119 19.6885 11.5343 19.6775 11.5607C19.6665 11.587 19.6637 11.6161 19.6693 11.6441C19.6752 11.672 19.6893 11.6976 19.7097 11.7175L20.8738 12.8815C20.9047 12.9126 20.922 12.9546 20.922 12.9985C20.922 13.0423 20.9047 13.0844 20.8738 13.1155L17.7178 16.2735C17.5757 16.4135 17.4738 16.5775 17.3437 16.7255V8.29946C17.3437 8.26128 17.3589 8.22465 17.3859 8.19765C17.4129 8.17065 17.4496 8.15546 17.4877 8.15546H19.1877C19.2158 8.15465 19.2432 8.1457 19.2663 8.12972C19.2894 8.11376 19.3076 8.09145 19.3182 8.06545C19.3291 8.03946 19.3321 8.01091 19.3271 7.98325C19.322 7.95557 19.309 7.92995 19.2898 7.90947L16.3997 5.02947C16.3731 5.00309 16.3372 4.98828 16.2997 4.98828C16.2623 4.98828 16.2263 5.00309 16.1997 5.02947L13.3237 7.90947C13.3045 7.92995 13.2915 7.95557 13.2864 7.98325C13.2814 8.01091 13.2844 8.03946 13.2952 8.06545C13.306 8.09145 13.324 8.11376 13.3472 8.12972C13.3703 8.1457 13.3976 8.15465 13.4258 8.15546H15.1117C15.1487 8.15902 15.1833 8.17532 15.2096 8.2016C15.2359 8.22787 15.2522 8.26249 15.2557 8.29946V16.7195C15.1277 16.5735 15.0258 16.4115 14.8877 16.2735L11.7317 13.1155C11.7162 13.1002 11.7039 13.082 11.6954 13.0619C11.687 13.0418 11.6827 13.0202 11.6827 12.9985C11.6827 12.9767 11.687 12.9551 11.6954 12.935C11.7039 12.9149 11.7162 12.8967 11.7317 12.8815L12.8938 11.7175C12.9197 11.6906 12.9341 11.6548 12.9341 11.6175C12.9341 11.5802 12.9197 11.5443 12.8938 11.5175C12.8805 11.5045 12.8649 11.4943 12.8477 11.4875C12.8306 11.4806 12.8122 11.4772 12.7938 11.4775H8.71775C8.68008 11.4775 8.64398 11.4924 8.61734 11.5191C8.59071 11.5457 8.57574 11.5818 8.57574 11.6195V15.6915C8.57574 15.7103 8.57948 15.7289 8.58675 15.7463C8.594 15.7636 8.60465 15.7794 8.61804 15.7926C8.63144 15.8058 8.64734 15.8162 8.66479 15.8232C8.68225 15.8303 8.70094 15.8337 8.71974 15.8335C8.75681 15.8326 8.79231 15.8184 8.81974 15.7935L10.0397 14.5735C10.055 14.5579 10.0732 14.5456 10.0933 14.5372C10.1134 14.5287 10.135 14.5244 10.1567 14.5244C10.1785 14.5244 10.2001 14.5287 10.2202 14.5372C10.2403 14.5456 10.2585 14.5579 10.2738 14.5735L13.4298 17.7295C14.0896 18.3949 14.5865 19.204 14.8818 20.0934C15.3204 19.8669 15.8066 19.7477 16.3003 19.7455C16.794 19.7436 17.2812 19.8586 17.7218 20.0815C18.0196 19.1967 18.5163 18.3921 19.1737 17.7295L22.3298 14.5735C22.3453 14.5579 22.3636 14.5455 22.3838 14.537C22.4041 14.5286 22.4258 14.5242 22.4478 14.5242C22.4697 14.5242 22.4914 14.5286 22.5117 14.537C22.5319 14.5455 22.5502 14.5579 22.5657 14.5735L23.7858 15.7935C23.8125 15.8184 23.8473 15.8327 23.8837 15.8335C23.9218 15.8335 23.9584 15.8186 23.9856 15.7921C24.0128 15.7656 24.0286 15.7295 24.0297 15.6915V11.6155C24.0292 11.578 24.0141 11.5421 23.9876 11.5156C23.9611 11.4891 23.9252 11.474 23.8878 11.4735Z" fill="url(#paint1_linear_855_8576)"/>
</g>
</g>
<defs>
<linearGradient id="paint0_linear_855_8576" x1="16" y1="32" x2="16" y2="-5.15444e-05" gradientUnits="userSpaceOnUse">
<stop stop-color="#0078D4"/>
<stop offset="0.156" stop-color="#1380DA"/>
<stop offset="0.528" stop-color="#3C91E5"/>
<stop offset="0.822" stop-color="#559CEC"/>
<stop offset="1" stop-color="#5EA0EF"/>
</linearGradient>
<linearGradient id="paint1_linear_855_8576" x1="16.3018" y1="6.35546" x2="16.3018" y2="19.3535" gradientUnits="userSpaceOnUse">
<stop stop-color="white"/>
<stop offset="1" stop-color="white" stop-opacity="0.7"/>
</linearGradient>
<clipPath id="clip0_855_8576">
<rect width="32" height="32" fill="white"/>
</clipPath>
</defs>
</svg>
