<svg width="32" height="32" viewBox="0 0 32 32" fill="none" xmlns="http://www.w3.org/2000/svg">
<g clip-path="url(#clip0_855_8566)">
<path d="M1.55818 6.2287C2.0758 4.58742 3.45118 3.55566 4.95019 3.55566H26.8859C28.4197 3.55566 29.8151 4.63559 30.3257 6.32311C32.6096 13.8727 32.5004 18.8449 30.3429 25.7249C29.8217 27.387 28.4364 28.4446 26.9196 28.4446H5.09842C3.52519 28.4446 2.10377 27.3068 1.61455 25.5622C-0.487255 18.0677 -0.569189 12.9741 1.55818 6.2287Z" fill="#0078D4"/>
<mask id="mask0_855_8566" style="mask-type:luminance" maskUnits="userSpaceOnUse" x="21" y="19" width="8" height="8">
<path d="M28.4444 19.5557H21.3333V26.6668H28.4444V19.5557Z" fill="white"/>
</mask>
<g mask="url(#mask0_855_8566)">
<path d="M24.8887 26.469C26.7433 26.469 28.2467 24.9656 28.2467 23.111C28.2467 21.2564 26.7433 19.7529 24.8887 19.7529C23.0341 19.7529 21.5306 21.2564 21.5306 23.111C21.5306 24.9656 23.0341 26.469 24.8887 26.469Z" fill="white"/>
<path fill-rule="evenodd" clip-rule="evenodd" d="M27.3813 20.8608C27.2306 20.6939 27.0631 20.5422 26.8819 20.4082L24.7164 22.8987L25.1939 23.3762L27.3813 20.8608Z" fill="#00188F"/>
</g>
<path d="M15.1895 25.046C15.7238 25.046 16.1569 24.6129 16.1569 24.0786C16.1569 23.5444 15.7238 23.1113 15.1895 23.1113C14.6553 23.1113 14.2222 23.5444 14.2222 24.0786C14.2222 24.6129 14.6553 25.046 15.1895 25.046Z" fill="white"/>
<path d="M11.634 25.046C12.1682 25.046 12.6013 24.6129 12.6013 24.0786C12.6013 23.5444 12.1682 23.1113 11.634 23.1113C11.0998 23.1113 10.6667 23.5444 10.6667 24.0786C10.6667 24.6129 11.0998 25.046 11.634 25.046Z" fill="white"/>
<path d="M8.07323 23.3496H4.51767C4.02675 23.3496 3.62878 23.7476 3.62878 24.2385C3.62878 24.7294 4.02675 25.1274 4.51767 25.1274H8.07323C8.56415 25.1274 8.96212 24.7294 8.96212 24.2385C8.96212 23.7476 8.56415 23.3496 8.07323 23.3496Z" fill="white"/>
<path d="M4.28864 7.1842C4.28864 6.81981 4.58405 6.52441 4.94844 6.52441H27.0516C27.4158 6.52441 27.7113 6.81981 27.7113 7.1842V16.4213C27.7113 16.7857 27.4158 17.0811 27.0516 17.0811H4.94844C4.58405 17.0811 4.28864 16.7857 4.28864 16.4213V7.1842Z" fill="url(#paint0_linear_855_8566)"/>
</g>
<defs>
<linearGradient id="paint0_linear_855_8566" x1="4.28864" y1="11.8028" x2="27.7113" y2="11.8028" gradientUnits="userSpaceOnUse">
<stop stop-color="#5EA0EF"/>
<stop offset="1" stop-color="#83B9F9"/>
</linearGradient>
<clipPath id="clip0_855_8566">
<rect width="32" height="32" fill="white"/>
</clipPath>
</defs>
</svg>
