<svg width="32" height="32" viewBox="0 0 32 32" fill="none" xmlns="http://www.w3.org/2000/svg">
<g clip-path="url(#clip0_855_8595)">
<mask id="mask0_855_8595" style="mask-type:luminance" maskUnits="userSpaceOnUse" x="0" y="0" width="32" height="32">
<path d="M32 0H0V32H32V0Z" fill="white"/>
</mask>
<g mask="url(#mask0_855_8595)">
<path d="M18.4551 17.2444C17.4917 18.0288 16.7077 19.0103 16.1557 20.1232C15.6037 21.2361 15.2966 22.4544 15.2551 23.696V23.7084C14.8871 23.7173 14.5173 23.7191 14.144 23.7191C6.48001 23.7191 0.243578 22.2791 0.0515778 20.4889C0.0498696 20.4604 0.0498696 20.432 0.0515778 20.4036C0.0705133 20.2103 0.13338 20.024 0.235372 19.8588C0.337363 19.6937 0.475775 19.5541 0.640022 19.4507C2.37512 18.0836 7.76535 17.0844 14.1511 17.0844C15.6445 17.0862 17.0969 17.1413 18.4551 17.2444ZM0.00891113 11.8773C0.00891113 13.7084 6.32001 15.1929 14.1049 15.1929C21.8898 15.1929 28.2009 13.7084 28.2009 11.8773C28.2009 10.0462 21.8898 8.56 14.1049 8.56C6.32001 8.56 0.00891113 10.0444 0.00891113 11.8773ZM0.00891113 3.31733C0.00891113 5.14844 6.32001 6.63289 14.1049 6.63289C21.8898 6.63289 28.2009 5.14844 28.2009 3.31733C28.2009 1.48622 21.8898 0 14.1049 0C6.32001 0 0.00891113 1.48444 0.00891113 3.31733Z" fill="#83B9F9"/>
<path d="M17.3138 29.6377C17.3643 29.6974 17.3971 29.7701 17.4084 29.8476C17.4197 29.9251 17.4092 30.0041 17.3779 30.0759C17.3467 30.1477 17.2959 30.2092 17.2315 30.2537C17.1671 30.2981 17.0915 30.3237 17.0134 30.3274H17.0045C16.6382 30.3452 16.272 30.3541 15.8969 30.3683C15.3209 30.3849 14.7372 30.3932 14.1458 30.3932C6.36269 30.4003 0.0533545 28.9105 0.0533545 27.0741V20.395C0.0531193 20.4499 0.0590829 20.5049 0.0711323 20.5585C0.435576 22.2759 6.3698 23.6501 13.7209 23.7017C13.8631 23.7017 14.0036 23.7017 14.1458 23.7017C14.288 23.7017 14.4391 23.7017 14.5867 23.7017L15.2569 23.6928V23.7052C15.2569 23.803 15.2569 23.9008 15.2569 24.0003C15.2521 26.064 15.9812 28.062 17.3138 29.6377ZM28.1991 11.8368C28.112 13.6537 21.8347 15.1114 14.1067 15.1114C6.37869 15.1114 0.158243 13.675 0.0231323 11.8634V18.4892C0.0439204 18.6867 0.110095 18.8769 0.21649 19.0446C0.322884 19.2124 0.466618 19.3532 0.636465 19.4563C2.39646 20.8145 7.76535 21.803 14.1174 21.803C14.5974 21.803 15.0685 21.803 15.5396 21.7852C16.0086 20.0023 17.0291 18.4131 18.4551 17.2448C19.7136 16.209 21.237 15.5466 22.8526 15.3326C24.4685 15.1186 26.1118 15.3616 27.5965 16.0341C27.6606 16.0647 27.7316 16.0786 27.8027 16.0744C27.8738 16.0702 27.9426 16.0481 28.0027 16.0101C28.063 15.9721 28.1124 15.9195 28.1469 15.8571C28.1812 15.7948 28.1991 15.7248 28.1991 15.6537V11.8368ZM14.1049 6.55854C6.40002 6.55854 0.158243 5.11499 0.0231323 3.30343V9.92388C0.0231323 11.7568 6.33246 13.2412 14.1191 13.2412C21.7405 13.2412 27.9431 11.819 28.2009 10.0412V9.7781V3.24121C28.1974 5.0741 21.888 6.55854 14.1049 6.55854Z" fill="#0078D4"/>
<path d="M32 24.0001C32 26.1219 31.1572 28.1567 29.6569 29.657C28.1566 31.1573 26.1218 32.0001 24 32.0001C21.8782 32.0001 19.8434 31.1573 18.3431 29.657C16.8429 28.1567 16 26.1219 16 24.0001C16 23.8952 16 23.7903 16 23.6872V23.6801C16.0234 23.0289 16.1286 22.3832 16.3129 21.7583C16.8474 19.9036 18.0345 18.3046 19.6551 17.2564C21.2759 16.208 23.221 15.781 25.1317 16.0541C27.0427 16.3272 28.7902 17.2819 30.0524 18.7421C31.3147 20.2024 32.0064 22.07 32 24.0001Z" fill="white"/>
<path d="M23.3341 32.0004C28.3662 32.0004 32.4457 28.0207 32.4457 23.1115C32.4457 18.2024 28.3662 14.2227 23.3341 14.2227C18.3017 14.2227 14.2222 18.2024 14.2222 23.1115C14.2222 28.0207 18.3017 32.0004 23.3341 32.0004Z" fill="#F78D1E"/>
<path d="M23.37 30.8508C27.7518 30.8508 31.304 27.3856 31.304 23.1109C31.304 18.8364 27.7518 15.3711 23.37 15.3711C18.9883 15.3711 15.4361 18.8364 15.4361 23.1109C15.4361 27.3856 18.9883 30.8508 23.37 30.8508Z" fill="white"/>
<path d="M26.6461 25.4852L24.3396 23.2374C24.2853 23.1855 24.2205 23.1451 24.1493 23.1192C24.0781 23.0932 24.002 23.0824 23.9261 23.087C23.9844 23.0136 24.0215 22.9263 24.0334 22.834V17.1066C24.0327 16.9622 23.9737 16.8239 23.8692 16.7218C23.7645 16.6197 23.6226 16.5621 23.4747 16.5615H23.3696C23.2215 16.5621 23.0798 16.6197 22.9751 16.7218C22.8706 16.8239 22.8114 16.9622 22.8109 17.1066V22.834C22.8114 22.9784 22.8706 23.1163 22.9753 23.2182C23.08 23.3199 23.2219 23.377 23.3696 23.377H23.4478C23.3648 23.4776 23.322 23.6043 23.3273 23.7334C23.3328 23.8625 23.3858 23.9853 23.4768 24.079L25.7833 26.3268C25.8877 26.4285 26.0292 26.4858 26.1767 26.4858C26.3241 26.4858 26.4656 26.4285 26.57 26.3268L26.6461 26.255C26.7504 26.1528 26.8091 26.0143 26.8091 25.8701C26.8091 25.7259 26.7504 25.5874 26.6461 25.4852Z" fill="#B3B3B3"/>
<path d="M23.3742 24.3582C24.0877 24.3582 24.666 23.7942 24.666 23.0982C24.666 22.4022 24.0877 21.8379 23.3742 21.8379C22.6606 21.8379 22.0823 22.4022 22.0823 23.0982C22.0823 23.7942 22.6606 24.3582 23.3742 24.3582Z" fill="#666666"/>
</g>
</g>
<defs>
<clipPath id="clip0_855_8595">
<rect width="32" height="32" fill="white"/>
</clipPath>
</defs>
</svg>
