<svg width="32" height="32" viewBox="0 0 32 32" fill="none" xmlns="http://www.w3.org/2000/svg">
<g clip-path="url(#clip0_855_8564)">
<mask id="mask0_855_8564" style="mask-type:luminance" maskUnits="userSpaceOnUse" x="0" y="0" width="32" height="32">
<path d="M32 0H0V32H32V0Z" fill="white"/>
</mask>
<g mask="url(#mask0_855_8564)">
<path d="M12.672 16C13.0378 16.0041 13.4023 16.0446 13.7594 16.1211C13.9153 16.1545 14.0319 16.2793 14.0496 16.4317L14.1344 17.1625C14.1728 17.4981 14.4679 17.7522 14.8196 17.7526C14.9142 17.7527 15.0077 17.7338 15.0951 17.6967L15.7932 17.4022C15.9384 17.3409 16.1081 17.3743 16.2165 17.4855C16.721 18.0028 17.0968 18.6235 17.3155 19.3004C17.3627 19.4464 17.3084 19.6052 17.1802 19.6958L16.5614 20.1337C16.3849 20.2583 16.2807 20.456 16.2807 20.6665C16.2807 20.8768 16.3849 21.0745 16.5618 21.1993L17.1812 21.6375C17.3093 21.7282 17.3637 21.8868 17.3165 22.0329C17.0979 22.7097 16.7223 23.3303 16.2181 23.8476C16.1098 23.9589 15.9403 23.9924 15.7951 23.9312L15.094 23.6364C14.8935 23.552 14.6631 23.5644 14.4736 23.6697C14.2841 23.7748 14.158 23.9602 14.1339 24.1692L14.0496 24.8999C14.0322 25.0507 13.9181 25.1746 13.7645 25.2096C13.0426 25.3746 12.2903 25.3746 11.5683 25.2096C11.4147 25.1746 11.3006 25.0507 11.2832 24.8999L11.1991 24.1703C11.1743 23.9618 11.048 23.7769 10.8586 23.672C10.6693 23.5671 10.4393 23.5548 10.2394 23.6388L9.53825 23.9337C9.39303 23.9948 9.22344 23.9612 9.11516 23.85C8.61061 23.3319 8.23505 22.7108 8.01672 22.0331C7.9697 21.8871 8.02403 21.7285 8.15212 21.638L8.77191 21.1995C8.94844 21.075 9.05269 20.8772 9.05269 20.6668C9.05269 20.4565 8.94844 20.2588 8.77168 20.134L8.15228 19.6964C8.024 19.6057 7.96961 19.4469 8.01681 19.301C8.23552 18.624 8.61127 18.0034 9.11582 17.486C9.22423 17.3748 9.39388 17.3414 9.53909 17.4027L10.2371 17.6971C10.438 17.7817 10.6689 17.769 10.8593 17.6622C11.0489 17.5566 11.1751 17.3709 11.1995 17.162L11.2842 16.4317C11.302 16.2792 11.4186 16.1544 11.5746 16.1211C11.9322 16.0447 12.297 16.0041 12.672 16ZM12.672 16.7179C12.4457 16.7205 12.22 16.7392 11.9968 16.774L11.9426 17.2417C11.8918 17.677 11.6291 18.0635 11.2355 18.2827C10.8395 18.5047 10.3566 18.5316 9.93655 18.3545L9.48876 18.1657C9.20368 18.4978 8.97676 18.8725 8.81694 19.2747L9.21461 19.5557C9.58289 19.8155 9.8004 20.2281 9.8004 20.6668C9.8004 21.1056 9.58289 21.5184 9.215 21.7778L8.81669 22.0596C8.97637 22.4626 9.20334 22.8379 9.48862 23.1707L9.9398 22.981C10.3576 22.8059 10.8371 22.8315 11.232 23.05C11.627 23.2686 11.8904 23.6542 11.9421 24.0901L11.9964 24.5611C12.4399 24.6334 12.8929 24.6334 13.3364 24.5611L13.3907 24.0901C13.4409 23.6544 13.7041 23.2674 14.0995 23.048C14.4949 22.8286 14.9754 22.8028 15.394 22.9787L15.8448 23.1684C16.1298 22.8359 16.3567 22.4613 16.5165 22.059L16.1187 21.7776C15.7504 21.5179 15.5329 21.1052 15.5329 20.6665C15.5329 20.2276 15.7504 19.8149 16.1183 19.5556L16.5155 19.2743C16.3557 18.8722 16.1287 18.4974 15.8436 18.1652L15.3967 18.3536C15.2146 18.4309 15.0176 18.4708 14.8187 18.4706C14.0861 18.4697 13.4712 17.9401 13.3912 17.2415L13.337 16.7738C13.1149 16.7391 12.8915 16.7204 12.672 16.7179ZM12.6658 18.8718C13.6981 18.8718 14.535 19.6754 14.535 20.6667C14.535 21.658 13.6981 22.4615 12.6658 22.4615C11.6334 22.4615 10.7965 21.658 10.7965 20.6667C10.7965 19.6754 11.6334 18.8718 12.6658 18.8718ZM12.6658 19.5897C12.0463 19.5897 11.5442 20.0718 11.5442 20.6667C11.5442 21.2615 12.0463 21.7436 12.6658 21.7436C13.2852 21.7436 13.7873 21.2615 13.7873 20.6667C13.7873 20.0718 13.2852 19.5897 12.6658 19.5897Z" fill="#212121"/>
<path d="M27.685 10.667H29.5673V19.9301H27.685V18.0321V10.667Z" fill="#0061B0"/>
<path d="M27.6849 18.0322H20.0234V19.9302H27.6849V18.0322Z" fill="#0061B0"/>
<path d="M31.4569 7.22309e-09H17.6342C17.4734 0.00554933 17.321 0.0733673 17.2092 0.189141C17.0974 0.304916 17.035 0.459589 17.0351 0.620521V4.52553C17.0351 4.68827 17.099 4.8445 17.213 4.96055C17.3271 5.07662 17.4822 5.14324 17.6449 5.14604H31.4569C31.5378 5.14606 31.618 5.12994 31.6926 5.09863C31.7675 5.06731 31.835 5.02144 31.8919 4.96366C31.9486 4.9059 31.9933 4.8374 32.0233 4.76219C32.0534 4.68695 32.0681 4.60651 32.0667 4.52553V0.620521C32.0681 0.539543 32.0534 0.459092 32.0233 0.383865C31.9933 0.308638 31.9486 0.240144 31.8919 0.182379C31.835 0.124613 31.7675 0.0787351 31.6926 0.0474219C31.618 0.0161085 31.5378 -1.24578e-05 31.4569 7.22309e-09Z" fill="url(#paint0_linear_855_8564)"/>
<path d="M31.414 5.53125H17.5913C17.439 5.54467 17.2973 5.61479 17.1943 5.72773C17.0913 5.84067 17.0344 5.98819 17.035 6.14108V10.0568C17.0336 10.1373 17.0483 10.2172 17.0785 10.2919C17.1086 10.3665 17.1535 10.4343 17.2104 10.4912C17.2673 10.5481 17.3351 10.593 17.4097 10.6231C17.4844 10.6533 17.5643 10.668 17.6448 10.6666H31.414C31.5738 10.6638 31.7262 10.5983 31.8384 10.4842C31.9504 10.3702 32.0131 10.2167 32.0131 10.0568V6.14108C32.0105 5.98201 31.9468 5.83002 31.8353 5.71653C31.7239 5.60305 31.573 5.53673 31.414 5.53125Z" fill="url(#paint1_linear_855_8564)"/>
<path d="M30.5367 0.962891H29.7342C29.6457 0.962891 29.5739 1.03474 29.5739 1.12337V1.92576C29.5739 2.0144 29.6457 2.08624 29.7342 2.08624H30.5367C30.6252 2.08624 30.6971 2.0144 30.6971 1.92576V1.12337C30.6971 1.03474 30.6252 0.962891 30.5367 0.962891Z" fill="#92CEFF"/>
<path d="M30.5367 2.89941H29.7342C29.6457 2.89941 29.5739 2.97127 29.5739 3.05989V3.86229C29.5739 3.95092 29.6457 4.02277 29.7342 4.02277H30.5367C30.6252 4.02277 30.6971 3.95092 30.6971 3.86229V3.05989C30.6971 2.97127 30.6252 2.89941 30.5367 2.89941Z" fill="#92CEFF"/>
<path d="M30.5367 6.46191H29.7342C29.6457 6.46191 29.5739 6.53375 29.5739 6.62239V7.42479C29.5739 7.51342 29.6457 7.58527 29.7342 7.58527H30.5367C30.6252 7.58527 30.6971 7.51342 30.6971 7.42479V6.62239C30.6971 6.53375 30.6252 6.46191 30.5367 6.46191Z" fill="#92CEFF"/>
<path d="M30.5367 8.39844H29.7342C29.6457 8.39844 29.5739 8.4703 29.5739 8.55892V9.36132C29.5739 9.44994 29.6457 9.5218 29.7342 9.5218H30.5367C30.6252 9.5218 30.6971 9.44994 30.6971 9.36132V8.55892C30.6971 8.4703 30.6252 8.39844 30.5367 8.39844Z" fill="#92CEFF"/>
<mask id="mask1_855_8564" style="mask-type:luminance" maskUnits="userSpaceOnUse" x="0" y="12" width="22" height="22">
<path d="M21.3333 12.4443H0V33.7777H21.3333V12.4443Z" fill="white"/>
</mask>
<g mask="url(#mask1_855_8564)">
<path d="M20.6222 13.2559H0.711111C0.318375 13.2559 0 13.5742 0 13.967V26.767C0 27.1597 0.318375 27.4781 0.711111 27.4781H20.6222C21.0149 27.4781 21.3333 27.1597 21.3333 26.767V13.967C21.3333 13.5742 21.0149 13.2559 20.6222 13.2559Z" fill="url(#paint2_linear_855_8564)"/>
<path d="M14.9452 31.7807C12.8356 31.4488 12.7526 29.9318 12.7526 27.4785H8.56889C8.56889 29.9318 8.49778 31.4488 6.38816 31.7807C6.09693 31.8129 5.82797 31.9519 5.63317 32.1708C5.43838 32.3896 5.33156 32.6728 5.33333 32.9658H16C16.0018 32.6728 15.895 32.3896 15.7002 32.1708C15.5054 31.9519 15.2364 31.8129 14.9452 31.7807Z" fill="url(#paint3_linear_855_8564)"/>
<path d="M16 20.8874V19.6602L15.8274 19.5952L14.5159 19.1653L14.1722 18.3251L14.839 16.9057L13.9789 16.0447L13.8063 16.1304L12.5818 16.7536L11.7424 16.4095L11.2054 14.9326H9.97946L9.91603 15.1039L9.48524 16.4169L8.6473 16.761L7.25022 16.0802L6.39015 16.9412L6.47571 17.1125L7.09975 18.3399L6.75454 19.1816L5.24976 19.7207V20.9464L5.42236 21.0115L6.73388 21.4428L7.07761 22.2816L6.41079 23.7024L7.27088 24.5633L7.44348 24.4762L8.66794 23.8529L9.50737 24.1971L10.0444 25.6828H11.2703L11.3352 25.51L11.7645 24.1971L12.6025 23.8529L14.0217 24.5205L14.8818 23.6595L14.7962 23.4867L14.1722 22.2595L14.5159 21.4206L16 20.8874ZM10.6256 22.6672C10.1588 22.6672 9.70241 22.5285 9.31424 22.2688C8.92608 22.0092 8.62353 21.6401 8.44488 21.2083C8.26622 20.7765 8.21948 20.3015 8.31056 19.843C8.40163 19.3847 8.62645 18.9637 8.95655 18.6332C9.28666 18.3027 9.70725 18.0776 10.1651 17.9864C10.623 17.8952 11.0976 17.942 11.5289 18.1208C11.9602 18.2997 12.3289 18.6026 12.5882 18.9912C12.8476 19.3799 12.9861 19.8368 12.9861 20.3041C12.9861 20.9308 12.7374 21.5319 12.2947 21.9749C11.852 22.4181 11.2517 22.6672 10.6256 22.6672Z" fill="white"/>
</g>
</g>
</g>
<defs>
<linearGradient id="paint0_linear_855_8564" x1="24.5508" y1="10.6667" x2="24.5508" y2="0" gradientUnits="userSpaceOnUse">
<stop stop-color="#0078D4"/>
<stop offset="0.156" stop-color="#1380DA"/>
<stop offset="0.528" stop-color="#3C91E5"/>
<stop offset="0.822" stop-color="#559CEC"/>
<stop offset="1" stop-color="#5EA0EF"/>
</linearGradient>
<linearGradient id="paint1_linear_855_8564" x1="24.5507" y1="10.6667" x2="24.5507" y2="3.26206e-05" gradientUnits="userSpaceOnUse">
<stop stop-color="#0078D4"/>
<stop offset="0.156" stop-color="#1380DA"/>
<stop offset="0.528" stop-color="#3C91E5"/>
<stop offset="0.822" stop-color="#559CEC"/>
<stop offset="1" stop-color="#5EA0EF"/>
</linearGradient>
<linearGradient id="paint2_linear_855_8564" x1="10.6667" y1="27.4781" x2="10.6667" y2="13.2559" gradientUnits="userSpaceOnUse">
<stop stop-color="#0078D4"/>
<stop offset="0.8" stop-color="#5EA0EF"/>
</linearGradient>
<linearGradient id="paint3_linear_855_8564" x1="10.6667" y1="32.9658" x2="10.6667" y2="27.4785" gradientUnits="userSpaceOnUse">
<stop stop-color="#CCCCCC"/>
<stop offset="1" stop-color="#707070"/>
</linearGradient>
<clipPath id="clip0_855_8564">
<rect width="32" height="32" fill="white"/>
</clipPath>
</defs>
</svg>
