<svg width="32" height="32" viewBox="0 0 32 32" fill="none" xmlns="http://www.w3.org/2000/svg">
<g clip-path="url(#clip0_855_8509)">
<mask id="mask0_855_8509" style="mask-type:luminance" maskUnits="userSpaceOnUse" x="0" y="0" width="32" height="32">
<path d="M32 0H0V32H32V0Z" fill="white"/>
</mask>
<g mask="url(#mask0_855_8509)">
<path d="M4.50072 0H27.4994C27.8674 0 28.2354 0.213097 28.2354 0.426194V5.22087C28.2354 5.43396 27.8674 5.64706 27.4994 5.64706H4.50072C4.13273 5.64706 3.76477 5.43396 3.76477 5.22087V0.426194C3.76477 0.106548 4.13273 0 4.50072 0Z" fill="#005BA1"/>
<path d="M1.71429 1.88281H30.2857C31.238 1.88281 32 2.95844 32 4.30297V28.2358H0V4.30297C0 2.95844 0.761904 1.88281 1.71429 1.88281Z" fill="#5EA0EF"/>
<path d="M31.4354 25.0352H0V27.8586H31.4354V25.0352Z" fill="#0078D4"/>
<path d="M4.89398 20.1416H26.541C26.9175 20.1416 27.294 20.518 27.294 20.8945V22.5885C27.294 22.9651 26.9175 23.3416 26.541 23.3416H4.89398C4.51751 23.3416 4.14105 22.9651 4.14105 22.5885V20.8945C4.14105 20.518 4.51751 20.1416 4.89398 20.1416Z" fill="#83B9F9"/>
<path d="M26.1648 14.8701C26.5806 14.8701 26.9177 14.533 26.9177 14.1172C26.9177 13.7014 26.5806 13.3643 26.1648 13.3643C25.7488 13.3643 25.4117 13.7014 25.4117 14.1172C25.4117 14.533 25.7488 14.8701 26.1648 14.8701Z" fill="#C3F1FF"/>
<path d="M5.64703 20.7061H25.7883V31.2472C25.7883 31.6237 25.4117 32.0001 25.0352 32.0001H6.39998C6.02351 32.0001 5.64703 31.6237 5.64703 31.2472V20.7061Z" fill="url(#paint0_linear_855_8509)"/>
</g>
</g>
<defs>
<linearGradient id="paint0_linear_855_8509" x1="15.7146" y1="32.0001" x2="15.7146" y2="20.7244" gradientUnits="userSpaceOnUse">
<stop stop-color="#C3F1FF"/>
<stop offset="0.999" stop-color="#9CEBFF"/>
</linearGradient>
<clipPath id="clip0_855_8509">
<rect width="32" height="32" fill="white"/>
</clipPath>
</defs>
</svg>
