<svg width="32" height="32" viewBox="0 0 32 32" fill="none" xmlns="http://www.w3.org/2000/svg">
<path fill-rule="evenodd" clip-rule="evenodd" d="M31.3852 7.73069H0.618188V25.6919H31.3852V7.73069ZM0 7.11133V26.3113H32V7.11133H0Z" fill="url(#paint0_linear_855_8591)"/>
<path d="M0.618164 7.73047H31.3852V25.6917H0.618164V7.73047Z" fill="url(#paint1_linear_855_8591)"/>
<path fill-rule="evenodd" clip-rule="evenodd" d="M9.03577 12.4443H4.59827L4.21673 12.6592L4.20873 12.6494L4.14503 12.6996L4.07212 12.7407L4.07989 12.7509L3.79657 12.9743L3.17426 16.6542L3.60163 17.1444L3.5638 17.1724L3.59715 17.2081L3.10654 17.5465L2.48547 21.2662L2.80803 21.743L3.76659 20.9936L4.2491 17.8539H7.82018L7.28007 20.9513L7.96263 21.7634L8.42876 21.4791L9.05333 17.7724L8.59726 17.273L8.65031 17.2246L8.63827 17.2116L9.16843 16.7841L9.74306 13.1974L9.48606 12.8934L9.48908 12.8911L9.45899 12.8614L9.35941 12.7437L9.34823 12.7523L9.03577 12.4443ZM4.89294 13.6388L4.37431 16.6205H7.97755L8.40172 13.6388H4.89294Z" fill="white"/>
<path fill-rule="evenodd" clip-rule="evenodd" d="M12.8229 13.5182L12.1177 12.6494L11.7056 12.9744L11.0833 16.6542L11.5436 17.1823L11.0155 17.5466L10.3945 21.2662L10.717 21.743L10.7454 21.7208L11.0453 22.0755H15.4494L16.0146 21.7274L15.3339 20.8356L11.7009 20.8292L12.1769 17.7317L11.7518 17.208L12.2463 16.8331L12.8229 13.5182Z" fill="white"/>
<path fill-rule="evenodd" clip-rule="evenodd" d="M24.4645 12.4443H20.027L19.501 12.7407L20.1779 13.6388H23.8306L23.4064 16.6205H19.7394L18.9925 17.1724L19.026 17.2081L18.5353 17.5465L17.9143 21.266L18.2368 21.743L18.2652 21.7208L18.5651 22.0754H22.9692L23.5344 21.7272L22.8537 20.8356L19.2206 20.829L19.6779 17.8539H23.3883L24.0791 17.2246L24.067 17.2116L24.5972 16.7841L25.1719 13.1974L24.9148 12.8934L24.9179 12.8911L24.8878 12.8614L24.7883 12.7437L24.7771 12.7523L24.4645 12.4443Z" fill="white"/>
<path fill-rule="evenodd" clip-rule="evenodd" d="M29.5147 13.1978L29.131 12.7441L28.1986 13.4615L27.7309 16.7491L28.1526 17.2167L27.6208 17.6877L27.0516 20.9518L27.7342 21.7639L28.2004 21.4796L28.8249 17.7728L28.354 17.2571L28.9399 16.7845L29.5147 13.1978Z" fill="white"/>
<defs>
<linearGradient id="paint0_linear_855_8591" x1="-0.15311" y1="16.7113" x2="31.8469" y2="16.7113" gradientUnits="userSpaceOnUse">
<stop stop-color="#005BA1"/>
<stop offset="0.07" stop-color="#0060A9"/>
<stop offset="0.36" stop-color="#0071C8"/>
<stop offset="0.52" stop-color="#0078D4"/>
<stop offset="0.64" stop-color="#0074CD"/>
<stop offset="0.82" stop-color="#006ABB"/>
<stop offset="1" stop-color="#005BA1"/>
</linearGradient>
<linearGradient id="paint1_linear_855_8591" x1="-0.153134" y1="16.7111" x2="31.8469" y2="16.7111" gradientUnits="userSpaceOnUse">
<stop stop-color="#005BA1"/>
<stop offset="0.07" stop-color="#0060A9"/>
<stop offset="0.36" stop-color="#0071C8"/>
<stop offset="0.52" stop-color="#0078D4"/>
<stop offset="0.64" stop-color="#0074CD"/>
<stop offset="0.82" stop-color="#006ABB"/>
<stop offset="1" stop-color="#005BA1"/>
</linearGradient>
</defs>
</svg>
