<svg width="32" height="32" viewBox="0 0 32 32" fill="none" xmlns="http://www.w3.org/2000/svg">
<path d="M22.6706 12.8001L24.619 12.6557C25.0649 12.6226 25.4548 12.921 25.4901 13.3223C25.5257 13.7236 25.1932 14.0755 24.7474 14.1086L22.4661 14.2776C22.2516 14.2938 22.035 14.2296 21.8752 14.1073L19.4108 12.2216C19.1888 12.0516 19.0873 11.7216 19.15 11.4926L19.899 8.76326L17.8155 7.16896C17.4749 6.90838 17.4343 6.44885 17.7246 6.14152C18.0149 5.83419 18.5255 5.79635 18.866 6.05693L20.9495 7.65123L23.822 6.54706C24.058 6.45666 24.4245 6.47851 24.6635 6.66142L27.1278 8.54714C27.2876 8.66942 27.3929 8.8515 27.4098 9.04462L27.5913 11.0982C27.6267 11.4995 27.2942 11.8514 26.8485 11.8844C26.4027 11.9175 26.0128 11.6192 25.9772 11.2178L25.8222 9.46397L23.9938 8.06486L21.4939 9.02577L20.8423 11.401L22.6706 12.8001Z" fill="url(#paint0_linear_855_8571)"/>
<path d="M20.6059 19.7324L20.5869 19.7151C19.7294 19.0273 16.7192 16.9297 15.5571 16.9297L10.9083 20.3513L12.7183 22.6382C12.6992 22.7414 12.6992 22.8446 12.6992 22.9478V26.5014C12.6992 26.9826 13.1183 27.361 13.6518 27.361H21.2727C21.8062 27.361 22.2254 26.9826 22.2254 26.5014V22.9478C22.2252 21.6924 21.6347 20.5233 20.6059 19.7324Z" fill="url(#paint1_linear_855_8571)"/>
<path d="M18.1689 8.2456L12.8164 13.3571C12.6647 13.5028 12.4662 13.5909 12.258 13.6175C12.0351 13.6459 11.8009 13.6029 11.602 13.485L8.75804 11.7993C7.98778 11.3473 6.96106 11.4623 6.31661 12.0712C5.95501 12.4116 5.35407 12.4264 4.9721 12.1012C4.59181 11.7749 4.57404 11.2328 4.93304 10.8876C5.10099 10.7266 13.4594 2.71283 13.2915 2.87384L13.293 2.87197C13.6582 2.53022 14.2568 2.51233 14.639 2.83918C15.618 3.67267 13.9928 4.23577 14.1873 5.46963C14.3352 6.40811 15.3011 7.06411 16.3419 6.93123L17.3422 6.80353C17.7438 6.75227 18.1353 6.93545 18.3218 7.26021C18.5083 7.58494 18.4466 7.98033 18.1689 8.2456Z" fill="url(#paint2_linear_855_8571)"/>
<path d="M23.1758 25.6416H11.7445C9.11739 25.6416 6.98145 27.5701 6.98145 29.9403C6.98145 30.4155 7.40753 30.8 7.93407 30.8H26.9863C27.5129 30.8 27.9389 30.4155 27.9389 29.9403C27.9389 27.5701 25.803 25.6416 23.1758 25.6416Z" fill="url(#paint3_linear_855_8571)"/>
<path d="M20.7699 20.1647C19.9077 19.4716 18.803 19.0908 17.6418 19.0908C15.2783 19.0908 13.0727 20.71 12.8469 23.2002L4.50854 16.4516C2.64813 14.8596 2.84179 12.3183 4.64335 11.0137C6.10687 9.95081 8.18669 9.98629 9.59238 11.1022L20.7699 20.1647C20.7801 20.1728 20.79 20.1808 20.8 20.189L20.7699 20.1647Z" fill="url(#paint4_linear_855_8571)"/>
<path d="M16.3669 9.46586L14.0675 7.62813C12.3774 6.27735 12.2261 3.93692 13.7318 2.41092C15.2211 0.901524 17.808 0.719777 19.5278 2.09431L21.827 3.93205C22.2507 4.27065 22.2884 4.85401 21.9111 5.23634L17.8158 9.38671C17.4386 9.76905 16.7905 9.80445 16.3669 9.46586Z" fill="url(#paint5_linear_855_8571)"/>
<defs>
<linearGradient id="paint0_linear_855_8571" x1="17.1018" y1="5.66493" x2="25.4811" y2="13.5808" gradientUnits="userSpaceOnUse">
<stop stop-color="#005BA1"/>
<stop offset="0.07" stop-color="#0060A9"/>
<stop offset="0.36" stop-color="#0071C8"/>
<stop offset="0.52" stop-color="#0078D4"/>
<stop offset="0.64" stop-color="#0074CD"/>
<stop offset="0.82" stop-color="#006ABB"/>
<stop offset="1" stop-color="#005BA1"/>
</linearGradient>
<linearGradient id="paint1_linear_855_8571" x1="10.8542" y1="22.1454" x2="22.1712" y2="22.1454" gradientUnits="userSpaceOnUse">
<stop stop-color="#005BA1"/>
<stop offset="0.07" stop-color="#0060A9"/>
<stop offset="0.36" stop-color="#0071C8"/>
<stop offset="0.52" stop-color="#0078D4"/>
<stop offset="0.64" stop-color="#0074CD"/>
<stop offset="0.82" stop-color="#006ABB"/>
<stop offset="1" stop-color="#005BA1"/>
</linearGradient>
<linearGradient id="paint2_linear_855_8571" x1="4.23981" y1="9.24069" x2="19.1488" y2="6.89087" gradientUnits="userSpaceOnUse">
<stop stop-color="#005BA1"/>
<stop offset="0.07" stop-color="#0060A9"/>
<stop offset="0.36" stop-color="#0071C8"/>
<stop offset="0.52" stop-color="#0078D4"/>
<stop offset="0.64" stop-color="#0074CD"/>
<stop offset="0.82" stop-color="#006ABB"/>
<stop offset="1" stop-color="#005BA1"/>
</linearGradient>
<linearGradient id="paint3_linear_855_8571" x1="17.4725" y1="32.3219" x2="17.4725" y2="24.4686" gradientUnits="userSpaceOnUse">
<stop stop-color="#0078D4"/>
<stop offset="0.16" stop-color="#1380DA"/>
<stop offset="0.53" stop-color="#3C91E5"/>
<stop offset="0.82" stop-color="#559CEC"/>
<stop offset="1" stop-color="#5EA0EF"/>
</linearGradient>
<linearGradient id="paint4_linear_855_8571" x1="12.0103" y1="27.0237" x2="12.0103" y2="7.29321" gradientUnits="userSpaceOnUse">
<stop stop-color="#0078D4"/>
<stop offset="0.16" stop-color="#1380DA"/>
<stop offset="0.53" stop-color="#3C91E5"/>
<stop offset="0.82" stop-color="#559CEC"/>
<stop offset="1" stop-color="#5EA0EF"/>
</linearGradient>
<linearGradient id="paint5_linear_855_8571" x1="12.4602" y1="9.26364" x2="19.8092" y2="0.0685404" gradientUnits="userSpaceOnUse">
<stop stop-color="#0078D4"/>
<stop offset="0.16" stop-color="#1380DA"/>
<stop offset="0.53" stop-color="#3C91E5"/>
<stop offset="0.82" stop-color="#559CEC"/>
<stop offset="1" stop-color="#5EA0EF"/>
</linearGradient>
</defs>
</svg>
