<svg width="32" height="32" viewBox="0 0 32 32" fill="none" xmlns="http://www.w3.org/2000/svg">
<path d="M0.0366041 9.87963C0.204935 10.194 0.533388 10.4494 0.954068 10.5931L16.4295 16.6613C17.0207 16.893 17.6784 17.0213 18.35 17.036C19.0219 17.0506 19.6891 16.9511 20.2983 16.7455L31.1863 12.06C31.3582 11.9997 31.5077 11.9103 31.6222 11.7994C31.7367 11.6885 31.8128 11.5594 31.8441 11.4227C31.8523 11.3748 31.8523 11.3264 31.8441 11.2785C31.7867 11.0942 31.6702 10.9223 31.504 10.7767C31.338 10.6312 31.1268 10.5161 30.8878 10.4408L15.4401 4.37655C14.8491 4.1445 14.1913 4.01602 13.5195 4.0014C12.8477 3.98679 12.1805 4.08643 11.5713 4.29237L0.650092 8.96979C0.413333 9.04194 0.220679 9.1739 0.107866 9.34121C-0.00494628 9.50851 -0.0302628 9.69982 0.0366041 9.87963Z" fill="url(#paint0_linear_855_8560)"/>
<path d="M21.4208 26.9262L21.3876 26.9663L20.4923 27.3471L20.4535 27.367C19.8444 27.5731 19.1772 27.6726 18.5054 27.6581C17.8336 27.6435 17.1758 27.515 16.5847 27.283L1.10931 21.2188C0.352124 20.9102 0.0315549 20.4894 0.186309 20.1205L0.0205078 9.87988C0.188839 10.1942 0.517293 10.4496 0.937972 10.5933L16.4134 16.6616C17.0046 16.8933 17.6623 17.0216 18.334 17.0362C19.0057 17.0508 19.6729 16.9513 20.2821 16.7457L20.3264 16.7257L31.1703 12.0563C31.3415 11.9957 31.49 11.9062 31.6036 11.7953C31.717 11.6844 31.7922 11.5553 31.8224 11.419L31.9938 21.9002C32.002 21.948 32.002 21.9966 31.9938 22.0444C31.9607 22.1806 31.8839 22.3093 31.7698 22.4198C31.6555 22.5306 31.5068 22.6204 31.336 22.6817L30.9381 22.8501L21.4208 26.9262Z" fill="#003067"/>
<path fill-rule="evenodd" clip-rule="evenodd" d="M7.67483 15.5329L2.55859 13.3877V14.2133L7.67483 16.3585V15.5329ZM7.67483 17.6358L2.58105 15.5V16.3257L7.67483 18.4614V17.6358ZM8.52752 18.8189V17.9933L14.7403 20.5983V21.4239L8.52752 18.8189ZM7.67483 19.7519L2.58105 17.6162V18.4419L7.67483 20.5777V19.7519ZM8.52752 20.9352V20.1094L14.7403 22.7144V23.5402L8.52752 20.9352ZM8.52752 16.7161V15.8904L14.7178 18.486V19.3116L8.52752 16.7161Z" fill="#32B0E7"/>
<path d="M27.7598 17.0743C27.3509 16.902 27.3509 16.3449 27.7598 15.8278C28.1689 15.3108 28.8652 15.0262 29.2521 15.2146C29.6391 15.403 29.6556 15.9441 29.2521 16.4571C28.8487 16.9701 28.1524 17.2467 27.7598 17.0743Z" fill="#50E6FF"/>
<defs>
<linearGradient id="paint0_linear_855_8560" x1="15.925" y1="4.00007" x2="15.925" y2="17.0373" gradientUnits="userSpaceOnUse">
<stop stop-color="#5EA0EF"/>
<stop offset="0.18" stop-color="#559CEC"/>
<stop offset="0.47" stop-color="#3C91E5"/>
<stop offset="0.84" stop-color="#1380DA"/>
<stop offset="1" stop-color="#0078D4"/>
</linearGradient>
</defs>
</svg>
