<svg width="32" height="32" viewBox="0 0 32 32" fill="none" xmlns="http://www.w3.org/2000/svg">
<path d="M26.6222 16.0373C26.6222 16.1297 26.6222 16.215 26.6222 16.3128C26.5513 19.0829 25.4011 21.7157 23.4167 23.6499C21.4324 25.5841 18.771 26.6666 16 26.6666H15.888L14.3645 24.0799C14.2277 23.8435 14.0309 23.6474 13.7939 23.5116C13.557 23.3758 13.2883 23.305 13.0151 23.3066C12.7011 23.3053 12.394 23.3986 12.1336 23.5742C11.8733 23.7499 11.6719 23.9998 11.5556 24.2915L11.0898 25.4595C10.912 25.3653 10.7342 25.2639 10.5565 25.1626L10.3982 25.0666C10.3254 25.0257 10.256 24.9795 10.1849 24.9315L9.98047 24.7928C9.93247 24.759 9.88447 24.7253 9.83824 24.6897C9.79202 24.6541 9.74225 24.6222 9.69602 24.5866C9.6498 24.551 9.64091 24.5457 9.61069 24.5226L9.37247 24.3448C9.29069 24.279 9.20891 24.2115 9.13247 24.1439C9.05602 24.0764 8.99558 24.0266 8.92802 23.9662C8.91099 23.9546 8.89746 23.9386 8.88891 23.9199C8.7538 23.8026 8.62224 23.6764 8.49247 23.5466L8.2898 23.3404C8.27904 23.3323 8.26946 23.3227 8.26136 23.3119C8.13869 23.1804 8.01602 23.0453 7.9058 22.9048C7.8418 22.8319 7.78136 22.7573 7.72802 22.6826C7.67469 22.6079 7.60536 22.5297 7.55025 22.4515C7.49513 22.3733 7.43291 22.2968 7.37247 22.2204C7.31202 22.1439 7.25869 22.0604 7.19469 21.9768C7.13069 21.8933 7.08802 21.815 7.03469 21.7315C7.00236 21.6852 6.97268 21.6371 6.9458 21.5875C6.91025 21.5342 6.88002 21.4826 6.84802 21.4275C6.7858 21.3226 6.72358 21.2142 6.67025 21.1039C6.62402 21.0293 6.58491 20.9528 6.54402 20.8746C6.46758 20.727 6.39469 20.5777 6.32713 20.4213C6.2898 20.3395 6.25247 20.2577 6.21691 20.1724C6.18136 20.087 6.13869 19.9946 6.10491 19.9004C6.07113 19.8062 6.0338 19.7226 6.00536 19.6301C5.97691 19.5377 5.95025 19.4879 5.92713 19.4115C5.90402 19.335 5.8898 19.3013 5.87202 19.2444C5.85424 19.1875 5.83113 19.1164 5.81513 19.0542C5.78491 18.9564 5.75647 18.8622 5.73158 18.7644C5.70669 18.6666 5.6818 18.5724 5.65869 18.4746C5.63558 18.3768 5.61425 18.2773 5.59469 18.1795C5.49342 17.6858 5.42748 17.1856 5.39736 16.6826C5.39736 16.5973 5.38669 16.5048 5.38491 16.4213C5.38491 16.295 5.38491 16.167 5.38491 16.0373C5.38267 15.4772 5.42487 14.9178 5.51113 14.3644C5.53069 14.2328 5.55558 14.0977 5.58047 13.9626C5.60536 13.8275 5.62669 13.7475 5.65158 13.639C5.66066 13.5885 5.67314 13.5386 5.68891 13.4897C5.7138 13.3795 5.74047 13.2693 5.77424 13.159V13.1288C5.80624 13.015 5.8418 12.8995 5.87913 12.7839V12.7626C6.57098 10.6304 7.91933 8.7715 9.73138 7.45181C11.5434 6.13213 13.7264 5.41923 15.968 5.41504L17.4454 7.92171C17.5944 8.17468 17.8113 8.38079 18.0716 8.51664C18.3319 8.65249 18.625 8.71263 18.9177 8.69023C19.2105 8.66782 19.4911 8.56377 19.7276 8.3899C19.9642 8.21603 20.1473 7.97929 20.256 7.70659L20.7271 6.52437C20.8694 6.59371 21.0134 6.67015 21.1502 6.74659C21.2871 6.82304 21.3974 6.88704 21.52 6.96526L21.6036 7.01148C21.6925 7.07015 21.7814 7.12704 21.872 7.18926C22.0302 7.29237 22.1849 7.39904 22.336 7.51282C22.5351 7.65682 22.7307 7.81504 22.9174 7.98037C23.0098 8.06037 23.0951 8.14215 23.1929 8.22748C25.0169 9.89565 26.1957 12.1525 26.5227 14.6026C26.5405 14.7217 26.5547 14.8444 26.5671 14.967C26.5885 15.1804 26.6045 15.3937 26.6134 15.6088C26.6134 15.6995 26.6134 15.7866 26.6134 15.8826C26.6222 15.9342 26.6222 15.9839 26.6222 16.0373Z" fill="url(#paint0_linear_855_8523)"/>
<g opacity="0.8">
<path opacity="0.6" d="M21.2694 20.9883L17.961 15.1963L17.6321 15.3847L17.9005 15.1856L14.1548 9.85938L13.4685 10.3554L16.7876 15.0754L9.43475 15.6816L9.50409 16.5367L16.7876 15.9305L14.3734 19.9447L15.0988 20.382L17.5823 16.2487L20.5352 21.406L21.2694 20.9883Z" fill="white"/>
<path d="M20.9334 19.767H20.9227C20.8111 19.7657 20.6996 19.7765 20.5903 19.799C20.2523 19.8704 19.9486 20.0547 19.7292 20.3215C19.5099 20.5884 19.3878 20.922 19.3832 21.2674V21.2976C19.3814 21.6021 19.47 21.9002 19.6376 22.1543C19.8052 22.4084 20.0444 22.6071 20.3249 22.7253C20.6055 22.8435 20.9148 22.8758 21.2137 22.8183C21.5126 22.7608 21.7878 22.6159 22.0044 22.402C22.221 22.1881 22.3694 21.9148 22.4307 21.6167C22.492 21.3185 22.4636 21.0088 22.349 20.7268C22.2343 20.4448 22.0387 20.2031 21.7867 20.0322C21.5348 19.8614 21.2378 19.7691 20.9334 19.767ZM15.7547 19.287C15.5475 19.0829 15.2776 18.9545 14.9885 18.9225C14.9397 18.9145 14.8904 18.9109 14.8409 18.9119H14.8303C14.4798 18.91 14.1428 19.0469 13.8929 19.2928C13.6431 19.5386 13.5007 19.8734 13.497 20.2239V20.2345C13.4948 20.4554 13.5475 20.6734 13.6504 20.8689C13.7533 21.0644 13.9032 21.2312 14.0866 21.3544C14.2699 21.4776 14.481 21.5534 14.7009 21.5748C14.9208 21.5962 15.1425 21.5627 15.3462 21.4772C15.5499 21.3917 15.7292 21.2569 15.8679 21.085C16.0066 20.9131 16.1004 20.7094 16.1409 20.4922C16.1815 20.2751 16.1674 20.0512 16.1 19.8409C16.0325 19.6305 15.9139 19.4402 15.7547 19.287ZM10.6383 15.5821C10.4862 15.2981 10.2357 15.0795 9.9337 14.9674C9.63174 14.8553 9.29922 14.8573 8.99868 14.9732C8.69814 15.0891 8.45029 15.3108 8.30177 15.5966C8.15324 15.8824 8.11427 16.2126 8.19218 16.5252C8.27009 16.8377 8.45952 17.111 8.72484 17.2936C8.99015 17.4763 9.31305 17.5557 9.63282 17.5169C9.95258 17.4782 10.2472 17.3239 10.4611 17.0831C10.6751 16.8424 10.7938 16.5317 10.7947 16.2096C10.7955 15.9907 10.7417 15.7751 10.6383 15.5821ZM13.9254 8.5332H13.8774C13.4398 8.53721 13.0218 8.71487 12.7153 9.0271C12.4087 9.33932 12.2387 9.76054 12.2427 10.1981C12.2467 10.6356 12.4244 11.0537 12.7366 11.3602C13.0488 11.6668 13.4701 11.8368 13.9076 11.8328C14.0889 11.8324 14.269 11.803 14.441 11.7456C14.7644 11.6338 15.0454 11.4245 15.2453 11.1467C15.4452 10.8688 15.5542 10.5359 15.5574 10.1936C15.5607 9.75718 15.3907 9.33722 15.0848 9.02592C14.7788 8.71463 14.3619 8.53743 13.9254 8.5332ZM17.6321 13.5376C17.365 13.5352 17.1002 13.5866 16.8534 13.6888C16.5511 13.8188 16.2856 14.0216 16.0806 14.279C15.8756 14.5364 15.7374 14.8406 15.6783 15.1643C15.6583 15.2639 15.647 15.365 15.6445 15.4665V15.5145C15.6473 16.0289 15.8471 16.5226 16.2027 16.8941C16.4023 17.1019 16.645 17.2634 16.9138 17.367C17.1444 17.4576 17.3897 17.5046 17.6374 17.5056C17.8474 17.5051 18.0561 17.4721 18.2561 17.4079C18.7061 17.2612 19.0891 16.9588 19.336 16.5549C19.583 16.1511 19.6777 15.6724 19.6031 15.2049C19.5285 14.7375 19.2895 14.312 18.9292 14.005C18.5688 13.6981 18.1108 13.5298 17.6374 13.5305L17.6321 13.5376Z" fill="white"/>
</g>
<path d="M29.3334 20.4321C29.2987 20.5392 29.2425 20.638 29.1682 20.7225C29.0938 20.807 29.003 20.8754 28.9012 20.9234C28.7994 20.9714 28.6888 20.998 28.5763 21.0015C28.4638 21.0051 28.3518 20.9856 28.2472 20.9441L27.2889 20.5601C27.0958 20.4814 26.9399 20.3321 26.853 20.1425C26.7662 19.9529 26.7548 19.7373 26.8214 19.5397C27.7009 16.8125 27.5204 13.854 26.3157 11.2541C25.1111 8.65407 22.971 6.60354 20.3218 5.51123L20.0445 6.20634L19.5556 7.42945C19.4985 7.57152 19.4028 7.69475 19.2792 7.78518C19.1557 7.87561 19.0093 7.92962 18.8566 7.94109C18.7039 7.95257 18.5511 7.92104 18.4154 7.8501C18.2797 7.77915 18.1666 7.67161 18.0889 7.53968L16.8569 5.44723L15.2694 2.7539C15.206 2.64589 15.1681 2.52479 15.1588 2.39989C15.1495 2.27498 15.1689 2.14961 15.2156 2.03339C15.2623 1.91717 15.335 1.8132 15.4282 1.72946C15.5213 1.64573 15.6324 1.58445 15.7529 1.55034L21.0969 0.0321214C21.2446 -0.00973393 21.401 -0.00939612 21.5484 0.0330966C21.6959 0.0755892 21.8285 0.158537 21.9312 0.272539C22.0339 0.38654 22.1026 0.527035 22.1295 0.678098C22.1565 0.829162 22.1406 0.984752 22.0836 1.12723L21.3156 3.0419C24.6017 4.39153 27.2551 6.93502 28.7425 10.1611C30.2299 13.3872 30.441 17.0567 29.3334 20.4321Z" fill="#0078D4"/>
<path d="M16.0569 30.4516L10.7129 31.9662C10.5656 32.0087 10.4094 32.0089 10.262 31.9668C10.1146 31.9247 9.98202 31.842 9.87934 31.7282C9.77666 31.6144 9.70803 31.4741 9.68128 31.3232C9.65452 31.1722 9.67072 31.0168 9.72803 30.8747L10.4978 28.9529C7.26385 27.5705 4.66557 25.0261 3.2158 21.8218C1.76603 18.6175 1.57011 14.9861 2.6667 11.6444C2.70155 11.5375 2.75791 11.4388 2.83229 11.3545C2.90668 11.2701 2.99754 11.2019 3.09927 11.1539C3.201 11.106 3.31147 11.0793 3.42387 11.0756C3.53628 11.0719 3.64826 11.0913 3.75292 11.1324L4.69336 11.5093C4.88845 11.5864 5.04713 11.7345 5.1375 11.9238C5.22786 12.1131 5.24322 12.3296 5.18047 12.5298C4.30905 15.2243 4.4723 18.1468 5.63841 20.7275C6.80453 23.3082 8.88991 25.3621 11.488 26.4889L11.7671 25.7938L12.2525 24.5813C12.3092 24.4387 12.4048 24.3149 12.5284 24.2239C12.652 24.133 12.7987 24.0786 12.9517 24.0669C13.1048 24.0552 13.258 24.0868 13.394 24.1579C13.53 24.2291 13.6432 24.337 13.7209 24.4693L14.9903 26.624L16.5405 29.2551C16.6025 29.3629 16.6392 29.4833 16.6478 29.6074C16.6564 29.7314 16.6366 29.8558 16.59 29.9711C16.5434 30.0864 16.4712 30.1895 16.3789 30.2728C16.2865 30.356 16.1764 30.4172 16.0569 30.4516Z" fill="#0078D4"/>
<defs>
<linearGradient id="paint0_linear_855_8523" x1="15.9982" y1="12.1013" x2="15.9982" y2="23.4524" gradientUnits="userSpaceOnUse">
<stop stop-color="#50E6FF"/>
<stop offset="0.949" stop-color="#32BEDD"/>
</linearGradient>
</defs>
</svg>
