<svg width="32" height="32" viewBox="0 0 32 32" fill="none" xmlns="http://www.w3.org/2000/svg">
<g clip-path="url(#clip0_855_8528)">
<path d="M11.0542 19.3401C10.6863 19.0877 10.3823 18.7531 10.1663 18.3627C9.95029 17.9723 9.82822 17.537 9.80979 17.0912V15.7988C9.78509 15.6526 9.77437 15.5043 9.77779 15.3561C9.77779 13.7081 11.3422 12.5277 13.5253 11.8379C13.456 11.8379 13.3938 11.8379 13.3245 11.8379C9.02223 11.8379 5.53601 13.2708 5.53601 15.0379C5.53635 15.1499 5.55007 15.2615 5.5769 15.3703V16.773C5.5769 18.1366 7.71912 19.2957 10.6365 19.7543C10.7648 19.6057 10.9045 19.4672 11.0542 19.3401Z" fill="#0078D4"/>
<path d="M18.464 11.1178C20.0978 10.5311 21.1484 9.67953 21.1484 8.71953C21.1484 6.95242 17.6622 5.51953 13.36 5.51953C9.05776 5.51953 5.56976 6.95064 5.56976 8.71953C5.56976 10.4884 9.01332 11.8964 13.2764 11.9106C14.954 11.3788 16.7041 11.1113 18.464 11.1178Z" fill="url(#paint0_linear_855_8528)"/>
<path d="M13.5573 9.38519C14.9859 9.38519 16.144 9.0692 16.144 8.67941C16.144 8.28962 14.9859 7.97363 13.5573 7.97363C12.1287 7.97363 10.9706 8.28962 10.9706 8.67941C10.9706 9.0692 12.1287 9.38519 13.5573 9.38519Z" fill="#005BA1"/>
<path d="M18.608 11.1165C19.3748 11.121 20.1406 11.1715 20.9013 11.2676C21.0435 11.0514 21.1274 10.8022 21.1449 10.5441V8.6543C21.1449 9.65696 20.0444 10.5352 18.2827 11.1219C18.3911 11.1201 18.4995 11.1165 18.608 11.1165Z" fill="#5EA0EF"/>
<path d="M13.5111 11.8416H13.4026C9.06131 11.8416 5.58042 10.4087 5.6142 8.6416V10.4549C5.6142 11.8132 7.73686 12.9669 10.6346 13.4309C11.454 12.6807 12.4399 12.136 13.5111 11.8416Z" fill="#5EA0EF"/>
<path d="M26.3609 21.6658C26.3609 19.8987 22.8729 18.4658 18.5707 18.4658C14.2684 18.4658 10.7822 19.8987 10.7822 21.6658C10.7826 21.7773 10.7963 21.8883 10.8231 21.9965V23.3992C10.8231 25.1645 14.3964 26.5992 18.6133 26.5992C22.8302 26.5992 26.2578 25.1965 26.4018 23.4827L26.3609 22.1529V21.6658Z" fill="#0078D4"/>
<path d="M18.768 22.3285C20.1966 22.3285 21.3547 22.0126 21.3547 21.6228C21.3547 21.233 20.1966 20.917 18.768 20.917C17.3394 20.917 16.1813 21.233 16.1813 21.6228C16.1813 22.0126 17.3394 22.3285 18.768 22.3285Z" fill="#005BA1"/>
<path d="M18.608 18.5546C22.9104 18.5546 26.3982 17.1228 26.3982 15.3564C26.3982 13.5901 22.9104 12.1582 18.608 12.1582C14.3056 12.1582 10.8177 13.5901 10.8177 15.3564C10.8177 17.1228 14.3056 18.5546 18.608 18.5546Z" fill="url(#paint1_linear_855_8528)"/>
<path d="M18.8054 16.0209C20.2339 16.0209 21.392 15.7049 21.392 15.3152C21.392 14.9254 20.2339 14.6094 18.8054 14.6094C17.3768 14.6094 16.2187 14.9254 16.2187 15.3152C16.2187 15.7049 17.3768 16.0209 18.8054 16.0209Z" fill="#005BA1"/>
<path d="M18.6044 18.5438C22.9156 18.5438 26.3947 17.1109 26.3947 15.3438V17.2442C26.2489 18.958 22.8213 20.3606 18.6044 20.3606C14.3876 20.3606 10.816 18.926 10.816 17.1606V15.3455C10.7733 17.1109 14.2631 18.5438 18.6044 18.5438Z" fill="#5EA0EF"/>
<path d="M9.83927e-09 27.7104C3.30575e-05 27.7643 0.014159 27.8173 0.0409772 27.8641C0.0677954 27.9108 0.106374 27.9498 0.152889 27.9771L2.32356 29.2357L6.01244 31.3691C6.04661 31.3892 6.08441 31.4023 6.12368 31.4077C6.16295 31.4132 6.20291 31.4108 6.24124 31.4007C6.27958 31.3906 6.31555 31.3731 6.34707 31.349C6.37859 31.325 6.40503 31.2949 6.42489 31.2606L7.66933 29.1006C7.70905 29.0299 7.71956 28.9464 7.69864 28.8681C7.67772 28.7897 7.62701 28.7226 7.55733 28.6811L3.24089 26.1922C3.19402 26.1658 3.15511 26.1272 3.12822 26.0806C3.10132 26.034 3.08743 25.9811 3.088 25.9273V6.08373C3.08743 6.02993 3.10132 5.97697 3.12822 5.93038C3.15511 5.88378 3.19402 5.84526 3.24089 5.81884L7.55733 3.31395C7.62654 3.27244 7.67691 3.20566 7.69781 3.12771C7.71871 3.04976 7.7085 2.96674 7.66933 2.89617L6.42844 0.736174C6.38852 0.666259 6.32263 0.614912 6.24508 0.593278C6.16753 0.571644 6.08457 0.581468 6.01422 0.620619L2.39822 2.72017L0.152889 4.02329C0.106393 4.05013 0.0677854 4.08874 0.0409471 4.13524C0.0141088 4.18174 -1.36081e-05 4.23449 9.83927e-09 4.28817V27.7104Z" fill="#949494"/>
<path d="M7.66933 2.89578L6.42844 0.735783C6.39795 0.682606 6.35209 0.63989 6.29689 0.61324C6.24169 0.58659 6.17972 0.577252 6.11911 0.58645C6.06566 0.584363 6.0127 0.597297 5.96622 0.623783L2.35378 2.71978L0.108444 4.02289C0.0640272 4.04893 0.0267653 4.08558 0 4.12956L0.0355556 4.15089C0.0132307 4.19314 0.00105695 4.24001 0 4.28778L3.09156 6.08334C3.09061 6.02947 3.10433 5.97636 3.13127 5.92969C3.1582 5.88303 3.19732 5.84457 3.24444 5.81845L7.55733 3.31356C7.62654 3.27205 7.67691 3.20527 7.69781 3.12732C7.71871 3.04937 7.7085 2.96635 7.66933 2.89578Z" fill="#A3A3A3"/>
<path d="M7.66933 29.1055L6.42489 31.2655C6.39421 31.3185 6.34833 31.3611 6.29317 31.3877C6.23802 31.4144 6.17614 31.4238 6.11556 31.4149C6.06211 31.4169 6.00914 31.404 5.96267 31.3775L2.35022 29.2797L0.108444 27.9784C0.0639511 27.9517 0.0267093 27.9145 0 27.87L0.0355556 27.8504C0.0124338 27.8078 0.000218218 27.7602 0 27.7117L3.09156 25.918C3.09099 25.9718 3.10488 26.0247 3.13177 26.0713C3.15867 26.1179 3.19758 26.1564 3.24444 26.1829L7.55733 28.686C7.62701 28.7275 7.67772 28.7946 7.69864 28.873C7.71956 28.9513 7.70905 29.0348 7.66933 29.1055Z" fill="#A3A3A3"/>
<path d="M32 4.28933C32 4.23541 31.9859 4.18244 31.959 4.13566C31.9322 4.08889 31.8936 4.04993 31.8471 4.02266L29.6765 2.764L25.984 0.623553C25.9499 0.603444 25.912 0.590296 25.8728 0.584864C25.8335 0.579433 25.7936 0.581827 25.7552 0.591907C25.7169 0.601988 25.6809 0.619556 25.6494 0.643599C25.6179 0.667643 25.5914 0.697686 25.5716 0.731997L24.3271 2.892C24.2874 2.96273 24.2769 3.04617 24.2978 3.12455C24.3187 3.20292 24.3694 3.27002 24.4391 3.31155L28.752 5.81466C28.7989 5.84108 28.8378 5.8796 28.8647 5.9262C28.8916 5.97279 28.9055 6.02576 28.9049 6.07955V25.916C28.9055 25.9698 28.8916 26.0228 28.8647 26.0694C28.8378 26.1159 28.7989 26.1545 28.752 26.1809L24.4391 28.6858C24.3699 28.7273 24.3195 28.7941 24.2986 28.872C24.2778 28.95 24.288 29.033 24.3271 29.1036L25.5716 31.2636C25.6115 31.3335 25.6774 31.3848 25.7549 31.4065C25.8325 31.4281 25.9154 31.4183 25.9858 31.3791L29.6 29.2813L31.8453 27.9782C31.8924 27.9515 31.9316 27.9127 31.9587 27.8658C31.9859 27.8189 32.0002 27.7657 32 27.7116V4.28933Z" fill="#949494"/>
<path d="M24.3271 29.1036L25.5715 31.2636C25.602 31.3167 25.6479 31.3595 25.7031 31.3861C25.7583 31.4128 25.8203 31.4221 25.8809 31.4129C25.9343 31.415 25.9873 31.4021 26.0338 31.3756L29.6462 29.2796L31.8915 27.9765C31.936 27.9504 31.9732 27.9138 32 27.8698L31.9644 27.8485C31.9868 27.8062 31.9989 27.7593 32 27.7116L28.9084 25.916C28.9094 25.9699 28.8957 26.023 28.8687 26.0697C28.8418 26.1163 28.8027 26.1548 28.7555 26.1809L24.4427 28.6858C24.3725 28.7264 24.3211 28.7929 24.2995 28.8711C24.2779 28.9492 24.2878 29.0327 24.3271 29.1036Z" fill="#A3A3A3"/>
<path d="M24.3271 2.89465L25.5716 0.734647C25.6022 0.68164 25.6481 0.639066 25.7033 0.612441C25.7584 0.585815 25.8203 0.576365 25.8809 0.585313C25.9344 0.583227 25.9873 0.59616 26.0338 0.622647L29.6462 2.72042L31.8916 4.02176C31.9363 4.04811 31.9737 4.08543 32 4.1302L31.9645 4.14976C31.9876 4.19233 31.9998 4.23998 32 4.28842L28.9049 6.0822C28.9055 6.02841 28.8916 5.97544 28.8647 5.92885C28.8378 5.88225 28.7989 5.84373 28.752 5.81731L24.4391 3.3142C24.3694 3.27267 24.3187 3.20557 24.2978 3.1272C24.2769 3.04882 24.2874 2.96538 24.3271 2.89465Z" fill="#A3A3A3"/>
</g>
<defs>
<linearGradient id="paint0_linear_855_8528" x1="9.5431" y1="4.61998" x2="17.2107" y2="12.8564" gradientUnits="userSpaceOnUse">
<stop stop-color="#5EA0EF"/>
<stop offset="0.2" stop-color="#83B9F9"/>
<stop offset="0.5" stop-color="#83B9F9"/>
<stop offset="0.75" stop-color="#83B9F9"/>
<stop offset="0.9" stop-color="#6FACF4"/>
<stop offset="1" stop-color="#5EA0EF"/>
</linearGradient>
<linearGradient id="paint1_linear_855_8528" x1="14.7911" y1="11.2569" x2="22.4657" y2="19.5004" gradientUnits="userSpaceOnUse">
<stop stop-color="#5EA0EF"/>
<stop offset="0.2" stop-color="#83B9F9"/>
<stop offset="0.5" stop-color="#83B9F9"/>
<stop offset="0.75" stop-color="#83B9F9"/>
<stop offset="0.9" stop-color="#6FACF4"/>
<stop offset="1" stop-color="#5EA0EF"/>
</linearGradient>
<clipPath id="clip0_855_8528">
<rect width="32" height="32" fill="white"/>
</clipPath>
</defs>
</svg>
