<svg width="32" height="32" viewBox="0 0 32 32" fill="none" xmlns="http://www.w3.org/2000/svg">
<g clip-path="url(#clip0_855_8561)">
<path d="M32 25.7317C31.8987 22.6277 29.5698 20.0517 26.4924 19.6375C26.2684 15.2926 22.608 11.9273 18.2595 12.0677C14.7964 11.9842 11.6587 14.0926 10.4249 17.3282C6.70755 17.7762 3.87733 20.8731 3.76355 24.6135C3.92711 28.8428 7.48266 32.1442 11.712 31.9948H25.6978C29.1378 31.9344 31.92 29.1717 32 25.7299V25.7317Z" fill="url(#paint0_linear_855_8561)"/>
<path d="M13.5858 28.4465L10.1244 24.9692C10.0569 24.9176 10.0427 24.8216 10.0942 24.7523C10.1031 24.7399 10.1138 24.731 10.1244 24.7221L13.5858 21.2607C13.6622 21.1914 13.7795 21.1985 13.8471 21.275C13.8738 21.3052 13.8915 21.3443 13.8951 21.3852V23.4243C13.8915 23.5185 13.9644 23.5967 14.0587 23.6003C14.0764 23.6003 14.0942 23.6003 14.112 23.5932H18.5938C18.688 23.6021 18.7573 23.6839 18.7484 23.7781V25.9274C18.7484 26.0216 18.672 26.0981 18.5778 26.0981H14.112C14.0178 26.0981 13.9413 26.1727 13.9413 26.267V28.3221C13.9769 28.4198 13.9235 28.5283 13.8258 28.5621C13.728 28.5958 13.6195 28.5443 13.5858 28.4465Z" fill="white"/>
<path d="M22.1156 21.2611L25.6996 24.8451L22.1156 28.4451C22.0516 28.5126 21.9431 28.5162 21.8756 28.4522C21.84 28.4184 21.8205 28.3704 21.8222 28.3206V26.2815C21.8222 26.1784 21.7387 26.0966 21.6374 26.0966H17.0027V23.5935H21.6374C21.7387 23.6024 21.8294 23.5277 21.8382 23.4246V21.3837C21.8418 21.2895 21.9218 21.2166 22.016 21.222C22.0534 21.222 22.0889 21.238 22.1174 21.2611H22.1156Z" fill="white"/>
<path d="M2.51377 24.6635V24.5764C2.5511 23.3586 2.84088 22.1711 3.35288 21.0848C1.31199 20.6493 0.0302124 20.02 0.0302124 19.3213V24.116C0.0302124 24.7275 1.00977 25.284 2.61688 25.7053C2.56355 25.364 2.52799 25.0173 2.51377 24.6635Z" fill="#005BA1"/>
<path d="M4.81955 18.8927C5.51288 18.1335 6.33243 17.5149 7.22843 17.042C3.06488 17.3371 0.0302124 18.2455 0.0302124 19.3211C0.0302124 20.0198 1.31199 20.6491 3.3511 21.0847C3.72621 20.29 4.21688 19.5504 4.81955 18.8927Z" fill="#198AB3"/>
<path d="M20.256 10.9758V10.8496C20.256 10.8905 20.2506 10.9314 20.2435 10.9723L20.256 10.9758Z" fill="#0078D4"/>
<path d="M9.54488 16.2043C10.096 15.0434 10.8782 14.0283 11.8187 13.1981C11.2729 13.2194 10.7147 13.2318 10.1422 13.2318C4.55821 13.2318 0.0302124 12.1652 0.0302124 10.8496V15.6461C0.0302124 16.6132 2.48532 17.4452 6.0071 17.8185C7.05066 17.0274 8.25777 16.4727 9.54666 16.2061L9.54488 16.2043Z" fill="#0078D4"/>
<path d="M11.8204 13.1968C13.5129 11.7017 15.7244 10.8128 18.0622 10.8128C18.1262 10.8128 18.1902 10.8128 18.2542 10.8146C18.3431 10.8128 18.432 10.8111 18.5209 10.8111C19.1093 10.8111 19.6835 10.8662 20.2418 10.9728C20.2507 10.9319 20.2542 10.8911 20.2542 10.8502C20.2542 9.53639 15.7262 8.46973 10.1422 8.46973C4.55821 8.46973 0.0302124 9.53639 0.0302124 10.8502C0.0302124 12.1639 4.55821 13.2306 10.1422 13.2306C10.7147 13.2306 11.2747 13.2182 11.8204 13.1968Z" fill="#32BEDD"/>
<path d="M10.112 4.76308C4.59022 4.76308 0.103111 3.71953 0.00888889 2.4253H0V7.17553C0 8.49108 4.528 9.55775 10.112 9.55775C15.5804 9.55775 20.032 8.53553 20.2151 7.25908V7.1773C20.2151 7.16308 20.2151 7.14886 20.2151 7.13464V7.06886V2.38086C20.224 3.69464 15.696 4.76308 10.112 4.76308Z" fill="#5EA0EF"/>
<path d="M10.112 4.76089C15.6967 4.76089 20.224 3.69513 20.224 2.38044C20.224 1.06576 15.6967 0 10.112 0C4.5273 0 0 1.06576 0 2.38044C0 3.69513 4.5273 4.76089 10.112 4.76089Z" fill="#9CEBFF"/>
</g>
<defs>
<linearGradient id="paint0_linear_855_8561" x1="17.8827" y1="32.0002" x2="17.8827" y2="11.9966" gradientUnits="userSpaceOnUse">
<stop stop-color="#32BEDD"/>
<stop offset="1" stop-color="#50E6FF"/>
</linearGradient>
<clipPath id="clip0_855_8561">
<rect width="32" height="32" fill="white"/>
</clipPath>
</defs>
</svg>
