<svg width="32" height="32" viewBox="0 0 32 32" fill="none" xmlns="http://www.w3.org/2000/svg">
<path d="M16.9938 1.19923H4.37156C4.24379 1.19876 4.11719 1.22352 3.99901 1.27209C3.88083 1.32066 3.77341 1.39209 3.6829 1.48227C3.59238 1.57245 3.52057 1.67961 3.47157 1.79761C3.42256 1.91561 3.39734 2.04212 3.39734 2.16989V29.4108C3.39734 29.6687 3.49979 29.916 3.68216 30.0984C3.86453 30.2808 4.11187 30.3832 4.36978 30.3832H26.2916C26.4193 30.3837 26.5459 30.3589 26.6641 30.3104C26.7823 30.2618 26.8897 30.1904 26.9802 30.1002C27.0707 30.01 27.1426 29.9028 27.1916 29.7848C27.2406 29.6668 27.2658 29.5403 27.2658 29.4126V11.4019C27.2444 11.1529 27.1301 10.9211 26.9457 10.7525C26.7612 10.5838 26.5201 10.4908 26.2702 10.4917H18.9813C18.7182 10.4921 18.4656 10.3884 18.2787 10.2032C18.0918 10.018 17.9859 9.76634 17.984 9.50323V2.19478C17.984 1.93074 17.8791 1.67752 17.6924 1.49082C17.5057 1.30411 17.2525 1.19923 16.9885 1.19923H16.9938Z" fill="url(#paint0_linear_855_8557)"/>
<path d="M26.9156 10.7269L17.6569 1.44336V8.91003C17.6567 9.13562 17.7009 9.35904 17.7871 9.5675C17.8734 9.77596 17.9998 9.96537 18.1594 10.1249C18.3189 10.2844 18.5083 10.4109 18.7168 10.4971C18.9252 10.5833 19.1486 10.6276 19.3742 10.6274L26.9156 10.7269Z" fill="#773ADC"/>
<path d="M12.8206 14.0178L7.32462 23.5371L9.30916 24.6829L14.8052 15.1635L12.8206 14.0178Z" fill="#6536C1"/>
<path d="M16.7996 14.1941L14.8151 15.3398L20.3111 24.8592L22.2956 23.7134L16.7996 14.1941Z" fill="#6536C1"/>
<path d="M20.2151 24.8516H9.22311V27.1431H20.2151V24.8516Z" fill="#6536C1"/>
<path d="M14.9262 15.4009C16.4667 15.4009 17.7156 14.1521 17.7156 12.6116C17.7156 11.0711 16.4667 9.82227 14.9262 9.82227C13.3857 9.82227 12.1369 11.0711 12.1369 12.6116C12.1369 14.1521 13.3857 15.4009 14.9262 15.4009Z" fill="url(#paint1_linear_855_8557)"/>
<path d="M7.22134 28.9595C8.76185 28.9595 10.0107 27.7107 10.0107 26.1702C10.0107 24.6297 8.76185 23.3809 7.22134 23.3809C5.68083 23.3809 4.43201 24.6297 4.43201 26.1702C4.43201 27.7107 5.68083 28.9595 7.22134 28.9595Z" fill="url(#paint2_linear_855_8557)"/>
<path d="M23.5253 31.4213C26.682 31.4213 29.2409 28.8624 29.2409 25.7058C29.2409 22.5492 26.682 19.9902 23.5253 19.9902C20.3687 19.9902 17.8098 22.5492 17.8098 25.7058C17.8098 28.8624 20.3687 31.4213 23.5253 31.4213Z" fill="url(#paint3_linear_855_8557)"/>
<path d="M24.1778 22.1994L27.4116 25.4314C27.4474 25.4672 27.4759 25.5098 27.4953 25.5566C27.5147 25.6034 27.5247 25.6536 27.5247 25.7043C27.5247 25.755 27.5147 25.8051 27.4953 25.852C27.4759 25.8988 27.4474 25.9413 27.4116 25.9772L24.1778 29.2109C24.1448 29.2419 24.1013 29.2592 24.056 29.2592C24.0108 29.2592 23.9672 29.2419 23.9342 29.2109C23.9025 29.178 23.8846 29.134 23.8845 29.0883V27.1007C23.8845 27.0536 23.8657 27.0084 23.8324 26.975C23.799 26.9417 23.7538 26.9229 23.7067 26.9229H19.6693C19.6321 26.9229 19.5964 26.9081 19.57 26.8818C19.5437 26.8555 19.5289 26.8197 19.5289 26.7825V24.6136C19.5289 24.5952 19.5325 24.5771 19.5396 24.5601C19.5467 24.5432 19.5571 24.5278 19.5701 24.5149C19.5832 24.502 19.5987 24.4918 19.6157 24.485C19.6328 24.4781 19.651 24.4747 19.6693 24.4749H23.7102C23.7574 24.4749 23.8026 24.4562 23.8359 24.4229C23.8693 24.3895 23.888 24.3443 23.888 24.2972V22.3203C23.8906 22.2875 23.9021 22.2561 23.9215 22.2295C23.9408 22.2029 23.9671 22.1822 23.9975 22.1697C24.0279 22.1571 24.0612 22.1533 24.0936 22.1585C24.1261 22.1638 24.1564 22.1779 24.1813 22.1994H24.1778Z" fill="white"/>
<defs>
<linearGradient id="paint0_linear_855_8557" x1="15.328" y1="-0.683441" x2="15.328" y2="31.9548" gradientUnits="userSpaceOnUse">
<stop stop-color="#A67AF4"/>
<stop offset="0.999" stop-color="#773ADC"/>
</linearGradient>
<linearGradient id="paint1_linear_855_8557" x1="15.4785" y1="15.4039" x2="15.4801" y2="9.82697" gradientUnits="userSpaceOnUse">
<stop offset="0.001" stop-color="#76BC2D"/>
<stop offset="1" stop-color="#86D633"/>
</linearGradient>
<linearGradient id="paint2_linear_855_8557" x1="7.22134" y1="29.5089" x2="7.22134" y2="23.9462" gradientUnits="userSpaceOnUse">
<stop offset="0.001" stop-color="#76BC2D"/>
<stop offset="1" stop-color="#86D633"/>
</linearGradient>
<linearGradient id="paint3_linear_855_8557" x1="23.5253" y1="31.4213" x2="23.5253" y2="19.9902" gradientUnits="userSpaceOnUse">
<stop offset="0.001" stop-color="#76BC2D"/>
<stop offset="1" stop-color="#86D633"/>
</linearGradient>
</defs>
</svg>
