<svg width="32" height="32" viewBox="0 0 32 32" fill="none" xmlns="http://www.w3.org/2000/svg">
<path d="M10.7561 7.35073L8.70071 6.16406L2.99849 16.0406L5.05386 17.2273L10.7561 7.35073Z" fill="#773ADC"/>
<path d="M12.8259 6.35435L10.7705 7.54102L16.4727 17.4176L18.5281 16.2309L12.8259 6.35435Z" fill="#773ADC"/>
<path d="M16.3769 19.7952V17.4219H4.97245V19.7952H16.3769Z" fill="#773ADC"/>
<path d="M10.8871 7.59969C12.4836 7.59969 13.7778 6.3055 13.7778 4.70903C13.7778 3.11255 12.4836 1.81836 10.8871 1.81836C9.29066 1.81836 7.99646 3.11255 7.99646 4.70903C7.99646 6.3055 9.29066 7.59969 10.8871 7.59969Z" fill="#86D633"/>
<path d="M2.89067 21.672C4.48714 21.672 5.78133 20.3778 5.78133 18.7813C5.78133 17.1848 4.48714 15.8906 2.89067 15.8906C1.2942 15.8906 0 17.1848 0 18.7813C0 20.3778 1.2942 21.672 2.89067 21.672Z" fill="#86D633"/>
<path d="M21.8382 29.6404C27.0665 29.6404 31.3049 25.402 31.3049 20.1737C31.3049 14.9454 27.0665 10.707 21.8382 10.707C16.6099 10.707 12.3716 14.9454 12.3716 20.1737C12.3716 25.402 16.6099 29.6404 21.8382 29.6404Z" fill="white"/>
<path d="M17.5164 22.6231C17.411 22.623 17.308 22.5916 17.2204 22.533C17.1328 22.4744 17.0645 22.3911 17.0242 22.2938C16.9838 22.1964 16.9733 22.0892 16.9938 21.9858C17.0143 21.8824 17.0651 21.7874 17.1396 21.7128L19.1449 19.7093C19.1931 19.6548 19.2519 19.6108 19.3177 19.5798C19.3836 19.5489 19.455 19.5318 19.5277 19.5296C19.6004 19.5273 19.6728 19.5399 19.7405 19.5667C19.8081 19.5934 19.8696 19.6337 19.921 19.6851C19.9725 19.7364 20.013 19.7978 20.0399 19.8654C20.0668 19.9329 20.0796 20.0053 20.0775 20.078C20.0754 20.1507 20.0584 20.2222 20.0277 20.2881C19.9969 20.354 19.953 20.413 19.8987 20.4613L17.8933 22.4666C17.7934 22.5667 17.6578 22.6229 17.5164 22.6231Z" fill="#773ADC"/>
<path d="M18.9973 24.1031C18.8919 24.103 18.7889 24.0716 18.7013 24.013C18.6137 23.9544 18.5454 23.8712 18.505 23.7738C18.4647 23.6764 18.4542 23.5692 18.4747 23.4658C18.4952 23.3624 18.546 23.2674 18.6205 23.1928L20.6222 21.1893C20.6711 21.1369 20.7299 21.0949 20.7954 21.0657C20.8608 21.0366 20.9314 21.0209 21.003 21.0196C21.0746 21.0184 21.1458 21.0315 21.2122 21.0583C21.2786 21.0852 21.3389 21.1251 21.3895 21.1757C21.4402 21.2264 21.4801 21.2867 21.5069 21.3531C21.5338 21.4195 21.5469 21.4907 21.5457 21.5623C21.5444 21.6339 21.5287 21.7045 21.4996 21.7699C21.4704 21.8353 21.4284 21.8942 21.376 21.9431L19.3778 23.9484C19.3277 23.998 19.2684 24.0373 19.203 24.0638C19.1377 24.0904 19.0678 24.1037 18.9973 24.1031Z" fill="#773ADC"/>
<path d="M20.464 25.5705C20.3589 25.5701 20.2564 25.5386 20.1691 25.4801C20.0819 25.4216 20.0139 25.3386 19.9736 25.2416C19.9333 25.1445 19.9226 25.0378 19.9428 24.9347C19.963 24.8316 20.0132 24.7368 20.0871 24.6621L22.0907 22.6567C22.1402 22.6071 22.1989 22.5678 22.2636 22.5409C22.3284 22.514 22.3977 22.5001 22.4678 22.5C22.5379 22.4999 22.6073 22.5136 22.6721 22.5404C22.7368 22.5671 22.7957 22.6064 22.8453 22.6559C22.8949 22.7053 22.9343 22.7641 22.9612 22.8288C22.9881 22.8935 23.002 22.9629 23.0021 23.033C23.0022 23.1031 22.9884 23.1725 22.9617 23.2373C22.9349 23.302 22.8957 23.3609 22.8462 23.4105L20.8427 25.423C20.7409 25.5202 20.6047 25.5732 20.464 25.5705Z" fill="#773ADC"/>
<path d="M21.1982 18.9397C21.0932 18.9393 20.9906 18.9078 20.9033 18.8493C20.8161 18.7908 20.7481 18.7078 20.7078 18.6108C20.6676 18.5137 20.6569 18.407 20.6771 18.3039C20.6973 18.2008 20.7474 18.106 20.8213 18.0313L22.8267 16.026C22.9278 15.9317 23.0615 15.8805 23.1997 15.8829C23.3378 15.8853 23.4697 15.9413 23.5674 16.039C23.6651 16.1367 23.7211 16.2686 23.7235 16.4067C23.7259 16.5449 23.6746 16.6786 23.5804 16.7797L21.5751 18.7833C21.4752 18.8833 21.3396 18.9396 21.1982 18.9397Z" fill="#773ADC"/>
<path d="M22.6791 20.4221C22.5741 20.4216 22.4715 20.3902 22.3842 20.3317C22.297 20.2731 22.229 20.1902 22.1887 20.0931C22.1485 19.9961 22.1378 19.8893 22.158 19.7862C22.1781 19.6831 22.2283 19.5883 22.3022 19.5136L24.3058 17.5083C24.3553 17.4587 24.4141 17.4193 24.4788 17.3924C24.5435 17.3655 24.6129 17.3516 24.6829 17.3516C24.753 17.3515 24.8224 17.3652 24.8872 17.3919C24.952 17.4187 25.0108 17.4579 25.0604 17.5074C25.1101 17.5569 25.1494 17.6157 25.1763 17.6804C25.2032 17.7451 25.2171 17.8145 25.2172 17.8846C25.2173 17.9546 25.2035 18.024 25.1768 18.0888C25.1501 18.1536 25.1108 18.2125 25.0613 18.2621L23.0578 20.2674C23.0079 20.3168 22.9488 20.356 22.8839 20.3825C22.8189 20.409 22.7493 20.4225 22.6791 20.4221Z" fill="#773ADC"/>
<path d="M24.1458 21.8878C24.0404 21.8877 23.9373 21.8564 23.8497 21.7978C23.7621 21.7392 23.6938 21.6559 23.6535 21.5585C23.6132 21.4611 23.6026 21.354 23.6231 21.2506C23.6437 21.1472 23.6944 21.0522 23.7689 20.9776L25.7778 18.9723C25.878 18.8723 26.0138 18.8162 26.1553 18.8164C26.2968 18.8166 26.4325 18.873 26.5324 18.9731C26.6324 19.0733 26.6885 19.2091 26.6883 19.3507C26.6881 19.4922 26.6318 19.6279 26.5316 19.7278L24.5262 21.7331C24.4762 21.7828 24.4168 21.822 24.3515 21.8486C24.2862 21.8751 24.2163 21.8885 24.1458 21.8878Z" fill="#773ADC"/>
<path d="M17.1022 21.3717C17.0527 21.322 16.9938 21.2825 16.929 21.2556C16.8641 21.2287 16.7946 21.2148 16.7244 21.2148C16.6542 21.2148 16.5847 21.2287 16.5199 21.2556C16.4551 21.2825 16.3962 21.322 16.3467 21.3717L12.9244 24.7939C14.0585 26.9281 15.916 28.5882 18.1635 29.4766L21.3084 26.3335C21.3584 26.2839 21.3981 26.2249 21.4252 26.1599C21.4523 26.0949 21.4662 26.0252 21.4662 25.9548C21.4662 25.8844 21.4523 25.8147 21.4252 25.7497C21.3981 25.6847 21.3584 25.6257 21.3084 25.5762L17.1022 21.3717Z" fill="#A67AF4"/>
<path d="M26.6187 11.1094L22.72 15.008C22.6703 15.0576 22.6308 15.1165 22.6039 15.1813C22.577 15.2461 22.5631 15.3156 22.5631 15.3858C22.5631 15.456 22.577 15.5255 22.6039 15.5903C22.6308 15.6552 22.6703 15.714 22.72 15.7636L26.9262 19.9698C26.9758 20.0195 27.0347 20.059 27.0995 20.0859C27.1643 20.1128 27.2338 20.1267 27.304 20.1267C27.3742 20.1267 27.4437 20.1128 27.5085 20.0859C27.5734 20.059 27.6322 20.0195 27.6818 19.9698L31.2996 16.3556C30.4136 14.1053 28.7538 12.2451 26.6187 11.1094Z" fill="#B796F9"/>
<path d="M21.8667 11.263C23.6057 11.263 25.3058 11.7787 26.7517 12.7449C28.1977 13.7111 29.3247 15.0843 29.9902 16.691C30.6558 18.2977 30.8299 20.0657 30.4906 21.7713C30.1513 23.477 29.3139 25.0437 28.0842 26.2734C26.8545 27.5031 25.2877 28.3406 23.5821 28.6798C21.8764 29.0191 20.1085 28.845 18.5018 28.1795C16.8951 27.514 15.5218 26.387 14.5557 24.941C13.5895 23.495 13.0738 21.795 13.0738 20.0559C13.0766 17.7248 14.0039 15.4899 15.6523 13.8415C17.3007 12.1931 19.5355 11.2658 21.8667 11.263ZM21.8667 9.92969C19.8625 9.92969 17.9033 10.524 16.2369 11.6375C14.5705 12.7509 13.2717 14.3335 12.5047 16.1852C11.7377 18.0368 11.5371 20.0743 11.9281 22.0399C12.319 24.0056 13.2842 25.8112 14.7013 27.2284C16.1185 28.6455 17.9241 29.6106 19.8898 30.0016C21.8554 30.3926 23.8929 30.192 25.7445 29.425C27.5962 28.658 29.1788 27.3592 30.2922 25.6928C31.4057 24.0264 32 22.0672 32 20.063C32 17.3755 30.9324 14.798 29.032 12.8977C27.1317 10.9973 24.5542 9.92969 21.8667 9.92969Z" fill="url(#paint0_linear_855_8526)"/>
<defs>
<linearGradient id="paint0_linear_855_8526" x1="23.3227" y1="10.0328" x2="20.4249" y2="30.079" gradientUnits="userSpaceOnUse">
<stop stop-color="#A67AF4"/>
<stop offset="1" stop-color="#773ADC"/>
</linearGradient>
</defs>
</svg>
