<svg width="32" height="32" viewBox="0 0 32 32" fill="none" xmlns="http://www.w3.org/2000/svg">
<path d="M23.7831 7.82227H22.1831V3.61783C22.1671 3.61605 22.151 3.61605 22.1351 3.61783H10.0604C10.0445 3.61605 10.0284 3.61605 10.0124 3.61783V7.82227H8.41241V3.53783C8.43182 3.11812 8.61553 2.72289 8.92388 2.43749C9.23223 2.1521 9.64046 1.99944 10.0604 2.01249H22.1351C22.555 1.99944 22.9633 2.1521 23.2716 2.43749C23.58 2.72289 23.7637 3.11812 23.7831 3.53783V7.82227Z" fill="#A3A3A3"/>
<path d="M30.9333 7.64062H1.06667C0.477563 7.64062 0 8.11819 0 8.70729V28.9206C0 29.5097 0.477563 29.9873 1.06667 29.9873H30.9333C31.5224 29.9873 32 29.5097 32 28.9206V8.70729C32 8.11819 31.5224 7.64062 30.9333 7.64062Z" fill="url(#paint0_linear_855_8529)"/>
<path d="M20.1937 11.0854C19.2862 11.0127 18.3803 11.244 17.6188 11.7429C16.8573 12.2418 16.2834 12.9799 15.9875 13.8409C15.6829 12.9822 15.1022 12.2487 14.3363 11.7553C13.5704 11.2618 12.6625 11.0362 11.7546 11.1138C7.95375 11.4249 7.7653 15.1867 7.83286 16.6249C7.86486 17.6525 8.07641 20.8916 15.9484 26.5094L16.016 26.5574L16.0835 26.5094C23.9555 20.8436 24.1475 17.5423 24.1724 16.4738C24.2204 15.0747 24 11.3787 20.1937 11.0854Z" fill="url(#paint1_linear_855_8529)"/>
<path opacity="0.9" d="M23.9698 14.3477C24.0976 15.4953 23.8985 16.6558 23.3956 17.6952C22.1363 19.792 20.1214 21.3265 17.7653 21.9832C17.6501 21.8436 17.5069 21.7296 17.3449 21.6488C17.1829 21.5679 17.0058 21.522 16.8249 21.5139C16.5654 21.4968 16.3066 21.5569 16.0812 21.6865C15.8557 21.8161 15.6736 22.0094 15.5576 22.2422C15.4417 22.475 15.3972 22.7369 15.4297 22.9949C15.4622 23.2529 15.5702 23.4956 15.7402 23.6924C15.9102 23.8892 16.1346 24.0314 16.3851 24.1011C16.6357 24.1707 16.9013 24.1648 17.1484 24.0839C17.3956 24.0031 17.6134 23.851 17.7744 23.6468C17.9354 23.4426 18.0324 23.1953 18.0533 22.9361C19.9668 22.2581 21.6978 21.1471 23.1111 19.6899C23.7648 18.7478 24.1304 17.636 24.1636 16.4899C24.2042 15.7702 24.1389 15.0484 23.9698 14.3477Z" fill="white"/>
<path opacity="0.9" d="M12.6347 22.1729L12.9689 22.5569C13.0584 22.6555 13.1831 22.715 13.3161 22.7227C13.4491 22.7303 13.5797 22.6855 13.68 22.5978L14.4409 21.9187C14.5391 21.8289 14.5983 21.7043 14.6059 21.5714C14.6136 21.4386 14.569 21.308 14.4818 21.2076C14.4433 21.1542 14.3947 21.109 14.3388 21.0746C14.2828 21.0401 14.2206 21.0169 14.1557 21.0065C14.0908 20.9961 14.0245 20.9986 13.9605 21.0139C13.8966 21.0292 13.8363 21.0569 13.7831 21.0956C13.7663 21.1082 13.7503 21.1219 13.7351 21.1365L13.3387 21.492C10.8444 18.7436 10.1333 16.6316 11.2818 15.6182C12.4302 14.6049 14.4373 15.5578 16.912 18.3116L16.5155 18.6671C16.4656 18.7107 16.4249 18.7638 16.3956 18.8232C16.3663 18.8826 16.3491 18.9473 16.345 19.0134C16.3409 19.0795 16.3499 19.1458 16.3715 19.2084C16.3932 19.2711 16.427 19.3288 16.4711 19.3782C16.555 19.4772 16.6746 19.5389 16.8039 19.5499C16.9331 19.5609 17.0615 19.5203 17.1609 19.4369L17.1822 19.4209L17.9324 18.7507C18.0306 18.6609 18.0899 18.5363 18.0975 18.4034C18.1051 18.2706 18.0606 18.14 17.9733 18.0396L17.6373 17.6716C15.9609 15.7836 13.0578 13.4493 11.0595 14.6191C10.5516 14.0814 10.2511 13.3808 10.2115 12.6422C10.1936 12.1856 10.3179 11.7346 10.5671 11.3516C10.0766 11.5078 9.62792 11.7734 9.2551 12.1285C9.14879 12.7038 9.19238 13.2968 9.38169 13.8504C9.571 14.404 9.89965 14.8996 10.336 15.2893C8.97954 17.1453 10.9582 20.2849 12.6347 22.1729Z" fill="white"/>
<defs>
<linearGradient id="paint0_linear_855_8529" x1="16" y1="29.9891" x2="16" y2="7.64062" gradientUnits="userSpaceOnUse">
<stop stop-color="#0078D4"/>
<stop offset="0.156" stop-color="#1380DA"/>
<stop offset="0.528" stop-color="#3C91E5"/>
<stop offset="0.822" stop-color="#559CEC"/>
<stop offset="1" stop-color="#5EA0EF"/>
</linearGradient>
<linearGradient id="paint1_linear_855_8529" x1="16" y1="26.5591" x2="16" y2="11.0729" gradientUnits="userSpaceOnUse">
<stop stop-color="#EF7100"/>
<stop offset="1" stop-color="#FAA21D"/>
</linearGradient>
</defs>
</svg>
