<svg width="32" height="32" viewBox="0 0 32 32" fill="none" xmlns="http://www.w3.org/2000/svg">
<path d="M25.4578 22.684C25.4489 22.9499 25.3393 23.2025 25.1511 23.3907C24.963 23.5788 24.7104 23.6884 24.4444 23.6973H9.01331C8.74456 23.6973 8.48681 23.5906 8.29677 23.4005C8.10674 23.2105 7.99998 22.9527 7.99998 22.684V2.09732C7.9952 1.96595 8.01695 1.83497 8.06395 1.71221C8.11094 1.58945 8.1822 1.47742 8.27348 1.38282C8.36475 1.28823 8.47417 1.21301 8.59517 1.16166C8.71618 1.11032 8.8463 1.0839 8.97775 1.08398H24.4444C24.7132 1.08398 24.9709 1.19075 25.161 1.38078C25.351 1.57082 25.4578 1.82857 25.4578 2.09732V22.684Z" fill="#777777"/>
<path d="M21.9022 26.2387C21.8933 26.5046 21.7837 26.7572 21.5956 26.9454C21.4074 27.1335 21.1548 27.2431 20.8889 27.252H5.45777C5.18901 27.252 4.93127 27.1452 4.74123 26.9552C4.55119 26.7652 4.44443 26.5074 4.44443 26.2387V5.65201C4.43965 5.52064 4.46141 5.38966 4.5084 5.2669C4.5554 5.14413 4.62666 5.03211 4.71794 4.93751C4.80921 4.84292 4.91862 4.7677 5.03963 4.71635C5.16064 4.665 5.29076 4.63859 5.42221 4.63867H20.8889C21.1576 4.63867 21.4154 4.74543 21.6054 4.93547C21.7954 5.12551 21.9022 5.38325 21.9022 5.65201V26.2387Z" fill="#999999"/>
<path d="M18.3467 29.7953C18.3378 30.0612 18.2282 30.3139 18.04 30.502C17.8519 30.6902 17.5993 30.7998 17.3333 30.8086H1.90222C1.6349 30.8041 1.3798 30.6958 1.19075 30.5068C1.00169 30.3177 0.893462 30.0626 0.888891 29.7953V9.20865C0.884111 9.07728 0.905868 8.9463 0.952861 8.82354C0.999855 8.70077 1.07112 8.58875 1.16239 8.49415C1.25367 8.39956 1.36308 8.32434 1.48409 8.27299C1.6051 8.22164 1.73522 8.19523 1.86667 8.19531H17.3333C17.4664 8.19531 17.5982 8.22152 17.7211 8.27245C17.8441 8.32337 17.9558 8.39801 18.0499 8.49211C18.144 8.58621 18.2186 8.69792 18.2695 8.82086C18.3205 8.9438 18.3467 9.07557 18.3467 9.20865V29.7953Z" fill="url(#paint0_linear_855_8606)"/>
<path d="M3.44888 12.9949C3.44653 12.7459 3.49354 12.499 3.58719 12.2683C3.68084 12.0376 3.81927 11.8277 3.99449 11.6509C4.16971 11.474 4.37825 11.3336 4.60804 11.2378C4.83784 11.142 5.08435 11.0927 5.33332 11.0927H14.0444C14.5372 11.0778 15.0165 11.2548 15.3814 11.5865C15.7462 11.9181 15.968 12.3785 16 12.8704C16.012 13.13 15.9713 13.3892 15.8802 13.6325C15.7891 13.8758 15.6496 14.0981 15.4701 14.2859C15.2905 14.4737 15.0748 14.6232 14.8359 14.7252C14.5969 14.8272 14.3398 14.8796 14.08 14.8793H5.33332C4.83639 14.8702 4.36235 14.6687 4.01091 14.3173C3.65946 13.9659 3.458 13.4918 3.44888 12.9949Z" fill="#003067"/>
<path d="M5.43997 14.2748C6.1469 14.2748 6.71997 13.7018 6.71997 12.9948C6.71997 12.2879 6.1469 11.7148 5.43997 11.7148C4.73305 11.7148 4.15997 12.2879 4.15997 12.9948C4.15997 13.7018 4.73305 14.2748 5.43997 14.2748Z" fill="#50E6FF"/>
<path d="M31.1111 25.0314C31.0684 23.6185 30.5246 22.2669 29.5768 21.2181C28.629 20.1694 27.3392 19.492 25.9378 19.307C25.8409 17.3436 24.9755 15.4971 23.5285 14.1666C22.0814 12.836 20.1691 12.1281 18.2044 12.1959C16.6167 12.1553 15.0556 12.609 13.7371 13.4944C12.4186 14.3798 11.4077 15.6531 10.8444 17.1381C9.15501 17.3415 7.59452 18.144 6.4463 19.3998C5.29809 20.6557 4.63828 22.2817 4.58667 23.9825C4.66075 25.8909 5.48816 27.6922 6.88767 28.9917C8.28718 30.2912 10.1447 30.9832 12.0533 30.9159H25.1911C26.748 30.8932 28.2353 30.267 29.3396 29.1693C30.4439 28.0716 31.079 26.5881 31.1111 25.0314Z" fill="url(#paint1_linear_855_8606)"/>
<path d="M24.1956 25.689V19.7157H22.5422V27.0401H26.8978V25.689H24.1956ZM11.5733 22.7557C11.2515 22.6064 10.9473 22.4215 10.6667 22.2045C10.5267 22.0484 10.4505 21.8453 10.4533 21.6357C10.4441 21.5308 10.4641 21.4254 10.5112 21.3312C10.5583 21.2371 10.6306 21.1578 10.72 21.1023C10.9355 20.9444 11.2003 20.8688 11.4667 20.889C12.0989 20.8682 12.7214 21.0488 13.2444 21.4045V19.8757C12.6728 19.6804 12.0705 19.59 11.4667 19.609C10.7725 19.5759 10.0881 19.7831 9.52889 20.1956C9.29125 20.3832 9.10134 20.6244 8.97467 20.8993C8.84799 21.1743 8.78814 21.4754 8.8 21.7779C8.8312 22.2604 9.00745 22.7223 9.30564 23.103C9.60384 23.4836 10.0101 23.7654 10.4711 23.9112C10.861 24.0722 11.2261 24.2877 11.5556 24.5512C11.6387 24.621 11.7056 24.708 11.7516 24.8062C11.7977 24.9045 11.8218 25.0116 11.8222 25.1201C11.8295 25.2247 11.8086 25.3294 11.7617 25.4232C11.7148 25.517 11.6436 25.5965 11.5556 25.6534C11.3168 25.8043 11.0377 25.8788 10.7556 25.8668C10.0635 25.8518 9.40035 25.5865 8.88888 25.1201V26.7557C9.44271 27.0253 10.0507 27.1651 10.6667 27.1645C11.3835 27.2168 12.0986 27.0427 12.7111 26.6668C12.9626 26.4816 13.1641 26.2368 13.2976 25.9544C13.431 25.672 13.4922 25.3609 13.4756 25.049C13.4928 24.5925 13.3336 24.1468 13.0311 23.8045C12.6305 23.3494 12.1322 22.9908 11.5733 22.7557ZM20.7467 25.5645C21.1512 24.8888 21.3547 24.1118 21.3333 23.3245C21.3582 22.6337 21.2051 21.9481 20.8889 21.3334C20.623 20.7806 20.1952 20.3217 19.6622 20.0179C19.0936 19.6808 18.4378 19.52 17.7778 19.5557C17.1513 19.5755 16.5399 19.7528 16 20.0712C15.4443 20.3926 14.9936 20.8681 14.7022 21.4401C14.3833 22.0679 14.2188 22.7626 14.2222 23.4668C14.2133 24.1141 14.3596 24.7542 14.6489 25.3334C14.9235 25.8746 15.3417 26.3297 15.8578 26.649C16.3968 26.9695 17.0087 27.147 17.6356 27.1645L19.1467 28.9423H21.3333L19.2178 26.9868C19.8706 26.6947 20.4082 26.1946 20.7467 25.5645ZM19.0933 25.1201C18.9324 25.3221 18.7263 25.4837 18.4917 25.5917C18.2571 25.6998 18.0004 25.7514 17.7422 25.7423C17.4853 25.7479 17.2307 25.6928 16.9991 25.5816C16.7674 25.4704 16.5652 25.3062 16.4089 25.1023C16.0366 24.5879 15.8601 23.9575 15.9111 23.3245C15.8534 22.6882 16.0375 22.0535 16.4267 21.5468C16.5857 21.3357 16.7929 21.1658 17.0311 21.0514C17.2693 20.9369 17.5314 20.8813 17.7956 20.889C18.0522 20.8808 18.3069 20.9366 18.5365 21.0515C18.7662 21.1663 18.9637 21.3365 19.1111 21.5468C19.4863 22.0598 19.6631 22.6913 19.6089 23.3245C19.6641 23.9661 19.4805 24.6055 19.0933 25.1201Z" fill="#F2F2F2"/>
<defs>
<linearGradient id="paint0_linear_855_8606" x1="9.61778" y1="30.8086" x2="9.61778" y2="8.19531" gradientUnits="userSpaceOnUse">
<stop stop-color="#949494"/>
<stop offset="0.53" stop-color="#A2A2A2"/>
<stop offset="1" stop-color="#B3B3B3"/>
</linearGradient>
<linearGradient id="paint1_linear_855_8606" x1="17.8489" y1="30.9159" x2="17.8489" y2="12.1247" gradientUnits="userSpaceOnUse">
<stop stop-color="#0078D4"/>
<stop offset="0.16" stop-color="#1380DA"/>
<stop offset="0.53" stop-color="#3C91E5"/>
<stop offset="0.82" stop-color="#559CEC"/>
<stop offset="1" stop-color="#5EA0EF"/>
</linearGradient>
</defs>
</svg>
