<svg width="32" height="32" viewBox="0 0 32 32" fill="none" xmlns="http://www.w3.org/2000/svg">
<g clip-path="url(#clip0_855_8507)">
<path d="M30.5298 15.9316C30.4806 14.3258 29.8624 12.7898 28.7855 11.5977C27.7086 10.4055 26.2432 9.63484 24.6507 9.42313C24.5558 7.17777 23.579 5.06048 21.9324 3.53102C20.2858 2.00156 18.1023 1.18342 15.856 1.25424C14.0414 1.22113 12.2613 1.75264 10.7619 2.77529C9.26244 3.79793 8.11781 5.26118 7.48623 6.96269C5.56664 7.19438 3.79367 8.10646 2.48899 9.53346C1.18431 10.9605 0.43433 12.8078 0.375122 14.7405C0.45846 16.9109 1.39907 18.9597 2.99071 20.4377C4.58234 21.9157 6.69512 22.7023 8.86579 22.6249C9.11646 22.6249 9.36535 22.6125 9.61246 22.5929H23.3618C23.4822 22.5903 23.6018 22.5718 23.7173 22.5378C25.4859 22.5284 27.1823 21.8357 28.4519 20.6045C29.7215 19.3733 30.466 17.699 30.5298 15.9316Z" fill="url(#paint0_linear_855_8507)"/>
<path d="M16.1795 13.6843C17.4736 13.6843 18.5226 12.6352 18.5226 11.3412C18.5226 10.0471 17.4736 8.99805 16.1795 8.99805C14.8855 8.99805 13.8364 10.0471 13.8364 11.3412C13.8364 12.6352 14.8855 13.6843 16.1795 13.6843Z" fill="white"/>
<path d="M22.5653 15.5748C23.6031 15.5748 24.4444 14.7295 24.4444 13.6868C24.4444 12.6441 23.6031 11.7988 22.5653 11.7988C21.5275 11.7988 20.6862 12.6441 20.6862 13.6868C20.6862 14.7295 21.5275 15.5748 22.5653 15.5748Z" fill="white"/>
<path d="M18.5227 7.73923C19.2473 7.73923 19.8347 7.15183 19.8347 6.42723C19.8347 5.70264 19.2473 5.11523 18.5227 5.11523C17.7981 5.11523 17.2107 5.70264 17.2107 6.42723C17.2107 7.15183 17.7981 7.73923 18.5227 7.73923Z" fill="white"/>
<path d="M31.008 30.756H15.5414C15.0489 30.756 14.7591 29.9684 15.0383 29.5631L20.3716 21.796C20.443 21.6913 20.4808 21.5672 20.48 21.4404V16.3062C20.4798 16.2658 20.4716 16.2259 20.4559 16.1887C20.4403 16.1514 20.4174 16.1177 20.3887 16.0893C20.36 16.0609 20.3259 16.0384 20.2885 16.0232C20.2511 16.0079 20.2111 16.0002 20.1707 16.0004H19.8845C19.7223 16.0004 19.5667 15.936 19.452 15.8213C19.3374 15.7066 19.2729 15.5511 19.2729 15.3889V15.1116C19.2729 14.9494 19.3374 14.7938 19.452 14.6791C19.5667 14.5644 19.7223 14.5 19.8845 14.5H26.6667C26.8289 14.5 26.9844 14.5644 27.0991 14.6791C27.2138 14.7938 27.2783 14.9494 27.2783 15.1116V15.3871C27.2785 15.4676 27.2628 15.5473 27.2322 15.6217C27.2016 15.6961 27.1566 15.7637 27.0998 15.8207C27.043 15.8777 26.9755 15.9229 26.9011 15.9537C26.8268 15.9846 26.7472 16.0004 26.6667 16.0004H26.3805C26.2994 16.0004 26.2216 16.0327 26.1643 16.09C26.1069 16.1473 26.0747 16.2251 26.0747 16.3062V21.4529C26.0725 21.5799 26.1104 21.7043 26.1831 21.8084L31.5165 29.5631C31.792 29.9596 31.5005 30.756 31.008 30.756Z" fill="#50E6FF"/>
<path d="M17.3262 28.6715L21.3742 22.7693C21.5439 22.5231 21.6344 22.231 21.6338 21.932V19.5551C21.6338 19.4301 21.6834 19.3103 21.7718 19.222C21.8601 19.1336 21.98 19.084 22.1049 19.084H24.4018C24.5267 19.084 24.6466 19.1336 24.7349 19.222C24.8233 19.3103 24.8729 19.4301 24.8729 19.5551V22.0938C24.873 22.2954 24.935 22.4921 25.0507 22.6573L29.184 28.6715C29.2195 28.7247 29.24 28.7864 29.2433 28.8501C29.2467 28.9139 29.2329 28.9774 29.2032 29.034C29.1736 29.0905 29.1292 29.1381 29.0749 29.1716C29.0205 29.2051 28.9581 29.2234 28.8942 29.2244H17.616C17.5522 29.2234 17.4898 29.2051 17.4354 29.1716C17.381 29.1381 17.3367 29.0905 17.3071 29.034C17.2774 28.9774 17.2635 28.9139 17.2669 28.8501C17.2703 28.7864 17.2908 28.7247 17.3262 28.6715Z" fill="white"/>
<path d="M21.2427 26.7281L22.0658 28.6339C22.075 28.6562 22.0907 28.6752 22.111 28.6882C22.1313 28.7012 22.1551 28.7077 22.1792 28.7067C22.2033 28.7058 22.2265 28.6974 22.2456 28.6828C22.2648 28.6681 22.279 28.648 22.2863 28.625L23.1467 26.0739C23.1537 26.0516 23.1672 26.0318 23.1854 26.0172C23.2037 26.0026 23.2259 25.9937 23.2492 25.9918C23.2725 25.9899 23.2958 25.995 23.3162 26.0065C23.3366 26.0179 23.3531 26.0352 23.3636 26.0561L24.0641 27.3912C24.0745 27.4093 24.0896 27.4243 24.1077 27.4348C24.1258 27.4452 24.1463 27.4507 24.1672 27.4507C24.1881 27.4507 24.2086 27.4452 24.2267 27.4348C24.2448 27.4243 24.2598 27.4093 24.2703 27.3912L25.2054 25.8108C25.2158 25.7927 25.2309 25.7778 25.249 25.7675C25.2671 25.7571 25.2877 25.7518 25.3085 25.7521H27.1876L26.8054 25.1992C26.7946 25.1833 26.78 25.1702 26.763 25.1612C26.7459 25.1522 26.7269 25.1476 26.7076 25.1477H24.9636C24.943 25.1474 24.9226 25.1525 24.9045 25.1625C24.8865 25.1725 24.8713 25.187 24.8605 25.2046L24.3023 26.1503C24.2922 26.1689 24.2773 26.1844 24.2592 26.1952C24.241 26.206 24.2203 26.2117 24.1992 26.2117C24.1781 26.2117 24.1573 26.206 24.1392 26.1952C24.121 26.1844 24.1061 26.1689 24.0961 26.1503L23.241 24.5237C23.2305 24.5028 23.214 24.4855 23.1936 24.474C23.1732 24.4626 23.1498 24.4575 23.1265 24.4594C23.1032 24.4613 23.081 24.4701 23.0627 24.4847C23.0445 24.4994 23.031 24.5191 23.0241 24.5414L22.2223 26.9379C22.215 26.9609 22.2008 26.981 22.1816 26.9957C22.1625 27.0103 22.1393 27.0187 22.1152 27.0196C22.0911 27.0206 22.0673 27.0141 22.047 27.0011C22.0267 26.9881 22.011 26.9691 22.0018 26.9468L21.3138 25.3468C21.3043 25.3268 21.2893 25.31 21.2706 25.2982C21.2518 25.2865 21.2302 25.2802 21.2081 25.2802C21.186 25.2802 21.1643 25.2865 21.1456 25.2982C21.1269 25.31 21.1119 25.3268 21.1023 25.3468L20.1263 27.1246C20.1158 27.1431 20.1005 27.1585 20.0821 27.1691C20.0636 27.1797 20.0427 27.1852 20.0214 27.185H18.4214C18.4022 27.1852 18.3833 27.19 18.3663 27.1989C18.3493 27.2079 18.3346 27.2208 18.3236 27.2366L17.9432 27.7894H20.3734C20.3947 27.7897 20.4156 27.7842 20.4341 27.7735C20.4525 27.7629 20.4678 27.7475 20.4783 27.729L21.0312 26.7246C21.0411 26.7048 21.0564 26.6882 21.0753 26.6767C21.0942 26.6653 21.116 26.6594 21.1381 26.6598C21.1602 26.6601 21.1817 26.6667 21.2003 26.6788C21.2188 26.6909 21.2335 26.708 21.2427 26.7281Z" fill="#86D633"/>
</g>
<defs>
<linearGradient id="paint0_linear_855_8507" x1="15.4542" y1="22.6249" x2="15.4542" y2="1.25424" gradientUnits="userSpaceOnUse">
<stop stop-color="#0078D4"/>
<stop offset="0.105" stop-color="#1480DA"/>
<stop offset="0.306" stop-color="#348EE3"/>
<stop offset="0.5" stop-color="#4B98EA"/>
<stop offset="0.682" stop-color="#599EEE"/>
<stop offset="0.84" stop-color="#5EA0EF"/>
</linearGradient>
<clipPath id="clip0_855_8507">
<rect width="32" height="32" fill="white"/>
</clipPath>
</defs>
</svg>
