<svg width="32" height="32" viewBox="0 0 32 32" fill="none" xmlns="http://www.w3.org/2000/svg">
<g clip-path="url(#clip0_855_8584)">
<path d="M20.6684 0H11.3333C10.9396 0 10.6204 0.319171 10.6204 0.712889V10.048C10.6204 10.4417 10.9396 10.7609 11.3333 10.7609H20.6684C21.0621 10.7609 21.3813 10.4417 21.3813 10.048V0.712889C21.3813 0.319171 21.0621 0 20.6684 0Z" fill="#A67AF4"/>
<path d="M20.2524 9.81785H11.7528C11.648 9.81785 11.5626 9.73252 11.5626 9.62585V1.13341C11.5626 1.02852 11.648 0.943184 11.7528 0.941406H20.2471C20.352 0.941406 20.4391 1.02674 20.4391 1.13341V9.62585C20.4391 9.72896 20.3573 9.81429 20.2524 9.81785Z" fill="#773ADC"/>
<path d="M15.0382 1.74805H12.8035V9.01383H15.0382V1.74805Z" fill="#B796F9"/>
<path d="M19.1964 1.74609H16.9617V9.01365H19.1964V1.74609Z" fill="#B796F9"/>
<path d="M14.3022 19.1886C14.8213 18.9984 15.3653 18.9024 15.9182 18.9024C16.4569 18.9024 16.9884 18.9949 17.4969 19.1762L21.3795 20.5611V12.8437C21.3795 12.4509 21.0613 12.1309 20.6666 12.1309H11.3333C10.9404 12.1309 10.6204 12.4491 10.6204 12.8437V20.5362L14.3022 19.1886Z" fill="#A67AF4"/>
<path d="M14.3022 19.188C14.8213 18.9978 15.3653 18.9018 15.9182 18.9018C16.4568 18.9018 16.9884 18.9942 17.4968 19.1756L20.4373 20.2244V13.2662C20.4373 13.1613 20.352 13.0742 20.2453 13.0742H11.7528C11.648 13.0742 11.5626 13.1596 11.5626 13.2662V20.1924L14.3022 19.1898V19.188Z" fill="#773ADC"/>
<path d="M17.4968 19.1747L19.1964 19.781V13.877H16.9617V19.0218C17.1431 19.0627 17.3208 19.1107 17.4968 19.173V19.1747Z" fill="#B796F9"/>
<path d="M14.3022 19.1893C14.5422 19.1004 14.7893 19.0346 15.0382 18.9884V13.8809H12.8035V19.7386L14.3022 19.1893Z" fill="#B796F9"/>
<path d="M9.3582 4.27734H2.06043C1.69776 4.27734 1.40265 4.57246 1.40265 4.93512V13.552C1.40265 13.9147 1.69776 14.2098 2.06043 14.2098H9.3582V4.27734Z" fill="#A67AF4"/>
<path d="M9.3582 5.14648H2.4462C2.34843 5.14648 2.2702 5.22648 2.2702 5.32248V13.1625C2.2702 13.2603 2.34843 13.3385 2.4462 13.3385H9.35642L9.3582 5.14648Z" fill="#773ADC"/>
<path d="M5.48087 5.89062H3.41687V12.5982H5.48087V5.89062Z" fill="#B796F9"/>
<path d="M9.35819 5.88867H7.29419V12.598H9.35819V5.88867Z" fill="#B796F9"/>
<path d="M4.9902 20.4739C5.41154 20.3193 5.85243 20.2411 6.30043 20.2411C6.73776 20.2411 7.16976 20.3157 7.58043 20.4633L9.35643 21.0962V15.4375H2.06043C1.69776 15.4375 1.40265 15.7326 1.40265 16.0953V21.7877L4.99198 20.4739H4.9902Z" fill="#A67AF4"/>
<path d="M4.9902 20.4738C5.41154 20.3191 5.85242 20.2409 6.30043 20.2409C6.73776 20.2409 7.16976 20.3155 7.58042 20.4631L9.35642 21.096V16.3066H2.4462C2.34843 16.3066 2.2702 16.3866 2.2702 16.4826V21.4675L4.9902 20.472V20.4738Z" fill="#773ADC"/>
<path d="M7.6213 20.4641L9.35819 21.0846V17.0508H7.29419V20.3646C7.40441 20.393 7.51286 20.4268 7.6213 20.4641Z" fill="#B796F9"/>
<path d="M4.9902 20.475C5.1502 20.4163 5.31376 20.3718 5.48087 20.3363V17.0527H3.41687V21.0527L4.9902 20.475Z" fill="#B796F9"/>
<path d="M26.9085 20.4739C26.4871 20.3193 26.0462 20.2411 25.5982 20.2411C25.1609 20.2411 24.7289 20.3157 24.3182 20.4633L22.5422 21.0962V15.4375H29.84C30.2027 15.4375 30.4978 15.7326 30.4978 16.0953V21.7877L26.9085 20.4739Z" fill="#A67AF4"/>
<path d="M26.9085 20.4738C26.4871 20.3191 26.0462 20.2409 25.5982 20.2409C25.1609 20.2409 24.7289 20.3155 24.3182 20.4631L22.5422 21.096V16.3066H29.4525C29.5502 16.3066 29.6285 16.3866 29.6285 16.4826V21.4675L26.9085 20.472V20.4738Z" fill="#773ADC"/>
<path d="M24.2774 20.4641L22.5405 21.0846V17.0508H24.6045V20.3646C24.4942 20.393 24.3858 20.4268 24.2774 20.4641Z" fill="#B796F9"/>
<path d="M26.9085 20.475C26.7485 20.4163 26.5849 20.3718 26.4178 20.3363V17.0527H28.4818V21.0527L26.9085 20.475Z" fill="#B796F9"/>
<path d="M22.5422 4.27734H29.84C30.2027 4.27734 30.4978 4.57246 30.4978 4.93512V13.552C30.4978 13.9147 30.2027 14.2098 29.84 14.2098H22.5422V4.27734Z" fill="#A67AF4"/>
<path d="M22.5422 5.14648H29.4525C29.5502 5.14648 29.6285 5.22648 29.6285 5.32248V13.1625C29.6285 13.2603 29.5502 13.3385 29.4525 13.3385H22.5422V5.14648Z" fill="#773ADC"/>
<path d="M28.4818 5.89062H26.4178V12.5982H28.4818V5.89062Z" fill="#B796F9"/>
<path d="M24.6062 5.88867H22.5422V12.598H24.6062V5.88867Z" fill="#B796F9"/>
<path d="M31.9787 31.9869H0L0.00711111 30.1878C0.147556 30.2002 0.298667 30.2073 0.458667 30.2073C1.74933 30.2055 2.39644 29.7913 3.04356 29.3771C3.69244 28.9629 4.34133 28.5469 5.63733 28.5469H5.64267C6.94044 28.5469 7.58756 28.9611 8.23644 29.3771C8.88533 29.7913 9.53244 30.2073 10.8284 30.2073C12.1244 30.2073 12.7716 29.7913 13.4204 29.3771C14.0693 28.9629 14.7182 28.5469 16.0142 28.5469H16.0196C16.3431 28.5469 16.624 28.5735 16.8764 28.618C17.6444 28.7549 18.1351 29.066 18.624 29.3789C19.2729 29.7931 19.92 30.2055 21.2124 30.2073C22.5067 30.2073 23.1538 29.7913 23.8009 29.3771C24.4498 28.9629 25.0987 28.5469 26.3947 28.5469H26.4196C27.7084 28.554 28.3573 28.9664 29.0044 29.3789C29.6533 29.7931 30.3022 30.2073 31.5982 30.2073C31.7316 30.2073 31.856 30.2038 31.9769 30.1949V31.9869H31.9787Z" fill="#83B9F9"/>
<path d="M0.16354 24.1664L1.62132 27.2988L1.66754 27.3984L2.05865 28.2802L2.28621 28.8011C2.37687 28.746 2.46754 28.6908 2.56354 28.6304C3.2391 28.1984 4.07999 27.6597 5.64087 27.6597C7.20176 27.6597 8.0391 28.1984 8.71465 28.6304C9.03287 28.8331 9.3191 29.0108 9.66754 29.1353L9.23554 28.2393L9.21065 28.1877L9.15376 28.0668L7.35643 24.2055L7.33332 24.1575L7.31554 24.106C7.3031 24.0722 7.19465 23.7611 7.12354 23.4553C7.05065 23.1424 6.99554 22.7744 7.14665 22.4135C7.3031 22.0366 7.58576 21.7291 7.9431 21.5388L7.28176 21.3024C6.63999 21.0731 5.93599 21.0766 5.29598 21.3113L1.34754 22.7566L0.316429 23.1353C0.177762 23.1868 0.0657623 23.2935 0.00887344 23.4304C-0.0124599 23.4837 0.00531788 23.6046 0.0355401 23.7344C0.0835401 23.9406 0.16354 24.1682 0.16354 24.1682V24.1664Z" fill="#0078D4"/>
<path d="M8.35199 23.7399L10.1493 27.6012L10.2062 27.7221L10.9404 29.3096C11.8898 29.2847 12.3644 28.9985 12.9404 28.6287C13.616 28.1967 14.4569 27.6581 16.0178 27.6581C16.3804 27.6581 16.7129 27.6865 17.0311 27.7434C17.9751 27.9105 18.5742 28.2927 19.1022 28.6305C19.6284 28.9665 20.08 29.2279 20.8693 29.2919L21.6515 27.7399L21.6693 27.7452L21.7404 27.6012L21.8364 27.4074L21.9164 27.2456L23.6338 23.7452C23.6338 23.7452 23.9075 23.0074 23.8364 22.835C23.7671 22.6625 23.6267 22.5292 23.4507 22.4652L21.9964 21.9461L17.1253 20.2074C16.3324 19.9247 15.4667 19.9283 14.6773 20.2181L9.80976 22.0012L8.53865 22.467C8.36799 22.5292 8.22932 22.6607 8.15999 22.8296C8.13332 22.8936 8.15465 23.0447 8.19199 23.203C8.25065 23.4572 8.35021 23.7381 8.35021 23.7381L8.35199 23.7399Z" fill="#0078D4"/>
<path d="M24.8302 22.4117C24.9795 22.7726 24.9262 23.1424 24.8533 23.4535C24.7822 23.7575 24.6738 24.0686 24.6613 24.1042L24.6435 24.1557L24.6204 24.2037L22.8231 28.0651L22.7662 28.186L22.7413 28.2375L22.2986 29.1531C22.6773 29.0268 22.9831 28.8437 23.3209 28.6286C23.9822 28.2055 24.8018 27.6811 26.3573 27.6615H26.4231C27.9733 27.6668 28.8089 28.202 29.4826 28.6304C29.5591 28.6784 29.6302 28.7211 29.7049 28.7673L29.9182 28.2802L30.3093 27.3984L30.3555 27.3006L31.8133 24.1682C31.8133 24.1682 31.8933 23.9406 31.9413 23.7344C31.9715 23.6046 31.9893 23.4837 31.968 23.4304C31.9111 23.2935 31.7991 23.1868 31.6604 23.1353L30.6293 22.7584L26.6809 21.3113C26.0409 21.0766 25.3369 21.0731 24.6951 21.3024L24.0338 21.5388C24.3893 21.7291 24.6738 22.0348 24.8302 22.4117Z" fill="#0078D4"/>
</g>
<defs>
<clipPath id="clip0_855_8584">
<rect width="32" height="32" fill="white"/>
</clipPath>
</defs>
</svg>
