<svg width="32" height="32" viewBox="0 0 32 32" fill="none" xmlns="http://www.w3.org/2000/svg">
<g clip-path="url(#clip0_855_8603)">
<path d="M15.2672 1.19161L1.17534 15.2835C0.779605 15.6792 0.779605 16.3208 1.17534 16.7165L15.2672 30.8084C15.6629 31.2041 16.3045 31.2041 16.7003 30.8084L30.7921 16.7165C31.1878 16.3208 31.1878 15.6792 30.7921 15.2835L16.7003 1.19161C16.3045 0.795881 15.6629 0.79588 15.2672 1.19161Z" fill="url(#paint0_linear_855_8603)"/>
<path d="M12.5333 8.32078L15.8756 4.97855C15.9088 4.94598 15.9535 4.92773 16 4.92773C16.0465 4.92773 16.0912 4.94598 16.1244 4.97855L19.5556 8.32078C19.5838 8.34257 19.604 8.3732 19.6128 8.40778C19.6217 8.44235 19.6187 8.4789 19.6044 8.5116C19.5901 8.5443 19.5653 8.57128 19.5339 8.58824C19.5025 8.60521 19.4663 8.61118 19.4311 8.60522H17.3867C17.3395 8.60522 17.2943 8.62395 17.261 8.65729C17.2276 8.69063 17.2089 8.73585 17.2089 8.783V13.103C17.2089 13.1454 17.192 13.1861 17.162 13.2161C17.132 13.2461 17.0913 13.263 17.0489 13.263H14.9689C14.9464 13.2655 14.9237 13.2632 14.9022 13.2563C14.8807 13.2494 14.8609 13.238 14.8441 13.2229C14.8273 13.2078 14.8139 13.1893 14.8047 13.1686C14.7956 13.148 14.791 13.1256 14.7911 13.103V8.783C14.7913 8.73877 14.7751 8.69605 14.7455 8.66318C14.7159 8.63031 14.6751 8.60964 14.6311 8.60522H12.6578C12.6263 8.60217 12.5962 8.59076 12.5706 8.57218C12.5449 8.5536 12.5247 8.52852 12.5121 8.49953C12.4994 8.47054 12.4947 8.43868 12.4984 8.40726C12.5021 8.37584 12.5142 8.34598 12.5333 8.32078ZM19.5556 23.6808L16.1244 27.023C16.0912 27.0556 16.0465 27.0738 16 27.0738C15.9535 27.0738 15.9088 27.0556 15.8756 27.023L12.5333 23.6808C12.5142 23.6556 12.5021 23.6257 12.4984 23.5943C12.4947 23.5629 12.4994 23.531 12.5121 23.502C12.5247 23.473 12.5449 23.4479 12.5706 23.4294C12.5962 23.4108 12.6263 23.3994 12.6578 23.3963H14.6311C14.6751 23.3919 14.7159 23.3712 14.7455 23.3384C14.7751 23.3055 14.7913 23.2628 14.7911 23.2186V18.8986C14.791 18.876 14.7956 18.8536 14.8047 18.8329C14.8139 18.8123 14.8273 18.7937 14.8441 18.7786C14.8609 18.7635 14.8807 18.7521 14.9022 18.7452C14.9237 18.7383 14.9464 18.736 14.9689 18.7386H17.0489C17.0913 18.7386 17.132 18.7554 17.162 18.7854C17.192 18.8154 17.2089 18.8561 17.2089 18.8986V23.2186C17.2089 23.2657 17.2276 23.3109 17.261 23.3443C17.2943 23.3776 17.3395 23.3963 17.3867 23.3963H19.3422C19.3799 23.368 19.4274 23.3559 19.474 23.3626C19.5207 23.3692 19.5628 23.3942 19.5911 23.4319C19.6194 23.4696 19.6315 23.517 19.6249 23.5637C19.6182 23.6104 19.5933 23.6525 19.5556 23.6808ZM9.49334 19.2719V17.3163C9.48933 17.2705 9.46931 17.2276 9.4368 17.1951C9.40429 17.1626 9.36136 17.1426 9.31556 17.1386H4.99556C4.95133 17.1388 4.90861 17.1225 4.87574 17.0929C4.84287 17.0633 4.8222 17.0226 4.81778 16.9786V14.8986C4.82178 14.8527 4.8418 14.8098 4.87431 14.7773C4.90682 14.7448 4.94975 14.7248 4.99556 14.7208H9.31556C9.35978 14.721 9.4025 14.7047 9.43537 14.6751C9.46825 14.6456 9.48891 14.6048 9.49334 14.5608V12.5874C9.47975 12.5505 9.48027 12.5099 9.49477 12.4733C9.50927 12.4367 9.53675 12.4067 9.57195 12.3891C9.60716 12.3715 9.64761 12.3675 9.68558 12.3779C9.72355 12.3882 9.75638 12.4122 9.77778 12.4452L13.12 15.823C13.1356 15.8379 13.148 15.8559 13.1565 15.8757C13.165 15.8956 13.1693 15.917 13.1693 15.9386C13.1693 15.9601 13.165 15.9815 13.1565 16.0014C13.148 16.0212 13.1356 16.0392 13.12 16.0541L9.77778 19.3963C9.75598 19.4246 9.72536 19.4448 9.69078 19.4536C9.6562 19.4625 9.61966 19.4595 9.58696 19.4452C9.55426 19.4309 9.52728 19.4061 9.51031 19.3747C9.49335 19.3433 9.48737 19.3071 9.49334 19.2719ZM22.5067 12.5874V14.5608C22.5111 14.6048 22.5318 14.6456 22.5646 14.6751C22.5975 14.7047 22.6402 14.721 22.6844 14.7208H27.0044C27.0502 14.7248 27.0932 14.7448 27.1257 14.7773C27.1582 14.8098 27.1782 14.8527 27.1822 14.8986V16.9786C27.1778 17.0226 27.1571 17.0633 27.1243 17.0929C27.0914 17.1225 27.0487 17.1388 27.0044 17.1386H22.6844C22.6386 17.1426 22.5957 17.1626 22.5632 17.1951C22.5307 17.2276 22.5107 17.2705 22.5067 17.3163V19.2719C22.5126 19.3071 22.5067 19.3433 22.4897 19.3747C22.4727 19.4061 22.4457 19.4309 22.413 19.4452C22.3803 19.4595 22.3438 19.4625 22.3092 19.4536C22.2746 19.4448 22.244 19.4246 22.2222 19.3963L18.88 16.0008C18.8644 15.9858 18.852 15.9679 18.8435 15.948C18.835 15.9282 18.8307 15.9068 18.8307 15.8852C18.8307 15.8636 18.835 15.8423 18.8435 15.8224C18.852 15.8025 18.8644 15.7846 18.88 15.7697L22.2222 12.4452C22.2436 12.4122 22.2765 12.3882 22.3144 12.3779C22.3524 12.3675 22.3928 12.3715 22.428 12.3891C22.4633 12.4067 22.4907 12.4367 22.5052 12.4733C22.5197 12.5099 22.5202 12.5505 22.5067 12.5874Z" fill="white"/>
</g>
<defs>
<linearGradient id="paint0_linear_855_8603" x1="15.9937" y1="31.6241" x2="15.9937" y2="3.23294" gradientUnits="userSpaceOnUse">
<stop stop-color="#258277"/>
<stop offset="0.42" stop-color="#49A498"/>
<stop offset="0.78" stop-color="#60BAAD"/>
<stop offset="1" stop-color="#68C2B5"/>
</linearGradient>
<clipPath id="clip0_855_8603">
<rect width="32" height="32" fill="white"/>
</clipPath>
</defs>
</svg>
