<svg width="32" height="32" viewBox="0 0 32 32" fill="none" xmlns="http://www.w3.org/2000/svg">
<g clip-path="url(#clip0_855_8574)">
<path d="M31.2729 0.742739C31.0414 0.511739 30.7667 0.328625 30.4644 0.203863C30.1621 0.0791008 29.8381 0.0151371 29.5111 0.0156278H11.6338C10.9747 0.0188988 10.3435 0.282171 9.87749 0.748221C9.41144 1.21427 9.14817 1.84543 9.1449 2.50452V20.3979C9.14817 21.0569 9.41144 21.6881 9.87749 22.1541C10.3435 22.6202 10.9747 22.8835 11.6338 22.8867H29.5111C30.1712 22.8867 30.8043 22.6245 31.271 22.1578C31.7378 21.691 32 21.0579 32 20.3979V2.50096C32.0001 1.84172 31.7386 1.20939 31.2729 0.742739Z" fill="#773ADC"/>
<path d="M26.464 5.55133C25.9973 5.08567 25.365 4.82417 24.7058 4.82422H6.82489C6.1658 4.82749 5.53464 5.09076 5.06859 5.55681C4.60254 6.02286 4.33927 6.65402 4.336 7.31311V25.2064C4.33927 25.8655 4.60254 26.4967 5.06859 26.9627C5.53464 27.4288 6.1658 27.6921 6.82489 27.6953H24.7111C25.3712 27.6953 26.0043 27.4331 26.471 26.9664C26.9378 26.4996 27.2 25.8665 27.2 25.2064V7.30955C27.1989 6.9825 27.1333 6.65888 27.007 6.35719C26.8807 6.05551 26.6962 5.78167 26.464 5.55133Z" fill="url(#paint0_linear_855_8574)"/>
<path d="M20.3662 31.9844H2.48889C1.8298 31.9811 1.19864 31.7179 0.732593 31.2518C0.266543 30.7858 0.00327096 30.1546 0 29.4955L0 11.6022C0.00327096 10.9431 0.266543 10.3119 0.732593 9.84587C1.19864 9.37982 1.8298 9.11655 2.48889 9.11328H20.3662C21.0263 9.11328 21.6594 9.3755 22.1261 9.84226C22.5929 10.309 22.8551 10.9421 22.8551 11.6022V29.4991C22.8551 30.1592 22.5929 30.7922 22.1261 31.259C21.6594 31.7257 21.0263 31.9879 20.3662 31.9879V31.9844Z" fill="url(#paint1_linear_855_8574)"/>
<path d="M7.96443 24.2441C7.80772 24.2479 7.65889 24.3136 7.55058 24.4269C7.44227 24.5402 7.38332 24.6919 7.38666 24.8486V26.0575C7.38429 26.1355 7.39738 26.2133 7.42519 26.2862C7.45299 26.3592 7.49495 26.4259 7.54865 26.4826C7.60235 26.5393 7.66674 26.5848 7.7381 26.6165C7.80945 26.6481 7.88638 26.6654 7.96443 26.6673H18.9173C18.9948 26.6654 19.0712 26.6483 19.1421 26.6169C19.213 26.5855 19.2771 26.5405 19.3306 26.4844C19.384 26.4282 19.426 26.3621 19.4539 26.2898C19.4818 26.2174 19.4952 26.1403 19.4933 26.0628V24.8539C19.4952 24.7764 19.4818 24.6993 19.4539 24.6269C19.426 24.5546 19.384 24.4885 19.3306 24.4324C19.2771 24.3762 19.213 24.3312 19.1421 24.2998C19.0712 24.2684 18.9948 24.2513 18.9173 24.2495L7.96443 24.2441Z" fill="white"/>
<path d="M3.35822 24.8326C3.35822 24.6768 3.41997 24.5274 3.52995 24.4171C3.63992 24.3068 3.78913 24.2446 3.94489 24.2441H5.18933C5.3454 24.2441 5.49507 24.3061 5.60543 24.4165C5.71578 24.5268 5.77778 24.6765 5.77778 24.8326V26.077C5.77801 26.1546 5.76291 26.2315 5.73333 26.3032C5.70375 26.3749 5.66028 26.44 5.60543 26.4949C5.55058 26.5498 5.48542 26.5932 5.4137 26.6228C5.34199 26.6524 5.26513 26.6675 5.18756 26.6673H3.94311C3.78735 26.6668 3.63814 26.6046 3.52817 26.4943C3.4182 26.384 3.35644 26.2346 3.35645 26.0788L3.35822 24.8326Z" fill="white"/>
<path d="M7.96445 19.3418C7.80789 19.346 7.65934 19.4119 7.55112 19.5251C7.44291 19.6383 7.3838 19.7897 7.38667 19.9462V21.1551C7.38333 21.3118 7.44228 21.4635 7.55059 21.5768C7.65891 21.6901 7.80774 21.7558 7.96445 21.7596H18.9173C18.9949 21.7577 19.0712 21.7406 19.1421 21.7093C19.2131 21.6779 19.2771 21.6328 19.3306 21.5767C19.3841 21.5206 19.426 21.4544 19.4539 21.3821C19.4818 21.3098 19.4952 21.2326 19.4933 21.1551V19.9462C19.4967 19.7898 19.438 19.6384 19.33 19.5252C19.2221 19.4119 19.0737 19.346 18.9173 19.3418H7.96445Z" fill="white"/>
<path d="M3.35822 19.9302C3.35821 19.7745 3.41997 19.6251 3.52994 19.5148C3.63991 19.4045 3.78913 19.3423 3.94488 19.3418H5.18933C5.34539 19.3418 5.49506 19.4038 5.60542 19.5141C5.71577 19.6245 5.77777 19.7742 5.77777 19.9302V21.1747C5.7773 21.3304 5.7151 21.4797 5.60479 21.5896C5.49449 21.6996 5.34508 21.7614 5.18933 21.7614H3.94488C3.78929 21.7614 3.64007 21.6995 3.53005 21.5895C3.42002 21.4795 3.35822 21.3303 3.35822 21.1747V19.9302Z" fill="white"/>
<path d="M7.96445 14.4395C7.80774 14.4432 7.65891 14.5089 7.55059 14.6222C7.44228 14.7355 7.38333 14.8872 7.38667 15.0439V16.2528C7.3838 16.4094 7.44291 16.5607 7.55112 16.674C7.65934 16.7872 7.80789 16.853 7.96445 16.8572H18.9173C19.0737 16.853 19.2221 16.7871 19.33 16.6738C19.438 16.5606 19.4967 16.4092 19.4933 16.2528V15.0439C19.4952 14.9664 19.4818 14.8893 19.4539 14.8169C19.426 14.7446 19.3841 14.6785 19.3306 14.6223C19.2771 14.5662 19.2131 14.5212 19.1421 14.4898C19.0712 14.4584 18.9949 14.4413 18.9173 14.4395H7.96445Z" fill="white"/>
<path d="M3.35822 15.0261C3.35822 14.8705 3.42002 14.7213 3.53005 14.6113C3.64007 14.5013 3.78929 14.4395 3.94488 14.4395H5.18933C5.34508 14.4395 5.49449 14.5012 5.60479 14.6112C5.7151 14.7211 5.7773 14.8704 5.77777 15.0261V16.2706C5.77777 16.4266 5.71577 16.5763 5.60542 16.6867C5.49506 16.797 5.34539 16.859 5.18933 16.859H3.94488C3.78913 16.8585 3.63991 16.7963 3.52994 16.686C3.41997 16.5757 3.35821 16.4263 3.35822 16.2706V15.0261Z" fill="white"/>
</g>
<defs>
<linearGradient id="paint0_linear_855_8574" x1="15.6782" y1="24.5611" x2="16.0302" y2="-8.52512" gradientUnits="userSpaceOnUse">
<stop stop-color="#773ADC"/>
<stop offset="0.88" stop-color="#B796F9"/>
</linearGradient>
<linearGradient id="paint1_linear_855_8574" x1="11.4258" y1="40.4128" x2="11.4258" y2="5.62528" gradientUnits="userSpaceOnUse">
<stop stop-color="#773ADC"/>
<stop offset="0.869" stop-color="#B796F9"/>
</linearGradient>
<clipPath id="clip0_855_8574">
<rect width="32" height="32" fill="white"/>
</clipPath>
</defs>
</svg>
