<svg width="32" height="32" viewBox="0 0 32 32" fill="none" xmlns="http://www.w3.org/2000/svg">
<g clip-path="url(#clip0_855_8530)">
<path d="M10.5299 5.54378L9.70459 7.07812L19.3851 12.2851L20.2104 10.7507L10.5299 5.54378Z" fill="#003067"/>
<path d="M12.5884 7.46797V2.66797H0.58667V7.46797C0.58667 8.74086 3.27289 9.77908 6.58845 9.77908C9.904 9.77908 12.5884 8.74797 12.5884 7.46797Z" fill="url(#paint0_linear_855_8530)"/>
<path d="M6.59022 5.05331C9.90491 5.05331 12.592 4.02178 12.592 2.74931C12.592 1.47685 9.90491 0.445312 6.59022 0.445312C3.27553 0.445312 0.58844 1.47685 0.58844 2.74931C0.58844 4.02178 3.27553 5.05331 6.59022 5.05331Z" fill="#83B9F9"/>
<path d="M28.6489 15.3176V10.5176H16.6489V15.3176C16.6489 16.5905 19.3351 17.6287 22.6506 17.6287C25.9662 17.6287 28.6524 16.5976 28.6524 15.3176H28.6489Z" fill="url(#paint1_linear_855_8530)"/>
<path d="M22.6506 12.901C25.9653 12.901 28.6524 11.8694 28.6524 10.597C28.6524 9.3245 25.9653 8.29297 22.6506 8.29297C19.336 8.29297 16.6489 9.3245 16.6489 10.597C16.6489 11.8694 19.336 12.901 22.6506 12.901Z" fill="#83B9F9"/>
<path d="M7.46665 7.41016H5.72443V21.5648H7.46665V7.41016Z" fill="#003067"/>
<path d="M6.66669 7.99073C7.80268 7.99073 8.72358 7.06983 8.72358 5.93384C8.72358 4.79785 7.80268 3.87695 6.66669 3.87695C5.5307 3.87695 4.6098 4.79785 4.6098 5.93384C4.6098 7.06983 5.5307 7.99073 6.66669 7.99073Z" fill="#C3F1FF"/>
<path d="M12.5884 22.8V18H0.58667V22.8C0.58667 24.0729 3.27289 25.1111 6.58845 25.1111C9.904 25.1111 12.5884 24.08 12.5884 22.8Z" fill="url(#paint2_linear_855_8530)"/>
<path d="M6.59022 20.3795C9.90491 20.3795 12.592 19.3479 12.592 18.0755C12.592 16.803 9.90491 15.7715 6.59022 15.7715C3.27553 15.7715 0.58844 16.803 0.58844 18.0755C0.58844 19.3479 3.27553 20.3795 6.59022 20.3795Z" fill="#83B9F9"/>
<path d="M22.6396 12.5678L7.09351 20.1973L7.86107 21.7613L23.4072 14.1319L22.6396 12.5678Z" fill="#003067"/>
<path d="M6.57953 23.2817C7.71552 23.2817 8.63642 22.3608 8.63642 21.2249C8.63642 20.0889 7.71552 19.168 6.57953 19.168C5.44354 19.168 4.52264 20.0889 4.52264 21.2249C4.52264 22.3608 5.44354 23.2817 6.57953 23.2817Z" fill="#C3F1FF"/>
<path d="M22.6542 15.4771C23.7902 15.4771 24.7111 14.5562 24.7111 13.4202C24.7111 12.2842 23.7902 11.3633 22.6542 11.3633C21.5183 11.3633 20.5974 12.2842 20.5974 13.4202C20.5974 14.5562 21.5183 15.4771 22.6542 15.4771Z" fill="#C3F1FF"/>
<path d="M30.5173 27.5568C30.5128 27.4925 30.4946 27.4299 30.4639 27.3732C30.4333 27.3164 30.3909 27.2669 30.3395 27.2279C29.4955 26.3969 28.6033 25.6163 27.6675 24.8901C27.0068 24.3828 26.2524 24.0108 25.4477 23.7954C24.6429 23.58 23.8036 23.5255 22.9778 23.635C20.6155 24.0896 18.5028 25.3968 17.0418 27.3079C16.9795 27.3764 16.9431 27.4644 16.9387 27.5568C16.9435 27.6213 16.9618 27.684 16.9925 27.741C17.0231 27.7979 17.0653 27.8478 17.1164 27.8874C17.9637 28.7177 18.8582 29.4982 19.7955 30.2252C21.1301 31.2485 22.8163 31.6999 24.4835 31.4803C26.8457 31.0254 28.9582 29.7183 30.4195 27.8074C30.4822 27.7384 30.5192 27.6499 30.5244 27.5568H30.5173Z" fill="#003067"/>
<path d="M23.7884 30.8409C25.6009 30.8409 27.0702 29.3716 27.0702 27.5591C27.0702 25.7466 25.6009 24.2773 23.7884 24.2773C21.976 24.2773 20.5067 25.7466 20.5067 27.5591C20.5067 29.3716 21.976 30.8409 23.7884 30.8409Z" fill="#C3F1FF"/>
<path d="M23.8027 25.7397C23.7161 25.7497 23.6304 25.7669 23.5467 25.7913C23.6555 25.9432 23.7173 26.1237 23.7245 26.3104C23.724 26.5736 23.6191 26.8259 23.4328 27.0119C23.2465 27.1979 22.994 27.3024 22.7307 27.3024C22.4881 27.3009 22.2548 27.209 22.0765 27.0446C22.0121 27.2155 21.975 27.3955 21.9662 27.5779C21.9659 27.943 22.0738 28.2999 22.2764 28.6036C22.4789 28.9073 22.767 29.1441 23.1042 29.2841C23.4413 29.424 23.8124 29.4608 24.1705 29.3898C24.5286 29.3188 24.8575 29.1432 25.1158 28.8852C25.3741 28.6272 25.55 28.2984 25.6213 27.9404C25.6927 27.5824 25.6562 27.2112 25.5166 26.8739C25.377 26.5366 25.1405 26.2483 24.837 26.0455C24.5335 25.8426 24.1766 25.7344 23.8116 25.7344L23.8027 25.7397Z" fill="#003067"/>
<path d="M31.1627 23.9513C30.1561 23.0272 28.9955 22.2865 27.7333 21.7628L28.5102 20.3833C28.6136 20.1995 28.6416 19.9829 28.5885 19.7788C28.5477 19.63 28.4638 19.4966 28.3475 19.3952C28.2312 19.2938 28.0876 19.229 27.9346 19.2088C27.7816 19.1887 27.6261 19.2142 27.4875 19.2821C27.3489 19.3499 27.2335 19.4572 27.1556 19.5904L26.2045 21.2828C25.6705 21.1547 25.1271 21.0697 24.5796 21.0286V19.2953C24.57 19.0936 24.4831 18.9033 24.3369 18.764C24.1908 18.6246 23.9966 18.5469 23.7947 18.5469C23.5927 18.5469 23.3986 18.6246 23.2524 18.764C23.1063 18.9033 23.0194 19.0936 23.0098 19.2953V21.0268C22.4503 21.0675 21.8951 21.1531 21.3493 21.2828L20.3965 19.5904C20.2912 19.4129 20.1203 19.2839 19.9207 19.2313C19.7211 19.1788 19.5088 19.2069 19.3298 19.3095C19.1547 19.417 19.0277 19.5877 18.9751 19.7863C18.9225 19.9849 18.9483 20.1961 19.0471 20.3762C19.3067 20.8348 19.5656 21.2947 19.824 21.7557C18.5606 22.279 17.3988 23.0197 16.3911 23.9442C15.6409 24.6233 16.7467 25.722 17.5005 25.0535C19.2061 23.4641 21.4508 22.5803 23.7822 22.5803C26.1136 22.5803 28.3584 23.4641 30.064 25.0535C30.8018 25.7362 31.9129 24.6304 31.1627 23.9513Z" fill="#003067"/>
<path d="M43.3725 -6.5625H-8.77155V54.3459H43.3725V-6.5625Z" stroke="#B31B1B" stroke-miterlimit="10"/>
</g>
<defs>
<linearGradient id="paint0_linear_855_8530" x1="6.59022" y1="9.10886" x2="6.59022" y2="3.6653" gradientUnits="userSpaceOnUse">
<stop stop-color="#0078D4"/>
<stop offset="1" stop-color="#5EA0EF"/>
</linearGradient>
<linearGradient id="paint1_linear_855_8530" x1="22.6506" y1="18.77" x2="22.6506" y2="9.17536" gradientUnits="userSpaceOnUse">
<stop stop-color="#0078D4"/>
<stop offset="1" stop-color="#5EA0EF"/>
</linearGradient>
<linearGradient id="paint2_linear_855_8530" x1="6.59023" y1="24.3982" x2="6.59023" y2="18.4516" gradientUnits="userSpaceOnUse">
<stop stop-color="#0078D4"/>
<stop offset="1" stop-color="#5EA0EF"/>
</linearGradient>
<clipPath id="clip0_855_8530">
<rect width="32" height="32" fill="white"/>
</clipPath>
</defs>
</svg>
