<svg width="32" height="32" viewBox="0 0 32 32" fill="none" xmlns="http://www.w3.org/2000/svg">
<path d="M30.8854 14.3262H30.5138C30.289 14.3262 30.1067 14.5084 30.1067 14.7333V20.1182C30.1067 20.343 30.289 20.5253 30.5138 20.5253H30.8854C31.1102 20.5253 31.2925 20.343 31.2925 20.1182V14.7333C31.2925 14.5084 31.1102 14.3262 30.8854 14.3262Z" fill="#0078D4"/>
<path d="M30.8854 21.6953H30.5138C30.289 21.6953 30.1067 21.8776 30.1067 22.1024V23.5175C30.1067 23.7424 30.289 23.9246 30.5138 23.9246H30.8854C31.1102 23.9246 31.2925 23.7424 31.2925 23.5175V22.1024C31.2925 21.8776 31.1102 21.6953 30.8854 21.6953Z" fill="#0078D4"/>
<path d="M18.6773 10.0762H27.8525C27.9288 10.0762 28.0021 10.1065 28.0561 10.1605C28.1101 10.2145 28.1405 10.2878 28.1405 10.3642V12.4975H18.3893V10.3642C18.3893 10.2878 18.4197 10.2145 18.4737 10.1605C18.5277 10.1065 18.601 10.0762 18.6773 10.0762Z" fill="#005BA1"/>
<path d="M18.3893 27.2969H28.1422V29.3698C28.1422 29.4452 28.1122 29.5176 28.0589 29.5709C28.0055 29.6242 27.9332 29.6542 27.8578 29.6542H18.6666C18.5912 29.6542 18.5189 29.6242 18.4655 29.5709C18.4122 29.5176 18.3822 29.4452 18.3822 29.3698V27.2969H18.3893Z" fill="#005BA1"/>
<path d="M29.8596 11.8086H16.688C16.3237 11.8086 16.0284 12.1039 16.0284 12.4681V26.637C16.0284 27.0013 16.3237 27.2966 16.688 27.2966H29.8596C30.2238 27.2966 30.5191 27.0013 30.5191 26.637V12.4681C30.5191 12.1039 30.2238 11.8086 29.8596 11.8086Z" fill="url(#paint0_linear_855_8582)"/>
<path d="M28.8338 13.0898H17.8524C17.5481 13.0898 17.3013 13.3366 17.3013 13.641V25.465C17.3013 25.7693 17.5481 26.0161 17.8524 26.0161H28.8338C29.1381 26.0161 29.3849 25.7693 29.3849 25.465V13.641C29.3849 13.3366 29.1381 13.0898 28.8338 13.0898Z" fill="#005BA1"/>
<path d="M24.7947 13.9048C24.4808 13.88 24.1675 13.9601 23.904 14.1326C23.6405 14.305 23.4416 14.5601 23.3387 14.8577C23.2338 14.5602 23.033 14.3059 22.7678 14.135C22.5026 13.9641 22.1881 13.8863 21.8738 13.9137C20.5582 14.0221 20.4925 15.3252 20.5156 15.823C20.528 16.1786 20.6009 17.3004 23.3263 19.2452L23.3494 19.2612L23.3725 19.2435C26.0978 17.2879 26.1636 16.1395 26.1725 15.7697C26.1885 15.2879 26.112 14.0026 24.7947 13.9048Z" fill="url(#paint1_linear_855_8582)"/>
<path d="M29.3653 20.7997H25.8969C25.8802 20.8001 25.8638 20.8043 25.849 20.812C25.8342 20.8197 25.8214 20.8307 25.8116 20.8442L25.024 22.2006C25.009 22.2238 24.9855 22.2402 24.9586 22.2462C24.9316 22.2522 24.9034 22.2473 24.88 22.2326C24.8676 22.2238 24.8568 22.213 24.848 22.2006L23.7209 20.0673C23.7095 20.0434 23.6935 20.0221 23.6738 20.0044C23.6541 19.9868 23.6312 19.9732 23.6062 19.9645C23.5813 19.9557 23.5549 19.952 23.5285 19.9534C23.5021 19.9549 23.4763 19.9616 23.4524 19.9731C23.4108 19.9929 23.377 20.026 23.3564 20.0673L22.2756 23.2886C22.27 23.301 22.262 23.3122 22.2521 23.3215C22.2422 23.3308 22.2306 23.3381 22.2178 23.3429C22.2051 23.3477 22.1916 23.3499 22.178 23.3494C22.1644 23.349 22.151 23.3458 22.1387 23.3402C22.1172 23.3294 22.0997 23.3119 22.0889 23.2904L21.1698 21.1428C21.1574 21.1192 21.1405 21.0983 21.1201 21.0813C21.0996 21.0642 21.076 21.0513 21.0506 21.0434C21.0252 21.0355 20.9984 21.0327 20.9719 21.0351C20.9454 21.0375 20.9196 21.0451 20.896 21.0575C20.8597 21.0769 20.8301 21.1066 20.8107 21.1428L19.5431 23.4202C19.5348 23.4356 19.5225 23.4486 19.5075 23.4576C19.4925 23.4667 19.4753 23.4716 19.4578 23.4717H17.2444V24.2664H19.9289C19.9468 24.2681 19.9647 24.264 19.9801 24.2547C19.9955 24.2454 20.0074 24.2315 20.0142 24.2148L20.8036 22.7624C20.817 22.7386 20.8392 22.7211 20.8655 22.7134C20.8917 22.7058 20.9199 22.7087 20.944 22.7215C20.9617 22.7303 20.9761 22.7447 20.9849 22.7624L22.0658 25.2762C22.0842 25.3261 22.1217 25.3667 22.17 25.3891C22.2184 25.4114 22.2736 25.4136 22.3236 25.3953C22.351 25.3854 22.3759 25.3697 22.3965 25.3491C22.4171 25.3285 22.4328 25.3036 22.4427 25.2762L23.584 21.8984C23.5932 21.875 23.6111 21.8561 23.6341 21.8458C23.657 21.8355 23.6831 21.8346 23.7067 21.8433C23.7193 21.848 23.7307 21.8554 23.7402 21.8649C23.7497 21.8744 23.7571 21.8858 23.7618 21.8984L24.7129 23.7028C24.7378 23.7482 24.7793 23.7821 24.8288 23.7974C24.8782 23.8127 24.9317 23.8081 24.9778 23.7846C25.0116 23.7654 25.0393 23.737 25.0578 23.7028L26.2702 21.6637C26.2785 21.6486 26.2906 21.636 26.3052 21.6269C26.3198 21.6179 26.3366 21.6128 26.3538 21.6122H29.36L29.3653 20.7997Z" fill="white"/>
<path d="M15.312 12.557C15.3125 12.1922 15.4576 11.8425 15.7156 11.5845C15.9735 11.3266 16.3232 11.1815 16.688 11.181H17.6729V10.4521C17.6729 10.1855 17.7787 9.92988 17.967 9.74123C18.1553 9.55258 18.4108 9.44636 18.6773 9.44588H24.1405C23.8551 7.43601 22.8398 5.60155 21.2881 4.29256C19.7365 2.98358 17.7572 2.29171 15.728 2.349C13.9659 2.31688 12.2372 2.83301 10.7812 3.82602C9.32509 4.81903 8.21348 6.23987 7.60001 7.89211C5.73946 8.11788 4.02144 9.00299 2.75755 10.3869C1.49367 11.7708 0.767627 13.5619 0.711121 15.4352C0.791227 17.5426 1.7039 19.5322 3.24895 20.9676C4.79401 22.403 6.8453 23.1671 8.9529 23.0921H15.312V12.557Z" fill="url(#paint2_linear_855_8582)"/>
<defs>
<linearGradient id="paint0_linear_855_8582" x1="23.2747" y1="27.2966" x2="23.2747" y2="11.8086" gradientUnits="userSpaceOnUse">
<stop stop-color="#0078D4"/>
<stop offset="1" stop-color="#5EA0EF"/>
</linearGradient>
<linearGradient id="paint1_linear_855_8582" x1="23.344" y1="19.2612" x2="23.344" y2="13.8995" gradientUnits="userSpaceOnUse">
<stop offset="0.001" stop-color="#F78D1E"/>
<stop offset="1" stop-color="#FAA21D"/>
</linearGradient>
<linearGradient id="paint2_linear_855_8582" x1="12.4249" y1="2.34544" x2="12.4249" y2="23.0974" gradientUnits="userSpaceOnUse">
<stop offset="0.225" stop-color="#5EA0EF"/>
<stop offset="1" stop-color="#0078D4"/>
</linearGradient>
</defs>
</svg>
