<svg width="32" height="32" viewBox="0 0 32 32" fill="none" xmlns="http://www.w3.org/2000/svg">
<path d="M24.7876 27.2435C26.6612 27.2291 28.4571 26.4922 29.8008 25.1863C31.1445 23.8804 31.9323 22.1062 32 20.2337C31.9472 18.53 31.2904 16.9005 30.1471 15.6363C29.0037 14.3721 27.4481 13.5555 25.7582 13.3324C25.6555 10.9503 24.6186 8.70451 22.8721 7.08141C21.1255 5.4583 18.8099 4.5885 16.4267 4.66037C14.5 4.62413 12.6097 5.18753 11.0172 6.27263C9.42477 7.35773 8.20889 8.91089 7.53778 10.7173C5.50272 10.9656 3.6238 11.9343 2.24115 13.4481C0.858499 14.9618 0.063479 16.9205 0 18.9697C0.0898113 21.273 1.08885 23.4468 2.77827 25.0149C4.46769 26.583 6.70975 27.4177 9.01333 27.3359" fill="url(#paint0_linear_855_8536)"/>
<path d="M16.8409 27.3413V18.8524C16.7698 16.6369 15.8294 14.5384 14.2233 13.0107C12.6171 11.483 10.4741 10.649 8.25778 10.6889C6.04727 10.7509 3.94805 11.6723 2.40609 13.2574C0.86414 14.8425 0.000981449 16.9664 0 19.1778C0.129758 21.345 1.06642 23.3851 2.62546 24.8961C4.1845 26.4071 6.25288 27.2794 8.42311 27.3413H16.8409Z" fill="url(#paint1_linear_855_8536)"/>
<path d="M7.81155 14.2017C9.15134 11.7846 11.2804 9.90075 13.8426 8.86524C16.4049 7.82972 19.245 7.70531 21.888 8.5128C21.9074 8.51929 21.9248 8.53051 21.9388 8.54546C21.9527 8.5604 21.9627 8.57859 21.9678 8.59837C21.9729 8.61815 21.973 8.63889 21.9681 8.65872C21.9631 8.67855 21.9533 8.69683 21.9395 8.71191L19.2729 11.6488C19.2576 11.6657 19.2375 11.6777 19.2153 11.6831C19.1931 11.6885 19.1698 11.6871 19.1484 11.679C14.6898 10.2159 10.9333 10.9466 8.02311 14.3457C8.00362 14.3728 7.97432 14.3912 7.94146 14.397C7.90859 14.4028 7.87476 14.3955 7.84717 14.3768C7.81959 14.358 7.80042 14.3292 7.79377 14.2965C7.78712 14.2638 7.7935 14.2298 7.81155 14.2017Z" fill="#86D633"/>
<path d="M16.6631 14.7338L18.4889 12.7231C18.4991 12.7114 18.5065 12.6975 18.5103 12.6825C18.5141 12.6675 18.5142 12.6518 18.5107 12.6366C18.5073 12.6215 18.5003 12.6075 18.4903 12.5956C18.4803 12.5837 18.4676 12.5744 18.4534 12.5684C16.6703 11.7628 14.6609 11.6092 12.7762 12.1347C10.8914 12.6601 9.25126 13.8311 8.14225 15.4431C8.12861 15.4636 8.1228 15.4884 8.12586 15.5129C8.12892 15.5374 8.14066 15.5599 8.15895 15.5765C8.17723 15.5931 8.20085 15.6025 8.22551 15.6032C8.25017 15.6038 8.27424 15.5956 8.29336 15.58C10.7111 13.4164 13.52 13.5 16.5565 14.7533C16.574 14.7617 16.5938 14.7643 16.613 14.7608C16.6321 14.7573 16.6497 14.7478 16.6631 14.7338Z" fill="#86D633"/>
<path d="M14.8871 16.8788L15.9751 15.6877C15.9884 15.6721 15.998 15.6536 16.0032 15.6338C16.0083 15.6139 16.009 15.5932 16.0051 15.573C16.0011 15.5529 15.9927 15.5339 15.9805 15.5174C15.9682 15.501 15.9524 15.4875 15.9342 15.4779C14.6506 14.801 13.1735 14.585 11.7497 14.8662C10.326 15.1474 9.04191 15.9087 8.11201 17.0228C8.09835 17.0345 8.08713 17.0488 8.07898 17.0648C8.07083 17.0808 8.06591 17.0982 8.0645 17.1161C8.0631 17.1341 8.06524 17.1521 8.0708 17.1692C8.07636 17.1862 8.08523 17.2021 8.0969 17.2157C8.10857 17.2294 8.12282 17.2406 8.13883 17.2488C8.15484 17.2569 8.1723 17.2618 8.19021 17.2632C8.20812 17.2646 8.22614 17.2625 8.24322 17.2569C8.26031 17.2514 8.27613 17.2425 8.28979 17.2308C9.21649 16.5837 10.3069 16.2111 11.4359 16.1557C12.5648 16.1004 13.6865 16.3646 14.672 16.9179C14.7071 16.9363 14.7473 16.9424 14.7863 16.9354C14.8253 16.9283 14.8607 16.9084 14.8871 16.8788Z" fill="#86D633"/>
<path d="M22.6116 8.42918C22.5789 8.30163 22.5148 8.18432 22.425 8.08802C22.3353 7.99173 22.2227 7.91953 22.0978 7.87806C20.8982 7.47757 19.6416 7.27404 18.3769 7.2754C16.1061 7.30335 13.8824 7.9267 11.9279 9.08315C9.97348 10.2396 8.3567 11.8887 7.23912 13.8656C7.16602 13.9855 7.12646 14.1229 7.12458 14.2633C7.12271 14.4037 7.15858 14.542 7.22845 14.6638C7.32157 14.8233 7.46744 14.9453 7.6409 15.0087L7.61245 15.0425C7.52562 15.1558 7.47241 15.2912 7.45889 15.4333C7.44537 15.5754 7.4721 15.7184 7.53601 15.8461C7.58373 15.9403 7.6501 16.0239 7.73108 16.0917C7.81206 16.1596 7.90597 16.2103 8.00712 16.2407C7.95734 16.2923 7.90579 16.3367 7.85779 16.3901C7.72301 16.5348 7.64648 16.7242 7.6429 16.922C7.63932 17.1197 7.70894 17.3118 7.83839 17.4613C7.96783 17.6108 8.14797 17.7072 8.34417 17.7319C8.54038 17.7567 8.73881 17.7081 8.90134 17.5954C9.67898 17.0363 10.6264 16.7643 11.5822 16.8256C12.5561 16.8499 13.5127 17.0885 14.384 17.5243C14.5486 17.6032 14.7342 17.6272 14.9135 17.5926C15.0927 17.558 15.2561 17.4668 15.3796 17.3323L15.4169 17.2896L16.4676 16.1394C16.5496 16.0482 16.6097 15.9394 16.6433 15.8214C16.6769 15.7034 16.683 15.5793 16.6613 15.4585L16.6507 15.4212C16.8437 15.4096 17.0247 15.3235 17.1556 15.1812L17.7298 14.5518L18.9885 13.1723C19.0903 13.0621 19.1567 12.924 19.1792 12.7756C19.2017 12.6273 19.1792 12.4757 19.1147 12.3403C19.1378 12.3403 19.1609 12.351 19.184 12.351C19.2929 12.3511 19.4006 12.3285 19.5001 12.2844C19.5996 12.2403 19.6888 12.1757 19.7618 12.095L20.8978 10.8505L22.4338 9.1634C22.5224 9.06563 22.5852 8.9472 22.6162 8.81893C22.6473 8.69067 22.6457 8.55666 22.6116 8.42918ZM15.9751 15.6878L14.8871 16.879C14.8701 16.8978 14.8492 16.9128 14.8259 16.9229C14.8026 16.9331 14.7774 16.9381 14.752 16.9376C14.7225 16.9371 14.6935 16.9304 14.6667 16.9181C13.7077 16.4384 12.6542 16.1779 11.5822 16.1554C10.3979 16.1626 9.24527 16.5385 8.28445 17.231C8.26186 17.2479 8.23447 17.2572 8.20623 17.2576C8.17955 17.2565 8.15375 17.2477 8.13193 17.2323C8.11012 17.2169 8.09323 17.1955 8.08327 17.1707C8.07332 17.146 8.07074 17.1188 8.07584 17.0926C8.08094 17.0664 8.0935 17.0422 8.11201 17.023C8.71664 16.3214 9.46262 15.7553 10.3011 15.362C11.1396 14.9686 12.0517 14.7568 12.9778 14.7403C14.0101 14.7484 15.0257 15.0013 15.9413 15.4781C15.959 15.4882 15.9741 15.5022 15.9857 15.5189C15.9972 15.5357 16.0049 15.5548 16.0082 15.5749C16.0114 15.595 16.0101 15.6156 16.0044 15.6351C15.9987 15.6546 15.9887 15.6727 15.9751 15.6878ZM18.4889 12.7225L16.6631 14.7332C16.6548 14.7423 16.6446 14.7496 16.6333 14.7545C16.6219 14.7594 16.6097 14.7618 16.5973 14.7616C16.584 14.7616 16.5707 14.7592 16.5582 14.7545C15.3284 14.207 14.0034 13.905 12.6578 13.8656C11.0384 13.8569 9.47716 14.4689 8.29512 15.5758C8.27649 15.5925 8.25254 15.6019 8.22756 15.6025C8.20856 15.6025 8.18993 15.5973 8.17372 15.5873C8.15752 15.5774 8.14437 15.5632 8.13572 15.5463C8.12708 15.5294 8.12328 15.5104 8.12474 15.4915C8.1262 15.4725 8.13287 15.4543 8.14401 15.439C8.91869 14.3387 9.94258 13.4373 11.1321 12.8082C12.3216 12.1792 13.643 11.8403 14.9885 11.8194C16.1842 11.8258 17.3657 12.0794 18.4587 12.5643C18.4732 12.5707 18.4859 12.5805 18.4958 12.5929C18.5057 12.6053 18.5124 12.6199 18.5154 12.6355C18.5183 12.651 18.5175 12.6671 18.5129 12.6822C18.5083 12.6974 18.5 12.7112 18.4889 12.7225ZM21.9396 8.71006L19.2729 11.647C19.2621 11.6588 19.2489 11.6683 19.2342 11.6748C19.2195 11.6812 19.2036 11.6844 19.1876 11.6843C19.1747 11.6868 19.1614 11.6868 19.1485 11.6843C17.8317 11.2324 16.4516 10.9924 15.0596 10.9732C13.7069 10.966 12.3702 11.2663 11.1506 11.8514C9.93103 12.4366 8.86038 13.2913 8.01956 14.351C7.99883 14.3753 7.96971 14.3911 7.93795 14.3951C7.90618 14.399 7.87408 14.391 7.84797 14.3725C7.82186 14.3539 7.80363 14.3263 7.7969 14.295C7.79016 14.2637 7.79539 14.231 7.81156 14.2034C8.87674 12.3318 10.4114 10.7701 12.2641 9.67247C14.1168 8.5748 16.2237 7.979 18.3769 7.94384C19.5703 7.94276 20.756 8.13488 21.888 8.51273C21.9071 8.51934 21.9242 8.53054 21.9379 8.54535C21.9516 8.56015 21.9614 8.57811 21.9665 8.59762C21.9716 8.61714 21.9718 8.6376 21.9671 8.65722C21.9624 8.67683 21.953 8.69498 21.9396 8.71006Z" fill="white"/>
<path d="M3.73334 23.5358V22.4087C4.13527 22.6545 4.59734 22.7843 5.06845 22.7838C5.36675 22.8018 5.66186 22.7143 5.90223 22.5367C6.00109 22.455 6.07967 22.3515 6.1318 22.2342C6.18393 22.117 6.20819 21.9893 6.20267 21.8612C6.20267 21.2686 5.77482 20.9723 4.91912 20.9723C4.5542 20.9751 4.18976 20.9989 3.82756 21.0434L4.05867 17.7012H7.28889V18.7785H5.088L5.00267 19.9785C5.22134 19.9607 5.40978 19.9518 5.56978 19.9518C6.10543 19.9203 6.633 20.0938 7.04534 20.4372C7.22322 20.6029 7.36303 20.8052 7.45511 21.0302C7.54719 21.2551 7.58935 21.4974 7.57867 21.7403C7.58745 22.0185 7.53517 22.2953 7.42553 22.5511C7.31588 22.8069 7.15152 23.0357 6.944 23.2212C6.46329 23.624 5.84758 23.8292 5.22134 23.7954C4.71289 23.8103 4.2067 23.722 3.73334 23.5358Z" fill="white"/>
<path d="M13.3209 23.2886C12.6349 23.646 11.8682 23.8199 11.0951 23.7935C10.2453 23.8407 9.41066 23.5536 8.76977 22.9935C8.48129 22.7084 8.2563 22.3656 8.10954 21.9876C7.96279 21.6095 7.89759 21.2047 7.91821 20.7997C7.9013 20.3706 7.97541 19.9429 8.13566 19.5446C8.29591 19.1462 8.53868 18.7863 8.84799 18.4886C9.1815 18.1851 9.57159 17.9504 9.99592 17.7979C10.4202 17.6453 10.8705 17.578 11.3209 17.5997C11.903 17.589 12.4826 17.678 13.0347 17.8628V19.1286C12.5025 18.8457 11.9055 18.7072 11.3031 18.7268C11.0455 18.7168 10.7885 18.7602 10.5484 18.8541C10.3083 18.948 10.0901 19.0905 9.90755 19.2726C9.72542 19.4666 9.58431 19.6954 9.49267 19.9453C9.40103 20.1952 9.36074 20.461 9.37421 20.7268C9.34286 21.2462 9.5172 21.7571 9.85955 22.149C10.0299 22.3199 10.2342 22.4531 10.4593 22.5401C10.6844 22.6271 10.9252 22.6658 11.1662 22.6539C11.4343 22.6649 11.7017 22.6182 11.9502 22.517V21.3472H10.72V20.2699H13.3209V23.2886Z" fill="white"/>
<defs>
<linearGradient id="paint0_linear_855_8536" x1="16" y1="27.343" x2="16" y2="4.65682" gradientUnits="userSpaceOnUse">
<stop stop-color="#005BA1"/>
<stop offset="0.202" stop-color="#0068B7"/>
<stop offset="0.422" stop-color="#0071C7"/>
<stop offset="0.67" stop-color="#0076D1"/>
<stop offset="1" stop-color="#0078D4"/>
</linearGradient>
<linearGradient id="paint1_linear_855_8536" x1="8.42311" y1="27.3413" x2="8.42311" y2="10.6889" gradientUnits="userSpaceOnUse">
<stop stop-color="#32BEDD"/>
<stop offset="1" stop-color="#50E6FF"/>
</linearGradient>
</defs>
</svg>
