<svg width="32" height="32" viewBox="0 0 32 32" fill="none" xmlns="http://www.w3.org/2000/svg">
<g clip-path="url(#clip0_855_8555)">
<path d="M27.9324 8.06459V13.5757C27.9327 13.6184 27.9216 13.6605 27.9003 13.6975C27.879 13.7346 27.8483 13.7654 27.8113 13.7867C27.7742 13.808 27.7322 13.8191 27.6895 13.8189C27.6467 13.8187 27.6048 13.8072 27.568 13.7855C26.766 13.3199 25.8553 13.0746 24.928 13.0744H24.7893C24.6153 13.0743 24.4415 13.0832 24.2684 13.101C24.2349 13.1038 24.2012 13.0995 24.1695 13.0884C24.1377 13.0774 24.1086 13.0598 24.084 13.0369C24.0594 13.014 24.0399 12.9862 24.0266 12.9553C24.0134 12.9244 24.0067 12.8911 24.0071 12.8575V5.49571C24.0067 5.36772 24.0425 5.24223 24.1103 5.1337C24.1781 5.02516 24.2752 4.938 24.3904 4.88226C24.5056 4.82651 24.6342 4.80446 24.7614 4.81863C24.8886 4.83281 25.0092 4.88263 25.1093 4.96237C25.1222 4.9725 25.1341 4.98381 25.1449 4.99615L27.7333 7.58459C27.7491 7.60034 27.7639 7.61696 27.7778 7.63437C27.8151 7.67913 27.8462 7.72877 27.8702 7.78193C27.9114 7.87046 27.9326 7.96695 27.9324 8.06459Z" fill="#0078D4"/>
<path d="M8.29865 3.84375H13.1555C13.2519 3.84343 13.3461 3.87178 13.4263 3.92519C13.5065 3.97861 13.5689 4.05468 13.6057 4.14371C13.6425 4.23275 13.652 4.33072 13.6329 4.42515C13.6138 4.51958 13.5671 4.6062 13.4986 4.67398L10.4764 7.6962C10.4531 7.71945 10.4254 7.73773 10.3948 7.74996C10.3643 7.76218 10.3315 7.76808 10.2986 7.76731H5.72798C5.59423 7.76702 5.46355 7.72714 5.35243 7.6527C5.24131 7.57825 5.15472 7.47257 5.10357 7.34898C5.05242 7.2254 5.03901 7.08943 5.06503 6.95823C5.09105 6.82703 5.15532 6.70647 5.24976 6.61175L7.8222 4.04286C7.9486 3.91635 8.11981 3.8448 8.29865 3.84375Z" fill="#0078D4"/>
<path d="M8.01777 3.84375V12.7611C8.01777 12.8337 8.04661 12.9033 8.09795 12.9547C8.1493 13.006 8.21893 13.0349 8.29154 13.0349H11.344C11.3833 13.0327 11.4225 13.0394 11.4588 13.0544C11.4952 13.0695 11.5276 13.0926 11.5538 13.122C11.5785 13.1479 11.5979 13.1786 11.6107 13.212C11.6236 13.2455 11.6297 13.2812 11.6287 13.3171C11.6277 13.3529 11.6196 13.3882 11.6049 13.421C11.5903 13.4537 11.5692 13.4832 11.5431 13.5077L6.30221 18.7202C6.25182 18.7673 6.18542 18.7935 6.11643 18.7935C6.04745 18.7935 5.98104 18.7673 5.93066 18.7202L0.641767 13.5113C0.60558 13.4982 0.572323 13.4782 0.543894 13.4522C0.515465 13.4263 0.492422 13.395 0.476078 13.3602C0.459735 13.3254 0.450413 13.2877 0.448644 13.2492C0.446874 13.2108 0.452693 13.1724 0.465767 13.1362C0.47884 13.1 0.498914 13.0668 0.52484 13.0383C0.550767 13.0099 0.582039 12.9868 0.616871 12.9705C0.651704 12.9542 0.689414 12.9448 0.727849 12.9431C0.766284 12.9413 0.804691 12.9471 0.840878 12.9602H3.87199C3.93684 12.9522 3.99594 12.919 4.03652 12.8677C4.0771 12.8165 4.09591 12.7514 4.08888 12.6864V8.02508C4.08828 7.86211 4.15219 7.70553 4.26666 7.58953L8.01777 3.84375Z" fill="url(#paint0_linear_855_8555)"/>
<path d="M4.07822 23.4779V18.621C4.07839 18.5247 4.10712 18.4306 4.16076 18.3506C4.21441 18.2706 4.29057 18.2083 4.37962 18.1716C4.46866 18.1348 4.5666 18.1253 4.66104 18.1443C4.75548 18.1632 4.8422 18.2097 4.91022 18.2779L7.93244 21.3001C7.95603 21.3231 7.97455 21.3509 7.98679 21.3815C7.99904 21.4121 8.00475 21.4449 8.00355 21.4779V26.0539C8.00326 26.1876 7.96339 26.3183 7.88894 26.4294C7.81449 26.5406 7.70881 26.6272 7.58523 26.6783C7.46164 26.7294 7.32567 26.7429 7.19447 26.7168C7.06328 26.6908 6.94272 26.6265 6.84799 26.5321L4.27733 23.9579C4.1506 23.8302 4.0791 23.6578 4.07822 23.4779Z" fill="#0078D4"/>
<path d="M4.07822 23.7595H11.6409C11.7129 23.7585 11.7816 23.7293 11.8322 23.678C11.8828 23.6268 11.9111 23.5577 11.9111 23.4857V20.435C11.9091 20.3955 11.9159 20.3561 11.931 20.3195C11.9461 20.2829 11.969 20.2501 11.9982 20.2235C12.0242 20.1987 12.0548 20.1794 12.0883 20.1665C12.1218 20.1537 12.1575 20.1476 12.1933 20.1485C12.2292 20.1495 12.2645 20.1576 12.2972 20.1723C12.3299 20.187 12.3594 20.208 12.384 20.2341L17.6 25.475C17.6471 25.5254 17.6733 25.5918 17.6733 25.6608C17.6733 25.7298 17.6471 25.7962 17.6 25.8466L12.3875 31.1373C12.3607 31.2099 12.3061 31.2688 12.2357 31.3012C12.1654 31.3335 12.085 31.3366 12.0124 31.3097C11.9398 31.2828 11.8809 31.2282 11.8485 31.1579C11.8162 31.0875 11.8131 31.0072 11.84 30.9346V27.9124C11.8367 27.88 11.827 27.8486 11.8115 27.82C11.796 27.7914 11.775 27.7661 11.7498 27.7457C11.7245 27.7252 11.6954 27.7099 11.6642 27.7007C11.633 27.6914 11.6003 27.6885 11.568 27.6919H8.25955C8.09654 27.6927 7.93989 27.6288 7.82399 27.5141L4.07822 23.7595Z" fill="url(#paint1_linear_855_8555)"/>
<path d="M27.9289 7.78533H19.0116H18.9564C18.9056 7.79547 18.8591 7.8209 18.8231 7.85822C18.7961 7.88271 18.7745 7.91262 18.7598 7.94601C18.7451 7.9794 18.7376 8.01551 18.7378 8.052V11.1098C18.7404 11.1494 18.7339 11.189 18.7188 11.2257C18.7037 11.2623 18.6804 11.2951 18.6507 11.3213C18.6383 11.334 18.6246 11.3454 18.6098 11.3551C18.5562 11.3877 18.4931 11.4008 18.4309 11.3924C18.3688 11.384 18.3114 11.3545 18.2684 11.3089L13.0524 6.06978C13.0052 6.01909 12.9789 5.95239 12.9789 5.88311C12.9789 5.81383 13.0052 5.74712 13.0524 5.69644L18.2667 0.407554C18.2667 0.407554 18.4444 0.179998 18.6382 0.229776C18.7929 0.270665 18.816 0.441331 18.816 0.603109V3.62533C18.82 3.65621 18.829 3.68623 18.8427 3.71422C18.8644 3.75847 18.8993 3.79489 18.9426 3.81845C18.9859 3.84201 19.0355 3.85156 19.0844 3.84578H23.7493C23.8096 3.84554 23.8696 3.85453 23.9271 3.87244L23.9858 3.892C24.0586 3.92503 24.1253 3.97011 24.1831 4.02533L27.776 7.62L27.9289 7.78533Z" fill="url(#paint2_linear_855_8555)"/>
<path d="M31.3227 22.3658H31.312C31.2909 22.345 31.2677 22.3265 31.2427 22.3107C31.2141 22.2898 31.1831 22.2724 31.1502 22.2592C31.1306 22.2483 31.1097 22.2399 31.088 22.2343C31.0692 22.2259 31.0495 22.22 31.0293 22.2165H31.0098H30.9884H30.9564H30.9315H30.8871H29.9413V19.1765C29.9481 17.7595 29.4286 16.3905 28.4835 15.3347C28.029 14.8218 27.4708 14.4111 26.8458 14.1298C26.2207 13.8486 25.5432 13.7031 24.8578 13.7031C24.1724 13.7031 23.4948 13.8486 22.8698 14.1298C22.2448 14.4111 21.6865 14.8218 21.232 15.3347C20.2774 16.3848 19.7559 17.7575 19.7724 19.1765V22.1881H18.9867H18.9404L18.8729 22.1987C18.7943 22.2126 18.7185 22.2397 18.6489 22.2787L18.6009 22.3089C18.5789 22.3232 18.5581 22.3393 18.5387 22.3569C18.5262 22.3662 18.5148 22.377 18.5049 22.3889L18.4711 22.4263C18.4466 22.4556 18.4241 22.4865 18.4035 22.5187C18.3825 22.5523 18.3652 22.588 18.352 22.6254C18.3445 22.6432 18.3385 22.6616 18.3342 22.6805C18.3276 22.6989 18.3228 22.718 18.32 22.7374C18.32 22.7587 18.3111 22.7783 18.3093 22.7996C18.3075 22.8209 18.3093 22.8423 18.3093 22.8654V30.6361C18.311 30.7276 18.3316 30.8178 18.3698 30.9009C18.3759 30.9197 18.3843 30.9376 18.3947 30.9543C18.4427 31.0397 18.5074 31.1147 18.5849 31.1747H18.5973C18.7125 31.256 18.8493 31.3011 18.9902 31.3045H30.8853C31.0347 31.3036 31.1794 31.2522 31.296 31.1587C31.378 31.0959 31.4446 31.0152 31.4908 30.9228C31.537 30.8304 31.5616 30.7287 31.5627 30.6254V22.8654C31.5598 22.77 31.537 22.6762 31.4956 22.5902C31.4543 22.5041 31.3954 22.4277 31.3227 22.3658ZM22.1244 19.1267C22.1308 18.3431 22.4338 17.591 22.9724 17.0218C23.1805 16.7793 23.4343 16.58 23.7194 16.4356C24.0044 16.2912 24.3152 16.2043 24.6338 16.1801C24.9525 16.1558 25.2728 16.1946 25.5765 16.2942C25.8801 16.3938 26.1612 16.5522 26.4035 16.7605C26.4982 16.8403 26.5862 16.9277 26.6667 17.0218C26.7847 17.1534 26.8912 17.295 26.9849 17.4449C27.1659 17.6871 27.3097 17.955 27.4115 18.2396C27.5101 18.526 27.5646 18.8257 27.5733 19.1285V22.1898H22.1244V19.1267Z" fill="#FFBD02"/>
<path opacity="0.4" d="M31.5502 22.8646V30.6389C31.5491 30.7422 31.5246 30.8439 31.4784 30.9363C31.4322 31.0287 31.3655 31.1093 31.2835 31.1722L24.9458 26.7846H24.9333L18.5547 22.3704C18.6431 22.2916 18.7512 22.2382 18.8675 22.2157L18.9351 22.2051H18.9813H30.9067H30.9404H30.9511H30.9831H31.0044H31.024C31.0442 22.2085 31.0639 22.2145 31.0827 22.2229C31.1044 22.2285 31.1253 22.2369 31.1449 22.2477C31.1777 22.261 31.2088 22.2783 31.2373 22.2993C31.2624 22.3151 31.2856 22.3336 31.3067 22.3544H31.3173C31.3901 22.4181 31.4484 22.4965 31.4886 22.5845C31.5287 22.6725 31.5497 22.7679 31.5502 22.8646Z" fill="#FFE452"/>
<path opacity="0.4" d="M31.312 22.3594H31.2995L24.9351 26.7683H24.9226L18.5742 31.1647H18.5635C18.4785 31.1059 18.4085 31.028 18.3591 30.9372C18.3493 30.9204 18.3415 30.9025 18.336 30.8838C18.312 30.8146 18.2993 30.742 18.2986 30.6687V22.8465C18.2986 22.8234 18.2986 22.8038 18.2986 22.7807C18.2986 22.7576 18.2986 22.7398 18.3093 22.7185C18.3122 22.6991 18.3169 22.6801 18.3235 22.6616C18.3278 22.6428 18.3338 22.6243 18.3413 22.6065C18.3545 22.5691 18.3718 22.5334 18.3929 22.4998C18.4134 22.4676 18.4359 22.4367 18.4604 22.4074L18.4889 22.4021C18.4988 22.3901 18.5101 22.3793 18.5226 22.3701C18.5421 22.3524 18.5629 22.3364 18.5849 22.3221L18.6329 22.2918C18.6938 22.2532 18.7613 22.226 18.832 22.2118L18.8995 22.2012H18.9582H30.8693H30.9138H30.9386H30.9706H30.992H31.0115C31.0318 22.2046 31.0515 22.2106 31.0702 22.2189C31.0919 22.2246 31.1128 22.233 31.1324 22.2438C31.1653 22.2571 31.1963 22.2744 31.2249 22.2954C31.2566 22.3128 31.2859 22.3343 31.312 22.3594Z" fill="#FFE452"/>
</g>
<defs>
<linearGradient id="paint0_linear_855_8555" x1="6.0391" y1="3.71042" x2="6.0391" y2="18.9495" gradientUnits="userSpaceOnUse">
<stop offset="0.167" stop-color="#50E6FF"/>
<stop offset="1" stop-color="#32BEDD"/>
</linearGradient>
<linearGradient id="paint1_linear_855_8555" x1="10.8782" y1="31.5533" x2="10.8782" y2="19.8999" gradientUnits="userSpaceOnUse">
<stop stop-color="#32BEDD"/>
<stop offset="0.826" stop-color="#50E6FF"/>
</linearGradient>
<linearGradient id="paint2_linear_855_8555" x1="20.4533" y1="0.224442" x2="20.4533" y2="11.396" gradientUnits="userSpaceOnUse">
<stop offset="0.167" stop-color="#50E6FF"/>
<stop offset="1" stop-color="#32BEDD"/>
</linearGradient>
<clipPath id="clip0_855_8555">
<rect width="32" height="32" fill="white"/>
</clipPath>
</defs>
</svg>
