<svg width="32" height="32" viewBox="0 0 32 32" fill="none" xmlns="http://www.w3.org/2000/svg">
<g clip-path="url(#clip0_855_8573)">
<path d="M18.6222 9.1395C19.5167 9.1395 20.2418 8.4144 20.2418 7.51995C20.2418 6.62549 19.5167 5.90039 18.6222 5.90039C17.7278 5.90039 17.0027 6.62549 17.0027 7.51995C17.0027 8.4144 17.7278 9.1395 18.6222 9.1395Z" fill="#76BC2D"/>
<path d="M13.4524 9.15317C14.3469 9.15317 15.072 8.42807 15.072 7.53362C15.072 6.63916 14.3469 5.91406 13.4524 5.91406C12.558 5.91406 11.8329 6.63916 11.8329 7.53362C11.8329 8.42807 12.558 9.15317 13.4524 9.15317Z" fill="#76BC2D"/>
<path d="M8.28444 9.15317C9.1789 9.15317 9.904 8.42807 9.904 7.53362C9.904 6.63916 9.1789 5.91406 8.28444 5.91406C7.38999 5.91406 6.66489 6.63916 6.66489 7.53362C6.66489 8.42807 7.38999 9.15317 8.28444 9.15317Z" fill="#76BC2D"/>
<path d="M9.46133 14.0126L8.53333 14.9335C8.49451 14.9725 8.44838 15.0034 8.39759 15.0245C8.34679 15.0456 8.29233 15.0565 8.23733 15.0565C8.18232 15.0565 8.12786 15.0456 8.07707 15.0245C8.02627 15.0034 7.98014 14.9725 7.94133 14.9335L1.07555 8.0962C0.91857 7.93918 0.830383 7.72623 0.830383 7.5042C0.830383 7.28217 0.91857 7.06922 1.07555 6.9122L2.00177 5.98242L9.46844 13.4189C9.54682 13.4978 9.59081 13.6045 9.59081 13.7158C9.59081 13.827 9.54682 13.9337 9.46844 14.0126H9.46133Z" fill="#50E6FF"/>
<path d="M8.39289 0.142483L9.32267 1.06693C9.36164 1.10574 9.39256 1.15187 9.41366 1.20267C9.43476 1.25346 9.44562 1.30792 9.44562 1.36293C9.44562 1.41793 9.43476 1.47239 9.41366 1.52319C9.39256 1.57398 9.36164 1.62011 9.32267 1.65893L1.99467 9.01004L1.06667 8.08382C0.910015 7.92626 0.822083 7.71311 0.822083 7.49093C0.822083 7.26875 0.910015 7.0556 1.06667 6.89804L7.80089 0.142483C7.83971 0.103513 7.88584 0.072591 7.93663 0.0514917C7.98743 0.0303925 8.04189 0.0195313 8.09689 0.0195312C8.15189 0.0195313 8.20636 0.0303925 8.25715 0.0514917C8.30795 0.072591 8.35408 0.103513 8.39289 0.142483Z" fill="#1490DF"/>
<path d="M20.4338 11.2987H22.4942L25.7173 8.08448C25.8739 7.92723 25.9618 7.71437 25.9618 7.49248C25.9618 7.27059 25.8739 7.05773 25.7173 6.90048L24.7893 5.9707L19.4471 11.304L20.4338 11.2987Z" fill="#50E6FF"/>
<path d="M25.7156 8.0737L24.7858 8.99992L17.4578 1.65059C17.3812 1.57249 17.3383 1.4675 17.3383 1.35814C17.3383 1.24879 17.3812 1.14379 17.4578 1.0657L18.3982 0.128811C18.437 0.0898411 18.4832 0.0589191 18.534 0.0378199C18.5848 0.0167206 18.6392 0.00585938 18.6942 0.00585938C18.7492 0.00585938 18.8037 0.0167206 18.8545 0.0378199C18.9053 0.0589191 18.9514 0.0898411 18.9902 0.128811L25.7262 6.88437C25.8833 7.04169 25.9715 7.25493 25.9715 7.47726C25.9715 7.69958 25.8833 7.91282 25.7262 8.07014L25.7156 8.0737Z" fill="#1490DF"/>
<path d="M31.1804 23.3312V21.1552H30.8924L28.5262 20.421L27.9822 18.789L29.1662 16.2308L27.6302 14.6948H27.3422L25.136 15.8148L23.664 15.2068L22.704 12.5508H20.4338V12.8708L19.6658 15.2068L18.1618 15.8148L15.6729 14.6308L14.1369 16.1668L14.2969 16.4548L15.1858 18.821L14.6738 20.421L11.9875 21.2832V23.6192H12.3075L14.6418 24.3872L15.1858 25.8254L14.0018 28.3854L15.6018 30.0157L15.9218 29.8557L18.096 28.7375L19.6 29.3454L20.5618 31.9997H22.736V31.6797L23.504 29.3454L25.008 28.7375L27.5342 29.9197L29.0702 28.3854L28.9102 28.0975L27.9822 25.7863L28.5902 24.2841L31.1804 23.3312ZM21.6498 26.5312H21.584C20.4756 26.5225 19.4157 26.075 18.6366 25.2866C17.8574 24.4982 17.4223 23.4331 17.4267 22.3247C17.431 21.2162 17.8744 20.1547 18.6598 19.3724C19.4451 18.5901 20.5084 18.1509 21.6169 18.1509C22.7253 18.1509 23.7887 18.5901 24.574 19.3724C25.3593 20.1547 25.8027 21.2162 25.8071 22.3247C25.8114 23.4331 25.3764 24.4982 24.5972 25.2866C23.818 26.075 22.7582 26.5225 21.6498 26.5312Z" fill="url(#paint0_linear_855_8573)"/>
</g>
<defs>
<linearGradient id="paint0_linear_855_8573" x1="21.584" y1="12.469" x2="21.584" y2="31.6619" gradientUnits="userSpaceOnUse">
<stop stop-color="#5EA0EF"/>
<stop offset="1" stop-color="#0078D4"/>
</linearGradient>
<clipPath id="clip0_855_8573">
<rect width="32" height="32" fill="white"/>
</clipPath>
</defs>
</svg>
