<svg width="32" height="32" viewBox="0 0 32 32" fill="none" xmlns="http://www.w3.org/2000/svg">
<g clip-path="url(#clip0_855_8600)">
<path d="M16 32C24.8366 32 32 24.8366 32 16C32 7.16344 24.8366 0 16 0C7.16344 0 0 7.16344 0 16C0 24.8366 7.16344 32 16 32Z" fill="url(#paint0_linear_855_8600)"/>
<path d="M20.24 27.5136C20.2659 27.5444 20.284 27.581 20.2928 27.6202C20.3016 27.6594 20.3008 27.7002 20.2905 27.7391C20.2802 27.778 20.2607 27.8138 20.2337 27.8436C20.2066 27.8733 20.1728 27.8961 20.1351 27.9101C17.5045 28.8231 14.6456 28.8393 12.0048 27.9561C9.36396 27.0729 7.08995 25.3401 5.53779 23.0283C5.51586 22.9948 5.50233 22.9566 5.49833 22.9168C5.49433 22.877 5.49998 22.8368 5.5148 22.7997C5.52963 22.7625 5.5532 22.7295 5.5835 22.7034C5.61381 22.6772 5.64996 22.6588 5.6889 22.6496C6.15487 22.5285 6.59351 22.3198 6.98134 22.0345C7.00838 22.0142 7.0393 21.9996 7.0722 21.9917C7.10511 21.9837 7.13929 21.9827 7.17262 21.9885C7.20596 21.9943 7.23774 22.0069 7.266 22.0256C7.29426 22.0442 7.31839 22.0684 7.3369 22.0968C8.63571 23.9472 10.4921 25.334 12.635 26.0546C14.7779 26.7752 17.095 26.7918 19.248 26.1021C19.2785 26.0915 19.3107 26.087 19.3429 26.089C19.3751 26.091 19.4066 26.0993 19.4355 26.1135C19.4645 26.1277 19.4903 26.1476 19.5115 26.1718C19.5327 26.1961 19.5489 26.2244 19.5591 26.255C19.7049 26.7136 19.9359 27.1407 20.24 27.5136ZM16 3.39453C12.8277 3.39846 9.77325 4.59675 7.44452 6.75089C5.11578 8.90503 3.68355 11.8571 3.4329 15.0194C3.43064 15.0591 3.43786 15.0988 3.45397 15.1352C3.47007 15.1715 3.49459 15.2035 3.52551 15.2285C3.55642 15.2535 3.59284 15.2708 3.63177 15.279C3.67069 15.2871 3.71099 15.2859 3.74934 15.2754C4.06829 15.1903 4.39701 15.1472 4.72712 15.1474C4.87626 15.1473 5.02527 15.1562 5.17334 15.1741C5.20596 15.1773 5.23888 15.1739 5.27019 15.1642C5.3015 15.1546 5.33057 15.1388 5.35572 15.1178C5.38087 15.0968 5.40159 15.071 5.41667 15.0419C5.43175 15.0128 5.44089 14.981 5.44357 14.9483C5.70812 12.3315 6.93411 9.90588 8.88422 8.14099C10.8343 6.37611 13.3699 5.39748 16 5.39453C16.1049 5.39453 16.208 5.39453 16.3111 5.39453C16.3022 5.30386 16.3005 5.21675 16.3005 5.11898C16.3 4.64521 16.388 4.17553 16.56 3.73409C16.5751 3.69671 16.5808 3.6562 16.5766 3.61611C16.5725 3.57602 16.5586 3.53755 16.5361 3.50407C16.5137 3.47058 16.4834 3.4431 16.4479 3.42401C16.4124 3.40491 16.3728 3.39479 16.3325 3.39453C16.2222 3.39631 16.112 3.39453 16 3.39453ZM23.6907 6.44342C23.5221 6.89488 23.2706 7.3109 22.9493 7.67009C22.927 7.69488 22.9099 7.72398 22.8992 7.7556C22.8884 7.78723 22.8843 7.82071 22.8869 7.85399C22.8896 7.88728 22.899 7.91967 22.9147 7.94919C22.9303 7.9787 22.9518 8.00472 22.9778 8.02564C24.8569 9.66489 26.0976 11.9144 26.4816 14.3782C26.8657 16.8421 26.3684 19.3625 25.0773 21.4959C25.0598 21.5229 25.0478 21.5533 25.0421 21.585C25.0365 21.6168 25.0372 21.6494 25.0443 21.6809C25.0515 21.7124 25.0648 21.7421 25.0836 21.7683C25.1024 21.7946 25.1263 21.8168 25.1538 21.8336C25.5662 22.0849 25.928 22.4111 26.2205 22.7954C26.2446 22.8274 26.2761 22.8531 26.3122 22.8704C26.3483 22.8877 26.3881 22.8961 26.4281 22.8949C26.4682 22.8937 26.5073 22.8829 26.5423 22.8634C26.5774 22.8439 26.6072 22.8164 26.6293 22.783C28.2785 20.202 28.93 17.1082 28.4617 14.0813C27.9933 11.0545 26.4374 8.30223 24.0853 6.34031C24.0549 6.31437 24.0185 6.29616 23.9795 6.28724C23.9405 6.27832 23.8999 6.27895 23.8612 6.28907C23.8224 6.29919 23.7867 6.3185 23.757 6.34537C23.7273 6.37225 23.7046 6.40588 23.6907 6.44342Z" fill="white"/>
<path opacity="0.6" d="M16 27.8783C22.4104 27.8783 27.6071 22.6816 27.6071 16.2712C27.6071 9.86074 22.4104 4.66406 16 4.66406C9.58956 4.66406 4.39288 9.86074 4.39288 16.2712C4.39288 22.6816 9.58956 27.8783 16 27.8783Z" fill="#B796F9"/>
<path d="M23.1751 5.11151C23.1751 5.18084 23.1751 5.25018 23.1751 5.32129C23.1254 6.06433 22.8066 6.76379 22.2783 7.28868C21.75 7.81356 21.0485 8.12789 20.3052 8.1728C19.5618 8.2177 18.8276 7.99011 18.24 7.53263C17.6524 7.07515 17.2517 6.41917 17.1129 5.68751C17.0756 5.4978 17.0571 5.30486 17.0578 5.11151C17.0479 4.70316 17.1199 4.29697 17.2693 3.91684C17.4188 3.53671 17.6428 3.19031 17.9281 2.89802C18.2134 2.60574 18.5543 2.37347 18.9308 2.21489C19.3072 2.0563 19.7115 1.97461 20.12 1.97461C20.5285 1.97461 20.9328 2.0563 21.3092 2.21489C21.6856 2.37347 22.0265 2.60574 22.3119 2.89802C22.5972 3.19031 22.8212 3.53671 22.9707 3.91684C23.1201 4.29697 23.1921 4.70316 23.1822 5.11151H23.1751Z" fill="url(#paint1_radial_855_8600)"/>
<path d="M26.2382 25.0669C26.2397 25.8326 25.9545 26.5712 25.4387 27.1371C24.9229 27.7031 24.2139 28.0555 23.4513 28.125C22.6887 28.1944 21.9277 27.9759 21.3182 27.5124C20.7086 27.0488 20.2947 26.3739 20.1578 25.6205C20.021 24.8671 20.1711 24.0897 20.5786 23.4415C20.9862 22.7932 21.6217 22.3209 22.36 22.1177C23.0983 21.9145 23.8859 21.995 24.5678 22.3434C25.2497 22.6918 25.7765 23.2828 26.0445 24.0002C26.1728 24.3412 26.2385 24.7025 26.2382 25.0669Z" fill="url(#paint2_radial_855_8600)"/>
<path d="M7.79023 18.9464C7.79023 19.3486 7.71098 19.7468 7.55703 20.1183C7.40307 20.4898 7.17741 20.8274 6.89295 21.1117C6.60849 21.396 6.27081 21.6215 5.89918 21.7752C5.52756 21.9289 5.12928 22.0079 4.72711 22.0077H4.64356C3.83164 21.9966 3.05738 21.6635 2.49111 21.0815C1.92483 20.4996 1.61292 19.7165 1.624 18.9046C1.63508 18.0927 1.96824 17.3184 2.55019 16.7522C3.13214 16.1859 3.9152 15.874 4.72711 15.8851C5.03741 15.8849 5.346 15.931 5.64267 16.0219C6.2652 16.2175 6.80912 16.6065 7.19534 17.1325C7.58156 17.6584 7.78996 18.2939 7.79023 18.9464Z" fill="url(#paint3_radial_855_8600)"/>
<path d="M16 22.0075C19.3255 22.0075 22.0213 19.3117 22.0213 15.9862C22.0213 12.6607 19.3255 9.96484 16 9.96484C12.6745 9.96484 9.97864 12.6607 9.97864 15.9862C9.97864 19.3117 12.6745 22.0075 16 22.0075Z" fill="url(#paint4_radial_855_8600)"/>
</g>
<defs>
<linearGradient id="paint0_linear_855_8600" x1="16" y1="1.86133" x2="16" y2="27.7173" gradientUnits="userSpaceOnUse">
<stop stop-color="#A67AF4"/>
<stop offset="1" stop-color="#773ADC"/>
</linearGradient>
<radialGradient id="paint1_radial_855_8600" cx="0" cy="0" r="1" gradientUnits="userSpaceOnUse" gradientTransform="translate(21.3262 3.43862) scale(4.00711)">
<stop stop-color="#C3F1FF"/>
<stop offset="1" stop-color="#9CEBFF"/>
</radialGradient>
<radialGradient id="paint2_radial_855_8600" cx="0" cy="0" r="1" gradientUnits="userSpaceOnUse" gradientTransform="translate(24.3876 23.3993) scale(4.00711)">
<stop stop-color="#C3F1FF"/>
<stop offset="1" stop-color="#9CEBFF"/>
</radialGradient>
<radialGradient id="paint3_radial_855_8600" cx="0" cy="0" r="1" gradientUnits="userSpaceOnUse" gradientTransform="translate(5.94134 17.2735) scale(4.00711)">
<stop stop-color="#C3F1FF"/>
<stop offset="1" stop-color="#9CEBFF"/>
</radialGradient>
<radialGradient id="paint4_radial_855_8600" cx="0" cy="0" r="1" gradientUnits="userSpaceOnUse" gradientTransform="translate(18.384 12.7008) scale(7.87733)">
<stop stop-color="#C3F1FF"/>
<stop offset="1" stop-color="#9CEBFF"/>
</radialGradient>
<clipPath id="clip0_855_8600">
<rect width="32" height="32" fill="white"/>
</clipPath>
</defs>
</svg>
