<svg width="32" height="32" viewBox="0 0 32 32" fill="none" xmlns="http://www.w3.org/2000/svg">
<g clip-path="url(#clip0_855_8514)">
<path d="M12.6631 24.8213C19.5173 24.8213 25.0738 19.2649 25.0738 12.4107C25.0738 5.55644 19.5173 0 12.6631 0C5.80889 0 0.252441 5.55644 0.252441 12.4107C0.252441 19.2649 5.80889 24.8213 12.6631 24.8213Z" fill="url(#paint0_linear_855_8514)"/>
<path d="M19.5946 31.7302C26.1573 31.7302 31.4773 26.4101 31.4773 19.8475C31.4773 13.2849 26.1573 7.96484 19.5946 7.96484C13.032 7.96484 7.71198 13.2849 7.71198 19.8475C7.71198 26.4101 13.032 31.7302 19.5946 31.7302Z" fill="#0078D4"/>
<path d="M31.7476 19.4484H31.728C31.6231 16.2621 30.2701 13.2446 27.9608 11.0467C25.6516 8.84879 22.5711 7.64643 19.3835 7.69891C16.1959 7.75139 13.1566 9.0545 10.9209 11.3273C8.68527 13.6 7.43237 16.6603 7.43237 19.8484C7.43237 23.0364 8.68527 26.0967 10.9209 28.3695C13.1566 30.6423 16.1959 31.9454 19.3835 31.9978C22.5711 32.0503 25.6516 30.848 27.9608 28.65C30.2701 26.4521 31.6231 23.4347 31.728 20.2484H31.7476V19.4484ZM26.7076 19.4484C26.6985 17.7158 26.3669 16 25.7298 14.3888H29.5431C30.3974 15.9428 30.8737 17.6761 30.9333 19.4484H26.7076ZM8.26312 20.2484H12.6471C12.663 21.9832 13.0031 23.6998 13.6498 25.3097H9.64979C8.7954 23.7554 8.32027 22.0212 8.26312 20.2484ZM19.4347 13.5888H14.9902C16.1155 11.8056 17.6363 10.3055 19.4347 9.20482V13.5888ZM20.2347 9.2066C21.9871 10.2979 23.4449 11.8026 24.48 13.5888H20.2347V9.2066ZM19.4347 14.3888V19.4484H13.4453C13.4578 17.6989 13.849 15.9728 14.592 14.3888H19.4347ZM12.6453 19.4484H8.26312C8.32027 17.6764 8.79476 15.9429 9.64801 14.3888H13.7138C13.0248 15.9875 12.6615 17.7076 12.6453 19.4484ZM13.4471 20.2484H19.4347V25.3097H14.5476C13.8421 23.7144 13.4678 21.9926 13.4471 20.2484ZM19.4347 26.115V30.755C17.5741 29.6023 16.0277 28.007 14.9333 26.1115L19.4347 26.115ZM20.2347 26.115H24.416C23.3912 27.9019 21.9585 29.4212 20.2347 30.5488V26.115ZM20.2347 25.3133V20.2484H25.9076C25.8869 21.9926 25.5126 23.7144 24.8071 25.3097L20.2347 25.3133ZM20.2347 19.4466V14.3888H24.8569C25.5421 15.988 25.8988 17.7086 25.9058 19.4484L20.2347 19.4466ZM29.056 13.5799H25.3476C24.2642 11.5225 22.6568 9.78764 20.688 8.5506C22.3698 8.71505 23.9936 9.25267 25.4412 10.1243C26.8889 10.9959 28.1238 12.1795 29.056 13.5888V13.5799ZM19.0222 8.53282C16.9892 9.78019 15.3025 11.5189 14.1173 13.5888H10.1333C11.1155 12.1088 12.4316 10.8802 13.9755 10.002C15.5195 9.12382 17.2482 8.62057 19.0222 8.53282ZM10.1333 26.1115H14.0445C15.1103 28.1477 16.6749 29.8804 18.592 31.1479C16.8945 30.997 15.2528 30.4659 13.7885 29.5941C12.3242 28.7222 11.0749 27.5319 10.1333 26.1115ZM20.7822 31.1355C22.6912 29.8691 24.2494 28.141 25.312 26.1115H29.0453C28.1229 27.5049 26.9044 28.6775 25.4767 29.5459C24.049 30.4144 22.4473 30.9571 20.7858 31.1355H20.7822ZM29.5378 25.3097H25.7049C26.3516 23.6998 26.6917 21.9832 26.7076 20.2484H30.9333C30.8738 22.0215 30.3968 23.7555 29.5413 25.3097H29.5378Z" fill="#83B9F9"/>
<path d="M19.6107 17.2156C19.2023 17.2177 18.7995 17.3113 18.432 17.4894L11.2498 8.64319C11.642 8.09743 11.8245 7.42869 11.764 6.75936C11.7034 6.09003 11.4038 5.4649 10.9201 4.99838C10.4363 4.53185 9.80075 4.25515 9.12966 4.21891C8.45858 4.18268 7.79689 4.38933 7.26572 4.80105C6.73454 5.21277 6.3694 5.80202 6.23713 6.46093C6.10487 7.11985 6.21432 7.80436 6.54546 8.38917C6.87661 8.97399 7.40728 9.41999 8.04036 9.64554C8.67344 9.87109 9.36658 9.86111 9.9929 9.61741L17.2445 18.5561C16.9801 18.9836 16.8386 19.4757 16.8356 19.9783C16.8356 20.5258 16.9979 21.0609 17.3021 21.5161C17.6062 21.9713 18.0385 22.3261 18.5443 22.5356C19.0501 22.7451 19.6066 22.7999 20.1436 22.6931C20.6805 22.5863 21.1737 22.3227 21.5608 21.9356C21.9479 21.5485 22.2116 21.0553 22.3184 20.5183C22.4252 19.9814 22.3704 19.4248 22.1609 18.919C21.9514 18.4132 21.5966 17.9809 21.1414 17.6768C20.6862 17.3726 20.151 17.2103 19.6036 17.2103L19.6107 17.2156Z" fill="#42E8CA"/>
</g>
<defs>
<linearGradient id="paint0_linear_855_8514" x1="12.6631" y1="0" x2="12.6631" y2="24.8213" gradientUnits="userSpaceOnUse">
<stop stop-color="#0078D4"/>
<stop offset="1" stop-color="#005BA1"/>
</linearGradient>
<clipPath id="clip0_855_8514">
<rect width="32" height="32" fill="white"/>
</clipPath>
</defs>
</svg>
