<svg width="32" height="32" viewBox="0 0 32 32" fill="none" xmlns="http://www.w3.org/2000/svg">
<g clip-path="url(#clip0_855_8549)">
<path d="M32 13.3328C31.9727 11.997 31.4685 10.715 30.5783 9.71859C29.6882 8.72216 28.471 8.07708 27.1467 7.89995C27.0653 6.05326 26.2608 4.31268 24.9071 3.05404C23.5533 1.7954 21.7588 1.1197 19.9111 1.17283C18.4055 1.14828 16.9296 1.59362 15.6889 2.4469C14.4481 3.30019 13.5042 4.51898 12.9884 5.93372C11.4022 6.12369 9.93706 6.87739 8.86015 8.05743C7.78324 9.23746 7.16628 10.7652 7.12177 12.3622C7.16877 14.1574 7.92694 15.8604 9.22951 17.0966C10.5321 18.3328 12.2723 19.001 14.0675 18.9542H26.3875C27.8731 18.9398 29.2937 18.3426 30.3434 17.2913C31.393 16.2399 31.9879 14.8184 32 13.3328Z" fill="url(#paint0_linear_855_8549)"/>
<path d="M25.4631 8.4865L22.1493 5.26339C21.7938 4.90784 21.4809 5.02873 21.4809 5.5905V7.03761C21.4811 7.09006 21.471 7.14203 21.4511 7.19055C21.4312 7.23907 21.4019 7.28318 21.3649 7.32035C21.3279 7.35752 21.2839 7.38701 21.2355 7.40713C21.1871 7.42726 21.1351 7.43761 21.0827 7.43761H21.0631C18.9298 7.43761 12.9707 7.99939 12.7538 16.1487C12.7536 16.2035 12.7641 16.2578 12.7849 16.3085C12.8057 16.3591 12.8363 16.4052 12.875 16.444C12.9137 16.4828 12.9596 16.5137 13.0102 16.5347C13.0608 16.5557 13.115 16.5665 13.1698 16.5665H15.2889C15.3438 16.5667 15.3981 16.5562 15.4489 16.5354C15.4997 16.5146 15.5459 16.484 15.5848 16.4454C15.6238 16.4068 15.6548 16.3608 15.676 16.3102C15.6972 16.2596 15.7082 16.2054 15.7085 16.1505C15.7085 16.1381 15.7085 16.1256 15.7085 16.1132C15.5401 15.3386 15.5583 14.5351 15.7615 13.7689C15.9647 13.0027 16.3471 12.2958 16.8772 11.7065C17.4073 11.1172 18.07 10.6623 18.8104 10.3794C19.5509 10.0965 20.348 9.99368 21.136 10.0794C21.2465 10.0799 21.3523 10.1241 21.4303 10.2024C21.5082 10.2807 21.552 10.3867 21.552 10.4972V11.8358C21.552 12.5061 21.7707 12.6145 22.2222 12.1629L25.4631 9.1745C25.5543 9.11249 25.6172 9.01678 25.6379 8.90844C25.6585 8.80009 25.6353 8.68797 25.5733 8.59673C25.5431 8.55403 25.5058 8.51677 25.4631 8.4865Z" fill="white"/>
<path d="M9.78135 28.2249C15.0627 28.2249 19.344 23.9436 19.344 18.6623C19.344 13.381 15.0627 9.09961 9.78135 9.09961C4.50004 9.09961 0.218689 13.381 0.218689 18.6623C0.218689 23.9436 4.50004 28.2249 9.78135 28.2249Z" fill="#0078D4"/>
<path d="M19.5555 18.3399H19.5396C19.4549 15.776 18.366 13.3481 16.5078 11.5796C14.6495 9.81112 12.1707 8.84377 9.60574 8.8861C7.04081 8.92843 4.59525 9.97706 2.79635 11.8059C0.997451 13.6347 -0.0106812 16.0973 -0.0106812 18.6625C-0.0106812 21.2278 0.997451 23.6904 2.79635 25.5192C4.59525 27.348 7.04081 28.3967 9.60574 28.439C12.1707 28.4813 14.6495 27.514 16.5078 25.7455C18.366 23.977 19.4549 21.5491 19.5396 18.9852H19.5555V18.3399ZM15.4987 18.3399C15.4912 16.9459 15.2247 15.5654 14.7129 14.2688H17.7351C18.4341 15.5158 18.8266 16.9113 18.88 18.3399H15.4987ZM0.671993 18.9852H4.18844C4.20147 20.3818 4.4752 21.7637 4.99555 23.0599H1.82222C1.12239 21.8119 0.729928 20.4151 0.677327 18.9852H0.671993ZM13.712 13.6252H10.1031V9.96832C11.5961 10.8623 12.8378 12.1206 13.712 13.6252ZM9.45777 13.6252H6.07999C6.93982 12.2556 8.09363 11.0945 9.45777 10.2261V13.6252ZM9.45777 14.2688V18.3399H4.83555C4.84647 16.9322 5.16119 15.5436 5.75822 14.2688H9.45777ZM4.18666 18.3399H0.677327C0.730146 16.9114 1.12197 15.516 1.82044 14.2688H5.0471C4.49235 15.5551 4.19982 16.9391 4.18666 18.3399ZM4.83199 18.9852H9.45422V23.0599H5.72088C5.15203 21.7758 4.84964 20.3896 4.83199 18.9852ZM9.45422 23.7034V27.3159C8.04066 26.402 6.86608 25.1634 6.02844 23.7034H9.45422ZM10.0996 23.7034H13.6551C12.789 25.2079 11.5684 26.4779 10.0996 27.403V23.7034ZM10.0996 23.0599V18.9852H14.8604C14.8428 20.3896 14.5404 21.7758 13.9715 23.0599H10.0996ZM10.0996 18.3399V14.2688H14.0107C14.5614 15.5557 14.8479 16.9401 14.8533 18.3399H10.0996ZM17.3884 13.6252H14.4107C13.5548 11.9949 12.2889 10.6157 10.7378 9.62343C12.0729 9.75923 13.3616 10.1884 14.5116 10.8802C15.6617 11.572 16.6428 12.5093 17.3884 13.6252ZM9.27111 9.57721C7.65499 10.5817 6.3145 11.9729 5.37066 13.6252H2.17066C2.95742 12.4443 4.00901 11.4635 5.24171 10.7607C6.47441 10.0579 7.85416 9.65269 9.27111 9.57721ZM2.17244 23.7034H5.30844C6.14929 25.3167 7.38008 26.6941 8.88888 27.7105C7.54213 27.583 6.24066 27.1573 5.07893 26.4642C3.9172 25.771 2.92435 24.828 2.17244 23.7034ZM10.8178 27.6945C12.3203 26.6818 13.5461 25.31 14.384 23.7034H17.3902C16.6515 24.8072 15.6805 25.7363 14.5453 26.4257C13.41 27.1151 12.1379 27.5481 10.8178 27.6945ZM17.7387 23.0599H14.6969C15.2181 21.764 15.4918 20.3819 15.504 18.9852H18.8818C18.8288 20.4148 18.437 21.8114 17.7387 23.0599Z" fill="#83B9F9"/>
</g>
<defs>
<linearGradient id="paint0_linear_855_8549" x1="19.5609" y1="18.9559" x2="19.5609" y2="1.16928" gradientUnits="userSpaceOnUse">
<stop stop-color="#773ADC"/>
<stop offset="1" stop-color="#A67AF4"/>
</linearGradient>
<clipPath id="clip0_855_8549">
<rect width="32" height="32" fill="white"/>
</clipPath>
</defs>
</svg>
