<svg width="32" height="32" viewBox="0 0 32 32" fill="none" xmlns="http://www.w3.org/2000/svg">
<g clip-path="url(#clip0_855_8541)">
<path d="M13.9555 23.7194C14.2433 24.0113 14.5862 24.243 14.9644 24.401C15.3426 24.5591 15.7485 24.6403 16.1583 24.64C16.5682 24.6396 16.9739 24.5577 17.3519 24.3991C17.7298 24.2404 18.0724 24.0081 18.3596 23.7158C18.6469 23.4234 18.8732 23.0768 19.0252 22.6962C19.1772 22.3156 19.252 21.9085 19.2452 21.4986C19.2383 21.0888 19.15 20.6845 18.9854 20.3091C18.8207 19.9337 18.5831 19.5949 18.2862 19.3123C17.9697 19.0038 17.59 18.7679 17.1733 18.6207V5.34961H15.1964V18.5834C14.6863 18.7398 14.2257 19.0264 13.86 19.4148C13.4942 19.8032 13.2358 20.2801 13.1103 20.7987C12.9847 21.3173 12.9963 21.8596 13.1439 22.3723C13.2914 22.885 13.5699 23.3505 13.952 23.7229L13.9555 23.7194Z" fill="#B3B3B3"/>
<path d="M16.1493 7.01745C17.8558 7.01745 19.2391 5.63411 19.2391 3.92767C19.2391 2.22123 17.8558 0.837891 16.1493 0.837891C14.4429 0.837891 13.0596 2.22123 13.0596 3.92767C13.0596 5.63411 14.4429 7.01745 16.1493 7.01745Z" fill="url(#paint0_linear_855_8541)"/>
<path d="M11.0125 29.8269L9.83629 31.0064C9.78684 31.056 9.7281 31.0954 9.66343 31.1223C9.59876 31.1492 9.52943 31.1631 9.45939 31.1632C9.38935 31.1633 9.31998 31.1496 9.25524 31.1229C9.19049 31.0961 9.13164 31.0569 9.08205 31.0075L0.384619 22.3346C0.28543 22.2357 0.206695 22.1182 0.152907 21.9889C0.0991192 21.8596 0.0713328 21.7209 0.0711344 21.5808C0.0709367 21.4407 0.0983299 21.302 0.151752 21.1725C0.205174 21.043 0.283579 20.9253 0.382488 20.8261L1.5587 19.6466L11.0114 29.0726C11.061 29.1221 11.1004 29.1808 11.1273 29.2455C11.1542 29.3102 11.1681 29.3795 11.1682 29.4495C11.1683 29.5196 11.1546 29.5889 11.1279 29.6537C11.1012 29.7184 11.062 29.7773 11.0125 29.8269Z" fill="#50E6FF"/>
<path d="M9.66279 12.2411L10.8423 13.4173C10.9425 13.5172 10.9989 13.6528 10.9991 13.7942C10.9993 13.9357 10.9433 14.0714 10.8434 14.1716L1.55418 23.4871L0.373373 22.3096C0.173051 22.1099 0.0602879 21.8387 0.0598881 21.5558C0.0594882 21.2729 0.171485 21.0015 0.37124 20.8012L8.90728 12.2409C8.95684 12.1912 9.01573 12.1518 9.08055 12.1249C9.14538 12.098 9.21489 12.0842 9.28507 12.0842C9.35526 12.0842 9.42476 12.0981 9.48957 12.125C9.55439 12.1519 9.61325 12.1914 9.66279 12.2411Z" fill="#1490DF"/>
<path d="M30.4385 19.6484L31.6148 20.828C31.8145 21.0283 31.9265 21.2998 31.9261 21.5827C31.9257 21.8656 31.8129 22.1367 31.6126 22.3365L22.9152 31.0093C22.815 31.1092 22.6793 31.1652 22.5379 31.165C22.3964 31.1648 22.2608 31.1084 22.1609 31.0083L20.9847 29.8287C20.8849 29.7286 20.8289 29.5928 20.8291 29.4514C20.8293 29.3099 20.8856 29.1744 20.9858 29.0745L30.4385 19.6484Z" fill="#50E6FF"/>
<path d="M31.624 22.3059L30.4444 23.4821L21.1552 14.1666C21.1057 14.117 21.0665 14.0582 21.0398 13.9934C21.0131 13.9287 20.9994 13.8593 20.9995 13.7893C20.9996 13.7192 21.0135 13.6499 21.0404 13.5852C21.0673 13.5206 21.1067 13.4618 21.1563 13.4124L22.3358 12.2361C22.3854 12.1867 22.4442 12.1475 22.509 12.1208C22.5737 12.0941 22.6431 12.0804 22.7131 12.0805C22.7832 12.0806 22.8525 12.0945 22.9172 12.1214C22.9819 12.1482 23.0406 12.1876 23.0901 12.2372L31.6261 20.7974C31.8258 20.9977 31.9378 21.2692 31.9374 21.5521C31.937 21.835 31.8243 22.1062 31.624 22.3059Z" fill="#1490DF"/>
<path d="M16.1155 24.6112C17.822 24.6112 19.2053 23.2279 19.2053 21.5214C19.2053 19.815 17.822 18.4316 16.1155 18.4316C14.4091 18.4316 13.0258 19.815 13.0258 21.5214C13.0258 23.2279 14.4091 24.6112 16.1155 24.6112Z" fill="url(#paint1_linear_855_8541)"/>
</g>
<defs>
<linearGradient id="paint0_linear_855_8541" x1="16.1493" y1="0.976557" x2="16.1493" y2="7.15434" gradientUnits="userSpaceOnUse">
<stop stop-color="#50E6FF"/>
<stop offset="1" stop-color="#32BEDD"/>
</linearGradient>
<linearGradient id="paint1_linear_855_8541" x1="16.1155" y1="24.6094" x2="16.1155" y2="18.4316" gradientUnits="userSpaceOnUse">
<stop stop-color="#5E9624"/>
<stop offset="0.183" stop-color="#629C25"/>
<stop offset="0.435" stop-color="#6DAE2A"/>
<stop offset="0.726" stop-color="#7FCB30"/>
<stop offset="0.822" stop-color="#86D633"/>
</linearGradient>
<clipPath id="clip0_855_8541">
<rect width="32" height="32" fill="white"/>
</clipPath>
</defs>
</svg>
