<svg width="32" height="32" viewBox="0 0 32 32" fill="none" xmlns="http://www.w3.org/2000/svg">
<path d="M29.3227 14.9333C29.3227 23.5324 18.7467 30.4569 16.432 31.8667C16.3031 31.9494 16.1532 31.9933 16 31.9933C15.8468 31.9933 15.6969 31.9494 15.568 31.8667C13.2569 30.4747 2.67734 23.5502 2.67734 14.9333V4.592C2.67729 4.37533 2.76213 4.16726 2.91366 4.0124C3.0652 3.85754 3.27138 3.76821 3.488 3.76356C11.7333 3.55556 9.82756 0 16 0C22.1724 0 20.2667 3.55556 28.512 3.76356C28.7286 3.76821 28.9348 3.85754 29.0863 4.0124C29.2379 4.16726 29.3227 4.37533 29.3227 4.592V14.9333Z" fill="#0078D4"/>
<path d="M27.4684 15.0747C27.4684 22.4863 18.3644 28.4312 16.3698 29.6312C16.2582 29.6993 16.1299 29.7354 15.9991 29.7354C15.8683 29.7354 15.7401 29.6993 15.6284 29.6312C13.6356 28.4312 4.53156 22.4863 4.53156 15.0747V6.25338C4.51522 6.15987 4.51748 6.06405 4.53822 5.97141C4.55897 5.87878 4.59778 5.79114 4.65244 5.71353C4.7071 5.63591 4.77653 5.56984 4.85677 5.5191C4.937 5.46836 5.02645 5.43394 5.12 5.41782C5.15871 5.41075 5.19798 5.40718 5.23734 5.40716C12.3289 5.28271 10.7058 2.24805 16 2.24805C21.2942 2.24805 19.6693 5.28271 26.7627 5.40716C26.9503 5.41036 27.1293 5.48631 27.262 5.61898C27.3946 5.75165 27.4706 5.93067 27.4738 6.11827L27.4684 15.0747Z" fill="url(#paint0_linear_855_8542)"/>
<path d="M22.0089 12.4727V19.4629L16.0178 22.9935V15.9678L22.0089 12.4727Z" fill="#50E6FF"/>
<path d="M22.0089 12.4721L16.0178 16.0027L9.99112 12.4721L16.0178 8.94141L22.0089 12.4721Z" fill="#C3F1FF"/>
<path d="M16.0178 16.0033V22.9935L9.99112 19.4629V12.4727L16.0178 16.0033Z" fill="#9CEBFF"/>
<path d="M9.99112 19.4619L16.0178 15.9668V22.9926L9.99112 19.4619Z" fill="#C3F1FF"/>
<path d="M22.0089 19.4619L16.0178 15.9668V22.9926L22.0089 19.4619Z" fill="#9CEBFF"/>
<defs>
<linearGradient id="paint0_linear_855_8542" x1="15.9947" y1="29.7378" x2="15.9947" y2="2.24805" gradientUnits="userSpaceOnUse">
<stop stop-color="#0078D4"/>
<stop offset="0.06" stop-color="#0A7CD7"/>
<stop offset="0.34" stop-color="#2E8CE1"/>
<stop offset="0.59" stop-color="#4897E9"/>
<stop offset="0.82" stop-color="#589EED"/>
<stop offset="1" stop-color="#5EA0EF"/>
</linearGradient>
</defs>
</svg>
