<svg width="32" height="32" viewBox="0 0 32 32" fill="none" xmlns="http://www.w3.org/2000/svg">
<g clip-path="url(#clip0_855_8547)">
<path d="M29.1734 7.11914V21.2827L16.9333 28.3991V14.2143L29.1734 7.11914Z" fill="#32BEDD"/>
<path d="M29.1734 7.11822L16.9351 14.2329L4.69336 7.11644L16.9351 0L29.1734 7.11822Z" fill="#9CEBFF"/>
<path d="M16.9334 14.2336V28.399L4.69336 21.2825V7.11719L16.9334 14.2336Z" fill="#50E6FF"/>
<path d="M4.69336 21.2813L16.9334 14.2129V28.3978L4.69336 21.2813Z" fill="#9CEBFF"/>
<path d="M29.1734 21.2813L16.9333 14.2129V28.3978L29.1734 21.2813Z" fill="#50E6FF"/>
<path d="M23.2658 26.0955L17.3387 31.9141C17.2965 31.9558 17.2429 31.9839 17.1846 31.995C17.1264 32.0061 17.0662 31.9996 17.0117 31.9763C16.9572 31.953 16.9108 31.9141 16.8785 31.8644C16.8462 31.8147 16.8294 31.7565 16.8302 31.6973L16.8605 28.4617V28.2661C9.79379 28.2004 2.7609 24.355 2.8249 17.5586C3.82045 19.0821 8.83023 23.1621 16.9067 23.2475V23.1888L16.9369 19.955C16.9371 19.8958 16.9549 19.838 16.9881 19.7889C17.0212 19.7398 17.0683 19.7017 17.1231 19.6794C17.178 19.6571 17.2383 19.6516 17.2963 19.6636C17.3543 19.6757 17.4074 19.7047 17.4489 19.747L23.2658 25.6759C23.3214 25.7316 23.3526 25.807 23.3526 25.8857C23.3526 25.9644 23.3214 26.0398 23.2658 26.0955Z" fill="#773ADC"/>
</g>
<defs>
<clipPath id="clip0_855_8547">
<rect width="32" height="32" fill="white"/>
</clipPath>
</defs>
</svg>
