<svg width="32" height="32" viewBox="0 0 32 32" fill="none" xmlns="http://www.w3.org/2000/svg">
<g clip-path="url(#clip0_855_8548)">
<path d="M19.8525 31.4983L1.93423 23.4361C1.60247 23.2978 1.30163 23.0947 1.04933 22.8387C0.797039 22.5827 0.598357 22.2789 0.46492 21.9451C0.331484 21.6114 0.265975 21.2543 0.272229 20.8949C0.278483 20.5356 0.356375 20.181 0.501344 19.8521L8.56357 1.9339C8.70188 1.60213 8.90499 1.30129 9.16101 1.049C9.41703 0.796703 9.72081 0.598021 10.0546 0.464585C10.3883 0.331148 10.7453 0.265639 11.1047 0.271893C11.4641 0.278148 11.8187 0.356039 12.1476 0.501008L30.0658 8.56323C30.3976 8.70154 30.6984 8.90466 30.9507 9.16068C31.203 9.41669 31.4017 9.72048 31.5351 10.0542C31.6685 10.388 31.734 10.745 31.7278 11.1044C31.7215 11.4638 31.6436 11.8183 31.4987 12.1472L23.4365 30.0655C23.2981 30.3972 23.095 30.6981 22.839 30.9504C22.583 31.2026 22.2792 31.4013 21.9455 31.5348C21.6117 31.6682 21.2547 31.7337 20.8953 31.7275C20.5359 31.7212 20.1814 31.6433 19.8525 31.4983Z" fill="#74CFEB"/>
<path d="M28.2667 9.10283L23.4365 4.26728C23.207 4.02616 22.9279 3.83771 22.6185 3.71494C22.3092 3.59216 21.9768 3.53799 21.6445 3.55616H6.41423C6.08383 3.5489 5.75537 3.60856 5.44863 3.73156C5.14189 3.85456 4.86321 4.03835 4.62936 4.27187C4.39551 4.50539 4.21132 4.78381 4.08789 5.09037C3.96445 5.39694 3.90433 5.72531 3.91112 6.05572V25.9455C3.90308 26.2771 3.96247 26.6069 4.08568 26.9149C4.2089 27.2228 4.39337 27.5026 4.62792 27.7371C4.86248 27.9717 5.14222 28.1562 5.45019 28.2794C5.75817 28.4026 6.08795 28.462 6.41956 28.4539H26.4889C26.8205 28.462 27.1503 28.4026 27.4583 28.2794C27.7662 28.1562 28.046 27.9717 28.2805 27.7371C28.5151 27.5026 28.6996 27.2228 28.8228 26.9149C28.946 26.6069 29.0054 26.2771 28.9973 25.9455V10.8948C28.9854 10.231 28.7327 9.59418 28.2862 9.10283H28.2667Z" fill="url(#paint0_linear_855_8548)"/>
<path d="M13.2427 28.4531L19.8205 31.39C21.8933 32.6007 23.6231 30.0087 24.1405 28.4531" fill="url(#paint1_linear_855_8548)"/>
<path d="M25.0436 17.0227V14.9605L24.7556 14.8521L22.5476 14.1285L21.9698 12.717L23.0898 10.3294L21.6427 8.8894L21.3547 9.0334L19.2925 10.0841L17.8809 9.50451L16.976 7.01562H14.9156L14.8053 7.2894L14.0818 9.4974L12.672 10.077L10.32 8.95518L8.8729 10.4023L9.01867 10.6921L10.0676 12.7525L9.48801 14.1641L6.95645 15.069V17.1312L7.24445 17.2396L9.45245 17.9632L10.0302 19.373L8.91023 21.7605L10.3573 23.2076L10.6453 23.0636L12.7076 22.0147L14.1191 22.5925L15.024 25.0814H17.0845L17.1947 24.7916L17.9182 22.5836L19.328 22.0058L21.7156 23.1276L23.1627 21.6805L23.0187 21.3907L21.9698 19.3285L22.5476 17.917L25.0436 17.0227Z" fill="url(#paint2_linear_855_8548)"/>
<path d="M17.1591 11.1853C17.131 11.1693 17.099 11.1613 17.0667 11.1622C17.034 11.1659 17.0023 11.1762 16.9736 11.1924C16.9449 11.2086 16.9197 11.2303 16.8996 11.2564L12.8 17.2208C12.7788 17.252 12.7655 17.288 12.7615 17.3255C12.7575 17.363 12.7628 17.401 12.7769 17.4359C12.7967 17.4696 12.8244 17.498 12.8575 17.5187C12.8906 17.5395 12.9282 17.5519 12.9671 17.5551H15.4169L14.32 21.1551C14.3099 21.177 14.3043 21.2008 14.3036 21.225C14.303 21.2492 14.3073 21.2733 14.3163 21.2957C14.3253 21.3182 14.3388 21.3386 14.3559 21.3557C14.3731 21.3728 14.3935 21.3862 14.416 21.3951C14.4438 21.4134 14.4771 21.4216 14.5102 21.4182C14.5424 21.4161 14.5739 21.4075 14.6026 21.3928C14.6314 21.3781 14.6568 21.3577 14.6774 21.3328L18.9014 15.2884C18.9245 15.2404 18.9476 15.2173 18.9476 15.1693C18.9478 15.1411 18.9425 15.1132 18.9318 15.0871C18.9212 15.061 18.9056 15.0373 18.8857 15.0173C18.8659 14.9973 18.8423 14.9814 18.8163 14.9706C18.7903 14.9597 18.7624 14.9542 18.7342 14.9542H16.2045L17.2551 11.4235C17.265 11.4016 17.2704 11.378 17.2708 11.354C17.2713 11.33 17.267 11.3062 17.258 11.2839C17.249 11.2616 17.2356 11.2414 17.2187 11.2245C17.2017 11.2075 17.1814 11.1942 17.1591 11.1853Z" fill="white"/>
</g>
<defs>
<linearGradient id="paint0_linear_855_8548" x1="16.448" y1="28.4539" x2="16.448" y2="3.50639" gradientUnits="userSpaceOnUse">
<stop stop-color="#B3B4B4"/>
<stop offset="0.33" stop-color="#B3B4B4"/>
<stop offset="0.82" stop-color="#CCCCCB"/>
<stop offset="1" stop-color="#CCCCCB"/>
</linearGradient>
<linearGradient id="paint1_linear_855_8548" x1="18.7698" y1="27.1002" x2="18.5582" y2="30.6096" gradientUnits="userSpaceOnUse">
<stop offset="0.317" stop-color="#33BEDD"/>
<stop offset="1" stop-color="#74CFEB"/>
</linearGradient>
<linearGradient id="paint2_linear_855_8548" x1="16" y1="25.0903" x2="16" y2="7.0014" gradientUnits="userSpaceOnUse">
<stop stop-color="#616261"/>
<stop offset="1" stop-color="#B6B8BA"/>
</linearGradient>
<clipPath id="clip0_855_8548">
<rect width="32" height="32" fill="white"/>
</clipPath>
</defs>
</svg>
