<svg width="32" height="32" viewBox="0 0 32 32" fill="none" xmlns="http://www.w3.org/2000/svg">
<g clip-path="url(#clip0_855_8598)">
<path d="M27.6978 14.9476C27.6978 15.3316 27.6764 15.7191 27.6427 16.096C20.6222 12.5938 12.5938 20.6791 16.0978 27.6996C6.944 28.8 -0.551113 18.7805 3.03466 10.3111C3.6073 8.8357 4.45152 7.48073 5.52355 6.31646C6.72533 8.61335 7.05244 4.78046 7.94666 4.22757C16.9031 -1.31554 28.0231 5.05423 27.6978 14.9476Z" fill="url(#paint0_linear_855_8598)"/>
<path d="M14.9333 2.18137H14.8835C12.4231 2.17608 10.0142 2.8864 7.9502 4.22581L6.9422 2.29159C9.32673 0.778562 12.0933 -0.0231521 14.9173 -0.019519C14.636 -0.0171743 14.3669 0.0962406 14.1688 0.296026C13.9707 0.495811 13.8595 0.765783 13.8595 1.04715V1.07559C13.8608 1.363 13.9733 1.63875 14.1735 1.84494C14.3737 2.05113 14.6461 2.17172 14.9333 2.18137ZM13.968 4.87292V14.4943C13.968 14.7366 14.0643 14.969 14.2356 15.1404C14.407 15.3118 14.6394 15.408 14.8818 15.408H15.0595C15.302 15.408 15.5347 15.3118 15.7063 15.1405C15.8779 14.9692 15.9746 14.7368 15.9751 14.4943V4.87292C15.9746 4.63041 15.8779 4.39799 15.7063 4.22668C15.5347 4.05536 15.302 3.95915 15.0595 3.95915H14.8818C14.6394 3.95915 14.407 4.05542 14.2356 4.22679C14.0643 4.39815 13.968 4.63058 13.968 4.87292ZM16.4693 15.184C16.3845 15.0992 16.2837 15.0318 16.1728 14.9859C16.062 14.94 15.9431 14.9163 15.8231 14.9163C15.7031 14.9163 15.5842 14.94 15.4733 14.9859C15.3625 15.0318 15.2617 15.0992 15.1769 15.184L15.0506 15.3067C14.88 15.4788 14.7842 15.7114 14.7842 15.9538C14.7842 16.1962 14.88 16.4288 15.0506 16.6009L17.1306 18.6791C17.5441 18.1528 18.0165 17.6756 18.5386 17.2569L16.4693 15.184Z" fill="#7A7A7A"/>
<path d="M14.8818 17.0427C16.0472 17.0427 16.992 16.0979 16.992 14.9325C16.992 13.767 16.0472 12.8223 14.8818 12.8223C13.7163 12.8223 12.7715 13.767 12.7715 14.9325C12.7715 16.0979 13.7163 17.0427 14.8818 17.0427Z" fill="#4F4F4F"/>
<path d="M16.0978 27.7002C16.2507 28.3473 17.5627 29.4122 16.4764 29.7731C3.15377 31.2895 -5.64445 14.7562 4.22221 4.51973C3.95732 4.07884 2.67555 2.94284 3.77066 2.66551L8.03732 2.1624C9.22844 2.19084 8.0871 3.72506 7.9431 4.22818C7.76532 4.64773 7.05421 6.16418 6.77866 6.80951C6.29866 7.55262 5.79555 6.76862 5.51999 6.31706C5.2871 6.56951 5.06666 6.8344 4.8551 7.10107L4.84799 7.11173C4.76799 7.2184 4.68799 7.32329 4.61155 7.42995L4.59021 7.46729C3.95131 8.34007 3.43064 9.29352 3.04177 10.3028V10.3153C-0.611565 19.0388 7.05777 28.5962 16.0978 27.7002ZM21.4827 1.50284C21.4481 1.47708 21.4089 1.45836 21.3671 1.44773C19.356 0.479167 17.1513 -0.0204857 14.9191 -0.0136017C14.6385 0.00236628 14.3747 0.125076 14.1817 0.329363C13.9887 0.53365 13.8812 0.804033 13.8812 1.08507C13.8812 1.3661 13.9887 1.63648 14.1817 1.84077C14.3747 2.04505 14.6385 2.16776 14.9191 2.18373H15.1555C16.9065 2.21907 18.6315 2.61395 20.2235 3.34386C21.8155 4.07377 23.2405 5.12313 24.4099 6.42679C25.5794 7.73045 26.4684 9.26058 27.0217 10.9222C27.5751 12.5838 27.781 14.3414 27.6267 16.086C29.6604 17.2308 29.8684 17.5082 29.8667 14.9091C29.8621 12.1141 29.0741 9.37646 27.5922 7.00677C26.1102 4.63708 23.9936 2.73029 21.4827 1.50284Z" fill="#76BC2D"/>
<path d="M29.5004 18.2321C28.9184 17.6878 28.2595 17.232 27.5449 16.8792C27.5111 16.8597 27.4702 16.8383 27.4293 16.8188C25.9428 16.1161 24.2757 15.8894 22.6556 16.1695C21.0355 16.4497 19.5413 17.2231 18.3771 18.3842C17.213 19.5452 16.4355 21.0373 16.151 22.6567C15.8665 24.2761 16.0888 25.9438 16.7875 27.4321C16.8077 27.4815 16.8309 27.5296 16.8569 27.5761C17.2007 28.2717 17.6445 28.9131 18.1742 29.4801C18.1742 29.4943 18.1955 29.5015 18.208 29.5157C18.9405 30.2932 19.8217 30.9158 20.7992 31.3466C21.7768 31.7773 22.8308 32.0075 23.899 32.0234C24.9671 32.0393 26.0276 31.8407 27.0176 31.4392C28.0075 31.0378 28.9068 30.4417 29.6622 29.6863C30.4176 28.931 31.0136 28.0317 31.4151 27.0417C31.8165 26.0517 32.0152 24.9913 31.9992 23.9231C31.9833 22.855 31.7532 21.8009 31.3224 20.8234C30.8917 19.8458 30.2691 18.9647 29.4915 18.2321H29.5004Z" fill="url(#paint1_linear_855_8598)"/>
<path d="M26.1938 24.7945C25.9302 24.2391 25.4705 23.8009 24.9031 23.5643C24.4764 23.4004 24.0658 23.1975 23.6764 22.9581C23.6004 22.9205 23.5325 22.8682 23.4768 22.8042C23.421 22.7402 23.3786 22.6658 23.3518 22.5853C23.325 22.5048 23.3144 22.4198 23.3207 22.3351C23.327 22.2505 23.35 22.168 23.3884 22.0923C23.4454 22.0026 23.5252 21.9296 23.6195 21.8808C23.9478 21.7316 24.3062 21.6607 24.6666 21.6737C25.0269 21.6866 25.3793 21.7831 25.696 21.9554C25.8263 22.0162 25.9517 22.087 26.0711 22.167V20.7448C25.192 20.4447 24.2473 20.3924 23.3404 20.5936C23.0556 20.6469 22.7843 20.7566 22.5425 20.9163C22.3007 21.0759 22.0933 21.2824 21.9324 21.5234C21.9239 21.545 21.9126 21.5653 21.8987 21.5839C21.749 21.8655 21.6737 22.1806 21.68 22.4994C21.6702 22.92 21.8079 23.3307 22.0693 23.6603C22.3975 24.0195 22.8047 24.2977 23.2587 24.4728C23.8364 24.7394 25.0204 25.0665 24.6578 25.895C24.608 25.9854 24.535 26.0609 24.4462 26.1136C24.175 26.2477 23.8736 26.309 23.5715 26.2914C22.9368 26.2875 22.3208 26.0765 21.8169 25.6905C21.7743 25.6608 21.7333 25.6287 21.6942 25.5945V27.1181C21.9783 27.262 22.282 27.3632 22.5955 27.4185C22.7324 27.4381 22.8622 27.4594 23.0329 27.4736C24.144 27.5625 25.6995 27.4861 26.2098 26.295C26.3122 26.0577 26.3638 25.8015 26.361 25.5431C26.3582 25.2846 26.3013 25.0296 26.1938 24.7945ZM23.8933 27.9945C23.7576 27.9938 23.6247 28.0334 23.5115 28.1082C23.3983 28.183 23.3097 28.2897 23.2572 28.4149C23.2046 28.54 23.1903 28.6779 23.2161 28.8111C23.2418 28.9444 23.3066 29.067 23.402 29.1635C23.4975 29.2599 23.6194 29.3259 23.7524 29.3531C23.8854 29.3803 24.0234 29.3674 24.1491 29.3161C24.2748 29.2648 24.3824 29.1774 24.4584 29.065C24.5344 28.9525 24.5753 28.82 24.576 28.6843C24.5751 28.5034 24.5029 28.3301 24.3751 28.202C24.2474 28.0739 24.0743 28.0013 23.8933 27.9999V27.9945ZM23.9271 18.6914C23.7906 18.6904 23.6568 18.73 23.5429 18.8052C23.4289 18.8803 23.3399 18.9877 23.2872 19.1137C23.2345 19.2396 23.2204 19.3784 23.2468 19.5123C23.2731 19.6463 23.3388 19.7694 23.4353 19.8659C23.5318 19.9624 23.6549 20.0281 23.7889 20.0544C23.9228 20.0808 24.0616 20.0667 24.1875 20.014C24.3135 19.9613 24.4209 19.8723 24.496 19.7583C24.5712 19.6444 24.6108 19.5106 24.6098 19.3741C24.6103 19.2846 24.5929 19.1958 24.5587 19.1131C24.5245 19.0303 24.4741 18.9552 24.4106 18.8922C24.347 18.8291 24.2715 18.7794 24.1885 18.7458C24.1055 18.7123 24.0166 18.6956 23.9271 18.6968V18.6914Z" fill="white"/>
</g>
<defs>
<linearGradient id="paint0_linear_855_8598" x1="14.912" y1="2.25423" x2="14.912" y2="27.4471" gradientUnits="userSpaceOnUse">
<stop offset="0.163" stop-color="#F2F2F2"/>
<stop offset="1" stop-color="#E6E6E6"/>
</linearGradient>
<linearGradient id="paint1_linear_855_8598" x1="24.0195" y1="15.9459" x2="24.0195" y2="31.8463" gradientUnits="userSpaceOnUse">
<stop stop-color="#86D633"/>
<stop offset="0.999" stop-color="#76BC2D"/>
</linearGradient>
<clipPath id="clip0_855_8598">
<rect width="32" height="32" fill="white"/>
</clipPath>
</defs>
</svg>
