<svg width="32" height="32" viewBox="0 0 32 32" fill="none" xmlns="http://www.w3.org/2000/svg">
<g clip-path="url(#clip0_855_8565)">
<path d="M31.9449 26.7033C31.6462 28.0188 30.0142 29.2988 27.0631 30.3033C19.6812 32.4733 11.8321 32.4838 4.44443 30.3335C1.72265 29.3753 0.255987 28.1415 0.0266534 26.9006C-0.0160133 26.6819 0.0266534 23.3201 0.0266534 23.3201L32 23.0215C32 23.0215 31.9822 26.545 31.9449 26.7033Z" fill="#5EA0EF"/>
<path d="M32 23.0804V23.1213C31.9733 26.1595 24.8569 28.6875 16.0551 28.7746C7.50578 28.8635 0.510223 26.6199 0.0284455 23.7097C0.0100892 23.61 0.000570763 23.5089 1.00687e-06 23.4075C-0.0106657 22.0653 1.35467 20.8226 3.64089 19.8413C7.57442 18.3709 11.7478 17.6475 15.9467 17.7079C20.1511 17.5616 24.3458 18.2025 28.3147 19.5977C30.5707 20.5168 31.9431 21.7044 31.9982 23.0146L32 23.0804Z" fill="#50E6FF"/>
<path d="M23.328 16.5195H3.39554C2.84277 16.5195 2.39465 16.9676 2.39465 17.5204V23.748C2.39465 24.3008 2.84277 24.7489 3.39554 24.7489H23.328C23.8808 24.7489 24.3289 24.3008 24.3289 23.748V17.5204C24.3289 16.9676 23.8808 16.5195 23.328 16.5195Z" fill="#005BA1"/>
<path d="M23.328 8.29102H3.39554C2.84277 8.29102 2.39465 8.73913 2.39465 9.2919V15.5195C2.39465 16.0722 2.84277 16.5203 3.39554 16.5203H23.328C23.8808 16.5203 24.3289 16.0722 24.3289 15.5195V9.2919C24.3289 8.73913 23.8808 8.29102 23.328 8.29102Z" fill="#0078D4"/>
<path d="M23.328 0.0625H3.39554C2.84277 0.0625 2.39465 0.510613 2.39465 1.06339V7.29094C2.39465 7.84372 2.84277 8.29183 3.39554 8.29183H23.328C23.8808 8.29183 24.3289 7.84372 24.3289 7.29094V1.06339C24.3289 0.510613 23.8808 0.0625 23.328 0.0625Z" fill="#5EA0EF"/>
<path d="M4.39819 4.17764C4.39819 3.85702 4.52556 3.54954 4.75227 3.32283C4.97898 3.09612 5.28647 2.96875 5.60708 2.96875C5.7659 2.96852 5.92321 2.99963 6.06998 3.0603C6.21676 3.12097 6.35012 3.21 6.46242 3.3223C6.57472 3.43461 6.66376 3.56797 6.72443 3.71474C6.7851 3.86152 6.81621 4.01882 6.81597 4.17764C6.81597 4.33631 6.78469 4.49342 6.72392 4.63999C6.66314 4.78656 6.57407 4.91971 6.46179 5.03183C6.34951 5.14394 6.21623 5.23282 6.06957 5.29338C5.92291 5.35393 5.76575 5.38499 5.60708 5.38475C5.28677 5.38475 4.97956 5.25763 4.7529 5.0313C4.52624 4.80498 4.39866 4.49795 4.39819 4.17764ZM12.6826 4.17764C12.6829 4.12831 12.6733 4.07943 12.6546 4.03381C12.6358 3.9882 12.6082 3.94675 12.5733 3.91187C12.5384 3.87699 12.497 3.84937 12.4514 3.8306C12.4057 3.81184 12.3569 3.80229 12.3075 3.80253H8.46219C8.36271 3.80253 8.2673 3.84205 8.19695 3.9124C8.1266 3.98274 8.08708 4.07815 8.08708 4.17764C8.08708 4.27713 8.1266 4.37254 8.19695 4.44288C8.2673 4.51323 8.36271 4.55275 8.46219 4.55275H12.3075C12.3568 4.55275 12.4056 4.54305 12.4511 4.5242C12.4966 4.50535 12.5379 4.47772 12.5728 4.44288C12.6076 4.40805 12.6352 4.3667 12.6541 4.32119C12.6729 4.27568 12.6826 4.2269 12.6826 4.17764ZM12.6826 12.4052C12.6829 12.3559 12.6733 12.307 12.6546 12.2614C12.6358 12.2158 12.6082 12.1743 12.5733 12.1394C12.5384 12.1045 12.497 12.0769 12.4514 12.0582C12.4057 12.0394 12.3569 12.0299 12.3075 12.0301H8.46219C8.36271 12.0301 8.2673 12.0696 8.19695 12.14C8.1266 12.2103 8.08708 12.3057 8.08708 12.4052C8.08708 12.5047 8.1266 12.6001 8.19695 12.6704C8.2673 12.7408 8.36271 12.7803 8.46219 12.7803H12.3075C12.3569 12.7805 12.4057 12.771 12.4514 12.7522C12.497 12.7335 12.5384 12.7058 12.5733 12.671C12.6082 12.6361 12.6358 12.5946 12.6546 12.549C12.6733 12.5034 12.6829 12.4545 12.6826 12.4052ZM12.6826 20.6345C12.6829 20.5852 12.6733 20.5363 12.6546 20.4907C12.6358 20.4451 12.6082 20.4036 12.5733 20.3688C12.5384 20.3339 12.497 20.3063 12.4514 20.2875C12.4057 20.2687 12.3569 20.2592 12.3075 20.2594H8.46219C8.41088 20.2559 8.35939 20.2629 8.31092 20.2801C8.26244 20.2973 8.21803 20.3243 8.18043 20.3594C8.14283 20.3945 8.11285 20.437 8.09235 20.4841C8.07185 20.5313 8.06127 20.5822 8.06127 20.6336C8.06127 20.6851 8.07185 20.736 8.09235 20.7831C8.11285 20.8303 8.14283 20.8728 8.18043 20.9079C8.21803 20.943 8.26244 20.9699 8.31092 20.9871C8.35939 21.0043 8.41088 21.0114 8.46219 21.0079H12.3075C12.3567 21.0081 12.4054 20.9986 12.4509 20.98C12.4964 20.9613 12.5378 20.9338 12.5727 20.8991C12.6075 20.8645 12.6352 20.8232 12.654 20.7778C12.6729 20.7324 12.6826 20.6837 12.6826 20.6345ZM5.60708 13.6141C5.7659 13.6143 5.92321 13.5832 6.06998 13.5225C6.21676 13.4619 6.35012 13.3728 6.46242 13.2605C6.57472 13.1482 6.66376 13.0149 6.72443 12.8681C6.7851 12.7213 6.81621 12.564 6.81597 12.4052C6.81597 12.0846 6.68861 11.7771 6.4619 11.5504C6.23519 11.3237 5.9277 11.1963 5.60708 11.1963C5.28661 11.1968 4.9794 11.3243 4.75279 11.5509C4.52618 11.7775 4.39866 12.0847 4.39819 12.4052C4.39819 12.7258 4.52556 13.0333 4.75227 13.26C4.97898 13.4867 5.28647 13.6141 5.60708 13.6141ZM5.60708 21.8434C5.9277 21.8434 6.23519 21.7161 6.4619 21.4893C6.68861 21.2626 6.81597 20.9551 6.81597 20.6345C6.81621 20.4757 6.7851 20.3184 6.72443 20.1716C6.66376 20.0249 6.57472 19.8915 6.46242 19.7792C6.35012 19.6669 6.21676 19.5779 6.06998 19.5172C5.92321 19.4565 5.7659 19.4254 5.60708 19.4256C5.28647 19.4256 4.97898 19.553 4.75227 19.7797C4.52556 20.0064 4.39819 20.3139 4.39819 20.6345C4.39866 20.955 4.52618 21.2622 4.75279 21.4888C4.9794 21.7154 5.28661 21.8429 5.60708 21.8434Z" fill="white"/>
<path opacity="0.3" d="M24.3271 7.28952V1.0673C24.3271 0.935857 24.3012 0.805705 24.2509 0.684272C24.2006 0.562838 24.1269 0.452501 24.0339 0.35956C23.941 0.266619 23.8307 0.192894 23.7092 0.142594C23.5878 0.092295 23.4576 0.0664062 23.3262 0.0664062H3.39554C3.13009 0.0664063 2.87551 0.171857 2.68781 0.35956C2.5001 0.547263 2.39465 0.801843 2.39465 1.0673V7.28952C2.39465 7.55497 2.5001 7.80955 2.68781 7.99725C2.87551 8.18496 3.13009 8.29041 3.39554 8.29041C3.13009 8.29041 2.87551 8.39586 2.68781 8.58356C2.5001 8.77126 2.39465 9.02584 2.39465 9.2913V15.5135C2.39512 15.7787 2.50078 16.0328 2.68843 16.2201C2.87609 16.4074 3.1304 16.5126 3.39554 16.5126C3.13009 16.5126 2.87551 16.6181 2.68781 16.8058C2.5001 16.9935 2.39465 17.2481 2.39465 17.5135V23.7357C2.39465 24.0012 2.5001 24.2558 2.68781 24.4435C2.87551 24.6312 3.13009 24.7366 3.39554 24.7366H23.3262C23.5917 24.7366 23.8462 24.6312 24.0339 24.4435C24.2216 24.2558 24.3271 24.0012 24.3271 23.7357V17.5135C24.3271 17.2481 24.2216 16.9935 24.0339 16.8058C23.8462 16.6181 23.5917 16.5126 23.3262 16.5126C23.5914 16.5126 23.8457 16.4074 24.0333 16.2201C24.221 16.0328 24.3266 15.7787 24.3271 15.5135V9.2913C24.3271 9.02584 24.2216 8.77126 24.0339 8.58356C23.8462 8.39586 23.5917 8.29041 23.3262 8.29041C23.5917 8.29041 23.8462 8.18496 24.0339 7.99725C24.2216 7.80955 24.3271 7.55497 24.3271 7.28952Z" fill="url(#paint0_linear_855_8565)"/>
<path d="M29.6054 21.1552C29.5823 20.3093 29.2613 19.4987 28.6989 18.8664C28.1366 18.2342 27.369 17.8208 26.5316 17.6992C26.493 16.5094 25.9879 15.3826 25.1253 14.5623C24.2627 13.742 23.112 13.294 21.9218 13.3152C20.9582 13.3005 20.0142 13.5883 19.2227 14.138C18.4312 14.6878 17.832 15.4719 17.5094 16.3801C16.4984 16.5124 15.5683 17.0023 14.8873 17.7612C14.2064 18.52 13.8198 19.4976 13.7974 20.517C13.8276 21.6666 14.3125 22.7573 15.1456 23.5501C15.9787 24.3429 17.0921 24.773 18.2418 24.7463H26.0427C26.9873 24.7297 27.8881 24.3451 28.5535 23.6744C29.2189 23.0037 29.5962 22.0999 29.6054 21.1552Z" fill="url(#paint1_linear_855_8565)"/>
</g>
<defs>
<linearGradient id="paint0_linear_855_8565" x1="13.3618" y1="2.24774" x2="13.3618" y2="24.3082" gradientUnits="userSpaceOnUse">
<stop stop-color="#C3F1FF"/>
<stop offset="1" stop-color="white" stop-opacity="0"/>
</linearGradient>
<linearGradient id="paint1_linear_855_8565" x1="21.7014" y1="11.5196" x2="21.7014" y2="27.2938" gradientUnits="userSpaceOnUse">
<stop offset="0.18" stop-color="#5EA0EF"/>
<stop offset="1" stop-color="#0078D4"/>
</linearGradient>
<clipPath id="clip0_855_8565">
<rect width="32" height="32" fill="white"/>
</clipPath>
</defs>
</svg>
