<svg width="32" height="32" viewBox="0 0 32 32" fill="none" xmlns="http://www.w3.org/2000/svg">
<path d="M31.5858 17.4432C31.5354 15.7825 30.8965 14.1938 29.7832 12.9606C28.6698 11.7275 27.1545 10.93 25.5076 10.7107C25.4072 8.39073 24.3966 6.20373 22.6948 4.62372C20.993 3.04372 18.7371 2.198 16.416 2.26986C14.5391 2.23615 12.6982 2.78654 11.1477 3.84488C9.59734 4.90322 8.41413 6.41721 7.7618 8.17741C5.77878 8.41742 3.94735 9.3599 2.59942 10.834C1.2515 12.3082 0.476274 14.2164 0.414246 16.213C0.502656 18.4551 1.47593 20.5708 3.12095 22.0969C4.76597 23.623 6.94868 24.435 9.19114 24.3552C9.45247 24.3552 9.71025 24.3427 9.96447 24.3232H24.1778C24.3048 24.3206 24.4309 24.3015 24.5529 24.2663C26.3782 24.2534 28.1282 23.5368 29.4383 22.2658C30.7484 20.9947 31.5176 19.2673 31.5858 17.4432Z" fill="url(#paint0_linear_855_8516)"/>
<path d="M22.2222 16.2254C22.7022 15.7436 22.9717 15.0912 22.9717 14.4112C22.9717 13.7311 22.7022 13.0787 22.2222 12.5969L17.808 8.17739C17.5707 7.93916 17.2886 7.75013 16.9781 7.62115C16.6675 7.49218 16.3345 7.42578 15.9982 7.42578C15.662 7.42578 15.329 7.49218 15.0184 7.62115C14.7079 7.75013 14.4258 7.93916 14.1885 8.17739L9.77781 12.5969C9.29786 13.0787 9.02838 13.7311 9.02838 14.4112C9.02838 15.0912 9.29786 15.7436 9.77781 16.2254L13.4489 19.9107C13.5159 19.9773 13.5689 20.0565 13.605 20.1438C13.641 20.2311 13.6592 20.3247 13.6587 20.4192V27.2636C13.6586 27.3785 13.6812 27.4923 13.7252 27.5984C13.7691 27.7046 13.8335 27.801 13.9147 27.8823L15.5876 29.5605C15.6413 29.6145 15.7051 29.6574 15.7755 29.6866C15.8458 29.7159 15.9212 29.731 15.9974 29.731C16.0735 29.731 16.1489 29.7159 16.2193 29.6866C16.2896 29.6574 16.3534 29.6145 16.4071 29.5605L18.0303 27.9338V27.9107L18.9867 26.9543C19.0178 26.9232 19.0424 26.8864 19.0592 26.8458C19.076 26.8052 19.0847 26.7618 19.0847 26.7178C19.0847 26.6739 19.076 26.6304 19.0592 26.5899C19.0424 26.5493 19.0178 26.5124 18.9867 26.4814L18.2987 25.7898C18.2648 25.756 18.238 25.7158 18.2196 25.6716C18.2013 25.6273 18.1919 25.5799 18.1919 25.5321C18.1919 25.4842 18.2013 25.4368 18.2196 25.3925C18.238 25.3483 18.2648 25.3081 18.2987 25.2743L18.9867 24.5827C19.018 24.5518 19.0428 24.515 19.0598 24.4744C19.0767 24.4338 19.0854 24.3903 19.0854 24.3463C19.0854 24.3023 19.0767 24.2587 19.0598 24.2182C19.0428 24.1776 19.018 24.1408 18.9867 24.1098L18.2987 23.4183C18.2648 23.3844 18.238 23.3442 18.2196 23.3C18.2013 23.2558 18.1919 23.2084 18.1919 23.1605C18.1919 23.1126 18.2013 23.0652 18.2196 23.021C18.238 22.9768 18.2648 22.9366 18.2987 22.9027L18.9885 22.2112C19.0508 22.1482 19.0857 22.0633 19.0857 21.9747C19.0857 21.8862 19.0508 21.8012 18.9885 21.7383L18.0303 20.7765V20.4209L22.2222 16.2254ZM16 9.24405C16.2886 9.243 16.5711 9.32764 16.8116 9.48726C17.052 9.64688 17.2397 9.87429 17.3508 10.1407C17.4619 10.4071 17.4914 10.7004 17.4356 10.9836C17.3799 11.2668 17.2413 11.527 17.0374 11.7314C16.8336 11.9357 16.5737 12.0749 16.2906 12.1314C16.0076 12.1879 15.7142 12.1591 15.4475 12.0486C15.1808 11.9382 14.953 11.7511 14.7928 11.511C14.6326 11.2709 14.5472 10.9887 14.5476 10.7001C14.5471 10.509 14.5843 10.3198 14.6571 10.1431C14.7299 9.96651 14.8368 9.80597 14.9717 9.67072C15.1067 9.53547 15.2669 9.42817 15.4434 9.35495C15.6198 9.28174 15.809 9.24405 16 9.24405Z" fill="url(#paint1_linear_855_8516)"/>
<path opacity="0.75" d="M14.8498 27.409C14.8946 27.4536 14.9519 27.4837 15.0141 27.4951C15.0763 27.5065 15.1405 27.4989 15.1983 27.4731C15.2561 27.4473 15.3046 27.4046 15.3376 27.3506C15.3706 27.2966 15.3865 27.2339 15.3831 27.1708V21.6312C15.3833 21.5773 15.3702 21.5242 15.3451 21.4764C15.32 21.4287 15.2836 21.3879 15.2391 21.3574C15.1911 21.3261 15.1354 21.3086 15.078 21.3068C15.0207 21.305 14.964 21.319 14.9141 21.3473C14.8642 21.3755 14.823 21.4169 14.7951 21.467C14.7671 21.5171 14.7534 21.5739 14.7556 21.6312V27.1708C14.7547 27.2147 14.7625 27.2585 14.7787 27.2994C14.7949 27.3403 14.819 27.3775 14.8498 27.409Z" fill="#0078D4"/>
<path opacity="0.75" d="M12.8533 14.0723H19.328C19.3794 14.0723 19.4302 14.0824 19.4777 14.102C19.5251 14.1217 19.5682 14.1505 19.6046 14.1868C19.6409 14.2231 19.6697 14.2663 19.6893 14.3137C19.709 14.3612 19.7191 14.412 19.7191 14.4634V14.538C19.7191 14.5894 19.709 14.6403 19.6893 14.6877C19.6697 14.7352 19.6409 14.7783 19.6046 14.8146C19.5682 14.8509 19.5251 14.8797 19.4777 14.8994C19.4302 14.919 19.3794 14.9292 19.328 14.9292H12.8533C12.802 14.9292 12.7511 14.919 12.7037 14.8994C12.6562 14.8797 12.6131 14.8509 12.5768 14.8146C12.5405 14.7783 12.5116 14.7352 12.492 14.6877C12.4723 14.6403 12.4622 14.5894 12.4622 14.538V14.4652C12.4622 14.361 12.5036 14.261 12.5773 14.1873C12.651 14.1137 12.7491 14.0723 12.8533 14.0723Z" fill="#0078D4"/>
<path opacity="0.75" d="M12.8533 15.4668H19.328C19.4317 15.4668 19.5312 15.508 19.6046 15.5814C19.6779 15.6547 19.7191 15.7542 19.7191 15.8579V15.9308C19.7191 16.035 19.6777 16.1349 19.604 16.2086C19.5304 16.2823 19.4304 16.3237 19.3262 16.3237H12.8533C12.7496 16.3237 12.6501 16.2825 12.5768 16.2091C12.5034 16.1358 12.4622 16.0363 12.4622 15.9326V15.8597C12.4622 15.7558 12.5034 15.6561 12.5767 15.5825C12.65 15.5089 12.7494 15.4673 12.8533 15.4668Z" fill="#0078D4"/>
<defs>
<linearGradient id="paint0_linear_855_8516" x1="16" y1="24.3623" x2="16" y2="2.26986" gradientUnits="userSpaceOnUse">
<stop stop-color="#0078D4"/>
<stop offset="0.817" stop-color="#5EA0EF"/>
</linearGradient>
<linearGradient id="paint1_linear_855_8516" x1="15.9983" y1="29.7294" x2="15.9983" y2="7.42005" gradientUnits="userSpaceOnUse">
<stop stop-color="#32BEDD"/>
<stop offset="0.113" stop-color="#3CCCE9"/>
<stop offset="0.292" stop-color="#47DBF5"/>
<stop offset="0.504" stop-color="#4EE3FD"/>
<stop offset="0.834" stop-color="#50E6FF"/>
</linearGradient>
</defs>
</svg>
