<svg width="32" height="32" viewBox="0 0 32 32" fill="none" xmlns="http://www.w3.org/2000/svg">
<g clip-path="url(#clip0_855_8551)">
<path d="M16.0462 19.5889C18.0011 19.5889 19.5858 18.0042 19.5858 16.0493C19.5858 14.0945 18.0011 12.5098 16.0462 12.5098C14.0914 12.5098 12.5067 14.0945 12.5067 16.0493C12.5067 18.0042 14.0914 19.5889 16.0462 19.5889Z" fill="url(#paint0_linear_855_8551)"/>
<path d="M17.4987 1.47588C17.4987 0.673719 16.8484 0.0234375 16.0462 0.0234375C15.2441 0.0234375 14.5938 0.673719 14.5938 1.47588V6.85188C14.5938 7.65404 15.2441 8.30433 16.0462 8.30433C16.8484 8.30433 17.4987 7.65404 17.4987 6.85188V1.47588Z" fill="#82BBFF"/>
<path d="M17.4987 25.1497C17.4987 24.3475 16.8484 23.6973 16.0462 23.6973C15.2441 23.6973 14.5938 24.3475 14.5938 25.1497V30.5257C14.5938 31.3279 15.2441 31.9782 16.0462 31.9782C16.8484 31.9782 17.4987 31.3279 17.4987 30.5257V25.1497Z" fill="#82BBFF"/>
<path d="M30.0906 17.5025C30.8928 17.5025 31.5431 16.8523 31.5431 16.0501C31.5431 15.2479 30.8928 14.5977 30.0906 14.5977H24.7146C23.9125 14.5977 23.2622 15.2479 23.2622 16.0501C23.2622 16.8523 23.9125 17.5025 24.7146 17.5025H30.0906Z" fill="#82BBFF"/>
<path d="M7.28532 17.5025C8.08748 17.5025 8.73776 16.8523 8.73776 16.0501C8.73776 15.2479 8.08748 14.5977 7.28532 14.5977H1.90932C1.10715 14.5977 0.456873 15.2479 0.456873 16.0501C0.456873 16.8523 1.10715 17.5025 1.90932 17.5025H7.28532Z" fill="#82BBFF"/>
<path d="M16.0462 25.8043C14.1169 25.8043 12.231 25.2322 10.6268 24.1603C9.02266 23.0884 7.77238 21.565 7.03407 19.7825C6.29576 18.0001 6.10259 16.0388 6.47897 14.1466C6.85536 12.2543 7.7844 10.5162 9.14862 9.152C10.5128 7.78779 12.2509 6.85875 14.1432 6.48236C16.0354 6.10597 17.9967 6.29915 19.7792 7.03746C21.5616 7.77576 23.0851 9.02604 24.1569 10.6302C25.2288 12.2343 25.8009 14.1203 25.8009 16.0496C25.798 18.6358 24.7694 21.1153 22.9407 22.9441C21.1119 24.7728 18.6324 25.8014 16.0462 25.8043ZM16.0462 8.82115C14.6166 8.82115 13.219 9.24509 12.0303 10.0394C10.8416 10.8336 9.9151 11.9626 9.36799 13.2834C8.82089 14.6042 8.67774 16.0576 8.95665 17.4598C9.23556 18.862 9.92401 20.15 10.9349 21.1609C11.9458 22.1718 13.2338 22.8602 14.636 23.1391C16.0382 23.4181 17.4916 23.2749 18.8124 22.7278C20.1332 22.1807 21.2622 21.2542 22.0564 20.0655C22.8507 18.8768 23.2747 17.4792 23.2747 16.0496C23.2723 14.1332 22.51 12.296 21.1549 10.9409C19.7998 9.58582 17.9626 8.8235 16.0462 8.82115Z" fill="url(#paint1_linear_855_8551)"/>
</g>
<defs>
<linearGradient id="paint0_linear_855_8551" x1="17.816" y1="19.1145" x2="14.2765" y2="12.9838" gradientUnits="userSpaceOnUse">
<stop stop-color="#EEAA45"/>
<stop offset="1" stop-color="#F4CF97"/>
</linearGradient>
<linearGradient id="paint1_linear_855_8551" x1="16.0462" y1="25.8043" x2="16.0462" y2="6.29493" gradientUnits="userSpaceOnUse">
<stop stop-color="#0078D4"/>
<stop offset="1" stop-color="#5EA0F0"/>
</linearGradient>
<clipPath id="clip0_855_8551">
<rect width="32" height="32" fill="white"/>
</clipPath>
</defs>
</svg>
