<svg width="32" height="32" viewBox="0 0 32 32" fill="none" xmlns="http://www.w3.org/2000/svg">
<path d="M11.0507 0.888672H5.05776C4.81823 0.888672 4.58105 0.935851 4.35975 1.02752C4.13845 1.11918 3.93738 1.25354 3.768 1.42291C3.59863 1.59228 3.46427 1.79336 3.37261 2.01466C3.28094 2.23596 3.23376 2.47314 3.23376 2.71267V8.71089H6.88176V4.53667H11.0507V0.888672Z" fill="#32BEDD"/>
<path d="M26.9422 0.888672H20.9511V4.53667H25.1182V8.71089H28.7662V2.71267C28.7662 2.47314 28.719 2.23596 28.6274 2.01466C28.5357 1.79336 28.4014 1.59228 28.232 1.42291C28.0626 1.25354 27.8615 1.11918 27.6402 1.02752C27.4189 0.935851 27.1818 0.888672 26.9422 0.888672Z" fill="#32BEDD"/>
<path d="M25.1182 23.2891V27.458H20.9511V31.1113H26.9422C27.426 31.1113 27.8899 30.9191 28.232 30.577C28.5741 30.235 28.7662 29.771 28.7662 29.2873V23.2891H25.1182Z" fill="#32BEDD"/>
<path d="M6.88177 27.4633V23.2891H3.23377V29.282C3.23307 29.5219 3.27973 29.7597 3.37108 29.9816C3.46243 30.2035 3.59668 30.4052 3.76612 30.5752C3.93556 30.7451 4.13688 30.8799 4.35852 30.9719C4.58017 31.0639 4.81779 31.1113 5.05777 31.1113H11.0507V27.4633H6.88177Z" fill="#32BEDD"/>
<path d="M6.62045 28.7659H25.3796C25.6556 28.765 25.92 28.6549 26.1152 28.4598C26.3103 28.2646 26.4204 28.0002 26.4213 27.7242V4.26639C26.4204 3.99038 26.3103 3.72594 26.1152 3.53077C25.92 3.33561 25.6556 3.22555 25.3796 3.22461H6.62045C6.34444 3.22555 6.08001 3.33561 5.88484 3.53077C5.68967 3.72594 5.57961 3.99038 5.57867 4.26639V27.7331C5.58194 28.0075 5.69303 28.2697 5.88794 28.4629C6.08286 28.6562 6.34597 28.765 6.62045 28.7659Z" fill="url(#paint0_linear_855_8519)"/>
<path d="M8.17778 26.6817H23.8222C23.9602 26.6813 24.0924 26.6262 24.19 26.5287C24.2876 26.4311 24.3426 26.2989 24.3431 26.1609V5.83907C24.3431 5.70076 24.2883 5.56809 24.1907 5.47012C24.093 5.37215 23.9605 5.31688 23.8222 5.31641H8.17778C8.03947 5.31688 7.90698 5.37215 7.80935 5.47012C7.71171 5.56809 7.65689 5.70076 7.65689 5.83907V26.1609C7.65736 26.2989 7.71239 26.4311 7.80997 26.5287C7.90756 26.6262 8.03978 26.6813 8.17778 26.6817Z" fill="white"/>
<path d="M11.8311 23.5546H20.1689C20.3069 23.5542 20.4391 23.4991 20.5367 23.4016C20.6343 23.304 20.6893 23.1717 20.6898 23.0337V20.6889C20.6893 20.5509 20.6343 20.4186 20.5367 20.3211C20.4391 20.2235 20.3069 20.1684 20.1689 20.168H11.8311C11.6931 20.1684 11.5609 20.2235 11.4633 20.3211C11.3657 20.4186 11.3107 20.5509 11.3102 20.6889V23.0337C11.3107 23.1717 11.3657 23.304 11.4633 23.4016C11.5609 23.4991 11.6931 23.5542 11.8311 23.5546Z" fill="#5E9624"/>
<path d="M11.8311 17.6931H20.1689C20.3069 17.6927 20.4391 17.6376 20.5367 17.54C20.6343 17.4425 20.6893 17.3102 20.6898 17.1722V14.8274C20.6898 14.689 20.6349 14.5564 20.5373 14.4584C20.4397 14.3604 20.3072 14.3052 20.1689 14.3047H11.8311C11.6928 14.3052 11.5603 14.3604 11.4627 14.4584C11.365 14.5564 11.3102 14.689 11.3102 14.8274V17.1722C11.3107 17.3102 11.3657 17.4425 11.4633 17.54C11.5609 17.6376 11.6931 17.6927 11.8311 17.6931Z" fill="#76BC2D"/>
<path d="M11.8311 11.83H20.1689C20.3069 11.8296 20.4391 11.7745 20.5367 11.6769C20.6343 11.5794 20.6893 11.4471 20.6898 11.3091V8.96425C20.6893 8.82624 20.6343 8.69403 20.5367 8.59644C20.4391 8.49886 20.3069 8.44383 20.1689 8.44336H11.8311C11.6931 8.44383 11.5609 8.49886 11.4633 8.59644C11.3657 8.69403 11.3107 8.82624 11.3102 8.96425V11.3091C11.3107 11.4471 11.3657 11.5794 11.4633 11.6769C11.5609 11.7745 11.6931 11.8296 11.8311 11.83Z" fill="#86D633"/>
<defs>
<linearGradient id="paint0_linear_855_8519" x1="16" y1="28.7659" x2="16" y2="3.2335" gradientUnits="userSpaceOnUse">
<stop stop-color="#198AB3"/>
<stop offset="0.619" stop-color="#31D0F1"/>
<stop offset="1" stop-color="#32D4F5"/>
</linearGradient>
</defs>
</svg>
