<svg width="32" height="32" viewBox="0 0 32 32" fill="none" xmlns="http://www.w3.org/2000/svg">
<g clip-path="url(#clip0_855_8539)">
<path d="M32 17.0964V14.9329C32.0002 14.7227 31.9342 14.5179 31.8113 14.3475C31.6885 14.1771 31.515 14.0497 31.3156 13.9835L27.7084 12.7817C27.6388 12.758 27.5751 12.7192 27.522 12.6682C27.4689 12.6173 27.4275 12.5553 27.4009 12.4866L26.624 10.4671C26.5994 10.4021 26.5885 10.3327 26.5918 10.2633C26.5952 10.1938 26.6128 10.1259 26.6436 10.0635L28.2916 6.75508C28.3849 6.56755 28.4169 6.35542 28.3831 6.1487C28.3493 5.94198 28.2513 5.75111 28.1031 5.60308L26.4889 3.99242C26.3409 3.84359 26.1497 3.74525 25.9425 3.71142C25.7353 3.67758 25.5228 3.70997 25.3351 3.80397L22.032 5.45197C21.97 5.48293 21.9022 5.50051 21.833 5.50358C21.7638 5.50664 21.6947 5.49511 21.6302 5.46975L19.6018 4.68931C19.5358 4.66443 19.476 4.62568 19.4263 4.57569C19.3766 4.5257 19.3383 4.46563 19.3138 4.39953L17.9378 0.742639C17.8663 0.552299 17.7385 0.388252 17.5714 0.272334C17.4044 0.156415 17.206 0.0941236 17.0027 0.09375H14.8338C14.6259 0.0939148 14.4233 0.158672 14.2538 0.279062C14.0844 0.399452 13.9565 0.569525 13.888 0.76575L12.6844 4.22353C12.6624 4.2871 12.6278 4.34556 12.5826 4.39536C12.5373 4.44517 12.4825 4.48529 12.4213 4.51331L10.3858 5.45019C10.3183 5.48228 10.2445 5.49892 10.1698 5.49892C10.0951 5.49892 10.0213 5.48228 9.95378 5.45019L6.672 3.80397C6.48526 3.70917 6.27349 3.67534 6.06651 3.70723C5.85953 3.73912 5.66777 3.83514 5.51823 3.98175L3.90045 5.59775C3.75217 5.74648 3.65425 5.93795 3.62045 6.14523C3.58665 6.35251 3.61866 6.56517 3.712 6.75331L5.36356 10.0617C5.39432 10.1241 5.41194 10.1921 5.4153 10.2615C5.41867 10.3309 5.40771 10.4003 5.38311 10.4653L4.60089 12.4955C4.57532 12.5614 4.53613 12.621 4.48589 12.6707C4.43564 12.7203 4.37548 12.7588 4.30934 12.7835L0.648892 14.156C0.457982 14.2272 0.293455 14.3551 0.177446 14.5226C0.0614366 14.6901 -0.000488196 14.8891 2.8985e-06 15.0929V17.2546C-0.000117849 17.4645 0.0659701 17.6691 0.188859 17.8392C0.311747 18.0093 0.485173 18.1364 0.684447 18.2022L4.29689 19.4075C4.36669 19.4311 4.43044 19.4698 4.48359 19.5208C4.53675 19.5718 4.57802 19.6339 4.60445 19.7026L5.38311 21.724C5.40771 21.789 5.41867 21.8584 5.4153 21.9278C5.41194 21.9972 5.39432 22.0652 5.36356 22.1275L3.712 25.4217C3.61706 25.6088 3.58314 25.8208 3.61504 26.0281C3.64693 26.2354 3.74302 26.4275 3.88978 26.5773L5.50934 28.1969C5.65859 28.3439 5.85039 28.4403 6.0575 28.4722C6.26461 28.5041 6.4765 28.47 6.66311 28.3746L9.96089 26.7249C10.023 26.6932 10.091 26.6752 10.1606 26.6718C10.2301 26.6684 10.2996 26.6798 10.3644 26.7053L12.4 27.4857C12.4649 27.511 12.5239 27.5495 12.5732 27.5988C12.6224 27.6481 12.6609 27.707 12.6862 27.772L14.0498 31.26C14.1229 31.4476 14.2509 31.6087 14.4171 31.7223C14.5834 31.8358 14.78 31.8965 14.9813 31.8964H17.1644C17.3745 31.8964 17.5792 31.8302 17.7496 31.7074C17.92 31.5846 18.0474 31.4112 18.1138 31.212L19.3173 27.6049C19.3408 27.5348 19.3794 27.4707 19.4304 27.4173C19.4814 27.3638 19.5436 27.3223 19.6124 27.2955L21.6302 26.5204C21.6947 26.4951 21.7638 26.4835 21.833 26.4866C21.9022 26.4897 21.97 26.5072 22.032 26.5382L25.3351 28.1844C25.5229 28.2779 25.7353 28.31 25.9424 28.2762C26.1494 28.2423 26.3406 28.1443 26.4889 27.996L28.0889 26.396C28.2393 26.2453 28.3376 26.0506 28.3696 25.8402C28.4015 25.6298 28.3655 25.4147 28.2667 25.2262L26.6436 22.124C26.6109 22.061 26.5919 21.9919 26.5879 21.9211C26.584 21.8503 26.595 21.7795 26.6204 21.7133L27.3991 19.6866C27.4246 19.6205 27.4637 19.5605 27.5139 19.5106C27.5642 19.4607 27.6244 19.4219 27.6907 19.3969L31.3458 18.028C31.5367 17.9578 31.7016 17.8309 31.8185 17.6645C31.9354 17.498 31.9988 17.2998 32 17.0964ZM16.0231 24.1329C14.4144 24.1332 12.8417 23.6565 11.504 22.763C10.1662 21.8695 9.12349 20.5994 8.50763 19.1132C7.89176 17.6271 7.73044 15.9917 8.04407 14.4139C8.35769 12.8361 9.13218 11.3867 10.2696 10.249C11.407 9.11138 12.8562 8.33657 14.4339 8.0226C16.0117 7.70863 17.6471 7.8696 19.1334 8.48514C20.6197 9.10068 21.8901 10.1431 22.7838 11.4807C23.6776 12.8183 24.1547 14.3908 24.1547 15.9995C24.1542 18.1562 23.2974 20.2244 21.7726 21.7495C20.2478 23.2747 18.1798 24.1319 16.0231 24.1329Z" fill="url(#paint0_linear_855_8539)"/>
<path d="M16.0231 24.1319C20.515 24.1319 24.1564 20.4905 24.1564 15.9986C24.1564 11.5067 20.515 7.86523 16.0231 7.86523C11.5312 7.86523 7.88977 11.5067 7.88977 15.9986C7.88977 20.4905 11.5312 24.1319 16.0231 24.1319Z" fill="url(#paint1_linear_855_8539)"/>
<path d="M22.7076 9.49355C22.5778 9.42422 22.4463 9.35844 22.3112 9.29444C21.2373 8.75152 20.0582 8.44897 18.8556 8.40783C17.6531 8.36669 16.456 8.58795 15.3476 9.05622C14.3187 9.16939 13.3275 9.5081 12.4445 10.0482C12.3779 10.0871 12.3041 10.1119 12.2276 10.1212C12.1511 10.1305 12.0735 10.124 11.9995 10.1022C11.9256 10.0804 11.8569 10.0437 11.7977 9.99434C11.7385 9.94501 11.69 9.88409 11.6552 9.81533C11.4507 9.40822 11.2445 9.00111 11.0294 8.57088C10.965 8.44298 10.9514 8.29548 10.9913 8.15797C11.0312 8.02047 11.1217 7.90314 11.2445 7.82955C12.4878 7.01851 13.9212 6.54584 15.4031 6.45824C16.8849 6.37063 18.364 6.67111 19.6943 7.32999C20.8251 7.85646 21.8472 8.59033 22.7076 9.49355Z" fill="url(#paint2_linear_855_8539)"/>
<path d="M22.2952 20.8974L20.56 17.436C20.5129 17.3408 20.4935 17.2343 20.5039 17.1286C20.5144 17.0229 20.5543 16.9223 20.6192 16.8382C20.684 16.7541 20.7712 16.6899 20.8707 16.6529C20.9703 16.6159 21.0782 16.6076 21.1823 16.6289L22.2205 16.8476C22.4652 15.9143 22.4813 14.9359 22.2674 13.9951C22.0536 13.0543 21.6161 12.1789 20.992 11.4431C20.3316 10.5983 19.4668 9.93572 18.4792 9.51797C17.4916 9.10022 16.4138 8.94108 15.3476 9.05557C16.456 8.5873 17.6531 8.36605 18.8556 8.40719C20.0582 8.44833 21.2373 8.75087 22.3112 9.29379C22.4463 9.35779 22.5778 9.42357 22.7076 9.49291C23.515 10.4016 24.1293 11.4649 24.5132 12.6182C24.897 13.7716 25.0424 14.991 24.9405 16.2022C24.9263 16.5898 24.896 16.9862 24.8498 17.3916L25.0703 17.4378L25.9058 17.6156C26.0095 17.6379 26.1048 17.689 26.181 17.7628C26.2572 17.8366 26.3111 17.9304 26.3366 18.0333C26.3622 18.1363 26.3583 18.2443 26.3256 18.3452C26.2928 18.4461 26.2323 18.5358 26.1511 18.604L23.7689 20.5773C23.5663 20.7445 23.3654 20.9134 23.1592 21.0822C23.0935 21.136 23.0166 21.1743 22.9341 21.1943C22.8516 21.2143 22.7657 21.2154 22.6827 21.1977C22.5997 21.1799 22.5217 21.1437 22.4547 21.0917C22.3876 21.0397 22.3331 20.9733 22.2952 20.8974Z" fill="url(#paint3_linear_855_8539)"/>
<path d="M9.10046 22.5067C9.23024 22.5761 9.3618 22.6419 9.49869 22.7059C10.5725 23.2488 11.7517 23.5513 12.9542 23.5925C14.1568 23.6336 15.3538 23.4123 16.4622 22.9441C17.4912 22.8311 18.4825 22.4924 19.3654 21.9521C19.4319 21.9132 19.5057 21.8884 19.5822 21.8791C19.6588 21.8698 19.7364 21.8763 19.8103 21.8981C19.8842 21.9199 19.9529 21.9566 20.0121 22.0059C20.0714 22.0553 20.1199 22.1162 20.1547 22.185L20.7805 23.4294C20.8448 23.5573 20.8584 23.7048 20.8185 23.8423C20.7786 23.9798 20.6882 24.0971 20.5654 24.1707C19.322 24.9818 17.8886 25.4544 16.4068 25.5421C14.9249 25.6297 13.4458 25.3292 12.1156 24.6703C10.9843 24.1436 9.96168 23.4098 9.10046 22.5067Z" fill="url(#paint4_linear_855_8539)"/>
<path d="M9.51469 11.1019L11.248 14.5633C11.2951 14.6584 11.3146 14.765 11.3041 14.8706C11.2937 14.9763 11.2537 15.077 11.1889 15.1611C11.1241 15.2452 11.0369 15.3094 10.9373 15.3464C10.8378 15.3834 10.7298 15.3917 10.6258 15.3704L9.58757 15.1517C9.34288 16.0849 9.32677 17.0634 9.54061 18.0042C9.75445 18.945 10.1919 19.8204 10.816 20.5561C11.4766 21.4013 12.3417 22.064 13.3297 22.4818C14.3176 22.8995 15.3958 23.0585 16.4622 22.9437C15.3538 23.412 14.1568 23.6332 12.9542 23.5921C11.7517 23.5509 10.5725 23.2484 9.49868 22.7055C9.3618 22.6415 9.23024 22.5757 9.10046 22.5064C8.29292 21.5979 7.67867 20.5345 7.29511 19.3811C6.91155 18.2277 6.76669 17.0082 6.86935 15.797C6.88239 15.4095 6.91261 15.013 6.96002 14.6077L6.73957 14.5615L5.90402 14.3837C5.7999 14.3619 5.70404 14.3113 5.62744 14.2375C5.55084 14.1637 5.49662 14.0697 5.47099 13.9665C5.44537 13.8633 5.44939 13.7549 5.48259 13.6539C5.51579 13.5528 5.57683 13.4632 5.65869 13.3953C6.4658 12.7268 7.24802 12.0797 8.03913 11.4219L8.64891 10.917C8.71472 10.8633 8.79179 10.825 8.87441 10.805C8.95702 10.785 9.04307 10.7838 9.1262 10.8016C9.20932 10.8193 9.28739 10.8555 9.35464 10.9075C9.42188 10.9595 9.47658 11.0259 9.51469 11.1019Z" fill="url(#paint5_linear_855_8539)"/>
</g>
<defs>
<linearGradient id="paint0_linear_855_8539" x1="16" y1="-0.0929167" x2="16" y2="31.9053" gradientUnits="userSpaceOnUse">
<stop offset="0.219" stop-color="#0078D4"/>
<stop offset="1" stop-color="#005BA1"/>
</linearGradient>
<linearGradient id="paint1_linear_855_8539" x1="16.0231" y1="7.86523" x2="16.0231" y2="24.1319" gradientUnits="userSpaceOnUse">
<stop offset="0.191" stop-color="#005BA1"/>
<stop offset="1" stop-color="#003067"/>
</linearGradient>
<linearGradient id="paint2_linear_855_8539" x1="10.7254" y1="8.28466" x2="21.7618" y2="8.28466" gradientUnits="userSpaceOnUse">
<stop offset="0.314" stop-color="#9CEBFF"/>
<stop offset="1" stop-color="#50E6FF"/>
</linearGradient>
<linearGradient id="paint3_linear_855_8539" x1="15.3476" y1="14.8049" x2="26.3538" y2="14.8049" gradientUnits="userSpaceOnUse">
<stop offset="0.357" stop-color="#50E6FF"/>
<stop offset="1" stop-color="#32BEDD"/>
</linearGradient>
<linearGradient id="paint4_linear_855_8539" x1="9.10046" y1="23.7156" x2="20.7805" y2="23.7156" gradientUnits="userSpaceOnUse">
<stop offset="0.314" stop-color="#9CEBFF"/>
<stop offset="1" stop-color="#50E6FF"/>
</linearGradient>
<linearGradient id="paint5_linear_855_8539" x1="10.9582" y1="10.6415" x2="10.9582" y2="23.2175" gradientUnits="userSpaceOnUse">
<stop offset="0.357" stop-color="#50E6FF"/>
<stop offset="1" stop-color="#32BEDD"/>
</linearGradient>
<clipPath id="clip0_855_8539">
<rect width="32" height="32" fill="white"/>
</clipPath>
</defs>
</svg>
