<svg width="32" height="32" viewBox="0 0 32 32" fill="none" xmlns="http://www.w3.org/2000/svg">
<g clip-path="url(#clip0_855_8508)">
<path d="M25.7884 13.2686C25.6565 10.8837 24.5992 8.6445 22.8415 7.02726C21.0838 5.41001 18.7645 4.54242 16.3769 4.60904C14.4656 4.59882 12.5963 5.16922 11.0163 6.24476C9.43634 7.32029 8.22022 8.85026 7.52889 10.6322C5.5106 10.9312 3.65799 11.9194 2.2856 13.4292C0.913219 14.939 0.105646 16.8772 0 18.9148C0.026762 20.0551 0.277946 21.179 0.7392 22.2222C1.20045 23.2654 1.86274 24.2076 2.68822 24.9947C3.51369 25.7819 4.48618 26.3987 5.55011 26.8099C6.61405 27.2211 7.74858 27.4187 8.88889 27.3913H9.04178H24.8533C26.7503 27.3894 28.5689 26.6341 29.9091 25.2916C31.2493 23.949 32.0014 22.1291 32 20.2322C31.9491 18.5262 31.2983 16.8929 30.1623 15.6193C29.0262 14.3457 27.4775 13.5133 25.7884 13.2686Z" fill="url(#paint0_linear_855_8508)"/>
<path d="M24.5085 18.1284L16.5316 15.1649L16.3253 15.6769L16.4551 15.2075L9.37245 13.6484L9.0329 14.836L15.0098 16.132L7.34045 19.3018L7.93068 20.3542L15.8489 17.0653L17.2658 23.3053L18.4907 23.1542L17.0471 16.7133L24.0391 19.2698L24.5085 18.1284Z" fill="#83B9F9"/>
<path d="M8.144 15.2879C8.33387 15.5327 8.59207 15.7157 8.88593 15.8137C9.17979 15.9117 9.49613 15.9204 9.79492 15.8386C10.0937 15.7569 10.3616 15.5883 10.5646 15.3543C10.7676 15.1203 10.8966 14.8314 10.9354 14.5241C10.9742 14.2167 10.921 13.9048 10.7825 13.6277C10.644 13.3506 10.4264 13.1208 10.1573 12.9673C9.88821 12.8139 9.57964 12.7437 9.27063 12.7657C8.96163 12.7876 8.66607 12.9007 8.42133 13.0906L8.38578 13.119C8.06892 13.3765 7.86597 13.7482 7.82074 14.154C7.77551 14.5597 7.89161 14.967 8.144 15.2879ZM6.36622 20.8292C6.55871 21.0741 6.81944 21.2563 7.11547 21.353C7.41151 21.4497 7.72955 21.4564 8.02942 21.3724C8.32929 21.2884 8.59753 21.1173 8.80022 20.8809C9.00292 20.6445 9.13099 20.3533 9.16824 20.0441C9.20549 19.7349 9.15025 19.4216 9.00951 19.1438C8.86877 18.866 8.64883 18.6362 8.3775 18.4833C8.10617 18.3305 7.79562 18.2615 7.4851 18.2851C7.17457 18.3087 6.87801 18.4238 6.63289 18.6159C6.46991 18.7436 6.33371 18.9022 6.23209 19.0826C6.13046 19.263 6.0654 19.4617 6.04064 19.6673C6.01587 19.8729 6.03188 20.0813 6.08774 20.2807C6.14361 20.4801 6.23824 20.6665 6.36622 20.8292ZM22.832 19.4604C23.0202 19.7051 23.2768 19.8884 23.5693 19.9872C23.8618 20.0859 24.177 20.0956 24.475 20.015C24.773 19.9344 25.0404 19.7672 25.2432 19.5345C25.4461 19.3018 25.5753 19.0141 25.6145 18.7079C25.6537 18.4016 25.601 18.0907 25.4633 17.8144C25.3256 17.5381 25.1089 17.3089 24.8408 17.1559C24.5727 17.0029 24.2652 16.9329 23.9573 16.9548C23.6493 16.9767 23.3548 17.0896 23.1111 17.279C22.7871 17.5273 22.5748 17.894 22.5208 18.2986C22.4668 18.7032 22.5756 19.1127 22.8231 19.4372L22.832 19.4604Z" fill="#9CEBFF"/>
<path d="M16.6418 24.2715C16.8306 24.5153 17.0875 24.6977 17.38 24.7955C17.6725 24.8934 17.9874 24.9022 18.2849 24.821C18.5825 24.7399 18.8492 24.5723 19.0515 24.3394C19.2538 24.1066 19.3824 23.8191 19.4212 23.5131C19.46 23.2071 19.4072 22.8965 19.2695 22.6206C19.1318 22.3447 18.9153 22.1158 18.6474 21.9629C18.3796 21.81 18.0724 21.74 17.7648 21.7617C17.4571 21.7834 17.1628 21.8958 16.9191 22.0848C16.7573 22.2072 16.6211 22.3602 16.5186 22.5353C16.416 22.7104 16.349 22.904 16.3214 23.105C16.2938 23.306 16.3062 23.5104 16.3578 23.7067C16.4094 23.9029 16.4993 24.087 16.6222 24.2484L16.6418 24.2715Z" fill="#9CEBFF"/>
<path d="M20.864 16.0668C20.9357 16.0257 20.9952 15.9664 21.0366 15.895C21.078 15.8235 21.0998 15.7423 21.0998 15.6597C21.0998 15.5771 21.078 15.496 21.0366 15.4245C20.9952 15.353 20.9357 15.2937 20.864 15.2526L17.4222 13.2615L13.9698 11.2722C13.8982 11.2291 13.8165 11.206 13.733 11.2051C13.6495 11.2042 13.5673 11.2256 13.4948 11.2671C13.4223 11.3086 13.3622 11.3687 13.3207 11.4411C13.2792 11.5136 13.2578 11.5958 13.2587 11.6793V19.6402C13.2578 19.7237 13.2792 19.8059 13.3207 19.8783C13.3622 19.9508 13.4223 20.0108 13.4948 20.0523C13.5673 20.0938 13.6495 20.1152 13.733 20.1143C13.8165 20.1134 13.8982 20.0903 13.9698 20.0473L17.4222 18.0579L20.864 16.0668Z" fill="#C3F1FF"/>
</g>
<defs>
<linearGradient id="paint0_linear_855_8508" x1="16" y1="0.353041" x2="16" y2="27.9228" gradientUnits="userSpaceOnUse">
<stop offset="0.117" stop-color="#5EA0EF"/>
<stop offset="0.271" stop-color="#4595E8"/>
<stop offset="0.531" stop-color="#1F85DD"/>
<stop offset="0.741" stop-color="#087CD6"/>
<stop offset="0.873" stop-color="#0078D4"/>
</linearGradient>
<clipPath id="clip0_855_8508">
<rect width="32" height="32" fill="white"/>
</clipPath>
</defs>
</svg>
