<svg width="32" height="32" viewBox="0 0 32 32" fill="none" xmlns="http://www.w3.org/2000/svg">
<path d="M30.1031 2.03906H1.89692C1.34021 2.03906 0.888916 2.49036 0.888916 3.04706V21.1786C0.888916 21.7353 1.34021 22.1866 1.89692 22.1866H30.1031C30.6598 22.1866 31.1111 21.7353 31.1111 21.1786V3.04706C31.1111 2.49036 30.6598 2.03906 30.1031 2.03906Z" fill="url(#paint0_linear_855_8554)"/>
<path d="M22.0605 28.2835C19.072 27.8124 18.9547 25.6631 18.9547 22.1875H13.0276C13.0276 25.6631 12.928 27.8124 9.9396 28.2835C9.52696 28.3288 9.14574 28.5254 8.86961 28.8354C8.59347 29.1453 8.44201 29.5466 8.44449 29.9617H23.5556C23.5581 29.5466 23.4066 29.1453 23.1305 28.8354C22.8543 28.5254 22.4731 28.3288 22.0605 28.2835Z" fill="url(#paint1_linear_855_8554)"/>
<path fill-rule="evenodd" clip-rule="evenodd" d="M4.3147 17.8272H16.3823L28.192 6.01562H4.3147V17.8272Z" fill="url(#paint2_linear_855_8554)"/>
<path fill-rule="evenodd" clip-rule="evenodd" d="M18.4889 8.37829H16.1262L16.1351 13.9232L14.0818 8.37473H12.0445L10.2933 13.0094C10.1067 11.829 8.8889 11.4236 7.9289 11.1178C7.29423 10.9152 6.62223 10.6147 6.62934 10.2841C6.62934 10.0138 6.9849 9.7614 7.69601 9.79874C8.29813 9.81757 8.88748 9.97708 9.4169 10.2645L10.2329 8.84229C9.40007 8.44188 8.4902 8.22715 7.56623 8.21296C7.1366 8.19166 6.70704 8.25615 6.30261 8.40266C5.89818 8.54917 5.52698 8.77477 5.21067 9.06629C4.85395 9.43382 4.65272 9.92478 4.6489 10.437C4.62891 10.7571 4.69286 11.0768 4.83442 11.3646C4.97598 11.6524 5.19025 11.8983 5.45601 12.0778C5.94677 12.4059 6.48696 12.6532 7.05601 12.8103C7.70845 13.0112 8.24178 13.1872 8.23467 13.5623C8.22981 13.6992 8.17476 13.8296 8.08001 13.9285C7.97572 14.0162 7.85512 14.0824 7.72514 14.1233C7.59517 14.1642 7.45838 14.1789 7.32267 14.1667C6.62804 14.1956 5.94252 14.0005 5.36712 13.6103L4.64178 15.0521C5.4225 15.5002 6.30877 15.7316 7.2089 15.7223H7.42223C8.15037 15.7457 8.86468 15.5199 9.44712 15.0823L9.53423 15.0094L9.45067 15.4663H11.4418L11.7973 14.5525C12.6055 14.8162 13.4759 14.8199 14.2862 14.5632L14.5351 15.4663H18.1049V13.3827H18.864C20.7005 13.3827 21.7867 12.4476 21.7867 10.8814C21.7867 9.13562 20.7307 8.37473 18.4853 8.37473L18.4889 8.37829ZM13.0525 13.1178C12.7959 13.1196 12.5412 13.075 12.3005 12.9863L13.0453 10.6361H13.0596L13.792 12.9934C13.5543 13.0764 13.3042 13.1185 13.0525 13.1178ZM18.6222 11.7685H18.1049V9.8734H18.6222C19.3138 9.8734 19.8667 10.1027 19.8667 10.8085C19.8667 11.5143 19.3156 11.7685 18.6222 11.7685Z" fill="white"/>
<defs>
<linearGradient id="paint0_linear_855_8554" x1="16" y1="22.1866" x2="16" y2="2.03906" gradientUnits="userSpaceOnUse">
<stop stop-color="#003067"/>
<stop offset="0.037" stop-color="#00346C"/>
<stop offset="0.239" stop-color="#004583"/>
<stop offset="0.456" stop-color="#005194"/>
<stop offset="0.695" stop-color="#00599E"/>
<stop offset="1" stop-color="#005BA1"/>
</linearGradient>
<linearGradient id="paint1_linear_855_8554" x1="16" y1="29.9617" x2="16" y2="22.1875" gradientUnits="userSpaceOnUse">
<stop offset="0.15" stop-color="#CCCCCC"/>
<stop offset="1" stop-color="#707070"/>
</linearGradient>
<linearGradient id="paint2_linear_855_8554" x1="16.2507" y1="6.01207" x2="16.2507" y2="17.8254" gradientUnits="userSpaceOnUse">
<stop stop-color="#00AEEF"/>
<stop offset="0.212" stop-color="#0097DC"/>
<stop offset="0.519" stop-color="#007CC5"/>
<stop offset="0.792" stop-color="#006CB8"/>
<stop offset="1" stop-color="#0066B3"/>
</linearGradient>
</defs>
</svg>
