<svg width="32" height="32" viewBox="0 0 32 32" fill="none" xmlns="http://www.w3.org/2000/svg">
<path d="M0.0355835 9.77734H27.6782V25.1889C27.6783 25.4338 27.5811 25.6686 27.4081 25.842C27.2351 26.0153 27.0005 26.1129 26.7556 26.1133H0.960028C0.71485 26.1133 0.479714 26.0159 0.306347 25.8426C0.13298 25.6692 0.0355835 25.4341 0.0355835 25.1889V9.77734Z" fill="url(#paint0_linear_855_8556)"/>
<path d="M0.963584 3.89258H26.7502C26.8716 3.89258 26.9917 3.9165 27.1038 3.96298C27.2158 4.00946 27.3176 4.07758 27.4033 4.16345C27.489 4.24932 27.5569 4.35124 27.6032 4.46339C27.6495 4.57554 27.6731 4.69571 27.6729 4.81702V9.77702H0.0355835V4.81702C0.0355835 4.57184 0.13298 4.33671 0.306347 4.16334C0.479714 3.98997 0.71485 3.89258 0.960028 3.89258H0.963584Z" fill="#773ADC"/>
<path d="M3.28357 19.0618V12.2511C3.28357 12.0733 3.39024 11.9258 3.52179 11.9258H13.0116C13.1431 11.9258 13.2498 12.0716 13.2498 12.2511V19.0618C13.2498 19.2396 13.1431 19.3853 13.0116 19.3853H3.52179C3.39024 19.3853 3.28357 19.2413 3.28357 19.0618Z" fill="#F2F2F2"/>
<path d="M12.704 23.9747H3.82935C3.52712 23.9747 3.28357 23.8289 3.28357 23.6511V21.388C3.28357 21.2102 3.52712 21.0645 3.82935 21.0645H12.704C13.0062 21.0645 13.2498 21.2085 13.2498 21.388V23.644C13.2498 23.8218 13.0062 23.9747 12.704 23.9747Z" fill="#B796F9"/>
<path d="M24.8889 14.624H15.6925C15.3796 14.624 15.1271 14.48 15.1271 14.3004V12.0657C15.1271 11.888 15.3796 11.7422 15.6925 11.7422H24.8889C25.2018 11.7422 25.4542 11.8862 25.4542 12.0657V14.3004C25.4525 14.48 25.2 14.624 24.8889 14.624Z" fill="#B796F9"/>
<path d="M31.3654 26.311L25.5396 23.5999C25.4056 23.5442 25.293 23.4469 25.2184 23.3224C25.1438 23.1979 25.1112 23.0527 25.1254 22.9083V21.9732C25.1122 21.8287 25.1452 21.6837 25.2197 21.5591C25.2941 21.4346 25.4061 21.3368 25.5396 21.2799L31.3654 18.5705C31.6765 18.4905 31.9645 18.823 31.9645 19.2621V25.6176C31.9645 26.0585 31.6729 26.3892 31.3654 26.311Z" fill="#32BEDD"/>
<path d="M27.5716 16.6895H15.8738C15.4958 16.6895 15.1893 16.9959 15.1893 17.3739V27.4219C15.1893 27.7999 15.4958 28.1063 15.8738 28.1063H27.5716C27.9496 28.1063 28.256 27.7999 28.256 27.4219V17.3739C28.256 16.9959 27.9496 16.6895 27.5716 16.6895Z" fill="url(#paint1_linear_855_8556)"/>
<path d="M19.1823 22.4396V19.988C19.1822 19.8688 19.2135 19.7516 19.2731 19.6484C19.3327 19.5451 19.4184 19.4593 19.5217 19.3997C19.6249 19.34 19.7421 19.3086 19.8613 19.3086C19.9805 19.3086 20.0977 19.34 20.2009 19.3996L22.3343 20.6262L24.4569 21.8511C24.5599 21.9111 24.6453 21.9969 24.7047 22.1002C24.764 22.2034 24.7953 22.3205 24.7953 22.4396C24.7953 22.5587 24.764 22.6757 24.7047 22.779C24.6453 22.8822 24.5599 22.9681 24.4569 23.028L22.3343 24.2529L20.2009 25.4796C20.0974 25.5393 19.9799 25.5707 19.8604 25.5706C19.7409 25.5704 19.6235 25.5387 19.5201 25.4786C19.4168 25.4186 19.3311 25.3323 19.2718 25.2285C19.2125 25.1247 19.1816 25.0071 19.1823 24.8876V22.4396Z" fill="#C3F1FF"/>
<defs>
<linearGradient id="paint0_linear_855_8556" x1="13.8578" y1="26.1187" x2="13.8578" y2="9.78445" gradientUnits="userSpaceOnUse">
<stop offset="0.001" stop-color="#773ADC"/>
<stop offset="0.229" stop-color="#7B3FDE"/>
<stop offset="0.507" stop-color="#864EE4"/>
<stop offset="0.811" stop-color="#9867ED"/>
<stop offset="1" stop-color="#A67AF4"/>
</linearGradient>
<linearGradient id="paint1_linear_855_8556" x1="21.7227" y1="16.725" x2="21.7227" y2="28.1828" gradientUnits="userSpaceOnUse">
<stop stop-color="#50E6FF"/>
<stop offset="1" stop-color="#32BEDD"/>
</linearGradient>
</defs>
</svg>
