<svg width="32" height="32" viewBox="0 0 32 32" fill="none" xmlns="http://www.w3.org/2000/svg">
<path d="M30.9333 1.21875H1.06667C0.477563 1.21875 0 1.69631 0 2.28542V21.4854C0 22.0745 0.477563 22.5521 1.06667 22.5521H30.9333C31.5224 22.5521 32 22.0745 32 21.4854V2.28542C32 1.69631 31.5224 1.21875 30.9333 1.21875Z" fill="url(#paint0_linear_855_8537)"/>
<path d="M22.4178 29.0061C19.2534 28.5083 19.1289 26.2327 19.1467 22.5527H12.8C12.8 26.2327 12.8 28.5083 9.58225 29.0061C9.14863 29.0585 8.74948 29.2687 8.46094 29.5966C8.17239 29.9244 8.01465 30.3471 8.01781 30.7838H24.0178C23.9977 30.3482 23.8273 29.9331 23.5356 29.6089C23.2439 29.2848 22.8489 29.0718 22.4178 29.0061Z" fill="url(#paint1_linear_855_8537)"/>
<path d="M17.7547 10.1348H13.1805C13.0725 10.1348 12.9849 10.2223 12.9849 10.3303V14.9045C12.9849 15.0125 13.0725 15.1001 13.1805 15.1001H17.7547C17.8627 15.1001 17.9503 15.0125 17.9503 14.9045V10.3303C17.9503 10.2223 17.8627 10.1348 17.7547 10.1348Z" fill="#9CEBFF"/>
<path d="M21.0916 6.63281H16.4C16.3489 6.63281 16.2999 6.65298 16.2636 6.68894C16.2273 6.7249 16.2067 6.77373 16.2062 6.82481V7.67815C16.2062 7.72954 16.2267 7.77883 16.263 7.81517C16.2993 7.85151 16.3486 7.87192 16.4 7.87192H19.8507C19.9017 7.87169 19.9523 7.88154 19.9995 7.90091C20.0468 7.92028 20.0897 7.94879 20.1259 7.98481C20.1621 8.02082 20.1908 8.06362 20.2103 8.11076C20.2299 8.15789 20.24 8.20843 20.24 8.25948V11.7688C20.24 11.8197 20.2602 11.8686 20.2963 11.9046C20.3323 11.9406 20.3811 11.9608 20.432 11.9608H21.2871C21.3125 11.961 21.3376 11.9563 21.3611 11.9467C21.3846 11.9372 21.406 11.9231 21.424 11.9052C21.4421 11.8874 21.4564 11.8661 21.4661 11.8427C21.4759 11.8193 21.4809 11.7942 21.4809 11.7688V7.02215C21.4809 6.91889 21.4399 6.81986 21.3669 6.74685C21.2939 6.67383 21.1948 6.63281 21.0916 6.63281Z" fill="#773ADC"/>
<path d="M19.4454 12.7792V15.8672C19.4454 15.9615 19.4079 16.0519 19.3412 16.1186C19.2745 16.1853 19.1841 16.2227 19.0898 16.2227H12.0391C11.9448 16.2227 11.8544 16.1853 11.7877 16.1186C11.721 16.0519 11.6836 15.9615 11.6836 15.8672V9.21118C11.6836 9.11688 11.721 9.02645 11.7877 8.95977C11.8544 8.89309 11.9448 8.85563 12.0391 8.85563H15.5751C15.6262 8.85516 15.675 8.83454 15.711 8.79825C15.747 8.76196 15.7671 8.71293 15.7671 8.66185V7.92229C15.7671 7.87121 15.747 7.82219 15.711 7.7859C15.675 7.74961 15.6262 7.72898 15.5751 7.72852H10.9102C10.8636 7.72852 10.8173 7.73771 10.7742 7.75558C10.731 7.77345 10.6918 7.79964 10.6588 7.83266C10.6258 7.86567 10.5996 7.90487 10.5818 7.94801C10.5639 7.99114 10.5547 8.03738 10.5547 8.08407V16.9979C10.5547 17.0921 10.5921 17.1826 10.6588 17.2493C10.7255 17.3159 10.8159 17.3534 10.9102 17.3534H20.2205C20.3148 17.3534 20.4052 17.3159 20.4719 17.2493C20.5386 17.1826 20.576 17.0921 20.576 16.9979V12.7792C20.576 12.7278 20.5556 12.6785 20.5193 12.6422C20.4829 12.6058 20.4336 12.5854 20.3822 12.5854H19.6391C19.6138 12.5852 19.5886 12.59 19.5651 12.5995C19.5416 12.609 19.5202 12.6232 19.5022 12.641C19.4842 12.6589 19.4699 12.6801 19.4601 12.7035C19.4504 12.7269 19.4454 12.7538 19.4454 12.7792Z" fill="white"/>
<defs>
<linearGradient id="paint0_linear_855_8537" x1="16" y1="22.5521" x2="16" y2="1.21875" gradientUnits="userSpaceOnUse">
<stop stop-color="#0078D4"/>
<stop offset="0.82" stop-color="#5EA0EF"/>
</linearGradient>
<linearGradient id="paint1_linear_855_8537" x1="16.0178" y1="30.7838" x2="16.0178" y2="22.5527" gradientUnits="userSpaceOnUse">
<stop stop-color="#1490DF"/>
<stop offset="0.98" stop-color="#1F56A3"/>
</linearGradient>
</defs>
</svg>
