<svg width="32" height="32" viewBox="0 0 32 32" fill="none" xmlns="http://www.w3.org/2000/svg">
<g clip-path="url(#clip0_855_8580)">
<path d="M31.0204 1.04V17.872C31.0191 17.9686 30.9897 18.0628 30.9358 18.1429C30.8819 18.2231 30.8059 18.2859 30.7169 18.3236C30.628 18.3613 30.5299 18.3723 30.4348 18.3552C30.3397 18.3382 30.2516 18.2938 30.1813 18.2276C29.222 17.3156 28.0608 16.6432 26.7923 16.2649C25.5239 15.8867 24.184 15.8134 22.8819 16.0509C21.5798 16.2885 20.3521 16.8302 19.299 17.632C18.2458 18.4338 17.3969 19.4729 16.8213 20.6649H1.09866C0.822202 20.6644 0.557227 20.5543 0.361906 20.3586C0.166586 20.163 0.0568844 19.8978 0.0568848 19.6213V1.04178C0.0568848 0.765481 0.166643 0.500501 0.362014 0.30513C0.557386 0.109758 0.822366 0 1.09866 0L29.9804 0C30.2563 0 30.5208 0.109571 30.7158 0.304609C30.9109 0.499647 31.0204 0.764175 31.0204 1.04Z" fill="url(#paint0_linear_855_8580)"/>
<path d="M16.2933 28.5441H7.96088C7.97034 28.1197 8.12865 27.7122 8.40812 27.3928C8.68759 27.0733 9.07045 26.8623 9.48976 26.7965C12.5547 26.4303 12.5547 24.2258 12.5547 20.6738H16.8213C16.2816 21.7894 15.9952 23.0105 15.9826 24.2497C15.97 25.4889 16.2315 26.7155 16.7484 27.8418C16.7826 27.9177 16.7972 28.001 16.7909 28.084C16.7846 28.167 16.7576 28.2471 16.7123 28.317C16.667 28.3869 16.6049 28.4443 16.5317 28.4839C16.4585 28.5236 16.3766 28.5443 16.2933 28.5441Z" fill="url(#paint1_linear_855_8580)"/>
<path d="M17.0951 8.55664H12.6773C12.5733 8.55664 12.4889 8.64101 12.4889 8.74508V13.1629C12.4889 13.2669 12.5733 13.3513 12.6773 13.3513H17.0951C17.1992 13.3513 17.2836 13.2669 17.2836 13.1629V8.74508C17.2836 8.64101 17.1992 8.55664 17.0951 8.55664Z" fill="#9CEBFF"/>
<path d="M20.3146 5.176H15.7849C15.7608 5.1748 15.7367 5.1785 15.7141 5.1869C15.6915 5.19529 15.6708 5.20819 15.6534 5.22482C15.6359 5.24145 15.622 5.26146 15.6125 5.28363C15.6031 5.3058 15.5982 5.32967 15.5982 5.35378V6.17689C15.5982 6.20101 15.6031 6.22487 15.6125 6.24704C15.622 6.26921 15.6359 6.28922 15.6534 6.30585C15.6708 6.32248 15.6915 6.33538 15.7141 6.34378C15.7367 6.35217 15.7608 6.35588 15.7849 6.35467H19.1164C19.2161 6.35467 19.3117 6.39413 19.3823 6.46443C19.4529 6.53473 19.4928 6.63013 19.4933 6.72978V10.1324C19.4933 10.1796 19.512 10.2248 19.5454 10.2582C19.5787 10.2915 19.6239 10.3102 19.6711 10.3102H20.4978C20.5449 10.3102 20.5901 10.2915 20.6235 10.2582C20.6568 10.2248 20.6755 10.1796 20.6755 10.1324V5.55111C20.6758 5.50179 20.6662 5.4529 20.6475 5.40729C20.6287 5.36167 20.6011 5.32023 20.5662 5.28535C20.5313 5.25047 20.4899 5.22285 20.4443 5.20408C20.3986 5.18531 20.3498 5.17577 20.3004 5.176H20.3146Z" fill="#773ADC"/>
<path d="M18.7253 11.1092V14.0923C18.7253 14.1373 18.7164 14.1818 18.6992 14.2233C18.6819 14.2649 18.6566 14.3026 18.6247 14.3343C18.5928 14.366 18.555 14.3911 18.5134 14.4082C18.4717 14.4252 18.4272 14.4339 18.3822 14.4336H11.5751C11.4844 14.4336 11.3974 14.3977 11.3331 14.3338C11.2688 14.2698 11.2324 14.183 11.232 14.0923V7.66564C11.232 7.57464 11.2681 7.48737 11.3325 7.42303C11.3968 7.35868 11.4841 7.32253 11.5751 7.32253H14.9884C15.0356 7.32253 15.0808 7.3038 15.1141 7.27046C15.1475 7.23712 15.1662 7.1919 15.1662 7.14475V6.43364C15.1662 6.38649 15.1475 6.34127 15.1141 6.30793C15.0808 6.27459 15.0356 6.25586 14.9884 6.25586H10.4889C10.444 6.25563 10.3996 6.26423 10.3581 6.28116C10.3166 6.2981 10.2788 6.32305 10.247 6.35458C10.2151 6.38611 10.1898 6.42361 10.1724 6.46493C10.155 6.50625 10.146 6.55059 10.1458 6.59542V15.1839C10.1458 15.2288 10.1546 15.2734 10.1719 15.3149C10.1892 15.3564 10.2145 15.3941 10.2464 15.4259C10.2782 15.4576 10.3161 15.4827 10.3577 15.4997C10.3993 15.5168 10.4439 15.5254 10.4889 15.5252H19.4773C19.568 15.5252 19.655 15.4893 19.7193 15.4253C19.7836 15.3614 19.8199 15.2746 19.8204 15.1839V11.1092C19.8204 11.0851 19.8156 11.0612 19.8061 11.039C19.7966 11.0169 19.7827 10.9969 19.7652 10.9802C19.7478 10.9636 19.7271 10.9507 19.7045 10.9423C19.6819 10.9339 19.6578 10.9302 19.6338 10.9314H18.9226C18.8984 10.93 18.8741 10.9335 18.8513 10.9418C18.8285 10.95 18.8076 10.9629 18.79 10.9796C18.7723 10.9962 18.7583 11.0163 18.7487 11.0386C18.7391 11.0609 18.7342 11.0849 18.7342 11.1092H18.7253Z" fill="white"/>
<path d="M31.9431 24.3369C31.9431 20.1047 28.5122 16.6738 24.28 16.6738C20.0478 16.6738 16.6169 20.1047 16.6169 24.3369C16.6169 28.5692 20.0478 32.0001 24.28 32.0001C28.5122 32.0001 31.9431 28.5692 31.9431 24.3369Z" fill="url(#paint2_linear_855_8580)"/>
<path d="M28.2062 28.8167H20.3538L20.3715 28.7705L21.9715 25.1189C22.7289 23.3909 23.4862 21.6617 24.2435 19.9313C24.2502 19.9077 24.2652 19.8872 24.2858 19.8738C24.3064 19.8604 24.3312 19.855 24.3555 19.8585C24.5013 19.8585 24.5013 19.8585 24.5546 19.99C25.4281 22.102 26.3016 24.2128 27.1751 26.3225L28.1884 28.774L28.2062 28.8167ZM26.6666 28.2673L24.0533 21.8425L21.2213 28.2673H26.6666Z" fill="white"/>
</g>
<defs>
<linearGradient id="paint0_linear_855_8580" x1="15.5396" y1="-0.0302222" x2="15.5396" y2="20.6738" gradientUnits="userSpaceOnUse">
<stop offset="0.18" stop-color="#5EA0EF"/>
<stop offset="1" stop-color="#0078D4"/>
</linearGradient>
<linearGradient id="paint1_linear_855_8580" x1="12.3911" y1="20.6738" x2="12.3911" y2="28.6667" gradientUnits="userSpaceOnUse">
<stop offset="0.202" stop-color="#1F56A3"/>
<stop offset="1" stop-color="#1490DF"/>
</linearGradient>
<linearGradient id="paint2_linear_855_8580" x1="24.2791" y1="16.4427" x2="24.2791" y2="31.9467" gradientUnits="userSpaceOnUse">
<stop offset="0.131" stop-color="#B796F9"/>
<stop offset="1" stop-color="#773ADC"/>
</linearGradient>
<clipPath id="clip0_855_8580">
<rect width="32" height="32" fill="white"/>
</clipPath>
</defs>
</svg>
