<svg width="32" height="32" viewBox="0 0 32 32" fill="none" xmlns="http://www.w3.org/2000/svg">
<g clip-path="url(#clip0_855_8588)">
<path d="M32 24.3369C32 20.1047 28.5691 16.6738 24.3369 16.6738C20.1047 16.6738 16.6738 20.1047 16.6738 24.3369C16.6738 28.5692 20.1047 32.0001 24.3369 32.0001C28.5691 32.0001 32 28.5692 32 24.3369Z" fill="url(#paint0_linear_855_8588)"/>
<path d="M28.2666 28.8167H20.4106L20.4284 28.7705L22.0284 25.1189C22.7869 23.3909 23.5443 21.6617 24.3004 19.9313C24.3071 19.9077 24.3221 19.8872 24.3427 19.8738C24.3633 19.8604 24.3881 19.855 24.4124 19.8585C24.5582 19.8585 24.5582 19.8585 24.6115 19.9918C25.4862 22.1026 26.3597 24.2128 27.232 26.3225L28.2453 28.774L28.2666 28.8167ZM26.72 28.2656L24.1066 21.8407L21.2782 28.2673L26.72 28.2656Z" fill="white"/>
<path d="M30.1369 14.0654C30.1387 15.0722 30.0193 16.0756 29.7813 17.0538C29.7621 17.1313 29.7245 17.203 29.6718 17.263C29.6192 17.3229 29.5529 17.3694 29.4785 17.3985C29.4042 17.4275 29.324 17.4384 29.2446 17.4301C29.1652 17.4218 29.0889 17.3946 29.0222 17.3507C27.7565 16.5024 26.2842 16.0138 24.7624 15.9369C23.2406 15.86 21.7266 16.1977 20.3818 16.9141C19.037 17.6305 17.9119 18.6986 17.1268 20.0044C16.3416 21.3103 15.9257 22.8048 15.9236 24.3285C15.9241 25.0434 16.0149 25.7554 16.1938 26.4476C13.8395 26.16 11.6161 25.2066 9.78462 23.6995C7.95316 22.1924 6.58968 20.1941 5.85424 17.9392C5.44677 16.6889 5.23976 15.3821 5.2409 14.0672C5.23942 13.3582 5.2989 12.6504 5.41868 11.9516C5.51499 11.3778 5.65223 10.8116 5.82935 10.2574C6.63434 7.74455 8.21636 5.55217 10.3474 3.99622C12.4785 2.44026 15.0485 1.60108 17.6871 1.59961C17.8845 1.59961 18.08 1.59961 18.272 1.61205C21.4709 1.76599 24.4878 3.14536 26.6969 5.46405C28.906 7.78274 30.1379 10.8628 30.1369 14.0654Z" fill="url(#paint1_linear_855_8588)"/>
<path d="M23.5573 14.0648C23.5602 14.7234 23.4502 15.3776 23.232 15.9991C21.9948 16.1643 20.8097 16.6019 19.762 17.2804C18.7144 17.9589 17.8302 18.8613 17.1733 19.9226C16.352 19.851 15.5549 19.6071 14.8341 19.2067C14.1134 18.8063 13.4851 18.2586 12.9902 17.5991C12.5775 17.0512 12.2656 16.4341 12.0693 15.7768C11.7328 14.6646 11.7328 13.4776 12.0693 12.3653C12.4324 11.1576 13.1749 10.0991 14.1868 9.34657C15.1986 8.59405 16.4261 8.18761 17.6871 8.1875C17.8825 8.18768 18.0777 8.19776 18.272 8.21772C19.7217 8.36209 21.0659 9.04071 22.0428 10.1215C23.0198 11.2023 23.5597 12.6079 23.5573 14.0648Z" fill="url(#paint2_linear_855_8588)"/>
<path d="M18.272 0.888889V18.5067C16.7661 20.0712 15.9233 22.1574 15.92 24.3289C15.9205 25.0438 16.0113 25.7558 16.1902 26.448C16.2864 26.8031 16.4052 27.1516 16.5458 27.4916C16.5754 27.5672 16.586 27.6489 16.5767 27.7296C16.5675 27.8103 16.5386 27.8875 16.4927 27.9544C16.4468 28.0214 16.3852 28.0761 16.3132 28.1138C16.2413 28.1515 16.1612 28.171 16.08 28.1707H0.888889C0.653141 28.1707 0.427049 28.077 0.26035 27.9103C0.0936505 27.7436 0 27.5175 0 27.2818V0.888889C0 0.653141 0.0936505 0.427049 0.26035 0.26035C0.427049 0.0936505 0.653141 0 0.888889 0L17.392 0C17.6262 0.00234216 17.85 0.0970256 18.0148 0.263471C18.1796 0.429917 18.272 0.654673 18.272 0.888889Z" fill="url(#paint3_linear_855_8588)"/>
<path d="M14.0604 11.1738L14.0942 16.9338L9.17865 19.8565L9.1431 14.0841L14.0604 11.1738Z" fill="#50E6FF"/>
<path d="M14.0604 11.1747L9.1431 14.0974L4.17776 11.2352L9.10754 8.3125L14.0604 11.1747Z" fill="#C3F1FF"/>
<path d="M9.1431 14.0966L9.17865 19.8566L4.21332 16.9944L4.17776 11.2344L9.1431 14.0966Z" fill="#9CEBFF"/>
<path d="M4.21332 16.9942L9.1431 14.084L9.17865 19.8564L4.21332 16.9942Z" fill="#C3F1FF"/>
<path d="M14.0942 16.9338L9.1431 14.084L9.17865 19.8564L14.0942 16.9338Z" fill="#9CEBFF"/>
</g>
<defs>
<linearGradient id="paint0_linear_855_8588" x1="24.336" y1="16.4427" x2="24.336" y2="31.9467" gradientUnits="userSpaceOnUse">
<stop offset="0.131" stop-color="#B796F9"/>
<stop offset="1" stop-color="#773ADC"/>
</linearGradient>
<linearGradient id="paint1_linear_855_8588" x1="17.6871" y1="1.24761" x2="17.6871" y2="26.9952" gradientUnits="userSpaceOnUse">
<stop stop-color="#999999"/>
<stop offset="0.999" stop-color="#767676"/>
</linearGradient>
<linearGradient id="paint2_linear_855_8588" x1="17.6871" y1="8.02217" x2="17.6871" y2="20.1804" gradientUnits="userSpaceOnUse">
<stop offset="0.001" stop-color="#B3B3B3"/>
<stop offset="1" stop-color="#999999"/>
</linearGradient>
<linearGradient id="paint3_linear_855_8588" x1="9.136" y1="-0.396444" x2="9.136" y2="28.7893" gradientUnits="userSpaceOnUse">
<stop stop-color="#0078D4"/>
<stop offset="1" stop-color="#005BA1"/>
</linearGradient>
<clipPath id="clip0_855_8588">
<rect width="32" height="32" fill="white"/>
</clipPath>
</defs>
</svg>
