<svg width="32" height="32" viewBox="0 0 32 32" fill="none" xmlns="http://www.w3.org/2000/svg">
<path d="M19.2587 26.2839C19.2454 26.5347 19.1334 26.77 18.9472 26.9385C18.761 27.107 18.5158 27.1951 18.2649 27.1835H3.04358C2.79273 27.1951 2.54747 27.107 2.36129 26.9385C2.17512 26.77 2.06315 26.5347 2.0498 26.2839V1.57636C2.06315 1.32559 2.17512 1.09028 2.36129 0.92176C2.54747 0.753238 2.79273 0.665181 3.04358 0.676801H18.2649C18.5158 0.665181 18.761 0.753238 18.9472 0.92176C19.1334 1.09028 19.2454 1.32559 19.2587 1.57636V26.2839Z" fill="url(#paint0_linear_855_8594)"/>
<path d="M4.57958 12.0084C4.55733 11.4886 4.74143 10.9811 5.09175 10.5965C5.44207 10.2119 5.93022 9.98134 6.4498 9.95508H15.0134C15.5339 9.97998 16.0234 10.21 16.3748 10.5947C16.7263 10.9795 16.9111 11.4878 16.8889 12.0084C16.9131 12.5296 16.7299 13.0391 16.3794 13.4255C16.029 13.812 15.5397 14.0439 15.0187 14.0706H6.4498C5.92877 14.0439 5.43952 13.812 5.08905 13.4255C4.73857 13.0391 4.55539 12.5296 4.57958 12.0084Z" fill="#003067"/>
<path d="M4.57958 5.88662C4.5554 5.36565 4.73863 4.85632 5.08915 4.47015C5.43968 4.08397 5.92893 3.85242 6.4498 3.82617H15.0134C15.5352 3.85105 16.0258 4.08201 16.3774 4.46834C16.7291 4.85466 16.9131 5.36477 16.8889 5.88662C16.9131 6.40777 16.7299 6.91729 16.3794 7.30374C16.029 7.6902 15.5397 7.92214 15.0187 7.94884H6.4498C5.92877 7.92214 5.43952 7.6902 5.08905 7.30374C4.73857 6.91729 4.55539 6.40777 4.57958 5.88662Z" fill="#003067"/>
<path d="M6.98669 7.26818C7.75056 7.26818 8.3698 6.64894 8.3698 5.88506C8.3698 5.12119 7.75056 4.50195 6.98669 4.50195C6.22282 4.50195 5.60358 5.12119 5.60358 5.88506C5.60358 6.64894 6.22282 7.26818 6.98669 7.26818Z" fill="#50E6FF"/>
<path d="M6.98669 13.3912C7.75056 13.3912 8.3698 12.772 8.3698 12.0081C8.3698 11.2442 7.75056 10.625 6.98669 10.625C6.22282 10.625 5.60358 11.2442 5.60358 12.0081C5.60358 12.772 6.22282 13.3912 6.98669 13.3912Z" fill="#50E6FF"/>
<path d="M13.0952 31.3224V20.9046C13.0956 20.6163 13.2105 20.3401 13.4144 20.1364C13.6184 19.9327 13.8949 19.8184 14.1832 19.8184H28.832C29.1203 19.8184 29.3968 19.9327 29.6007 20.1364C29.8047 20.3401 29.9196 20.6163 29.92 20.9046V31.3224H13.0952Z" fill="url(#paint1_linear_855_8594)"/>
<path d="M26.2471 19.8179H24.9742V17.9833C24.9752 17.9041 24.9603 17.8255 24.9304 17.7522C24.9006 17.6788 24.8563 17.6122 24.8004 17.5562C24.7444 17.5002 24.6777 17.456 24.6044 17.4262C24.5311 17.3963 24.4525 17.3814 24.3733 17.3824H18.6845C18.6054 17.3814 18.5269 17.3963 18.4536 17.4262C18.3804 17.4561 18.3139 17.5003 18.258 17.5563C18.2022 17.6124 18.1581 17.679 18.1285 17.7523C18.0988 17.8256 18.0841 17.9042 18.0853 17.9833V19.8179H16.8053V17.9833C16.8027 17.7365 16.8494 17.4916 16.9426 17.2631C17.0359 17.0346 17.1738 16.827 17.3483 16.6525C17.5228 16.4779 17.7305 16.34 17.959 16.2468C18.1875 16.1535 18.4323 16.1069 18.6791 16.1095H24.368C24.6148 16.1069 24.8596 16.1535 25.0882 16.2468C25.3167 16.34 25.5243 16.4779 25.6988 16.6525C25.8733 16.827 26.0112 17.0346 26.1045 17.2631C26.1977 17.4916 26.2444 17.7365 26.2418 17.9833L26.2471 19.8179Z" fill="url(#paint2_linear_855_8594)"/>
<path d="M29.9503 23.832H13.0952V24.6427H19.7992V25.7805C19.7996 25.9095 19.8511 26.0331 19.9423 26.1244C20.0336 26.2156 20.1572 26.2671 20.2863 26.2676H22.9672C23.0962 26.2671 23.2198 26.2156 23.3111 26.1244C23.4023 26.0331 23.4538 25.9095 23.4543 25.7805V24.6427H29.9503V23.832Z" fill="white"/>
<defs>
<linearGradient id="paint0_linear_855_8594" x1="10.6542" y1="0.676801" x2="10.6542" y2="27.1835" gradientUnits="userSpaceOnUse">
<stop stop-color="#B3B2B3"/>
<stop offset="0.375" stop-color="#AFAEAF"/>
<stop offset="0.763" stop-color="#A2A2A2"/>
<stop offset="1" stop-color="#979797"/>
</linearGradient>
<linearGradient id="paint1_linear_855_8594" x1="21.5076" y1="19.8184" x2="21.5076" y2="31.3224" gradientUnits="userSpaceOnUse">
<stop stop-color="#5EA0EF"/>
<stop offset="1" stop-color="#0078D4"/>
</linearGradient>
<linearGradient id="paint2_linear_855_8594" x1="21.5271" y1="16.1095" x2="21.5271" y2="19.8179" gradientUnits="userSpaceOnUse">
<stop stop-color="#3B3B3B"/>
<stop offset="0.389" stop-color="#373737"/>
<stop offset="0.791" stop-color="#2A2A2A"/>
<stop offset="0.997" stop-color="#212121"/>
</linearGradient>
</defs>
</svg>
