<svg width="32" height="32" viewBox="0 0 32 32" fill="none" xmlns="http://www.w3.org/2000/svg">
<g clip-path="url(#clip0_868_12164)">
<path d="M30.8444 14.4534C30.7988 12.8741 30.1923 11.3626 29.1336 10.1899C28.0748 9.0171 26.6331 8.25969 25.0667 8.05335C24.9695 5.84008 24.0047 3.75408 22.3811 2.24686C20.7574 0.739637 18.6055 -0.067546 16.3911 1.77403e-05C14.6045 -0.0292769 12.8526 0.494931 11.3757 1.50073C9.89888 2.50653 8.76938 3.94465 8.14221 5.6178C6.25462 5.8504 4.51258 6.7508 3.23113 8.15615C1.94968 9.56151 1.21344 11.379 1.15555 13.28C1.23428 15.4179 2.15858 17.4371 3.72534 18.8939C5.2921 20.3506 7.37312 21.1258 9.5111 21.0489H23.7333C23.8516 21.0588 23.9706 21.0588 24.0889 21.0489C25.8518 21.0449 27.5437 20.3537 28.8052 19.1221C30.0666 17.8905 30.7982 16.2157 30.8444 14.4534Z" fill="url(#paint0_linear_868_12164)"/>
<path d="M16.0889 18.6492C11.7333 18.6492 8.21332 17.5292 8.21332 16.1426V29.4937C8.21332 30.8626 11.7689 31.9826 15.9822 32.0004H16.0889C20.4267 32.0004 23.9467 30.8804 23.9467 29.4937V16.1426C23.9467 17.5292 20.4267 18.6492 16.0889 18.6492Z" fill="url(#paint1_linear_868_12164)"/>
<path d="M23.9467 16.1424C23.9467 17.5291 20.3911 18.6491 16.0889 18.6491C11.7867 18.6491 8.21332 17.5291 8.21332 16.1424C8.21332 14.7557 11.7689 13.6357 16.0889 13.6357C20.4089 13.6357 23.9467 14.7557 23.9467 16.1424Z" fill="#E8E8E8"/>
<path d="M22.1155 16.0004C22.1155 16.8715 19.4133 17.6004 16.0889 17.6004C12.7644 17.6004 10.0444 16.8715 10.0444 16.0004C10.0444 15.1293 12.7467 14.4004 16.0889 14.4004C19.4311 14.4004 22.1155 15.1115 22.1155 16.0004Z" fill="#50E6FF"/>
<path d="M16.0889 16.3198C14.4736 16.2822 12.8618 16.4859 11.3067 16.9243C12.8602 17.3721 14.4725 17.5819 16.0889 17.5465C17.7051 17.5795 19.3171 17.3697 20.8711 16.9243C19.3155 16.4885 17.704 16.2848 16.0889 16.3198Z" fill="#32BEDD"/>
<path d="M11.1822 8.88849L15.7867 4.23071C15.8364 4.17964 15.8958 4.13905 15.9615 4.11133C16.0271 4.08362 16.0976 4.06934 16.1689 4.06934C16.2402 4.06934 16.3107 4.08362 16.3763 4.11133C16.442 4.13905 16.5014 4.17964 16.5511 4.23071L21.1556 8.88849C21.1951 8.92024 21.223 8.96409 21.2352 9.01329C21.2473 9.06249 21.2429 9.11431 21.2227 9.16079C21.2025 9.20726 21.1676 9.24581 21.1234 9.27049C21.0791 9.29517 21.0279 9.30462 20.9778 9.29738H18.1511C18.0851 9.29738 18.0218 9.3236 17.9751 9.37028C17.9285 9.41695 17.9022 9.48026 17.9022 9.54627V15.2529C17.905 15.2793 17.9019 15.306 17.8931 15.331C17.8842 15.356 17.8699 15.3787 17.8512 15.3974C17.8324 15.4162 17.8097 15.4305 17.7847 15.4393C17.7597 15.4482 17.733 15.4513 17.7067 15.4485H14.6133C14.5615 15.4485 14.5117 15.4279 14.4751 15.3912C14.4384 15.3545 14.4178 15.3048 14.4178 15.2529V9.49294C14.423 9.43436 14.4056 9.376 14.3693 9.32976C14.333 9.28352 14.2804 9.25287 14.2222 9.24405H11.3422C11.3038 9.23846 11.2673 9.22327 11.2363 9.19987C11.2053 9.17647 11.1806 9.14562 11.1647 9.11017C11.1487 9.07473 11.142 9.03583 11.145 8.99708C11.1481 8.95833 11.1609 8.92098 11.1822 8.88849Z" fill="#F2F2F2"/>
</g>
<defs>
<linearGradient id="paint0_linear_868_12164" x1="16" y1="21.0489" x2="16" y2="1.81751e-05" gradientUnits="userSpaceOnUse">
<stop stop-color="#0078D4"/>
<stop offset="0.16" stop-color="#1380DA"/>
<stop offset="0.53" stop-color="#3C91E5"/>
<stop offset="0.82" stop-color="#559CEC"/>
<stop offset="1" stop-color="#5EA0EF"/>
</linearGradient>
<linearGradient id="paint1_linear_868_12164" x1="8.21332" y1="24.0715" x2="23.9467" y2="24.0715" gradientUnits="userSpaceOnUse">
<stop stop-color="#32BEDD"/>
<stop offset="0.06" stop-color="#37C5E3"/>
<stop offset="0.3" stop-color="#49DDF7"/>
<stop offset="0.45" stop-color="#50E6FF"/>
<stop offset="0.55" stop-color="#50E6FF"/>
<stop offset="0.7" stop-color="#49DDF7"/>
<stop offset="0.94" stop-color="#37C5E3"/>
<stop offset="1" stop-color="#32BEDD"/>
</linearGradient>
<clipPath id="clip0_868_12164">
<rect width="32" height="32" fill="white"/>
</clipPath>
</defs>
</svg>
