<svg width="32" height="32" viewBox="0 0 32 32" fill="none" xmlns="http://www.w3.org/2000/svg">
<path d="M3.43112 3.75116L5.58224 1.2445C5.6821 1.1311 5.80529 1.04063 5.94337 0.979263C6.08144 0.917895 6.23115 0.887085 6.38224 0.888939H27.0222C27.226 0.868628 27.4317 0.891996 27.6257 0.957486C27.8197 1.02298 27.9975 1.12908 28.1472 1.26872C28.2969 1.40837 28.4152 1.57833 28.494 1.76729C28.5729 1.95624 28.6105 2.15984 28.6045 2.3645V28.1423C28.6035 28.2877 28.5713 28.4313 28.51 28.5632C28.4486 28.6951 28.3596 28.8123 28.2489 28.9067L25.9378 31.0223H4.83557L3.39557 30.4356L3.43112 3.75116Z" fill="#005BA1"/>
<path d="M5.17334 3.73326L6.4889 2.23992C6.56557 2.14726 6.66024 2.07113 6.7672 2.01612C6.87415 1.96112 6.99115 1.92839 7.11112 1.91992H26.4711C26.7163 1.91992 26.9514 2.01732 27.1248 2.19069C27.2982 2.36405 27.3956 2.59919 27.3956 2.84437V27.3421C27.3969 27.4725 27.3707 27.6016 27.3186 27.7211C27.2665 27.8406 27.1897 27.9478 27.0933 28.0355L25.0311 29.9021L5.17334 3.73326Z" fill="white"/>
<path d="M24.8889 3.71582H3.55555C3.52726 3.71582 3.50013 3.72706 3.48013 3.74706C3.46012 3.76707 3.44888 3.7942 3.44888 3.82249V30.4892C3.45352 30.6699 3.52861 30.8418 3.65814 30.968C3.78766 31.0942 3.96137 31.1648 4.14222 31.1647H24.8889C25.0681 31.1647 25.2399 31.0935 25.3666 30.9668C25.4933 30.8402 25.5644 30.6683 25.5644 30.4892V4.40915C25.5645 4.22831 25.4939 4.0546 25.3677 3.92507C25.2415 3.79555 25.0697 3.72046 24.8889 3.71582Z" fill="url(#paint0_linear_868_11836)"/>
<path d="M19.5911 11.0225H8.88889C8.61398 11.0225 8.39111 11.2453 8.39111 11.5202V14.7558C8.39111 15.0307 8.61398 15.2536 8.88889 15.2536H19.5911C19.866 15.2536 20.0889 15.0307 20.0889 14.7558V11.5202C20.0889 11.2453 19.866 11.0225 19.5911 11.0225Z" fill="white"/>
<defs>
<linearGradient id="paint0_linear_868_11836" x1="14.4889" y1="31.1114" x2="14.4889" y2="3.71582" gradientUnits="userSpaceOnUse">
<stop stop-color="#1988D9"/>
<stop offset="0.9" stop-color="#54AEF0"/>
</linearGradient>
</defs>
</svg>
