<svg width="32" height="32" viewBox="0 0 32 32" fill="none" xmlns="http://www.w3.org/2000/svg">
<path d="M31.1111 16.7818C31.08 15.1523 30.4685 13.5874 29.3865 12.3685C28.3046 11.1497 26.8232 10.3569 25.2089 10.1329C25.1391 7.86155 24.1755 5.7096 22.5276 4.14493C20.8797 2.58026 18.6808 1.72939 16.4089 1.77731C14.5691 1.7584 12.7688 2.31085 11.2563 3.35846C9.74375 4.40608 8.59359 5.89722 7.96444 7.6262C6.02452 7.87353 4.23841 8.81082 2.93269 10.2667C1.62697 11.7226 0.888868 13.5998 0.853333 15.5551C0.883262 16.6431 1.12732 17.7146 1.57154 18.7083C2.01577 19.702 2.65146 20.5985 3.44229 21.3464C4.23312 22.0943 5.16358 22.679 6.1805 23.0671C7.19742 23.4553 8.28085 23.6392 9.36889 23.6084C9.61747 23.6259 9.86697 23.6259 10.1156 23.6084H23.8933C24.0111 23.6271 24.1311 23.6271 24.2489 23.6084C26.0571 23.5901 27.7865 22.8661 29.0685 21.5908C30.3504 20.3155 31.0834 18.5898 31.1111 16.7818Z" fill="url(#paint0_linear_868_11832)"/>
<path d="M25.8311 26.9157L22.2755 30.7201C22.2156 30.78 22.1404 30.8222 22.058 30.8422C21.9757 30.8622 21.8895 30.8592 21.8087 30.8335C21.728 30.8078 21.6559 30.7605 21.6003 30.6966C21.5446 30.6327 21.5076 30.5547 21.4933 30.4712L19.3422 19.9823C19.3356 19.8985 19.352 19.8145 19.3896 19.7393C19.4272 19.6642 19.4846 19.6007 19.5555 19.5557L21.9022 18.5957C22.0111 18.5528 22.1322 18.5528 22.2411 18.5956C22.35 18.6385 22.4385 18.7211 22.4889 18.8268L25.9555 26.4712C25.9796 26.5494 25.9807 26.6329 25.9586 26.7117C25.9365 26.7905 25.8923 26.8613 25.8311 26.9157Z" fill="#37C2B1"/>
<path d="M14.2222 26.9155L17.7778 30.7199C17.8377 30.7798 17.913 30.822 17.9953 30.842C18.0776 30.862 18.1638 30.859 18.2446 30.8334C18.3253 30.8077 18.3974 30.7603 18.4531 30.6964C18.5087 30.6325 18.5457 30.5545 18.56 30.471L20.7111 19.9821C20.7279 19.8814 20.7109 19.7779 20.6626 19.6878C20.6144 19.5977 20.5377 19.5262 20.4444 19.4844L18.0978 18.5244C17.9889 18.4815 17.8678 18.4815 17.7589 18.5244C17.65 18.5672 17.5615 18.6498 17.5111 18.7555L14.0444 26.3999C14.0092 26.4931 14.0077 26.5956 14.0402 26.6898C14.0727 26.784 14.1371 26.8638 14.2222 26.9155Z" fill="#42E8CA"/>
<path d="M20.5867 10.6668L21.0489 10.2757C21.1961 10.1555 21.3843 10.0975 21.5736 10.1141C21.7629 10.1307 21.9382 10.2206 22.0622 10.3646C22.1168 10.4272 22.159 10.4996 22.1867 10.5779L22.4 11.1468C22.4621 11.3024 22.5748 11.4326 22.7199 11.5165C22.865 11.6003 23.0341 11.6329 23.2 11.609L23.7867 11.5023C23.975 11.4712 24.1681 11.5152 24.3243 11.6249C24.4806 11.7346 24.5875 11.9013 24.6222 12.089C24.64 12.171 24.64 12.2559 24.6222 12.3379L24.5156 12.9246C24.4916 13.0904 24.5242 13.2595 24.6081 13.4046C24.6919 13.5497 24.8221 13.6624 24.9778 13.7246L25.5467 13.9201C25.7257 13.9917 25.87 14.1298 25.9496 14.3054C26.0291 14.481 26.0376 14.6806 25.9733 14.8623C25.9385 14.9371 25.8969 15.0086 25.8489 15.0757L25.4578 15.5201C25.354 15.6518 25.2975 15.8146 25.2975 15.9823C25.2975 16.15 25.354 16.3129 25.4578 16.4446L25.8489 16.9068C25.9096 16.9798 25.9551 17.0642 25.9827 17.1551C26.0102 17.246 26.0193 17.3415 26.0094 17.436C25.9994 17.5304 25.9707 17.6219 25.9248 17.7051C25.8789 17.7882 25.8168 17.8613 25.7422 17.9201C25.6841 17.9718 25.6181 18.0138 25.5467 18.0446L24.9778 18.2579C24.8181 18.3143 24.6838 18.4259 24.599 18.5726C24.5143 18.7193 24.4847 18.8913 24.5156 19.0579L24.6222 19.6446C24.64 19.737 24.6388 19.8322 24.6186 19.9242C24.5983 20.0162 24.5596 20.1031 24.5047 20.1796C24.4498 20.2561 24.3799 20.3206 24.2992 20.3693C24.2186 20.4179 24.1289 20.4495 24.0356 20.4623C23.9536 20.4801 23.8687 20.4801 23.7867 20.4623H23.2C23.0335 20.4315 22.8614 20.4611 22.7147 20.5458C22.5681 20.6306 22.4565 20.7649 22.4 20.9246L22.1867 21.4757C22.155 21.5651 22.1057 21.6473 22.0418 21.7174C21.9779 21.7875 21.9005 21.8441 21.8144 21.8839C21.7282 21.9236 21.635 21.9457 21.5402 21.9489C21.4453 21.9521 21.3508 21.9362 21.2622 21.9023C21.1839 21.8747 21.1115 21.8325 21.0489 21.7779L20.6045 21.3334C20.4756 21.2233 20.3117 21.1627 20.1422 21.1627C19.9727 21.1627 19.8088 21.2233 19.68 21.3334L19.2178 21.7068C19.1459 21.7685 19.0624 21.8153 18.9721 21.8443C18.8819 21.8733 18.7868 21.8839 18.6924 21.8756C18.598 21.8674 18.5062 21.8403 18.4224 21.796C18.3386 21.7518 18.2645 21.6912 18.2045 21.6179C18.1428 21.5606 18.0995 21.4864 18.08 21.4046L17.8667 20.8534C17.8134 20.6915 17.7024 20.5549 17.5549 20.4697C17.4073 20.3844 17.2335 20.3565 17.0667 20.3912L16.48 20.4979C16.3854 20.5131 16.2888 20.5095 16.1956 20.4874C16.1025 20.4653 16.0146 20.425 15.937 20.3688C15.8594 20.3127 15.7936 20.2418 15.7434 20.1602C15.6932 20.0787 15.6596 19.988 15.6445 19.8934C15.627 19.8174 15.627 19.7384 15.6445 19.6623L15.7511 19.0757C15.782 18.9091 15.7524 18.737 15.6676 18.5904C15.5829 18.4437 15.4486 18.3321 15.2889 18.2757L14.7378 18.0623C14.5544 18.0083 14.3987 17.8861 14.3028 17.7207C14.2069 17.5553 14.178 17.3594 14.2222 17.1734C14.257 17.0986 14.2987 17.0272 14.3467 16.9601L14.7378 16.4979C14.8416 16.3662 14.8981 16.2034 14.8981 16.0357C14.8981 15.868 14.8416 15.7051 14.7378 15.5734L14.3467 15.129C14.2855 15.0545 14.2396 14.9686 14.2118 14.8763C14.184 14.784 14.1748 14.6871 14.1847 14.5912C14.1947 14.4953 14.2235 14.4023 14.2696 14.3176C14.3157 14.2329 14.3782 14.1583 14.4533 14.0979C14.5123 14.0419 14.5865 14.0048 14.6667 13.9912L15.2178 13.7779C15.3734 13.7158 15.5037 13.6031 15.5875 13.458C15.6713 13.3129 15.7039 13.1438 15.68 12.9779L15.6445 12.4446C15.6133 12.2562 15.6574 12.0632 15.7671 11.9069C15.8768 11.7507 16.0434 11.6437 16.2311 11.609H16.48L17.0667 11.7157C17.2329 11.7429 17.4034 11.7118 17.5493 11.6275C17.6951 11.5432 17.8073 11.4111 17.8667 11.2534L18.08 10.6668C18.1479 10.4891 18.2827 10.345 18.4554 10.2653C18.6281 10.1856 18.8252 10.1765 19.0044 10.2401L19.2178 10.3646L19.68 10.7557C19.8188 10.846 19.9841 10.8865 20.1489 10.8703C20.3137 10.8542 20.4681 10.7824 20.5867 10.6668Z" fill="#005BA1"/>
<path d="M20.1422 20.231C22.4594 20.231 24.3378 18.3525 24.3378 16.0354C24.3378 13.7183 22.4594 11.8398 20.1422 11.8398C17.8251 11.8398 15.9467 13.7183 15.9467 16.0354C15.9467 18.3525 17.8251 20.231 20.1422 20.231Z" fill="#FFCA00"/>
<defs>
<linearGradient id="paint0_linear_868_11832" x1="16" y1="-1.56491" x2="16" y2="28.4618" gradientUnits="userSpaceOnUse">
<stop offset="0.22" stop-color="#32D4F5"/>
<stop offset="0.43" stop-color="#31D1F2"/>
<stop offset="0.6" stop-color="#2DC6E9"/>
<stop offset="0.76" stop-color="#28B5D9"/>
<stop offset="0.91" stop-color="#1F9DC4"/>
<stop offset="1" stop-color="#198AB3"/>
</linearGradient>
</defs>
</svg>
