<svg width="32" height="32" viewBox="0 0 32 32" fill="none" xmlns="http://www.w3.org/2000/svg">
<path d="M31.1111 4.4444V23.6977C31.1111 23.9712 31.0025 24.2335 30.8091 24.4268C30.6157 24.6202 30.3535 24.7288 30.08 24.7288H22.0444C21.9767 24.7287 21.9114 24.7543 21.8619 24.8006C21.8124 24.8468 21.7823 24.9101 21.7778 24.9777V28.0888C21.7803 28.1828 21.7562 28.2756 21.7083 28.3564C21.6603 28.4372 21.5904 28.5028 21.5067 28.5456C21.423 28.5884 21.3289 28.6066 21.2353 28.5981C21.1417 28.5896 21.0524 28.5548 20.9778 28.4977L16.1422 24.7822H15.9822H1.92C1.64653 24.7822 1.38426 24.6735 1.19089 24.4802C0.997521 24.2868 0.888886 24.0245 0.888886 23.7511V4.4444C0.886526 4.3075 0.911453 4.17151 0.962213 4.04435C1.01297 3.91719 1.08855 3.80141 1.18453 3.70377C1.28052 3.60613 1.39499 3.52859 1.52126 3.47566C1.64753 3.42274 1.78308 3.39549 1.92 3.39551H30.08C30.2169 3.39549 30.3525 3.42274 30.4787 3.47566C30.605 3.52859 30.7195 3.60613 30.8155 3.70377C30.9114 3.80141 30.987 3.91719 31.0378 4.04435C31.0885 4.17151 31.1135 4.3075 31.1111 4.4444Z" fill="url(#paint0_linear_868_11823)"/>
<path d="M16.96 17.1202H14.8978C14.8137 17.125 14.7295 17.1132 14.65 17.0854C14.5705 17.0576 14.4973 17.0144 14.4345 16.9582C14.3718 16.9021 14.3207 16.8341 14.2843 16.7582C14.2478 16.6822 14.2267 16.5999 14.2222 16.5158L13.8666 6.09801C13.8643 6.01481 13.8786 5.93199 13.9088 5.85443C13.939 5.77688 13.9845 5.70617 14.0425 5.64649C14.1005 5.58682 14.1699 5.53939 14.2466 5.50701C14.3233 5.47464 14.4056 5.45797 14.4889 5.45801H17.5111C17.5959 5.45787 17.6798 5.47506 17.7577 5.50853C17.8356 5.542 17.9059 5.59104 17.9641 5.65264C18.0224 5.71424 18.0675 5.7871 18.0966 5.86674C18.1257 5.94638 18.1382 6.03113 18.1333 6.11579L17.5822 16.5336C17.5731 16.6923 17.5036 16.8416 17.3879 16.9507C17.2721 17.0598 17.119 17.1205 16.96 17.1202Z" fill="white"/>
<path d="M16.3733 18.8799H15.5378C14.9388 18.8799 14.4533 19.3654 14.4533 19.9643V20.7999C14.4533 21.3988 14.9388 21.8843 15.5378 21.8843H16.3733C16.9722 21.8843 17.4578 21.3988 17.4578 20.7999V19.9643C17.4578 19.3654 16.9722 18.8799 16.3733 18.8799Z" fill="white"/>
<defs>
<linearGradient id="paint0_linear_868_11823" x1="16" y1="30.5777" x2="16" y2="-5.83116" gradientUnits="userSpaceOnUse">
<stop stop-color="#5E9624"/>
<stop offset="0.18" stop-color="#629C25"/>
<stop offset="0.44" stop-color="#6DAE2A"/>
<stop offset="0.73" stop-color="#7FCB30"/>
<stop offset="0.82" stop-color="#86D633"/>
</linearGradient>
</defs>
</svg>
