<svg width="32" height="32" viewBox="0 0 32 32" fill="none" xmlns="http://www.w3.org/2000/svg">
<path d="M18.1867 30.9153L19.6267 29.3686V25.2441H12.4445V29.3686L13.8845 30.9153C13.9705 31.0182 14.0901 31.0875 14.2222 31.1108H17.7778C17.8557 31.108 17.9322 31.0891 18.0026 31.0555C18.0729 31.0219 18.1356 30.9741 18.1867 30.9153Z" fill="#CECECE"/>
<path d="M16 0.889205C14.514 0.874213 13.0419 1.17569 11.6814 1.77359C10.321 2.37149 9.10335 3.25212 8.10951 4.35694C7.11567 5.46177 6.36838 6.76548 5.91731 8.18142C5.46624 9.59736 5.32172 11.0931 5.49336 12.5692C5.97336 16.9603 10.1511 19.0048 11.3422 24.5692C11.3859 24.759 11.492 24.9287 11.6435 25.0512C11.7949 25.1736 11.9831 25.2418 12.1778 25.2448H19.8222C20.017 25.2418 20.2051 25.1736 20.3566 25.0512C20.508 24.9287 20.6141 24.759 20.6578 24.5692C21.8489 19.0048 25.9911 16.9603 26.5067 12.5692C26.6783 11.0931 26.5338 9.59736 26.0827 8.18142C25.6317 6.76548 24.8844 5.46177 23.8905 4.35694C22.8967 3.25212 21.6791 2.37149 20.3186 1.77359C18.9582 1.17569 17.486 0.874213 16 0.889205Z" fill="url(#paint0_radial_868_11817)"/>
<path d="M20.3733 6.7373C19.7162 6.76051 19.0951 7.04274 18.6454 7.52239C18.1957 8.00204 17.9541 8.64012 17.9733 9.2973V10.6662H14.2222V9.2973C14.2293 8.96366 14.1697 8.63196 14.0469 8.32166C13.9241 8.01135 13.7406 7.72869 13.5071 7.49025C13.2737 7.2518 12.9949 7.06238 12.6873 6.93308C12.3796 6.80379 12.0492 6.73723 11.7155 6.7373C11.0585 6.76051 10.4373 7.04274 9.98762 7.52239C9.53795 8.00204 9.29633 8.64012 9.31553 9.2973C9.29624 9.95624 9.5373 10.5963 9.98651 11.0787C10.4357 11.5612 11.0569 11.8473 11.7155 11.8751H12.8533V22.5417C12.8533 22.7115 12.9207 22.8743 13.0408 22.9943C13.1608 23.1143 13.3236 23.1817 13.4933 23.1817C13.663 23.1817 13.8258 23.1143 13.9459 22.9943C14.0659 22.8743 14.1333 22.7115 14.1333 22.5417V11.8751H17.9733V22.5417C17.9733 22.7115 18.0407 22.8743 18.1608 22.9943C18.2808 23.1143 18.4436 23.1817 18.6133 23.1817C18.783 23.1817 18.9458 23.1143 19.0659 22.9943C19.1859 22.8743 19.2533 22.7115 19.2533 22.5417V11.8751H20.3733C20.7002 11.8636 21.0217 11.7878 21.3193 11.652C21.6169 11.5162 21.8848 11.3231 22.1077 11.0837C22.3306 10.8443 22.5041 10.5633 22.6183 10.2568C22.7325 9.95023 22.7852 9.6242 22.7733 9.2973C22.7925 8.64012 22.5509 8.00204 22.1012 7.52239C21.6515 7.04274 21.0304 6.76051 20.3733 6.7373ZM12.8533 10.6662H11.6444C11.3049 10.6389 10.9892 10.481 10.7637 10.2257C10.5383 9.97039 10.4206 9.63759 10.4355 9.2973C10.4206 8.95702 10.5383 8.62422 10.7637 8.36892C10.9892 8.11361 11.3049 7.95571 11.6444 7.92842C11.9839 7.95571 12.2996 8.11361 12.5251 8.36892C12.7506 8.62422 12.8682 8.95702 12.8533 9.2973V10.6662ZM20.4622 10.6662H19.2533V9.22619C19.2326 9.05635 19.2482 8.88404 19.299 8.72066C19.3499 8.55728 19.4348 8.40656 19.5482 8.27845C19.6617 8.15035 19.801 8.04779 19.957 7.97754C20.113 7.9073 20.2822 7.87098 20.4533 7.87098C20.6244 7.87098 20.7936 7.9073 20.9496 7.97754C21.1056 8.04779 21.2449 8.15035 21.3584 8.27845C21.4718 8.40656 21.5568 8.55728 21.6076 8.72066C21.6584 8.88404 21.674 9.05635 21.6533 9.22619C21.6729 9.39953 21.6574 9.57505 21.6076 9.74225C21.5579 9.90945 21.475 10.0649 21.3638 10.1993C21.2526 10.3337 21.1154 10.4444 20.9605 10.5246C20.8056 10.6048 20.6361 10.653 20.4622 10.6662Z" fill="url(#paint1_linear_868_11817)"/>
<path d="M12.3734 28.0892L19.6267 26.6848V25.8848L12.3734 27.307V28.0892Z" fill="#999999"/>
<path d="M19.6267 28.6396V27.8574L12.3734 29.2974V29.3685L12.9245 29.973L19.6267 28.6396Z" fill="#999999"/>
<defs>
<radialGradient id="paint0_radial_868_11817" cx="0" cy="0" r="1" gradientUnits="userSpaceOnUse" gradientTransform="translate(16 13.067) scale(11.4133 11.4133)">
<stop stop-color="#B77AF4"/>
<stop offset="0.21" stop-color="#B378F2"/>
<stop offset="0.43" stop-color="#A672ED"/>
<stop offset="0.65" stop-color="#9267E4"/>
<stop offset="0.88" stop-color="#7559D8"/>
<stop offset="1" stop-color="#624FD0"/>
</radialGradient>
<linearGradient id="paint1_linear_868_11817" x1="16.0355" y1="6.95064" x2="16.1422" y2="20.4262" gradientUnits="userSpaceOnUse">
<stop stop-color="#F2F2F2"/>
<stop offset="0.23" stop-color="#F1F1F2" stop-opacity="0.99"/>
<stop offset="0.37" stop-color="#EDEDF1" stop-opacity="0.95"/>
<stop offset="0.48" stop-color="#E7E5F0" stop-opacity="0.89"/>
<stop offset="0.58" stop-color="#DEDBEE" stop-opacity="0.81"/>
<stop offset="0.67" stop-color="#D3CEEB" stop-opacity="0.7"/>
<stop offset="0.76" stop-color="#C4BEE8" stop-opacity="0.57"/>
<stop offset="0.84" stop-color="#B4ABE5" stop-opacity="0.41"/>
<stop offset="0.92" stop-color="#A095E1" stop-opacity="0.22"/>
<stop offset="0.99" stop-color="#8B7DDC" stop-opacity="0.02"/>
<stop offset="1" stop-color="#897BDC" stop-opacity="0"/>
</linearGradient>
</defs>
</svg>
