<svg width="32" height="32" viewBox="0 0 32 32" fill="none" xmlns="http://www.w3.org/2000/svg">
<g clip-path="url(#clip0_868_11830)">
<path d="M31.1947 27.0219C30.9085 28.2663 29.3547 29.4948 26.5423 30.4494C19.5097 32.517 12.0321 32.5275 4.99381 30.4797C2.40359 29.5588 1.00626 28.3925 0.787589 27.1997C0.750255 26.9899 0.787589 23.7045 0.787589 23.7045L31.2427 23.4219C31.2427 23.4219 31.2285 26.8619 31.1947 27.0219Z" fill="#5EA0EF"/>
<path d="M16.0546 28.9037C24.4715 28.8193 31.2711 26.3917 31.2419 23.4817C31.2127 20.5717 24.3657 18.2811 15.9489 18.3656C7.53197 18.4501 0.732416 20.8776 0.76162 23.7876C0.790825 26.6976 7.63773 28.9882 16.0546 28.9037Z" fill="#50E6FF"/>
<path d="M23.7583 23.0718C23.7458 23.2963 23.6457 23.5069 23.4794 23.6582C23.3131 23.8095 23.094 23.8894 22.8694 23.8807H9.14847C8.92382 23.8894 8.70472 23.8095 8.53844 23.6582C8.37216 23.5069 8.27201 23.2963 8.25958 23.0718V0.810475C8.27065 0.585348 8.37033 0.373741 8.53687 0.221856C8.70341 0.0699707 8.92328 -0.00985447 9.14847 -0.000191191H22.864C23.0888 -0.00939636 23.3082 0.0703478 23.4745 0.221759C23.6409 0.37317 23.7409 0.58405 23.7529 0.808698L23.7583 23.0718Z" fill="url(#paint0_linear_868_11830)"/>
<path d="M19.9324 12.0732H12.2169C11.7481 12.0488 11.3079 11.8399 10.9925 11.4922C10.6771 11.1445 10.512 10.6861 10.5333 10.2172C10.5106 9.7473 10.675 9.28757 10.9906 8.93869C11.3061 8.58981 11.7471 8.38022 12.2169 8.35584H19.9324C20.4019 8.37978 20.8428 8.58867 21.1586 8.93683C21.4744 9.28498 21.6395 9.74405 21.6178 10.2136C21.64 10.6835 21.4751 11.143 21.1593 11.4916C20.8434 11.8401 20.4022 12.0492 19.9324 12.0732ZM21.6178 4.69362C21.6371 4.22555 21.4709 3.76877 21.1554 3.42256C20.8398 3.07634 20.4003 2.86869 19.9324 2.84473H12.2169C11.7494 2.86914 11.3103 3.07699 10.9951 3.42315C10.6799 3.76932 10.514 4.22584 10.5333 4.69362C10.5116 5.16289 10.6764 5.6217 10.9919 5.9698C11.3073 6.31791 11.7477 6.527 12.2169 6.55139H19.9324C20.4019 6.52745 20.8428 6.31856 21.1586 5.9704C21.4744 5.62225 21.6395 5.16318 21.6178 4.69362Z" fill="#552F99"/>
<path d="M19.4489 3.44727C19.695 3.44727 19.9356 3.52025 20.1403 3.65699C20.3449 3.79373 20.5044 3.98809 20.5986 4.21548C20.6928 4.44287 20.7174 4.69309 20.6694 4.93449C20.6214 5.17589 20.5029 5.39763 20.3288 5.57167C20.1548 5.7457 19.9331 5.86423 19.6917 5.91224C19.4503 5.96026 19.2 5.93562 18.9727 5.84143C18.7453 5.74724 18.5509 5.58773 18.4142 5.38309C18.2774 5.17844 18.2044 4.93784 18.2044 4.69171C18.2044 4.36166 18.3355 4.04513 18.5689 3.81176C18.8023 3.57838 19.1188 3.44727 19.4489 3.44727ZM18.2044 10.2028C18.2044 10.4489 18.2774 10.6895 18.4142 10.8942C18.5509 11.0988 18.7453 11.2583 18.9727 11.3525C19.2 11.4467 19.4503 11.4714 19.6917 11.4234C19.9331 11.3753 20.1548 11.2568 20.3288 11.0828C20.5029 10.9087 20.6214 10.687 20.6694 10.4456C20.7174 10.2042 20.6928 9.95399 20.5986 9.72659C20.5044 9.4992 20.3449 9.30484 20.1403 9.1681C19.9356 9.03136 19.695 8.95838 19.4489 8.95838C19.2847 8.95814 19.1221 8.99039 18.9705 9.05327C18.8188 9.11615 18.6811 9.20841 18.5652 9.32475C18.4494 9.44108 18.3577 9.57919 18.2955 9.73111C18.2333 9.88303 18.2017 10.0458 18.2027 10.2099L18.2044 10.2028Z" fill="#50E6FF"/>
</g>
<defs>
<linearGradient id="paint0_linear_868_11830" x1="16.0071" y1="-0.000191191" x2="16.0071" y2="23.8807" gradientUnits="userSpaceOnUse">
<stop stop-color="#A67AF4"/>
<stop offset="0.999" stop-color="#773ADC"/>
</linearGradient>
<clipPath id="clip0_868_11830">
<rect width="32" height="32" fill="white"/>
</clipPath>
</defs>
</svg>
