<svg width="32" height="32" viewBox="0 0 32 32" fill="none" xmlns="http://www.w3.org/2000/svg">
<g clip-path="url(#clip0_868_11834)">
<path d="M31.8222 17.7777V14.2222L31.2889 14.0444L27.3778 12.8L26.3111 10.3111L28.4445 6.0444L25.7778 3.55551L25.2445 3.73329L21.6889 5.51107L19.2 4.4444L17.7778 0.177734H14.2222L13.8667 0.711068L12.6222 4.62218L10.1334 5.51107L6.04446 3.55551L3.55557 6.22218L3.73335 6.75551L5.51113 10.3111L4.62224 12.8L0.177795 14.2222V17.7777L0.711129 17.9555L4.62224 19.2L5.68891 21.6888L3.55557 25.9555L6.22224 28.4444L6.75557 28.2666L10.3111 26.4888L12.8 27.5555L14.2222 31.8222H17.7778L17.9556 31.2888L19.2 27.3777L21.6889 26.3111L25.7778 28.2666L28.2667 25.7777L28.0889 25.2444L26.3111 21.6888L27.3778 19.2L31.8222 17.7777ZM16 22.9333C15.0857 22.9472 14.1779 22.7774 13.3304 22.4339C12.4829 22.0904 11.713 21.5802 11.0664 20.9336C10.4198 20.2869 9.90962 19.5171 9.56612 18.6696C9.22261 17.8221 9.05277 16.9143 9.06668 16C9.05277 15.0856 9.22261 14.1778 9.56612 13.3303C9.90962 12.4828 10.4198 11.713 11.0664 11.0664C11.713 10.4197 12.4829 9.90956 13.3304 9.56605C14.1779 9.22255 15.0857 9.05271 16 9.06662C16.9144 9.05271 17.8222 9.22255 18.6697 9.56605C19.5171 9.90956 20.287 10.4197 20.9336 11.0664C21.5802 11.713 22.0904 12.4828 22.4339 13.3303C22.7774 14.1778 22.9473 15.0856 22.9333 16C22.9473 16.9143 22.7774 17.8221 22.4339 18.6696C22.0904 19.5171 21.5802 20.2869 20.9336 20.9336C20.287 21.5802 19.5171 22.0904 18.6697 22.4339C17.8222 22.7774 16.9144 22.9472 16 22.9333Z" fill="url(#paint0_linear_868_11834)"/>
<path d="M15.1111 18.6669H8.71109C8.61884 18.6607 8.53198 18.6212 8.46661 18.5559C8.40123 18.4905 8.36177 18.4036 8.35553 18.3114V18.1336L16 3.0225C16 2.84473 16.1778 2.84473 16.3555 2.84473H23.8222C23.9144 2.85097 24.0013 2.89043 24.0667 2.95581C24.132 3.02118 24.1715 3.10804 24.1778 3.20028V3.37806L15.1111 15.2892H23.8222C23.9144 15.2954 24.0013 15.3349 24.0667 15.4003C24.132 15.4656 24.1715 15.5525 24.1778 15.6447C24.1778 15.6919 24.159 15.7371 24.1257 15.7704C24.0923 15.8038 24.0471 15.8225 24 15.8225L9.4222 30.9336C9.24442 30.9336 8.35553 31.8225 8.71109 30.5781L15.1111 18.6669Z" fill="url(#paint1_linear_868_11834)"/>
</g>
<defs>
<linearGradient id="paint0_linear_868_11834" x1="16" y1="31.8222" x2="16" y2="0.177734" gradientUnits="userSpaceOnUse">
<stop stop-color="#0078D4"/>
<stop offset="0.064" stop-color="#0A7CD7"/>
<stop offset="0.338" stop-color="#2E8CE1"/>
<stop offset="0.594" stop-color="#4897E9"/>
<stop offset="0.822" stop-color="#589EED"/>
<stop offset="1" stop-color="#5EA0EF"/>
</linearGradient>
<linearGradient id="paint1_linear_868_11834" x1="16.2676" y1="31.0005" x2="16.2676" y2="2.63665" gradientUnits="userSpaceOnUse">
<stop stop-color="#FEA11B"/>
<stop offset="0.284" stop-color="#FEA51A"/>
<stop offset="0.547" stop-color="#FEB018"/>
<stop offset="0.8" stop-color="#FFC314"/>
<stop offset="1" stop-color="#FFD70F"/>
</linearGradient>
<clipPath id="clip0_868_11834">
<rect width="32" height="32" fill="white"/>
</clipPath>
</defs>
</svg>
