<svg width="32" height="32" viewBox="0 0 32 32" fill="none" xmlns="http://www.w3.org/2000/svg">
<path d="M29.6 30.3638L23.2178 13.7949C23.1819 13.7012 23.1186 13.6205 23.0362 13.5634C22.9537 13.5063 22.8559 13.4755 22.7556 13.4749H18.2044V9.52826C18.2325 9.20893 18.1939 8.88724 18.0909 8.58364C17.988 8.28005 17.823 8.00119 17.6065 7.76479C17.39 7.52839 17.1267 7.33962 16.8333 7.21048C16.5399 7.08134 16.2228 7.01465 15.9022 7.01465C15.5816 7.01465 15.2646 7.08134 14.9712 7.21048C14.6778 7.33962 14.4144 7.52839 14.1979 7.76479C13.9814 8.00119 13.8164 8.28005 13.7135 8.58364C13.6106 8.88724 13.5719 9.20893 13.6 9.52826V13.4749H9.49333C9.39054 13.4743 9.28991 13.5045 9.20438 13.5615C9.11885 13.6185 9.05232 13.6998 9.01333 13.7949L2.4 30.3638C2.33371 30.5062 2.30269 30.6624 2.30956 30.8193C2.31643 30.9762 2.36099 31.1291 2.43947 31.2652C2.51794 31.4012 2.62803 31.5163 2.76041 31.6008C2.89279 31.6853 3.04357 31.7366 3.2 31.7505H28.8C28.9564 31.7366 29.1072 31.6853 29.2396 31.6008C29.372 31.5163 29.482 31.4012 29.5605 31.2652C29.639 31.1291 29.6836 30.9762 29.6904 30.8193C29.6973 30.6624 29.6663 30.5062 29.6 30.3638Z" fill="url(#paint0_linear_868_11840)"/>
<path d="M5.99109 21.3334L21.3333 13.4757H22.6666C22.7721 13.4738 22.8755 13.5056 22.9617 13.5663C23.048 13.627 23.1128 13.7135 23.1466 13.8134L24.6222 17.6357L3.19998 28.4445L5.99109 21.3334Z" fill="#83B9F9"/>
<path d="M16.96 31.7154L27.6267 25.3154L29.5644 30.3643C29.6268 30.5084 29.6543 30.6651 29.6446 30.8218C29.6348 30.9784 29.5882 31.1306 29.5084 31.2658C29.4287 31.401 29.3181 31.5154 29.1857 31.5997C29.0534 31.6841 28.9029 31.7359 28.7467 31.751L16.96 31.7154Z" fill="#83B9F9"/>
<path d="M15.7689 0.284062L8.44445 4.53295C8.40083 4.55813 8.36468 4.59444 8.33969 4.63817C8.31471 4.6819 8.30178 4.73148 8.30223 4.78184V5.43962C8.30223 5.51506 8.33219 5.58741 8.38554 5.64075C8.43888 5.69409 8.51123 5.72406 8.58667 5.72406H9.68889V13.4752H11.0756V5.72406H20.7467V13.4752H22.1156V5.72406H23.2356C23.311 5.72406 23.3833 5.69409 23.4367 5.64075C23.49 5.58741 23.52 5.51506 23.52 5.43962V4.78184C23.5205 4.73148 23.5075 4.6819 23.4825 4.63817C23.4576 4.59444 23.4214 4.55813 23.3778 4.53295L16 0.284062C15.9247 0.260781 15.8442 0.260781 15.7689 0.284062Z" fill="#0078D4"/>
<defs>
<linearGradient id="paint0_linear_868_11840" x1="16" y1="31.7505" x2="16" y2="7.21715" gradientUnits="userSpaceOnUse">
<stop stop-color="#0078D4"/>
<stop offset="0.16" stop-color="#1380DA"/>
<stop offset="0.53" stop-color="#3C91E5"/>
<stop offset="0.82" stop-color="#559CEC"/>
<stop offset="1" stop-color="#5EA0EF"/>
</linearGradient>
</defs>
</svg>
