<svg width="32" height="32" viewBox="0 0 32 32" fill="none" xmlns="http://www.w3.org/2000/svg">
<path d="M12.6791 7.94492L6.34133 11.6303L0 7.94315L6.34133 4.25781L12.6791 7.94492Z" fill="#5EA0EF"/>
<path d="M12.6791 24.5227L6.33957 20.8623V28.2081L12.6791 24.5227Z" fill="#005BA1"/>
<path d="M6.34133 11.6305L6.33956 11.6287V11.6305L0 7.94336V24.5354L6.33956 28.2207L12.6791 24.5354V24.5229L6.33956 28.2082V20.8625L12.6791 24.5229V7.94514L6.34133 11.6305Z" fill="#0078D4"/>
<path d="M19.3209 7.94492L25.6587 11.6303L32 7.94315L25.6587 4.25781L19.3209 7.94492Z" fill="#9CEBFF"/>
<path d="M19.3209 24.5227L25.6604 20.8623V28.2081L19.3209 24.5227Z" fill="#32BEDD"/>
<path d="M25.6587 11.618H25.6604V20.8499L19.3209 24.5228V7.93262L25.6587 11.618Z" fill="url(#paint0_linear_868_11821)"/>
<path d="M19.3209 7.94492L25.6587 11.6303L32 7.94315L25.6587 4.25781L19.3209 7.94492Z" fill="#9CEBFF"/>
<path d="M25.6587 11.6305L19.3209 7.94514V24.5229L25.6604 20.8625V28.2082L19.3209 24.5229V24.5354L25.6604 28.2207L32 24.5354V7.94336L25.6587 11.6305Z" fill="#50E6FF"/>
<path d="M19.3209 24.5227L25.6604 20.8623V28.2081L19.3209 24.5227Z" fill="#32BEDD"/>
<path d="M25.6587 11.618H25.6604V20.8499L19.3209 24.5228V7.93262L25.6587 11.618Z" fill="url(#paint1_linear_868_11821)"/>
<path d="M6.34135 11.6289H6.33957V20.8609L12.6791 24.5355V7.94531L6.34135 11.6289Z" fill="url(#paint2_linear_868_11821)"/>
<path d="M25.6409 18.0017C24.5315 20.7679 20.1902 22.5955 16.1333 22.5955H15.9893H15.8471C11.7902 22.5955 7.44888 20.7679 6.33955 18.0017C6.33955 18.0017 6.2951 15.2266 6.33955 14.9564C7.14666 18.0444 11.3778 20.3288 15.7493 20.3288H15.9893H16.2311C20.5955 20.3288 24.8338 18.0444 25.6409 14.9564C25.6853 15.2266 25.6409 18.0017 25.6409 18.0017ZM23.8222 10.5635C21.6749 12.2956 18.9896 13.2225 16.2311 13.1839H15.9893H15.7493C12.9936 13.2228 10.3106 12.2985 8.16355 10.5706L6.64177 11.4595C8.09421 13.8826 12.0889 15.4488 15.8471 15.4488H16.1333C19.8933 15.4488 23.8951 13.879 25.344 11.447L23.8222 10.5635Z" fill="url(#paint3_linear_868_11821)"/>
<defs>
<linearGradient id="paint0_linear_868_11821" x1="25.6604" y1="16.2277" x2="19.3209" y2="16.2277" gradientUnits="userSpaceOnUse">
<stop stop-color="#32BEDD"/>
<stop offset="0.998" stop-color="#9CEBFF" stop-opacity="0.5"/>
</linearGradient>
<linearGradient id="paint1_linear_868_11821" x1="25.6604" y1="16.2277" x2="19.3209" y2="16.2277" gradientUnits="userSpaceOnUse">
<stop stop-color="#32BEDD"/>
<stop offset="0.998" stop-color="#9CEBFF" stop-opacity="0.5"/>
</linearGradient>
<linearGradient id="paint2_linear_868_11821" x1="6.34135" y1="16.2404" x2="12.6809" y2="16.2404" gradientUnits="userSpaceOnUse">
<stop stop-color="#005BA1"/>
<stop offset="0.998" stop-color="#005BA1" stop-opacity="0"/>
</linearGradient>
<linearGradient id="paint3_linear_868_11821" x1="6.31999" y1="16.5795" x2="25.6604" y2="16.5795" gradientUnits="userSpaceOnUse">
<stop stop-color="#005BA1"/>
<stop offset="0.974" stop-color="#32BEDD"/>
</linearGradient>
</defs>
</svg>
