<svg width="32" height="32" viewBox="0 0 32 32" fill="none" xmlns="http://www.w3.org/2000/svg">
<path d="M26.9511 24.0174C27.4906 23.9634 28.0354 24.0288 28.5468 24.2088C29.0582 24.3888 29.5238 24.6791 29.9106 25.059C30.2974 25.439 30.5958 25.8994 30.7849 26.4076C30.9739 26.9157 31.0489 27.4592 31.0045 27.9996C30.9335 28.5949 30.7045 29.1605 30.3413 29.6375C29.978 30.1145 29.4938 30.4856 28.9387 30.7123C28.3837 30.939 27.7781 31.0131 27.1848 30.9269C26.5914 30.8406 26.032 30.5972 25.5645 30.2218C25.4182 30.1087 25.3003 29.963 25.22 29.7964C25.1398 29.6298 25.0995 29.4467 25.1022 29.2618V23.9996L26.9511 24.0174Z" fill="#198AB3"/>
<path d="M31.0933 24.0004V8.0004C31.084 6.92685 30.6509 5.90045 29.8884 5.14465C29.126 4.38884 28.0958 3.9648 27.0222 3.96484H0.906677V19.9648C0.906677 21.0446 1.3356 22.0801 2.09908 22.8436C2.86256 23.607 3.89806 24.036 4.97779 24.036H9.29779H22.6133C24.3896 23.9323 26.1704 23.9323 27.9467 24.036C31.5022 24.6048 30.8622 28.4271 30.8622 28.4271C31.1048 26.9648 31.1824 25.48 31.0933 24.0004Z" fill="url(#paint0_linear_868_11833)"/>
<path d="M0.888911 20.3022V20.1778C0.981818 19.5519 1.25423 18.9665 1.67313 18.4923C2.09204 18.0182 2.63946 17.6757 3.24907 17.5063C3.85868 17.337 4.50432 17.3481 5.10776 17.5383C5.71119 17.7284 6.24653 18.0895 6.64891 18.5778C6.70396 18.6382 6.77587 18.6808 6.85535 18.7C6.93484 18.7191 7.01824 18.714 7.0948 18.6853C7.17135 18.6566 7.23754 18.6056 7.28482 18.5389C7.3321 18.4722 7.35829 18.3929 7.36002 18.3111V4.40889C7.3784 4.23753 7.3784 4.0647 7.36002 3.89333C7.22193 3.13587 6.82245 2.45087 6.23121 1.95767C5.63996 1.46447 4.89441 1.19434 4.12447 1.19434C3.35452 1.19434 2.60897 1.46447 2.01773 1.95767C1.42648 2.45087 1.02701 3.13587 0.888911 3.89333C0.861655 4.06411 0.861655 4.23812 0.888911 4.40889V20.3022Z" fill="#198AB3"/>
<path d="M21.9378 15.0756C21.9378 14.9436 21.8853 14.817 21.792 14.7236C21.6986 14.6303 21.572 14.5778 21.44 14.5778H19.6622C19.5556 14.329 19.4667 14.0623 19.36 13.8134C18.9689 12.8001 18.5422 11.7867 18.1333 10.7912L17.9911 10.4534C18.5679 10.3022 19.0699 9.94599 19.4033 9.4515C19.7366 8.957 19.8783 8.35804 19.8021 7.7666C19.7258 7.17516 19.4368 6.63174 18.989 6.23795C18.5411 5.84416 17.9652 5.62695 17.3689 5.62695C16.7726 5.62695 16.1966 5.84416 15.7488 6.23795C15.301 6.63174 15.0119 7.17516 14.9357 7.7666C14.8594 8.35804 15.0012 8.957 15.3345 9.4515C15.6678 9.94599 16.1698 10.3022 16.7467 10.4534L16.5867 10.809C16.1422 11.8045 15.7156 12.8178 15.2889 13.8312L14.9689 14.6134H13.1911C13.0591 14.6134 12.9325 14.6658 12.8391 14.7592C12.7458 14.8526 12.6933 14.9792 12.6933 15.1112C12.6908 15.1772 12.702 15.2431 12.7261 15.3046C12.7503 15.3661 12.7869 15.422 12.8336 15.4687C12.8803 15.5154 12.9362 15.552 12.9977 15.5762C13.0592 15.6003 13.1251 15.6115 13.1911 15.609H14.6133C14.4356 16.0356 14.2756 16.4623 14.1156 16.889C13.7244 17.9201 13.3511 18.9512 12.9956 20.0001C12.9508 20.0991 12.9471 20.2118 12.9855 20.3135C13.0238 20.4152 13.101 20.4975 13.2 20.5423C13.299 20.5871 13.4118 20.5907 13.5135 20.5524C13.6151 20.514 13.6974 20.4369 13.7422 20.3378C14.2933 19.3778 14.8089 18.4001 15.3067 17.4401C15.6267 16.8356 15.9289 16.2312 16.2311 15.6623H18.4711L19.3244 17.4401C19.8222 18.4178 20.32 19.3956 20.8356 20.3556C20.8854 20.4427 20.9655 20.5083 21.0606 20.5402C21.1557 20.572 21.2592 20.5677 21.3514 20.5282C21.4436 20.4887 21.5181 20.4167 21.5606 20.3259C21.6032 20.235 21.6109 20.1317 21.5822 20.0356C21.2622 18.9867 20.9067 17.9556 20.5511 16.9245L20.0711 15.6267H21.3867C21.4618 15.639 21.5388 15.6332 21.6113 15.6099C21.6838 15.5865 21.7496 15.5463 21.8035 15.4924C21.8573 15.4386 21.8976 15.3727 21.9209 15.3002C21.9443 15.2278 21.9501 15.1508 21.9378 15.0756ZM16 8.07118C16 7.68927 16.1517 7.323 16.4218 7.05295C16.6918 6.78289 17.0581 6.63118 17.44 6.63118C17.8219 6.63118 18.1882 6.78289 18.4582 7.05295C18.7283 7.323 18.88 7.68927 18.88 8.07118C18.88 8.45309 18.7283 8.81936 18.4582 9.08942C18.1882 9.35947 17.8219 9.51118 17.44 9.51118C17.0581 9.51118 16.6918 9.35947 16.4218 9.08942C16.1517 8.81936 16 8.45309 16 8.07118ZM16.7644 14.5778V14.4534L17.3511 13.1734L17.92 14.4356V14.5778H16.7644Z" fill="white"/>
<defs>
<linearGradient id="paint0_linear_868_11833" x1="16" y1="27.716" x2="16" y2="6.52484" gradientUnits="userSpaceOnUse">
<stop stop-color="#198AB3"/>
<stop offset="0.11" stop-color="#22A5CB"/>
<stop offset="0.23" stop-color="#29BADE"/>
<stop offset="0.37" stop-color="#2EC9EB"/>
<stop offset="0.53" stop-color="#31D1F3"/>
<stop offset="0.78" stop-color="#32D4F5"/>
</linearGradient>
</defs>
</svg>
