<svg width="32" height="32" viewBox="0 0 32 32" fill="none" xmlns="http://www.w3.org/2000/svg">
<path d="M17.7778 1.12012H4.85336C4.58461 1.12012 4.32686 1.22688 4.13683 1.41692C3.94679 1.60695 3.84003 1.8647 3.84003 2.13345V29.8668C3.84003 30.1355 3.94679 30.3933 4.13683 30.5833C4.32686 30.7734 4.58461 30.8801 4.85336 30.8801H27.1467C27.4154 30.8801 27.6732 30.7734 27.8632 30.5833C28.0533 30.3933 28.16 30.1355 28.16 29.8668V11.5201C28.1601 11.2497 28.0539 10.9901 27.8643 10.7972C27.6748 10.6044 27.4171 10.4937 27.1467 10.489H19.7511C19.6174 10.4914 19.4846 10.4669 19.3605 10.4168C19.2365 10.3667 19.1238 10.2922 19.0292 10.1976C18.9347 10.103 18.8601 9.99032 18.81 9.86629C18.76 9.74226 18.7354 9.60941 18.7378 9.47567V2.13345C18.7382 1.87369 18.6388 1.62371 18.4601 1.43513C18.2815 1.24656 18.0372 1.13379 17.7778 1.12012Z" fill="white"/>
<path d="M17.2445 2.41756V9.38645C17.2491 10.0623 17.5209 10.7089 18.0005 11.1852C18.4801 11.6614 19.1286 11.9287 19.8045 11.9287H26.8267V29.582H5.17334V2.41756H17.2445ZM17.7778 0.888672H4.69334C4.41988 0.888672 4.15761 0.997306 3.96424 1.19068C3.77087 1.38405 3.66223 1.64632 3.66223 1.91978V30.0798C3.66223 30.3532 3.77087 30.6155 3.96424 30.8089C4.15761 31.0023 4.41988 31.1109 4.69334 31.1109H27.3067C27.5801 31.1109 27.8424 31.0023 28.0358 30.8089C28.2292 30.6155 28.3378 30.3532 28.3378 30.0798V11.4487C28.3378 11.1752 28.2292 10.9129 28.0358 10.7196C27.8424 10.5262 27.5801 10.4176 27.3067 10.4176H19.8045C19.531 10.4176 19.2687 10.3089 19.0753 10.1156C18.882 9.92218 18.7733 9.65992 18.7733 9.38645V1.91978C18.7735 1.65237 18.6698 1.39535 18.484 1.20297C18.2983 1.01059 18.045 0.897893 17.7778 0.888672Z" fill="url(#paint0_linear_868_11831)"/>
<path d="M27.9467 10.6668L18.4178 1.12012V8.88901C18.4178 9.3605 18.6051 9.81269 18.9385 10.1461C19.2719 10.4795 19.7241 10.6668 20.1956 10.6668H27.9467Z" fill="#0078D4"/>
<path d="M18.5067 19.875C17.7882 20.5111 16.8618 20.8623 15.9022 20.8623C14.9426 20.8623 14.0162 20.5111 13.2978 19.875L12.9778 26.3283C12.9701 26.4344 12.9955 26.5403 13.0504 26.6314C13.1053 26.7225 13.187 26.7943 13.2844 26.8372C13.3817 26.88 13.4899 26.8917 13.5942 26.8706C13.6984 26.8495 13.7936 26.7967 13.8667 26.7194L15.8578 24.675L17.8844 26.6661C17.9586 26.7368 18.0521 26.7839 18.1531 26.8012C18.2541 26.8185 18.358 26.8054 18.4515 26.7634C18.545 26.7214 18.6238 26.6526 18.678 26.5656C18.7321 26.4786 18.7591 26.3774 18.7555 26.275L18.5067 19.875Z" fill="#B31B1B"/>
<path d="M15.9645 21.2091C18.5271 21.2091 20.6045 19.1238 20.6045 16.5513C20.6045 13.9789 18.5271 11.8936 15.9645 11.8936C13.4019 11.8936 11.3245 13.9789 11.3245 16.5513C11.3245 19.1238 13.4019 21.2091 15.9645 21.2091Z" fill="#E62323"/>
<path d="M15.9645 20.0883C17.9085 20.0883 19.4845 18.5043 19.4845 16.5505C19.4845 14.5966 17.9085 13.0127 15.9645 13.0127C14.0204 13.0127 12.4445 14.5966 12.4445 16.5505C12.4445 18.5043 14.0204 20.0883 15.9645 20.0883Z" fill="#FFD400"/>
<defs>
<linearGradient id="paint0_linear_868_11831" x1="16" y1="31.1109" x2="16" y2="0.888672" gradientUnits="userSpaceOnUse">
<stop stop-color="#0078D4"/>
<stop offset="0.82" stop-color="#5EA0EF"/>
</linearGradient>
</defs>
</svg>
