<svg width="32" height="32" viewBox="0 0 32 32" fill="none" xmlns="http://www.w3.org/2000/svg">
<g clip-path="url(#clip0_868_11837)">
<path d="M17.7778 18.2049C17.7945 18.4651 17.7538 18.7258 17.6586 18.9685C17.5634 19.2112 17.4159 19.43 17.2267 19.6093C16.7867 19.9978 16.2302 20.2292 15.6444 20.2671V21.3338H14.8622V20.2316C14.1796 20.2272 13.5083 20.0563 12.9067 19.7338V18.2938C13.178 18.4873 13.4779 18.6373 13.7956 18.7382C14.1394 18.865 14.4977 18.9486 14.8622 18.9871V17.1382C14.2603 16.9467 13.708 16.625 13.2444 16.196C12.9152 15.8062 12.7435 15.3074 12.7633 14.7975C12.783 14.2877 12.9927 13.8036 13.3511 13.4404C13.7638 13.0506 14.2966 12.8125 14.8622 12.7649V11.7871H15.6267V12.7471C16.1911 12.7468 16.7489 12.868 17.2622 13.1027V14.5249C16.7629 14.2259 16.2051 14.0379 15.6267 13.9738V16.0004C16.2385 16.1902 16.7982 16.5188 17.2622 16.9604C17.5907 17.2916 17.7758 17.7385 17.7778 18.2049ZM14.8622 15.6627V14.0093C14.6799 14.0274 14.5116 14.1151 14.3923 14.2542C14.2731 14.3933 14.2122 14.5731 14.2222 14.756C14.2222 15.1293 14.4533 15.4316 14.9333 15.6627H14.8622ZM16.3733 18.276C16.3733 17.9382 16.1244 17.6716 15.6267 17.4404V19.0404C16.1244 18.9516 16.3733 18.7027 16.3733 18.276Z" fill="#258277"/>
<path d="M29.4045 16.8713H23.0045C23.0032 17.9792 22.7683 19.0744 22.3149 20.0854C21.8615 21.0963 21.1999 22.0002 20.3734 22.738L24.6222 27.5202C26.1296 26.1825 27.3354 24.5398 28.1599 22.7009C28.9844 20.862 29.4086 18.8688 29.4045 16.8535" fill="#FFCA00"/>
<path d="M15.1467 24.765C13.0579 24.765 11.0548 23.9352 9.5778 22.4583C8.10085 20.9813 7.27111 18.9781 7.27111 16.8894C7.27111 14.8007 8.10085 12.7975 9.5778 11.3206C11.0548 9.8436 13.0579 9.01386 15.1467 9.01386V2.64941C11.3747 2.64941 7.75721 4.14782 5.09003 6.81501C2.42285 9.48219 0.924438 13.0997 0.924438 16.8716C0.924438 20.6436 2.42285 24.2611 5.09003 26.9283C7.75721 29.5955 11.3747 31.0939 15.1467 31.0939C18.6404 31.115 22.0197 29.8493 24.64 27.5383L20.3733 22.7561C18.9405 24.0506 17.0777 24.7666 15.1467 24.765Z" fill="url(#paint0_radial_868_11837)"/>
<path d="M14.4889 0.853525V8.24908C15.7027 8.22981 16.908 8.45497 18.033 8.91116C19.158 9.36736 20.1797 10.0452 21.0373 10.9045C21.8948 11.7637 22.5708 12.7867 23.0248 13.9126C23.4788 15.0385 23.7016 16.2442 23.68 17.458H31.1111C31.1111 15.2759 30.681 13.1153 29.8455 11.0996C29.0099 9.08391 27.7852 7.25266 26.2415 5.71057C24.6978 4.16847 22.8652 2.94576 20.8486 2.11236C18.832 1.27895 16.6709 0.851189 14.4889 0.853525Z" fill="#CCCCCC"/>
<path d="M23.7156 17.4579C23.7393 15.0452 22.806 12.7214 21.1199 10.9954C19.4339 9.26937 17.1326 8.28183 14.72 8.24902H14.4889L15.0756 9.35125C17.0385 9.46637 18.8902 10.3004 20.2773 11.694C21.6644 13.0877 22.4897 14.9434 22.5956 16.9068L23.7156 17.4579Z" fill="#999999"/>
</g>
<defs>
<radialGradient id="paint0_radial_868_11837" cx="0" cy="0" r="1" gradientUnits="userSpaceOnUse" gradientTransform="translate(12.7644 16.8894) scale(13.12)">
<stop stop-color="#76BC2D"/>
<stop offset="0.41" stop-color="#74B92C"/>
<stop offset="0.66" stop-color="#6FB12A"/>
<stop offset="0.88" stop-color="#66A227"/>
<stop offset="1" stop-color="#5E9624"/>
</radialGradient>
<clipPath id="clip0_868_11837">
<rect width="32" height="32" fill="white"/>
</clipPath>
</defs>
</svg>
