<svg width="32" height="32" viewBox="0 0 32 32" fill="none" xmlns="http://www.w3.org/2000/svg">
<path d="M24.7111 29.9554C25.017 29.9578 25.3203 29.8999 25.6037 29.785C25.8872 29.6701 26.1452 29.5005 26.3631 29.2859C26.581 29.0713 26.7545 28.8159 26.8737 28.5342C26.9929 28.2525 27.0555 27.9502 27.0578 27.6443C27.0578 27.5554 27.0578 27.4488 27.0578 27.3599C26.1333 20.0532 21.9733 14.0977 14.0089 14.0977C6.04446 14.0977 1.77779 19.1288 0.90668 27.3777C0.841896 27.9951 1.02441 28.613 1.41426 29.0962C1.8041 29.5793 2.36951 29.8883 2.98668 29.9554H24.7111Z" fill="url(#paint0_linear_868_11825)"/>
<path d="M13.9911 15.8225C12.5863 15.8246 11.2104 15.4235 10.0267 14.667L13.9556 24.8892L17.7778 14.7203C16.6447 15.4374 15.332 15.8195 13.9911 15.8225Z" fill="white"/>
<path d="M13.9911 15.8397C18.0461 15.8397 21.3333 12.5525 21.3333 8.4975C21.3333 4.4425 18.0461 1.15527 13.9911 1.15527C9.93609 1.15527 6.64886 4.4425 6.64886 8.4975C6.64886 12.5525 9.93609 15.8397 13.9911 15.8397Z" fill="url(#paint1_linear_868_11825)"/>
<path d="M30.1155 23.4668H17.1378C16.5879 23.4668 16.1422 23.9125 16.1422 24.4624V29.849C16.1422 30.3989 16.5879 30.8446 17.1378 30.8446H30.1155C30.6654 30.8446 31.1111 30.3989 31.1111 29.849V24.4624C31.1111 23.9125 30.6654 23.4668 30.1155 23.4668Z" fill="#50E6FF"/>
<path d="M23.6267 23.4668H17.1378C16.8737 23.4668 16.6205 23.5717 16.4338 23.7584C16.2471 23.9451 16.1422 24.1983 16.1422 24.4624V29.7957C16.1422 30.0597 16.2471 30.3129 16.4338 30.4996C16.6205 30.6864 16.8737 30.7912 17.1378 30.7912H23.6267V23.4668Z" fill="#32BEDD"/>
<path d="M22.5422 25.5289L22.3822 25.3511C22.3333 25.3074 22.27 25.2832 22.2044 25.2832C22.1389 25.2832 22.0756 25.3074 22.0267 25.3511L18.8978 28.4444L17.7778 27.3244C17.7245 27.2826 17.6588 27.2599 17.5911 27.2599C17.5234 27.2599 17.4577 27.2826 17.4044 27.3244L17.2444 27.5022C17.2183 27.5239 17.1973 27.5511 17.1829 27.5818C17.1685 27.6125 17.161 27.6461 17.161 27.68C17.161 27.7139 17.1685 27.7475 17.1829 27.7782C17.1973 27.8089 17.2183 27.8361 17.2444 27.8578L18.7378 29.3689H18.8267C18.8699 29.3939 18.919 29.407 18.9689 29.407C19.0188 29.407 19.0679 29.3939 19.1111 29.3689L22.5778 25.8133C22.6047 25.7688 22.6159 25.7165 22.6094 25.6649C22.603 25.6133 22.5793 25.5654 22.5422 25.5289Z" fill="white"/>
<path d="M29.3511 28.836L27.8578 27.3604L29.3334 25.8849C29.3758 25.8389 29.3994 25.7786 29.3994 25.716C29.3994 25.6534 29.3758 25.5931 29.3334 25.5471L29.1378 25.3516C29.1179 25.3257 29.0923 25.3048 29.063 25.2904C29.0337 25.276 29.0015 25.2686 28.9689 25.2686C28.9363 25.2686 28.9041 25.276 28.8748 25.2904C28.8455 25.3048 28.82 25.3257 28.8 25.3516L27.3245 26.8271L25.8667 25.3693C25.8433 25.3428 25.8146 25.3216 25.7824 25.3071C25.7502 25.2926 25.7153 25.2851 25.68 25.2851C25.6447 25.2851 25.6098 25.2926 25.5776 25.3071C25.5454 25.3216 25.5167 25.3428 25.4934 25.3693L25.3156 25.5293C25.2731 25.5753 25.2495 25.6356 25.2495 25.6982C25.2495 25.7608 25.2731 25.8211 25.3156 25.8671L26.7911 27.3604L25.3334 28.8182C25.2833 28.871 25.2555 28.941 25.2555 29.0138C25.2555 29.0865 25.2833 29.1565 25.3334 29.2093L25.5111 29.3693C25.5292 29.395 25.5531 29.416 25.581 29.4304C25.6088 29.4449 25.6398 29.4525 25.6711 29.4525C25.7025 29.4525 25.7334 29.4449 25.7613 29.4304C25.7891 29.416 25.8131 29.395 25.8311 29.3693L27.3245 27.8938L28.8178 29.3693C28.8638 29.4118 28.9241 29.4354 28.9867 29.4354C29.0493 29.4354 29.1096 29.4118 29.1556 29.3693L29.3511 29.1738C29.3936 29.1278 29.4172 29.0675 29.4172 29.0049C29.4172 28.9423 29.3936 28.882 29.3511 28.836Z" fill="#F2F2F2"/>
<defs>
<linearGradient id="paint0_linear_868_11825" x1="13.9733" y1="31.8932" x2="13.9733" y2="10.1688" gradientUnits="userSpaceOnUse">
<stop stop-color="#773ADC"/>
<stop offset="1" stop-color="#B77AF4"/>
</linearGradient>
<linearGradient id="paint1_linear_868_11825" x1="13.9911" y1="16.4975" x2="13.9911" y2="-3.28917" gradientUnits="userSpaceOnUse">
<stop stop-color="#773ADC"/>
<stop offset="1" stop-color="#B77AF4"/>
</linearGradient>
</defs>
</svg>
