<svg width="32" height="32" viewBox="0 0 32 32" fill="none" xmlns="http://www.w3.org/2000/svg">
<path d="M27.0222 0.889076H6.38223C6.23376 0.887414 6.08674 0.9184 5.95157 0.979841C5.8164 1.04128 5.69638 1.13168 5.60001 1.24463L3.43112 3.7513L27.2178 27.858L23.6622 31.1113H25.44C25.7398 31.1109 26.0297 31.0037 26.2578 30.8091L28.3378 28.9069C28.4435 28.8094 28.528 28.6912 28.5861 28.5597C28.6442 28.4282 28.6747 28.2862 28.6756 28.1424V2.36463C28.6831 2.1532 28.644 1.9427 28.561 1.74809C28.478 1.55349 28.3532 1.37956 28.1953 1.23869C28.0375 1.09782 27.8505 0.993458 27.6478 0.933031C27.445 0.872604 27.2314 0.857597 27.0222 0.889076Z" fill="#5E9624"/>
<path d="M5.17334 3.73326L6.4889 2.23992C6.56557 2.14726 6.66024 2.07113 6.7672 2.01612C6.87415 1.96112 6.99115 1.92839 7.11112 1.91992H26.4533C26.6985 1.91992 26.9337 2.01732 27.107 2.19069C27.2804 2.36405 27.3778 2.59919 27.3778 2.84437V27.3421C27.3767 27.4695 27.3492 27.5952 27.2972 27.7115C27.2452 27.8277 27.1698 27.932 27.0756 28.0177L25.0311 29.9021" fill="white"/>
<path d="M24.8889 3.71582H3.55554C3.53043 3.72006 3.50767 3.73315 3.49137 3.75271C3.47506 3.77227 3.4663 3.79702 3.46665 3.82249V30.4892C3.46665 30.6683 3.53783 30.8402 3.66452 30.9668C3.79121 31.0935 3.96304 31.1647 4.14221 31.1647H24.8889C25.068 31.1647 25.2399 31.0935 25.3666 30.9668C25.4933 30.8402 25.5644 30.6683 25.5644 30.4892V4.40915C25.5668 4.31895 25.5511 4.22919 25.5182 4.14517C25.4853 4.06114 25.4359 3.98456 25.373 3.91993C25.31 3.8553 25.2347 3.80395 25.1516 3.76889C25.0684 3.73383 24.9791 3.71579 24.8889 3.71582Z" fill="url(#paint0_linear_868_11839)"/>
<path d="M22.2222 13.9024C22.2271 13.8131 22.2136 13.7237 22.1827 13.6397C22.1519 13.5558 22.1042 13.479 22.0426 13.4141C21.981 13.3492 21.9069 13.2976 21.8247 13.2623C21.7424 13.227 21.6539 13.2089 21.5644 13.2091H18.2756C18.2204 13.207 18.1658 13.221 18.1184 13.2494C18.0711 13.2778 18.033 13.3194 18.0089 13.3691L16.64 15.8224L14.4 11.2891L12.32 17.778L10.5422 13.1557L8.19556 17.4935C8.17067 17.544 8.1329 17.587 8.08609 17.6182C8.03927 17.6494 7.98505 17.6677 7.92889 17.6713H6.86223C6.69942 17.6703 6.54205 17.7298 6.42055 17.8382C6.29904 17.9465 6.22205 18.0961 6.20445 18.258C6.19442 18.3501 6.204 18.4434 6.23253 18.5316C6.26107 18.6198 6.30793 18.7009 6.37004 18.7698C6.43215 18.8386 6.50811 18.8935 6.59293 18.9309C6.67775 18.9683 6.76952 18.9874 6.86223 18.9868H8.64C8.69922 18.9864 8.75717 18.9696 8.80739 18.9382C8.85761 18.9068 8.89813 18.8621 8.92445 18.8091L10.3111 16.1957L12.4622 21.5291L14.6489 14.6668L16.5689 18.5602L18.72 14.7024C18.7441 14.6527 18.7822 14.6111 18.8295 14.5827C18.8769 14.5543 18.9315 14.5403 18.9867 14.5424H21.5644C21.7359 14.5425 21.9005 14.4756 22.0234 14.3561C22.1463 14.2365 22.2176 14.0738 22.2222 13.9024Z" fill="white"/>
<defs>
<linearGradient id="paint0_linear_868_11839" x1="14.4889" y1="31.0936" x2="14.4889" y2="3.71582" gradientUnits="userSpaceOnUse">
<stop stop-color="#5E9624"/>
<stop offset="0.31" stop-color="#69A828"/>
<stop offset="0.93" stop-color="#86D633"/>
</linearGradient>
</defs>
</svg>
