<svg width="32" height="32" viewBox="0 0 32 32" fill="none" xmlns="http://www.w3.org/2000/svg">
<path d="M25.6889 15.6445H6.54224V24.2668C6.54224 26.5068 10.8267 28.3379 16.2133 28.3379C21.6 28.3379 25.8845 26.5601 25.8845 24.2668L25.6889 15.6445Z" fill="#773ADC"/>
<path d="M14.9156 3.84033L0.693333 11.1114C0.420473 11.2811 0.222584 11.5484 0.140001 11.8589C0.0574191 12.1694 0.0963606 12.4998 0.248888 12.7826C0.342043 12.9904 0.497309 13.1643 0.693333 13.2803L14.9156 19.467C15.1207 19.5545 15.3414 19.5997 15.5644 19.5997C15.7875 19.5997 16.0082 19.5545 16.2133 19.467L31.2889 13.2448C31.5677 13.0807 31.774 12.8171 31.8663 12.5071C31.9587 12.1971 31.9302 11.8636 31.7867 11.5737C31.6849 11.3453 31.5097 11.1576 31.2889 11.0403L16.2489 3.80478C16.0384 3.70958 15.8091 3.66333 15.5781 3.66949C15.3472 3.67565 15.1207 3.73406 14.9156 3.84033Z" fill="url(#paint0_linear_868_11827)"/>
<path d="M28.16 18.1337C28.0959 17.7984 27.9561 17.4822 27.7511 17.2092C26.7395 15.4269 25.1633 14.032 23.2711 13.2448L17.0844 10.667L15.1111 12.0714L21.3333 14.7203C23.5 15.606 25.2351 17.3028 26.1689 19.4492C26.4422 20.4239 26.6091 21.4253 26.6667 22.4359M26.9511 22.4359L27.6978 20.9603L28.64 22.1692H28.8178C28.9095 20.7898 28.6782 19.408 28.1422 18.1337L26.9511 22.4359Z" fill="#50E6FF"/>
<path d="M15.8933 12.6941C17.209 12.6941 18.2756 12.1529 18.2756 11.4853C18.2756 10.8176 17.209 10.2764 15.8933 10.2764C14.5777 10.2764 13.5111 10.8176 13.5111 11.4853C13.5111 12.1529 14.5777 12.6941 15.8933 12.6941Z" fill="#552F99"/>
<defs>
<linearGradient id="paint0_linear_868_11827" x1="16" y1="-1.58189" x2="16" y2="22.9159" gradientUnits="userSpaceOnUse">
<stop offset="0.13" stop-color="#773ADC"/>
<stop offset="0.23" stop-color="#8249E2"/>
<stop offset="0.43" stop-color="#9664EC"/>
<stop offset="0.6" stop-color="#A274F2"/>
<stop offset="0.74" stop-color="#A67AF4"/>
</linearGradient>
</defs>
</svg>
