<svg width="32" height="32" viewBox="0 0 32 32" fill="none" xmlns="http://www.w3.org/2000/svg">
<g clip-path="url(#clip0_868_11824)">
<path d="M26.7983 30.9159C26.7821 31.2182 26.6471 31.5019 26.4227 31.7051C26.1982 31.9082 25.9025 32.0144 25.6 32.0003H7.22136C6.91863 32.0149 6.62246 31.9089 6.39759 31.7057C6.17273 31.5025 6.03746 31.2186 6.02136 30.9159V1.08479C6.03746 0.782132 6.17273 0.49816 6.39759 0.294949C6.62246 0.0917382 6.91863 -0.0141825 7.22136 0.000342222H25.6C25.9028 -0.0141825 26.1989 0.0917382 26.4238 0.294949C26.6487 0.49816 26.7839 0.782132 26.8 1.08479L26.7983 30.9159Z" fill="url(#paint0_linear_868_11824)"/>
<path d="M23.9307 13.6891C23.9597 13.0601 23.7385 12.4451 23.3154 11.9787C22.8923 11.5123 22.3018 11.2324 21.6729 11.2002H11.3334C10.7045 11.2324 10.114 11.5123 9.69087 11.9787C9.26779 12.4451 9.04657 13.0601 9.07559 13.6891C9.04657 14.3181 9.26779 14.9331 9.69087 15.3994C10.114 15.8658 10.7045 16.1457 11.3334 16.178H21.6729C22.3018 16.1457 22.8923 15.8658 23.3154 15.3994C23.7385 14.9331 23.9597 14.3181 23.9307 13.6891Z" fill="#552F99"/>
<path d="M23.9307 6.28869C23.9597 5.65966 23.7385 5.04473 23.3154 4.57833C22.8923 4.11194 22.3018 3.83203 21.6729 3.7998H11.3334C10.7045 3.83203 10.114 4.11194 9.69087 4.57833C9.26779 5.04473 9.04657 5.65966 9.07559 6.28869C9.04657 6.91773 9.26779 7.53266 9.69087 7.99905C10.114 8.46545 10.7045 8.74536 11.3334 8.77758H21.6729C22.3018 8.74536 22.8923 8.46545 23.3154 7.99905C23.7385 7.53266 23.9597 6.91773 23.9307 6.28869Z" fill="#552F99"/>
<path d="M21.024 7.95781C21.946 7.95781 22.6933 7.21042 22.6933 6.28847C22.6933 5.36653 21.946 4.61914 21.024 4.61914C20.1021 4.61914 19.3547 5.36653 19.3547 6.28847C19.3547 7.21042 20.1021 7.95781 21.024 7.95781Z" fill="#50E6FF"/>
<path d="M21.024 15.3494C21.946 15.3494 22.6933 14.602 22.6933 13.6801C22.6933 12.7581 21.946 12.0107 21.024 12.0107C20.1021 12.0107 19.3547 12.7581 19.3547 13.6801C19.3547 14.602 20.1021 15.3494 21.024 15.3494Z" fill="#50E6FF"/>
</g>
<defs>
<linearGradient id="paint0_linear_868_11824" x1="16.4089" y1="0.000342222" x2="16.4089" y2="32.0003" gradientUnits="userSpaceOnUse">
<stop stop-color="#A67AF4"/>
<stop offset="0.999" stop-color="#773ADC"/>
</linearGradient>
<clipPath id="clip0_868_11824">
<rect width="32" height="32" fill="white"/>
</clipPath>
</defs>
</svg>
