<svg width="32" height="32" viewBox="0 0 32 32" fill="none" xmlns="http://www.w3.org/2000/svg">
<path d="M16.7467 20.7289L21.0134 18.3644C21.0213 18.3478 21.0254 18.3296 21.0254 18.3111C21.0254 18.2927 21.0213 18.2744 21.0134 18.2578V13.5111C21.0213 13.4944 21.0254 13.4762 21.0254 13.4578C21.0254 13.4393 21.0213 13.4211 21.0134 13.4044H20.8889L16.6756 15.7689C16.6678 15.7824 16.6637 15.7977 16.6637 15.8133C16.6637 15.8289 16.6678 15.8443 16.6756 15.8578V20.6044C16.6677 20.6211 16.6636 20.6393 16.6636 20.6578C16.6636 20.6762 16.6677 20.6944 16.6756 20.7111M16.6756 26.6489L20.9422 24.2844C20.9501 24.2678 20.9543 24.2496 20.9543 24.2311C20.9543 24.2127 20.9501 24.1944 20.9422 24.1778V19.4489C20.9501 19.4322 20.9543 19.414 20.9543 19.3955C20.9543 19.3771 20.9501 19.3589 20.9422 19.3422C20.9226 19.3339 20.9014 19.3296 20.88 19.3296C20.8586 19.3296 20.8375 19.3339 20.8178 19.3422L16.5511 21.7067V26.4533C16.5432 26.47 16.5391 26.4882 16.5391 26.5067C16.5391 26.5251 16.5432 26.5433 16.5511 26.56M22.0622 17.6711L26.6667 15.3778C26.676 15.3616 26.681 15.3432 26.681 15.3244C26.681 15.3057 26.676 15.2873 26.6667 15.2711V10.5422C26.676 10.526 26.681 10.5076 26.681 10.4889C26.681 10.4702 26.676 10.4518 26.6667 10.4355H26.5245L22.2045 12.8V17.6355C22.1951 17.6518 22.1902 17.6702 22.1902 17.6889C22.1902 17.7076 22.1951 17.726 22.2045 17.7422M22.2045 23.68L26.6667 21.3333C26.676 21.3171 26.681 21.2987 26.681 21.28C26.681 21.2613 26.676 21.2429 26.6667 21.2267V16.48C26.676 16.4638 26.681 16.4454 26.681 16.4267C26.681 16.4079 26.676 16.3895 26.6667 16.3733C26.621 16.3555 26.5702 16.3555 26.5245 16.3733L22.2756 18.7378C22.2678 18.7513 22.2637 18.7666 22.2637 18.7822C22.2637 18.7978 22.2678 18.8131 22.2756 18.8267V23.5733C22.2662 23.5895 22.2613 23.6079 22.2613 23.6267C22.2613 23.6454 22.2662 23.6638 22.2756 23.68" fill="#198AB3"/>
<path d="M15.2355 20.7287L10.9155 18.3465C10.904 18.3311 10.8978 18.3124 10.8978 18.2932C10.8978 18.274 10.904 18.2552 10.9155 18.2399V13.511C10.9062 13.4947 10.9013 13.4764 10.9013 13.4576C10.9013 13.4389 10.9062 13.4205 10.9155 13.4043H11.04L15.3067 15.7687C15.316 15.785 15.3209 15.8034 15.3209 15.8221C15.3209 15.8408 15.316 15.8592 15.3067 15.8754V20.6043C15.3146 20.621 15.3187 20.6392 15.3187 20.6576C15.3187 20.6761 15.3146 20.6943 15.3067 20.711" fill="#32BEDD"/>
<path d="M15.2355 26.6671L10.9155 24.2849C10.904 24.2695 10.8978 24.2508 10.8978 24.2316C10.8978 24.2123 10.904 24.1936 10.9155 24.1782V19.4493C10.904 19.434 10.8978 19.4152 10.8978 19.396C10.8978 19.3768 10.904 19.3581 10.9155 19.3427C10.9352 19.3344 10.9564 19.3301 10.9778 19.3301C10.9991 19.3301 11.0203 19.3344 11.04 19.3427L15.3067 21.7071C15.316 21.7233 15.3209 21.7417 15.3209 21.7605C15.3209 21.7792 15.316 21.7976 15.3067 21.8138V26.5427C15.3146 26.5593 15.3187 26.5776 15.3187 26.596C15.3187 26.6145 15.3146 26.6327 15.3067 26.6493" fill="#32BEDD"/>
<path d="M9.70669 17.7778L5.33336 15.3778C5.32545 15.3611 5.32135 15.3429 5.32135 15.3244C5.32135 15.306 5.32545 15.2878 5.33336 15.2711V10.5422C5.31952 10.508 5.31952 10.4698 5.33336 10.4355H5.47558L9.7778 12.8C9.78571 12.8167 9.78981 12.8349 9.78981 12.8533C9.78981 12.8718 9.78571 12.89 9.7778 12.9067V17.6355C9.79164 17.6698 9.79164 17.708 9.7778 17.7422" fill="#32BEDD"/>
<path d="M9.70669 23.6982L5.33336 21.3337C5.32545 21.3171 5.32135 21.2989 5.32135 21.2804C5.32135 21.262 5.32545 21.2437 5.33336 21.2271V16.4804C5.32545 16.4637 5.32135 16.4455 5.32135 16.4271C5.32135 16.4086 5.32545 16.3904 5.33336 16.3737C5.37909 16.3559 5.42985 16.3559 5.47558 16.3737L9.7778 18.7382C9.78571 18.7549 9.78981 18.7731 9.78981 18.7915C9.78981 18.81 9.78571 18.8282 9.7778 18.8449V23.5737C9.79164 23.6079 9.79164 23.6462 9.7778 23.6804" fill="#32BEDD"/>
<path d="M11.4489 12.107L16 9.6714C16.0216 9.65892 16.0462 9.65234 16.0711 9.65234C16.0961 9.65234 16.1206 9.65892 16.1422 9.6714L20.4978 12.0536C20.5072 12.0698 20.5121 12.0882 20.5121 12.107C20.5121 12.1257 20.5072 12.1441 20.4978 12.1603C20.5057 12.177 20.5098 12.1952 20.5098 12.2136C20.5098 12.2321 20.5057 12.2503 20.4978 12.267L16 14.6492H15.8756L11.5022 12.2847C11.4873 12.2446 11.4873 12.2004 11.5022 12.1603" fill="#50E6FF"/>
<path d="M5.70667 8.97775L10.1156 6.52441H10.24L14.56 8.88886C14.5694 8.90507 14.5743 8.92347 14.5743 8.94219C14.5743 8.96092 14.5694 8.97931 14.56 8.99552C14.5679 9.01219 14.572 9.03041 14.572 9.04886C14.572 9.06731 14.5679 9.08552 14.56 9.10219L10.2044 11.52H10.0622L5.74222 9.13775C5.73286 9.12153 5.72793 9.10314 5.72793 9.08441C5.72793 9.06569 5.73286 9.0473 5.74222 9.03108" fill="#50E6FF"/>
<path d="M17.3333 9.03136L21.7422 6.57802C21.7619 6.56971 21.7831 6.56543 21.8044 6.56543C21.8258 6.56543 21.847 6.56971 21.8666 6.57802L26.1866 8.88914C26.2005 8.92334 26.2005 8.96159 26.1866 8.9958C26.1946 9.01247 26.1987 9.03069 26.1987 9.04914C26.1987 9.06758 26.1946 9.0858 26.1866 9.10247L21.8311 11.5736H21.6889L17.3689 9.19136C17.3595 9.17514 17.3546 9.15675 17.3546 9.13802C17.3546 9.1193 17.3595 9.10091 17.3689 9.08469" fill="#50E6FF"/>
<path d="M11.4667 5.93789L16 3.55566L20.4445 5.86678C20.4524 5.88344 20.4565 5.90166 20.4565 5.92011C20.4565 5.93856 20.4524 5.95677 20.4445 5.97344C20.456 5.98883 20.4622 6.00754 20.4622 6.02678C20.4622 6.04601 20.456 6.06472 20.4445 6.08011L16 8.44455H15.8933L11.52 6.09789C11.5091 6.06927 11.5091 6.03762 11.52 6.009" fill="#50E6FF"/>
<path d="M31.2356 7.96442C30.0622 6.02665 27.3244 5.2622 23.5022 5.83109H23.04L26.4356 7.60887C27.0172 7.5717 27.5993 7.6732 28.134 7.90501C28.6687 8.13682 29.1407 8.4923 29.5111 8.9422C30.2222 10.1333 29.6178 12.16 27.8578 14.5244C25.396 17.5696 22.3799 20.1212 18.9689 22.0444C15.68 24.1352 12.0242 25.5831 8.19556 26.3111C5.28 26.7555 3.2 26.3111 2.48889 25.1378C1.77778 23.9644 2.32889 22.1333 3.85778 19.9466V16.6933C3.37778 17.2444 2.96889 17.7778 2.52445 18.3644C0.231114 21.44 -0.408886 24.2133 0.746669 26.1689C1.36185 26.9802 2.1759 27.6192 3.11017 28.024C4.04443 28.4289 5.06732 28.5859 6.08 28.48C6.85961 28.478 7.63802 28.4186 8.40889 28.3022C12.5074 27.546 16.4273 26.0263 19.9644 23.8222C23.5847 21.7557 26.7816 19.0232 29.3867 15.7689C31.7689 12.6933 32.4089 9.91998 31.2356 7.96442Z" fill="url(#paint0_linear_868_11820)"/>
<defs>
<linearGradient id="paint0_linear_868_11820" x1="23.6622" y1="0.408867" x2="11.5733" y2="26.6666" gradientUnits="userSpaceOnUse">
<stop stop-color="#552F99"/>
<stop offset="0.07" stop-color="#643DAA"/>
<stop offset="0.2" stop-color="#7C53C5"/>
<stop offset="0.35" stop-color="#8F64DA"/>
<stop offset="0.51" stop-color="#9C71E9"/>
<stop offset="0.7" stop-color="#A478F1"/>
<stop offset="1" stop-color="#A67AF4"/>
</linearGradient>
</defs>
</svg>
