<svg width="32" height="32" viewBox="0 0 32 32" fill="none" xmlns="http://www.w3.org/2000/svg">
<path d="M30.9333 1.20898H1.06667C0.477563 1.20898 0 1.68655 0 2.27565V21.4757C0 22.0648 0.477563 22.5423 1.06667 22.5423H30.9333C31.5224 22.5423 32 22.0648 32 21.4757V2.27565C32 1.68655 31.5224 1.20898 30.9333 1.20898Z" fill="url(#paint0_linear_868_11819)"/>
<path d="M29.6355 2.98633H2.36444C2.04043 2.98633 1.77777 3.24899 1.77777 3.57299V20.1774C1.77777 20.5014 2.04043 20.7641 2.36444 20.7641H29.6355C29.9596 20.7641 30.2222 20.5014 30.2222 20.1774V3.57299C30.2222 3.24899 29.9596 2.98633 29.6355 2.98633Z" fill="white"/>
<path d="M22.4178 28.9953C19.2533 28.4975 19.1289 26.222 19.1467 22.542H12.8533C12.8533 26.222 12.7467 28.4975 9.58222 28.9953C9.15283 29.0612 8.75987 29.2749 8.47106 29.5994C8.18224 29.9239 8.01566 30.339 8 30.7731H24C23.9843 30.339 23.8178 29.9239 23.5289 29.5994C23.2401 29.2749 22.8472 29.0612 22.4178 28.9953Z" fill="url(#paint1_linear_868_11819)"/>
<path d="M15.259 16.1221L14.0648 17.3163C13.9681 17.413 13.837 17.4673 13.7003 17.4673C13.5635 17.4673 13.4324 17.413 13.3357 17.3163L8.60909 12.5897C8.5124 12.493 8.45808 12.3619 8.45808 12.2251C8.45808 12.0884 8.5124 11.9573 8.60909 11.8606L9.43876 11.0309C9.53544 10.9342 9.66658 10.8799 9.80331 10.8799C9.94005 10.8799 10.0712 10.9342 10.1679 11.0309L15.1962 16.0592L15.259 16.1221Z" fill="#86D633"/>
<path d="M13.352 17.3013L12.1578 16.1071L23.0064 5.25852C23.103 5.16184 23.2342 5.10752 23.3709 5.10752C23.5076 5.10752 23.6388 5.16184 23.7355 5.25852L24.5526 6.07563C24.6493 6.17231 24.7036 6.30344 24.7036 6.44018C24.7036 6.57691 24.6493 6.70805 24.5526 6.80473L14.0685 17.2888C13.9718 17.3855 13.8407 17.4398 13.704 17.4398C13.5672 17.4398 13.4361 17.3855 13.3394 17.2888L13.352 17.3013Z" fill="#5E9624"/>
<defs>
<linearGradient id="paint0_linear_868_11819" x1="16" y1="22.5423" x2="16" y2="1.20898" gradientUnits="userSpaceOnUse">
<stop stop-color="#0078D4"/>
<stop offset="0.82" stop-color="#5EA0EF"/>
</linearGradient>
<linearGradient id="paint1_linear_868_11819" x1="16" y1="30.7909" x2="16" y2="22.542" gradientUnits="userSpaceOnUse">
<stop stop-color="#1490DF"/>
<stop offset="0.98" stop-color="#1F56A3"/>
</linearGradient>
</defs>
</svg>
