<svg width="32" height="32" viewBox="0 0 32 32" fill="none" xmlns="http://www.w3.org/2000/svg">
<g clip-path="url(#clip0_868_11826)">
<path d="M16 31.0579C24.3456 31.0579 31.1111 24.3163 31.1111 16.0002C31.1111 7.68398 24.3456 0.942383 16 0.942383C7.65436 0.942383 0.888885 7.68398 0.888885 16.0002C0.888885 24.3163 7.65436 31.0579 16 31.0579Z" fill="url(#paint0_radial_868_11826)"/>
<path d="M16 29.1019C23.2656 29.1019 29.1556 23.2358 29.1556 15.9997C29.1556 8.76353 23.2656 2.89746 16 2.89746C8.73439 2.89746 2.84445 8.76353 2.84445 15.9997C2.84445 23.2358 8.73439 29.1019 16 29.1019Z" fill="white"/>
<path d="M4.83554 16.7822C5.01608 19.4665 6.16597 21.9937 8.0711 23.8933L11.6267 20.3378C10.6644 19.3766 10.0405 18.1287 9.84887 16.7822H4.83554Z" fill="#9CEBFF"/>
<path d="M23.3422 7.59109C21.512 5.99123 19.2076 5.03574 16.7822 4.87109V9.83109C17.8908 9.95823 18.9427 10.3889 19.8222 11.0755L23.3422 7.59109Z" fill="#32BEDD"/>
<path d="M8.65778 7.59109L12.2133 11.1466C13.0928 10.46 14.1448 10.0293 15.2533 9.9022V4.87109C12.8156 5.02809 10.4975 5.98406 8.65778 7.59109Z" fill="#32BEDD"/>
<path d="M20.9422 12.1778C21.6208 13.0638 22.056 14.1118 22.2045 15.2178H27.1645C27.0039 12.8021 26.0474 10.5077 24.4445 8.69336L20.9422 12.1778Z" fill="#32BEDD"/>
<path d="M11.0578 12.1776L7.50221 8.62207C5.90407 10.4625 4.96564 12.7836 4.83554 15.2176H9.79554C9.94404 14.1116 10.3792 13.0636 11.0578 12.1776Z" fill="#50E6FF"/>
<path d="M25.1378 12.4442C25.0587 12.2538 24.9091 12.1013 24.7203 12.0185C24.5315 11.9357 24.3181 11.929 24.1244 11.9998L16.8 14.9509L17.3689 16.3909L24.6933 13.4931C24.7934 13.4561 24.8848 13.399 24.962 13.3253C25.0392 13.2516 25.1005 13.1629 25.1421 13.0647C25.1838 12.9664 25.2048 12.8607 25.2041 12.754C25.2033 12.6473 25.1808 12.5419 25.1378 12.4442Z" fill="#F04049"/>
<path d="M16 18.1329C17.1782 18.1329 18.1333 17.1778 18.1333 15.9995C18.1333 14.8213 17.1782 13.8662 16 13.8662C14.8218 13.8662 13.8667 14.8213 13.8667 15.9995C13.8667 17.1778 14.8218 18.1329 16 18.1329Z" fill="url(#paint1_radial_868_11826)"/>
</g>
<defs>
<radialGradient id="paint0_radial_868_11826" cx="0" cy="0" r="1" gradientUnits="userSpaceOnUse" gradientTransform="translate(16.0128 16.0615) scale(15.1186 15.1186)">
<stop offset="0.18" stop-color="#5EA0EF"/>
<stop offset="0.56" stop-color="#5C9FEE"/>
<stop offset="0.69" stop-color="#559CED"/>
<stop offset="0.78" stop-color="#4A97E9"/>
<stop offset="0.86" stop-color="#3990E4"/>
<stop offset="0.93" stop-color="#2387DE"/>
<stop offset="0.99" stop-color="#087BD6"/>
<stop offset="1" stop-color="#0078D4"/>
</radialGradient>
<radialGradient id="paint1_radial_868_11826" cx="0" cy="0" r="1" gradientUnits="userSpaceOnUse" gradientTransform="translate(16.0018 12.7382) scale(4.56)">
<stop offset="0.19" stop-color="#8C8E90"/>
<stop offset="0.35" stop-color="#848688"/>
<stop offset="0.6" stop-color="#6E7071"/>
<stop offset="0.91" stop-color="#4A4B4C"/>
<stop offset="1" stop-color="#3E3F3F"/>
</radialGradient>
<clipPath id="clip0_868_11826">
<rect width="32" height="32" fill="white"/>
</clipPath>
</defs>
</svg>
