<svg width="32" height="32" viewBox="0 0 32 32" fill="none" xmlns="http://www.w3.org/2000/svg">
<g clip-path="url(#clip0_868_11828)">
<path d="M30.6133 24.7467C30.7992 24.7491 30.9838 24.7145 31.1562 24.6449C31.3287 24.5754 31.4856 24.4723 31.6179 24.3417C31.7502 24.211 31.8553 24.0554 31.9269 23.8839C31.9986 23.7123 32.0355 23.5282 32.0355 23.3423C32.0422 23.2635 32.03 23.1843 32 23.1111C31.4489 18.6667 28.9066 15.04 24.0711 15.04C19.2355 15.04 16.6222 18.1689 16.1244 23.1111C16.0896 23.4878 16.2043 23.863 16.4438 24.1557C16.6833 24.4484 17.0284 24.6352 17.4044 24.6756H30.6133V24.7467Z" fill="#0078D4"/>
<path opacity="0.8" d="M24.0889 16.1603C23.2303 16.1678 22.3889 15.9203 21.6711 15.4492L24.0711 21.707L26.4355 15.5026C25.7284 15.9327 24.9166 16.1603 24.0889 16.1603Z" fill="white"/>
<path d="M24.0889 16.1598C26.5533 16.1598 28.5511 14.162 28.5511 11.6976C28.5511 9.23316 26.5533 7.23535 24.0889 7.23535C21.6245 7.23535 19.6266 9.23316 19.6266 11.6976C19.6266 14.162 21.6245 16.1598 24.0889 16.1598Z" fill="#0078D4"/>
<path d="M21.6711 29.0848C22.2322 29.0848 22.7703 28.8619 23.167 28.4651C23.5638 28.0684 23.7867 27.5303 23.7867 26.9692C23.7955 26.8865 23.7955 26.8031 23.7867 26.7203C22.9511 20.0714 19.1644 14.667 11.9467 14.667C4.72889 14.667 0.782228 19.2537 5.69504e-06 26.667C-0.0546675 27.2277 0.11466 27.7873 0.471037 28.2236C0.827413 28.6599 1.3419 28.9375 1.90223 28.9959H21.6356L21.6711 29.0848Z" fill="url(#paint0_linear_868_11828)"/>
<path opacity="0.8" d="M12.0355 16.2493C10.7728 16.2405 9.53903 15.8703 8.47998 15.1826L12.0355 24.516L15.5911 15.2537C14.521 15.9084 13.29 16.2531 12.0355 16.2493Z" fill="white"/>
<path d="M11.9822 16.2493C15.6641 16.2493 18.6489 13.2646 18.6489 9.58268C18.6489 5.90078 15.6641 2.91602 11.9822 2.91602C8.30032 2.91602 5.31555 5.90078 5.31555 9.58268C5.31555 13.2646 8.30032 16.2493 11.9822 16.2493Z" fill="url(#paint1_linear_868_11828)"/>
</g>
<defs>
<linearGradient id="paint0_linear_868_11828" x1="11.9111" y1="12.907" x2="11.9111" y2="32.6403" gradientUnits="userSpaceOnUse">
<stop offset="0.22" stop-color="#32D4F5"/>
<stop offset="1" stop-color="#198AB3"/>
</linearGradient>
<linearGradient id="paint1_linear_868_11828" x1="11.4133" y1="2.34713" x2="12.8533" y2="20.2493" gradientUnits="userSpaceOnUse">
<stop offset="0.22" stop-color="#32D4F5"/>
<stop offset="1" stop-color="#198AB3"/>
</linearGradient>
<clipPath id="clip0_868_11828">
<rect width="32" height="32" fill="white"/>
</clipPath>
</defs>
</svg>
