<svg width="32" height="32" viewBox="0 0 32 32" fill="none" xmlns="http://www.w3.org/2000/svg">
<path d="M15.0222 20.3738C17.575 20.3738 19.6445 18.2964 19.6445 15.7338C19.6445 13.1711 17.575 11.0938 15.0222 11.0938C12.4695 11.0938 10.4 13.1711 10.4 15.7338C10.4 18.2964 12.4695 20.3738 15.0222 20.3738Z" fill="url(#paint0_linear_868_11838)"/>
<path d="M27.9644 10.7552C29.2114 10.7552 30.2222 9.73641 30.2222 8.47966C30.2222 7.2229 29.2114 6.2041 27.9644 6.2041C26.7175 6.2041 25.7067 7.2229 25.7067 8.47966C25.7067 9.73641 26.7175 10.7552 27.9644 10.7552Z" fill="#32BEDD"/>
<path d="M27.9644 18.1869C29.2114 18.1869 30.2222 17.1681 30.2222 15.9113C30.2222 14.6545 29.2114 13.6357 27.9644 13.6357C26.7175 13.6357 25.7067 14.6545 25.7067 15.9113C25.7067 17.1681 26.7175 18.1869 27.9644 18.1869Z" fill="#32BEDD"/>
<path d="M27.9644 25.5999C29.2114 25.5999 30.2222 24.5811 30.2222 23.3244C30.2222 22.0676 29.2114 21.0488 27.9644 21.0488C26.7175 21.0488 25.7067 22.0676 25.7067 23.3244C25.7067 24.5811 26.7175 25.5999 27.9644 25.5999Z" fill="#32BEDD"/>
<path d="M22.8089 14.5599C24.0558 14.5599 25.0666 13.5411 25.0666 12.2843C25.0666 11.0276 24.0558 10.0088 22.8089 10.0088C21.5619 10.0088 20.5511 11.0276 20.5511 12.2843C20.5511 13.5411 21.5619 14.5599 22.8089 14.5599Z" fill="#50E6FF"/>
<path d="M22.8089 21.9915C24.0558 21.9915 25.0666 20.9727 25.0666 19.716C25.0666 18.4592 24.0558 17.4404 22.8089 17.4404C21.5619 17.4404 20.5511 18.4592 20.5511 19.716C20.5511 20.9727 21.5619 21.9915 22.8089 21.9915Z" fill="#50E6FF"/>
<path d="M4.28444 9.91953C4.32482 9.8593 4.37988 9.81035 4.44444 9.77731L14.7911 3.75064C14.9333 3.75064 23.68 8.69286 23.68 8.69286C23.7451 8.73048 23.8191 8.7502 23.8943 8.75003C23.9695 8.74987 24.0434 8.72982 24.1083 8.69191C24.1733 8.65401 24.2271 8.5996 24.2643 8.53421C24.3014 8.46881 24.3207 8.39475 24.32 8.31953V6.38175C24.3207 6.30621 24.3013 6.23184 24.2638 6.16625C24.2263 6.10065 24.1721 6.04619 24.1067 6.00842C24.1067 6.00842 14.9333 0.817308 14.8089 0.888419L1.97333 8.24842L1.77777 8.39064L4.28444 9.91953Z" fill="#949494"/>
<path d="M23.6444 23.36L15.2178 28.2134C15.153 28.2237 15.087 28.2237 15.0222 28.2134V31.0578C15.0861 31.0761 15.1539 31.0761 15.2178 31.0578L24.1067 25.9734C24.1695 25.9371 24.2221 25.8855 24.2594 25.8233C24.2968 25.761 24.3176 25.6903 24.32 25.6178V23.7334C24.3252 23.6526 24.3073 23.5721 24.2685 23.5011C24.2296 23.4301 24.1714 23.3717 24.1006 23.3325C24.0298 23.2934 23.9493 23.2752 23.8685 23.2801C23.7878 23.2849 23.71 23.3127 23.6444 23.36Z" fill="#949494"/>
<path d="M15.0222 28.2662C14.946 28.2825 14.8673 28.2825 14.7911 28.2662L4.44443 22.1684C4.37912 22.1351 4.32448 22.0841 4.28676 22.0212C4.24904 21.9584 4.22975 21.8862 4.23109 21.8128V10.1328C4.21509 10.0626 4.21509 9.98972 4.23109 9.91951L1.77776 8.39062C1.75963 8.4666 1.75963 8.54577 1.77776 8.62174V23.324C1.77524 23.3978 1.79194 23.471 1.82622 23.5365C1.8605 23.6019 1.91119 23.6573 1.97331 23.6973L14.8089 31.0573C14.8788 31.0754 14.9522 31.0754 15.0222 31.0573V28.2662Z" fill="#B3B3B3"/>
<defs>
<linearGradient id="paint0_linear_868_11838" x1="15.0222" y1="20.3915" x2="15.0222" y2="11.0937" gradientUnits="userSpaceOnUse">
<stop stop-color="#198AB3"/>
<stop offset="0.16" stop-color="#1F9AC2"/>
<stop offset="0.5" stop-color="#29BADE"/>
<stop offset="0.8" stop-color="#30CDEF"/>
<stop offset="1" stop-color="#32D4F5"/>
</linearGradient>
</defs>
</svg>
