<svg width="32" height="32" viewBox="0 0 32 32" fill="none" xmlns="http://www.w3.org/2000/svg">
<path d="M32 14.0443C31.9734 12.733 31.4784 11.4744 30.6045 10.4962C29.7307 9.51801 28.5357 8.88478 27.2356 8.71102C27.1569 6.89545 26.3668 5.1838 25.0361 3.94622C23.7054 2.70864 21.941 2.04459 20.1245 2.09768C18.647 2.07487 17.1992 2.51286 15.9821 3.35078C14.7651 4.1887 13.8393 5.38493 13.3334 6.77324C11.7762 6.96013 10.338 7.70019 9.28076 8.85859C8.22352 10.017 7.61759 11.5166 7.57336 13.0843C7.5963 13.9622 7.79292 14.8268 8.15186 15.6283C8.5108 16.4298 9.02495 17.1522 9.66463 17.7539C10.3043 18.3555 11.0568 18.8245 11.8788 19.1337C12.7007 19.4429 13.5757 19.5863 14.4534 19.5555H15.0578H26.1867H26.4889C27.9463 19.5416 29.34 18.9565 30.3705 17.9259C31.401 16.8954 31.9861 15.5017 32 14.0443Z" fill="url(#paint0_linear_868_11815)"/>
<path d="M25.5822 9.27981L22.3289 6.11537C21.9733 5.75981 21.6711 5.88426 21.6711 6.43537V7.85759C21.6712 7.91048 21.6605 7.96284 21.6397 8.01148C21.619 8.06013 21.5886 8.10407 21.5504 8.14063C21.5121 8.17719 21.4669 8.20562 21.4174 8.22419C21.3678 8.24277 21.3151 8.2511 21.2622 8.2487C19.1645 8.2487 13.3156 8.79981 13.1022 16.7998C13.1022 16.9083 13.1453 17.0123 13.222 17.0889C13.2987 17.1656 13.4027 17.2087 13.5111 17.2087H15.5911C15.6479 17.2089 15.7042 17.1973 15.7563 17.1746C15.8083 17.1518 15.8551 17.1185 15.8936 17.0767C15.9321 17.0348 15.9614 16.9855 15.9797 16.9317C15.998 16.8779 16.005 16.8209 16 16.7643C15.8345 16.0035 15.8524 15.2144 16.0522 14.462C16.252 13.7095 16.628 13.0154 17.1491 12.437C17.6702 11.8587 18.3214 11.4125 19.049 11.1356C19.7765 10.8586 20.5596 10.7588 21.3333 10.8443C21.4418 10.8443 21.5458 10.8873 21.6225 10.964C21.6992 11.0407 21.7422 11.1447 21.7422 11.2531V12.5687C21.7422 13.2265 21.9556 13.3331 22.4 12.8887L25.5822 9.95537C25.6372 9.91785 25.6822 9.86747 25.7133 9.8086C25.7444 9.74974 25.7607 9.68417 25.7607 9.61759C25.7607 9.55101 25.7444 9.48544 25.7133 9.42658C25.6822 9.36771 25.6372 9.31733 25.5822 9.27981Z" fill="white"/>
<path d="M25.1022 24.2843C25.0633 22.9474 24.5502 21.6679 23.6545 20.6745C22.7589 19.6812 21.5391 19.0387 20.2133 18.8621C20.1347 16.9915 19.3214 15.2274 17.9502 13.9526C16.5789 12.6779 14.7602 11.9954 12.8889 12.0532C11.3765 12.0261 9.89317 12.4701 8.64448 13.3238C7.3958 14.1775 6.44364 15.3986 5.92 16.8176C4.32181 17.0085 2.84521 17.7667 1.75878 18.9543C0.672351 20.1419 0.0482534 21.6799 0 23.2888C0.034306 24.187 0.245681 25.0697 0.621993 25.886C0.998305 26.7024 1.53214 27.4364 2.19286 28.0459C2.85359 28.6554 3.62818 29.1285 4.47219 29.4378C5.3162 29.7472 6.213 29.8869 7.11111 29.8488H19.1644C19.2643 29.8671 19.3668 29.8671 19.4667 29.8488C20.9435 29.8308 22.3559 29.241 23.4068 28.2033C24.4578 27.1656 25.0655 25.7608 25.1022 24.2843Z" fill="url(#paint1_linear_868_11815)"/>
<defs>
<linearGradient id="paint0_linear_868_11815" x1="19.7867" y1="19.4666" x2="19.7867" y2="2.15101" gradientUnits="userSpaceOnUse">
<stop stop-color="#0078D4"/>
<stop offset="0.16" stop-color="#1380DA"/>
<stop offset="0.53" stop-color="#3C91E5"/>
<stop offset="0.82" stop-color="#559CEC"/>
<stop offset="1" stop-color="#5EA0EF"/>
</linearGradient>
<linearGradient id="paint1_linear_868_11815" x1="12.5511" y1="29.8488" x2="12.5511" y2="12.0532" gradientUnits="userSpaceOnUse">
<stop stop-color="#198AB3"/>
<stop offset="0.13" stop-color="#21A0C7"/>
<stop offset="0.31" stop-color="#28B7DB"/>
<stop offset="0.5" stop-color="#2EC7EA"/>
<stop offset="0.72" stop-color="#31D1F2"/>
<stop offset="1" stop-color="#32D4F5"/>
</linearGradient>
</defs>
</svg>
