<svg width="32" height="32" viewBox="0 0 32 32" fill="none" xmlns="http://www.w3.org/2000/svg">
<path d="M20.5511 25.3156L3.18221 7.7334C2.96647 7.546 2.81478 7.29578 2.74842 7.01783C2.68206 6.73987 2.70435 6.44811 2.81217 6.18347C2.91999 5.91882 3.10793 5.69455 3.34964 5.5421C3.59135 5.38966 3.87471 5.31668 4.15999 5.3334H26.24V8.14229H7.44888L22.5067 23.3956L20.5511 25.3156Z" fill="#B796F9"/>
<path d="M4.67555 10.6491C6.76687 10.6491 8.46222 8.96172 8.46222 6.88022C8.46222 4.79872 6.76687 3.11133 4.67555 3.11133C2.58423 3.11133 0.888885 4.79872 0.888885 6.88022C0.888885 8.96172 2.58423 10.6491 4.67555 10.6491Z" fill="url(#paint0_linear_868_11814)"/>
<path d="M26.24 11.2174C28.9302 11.2174 31.1111 9.0445 31.1111 6.36408C31.1111 3.68365 28.9302 1.51074 26.24 1.51074C23.5498 1.51074 21.3689 3.68365 21.3689 6.36408C21.3689 9.0445 23.5498 11.2174 26.24 11.2174Z" fill="url(#paint1_linear_868_11814)"/>
<path d="M21.1911 30.4887C24.5981 30.4887 27.36 27.7348 27.36 24.3376C27.36 20.9405 24.5981 18.1865 21.1911 18.1865C17.7841 18.1865 15.0222 20.9405 15.0222 24.3376C15.0222 27.7348 17.7841 30.4887 21.1911 30.4887Z" fill="url(#paint2_linear_868_11814)"/>
<defs>
<linearGradient id="paint0_linear_868_11814" x1="4.67555" y1="10.6491" x2="4.67555" y2="3.11133" gradientUnits="userSpaceOnUse">
<stop stop-color="#773ADC"/>
<stop offset="1" stop-color="#B77AF4"/>
</linearGradient>
<linearGradient id="paint1_linear_868_11814" x1="26.24" y1="11.2174" x2="26.24" y2="1.51074" gradientUnits="userSpaceOnUse">
<stop stop-color="#773ADC"/>
<stop offset="1" stop-color="#B77AF4"/>
</linearGradient>
<linearGradient id="paint2_linear_868_11814" x1="21.1911" y1="30.7021" x2="21.1911" y2="13.7065" gradientUnits="userSpaceOnUse">
<stop stop-color="#773ADC"/>
<stop offset="1" stop-color="#B77AF4"/>
</linearGradient>
</defs>
</svg>
