<svg width="32" height="32" viewBox="0 0 32 32" fill="none" xmlns="http://www.w3.org/2000/svg">
<path d="M16.6933 25.6533C22.0247 25.6533 26.3467 21.3314 26.3467 16C26.3467 10.6686 22.0247 6.34668 16.6933 6.34668C11.362 6.34668 7.04001 10.6686 7.04001 16C7.04001 21.3314 11.362 25.6533 16.6933 25.6533Z" fill="url(#paint0_radial_868_11829)"/>
<path d="M16.7289 24.4086C21.373 24.4086 25.1378 20.6438 25.1378 15.9997C25.1378 11.3556 21.373 7.59082 16.7289 7.59082C12.0848 7.59082 8.32001 11.3556 8.32001 15.9997C8.32001 20.6438 12.0848 24.4086 16.7289 24.4086Z" fill="white"/>
<path d="M21.6637 10.7366L20.6454 11.7549L20.9723 12.0817L21.9905 11.0635L21.6637 10.7366Z" fill="#7A7A7A"/>
<path d="M23.8755 15.7686H22.4355V16.2308H23.8755V15.7686Z" fill="#7A7A7A"/>
<path d="M20.8924 19.8372L20.5655 20.1641L21.5838 21.1823L21.9106 20.8555L20.8924 19.8372Z" fill="#7A7A7A"/>
<path d="M16.96 21.6709H16.4978V23.1109H16.96V21.6709Z" fill="#7A7A7A"/>
<path d="M11.7563 10.6995L11.4294 11.0264L12.4476 12.0446L12.7745 11.7178L11.7563 10.6995Z" fill="#7A7A7A"/>
<path d="M12.5134 19.8861L11.4951 20.9043L11.822 21.2311L12.8402 20.2129L12.5134 19.8861Z" fill="#7A7A7A"/>
<path d="M10.9511 15.7686H9.51111V16.2308H10.9511V15.7686Z" fill="#7A7A7A"/>
<path d="M20.2133 18.5953L17.7778 16.142C17.7193 16.0862 17.6489 16.0443 17.5719 16.0197C17.4949 15.9951 17.4133 15.9883 17.3333 15.9998C17.3871 15.9128 17.4234 15.8162 17.44 15.7153V9.47534C17.44 9.31974 17.3782 9.17052 17.2682 9.0605C17.1581 8.95048 17.0089 8.88867 16.8533 8.88867H16.7289C16.5733 8.88867 16.4241 8.95048 16.314 9.0605C16.204 9.17052 16.1422 9.31974 16.1422 9.47534V15.6976C16.1421 15.8548 16.2034 16.0059 16.3129 16.1188C16.4225 16.2317 16.5717 16.2974 16.7289 16.302H16.8178C16.7228 16.4067 16.6702 16.5429 16.6702 16.6842C16.6702 16.8255 16.7228 16.9618 16.8178 17.0665L19.2889 19.5553C19.3435 19.6107 19.4085 19.6547 19.4802 19.6847C19.5519 19.7147 19.6289 19.7301 19.7067 19.7301C19.7844 19.7301 19.8614 19.7147 19.9331 19.6847C20.0048 19.6547 20.0699 19.6107 20.1244 19.5553C20.2069 19.5087 20.2769 19.4429 20.3284 19.3633C20.3799 19.2838 20.4114 19.1929 20.4201 19.0986C20.4288 19.0043 20.4146 18.9092 20.3786 18.8215C20.3426 18.7339 20.2859 18.6563 20.2133 18.5953Z" fill="#7A7A7A"/>
<path d="M16.7467 17.3686C17.5027 17.3686 18.1156 16.7558 18.1156 15.9997C18.1156 15.2437 17.5027 14.6309 16.7467 14.6309C15.9907 14.6309 15.3778 15.2437 15.3778 15.9997C15.3778 16.7558 15.9907 17.3686 16.7467 17.3686Z" fill="#4F4F4F"/>
<path d="M0.888897 26.8091C0.888446 26.8595 0.901375 26.909 0.926363 26.9528C0.951351 26.9965 0.987501 27.0328 1.03112 27.058L3.09334 28.2136L6.57779 30.2224C6.64636 30.2616 6.72755 30.2724 6.80397 30.2524C6.88039 30.2325 6.94597 30.1835 6.98667 30.1158L8.16001 28.1247C8.19283 28.0605 8.20008 27.9863 8.18028 27.917C8.16048 27.8477 8.11511 27.7885 8.05334 27.7513L3.96445 25.4402C3.922 25.4137 3.88678 25.3772 3.86196 25.3337C3.83713 25.2903 3.82348 25.2413 3.82223 25.1913V6.84467C3.82178 6.7943 3.83471 6.74472 3.8597 6.701C3.88468 6.65727 3.92083 6.62096 3.96445 6.59578L8.05334 4.28467C8.11511 4.24753 8.16048 4.18833 8.18028 4.11903C8.20008 4.04973 8.19283 3.9755 8.16001 3.91133L6.98667 1.92022C6.96957 1.88368 6.94533 1.85093 6.91537 1.8239C6.88541 1.79688 6.85034 1.77612 6.81223 1.76287C6.77412 1.74961 6.73374 1.74412 6.69348 1.74672C6.65321 1.74932 6.61387 1.75995 6.57779 1.778L3.16445 3.75133L1.03112 4.94244C0.987501 4.96762 0.951351 5.00393 0.926363 5.04766C0.901375 5.09139 0.888446 5.14097 0.888897 5.19133V26.8091Z" fill="#949494"/>
<path d="M3.80444 6.70253L3.91111 6.59586L8 4.28475C8.03435 4.27031 8.06503 4.24834 8.08976 4.22046C8.1145 4.19258 8.13265 4.15951 8.14289 4.12367C8.15313 4.08784 8.15519 4.05016 8.14892 4.01342C8.14265 3.97669 8.12821 3.94183 8.10666 3.91142L6.93333 1.92031C6.9205 1.88247 6.89934 1.848 6.8714 1.81944C6.84346 1.79088 6.80946 1.76897 6.77191 1.75531C6.73437 1.74166 6.69423 1.73662 6.65447 1.74056C6.61472 1.7445 6.57635 1.75732 6.54222 1.77808L3.11111 3.75142L0.995552 4.94253C0.995552 4.94253 0.906663 4.94253 0.888885 5.04919L2.48889 5.95586L3.80444 6.70253Z" fill="#A3A3A3"/>
<path d="M8.00001 27.7162L3.91112 25.4051C3.8563 25.3636 3.81338 25.3085 3.78668 25.2451L0.906677 27.0229H0.995566L3.04001 28.1785L6.59557 30.1518C6.62742 30.1734 6.6636 30.188 6.7016 30.1943C6.7396 30.2007 6.77852 30.1987 6.81569 30.1885C6.85286 30.1784 6.8874 30.1603 6.91691 30.1356C6.94643 30.1108 6.97023 30.08 6.98668 30.0451L8.16001 28.054C8.17401 28.0215 8.18093 27.9864 8.1803 27.9511C8.17967 27.9157 8.17152 27.8809 8.15638 27.8489C8.14124 27.817 8.11946 27.7886 8.0925 27.7657C8.06554 27.7428 8.03401 27.726 8.00001 27.7162Z" fill="#A3A3A3"/>
<path d="M31.1289 26.8087C31.1294 26.859 31.1164 26.9086 31.0914 26.9523C31.0665 26.9961 31.0303 27.0324 30.9867 27.0575L28.9245 28.2131L25.3689 30.1864C25.3371 30.2081 25.3009 30.2226 25.2629 30.229C25.2249 30.2353 25.186 30.2333 25.1488 30.2232C25.1116 30.2131 25.0771 30.195 25.0476 30.1702C25.0181 30.1455 24.9942 30.1146 24.9778 30.0798L23.8045 28.0887C23.7852 28.0585 23.7721 28.0247 23.7661 27.9894C23.7602 27.9541 23.7613 27.918 23.7696 27.8831C23.7779 27.8483 23.7932 27.8155 23.8144 27.7866C23.8357 27.7578 23.8625 27.7335 23.8934 27.7153L27.9822 25.4042C28.0247 25.3777 28.0599 25.3411 28.0847 25.2977C28.1096 25.2543 28.1232 25.2053 28.1245 25.1553V6.84421C28.1249 6.79385 28.112 6.74427 28.087 6.70054C28.062 6.65681 28.0259 6.6205 27.9822 6.59532L23.8934 4.28421C23.8625 4.26598 23.8357 4.24173 23.8144 4.21291C23.7932 4.18408 23.7779 4.15126 23.7696 4.11642C23.7613 4.08157 23.7602 4.04542 23.7661 4.0101C23.7721 3.97479 23.7852 3.94104 23.8045 3.91088L24.9778 1.91977C24.9847 1.86943 25.0059 1.82212 25.0388 1.78341C25.0717 1.74469 25.115 1.71619 25.1636 1.70125C25.2121 1.6863 25.2639 1.68555 25.3129 1.69906C25.3619 1.71258 25.406 1.73981 25.44 1.77754L28.8534 3.71532L30.9867 4.90643C31.0303 4.93161 31.0665 4.96792 31.0914 5.01165C31.1164 5.05538 31.1294 5.10496 31.1289 5.15532V26.8087Z" fill="#949494"/>
<path d="M28.2134 6.70155L28.1067 6.59488L24.0178 4.28377C23.9835 4.26934 23.9528 4.24737 23.9281 4.21949C23.9033 4.19161 23.8852 4.15853 23.8749 4.1227C23.8647 4.08686 23.8626 4.04918 23.8689 4.01245C23.8752 3.97571 23.8896 3.94085 23.9112 3.91044L25.0845 1.91933C25.0973 1.88149 25.1185 1.84702 25.1464 1.81846C25.1744 1.78991 25.2084 1.76799 25.2459 1.75434C25.2835 1.74068 25.3236 1.73564 25.3633 1.73958C25.4031 1.74352 25.4415 1.75635 25.4756 1.77711L28.9067 3.71488L31.0223 4.906C31.0223 4.906 31.1112 4.906 31.1289 5.01266L29.5289 5.91933L28.2134 6.70155Z" fill="#A3A3A3"/>
<path d="M24.0178 27.7153L28.1067 25.4041C28.1664 25.3679 28.2107 25.3109 28.2311 25.2441L31.1111 27.0219H31.0222L28.9778 28.1775L25.4222 30.1508C25.3904 30.1725 25.3542 30.187 25.3162 30.1933C25.2782 30.1997 25.2393 30.1977 25.2021 30.1876C25.1649 30.1774 25.1304 30.1594 25.1009 30.1346C25.0714 30.1098 25.0476 30.079 25.0311 30.0441L23.8578 28.053C23.8438 28.0206 23.8369 27.9855 23.8375 27.9501C23.8381 27.9147 23.8463 27.8799 23.8614 27.848C23.8766 27.816 23.8983 27.7876 23.9253 27.7648C23.9523 27.7419 23.9838 27.725 24.0178 27.7153Z" fill="#A3A3A3"/>
<path d="M14.1155 5.95568C14.0779 5.84454 14.0181 5.74215 13.9399 5.65467C13.8617 5.56719 13.7665 5.49642 13.6603 5.44661C13.554 5.3968 13.4388 5.36898 13.3215 5.36481C13.2042 5.36064 13.0873 5.38021 12.9778 5.42235C10.7269 6.24834 8.78532 7.74801 7.41742 9.71715C6.04952 11.6863 5.32179 14.0292 5.33333 16.4268C5.37683 17.8884 5.71405 19.3264 6.32489 20.6549C6.93573 21.9835 7.80771 23.1756 8.88888 24.1601L8.28444 24.9779C8.24148 25.0324 8.21454 25.0977 8.20665 25.1666C8.19875 25.2356 8.21022 25.3053 8.23976 25.3681C8.26929 25.4308 8.31573 25.4841 8.37387 25.522C8.432 25.5598 8.49953 25.5807 8.56888 25.5823L11.9111 25.8135C11.9806 25.8231 12.0514 25.8138 12.1162 25.7867C12.1809 25.7595 12.2371 25.7155 12.2789 25.6591C12.3207 25.6027 12.3466 25.5362 12.3538 25.4664C12.361 25.3965 12.3494 25.3261 12.32 25.2624L10.9155 22.3468C10.8788 22.288 10.8277 22.2396 10.767 22.206C10.7064 22.1724 10.6382 22.1547 10.5689 22.1547C10.4996 22.1547 10.4314 22.1724 10.3707 22.206C10.3101 22.2396 10.259 22.288 10.2222 22.3468L9.88444 22.809C8.15177 21.1033 7.1562 18.7867 7.1111 16.3557C7.09488 14.3134 7.7094 12.3159 8.87075 10.6359C10.0321 8.95594 11.6837 7.67535 13.6 6.96902C13.7979 6.89633 13.9611 6.7515 14.0567 6.56356C14.1523 6.37562 14.1733 6.15848 14.1155 5.95568Z" fill="#76BC2D"/>
<defs>
<radialGradient id="paint0_radial_868_11829" cx="0" cy="0" r="1" gradientUnits="userSpaceOnUse" gradientTransform="translate(39.8133 -189.742) scale(9.36462)">
<stop offset="0.18" stop-color="#5EA0EF"/>
<stop offset="0.56" stop-color="#5C9FEE"/>
<stop offset="0.69" stop-color="#559CED"/>
<stop offset="0.78" stop-color="#4A97E9"/>
<stop offset="0.86" stop-color="#3990E4"/>
<stop offset="0.93" stop-color="#2387DE"/>
<stop offset="0.99" stop-color="#087BD6"/>
<stop offset="1" stop-color="#0078D4"/>
</radialGradient>
</defs>
</svg>
