<svg width="32" height="32" viewBox="0 0 32 32" fill="none" xmlns="http://www.w3.org/2000/svg">
<path d="M3.43111 3.73367L5.6 1.24478C5.69715 1.13276 5.81732 1.043 5.95231 0.981644C6.0873 0.920285 6.23394 0.888762 6.38222 0.889227H27.0044C27.2068 0.871593 27.4105 0.896958 27.6024 0.963657C27.7942 1.03036 27.9698 1.13688 28.1175 1.27623C28.2653 1.41558 28.3819 1.58461 28.4596 1.77222C28.5374 1.95983 28.5747 2.16177 28.5689 2.36478V28.1426C28.5694 28.2892 28.5396 28.4343 28.4815 28.5689C28.4234 28.7034 28.3381 28.8246 28.2311 28.9248L25.92 31.0581H4.83555L3.41333 30.4537L3.43111 3.73367Z" fill="#773ADC"/>
<path d="M5.15558 3.73326L6.47113 2.22214C6.63709 2.04206 6.86663 1.93367 7.11113 1.91992H26.4534C26.6985 1.91992 26.9337 2.01732 27.107 2.19069C27.2804 2.36405 27.3778 2.59919 27.3778 2.84437V27.3421C27.3792 27.4725 27.3529 27.6016 27.3008 27.7211C27.2488 27.8406 27.172 27.9478 27.0756 28.0355L25.0311 29.9021L5.15558 3.73326Z" fill="white"/>
<path d="M24.8889 3.7334H3.55556H3.46667V30.4001C3.46662 30.5809 3.53722 30.7546 3.66342 30.8841C3.78963 31.0137 3.96145 31.0888 4.14223 31.0934H24.8889C25.0697 31.0888 25.2415 31.0137 25.3677 30.8841C25.4939 30.7546 25.5645 30.5809 25.5645 30.4001V4.40895C25.5645 4.22979 25.4933 4.05796 25.3666 3.93126C25.2399 3.80457 25.0681 3.7334 24.8889 3.7334Z" fill="url(#paint0_linear_868_11813)"/>
<path d="M14.8444 19.8753L12 18.3109V15.1109L14.7911 16.6575V19.7686M11.2 17.7775L8.35553 16.2664V13.0664L11.1466 14.6131V17.7775" fill="white"/>
<path opacity="0.8" d="M12.4444 14.222L15.2355 12.7109L18.08 14.222L15.3066 15.7332L12.4444 14.222Z" fill="white"/>
<path opacity="0.8" d="M8.88885 12.2129L11.5911 10.6663H11.68L14.4 12.1596C14.411 12.1679 14.42 12.1786 14.4261 12.191C14.4323 12.2033 14.4355 12.2169 14.4355 12.2307C14.4355 12.2445 14.4323 12.2581 14.4261 12.2705C14.42 12.2828 14.411 12.2935 14.4 12.3018L11.6444 13.8129L8.88885 12.3196M16.1422 12.2663L18.9155 10.6663L21.6355 12.1596L18.88 13.6707H18.7911L16.1777 12.444M12.4444 10.3107L15.2177 8.81738H15.3066L18.0622 10.2929L15.2711 11.7863L12.4444 10.4174" fill="white"/>
<path opacity="0.6" d="M15.6799 19.8749L18.4711 18.3283V15.1105L15.6622 16.6571V19.7683L15.6799 19.8749ZM22.1333 13.0127L19.3244 14.5594V17.7771H19.4133L22.2044 16.2305V13.0838C22.2044 13.0838 22.1688 13.0127 22.1333 13.0127ZM15.9999 21.6883C16.5688 21.6883 17.1555 21.866 17.1911 22.5771C17.2188 22.712 17.2188 22.8511 17.1911 22.986L18.6133 22.3994V19.1994L15.8044 20.746V21.6883H15.9999ZM22.0444 17.1016L19.2355 18.6483V21.7594H19.3244L22.1155 20.2127V17.1905L22.0444 17.1016Z" fill="white"/>
<path d="M13.0133 21.1549C13.1911 21.4216 13.3689 21.6882 13.5467 21.7238H14.9333V20.7638L12.0889 19.1638V20.0527C12.4684 20.3609 12.7826 20.7416 13.0133 21.1727V21.1549ZM10.9333 19.8038C11.0576 19.7937 11.1824 19.7937 11.3067 19.8038V18.6482L8.46222 17.1016V20.0882C8.76247 20.0702 9.06022 20.0226 9.35111 19.946C9.87225 19.8445 10.4024 19.7969 10.9333 19.8038Z" fill="white"/>
<path d="M21.12 23.1103L19.3422 24.177L17.3866 25.3325C16.9057 25.5409 16.3756 25.6087 15.8578 25.5281H15.2711L13.4933 25.617H12.5511C11.7866 25.617 10.6666 24.817 10.0622 24.2658L9.75997 23.9814C9.07719 23.3871 8.19342 23.0755 7.28886 23.1103H6.25775V20.497H8.35553C8.68018 20.4894 9.00264 20.4416 9.31553 20.3547C9.85203 20.2306 10.4004 20.165 10.9511 20.1592C11.3242 20.1904 11.6832 20.3162 11.9942 20.5246C12.3052 20.7329 12.5581 21.0171 12.7289 21.3503C12.9778 21.7058 13.1911 22.0081 13.4933 22.0614C13.7955 22.1147 14.5244 22.0614 15.1822 22.0614H16C16.7111 22.0614 16.8533 22.2747 16.8889 22.5947C16.8989 22.7007 16.8867 22.8077 16.8531 22.9087C16.8194 23.0098 16.765 23.1026 16.6933 23.1814C16.2961 23.3058 15.8829 23.3717 15.4666 23.377C14.88 23.377 13.3333 23.5547 12.9422 23.1992L11.8755 22.257L11.6622 22.5236L12.7289 23.4481C13.1538 23.7273 13.664 23.847 14.1689 23.7858C14.4533 23.7858 15.1289 23.7858 15.5022 23.697C15.9037 23.6853 16.3029 23.6317 16.6933 23.537C16.7393 23.5532 16.7895 23.5532 16.8355 23.537C16.9422 23.537 19.3244 22.4703 19.9822 22.1681C20.64 21.8658 21.76 21.777 21.8489 22.1681C21.9378 22.5592 21.6711 22.8081 21.1378 23.0925L21.12 23.1103Z" fill="white"/>
<defs>
<linearGradient id="paint0_linear_868_11813" x1="14.4889" y1="31.1112" x2="14.4889" y2="3.7334" gradientUnits="userSpaceOnUse">
<stop stop-color="#773ADC"/>
<stop offset="0.25" stop-color="#9255E6"/>
<stop offset="0.5" stop-color="#A669EE"/>
<stop offset="0.76" stop-color="#B376F2"/>
<stop offset="1" stop-color="#B77AF4"/>
</linearGradient>
</defs>
</svg>
