<svg width="32" height="32" viewBox="0 0 32 32" fill="none" xmlns="http://www.w3.org/2000/svg">
<g clip-path="url(#clip0_868_11812)">
<path d="M16.6222 18.3292C16.6222 18.0888 16.7177 17.8582 16.8878 17.6881C17.0578 17.5181 17.2884 17.4226 17.5289 17.4226H22.7378C21.6075 16.0193 20.166 14.8983 18.5276 14.1485C16.8891 13.3987 15.0986 13.0406 13.2977 13.1026C5.33331 13.1026 1.15553 18.0981 0.355528 26.2581C0.323603 26.5596 0.351754 26.8643 0.438353 27.1548C0.524952 27.4453 0.668281 27.7158 0.860051 27.9505C1.05182 28.1853 1.28823 28.3797 1.5556 28.5225C1.82297 28.6653 2.116 28.7537 2.41775 28.7826H16.64L16.6222 18.3292Z" fill="url(#paint0_linear_868_11812)"/>
<path opacity="0.8" d="M13.2978 14.8265C11.9045 14.8257 10.5408 14.4246 9.3689 13.6709L13.2622 23.822L17.12 13.7242C15.9767 14.4478 14.6508 14.8301 13.2978 14.8265Z" fill="white"/>
<path d="M13.2978 14.8084C17.3037 14.8084 20.5511 11.561 20.5511 7.55509C20.5511 3.54919 17.3037 0.301758 13.2978 0.301758C9.29186 0.301758 6.04443 3.54919 6.04443 7.55509C6.04443 11.561 9.29186 14.8084 13.2978 14.8084Z" fill="url(#paint1_linear_868_11812)"/>
<path d="M22.3822 27.9293H26.5422V32.0893H22.3822V27.9293ZM17.5289 22.3827H21.6889V18.2227H18.1333C17.9777 18.2227 17.8285 18.2845 17.7185 18.3945C17.6085 18.5045 17.5467 18.6537 17.5467 18.8093L17.5289 22.3827ZM18.1156 32.0893H21.6711V27.9293H17.5289V31.4849C17.5265 31.5634 17.5399 31.6416 17.5683 31.7148C17.5968 31.7881 17.6396 31.8549 17.6943 31.9113C17.749 31.9676 17.8145 32.0124 17.8869 32.043C17.9592 32.0736 18.037 32.0894 18.1156 32.0893ZM17.5289 27.236H21.6889V23.1115H17.5289V27.236ZM27.2178 32.0893H30.7733C30.8496 32.0894 30.925 32.0741 30.9952 32.0444C31.0654 32.0147 31.129 31.9712 31.182 31.9165C31.2351 31.8617 31.2766 31.7969 31.3041 31.7258C31.3317 31.6547 31.3446 31.5788 31.3422 31.5027V27.9471H27.2178V32.0893ZM22.3822 27.236H26.5422V23.1115H22.3822V27.236ZM27.2178 27.236H31.3778V23.1115H27.2178V27.236ZM27.2178 18.2227V22.3827H31.3778V18.8271C31.3802 18.7509 31.3672 18.675 31.3397 18.6039C31.3122 18.5328 31.2706 18.468 31.2176 18.4133C31.1645 18.3586 31.101 18.3151 31.0308 18.2854C30.9606 18.2557 30.8851 18.2404 30.8089 18.2404L27.2178 18.2227ZM22.3822 22.3827H26.5422V18.2227H22.3822V22.3827Z" fill="url(#paint2_linear_868_11812)"/>
</g>
<defs>
<linearGradient id="paint0_linear_868_11812" x1="11.5377" y1="11.1826" x2="11.5377" y2="32.6759" gradientUnits="userSpaceOnUse">
<stop offset="0.1" stop-color="#54AEF0"/>
<stop offset="1" stop-color="#1988D9"/>
</linearGradient>
<linearGradient id="paint1_linear_868_11812" x1="12.6755" y1="-0.338242" x2="14.24" y2="19.1818" gradientUnits="userSpaceOnUse">
<stop offset="0.1" stop-color="#54AEF0"/>
<stop offset="1" stop-color="#1988D9"/>
</linearGradient>
<linearGradient id="paint2_linear_868_11812" x1="24.4622" y1="32.0893" x2="24.4622" y2="18.2227" gradientUnits="userSpaceOnUse">
<stop stop-color="#76BC2D"/>
<stop offset="0.6" stop-color="#81CE31"/>
<stop offset="0.82" stop-color="#86D633"/>
</linearGradient>
<clipPath id="clip0_868_11812">
<rect width="32" height="32" fill="white"/>
</clipPath>
</defs>
</svg>
