<svg width="32" height="32" viewBox="0 0 32 32" fill="none" xmlns="http://www.w3.org/2000/svg">
<g clip-path="url(#clip0_868_11811)">
<path d="M9.93778 23.3418H17.6178V30.2218C17.6178 30.4576 17.5241 30.6837 17.3574 30.8504C17.1907 31.0171 16.9646 31.1107 16.7289 31.1107H9.93778V23.3418ZM2.04445 31.0218H8.65778V23.3418H0.977783V29.9552C0.977783 30.2381 1.09016 30.5094 1.2902 30.7094C1.49024 30.9095 1.76155 31.0218 2.04445 31.0218ZM0.977783 22.1329H8.65778V14.3818H1.86667C1.63092 14.3818 1.40483 14.4755 1.23813 14.6422C1.07143 14.8089 0.977783 15.035 0.977783 15.2707V22.1329Z" fill="url(#paint0_linear_868_11811)"/>
<path fill-rule="evenodd" clip-rule="evenodd" d="M20.4444 0.978101C21.8451 0.963587 23.2344 1.23024 24.5301 1.76227C25.8259 2.29431 27.0017 3.0809 27.988 4.0755C28.9743 5.0701 29.7511 6.25247 30.2722 7.55263C30.7934 8.85278 31.0484 10.2443 31.0222 11.6448C31.0365 13.0378 30.7726 14.4197 30.2461 15.7095C29.7195 16.9993 28.9409 18.1711 27.9558 19.1562C26.9707 20.1413 25.799 20.9199 24.5092 21.4464C23.2194 21.9729 21.8375 22.2368 20.4444 22.2225H9.86664V11.5559C9.85237 10.1628 10.1162 8.78092 10.6428 7.49112C11.1693 6.20133 11.9479 5.02956 12.933 4.04447C13.9181 3.05938 15.0899 2.28076 16.3797 1.75423C17.6695 1.2277 19.0514 0.963837 20.4444 0.978101Z" fill="url(#paint1_linear_868_11811)"/>
<path d="M26.9511 5.75977C26.4796 5.75977 26.0274 5.94707 25.694 6.28047C25.3606 6.61386 25.1733 7.06605 25.1733 7.53754C25.1756 7.93855 25.3135 8.32699 25.5644 8.63977L22.5955 13.9553H22.3644C22.0298 13.9596 21.7032 14.0582 21.4222 14.2398L19.1289 11.8931C19.2223 11.6739 19.2706 11.4381 19.2711 11.1998C19.2711 10.7165 19.0791 10.253 18.7374 9.91126C18.3956 9.56953 17.9321 9.37754 17.4489 9.37754C16.9656 9.37754 16.5021 9.56953 16.1604 9.91126C15.8186 10.253 15.6266 10.7165 15.6266 11.1998C15.6306 11.4991 15.7101 11.7927 15.8578 12.0531L13.7778 14.7909C13.6123 14.7724 13.4454 14.7724 13.28 14.7909C12.9284 14.7909 12.5846 14.8951 12.2923 15.0905C11.9999 15.2858 11.7721 15.5635 11.6375 15.8883C11.503 16.2132 11.4678 16.5706 11.5364 16.9155C11.605 17.2603 11.7743 17.5771 12.0229 17.8257C12.2715 18.0744 12.5883 18.2437 12.9331 18.3123C13.278 18.3809 13.6355 18.3457 13.9603 18.2111C14.2851 18.0766 14.5628 17.8487 14.7581 17.5563C14.9535 17.264 15.0578 16.9203 15.0578 16.5687C15.0508 16.2753 14.9714 15.9883 14.8266 15.7331L17.0133 12.9775C17.1609 12.9961 17.3102 12.9961 17.4578 12.9775C17.6778 12.9683 17.8945 12.9201 18.0978 12.8353L20.6044 15.4664C20.5957 15.5729 20.5957 15.6799 20.6044 15.7864C20.6044 16.2579 20.7917 16.7101 21.1251 17.0435C21.4585 17.3769 21.9107 17.5642 22.3822 17.5642C22.8537 17.5642 23.3059 17.3769 23.6393 17.0435C23.9727 16.7101 24.16 16.2579 24.16 15.7864C24.1484 15.4037 24.0248 15.0328 23.8044 14.7198L26.7733 9.38643H26.9511C27.4226 9.38643 27.8748 9.19913 28.2082 8.86573C28.5416 8.53234 28.7289 8.08015 28.7289 7.60866C28.7384 7.36928 28.6996 7.13044 28.6145 6.90647C28.5295 6.68251 28.4 6.47804 28.234 6.30535C28.0679 6.13266 27.8687 5.99532 27.6482 5.90156C27.4278 5.8078 27.1907 5.75957 26.9511 5.75977Z" fill="white"/>
</g>
<defs>
<linearGradient id="paint0_linear_868_11811" x1="9.66223" y1="14.2752" x2="9.66223" y2="30.9152" gradientUnits="userSpaceOnUse">
<stop stop-color="#5EA0EF"/>
<stop offset="0.18" stop-color="#589EED"/>
<stop offset="0.41" stop-color="#4897E9"/>
<stop offset="0.66" stop-color="#2E8CE1"/>
<stop offset="0.94" stop-color="#0A7CD7"/>
<stop offset="1" stop-color="#0078D4"/>
</linearGradient>
<linearGradient id="paint1_linear_868_11811" x1="20.4444" y1="22.1337" x2="20.4444" y2="0.978101" gradientUnits="userSpaceOnUse">
<stop stop-color="#198AB3"/>
<stop offset="0.24" stop-color="#22A5CB"/>
<stop offset="0.53" stop-color="#2BBFE2"/>
<stop offset="0.79" stop-color="#30CFF0"/>
<stop offset="1" stop-color="#32D4F5"/>
</linearGradient>
<clipPath id="clip0_868_11811">
<rect width="32" height="32" fill="white"/>
</clipPath>
</defs>
</svg>
