<svg width="32" height="32" viewBox="0 0 32 32" fill="none" xmlns="http://www.w3.org/2000/svg">
<g clip-path="url(#clip0_868_11810)">
<path d="M31.968 17.9871C31.968 16.5329 29.8471 16.0547 29.0311 14.9347C27.9076 13.3933 27.7867 11.42 25.7333 11.084C25.6311 8.70456 24.5951 6.46132 22.8499 4.84064C21.1048 3.21995 18.7912 2.35245 16.4107 2.42622C14.4874 2.3906 12.6004 2.95298 11.0104 4.0357C9.42043 5.11841 8.20578 6.66806 7.53422 8.47067C5.49879 8.71808 3.61946 9.68687 2.23715 11.2013C0.854845 12.7157 0.0611322 14.6754 0 16.7249C0.0893506 19.0252 1.08688 21.1963 2.77401 22.7624C4.46115 24.3286 6.70031 25.1622 9.00089 25.0804C9.26933 25.0804 9.53422 25.068 9.79378 25.0467H24.3716C24.5015 25.0451 24.6307 25.026 24.7556 24.9898C26.6283 24.9764 28.4237 24.2407 29.7673 22.9361C31.111 21.6315 31.8993 19.8587 31.968 17.9871Z" fill="url(#paint0_linear_868_11810)"/>
<path d="M29.408 11.6494H14.1582C13.8637 11.6494 13.6249 11.8882 13.6249 12.1827V17.6565C13.6249 17.9511 13.8637 18.1899 14.1582 18.1899H29.408C29.7025 18.1899 29.9413 17.9511 29.9413 17.6565V12.1827C29.9413 11.8882 29.7025 11.6494 29.408 11.6494Z" fill="#005BA1"/>
<path d="M27.7991 7.54785H15.7689C15.4743 7.54785 15.2355 7.78663 15.2355 8.08119V16.8812C15.2355 17.1757 15.4743 17.4145 15.7689 17.4145H27.7991C28.0936 17.4145 28.3324 17.1757 28.3324 16.8812V8.08119C28.3324 7.78663 28.0936 7.54785 27.7991 7.54785Z" fill="url(#paint1_linear_868_11810)"/>
<path d="M12.6329 14.542H30.9333C31.2162 14.542 31.4875 14.6544 31.6876 14.8544C31.8876 15.0544 32 15.3258 32 15.6087V26.4531H11.568V15.6087C11.568 15.3261 11.6801 15.055 11.8798 14.855C12.0794 14.6551 12.3503 14.5425 12.6329 14.542Z" fill="#5EA0EF"/>
<path d="M32 25.0537H11.568V26.867H32V25.0537Z" fill="#0078D4"/>
<path d="M28.8107 21.875H14.7503C14.4557 21.875 14.2169 22.1138 14.2169 22.4083V23.4608C14.2169 23.7553 14.4557 23.9941 14.7503 23.9941H28.8107C29.1052 23.9941 29.344 23.7553 29.344 23.4608V22.4083C29.344 22.1138 29.1052 21.875 28.8107 21.875Z" fill="#83B9F9"/>
<path d="M28.5244 18.4293C28.8043 18.4293 29.0311 18.2025 29.0311 17.9227C29.0311 17.6429 28.8043 17.416 28.5244 17.416C28.2446 17.416 28.0178 17.6429 28.0178 17.9227C28.0178 18.2025 28.2446 18.4293 28.5244 18.4293Z" fill="#C3F1FF"/>
<path d="M15.2355 22.2432H28.3324V29.0396C28.3324 29.1811 28.2762 29.3167 28.1762 29.4167C28.0762 29.5168 27.9405 29.5729 27.7991 29.5729H15.7671C15.6256 29.5729 15.49 29.5168 15.39 29.4167C15.29 29.3167 15.2338 29.1811 15.2338 29.0396L15.2355 22.2432Z" fill="url(#paint2_linear_868_11810)"/>
</g>
<defs>
<linearGradient id="paint0_linear_868_11810" x1="15.984" y1="25.084" x2="15.984" y2="2.42622" gradientUnits="userSpaceOnUse">
<stop stop-color="#773ADC"/>
<stop offset="0.817" stop-color="#A67AF4"/>
</linearGradient>
<linearGradient id="paint1_linear_868_11810" x1="21.7831" y1="7.54785" x2="21.7831" y2="17.4163" gradientUnits="userSpaceOnUse">
<stop stop-color="#C3F1FF"/>
<stop offset="0.999" stop-color="#9CEBFF"/>
</linearGradient>
<linearGradient id="paint2_linear_868_11810" x1="21.7831" y1="29.5729" x2="21.7831" y2="22.2432" gradientUnits="userSpaceOnUse">
<stop stop-color="#C3F1FF"/>
<stop offset="0.999" stop-color="#9CEBFF"/>
</linearGradient>
<clipPath id="clip0_868_11810">
<rect width="32" height="32" fill="white"/>
</clipPath>
</defs>
</svg>
