<svg width="32" height="32" viewBox="0 0 32 32" fill="none" xmlns="http://www.w3.org/2000/svg">
<path d="M24.7645 28.5863C25.3555 28.5864 25.9226 28.3528 26.3421 27.9366C26.7617 27.5203 26.9998 26.9551 27.0045 26.3641C27.0133 26.2754 27.0133 26.1861 27.0045 26.0975C26.1333 18.9863 22.1156 13.333 14.56 13.333C7.00446 13.333 2.63112 18.1863 1.77779 26.1152C1.72305 26.7061 1.90313 27.2948 2.27908 27.7539C2.65503 28.213 3.19662 28.5057 3.78668 28.5686H24.7645V28.5863Z" fill="url(#paint0_linear_868_11816)"/>
<path opacity="0.8" d="M14.4533 15.004C13.108 14.9962 11.7934 14.6012 10.6667 13.8662L14.4 23.7507L18.1689 13.9373C17.0526 14.6291 15.7666 14.9983 14.4533 15.004Z" fill="white"/>
<path d="M14.4533 15.0042C18.3513 15.0042 21.5111 11.8444 21.5111 7.94645C21.5111 4.04855 18.3513 0.888672 14.4533 0.888672C10.5554 0.888672 7.39557 4.04855 7.39557 7.94645C7.39557 11.8444 10.5554 15.0042 14.4533 15.0042Z" fill="url(#paint1_linear_868_11816)"/>
<path d="M30.2222 23.1111C30.2222 27.1644 25.3155 30.4356 24.2489 31.1111C24.1862 31.1453 24.1159 31.1633 24.0444 31.1633C23.973 31.1633 23.9027 31.1453 23.84 31.1111C22.7022 30.3822 17.7778 27.1111 17.7778 23.1111V18.1689C17.7777 18.0682 17.8164 17.9713 17.886 17.8984C17.9555 17.8256 18.0505 17.7824 18.1511 17.7778C21.9733 17.6711 21.1022 16 23.9644 16C26.8267 16 25.9378 17.6711 29.76 17.7778C29.8606 17.7824 29.9556 17.8256 30.0251 17.8984C30.0947 17.9713 30.1334 18.0682 30.1333 18.1689L30.2222 23.1111Z" fill="#005BA1"/>
<path d="M29.6355 23.111C29.6355 26.8443 25.1378 29.8487 24.16 30.4532C24.1039 30.4878 24.0393 30.5061 23.9733 30.5061C23.9074 30.5061 23.8428 30.4878 23.7867 30.4532C22.8089 29.8487 18.3111 26.8976 18.3111 23.111V18.6132C18.3087 18.5674 18.3156 18.5215 18.3315 18.4785C18.3474 18.4354 18.3719 18.396 18.4035 18.3628C18.4351 18.3295 18.4732 18.303 18.5154 18.2849C18.5576 18.2669 18.603 18.2576 18.6489 18.2576C22.2044 18.2576 21.3511 16.6221 23.9822 16.6221C26.6133 16.6221 25.76 18.1687 29.3155 18.2576C29.3614 18.2576 29.4069 18.2669 29.4491 18.2849C29.4912 18.303 29.5293 18.3295 29.5609 18.3628C29.5925 18.396 29.617 18.4354 29.6329 18.4785C29.6488 18.5215 29.6557 18.5674 29.6533 18.6132L29.6355 23.111Z" fill="url(#paint2_linear_868_11816)"/>
<defs>
<linearGradient id="paint0_linear_868_11816" x1="14.4178" y1="11.4663" x2="14.4178" y2="32.3552" gradientUnits="userSpaceOnUse">
<stop offset="0.22" stop-color="#32D4F5"/>
<stop offset="1" stop-color="#198AB3"/>
</linearGradient>
<linearGradient id="paint1_linear_868_11816" x1="13.8311" y1="0.26645" x2="15.36" y2="19.2353" gradientUnits="userSpaceOnUse">
<stop offset="0.22" stop-color="#32D4F5"/>
<stop offset="1" stop-color="#198AB3"/>
</linearGradient>
<linearGradient id="paint2_linear_868_11816" x1="23.9822" y1="30.4887" x2="23.9822" y2="16.6221" gradientUnits="userSpaceOnUse">
<stop stop-color="#1988D9"/>
<stop offset="0.9" stop-color="#54AEF0"/>
</linearGradient>
</defs>
</svg>
