<svg width="32" height="32" viewBox="0 0 32 32" fill="none" xmlns="http://www.w3.org/2000/svg">
<g clip-path="url(#clip0_850_22177)">
<path d="M32 0H0V32H32V0Z" fill="#ED7100"/>
<path fill-rule="evenodd" clip-rule="evenodd" d="M21.8168 21.9343C21.2544 22.5183 20.32 22.5367 19.7352 21.9751C19.452 21.7031 19.292 21.3359 19.284 20.9431C19.2768 20.5503 19.4224 20.1775 19.6952 19.8943C19.9672 19.6111 20.3336 19.4511 20.7272 19.4431C20.7368 19.4431 20.7464 19.4423 20.7568 19.4423C21.1384 19.4423 21.5 19.5879 21.7752 19.8535C22.3608 20.4159 22.3792 21.3495 21.8168 21.9343ZM20.7112 18.6431C20.104 18.6551 19.5384 18.9023 19.1184 19.3399C18.6984 19.7775 18.472 20.3519 18.484 20.9591C18.4968 21.5655 18.7432 22.1319 19.1808 22.5519C19.6208 22.9751 20.1888 23.1847 20.7552 23.1847C21.352 23.1847 21.948 22.9519 22.3936 22.4887C22.8136 22.0511 23.0384 21.4767 23.0272 20.8695C23.0152 20.2631 22.7672 19.6975 22.3304 19.2767C21.8928 18.8567 21.3232 18.6511 20.7112 18.6431ZM25.4016 24.0279L23.58 23.6631C23.4696 23.6415 23.356 23.6655 23.2656 23.7327L22.496 24.2951C22.4056 24.3607 22.3472 24.4607 22.3336 24.5711L22.1192 26.4095L19.2424 26.4063L19.0304 24.5807C19.0168 24.4711 18.9592 24.3711 18.8704 24.3055L18.0928 23.7295C18.0016 23.6631 17.8872 23.6375 17.776 23.6591L15.9664 24.0207L15.0784 21.2847L16.7712 20.5079C16.8728 20.4615 16.9504 20.3743 16.9856 20.2679L17.2776 19.3719C17.312 19.2655 17.3008 19.1495 17.2456 19.0519L16.3344 17.4303L18.664 15.7415L19.9152 17.1007C19.9912 17.1823 20.0984 17.2295 20.2096 17.2295H20.212L21.18 17.2239C21.2912 17.2231 21.3968 17.1767 21.4712 17.0951L22.7168 15.7447L25.0432 17.4367L24.1352 19.0519C24.0808 19.1495 24.0688 19.2639 24.1024 19.3695L24.3912 20.2759C24.4256 20.3831 24.5024 20.4703 24.6048 20.5175L26.2928 21.2927L25.4016 24.0279ZM14.3968 25.9335L5.60005 21.3447V9.82392L12.8 5.87592V9.49192L9.00325 11.6391C8.87765 11.7095 8.80005 11.8431 8.80005 11.9871V19.1871C8.80005 19.3327 8.88005 19.4671 9.00725 19.5375L14.2072 22.3999C14.328 22.4663 14.4728 22.4663 14.5936 22.3999L14.5992 22.3975L15.3144 24.6063C15.376 24.7991 15.576 24.9143 15.7728 24.8751L16.6632 24.6975L14.3968 25.9335ZM16 9.47192V5.84712L24 9.83432V15.6895L22.9 14.8879C22.736 14.7687 22.508 14.7903 22.3704 14.9407L21.0016 16.4247L20.8 16.4263V11.9871C20.8 11.8327 20.7112 11.6911 20.5704 11.6255L16 9.47192ZM26.9504 20.7143L25.1 19.8647L24.9176 19.2927L25.9144 17.5191C26.0144 17.3423 25.9656 17.1191 25.8008 16.9999L24.8 16.2711V9.58712C24.8 9.43512 24.7144 9.29672 24.5784 9.22952L15.7784 4.84232C15.6544 4.78072 15.5072 4.78632 15.3904 4.85992C15.272 4.93352 15.2 5.06152 15.2 5.20072V9.72552C15.2 9.87992 15.2896 10.0207 15.4304 10.0871L20 12.2407V16.0119L19.0112 14.9375C18.8728 14.7879 18.6472 14.7663 18.4816 14.8847L15.8112 16.8215L14.7712 15.5079L17.3736 12.2463H16.2184L13.9232 14.9423V12.2463H12.8936V18.9343H13.9232V15.8471L16.024 18.5095L16.4632 19.2911L16.2792 19.8535L14.4224 20.7055C14.2368 20.7903 14.1456 20.9999 14.208 21.1927L14.3248 21.5511L9.60005 18.9511V12.2199L13.3976 10.0735C13.5232 10.0023 13.6 9.86952 13.6 9.72552V5.20072C13.6 5.05912 13.5264 4.92792 13.404 4.85592C13.2832 4.78472 13.1328 4.78232 13.008 4.84952L5.00805 9.23592C4.88005 9.30632 4.80005 9.44072 4.80005 9.58712V21.5871C4.80005 21.7359 4.88325 21.8727 5.01525 21.9415L14.2152 26.7415C14.2728 26.7719 14.3368 26.7871 14.4 26.7871C14.4664 26.7871 14.5328 26.7703 14.592 26.7383L18.1728 24.7847L18.2552 24.8455L18.4888 26.8527C18.512 27.0535 18.6832 27.2055 18.8864 27.2063L22.4744 27.2095C22.6776 27.2095 22.8488 27.0575 22.8728 26.8559L23.1088 24.8375L23.5952 24.4823L25.5936 24.8823C25.7952 24.9239 25.9896 24.8063 26.0528 24.6143L27.164 21.2015C27.2264 21.0087 27.1344 20.7991 26.9504 20.7143Z" fill="white"/>
</g>
<defs>
<clipPath id="clip0_850_22177">
<rect width="32" height="32" fill="white"/>
</clipPath>
</defs>
</svg>
