<svg width="32" height="32" viewBox="0 0 32 32" fill="none" xmlns="http://www.w3.org/2000/svg">
<g clip-path="url(#clip0_850_22183)">
<path d="M32 0H0V32H32V0Z" fill="#ED7100"/>
<path fill-rule="evenodd" clip-rule="evenodd" d="M15.5223 12.9148V15.5642L17.8183 12.9148H18.9727L16.3719 16.1191L19.1055 19.4963H17.9671L15.5223 16.4523V19.4853H14.4935V12.9148H15.5223ZM25.5999 19.3996L22.3999 17.5141V12.6602C22.3999 12.5085 22.3103 12.3701 22.1703 12.3049L17.5999 10.1891V6.62804L25.5999 10.546V19.3996ZM26.1775 9.95101L17.3775 5.64168C17.2535 5.58038 17.1063 5.58745 16.9895 5.65897C16.8719 5.73049 16.7999 5.85703 16.7999 5.993V10.4383C16.7999 10.59 16.8887 10.7291 17.0295 10.7935L21.5999 12.9093V17.7366C21.5999 17.8749 21.6727 18.0022 21.7943 18.0729L25.7943 20.4308C25.8575 20.4685 25.9287 20.4874 25.9999 20.4874C26.0679 20.4874 26.1359 20.4701 26.1967 20.4363C26.3223 20.3663 26.3999 20.2359 26.3999 20.0944V10.3023C26.3999 10.1538 26.3135 10.017 26.1775 9.95101ZM15.9959 26.3615L7.1999 21.8533V10.535L14.3999 6.65633V10.2096L10.6031 12.3183C10.4767 12.3882 10.3999 12.5187 10.3999 12.6602V19.7336C10.3999 19.8767 10.4791 20.0087 10.6063 20.0779L15.8063 22.89C15.9271 22.9552 16.0727 22.9552 16.1919 22.8908L21.1919 20.1934L24.0287 22.0577L15.9959 26.3615ZM21.4351 19.4075C21.3103 19.3257 21.1511 19.3194 21.0199 19.3894L15.9999 22.0978L11.1999 19.5018V12.8896L14.9967 10.7802C15.1223 10.711 15.1999 10.5798 15.1999 10.4383V5.993C15.1999 5.85388 15.1255 5.72578 15.0039 5.65504C14.8823 5.58431 14.7319 5.58195 14.6071 5.64797L6.6071 9.95808C6.4791 10.0272 6.3999 10.1593 6.3999 10.3023V22.0915C6.3999 22.2384 6.4823 22.372 6.6143 22.4404L15.8143 27.1561C15.8719 27.1852 15.9367 27.2001 15.9999 27.2001C16.0655 27.2001 16.1319 27.1844 16.1911 27.1522L24.9911 22.4365C25.1135 22.3705 25.1927 22.2471 25.1991 22.1095C25.2055 21.972 25.1391 21.8415 25.0223 21.7653L21.4351 19.4075Z" fill="white"/>
</g>
<defs>
<clipPath id="clip0_850_22183">
<rect width="32" height="32" fill="white"/>
</clipPath>
</defs>
</svg>
