<svg width="32" height="32" viewBox="0 0 32 32" fill="none" xmlns="http://www.w3.org/2000/svg">
<g clip-path="url(#clip0_850_22188)">
<path d="M32 0H0V32H32V0Z" fill="#ED7100"/>
<path fill-rule="evenodd" clip-rule="evenodd" d="M24.6624 23.753L16.3336 23.7442C15.4272 23.7426 14.6344 23.153 14.4472 22.3418C14.4096 22.1722 14.3896 21.9922 14.3896 21.805C14.3896 20.4938 15.304 20.0658 15.848 19.9266C16.044 19.877 16.172 19.6898 16.1464 19.4898C16.1328 19.373 16.1256 19.2538 16.1256 19.1338C16.1256 18.0626 16.864 16.9114 17.8064 16.5122C18.2312 16.3322 18.624 16.261 18.98 16.261C19.9944 16.261 20.7104 16.841 21.0224 17.1546C21.3688 17.5018 21.64 17.9466 21.8264 18.4762C21.876 18.6162 21.9984 18.717 22.1448 18.7386C22.296 18.7586 22.4376 18.6994 22.5256 18.581C22.768 18.253 23.1576 18.109 23.5248 18.2154C23.98 18.3482 24.2792 18.8282 24.324 19.437C24.2912 19.6522 24.4368 19.8538 24.6512 19.8906C25.1776 19.9818 26.4 20.3514 26.4 21.825C26.4 23.5458 24.8096 23.7378 24.6624 23.753ZM14.396 25.933L5.60005 21.3442V9.82345L12.8 5.87545V9.49225L9.00325 11.6386C8.87765 11.709 8.80005 11.8426 8.80005 11.9866V19.1866C8.80005 19.3322 8.87925 19.4666 9.00725 19.537L13.6192 22.0762C13.632 22.2258 13.636 22.3786 13.668 22.5202C13.9376 23.6914 15.0576 24.5426 16.332 24.5442L16.9424 24.545L14.396 25.933ZM20.5704 11.625L16 9.47145V5.84665L24 9.83465V17.5666C23.916 17.5266 23.8408 17.4738 23.7488 17.4474C23.2688 17.3058 22.7624 17.3898 22.3488 17.661C22.1456 17.2522 21.8912 16.893 21.5896 16.5898C21.3456 16.3442 21.0784 16.1458 20.8 15.9802V11.9866C20.8 11.8314 20.7112 11.6906 20.5704 11.625ZM25.092 19.169C25.044 18.853 24.9344 18.5834 24.8 18.3394V9.58665C24.8 9.43545 24.7136 9.29625 24.5784 9.22905L15.7784 4.84265C15.6536 4.78025 15.5072 4.78665 15.3896 4.86025C15.272 4.93305 15.2 5.06185 15.2 5.20025V9.72505C15.2 9.88025 15.2888 10.021 15.4296 10.0866L20 12.2402V15.6258C19.2 15.3826 18.3336 15.4194 17.4936 15.7754C16.9032 16.0258 16.3848 16.4898 16.0024 17.0538L14.772 15.5074L17.3736 12.2458H16.2184L13.9224 14.9418V12.2458H12.8936V18.9338H13.9224V15.8474L15.5592 17.921C15.4136 18.3138 15.3256 18.7242 15.3256 19.1338C15.3256 19.173 15.3264 19.2122 15.3272 19.2514C14.4288 19.5826 13.8416 20.2746 13.6576 21.1842L9.60005 18.9506V12.2194L13.3968 10.073C13.5224 10.0026 13.6 9.86985 13.6 9.72505V5.20025C13.6 5.05865 13.5256 4.92825 13.404 4.85625C13.2824 4.78425 13.132 4.78265 13.008 4.84985L5.00805 9.23625C4.87925 9.30585 4.80005 9.44025 4.80005 9.58665V21.5866C4.80005 21.7362 4.88245 21.8722 5.01445 21.941L14.2144 26.741C14.2728 26.7714 14.3368 26.7866 14.4 26.7866C14.4656 26.7866 14.532 26.7698 14.5912 26.7378L18.6104 24.5466L24.6936 24.5522C25.5608 24.481 27.2 23.8202 27.2 21.825C27.2 20.2714 26.1608 19.453 25.092 19.169Z" fill="white"/>
</g>
<defs>
<clipPath id="clip0_850_22188">
<rect width="32" height="32" fill="white"/>
</clipPath>
</defs>
</svg>
