<svg width="32" height="32" viewBox="0 0 32 32" fill="none" xmlns="http://www.w3.org/2000/svg">
<g clip-path="url(#clip0_850_22210)">
<path d="M32 0H0V32H32V0Z" fill="#ED7100"/>
<path fill-rule="evenodd" clip-rule="evenodd" d="M19.1936 22.3949H19.9936V21.5949H19.1936V22.3949ZM18.7936 23.1949H20.3936C20.6152 23.1949 20.7936 23.0157 20.7936 22.7949V21.1949C20.7936 20.9733 20.6152 20.7949 20.3936 20.7949H18.7936C18.5728 20.7949 18.3936 20.9733 18.3936 21.1949V22.7949C18.3936 23.0157 18.5728 23.1949 18.7936 23.1949ZM23.1936 22.3949H23.9936V21.5949H23.1936V22.3949ZM22.7936 23.1949H24.3936C24.6152 23.1949 24.7936 23.0157 24.7936 22.7949V21.1949C24.7936 20.9733 24.6152 20.7949 24.3936 20.7949H22.7936C22.5728 20.7949 22.3936 20.9733 22.3936 21.1949V22.7949C22.3936 23.0157 22.5728 23.1949 22.7936 23.1949ZM19.1936 18.3949H19.9936V17.5949H19.1936V18.3949ZM18.7936 19.1949H20.3936C20.6152 19.1949 20.7936 19.0157 20.7936 18.7949V17.1949C20.7936 16.9733 20.6152 16.7949 20.3936 16.7949H18.7936C18.5728 16.7949 18.3936 16.9733 18.3936 17.1949V18.7949C18.3936 19.0157 18.5728 19.1949 18.7936 19.1949ZM23.1936 18.3949H23.9936V17.5949H23.1936V18.3949ZM22.7936 19.1949H24.3936C24.6152 19.1949 24.7936 19.0157 24.7936 18.7949V17.1949C24.7936 16.9733 24.6152 16.7949 24.3936 16.7949H22.7936C22.5728 16.7949 22.3936 16.9733 22.3936 17.1949V18.7949C22.3936 19.0157 22.5728 19.1949 22.7936 19.1949ZM16.7936 26.3949H26.3936V15.1949H16.7936V26.3949ZM14.396 25.9333L5.60005 21.3445V9.82365L12.8 5.87565V9.49165L9.00325 11.6389C8.87765 11.7093 8.80005 11.8429 8.80005 11.9869V19.1869C8.80005 19.3325 8.88005 19.4668 9.00725 19.5372L14.2072 22.3997C14.3272 22.4661 14.4736 22.4661 14.592 22.4005L15.9936 21.6309V25.0613L14.396 25.9333ZM20.5704 11.6253L16 9.47165V5.84685L24 9.83405V14.3949H20.8V11.9869C20.8 11.8325 20.7112 11.6909 20.5704 11.6253ZM26.7936 14.3949H24.8V9.58685C24.8 9.43485 24.7144 9.29645 24.5784 9.22925L15.7784 4.84205C15.6544 4.78045 15.5072 4.78685 15.3896 4.85965C15.272 4.93325 15.2 5.06125 15.2 5.20045V9.72525C15.2 9.87965 15.2888 10.0205 15.4296 10.0869L20 12.2405V14.3949H16.3936C16.1728 14.3949 15.9936 14.5733 15.9936 14.7949V17.0437L14.7712 15.5077L17.3736 12.2453H16.2176L13.9224 14.9421V12.2453H12.8936V18.9341H13.9224V15.8469L15.9936 18.4717V20.7173L14.4 21.5925L9.60005 18.9509V12.2197L13.3968 10.0733C13.5224 10.0021 13.6 9.86925 13.6 9.72525V5.20045C13.6 5.05885 13.5256 4.92765 13.404 4.85565C13.2832 4.78365 13.132 4.78205 13.008 4.84925L5.00805 9.23565C4.88005 9.30605 4.80005 9.44045 4.80005 9.58685V21.5869C4.80005 21.7357 4.88325 21.8725 5.01525 21.9413L14.2152 26.7413C14.2728 26.7717 14.3368 26.7869 14.4 26.7869C14.4656 26.7869 14.532 26.7701 14.5912 26.7381L15.9936 25.9725V26.7949C15.9936 27.0157 16.1728 27.1949 16.3936 27.1949H26.7936C27.0152 27.1949 27.1936 27.0157 27.1936 26.7949V14.7949C27.1936 14.5733 27.0152 14.3949 26.7936 14.3949Z" fill="white"/>
</g>
<defs>
<clipPath id="clip0_850_22210">
<rect width="32" height="32" fill="white"/>
</clipPath>
</defs>
</svg>
