<svg width="32" height="32" viewBox="0 0 32 32" fill="none" xmlns="http://www.w3.org/2000/svg">
<g clip-path="url(#clip0_850_22194)">
<path d="M32 0H0V32H32V0Z" fill="#ED7100"/>
<path fill-rule="evenodd" clip-rule="evenodd" d="M15.5231 15.2048C15.3239 15.3175 15.1999 15.5277 15.1999 15.7538V26.2999L7.1999 21.7526V11.5262L16.2023 6.40941L24.1759 10.2865L15.5231 15.2048ZM25.1639 10.2747C25.1639 10.0526 25.0423 9.8463 24.8247 9.72423L16.5111 5.68171C16.3143 5.57303 16.0735 5.57224 15.8799 5.68328L6.7231 10.8882C6.5239 11.0001 6.3999 11.2104 6.3999 11.4372V21.8424C6.3999 22.0684 6.5239 22.2787 6.7215 22.3905L15.0351 27.1158C15.1343 27.1725 15.2455 27.2001 15.3567 27.2001C15.4679 27.2001 15.5791 27.1725 15.6783 27.1158C15.8759 27.0032 15.9999 26.7929 15.9999 26.5677V15.8435L24.8463 10.815C25.0423 10.704 25.1639 10.4968 25.1639 10.2747ZM25.5999 22.0274L18.3687 26.259V22.2897L22.3639 19.89L22.3903 19.7049C22.3975 19.6569 22.3999 19.6569 22.3999 19.4324V14.9953L25.5999 13.1761V22.0274ZM26.0783 12.361C25.8799 12.2476 25.6335 12.2476 25.4351 12.3602L21.8575 14.3944C21.7015 14.4842 21.5999 14.6583 21.5999 14.8363V19.4261L17.8855 21.6565C17.6895 21.7699 17.5687 21.9786 17.5687 22.2023V26.5307C17.5687 26.7591 17.6887 26.9638 17.8895 27.0788C17.9879 27.1347 18.0991 27.1631 18.2095 27.1631C18.3223 27.1631 18.4359 27.1339 18.5383 27.0765L26.0759 22.6646C26.2751 22.5527 26.3999 22.3425 26.3999 22.1156V12.9083C26.3999 12.6799 26.2791 12.4752 26.0783 12.361Z" fill="white"/>
</g>
<defs>
<clipPath id="clip0_850_22194">
<rect width="32" height="32" fill="white"/>
</clipPath>
</defs>
</svg>
