<svg width="32" height="32" viewBox="0 0 32 32" fill="none" xmlns="http://www.w3.org/2000/svg">
<g clip-path="url(#clip0_850_22166)">
<path d="M32 0H0V32H32V0Z" fill="#ED7100"/>
<path fill-rule="evenodd" clip-rule="evenodd" d="M24.7991 19.0312L22.0895 17.5464C22.2887 16.928 22.3991 16.2704 22.3991 15.5864C22.3991 12.6112 20.3551 10.1104 17.5999 9.39685V5.91045L24.7991 10.2752V19.0312ZM15.8743 25.5944L7.1999 20.5616V10.252L14.3991 5.90885V9.39685C11.6431 10.1104 9.5991 12.6104 9.5991 15.5864C9.5991 19.1152 12.4703 21.9864 15.9991 21.9864C17.6663 21.9864 19.1823 21.34 20.3231 20.2912L22.8711 21.7456L15.8743 25.5944ZM16.6263 10.024C17.4199 10.9352 17.9063 13.0088 17.9807 15.1968H14.0231C14.1095 13.1344 14.5727 11.1288 15.3999 10.0192C15.5967 9.99845 15.7967 9.98645 15.9991 9.98645C16.2111 9.98645 16.4199 10.0008 16.6263 10.024ZM18.7839 15.1968C18.7351 13.3184 18.3895 11.4952 17.7511 10.2712C19.8639 10.9696 21.4199 12.8928 21.5791 15.1968H18.7839ZM18.7855 15.9968H21.5783C21.4127 18.2624 19.8967 20.1544 17.8319 20.8728C18.4351 19.6048 18.7503 17.8192 18.7855 15.9968ZM15.2103 21.1248C14.4159 20.0664 14.0199 18.0712 14.0079 15.9968H17.9887C17.9639 18.0152 17.5807 19.9952 16.7639 21.128C16.5127 21.1624 16.2591 21.1864 15.9991 21.1864C15.7303 21.1864 15.4687 21.1608 15.2103 21.1248ZM13.1983 15.9968C13.2111 17.8248 13.5151 19.6024 14.1199 20.8552C12.0783 20.1248 10.5839 18.2448 10.4199 15.9968H13.1983ZM10.4191 15.1968C10.5807 12.864 12.1727 10.9184 14.3255 10.2424C13.6599 11.5288 13.2863 13.3432 13.2119 15.1968H10.4191ZM25.4063 9.70725L17.4071 4.85765C17.2831 4.78245 17.1287 4.78085 17.0039 4.85125C16.8783 4.92245 16.7999 5.05525 16.7999 5.20005V9.24165C16.5367 9.20885 16.2711 9.18645 15.9991 9.18645C15.7279 9.18645 15.4615 9.20885 15.1991 9.24165V5.20005C15.1991 5.05605 15.1215 4.92245 14.9959 4.85125C14.8711 4.78085 14.7159 4.78245 14.5927 4.85765L6.5935 9.68325C6.4735 9.75605 6.3999 9.88565 6.3999 10.0264V20.792C6.3999 20.9344 6.4759 21.0664 6.5991 21.1384L15.6679 26.3992C15.7295 26.4352 15.7991 26.4536 15.8687 26.4536C15.9351 26.4536 16.0015 26.4368 16.0615 26.404L23.8823 22.1016C24.0087 22.032 24.0879 21.8992 24.0887 21.7544C24.0895 21.6096 24.0135 21.476 23.8871 21.404L20.8967 19.6984C21.2535 19.2744 21.5519 18.8016 21.7895 18.2944L25.0071 20.0576C25.0671 20.0904 25.1327 20.1064 25.1991 20.1064C25.2695 20.1064 25.3407 20.088 25.4031 20.0504C25.5247 19.9792 25.5991 19.848 25.5991 19.7064V10.0496C25.5991 9.90965 25.5263 9.78005 25.4063 9.70725Z" fill="white"/>
</g>
<defs>
<clipPath id="clip0_850_22166">
<rect width="32" height="32" fill="white"/>
</clipPath>
</defs>
</svg>
