<svg width="32" height="32" viewBox="0 0 32 32" fill="none" xmlns="http://www.w3.org/2000/svg">
<g clip-path="url(#clip0_850_22205)">
<path d="M32 0H0V32H32V0Z" fill="#ED7100"/>
<path fill-rule="evenodd" clip-rule="evenodd" d="M21.4987 23.4742V20.7313L23.0728 20.1987V22.9072L21.4987 23.4742ZM19.1435 22.4066V20.1987L20.7129 20.7305V23.4742L19.1435 22.9072V22.4066ZM18.3577 25.6693L16.7836 26.2355V23.4934L18.3577 22.9607V23.1891V25.6693ZM14.4284 23.1891V22.9607L15.9977 23.4926V26.2355L14.4284 25.6693V23.1891ZM12.0685 23.4742V20.7313L13.6425 20.1987V22.4066V22.9072L12.0685 23.4742ZM9.71326 20.1987L11.2826 20.7305V23.4742L9.71326 22.9072V20.1987ZM11.6755 19.2588L12.7985 19.6429L11.6755 20.023L10.5549 19.6429L11.6755 19.2588ZM16.3907 22.0201L17.5137 22.4042L16.3907 22.7843L15.27 22.4042L16.3907 22.0201ZM21.1058 19.2588L22.2288 19.6429L21.1058 20.023L19.9852 19.6429L21.1058 19.2588ZM23.5907 19.2668L21.2307 18.4587C21.1498 18.4307 21.061 18.4307 20.9801 18.4587L18.6249 19.2668C18.4653 19.3219 18.3584 19.4736 18.3577 19.6453V21.8508L16.5156 21.2208C16.4347 21.1928 16.3459 21.1928 16.2649 21.2208L14.4284 21.8508V19.6453C14.4276 19.4736 14.3207 19.3211 14.1604 19.2668L11.8005 18.4587C11.7195 18.4307 11.6307 18.4307 11.5498 18.4587L9.1946 19.2668C9.03507 19.3219 8.92819 19.4736 8.92741 19.6453V23.1891C8.92741 23.3576 9.03192 23.5085 9.1891 23.5652L11.5443 24.4157C11.5867 24.4308 11.6307 24.4388 11.6755 24.4388C11.7203 24.4388 11.7643 24.4308 11.8068 24.4157L13.6425 23.7545V25.9512C13.6425 26.1197 13.7471 26.2706 13.9042 26.3273L16.2594 27.1769C16.3019 27.1921 16.3459 27.2001 16.3907 27.2001C16.4355 27.2001 16.4795 27.1921 16.5219 27.1769L18.8818 26.3273C19.0382 26.2706 19.1435 26.1197 19.1435 25.9512V23.7545L20.9746 24.4157C21.017 24.4308 21.061 24.4388 21.1058 24.4388C21.1506 24.4388 21.1946 24.4308 21.237 24.4157L23.597 23.5652C23.7533 23.5085 23.8586 23.3584 23.8586 23.1891V19.6453C23.8579 19.4736 23.751 19.3211 23.5907 19.2668ZM26.4001 14.0852C26.4001 16.5462 21.0421 17.8742 16.0001 17.8742C10.9581 17.8742 5.6001 16.5462 5.6001 14.0852C5.6001 12.9146 6.8834 11.8821 9.21581 11.1778L9.43978 11.9428C7.55609 12.5121 6.38595 13.333 6.38595 14.0852C6.38595 15.5002 10.3341 17.0756 16.0001 17.0756C21.6661 17.0756 25.6142 15.5002 25.6142 14.0852C25.6142 13.5071 24.9235 12.8778 23.7188 12.3604L24.026 11.6249C25.9883 12.469 26.4001 13.4288 26.4001 14.0852ZM16.393 6.42417L20.7514 8.03559L16.393 9.66617L12.0347 8.03559L16.393 6.42417ZM20.8873 14.5356C20.081 14.9029 18.7262 15.3301 16.786 15.3836V10.3705L21.5011 8.60573V13.5805C21.5011 13.9902 21.2598 14.3655 20.8873 14.5356ZM11.285 13.5805V8.60573L16.0001 10.3705V15.3836C14.0598 15.3301 12.705 14.9029 11.8995 14.5356C11.5262 14.3655 11.285 13.9902 11.285 13.5805ZM11.5781 15.2638C12.5078 15.6878 14.0975 16.1925 16.393 16.1925C18.6885 16.1925 20.2783 15.6878 21.2087 15.2638C21.8634 14.9652 22.2869 14.304 22.2869 13.5805V8.03319C22.2869 7.8655 22.1832 7.71538 22.0284 7.65789L16.5274 5.62405C16.441 5.59211 16.3443 5.59211 16.2586 5.62405L10.7577 7.65789C10.6028 7.71538 10.4991 7.8647 10.4991 8.03239V13.5805C10.4991 14.304 10.9227 14.9652 11.5781 15.2638Z" fill="white"/>
</g>
<defs>
<clipPath id="clip0_850_22205">
<rect width="32" height="32" fill="white"/>
</clipPath>
</defs>
</svg>
