<svg width="32" height="32" viewBox="0 0 32 32" fill="none" xmlns="http://www.w3.org/2000/svg">
<g clip-path="url(#clip0_850_22199)">
<path d="M32 0H0V32H32V0Z" fill="#ED7100"/>
<path fill-rule="evenodd" clip-rule="evenodd" d="M23.8514 11.1009C23.6722 10.8121 23.4754 10.5401 23.2626 10.2857L25.8842 9.19774C26.0442 9.44974 26.281 9.82814 26.4674 10.1489L23.8514 11.1009ZM21.8242 16.1097C21.8106 15.1073 21.5802 14.1193 21.1458 13.2041L23.737 12.2609C24.141 13.1761 24.401 14.1393 24.5114 15.1329L21.8242 16.1097ZM26.2362 15.3561C26.2738 16.8473 25.9658 18.3329 25.3346 19.6841C23.0682 24.5457 17.2698 26.6537 12.409 24.3897C11.0554 23.7577 9.86343 22.8177 8.93543 21.6529L11.7218 20.6377C12.2658 21.1553 12.8858 21.5793 13.5706 21.8985C15.257 22.6849 17.1506 22.7673 18.905 22.1289C20.6586 21.4905 22.057 20.2097 22.8434 18.5233C23.1634 17.8385 23.3602 17.1161 23.4434 16.3721L26.2362 15.3561ZM5.52183 18.8913L8.11303 17.9481C8.36823 18.9257 8.82663 19.8313 9.46263 20.6097L8.15463 21.0857L8.15383 21.0865L6.77463 21.5881C6.22183 20.7577 5.80183 19.8529 5.52183 18.8913ZM10.9754 14.8577C10.9794 15.1577 11.0026 15.4593 11.0466 15.7601L8.42183 16.7161C8.36023 16.4201 8.31303 16.1265 8.28023 15.8385L10.9754 14.8577ZM20.2338 13.1785C20.8298 14.2489 21.0978 15.4521 21.0066 16.6577C20.997 16.7929 21.0562 16.9241 21.165 17.0057C21.2346 17.0593 21.3202 17.0873 21.4058 17.0873C21.4522 17.0873 21.4986 17.0793 21.5426 17.0633L22.5946 16.6809C22.5018 17.1985 22.3442 17.7017 22.1186 18.1841C21.4226 19.6785 20.1842 20.8121 18.6322 21.3769C17.0802 21.9417 15.4034 21.8697 13.9082 21.1729C13.233 20.8577 12.6282 20.4289 12.1098 19.8969C12.001 19.7833 11.833 19.7449 11.6866 19.8001L10.2778 20.3129C9.54503 19.4953 9.04023 18.5065 8.81863 17.4225L11.633 16.3985C11.817 16.3313 11.9258 16.1393 11.889 15.9465C11.7834 15.4009 11.7506 14.8497 11.7922 14.3105C11.8018 14.1753 11.7426 14.0433 11.6346 13.9617C11.5266 13.8793 11.3834 13.8585 11.2562 13.9041L10.4018 14.2153C10.4938 13.6937 10.649 13.1905 10.8706 12.7145C12.3098 9.62734 15.9914 8.28574 19.0818 9.72574C19.7458 10.0353 20.3498 10.4657 20.8762 11.0049C20.9914 11.1217 21.1658 11.1569 21.3154 11.0945L22.4826 10.6097C22.7546 10.9073 22.9946 11.2441 23.2098 11.6017L20.4458 12.6081C20.3354 12.6481 20.249 12.7345 20.2074 12.8441C20.1674 12.9537 20.1762 13.0761 20.2338 13.1785ZM6.75063 15.5441C6.71463 14.0537 7.02423 12.5673 7.65543 11.2145C9.92183 6.35374 15.7218 4.24334 20.5802 6.50974C21.8858 7.11934 23.0338 8.02974 23.9466 9.13534L21.2538 10.2537C20.7066 9.73454 20.0914 9.31374 19.4194 9.00094C15.9346 7.37454 11.7706 8.88814 10.1458 12.3761C9.83143 13.0513 9.63623 13.7745 9.55143 14.5249L6.75063 15.5441ZM27.4002 10.1921C27.1442 9.66494 26.4058 8.52974 26.3746 8.48174C26.269 8.32014 26.0618 8.25614 25.8866 8.33054L24.7226 8.81374C23.7114 7.52894 22.405 6.47934 20.9186 5.78494C15.6602 3.33374 9.38263 5.61614 6.93063 10.8761C6.16663 12.5145 5.83703 14.3337 5.98023 16.1361C5.98983 16.2609 6.05783 16.3737 6.16263 16.4409C6.26823 16.5089 6.39863 16.5241 6.51543 16.4809L7.50823 16.1193C7.55783 16.4865 7.63383 16.8625 7.72423 17.2385L4.90263 18.2657C4.70983 18.3353 4.60183 18.5401 4.65223 18.7385C4.97623 20.0265 5.52983 21.2249 6.29543 22.3009C6.37143 22.4089 6.49463 22.4697 6.62103 22.4697C6.66743 22.4697 6.71303 22.4617 6.75783 22.4457L8.16183 21.9345C9.18743 23.2913 10.5258 24.3937 12.0714 25.1145C13.5058 25.7833 15.0154 26.1001 16.5026 26.1001C20.469 26.1001 24.2754 23.8481 26.0594 20.0233C26.8242 18.3865 27.1514 16.5681 27.0058 14.7641C26.997 14.6393 26.929 14.5265 26.8242 14.4593C26.7186 14.3913 26.589 14.3769 26.4706 14.4201L25.4026 14.8089L25.2834 14.8521C25.1442 13.7801 24.8378 12.7433 24.3818 11.7585L27.1762 10.7417C27.2826 10.7033 27.3682 10.6209 27.4098 10.5169C27.453 10.4121 27.449 10.2937 27.4002 10.1921Z" fill="white"/>
</g>
<defs>
<clipPath id="clip0_850_22199">
<rect width="32" height="32" fill="white"/>
</clipPath>
</defs>
</svg>
