<svg width="32" height="32" viewBox="0 0 32 32" fill="none" xmlns="http://www.w3.org/2000/svg">
<path d="M30.1867 10.7694V2.09031C30.1867 2.04862 30.1784 2.00734 30.1622 1.96891C30.146 1.93048 30.1224 1.89566 30.0925 1.86651C30.0627 1.83737 30.0274 1.81447 29.9886 1.79917C29.9498 1.78387 29.9084 1.77648 29.8667 1.77742H21.1947C21.1327 1.77688 21.0719 1.7949 21.0202 1.82915C20.9684 1.86341 20.9281 1.91235 20.9044 1.96968C20.8807 2.02701 20.8747 2.09012 20.8872 2.1509C20.8996 2.21167 20.9299 2.26734 20.9742 2.31076L23.3636 4.70187L23.5236 4.86009C23.5819 4.919 23.6146 4.99854 23.6146 5.08142C23.6146 5.16431 23.5819 5.24384 23.5236 5.30276L13.0578 15.7668C12.9995 15.8257 12.9668 15.9052 12.9668 15.9881C12.9668 16.071 12.9995 16.1505 13.0578 16.2094L15.7547 18.9063C15.8136 18.9646 15.8931 18.9973 15.976 18.9973C16.0589 18.9973 16.1384 18.9646 16.1974 18.9063L26.6667 8.44054C26.6957 8.41146 26.7302 8.38839 26.7682 8.37265C26.8062 8.35691 26.8469 8.34881 26.888 8.34881C26.9291 8.34881 26.9698 8.35691 27.0078 8.37265C27.0458 8.38839 27.0803 8.41146 27.1094 8.44054L27.2676 8.59876L29.6534 10.9899C29.6968 11.0342 29.7524 11.0645 29.8132 11.0769C29.874 11.0894 29.9371 11.0834 29.9944 11.0597C30.0518 11.036 30.1007 10.9957 30.135 10.944C30.1692 10.8922 30.1872 10.8315 30.1867 10.7694Z" fill="url(#paint0_linear_868_12348)"/>
<path d="M23.8116 16.6702V23.0222C23.8116 23.2157 23.7348 23.4013 23.5982 23.5383C23.4616 23.6752 23.2762 23.7524 23.0827 23.7529H8.57958C8.48371 23.7529 8.38879 23.734 8.30024 23.6972C8.21169 23.6605 8.13126 23.6067 8.06355 23.5388C7.99584 23.4709 7.94219 23.3904 7.90567 23.3017C7.86914 23.2131 7.85046 23.1181 7.85069 23.0222V9.33334C7.85069 9.14003 7.92749 8.95464 8.06418 8.81794C8.20087 8.68125 8.38627 8.60446 8.57958 8.60446H15.8471C15.9532 8.60446 16.055 8.56231 16.13 8.4873C16.205 8.41228 16.2471 8.31054 16.2471 8.20445V6.67734C16.2471 6.57126 16.205 6.46952 16.13 6.3945C16.055 6.31949 15.9532 6.27734 15.8471 6.27734H6.24714C6.05366 6.27781 5.86827 6.355 5.73163 6.49198C5.59499 6.62895 5.51825 6.81453 5.51825 7.00801V25.3476C5.51825 25.5409 5.59504 25.7263 5.73174 25.863C5.86843 25.9997 6.05382 26.0765 6.24714 26.0765H25.4062C25.5021 26.0767 25.5971 26.058 25.6857 26.0215C25.7744 25.985 25.8549 25.9313 25.9228 25.8636C25.9907 25.7959 26.0445 25.7155 26.0813 25.6269C26.118 25.5384 26.1369 25.4434 26.1369 25.3476V16.6702C26.1369 16.6176 26.1265 16.5654 26.1063 16.5167C26.0861 16.4681 26.0565 16.4239 26.0191 16.3868C25.9818 16.3496 25.9375 16.3202 25.8888 16.3002C25.84 16.2802 25.7878 16.27 25.7351 16.2702H24.2116C24.1055 16.2702 24.0038 16.3124 23.9287 16.3874C23.8537 16.4624 23.8116 16.5641 23.8116 16.6702Z" fill="#B3B3B3"/>
<path d="M29.7369 28.3906H27.9058V30.2217H29.7369V28.3906Z" fill="#76BC2D"/>
<path d="M26.0391 30.2217H24.1778V28.3906H26.0444L26.0391 30.2217ZM22.3058 30.2217H20.4444V28.3906H22.3093L22.3058 30.2217ZM18.5724 30.2217H16.7111V28.3906H18.5778L18.5724 30.2217ZM14.8391 30.2217H12.9778V28.3906H14.8409L14.8391 30.2217ZM11.1058 30.2217H9.24444V28.3906H11.1111L11.1058 30.2217ZM7.37244 30.2217H5.51111V28.3906H7.376L7.37244 30.2217Z" fill="#76BC2D"/>
<path d="M3.64447 28.3906H1.81335V30.2217H3.64447V28.3906Z" fill="#76BC2D"/>
<path d="M3.64447 26.5241H1.81335V24.6592H3.64447V26.5241ZM3.64447 22.7908H1.81335V20.9241H3.64447V22.7908ZM3.64447 19.0574H1.81335V17.1943H3.64447V19.0574ZM3.64447 15.3241H1.81335V13.461H3.64447V15.3241ZM3.64447 11.5908H1.81335V9.72943H3.64447V11.5908ZM3.64447 7.85743H1.81335V5.99609H3.64447V7.85743Z" fill="#76BC2D"/>
<path d="M3.64447 2.2998H1.81335V4.13092H3.64447V2.2998Z" fill="#76BC2D"/>
<path d="M14.8409 4.13092H12.9778V2.2998H14.8409V4.13092ZM11.1076 4.13092H9.24444V2.2998H11.1111L11.1076 4.13092ZM7.37422 4.13092H5.51111V2.2998H7.376L7.37422 4.13092Z" fill="#76BC2D"/>
<path d="M29.7351 26.5241H27.9111V24.6592H29.7405L29.7351 26.5241ZM29.7351 22.7908H27.9111V20.9241H29.7405L29.7351 22.7908ZM29.7351 19.0574H27.9111V17.1943H29.7405L29.7351 19.0574Z" fill="#76BC2D"/>
<defs>
<linearGradient id="paint0_linear_868_12348" x1="17.3814" y1="-2.3488" x2="26.7787" y2="23.1605" gradientUnits="userSpaceOnUse">
<stop stop-color="#6BB9F2"/>
<stop offset="1" stop-color="#1B93EB"/>
</linearGradient>
</defs>
</svg>
