<svg width="32" height="32" viewBox="0 0 32 32" fill="none" xmlns="http://www.w3.org/2000/svg">
<path d="M32 18.9102C31.9486 17.2054 31.2928 15.5743 30.1497 14.3085C29.0066 13.0426 27.4508 12.2244 25.76 12C25.6559 9.61848 24.6182 7.3738 22.8714 5.75178C21.1246 4.12976 18.8093 3.2609 16.4267 3.33329C14.4998 3.29717 12.6093 3.86083 11.0168 4.94627C9.42435 6.0317 8.20859 7.58525 7.53778 9.39195C5.50198 9.64003 3.6224 10.6092 2.2396 12.1237C0.856806 13.6383 0.0622829 15.598 0 17.648C0.0898196 19.9506 1.08836 22.1238 2.77701 23.6919C4.46565 25.2599 6.7068 26.0949 9.00978 26.0142C9.27822 26.0142 9.54311 26.0017 9.80444 25.9804H24.3947C24.5253 25.9782 24.6551 25.9585 24.7804 25.9217C26.6555 25.9088 28.4532 25.1722 29.7983 23.8658C31.1435 22.5594 31.9322 20.7841 32 18.9102Z" fill="url(#paint0_linear_868_12351)"/>
<path d="M20.3414 14.7305C27.2071 14.7305 31.4009 19.8398 31.7369 26.8194C31.7487 27.0583 31.7118 27.2972 31.6286 27.5215C31.5453 27.7459 31.4173 27.9509 31.2524 28.1243C31.0875 28.2977 30.8891 28.4358 30.6692 28.5302C30.4494 28.6246 30.2126 28.6734 29.9734 28.6736H10.7129C10.4739 28.6719 10.2377 28.622 10.0184 28.527C9.79914 28.432 9.60127 28.2937 9.43664 28.1204C9.27202 27.9472 9.14402 27.7425 9.06029 27.5186C8.97656 27.2948 8.93883 27.0563 8.94936 26.8176C9.29247 19.8398 13.488 14.7305 20.3414 14.7305Z" fill="#50E6FF"/>
<path d="M10.7129 27.49C10.6337 27.4912 10.555 27.476 10.4819 27.4454C10.4088 27.4148 10.3428 27.3695 10.288 27.3122C10.2322 27.2544 10.1889 27.1858 10.1607 27.1106C10.1326 27.0353 10.1202 26.9551 10.1245 26.8749C10.4534 20.2046 15.0454 15.9131 20.3414 15.9131C25.6374 15.9131 30.2418 20.2046 30.5618 26.8749C30.566 26.9551 30.5537 27.0353 30.5256 27.1106C30.4974 27.1858 30.4541 27.2544 30.3982 27.3122C30.3435 27.3695 30.2775 27.4148 30.2043 27.4454C30.1312 27.476 30.0526 27.4912 29.9734 27.49H10.7129Z" fill="url(#paint1_linear_868_12351)"/>
<path d="M25.8666 19.591C24.5013 18.359 22.764 17.6177 20.9297 17.4844V21.3333C21.7701 21.4432 22.5641 21.7821 23.2249 22.3128L25.8666 19.591Z" fill="#9CEBFF"/>
<path d="M14.8177 19.591L17.4595 22.3075C18.1209 21.7786 18.9148 21.4416 19.7546 21.3333V17.4844C17.9204 17.6177 16.1831 18.359 14.8177 19.591Z" fill="#50E6FF"/>
<path d="M24.0569 23.1626C24.5763 23.8514 24.9044 24.6652 25.008 25.5217H28.7413C28.6203 23.6545 27.9045 21.8751 26.6987 20.4443L24.0569 23.1626Z" fill="#9CEBFF"/>
<path d="M16.6293 23.1626L13.9858 20.4443C12.7785 21.8742 12.0602 23.6527 11.936 25.5199H15.6693C15.7751 24.663 16.1064 23.8496 16.6293 23.1626Z" fill="#32BEDD"/>
<path d="M27.2178 22.3204C27.161 22.1753 27.0491 22.0586 26.9064 21.996C26.7638 21.9333 26.6021 21.9298 26.4569 21.9861L20.9458 24.1835L21.3742 25.2786L26.8854 23.083C27.0302 23.0256 27.1465 22.9131 27.2088 22.7702C27.2711 22.6273 27.2743 22.4656 27.2178 22.3204Z" fill="#32BEDD"/>
<path d="M20.3414 26.5834C21.2289 26.5834 21.9485 25.8638 21.9485 24.9763C21.9485 24.0887 21.2289 23.3691 20.3414 23.3691C19.4538 23.3691 18.7343 24.0887 18.7343 24.9763C18.7343 25.8638 19.4538 26.5834 20.3414 26.5834Z" fill="#767676"/>
<defs>
<linearGradient id="paint0_linear_868_12351" x1="16" y1="26.0142" x2="16" y2="3.33329" gradientUnits="userSpaceOnUse">
<stop stop-color="#0078D4"/>
<stop offset="1" stop-color="#5EA0EF"/>
</linearGradient>
<linearGradient id="paint1_linear_868_12351" x1="20.3431" y1="16.3273" x2="20.3431" y2="27.2446" gradientUnits="userSpaceOnUse">
<stop stop-color="white"/>
<stop offset="1" stop-color="#F2F2F2"/>
</linearGradient>
</defs>
</svg>
