<svg width="32" height="32" viewBox="0 0 32 32" fill="none" xmlns="http://www.w3.org/2000/svg">
<g clip-path="url(#clip0_868_12347)">
<path d="M13.8187 6.54578L0 20.3644V29.0916C0.000470976 29.8628 0.307047 30.6023 0.852384 31.1476C1.39772 31.693 2.13722 31.9995 2.90844 32H29.0916C29.8628 31.9995 30.6023 31.693 31.1476 31.1476C31.693 30.6023 31.9995 29.8628 32 29.0916V2.90844C31.9995 2.13722 31.693 1.39772 31.1476 0.852384C30.6023 0.307047 29.8628 0.000470976 29.0916 0L27.6356 0L17.4542 10.1813L13.8187 6.54578Z" fill="url(#paint0_linear_868_12347)"/>
<path d="M13.8187 15.2727L1.04178 28.0496C0.679271 28.3303 0.417378 28.7208 0.295283 29.1627C0.173188 29.6046 0.197453 30.0742 0.364448 30.5011C0.615975 30.9554 0.984596 31.334 1.43199 31.5976C1.87938 31.8611 2.3892 32 2.90845 31.9998H29.0916C29.8628 31.9993 30.6023 31.6928 31.1476 31.1474C31.693 30.6021 31.9995 29.8626 32 29.0914V4.36426L17.4542 18.9083L13.8187 15.2727Z" fill="url(#paint1_linear_868_12347)"/>
<path d="M17.4542 10.1813L27.6356 0H2.90844C2.13722 0.000470976 1.39772 0.307047 0.852384 0.852384C0.307047 1.39772 0.000470976 2.13722 0 2.90844L0 20.3644L13.8187 6.54578L17.4542 10.1813Z" fill="url(#paint2_linear_868_12347)"/>
</g>
<defs>
<linearGradient id="paint0_linear_868_12347" x1="27.7351" y1="35.1644" x2="4.51022" y2="-2.76267" gradientUnits="userSpaceOnUse">
<stop stop-color="#0078D4"/>
<stop offset="1" stop-color="#289BF2"/>
</linearGradient>
<linearGradient id="paint1_linear_868_12347" x1="9.13423" y1="4.00337" x2="23.5911" y2="31.5483" gradientUnits="userSpaceOnUse">
<stop stop-color="#00CCF9"/>
<stop offset="1" stop-color="#0095E6"/>
</linearGradient>
<linearGradient id="paint2_linear_868_12347" x1="10.2542" y1="-0.108445" x2="17.28" y2="20.1742" gradientUnits="userSpaceOnUse">
<stop stop-color="#7CECFF"/>
<stop offset="1" stop-color="#50E6FF"/>
</linearGradient>
<clipPath id="clip0_868_12347">
<rect width="32" height="32" fill="white"/>
</clipPath>
</defs>
</svg>
