<svg width="32" height="32" viewBox="0 0 32 32" fill="none" xmlns="http://www.w3.org/2000/svg">
<path d="M7.0357 23.2725L1.21542 29.0928C0.778034 29.5302 0.778034 30.2393 1.21542 30.6767L1.31599 30.7773C1.75338 31.2147 2.46252 31.2147 2.89991 30.7773L8.72018 24.957C9.15757 24.5196 9.15757 23.8105 8.72018 23.3731L8.61962 23.2725C8.18223 22.8351 7.47308 22.8351 7.0357 23.2725Z" fill="#198AB3"/>
<path d="M30.2222 7.73302C29.8756 6.88243 29.428 6.07664 28.8889 5.33302C28.0137 4.16766 26.9175 3.18618 25.6628 2.44465C24.4082 1.70312 23.0197 1.21608 21.5768 1.01136C20.1338 0.806638 18.6647 0.888251 17.2533 1.25153C15.8419 1.61481 14.5159 2.25264 13.3511 3.12858L13.2444 3.21746C11.3153 4.70117 9.93334 6.78344 9.31555 9.13746C9.31555 9.52858 9.13777 9.91969 9.08444 10.3108C8.82204 12.0797 8.99048 13.8858 9.57544 15.5757C10.1604 17.2656 11.1446 18.7893 12.4444 20.0175C12.5662 20.1451 12.6969 20.2639 12.8355 20.373L13.2267 20.693C13.7479 21.1018 14.3075 21.459 14.8978 21.7597L15.0755 21.8664L15.3778 21.9908L15.6267 22.1152L15.8933 22.2219L16.1778 22.3286L16.4267 22.4175L16.7822 22.5241H16.9778L17.4933 22.6664L18.0622 22.7908H18.2044C18.3524 22.8006 18.5009 22.8006 18.6489 22.7908H18.8267H20.7289H21.1378H21.3511C21.8076 22.7363 22.2593 22.6471 22.7022 22.5241C24.1297 22.1422 25.4658 21.4772 26.6311 20.5686C27.3825 19.9861 28.0575 19.3111 28.64 18.5597C29.8107 17.0426 30.5712 15.2496 30.8483 13.3535C31.1254 11.4573 30.9098 9.52172 30.2222 7.73302ZM27.6444 6.07969H25.4755C25.1145 5.01898 24.5864 4.02273 23.9111 3.12858C25.4053 3.77161 26.7092 4.7878 27.6978 6.07969H27.6444ZM20.6933 2.52413C21.4484 2.85588 22.1243 3.34449 22.676 3.95752C23.2277 4.57055 23.6427 5.29395 23.8933 6.07969H20.6933V2.52413ZM20.6933 7.57302H24.3733C24.7134 8.79648 24.9102 10.0553 24.96 11.3241H20.6933V7.57302ZM20.6933 12.7464H24.96C24.9116 14.0212 24.7147 15.286 24.3733 16.5152H20.7467V12.6752L20.6933 12.7464ZM15.1467 10.2041C15.2324 9.29045 15.3989 8.38616 15.6444 7.50191H19.3244V11.253H15.0755C15.0933 10.8975 15.1111 10.5419 15.1467 10.2041ZM19.3244 2.45302V6.00858H16.1422C16.3867 5.22244 16.7975 4.49808 17.3465 3.88461C17.8956 3.27114 18.5701 2.78291 19.3244 2.45302ZM14.1155 4.33747C14.7239 3.88798 15.3797 3.50645 16.0711 3.19969C15.3992 4.10245 14.8715 5.10399 14.5067 6.16858H12.4444C12.9242 5.49189 13.4854 4.87688 14.1155 4.33747ZM11.4667 7.50191H14.2222C14.0208 8.28423 13.8782 9.08053 13.7955 9.88413C13.7955 10.3286 13.7067 10.7908 13.7067 11.253H10.4C10.4625 10.8037 10.5515 10.3585 10.6667 9.91969C10.8358 9.08471 11.1044 8.27299 11.4667 7.50191ZM10.4 12.6752H13.6533C13.6978 13.9492 13.8887 15.2138 14.2222 16.4441H11.4667C10.8539 15.2753 10.4907 13.9918 10.4 12.6752ZM12.4444 17.9019H14.5955C14.9566 18.9626 15.4847 19.9589 16.16 20.853C14.6904 20.2017 13.4115 19.1859 12.4444 17.9019ZM19.36 21.4575C18.6057 21.1276 17.9311 20.6393 17.3821 20.0259C16.833 19.4124 16.4223 18.688 16.1778 17.9019H19.36V21.4575ZM19.36 16.4086H15.6444C15.3092 15.1786 15.1183 13.9138 15.0755 12.6397H19.3244V16.4441L19.36 16.4086ZM22.08 20.7108C21.7053 21.049 21.2629 21.3035 20.7822 21.4575V17.9019H23.9822C23.5534 18.9811 22.8917 19.9523 22.0444 20.7464L22.08 20.7108ZM25.9555 19.5552C25.329 20.0446 24.6418 20.4509 23.9111 20.7641C24.5864 19.87 25.1145 18.8737 25.4755 17.813H27.6978C27.195 18.4668 26.6094 19.0525 25.9555 19.5552ZM28.5867 16.3908H25.92C26.2181 15.155 26.3908 13.8923 26.4355 12.6219H29.6533C29.5748 13.9575 29.2111 15.2608 28.5867 16.4441V16.3908ZM26.4355 11.253C26.3896 9.98855 26.2169 8.73189 25.92 7.50191H28.6044C29.2065 8.66868 29.5691 9.94405 29.6711 11.253H26.4355Z" fill="url(#paint0_radial_868_12342)"/>
<path d="M11.3067 26.631C15.2733 26.631 18.4889 23.4155 18.4889 19.4488C18.4889 15.4822 15.2733 12.2666 11.3067 12.2666C7.34004 12.2666 4.12445 15.4822 4.12445 19.4488C4.12445 23.4155 7.34004 26.631 11.3067 26.631Z" fill="#50E6FF"/>
<path d="M11.2889 24.9596C14.4013 24.9596 16.9244 22.4365 16.9244 19.324C16.9244 16.2116 14.4013 13.6885 11.2889 13.6885C8.17644 13.6885 5.65332 16.2116 5.65332 19.324C5.65332 22.4365 8.17644 24.9596 11.2889 24.9596Z" fill="white"/>
<path d="M8.39114 19.4492L9.81336 22.7558L11.2534 18.507L12.4445 20.9247L13.92 18.4358H16.2134C16.1613 18.1528 16.09 17.8737 16 17.6003H13.5289L12.5689 19.2181L11.0934 16.4092L9.72447 20.4447L8.48003 17.5825L6.95114 20.3736H6.13336C6.19525 20.6601 6.28455 20.9399 6.40003 21.2092H7.43114L8.39114 19.4492Z" fill="#76BC2D"/>
<defs>
<radialGradient id="paint0_radial_868_12342" cx="0" cy="0" r="1" gradientUnits="userSpaceOnUse" gradientTransform="translate(20.006 11.6125) scale(10.6951)">
<stop stop-color="#5EA0EF"/>
<stop offset="0.28" stop-color="#5B9FEE"/>
<stop offset="0.47" stop-color="#529BEC"/>
<stop offset="0.64" stop-color="#4394E7"/>
<stop offset="0.79" stop-color="#2D8BE1"/>
<stop offset="0.93" stop-color="#117FD9"/>
<stop offset="1" stop-color="#0078D4"/>
</radialGradient>
</defs>
</svg>
