<svg width="32" height="32" viewBox="0 0 32 32" fill="none" xmlns="http://www.w3.org/2000/svg">
<g clip-path="url(#clip0_868_10840)">
<path d="M24.8889 29.9551C25.1969 29.9598 25.5027 29.903 25.7884 29.7878C26.0741 29.6727 26.3339 29.5016 26.5525 29.2846C26.7711 29.0677 26.9442 28.8092 27.0615 28.5244C27.1788 28.2396 27.238 27.9342 27.2356 27.6262C27.2449 27.5316 27.2449 27.4363 27.2356 27.3417C26.3111 19.964 22.1156 13.9551 14.08 13.9551C6.04445 13.9551 1.77778 19.0395 0.90667 27.3595C0.846914 27.9835 1.03548 28.6058 1.43149 29.0917C1.8275 29.5776 2.39904 29.8878 3.02223 29.9551H24.8889Z" fill="url(#paint0_linear_868_10840)"/>
<path d="M14.2222 15.6977C12.7979 15.7017 11.4028 15.2943 10.2044 14.5244L14.08 24.8889L18.0267 14.5955C16.8809 15.2987 15.5665 15.6795 14.2222 15.6977Z" fill="white"/>
<path d="M14.1333 15.7153C18.2276 15.7153 21.5467 12.3963 21.5467 8.30201C21.5467 4.20773 18.2276 0.888672 14.1333 0.888672C10.0391 0.888672 6.72 4.20773 6.72 8.30201C6.72 12.3963 10.0391 15.7153 14.1333 15.7153Z" fill="url(#paint1_linear_868_10840)"/>
<path d="M31.0933 19.7871V27.3249L24.6222 31.1116V23.5738L31.0933 19.7871Z" fill="#32BEDD"/>
<path d="M31.0933 19.7867L24.6222 23.5733L18.1511 19.7867L24.6222 16L31.0933 19.7867Z" fill="#9CEBFF"/>
<path d="M24.6222 23.5738V31.1116L18.1511 27.3249V19.7871L24.6222 23.5738Z" fill="#50E6FF"/>
<path d="M18.1511 27.3244L24.6222 23.5732V31.111L18.1511 27.3244Z" fill="#9CEBFF"/>
<path d="M31.0933 27.3244L24.6222 23.5732V31.111L31.0933 27.3244Z" fill="#50E6FF"/>
</g>
<defs>
<linearGradient id="paint0_linear_868_10840" x1="14.0978" y1="31.9106" x2="14.0978" y2="9.99063" gradientUnits="userSpaceOnUse">
<stop stop-color="#5E9624"/>
<stop offset="1" stop-color="#B4EC36"/>
</linearGradient>
<linearGradient id="paint1_linear_868_10840" x1="14.1333" y1="16.3731" x2="14.1333" y2="-3.59133" gradientUnits="userSpaceOnUse">
<stop stop-color="#5E9624"/>
<stop offset="1" stop-color="#B4EC36"/>
</linearGradient>
<clipPath id="clip0_868_10840">
<rect width="32" height="32" fill="white"/>
</clipPath>
</defs>
</svg>
