<svg width="32" height="32" viewBox="0 0 32 32" fill="none" xmlns="http://www.w3.org/2000/svg">
<path d="M11.7333 21.6885H20.2667V30.2218H11.7333V21.6885ZM1.77777 10.3107H10.3111V1.77734H2.96888C2.65298 1.77734 2.35002 1.90284 2.12664 2.12621C1.90326 2.34959 1.77777 2.65255 1.77777 2.96845V10.3107ZM2.96888 30.2218H10.3111V21.6885H1.77777V29.0307C1.77777 29.3466 1.90326 29.6495 2.12664 29.8729C2.35002 30.0963 2.65298 30.2218 2.96888 30.2218ZM1.77777 20.2662H10.3111V11.7329H1.77777V20.2662ZM21.6889 30.2218H29.0311C29.347 30.2218 29.65 30.0963 29.8733 29.8729C30.0967 29.6495 30.2222 29.3466 30.2222 29.0307V21.6885H21.6889V30.2218ZM11.7333 20.2662H20.2667V11.7329H11.7333V20.2662ZM21.6889 20.2662H30.2222V11.7329H21.6889V20.2662ZM21.6889 1.77734V10.3107H30.2222V2.96845C30.2222 2.65255 30.0967 2.34959 29.8733 2.12621C29.65 1.90284 29.347 1.77734 29.0311 1.77734H21.6889ZM11.7333 10.3107H20.2667V1.77734H11.7333V10.3107Z" fill="url(#paint0_linear_868_10837)"/>
<defs>
<linearGradient id="paint0_linear_868_10837" x1="16" y1="30.2218" x2="16" y2="1.77734" gradientUnits="userSpaceOnUse">
<stop stop-color="#0078D4"/>
<stop offset="0.16" stop-color="#1380DA"/>
<stop offset="0.53" stop-color="#3C91E5"/>
<stop offset="0.82" stop-color="#559CEC"/>
<stop offset="1" stop-color="#5EA0EF"/>
</linearGradient>
</defs>
</svg>
