<svg width="32" height="32" viewBox="0 0 32 32" fill="none" xmlns="http://www.w3.org/2000/svg">
<path d="M19.4489 0.888672H3.18224C2.6815 0.888672 2.27557 1.2946 2.27557 1.79534V30.1864C2.27557 30.6872 2.6815 31.0931 3.18224 31.0931H19.4489C19.9496 31.0931 20.3556 30.6872 20.3556 30.1864V1.79534C20.3556 1.2946 19.9496 0.888672 19.4489 0.888672Z" fill="url(#paint0_linear_868_10842)"/>
<path d="M11.84 28.7285H10.7733C10.5082 28.7285 10.2933 28.9434 10.2933 29.2085V29.973C10.2933 30.2381 10.5082 30.453 10.7733 30.453H11.84C12.1051 30.453 12.32 30.2381 12.32 29.973V29.2085C12.32 28.9434 12.1051 28.7285 11.84 28.7285Z" fill="#F2F2F2"/>
<path d="M13.1378 1.90234H9.47557C9.33812 1.90234 9.22668 2.01378 9.22668 2.15123V2.20457C9.22668 2.34202 9.33812 2.45345 9.47557 2.45345H13.1378C13.2753 2.45345 13.3867 2.34202 13.3867 2.20457V2.15123C13.3867 2.01378 13.2753 1.90234 13.1378 1.90234Z" fill="#F2F2F2"/>
<path opacity="0.9" d="M18.3111 3.44922H4.30219C4.11564 3.44922 3.96442 3.60045 3.96442 3.787V27.3781C3.96442 27.5647 4.11564 27.7159 4.30219 27.7159H18.3111C18.4976 27.7159 18.6489 27.5647 18.6489 27.3781V3.787C18.6489 3.60045 18.4976 3.44922 18.3111 3.44922Z" fill="url(#paint1_linear_868_10842)"/>
<path d="M28.2844 27.9292L27.4133 26.1515C27.4001 26.1206 27.3933 26.0873 27.3933 26.0537C27.3933 26.0201 27.4001 25.9868 27.4133 25.9559L27.7155 24.907C27.7265 24.867 27.7467 24.83 27.7745 24.7992C27.8023 24.7683 27.8369 24.7444 27.8755 24.7292L29.6533 24.0892C29.6991 24.0649 29.7378 24.0293 29.7659 23.9857C29.7939 23.9421 29.8102 23.8921 29.8133 23.8404V22.187L29.7067 22.0981L27.9289 21.4937C27.8907 21.483 27.856 21.4626 27.828 21.4346C27.7999 21.4066 27.7796 21.3718 27.7689 21.3337L27.3778 20.3026C27.3518 20.2338 27.3518 20.158 27.3778 20.0892L28.1244 18.5604C28.1576 18.517 28.1756 18.4639 28.1756 18.4092C28.1756 18.3546 28.1576 18.3015 28.1244 18.2581L26.9511 17.067C26.9066 17.0364 26.8539 17.0201 26.8 17.0201C26.746 17.0201 26.6933 17.0364 26.6489 17.067L25.1555 17.8137C25.1124 17.8339 25.0643 17.8413 25.017 17.835C24.9697 17.8287 24.9252 17.809 24.8889 17.7781L23.8755 17.4759C23.8333 17.4701 23.7938 17.4517 23.7621 17.4232C23.7304 17.3946 23.708 17.3573 23.6978 17.3159L23.0222 15.5381C23.004 15.4865 22.9703 15.4418 22.9258 15.41C22.8813 15.3782 22.828 15.3609 22.7733 15.3604H21.1555H21.0667L20.4622 17.1381C20.4479 17.1743 20.4263 17.2072 20.3988 17.2347C20.3713 17.2622 20.3384 17.2838 20.3022 17.2981L19.2533 17.6892C19.1846 17.7152 19.1087 17.7152 19.04 17.6892L17.2622 16.8004C17.2178 16.7698 17.1651 16.7534 17.1111 16.7534C17.0571 16.7534 17.0045 16.7698 16.96 16.8004L15.9289 17.8137C15.9024 17.8596 15.8884 17.9117 15.8884 17.9648C15.8884 18.0178 15.9024 18.07 15.9289 18.1159L16.8 19.8937C16.8259 19.9624 16.8259 20.0383 16.8 20.107L16.3022 21.3337C16.2879 21.3699 16.2663 21.4028 16.2388 21.4303C16.2113 21.4578 16.1784 21.4794 16.1422 21.4937L14.2222 22.0804C14.1706 22.0986 14.1259 22.1323 14.0941 22.1768C14.0623 22.2213 14.045 22.2745 14.0444 22.3292V23.7692C14.0387 23.8253 14.0535 23.8815 14.0863 23.9273C14.119 23.9731 14.1673 24.0054 14.2222 24.0181L16 24.6226C16.0362 24.6369 16.0691 24.6585 16.0966 24.686C16.1241 24.7135 16.1457 24.7464 16.16 24.7826L16.5867 25.8137C16.6038 25.8466 16.6127 25.8832 16.6127 25.9204C16.6127 25.9575 16.6038 25.9941 16.5867 26.027L15.6978 27.8048C15.6728 27.848 15.6597 27.8971 15.6597 27.947C15.6597 27.9969 15.6728 28.046 15.6978 28.0892L16.7111 29.1381C16.7573 29.1727 16.8134 29.1915 16.8711 29.1915C16.9288 29.1915 16.9849 29.1727 17.0311 29.1381L18.8089 28.267C18.8418 28.2499 18.8784 28.2409 18.9155 28.2409C18.9527 28.2409 18.9893 28.2499 19.0222 28.267L20.0533 28.6937C20.1227 28.7282 20.1788 28.7843 20.2133 28.8537L20.8889 30.7737C20.9071 30.8253 20.9408 30.87 20.9853 30.9018C21.0298 30.9336 21.0831 30.9509 21.1378 30.9515H22.5778C22.6347 30.9497 22.6896 30.9298 22.7344 30.8946C22.7792 30.8594 22.8115 30.8108 22.8267 30.7559L23.4311 28.9781C23.4656 28.9088 23.5218 28.8526 23.5911 28.8181L24.8889 28.4448C24.9573 28.4171 25.0338 28.4171 25.1022 28.4448L26.9689 29.3159C27.0123 29.3491 27.0654 29.367 27.12 29.367C27.1746 29.367 27.2277 29.3491 27.2711 29.3159L28.2844 28.3026C28.3109 28.2792 28.3321 28.2505 28.3467 28.2183C28.3612 28.1861 28.3687 28.1512 28.3687 28.1159C28.3687 28.0806 28.3612 28.0457 28.3467 28.0135C28.3321 27.9813 28.3109 27.9526 28.2844 27.9292ZM21.0311 25.4937C20.5728 25.3027 20.1815 24.9799 19.9069 24.5662C19.6323 24.1526 19.4867 23.6666 19.4886 23.1701C19.4905 22.6736 19.6399 22.1888 19.9177 21.7773C20.1955 21.3658 20.5893 21.046 21.0491 20.8586C21.5089 20.6712 22.014 20.6246 22.5003 20.7246C22.9867 20.8247 23.4324 21.0669 23.7808 21.4206C24.1293 21.7743 24.3649 22.2235 24.4577 22.7113C24.5506 23.199 24.4964 23.7034 24.3022 24.1604C24.0434 24.7694 23.5542 25.2513 22.9414 25.5011C22.3286 25.7509 21.6419 25.7482 21.0311 25.4937Z" fill="#949494"/>
<path d="M24.2884 24.1472C24.8217 22.8803 24.227 21.421 22.9601 20.8876C21.6932 20.3543 20.2339 20.949 19.7005 22.2159C19.1672 23.4827 19.7619 24.9421 21.0288 25.4754C22.2957 26.0088 23.755 25.4141 24.2884 24.1472Z" fill="white"/>
<defs>
<linearGradient id="paint0_linear_868_10842" x1="11.3067" y1="39.1642" x2="11.3067" y2="-3.28911" gradientUnits="userSpaceOnUse">
<stop stop-color="#0078D4"/>
<stop offset="0.17" stop-color="#1C84DC"/>
<stop offset="0.38" stop-color="#3990E4"/>
<stop offset="0.59" stop-color="#4D99EA"/>
<stop offset="0.8" stop-color="#5A9EEE"/>
<stop offset="1" stop-color="#5EA0EF"/>
</linearGradient>
<linearGradient id="paint1_linear_868_10842" x1="11.3066" y1="27.6981" x2="11.3066" y2="3.44922" gradientUnits="userSpaceOnUse">
<stop stop-color="#D2EBFF"/>
<stop offset="1" stop-color="#F0FFFD"/>
</linearGradient>
</defs>
</svg>
