<svg width="32" height="32" viewBox="0 0 32 32" fill="none" xmlns="http://www.w3.org/2000/svg">
<g clip-path="url(#clip0_868_10831)">
<path d="M22.3538 12.4622C22.3538 19.6373 13.52 25.4151 11.6 26.5867C11.4894 26.6531 11.3628 26.6882 11.2338 26.6882C11.1047 26.6882 10.9781 26.6531 10.8675 26.5867C8.94577 25.4222 0.11377 19.6373 0.11377 12.4622V3.82756C0.116063 3.64705 0.188667 3.47455 0.316149 3.34674C0.443631 3.21893 0.615936 3.14587 0.796436 3.14311C7.66577 2.96178 6.08532 0 11.2338 0C16.3822 0 14.8 2.96178 21.6711 3.14311C21.8516 3.14587 22.0239 3.21893 22.1514 3.34674C22.2789 3.47455 22.3515 3.64705 22.3538 3.82756V12.4622Z" fill="#5EA0EF"/>
<path d="M21.4311 12.535C21.4311 19.1128 13.3315 24.4141 11.5698 25.4879C11.4684 25.549 11.3522 25.5813 11.2338 25.5813C11.1154 25.5813 10.9992 25.549 10.8978 25.4879C9.13599 24.4212 1.03644 19.1163 1.03644 12.535V4.62209C1.03828 4.45653 1.10474 4.29824 1.22165 4.181C1.33856 4.06376 1.49666 3.99684 1.66222 3.99453C7.96266 3.82209 6.51199 1.10742 11.2338 1.10742C15.9555 1.10742 14.5049 3.82209 20.8 3.9892C20.9655 3.99151 21.1236 4.05842 21.2406 4.17566C21.3575 4.29291 21.4239 4.45119 21.4258 4.61676L21.4311 12.535Z" fill="url(#paint0_linear_868_10831)"/>
<path d="M10.8978 15.3437H31.1964C31.3696 15.3345 31.5394 15.3942 31.6686 15.5098C31.7979 15.6254 31.8761 15.7875 31.8862 15.9606V31.3828C31.8761 31.5559 31.7979 31.718 31.6686 31.8336C31.5394 31.9492 31.3696 32.0089 31.1964 31.9997H10.8978C10.7246 32.0089 10.5548 31.9492 10.4256 31.8336C10.2963 31.718 10.2181 31.5559 10.208 31.3828V15.9606C10.2185 15.7876 10.2969 15.6258 10.426 15.5103C10.5552 15.3948 10.7247 15.335 10.8978 15.3437Z" fill="#83B9F9"/>
<path opacity="0.7" d="M10.8586 15.3436H31.2373C31.4003 15.3353 31.5599 15.3918 31.6814 15.5007C31.803 15.6095 31.8766 15.762 31.8862 15.9249V18.2485H10.208V15.9249C10.2181 15.7619 10.292 15.6094 10.4139 15.5005C10.5357 15.3917 10.6955 15.3353 10.8586 15.3436Z" fill="white"/>
<path opacity="0.7" d="M28.9333 24.3076H15.5538C15.2569 24.3076 15.0204 24.4427 15.0204 24.6098V25.3565C15.0204 25.5236 15.2622 25.6587 15.5538 25.6587H28.9333C29.232 25.6587 29.4667 25.5236 29.4667 25.3565V24.6098C29.472 24.4427 29.232 24.3076 28.9333 24.3076Z" fill="white"/>
<path opacity="0.7" d="M28.9333 20.9053H15.5538C15.2569 20.9053 15.0204 21.0404 15.0204 21.2075V21.9542C15.0204 22.1213 15.2622 22.2564 15.5538 22.2564H28.9333C29.232 22.2564 29.4667 22.1213 29.4667 21.9542V21.2075C29.472 21.0404 29.232 20.9053 28.9333 20.9053Z" fill="white"/>
<path opacity="0.7" d="M29.7956 28.9277H15.5253C15.2071 28.9277 14.9493 29.0735 14.9493 29.2513V30.0442C14.9493 30.222 15.2071 30.366 15.5253 30.366H29.7956C30.1138 30.366 30.3716 30.222 30.3716 30.0442V29.2477C30.3716 29.0735 30.1138 28.9277 29.7956 28.9277Z" fill="white"/>
<path opacity="0.7" d="M12.7964 22.466C13.2854 22.466 13.6818 22.0696 13.6818 21.5806C13.6818 21.0917 13.2854 20.6953 12.7964 20.6953C12.3075 20.6953 11.9111 21.0917 11.9111 21.5806C11.9111 22.0696 12.3075 22.466 12.7964 22.466Z" fill="white"/>
<path opacity="0.7" d="M12.7964 25.8683C13.2854 25.8683 13.6818 25.4719 13.6818 24.983C13.6818 24.494 13.2854 24.0977 12.7964 24.0977C12.3075 24.0977 11.9111 24.494 11.9111 24.983C11.9111 25.4719 12.3075 25.8683 12.7964 25.8683Z" fill="white"/>
<path opacity="0.7" d="M12.5831 30.5941C13.1045 30.5941 13.5271 30.1714 13.5271 29.6501C13.5271 29.1287 13.1045 28.7061 12.5831 28.7061C12.0617 28.7061 11.6391 29.1287 11.6391 29.6501C11.6391 30.1714 12.0617 30.5941 12.5831 30.5941Z" fill="white"/>
</g>
<defs>
<linearGradient id="paint0_linear_868_10831" x1="19.9147" y1="24.7216" x2="5.03288" y2="-1.02414" gradientUnits="userSpaceOnUse">
<stop stop-color="#0078D4"/>
<stop offset="0.998" stop-color="#83B9F9"/>
</linearGradient>
<clipPath id="clip0_868_10831">
<rect width="32" height="32" fill="white"/>
</clipPath>
</defs>
</svg>
