<svg width="32" height="32" viewBox="0 0 32 32" fill="none" xmlns="http://www.w3.org/2000/svg">
<path d="M19.4489 0.888672H3.18224C2.6815 0.888672 2.27557 1.2946 2.27557 1.79534V30.1864C2.27557 30.6872 2.6815 31.0931 3.18224 31.0931H19.4489C19.9496 31.0931 20.3556 30.6872 20.3556 30.1864V1.79534C20.3556 1.2946 19.9496 0.888672 19.4489 0.888672Z" fill="url(#paint0_linear_868_10841)"/>
<path d="M11.84 28.7471H10.7733C10.5082 28.7471 10.2933 28.962 10.2933 29.2271V29.9915C10.2933 30.2566 10.5082 30.4715 10.7733 30.4715H11.84C12.1051 30.4715 12.32 30.2566 12.32 29.9915V29.2271C12.32 28.962 12.1051 28.7471 11.84 28.7471Z" fill="#F2F2F2"/>
<path d="M13.12 1.90234H9.49335C9.34608 1.90234 9.22668 2.02173 9.22668 2.16901V2.18679C9.22668 2.33406 9.34608 2.45345 9.49335 2.45345H13.12C13.2673 2.45345 13.3867 2.33406 13.3867 2.18679V2.16901C13.3867 2.02173 13.2673 1.90234 13.12 1.90234Z" fill="#F2F2F2"/>
<path opacity="0.9" d="M18.3111 3.44922H4.30219C4.11564 3.44922 3.96442 3.60045 3.96442 3.787V27.3781C3.96442 27.5647 4.11564 27.7159 4.30219 27.7159H18.3111C18.4976 27.7159 18.6489 27.5647 18.6489 27.3781V3.787C18.6489 3.60045 18.4976 3.44922 18.3111 3.44922Z" fill="url(#paint1_linear_868_10841)"/>
<path d="M29.2266 17.7422H16.8533C16.5784 17.7422 16.3555 17.9651 16.3555 18.24V30.6133C16.3555 30.8882 16.5784 31.1111 16.8533 31.1111H29.2266C29.5016 31.1111 29.7244 30.8882 29.7244 30.6133V18.24C29.7244 17.9651 29.5016 17.7422 29.2266 17.7422Z" fill="#76BC2D"/>
<path d="M22.3548 27.2704L21.588 28.0372C21.5246 28.1005 21.4387 28.1361 21.3491 28.1361C21.2596 28.1361 21.1736 28.1005 21.1103 28.0372L18.043 24.9699C17.9797 24.9066 17.9441 24.8207 17.9441 24.7311C17.9441 24.6415 17.9797 24.5556 18.043 24.4922L18.5836 23.9517C18.6469 23.8883 18.7328 23.8528 18.8224 23.8528C18.912 23.8528 18.9979 23.8884 19.0613 23.9517L22.3674 27.2578L22.3548 27.2704Z" fill="white"/>
<path d="M21.1805 28.0152L20.4137 27.2484L27.4534 20.2087C27.5167 20.1454 27.6026 20.1098 27.6922 20.1098C27.7818 20.1098 27.8677 20.1454 27.931 20.2087L28.4716 20.7493C28.5349 20.8126 28.5705 20.8985 28.5705 20.9881C28.5705 21.0777 28.5349 21.1636 28.4716 21.227L21.6708 28.0278C21.6074 28.0911 21.5215 28.1267 21.4319 28.1267C21.3424 28.1267 21.2564 28.0911 21.1931 28.0278L21.1805 28.0152Z" fill="white"/>
<defs>
<linearGradient id="paint0_linear_868_10841" x1="11.3067" y1="39.1642" x2="11.3067" y2="-3.28911" gradientUnits="userSpaceOnUse">
<stop stop-color="#0078D4"/>
<stop offset="0.17" stop-color="#1C84DC"/>
<stop offset="0.38" stop-color="#3990E4"/>
<stop offset="0.59" stop-color="#4D99EA"/>
<stop offset="0.8" stop-color="#5A9EEE"/>
<stop offset="1" stop-color="#5EA0EF"/>
</linearGradient>
<linearGradient id="paint1_linear_868_10841" x1="11.3066" y1="27.7159" x2="11.3066" y2="3.44922" gradientUnits="userSpaceOnUse">
<stop stop-color="#D2EBFF"/>
<stop offset="1" stop-color="#F0FFFD"/>
</linearGradient>
</defs>
</svg>
