<svg width="32" height="32" viewBox="0 0 32 32" fill="none" xmlns="http://www.w3.org/2000/svg">
<g clip-path="url(#clip0_868_10835)">
<path d="M22.2116 12.4857C22.2116 19.6625 13.3778 25.4386 11.4578 26.6101C11.3472 26.6766 11.2206 26.7117 11.0916 26.7117C10.9625 26.7117 10.8359 26.6766 10.7253 26.6101C8.80356 25.4386 -0.0284424 19.6625 -0.0284424 12.4857V3.85277C-0.0265995 3.67212 0.0458603 3.49937 0.173438 3.37146C0.301016 3.24355 0.473582 3.17064 0.654224 3.16833C7.52356 2.98522 5.94311 0.0234375 11.0916 0.0234375C16.24 0.0234375 14.6578 2.98522 21.5289 3.16833C21.7094 3.17109 21.8817 3.24414 22.0092 3.37196C22.1367 3.49977 22.2093 3.67226 22.2116 3.85277V12.4857Z" fill="#CE74B6"/>
<path d="M21.2889 12.5602C21.2889 19.138 13.1894 24.4375 11.4276 25.5113C11.3264 25.5732 11.2102 25.606 11.0916 25.606C10.973 25.606 10.8567 25.5732 10.7556 25.5113C8.99381 24.4375 0.888916 19.1397 0.888916 12.5602V4.64197C0.890755 4.47641 0.95722 4.31812 1.07413 4.20088C1.19104 4.08364 1.34914 4.01672 1.51469 4.01441C7.82225 3.8473 6.36981 1.13086 11.0916 1.13086C15.8134 1.13086 14.3627 3.8473 20.6631 4.01441C20.8287 4.01672 20.9868 4.08364 21.1037 4.20088C21.2206 4.31812 21.2871 4.47641 21.2889 4.64197V12.5602Z" fill="url(#paint0_linear_868_10835)"/>
<path d="M10.7556 15.3692H31.0542C31.2272 15.3595 31.397 15.4188 31.5263 15.5341C31.6556 15.6494 31.7339 15.8113 31.744 15.9843V31.4083C31.7339 31.5813 31.6556 31.7432 31.5263 31.8585C31.397 31.9738 31.2272 32.0331 31.0542 32.0234H10.7556C10.5827 32.0327 10.4132 31.9732 10.284 31.858C10.1548 31.7427 10.0763 31.5811 10.0658 31.4083V15.9843C10.0763 15.8115 10.1548 15.6499 10.284 15.5347C10.4132 15.4194 10.5827 15.36 10.7556 15.3692Z" fill="#DC92BF"/>
<path opacity="0.7" d="M10.7165 15.3691H31.0951C31.2579 15.3603 31.4175 15.4164 31.5391 15.525C31.6607 15.6336 31.7344 15.7859 31.744 15.9486V18.2739H10.0658V15.9486C10.0759 15.7857 10.1499 15.6334 10.2718 15.5249C10.3937 15.4163 10.5535 15.3603 10.7165 15.3691Z" fill="white"/>
<path opacity="0.7" d="M28.8 24.3311H15.4116C15.1147 24.3311 14.8782 24.4662 14.8782 24.6333V25.3799C14.8782 25.5471 15.12 25.6822 15.4116 25.6822H28.8C29.0987 25.6822 29.3333 25.5471 29.3333 25.3799V24.6333C29.3333 24.4662 29.0898 24.3311 28.8 24.3311Z" fill="white"/>
<path opacity="0.7" d="M28.8 20.9297H15.4116C15.1147 20.9297 14.8782 21.0648 14.8782 21.2319V21.9786C14.8782 22.1457 15.12 22.2808 15.4116 22.2808H28.8C29.0987 22.2808 29.3333 22.1457 29.3333 21.9786V21.2319C29.3333 21.0648 29.0898 20.9297 28.8 20.9297Z" fill="white"/>
<path opacity="0.7" d="M29.6534 28.9531H15.3814C15.0649 28.9531 14.8071 29.0971 14.8071 29.2749V30.0714C14.8071 30.2491 15.0649 30.3949 15.3814 30.3949H29.6534C29.9716 30.3949 30.2294 30.2509 30.2294 30.0714V29.2749C30.2222 29.0971 29.9716 28.9531 29.6534 28.9531Z" fill="white"/>
<path opacity="0.7" d="M12.6543 22.4914C13.1432 22.4914 13.5396 22.095 13.5396 21.606C13.5396 21.1171 13.1432 20.7207 12.6543 20.7207C12.1653 20.7207 11.7689 21.1171 11.7689 21.606C11.7689 22.095 12.1653 22.4914 12.6543 22.4914Z" fill="white"/>
<path opacity="0.7" d="M12.6543 25.8918C13.1432 25.8918 13.5396 25.4954 13.5396 25.0064C13.5396 24.5175 13.1432 24.1211 12.6543 24.1211C12.1653 24.1211 11.7689 24.5175 11.7689 25.0064C11.7689 25.4954 12.1653 25.8918 12.6543 25.8918Z" fill="white"/>
<path opacity="0.7" d="M12.4409 30.6175C12.9622 30.6175 13.3849 30.1948 13.3849 29.6735C13.3849 29.1521 12.9622 28.7295 12.4409 28.7295C11.9195 28.7295 11.4969 29.1521 11.4969 29.6735C11.4969 30.1948 11.9195 30.6175 12.4409 30.6175Z" fill="white"/>
</g>
<defs>
<linearGradient id="paint0_linear_868_10835" x1="19.7725" y1="24.7469" x2="4.8907" y2="-0.998921" gradientUnits="userSpaceOnUse">
<stop stop-color="#A33A85"/>
<stop offset="0.998" stop-color="#DC92BF"/>
</linearGradient>
<clipPath id="clip0_868_10835">
<rect width="32" height="32" fill="white"/>
</clipPath>
</defs>
</svg>
