<svg width="32" height="32" viewBox="0 0 32 32" fill="none" xmlns="http://www.w3.org/2000/svg">
<path d="M29.8489 6.08033H2.15114C1.99235 6.07317 1.8337 6.09739 1.68429 6.15162C1.53487 6.20584 1.39761 6.289 1.28037 6.39633C1.16313 6.50366 1.06821 6.63306 1.00104 6.77713C0.933869 6.92119 0.895767 7.07708 0.888916 7.23588V28.0714C0.895767 28.2302 0.933869 28.3861 1.00104 28.5302C1.06821 28.6743 1.16313 28.8037 1.28037 28.911C1.39761 29.0183 1.53487 29.1015 1.68429 29.1557C1.8337 29.2099 1.99235 29.2342 2.15114 29.227H29.8489C30.0077 29.2342 30.1663 29.2099 30.3158 29.1557C30.4652 29.1015 30.6024 29.0183 30.7197 28.911C30.8369 28.8037 30.9318 28.6743 30.999 28.5302C31.0662 28.3861 31.1043 28.2302 31.1111 28.0714V7.23588C31.1043 7.07708 31.0662 6.92119 30.999 6.77713C30.9318 6.63306 30.8369 6.50366 30.7197 6.39633C30.6024 6.289 30.4652 6.20584 30.3158 6.15162C30.1663 6.09739 30.0077 6.07317 29.8489 6.08033Z" fill="#0078D4"/>
<path d="M29.9556 6.08033H16V29.1914H30.0089C30.3154 29.1914 30.6093 29.0697 30.826 28.853C31.0427 28.6363 31.1644 28.3424 31.1644 28.0359V7.23589C31.1646 7.07955 31.1331 6.92479 31.0717 6.781C31.0103 6.63721 30.9204 6.50737 30.8074 6.39934C30.6943 6.29131 30.5606 6.20733 30.4142 6.1525C30.2678 6.09767 30.1117 6.07312 29.9556 6.08033Z" fill="#005BA1"/>
<path d="M13.5822 2.77344H4.51558C4.35668 2.77792 4.20553 2.84304 4.09313 2.95544C3.98073 3.06783 3.91561 3.21899 3.91113 3.37788V26.489C3.91107 26.651 3.97418 26.8066 4.08705 26.9228C4.19992 27.039 4.35365 27.1066 4.51558 27.1112H13.5822C13.8804 27.0819 14.1813 27.1137 14.4668 27.2047C14.7522 27.2956 15.0161 27.4437 15.2424 27.64C15.4686 27.8364 15.6525 28.0767 15.7828 28.3465C15.913 28.6162 15.987 28.9097 16 29.209V5.20899C16 4.56611 15.7459 3.9493 15.293 3.49305C14.84 3.0368 14.2251 2.77813 13.5822 2.77344Z" fill="#F2F2F2"/>
<path d="M18.4178 2.77344H27.4844C27.6433 2.77792 27.7945 2.84304 27.9069 2.95544C28.0193 3.06783 28.0844 3.21899 28.0889 3.37788V26.489C28.089 26.651 28.0258 26.8066 27.913 26.9228C27.8001 27.039 27.6464 27.1066 27.4844 27.1112H18.4178C18.1197 27.0819 17.8187 27.1137 17.5333 27.2047C17.2478 27.2956 16.9839 27.4437 16.7577 27.64C16.5314 27.8364 16.3475 28.0767 16.2172 28.3465C16.087 28.6162 16.0131 28.9097 16 29.209V5.20899C16 4.56611 16.2541 3.9493 16.7071 3.49305C17.16 3.0368 17.7749 2.77813 18.4178 2.77344Z" fill="url(#paint0_linear_868_10839)"/>
<path d="M13.3156 8.88868H6.61336C6.54091 8.88854 6.47112 8.91606 6.41826 8.96561C6.3654 9.01517 6.33345 9.08303 6.32892 9.15535V9.83091C6.33345 9.90322 6.3654 9.97108 6.41826 10.0206C6.47112 10.0702 6.54091 10.0977 6.61336 10.0976H13.3156C13.3506 10.0976 13.3853 10.0907 13.4176 10.0773C13.45 10.0639 13.4794 10.0442 13.5041 10.0195C13.5289 9.9947 13.5486 9.96531 13.562 9.93295C13.5754 9.9006 13.5823 9.86592 13.5823 9.83091V9.11979C13.5736 9.0554 13.5417 8.99638 13.4926 8.95382C13.4435 8.91127 13.3806 8.8881 13.3156 8.88868Z" fill="#B3B3B3"/>
<path d="M13.3156 12.4444H6.61336C6.54091 12.4442 6.47112 12.4718 6.41826 12.5213C6.3654 12.5709 6.33345 12.6387 6.32892 12.7111V13.3866C6.33345 13.4589 6.3654 13.5268 6.41826 13.5763C6.47112 13.6259 6.54091 13.6534 6.61336 13.6533H13.3156C13.3863 13.6533 13.4541 13.6252 13.5041 13.5752C13.5542 13.5252 13.5823 13.4573 13.5823 13.3866V12.7644C13.5903 12.7252 13.5893 12.6847 13.5796 12.6459C13.5698 12.6071 13.5515 12.571 13.5258 12.5403C13.5002 12.5096 13.468 12.485 13.4316 12.4684C13.3952 12.4518 13.3556 12.4436 13.3156 12.4444Z" fill="#B3B3B3"/>
<path d="M13.3156 5.20898H6.61336C6.54091 5.20884 6.47112 5.23636 6.41826 5.28592C6.3654 5.33547 6.33345 5.40333 6.32892 5.47565V6.15121C6.33345 6.22352 6.3654 6.29139 6.41826 6.34094C6.47112 6.3905 6.54091 6.41802 6.61336 6.41787H13.3156C13.3863 6.41787 13.4541 6.38978 13.5041 6.33977C13.5542 6.28976 13.5823 6.22193 13.5823 6.15121V5.47565C13.5823 5.40493 13.5542 5.3371 13.5041 5.28709C13.4541 5.23708 13.3863 5.20898 13.3156 5.20898Z" fill="#B3B3B3"/>
<path d="M13.3156 16.1426H6.61336C6.54091 16.1424 6.47112 16.17 6.41826 16.2195C6.3654 16.2691 6.33345 16.3369 6.32892 16.4092V17.0848C6.33345 17.1571 6.3654 17.225 6.41826 17.2745C6.47112 17.3241 6.54091 17.3516 6.61336 17.3515H13.3156C13.3863 17.3515 13.4541 17.3234 13.5041 17.2734C13.5542 17.2234 13.5823 17.1555 13.5823 17.0848V16.4092C13.5823 16.3385 13.5542 16.2707 13.5041 16.2207C13.4541 16.1707 13.3863 16.1426 13.3156 16.1426Z" fill="#B3B3B3"/>
<path d="M13.3156 19.7871H6.61336C6.54091 19.787 6.47112 19.8145 6.41826 19.864C6.3654 19.9136 6.33345 19.9815 6.32892 20.0538V20.7293C6.33345 20.8016 6.3654 20.8695 6.41826 20.9191C6.47112 20.9686 6.54091 20.9961 6.61336 20.996H13.3156C13.3863 20.996 13.4541 20.9679 13.5041 20.9179C13.5542 20.8679 13.5823 20.8001 13.5823 20.7293V20.0538C13.5823 19.9831 13.5542 19.9152 13.5041 19.8652C13.4541 19.8152 13.3863 19.7871 13.3156 19.7871Z" fill="#B3B3B3"/>
<path d="M9.68892 23.4307H6.61336C6.54091 23.4305 6.47112 23.458 6.41826 23.5076C6.3654 23.5572 6.33345 23.625 6.32892 23.6973V24.3729C6.33345 24.4452 6.3654 24.5131 6.41826 24.5626C6.47112 24.6122 6.54091 24.6397 6.61336 24.6396H9.68892C9.75964 24.6396 9.82747 24.6115 9.87748 24.5614C9.92749 24.5114 9.95559 24.4436 9.95559 24.3729V23.6973C9.95559 23.6266 9.92749 23.5588 9.87748 23.5088C9.82747 23.4588 9.75964 23.4307 9.68892 23.4307Z" fill="#B3B3B3"/>
<defs>
<linearGradient id="paint0_linear_868_10839" x1="16" y1="16.0001" x2="28.0889" y2="16.0001" gradientUnits="userSpaceOnUse">
<stop stop-color="#CCCCCC"/>
<stop offset="0.32" stop-color="#DFDFDF"/>
<stop offset="0.67" stop-color="#ECECEC"/>
<stop offset="1" stop-color="#F0F0F0"/>
</linearGradient>
</defs>
</svg>
