<svg width="32" height="32" viewBox="0 0 32 32" fill="none" xmlns="http://www.w3.org/2000/svg">
<path d="M28.5867 15.0042C28.5867 23.1287 18.5956 29.6709 16.4089 31.0042C16.2866 31.0817 16.1448 31.1228 16 31.1228C15.8552 31.1228 15.7134 31.0817 15.5911 31.0042C13.4044 29.6887 3.41333 23.1464 3.41333 15.0042V5.22645C3.41328 5.02204 3.49325 4.82572 3.63612 4.67953C3.77899 4.53333 3.97341 4.44887 4.17777 4.44423C11.9644 4.24867 10.1689 0.888672 16 0.888672C21.8311 0.888672 20.0356 4.24867 27.8222 4.44423C28.0266 4.44887 28.221 4.53333 28.3639 4.67953C28.5067 4.82572 28.5867 5.02204 28.5867 5.22645V15.0042Z" fill="#0078D4"/>
<path d="M27.5555 15.0758C27.5555 22.5425 18.3822 28.5336 16.3733 29.7425C16.2611 29.8117 16.1318 29.8484 16 29.8484C15.8681 29.8484 15.7389 29.8117 15.6266 29.7425C13.6178 28.5336 4.44442 22.5425 4.44442 15.0758V6.18692C4.42638 6.08282 4.43118 5.97603 4.45851 5.87396C4.48583 5.7719 4.53502 5.67699 4.60266 5.59582C4.6703 5.51465 4.75478 5.44916 4.85025 5.40388C4.94571 5.3586 5.04988 5.33461 5.15553 5.33359C12.3022 5.20914 10.6666 2.15137 16 2.15137C21.3333 2.15137 19.6978 5.20914 26.8444 5.33359C27.0316 5.3381 27.2099 5.41447 27.3423 5.54686C27.4747 5.67926 27.551 5.85752 27.5555 6.0447V15.0758Z" fill="url(#paint0_linear_868_10834)"/>
<path d="M21.0667 13.6173H20.3556V11.0929C20.3679 9.90055 19.9225 8.74888 19.1111 7.87512C18.7166 7.44856 18.2382 7.10819 17.7059 6.87541C17.1735 6.64263 16.5988 6.52246 16.0178 6.52246C15.4368 6.52246 14.8621 6.64263 14.3297 6.87541C13.7974 7.10819 13.3189 7.44856 12.9245 7.87512C12.1115 8.74789 11.6658 9.90022 11.68 11.0929V13.6173H10.9689C10.8868 13.6094 10.8039 13.6195 10.726 13.6468C10.6481 13.6741 10.5771 13.718 10.5179 13.7755C10.4587 13.8331 10.4127 13.9028 10.3832 13.9798C10.3536 14.0569 10.3411 14.1394 10.3467 14.2218V20.764C10.3466 20.8402 10.3619 20.9157 10.3916 20.9859C10.4213 21.0561 10.4648 21.1196 10.5195 21.1727C10.5743 21.2258 10.6391 21.2673 10.7102 21.2948C10.7813 21.3223 10.8572 21.3353 10.9333 21.3329H21.0667C21.1429 21.3353 21.2188 21.3223 21.2898 21.2948C21.3609 21.2673 21.4258 21.2258 21.4805 21.1727C21.5352 21.1196 21.5787 21.0561 21.6084 20.9859C21.6381 20.9157 21.6534 20.8402 21.6533 20.764V14.2218C21.6583 14.1426 21.6467 14.0633 21.6193 13.9889C21.5918 13.9145 21.5491 13.8466 21.4938 13.7897C21.4386 13.7328 21.372 13.688 21.2985 13.6584C21.2249 13.6287 21.146 13.6147 21.0667 13.6173ZM18.3111 13.6173H13.6889V11.0573C13.6899 10.3922 13.9516 9.75399 14.4178 9.27956C14.6163 9.05593 14.8599 8.87691 15.1327 8.75432C15.4054 8.63173 15.701 8.56834 16 8.56834C16.299 8.56834 16.5946 8.63173 16.8674 8.75432C17.1401 8.87691 17.3837 9.05593 17.5822 9.27956C17.6866 9.39008 17.7818 9.509 17.8667 9.63512C18.1531 10.0477 18.3081 10.5373 18.3111 11.0396V13.6173Z" fill="#FFBD02"/>
<path d="M10.9333 13.6175H21.0667C21.2042 13.6182 21.3368 13.6687 21.44 13.7597L10.56 21.1553C10.4965 21.1031 10.4447 21.0381 10.408 20.9646C10.3712 20.8911 10.3503 20.8107 10.3467 20.7286V14.2219C10.3417 14.1428 10.3533 14.0634 10.3807 13.989C10.4082 13.9146 10.4509 13.8468 10.5062 13.7899C10.5614 13.7329 10.628 13.6882 10.7015 13.6585C10.7751 13.6288 10.854 13.6149 10.9333 13.6175Z" fill="#FFE452"/>
<path opacity="0.5" d="M21.0667 13.6175H10.9333C10.7958 13.6182 10.6632 13.6687 10.56 13.7597L21.44 21.1553C21.5062 21.1056 21.56 21.0412 21.597 20.9671C21.6341 20.8931 21.6533 20.8114 21.6533 20.7286V14.2219C21.6583 14.1428 21.6467 14.0634 21.6193 13.989C21.5918 13.9146 21.549 13.8468 21.4938 13.7899C21.4386 13.7329 21.372 13.6882 21.2985 13.6585C21.2249 13.6288 21.1459 13.6149 21.0667 13.6175Z" fill="#FFD400"/>
<defs>
<linearGradient id="paint0_linear_868_10834" x1="16" y1="29.8491" x2="16" y2="2.15137" gradientUnits="userSpaceOnUse">
<stop stop-color="#0078D4"/>
<stop offset="0.06" stop-color="#0A7CD7"/>
<stop offset="0.34" stop-color="#2E8CE1"/>
<stop offset="0.59" stop-color="#4897E9"/>
<stop offset="0.82" stop-color="#589EED"/>
<stop offset="1" stop-color="#5EA0EF"/>
</linearGradient>
</defs>
</svg>
