<svg width="32" height="32" viewBox="0 0 32 32" fill="none" xmlns="http://www.w3.org/2000/svg">
<path d="M26.8445 2.24023H1.7778C1.28689 2.24023 0.888916 2.6382 0.888916 3.12912V19.2358C0.888916 19.7267 1.28689 20.1247 1.7778 20.1247H26.8445C27.3354 20.1247 27.7334 19.7267 27.7334 19.2358V3.12912C27.7334 2.6382 27.3354 2.24023 26.8445 2.24023Z" fill="url(#paint0_linear_868_10830)"/>
<path d="M25.7422 3.7334H2.87998C2.60506 3.7334 2.3822 3.95626 2.3822 4.23118V18.1512C2.3822 18.4261 2.60506 18.649 2.87998 18.649H25.7422C26.0171 18.649 26.24 18.4261 26.24 18.1512V4.23118C26.24 3.95626 26.0171 3.7334 25.7422 3.7334Z" fill="white"/>
<path d="M19.6978 25.5462C17.0311 25.1373 16.9244 23.2173 16.9422 20.2129H11.6089C11.6089 23.3062 11.5022 25.2262 8.85334 25.5462C8.49338 25.6005 8.16411 25.78 7.92347 26.0532C7.68284 26.3263 7.54626 26.6756 7.53778 27.0396H20.9422C20.9336 26.6868 20.806 26.3473 20.5801 26.0762C20.3542 25.8051 20.0432 25.6183 19.6978 25.5462Z" fill="url(#paint1_linear_868_10830)"/>
<path d="M30.5244 10.5067H18.2933C18.0906 9.50905 17.5246 8.62229 16.705 8.01839C15.8855 7.4145 14.8708 7.13652 13.8579 7.2384C12.845 7.34027 11.9061 7.81472 11.2232 8.56972C10.5403 9.32472 10.1622 10.3064 10.1622 11.3244C10.1622 12.3425 10.5403 13.3242 11.2232 14.0792C11.9061 14.8342 12.845 15.3086 13.8579 15.4105C14.8708 15.5124 15.8855 15.2344 16.705 14.6305C17.5246 14.0266 18.0906 13.1398 18.2933 12.1422H19.5555V29.1733C19.5555 29.3289 19.6173 29.4782 19.7274 29.5882C19.8374 29.6982 19.9866 29.76 20.1422 29.76H30.5066C30.6622 29.76 30.8115 29.6982 30.9215 29.5882C31.0315 29.4782 31.0933 29.3289 31.0933 29.1733V11.0933C31.0934 10.9408 31.034 10.7942 30.9278 10.6847C30.8216 10.5751 30.6769 10.5113 30.5244 10.5067Z" fill="#32BEDD"/>
<path d="M29.8133 12.124H20.8711C20.7533 12.124 20.6578 12.2195 20.6578 12.3374V27.3774C20.6578 27.4952 20.7533 27.5907 20.8711 27.5907H29.8133C29.9312 27.5907 30.0267 27.4952 30.0267 27.3774V12.3374C30.0267 12.2195 29.9312 12.124 29.8133 12.124Z" fill="white"/>
<path opacity="0.9" d="M14.3111 13.9909C15.7446 13.9909 16.9067 12.8288 16.9067 11.3954C16.9067 9.96187 15.7446 8.7998 14.3111 8.7998C12.8776 8.7998 11.7156 9.96187 11.7156 11.3954C11.7156 12.8288 12.8776 13.9909 14.3111 13.9909Z" fill="url(#paint2_linear_868_10830)"/>
<path d="M26.4533 19.2355L24.4622 17.2444C24.4463 17.23 24.4264 17.2207 24.4051 17.2178C24.3838 17.2149 24.3622 17.2185 24.3429 17.2281C24.3237 17.2377 24.3079 17.2528 24.2974 17.2716C24.287 17.2904 24.2825 17.3119 24.2844 17.3333V18.5421C24.2844 18.5704 24.2732 18.5976 24.2532 18.6176C24.2332 18.6376 24.2061 18.6488 24.1778 18.6488H19.5555V20.1244H24.1778C24.2061 20.1244 24.2332 20.1356 24.2532 20.1556C24.2732 20.1756 24.2844 20.2027 24.2844 20.231V21.4577C24.2942 21.4724 24.3074 21.4844 24.3229 21.4927C24.3384 21.501 24.3557 21.5054 24.3733 21.5054C24.3909 21.5054 24.4083 21.501 24.4238 21.4927C24.4393 21.4844 24.4525 21.4724 24.4622 21.4577L26.4533 19.5555C26.476 19.5355 26.4942 19.5108 26.5067 19.4832C26.5191 19.4557 26.5255 19.4257 26.5255 19.3955C26.5255 19.3652 26.5191 19.3353 26.5067 19.3077C26.4942 19.2801 26.476 19.2555 26.4533 19.2355Z" fill="#0078D4"/>
<defs>
<linearGradient id="paint0_linear_868_10830" x1="14.3111" y1="20.1247" x2="14.3111" y2="2.24023" gradientUnits="userSpaceOnUse">
<stop stop-color="#0078D4"/>
<stop offset="0.82" stop-color="#5EA0EF"/>
</linearGradient>
<linearGradient id="paint1_linear_868_10830" x1="14.3111" y1="27.0396" x2="14.3111" y2="20.124" gradientUnits="userSpaceOnUse">
<stop stop-color="#1490DF"/>
<stop offset="0.98" stop-color="#1F56A3"/>
</linearGradient>
<linearGradient id="paint2_linear_868_10830" x1="14.3111" y1="13.9909" x2="14.3111" y2="8.78203" gradientUnits="userSpaceOnUse">
<stop stop-color="#D2EBFF"/>
<stop offset="1" stop-color="#F0FFFD"/>
</linearGradient>
</defs>
</svg>
