<svg width="32" height="32" viewBox="0 0 32 32" fill="none" xmlns="http://www.w3.org/2000/svg">
<g clip-path="url(#clip0_868_10844)">
<path d="M23.52 4.42578V13.0302L16.1422 17.3502V8.728L23.52 4.42578Z" fill="#949494"/>
<path d="M23.52 4.42625L16.1422 8.74625L8.76447 4.42625L16.1422 0.124023L23.52 4.42625Z" fill="#B3B3B3"/>
<path d="M16.1422 8.74578V17.3502L8.76447 13.0302V4.42578L16.1422 8.74578Z" fill="#E6E6E6"/>
<path d="M15.3067 18.9688V27.5376L7.94669 31.8576V23.271L15.3067 18.9688Z" fill="#949494"/>
<path d="M15.3067 18.9684L7.94667 23.2884L0.551117 18.9684L7.94667 14.6484L15.3067 18.9684Z" fill="#B3B3B3"/>
<path d="M7.94667 23.2888V31.8576L0.551117 27.5376V18.9688L7.94667 23.2888Z" fill="#E6E6E6"/>
<path d="M24.4267 14.6309L17.0489 18.9509V27.5731L24.4267 31.8753L31.8222 27.5731V18.9509L24.4267 14.6309Z" fill="#50E6FF"/>
<path d="M29.7778 27.9823H19.36C19.2269 27.98 19.0956 27.9515 18.9735 27.8984C18.8515 27.8453 18.7411 27.7687 18.6486 27.673C18.5562 27.5772 18.4835 27.4642 18.4347 27.3403C18.386 27.2165 18.3621 27.0843 18.3644 26.9512V19.929C18.3547 19.8098 18.3687 19.6899 18.4055 19.5762C18.4423 19.4625 18.5012 19.3571 18.5788 19.2663C18.6565 19.1754 18.7514 19.1008 18.858 19.0467C18.9646 18.9926 19.0808 18.9602 19.2 18.9512H29.7067C29.974 18.969 30.2249 19.0868 30.4093 19.2812C30.5938 19.4755 30.6984 19.7321 30.7022 20.0001V26.9334C30.7381 27.1736 30.6781 27.4183 30.535 27.6145C30.392 27.8108 30.1774 27.9429 29.9378 27.9823H29.7778Z" fill="url(#paint0_linear_868_10844)"/>
<path d="M22.8267 26.2748L20.0356 23.5192C19.9831 23.4605 19.9541 23.3846 19.9541 23.3059C19.9541 23.2272 19.9831 23.1512 20.0356 23.0925L22.88 20.4437C22.936 20.4004 23.0048 20.377 23.0756 20.377C23.1463 20.377 23.2151 20.4004 23.2711 20.4437L23.52 20.6925C23.5469 20.7175 23.5684 20.7478 23.5831 20.7814C23.5978 20.8151 23.6054 20.8514 23.6054 20.8881C23.6054 20.9248 23.5978 20.9611 23.5831 20.9948C23.5684 21.0284 23.5469 21.0587 23.52 21.0837L21.3333 23.1103C21.2821 23.1661 21.2537 23.2391 21.2537 23.3148C21.2537 23.3905 21.2821 23.4634 21.3333 23.5192L23.4844 25.7237C23.5109 25.747 23.5321 25.7757 23.5467 25.8079C23.5612 25.8401 23.5687 25.875 23.5687 25.9103C23.5687 25.9456 23.5612 25.9805 23.5467 26.0127C23.5321 26.0449 23.5109 26.0736 23.4844 26.097L23.3067 26.2748C23.2538 26.3248 23.1839 26.3527 23.1111 26.3527C23.0384 26.3527 22.9684 26.3248 22.9156 26.2748H22.8267Z" fill="#F2F2F2"/>
<path d="M26.1689 26.2749L28.9422 23.5193C28.9725 23.4926 28.9967 23.4598 29.0133 23.423C29.0299 23.3862 29.0385 23.3463 29.0385 23.306C29.0385 23.2656 29.0299 23.2257 29.0133 23.189C28.9967 23.1522 28.9725 23.1193 28.9422 23.0927L26.0267 20.4438C26.0017 20.4168 25.9715 20.3954 25.9378 20.3807C25.9042 20.366 25.8678 20.3584 25.8311 20.3584C25.7944 20.3584 25.7581 20.366 25.7244 20.3807C25.6908 20.3954 25.6605 20.4168 25.6356 20.4438L25.44 20.6571C25.39 20.7099 25.3621 20.7799 25.3621 20.8527C25.3621 20.9254 25.39 20.9954 25.44 21.0482L27.6445 23.1104C27.6747 23.1371 27.699 23.17 27.7156 23.2067C27.7322 23.2435 27.7408 23.2834 27.7408 23.3238C27.7408 23.3641 27.7322 23.404 27.7156 23.4408C27.699 23.4776 27.6747 23.5104 27.6445 23.5371L25.5289 25.706C25.5024 25.7293 25.4812 25.7581 25.4667 25.7903C25.4521 25.8224 25.4446 25.8573 25.4446 25.8927C25.4446 25.928 25.4521 25.9629 25.4667 25.9951C25.4812 26.0272 25.5024 26.056 25.5289 26.0793L25.6889 26.2393C25.702 26.2726 25.7221 26.3026 25.7479 26.3274C25.7737 26.3522 25.8045 26.3711 25.8382 26.3829C25.8719 26.3947 25.9078 26.3991 25.9434 26.3958C25.979 26.3925 26.0135 26.3816 26.0445 26.3638C26.0933 26.3461 26.1363 26.3153 26.1689 26.2749Z" fill="#F2F2F2"/>
</g>
<defs>
<linearGradient id="paint0_linear_868_10844" x1="24.5333" y1="27.9645" x2="24.5333" y2="18.9512" gradientUnits="userSpaceOnUse">
<stop stop-color="#0078D4"/>
<stop offset="0.16" stop-color="#1380DA"/>
<stop offset="0.53" stop-color="#3C91E5"/>
<stop offset="0.82" stop-color="#559CEC"/>
<stop offset="1" stop-color="#5EA0EF"/>
</linearGradient>
<clipPath id="clip0_868_10844">
<rect width="32" height="32" fill="white"/>
</clipPath>
</defs>
</svg>
