<svg width="32" height="32" viewBox="0 0 32 32" fill="none" xmlns="http://www.w3.org/2000/svg">
<g clip-path="url(#clip0_868_10828)">
<path d="M22.0089 12.6576C22.0089 19.4309 13.6533 24.8887 11.84 25.9909C11.7375 26.0597 11.6168 26.0964 11.4933 26.0964C11.3699 26.0964 11.2492 26.0597 11.1467 25.9909C9.33332 24.8887 0.995544 19.4309 0.995544 12.6576V4.49756C1.00004 4.32924 1.06891 4.16905 1.18797 4.04999C1.30703 3.93092 1.46722 3.86205 1.63554 3.85756C8.12443 3.67978 6.6311 0.888672 11.5022 0.888672C16.3733 0.888672 14.8622 3.67978 21.3333 3.85756C21.5034 3.86181 21.6656 3.93007 21.7876 4.04872C21.9095 4.16736 21.9822 4.32766 21.9911 4.49756L22.0089 12.6576Z" fill="#86D633"/>
<path d="M21.1377 12.7286C21.1377 18.9508 13.4755 23.9464 11.8222 24.9597C11.727 25.0217 11.6158 25.0547 11.5022 25.0547C11.3886 25.0547 11.2774 25.0217 11.1822 24.9597C9.51108 23.9464 1.86664 18.9508 1.86664 12.7286V5.33306C1.86664 5.17746 1.92845 5.02824 2.03847 4.91822C2.14849 4.8082 2.29771 4.74639 2.4533 4.74639C8.40886 4.4975 7.11108 1.9375 11.5022 1.9375C15.8933 1.9375 14.5955 4.4975 20.5333 4.6575C20.6906 4.65743 20.8417 4.71867 20.9545 4.82821C21.0674 4.93775 21.1331 5.08696 21.1377 5.24417V12.7286Z" fill="url(#paint0_linear_868_10828)"/>
<path d="M11.1822 15.378H30.3466C30.4284 15.3732 30.5103 15.3846 30.5876 15.4115C30.6649 15.4384 30.7362 15.4803 30.7973 15.5348C30.8584 15.5893 30.9082 15.6553 30.9437 15.7291C30.9792 15.8029 30.9999 15.8829 31.0044 15.9647V30.5247C30.9999 30.6064 30.9792 30.6865 30.9437 30.7603C30.9082 30.834 30.8584 30.9001 30.7973 30.9546C30.7362 31.0091 30.6649 31.051 30.5876 31.0779C30.5103 31.1048 30.4284 31.1162 30.3466 31.1114H11.1822C11.0183 31.1165 10.8586 31.0585 10.7362 30.9493C10.6138 30.8401 10.538 30.6881 10.5244 30.5247V16.0002C10.5267 15.9162 10.5456 15.8334 10.5799 15.7566C10.6142 15.6799 10.6633 15.6106 10.7244 15.5528C10.7855 15.495 10.8573 15.4499 10.9359 15.4199C11.0144 15.3899 11.0981 15.3757 11.1822 15.378Z" fill="#9CEBFF"/>
<path d="M11.1466 15.3781H30.3822C30.4593 15.3733 30.5365 15.3837 30.6096 15.4088C30.6826 15.434 30.7499 15.4732 30.8077 15.5244C30.8655 15.5757 30.9127 15.6378 30.9464 15.7072C30.9802 15.7767 30.9999 15.8521 31.0044 15.9292V18.1336H10.5244V16.0003C10.5289 15.9232 10.5486 15.8478 10.5824 15.7783C10.6162 15.7089 10.6633 15.6468 10.7211 15.5956C10.7789 15.5444 10.8462 15.5051 10.9193 15.48C10.9923 15.4548 11.0696 15.4444 11.1466 15.4492V15.3781Z" fill="#0078D4"/>
<path d="M28.2133 23.8398H15.5733C15.2889 23.8398 15.0756 23.9821 15.0756 24.1243V24.8887C15.0756 25.0487 15.2889 25.1732 15.5733 25.1732H28.2133C28.4978 25.1732 28.7289 25.0487 28.7289 24.8887V24.1776C28.7289 23.9821 28.4445 23.8398 28.2133 23.8398Z" fill="#0078D4"/>
<path d="M28.2133 20.6396H15.5733C15.2889 20.6396 15.0756 20.7641 15.0756 20.9241V21.6174C15.0756 21.7774 15.2889 21.9019 15.5733 21.9019H28.2133C28.4978 21.9019 28.7289 21.7774 28.7289 21.6174V20.9241C28.7289 20.7641 28.4445 20.6396 28.2133 20.6396Z" fill="#0078D4"/>
<path d="M28.2133 27.4492H15.5733C15.2889 27.4492 15.0756 27.5737 15.0756 27.7337V28.4448C15.0756 28.6048 15.2889 28.7292 15.5733 28.7292H28.2133C28.4978 28.7292 28.7289 28.6048 28.7289 28.4448V27.7337C28.7289 27.5737 28.4445 27.4492 28.2133 27.4492Z" fill="#0078D4"/>
<path d="M12.9778 22.0979C13.4392 22.0979 13.8133 21.7238 13.8133 21.2623C13.8133 20.8008 13.4392 20.4268 12.9778 20.4268C12.5163 20.4268 12.1422 20.8008 12.1422 21.2623C12.1422 21.7238 12.5163 22.0979 12.9778 22.0979Z" fill="#0078D4"/>
<path d="M12.9778 25.3156C13.4392 25.3156 13.8133 24.9416 13.8133 24.4801C13.8133 24.0186 13.4392 23.6445 12.9778 23.6445C12.5163 23.6445 12.1422 24.0186 12.1422 24.4801C12.1422 24.9416 12.5163 25.3156 12.9778 25.3156Z" fill="#0078D4"/>
<path d="M12.9778 28.924C13.4392 28.924 13.8133 28.55 13.8133 28.0885C13.8133 27.627 13.4392 27.2529 12.9778 27.2529C12.5163 27.2529 12.1422 27.627 12.1422 28.0885C12.1422 28.55 12.5163 28.924 12.9778 28.924Z" fill="#0078D4"/>
</g>
<defs>
<linearGradient id="paint0_linear_868_10828" x1="19.6977" y1="24.2308" x2="5.63553" y2="-0.0713898" gradientUnits="userSpaceOnUse">
<stop stop-color="#5E9624"/>
<stop offset="0.26" stop-color="#70A828"/>
<stop offset="0.79" stop-color="#9FD732"/>
<stop offset="1" stop-color="#B4EC36"/>
</linearGradient>
<clipPath id="clip0_868_10828">
<rect width="32" height="32" fill="white"/>
</clipPath>
</defs>
</svg>
