<svg width="32" height="32" viewBox="0 0 32 32" fill="none" xmlns="http://www.w3.org/2000/svg">
<path d="M30.9333 2.00879H1.06667C0.477563 2.00879 0 2.48635 0 3.07546V23.7155C0 24.3046 0.477563 24.7821 1.06667 24.7821H30.9333C31.5224 24.7821 32 24.3046 32 23.7155V3.07546C32 2.48635 31.5224 2.00879 30.9333 2.00879Z" fill="#0078D4"/>
<path opacity="0.9" d="M29.5644 3.60938H2.4533C2.1293 3.60938 1.86664 3.87203 1.86664 4.19604V22.4005C1.86664 22.7245 2.1293 22.9872 2.4533 22.9872H29.5644C29.8884 22.9872 30.1511 22.7245 30.1511 22.4005V4.19604C30.1511 3.87203 29.8884 3.60938 29.5644 3.60938Z" fill="url(#paint0_linear_868_10833)"/>
<path d="M17.5289 2.71973H14.56C14.4422 2.71973 14.3467 2.81524 14.3467 2.93306V2.96862C14.3467 3.08644 14.4422 3.18195 14.56 3.18195H17.5289C17.6467 3.18195 17.7422 3.08644 17.7422 2.96862V2.93306C17.7422 2.81524 17.6467 2.71973 17.5289 2.71973Z" fill="#F2F2F2"/>
<path d="M22.88 29.9908C27.0234 29.9908 30.3823 26.6319 30.3823 22.4885C30.3823 18.3452 27.0234 14.9863 22.88 14.9863C18.7367 14.9863 15.3778 18.3452 15.3778 22.4885C15.3778 26.6319 18.7367 29.9908 22.88 29.9908Z" fill="#76BC2D"/>
<path d="M18.4 21.3333C18.2444 21.9122 18.1962 22.5148 18.2578 23.1111C18.3488 23.7408 18.5666 24.3456 18.8978 24.8889C19.1262 25.2858 19.414 25.6455 19.7511 25.9555C20.0784 26.2557 20.4428 26.5126 20.8355 26.72C21.2453 26.9129 21.6744 27.0619 22.1155 27.1644C22.5637 27.227 23.0184 27.227 23.4666 27.1644L23.3422 25.8666C23.3422 25.834 23.3358 25.8016 23.3233 25.7714C23.3107 25.7412 23.2924 25.7138 23.2693 25.6907C23.2462 25.6675 23.2188 25.6492 23.1886 25.6367C23.1584 25.6242 23.126 25.6178 23.0933 25.6178H22.4C22.1038 25.5538 21.817 25.4522 21.5466 25.3155C21.2841 25.1986 21.034 25.0557 20.8 24.8889C20.5715 24.6857 20.3791 24.4453 20.2311 24.1778C20.0059 23.8155 19.8605 23.4095 19.8044 22.9866C19.7243 22.5697 19.7243 22.1413 19.8044 21.7244L20.2489 22.4711C20.2855 22.5285 20.3428 22.5698 20.409 22.5863C20.4751 22.6028 20.545 22.5934 20.6044 22.56L21.1555 22.24C21.213 22.2033 21.2542 22.146 21.2707 22.0799C21.2873 22.0138 21.2779 21.9438 21.2444 21.8844L19.7511 19.36C19.7112 19.3012 19.6508 19.2595 19.5817 19.2431C19.5126 19.2266 19.4398 19.2366 19.3778 19.2711L16.8711 20.7644C16.8474 20.7876 16.8286 20.8153 16.8158 20.8458C16.803 20.8763 16.7964 20.9091 16.7964 20.9422C16.7964 20.9753 16.803 21.0081 16.8158 21.0386C16.8286 21.0691 16.8474 21.0968 16.8711 21.12L17.1733 21.6533C17.19 21.6856 17.2131 21.7142 17.2413 21.7372C17.2694 21.7602 17.302 21.7773 17.3369 21.7873C17.3719 21.7973 17.4086 21.8 17.4446 21.7953C17.4807 21.7906 17.5154 21.7786 17.5466 21.76L18.4 21.3333Z" fill="white"/>
<path d="M23.6444 19.3422C23.9385 19.4134 24.2245 19.5147 24.4978 19.6444C24.7687 19.7892 25.0196 19.9685 25.2444 20.1777C25.4774 20.3813 25.6755 20.6215 25.8311 20.8889C26.0458 21.2545 26.1849 21.6595 26.24 22.08C26.3197 22.4969 26.3197 22.9252 26.24 23.3422L25.7956 22.5955C25.7618 22.535 25.7058 22.4901 25.6394 22.4702C25.573 22.4503 25.5015 22.457 25.44 22.4889L24.9067 22.8089C24.8758 22.8271 24.849 22.8513 24.8277 22.8802C24.8065 22.909 24.7913 22.9418 24.783 22.9766C24.7747 23.0115 24.7735 23.0477 24.7795 23.083C24.7854 23.1183 24.7985 23.152 24.8178 23.1822L26.2933 25.6889C26.3305 25.7506 26.3897 25.796 26.459 25.8158C26.5283 25.8356 26.6025 25.8284 26.6667 25.7955L29.1733 24.3022C29.2056 24.2855 29.2342 24.2624 29.2572 24.2342C29.2803 24.2061 29.2973 24.1735 29.3073 24.1386C29.3173 24.1036 29.32 24.067 29.3153 24.0309C29.3106 23.9948 29.2986 23.9601 29.28 23.9289L28.96 23.3955C28.9201 23.3368 28.8597 23.2951 28.7906 23.2786C28.7215 23.2622 28.6488 23.2722 28.5867 23.3066L27.7156 23.8222C27.8962 23.1991 27.9446 22.5451 27.8578 21.9022C27.7621 21.2762 27.5511 20.6734 27.2356 20.1244C26.9954 19.741 26.7088 19.3887 26.3822 19.0755C25.7046 18.4183 24.8535 17.9681 23.9289 17.7777C23.5688 17.7329 23.2045 17.7329 22.8444 17.7777C22.8101 17.7798 22.7765 17.7891 22.7458 17.8048C22.7152 17.8206 22.6882 17.8425 22.6664 17.8692C22.6447 17.896 22.6288 17.9269 22.6196 17.9601C22.6105 17.9934 22.6084 18.0281 22.6133 18.0622V19.0933C22.6215 19.1547 22.6508 19.2114 22.6962 19.2536C22.7417 19.2958 22.8003 19.3208 22.8622 19.3244C23.123 19.3079 23.3847 19.3138 23.6444 19.3422Z" fill="white"/>
<defs>
<linearGradient id="paint0_linear_868_10833" x1="16" y1="28.1605" x2="16" y2="0.92493" gradientUnits="userSpaceOnUse">
<stop stop-color="#D2EBFF"/>
<stop offset="1" stop-color="#F0FFFD"/>
</linearGradient>
</defs>
</svg>
