<svg width="32" height="32" viewBox="0 0 32 32" fill="none" xmlns="http://www.w3.org/2000/svg">
<path d="M24.8889 28.8885C25.1854 28.8932 25.4799 28.8395 25.7557 28.7303C26.0314 28.6212 26.2829 28.4588 26.4959 28.2525C26.7088 28.0461 26.8791 27.7998 26.9968 27.5276C27.1146 27.2555 27.1776 26.9628 27.1822 26.6663C27.191 26.5776 27.191 26.4883 27.1822 26.3996C26.2933 19.2885 22.24 13.5107 14.5067 13.5107C6.77333 13.5107 2.56 18.3641 1.77778 26.3819C1.7181 26.9803 1.89779 27.5781 2.27756 28.0445C2.65732 28.5109 3.20629 28.8079 3.80444 28.8707H24.8889V28.8885Z" fill="url(#paint0_linear_868_10843)"/>
<path opacity="0.8" d="M14.4889 15.1466C13.1312 15.1477 11.8027 14.7523 10.6667 14.0088L14.4534 23.9999L18.24 14.0799C17.1135 14.7781 15.8142 15.1475 14.4889 15.1466Z" fill="white"/>
<path d="M14.4889 15.1465C18.4261 15.1465 21.6178 11.9547 21.6178 8.01756C21.6178 4.08038 18.4261 0.888672 14.4889 0.888672C10.5517 0.888672 7.35999 4.08038 7.35999 8.01756C7.35999 11.9547 10.5517 15.1465 14.4889 15.1465Z" fill="url(#paint1_linear_868_10843)"/>
<path d="M27.2178 19.2354C26.5251 19.1807 25.8337 19.3569 25.2517 19.7364C24.6696 20.1158 24.2295 20.6773 24 21.3332C23.7732 20.6756 23.3336 20.1123 22.7509 19.7324C22.1682 19.3525 21.4754 19.1776 20.7822 19.2354C17.8667 19.5554 17.7778 22.3465 17.7778 23.4488C17.7778 24.231 17.9555 26.7199 23.9644 31.0399C30.0622 26.6665 30.2222 24.231 30.2222 23.4488C30.2222 22.3465 30.2222 19.5554 27.2178 19.2354Z" fill="#B31B1B"/>
<path d="M30.2222 23.1116H27.3777C27.3382 23.1074 27.2982 23.1153 27.2633 23.1344C27.2284 23.1534 27.2001 23.1827 27.1822 23.2183L26.2933 24.6938C26.2817 24.7086 26.2668 24.7206 26.2499 24.7288C26.2329 24.737 26.2144 24.7413 26.1955 24.7413C26.1767 24.7413 26.1581 24.737 26.1412 24.7288C26.1242 24.7206 26.1094 24.7086 26.0977 24.6938L24.8889 22.1871C24.8713 22.145 24.8417 22.109 24.8037 22.0837C24.7658 22.0584 24.7212 22.0449 24.6755 22.0449C24.6299 22.0449 24.5853 22.0584 24.5473 22.0837C24.5094 22.109 24.4797 22.145 24.4622 22.1871L23.2533 25.7427C23.2533 25.771 23.2421 25.7981 23.2221 25.8181C23.2021 25.8381 23.1749 25.8494 23.1466 25.8494C23.1183 25.8494 23.0912 25.8381 23.0712 25.8181C23.0512 25.7981 23.04 25.771 23.04 25.7427L21.9911 23.3249C21.9715 23.2877 21.942 23.2565 21.906 23.2348C21.87 23.2131 21.8287 23.2016 21.7866 23.2016C21.7446 23.2016 21.7033 23.2131 21.6673 23.2348C21.6312 23.2565 21.6018 23.2877 21.5822 23.3249L20.1955 25.8494C20.1777 25.8849 20.1494 25.9142 20.1144 25.9333C20.0795 25.9523 20.0395 25.9603 20 25.956H18.72C18.9182 26.2729 19.138 26.5759 19.3777 26.8627H20.5333C20.5749 26.8655 20.6163 26.855 20.6515 26.8326C20.6867 26.8102 20.7138 26.7771 20.7289 26.7383L21.7066 24.9605L23.0222 28.0005C23.0397 28.0426 23.0694 28.0786 23.1073 28.1039C23.1453 28.1292 23.1899 28.1427 23.2355 28.1427C23.2812 28.1427 23.3258 28.1292 23.3637 28.1039C23.4017 28.0786 23.4313 28.0426 23.4489 28.0005L24.8177 23.9471L26.0089 26.2227C26.0318 26.2557 26.0623 26.2827 26.0979 26.3013C26.1335 26.3199 26.1731 26.3296 26.2133 26.3296C26.2535 26.3296 26.2931 26.3199 26.3287 26.3013C26.3643 26.2827 26.3948 26.2557 26.4177 26.2227L27.7333 23.9827C27.7544 23.9486 27.783 23.9197 27.8169 23.8981C27.8507 23.8766 27.889 23.8629 27.9289 23.8583H30.2222" fill="#F2F2F2"/>
<defs>
<linearGradient id="paint0_linear_868_10843" x1="14.4711" y1="11.5907" x2="14.4711" y2="32.693" gradientUnits="userSpaceOnUse">
<stop offset="0.22" stop-color="#32D4F5"/>
<stop offset="1" stop-color="#198AB3"/>
</linearGradient>
<linearGradient id="paint1_linear_868_10843" x1="13.8667" y1="0.26645" x2="15.4133" y2="19.4309" gradientUnits="userSpaceOnUse">
<stop offset="0.22" stop-color="#32D4F5"/>
<stop offset="1" stop-color="#198AB3"/>
</linearGradient>
</defs>
</svg>
