<svg width="32" height="32" viewBox="0 0 32 32" fill="none" xmlns="http://www.w3.org/2000/svg">
<g clip-path="url(#clip0_850_24920)">
<path d="M32 0H0V32H32V0Z" fill="#C925D1"/>
<path fill-rule="evenodd" clip-rule="evenodd" d="M13.6 7.23125H15.2248V5.60005H13.6V7.23125ZM12.8 7.63125V5.20005C12.8 4.97925 12.9792 4.80005 13.2 4.80005H15.6248C15.8464 4.80005 16.0248 4.97925 16.0248 5.20005V7.63125C16.0248 7.85205 15.8464 8.03125 15.6248 8.03125H13.2C12.9792 8.03125 12.8 7.85205 12.8 7.63125ZM18.4 9.63125H20.0376V8.00565H18.4V9.63125ZM17.6 10.0312V7.60565C17.6 7.38485 17.7792 7.20565 18 7.20565H20.4376C20.6584 7.20565 20.8376 7.38485 20.8376 7.60565V10.0312C20.8376 10.252 20.6584 10.4312 20.4376 10.4312H18C17.7792 10.4312 17.6 10.252 17.6 10.0312ZM12.8 12.0176H14.4232V10.4312H12.8V12.0176ZM12 12.4176V10.0312C12 9.81045 12.1792 9.63125 12.4 9.63125H14.8232C15.0448 9.63125 15.2232 9.81045 15.2232 10.0312V12.4176C15.2232 12.6384 15.0448 12.8176 14.8232 12.8176H12.4C12.1792 12.8176 12 12.6384 12 12.4176ZM14.824 18.4312H22.8432V17.6312H14.824V18.4312ZM8.04405 19.2312H9.26485C8.96885 18.384 8.80005 17.4776 8.80005 16.532V13.6456H8.04405C6.67365 13.6456 5.60005 14.868 5.60005 16.4288C5.60005 18 6.67365 19.2312 8.04405 19.2312ZM8.04405 20.0312C6.22485 20.0312 4.80005 18.4488 4.80005 16.4288C4.80005 14.4192 6.22485 12.8456 8.04405 12.8456H8.80005V12.4312C8.80005 12.2104 8.97925 12.0312 9.20005 12.0312H11.2V12.8312H9.60005V16.532C9.60005 16.9064 9.63765 17.2712 9.69045 17.6312H13.62V18.4312H9.85605C10.7128 21.648 13.6752 24.0312 17.2 24.0312C21.4176 24.0312 24.8496 20.6672 24.8496 16.532V16.0168H11.3312V15.2168H24.8496V12.8312H16.0264V12.0312H25.2496C25.4704 12.0312 25.6496 12.2104 25.6496 12.4312V16.532C25.6496 21.108 21.8584 24.8312 17.2 24.8312C13.8344 24.8312 10.9336 22.8616 9.59365 20.0312H8.04405ZM27.2264 23.8104C27.2264 25.9712 22.1288 27.2624 17.2 27.2624C12.4504 27.2624 7.64405 26.0768 7.64405 23.8104C7.64405 23.2056 8.03525 22.324 9.89925 21.5544L10.204 22.2944C9.08485 22.756 8.44405 23.308 8.44405 23.8104C8.44405 25.0912 11.9624 26.4624 17.2 26.4624C22.4808 26.4624 26.4264 25.0624 26.4264 23.8104C26.4264 23.3088 25.7848 22.756 24.6672 22.2936L24.972 21.5544C26.8352 22.324 27.2264 23.2056 27.2264 23.8104Z" fill="white"/>
</g>
<defs>
<clipPath id="clip0_850_24920">
<rect width="32" height="32" fill="white"/>
</clipPath>
</defs>
</svg>
