<svg width="32" height="32" viewBox="0 0 32 32" fill="none" xmlns="http://www.w3.org/2000/svg">
<g clip-path="url(#clip0_850_24984)">
<path d="M32 0H0V32H32V0Z" fill="#C925D1"/>
<path fill-rule="evenodd" clip-rule="evenodd" d="M25.5128 19.8304L24.0448 18.8208C24.4072 17.9096 24.5912 16.9496 24.5912 15.9616C24.5912 14.8256 24.3392 13.696 23.8608 12.672L25.296 11.6416C25.9768 12.9744 26.3352 14.4584 26.3352 15.9616C26.3352 17.3136 26.0592 18.6128 25.5128 19.8304ZM25.7776 10.8536C25.7216 10.7552 25.6264 10.6856 25.516 10.6616C25.4056 10.6384 25.2896 10.6624 25.1968 10.7272L23.1176 12.2208C22.956 12.3368 22.904 12.5552 22.9968 12.7312C23.5168 13.7208 23.7912 14.8376 23.7912 15.9616C23.7912 16.948 23.5872 17.904 23.1848 18.8016C23.1056 18.9784 23.1632 19.1856 23.3232 19.2952L25.4456 20.7552C25.5128 20.8008 25.592 20.8256 25.672 20.8256C25.7048 20.8256 25.7385 20.8216 25.7705 20.8128C25.8833 20.784 25.9768 20.7088 26.0296 20.6064C26.7624 19.1576 27.1352 17.5952 27.1352 15.9616C27.1352 14.1704 26.6656 12.404 25.7776 10.8536ZM15.9744 26.3352V24.3688C18.5312 24.3672 20.9592 23.1856 22.5472 21.1904L24.168 22.3064C22.2104 24.8344 19.1784 26.3328 15.9744 26.3352ZM5.60005 15.9672C5.60005 10.5184 9.82885 6.04805 15.1744 5.64005V7.60565C10.9128 8.00725 7.56565 11.6024 7.56565 15.9672C7.56565 20.3328 10.9128 23.928 15.1744 24.3296V26.2952C9.82885 25.888 5.60005 21.4168 5.60005 15.9672ZM23.8248 9.20725L22.2224 10.3584C20.6288 8.58085 18.3728 7.56805 15.9744 7.56565V5.60005C19.0136 5.60245 21.8504 6.91125 23.8248 9.20725ZM19.896 12.0288C18.8552 10.9912 17.4432 10.4032 15.9672 10.4032C12.8992 10.4032 10.4032 12.8992 10.4032 15.9672V15.9696H8.36645L8.36565 15.9672C8.36565 11.776 11.776 8.36565 15.9672 8.36565C18.1096 8.36565 20.1184 9.26645 21.5584 10.8344L19.896 12.0288ZM15.9672 21.5312C17.5944 21.5312 19.1496 20.8072 20.2008 19.5768L21.8752 20.728C20.436 22.5088 18.264 23.5696 15.9672 23.5696C12.0472 23.5696 8.81125 20.5856 8.40885 16.7696H10.468C10.8584 19.4576 13.1728 21.5312 15.9672 21.5312ZM22.6856 20.3144L20.3472 18.7064C20.1712 18.5856 19.9288 18.6248 19.7984 18.7976C18.8904 20.0272 17.4936 20.7312 15.9672 20.7312C13.3408 20.7312 11.2032 18.5944 11.2032 15.9672C11.2032 13.3408 13.3408 11.2032 15.9672 11.2032C17.3344 11.2032 18.6384 11.7936 19.544 12.8224C19.6792 12.9768 19.912 13.0024 20.0776 12.8824L22.3912 11.2224L24.6392 9.60805C24.728 9.54405 24.7872 9.44645 24.8016 9.33845C24.8168 9.22965 24.7872 9.12005 24.7192 9.03445C22.584 6.34325 19.3944 4.80005 15.9672 4.80005C9.80965 4.80005 4.80005 9.80965 4.80005 15.9672C4.80005 22.1256 9.80965 27.1352 15.9672 27.1352C19.5672 27.1352 22.9672 25.3816 25.0632 22.444C25.1256 22.3568 25.1496 22.248 25.1304 22.1424C25.112 22.0368 25.052 21.9432 24.9632 21.8816L22.6856 20.3144Z" fill="white"/>
</g>
<defs>
<clipPath id="clip0_850_24984">
<rect width="32" height="32" fill="white"/>
</clipPath>
</defs>
</svg>
