<svg width="32" height="32" viewBox="0 0 32 32" fill="none" xmlns="http://www.w3.org/2000/svg">
<g clip-path="url(#clip0_850_24947)">
<path d="M32 0H0V32H32V0Z" fill="#C925D1"/>
<path fill-rule="evenodd" clip-rule="evenodd" d="M17.7249 17.545C17.5209 17.6578 17.2969 17.7453 17.0521 17.8076C16.8081 17.8707 16.5649 17.9023 16.3233 17.9023C15.9041 17.9023 15.5857 17.7879 15.3697 17.5592C15.1537 17.3304 15.0457 16.9967 15.0457 16.5581C15.0457 16.144 15.1585 15.8135 15.3841 15.5658C15.6089 15.3189 15.9097 15.195 16.2849 15.195C17.2257 15.195 17.7057 15.9342 17.7249 17.4132V17.545ZM16.3041 14.4235C15.8657 14.4235 15.4777 14.5198 15.1417 14.7107C14.8041 14.9016 14.5449 15.1619 14.3641 15.4908C14.1825 15.8198 14.0921 16.1945 14.0921 16.6141C14.0921 17.2476 14.2721 17.7453 14.6313 18.109C14.9897 18.4726 15.4777 18.6541 16.0945 18.6541C16.3865 18.6541 16.6729 18.6122 16.9521 18.5271C17.2321 18.4426 17.4857 18.3251 17.7145 18.1744C17.6705 18.9514 17.4913 19.5249 17.1761 19.8949C16.8617 20.2649 16.3993 20.4494 15.7889 20.4494C15.3505 20.4494 14.8713 20.3335 14.3497 20.1016V20.8162C14.7697 21.0852 15.2937 21.2201 15.9225 21.2201C16.8001 21.2201 17.4761 20.9038 17.9529 20.2712C18.4305 19.6377 18.6689 18.7322 18.6689 17.5544C18.6689 16.5329 18.4665 15.7559 18.0633 15.2226C17.6593 14.6902 17.0737 14.4235 16.3041 14.4235ZM22.9001 22.4113H9.8353C8.0081 22.4097 6.5025 21.0955 6.4065 19.4208C6.4025 19.3443 6.4001 19.2662 6.4001 19.1857C6.4001 17.0078 8.0001 16.2939 8.9537 16.0612C9.1497 16.0138 9.2793 15.8285 9.2545 15.6297C9.2313 15.4404 9.2185 15.2471 9.2185 15.0515C9.2185 13.3129 10.4817 11.441 12.0945 10.7894C12.7553 10.5228 13.4297 10.3918 14.0905 10.3918C15.3745 10.3918 16.6081 10.8848 17.6017 11.8346C18.1881 12.3955 18.6449 13.1117 18.9609 13.9629C19.0105 14.0985 19.1321 14.1964 19.2761 14.2177C19.4201 14.2413 19.5657 14.183 19.6545 14.0678C20.1249 13.462 20.8857 13.2087 21.5929 13.4209C22.4185 13.6694 22.9529 14.4985 23.0225 15.6376C23.0337 15.8158 23.1649 15.9649 23.3425 16.0004C25.3713 16.4035 26.4001 17.4858 26.4001 19.2165C26.4001 22.1005 23.9521 22.4113 22.9001 22.4113ZM23.7937 15.2913C23.6265 13.9621 22.9065 12.9918 21.8265 12.666C21.0049 12.4191 20.1353 12.5998 19.4753 13.1251C19.1377 12.4049 18.6961 11.7817 18.1577 11.2682C16.4185 9.60299 14.0385 9.15415 11.7913 10.0589C9.8689 10.8359 8.4185 12.9824 8.4185 15.0515C8.4185 15.1643 8.4217 15.2771 8.4289 15.3883C7.3761 15.7228 5.6001 16.6623 5.6001 19.1857C5.6001 19.2812 5.6025 19.3735 5.6081 19.465C5.7281 21.557 7.5841 23.1985 9.8345 23.2001H22.9001C24.9785 23.2001 27.2001 22.1541 27.2001 19.2165C27.2001 17.205 25.9937 15.8198 23.7937 15.2913Z" fill="white"/>
</g>
<defs>
<clipPath id="clip0_850_24947">
<rect width="32" height="32" fill="white"/>
</clipPath>
</defs>
</svg>
