<svg width="32" height="32" viewBox="0 0 32 32" fill="none" xmlns="http://www.w3.org/2000/svg">
<g clip-path="url(#clip0_850_24915)">
<path d="M32 0H0V32H32V0Z" fill="#C925D1"/>
<path fill-rule="evenodd" clip-rule="evenodd" d="M18.3656 21.5401H16.7883V18.3H15.9997V21.5401H14.4225V19.11H13.6338V21.5401H12.8452V22.3501H13.6338H14.4225H15.9997H16.7883H18.3656H19.1542V21.5401V16.68H18.3656V21.5401ZM21.5201 19.9201C21.5201 16.7934 19.043 14.25 15.9997 14.25C12.9564 14.25 10.4793 16.7934 10.4793 19.9201C10.4793 23.0467 12.9564 25.5901 15.9997 25.5901C19.043 25.5901 21.5201 23.0467 21.5201 19.9201ZM22.3087 19.9201C22.3087 23.493 19.4783 26.4001 15.9997 26.4001C12.5211 26.4001 9.6907 23.493 9.6907 19.9201C9.6907 16.3471 12.5211 13.44 15.9997 13.44C19.4783 13.44 22.3087 16.3471 22.3087 19.9201ZM26.4001 15.2779C26.4001 17.4989 25.2124 18.9432 23.1423 19.2413L23.0327 18.4394C24.2085 18.2701 25.6115 17.584 25.6115 15.2779C25.6115 13.1111 24.0153 12.3279 22.6762 12.0525C22.5003 12.016 22.3702 11.8621 22.36 11.6782C22.2732 10.0963 21.371 9.38836 20.5154 9.38836C19.9775 9.38836 19.476 9.64837 19.1392 10.1012C19.0533 10.2194 18.9129 10.2761 18.7678 10.2567C18.6258 10.2348 18.506 10.1352 18.4563 9.99667C18.1519 9.15184 17.7008 8.41473 17.1503 7.86474C15.7055 6.41645 13.7285 6.02359 11.8642 6.81416C10.3153 7.46702 9.10238 9.34462 9.10238 11.0894C9.10238 11.2862 9.11421 11.479 9.13708 11.6677C9.16232 11.8718 9.03456 12.063 8.84056 12.1124C7.92497 12.3449 6.38793 13.0625 6.38793 15.2471C6.38793 15.3297 6.39188 15.4035 6.39582 15.482C6.46443 16.7626 7.54091 17.9388 9.01406 18.3422L8.81059 19.1246C7.01253 18.6321 5.69631 17.1531 5.60877 15.5266C5.60325 15.4334 5.6001 15.3451 5.6001 15.2471C5.6001 12.7086 7.30668 11.7609 8.32322 11.4223C8.31691 11.3129 8.31376 11.2011 8.31376 11.0894C8.31376 9.00603 9.71041 6.84575 11.5645 6.0649C13.7269 5.14879 16.0234 5.6032 17.7008 7.28396C18.2031 7.78698 18.6329 8.41959 18.961 9.13807C20.2985 8.04051 22.7945 8.5014 23.121 11.3243C25.2385 11.8556 26.4001 13.2505 26.4001 15.2779Z" fill="white"/>
</g>
<defs>
<clipPath id="clip0_850_24915">
<rect width="32" height="32" fill="white"/>
</clipPath>
</defs>
</svg>
