<svg width="32" height="32" viewBox="0 0 32 32" fill="none" xmlns="http://www.w3.org/2000/svg">
<g clip-path="url(#clip0_850_24937)">
<path d="M32 0H0V32H32V0Z" fill="#C925D1"/>
<path fill-rule="evenodd" clip-rule="evenodd" d="M11.2 11.2H13.6V10.4H11.2V11.2ZM15.1616 23.8392L14.4176 23.5464L17.2888 16.2456L18.0328 16.5384L15.1616 23.8392ZM18.556 21.8928L20.6784 20.032L18.5584 18.1944L19.0824 17.5896L21.5488 19.728C21.636 19.8032 21.6864 19.9136 21.6864 20.0288C21.6864 20.1448 21.6376 20.2544 21.5504 20.3312L19.084 22.4944L18.556 21.8928ZM10.8936 20.228C10.8136 20.1504 10.7696 20.0432 10.772 19.932C10.7744 19.82 10.8232 19.7152 10.9072 19.6416L13.3648 17.4688L13.8944 18.068L11.76 19.9544L13.8992 22.0296L13.3432 22.604L10.8936 20.228ZM26.4 10.4H15.2V11.2H26.4V12.2008C26.4 12.9728 25.7728 13.6 25.0008 13.6H7.28645C6.35685 13.6 5.60005 12.8432 5.60005 11.9128V11.2H9.60005V10.4H5.60005V7.28725C5.60005 6.35685 6.35685 5.60005 7.28645 5.60005H24.8096C25.6864 5.60005 26.4 6.31365 26.4 7.19125V10.4ZM8.80005 26.4H23.2V14.4H8.80005V26.4ZM24.8096 4.80005H7.28645C5.91605 4.80005 4.80005 5.91605 4.80005 7.28725V11.9128C4.80005 13.284 5.91605 14.4 7.28645 14.4H8.00005V26.8C8.00005 27.0208 8.17925 27.2 8.40005 27.2H23.6C23.8208 27.2 24 27.0208 24 26.8V14.4H25.0008C26.2136 14.4 27.2 13.4136 27.2 12.2008V7.19125C27.2 5.87285 26.1272 4.80005 24.8096 4.80005Z" fill="white"/>
</g>
<defs>
<clipPath id="clip0_850_24937">
<rect width="32" height="32" fill="white"/>
</clipPath>
</defs>
</svg>
