<svg width="32" height="32" viewBox="0 0 32 32" fill="none" xmlns="http://www.w3.org/2000/svg">
<g clip-path="url(#clip0_850_24942)">
<path d="M32 0H0V32H32V0Z" fill="#C925D1"/>
<path fill-rule="evenodd" clip-rule="evenodd" d="M4.80005 5.6001V27.2001H18.4V26.4001H5.60005V9.6001H26.4V26.4001H24V27.2001H27.2V5.6001H4.80005ZM5.60005 8.8001H26.4V6.4001H5.60005V8.8001ZM10.4 8.0001H11.2V7.2001H10.4V8.0001ZM8.80005 8.0001H9.60005V7.2001H8.80005V8.0001ZM7.20005 8.0001H8.00005V7.2001H7.20005V8.0001ZM8.51765 14.6833L12.2344 18.4001L8.51765 22.1177L9.08245 22.6825L13.3656 18.4001L9.08245 14.1169L8.51765 14.6833ZM15.2 20.8001H22.4V20.0001H15.2V20.8001Z" fill="white"/>
</g>
<defs>
<clipPath id="clip0_850_24942">
<rect width="32" height="32" fill="white"/>
</clipPath>
</defs>
</svg>
