<svg width="32" height="32" viewBox="0 0 32 32" fill="none" xmlns="http://www.w3.org/2000/svg">
<g clip-path="url(#clip0_850_24932)">
<path d="M32 0H0V32H32V0Z" fill="#C925D1"/>
<path fill-rule="evenodd" clip-rule="evenodd" d="M22.9468 21.483L24.5349 19.883C24.6897 19.727 24.6897 19.4734 24.5349 19.3174L22.9468 17.7174L22.3855 18.283L23.6924 19.5998L22.3855 20.9174L22.9468 21.483ZM17.6213 21.483L18.1827 20.9174L16.8757 19.5998L18.1827 18.283L17.6213 17.7174L16.0332 19.3174C15.8784 19.4734 15.8784 19.727 16.0332 19.883L17.6213 21.483ZM26.6073 8.7998L24.0958 6.3998H23.625L21.2429 8.7998H26.6073ZM22.5014 6.3998H18.0667L20.2837 8.6342L22.5014 6.3998ZM20.2837 13.6278L16.1214 15.1998H24.4468L20.2837 13.6278ZM14.3284 23.1998H26.2389V15.9998H14.3284V23.1998ZM19.3253 8.7998L17.1075 6.5662L14.8906 8.7998H19.3253ZM13.902 8.66461L16.1491 6.3998H11.0935L13.902 8.66461ZM12.7999 8.7998L9.97555 6.5238L7.44179 8.7998H11.5493H12.7999ZM11.1523 9.5998H7.88248L11.1523 12.3462V9.5998ZM11.1523 14.1662L7.37351 17.9734L11.1523 21.1462V14.1662ZM11.1523 22.8886L7.21787 26.3998H11.1523V22.8886ZM7.18214 25.363L10.9403 22.0094L7.18214 18.8542V25.363ZM7.18214 17.0342L10.9617 13.227L7.18214 10.0542V17.0342ZM7.18214 7.9614L8.91948 6.3998H7.18214V7.9614ZM5.59408 9.5998H6.38811V5.5998H5.59408V9.5998ZM27.9723 9.3486C27.9119 9.5006 27.7658 9.5998 27.603 9.5998H20.6807V12.923L26.7757 15.2254L26.7749 15.2286C26.9257 15.2854 27.0329 15.4286 27.0329 15.5998V23.5998C27.0329 23.8214 26.8559 23.9998 26.6359 23.9998H13.9314C13.7123 23.9998 13.5344 23.8214 13.5344 23.5998V15.5998C13.5344 15.4286 13.6424 15.2854 13.7933 15.2286L13.7925 15.2254L19.8866 12.923V9.5998H11.9463V26.7998C11.9463 27.0214 11.7693 27.1998 11.5493 27.1998H6.78513C6.56598 27.1998 6.38811 27.0214 6.38811 26.7998V10.3998H5.19706C4.97791 10.3998 4.80005 10.2214 4.80005 9.9998V5.1998C4.80005 4.979 4.97791 4.7998 5.19706 4.7998H6.78513C7.00507 4.7998 7.18214 4.979 7.18214 5.1998V5.5998H9.94934H9.95252H24.2538C24.3555 5.5998 24.4531 5.6398 24.527 5.7102L27.8762 8.9102C27.9937 9.0222 28.0318 9.1966 27.9723 9.3486ZM19.461 22.8158L18.725 22.5182L20.8427 17.1846L21.5787 17.4822L19.461 22.8158Z" fill="white"/>
</g>
<defs>
<clipPath id="clip0_850_24932">
<rect width="32" height="32" fill="white"/>
</clipPath>
</defs>
</svg>
