<svg width="32" height="32" viewBox="0 0 32 32" fill="none" xmlns="http://www.w3.org/2000/svg">
<g clip-path="url(#clip0_850_24905)">
<path d="M32 0H0V32H32V0Z" fill="#C925D1"/>
<path fill-rule="evenodd" clip-rule="evenodd" d="M27.2 15.8691C27.2 18.5749 25.3058 19.5678 24.1754 19.9195L23.9347 19.1679C25.0579 18.8178 26.3978 17.9621 26.3978 15.8691C26.3978 13.2225 24.177 12.5616 23.2223 12.3999C23.0057 12.3637 22.8596 12.1626 22.8941 11.9488C22.8131 10.7675 22.2363 9.88342 21.3529 9.63027C20.6253 9.42128 19.8494 9.69809 19.3721 10.3337C19.2838 10.4512 19.1418 10.508 18.9902 10.4899C18.8434 10.4678 18.7206 10.3684 18.6709 10.2312C18.3419 9.31403 17.8646 8.54354 17.2524 7.94024C16.5007 7.19893 14.4356 5.60827 11.5297 6.81802C9.84727 7.51832 8.52991 9.53484 8.52991 11.4094C8.52991 11.6208 8.54274 11.8298 8.56681 12.034C8.59168 12.2304 8.46332 12.4141 8.26836 12.463C7.27271 12.7122 5.60234 13.4827 5.60234 15.836C5.60234 15.9133 5.60475 15.989 5.60796 16.0631C5.68337 17.5765 6.81862 18.8785 8.36784 19.2279L8.18893 19.9968C6.28991 19.5686 4.89873 17.9661 4.80727 16.101C4.80246 16.0142 4.80005 15.9259 4.80005 15.836C4.80005 13.1412 6.65254 12.1452 7.73965 11.7935C7.73082 11.6665 7.72761 11.538 7.72761 11.4094C7.72761 9.20599 9.2271 6.91976 11.216 6.0917C13.5466 5.12247 16.0169 5.60354 17.8213 7.38347C18.3805 7.93551 18.8394 8.60584 19.19 9.38027C19.8575 8.83139 20.7392 8.63266 21.5784 8.87319C22.7305 9.20441 23.5015 10.247 23.6732 11.6862C24.8028 11.9457 27.2 12.855 27.2 15.8691ZM22.7979 24.9501L19.9915 26.1946L19.9995 22.3303L22.7979 21.1111V24.9501ZM15.5989 24.9139L12.8021 26.1883V22.3437L15.5989 21.108V24.9139ZM12.3994 21.6576L9.75822 20.507L12.4002 19.3209L15.0269 20.496L12.3994 21.6576ZM9.18217 21.1182L11.9998 22.3453V26.1946L9.18217 24.9423V21.1182ZM15.988 13.034L18.6091 14.1814L16 15.3399L13.3733 14.1806L15.988 13.034ZM16.9756 20.5039L19.5895 19.3193L22.221 20.4999L19.5991 21.6426L16.9756 20.5039ZM16.4012 21.1174L19.1972 22.3303L19.1892 26.1875L16.4012 24.9139V21.1174ZM19.1876 18.6324L16.4012 19.8958V16.0268L19.1876 14.7903V18.6324ZM12.8005 18.634L12.7933 14.7895L15.5989 16.0276V19.8856L12.8005 18.634ZM23.3619 20.1561L23.3659 20.1466L19.9898 18.6317V14.1791C19.9898 14.045 19.9209 13.9204 19.8061 13.8478C19.7885 13.8368 19.766 13.8368 19.7476 13.8289L19.7516 13.8195L16.1517 12.2422C16.0482 12.1965 15.9294 12.1965 15.8243 12.2422L12.2269 13.8195L12.2317 13.8289C12.2116 13.8376 12.19 13.8368 12.1723 13.8486C12.0584 13.9212 11.9894 14.0458 11.9894 14.1799L11.9982 18.6348L8.61415 20.1537L8.61816 20.1632C8.59971 20.1711 8.57885 20.1711 8.5628 20.1821C8.44887 20.2547 8.37988 20.3793 8.37988 20.5125V25.197C8.37988 25.3516 8.47214 25.4919 8.61575 25.5558L12.2357 27.1646L12.2405 27.1544C12.2927 27.1764 12.3448 27.2001 12.401 27.2001C12.4579 27.2001 12.5157 27.1883 12.5694 27.163L15.9992 25.6L19.4194 27.163L19.425 27.1528C19.4772 27.1764 19.5309 27.2001 19.5887 27.2001C19.6449 27.2001 19.7002 27.1883 19.754 27.1646L23.3643 25.5637C23.5071 25.5006 23.6002 25.3602 23.6002 25.2049V20.5054C23.6002 20.3722 23.5312 20.2476 23.4172 20.175C23.4004 20.164 23.3795 20.164 23.3619 20.1561Z" fill="white"/>
</g>
<defs>
<clipPath id="clip0_850_24905">
<rect width="32" height="32" fill="white"/>
</clipPath>
</defs>
</svg>
