<svg width="32" height="32" viewBox="0 0 32 32" fill="none" xmlns="http://www.w3.org/2000/svg">
<g clip-path="url(#clip0_850_24973)">
<path d="M32 0H0V32H32V0Z" fill="#C925D1"/>
<path fill-rule="evenodd" clip-rule="evenodd" d="M14.4657 18.3972L16.8257 13.1244L17.5553 13.4508L15.1953 18.7236L14.4657 18.3972ZM18.5705 16.7908L19.9865 15.7572L18.7393 14.4916L19.3097 13.93L20.8825 15.526C20.9633 15.6084 21.0049 15.7228 20.9953 15.8388C20.9857 15.9548 20.9265 16.0612 20.8329 16.13L19.0425 17.4364L18.5705 16.7908ZM14.2505 14.526L12.8145 15.5748L14.0657 16.8404L13.4969 17.4028L11.9185 15.8068C11.8369 15.7244 11.7953 15.61 11.8049 15.494C11.8145 15.378 11.8737 15.2716 11.9673 15.2028L13.7793 13.8804L14.2505 14.526ZM14.4281 5.48836L6.4001 10.2348V19.0908H5.6001V10.0068C5.6001 9.86516 5.6753 9.73396 5.7961 9.66276L14.0201 4.79956L14.4281 5.48836ZM27.2001 11.8908V21.9068C27.2001 22.0492 27.1233 22.182 26.9993 22.2532L18.7825 26.9844L18.3833 26.2916L26.4001 21.6756V11.8908H27.2001ZM22.4001 19.422L16.3681 22.8524L10.4001 19.3548V12.4252L16.3641 8.99556L22.4001 12.4948V19.422ZM23.2001 19.6548V12.2644C23.2001 12.122 23.1241 11.99 23.0009 11.918L16.5657 8.18756C16.4425 8.11636 16.2905 8.11556 16.1657 8.18676L9.8009 11.8468C9.6769 11.9188 9.6001 12.0508 9.6001 12.194V19.5836C9.6001 19.726 9.6753 19.8572 9.7977 19.9292L16.1625 23.6588C16.2249 23.6956 16.2945 23.714 16.3649 23.714C16.4329 23.714 16.5017 23.6964 16.5625 23.662L22.9977 20.002C23.1225 19.9308 23.2001 19.798 23.2001 19.6548Z" fill="white"/>
</g>
<defs>
<clipPath id="clip0_850_24973">
<rect width="32" height="32" fill="white"/>
</clipPath>
</defs>
</svg>
