<svg width="32" height="32" viewBox="0 0 32 32" fill="none" xmlns="http://www.w3.org/2000/svg">
<g clip-path="url(#clip0_850_24968)">
<path d="M32 0H0V32H32V0Z" fill="#C925D1"/>
<path fill-rule="evenodd" clip-rule="evenodd" d="M16.7999 25.9924V23.6004H15.9999V25.9924L7.1999 20.9116V11.0796L10.2055 12.75L10.5943 12.0508L7.6319 10.4044L16.3999 5.6556L25.1679 10.4052L22.2055 12.0508L22.5943 12.75L25.5999 11.0804V20.9116L16.7999 25.9924ZM26.1895 10.0484L16.5903 4.8484C16.4719 4.7836 16.3279 4.7836 16.2095 4.8484L6.6095 10.0484C6.4807 10.1188 6.3999 10.2532 6.3999 10.4004V21.1428C6.3999 21.286 6.4767 21.418 6.5999 21.4892L16.1999 27.0316C16.2615 27.0668 16.3311 27.0852 16.3999 27.0852C16.4687 27.0852 16.5383 27.0668 16.5999 27.0316L26.1991 21.4892C26.3223 21.418 26.3991 21.286 26.3991 21.1428V10.4004C26.3991 10.2532 26.3183 10.1188 26.1895 10.0484ZM16.7999 21.3308V15.834L20.7999 13.522V19.1812L16.7999 21.3308ZM11.9999 13.522L15.9999 15.834V21.3308L11.9999 19.1812V13.522ZM16.3999 10.8948L20.2063 12.9412L16.3999 15.1412L12.5935 12.9412L16.3999 10.8948ZM21.3887 12.6684L16.5887 10.0892C16.4719 10.026 16.3279 10.026 16.2111 10.0892L11.4111 12.6684C11.2815 12.738 11.1999 12.8732 11.1999 13.0204V19.4204C11.1999 19.5676 11.2815 19.7036 11.4111 19.7732L16.2111 22.3524C16.2695 22.3844 16.3351 22.4004 16.3999 22.4004C16.4647 22.4004 16.5303 22.3844 16.5887 22.3524L21.3887 19.7732C21.5183 19.7036 21.5999 19.5676 21.5999 19.4204V13.0204C21.5999 12.8732 21.5183 12.738 21.3887 12.6684Z" fill="white"/>
</g>
<defs>
<clipPath id="clip0_850_24968">
<rect width="32" height="32" fill="white"/>
</clipPath>
</defs>
</svg>
