<svg width="32" height="32" viewBox="0 0 32 32" fill="none" xmlns="http://www.w3.org/2000/svg">
<g clip-path="url(#clip0_850_24910)">
<path d="M32 0H0V32H32V0Z" fill="#C925D1"/>
<path fill-rule="evenodd" clip-rule="evenodd" d="M24.4 26.3201C23.2968 26.3201 22.4 25.4225 22.4 24.3201C22.4 23.2177 23.2968 22.3201 24.4 22.3201C25.5032 22.3201 26.4 23.2177 26.4 24.3201C26.4 25.4225 25.5032 26.3201 24.4 26.3201ZM17.4144 25.8145C16.6592 26.5697 15.3408 26.5697 14.5856 25.8145C14.208 25.4369 14 24.9345 14 24.4001C14 23.8665 14.208 23.3641 14.5856 22.9865C14.9632 22.6081 15.4656 22.4001 16 22.4001C16.5344 22.4001 17.0368 22.6081 17.4144 22.9865C17.792 23.3641 18 23.8665 18 24.4001C18 24.9345 17.792 25.4369 17.4144 25.8145ZM6.18565 17.8145C5.80805 17.4369 5.60005 16.9345 5.60005 16.4001C5.60005 15.8665 5.80805 15.3641 6.18565 14.9865C6.56325 14.6081 7.06565 14.4001 7.60005 14.4001C8.13445 14.4001 8.63685 14.6081 9.01445 14.9865C9.39205 15.3641 9.60005 15.8665 9.60005 16.4001C9.60005 16.9345 9.39205 17.4369 9.01445 17.8145C8.25925 18.5697 6.94085 18.5697 6.18565 17.8145ZM14.5856 6.9865C14.9632 6.6081 15.4656 6.4001 16 6.4001C16.5344 6.4001 17.0368 6.6081 17.4144 6.9865C17.792 7.3641 18 7.8665 18 8.4001C18 8.9345 17.792 9.4369 17.4144 9.8145C16.6592 10.5697 15.3408 10.5697 14.5856 9.8145C14.208 9.4369 14 8.9345 14 8.4001C14 7.8665 14.208 7.3641 14.5856 6.9865ZM24.4 6.4001C25.5032 6.4001 26.4 7.2977 26.4 8.4001C26.4 9.5033 25.5032 10.4001 24.4 10.4001C23.2968 10.4001 22.4 9.5033 22.4 8.4001C22.4 7.2977 23.2968 6.4001 24.4 6.4001ZM24.4 21.5201C22.9656 21.5201 21.7936 22.6081 21.632 24.0001H18.7608C18.676 23.4049 18.4128 22.8529 17.98 22.4201C17.0032 21.4425 15.3592 21.3809 14.2808 22.2105L9.87765 18.0169C10.2128 17.5473 10.4 16.9889 10.4 16.4001C10.4 15.8105 10.2136 15.2529 9.87765 14.7833L14.2784 10.5921C14.7696 10.9793 15.3648 11.2001 16 11.2001C16.748 11.2001 17.4504 10.9089 17.98 10.3801C18.4128 9.9473 18.676 9.3953 18.7608 8.8001H21.6408C21.8368 10.1537 22.9936 11.2001 24.4 11.2001C25.944 11.2001 27.2 9.9441 27.2 8.4001C27.2 6.8561 25.944 5.6001 24.4 5.6001C22.9936 5.6001 21.8368 6.6465 21.6408 8.0001H18.7608C18.676 7.4049 18.4128 6.8529 17.98 6.4201C16.9232 5.3625 15.0768 5.3625 14.02 6.4201C13.4912 6.9489 13.2 7.6521 13.2 8.4001C13.2 8.9897 13.3864 9.5473 13.7224 10.0177L9.31925 14.2105C8.24085 13.3809 6.59685 13.4425 5.62005 14.4201C5.09125 14.9489 4.80005 15.6521 4.80005 16.4001C4.80005 17.1481 5.09125 17.8513 5.62005 18.3801C6.14885 18.9089 6.85125 19.2001 7.60005 19.2001C8.23445 19.2001 8.83045 18.9793 9.32165 18.5921L13.7224 22.7833C13.3864 23.2529 13.2 23.8105 13.2 24.4001C13.2 25.1481 13.4912 25.8513 14.02 26.3801C14.5488 26.9089 15.2512 27.2001 16 27.2001C16.748 27.2001 17.4504 26.9089 17.98 26.3801C18.4128 25.9473 18.676 25.3953 18.7608 24.8001H21.6488C21.8776 26.1153 23.0208 27.1201 24.4 27.1201C25.944 27.1201 27.2 25.8641 27.2 24.3201C27.2 22.7761 25.944 21.5201 24.4 21.5201ZM7.60005 25.6001C6.93845 25.6001 6.40005 25.0617 6.40005 24.4001C6.40005 23.7385 6.93845 23.2001 7.60005 23.2001C8.26165 23.2001 8.80005 23.7385 8.80005 24.4001C8.80005 25.0617 8.26165 25.6001 7.60005 25.6001ZM7.60005 22.4001C6.49685 22.4001 5.60005 23.2977 5.60005 24.4001C5.60005 25.5033 6.49685 26.4001 7.60005 26.4001C8.70325 26.4001 9.60005 25.5033 9.60005 24.4001C9.60005 23.2977 8.70325 22.4001 7.60005 22.4001ZM24.4 17.6001C23.7384 17.6001 23.2 17.0617 23.2 16.4001C23.2 15.7385 23.7384 15.2001 24.4 15.2001C25.0616 15.2001 25.6 15.7385 25.6 16.4001C25.6 17.0617 25.0616 17.6001 24.4 17.6001ZM24.4 14.4001C23.2968 14.4001 22.4 15.2977 22.4 16.4001C22.4 17.5033 23.2968 18.4001 24.4 18.4001C25.5032 18.4001 26.4 17.5033 26.4 16.4001C26.4 15.2977 25.5032 14.4001 24.4 14.4001ZM16 17.6001C15.3384 17.6001 14.8 17.0617 14.8 16.4001C14.8 15.7385 15.3384 15.2001 16 15.2001C16.6616 15.2001 17.2 15.7385 17.2 16.4001C17.2 17.0617 16.6616 17.6001 16 17.6001ZM16 14.4001C14.8968 14.4001 14 15.2977 14 16.4001C14 17.5033 14.8968 18.4001 16 18.4001C17.1032 18.4001 18 17.5033 18 16.4001C18 15.2977 17.1032 14.4001 16 14.4001ZM7.60005 7.2001C8.26165 7.2001 8.80005 7.7385 8.80005 8.4001C8.80005 9.0617 8.26165 9.6001 7.60005 9.6001C6.93845 9.6001 6.40005 9.0617 6.40005 8.4001C6.40005 7.7385 6.93845 7.2001 7.60005 7.2001ZM7.60005 10.4001C8.70325 10.4001 9.60005 9.5033 9.60005 8.4001C9.60005 7.2977 8.70325 6.4001 7.60005 6.4001C6.49685 6.4001 5.60005 7.2977 5.60005 8.4001C5.60005 9.5033 6.49685 10.4001 7.60005 10.4001Z" fill="white"/>
</g>
<defs>
<clipPath id="clip0_850_24910">
<rect width="32" height="32" fill="white"/>
</clipPath>
</defs>
</svg>
