<svg width="32" height="32" viewBox="0 0 32 32" fill="none" xmlns="http://www.w3.org/2000/svg">
<g clip-path="url(#clip0_850_24926)">
<path d="M32 0H0V32H32V0Z" fill="#C925D1"/>
<path fill-rule="evenodd" clip-rule="evenodd" d="M5.64528 19.3066C5.49568 18.4778 5.70928 17.6674 6.24768 17.0234C6.79808 16.365 7.60528 15.9866 8.46208 15.9866H18.1493L16.2549 17.881L16.8205 18.4466L19.3973 15.8698C19.5541 15.713 19.5541 15.4602 19.3973 15.3042L16.8205 12.7266L16.2549 13.2922L18.1493 15.1866H8.46208C7.36688 15.1866 6.33648 15.669 5.63328 16.5106C4.95088 17.3274 4.66768 18.3986 4.85808 19.449C5.16048 21.1234 6.75328 22.3866 8.56208 22.3866H9.57168V21.5866H8.56208C7.13328 21.5866 5.87968 20.6066 5.64528 19.3066ZM27.1973 18.0882C27.1973 22.0466 23.2189 22.3826 23.1781 22.3858L12.3181 22.3866L14.2429 24.3122L13.6773 24.8778L11.0693 22.2698C10.9133 22.113 10.9133 21.8602 11.0693 21.7042L13.6773 19.0954L14.2429 19.661L12.3181 21.5866H23.1493C23.2533 21.577 26.3973 21.2962 26.3973 18.0882C26.3973 17.5018 26.2885 16.9738 26.0717 16.5186C25.7941 15.933 25.3357 15.4554 24.7125 15.1002C24.4821 14.9682 24.2293 14.8546 23.9621 14.761C23.7045 14.6714 23.4389 14.6026 23.1725 14.5562C22.9597 14.5194 22.8141 14.3194 22.8445 14.1058C22.8469 13.8018 22.8125 13.5058 22.7445 13.2394C22.5309 12.4026 21.9837 11.8402 21.2429 11.6954C20.5261 11.5554 19.7749 11.853 19.3317 12.4538C19.2445 12.573 19.1021 12.6306 18.9509 12.6122C18.8045 12.5906 18.6821 12.4898 18.6325 12.3498C18.3037 11.417 17.8285 10.6322 17.2173 10.0186C16.4677 9.26421 14.4093 7.64501 11.5093 8.87621C9.82288 9.59221 8.39728 11.773 8.39728 13.6386H7.59728C7.59728 11.449 9.21248 8.98261 11.1965 8.14021C13.5213 7.15381 15.9845 7.64341 17.7845 9.45461C18.3437 10.0162 18.8021 10.6994 19.1525 11.4898C19.7733 10.9778 20.5981 10.7562 21.3957 10.9098C22.4365 11.113 23.2309 11.9098 23.5197 13.041C23.5829 13.2898 23.6229 13.5562 23.6389 13.8354C23.8365 13.8818 24.0333 13.9386 24.2261 14.0058C24.5389 14.1146 24.8357 14.249 25.1093 14.405C25.8773 14.8426 26.4445 15.4386 26.7949 16.1754C27.0621 16.7386 27.1973 17.3818 27.1973 18.0882Z" fill="white"/>
</g>
<defs>
<clipPath id="clip0_850_24926">
<rect width="32" height="32" fill="white"/>
</clipPath>
</defs>
</svg>
