<svg width="32" height="32" viewBox="0 0 32 32" fill="none" xmlns="http://www.w3.org/2000/svg">
<g clip-path="url(#clip0_850_24957)">
<path d="M32 0H0V32H32V0Z" fill="#C925D1"/>
<path fill-rule="evenodd" clip-rule="evenodd" d="M19.2 24.001H24V23.201H19.2V24.001ZM15.0832 23.8842L18.2832 20.6842C18.4392 20.5274 18.4392 20.2746 18.2832 20.1178L15.0832 16.9178L14.5176 17.4842L17.4344 20.401L14.5176 23.3178L15.0832 23.8842ZM11.2 26.401H26.4V14.401H11.2V26.401ZM27.2 14.001V26.801C27.2 27.0218 27.0208 27.201 26.8 27.201H10.8C10.5792 27.201 10.4 27.0218 10.4 26.801V14.001C10.4 13.7802 10.5792 13.601 10.8 13.601H26.8C27.0208 13.601 27.2 13.7802 27.2 14.001ZM9.74235 6.44021C8.70395 6.88181 7.89035 8.15381 7.89035 9.33701L7.91595 9.75541C7.92635 9.94661 7.80155 10.1186 7.61675 10.1666C7.01275 10.321 5.99995 10.7994 5.99995 12.2546C5.99995 13.3522 6.59355 13.9578 7.09115 14.2722C7.15195 14.3058 7.41275 14.3698 7.63435 14.4058L8.79995 14.401V15.201H7.57035C7.32395 15.1666 6.87835 15.0834 6.66475 14.949C6.11755 14.6034 5.19995 13.7938 5.19995 12.2546C5.19995 10.9322 5.90315 9.91941 7.09835 9.48901L7.09115 9.36021C7.09035 7.83221 8.09595 6.27061 9.42955 5.70421C10.9888 5.04181 12.6448 5.37061 13.8512 6.58501C14.1864 6.92261 14.468 7.32421 14.6912 7.78421C15.1672 7.45861 15.7744 7.36101 16.3392 7.54741C17.1056 7.79861 17.5912 8.48501 17.676 9.41061C18.2 9.54981 19.0072 9.87781 19.5192 10.637C19.8304 11.0986 19.988 11.6498 19.988 12.2762H19.188C19.188 11.8122 19.0768 11.4106 18.856 11.0842C18.3912 10.3962 17.5544 10.1866 17.2168 10.1282C17 10.0906 16.8536 9.88581 16.8896 9.66901C16.8888 8.98421 16.5976 8.47381 16.0896 8.30741C15.6424 8.16021 15.152 8.32261 14.8672 8.71141C14.78 8.83061 14.632 8.88981 14.4864 8.86981C14.34 8.84821 14.2176 8.74741 14.168 8.60741C13.9616 8.02181 13.664 7.53141 13.2848 7.14981C12.8184 6.68181 11.5424 5.67621 9.74235 6.44021Z" fill="white"/>
</g>
<defs>
<clipPath id="clip0_850_24957">
<rect width="32" height="32" fill="white"/>
</clipPath>
</defs>
</svg>
