<svg width="32" height="32" viewBox="0 0 32 32" fill="none" xmlns="http://www.w3.org/2000/svg">
<g clip-path="url(#clip0_850_24963)">
<path d="M32 0H0V32H32V0Z" fill="#C925D1"/>
<path fill-rule="evenodd" clip-rule="evenodd" d="M26.1865 11.1998C25.8913 10.6878 25.352 10.4006 24.7991 10.4006C24.5271 10.4006 24.2527 10.4694 24.0014 10.615C23.2373 11.0558 22.9741 12.0358 23.4158 12.8006C23.8566 13.5638 24.8375 13.827 25.6016 13.3854C26.3649 12.9446 26.6282 11.9646 26.1865 11.1998ZM26.0017 14.0782C25.8289 14.1782 25.6464 14.2478 25.4624 14.3006L25.672 15.3838L26.681 14.8022L27.081 15.495L25.1008 16.6382L24.6631 14.3814C23.8846 14.3342 23.1405 13.9246 22.7229 13.1998C22.0612 12.0534 22.4556 10.583 23.6014 9.9222C24.7479 9.2622 26.2185 9.6542 26.8794 10.7998C27.5403 11.947 27.1466 13.4166 26.0017 14.0782ZM24.7327 21.483C24.5943 20.9662 24.2639 20.535 23.8014 20.2686C23.4934 20.0902 23.1509 19.9998 22.8037 19.9998C22.6309 19.9998 22.4556 20.0222 22.2836 20.0686C21.7676 20.207 21.3363 20.5382 21.0691 21.0006C20.8026 21.463 20.7314 22.0022 20.869 22.5174C21.0075 23.0334 21.3379 23.4654 21.8012 23.7318C22.2628 23.999 22.8021 24.0702 23.3181 23.9318C23.835 23.7934 24.2663 23.4622 24.5335 22.9998C24.7999 22.5374 24.8703 21.9982 24.7327 21.483ZM25.5048 21.2758C25.6992 21.9982 25.6 22.7518 25.2256 23.3998C24.8519 24.0478 24.2479 24.511 23.5254 24.7046C23.2845 24.7686 23.0389 24.8006 22.7965 24.8006C22.3108 24.8006 21.8324 24.6734 21.4011 24.4246C21.2363 24.3302 21.0851 24.2198 20.9459 24.0982L20.2354 24.7142L21.0307 25.2726L20.5706 25.9278L18.9376 24.7798L20.4378 23.4798C20.293 23.247 20.169 22.9982 20.0969 22.7246C19.9025 22.0022 20.0025 21.2486 20.3762 20.6006C20.7498 19.9526 21.3539 19.4894 22.0764 19.2958C22.7989 19.1038 23.5542 19.2022 24.2015 19.5758C24.8487 19.9494 25.312 20.5534 25.5048 21.2758ZM16.0004 25.5998C16.0004 24.7174 15.2819 23.9998 14.4002 23.9998C13.5177 23.9998 12.8 24.7174 12.8 25.5998C12.8 26.483 13.5177 27.1998 14.4002 27.1998C15.2819 27.1998 16.0004 26.483 16.0004 25.5998ZM16.8005 25.5998C16.8005 26.9238 15.7236 27.9998 14.4002 27.9998C13.0761 27.9998 11.9999 26.9238 11.9999 25.5998C11.9999 25.1958 12.1095 24.819 12.288 24.4846L11.1998 24.107V25.5998H10.3997V22.9838L12.8072 23.8174C13.2329 23.4382 13.7866 23.1998 14.4002 23.1998C15.7236 23.1998 16.8005 24.2766 16.8005 25.5998ZM8.58431 18.3998C8.28907 17.8878 7.74981 17.6006 7.19694 17.6006C6.9249 17.6006 6.65047 17.6694 6.39924 17.815C5.63514 18.2558 5.37191 19.2358 5.81357 20.0006C6.25442 20.7646 7.23534 21.0262 7.99944 20.5854C8.76273 20.1446 9.02597 19.1646 8.58431 18.3998ZM9.2772 17.9998C9.93888 19.147 9.54443 20.6166 8.39949 21.2782C8.02184 21.4958 7.60979 21.5998 7.20254 21.5998C6.37284 21.5998 5.56473 21.1694 5.12068 20.3998C4.4598 19.2534 4.85345 17.783 5.99919 17.1222C6.20881 17.0006 6.43204 16.927 6.65687 16.8742L6.41684 15.6366L5.41272 16.2174L5.01107 15.5254L6.98891 14.3814L7.46257 16.8238C8.19466 16.9054 8.88195 17.3142 9.2772 17.9998ZM7.99944 11.7854C8.76193 12.2262 9.74285 11.9646 10.1853 11.1998C10.6262 10.4358 10.3629 9.4558 9.59964 9.015C9.34761 8.8694 9.07237 8.80061 8.80114 8.80061C8.24827 8.80061 7.709 9.0878 7.41296 9.5998C6.97211 10.3646 7.23534 11.3446 7.99944 11.7854ZM6.72008 9.20061C7.38256 8.05421 8.85314 7.6622 9.99969 8.3222C10.0893 8.3742 10.1661 8.4382 10.2461 8.4998L11.4695 7.4366L10.4637 6.8542L10.8654 6.1622L12.84 7.3054L10.7934 9.0838C11.2758 9.8182 11.3463 10.7878 10.8782 11.5998C10.4341 12.3686 9.62524 12.7998 8.79554 12.7998C8.38829 12.7998 7.97623 12.6958 7.59939 12.4782C6.45365 11.8166 6.0592 10.347 6.72008 9.20061ZM16.0004 7.1998C16.0004 8.083 16.7181 8.7998 17.6006 8.7998C18.2151 8.7998 18.7432 8.44781 19.0112 7.93821L19.0016 7.9342L19.1776 7.4222C19.188 7.3494 19.2008 7.2766 19.2008 7.1998C19.2008 6.3174 18.4823 5.5998 17.6006 5.5998C16.7181 5.5998 16.0004 6.3174 16.0004 7.1998ZM15.2003 7.1998C15.2003 5.8766 16.2765 4.7998 17.6006 4.7998C18.924 4.7998 20.0009 5.8766 20.0009 7.1998C20.0009 7.2774 19.9849 7.3502 19.9777 7.4254L20.801 7.7094V6.3998H21.6011V8.831L19.7745 8.2014C19.3945 9.0246 18.5656 9.5998 17.6006 9.5998C16.2765 9.5998 15.2003 8.5238 15.2003 7.1998ZM14.1682 19.2086L14.9011 19.531L17.7919 12.947L17.059 12.6246L14.1682 19.2086ZM18.5448 13.7854L17.9855 14.3582L19.6777 16.0102L17.7863 17.4302L18.2663 18.0694L20.9042 16.0902L18.5448 13.7854ZM11.095 15.4526L13.7338 13.4726L14.213 14.1126L12.3216 15.5326L14.0138 17.1846L13.4545 17.7574L11.095 15.4526Z" fill="white"/>
</g>
<defs>
<clipPath id="clip0_850_24963">
<rect width="32" height="32" fill="white"/>
</clipPath>
</defs>
</svg>
