<svg width="32" height="32" viewBox="0 0 32 32" fill="none" xmlns="http://www.w3.org/2000/svg">
<g clip-path="url(#clip0_850_24952)">
<path d="M32 0H0V32H32V0Z" fill="#C925D1"/>
<path fill-rule="evenodd" clip-rule="evenodd" d="M10.4984 26.4069H21.8948V20.0635H10.4984V26.4069ZM22.3018 19.2706H10.0914C9.86674 19.2706 9.6844 19.4482 9.6844 19.6671V26.8033C9.6844 27.0222 9.86674 27.1998 10.0914 27.1998H22.3018C22.5265 27.1998 22.7089 27.0222 22.7089 26.8033V19.6671C22.7089 19.4482 22.5265 19.2706 22.3018 19.2706ZM16.1673 25.365L15.4119 25.07L17.04 21.1054L17.7954 21.4004L16.1673 25.365ZM18.7576 24.1439L20.0983 22.8387L18.7576 21.5336L19.3339 20.9722L20.962 22.558C21.1207 22.7135 21.1207 22.964 20.962 23.1194L19.3339 24.7053L18.7576 24.1439ZM12.2453 23.1194C12.0866 22.964 12.0866 22.7135 12.2453 22.558L13.8734 20.9722L14.4497 21.5336L13.109 22.8387L14.4497 24.1439L13.8734 24.7053L12.2453 23.1194ZM26.7961 13.8589C26.1221 13.223 25.1933 12.9272 23.8705 12.9272C22.3751 12.9272 21.2249 13.3475 20.5167 14.0944C20.3197 10.3487 19.3274 7.2079 17.9639 5.72356C22.6649 6.38802 26.2336 9.67389 27.024 14.0746C26.9483 14.0016 26.8718 13.9303 26.7961 13.8589ZM19.4804 13.9953L19.3339 13.8581C18.6778 13.2404 17.6228 12.9272 16.1966 12.9272C14.825 12.9272 13.7822 13.2841 13.1123 13.9533C13.3524 8.7541 14.8234 5.59273 16.1966 5.59273C17.7449 5.59273 19.4601 9.20527 19.7075 14.2134C19.6343 14.1412 19.561 14.0698 19.4804 13.9953ZM12.2852 14.2609C12.177 14.1499 12.0614 14.0413 11.9401 13.9271L11.8668 13.8581C11.1928 13.223 10.2615 12.9272 8.93549 12.9272C7.62409 12.9272 6.56341 13.2547 5.843 13.8502C6.73843 9.51134 10.0768 6.37058 14.4888 5.72276C13.1668 7.30305 12.4212 10.7047 12.2852 14.2609ZM28 15.7667C28 15.7516 28 15.7358 27.9992 15.7207C27.8836 9.49231 22.8179 4.7998 16.1966 4.7998C9.94408 4.7998 5.04525 9.49231 4.80104 15.704C4.78964 15.8571 4.87756 15.999 5.00699 16.0759L5.00618 16.0767L5.01513 16.0823C5.0192 16.0846 5.02083 16.087 5.02408 16.0886L9.17563 18.7211L9.61928 18.0566L5.69566 15.5685C6.10593 13.9216 8.07262 13.7202 8.93549 13.7202C10.0369 13.7202 10.7874 13.9453 11.3002 14.4282L11.3735 14.4972C11.936 15.0253 12.2168 15.2901 12.2649 15.9832C12.2657 15.9966 12.273 16.0077 12.2755 16.0212C12.2779 16.0347 12.2779 16.0498 12.2803 16.0617L12.8249 18.0194L13.6105 17.8124L13.0822 15.9118L13.0854 15.8634C13.2466 14.4409 14.2934 13.7202 16.1966 13.7202C17.0269 13.7202 18.147 13.8431 18.7673 14.4282L18.9179 14.5686C19.4055 15.0229 19.6514 15.2513 19.723 15.9086V15.9142L19.1906 17.8116L19.9762 18.0202L20.5256 16.0632C20.5321 16.0418 20.533 16.022 20.5354 16.0022C20.5362 15.9958 20.5403 15.9903 20.5403 15.9839C20.6852 13.9406 22.9173 13.7202 23.8705 13.7202C24.9678 13.7202 25.7175 13.9453 26.2295 14.4282C26.722 14.8921 27.0541 15.241 27.1453 15.5867L23.6417 17.9631L24.1074 18.6133L27.8258 16.0918L27.8218 16.0854C27.9268 16.0141 28 15.9007 28 15.7667Z" fill="white"/>
</g>
<defs>
<clipPath id="clip0_850_24952">
<rect width="32" height="32" fill="white"/>
</clipPath>
</defs>
</svg>
