<svg width="32" height="32" viewBox="0 0 32 32" fill="none" xmlns="http://www.w3.org/2000/svg">
<path d="M28.4444 15.0042C28.4444 23.1287 18.6133 29.6709 16.48 31.0042C16.3577 31.0817 16.2159 31.1228 16.0711 31.1228C15.9263 31.1228 15.7845 31.0817 15.6622 31.0042C13.4578 29.6709 3.55554 23.1109 3.55554 15.0042V5.22645C3.55549 5.02204 3.63546 4.82572 3.77833 4.67953C3.9212 4.53333 4.11562 4.44887 4.31999 4.44423C12.0355 4.24867 10.2755 0.888672 16 0.888672C21.7244 0.888672 19.9644 4.24867 27.6089 4.44423C27.8132 4.44887 28.0077 4.53333 28.1505 4.67953C28.2934 4.82572 28.3734 5.02204 28.3733 5.22645L28.4444 15.0042Z" fill="#1B93EB"/>
<path d="M27.3422 15.0756C27.3422 22.5423 18.3289 28.5334 16.3733 29.7423C16.2611 29.8115 16.1318 29.8482 16 29.8482C15.8681 29.8482 15.7389 29.8115 15.6267 29.7423C13.6711 28.5334 4.65777 22.5423 4.65777 15.0756V6.18674C4.64005 6.0855 4.64394 5.98166 4.66918 5.88203C4.69443 5.78239 4.74046 5.68923 4.80426 5.60864C4.86805 5.52806 4.94817 5.46187 5.03935 5.41444C5.13053 5.36701 5.23072 5.33939 5.33332 5.33341C12.3378 5.13786 10.6667 2.08008 16 2.08008C21.3333 2.08008 19.6444 5.20897 26.6667 5.33341C26.8507 5.34235 27.0245 5.42067 27.1532 5.5526C27.2818 5.68454 27.3557 5.8603 27.36 6.04452L27.3422 15.0756Z" fill="url(#paint0_linear_853_6739)"/>
<path d="M19.4489 22.613C17.5467 22.3641 17.6711 21.1374 17.6711 19.1641H14.1156C14.1156 21.1374 14.1156 22.3641 12.3378 22.613C12.1095 22.6317 11.8947 22.7286 11.7295 22.8873C11.5644 23.0459 11.459 23.2567 11.4311 23.4841H20.4978C20.4666 23.2327 20.3407 23.0026 20.1459 22.8408C19.951 22.6789 19.7017 22.5975 19.4489 22.613Z" fill="#1F56A3"/>
<path d="M23.4133 7.66211H8.19555C7.89118 7.66211 7.64444 7.90885 7.64444 8.21322V18.6666C7.64444 18.9709 7.89118 19.2177 8.19555 19.2177H23.4133C23.7177 19.2177 23.9644 18.9709 23.9644 18.6666V8.21322C23.9644 7.90885 23.7177 7.66211 23.4133 7.66211Z" fill="#1490DF"/>
<path d="M22.72 8.56836H8.87111C8.71402 8.56836 8.58667 8.69571 8.58667 8.8528V17.8661C8.58667 18.0232 8.71402 18.1506 8.87111 18.1506H22.72C22.8771 18.1506 23.0044 18.0232 23.0044 17.8661V8.8528C23.0044 8.69571 22.8771 8.56836 22.72 8.56836Z" fill="white"/>
<path d="M18.72 11.6797L18.7378 15.0397L15.7867 16.7464L15.8045 13.3686L18.72 11.6797Z" fill="#0078D4"/>
<path d="M18.72 11.6615L15.8045 13.3682L12.8711 11.6615L15.7867 9.97266L18.72 11.6615Z" fill="#83B9F9"/>
<path d="M15.8044 13.3688L15.7867 16.7466L12.8533 15.0399V11.6621L15.8044 13.3688Z" fill="#5EA0EF"/>
<path opacity="0.2" d="M15.8045 13.3516L15.7867 13.3693V16.7471L18.72 15.0405L15.8045 13.3516Z" fill="#5EA0EF"/>
<path opacity="0.2" d="M15.7689 13.4043H15.7867V16.7821L12.8533 15.0932L15.7689 13.4043Z" fill="#83B9F9"/>
<defs>
<linearGradient id="paint0_linear_853_6739" x1="16" y1="28.8179" x2="16" y2="1.1023" gradientUnits="userSpaceOnUse">
<stop stop-color="#1B93EB"/>
<stop offset="0.21" stop-color="#2095EB"/>
<stop offset="0.44" stop-color="#2E9CED"/>
<stop offset="0.69" stop-color="#45A7EF"/>
<stop offset="0.95" stop-color="#64B6F1"/>
<stop offset="1" stop-color="#6BB9F2"/>
</linearGradient>
</defs>
</svg>
