<svg width="32" height="32" viewBox="0 0 32 32" fill="none" xmlns="http://www.w3.org/2000/svg">
<g clip-path="url(#clip0_853_6731)">
<path d="M2.04444 17.2775L15.8756 26.2553L29.9556 17.2598L31.7333 19.3042L15.8756 29.5264L0.266663 19.322L2.04444 17.2775Z" fill="#50E6FF"/>
<path d="M3.07556 16.1402L15.8756 0.888672L28.9422 16.1598L15.8756 24.4087L3.07556 16.1402Z" fill="white"/>
<path d="M15.8756 0.888672V24.4087L3.07556 16.142L15.8756 0.888672Z" fill="#50E6FF"/>
<path d="M15.8755 0.888672V24.4087L28.9422 16.1598L15.8755 0.888672Z" fill="url(#paint0_linear_853_6731)"/>
<path d="M15.8755 13.0293L28.9422 16.1582L15.8755 24.4071V13.0293Z" fill="#53B1E0"/>
<path d="M15.8756 24.4071L3.07556 16.1404L15.8756 13.0293V24.4071Z" fill="#9CEBFF"/>
<path d="M15.8755 29.5264L31.7333 19.3042L29.9555 17.2598L15.8755 26.2553V29.5264Z" fill="url(#paint1_linear_853_6731)"/>
<path d="M29.0133 20.2299C29.2061 20.0397 29.3594 19.8134 29.4647 19.5639C29.5699 19.3144 29.6249 19.0466 29.6265 18.7758C29.6282 18.505 29.5764 18.2366 29.4743 17.9858C29.3721 17.7351 29.2215 17.5069 29.0311 17.3144L29.0133 17.2966L25.4578 13.741C25.2664 13.5495 25.0392 13.3975 24.789 13.2938C24.5389 13.1901 24.2708 13.1367 24 13.1367C23.7292 13.1367 23.4611 13.1901 23.2109 13.2938C22.9608 13.3975 22.7336 13.5495 22.5422 13.741L18.9867 17.2966C18.6038 17.6888 18.3894 18.2152 18.3894 18.7633C18.3894 19.3114 18.6038 19.8377 18.9867 20.2299L21.9555 23.1988C22.0081 23.2529 22.0494 23.3169 22.0769 23.3871C22.1043 23.4573 22.1175 23.5323 22.1155 23.6077V29.1188C22.1128 29.2123 22.1305 29.3053 22.1673 29.3912C22.2041 29.4772 22.2593 29.5541 22.3289 29.6166L23.68 30.9677C23.7592 31.0549 23.8698 31.107 23.9875 31.1127C24.1052 31.1184 24.2203 31.0771 24.3075 30.9979L24.3378 30.9677L25.6355 29.6699L26.4178 28.8877C26.4666 28.8379 26.494 28.7708 26.494 28.701C26.494 28.6312 26.4666 28.5642 26.4178 28.5144L25.8667 27.9633C25.8386 27.9385 25.8157 27.9085 25.7993 27.8749C25.7829 27.8413 25.7732 27.8048 25.7709 27.7675C25.7686 27.7302 25.7737 27.6928 25.7858 27.6574C25.798 27.6221 25.817 27.5895 25.8418 27.5615L25.8667 27.5366L26.4178 26.9855C26.4674 26.9324 26.495 26.8625 26.495 26.7899C26.495 26.7173 26.4674 26.6474 26.4178 26.5944L25.8667 26.0433C25.8396 26.021 25.8173 25.9935 25.801 25.9625C25.7846 25.9316 25.7746 25.8976 25.7715 25.8627C25.7683 25.8279 25.7721 25.7927 25.7827 25.7593C25.7932 25.7259 25.8103 25.6949 25.8329 25.6681C25.8432 25.656 25.8545 25.6447 25.8667 25.6344L26.4178 25.0655C26.4666 25.0156 26.494 24.9486 26.494 24.8788C26.494 24.809 26.4666 24.742 26.4178 24.6921L25.6355 23.9099V23.6255L29.0133 20.2299ZM24 14.5944C24.232 14.5944 24.4589 14.6632 24.6519 14.7921C24.8448 14.921 24.9952 15.1043 25.084 15.3187C25.1728 15.5331 25.196 15.769 25.1508 15.9966C25.1055 16.2242 24.9937 16.4333 24.8297 16.5974C24.6656 16.7615 24.4565 16.8732 24.2289 16.9185C24.0013 16.9638 23.7654 16.9405 23.551 16.8517C23.3366 16.7629 23.1533 16.6125 23.0244 16.4196C22.8955 16.2266 22.8267 15.9998 22.8267 15.7677C22.8267 15.4565 22.9503 15.1581 23.1703 14.938C23.3904 14.718 23.6888 14.5944 24 14.5944Z" fill="#FFCA00"/>
<path opacity="0.75" d="M23.1111 29.3326C23.1469 29.3696 23.1933 29.3946 23.2439 29.4041C23.2945 29.4136 23.3468 29.4072 23.3936 29.3857C23.4404 29.3643 23.4794 29.3288 23.5052 29.2843C23.5311 29.2398 23.5424 29.1883 23.5378 29.1371V24.5859C23.539 24.5418 23.5301 24.498 23.5116 24.4579C23.4931 24.4178 23.4655 24.3825 23.4311 24.3548C23.4042 24.3346 23.3735 24.3199 23.3408 24.3119C23.308 24.3038 23.274 24.3025 23.2408 24.308C23.2075 24.3135 23.1758 24.3257 23.1474 24.3438C23.119 24.3619 23.0945 24.3857 23.0756 24.4135C23.0389 24.465 23.023 24.5285 23.0311 24.5913V29.0535C23.0158 29.1028 23.0153 29.1554 23.0295 29.205C23.0437 29.2546 23.0721 29.2989 23.1111 29.3326Z" fill="#FF9300"/>
<path opacity="0.75" d="M26.6845 18.4863H21.4756C21.2988 18.4863 21.1556 18.6296 21.1556 18.8063V18.8597C21.1556 19.0364 21.2988 19.1797 21.4756 19.1797H26.6845C26.8612 19.1797 27.0045 19.0364 27.0045 18.8597V18.8063C27.0045 18.6296 26.8612 18.4863 26.6845 18.4863Z" fill="#FF9300"/>
<path opacity="0.75" d="M26.6845 19.6074H21.4756C21.2988 19.6074 21.1556 19.7507 21.1556 19.9274V19.9808C21.1556 20.1575 21.2988 20.3008 21.4756 20.3008H26.6845C26.8612 20.3008 27.0045 20.1575 27.0045 19.9808V19.9274C27.0045 19.7507 26.8612 19.6074 26.6845 19.6074Z" fill="#FF9300"/>
</g>
<defs>
<linearGradient id="paint0_linear_853_6731" x1="23.4382" y1="22.2344" x2="15.3493" y2="6.89223" gradientUnits="userSpaceOnUse">
<stop stop-color="#1988D9"/>
<stop offset="0.9" stop-color="#54AEF0"/>
</linearGradient>
<linearGradient id="paint1_linear_853_6731" x1="19.9502" y1="17.7735" x2="25.5502" y2="27.4269" gradientUnits="userSpaceOnUse">
<stop offset="0.1" stop-color="#54AEF0"/>
<stop offset="0.29" stop-color="#4FABEE"/>
<stop offset="0.51" stop-color="#41A2E9"/>
<stop offset="0.74" stop-color="#2A93E0"/>
<stop offset="0.88" stop-color="#1988D9"/>
</linearGradient>
<clipPath id="clip0_853_6731">
<rect width="32" height="32" fill="white"/>
</clipPath>
</defs>
</svg>
