<svg width="32" height="32" viewBox="0 0 32 32" fill="none" xmlns="http://www.w3.org/2000/svg">
<path d="M28.4444 15.0042C28.4444 23.1287 18.6133 29.6709 16.48 31.0042C16.3577 31.0817 16.2159 31.1228 16.0711 31.1228C15.9263 31.1228 15.7845 31.0817 15.6622 31.0042C13.4578 29.6709 3.55554 23.1109 3.55554 15.0042V5.22645C3.55549 5.02204 3.63546 4.82572 3.77833 4.67953C3.9212 4.53333 4.11562 4.44887 4.31999 4.44423C12.0355 4.24867 10.2755 0.888672 16 0.888672C21.7244 0.888672 19.9644 4.24867 27.6089 4.44423C27.8132 4.44887 28.0077 4.53333 28.1505 4.67953C28.2934 4.82572 28.3734 5.02204 28.3733 5.22645L28.4444 15.0042Z" fill="#1B93EB"/>
<path d="M27.3422 15.0756C27.3422 22.5423 18.3289 28.5334 16.3733 29.7423C16.2611 29.8115 16.1318 29.8482 16 29.8482C15.8681 29.8482 15.7389 29.8115 15.6267 29.7423C13.6711 28.5334 4.65777 22.5423 4.65777 15.0756V6.18674C4.64005 6.0855 4.64394 5.98166 4.66918 5.88203C4.69443 5.78239 4.74046 5.68923 4.80426 5.60864C4.86805 5.52806 4.94817 5.46187 5.03935 5.41444C5.13053 5.36701 5.23072 5.33939 5.33332 5.33341C12.3378 5.13786 10.6667 2.08008 16 2.08008C21.3333 2.08008 19.6444 5.20897 26.6667 5.33341C26.8507 5.34235 27.0245 5.42067 27.1532 5.5526C27.2818 5.68454 27.3557 5.8603 27.36 6.04452L27.3422 15.0756Z" fill="url(#paint0_linear_853_6734)"/>
<path d="M16 11.6098C17.2283 11.6144 18.4141 12.0604 19.341 12.8665C20.2679 13.6726 20.874 14.7851 21.0489 16.0009C21.0867 16.2033 21.1949 16.3857 21.3543 16.5159C21.5138 16.646 21.7142 16.7155 21.92 16.712H24.4089C24.531 16.715 24.6524 16.6921 24.7651 16.6451C24.8778 16.598 24.9794 16.5278 25.0632 16.439C25.147 16.3501 25.2112 16.2446 25.2517 16.1293C25.2921 16.0141 25.3078 15.8916 25.2978 15.7698C25.0517 13.4756 23.9661 11.3533 22.2497 9.81122C20.5333 8.26911 18.3074 7.41602 16 7.41602C13.6926 7.41602 11.4667 8.26911 9.75029 9.81122C8.03391 11.3533 6.94829 13.4756 6.70221 15.7698C6.6922 15.8916 6.70791 16.0141 6.74832 16.1293C6.78873 16.2446 6.85293 16.3501 6.93675 16.439C7.02058 16.5278 7.12215 16.598 7.23488 16.6451C7.34761 16.6921 7.46898 16.715 7.5911 16.712H10.08C10.2858 16.7155 10.4862 16.646 10.6457 16.5159C10.8051 16.3857 10.9133 16.2033 10.9511 16.0009C11.126 14.7851 11.7321 13.6726 12.659 12.8665C13.5858 12.0604 14.7716 11.6144 16 11.6098Z" fill="#C3F1FF"/>
<path d="M16 20.1075C17.8753 20.1075 19.3955 18.5873 19.3955 16.712C19.3955 14.8366 17.8753 13.3164 16 13.3164C14.1247 13.3164 12.6044 14.8366 12.6044 16.712C12.6044 18.5873 14.1247 20.1075 16 20.1075Z" fill="white"/>
<defs>
<linearGradient id="paint0_linear_853_6734" x1="16" y1="28.8179" x2="16" y2="1.1023" gradientUnits="userSpaceOnUse">
<stop stop-color="#1B93EB"/>
<stop offset="0.21" stop-color="#2095EB"/>
<stop offset="0.44" stop-color="#2E9CED"/>
<stop offset="0.69" stop-color="#45A7EF"/>
<stop offset="0.95" stop-color="#64B6F1"/>
<stop offset="1" stop-color="#6BB9F2"/>
</linearGradient>
</defs>
</svg>
