<svg width="32" height="32" viewBox="0 0 32 32" fill="none" xmlns="http://www.w3.org/2000/svg">
<g clip-path="url(#clip0_853_6740)">
<path d="M16.0249 14.4083L10.9885 9.63672H14.9991L21.7849 15.9994L15.1005 22.3621H10.9885L16.0267 17.5994H1.79025C1.27469 17.5994 0.888916 17.0056 0.888916 16.4883V15.1727C0.888916 14.6554 1.27469 14.4065 1.79025 14.4065L16.0249 14.4083Z" fill="#57A300"/>
<path d="M3.70315 8.9315C3.93723 9.1612 4.2144 9.34237 4.51872 9.46461C4.82305 9.58684 5.14853 9.64773 5.47646 9.64376C5.8044 9.6398 6.12831 9.57106 6.42959 9.4415C6.73088 9.31195 7.00358 9.12412 7.23204 8.88883L7.28893 8.82305C9.20178 6.95096 11.7798 5.9152 14.4562 5.94354C17.1326 5.97187 19.6881 7.06198 21.5609 8.97416L21.6871 9.10216C22.6754 10.1198 23.4368 11.3353 23.9212 12.6686C24.4057 14.0018 24.6022 15.4226 24.4978 16.8373C24.9736 17.0556 25.3708 17.4149 25.6356 17.8666V17.8773V17.8862L28.1903 22.3306C29.4862 19.5208 29.889 16.3811 29.3441 13.3352C28.7992 10.2893 27.3329 7.48391 25.1431 5.29772C22.2805 2.47368 18.4213 0.88989 14.4 0.888829C12.4063 0.879737 10.4303 1.26436 8.58556 2.02064C6.74078 2.77691 5.06346 3.88996 3.64982 5.29594L3.59826 5.34927C3.36913 5.58393 3.18864 5.86156 3.06716 6.16621C2.94568 6.47085 2.88561 6.7965 2.8904 7.12444C2.89519 7.45237 2.96475 7.77613 3.09508 8.07709C3.2254 8.37806 3.41393 8.6503 3.64982 8.87816L3.70315 8.9315ZM14.7414 30.0142C14.7533 29.5709 14.8788 29.1382 15.1058 28.7573L16.6845 25.9324C14.9997 26.3143 13.245 26.2561 11.5893 25.7636C9.93349 25.271 8.43234 24.3606 7.23026 23.1199L7.17693 23.0666C6.94215 22.8376 6.66443 22.6572 6.35972 22.5359C6.05501 22.4146 5.72933 22.3547 5.40139 22.3596C5.07346 22.3646 4.74973 22.4343 4.44883 22.5648C4.14793 22.6953 3.87578 22.8839 3.64804 23.1199L3.5947 23.1715C3.13381 23.6469 2.88053 24.2858 2.89053 24.9479C2.90053 25.6099 3.173 26.2409 3.64804 26.7022C6.51313 29.528 10.3758 31.1119 14.4 31.111C14.592 31.111 14.784 31.111 14.976 31.1004C14.8144 30.7615 14.7341 30.3896 14.7414 30.0142Z" fill="#0072C6"/>
<path d="M30.9138 29.3862L27.7333 24.0333L24.5547 18.5222C24.4633 18.3341 24.3208 18.1754 24.1435 18.0644C23.9662 17.9534 23.7612 17.8945 23.552 17.8945C23.3428 17.8945 23.1378 17.9534 22.9605 18.0644C22.7832 18.1754 22.6407 18.3341 22.5493 18.5222L19.3778 23.6991L16.2009 29.388C16.0773 29.5667 16.0058 29.7762 15.9943 29.9931C15.9828 30.2101 16.0318 30.4259 16.1357 30.6167C16.2397 30.8075 16.3945 30.9656 16.5831 31.0736C16.7716 31.1815 16.9864 31.235 17.2036 31.228H29.9147C30.1318 31.235 30.3466 31.1815 30.5351 31.0736C30.7237 30.9656 30.8785 30.8075 30.9825 30.6167C31.0864 30.4259 31.1354 30.2101 31.1239 29.9931C31.1124 29.7762 31.0409 29.5667 30.9173 29.388L30.9138 29.3862ZM23.7227 21.8662H24.56L24.224 26.7178H22.8871L22.72 21.8662H23.7227ZM23.5556 29.2244C23.3568 29.2244 23.1625 29.1655 22.9973 29.055C22.8321 28.9446 22.7034 28.7876 22.6274 28.604C22.5514 28.4203 22.5316 28.2183 22.5705 28.0234C22.6094 27.8285 22.7053 27.6495 22.8459 27.5091C22.9866 27.3687 23.1657 27.2732 23.3607 27.2346C23.5556 27.1961 23.7577 27.2162 23.9412 27.2925C24.1247 27.3688 24.2814 27.4978 24.3916 27.6633C24.5017 27.8287 24.5603 28.023 24.56 28.2218C24.5602 28.3537 24.5344 28.4843 24.484 28.6062C24.4336 28.728 24.3596 28.8388 24.2662 28.9319C24.1729 29.0251 24.062 29.0989 23.9401 29.1491C23.8181 29.1993 23.6874 29.2249 23.5556 29.2244Z" fill="#FF8C00"/>
</g>
<defs>
<clipPath id="clip0_853_6740">
<rect width="32" height="32" fill="white"/>
</clipPath>
</defs>
</svg>
