<svg width="32" height="32" viewBox="0 0 32 32" fill="none" xmlns="http://www.w3.org/2000/svg">
<g clip-path="url(#clip0_853_6736)">
<path d="M26.7733 15.4141H24.9955V9.93857C25.011 7.36684 24.0664 4.88186 22.3467 2.96968C21.5423 2.03259 20.5437 1.28169 19.4201 0.769028C18.2966 0.256371 17.075 -0.005769 15.84 0.000786708C14.5931 -0.0161627 13.3577 0.240955 12.221 0.753967C11.0844 1.26698 10.0744 2.02337 9.26221 2.96968C7.53037 4.87447 6.58397 7.36434 6.61332 9.93857V15.4141H5.17332C4.84942 15.4187 4.54008 15.5494 4.31102 15.7785C4.08196 16.0075 3.95125 16.3169 3.94666 16.6408V30.863C3.95125 31.1869 4.08196 31.4963 4.31102 31.7253C4.54008 31.9544 4.84942 32.0851 5.17332 32.0897H26.7733C27.0989 32.0852 27.4102 31.9551 27.6421 31.7265C27.874 31.4979 28.0086 31.1885 28.0178 30.863V16.6408C28.0086 16.3153 27.874 16.0059 27.6421 15.7773C27.4102 15.5487 27.0989 15.4186 26.7733 15.4141ZM20.7822 15.4141H10.8978V9.84968C10.9137 8.42632 11.4661 7.06138 12.4444 6.02745C12.861 5.5499 13.3745 5.16655 13.9508 4.90293C14.5271 4.63931 15.1529 4.50146 15.7867 4.49856C16.4228 4.50234 17.051 4.6405 17.63 4.90398C18.2091 5.16745 18.7259 5.55031 19.1467 6.02745C19.3574 6.26586 19.5477 6.52157 19.7155 6.7919C20.3823 7.6689 20.7612 8.73088 20.8 9.8319L20.7822 15.4141Z" fill="url(#paint0_linear_853_6736)"/>
<path d="M26.8267 15.4141H5.1911C4.90203 15.415 4.62348 15.5226 4.40887 15.7163L27.6089 31.7163C27.7471 31.605 27.8588 31.4643 27.9357 31.3044C28.0126 31.1444 28.0528 30.9693 28.0533 30.7918V16.5696C28.0271 16.2597 27.8875 15.9704 27.6611 15.7571C27.4347 15.5439 27.1376 15.4217 26.8267 15.4141Z" fill="#50E6FF"/>
<path opacity="0.2" d="M5.22665 15.4141H26.8444C27.1384 15.4171 27.4218 15.5242 27.6444 15.7163L4.42665 31.7163C4.29113 31.6026 4.18139 31.4614 4.10475 31.302C4.02812 31.1426 3.98634 30.9687 3.98221 30.7918V16.5696C4.01255 16.2582 4.15591 15.9687 4.3852 15.7557C4.61449 15.5428 4.91383 15.4213 5.22665 15.4141Z" fill="white"/>
<path d="M20.3022 29.1564L9.24445 23.6453L20.3022 18.1875L20.8 19.2186L11.8222 23.6453L20.8 28.1431L20.3022 29.1564Z" fill="#198AB3"/>
<path d="M10.56 25.9015C11.7873 25.9015 12.7822 24.9066 12.7822 23.6793C12.7822 22.452 11.7873 21.457 10.56 21.457C9.33269 21.457 8.33777 22.452 8.33777 23.6793C8.33777 24.9066 9.33269 25.9015 10.56 25.9015Z" fill="url(#paint1_linear_853_6736)"/>
<path d="M20.4622 21.1378C21.6895 21.1378 22.6844 20.1429 22.6844 18.9156C22.6844 17.6883 21.6895 16.6934 20.4622 16.6934C19.2349 16.6934 18.24 17.6883 18.24 18.9156C18.24 20.1429 19.2349 21.1378 20.4622 21.1378Z" fill="url(#paint2_linear_853_6736)"/>
<path d="M20.4622 30.8624C21.6895 30.8624 22.6844 29.8675 22.6844 28.6402C22.6844 27.4129 21.6895 26.418 20.4622 26.418C19.2349 26.418 18.24 27.4129 18.24 28.6402C18.24 29.8675 19.2349 30.8624 20.4622 30.8624Z" fill="url(#paint3_linear_853_6736)"/>
</g>
<defs>
<linearGradient id="paint0_linear_853_6736" x1="15.2711" y1="-13.8481" x2="16.2133" y2="35.6452" gradientUnits="userSpaceOnUse">
<stop offset="0.22" stop-color="#32D4F5"/>
<stop offset="1" stop-color="#198AB3"/>
</linearGradient>
<linearGradient id="paint1_linear_853_6736" x1="10.9511" y1="25.8659" x2="10.1867" y2="21.4926" gradientUnits="userSpaceOnUse">
<stop stop-color="#CCCCCC"/>
<stop offset="1" stop-color="#FCFCFC"/>
</linearGradient>
<linearGradient id="paint2_linear_853_6736" x1="20.8533" y1="21.1022" x2="20.0889" y2="16.7289" gradientUnits="userSpaceOnUse">
<stop stop-color="#CCCCCC"/>
<stop offset="1" stop-color="#FCFCFC"/>
</linearGradient>
<linearGradient id="paint3_linear_853_6736" x1="20.8533" y1="30.8269" x2="20.0889" y2="26.4535" gradientUnits="userSpaceOnUse">
<stop stop-color="#CCCCCC"/>
<stop offset="1" stop-color="#FCFCFC"/>
</linearGradient>
<clipPath id="clip0_853_6736">
<rect width="32" height="32" fill="white"/>
</clipPath>
</defs>
</svg>
