<svg width="32" height="32" viewBox="0 0 32 32" fill="none" xmlns="http://www.w3.org/2000/svg">
<g clip-path="url(#clip0_853_6730)">
<path d="M18.3325 7.09496C18.3398 7.91722 18.185 8.73286 17.877 9.4953C17.5691 10.2577 17.1139 10.9521 16.5376 11.5386C15.9613 12.1251 15.2751 12.5924 14.5182 12.9138C13.7613 13.2351 12.9485 13.4042 12.1263 13.4114C11.304 13.4187 10.4884 13.2639 9.72592 12.9559C8.96348 12.648 8.26916 12.1929 7.68262 11.6165C7.09607 11.0402 6.62879 10.354 6.30746 9.59713C5.98612 8.84023 5.81702 8.02744 5.80981 7.20518C5.80255 6.38292 5.95731 5.56728 6.26528 4.80484C6.57324 4.0424 7.02837 3.34808 7.60468 2.76154C8.18098 2.175 8.86718 1.70771 9.62409 1.38638C10.381 1.06504 11.1938 0.895943 12.016 0.888737H12.0711C12.8897 0.884993 13.7009 1.04251 14.4585 1.35228C15.2162 1.66206 15.9054 2.11804 16.4868 2.69418C17.0682 3.27031 17.5305 3.95533 17.8472 4.71011C18.1638 5.4649 18.3288 6.27644 18.3325 7.09496Z" fill="#59B4D9"/>
<path d="M30.9138 29.0713L27.7333 23.7184L24.5564 18.2073C24.4648 18.0192 24.322 17.8607 24.1446 17.7498C23.9672 17.6389 23.7621 17.5801 23.5529 17.5801C23.3436 17.5801 23.1386 17.6389 22.9612 17.7498C22.7837 17.8607 22.641 18.0192 22.5493 18.2073L19.3778 23.3842L16.2009 29.0731C16.0773 29.2518 16.0058 29.4613 15.9943 29.6782C15.9828 29.8952 16.0318 30.111 16.1357 30.3018C16.2397 30.4926 16.3945 30.6507 16.5831 30.7586C16.7716 30.8666 16.9864 30.92 17.2036 30.9131H29.9147C30.132 30.9207 30.3473 30.8677 30.5362 30.7599C30.7251 30.6521 30.8803 30.4938 30.9844 30.3028C31.0885 30.1118 31.1373 29.8956 31.1255 29.6784C31.1137 29.4612 31.0416 29.2516 30.9173 29.0731L30.9138 29.0713ZM23.7227 21.5442H24.56L24.224 26.394H22.8871L22.72 21.5442H23.7227ZM23.5556 28.9024C23.3568 28.9024 23.1625 28.8435 22.9973 28.733C22.8321 28.6226 22.7034 28.4656 22.6274 28.282C22.5514 28.0983 22.5316 27.8963 22.5705 27.7014C22.6094 27.5065 22.7053 27.3275 22.8459 27.1871C22.9866 27.0467 23.1657 26.9512 23.3607 26.9126C23.5556 26.8741 23.7577 26.8942 23.9412 26.9705C24.1247 27.0468 24.2814 27.1758 24.3916 27.3412C24.5017 27.5066 24.5603 27.701 24.56 27.8998C24.56 28.0316 24.534 28.1621 24.4835 28.2839C24.433 28.4056 24.359 28.5163 24.2657 28.6094C24.1724 28.7025 24.0617 28.7763 23.9398 28.8266C23.8179 28.8769 23.6874 28.9027 23.5556 28.9024Z" fill="#FF8C00"/>
<path d="M15.0542 30.9534C14.8389 30.5715 14.7308 30.1384 14.7414 29.7001C14.7564 29.2572 14.8836 28.8253 15.1111 28.445L18.2809 22.7739L18.2934 22.7508L18.3058 22.7294L21.4756 17.5472C21.6619 17.2248 21.9185 16.9485 22.2263 16.7389C22.5341 16.5293 22.8851 16.3918 23.2534 16.3365V15.4316H16.6489L12.0711 21.7908L7.49336 15.4316H0.888916V31.1116H15.1574C15.1218 31.0601 15.0863 31.0085 15.0542 30.9534Z" fill="#59B4D9"/>
</g>
<defs>
<clipPath id="clip0_853_6730">
<rect width="32" height="32" fill="white"/>
</clipPath>
</defs>
</svg>
