<svg width="32" height="32" viewBox="0 0 32 32" fill="none" xmlns="http://www.w3.org/2000/svg">
<g clip-path="url(#clip0_853_6726)">
<path d="M21.5111 2.98047H14.192V5.47825C14.192 5.63303 14.1615 5.7863 14.1023 5.9293C14.0431 6.07231 13.9563 6.20224 13.8468 6.31169C13.7374 6.42114 13.6074 6.50796 13.4644 6.56719C13.3214 6.62643 13.1681 6.65691 13.0134 6.65691H11.2356C10.923 6.65691 10.6232 6.53273 10.4021 6.31169C10.1811 6.09065 10.0569 5.79085 10.0569 5.47825V2.98936H2.70402C2.48242 2.98936 2.26989 3.07739 2.1132 3.23409C1.9565 3.39078 1.86847 3.60331 1.86847 3.82491V27.0889C1.86847 27.1986 1.89008 27.3073 1.93207 27.4087C1.97406 27.51 2.03561 27.6022 2.1132 27.6797C2.19079 27.7573 2.2829 27.8189 2.38427 27.8609C2.48565 27.9029 2.5943 27.9245 2.70402 27.9245H8.72358C8.72358 27.9067 8.72358 27.8942 8.72358 27.8765V25.8107C8.72405 25.5859 8.81354 25.3705 8.97247 25.2116C9.1314 25.0527 9.34682 24.9632 9.57158 24.9627H10.7058V23.3325C10.7063 23.1072 10.796 22.8914 10.9552 22.7321C11.1145 22.5728 11.3303 22.4832 11.5556 22.4827H13.6125C13.8375 22.4832 14.0532 22.5729 14.2122 22.7322C14.3712 22.8915 14.4605 23.1074 14.4605 23.3325V24.9627H19.4951C19.98 23.5393 21.0003 22.3609 22.3396 21.6774V3.81602C22.3396 3.59565 22.2525 3.38419 22.0974 3.2277C21.9422 3.0712 21.7315 2.98234 21.5111 2.98047Z" fill="url(#paint0_linear_853_6726)"/>
<path opacity="0.8" d="M16.8142 18.676C16.7792 17.6754 16.4478 16.7078 15.8619 15.8959C15.276 15.084 14.4621 14.4645 13.5235 14.116C13.0985 14.3838 12.6052 14.5232 12.1028 14.5176C11.6005 14.5119 11.1104 14.3613 10.6915 14.084C9.71362 14.3831 8.86103 14.9952 8.26489 15.8262C7.66875 16.6571 7.36206 17.6609 7.39199 18.6831C7.36963 18.9056 7.43643 19.1279 7.57774 19.3012C7.71905 19.4745 7.92333 19.5847 8.14577 19.6075C8.17359 19.6094 8.2015 19.6094 8.22932 19.6075H15.9787C16.2009 19.608 16.4142 19.5203 16.5719 19.3637C16.7295 19.207 16.8186 18.9942 16.8195 18.772C16.8194 18.7399 16.8176 18.7079 16.8142 18.676Z" fill="white"/>
<path opacity="0.9" d="M12.1565 14.517C11.6518 14.5162 11.158 14.3699 10.7343 14.0957L12.1565 17.7988L13.5645 14.1206C13.1419 14.3827 12.6538 14.5201 12.1565 14.517Z" fill="white"/>
<path opacity="0.8" d="M12.1369 14.5192C13.5979 14.5192 14.7822 13.3348 14.7822 11.8738C14.7822 10.4129 13.5979 9.22852 12.1369 9.22852C10.6759 9.22852 9.49158 10.4129 9.49158 11.8738C9.49158 13.3348 10.6759 14.5192 12.1369 14.5192Z" fill="white"/>
<path d="M13.0151 0H11.2285C10.9506 0 10.7253 0.22525 10.7253 0.503111V5.47733C10.7253 5.75519 10.9506 5.98044 11.2285 5.98044H13.0151C13.293 5.98044 13.5182 5.75519 13.5182 5.47733V0.503111C13.5182 0.22525 13.293 0 13.0151 0Z" fill="#773ADC"/>
<path d="M19.9751 28.0898C20.2044 29.0131 20.6846 29.8549 21.3626 30.5222C22.0407 31.1894 22.8901 31.6561 23.817 31.8704C24.7438 32.0848 25.7119 32.0386 26.6141 31.7368C27.5162 31.4351 28.3173 30.8896 28.9287 30.1607C29.5401 29.4319 29.9379 28.5481 30.078 27.6072C30.2182 26.6663 30.0953 25.7049 29.723 24.8295C29.3506 23.9541 28.7433 23.1988 27.9682 22.6472C27.1932 22.0955 26.2806 21.7691 25.3316 21.704C25.2107 21.704 25.0933 21.6934 24.976 21.6934C23.8256 21.6939 22.7084 22.0791 21.8021 22.7879C20.8959 23.4966 20.2528 24.4881 19.9751 25.6045H14.0249C13.9702 25.6045 13.9178 25.5827 13.8791 25.5441C13.8404 25.5054 13.8187 25.4529 13.8187 25.3982V23.3325C13.8189 23.3052 13.8137 23.2782 13.8035 23.253C13.7932 23.2278 13.7781 23.2048 13.7589 23.1855C13.7397 23.1662 13.7169 23.1508 13.6918 23.1403C13.6666 23.1299 13.6397 23.1245 13.6125 23.1245H11.5556C11.5283 23.1245 11.5014 23.1299 11.4762 23.1403C11.4511 23.1508 11.4283 23.1662 11.4091 23.1855C11.3899 23.2048 11.3748 23.2278 11.3645 23.253C11.3543 23.2782 11.3491 23.3052 11.3493 23.3325V25.3982C11.3493 25.4255 11.344 25.4524 11.3335 25.4776C11.323 25.5027 11.3077 25.5255 11.2883 25.5447C11.269 25.5639 11.246 25.579 11.2208 25.5893C11.1956 25.5995 11.1686 25.6047 11.1413 25.6045H9.56268C9.50798 25.6045 9.45553 25.6262 9.41685 25.6649C9.37818 25.7035 9.35645 25.756 9.35645 25.8107V27.8765C9.35622 27.9037 9.36138 27.9307 9.37164 27.9559C9.3819 27.9812 9.39705 28.0041 9.41622 28.0234C9.43539 28.0428 9.45821 28.0581 9.48334 28.0686C9.50848 28.0791 9.53544 28.0845 9.56268 28.0845L19.9751 28.0898ZM24.976 24.1485C25.0948 24.1485 25.2136 24.1556 25.3316 24.1698C26.012 24.2594 26.6329 24.6045 27.0682 25.1352C27.5035 25.6658 27.7205 26.3422 27.6753 27.0271C27.63 27.7119 27.3259 28.3539 26.8246 28.8227C26.3232 29.2914 25.6623 29.5519 24.976 29.5511C24.8571 29.5514 24.7383 29.5437 24.6205 29.528C23.9375 29.4418 23.3133 29.098 22.8754 28.5669C22.4374 28.0359 22.2188 27.3576 22.2642 26.6708C22.3096 25.9839 22.6156 25.3403 23.1196 24.8715C23.6236 24.4027 24.2877 24.1441 24.976 24.1485Z" fill="url(#paint1_linear_853_6726)"/>
</g>
<defs>
<linearGradient id="paint0_linear_853_6726" x1="12.1049" y1="28.4507" x2="12.1049" y2="0.736914" gradientUnits="userSpaceOnUse">
<stop stop-color="#773ADC"/>
<stop offset="0.4" stop-color="#8D58E7"/>
<stop offset="1" stop-color="#A67AF4"/>
</linearGradient>
<linearGradient id="paint1_linear_853_6726" x1="19.744" y1="32.0009" x2="19.744" y2="21.688" gradientUnits="userSpaceOnUse">
<stop stop-color="#FEA11B"/>
<stop offset="0.7" stop-color="#FFD70F"/>
</linearGradient>
<clipPath id="clip0_853_6726">
<rect width="32" height="32" fill="white"/>
</clipPath>
</defs>
</svg>
