<svg width="32" height="32" viewBox="0 0 32 32" fill="none" xmlns="http://www.w3.org/2000/svg">
<path d="M1.79556 18.1156L15.8756 27.2534L30.2044 18.0801L32 20.1779L15.8756 30.5601L0 20.1779L1.79556 18.1156Z" fill="#FAA21D"/>
<path d="M2.86224 16.9417L15.8756 1.43945L29.1556 16.9595L15.8756 25.3506L2.86224 16.9417Z" fill="white"/>
<path d="M15.8756 1.43945V25.3506L2.86224 16.9417L15.8756 1.43945Z" fill="#F78D1E"/>
<path d="M15.8755 1.43945V25.3506L29.1555 16.9595L15.8755 1.43945Z" fill="url(#paint0_linear_853_6738)"/>
<path d="M15.8755 13.7949L29.1555 16.9594L15.8755 25.3505V13.7949Z" fill="#F78D1E"/>
<path d="M15.8756 25.3505L2.86224 16.9416L15.8756 13.7949V25.3505Z" fill="#FAA21D"/>
<path d="M15.8755 30.5601L32 20.1779L30.2044 18.0801L15.8755 27.2534V30.5601Z" fill="url(#paint1_linear_853_6738)"/>
<defs>
<linearGradient id="paint0_linear_853_6738" x1="14.5955" y1="9.17279" x2="21.9378" y2="20.3017" gradientUnits="userSpaceOnUse">
<stop stop-color="#F9A11F"/>
<stop offset="0.02" stop-color="#F89F1F"/>
<stop offset="0.39" stop-color="#F28721"/>
<stop offset="0.72" stop-color="#ED7823"/>
<stop offset="1" stop-color="#EC7323"/>
</linearGradient>
<linearGradient id="paint1_linear_853_6738" x1="19.7155" y1="19.609" x2="28.9244" y2="32.1779" gradientUnits="userSpaceOnUse">
<stop stop-color="#F9A11F"/>
<stop offset="0.02" stop-color="#F89F1F"/>
<stop offset="0.39" stop-color="#F28721"/>
<stop offset="0.72" stop-color="#ED7823"/>
<stop offset="1" stop-color="#EC7323"/>
</linearGradient>
</defs>
</svg>
