<svg width="32" height="32" viewBox="0 0 32 32" fill="none" xmlns="http://www.w3.org/2000/svg">
<path d="M28.5867 15.0042C28.5867 23.1287 18.5956 29.6709 16.4089 31.0042C16.2866 31.0817 16.1448 31.1228 16 31.1228C15.8552 31.1228 15.7134 31.0817 15.5911 31.0042C13.4044 29.6887 3.41333 23.1464 3.41333 15.0042V5.22645C3.41328 5.02204 3.49325 4.82572 3.63612 4.67953C3.77899 4.53333 3.97341 4.44887 4.17777 4.44423C11.9644 4.24867 10.1689 0.888672 16 0.888672C21.8311 0.888672 20.0356 4.24867 27.8222 4.44423C28.0266 4.44887 28.221 4.53333 28.3639 4.67953C28.5067 4.82572 28.5867 5.02204 28.5867 5.22645V15.0042Z" fill="#0078D4"/>
<path d="M27.5555 15.0748C27.5555 22.5415 18.3822 28.5326 16.3733 29.7415C16.2611 29.8107 16.1318 29.8474 16 29.8474C15.8681 29.8474 15.7389 29.8107 15.6266 29.7415C13.6178 28.5326 4.44442 22.5415 4.44442 15.0748V6.18595C4.42638 6.08184 4.43118 5.97505 4.45851 5.87299C4.48583 5.77092 4.53502 5.67601 4.60266 5.59484C4.6703 5.51367 4.75478 5.44818 4.85025 5.4029C4.94571 5.35762 5.04988 5.33364 5.15553 5.33261C12.3022 5.20817 10.6666 2.15039 16 2.15039C21.3333 2.15039 19.6978 5.20817 26.8444 5.33261C27.0316 5.33713 27.2099 5.41349 27.3423 5.54589C27.4747 5.67828 27.551 5.85655 27.5555 6.04372V15.0748Z" fill="url(#paint0_linear_853_6741)"/>
<path d="M21.0667 13.6183H20.3556V11.0939C20.3679 9.90153 19.9225 8.74986 19.1111 7.87609C18.7166 7.44953 18.2382 7.10917 17.7059 6.87639C17.1735 6.6436 16.5988 6.52344 16.0178 6.52344C15.4368 6.52344 14.8621 6.6436 14.3297 6.87639C13.7974 7.10917 13.3189 7.44953 12.9245 7.87609C12.1115 8.74887 11.6658 9.9012 11.68 11.0939V13.6183H10.9689C10.8868 13.6104 10.8039 13.6204 10.726 13.6478C10.6481 13.6751 10.5771 13.719 10.5179 13.7765C10.4587 13.834 10.4127 13.9037 10.3832 13.9808C10.3536 14.0578 10.3411 14.1404 10.3467 14.2228V20.765C10.3466 20.8412 10.3619 20.9167 10.3916 20.9869C10.4213 21.0571 10.4648 21.1206 10.5195 21.1737C10.5743 21.2267 10.6391 21.2683 10.7102 21.2958C10.7813 21.3233 10.8572 21.3363 10.9333 21.3339H21.0667C21.1429 21.3363 21.2188 21.3233 21.2898 21.2958C21.3609 21.2683 21.4258 21.2267 21.4805 21.1737C21.5352 21.1206 21.5787 21.0571 21.6084 20.9869C21.6381 20.9167 21.6534 20.8412 21.6533 20.765V14.2228C21.6583 14.1436 21.6467 14.0643 21.6193 13.9899C21.5918 13.9154 21.5491 13.8476 21.4938 13.7907C21.4386 13.7338 21.372 13.689 21.2985 13.6593C21.2249 13.6297 21.146 13.6157 21.0667 13.6183ZM18.3111 13.6183H13.6889V11.0583C13.6899 10.3932 13.9516 9.75496 14.4178 9.28054C14.6163 9.05691 14.8599 8.87789 15.1327 8.7553C15.4054 8.6327 15.701 8.56932 16 8.56932C16.299 8.56932 16.5946 8.6327 16.8674 8.7553C17.1401 8.87789 17.3837 9.05691 17.5822 9.28054C17.6866 9.39106 17.7818 9.50998 17.8667 9.6361C18.1531 10.0487 18.3081 10.5383 18.3111 11.0405V13.6183Z" fill="#FFBD02"/>
<path d="M10.9333 13.6175H21.0667C21.2042 13.6182 21.3368 13.6687 21.44 13.7597L10.56 21.1553C10.4965 21.1031 10.4447 21.0381 10.408 20.9646C10.3712 20.8911 10.3503 20.8107 10.3467 20.7286V14.2219C10.3417 14.1428 10.3533 14.0634 10.3807 13.989C10.4082 13.9146 10.4509 13.8468 10.5062 13.7899C10.5614 13.7329 10.628 13.6882 10.7015 13.6585C10.7751 13.6288 10.854 13.6149 10.9333 13.6175Z" fill="#FFE452"/>
<path opacity="0.5" d="M21.0667 13.6175H10.9333C10.7958 13.6182 10.6632 13.6687 10.56 13.7597L21.44 21.1553C21.5062 21.1056 21.56 21.0412 21.597 20.9671C21.6341 20.8931 21.6533 20.8114 21.6533 20.7286V14.2219C21.6583 14.1428 21.6467 14.0634 21.6193 13.989C21.5918 13.9146 21.549 13.8468 21.4938 13.7899C21.4386 13.7329 21.372 13.6882 21.2985 13.6585C21.2249 13.6288 21.1459 13.6149 21.0667 13.6175Z" fill="#FFD400"/>
<defs>
<linearGradient id="paint0_linear_853_6741" x1="16" y1="29.8482" x2="16" y2="2.15039" gradientUnits="userSpaceOnUse">
<stop stop-color="#0078D4"/>
<stop offset="0.06" stop-color="#0A7CD7"/>
<stop offset="0.34" stop-color="#2E8CE1"/>
<stop offset="0.59" stop-color="#4897E9"/>
<stop offset="0.82" stop-color="#589EED"/>
<stop offset="1" stop-color="#5EA0EF"/>
</linearGradient>
</defs>
</svg>
