<svg width="32" height="32" viewBox="0 0 32 32" fill="none" xmlns="http://www.w3.org/2000/svg">
<path d="M18.9262 21.6528C23.9994 21.6528 28.112 17.5402 28.112 12.467C28.112 7.39386 23.9994 3.28125 18.9262 3.28125C13.853 3.28125 9.74042 7.39386 9.74042 12.467C9.74042 17.5402 13.853 21.6528 18.9262 21.6528Z" fill="white"/>
<path d="M11.3752 18.2535L1.88681 27.7419C1.17796 28.4508 1.17796 29.6 1.88681 30.3089L2.06532 30.4874C2.77416 31.1962 3.92342 31.1962 4.63227 30.4874L14.1207 20.9989C14.8295 20.2901 14.8295 19.1408 14.1207 18.432L13.9422 18.2535C13.2333 17.5446 12.0841 17.5446 11.3752 18.2535Z" fill="#767676"/>
<path d="M18.9494 24.3725C25.4089 24.3725 30.6454 19.136 30.6454 12.6765C30.6454 6.21695 25.4089 0.980469 18.9494 0.980469C12.4898 0.980469 7.25336 6.21695 7.25336 12.6765C7.25336 19.136 12.4898 24.3725 18.9494 24.3725Z" fill="#A3A3A3"/>
<path d="M18.9262 21.6528C23.9994 21.6528 28.112 17.5402 28.112 12.467C28.112 7.39386 23.9994 3.28125 18.9262 3.28125C13.853 3.28125 9.74042 7.39386 9.74042 12.467C9.74042 17.5402 13.853 21.6528 18.9262 21.6528Z" fill="url(#paint0_linear_853_6728)"/>
<path d="M25.8667 10.6191C25.9951 10.9637 26.0543 11.3302 26.0411 11.6977C26.0279 12.0652 25.9424 12.4265 25.7895 12.761C25.6366 13.0954 25.4194 13.3965 25.1502 13.647C24.8809 13.8975 24.565 14.0925 24.2204 14.2209C23.8758 14.3493 23.5093 14.4086 23.1418 14.3954C22.7743 14.3821 22.4131 14.2966 22.0786 14.1438C21.4031 13.835 20.878 13.2706 20.6187 12.5747L25.8667 10.6191Z" fill="#F2F2F2"/>
<path d="M17.2444 12.5747C16.9851 13.2706 16.46 13.835 15.7845 14.1438C15.109 14.4525 14.3386 14.4802 13.6427 14.2209C12.9467 13.9616 12.3823 13.4364 12.0736 12.761C11.7649 12.0855 11.7371 11.3151 11.9964 10.6191L17.2444 12.5747Z" fill="#F2F2F2"/>
<defs>
<linearGradient id="paint0_linear_853_6728" x1="18.9262" y1="21.6528" x2="18.9262" y2="3.28125" gradientUnits="userSpaceOnUse">
<stop stop-color="#005BA1"/>
<stop offset="0.192" stop-color="#1E71B5"/>
<stop offset="0.567" stop-color="#5598DA"/>
<stop offset="0.848" stop-color="#76B0F0"/>
<stop offset="1" stop-color="#83B9F9"/>
</linearGradient>
</defs>
</svg>
