<svg width="32" height="32" viewBox="0 0 32 32" fill="none" xmlns="http://www.w3.org/2000/svg">
<path d="M26.8889 14.4942C26.8889 22.8498 16.8018 29.5609 14.6062 30.9227C14.4809 31.001 14.3362 31.0426 14.1884 31.0426C14.0407 31.0426 13.8959 31.001 13.7706 30.9227C11.5769 29.5609 1.48798 22.8409 1.48798 14.4942V4.44444C1.48885 4.2364 1.57092 4.03692 1.71669 3.88849C1.86246 3.74006 2.06043 3.65441 2.26842 3.64978C10.1155 3.44356 8.30931 0 14.1884 0C20.0675 0 18.2631 3.44356 26.1102 3.65689C26.3179 3.66198 26.5154 3.74783 26.6608 3.89621C26.8062 4.04459 26.888 4.24381 26.8889 4.45156V14.4942Z" fill="#0078D4"/>
<path d="M25.8364 14.5778C25.8364 22.2329 16.592 28.3947 14.5724 29.6444C14.4574 29.716 14.3247 29.7539 14.1893 29.7539C14.0539 29.7539 13.9212 29.716 13.8062 29.6444C11.7937 28.3964 2.54218 22.2347 2.54218 14.5778V5.37067C2.54257 5.18053 2.61707 4.99804 2.74984 4.86194C2.88262 4.72584 3.06322 4.64686 3.25329 4.64178C10.4533 4.44444 8.7964 1.28711 14.1884 1.28711C19.5804 1.28711 17.9217 4.44622 25.1217 4.64178C25.3118 4.64686 25.4924 4.72584 25.6252 4.86194C25.758 4.99804 25.8324 5.18053 25.8328 5.37067L25.8364 14.5778Z" fill="url(#paint0_linear_853_6742)"/>
<path d="M21.2373 32.0005C26.3596 32.0005 30.512 27.8481 30.512 22.7258C30.512 17.6036 26.3596 13.4512 21.2373 13.4512C16.1151 13.4512 11.9626 17.6036 11.9626 22.7258C11.9626 27.8481 16.1151 32.0005 21.2373 32.0005Z" fill="#76BC2D"/>
<path d="M14.6133 21.8542C14.5763 21.8763 14.5352 21.8909 14.4924 21.897C14.4497 21.9032 14.4062 21.9008 14.3644 21.8901C14.3226 21.8793 14.2833 21.8604 14.2488 21.8344C14.2144 21.8084 14.1854 21.7759 14.1636 21.7386L13.7707 21.0773C13.7265 21.0023 13.7138 20.9128 13.7355 20.8285C13.7572 20.7442 13.8114 20.6719 13.8862 20.6275L16.9991 18.7804C17.0362 18.7583 17.0773 18.7437 17.12 18.7376C17.1627 18.7314 17.2063 18.7338 17.2481 18.7445C17.2899 18.7553 17.3292 18.7742 17.3636 18.8002C17.3981 18.8262 17.4271 18.8587 17.4489 18.896L19.296 22.0089C19.3181 22.0459 19.3327 22.087 19.3388 22.1297C19.345 22.1725 19.3426 22.216 19.3319 22.2578C19.3211 22.2996 19.3022 22.3389 19.2762 22.3734C19.2502 22.4078 19.2177 22.4368 19.1804 22.4586L18.5191 22.8515C18.4441 22.8957 18.3547 22.9083 18.2703 22.8867C18.186 22.865 18.1138 22.8108 18.0693 22.736L17.5218 21.8115C17.3959 22.3213 17.3669 22.8502 17.4364 23.3706C17.5048 23.8931 17.6797 24.3959 17.9502 24.848C18.1411 25.1784 18.3808 25.4781 18.6613 25.7369C18.9402 25.9915 19.2516 26.2079 19.5876 26.3804C19.9244 26.5518 20.2834 26.6756 20.6542 26.7484C20.933 26.8024 21.2165 26.8281 21.5004 26.8249C21.5812 26.8255 21.6588 26.8563 21.7181 26.9112C21.7773 26.9661 21.8138 27.0412 21.8204 27.1217L21.9698 28.7217C21.4083 28.7726 20.8425 28.7421 20.2898 28.6311C19.7438 28.5216 19.2151 28.3386 18.7182 28.0871C18.2228 27.8356 17.7651 27.5161 17.3582 27.1377C16.354 26.2008 15.7067 24.9439 15.5271 23.5822C15.4233 22.7909 15.4795 21.9869 15.6924 21.2177L14.6133 21.8542ZM22.1796 18.832C22.5505 18.9069 22.9095 19.0326 23.2462 19.2053C23.5817 19.3776 23.8926 19.5941 24.1707 19.8489C24.8454 20.4653 25.2811 21.3001 25.4009 22.2062C25.4704 22.7266 25.4415 23.2555 25.3156 23.7653L24.768 22.8409C24.7236 22.766 24.6513 22.7118 24.567 22.6901C24.4827 22.6685 24.3932 22.6811 24.3182 22.7253L23.6569 23.1182C23.6196 23.14 23.5871 23.169 23.5611 23.2035C23.5351 23.2379 23.5162 23.2772 23.5055 23.319C23.4947 23.3608 23.4924 23.4044 23.4985 23.4471C23.5047 23.4898 23.5192 23.5309 23.5413 23.568L25.3884 26.6826C25.4332 26.7572 25.5056 26.811 25.5899 26.8323C25.6741 26.8537 25.7634 26.8407 25.8382 26.7964L28.9511 24.9493C28.9884 24.9275 29.0209 24.8985 29.0469 24.864C29.0729 24.8296 29.0918 24.7903 29.1026 24.7485C29.1133 24.7067 29.1157 24.6631 29.1095 24.6204C29.1033 24.5777 29.0888 24.5366 29.0667 24.4995L28.6738 23.8382C28.6291 23.7636 28.5567 23.7098 28.4724 23.6885C28.3881 23.6672 28.2988 23.6801 28.224 23.7244L27.1467 24.3626C27.3596 23.5941 27.4158 22.7906 27.312 22C27.1326 20.6383 26.4852 19.3813 25.4809 18.4444C25.0735 18.0672 24.6158 17.7483 24.1209 17.4969C23.6241 17.2451 23.0954 17.0621 22.5493 16.9529C22.1077 16.8641 21.6573 16.8265 21.2071 16.8409C21.1633 16.843 21.1204 16.8541 21.081 16.8734C21.0416 16.8927 21.0066 16.9198 20.978 16.953C20.9494 16.9863 20.9278 17.025 20.9146 17.0669C20.9015 17.1087 20.8969 17.1528 20.9013 17.1964L21.0187 18.4586C21.0249 18.5398 21.0615 18.6155 21.1212 18.6709C21.1808 18.7262 21.2591 18.7571 21.3404 18.7573C21.6225 18.7545 21.904 18.7838 22.1796 18.8444V18.832Z" fill="white"/>
<defs>
<linearGradient id="paint0_linear_853_6742" x1="14.1884" y1="29.7547" x2="14.1884" y2="1.28711" gradientUnits="userSpaceOnUse">
<stop stop-color="#0078D4"/>
<stop offset="1" stop-color="#5EA0EF"/>
</linearGradient>
</defs>
</svg>
