<svg width="32" height="32" viewBox="0 0 32 32" fill="none" xmlns="http://www.w3.org/2000/svg">
<path d="M26.9315 4.03906H5.06843C4.55701 4.04372 4.05621 4.18549 3.61823 4.4496C3.18026 4.71371 2.82116 5.09048 2.57839 5.54062C2.33561 5.99077 2.21804 6.49781 2.23794 7.00886C2.25785 7.51992 2.41449 8.01627 2.69155 8.44617C3.6652 10.2289 4.49739 12.0852 5.18043 13.9982C5.4819 14.6107 5.95177 15.1245 6.53493 15.4793C7.11809 15.8342 7.79036 16.0154 8.47288 16.0017H23.5253C24.2069 16.0142 24.8779 15.8324 25.46 15.4776C26.0421 15.1228 26.5112 14.6097 26.8124 13.9982C27.4955 12.0852 28.3277 10.2289 29.3013 8.44617C29.5781 8.01678 29.7347 7.52107 29.7549 7.01062C29.7751 6.50017 29.6582 5.99363 29.4162 5.5437C29.1743 5.09377 28.8162 4.71689 28.3792 4.45228C27.9423 4.18766 27.4424 4.04497 26.9315 4.03906ZM27.7031 7.45062C26.6567 9.34424 25.7649 11.3192 25.0364 13.3564C24.9378 13.5887 24.7709 13.7855 24.5579 13.9208C24.3449 14.056 24.0957 14.1233 23.8435 14.1137H8.15821C7.90392 14.1236 7.65272 14.0552 7.43848 13.9179C7.22423 13.7806 7.05723 13.5809 6.95999 13.3457C6.23121 11.3121 5.33942 9.34068 4.29332 7.45062C4.19195 7.29237 4.13542 7.10957 4.12979 6.92171C4.12415 6.73386 4.16961 6.548 4.26132 6.38395C4.33776 6.23861 4.45381 6.11789 4.59602 6.03578C4.73823 5.95366 4.90079 5.9135 5.06488 5.91995H26.9315C27.0956 5.9135 27.2582 5.95366 27.4004 6.03578C27.5426 6.11789 27.6587 6.23861 27.7351 6.38395C27.8268 6.548 27.8723 6.73386 27.8666 6.92171C27.861 7.10957 27.8045 7.29237 27.7031 7.45062Z" fill="#FF8C00"/>
<path opacity="0.6" d="M26.9316 4.03906H17.2587V5.92706H26.9316C27.0954 5.92053 27.2578 5.96067 27.3997 6.04281C27.5417 6.12495 27.6574 6.24572 27.7333 6.39106C27.8255 6.55489 27.8714 6.74069 27.866 6.92858C27.8607 7.11648 27.8044 7.29939 27.7031 7.45773C26.6567 9.35135 25.765 11.3264 25.0364 13.3635C24.9377 13.5961 24.7706 13.7931 24.5572 13.9284C24.3438 14.0637 24.0942 14.1308 23.8418 14.1208H17.264V16.0017H23.5307C24.2122 16.0142 24.8833 15.8324 25.4654 15.4776C26.0475 15.1228 26.5165 14.6097 26.8178 13.9982C27.5008 12.0852 28.333 10.2289 29.3067 8.44617C29.5836 8.0164 29.7403 7.5202 29.7603 7.0093C29.7802 6.4984 29.6628 5.99149 29.4203 5.54139C29.1777 5.0913 28.8189 4.7145 28.3811 4.45027C27.9434 4.18603 27.4428 4.04403 26.9316 4.03906Z" fill="#DD5900"/>
<path d="M13.4809 18.5195H18.5191V25.4529H13.4809V18.5195Z" fill="#FCD116"/>
<path opacity="0.4" d="M16 18.5195H18.5191V25.4529H16V18.5195Z" fill="#DD5900"/>
<path d="M24.1404 30.3256L22.9742 26.2545C22.6008 25.3851 22.2808 24.8145 21.2746 24.8145H10.7253C9.71907 24.8145 9.39907 25.3851 9.02574 26.2545L7.85952 30.3256C7.82459 30.4156 7.81281 30.513 7.82524 30.6088C7.83768 30.7046 7.87394 30.7958 7.93071 30.874C7.98748 30.9521 8.06295 31.0148 8.1502 31.0563C8.23746 31.0978 8.33372 31.1167 8.43018 31.1113H23.5697C23.6662 31.1167 23.7625 31.0978 23.8497 31.0563C23.937 31.0148 24.0124 30.9521 24.0692 30.874C24.126 30.7958 24.1622 30.7046 24.1747 30.6088C24.1871 30.513 24.1753 30.4156 24.1404 30.3256Z" fill="#FF8C00"/>
<path opacity="0.6" d="M24.1404 30.3256L22.9742 26.2545C22.6009 25.3851 22.2809 24.8145 21.2747 24.8145H16V31.1113H23.5698C23.6662 31.1167 23.7625 31.0978 23.8498 31.0563C23.937 31.0148 24.0125 30.9521 24.0692 30.874C24.126 30.7958 24.1623 30.7046 24.1747 30.6088C24.1872 30.513 24.1754 30.4156 24.1404 30.3256Z" fill="#DD5900"/>
<path opacity="0.4" d="M13.4809 20.3418C14.243 20.795 15.1133 21.0343 16 21.0343C16.8867 21.0343 17.757 20.795 18.5191 20.3418V18.5195H13.4809V20.3418Z" fill="#DD5900"/>
<path d="M23.8418 0.889686H8.11021C7.02576 0.889686 7.08443 2.13413 7.34043 2.42924C7.59643 2.72435 9.43998 5.03013 9.43998 13.3075C9.46826 15.0223 10.1693 16.6572 11.392 17.8599C12.6146 19.0626 14.261 19.7366 15.976 19.7366C17.691 19.7366 19.3373 19.0626 20.56 17.8599C21.7827 16.6572 22.4837 15.0223 22.512 13.3075C22.512 5.03013 24.2898 2.75102 24.6133 2.42924C24.7291 2.28844 24.8015 2.11709 24.8218 1.93596C24.8421 1.75483 24.8095 1.57169 24.7278 1.40874C24.6462 1.24579 24.519 1.11002 24.3617 1.0179C24.2044 0.925767 24.0238 0.881231 23.8418 0.889686Z" fill="#FCD116"/>
<path opacity="0.3" d="M16 19.7768C17.7155 19.763 19.3574 19.0784 20.5745 17.8693C21.7915 16.6602 22.487 15.0228 22.512 13.3075C22.512 5.03013 24.2898 2.75102 24.6133 2.42924C24.7291 2.28844 24.8015 2.11709 24.8218 1.93596C24.8422 1.75483 24.8095 1.57169 24.7278 1.40874C24.6462 1.24579 24.519 1.11002 24.3617 1.0179C24.2045 0.925767 24.0239 0.881231 23.8418 0.889686H16V19.7768Z" fill="#DD5900"/>
</svg>
