<svg width="32" height="32" viewBox="0 0 32 32" fill="none" xmlns="http://www.w3.org/2000/svg">
<g clip-path="url(#clip0_853_6733)">
<path d="M16 0.888672C13.0113 0.888672 10.0897 1.77492 7.60472 3.43535C5.11971 5.09578 3.18288 7.45582 2.03916 10.217C0.895433 12.9782 0.596183 16.0165 1.17925 18.9478C1.76231 21.8791 3.20151 24.5716 5.31483 26.685C7.42816 28.7983 10.1207 30.2375 13.052 30.8205C15.9832 31.4036 19.0216 31.1044 21.7828 29.9606C24.544 28.8169 26.904 26.8801 28.5644 24.3951C30.2249 21.9101 31.1111 18.9885 31.1111 15.9998C31.1064 11.9935 29.5128 8.15267 26.68 5.31981C23.8471 2.48695 20.0063 0.893377 16 0.888672ZM16 29.0487C13.4192 29.0487 10.8963 28.2834 8.75043 26.8495C6.60455 25.4157 4.93204 23.3777 3.9444 20.9934C2.95676 18.609 2.69835 15.9853 3.20185 13.4541C3.70534 10.9228 4.94813 8.59774 6.77305 6.77283C8.59797 4.94791 10.9231 3.70512 13.4543 3.20162C15.9855 2.69813 18.6092 2.95654 20.9936 3.94418C23.378 4.93182 25.4159 6.60433 26.8498 8.75021C28.2836 10.8961 29.0489 13.419 29.0489 15.9998C29.0489 19.4606 27.6741 22.7796 25.227 25.2267C22.7798 27.6739 19.4608 29.0487 16 29.0487Z" fill="url(#paint0_radial_853_6733)"/>
<path d="M16 29.049C23.2067 29.049 29.0489 23.2068 29.0489 16.0001C29.0489 8.79336 23.2067 2.95117 16 2.95117C8.7933 2.95117 2.95111 8.79336 2.95111 16.0001C2.95111 23.2068 8.7933 29.049 16 29.049Z" fill="white"/>
<path d="M23.8933 13.0313C24.5002 12.4187 24.8407 11.5913 24.8407 10.7291C24.8407 9.86679 24.5002 9.03939 23.8933 8.42684L18.2933 2.80906C17.6838 2.20329 16.8594 1.86328 16 1.86328C15.1406 1.86328 14.3162 2.20329 13.7067 2.80906L8.10667 8.42684C7.49979 9.03939 7.15933 9.86679 7.15933 10.7291C7.15933 11.5913 7.49979 12.4187 8.10667 13.0313L12.7644 17.778C12.9346 17.9475 13.0305 18.1777 13.0311 18.4179V27.0935C13.0315 27.386 13.1464 27.6668 13.3511 27.8757L15.4844 30.0091C15.5521 30.0768 15.6325 30.1305 15.721 30.1672C15.8094 30.2038 15.9042 30.2227 16 30.2227C16.0958 30.2227 16.1906 30.2038 16.279 30.1672C16.3675 30.1305 16.4479 30.0768 16.5156 30.0091L18.5778 27.9468L19.7867 26.738C19.8629 26.6558 19.9052 26.5478 19.9052 26.4357C19.9052 26.3236 19.8629 26.2157 19.7867 26.1335L18.9156 25.2624C18.8318 25.1734 18.7852 25.0557 18.7852 24.9335C18.7852 24.8113 18.8318 24.6936 18.9156 24.6046L19.7867 23.7335C19.8629 23.6513 19.9052 23.5434 19.9052 23.4313C19.9052 23.3192 19.8629 23.2112 19.7867 23.1291L18.9156 22.258C18.8318 22.1689 18.7852 22.0513 18.7852 21.9291C18.7852 21.8068 18.8318 21.6892 18.9156 21.6002L19.7867 20.7291C19.8629 20.6469 19.9052 20.5389 19.9052 20.4268C19.9052 20.3148 19.8629 20.2068 19.7867 20.1246L18.5778 18.898V18.4535L23.8933 13.0313ZM16 4.17795C16.488 4.17795 16.956 4.37181 17.3011 4.71687C17.6461 5.06194 17.84 5.52995 17.84 6.01795C17.84 6.50595 17.6461 6.97396 17.3011 7.31903C16.956 7.66409 16.488 7.85795 16 7.85795C15.512 7.85795 15.044 7.66409 14.6989 7.31903C14.3539 6.97396 14.16 6.50595 14.16 6.01795C14.16 5.52995 14.3539 5.06194 14.6989 4.71687C15.044 4.37181 15.512 4.17795 16 4.17795Z" fill="url(#paint1_radial_853_6733)"/>
<path opacity="0.75" d="M14.5422 27.2001C14.6011 27.2507 14.6731 27.2835 14.7499 27.2947C14.8267 27.306 14.9051 27.2951 14.9759 27.2634C15.0468 27.2317 15.1072 27.1805 15.15 27.1158C15.1928 27.051 15.2163 26.9754 15.2178 26.8978V19.7867C15.2173 19.7159 15.1991 19.6463 15.165 19.5842C15.1308 19.5221 15.0818 19.4695 15.0222 19.4312C14.9612 19.3912 14.8902 19.3691 14.8173 19.3673C14.7444 19.3655 14.6724 19.3842 14.6096 19.4212C14.5467 19.4582 14.4954 19.512 14.4615 19.5766C14.4276 19.6412 14.4125 19.714 14.4178 19.7867V26.8978C14.4241 27.0097 14.4679 27.1162 14.5422 27.2001Z" fill="#FF9300"/>
<path opacity="0.75" d="M20.2133 10.293H12.0178C11.7429 10.293 11.52 10.5158 11.52 10.7907V10.8796C11.52 11.1546 11.7429 11.3774 12.0178 11.3774H20.2133C20.4882 11.3774 20.7111 11.1546 20.7111 10.8796V10.7907C20.7111 10.5158 20.4882 10.293 20.2133 10.293Z" fill="#FF9300"/>
<path opacity="0.75" d="M20.2133 12.0527H12.0178C11.7429 12.0527 11.52 12.2756 11.52 12.5505V12.6394C11.52 12.9143 11.7429 13.1372 12.0178 13.1372H20.2133C20.4882 13.1372 20.7111 12.9143 20.7111 12.6394V12.5505C20.7111 12.2756 20.4882 12.0527 20.2133 12.0527Z" fill="#FF9300"/>
</g>
<defs>
<radialGradient id="paint0_radial_853_6733" cx="0" cy="0" r="1" gradientUnits="userSpaceOnUse" gradientTransform="translate(16 15.9998) scale(15.1111)">
<stop offset="0.18" stop-color="#5EA0EF"/>
<stop offset="0.56" stop-color="#5C9FEE"/>
<stop offset="0.69" stop-color="#559CED"/>
<stop offset="0.78" stop-color="#4A97E9"/>
<stop offset="0.86" stop-color="#3990E4"/>
<stop offset="0.93" stop-color="#2387DE"/>
<stop offset="0.99" stop-color="#087BD6"/>
<stop offset="1" stop-color="#0078D4"/>
</radialGradient>
<radialGradient id="paint1_radial_853_6733" cx="0" cy="0" r="1" gradientUnits="userSpaceOnUse" gradientTransform="translate(14.0498 14.0549) scale(16.5106 16.5106)">
<stop offset="0.27" stop-color="#FFD70F"/>
<stop offset="0.49" stop-color="#FFCB12"/>
<stop offset="0.88" stop-color="#FEAC19"/>
<stop offset="1" stop-color="#FEA11B"/>
</radialGradient>
<clipPath id="clip0_853_6733">
<rect width="32" height="32" fill="white"/>
</clipPath>
</defs>
</svg>
