<svg width="32" height="32" viewBox="0 0 32 32" fill="none" xmlns="http://www.w3.org/2000/svg">
<path d="M28.3129 14.9971C28.3129 23.1251 18.5351 29.6691 16.4018 30.9971C16.2802 31.0729 16.1397 31.1131 15.9964 31.1131C15.8531 31.1131 15.7127 31.0729 15.5911 30.9971C13.4578 29.6709 3.67999 23.1269 3.67999 14.9971V5.21934C3.67951 5.01546 3.75956 4.81964 3.90272 4.67448C4.04588 4.52932 4.24057 4.44657 4.44444 4.44423C12.0533 4.24156 10.3004 0.888672 16 0.888672C21.6996 0.888672 19.9484 4.24689 27.5556 4.44423C27.7579 4.44888 27.9503 4.53265 28.0915 4.67756C28.2328 4.82247 28.3116 5.01697 28.3111 5.21934L28.3129 14.9971Z" fill="url(#paint0_linear_853_6727)"/>
<path d="M27.2924 15.0885C27.2924 22.541 18.3218 28.5428 16.3715 29.7605C16.2602 29.8302 16.1314 29.8672 16 29.8672C15.8686 29.8672 15.7398 29.8302 15.6284 29.7605C13.6729 28.5428 4.70755 22.5374 4.70755 15.0885V6.11964C4.70749 5.93408 4.77997 5.75585 4.90951 5.62299C5.03904 5.49013 5.21538 5.41317 5.40088 5.40853C12.3787 5.22009 10.7716 2.14453 16 2.14453C21.2284 2.14453 19.6213 5.22009 26.5991 5.40853C26.7845 5.41353 26.9605 5.49071 27.0898 5.62364C27.2194 5.75623 27.2921 5.93421 27.2924 6.11964V15.0885Z" fill="url(#paint1_linear_853_6727)"/>
<path d="M14.4338 11.5195V8.3888C14.4338 8.30055 14.4164 8.21316 14.3826 8.13163C14.3488 8.0501 14.2993 7.97602 14.2369 7.91362C14.1745 7.85122 14.1005 7.80172 14.0189 7.76795C13.9374 7.73418 13.85 7.7168 13.7618 7.7168H10.1795C10.0913 7.7168 10.0039 7.73418 9.92237 7.76795C9.84084 7.80172 9.76676 7.85122 9.70436 7.91362C9.64196 7.97602 9.59246 8.0501 9.55869 8.13163C9.52492 8.21316 9.50754 8.30055 9.50754 8.3888V11.7808C9.50754 11.959 9.57834 12.1299 9.70436 12.256C9.83039 12.382 10.0013 12.4528 10.1795 12.4528H13.4986C13.6275 12.4528 13.7512 12.5039 13.8425 12.5948C13.9338 12.6858 13.9853 12.8092 13.9858 12.9381V17.4697C13.9874 17.5237 13.9768 17.5774 13.9546 17.6267C13.9324 17.676 13.8993 17.7196 13.8578 17.7541C13.7553 17.8306 13.63 17.8701 13.5022 17.8661H10.1795C10.0013 17.8661 9.83039 17.9369 9.70436 18.063C9.57834 18.189 9.50754 18.3599 9.50754 18.5381V22.1559C9.50754 22.3341 9.57834 22.5051 9.70436 22.6311C9.83039 22.7571 10.0013 22.8279 10.1795 22.8279H13.7618C13.94 22.8279 14.1109 22.7571 14.2369 22.6311C14.363 22.5051 14.4338 22.3341 14.4338 22.1559V18.8012C14.4338 18.7374 14.4464 18.6741 14.4709 18.6151C14.4954 18.5561 14.5313 18.5025 14.5765 18.4574C14.6218 18.4123 14.6755 18.3766 14.7346 18.3523C14.7937 18.3281 14.857 18.3157 14.9209 18.3159H19.7333C19.9115 18.3159 20.0825 18.2451 20.2085 18.1191C20.3345 17.9931 20.4053 17.8221 20.4053 17.6439V12.9381C20.4053 12.8742 20.4179 12.811 20.4424 12.752C20.4669 12.693 20.5028 12.6394 20.5481 12.5943C20.5934 12.5492 20.6471 12.5135 20.7062 12.4892C20.7652 12.4649 20.8285 12.4526 20.8924 12.4528H22.7182C22.8964 12.4528 23.0674 12.382 23.1934 12.256C23.3194 12.1299 23.3902 11.959 23.3902 11.7808V9.82524C23.3902 9.64702 23.3194 9.47609 23.1934 9.35007C23.0674 9.22404 22.8964 9.15324 22.7182 9.15324H20.6222C20.534 9.15324 20.4467 9.17063 20.3653 9.20443C20.2839 9.23822 20.2099 9.28775 20.1477 9.35017C20.0854 9.4126 20.0361 9.48669 20.0025 9.56821C19.9689 9.64973 19.9517 9.73708 19.952 9.82524V11.5195C19.9515 11.6483 19.9 11.7718 19.8087 11.8628C19.7174 11.9537 19.5938 12.0048 19.4649 12.0048H14.9209C14.792 12.0048 14.6684 11.9537 14.5771 11.8628C14.4858 11.7718 14.4342 11.6483 14.4338 11.5195Z" fill="white"/>
<path d="M13.7618 23.0518H10.1795C9.94379 23.0518 9.7177 22.9582 9.551 22.7915C9.3843 22.6248 9.29065 22.3987 9.29065 22.1629V18.5363C9.29065 18.3005 9.3843 18.0744 9.551 17.9077C9.7177 17.741 9.94379 17.6474 10.1795 17.6474H13.4986C13.5766 17.653 13.654 17.631 13.7173 17.5852C13.7331 17.5717 13.7454 17.5547 13.7531 17.5355C13.7608 17.5163 13.7638 17.4955 13.7618 17.4749V12.938C13.7618 12.9036 13.7549 12.8695 13.7417 12.8376C13.7285 12.8058 13.709 12.7769 13.6846 12.7526C13.6601 12.7283 13.6311 12.7091 13.5992 12.6961C13.5673 12.6831 13.5331 12.6765 13.4986 12.6767H10.1795C9.94379 12.6767 9.7177 12.5831 9.551 12.4164C9.3843 12.2497 9.29065 12.0236 9.29065 11.7878V8.38694C9.29065 8.15119 9.3843 7.9251 9.551 7.7584C9.7177 7.5917 9.94379 7.49805 10.1795 7.49805H13.7635C13.8803 7.49805 13.9959 7.52104 14.1037 7.56571C14.2115 7.61038 14.3095 7.67586 14.3921 7.7584C14.4746 7.84094 14.5401 7.93893 14.5848 8.04677C14.6294 8.15462 14.6524 8.27021 14.6524 8.38694V11.5194C14.6524 11.5537 14.6592 11.5877 14.6723 11.6194C14.6855 11.6511 14.7047 11.6799 14.729 11.7042C14.7532 11.7284 14.782 11.7477 14.8138 11.7608C14.8455 11.774 14.8794 11.7807 14.9138 11.7807H19.4666C19.5014 11.7812 19.5358 11.7748 19.568 11.7619C19.6002 11.749 19.6296 11.7298 19.6544 11.7055C19.6792 11.6813 19.6989 11.6523 19.7124 11.6203C19.726 11.5884 19.7331 11.5541 19.7333 11.5194V9.81627C19.7333 9.58052 19.827 9.35443 19.9937 9.18773C20.1604 9.02103 20.3865 8.92738 20.6222 8.92738H22.7111C22.9468 8.92738 23.1729 9.02103 23.3396 9.18773C23.5063 9.35443 23.6 9.58052 23.6 9.81627V11.7718C23.5977 12.0069 23.5033 12.2316 23.3371 12.3978C23.1709 12.564 22.9461 12.6584 22.7111 12.6607H20.8907C20.8562 12.6605 20.822 12.6671 20.7901 12.6801C20.7582 12.6931 20.7292 12.7123 20.7047 12.7366C20.6803 12.7609 20.6608 12.7898 20.6476 12.8216C20.6344 12.8534 20.6275 12.8876 20.6275 12.922V17.6438C20.6275 17.8796 20.5339 18.1057 20.3672 18.2724C20.2005 18.4391 19.9744 18.5327 19.7386 18.5327H14.9191C14.8498 18.5327 14.7833 18.5602 14.7343 18.6093C14.6853 18.6583 14.6578 18.7247 14.6578 18.794V22.1487C14.6597 22.2672 14.6378 22.3849 14.5936 22.4949C14.5493 22.6049 14.4835 22.7049 14.4 22.789C14.3165 22.8732 14.217 22.9398 14.1074 22.9849C13.9978 23.03 13.8803 23.0528 13.7618 23.0518ZM10.1795 18.09C10.061 18.09 9.94735 18.137 9.86338 18.2206C9.77942 18.3043 9.73201 18.4178 9.73154 18.5363V22.1558C9.73154 22.2746 9.77874 22.3886 9.86275 22.4726C9.94677 22.5566 10.0607 22.6038 10.1795 22.6038H13.7618C13.8806 22.6038 13.9945 22.5566 14.0785 22.4726C14.1626 22.3886 14.2098 22.2746 14.2098 22.1558V18.8012C14.2098 18.6126 14.2847 18.4317 14.418 18.2983C14.5514 18.165 14.7323 18.09 14.9209 18.09H19.7333C19.7921 18.09 19.8502 18.0784 19.9045 18.0559C19.9587 18.0334 20.008 18.0003 20.0495 17.9587C20.0909 17.9171 20.1238 17.8677 20.1461 17.8134C20.1684 17.759 20.1798 17.7008 20.1795 17.642V12.938C20.1795 12.7494 20.2545 12.5686 20.3878 12.4352C20.5212 12.3019 20.7021 12.2269 20.8907 12.2269H22.7164C22.8349 12.2265 22.9484 12.1791 23.0321 12.0951C23.1157 12.0111 23.1627 11.8974 23.1627 11.7789V9.82338C23.1622 9.70518 23.115 9.59195 23.0314 9.50837C22.9479 9.42479 22.8346 9.37763 22.7164 9.37716H20.6222C20.5037 9.37716 20.39 9.42411 20.306 9.50774C20.2221 9.59138 20.1747 9.70487 20.1742 9.82338V11.5194C20.1742 11.708 20.0993 11.8889 19.9659 12.0222C19.8326 12.1556 19.6517 12.2305 19.4631 12.2305H14.9191C14.7305 12.2305 14.5496 12.1556 14.4163 12.0222C14.2829 11.8889 14.208 11.708 14.208 11.5194V8.38871C14.2092 8.32988 14.1984 8.27142 14.176 8.21698C14.1537 8.16254 14.1204 8.11328 14.0782 8.07227C14.037 8.03017 13.9878 7.99681 13.9334 7.9742C13.879 7.9516 13.8206 7.94021 13.7618 7.94071H10.1795C10.061 7.94071 9.94735 7.98767 9.86338 8.0713C9.77942 8.15493 9.73201 8.26843 9.73154 8.38694V11.7807C9.73154 11.8995 9.77874 12.0135 9.86275 12.0975C9.94677 12.1815 10.0607 12.2287 10.1795 12.2287H13.4986C13.6872 12.2287 13.8681 12.3036 14.0015 12.437C14.1348 12.5704 14.2098 12.7512 14.2098 12.9398V17.4696C14.2116 17.5561 14.1941 17.6418 14.1584 17.7206C14.1227 17.7994 14.0698 17.8691 14.0035 17.9247C13.8591 18.036 13.6809 18.0943 13.4986 18.09H10.1795Z" fill="#5191FB"/>
<defs>
<linearGradient id="paint0_linear_853_6727" x1="8.57599" y1="2.73934" x2="25.3884" y2="23.9393" gradientUnits="userSpaceOnUse">
<stop stop-color="#59B8FF"/>
<stop offset="1" stop-color="#508DFA"/>
</linearGradient>
<linearGradient id="paint1_linear_853_6727" x1="29.4684" y1="28.5125" x2="5.93778" y2="0.624527" gradientUnits="userSpaceOnUse">
<stop stop-color="#648EFA"/>
<stop offset="1" stop-color="#79CFFF"/>
</linearGradient>
</defs>
</svg>
