<svg width="32" height="32" viewBox="0 0 32 32" fill="none" xmlns="http://www.w3.org/2000/svg">
<path d="M29.0916 14.9333C29.0916 23.5378 18.6933 30.464 16.4302 31.8684C16.301 31.9486 16.152 31.9911 16 31.9911C15.848 31.9911 15.699 31.9486 15.5698 31.8684C13.3067 30.464 2.90845 23.5378 2.90845 14.9333V4.59022C2.90885 4.37557 2.99309 4.16957 3.1432 4.01614C3.29331 3.86271 3.49741 3.77399 3.712 3.76889C11.8009 3.55556 9.93778 0 16 0C22.0622 0 20.1991 3.55556 28.288 3.76889C28.5026 3.77399 28.7067 3.86271 28.8568 4.01614C29.0069 4.16957 29.0912 4.37557 29.0916 4.59022V14.9333Z" fill="#50E6FF"/>
<path d="M28.0071 15.0295C28.0071 22.9192 18.4694 29.2712 16.3947 30.5601C16.2764 30.6343 16.1396 30.6736 16 30.6736C15.8604 30.6736 15.7236 30.6343 15.6054 30.5601C13.5307 29.2712 3.99292 22.9157 3.99292 15.0295V5.53613C3.99379 5.3394 4.07136 5.15077 4.20913 5.01034C4.34691 4.86991 4.53402 4.78875 4.7307 4.78413C12.1494 4.58324 10.4409 1.32812 16 1.32812C21.5591 1.32812 19.8507 4.58324 27.2694 4.78413C27.466 4.78875 27.6532 4.86991 27.7909 5.01034C27.9287 5.15077 28.0063 5.3394 28.0071 5.53613V15.0295Z" fill="url(#paint0_linear_853_6725)"/>
<path d="M17.5182 16.5664C18.776 16.5664 19.7956 15.5468 19.7956 14.2891C19.7956 13.0313 18.776 12.0117 17.5182 12.0117C16.2605 12.0117 15.2409 13.0313 15.2409 14.2891C15.2409 15.5468 16.2605 16.5664 17.5182 16.5664Z" fill="white"/>
<path d="M14.2471 21.3763C15.0964 21.3763 15.7849 20.6879 15.7849 19.8386C15.7849 18.9893 15.0964 18.3008 14.2471 18.3008C13.3978 18.3008 12.7094 18.9893 12.7094 19.8386C12.7094 20.6879 13.3978 21.3763 14.2471 21.3763Z" fill="white"/>
<path d="M13.1378 10.0339C14.1913 10.0339 15.0453 9.17982 15.0453 8.12631C15.0453 7.07279 14.1913 6.21875 13.1378 6.21875C12.0843 6.21875 11.2302 7.07279 11.2302 8.12631C11.2302 9.17982 12.0843 10.0339 13.1378 10.0339Z" fill="white"/>
<path d="M21.7494 20.7034L17.9005 13.9639L17.5182 14.1843L17.8311 13.9532L13.472 7.75586L12.6756 8.33542L16.5369 13.8252L7.98047 14.531L8.06225 15.5247L16.5369 14.8207L13.7262 19.491L14.5707 19.9994L17.4614 15.1905L20.8942 21.1905L21.7494 20.7034Z" fill="#E6E6E6"/>
<path d="M17.5182 12.0342C17.9753 12.0342 18.4221 12.1698 18.8022 12.4237C19.1823 12.6777 19.4785 13.0386 19.6534 13.4609C19.8283 13.8832 19.8741 14.3479 19.7849 14.7962C19.6957 15.2445 19.4756 15.6563 19.1524 15.9795C18.8292 16.3027 18.4174 16.5229 17.9691 16.612C17.5208 16.7012 17.0561 16.6554 16.6338 16.4805C16.2115 16.3056 15.8505 16.0094 15.5966 15.6293C15.3426 15.2492 15.2071 14.8024 15.2071 14.3453V14.2884C15.222 13.6854 15.472 13.1121 15.9038 12.6909C16.3356 12.2697 16.915 12.034 17.5182 12.0342ZM11.2764 8.1231C11.2726 8.50327 11.3817 8.87603 11.5899 9.19414C11.7981 9.51224 12.096 9.76137 12.446 9.90995C12.796 10.0585 13.1821 10.0999 13.5556 10.0287C13.9291 9.95758 14.273 9.77716 14.5439 9.51033C14.8147 9.2435 15.0002 8.90227 15.0769 8.52989C15.1536 8.15752 15.118 7.77076 14.9746 7.41864C14.8312 7.06651 14.5866 6.76488 14.2716 6.55196C13.9566 6.33905 13.5855 6.22444 13.2053 6.22266H13.1556C12.6549 6.2292 12.177 6.43269 11.8253 6.78905C11.4736 7.14541 11.2764 7.62597 11.2764 8.12666V8.1231ZM6.49066 15.1453C6.49066 15.4495 6.5809 15.7469 6.74995 15.9999C6.919 16.2528 7.15927 16.4499 7.44037 16.5662C7.72146 16.6826 8.03075 16.7129 8.3291 16.6534C8.62745 16.5939 8.90145 16.4473 9.11644 16.2321C9.33143 16.0168 9.47775 15.7427 9.53689 15.4442C9.59602 15.1458 9.56531 14.8366 9.44865 14.5556C9.33199 14.2746 9.13461 14.0346 8.88149 13.8658C8.62837 13.6971 8.33088 13.6072 8.02666 13.6075C7.61913 13.608 7.22844 13.7702 6.94044 14.0586C6.65243 14.3469 6.49066 14.7378 6.49066 15.1453ZM12.7129 19.8262C12.7104 20.1329 12.799 20.4334 12.9674 20.6897C13.1357 20.946 13.3763 21.1467 13.6588 21.2662C13.9412 21.3858 14.2527 21.4189 14.5539 21.3613C14.8552 21.3038 15.1326 21.1582 15.351 20.9429C15.5695 20.7277 15.7192 20.4525 15.7812 20.1522C15.8433 19.8518 15.8148 19.5399 15.6995 19.2557C15.5842 18.9715 15.3872 18.7279 15.1334 18.5558C14.8796 18.3836 14.5804 18.2906 14.2738 18.2884H14.2578C13.8501 18.2861 13.4581 18.4455 13.1678 18.7318C12.8775 19.0181 12.7126 19.4078 12.7093 19.8155L12.7129 19.8262ZM19.5573 21.0707C19.5545 21.4252 19.657 21.7726 19.8517 22.069C20.0464 22.3653 20.3246 22.5972 20.6512 22.7353C20.9778 22.8734 21.338 22.9116 21.6862 22.8449C22.0345 22.7782 22.3551 22.6097 22.6076 22.3608C22.86 22.1118 23.0329 21.7935 23.1045 21.4462C23.176 21.0989 23.1428 20.7383 23.0093 20.4098C22.8757 20.0813 22.6477 19.7999 22.3541 19.6011C22.0605 19.4023 21.7146 19.295 21.36 19.2929H21.3493C20.8816 19.2857 20.43 19.4644 20.0938 19.7897C19.7575 20.1149 19.564 20.5602 19.5555 21.028L19.5573 21.0707Z" fill="white"/>
<defs>
<linearGradient id="paint0_linear_853_6725" x1="16" y1="30.6721" x2="16" y2="1.32812" gradientUnits="userSpaceOnUse">
<stop stop-color="#50E6FF"/>
<stop offset="1" stop-color="#9CEBFF"/>
</linearGradient>
</defs>
</svg>
