<svg width="32" height="32" viewBox="0 0 32 32" fill="none" xmlns="http://www.w3.org/2000/svg">
<path d="M28.592 15.0007C28.592 23.1269 18.5902 29.6673 16.4142 31.0007C16.2894 31.0765 16.1461 31.1166 16 31.1166C15.8539 31.1166 15.7107 31.0765 15.5858 31.0007C13.4098 29.6727 3.40802 23.1322 3.40802 15.0007V5.22289C3.40893 5.01789 3.49029 4.82143 3.63459 4.67581C3.77889 4.53018 3.97459 4.44702 4.17958 4.44423C11.9609 4.24156 10.1689 0.888672 16 0.888672C21.8311 0.888672 20.0391 4.24156 27.8205 4.44423C28.0245 4.447 28.2194 4.52942 28.3636 4.6739C28.5077 4.81838 28.5897 5.01348 28.592 5.21756V15.0007Z" fill="#76BC2D"/>
<path d="M27.5556 15.0848C27.5556 22.5355 18.3822 28.5355 16.3876 29.7515C16.2729 29.8212 16.1413 29.858 16.0071 29.858C15.8729 29.858 15.7413 29.8212 15.6267 29.7515C13.6249 28.5355 4.44446 22.5355 4.44446 15.0848V6.11769C4.44446 5.92909 4.51938 5.74822 4.65274 5.61486C4.7861 5.4815 4.96697 5.40658 5.15557 5.40658C12.2951 5.21813 10.6525 2.14258 16 2.14258C21.3476 2.14258 19.7049 5.21813 26.8445 5.40836C27.0331 5.40836 27.2139 5.48328 27.3473 5.61664C27.4806 5.74999 27.5556 5.93087 27.5556 6.11947V15.0848Z" fill="url(#paint0_linear_853_6732)"/>
<path d="M21.072 13.6184H20.3467V11.0993C20.3528 9.90865 19.9083 8.75973 19.1022 7.88334C18.7094 7.45303 18.2312 7.10934 17.6982 6.87419C17.1651 6.63903 16.5889 6.51758 16.0062 6.51758C15.4236 6.51758 14.8474 6.63903 14.3143 6.87419C13.7812 7.10934 13.303 7.45303 12.9102 7.88334C12.0975 8.75482 11.6518 9.90598 11.6658 11.0976V13.6184H10.928C10.7764 13.6193 10.6311 13.6792 10.5229 13.7854C10.4147 13.8916 10.3521 14.0358 10.3484 14.1873V20.7331C10.3526 20.8845 10.4153 21.0284 10.5234 21.1345C10.6315 21.2406 10.7765 21.3007 10.928 21.302H21.072C21.2235 21.3007 21.3685 21.2406 21.4766 21.1345C21.5847 21.0284 21.6474 20.8845 21.6516 20.7331V14.1873C21.6479 14.0358 21.5853 13.8916 21.4771 13.7854C21.3689 13.6792 21.2236 13.6193 21.072 13.6184ZM18.3182 13.6184H13.6889V11.0567C13.6953 10.3979 13.9565 9.76711 14.4178 9.29667C14.6179 9.0732 14.8628 8.89443 15.1367 8.77205C15.4106 8.64966 15.7072 8.58641 16.0071 8.58641C16.3071 8.58641 16.6037 8.64966 16.8775 8.77205C17.1514 8.89443 17.3964 9.0732 17.5964 9.29667C17.6977 9.40674 17.7887 9.52574 17.8684 9.65222C18.1559 10.0659 18.3154 10.5549 18.3271 11.0584L18.3182 13.6184Z" fill="white"/>
<path opacity="0.15" d="M10.9298 13.6133H21.072C21.2093 13.6152 21.3415 13.6656 21.4453 13.7555L10.5564 21.1546C10.4926 21.1029 10.4409 21.0376 10.4053 20.9635C10.3696 20.8894 10.3508 20.8084 10.3502 20.7262V14.1839C10.3535 14.0321 10.4158 13.8875 10.5241 13.7809C10.6323 13.6743 10.7779 13.6142 10.9298 13.6133Z" fill="#B3B3B3"/>
<path opacity="0.09" d="M21.072 13.6133H10.928C10.7913 13.6157 10.6598 13.666 10.5565 13.7555L21.4436 21.1546C21.5077 21.103 21.5596 21.0378 21.5956 20.9637C21.6315 20.8896 21.6506 20.8085 21.6516 20.7262V14.1839C21.6479 14.0322 21.5854 13.8879 21.4772 13.7814C21.3691 13.6749 21.2238 13.6146 21.072 13.6133Z" fill="#A3A3A3"/>
<defs>
<linearGradient id="paint0_linear_853_6732" x1="16" y1="29.8581" x2="16" y2="2.14258" gradientUnits="userSpaceOnUse">
<stop stop-color="#5E9624"/>
<stop offset="0.321" stop-color="#639D26"/>
<stop offset="0.794" stop-color="#6FB12A"/>
<stop offset="0.999" stop-color="#76BC2D"/>
</linearGradient>
</defs>
</svg>
