<svg width="32" height="32" viewBox="0 0 32 32" fill="none" xmlns="http://www.w3.org/2000/svg">
<path d="M8.54398 8.93414C8.66487 8.90214 8.75553 8.90214 8.87642 8.87192C9.57153 8.77592 10.2666 8.6817 10.9618 8.6177C11.2036 7.44324 11.8382 6.38618 12.7611 5.62065C13.684 4.85511 14.8402 4.42675 16.0391 4.40614C17.2378 4.42683 18.3937 4.85525 19.3163 5.62081C20.2389 6.38637 20.8732 7.44339 21.1146 8.6177C21.8098 8.6817 22.5049 8.77592 23.2 8.87192C23.3209 8.90214 23.4418 8.90214 23.5324 8.93414C23.9022 8.99999 24.2661 9.09571 24.6204 9.22036C24.5647 6.98546 23.6377 4.86085 22.0373 3.29989C20.4369 1.73893 18.2898 0.865234 16.0542 0.865234C13.8186 0.865234 11.6715 1.73893 10.0711 3.29989C8.47073 4.86085 7.54375 6.98546 7.48798 9.22036C7.83003 9.09146 8.18365 8.99561 8.54398 8.93414Z" fill="#215694"/>
<path d="M28.3182 14.0596C28.318 12.7898 27.8604 11.5626 27.0291 10.6027C26.1979 9.64284 25.0487 9.01455 23.792 8.83291C23.664 8.80091 23.568 8.80091 23.4364 8.76891C18.4972 8.10047 13.4904 8.10047 8.55109 8.76891C8.42309 8.80091 8.29687 8.80091 8.19553 8.83291C6.93859 9.01194 5.78892 9.63982 4.95889 10.6006C4.12887 11.5613 3.67459 12.79 3.67998 14.0596C3.62422 17.2934 4.42302 20.4847 5.99565 23.3109C7.56828 26.1371 9.85902 28.4982 12.6364 30.1556C13.6409 30.7804 14.8002 31.1115 15.9831 31.1115C17.166 31.1115 18.3253 30.7804 19.3298 30.1556C22.1292 28.5202 24.4394 26.1646 26.0201 23.334C27.6008 20.5033 28.3944 17.3008 28.3182 14.0596Z" fill="url(#paint0_linear_853_6735)"/>
<mask id="mask0_853_6735" style="mask-type:luminance" maskUnits="userSpaceOnUse" x="3" y="8" width="26" height="24">
<path d="M28.3182 14.0596C28.318 12.7898 27.8604 11.5626 27.0291 10.6027C26.1979 9.64284 25.0487 9.01455 23.792 8.83291C23.664 8.80091 23.568 8.80091 23.4364 8.76891C18.4972 8.10047 13.4904 8.10047 8.55109 8.76891C8.42309 8.80091 8.29687 8.80091 8.19553 8.83291C6.93859 9.01194 5.78892 9.63982 4.95889 10.6006C4.12887 11.5613 3.67459 12.79 3.67998 14.0596C3.62422 17.2934 4.42302 20.4847 5.99565 23.3109C7.56828 26.1371 9.85902 28.4982 12.6364 30.1556C13.6409 30.7804 14.8002 31.1115 15.9831 31.1115C17.166 31.1115 18.3253 30.7804 19.3298 30.1556C22.1292 28.5202 24.4394 26.1646 26.0201 23.334C27.6008 20.5033 28.3944 17.3008 28.3182 14.0596Z" fill="white"/>
</mask>
<g mask="url(#mask0_853_6735)">
<g opacity="0.4">
<path d="M16.112 18.1523C18.4006 18.1523 20.256 16.3925 20.256 14.2217C20.256 12.0508 18.4006 10.291 16.112 10.291C13.8233 10.291 11.968 12.0508 11.968 14.2217C11.968 16.3925 13.8233 18.1523 16.112 18.1523Z" fill="#004795"/>
</g>
<g opacity="0.4">
<path d="M16.1102 36.0006C20.6866 36.0006 24.3964 32.3759 24.3964 27.9046C24.3964 23.4333 20.6866 19.8086 16.1102 19.8086C11.5338 19.8086 7.82397 23.4333 7.82397 27.9046C7.82397 32.3759 11.5338 36.0006 16.1102 36.0006Z" fill="#004795"/>
</g>
<path d="M16.1102 19.1044C18.3989 19.1044 20.2542 17.2491 20.2542 14.9604C20.2542 12.6717 18.3989 10.8164 16.1102 10.8164C13.8215 10.8164 11.9662 12.6717 11.9662 14.9604C11.9662 17.2491 13.8215 19.1044 16.1102 19.1044Z" fill="url(#paint1_linear_853_6735)"/>
<path d="M16.1102 36.9533C20.6866 36.9533 24.3964 33.2434 24.3964 28.6671C24.3964 24.0907 20.6866 20.3809 16.1102 20.3809C11.5338 20.3809 7.82397 24.0907 7.82397 28.6671C7.82397 33.2434 11.5338 36.9533 16.1102 36.9533Z" fill="url(#paint2_linear_853_6735)"/>
</g>
<defs>
<linearGradient id="paint0_linear_853_6735" x1="16" y1="8.26758" x2="16" y2="31.112" gradientUnits="userSpaceOnUse">
<stop stop-color="#0078D4"/>
<stop offset="1" stop-color="#1A508B"/>
</linearGradient>
<linearGradient id="paint1_linear_853_6735" x1="16.1102" y1="10.3115" x2="16.1102" y2="19.5329" gradientUnits="userSpaceOnUse">
<stop offset="0.297" stop-color="#40C4F5"/>
<stop offset="1" stop-color="#0095E6"/>
</linearGradient>
<linearGradient id="paint2_linear_853_6735" x1="16.1102" y1="19.3711" x2="16.1102" y2="36.9551" gradientUnits="userSpaceOnUse">
<stop offset="0.193" stop-color="#40C4F5"/>
<stop offset="1" stop-color="#0095E6"/>
</linearGradient>
</defs>
</svg>
