<svg width="32" height="32" viewBox="0 0 32 32" fill="none" xmlns="http://www.w3.org/2000/svg">
<path d="M31.9591 16.3563V13.846L31.6036 13.7145L28.9173 12.8256L28.2062 11.1083L29.5716 8.20337L27.8098 6.4416L27.4542 6.61937L24.944 7.89582L23.2267 7.18471L22.1262 4.14648H19.6284L19.4969 4.50204L18.608 7.18826L16.8907 7.89937L14.0444 6.53582L12.2827 8.2976L12.4604 8.65315L13.7369 11.1634L13.0258 12.8807L9.94312 13.9811V16.4878L10.2987 16.6194L12.9849 17.5083L13.696 19.2256L12.32 22.1252L14.08 23.8852L14.4356 23.7074L16.9458 22.4309L18.6631 23.142L19.7636 26.1803H22.2738L22.4071 25.8247L23.2871 23.1385L25.0044 22.4274L27.9111 23.7927L29.6729 22.0309L29.4951 21.6754L28.2187 19.1651L28.9298 17.4478L31.9591 16.3563ZM20.9493 19.9989C19.9935 19.9996 19.0589 19.7168 18.2639 19.1863C17.4688 18.6558 16.8489 17.9014 16.4826 17.0185C16.1163 16.1356 16.0202 15.164 16.2062 14.2264C16.3922 13.2889 16.8522 12.4276 17.5278 11.7514C18.2034 11.0753 19.0644 10.6148 20.0018 10.428C20.9392 10.2413 21.9109 10.3368 22.7941 10.7024C23.6772 11.068 24.4321 11.6873 24.9632 12.482C25.4943 13.2767 25.7778 14.2111 25.7778 15.1669C25.7785 15.8014 25.6541 16.4297 25.4117 17.0161C25.1694 17.6024 24.8138 18.1352 24.3653 18.584C23.9169 19.0328 23.3844 19.3887 22.7982 19.6315C22.2121 19.8743 21.5838 19.9992 20.9493 19.9989Z" fill="#0078D4"/>
<path d="M22.1494 29.3628C22.7216 29.3642 23.271 29.1384 23.677 28.7351C24.083 28.3318 24.3123 27.7839 24.3147 27.2116C24.3144 27.1249 24.3097 27.0383 24.3005 26.9521C23.4507 20.1681 19.5805 14.6445 12.1974 14.6445C4.68446 14.6445 0.808909 19.3219 0.0533531 26.9699C0.0240704 27.2533 0.0509268 27.5397 0.132387 27.8128C0.213848 28.0858 0.348316 28.3402 0.528108 28.5612C0.707899 28.7823 0.92949 28.9658 1.18022 29.1012C1.43094 29.2366 1.70589 29.3212 1.98935 29.3503C2.06133 29.3589 2.13376 29.363 2.20624 29.3628H22.1494Z" fill="url(#paint0_linear_853_6737)"/>
<path opacity="0.8" d="M12.3129 16.2505C11.0055 16.2524 9.72552 15.8758 8.62756 15.166L12.2756 24.6967L15.8987 15.23C14.8224 15.8989 13.5801 16.2524 12.3129 16.2505Z" fill="white"/>
<path d="M12.2631 16.2529C16.0226 16.2529 19.0702 13.2052 19.0702 9.44578C19.0702 5.68632 16.0226 2.63867 12.2631 2.63867C8.50364 2.63867 5.45599 5.68632 5.45599 9.44578C5.45599 13.2052 8.50364 16.2529 12.2631 16.2529Z" fill="url(#paint1_linear_853_6737)"/>
<defs>
<linearGradient id="paint0_linear_853_6737" x1="12.1778" y1="12.8472" x2="12.1778" y2="33.0001" gradientUnits="userSpaceOnUse">
<stop offset="0.225" stop-color="#32D4F5"/>
<stop offset="0.473" stop-color="#31D1F3"/>
<stop offset="0.888" stop-color="#22A5CB"/>
<stop offset="0.999" stop-color="#198AB3"/>
<stop offset="1" stop-color="#198AB3"/>
</linearGradient>
<linearGradient id="paint1_linear_853_6737" x1="11.6675" y1="2.04312" x2="13.1395" y2="20.3418" gradientUnits="userSpaceOnUse">
<stop offset="0.225" stop-color="#32D4F5"/>
<stop offset="0.473" stop-color="#31D1F3"/>
<stop offset="0.888" stop-color="#22A5CB"/>
<stop offset="0.999" stop-color="#198AB3"/>
<stop offset="1" stop-color="#198AB3"/>
</linearGradient>
</defs>
</svg>
