<svg width="32" height="32" viewBox="0 0 32 32" fill="none" xmlns="http://www.w3.org/2000/svg">
<g clip-path="url(#clip0_850_21877)">
<path d="M32 0H0V32H32V0Z" fill="#ED7100"/>
<path fill-rule="evenodd" clip-rule="evenodd" d="M8.2319 13.36L7.4991 13.04C8.8367 9.9776 11.8591 8 15.1999 8C18.5407 8 21.5631 9.9776 22.9007 13.04L22.1679 13.36C20.9575 10.5896 18.2223 8.8 15.1999 8.8C12.1775 8.8 9.4423 10.5896 8.2319 13.36ZM21.7831 20.1992L22.4759 20.6C20.9775 23.1904 18.1887 24.8 15.1999 24.8C12.2111 24.8 9.4223 23.1904 7.9239 20.6L8.6159 20.1992C9.9727 22.5432 12.4951 24 15.1999 24C17.9047 24 20.4271 22.5432 21.7831 20.1992ZM20.7999 18H18.3999V15.6H20.7999V16.4V17.2V18ZM12.7999 18H15.1999V15.6H12.7999V18ZM7.1999 18H9.5999V15.6H7.1999V18ZM25.7399 16.56L24.3199 14.66L23.6799 15.1392L24.6215 16.4H21.5999V15.2C21.5999 14.9784 21.4207 14.8 21.1999 14.8H17.9999C17.7791 14.8 17.5999 14.9784 17.5999 15.2V16.4H15.9999V15.2C15.9999 14.9784 15.8207 14.8 15.5999 14.8H12.3999C12.1791 14.8 11.9999 14.9784 11.9999 15.2V16.4H10.3999V15.2C10.3999 14.9784 10.2207 14.8 9.9999 14.8H6.7999C6.5791 14.8 6.3999 14.9784 6.3999 15.2V18.4C6.3999 18.6208 6.5791 18.8 6.7999 18.8H9.9999C10.2207 18.8 10.3999 18.6208 10.3999 18.4V17.2H11.9999V18.4C11.9999 18.6208 12.1791 18.8 12.3999 18.8H15.5999C15.8207 18.8 15.9999 18.6208 15.9999 18.4V17.2H17.5999V18.4C17.5999 18.6208 17.7791 18.8 17.9999 18.8H21.1999C21.4207 18.8 21.5999 18.6208 21.5999 18.4V17.2H24.6215L23.6799 18.46L24.3199 18.9392L25.7399 17.0392C25.8463 16.8968 25.8463 16.7024 25.7399 16.56Z" fill="white"/>
</g>
<defs>
<clipPath id="clip0_850_21877">
<rect width="32" height="32" fill="white"/>
</clipPath>
</defs>
</svg>
