<svg width="32" height="32" viewBox="0 0 32 32" fill="none" xmlns="http://www.w3.org/2000/svg">
<g clip-path="url(#clip0_850_21872)">
<path d="M32 0H0V32H32V0Z" fill="#ED7100"/>
<path fill-rule="evenodd" clip-rule="evenodd" d="M24.0001 16.5932H24.8001V15.8091H24.0001V16.5932ZM23.2001 17.3773H25.6001V15.025H23.2001V17.3773ZM17.6001 16.5932H18.4001V15.8091H17.6001V16.5932ZM16.8001 17.3773H19.2001V15.025H16.8001V17.3773ZM11.2001 16.5932H12.0001V15.8091H11.2001V16.5932ZM10.4001 17.3773H12.8001V15.025H10.4001V17.3773ZM26.4001 18.1614H22.4001V16.5932H20.0001V18.1614H16.0001V16.5932H13.6001V18.1614H9.6001V14.2409H13.6001V15.8091H16.0001V14.2409H20.0001V15.8091H22.4001V14.2409H26.4001V18.1614ZM26.5609 13.4568H22.2393C21.8865 13.4568 21.6001 13.7375 21.6001 14.0833V15.025H20.8001V14.0833C20.8001 13.7375 20.5137 13.4568 20.1609 13.4568H15.8393C15.4865 13.4568 15.2001 13.7375 15.2001 14.0833V15.025H14.4001V14.0833C14.4001 13.7375 14.1137 13.4568 13.7609 13.4568H9.4393C9.0865 13.4568 8.8001 13.7375 8.8001 14.0833V18.3182C8.8001 18.664 9.0865 18.9455 9.4393 18.9455H13.7609C14.1137 18.9455 14.4001 18.664 14.4001 18.3182V17.3773H15.2001V18.3182C15.2001 18.664 15.4865 18.9455 15.8393 18.9455H20.1609C20.5137 18.9455 20.8001 18.664 20.8001 18.3182V17.3773H21.6001V18.3182C21.6001 18.664 21.8865 18.9455 22.2393 18.9455H26.5609C26.9137 18.9455 27.2001 18.664 27.2001 18.3182V14.0833C27.2001 13.7375 26.9137 13.4568 26.5609 13.4568ZM12.4001 7.18411C15.8345 7.18411 18.4001 8.21911 18.4001 9.14434C18.4001 10.0696 15.8345 11.1046 12.4001 11.1046C8.9657 11.1046 6.4001 10.0696 6.4001 9.14434C6.4001 8.21911 8.9657 7.18411 12.4001 7.18411ZM18.4001 22.7632C18.4001 23.7339 15.9361 24.8159 12.4001 24.8159C8.8641 24.8159 6.4001 23.7339 6.4001 22.7632V19.6598C7.4545 20.5819 9.3545 21.3542 11.9217 21.3542C14.9953 21.3542 16.6049 20.6454 16.6721 20.6148L16.3385 19.902C16.3233 19.9091 14.8017 20.5701 11.9217 20.5701C9.0449 20.5701 6.9905 19.5084 6.4001 18.4405V15.0775C6.7257 15.3888 7.1577 15.6727 7.7697 15.8993L8.0521 15.1661C7.0505 14.7953 6.6649 14.2488 6.4001 13.7516V10.482C7.6209 11.4017 10.0593 11.8887 12.4001 11.8887C14.7409 11.8887 17.1793 11.4017 18.4001 10.482V12.6727H19.2001V8.75229H19.1345C18.6601 7.22253 15.4449 6.40002 12.4001 6.40002C9.3553 6.40002 6.1401 7.22253 5.6657 8.75229H5.6001V22.7632C5.6001 24.605 9.1041 25.6 12.4001 25.6C15.6961 25.6 19.2001 24.605 19.2001 22.7632V19.7295H18.4001V22.7632Z" fill="white"/>
</g>
<defs>
<clipPath id="clip0_850_21872">
<rect width="32" height="32" fill="white"/>
</clipPath>
</defs>
</svg>
