<svg width="32" height="32" viewBox="0 0 32 32" fill="none" xmlns="http://www.w3.org/2000/svg">
<g clip-path="url(#clip0_854_28685)">
<path d="M32 0H0V32H32V0Z" fill="#C925D1"/>
<path fill-rule="evenodd" clip-rule="evenodd" d="M12.5094 26.3997H14.9704V17.6132H12.5094V26.3997ZM8.04803 12.7983H10.7309C10.5841 14.3104 10.841 15.4761 11.1459 16.2642C9.91705 15.5482 8.29511 14.3328 8.04803 12.7983ZM13.271 11.1981H13.5842H13.9103H14.3124L14.7462 11.9982H12.803L13.271 11.1981ZM13.7473 9.60352L14.1493 9.99796L13.7473 10.3924L13.3452 9.99796L13.7473 9.60352ZM17.018 15.873C17.4445 15.1033 17.7691 14.0704 17.6647 12.7983H19.7009C19.4726 14.0456 18.2241 15.1121 17.018 15.873ZM14.155 12.7983H16.8484C17.0662 15.0937 15.6318 16.4779 15.233 16.8131H14.155V12.7983ZM12.3202 16.8131C12.0478 16.3882 11.3123 14.9977 11.5455 12.7983H13.3395V16.8131H12.3202ZM20.5531 12.3982C20.5531 12.1774 20.3704 11.9982 20.1453 11.9982H15.6701L14.9174 10.61C14.8905 10.5596 14.8465 10.5236 14.8016 10.49L14.8506 10.4412C14.9272 10.366 14.9704 10.2644 14.9704 10.158V9.83794C14.9704 9.73153 14.9272 9.62992 14.8506 9.55471L14.199 8.91465C14.1224 8.84024 14.0188 8.79783 13.9103 8.79783H13.5842C13.4757 8.79783 13.3721 8.84024 13.2955 8.91465L12.6431 9.55471C12.5673 9.62992 12.5241 9.73153 12.5241 9.83794V10.158C12.5241 10.2644 12.5673 10.366 12.6431 10.4412L12.7426 10.5388C12.723 10.5596 12.6969 10.5732 12.6815 10.5988L11.8619 11.9982H7.60768C7.3818 11.9982 7.19995 12.1774 7.19995 12.3982C7.19995 15.0177 10.3835 16.8299 11.6939 17.4652V26.7998C11.6939 27.0206 11.8766 27.1998 12.1017 27.1998H15.3782C15.6032 27.1998 15.7859 27.0206 15.7859 26.7998V17.4644C17.6688 16.5699 20.5531 14.8081 20.5531 12.3982ZM16.7049 9.09466L15.9734 9.4499C15.5543 8.62101 14.7079 8.10576 13.7644 8.10576C12.8217 8.10576 11.9753 8.62101 11.5553 9.4499L10.8247 9.09466C11.3832 7.99055 12.5094 7.30567 13.7644 7.30567C15.0194 7.30567 16.1455 7.99055 16.7049 9.09466ZM17.1167 8.88824C16.4774 7.63291 15.1931 6.85282 13.7644 6.85282C12.3324 6.85282 11.0473 7.63531 10.4104 8.89464L9.67975 8.53861C10.4561 7.00484 12.0217 6.05274 13.7644 6.05274C15.5037 6.05274 17.0678 7.00244 17.8457 8.5314L17.1167 8.88824ZM9.2655 8.33618L8.53567 7.98015C9.52971 6.01834 11.5333 4.7998 13.7644 4.7998C15.9889 4.7998 17.9901 6.01354 18.9866 7.96654L18.2567 8.32418C17.3989 6.644 15.6783 5.59989 13.7644 5.59989C11.8456 5.59989 10.1217 6.648 9.2655 8.33618ZM20.7879 18.5261C21.172 17.8604 21.5104 16.9915 21.4941 15.9986H23.9136C23.576 16.9723 22.0861 17.8732 20.7879 18.5261ZM17.4168 26.3997H19.0477V19.999H17.4168V26.3997ZM24.8 15.5986C24.8 15.3777 24.6173 15.1985 24.3922 15.1985H19.8632V15.9986H20.6574C20.6843 17.574 19.6226 18.8413 19.2826 19.1989H17.4168V17.5988H16.6014V26.7998C16.6014 27.0206 16.7832 27.1998 17.0091 27.1998H19.4554C19.6805 27.1998 19.8632 27.0206 19.8632 26.7998V19.8534C21.7281 19.0029 24.8 17.5884 24.8 15.5986Z" fill="white"/>
</g>
<defs>
<clipPath id="clip0_854_28685">
<rect width="32" height="32" fill="white"/>
</clipPath>
</defs>
</svg>
