<svg width="32" height="32" viewBox="0 0 32 32" fill="none" xmlns="http://www.w3.org/2000/svg">
<path d="M29.6534 0.871094H14.08C13.8143 0.871053 13.5593 0.975371 13.3697 1.16158C13.1802 1.34779 13.0714 1.60099 13.0667 1.86665V24.0533C13.8575 23.3918 14.7019 22.7972 15.5912 22.2755H18.5423L20.1778 24.4444V27.7333L18.1156 29.2267L15.2534 28.8711L13.0667 26.8089V29.8133C13.0714 30.079 13.1802 30.3322 13.3697 30.5184C13.5593 30.7046 13.8143 30.8089 14.08 30.8089H29.6534C29.9174 30.8089 30.1706 30.704 30.3573 30.5173C30.544 30.3306 30.6489 30.0774 30.6489 29.8133V1.86665C30.6489 1.60261 30.544 1.34939 30.3573 1.16269C30.1706 0.975982 29.9174 0.871094 29.6534 0.871094Z" fill="url(#paint0_linear_868_11296)"/>
<path d="M15.3956 3.98242H18.2578C18.3238 3.98242 18.3871 4.00864 18.4338 4.05532C18.4805 4.102 18.5067 4.1653 18.5067 4.23131V7.92909C18.5067 7.9951 18.4805 8.0584 18.4338 8.10508C18.3871 8.15175 18.3238 8.17798 18.2578 8.17798H15.3956C15.3629 8.17798 15.3306 8.17154 15.3004 8.15903C15.2702 8.14652 15.2427 8.12819 15.2196 8.10508C15.1965 8.08197 15.1782 8.05453 15.1657 8.02433C15.1532 7.99414 15.1467 7.96177 15.1467 7.92909V4.23131C15.1467 4.19863 15.1532 4.16626 15.1657 4.13607C15.1782 4.10587 15.1965 4.07843 15.2196 4.05532C15.2427 4.03221 15.2702 4.01388 15.3004 4.00137C15.3306 3.98886 15.3629 3.98242 15.3956 3.98242ZM20.4267 3.98242H23.2889C23.355 3.98242 23.4183 4.00864 23.4649 4.05532C23.5116 4.102 23.5378 4.1653 23.5378 4.23131V7.92909C23.5378 7.9951 23.5116 8.0584 23.4649 8.10508C23.4183 8.15175 23.355 8.17798 23.2889 8.17798H20.4267C20.3607 8.17798 20.2974 8.15175 20.2507 8.10508C20.2041 8.0584 20.1778 7.9951 20.1778 7.92909V4.23131C20.1778 4.1653 20.2041 4.102 20.2507 4.05532C20.2974 4.00864 20.3607 3.98242 20.4267 3.98242ZM25.4756 3.98242H28.3378C28.4038 3.98242 28.4671 4.00864 28.5138 4.05532C28.5605 4.102 28.5867 4.1653 28.5867 4.23131V7.92909C28.5867 7.9951 28.5605 8.0584 28.5138 8.10508C28.4671 8.15175 28.4038 8.17798 28.3378 8.17798H25.4756C25.4096 8.17798 25.3463 8.15175 25.2996 8.10508C25.2529 8.0584 25.2267 7.9951 25.2267 7.92909V4.23131C25.2267 4.1653 25.2529 4.102 25.2996 4.05532C25.3463 4.00864 25.4096 3.98242 25.4756 3.98242ZM15.3956 10.6669H18.2578C18.3238 10.6669 18.3871 10.6931 18.4338 10.7398C18.4805 10.7864 18.5067 10.8497 18.5067 10.9158V14.6491C18.5067 14.6818 18.5003 14.7141 18.4878 14.7443C18.4753 14.7745 18.4569 14.802 18.4338 14.8251C18.4107 14.8482 18.3833 14.8665 18.3531 14.879C18.3229 14.8915 18.2905 14.898 18.2578 14.898H15.3956C15.3629 14.898 15.3306 14.8915 15.3004 14.879C15.2702 14.8665 15.2427 14.8482 15.2196 14.8251C15.1965 14.802 15.1782 14.7745 15.1657 14.7443C15.1532 14.7141 15.1467 14.6818 15.1467 14.6491V10.9513C15.1416 10.9158 15.1442 10.8795 15.1544 10.8451C15.1646 10.8107 15.1821 10.7789 15.2057 10.7518C15.2294 10.7248 15.2586 10.7032 15.2914 10.6886C15.3241 10.6739 15.3597 10.6665 15.3956 10.6669ZM20.4267 10.6669H23.2889C23.355 10.6669 23.4183 10.6931 23.4649 10.7398C23.5116 10.7864 23.5378 10.8497 23.5378 10.9158V14.6491C23.5378 14.6818 23.5314 14.7141 23.5189 14.7443C23.5064 14.7745 23.488 14.802 23.4649 14.8251C23.4418 14.8482 23.4144 14.8665 23.3842 14.879C23.354 14.8915 23.3216 14.898 23.2889 14.898H20.4267C20.394 14.898 20.3617 14.8915 20.3315 14.879C20.3013 14.8665 20.2738 14.8482 20.2507 14.8251C20.2276 14.802 20.2093 14.7745 20.1968 14.7443C20.1843 14.7141 20.1778 14.6818 20.1778 14.6491V10.9513C20.1727 10.9158 20.1753 10.8795 20.1855 10.8451C20.1957 10.8107 20.2132 10.7789 20.2369 10.7518C20.2605 10.7248 20.2897 10.7032 20.3225 10.6886C20.3553 10.6739 20.3908 10.6665 20.4267 10.6669ZM25.4756 10.6669H28.3378C28.4038 10.6669 28.4671 10.6931 28.5138 10.7398C28.5605 10.7864 28.5867 10.8497 28.5867 10.9158V14.6491C28.5867 14.6818 28.5803 14.7141 28.5678 14.7443C28.5553 14.7745 28.5369 14.802 28.5138 14.8251C28.4907 14.8482 28.4633 14.8665 28.4331 14.879C28.4029 14.8915 28.3705 14.898 28.3378 14.898H25.4756C25.4429 14.898 25.4106 14.8915 25.3804 14.879C25.3502 14.8665 25.3227 14.8482 25.2996 14.8251C25.2765 14.802 25.2582 14.7745 25.2457 14.7443C25.2332 14.7141 25.2267 14.6818 25.2267 14.6491V10.9513C25.2216 10.9158 25.2242 10.8795 25.2344 10.8451C25.2446 10.8107 25.2621 10.7789 25.2857 10.7518C25.3094 10.7248 25.3386 10.7032 25.3714 10.6886C25.4041 10.6739 25.4397 10.6665 25.4756 10.6669ZM15.3956 17.4224H18.2578C18.3238 17.4224 18.3871 17.4486 18.4338 17.4953C18.4805 17.542 18.5067 17.6053 18.5067 17.6713V21.3335C18.5067 21.3995 18.4805 21.4628 18.4338 21.5095C18.3871 21.5562 18.3238 21.5824 18.2578 21.5824H15.3956C15.3629 21.5824 15.3306 21.576 15.3004 21.5635C15.2702 21.551 15.2427 21.5326 15.2196 21.5095C15.1965 21.4864 15.1782 21.459 15.1657 21.4288C15.1532 21.3986 15.1467 21.3662 15.1467 21.3335V17.6713C15.1467 17.6053 15.1729 17.542 15.2196 17.4953C15.2663 17.4486 15.3296 17.4224 15.3956 17.4224ZM20.4267 17.4224H23.2889C23.355 17.4224 23.4183 17.4486 23.4649 17.4953C23.5116 17.542 23.5378 17.6053 23.5378 17.6713V21.3335C23.5378 21.3995 23.5116 21.4628 23.4649 21.5095C23.4183 21.5562 23.355 21.5824 23.2889 21.5824H20.4267C20.3607 21.5824 20.2974 21.5562 20.2507 21.5095C20.2041 21.4628 20.1778 21.3995 20.1778 21.3335V17.6713C20.1778 17.6053 20.2041 17.542 20.2507 17.4953C20.2974 17.4486 20.3607 17.4224 20.4267 17.4224ZM20.4267 24.1424H23.2889C23.355 24.1424 23.4183 24.1686 23.4649 24.2153C23.5116 24.262 23.5378 24.3253 23.5378 24.3913V29.8669C23.5378 29.9329 23.5116 29.9962 23.4649 30.0429C23.4183 30.0895 23.355 30.1158 23.2889 30.1158H20.4267C20.3607 30.1158 20.2974 30.0895 20.2507 30.0429C20.2041 29.9962 20.1778 29.9329 20.1778 29.8669V24.3913C20.1778 24.3253 20.2041 24.262 20.2507 24.2153C20.2974 24.1686 20.3607 24.1424 20.4267 24.1424ZM25.4756 17.4224H28.3378C28.4038 17.4224 28.4671 17.4486 28.5138 17.4953C28.5605 17.542 28.5867 17.6053 28.5867 17.6713V21.3335C28.5867 21.3995 28.5605 21.4628 28.5138 21.5095C28.4671 21.5562 28.4038 21.5824 28.3378 21.5824H25.4756C25.4096 21.5824 25.3463 21.5562 25.2996 21.5095C25.2529 21.4628 25.2267 21.3995 25.2267 21.3335V17.6713C25.2267 17.6053 25.2529 17.542 25.2996 17.4953C25.3463 17.4486 25.4096 17.4224 25.4756 17.4224Z" fill="#F2F2F2"/>
<path d="M16.8889 23.1113C16.3763 23.1212 15.8816 23.3012 15.4825 23.623C15.0834 23.9448 14.8027 24.3902 14.6845 24.8891H6.68446C6.59233 25.2675 6.5446 25.6553 6.54224 26.0447V26.1513H14.6845C14.8212 26.5481 15.0641 26.8998 15.3869 27.1681C15.7097 27.4363 16.0998 27.6109 16.515 27.6727C16.9301 27.7345 17.3542 27.6812 17.7411 27.5186C18.128 27.3561 18.4629 27.0904 18.7093 26.7507C18.9557 26.4109 19.1041 26.01 19.1384 25.5918C19.1727 25.1735 19.0915 24.7538 18.9038 24.3784C18.716 24.0031 18.4289 23.6864 18.0736 23.463C17.7183 23.2396 17.3085 23.1179 16.8889 23.1113Z" fill="#50E6FF"/>
<path d="M23.1111 22.1507C23.0419 20.6163 22.3665 19.1721 21.2331 18.1354C20.0997 17.0987 18.6012 16.5543 17.0667 16.6218C15.8333 16.5968 14.6228 16.9566 13.6033 17.6511C12.5839 18.3457 11.806 19.3405 11.3778 20.4974C10.376 20.6322 9.42867 21.0332 8.63448 21.6585C7.84029 22.2839 7.2283 23.1107 6.86224 24.0529H14.2222C14.4621 23.5584 14.8309 23.1376 15.2897 22.835C15.7486 22.5323 16.2805 22.3589 16.8296 22.333C17.3786 22.3072 17.9245 22.4298 18.4098 22.688C18.895 22.9462 19.3017 23.3304 19.587 23.8002C19.8723 24.2701 20.0257 24.8081 20.0311 25.3577C20.0364 25.9074 19.8935 26.4483 19.6174 26.9236C19.3412 27.3989 18.9421 27.7909 18.4619 28.0585C17.9818 28.326 17.4384 28.4592 16.8889 28.444C16.3148 28.4312 15.7557 28.2579 15.275 27.9437C14.7942 27.6295 14.4111 27.187 14.1689 26.6663H6.66669C6.98101 27.9184 7.71189 29.0265 8.73926 29.8083C9.76662 30.5901 11.0294 30.9993 12.32 30.9685H22.1689H22.4178C23.5866 30.9589 24.7093 30.5119 25.5649 29.7156C26.4205 28.9192 26.9467 27.8313 27.04 26.6663C27.0271 25.5699 26.6249 24.5138 25.9052 23.6867C25.1855 22.8595 24.1952 22.3151 23.1111 22.1507Z" fill="url(#paint1_linear_868_11296)"/>
<path d="M16.8889 23.1116C16.3763 23.1214 15.8816 23.3014 15.4825 23.6233C15.0834 23.9451 14.8027 24.3905 14.6845 24.8893H6.68447C6.40294 24.8837 6.12283 24.8479 5.84891 24.7827C4.95361 24.5856 4.14949 24.0959 3.56356 23.3908C2.97763 22.6858 2.64329 21.8056 2.61336 20.8893C2.6244 19.8786 3.00464 18.9068 3.68246 18.1569C4.36027 17.4071 5.28887 16.931 6.29336 16.8182H6.68447L6.80891 16.4627C7.1262 15.5608 7.71943 14.7818 8.50444 14.2361C9.28945 13.6904 10.2264 13.4058 11.1822 13.4227C11.9956 13.4155 12.7968 13.6199 13.5074 14.0157C14.218 14.4115 14.8135 14.9852 15.2356 15.6805C15.6718 15.5726 16.1196 15.5189 16.5689 15.5205C16.0884 14.5136 15.3323 13.6635 14.3884 13.0689C13.4444 12.4742 12.3512 12.1592 11.2356 12.1605C10.0794 12.1283 8.93968 12.4407 7.9615 13.058C6.98331 13.6753 6.21082 14.5696 5.74225 15.6271C4.52066 15.8463 3.41376 16.4847 2.61223 17.4322C1.8107 18.3798 1.36472 19.5772 1.35114 20.8182C1.37524 21.9785 1.7771 23.0992 2.49577 24.0103C3.21443 24.9215 4.21067 25.5734 5.33336 25.8671C5.74892 26.0183 6.18904 26.0907 6.63113 26.0805H14.6845C14.8093 26.4855 15.044 26.848 15.3625 27.1278C15.6809 27.4075 16.0706 27.5936 16.4884 27.6652C16.9062 27.7368 17.3356 27.6913 17.7291 27.5336C18.1225 27.376 18.4646 27.1123 18.7173 26.772C18.97 26.4317 19.1234 26.028 19.1605 25.6058C19.1977 25.1836 19.1171 24.7593 18.9277 24.3801C18.7383 24.0009 18.4475 23.6816 18.0876 23.4577C17.7277 23.2338 17.3128 23.1139 16.8889 23.1116Z" fill="#50E6FF"/>
<defs>
<linearGradient id="paint0_linear_868_11296" x1="21.8667" y1="0.871094" x2="21.8667" y2="30.8089" gradientUnits="userSpaceOnUse">
<stop stop-color="#5EA0EF"/>
<stop offset="0.18" stop-color="#559CEC"/>
<stop offset="0.47" stop-color="#3C91E5"/>
<stop offset="0.84" stop-color="#1380DA"/>
<stop offset="1" stop-color="#0078D4"/>
</linearGradient>
<linearGradient id="paint1_linear_868_11296" x1="16.8534" y1="31.1285" x2="16.8534" y2="16.6218" gradientUnits="userSpaceOnUse">
<stop stop-color="#198AB3"/>
<stop offset="0.14" stop-color="#22A5CB"/>
<stop offset="0.3" stop-color="#29BADE"/>
<stop offset="0.47" stop-color="#2EC9EB"/>
<stop offset="0.68" stop-color="#31D1F3"/>
<stop offset="1" stop-color="#32D4F5"/>
</linearGradient>
</defs>
</svg>
