<svg width="32" height="32" viewBox="0 0 32 32" fill="none" xmlns="http://www.w3.org/2000/svg">
<g clip-path="url(#clip0_868_11307)">
<path d="M17.9556 16.853C19.3596 16.853 20.4978 15.7148 20.4978 14.3108C20.4978 12.9067 19.3596 11.7686 17.9556 11.7686C16.5515 11.7686 15.4133 12.9067 15.4133 14.3108C15.4133 15.7148 16.5515 16.853 17.9556 16.853Z" fill="white"/>
<path d="M22.2223 23.8758C23.3219 23.8758 24.2134 22.9843 24.2134 21.8847C24.2134 20.785 23.3219 19.8936 22.2223 19.8936C21.1226 19.8936 20.2311 20.785 20.2311 21.8847C20.2311 22.9843 21.1226 23.8758 22.2223 23.8758Z" fill="white"/>
<path d="M14.2934 22.2399C15.2457 22.2399 16.0178 21.4678 16.0178 20.5155C16.0178 19.5631 15.2457 18.791 14.2934 18.791C13.341 18.791 12.5689 19.5631 12.5689 20.5155C12.5689 21.4678 13.341 22.2399 14.2934 22.2399Z" fill="white"/>
<path d="M13.0667 9.56452C14.2449 9.56452 15.2 8.60939 15.2 7.43118C15.2 6.25298 14.2449 5.29785 13.0667 5.29785C11.8885 5.29785 10.9333 6.25298 10.9333 7.43118C10.9333 8.60939 11.8885 9.56452 13.0667 9.56452Z" fill="white"/>
<path d="M7.34224 16.9958C8.29463 16.9958 9.06669 16.2237 9.06669 15.2713C9.06669 14.3189 8.29463 13.5469 7.34224 13.5469C6.38986 13.5469 5.6178 14.3189 5.6178 15.2713C5.6178 16.2237 6.38986 16.9958 7.34224 16.9958Z" fill="white"/>
<path d="M22.6844 21.476L18.3822 13.956L17.9555 14.1871L18.3111 13.9382L13.44 7.00488L12.5511 7.64488L16.8711 13.7782L7.30664 14.5782L7.39553 15.6804L16.8711 14.8804L13.7244 20.1071L14.6666 20.676L17.9022 15.3071L21.7422 22.0093L22.7022 21.476H22.6844Z" fill="#989898"/>
<path d="M17.9378 16.8536C19.332 16.8536 20.4622 15.7233 20.4622 14.3291C20.4622 12.9349 19.332 11.8047 17.9378 11.8047C16.5436 11.8047 15.4133 12.9349 15.4133 14.3291C15.4133 15.7233 16.5436 16.8536 17.9378 16.8536Z" fill="#32BEDD"/>
<path d="M13.0667 9.56452C14.2449 9.56452 15.2 8.60939 15.2 7.43118C15.2 6.25298 14.2449 5.29785 13.0667 5.29785C11.8885 5.29785 10.9333 6.25298 10.9333 7.43118C10.9333 8.60939 11.8885 9.56452 13.0667 9.56452Z" fill="#32BEDD"/>
<path d="M7.34224 16.9958C8.29463 16.9958 9.06669 16.2237 9.06669 15.2713C9.06669 14.3189 8.29463 13.5469 7.34224 13.5469C6.38986 13.5469 5.6178 14.3189 5.6178 15.2713C5.6178 16.2237 6.38986 16.9958 7.34224 16.9958Z" fill="#32BEDD"/>
<path d="M14.2934 22.2399C15.2457 22.2399 16.0178 21.4678 16.0178 20.5155C16.0178 19.5631 15.2457 18.791 14.2934 18.791C13.341 18.791 12.5689 19.5631 12.5689 20.5155C12.5689 21.4678 13.341 22.2399 14.2934 22.2399Z" fill="#32BEDD"/>
<path d="M22.2223 23.8758C23.3219 23.8758 24.2134 22.9843 24.2134 21.8847C24.2134 20.785 23.3219 19.8936 22.2223 19.8936C21.1226 19.8936 20.2311 20.785 20.2311 21.8847C20.2311 22.9843 21.1226 23.8758 22.2223 23.8758Z" fill="#32BEDD"/>
<path d="M26.7556 9.3692C28.1498 9.3692 29.28 8.23897 29.28 6.84476C29.28 5.45054 28.1498 4.32031 26.7556 4.32031C25.3614 4.32031 24.2311 5.45054 24.2311 6.84476C24.2311 8.23897 25.3614 9.3692 26.7556 9.3692Z" fill="#198AB3"/>
<path d="M5.63553 9.3692C7.02974 9.3692 8.15997 8.23897 8.15997 6.84476C8.15997 5.45054 7.02974 4.32031 5.63553 4.32031C4.24132 4.32031 3.11108 5.45054 3.11108 6.84476C3.11108 8.23897 4.24132 9.3692 5.63553 9.3692Z" fill="#198AB3"/>
<path d="M16.0178 31.5557C17.412 31.5557 18.5422 30.4255 18.5422 29.0313C18.5422 27.6371 17.412 26.5068 16.0178 26.5068C14.6236 26.5068 13.4933 27.6371 13.4933 29.0313C13.4933 30.4255 14.6236 31.5557 16.0178 31.5557Z" fill="#198AB3"/>
<path d="M8.78222 5.54684C10.928 3.97544 13.5275 3.14618 16.1868 3.18467C18.8462 3.22317 21.4206 4.12733 23.52 5.76018C23.6609 5.31601 23.8913 4.90544 24.1971 4.55381C24.5029 4.20218 24.8775 3.91695 25.2978 3.71573C22.6747 1.61695 19.4225 0.460238 16.0632 0.431224C12.7039 0.402209 9.4323 1.50257 6.77333 3.55573C7.22983 3.72687 7.64489 3.9928 7.99115 4.336C8.33742 4.6792 8.60703 5.09188 8.78222 5.54684ZM29.5111 8.88907C29.2296 9.26733 28.8724 9.58283 28.4623 9.81545C28.0521 10.0481 27.598 10.1927 27.1289 10.2402C27.9253 11.9046 28.3326 13.7284 28.32 15.5735C28.3169 18.3079 27.4028 20.9633 25.7223 23.1203C24.0418 25.2772 21.6906 26.8129 19.04 27.4846C19.3177 27.9787 19.4646 28.5356 19.4667 29.1024C19.4633 29.4987 19.3849 29.8908 19.2355 30.258C21.4693 29.7721 23.5627 28.7829 25.3563 27.3657C27.1499 25.9485 28.5964 24.1407 29.5856 22.0799C30.5749 20.0191 31.0808 17.7597 31.0648 15.4738C31.0488 13.1879 30.5113 10.9358 29.4933 8.88907H29.5111ZM12.6222 29.0135C12.6276 28.455 12.7679 27.9061 13.0311 27.4135C11.2624 26.9728 9.61399 26.144 8.20538 24.9871C6.79677 23.8303 5.6633 22.3744 4.88717 20.7252C4.11104 19.0759 3.71172 17.2746 3.71816 15.4518C3.72461 13.6291 4.13666 11.8306 4.92444 10.1868C4.25349 10.0505 3.63617 9.72331 3.14666 9.24462C2.93433 9.03559 2.75455 8.79588 2.61333 8.53351C1.54024 10.5909 0.957158 12.8685 0.909597 15.1884C0.862036 17.5083 1.35128 19.8079 2.33915 21.9075C3.32701 24.0072 4.78676 25.8501 6.60445 27.2924C8.42213 28.7348 10.5486 29.7375 12.8178 30.2224C12.6744 29.8356 12.6021 29.426 12.6044 29.0135H12.6222Z" fill="url(#paint0_linear_868_11307)"/>
</g>
<defs>
<linearGradient id="paint0_linear_868_11307" x1="15.9858" y1="30.178" x2="15.9858" y2="0.4304" gradientUnits="userSpaceOnUse">
<stop stop-color="#B3B2B3"/>
<stop offset="0.31" stop-color="#9E9E9E"/>
<stop offset="0.54" stop-color="#949494"/>
</linearGradient>
<clipPath id="clip0_868_11307">
<rect width="32" height="32" fill="white"/>
</clipPath>
</defs>
</svg>
