<svg width="32" height="32" viewBox="0 0 32 32" fill="none" xmlns="http://www.w3.org/2000/svg">
<g clip-path="url(#clip0_868_11302)">
<path d="M25.6498 5.95533L16.4142 0.621998C15.7055 0.213228 14.9017 -0.00195313 14.0835 -0.00195312C13.2654 -0.00195313 12.4616 0.213228 11.7529 0.621998L2.51731 5.95533C1.80899 6.3649 1.2208 6.95351 0.811734 7.66213C0.402666 8.37074 0.187098 9.17445 0.186646 9.99266V20.6593C0.186786 21.4778 0.402207 22.2819 0.81129 22.9909C1.22037 23.6998 1.80873 24.2887 2.51731 24.6984L11.7618 30.0318C12.4705 30.4405 13.2743 30.6557 14.0924 30.6557C14.9106 30.6557 15.7144 30.4405 16.4231 30.0318L25.6675 24.6984C26.3761 24.2887 26.9645 23.6998 27.3736 22.9909C27.7826 22.2819 27.9981 21.4778 27.9982 20.6593V9.99266C27.9959 9.17271 27.7777 8.36782 27.3654 7.65905C26.9531 6.95028 26.3614 6.36265 25.6498 5.95533Z" fill="url(#paint0_linear_868_11302)"/>
<path d="M29.9413 13.7653L23.4471 10.0159C22.8775 9.68752 22.2316 9.51465 21.5742 9.51465C20.9167 9.51465 20.2709 9.68752 19.7013 10.0159L13.2089 13.7653C12.6389 14.0931 12.1657 14.5656 11.837 15.135C11.5082 15.7044 11.3357 16.3505 11.3369 17.0079V24.5066C11.3368 25.1639 11.5098 25.8095 11.8384 26.3788C12.167 26.948 12.6397 27.4206 13.2089 27.7493L19.7013 31.4986C20.2709 31.827 20.9167 31.9999 21.5742 31.9999C22.2316 31.9999 22.8775 31.827 23.4471 31.4986L29.9413 27.7493C30.5119 27.4215 30.9862 26.9492 31.3163 26.38C31.6465 25.8108 31.821 25.1647 31.8222 24.5066V17.0079C31.8212 16.3498 31.6468 15.7036 31.3166 15.1344C30.9864 14.5651 30.512 14.0929 29.9413 13.7653Z" fill="url(#paint1_linear_868_11302)"/>
<path d="M13.472 5.26709L15.3422 4.23242L23.36 20.8493L22.7093 21.5604H5.03998L5.23909 19.4324H20.1386L13.472 5.26709Z" fill="url(#paint2_linear_868_11302)"/>
<path d="M4.85691 23.262C6.32967 23.262 7.52358 22.0681 7.52358 20.5954C7.52358 19.1226 6.32967 17.9287 4.85691 17.9287C3.38415 17.9287 2.19025 19.1226 2.19025 20.5954C2.19025 22.0681 3.38415 23.262 4.85691 23.262Z" fill="white"/>
<path d="M21.5751 24.9241C23.8766 24.9241 25.7422 23.0584 25.7422 20.757C25.7422 18.4555 23.8766 16.5898 21.5751 16.5898C19.2737 16.5898 17.408 18.4555 17.408 20.757C17.408 23.0584 19.2737 24.9241 21.5751 24.9241Z" fill="white"/>
<path d="M14.2951 7.21419C15.7678 7.21419 16.9618 6.02029 16.9618 4.54753C16.9618 3.07477 15.7678 1.88086 14.2951 1.88086C12.8223 1.88086 11.6284 3.07477 11.6284 4.54753C11.6284 6.02029 12.8223 7.21419 14.2951 7.21419Z" fill="white"/>
</g>
<defs>
<linearGradient id="paint0_linear_868_11302" x1="16.464" y1="-0.647336" x2="11.0542" y2="35.6478" gradientUnits="userSpaceOnUse">
<stop stop-color="#32BEDD"/>
<stop offset="1" stop-color="#198AB3"/>
</linearGradient>
<linearGradient id="paint1_linear_868_11302" x1="19.1964" y1="13.1342" x2="25.6729" y2="33.895" gradientUnits="userSpaceOnUse">
<stop stop-color="#50E6FF"/>
<stop offset="0.997" stop-color="#32BEDD"/>
</linearGradient>
<linearGradient id="paint2_linear_868_11302" x1="-0.298688" y1="7.31331" x2="22.3502" y2="19.3684" gradientUnits="userSpaceOnUse">
<stop stop-color="white"/>
<stop offset="1" stop-color="#9CEBFF"/>
</linearGradient>
<clipPath id="clip0_868_11302">
<rect width="32" height="32" fill="white"/>
</clipPath>
</defs>
</svg>
