<svg width="32" height="32" viewBox="0 0 32 32" fill="none" xmlns="http://www.w3.org/2000/svg">
<path d="M19.2534 14.969C19.2583 15.0887 19.2166 15.2056 19.137 15.2952C19.0574 15.3847 18.9461 15.4398 18.8267 15.449H15.1111C14.9914 15.4539 14.8745 15.4122 14.7849 15.3326C14.6954 15.253 14.6402 15.1417 14.6311 15.0223V12.249C14.6262 12.1292 14.6679 12.0123 14.7475 11.9227C14.8271 11.8332 14.9383 11.7781 15.0578 11.769H18.7734C18.8931 11.764 19.01 11.8057 19.0996 11.8853C19.1891 11.9649 19.2442 12.0762 19.2534 12.1956V14.969Z" fill="#76BC2D"/>
<path d="M25.8489 17.7783C25.8539 17.898 25.8122 18.015 25.7326 18.1045C25.653 18.1941 25.5417 18.2492 25.4223 18.2583H21.7067C21.587 18.2633 21.4701 18.2216 21.3805 18.142C21.291 18.0624 21.2358 17.9511 21.2267 17.8317V15.0761C21.2218 14.9564 21.2635 14.8394 21.3431 14.7499C21.4227 14.6604 21.5339 14.6052 21.6534 14.5961H25.3689C25.4886 14.5911 25.6056 14.6329 25.6951 14.7125C25.7847 14.7921 25.8398 14.9033 25.8489 15.0228V17.7783Z" fill="#76BC2D"/>
<path d="M19.2534 20.6223C19.2583 20.742 19.2166 20.8589 19.137 20.9485C19.0574 21.038 18.9461 21.0932 18.8267 21.1023H15.1111C14.9914 21.1072 14.8745 21.0655 14.7849 20.9859C14.6954 20.9063 14.6402 20.7951 14.6311 20.6756V17.9023C14.6262 17.7826 14.6679 17.6656 14.7475 17.5761C14.8271 17.4865 14.9383 17.4314 15.0578 17.4223H18.7734C18.8931 17.4173 19.01 17.459 19.0996 17.5386C19.1891 17.6182 19.2442 17.7295 19.2534 17.8489V20.6223Z" fill="#76BC2D"/>
<path d="M12.6578 12.1598C12.6628 12.2748 12.6229 12.3872 12.5467 12.4734C12.4704 12.5596 12.3637 12.6129 12.2489 12.622H8.42672C8.30981 12.6273 8.19526 12.588 8.10617 12.5121C8.01709 12.4362 7.9601 12.3294 7.94672 12.2131V9.33312C7.95076 9.21954 7.9965 9.11143 8.07521 9.02944C8.15391 8.94746 8.26006 8.89734 8.37338 8.88867H12.0889C12.4801 8.88867 12.6578 9.08423 12.6578 9.36867V12.1598Z" fill="#86D633"/>
<path d="M12.6578 17.7779C12.6627 17.8363 12.6559 17.8951 12.638 17.9509C12.62 18.0067 12.5912 18.0584 12.5532 18.103C12.5152 18.1476 12.4688 18.1843 12.4166 18.2109C12.3643 18.2375 12.3074 18.2535 12.2489 18.2579H8.42671C8.363 18.2604 8.29947 18.2497 8.2401 18.2265C8.18073 18.2033 8.12681 18.168 8.08173 18.1229C8.03665 18.0778 8.00138 18.0239 7.97815 17.9646C7.95491 17.9052 7.9442 17.8417 7.94671 17.7779V14.9691C7.94636 14.8524 7.99015 14.7399 8.06928 14.6542C8.14842 14.5684 8.25705 14.5158 8.37337 14.5068H12.0889C12.48 14.5068 12.6578 14.7024 12.6578 14.9691V17.7779Z" fill="#76BC2D"/>
<path d="M12.6578 23.449C12.6627 23.5074 12.656 23.5662 12.638 23.622C12.6201 23.6778 12.5913 23.7295 12.5532 23.7741C12.5152 23.8187 12.4688 23.8554 12.4166 23.882C12.3643 23.9086 12.3074 23.9246 12.2489 23.929H8.42672C8.30702 23.934 8.19006 23.8923 8.10052 23.8127C8.01097 23.7331 7.95583 23.6218 7.94672 23.5024V20.6224C7.94434 20.564 7.95349 20.5057 7.97365 20.4509C7.99381 20.3961 8.02459 20.3457 8.06422 20.3028C8.10384 20.2599 8.15155 20.2252 8.2046 20.2007C8.25765 20.1762 8.31501 20.1624 8.37339 20.1602H12.0889C12.4801 20.1602 12.6578 20.3379 12.6578 20.6224V23.449Z" fill="#76BC2D"/>
<path d="M1.90225 2.68457H4.19558V9.08457C4.19558 9.22131 4.14127 9.35244 4.04458 9.44912C3.9479 9.54581 3.81676 9.60013 3.68003 9.60013H1.40447C1.26774 9.60013 1.1366 9.54581 1.03992 9.44912C0.943234 9.35244 0.888917 9.22131 0.888917 9.08457V3.75124C0.88167 3.61375 0.902518 3.47622 0.950188 3.34705C0.997859 3.21789 1.07135 3.09979 1.16618 2.99997C1.26101 2.90015 1.37518 2.8207 1.50174 2.76648C1.62829 2.71225 1.76457 2.68438 1.90225 2.68457Z" fill="#999999"/>
<path opacity="0.5" d="M1.90225 2.68457H4.19558V9.08457C4.19558 9.22131 4.14127 9.35244 4.04458 9.44912C3.9479 9.54581 3.81676 9.60013 3.68003 9.60013H1.40447C1.26774 9.60013 1.1366 9.54581 1.03992 9.44912C0.943234 9.35244 0.888917 9.22131 0.888917 9.08457V3.75124C0.88167 3.61375 0.902518 3.47622 0.950188 3.34705C0.997859 3.21789 1.07135 3.09979 1.16618 2.99997C1.26101 2.90015 1.37518 2.8207 1.50174 2.76648C1.62829 2.71225 1.76457 2.68438 1.90225 2.68457Z" fill="#999999"/>
<path d="M27.8045 2.68457H30.0978C30.3665 2.68457 30.6243 2.79133 30.8143 2.98137C31.0044 3.17141 31.1111 3.42915 31.1111 3.6979V9.03124C31.1111 9.16797 31.0568 9.2991 30.9601 9.39579C30.8634 9.49248 30.7323 9.54679 30.5956 9.54679H28.3022C28.1655 9.54679 28.0344 9.49248 27.9377 9.39579C27.841 9.2991 27.7867 9.16797 27.7867 9.03124V2.68457H27.8045Z" fill="#999999"/>
<path opacity="0.5" d="M27.8045 2.68457H30.0978C30.3665 2.68457 30.6243 2.79133 30.8143 2.98137C31.0044 3.17141 31.1111 3.42915 31.1111 3.6979V9.03124C31.1111 9.16797 31.0568 9.2991 30.9601 9.39579C30.8634 9.49248 30.7323 9.54679 30.5956 9.54679H28.3022C28.1655 9.54679 28.0344 9.49248 27.9377 9.39579C27.841 9.2991 27.7867 9.16797 27.7867 9.03124V2.68457H27.8045Z" fill="#999999"/>
<path d="M31.1111 3.6979V5.92013L0.888924 5.92013V3.6979C0.888924 3.42915 0.995686 3.17141 1.18572 2.98137C1.37576 2.79133 1.6335 2.68457 1.90226 2.68457L30.1156 2.68457C30.3812 2.68923 30.6345 2.79805 30.8207 2.98758C31.0069 3.17712 31.1112 3.4322 31.1111 3.6979Z" fill="#949494"/>
<path d="M1.40447 22.6846H3.6978C3.83454 22.6846 3.96567 22.7389 4.06236 22.8356C4.15904 22.9323 4.21336 23.0634 4.21336 23.2002V29.6002H1.90225C1.6335 29.6002 1.37575 29.4934 1.18571 29.3034C0.995678 29.1133 0.888916 28.8556 0.888916 28.5868V23.1113C0.91005 22.9905 0.973567 22.8811 1.06806 22.8029C1.16255 22.7247 1.28183 22.6828 1.40447 22.6846Z" fill="#999999"/>
<path opacity="0.5" d="M1.40447 22.6846H3.6978C3.83454 22.6846 3.96567 22.7389 4.06236 22.8356C4.15904 22.9323 4.21336 23.0634 4.21336 23.2002V29.6002H1.90225C1.6335 29.6002 1.37575 29.4934 1.18571 29.3034C0.995678 29.1133 0.888916 28.8556 0.888916 28.5868V23.1113C0.91005 22.9905 0.973567 22.8811 1.06806 22.8029C1.16255 22.7247 1.28183 22.6828 1.40447 22.6846Z" fill="#999999"/>
<path d="M28.3022 22.6846H30.5956C30.7323 22.6846 30.8634 22.7389 30.9601 22.8356C31.0568 22.9323 31.1111 23.0634 31.1111 23.2001V28.5335C31.1111 28.8022 31.0043 29.06 30.8143 29.25C30.6243 29.44 30.3665 29.5468 30.0978 29.5468H27.8044V23.1112C27.825 22.9934 27.886 22.8864 27.9768 22.8086C28.0676 22.7308 28.1826 22.6869 28.3022 22.6846Z" fill="#999999"/>
<path opacity="0.5" d="M28.3022 22.6846H30.5956C30.7323 22.6846 30.8634 22.7389 30.9601 22.8356C31.0568 22.9323 31.1111 23.0634 31.1111 23.2001V28.5335C31.1111 28.8022 31.0043 29.06 30.8143 29.25C30.6243 29.44 30.3665 29.5468 30.0978 29.5468H27.8044V23.1112C27.825 22.9934 27.886 22.8864 27.9768 22.8086C28.0676 22.7308 28.1826 22.6869 28.3022 22.6846Z" fill="#999999"/>
<path d="M0.888916 28.5873L0.888916 26.365H31.1111V28.5873C31.1111 28.856 31.0044 29.1138 30.8143 29.3038C30.6243 29.4938 30.3666 29.6006 30.0978 29.6006L1.90225 29.6006C1.6335 29.6006 1.37575 29.4938 1.18571 29.3038C0.995678 29.1138 0.888916 28.856 0.888916 28.5873Z" fill="#949494"/>
</svg>
