<svg width="32" height="32" viewBox="0 0 32 32" fill="none" xmlns="http://www.w3.org/2000/svg">
<path d="M16.32 14.6483H17.4756V17.8661C17.4756 17.9321 17.4493 17.9954 17.4027 18.042C17.356 18.0887 17.2927 18.1149 17.2267 18.1149H16C15.934 18.1149 15.8707 18.0887 15.824 18.042C15.7773 17.9954 15.7511 17.9321 15.7511 17.8661V15.1638C15.7507 15.0914 15.7656 15.0197 15.7948 14.9534C15.824 14.8871 15.8668 14.8277 15.9204 14.779C15.9741 14.7304 16.0374 14.6936 16.1063 14.6711C16.1751 14.6486 16.2479 14.6408 16.32 14.6483Z" fill="#B3B3B3"/>
<path opacity="0.5" d="M16.32 14.6483H17.4756V17.8661C17.4756 17.9321 17.4493 17.9954 17.4027 18.042C17.356 18.0887 17.2927 18.1149 17.2267 18.1149H16C15.934 18.1149 15.8707 18.0887 15.824 18.042C15.7773 17.9954 15.7511 17.9321 15.7511 17.8661V15.1638C15.7507 15.0914 15.7656 15.0197 15.7948 14.9534C15.824 14.8871 15.8668 14.8277 15.9204 14.779C15.9741 14.7304 16.0374 14.6936 16.1063 14.6711C16.1751 14.6486 16.2479 14.6408 16.32 14.6483Z" fill="#B3B3B3"/>
<path d="M29.44 14.6484H30.5956C30.7323 14.6484 30.8634 14.7028 30.9601 14.7994C31.0568 14.8961 31.1111 15.0273 31.1111 15.164V17.884C31.1111 17.9167 31.1047 17.949 31.0922 17.9792C31.0797 18.0094 31.0613 18.0369 31.0382 18.06C31.0151 18.0831 30.9877 18.1014 30.9575 18.1139C30.9273 18.1264 30.8949 18.1329 30.8622 18.1329H29.6889C29.6229 18.1329 29.5596 18.1067 29.5129 18.06C29.4662 18.0133 29.44 17.95 29.44 17.884V14.6484Z" fill="#B3B3B3"/>
<path opacity="0.5" d="M29.44 14.6484H30.5956C30.7323 14.6484 30.8634 14.7028 30.9601 14.7994C31.0568 14.8961 31.1111 15.0273 31.1111 15.164V17.884C31.1111 17.9167 31.1047 17.949 31.0922 17.9792C31.0797 18.0094 31.0613 18.0369 31.0382 18.06C31.0151 18.0831 30.9877 18.1014 30.9575 18.1139C30.9273 18.1264 30.8949 18.1329 30.8622 18.1329H29.6889C29.6229 18.1329 29.5596 18.1067 29.5129 18.06C29.4662 18.0133 29.44 17.95 29.44 17.884V14.6484Z" fill="#B3B3B3"/>
<path d="M31.1111 15.1105V16.2305H15.8222V15.1105C15.8222 14.9738 15.8765 14.8427 15.9732 14.746C16.0699 14.6493 16.201 14.595 16.3377 14.595L30.56 14.595C30.6306 14.5901 30.7015 14.5998 30.7682 14.6235C30.8349 14.6472 30.896 14.6844 30.9477 14.7328C30.9994 14.7812 31.0406 14.8397 31.0687 14.9047C31.0968 14.9697 31.1113 15.0397 31.1111 15.1105Z" fill="#B3B3B3"/>
<path d="M16 24.8887H17.1556C17.2216 24.8887 17.2849 24.9149 17.3315 24.9616C17.3782 25.0082 17.4044 25.0716 17.4044 25.1376V28.3553H16.32C16.1833 28.3553 16.0521 28.301 15.9554 28.2043C15.8588 28.1076 15.8044 27.9765 15.8044 27.8398V25.0842C15.814 25.0359 15.8377 24.9916 15.8726 24.9568C15.9074 24.922 15.9517 24.8983 16 24.8887Z" fill="#B3B3B3"/>
<path opacity="0.5" d="M16 24.8887H17.1556C17.2216 24.8887 17.2849 24.9149 17.3315 24.9616C17.3782 25.0082 17.4044 25.0716 17.4044 25.1376V28.3553H16.32C16.1833 28.3553 16.0521 28.301 15.9554 28.2043C15.8588 28.1076 15.8044 27.9765 15.8044 27.8398V25.0842C15.814 25.0359 15.8377 24.9916 15.8726 24.9568C15.9074 24.922 15.9517 24.8983 16 24.8887Z" fill="#B3B3B3"/>
<path d="M29.6889 24.8888H30.8445C30.9105 24.8888 30.9738 24.915 31.0205 24.9617C31.0671 25.0084 31.0934 25.0717 31.0934 25.1377V27.8577C31.0934 27.9944 31.039 28.1255 30.9424 28.2222C30.8457 28.3189 30.7145 28.3732 30.5778 28.3732H29.4222V25.0843C29.435 25.0248 29.4693 24.9719 29.5184 24.9359C29.5676 24.8998 29.6282 24.8831 29.6889 24.8888Z" fill="#B3B3B3"/>
<path opacity="0.5" d="M29.6889 24.8888H30.8445C30.9105 24.8888 30.9738 24.915 31.0205 24.9617C31.0671 25.0084 31.0934 25.0717 31.0934 25.1377V27.8577C31.0934 27.9944 31.039 28.1255 30.9424 28.2222C30.8457 28.3189 30.7145 28.3732 30.5778 28.3732H29.4222V25.0843C29.435 25.0248 29.4693 24.9719 29.5184 24.9359C29.5676 24.8998 29.6282 24.8831 29.6889 24.8888Z" fill="#B3B3B3"/>
<path d="M15.8222 27.8577V26.7377H31.1289V27.8577C31.1289 27.9944 31.0746 28.1255 30.9779 28.2222C30.8812 28.3189 30.7501 28.3732 30.6133 28.3732H16.3911C16.3191 28.3807 16.2462 28.3729 16.1774 28.3504C16.1085 28.3279 16.0452 28.2911 15.9916 28.2424C15.9379 28.1938 15.8951 28.1344 15.8659 28.0681C15.8367 28.0018 15.8218 27.9301 15.8222 27.8577Z" fill="#B3B3B3"/>
<path d="M25.0489 20.8707C25.0496 20.9263 25.0301 20.9802 24.9942 21.0227C24.9583 21.0651 24.9083 21.0932 24.8533 21.1018H23.1111C23.0816 21.1042 23.052 21.1005 23.024 21.0909C22.996 21.0813 22.9704 21.066 22.9486 21.0459C22.9269 21.0259 22.9096 21.0015 22.8978 20.9744C22.886 20.9473 22.8799 20.918 22.88 20.8884V19.5551C22.8827 19.5004 22.9033 19.4482 22.9386 19.4064C22.974 19.3646 23.0221 19.3356 23.0756 19.324H24.8533C24.8828 19.3215 24.9125 19.3252 24.9404 19.3348C24.9684 19.3444 24.9941 19.3598 25.0158 19.3798C25.0376 19.3999 25.0549 19.4242 25.0667 19.4514C25.0785 19.4785 25.0846 19.5077 25.0845 19.5373L25.0489 20.8707Z" fill="#76BC2D"/>
<path d="M28.2311 22.2224C28.2318 22.278 28.2124 22.332 28.1765 22.3744C28.1405 22.4169 28.0905 22.4449 28.0356 22.4535H26.2578C26.2283 22.456 26.1987 22.4523 26.1707 22.4427C26.1427 22.433 26.1171 22.4177 26.0953 22.3977C26.0736 22.3776 26.0563 22.3532 26.0444 22.3261C26.0326 22.299 26.0266 22.2697 26.0267 22.2402V20.9246C26.0242 20.8975 26.0274 20.8701 26.0361 20.8443C26.0449 20.8185 26.0589 20.7948 26.0773 20.7747C26.0957 20.7546 26.1181 20.7386 26.1431 20.7277C26.168 20.7167 26.195 20.7112 26.2222 20.7113H28C28.0285 20.706 28.0578 20.7071 28.0858 20.7146C28.1138 20.722 28.1398 20.7356 28.1619 20.7543C28.184 20.773 28.2017 20.7964 28.2137 20.8228C28.2257 20.8492 28.2316 20.8779 28.2311 20.9068V22.2224Z" fill="#5E9624"/>
<path d="M25.0489 23.5732C25.0513 23.6012 25.0482 23.6294 25.0397 23.6563C25.0311 23.6831 25.0174 23.7079 24.9992 23.7294C24.981 23.7509 24.9588 23.7686 24.9337 23.7814C24.9087 23.7943 24.8814 23.802 24.8533 23.8043H23.1111C23.0831 23.8067 23.0548 23.8036 23.028 23.7951C23.0012 23.7865 22.9763 23.7728 22.9548 23.7546C22.9334 23.7364 22.9157 23.7142 22.9028 23.6891C22.89 23.6641 22.8822 23.6368 22.88 23.6087V22.2754C22.8773 22.2444 22.8814 22.2131 22.892 22.1838C22.9027 22.1546 22.9196 22.128 22.9417 22.106C22.9637 22.0839 22.9903 22.067 23.0195 22.0563C23.0488 22.0457 23.0801 22.0416 23.1111 22.0443H24.8889C24.9174 22.039 24.9467 22.0401 24.9747 22.0476C25.0027 22.055 25.0287 22.0686 25.0508 22.0873C25.0729 22.106 25.0906 22.1294 25.1025 22.1558C25.1145 22.1822 25.1205 22.2109 25.12 22.2398V23.5732H25.0489Z" fill="#5E9624"/>
<path d="M21.8667 19.5549C21.8691 19.582 21.8659 19.6094 21.8572 19.6352C21.8485 19.661 21.8345 19.6847 21.8161 19.7048C21.7977 19.7249 21.7753 19.7409 21.7503 19.7518C21.7253 19.7627 21.6984 19.7683 21.6711 19.7682H19.8933C19.8793 19.7904 19.8611 19.8096 19.8397 19.8247C19.8182 19.8399 19.794 19.8506 19.7684 19.8564C19.7429 19.8622 19.7164 19.8629 19.6905 19.8584C19.6647 19.8539 19.64 19.8444 19.6178 19.8304C19.5956 19.8164 19.5764 19.7982 19.5613 19.7768C19.5461 19.7553 19.5354 19.7311 19.5296 19.7055C19.5238 19.68 19.5231 19.6535 19.5276 19.6276C19.532 19.6018 19.5415 19.5771 19.5556 19.5549V18.186C19.5531 18.1589 19.5563 18.1315 19.565 18.1057C19.5737 18.0799 19.5877 18.0562 19.6061 18.0361C19.6246 18.016 19.647 18 19.6719 17.989C19.6969 17.9781 19.7239 17.9725 19.7511 17.9727H21.5289C21.7067 17.9727 21.7956 18.0615 21.7956 18.186L21.8667 19.5549Z" fill="#86D633"/>
<path d="M21.8667 22.2217C21.8691 22.2497 21.866 22.2779 21.8574 22.3048C21.8489 22.3316 21.8352 22.3564 21.817 22.3779C21.7988 22.3994 21.7766 22.4171 21.7515 22.4299C21.7265 22.4428 21.6992 22.4505 21.6711 22.4528H19.8933C19.8368 22.4528 19.7825 22.4303 19.7425 22.3903C19.7025 22.3503 19.68 22.296 19.68 22.2394V20.8883C19.6776 20.8603 19.6807 20.8321 19.6892 20.8052C19.6978 20.7784 19.7115 20.7536 19.7297 20.7321C19.7479 20.7106 19.7701 20.6929 19.7951 20.6801C19.8202 20.6672 19.8475 20.6595 19.8756 20.6572H21.6533C21.8311 20.6572 21.92 20.7461 21.92 20.8883L21.8667 22.2217Z" fill="#76BC2D"/>
<path d="M21.8667 24.8881C21.8719 24.9166 21.8708 24.9459 21.8634 24.9739C21.8559 25.0019 21.8424 25.0279 21.8237 25.05C21.805 25.0721 21.7816 25.0898 21.7552 25.1018C21.7288 25.1137 21.7001 25.1197 21.6711 25.1192H19.8933C19.8577 25.1483 19.8135 25.1651 19.7675 25.1671C19.7215 25.169 19.676 25.156 19.638 25.13C19.6 25.104 19.5714 25.0664 19.5566 25.0228C19.5417 24.9792 19.5414 24.9319 19.5556 24.8881V23.5014C19.5531 23.4734 19.5563 23.4452 19.5648 23.4184C19.5733 23.3915 19.5871 23.3667 19.6052 23.3452C19.6234 23.3237 19.6457 23.306 19.6707 23.2932C19.6957 23.2803 19.7231 23.2726 19.7511 23.2703H21.5289C21.5621 23.2652 21.596 23.2673 21.6283 23.2766C21.6606 23.2858 21.6904 23.302 21.7158 23.324C21.7412 23.346 21.7615 23.3733 21.7753 23.4039C21.789 23.4346 21.796 23.4679 21.7956 23.5014L21.8667 24.8881Z" fill="#5E9624"/>
<path d="M23.6622 10.3112C23.6626 10.2411 23.6482 10.1717 23.6199 10.1075C23.5916 10.0434 23.5501 9.98592 23.4981 9.93892C23.4461 9.89193 23.3847 9.85646 23.318 9.83483C23.2513 9.8132 23.1808 9.8059 23.1111 9.81341H8.88888C8.82203 9.81102 8.75538 9.82213 8.69292 9.84608C8.63046 9.87002 8.57347 9.90631 8.52535 9.95277C8.47722 9.99923 8.43896 10.0549 8.41284 10.1165C8.38672 10.1781 8.37328 10.2443 8.37332 10.3112V13.0312C8.37784 13.0988 8.40791 13.1621 8.45744 13.2084C8.50697 13.2546 8.57224 13.2802 8.63999 13.2801H9.77777C9.84378 13.2801 9.90708 13.2539 9.95376 13.2072C10.0004 13.1605 10.0267 13.0972 10.0267 13.0312V11.4312H21.9733V13.0312C21.9778 13.0988 22.0079 13.1621 22.0574 13.2084C22.107 13.2546 22.1722 13.2802 22.24 13.2801H23.3955C23.4633 13.2802 23.5286 13.2546 23.5781 13.2084C23.6276 13.1621 23.6577 13.0988 23.6622 13.0312V10.3112Z" fill="#949494"/>
<path d="M10.0267 20.1249C10.0267 20.0589 10.0004 19.9956 9.95376 19.9489C9.90708 19.9022 9.84378 19.876 9.77777 19.876H8.62221C8.55446 19.8758 8.4892 19.9015 8.43967 19.9477C8.39014 19.9939 8.36006 20.0573 8.35555 20.1249V22.8449C8.34025 22.9602 8.37077 23.0769 8.44058 23.17C8.51038 23.2631 8.61388 23.325 8.72888 23.3426H14.9155V21.7249H10.0267V20.1249Z" fill="#949494"/>
<path d="M16.1956 4.19524C16.1956 4.05851 16.1412 3.92738 16.0446 3.83069C15.9479 3.734 15.8167 3.67969 15.68 3.67969H1.45779C1.32105 3.67969 1.18992 3.734 1.09323 3.83069C0.996548 3.92738 0.94223 4.05851 0.94223 4.19524V6.91524C0.951833 6.96352 0.975538 7.00787 1.01035 7.04268C1.04516 7.07749 1.0895 7.1012 1.13779 7.1108H2.31112C2.37713 7.1108 2.44043 7.08458 2.48711 7.0379C2.53379 6.99123 2.56001 6.92792 2.56001 6.86191V5.33302H14.5067V6.9508C14.5288 7.00201 14.5664 7.04499 14.6143 7.0737C14.6621 7.1024 14.7177 7.11537 14.7733 7.1108H16C16.0678 7.11095 16.133 7.08531 16.1826 7.03908C16.2321 6.99285 16.2622 6.92951 16.2667 6.86191V4.19524H16.1956Z" fill="#949494"/>
<path d="M2.56 14.0089C2.56015 13.9411 2.53451 13.8758 2.48828 13.8263C2.44205 13.7768 2.37871 13.7467 2.31111 13.7422H1.13778C1.07018 13.7467 1.00683 13.7768 0.960604 13.8263C0.914377 13.8758 0.888735 13.9411 0.888886 14.0089V16.7111C0.888886 16.9777 1.06666 17.2089 1.26222 17.2089H7.44889V15.6089H2.56V14.0089Z" fill="#949494"/>
<path d="M13.9022 14.7905C13.9047 14.8177 13.9015 14.845 13.8928 14.8708C13.884 14.8967 13.87 14.9204 13.8516 14.9405C13.8332 14.9605 13.8108 14.9766 13.7858 14.9875C13.7609 14.9984 13.7339 15.004 13.7067 15.0039H11.9289C11.9004 15.0091 11.8711 15.008 11.8431 15.0006C11.8151 14.9931 11.7891 14.9796 11.767 14.9609C11.7449 14.9422 11.7272 14.9188 11.7152 14.8924C11.7032 14.866 11.6973 14.8373 11.6978 14.8083V13.4394C11.6925 13.4109 11.6936 13.3816 11.7011 13.3536C11.7085 13.3256 11.7221 13.2996 11.7408 13.2775C11.7595 13.2554 11.7829 13.2377 11.8093 13.2258C11.8356 13.2138 11.8644 13.2078 11.8933 13.2083H13.6711C13.8489 13.2083 13.9378 13.2972 13.9378 13.4394L13.9022 14.7905ZM13.9022 16.1417C13.9022 15.9994 13.8133 15.9994 13.6355 15.9994H11.8578C11.8297 16.0017 11.8024 16.0094 11.7773 16.0223C11.7523 16.0351 11.7301 16.0528 11.7119 16.0743C11.6937 16.0958 11.68 16.1206 11.6714 16.1475C11.6629 16.1743 11.6598 16.2025 11.6622 16.2305V17.6172C11.6644 17.6453 11.6722 17.6726 11.6851 17.6976C11.6979 17.7227 11.7156 17.7449 11.7371 17.7631C11.7585 17.7813 11.7834 17.795 11.8102 17.8035C11.837 17.8121 11.8653 17.8152 11.8933 17.8128H13.6711C13.6991 17.8105 13.7265 17.8028 13.7515 17.7899C13.7766 17.7771 13.7988 17.7594 13.817 17.7379C13.8352 17.7164 13.8489 17.6916 13.8574 17.6647C13.866 17.6379 13.8691 17.6097 13.8667 17.5817L13.9022 16.1417ZM13.9022 18.8439C13.9022 18.7194 13.8133 18.6305 13.6355 18.6305H11.8578C11.8305 18.6304 11.8035 18.636 11.7786 18.6469C11.7536 18.6579 11.7312 18.6739 11.7128 18.694C11.6944 18.714 11.6804 18.7378 11.6717 18.7636C11.663 18.7894 11.6597 18.8167 11.6622 18.8439V20.2305C11.6617 20.2595 11.6677 20.2882 11.6797 20.3146C11.6916 20.341 11.7093 20.3644 11.7314 20.3831C11.7535 20.4018 11.7795 20.4154 11.8075 20.4228C11.8355 20.4302 11.8648 20.4314 11.8933 20.4261H13.6711C13.7001 20.4266 13.7288 20.4206 13.7552 20.4087C13.7815 20.3967 13.8049 20.379 13.8236 20.3569C13.8424 20.3348 13.8559 20.3088 13.8634 20.2808C13.8708 20.2528 13.8719 20.2235 13.8667 20.195L13.9022 18.8439ZM6.43554 7.3061C6.43122 7.27559 6.42084 7.24626 6.40501 7.21982C6.38919 7.19339 6.36824 7.17038 6.34339 7.15216C6.31854 7.13394 6.29031 7.12088 6.26034 7.11373C6.23037 7.10658 6.19927 7.1055 6.16888 7.11054H4.3911C4.36305 7.11278 4.33572 7.12055 4.31068 7.13339C4.28564 7.14624 4.2634 7.16391 4.24522 7.1854C4.22704 7.20688 4.2133 7.23174 4.20477 7.25856C4.19624 7.28538 4.19311 7.31362 4.19554 7.34165V8.72832C4.20684 8.77234 4.23191 8.8116 4.26709 8.84038C4.30226 8.86916 4.34571 8.88596 4.3911 8.88832H6.16888C6.19784 8.8888 6.22655 8.88284 6.25294 8.87087C6.27932 8.85891 6.30271 8.84122 6.32143 8.81911C6.34014 8.79699 6.3537 8.771 6.36114 8.743C6.36858 8.715 6.3697 8.68569 6.36443 8.65721L6.43554 7.3061ZM6.43554 10.0083C6.43554 9.88387 6.34665 9.79499 6.16888 9.79499H4.3911C4.36385 9.79487 4.33688 9.80046 4.31192 9.81138C4.28695 9.8223 4.26455 9.83831 4.24613 9.8584C4.22772 9.87848 4.21371 9.9022 4.205 9.92801C4.19629 9.95383 4.19307 9.98118 4.19554 10.0083V11.3772C4.19543 11.4045 4.20101 11.4314 4.21193 11.4564C4.22285 11.4814 4.23887 11.5038 4.25896 11.5222C4.27904 11.5406 4.30275 11.5546 4.32857 11.5633C4.35439 11.572 4.38174 11.5752 4.40888 11.5728H6.18665C6.2139 11.5729 6.24087 11.5673 6.26584 11.5564C6.2908 11.5455 6.31321 11.5294 6.33162 11.5094C6.35003 11.4893 6.36404 11.4656 6.37275 11.4397C6.38147 11.4139 6.38469 11.3866 6.38221 11.3594L6.43554 10.0083ZM6.43554 12.7283C6.43554 12.5861 6.34665 12.4972 6.16888 12.4972H4.3911C4.36305 12.4994 4.33572 12.5072 4.31068 12.5201C4.28564 12.5329 4.2634 12.5506 4.24522 12.5721C4.22704 12.5935 4.2133 12.6184 4.20477 12.6452C4.19624 12.672 4.19311 12.7003 4.19554 12.7283V14.0794C4.19554 14.136 4.21802 14.1903 4.25803 14.2303C4.29803 14.2703 4.3523 14.2928 4.40888 14.2928H6.18665C6.2147 14.2905 6.24204 14.2828 6.26707 14.2699C6.29211 14.2571 6.31436 14.2394 6.33253 14.2179C6.35071 14.1964 6.36446 14.1716 6.37298 14.1447C6.38151 14.1179 6.38464 14.0897 6.38221 14.0617L6.43554 12.7283Z" fill="#76BC2D"/>
</svg>
