<svg width="32" height="32" viewBox="0 0 32 32" fill="none" xmlns="http://www.w3.org/2000/svg">
<g clip-path="url(#clip0_868_11294)">
<path d="M9.84969 23.2986L8.80779 24.3434C8.7189 24.4326 8.59824 24.4828 8.47235 24.4829C8.34646 24.4831 8.22565 24.4333 8.13651 24.3444L0.397072 16.6268C0.21912 16.4494 0.118949 16.2085 0.118594 15.9572C0.118238 15.7059 0.217728 15.4647 0.395178 15.2868L1.4421 14.2369L9.85377 22.6248C9.94291 22.7137 9.99309 22.8343 9.99327 22.9602C9.99344 23.0861 9.94361 23.2069 9.85471 23.2961L9.84969 23.2986Z" fill="#50E6FF"/>
<path d="M8.64599 7.65352L9.69462 8.69919C9.78376 8.78808 9.83394 8.90874 9.83412 9.03463C9.83429 9.16052 9.78446 9.28133 9.69556 9.37047L1.43192 17.6575L0.382038 16.6106C0.204086 16.4331 0.103914 16.1923 0.103559 15.941C0.103203 15.6897 0.202695 15.4485 0.380144 15.2705L7.97722 7.65196C8.06634 7.56391 8.18665 7.51467 8.31193 7.51496C8.4372 7.51526 8.55728 7.56506 8.64599 7.65352Z" fill="#1490DF"/>
<path d="M30.5593 14.2441L31.605 15.2928C31.7824 15.4707 31.8819 15.7119 31.8816 15.9632C31.8812 16.2145 31.781 16.4554 31.6031 16.6328L23.8637 24.3504C23.7745 24.4393 23.6537 24.4891 23.5278 24.4889C23.4019 24.4888 23.2813 24.4386 23.1924 24.3494L22.1517 23.3059C22.0628 23.2167 22.013 23.0959 22.0132 22.97C22.0134 22.8441 22.0635 22.7235 22.1527 22.6346L30.5631 14.2479L30.5593 14.2441Z" fill="#50E6FF"/>
<path d="M31.6123 16.6063L30.5637 17.652L22.3 9.36491C22.2112 9.27577 22.1613 9.15497 22.1615 9.02908C22.1617 8.90319 22.2118 8.78253 22.301 8.69363L23.3496 7.64797C23.4388 7.55908 23.5596 7.50924 23.6855 7.50942C23.8113 7.5096 23.932 7.55978 24.0209 7.64892L31.618 15.2675C31.7954 15.4455 31.8949 15.6866 31.8946 15.9379C31.8942 16.1892 31.794 16.4301 31.6161 16.6076L31.6123 16.6063Z" fill="#1490DF"/>
<path d="M15.0382 17.6001H8.6578C8.56825 17.6035 8.48092 17.5718 8.41448 17.5117C8.34803 17.4515 8.30775 17.3678 8.30225 17.2783C8.3023 17.232 8.31326 17.1863 8.33425 17.145L15.984 2.00901C16.0166 1.95031 16.0646 1.90169 16.123 1.86846C16.1813 1.83522 16.2476 1.81866 16.3147 1.82056H23.8614C23.9509 1.81714 24.0382 1.84889 24.1047 1.90902C24.1711 1.96916 24.2114 2.0529 24.2169 2.14234C24.2163 2.20683 24.1944 2.26931 24.1547 2.32012L15.1716 14.1619H23.9325C24.022 14.1585 24.1093 14.1902 24.1758 14.2504C24.2422 14.3105 24.2825 14.3942 24.288 14.4837C24.2867 14.5653 24.2535 14.6431 24.1956 14.7006L9.63736 29.8455C9.50047 29.9272 8.52802 30.7343 9.00447 29.5095L15.0382 17.6001Z" fill="url(#paint0_linear_868_11294)"/>
</g>
<defs>
<linearGradient id="paint0_linear_868_11294" x1="16.2224" y1="29.9682" x2="16.2224" y2="1.59705" gradientUnits="userSpaceOnUse">
<stop stop-color="#FEA11B"/>
<stop offset="0.284" stop-color="#FEA51A"/>
<stop offset="0.547" stop-color="#FEB018"/>
<stop offset="0.8" stop-color="#FFC314"/>
<stop offset="1" stop-color="#FFD70F"/>
</linearGradient>
<clipPath id="clip0_868_11294">
<rect width="32" height="32" fill="white"/>
</clipPath>
</defs>
</svg>
