<svg width="32" height="32" viewBox="0 0 32 32" fill="none" xmlns="http://www.w3.org/2000/svg">
<g clip-path="url(#clip0_868_11299)">
<path d="M15.328 30.6368L3.14666 23.6039C2.94299 23.4857 2.7739 23.3161 2.65629 23.1121C2.53868 22.9081 2.47666 22.6768 2.47644 22.4413V8.37548C2.47648 8.13995 2.53842 7.90856 2.65605 7.70451C2.77368 7.50045 2.94287 7.33089 3.14666 7.21281L15.328 0.178146C15.532 0.0601671 15.7635 -0.00195313 15.9991 -0.00195312C16.2348 -0.00195312 16.4662 0.0601671 16.6702 0.178146L28.8516 7.21103C29.0558 7.32875 29.2254 7.49818 29.3434 7.70228C29.4614 7.90639 29.5235 8.13796 29.5236 8.3737V22.4395C29.5233 22.6752 29.4611 22.9067 29.3432 23.1108C29.2252 23.3148 29.0557 23.4843 28.8516 23.6021L16.6702 30.6368C16.4659 30.7539 16.2346 30.8155 15.9991 30.8155C15.7636 30.8155 15.5323 30.7539 15.328 30.6368ZM4.98666 22.5408L15.328 28.5124C15.532 28.6303 15.7635 28.6925 15.9991 28.6925C16.2348 28.6925 16.4662 28.6303 16.6702 28.5124L27.0222 22.5408C27.226 22.4232 27.3952 22.2539 27.5129 22.0502C27.6305 21.8464 27.6924 21.6152 27.6924 21.3799V9.43681C27.6924 9.20128 27.6305 8.96989 27.5128 8.76584C27.3952 8.56178 27.226 8.39222 27.0222 8.27415L16.6702 2.31148C16.4659 2.19437 16.2346 2.13275 15.9991 2.13275C15.7636 2.13275 15.5323 2.19437 15.328 2.31148L4.98666 8.27415C4.78241 8.39186 4.61277 8.56129 4.4948 8.7654C4.37684 8.9695 4.31471 9.20107 4.31466 9.43681V21.3799C4.31466 21.6154 4.37678 21.8468 4.49477 22.0506C4.61276 22.2544 4.78243 22.4235 4.98666 22.5408Z" fill="#A3A3A3"/>
<path d="M3.64978 10.6556C4.95563 10.6556 6.01423 9.59705 6.01423 8.2912C6.01423 6.98536 4.95563 5.92676 3.64978 5.92676C2.34394 5.92676 1.28534 6.98536 1.28534 8.2912C1.28534 9.59705 2.34394 10.6556 3.64978 10.6556Z" fill="url(#paint0_linear_868_11299)"/>
<path d="M16.0604 32.0004C17.3663 32.0004 18.4249 30.9418 18.4249 29.6359C18.4249 28.3301 17.3663 27.2715 16.0604 27.2715C14.7546 27.2715 13.696 28.3301 13.696 29.6359C13.696 30.9418 14.7546 32.0004 16.0604 32.0004Z" fill="url(#paint1_linear_868_11299)"/>
<path d="M28.3502 10.8002C29.6561 10.8002 30.7147 9.74158 30.7147 8.43573C30.7147 7.12989 29.6561 6.07129 28.3502 6.07129C27.0444 6.07129 25.9858 7.12989 25.9858 8.43573C25.9858 9.74158 27.0444 10.8002 28.3502 10.8002Z" fill="url(#paint2_linear_868_11299)"/>
<path d="M14.3876 14.2114H9.8009L10.4889 7.50208C10.5022 7.35622 10.5696 7.22061 10.6779 7.12191C10.7861 7.02322 10.9273 6.96859 11.0738 6.96875H13.1147C13.2613 6.96855 13.4028 7.02312 13.5113 7.12178C13.6198 7.22044 13.6876 7.35606 13.7013 7.50208L14.3876 14.2114Z" fill="#32BEDD"/>
<path d="M18.4409 14.5085H15.1716L15.6605 9.95564C15.6702 9.85159 15.7184 9.75492 15.7957 9.68455C15.873 9.61418 15.9737 9.57519 16.0782 9.5752H17.5342C17.6392 9.5747 17.7407 9.61344 17.8186 9.68381C17.8965 9.75419 17.9454 9.85113 17.9556 9.95564L18.4409 14.5085Z" fill="#32BEDD"/>
<path d="M24.1529 13.2158H7.84887C7.66735 13.2158 7.49326 13.2879 7.3649 13.4163C7.23654 13.5446 7.16443 13.7187 7.16443 13.9003V21.3669C7.1649 21.5481 7.23722 21.7218 7.36553 21.8498C7.49383 21.9777 7.66765 22.0496 7.84887 22.0496H17.1964V19.2958C17.1964 19.2067 17.2318 19.1212 17.2948 19.0582C17.3579 18.9952 17.4433 18.9598 17.5324 18.9598H19.4258C19.5149 18.9598 19.6003 18.9952 19.6634 19.0582C19.7264 19.1212 19.7618 19.2067 19.7618 19.2958V22.0443H24.1529C24.2427 22.0445 24.3316 22.027 24.4147 21.9928C24.4977 21.9586 24.5732 21.9084 24.6367 21.8449C24.7003 21.7815 24.7508 21.7062 24.7852 21.6233C24.8196 21.5403 24.8373 21.4514 24.8373 21.3616V13.8949C24.8359 13.7143 24.7632 13.5416 24.635 13.4144C24.5068 13.2872 24.3335 13.2158 24.1529 13.2158Z" fill="url(#paint3_linear_868_11299)"/>
<path d="M12.2507 15.3584H10.032C9.89652 15.3584 9.78668 15.4682 9.78668 15.6037V17.0953C9.78668 17.2308 9.89652 17.3406 10.032 17.3406H12.2507C12.3862 17.3406 12.496 17.2308 12.496 17.0953V15.6037C12.496 15.4682 12.3862 15.3584 12.2507 15.3584Z" fill="white"/>
<path d="M17.1111 15.3584H14.8924C14.7569 15.3584 14.6471 15.4682 14.6471 15.6037V17.0953C14.6471 17.2308 14.7569 17.3406 14.8924 17.3406H17.1111C17.2466 17.3406 17.3564 17.2308 17.3564 17.0953V15.6037C17.3564 15.4682 17.2466 15.3584 17.1111 15.3584Z" fill="white"/>
<path d="M21.9698 15.3584H19.7511C19.6156 15.3584 19.5058 15.4682 19.5058 15.6037V17.0953C19.5058 17.2308 19.6156 17.3406 19.7511 17.3406H21.9698C22.1053 17.3406 22.2151 17.2308 22.2151 17.0953V15.6037C22.2151 15.4682 22.1053 15.3584 21.9698 15.3584Z" fill="white"/>
</g>
<defs>
<linearGradient id="paint0_linear_868_11299" x1="3.64978" y1="5.79165" x2="3.64978" y2="10.5205" gradientUnits="userSpaceOnUse">
<stop stop-color="#50E6FF"/>
<stop offset="1" stop-color="#32BEDD"/>
</linearGradient>
<linearGradient id="paint1_linear_868_11299" x1="16.0604" y1="27.1382" x2="16.0604" y2="31.8653" gradientUnits="userSpaceOnUse">
<stop stop-color="#50E6FF"/>
<stop offset="1" stop-color="#32BEDD"/>
</linearGradient>
<linearGradient id="paint2_linear_868_11299" x1="28.3502" y1="5.93796" x2="28.3502" y2="10.6651" gradientUnits="userSpaceOnUse">
<stop stop-color="#50E6FF"/>
<stop offset="1" stop-color="#32BEDD"/>
</linearGradient>
<linearGradient id="paint3_linear_868_11299" x1="16.0018" y1="12.5296" x2="16.0018" y2="23.2318" gradientUnits="userSpaceOnUse">
<stop stop-color="#50E6FF"/>
<stop offset="1" stop-color="#32BEDD"/>
</linearGradient>
<clipPath id="clip0_868_11299">
<rect width="32" height="32" fill="white"/>
</clipPath>
</defs>
</svg>
