<svg width="32" height="32" viewBox="0 0 32 32" fill="none" xmlns="http://www.w3.org/2000/svg">
<g clip-path="url(#clip0_868_11292)">
<path d="M32 15.7337C31.9278 14.0421 31.2633 12.4298 30.1226 11.1786C28.9819 9.92743 27.4377 9.11707 25.76 8.88925C25.6719 6.49679 24.6411 4.23629 22.8926 2.60098C21.144 0.965678 18.8197 0.0883239 16.4267 0.16036C14.4994 0.124772 12.6088 0.689053 11.0163 1.77512C9.42379 2.8612 8.20823 4.41536 7.53778 6.22258C5.5023 6.46836 3.62241 7.43583 2.23936 8.94935C0.85631 10.4629 0.0617807 12.4221 0 14.4715C0.0879773 16.776 1.08622 18.9516 2.77584 20.5213C4.46546 22.0909 6.70857 22.9265 9.01333 22.8448H9.79556H24.3911C24.5208 22.8633 24.6525 22.8633 24.7822 22.8448C26.674 22.8314 28.486 22.0812 29.8337 20.7535C31.1813 19.4257 31.9584 17.6251 32 15.7337Z" fill="url(#paint0_linear_868_11292)"/>
<path d="M16.64 15.04H15.2533V26.0445H16.64V15.04Z" fill="#B3B3B3"/>
<path d="M15.9467 15.4131C17.9889 15.4131 19.6445 13.7576 19.6445 11.7154C19.6445 9.67313 17.9889 8.01758 15.9467 8.01758C13.9045 8.01758 12.2489 9.67313 12.2489 11.7154C12.2489 13.7576 13.9045 15.4131 15.9467 15.4131Z" fill="#F2F2F2"/>
<path d="M18.0089 25.1201H13.8844C13.1677 25.1201 12.5867 25.7012 12.5867 26.4179V30.5423C12.5867 31.2591 13.1677 31.8401 13.8844 31.8401H18.0089C18.7256 31.8401 19.3067 31.2591 19.3067 30.5423V26.4179C19.3067 25.7012 18.7256 25.1201 18.0089 25.1201Z" fill="url(#paint1_linear_868_11292)"/>
</g>
<defs>
<linearGradient id="paint0_linear_868_11292" x1="16" y1="22.8448" x2="16" y2="0.16036" gradientUnits="userSpaceOnUse">
<stop stop-color="#198AB3"/>
<stop offset="0.44" stop-color="#28B7DB"/>
<stop offset="0.78" stop-color="#32D4F5"/>
</linearGradient>
<linearGradient id="paint1_linear_868_11292" x1="15.9467" y1="31.8401" x2="15.9467" y2="25.1201" gradientUnits="userSpaceOnUse">
<stop stop-color="#198AB3"/>
<stop offset="0.44" stop-color="#28B7DB"/>
<stop offset="0.78" stop-color="#32D4F5"/>
</linearGradient>
<clipPath id="clip0_868_11292">
<rect width="32" height="32" fill="white"/>
</clipPath>
</defs>
</svg>
