<svg width="32" height="32" viewBox="0 0 32 32" fill="none" xmlns="http://www.w3.org/2000/svg">
<g clip-path="url(#clip0_868_11300)">
<path d="M20.2667 18.5064C22.2009 18.5064 23.7689 16.9384 23.7689 15.0042C23.7689 13.07 22.2009 11.502 20.2667 11.502C18.3324 11.502 16.7644 13.07 16.7644 15.0042C16.7644 16.9384 18.3324 18.5064 20.2667 18.5064Z" fill="white"/>
<path d="M26.1334 28.1781C27.6552 28.1781 28.8889 26.9444 28.8889 25.4225C28.8889 23.9007 27.6552 22.667 26.1334 22.667C24.6115 22.667 23.3778 23.9007 23.3778 25.4225C23.3778 26.9444 24.6115 28.1781 26.1334 28.1781Z" fill="white"/>
<path d="M15.2356 25.9017C16.5414 25.9017 17.6 24.8431 17.6 23.5373C17.6 22.2314 16.5414 21.1729 15.2356 21.1729C13.9297 21.1729 12.8711 22.2314 12.8711 23.5373C12.8711 24.8431 13.9297 25.9017 15.2356 25.9017Z" fill="white"/>
<path d="M13.5289 8.46237C15.1489 8.46237 16.4622 7.14907 16.4622 5.52904C16.4622 3.909 15.1489 2.5957 13.5289 2.5957C11.9088 2.5957 10.5956 3.909 10.5956 5.52904C10.5956 7.14907 11.9088 8.46237 13.5289 8.46237Z" fill="white"/>
<path d="M5.67112 18.7025C6.97696 18.7025 8.03556 17.6439 8.03556 16.3381C8.03556 15.0322 6.97696 13.9736 5.67112 13.9736C4.36527 13.9736 3.30667 15.0322 3.30667 16.3381C3.30667 17.6439 4.36527 18.7025 5.67112 18.7025Z" fill="white"/>
<path d="M26.7733 24.8711L20.8533 14.5066L20.2667 14.8444L20.7467 14.4888L14.0444 4.95996L12.8178 5.84885L18.7556 14.2933L5.60001 15.3777L5.72445 16.9066L18.7556 15.8222L14.4356 23.0044L15.7333 23.7866L20.1778 16.3911L25.4578 25.6177L26.7733 24.8711Z" fill="#949494"/>
<path d="M31.1644 2.18645C31.1644 1.84226 31.0277 1.51216 30.7843 1.26878C30.5409 1.0254 30.2108 0.888672 29.8667 0.888672H23.1111C22.9414 0.888672 22.7786 0.9561 22.6586 1.07612C22.5385 1.19615 22.4711 1.35893 22.4711 1.52867V4.03534C22.4711 4.20508 22.5385 4.36786 22.6586 4.48789C22.7786 4.60791 22.9414 4.67534 23.1111 4.67534H27.2889V8.76423C27.2934 8.93726 27.3641 9.10197 27.4865 9.22437C27.6089 9.34676 27.7736 9.41751 27.9467 9.42201H30.4355C30.6086 9.41751 30.7733 9.34676 30.8957 9.22437C31.0181 9.10197 31.0888 8.93726 31.0933 8.76423V2.18645H31.1644Z" fill="#949494"/>
<path d="M8.88887 27.3238H4.63998V23.2349C4.63549 23.0619 4.56474 22.8972 4.44235 22.7748C4.31995 22.6524 4.15524 22.5816 3.98221 22.5771H1.49332C1.32028 22.5816 1.15557 22.6524 1.03318 22.7748C0.910782 22.8972 0.840037 23.0619 0.835541 23.2349V29.8127C0.840214 30.1538 0.979004 30.4794 1.22188 30.7189C1.46476 30.9584 1.79218 31.0927 2.13332 31.0927H8.88887C9.05861 31.0927 9.2214 31.0253 9.34142 30.9053C9.46145 30.7852 9.52887 30.6224 9.52887 30.4527V27.9638C9.52887 27.7941 9.46145 27.6313 9.34142 27.5113C9.2214 27.3912 9.05861 27.3238 8.88887 27.3238Z" fill="#949494"/>
<path d="M20.2667 11.5378C20.9736 11.538 21.6645 11.749 22.251 12.1438C22.8374 12.5385 23.2929 13.0992 23.5592 13.754C23.8255 14.4089 23.8906 15.1283 23.746 15.8204C23.6014 16.5124 23.2539 17.1456 22.7477 17.6391C22.2415 18.1327 21.5997 18.4641 20.9042 18.5911C20.2088 18.7181 19.4912 18.6349 18.8433 18.3521C18.1954 18.0693 17.6464 17.5997 17.2666 17.0035C16.8869 16.4072 16.6934 15.7112 16.7111 15.0045C16.7343 14.077 17.1191 13.1953 17.7834 12.5476C18.4477 11.8999 19.3389 11.5375 20.2667 11.5378ZM10.6667 5.52892C10.6633 6.11633 10.8353 6.69138 11.1607 7.18046C11.4861 7.66954 11.95 8.05038 12.4931 8.27425C13.0362 8.49811 13.6337 8.5548 14.2092 8.43707C14.7847 8.31933 15.312 8.03252 15.7235 7.61336C16.1351 7.19419 16.4122 6.66175 16.5193 6.08418C16.6265 5.50662 16.5588 4.91021 16.3251 4.37132C16.0913 3.83242 15.702 3.37556 15.207 3.05922C14.712 2.74287 14.1339 2.58144 13.5467 2.59558C12.778 2.60956 12.0455 2.92477 11.5069 3.47337C10.9683 4.02197 10.6665 4.7601 10.6667 5.52892ZM3.30667 16.32C3.30667 16.7877 3.44534 17.2448 3.70515 17.6336C3.96496 18.0225 4.33424 18.3255 4.76628 18.5045C5.19833 18.6834 5.67374 18.7303 6.1324 18.639C6.59105 18.5478 7.01236 18.3226 7.34303 17.9919C7.6737 17.6613 7.89889 17.24 7.99013 16.7813C8.08136 16.3226 8.03454 15.8472 7.85558 15.4152C7.67662 14.9831 7.37356 14.6139 6.98473 14.3541C6.5959 14.0943 6.13876 13.9556 5.67112 13.9556C5.04403 13.9556 4.44262 14.2047 3.9992 14.6481C3.55578 15.0915 3.30667 15.6929 3.30667 16.32ZM12.8711 23.52C12.8676 23.9919 13.0043 24.4542 13.2639 24.8483C13.5235 25.2424 13.8943 25.5505 14.3293 25.7335C14.7643 25.9166 15.2438 25.9663 15.7071 25.8764C16.1704 25.7865 16.5965 25.561 16.9314 25.2286C17.2664 24.8961 17.495 24.4717 17.5884 24.0091C17.6818 23.5465 17.6356 23.0667 17.4559 22.6303C17.2761 22.194 16.9708 21.8209 16.5787 21.5583C16.1865 21.2958 15.7253 21.1556 15.2533 21.1556C14.9413 21.1532 14.632 21.2127 14.343 21.3304C14.0541 21.4482 13.7914 21.622 13.5699 21.8418C13.3485 22.0616 13.1727 22.323 13.0528 22.6111C12.9328 22.8991 12.8711 23.208 12.8711 23.52ZM23.3956 25.4223C23.392 25.968 23.5507 26.5025 23.8513 26.958C24.1519 27.4134 24.581 27.7694 25.0842 27.9807C25.5874 28.192 26.142 28.2491 26.6777 28.1448C27.2134 28.0405 27.7061 27.7794 28.0932 27.3948C28.4804 27.0101 28.7446 26.5192 28.8524 25.9842C28.9601 25.4492 28.9066 24.8942 28.6986 24.3897C28.4905 23.8851 28.1374 23.4537 27.6839 23.1501C27.2303 22.8466 26.6969 22.6845 26.1511 22.6845C25.7894 22.6797 25.4305 22.7472 25.0952 22.8829C24.7599 23.0186 24.455 23.2198 24.1984 23.4747C23.9418 23.7296 23.7386 24.0332 23.6008 24.3676C23.4629 24.702 23.3932 25.0605 23.3956 25.4223Z" fill="url(#paint0_linear_868_11300)"/>
</g>
<defs>
<linearGradient id="paint0_linear_868_11300" x1="16.2311" y1="33.44" x2="15.7333" y2="-14.4" gradientUnits="userSpaceOnUse">
<stop stop-color="#198AB3"/>
<stop offset="0.09" stop-color="#22A5CB"/>
<stop offset="0.19" stop-color="#29BADE"/>
<stop offset="0.29" stop-color="#2EC9EB"/>
<stop offset="0.42" stop-color="#31D1F3"/>
<stop offset="0.62" stop-color="#32D4F5"/>
</linearGradient>
<clipPath id="clip0_868_11300">
<rect width="32" height="32" fill="white"/>
</clipPath>
</defs>
</svg>
