<svg width="32" height="32" viewBox="0 0 32 32" fill="none" xmlns="http://www.w3.org/2000/svg">
<path d="M16 0L2.04443 7.98222V13.3156L7.46666 16.6044V13.4044L4.62221 11.7689V9.56444L16 2.98667L27.3778 9.58222V22.3467L16 28.9244L2.04443 20.9422V23.9289L16 32L29.9555 24.0178V8.01778L16 0Z" fill="#A3A3A3"/>
<path d="M16 0L2.04443 7.98222L4.62221 9.56444L16 2.98667L27.3778 9.56444L29.9555 7.98222L16 0Z" fill="#949494"/>
<path d="M23.5556 11.627V20.3736L16 24.7647V16.0181L23.5556 11.627Z" fill="#32BEDD"/>
<path d="M23.5556 11.6265L16 16.0176L8.44446 11.6265L16 7.23535L23.5556 11.6265Z" fill="#9CEBFF"/>
<path d="M16 16.0181V24.7647L8.44446 20.3736V11.627L16 16.0181Z" fill="#50E6FF"/>
<path d="M8.44446 20.3731L16 16.0176V24.7642L8.44446 20.3731Z" fill="#9CEBFF"/>
<path d="M23.5556 20.3731L16 16.0176V24.7642L23.5556 20.3731Z" fill="#50E6FF"/>
</svg>
