<svg width="32" height="32" viewBox="0 0 32 32" fill="none" xmlns="http://www.w3.org/2000/svg">
<g clip-path="url(#clip0_868_11289)">
<path d="M24.624 16.084H19.4471C18.7314 16.084 18.045 15.7997 17.5389 15.2936C17.0328 14.7875 16.7485 14.1011 16.7485 13.3854V7.69824H15.2516V13.3871C15.2511 14.1026 14.9666 14.7885 14.4605 15.2942C13.9545 15.7999 13.2683 16.084 12.5529 16.084H7.37601C6.81021 16.084 6.26759 16.3088 5.86751 16.7089C5.46744 17.1089 5.24268 17.6516 5.24268 18.2174V22.3738H6.73779V18.212C6.73779 18.129 6.75417 18.0468 6.786 17.9701C6.81782 17.8934 6.86447 17.8238 6.92326 17.7651C6.98206 17.7065 7.05184 17.6601 7.12861 17.6284C7.20539 17.5968 7.28765 17.5807 7.37068 17.5809H12.5529C13.1343 17.5818 13.7095 17.4615 14.2418 17.2276C14.7741 16.9938 15.2518 16.6515 15.6445 16.2227C15.6907 16.1727 15.7468 16.1328 15.8092 16.1056C15.8716 16.0783 15.939 16.0642 16.0071 16.0642C16.0752 16.0642 16.1426 16.0783 16.205 16.1056C16.2674 16.1328 16.3235 16.1727 16.3698 16.2227C16.7616 16.6506 17.2382 16.9923 17.7692 17.2262C18.3002 17.46 18.874 17.5808 19.4542 17.5809H24.6311C24.7141 17.5807 24.7962 17.5968 24.8729 17.6285C24.9496 17.6601 25.0193 17.7066 25.0779 17.7652C25.1366 17.8239 25.183 17.8936 25.2147 17.9702C25.2463 18.0469 25.2625 18.1291 25.2622 18.212V22.3685H26.7573V18.212C26.7559 17.6472 26.5305 17.1059 26.1306 16.707C25.7307 16.308 25.1889 16.084 24.624 16.084Z" fill="#0078D4"/>
<path d="M20.9227 -0.0351562H11.0755C10.4825 -0.0351562 10.0018 0.44559 10.0018 1.03862V10.8857C10.0018 11.4788 10.4825 11.9595 11.0755 11.9595H20.9227C21.5157 11.9595 21.9964 11.4788 21.9964 10.8857V1.03862C21.9964 0.44559 21.5157 -0.0351562 20.9227 -0.0351562Z" fill="url(#paint0_linear_868_11289)"/>
<path d="M10.9209 20.041H1.07378C0.480747 20.041 0 20.5218 0 21.1148V30.9619C0 31.5549 0.480747 32.0357 1.07378 32.0357H10.9209C11.5139 32.0357 11.9947 31.5549 11.9947 30.9619V21.1148C11.9947 20.5218 11.5139 20.041 10.9209 20.041Z" fill="url(#paint1_linear_868_11289)"/>
<path d="M32 30.9619V21.1148C32 20.5218 31.5193 20.041 30.9262 20.041H21.0791C20.4861 20.041 20.0053 20.5218 20.0053 21.1148V30.9619C20.0053 31.5549 20.4861 32.0357 21.0791 32.0357H30.9262C31.5193 32.0357 32 31.5549 32 30.9619Z" fill="url(#paint2_linear_868_11289)"/>
</g>
<defs>
<linearGradient id="paint0_linear_868_11289" x1="16" y1="3.19329" x2="16" y2="11.3266" gradientUnits="userSpaceOnUse">
<stop stop-color="#9CEBFF"/>
<stop offset="1" stop-color="#50E6FF"/>
</linearGradient>
<linearGradient id="paint1_linear_868_11289" x1="5.99822" y1="21.5823" x2="5.99822" y2="32.8126" gradientUnits="userSpaceOnUse">
<stop offset="0.001" stop-color="#B4EC36"/>
<stop offset="1" stop-color="#86D633"/>
</linearGradient>
<linearGradient id="paint2_linear_868_11289" x1="26.0018" y1="21.5823" x2="26.0018" y2="32.8126" gradientUnits="userSpaceOnUse">
<stop offset="0.001" stop-color="#B4EC36"/>
<stop offset="1" stop-color="#86D633"/>
</linearGradient>
<clipPath id="clip0_868_11289">
<rect width="32" height="32" fill="white"/>
</clipPath>
</defs>
</svg>
