<svg width="32" height="32" viewBox="0 0 32 32" fill="none" xmlns="http://www.w3.org/2000/svg">
<path d="M10.6666 1.06671H30.4355C30.6042 1.0616 30.7683 1.12148 30.8941 1.23398C31.0198 1.34648 31.0975 1.50299 31.1111 1.67115V16.9423C31.1065 17.0264 31.0855 17.1087 31.049 17.1846C31.0126 17.2606 30.9615 17.3286 30.8988 17.3847C30.836 17.4409 30.7628 17.4841 30.6833 17.5119C30.6038 17.5397 30.5196 17.5515 30.4355 17.5467H10.6666C10.5826 17.5515 10.4984 17.5397 10.4189 17.5119C10.3394 17.4841 10.2662 17.4409 10.2034 17.3847C10.1407 17.3286 10.0896 17.2606 10.0532 17.1846C10.0167 17.1087 9.99563 17.0264 9.99109 16.9423V1.67115C10.0047 1.50299 10.0824 1.34648 10.2081 1.23398C10.3339 1.12148 10.498 1.0616 10.6666 1.06671Z" fill="#E6E6E6"/>
<path d="M10.56 1.06673H30.4711C30.6303 1.0616 30.7854 1.11774 30.9045 1.22357C31.0236 1.32941 31.0975 1.47689 31.1111 1.63562V3.94673H9.91998V1.63562C9.93356 1.47689 10.0075 1.32941 10.1266 1.22357C10.2456 1.11774 10.4008 1.0616 10.56 1.06673Z" fill="#5EA0EF"/>
<path d="M16.9955 3.94629H9.91998V10.7552H16.9955V3.94629Z" fill="#83B9F9"/>
<path d="M24.0356 3.94629H16.96V10.7552H24.0356V3.94629Z" fill="#0078D4"/>
<path d="M31.1111 3.94629H24.0356V10.7552H31.1111V3.94629Z" fill="#83B9F9"/>
<path d="M30.0978 17.6174H24.0356V10.7374H31.1467V16.533C31.1568 16.675 31.1368 16.8175 31.0882 16.9512C31.0395 17.085 30.9632 17.207 30.8643 17.3093C30.7653 17.4116 30.6459 17.4919 30.5139 17.545C30.3818 17.5981 30.24 17.6228 30.0978 17.6174Z" fill="#0078D4"/>
<path d="M17.0133 17.5469H24.0889V10.738H17.0133V17.5469Z" fill="#83B9F9"/>
<path d="M9.93775 17.5469H17.0133V10.738H9.93775V17.5469Z" fill="#0078D4"/>
<path d="M19.0755 30.9332H1.58221C1.0311 30.9332 0.693324 30.0443 1.01332 29.5821L7.03999 20.6932C7.0896 20.6004 7.11412 20.4962 7.1111 20.391V14.5777C7.11278 14.4945 7.08523 14.4134 7.03326 14.3484C6.98129 14.2834 6.90818 14.2387 6.82666 14.2221H6.48888C6.305 14.2221 6.12864 14.1491 5.99862 14.0191C5.86859 13.889 5.79555 13.7127 5.79555 13.5288V13.2266C5.80018 13.0458 5.87527 12.874 6.0048 12.7478C6.13432 12.6216 6.30803 12.551 6.48888 12.551H14.2222C14.3124 12.5486 14.4022 12.5644 14.4862 12.5972C14.5702 12.6301 14.6468 12.6795 14.7114 12.7425C14.7761 12.8055 14.8274 12.8807 14.8625 12.9639C14.8975 13.047 14.9156 13.1363 14.9155 13.2266V13.5466C14.9156 13.6368 14.8975 13.7261 14.8625 13.8093C14.8274 13.8924 14.7761 13.9677 14.7114 14.0307C14.6468 14.0936 14.5702 14.143 14.4862 14.1759C14.4022 14.2088 14.3124 14.2245 14.2222 14.2221H13.8489C13.7576 14.222 13.6697 14.257 13.6035 14.3199C13.5374 14.3828 13.4979 14.4687 13.4933 14.5599V20.391C13.4965 20.5306 13.5397 20.6664 13.6178 20.7821L19.6622 29.5643C19.9644 30.0443 19.6444 30.9332 19.0755 30.9332Z" fill="url(#paint0_linear_868_11291)"/>
<path d="M3.89333 28.4447L8.26667 22.0625C8.45538 21.7982 8.55501 21.4806 8.55111 21.1559V18.4892C8.55111 18.3525 8.60543 18.2213 8.70211 18.1246C8.7988 18.028 8.92993 17.9736 9.06667 17.9736H11.5556C11.6224 17.9736 11.6887 17.987 11.7502 18.0132C11.8118 18.0393 11.8675 18.0775 11.914 18.1257C11.9604 18.1738 11.9967 18.2308 12.0207 18.2932C12.0446 18.3557 12.0557 18.4223 12.0533 18.4892V21.3336C12.0556 21.5503 12.1238 21.7611 12.2489 21.9381L16.7289 28.4447C16.774 28.5016 16.8016 28.5703 16.8083 28.6426C16.8149 28.7148 16.8004 28.7874 16.7664 28.8516C16.7325 28.9157 16.6806 28.9685 16.6171 29.0036C16.5536 29.0387 16.4812 29.0546 16.4089 29.0492H4.19556C4.12469 29.0509 4.05481 29.0324 3.99406 28.9959C3.93332 28.9594 3.88422 28.9063 3.85252 28.8429C3.82083 28.7795 3.80783 28.7084 3.81506 28.6379C3.82228 28.5674 3.84943 28.5004 3.89333 28.4447Z" fill="white"/>
<defs>
<linearGradient id="paint0_linear_868_11291" x1="10.1511" y1="12.6221" x2="10.3467" y2="31.0755" gradientUnits="userSpaceOnUse">
<stop stop-color="#32D4F5"/>
<stop offset="0.32" stop-color="#31D1F3"/>
<stop offset="0.53" stop-color="#2EC9EB"/>
<stop offset="0.7" stop-color="#29BADE"/>
<stop offset="0.86" stop-color="#22A5CB"/>
<stop offset="1" stop-color="#198AB3"/>
</linearGradient>
</defs>
</svg>
