<svg width="32" height="32" viewBox="0 0 32 32" fill="none" xmlns="http://www.w3.org/2000/svg">
<g clip-path="url(#clip0_868_11287)">
<path d="M26.8089 20.7114C25.6556 21.6068 24.3372 22.2662 22.9291 22.652C21.521 23.0378 20.0506 23.1425 18.602 22.9601C17.1534 22.7777 15.7549 22.3117 14.4864 21.5888C13.2179 20.8659 12.1042 19.9003 11.2089 18.747C10.3135 17.5937 9.65415 16.2753 9.26832 14.8672C8.8825 13.4591 8.77781 11.9887 8.96022 10.5401C9.14264 9.09155 9.60859 7.69307 10.3315 6.42455C11.0544 5.15603 12.02 4.04232 13.1733 3.14699L13.2978 3.0581C15.6387 1.26642 18.5956 0.478067 21.5178 0.866476C24.44 1.25488 27.0883 2.78824 28.88 5.12922C30.6717 7.47019 31.46 10.427 31.0716 13.3493C30.6832 16.2715 29.1498 18.9198 26.8089 20.7114Z" fill="#F2F2F2"/>
<path d="M28.8711 5.22691C27.0945 2.87378 24.4567 1.32184 21.5368 0.911864C18.617 0.501885 15.6538 1.26737 13.2978 3.04025L13.1734 3.12913C11.3137 4.54532 9.94724 6.5111 9.2677 8.74762C8.58817 10.9841 8.6301 13.3778 9.38754 15.5892C10.145 17.8005 11.5795 19.7173 13.4876 21.0674C15.3957 22.4176 17.6804 23.1328 20.0178 23.1114C22.4789 23.1202 24.8712 22.2998 26.8089 20.7825C29.1298 18.9822 30.6477 16.3399 31.0337 13.4281C31.4198 10.5163 30.6428 7.56972 28.8711 5.22691ZM10.3289 11.218C10.4322 9.89574 10.801 8.60786 11.4134 7.43136H14.0978C13.8009 8.67338 13.6282 9.94184 13.5822 11.218H10.3289ZM15.6622 7.43136H19.36V11.218H15.0222C15.0663 9.93819 15.2572 8.66764 15.5911 7.43136H15.6622ZM20.7822 7.43136H24.48C24.814 8.66764 25.0048 9.93819 25.0489 11.218H20.7822V7.43136ZM19.36 12.6402V16.4091H15.5911C15.2559 15.1792 15.065 13.9144 15.0222 12.6402H19.36ZM20.7822 12.6402H25.0489C25.0062 13.9144 24.8153 15.1792 24.48 16.4091H20.7111L20.7822 12.6402ZM26.4889 12.6402H29.7245C29.6215 13.9547 29.259 15.2357 28.6578 16.4091H25.8845C26.1966 15.1755 26.3754 13.912 26.4178 12.6402H26.4889ZM26.4889 11.218C26.446 9.94045 26.2672 8.67107 25.9556 7.43136H28.6578C29.2705 8.6066 29.6336 9.89579 29.7245 11.218H26.4889ZM27.7511 6.00913H25.4578C25.0967 4.94842 24.5686 3.95218 23.8934 3.05802C25.3851 3.70515 26.6881 4.7206 27.68 6.00913H27.7511ZM23.9822 6.00913H20.7822V2.45358C21.5241 2.79344 22.1861 3.28568 22.7252 3.89827C23.2643 4.51086 23.6684 5.23008 23.9111 6.00913H23.9822ZM19.36 2.45358V6.00913H16.0889C16.3307 5.21036 16.7417 4.47301 17.2938 3.84721C17.846 3.22142 18.5265 2.72185 19.2889 2.38247L19.36 2.45358ZM14.0622 4.26691C14.666 3.80556 15.3224 3.41765 16.0178 3.11136C15.3459 4.01412 14.8182 5.01566 14.4534 6.08025H12.32C12.8128 5.39706 13.3993 4.78663 14.0622 4.26691ZM10.3289 12.6402H13.5822C13.6282 13.9106 13.8009 15.1731 14.0978 16.4091H11.4134C10.7875 15.2444 10.4178 13.9595 10.3289 12.6402ZM12.3378 17.8669H14.5422C14.9071 18.926 15.435 19.9216 16.1067 20.818C14.6193 20.1717 13.322 19.1558 12.3378 17.8669ZM16.0889 17.8669H19.2889V21.4225C18.5246 21.0812 17.843 20.5789 17.2907 19.9499C16.7384 19.3209 16.3285 18.5801 16.0889 17.778V17.8669ZM20.7111 21.4225V17.778H23.9111C23.6784 18.5898 23.2715 19.3412 22.7189 19.9798C22.1662 20.6184 21.4811 21.1289 20.7111 21.4758V21.4225ZM25.9378 19.5558C25.308 20.0498 24.6143 20.4564 23.8756 20.7647C24.5631 19.8626 25.0977 18.8536 25.4578 17.778H27.68C27.1748 18.4402 26.5896 19.0373 25.9378 19.5558Z" fill="#0078D4"/>
<path d="M19.2889 31.111H1.58221C1.0311 31.111 0.693324 30.2043 1.01332 29.7421L7.1111 20.8532C7.19461 20.7334 7.23816 20.5903 7.23555 20.4443V14.5777C7.23555 14.4834 7.19809 14.3929 7.13141 14.3263C7.06473 14.2596 6.97429 14.2221 6.87999 14.2221H6.55999C6.37611 14.2221 6.19976 14.1491 6.06973 14.0191C5.9397 13.889 5.86666 13.7127 5.86666 13.5288V13.2088C5.85667 13.1119 5.86719 13.0141 5.89753 12.9216C5.92788 12.8291 5.97736 12.744 6.04277 12.6719C6.10817 12.5998 6.18803 12.5422 6.27715 12.503C6.36626 12.4638 6.46264 12.4438 6.55999 12.4443H14.3289C14.5144 12.449 14.6907 12.5259 14.8203 12.6588C14.9498 12.7917 15.0223 12.9699 15.0222 13.1555V13.4755C15.027 13.5703 15.0127 13.6652 14.9802 13.7544C14.9478 13.8437 14.8977 13.9255 14.8331 13.9951C14.7685 14.0647 14.6906 14.1206 14.604 14.1596C14.5174 14.1986 14.4238 14.2199 14.3289 14.2221H13.9911C13.9452 14.2221 13.8998 14.2313 13.8576 14.2494C13.8154 14.2675 13.7774 14.294 13.7457 14.3273C13.7141 14.3605 13.6896 14.3999 13.6737 14.443C13.6579 14.486 13.6509 14.5318 13.6533 14.5777V20.4621C13.6479 20.603 13.6919 20.7414 13.7778 20.8532L19.8755 29.7421C20.1955 30.2221 19.8578 31.111 19.2889 31.111Z" fill="url(#paint0_linear_868_11287)"/>
<path d="M3.98224 28.7643L8.37335 22.3643C8.56456 22.0944 8.66425 21.7704 8.65779 21.4398V18.862C8.66241 18.7284 8.71875 18.6018 8.81494 18.5089C8.91113 18.416 9.03964 18.3642 9.17335 18.3643H11.6622C11.7959 18.3642 11.9245 18.416 12.0206 18.5089C12.1168 18.6018 12.1732 18.7284 12.1778 18.862V21.6176C12.1712 21.8384 12.2333 22.0558 12.3556 22.2398L16.8533 28.7643C16.8914 28.8227 16.9132 28.8903 16.9163 28.96C16.9195 29.0297 16.9039 29.099 16.8713 29.1607C16.8386 29.2223 16.7901 29.2741 16.7306 29.3107C16.6712 29.3473 16.6031 29.3673 16.5334 29.3687H4.30224C4.23248 29.3673 4.16436 29.3473 4.10495 29.3107C4.04553 29.2741 3.99698 29.2223 3.96434 29.1607C3.93169 29.099 3.91613 29.0297 3.91928 28.96C3.92243 28.8903 3.94417 28.8227 3.98224 28.7643Z" fill="white"/>
</g>
<defs>
<linearGradient id="paint0_linear_868_11287" x1="10.2578" y1="12.5866" x2="10.4533" y2="31.2532" gradientUnits="userSpaceOnUse">
<stop stop-color="#32D4F5"/>
<stop offset="0.32" stop-color="#31D1F3"/>
<stop offset="0.53" stop-color="#2EC9EB"/>
<stop offset="0.7" stop-color="#29BADE"/>
<stop offset="0.86" stop-color="#22A5CB"/>
<stop offset="1" stop-color="#198AB3"/>
</linearGradient>
<clipPath id="clip0_868_11287">
<rect width="32" height="32" fill="white"/>
</clipPath>
</defs>
</svg>
