<svg width="32" height="32" viewBox="0 0 32 32" fill="none" xmlns="http://www.w3.org/2000/svg">
<path d="M17.4755 0.924805C25.6889 0.924805 30.7022 7.11147 31.1111 15.3781C31.1256 15.6648 31.0815 15.9514 30.9817 16.2205C30.8819 16.4896 30.7284 16.7356 30.5305 16.9435C30.3326 17.1514 30.0944 17.3168 29.8305 17.4298C29.5667 17.5427 29.2826 17.6007 28.9955 17.6004H5.88442C5.60266 17.5937 5.32513 17.5303 5.0684 17.414C4.81168 17.2977 4.58102 17.1309 4.3902 16.9235C4.19938 16.7161 4.05231 16.4723 3.95778 16.2068C3.86324 15.9413 3.82317 15.6595 3.83997 15.3781C4.24886 7.11147 9.26219 0.924805 17.4755 0.924805Z" fill="#0078D4"/>
<path d="M5.93775 16.1958C5.76008 16.1735 5.59793 16.0833 5.48526 15.9441C5.37259 15.8049 5.31813 15.6275 5.3333 15.4491C5.63553 7.46688 11.1289 2.3291 17.4755 2.3291C23.8222 2.3291 29.3155 7.46688 29.7066 15.4491C29.7057 15.6443 29.6366 15.833 29.5111 15.9824C29.3713 16.1145 29.1878 16.1904 28.9955 16.1958H5.93775Z" fill="url(#paint0_linear_868_11290)"/>
<path d="M24.0889 6.73734C22.448 5.26593 20.3666 4.37838 18.1689 4.21289V8.88845C19.1788 9.01496 20.1333 9.42137 20.9244 10.0618L24.0889 6.73734Z" fill="#5EA0EF"/>
<path d="M10.8622 6.73734L14.0267 9.99067C14.8174 9.37305 15.7664 8.99101 16.7645 8.88845V4.21289C14.5713 4.37562 12.4947 5.26379 10.8622 6.73734Z" fill="#0078D4"/>
<path d="M21.92 11.0219C22.5593 11.8359 22.9704 12.8054 23.1111 13.8308H27.5911C27.4403 11.6002 26.5807 9.4762 25.1378 7.76855L21.92 11.0219Z" fill="#5EA0EF"/>
<path d="M13.0311 11.0219L9.86666 7.76855C8.41718 9.47225 7.5567 11.5985 7.41333 13.8308H11.8756C12.0146 12.8112 12.4124 11.8442 13.0311 11.0219Z" fill="#005BA1"/>
<path d="M25.7066 10.009C25.6319 9.83738 25.4954 9.70009 25.3241 9.62436C25.1529 9.54863 24.9595 9.53998 24.7822 9.60014L18.1866 12.2312L18.7022 13.5468L25.2978 10.9157C25.4681 10.8444 25.605 10.7112 25.6809 10.5429C25.7568 10.3747 25.766 10.1838 25.7066 10.009Z" fill="#005BA1"/>
<path d="M17.4755 15.1115C18.5359 15.1115 19.3955 14.2519 19.3955 13.1915C19.3955 12.1311 18.5359 11.2715 17.4755 11.2715C16.4152 11.2715 15.5555 12.1311 15.5555 13.1915C15.5555 14.2519 16.4152 15.1115 17.4755 15.1115Z" fill="#767676"/>
<path d="M19.0755 30.987H1.58221C1.0311 30.987 0.693324 30.0981 1.01332 29.6358L7.1111 20.8536C7.14967 20.7261 7.14967 20.59 7.1111 20.4625V14.6492C7.12143 14.6024 7.12221 14.554 7.11338 14.507C7.10456 14.4599 7.08632 14.4151 7.05976 14.3753C7.03319 14.3354 6.99885 14.3013 6.9588 14.2751C6.91874 14.2488 6.8738 14.231 6.82666 14.2225H6.48888C6.305 14.2225 6.12864 14.1495 5.99862 14.0194C5.86859 13.8894 5.79555 13.7131 5.79555 13.5292V13.2981C5.79555 13.1142 5.86859 12.9378 5.99862 12.8078C6.12864 12.6778 6.305 12.6047 6.48888 12.6047H14.2222C14.3139 12.6023 14.4052 12.6185 14.4904 12.6525C14.5756 12.6865 14.653 12.7375 14.7179 12.8024C14.7828 12.8672 14.8338 12.9446 14.8678 13.0299C14.9017 13.1151 14.918 13.2063 14.9155 13.2981V13.6003C14.9019 13.7732 14.8223 13.9342 14.6933 14.05C14.5642 14.1659 14.3956 14.2276 14.2222 14.2225H13.8489C13.7546 14.2225 13.6641 14.26 13.5975 14.3266C13.5308 14.3933 13.4933 14.4838 13.4933 14.5781V20.3914C13.4965 20.531 13.5397 20.6668 13.6178 20.7825L19.6622 29.5647C19.9644 30.0981 19.6444 30.987 19.0755 30.987Z" fill="url(#paint1_linear_868_11290)"/>
<path d="M3.89333 28.4441L8.26666 22.0441C8.45537 21.7798 8.555 21.4622 8.55111 21.1375V18.5419C8.55111 18.4052 8.60542 18.2741 8.70211 18.1774C8.79879 18.0807 8.92993 18.0264 9.06666 18.0264H11.5556C11.6224 18.0263 11.6887 18.0398 11.7502 18.0659C11.8118 18.092 11.8675 18.1303 11.914 18.1784C11.9604 18.2265 11.9967 18.2835 12.0207 18.346C12.0446 18.4084 12.0557 18.4751 12.0533 18.5419V21.333C12.0556 21.5497 12.1238 21.7605 12.2489 21.9375L16.7289 28.4441C16.7686 28.5011 16.7916 28.568 16.7955 28.6373C16.7993 28.7066 16.7837 28.7756 16.7504 28.8365C16.7172 28.8974 16.6676 28.9479 16.6073 28.9822C16.547 29.0166 16.4782 29.0334 16.4089 29.0308H4.19555C4.12769 29.0301 4.06132 29.0108 4.00357 28.9752C3.94582 28.9395 3.89888 28.8888 3.8678 28.8285C3.83673 28.7681 3.82268 28.7005 3.82718 28.6328C3.83167 28.565 3.85454 28.4998 3.89333 28.4441Z" fill="white"/>
<defs>
<linearGradient id="paint0_linear_868_11290" x1="17.4755" y1="2.82688" x2="17.4755" y2="15.8935" gradientUnits="userSpaceOnUse">
<stop stop-color="white"/>
<stop offset="0.56" stop-color="#FBFBFB"/>
<stop offset="1" stop-color="#F2F2F2"/>
</linearGradient>
<linearGradient id="paint1_linear_868_11290" x1="10.1511" y1="12.6758" x2="10.3467" y2="31.1292" gradientUnits="userSpaceOnUse">
<stop stop-color="#32D4F5"/>
<stop offset="0.32" stop-color="#31D1F3"/>
<stop offset="0.53" stop-color="#2EC9EB"/>
<stop offset="0.7" stop-color="#29BADE"/>
<stop offset="0.86" stop-color="#22A5CB"/>
<stop offset="1" stop-color="#198AB3"/>
</linearGradient>
</defs>
</svg>
