<svg width="32" height="32" viewBox="0 0 32 32" fill="none" xmlns="http://www.w3.org/2000/svg">
<g clip-path="url(#clip0_868_11284)">
<path d="M32 17.2271V14.0449L31.8222 13.8849L28.5511 12.7826L27.7155 10.6671L29.3333 7.32486L29.5111 6.95152L28.4444 5.86708L27.2 4.64041L26.7733 4.85375L23.5733 6.47152L21.4222 5.86708L20.0355 2.31152H16.8533L16.6933 2.47152L15.5911 5.72486L13.3511 6.56041L9.6533 4.78263L7.37775 7.00486L7.59108 7.43152L9.29775 10.6671C11.0129 9.63355 12.9844 9.10371 14.9866 9.13819C17.2595 9.14979 19.4743 9.85705 21.3333 11.1649C21.5567 11.3045 21.7705 11.4589 21.9733 11.6271C22.7204 12.2727 23.2897 13.0989 23.6266 14.0271C23.8749 14.6553 24.0016 15.3249 24 16.0004C24 16.7575 23.8503 17.5071 23.5595 18.2061C23.2687 18.9051 22.8425 19.5397 22.3056 20.0734C21.7686 20.6071 21.1314 21.0293 20.4306 21.3158C19.7298 21.6023 18.9793 21.7473 18.2222 21.7426C17.0328 21.7413 15.8725 21.3752 14.8977 20.6937C12.9731 22.5439 10.4517 23.647 7.78664 23.8049L7.44886 24.4982L9.72441 26.7915L10.1866 26.6671L13.3866 24.8893L15.5911 25.796L16.9955 29.636H20.1955L20.32 29.1915L21.4577 25.796L23.6266 24.8893L27.3777 26.6671L29.6355 24.4271L29.4222 24.0004L27.7689 20.8182L28.4444 18.596L32 17.2271Z" fill="url(#paint0_linear_868_11284)"/>
<path d="M7.11106 18.9334C6.26684 18.9378 5.43009 18.7751 4.649 18.4548C3.86792 18.1344 3.15794 17.6627 2.55995 17.0667C2.45184 17.0009 2.36049 16.9108 2.2931 16.8037C2.2257 16.6966 2.1841 16.5752 2.17156 16.4493C2.15903 16.3233 2.1759 16.1962 2.22086 16.0778C2.26581 15.9595 2.33763 15.8532 2.43064 15.7674C2.52365 15.6815 2.63532 15.6184 2.75686 15.5831C2.8784 15.5477 3.00649 15.541 3.13104 15.5636C3.2556 15.5861 3.37321 15.6373 3.47463 15.713C3.57606 15.7888 3.65851 15.887 3.7155 16.0001C4.16733 16.4305 4.70017 16.7668 5.28307 16.9896C5.86598 17.2124 6.48733 17.3172 7.11106 17.2978C7.72627 17.313 8.33838 17.2062 8.91205 16.9834C9.48571 16.7607 10.0095 16.4264 10.4533 16.0001C11.0535 15.4183 11.7634 14.9615 12.5416 14.6563C13.3198 14.3512 14.1509 14.2036 14.9866 14.2223C16.6838 14.1927 18.3247 14.8312 19.5555 16.0001C19.6365 16.0747 19.7016 16.165 19.7469 16.2655C19.7921 16.366 19.8166 16.4745 19.8189 16.5847C19.8211 16.6949 19.801 16.8044 19.7599 16.9066C19.7188 17.0088 19.6574 17.1017 19.5795 17.1796C19.5016 17.2575 19.4087 17.3189 19.3065 17.36C19.2043 17.4012 19.0948 17.4212 18.9846 17.419C18.8744 17.4167 18.7659 17.3922 18.6654 17.347C18.5649 17.3017 18.4746 17.2366 18.4 17.1556C17.5061 16.2692 16.2988 15.7709 15.04 15.7689C14.4184 15.7644 13.8022 15.8848 13.2281 16.1231C12.654 16.3613 12.1335 16.7124 11.6977 17.1556C11.0877 17.739 10.3685 18.1963 9.58148 18.5014C8.79443 18.8065 7.95493 18.9533 7.11106 18.9334Z" fill="#50E6FF"/>
<path d="M7.11108 15.6802C6.27172 15.6795 5.46661 15.3472 4.87108 14.7557C4.72799 14.6005 4.65048 14.3959 4.65477 14.1848C4.65907 13.9738 4.74483 13.7725 4.89412 13.6232C5.04342 13.4739 5.24466 13.3882 5.45575 13.3839C5.66683 13.3796 5.8714 13.4571 6.02664 13.6002C6.16809 13.7436 6.33707 13.8569 6.52344 13.9332C6.70981 14.0096 6.9097 14.0475 7.11108 14.0446C7.50384 14.0095 7.87627 13.8544 8.17775 13.6002C9.99425 11.8077 12.4436 10.8027 14.9955 10.8027C17.5475 10.8027 19.9968 11.8077 21.8133 13.6002C21.9564 13.7554 22.0339 13.96 22.0296 14.1711C22.0253 14.3822 21.9396 14.5834 21.7903 14.7327C21.641 14.882 21.4397 14.9678 21.2286 14.9721C21.0176 14.9763 20.813 14.8988 20.6578 14.7557C19.1426 13.2521 17.0946 12.4084 14.96 12.4084C12.8254 12.4084 10.7773 13.2521 9.2622 14.7557C8.67489 15.3053 7.91398 15.6323 7.11108 15.6802Z" fill="#50E6FF"/>
<path d="M7.11108 22.1873C5.83407 22.1965 4.56801 21.9513 3.38677 21.466C2.20553 20.9807 1.13277 20.265 0.231084 19.3607C0.0873824 19.2061 0.00750732 19.0028 0.00750732 18.7918C0.00750732 18.5807 0.0873824 18.3775 0.231084 18.2229C0.38743 18.0687 0.598178 17.9823 0.81775 17.9823C1.03732 17.9823 1.24807 18.0687 1.40442 18.2229C2.15112 18.9747 3.04065 19.5697 4.02069 19.9727C5.00072 20.3757 6.05146 20.5786 7.11108 20.5695C8.16854 20.571 9.21578 20.3627 10.1923 19.9569C11.1687 19.551 12.0551 18.9556 12.8 18.2051C13.3948 17.6749 14.1549 17.3671 14.9511 17.334C15.7828 17.3467 16.578 17.6775 17.1733 18.2584C17.3264 18.4118 17.4123 18.6196 17.4123 18.8362C17.4123 19.0529 17.3264 19.2607 17.1733 19.414C17.017 19.5682 16.8062 19.6546 16.5866 19.6546C16.3671 19.6546 16.1563 19.5682 16 19.414C15.8633 19.2741 15.7002 19.1628 15.5201 19.0865C15.3401 19.0102 15.1466 18.9704 14.9511 18.9695C14.5538 18.9997 14.1781 19.1625 13.8844 19.4318C12.0775 21.2062 9.6436 22.1964 7.11108 22.1873Z" fill="#32BEDD"/>
</g>
<defs>
<linearGradient id="paint0_linear_868_11284" x1="19.6977" y1="29.4546" x2="19.6977" y2="2.19223" gradientUnits="userSpaceOnUse">
<stop stop-color="#949494"/>
<stop offset="0.33" stop-color="#9B9B9B"/>
<stop offset="0.82" stop-color="#AEAFB0"/>
<stop offset="1" stop-color="#B6B8B9"/>
</linearGradient>
<clipPath id="clip0_868_11284">
<rect width="32" height="32" fill="white"/>
</clipPath>
</defs>
</svg>
