<svg width="32" height="32" viewBox="0 0 32 32" fill="none" xmlns="http://www.w3.org/2000/svg">
<path d="M24.8889 12.6223C25.2307 12.282 25.502 11.8775 25.6871 11.4321C25.8722 10.9867 25.9675 10.5091 25.9675 10.0267C25.9675 9.54436 25.8722 9.06675 25.6871 8.62133C25.502 8.17591 25.2307 7.77144 24.8889 7.43115L18.5955 1.08449C18.2553 0.742625 17.8508 0.471353 17.4054 0.28625C16.9599 0.101147 16.4823 0.00585937 16 0.00585938C15.5176 0.00585937 15.04 0.101147 14.5946 0.28625C14.1492 0.471353 13.7447 0.742625 13.4044 1.08449L7.1111 7.43115C6.76924 7.77144 6.49796 8.17591 6.31286 8.62133C6.12776 9.06675 6.03247 9.54436 6.03247 10.0267C6.03247 10.5091 6.12776 10.9867 6.31286 11.4321C6.49796 11.8775 6.76924 12.282 7.1111 12.6223L12.4444 17.9556C12.541 18.0507 12.6175 18.1642 12.6694 18.2894C12.7213 18.4146 12.7476 18.549 12.7467 18.6845V28.4445C12.7486 28.7785 12.8828 29.0981 13.12 29.3334L15.52 31.7334C15.5949 31.8142 15.6856 31.8786 15.7866 31.9227C15.8875 31.9667 15.9965 31.9895 16.1067 31.9895C16.2168 31.9895 16.3258 31.9667 16.4267 31.9227C16.5277 31.8786 16.6184 31.8142 16.6933 31.7334L19.0222 29.4045L20.3911 28.0178C20.4374 27.9746 20.4743 27.9223 20.4995 27.8642C20.5248 27.8061 20.5378 27.7434 20.5378 27.68C20.5378 27.6167 20.5248 27.554 20.4995 27.4959C20.4743 27.4378 20.4374 27.3855 20.3911 27.3423L19.4133 26.3645C19.3628 26.3163 19.3225 26.2584 19.295 26.1942C19.2675 26.1301 19.2533 26.061 19.2533 25.9912C19.2533 25.9213 19.2675 25.8522 19.295 25.7881C19.3225 25.7239 19.3628 25.666 19.4133 25.6178L20.3911 24.6223C20.4374 24.579 20.4743 24.5267 20.4995 24.4686C20.5248 24.4105 20.5378 24.3478 20.5378 24.2845C20.5378 24.2211 20.5248 24.1585 20.4995 24.1004C20.4743 24.0423 20.4374 23.99 20.3911 23.9467L19.4133 22.9512C19.3632 22.9046 19.3233 22.8482 19.296 22.7855C19.2687 22.7228 19.2546 22.6551 19.2546 22.5867C19.2546 22.5183 19.2687 22.4507 19.296 22.388C19.3233 22.3253 19.3632 22.2689 19.4133 22.2223L20.3911 21.2267C20.4374 21.1835 20.4743 21.1312 20.4995 21.0731C20.5248 21.015 20.5378 20.9523 20.5378 20.8889C20.5378 20.8256 20.5248 20.7629 20.4995 20.7048C20.4743 20.6467 20.4374 20.5944 20.3911 20.5512L19.0222 19.1645V18.6667L24.8889 12.6223ZM16 2.61338C16.4164 2.60986 16.8244 2.73035 17.1721 2.9595C17.5198 3.18865 17.7914 3.51609 17.9524 3.90012C18.1134 4.28416 18.1564 4.70741 18.076 5.11599C17.9956 5.52457 17.7955 5.89999 17.501 6.19443C17.2066 6.48888 16.8312 6.68903 16.4226 6.76941C16.014 6.84978 15.5908 6.80674 15.2067 6.64577C14.8227 6.48479 14.4953 6.21317 14.2661 5.86548C14.037 5.51779 13.9165 5.10977 13.92 4.69338C13.92 4.42023 13.9738 4.14975 14.0783 3.89739C14.1828 3.64504 14.3361 3.41574 14.5292 3.22259C14.9193 2.83252 15.4483 2.61338 16 2.61338Z" fill="url(#paint0_radial_868_11293)"/>
<path opacity="0.75" d="M14.3467 28.676C14.4098 28.742 14.4918 28.7869 14.5814 28.8047C14.671 28.8224 14.7638 28.8121 14.8474 28.7752C14.9309 28.7383 15.001 28.6765 15.0482 28.5984C15.0954 28.5202 15.1174 28.4294 15.1111 28.3382V20.3916C15.1151 20.3131 15.0972 20.235 15.0596 20.166C15.0219 20.097 14.9659 20.0397 14.8978 20.0005C14.8293 19.954 14.7493 19.9276 14.6666 19.9242C14.584 19.9208 14.502 19.9405 14.4299 19.9812C14.3579 20.0218 14.2986 20.0818 14.2588 20.1543C14.2189 20.2268 14.2001 20.309 14.2045 20.3916V28.3382C14.2053 28.4652 14.2565 28.5867 14.3467 28.676Z" fill="#FF9300"/>
<path opacity="0.75" d="M20.7822 9.54688H11.5022C11.188 9.54688 10.9333 9.80158 10.9333 10.1158V10.2047C10.9333 10.5188 11.188 10.7735 11.5022 10.7735H20.7822C21.0964 10.7735 21.3511 10.5188 21.3511 10.2047V10.1158C21.3511 9.80158 21.0964 9.54688 20.7822 9.54688Z" fill="#FF9300"/>
<path opacity="0.75" d="M20.7822 11.5381H11.5022C11.188 11.5381 10.9333 11.7928 10.9333 12.107V12.1959C10.9333 12.5101 11.188 12.7648 11.5022 12.7648H20.7822C21.0964 12.7648 21.3511 12.5101 21.3511 12.1959V12.107C21.3511 11.7928 21.0964 11.5381 20.7822 11.5381Z" fill="#FF9300"/>
<defs>
<radialGradient id="paint0_radial_868_11293" cx="0" cy="0" r="1" gradientUnits="userSpaceOnUse" gradientTransform="translate(13.5289 14.4733) scale(18.683)">
<stop offset="0.27" stop-color="#FFD70F"/>
<stop offset="0.49" stop-color="#FFCB12"/>
<stop offset="0.88" stop-color="#FEAC19"/>
<stop offset="1" stop-color="#FEA11B"/>
</radialGradient>
</defs>
</svg>
