<svg width="32" height="32" viewBox="0 0 32 32" fill="none" xmlns="http://www.w3.org/2000/svg">
<path d="M16 9.13812C9.70665 9.13812 4.60443 7.36034 4.60443 5.01367V26.987C4.60443 29.2448 9.61776 31.0759 15.84 31.1115H16C22.2933 31.1115 27.3955 29.3337 27.3955 26.987V5.01367C27.3955 7.30701 22.2933 9.13812 16 9.13812Z" fill="url(#paint0_linear_868_11297)"/>
<path d="M27.3955 5.01312C27.3955 7.30645 22.2933 9.13756 16 9.13756C9.70665 9.13756 4.60443 7.35978 4.60443 5.01312C4.60443 2.66645 9.70665 0.888672 16 0.888672C22.2933 0.888672 27.3955 2.66645 27.3955 5.01312Z" fill="#E8E8E8"/>
<path d="M24.7467 4.67583C24.7467 6.13361 20.8178 7.30694 16 7.30694C11.1822 7.30694 7.25336 6.13361 7.25336 4.67583C7.25336 3.21806 11.1822 2.0625 16 2.0625C20.8178 2.0625 24.7467 3.23583 24.7467 4.67583Z" fill="#50E6FF"/>
<path d="M16 5.33345C13.6539 5.27353 11.3148 5.61627 9.08447 6.34679C11.3169 7.06373 13.6567 7.38853 16 7.30679C18.3481 7.37557 20.6897 7.02643 22.9156 6.27567C20.6789 5.57895 18.3416 5.26049 16 5.33345Z" fill="#198AB3"/>
<path d="M22.9333 20.2664V14.2219H21.3333V21.5641H25.7066V20.2664H22.9333ZM10.24 17.2975C9.90963 17.1646 9.60334 16.9784 9.33331 16.7464C9.25841 16.672 9.19932 16.5833 9.1596 16.4855C9.11988 16.3878 9.10036 16.283 9.1022 16.1775C9.10038 16.0717 9.12554 15.9673 9.17531 15.8739C9.22508 15.7806 9.29782 15.7015 9.38665 15.6441C9.6053 15.4929 9.86773 15.4179 10.1333 15.4308C10.7657 15.4088 11.3886 15.5895 11.9111 15.9464V14.4175C11.3421 14.2101 10.7386 14.1136 10.1333 14.133C9.43584 14.0959 8.74821 14.3104 8.19553 14.7375C7.95464 14.9232 7.76133 15.1635 7.63151 15.4386C7.50169 15.7137 7.43909 16.0157 7.44887 16.3197C7.44887 17.2264 8.01776 17.9375 9.22664 18.4708C9.61928 18.6374 9.98955 18.8524 10.3289 19.1108C10.412 19.1806 10.4789 19.2676 10.5249 19.3658C10.571 19.4641 10.5951 19.5712 10.5955 19.6797C10.5956 19.7876 10.5698 19.8939 10.5203 19.9898C10.4708 20.0857 10.3991 20.1683 10.3111 20.2308C10.0727 20.3811 9.79191 20.4498 9.51109 20.4264C8.79603 20.4205 8.10744 20.1551 7.57331 19.6797V21.333C8.1604 21.6358 8.81539 21.7827 9.47553 21.7597C10.2207 21.8039 10.9592 21.5974 11.5733 21.173C11.7902 20.9676 11.9562 20.7144 12.058 20.4336C12.1599 20.1527 12.1948 19.852 12.16 19.5553C12.1685 19.1001 12.0105 18.6576 11.7155 18.3108C11.3002 17.8733 10.7974 17.5281 10.24 17.2975ZM19.5555 20.1241C19.9591 19.448 20.1626 18.6713 20.1422 17.8841C20.102 17.2178 19.9007 16.5711 19.5555 15.9997C19.278 15.4445 18.8458 14.9815 18.3111 14.6664C17.7692 14.3592 17.1562 14.1998 16.5333 14.2041C15.8619 14.1894 15.1988 14.3552 14.6133 14.6841C14.0645 14.9904 13.6143 15.4468 13.3155 15.9997C13.0008 16.6283 12.8423 17.3235 12.8533 18.0264C12.857 18.6439 13.003 19.2522 13.28 19.8041C13.5513 20.3533 13.9778 20.8107 14.5066 21.1197C15.0436 21.4472 15.6559 21.6309 16.2844 21.653L17.8133 23.4308H19.9644L17.7778 21.4753C18.5141 21.2544 19.1456 20.7745 19.5555 20.1241ZM17.7778 19.6797C17.6159 19.8807 17.4097 20.0415 17.1752 20.1494C16.9408 20.2574 16.6846 20.3096 16.4266 20.3019C16.1668 20.3103 15.9087 20.2566 15.6737 20.1453C15.4387 20.034 15.2337 19.8683 15.0755 19.6619C14.6997 19.1485 14.5172 18.519 14.56 17.8841C14.5187 17.2495 14.7011 16.6205 15.0755 16.1064C15.2429 15.9001 15.4543 15.734 15.6942 15.6201C15.9342 15.5063 16.1966 15.4477 16.4622 15.4486C16.7218 15.4374 16.9801 15.4918 17.2131 15.6068C17.4461 15.7217 17.6464 15.8935 17.7955 16.1064C18.1458 16.6305 18.3144 17.255 18.2755 17.8841C18.3376 18.5236 18.1602 19.1634 17.7778 19.6797Z" fill="url(#paint1_radial_868_11297)"/>
<defs>
<linearGradient id="paint0_linear_868_11297" x1="4.60443" y1="18.0626" x2="27.3955" y2="18.0626" gradientUnits="userSpaceOnUse">
<stop stop-color="#005BA1"/>
<stop offset="0.07" stop-color="#0060A9"/>
<stop offset="0.36" stop-color="#0071C8"/>
<stop offset="0.52" stop-color="#0078D4"/>
<stop offset="0.64" stop-color="#0074CD"/>
<stop offset="0.82" stop-color="#006ABB"/>
<stop offset="1" stop-color="#005BA1"/>
</linearGradient>
<radialGradient id="paint1_radial_868_11297" cx="0" cy="0" r="1" gradientUnits="userSpaceOnUse" gradientTransform="translate(16.64 18.7908) scale(12.5689 12.5689)">
<stop stop-color="#F2F2F2"/>
<stop offset="0.58" stop-color="#EEEEEE"/>
<stop offset="1" stop-color="#E6E6E6"/>
</radialGradient>
</defs>
</svg>
