<svg width="32" height="32" viewBox="0 0 32 32" fill="none" xmlns="http://www.w3.org/2000/svg">
<g clip-path="url(#clip0_868_11283)">
<path d="M23.0933 8.23145H8.99555C8.593 8.23145 8.26666 8.55778 8.26666 8.96033V23.0581C8.26666 23.4607 8.593 23.787 8.99555 23.787H23.0933C23.4959 23.787 23.8222 23.4607 23.8222 23.0581V8.96033C23.8222 8.55778 23.4959 8.23145 23.0933 8.23145Z" fill="url(#paint0_linear_868_11283)"/>
<path d="M20.9422 21.6536L28.7289 16.1958C28.7619 16.175 28.7892 16.1461 28.8081 16.1119C28.8269 16.0777 28.8368 16.0393 28.8368 16.0002C28.8368 15.9612 28.8269 15.9228 28.8081 15.8886C28.7892 15.8544 28.7619 15.8255 28.7289 15.8047L20.9422 10.3647C20.9072 10.3372 20.865 10.3205 20.8207 10.3164C20.7763 10.3123 20.7318 10.3212 20.6924 10.3418C20.6529 10.3625 20.6203 10.3941 20.5984 10.4328C20.5765 10.4716 20.5662 10.5158 20.5689 10.5602V13.6891H8.26666V18.3114H20.5689V21.458C20.5722 21.5 20.5861 21.5405 20.6093 21.5756C20.6325 21.6107 20.6642 21.6394 20.7015 21.659C20.7388 21.6785 20.7805 21.6882 20.8226 21.6873C20.8647 21.6864 20.9058 21.6748 20.9422 21.6536Z" fill="#C3F1FF"/>
<path d="M30.2222 31.2887H1.77778C1.5326 31.2887 1.29746 31.1913 1.1241 31.018C0.950729 30.8446 0.853333 30.6094 0.853333 30.3643V1.63538C0.853333 1.3902 0.950729 1.15507 1.1241 0.981701C1.29746 0.808334 1.5326 0.710938 1.77778 0.710938H30.2222C30.4674 0.710938 30.7025 0.808334 30.8759 0.981701C31.0493 1.15507 31.1467 1.3902 31.1467 1.63538V10.6665C31.1492 10.7524 31.1278 10.8372 31.0848 10.9116C31.0418 10.986 30.9789 11.0469 30.9032 11.0875C30.8275 11.1281 30.742 11.1468 30.6562 11.1416C30.5705 11.1363 30.4879 11.1072 30.4178 11.0576L28.64 9.81316C28.5788 9.76811 28.5291 9.70916 28.4951 9.64117C28.4611 9.57317 28.4437 9.49807 28.4444 9.42205V3.55538H3.66222V28.4443H28.3378V22.7554C28.3384 22.6821 28.3565 22.61 28.3905 22.5451C28.4245 22.4802 28.4735 22.4243 28.5333 22.382L30.3111 21.0843C30.3813 21.0347 30.4638 21.0056 30.5496 21.0003C30.6353 20.995 30.7208 21.0138 30.7965 21.0544C30.8722 21.095 30.9351 21.1559 30.9781 21.2303C31.0211 21.3046 31.0425 21.3895 31.04 21.4754V30.3643C31.0415 30.592 30.9589 30.8124 30.808 30.983C30.6571 31.1536 30.4485 31.2624 30.2222 31.2887Z" fill="#949494"/>
<path d="M28.3378 3.55566V9.33344C28.3371 9.40946 28.3544 9.48456 28.3884 9.55256C28.4224 9.62056 28.4721 9.67951 28.5333 9.72455L30.3111 10.969C30.3737 11.036 30.4547 11.0829 30.544 11.1038C30.6332 11.1246 30.7267 11.1185 30.8124 11.0861C30.8982 11.0537 30.9724 10.9965 31.0256 10.9219C31.0787 10.8472 31.1085 10.7584 31.1111 10.6668V3.55566H28.3378Z" fill="#767676"/>
<path d="M28.3378 28.4441V22.6663C28.3369 22.5927 28.3544 22.5201 28.3885 22.455C28.4226 22.3898 28.4724 22.3341 28.5333 22.293L30.3111 21.0307C30.3825 20.9873 30.464 20.9633 30.5475 20.9611C30.631 20.9589 30.7137 20.9785 30.7873 21.018C30.8609 21.0575 30.923 21.1155 30.9673 21.1864C31.0116 21.2572 31.0367 21.3384 31.04 21.4218V28.533L28.3378 28.4441Z" fill="#767676"/>
</g>
<defs>
<linearGradient id="paint0_linear_868_11283" x1="16.0533" y1="23.787" x2="16.0533" y2="8.23145" gradientUnits="userSpaceOnUse">
<stop stop-color="#198AB3"/>
<stop offset="0.4" stop-color="#25AED3"/>
<stop offset="0.78" stop-color="#2FCAEC"/>
<stop offset="1" stop-color="#32D4F5"/>
</linearGradient>
<clipPath id="clip0_868_11283">
<rect width="32" height="32" fill="white"/>
</clipPath>
</defs>
</svg>
