<svg width="32" height="32" viewBox="0 0 32 32" fill="none" xmlns="http://www.w3.org/2000/svg">
<g clip-path="url(#clip0_868_11306)">
<path d="M0.723572 11.7705C1.64764 8.42919 3.64189 5.48305 6.40069 3.38366C9.15948 1.28427 12.5306 0.147461 15.9973 0.147461C19.4641 0.147461 22.8352 1.28427 25.594 3.38366C28.3528 5.48305 30.3471 8.42919 31.2711 11.7705H28.2489C27.3692 9.21968 25.7155 7.00687 23.5184 5.44051C21.3213 3.87415 18.6903 3.0323 15.992 3.0323C13.2937 3.0323 10.6627 3.87415 8.4656 5.44051C6.26851 7.00687 4.61485 9.21968 3.73513 11.7705H0.723572ZM28.192 20.4159C27.2845 22.9215 25.6271 25.0868 23.4453 26.6171C21.2635 28.1474 18.6632 28.9684 15.9982 28.9684C13.3333 28.9684 10.733 28.1474 8.55118 26.6171C6.36937 25.0868 4.71197 22.9215 3.80446 20.4159H0.776905C1.73284 23.7133 3.73382 26.6112 6.47875 28.6734C9.22368 30.7356 12.5641 31.8506 15.9973 31.8506C19.4306 31.8506 22.771 30.7356 25.516 28.6734C28.2609 26.6112 30.2619 23.7133 31.2178 20.4159H28.192Z" fill="url(#paint0_linear_868_11306)"/>
<path d="M17.1378 23.362L13.3333 14.8091L11.7333 17.5736H1.94312C1.56074 17.5736 1.19402 17.4216 0.92363 17.1513C0.653244 16.8809 0.501343 16.5142 0.501343 16.1318C0.501343 15.7494 0.653244 15.3827 0.92363 15.1123C1.19402 14.8419 1.56074 14.69 1.94312 14.69H10.0729L13.6729 8.46777L17.8187 17.794L20.2667 14.6598L30.0622 14.6811C30.4446 14.6811 30.8113 14.833 31.0817 15.1034C31.3521 15.3738 31.504 15.7405 31.504 16.1229C31.504 16.5053 31.3521 16.872 31.0817 17.1424C30.8113 17.4128 30.4446 17.5647 30.0622 17.5647L21.6782 17.5451L17.1378 23.362Z" fill="#50E6FF"/>
</g>
<defs>
<linearGradient id="paint0_linear_868_11306" x1="15.9982" y1="0.14385" x2="15.9982" y2="31.8559" gradientUnits="userSpaceOnUse">
<stop stop-color="#B3B2B3"/>
<stop offset="0.216" stop-color="#AFAEAF"/>
<stop offset="0.44" stop-color="#A2A2A2"/>
<stop offset="0.577" stop-color="#979797"/>
</linearGradient>
<clipPath id="clip0_868_11306">
<rect width="32" height="32" fill="white"/>
</clipPath>
</defs>
</svg>
