<svg width="32" height="32" viewBox="0 0 32 32" fill="none" xmlns="http://www.w3.org/2000/svg">
<g clip-path="url(#clip0_868_11282)">
<path d="M27.0756 6.68445L24.6222 4.30223H24.3733L21.0667 6.08L18.7022 5.03112L17.2089 0.782227L13.7778 0.817782L13.6178 1.29778L12.4445 4.99556L10.08 6.00889L6.06224 4.23112L3.68001 6.63112L3.9289 7.11112L5.70668 10.5422L4.76446 12.9067L0.640015 14.4533V17.92L1.12001 18.08L4.81779 19.2178L5.83113 21.5822L4.05335 25.6178L6.52446 28.0178L6.9689 27.7689L10.4 25.9911L11.5022 27.3422L14.3467 31.0933H17.7778L17.9378 30.6133L19.1645 28.4445L21.12 27.4667L24.9956 27.2356L27.4133 24.7645V24.5333L27.8933 22.7556L29.2978 18.5422L27.0756 6.68445ZM15.7689 23.6978C14.2286 23.7012 12.722 23.2468 11.4406 22.3921C10.1592 21.5374 9.16074 20.321 8.57214 18.8976C7.98355 17.4742 7.83137 15.9079 8.13493 14.3978C8.43849 12.8877 9.1841 11.5019 10.277 10.4165C11.3699 9.33115 12.7608 8.59513 14.273 8.302C15.7852 8.00887 17.3503 8.17186 18.7696 8.77027C20.189 9.36868 21.3984 10.3755 22.2442 11.6628C23.09 12.9501 23.5341 14.4598 23.52 16C23.5059 18.0465 22.6831 20.0043 21.231 21.4464C19.7789 22.8885 17.8154 23.6978 15.7689 23.6978Z" fill="url(#paint0_linear_868_11282)"/>
<path d="M21.12 15.8046C21.12 19.2535 16.8711 22.0268 15.9467 22.5957C15.8912 22.6225 15.8305 22.6364 15.7689 22.6364C15.7073 22.6364 15.6466 22.6225 15.5911 22.5957C14.6667 22.0268 10.4356 19.2535 10.4356 15.8046V11.6624C10.4355 11.5758 10.4686 11.4925 10.5281 11.4296C10.5877 11.3667 10.6691 11.3291 10.7556 11.3246C14.0622 11.3246 13.2978 9.81348 15.7689 9.81348C18.24 9.81348 17.5467 11.2357 20.7822 11.3246C20.8704 11.3289 20.9539 11.3659 21.0163 11.4283C21.0787 11.4907 21.1157 11.5742 21.12 11.6624V15.8046Z" fill="#32BEDD"/>
<path d="M20.6756 15.84C20.6756 19.0045 16.7822 21.5467 15.9289 22.0622C15.8797 22.0887 15.8247 22.1025 15.7689 22.1025C15.713 22.1025 15.6581 22.0887 15.6089 22.0622C14.7556 21.5467 10.88 19.0045 10.88 15.84V12.0356C10.8799 11.9584 10.9093 11.8841 10.9621 11.8279C11.015 11.7717 11.0874 11.7379 11.1645 11.7333C14.2045 11.7333 13.5111 10.3467 15.7689 10.3467C18.0267 10.3467 17.3511 11.6622 20.3733 11.7333C20.4521 11.7376 20.5265 11.7708 20.5823 11.8266C20.6381 11.8824 20.6713 11.9568 20.6756 12.0356V15.84Z" fill="#50E6FF"/>
<path d="M17.92 15.2176H17.6178V14.222C17.6175 13.7151 17.4272 13.2267 17.0845 12.8531C16.9211 12.6667 16.7183 12.5189 16.4908 12.4205C16.2632 12.3221 16.0166 12.2755 15.7689 12.2842C15.5221 12.2826 15.2777 12.3323 15.0512 12.4302C14.8248 12.5282 14.6211 12.6722 14.4533 12.8531C14.1106 13.2267 13.9203 13.7151 13.92 14.222V15.2887H13.6178C13.5518 15.2887 13.4885 15.3149 13.4418 15.3616C13.3951 15.4082 13.3689 15.4716 13.3689 15.5376V18.3109C13.3734 18.3738 13.4016 18.4326 13.4478 18.4755C13.494 18.5184 13.5547 18.5422 13.6178 18.542H17.92C17.9518 18.5445 17.9838 18.5403 18.0139 18.5298C18.044 18.5193 18.0717 18.5026 18.095 18.4809C18.1184 18.4592 18.1371 18.4329 18.1498 18.4036C18.1625 18.3744 18.169 18.3428 18.1689 18.3109V15.4665C18.1689 15.4004 18.1427 15.3371 18.096 15.2905C18.0493 15.2438 17.986 15.2176 17.92 15.2176ZM16.7467 15.2176H14.7911V14.222C14.7898 14.0838 14.8158 13.9466 14.8677 13.8185C14.9196 13.6904 14.9962 13.5737 15.0933 13.4753C15.1791 13.3812 15.2833 13.3057 15.3996 13.2537C15.5158 13.2017 15.6415 13.1742 15.7689 13.1731C15.8966 13.172 16.023 13.1984 16.1396 13.2506C16.2562 13.3027 16.3602 13.3794 16.4445 13.4753L16.5689 13.6176C16.6813 13.7994 16.7427 14.0082 16.7467 14.222V15.2176Z" fill="#F2F2F2"/>
<path d="M25.1733 4.24936L26.4356 1.63603C26.4536 1.60369 26.4646 1.56795 26.4681 1.5311C26.4715 1.49424 26.4673 1.45707 26.4556 1.42195C26.4439 1.38683 26.425 1.35454 26.4001 1.32712C26.3752 1.2997 26.3449 1.27776 26.3111 1.2627H26.1689L16.3733 2.00936C16.301 2.01829 16.2349 2.05461 16.1886 2.11084C16.1423 2.16707 16.1193 2.23892 16.1244 2.31158C16.1095 2.35781 16.1095 2.40758 16.1244 2.45381L21.6711 10.4538C21.7239 10.5038 21.7939 10.5317 21.8667 10.5317C21.9394 10.5317 22.0094 10.5038 22.0622 10.4538L22.1511 10.3471L23.2533 8.05381C23.2876 7.98874 23.3444 7.93839 23.4132 7.91221C23.4819 7.88603 23.5578 7.88581 23.6267 7.91158C24.8383 8.89944 25.8308 10.1289 26.5409 11.5216C27.251 12.9143 27.6632 14.4397 27.7511 16.0005C27.7841 17.5009 27.5209 18.993 26.9766 20.3915C26.4322 21.7901 25.6174 23.0675 24.5787 24.1508C23.5401 25.234 22.298 26.1018 20.9236 26.7044C19.5491 27.307 18.0693 27.6327 16.5689 27.6627C14.6525 27.7001 12.7555 27.2732 11.04 26.4183C10.9758 26.3854 10.9016 26.3782 10.8323 26.398C10.763 26.4178 10.7038 26.4631 10.6667 26.5249L9.20889 29.156C9.17606 29.2202 9.16882 29.2944 9.18862 29.3637C9.20842 29.433 9.25379 29.4922 9.31556 29.5294C12.8686 31.3628 17.0025 31.717 20.8157 30.5148C24.6289 29.3125 27.8121 26.6514 29.6711 23.1116C30.8442 20.8777 31.4257 18.3806 31.36 15.8583C31.2392 13.6438 30.6279 11.4839 29.5703 9.53467C28.5126 7.58541 27.0351 5.89551 25.2444 4.58714C25.1995 4.54483 25.1686 4.48979 25.1559 4.4294C25.1432 4.36902 25.1493 4.30619 25.1733 4.24936Z" fill="#86D633"/>
</g>
<defs>
<linearGradient id="paint0_linear_868_11282" x1="14.9511" y1="31.0933" x2="14.9511" y2="0.782227" gradientUnits="userSpaceOnUse">
<stop stop-color="#0078D4"/>
<stop offset="0.06" stop-color="#0A7CD7"/>
<stop offset="0.34" stop-color="#2E8CE1"/>
<stop offset="0.59" stop-color="#4897E9"/>
<stop offset="0.82" stop-color="#589EED"/>
<stop offset="1" stop-color="#5EA0EF"/>
</linearGradient>
<clipPath id="clip0_868_11282">
<rect width="32" height="32" fill="white"/>
</clipPath>
</defs>
</svg>
