<svg width="32" height="32" viewBox="0 0 32 32" fill="none" xmlns="http://www.w3.org/2000/svg">
<g clip-path="url(#clip0_868_8856)">
<path d="M25.4045 30.0446C25.7218 30.046 26.0363 29.9849 26.33 29.8646C26.6236 29.7444 26.8907 29.5674 27.116 29.3438C27.3412 29.1202 27.5201 28.8545 27.6425 28.5617C27.7649 28.2689 27.8284 27.9549 27.8293 27.6375C27.8294 27.5401 27.824 27.4428 27.8133 27.346C26.864 19.7513 22.5298 13.5664 14.2631 13.5664C5.85246 13.5664 1.5129 18.8037 0.668458 27.3655C0.63548 27.6829 0.665389 28.0037 0.756475 28.3096C0.847562 28.6155 0.99804 28.9004 1.19931 29.148C1.40057 29.3957 1.64868 29.6012 1.92944 29.753C2.2102 29.9047 2.51811 29.9995 2.83557 30.0322C2.91557 30.0322 2.99735 30.0446 3.07912 30.0446H25.4045Z" fill="url(#paint0_linear_868_8856)"/>
<path opacity="0.8" d="M14.2631 15.3675C12.7981 15.3706 11.3636 14.9488 10.1334 14.1533L14.2223 24.82L18.2774 14.2227C17.0731 14.9731 15.6821 15.3699 14.2631 15.3675Z" fill="white"/>
<path d="M14.2631 15.3691C18.4723 15.3691 21.8845 11.9569 21.8845 7.7478C21.8845 3.53865 18.4723 0.126465 14.2631 0.126465C10.054 0.126465 6.64178 3.53865 6.64178 7.7478C6.64178 11.9569 10.054 15.3691 14.2631 15.3691Z" fill="url(#paint1_linear_868_8856)"/>
<path d="M28.7609 23.2231C27.8799 24.0147 26.7373 24.4526 25.5529 24.4526C24.3685 24.4526 23.2259 24.0147 22.3449 23.2231L21.9467 31.1876C21.9402 31.3157 21.9728 31.4428 22.0401 31.5519C22.1075 31.6611 22.2064 31.7472 22.3238 31.7989C22.4412 31.8505 22.5716 31.8653 22.6976 31.8412C22.8236 31.8172 22.9393 31.7554 23.0293 31.664L25.5182 30.0871L27.9876 31.6871C28.0771 31.7786 28.1923 31.8407 28.3179 31.8653C28.4435 31.8899 28.5736 31.8759 28.691 31.8251C28.8085 31.7743 28.9078 31.689 28.9758 31.5806C29.0438 31.4722 29.0774 31.3457 29.072 31.2178L28.7609 23.2231Z" fill="url(#paint2_linear_868_8856)"/>
<path d="M25.6178 24.8876C28.7803 24.8876 31.344 22.3151 31.344 19.1418C31.344 15.9685 28.7803 13.396 25.6178 13.396C22.4553 13.396 19.8916 15.9685 19.8916 19.1418C19.8916 22.3151 22.4553 24.8876 25.6178 24.8876Z" fill="#A67AF4"/>
<path d="M25.6178 23.5004C28.0174 23.5004 29.9627 21.5488 29.9627 19.1413C29.9627 16.7339 28.0174 14.7822 25.6178 14.7822C23.2182 14.7822 21.2729 16.7339 21.2729 19.1413C21.2729 21.5488 23.2182 23.5004 25.6178 23.5004Z" fill="#FFE452"/>
</g>
<defs>
<linearGradient id="paint0_linear_868_8856" x1="14.2418" y1="11.554" x2="14.2418" y2="34.1175" gradientUnits="userSpaceOnUse">
<stop offset="0.225" stop-color="#32D4F5"/>
<stop offset="0.473" stop-color="#31D1F3"/>
<stop offset="0.633" stop-color="#2EC9EB"/>
<stop offset="0.999" stop-color="#198AB3"/>
<stop offset="1" stop-color="#198AB3"/>
</linearGradient>
<linearGradient id="paint1_linear_868_8856" x1="13.5982" y1="-0.540202" x2="15.2445" y2="19.9451" gradientUnits="userSpaceOnUse">
<stop offset="0.225" stop-color="#32D4F5"/>
<stop offset="0.473" stop-color="#31D1F3"/>
<stop offset="0.633" stop-color="#2EC9EB"/>
<stop offset="0.999" stop-color="#198AB3"/>
<stop offset="1" stop-color="#198AB3"/>
</linearGradient>
<linearGradient id="paint2_linear_868_8856" x1="25.5093" y1="31.8738" x2="25.5093" y2="23.2231" gradientUnits="userSpaceOnUse">
<stop stop-color="#A67AF4"/>
<stop offset="0.999" stop-color="#773ADC"/>
</linearGradient>
<clipPath id="clip0_868_8856">
<rect width="32" height="32" fill="white"/>
</clipPath>
</defs>
</svg>
