<svg width="32" height="32" viewBox="0 0 32 32" fill="none" xmlns="http://www.w3.org/2000/svg">
<g clip-path="url(#clip0_868_8854)">
<path d="M1.75999 17.7777L15.8222 26.9155L30.1511 17.7422L31.9467 19.84L15.8222 30.2222L-0.0533447 19.84L1.75999 17.7777Z" fill="#50E6FF"/>
<path d="M2.8089 16.6043L15.8222 1.10205L29.1022 16.6221L15.8222 25.0132L2.8089 16.6043Z" fill="white"/>
<path d="M15.8222 1.10205V25.0132L2.8089 16.6043L15.8222 1.10205Z" fill="#50E6FF"/>
<path d="M15.8222 1.10205V25.0132L29.1022 16.6221L15.8222 1.10205Z" fill="url(#paint0_linear_868_8854)"/>
<path d="M15.8222 13.4575L29.1022 16.622L15.8222 25.0131V13.4575Z" fill="#53B1E0"/>
<path d="M15.8222 25.0131L2.8089 16.6042L15.8222 13.4575V25.0131Z" fill="#9CEBFF"/>
<path d="M15.8222 30.2222L31.9466 19.84L30.1511 17.7422L15.8222 26.9155V30.2222Z" fill="url(#paint1_linear_868_8854)"/>
<path d="M24.0356 30.8974C31.8222 25.3151 32 22.1329 32 21.1374C32 19.7152 31.8578 16.0174 28.1422 15.804C27.2498 15.7311 26.3586 15.9571 25.6087 16.4463C24.8588 16.9355 24.2928 17.6602 24 18.5063C23.7247 17.6546 23.173 16.9192 22.4322 16.4168C21.6915 15.9144 20.8042 15.6737 19.9111 15.7329C16.1956 15.9996 16 19.7152 16 21.1374C16 22.1329 16.2311 25.3152 23.9467 30.844" fill="#F04049"/>
<path d="M32 20.5689H28.4445C28.3944 20.5702 28.3455 20.5838 28.3021 20.6086C28.2586 20.6335 28.222 20.6687 28.1956 20.7111L27.0756 22.6134C27.0633 22.6356 27.0452 22.6541 27.0234 22.667C27.0015 22.6799 26.9765 22.6867 26.9511 22.6867C26.9257 22.6867 26.9008 22.6799 26.8789 22.667C26.857 22.6541 26.839 22.6356 26.8267 22.6134L25.1378 19.5556C25.1176 19.5011 25.0812 19.4542 25.0335 19.421C24.9859 19.3879 24.9292 19.3701 24.8711 19.3701C24.8131 19.3701 24.7564 19.3879 24.7087 19.421C24.6611 19.4542 24.6247 19.5011 24.6045 19.5556L23.1111 24.1778C23.101 24.205 23.0828 24.2285 23.059 24.2451C23.0352 24.2616 23.0068 24.2705 22.9778 24.2705C22.9488 24.2705 22.9204 24.2616 22.8966 24.2451C22.8728 24.2285 22.8546 24.205 22.8445 24.1778L21.4934 21.0667C21.4705 21.0176 21.4341 20.9761 21.3884 20.947C21.3427 20.9179 21.2897 20.9025 21.2356 20.9025C21.1814 20.9025 21.1284 20.9179 21.0828 20.947C21.0371 20.9761 21.0007 21.0176 20.9778 21.0667L19.2 24.3022C19.1759 24.3519 19.1378 24.3935 19.0905 24.4219C19.0431 24.4503 18.9885 24.4643 18.9334 24.4622H17.2267C17.4891 24.8633 17.774 25.2491 18.08 25.6178H19.5556C19.6073 25.6147 19.6574 25.5984 19.7009 25.5703C19.7445 25.5423 19.7802 25.5036 19.8045 25.4578L21.0667 23.1111L22.8445 27.0045C22.8647 27.0589 22.9011 27.1059 22.9487 27.139C22.9964 27.1722 23.0531 27.1899 23.1111 27.1899C23.1692 27.1899 23.2259 27.1722 23.2735 27.139C23.3212 27.1059 23.3576 27.0589 23.3778 27.0045L25.1556 21.7956L26.6667 24.7467C26.6913 24.7911 26.7273 24.8282 26.7711 24.854C26.8149 24.8798 26.8648 24.8934 26.9156 24.8934C26.9664 24.8934 27.0163 24.8798 27.06 24.854C27.1038 24.8282 27.1399 24.7911 27.1645 24.7467L28.9422 21.8667C28.9687 21.8242 29.0053 21.789 29.0488 21.7642C29.0922 21.7394 29.1411 21.7257 29.1911 21.7245H32" fill="white"/>
</g>
<defs>
<linearGradient id="paint0_linear_868_8854" x1="23.52" y1="22.8087" x2="15.2889" y2="7.21761" gradientUnits="userSpaceOnUse">
<stop stop-color="#1988D9"/>
<stop offset="0.9" stop-color="#54AEF0"/>
</linearGradient>
<linearGradient id="paint1_linear_868_8854" x1="19.9644" y1="18.2755" x2="25.6711" y2="28.0889" gradientUnits="userSpaceOnUse">
<stop offset="0.1" stop-color="#54AEF0"/>
<stop offset="0.29" stop-color="#4FABEE"/>
<stop offset="0.51" stop-color="#41A2E9"/>
<stop offset="0.74" stop-color="#2A93E0"/>
<stop offset="0.88" stop-color="#1988D9"/>
</linearGradient>
<clipPath id="clip0_868_8854">
<rect width="32" height="32" fill="white"/>
</clipPath>
</defs>
</svg>
