<svg width="32" height="32" viewBox="0 0 32 32" fill="none" xmlns="http://www.w3.org/2000/svg">
<g clip-path="url(#clip0_868_8860)">
<path d="M28.8622 22.512C28.818 21.148 28.3751 19.8267 27.5885 18.7115C26.8018 17.5962 25.7057 16.7358 24.4356 16.2365C25.0826 15.8048 25.5742 15.1769 25.838 14.4451C26.1018 13.7133 26.1239 12.9163 25.9011 12.171C25.6783 11.4257 25.2224 10.7715 24.6003 10.3046C23.9781 9.83762 23.2226 9.58252 22.4448 9.57676C21.6669 9.571 20.9078 9.81487 20.2788 10.2726C19.6498 10.7302 19.1842 11.3776 18.9504 12.1195C18.7166 12.8614 18.7269 13.6587 18.9798 14.3943C19.2328 15.1299 19.715 15.765 20.3556 16.2062C17.7191 16.9582 16.2667 19.2498 15.9289 22.512C15.901 22.8189 15.9947 23.1244 16.1899 23.3628C16.3851 23.6012 16.6661 23.7535 16.9725 23.7867L27.7333 23.8436C28.0367 23.8474 28.3291 23.7306 28.5465 23.519C28.7638 23.3073 28.8882 23.018 28.8925 22.7147V22.7005C28.8977 22.6361 28.8873 22.5715 28.8622 22.512Z" fill="url(#paint0_linear_868_8860)"/>
<path d="M25.8204 23.5645C25.3778 19.9947 23.6444 16.96 20.4444 15.9396C21.2307 15.415 21.8281 14.6521 22.1487 13.763C22.4693 12.8738 22.4963 11.9052 22.2257 10.9996C21.955 10.0939 21.4011 9.29897 20.6452 8.73149C19.8893 8.164 18.9713 7.85392 18.0261 7.8468C17.0809 7.83969 16.1584 8.13591 15.394 8.69195C14.6296 9.24799 14.0638 10.0345 13.7795 10.936C13.4953 11.8375 13.5077 12.8063 13.8149 13.7002C14.1221 14.5941 14.7079 15.3659 15.4862 15.9022C12.2862 16.816 10.5084 19.6018 10.1084 23.5645C10.0726 23.9378 10.1857 24.3101 10.4231 24.6005C10.6605 24.8908 11.003 25.0756 11.376 25.1147L24.4515 25.184C24.6342 25.1866 24.8155 25.1531 24.9852 25.0855C25.1549 25.0179 25.3095 24.9175 25.4403 24.79C25.5711 24.6625 25.6755 24.5104 25.7474 24.3425C25.8193 24.1747 25.8574 23.9942 25.8595 23.8116V23.7938C25.8645 23.7154 25.8511 23.6368 25.8204 23.5645Z" fill="url(#paint1_linear_868_8860)"/>
<path d="M20.6222 26.718C21.0796 26.718 21.5182 26.5364 21.8416 26.213C22.165 25.8896 22.3467 25.451 22.3467 24.9936C22.3538 24.9262 22.3538 24.8583 22.3467 24.7909C21.6658 19.3687 18.5778 14.9634 12.6933 14.9634C6.8089 14.9634 3.58934 18.6967 2.9529 24.7412C2.90768 25.1983 3.04542 25.6548 3.33595 26.0106C3.62649 26.3664 4.04616 26.5927 4.50312 26.6398L20.6222 26.718Z" fill="url(#paint2_linear_868_8860)"/>
<path opacity="0.8" d="M12.7733 16.2526C11.7437 16.2454 10.7376 15.9437 9.87378 15.3833L12.7733 22.994L15.6711 15.442C14.7989 15.9753 13.7957 16.256 12.7733 16.2526Z" fill="white"/>
<path d="M12.7289 16.2542C15.7313 16.2542 18.1653 13.8203 18.1653 10.8178C18.1653 7.81533 15.7313 5.38135 12.7289 5.38135C9.7264 5.38135 7.29242 7.81533 7.29242 10.8178C7.29242 13.8203 9.7264 16.2542 12.7289 16.2542Z" fill="url(#paint3_linear_868_8860)"/>
<path d="M6.75733 0H3.04889V1.07378H6.75733V0Z" fill="#0078D4"/>
<path d="M30.3627 1.07378H30.9653V1.65689H32V0H30.3627V1.07378Z" fill="#0078D4"/>
<path d="M1.71378 30.8517H1.18578V30.249H0V32.0001H1.71378V30.8517Z" fill="#0078D4"/>
<path d="M30.9653 30.3057V30.8514H30.3627V31.9999H32V30.3057H30.9653Z" fill="#0078D4"/>
<path d="M1.18578 1.61956V1.07378H1.71378V0H0V1.61956H1.18578Z" fill="#0078D4"/>
<path d="M12.3111 0H8.60266V1.07378H12.3111V0Z" fill="#0078D4"/>
<path d="M17.8453 0H14.1369V1.07378H17.8453V0Z" fill="#0078D4"/>
<path d="M23.3973 0H19.6889V1.07378H23.3973V0Z" fill="#0078D4"/>
<path d="M28.9511 0H25.2427V1.07378H28.9511V0Z" fill="#0078D4"/>
<path d="M6.79469 30.8516H3.08624V31.9253H6.79469V30.8516Z" fill="#0078D4"/>
<path d="M12.3289 30.8516H8.62042V31.9253H12.3289V30.8516Z" fill="#0078D4"/>
<path d="M17.8826 30.8516H14.1742V31.9253H17.8826V30.8516Z" fill="#0078D4"/>
<path d="M23.4346 30.8516H19.7262V31.9253H23.4346V30.8516Z" fill="#0078D4"/>
<path d="M28.9689 30.8516H25.2604V31.9253H28.9689V30.8516Z" fill="#0078D4"/>
<path d="M32 2.91748H30.9262V6.62592H32V2.91748Z" fill="#0078D4"/>
<path d="M32 8.45166H30.9262V12.1601H32V8.45166Z" fill="#0078D4"/>
<path d="M32 14.0054H30.9262V17.7138H32V14.0054Z" fill="#0078D4"/>
<path d="M32 19.5396H30.9262V23.248H32V19.5396Z" fill="#0078D4"/>
<path d="M32 25.0918H30.9262V28.8002H32V25.0918Z" fill="#0078D4"/>
<path d="M1.07378 2.87988H0V6.58833H1.07378V2.87988Z" fill="#0078D4"/>
<path d="M1.07378 8.43359H0V12.142H1.07378V8.43359Z" fill="#0078D4"/>
<path d="M1.07378 13.9663H0V17.6748H1.07378V13.9663Z" fill="#0078D4"/>
<path d="M1.07378 19.52H0V23.2285H1.07378V19.52Z" fill="#0078D4"/>
<path d="M1.07378 25.0542H0V28.7626H1.07378V25.0542Z" fill="#0078D4"/>
</g>
<defs>
<linearGradient id="paint0_linear_868_8860" x1="16.5013" y1="21.4738" x2="30.176" y2="13.5769" gradientUnits="userSpaceOnUse">
<stop offset="0.384" stop-color="#005BA1"/>
<stop offset="0.829" stop-color="#0078D4"/>
</linearGradient>
<linearGradient id="paint1_linear_868_8860" x1="9.90754" y1="23.0045" x2="26.3929" y2="13.1947" gradientUnits="userSpaceOnUse">
<stop offset="0.392" stop-color="#0078D4"/>
<stop offset="0.961" stop-color="#5EA0EF"/>
</linearGradient>
<linearGradient id="paint2_linear_868_8860" x1="12.6542" y1="12.6683" x2="12.6542" y2="28.7572" gradientUnits="userSpaceOnUse">
<stop stop-color="#83B9F9"/>
<stop offset="1" stop-color="#5EA0EF"/>
</linearGradient>
<linearGradient id="paint3_linear_868_8860" x1="12.3004" y1="5.48979" x2="13.3369" y2="18.3751" gradientUnits="userSpaceOnUse">
<stop stop-color="#83B9F9"/>
<stop offset="0.9" stop-color="#5EA0EF"/>
</linearGradient>
<clipPath id="clip0_868_8860">
<rect width="32" height="32" fill="white"/>
</clipPath>
</defs>
</svg>
