<svg width="32" height="32" viewBox="0 0 32 32" fill="none" xmlns="http://www.w3.org/2000/svg">
<g clip-path="url(#clip0_868_8850)">
<path d="M15.92 11.7598H15.8133C13.4923 11.7598 11.6107 13.6414 11.6107 15.9624V16.0691C11.6107 18.3902 13.4923 20.2718 15.8133 20.2718H15.92C18.2411 20.2718 20.1227 18.3902 20.1227 16.0691V15.9624C20.1227 13.6414 18.2411 11.7598 15.92 11.7598Z" fill="url(#paint0_linear_868_8850)"/>
<path d="M14.2222 22.5653C12.7129 22.2537 11.357 21.4319 10.3824 20.238C9.40782 19.0441 8.87409 17.5511 8.87096 16.0099C8.86783 14.4688 9.39549 12.9736 10.3652 11.7758C11.3349 10.578 12.6875 9.75063 14.1956 9.43288C14.3471 9.40525 14.4916 9.34755 14.6205 9.26318C14.7494 9.17881 14.8601 9.06948 14.946 8.94164C15.032 8.81381 15.0915 8.67005 15.121 8.51885C15.1505 8.36765 15.1494 8.21207 15.1179 8.0613C15.0863 7.91052 15.0248 7.76759 14.9371 7.64094C14.8494 7.51429 14.7372 7.40649 14.6072 7.3239C14.4772 7.2413 14.3319 7.18558 14.18 7.16003C14.0281 7.13447 13.8726 7.1396 13.7227 7.17511C11.8907 7.56489 10.2248 8.51344 8.95462 9.88994C7.68447 11.2664 6.87265 13.0031 6.63111 14.8604H4.576C4.3683 14.4827 4.06277 14.1679 3.69148 13.9489C3.32019 13.73 2.89682 13.615 2.46578 13.616H2.40533C1.76894 13.616 1.15847 13.8682 0.707641 14.3174C0.256808 14.7665 0.0023518 15.376 0 16.0124L0 16.0729C0 16.7108 0.253418 17.3226 0.704506 17.7737C1.15559 18.2248 1.7674 18.4782 2.40533 18.4782H2.46578C2.90746 18.4771 3.34029 18.3542 3.71666 18.1231C4.09303 17.8919 4.39837 17.5614 4.59911 17.168H6.63644C6.88393 19.0247 7.70187 20.7588 8.97728 22.1307C10.2527 23.5026 11.9226 24.4447 13.7564 24.8267C14.0563 24.8884 14.3684 24.8285 14.6242 24.6602C14.8799 24.4918 15.0582 24.2288 15.12 23.9289C15.1818 23.629 15.1219 23.3169 14.9535 23.0612C14.7851 22.8055 14.5221 22.6271 14.2222 22.5653Z" fill="#3CD4C2"/>
<path d="M29.5947 13.607H29.5342C29.1023 13.6068 28.6783 13.7232 28.3069 13.9437C27.9355 14.1643 27.6305 14.4809 27.424 14.8603H25.3689C25.1276 13.0034 24.3163 11.2671 23.0468 9.89069C21.7773 8.51424 20.1122 7.56541 18.2809 7.17497C17.985 7.12101 17.6797 7.18475 17.4301 7.35259C17.1805 7.52043 17.0063 7.77911 16.9446 8.07351C16.883 8.3679 16.9387 8.67474 17.1 8.92864C17.2613 9.18254 17.5153 9.36342 17.808 9.43275C19.3159 9.7509 20.6683 10.5786 21.6377 11.7767C22.6071 12.9748 23.1344 14.4701 23.1308 16.0113C23.1273 17.5524 22.5931 19.0453 21.6182 20.2389C20.6433 21.4325 19.2872 22.254 17.7778 22.5652C17.4779 22.6265 17.2147 22.8044 17.046 23.0598C16.8773 23.3152 16.8169 23.6271 16.8782 23.927C16.9395 24.2268 17.1174 24.4901 17.3728 24.6588C17.6282 24.8275 17.9401 24.8878 18.24 24.8265C20.0722 24.4429 21.7402 23.5002 23.0138 22.1284C24.2875 20.7566 25.1042 19.0234 25.3511 17.1679H27.3955C27.5963 17.5613 27.9016 17.8918 28.278 18.1229C28.6544 18.3541 29.0872 18.477 29.5289 18.4781H29.5893C29.9056 18.4788 30.219 18.4171 30.5114 18.2965C30.8039 18.176 31.0697 17.9989 31.2936 17.7755C31.5175 17.552 31.6952 17.2866 31.8164 16.9945C31.9376 16.7023 32 16.3891 32 16.0727V16.0123C32 15.6964 31.9378 15.3836 31.8169 15.0918C31.696 14.8 31.5188 14.5348 31.2955 14.3115C31.0721 14.0881 30.807 13.9109 30.5151 13.7901C30.2233 13.6692 29.9105 13.607 29.5947 13.607Z" fill="#3CD4C2"/>
</g>
<defs>
<linearGradient id="paint0_linear_868_8850" x1="15.8649" y1="11.326" x2="15.8649" y2="21.9198" gradientUnits="userSpaceOnUse">
<stop stop-color="#37C2B1"/>
<stop offset="1" stop-color="#258277"/>
</linearGradient>
<clipPath id="clip0_868_8850">
<rect width="32" height="32" fill="white"/>
</clipPath>
</defs>
</svg>
