<svg width="32" height="32" viewBox="0 0 32 32" fill="none" xmlns="http://www.w3.org/2000/svg">
<path d="M16 30.8801C24.218 30.8801 30.88 24.2181 30.88 16.0001C30.88 7.78212 24.218 1.12012 16 1.12012C7.782 1.12012 1.12 7.78212 1.12 16.0001C1.12 24.2181 7.782 30.8801 16 30.8801Z" fill="url(#paint0_linear_868_8852)"/>
<path d="M5.8311 16.6047L15.9467 23.1647L26.24 16.5869L27.5378 18.0802L15.9467 25.5469L4.53333 18.098L5.8311 16.6047Z" fill="#C3F1FF"/>
<path d="M6.59558 15.7692L15.9467 4.62256L25.4934 15.787L15.9467 21.8137L6.59558 15.7692Z" fill="white"/>
<path d="M15.9467 4.62256V21.8137L6.59558 15.7692L15.9467 4.62256Z" fill="#C3F1FF"/>
<path d="M15.9467 4.62256V21.8137L25.4933 15.787L15.9467 4.62256Z" fill="#50E6FF"/>
<path d="M15.9467 13.4937L25.4933 15.787L15.9467 21.8137V13.4937Z" fill="#32BEDD"/>
<path d="M15.9467 21.8137L6.59558 15.7692L15.9467 13.4937V21.8137Z" fill="#9CEBFF"/>
<path d="M15.9467 25.5469L27.5378 18.0802L26.24 16.5869L15.9467 23.1647V25.5469Z" fill="#32BEDD"/>
<defs>
<linearGradient id="paint0_linear_868_8852" x1="16" y1="30.8801" x2="16" y2="1.12012" gradientUnits="userSpaceOnUse">
<stop stop-color="#773ADC"/>
<stop offset="0.82" stop-color="#A67AF4"/>
</linearGradient>
</defs>
</svg>
