<svg width="32" height="32" viewBox="0 0 32 32" fill="none" xmlns="http://www.w3.org/2000/svg">
<path d="M1.79556 17.7953L15.8756 26.9153L30.2044 17.7598L32 19.8398L15.8756 30.2398L0 19.8575L1.79556 17.7953Z" fill="#50E6FF"/>
<path d="M2.86224 16.6221L15.8756 1.10205L29.1556 16.6398L15.8756 25.0309L2.86224 16.6221Z" fill="white"/>
<path d="M15.8756 1.10205V25.0309L2.86224 16.6221L15.8756 1.10205Z" fill="#50E6FF"/>
<path d="M15.8755 1.10205V25.0309L29.1555 16.6398L15.8755 1.10205Z" fill="url(#paint0_linear_868_8858)"/>
<path d="M15.8755 13.4575L29.1555 16.6397L15.8755 25.0309V13.4575Z" fill="#53B1E0"/>
<path d="M15.8756 25.0309L2.86224 16.622L15.8756 13.4575V25.0309Z" fill="#9CEBFF"/>
<path d="M15.8755 30.2398L32 19.8398L30.2044 17.7598L15.8755 26.9153V30.2398Z" fill="#5EA0EF"/>
<path d="M31.0223 28.4444C31.2297 28.4444 31.4287 28.362 31.5754 28.2153C31.7221 28.0686 31.8045 27.8697 31.8045 27.6622C31.8047 26.4987 31.3487 25.3815 30.5343 24.5505C29.7199 23.7195 28.6122 23.241 27.4489 23.2178C24.7289 23.2178 23.3245 24.9067 23.0578 27.6622C23.0376 27.869 23.0987 28.0756 23.2281 28.2382C23.3575 28.4008 23.5451 28.5066 23.7511 28.5333H31.0223V28.4444Z" fill="#773ADC"/>
<path opacity="0.8" d="M27.4489 23.7866C26.9756 23.7906 26.5117 23.6545 26.1155 23.3955L27.4311 26.8266L28.7289 23.4133C28.3449 23.6535 27.9018 23.7827 27.4489 23.7866Z" fill="white"/>
<path d="M27.4489 23.7866C28.8038 23.7866 29.9022 22.6882 29.9022 21.3332C29.9022 19.9783 28.8038 18.8799 27.4489 18.8799C26.0939 18.8799 24.9955 19.9783 24.9955 21.3332C24.9955 22.6882 26.0939 23.7866 27.4489 23.7866Z" fill="#773ADC"/>
<path d="M26.0978 30.8978C26.2525 30.9002 26.4062 30.8715 26.5496 30.8134C26.6931 30.7553 26.8234 30.669 26.9328 30.5595C27.0422 30.4501 27.1286 30.3198 27.1867 30.1763C27.2448 30.0329 27.2735 29.8793 27.2711 29.7245V29.5823C26.8089 25.9378 24.7289 22.9512 20.7467 22.9512C16.7644 22.9512 14.6133 25.4756 14.2222 29.6001C14.205 29.752 14.218 29.9058 14.2607 30.0526C14.3033 30.1994 14.3746 30.3363 14.4705 30.4554C14.5664 30.5744 14.685 30.6733 14.8194 30.7462C14.9537 30.8191 15.1012 30.8646 15.2533 30.8801H26.1156L26.0978 30.8978Z" fill="#A67AF4"/>
<path opacity="0.8" d="M20.8 23.822C20.0988 23.8253 19.4122 23.6212 18.8267 23.2354L20.7822 28.4442L22.7378 23.342C22.1509 23.6838 21.4785 23.8504 20.8 23.822Z" fill="white"/>
<path d="M20.7822 23.822C22.8048 23.822 24.4444 22.1824 24.4444 20.1598C24.4444 18.1372 22.8048 16.4976 20.7822 16.4976C18.7596 16.4976 17.12 18.1372 17.12 20.1598C17.12 22.1824 18.7596 23.822 20.7822 23.822Z" fill="#A67AF4"/>
<defs>
<linearGradient id="paint0_linear_868_8858" x1="23.5555" y1="22.8087" x2="15.3244" y2="7.21761" gradientUnits="userSpaceOnUse">
<stop stop-color="#1988D9"/>
<stop offset="0.9" stop-color="#54AEF0"/>
</linearGradient>
</defs>
</svg>
