<svg width="32" height="32" viewBox="0 0 32 32" fill="none" xmlns="http://www.w3.org/2000/svg">
<g clip-path="url(#clip0_868_8863)">
<path d="M21.5111 2.97949H14.192V5.47727C14.192 5.63205 14.1615 5.78532 14.1023 5.92833C14.0431 6.07133 13.9563 6.20126 13.8468 6.31071C13.7374 6.42016 13.6074 6.50698 13.4644 6.56622C13.3214 6.62545 13.1681 6.65594 13.0134 6.65594H11.2356C10.923 6.65594 10.6232 6.53176 10.4021 6.31071C10.1811 6.08967 10.0569 5.78987 10.0569 5.47727V2.98838H2.70402C2.48242 2.98838 2.26989 3.07641 2.1132 3.23311C1.9565 3.38981 1.86847 3.60233 1.86847 3.82394V27.0879C1.86847 27.1977 1.89008 27.3063 1.93207 27.4077C1.97406 27.5091 2.03561 27.6012 2.1132 27.6788C2.19079 27.7564 2.2829 27.8179 2.38427 27.8599C2.48565 27.9019 2.5943 27.9235 2.70402 27.9235H8.72358C8.72358 27.9057 8.72358 27.8933 8.72358 27.8755V25.8097C8.72405 25.585 8.81354 25.3695 8.97247 25.2106C9.1314 25.0517 9.34682 24.9622 9.57158 24.9617H10.7058V23.3315C10.7063 23.1063 10.796 22.8904 10.9552 22.7311C11.1145 22.5719 11.3303 22.4822 11.5556 22.4817H13.6125C13.8375 22.4822 14.0532 22.5719 14.2122 22.7312C14.3712 22.8906 14.4605 23.1064 14.4605 23.3315V24.9617H19.4951C19.98 23.5384 21.0003 22.3599 22.3396 21.6764V3.81505C22.3396 3.59467 22.2525 3.38322 22.0974 3.22672C21.9422 3.07023 21.7315 2.98137 21.5111 2.97949Z" fill="url(#paint0_linear_868_8863)"/>
<path opacity="0.8" d="M16.8142 18.6755C16.7792 17.6749 16.4478 16.7073 15.8619 15.8954C15.276 15.0835 14.4621 14.464 13.5235 14.1155C13.0985 14.3833 12.6052 14.5227 12.1028 14.5171C11.6005 14.5114 11.1104 14.3608 10.6915 14.0835C9.71362 14.3826 8.86103 14.9948 8.26489 15.8257C7.66875 16.6566 7.36206 17.6604 7.39199 18.6826C7.36963 18.9051 7.43643 19.1274 7.57774 19.3007C7.71905 19.474 7.92333 19.5842 8.14577 19.6071C8.17359 19.6089 8.2015 19.6089 8.22932 19.6071H15.9787C16.2009 19.6075 16.4142 19.5198 16.5719 19.3632C16.7295 19.2065 16.8186 18.9937 16.8195 18.7715C16.8194 18.7394 16.8176 18.7074 16.8142 18.6755Z" fill="white"/>
<path opacity="0.9" d="M12.1565 14.5175C11.6518 14.5167 11.158 14.3704 10.7343 14.0962L12.1565 17.7993L13.5645 14.1211C13.1419 14.3832 12.6538 14.5206 12.1565 14.5175Z" fill="white"/>
<path opacity="0.8" d="M12.1369 14.5192C13.5979 14.5192 14.7822 13.3348 14.7822 11.8738C14.7822 10.4129 13.5979 9.22852 12.1369 9.22852C10.6759 9.22852 9.49158 10.4129 9.49158 11.8738C9.49158 13.3348 10.6759 14.5192 12.1369 14.5192Z" fill="white"/>
<path d="M13.0151 0H11.2285C10.9506 0 10.7253 0.22525 10.7253 0.503111V5.47733C10.7253 5.75519 10.9506 5.98044 11.2285 5.98044H13.0151C13.293 5.98044 13.5182 5.75519 13.5182 5.47733V0.503111C13.5182 0.22525 13.293 0 13.0151 0Z" fill="#773ADC"/>
<path d="M19.9751 28.0888C20.2044 29.0121 20.6846 29.854 21.3626 30.5212C22.0407 31.1885 22.8901 31.6551 23.817 31.8695C24.7438 32.0838 25.7119 32.0376 26.6141 31.7359C27.5162 31.4341 28.3173 30.8886 28.9287 30.1598C29.5401 29.4309 29.9379 28.5471 30.078 27.6062C30.2182 26.6653 30.0953 25.7039 29.723 24.8285C29.3506 23.9531 28.7433 23.1978 27.9682 22.6462C27.1932 22.0946 26.2806 21.7681 25.3316 21.7031C25.2107 21.7031 25.0933 21.6924 24.976 21.6924C23.8256 21.6929 22.7084 22.0781 21.8021 22.7869C20.8959 23.4956 20.2528 24.4871 19.9751 25.6035H14.0249C13.9702 25.6035 13.9178 25.5818 13.8791 25.5431C13.8404 25.5044 13.8187 25.452 13.8187 25.3973V23.3315C13.8189 23.3043 13.8137 23.2773 13.8035 23.252C13.7932 23.2268 13.7781 23.2039 13.7589 23.1845C13.7397 23.1652 13.7169 23.1498 13.6918 23.1394C13.6666 23.1289 13.6397 23.1235 13.6125 23.1235H11.5556C11.5283 23.1235 11.5014 23.1289 11.4762 23.1394C11.4511 23.1498 11.4283 23.1652 11.4091 23.1845C11.3899 23.2039 11.3748 23.2268 11.3645 23.252C11.3543 23.2773 11.3491 23.3043 11.3493 23.3315V25.3973C11.3493 25.4245 11.344 25.4515 11.3335 25.4766C11.323 25.5017 11.3077 25.5246 11.2883 25.5437C11.269 25.5629 11.246 25.5781 11.2208 25.5883C11.1956 25.5986 11.1686 25.6037 11.1413 25.6035H9.56268C9.50798 25.6035 9.45553 25.6252 9.41685 25.6639C9.37818 25.7026 9.35645 25.755 9.35645 25.8097V27.8755C9.35622 27.9027 9.36138 27.9297 9.37164 27.955C9.3819 27.9802 9.39705 28.0031 9.41622 28.0225C9.43539 28.0418 9.45821 28.0572 9.48334 28.0676C9.50848 28.0781 9.53544 28.0835 9.56268 28.0835L19.9751 28.0888ZM24.976 24.1475C25.0948 24.1475 25.2136 24.1546 25.3316 24.1688C26.012 24.2584 26.6329 24.6035 27.0682 25.1342C27.5035 25.6648 27.7205 26.3412 27.6753 27.0261C27.63 27.7109 27.3259 28.3529 26.8246 28.8217C26.3232 29.2904 25.6623 29.5509 24.976 29.5502C24.8571 29.5505 24.7383 29.5428 24.6205 29.527C23.9375 29.4408 23.3133 29.097 22.8754 28.566C22.4374 28.0349 22.2188 27.3566 22.2642 26.6698C22.3096 25.9829 22.6156 25.3394 23.1196 24.8705C23.6236 24.4017 24.2877 24.1431 24.976 24.1475Z" fill="url(#paint1_linear_868_8863)"/>
</g>
<defs>
<linearGradient id="paint0_linear_868_8863" x1="12.1049" y1="28.4497" x2="12.1049" y2="0.735937" gradientUnits="userSpaceOnUse">
<stop stop-color="#773ADC"/>
<stop offset="0.4" stop-color="#8D58E7"/>
<stop offset="1" stop-color="#A67AF4"/>
</linearGradient>
<linearGradient id="paint1_linear_868_8863" x1="19.744" y1="31.9999" x2="19.744" y2="21.687" gradientUnits="userSpaceOnUse">
<stop stop-color="#FEA11B"/>
<stop offset="0.7" stop-color="#FFD70F"/>
</linearGradient>
<clipPath id="clip0_868_8863">
<rect width="32" height="32" fill="white"/>
</clipPath>
</defs>
</svg>
