<svg width="32" height="32" viewBox="0 0 32 32" fill="none" xmlns="http://www.w3.org/2000/svg">
<g clip-path="url(#clip0_868_8857)">
<path d="M24.8889 29.9556C25.1969 29.9603 25.5027 29.9035 25.7884 29.7883C26.0741 29.6732 26.3339 29.5021 26.5525 29.2851C26.7711 29.0682 26.9442 28.8097 27.0615 28.5249C27.1788 28.2401 27.238 27.9347 27.2356 27.6267C27.2449 27.5321 27.2449 27.4368 27.2356 27.3422C26.3111 19.9645 22.1156 13.9556 14.08 13.9556C6.04445 13.9556 1.77778 19.04 0.90667 27.36C0.846914 27.984 1.03548 28.6063 1.43149 29.0922C1.8275 29.578 2.39904 29.8883 3.02223 29.9556H24.8889Z" fill="url(#paint0_linear_868_8857)"/>
<path d="M14.2222 15.6977C12.7979 15.7017 11.4028 15.2943 10.2045 14.5244L14.08 24.8889L18.0267 14.5955C16.8809 15.2987 15.5665 15.6795 14.2222 15.6977Z" fill="white"/>
<path d="M14.1333 15.7153C18.2276 15.7153 21.5466 12.3963 21.5466 8.30201C21.5466 4.20773 18.2276 0.888672 14.1333 0.888672C10.039 0.888672 6.71997 4.20773 6.71997 8.30201C6.71997 12.3963 10.039 15.7153 14.1333 15.7153Z" fill="url(#paint1_linear_868_8857)"/>
<path d="M31.0933 19.7866V27.3244L24.6222 31.1111V23.5733L31.0933 19.7866Z" fill="#32BEDD"/>
<path d="M31.0933 19.7867L24.6222 23.5733L18.1511 19.7867L24.6222 16L31.0933 19.7867Z" fill="#9CEBFF"/>
<path d="M24.6222 23.5733V31.1111L18.1511 27.3244V19.7866L24.6222 23.5733Z" fill="#50E6FF"/>
<path d="M18.1511 27.3244L24.6222 23.5732V31.111L18.1511 27.3244Z" fill="#9CEBFF"/>
<path d="M31.0933 27.3244L24.6222 23.5732V31.111L31.0933 27.3244Z" fill="#50E6FF"/>
</g>
<defs>
<linearGradient id="paint0_linear_868_8857" x1="14.0978" y1="31.9111" x2="14.0978" y2="9.99112" gradientUnits="userSpaceOnUse">
<stop stop-color="#5E9624"/>
<stop offset="1" stop-color="#B4EC36"/>
</linearGradient>
<linearGradient id="paint1_linear_868_8857" x1="14.1333" y1="16.3731" x2="14.1333" y2="-3.59133" gradientUnits="userSpaceOnUse">
<stop stop-color="#5E9624"/>
<stop offset="1" stop-color="#B4EC36"/>
</linearGradient>
<clipPath id="clip0_868_8857">
<rect width="32" height="32" fill="white"/>
</clipPath>
</defs>
</svg>
