<svg width="32" height="32" viewBox="0 0 32 32" fill="none" xmlns="http://www.w3.org/2000/svg">
<g clip-path="url(#clip0_868_8845)">
<path d="M26.7733 15.4131H24.9955V9.93759C25.011 7.36586 24.0664 4.88088 22.3467 2.9687C21.5423 2.03162 20.5437 1.28071 19.4201 0.768052C18.2966 0.255394 17.075 -0.00674556 15.84 -0.000189855C14.5931 -0.0171393 13.3577 0.239978 12.221 0.752991C11.0844 1.266 10.0744 2.02239 9.26221 2.9687C7.53037 4.87349 6.58397 7.36336 6.61332 9.93759V15.4131H5.17332C4.84942 15.4177 4.54008 15.5485 4.31102 15.7775C4.08196 16.0066 3.95125 16.3159 3.94666 16.6398V30.862C3.95125 31.1859 4.08196 31.4953 4.31102 31.7243C4.54008 31.9534 4.84942 32.0841 5.17332 32.0887H26.7733C27.0989 32.0842 27.4102 31.9541 27.6421 31.7255C27.874 31.4969 28.0086 31.1875 28.0178 30.862V16.6398C28.0086 16.3143 27.874 16.0049 27.6421 15.7763C27.4102 15.5477 27.0989 15.4176 26.7733 15.4131ZM20.7822 15.4131H10.8978V9.8487C10.9137 8.42534 11.4661 7.0604 12.4444 6.02648C12.861 5.54892 13.3745 5.16557 13.9508 4.90195C14.5271 4.63833 15.1529 4.50049 15.7867 4.49759C16.4228 4.50137 17.051 4.63952 17.63 4.903C18.2091 5.16648 18.7259 5.54933 19.1467 6.02648C19.3574 6.26488 19.5477 6.5206 19.7155 6.79092C20.3823 7.66793 20.7612 8.72991 20.8 9.83092L20.7822 15.4131Z" fill="url(#paint0_linear_868_8845)"/>
<path d="M26.8267 15.4136H5.1911C4.90203 15.4145 4.62348 15.5221 4.40887 15.7158L27.6089 31.7158C27.7471 31.6045 27.8588 31.4638 27.9357 31.3039C28.0126 31.1439 28.0528 30.9688 28.0533 30.7914V16.5691C28.0271 16.2592 27.8875 15.9699 27.6611 15.7567C27.4347 15.5434 27.1376 15.4212 26.8267 15.4136Z" fill="#50E6FF"/>
<path opacity="0.2" d="M5.22665 15.4136H26.8444C27.1384 15.4166 27.4218 15.5237 27.6444 15.7158L4.42665 31.7158C4.29113 31.6021 4.18139 31.4609 4.10475 31.3015C4.02812 31.1421 3.98634 30.9682 3.98221 30.7914V16.5691C4.01255 16.2577 4.15591 15.9682 4.3852 15.7553C4.61449 15.5423 4.91383 15.4208 5.22665 15.4136Z" fill="white"/>
<path d="M20.3022 29.1554L9.24445 23.6443L20.3022 18.1865L20.8 19.2176L11.8222 23.6443L20.8 28.1421L20.3022 29.1554Z" fill="#198AB3"/>
<path d="M10.56 25.9025C11.7873 25.9025 12.7822 24.9075 12.7822 23.6802C12.7822 22.4529 11.7873 21.458 10.56 21.458C9.33269 21.458 8.33777 22.4529 8.33777 23.6802C8.33777 24.9075 9.33269 25.9025 10.56 25.9025Z" fill="url(#paint1_linear_868_8845)"/>
<path d="M20.4622 21.1378C21.6895 21.1378 22.6844 20.1429 22.6844 18.9156C22.6844 17.6883 21.6895 16.6934 20.4622 16.6934C19.2349 16.6934 18.24 17.6883 18.24 18.9156C18.24 20.1429 19.2349 21.1378 20.4622 21.1378Z" fill="url(#paint2_linear_868_8845)"/>
<path d="M20.4622 30.8624C21.6895 30.8624 22.6844 29.8675 22.6844 28.6402C22.6844 27.4129 21.6895 26.418 20.4622 26.418C19.2349 26.418 18.24 27.4129 18.24 28.6402C18.24 29.8675 19.2349 30.8624 20.4622 30.8624Z" fill="url(#paint3_linear_868_8845)"/>
</g>
<defs>
<linearGradient id="paint0_linear_868_8845" x1="15.2711" y1="-13.8491" x2="16.2133" y2="35.6443" gradientUnits="userSpaceOnUse">
<stop offset="0.22" stop-color="#32D4F5"/>
<stop offset="1" stop-color="#198AB3"/>
</linearGradient>
<linearGradient id="paint1_linear_868_8845" x1="10.9511" y1="25.8669" x2="10.1867" y2="21.4936" gradientUnits="userSpaceOnUse">
<stop stop-color="#CCCCCC"/>
<stop offset="1" stop-color="#FCFCFC"/>
</linearGradient>
<linearGradient id="paint2_linear_868_8845" x1="20.8533" y1="21.1022" x2="20.0889" y2="16.7289" gradientUnits="userSpaceOnUse">
<stop stop-color="#CCCCCC"/>
<stop offset="1" stop-color="#FCFCFC"/>
</linearGradient>
<linearGradient id="paint3_linear_868_8845" x1="20.8533" y1="30.8269" x2="20.0889" y2="26.4535" gradientUnits="userSpaceOnUse">
<stop stop-color="#CCCCCC"/>
<stop offset="1" stop-color="#FCFCFC"/>
</linearGradient>
<clipPath id="clip0_868_8845">
<rect width="32" height="32" fill="white"/>
</clipPath>
</defs>
</svg>
