<svg width="32" height="32" viewBox="0 0 32 32" fill="none" xmlns="http://www.w3.org/2000/svg">
<g clip-path="url(#clip0_868_8844)">
<path d="M25.3138 30.6147C25.9558 30.6242 26.5754 30.3784 27.0364 29.9314C27.4974 29.4844 27.7622 28.8727 27.7725 28.2307V28.1755C27.7813 28.0762 27.7813 27.9762 27.7725 27.8769C26.8036 20.1507 22.4107 13.8662 13.9947 13.8662C5.57868 13.8662 1.1129 19.1995 0.19912 27.9107C0.134974 28.5646 0.33205 29.2174 0.747357 29.7267C1.16266 30.2359 1.7625 30.5602 2.41601 30.6289L25.3138 30.6147Z" fill="url(#paint0_linear_868_8844)"/>
<path opacity="0.8" d="M14.144 15.6835C12.6524 15.6871 11.1914 15.2606 9.936 14.4551L13.9947 25.3084L18.1333 14.5297C16.9318 15.2668 15.5534 15.6654 14.144 15.6835Z" fill="white"/>
<path d="M14.0515 15.7029C18.3392 15.7029 21.8151 12.227 21.8151 7.93934C21.8151 3.65164 18.3392 0.175781 14.0515 0.175781C9.76386 0.175781 6.28799 3.65164 6.28799 7.93934C6.28799 12.227 9.76386 15.7029 14.0515 15.7029Z" fill="url(#paint1_linear_868_8844)"/>
<path d="M31.8116 19.9658V27.8592L25.0347 31.8236V23.9303L31.8116 19.9658Z" fill="#EF7100"/>
<path d="M31.8116 19.9662L25.0347 23.9307L18.2578 19.9662L25.0347 16L31.8116 19.9662Z" fill="#F78D1E"/>
<path d="M25.0347 23.9303V31.8236L18.2578 27.8592V19.9658L25.0347 23.9303Z" fill="#FAA21D"/>
<path d="M18.2578 27.8596L25.0347 23.9307V31.824L18.2578 27.8596Z" fill="#FFB34D"/>
<path d="M31.8116 27.8596L25.0347 23.9307V31.824L31.8116 27.8596Z" fill="#F78D1E"/>
</g>
<defs>
<linearGradient id="paint0_linear_868_8844" x1="13.984" y1="32.6609" x2="13.984" y2="9.70621" gradientUnits="userSpaceOnUse">
<stop stop-color="#5E9624"/>
<stop offset="1" stop-color="#B4EC36"/>
</linearGradient>
<linearGradient id="paint1_linear_868_8844" x1="14.0498" y1="16.3909" x2="14.0498" y2="-4.51577" gradientUnits="userSpaceOnUse">
<stop stop-color="#5E9624"/>
<stop offset="1" stop-color="#B4EC36"/>
</linearGradient>
<clipPath id="clip0_868_8844">
<rect width="32" height="32" fill="white"/>
</clipPath>
</defs>
</svg>
