<svg width="32" height="32" viewBox="0 0 32 32" fill="none" xmlns="http://www.w3.org/2000/svg">
<path d="M9.97336 18.9332H17.6711V26.6665H9.97336V18.9332ZM1.08447 8.69318H8.69336V1.01318H2.08002C1.79713 1.01318 1.52582 1.12556 1.32578 1.3256C1.12574 1.52564 1.01336 1.79695 1.01336 2.07985L1.08447 8.69318ZM2.08002 26.6665H8.69336V18.9332H1.01336V25.5465C1.00612 25.691 1.02836 25.8355 1.07872 25.9711C1.12907 26.1067 1.2065 26.2307 1.30628 26.3355C1.40606 26.4403 1.52611 26.5236 1.65912 26.5805C1.79214 26.6374 1.93535 26.6667 2.08002 26.6665ZM1.01336 17.7776H8.69336V9.97318H1.01336V17.7776ZM18.9511 26.6665H25.5645C25.8474 26.6665 26.1187 26.5541 26.3187 26.3541C26.5188 26.1541 26.6311 25.8827 26.6311 25.5998V18.9332H18.9511V26.6665ZM10.0622 17.7776H17.6711V9.97318H9.97336L10.0622 17.7776ZM19.04 17.7776H26.6667V9.97318H18.9511L19.04 17.7776ZM19.04 1.13763V8.69318H26.6667V2.07985C26.6667 1.79695 26.5543 1.52564 26.3543 1.3256C26.1542 1.12556 25.8829 1.01318 25.6 1.01318L19.04 1.13763ZM10.1511 8.81763H17.6711V1.01318H9.97336L10.1511 8.81763Z" fill="url(#paint0_linear_868_8843)"/>
<path opacity="0.95" d="M18.9511 26.6664H26.3289C26.1737 26.5299 26.0624 26.3505 26.0089 26.1509H18.8978L18.9511 26.6664Z" fill="url(#paint1_linear_868_8843)"/>
<path d="M23.5734 30.9864C27.6578 30.9864 30.9689 27.6753 30.9689 23.5909C30.9689 19.5064 27.6578 16.1953 23.5734 16.1953C19.4889 16.1953 16.1778 19.5064 16.1778 23.5909C16.1778 27.6753 19.4889 30.9864 23.5734 30.9864Z" fill="#32BEDD"/>
<mask id="mask0_868_8843" style="mask-type:luminance" maskUnits="userSpaceOnUse" x="16" y="16" width="15" height="15">
<path d="M23.5734 30.9864C27.6578 30.9864 30.9689 27.6753 30.9689 23.5909C30.9689 19.5064 27.6578 16.1953 23.5734 16.1953C19.4889 16.1953 16.1778 19.5064 16.1778 23.5909C16.1778 27.6753 19.4889 30.9864 23.5734 30.9864Z" fill="white"/>
</mask>
<g mask="url(#mask0_868_8843)">
<path d="M30.3289 24.6573C29.9556 24.8529 29.4223 24.7462 29.1734 24.9417C28.6941 25.2159 28.3049 25.6236 28.0534 26.1151C28.0534 26.2217 28.0534 26.3817 27.9289 26.4351C27.4312 26.7729 26.9334 27.1284 27.3956 27.8751C26.8623 27.8751 27.04 27.3951 26.7912 27.2529C26.6058 27.172 26.4049 27.1331 26.2027 27.1392C26.0006 27.1452 25.8023 27.1959 25.6221 27.2877C25.442 27.3795 25.2844 27.5101 25.1607 27.67C25.0369 27.83 24.9502 28.0154 24.9067 28.2129C24.8778 28.3385 24.8898 28.4701 24.9409 28.5885C24.9921 28.7068 25.0798 28.8057 25.1912 28.8706C25.2468 28.9007 25.308 28.9191 25.3709 28.9246C25.4339 28.9301 25.4974 28.9227 25.5574 28.9027C25.6174 28.8827 25.6726 28.8506 25.7197 28.8084C25.7668 28.7662 25.8047 28.7148 25.8311 28.6573C25.8529 28.6183 25.8826 28.5843 25.9184 28.5574C25.9541 28.5306 25.9951 28.5115 26.0386 28.5015C26.0822 28.4914 26.1273 28.4906 26.1712 28.4991C26.2151 28.5075 26.2567 28.5251 26.2934 28.5506C26.2934 28.8351 25.7956 29.3506 26.6134 29.3684C26.8267 29.3684 26.7734 29.6173 26.72 29.7773C26.6667 29.9373 26.8267 30.204 27.0578 30.3106C27.2889 30.4173 27.0578 30.3106 27.0578 30.3995C26.4 30.3995 26.2578 29.5995 25.6178 29.5106C25.3588 29.4412 25.1036 29.3581 24.8534 29.2617C24.3734 29.1017 23.8223 29.0129 23.7156 28.3017C23.6736 28.1207 23.5952 27.9501 23.4852 27.8003C23.3752 27.6506 23.2358 27.5248 23.0756 27.4306C22.8623 27.2884 22.7378 27.0217 22.5245 26.8617C22.4411 26.623 22.3078 26.4048 22.1334 26.2217C21.9687 26.0039 21.8599 25.749 21.8165 25.4794C21.7731 25.2098 21.7964 24.9336 21.8845 24.6751C22.2011 23.6924 22.1377 22.6266 21.7067 21.6884C21.5289 21.1195 21.4934 20.5329 20.8534 20.1595C20.2134 19.7862 20.32 20.3729 20.0712 20.2484C19.8223 20.124 19.68 20.4795 19.6089 20.5151C19.0934 20.6573 18.6489 21.1017 17.9911 21.0306C18.24 20.9062 18.4356 20.8351 18.6134 20.7284C18.7912 20.6217 19.1289 20.4795 18.7378 20.0529C18.3467 19.6262 18.4889 19.004 19.5378 18.5773C19.4489 18.3284 18.8089 18.3817 19.0934 17.9195C19.3778 17.4573 19.5912 17.6884 19.8578 17.9195C20.0356 17.5817 19.6445 17.1551 19.9467 16.9595C20.348 16.7303 20.7786 16.5569 21.2267 16.444C21.2791 16.4165 21.3365 16.3997 21.3954 16.3947C21.4544 16.3896 21.5137 16.3964 21.57 16.4146C21.6263 16.4329 21.6784 16.4621 21.7233 16.5008C21.7681 16.5394 21.8048 16.5865 21.8311 16.6395C22.1511 17.1373 22.7912 17.2262 23.1112 17.724C23.2 17.884 23.3778 17.724 23.5023 17.724C24.2312 17.4751 24.7112 17.9373 25.28 18.3106C25.8489 18.684 25.76 18.9151 26.2223 18.8617C26.3452 18.8348 26.4726 18.8348 26.5956 18.8617C26.88 18.9862 27.1467 19.0573 27.36 18.7551C27.47 18.7432 27.5735 18.6975 27.6563 18.6243C27.7391 18.551 27.7971 18.4538 27.8223 18.3462C27.9289 18.1862 27.9823 17.9551 28.2489 18.0617C28.1217 18.5663 28.1916 19.1003 28.4445 19.5551C28.6756 19.3773 28.9067 19.2706 28.64 18.8617C28.5831 18.7704 28.5495 18.6665 28.5422 18.5591C28.5348 18.4517 28.5539 18.3442 28.5978 18.2459C28.6416 18.1476 28.709 18.0616 28.7938 17.9954C28.8787 17.9292 28.9785 17.8848 29.0845 17.8662C29.2899 17.7981 29.5124 17.8015 29.7157 17.8757C29.919 17.9499 30.0912 18.0907 30.2045 18.2751C30.5423 18.8795 30.6489 19.5729 31.04 20.0529C31.1645 20.2129 31.04 20.284 31.04 20.4084C31.04 20.5329 30.72 20.4084 30.5423 20.3017L30.6667 21.0662C30.4106 21.1778 30.1231 21.1943 29.8558 21.1129C29.5886 21.0314 29.3592 20.8572 29.2089 20.6217C29.2089 20.4084 29.2089 20.3195 29.4223 20.2129C29.6356 20.1062 29.76 20.0173 29.76 19.7862C29.7718 19.7157 29.7609 19.6434 29.729 19.5795C29.6971 19.5156 29.6457 19.4635 29.5823 19.4306C29.44 19.4306 29.3511 19.4306 29.3156 19.5906C29.28 19.7506 28.7289 20.0351 28.8178 20.5329C28.9067 21.0306 28.48 20.924 28.2312 20.7817C27.6445 20.4795 27.4312 21.0129 27.1823 21.2973C26.9334 21.5817 27.1823 21.9017 27.4667 22.1151C27.7512 22.3284 28.0178 22.4884 28.1245 22.8262C28.4213 22.5606 28.6057 22.1919 28.64 21.7951C28.64 21.4751 28.7645 21.0306 29.2089 20.9773C29.3758 20.9631 29.5428 21.0041 29.6841 21.0941C29.8254 21.184 29.9333 21.3179 29.9912 21.4751C30.08 21.6706 30.2223 21.6884 30.4 21.7062C30.8022 22.5756 31.1235 23.4802 31.36 24.4084L30.7023 24.3195C30.7023 23.804 30.2578 24.0351 30.0089 23.9284C29.9378 24.2484 30.3467 24.3373 30.3289 24.6573Z" fill="#B4EC36"/>
<path d="M27.7689 18.2572C27.5378 18.0439 27.2889 17.8483 27.6623 17.5461C28.0356 17.2439 28.0178 17.0305 28.1956 17.5461C28.2169 17.6956 28.1862 17.8479 28.1085 17.9774C28.0308 18.1068 27.9109 18.2057 27.7689 18.2572Z" fill="#B4EC36"/>
<path d="M28.32 17.5463C28.5156 17.3508 28.7645 17.3686 28.8 17.5463C28.8356 17.7241 28.5689 17.8841 28.3378 17.9552C28.1067 18.0263 28.1778 17.7774 28.32 17.5463Z" fill="#B4EC36"/>
</g>
<defs>
<linearGradient id="paint0_linear_868_8843" x1="14.1956" y1="1.06652" x2="14.1956" y2="26.6665" gradientUnits="userSpaceOnUse">
<stop stop-color="#5EA0EF"/>
<stop offset="0.18" stop-color="#589EED"/>
<stop offset="0.41" stop-color="#4897E9"/>
<stop offset="0.66" stop-color="#2E8CE1"/>
<stop offset="0.94" stop-color="#0A7CD7"/>
<stop offset="1" stop-color="#0078D4"/>
</linearGradient>
<linearGradient id="paint1_linear_868_8843" x1="-2.61335" y1="26.5064" x2="30.5067" y2="26.3109" gradientUnits="userSpaceOnUse">
<stop stop-color="#449CDD" stop-opacity="0.15"/>
<stop offset="0.16" stop-color="#2870AB" stop-opacity="0"/>
<stop offset="0.18" stop-color="#2469A3" stop-opacity="0.06"/>
<stop offset="0.23" stop-color="#1A5991" stop-opacity="0.19"/>
<stop offset="0.28" stop-color="#144F86" stop-opacity="0.27"/>
<stop offset="0.34" stop-color="#124C82" stop-opacity="0.3"/>
<stop offset="0.76" stop-color="#002851" stop-opacity="0.35"/>
<stop offset="0.9" stop-color="#2F7AB6" stop-opacity="0"/>
<stop offset="1" stop-color="#449CDD" stop-opacity="0"/>
</linearGradient>
</defs>
</svg>
