<svg width="32" height="32" viewBox="0 0 32 32" fill="none" xmlns="http://www.w3.org/2000/svg">
<path d="M29.8916 23.157C29.8937 23.3218 29.863 23.4853 29.8015 23.6381C29.7399 23.791 29.6485 23.93 29.5328 24.0473C29.417 24.1646 29.2791 24.2577 29.1271 24.3212C28.975 24.3847 28.8119 24.4174 28.6471 24.4174H20.0533C19.8886 24.4195 19.725 24.3889 19.5722 24.3273C19.4194 24.2657 19.2803 24.1744 19.163 24.0586C19.0458 23.9429 18.9527 23.805 18.8891 23.6529C18.8256 23.5009 18.7929 23.3378 18.7929 23.173V9.03254C18.7908 8.86778 18.8214 8.70424 18.883 8.5514C18.9446 8.39857 19.0359 8.25949 19.1517 8.14223C19.2674 8.02497 19.4053 7.93187 19.5574 7.86833C19.7094 7.8048 19.8726 7.77209 20.0373 7.7721H28.5884C28.7525 7.76975 28.9153 7.79985 29.0677 7.86067C29.22 7.92149 29.3588 8.01183 29.4761 8.12649C29.5934 8.24115 29.6869 8.37787 29.7512 8.52879C29.8155 8.67971 29.8493 8.84185 29.8507 9.00588V23.157H29.8916Z" fill="#59B4D9"/>
<path d="M20.8107 10.293H23.8329V13.8254H20.8107V10.293ZM24.8462 10.293H27.8684V13.8254H24.8462V10.293ZM20.8107 15.8432H23.8329V19.3774H20.8107V15.8432ZM24.8462 15.8432H27.8684V19.3774H24.8462V15.8432Z" fill="white"/>
<path d="M13.2071 23.157C13.2093 23.3218 13.1786 23.4853 13.117 23.6381C13.0555 23.791 12.9641 23.93 12.8484 24.0473C12.7326 24.1646 12.5947 24.2577 12.4426 24.3212C12.2906 24.3847 12.1275 24.4174 11.9627 24.4174H3.3778C3.21378 24.4198 3.05092 24.3897 2.89858 24.3289C2.74623 24.268 2.60742 24.1777 2.49011 24.063C2.37281 23.9484 2.27933 23.8117 2.21505 23.6607C2.15078 23.5098 2.11697 23.3477 2.11558 23.1837V9.03254C2.11346 8.86778 2.14409 8.70424 2.20568 8.5514C2.26727 8.39857 2.3586 8.25949 2.47437 8.14223C2.59013 8.02497 2.72804 7.93187 2.88007 7.86833C3.03211 7.8048 3.19525 7.77209 3.36003 7.7721H11.8951C12.0592 7.76975 12.222 7.79985 12.3744 7.86067C12.5267 7.92149 12.6655 8.01183 12.7828 8.12649C12.9001 8.24115 12.9936 8.37787 13.0579 8.52879C13.1222 8.67971 13.156 8.84185 13.1574 9.00588V9.03254" fill="#0072C6"/>
<path d="M4.12622 10.293H7.14844V13.8254H4.12622V10.293ZM8.16178 10.293H11.184V13.8254H8.16178V10.293ZM4.12622 15.8432H7.14844V19.3774H4.12622V15.8432ZM8.16178 15.8432H11.184V19.3774H8.16178V15.8432Z" fill="#59B4D9"/>
<path d="M16.2543 31.1109C17.8076 31.1064 19.3037 30.5243 20.4514 29.4777C21.5992 28.4311 22.3166 26.995 22.4641 25.4487H20.6027C20.4721 26.5028 19.9618 27.4731 19.1672 28.178C18.3727 28.8829 17.3484 29.274 16.2863 29.278C15.6333 29.2806 14.9887 29.1307 14.4039 28.8403C13.819 28.5498 13.31 28.1269 12.9174 27.6051L14.9672 25.422H9.77783V30.9509L11.6516 28.9562C12.2138 29.631 12.9176 30.1738 13.713 30.5461C14.5084 30.9185 15.376 31.1113 16.2543 31.1109ZM15.9805 2.72157C16.6333 2.71929 17.2776 2.86969 17.8619 3.16078C18.4463 3.45186 18.9544 3.87555 19.3458 4.39802L17.2978 6.57757H22.4961V1.0469L20.6223 3.03979C20.0584 2.36494 19.353 1.8224 18.5561 1.45064C17.7591 1.07889 16.8901 0.887038 16.0107 0.888682C14.453 0.892972 12.953 1.47858 11.8044 2.53083C10.6558 3.58308 9.94134 5.02619 9.80094 6.57757H11.6587C11.7834 5.51774 12.2919 4.54027 13.0882 3.82982C13.8845 3.11936 14.9134 2.72512 15.9805 2.72157Z" fill="#FF8C00"/>
</svg>
