<svg width="32" height="32" viewBox="0 0 32 32" fill="none" xmlns="http://www.w3.org/2000/svg">
<g clip-path="url(#clip0_868_8849)">
<path d="M30.6133 24.7467C30.7992 24.7491 30.9838 24.7145 31.1562 24.6449C31.3287 24.5754 31.4856 24.4723 31.6179 24.3417C31.7502 24.211 31.8553 24.0554 31.9269 23.8839C31.9986 23.7123 32.0355 23.5282 32.0355 23.3423C32.0422 23.2635 32.03 23.1843 32 23.1111C31.4489 18.6667 28.9066 15.04 24.0711 15.04C19.2355 15.04 16.6222 18.1689 16.1244 23.1111C16.0896 23.4878 16.2043 23.863 16.4438 24.1557C16.6833 24.4484 17.0284 24.6352 17.4044 24.6756H30.6133V24.7467Z" fill="#0078D4"/>
<path opacity="0.8" d="M24.0889 16.1598C23.2303 16.1673 22.3889 15.9198 21.6711 15.4487L24.0711 21.7065L26.4355 15.5021C25.7284 15.9323 24.9166 16.1598 24.0889 16.1598Z" fill="white"/>
<path d="M24.0889 16.1598C26.5533 16.1598 28.5511 14.162 28.5511 11.6976C28.5511 9.23316 26.5533 7.23535 24.0889 7.23535C21.6245 7.23535 19.6266 9.23316 19.6266 11.6976C19.6266 14.162 21.6245 16.1598 24.0889 16.1598Z" fill="#0078D4"/>
<path d="M21.6711 29.0843C22.2322 29.0843 22.7703 28.8614 23.167 28.4647C23.5638 28.0679 23.7867 27.5298 23.7867 26.9687C23.7955 26.886 23.7955 26.8026 23.7867 26.7198C22.9511 20.0709 19.1644 14.6665 11.9467 14.6665C4.72889 14.6665 0.782228 19.2532 5.69504e-06 26.6665C-0.0546675 27.2272 0.11466 27.7868 0.471037 28.2231C0.827413 28.6594 1.3419 28.937 1.90223 28.9954H21.6356L21.6711 29.0843Z" fill="url(#paint0_linear_868_8849)"/>
<path opacity="0.8" d="M12.0355 16.2488C10.7728 16.24 9.53903 15.8698 8.47998 15.1821L12.0355 24.5155L15.5911 15.2532C14.521 15.908 13.29 16.2526 12.0355 16.2488Z" fill="white"/>
<path d="M11.9822 16.2489C15.6641 16.2489 18.6489 13.2641 18.6489 9.58219C18.6489 5.9003 15.6641 2.91553 11.9822 2.91553C8.30032 2.91553 5.31555 5.9003 5.31555 9.58219C5.31555 13.2641 8.30032 16.2489 11.9822 16.2489Z" fill="url(#paint1_linear_868_8849)"/>
</g>
<defs>
<linearGradient id="paint0_linear_868_8849" x1="11.9111" y1="12.9065" x2="11.9111" y2="32.6398" gradientUnits="userSpaceOnUse">
<stop offset="0.22" stop-color="#32D4F5"/>
<stop offset="1" stop-color="#198AB3"/>
</linearGradient>
<linearGradient id="paint1_linear_868_8849" x1="11.4133" y1="2.34664" x2="12.8533" y2="20.2489" gradientUnits="userSpaceOnUse">
<stop offset="0.22" stop-color="#32D4F5"/>
<stop offset="1" stop-color="#198AB3"/>
</linearGradient>
<clipPath id="clip0_868_8849">
<rect width="32" height="32" fill="white"/>
</clipPath>
</defs>
</svg>
