<svg width="32" height="32" viewBox="0 0 32 32" fill="none" xmlns="http://www.w3.org/2000/svg">
<path d="M3.82222 20.8888C2.98169 18.7846 2.7036 16.4977 3.01532 14.2533C3.32704 12.0089 4.21782 9.88438 5.6 8.08882C5.0532 7.72545 4.62147 7.21354 4.35556 6.61327C2.66381 8.73799 1.57747 11.2803 1.21134 13.9714C0.845219 16.6626 1.21291 19.4027 2.27556 21.9022C2.73036 21.4797 3.25328 21.1371 3.82222 20.8888ZM10.56 2.0266C11.0181 2.49141 11.3912 3.03294 11.6622 3.6266C13.0558 3.13307 14.5217 2.87473 16 2.86216C18.763 2.84893 21.4587 3.7143 23.6978 5.33327C23.9354 4.86118 24.2683 4.44349 24.6756 4.1066L24.8889 3.9466C22.8555 2.44569 20.4759 1.48273 17.9709 1.14708C15.466 0.811425 12.9168 1.11396 10.56 2.0266ZM28.1778 11.1288C29.0185 13.2301 29.2968 15.5142 28.985 17.7558C28.6732 19.9974 27.7822 22.119 26.4 23.911C26.6884 24.1092 26.946 24.3488 27.1644 24.6222C27.3572 24.8548 27.5186 25.1119 27.6444 25.3866C29.3362 23.2619 30.4225 20.7196 30.7887 18.0284C31.1548 15.3373 30.7871 12.5972 29.7244 10.0977C29.2703 10.5257 28.7475 10.8743 28.1778 11.1288ZM20.3378 28.4444C18.9422 28.922 17.4749 29.1565 16 29.1377C13.2368 29.1522 10.5407 28.2867 8.30222 26.6666C8.0692 27.1416 7.73555 27.5602 7.32444 27.8933L7.11111 28.0533C9.15175 29.5602 11.5397 30.5279 14.0537 30.8666C16.5678 31.2053 19.1266 30.9042 21.4933 29.991C21.021 29.5468 20.6299 29.0233 20.3378 28.4444Z" fill="#0078D4"/>
<path d="M9.20888 3.32452C9.71728 3.84851 10.06 4.51066 10.1944 5.22829C10.3287 5.94592 10.2486 6.68722 9.96411 7.3596C9.67963 8.03199 9.20337 8.60567 8.59479 9.00899C7.98622 9.41231 7.27231 9.6274 6.54222 9.6274C5.81213 9.6274 5.09822 9.41231 4.48964 9.00899C3.88107 8.60567 3.4048 8.03199 3.12033 7.3596C2.83585 6.68722 2.75577 5.94592 2.89008 5.22829C3.02439 4.51066 3.36715 3.84851 3.87555 3.32452C4.2219 2.96755 4.63639 2.68375 5.09446 2.48995C5.55253 2.29615 6.04484 2.19629 6.54222 2.19629C7.0396 2.19629 7.53191 2.29615 7.98998 2.48995C8.44804 2.68375 8.86254 2.96755 9.20888 3.32452Z" fill="#32BEDD"/>
<path d="M7.85781 7.23548C8.03263 7.0694 8.17184 6.86949 8.26696 6.64791C8.36209 6.42633 8.41114 6.18772 8.41114 5.94659C8.41114 5.70546 8.36209 5.46684 8.26696 5.24527C8.17184 5.02369 8.03263 4.82378 7.85781 4.6577C7.69254 4.49107 7.49592 4.35881 7.27928 4.26856C7.06264 4.1783 6.83027 4.13184 6.59559 4.13184C6.3609 4.13184 6.12853 4.1783 5.9119 4.26856C5.69526 4.35881 5.49863 4.49107 5.33336 4.6577C5.15854 4.82378 5.01934 5.02369 4.92421 5.24527C4.82908 5.46684 4.78003 5.70546 4.78003 5.94659C4.78003 6.18772 4.82908 6.42633 4.92421 6.64791C5.01934 6.86949 5.15854 7.0694 5.33336 7.23548C5.4992 7.40754 5.69803 7.54439 5.91795 7.63787C6.13788 7.73135 6.3744 7.77952 6.61336 7.77952C6.85233 7.77952 7.08885 7.73135 7.30878 7.63787C7.5287 7.54439 7.72753 7.40754 7.89336 7.23548" fill="white"/>
<path d="M23.4311 3.32428C23.9551 2.81588 24.6172 2.47313 25.3349 2.33881C26.0525 2.2045 26.7938 2.28458 27.4662 2.56906C28.1386 2.85353 28.7122 3.3298 29.1156 3.93837C29.5189 4.54695 29.734 5.26086 29.734 5.99095C29.734 6.72104 29.5189 7.43495 29.1156 8.04352C28.7122 8.6521 28.1386 9.12836 27.4662 9.41284C26.7938 9.69732 26.0525 9.7774 25.3349 9.64309C24.6172 9.50877 23.9551 9.16601 23.4311 8.65761C22.7374 7.96123 22.3479 7.01834 22.3479 6.03539C22.3479 5.05245 22.7374 4.10956 23.4311 3.41317V3.32428Z" fill="#32BEDD"/>
<path d="M27.3422 4.65783C27.0901 4.41834 26.7733 4.25803 26.431 4.19676C26.0888 4.13549 25.736 4.17595 25.4165 4.31313C25.097 4.4503 24.8247 4.67818 24.6333 4.96854C24.442 5.2589 24.34 5.59899 24.34 5.94672C24.34 6.29445 24.442 6.63455 24.6333 6.92491C24.8247 7.21527 25.097 7.44314 25.4165 7.58032C25.736 7.7175 26.0888 7.75796 26.431 7.69669C26.7733 7.63542 27.0901 7.47511 27.3422 7.23561C27.5171 7.06953 27.6563 6.86962 27.7514 6.64805C27.8465 6.42647 27.8956 6.18786 27.8956 5.94672C27.8956 5.70559 27.8465 5.46698 27.7514 5.2454C27.6563 5.02382 27.5171 4.82392 27.3422 4.65783Z" fill="white"/>
<path d="M22.7911 28.6754C22.2827 28.1514 21.94 27.4893 21.8057 26.7717C21.6714 26.054 21.7514 25.3127 22.0359 24.6404C22.3204 23.968 22.7967 23.3943 23.4052 22.991C24.0138 22.5877 24.7277 22.3726 25.4578 22.3726C26.1879 22.3726 26.9018 22.5877 27.5104 22.991C28.119 23.3943 28.5952 23.968 28.8797 24.6404C29.1642 25.3127 29.2443 26.054 29.1099 26.7717C28.9756 27.4893 28.6329 28.1514 28.1245 28.6754C27.7781 29.0324 27.3636 29.3162 26.9056 29.51C26.4475 29.7038 25.9552 29.8037 25.4578 29.8037C24.9604 29.8037 24.4681 29.7038 24.01 29.51C23.552 29.3162 23.1375 29.0324 22.7911 28.6754Z" fill="#32BEDD"/>
<path d="M24.1422 24.7643C23.9674 24.9303 23.8282 25.1303 23.733 25.3518C23.6379 25.5734 23.5889 25.812 23.5889 26.0531C23.5889 26.2943 23.6379 26.5329 23.733 26.7545C23.8282 26.976 23.9674 27.176 24.1422 27.342C24.308 27.5141 24.5069 27.651 24.7268 27.7444C24.9467 27.8379 25.1832 27.8861 25.4222 27.8861C25.6612 27.8861 25.8977 27.8379 26.1176 27.7444C26.3375 27.651 26.5364 27.5141 26.7022 27.342C26.877 27.176 27.0162 26.976 27.1114 26.7545C27.2065 26.5329 27.2555 26.2943 27.2555 26.0531C27.2555 25.812 27.2065 25.5734 27.1114 25.3518C27.0162 25.1303 26.877 24.9303 26.7022 24.7643C26.5364 24.5922 26.3375 24.4553 26.1176 24.3619C25.8977 24.2684 25.6612 24.2202 25.4222 24.2202C25.1832 24.2202 24.9467 24.2684 24.7268 24.3619C24.5069 24.4553 24.308 24.5922 24.1422 24.7643Z" fill="white"/>
<path d="M8.56886 28.6757C8.0498 29.1967 7.38778 29.552 6.66664 29.6966C5.9455 29.8411 5.1977 29.7683 4.51793 29.4875C3.83817 29.2067 3.25703 28.7305 2.84813 28.1192C2.43922 27.5079 2.22095 26.7889 2.22095 26.0534C2.22095 25.318 2.43922 24.599 2.84813 23.9877C3.25703 23.3764 3.83817 22.9002 4.51793 22.6194C5.1977 22.3386 5.9455 22.2658 6.66664 22.4103C7.38778 22.5549 8.0498 22.9102 8.56886 23.4312C9.26256 24.1276 9.65206 25.0705 9.65206 26.0534C9.65206 27.0364 9.26256 27.9793 8.56886 28.6757Z" fill="#32BEDD"/>
<path d="M4.65777 27.3421C4.90987 27.5816 5.22668 27.7419 5.56897 27.8031C5.91126 27.8644 6.264 27.8239 6.58353 27.6868C6.90306 27.5496 7.17534 27.3217 7.36668 27.0314C7.55801 26.741 7.65999 26.4009 7.65999 26.0532C7.65999 25.7054 7.55801 25.3653 7.36668 25.075C7.17534 24.7846 6.90306 24.5567 6.58353 24.4196C6.264 24.2824 5.91126 24.2419 5.56897 24.3032C5.22668 24.3645 4.90987 24.5248 4.65777 24.7643C4.48294 24.9304 4.34374 25.1303 4.24861 25.3518C4.15349 25.5734 4.10443 25.812 4.10443 26.0532C4.10443 26.2943 4.15349 26.5329 4.24861 26.7545C4.34374 26.9761 4.48294 27.176 4.65777 27.3421Z" fill="white"/>
<path d="M22.24 22.9687C22.5984 22.9687 22.942 22.8263 23.1954 22.5729C23.4488 22.3195 23.5911 21.9759 23.5911 21.6175V21.4575C23.1111 17.2264 20.64 13.7598 16 13.7598C11.36 13.7598 8.88891 16.6931 8.42669 21.4753C8.40699 21.6529 8.42273 21.8327 8.47298 22.0041C8.52323 22.1756 8.60699 22.3354 8.71942 22.4743C8.83186 22.6132 8.97072 22.7284 9.12798 22.8133C9.28524 22.8981 9.45777 22.9509 9.63557 22.9687H22.24Z" fill="url(#paint0_linear_868_8847)"/>
<path opacity="0.8" d="M16 14.7732C15.1809 14.7736 14.3789 14.5391 13.6889 14.0977L16 20.0532L18.2578 14.2221C17.5718 14.6138 16.7894 14.8048 16 14.7732Z" fill="white"/>
<path d="M16.0177 14.7732C18.3643 14.7732 20.2666 12.8709 20.2666 10.5243C20.2666 8.17768 18.3643 6.27539 16.0177 6.27539C13.6712 6.27539 11.7689 8.17768 11.7689 10.5243C11.7689 12.8709 13.6712 14.7732 16.0177 14.7732Z" fill="url(#paint1_linear_868_8847)"/>
<defs>
<linearGradient id="paint0_linear_868_8847" x1="16" y1="12.6398" x2="16" y2="25.2442" gradientUnits="userSpaceOnUse">
<stop stop-color="#A67AF4"/>
<stop offset="1" stop-color="#552F99"/>
</linearGradient>
<linearGradient id="paint1_linear_868_8847" x1="15.6444" y1="5.88428" x2="16.5689" y2="17.3332" gradientUnits="userSpaceOnUse">
<stop stop-color="#A67AF4"/>
<stop offset="1" stop-color="#552F99"/>
</linearGradient>
</defs>
</svg>
