<svg width="32" height="32" viewBox="0 0 32 32" fill="none" xmlns="http://www.w3.org/2000/svg">
<g clip-path="url(#clip0_868_8842)">
<path d="M2.04444 18.1691L15.8756 27.1469L29.9556 18.1514L31.7333 20.1958L15.8756 30.418L0.266663 20.2136L2.04444 18.1691Z" fill="#50E6FF"/>
<path d="M3.07556 17.0312L15.8756 1.77783L28.9422 17.0489L15.8756 25.2978L3.07556 17.0312Z" fill="white"/>
<path d="M15.8756 1.77783V25.2978L3.07556 17.0312L15.8756 1.77783Z" fill="#50E6FF"/>
<path d="M15.8755 1.77783V25.2978L28.9422 17.0489L15.8755 1.77783Z" fill="url(#paint0_linear_868_8842)"/>
<path d="M15.8755 13.9199L28.9422 17.0488L15.8755 25.2977V13.9199Z" fill="#53B1E0"/>
<path d="M15.8756 25.2977L3.07556 17.031L15.8756 13.9199V25.2977Z" fill="#9CEBFF"/>
<path d="M15.8755 30.418L31.7333 20.1958L29.9555 18.1514L15.8755 27.1469V30.418Z" fill="url(#paint1_linear_868_8842)"/>
<path d="M29.0133 21.1198C29.2074 20.928 29.3614 20.6996 29.4666 20.4479C29.5717 20.1961 29.6258 19.926 29.6258 19.6531C29.6258 19.3803 29.5717 19.1102 29.4666 18.8584C29.3614 18.6067 29.2074 18.3783 29.0133 18.1865L25.4578 14.6309C25.0711 14.2444 24.5467 14.0273 24 14.0273C23.4533 14.0273 22.9289 14.2444 22.5422 14.6309L18.9867 18.1865C18.6034 18.5785 18.3887 19.1049 18.3887 19.6531C18.3887 20.2014 18.6034 20.7278 18.9867 21.1198L21.9555 24.0887C22.008 24.1429 22.0491 24.2069 22.0766 24.2771C22.1041 24.3473 22.1173 24.4222 22.1155 24.4976V30.0087C22.1126 30.1022 22.1301 30.1953 22.167 30.2813C22.2038 30.3673 22.2591 30.4441 22.3289 30.5065L23.68 31.8576C23.7216 31.9034 23.7724 31.94 23.8291 31.9651C23.8857 31.9902 23.9469 32.0031 24.0089 32.0031C24.0708 32.0031 24.1321 31.9902 24.1887 31.9651C24.2453 31.94 24.2961 31.9034 24.3378 31.8576L25.6355 30.5598L26.4178 29.7776C26.4666 29.7277 26.494 29.6607 26.494 29.5909C26.494 29.5211 26.4666 29.4541 26.4178 29.4043L25.8667 28.8531C25.8364 28.8265 25.8121 28.7936 25.7955 28.7568C25.7789 28.7201 25.7704 28.6802 25.7704 28.6398C25.7704 28.5995 25.7789 28.5596 25.7955 28.5228C25.8121 28.486 25.8364 28.4532 25.8667 28.4265L26.4178 27.8754C26.4678 27.8225 26.4957 27.7526 26.4957 27.6798C26.4957 27.6071 26.4678 27.5371 26.4178 27.4843L25.8667 26.9331C25.8368 26.9081 25.8127 26.8768 25.7962 26.8415C25.7797 26.8062 25.7712 26.7677 25.7712 26.7287C25.7712 26.6897 25.7797 26.6512 25.7962 26.6159C25.8127 26.5806 25.8368 26.5493 25.8667 26.5243L26.4178 25.9554C26.4666 25.9055 26.494 25.8385 26.494 25.7687C26.494 25.6989 26.4666 25.6319 26.4178 25.582L25.6355 24.7998V24.5154L29.0133 21.1198ZM24 15.4843C24.2321 15.4843 24.4589 15.5531 24.6519 15.682C24.8448 15.8109 24.9952 15.9942 25.084 16.2086C25.1728 16.423 25.1961 16.6589 25.1508 16.8865C25.1055 17.1141 24.9938 17.3232 24.8297 17.4873C24.6656 17.6514 24.4565 17.7631 24.2289 17.8084C24.0013 17.8537 23.7654 17.8304 23.551 17.7416C23.3366 17.6528 23.1533 17.5024 23.0244 17.3095C22.8955 17.1165 22.8267 16.8897 22.8267 16.6576C22.8267 16.3464 22.9503 16.048 23.1703 15.8279C23.3904 15.6079 23.6888 15.4843 24 15.4843Z" fill="#FFCA00"/>
<path opacity="0.75" d="M23.1111 30.2223C23.1469 30.2592 23.1933 30.2842 23.2439 30.2937C23.2945 30.3032 23.3468 30.2968 23.3936 30.2754C23.4404 30.2539 23.4794 30.2185 23.5052 30.1739C23.531 30.1294 23.5424 30.078 23.5378 30.0267V25.4756C23.5392 25.4314 23.5303 25.3876 23.5117 25.3474C23.4932 25.3073 23.4656 25.2721 23.4311 25.2445C23.3919 25.2167 23.3455 25.2009 23.2975 25.1989C23.2496 25.197 23.202 25.2089 23.1607 25.2333C23.1194 25.2578 23.086 25.2936 23.0645 25.3366C23.0431 25.3796 23.0346 25.4279 23.04 25.4756V29.9378C23.0228 29.987 23.0203 30.0401 23.033 30.0907C23.0456 30.1412 23.0728 30.187 23.1111 30.2223Z" fill="#FF9300"/>
<path opacity="0.75" d="M26.6844 19.3774H21.4755C21.2988 19.3774 21.1555 19.5207 21.1555 19.6974V19.7508C21.1555 19.9275 21.2988 20.0708 21.4755 20.0708H26.6844C26.8612 20.0708 27.0044 19.9275 27.0044 19.7508V19.6974C27.0044 19.5207 26.8612 19.3774 26.6844 19.3774Z" fill="#FF9300"/>
<path opacity="0.75" d="M26.6844 20.4976H21.4755C21.2988 20.4976 21.1555 20.6408 21.1555 20.8176V20.8709C21.1555 21.0476 21.2988 21.1909 21.4755 21.1909H26.6844C26.8612 21.1909 27.0044 21.0476 27.0044 20.8709V20.8176C27.0044 20.6408 26.8612 20.4976 26.6844 20.4976Z" fill="#FF9300"/>
</g>
<defs>
<linearGradient id="paint0_linear_868_8842" x1="23.4311" y1="23.1289" x2="15.3422" y2="7.78672" gradientUnits="userSpaceOnUse">
<stop stop-color="#1988D9"/>
<stop offset="0.9" stop-color="#54AEF0"/>
</linearGradient>
<linearGradient id="paint1_linear_868_8842" x1="19.9467" y1="18.6669" x2="25.5467" y2="28.3203" gradientUnits="userSpaceOnUse">
<stop offset="0.1" stop-color="#54AEF0"/>
<stop offset="0.29" stop-color="#4FABEE"/>
<stop offset="0.51" stop-color="#41A2E9"/>
<stop offset="0.74" stop-color="#2A93E0"/>
<stop offset="0.88" stop-color="#1988D9"/>
</linearGradient>
<clipPath id="clip0_868_8842">
<rect width="32" height="32" fill="white"/>
</clipPath>
</defs>
</svg>
