<svg width="32" height="32" viewBox="0 0 32 32" fill="none" xmlns="http://www.w3.org/2000/svg">
<path d="M27.5556 15.0843C27.5556 22.535 18.3822 28.535 16.3876 29.751C16.2729 29.8207 16.1413 29.8575 16.0071 29.8575C15.8729 29.8575 15.7413 29.8207 15.6267 29.751C13.6249 28.535 4.44446 22.535 4.44446 15.0843V6.1172C4.44446 5.9286 4.51938 5.74773 4.65274 5.61437C4.7861 5.48101 4.96697 5.40609 5.15557 5.40609C12.2951 5.21765 10.6525 2.14209 16 2.14209C21.3476 2.14209 19.7049 5.21765 26.8445 5.40787C27.0331 5.40787 27.2139 5.48279 27.3473 5.61615C27.4806 5.74951 27.5556 5.93038 27.5556 6.11898V15.0843Z" fill="url(#paint0_linear_868_8841)"/>
<defs>
<linearGradient id="paint0_linear_868_8841" x1="16" y1="29.8576" x2="16" y2="2.14209" gradientUnits="userSpaceOnUse">
<stop stop-color="#0078D4"/>
<stop offset="0.064" stop-color="#0A7CD7"/>
<stop offset="0.338" stop-color="#2E8CE1"/>
<stop offset="0.594" stop-color="#4897E9"/>
<stop offset="0.822" stop-color="#589EED"/>
<stop offset="1" stop-color="#5EA0EF"/>
</linearGradient>
</defs>
</svg>
