<svg width="32" height="32" viewBox="0 0 32 32" fill="none" xmlns="http://www.w3.org/2000/svg">
<path d="M31.9555 16.3997V14.7002C31.9545 14.5934 31.9214 14.4893 31.8606 14.4015C31.7997 14.3137 31.7139 14.2462 31.6142 14.2077L29.2409 13.4291C29.1686 13.405 29.1024 13.3657 29.0465 13.3139C28.9907 13.2621 28.9467 13.1989 28.9173 13.1286L28.4142 11.9109C28.387 11.8433 28.3739 11.771 28.3758 11.6982C28.3776 11.6254 28.3943 11.5538 28.4249 11.4877L29.4915 9.21397C29.5364 9.11575 29.5504 9.00623 29.5317 8.89989C29.5129 8.79355 29.4624 8.6954 29.3866 8.61841L28.2098 7.43975C28.131 7.36259 28.0302 7.31175 27.9213 7.29424C27.8124 7.27673 27.7008 7.29341 27.6018 7.34197L25.3831 8.47086C25.3158 8.50526 25.2419 8.52466 25.1664 8.52773C25.0909 8.5308 25.0156 8.51746 24.9458 8.48864L23.7191 7.98553C23.6514 7.95731 23.5903 7.91543 23.5395 7.86251C23.4887 7.80959 23.4494 7.74677 23.424 7.67797L22.5618 5.2993C22.524 5.19835 22.4566 5.1112 22.3684 5.04931C22.2802 4.98743 22.1753 4.95373 22.0675 4.95264H20.368C20.2612 4.95367 20.1571 4.98675 20.0693 5.04761C19.9815 5.10847 19.914 5.1943 19.8755 5.29397L19.0969 7.6673C19.0726 7.73923 19.0332 7.80515 18.9814 7.86064C18.9296 7.91613 18.8665 7.95992 18.7964 7.98908L17.5733 8.49219C17.5052 8.51961 17.4321 8.53266 17.3587 8.53052C17.2853 8.52837 17.2131 8.51109 17.1466 8.47975L14.9173 7.41308C14.819 7.3676 14.7093 7.35311 14.6026 7.37152C14.4959 7.38994 14.3973 7.4404 14.32 7.51619L13.1431 8.69308C13.0656 8.77168 13.0145 8.87236 12.9966 8.98125C12.9788 9.09015 12.9952 9.20189 13.0435 9.30108L14.1724 11.518C14.2064 11.5857 14.2256 11.6599 14.2286 11.7356C14.2317 11.8113 14.2186 11.8868 14.1902 11.9571L13.6889 13.1802C13.6605 13.2481 13.6183 13.3093 13.5651 13.3601C13.5118 13.4109 13.4487 13.4501 13.3795 13.4753L10.9618 14.3393C10.8589 14.3757 10.7696 14.4427 10.706 14.5314C10.6424 14.6201 10.6076 14.7262 10.6062 14.8353V16.5331C10.6074 16.6401 10.6407 16.7443 10.7019 16.8321C10.7631 16.92 10.8493 16.9874 10.9493 17.0255L13.3209 17.8024C13.3931 17.8265 13.4594 17.8658 13.5152 17.9176C13.571 17.9694 13.6151 18.0326 13.6444 18.1029L14.1475 19.3295C14.1747 19.397 14.1878 19.4694 14.186 19.5422C14.1841 19.615 14.1674 19.6866 14.1369 19.7526L13.0702 22.0264C13.0253 22.1246 13.0114 22.2342 13.0301 22.3405C13.0488 22.4468 13.0994 22.545 13.1751 22.622L14.3538 23.8006C14.4324 23.8774 14.5329 23.928 14.6414 23.9455C14.7499 23.963 14.8612 23.9466 14.96 23.8984L17.1769 22.7695C17.2446 22.7355 17.3188 22.7164 17.3945 22.7133C17.4702 22.7102 17.5457 22.7233 17.616 22.7517L18.8409 23.2549C18.9092 23.282 18.9709 23.3235 19.0218 23.3766C19.0727 23.4296 19.1117 23.493 19.136 23.5624L19.9982 25.9411C20.0346 26.044 20.1016 26.1332 20.1903 26.1968C20.279 26.2604 20.3851 26.2952 20.4942 26.2966H22.192C22.2991 26.296 22.4036 26.263 22.4917 26.2022C22.5799 26.1413 22.6476 26.0553 22.6862 25.9553L23.4666 23.5731C23.4903 23.5008 23.5294 23.4346 23.5813 23.379C23.6332 23.3234 23.6966 23.2799 23.7671 23.2513L24.9938 22.7482C25.061 22.7199 25.1335 22.7063 25.2065 22.7081C25.2794 22.7099 25.3511 22.7272 25.4169 22.7589L27.6906 23.8255C27.7887 23.8706 27.8981 23.8849 28.0044 23.8665C28.1108 23.8481 28.209 23.7978 28.2862 23.7224L29.4649 22.5437C29.542 22.465 29.5929 22.3642 29.6104 22.2553C29.6279 22.1464 29.6112 22.0348 29.5626 21.9357L28.4444 19.7153C28.41 19.648 28.3906 19.5741 28.3876 19.4986C28.3845 19.4231 28.3978 19.3478 28.4266 19.278L28.928 18.0513C28.9562 17.9836 28.9981 17.9225 29.051 17.8717C29.1039 17.8209 29.1667 17.7816 29.2355 17.7562L31.6089 16.8886C31.709 16.8513 31.7956 16.7847 31.8574 16.6975C31.9192 16.6103 31.9534 16.5066 31.9555 16.3997ZM21.76 20.2771C20.7978 20.3752 19.8289 20.1731 18.9861 19.6985C18.1434 19.2239 17.4683 18.5001 17.0533 17.6265C16.6384 16.7529 16.5041 15.7722 16.6688 14.8192C16.8334 13.8661 17.2891 12.9874 17.9731 12.3037C18.6571 11.62 19.536 11.1647 20.4891 11.0004C21.4422 10.8361 22.4228 10.9709 23.2963 11.3862C24.1697 11.8015 24.8932 12.477 25.3675 13.3199C25.8417 14.1628 26.0434 15.1318 25.9449 16.094C25.8351 17.1663 25.3588 18.1679 24.5965 18.9299C23.8341 19.6919 22.8323 20.1677 21.76 20.2771Z" fill="url(#paint0_linear_868_8853)"/>
<path d="M0.087076 6.84433L1.69596 4.97766C1.76951 4.89341 1.86022 4.82586 1.96202 4.77956C2.06382 4.73326 2.17435 4.70928 2.28619 4.70922H17.7137C17.8658 4.6951 18.0191 4.71337 18.1636 4.7628C18.3081 4.81224 18.4404 4.89173 18.552 4.99604C18.6635 5.10035 18.7517 5.2271 18.8106 5.36796C18.8696 5.50881 18.8981 5.66056 18.8942 5.81322V24.9617C18.8943 25.023 18.8812 25.0837 18.8557 25.1395C18.8303 25.1954 18.793 25.2451 18.7466 25.2852L16.5013 27.2283H1.13063L0.0639648 26.7803L0.087076 6.84433Z" fill="#005BA1"/>
<path d="M1.38135 6.83736L2.36801 5.71203C2.43337 5.63779 2.51377 5.5783 2.60389 5.53753C2.69401 5.49677 2.79177 5.47565 2.89068 5.47559H17.2907C17.4746 5.47559 17.6509 5.54863 17.7809 5.67866C17.911 5.80868 17.984 5.98504 17.984 6.16892V24.48C17.9842 24.5767 17.9642 24.6723 17.9253 24.7607C17.8864 24.8492 17.8295 24.9286 17.7582 24.9938L16.2187 26.3947L1.38135 6.83736Z" fill="white"/>
<path d="M16.2471 6.82479H0.17779C0.16292 6.82322 0.147886 6.8249 0.133731 6.82972C0.119576 6.83454 0.106637 6.84237 0.0958137 6.85269C0.0849899 6.86301 0.0765393 6.87555 0.0710479 6.88946C0.0655566 6.90337 0.0631558 6.91831 0.064012 6.93323V26.8977C0.064012 27.0024 0.105593 27.1027 0.179607 27.1768C0.216255 27.2134 0.259763 27.2425 0.307646 27.2623C0.355529 27.2821 0.40685 27.2923 0.458679 27.2923H16.2471C16.352 27.2923 16.4525 27.2508 16.5268 27.1769C16.6011 27.1029 16.6431 27.0025 16.6436 26.8977V7.21946C16.6436 7.16748 16.6333 7.11601 16.6134 7.06801C16.5934 7.02001 16.5642 6.97643 16.5273 6.93975C16.4905 6.90308 16.4468 6.87405 16.3987 6.85432C16.3506 6.83459 16.2991 6.82456 16.2471 6.82479Z" fill="url(#paint1_linear_868_8853)"/>
<path d="M0.126211 6.82471H4.61154V27.2816H0.378656C0.290015 27.2816 0.205004 27.2464 0.142325 27.1837C0.0796462 27.121 0.0444336 27.036 0.0444336 26.9474V6.90648C0.0444336 6.8848 0.0530494 6.864 0.0683858 6.84866C0.0837221 6.83332 0.104523 6.82471 0.126211 6.82471Z" fill="url(#paint2_linear_868_8853)"/>
<defs>
<linearGradient id="paint0_linear_868_8853" x1="21.2835" y1="26.2877" x2="21.2835" y2="4.94553" gradientUnits="userSpaceOnUse">
<stop stop-color="#32BEDD"/>
<stop offset="0.576" stop-color="#32CEEF"/>
<stop offset="1" stop-color="#32D4F5"/>
</linearGradient>
<linearGradient id="paint1_linear_868_8853" x1="8.35379" y1="27.2923" x2="8.35379" y2="6.82479" gradientUnits="userSpaceOnUse">
<stop stop-color="#1988D9"/>
<stop offset="0.9" stop-color="#54AEF0"/>
</linearGradient>
<linearGradient id="paint2_linear_868_8853" x1="2.32888" y1="27.2816" x2="2.32888" y2="6.82471" gradientUnits="userSpaceOnUse">
<stop stop-color="#005BA1"/>
<stop offset="1" stop-color="#0078D4"/>
</linearGradient>
</defs>
</svg>
