<svg width="32" height="32" viewBox="0 0 32 32" fill="none" xmlns="http://www.w3.org/2000/svg">
<path d="M27.9466 32.0001C28.6303 32.0001 29.286 31.7285 29.7694 31.2451C30.2528 30.7617 30.5244 30.106 30.5244 29.4223C30.5428 29.3224 30.5428 29.22 30.5244 29.1201C29.4933 20.9957 24.8889 14.3823 16 14.3823C7.11109 14.3823 2.3822 19.9823 1.47554 29.1379C1.43866 29.479 1.46981 29.8241 1.56718 30.1532C1.66454 30.4823 1.82619 30.7887 2.04277 31.0549C2.25935 31.3211 2.52656 31.5417 2.82894 31.7039C3.13133 31.8662 3.46288 31.9668 3.80443 32.0001H27.9466Z" fill="url(#paint0_linear_868_8846)"/>
<path opacity="0.8" d="M16 16.3022C14.4364 16.3009 12.9061 15.8505 11.5911 15.0044L16 26.4177L20.3378 15.0755C19.0381 15.889 17.5332 16.3146 16 16.3022Z" fill="white"/>
<path d="M16.0178 16.2844C20.5146 16.2844 24.16 12.639 24.16 8.14222C24.16 3.6454 20.5146 0 16.0178 0C11.5209 0 7.87555 3.6454 7.87555 8.14222C7.87555 12.639 11.5209 16.2844 16.0178 16.2844Z" fill="url(#paint1_linear_868_8846)"/>
<defs>
<linearGradient id="paint0_linear_868_8846" x1="16" y1="12.2312" x2="16" y2="36.3557" gradientUnits="userSpaceOnUse">
<stop offset="0.22" stop-color="#32D4F5"/>
<stop offset="1" stop-color="#198AB3"/>
</linearGradient>
<linearGradient id="paint1_linear_868_8846" x1="15.3067" y1="-0.711111" x2="17.0667" y2="21.1911" gradientUnits="userSpaceOnUse">
<stop offset="0.22" stop-color="#32D4F5"/>
<stop offset="1" stop-color="#198AB3"/>
</linearGradient>
</defs>
</svg>
