<svg width="32" height="32" viewBox="0 0 32 32" fill="none" xmlns="http://www.w3.org/2000/svg">
<path d="M31.9591 16.3553V13.8451L31.6036 13.7135L28.9173 12.8246L28.2062 11.1073L29.5716 8.2024L27.8098 6.44062L27.4542 6.6184L24.944 7.89484L23.2267 7.18373L22.1262 4.14551H19.6284L19.4969 4.50106L18.608 7.18729L16.8907 7.8984L14.0444 6.53484L12.2827 8.29662L12.4604 8.65217L13.7369 11.1624L13.0258 12.8797L9.94312 13.9802V16.4868L10.2987 16.6184L12.9849 17.5073L13.696 19.2246L12.32 22.1242L14.08 23.8842L14.4356 23.7064L16.9458 22.43L18.6631 23.1411L19.7636 26.1793H22.2738L22.4071 25.8237L23.2871 23.1375L25.0044 22.4264L27.9111 23.7917L29.6729 22.03L29.4951 21.6744L28.2187 19.1642L28.9298 17.4468L31.9591 16.3553ZM20.9493 19.998C19.9935 19.9987 19.0589 19.7159 18.2639 19.1853C17.4688 18.6548 16.8489 17.9004 16.4826 17.0175C16.1163 16.1347 16.0202 15.163 16.2062 14.2255C16.3922 13.2879 16.8522 12.4266 17.5278 11.7505C18.2034 11.0743 19.0644 10.6138 20.0018 10.4271C20.9392 10.2403 21.9109 10.3358 22.7941 10.7014C23.6772 11.067 24.4321 11.6864 24.9632 12.4811C25.4943 13.2758 25.7778 14.2101 25.7778 15.166C25.7785 15.8004 25.6541 16.4288 25.4117 17.0151C25.1694 17.6014 24.8138 18.1342 24.3653 18.583C23.9169 19.0318 23.3844 19.3878 22.7982 19.6305C22.2121 19.8733 21.5838 19.9982 20.9493 19.998Z" fill="#0078D4"/>
<path d="M22.1494 29.3618C22.7216 29.3632 23.271 29.1375 23.677 28.7342C24.083 28.3308 24.3123 27.7829 24.3147 27.2107C24.3144 27.124 24.3097 27.0373 24.3005 26.9511C23.4507 20.1671 19.5805 14.6436 12.1974 14.6436C4.68446 14.6436 0.808909 19.3209 0.0533531 26.9689C0.0240704 27.2523 0.0509268 27.5388 0.132387 27.8118C0.213848 28.0849 0.348316 28.3392 0.528108 28.5603C0.707899 28.7813 0.92949 28.9648 1.18022 29.1002C1.43094 29.2356 1.70589 29.3202 1.98935 29.3493C2.06133 29.3579 2.13376 29.3621 2.20624 29.3618H22.1494Z" fill="url(#paint0_linear_868_8840)"/>
<path opacity="0.8" d="M12.3129 16.2505C11.0055 16.2524 9.72552 15.8758 8.62756 15.166L12.2756 24.6967L15.8987 15.23C14.8224 15.8989 13.5801 16.2524 12.3129 16.2505Z" fill="white"/>
<path d="M12.2631 16.2524C16.0226 16.2524 19.0702 13.2048 19.0702 9.4453C19.0702 5.68583 16.0226 2.63818 12.2631 2.63818C8.50364 2.63818 5.45599 5.68583 5.45599 9.4453C5.45599 13.2048 8.50364 16.2524 12.2631 16.2524Z" fill="url(#paint1_linear_868_8840)"/>
<defs>
<linearGradient id="paint0_linear_868_8840" x1="12.1778" y1="12.8462" x2="12.1778" y2="32.9991" gradientUnits="userSpaceOnUse">
<stop offset="0.225" stop-color="#32D4F5"/>
<stop offset="0.473" stop-color="#31D1F3"/>
<stop offset="0.888" stop-color="#22A5CB"/>
<stop offset="0.999" stop-color="#198AB3"/>
<stop offset="1" stop-color="#198AB3"/>
</linearGradient>
<linearGradient id="paint1_linear_868_8840" x1="11.6675" y1="2.04263" x2="13.1395" y2="20.3413" gradientUnits="userSpaceOnUse">
<stop offset="0.225" stop-color="#32D4F5"/>
<stop offset="0.473" stop-color="#31D1F3"/>
<stop offset="0.888" stop-color="#22A5CB"/>
<stop offset="0.999" stop-color="#198AB3"/>
<stop offset="1" stop-color="#198AB3"/>
</linearGradient>
</defs>
</svg>
