<svg width="32" height="32" viewBox="0 0 32 32" fill="none" xmlns="http://www.w3.org/2000/svg">
<g clip-path="url(#clip0_868_8862)">
<path d="M21.1022 0.448242H1.67287C1.0985 0.448242 0.632874 0.913866 0.632874 1.48824V29.6305C0.632874 30.2048 1.0985 30.6705 1.67287 30.6705H21.1022C21.6766 30.6705 22.1422 30.2048 22.1422 29.6305V1.48824C22.1422 0.913866 21.6766 0.448242 21.1022 0.448242Z" fill="url(#paint0_linear_868_8862)"/>
<path d="M17.0276 23.0884H5.74755C5.44711 23.0884 5.20355 23.3319 5.20355 23.6324V24.7488C5.20355 25.0493 5.44711 25.2928 5.74755 25.2928H17.0276C17.328 25.2928 17.5716 25.0493 17.5716 24.7488V23.6324C17.5716 23.3319 17.328 23.0884 17.0276 23.0884Z" fill="#773ADC"/>
<path d="M17.0276 18.8125H5.74755C5.44711 18.8125 5.20355 19.0561 5.20355 19.3565V20.4729C5.20355 20.7734 5.44711 21.0169 5.74755 21.0169H17.0276C17.328 21.0169 17.5716 20.7734 17.5716 20.4729V19.3565C17.5716 19.0561 17.328 18.8125 17.0276 18.8125Z" fill="#773ADC"/>
<path d="M15.8222 16.3116C16.0672 16.3207 16.3057 16.2322 16.4854 16.0655C16.6651 15.8988 16.7712 15.6676 16.7805 15.4227V15.3925C16.784 15.3546 16.784 15.3165 16.7805 15.2787C16.4 12.2565 14.6827 9.81201 11.4098 9.81201C8.1369 9.81201 6.34845 11.892 5.9929 15.2556C5.96759 15.5101 6.04437 15.7644 6.20637 15.9624C6.36837 16.1604 6.60235 16.286 6.8569 16.3116H15.8222Z" fill="url(#paint1_linear_868_8862)"/>
<path d="M11.4489 10.5301C10.8806 10.5249 10.3256 10.3578 9.84888 10.0483L11.4489 14.2795L13.0667 10.0786C12.5801 10.3771 12.0197 10.5336 11.4489 10.5301Z" fill="#F2F2F2"/>
<path d="M11.4293 10.5299C13.0994 10.5299 14.4533 9.17604 14.4533 7.50593C14.4533 5.83582 13.0994 4.48193 11.4293 4.48193C9.75922 4.48193 8.40533 5.83582 8.40533 7.50593C8.40533 9.17604 9.75922 10.5299 11.4293 10.5299Z" fill="url(#paint2_linear_868_8862)"/>
<path d="M24.3271 16.2706L25.216 16.8448C25.4448 16.9927 25.7116 17.0712 25.984 17.0706H27.0507C27.3232 17.0709 27.5898 17.1495 27.819 17.297C28.0481 17.4445 28.23 17.6547 28.3431 17.9026L28.7858 18.8697C28.8978 19.1181 29.0801 19.3282 29.3102 19.4742L30.1991 20.0484C30.4281 20.1958 30.61 20.4058 30.7231 20.6535C30.8362 20.9012 30.8759 21.1762 30.8373 21.4457L30.6862 22.4982C30.646 22.7679 30.6855 23.0435 30.8 23.2911L31.2409 24.2582C31.3537 24.5059 31.3931 24.7808 31.3543 25.0502C31.3156 25.3197 31.2003 25.5723 31.0222 25.7782L30.3271 26.5817C30.1477 26.7872 30.0322 27.0405 29.9947 27.3106L29.8418 28.3631C29.8028 28.6326 29.6873 28.8853 29.5089 29.0911C29.3305 29.2969 29.0968 29.4471 28.8356 29.524L27.8169 29.8244C27.5556 29.9009 27.3217 30.0509 27.1431 30.2564L26.4462 31.06C26.2679 31.2658 26.0342 31.4161 25.7729 31.493C25.5117 31.5699 25.2338 31.5701 24.9724 31.4937L23.952 31.1933C23.6908 31.1167 23.4132 31.1167 23.152 31.1933L22.1316 31.4937C21.8702 31.5701 21.5923 31.5699 21.3311 31.493C21.0698 31.4161 20.8361 31.2658 20.6578 31.06L19.9609 30.2564C19.7818 30.0514 19.5481 29.9016 19.2871 29.8244L18.2667 29.524C18.0057 29.4468 17.7724 29.2964 17.5944 29.0907C17.4163 28.8849 17.3011 28.6324 17.2622 28.3631L17.1093 27.3106C17.0706 27.0408 16.9553 26.7878 16.7769 26.5817L16.0818 25.7782C15.9037 25.5723 15.7884 25.3197 15.7497 25.0502C15.7109 24.7808 15.7503 24.5059 15.8631 24.2582L16.304 23.2911C16.4171 23.0431 16.4566 22.7679 16.4178 22.4982L16.2667 21.4457C16.2281 21.1762 16.2678 20.9012 16.3809 20.6535C16.494 20.4058 16.6759 20.1958 16.9049 20.0484L17.7938 19.4742C18.0228 19.327 18.2049 19.1173 18.3182 18.8697L18.7609 17.9026C18.8735 17.654 19.0552 17.4431 19.2843 17.2949C19.5135 17.1468 19.7804 17.0677 20.0533 17.0671H21.12C21.3923 17.0669 21.6589 16.9885 21.888 16.8413L22.7769 16.2671C23.0079 16.1176 23.2774 16.0384 23.5525 16.0391C23.8277 16.0397 24.0968 16.1201 24.3271 16.2706Z" fill="url(#paint3_linear_868_8862)"/>
<path d="M23.3867 18.605C22.3318 18.605 21.3007 18.9178 20.4236 19.5038C19.5466 20.0898 18.863 20.9228 18.4593 21.8973C18.0557 22.8719 17.95 23.9442 18.1558 24.9788C18.3616 26.0134 18.8696 26.9637 19.6154 27.7095C20.3613 28.4554 21.3116 28.9634 22.3462 29.1692C23.3808 29.375 24.4531 29.2693 25.4277 28.8657C26.4022 28.462 27.2352 27.7784 27.8212 26.9014C28.4072 26.0243 28.72 24.9931 28.72 23.9383C28.72 22.5238 28.1581 21.1673 27.1579 20.1671C26.1577 19.1669 24.8012 18.605 23.3867 18.605Z" fill="#B4EC36"/>
</g>
<defs>
<linearGradient id="paint0_linear_868_8862" x1="10.0018" y1="-0.284202" x2="12.7733" y2="31.4029" gradientUnits="userSpaceOnUse">
<stop offset="0.5" stop-color="#B796F9"/>
<stop offset="0.9" stop-color="#A67AF4"/>
</linearGradient>
<linearGradient id="paint1_linear_868_8862" x1="10.9031" y1="9.82979" x2="11.504" y2="16.6973" gradientUnits="userSpaceOnUse">
<stop stop-color="#A67AF4"/>
<stop offset="0.241" stop-color="#9065DB"/>
<stop offset="0.748" stop-color="#653EAB"/>
<stop offset="1" stop-color="#552F99"/>
</linearGradient>
<linearGradient id="paint2_linear_868_8862" x1="11.1644" y1="4.49438" x2="11.6924" y2="10.5193" gradientUnits="userSpaceOnUse">
<stop stop-color="#A67AF4"/>
<stop offset="0.241" stop-color="#9065DB"/>
<stop offset="0.748" stop-color="#653EAB"/>
<stop offset="1" stop-color="#552F99"/>
</linearGradient>
<linearGradient id="paint3_linear_868_8862" x1="23.552" y1="31.5524" x2="23.552" y2="16.0413" gradientUnits="userSpaceOnUse">
<stop stop-color="#76BC2D"/>
<stop offset="0.309" stop-color="#7AC22E"/>
<stop offset="0.718" stop-color="#84D332"/>
<stop offset="0.785" stop-color="#86D633"/>
</linearGradient>
<clipPath id="clip0_868_8862">
<rect width="32" height="32" fill="white"/>
</clipPath>
</defs>
</svg>
