<svg width="32" height="32" viewBox="0 0 32 32" fill="none" xmlns="http://www.w3.org/2000/svg">
<g clip-path="url(#clip0_854_29435)">
<path d="M32 0H0V32H32V0Z" fill="#3F8624"/>
<path d="M21.3334 20.3396C21.1208 20.3388 20.917 20.2546 20.7659 20.1049C20.6911 20.0307 20.6318 19.9423 20.5915 19.8448C20.5512 19.7474 20.5307 19.6429 20.5313 19.5375V18.9146H26.4534V19.2644C26.454 19.4054 26.4267 19.5451 26.3731 19.6756C26.3195 19.806 26.2407 19.9245 26.1412 20.0244C26.0417 20.1243 25.9235 20.2036 25.7933 20.2577C25.6631 20.3118 25.5235 20.3396 25.3825 20.3396H21.3334ZM21.1371 19.5204C21.138 19.5712 21.1578 19.6199 21.1926 19.6569C21.2298 19.6947 21.2804 19.7162 21.3334 19.7167H25.3825C25.4438 19.7163 25.5045 19.7036 25.5609 19.6794C25.6174 19.6553 25.6684 19.6201 25.711 19.5759C25.7332 19.5537 25.7532 19.5294 25.7707 19.5033L21.1371 19.5204Z" fill="white"/>
<path d="M21.4187 19.2175L21.4145 16.0047L25.5617 16.0004L25.5659 19.2132H26.1718L26.1675 15.3945L20.8086 15.3988L20.8129 19.2175H21.4187Z" fill="white"/>
<path d="M5.54663 19.8489H6.22503V16.1369H9.4421V15.5225H6.22503V12.4676H10.0309V11.8574H5.54663V19.8489Z" fill="white"/>
<path d="M14.0074 15.7868L12.7743 15.3175C12.4497 15.2027 12.1356 15.06 11.8356 14.8908C11.6439 14.7801 11.4815 14.625 11.362 14.4386C11.258 14.2372 11.208 14.0123 11.217 13.7858C11.2057 13.5782 11.2426 13.3708 11.3248 13.1799C11.4069 12.9889 11.5321 12.8195 11.6906 12.685C12.0874 12.4059 12.5675 12.2705 13.0516 12.301C13.7661 12.325 14.4715 12.4692 15.138 12.7276V12.1218C14.7975 11.9743 14.443 11.8614 14.0799 11.7847C13.7298 11.7055 13.3722 11.664 13.0132 11.661C12.3593 11.6312 11.7172 11.8422 11.2084 12.254C10.9847 12.4448 10.8068 12.6834 10.6879 12.9522C10.569 13.2211 10.5121 13.5133 10.5215 13.8071C10.5116 14.2404 10.6638 14.6619 10.9482 14.989C11.3088 15.3649 11.7554 15.6475 12.2495 15.8124L13.585 16.333C13.9608 16.4549 14.3047 16.6589 14.5919 16.9303C14.7953 17.1489 14.9055 17.4382 14.8991 17.7367C14.9083 17.9712 14.8617 18.2045 14.763 18.4174C14.6644 18.6303 14.5165 18.8167 14.3316 18.9612C13.8867 19.2801 13.3465 19.4381 12.7999 19.4092C12.0383 19.398 11.2846 19.2536 10.5727 18.9826V19.5714C11.2869 19.9039 12.0677 20.0688 12.8554 20.0535C13.573 20.0876 14.2789 19.8619 14.8436 19.4178C15.0882 19.2174 15.2834 18.9635 15.4144 18.6758C15.5453 18.388 15.6084 18.074 15.5988 17.758C15.6155 17.3356 15.4809 16.921 15.2191 16.589C14.8918 16.2208 14.4742 15.9443 14.0074 15.7868Z" fill="white"/>
<path d="M18.5172 15.2835L17.1562 13.3379H16.1919L18.0308 15.9363L18.5172 15.2835Z" fill="white"/>
<path d="M15.9829 19.8915H16.913L18.4618 17.6302L18.0437 17.0371L15.9829 19.8915Z" fill="white"/>
<path d="M20.1386 17.5406L19.3578 16.4312L21.5722 13.3379H20.6591L18.9055 15.8382L18.4404 16.491L20.1386 18.923V17.6856V17.5406Z" fill="white"/>
</g>
<defs>
<clipPath id="clip0_854_29435">
<rect width="32" height="32" fill="white"/>
</clipPath>
</defs>
</svg>
