<svg width="32" height="32" viewBox="0 0 32 32" fill="none" xmlns="http://www.w3.org/2000/svg">
<g clip-path="url(#clip0_854_29436)">
<path d="M32 0H0V32H32V0Z" fill="url(#paint0_linear_854_29436)"/>
<path d="M5.5083 21.1627V10.8374H11.2982V11.6267H6.40003V15.5777H10.5387V16.367H6.40003V21.1627H5.5083Z" fill="white"/>
<path d="M14.161 15.949C13.5223 15.7328 12.9445 15.3671 12.4757 14.8824C12.1172 14.4558 11.9288 13.9118 11.9466 13.3549C11.9344 12.9765 12.0075 12.6002 12.1604 12.2538C12.3133 11.9074 12.542 11.5999 12.8298 11.3538C13.4869 10.8195 14.3178 10.5461 15.1637 10.5858C15.6274 10.5884 16.0895 10.6413 16.5418 10.7437C17.0088 10.8396 17.4648 10.9825 17.9029 11.1704V11.9469C17.0407 11.6174 16.129 11.4356 15.2064 11.4093C14.5804 11.3682 13.9594 11.5445 13.4485 11.9085C13.2439 12.0821 13.0824 12.3007 12.9766 12.5472C12.8707 12.7937 12.8234 13.0614 12.8384 13.3293C12.8242 13.6253 12.889 13.9198 13.0261 14.1826C13.1855 14.4204 13.4008 14.6152 13.6533 14.7501C14.0396 14.9723 14.4452 15.1594 14.865 15.309L16.4608 15.9192C17.06 16.1198 17.5977 16.4709 18.0224 16.9389C18.3609 17.3679 18.5363 17.9031 18.5173 18.4493C18.5272 18.8558 18.4444 19.2591 18.2751 19.6288C18.1058 19.9985 17.8545 20.3247 17.5402 20.5826C16.8134 21.1552 15.9044 21.4461 14.9802 21.4018C13.9625 21.4205 12.954 21.206 12.032 20.7746V20.028C12.9488 20.3828 13.9205 20.5749 14.9034 20.5954C15.6088 20.6326 16.3057 20.4279 16.8789 20.0152C17.1185 19.8296 17.3104 19.5896 17.4388 19.3151C17.5672 19.0405 17.6283 18.7393 17.617 18.4365C17.6242 18.0484 17.4786 17.673 17.2117 17.3912C16.8473 17.0423 16.4102 16.7786 15.9317 16.6189L14.161 15.949Z" fill="white"/>
<path d="M22.2636 15.2665L20.5057 12.7534H19.2556L21.6364 16.107L22.2636 15.2665Z" fill="white"/>
<path d="M25.2289 21.2185H26.4918L23.3515 16.7428L26.2145 12.7534H25.0283L22.767 15.9833L22.1611 16.8238L25.2289 21.2185Z" fill="white"/>
<path d="M22.191 18.2955L20.1899 21.2181H18.991L21.6491 17.5317L22.191 18.2955Z" fill="white"/>
</g>
<defs>
<linearGradient id="paint0_linear_854_29436" x1="-6.62613" y1="38.6261" x2="38.6261" y2="-6.62613" gradientUnits="userSpaceOnUse">
<stop stop-color="#1B660F"/>
<stop offset="1" stop-color="#6CAE3E"/>
</linearGradient>
<clipPath id="clip0_854_29436">
<rect width="32" height="32" fill="white"/>
</clipPath>
</defs>
</svg>
