<svg width="32" height="32" viewBox="0 0 32 32" fill="none" xmlns="http://www.w3.org/2000/svg">
<g clip-path="url(#clip0_854_29432)">
<path d="M32 0H0V32H32V0Z" fill="url(#paint0_linear_854_29432)"/>
<path d="M21.1072 11.0467C21.0985 10.9904 21.0857 10.9348 21.0688 10.8803C20.6891 9.71976 18.3296 9.11816 16 9.11816C13.6704 9.11816 11.3067 9.71976 10.9312 10.8803C10.9144 10.9348 10.9015 10.9904 10.8928 11.0467C10.8886 11.1007 10.8886 11.1549 10.8928 11.2088V20.7363C10.8928 22.1102 13.4528 22.827 16.0128 22.827C18.5728 22.827 21.1328 22.1102 21.1328 20.7363V11.2088C21.1286 11.1542 21.12 11.1 21.1072 11.0467V11.0467ZM15.9872 9.9715C18.4278 9.9715 19.887 10.6115 20.1942 11.0467C19.8784 11.4734 18.4192 12.1176 15.9872 12.1176C13.5552 12.1176 12.096 11.4862 11.7803 11.0467C12.1003 10.6115 13.5595 9.9715 16 9.9715H15.9872ZM20.2539 20.7363C20.2539 21.163 18.7478 21.9736 15.9872 21.9736C13.2267 21.9736 11.7206 21.1544 11.7206 20.7363V12.092C12.6891 12.6723 14.3446 12.971 15.9872 12.971C17.6299 12.971 19.2854 12.6723 20.2539 12.092V20.7363Z" fill="white"/>
<path d="M10.9312 10.8804C10.9144 10.9348 10.9015 10.9904 10.8928 11.0468C10.8886 10.9914 10.8886 10.9358 10.8928 10.8804H10.9312Z" fill="white"/>
<path d="M21.1199 10.8804C21.1242 10.9358 21.1242 10.9914 21.1199 11.0468C21.1112 10.9904 21.0984 10.9348 21.0815 10.8804H21.1199Z" fill="white"/>
<path d="M9.90285 9.29723L9.29699 9.9031L6.18659 6.7927V9.1735H5.33325V5.76016C5.33325 5.647 5.3782 5.53848 5.45822 5.45846C5.53824 5.37845 5.64676 5.3335 5.75992 5.3335H9.17325V6.18683H6.79245L9.90285 9.29723Z" fill="white"/>
<path d="M26.6665 5.76016V9.1735H25.8132V6.7927L22.7028 9.9031L22.0969 9.29723L25.2073 6.18683H22.8265V5.3335H26.2399C26.353 5.3335 26.4615 5.37845 26.5416 5.45846C26.6216 5.53848 26.6665 5.647 26.6665 5.76016Z" fill="white"/>
<path d="M6.79245 25.8134H9.17325V26.6668H5.75992C5.64676 26.6668 5.53824 26.6218 5.45822 26.5418C5.3782 26.4618 5.33325 26.3533 5.33325 26.2401V22.8268H6.18659V25.2076L9.29699 22.0972L9.90285 22.703L6.79245 25.8134Z" fill="white"/>
<path d="M26.6665 22.8268V26.2401C26.6665 26.3533 26.6216 26.4618 26.5416 26.5418C26.4615 26.6218 26.353 26.6668 26.2399 26.6668H22.8265V25.8134H25.2073L22.0969 22.703L22.7028 22.0972L25.8132 25.2076V22.8268H26.6665Z" fill="white"/>
</g>
<defs>
<linearGradient id="paint0_linear_854_29432" x1="-6.62613" y1="38.6261" x2="38.6261" y2="-6.62613" gradientUnits="userSpaceOnUse">
<stop stop-color="#1B660F"/>
<stop offset="1" stop-color="#6CAE3E"/>
</linearGradient>
<clipPath id="clip0_854_29432">
<rect width="32" height="32" fill="white"/>
</clipPath>
</defs>
</svg>
