<svg width="32" height="32" viewBox="0 0 32 32" fill="none" xmlns="http://www.w3.org/2000/svg">
<g clip-path="url(#clip0_854_29444)">
<path d="M32 0H0V32H32V0Z" fill="url(#paint0_linear_854_29444)"/>
<path d="M26.2101 17.0921C26.0864 16.4222 25.3269 15.9486 24.8064 15.6116C24.64 15.5049 24.1834 15.3342 24.145 15.1849C24.1424 15.0781 24.1568 14.9715 24.1877 14.8692L24.6144 11.8014C24.7381 10.9012 24.8576 10.0009 24.9813 9.10065C25.0922 8.27291 24.6954 7.71825 24.0213 7.25318C22.6474 6.30171 20.8554 5.91771 19.2384 5.65318C17.2104 5.32208 15.1482 5.25468 13.1029 5.45265C11.2634 5.58762 9.45795 6.0199 7.75678 6.73265C6.84372 7.15931 5.64905 7.82491 5.79838 8.98971C6.22505 12.4542 6.72852 15.9102 7.19358 19.3705C7.40692 20.9534 7.62025 22.5364 7.83358 24.1193C7.86802 24.4276 7.9832 24.7213 8.16749 24.9707C8.35179 25.2202 8.59867 25.4166 8.88318 25.5401C10.2058 26.2569 11.8442 26.4617 13.3205 26.5982C15.2831 26.7755 17.2607 26.688 19.2 26.338C20.4288 26.1118 22.7157 25.7406 22.912 24.2046C23.1552 22.3017 23.424 20.3988 23.68 18.5001L23.7738 17.9198C24.4693 18.0862 26.4533 18.4404 26.2101 17.0921ZM15.3813 6.18651C17.9413 6.18651 20.8725 6.47665 23.168 7.73958C23.5221 7.93585 24.3456 8.37531 24.0981 8.89585C23.8506 9.41638 23.0826 9.67665 22.6133 9.86438C21.9431 10.1119 21.2539 10.3046 20.5525 10.4404C17.5068 11.0437 14.379 11.1087 11.3109 10.6324C9.92553 10.4895 8.5779 10.0948 7.33438 9.46758C7.02718 9.29265 6.51945 8.97691 6.66025 8.55878C6.77178 8.33412 6.94685 8.14718 7.16372 8.02118C8.10088 7.41849 9.14297 6.99731 10.2357 6.77958C11.9207 6.37508 13.6485 6.17595 15.3813 6.18651V6.18651ZM22.0714 24.1705C22.0074 24.6697 21.184 24.9172 20.7914 25.058C19.9765 25.3306 19.1359 25.5193 18.2826 25.6212C16.3895 25.8729 14.4713 25.8729 12.5781 25.6212C11.3924 25.5292 10.2345 25.2151 9.16478 24.6953C9.01925 24.6321 8.89424 24.5295 8.80379 24.3991C8.71335 24.2687 8.66105 24.1157 8.65278 23.9572C8.22612 20.5737 7.73972 17.1902 7.28318 13.8068L6.78825 10.1374C7.75822 10.6728 8.811 11.042 9.90292 11.2297C11.0724 11.4677 12.2572 11.6231 13.4485 11.6948C15.7866 11.8623 18.1364 11.7319 20.4416 11.3065C21.6698 11.1299 22.8563 10.7339 23.9445 10.1374L23.04 16.8361C20.8779 16.1238 18.7655 15.2686 16.7168 14.2761C16.6269 14.2418 16.5399 14.2004 16.4565 14.1524C16.3413 14.067 16.3712 14.1097 16.3157 13.9774C16.2091 13.7342 16.1835 13.5508 15.9573 13.3502C15.8352 13.2525 15.6911 13.186 15.5375 13.1566C15.3839 13.1273 15.2254 13.1359 15.0758 13.1817C14.9263 13.2275 14.7902 13.3092 14.6794 13.4197C14.5687 13.5301 14.4866 13.6659 14.4402 13.8153C14.3939 13.9647 14.3848 14.1231 14.4137 14.2769C14.4426 14.4306 14.5086 14.5749 14.606 14.6973C14.7034 14.8197 14.8292 14.9164 14.9725 14.9791C15.1158 15.0418 15.2723 15.0685 15.4282 15.0569C15.5753 15.0325 15.7187 14.9895 15.8549 14.9289C16.0213 14.8777 16.0213 14.8862 16.1962 14.9673C18.2713 15.9791 20.409 16.857 22.5962 17.5956C22.9248 17.7022 22.9205 17.5956 22.9205 17.8686C22.9067 18.0764 22.8796 18.283 22.8394 18.4873L22.5664 20.5225L22.0714 24.1705ZM15.488 14.0798C15.488 14.195 15.3258 14.1822 15.2832 14.1097C15.2405 14.0372 15.488 13.9177 15.488 14.0798ZM23.8933 17.0665L24.0213 16.1236C24.448 16.3668 25.1733 16.7337 25.3653 17.2201C24.9472 17.3908 24.2858 17.1646 23.8933 17.0665Z" fill="white"/>
</g>
<defs>
<linearGradient id="paint0_linear_854_29444" x1="-6.62613" y1="38.6261" x2="38.6261" y2="-6.62613" gradientUnits="userSpaceOnUse">
<stop stop-color="#1B660F"/>
<stop offset="1" stop-color="#6CAE3E"/>
</linearGradient>
<clipPath id="clip0_854_29444">
<rect width="32" height="32" fill="white"/>
</clipPath>
</defs>
</svg>
