<svg width="32" height="32" viewBox="0 0 32 32" fill="none" xmlns="http://www.w3.org/2000/svg">
<g clip-path="url(#clip0_854_29944)">
<path d="M32 0H0V32H32V0Z" fill="url(#paint0_linear_854_29944)"/>
<path fill-rule="evenodd" clip-rule="evenodd" d="M26.2648 20.6398C26.1728 20.5454 25.9936 20.399 25.6768 20.199L25.6296 20.5446C25.9448 20.6182 26.144 20.6382 26.2648 20.6398ZM25.5552 15.0526C25.5176 14.5798 23.3016 13.495 19.8248 13.495C16.3176 13.495 14.0936 14.599 14.0936 15.0646L14.1072 15.1374C14.24 15.6326 16.5408 16.4206 19.8248 16.4206C23.1096 16.4206 25.4104 15.6326 25.552 15.0902L25.5552 15.0526ZM25.4064 16.2118C24.1784 16.8814 21.9504 17.2206 19.8248 17.2206C17.6984 17.2206 15.4712 16.8814 14.2464 16.2286L14.8288 20.559C15.2296 20.6966 15.6072 20.9278 15.9368 21.2526C16.1408 21.455 16.316 21.6894 16.4616 21.9542C16.7712 21.7878 17.1328 21.7446 17.484 21.8478C18.0288 22.0086 18.4048 22.4718 18.5248 23.1086C18.7656 23.1822 19.0088 23.2918 19.2208 23.427C19.8872 23.8486 20.2248 24.3974 20.2248 25.0582C20.2248 25.5974 20.0784 26.043 19.8048 26.3998H19.8248C20.8456 26.3998 21.8656 26.2934 22.6976 26.1014C23.0176 26.0278 23.3024 25.9422 23.5424 25.8478C24.012 25.6614 24.1528 25.4966 24.1656 25.4534L24.7456 21.135C22.7696 20.5806 21.3384 20.1414 20.4776 19.8246C20.3432 19.9278 20.1824 19.9998 20 19.9998C19.5584 19.9998 19.2 19.6406 19.2 19.1998C19.2 18.7582 19.5584 18.3998 20 18.3998C20.4 18.3998 20.7168 18.699 20.7768 19.0822C21.5928 19.3814 22.9776 19.8062 24.8528 20.335L25.4064 16.2118ZM19.4248 25.0582C19.4248 24.7998 19.3528 24.4574 18.7928 24.103C18.5808 23.9678 18.3176 23.8646 18.0904 23.8262C17.8736 23.7894 17.7272 23.583 17.7632 23.3662C17.732 23.0078 17.544 22.6998 17.2576 22.615C17.0264 22.547 16.784 22.6366 16.6336 22.839C16.5456 22.9566 16.3984 23.015 16.2536 22.995C16.108 22.9726 15.9864 22.8726 15.9368 22.7342C15.8056 22.367 15.6152 22.0606 15.3744 21.8222C15.156 21.6062 14.656 21.2078 13.948 21.2078C13.6992 21.2078 13.4248 21.2566 13.128 21.3806C12.4856 21.6486 11.9632 22.451 11.9632 23.1694C11.9632 23.2526 11.9688 23.3334 11.9784 23.4134C12.0032 23.6134 11.8744 23.8006 11.6792 23.8502C11.228 23.963 10.6904 24.2718 10.6904 25.0974C10.6904 25.7734 11.068 26.1398 11.3832 26.3286C11.4624 26.3758 11.5544 26.3998 11.6576 26.3998L18.116 26.4062C18.3352 26.4054 19.4248 26.3358 19.4248 25.0582ZM11.1632 23.1766V23.1694C11.1632 22.123 11.876 21.0366 12.82 20.6422C13.2128 20.479 13.612 20.407 14.0032 20.415L13.3152 15.3038L13.328 15.3022C13.3272 15.2982 13.3248 15.295 13.324 15.2918L13.2976 15.119C13.296 14.4198 14.0616 13.8398 15.2 13.4214V6.2246C15.2 5.8798 14.9192 5.5998 14.5752 5.5998H6.22485C5.88085 5.5998 5.60005 5.8798 5.60005 6.2246V24.1742C5.60005 24.519 5.88085 24.7998 6.22485 24.7998H9.93125C10.0264 24.0478 10.4544 23.4606 11.1632 23.1766ZM18.1152 27.1998H18.1128L11.6568 27.1926C11.412 27.1926 11.176 27.1358 10.9744 27.0158C10.6368 26.8142 10.1136 26.379 9.94805 25.5998H8.00005V27.1998H7.20005V25.5998H6.22485C5.43925 25.5998 4.80005 24.9598 4.80005 24.1742V6.2246C4.80005 5.439 5.43925 4.7998 6.22485 4.7998H14.5752C15.3608 4.7998 16 5.439 16 6.2246V13.1694C17.1368 12.8654 18.4992 12.695 19.8248 12.695C22.9792 12.695 26.356 13.647 26.356 15.0646C26.356 15.083 26.3544 15.1006 26.352 15.119L26.3352 15.2446C26.3304 15.2638 26.3184 15.2822 26.3128 15.3006L26.3352 15.3038L25.792 19.3358C26.6656 19.8382 27.0808 20.231 27.1536 20.6254C27.1904 20.8222 27.14 21.0142 27.012 21.167C26.8592 21.3486 26.624 21.4398 26.2776 21.4398C26.0728 21.4398 25.8128 21.3958 25.5232 21.3334L24.9608 25.5142C24.9648 25.915 24.5848 26.295 23.836 26.591C23.5592 26.7006 23.2368 26.7982 22.8776 26.8814C21.988 27.0862 20.9048 27.1926 19.8248 27.1926L18.1152 27.1998ZM8.00005 11.9998H13.6V11.1998H8.00005V11.9998ZM8.00005 14.3998H12V13.5998H8.00005V14.3998ZM8.00005 9.5998H13.6V8.7998H8.00005V9.5998Z" fill="white"/>
</g>
<defs>
<linearGradient id="paint0_linear_854_29944" x1="-6.62613" y1="38.6304" x2="38.6304" y2="-6.62613" gradientUnits="userSpaceOnUse">
<stop stop-color="#1B660F"/>
<stop offset="1" stop-color="#6CAE3E"/>
</linearGradient>
<clipPath id="clip0_854_29944">
<rect width="32" height="32" fill="white"/>
</clipPath>
</defs>
</svg>
