<svg width="32" height="32" viewBox="0 0 32 32" fill="none" xmlns="http://www.w3.org/2000/svg">
<g clip-path="url(#clip0_854_29894)">
<path d="M32 0H0V32H32V0Z" fill="url(#paint0_linear_854_29894)"/>
<path fill-rule="evenodd" clip-rule="evenodd" d="M17.2 16.3998C16.7584 16.3998 16.4 16.759 16.4 17.1998C16.4 17.6406 16.7584 17.9998 17.2 17.9998C17.6416 17.9998 18 17.6406 18 17.1998C18 16.759 17.6416 16.3998 17.2 16.3998ZM20.8 21.0342L19.8832 20.1166C19.7912 20.0262 19.664 19.983 19.536 20.0046C19.4096 20.0254 19.3 20.1062 19.2424 20.2206L18.5528 21.5998H15.8472L15.1576 20.2206C15.1 20.1062 14.9904 20.0254 14.864 20.0046C14.7368 19.983 14.6088 20.0262 14.5168 20.1166L13.6 21.0342V18.9926L15.0496 17.8366C15.1448 17.7606 15.2 17.6454 15.2 17.5238C15.2 14.715 16.6008 12.8454 17.2 12.1742C17.7992 12.8454 19.2 14.715 19.2 17.5238C19.2 17.6454 19.2552 17.7606 19.3504 17.8366L20.8 18.9926V21.0342ZM19.9976 17.3294C19.92 13.5246 17.5672 11.391 17.4656 11.3006C17.3144 11.1662 17.0856 11.1662 16.9344 11.3006C16.8328 11.391 14.48 13.5246 14.4024 17.3294L12.9504 18.487C12.8552 18.563 12.8 18.6782 12.8 18.7998V21.9998C12.8 22.1614 12.8976 22.3078 13.0472 22.3694C13.1952 22.4318 13.368 22.3974 13.4832 22.283L14.6904 21.075L15.2424 22.179C15.3104 22.3142 15.4488 22.3998 15.6 22.3998H18.8C18.9512 22.3998 19.0896 22.3142 19.1576 22.179L19.7096 21.075L20.9168 22.283C20.9936 22.359 21.096 22.3998 21.2 22.3998C21.2512 22.3998 21.304 22.3902 21.3528 22.3694C21.5024 22.3078 21.6 22.1614 21.6 21.9998V18.7998C21.6 18.6782 21.5448 18.563 21.4496 18.487L19.9976 17.3294ZM19.2 26.3998H20V23.9998H19.2V26.3998ZM14.4 26.3998H15.2V23.9998H14.4V26.3998ZM16.8 27.1998H17.6V23.1998H16.8V27.1998ZM24.8 8.7998H7.60005C7.37925 8.7998 7.20005 8.979 7.20005 9.1998V21.5998C7.20005 22.0406 6.84165 22.3998 6.40005 22.3998C5.95845 22.3998 5.60005 22.0406 5.60005 21.5998V5.5998H10.6344L12.1168 7.083C12.192 7.1574 12.2936 7.1998 12.4 7.1998H24.8V8.7998ZM26.8 8.7998H25.6V6.7998C25.6 6.579 25.4208 6.3998 25.2 6.3998H12.5656L11.0832 4.9166C11.008 4.8422 10.9064 4.7998 10.8 4.7998H5.20005C4.97925 4.7998 4.80005 4.979 4.80005 5.1998V21.5998C4.80005 22.4822 5.51765 23.1998 6.40005 23.1998H11.2V22.3998H7.77765C7.91525 22.1638 8.00005 21.8926 8.00005 21.5998V9.5998H26.4V22.3998H23.2V23.1998H26.8C27.0208 23.1998 27.2 23.0206 27.2 22.7998V9.1998C27.2 8.979 27.0208 8.7998 26.8 8.7998Z" fill="white"/>
</g>
<defs>
<linearGradient id="paint0_linear_854_29894" x1="-6.62613" y1="38.6304" x2="38.6304" y2="-6.62613" gradientUnits="userSpaceOnUse">
<stop stop-color="#1B660F"/>
<stop offset="1" stop-color="#6CAE3E"/>
</linearGradient>
<clipPath id="clip0_854_29894">
<rect width="32" height="32" fill="white"/>
</clipPath>
</defs>
</svg>
