<svg width="32" height="32" viewBox="0 0 32 32" fill="none" xmlns="http://www.w3.org/2000/svg">
<g clip-path="url(#clip0_854_29927)">
<path d="M32 0H0V32H32V0Z" fill="url(#paint0_linear_854_29927)"/>
<path fill-rule="evenodd" clip-rule="evenodd" d="M23.936 23.713C24.1048 23.6618 24.2192 23.5066 24.2192 23.3306V19.1274H23.4192V22.0194L21.6504 19.389C21.552 19.2434 21.368 19.177 21.2016 19.2298C21.0328 19.281 20.9184 19.437 20.9184 19.613V23.6298H21.7184V20.9234L23.4872 23.5538C23.5632 23.6666 23.6888 23.7306 23.8192 23.7306C23.8584 23.7306 23.8976 23.725 23.936 23.713ZM16.3704 16.1786L16.7576 16.725L15.324 18.8194H14.464L16.3704 16.1786ZM17.5888 15.6138L18.268 16.5794C18.1368 16.8522 18.0352 17.1386 17.972 17.437L16.7376 15.6698L17.1712 15.0682L18.7936 12.753H19.6408L17.5888 15.6138ZM16.36 15.1562L14.6552 12.753H15.5496L16.812 14.5546L16.36 15.1562ZM13.7568 15.753C13.9912 16.041 14.1088 16.4026 14.1088 16.8362C14.1088 17.4698 13.876 17.9826 13.4096 18.3738C12.944 18.765 12.3296 18.961 11.568 18.961C10.7784 18.961 10.0736 18.8114 9.45445 18.5122V17.9682C10.2016 18.2386 10.8888 18.3738 11.5152 18.3738C12.1056 18.3738 12.5768 18.2354 12.9296 17.9578C13.2816 17.6802 13.4576 17.3026 13.4576 16.8258C13.4576 16.5338 13.3616 16.285 13.1696 16.0786C12.9776 15.8722 12.668 15.6874 12.2408 15.5234L11.0024 15.0434C10.4544 14.8298 10.0528 14.5754 9.79605 14.2802C9.54005 13.985 9.41205 13.6202 9.41205 13.1858C9.41205 12.5954 9.62405 12.1162 10.0472 11.7498C10.4704 11.3834 11.0272 11.2002 11.7176 11.2002C12.0312 11.2002 12.36 11.2378 12.7048 11.3122C13.0504 11.3866 13.376 11.4922 13.6816 11.6274V12.1714C12.956 11.9154 12.312 11.7874 11.7496 11.7874C11.2016 11.7874 10.7816 11.9066 10.4904 12.145C10.1984 12.3834 10.0528 12.7234 10.0528 13.1642C10.0528 13.4138 10.0968 13.6146 10.1856 13.7674C10.2744 13.921 10.4208 14.0594 10.6232 14.1842C10.8264 14.3082 11.116 14.4418 11.4936 14.5842L12.636 15.0218C13.148 15.221 13.5216 15.465 13.7568 15.753ZM4.80005 18.7794H5.42965V15.3418H8.40805V14.7762H5.42965V11.9474H8.95285V11.3818H4.80005V18.7794ZM25.3584 21.7162L25.2928 20.9186C25.4088 20.9082 26.4376 20.7794 26.4376 19.6722C26.4376 18.7538 25.724 18.4938 25.2992 18.421C25.0888 18.385 24.944 18.189 24.9704 17.977C24.9424 17.613 24.7624 17.313 24.4896 17.233C24.2768 17.1706 24.0544 17.253 23.9112 17.4482C23.8216 17.5674 23.6768 17.6274 23.5304 17.6066C23.384 17.585 23.2616 17.4842 23.212 17.345C23.0856 16.9866 22.9032 16.6866 22.6712 16.453C22.3888 16.1714 21.6184 15.5626 20.5264 16.025C19.9112 16.2858 19.4104 17.0682 19.4104 17.7698C19.4104 17.8514 19.416 17.9306 19.4248 18.0098C19.448 18.209 19.32 18.3946 19.1264 18.4434C18.696 18.553 18.184 18.853 18.184 19.6578C18.184 19.7138 18.1864 19.7674 18.1904 19.8202C18.2488 20.4298 18.804 20.9106 19.4552 20.9114V21.7114C18.3952 21.7098 17.4896 20.9114 17.3936 19.8922C17.3872 19.8146 17.384 19.7378 17.384 19.6578C17.384 18.7738 17.836 18.0898 18.6104 17.773V17.7698C18.6104 16.7426 19.3 15.6754 20.2144 15.2882C21.2808 14.8354 22.412 15.061 23.2376 15.889C23.432 16.0842 23.6 16.3106 23.7384 16.565C24.036 16.4082 24.3824 16.369 24.7144 16.465C25.2464 16.621 25.6152 17.0746 25.7336 17.7018C26.5064 17.9306 27.2376 18.5418 27.2376 19.6722C27.2376 21.1674 26.0088 21.6626 25.3584 21.7162Z" fill="white"/>
</g>
<defs>
<linearGradient id="paint0_linear_854_29927" x1="-6.62613" y1="38.6304" x2="38.6304" y2="-6.62613" gradientUnits="userSpaceOnUse">
<stop stop-color="#1B660F"/>
<stop offset="1" stop-color="#6CAE3E"/>
</linearGradient>
<clipPath id="clip0_854_29927">
<rect width="32" height="32" fill="white"/>
</clipPath>
</defs>
</svg>
