<svg width="32" height="32" viewBox="0 0 32 32" fill="none" xmlns="http://www.w3.org/2000/svg">
<g clip-path="url(#clip0_854_29433)">
<path d="M32 0H0V32H32V0Z" fill="url(#paint0_linear_854_29433)"/>
<path d="M6.18659 6.78843L9.29699 9.9031L9.90285 9.29723L6.78819 6.18683H9.17325V5.3335H5.75992C5.64676 5.3335 5.53824 5.37845 5.45822 5.45846C5.3782 5.53848 5.33325 5.647 5.33325 5.76016V9.1735H6.18659V6.78843Z" fill="white"/>
<path d="M26.2399 5.3335H22.8265V6.18683H25.2116L22.0969 9.29723L22.7028 9.9031L25.8132 6.78843V9.1735H26.6665V5.76016C26.6665 5.647 26.6216 5.53848 26.5416 5.45846C26.4615 5.37845 26.353 5.3335 26.2399 5.3335Z" fill="white"/>
<path d="M9.29699 22.0972L6.18659 25.2118V22.8268H5.33325V26.2401C5.33325 26.3533 5.3782 26.4618 5.45822 26.5418C5.53824 26.6218 5.64676 26.6668 5.75992 26.6668H9.17325V25.8134H6.78819L9.90285 22.703L9.29699 22.0972Z" fill="white"/>
<path d="M25.8132 25.2118L22.7028 22.0972L22.0969 22.703L25.2116 25.8134H22.8265V26.6668H26.2399C26.353 26.6668 26.4615 26.6218 26.5416 26.5418C26.6216 26.4618 26.6665 26.3533 26.6665 26.2401V22.8268H25.8132V25.2118Z" fill="white"/>
<path d="M12.6293 9.91585C13.384 9.58098 14.2235 9.48692 15.0336 9.6465C15.8437 9.80607 16.5849 10.2115 17.1562 10.8076C17.6652 11.3247 18.0503 11.9506 18.2826 12.638C18.3088 12.7103 18.354 12.7742 18.4135 12.8229C18.4731 12.8716 18.5447 12.9034 18.6207 12.9147C18.6968 12.9261 18.7745 12.9167 18.8457 12.8875C18.9169 12.8583 18.9788 12.8104 19.025 12.7489C19.1545 12.5681 19.3247 12.4203 19.5219 12.3173C19.719 12.2143 19.9375 12.159 20.1599 12.1558C20.817 12.1558 21.6106 12.6593 21.6917 14.0758C21.6973 14.1698 21.7339 14.2592 21.7956 14.3301C21.8573 14.4011 21.9408 14.4497 22.033 14.4684C23.6927 14.8182 24.5333 15.7484 24.5333 17.199C24.5333 18.5729 23.9317 19.3878 22.6901 19.6908L22.8906 20.5185C24.4991 20.1302 25.3866 18.9484 25.3866 17.199C25.3866 15.4497 24.3711 14.2124 22.5151 13.7046C22.2975 12.0492 21.201 11.3025 20.1599 11.3025C19.6845 11.2982 19.2205 11.4479 18.8373 11.7292C18.5699 11.1555 18.2046 10.6329 17.7578 10.1846C17.0658 9.47114 16.1726 8.98587 15.1974 8.79373C14.2222 8.6016 13.2116 8.71174 12.3007 9.10945C11.4542 9.50763 10.7351 10.1336 10.2242 10.9173C9.71331 11.701 9.43066 12.6115 9.40793 13.5468C9.40793 13.6236 9.40793 13.7004 9.40793 13.7814C8.69692 14.0076 8.07959 14.4604 7.65039 15.0707C7.22119 15.681 7.00377 16.4151 7.03139 17.1606C7.03139 17.2417 7.03139 17.3228 7.03139 17.4038C7.07622 18.107 7.33003 18.7808 7.76029 19.3387C8.19055 19.8967 8.77765 20.3135 9.44633 20.5356L9.72793 19.7292C9.21864 19.5629 8.77066 19.2482 8.44147 18.8255C8.11229 18.4028 7.91693 17.8914 7.88046 17.3569C7.88046 17.2929 7.88046 17.2289 7.88046 17.1606C7.84745 16.5392 8.04191 15.9271 8.42747 15.4387C8.81304 14.9502 9.36331 14.619 9.97539 14.5068C10.0693 14.4826 10.1521 14.4272 10.2103 14.3496C10.2684 14.2721 10.2985 14.177 10.2954 14.0801C10.2747 13.9145 10.2633 13.7478 10.2613 13.5809C10.2812 12.8114 10.5128 12.0623 10.9305 11.4158C11.3482 10.7693 11.936 10.2503 12.6293 9.91585Z" fill="white"/>
<path d="M22.8054 18.2703C22.8265 18.2061 22.8321 18.1378 22.8218 18.0711C22.8114 18.0043 22.7853 17.941 22.7456 17.8863C22.7064 17.8311 22.6546 17.7861 22.5945 17.755C22.5344 17.7238 22.4677 17.7074 22.4 17.7071H21.12C21.0748 17.3395 20.9063 16.9981 20.6422 16.7385C20.5402 16.636 20.4183 16.5555 20.284 16.5019C20.1497 16.4484 20.0059 16.4229 19.8614 16.4271H15.4752C15.3643 16.0815 15.151 15.6463 14.8224 15.5737H14.7414H13.0347C12.655 15.5737 12.4032 16.0516 12.2752 16.4271H11.759C11.6107 16.4206 11.4627 16.4445 11.324 16.4973C11.1853 16.5501 11.0589 16.6308 10.9526 16.7343C10.7948 16.8889 10.6694 17.0735 10.5837 17.2771C10.498 17.4808 10.4537 17.6994 10.4534 17.9204V23.2537C10.4534 23.3669 10.4983 23.4754 10.5783 23.5554C10.6584 23.6354 10.7669 23.6804 10.88 23.6804H20.6934C20.7826 23.6794 20.8693 23.6505 20.9413 23.5977C21.0132 23.5449 21.0668 23.4709 21.0944 23.386L22.8054 18.2703ZM21.807 18.5604L21.12 20.6255V18.5604H21.807ZM20.2667 22.8271H11.3067V17.9204C11.3022 17.7134 11.3787 17.5128 11.52 17.3615C11.5447 17.3342 11.5751 17.3128 11.609 17.2988C11.643 17.2848 11.6796 17.2785 11.7163 17.2804H12.5696C12.6785 17.2806 12.7833 17.2392 12.8626 17.1646C12.942 17.0901 12.9898 16.988 12.9963 16.8793C13.0384 16.7215 13.1001 16.5696 13.1798 16.4271H14.5494C14.6175 16.564 14.6732 16.7068 14.7158 16.8537C14.7158 16.9669 14.7607 17.0754 14.8407 17.1554C14.9208 17.2354 15.0293 17.2804 15.1424 17.2804H19.8699C19.9017 17.2817 19.933 17.2895 19.9616 17.3035C19.9902 17.3174 20.0157 17.3372 20.0363 17.3615C20.1831 17.5106 20.2657 17.7112 20.2667 17.9204V22.8271Z" fill="white"/>
</g>
<defs>
<linearGradient id="paint0_linear_854_29433" x1="-6.62742" y1="38.6287" x2="38.6274" y2="-6.62613" gradientUnits="userSpaceOnUse">
<stop stop-color="#1B660F"/>
<stop offset="1" stop-color="#6CAE3E"/>
</linearGradient>
<clipPath id="clip0_854_29433">
<rect width="32" height="32" fill="white"/>
</clipPath>
</defs>
</svg>
