<svg width="32" height="32" viewBox="0 0 32 32" fill="none" xmlns="http://www.w3.org/2000/svg">
<g clip-path="url(#clip0_854_29434)">
<path d="M32 0H0V32H32V0Z" fill="url(#paint0_linear_854_29434)"/>
<path d="M26.3766 19.5923H25.7707C25.7707 17.8856 24.8022 16.179 22.639 16.179C20.3307 16.179 19.5072 17.9454 19.5072 19.5923H18.9014C18.9014 17.7363 19.8827 15.5688 22.639 15.5688C25.2075 15.5688 26.3766 17.6552 26.3766 19.5923Z" fill="white"/>
<path d="M22.6391 19.6266H20.0535V19.3236C20.0707 18.6418 20.349 17.9926 20.8309 17.5099C21.3128 17.0272 21.9615 16.7479 22.6433 16.7295C22.9493 16.7296 23.2528 16.7845 23.5393 16.8916L23.3303 17.4591C23.1105 17.377 22.8779 17.3351 22.6433 17.3354C22.1746 17.354 21.7259 17.5306 21.3703 17.8366C21.0148 18.1426 20.7732 18.5599 20.6849 19.0207H22.6433L22.6391 19.6266Z" fill="white"/>
<path d="M25.3697 15.9829L22.4214 19.1274L22.8609 19.4858L25.3697 15.9829Z" fill="white"/>
<path d="M22.9165 19.9249L21.9778 19.1569L25.1522 15.7734L25.6173 16.1574L22.9165 19.9249Z" fill="white"/>
<path d="M22.6391 19.8954C22.5226 19.8954 22.4088 19.8608 22.312 19.7961C22.2151 19.7314 22.1397 19.6395 22.0951 19.5319C22.0505 19.4243 22.0389 19.3059 22.0616 19.1917C22.0843 19.0775 22.1404 18.9726 22.2227 18.8902C22.3051 18.8079 22.41 18.7518 22.5242 18.7291C22.6384 18.7064 22.7568 18.718 22.8644 18.7626C22.972 18.8072 23.064 18.8826 23.1287 18.9795C23.1934 19.0763 23.2279 19.1901 23.2279 19.3066C23.2279 19.4627 23.1659 19.6125 23.0554 19.7229C22.945 19.8333 22.7953 19.8954 22.6391 19.8954V19.8954Z" fill="white"/>
<path d="M5.62354 19.4941V12.2407H9.68967V12.7997H6.23793V15.573H9.15633V16.1277H6.23793V19.4941H5.62354Z" fill="white"/>
<path d="M11.695 15.8376C11.2466 15.6856 10.8413 15.428 10.5131 15.0867C10.2581 14.7894 10.1241 14.4072 10.1377 14.0158C10.1294 13.75 10.1812 13.4859 10.289 13.2429C10.3969 12.9999 10.558 12.7842 10.7606 12.612C11.2206 12.238 11.8024 12.0466 12.3947 12.0744C12.7204 12.0757 13.0451 12.1114 13.3633 12.1811C13.6911 12.254 14.0112 12.3583 14.319 12.4926V13.0259C13.7147 12.7942 13.0757 12.6658 12.4289 12.6462C11.9886 12.6182 11.552 12.7416 11.1915 12.996C11.0479 13.118 10.9346 13.2717 10.8606 13.445C10.7865 13.6182 10.7538 13.8063 10.7649 13.9944C10.7547 14.2004 10.8004 14.4054 10.8971 14.5875C11.0003 14.764 11.1473 14.911 11.3238 15.0142C11.5949 15.1723 11.8807 15.3038 12.1771 15.4067L13.295 15.8334C13.7165 15.9732 14.0944 16.2202 14.3915 16.5502C14.6283 16.8509 14.7508 17.2258 14.7371 17.6083C14.7457 17.8952 14.6882 18.1802 14.5691 18.4414C14.45 18.7025 14.2724 18.9328 14.0502 19.1144C13.5392 19.5174 12.8997 19.722 12.2497 19.6904C11.5366 19.7057 10.8292 19.5599 10.1803 19.2638V18.7006C10.825 18.9485 11.5079 19.0828 12.1985 19.0974C12.6945 19.1177 13.1825 18.9671 13.5809 18.6707C13.7498 18.5417 13.8853 18.3739 13.9758 18.1816C14.0664 17.9893 14.1095 17.7781 14.1014 17.5656C14.105 17.2932 14.0025 17.03 13.8155 16.8318C13.5565 16.586 13.2461 16.4009 12.9067 16.2899L11.695 15.8376Z" fill="white"/>
<path d="M17.3825 15.3554L16.1494 13.5933H15.2705L16.9388 15.9485L17.3825 15.3554Z" fill="white"/>
<path d="M18.8077 17.3394L18.1463 16.3965L20.1517 13.5933H19.3239L17.7367 15.8589L17.3101 16.4477L18.5175 18.1799C18.5821 17.8897 18.6794 17.6077 18.8077 17.3394V17.3394Z" fill="white"/>
<path d="M17.3313 17.4844L15.9276 19.5324H15.0828L16.9516 16.9468L17.3313 17.4844Z" fill="white"/>
</g>
<defs>
<linearGradient id="paint0_linear_854_29434" x1="-6.62613" y1="38.6261" x2="38.6304" y2="-6.6304" gradientUnits="userSpaceOnUse">
<stop stop-color="#1B660F"/>
<stop offset="1" stop-color="#6CAE3E"/>
</linearGradient>
<clipPath id="clip0_854_29434">
<rect width="32" height="32" fill="white"/>
</clipPath>
</defs>
</svg>
