<svg width="32" height="32" viewBox="0 0 32 32" fill="none" xmlns="http://www.w3.org/2000/svg">
<g clip-path="url(#clip0_854_30144)">
<path d="M32 0H0V32H32V0Z" fill="url(#paint0_linear_854_30144)"/>
<path fill-rule="evenodd" clip-rule="evenodd" d="M26.1716 23.5072L26.9886 24.3163L26.4201 24.8793L25.4471 23.9157H23.8565L24.6381 25.2583L25.9858 25.6334L25.7671 26.4003L24.6743 26.0953L24.3759 27.1998L23.5983 26.9936L23.9538 25.6796L23.1593 24.3139L22.3761 25.6549L22.721 26.9991L21.9418 27.195L21.6628 26.1056L20.5474 26.4019L20.3384 25.6326L21.6652 25.2806L22.4629 23.9157H20.8972L19.8961 24.8825L19.334 24.3123L20.147 23.5271L19.3308 22.7188L19.8993 22.1558L20.8715 23.1194H22.4629L21.6781 21.776L20.3335 21.4009L20.5523 20.6349L21.6443 20.939L21.9426 19.8345L22.7202 20.0408L22.364 21.3595L23.1593 22.7212L23.9425 21.3762L23.5975 20.036L24.3767 19.8393L24.6566 20.9295L25.7727 20.6333L25.9802 21.4025L24.6502 21.7553L23.8565 23.1194H25.4213L26.4233 22.1527L26.9846 22.7228L26.1716 23.5072ZM24.7089 17.1039L24.86 15.9978C26.3606 16.877 26.3959 17.2536 26.3959 17.2536C26.3927 17.256 26.1298 17.4599 24.7089 17.1039ZM15.754 5.59614C21.0621 5.59614 25.0643 7.21985 25.1077 8.28455L25.0956 8.39126C25.0948 8.39365 25.0924 8.39604 25.0916 8.39922C24.8126 9.47188 20.9093 10.6672 15.7564 10.6672C10.6115 10.6672 6.71142 9.47507 6.41791 8.4032L6.40102 8.30127C6.40102 7.23737 10.4169 5.59614 15.754 5.59614ZM15.5915 13.9449C15.5915 13.8557 15.6647 13.7832 15.7548 13.7832C15.8448 13.7832 15.918 13.8557 15.918 13.9449C15.918 14.1232 15.5915 14.1232 15.5915 13.9449ZM24.9774 15.1434L25.8781 8.56167C25.8797 8.55849 25.8821 8.5553 25.8829 8.55132L25.9086 8.35224C25.911 8.33552 25.9118 8.31879 25.9118 8.30127C25.9118 6.23798 20.5587 4.7998 15.754 4.7998C10.9492 4.7998 5.59688 6.23798 5.6001 8.35383L5.62905 8.54575C5.62905 8.54814 5.62825 8.54973 5.62825 8.55212L7.80907 24.5886C7.80907 26.4162 12.6838 27.0971 15.7564 27.0971C16.801 27.0971 17.8487 27.031 18.874 26.9012L18.7719 26.1112C17.7804 26.237 16.7664 26.3007 15.7564 26.3007C11.3248 26.3007 8.61321 25.1923 8.60919 24.5361L6.59723 9.71635C6.62457 9.73467 6.65754 9.7506 6.6873 9.76891C6.75324 9.80873 6.82159 9.84934 6.89235 9.88836C6.96231 9.92659 7.0371 9.96401 7.11188 10.0006C7.19069 10.0397 7.26788 10.0795 7.35232 10.1177C7.41585 10.1456 7.485 10.1719 7.55094 10.1997C7.73589 10.2762 7.9313 10.3502 8.13716 10.4203C8.2039 10.4434 8.26984 10.4665 8.3398 10.4888C8.46123 10.5278 8.58667 10.5652 8.71373 10.6019C8.77886 10.621 8.84561 10.6393 8.91235 10.6576C9.05066 10.695 9.18978 10.7325 9.33372 10.7675C9.36267 10.7747 9.39403 10.7818 9.42378 10.7882C9.94165 10.9124 10.4941 11.0192 11.0691 11.1099C11.1109 11.1163 11.1519 11.1235 11.1945 11.1298C11.3803 11.1577 11.5676 11.184 11.7574 11.2095C11.7807 11.2127 11.8048 11.215 11.8282 11.2182C12.4498 11.2971 13.0874 11.3576 13.7299 11.3982C13.7412 11.399 13.7525 11.3998 13.7637 11.4006C13.9712 11.4141 14.1787 11.4245 14.3869 11.4332L14.4714 11.4372C14.9008 11.4547 15.3302 11.4659 15.754 11.4659C16.1697 11.4659 16.5903 11.4547 17.01 11.438C17.0567 11.4364 17.1025 11.4348 17.1475 11.4324C17.3397 11.4245 17.5295 11.4141 17.7209 11.4022C17.7659 11.3998 17.811 11.3966 17.8552 11.3934C18.3988 11.3568 18.9384 11.3074 19.4667 11.2437C19.5994 11.2278 19.7312 11.2119 19.8615 11.1943C19.9628 11.1808 20.0633 11.1657 20.1631 11.1513C20.3496 11.1243 20.533 11.0956 20.7147 11.0645C20.7629 11.0566 20.812 11.0486 20.8602 11.0407C22.5377 10.7468 23.9972 10.304 24.9091 9.71954L23.9272 16.8873C21.4698 16.1388 18.0924 14.6042 16.7189 13.9616C16.7189 13.956 16.7221 13.9512 16.7221 13.9449C16.7221 13.4169 16.2879 12.9869 15.7548 12.9869C15.2216 12.9869 14.7874 13.4169 14.7874 13.9449C14.7874 14.4736 15.2216 14.9029 15.7548 14.9029C15.9872 14.9029 16.193 14.8105 16.3603 14.6743C17.9758 15.4308 21.3379 16.9494 23.8179 17.686L23.7407 18.2506L24.5368 18.3581L24.5995 17.8995C25.1728 18.0396 25.6441 18.1129 26.0164 18.1129C26.4924 18.1129 26.8149 17.9982 27.0103 17.7673C27.1703 17.5777 27.2306 17.3492 27.1856 17.1055C27.0787 16.5409 26.3895 15.9309 24.9774 15.1434Z" fill="white"/>
</g>
<defs>
<linearGradient id="paint0_linear_854_30144" x1="-6.62613" y1="38.6304" x2="38.6304" y2="-6.62613" gradientUnits="userSpaceOnUse">
<stop stop-color="#1B660F"/>
<stop offset="1" stop-color="#6CAE3E"/>
</linearGradient>
<clipPath id="clip0_854_30144">
<rect width="32" height="32" fill="white"/>
</clipPath>
</defs>
</svg>
