<svg width="32" height="32" viewBox="0 0 32 32" fill="none" xmlns="http://www.w3.org/2000/svg">
<g clip-path="url(#clip0_854_29870)">
<path d="M32 0H0V32H32V0Z" fill="url(#paint0_linear_854_29870)"/>
<path fill-rule="evenodd" clip-rule="evenodd" d="M22.4 17.5942V16.7942H18.4V17.5942H21.3976L18.4 21.5942V22.3942H22.4V21.5942H19.4L22.4 17.5942ZM14.3992 17.7422H15.4456L16.9024 15.6142L16.9328 15.571L16.4544 14.8958L14.3992 17.7422ZM12.7432 13.7974L11.6 13.359C11.2304 13.219 10.9416 13.087 10.7416 12.9646C10.5512 12.8478 10.4128 12.7166 10.3296 12.5742C10.2472 12.4326 10.2064 12.243 10.2064 12.0086C10.2064 11.587 10.3408 11.2726 10.6176 11.047C10.8936 10.8206 11.3016 10.7062 11.8304 10.7062C12.3808 10.7062 13.0232 10.8334 13.7376 11.0862L13.8384 11.1214V10.4214L13.7936 10.4014C13.4832 10.2646 13.1504 10.1566 12.8016 10.0814C12.4536 10.0062 12.116 9.96777 11.7976 9.96777C11.092 9.96777 10.5128 10.159 10.0768 10.5366C9.63765 10.9166 9.41445 11.419 9.41445 12.0294C9.41445 12.4806 9.55045 12.8662 9.81765 13.1742C10.0808 13.4774 10.4968 13.7414 11.0552 13.959L12.2936 14.439C12.7096 14.599 13.012 14.7798 13.1952 14.9758C13.3736 15.167 13.4632 15.4014 13.4632 15.6726C13.4632 16.1294 13.3 16.4806 12.9632 16.7454C12.6264 17.011 12.1664 17.1462 11.5952 17.1462C10.9792 17.1462 10.2944 17.011 9.55845 16.7454L9.45765 16.7086V17.407L9.50085 17.4278C10.128 17.731 10.8504 17.8846 11.648 17.8846C12.424 17.8846 13.0616 17.6806 13.5392 17.279C14.0216 16.8742 14.2664 16.3374 14.2664 15.683C14.2664 15.2334 14.1416 14.8526 13.8968 14.551C13.6544 14.2542 13.2664 14.0006 12.7432 13.7974ZM4.80005 17.703H5.58085V14.263H8.56085V13.5462H5.58085V10.8662H9.10645V10.1494H4.80005V17.703ZM17.7616 15.9942H18.8432L17.7648 14.4606L19.8728 11.5214H18.8384L17.1944 13.8694L16.7296 14.515L17.7616 15.9942ZM16.988 13.4014L15.6712 11.5214H14.5912L16.4408 14.1294L16.988 13.4014ZM23.2 17.5942H25.6V16.7942H23.2V17.5942ZM23.2 22.3942H25.6V21.5942H23.2V22.3942ZM23.2 19.9942H27.2V19.1942H23.2V19.9942Z" fill="white"/>
</g>
<defs>
<linearGradient id="paint0_linear_854_29870" x1="-6.62613" y1="38.6304" x2="38.6304" y2="-6.62613" gradientUnits="userSpaceOnUse">
<stop stop-color="#1B660F"/>
<stop offset="1" stop-color="#6CAE3E"/>
</linearGradient>
<clipPath id="clip0_854_29870">
<rect width="32" height="32" fill="white"/>
</clipPath>
</defs>
</svg>
