<svg width="32" height="32" viewBox="0 0 32 32" fill="none" xmlns="http://www.w3.org/2000/svg">
<g clip-path="url(#clip0_854_29449)">
<path d="M32 0H0V32H32V0Z" fill="url(#paint0_linear_854_29449)"/>
<path d="M23.6032 22.6135H8.39684C8.03734 22.6124 7.69289 22.469 7.43868 22.2148C7.18447 21.9606 7.04116 21.6162 7.04004 21.2567V10.7436C7.04116 10.3841 7.18447 10.0397 7.43868 9.78545C7.69289 9.53124 8.03734 9.38794 8.39684 9.38681H12.5867C12.6762 9.38658 12.7634 9.41447 12.8361 9.46653C12.9089 9.51859 12.9634 9.5922 12.992 9.67694L13.4742 11.0935H18.5216L19.008 9.67694C19.0377 9.58863 19.0955 9.51247 19.1725 9.46008C19.2496 9.40769 19.3417 9.38195 19.4347 9.38681H23.6288C23.8065 9.38681 23.9823 9.4218 24.1464 9.48977C24.3105 9.55774 24.4596 9.65736 24.5852 9.78296C24.7108 9.90855 24.8104 10.0577 24.8784 10.2218C24.9464 10.3858 24.9814 10.5617 24.9814 10.7393V21.2567C24.9808 21.4365 24.9446 21.6144 24.8749 21.7802C24.8052 21.946 24.7033 22.0963 24.5752 22.2224C24.4471 22.3486 24.2952 22.4481 24.1284 22.5152C23.9615 22.5823 23.783 22.6157 23.6032 22.6135V22.6135ZM8.39684 10.2401C8.26331 10.2401 8.13525 10.2932 8.04083 10.3876C7.94642 10.482 7.89337 10.6101 7.89337 10.7436V21.2567C7.89337 21.3902 7.94642 21.5183 8.04083 21.6127C8.13525 21.7071 8.26331 21.7601 8.39684 21.7601H23.6032C23.7368 21.7601 23.8648 21.7071 23.9592 21.6127C24.0537 21.5183 24.1067 21.3902 24.1067 21.2567V10.7393C24.1056 10.6073 24.0526 10.481 23.9593 10.3876C23.8659 10.2942 23.7396 10.2413 23.6075 10.2401H19.7163L19.2299 11.6567C19.2015 11.7407 19.1476 11.8139 19.0757 11.8659C19.0039 11.9179 18.9176 11.9462 18.8288 11.9468H13.1712C13.0818 11.947 12.9945 11.9192 12.9218 11.8671C12.8491 11.815 12.7945 11.7414 12.7659 11.6567L12.2838 10.2401H8.39684Z" fill="white"/>
<path d="M24.3711 24.3202H7.62873C7.32279 24.3157 7.02073 24.2511 6.73979 24.1298C6.45885 24.0086 6.20454 23.8333 5.99138 23.6138C5.77822 23.3943 5.61038 23.1349 5.49746 22.8506C5.38454 22.5662 5.32875 22.2624 5.33326 21.9564V10.0439C5.32875 9.73797 5.38454 9.43414 5.49746 9.14977C5.61038 8.8654 5.77822 8.60606 5.99138 8.38656C6.20454 8.16706 6.45885 7.99171 6.73979 7.8705C7.02073 7.7493 7.32279 7.68463 7.62873 7.68018H24.3711C24.6771 7.68463 24.9791 7.7493 25.2601 7.8705C25.541 7.99171 25.7953 8.16706 26.0085 8.38656C26.2216 8.60606 26.3895 8.8654 26.5024 9.14977C26.6153 9.43414 26.6711 9.73797 26.6666 10.0439V21.9564C26.6711 22.2624 26.6153 22.5662 26.5024 22.8506C26.3895 23.1349 26.2216 23.3943 26.0085 23.6138C25.7953 23.8333 25.541 24.0086 25.2601 24.1298C24.9791 24.2511 24.6771 24.3157 24.3711 24.3202V24.3202ZM7.62873 8.53351C7.23754 8.54358 6.86624 8.70811 6.596 8.99114C6.32577 9.27416 6.17857 9.65267 6.18659 10.0439V21.9564C6.17857 22.3477 6.32577 22.7262 6.596 23.0092C6.86624 23.2922 7.23754 23.4568 7.62873 23.4668H24.3711C24.7623 23.4568 25.1336 23.2922 25.4039 23.0092C25.6741 22.7262 25.8213 22.3477 25.8133 21.9564V10.0439C25.8213 9.65267 25.6741 9.27416 25.4039 8.99114C25.1336 8.70811 24.7623 8.54358 24.3711 8.53351H7.62873Z" fill="white"/>
<path d="M21.5466 19.6271H10.4533C10.3401 19.6271 10.2316 19.5821 10.1516 19.5021C10.0716 19.4221 10.0266 19.3135 10.0266 19.2004V13.6537C10.0266 13.5406 10.0716 13.432 10.1516 13.352C10.2316 13.272 10.3401 13.2271 10.4533 13.2271H21.5466C21.6598 13.2271 21.7683 13.272 21.8483 13.352C21.9283 13.432 21.9733 13.5406 21.9733 13.6537V19.2004C21.9733 19.3135 21.9283 19.4221 21.8483 19.5021C21.7683 19.5821 21.6598 19.6271 21.5466 19.6271ZM10.8799 18.7737H21.1199V14.0804H10.8799V18.7737Z" fill="white"/>
<path d="M17.7065 9.38672H14.2932V10.2401H17.7065V9.38672Z" fill="white"/>
</g>
<defs>
<linearGradient id="paint0_linear_854_29449" x1="-6.62613" y1="38.6261" x2="38.6261" y2="-6.62613" gradientUnits="userSpaceOnUse">
<stop stop-color="#1B660F"/>
<stop offset="1" stop-color="#6CAE3E"/>
</linearGradient>
<clipPath id="clip0_854_29449">
<rect width="32" height="32" fill="white"/>
</clipPath>
</defs>
</svg>
