<svg width="32" height="32" viewBox="0 0 32 32" fill="none" xmlns="http://www.w3.org/2000/svg">
<g clip-path="url(#clip0_854_29933)">
<path d="M32 0H0V32H32V0Z" fill="url(#paint0_linear_854_29933)"/>
<path fill-rule="evenodd" clip-rule="evenodd" d="M13.8776 14.8482H16.9576L14.84 18.2362C14.7624 18.3594 14.7592 18.5146 14.8288 18.6418C14.8992 18.769 15.0336 18.8482 15.1792 18.8482H16.5368L12.9944 23.6154L13.6344 20.1202C13.656 20.0034 13.6248 19.8834 13.548 19.7922C13.472 19.701 13.36 19.6482 13.2408 19.6482H11.26L13.8776 14.8482ZM12.6136 25.4706L17.6536 18.6866C17.7432 18.565 17.7576 18.4034 17.6896 18.2682C17.6216 18.133 17.484 18.0482 17.332 18.0482H15.9008L18.0184 14.6602C18.0952 14.537 18.0992 14.3818 18.0288 14.2546C17.9592 14.1274 17.8248 14.0482 17.6792 14.0482H13.64C13.4944 14.0482 13.3592 14.1282 13.2896 14.257L10.2344 19.857C10.1664 19.981 10.1688 20.1314 10.2416 20.2522C10.3136 20.3738 10.444 20.4482 10.5856 20.4482H12.7608L11.8984 25.1602C11.8656 25.3426 11.9624 25.5242 12.1328 25.5986C12.1848 25.621 12.2384 25.6314 12.2928 25.6314C12.416 25.6314 12.536 25.5746 12.6136 25.4706ZM23.2264 20.3714L18.9104 20.369V19.6482H23.1944C23.2936 19.6378 26.4 19.2586 26.4 16.0474C26.4 13.3538 24.1792 12.681 23.2248 12.5162C23.0112 12.4802 22.8656 12.2802 22.896 12.0658C22.8152 10.8562 22.2376 9.95703 21.3552 9.69863C20.6288 9.48503 19.8512 9.76663 19.372 10.4146C19.284 10.5338 19.1384 10.5914 18.9912 10.573C18.8448 10.5506 18.7224 10.4498 18.6728 10.3106C18.344 9.37783 17.8656 8.59383 17.2536 7.97943C16.5024 7.22583 14.4376 5.60503 11.528 6.83703C9.84565 7.54983 8.52805 9.60263 8.52805 11.5098C8.52805 11.7258 8.54085 11.9378 8.56485 12.1458C8.58965 12.345 8.46085 12.5314 8.26645 12.581C7.27125 12.8346 5.60005 13.6178 5.60005 16.0146C5.60005 16.1386 5.60485 16.2602 5.61445 16.377C5.69445 17.3906 6.02085 18.7186 7.12725 19.293C7.24885 19.345 7.82725 19.4154 8.10485 19.4498C8.31365 19.4762 8.49365 19.4986 8.58725 19.517L8.43365 20.3018C8.35045 20.2858 8.19125 20.2666 8.00645 20.2442C7.29445 20.1562 6.94565 20.1002 6.75845 20.0026C5.64085 19.4234 4.95125 18.1578 4.81765 16.4402C4.80645 16.3026 4.80005 16.161 4.80005 16.0146C4.80005 13.273 6.65365 12.2594 7.74005 11.9002C7.73125 11.7714 7.72805 11.6418 7.72805 11.5098C7.72805 9.26823 9.22805 6.94343 11.216 6.10023C13.5472 5.11383 16.0168 5.60423 17.8208 7.41463C18.3808 7.97703 18.84 8.65863 19.1904 9.44743C19.8584 8.88823 20.7384 8.68423 21.5792 8.93063C22.7304 9.26743 23.5008 10.3282 23.6736 11.7922C24.8008 12.0562 27.2 12.9802 27.2 16.0474C27.2 20.0026 23.2656 20.3682 23.2264 20.3714Z" fill="white"/>
</g>
<defs>
<linearGradient id="paint0_linear_854_29933" x1="-6.62613" y1="38.6304" x2="38.6304" y2="-6.62613" gradientUnits="userSpaceOnUse">
<stop stop-color="#1B660F"/>
<stop offset="1" stop-color="#6CAE3E"/>
</linearGradient>
<clipPath id="clip0_854_29933">
<rect width="32" height="32" fill="white"/>
</clipPath>
</defs>
</svg>
