<svg width="32" height="32" viewBox="0 0 32 32" fill="none" xmlns="http://www.w3.org/2000/svg">
<g clip-path="url(#clip0_854_29864)">
<path d="M32 0H0V32H32V0Z" fill="url(#paint0_linear_854_29864)"/>
<path fill-rule="evenodd" clip-rule="evenodd" d="M22.4 16.4002V21.2002C22.4 21.421 22.2208 21.6002 22 21.6002H10C9.77925 21.6002 9.60005 21.421 9.60005 21.2002V16.4002C9.60005 16.1794 9.77925 16.0002 10 16.0002H12.8V16.8002H10.4V20.8002H21.6V16.8002H19.2V16.0002H22C22.2208 16.0002 22.4 16.1794 22.4 16.4002ZM26.4 23.8858C26.4 23.949 26.3496 24.0002 26.2856 24.0002H24.8V23.6002V14.8002C24.8 14.1386 24.2616 13.6002 23.6 13.6002H8.37525C7.71365 13.6002 7.20005 14.1386 7.20005 14.8002V24.0002H5.71445C5.65045 24.0002 5.60005 23.949 5.60005 23.8858V13.1434C5.60005 12.513 6.11285 12.0002 6.74325 12.0002H25.2568C25.8872 12.0002 26.4 12.513 26.4 13.1434V23.8858ZM7.97525 23.2002V14.8002C7.97525 14.5794 8.15445 14.4002 8.37525 14.4002H23.6C23.82 14.4002 24 14.5794 24 14.8002V23.2002H7.97525ZM21.8344 11.2002H10.1656L11.7656 9.6002H20.2344L21.8344 11.2002ZM10.1488 8.3906C10.3656 8.1426 10.6792 8.0002 11.0088 8.0002H20.9912C21.3208 8.0002 21.6344 8.1426 21.86 8.4002L24.4816 11.2002H22.9656L20.6832 8.917C20.608 8.8426 20.5064 8.8002 20.4 8.8002H11.6C11.4936 8.8002 11.392 8.8426 11.3168 8.917L9.03445 11.2002H7.51845L10.1488 8.3906ZM25.6112 11.2362L22.4528 7.8642C22.084 7.4418 21.5512 7.2002 20.9912 7.2002H11.0088C10.4488 7.2002 9.91605 7.4418 9.55525 7.8538L6.38805 11.2362C5.48645 11.4034 4.80005 12.193 4.80005 13.1434V23.8858C4.80005 24.3898 5.21045 24.8002 5.71445 24.8002H7.60005C7.82085 24.8002 8.00005 24.621 8.00005 24.4002V24.0002H24V24.4002C24 24.621 24.1792 24.8002 24.4 24.8002H26.2856C26.7896 24.8002 27.2 24.3898 27.2 23.8858V13.1434C27.2 12.193 26.5136 11.4034 25.6112 11.2362ZM14.4 18.4002H17.6V16.8002H14.4V18.4002ZM14 19.2002H18C18.2208 19.2002 18.4 19.021 18.4 18.8002V16.4002C18.4 16.1794 18.2208 16.0002 18 16.0002H14C13.7792 16.0002 13.6 16.1794 13.6 16.4002V18.8002C13.6 19.021 13.7792 19.2002 14 19.2002Z" fill="white"/>
</g>
<defs>
<linearGradient id="paint0_linear_854_29864" x1="-6.62613" y1="38.6304" x2="38.6304" y2="-6.62613" gradientUnits="userSpaceOnUse">
<stop stop-color="#1B660F"/>
<stop offset="1" stop-color="#6CAE3E"/>
</linearGradient>
<clipPath id="clip0_854_29864">
<rect width="32" height="32" fill="white"/>
</clipPath>
</defs>
</svg>
