<svg width="32" height="32" viewBox="0 0 32 32" fill="none" xmlns="http://www.w3.org/2000/svg">
<g clip-path="url(#clip0_854_29448)">
<path d="M32 0H0V32H32V0Z" fill="url(#paint0_linear_854_29448)"/>
<path d="M15.7483 20.6505H8.14087C7.96289 20.6505 7.78667 20.6154 7.62229 20.5471C7.45792 20.4789 7.30862 20.3789 7.18297 20.2528C7.05732 20.1268 6.95779 19.9772 6.89007 19.8126C6.82235 19.648 6.78778 19.4717 6.78834 19.2937V8.78063C6.78834 8.42152 6.9307 8.07706 7.18422 7.82273C7.43775 7.56841 7.78176 7.42496 8.14087 7.42383H12.335C12.4237 7.42449 12.51 7.45279 12.5819 7.50479C12.6538 7.55679 12.7077 7.62991 12.7361 7.71396L13.2267 9.1305H18.2699L18.7734 7.71396C18.802 7.62922 18.8566 7.55561 18.9293 7.50355C19.002 7.45149 19.0893 7.4236 19.1787 7.42383H23.3729C23.7316 7.42608 24.075 7.56988 24.3283 7.82397C24.5816 8.07805 24.7243 8.42187 24.7254 8.78063V15.5305H23.8721V8.78063C23.871 8.64818 23.8182 8.52139 23.7249 8.42733C23.6316 8.33327 23.5053 8.27938 23.3729 8.27716H19.4646L18.9782 9.69796C18.9491 9.78122 18.8949 9.85342 18.8231 9.90461C18.7513 9.9558 18.6653 9.98348 18.5771 9.98383H12.9195C12.827 9.98897 12.7354 9.96386 12.6584 9.91228C12.5814 9.86071 12.5233 9.78548 12.4929 9.69796L12.0278 8.27716H8.14087C8.00843 8.27938 7.8821 8.33327 7.78884 8.42733C7.69558 8.52139 7.64276 8.64818 7.64167 8.78063V19.2937C7.64276 19.4262 7.69558 19.5529 7.78884 19.647C7.8821 19.7411 8.00843 19.7949 8.14087 19.7972H15.7483V20.6505Z" fill="white"/>
<path d="M15.744 22.3573H7.37281C6.7553 22.3472 6.16698 22.0927 5.73672 21.6497C5.30647 21.2066 5.06936 20.6111 5.07734 19.9936V8.08102C5.07048 7.46381 5.30796 6.86893 5.73798 6.42612C6.168 5.98331 6.75567 5.72851 7.37281 5.71729H24.1195C24.7366 5.72851 25.3243 5.98331 25.7543 6.42612C26.1843 6.86893 26.4218 7.46381 26.4149 8.08102V16.8106H25.5616V8.08102C25.5696 7.68978 25.4224 7.31127 25.1522 7.02825C24.882 6.74522 24.5107 6.58069 24.1195 6.57062H7.37281C6.98162 6.58069 6.61032 6.74522 6.34008 7.02825C6.06985 7.31127 5.92265 7.68978 5.93068 8.08102V19.9936C5.92614 20.1874 5.95985 20.3803 6.02988 20.5612C6.09991 20.742 6.20489 20.9073 6.33881 21.0475C6.47274 21.1878 6.63299 21.3003 6.8104 21.3786C6.98782 21.4569 7.17893 21.4995 7.37281 21.504H15.744V22.3573Z" fill="white"/>
<path d="M17.0282 17.6642H10.2016C10.0884 17.6642 9.97989 17.6192 9.89987 17.5392C9.81985 17.4592 9.7749 17.3507 9.7749 17.2375V11.6908C9.7749 11.5777 9.81985 11.4691 9.89987 11.3891C9.97989 11.3091 10.0884 11.2642 10.2016 11.2642H21.7216C21.8347 11.2642 21.9433 11.3091 22.0233 11.3891C22.1033 11.4691 22.1482 11.5777 22.1482 11.6908V15.1042H21.2949V12.1175H10.6282V16.8108H17.0282V17.6642Z" fill="white"/>
<path d="M17.4507 7.42383H14.0374V8.27716H17.4507V7.42383Z" fill="white"/>
<path d="M21.6449 16.8109L21.9094 16.8322H22.1782H22.4428L22.8182 17.6855C23.1699 17.7977 23.5023 17.9632 23.8038 18.1762L24.7468 17.9927L24.9217 18.1933L25.0966 18.3938L25.2716 18.5943L24.9174 19.4818C25.0886 19.805 25.2068 20.1536 25.2673 20.5143L26.0908 21.005L26.0694 21.2695V21.5341V21.8029L25.135 22.1869C25.0267 22.5359 24.864 22.8656 24.6529 23.1639L24.8876 24.0941L24.687 24.269L24.4865 24.4439L24.286 24.6189L23.3942 24.2647C23.0713 24.433 22.7245 24.551 22.366 24.6146L21.8753 25.4295L21.6108 25.4082H21.3462H21.0774L20.702 24.5293C20.3516 24.421 20.0205 24.2583 19.7206 24.0471L18.7948 24.2818L18.6198 24.0813L18.4449 23.8807L18.27 23.6802L18.6198 22.797C18.4501 22.4697 18.3307 22.1188 18.2657 21.7559L17.4508 21.2354L17.4721 20.9709V20.7021V20.4375L18.3254 20.0621C18.4333 19.7094 18.5975 19.3766 18.8118 19.0765L18.5814 18.1549L18.782 17.9799L18.9825 17.805L19.183 17.6301L20.062 17.9799C20.3894 17.807 20.7423 17.6875 21.1073 17.6258L21.5937 16.8109H21.6449ZM21.5937 15.9575C21.4448 15.9584 21.2987 15.9983 21.17 16.0731C21.0412 16.148 20.9343 16.2552 20.8598 16.3842L20.5654 16.8791C20.3862 16.9299 20.2096 16.9897 20.0364 17.0583L19.4988 16.845C19.398 16.8063 19.291 16.7861 19.183 16.7853C18.9762 16.7844 18.776 16.8587 18.6198 16.9943L18.4193 17.1735L18.2188 17.3485L18.0182 17.5234C17.8996 17.6273 17.8121 17.762 17.7654 17.9127C17.7187 18.0633 17.7146 18.2239 17.7537 18.3767L17.8945 18.9399C17.8018 19.1011 17.7192 19.2678 17.647 19.4391L17.118 19.6695C16.9825 19.7355 16.8669 19.8362 16.783 19.9614C16.699 20.0865 16.6498 20.2317 16.6401 20.3821V20.6466V20.9069V21.1714C16.6309 21.3296 16.666 21.4872 16.7413 21.6267C16.8167 21.7661 16.9294 21.8817 17.0668 21.9607L17.566 22.2594C17.6129 22.4371 17.6728 22.611 17.7452 22.7799L17.4934 23.3303C17.4349 23.4764 17.4178 23.6357 17.4442 23.7908C17.4706 23.9459 17.5393 24.0908 17.6428 24.2093L17.822 24.4098L17.9969 24.6103L18.1718 24.8109C18.2518 24.9019 18.3502 24.9748 18.4606 25.0249C18.5709 25.0749 18.6907 25.1008 18.8118 25.101C18.8823 25.1009 18.9525 25.0923 19.0209 25.0754L19.5926 24.9303C19.7421 25.0191 19.8959 25.1002 20.0534 25.1735L20.2838 25.7111C20.3458 25.8562 20.4468 25.9813 20.5756 26.0724C20.7044 26.1636 20.856 26.2172 21.0134 26.2274H21.278H21.5468H21.8113H21.8668C22.0157 26.2265 22.1618 26.1866 22.2905 26.1118C22.4193 26.0369 22.5262 25.9297 22.6006 25.8007L22.9036 25.293C23.0779 25.2634 23.2503 25.2235 23.4198 25.1735L23.9702 25.3954C24.0711 25.4341 24.178 25.4543 24.286 25.4551C24.4928 25.456 24.693 25.3817 24.8492 25.2461L25.0497 25.0669L25.2502 24.8919L25.4508 24.717C25.5694 24.6131 25.6569 24.4783 25.7036 24.3277C25.7503 24.1771 25.7544 24.0164 25.7153 23.8637L25.5702 23.2877C25.6592 23.1317 25.739 22.9708 25.8092 22.8055L26.351 22.5709C26.4961 22.512 26.6222 22.4144 26.7155 22.2888C26.8088 22.1631 26.8658 22.0142 26.8801 21.8583V21.5938V21.3293V21.0605C26.8893 20.9022 26.8543 20.7446 26.7789 20.6052C26.7035 20.4658 26.5908 20.3501 26.4534 20.2711L25.95 19.9725C25.9026 19.7969 25.8442 19.6244 25.775 19.4562L26.0268 18.9101C26.0853 18.764 26.1024 18.6046 26.076 18.4495C26.0497 18.2944 25.9809 18.1496 25.8774 18.0311L25.6982 17.8306L25.5233 17.6301L25.3484 17.4295C25.2684 17.3385 25.17 17.2655 25.0596 17.2155C24.9493 17.1655 24.8295 17.1395 24.7084 17.1394C24.6379 17.1395 24.5677 17.1481 24.4993 17.165L23.9318 17.3101C23.7818 17.2198 23.6265 17.1386 23.4668 17.0669L23.2321 16.5335C23.1704 16.389 23.0701 16.2644 22.9421 16.1733C22.8141 16.0822 22.6635 16.0282 22.5068 16.0173H22.2422H21.9777H21.7089L21.5937 15.9575Z" fill="white"/>
<path d="M21.76 23.1166C21.3651 23.1166 20.979 22.9995 20.6506 22.7801C20.3223 22.5607 20.0663 22.2489 19.9152 21.884C19.764 21.5191 19.7245 21.1176 19.8016 20.7303C19.8786 20.343 20.0688 19.9872 20.348 19.7079C20.6273 19.4286 20.9831 19.2385 21.3704 19.1614C21.7578 19.0844 22.1593 19.1239 22.5241 19.275C22.889 19.4262 23.2009 19.6821 23.4203 20.0105C23.6397 20.3389 23.7568 20.7249 23.7568 21.1198C23.7557 21.6491 23.5449 22.1563 23.1707 22.5306C22.7965 22.9048 22.2892 23.1155 21.76 23.1166V23.1166ZM21.76 19.9764C21.5338 19.9764 21.3128 20.0434 21.1247 20.1691C20.9367 20.2947 20.7901 20.4733 20.7036 20.6823C20.617 20.8912 20.5944 21.1211 20.6385 21.3429C20.6826 21.5647 20.7915 21.7685 20.9514 21.9284C21.1113 22.0883 21.3151 22.1972 21.5369 22.2413C21.7587 22.2855 21.9886 22.2628 22.1976 22.1763C22.4065 22.0897 22.5851 21.9432 22.7107 21.7551C22.8364 21.5671 22.9035 21.346 22.9035 21.1198C22.9035 20.8166 22.783 20.5257 22.5685 20.3113C22.3541 20.0969 22.0633 19.9764 21.76 19.9764V19.9764Z" fill="white"/>
</g>
<defs>
<linearGradient id="paint0_linear_854_29448" x1="-6.62742" y1="38.6287" x2="38.6274" y2="-6.62613" gradientUnits="userSpaceOnUse">
<stop stop-color="#1B660F"/>
<stop offset="1" stop-color="#6CAE3E"/>
</linearGradient>
<clipPath id="clip0_854_29448">
<rect width="32" height="32" fill="white"/>
</clipPath>
</defs>
</svg>
