<svg width="32" height="32" viewBox="0 0 32 32" fill="none" xmlns="http://www.w3.org/2000/svg">
<g clip-path="url(#clip0_854_29454)">
<path d="M32 0H0V32H32V0Z" fill="url(#paint0_linear_854_29454)"/>
<path d="M23.3003 11.123C23.1297 9.79179 22.4129 8.82326 21.3419 8.49473C20.9507 8.37371 20.5359 8.34931 20.1332 8.42361C19.7305 8.49792 19.3517 8.66872 19.0294 8.92139C18.7193 8.23877 18.2853 7.61959 17.7494 7.09526C16.9734 6.30748 15.9827 5.76556 14.9008 5.53707C13.8189 5.30859 12.6936 5.40364 11.6654 5.8104C10.6371 6.21715 9.75135 6.91759 9.11853 7.82439C8.4857 8.73119 8.13381 9.80421 8.10674 10.9097V11.2211C7.27854 11.4536 6.55352 11.9597 6.04988 12.6571C5.54624 13.3544 5.29369 14.2018 5.33341 15.0611V15.3598C5.39263 16.2568 5.76816 17.1037 6.39319 17.7498C7.01821 18.3959 7.85219 18.7994 8.74674 18.8883V18.035C8.07072 17.9392 7.44793 17.6147 6.98211 17.1155C6.5163 16.6163 6.23558 15.9726 6.18674 15.2915V15.0569C6.18674 12.9235 7.71421 12.2153 8.64434 11.9763C8.75312 11.9584 8.85075 11.8991 8.91676 11.8108C8.98278 11.7225 9.01206 11.6121 8.99847 11.5027C8.97182 11.3062 8.95899 11.108 8.96007 10.9097C8.98763 9.97244 9.29054 9.06407 9.83101 8.29789C10.3715 7.53171 11.1256 6.94163 11.9993 6.60126C12.8729 6.26089 13.8275 6.18531 14.7438 6.38394C15.6602 6.58257 16.4978 7.04662 17.1521 7.71819C17.7519 8.31915 18.2071 9.04866 18.4833 9.85153C18.5027 9.9043 18.5325 9.9527 18.5707 9.99395C18.6089 10.0352 18.655 10.0685 18.7061 10.0919C18.7573 10.1153 18.8125 10.1283 18.8688 10.1303C18.925 10.1322 18.981 10.123 19.0337 10.1033C19.1082 10.0748 19.1732 10.026 19.2214 9.96246C19.4283 9.66943 19.7223 9.44906 20.0616 9.33263C20.4009 9.21621 20.7683 9.20967 21.1115 9.31393C21.9222 9.56139 22.4257 10.355 22.4939 11.4942C22.4996 11.5881 22.5361 11.6775 22.5979 11.7485C22.6596 11.8195 22.7431 11.8681 22.8353 11.8867C24.8193 12.2878 25.8219 13.3587 25.8219 15.0697C25.8219 16.7806 24.9686 17.8003 23.2619 18.0009V18.8542C25.4721 18.6323 26.6753 17.3054 26.6753 15.0654C26.6582 13.0515 25.4678 11.6435 23.3003 11.123Z" fill="white"/>
<path d="M21.9649 26.5771H19.8316C19.7184 26.5771 19.6099 26.5321 19.5299 26.4521C19.4498 26.3721 19.4049 26.2636 19.4049 26.1504V15.7483C18.3971 15.1967 17.2684 14.9035 16.1196 14.8949C14.8737 14.9037 13.6523 15.2407 12.5782 15.872V26.1504C12.5782 26.2636 12.5333 26.3721 12.4533 26.4521C12.3732 26.5321 12.2647 26.5771 12.1516 26.5771H10.0182C9.90506 26.5771 9.79654 26.5321 9.71652 26.4521C9.63651 26.3721 9.59155 26.2636 9.59155 26.1504V14.5451C9.59292 14.4847 9.60648 14.4253 9.63141 14.3703C9.65634 14.3153 9.69212 14.2659 9.73662 14.2251C11.3068 12.8384 13.6364 12.0448 16.1366 12.0448C18.3267 12.0026 20.4691 12.6867 22.2294 13.9904C22.2797 14.0301 22.3204 14.0807 22.3485 14.1383C22.3765 14.1959 22.3913 14.2591 22.3916 14.3232V26.1504C22.3916 26.2064 22.3805 26.2619 22.3591 26.3137C22.3376 26.3655 22.3062 26.4125 22.2666 26.4521C22.227 26.4917 22.1799 26.5232 22.1282 26.5446C22.0764 26.566 22.0209 26.5771 21.9649 26.5771ZM20.2582 25.7237H21.5382V14.5365C19.952 13.4318 18.0564 12.8582 16.1238 12.8981C14.0758 12.8452 12.0715 13.4958 10.4449 14.7413V25.7237H11.7249V15.6203C11.72 15.5458 11.7363 15.4715 11.7717 15.4058C11.8072 15.3402 11.8605 15.2858 11.9254 15.2491C13.1883 14.4736 14.6377 14.0549 16.1196 14.0373C17.4889 14.0546 18.8307 14.4249 20.015 15.1125C20.0857 15.1462 20.1458 15.1986 20.1887 15.264C20.2316 15.3295 20.2556 15.4055 20.2582 15.4837V25.7237Z" fill="white"/>
</g>
<defs>
<linearGradient id="paint0_linear_854_29454" x1="-6.62613" y1="38.6261" x2="38.6261" y2="-6.62613" gradientUnits="userSpaceOnUse">
<stop stop-color="#1B660F"/>
<stop offset="1" stop-color="#6CAE3E"/>
</linearGradient>
<clipPath id="clip0_854_29454">
<rect width="32" height="32" fill="white"/>
</clipPath>
</defs>
</svg>
