<svg width="32" height="32" viewBox="0 0 32 32" fill="none" xmlns="http://www.w3.org/2000/svg">
<g clip-path="url(#clip0_854_29445)">
<path d="M32 0H0V32H32V0Z" fill="url(#paint0_linear_854_29445)"/>
<path d="M7.95321 14.9049L7.14575 15.1533L9.74523 23.603L10.5527 23.3546L7.95321 14.9049Z" fill="white"/>
<path d="M14.4322 7.91641L7.92822 12.4375L8.40976 13.1302L14.9138 8.60915L14.4322 7.91641Z" fill="white"/>
<path d="M17.5394 7.85428L17.0549 8.54639L23.553 13.0947L24.0375 12.4026L17.5394 7.85428Z" fill="white"/>
<path d="M24.0147 14.7079L21.4509 23.1948L22.2619 23.4398L24.8257 14.9529L24.0147 14.7079Z" fill="white"/>
<path d="M19.8996 24.0254H12.1001V24.8702H19.8996V24.0254Z" fill="white"/>
<path d="M15.9999 9.27124C15.6623 9.27124 15.3324 9.17115 15.0517 8.98362C14.771 8.79609 14.5523 8.52954 14.4231 8.21769C14.294 7.90584 14.2602 7.56268 14.326 7.23162C14.3919 6.90056 14.5544 6.59646 14.7931 6.35778C15.0318 6.1191 15.3359 5.95656 15.6669 5.8907C15.998 5.82485 16.3411 5.85865 16.653 5.98782C16.9648 6.117 17.2314 6.33574 17.4189 6.6164C17.6065 6.89706 17.7065 7.22703 17.7065 7.56458C17.7065 8.01721 17.5267 8.45131 17.2067 8.77137C16.8866 9.09144 16.4525 9.27124 15.9999 9.27124ZM15.9999 6.67284C15.826 6.67284 15.6561 6.72439 15.5116 6.82097C15.367 6.91755 15.2544 7.05482 15.1879 7.21542C15.1213 7.37603 15.1039 7.55275 15.1378 7.72325C15.1718 7.89375 15.2555 8.05036 15.3784 8.17328C15.5013 8.2962 15.6579 8.37991 15.8284 8.41382C15.9989 8.44774 16.1756 8.43033 16.3362 8.36381C16.4968 8.29728 16.6341 8.18463 16.7307 8.04009C16.8273 7.89555 16.8788 7.72562 16.8788 7.55178C16.8788 7.31867 16.7862 7.09511 16.6214 6.93028C16.4565 6.76545 16.233 6.67284 15.9999 6.67284V6.67284Z" fill="white"/>
<path d="M10.799 26.1716C10.4614 26.1716 10.1314 26.0715 9.85078 25.884C9.57012 25.6965 9.35137 25.4299 9.2222 25.1181C9.09302 24.8062 9.05923 24.4631 9.12508 24.132C9.19093 23.801 9.35348 23.4969 9.59216 23.2582C9.83084 23.0195 10.1349 22.8569 10.466 22.7911C10.7971 22.7252 11.1402 22.759 11.4521 22.8882C11.7639 23.0174 12.0305 23.2361 12.218 23.5168C12.4055 23.7975 12.5056 24.1274 12.5056 24.465C12.5056 24.9176 12.3258 25.3517 12.0057 25.6718C11.6857 25.9918 11.2516 26.1716 10.799 26.1716ZM10.799 23.5732C10.624 23.5733 10.4531 23.6256 10.3081 23.7233C10.163 23.8211 10.0505 23.9599 9.98476 24.122C9.91906 24.2841 9.90321 24.4621 9.93925 24.6333C9.97529 24.8044 10.0616 24.9609 10.1871 25.0828C10.3126 25.2046 10.4716 25.2862 10.6437 25.3172C10.8159 25.3482 10.9933 25.3271 11.1534 25.2566C11.3135 25.1862 11.4489 25.0695 11.5424 24.9217C11.6358 24.7738 11.683 24.6014 11.6779 24.4266C11.6723 24.1976 11.5771 23.9799 11.4128 23.8203C11.2484 23.6608 11.028 23.572 10.799 23.5732V23.5732Z" fill="white"/>
<path d="M21.2011 26.1716C20.8635 26.1716 20.5335 26.0715 20.2529 25.884C19.9722 25.6965 19.7535 25.4299 19.6243 25.1181C19.4951 24.8062 19.4613 24.4631 19.5272 24.132C19.593 23.801 19.7556 23.4969 19.9943 23.2582C20.2329 23.0195 20.537 22.8569 20.8681 22.7911C21.1992 22.7252 21.5423 22.759 21.8542 22.8882C22.166 23.0174 22.4326 23.2361 22.6201 23.5168C22.8076 23.7975 22.9077 24.1274 22.9077 24.465C22.9077 24.9176 22.7279 25.3517 22.4079 25.6718C22.0878 25.9918 21.6537 26.1716 21.2011 26.1716ZM21.2011 23.5732C21.026 23.5725 20.8546 23.624 20.709 23.7212C20.5634 23.8185 20.4502 23.957 20.3838 24.119C20.3174 24.2811 20.301 24.4592 20.3365 24.6307C20.3721 24.8021 20.4581 24.959 20.5834 25.0813C20.7087 25.2036 20.8677 25.2856 21.04 25.3169C21.2122 25.3482 21.3899 25.3274 21.5503 25.257C21.7106 25.1867 21.8463 25.0701 21.9399 24.9221C22.0335 24.7741 22.0808 24.6016 22.0757 24.4266C22.0702 24.1983 21.9755 23.9813 21.8121 23.8218C21.6487 23.6624 21.4294 23.5732 21.2011 23.5732Z" fill="white"/>
<path d="M7.22766 15.4495C6.89012 15.4495 6.56015 15.3494 6.27949 15.1618C5.99883 14.9743 5.78008 14.7078 5.65091 14.3959C5.52174 14.0841 5.48794 13.7409 5.55379 13.4098C5.61964 13.0788 5.78219 12.7747 6.02087 12.536C6.25955 12.2973 6.56365 12.1348 6.89471 12.0689C7.22577 12.0031 7.56892 12.0369 7.88078 12.166C8.19263 12.2952 8.45917 12.514 8.6467 12.7946C8.83424 13.0753 8.93433 13.4053 8.93433 13.7428C8.93433 14.1954 8.75452 14.6295 8.43446 14.9496C8.1144 15.2697 7.6803 15.4495 7.22766 15.4495ZM7.22766 12.8468C7.05283 12.8417 6.88045 12.8889 6.73258 12.9823C6.58471 13.0758 6.46808 13.2112 6.39761 13.3713C6.32715 13.5314 6.30605 13.7088 6.33701 13.881C6.36798 14.0531 6.44961 14.2121 6.57145 14.3376C6.69329 14.4631 6.8498 14.5494 7.02096 14.5854C7.19212 14.6215 7.37013 14.6056 7.53223 14.5399C7.69434 14.4742 7.83315 14.3616 7.9309 14.2166C8.02866 14.0716 8.08092 13.9006 8.081 13.7257C8.08109 13.497 7.99201 13.2772 7.83268 13.1131C7.67334 12.949 7.45631 12.8535 7.22766 12.8468Z" fill="white"/>
<path d="M24.7721 15.4495C24.4346 15.4495 24.1046 15.3494 23.8239 15.1618C23.5433 14.9743 23.3245 14.7078 23.1953 14.3959C23.0662 14.0841 23.0324 13.7409 23.0982 13.4098C23.1641 13.0788 23.3266 12.7747 23.5653 12.536C23.804 12.2973 24.1081 12.1348 24.4391 12.0689C24.7702 12.0031 25.1134 12.0369 25.4252 12.166C25.7371 12.2952 26.0036 12.514 26.1911 12.7946C26.3787 13.0753 26.4788 13.4053 26.4788 13.7428C26.4788 14.1954 26.299 14.6295 25.9789 14.9496C25.6588 15.2697 25.2247 15.4495 24.7721 15.4495ZM24.7721 12.8468C24.5983 12.8468 24.4283 12.8983 24.2838 12.9949C24.1392 13.0915 24.0266 13.2288 23.9601 13.3894C23.8935 13.55 23.8761 13.7267 23.9101 13.8972C23.944 14.0677 24.0277 14.2243 24.1506 14.3472C24.2735 14.4702 24.4301 14.5539 24.6006 14.5878C24.7711 14.6217 24.9478 14.6043 25.1084 14.5378C25.2691 14.4712 25.4063 14.3586 25.5029 14.214C25.5995 14.0695 25.651 13.8996 25.651 13.7257C25.651 13.4926 25.5584 13.2691 25.3936 13.1042C25.2288 12.9394 25.0052 12.8468 24.7721 12.8468V12.8468Z" fill="white"/>
<path d="M16.4224 8.84863H15.5776V11.1228H16.4224V8.84863Z" fill="white"/>
<path d="M8.69207 13.9848L8.35913 14.7612L10.6335 15.7365L10.9665 14.9601L8.69207 13.9848Z" fill="white"/>
<path d="M12.3953 21.2917L11.0959 23.2407L11.7989 23.7093L13.0982 21.7603L12.3953 21.2917Z" fill="white"/>
<path d="M19.6011 21.2921L18.8982 21.7607L20.1975 23.7097L20.9004 23.2411L19.6011 21.2921Z" fill="white"/>
<path d="M23.3066 13.9847L21.0322 14.96L21.3652 15.7364L23.6395 14.7611L23.3066 13.9847Z" fill="white"/>
<path d="M12.6208 15.0356C12.514 15.0361 12.4109 14.9964 12.3319 14.9245C12.2529 14.8527 12.2038 14.7538 12.1942 14.6474L12.0747 13.026L12.928 12.9663L13.0134 14.161L14.208 14.0799L14.272 14.9332L12.6507 15.0527L12.6208 15.0356Z" fill="white"/>
<path d="M15.9957 21.1241C14.8429 21.1253 13.7365 20.6699 12.9186 19.8575C12.1006 19.0452 11.6376 17.942 11.6309 16.7892H12.4842C12.4838 17.3348 12.6119 17.8729 12.8579 18.3598C13.104 18.8468 13.4612 19.269 13.9007 19.5924C14.6501 20.1496 15.5899 20.3866 16.5139 20.2514C17.4379 20.1162 18.2704 19.6199 18.8287 18.8713C19.1052 18.5005 19.3058 18.0788 19.4192 17.6304C19.5326 17.1819 19.5565 16.7156 19.4895 16.2579C19.4226 15.8002 19.266 15.3602 19.0289 14.9631C18.7918 14.5659 18.4788 14.2194 18.1077 13.9433C17.3583 13.3861 16.4184 13.1491 15.4945 13.2843C14.5705 13.4195 13.7379 13.9158 13.1797 14.6644L12.5013 14.1567C12.9463 13.5582 13.5371 13.0835 14.2174 12.778C14.8978 12.4725 15.6451 12.3462 16.388 12.4111C17.131 12.4761 17.845 12.7302 18.462 13.1493C19.079 13.5683 19.5784 14.1382 19.9128 14.8049C20.2471 15.4716 20.4052 16.2128 20.3721 16.9578C20.3389 17.7029 20.1156 18.4271 19.7233 19.0614C19.3311 19.6958 18.783 20.2191 18.1312 20.5817C17.4795 20.9442 16.7457 21.1339 15.9999 21.1327L15.9957 21.1241Z" fill="white"/>
</g>
<defs>
<linearGradient id="paint0_linear_854_29445" x1="-6.6304" y1="38.6304" x2="38.6261" y2="-6.62613" gradientUnits="userSpaceOnUse">
<stop stop-color="#1B660F"/>
<stop offset="1" stop-color="#6CAE3E"/>
</linearGradient>
<clipPath id="clip0_854_29445">
<rect width="32" height="32" fill="white"/>
</clipPath>
</defs>
</svg>
