<svg width="32" height="32" viewBox="0 0 32 32" fill="none" xmlns="http://www.w3.org/2000/svg">
<g clip-path="url(#clip0_854_29450)">
<path d="M32 0H0V32H32V0Z" fill="url(#paint0_linear_854_29450)"/>
<path d="M20.2921 12.5864H8.73795C8.62479 12.5864 8.51626 12.6314 8.43625 12.7114C8.35623 12.7914 8.31128 12.8999 8.31128 13.0131V19.0035C8.31128 19.1167 8.35623 19.2252 8.43625 19.3052C8.51626 19.3852 8.62479 19.4302 8.73795 19.4302H9.55715C9.65839 19.7334 9.84681 20.0001 10.0988 20.1968C10.3509 20.3935 10.6553 20.5116 10.974 20.5361C11.2928 20.5607 11.6117 20.4908 11.891 20.335C12.1702 20.1793 12.3973 19.9447 12.5438 19.6606C12.6904 19.9447 12.9175 20.1793 13.1967 20.335C13.4759 20.4908 13.7948 20.5607 14.1136 20.5361C14.4323 20.5116 14.7368 20.3935 14.9888 20.1968C15.2408 20.0001 15.4292 19.7334 15.5305 19.4302H20.2921C20.3984 19.4287 20.5003 19.3876 20.5779 19.315C20.6781 19.6874 20.9071 20.0123 21.2242 20.2318C21.5413 20.4514 21.9259 20.5513 22.3098 20.514C22.6937 20.4766 23.0519 20.3043 23.3207 20.0278C23.5895 19.7512 23.7515 19.3883 23.7779 19.0035H24.1321C24.2452 19.0035 24.3538 18.9585 24.4338 18.8785C24.5138 18.7985 24.5588 18.69 24.5588 18.5768V16.3795C24.5576 16.0473 24.4909 15.7185 24.3623 15.4122C24.2338 15.1058 24.0459 14.8279 23.8096 14.5944C23.5733 14.3609 23.2932 14.1763 22.9854 14.0514C22.6775 13.9265 22.348 13.8636 22.0158 13.8664H20.7017V13.0131C20.7018 12.9028 20.6592 12.7968 20.5828 12.7173C20.5064 12.6377 20.4023 12.5908 20.2921 12.5864V12.5864ZM11.0931 19.6862C10.9311 19.6862 10.7727 19.6381 10.638 19.5481C10.5033 19.4581 10.3983 19.3301 10.3363 19.1805C10.2743 19.0308 10.2581 18.8661 10.2897 18.7071C10.3213 18.5482 10.3993 18.4023 10.5139 18.2877C10.6285 18.1731 10.7744 18.0951 10.9333 18.0635C11.0922 18.0319 11.257 18.0481 11.4066 18.1101C11.5563 18.1721 11.6843 18.2771 11.7743 18.4118C11.8643 18.5466 11.9123 18.7049 11.9123 18.867C11.9123 19.0842 11.826 19.2926 11.6724 19.4462C11.5188 19.5999 11.3104 19.6862 11.0931 19.6862V19.6862ZM13.9603 19.6862C13.7983 19.6862 13.6399 19.6381 13.5052 19.5481C13.3705 19.4581 13.2655 19.3301 13.2035 19.1805C13.1415 19.0308 13.1253 18.8661 13.1569 18.7071C13.1885 18.5482 13.2665 18.4023 13.3811 18.2877C13.4957 18.1731 13.6416 18.0951 13.8005 18.0635C13.9594 18.0319 14.1242 18.0481 14.2738 18.1101C14.4235 18.1721 14.5515 18.2771 14.6415 18.4118C14.7315 18.5466 14.7795 18.7049 14.7795 18.867C14.7795 19.0842 14.6932 19.2926 14.5396 19.4462C14.386 19.5999 14.1776 19.6862 13.9603 19.6862V19.6862ZM19.8483 18.5598H15.5817C15.5204 18.2271 15.357 17.9217 15.1143 17.686C14.8717 17.4504 14.5617 17.296 14.2273 17.2444C13.893 17.1929 13.5509 17.2466 13.2485 17.3982C12.9461 17.5498 12.6983 17.7917 12.5395 18.0904C12.3808 17.7917 12.133 17.5498 11.8306 17.3982C11.5282 17.2466 11.1861 17.1929 10.8518 17.2444C10.5174 17.296 10.2074 17.4504 9.96475 17.686C9.72207 17.9217 9.55874 18.2271 9.49741 18.5598H9.19448V13.4398H19.8611V18.5598H19.8483ZM22.1523 19.6862C21.9903 19.6862 21.8319 19.6381 21.6972 19.5481C21.5625 19.4581 21.4575 19.3301 21.3955 19.1805C21.3335 19.0308 21.3173 18.8661 21.3489 18.7071C21.3805 18.5482 21.4585 18.4023 21.5731 18.2877C21.6877 18.1731 21.8336 18.0951 21.9925 18.0635C22.1514 18.0319 22.3162 18.0481 22.4658 18.1101C22.6155 18.1721 22.7435 18.2771 22.8335 18.4118C22.9235 18.5466 22.9715 18.7049 22.9715 18.867C22.9715 19.0842 22.8852 19.2926 22.7316 19.4462C22.578 19.5999 22.3696 19.6862 22.1523 19.6862V19.6862ZM22.0158 14.7198C22.4575 14.7186 22.8817 14.8927 23.1952 15.2039C23.5087 15.515 23.6861 15.9378 23.6883 16.3795V18.1331H23.6073C23.472 17.8637 23.2645 17.6372 23.008 17.4789C22.7514 17.3207 22.4559 17.2368 22.1545 17.2368C21.853 17.2368 21.5575 17.3207 21.301 17.4789C21.0444 17.6372 20.8369 17.8637 20.7017 18.1331V14.7198H22.0158Z" fill="white"/>
<path d="M7.47507 13.0132H6.19507V13.8665H7.47507V13.0132Z" fill="white"/>
<path d="M7.47513 15.1465H5.3418V15.9998H7.47513V15.1465Z" fill="white"/>
<path d="M7.47522 17.2798H5.76855V18.1331H7.47522V17.2798Z" fill="white"/>
<path d="M16.418 5.75977C14.4579 5.76037 12.5392 6.32354 10.8896 7.38238C9.24013 8.44122 7.92916 9.95124 7.11245 11.7331L7.85485 12.0744C8.76513 10.0858 10.3387 8.47562 12.3059 7.51983C14.273 6.56404 16.5114 6.32214 18.6373 6.83556C20.7633 7.34898 22.6445 8.58578 23.9587 10.334C25.2728 12.0822 25.9381 14.2331 25.8404 16.418C25.7428 18.6029 24.8884 20.6858 23.4235 22.3099C21.9587 23.9339 19.9746 24.998 17.8113 25.3198C15.6481 25.6415 13.4402 25.2009 11.5661 24.0735C9.69205 22.946 8.26839 21.2019 7.53911 19.14L6.76685 19.4131C7.39266 21.1832 8.49307 22.7471 9.94778 23.934C11.4025 25.1209 13.1555 25.885 15.0152 26.1428C16.8748 26.4006 18.7696 26.1421 20.4923 25.3957C22.215 24.6493 23.6993 23.4436 24.783 21.9105C25.8668 20.3774 26.5081 18.5759 26.637 16.7029C26.766 14.8299 26.3774 12.9574 25.514 11.2903C24.6505 9.6232 23.3454 8.22555 21.7412 7.25016C20.137 6.27477 18.2955 5.75919 16.418 5.75977V5.75977Z" fill="white"/>
</g>
<defs>
<linearGradient id="paint0_linear_854_29450" x1="-6.6287" y1="38.6274" x2="38.6261" y2="-6.62742" gradientUnits="userSpaceOnUse">
<stop stop-color="#1B660F"/>
<stop offset="1" stop-color="#6CAE3E"/>
</linearGradient>
<clipPath id="clip0_854_29450">
<rect width="32" height="32" fill="white"/>
</clipPath>
</defs>
</svg>
