<svg width="32" height="32" viewBox="0 0 32 32" fill="none" xmlns="http://www.w3.org/2000/svg">
<g clip-path="url(#clip0_849_21236)">
<path d="M32 0H0V32H32V0Z" fill="#CC2264"/>
<path d="M23.2875 21.726V22.0801C23.2875 22.0374 23.2875 21.9948 23.2875 21.9521C23.2789 21.877 23.2789 21.8011 23.2875 21.726V21.726Z" fill="white"/>
<path d="M17.6855 13.2267L17.6428 13.3077C17.6599 13.2814 17.6729 13.2526 17.6812 13.2224L17.6855 13.2267Z" fill="white"/>
<path d="M13.9861 11.7462C13.6064 11.7462 10.2528 11.7163 10.2528 12.9835C10.2513 13.0638 10.2658 13.1435 10.2955 13.2182C10.3079 13.2488 10.3222 13.2787 10.3381 13.3078L12.6592 18.4278V21.0774C12.6592 21.3462 12.7701 21.504 13.0048 21.504H13.1157C13.6521 21.3636 14.1506 21.1057 14.5749 20.7488L14.8608 20.5483C14.9217 20.5102 14.972 20.4575 15.007 20.3948C15.0421 20.3322 15.0607 20.2617 15.0613 20.1899V18.4406L17.6427 13.3206C17.6597 13.2942 17.6727 13.2655 17.6811 13.2352C17.7107 13.1606 17.7252 13.0808 17.7237 13.0006C17.7237 11.7163 14.3701 11.7462 13.9861 11.7462ZM13.9861 12.5312C15.4923 12.5312 16.4608 12.7958 16.7851 12.9835C16.4608 13.1712 15.5051 13.4358 13.9861 13.4358C12.4672 13.4358 11.5157 13.1712 11.1915 12.9835C11.52 12.8 12.48 12.5312 13.9861 12.5312ZM14.2976 18.0779C14.2976 18.1376 14.2976 18.2443 14.2976 18.3552V20.0235L14.1312 20.1259C13.888 20.2667 13.6747 20.3648 13.4315 20.4928V18.3467C13.4304 18.2882 13.4189 18.2304 13.3973 18.176L11.5797 14.0203C12.3697 14.1963 13.1767 14.285 13.9861 14.2848C14.772 14.2842 15.5557 14.2013 16.3243 14.0374L14.2976 18.0779Z" fill="white"/>
<path d="M21.7601 23.5392C20.0899 24.7481 18.0789 25.395 16.0172 25.3867C11.375 25.3867 7.41556 22.3702 6.48543 17.92C6.90437 17.9001 7.30532 17.7438 7.62726 17.475C7.94921 17.2062 8.17452 16.8396 8.2689 16.431H10.4449V15.6246H8.27743C8.19513 15.205 7.97486 14.8251 7.65167 14.5452C7.32848 14.2653 6.92096 14.1016 6.49397 14.08C6.87433 12.5374 7.62357 11.1102 8.67728 9.92112C9.73099 8.732 11.0577 7.8165 12.5433 7.2533C14.0289 6.6901 15.6291 6.49604 17.2063 6.6878C18.7835 6.87955 20.2906 7.45139 21.598 8.35417L22.0844 7.68003C20.6372 6.68012 18.9653 6.05361 17.2174 5.85628C15.4695 5.65895 13.7 5.89693 12.0663 6.54903C10.4327 7.20114 8.98569 8.24712 7.85415 9.59383C6.72262 10.9405 5.94168 12.5462 5.5809 14.2678C5.25001 14.4211 4.96987 14.6658 4.77354 14.9731C4.57722 15.2804 4.4729 15.6375 4.4729 16.0022C4.4729 16.3668 4.57722 16.7239 4.77354 17.0312C4.96987 17.3385 5.25001 17.5833 5.5809 17.7366C6.07814 20.1375 7.38734 22.2938 9.28814 23.8426C11.1889 25.3914 13.5653 26.238 16.0172 26.24C18.251 26.2444 20.4289 25.5409 22.238 24.2304L21.7601 23.5392ZM5.33343 16C5.33154 15.738 5.42618 15.4844 5.59931 15.2877C5.77244 15.0909 6.01193 14.9648 6.2721 14.9334H6.4001C6.61124 14.9325 6.81789 14.9944 6.99386 15.1111C7.16984 15.2277 7.30722 15.394 7.38861 15.5889C7.46999 15.7837 7.49173 15.9983 7.45105 16.2055C7.41038 16.4127 7.30913 16.6032 7.16012 16.7528C7.01112 16.9024 6.82106 17.0044 6.61404 17.0459C6.40701 17.0874 6.19232 17.0665 5.99716 16.9859C5.802 16.9053 5.63516 16.7686 5.51776 16.5931C5.40037 16.4176 5.3377 16.2112 5.3377 16H5.33343Z" fill="white"/>
<path d="M25.6001 17.92C25.9629 17.9203 26.3183 17.8177 26.6252 17.6242C26.9321 17.4308 27.1779 17.1543 27.3341 16.8269C27.4904 16.4995 27.5506 16.1345 27.508 15.7742C27.4653 15.4139 27.3214 15.0731 27.093 14.7913C26.8646 14.5094 26.5611 14.298 26.2175 14.1816C25.8739 14.0652 25.5043 14.0485 25.1516 14.1334C24.7989 14.2184 24.4775 14.4016 24.2246 14.6617C23.9717 14.9218 23.7977 15.2483 23.7228 15.6032H21.5041V10.3254H22.6561C22.7184 10.8006 22.9563 11.2354 23.3229 11.5442C23.6895 11.8529 24.1584 12.0134 24.6373 11.9941C25.1162 11.9747 25.5706 11.7769 25.9111 11.4396C26.2516 11.1022 26.4536 10.6497 26.4774 10.1709C26.5012 9.69219 26.3451 9.22187 26.0397 8.85241C25.7343 8.48296 25.3018 8.24109 24.8271 8.17435C24.3524 8.10761 23.87 8.22083 23.4746 8.49175C23.0792 8.76267 22.7994 9.1717 22.6902 9.63843L21.1201 9.6171C21.0661 9.6056 21.0101 9.6069 20.9567 9.62088C20.9033 9.63486 20.8539 9.66114 20.8124 9.69762C20.7709 9.7341 20.7386 9.77977 20.7179 9.83098C20.6973 9.8822 20.6889 9.93753 20.6934 9.99257V15.5904H17.4124V16.3798H20.6934V21.9606C20.6934 22.0737 20.7384 22.1823 20.8184 22.2623C20.8984 22.3423 21.0069 22.3872 21.1201 22.3872H22.4598C22.5535 22.8543 22.8175 23.2699 23.2004 23.5532C23.5834 23.8365 24.058 23.9673 24.532 23.9202C25.0061 23.8732 25.4457 23.6516 25.7655 23.2985C26.0852 22.9454 26.2623 22.486 26.2623 22.0096C26.2623 21.5333 26.0852 21.0739 25.7655 20.7208C25.4457 20.3677 25.0061 20.1461 24.532 20.099C24.058 20.052 23.5834 20.1828 23.2004 20.4661C22.8175 20.7494 22.5535 21.165 22.4598 21.632H21.5297L21.5084 16.3755H23.7228C23.8101 16.8097 24.0446 17.2004 24.3866 17.4818C24.7286 17.7631 25.1572 17.9179 25.6001 17.92V17.92ZM25.6001 14.9334C25.8111 14.9334 26.0173 14.9959 26.1927 15.1131C26.3681 15.2303 26.5048 15.3969 26.5856 15.5918C26.6663 15.7867 26.6874 16.0012 26.6463 16.2081C26.6051 16.415 26.5035 16.6051 26.3543 16.7543C26.2052 16.9035 26.0151 17.005 25.8082 17.0462C25.6013 17.0874 25.3868 17.0662 25.1919 16.9855C24.997 16.9048 24.8304 16.7681 24.7132 16.5926C24.596 16.4172 24.5334 16.211 24.5334 16C24.5334 15.7171 24.6458 15.4458 24.8458 15.2458C25.0459 15.0457 25.3172 14.9334 25.6001 14.9334ZM24.5334 8.99843C24.7437 8.99928 24.949 9.06253 25.1234 9.18016C25.2977 9.2978 25.4332 9.46452 25.5127 9.65922C25.5922 9.85391 25.6121 10.0678 25.5699 10.2739C25.5278 10.4799 25.4254 10.6688 25.2758 10.8166C25.1262 10.9644 24.9361 11.0645 24.7296 11.1041C24.523 11.1438 24.3094 11.1213 24.1157 11.0395C23.9219 10.9576 23.7569 10.8201 23.6413 10.6444C23.5258 10.4687 23.4651 10.2626 23.4668 10.0523C23.4667 9.91206 23.4945 9.77321 23.5484 9.64376C23.6024 9.5143 23.6814 9.3968 23.7809 9.29804C23.8805 9.19927 23.9986 9.12119 24.1285 9.06831C24.2584 9.01542 24.3975 8.98877 24.5377 8.9899L24.5334 8.99843ZM24.3201 20.9067C24.5256 20.9058 24.727 20.9643 24.9 21.0752C25.0731 21.1861 25.2104 21.3446 25.2955 21.5316C25.3807 21.7187 25.4099 21.9264 25.3798 22.1296C25.3497 22.3329 25.2615 22.5232 25.1258 22.6776C24.9901 22.8319 24.8127 22.9438 24.615 22.9998C24.4172 23.0557 24.2075 23.0533 24.0111 22.9929C23.8146 22.9325 23.6398 22.8166 23.5077 22.6592C23.3756 22.5018 23.2917 22.3096 23.2662 22.1056V22.1056C23.2662 22.063 23.2662 22.0203 23.2662 21.9776C23.2661 21.9015 23.2747 21.8257 23.2918 21.7515V21.7515C23.3428 21.5153 23.4721 21.3034 23.6588 21.15C23.8455 20.9966 24.0785 20.9109 24.3201 20.9067V20.9067Z" fill="white"/>
</g>
<defs>
<clipPath id="clip0_849_21236">
<rect width="32" height="32" fill="white"/>
</clipPath>
</defs>
</svg>
