<svg width="32" height="32" viewBox="0 0 32 32" fill="none" xmlns="http://www.w3.org/2000/svg">
<g clip-path="url(#clip0_849_21233)">
<path d="M32 0H0V32H32V0Z" fill="url(#paint0_linear_849_21233)"/>
<path d="M22.7542 25.0453C22.2777 25.0434 21.8165 24.8764 21.4493 24.5727C21.082 24.2691 20.8313 23.8475 20.7399 23.3798C20.6485 22.9121 20.722 22.4272 20.9479 22.0076C21.1738 21.588 21.5382 21.2597 21.9789 21.0785C22.4197 20.8973 22.9096 20.8745 23.3653 21.0139C23.821 21.1533 24.2143 21.4463 24.4783 21.843C24.7422 22.2398 24.8605 22.7158 24.813 23.19C24.7655 23.6641 24.5551 24.1072 24.2177 24.4437V24.4437C24.0254 24.6354 23.7971 24.7873 23.546 24.8905C23.2948 24.9938 23.0258 25.0464 22.7542 25.0453V25.0453ZM22.7542 21.7642C22.4317 21.7642 22.1224 21.8923 21.8944 22.1204C21.6663 22.3484 21.5382 22.6577 21.5382 22.9802C21.5387 23.1391 21.5706 23.2963 21.6321 23.4427C21.6936 23.5892 21.7835 23.722 21.8966 23.8336C22.1241 24.0576 22.4306 24.1833 22.75 24.1833C23.0693 24.1833 23.3758 24.0576 23.6033 23.8336C23.8264 23.6055 23.9513 23.2992 23.9513 22.9802C23.9513 22.6612 23.8264 22.3549 23.6033 22.1269C23.3789 21.8987 23.0742 21.767 22.7542 21.76V21.7642Z" fill="white"/>
<path d="M25.664 18.0948C25.1852 18.0937 24.7215 17.9266 24.3521 17.622C23.9827 17.3174 23.7304 16.894 23.6381 16.4242C23.5459 15.9543 23.6194 15.467 23.8462 15.0453C24.073 14.6236 24.4391 14.2936 24.8819 14.1116C25.3248 13.9295 25.8171 13.9067 26.2749 14.047C26.7327 14.1872 27.1277 14.4819 27.3926 14.8808C27.6575 15.2797 27.7758 15.7581 27.7275 16.2345C27.6791 16.7108 27.4671 17.1557 27.1274 17.4932V17.4932C26.738 17.8789 26.212 18.0952 25.664 18.0948ZM25.664 14.8095C25.4639 14.8088 25.2668 14.8574 25.0901 14.9511C24.9133 15.0448 24.7624 15.1806 24.6507 15.3465C24.539 15.5125 24.47 15.7034 24.4497 15.9025C24.4295 16.1015 24.4587 16.3024 24.5347 16.4874C24.6107 16.6725 24.7311 16.8359 24.8854 16.9633C25.0397 17.0906 25.223 17.1779 25.4191 17.2175C25.6151 17.257 25.818 17.2476 26.0095 17.19C26.2011 17.1324 26.3755 17.0285 26.5173 16.8874V16.8874C26.7446 16.6613 26.8734 16.3546 26.8757 16.034C26.8735 15.7122 26.7446 15.4042 26.5171 15.1767C26.2895 14.9491 25.9815 14.8203 25.6597 14.818L25.664 14.8095Z" fill="white"/>
<path d="M22.7542 10.6666C22.2754 10.6665 21.8115 10.5004 21.4415 10.1966C21.0715 9.89284 20.8183 9.47015 20.725 9.00058C20.6317 8.53102 20.7041 8.04363 20.9298 7.62145C21.1556 7.19928 21.5208 6.86845 21.9631 6.68532C22.4054 6.5022 22.8976 6.47811 23.3557 6.61717C23.8138 6.75622 24.2095 7.04981 24.4754 7.44792C24.7413 7.84603 24.861 8.32402 24.814 8.80045C24.767 9.27689 24.5562 9.72228 24.2177 10.0608C24.0257 10.2533 23.7976 10.4059 23.5465 10.5099C23.2953 10.6139 23.026 10.6671 22.7542 10.6666ZM22.7542 7.38129C22.5138 7.38217 22.2791 7.45427 22.0797 7.58848C21.8803 7.72269 21.7251 7.91299 21.6338 8.13533C21.5425 8.35768 21.5191 8.6021 21.5667 8.83772C21.6142 9.07334 21.7305 9.28959 21.9009 9.45915C22.0706 9.62807 22.2865 9.74308 22.5214 9.78978C22.7563 9.83647 22.9998 9.81275 23.2212 9.72161C23.4427 9.63047 23.6323 9.47596 23.7663 9.27746C23.9003 9.07896 23.9727 8.84531 23.9745 8.60582C23.975 8.4472 23.944 8.29005 23.8832 8.14354C23.8224 7.99703 23.733 7.86409 23.6203 7.75249C23.5068 7.63842 23.3719 7.548 23.2232 7.48648C23.0745 7.42495 22.9151 7.39355 22.7542 7.39409V7.38129Z" fill="white"/>
<path d="M11.8954 15.7013L10.4448 14.2506L9.84317 14.8522L10.5642 15.5776H8.34983C8.26955 15.2162 8.09359 14.883 7.84038 14.6129C7.58717 14.3429 7.26602 14.1458 6.91054 14.0425C6.55506 13.9391 6.17833 13.9332 5.81979 14.0254C5.46124 14.1175 5.13406 14.3044 4.8725 14.5664C4.48559 14.9543 4.26831 15.4798 4.26831 16.0277C4.26831 16.5756 4.48559 17.1011 4.8725 17.489C5.13746 17.7533 5.46911 17.9407 5.83215 18.0314C6.19519 18.1221 6.57603 18.1127 6.93413 18.0041C7.29223 17.8955 7.6142 17.6919 7.86575 17.4149C8.11729 17.1378 8.28902 16.7978 8.36263 16.4309H10.5642L9.84317 17.152L10.449 17.7536L11.8954 16.3029C11.9749 16.223 12.0195 16.1148 12.0195 16.0021C12.0195 15.8894 11.9749 15.7812 11.8954 15.7013V15.7013ZM7.2021 16.8874C7.09615 17.0233 6.96254 17.1351 6.81012 17.2154C6.6577 17.2958 6.48995 17.3428 6.31798 17.3534C6.14601 17.364 5.97376 17.3379 5.81262 17.2769C5.65149 17.2159 5.50516 17.1214 5.38333 16.9995C5.2615 16.8777 5.16695 16.7314 5.10595 16.5702C5.04494 16.4091 5.01888 16.2368 5.02948 16.0649C5.04008 15.8929 5.0871 15.7252 5.16743 15.5727C5.24776 15.4203 5.35956 15.2867 5.49543 15.1808C5.72346 14.9577 6.02977 14.8328 6.34877 14.8328C6.66776 14.8328 6.97407 14.9577 7.2021 15.1808C7.42506 15.4094 7.54914 15.7165 7.54754 16.0358C7.54594 16.3552 7.4188 16.6611 7.19357 16.8874H7.2021Z" fill="white"/>
<path d="M22.528 15.7013L22.4 15.5776L21.0774 14.2506L20.48 14.8522L21.2011 15.5776H18.6411C18.6864 14.4283 19.1402 13.3329 19.9211 12.4885C20.0006 12.4085 20.0452 12.3004 20.0452 12.1877C20.0452 12.075 20.0006 11.9668 19.9211 11.8869C19.8412 11.8074 19.733 11.7628 19.6203 11.7628C19.5076 11.7628 19.3994 11.8074 19.3195 11.8869C17.5744 13.632 14.0203 13.6277 12.2752 11.8869C12.1953 11.8074 12.0872 11.7628 11.9744 11.7628C11.8617 11.7628 11.7536 11.8074 11.6736 11.8869C11.5942 11.9668 11.5496 12.075 11.5496 12.1877C11.5496 12.3004 11.5942 12.4085 11.6736 12.4885C13.4187 14.2336 13.4187 17.7877 11.6736 19.5328C11.5948 19.6122 11.5504 19.7195 11.5499 19.8314C11.5496 19.8876 11.5603 19.9432 11.5816 19.9952C11.6028 20.0472 11.6341 20.0945 11.6736 20.1344C11.7536 20.2138 11.8617 20.2584 11.9744 20.2584C12.0872 20.2584 12.1953 20.2138 12.2752 20.1344C14.0203 18.3893 17.5744 18.3893 19.3195 20.1344C19.3994 20.2138 19.5076 20.2584 19.6203 20.2584C19.733 20.2584 19.8412 20.2138 19.9211 20.1344C19.9606 20.0945 19.9919 20.0472 20.0132 19.9952C20.0344 19.9432 20.0452 19.8876 20.0448 19.8314C20.0444 19.7195 19.9999 19.6122 19.9211 19.5328C19.1397 18.6836 18.6859 17.584 18.6411 16.4309H21.2011L20.48 17.152L21.0816 17.7536L22.5323 16.3029C22.6112 16.2224 22.655 16.1139 22.6542 16.0012C22.6534 15.8885 22.6081 15.7807 22.528 15.7013ZM18.1974 18.4234C16.6424 17.8205 14.9182 17.8205 13.3632 18.4234C13.9689 16.8719 13.9689 15.1493 13.3632 13.5978C14.9177 14.2037 16.6429 14.2037 18.1974 13.5978C17.6 15.1524 17.6 16.8731 18.1974 18.4277V18.4234Z" fill="white"/>
<path d="M20.0532 7.64582C18.7858 6.99906 17.3882 6.64808 15.9656 6.61926C14.543 6.59044 13.1324 6.88453 11.8398 7.47942L11.4814 6.70715C12.83 6.08121 14.2997 5.7593 15.7865 5.76422C17.4036 5.7658 18.9973 6.15034 20.4372 6.88635L20.0532 7.64582Z" fill="white"/>
<path d="M6.75829 13.2522L5.94336 13.0005C6.2014 12.1536 6.5701 11.3445 7.03989 10.5941L7.76096 11.0464C7.3319 11.7348 6.99481 12.4764 6.75829 13.2522V13.2522Z" fill="white"/>
<path d="M24.6869 12.9279C24.489 12.3455 24.2317 11.7851 23.9189 11.2554L24.6528 10.8287C24.9992 11.4065 25.2851 12.0185 25.5061 12.6549L24.6869 12.9279Z" fill="white"/>
<path d="M24.7722 20.8512L24.0383 20.4245C24.3475 19.893 24.6047 19.3329 24.8063 18.752L25.6127 19.0293C25.3955 19.6637 25.1139 20.2742 24.7722 20.8512V20.8512Z" fill="white"/>
<path d="M15.7865 26.2357C14.2082 26.2425 12.6503 25.8786 11.2383 25.1733L11.618 24.4096C12.9368 25.0587 14.3893 25.3903 15.8592 25.3777C17.329 25.3651 18.7756 25.0087 20.0831 24.337L20.4799 25.1008C19.027 25.8442 17.4186 26.2332 15.7865 26.2357V26.2357Z" fill="white"/>
<path d="M6.87349 21.1327C6.48285 20.4596 6.17076 19.7438 5.94336 18.9994L6.75829 18.7477C6.96815 19.4305 7.25441 20.0875 7.61163 20.7061L6.87349 21.1327Z" fill="white"/>
<path d="M9.24153 25.0453C8.76499 25.0434 8.30384 24.8764 7.93657 24.5727C7.56931 24.2691 7.31864 23.8475 7.22723 23.3798C7.13583 22.9121 7.20933 22.4272 7.43524 22.0076C7.66114 21.588 8.02548 21.2597 8.46624 21.0785C8.90699 20.8973 9.39692 20.8745 9.85262 21.0139C10.3083 21.1533 10.7016 21.4463 10.9656 21.843C11.2295 22.2398 11.3478 22.7158 11.3003 23.19C11.2528 23.6641 11.0424 24.1072 10.705 24.4437C10.3159 24.8298 9.78969 25.0461 9.24153 25.0453V25.0453ZM9.24153 21.7642C8.95989 21.7632 8.68662 21.8599 8.46838 22.038C8.25014 22.216 8.10047 22.4643 8.04493 22.7404C7.98938 23.0165 8.0314 23.3033 8.16381 23.5519C8.29622 23.8005 8.51081 23.9954 8.77094 24.1033C9.03107 24.2113 9.32061 24.2256 9.59012 24.1438C9.85963 24.062 10.0924 23.8893 10.2487 23.6549C10.4049 23.4206 10.475 23.1393 10.447 22.8591C10.4189 22.5789 10.2945 22.317 10.0949 22.1184C9.86904 21.8907 9.56219 21.7618 9.24153 21.76V21.7642Z" fill="white"/>
<path d="M9.24167 10.6666C8.69298 10.6658 8.16689 10.448 7.7782 10.0608V10.0608C7.43962 9.72228 7.22888 9.27689 7.18188 8.80045C7.13487 8.32402 7.25452 7.84603 7.52043 7.44792C7.78634 7.04981 8.18205 6.75622 8.64016 6.61717C9.09827 6.47811 9.59042 6.5022 10.0328 6.68532C10.4751 6.86845 10.8402 7.19928 11.066 7.62145C11.2918 8.04363 11.3642 8.53102 11.2709 9.00058C11.1776 9.47015 10.9243 9.89284 10.5543 10.1966C10.1843 10.5004 9.72041 10.6665 9.24167 10.6666V10.6666ZM8.38833 9.45915C8.55811 9.62807 8.774 9.74308 9.00889 9.78977C9.24379 9.83647 9.48725 9.81275 9.70872 9.72161C9.9302 9.63047 10.1198 9.47596 10.2538 9.27746C10.3878 9.07896 10.4602 8.84531 10.4619 8.60582C10.4602 8.36633 10.3878 8.13268 10.2538 7.93418C10.1198 7.73568 9.9302 7.58117 9.70872 7.49003C9.48725 7.39889 9.24379 7.37518 9.00889 7.42187C8.774 7.46856 8.55811 7.58358 8.38833 7.75249C8.16424 7.97998 8.03863 8.28649 8.03863 8.60582C8.03863 8.92515 8.16424 9.23166 8.38833 9.45915V9.45915Z" fill="white"/>
</g>
<defs>
<linearGradient id="paint0_linear_849_21233" x1="-6.63168" y1="38.6261" x2="38.6232" y2="-6.6287" gradientUnits="userSpaceOnUse">
<stop stop-color="#B0084D"/>
<stop offset="1" stop-color="#FF4F8B"/>
</linearGradient>
<clipPath id="clip0_849_21233">
<rect width="32" height="32" fill="white"/>
</clipPath>
</defs>
</svg>
