<svg width="32" height="32" viewBox="0 0 32 32" fill="none" xmlns="http://www.w3.org/2000/svg">
<g clip-path="url(#clip0_850_21697)">
<path d="M32 0H0V32H32V0Z" fill="url(#paint0_linear_850_21697)"/>
<path fill-rule="evenodd" clip-rule="evenodd" d="M24.4 24C23.2968 24 22.4 23.1024 22.4 22C22.4 20.8976 23.2968 20 24.4 20C25.5032 20 26.4 20.8976 26.4 22C26.4 23.1024 25.5032 24 24.4 24ZM24.4 19.2C22.856 19.2 21.6 20.456 21.6 22C21.6 23.544 22.856 24.8 24.4 24.8C25.944 24.8 27.2 23.544 27.2 22C27.2 20.456 25.944 19.2 24.4 19.2ZM24.4 17.6C23.2968 17.6 22.4 16.7024 22.4 15.6C22.4 14.4976 23.2968 13.6 24.4 13.6C25.5032 13.6 26.4 14.4976 26.4 15.6C26.4 16.7024 25.5032 17.6 24.4 17.6ZM24.4 12.8C22.856 12.8 21.6 14.056 21.6 15.6C21.6 17.144 22.856 18.4 24.4 18.4C25.944 18.4 27.2 17.144 27.2 15.6C27.2 14.056 25.944 12.8 24.4 12.8ZM24.4 11.2C23.2968 11.2 22.4 10.3024 22.4 9.20005C22.4 8.09765 23.2968 7.20005 24.4 7.20005C25.5032 7.20005 26.4 8.09765 26.4 9.20005C26.4 10.3024 25.5032 11.2 24.4 11.2ZM24.4 6.40005C22.856 6.40005 21.6 7.65605 21.6 9.20005C21.6 10.744 22.856 12 24.4 12C25.944 12 27.2 10.744 27.2 9.20005C27.2 7.65605 25.944 6.40005 24.4 6.40005ZM27.2 4.80005V5.60005H20V26.4H27.2V27.2H19.6C19.3792 27.2 19.2 27.0208 19.2 26.8V16H13.6V15.2H19.2V5.20005C19.2 4.97925 19.3792 4.80005 19.6 4.80005H27.2ZM5.60005 18.1528V13.0472L10.7056 15.6L5.60005 18.1528ZM11.7792 15.2424L5.37925 12.0424C5.25525 11.98 5.10725 11.9864 4.98965 12.06C4.87205 12.1328 4.80005 12.2616 4.80005 12.4V18.8C4.80005 18.9384 4.87205 19.0672 4.98965 19.14C5.05365 19.18 5.12645 19.2 5.20005 19.2C5.26085 19.2 5.32245 19.1856 5.37925 19.1576L11.7792 15.9576C11.9144 15.8896 12 15.7512 12 15.6C12 15.4488 11.9144 15.3104 11.7792 15.2424ZM8.40005 26.4C6.85605 26.4 5.60005 25.144 5.60005 23.6C5.60005 22.056 6.85605 20.8 8.40005 20.8C9.94405 20.8 11.2 22.056 11.2 23.6C11.2 25.144 9.94405 26.4 8.40005 26.4ZM8.40005 20C6.41525 20 4.80005 21.6152 4.80005 23.6C4.80005 25.5848 6.41525 27.2 8.40005 27.2C10.3848 27.2 12 25.5848 12 23.6C12 21.6152 10.3848 20 8.40005 20ZM5.60005 10.4H10.4V5.60005H5.60005V10.4ZM5.20005 11.2H10.8C11.0208 11.2 11.2 11.0208 11.2 10.8V5.20005C11.2 4.97925 11.0208 4.80005 10.8 4.80005H5.20005C4.97925 4.80005 4.80005 4.97925 4.80005 5.20005V10.8C4.80005 11.0208 4.97925 11.2 5.20005 11.2Z" fill="white"/>
</g>
<defs>
<linearGradient id="paint0_linear_850_21697" x1="-6.62613" y1="38.6261" x2="38.6261" y2="-6.62613" gradientUnits="userSpaceOnUse">
<stop stop-color="#B0084D"/>
<stop offset="1" stop-color="#FF4F8B"/>
</linearGradient>
<clipPath id="clip0_850_21697">
<rect width="32" height="32" fill="white"/>
</clipPath>
</defs>
</svg>
