<svg width="32" height="32" viewBox="0 0 32 32" fill="none" xmlns="http://www.w3.org/2000/svg">
<g clip-path="url(#clip0_849_21241)">
<path d="M32 0H0V32H32V0Z" fill="url(#paint0_linear_849_21241)"/>
<path d="M9.2544 9.38662C10.3868 8.25631 11.7873 7.43156 13.325 6.98947C14.8627 6.54737 16.4874 6.50236 18.0472 6.85865C19.607 7.21493 21.051 7.96088 22.2443 9.02676C23.4375 10.0926 24.341 11.4437 24.8704 12.9536L25.6768 12.672C24.9706 10.6523 23.654 8.90211 21.9092 7.66379C20.1644 6.42547 18.0777 5.76025 15.9381 5.76025C13.7986 5.76025 11.7119 6.42547 9.96709 7.66379C8.22228 8.90211 6.90564 10.6523 6.19946 12.672L7.00586 12.9536C7.47299 11.6084 8.2422 10.3882 9.2544 9.38662V9.38662Z" fill="white"/>
<path d="M22.6132 22.6132C20.838 24.386 18.4318 25.3817 15.923 25.3817C13.4143 25.3817 11.0081 24.386 9.23291 22.6132C8.21932 21.6028 7.45021 20.374 6.98438 19.0207L6.17798 19.3023C6.75139 20.9526 7.73451 22.4303 9.03515 23.5967C10.3358 24.7632 11.9113 25.5802 13.6141 25.9713C15.3169 26.3623 17.091 26.3145 18.7703 25.8324C20.4495 25.3503 21.9788 24.4496 23.2148 23.2148C24.3302 22.1071 25.1742 20.7563 25.6809 19.2682L24.8745 18.9951C24.4085 20.3588 23.6347 21.5968 22.6132 22.6132V22.6132Z" fill="white"/>
<path d="M8.59723 15.9829C8.59812 15.4062 8.39898 14.8471 8.03375 14.4009C7.66852 13.9546 7.15982 13.6489 6.59437 13.5357C6.02893 13.4226 5.44174 13.5091 4.93293 13.7804C4.42412 14.0518 4.02518 14.4913 3.80412 15.0239C3.58307 15.5565 3.55358 16.1492 3.7207 16.7011C3.88781 17.2531 4.24118 17.7299 4.72056 18.0504C5.19993 18.3709 5.77563 18.5153 6.34951 18.4588C6.9234 18.4023 7.45993 18.1486 7.86763 17.7408C8.09963 17.5107 8.2836 17.2368 8.40885 16.935C8.5341 16.6333 8.59813 16.3096 8.59723 15.9829V15.9829ZM7.25323 17.1392C6.94168 17.4348 6.52858 17.5996 6.0991 17.5996C5.66963 17.5996 5.25652 17.4348 4.94497 17.1392C4.71784 16.9106 4.56332 16.6201 4.50084 16.304C4.43836 15.988 4.47071 15.6605 4.59382 15.3627C4.71693 15.065 4.9253 14.8103 5.19275 14.6306C5.4602 14.451 5.77478 14.3544 6.09697 14.353C6.53024 14.354 6.94568 14.5257 7.25323 14.8309C7.55885 15.1372 7.73049 15.5523 7.73049 15.985C7.73049 16.4177 7.55885 16.8328 7.25323 17.1392V17.1392Z" fill="white"/>
<path d="M27.6479 14.2549C27.3007 13.9076 26.8582 13.6711 26.3765 13.5752C25.8948 13.4794 25.3955 13.5285 24.9417 13.7164C24.4879 13.9044 24.1001 14.2227 23.8272 14.631C23.5543 15.0394 23.4087 15.5195 23.4087 16.0107C23.4087 16.5018 23.5543 16.9819 23.8272 17.3903C24.1001 17.7987 24.4879 18.1169 24.9417 18.3049C25.3955 18.4928 25.8948 18.542 26.3765 18.4461C26.8582 18.3503 27.3007 18.1137 27.6479 17.7664C28.1135 17.3007 28.3751 16.6692 28.3751 16.0107C28.3751 15.3522 28.1135 14.7206 27.6479 14.2549V14.2549ZM27.0421 17.1605C26.7364 17.4659 26.3221 17.6374 25.8901 17.6374C25.458 17.6374 25.0437 17.4659 24.7381 17.1605C24.5864 17.0095 24.466 16.83 24.3838 16.6323C24.3017 16.4346 24.2594 16.2226 24.2594 16.0085C24.2594 15.7945 24.3017 15.5825 24.3838 15.3848C24.466 15.1871 24.5864 15.0076 24.7381 14.8565C24.8877 14.6979 25.0676 14.571 25.2672 14.4831C25.4667 14.3953 25.6819 14.3484 25.8999 14.3452C26.1179 14.3421 26.3343 14.3827 26.5364 14.4646C26.7384 14.5466 26.922 14.6683 27.0762 14.8224C27.2303 14.9766 27.352 15.1602 27.434 15.3622C27.5159 15.5642 27.5565 15.7807 27.5534 15.9987C27.5502 16.2167 27.5033 16.4319 27.4155 16.6314C27.3276 16.831 27.2007 17.0109 27.0421 17.1605V17.1605Z" fill="white"/>
<path d="M12.45 20.1301C14.1994 18.3807 17.762 18.3807 19.5114 20.1301C19.5908 20.2089 19.6981 20.2533 19.81 20.2538C19.9232 20.2538 20.0317 20.2088 20.1117 20.1288C20.1918 20.0488 20.2367 19.9403 20.2367 19.8271C20.237 19.771 20.2263 19.7153 20.205 19.6633C20.1838 19.6113 20.1525 19.5641 20.113 19.5242C19.2419 18.5603 18.7825 17.2939 18.833 15.9957C18.783 14.6975 19.2423 13.4313 20.113 12.4671C20.1924 12.3872 20.237 12.279 20.237 12.1663C20.237 12.0536 20.1924 11.9455 20.113 11.8655C20.033 11.7861 19.9249 11.7415 19.8122 11.7415C19.6995 11.7415 19.5913 11.7861 19.5114 11.8655C17.762 13.6106 14.1994 13.6106 12.45 11.8655C12.3701 11.7861 12.262 11.7415 12.1492 11.7415C12.0365 11.7415 11.9284 11.7861 11.8484 11.8655C11.769 11.9455 11.7244 12.0536 11.7244 12.1663C11.7244 12.279 11.769 12.3872 11.8484 12.4671C12.7268 13.428 13.1939 14.6946 13.1498 15.9957C13.1944 17.2968 12.7272 18.5636 11.8484 19.5242C11.8089 19.5641 11.7776 19.6113 11.7564 19.6633C11.7351 19.7153 11.7244 19.771 11.7247 19.8271C11.7244 19.8833 11.7351 19.9389 11.7564 19.9909C11.7776 20.0429 11.8089 20.0902 11.8484 20.1301C11.9284 20.2095 12.0365 20.2541 12.1492 20.2541C12.262 20.2541 12.3701 20.2095 12.45 20.1301V20.1301ZM13.5551 13.5765C15.1146 14.1867 16.8468 14.1867 18.4063 13.5765C17.8089 15.1354 17.8089 16.8602 18.4063 18.4191C16.8468 17.8088 15.1146 17.8088 13.5551 18.4191C14.1525 16.8602 14.1525 15.1354 13.5551 13.5765V13.5765Z" fill="white"/>
<path d="M21.1754 17.745L22.6133 16.2901C22.6927 16.2101 22.7373 16.102 22.7373 15.9893C22.7373 15.8765 22.6927 15.7684 22.6133 15.6885L21.1669 14.2421L20.561 14.8437L21.2906 15.569H19.3621V16.4223H21.2906L20.5695 17.1434L21.1754 17.745Z" fill="white"/>
<path d="M10.8629 17.7535L12.3178 16.2986C12.3973 16.2187 12.4419 16.1105 12.4419 15.9978C12.4419 15.8851 12.3973 15.7769 12.3178 15.697L10.8629 14.2421L10.2613 14.8437L10.9866 15.569H9.12207V16.4223H10.9866L10.2613 17.1519L10.8629 17.7535Z" fill="white"/>
</g>
<defs>
<linearGradient id="paint0_linear_849_21241" x1="-7.748" y1="37.3814" x2="39.7485" y2="-5.38442" gradientUnits="userSpaceOnUse">
<stop stop-color="#B0084D"/>
<stop offset="1" stop-color="#FF4F8B"/>
</linearGradient>
<clipPath id="clip0_849_21241">
<rect width="32" height="32" fill="white"/>
</clipPath>
</defs>
</svg>
