<svg width="32" height="32" viewBox="0 0 32 32" fill="none" xmlns="http://www.w3.org/2000/svg">
<g clip-path="url(#clip0_850_21729)">
<path d="M32 0H0V32H32V0Z" fill="url(#paint0_linear_850_21729)"/>
<path fill-rule="evenodd" clip-rule="evenodd" d="M23.4344 7.19995H16.512L10.4872 17.3288L10.0744 15.7856L9.30085 15.9928L9.91685 18.2888L9.86725 18.372L9.95205 18.4224L10.0632 18.8376L10.468 18.7288L10.5544 18.7808L10.6072 18.692L12.908 18.0752L12.7016 17.3024L11.1928 17.7064L16.9664 7.99995H22.972L25.9752 13.2L22.972 18.4H19.8432V19.2H23.4344L26.8984 13.2L23.4344 7.19995ZM20.888 14.704L15.1928 24.8H8.26405L4.80005 18.8L8.26405 12.8H11.0432V13.6H8.72645L5.72325 18.8L8.72645 24H14.7256L20.2064 14.284L18.6648 14.6976L18.4584 13.9248L20.756 13.3088L20.8024 13.2272L20.8856 13.2744L21.3032 13.1624L21.4136 13.5712L21.4992 13.62L21.4496 13.708L22.0664 16.0072L21.2928 16.2144L20.888 14.704Z" fill="white"/>
</g>
<defs>
<linearGradient id="paint0_linear_850_21729" x1="-6.62613" y1="38.6261" x2="38.6261" y2="-6.62613" gradientUnits="userSpaceOnUse">
<stop stop-color="#B0084D"/>
<stop offset="1" stop-color="#FF4F8B"/>
</linearGradient>
<clipPath id="clip0_850_21729">
<rect width="32" height="32" fill="white"/>
</clipPath>
</defs>
</svg>
