<svg width="32" height="32" viewBox="0 0 32 32" fill="none" xmlns="http://www.w3.org/2000/svg">
<g clip-path="url(#clip0_850_21703)">
<path d="M32 0H0V32H32V0Z" fill="url(#paint0_linear_850_21703)"/>
<path fill-rule="evenodd" clip-rule="evenodd" d="M15.2 22.4001H16.8V21.6001H15.2V22.4001ZM11.2 5.80975L5.60005 8.24174V24.2857L11.2 26.2369V5.80975ZM12 10.4001V21.6001H13.6V22.4001H12V26.8001C12 26.9297 11.9376 27.0513 11.832 27.1264C11.7632 27.1744 11.6824 27.2 11.6 27.2C11.5552 27.2 11.5112 27.1928 11.4688 27.1776L5.06885 24.9481C4.90805 24.8921 4.80005 24.7409 4.80005 24.5705V7.97934C4.80005 7.82014 4.89445 7.67614 5.04085 7.61294L11.4408 4.83376C11.564 4.78016 11.7072 4.79216 11.8192 4.86576C11.932 4.93935 12 5.06575 12 5.20015V9.60013H13.6V10.4001H12ZM26.4 8.24174L20.8 5.80975V9.60013V10.4001V21.6001V22.4001V26.2369L26.4 24.2857V8.24174ZM27.2 7.97934V24.5705C27.2 24.7409 27.092 24.8921 26.9312 24.9481L20.5312 27.1776C20.4888 27.1928 20.4448 27.2 20.4 27.2C20.3176 27.2 20.2368 27.1744 20.168 27.1264C20.0624 27.0513 20 26.9297 20 26.8V22.4001H18.4V21.6001H20V10.4001H18.4V9.60013H20V5.20015C20 5.06575 20.068 4.93935 20.1808 4.86576C20.2936 4.79136 20.4368 4.77936 20.5592 4.83376L26.9592 7.61294C27.1056 7.67614 27.2 7.82014 27.2 7.97934ZM15.2 10.4001H16.8V9.60013H15.2V10.4001ZM19.18 12.5265L18.42 12.2737L16.02 19.4737L16.78 19.7265L19.18 12.5265ZM15.3168 18.2833L12.9168 15.8833C12.7608 15.7265 12.7608 15.4737 12.9168 15.3169L15.3168 12.9169L15.8832 13.4833L13.7656 15.6001L15.8832 17.7169L15.3168 18.2833Z" fill="white"/>
</g>
<defs>
<linearGradient id="paint0_linear_850_21703" x1="-6.62613" y1="38.6261" x2="38.6261" y2="-6.62613" gradientUnits="userSpaceOnUse">
<stop stop-color="#B0084D"/>
<stop offset="1" stop-color="#FF4F8B"/>
</linearGradient>
<clipPath id="clip0_850_21703">
<rect width="32" height="32" fill="white"/>
</clipPath>
</defs>
</svg>
