<svg width="32" height="32" viewBox="0 0 32 32" fill="none" xmlns="http://www.w3.org/2000/svg">
<g clip-path="url(#clip0_850_21709)">
<path d="M32 0H0V32H32V0Z" fill="url(#paint0_linear_850_21709)"/>
<path fill-rule="evenodd" clip-rule="evenodd" d="M8.8445 22.8751C7.9277 22.8751 7.1813 22.123 7.1813 21.1984C7.1813 20.2746 7.9277 19.5225 8.8445 19.5225C9.7613 19.5225 10.5085 20.2746 10.5085 21.1984C10.5085 22.123 9.7613 22.8751 8.8445 22.8751ZM10.3301 23.1653C10.9213 22.7115 11.3085 22.0029 11.3085 21.1984C11.3085 19.8296 10.2029 18.7164 8.8445 18.7164C8.5093 18.7164 8.1909 18.7849 7.8997 18.9074L6.4613 16.3972L8.3509 13.0993L7.6589 12.6963L5.6541 16.1956C5.5821 16.3206 5.5821 16.4737 5.6541 16.5987L7.2261 19.3427C6.7125 19.7974 6.3813 20.4568 6.3813 21.1984C6.3813 22.568 7.4861 23.6813 8.8445 23.6813C9.1181 23.6813 9.3765 23.6256 9.6229 23.5426L10.8485 25.8175C10.9189 25.9473 11.0533 26.0279 11.1997 26.0279H15.5997V25.2218H11.4381L10.3301 23.1653ZM23.9557 13.2484C23.0381 13.2484 22.2917 12.4963 22.2917 11.5717C22.2917 10.6479 23.0381 9.89499 23.9557 9.89499C24.8725 9.89499 25.6189 10.6479 25.6189 11.5717C25.6189 12.4963 24.8725 13.2484 23.9557 13.2484ZM25.5741 13.4282C26.0877 12.9728 26.4189 12.3133 26.4189 11.5717C26.4189 10.2029 25.3141 9.08886 23.9557 9.08886C23.6829 9.08886 23.4253 9.14449 23.1797 9.22752L21.9533 6.89541C21.8845 6.76321 21.7485 6.68098 21.5997 6.68098H17.1997V7.4871H21.3597L22.4717 9.60236C21.8805 10.0562 21.4917 10.7664 21.4917 11.5717C21.4917 12.9405 22.5965 14.0546 23.9557 14.0546C24.2909 14.0546 24.6093 13.9852 24.8997 13.8627L26.3381 16.3738L24.4493 19.6708L25.1413 20.0739L27.1461 16.5753C27.2181 16.4504 27.2181 16.2964 27.1461 16.1722L25.5741 13.4282ZM21.9157 26.3939C20.9981 26.3939 20.2517 25.6417 20.2517 24.7179C20.2517 23.7933 20.9981 23.0412 21.9157 23.0412C22.8325 23.0412 23.5789 23.7933 23.5789 24.7179C23.5789 25.6417 22.8325 26.3939 21.9157 26.3939ZM14.5637 19.6007L12.7293 16.3996L14.5637 13.1993H18.2309L20.0661 16.3996L18.2309 19.6007H14.5637ZM10.9093 9.75875C9.9925 9.75875 9.2461 9.00664 9.2461 8.08202C9.2461 7.15821 9.9925 6.4061 10.9093 6.4061C11.8269 6.4061 12.5733 7.15821 12.5733 8.08202C12.5733 9.00664 11.8269 9.75875 10.9093 9.75875ZM21.9157 22.2351C21.4157 22.2351 20.9517 22.3882 20.5621 22.647L18.9069 20.0336L20.8741 16.6011C20.9461 16.477 20.9461 16.323 20.8741 16.198L18.8085 12.5947C18.7373 12.4697 18.6053 12.3932 18.4621 12.3932H14.6605L12.8381 9.60801C13.1677 9.18641 13.3733 8.66001 13.3733 8.08202C13.3733 6.71323 12.2677 5.59998 10.9093 5.59998C9.5509 5.59998 8.4461 6.71323 8.4461 8.08202C8.4461 9.45162 9.5509 10.5649 10.9093 10.5649C11.4013 10.5649 11.8589 10.4149 12.2437 10.1634L13.9157 12.718L11.9221 16.198C11.8501 16.323 11.8501 16.477 11.9221 16.6011L13.9869 20.2053C14.0581 20.3302 14.1901 20.4068 14.3325 20.4068H18.1949L19.9701 23.2113C19.6501 23.6305 19.4517 24.1488 19.4517 24.7179C19.4517 26.0859 20.5573 27.2 21.9157 27.2C23.2741 27.2 24.3789 26.0859 24.3789 24.7179C24.3789 23.3483 23.2741 22.2351 21.9157 22.2351Z" fill="white"/>
</g>
<defs>
<linearGradient id="paint0_linear_850_21709" x1="-6.62613" y1="38.6261" x2="38.6261" y2="-6.62613" gradientUnits="userSpaceOnUse">
<stop stop-color="#B0084D"/>
<stop offset="1" stop-color="#FF4F8B"/>
</linearGradient>
<clipPath id="clip0_850_21709">
<rect width="32" height="32" fill="white"/>
</clipPath>
</defs>
</svg>
