<svg width="32" height="32" viewBox="0 0 32 32" fill="none" xmlns="http://www.w3.org/2000/svg">
<g clip-path="url(#clip0_849_21242)">
<path d="M32 0H0V32H32V0Z" fill="url(#paint0_linear_849_21242)"/>
<path d="M16.047 25.6982C14.4204 25.6975 12.8205 25.2851 11.3963 24.4992L11.823 23.7526C13.5314 24.6876 15.5011 25.0314 17.4252 24.7305C19.3494 24.4296 21.12 23.5009 22.4614 22.0889C23.8028 20.6769 24.6396 18.861 24.8415 16.924C25.0434 14.9869 24.599 13.0375 23.5777 11.3792L23.151 13.5126L22.2977 13.3462L22.9164 10.24C22.938 10.1292 23.0027 10.0315 23.0963 9.96837C23.1899 9.90519 23.3047 9.88167 23.4156 9.90297L26.5473 10.5216L26.3809 11.375L24.2902 10.9483C25.1873 12.4157 25.6778 14.0954 25.7114 15.815C25.7449 17.5346 25.3204 19.2321 24.4814 20.7335C23.6423 22.2348 22.4189 23.4859 20.9367 24.3584C19.4545 25.2308 17.7669 25.6933 16.047 25.6982V25.6982ZM8.65288 21.9776C8.61745 21.9818 8.58165 21.9818 8.54622 21.9776L5.45288 21.2011L5.66195 20.3734L7.65021 20.8726C6.58379 19.045 6.14551 16.9183 6.40244 14.818C6.65937 12.7176 7.59735 10.7593 9.07287 9.24266C10.5484 7.726 12.4802 6.73454 14.5727 6.41997C16.6651 6.1054 18.8031 6.48505 20.6593 7.50083L20.2326 8.2475C18.5307 7.32641 16.5733 6.99008 14.6616 7.29023C12.7498 7.59039 10.9897 8.51042 9.65198 9.90875C8.31426 11.3071 7.47307 13.1062 7.25786 15.0294C7.04265 16.9525 7.46534 18.8931 8.46088 20.5526L9.01555 18.3467L9.84328 18.5515L9.06675 21.6448C9.04553 21.7389 8.99307 21.823 8.91791 21.8835C8.84275 21.9439 8.74933 21.9771 8.65288 21.9776ZM19.422 20.1387C19.0438 20.1384 18.6765 20.0126 18.3776 19.7809C18.0787 19.5492 17.8653 19.2248 17.7708 18.8587H14.2508C14.171 19.1676 14.0062 19.448 13.7751 19.6681C13.544 19.8881 13.2559 20.0389 12.9434 20.1034C12.6309 20.168 12.3066 20.1436 12.0073 20.0331C11.7079 19.9226 11.4456 19.7304 11.25 19.4783C11.0543 19.2262 10.9333 18.9244 10.9006 18.607C10.8679 18.2896 10.9248 17.9694 11.0649 17.6827C11.205 17.396 11.4227 17.1544 11.6932 16.9851C11.9637 16.8159 12.2762 16.7259 12.5953 16.7254C12.7508 16.7252 12.9057 16.7453 13.0561 16.7851L14.8395 13.696C14.5915 13.4612 14.4197 13.1574 14.3462 12.8239C14.2727 12.4904 14.301 12.1425 14.4273 11.8252C14.5537 11.5079 14.7724 11.2358 15.055 11.0442C15.3377 10.8525 15.6714 10.75 16.0129 10.75C16.3544 10.75 16.6881 10.8525 16.9707 11.0442C17.2534 11.2358 17.4721 11.5079 17.5984 11.8252C17.7248 12.1425 17.7531 12.4904 17.6796 12.8239C17.6061 13.1574 17.4342 13.4612 17.1862 13.696L18.9697 16.7851C19.1173 16.7459 19.2693 16.7258 19.422 16.7254C19.8746 16.7254 20.3087 16.9052 20.6287 17.2252C20.9488 17.5453 21.1286 17.9794 21.1286 18.432C21.1286 18.8847 20.9488 19.3188 20.6287 19.6388C20.3087 19.9589 19.8746 20.1387 19.422 20.1387ZM19.422 17.5787C19.2532 17.5787 19.0882 17.6287 18.9479 17.7225C18.8075 17.8163 18.6982 17.9496 18.6336 18.1055C18.569 18.2614 18.5521 18.433 18.585 18.5985C18.6179 18.764 18.6992 18.9161 18.8186 19.0354C18.9379 19.1548 19.0899 19.236 19.2555 19.269C19.421 19.3019 19.5926 19.285 19.7485 19.2204C19.9044 19.1558 20.0377 19.0465 20.1315 18.9061C20.2252 18.7658 20.2753 18.6008 20.2753 18.432C20.2753 18.2057 20.1854 17.9887 20.0253 17.8286C19.8653 17.6686 19.6483 17.5787 19.422 17.5787ZM12.5953 17.5787C12.4265 17.5787 12.2615 17.6287 12.1212 17.7225C11.9809 17.8163 11.8715 17.9496 11.8069 18.1055C11.7423 18.2614 11.7254 18.433 11.7583 18.5985C11.7913 18.764 11.8725 18.9161 11.9919 19.0354C12.1112 19.1548 12.2633 19.236 12.4288 19.269C12.5943 19.3019 12.7659 19.285 12.9218 19.2204C13.0778 19.1558 13.211 19.0465 13.3048 18.9061C13.3986 18.7658 13.4486 18.6008 13.4486 18.432C13.4486 18.32 13.4265 18.209 13.3837 18.1055C13.3408 18.0019 13.2779 17.9079 13.1987 17.8286C13.1194 17.7494 13.0254 17.6865 12.9218 17.6437C12.8183 17.6008 12.7073 17.5787 12.5953 17.5787V17.5787ZM14.2508 18.0054H17.7708C17.8483 17.7022 18.0077 17.4262 18.2315 17.2075L16.4395 14.1056C16.1597 14.1779 15.8661 14.1779 15.5862 14.1056L13.7985 17.2118C14.0192 17.4315 14.1756 17.7074 14.2508 18.0096V18.0054ZM16.0086 11.6054C15.8398 11.6054 15.6749 11.6554 15.5345 11.7492C15.3942 11.8429 15.2848 11.9762 15.2202 12.1321C15.1557 12.2881 15.1388 12.4596 15.1717 12.6252C15.2046 12.7907 15.2859 12.9428 15.4052 13.0621C15.5246 13.1814 15.6766 13.2627 15.8421 13.2956C16.0077 13.3286 16.1792 13.3117 16.3352 13.2471C16.4911 13.1825 16.6244 13.0731 16.7181 12.9328C16.8119 12.7925 16.862 12.6275 16.862 12.4587C16.862 12.2324 16.772 12.0153 16.612 11.8553C16.452 11.6953 16.2349 11.6054 16.0086 11.6054Z" fill="white"/>
</g>
<defs>
<linearGradient id="paint0_linear_849_21242" x1="-6.62613" y1="38.6261" x2="38.6261" y2="-6.62613" gradientUnits="userSpaceOnUse">
<stop stop-color="#B0084D"/>
<stop offset="1" stop-color="#FF4F8B"/>
</linearGradient>
<clipPath id="clip0_849_21242">
<rect width="32" height="32" fill="white"/>
</clipPath>
</defs>
</svg>
