<svg width="32" height="32" viewBox="0 0 32 32" fill="none" xmlns="http://www.w3.org/2000/svg">
<g clip-path="url(#clip0_849_21243)">
<path d="M32 0H0V32H32V0Z" fill="url(#paint0_linear_849_21243)"/>
<path d="M22.8266 13.44V10.88C22.8266 10.7668 22.7816 10.6583 22.7016 10.5783C22.6216 10.4983 22.5131 10.4533 22.3999 10.4533H16.4266V9.55731C16.9446 9.45157 17.4049 9.15727 17.7182 8.73145C18.0315 8.30564 18.1756 7.77865 18.1224 7.25265C18.0693 6.72666 17.8228 6.23913 17.4306 5.88459C17.0384 5.53004 16.5286 5.33374 15.9999 5.33374C15.4712 5.33374 14.9614 5.53004 14.5692 5.88459C14.1771 6.23913 13.9305 6.72666 13.8774 7.25265C13.8243 7.77865 13.9683 8.30564 14.2816 8.73145C14.595 9.15727 15.0553 9.45157 15.5733 9.55731V10.4533H9.59992C9.48676 10.4533 9.37823 10.4983 9.29822 10.5783C9.2182 10.6583 9.17325 10.7668 9.17325 10.88V12.5866H5.75992C5.64676 12.5866 5.53824 12.6316 5.45822 12.7116C5.3782 12.7916 5.33325 12.9001 5.33325 13.0133V15.1466C5.33325 15.2598 5.3782 15.3683 5.45822 15.4483C5.53824 15.5284 5.64676 15.5733 5.75992 15.5733H9.17325V16.4266H5.75992C5.64676 16.4266 5.53824 16.4716 5.45822 16.5516C5.3782 16.6316 5.33325 16.7401 5.33325 16.8533V18.9866C5.33325 19.0998 5.3782 19.2083 5.45822 19.2883C5.53824 19.3684 5.64676 19.4133 5.75992 19.4133H9.17325V21.12C9.17325 21.2331 9.2182 21.3417 9.29822 21.4217C9.37823 21.5017 9.48676 21.5466 9.59992 21.5466H15.5733V22.4426C15.0553 22.5484 14.595 22.8427 14.2816 23.2685C13.9683 23.6943 13.8243 24.2213 13.8774 24.7473C13.9305 25.2733 14.1771 25.7608 14.5692 26.1154C14.9614 26.4699 15.4712 26.6662 15.9999 26.6662C16.5286 26.6662 17.0384 26.4699 17.4306 26.1154C17.8228 25.7608 18.0693 25.2733 18.1224 24.7473C18.1756 24.2213 18.0315 23.6943 17.7182 23.2685C17.4049 22.8427 16.9446 22.5484 16.4266 22.4426V21.5466H22.3999C22.5131 21.5466 22.6216 21.5017 22.7016 21.4217C22.7816 21.3417 22.8266 21.2331 22.8266 21.12V18.9866H21.9733V20.6933H10.0266V19.4133H13.4399C13.5531 19.4133 13.6616 19.3684 13.7416 19.2883C13.8216 19.2083 13.8666 19.0998 13.8666 18.9866V16.8533C13.8666 16.7401 13.8216 16.6316 13.7416 16.5516C13.6616 16.4716 13.5531 16.4266 13.4399 16.4266H10.0266V15.5733H13.4399C13.5531 15.5733 13.6616 15.5284 13.7416 15.4483C13.8216 15.3683 13.8666 15.2598 13.8666 15.1466V13.0133C13.8666 12.9001 13.8216 12.7916 13.7416 12.7116C13.6616 12.6316 13.5531 12.5866 13.4399 12.5866H10.0266V11.3066H21.9733V13.44H22.8266ZM17.2799 24.5333C17.2799 24.7865 17.2048 25.0339 17.0642 25.2444C16.9235 25.4549 16.7236 25.619 16.4898 25.7159C16.2559 25.8128 15.9985 25.8381 15.7502 25.7887C15.5019 25.7393 15.2738 25.6174 15.0948 25.4384C14.9158 25.2594 14.7939 25.0313 14.7445 24.783C14.6951 24.5347 14.7205 24.2774 14.8174 24.0435C14.9142 23.8096 15.0783 23.6097 15.2888 23.469C15.4993 23.3284 15.7468 23.2533 15.9999 23.2533C16.3394 23.2533 16.665 23.3882 16.905 23.6282C17.1451 23.8683 17.2799 24.1938 17.2799 24.5333V24.5333ZM13.0133 17.28V18.56H6.18659V17.28H13.0133ZM13.0133 13.44V14.72H6.18659V13.44H13.0133ZM14.7199 7.46664C14.7199 7.21348 14.795 6.966 14.9356 6.75551C15.0763 6.54501 15.2762 6.38095 15.5101 6.28407C15.744 6.18719 16.0013 6.16184 16.2496 6.21123C16.4979 6.26062 16.726 6.38253 16.905 6.56154C17.084 6.74055 17.2059 6.96863 17.2553 7.21692C17.3047 7.46522 17.2794 7.72258 17.1825 7.95647C17.0856 8.19036 16.9215 8.39027 16.711 8.53092C16.5006 8.67157 16.2531 8.74664 15.9999 8.74664C15.6604 8.74664 15.3349 8.61178 15.0948 8.37174C14.8548 8.13169 14.7199 7.80612 14.7199 7.46664Z" fill="white"/>
<path d="M26.24 14.2933H17.7067C17.5935 14.2933 17.485 14.3383 17.405 14.4183C17.325 14.4983 17.28 14.6068 17.28 14.72V17.7067C17.28 17.8198 17.325 17.9284 17.405 18.0084C17.485 18.0884 17.5935 18.1333 17.7067 18.1333H26.24C26.3532 18.1333 26.4617 18.0884 26.5417 18.0084C26.6217 17.9284 26.6667 17.8198 26.6667 17.7067V14.72C26.6667 14.6068 26.6217 14.4983 26.5417 14.4183C26.4617 14.3383 26.3532 14.2933 26.24 14.2933ZM25.8134 17.28H18.1334V15.1467H25.8134V17.28Z" fill="white"/>
</g>
<defs>
<linearGradient id="paint0_linear_849_21243" x1="-6.62613" y1="38.6261" x2="38.6261" y2="-6.62613" gradientUnits="userSpaceOnUse">
<stop stop-color="#B0084D"/>
<stop offset="1" stop-color="#FF4F8B"/>
</linearGradient>
<clipPath id="clip0_849_21243">
<rect width="32" height="32" fill="white"/>
</clipPath>
</defs>
</svg>
