<svg width="32" height="32" viewBox="0 0 32 32" fill="none" xmlns="http://www.w3.org/2000/svg">
<g clip-path="url(#clip0_850_21740)">
<path d="M32 0H0V32H32V0Z" fill="url(#paint0_linear_850_21740)"/>
<path fill-rule="evenodd" clip-rule="evenodd" d="M4.80005 17.6H14.4V16.8H4.80005V17.6ZM8.80005 15.2H15.2V14.4H8.80005V15.2ZM17.9392 15.8008C18.1376 15.7528 18.268 15.564 18.2424 15.3616C18.2352 15.304 18.2312 15.2448 18.2312 15.184C18.2312 14.6608 18.6312 14.0752 19.1224 13.8792C19.3544 13.7856 19.5688 13.7496 19.7624 13.7496C20.3136 13.7496 20.7016 14.0464 20.8712 14.2064C21.0568 14.3832 21.2032 14.6096 21.304 14.8816C21.3544 15.0168 21.4752 15.1144 21.6176 15.136C21.7608 15.1576 21.9048 15.1016 21.9936 14.9872C22.1008 14.8504 22.272 14.792 22.4336 14.8424C22.6304 14.9024 22.7552 15.1064 22.7784 15.3256C22.744 15.5432 22.892 15.748 23.1096 15.7832C23.4456 15.8376 24.0096 16.0288 24.0096 16.6944C24.0096 17.4808 23.2568 17.588 23.1392 17.6H18.2016C17.6744 17.6 17.2256 17.2136 17.2 16.6832C17.2 16.1008 17.6016 15.8816 17.9392 15.8008ZM18.2008 18.4H23.1696C23.7368 18.356 24.8096 17.9432 24.8096 16.6944C24.8096 15.7664 24.1936 15.2584 23.5328 15.0608C23.4184 14.5704 23.1088 14.212 22.6664 14.0776C22.3824 13.9904 22.0848 14.0136 21.8264 14.1296C21.712 13.9416 21.5768 13.7728 21.4208 13.6256C20.7112 12.9528 19.74 12.7696 18.8256 13.136C18.0496 13.4464 17.4584 14.2944 17.432 15.1256C16.78 15.396 16.4 15.9584 16.4 16.6832L16.4032 16.7864C16.4488 17.6872 17.2384 18.3992 18.2008 18.4ZM18.4 7.20005H19.2V6.40005H18.4V7.20005ZM20 7.20005H23.2V6.40005H20V7.20005ZM25.2 26.4H16.4C15.8168 26.4 15.2 25.7832 15.2 25.2V24H26.4V25.2C26.4 25.7832 25.7832 26.4 25.2 26.4ZM15.2 8.00005V6.80005C15.2 6.21685 15.8168 5.60005 16.4 5.60005H25.2C25.7832 5.60005 26.4 6.21685 26.4 6.80005V8.00005H15.2ZM25.2 4.80005H16.4C15.372 4.80005 14.4 5.77205 14.4 6.80005V13.6H15.2V8.80005H26.4V23.2H15.2V18.4H14.4V25.2C14.4 26.228 15.372 27.2 16.4 27.2H25.2C26.228 27.2 27.2 26.228 27.2 25.2V6.80005C27.2 5.77205 26.228 4.80005 25.2 4.80005Z" fill="white"/>
</g>
<defs>
<linearGradient id="paint0_linear_850_21740" x1="-6.62613" y1="38.6261" x2="38.6261" y2="-6.62613" gradientUnits="userSpaceOnUse">
<stop stop-color="#B0084D"/>
<stop offset="1" stop-color="#FF4F8B"/>
</linearGradient>
<clipPath id="clip0_850_21740">
<rect width="32" height="32" fill="white"/>
</clipPath>
</defs>
</svg>
