<svg width="32" height="32" viewBox="0 0 32 32" fill="none" xmlns="http://www.w3.org/2000/svg">
<g clip-path="url(#clip0_850_21724)">
<path d="M32 0H0V32H32V0Z" fill="url(#paint0_linear_850_21724)"/>
<path fill-rule="evenodd" clip-rule="evenodd" d="M25.4791 17.6H17.5071L18.3647 14.4H26.3367L25.4791 17.6ZM26.8583 13.6H18.0583C17.8767 13.6 17.7183 13.7216 17.6711 13.8968L16.5991 17.8968C16.5671 18.0168 16.5935 18.1448 16.6687 18.2432C16.7447 18.3424 16.8623 18.4 16.9863 18.4H25.7863C25.9671 18.4 26.1263 18.2784 26.1727 18.1032L27.2447 14.1032C27.2767 13.9832 27.2511 13.8552 27.1751 13.7568C27.0991 13.6576 26.9823 13.6 26.8583 13.6ZM17.1223 25.2C17.1223 25.8616 16.5839 26.4 15.9223 26.4C15.2607 26.4 14.7223 25.8616 14.7223 25.2C14.7223 24.5384 15.2607 24 15.9223 24C16.5839 24 17.1223 24.5384 17.1223 25.2ZM4.92149 19.2L5.35109 17.6H12.5231L12.0935 19.2H4.92149ZM4.92149 14.4L5.35109 12.8H8.32229H9.12229H12.5231L12.0935 14.4H4.92149ZM14.7223 6.80005C14.7223 6.13845 15.2607 5.60005 15.9223 5.60005C16.5839 5.60005 17.1223 6.13845 17.1223 6.80005C17.1223 7.46165 16.5839 8.00005 15.9223 8.00005C15.2607 8.00005 14.7223 7.46165 14.7223 6.80005ZM21.9223 21.6H9.12229V20H12.3999C12.5815 20 12.7391 19.8784 12.7871 19.7032L13.4303 17.3032C13.4623 17.1832 13.4367 17.0552 13.3615 16.9568C13.2855 16.8576 13.1679 16.8 13.0439 16.8H9.12229V15.2H12.3999C12.5815 15.2 12.7391 15.0784 12.7871 14.9032L13.4303 12.5032C13.4623 12.3832 13.4367 12.2552 13.3615 12.1568C13.2855 12.0576 13.1679 12 13.0439 12H9.12229V10.4H21.9223V12H22.7223V10C22.7223 9.77925 22.5431 9.60005 22.3223 9.60005H16.3223V8.75925C17.2335 8.57365 17.9223 7.76565 17.9223 6.80005C17.9223 5.69765 17.0255 4.80005 15.9223 4.80005C14.8191 4.80005 13.9223 5.69765 13.9223 6.80005C13.9223 7.76565 14.6103 8.57365 15.5223 8.75925V9.60005H8.72229C8.50069 9.60005 8.32229 9.77925 8.32229 10V12H5.04389C4.86229 12 4.70469 12.1216 4.65749 12.2968L4.01349 14.6968C3.98149 14.8168 4.00709 14.9448 4.08309 15.0432C4.15909 15.1424 4.27589 15.2 4.39989 15.2H8.32229V16.8H5.04389C4.86229 16.8 4.70469 16.9216 4.65749 17.0968L4.01349 19.4968C3.98149 19.6168 4.00709 19.7448 4.08309 19.8432C4.15909 19.9424 4.27589 20 4.39989 20H8.32229V22C8.32229 22.2208 8.50069 22.4 8.72229 22.4H15.5223V23.2408C14.6103 23.4264 13.9223 24.2344 13.9223 25.2C13.9223 26.3024 14.8191 27.2 15.9223 27.2C17.0255 27.2 17.9223 26.3024 17.9223 25.2C17.9223 24.2344 17.2335 23.4264 16.3223 23.2408V22.4H22.3223C22.5431 22.4 22.7223 22.2208 22.7223 22V20H21.9223V21.6Z" fill="white"/>
</g>
<defs>
<linearGradient id="paint0_linear_850_21724" x1="-6.62613" y1="38.6261" x2="38.6261" y2="-6.62613" gradientUnits="userSpaceOnUse">
<stop stop-color="#B0084D"/>
<stop offset="1" stop-color="#FF4F8B"/>
</linearGradient>
<clipPath id="clip0_850_21724">
<rect width="32" height="32" fill="white"/>
</clipPath>
</defs>
</svg>
