<svg width="32" height="32" viewBox="0 0 32 32" fill="none" xmlns="http://www.w3.org/2000/svg">
<g clip-path="url(#clip0_855_10742)">
<path d="M31.6444 28.6951L26.4391 23.488C28.5802 20.9809 29.684 17.7513 29.5251 14.4581C29.3662 11.165 27.9567 8.0566 25.5842 5.76725C23.2117 3.47791 20.055 2.18017 16.7583 2.13887C13.4616 2.09757 10.2734 3.31582 7.84423 5.54501C5.4151 7.7742 3.92816 10.8463 3.68684 14.1344C3.44552 17.4225 4.46801 20.6788 6.54565 23.2388C8.6233 25.7987 11.5995 27.4694 14.8669 27.9098C18.1343 28.3503 21.4466 27.5273 24.128 25.6089L29.4275 30.9084C29.7022 31.1824 30.0743 31.3363 30.4622 31.3363C30.8501 31.3363 31.2222 31.1824 31.4969 30.9084L31.6391 30.7644C31.7755 30.629 31.8839 30.4681 31.9581 30.2907C32.0322 30.1133 32.0706 29.9231 32.0711 29.7309C32.0716 29.5387 32.0342 29.3482 31.961 29.1705C31.8877 28.9927 31.7802 28.8312 31.6444 28.6951Z" fill="url(#paint0_linear_855_10742)"/>
<path d="M16.6364 25.2533C22.1986 25.2533 26.7076 20.7443 26.7076 15.1822C26.7076 9.6201 22.1986 5.11111 16.6364 5.11111C11.0743 5.11111 6.56534 9.6201 6.56534 15.1822C6.56534 20.7443 11.0743 25.2533 16.6364 25.2533Z" fill="white"/>
<path d="M21.6693 16.032L18.7716 22.752L15.8542 14.0942L13.2675 19.0222L10.2649 13.9449H5.76355C5.8473 13.3753 5.97933 12.8139 6.15822 12.2667H11.2267L13.1822 15.5698L16.192 9.824L18.9653 18.0498L20.5351 13.8418H22.3876L24.6258 17.9093H26.288C26.1584 18.4847 25.98 19.0479 25.7547 19.5929H23.6284L21.6693 16.032Z" fill="#50E6FF"/>
<path d="M24.0871 12.7289H20.2187C20.0793 11.4253 19.5958 10.1823 18.8178 9.12711C17.6913 7.6329 16.0472 6.61338 14.208 6.26844V2.33066C14.208 2.04612 14.095 1.77322 13.8937 1.57202C13.6925 1.37081 13.4197 1.25777 13.1351 1.25777C12.8506 1.25777 12.5777 1.37081 12.3765 1.57202C12.1752 1.77322 12.0622 2.04612 12.0622 2.33066V6.18844C10.3733 6.34913 8.79149 7.08754 7.58377 8.27907C6.37605 9.47059 5.61635 11.0423 5.43288 12.7289H1.14488C0.860332 12.7289 0.587439 12.8419 0.386233 13.0431C0.185027 13.2443 0.071991 13.5172 0.071991 13.8018C0.071991 14.0863 0.185027 14.3592 0.386233 14.5604C0.587439 14.7616 0.860332 14.8747 1.14488 14.8747H5.5111C5.69613 16.0333 6.15642 17.1307 6.85332 18.0747C8.04298 19.6496 9.80513 20.6926 11.7582 20.9778V24.9529C11.7582 25.2374 11.8712 25.5103 12.0725 25.7115C12.2737 25.9127 12.5466 26.0258 12.8311 26.0258C13.1157 26.0258 13.3885 25.9127 13.5897 25.7115C13.791 25.5103 13.904 25.2374 13.904 24.9529V20.9778C15.4625 20.7582 16.9105 20.0476 18.0377 18.9492C19.1649 17.8508 19.9127 16.4216 20.1724 14.8693H24.0835C24.3681 14.8693 24.641 14.7563 24.8422 14.5551C25.0434 14.3539 25.1564 14.081 25.1564 13.7964C25.1564 13.5119 25.0434 13.239 24.8422 13.0378C24.641 12.8366 24.3681 12.7236 24.0835 12.7236L24.0871 12.7289ZM16.1298 18.0124C15.2567 18.665 14.2098 19.0441 13.1213 19.1016C12.0328 19.1592 10.9517 18.8927 10.0147 18.3359C9.07768 17.779 8.32684 16.9568 7.85711 15.9732C7.38739 14.9896 7.21988 13.8888 7.37577 12.81C7.53165 11.7312 8.00394 10.7229 8.7329 9.91253C9.46186 9.10216 10.4148 8.52615 11.4711 8.25733C12.5274 7.98852 13.6397 8.03898 14.6674 8.40233C15.695 8.76569 16.5918 9.42562 17.2444 10.2987C17.6819 10.8768 18.0002 11.5359 18.181 12.2379C18.3619 12.9399 18.4016 13.6708 18.2979 14.3883C18.1943 15.1058 17.9492 15.7956 17.5771 16.4177C17.2049 17.0398 16.7129 17.5818 16.1298 18.0124Z" fill="#FAA21D"/>
</g>
<defs>
<linearGradient id="paint0_linear_855_10742" x1="17.9271" y1="2.32711" x2="17.9271" y2="31.3369" gradientUnits="userSpaceOnUse">
<stop stop-color="#5EA0EF"/>
<stop offset="1" stop-color="#0078D4"/>
</linearGradient>
<clipPath id="clip0_855_10742">
<rect width="32" height="32" fill="white"/>
</clipPath>
</defs>
</svg>
