<svg width="32" height="32" viewBox="0 0 32 32" fill="none" xmlns="http://www.w3.org/2000/svg">
<g clip-path="url(#clip0_855_10747)">
<path d="M31.3938 27.232H15.8524C15.3529 27.232 15.0631 26.4427 15.3369 26.0231L20.6898 18.2204C20.7678 18.1188 20.8075 17.9929 20.8018 17.8649V12.7093C20.7983 12.6292 20.7651 12.5532 20.7085 12.4963C20.6519 12.4394 20.5761 12.4057 20.496 12.4018H20.2062C20.0439 12.4018 19.8881 12.3374 19.7732 12.2228C19.6582 12.1081 19.5934 11.9526 19.5929 11.7902V11.5129C19.5934 11.3505 19.6582 11.195 19.7732 11.0803C19.8881 10.9657 20.0439 10.9013 20.2062 10.9013H27.0222C27.1844 10.9013 27.34 10.9658 27.4547 11.0805C27.5694 11.1951 27.6338 11.3507 27.6338 11.5129V11.7884C27.6338 11.9506 27.5694 12.1062 27.4547 12.2209C27.34 12.3356 27.1844 12.4 27.0222 12.4H26.7324C26.692 12.3998 26.6519 12.4076 26.6145 12.4229C26.5771 12.4383 26.5431 12.461 26.5144 12.4896C26.4858 12.5182 26.4632 12.5522 26.4478 12.5896C26.4325 12.627 26.4247 12.6671 26.4249 12.7076V17.8809C26.4227 18.0087 26.4627 18.1337 26.5387 18.2364L31.8898 26.0231C32.1778 26.4267 31.8773 27.232 31.3938 27.232Z" fill="url(#paint0_linear_855_10747)"/>
<path d="M17.6427 25.136L21.7049 19.2C21.8945 18.9598 22.0072 18.668 22.0284 18.3627V15.9787C22.0284 15.8547 22.0777 15.7357 22.1654 15.6481C22.2531 15.5604 22.372 15.5111 22.496 15.5111H24.8071C24.9311 15.5111 25.05 15.5604 25.1377 15.6481C25.2254 15.7357 25.2747 15.8547 25.2747 15.9787V18.5262C25.2746 18.7284 25.3367 18.9258 25.4524 19.0916L29.6124 25.136C29.6454 25.1905 29.6639 25.2525 29.6661 25.3161C29.6683 25.3797 29.6542 25.4428 29.6252 25.4995C29.5962 25.5561 29.5531 25.6044 29.5002 25.6397C29.4472 25.6751 29.3861 25.6963 29.3227 25.7013H18.0462C17.9717 25.7332 17.8885 25.7386 17.8104 25.7167C17.7324 25.6949 17.6642 25.647 17.6171 25.581C17.57 25.515 17.5468 25.4349 17.5515 25.354C17.5561 25.273 17.5883 25.1961 17.6427 25.136Z" fill="#552F99"/>
<path d="M20.8409 29.3049H0.801794C0.156461 29.3049 -0.216873 28.2862 0.136905 27.7458L7.03824 17.6853C7.13787 17.5536 7.18933 17.3917 7.18402 17.2267V10.576C7.17925 10.4724 7.13595 10.3743 7.06261 10.301C6.98927 10.2276 6.89118 10.1843 6.78757 10.1796H6.41424C6.20489 10.1796 6.00412 10.0964 5.8561 9.94836C5.70807 9.80033 5.62491 9.59956 5.62491 9.39022V9.03466C5.62491 8.82532 5.70807 8.62455 5.8561 8.47652C6.00412 8.32849 6.20489 8.24533 6.41424 8.24533H15.2071C15.3112 8.24486 15.4144 8.26499 15.5107 8.30456C15.607 8.34413 15.6945 8.40236 15.7682 8.47589C15.8419 8.54942 15.9003 8.6368 15.9401 8.73301C15.9799 8.82921 16.0003 8.93234 16 9.03644V9.392C16 9.4958 15.9795 9.59859 15.9398 9.69447C15.9 9.79036 15.8417 9.87745 15.7682 9.95077C15.6947 10.0241 15.6075 10.0822 15.5115 10.1218C15.4155 10.1613 15.3127 10.1816 15.2089 10.1813H14.8356C14.7836 10.1813 14.7321 10.1916 14.6841 10.2115C14.6361 10.2315 14.5925 10.2607 14.5559 10.2976C14.5192 10.3344 14.4902 10.3781 14.4704 10.4262C14.4507 10.4743 14.4407 10.5258 14.4409 10.5778V17.2444C14.4378 17.4084 14.4884 17.5688 14.5849 17.7013L21.488 27.7422C21.8382 28.2667 21.4649 29.3049 20.8409 29.3049Z" fill="url(#paint1_linear_855_10747)"/>
<path d="M3.10936 26.6027L8.34669 18.9582C8.59132 18.6482 8.73635 18.2714 8.76269 17.8773V14.7947C8.76269 14.6348 8.82619 14.4815 8.93921 14.3685C9.05223 14.2555 9.20552 14.192 9.36536 14.192H12.3591C12.519 14.192 12.6723 14.2555 12.7853 14.3685C12.8983 14.4815 12.9618 14.6348 12.9618 14.7947V18.08C12.9619 18.3401 13.042 18.594 13.1911 18.8071L18.5547 26.6027C18.6211 26.7106 18.642 26.8406 18.6126 26.9639C18.5833 27.0873 18.5062 27.1939 18.3982 27.2604C18.3322 27.3012 18.2571 27.325 18.1796 27.3298H3.62847C3.53256 27.3713 3.42531 27.3787 3.32462 27.3507C3.22393 27.3227 3.13588 27.261 3.07515 27.1759C3.01443 27.0909 2.9847 26.9876 2.99092 26.8833C2.99715 26.7789 3.03895 26.6799 3.10936 26.6027Z" fill="url(#paint2_linear_855_10747)"/>
<path d="M9.65154 9.18933C10.492 9.18933 11.1733 8.50801 11.1733 7.66755C11.1733 6.8271 10.492 6.14577 9.65154 6.14577C8.81108 6.14577 8.12976 6.8271 8.12976 7.66755C8.12976 8.50801 8.81108 9.18933 9.65154 9.18933Z" fill="#0078D4"/>
<path d="M12.7947 4.79289C13.374 4.79289 13.8436 4.32329 13.8436 3.744C13.8436 3.16472 13.374 2.69511 12.7947 2.69511C12.2154 2.69511 11.7458 3.16472 11.7458 3.744C11.7458 4.32329 12.2154 4.79289 12.7947 4.79289Z" fill="#0078D4"/>
<path d="M12.0107 12.5813C12.59 12.5813 13.0596 12.1117 13.0596 11.5324C13.0596 10.9532 12.59 10.4836 12.0107 10.4836C11.4314 10.4836 10.9618 10.9532 10.9618 11.5324C10.9618 12.1117 11.4314 12.5813 12.0107 12.5813Z" fill="#0078D4"/>
</g>
<defs>
<linearGradient id="paint0_linear_855_10747" x1="23.4382" y1="9.96445" x2="23.6356" y2="28.2844" gradientUnits="userSpaceOnUse">
<stop stop-color="#A67AF4"/>
<stop offset="1" stop-color="#773ADC"/>
</linearGradient>
<linearGradient id="paint1_linear_855_10747" x1="10.5956" y1="8.33066" x2="10.912" y2="37.6142" gradientUnits="userSpaceOnUse">
<stop stop-color="#32D4F5"/>
<stop offset="1" stop-color="#198AB3"/>
</linearGradient>
<linearGradient id="paint2_linear_855_10747" x1="10.8142" y1="26.2916" x2="11.0276" y2="6.48533" gradientUnits="userSpaceOnUse">
<stop stop-color="#0078D4"/>
<stop offset="1" stop-color="#5EA0EF"/>
</linearGradient>
<clipPath id="clip0_855_10747">
<rect width="32" height="32" fill="white"/>
</clipPath>
</defs>
</svg>
