<svg width="32" height="32" viewBox="0 0 32 32" fill="none" xmlns="http://www.w3.org/2000/svg">
<g clip-path="url(#clip0_855_10750)">
<path d="M13.9484 16.2347L19.8897 4.53333C19.9424 4.42997 20.0224 4.34303 20.1211 4.28196C20.2197 4.22088 20.3332 4.18801 20.4492 4.18691C20.5652 4.18581 20.6793 4.21653 20.779 4.27572C20.8788 4.33492 20.9604 4.42033 21.0151 4.52266L26.9422 15.7067C27.3655 16.391 27.5719 17.1873 27.5342 17.9911C27.5342 20.4018 24.3591 22.3556 20.4426 22.3556C16.5262 22.3556 13.3511 20.4018 13.3511 17.9911C13.36 17.3573 13.5691 16.7425 13.9484 16.2347Z" fill="url(#paint0_linear_855_10750)"/>
<path d="M18.752 14.448V22.8764L11.4667 27.1111V18.6702L18.752 14.448Z" fill="#50E6FF"/>
<path d="M11.4667 18.6809V27.1111L4.18134 22.8764V14.4462L11.4667 18.6809Z" fill="#9CEBFF"/>
<path d="M18.752 14.448L11.4684 18.6809L4.18134 14.4462L11.4684 10.2116L18.752 14.448Z" fill="#C3F1FF"/>
<path d="M19.0009 14.5902L19.248 14.448L19.0009 14.304V14.0125L18.752 14.1582L11.4667 9.92178L4.17777 14.1565L3.92888 14.0107V14.3022L3.67999 14.4462L3.92888 14.5902V23.0205L11.2178 27.2551V27.5556L11.4684 27.4098L11.7173 27.5556V27.264L19.0062 23.0293L19.0009 14.5902ZM11.4667 10.4996L18.2524 14.4462L11.4578 18.3858L9.77777 17.4062L4.6791 14.4462L11.4667 10.4996ZM4.43199 22.7324V14.8818L11.216 18.8249V26.6756L4.43199 22.7324ZM11.7209 26.6756V18.8249L18.5067 14.8818V22.7324L11.7209 26.6756Z" fill="#32BEDD"/>
<path d="M1.06666 8.72534C0.9325 8.72557 0.799614 8.69935 0.675603 8.64817C0.551591 8.59699 0.438889 8.52186 0.343943 8.42708C0.248998 8.3323 0.173673 8.21973 0.12228 8.09581C0.0708868 7.97189 0.0444334 7.83905 0.0444336 7.70489V1.02045C0.0444334 0.88629 0.0708868 0.75345 0.12228 0.629528C0.173673 0.505606 0.248998 0.393034 0.343943 0.298254C0.438889 0.203473 0.551591 0.128345 0.675603 0.0771674C0.799614 0.0259899 0.9325 -0.000232173 1.06666 1.54873e-06H7.32443C7.58793 0.0109975 7.83699 0.12341 8.01955 0.313744C8.2021 0.504078 8.30404 0.757604 8.30404 1.02134C8.30404 1.28507 8.2021 1.53859 8.01955 1.72893C7.83699 1.91926 7.58793 2.03167 7.32443 2.04267H2.09066V7.70489C2.09066 7.8392 2.06414 7.97218 2.01264 8.09622C1.96114 8.22026 1.88565 8.33291 1.79052 8.42771C1.69538 8.52252 1.58247 8.59761 1.45825 8.64868C1.33404 8.69975 1.20096 8.7258 1.06666 8.72534Z" fill="#50E6FF"/>
<path d="M30.9333 8.72534C30.7993 8.72534 30.6666 8.69894 30.5428 8.64766C30.419 8.59638 30.3065 8.52121 30.2118 8.42645C30.117 8.3317 30.0418 8.2192 29.9906 8.0954C29.9393 7.97159 29.9129 7.8389 29.9129 7.70489V2.04267H24.672C24.4085 2.03167 24.1594 1.91926 23.9769 1.72893C23.7943 1.53859 23.6924 1.28507 23.6924 1.02134C23.6924 0.757604 23.7943 0.504078 23.9769 0.313744C24.1594 0.12341 24.4085 0.0109975 24.672 1.54873e-06H30.9333C31.0675 -0.000232173 31.2004 0.0259899 31.3244 0.0771674C31.4484 0.128345 31.5611 0.203473 31.656 0.298254C31.751 0.393034 31.8263 0.505606 31.8777 0.629528C31.9291 0.75345 31.9555 0.88629 31.9555 1.02045V7.70489C31.9555 7.83905 31.9291 7.97189 31.8777 8.09581C31.8263 8.21973 31.751 8.3323 31.656 8.42708C31.5611 8.52186 31.4484 8.59699 31.3244 8.64817C31.2004 8.69935 31.0675 8.72557 30.9333 8.72534Z" fill="#50E6FF"/>
<path d="M7.32799 32H1.06666C0.9325 32.0002 0.799614 31.974 0.675603 31.9228C0.551591 31.8717 0.438889 31.7965 0.343943 31.7018C0.248998 31.607 0.173673 31.4944 0.12228 31.3705C0.0708868 31.2466 0.0444334 31.1137 0.0444336 30.9796V24.2951C0.0554296 24.0316 0.167842 23.7826 0.358176 23.6C0.54851 23.4174 0.802036 23.3155 1.06577 23.3155C1.3295 23.3155 1.58302 23.4174 1.77336 23.6C1.96369 23.7826 2.0761 24.0316 2.0871 24.2951V29.9573H7.32799C7.59149 29.9683 7.84055 30.0807 8.0231 30.2711C8.20566 30.4614 8.30759 30.7149 8.30759 30.9787C8.30759 31.2424 8.20566 31.4959 8.0231 31.6863C7.84055 31.8766 7.59149 31.989 7.32799 32Z" fill="#50E6FF"/>
<path d="M30.9333 32H24.6755C24.412 31.989 24.163 31.8766 23.9804 31.6863C23.7979 31.4959 23.6959 31.2424 23.6959 30.9787C23.6959 30.7149 23.7979 30.4614 23.9804 30.2711C24.163 30.0807 24.412 29.9683 24.6755 29.9573H29.9129V24.2951C29.9239 24.0316 30.0363 23.7826 30.2266 23.6C30.4169 23.4174 30.6705 23.3155 30.9342 23.3155C31.1979 23.3155 31.4515 23.4174 31.6418 23.6C31.8321 23.7826 31.9445 24.0316 31.9555 24.2951V30.9796C31.9555 31.1137 31.9291 31.2466 31.8777 31.3705C31.8263 31.4944 31.751 31.607 31.656 31.7018C31.5611 31.7965 31.4484 31.8717 31.3244 31.9228C31.2003 31.974 31.0675 32.0002 30.9333 32Z" fill="#50E6FF"/>
<path d="M5.07554 14.4925C5.0759 14.6568 5.02746 14.8176 4.93637 14.9544C4.84528 15.0912 4.71563 15.1979 4.56386 15.2609C4.41208 15.324 4.245 15.3406 4.08379 15.3086C3.92258 15.2766 3.77448 15.1975 3.65827 15.0813C3.54205 14.9651 3.46295 14.817 3.43097 14.6558C3.39899 14.4945 3.41558 14.3275 3.47864 14.1757C3.5417 14.0239 3.64838 13.8943 3.78519 13.8032C3.92199 13.7121 4.08275 13.6637 4.2471 13.664C4.46667 13.6645 4.67712 13.7519 4.83238 13.9072C4.98764 14.0624 5.07508 14.2729 5.07554 14.4925ZM11.4667 9.42223C11.3028 9.42223 11.1426 9.47082 11.0064 9.56185C10.8702 9.65288 10.764 9.78226 10.7013 9.93364C10.6386 10.085 10.6222 10.2516 10.6541 10.4123C10.6861 10.573 10.765 10.7206 10.8809 10.8365C10.9967 10.9523 11.1443 11.0312 11.305 11.0632C11.4657 11.0952 11.6323 11.0788 11.7837 11.0161C11.9351 10.9534 12.0645 10.8472 12.1555 10.7109C12.2465 10.5747 12.2951 10.4145 12.2951 10.2507C12.2953 10.1418 12.2741 10.034 12.2325 9.93336C12.191 9.83275 12.13 9.74133 12.053 9.66435C11.976 9.58738 11.8846 9.52636 11.784 9.48481C11.6833 9.44326 11.5755 9.42199 11.4667 9.42223ZM18.7395 13.664C18.5752 13.6637 18.4144 13.7121 18.2776 13.8032C18.1408 13.8943 18.0341 14.0239 17.9711 14.1757C17.908 14.3275 17.8914 14.4945 17.9234 14.6558C17.9554 14.817 18.0345 14.9651 18.1507 15.0813C18.2669 15.1975 18.415 15.2766 18.5762 15.3086C18.7374 15.3406 18.9045 15.324 19.0563 15.2609C19.2081 15.1979 19.3377 15.0912 19.4288 14.9544C19.5199 14.8176 19.5683 14.6568 19.568 14.4925C19.568 14.2727 19.4807 14.062 19.3253 13.9067C19.17 13.7513 18.9593 13.664 18.7395 13.664ZM11.4667 17.8524C11.3023 17.8521 11.1415 17.9005 11.0047 17.9916C10.8679 18.0827 10.7613 18.2124 10.6982 18.3641C10.6351 18.5159 10.6185 18.683 10.6505 18.8442C10.6825 19.0054 10.7616 19.1535 10.8778 19.2697C10.994 19.3859 11.1421 19.465 11.3033 19.497C11.4646 19.529 11.6316 19.5124 11.7834 19.4494C11.9352 19.3863 12.0648 19.2796 12.1559 19.1428C12.247 19.006 12.2955 18.8452 12.2951 18.6809C12.2951 18.4612 12.2078 18.2505 12.0525 18.0951C11.8971 17.9397 11.6864 17.8524 11.4667 17.8524ZM4.2471 22.1387C4.08282 22.1383 3.92213 22.1867 3.78537 22.2777C3.64861 22.3687 3.54192 22.4983 3.47881 22.6499C3.4157 22.8016 3.399 22.9686 3.43084 23.1298C3.46267 23.2909 3.5416 23.439 3.65764 23.5553C3.77368 23.6716 3.9216 23.7509 4.0827 23.783C4.24379 23.8152 4.41082 23.7989 4.56262 23.7361C4.71443 23.6733 4.8442 23.5669 4.9355 23.4303C5.02681 23.2938 5.07554 23.1332 5.07554 22.9689C5.07555 22.749 4.98832 22.5381 4.83301 22.3825C4.67769 22.2268 4.46698 22.1391 4.2471 22.1387ZM11.4667 26.2827C11.3028 26.2827 11.1426 26.3313 11.0064 26.4223C10.8702 26.5133 10.764 26.6427 10.7013 26.7941C10.6386 26.9455 10.6222 27.112 10.6541 27.2727C10.6861 27.4334 10.765 27.5811 10.8809 27.6969C10.9967 27.8128 11.1443 27.8917 11.305 27.9236C11.4657 27.9556 11.6323 27.9392 11.7837 27.8765C11.9351 27.8138 12.0645 27.7076 12.1555 27.5714C12.2465 27.4351 12.2951 27.275 12.2951 27.1111C12.2951 26.8914 12.2078 26.6807 12.0525 26.5253C11.8971 26.37 11.6864 26.2827 11.4667 26.2827ZM18.7395 22.1387C18.5753 22.1383 18.4146 22.1867 18.2778 22.2777C18.1411 22.3687 18.0344 22.4983 17.9713 22.6499C17.9081 22.8016 17.8914 22.9686 17.9233 23.1298C17.9551 23.2909 18.034 23.439 18.1501 23.5553C18.2661 23.6716 18.414 23.7509 18.5751 23.783C18.7362 23.8152 18.9033 23.7989 19.0551 23.7361C19.2069 23.6733 19.3366 23.5669 19.4279 23.4303C19.5193 23.2938 19.568 23.1332 19.568 22.9689C19.568 22.749 19.4808 22.5381 19.3255 22.3825C19.1701 22.2268 18.9594 22.1391 18.7395 22.1387Z" fill="#198AB3"/>
</g>
<defs>
<linearGradient id="paint0_linear_855_10750" x1="20.4426" y1="4.18667" x2="20.4426" y2="22.3556" gradientUnits="userSpaceOnUse">
<stop stop-color="#42E8CA"/>
<stop offset="1" stop-color="#37C2B1"/>
</linearGradient>
<clipPath id="clip0_855_10750">
<rect width="32" height="32" fill="white"/>
</clipPath>
</defs>
</svg>
