<svg width="32" height="32" viewBox="0 0 32 32" fill="none" xmlns="http://www.w3.org/2000/svg">
<g clip-path="url(#clip0_855_10738)">
<path d="M10.2845 25.3319C10.2845 25.3319 7.33334 24.028 10.7342 20.6219C13.8011 17.9836 17.3467 16.4122 21.0258 16.0606L24.1636 8.15955C19.6268 7.33449 15.0037 7.83965 10.64 9.63728C3.71734 12.7369 -3.19999 22.4473 1.60001 27.5027C3.04829 28.3139 4.65374 28.5407 6.2043 28.1531C7.75485 27.7655 9.17755 26.7818 10.2845 25.3319Z" fill="url(#paint0_radial_855_10738)"/>
<path d="M14.9333 17.8083V12.3045C14.9333 12.0163 15.0223 11.74 15.1807 11.5362C15.339 11.3324 15.5538 11.218 15.7778 11.218H16.3396C16.421 11.6924 16.6358 12.1115 16.9427 12.3947C17.2495 12.6779 17.6268 12.8054 18.0022 12.7527C18.3776 12.6999 18.7247 12.4707 18.9768 12.1089C19.2289 11.7472 19.3684 11.2784 19.3684 10.7925C19.3684 10.3066 19.2289 9.83777 18.9768 9.47602C18.7247 9.11426 18.3776 8.88503 18.0022 8.83229C17.6268 8.77956 17.2495 8.90703 16.9427 9.19026C16.6358 9.4735 16.421 9.89254 16.3396 10.367H15.7689C15.3697 10.3676 14.987 10.5719 14.7047 10.9352C14.4224 11.2984 14.2636 11.7908 14.2631 12.3045V15.7564H13.1965C13.115 15.2819 12.9002 14.8629 12.5934 14.5796C12.2865 14.2964 11.9092 14.1689 11.5338 14.2217C11.1584 14.2744 10.8113 14.5036 10.5592 14.8654C10.3071 15.2271 10.1677 15.6959 10.1677 16.1819C10.1677 16.6678 10.3071 17.1366 10.5592 17.4983C10.8113 17.8601 11.1584 18.0893 11.5338 18.142C11.9092 18.1948 12.2865 18.0673 12.5934 17.7841C12.9002 17.5008 13.115 17.0818 13.1965 16.6073H14.2631V18.1194C14.48 18.0119 14.7005 17.9089 14.9333 17.8083ZM17.8347 9.66931C18.0074 9.66886 18.1763 9.73435 18.3201 9.85749C18.4639 9.98063 18.576 10.1559 18.6424 10.3611C18.7087 10.5663 18.7263 10.7922 18.6928 11.0102C18.6593 11.2282 18.5763 11.4286 18.4543 11.5859C18.3323 11.7432 18.1768 11.8504 18.0074 11.8939C17.838 11.9374 17.6624 11.9153 17.5028 11.8304C17.3432 11.7454 17.2068 11.6015 17.1108 11.4167C17.0148 11.232 16.9636 11.0147 16.9636 10.7925C16.9635 10.497 17.054 10.2133 17.2154 10.0031C17.3768 9.79285 17.5961 9.67292 17.8258 9.66931H17.8347ZM11.7013 17.3027C11.5286 17.3027 11.3598 17.2368 11.2162 17.1133C11.0726 16.9898 10.9607 16.8142 10.8947 16.6089C10.8287 16.4035 10.8115 16.1775 10.8454 15.9596C10.8792 15.7417 10.9625 15.5415 11.0847 15.3846C11.207 15.2276 11.3627 15.1208 11.5321 15.0777C11.7016 15.0346 11.8771 15.0572 12.0366 15.1426C12.1961 15.2279 12.3323 15.3722 12.428 15.5572C12.5237 15.7422 12.5746 15.9596 12.5742 16.1819C12.5738 16.4793 12.4816 16.7644 12.3179 16.9746C12.1543 17.1847 11.9325 17.3027 11.7013 17.3027Z" fill="url(#paint1_radial_855_10738)"/>
<path d="M5.90934 18.7462H1.23379C1.09156 19.0298 0.963563 19.3135 0.844452 19.5971H5.90934C6.30855 19.5965 6.69128 19.3922 6.97357 19.029C7.25585 18.6657 7.41465 18.1733 7.41512 17.6596V17.1861C7.78434 17.0812 8.11046 16.8046 8.33091 16.4094C8.55137 16.0141 8.65062 15.528 8.60963 15.0443C8.56865 14.5607 8.3903 14.1136 8.10882 13.7887C7.82735 13.4639 7.46256 13.2842 7.08445 13.2842C6.70635 13.2842 6.34156 13.4639 6.06008 13.7887C5.7786 14.1136 5.60026 14.5607 5.55927 15.0443C5.51828 15.528 5.61754 16.0141 5.83799 16.4094C6.05844 16.8046 6.38457 17.0812 6.75379 17.1861V17.6573C6.75402 17.8002 6.73235 17.9417 6.69002 18.0738C6.64768 18.2059 6.58552 18.326 6.50708 18.4271C6.42865 18.5282 6.33548 18.6085 6.23291 18.6632C6.13034 18.718 6.02038 18.7462 5.90934 18.7462ZM6.21156 15.2646C6.21156 15.0424 6.26276 14.8253 6.35867 14.6406C6.45459 14.4559 6.59091 14.3119 6.75041 14.2269C6.90991 14.1419 7.08542 14.1196 7.25474 14.163C7.42407 14.2063 7.5796 14.3133 7.70168 14.4704C7.82375 14.6274 7.90689 14.8276 7.94057 15.0454C7.97425 15.2633 7.95696 15.4891 7.8909 15.6944C7.82483 15.8996 7.71295 16.075 7.5694 16.1984C7.42586 16.3219 7.25709 16.3877 7.08445 16.3877C6.85278 16.3871 6.63077 16.2683 6.46712 16.0573C6.30347 15.8463 6.21156 15.5604 6.21156 15.2623V15.2646Z" fill="url(#paint2_radial_855_10738)"/>
<path d="M9.10045 23.4607H7.6569C7.57541 22.9856 7.36044 22.566 7.05326 22.2823C6.74607 21.9987 6.3683 21.871 5.99242 21.9237C5.61654 21.9764 5.26904 22.2059 5.01659 22.5681C4.76413 22.9303 4.62451 23.3997 4.62451 23.8862C4.62451 24.3727 4.76413 24.8421 5.01659 25.2043C5.26904 25.5665 5.61654 25.7959 5.99242 25.8487C6.3683 25.9014 6.74607 25.7737 7.05326 25.4901C7.36044 25.2064 7.57541 24.7868 7.6569 24.3117H9.2569C9.13881 24.055 9.08424 23.7582 9.10045 23.4607ZM6.16001 25.0094C5.98737 25.0094 5.8186 24.9435 5.67506 24.8201C5.53151 24.6967 5.41963 24.5212 5.35357 24.316C5.2875 24.1108 5.27021 23.885 5.30389 23.6671C5.33757 23.4492 5.42071 23.2491 5.54278 23.092C5.66486 22.9349 5.82039 22.8279 5.98972 22.7846C6.15904 22.7413 6.33455 22.7635 6.49405 22.8485C6.65355 22.9335 6.78988 23.0775 6.88579 23.2622C6.9817 23.4469 7.0329 23.6641 7.0329 23.8862C7.0329 24.1841 6.94093 24.4698 6.77724 24.6804C6.61354 24.891 6.39151 25.0094 6.16001 25.0094Z" fill="url(#paint3_radial_855_10738)"/>
<path d="M1.60001 27.5028C12.7413 36.2182 23.5502 33.3679 31.8062 9.16606C31.9359 8.78217 32.0019 8.36768 32 7.9491V0.757166C32 0.556749 31.9383 0.364506 31.8283 0.222576C31.7183 0.0806449 31.5691 0.00060549 31.4133 0H26.0569C25.8185 0.0141234 25.5881 0.115168 25.3927 0.291351C25.1972 0.467534 25.0447 0.711594 24.9529 0.995067C19.3885 21.2235 6.02312 30.0167 1.60001 27.5028Z" fill="url(#paint4_linear_855_10738)"/>
</g>
<defs>
<radialGradient id="paint0_radial_855_10738" cx="0" cy="0" r="1" gradientUnits="userSpaceOnUse" gradientTransform="translate(5.55137 6.07003) rotate(65.6806) scale(21.1014 25.6571)">
<stop stop-color="#9CEBFF"/>
<stop offset="0.667" stop-color="#50E6FF"/>
<stop offset="1" stop-color="#32BEDD"/>
</radialGradient>
<radialGradient id="paint1_radial_855_10738" cx="0" cy="0" r="1" gradientUnits="userSpaceOnUse" gradientTransform="translate(3.34579 4.80149) scale(32.7236 42.1062)">
<stop stop-color="#E7F9FF"/>
<stop offset="0.277" stop-color="#C3F1FF"/>
<stop offset="0.408" stop-color="#C1F1FF"/>
<stop offset="1" stop-color="#9CEBFF"/>
</radialGradient>
<radialGradient id="paint2_radial_855_10738" cx="0" cy="0" r="1" gradientUnits="userSpaceOnUse" gradientTransform="translate(3.34579 4.80149) scale(32.7236 42.1062)">
<stop stop-color="#E7F9FF"/>
<stop offset="0.277" stop-color="#C3F1FF"/>
<stop offset="0.408" stop-color="#C1F1FF"/>
<stop offset="1" stop-color="#9CEBFF"/>
</radialGradient>
<radialGradient id="paint3_radial_855_10738" cx="0" cy="0" r="1" gradientUnits="userSpaceOnUse" gradientTransform="translate(3.34579 4.80149) scale(32.7236 42.1062)">
<stop stop-color="#E7F9FF"/>
<stop offset="0.277" stop-color="#C3F1FF"/>
<stop offset="0.408" stop-color="#C1F1FF"/>
<stop offset="1" stop-color="#9CEBFF"/>
</radialGradient>
<linearGradient id="paint4_linear_855_10738" x1="26.9333" y1="5.94067" x2="0.977531" y2="28.557" gradientUnits="userSpaceOnUse">
<stop stop-color="#0078D4"/>
<stop offset="0.712" stop-color="#005BA1"/>
<stop offset="1" stop-color="#003067"/>
</linearGradient>
<clipPath id="clip0_855_10738">
<rect width="32" height="32" fill="white"/>
</clipPath>
</defs>
</svg>
