<svg width="32" height="32" viewBox="0 0 32 32" fill="none" xmlns="http://www.w3.org/2000/svg">
<path d="M19.3066 29.3156L17.7955 30.8978C17.7284 30.9663 17.6482 31.0205 17.5596 31.0571C17.471 31.0938 17.3759 31.1121 17.28 31.1111H14.72C14.5324 31.1084 14.3535 31.0318 14.2222 30.8978L12.7111 29.3156C12.6421 29.2451 12.5877 29.1618 12.5511 29.0702C12.5145 28.9787 12.4963 28.8808 12.4978 28.7822V25.0667H19.6089V28.7822C19.5991 28.8874 19.5671 28.9894 19.515 29.0813C19.4629 29.1733 19.3919 29.2531 19.3066 29.3156Z" fill="#A3A3A3"/>
<path d="M16 0.888886C14.5284 0.874734 13.0705 1.17309 11.7227 1.76422C10.3749 2.35536 9.16794 3.22582 8.18156 4.31806C7.19518 5.41031 6.45185 6.69946 6.0007 8.10032C5.54955 9.50119 5.40086 10.9818 5.56445 12.4444C6.04445 16.8 10.2045 18.8267 11.3778 24.3556C11.4185 24.5469 11.5238 24.7184 11.6759 24.8414C11.828 24.9643 12.0177 25.0313 12.2133 25.0311H19.7867C19.9823 25.0313 20.172 24.9643 20.3241 24.8414C20.4762 24.7184 20.5815 24.5469 20.6222 24.3556C21.7956 18.8267 25.9556 16.8 26.4356 12.4444C26.5992 10.9818 26.4505 9.50119 25.9993 8.10032C25.5482 6.69946 24.8048 5.41031 23.8185 4.31806C22.8321 3.22582 21.6251 2.35536 20.2773 1.76422C18.9295 1.17309 17.4717 0.874734 16 0.888886Z" fill="url(#paint0_radial_855_10748)"/>
<path d="M23.6978 4.58667L21.92 6.36444C21.8802 6.38974 21.8339 6.40317 21.7867 6.40317C21.7395 6.40317 21.6932 6.38974 21.6534 6.36444L19.36 5.6C19.2964 5.58601 19.23 5.59427 19.1717 5.62339C19.1135 5.65251 19.067 5.70073 19.04 5.76L18.8089 6.45333C18.7912 6.51702 18.7977 6.58502 18.8273 6.64415C18.8569 6.70327 18.9073 6.74931 18.9689 6.77333L21.3334 7.64444C21.3696 7.65875 21.4024 7.68033 21.43 7.70785C21.4575 7.73537 21.4791 7.76825 21.4934 7.80444L22.2934 10.2044C22.3174 10.266 22.3634 10.3165 22.4225 10.3461C22.4817 10.3756 22.5497 10.3822 22.6134 10.3644L23.3067 10.1333C23.366 10.1064 23.4142 10.0599 23.4433 10.0016C23.4724 9.9434 23.4807 9.87693 23.4667 9.81333L22.7022 7.52C22.677 7.48013 22.6635 7.43388 22.6635 7.38667C22.6635 7.33945 22.677 7.2932 22.7022 7.25333L24.48 5.47555C24.519 5.42791 24.5403 5.36823 24.5403 5.30667C24.5403 5.2451 24.519 5.18542 24.48 5.13778C24.3359 4.93461 24.1816 4.73881 24.0178 4.55111C23.9689 4.51817 23.9099 4.50366 23.8513 4.51017C23.7927 4.51669 23.7383 4.54379 23.6978 4.58667Z" fill="#F2F2F2"/>
<path d="M19.0222 20.96L18.9156 20.7467C18.8855 20.688 18.8441 20.6359 18.7938 20.5933C18.7435 20.5508 18.6852 20.5187 18.6224 20.4988C18.5595 20.479 18.4934 20.4718 18.4277 20.4777C18.3621 20.4837 18.2983 20.5026 18.24 20.5333L16.7644 21.3333V12.4444L18.8089 11.4311C18.8676 11.4011 18.9197 11.3597 18.9622 11.3094C19.0048 11.259 19.0369 11.2008 19.0567 11.1379C19.0766 11.0751 19.0837 11.0089 19.0778 10.9433C19.0719 10.8776 19.053 10.8138 19.0222 10.7556L18.9156 10.5422C18.8871 10.482 18.8469 10.4282 18.7973 10.3838C18.7476 10.3394 18.6896 10.3055 18.6266 10.2839C18.5636 10.2624 18.497 10.2537 18.4306 10.2583C18.3641 10.263 18.2994 10.281 18.24 10.3111L16.7644 11.0578V1.61778C16.7642 1.48305 16.8005 1.35077 16.8693 1.23497C16.9382 1.11917 17.0371 1.02415 17.1556 0.959998C16.3881 0.865161 15.6119 0.865161 14.8444 0.959998C14.9629 1.02415 15.0618 1.11917 15.1307 1.23497C15.1995 1.35077 15.2358 1.48305 15.2356 1.61778V11.0756L13.76 10.3289C13.7007 10.2987 13.6359 10.2808 13.5695 10.2761C13.503 10.2714 13.4364 10.2801 13.3734 10.3017C13.3104 10.3232 13.2524 10.3572 13.2027 10.4016C13.1531 10.4459 13.1129 10.4998 13.0844 10.56L12.9778 10.7733C12.947 10.8316 12.9281 10.8954 12.9222 10.9611C12.9163 11.0267 12.9234 11.0928 12.9433 11.1557C12.9631 11.2185 12.9952 11.2768 13.0378 11.3271C13.0803 11.3775 13.1325 11.4189 13.1911 11.4489L15.2356 12.4444V21.3333L13.76 20.5867C13.7017 20.5559 13.6379 20.537 13.5723 20.5311C13.5066 20.5251 13.4405 20.5323 13.3776 20.5522C13.3148 20.572 13.2565 20.6041 13.2062 20.6467C13.1559 20.6892 13.1145 20.7413 13.0844 20.8L12.9778 21.0133C12.947 21.0716 12.9281 21.1354 12.9222 21.2011C12.9163 21.2667 12.9234 21.3328 12.9433 21.3957C12.9631 21.4585 12.9952 21.5168 13.0378 21.5671C13.0803 21.6175 13.1325 21.6589 13.1911 21.6889L15.2356 22.7022V24.48C15.2375 24.613 15.204 24.744 15.1383 24.8597C15.0727 24.9753 14.9774 25.0713 14.8622 25.1378H17.1378C17.0226 25.0713 16.9273 24.9753 16.8617 24.8597C16.796 24.744 16.7625 24.613 16.7644 24.48V22.7022L18.8089 21.6889C18.8749 21.6595 18.9338 21.6161 18.9814 21.5617C19.0289 21.5073 19.0641 21.4432 19.0844 21.3739C19.1047 21.3045 19.1097 21.2315 19.0989 21.1601C19.0882 21.0886 19.062 21.0203 19.0222 20.96Z" fill="#F2F2F2"/>
<path d="M12.0711 5.76L10.1511 6.4C10.0617 6.42429 9.96752 6.42563 9.8774 6.40387C9.78729 6.38212 9.70411 6.33799 9.63558 6.27556L8.3378 4.97778C8.29109 4.92481 8.23364 4.88239 8.16927 4.85333C8.1049 4.82428 8.03509 4.80925 7.96447 4.80925C7.89385 4.80925 7.82403 4.82428 7.75966 4.85333C7.6953 4.88239 7.63785 4.92481 7.59113 4.97778L7.44891 5.15556C7.3723 5.24804 7.33038 5.36436 7.33038 5.48445C7.33038 5.60453 7.3723 5.72085 7.44891 5.81333L8.76447 7.11111C8.8366 7.18089 8.8868 7.27021 8.9089 7.3681C8.93101 7.466 8.92406 7.56822 8.88891 7.66222L8.24891 9.56445C8.22675 9.62742 8.21749 9.69421 8.22167 9.76083C8.22585 9.82746 8.24339 9.89257 8.27325 9.95228C8.3031 10.012 8.34466 10.0651 8.39546 10.1084C8.44625 10.1517 8.50524 10.1844 8.56891 10.2044H8.78225C8.90734 10.2453 9.04331 10.2367 9.1623 10.1805C9.28129 10.1243 9.37429 10.0248 9.42225 9.90222L10.0978 7.85778C10.1233 7.78362 10.1654 7.71624 10.2208 7.66079C10.2763 7.60534 10.3436 7.56327 10.4178 7.53778L12.4445 6.93333C12.5081 6.91328 12.5671 6.88062 12.6179 6.8373C12.6687 6.79397 12.7103 6.74088 12.7401 6.68117C12.77 6.62146 12.7875 6.55635 12.7917 6.48972C12.7959 6.4231 12.7866 6.35631 12.7645 6.29333V6.08C12.7455 6.00971 12.7112 5.94445 12.6643 5.88882C12.6173 5.83319 12.5587 5.78854 12.4926 5.75802C12.4264 5.72751 12.3544 5.71187 12.2816 5.71221C12.2088 5.71256 12.137 5.72887 12.0711 5.76Z" fill="url(#paint1_linear_855_10748)"/>
<path d="M22.3466 15.36L22.0978 12.6044L20.8711 12.7289L21.12 15.6089L18.9689 17.5467L19.8044 18.4711L21.9555 16.5333L24.2133 17.4044C24.4622 17.0489 24.6933 16.6933 24.9244 16.3378L22.3466 15.36Z" fill="#F2F2F2"/>
<path d="M12.6578 17.2089L11.0578 15.7867C10.9979 15.7344 10.9519 15.668 10.9239 15.5935C10.896 15.5191 10.887 15.4388 10.8978 15.36L11.0756 13.2267C11.0911 13.0999 11.0574 12.972 10.9813 12.8694C10.9052 12.7668 10.7925 12.6974 10.6667 12.6756H10.4C10.3332 12.6682 10.2656 12.6745 10.2013 12.694C10.1369 12.7135 10.0772 12.7458 10.0257 12.789C9.97423 12.8322 9.93202 12.8853 9.90162 12.9453C9.87123 13.0052 9.8533 13.0707 9.8489 13.1378L9.67112 15.0578C9.66595 15.1526 9.63279 15.2437 9.57583 15.3196C9.51887 15.3956 9.44067 15.4529 9.35112 15.4844L7.57334 16.1422C7.50074 16.1662 7.43493 16.2072 7.38138 16.2618C7.32783 16.3164 7.28809 16.383 7.26548 16.456C7.24287 16.5291 7.23804 16.6065 7.25139 16.6818C7.26474 16.7571 7.29589 16.8281 7.34223 16.8889L7.46668 17.0844C7.53313 17.1776 7.62777 17.2468 7.73661 17.282C7.84544 17.3173 7.96272 17.3165 8.07112 17.28L9.67112 16.6578C9.7577 16.621 9.85345 16.6115 9.94557 16.6305C10.0377 16.6496 10.1218 16.6963 10.1867 16.7644L11.7333 18.1511C11.7783 18.2007 11.8332 18.2404 11.8945 18.2675C11.9557 18.2946 12.0219 18.3087 12.0889 18.3087C12.1559 18.3087 12.2221 18.2946 12.2833 18.2675C12.3446 18.2404 12.3995 18.2007 12.4445 18.1511L12.6045 17.9733C12.6639 17.9307 12.7132 17.8754 12.7488 17.8115C12.7845 17.7476 12.8056 17.6766 12.8107 17.6036C12.8158 17.5306 12.8047 17.4574 12.7783 17.3892C12.7519 17.321 12.7107 17.2594 12.6578 17.2089Z" fill="#F2F2F2"/>
<path d="M19.5556 27.2178L12.4445 28.6755V28.7822C12.4431 28.8808 12.4612 28.9787 12.4978 29.0702C12.5344 29.1618 12.5888 29.2451 12.6578 29.3156L19.5556 27.9822V27.2178Z" fill="#E6E6E6"/>
<path d="M12.4622 27.68L19.52 26.2222V25.4578L12.4622 26.9156V27.68Z" fill="#E6E6E6"/>
<defs>
<radialGradient id="paint0_radial_855_10748" cx="0" cy="0" r="1" gradientUnits="userSpaceOnUse" gradientTransform="translate(15.9111 10.9867) scale(9.79556)">
<stop stop-color="#6BB9F2"/>
<stop offset="0.2" stop-color="#65B6F1"/>
<stop offset="0.45" stop-color="#55AEF0"/>
<stop offset="0.74" stop-color="#3AA2EE"/>
<stop offset="1" stop-color="#1B93EB"/>
</radialGradient>
<linearGradient id="paint1_linear_855_10748" x1="10.08" y1="-0.764444" x2="10.08" y2="22.2756" gradientUnits="userSpaceOnUse">
<stop stop-color="white"/>
<stop offset="1" stop-color="#CCCCCC"/>
</linearGradient>
</defs>
</svg>
