<svg width="32" height="32" viewBox="0 0 32 32" fill="none" xmlns="http://www.w3.org/2000/svg">
<path d="M7.19112 6.62578C7.23491 6.6232 7.27619 6.60453 7.30704 6.57336C7.33788 6.54218 7.35612 6.5007 7.35823 6.4569V5.45956C7.35815 5.4142 7.37541 5.37053 7.40648 5.33748C7.43755 5.30443 7.48007 5.28451 7.52535 5.28178H11.5289C11.5742 5.27906 11.6167 5.25914 11.6478 5.22609C11.6788 5.19304 11.6961 5.14936 11.696 5.10401V4.92623C11.6939 4.88242 11.6757 4.84094 11.6448 4.80977C11.614 4.77859 11.5727 4.75992 11.5289 4.75734H9.6889C9.64541 4.7548 9.60436 4.73638 9.57356 4.70557C9.54275 4.67477 9.52433 4.63372 9.52179 4.59023V4.09245C9.52171 4.04709 9.53897 4.00342 9.57003 3.97037C9.6011 3.93732 9.64362 3.91739 9.6889 3.91467H12.432C12.4773 3.91739 12.5198 3.93732 12.5509 3.97037C12.5819 4.00342 12.5992 4.04709 12.5991 4.09245V5.96445C12.5992 6.00981 12.5819 6.05348 12.5509 6.08653C12.5198 6.11958 12.4773 6.13951 12.432 6.14223H10.592C10.5482 6.14481 10.5069 6.16348 10.4761 6.19466C10.4453 6.22583 10.427 6.26731 10.4249 6.31112V7.80978C10.427 7.85359 10.4453 7.89507 10.4761 7.92624C10.5069 7.95742 10.5482 7.97609 10.592 7.97867H13.1449C13.1902 7.98139 13.2327 8.00132 13.2638 8.03437C13.2948 8.06742 13.3121 8.11109 13.312 8.15645V8.65956C13.3121 8.70492 13.2948 8.74859 13.2638 8.78164C13.2327 8.81469 13.1902 8.83462 13.1449 8.83734H8.97957C8.93429 8.83462 8.89177 8.81469 8.8607 8.78164C8.82963 8.74859 8.81237 8.70492 8.81246 8.65956V8.14223C8.81457 8.09842 8.83281 8.05694 8.86366 8.02577C8.8945 7.99459 8.93579 7.97592 8.97957 7.97334H9.35468C9.3774 7.97314 9.39985 7.96832 9.42064 7.95915C9.44143 7.94999 9.46014 7.93668 9.47561 7.92004C9.49109 7.9034 9.50301 7.88378 9.51064 7.86238C9.51828 7.84097 9.52146 7.81824 9.52001 7.79556V6.30578C9.52012 6.26071 9.50311 6.21728 9.47242 6.18428C9.44172 6.15128 9.39964 6.13116 9.35468 6.12801H8.43024C8.38496 6.13073 8.34243 6.15065 8.31137 6.1837C8.2803 6.21675 8.26304 6.26043 8.26312 6.30578V7.29956C8.26266 7.34357 8.24484 7.38562 8.21355 7.41658C8.18227 7.44754 8.14003 7.4649 8.09601 7.4649H5.36535C5.3215 7.4649 5.27944 7.44748 5.24844 7.41647C5.21743 7.38546 5.20001 7.34341 5.20001 7.29956V6.7929C5.1999 6.74782 5.21691 6.70439 5.24761 6.67139C5.2783 6.63839 5.32039 6.61827 5.36535 6.61512L7.19112 6.62578ZM17.9716 7.75112C17.9737 7.79492 17.9919 7.8364 18.0228 7.86758C18.0536 7.89875 18.0949 7.91743 18.1387 7.92001H21.9645C22.0082 7.91743 22.0495 7.89875 22.0804 7.86758C22.1112 7.8364 22.1295 7.79492 22.1316 7.75112V7.57334C22.1295 7.52953 22.1112 7.48806 22.0804 7.45688C22.0495 7.4257 22.0082 7.40703 21.9645 7.40445H20.8622C20.8179 7.40445 20.7754 7.38684 20.7441 7.3555C20.7127 7.32417 20.6951 7.28166 20.6951 7.23734V6.73601C20.6951 6.69169 20.7127 6.64918 20.7441 6.61784C20.7754 6.5865 20.8179 6.5689 20.8622 6.5689H22.8658C22.9101 6.5689 22.9526 6.5865 22.984 6.61784C23.0153 6.64918 23.0329 6.69169 23.0329 6.73601V8.58845C23.0308 8.63226 23.0126 8.67374 22.9817 8.70491C22.9509 8.73609 22.9096 8.75476 22.8658 8.75734H21.0382C20.9945 8.75992 20.9532 8.77859 20.9223 8.80977C20.8915 8.84094 20.8732 8.88242 20.8711 8.92623V9.08445C20.8732 9.12826 20.8915 9.16974 20.9223 9.20091C20.9532 9.23209 20.9945 9.25076 21.0382 9.25334H24.3005C24.3442 9.25592 24.3855 9.27459 24.4164 9.30577C24.4472 9.33694 24.4655 9.37842 24.4676 9.42223V11.7831C24.4697 11.8269 24.4879 11.8684 24.5188 11.8996C24.5496 11.9308 24.5909 11.9494 24.6347 11.952H26.1049C26.1484 11.9545 26.1894 11.973 26.2202 12.0038C26.2511 12.0346 26.2695 12.0756 26.272 12.1191V12.608C26.2721 12.6534 26.2548 12.697 26.2238 12.7301C26.1927 12.7631 26.1502 12.7831 26.1049 12.7858H23.7511C23.7062 12.7826 23.6641 12.7625 23.6334 12.7295C23.6027 12.6965 23.5857 12.6531 23.5858 12.608V10.2578C23.5837 10.214 23.5654 10.1725 23.5346 10.1413C23.5037 10.1101 23.4625 10.0915 23.4187 10.0889H20.1387C20.0949 10.0863 20.0536 10.0676 20.0228 10.0365C19.9919 10.0053 19.9737 9.96381 19.9716 9.92001V8.92978C19.9695 8.88598 19.9512 8.8445 19.9204 8.81332C19.8895 8.78215 19.8482 8.76348 19.8045 8.7609H19.5929C19.5491 8.76348 19.5078 8.78215 19.477 8.81332C19.4461 8.8445 19.4279 8.88598 19.4258 8.92978V9.92178C19.426 9.94373 19.4219 9.96551 19.4138 9.98587C19.4056 10.0062 19.3935 10.0248 19.3781 10.0405C19.3628 10.0562 19.3445 10.0687 19.3243 10.0773C19.3041 10.0859 19.2824 10.0904 19.2605 10.0907H18.6969C18.675 10.0904 18.6533 10.0859 18.6331 10.0773C18.6129 10.0687 18.5946 10.0562 18.5793 10.0405C18.5639 10.0248 18.5518 10.0062 18.5436 9.98587C18.5354 9.96551 18.5313 9.94373 18.5316 9.92178V8.92978C18.5295 8.88598 18.5112 8.8445 18.4804 8.81332C18.4495 8.78215 18.4082 8.76348 18.3645 8.7609H17.264C17.2202 8.75832 17.1789 8.73964 17.1481 8.70847C17.1173 8.67729 17.099 8.63581 17.0969 8.59201V7.58045C17.097 7.53509 17.0797 7.49142 17.0487 7.45837C17.0176 7.42532 16.9751 7.40539 16.9298 7.40267H16.7111C16.6658 7.40539 16.6233 7.42532 16.5923 7.45837C16.5612 7.49142 16.5439 7.53509 16.544 7.58045V8.59201C16.5419 8.63553 16.524 8.67677 16.4935 8.7079C16.463 8.73904 16.4221 8.75789 16.3787 8.7609H14.736C14.6938 8.75627 14.6547 8.7367 14.6257 8.70572C14.5966 8.67475 14.5797 8.63441 14.5778 8.59201V8.08534C14.5778 8.06339 14.5821 8.04166 14.5905 8.02139C14.5989 8.00111 14.6112 7.98269 14.6267 7.96717C14.6423 7.95166 14.6607 7.93935 14.681 7.93095C14.7012 7.92255 14.723 7.91823 14.7449 7.91823H15.4951C15.5357 7.91168 15.5728 7.89127 15.6 7.86048C15.6272 7.82969 15.6429 7.79041 15.6445 7.74934V6.73601C15.6456 6.71389 15.6511 6.69222 15.6607 6.67226C15.6703 6.65229 15.6837 6.63443 15.7002 6.61971C15.7168 6.60499 15.7361 6.5937 15.757 6.5865C15.778 6.57931 15.8001 6.57634 15.8222 6.57778H17.8009C17.8452 6.57778 17.8877 6.59539 17.9191 6.62673C17.9504 6.65807 17.968 6.70057 17.968 6.7449L17.9716 7.75112ZM15.7796 11.5289C15.7358 11.5315 15.6945 11.5501 15.6637 11.5813C15.6328 11.6125 15.6146 11.654 15.6125 11.6978V12.0373C15.6125 12.0812 15.595 12.1232 15.564 12.1542C15.533 12.1853 15.491 12.2027 15.4471 12.2027H13.424C13.38 12.2027 13.3378 12.1853 13.3065 12.1544C13.2752 12.1234 13.2574 12.0814 13.2569 12.0373V11.5325C13.259 11.4886 13.2773 11.4472 13.3081 11.416C13.3389 11.3848 13.3802 11.3661 13.424 11.3636H14.5493C14.5943 11.3604 14.6364 11.3403 14.6671 11.3073C14.6978 11.2743 14.7148 11.2309 14.7147 11.1858V10.848C14.7176 10.8048 14.7362 10.7642 14.767 10.7338C14.7978 10.7033 14.8386 10.6852 14.8818 10.6827H16.5333C16.5766 10.6852 16.6174 10.7033 16.6481 10.7338C16.6789 10.7642 16.6975 10.8048 16.7005 10.848V11.3529C16.6983 11.3967 16.6801 11.4382 16.6493 11.4694C16.6184 11.5005 16.5771 11.5192 16.5333 11.5218L15.7796 11.5289Z" fill="#52A646"/>
<path d="M8.52092 3.45423C8.49906 3.45422 8.47741 3.45856 8.45724 3.46698C8.43706 3.4754 8.41876 3.48774 8.40338 3.50328C8.388 3.51882 8.37586 3.53726 8.36766 3.55752C8.35946 3.57779 8.35535 3.59948 8.35559 3.62134V4.63467C8.35347 4.67848 8.33524 4.71995 8.30439 4.75113C8.27354 4.78231 8.23226 4.80098 8.18848 4.80356H7.61425C7.57047 4.80098 7.52919 4.78231 7.49834 4.75113C7.4675 4.71995 7.44926 4.67848 7.44714 4.63467V2.79645C7.45051 2.75359 7.4693 2.7134 7.50003 2.68333C7.53075 2.65326 7.57133 2.63534 7.61425 2.63289H10.7183C10.762 2.63547 10.8033 2.65415 10.8342 2.68532C10.865 2.7165 10.8832 2.75797 10.8854 2.80178V3.29067C10.8832 3.33448 10.865 3.37595 10.8342 3.40713C10.8033 3.43831 10.762 3.45698 10.7183 3.45956L8.52092 3.45423ZM16.2578 2.50134C16.2599 2.54514 16.2782 2.58662 16.309 2.6178C16.3399 2.64897 16.3811 2.66765 16.4249 2.67023H17.5485C17.5923 2.67281 17.6335 2.69148 17.6644 2.72265C17.6952 2.75383 17.7135 2.79531 17.7156 2.83911V3.328C17.713 3.3715 17.6946 3.41254 17.6638 3.44335C17.633 3.47415 17.592 3.49257 17.5485 3.49511H15.5378C15.4943 3.49257 15.4533 3.47415 15.4225 3.44335C15.3917 3.41254 15.3732 3.3715 15.3707 3.328V2.32889C15.3686 2.28537 15.3506 2.24413 15.3202 2.213C15.2897 2.18186 15.2488 2.163 15.2054 2.16H12.8303C12.7865 2.16258 12.7452 2.18126 12.7143 2.21243C12.6835 2.24361 12.6653 2.28509 12.6631 2.32889V2.50667C12.6631 2.55203 12.6803 2.5957 12.7114 2.62875C12.7425 2.6618 12.785 2.68173 12.8303 2.68445H13.9325C13.9763 2.68703 14.0175 2.7057 14.0484 2.73688C14.0792 2.76805 14.0975 2.80953 14.0996 2.85334V3.84711C14.0996 3.89096 14.117 3.93302 14.148 3.96402C14.179 3.99503 14.2211 4.01245 14.2649 4.01245H17.8898C17.9351 4.01517 17.9776 4.03509 18.0087 4.06814C18.0397 4.10119 18.057 4.14487 18.0569 4.19023V6.02311C18.057 6.06847 18.0397 6.11215 18.0087 6.1452C17.9776 6.17825 17.9351 6.19817 17.8898 6.20089H17.328C17.2828 6.19817 17.2402 6.17825 17.2092 6.1452C17.1781 6.11215 17.1608 6.06847 17.1609 6.02311V5.01156C17.1588 4.96775 17.1406 4.92627 17.1097 4.8951C17.0789 4.86392 17.0376 4.84525 16.9938 4.84267H13.3618C13.3165 4.83995 13.274 4.82002 13.2429 4.78697C13.2119 4.75392 13.1946 4.71025 13.1947 4.66489V3.66223C13.1949 3.64028 13.1908 3.6185 13.1827 3.59814C13.1745 3.57777 13.1624 3.55922 13.147 3.54354C13.1317 3.52785 13.1134 3.51535 13.0932 3.50674C13.073 3.49812 13.0513 3.49357 13.0294 3.49334H11.9254C11.881 3.49334 11.8385 3.47573 11.8072 3.44439C11.7759 3.41305 11.7583 3.37055 11.7583 3.32623V1.48978C11.7604 1.44597 11.7786 1.4045 11.8095 1.37332C11.8403 1.34215 11.8816 1.32347 11.9254 1.32089H16.0907C16.1345 1.32347 16.1758 1.34215 16.2066 1.37332C16.2375 1.4045 16.2557 1.44597 16.2578 1.48978V2.50134ZM23.7476 6.29689C23.7455 6.25309 23.7272 6.21161 23.6964 6.18043C23.6655 6.14926 23.6243 6.13058 23.5805 6.128H19.7547C19.7109 6.13058 19.6696 6.14926 19.6388 6.18043C19.6079 6.21161 19.5897 6.25309 19.5876 6.29689V7.29778C19.5876 7.3421 19.57 7.38461 19.5386 7.41595C19.5073 7.44729 19.4648 7.46489 19.4205 7.46489H18.8587C18.8144 7.46489 18.7719 7.44729 18.7405 7.41595C18.7092 7.38461 18.6916 7.3421 18.6916 7.29778V5.456C18.6916 5.41168 18.7092 5.36918 18.7405 5.33784C18.7719 5.3065 18.8144 5.28889 18.8587 5.28889H20.7005C20.7448 5.28889 20.7873 5.27129 20.8186 5.23995C20.85 5.20861 20.8676 5.1661 20.8676 5.12178V4.944C20.8676 4.89968 20.85 4.85718 20.8186 4.82584C20.7873 4.7945 20.7448 4.77689 20.7005 4.77689H19.2303C19.185 4.77417 19.1425 4.75425 19.1114 4.7212C19.0803 4.68815 19.0631 4.64447 19.0631 4.59911V4.112C19.0631 4.06768 19.0808 4.02518 19.1121 3.99384C19.1434 3.9625 19.1859 3.94489 19.2303 3.94489H21.5894C21.6337 3.94489 21.6762 3.9625 21.7075 3.99384C21.7389 4.02518 21.7565 4.06768 21.7565 4.112V5.12356C21.759 5.16705 21.7774 5.2081 21.8082 5.2389C21.8391 5.26971 21.8801 5.28813 21.9236 5.29067H24.4747C24.52 5.29339 24.5625 5.31332 24.5936 5.34637C24.6246 5.37942 24.6419 5.42309 24.6418 5.46845V6.63111C24.6393 6.67461 24.6208 6.71565 24.59 6.74646C24.5592 6.77726 24.5182 6.79569 24.4747 6.79823H23.9129C23.8694 6.79569 23.8284 6.77726 23.7976 6.74646C23.7668 6.71565 23.7484 6.67461 23.7458 6.63111L23.7476 6.29689ZM25.1858 8.32534C25.1837 8.28153 25.1655 8.24005 25.1346 8.20888C25.1038 8.1777 25.0625 8.15903 25.0187 8.15645H23.9183C23.8963 8.15645 23.8746 8.15213 23.8543 8.14373C23.834 8.13533 23.8156 8.12302 23.8001 8.1075C23.7846 8.09198 23.7723 8.07356 23.7639 8.05329C23.7555 8.03301 23.7511 8.01128 23.7511 7.98934V7.48623C23.7511 7.44087 23.7683 7.39719 23.7994 7.36414C23.8305 7.33109 23.873 7.31117 23.9183 7.30845H25.9218C25.9671 7.31117 26.0096 7.33109 26.0407 7.36414C26.0717 7.39719 26.089 7.44087 26.0889 7.48623V9.99823C26.0885 10.0422 26.0706 10.0843 26.0394 10.1152C26.0081 10.1462 25.9658 10.1636 25.9218 10.1636H25.36C25.316 10.1636 25.2738 10.1462 25.2425 10.1152C25.2112 10.0843 25.1934 10.0422 25.1929 9.99823L25.1858 8.32534ZM29.0454 13.0329C29.0455 12.9878 29.0285 12.9444 28.9978 12.9114C28.9671 12.8784 28.925 12.8583 28.88 12.8551H27.7547C27.7104 12.8551 27.6679 12.8375 27.6365 12.8062C27.6052 12.7748 27.5876 12.7323 27.5876 12.688V11.6996C27.5877 11.6542 27.5704 11.6105 27.5393 11.5775C27.5083 11.5444 27.4658 11.5245 27.4205 11.5218H25.2303C25.1868 11.5192 25.1457 11.5008 25.1149 11.47C25.0841 11.4392 25.0657 11.3982 25.0631 11.3547V10.8604C25.0653 10.8166 25.0835 10.7752 25.1143 10.744C25.1452 10.7128 25.1865 10.6941 25.2303 10.6916H28.336C28.3798 10.6941 28.4211 10.7128 28.4519 10.744C28.4828 10.7752 28.501 10.8166 28.5031 10.8604V11.872C28.5052 11.9155 28.5232 11.9568 28.5537 11.9879C28.5842 12.019 28.625 12.0379 28.6685 12.0409H29.7689C29.8129 12.0409 29.8552 12.0583 29.8865 12.0892C29.9178 12.1202 29.9356 12.1622 29.936 12.2062V14.0444C29.9375 14.0673 29.9342 14.0902 29.9265 14.1117C29.9188 14.1332 29.9067 14.1529 29.891 14.1696C29.8754 14.1862 29.8564 14.1995 29.8354 14.2086C29.8144 14.2176 29.7918 14.2223 29.7689 14.2222H29.2071C29.1628 14.2222 29.1203 14.2046 29.089 14.1733C29.0576 14.1419 29.04 14.0994 29.04 14.0551L29.0454 13.0329Z" fill="#52A646"/>
<path d="M27.2498 14.5191C27.2048 14.5223 27.1628 14.5424 27.1321 14.5754C27.1014 14.6084 27.0844 14.6518 27.0845 14.6969V15.3653C27.0845 15.4107 27.0673 15.4544 27.0362 15.4874C27.0052 15.5205 26.9626 15.5404 26.9174 15.5431H26.3556C26.3103 15.5404 26.2678 15.5205 26.2367 15.4874C26.2056 15.4544 26.1884 15.4107 26.1885 15.3653V13.8667C26.1906 13.8229 26.2088 13.7814 26.2397 13.7502C26.2705 13.719 26.3118 13.7004 26.3556 13.6978H28.3751C28.4189 13.7004 28.4602 13.719 28.491 13.7502C28.5219 13.7814 28.5401 13.8229 28.5422 13.8667V14.3716C28.5401 14.4154 28.5219 14.4568 28.491 14.488C28.4602 14.5192 28.4189 14.5379 28.3751 14.5404L27.2498 14.5191ZM15.3458 6.09778C15.302 6.10036 15.2607 6.11903 15.2299 6.15021C15.199 6.18138 15.1808 6.22286 15.1787 6.26667V7.26578C15.1787 7.3101 15.1611 7.35261 15.1297 7.38394C15.0984 7.41528 15.0559 7.43289 15.0116 7.43289H11.9254C11.8819 7.43035 11.8408 7.41193 11.81 7.38112C11.7792 7.35032 11.7608 7.30927 11.7582 7.26578V6.75556C11.7582 6.7102 11.7754 6.66652 11.8065 6.63347C11.8376 6.60043 11.8801 6.5805 11.9254 6.57778H14.1209C14.1647 6.5752 14.206 6.55653 14.2368 6.52535C14.2677 6.49417 14.2859 6.4527 14.288 6.40889V6.26311C14.2881 6.21775 14.2708 6.17408 14.2398 6.14103C14.2087 6.10798 14.1662 6.08806 14.1209 6.08533H13.7316C13.6878 6.08275 13.6465 6.06408 13.6157 6.03291C13.5848 6.00173 13.5666 5.96025 13.5645 5.91645V5.42578C13.5644 5.38042 13.5816 5.33675 13.6127 5.3037C13.6438 5.27065 13.6863 5.25072 13.7316 5.248H15.7351C15.7804 5.25072 15.8229 5.27065 15.854 5.3037C15.8851 5.33675 15.9023 5.38042 15.9022 5.42578V5.92889C15.9023 5.97425 15.8851 6.01792 15.854 6.05097C15.8229 6.08402 15.7804 6.10395 15.7351 6.10667L15.3458 6.09778ZM23.7138 15.5822C23.6703 15.5852 23.6295 15.6041 23.599 15.6352C23.5685 15.6664 23.5505 15.7076 23.5485 15.7511V16.7627C23.5463 16.8065 23.5281 16.848 23.4973 16.8791C23.4664 16.9103 23.4251 16.929 23.3814 16.9316H22.8178C22.7743 16.9286 22.7335 16.9097 22.703 16.8786C22.6725 16.8474 22.6545 16.8062 22.6525 16.7627V14.9333C22.6545 14.8898 22.6725 14.8486 22.703 14.8174C22.7335 14.7863 22.7743 14.7674 22.8178 14.7644H24.6454C24.6888 14.7619 24.7299 14.7435 24.7607 14.7127C24.7915 14.6819 24.8099 14.6408 24.8125 14.5973V14.4196C24.8099 14.3761 24.7915 14.335 24.7607 14.3042C24.7299 14.2734 24.6888 14.255 24.6454 14.2524H21.7316C21.6873 14.2524 21.6447 14.2348 21.6134 14.2035C21.5821 14.1722 21.5645 14.1297 21.5645 14.0853V11.7333C21.5623 11.6895 21.5441 11.648 21.5133 11.6169C21.4824 11.5857 21.4411 11.567 21.3974 11.5644H21.2018C21.158 11.567 21.1167 11.5857 21.0859 11.6169C21.055 11.648 21.0368 11.6895 21.0347 11.7333V14.5902C21.0321 14.6337 21.0137 14.6748 20.9829 14.7056C20.9521 14.7364 20.9111 14.7548 20.8676 14.7573H18.8445C18.8001 14.7573 18.7576 14.7397 18.7263 14.7084C18.695 14.677 18.6774 14.6345 18.6774 14.5902V12.4071C18.6745 12.3648 18.6567 12.3249 18.627 12.2945C18.5974 12.2642 18.5578 12.2455 18.5156 12.2418H17.4222C17.3995 12.2435 17.3767 12.2405 17.3551 12.233C17.3336 12.2254 17.3139 12.2135 17.2972 12.198C17.2805 12.1825 17.2672 12.1636 17.2581 12.1427C17.249 12.1218 17.2444 12.0992 17.2445 12.0764V10.3893C17.2445 10.3674 17.2401 10.3457 17.2317 10.3254C17.2233 10.3051 17.211 10.2867 17.1955 10.2712C17.18 10.2557 17.1616 10.2433 17.1413 10.2349C17.121 10.2265 17.0993 10.2222 17.0774 10.2222H13.424C13.3802 10.2196 13.339 10.201 13.3081 10.1698C13.2773 10.1386 13.259 10.0971 13.2569 10.0533V9.54845C13.2568 9.50309 13.2741 9.45941 13.3052 9.42636C13.3362 9.39331 13.3787 9.37339 13.424 9.37067H17.9556C18.0009 9.37339 18.0434 9.39331 18.0744 9.42636C18.1055 9.45941 18.1228 9.50309 18.1227 9.54845V11.2338C18.1248 11.2776 18.143 11.3191 18.1739 11.3502C18.2047 11.3814 18.246 11.4001 18.2898 11.4027H19.4134C19.4586 11.4054 19.5012 11.4253 19.5322 11.4584C19.5633 11.4914 19.5805 11.5351 19.5805 11.5804V13.6622C19.5805 13.7065 19.5981 13.749 19.6294 13.7804C19.6607 13.8117 19.7033 13.8293 19.7476 13.8293H19.9609C20.0052 13.8293 20.0477 13.8117 20.0791 13.7804C20.1104 13.749 20.128 13.7065 20.128 13.6622V10.896C20.128 10.852 20.1454 10.8097 20.1763 10.7785C20.2073 10.7472 20.2493 10.7294 20.2934 10.7289H23.0222C23.0666 10.7289 23.1091 10.7465 23.1404 10.7778C23.1717 10.8092 23.1894 10.8517 23.1894 10.896V11.3991C23.1872 11.4429 23.169 11.4844 23.1382 11.5156C23.1073 11.5467 23.066 11.5654 23.0222 11.568H22.6382C22.593 11.5707 22.5504 11.5906 22.5194 11.6237C22.4883 11.6567 22.471 11.7004 22.4711 11.7458V13.2444C22.4732 13.2883 22.4915 13.3297 22.5223 13.3609C22.5532 13.3921 22.5945 13.4108 22.6382 13.4133H25.5609C25.6049 13.4138 25.647 13.4316 25.6779 13.4629C25.7089 13.4942 25.7262 13.5364 25.7262 13.5804V15.4098C25.7263 15.4549 25.7093 15.4983 25.6786 15.5313C25.648 15.5643 25.6059 15.5844 25.5609 15.5876L23.7138 15.5822ZM26.8338 17.36C26.7888 17.3632 26.7468 17.3833 26.7161 17.4163C26.6854 17.4493 26.6684 17.4927 26.6685 17.5378V19.5556C26.6685 19.6009 26.6513 19.6446 26.6202 19.6776C26.5892 19.7107 26.5466 19.7306 26.5014 19.7333H25.9396C25.8952 19.7293 25.854 19.7088 25.8241 19.6759C25.7941 19.643 25.7776 19.6001 25.7778 19.5556V17.536C25.7778 17.5131 25.7732 17.4905 25.7641 17.4695C25.7551 17.4485 25.7418 17.4296 25.7251 17.4139C25.7085 17.3982 25.6888 17.3862 25.6672 17.3784C25.6457 17.3707 25.6228 17.3674 25.6 17.3689H24.48C24.4366 17.3659 24.3957 17.347 24.3652 17.3159C24.3347 17.2848 24.3168 17.2435 24.3147 17.2V16.6916C24.3168 16.648 24.3347 16.6068 24.3652 16.5757C24.3957 16.5445 24.4366 16.5257 24.48 16.5227H27.7582C27.8026 16.5227 27.8451 16.5051 27.8764 16.4737C27.9077 16.4424 27.9254 16.3999 27.9254 16.3556V15.3564C27.9254 15.3121 27.943 15.2696 27.9743 15.2383C28.0056 15.2069 28.0481 15.1893 28.0925 15.1893H28.6542C28.6986 15.1893 28.7411 15.2069 28.7724 15.2383C28.8037 15.2696 28.8214 15.3121 28.8214 15.3564V17.1964C28.8214 17.2408 28.8037 17.2833 28.7724 17.3146C28.7411 17.346 28.6986 17.3636 28.6542 17.3636L26.8338 17.36Z" fill="#52A646"/>
<path d="M28.3911 18.688C28.3471 18.6885 28.3051 18.7063 28.2741 18.7376C28.2432 18.7689 28.2258 18.8111 28.2258 18.8551V19.0222C28.2279 19.0657 28.2459 19.107 28.2763 19.1381C28.3068 19.1693 28.3477 19.1881 28.3911 19.1911H30.944C30.9875 19.1937 31.0286 19.2121 31.0594 19.2429C31.0902 19.2737 31.1086 19.3147 31.1111 19.3582V21.2107C31.1112 21.256 31.094 21.2997 31.0629 21.3328C31.0318 21.3658 30.9893 21.3857 30.944 21.3884H29.296C29.2507 21.3857 29.2082 21.3658 29.1772 21.3328C29.1461 21.2997 29.1288 21.256 29.1289 21.2107V20.7093C29.1288 20.664 29.1461 20.6203 29.1772 20.5873C29.2082 20.5542 29.2507 20.5343 29.296 20.5316H30.0445C30.088 20.529 30.129 20.5106 30.1598 20.4798C30.1906 20.449 30.209 20.4079 30.2116 20.3644V20.1867C30.2095 20.1429 30.1912 20.1014 30.1604 20.0702C30.1295 20.039 30.0882 20.0204 30.0445 20.0178H28.3965C28.3527 20.0204 28.3114 20.039 28.2806 20.0702C28.2497 20.1014 28.2315 20.1429 28.2293 20.1867V21.1982C28.2294 21.2436 28.2122 21.2873 28.1811 21.3203C28.15 21.3534 28.1075 21.3733 28.0622 21.376H26.9369C26.8929 21.3765 26.8508 21.3943 26.8199 21.4256C26.7889 21.4569 26.7716 21.4991 26.7716 21.5431V21.7209C26.7715 21.766 26.7885 21.8094 26.8192 21.8424C26.8499 21.8754 26.8919 21.8955 26.9369 21.8987H30.2222C30.2675 21.9014 30.31 21.9213 30.3411 21.9544C30.3722 21.9874 30.3894 22.0311 30.3894 22.0764V22.5653C30.3872 22.6091 30.369 22.6506 30.3382 22.6818C30.3073 22.713 30.266 22.7316 30.2222 22.7342H26.0534C26.0096 22.7316 25.9683 22.713 25.9374 22.6818C25.9066 22.6506 25.8884 22.6091 25.8862 22.5653V21.5662C25.8837 21.5227 25.8653 21.4817 25.8345 21.4509C25.8037 21.4201 25.7626 21.4017 25.7191 21.3991H24.5956C24.5503 21.3964 24.5078 21.3765 24.4767 21.3434C24.4456 21.3104 24.4284 21.2667 24.4285 21.2213V20.2098C24.4285 20.1644 24.4113 20.1207 24.3802 20.0877C24.3492 20.0546 24.3066 20.0347 24.2614 20.032H22.2329C22.1876 20.0293 22.1451 20.0094 22.114 19.9763C22.083 19.9433 22.0657 19.8996 22.0658 19.8542V18.016C22.0658 17.9717 22.0834 17.9292 22.1147 17.8978C22.1461 17.8665 22.1886 17.8489 22.2329 17.8489H24.4427C24.4862 17.8514 24.5272 17.8699 24.558 17.9007C24.5888 17.9315 24.6073 17.9725 24.6098 18.016V18.5209C24.6099 18.5662 24.5926 18.6099 24.5616 18.643C24.5305 18.676 24.488 18.6959 24.4427 18.6987H23.1449C23.0996 18.7014 23.0571 18.7213 23.026 18.7544C22.995 18.7874 22.9777 18.8311 22.9778 18.8764V19.0222C22.9799 19.066 22.9981 19.1075 23.029 19.1387C23.0598 19.1699 23.1011 19.1885 23.1449 19.1911H25.168C25.2123 19.1911 25.2548 19.2087 25.2862 19.2401C25.3175 19.2714 25.3351 19.3139 25.3351 19.3582V20.3716C25.3351 20.4159 25.3527 20.4584 25.3841 20.4897C25.4154 20.5211 25.4579 20.5387 25.5022 20.5387H27.152C27.196 20.5382 27.2381 20.5204 27.269 20.4891C27.3 20.4578 27.3174 20.4156 27.3174 20.3716V18.0249C27.3174 17.9806 27.335 17.9381 27.3663 17.9067C27.3976 17.8754 27.4401 17.8578 27.4845 17.8578H29.3334C29.3777 17.8578 29.4202 17.8402 29.4515 17.8088C29.4829 17.7775 29.5005 17.735 29.5005 17.6907V16.6773C29.5026 16.6335 29.5208 16.5921 29.5517 16.5609C29.5825 16.5297 29.6238 16.511 29.6676 16.5084H30.2222C30.266 16.511 30.3073 16.5297 30.3382 16.5609C30.369 16.5921 30.3872 16.6335 30.3894 16.6773V18.5298C30.3894 18.5751 30.3722 18.6188 30.3411 18.6519C30.31 18.6849 30.2675 18.7048 30.2222 18.7076L28.3911 18.688ZM3.44357 8.90667C3.3983 8.90939 3.35577 8.92932 3.32471 8.96237C3.29364 8.99541 3.27638 9.03909 3.27646 9.08445V9.24445C3.27646 9.28877 3.29407 9.33127 3.32541 9.36261C3.35675 9.39395 3.39925 9.41156 3.44357 9.41156H5.28535C5.33063 9.41428 5.37315 9.4342 5.40422 9.46725C5.43528 9.5003 5.45254 9.54398 5.45246 9.58934V10.5778C5.45458 10.6216 5.47281 10.6631 5.50366 10.6942C5.53451 10.7254 5.57579 10.7441 5.61957 10.7467H7.26757C7.31135 10.7441 7.35264 10.7254 7.38348 10.6942C7.41433 10.6631 7.43257 10.6216 7.43468 10.5778V8.23645C7.43676 8.19293 7.45474 8.15168 7.48522 8.12055C7.5157 8.08942 7.55655 8.07056 7.60002 8.06756H8.1618C8.20612 8.06756 8.24862 8.08516 8.27996 8.1165C8.3113 8.14784 8.32891 8.19035 8.32891 8.23467V9.23378C8.32891 9.2781 8.34651 9.32061 8.37785 9.35195C8.40919 9.38329 8.4517 9.40089 8.49602 9.40089H11.0596C11.1034 9.40347 11.1446 9.42214 11.1755 9.45332C11.2063 9.4845 11.2246 9.52597 11.2267 9.56978V11.4222C11.2246 11.466 11.2063 11.5075 11.1755 11.5387C11.1446 11.5699 11.1034 11.5885 11.0596 11.5911H9.76535C9.72189 11.5881 9.68103 11.5693 9.65056 11.5381C9.62008 11.507 9.60209 11.4657 9.60002 11.4222V10.9173C9.60209 10.8738 9.62008 10.8326 9.65056 10.8014C9.68103 10.7703 9.72189 10.7514 9.76535 10.7484H10.1565C10.2017 10.7457 10.2443 10.7258 10.2753 10.6928C10.3064 10.6597 10.3237 10.616 10.3236 10.5707V10.3929C10.3236 10.3486 10.306 10.3061 10.2746 10.2747C10.2433 10.2434 10.2008 10.2258 10.1565 10.2258H8.50668C8.48474 10.2258 8.46301 10.2301 8.44273 10.2385C8.42246 10.2469 8.40404 10.2592 8.38852 10.2747C8.373 10.2902 8.36069 10.3087 8.35229 10.3289C8.3439 10.3492 8.33957 10.3709 8.33957 10.3929V11.4062C8.33746 11.45 8.31922 11.4915 8.28837 11.5227C8.25753 11.5539 8.21624 11.5725 8.17246 11.5751H5.62135C5.57703 11.5751 5.53452 11.5927 5.50319 11.6241C5.47185 11.6554 5.45424 11.6979 5.45424 11.7422V12.4124C5.45212 12.4563 5.43389 12.4977 5.40304 12.5289C5.37219 12.5601 5.33091 12.5788 5.28713 12.5813H4.72535C4.68157 12.5788 4.64029 12.5601 4.60944 12.5289C4.57859 12.4977 4.56036 12.4563 4.55824 12.4124V10.4071C4.55824 10.3852 4.55392 10.3634 4.54552 10.3432C4.53712 10.3229 4.52481 10.3045 4.50929 10.2889C4.49378 10.2734 4.47535 10.2611 4.45508 10.2527C4.4348 10.2443 4.41307 10.24 4.39113 10.24H2.55468C2.5109 10.2374 2.46962 10.2187 2.43877 10.1876C2.40792 10.1564 2.38969 10.1149 2.38757 10.0711V8.23645C2.39011 8.19295 2.40853 8.15191 2.43934 8.1211C2.47015 8.0903 2.51119 8.07188 2.55468 8.06934H6.72002C6.76434 8.06934 6.80684 8.08694 6.83818 8.11828C6.86952 8.14962 6.88713 8.19213 6.88713 8.23645V8.73956C6.88501 8.78336 6.86678 8.82484 6.83593 8.85602C6.80508 8.88719 6.7638 8.90587 6.72002 8.90845L3.44357 8.90667ZM12.6614 12.5689C12.6635 12.6127 12.6817 12.6542 12.7126 12.6854C12.7434 12.7165 12.7847 12.7352 12.8285 12.7378H13.9289C13.9509 12.738 13.9725 12.7426 13.9927 12.7512C14.0129 12.7598 14.0312 12.7723 14.0466 12.788C14.0619 12.8037 14.074 12.8222 14.0822 12.8426C14.0904 12.8629 14.0945 12.8847 14.0942 12.9067V13.4098C14.0922 13.4533 14.0742 13.4945 14.0437 13.5257C14.0132 13.5568 13.9724 13.5757 13.9289 13.5787H11.9254C11.8816 13.5761 11.8403 13.5574 11.8094 13.5262C11.7786 13.4951 11.7604 13.4536 11.7582 13.4098V9.54845C11.7582 9.50309 11.7754 9.45941 11.8065 9.42637C11.8376 9.39332 11.8801 9.37339 11.9254 9.37067H12.4871C12.5324 9.37339 12.5749 9.39332 12.606 9.42637C12.6371 9.45941 12.6543 9.50309 12.6542 9.54845L12.6614 12.5689Z" fill="#52A646"/>
<path d="M3.45068 11.5289C3.4069 11.5315 3.36562 11.5501 3.33477 11.5813C3.30393 11.6125 3.28569 11.654 3.28357 11.6978V13.3707C3.28146 13.4145 3.26322 13.456 3.23237 13.4871C3.20153 13.5183 3.16024 13.537 3.11646 13.5396H2.55468C2.5109 13.537 2.46962 13.5183 2.43877 13.4871C2.40792 13.456 2.38969 13.4145 2.38757 13.3707V10.8569C2.39053 10.8137 2.40914 10.7731 2.4399 10.7427C2.47067 10.7122 2.51148 10.6941 2.55468 10.6916H3.83291C3.87692 10.6916 3.91916 10.7089 3.95045 10.7399C3.98174 10.7708 3.99955 10.8129 4.00002 10.8569V11.3618C3.9979 11.4056 3.97967 11.4471 3.94882 11.4782C3.91797 11.5094 3.87669 11.5281 3.83291 11.5307L3.45068 11.5289Z" fill="#52A646"/>
<path d="M1.79203 13.8453C1.79414 13.8891 1.81238 13.9306 1.84323 13.9618C1.87407 13.993 1.91536 14.0116 1.95914 14.0142H3.61603C3.65981 14.0116 3.70109 13.993 3.73194 13.9618C3.76279 13.9306 3.78102 13.8891 3.78314 13.8453V13.5111C3.78303 13.466 3.80004 13.4226 3.83073 13.3896C3.86143 13.3566 3.90351 13.3365 3.94847 13.3333H6.49425C6.5162 13.3333 6.53793 13.329 6.5582 13.3206C6.57848 13.3122 6.5969 13.2999 6.61242 13.2844C6.62793 13.2689 6.64024 13.2504 6.64864 13.2302C6.65704 13.2099 6.66136 13.1882 6.66136 13.1662V12.1707C6.66136 12.1263 6.67897 12.0838 6.71031 12.0525C6.74165 12.0212 6.78415 12.0036 6.82847 12.0036H11.0098C11.0541 12.0036 11.0966 12.0212 11.128 12.0525C11.1593 12.0838 11.1769 12.1263 11.1769 12.1707V13.8453C11.179 13.8891 11.1973 13.9306 11.2281 13.9618C11.259 13.993 11.3002 14.0116 11.344 14.0142H12.4676C12.5111 14.0168 12.5521 14.0352 12.5829 14.066C12.6137 14.0968 12.6322 14.1378 12.6347 14.1813V14.6862C12.6348 14.7316 12.6175 14.7753 12.5865 14.8083C12.5554 14.8414 12.5129 14.8613 12.4676 14.864H10.4427C10.3974 14.8613 10.3549 14.8414 10.3238 14.8083C10.2928 14.7753 10.2755 14.7316 10.2756 14.6862V14.3449C10.2757 14.2995 10.2584 14.2559 10.2273 14.2228C10.1963 14.1898 10.1537 14.1698 10.1085 14.1671H9.00803C8.96401 14.1671 8.92177 14.1498 8.89049 14.1188C8.8592 14.0878 8.84138 14.0458 8.84092 14.0018V13.5111C8.84083 13.4658 8.85809 13.4221 8.88916 13.389C8.92023 13.356 8.96275 13.3361 9.00803 13.3333H10.1067C10.1286 13.3333 10.1504 13.329 10.1706 13.3206C10.1909 13.3122 10.2093 13.2999 10.2249 13.2844C10.2404 13.2689 10.2527 13.2504 10.2611 13.2302C10.2695 13.2099 10.2738 13.1882 10.2738 13.1662V12.9884C10.2713 12.945 10.2528 12.9039 10.222 12.8731C10.1912 12.8423 10.1502 12.8239 10.1067 12.8213H7.73869C7.6952 12.8239 7.65416 12.8423 7.62335 12.8731C7.59255 12.9039 7.57412 12.945 7.57158 12.9884V15.344C7.57166 15.3894 7.55441 15.433 7.52334 15.4661C7.49227 15.4991 7.44975 15.5191 7.40447 15.5218H6.29692C6.2526 15.5218 6.21009 15.5394 6.17875 15.5707C6.14741 15.6021 6.12981 15.6446 6.12981 15.6889V16.7022C6.12773 16.7457 6.10975 16.787 6.07927 16.8181C6.04879 16.8493 6.00794 16.8681 5.96447 16.8711H3.39381C3.37108 16.8713 3.34864 16.8761 3.32785 16.8853C3.30705 16.8945 3.28835 16.9078 3.27287 16.9244C3.2574 16.9411 3.24548 16.9607 3.23784 16.9821C3.23021 17.0035 3.22702 17.0262 3.22847 17.0489V17.3884C3.22847 17.4328 3.21087 17.4753 3.17953 17.5066C3.14819 17.5379 3.10568 17.5556 3.06136 17.5556H2.49958C2.45526 17.5556 2.41276 17.5379 2.38142 17.5066C2.35008 17.4753 2.33247 17.4328 2.33247 17.3884V15.5147C2.33239 15.4693 2.34965 15.4256 2.38072 15.3926C2.41178 15.3595 2.45431 15.3396 2.49958 15.3369H3.06136C3.10664 15.3396 3.14916 15.3595 3.18023 15.3926C3.21129 15.4256 3.22855 15.4693 3.22847 15.5147V15.8542C3.23097 15.8974 3.24914 15.9382 3.27958 15.969C3.31001 15.9998 3.35063 16.0184 3.39381 16.0213H5.05781C5.1013 16.0188 5.14234 16.0004 5.17315 15.9696C5.20396 15.9388 5.22238 15.8977 5.22492 15.8542V14.8551C5.22483 14.8098 5.24209 14.7661 5.27316 14.733C5.30423 14.7 5.34675 14.6801 5.39203 14.6773H6.49425C6.53803 14.6748 6.57931 14.6561 6.61016 14.6249C6.64101 14.5937 6.65924 14.5523 6.66136 14.5084V14.3307C6.66144 14.2853 6.64418 14.2416 6.61312 14.2086C6.58205 14.1755 6.53953 14.1556 6.49425 14.1529H4.84447C4.7992 14.1556 4.75667 14.1755 4.7256 14.2086C4.69454 14.2416 4.67728 14.2853 4.67736 14.3307V14.6844C4.67747 14.7295 4.66046 14.7729 4.62977 14.8059C4.59907 14.839 4.55699 14.8591 4.51203 14.8622H1.05603C1.01075 14.8595 0.968226 14.8396 0.93716 14.8065C0.906093 14.7735 0.888835 14.7298 0.888916 14.6844V12.1707C0.888916 12.1263 0.906523 12.0838 0.937862 12.0525C0.969201 12.0212 1.01171 12.0036 1.05603 12.0036H1.61781C1.66088 12.0054 1.70158 12.0238 1.7314 12.0549C1.76122 12.0861 1.77784 12.1276 1.77781 12.1707L1.79203 13.8453ZM17.9556 12.752V13.424C17.9524 13.469 17.9323 13.511 17.8993 13.5417C17.8663 13.5724 17.8229 13.5894 17.7778 13.5893H15.2889C15.2449 13.5893 15.2027 13.572 15.1714 13.541C15.1401 13.5101 15.1223 13.468 15.1218 13.424V12.752" fill="#52A646"/>
<path d="M24.7111 21.9467C24.7111 21.8738 22.9778 21.6693 21.8845 21.3244C21.2768 21.1432 20.6875 20.9051 20.1245 20.6133C19.8596 20.4747 20.0356 20.1831 20.1369 20.08C20.512 19.6782 21.4383 19.0133 21.3814 18.9244C20.741 19.2718 20.1256 19.6633 19.5396 20.096C19.4763 20.1354 19.4053 20.1607 19.3314 20.1702C19.2574 20.1798 19.1823 20.1732 19.1111 20.1511C17.1556 19.5449 14.6454 18.8231 14.6454 17.7778C14.6454 16.7324 16.2223 16.5333 18.4694 16.56C19.4124 16.4812 20.336 16.2482 21.2036 15.8702C21.2409 15.8542 21.2285 15.7902 21.1876 15.8027C20.2309 16.1397 19.2174 16.2858 18.2045 16.2329C16.5334 16.0284 16.2311 15.904 15.6747 16.0551C15.5894 16.08 15.5378 15.9911 15.5787 15.9093C16.0121 15.2239 16.6904 14.7293 17.4756 14.5262C17.5094 14.5138 17.4756 14.4693 17.4489 14.4747C16.504 14.5558 15.5997 14.8959 14.8356 15.4578C14.8221 15.4688 14.8049 15.4741 14.7875 15.4724C14.7702 15.4708 14.7542 15.4623 14.7431 15.4489C14.7344 15.439 14.7294 15.4265 14.7289 15.4133C14.6596 14.6631 13.6747 14.3147 13.3867 14.256C13.3583 14.256 13.3298 14.2791 13.3547 14.2951C13.7565 14.5404 14.5174 15.2764 14.0658 15.9804C12.8907 17.8311 10.688 18.1884 10.288 19.8062C9.93247 21.1982 13.3618 23.4027 13.3618 24.6916C13.3618 26.6471 9.42581 27.8044 9.42581 27.8044C9.39331 27.8193 9.36689 27.8449 9.35095 27.8769C9.33501 27.9089 9.33051 27.9454 9.3382 27.9803C9.34588 28.0152 9.3653 28.0465 9.39321 28.0688C9.42112 28.0911 9.45583 28.1033 9.49158 28.1031H21.8667C21.9185 28.1076 21.97 28.0914 22.0099 28.0581C22.0499 28.0248 22.0751 27.9771 22.08 27.9253C22.0821 27.8969 22.0779 27.8684 22.0676 27.8418C21.1307 24.5084 14.5707 22.2916 13.2178 21.0862C12.88 20.7822 12.6116 20.448 12.8018 20.032C13.4436 18.64 19.7849 21.376 22.3271 21.8258C23.111 21.9401 23.9036 21.983 24.6951 21.9538" fill="#473A4B"/>
<path d="M11.2125 17.7636C10.6507 17.184 9.38672 16.0996 8.99028 15.76C8.98821 15.7569 8.98552 15.7542 8.98236 15.7522C8.97921 15.7502 8.97567 15.7489 8.97197 15.7484C8.96827 15.7478 8.9645 15.748 8.96089 15.749C8.95729 15.75 8.95394 15.7518 8.95106 15.7542C8.94817 15.7566 8.94583 15.7595 8.94416 15.7629C8.9425 15.7662 8.94156 15.7699 8.9414 15.7736C8.94124 15.7773 8.94187 15.7811 8.94325 15.7845C8.94462 15.788 8.94671 15.7912 8.94939 15.7938C9.2605 16.3271 9.63916 17.0382 9.82405 17.3387C9.83213 17.3519 9.83646 17.367 9.83659 17.3825C9.83671 17.398 9.83263 17.4132 9.82478 17.4265C9.81693 17.4398 9.8056 17.4508 9.79201 17.4582C9.77841 17.4656 9.76307 17.4691 9.74761 17.4685C9.21428 17.4382 7.99472 17.3991 7.2925 17.3778C7.28401 17.3778 7.27587 17.3812 7.26987 17.3872C7.26387 17.3932 7.2605 17.4013 7.2605 17.4098C7.2605 17.4183 7.26387 17.4264 7.26987 17.4324C7.27587 17.4384 7.28401 17.4418 7.2925 17.4418C8.41102 17.6358 9.50535 17.9499 10.5565 18.3787C10.5854 18.3912 10.617 18.3958 10.6483 18.392C10.6795 18.3883 10.7092 18.3763 10.7343 18.3573C10.8801 18.2471 11.0365 18.1387 11.2001 18.0285C11.2359 18.0015 11.2603 17.9619 11.2682 17.9177C11.2761 17.8735 11.267 17.828 11.2427 17.7902L11.2214 17.7778M22.2578 30.6862C22.7044 30.6534 23.1233 30.4572 23.4345 30.1352C23.7456 29.8132 23.9274 29.3879 23.9449 28.9405C23.952 28.8811 23.9351 28.8213 23.8981 28.7743C23.8611 28.7273 23.807 28.6969 23.7476 28.6898H7.85783C7.82826 28.69 7.79903 28.6961 7.77183 28.7077C7.74462 28.7193 7.71998 28.7361 7.69932 28.7573C7.67866 28.7784 7.6624 28.8035 7.65146 28.8309C7.64053 28.8584 7.63514 28.8878 7.63561 28.9173V28.9405C7.65429 29.3872 7.83614 29.8117 8.14673 30.1334C8.45732 30.4551 8.87509 30.6518 9.32094 30.6862H22.2578Z" fill="#473A4B"/>
</svg>
