<svg width="32" height="32" viewBox="0 0 32 32" fill="none" xmlns="http://www.w3.org/2000/svg">
<g clip-path="url(#clip0_855_10740)">
<path d="M16 0.888885C13.0113 0.888885 10.0897 1.77514 7.60472 3.43557C5.11971 5.096 3.18288 7.45603 2.03916 10.2172C0.895433 12.9784 0.596183 16.0168 1.17925 18.948C1.76231 21.8793 3.20151 24.5718 5.31483 26.6852C7.42816 28.7985 10.1207 30.2377 13.052 30.8208C15.9832 31.4038 19.0216 31.1046 21.7828 29.9608C24.544 28.8171 26.904 26.8803 28.5644 24.3953C30.2249 21.9103 31.1111 18.9887 31.1111 16C31.1111 11.9923 29.5191 8.14871 26.6852 5.31483C23.8513 2.48094 20.0077 0.888885 16 0.888885Z" fill="url(#paint0_radial_855_10740)"/>
<path d="M16 28.4978C22.9023 28.4978 28.4978 22.9023 28.4978 16C28.4978 9.09767 22.9023 3.50223 16 3.50223C9.09767 3.50223 3.50223 9.09767 3.50223 16C3.50223 22.9023 9.09767 28.4978 16 28.4978Z" fill="white"/>
<path d="M13.2444 17.3689C14.0005 17.3689 14.6133 16.756 14.6133 16C14.6133 15.244 14.0005 14.6311 13.2444 14.6311C12.4884 14.6311 11.8755 15.244 11.8755 16C11.8755 16.756 12.4884 17.3689 13.2444 17.3689Z" fill="#32BEDD"/>
<path d="M9.35111 12.0889H8.67556C8.53883 12.0889 8.40769 12.1432 8.31101 12.2399C8.21432 12.3366 8.16 12.4677 8.16 12.6044V22.7733C8.16 23.0515 8.27051 23.3183 8.46722 23.515C8.66392 23.7117 8.93071 23.8222 9.20889 23.8222H19.1111C19.1803 23.8223 19.2489 23.8084 19.3126 23.7814C19.3763 23.7543 19.434 23.7148 19.4821 23.665C19.5302 23.6152 19.5678 23.5563 19.5926 23.4917C19.6175 23.427 19.6291 23.3581 19.6267 23.2889V22.6133C19.6267 22.4766 19.5724 22.3455 19.4757 22.2488C19.379 22.1521 19.2478 22.0978 19.1111 22.0978H10.2222C10.188 22.0979 10.1541 22.0909 10.1227 22.0773C10.0913 22.0637 10.063 22.0437 10.0396 22.0187C10.0163 21.9937 9.99833 21.9641 9.98692 21.9318C9.97552 21.8996 9.97089 21.8653 9.97334 21.8311V12.6044C9.97502 12.5268 9.95912 12.4497 9.92683 12.379C9.89453 12.3083 9.84668 12.2459 9.78684 12.1963C9.727 12.1467 9.65673 12.1113 9.58127 12.0927C9.50582 12.0741 9.42714 12.0728 9.35111 12.0889Z" fill="#32BEDD"/>
<path d="M18.7555 17.3689C19.5116 17.3689 20.1244 16.756 20.1244 16C20.1244 15.244 19.5116 14.6311 18.7555 14.6311C17.9995 14.6311 17.3867 15.244 17.3867 16C17.3867 16.756 17.9995 17.3689 18.7555 17.3689Z" fill="#32BEDD"/>
<path d="M22.08 8.17778H12.8533C12.7841 8.17774 12.7156 8.19164 12.6518 8.21865C12.5881 8.24567 12.5305 8.28524 12.4823 8.33501C12.4342 8.38479 12.3966 8.44374 12.3718 8.50836C12.347 8.57297 12.3354 8.64193 12.3378 8.71111V9.38667C12.3378 9.5234 12.3921 9.65454 12.4888 9.75122C12.5855 9.84791 12.7166 9.90223 12.8533 9.90223H21.7422C21.8129 9.90223 21.8808 9.93032 21.9308 9.98033C21.9808 10.0303 22.0089 10.0982 22.0089 10.1689V19.3956C22.0089 19.5323 22.0632 19.6634 22.1599 19.7601C22.2566 19.8568 22.3877 19.9111 22.5244 19.9111H23.2C23.3367 19.9111 23.4679 19.8568 23.5645 19.7601C23.6612 19.6634 23.7155 19.5323 23.7155 19.3956V9.22667C23.7156 8.95154 23.6075 8.68741 23.4146 8.49121C23.2218 8.29501 22.9595 8.18244 22.6844 8.17778H22.08Z" fill="#32BEDD"/>
</g>
<defs>
<radialGradient id="paint0_radial_855_10740" cx="0" cy="0" r="1" gradientUnits="userSpaceOnUse" gradientTransform="translate(15.5687 15.4396) scale(15.04)">
<stop offset="0.67" stop-color="#6BB9F2"/>
<stop offset="0.74" stop-color="#61B4F1"/>
<stop offset="0.85" stop-color="#47A8EF"/>
<stop offset="0.99" stop-color="#1D94EB"/>
<stop offset="1" stop-color="#1B93EB"/>
</radialGradient>
<clipPath id="clip0_855_10740">
<rect width="32" height="32" fill="white"/>
</clipPath>
</defs>
</svg>
