<svg width="32" height="32" viewBox="0 0 32 32" fill="none" xmlns="http://www.w3.org/2000/svg">
<path d="M32 20.2311C31.9616 18.5237 31.3099 16.8871 30.1642 15.6205C29.0184 14.354 27.4551 13.5421 25.76 13.3333C25.6582 10.9503 24.6215 8.70336 22.8744 7.07944C21.1274 5.45553 18.8108 4.58546 16.4267 4.65778C14.5009 4.61601 12.6093 5.17111 11.0115 6.24693C9.4137 7.32275 8.18788 8.86659 7.50222 10.6667C5.4614 10.9147 3.57871 11.8911 2.20036 13.4165C0.82201 14.9418 0.0406644 16.9135 0 18.9689C0.0879773 21.2734 1.08622 23.449 2.77584 25.0187C4.46546 26.5883 6.70857 27.4239 9.01333 27.3422H9.79556H24.3911C24.5208 27.3607 24.6525 27.3607 24.7822 27.3422C26.6726 27.3243 28.4821 26.5727 29.8288 25.2459C31.1755 23.9191 31.954 22.121 32 20.2311Z" fill="url(#paint0_linear_855_10744)"/>
<path d="M9.63553 18.4711H8.07109C7.9641 18.0073 7.69016 17.5991 7.30149 17.3244C6.91283 17.0496 6.43663 16.9275 5.96371 16.9813C5.49079 17.0352 5.05422 17.2612 4.73726 17.6163C4.4203 17.9714 4.24512 18.4307 4.24512 18.9067C4.24512 19.3826 4.4203 19.842 4.73726 20.1971C5.05422 20.5522 5.49079 20.7782 5.96371 20.832C6.43663 20.8859 6.91283 20.7637 7.30149 20.489C7.69016 20.2142 7.9641 19.806 8.07109 19.3422H9.63553C9.72983 19.3422 9.82027 19.3797 9.88695 19.4464C9.95363 19.513 9.99109 19.6035 9.99109 19.6978V27.3422H10.8622V19.6978C10.8622 19.3724 10.733 19.0604 10.5029 18.8304C10.2729 18.6004 9.96087 18.4711 9.63553 18.4711ZM6.16887 20.0356C5.94383 20.0356 5.72386 19.9688 5.53675 19.8438C5.34964 19.7188 5.20381 19.5411 5.1177 19.3332C5.03158 19.1253 5.00905 18.8965 5.05295 18.6758C5.09685 18.4551 5.20521 18.2524 5.36434 18.0933C5.52346 17.9341 5.72619 17.8258 5.9469 17.7819C6.1676 17.738 6.39637 17.7605 6.60427 17.8466C6.81218 17.9327 6.98987 18.0786 7.11489 18.2657C7.23991 18.4528 7.30664 18.6727 7.30664 18.8978C7.30664 19.1995 7.18677 19.4889 6.9734 19.7023C6.76002 19.9157 6.47062 20.0356 6.16887 20.0356Z" fill="#9CEBFF"/>
<path d="M15.8934 18.8622V17.0844C15.8934 16.7544 15.7622 16.4379 15.5289 16.2045C15.2955 15.9711 14.979 15.84 14.6489 15.84H11.8934C11.7991 15.84 11.7086 15.8025 11.6419 15.7359C11.5753 15.6692 11.5378 15.5787 11.5378 15.4844V6.04445L11.1289 6.25778L10.6667 6.50667V15.3956C10.6667 15.7209 10.7959 16.0329 11.026 16.2629C11.256 16.493 11.568 16.6222 11.8934 16.6222H14.6489C14.6979 16.6222 14.7465 16.6319 14.7918 16.6506C14.8371 16.6694 14.8782 16.6969 14.9129 16.7316C14.9476 16.7662 14.9751 16.8074 14.9938 16.8527C15.0126 16.898 15.0222 16.9465 15.0222 16.9956V18.7733C14.5927 18.867 14.2083 19.1052 13.9332 19.4482C13.6582 19.7912 13.5092 20.2181 13.5111 20.6578C13.5108 21.022 13.6132 21.379 13.8065 21.6877C13.9998 21.9965 14.2761 22.2445 14.6039 22.4033C14.9317 22.5621 15.2977 22.6254 15.6598 22.5857C16.0219 22.5461 16.3654 22.4052 16.6511 22.1792C16.9368 21.9532 17.153 21.6513 17.2749 21.3081C17.3968 20.9648 17.4195 20.5942 17.3404 20.2386C17.2613 19.8831 17.0836 19.557 16.8277 19.2978C16.5717 19.0387 16.2479 18.8569 15.8934 18.7733V18.8622ZM15.4489 21.8844C15.2239 21.8844 15.0039 21.8177 14.8168 21.6927C14.6297 21.5677 14.4839 21.39 14.3977 21.1821C14.3116 20.9742 14.2891 20.7454 14.333 20.5247C14.3769 20.304 14.4853 20.1013 14.6444 19.9421C14.8035 19.783 15.0062 19.6747 15.2269 19.6308C15.4476 19.5869 15.6764 19.6094 15.8843 19.6955C16.0922 19.7816 16.2699 19.9275 16.3949 20.1146C16.52 20.3017 16.5867 20.5216 16.5867 20.7467C16.5867 20.8961 16.5573 21.044 16.5001 21.1821C16.4429 21.3201 16.3591 21.4455 16.2534 21.5512C16.1478 21.6569 16.0224 21.7407 15.8843 21.7978C15.7463 21.855 15.5983 21.8844 15.4489 21.8844Z" fill="#F2F2F2"/>
<path d="M25.8311 15.1111C25.3572 15.1128 24.9003 15.2882 24.5469 15.604C24.1935 15.9199 23.9681 16.3543 23.9133 16.8251C23.8586 17.2959 23.9783 17.7704 24.2498 18.1589C24.5213 18.5474 24.9258 18.8229 25.3867 18.9333V19.2889C25.3867 19.3379 25.377 19.3865 25.3583 19.4318C25.3395 19.477 25.312 19.5182 25.2773 19.5529C25.2427 19.5875 25.2015 19.615 25.1562 19.6338C25.1109 19.6526 25.0624 19.6622 25.0133 19.6622H21.4578V13.4044C21.4578 13.2433 21.4261 13.0838 21.3644 12.935C21.3028 12.7862 21.2124 12.651 21.0985 12.5371C20.9846 12.4231 20.8494 12.3328 20.7005 12.2711C20.5517 12.2095 20.3922 12.1778 20.2311 12.1778H18.4C18.3064 11.7482 18.0682 11.3638 17.7252 11.0888C17.3822 10.8137 16.9552 10.6647 16.5156 10.6667C16.1513 10.6663 15.7943 10.7687 15.4856 10.962C15.1769 11.1553 14.9289 11.4317 14.77 11.7595C14.6112 12.0873 14.548 12.4532 14.5876 12.8153C14.6273 13.1774 14.7681 13.521 14.9941 13.8066C15.2201 14.0923 15.522 14.3085 15.8653 14.4304C16.2085 14.5524 16.5792 14.5751 16.9347 14.496C17.2903 14.4169 17.6163 14.2391 17.8755 13.9832C18.1347 13.7272 18.3165 13.4034 18.4 13.0489H20.3022C20.3965 13.0489 20.487 13.0863 20.5536 13.153C20.6203 13.2197 20.6578 13.3101 20.6578 13.4044V27.3422H21.5289V20.5333H25.0845C25.4145 20.5333 25.731 20.4022 25.9644 20.1688C26.1978 19.9355 26.3289 19.6189 26.3289 19.2889V18.9333C26.7569 18.8367 27.1395 18.5977 27.414 18.2554C27.6885 17.913 27.8387 17.4877 27.84 17.0489C27.8402 16.7883 27.7878 16.5304 27.686 16.2905C27.5842 16.0507 27.4351 15.8338 27.2475 15.6529C27.06 15.472 26.8379 15.3308 26.5945 15.2377C26.3512 15.1446 26.0915 15.1015 25.8311 15.1111ZM16.5156 13.7422C16.2905 13.7422 16.0706 13.6755 15.8834 13.5505C15.6963 13.4254 15.5505 13.2477 15.4644 13.0398C15.3783 12.8319 15.3557 12.6032 15.3996 12.3825C15.4436 12.1618 15.5519 11.959 15.711 11.7999C15.8702 11.6408 16.0729 11.5324 16.2936 11.4885C16.5143 11.4446 16.7431 11.4672 16.951 11.5533C17.1589 11.6394 17.3366 11.7852 17.4616 11.9723C17.5866 12.1594 17.6533 12.3794 17.6533 12.6044C17.6533 12.7539 17.6239 12.9018 17.5667 13.0398C17.5096 13.1779 17.4257 13.3033 17.3201 13.409C17.2144 13.5146 17.089 13.5984 16.951 13.6556C16.8129 13.7128 16.665 13.7422 16.5156 13.7422ZM25.8311 18.1867C25.6054 18.1902 25.3837 18.1265 25.1942 18.0036C25.0048 17.8808 24.8562 17.7043 24.7674 17.4968C24.6785 17.2892 24.6534 17.0599 24.6953 16.838C24.7372 16.6161 24.8441 16.4118 25.0025 16.2508C25.1609 16.0899 25.3636 15.9798 25.5848 15.9344C25.8059 15.8891 26.0356 15.9106 26.2445 15.9961C26.4535 16.0817 26.6322 16.2275 26.7581 16.415C26.8839 16.6024 26.9511 16.8231 26.9511 17.0489C26.9512 17.3476 26.8337 17.6343 26.6242 17.8472C26.4146 18.0601 26.1298 18.182 25.8311 18.1867Z" fill="#9CEBFF"/>
<defs>
<linearGradient id="paint0_linear_855_10744" x1="16" y1="34.0089" x2="16" y2="-0.515549" gradientUnits="userSpaceOnUse">
<stop stop-color="#0078D4"/>
<stop offset="0.16" stop-color="#1380DA"/>
<stop offset="0.53" stop-color="#3C91E5"/>
<stop offset="0.82" stop-color="#559CEC"/>
<stop offset="1" stop-color="#5EA0EF"/>
</linearGradient>
</defs>
</svg>
