<svg width="32" height="32" viewBox="0 0 32 32" fill="none" xmlns="http://www.w3.org/2000/svg">
<path d="M32 20.1244C31.9686 18.3927 31.3245 16.7281 30.1821 15.4263C29.0398 14.1244 27.473 13.2695 25.76 13.0133C25.6902 10.6006 24.6704 8.31298 22.9225 6.64831C21.1745 4.98363 18.84 4.07656 16.4267 4.12444C14.4835 4.10456 12.5826 4.6917 10.9892 5.80393C9.39569 6.91617 8.18913 8.49805 7.53778 10.3289C5.46655 10.5952 3.56188 11.6027 2.17612 13.1649C0.790367 14.7272 0.0173215 16.7385 0 18.8267C0.0834421 21.1499 1.07374 23.348 2.75861 24.9498C4.44348 26.5516 6.68882 27.4296 9.01333 27.3955H9.79556H24.3911C24.5208 27.414 24.6525 27.414 24.7822 27.3955C26.6956 27.3632 28.5208 26.5851 29.8689 25.227C31.2171 23.8688 31.9817 22.038 32 20.1244Z" fill="url(#paint0_linear_855_10752)"/>
<path d="M21.92 11.7156C21.3624 10.7906 20.543 10.0519 19.5654 9.59285C18.5878 9.13383 17.496 8.97518 16.4282 9.13697C15.3603 9.29876 14.3645 9.77372 13.5668 10.5017C12.769 11.2297 12.2052 12.1781 11.9467 13.2267C11.6298 14.5979 11.8392 16.038 12.5333 17.2622L8.37332 21.4756C8.24217 21.6061 8.1381 21.7612 8.06708 21.932C7.99606 22.1029 7.9595 22.2861 7.9595 22.4711C7.9595 22.6561 7.99606 22.8393 8.06708 23.0102C8.1381 23.181 8.24217 23.3362 8.37332 23.4667C8.50364 23.5977 8.65885 23.7014 8.82982 23.7716C9.00078 23.8419 9.18406 23.8772 9.36888 23.8756C9.55398 23.8793 9.73787 23.8449 9.90913 23.7745C10.0804 23.7042 10.2354 23.5994 10.3644 23.4667L14.5067 19.2711C14.9569 19.5329 15.4416 19.7304 15.9467 19.8578C16.9956 20.1097 18.0955 20.0461 19.1084 19.6752C20.1213 19.3042 21.0021 18.6423 21.6402 17.7725C22.2783 16.9027 22.6452 15.8639 22.695 14.7863C22.7448 13.7087 22.4752 12.6405 21.92 11.7156ZM20.96 15.4489C20.7574 16.2827 20.2814 17.0245 19.608 17.5562C18.9345 18.0879 18.1024 18.3787 17.2444 18.3822C16.9378 18.3846 16.6324 18.3427 16.3378 18.2578C15.888 18.1565 15.4642 17.9628 15.0933 17.6889C14.7022 17.4222 14.3645 17.0845 14.0978 16.6933C13.7965 16.2475 13.5918 15.7435 13.4969 15.2139C13.402 14.6842 13.4189 14.1405 13.5467 13.6178C13.7393 12.7807 14.2096 12.0334 14.881 11.4975C15.5524 10.9617 16.3854 10.6689 17.2444 10.6667C17.5556 10.6671 17.8658 10.7029 18.1689 10.7733C19.1545 11.0342 19.9976 11.6729 20.5155 12.5511C20.7785 12.9803 20.9533 13.4577 21.0296 13.9553C21.1059 14.4528 21.0822 14.9606 20.96 15.4489Z" fill="#F2F2F2"/>
<path d="M17.2267 18.3822C19.3376 18.3822 21.0489 16.663 21.0489 14.5422C21.0489 12.4215 19.3376 10.7022 17.2267 10.7022C15.1157 10.7022 13.4044 12.4215 13.4044 14.5422C13.4044 16.663 15.1157 18.3822 17.2267 18.3822Z" fill="#83B9F9"/>
<defs>
<linearGradient id="paint0_linear_855_10752" x1="16" y1="0.639994" x2="16" y2="32.5511" gradientUnits="userSpaceOnUse">
<stop offset="0.18" stop-color="#5EA0EF"/>
<stop offset="1" stop-color="#0078D4"/>
</linearGradient>
</defs>
</svg>
