<svg width="32" height="32" viewBox="0 0 32 32" fill="none" xmlns="http://www.w3.org/2000/svg">
<g clip-path="url(#clip0_855_10743)">
<path d="M1.04886 8.69511C0.78341 8.69511 0.52883 8.58966 0.341127 8.40196C0.153424 8.21425 0.0479736 7.95967 0.0479736 7.69422V1.00089C0.0479736 0.735437 0.153424 0.480857 0.341127 0.293154C0.52883 0.10545 0.78341 0 1.04886 0H7.31553C7.58098 0 7.83556 0.10545 8.02326 0.293154C8.21097 0.480857 8.31642 0.735437 8.31642 1.00089C8.31642 1.26634 8.21097 1.52092 8.02326 1.70862C7.83556 1.89633 7.58098 2.00178 7.31553 2.00178H2.04975V7.69067C2.05022 7.8224 2.02468 7.95294 1.97459 8.07478C1.9245 8.19663 1.85085 8.30738 1.75786 8.4007C1.66487 8.49402 1.55437 8.56806 1.43271 8.61858C1.31104 8.66911 1.1806 8.69511 1.04886 8.69511ZM31.952 7.69422V1.00089C31.9515 0.735581 31.8459 0.481274 31.6583 0.293673C31.4707 0.106071 31.2164 0.000469988 30.9511 0L24.6844 0C24.419 0 24.1644 0.10545 23.9767 0.293154C23.789 0.480857 23.6835 0.735437 23.6835 1.00089C23.6835 1.26634 23.789 1.52092 23.9767 1.70862C24.1644 1.89633 24.419 2.00178 24.6844 2.00178H29.9502V7.69067C29.9502 7.95612 30.0556 8.2107 30.2433 8.3984C30.4311 8.58611 30.6856 8.69156 30.9511 8.69156C31.2165 8.69156 31.4711 8.58611 31.6588 8.3984C31.8465 8.2107 31.952 7.95612 31.952 7.69067V7.69422ZM8.31642 30.9991C8.31642 30.7337 8.21097 30.4791 8.02326 30.2914C7.83556 30.1037 7.58098 29.9982 7.31553 29.9982H2.04975V24.3093C2.04975 24.0439 1.9443 23.7893 1.7566 23.6016C1.56889 23.4139 1.31431 23.3084 1.04886 23.3084C0.78341 23.3084 0.52883 23.4139 0.341127 23.6016C0.153424 23.7893 0.0479736 24.0439 0.0479736 24.3093V31.0027C0.0489144 31.2675 0.15478 31.5212 0.342381 31.7081C0.529983 31.895 0.784025 32 1.04886 32H7.31553C7.58098 32 7.83556 31.8945 8.02326 31.7068C8.21097 31.5191 8.31642 31.2646 8.31642 30.9991ZM31.952 30.9991V24.3058C31.952 24.0403 31.8465 23.7857 31.6588 23.598C31.4711 23.4103 31.2165 23.3049 30.9511 23.3049C30.6856 23.3049 30.4311 23.4103 30.2433 23.598C30.0556 23.7857 29.9502 24.0403 29.9502 24.3058V29.9947H24.6844C24.419 29.9947 24.1644 30.1001 23.9767 30.2878C23.789 30.4755 23.6835 30.7301 23.6835 30.9956C23.6835 31.261 23.789 31.5156 23.9767 31.7033C24.1644 31.891 24.419 31.9964 24.6844 31.9964H30.9511C31.2158 31.996 31.4696 31.8909 31.6571 31.704C31.8446 31.5172 31.9506 31.2638 31.952 30.9991Z" fill="#50E6FF"/>
<path d="M15.5822 28.6222C22.6063 28.6222 28.3004 22.9281 28.3004 15.904C28.3004 8.87992 22.6063 3.18578 15.5822 3.18578C8.5581 3.18578 2.86395 8.87992 2.86395 15.904C2.86395 22.9281 8.5581 28.6222 15.5822 28.6222Z" fill="#0078D4"/>
<path d="M15.5822 27.1378C21.6519 27.1378 26.5724 22.2173 26.5724 16.1476C26.5724 10.0778 21.6519 5.15733 15.5822 5.15733C9.51247 5.15733 4.59198 10.0778 4.59198 16.1476C4.59198 22.2173 9.51247 27.1378 15.5822 27.1378Z" fill="url(#paint0_linear_855_10743)"/>
<path d="M15.5822 24.9369C20.5375 24.9369 24.5546 20.9198 24.5546 15.9644C24.5546 11.0091 20.5375 6.992 15.5822 6.992C10.6268 6.992 6.60974 11.0091 6.60974 15.9644C6.60974 20.9198 10.6268 24.9369 15.5822 24.9369Z" fill="#5EA0EF"/>
<path d="M15.5822 21.9893C18.8763 21.9893 21.5466 19.319 21.5466 16.0249C21.5466 12.7308 18.8763 10.0604 15.5822 10.0604C12.2881 10.0604 9.61774 12.7308 9.61774 16.0249C9.61774 19.319 12.2881 21.9893 15.5822 21.9893Z" fill="#005BA1"/>
<path d="M13.6195 15.6196C14.6092 15.6196 15.4115 14.8172 15.4115 13.8276C15.4115 12.8379 14.6092 12.0356 13.6195 12.0356C12.6298 12.0356 11.8275 12.8379 11.8275 13.8276C11.8275 14.8172 12.6298 15.6196 13.6195 15.6196Z" fill="white"/>
<path d="M15.5822 16.88C16.0211 16.88 16.3769 16.5242 16.3769 16.0853C16.3769 15.6464 16.0211 15.2907 15.5822 15.2907C15.1433 15.2907 14.7875 15.6464 14.7875 16.0853C14.7875 16.5242 15.1433 16.88 15.5822 16.88Z" fill="white"/>
</g>
<defs>
<linearGradient id="paint0_linear_855_10743" x1="15.5822" y1="27.1378" x2="15.5822" y2="5.15733" gradientUnits="userSpaceOnUse">
<stop stop-color="#5EA0EF"/>
<stop offset="1" stop-color="#0078D4"/>
</linearGradient>
<clipPath id="clip0_855_10743">
<rect width="32" height="32" fill="white"/>
</clipPath>
</defs>
</svg>
