<svg width="32" height="32" viewBox="0 0 32 32" fill="none" xmlns="http://www.w3.org/2000/svg">
<path d="M30.9316 2.21333H1.06844C0.478359 2.21333 0 2.69169 0 3.28178V22.4782C0 23.0683 0.478359 23.5467 1.06844 23.5467H30.9316C31.5216 23.5467 32 23.0683 32 22.4782V3.28178C32 2.69169 31.5216 2.21333 30.9316 2.21333Z" fill="url(#paint0_linear_855_10739)"/>
<path d="M22.4178 30C19.2533 29.504 19.1289 27.2213 19.1378 23.5467H12.8622C12.8622 27.2213 12.7466 29.504 9.5822 30C9.15321 30.0657 8.76072 30.2795 8.47273 30.6041C8.18474 30.9288 8.01939 31.344 8.00531 31.7778H24.0053C23.9888 31.3431 23.8212 30.9277 23.5314 30.6032C23.2417 30.2787 22.8478 30.0654 22.4178 30Z" fill="url(#paint1_linear_855_10739)"/>
<path opacity="0.3" d="M9.5182 20.4533H3.16798C3.02653 20.4533 2.89087 20.3971 2.79085 20.2971C2.69083 20.1971 2.63464 20.0614 2.63464 19.92V5.83822C2.63464 5.69677 2.69083 5.56111 2.79085 5.4611C2.89087 5.36108 3.02653 5.30489 3.16798 5.30489H9.5182C9.65965 5.30489 9.7953 5.36108 9.89532 5.4611C9.99534 5.56111 10.0515 5.69677 10.0515 5.83822V19.92C10.0515 20.0614 9.99534 20.1971 9.89532 20.2971C9.7953 20.3971 9.65965 20.4533 9.5182 20.4533ZM19.7084 19.92V5.83822C19.7084 5.69677 19.6522 5.56111 19.5522 5.4611C19.4522 5.36108 19.3165 5.30489 19.1751 5.30489H12.8249C12.6834 5.30489 12.5478 5.36108 12.4477 5.4611C12.3477 5.56111 12.2915 5.69677 12.2915 5.83822V19.92C12.2915 20.0614 12.3477 20.1971 12.4477 20.2971C12.5478 20.3971 12.6834 20.4533 12.8249 20.4533H19.1751C19.3165 20.4533 19.4522 20.3971 19.5522 20.2971C19.6522 20.1971 19.7084 20.0614 19.7084 19.92Z" fill="white"/>
<path d="M28.8338 5.30489H22.4818C22.1872 5.30489 21.9484 5.54367 21.9484 5.83822V19.92C21.9484 20.2145 22.1872 20.4533 22.4818 20.4533H28.8338C29.1283 20.4533 29.3671 20.2145 29.3671 19.92V5.83822C29.3671 5.54367 29.1283 5.30489 28.8338 5.30489Z" fill="#FAA21D"/>
<path d="M26.3111 15.1111H25.0134C24.9376 15.1141 24.8636 15.0876 24.8069 15.0373C24.7502 14.9869 24.7153 14.9165 24.7094 14.8409L24.5707 8.92801C24.5716 8.88933 24.5802 8.85122 24.5961 8.81593C24.612 8.78065 24.6347 8.74889 24.6631 8.72255C24.6914 8.6962 24.7247 8.6758 24.7611 8.66254C24.7974 8.64928 24.836 8.64343 24.8747 8.64534H26.4516C26.4902 8.64367 26.5287 8.64969 26.5649 8.66304C26.6012 8.67639 26.6344 8.69681 26.6627 8.72311C26.691 8.74941 26.7137 8.78106 26.7297 8.81624C26.7456 8.85141 26.7544 8.8894 26.7556 8.92801L26.6151 14.8409C26.6092 14.9165 26.5743 14.9869 26.5176 15.0373C26.4609 15.0876 26.3869 15.1141 26.3111 15.1111ZM25.6622 15.8418C25.4573 15.8418 25.2569 15.9026 25.0864 16.0165C24.916 16.1303 24.7831 16.2922 24.7047 16.4816C24.6263 16.671 24.6057 16.8794 24.6457 17.0804C24.6857 17.2815 24.7844 17.4662 24.9294 17.6111C25.0743 17.7561 25.259 17.8548 25.46 17.8948C25.6611 17.9347 25.8695 17.9142 26.0589 17.8358C26.2483 17.7573 26.4101 17.6245 26.524 17.454C26.6379 17.2836 26.6987 17.0832 26.6987 16.8782C26.6968 16.6037 26.5861 16.341 26.3907 16.1481C26.1954 15.9551 25.9315 15.8475 25.6569 15.8489L25.6622 15.8418ZM18.4356 11.3778C18.4201 11.3622 18.4016 11.3499 18.3813 11.3415C18.3611 11.3331 18.3393 11.3288 18.3174 11.3288C18.2954 11.3288 18.2737 11.3331 18.2534 11.3415C18.2331 11.3499 18.2147 11.3622 18.1991 11.3778L15.1769 14.4L14.0267 13.2516C14.0112 13.236 13.9927 13.2237 13.9725 13.2153C13.9522 13.2069 13.9304 13.2026 13.9085 13.2026C13.8865 13.2026 13.8648 13.2069 13.8445 13.2153C13.8242 13.2237 13.8058 13.236 13.7902 13.2516L13.5236 13.5182C13.508 13.5337 13.4957 13.5522 13.4873 13.5725C13.4789 13.5927 13.4746 13.6145 13.4746 13.6364C13.4746 13.6584 13.4789 13.6802 13.4873 13.7004C13.4957 13.7207 13.508 13.7392 13.5236 13.7547L15.0525 15.2836C15.0851 15.313 15.1276 15.3294 15.1716 15.3294C15.2156 15.3294 15.258 15.313 15.2907 15.2836L18.7022 11.872C18.7178 11.8565 18.7301 11.8381 18.7385 11.8178C18.7469 11.7975 18.7512 11.7757 18.7512 11.7538C18.7512 11.7318 18.7469 11.7101 18.7385 11.6898C18.7301 11.6695 18.7178 11.6511 18.7022 11.6356L18.4356 11.3778ZM8.6578 11.3778C8.64228 11.3622 8.62385 11.3499 8.60357 11.3415C8.58328 11.3331 8.56154 11.3288 8.53958 11.3288C8.51762 11.3288 8.49588 11.3331 8.47559 11.3415C8.45531 11.3499 8.43688 11.3622 8.42136 11.3778L5.39914 14.4L4.26669 13.2356C4.23402 13.2061 4.19158 13.1898 4.14758 13.1898C4.10358 13.1898 4.06114 13.2061 4.02847 13.2356L3.7618 13.5022C3.73281 13.5348 3.7168 13.5769 3.7168 13.6205C3.7168 13.664 3.73281 13.7061 3.7618 13.7387L5.29069 15.2676H5.29958C5.3151 15.2831 5.33353 15.2954 5.35381 15.3038C5.3741 15.3122 5.39584 15.3166 5.4178 15.3166C5.43976 15.3166 5.4615 15.3122 5.48179 15.3038C5.50208 15.2954 5.5205 15.2831 5.53602 15.2676L8.92802 11.872C8.94356 11.8565 8.95588 11.8381 8.96429 11.8178C8.9727 11.7975 8.97703 11.7757 8.97703 11.7538C8.97703 11.7318 8.9727 11.7101 8.96429 11.6898C8.95588 11.6695 8.94356 11.6511 8.92802 11.6356L8.6578 11.3778ZM28.8285 20.8H22.4818C22.2519 20.7995 22.0315 20.708 21.8689 20.5454C21.7063 20.3828 21.6147 20.1624 21.6142 19.9325V5.83823C21.6147 5.60828 21.7063 5.38789 21.8689 5.22529C22.0315 5.0627 22.2519 4.97114 22.4818 4.97067H28.832C29.062 4.97114 29.2824 5.0627 29.445 5.22529C29.6076 5.38789 29.6991 5.60828 29.6996 5.83823V19.92C29.6991 20.15 29.6076 20.3703 29.445 20.5329C29.2824 20.6955 29.062 20.7871 28.832 20.7876L28.8285 20.8ZM22.4818 5.63734C22.4287 5.6378 22.3778 5.65912 22.3403 5.69669C22.3027 5.73427 22.2814 5.78509 22.2809 5.83823V19.92C22.2814 19.9731 22.3027 20.024 22.3403 20.0615C22.3778 20.0991 22.4287 20.1204 22.4818 20.1209H28.832C28.8852 20.1204 28.936 20.0991 28.9736 20.0615C29.0111 20.024 29.0324 19.9731 29.0329 19.92V5.83823C29.0324 5.78509 29.0111 5.73427 28.9736 5.69669C28.936 5.65912 28.8852 5.6378 28.832 5.63734H22.4818Z" fill="white"/>
<defs>
<linearGradient id="paint0_linear_855_10739" x1="16" y1="23.5467" x2="16" y2="2.21333" gradientUnits="userSpaceOnUse">
<stop stop-color="#0078D4"/>
<stop offset="0.817" stop-color="#5EA0EF"/>
</linearGradient>
<linearGradient id="paint1_linear_855_10739" x1="16.0053" y1="31.7867" x2="16.0053" y2="23.5467" gradientUnits="userSpaceOnUse">
<stop offset="0.149" stop-color="#CCCCCC"/>
<stop offset="1" stop-color="#707070"/>
</linearGradient>
</defs>
</svg>
