<svg width="32" height="32" viewBox="0 0 32 32" fill="none" xmlns="http://www.w3.org/2000/svg">
<g clip-path="url(#clip0_855_10745)">
<path d="M15.7333 2.85356e-06C13.545 -0.00450413 11.3797 0.447559 9.37598 1.3273C7.37223 2.20705 5.57404 3.49512 4.09633 5.10922C2.61861 6.72332 1.49387 8.62794 0.793968 10.7014C0.0940697 12.7748 -0.165589 14.9714 0.0315849 17.1509C0.228759 19.3304 0.878429 21.4447 1.93908 23.3589C2.99973 25.273 4.44803 26.9449 6.19144 28.2675C7.93484 29.5902 9.935 30.5347 12.0641 31.0405C14.1932 31.5464 16.4044 31.6025 18.5564 31.2053L18.0924 30.8053L16.7378 29.4311C16.6228 29.3148 16.5462 29.166 16.5186 29.0048C16.4909 28.8436 16.5134 28.6778 16.5831 28.5298L17.4809 26.6276L17.2089 25.9698L15.5342 25.4222L15.2604 25.3422C15.0947 25.2938 14.9492 25.1929 14.8457 25.0548C14.7422 24.9166 14.6862 24.7486 14.6862 24.576V22.6453C14.6865 22.4805 14.738 22.3198 14.8335 22.1854C14.9291 22.051 15.0639 21.9496 15.2196 21.8951L17.2071 21.184L17.4791 20.5298L16.6631 18.9404L16.5333 18.6809C16.4563 18.5298 16.4292 18.3582 16.4561 18.1908C16.4829 18.0233 16.5623 17.8687 16.6827 17.7493L18.0409 16.4053C18.1583 16.289 18.3089 16.212 18.4719 16.1849C18.635 16.1579 18.8024 16.1821 18.9511 16.2542L20.8604 17.1787L21.5271 16.928L22.0604 15.328C22.0995 15.2113 22.1652 15.1054 22.2524 15.0187L22.3502 14.9209C22.4245 14.8468 22.5127 14.7881 22.6097 14.7482C22.7067 14.7082 22.8106 14.6878 22.9156 14.688H24.8213C24.982 14.6879 25.139 14.7361 25.2719 14.8265C25.4047 14.9169 25.5073 15.0452 25.5662 15.1947L26.2596 16.9724L26.896 17.1502L28.5404 16.3076L28.8 16.1778C28.9101 16.1215 29.0319 16.0923 29.1555 16.0924C29.2609 16.0921 29.3653 16.1127 29.4626 16.153C29.56 16.1932 29.6483 16.2524 29.7227 16.3271L30.4622 17.0702L31.0702 17.6836C31.1833 17.7971 31.2595 17.9421 31.2889 18.0996C31.4068 17.3175 31.4662 16.5278 31.4667 15.7369C31.4671 13.6705 31.0605 11.6242 30.2701 9.71491C29.4796 7.80565 28.3208 6.0708 26.8597 4.60945C25.3987 3.14809 23.6641 1.98887 21.755 1.19797C19.8459 0.407075 17.7998 2.80079e-06 15.7333 2.85356e-06Z" fill="#0078D4"/>
<path d="M16.7378 29.4311C16.6228 29.3148 16.5462 29.166 16.5186 29.0048C16.4909 28.8436 16.5134 28.6778 16.5831 28.5298L17.4809 26.6276L17.2089 25.9698L15.5342 25.4222L15.2604 25.3422C15.0947 25.2938 14.9492 25.1929 14.8457 25.0548C14.7422 24.9166 14.6862 24.7486 14.6862 24.576V22.6453C14.6865 22.4805 14.738 22.3197 14.8335 22.1854C14.9291 22.051 15.0639 21.9496 15.2196 21.8951L17.2071 21.184L17.4791 20.5298L16.6631 18.9404L16.5333 18.6809C16.4563 18.5298 16.4292 18.3582 16.4561 18.1908C16.4829 18.0233 16.5623 17.8687 16.6827 17.7493L18.0409 16.4053C18.1583 16.289 18.3089 16.212 18.472 16.1849C18.635 16.1579 18.8024 16.1821 18.9511 16.2542L20.8604 17.1787L21.5271 16.928L22.0604 15.328C22.0995 15.2113 22.1652 15.1054 22.2524 15.0187L22.3502 14.9209C22.4245 14.8468 22.5127 14.7881 22.6097 14.7482C22.7067 14.7082 22.8106 14.6878 22.9156 14.688H24.8213C24.982 14.6879 25.139 14.7361 25.2719 14.8265C25.4047 14.9169 25.5073 15.0452 25.5662 15.1947L26.2596 16.9724L26.896 17.1502L28.5404 16.3076L28.8 16.1778C28.88 16.1315 28.969 16.1028 29.0609 16.0936C29.1529 16.0844 29.2457 16.0949 29.3333 16.1244C29.3333 16.096 29.3333 16.0676 29.3333 16.0391C29.334 13.35 28.5373 10.721 27.0439 8.48473C25.5505 6.24841 23.4275 4.50517 20.9433 3.47544C18.4592 2.4457 15.7254 2.17573 13.0878 2.69967C10.4503 3.2236 8.02726 4.5179 6.12527 6.4189C4.22327 8.3199 2.92771 10.7422 2.40239 13.3795C1.87708 16.0168 2.14562 18.7507 3.17406 21.2354C4.20249 23.7201 5.94462 25.844 8.18016 27.3386C10.4157 28.8332 13.0442 29.6313 15.7333 29.632C16.1191 29.632 16.4996 29.6053 16.8782 29.5733L16.7378 29.4311Z" fill="url(#paint0_linear_855_10745)"/>
<path d="M17.4809 26.6276L17.2089 25.9698L15.5342 25.4222L15.2604 25.3422C15.0947 25.2938 14.9492 25.1929 14.8457 25.0548C14.7422 24.9166 14.6862 24.7486 14.6862 24.576V22.6453C14.6865 22.4805 14.738 22.3198 14.8335 22.1854C14.9291 22.051 15.0639 21.9496 15.2195 21.8951L17.2071 21.184L17.4791 20.5298L16.6631 18.9404L16.5333 18.6809C16.4563 18.5298 16.4292 18.3582 16.4561 18.1908C16.4829 18.0233 16.5623 17.8687 16.6827 17.7493L18.0409 16.4053C18.1583 16.289 18.3089 16.212 18.4719 16.1849C18.635 16.1579 18.8024 16.1821 18.9511 16.2542L20.8604 17.1787L21.5271 16.928L22.0604 15.328C22.0995 15.2113 22.1652 15.1054 22.2524 15.0187L22.3502 14.9209C22.4245 14.8468 22.5127 14.7881 22.6097 14.7482C22.7067 14.7082 22.8106 14.6878 22.9156 14.688H24.8213C24.982 14.6879 25.139 14.7361 25.2719 14.8265C25.4047 14.9169 25.5073 15.0452 25.5662 15.1947L26.2596 16.9724L26.7502 17.1111C27.0123 14.8765 26.5889 12.615 25.5362 10.6266C24.4835 8.63815 22.8512 7.01666 20.8558 5.97716C18.8604 4.93766 16.5962 4.52926 14.3634 4.80611C12.1306 5.08296 10.0347 6.03198 8.35357 7.52733C6.67249 9.02268 5.48566 10.9937 4.95048 13.179C4.41529 15.3644 4.55702 17.6608 5.35689 19.7637C6.15675 21.8666 7.57695 23.6768 9.42916 24.954C11.2814 26.2313 13.4781 26.9154 15.728 26.9156C16.2914 26.9115 16.8537 26.8639 17.4098 26.7733L17.4809 26.6276Z" fill="#5EA0EF"/>
<path d="M14.6862 22.6453C14.6865 22.4805 14.738 22.3198 14.8335 22.1854C14.929 22.051 15.0639 21.9496 15.2195 21.8951L17.2071 21.184L17.4791 20.5298L16.6631 18.9405L16.5333 18.6809C16.4563 18.5298 16.4292 18.3582 16.456 18.1908C16.4829 18.0233 16.5622 17.8687 16.6826 17.7493L18.0409 16.4053C18.1583 16.289 18.3089 16.212 18.4719 16.1849C18.635 16.1579 18.8024 16.1821 18.9511 16.2542L20.8604 17.1787L21.5271 16.928L22.0604 15.328C22.0994 15.2113 22.1652 15.1054 22.2524 15.0187L22.3502 14.9209C22.4245 14.8468 22.5127 14.7881 22.6097 14.7482C22.7067 14.7082 22.8106 14.6878 22.9155 14.688H23.0026C22.7819 13.3434 22.1929 12.0862 21.3009 11.0561C20.4089 10.026 19.2489 9.2633 17.9497 8.85259C16.6504 8.44189 15.2628 8.39929 13.9408 8.72953C12.6188 9.05977 11.4142 9.74993 10.4607 10.7234C9.50722 11.6968 8.84218 12.9155 8.5394 14.244C8.23663 15.5726 8.30798 16.9591 8.74552 18.2495C9.18307 19.54 9.96969 20.6839 11.0181 21.5544C12.0664 22.4248 13.3355 22.9877 14.6844 23.1805L14.6862 22.6453Z" fill="#005BA1"/>
<path d="M13.3049 15.3813C14.5283 15.3813 15.52 14.3896 15.52 13.1662C15.52 11.9429 14.5283 10.9511 13.3049 10.9511C12.0815 10.9511 11.0898 11.9429 11.0898 13.1662C11.0898 14.3896 12.0815 15.3813 13.3049 15.3813Z" fill="#83B9F9"/>
<path d="M15.7334 16.9422C16.2763 16.9422 16.7165 16.5021 16.7165 15.9591C16.7165 15.4162 16.2763 14.976 15.7334 14.976C15.1904 14.976 14.7502 15.4162 14.7502 15.9591C14.7502 16.5021 15.1904 16.9422 15.7334 16.9422Z" fill="#83B9F9"/>
<path d="M32 24.4836V22.5653L31.8969 22.4693L29.9413 21.8062L29.4347 20.4853L30.4071 18.4693L30.5102 18.2418L29.9022 17.6302L29.1555 16.8889L28.8995 17.0187L26.9813 18.0018L25.6587 17.632L24.8231 15.4845H22.9173L22.8195 15.5822L22.1582 17.5378L20.816 18.0409L18.5973 16.9742L17.2444 18.3111L17.3742 18.5636L18.3573 20.48L17.8098 21.8009L15.4987 22.6382V24.5689L15.7724 24.6489L17.8204 25.3262L18.3698 26.6471L17.3209 28.8711L18.6755 30.2453L18.9333 30.1156L20.8533 29.1325L22.1742 29.68L23.0151 31.9911H24.9333L25.0133 31.7173L25.6907 29.6693L26.9973 29.12L29.2391 30.1689L30.5955 28.8142L30.4658 28.5565L29.4827 26.6365L29.8613 25.2942L32 24.4836ZM23.92 26.2613C23.3873 26.2645 22.8657 26.1096 22.421 25.8163C21.9763 25.523 21.6286 25.1044 21.4219 24.6135C21.2151 24.1226 21.1586 23.5814 21.2594 23.0583C21.3602 22.5352 21.6139 22.0538 21.9883 21.6749C22.3627 21.296 22.8411 21.0367 23.3629 20.9296C23.8847 20.8226 24.4266 20.8727 24.9199 21.0737C25.4133 21.2746 25.8359 21.6173 26.1345 22.0584C26.4331 22.4996 26.5942 23.0193 26.5973 23.552V23.568C26.5959 24.279 26.3139 24.9606 25.8125 25.4647C25.3111 25.9687 24.6309 26.2544 23.92 26.2596V26.2613Z" fill="#50E6FF"/>
</g>
<defs>
<linearGradient id="paint0_linear_855_10745" x1="15.7333" y1="29.632" x2="15.7333" y2="2.43911" gradientUnits="userSpaceOnUse">
<stop stop-color="#5EA0EF"/>
<stop offset="1" stop-color="#0078D4"/>
</linearGradient>
<clipPath id="clip0_855_10745">
<rect width="32" height="32" fill="white"/>
</clipPath>
</defs>
</svg>
