<svg width="32" height="32" viewBox="0 0 32 32" fill="none" xmlns="http://www.w3.org/2000/svg">
<g clip-path="url(#clip0_855_10736)">
<path d="M27.392 17.2445C27.0862 16.5333 25.6142 16.1778 25.9324 14.5156C26.5949 12.1662 26.5054 9.66838 25.6764 7.37246C24.9623 5.94682 23.8837 4.73545 22.5502 3.86123C21.2167 2.98701 19.6757 2.48105 18.0836 2.39468C16.7711 2.27913 15.4511 2.27913 14.1387 2.39468C12.5466 2.48141 11.0057 2.98751 9.6723 3.86169C8.33886 4.73587 7.26024 5.94705 6.54578 7.37246C5.71644 9.66838 5.62753 12.1665 6.29156 14.5156C6.608 16.1778 5.13778 16.5333 4.832 17.2445C4.29867 18.4729 5.54311 21.3209 5.936 22.5245C6.32889 23.728 8.15822 23.1022 8.624 24.1565C10.0907 27.4862 11.9627 29.8862 15.6249 30.1316C15.7385 30.1479 15.8532 30.1562 15.968 30.1565C16.0178 30.1565 16.0622 30.1565 16.112 30.1565C16.1618 30.1565 16.2062 30.1565 16.2542 30.1565C16.369 30.1563 16.4837 30.148 16.5973 30.1316C20.2613 29.8862 22.1333 27.4862 23.6 24.1565C24.064 23.1022 25.8951 23.7298 26.288 22.5245C26.6809 21.3191 27.9111 18.4658 27.392 17.2445Z" fill="url(#paint0_linear_855_10736)"/>
<path d="M1.06666 8.72534C0.9325 8.72557 0.799614 8.69935 0.675603 8.64817C0.551591 8.59699 0.438889 8.52186 0.343943 8.42708C0.248998 8.3323 0.173673 8.21973 0.12228 8.09581C0.0708868 7.97189 0.0444334 7.83905 0.0444336 7.70489V1.02045C0.0444334 0.88629 0.0708868 0.75345 0.12228 0.629528C0.173673 0.505606 0.248998 0.393034 0.343943 0.298254C0.438889 0.203473 0.551591 0.128345 0.675603 0.0771674C0.799614 0.0259899 0.9325 -0.000232173 1.06666 1.54873e-06H7.32443C7.58793 0.0109975 7.83699 0.12341 8.01955 0.313744C8.2021 0.504078 8.30404 0.757604 8.30404 1.02134C8.30404 1.28507 8.2021 1.53859 8.01955 1.72893C7.83699 1.91926 7.58793 2.03167 7.32443 2.04267H2.09066V7.70489C2.09066 7.8392 2.06414 7.97218 2.01264 8.09622C1.96114 8.22026 1.88565 8.33291 1.79052 8.42771C1.69538 8.52252 1.58247 8.59761 1.45825 8.64868C1.33404 8.69975 1.20096 8.7258 1.06666 8.72534Z" fill="#50E6FF"/>
<path d="M30.9333 8.72534C30.7993 8.72534 30.6666 8.69894 30.5428 8.64766C30.419 8.59638 30.3065 8.52121 30.2118 8.42645C30.117 8.3317 30.0418 8.2192 29.9906 8.0954C29.9393 7.97159 29.9129 7.8389 29.9129 7.70489V2.04267H24.672C24.4085 2.03167 24.1594 1.91926 23.9769 1.72893C23.7943 1.53859 23.6924 1.28507 23.6924 1.02134C23.6924 0.757604 23.7943 0.504078 23.9769 0.313744C24.1594 0.12341 24.4085 0.0109975 24.672 1.54873e-06H30.9333C31.0675 -0.000232173 31.2004 0.0259899 31.3244 0.0771674C31.4484 0.128345 31.5611 0.203473 31.656 0.298254C31.751 0.393034 31.8263 0.505606 31.8777 0.629528C31.9291 0.75345 31.9555 0.88629 31.9555 1.02045V7.70489C31.9555 7.83905 31.9291 7.97189 31.8777 8.09581C31.8263 8.21973 31.751 8.3323 31.656 8.42708C31.5611 8.52186 31.4484 8.59699 31.3244 8.64817C31.2004 8.69935 31.0675 8.72557 30.9333 8.72534Z" fill="#50E6FF"/>
<path d="M7.32799 32H1.06666C0.9325 32.0002 0.799614 31.974 0.675603 31.9228C0.551591 31.8717 0.438889 31.7965 0.343943 31.7018C0.248998 31.607 0.173673 31.4944 0.12228 31.3705C0.0708868 31.2466 0.0444334 31.1137 0.0444336 30.9796V24.2951C0.0554296 24.0316 0.167842 23.7826 0.358176 23.6C0.54851 23.4175 0.802036 23.3155 1.06577 23.3155C1.3295 23.3155 1.58302 23.4175 1.77336 23.6C1.96369 23.7826 2.0761 24.0316 2.0871 24.2951V29.9573H7.32799C7.59149 29.9683 7.84055 30.0808 8.0231 30.2711C8.20566 30.4614 8.30759 30.7149 8.30759 30.9787C8.30759 31.2424 8.20566 31.4959 8.0231 31.6863C7.84055 31.8766 7.59149 31.989 7.32799 32Z" fill="#50E6FF"/>
<path d="M30.9333 32H24.6756C24.4121 31.989 24.163 31.8766 23.9804 31.6863C23.7979 31.4959 23.696 31.2424 23.696 30.9787C23.696 30.7149 23.7979 30.4614 23.9804 30.2711C24.163 30.0808 24.4121 29.9683 24.6756 29.9573H29.9129V24.2951C29.9239 24.0316 30.0363 23.7826 30.2266 23.6C30.417 23.4175 30.6705 23.3155 30.9342 23.3155C31.198 23.3155 31.4515 23.4175 31.6418 23.6C31.8321 23.7826 31.9446 24.0316 31.9556 24.2951V30.9796C31.9556 31.1137 31.9291 31.2466 31.8777 31.3705C31.8263 31.4944 31.751 31.607 31.656 31.7018C31.5611 31.7965 31.4484 31.8717 31.3244 31.9228C31.2004 31.974 31.0675 32.0002 30.9333 32Z" fill="#50E6FF"/>
</g>
<defs>
<linearGradient id="paint0_linear_855_10736" x1="16.112" y1="2.2969" x2="16.112" y2="30.1493" gradientUnits="userSpaceOnUse">
<stop offset="0.225" stop-color="#5EA0EF"/>
<stop offset="1" stop-color="#0078D4"/>
</linearGradient>
<clipPath id="clip0_855_10736">
<rect width="32" height="32" fill="white"/>
</clipPath>
</defs>
</svg>
