<svg width="32" height="32" viewBox="0 0 32 32" fill="none" xmlns="http://www.w3.org/2000/svg">
<g clip-path="url(#clip0_855_10735)">
<path d="M15.6871 0.23468H2.33065C2.05089 0.235151 1.78275 0.346616 1.58509 0.544603C1.38744 0.742591 1.27643 1.01092 1.27643 1.29068V30.0907C1.27643 30.3704 1.38744 30.6388 1.58509 30.8368C1.78275 31.0347 2.05089 31.1462 2.33065 31.1467H25.4791C25.7589 31.1462 26.027 31.0347 26.2246 30.8368C26.4223 30.6388 26.5333 30.3704 26.5333 30.0907V11.0311C26.5333 10.7514 26.4223 10.483 26.2246 10.285C26.027 10.0871 25.7589 9.9756 25.4791 9.97513H17.7955C17.5158 9.97465 17.2476 9.86319 17.05 9.6652C16.8523 9.46721 16.7413 9.19889 16.7413 8.91913V1.29068C16.7415 1.15209 16.7145 1.01481 16.6616 0.886701C16.6087 0.758591 16.5311 0.642165 16.4332 0.544083C16.3353 0.446001 16.219 0.368189 16.0909 0.315098C15.9629 0.262007 15.8257 0.23468 15.6871 0.23468Z" fill="#83B9F9"/>
<path d="M15.2 1.58222V8.81778C15.2005 9.52096 15.4798 10.1953 15.9767 10.6928C16.4735 11.1904 17.1475 11.4706 17.8507 11.472H25.1395V29.8009H2.66666V1.58222H15.2ZM15.7102 0H2.15999C1.87709 0 1.60578 0.112381 1.40574 0.312419C1.2057 0.512458 1.09332 0.783769 1.09332 1.06667V30.3111C1.09332 30.4512 1.12091 30.5899 1.17452 30.7193C1.22812 30.8487 1.30669 30.9663 1.40574 31.0654C1.50479 31.1644 1.62238 31.243 1.75179 31.2966C1.88121 31.3502 2.01991 31.3778 2.15999 31.3778H25.6498C25.9327 31.3778 26.204 31.2654 26.404 31.0654C26.6041 30.8653 26.7164 30.594 26.7164 30.3111V10.96C26.7164 10.6771 26.6041 10.4058 26.404 10.2058C26.204 10.0057 25.9327 9.89333 25.6498 9.89333H17.8507C17.5678 9.89333 17.2964 9.78095 17.0964 9.58091C16.8964 9.38088 16.784 9.10956 16.784 8.82667V1.06667C16.784 0.783769 16.6716 0.512458 16.4716 0.312419C16.2715 0.112381 16.0002 0 15.7173 0L15.7102 0Z" fill="url(#paint0_linear_855_10735)"/>
<path d="M26.3111 10.1031L16.4124 0.23468V8.27557C16.4096 8.75713 16.5981 9.22013 16.9364 9.56281C17.2748 9.9055 17.7353 10.0998 18.2169 10.1031H26.3111Z" fill="#0078D4"/>
<path d="M21.0346 14.8071H5.78309C5.22638 14.8071 4.77509 15.2584 4.77509 15.8151V16.2169C4.77509 16.7736 5.22638 17.2249 5.78309 17.2249H21.0346C21.5913 17.2249 22.0426 16.7736 22.0426 16.2169V15.8151C22.0426 15.2584 21.5913 14.8071 21.0346 14.8071Z" fill="white"/>
<path opacity="0.8" d="M21.0346 19.7031H5.78309C5.22638 19.7031 4.77509 20.1544 4.77509 20.7111V21.1129C4.77509 21.6696 5.22638 22.1209 5.78309 22.1209H21.0346C21.5913 22.1209 22.0426 21.6696 22.0426 21.1129V20.7111C22.0426 20.1544 21.5913 19.7031 21.0346 19.7031Z" fill="white"/>
<path opacity="0.6" d="M21.0346 24.6009H5.78309C5.22638 24.6009 4.77509 25.0522 4.77509 25.6089V26.0107C4.77509 26.5674 5.22638 27.0187 5.78309 27.0187H21.0346C21.5913 27.0187 22.0426 26.5674 22.0426 26.0107V25.6089C22.0426 25.0522 21.5913 24.6009 21.0346 24.6009Z" fill="white"/>
<path d="M22.5956 31.6213C18.9049 31.6213 15.8702 28.7769 14.2667 23.7991C13.2289 21.2107 12.0581 18.6775 10.7591 16.2098C13.1058 16.2347 21.3102 16.3218 22.88 16.3218C26.6347 16.3218 29.5449 20.8089 29.5449 24.6773C29.5411 26.5188 28.8076 28.2836 27.505 29.5852C26.2024 30.8868 24.437 31.619 22.5956 31.6213Z" fill="#50E6FF"/>
<path d="M11.3778 16.5956C14.3004 16.6258 21.4329 16.7005 22.8782 16.7005C26.4196 16.7005 29.1644 20.9849 29.1644 24.6702C29.1644 26.4148 28.4714 28.0879 27.2379 29.3214C26.0043 30.555 24.3312 31.248 22.5867 31.248C19.072 31.248 16.1671 28.4925 14.6169 23.6871C13.6636 21.2675 12.5824 18.9003 11.3778 16.5956ZM10.1333 15.8222C10.1333 15.8222 13.2249 21.8062 13.904 23.9111C15.4667 28.7538 18.5476 32 22.5956 32C24.5395 32 26.4039 31.2278 27.7785 29.8532C29.1531 28.4786 29.9253 26.6142 29.9253 24.6702C29.9253 20.6222 26.9298 15.9413 22.88 15.9413C21.0436 15.9413 10.1333 15.8222 10.1333 15.8222Z" fill="#50E6FF"/>
<path d="M22.88 32C27.314 32 30.9084 28.4055 30.9084 23.9716C30.9084 19.5376 27.314 15.9431 22.88 15.9431C18.446 15.9431 14.8515 19.5376 14.8515 23.9716C14.8515 28.4055 18.446 32 22.88 32Z" fill="white"/>
<path d="M22.88 16.7929C24.2999 16.7925 25.688 17.2133 26.8687 18.0019C28.0495 18.7904 28.9699 19.9115 29.5135 21.2232C30.0571 22.5349 30.1995 23.9783 29.9227 25.371C29.6459 26.7636 28.9624 28.0429 27.9585 29.047C26.9546 30.0512 25.6755 30.735 24.2829 31.0122C22.8903 31.2893 21.4469 31.1472 20.135 30.604C18.8232 30.0607 17.7019 29.1406 16.913 27.96C16.1242 26.7794 15.7031 25.3914 15.7031 23.9716C15.705 22.0686 16.4617 20.244 17.8071 18.8982C19.1526 17.5524 20.977 16.7953 22.88 16.7929ZM22.88 15.9413C21.2918 15.9413 19.7392 16.4123 18.4186 17.2947C17.0981 18.1771 16.0688 19.4312 15.461 20.8985C14.8532 22.3659 14.6942 23.9805 15.0041 25.5382C15.3139 27.0959 16.0787 28.5267 17.2018 29.6498C18.3248 30.7728 19.7557 31.5376 21.3134 31.8475C22.8711 32.1573 24.4857 31.9983 25.953 31.3905C27.4204 30.7827 28.6745 29.7535 29.5569 28.4329C30.4392 27.1124 30.9102 25.5598 30.9102 23.9716C30.9104 22.917 30.7029 21.8726 30.2994 20.8983C29.896 19.9239 29.3045 19.0385 28.5587 18.2928C27.813 17.5471 26.9277 16.9556 25.9533 16.5521C24.9789 16.1487 23.9346 15.9411 22.88 15.9413Z" fill="#50E6FF"/>
<path d="M21.9093 22.9333H19.3173V20.3378H21.9093V22.9333ZM26.4444 20.3413H23.8524V22.9333H26.4444V20.3413ZM21.9093 24.8889H19.3173V27.4809H21.9093V24.8889ZM26.4444 24.8889H23.8524V27.4809H26.4444V24.8889Z" fill="#50E6FF"/>
</g>
<defs>
<linearGradient id="paint0_linear_855_10735" x1="13.9058" y1="31.3831" x2="13.9058" y2="0" gradientUnits="userSpaceOnUse">
<stop stop-color="#0078D4"/>
<stop offset="0.817" stop-color="#5EA0EF"/>
</linearGradient>
<clipPath id="clip0_855_10735">
<rect width="32" height="32" fill="white"/>
</clipPath>
</defs>
</svg>
