<svg width="32" height="32" viewBox="0 0 32 32" fill="none" xmlns="http://www.w3.org/2000/svg">
<path d="M17.7777 21.7422L17.3333 21.5467C16.8533 21.3511 16.4266 21.1733 16.0355 20.9778C15.6444 21.1733 15.2177 21.3511 14.7377 21.5467L14.2222 21.7422L13.0133 22.2756C13.9614 22.873 14.9609 23.3846 16 23.8045C17.0451 23.3856 18.0506 22.8739 19.0044 22.2756L17.7777 21.7422Z" fill="url(#paint0_linear_855_10746)"/>
<path opacity="0.3" d="M18.9689 9.15555C18.5469 9.40126 18.1071 9.61518 17.6533 9.79555C17.0311 10.0089 16 10.4711 16 10.4711L16.7644 10.88L18.2222 10.2933C18.6869 10.0825 19.133 9.8327 19.5556 9.54666L18.9689 9.15555Z" fill="url(#paint1_linear_855_10746)"/>
<path d="M11.6622 26.6667C11.3054 27.1492 11.0513 27.6998 10.9156 28.2845H22.0267V29.1733H10.7556C10.7556 29.3867 10.7556 29.6178 10.7556 29.8489C10.7604 30.1948 10.6287 30.5287 10.3892 30.7782C10.1496 31.0278 9.82138 31.1729 9.47558 31.1822C9.13274 31.1824 8.80341 31.0487 8.55769 30.8096C8.31197 30.5705 8.16929 30.2449 8.16002 29.9022C8.11174 28.2978 8.55156 26.7165 9.42132 25.3674C10.2911 24.0183 11.5498 22.965 13.0311 22.3467C13.9761 22.9187 14.9696 23.4065 16 23.8045L15.7334 23.9289L15.2356 24.1422C14.2341 24.5176 13.2936 25.0388 12.4445 25.6889H21.9556V26.6667H11.6622ZM17.7778 21.7422L17.3334 21.5467C16.8534 21.3511 16.4267 21.1733 16.0356 20.9778C15.6445 21.1733 15.2178 21.3511 14.7378 21.5467L14.2222 21.7422L13.0134 22.2756C13.9615 22.873 14.961 23.3846 16 23.8045C17.0452 23.3856 18.0507 22.8739 19.0045 22.2756L17.7778 21.7422ZM22.6845 2.82668H10.7911C10.7781 2.66101 10.7781 2.49457 10.7911 2.3289C10.8075 2.15847 10.7901 1.9865 10.74 1.82279C10.6898 1.65908 10.608 1.50685 10.499 1.37479C10.3901 1.24272 10.2562 1.13341 10.105 1.05309C9.95377 0.972772 9.78823 0.923022 9.6178 0.906679C9.44737 0.890337 9.2754 0.907723 9.11169 0.957844C8.94798 1.00797 8.79575 1.08984 8.66368 1.19879C8.53162 1.30775 8.42231 1.44165 8.34199 1.59285C8.26167 1.74405 8.21192 1.90959 8.19558 2.08001C8.19558 2.24001 7.8578 6.20446 13.0845 9.19112C14.0032 8.56623 14.9795 8.03046 16 7.59112L14.88 7.11112C14.3165 6.84434 13.7806 6.52279 13.28 6.15112H20.3911V5.33335H12.2311C11.7609 4.87093 11.3758 4.32933 11.0934 3.73335H22.6845V2.82668ZM18.9689 9.15557L18.2045 9.56446H18.0089C17.3191 9.81978 16.6478 10.1227 16 10.4711C17.2713 11.0685 18.4222 11.894 19.3956 12.9067H9.56447V13.7956H20.0711C20.3735 14.2805 20.5844 14.8168 20.6934 15.3778H9.56447V16.2845H20.7645C20.6943 16.8761 20.4603 17.4364 20.0889 17.9022H9.56447V18.8089H19.2889C18.3042 19.6788 17.1958 20.3977 16 20.9422C16.3911 21.1378 16.8178 21.3156 17.2978 21.5111L17.7422 21.7067L18.9511 22.24C22.8445 19.8222 23.3422 17.28 23.3422 16.16C23.2543 14.7206 22.8082 13.326 22.0445 12.1028C21.2807 10.8796 20.2235 9.86651 18.9689 9.15557Z" fill="#0078D4"/>
<path d="M14.2222 21.7422L13.0133 22.2755C9.10221 19.8578 8.60443 17.3155 8.60443 16.1955C8.68038 14.7325 9.12634 13.3127 9.90054 12.069C10.6747 10.8253 11.7519 9.79842 13.0311 9.08444L13.7955 9.49333H13.9911C14.6829 9.77167 15.3542 10.0984 16 10.4711C14.0089 11.4667 11.2178 13.3511 11.2178 16.1955C11.2178 16.6222 11.4667 18.7733 16 20.9422C15.6089 21.1378 15.1822 21.3155 14.7022 21.5111L14.2222 21.7422ZM23.8578 2.08C23.8261 1.73384 23.6588 1.41427 23.3923 1.19109C23.1259 0.967905 22.7819 0.85926 22.4355 0.888884C22.2613 0.899392 22.0911 0.945931 21.9358 1.02556C21.7804 1.10519 21.6433 1.21617 21.533 1.35151C21.4227 1.48684 21.3417 1.64357 21.2951 1.8118C21.2485 1.98003 21.2373 2.1561 21.2622 2.32888C21.2622 2.32888 21.8489 4.69333 17.5822 6.93333L16 7.59111C17.0376 8.01604 18.0318 8.53994 18.9689 9.15555C24.1955 6.20444 23.8755 2.24 23.8578 2.08ZM19.0044 22.2755C18.0506 22.8739 17.0451 23.3856 16 23.8044L16.2667 23.9289L16.7644 24.1422C18.9689 25.1022 21.3333 26.3822 21.2622 29.7778C21.2574 30.1237 21.389 30.4575 21.6286 30.7071C21.8682 30.9566 22.1964 31.1018 22.5422 31.1111C22.885 31.1112 23.2144 30.9775 23.4601 30.7384C23.7058 30.4994 23.8485 30.1738 23.8578 29.8311C23.9075 28.2287 23.4703 26.6489 22.6038 25.3C21.7374 23.9512 20.4824 22.8966 19.0044 22.2755ZM18.56 9.36888L18.9689 9.15555C18.0318 8.53994 17.0376 8.01604 16 7.59111C14.9624 8.01604 13.9682 8.53994 13.0311 9.15555L13.7955 9.56444H13.9911C14.6809 9.81976 15.3522 10.1227 16 10.4711C17.0489 10.0622 17.6889 9.79555 18.08 9.61777H18.2044C18.3293 9.56487 18.4484 9.49934 18.56 9.42222V9.36888Z" fill="#32BEDD"/>
<defs>
<linearGradient id="paint0_linear_855_10746" x1="16" y1="0.888893" x2="16" y2="31.1111" gradientUnits="userSpaceOnUse">
<stop stop-color="#FAA21D"/>
<stop offset="0.28" stop-color="#F99E1B"/>
<stop offset="0.57" stop-color="#F69113"/>
<stop offset="0.87" stop-color="#F27D07"/>
<stop offset="1" stop-color="#EF7100"/>
</linearGradient>
<linearGradient id="paint1_linear_855_10746" x1="17.6889" y1="9.86666" x2="17.92" y2="10.3467" gradientUnits="userSpaceOnUse">
<stop stop-color="#003C90"/>
<stop offset="0.15" stop-color="#194F9B" stop-opacity="0.9"/>
<stop offset="1" stop-color="#194F9B" stop-opacity="0"/>
</linearGradient>
</defs>
</svg>
