<svg width="32" height="32" viewBox="0 0 32 32" fill="none" xmlns="http://www.w3.org/2000/svg">
<g clip-path="url(#clip0_855_10741)">
<path d="M17.2444 24.2347C17.2417 22.7865 17.6393 21.3658 18.3933 20.1294C19.1473 18.893 20.2283 17.8891 21.517 17.2286C22.8058 16.568 24.252 16.2765 25.696 16.3863C27.14 16.4961 28.5255 17.0029 29.6996 17.8507V5.27466C29.6929 5.11812 29.6555 4.96442 29.5893 4.82241C29.5231 4.68039 29.4294 4.55286 29.3138 4.44713C29.1982 4.3414 29.0628 4.25957 28.9154 4.20633C28.7681 4.15308 28.6116 4.12949 28.4551 4.13689H1.24444C1.08799 4.12972 0.931656 4.15349 0.784395 4.20682C0.637134 4.26015 0.501837 4.34199 0.386247 4.44768C0.270657 4.55336 0.177044 4.6808 0.110767 4.82271C0.0444893 4.96461 0.00684896 5.11819 0 5.27466L0 25.744C0.00684896 25.9005 0.0444893 26.0541 0.110767 26.196C0.177044 26.3379 0.270657 26.4653 0.386247 26.571C0.501837 26.6767 0.637134 26.7585 0.784395 26.8118C0.931656 26.8652 1.08799 26.8889 1.24444 26.8818H17.7191C17.4093 26.0334 17.2487 25.1378 17.2444 24.2347Z" fill="#5EA0EF"/>
<path d="M17.2444 24.2347C17.2417 22.7865 17.6392 21.3658 18.3932 20.1294C19.1472 18.893 20.2283 17.8891 21.517 17.2286C22.8057 16.568 24.252 16.2766 25.696 16.3863C27.1399 16.4961 28.5255 17.0029 29.6995 17.8507V5.27468C29.7 5.12573 29.6711 4.97815 29.6146 4.84036C29.558 4.70257 29.4748 4.57727 29.3698 4.47162C29.2648 4.36597 29.1401 4.28203 29.0026 4.2246C28.8652 4.16717 28.7178 4.13737 28.5689 4.1369H14.8035V26.8818H17.7191C17.4092 26.0334 17.2486 25.1378 17.2444 24.2347Z" fill="#0078D4"/>
<path d="M12.4782 0.888885H3.57156C3.49335 0.889119 3.41596 0.904754 3.34379 0.934899C3.27162 0.965044 3.2061 1.00911 3.15096 1.06458C3.09582 1.12004 3.05215 1.18583 3.02244 1.25817C2.99273 1.33052 2.97755 1.40801 2.97779 1.48622V24.1493C2.97778 24.3071 3.04023 24.4585 3.15148 24.5705C3.26274 24.6824 3.41376 24.7457 3.57156 24.7467H12.4782C12.7758 24.7179 13.0761 24.7511 13.3603 24.844C13.6444 24.9369 13.9062 25.0877 14.1293 25.2867C14.3524 25.4857 14.5319 25.7288 14.6565 26.0005C14.7811 26.2723 14.8481 26.5669 14.8533 26.8658V3.27644C14.8543 2.96369 14.7936 2.65381 14.6747 2.36453C14.5558 2.07525 14.3811 1.81223 14.1605 1.5905C13.94 1.36877 13.6779 1.19268 13.3892 1.0723C13.1005 0.951909 12.791 0.889585 12.4782 0.888885Z" fill="#F2F2F2"/>
<path d="M17.2445 24.2347C17.2437 23.064 17.5043 21.9079 18.0073 20.8507C18.5102 19.7936 19.2428 18.8621 20.1517 18.1241C21.0605 17.3862 22.1226 16.8604 23.2604 16.5852C24.3983 16.31 25.5833 16.2923 26.7289 16.5333V1.48444C26.7291 1.40617 26.7139 1.32862 26.684 1.25626C26.6542 1.18389 26.6103 1.11815 26.555 1.0628C26.4996 1.00745 26.4339 0.96359 26.3615 0.933744C26.2892 0.903898 26.2116 0.888653 26.1333 0.888888H17.2285C16.9157 0.889587 16.6061 0.951911 16.3175 1.0723C16.0288 1.19268 15.7667 1.36877 15.5462 1.5905C15.3256 1.81223 15.1509 2.07525 15.032 2.36453C14.9131 2.65382 14.8524 2.96369 14.8533 3.27644V26.8658C14.8586 26.5669 14.9256 26.2723 15.0502 26.0005C15.1748 25.7288 15.3543 25.4857 15.5774 25.2867C15.8004 25.0877 16.0623 24.9369 16.3464 24.844C16.6306 24.7511 16.9309 24.7179 17.2285 24.7467H17.2782C17.2676 24.576 17.2445 24.4071 17.2445 24.2347Z" fill="url(#paint0_linear_855_10741)"/>
<path d="M25.1218 31.1129C28.9205 31.1129 32 28.0334 32 24.2347C32 20.4359 28.9205 17.3564 25.1218 17.3564C21.323 17.3564 18.2435 20.4359 18.2435 24.2347C18.2435 28.0334 21.323 31.1129 25.1218 31.1129Z" fill="url(#paint1_linear_855_10741)"/>
<path d="M12.4284 6.66133V7.312C12.4284 7.38178 12.4007 7.4487 12.3514 7.49805C12.302 7.54739 12.2351 7.57511 12.1653 7.57511H5.66576C5.63129 7.57511 5.59716 7.56829 5.56534 7.55505C5.53352 7.5418 5.50463 7.5224 5.48034 7.49794C5.45605 7.47348 5.43683 7.44446 5.42381 7.41255C5.41078 7.38064 5.40419 7.34647 5.40442 7.312V6.66133C5.40442 6.59202 5.43196 6.52555 5.48097 6.47654C5.52998 6.42753 5.59645 6.4 5.66576 6.4H12.1653C12.2348 6.4 12.3014 6.42747 12.3507 6.47643C12.4 6.52539 12.428 6.59186 12.4284 6.66133ZM12.1653 9.92889H5.66576C5.63129 9.92889 5.59716 9.9357 5.56534 9.94895C5.53352 9.96219 5.50463 9.9816 5.48034 10.0061C5.45605 10.0305 5.43683 10.0595 5.42381 10.0914C5.41078 10.1234 5.40419 10.1575 5.40442 10.192V10.8444C5.40419 10.8789 5.41078 10.9131 5.42381 10.945C5.43683 10.9769 5.45605 11.0059 5.48034 11.0304C5.50463 11.0548 5.53352 11.0742 5.56534 11.0875C5.59716 11.1007 5.63129 11.1076 5.66576 11.1076H12.1653C12.2351 11.1076 12.302 11.0798 12.3514 11.0305C12.4007 10.9811 12.4284 10.9142 12.4284 10.8444V10.192C12.4284 10.1222 12.4007 10.0553 12.3514 10.006C12.302 9.95661 12.2351 9.92889 12.1653 9.92889ZM12.1653 2.86755H5.66576C5.63129 2.86755 5.59716 2.87437 5.56534 2.88762C5.53352 2.90086 5.50463 2.92027 5.48034 2.94472C5.45605 2.96918 5.43683 2.9982 5.42381 3.03011C5.41078 3.06202 5.40419 3.0962 5.40442 3.13066V3.78133C5.40419 3.8158 5.41078 3.84997 5.42381 3.88189C5.43683 3.9138 5.45605 3.94282 5.48034 3.96727C5.50463 3.99173 5.53352 4.01114 5.56534 4.02438C5.59716 4.03763 5.63129 4.04444 5.66576 4.04444H12.1653C12.2351 4.04444 12.302 4.01672 12.3514 3.96738C12.4007 3.91804 12.4284 3.85111 12.4284 3.78133V3.13066C12.4284 3.06088 12.4007 2.99396 12.3514 2.94462C12.302 2.89527 12.2351 2.86755 12.1653 2.86755ZM12.1653 13.4596H5.66576C5.59629 13.46 5.52982 13.488 5.48086 13.5372C5.4319 13.5865 5.40442 13.6532 5.40442 13.7227V14.3733C5.40419 14.4078 5.41078 14.442 5.42381 14.4739C5.43683 14.5058 5.45605 14.5348 5.48034 14.5593C5.50463 14.5837 5.53352 14.6031 5.56534 14.6164C5.59716 14.6296 5.63129 14.6364 5.66576 14.6364H12.1653C12.2351 14.6364 12.302 14.6087 12.3514 14.5594C12.4007 14.51 12.4284 14.4431 12.4284 14.3733V13.7227C12.4284 13.6529 12.4007 13.586 12.3514 13.5366C12.302 13.4873 12.2351 13.4596 12.1653 13.4596ZM12.1653 16.9902H5.66576C5.59629 16.9907 5.52982 17.0186 5.48086 17.0679C5.4319 17.1172 5.40442 17.1839 5.40442 17.2533V17.904C5.40419 17.9385 5.41078 17.9726 5.42381 18.0046C5.43683 18.0365 5.45605 18.0655 5.48034 18.0899C5.50463 18.1144 5.53352 18.1338 5.56534 18.147C5.59716 18.1603 5.63129 18.1671 5.66576 18.1671H12.1653C12.2351 18.1671 12.302 18.1394 12.3514 18.09C12.4007 18.0407 12.4284 17.9738 12.4284 17.904V17.2533C12.4284 17.1836 12.4007 17.1166 12.3514 17.0673C12.302 17.0179 12.2351 16.9902 12.1653 16.9902ZM8.6542 20.5209H5.66576C5.63121 20.5211 5.59704 20.5282 5.5652 20.5416C5.53337 20.555 5.5045 20.5746 5.48023 20.5992C5.45596 20.6238 5.43678 20.6529 5.42377 20.685C5.41076 20.717 5.40419 20.7512 5.40442 20.7858V21.4347C5.40419 21.4691 5.41078 21.5033 5.42381 21.5352C5.43683 21.5671 5.45605 21.5962 5.48034 21.6206C5.50463 21.6451 5.53352 21.6645 5.56534 21.6777C5.59716 21.691 5.63129 21.6978 5.66576 21.6978H8.6542C8.68867 21.6978 8.7228 21.691 8.75462 21.6777C8.78645 21.6645 8.81533 21.6451 8.83963 21.6206C8.86392 21.5962 8.88313 21.5671 8.89616 21.5352C8.90918 21.5033 8.91577 21.4691 8.91554 21.4347V20.7858C8.91577 20.7512 8.9092 20.717 8.89619 20.685C8.88318 20.6529 8.864 20.6238 8.83973 20.5992C8.81546 20.5746 8.78659 20.555 8.75476 20.5416C8.72292 20.5282 8.68876 20.5211 8.6542 20.5209Z" fill="#B3B3B3"/>
<path d="M29.7814 24.3555C29.782 24.7537 29.7426 25.151 29.664 25.5413C29.586 25.9281 29.4717 26.3067 29.3227 26.672C29.1752 27.0371 28.9887 27.3852 28.7662 27.7102C28.5934 27.9631 28.4039 28.2042 28.1991 28.432C28.1744 28.458 28.1446 28.4788 28.1116 28.4929C28.0786 28.5071 28.0431 28.5144 28.0071 28.5144C27.9712 28.5144 27.9357 28.5071 27.9027 28.4929C27.8697 28.4788 27.8399 28.458 27.8151 28.432L27.7636 28.3804C27.7157 28.3305 27.6889 28.2639 27.6889 28.1947C27.6889 28.1254 27.7157 28.0589 27.7636 28.0089C27.9469 27.8114 28.1151 27.6005 28.2667 27.3778C28.4649 27.0831 28.6329 26.7693 28.768 26.4409C28.9036 26.1134 29.0066 25.7734 29.0756 25.4258C29.2128 24.7213 29.2128 23.9969 29.0756 23.2924C29.0071 22.9458 28.9041 22.6069 28.768 22.2809C28.6317 21.9536 28.4638 21.6404 28.2667 21.3458C28.1174 21.1184 27.9504 20.9032 27.7671 20.7022C27.7192 20.6522 27.6925 20.5857 27.6925 20.5164C27.6925 20.4472 27.7192 20.3806 27.7671 20.3307L27.8205 20.2755C27.8453 20.25 27.875 20.2297 27.9079 20.2159C27.9407 20.202 27.9759 20.1949 28.0116 20.1949C28.0472 20.1949 28.0825 20.202 28.1153 20.2159C28.1481 20.2297 28.1778 20.25 28.2027 20.2755C28.4095 20.5023 28.5991 20.7441 28.7698 20.9991C28.9887 21.3262 29.1739 21.6747 29.3227 22.0391C29.4713 22.4043 29.5867 22.7821 29.6676 23.168C29.7482 23.5586 29.7863 23.9567 29.7814 24.3555ZM27.792 22.736C27.614 22.3081 27.3678 21.9119 27.0631 21.5627C27.0385 21.5367 27.0089 21.516 26.9761 21.5018C26.9432 21.4877 26.9078 21.4804 26.872 21.4804C26.8362 21.4804 26.8008 21.4877 26.768 21.5018C26.7351 21.516 26.7055 21.5367 26.6809 21.5627L26.6276 21.616C26.5806 21.6623 26.5527 21.7245 26.5494 21.7903C26.5461 21.8561 26.5677 21.9208 26.6098 21.9715C26.8724 22.2682 27.0839 22.6064 27.2356 22.9724C27.4961 23.5977 27.5756 24.2837 27.465 24.952C27.3543 25.6203 27.058 26.244 26.6098 26.752C26.5677 26.8027 26.5461 26.8674 26.5494 26.9332C26.5527 26.9991 26.5806 27.0613 26.6276 27.1075L26.6809 27.1591C26.7055 27.1851 26.7351 27.2058 26.768 27.2199C26.8008 27.2341 26.8362 27.2414 26.872 27.2414C26.9078 27.2414 26.9432 27.2341 26.9761 27.2199C27.0089 27.2058 27.0385 27.1851 27.0631 27.1591C27.3678 26.8105 27.614 26.4149 27.792 25.9875C28.221 24.9498 28.221 23.7844 27.792 22.7467V22.736ZM25.6978 23.2427C25.7964 23.3713 25.8777 23.5124 25.9396 23.6622C26.1222 24.1089 26.1222 24.6093 25.9396 25.056C25.8783 25.2041 25.7976 25.3434 25.6996 25.4702C25.6581 25.5216 25.6375 25.5866 25.6418 25.6525C25.6461 25.7184 25.6749 25.7802 25.7227 25.8258L25.7742 25.8755C25.8006 25.9021 25.8323 25.9229 25.8672 25.9365C25.9021 25.95 25.9394 25.9561 25.9768 25.9542C26.0142 25.9524 26.0508 25.9427 26.0842 25.9257C26.1176 25.9088 26.1471 25.8851 26.1707 25.856C26.3081 25.6848 26.4195 25.4943 26.5014 25.2907C26.6212 24.9967 26.6817 24.6819 26.6791 24.3644C26.6797 24.0472 26.6194 23.7327 26.5014 23.4382C26.4183 23.237 26.3082 23.048 26.1742 22.8764C26.1506 22.8472 26.1211 22.8233 26.0876 22.8062C26.0541 22.7891 26.0174 22.7792 25.9799 22.7772C25.9423 22.7752 25.9048 22.7811 25.8697 22.7945C25.8346 22.8079 25.8027 22.8286 25.776 22.8551L25.7245 22.9067C25.6811 22.9505 25.6546 23.0083 25.6497 23.0698C25.6448 23.1313 25.6619 23.1925 25.6978 23.2427ZM22.32 22.5422H21.6889C21.6189 22.5422 21.5495 22.556 21.4848 22.5828C21.4201 22.6096 21.3613 22.6489 21.3118 22.6984C21.2623 22.7479 21.223 22.8067 21.1962 22.8714C21.1694 22.9362 21.1556 23.0055 21.1556 23.0755V25.6409C21.1556 25.7823 21.2118 25.918 21.3118 26.018C21.4118 26.118 21.5475 26.1742 21.6889 26.1742H22.3218C22.4623 26.1743 22.5971 26.2299 22.6969 26.3289L24.2827 27.9111C24.3321 27.9609 24.3992 27.989 24.4694 27.9893C24.5109 27.9893 24.5521 27.9811 24.5905 27.9652C24.6288 27.9493 24.6637 27.926 24.6931 27.8966C24.7225 27.8673 24.7458 27.8324 24.7617 27.794C24.7776 27.7556 24.7858 27.7144 24.7858 27.6729V21.0471C24.7853 20.9624 24.7515 20.8813 24.6916 20.8213C24.6316 20.7614 24.5505 20.7276 24.4658 20.7271C24.3951 20.7272 24.3273 20.7553 24.2774 20.8053L22.6969 22.3858C22.647 22.4357 22.5877 22.4753 22.5224 22.5021C22.4571 22.529 22.3871 22.5426 22.3165 22.5422H22.32Z" fill="white"/>
</g>
<defs>
<linearGradient id="paint0_linear_855_10741" x1="14.8533" y1="13.8773" x2="26.7289" y2="13.8773" gradientUnits="userSpaceOnUse">
<stop stop-color="#CCCCCC"/>
<stop offset="1" stop-color="#F0F0F0"/>
</linearGradient>
<linearGradient id="paint1_linear_855_10741" x1="25.1218" y1="17.3564" x2="25.1218" y2="31.1129" gradientUnits="userSpaceOnUse">
<stop stop-color="#42E8CA"/>
<stop offset="1" stop-color="#3CD4C2"/>
</linearGradient>
<clipPath id="clip0_855_10741">
<rect width="32" height="32" fill="white"/>
</clipPath>
</defs>
</svg>
