<svg width="32" height="32" viewBox="0 0 32 32" fill="none" xmlns="http://www.w3.org/2000/svg">
<g clip-path="url(#clip0_855_10749)">
<path d="M32 16C32 7.16344 24.8366 0 16 0C7.16344 0 0 7.16344 0 16C0 24.8366 7.16344 32 16 32C24.8366 32 32 24.8366 32 16Z" fill="#0078D4"/>
<path d="M16 1.55911H15.9982C8.02372 1.55911 1.55911 8.02372 1.55911 15.9982V16C1.55911 23.9745 8.02372 30.4391 15.9982 30.4391H16C23.9745 30.4391 30.4391 23.9745 30.4391 16V15.9982C30.4391 8.02372 23.9745 1.55911 16 1.55911Z" fill="url(#paint0_linear_855_10749)"/>
<path d="M11.3991 25.4702C10.6285 25.5317 9.85849 25.3448 9.20179 24.9369C8.96212 24.6754 8.78142 24.3655 8.67193 24.0281C8.56243 23.6907 8.52669 23.3337 8.56712 22.9813V17.904C8.56712 17.0738 8.22579 16.6347 7.54312 16.6347V15.3653C8.22579 15.3653 8.56712 14.9262 8.56712 14.048V9.06667C8.52773 8.7072 8.56384 8.34348 8.67313 7.99877C8.78242 7.65407 8.96248 7.33599 9.20179 7.06489C9.84874 6.63428 10.6268 6.44545 11.3991 6.53155V7.80089C10.6667 7.80089 10.2756 8.192 10.2756 9.02044V13.9004C10.2756 15.024 9.93423 15.7067 9.2089 16C9.58253 16.1961 9.88592 16.5035 10.077 16.8797C10.2682 17.2559 10.3375 17.6822 10.2756 18.0996V22.9333C10.2557 23.2761 10.3413 23.6167 10.5209 23.9093C10.6302 24.0143 10.7607 24.0947 10.9035 24.1453C11.0464 24.1959 11.1983 24.2154 11.3493 24.2027L11.3991 25.472V25.4702Z" fill="white"/>
<path d="M19.8009 6.52979C20.5715 6.46836 21.3415 6.65526 21.9982 7.06312C22.2379 7.32462 22.4186 7.63454 22.5281 7.97193C22.6376 8.30931 22.6733 8.66628 22.6329 9.01868V14.096C22.6329 14.9262 22.9742 15.3653 23.6569 15.3653V16.6347C22.9742 16.6347 22.6329 17.0738 22.6329 17.952V22.8836C22.6731 23.2436 22.6374 23.6081 22.5281 23.9535C22.4188 24.2989 22.2383 24.6176 21.9982 24.8889C21.359 25.3398 20.5798 25.5479 19.8009 25.4756V24.2062C20.5333 24.2062 20.9245 23.8151 20.9245 22.9867V18.0996C20.9245 16.976 21.2658 16.2933 21.9911 16C21.6175 15.8039 21.3141 15.4965 21.123 15.1203C20.9319 14.7441 20.8625 14.3178 20.9245 13.9005V9.06668C20.9443 8.72392 20.8587 8.3833 20.6791 8.09068C20.5698 7.98574 20.4394 7.90531 20.2965 7.85473C20.1537 7.80415 20.0017 7.78459 19.8507 7.79735L19.8009 6.52979Z" fill="white"/>
</g>
<defs>
<linearGradient id="paint0_linear_855_10749" x1="16" y1="1.55911" x2="16" y2="30.4409" gradientUnits="userSpaceOnUse">
<stop stop-color="#5EA0EF"/>
<stop offset="1" stop-color="#0078D4"/>
</linearGradient>
<clipPath id="clip0_855_10749">
<rect width="32" height="32" fill="white"/>
</clipPath>
</defs>
</svg>
