<svg width="32" height="32" viewBox="0 0 32 32" fill="none" xmlns="http://www.w3.org/2000/svg">
<g clip-path="url(#clip0_855_10734)">
<path d="M0.643556 5.57867C0.473182 5.57867 0.30976 5.51111 0.18912 5.3908C0.0684814 5.2705 0.000470646 5.10726 0 4.93689L0 0.641778C0.000470646 0.471404 0.0684814 0.30817 0.18912 0.187864C0.30976 0.0675583 0.473182 -6.50061e-07 0.643556 0L4.672 0C4.84221 0 5.00545 0.0676157 5.12581 0.187972C5.24616 0.308329 5.31378 0.471568 5.31378 0.641778C5.31378 0.811988 5.24616 0.975227 5.12581 1.09558C5.00545 1.21594 4.84221 1.28356 4.672 1.28356H1.28711V4.93333C1.28711 5.10387 1.21961 5.26748 1.09936 5.3884C0.979101 5.50932 0.81587 5.57773 0.645333 5.57867H0.643556ZM32 4.93689V0.641778C31.9995 0.471404 31.9315 0.30817 31.8109 0.187864C31.6902 0.0675583 31.5268 -6.50061e-07 31.3564 0L27.328 0C27.1578 0 26.9946 0.0676157 26.8742 0.187972C26.7538 0.308329 26.6862 0.471568 26.6862 0.641778C26.6862 0.811988 26.7538 0.975227 26.8742 1.09558C26.9946 1.21594 27.1578 1.28356 27.328 1.28356H30.7058V4.93333C30.7058 5.10401 30.7736 5.26771 30.8943 5.3884C31.015 5.50909 31.1787 5.57689 31.3493 5.57689C31.52 5.57689 31.6837 5.50909 31.8044 5.3884C31.9251 5.26771 31.9929 5.10401 31.9929 4.93333L32 4.93689ZM5.31556 31.3582C5.31556 31.2738 5.2989 31.1902 5.26653 31.1122C5.23417 31.0342 5.18674 30.9634 5.12696 30.9038C5.06717 30.8442 4.99621 30.7969 4.91814 30.7648C4.84007 30.7326 4.75643 30.7162 4.672 30.7164H1.28711V27.0667C1.28711 26.896 1.21931 26.7323 1.09862 26.6116C0.977928 26.4909 0.814237 26.4231 0.643556 26.4231C0.472874 26.4231 0.309183 26.4909 0.188493 26.6116C0.067803 26.7323 0 26.896 0 27.0667L0 31.36C0.000939598 31.5301 0.0691571 31.6928 0.189746 31.8128C0.310334 31.9327 0.473488 32 0.643556 32H4.672C4.84237 32 5.0058 31.9324 5.12644 31.8121C5.24707 31.6918 5.31508 31.5286 5.31556 31.3582ZM32 31.3582V27.0667C32 26.896 31.9322 26.7323 31.8115 26.6116C31.6908 26.4909 31.5271 26.4231 31.3564 26.4231C31.1858 26.4231 31.0221 26.4909 30.9014 26.6116C30.7807 26.7323 30.7129 26.896 30.7129 27.0667V30.7164H27.3351C27.2508 30.7164 27.1674 30.733 27.0895 30.7653C27.0117 30.7975 26.9409 30.8448 26.8813 30.9044C26.8217 30.964 26.7744 31.0348 26.7422 31.1126C26.7099 31.1905 26.6933 31.2739 26.6933 31.3582C26.6933 31.4425 26.7099 31.526 26.7422 31.6038C26.7744 31.6817 26.8217 31.7524 26.8813 31.812C26.9409 31.8716 27.0117 31.9189 27.0895 31.9511C27.1674 31.9834 27.2508 32 27.3351 32H31.3636C31.5324 31.9981 31.6937 31.93 31.8128 31.8103C31.9318 31.6906 31.9991 31.5271 32 31.3582Z" fill="#FAA21D"/>
<path d="M29.6604 4.73956V23.3404C29.6658 23.4883 29.6129 23.6324 29.5132 23.7418C29.4135 23.8512 29.2749 23.9171 29.1271 23.9253H18.8942C18.7617 23.9253 18.6347 23.8727 18.541 23.779C18.4473 23.6853 18.3947 23.5583 18.3947 23.4258V14.6951C18.3597 14.2783 18.1705 13.8895 17.8641 13.6048C17.5577 13.32 17.156 13.1599 16.7378 13.1556H12.9404C12.8089 13.1546 12.683 13.1018 12.5901 13.0086C12.4972 12.9154 12.4449 12.7894 12.4444 12.6578V4.73956C12.4377 4.59112 12.49 4.44604 12.5899 4.33609C12.6899 4.22613 12.8294 4.16026 12.9778 4.15289H29.12C29.2693 4.15936 29.41 4.22472 29.5113 4.33466C29.6126 4.44461 29.6662 4.59019 29.6604 4.73956Z" fill="url(#paint0_linear_855_10734)"/>
<path d="M26.8764 11.3867H23.6942C23.544 11.3679 23.407 11.2913 23.3123 11.1731C23.2177 11.0549 23.1729 10.9045 23.1875 10.7538C23.1729 10.6029 23.2176 10.4522 23.3122 10.3337C23.4068 10.2153 23.5438 10.1383 23.6942 10.1191H26.8764C27.0271 10.1379 27.1646 10.2147 27.2595 10.3332C27.3545 10.4517 27.3995 10.6026 27.3849 10.7538C27.3994 10.9047 27.3544 11.0554 27.2594 11.1737C27.1644 11.2919 27.027 11.3683 26.8764 11.3867Z" fill="#F78D1E"/>
<path d="M16.736 13.9076H1.77777C1.54923 13.9146 1.33106 14.0045 1.16392 14.1606C0.996785 14.3166 0.892079 14.5281 0.869324 14.7556V24.8658C0.890253 25.0938 0.994456 25.3062 1.16203 25.4623C1.3296 25.6184 1.5488 25.7073 1.77777 25.712H6.7271C6.74578 25.7118 6.76432 25.7152 6.78166 25.7221C6.79901 25.7291 6.81482 25.7394 6.82819 25.7524C6.84156 25.7654 6.85223 25.781 6.8596 25.7982C6.86696 25.8153 6.87087 25.8338 6.8711 25.8525V27.5556C6.88309 27.6425 6.9283 27.7215 6.99724 27.7759C7.06619 27.8302 7.15351 27.8558 7.24088 27.8471C7.29638 27.84 7.34908 27.8186 7.39377 27.7849L7.88799 27.4631L9.25688 26.5565L10.5013 25.728C10.5291 25.7103 10.5609 25.6999 10.5938 25.6978H16.736C16.9645 25.6994 17.1851 25.6146 17.3536 25.4602C17.5222 25.3059 17.626 25.0935 17.6444 24.8658V14.7556C17.6243 14.527 17.5204 14.314 17.3527 14.1575C17.185 14.001 16.9654 13.9119 16.736 13.9076Z" fill="url(#paint1_linear_855_10734)"/>
<path d="M5.86667 22.0658H3.42934C3.14845 22.0658 2.92267 21.7636 2.92267 21.3902C2.92267 21.0169 3.14845 20.7165 3.42934 20.7165H5.86667C6.14756 20.7165 6.37511 21.0187 6.37511 21.3902C6.37511 21.7618 6.15289 22.0658 5.86667 22.0658Z" fill="#9CEBFF"/>
<path d="M21.5467 11.3867H15.2231C15.1371 11.3912 15.051 11.3782 14.9701 11.3484C14.8893 11.3186 14.8153 11.2727 14.7528 11.2134C14.6903 11.1541 14.6405 11.0827 14.6064 11.0035C14.5724 10.9243 14.5549 10.8391 14.5549 10.7529C14.5549 10.6667 14.5724 10.5814 14.6064 10.5023C14.6405 10.4231 14.6903 10.3517 14.7528 10.2924C14.8153 10.2331 14.8893 10.1872 14.9701 10.1574C15.051 10.1276 15.1371 10.1146 15.2231 10.1191H21.5467C21.6327 10.1146 21.7188 10.1276 21.7997 10.1574C21.8805 10.1872 21.9545 10.2331 22.017 10.2924C22.0795 10.3517 22.1293 10.4231 22.1633 10.5023C22.1974 10.5814 22.2149 10.6667 22.2149 10.7529C22.2149 10.8391 22.1974 10.9243 22.1633 11.0035C22.1293 11.0827 22.0795 11.1541 22.017 11.2134C21.9545 11.2727 21.8805 11.3186 21.7997 11.3484C21.7188 11.3782 21.6327 11.3912 21.5467 11.3867ZM27.5111 14.1422C27.5106 13.9742 27.4436 13.8132 27.3246 13.6946C27.2056 13.576 27.0445 13.5093 26.8764 13.5093H20.832C20.746 13.5048 20.6599 13.5178 20.579 13.5476C20.4982 13.5774 20.4242 13.6233 20.3617 13.6826C20.2992 13.7419 20.2494 13.8133 20.2153 13.8925C20.1813 13.9717 20.1638 14.0569 20.1638 14.1431C20.1638 14.2293 20.1813 14.3146 20.2153 14.3937C20.2494 14.4729 20.2992 14.5443 20.3617 14.6036C20.4242 14.6629 20.4982 14.7089 20.579 14.7386C20.6599 14.7684 20.746 14.7815 20.832 14.7769H26.8764C27.0448 14.7769 27.2062 14.71 27.3252 14.591C27.4442 14.472 27.5111 14.3105 27.5111 14.1422ZM10.3876 18.0427C10.3876 17.9594 10.3711 17.877 10.3392 17.8001C10.3073 17.7232 10.2605 17.6533 10.2016 17.5945C10.1426 17.5357 10.0726 17.4891 9.99563 17.4574C9.91864 17.4257 9.83615 17.4095 9.75289 17.4098H3.42934C3.26148 17.4098 3.10051 17.4765 2.98182 17.5952C2.86313 17.7138 2.79645 17.8748 2.79645 18.0427C2.79645 18.2105 2.86313 18.3715 2.98182 18.4902C3.10051 18.6089 3.26148 18.6756 3.42934 18.6756H9.75289C9.83615 18.6758 9.91864 18.6596 9.99563 18.6279C10.0726 18.5962 10.1426 18.5496 10.2016 18.4908C10.2605 18.432 10.3073 18.3622 10.3392 18.2853C10.3711 18.2084 10.3876 18.1259 10.3876 18.0427ZM15.7209 21.4311C15.7204 21.2631 15.6533 21.1021 15.5344 20.9835C15.4154 20.8648 15.2542 20.7982 15.0862 20.7982H8.02134C7.93528 20.7937 7.8492 20.8067 7.76834 20.8365C7.68748 20.8663 7.61354 20.9122 7.55101 20.9715C7.48849 21.0308 7.4387 21.1022 7.40467 21.1814C7.37064 21.2606 7.35309 21.3458 7.35309 21.432C7.35309 21.5182 7.37064 21.6034 7.40467 21.6826C7.4387 21.7618 7.48849 21.8332 7.55101 21.8925C7.61354 21.9518 7.68748 21.9977 7.76834 22.0275C7.8492 22.0573 7.93528 22.0703 8.02134 22.0658H15.0844C15.1678 22.0658 15.2503 22.0494 15.3273 22.0175C15.4043 21.9856 15.4743 21.9388 15.5332 21.8799C15.5922 21.821 15.6389 21.751 15.6708 21.674C15.7027 21.597 15.7191 21.5145 15.7191 21.4311H15.7209Z" fill="#F2F2F2"/>
</g>
<defs>
<linearGradient id="paint0_linear_855_10734" x1="21.0507" y1="3.85778" x2="21.0507" y2="23.904" gradientUnits="userSpaceOnUse">
<stop offset="0.001" stop-color="#FFB34D"/>
<stop offset="1" stop-color="#FAA21D"/>
</linearGradient>
<linearGradient id="paint1_linear_855_10734" x1="9.2551" y1="13.4916" x2="9.2551" y2="27.9093" gradientUnits="userSpaceOnUse">
<stop stop-color="#50E6FF"/>
<stop offset="1" stop-color="#32BEDD"/>
</linearGradient>
<clipPath id="clip0_855_10734">
<rect width="32" height="32" fill="white"/>
</clipPath>
</defs>
</svg>
