<svg width="32" height="32" viewBox="0 0 32 32" fill="none" xmlns="http://www.w3.org/2000/svg">
<g clip-path="url(#clip0_855_10730)">
<path d="M26.8089 20.7111C25.6556 21.6064 24.3372 22.2658 22.9291 22.6516C21.521 23.0375 20.0506 23.1422 18.602 22.9597C17.1534 22.7773 15.7549 22.3114 14.4864 21.5885C13.2179 20.8656 12.1042 19.9 11.2089 18.7467C10.3135 17.5934 9.65415 16.275 9.26832 14.8669C8.8825 13.4587 8.77781 11.9884 8.96022 10.5398C9.14264 9.09121 9.60859 7.69273 10.3315 6.42421C11.0544 5.1557 12.02 4.04198 13.1733 3.14666L13.2978 3.05777C15.6387 1.26608 18.5956 0.477731 21.5178 0.86614C24.44 1.25455 27.0883 2.7879 28.88 5.12888C30.6717 7.46986 31.46 10.4267 31.0716 13.3489C30.6832 16.2712 29.1498 18.9194 26.8089 20.7111Z" fill="#F2F2F2"/>
<path d="M28.8711 5.22667C27.0945 2.87353 24.4567 1.3216 21.5368 0.91162C18.617 0.50164 15.6538 1.26713 13.2978 3.04L13.1734 3.12889C11.3137 4.54508 9.94724 6.51086 9.2677 8.74737C8.58817 10.9839 8.6301 13.3776 9.38754 15.5889C10.145 17.8003 11.5795 19.717 13.4876 21.0672C15.3957 22.4174 17.6804 23.1325 20.0178 23.1111C22.4789 23.12 24.8712 22.2996 26.8089 20.7822C29.1298 18.982 30.6477 16.3396 31.0337 13.4278C31.4198 10.5161 30.6428 7.56948 28.8711 5.22667ZM10.3289 11.2178C10.4322 9.8955 10.801 8.60762 11.4134 7.43111H14.0978C13.8009 8.67314 13.6282 9.94159 13.5822 11.2178H10.3289ZM15.6622 7.43111H19.36V11.2178H15.0222C15.0663 9.93794 15.2572 8.6674 15.5911 7.43111H15.6622ZM20.7822 7.43111H24.48C24.814 8.6674 25.0048 9.93794 25.0489 11.2178H20.7822V7.43111ZM19.36 12.64V16.4089H15.5911C15.2559 15.1789 15.065 13.9141 15.0222 12.64H19.36ZM20.7822 12.64H25.0489C25.0062 13.9141 24.8153 15.1789 24.48 16.4089H20.7111L20.7822 12.64ZM26.4889 12.64H29.7245C29.6215 13.9545 29.259 15.2355 28.6578 16.4089H25.8845C26.1966 15.1753 26.3754 13.9118 26.4178 12.64H26.4889ZM26.4889 11.2178C26.446 9.94021 26.2672 8.67083 25.9556 7.43111H28.6578C29.2705 8.60636 29.6336 9.89555 29.7245 11.2178H26.4889ZM27.7511 6.00889H25.4578C25.0967 4.94818 24.5686 3.95193 23.8934 3.05778C25.3851 3.7049 26.6881 4.72036 27.68 6.00889H27.7511ZM23.9822 6.00889H20.7822V2.45333C21.5241 2.79319 22.1861 3.28543 22.7252 3.89802C23.2643 4.51061 23.6684 5.22983 23.9111 6.00889H23.9822ZM19.36 2.45333V6.00889H16.0889C16.3307 5.21011 16.7417 4.47276 17.2938 3.84697C17.846 3.22117 18.5265 2.7216 19.2889 2.38222L19.36 2.45333ZM14.0622 4.26667C14.666 3.80531 15.3224 3.4174 16.0178 3.11111C15.3459 4.01388 14.8182 5.01542 14.4534 6.08H12.32C12.8128 5.39682 13.3993 4.78638 14.0622 4.26667ZM10.3289 12.64H13.5822C13.6282 13.9103 13.8009 15.1729 14.0978 16.4089H11.4134C10.7875 15.2442 10.4178 13.9592 10.3289 12.64ZM12.3378 17.8667H14.5422C14.9071 18.9257 15.435 19.9214 16.1067 20.8178C14.6193 20.1715 13.322 19.1556 12.3378 17.8667ZM16.0889 17.8667H19.2889V21.4222C18.5246 21.0809 17.843 20.5786 17.2907 19.9496C16.7384 19.3207 16.3285 18.5798 16.0889 17.7778V17.8667ZM20.7111 21.4222V17.7778H23.9111C23.6784 18.5896 23.2715 19.3409 22.7189 19.9795C22.1662 20.6181 21.4811 21.1286 20.7111 21.4756V21.4222ZM25.9378 19.5556C25.308 20.0495 24.6143 20.4562 23.8756 20.7644C24.5631 19.8623 25.0977 18.8533 25.4578 17.7778H27.68C27.1748 18.44 26.5896 19.0371 25.9378 19.5556Z" fill="#0078D4"/>
<path d="M19.2889 31.1111H1.58221C1.0311 31.1111 0.693324 30.2044 1.01332 29.7422L7.1111 20.8533C7.19461 20.7335 7.23816 20.5904 7.23555 20.4444V14.5778C7.23555 14.4835 7.19809 14.393 7.13141 14.3264C7.06473 14.2597 6.97429 14.2222 6.87999 14.2222H6.55999C6.37611 14.2222 6.19976 14.1492 6.06973 14.0191C5.9397 13.8891 5.86666 13.7128 5.86666 13.5289V13.2089C5.85667 13.112 5.86719 13.0142 5.89753 12.9217C5.92788 12.8292 5.97736 12.7441 6.04277 12.672C6.10817 12.5999 6.18803 12.5423 6.27715 12.5031C6.36626 12.4639 6.46264 12.4439 6.55999 12.4444H14.3289C14.5144 12.4491 14.6907 12.526 14.8203 12.6589C14.9498 12.7918 15.0223 12.97 15.0222 13.1555V13.4755C15.027 13.5704 15.0127 13.6653 14.9802 13.7545C14.9478 13.8437 14.8977 13.9256 14.8331 13.9952C14.7685 14.0648 14.6906 14.1207 14.604 14.1597C14.5174 14.1987 14.4238 14.22 14.3289 14.2222H13.9911C13.9452 14.2222 13.8998 14.2314 13.8576 14.2495C13.8154 14.2676 13.7774 14.2941 13.7457 14.3273C13.7141 14.3606 13.6896 14.4 13.6737 14.443C13.6579 14.4861 13.6509 14.5319 13.6533 14.5778V20.4622C13.6479 20.6031 13.6919 20.7415 13.7778 20.8533L19.8755 29.7422C20.1955 30.2222 19.8578 31.1111 19.2889 31.1111Z" fill="url(#paint0_linear_855_10730)"/>
<path d="M3.98224 28.7644L8.37335 22.3644C8.56456 22.0946 8.66425 21.7706 8.65779 21.44V18.8622C8.66241 18.7286 8.71875 18.602 8.81494 18.5091C8.91113 18.4162 9.03964 18.3644 9.17335 18.3644H11.6622C11.7959 18.3644 11.9245 18.4162 12.0206 18.5091C12.1168 18.602 12.1732 18.7286 12.1778 18.8622V21.6178C12.1712 21.8386 12.2333 22.056 12.3556 22.24L16.8533 28.7644C16.8914 28.8229 16.9132 28.8905 16.9163 28.9602C16.9195 29.0299 16.9039 29.0992 16.8713 29.1608C16.8386 29.2225 16.7901 29.2743 16.7306 29.3109C16.6712 29.3475 16.6031 29.3675 16.5334 29.3689H4.30224C4.23248 29.3675 4.16436 29.3475 4.10495 29.3109C4.04553 29.2743 3.99698 29.2225 3.96434 29.1608C3.93169 29.0992 3.91613 29.0299 3.91928 28.9602C3.92243 28.8905 3.94417 28.8229 3.98224 28.7644Z" fill="white"/>
</g>
<defs>
<linearGradient id="paint0_linear_855_10730" x1="10.2578" y1="12.5867" x2="10.4533" y2="31.2533" gradientUnits="userSpaceOnUse">
<stop stop-color="#32D4F5"/>
<stop offset="0.32" stop-color="#31D1F3"/>
<stop offset="0.53" stop-color="#2EC9EB"/>
<stop offset="0.7" stop-color="#29BADE"/>
<stop offset="0.86" stop-color="#22A5CB"/>
<stop offset="1" stop-color="#198AB3"/>
</linearGradient>
<clipPath id="clip0_855_10730">
<rect width="32" height="32" fill="white"/>
</clipPath>
</defs>
</svg>
