<svg width="32" height="32" viewBox="0 0 32 32" fill="none" xmlns="http://www.w3.org/2000/svg">
<path d="M17.4755 0.924438C25.6889 0.924438 30.7022 7.1111 31.1111 15.3778C31.1256 15.6644 31.0815 15.951 30.9817 16.2202C30.8819 16.4893 30.7284 16.7353 30.5305 16.9431C30.3326 17.151 30.0944 17.3165 29.8305 17.4294C29.5667 17.5423 29.2826 17.6004 28.9955 17.6H5.88442C5.60266 17.5933 5.32513 17.53 5.0684 17.4137C4.81168 17.2974 4.58102 17.1305 4.3902 16.9231C4.19938 16.7157 4.05231 16.472 3.95778 16.2065C3.86324 15.9409 3.82317 15.6591 3.83997 15.3778C4.24886 7.1111 9.26219 0.924438 17.4755 0.924438Z" fill="#0078D4"/>
<path d="M5.93775 16.1956C5.76008 16.1732 5.59793 16.083 5.48526 15.9439C5.37259 15.8047 5.31813 15.6273 5.3333 15.4489C5.63553 7.46667 11.1289 2.32889 17.4755 2.32889C23.8222 2.32889 29.3155 7.46667 29.7066 15.4489C29.7057 15.644 29.6366 15.8327 29.5111 15.9822C29.3713 16.1143 29.1878 16.1902 28.9955 16.1956H5.93775Z" fill="url(#paint0_linear_855_10732)"/>
<path d="M24.0889 6.73776C22.448 5.26636 20.3666 4.37881 18.1689 4.21332V8.88887C19.1788 9.01538 20.1333 9.4218 20.9244 10.0622L24.0889 6.73776Z" fill="#5EA0EF"/>
<path d="M10.8622 6.73776L14.0267 9.9911C14.8174 9.37347 15.7664 8.99144 16.7645 8.88887V4.21332C14.5713 4.37604 12.4947 5.26422 10.8622 6.73776Z" fill="#0078D4"/>
<path d="M21.92 11.0222C22.5593 11.8362 22.9704 12.8057 23.1111 13.8311H27.5911C27.4403 11.6006 26.5807 9.47653 25.1378 7.76889L21.92 11.0222Z" fill="#5EA0EF"/>
<path d="M13.0311 11.0222L9.86666 7.76889C8.41718 9.47258 7.5567 11.5988 7.41333 13.8311H11.8756C12.0146 12.8115 12.4124 11.8445 13.0311 11.0222Z" fill="#005BA1"/>
<path d="M25.7066 10.0089C25.6319 9.83726 25.4954 9.69997 25.3241 9.62424C25.1529 9.54851 24.9595 9.53986 24.7822 9.60002L18.1866 12.2311L18.7022 13.5467L25.2978 10.9156C25.4681 10.8443 25.605 10.7111 25.6809 10.5428C25.7568 10.3745 25.766 10.1837 25.7066 10.0089Z" fill="#005BA1"/>
<path d="M17.4755 15.1111C18.5359 15.1111 19.3955 14.2515 19.3955 13.1911C19.3955 12.1307 18.5359 11.2711 17.4755 11.2711C16.4152 11.2711 15.5555 12.1307 15.5555 13.1911C15.5555 14.2515 16.4152 15.1111 17.4755 15.1111Z" fill="#767676"/>
<path d="M19.0755 30.9867H1.58221C1.0311 30.9867 0.693324 30.0978 1.01332 29.6356L7.1111 20.8533C7.14967 20.7258 7.14967 20.5898 7.1111 20.4622V14.6489C7.12143 14.6021 7.12221 14.5538 7.11338 14.5067C7.10456 14.4596 7.08632 14.4148 7.05976 14.375C7.03319 14.3351 6.99885 14.3011 6.9588 14.2748C6.91874 14.2486 6.8738 14.2307 6.82666 14.2222H6.48888C6.305 14.2222 6.12864 14.1492 5.99862 14.0192C5.86859 13.8891 5.79555 13.7128 5.79555 13.5289V13.2978C5.79555 13.1139 5.86859 12.9376 5.99862 12.8075C6.12864 12.6775 6.305 12.6045 6.48888 12.6045H14.2222C14.3139 12.602 14.4052 12.6183 14.4904 12.6522C14.5756 12.6862 14.653 12.7372 14.7179 12.8021C14.7828 12.867 14.8338 12.9444 14.8678 13.0296C14.9017 13.1148 14.918 13.2061 14.9155 13.2978V13.6C14.9019 13.7729 14.8223 13.9339 14.6933 14.0497C14.5642 14.1656 14.3956 14.2273 14.2222 14.2222H13.8489C13.7546 14.2222 13.6641 14.2597 13.5975 14.3264C13.5308 14.3931 13.4933 14.4835 13.4933 14.5778V20.3911C13.4965 20.5307 13.5397 20.6665 13.6178 20.7822L19.6622 29.5645C19.9644 30.0978 19.6444 30.9867 19.0755 30.9867Z" fill="url(#paint1_linear_855_10732)"/>
<path d="M3.89333 28.4444L8.26666 22.0444C8.45537 21.7801 8.555 21.4625 8.55111 21.1378V18.5422C8.55111 18.4055 8.60542 18.2744 8.70211 18.1777C8.79879 18.081 8.92993 18.0267 9.06666 18.0267H11.5556C11.6224 18.0266 11.6887 18.0401 11.7502 18.0662C11.8118 18.0923 11.8675 18.1306 11.914 18.1787C11.9604 18.2268 11.9967 18.2838 12.0207 18.3463C12.0446 18.4087 12.0557 18.4754 12.0533 18.5422V21.3333C12.0556 21.55 12.1238 21.7608 12.2489 21.9378L16.7289 28.4444C16.7686 28.5014 16.7916 28.5683 16.7955 28.6376C16.7993 28.7069 16.7837 28.7759 16.7504 28.8368C16.7172 28.8977 16.6676 28.9482 16.6073 28.9825C16.547 29.0169 16.4782 29.0337 16.4089 29.0311H4.19555C4.12769 29.0304 4.06132 29.0111 4.00357 28.9755C3.94582 28.9398 3.89888 28.8891 3.8678 28.8288C3.83673 28.7684 3.82268 28.7008 3.82718 28.6331C3.83167 28.5654 3.85454 28.5001 3.89333 28.4444Z" fill="white"/>
<defs>
<linearGradient id="paint0_linear_855_10732" x1="17.4755" y1="2.82667" x2="17.4755" y2="15.8933" gradientUnits="userSpaceOnUse">
<stop stop-color="white"/>
<stop offset="0.56" stop-color="#FBFBFB"/>
<stop offset="1" stop-color="#F2F2F2"/>
</linearGradient>
<linearGradient id="paint1_linear_855_10732" x1="10.1511" y1="12.6756" x2="10.3467" y2="31.1289" gradientUnits="userSpaceOnUse">
<stop stop-color="#32D4F5"/>
<stop offset="0.32" stop-color="#31D1F3"/>
<stop offset="0.53" stop-color="#2EC9EB"/>
<stop offset="0.7" stop-color="#29BADE"/>
<stop offset="0.86" stop-color="#22A5CB"/>
<stop offset="1" stop-color="#198AB3"/>
</linearGradient>
</defs>
</svg>
