<svg width="32" height="32" viewBox="0 0 32 32" fill="none" xmlns="http://www.w3.org/2000/svg">
<path d="M10.6666 1.06668H30.4355C30.6042 1.06157 30.7683 1.12145 30.8941 1.23395C31.0198 1.34645 31.0975 1.50296 31.1111 1.67112V16.9422C31.1065 17.0263 31.0855 17.1087 31.049 17.1846C31.0126 17.2605 30.9615 17.3285 30.8988 17.3847C30.836 17.4408 30.7628 17.484 30.6833 17.5118C30.6038 17.5396 30.5196 17.5515 30.4355 17.5467H10.6666C10.5826 17.5515 10.4984 17.5396 10.4189 17.5118C10.3394 17.484 10.2662 17.4408 10.2034 17.3847C10.1407 17.3285 10.0896 17.2605 10.0532 17.1846C10.0167 17.1087 9.99563 17.0263 9.99109 16.9422V1.67112C10.0047 1.50296 10.0824 1.34645 10.2081 1.23395C10.3339 1.12145 10.498 1.06157 10.6666 1.06668Z" fill="#E6E6E6"/>
<path d="M10.56 1.06667H30.4711C30.6303 1.06154 30.7854 1.11767 30.9045 1.22351C31.0236 1.32935 31.0975 1.47683 31.1111 1.63556V3.94667H9.91998V1.63556C9.93356 1.47683 10.0075 1.32935 10.1266 1.22351C10.2456 1.11767 10.4008 1.06154 10.56 1.06667Z" fill="#5EA0EF"/>
<path d="M16.9955 3.94666H9.91998V10.7555H16.9955V3.94666Z" fill="#83B9F9"/>
<path d="M24.0356 3.94666H16.96V10.7555H24.0356V3.94666Z" fill="#0078D4"/>
<path d="M31.1111 3.94666H24.0356V10.7555H31.1111V3.94666Z" fill="#83B9F9"/>
<path d="M30.0978 17.6178H24.0356V10.7378H31.1467V16.5333C31.1568 16.6753 31.1368 16.8178 31.0882 16.9516C31.0395 17.0853 30.9632 17.2074 30.8643 17.3097C30.7653 17.412 30.6459 17.4923 30.5139 17.5454C30.3818 17.5985 30.24 17.6231 30.0978 17.6178Z" fill="#0078D4"/>
<path d="M17.0133 17.5467H24.0889V10.7378H17.0133V17.5467Z" fill="#83B9F9"/>
<path d="M9.93775 17.5467H17.0133V10.7378H9.93775V17.5467Z" fill="#0078D4"/>
<path d="M19.0755 30.9333H1.58221C1.0311 30.9333 0.693324 30.0444 1.01332 29.5822L7.03999 20.6933C7.0896 20.6005 7.11412 20.4963 7.1111 20.3911V14.5778C7.11278 14.4946 7.08523 14.4135 7.03326 14.3485C6.98129 14.2835 6.90818 14.2388 6.82666 14.2222H6.48888C6.305 14.2222 6.12864 14.1492 5.99862 14.0191C5.86859 13.8891 5.79555 13.7128 5.79555 13.5289V13.2267C5.80018 13.0459 5.87527 12.8741 6.0048 12.7479C6.13432 12.6216 6.30803 12.551 6.48888 12.5511H14.2222C14.3124 12.5487 14.4022 12.5645 14.4862 12.5973C14.5702 12.6302 14.6468 12.6796 14.7114 12.7426C14.7761 12.8055 14.8274 12.8808 14.8625 12.964C14.8975 13.0471 14.9156 13.1364 14.9155 13.2267V13.5467C14.9156 13.6369 14.8975 13.7262 14.8625 13.8094C14.8274 13.8925 14.7761 13.9678 14.7114 14.0307C14.6468 14.0937 14.5702 14.1431 14.4862 14.176C14.4022 14.2089 14.3124 14.2246 14.2222 14.2222H13.8489C13.7576 14.2221 13.6697 14.2571 13.6035 14.32C13.5374 14.3829 13.4979 14.4688 13.4933 14.56V20.3911C13.4965 20.5307 13.5397 20.6665 13.6178 20.7822L19.6622 29.5644C19.9644 30.0444 19.6444 30.9333 19.0755 30.9333Z" fill="url(#paint0_linear_855_10729)"/>
<path d="M3.89333 28.4444L8.26667 22.0622C8.45538 21.7979 8.55501 21.4803 8.55111 21.1555V18.4889C8.55111 18.3521 8.60543 18.221 8.70211 18.1243C8.7988 18.0276 8.92993 17.9733 9.06667 17.9733H11.5556C11.6224 17.9733 11.6887 17.9867 11.7502 18.0128C11.8118 18.039 11.8675 18.0772 11.914 18.1254C11.9604 18.1735 11.9967 18.2305 12.0207 18.2929C12.0446 18.3554 12.0557 18.422 12.0533 18.4889V21.3333C12.0556 21.55 12.1238 21.7608 12.2489 21.9378L16.7289 28.4444C16.774 28.5013 16.8016 28.57 16.8083 28.6423C16.8149 28.7145 16.8004 28.7871 16.7664 28.8513C16.7325 28.9154 16.6806 28.9682 16.6171 29.0033C16.5536 29.0384 16.4812 29.0542 16.4089 29.0489H4.19556C4.12469 29.0506 4.05481 29.0321 3.99406 28.9956C3.93332 28.9591 3.88422 28.906 3.85252 28.8426C3.82083 28.7792 3.80783 28.7081 3.81506 28.6376C3.82228 28.5671 3.84943 28.5001 3.89333 28.4444Z" fill="white"/>
<defs>
<linearGradient id="paint0_linear_855_10729" x1="10.1511" y1="12.6222" x2="10.3467" y2="31.0756" gradientUnits="userSpaceOnUse">
<stop stop-color="#32D4F5"/>
<stop offset="0.32" stop-color="#31D1F3"/>
<stop offset="0.53" stop-color="#2EC9EB"/>
<stop offset="0.7" stop-color="#29BADE"/>
<stop offset="0.86" stop-color="#22A5CB"/>
<stop offset="1" stop-color="#198AB3"/>
</linearGradient>
</defs>
</svg>
