<svg width="32" height="32" viewBox="0 0 32 32" fill="none" xmlns="http://www.w3.org/2000/svg">
<g clip-path="url(#clip0_855_10728)">
<path d="M12.7022 6.86399C14.5611 6.86573 16.3728 7.44964 17.8829 8.53374C19.393 9.61784 20.5256 11.1477 21.1218 12.9084L24.9173 12.2915C24.4295 10.5698 23.5833 8.9706 22.4341 7.59884C21.2849 6.22708 19.8587 5.11374 18.249 4.33183C16.6394 3.54991 14.8826 3.11709 13.094 3.06174C11.3053 3.00639 9.52513 3.32977 7.87021 4.01066L8.41599 7.96977C9.72752 7.24287 11.2027 6.8623 12.7022 6.86399Z" fill="url(#paint0_linear_855_10728)"/>
<path d="M21.072 12.8C21.4083 13.7451 21.5803 14.7408 21.5804 15.744C21.5839 17.1598 21.249 18.5559 20.6039 19.8162C19.9587 21.0764 19.0218 22.1643 17.8712 22.9893C16.7206 23.8143 15.3895 24.3526 13.9889 24.5592C12.5883 24.7658 11.1585 24.6349 9.81869 24.1773C8.47887 23.7197 7.26773 22.9487 6.2861 21.9285C5.30448 20.9082 4.58075 19.6682 4.17519 18.3118C3.76962 16.9553 3.69394 15.5216 3.95445 14.1299C4.21496 12.7383 4.80411 11.429 5.67288 10.3111C5.67288 10.3111 6.29332 9.43998 6.58132 9.11643C6.61726 9.10009 6.65686 9.09346 6.69617 9.0972C6.73547 9.10094 6.77311 9.11493 6.80532 9.13776L6.94043 9.23376L8.97599 10.6915C9.01316 10.7159 9.05658 10.7291 9.10103 10.7294C9.14549 10.7297 9.18909 10.7172 9.22662 10.6934C9.26415 10.6696 9.29401 10.6354 9.31262 10.595C9.33123 10.5547 9.3378 10.5098 9.33154 10.4658L8.33421 4.40176C8.31155 4.26634 8.23616 4.14541 8.12454 4.06544C8.01292 3.98548 7.87417 3.95299 7.73866 3.97509L1.68177 4.97776C1.63671 4.98533 1.59491 5.00609 1.56165 5.0374C1.52838 5.06872 1.50515 5.10919 1.49487 5.15371C1.4846 5.19823 1.48775 5.24479 1.50393 5.28751C1.52011 5.33024 1.54859 5.36721 1.58577 5.39376L3.62132 6.85154C2.04029 8.46734 0.919539 10.4761 0.374929 12.6702C-0.169681 14.8642 -0.118377 17.1639 0.523536 19.3315C1.16545 21.4991 2.37467 23.4559 4.02618 24.9995C5.6777 26.5432 7.71155 27.6178 9.91748 28.1121C12.1234 28.6064 14.4213 28.5026 16.5737 27.8113C18.726 27.12 20.6547 25.8664 22.1602 24.18C23.6657 22.4937 24.6935 20.4358 25.1373 18.2191C25.5811 16.0025 25.4247 13.7075 24.6844 11.5715L21.072 12.8Z" fill="url(#paint1_linear_855_10728)"/>
<path d="M30.8195 27.2889C30.974 27.2896 31.1271 27.2598 31.27 27.2013C31.413 27.1428 31.543 27.0567 31.6526 26.9478C31.7623 26.839 31.8494 26.7097 31.909 26.5672C31.9686 26.4246 31.9995 26.2718 32 26.1173C32.0035 26.07 32.0035 26.0224 32 25.9751C31.5395 22.2791 29.4293 19.2693 25.408 19.2693C21.3191 19.2693 19.2018 21.8187 18.7911 25.9858C18.7751 26.1402 18.7897 26.2963 18.834 26.4451C18.8783 26.5939 18.9515 26.7325 19.0494 26.853C19.1473 26.9735 19.268 27.0736 19.4045 27.1474C19.5411 27.2213 19.6909 27.2676 19.8453 27.2835C19.8844 27.2835 19.9253 27.2835 19.9644 27.2835L30.8195 27.2889Z" fill="#32BEDD"/>
<path d="M25.3991 20.1475C27.4472 20.1475 29.1075 18.4872 29.1075 16.4391C29.1075 14.391 27.4472 12.7307 25.3991 12.7307C23.351 12.7307 21.6906 14.391 21.6906 16.4391C21.6906 18.4872 23.351 20.1475 25.3991 20.1475Z" fill="url(#paint2_linear_855_10728)"/>
<path d="M25.3226 29.0915C25.519 29.0922 25.7135 29.0543 25.8952 28.9798C26.0769 28.9053 26.2421 28.7958 26.3814 28.6574C26.5207 28.5191 26.6315 28.3546 26.7072 28.1735C26.783 27.9924 26.8224 27.7981 26.8231 27.6018C26.823 27.5423 26.8194 27.483 26.8124 27.424C26.224 22.7235 23.5431 18.8907 18.4266 18.8907C13.2213 18.8907 10.5369 22.1315 10.0142 27.424C9.99377 27.6203 10.0122 27.8188 10.0686 28.008C10.1249 28.1972 10.218 28.3735 10.3425 28.5267C10.467 28.6799 10.6204 28.8071 10.7941 28.901C10.9678 28.9949 11.1583 29.0536 11.3546 29.0738C11.405 29.0765 11.4554 29.0765 11.5058 29.0738L25.3226 29.0915Z" fill="#50E6FF"/>
<path d="M18.4266 20.0106C21.0315 20.0106 23.1431 17.899 23.1431 15.2942C23.1431 12.6894 21.0315 10.5778 18.4266 10.5778C15.8218 10.5778 13.7102 12.6894 13.7102 15.2942C13.7102 17.899 15.8218 20.0106 18.4266 20.0106Z" fill="url(#paint3_linear_855_10728)"/>
</g>
<defs>
<linearGradient id="paint0_linear_855_10728" x1="17.2853" y1="13.6427" x2="15.3031" y2="2.39999" gradientUnits="userSpaceOnUse">
<stop stop-color="#0078D4"/>
<stop offset="1" stop-color="#005BA1"/>
</linearGradient>
<linearGradient id="paint1_linear_855_10728" x1="22.9173" y1="23.4275" x2="-1.07023" y2="9.57865" gradientUnits="userSpaceOnUse">
<stop offset="0.301" stop-color="#0078D4"/>
<stop offset="1" stop-color="#5EA0EF"/>
</linearGradient>
<linearGradient id="paint2_linear_855_10728" x1="25.3991" y1="12.3929" x2="25.3991" y2="22.3929" gradientUnits="userSpaceOnUse">
<stop offset="0.225" stop-color="#32BEDD"/>
<stop offset="1" stop-color="#198AB3"/>
</linearGradient>
<linearGradient id="paint3_linear_855_10728" x1="18.4266" y1="10.1493" x2="18.4266" y2="22.8658" gradientUnits="userSpaceOnUse">
<stop offset="0.225" stop-color="#50E6FF"/>
<stop offset="1" stop-color="#32BEDD"/>
</linearGradient>
<clipPath id="clip0_855_10728">
<rect width="32" height="32" fill="white"/>
</clipPath>
</defs>
</svg>
