<svg width="32" height="32" viewBox="0 0 32 32" fill="none" xmlns="http://www.w3.org/2000/svg">
<g clip-path="url(#clip0_855_10727)">
<path d="M12.6329 12.4782H30.4889C30.7993 12.4782 31.097 12.6014 31.3167 12.8207C31.5364 13.04 31.66 13.3376 31.6605 13.648V27.8364C31.6595 28.1467 31.5357 28.444 31.3162 28.6632C31.0966 28.8824 30.7992 29.0057 30.4889 29.0062H23.1822C23.1391 29.0062 23.0972 29.0206 23.0631 29.0471L19.3156 31.9182C19.2579 31.9628 19.1889 31.9904 19.1163 31.9976C19.0438 32.0049 18.9706 31.9917 18.9052 31.9595C18.8398 31.9272 18.7848 31.8773 18.7464 31.8153C18.708 31.7533 18.6878 31.6818 18.688 31.6089V29.2018C18.688 29.1502 18.6677 29.1007 18.6314 29.0641C18.5951 29.0275 18.5458 29.0067 18.4942 29.0062H12.6276C12.3175 29.0057 12.0202 28.8823 11.8009 28.6631C11.5817 28.4438 11.4583 28.1465 11.4578 27.8364V13.648C11.4587 13.3371 11.583 13.0393 11.8033 12.82C12.0237 12.6007 12.322 12.4777 12.6329 12.4782Z" fill="url(#paint0_linear_855_10727)"/>
<path d="M20.5369 1.17156V15.3582C20.5364 15.6683 20.413 15.9656 20.1938 16.1849C19.9745 16.4041 19.6772 16.5275 19.3671 16.528H13.5111C13.4596 16.5285 13.4103 16.5493 13.374 16.5859C13.3377 16.6225 13.3173 16.672 13.3173 16.7236V19.1324C13.3169 19.2051 13.2963 19.2762 13.2578 19.3377C13.2192 19.3993 13.1643 19.4489 13.0992 19.481C13.034 19.5132 12.9612 19.5265 12.8889 19.5196C12.8166 19.5126 12.7477 19.4857 12.6898 19.4418L8.9369 16.5689C8.90218 16.5443 8.86032 16.5318 8.81779 16.5333H1.51112C1.20086 16.5329 0.903412 16.4095 0.683855 16.1903C0.464299 15.9711 0.340509 15.6738 0.339569 15.3636V1.17156C0.339569 0.86084 0.463 0.56285 0.68271 0.343141C0.902419 0.123431 1.20041 0 1.51112 0H19.3671C19.6774 0.000939842 19.9746 0.12473 20.1939 0.344286C20.4131 0.563843 20.5364 0.861291 20.5369 1.17156Z" fill="url(#paint1_linear_855_10727)"/>
<path d="M9.18223 10.7591C9.12979 10.5961 9.09114 10.429 9.06667 10.2595C9.03014 10.0589 9.01169 9.85546 9.01156 9.65155C9.00798 9.35755 9.07248 9.0667 9.2 8.80177C9.32738 8.54678 9.48496 8.30803 9.66934 8.09066C9.85931 7.86675 10.0617 7.65367 10.2756 7.45244C10.4942 7.24799 10.6969 7.0471 10.8836 6.85333C11.0633 6.66716 11.2208 6.46074 11.3529 6.23822C11.4784 6.0224 11.5435 5.77676 11.5413 5.52711C11.546 5.3178 11.4984 5.11064 11.4027 4.92444C11.3105 4.75527 11.1802 4.60982 11.0222 4.49955C10.8546 4.38168 10.6674 4.29441 10.4693 4.24177C10.2524 4.18437 10.0288 4.15627 9.80445 4.15822C9.39083 4.17379 8.98453 4.27211 8.60957 4.44738C8.2346 4.62265 7.89857 4.87131 7.62134 5.17866V3.40088C8.40803 2.92573 9.30852 2.67204 10.2276 2.66666C10.625 2.66396 11.0208 2.71844 11.4027 2.82844C11.7523 2.92601 12.0808 3.08756 12.3716 3.30488C12.6462 3.51284 12.8694 3.78106 13.024 4.08888C13.1887 4.4281 13.2704 4.80165 13.2622 5.17866C13.269 5.54002 13.2012 5.89889 13.0631 6.23288C12.932 6.53571 12.7629 6.82066 12.56 7.08088C12.3672 7.33128 12.1498 7.56177 11.9111 7.76888C11.6782 7.96799 11.4613 8.16888 11.2587 8.36799C11.0671 8.5549 10.8982 8.76375 10.7556 8.99022C10.6228 9.20351 10.5531 9.45007 10.5547 9.70133C10.552 9.90424 10.5808 10.1063 10.64 10.3004C10.6864 10.4556 10.7428 10.6077 10.8089 10.7555L9.18223 10.7591ZM10.0587 14.0089C9.77094 14.0111 9.49317 13.9036 9.28178 13.7084C9.17839 13.6191 9.09583 13.5081 9.03993 13.3834C8.98403 13.2587 8.95614 13.1233 8.95823 12.9867C8.95529 12.8502 8.98281 12.7147 9.03877 12.5902C9.09474 12.4656 9.17776 12.3551 9.28178 12.2667C9.49045 12.0691 9.76688 11.959 10.0542 11.959C10.3416 11.959 10.618 12.0691 10.8267 12.2667C10.9307 12.3554 11.0136 12.4662 11.0693 12.5911C11.1249 12.716 11.152 12.8518 11.1484 12.9884C11.1509 13.125 11.1233 13.2604 11.0677 13.3851C11.0121 13.5098 10.9298 13.6208 10.8267 13.7102C10.6177 13.9034 10.3433 14.0102 10.0587 14.0089Z" fill="white"/>
</g>
<defs>
<linearGradient id="paint0_linear_855_10727" x1="21.5609" y1="33.5324" x2="21.5609" y2="5.3191" gradientUnits="userSpaceOnUse">
<stop stop-color="#32BEDD"/>
<stop offset="1" stop-color="#50E6FF"/>
</linearGradient>
<linearGradient id="paint1_linear_855_10727" x1="10.4391" y1="-1.53244" x2="10.4391" y2="26.6809" gradientUnits="userSpaceOnUse">
<stop stop-color="#5EA0EF"/>
<stop offset="1" stop-color="#0078D4"/>
</linearGradient>
<clipPath id="clip0_855_10727">
<rect width="32" height="32" fill="white"/>
</clipPath>
</defs>
</svg>
