<svg width="32" height="32" viewBox="0 0 32 32" fill="none" xmlns="http://www.w3.org/2000/svg">
<g clip-path="url(#clip0_855_10726)">
<path d="M12.9778 12.4782H30.8284C31.1388 12.4782 31.4366 12.6014 31.6562 12.8207C31.8759 13.04 31.9995 13.3376 32 13.648V27.8364C31.999 28.1467 31.8753 28.444 31.6557 28.6632C31.4361 28.8824 31.1387 29.0057 30.8284 29.0062H23.5218C23.4786 29.0062 23.4367 29.0206 23.4026 29.0471L19.6551 31.9182C19.5974 31.9628 19.5284 31.9903 19.4558 31.9976C19.3833 32.0049 19.3101 31.9917 19.2447 31.9595C19.1793 31.9272 19.1243 31.8773 19.0859 31.8153C19.0475 31.7533 19.0273 31.6818 19.0275 31.6089V29.2018C19.0275 29.1502 19.0072 29.1007 18.9709 29.0641C18.9346 29.0275 18.8853 29.0067 18.8338 29.0062H12.9778C12.6677 29.0057 12.3704 28.8823 12.1511 28.6631C11.9318 28.4438 11.8085 28.1465 11.808 27.8364V13.648C11.8089 13.338 11.9325 13.041 12.1516 12.8219C12.3708 12.6027 12.6678 12.4791 12.9778 12.4782Z" fill="#50E6FF"/>
<path d="M20.1973 1.17156V15.3582C20.1978 15.5127 20.1677 15.6657 20.1088 15.8085C20.05 15.9513 19.9634 16.081 19.8542 16.1902C19.745 16.2994 19.6153 16.386 19.4725 16.4448C19.3297 16.5037 19.1767 16.5338 19.0222 16.5333H13.1556C13.104 16.5338 13.0547 16.5546 13.0184 16.5912C12.9821 16.6279 12.9618 16.6773 12.9618 16.7289V19.1378C12.9614 19.2104 12.9407 19.2815 12.9022 19.3431C12.8637 19.4046 12.8087 19.4543 12.7436 19.4864C12.6784 19.5185 12.6056 19.5318 12.5333 19.5249C12.461 19.518 12.3921 19.491 12.3342 19.4471L8.59733 16.5689C8.56261 16.5443 8.52075 16.5318 8.47822 16.5333H1.17156C1.01747 16.5331 0.864943 16.5025 0.722677 16.4433C0.580411 16.3842 0.451194 16.2975 0.342405 16.1884C0.233616 16.0793 0.147385 15.9498 0.0886353 15.8074C0.0298856 15.6649 -0.000232289 15.5123 1.34896e-06 15.3582V1.17156C1.34896e-06 0.860841 0.123433 0.562851 0.343142 0.343142C0.562851 0.123433 0.860841 1.34896e-06 1.17156 1.34896e-06H19.0222C19.1763 -0.000232289 19.3289 0.0298856 19.4714 0.0886353C19.6138 0.147385 19.7433 0.233616 19.8524 0.342405C19.9615 0.451194 20.0482 0.580411 20.1073 0.722677C20.1665 0.864943 20.1971 1.01747 20.1973 1.17156Z" fill="url(#paint0_linear_855_10726)"/>
<path d="M14.4 7.57333C14.4006 7.99129 14.3589 8.40823 14.2755 8.81778C14.1947 9.22336 14.0756 9.62039 13.92 10.0036C13.7648 10.3879 13.5687 10.7545 13.3351 11.0969C13.1532 11.3625 12.9537 11.6155 12.7378 11.8542C12.7119 11.8814 12.6807 11.9031 12.6462 11.9179C12.6116 11.9327 12.5744 11.9404 12.5369 11.9404C12.4993 11.9404 12.4621 11.9327 12.4276 11.9179C12.393 11.9031 12.3619 11.8814 12.336 11.8542L12.2809 11.8009C12.2305 11.7483 12.2023 11.6782 12.2023 11.6053C12.2023 11.5325 12.2305 11.4624 12.2809 11.4098C12.475 11.1993 12.6533 10.9746 12.8142 10.7378C13.2301 10.1176 13.5184 9.42077 13.6622 8.688C13.8092 7.94737 13.8092 7.18507 13.6622 6.44444C13.5909 6.07902 13.4831 5.72167 13.3404 5.37778C13.1943 5.03389 13.0157 4.7047 12.8071 4.39466C12.6472 4.15595 12.4688 3.93008 12.2738 3.71911C12.2237 3.66628 12.1959 3.5963 12.1959 3.52355C12.1959 3.45081 12.2237 3.38083 12.2738 3.328L12.3306 3.27289C12.3565 3.24595 12.3876 3.22451 12.4219 3.20987C12.4563 3.19523 12.4933 3.18768 12.5306 3.18768C12.568 3.18768 12.605 3.19523 12.6393 3.20987C12.6737 3.22451 12.7048 3.24595 12.7306 3.27289C12.9489 3.51088 13.1486 3.76526 13.328 4.03378C13.5575 4.37777 13.7517 4.74407 13.9075 5.12711C14.0625 5.51052 14.1815 5.90748 14.2631 6.31289C14.3541 6.72686 14.4 7.14947 14.4 7.57333ZM12.3093 5.86666C12.1227 5.41704 11.8638 5.0009 11.5431 4.63466C11.5173 4.60722 11.4862 4.58534 11.4517 4.57039C11.4171 4.55544 11.3799 4.54772 11.3422 4.54772C11.3046 4.54772 11.2673 4.55544 11.2328 4.57039C11.1982 4.58534 11.1671 4.60722 11.1413 4.63466L11.0862 4.68978C11.036 4.73825 11.0062 4.80408 11.0029 4.8738C10.9996 4.94353 11.023 5.01188 11.0684 5.06489C11.6777 5.75952 12.0137 6.652 12.0137 7.576C12.0137 8.5 11.6777 9.39248 11.0684 10.0871C11.0229 10.1404 10.9994 10.2091 11.0027 10.2791C11.006 10.3491 11.0359 10.4152 11.0862 10.464L11.1413 10.5191C11.1671 10.5466 11.1982 10.5684 11.2328 10.5834C11.2673 10.5983 11.3046 10.6061 11.3422 10.6061C11.3799 10.6061 11.4171 10.5983 11.4517 10.5834C11.4862 10.5684 11.5173 10.5466 11.5431 10.5191C11.8631 10.1523 12.1218 9.7363 12.3093 9.28711C12.7597 8.19637 12.7597 6.97163 12.3093 5.88089V5.86666ZM10.1084 6.4C10.2114 6.53563 10.2969 6.68377 10.3626 6.84089C10.5547 7.3103 10.5547 7.83636 10.3626 8.30578C10.2993 8.46208 10.2144 8.60871 10.1102 8.74133C10.0695 8.79479 10.0496 8.8612 10.0542 8.92823C10.0587 8.99526 10.0875 9.05835 10.1351 9.10578L10.1884 9.15911C10.2164 9.18686 10.2498 9.20847 10.2866 9.22255C10.3234 9.23663 10.3627 9.24286 10.402 9.24085C10.4414 9.23884 10.4798 9.22864 10.515 9.21089C10.5502 9.19313 10.5812 9.16823 10.6062 9.13778C10.7514 8.9571 10.871 8.7573 10.9618 8.544C11.0871 8.23516 11.1511 7.90486 11.1502 7.57155C11.1476 7.23808 11.0818 6.90812 10.9564 6.59911C10.8706 6.38712 10.755 6.1884 10.6133 6.00889C10.5886 5.97778 10.5576 5.95227 10.5224 5.93402C10.4871 5.91577 10.4484 5.90521 10.4087 5.90302C10.3691 5.90084 10.3294 5.90708 10.2924 5.92135C10.2553 5.93561 10.2217 5.95757 10.1938 5.98578L10.1333 6.04444C10.0871 6.09079 10.0591 6.15226 10.0545 6.21758C10.0499 6.28289 10.0691 6.34766 10.1084 6.4ZM6.55287 5.66578H5.89154C5.74379 5.66578 5.60208 5.72434 5.49744 5.82865C5.3928 5.93295 5.33378 6.07448 5.33331 6.22222V8.92089C5.33378 9.06879 5.39275 9.21051 5.49733 9.31509C5.60192 9.41968 5.74363 9.47864 5.89154 9.47911H6.55642C6.70446 9.47914 6.84643 9.53797 6.95109 9.64266L8.61687 11.3049C8.66963 11.3566 8.74034 11.3859 8.8142 11.3867C8.90237 11.3867 8.98693 11.3516 9.04928 11.2893C9.11162 11.2269 9.14665 11.1424 9.14665 11.0542V4.08889C9.14665 4.04476 9.13796 4.00107 9.12107 3.96031C9.10418 3.91954 9.07943 3.8825 9.04823 3.8513C9.01703 3.8201 8.97999 3.79535 8.93923 3.77846C8.89846 3.76158 8.85477 3.75289 8.81065 3.75289C8.7362 3.75339 8.66484 3.7827 8.61154 3.83466L6.95109 5.51111C6.84517 5.61304 6.70341 5.66923 6.55642 5.66755L6.55287 5.66578Z" fill="white"/>
<path d="M27.0418 19.4347C27.3341 19.4343 27.62 19.5207 27.8632 19.6829C28.1064 19.8451 28.296 20.0758 28.4081 20.3458C28.5201 20.6158 28.5495 20.913 28.4926 21.1998C28.4356 21.4865 28.2949 21.7499 28.0882 21.9566C27.8814 22.1633 27.618 22.3041 27.3313 22.361C27.0446 22.418 26.7474 22.3886 26.4774 22.2765C26.2073 22.1645 25.9766 21.9749 25.8144 21.7316C25.6522 21.4884 25.5658 21.2026 25.5662 20.9102C25.5662 20.5189 25.7217 20.1436 25.9984 19.8668C26.2751 19.5901 26.6504 19.4347 27.0418 19.4347ZM20.8551 20.9227C20.8547 21.2149 20.9411 21.5007 21.1032 21.7439C21.2653 21.9871 21.4959 22.1767 21.7658 22.2888C22.0358 22.4009 22.3329 22.4304 22.6195 22.3736C22.9062 22.3168 23.1696 22.1762 23.3764 21.9697C23.5832 21.7632 23.7241 21.4999 23.7812 21.2133C23.8384 20.9267 23.8092 20.6296 23.6975 20.3595C23.5857 20.0895 23.3964 19.8586 23.1534 19.6962C22.9104 19.5338 22.6247 19.4471 22.3324 19.4471C21.9409 19.4471 21.5654 19.6025 21.2884 19.8792C21.0114 20.1558 20.8556 20.5312 20.8551 20.9227ZM16.1458 20.9227C16.1454 21.2149 16.2317 21.5007 16.3939 21.7439C16.556 21.9871 16.7866 22.1767 17.0565 22.2888C17.3264 22.4009 17.6235 22.4304 17.9102 22.3736C18.1969 22.3168 18.4603 22.1762 18.6671 21.9697C18.8739 21.7632 19.0148 21.4999 19.0719 21.2133C19.129 20.9267 19.0999 20.6296 18.9881 20.3595C18.8764 20.0895 18.687 19.8586 18.444 19.6962C18.201 19.5338 17.9154 19.4471 17.6231 19.4471C17.2316 19.4471 16.8561 19.6025 16.5791 19.8792C16.3021 20.1558 16.1462 20.5312 16.1458 20.9227Z" fill="white"/>
</g>
<defs>
<linearGradient id="paint0_linear_855_10726" x1="10.0996" y1="-1.53244" x2="10.0996" y2="26.6809" gradientUnits="userSpaceOnUse">
<stop stop-color="#5EA0EF"/>
<stop offset="1" stop-color="#0078D4"/>
</linearGradient>
<clipPath id="clip0_855_10726">
<rect width="32" height="32" fill="white"/>
</clipPath>
</defs>
</svg>
