<svg width="32" height="32" viewBox="0 0 32 32" fill="none" xmlns="http://www.w3.org/2000/svg">
<g clip-path="url(#clip0_855_10725)">
<path d="M30.9333 0H1.06667C0.477563 0 0 0.477563 0 1.06667V30.9333C0 31.5224 0.477563 32 1.06667 32H30.9333C31.5224 32 32 31.5224 32 30.9333V1.06667C32 0.477563 31.5224 0 30.9333 0Z" fill="url(#paint0_linear_855_10725)"/>
<path d="M23.6107 17.4613C22.3894 17.438 21.1876 17.7696 20.1511 18.416V20.0871C21.0694 19.2814 22.2504 18.8389 23.472 18.8427C24.8717 18.8427 25.571 19.7073 25.5698 21.4364L22.5174 21.8649C20.2774 22.1754 19.1574 23.2824 19.1574 25.1858C19.1407 25.5821 19.2089 25.9774 19.3573 26.3453C19.5056 26.7132 19.7308 27.0452 20.0178 27.3191C20.6765 27.8867 21.5303 28.1755 22.3982 28.1244C23.0395 28.1445 23.6734 27.9836 24.2274 27.6601C24.7814 27.3365 25.2331 26.8635 25.5307 26.2951H25.5698V27.8862H27.2V21.2587C27.2 18.7271 26.0036 17.4613 23.6107 17.4613ZM25.5662 23.744C25.5945 24.5375 25.3105 25.3105 24.7751 25.8969C24.522 26.1739 24.2123 26.3933 23.8668 26.5399C23.5214 26.6865 23.1485 26.757 22.7734 26.7467C22.2569 26.7744 21.749 26.6061 21.3511 26.2756C21.1777 26.1247 21.0399 25.9372 20.9476 25.7266C20.8554 25.516 20.8111 25.2876 20.8178 25.0578C20.7891 24.7916 20.8266 24.5224 20.9271 24.2743C21.0276 24.0262 21.1879 23.8067 21.3938 23.6356C21.9154 23.3177 22.5029 23.1237 23.1111 23.0684L25.5662 22.7307V23.744Z" fill="white"/>
<path d="M24.5013 15.8062L27.2338 12.9973C27.5306 12.7022 27.4222 12.4444 26.9493 12.4444H25.7351C25.6408 12.4444 25.5504 12.407 25.4837 12.3403C25.417 12.2736 25.3795 12.1832 25.3795 12.0889C25.4186 10.2773 24.9102 5.248 18.0391 5.07733C17.9448 5.07733 17.8544 5.11479 17.7877 5.18147C17.721 5.24815 17.6835 5.33859 17.6835 5.43289V7.21067C17.6834 7.25985 17.6934 7.30853 17.713 7.35364C17.7327 7.39874 17.7614 7.43928 17.7975 7.4727C17.8336 7.50611 17.8762 7.53168 17.9227 7.54778C17.9692 7.56388 18.0185 7.57016 18.0675 7.56622C18.7159 7.42628 19.3881 7.4412 20.0297 7.60977C20.6712 7.77833 21.2639 8.09579 21.7597 8.53638C22.2556 8.97696 22.6405 9.52825 22.8833 10.1455C23.1262 10.7628 23.22 11.4286 23.1573 12.0889C23.1573 12.1832 23.1199 12.2736 23.0532 12.3403C22.9865 12.407 22.8961 12.4444 22.8018 12.4444H21.6889C21.1164 12.4444 21.0204 12.6222 21.4026 12.9973L23.936 15.8062C23.9692 15.8497 24.0119 15.885 24.061 15.9092C24.11 15.9335 24.1639 15.9461 24.2186 15.9461C24.2733 15.9461 24.3273 15.9335 24.3763 15.9092C24.4254 15.885 24.4681 15.8497 24.5013 15.8062Z" fill="url(#paint1_linear_855_10725)"/>
<path d="M8.03558 17.6569L5.30136 20.4658C5.00447 20.7627 5.11291 21.0187 5.58758 21.0187H6.80003C6.89432 21.0187 6.98476 21.0561 7.05144 21.1228C7.11812 21.1895 7.15558 21.2799 7.15558 21.3742C7.11114 23.1858 7.6178 28.2151 14.4889 28.3858C14.5832 28.3858 14.6736 28.3483 14.7403 28.2817C14.807 28.215 14.8445 28.1245 14.8445 28.0302V26.2525C14.8446 26.2034 14.8346 26.1549 14.8151 26.1099C14.7956 26.065 14.767 26.0245 14.7311 25.9911C14.6952 25.9577 14.6528 25.9321 14.6065 25.9159C14.5602 25.8997 14.5111 25.8932 14.4622 25.8969C13.8128 26.0373 13.1393 26.0223 12.4967 25.853C11.8542 25.6838 11.2606 25.3652 10.7645 24.9232C10.2684 24.4811 9.88373 23.9281 9.64182 23.3093C9.39992 22.6904 9.30763 22.0231 9.37247 21.3618C9.37247 21.3151 9.38167 21.2689 9.39954 21.2257C9.4174 21.1826 9.44359 21.1434 9.47661 21.1104C9.50963 21.0774 9.54882 21.0512 9.59196 21.0333C9.6351 21.0154 9.68133 21.0062 9.72803 21.0062H10.8516C11.4222 21.0062 11.5182 20.8285 11.136 20.4533L8.60625 17.6569C8.57316 17.6124 8.53013 17.5763 8.48059 17.5514C8.43104 17.5265 8.37636 17.5135 8.32091 17.5135C8.26547 17.5135 8.21078 17.5265 8.16124 17.5514C8.1117 17.5763 8.06866 17.6124 8.03558 17.6569Z" fill="url(#paint2_linear_855_10725)"/>
<path d="M11.7867 7.82221C12.7436 7.99089 13.6238 8.45461 14.304 9.14843C14.6521 9.48228 14.9286 9.88344 15.1167 10.3275C15.3048 10.7716 15.4006 11.2493 15.3983 11.7316C15.3959 12.2138 15.2955 12.6906 15.1031 13.1328C14.9107 13.575 14.6304 13.9735 14.2791 14.304C13.3325 15.1254 12.1295 15.5918 10.8765 15.6231L10.3698 14.48C11.3803 14.509 12.3747 14.2219 13.2143 13.6587C13.5251 13.4456 13.7791 13.1597 13.9542 12.826C14.1293 12.4923 14.2201 12.1208 14.2187 11.744C14.2183 11.404 14.149 11.0676 14.0152 10.7551C13.8814 10.4425 13.6858 10.1603 13.44 9.92532C12.9126 9.39386 12.234 9.03812 11.4969 8.90665C11.1015 10.3907 10.4137 11.7809 9.47381 12.9955C9.59604 13.284 9.75242 13.5568 9.93959 13.808L8.9867 14.4693C8.84005 14.284 8.71035 14.0859 8.59914 13.8773C7.90215 14.5428 6.99358 14.9423 6.03203 15.0062C5.76353 15.0138 5.4962 14.9678 5.24562 14.8711C4.99504 14.7743 4.76622 14.6287 4.57247 14.4427C4.36599 14.2199 4.20752 13.9571 4.1069 13.6706C4.00629 13.384 3.96567 13.0798 3.98759 12.7769C4.00617 11.8317 4.34034 10.92 4.93692 10.1867C5.56534 9.35421 6.40331 8.70334 7.36536 8.30043C7.39381 7.35228 7.42462 6.68917 7.45781 6.3111C6.46936 6.34902 5.68892 6.36799 5.11647 6.36799L4.92625 5.26754C5.54136 5.29006 6.41307 5.28058 7.54136 5.2391C7.61976 4.42438 7.74441 3.61478 7.9147 2.81421L9.01514 2.97599L8.71114 5.15554C10.2548 5.05499 11.7918 4.87102 13.3156 4.60443L13.5485 5.6711C11.9138 5.947 10.266 6.13807 8.61159 6.24354C8.54032 6.79056 8.50528 7.34168 8.5067 7.89332C9.05097 7.75594 9.60941 7.68256 10.1707 7.67465C10.3165 7.67465 10.4587 7.67465 10.6009 7.68888C10.7021 7.39385 10.7707 7.08862 10.8054 6.77865L11.9325 6.94043C11.9034 7.23726 11.8547 7.53183 11.7867 7.82221ZM8.09247 12.7502C7.72263 11.7063 7.49481 10.6175 7.41514 9.51288C6.76413 9.84442 6.20622 10.3333 5.79203 10.9351C5.41529 11.4525 5.2062 12.073 5.19292 12.7129C5.17377 12.8727 5.18637 13.0348 5.22999 13.1898C5.27362 13.3448 5.34741 13.4896 5.44714 13.616C5.58536 13.7571 5.77243 13.8398 5.96981 13.8471C6.29141 13.8187 6.60583 13.7357 6.89959 13.6018C7.35331 13.4061 7.76001 13.1158 8.09247 12.7502ZM10.2987 8.82132C9.71125 8.83055 9.12769 8.91844 8.56359 9.08265C8.58669 9.96425 8.72413 10.8391 8.97247 11.6853C9.55412 10.8017 10.0011 9.83647 10.2987 8.82132Z" fill="white"/>
</g>
<defs>
<linearGradient id="paint0_linear_855_10725" x1="16" y1="0" x2="16" y2="32" gradientUnits="userSpaceOnUse">
<stop stop-color="#5EA0EF"/>
<stop offset="1" stop-color="#0078D4"/>
</linearGradient>
<linearGradient id="paint1_linear_855_10725" x1="31.712" y1="15.8844" x2="17.2729" y2="7.63377" gradientUnits="userSpaceOnUse">
<stop stop-color="white"/>
<stop offset="1" stop-color="white" stop-opacity="0.3"/>
</linearGradient>
<linearGradient id="paint2_linear_855_10725" x1="0.823137" y1="17.5787" x2="15.264" y2="25.8293" gradientUnits="userSpaceOnUse">
<stop stop-color="white"/>
<stop offset="1" stop-color="white" stop-opacity="0.3"/>
</linearGradient>
<clipPath id="clip0_855_10725">
<rect width="32" height="32" fill="white"/>
</clipPath>
</defs>
</svg>
