<svg width="32" height="32" viewBox="0 0 32 32" fill="none" xmlns="http://www.w3.org/2000/svg">
<path d="M25.2089 10.4709C25.1437 8.1965 24.1821 6.04003 22.5337 4.47155C20.8853 2.90307 18.6838 2.04976 16.4089 2.09761C14.5691 2.0787 12.7688 2.63115 11.2563 3.67876C9.74374 4.72638 8.59359 6.21752 7.96444 7.9465C6.01453 8.21543 4.22654 9.17717 2.92735 10.6559C1.62817 12.1346 0.904585 14.0315 0.888885 15.9998C0.967772 18.1863 1.90657 20.2533 3.50118 21.7514C5.09579 23.2494 7.21728 24.0575 9.40444 23.9998C9.65302 24.0173 9.90252 24.0173 10.1511 23.9998H12.2844C12.1548 23.6839 12.0884 23.3457 12.0889 23.0043C12.0953 22.5485 12.2177 22.1019 12.4444 21.7065H9.95555H9.40444C7.82291 21.7602 6.28306 21.1934 5.1138 20.1271C3.94454 19.0608 3.23856 17.5796 3.14666 15.9998C3.16102 14.5693 3.6929 13.1924 4.64394 12.1237C5.59498 11.055 6.90083 10.3669 8.32 10.1865L9.67111 9.97317L10.1156 8.67539C10.5917 7.39467 11.4518 6.2923 12.5783 5.51903C13.7048 4.74576 15.0426 4.33935 16.4089 4.35539C18.0855 4.31668 19.7103 4.93763 20.9338 6.08465C22.1573 7.23166 22.8817 8.81309 22.9511 10.4887V12.4443L24.8889 12.7109C25.9758 12.85 26.9774 13.3722 27.7139 14.1836C28.4503 14.995 28.8732 16.0424 28.9067 17.1376C28.8653 18.3466 28.3569 19.4926 27.4883 20.3346C26.6197 21.1767 25.4586 21.6493 24.2489 21.6532H23.9822H23.84H22.0622C21.7552 20.0561 20.8994 18.6168 19.6429 17.5843C18.3864 16.5519 16.8085 15.9913 15.1822 15.9998C15.0221 15.9797 14.8595 15.9939 14.7052 16.0414C14.551 16.0889 14.4086 16.1687 14.2876 16.2755C14.1666 16.3823 14.0696 16.5136 14.0032 16.6607C13.9368 16.8078 13.9025 16.9673 13.9025 17.1287C13.9025 17.2901 13.9368 17.4497 14.0032 17.5968C14.0696 17.7439 14.1666 17.8752 14.2876 17.982C14.4086 18.0887 14.551 18.1685 14.7052 18.2161C14.8595 18.2636 15.0221 18.2777 15.1822 18.2576C16.3793 18.3313 17.5033 18.8587 18.325 19.7325C19.1466 20.6062 19.6041 21.7604 19.6041 22.9598C19.6041 24.1592 19.1466 25.3135 18.325 26.1872C17.5033 27.0609 16.3793 27.5884 15.1822 27.6621C15.0221 27.6419 14.8595 27.6561 14.7052 27.7036C14.551 27.7511 14.4086 27.8309 14.2876 27.9377C14.1666 28.0445 14.0696 28.1758 14.0032 28.3229C13.9368 28.47 13.9025 28.6295 13.9025 28.7909C13.9025 28.9523 13.9368 29.1119 14.0032 29.259C14.0696 29.4061 14.1666 29.5374 14.2876 29.6442C14.4086 29.751 14.551 29.8308 14.7052 29.8783C14.8595 29.9258 15.0221 29.94 15.1822 29.9198C16.8497 29.9169 18.4609 29.3162 19.7233 28.2267C20.9856 27.1372 21.8155 25.6312 22.0622 23.9821H23.9289C24.0467 24.0007 24.1667 24.0007 24.2844 23.9821C26.088 23.95 27.8085 23.218 29.0824 21.9408C30.3562 20.6636 31.0837 18.9413 31.1111 17.1376C31.0806 15.5061 30.4697 13.9388 29.388 12.7171C28.3064 11.4953 26.8247 10.6989 25.2089 10.4709Z" fill="url(#paint0_linear_868_10090)"/>
<path d="M14.8978 20.1777H14.8267C13.3146 20.1777 12.0889 21.4035 12.0889 22.9155V22.9866C12.0889 24.4987 13.3146 25.7244 14.8267 25.7244H14.8978C16.4098 25.7244 17.6356 24.4987 17.6356 22.9866V22.9155C17.6356 21.4035 16.4098 20.1777 14.8978 20.1777Z" fill="url(#paint1_linear_868_10090)"/>
<defs>
<linearGradient id="paint0_linear_868_10090" x1="16" y1="29.9021" x2="16" y2="2.09761" gradientUnits="userSpaceOnUse">
<stop stop-color="#198AB3"/>
<stop offset="0.09" stop-color="#1F9DC4"/>
<stop offset="0.24" stop-color="#28B5D9"/>
<stop offset="0.4" stop-color="#2DC6E9"/>
<stop offset="0.57" stop-color="#31D1F2"/>
<stop offset="0.78" stop-color="#32D4F5"/>
</linearGradient>
<linearGradient id="paint1_linear_868_10090" x1="14.8622" y1="20.1777" x2="14.8622" y2="25.7066" gradientUnits="userSpaceOnUse">
<stop stop-color="#C69AEB"/>
<stop offset="1" stop-color="#6F4BB2"/>
</linearGradient>
</defs>
</svg>
