<svg width="32" height="32" viewBox="0 0 32 32" fill="none" xmlns="http://www.w3.org/2000/svg">
<g clip-path="url(#clip0_868_10101)">
<path d="M30.9511 14.9331C30.9054 13.3397 30.2932 11.8148 29.2245 10.6321C28.1558 9.44939 26.7006 8.68628 25.12 8.47976C25.0274 6.25074 24.0584 4.14844 22.4237 2.63027C20.789 1.11209 18.6209 0.300869 16.3911 0.373093C14.586 0.342299 12.8155 0.870846 11.3227 1.88621C9.82993 2.90157 8.68789 4.354 8.05333 6.0442C6.15663 6.27384 4.40567 7.17763 3.11984 8.59074C1.83402 10.0038 1.09901 11.8321 1.04889 13.742C1.13222 15.8956 2.06602 17.9283 3.6456 19.3946C5.22519 20.8609 7.32169 21.6411 9.47556 21.5642C9.71818 21.5823 9.96182 21.5823 10.2044 21.5642H23.84C23.9578 21.5828 24.0778 21.5828 24.1956 21.5642C25.9631 21.5554 27.6576 20.8579 28.9191 19.6196C30.1805 18.3814 30.9095 16.7002 30.9511 14.9331Z" fill="url(#paint0_linear_868_10101)"/>
<path d="M14.4711 28.4443V27.3776L13.3866 27.0043L13.1022 26.2754L13.6533 25.1732V25.0487L13.3155 24.711L12.9066 24.3021H12.7644L11.6978 24.8354L10.9689 24.6398L10.5066 23.4487H9.45776L9.1022 24.5332L8.3022 24.8887L7.11109 24.2132L6.32887 24.8887V25.031L6.8622 26.0798L6.55998 26.8087L5.33331 27.3421V28.4443H5.49331L6.61331 28.8176L6.91554 29.5465L6.34665 30.7732L7.09331 31.5198H7.23554L8.3022 30.9865L9.03109 31.2887L9.49331 32.5687H10.5422V32.4087L10.9155 31.2887L11.6266 30.9865L12.8711 31.5554L13.6178 30.8087V30.6665L13.0844 29.6176L13.28 28.871L14.4711 28.4443ZM10.0089 29.4221C9.71278 29.4256 9.42233 29.341 9.17443 29.1791C8.92652 29.0171 8.73236 28.7852 8.6166 28.5126C8.50084 28.2401 8.46872 27.9393 8.52432 27.6484C8.57991 27.3576 8.72072 27.0899 8.92884 26.8792C9.13696 26.6686 9.403 26.5246 9.69316 26.4655C9.98331 26.4064 10.2845 26.435 10.5584 26.5475C10.8323 26.6599 11.0666 26.8513 11.2315 27.0973C11.3964 27.3432 11.4844 27.6326 11.4844 27.9287C11.4663 28.3093 11.3034 28.6685 11.0291 28.9329C10.7548 29.1973 10.3898 29.3468 10.0089 29.351V29.4221Z" fill="#76BC2D"/>
<path d="M30.72 22.4709V20.3909L30.6133 20.302L28.4445 19.5554L27.8933 18.1332L28.9956 15.9998L29.1022 15.7687L28.4445 15.0576L27.6622 14.222L27.3778 14.3643L25.2978 15.4309L23.8756 15.022L22.9689 12.7109H20.9067L20.8 12.8176L20.0889 14.9332L18.6311 15.4843L16.2311 14.3465L14.7733 15.8043L14.9156 16.0887L16 18.1509L15.4133 19.5732L12.9067 20.4798V22.5598L13.2089 22.6487L15.4133 23.3776L16 24.8887L14.8622 27.2887L16.32 28.7643L16.6045 28.6398L18.6845 27.5732L20.1067 28.1598L21.0133 30.6665H23.1111V30.222L23.84 28.0176L25.2445 27.4309L27.68 28.5509L29.1378 27.0932L28.9956 26.8087L27.9822 24.8887L28.3911 23.4309L30.72 22.4709ZM21.9911 24.3909C21.4145 24.3944 20.8498 24.2269 20.3684 23.9094C19.887 23.592 19.5105 23.1389 19.2866 22.6075C19.0627 22.0762 19.0014 21.4903 19.1105 20.9241C19.2195 20.3578 19.494 19.8367 19.8993 19.4264C20.3045 19.0162 20.8223 18.7354 21.3872 18.6194C21.952 18.5035 22.5386 18.5576 23.0727 18.7751C23.6067 18.9925 24.0644 19.3634 24.3876 19.8409C24.7109 20.3183 24.8854 20.881 24.8889 21.4576C24.889 22.2295 24.5848 22.9702 24.0424 23.5193C23.4999 24.0684 22.7629 24.3816 21.9911 24.3909Z" fill="url(#paint1_linear_868_10101)"/>
<path d="M21.9911 24.3911C21.4145 24.3946 20.8498 24.2271 20.3684 23.9096C19.887 23.5922 19.5105 23.1391 19.2866 22.6077C19.0627 22.0763 19.0014 21.4905 19.1105 20.9243C19.2195 20.358 19.494 19.8368 19.8993 19.4266C20.3045 19.0164 20.8223 18.7356 21.3872 18.6196C21.952 18.5037 22.5386 18.5578 23.0727 18.7752C23.6068 18.9926 24.0644 19.3635 24.3877 19.841C24.711 20.3185 24.8854 20.8812 24.8889 21.4578C24.889 22.2296 24.5848 22.9704 24.0424 23.5195C23.4999 24.0686 22.7629 24.3818 21.9911 24.3911Z" fill="white"/>
</g>
<defs>
<linearGradient id="paint0_linear_868_10101" x1="16" y1="27.7864" x2="16" y2="-4.46246" gradientUnits="userSpaceOnUse">
<stop stop-color="#0078D4"/>
<stop offset="0.16" stop-color="#1380DA"/>
<stop offset="0.53" stop-color="#3C91E5"/>
<stop offset="0.82" stop-color="#559CEC"/>
<stop offset="1" stop-color="#5EA0EF"/>
</linearGradient>
<linearGradient id="paint1_linear_868_10101" x1="21.7956" y1="12.7465" x2="21.7956" y2="30.5954" gradientUnits="userSpaceOnUse">
<stop stop-color="#FFD70F"/>
<stop offset="0.27" stop-color="#FFD310"/>
<stop offset="0.54" stop-color="#FFC613"/>
<stop offset="0.83" stop-color="#FEB217"/>
<stop offset="1" stop-color="#FEA11B"/>
</linearGradient>
<clipPath id="clip0_868_10101">
<rect width="32" height="32" fill="white"/>
</clipPath>
</defs>
</svg>
