<svg width="32" height="32" viewBox="0 0 32 32" fill="none" xmlns="http://www.w3.org/2000/svg">
<path d="M31.9057 20.2117C31.8551 18.5169 31.2033 16.8954 30.067 15.637C28.9307 14.3786 27.3839 13.5652 25.7031 13.3424C25.6008 10.9741 24.5694 8.74155 22.8323 7.12858C21.0952 5.51561 18.7924 4.6522 16.4231 4.7255C14.5084 4.69103 12.6303 5.25202 11.0482 6.33096C9.46605 7.4099 8.25805 8.95354 7.59107 10.7486C5.56717 10.9953 3.69847 11.9584 2.32329 13.4637C0.948119 14.969 0.157359 16.9169 0.0941772 18.9548C0.18169 21.2448 1.17367 23.4065 2.85262 24.9662C4.53157 26.5258 6.76047 27.356 9.05062 27.2748C9.31729 27.2748 9.58395 27.2606 9.83996 27.2393H24.3555C24.4849 27.2378 24.6135 27.2187 24.7377 27.1824C26.6003 27.1671 28.3851 26.4338 29.7204 25.1353C31.0557 23.8368 31.8385 22.0731 31.9057 20.2117Z" fill="url(#paint0_linear_868_10106)"/>
<path d="M16.832 18.7468C16.7998 17.0986 16.2816 15.4967 15.3425 14.142C14.4034 12.7872 13.0851 11.7399 11.5531 11.1315C10.0211 10.5231 8.34347 10.3806 6.73077 10.7219C5.11806 11.0633 3.64206 11.8732 2.4879 13.0502C1.33374 14.2271 0.552829 15.7187 0.243115 17.3378C-0.0665987 18.9568 0.10868 20.6313 0.746964 22.1511C1.38525 23.671 2.45811 24.9685 3.83098 25.8809C5.20385 26.7934 6.81559 27.2801 8.46402 27.2801C8.55824 27.2801 8.6418 27.2801 8.74313 27.2801H16.8356V18.7468H16.832Z" fill="#50E6FF"/>
<path opacity="0.75" d="M2.35555 20.884L5.52355 23.5026C5.56744 23.5391 5.62082 23.5623 5.67742 23.5695C5.73403 23.5768 5.79153 23.5678 5.84319 23.5435C5.89485 23.5193 5.93854 23.4808 5.96914 23.4326C5.99974 23.3845 6.01599 23.3286 6.01599 23.2715V22.132H13.5769V20.3542H2.55466C2.4922 20.3521 2.43065 20.3696 2.37868 20.4043C2.32671 20.439 2.28693 20.4891 2.26494 20.5476C2.24296 20.6061 2.23988 20.67 2.25613 20.7304C2.27238 20.7907 2.30715 20.8444 2.35555 20.884Z" fill="white"/>
<path d="M14.1511 18.2313L10.9156 15.6055C10.8717 15.5696 10.8185 15.5468 10.7621 15.5399C10.7058 15.5329 10.6487 15.5421 10.5973 15.5662C10.546 15.5904 10.5026 15.6286 10.472 15.6765C10.4415 15.7243 10.4252 15.7799 10.4249 15.8366V16.985H3.57336V18.7628H13.9609C14.023 18.7635 14.0838 18.7448 14.1348 18.7093C14.1858 18.6738 14.2244 18.6233 14.2454 18.5648C14.2663 18.5063 14.2685 18.4428 14.2516 18.383C14.2347 18.3232 14.1996 18.2702 14.1511 18.2313Z" fill="white"/>
<defs>
<linearGradient id="paint0_linear_868_10106" x1="16" y1="27.2748" x2="16" y2="4.72551" gradientUnits="userSpaceOnUse">
<stop stop-color="#0078D4"/>
<stop offset="0.817" stop-color="#5EA0EF"/>
</linearGradient>
</defs>
</svg>
