<svg width="32" height="32" viewBox="0 0 32 32" fill="none" xmlns="http://www.w3.org/2000/svg">
<path d="M2.52448 3.18246L4.30225 1.17357C4.45245 1.00484 4.66342 0.902554 4.88892 0.889129H21.44C21.6029 0.876725 21.7666 0.898478 21.9206 0.952994C22.0746 1.00751 22.2156 1.09359 22.3344 1.20571C22.4532 1.31784 22.5473 1.45355 22.6107 1.60414C22.674 1.75473 22.7052 1.91689 22.7023 2.08024V22.738C22.7003 22.8557 22.6741 22.9718 22.6251 23.0789C22.5762 23.186 22.5056 23.2818 22.4178 23.3602L20.64 25.0491L2.52448 3.18246Z" fill="#999999"/>
<path opacity="0.5" d="M2.52448 3.18246L4.30225 1.17357C4.45245 1.00484 4.66342 0.902554 4.88892 0.889129H21.44C21.6029 0.876725 21.7666 0.898478 21.9206 0.952994C22.0746 1.00751 22.2156 1.09359 22.3344 1.20571C22.4532 1.31784 22.5473 1.45355 22.6107 1.60414C22.674 1.75473 22.7052 1.91689 22.7023 2.08024V22.738C22.7003 22.8557 22.6741 22.9718 22.6251 23.0789C22.5762 23.186 22.5056 23.2818 22.4178 23.3602L20.64 25.0491L2.52448 3.18246Z" fill="#999999"/>
<path d="M3.91113 3.18239L4.96002 1.9735C5.03725 1.90498 5.12728 1.85242 5.22492 1.81885C5.32255 1.78529 5.42587 1.77139 5.52891 1.77795H20.9778C21.1758 1.77795 21.3657 1.85661 21.5058 1.99664C21.6458 2.13667 21.7245 2.32659 21.7245 2.52461V22.0979C21.7234 22.305 21.6403 22.5032 21.4934 22.6491L19.84 24.1602" fill="white"/>
<path d="M19.7333 3.16455H2.57778H2.48889V24.4979C2.48889 24.644 2.54696 24.7842 2.65031 24.8876C2.75366 24.9909 2.89384 25.049 3.04 25.049H19.7333C19.8057 25.049 19.8774 25.0347 19.9442 25.007C20.0111 24.9793 20.0719 24.9388 20.123 24.8876C20.1742 24.8364 20.2148 24.7757 20.2425 24.7088C20.2702 24.6419 20.2844 24.5703 20.2844 24.4979V3.71566C20.2844 3.64329 20.2702 3.57162 20.2425 3.50476C20.2148 3.4379 20.1742 3.37714 20.123 3.32597C20.0719 3.27479 20.0111 3.2342 19.9442 3.2065C19.8774 3.17881 19.8057 3.16455 19.7333 3.16455Z" fill="url(#paint0_linear_868_10100)"/>
<path d="M21.7245 17.9203C17.44 17.9203 13.9556 16.8181 13.9556 15.4492V28.6403C13.9556 29.9914 17.3689 31.0937 21.6178 31.1114H21.7245C26.0267 31.1114 29.5111 30.0092 29.5111 28.6403V15.4492C29.5111 16.8181 26.0267 17.9203 21.7245 17.9203Z" fill="url(#paint1_linear_868_10100)"/>
<path d="M29.5111 15.4493C29.5111 16.8182 25.9556 17.9204 21.7245 17.9204C17.4933 17.9204 13.9556 16.8182 13.9556 15.4493C13.9556 14.0804 17.5111 12.9604 21.7245 12.9604C25.9378 12.9604 29.5111 14.0804 29.5111 15.4493Z" fill="#E8E8E8"/>
<path d="M27.6978 15.2536C27.6978 16.1247 25.0134 16.8181 21.7245 16.8181C18.4356 16.8181 15.7689 16.1247 15.7689 15.2536C15.7689 14.3825 18.4356 13.6714 21.7245 13.6714C25.0134 13.6714 27.6978 14.3825 27.6978 15.2536Z" fill="#50E6FF"/>
<path d="M21.7245 15.6092C20.1326 15.5723 18.5443 15.776 17.0134 16.2137C18.5438 16.654 20.1325 16.8579 21.7245 16.8181C23.3223 16.8577 24.9169 16.6539 26.4534 16.2137C24.9161 15.7772 23.3221 15.5734 21.7245 15.6092Z" fill="#198AB3"/>
<defs>
<linearGradient id="paint0_linear_868_10100" x1="11.3956" y1="3.16455" x2="11.3956" y2="25.1201" gradientUnits="userSpaceOnUse">
<stop stop-color="#B3B2B3"/>
<stop offset="0.38" stop-color="#AFAEAF"/>
<stop offset="0.76" stop-color="#A2A2A2"/>
<stop offset="1" stop-color="#979797"/>
</linearGradient>
<linearGradient id="paint1_linear_868_10100" x1="13.9556" y1="23.2714" x2="29.5111" y2="23.2714" gradientUnits="userSpaceOnUse">
<stop stop-color="#005BA1"/>
<stop offset="0.07" stop-color="#0060A9"/>
<stop offset="0.36" stop-color="#0071C8"/>
<stop offset="0.52" stop-color="#0078D4"/>
<stop offset="0.64" stop-color="#0074CD"/>
<stop offset="0.82" stop-color="#006ABB"/>
<stop offset="1" stop-color="#005BA1"/>
</linearGradient>
</defs>
</svg>
