<svg width="32" height="32" viewBox="0 0 32 32" fill="none" xmlns="http://www.w3.org/2000/svg">
<path d="M23.9466 2.4531C22.2704 2.31294 20.5951 2.73485 19.1852 3.65227C17.7753 4.56969 16.7109 5.93041 16.16 7.51977C15.6031 5.93072 14.5348 4.57129 13.1225 3.65443C11.7102 2.73756 10.0337 2.31506 8.35553 2.4531C1.33331 3.00421 0.959976 9.95532 1.06664 12.622C1.11998 14.5242 1.49331 20.5153 16 30.9331V31.1109L16.1244 31.022L16.2489 31.1109V30.9331C30.8266 20.5153 31.2 14.4175 31.2533 12.4442C31.36 9.84866 30.9689 3.00421 23.9466 2.4531Z" fill="url(#paint0_linear_868_10096)"/>
<path d="M30.2222 6.75537C30.8092 9.12323 30.6159 11.6173 29.6711 13.8665C28.1066 17.422 24.6933 20.2665 19.7333 22.3643C19.507 22.1195 19.2318 21.9251 18.9255 21.7934C18.6193 21.6617 18.2888 21.5958 17.9555 21.5998C17.4762 21.5965 17.0065 21.7348 16.6053 21.9972C16.2042 22.2597 15.8894 22.6347 15.7004 23.0753C15.5115 23.5159 15.4567 24.0024 15.5431 24.474C15.6294 24.9455 15.853 25.3811 16.1858 25.7261C16.5186 26.0712 16.9458 26.3103 17.414 26.4136C17.8821 26.517 18.3703 26.4798 18.8174 26.3069C19.2645 26.1339 19.6506 25.8329 19.9274 25.4415C20.2042 25.0501 20.3593 24.5857 20.3733 24.1065C24.2485 22.4973 27.6414 19.9128 30.2222 16.6043C31.0615 14.7951 31.3933 12.7919 31.1822 10.8087C31.0922 9.41325 30.7677 8.04295 30.2222 6.75537Z" fill="#FFE452"/>
<path d="M12.2133 21.2267L11.52 21.9378C6.63109 17.12 5.08442 13.2978 7.11109 11.3067C9.13776 9.31559 12.9244 10.8623 17.7778 15.6978L17.0844 16.4089C16.9973 16.4949 16.9282 16.5973 16.881 16.7103C16.8338 16.8232 16.8095 16.9443 16.8095 17.0667C16.8095 17.1891 16.8338 17.3102 16.881 17.4232C16.9282 17.5361 16.9973 17.6385 17.0844 17.7245C17.1691 17.8138 17.2711 17.8849 17.3842 17.9335C17.4973 17.9821 17.6191 18.0072 17.7422 18.0072C17.8653 18.0072 17.9871 17.9821 18.1002 17.9335C18.2133 17.8849 18.3153 17.8138 18.4 17.7245L19.7155 16.4089C19.8871 16.233 19.9831 15.9969 19.9831 15.7511C19.9831 15.5054 19.8871 15.2693 19.7155 15.0934L19.0578 14.4356C15.7689 11.1289 10.1689 7.12893 6.61331 9.49337C5.61756 8.55671 4.98742 7.29642 4.83554 5.93782C4.72595 4.90272 5.01876 3.86513 5.65331 3.04004C4.63046 3.49336 3.729 4.18164 3.0222 5.04893C2.87324 6.1271 3.00807 7.22549 3.41337 8.23563C3.81868 9.24577 4.48044 10.1327 5.33331 10.8089C3.0222 14.3645 7.00443 19.9467 10.2933 23.2534L10.9511 23.9289C11.1271 24.1005 11.3631 24.1965 11.6089 24.1965C11.8546 24.1965 12.0907 24.1005 12.2666 23.9289L13.6 22.5956C13.7716 22.4196 13.8676 22.1836 13.8676 21.9378C13.8676 21.692 13.7716 21.456 13.6 21.28C13.5171 21.1782 13.4134 21.0953 13.296 21.0366C13.1785 20.978 13.0499 20.9451 12.9187 20.94C12.7875 20.935 12.6567 20.958 12.5351 21.0074C12.4135 21.0568 12.3038 21.1316 12.2133 21.2267Z" fill="#FFE452"/>
<defs>
<linearGradient id="paint0_linear_868_10096" x1="16.16" y1="31.1109" x2="16.16" y2="2.41754" gradientUnits="userSpaceOnUse">
<stop stop-color="#EF7100"/>
<stop offset="0.13" stop-color="#F27D07"/>
<stop offset="0.43" stop-color="#F69113"/>
<stop offset="0.72" stop-color="#F99E1B"/>
<stop offset="1" stop-color="#FAA21D"/>
</linearGradient>
</defs>
</svg>
