<svg width="32" height="32" viewBox="0 0 32 32" fill="none" xmlns="http://www.w3.org/2000/svg">
<path d="M23.7991 13.1555L23.7902 13.1484V13.1271H23.7564L15.9947 7.83105L8.23289 13.1271H8.19911V13.1484L8.18845 13.1555H8.19911V23.4684H23.7902V13.1555H23.7991Z" fill="#50E6FF"/>
<path d="M8.18845 13.1556C8.18845 12.9778 8.20267 23.2552 8.20267 23.4667L15.9911 18.3112L8.18845 13.1556Z" fill="#32BEDD"/>
<path d="M23.7938 13.1556L15.9911 18.3112L23.7796 23.4667C23.7796 23.2587 23.7938 12.9778 23.7938 13.1556Z" fill="#198AB3"/>
<path d="M15.9911 18.3096L8.20267 23.4562V23.4651H23.7796V23.4562L15.9911 18.3096Z" fill="url(#paint0_linear_868_10086)"/>
<path d="M1.90577 2.54199H4.19911V8.94199C4.19911 9.07684 4.14554 9.20617 4.05019 9.30152C3.95484 9.39687 3.82551 9.45044 3.69066 9.45044H1.39733C1.26401 9.45046 1.13601 9.39811 1.04091 9.30467C0.945812 9.21124 0.891216 9.08418 0.888885 8.95088V3.55533C0.889826 3.28625 0.997378 3.02851 1.18798 2.83857C1.37858 2.64864 1.63669 2.54199 1.90577 2.54199Z" fill="#999999"/>
<path opacity="0.5" d="M1.90577 2.54199H4.19911V8.94199C4.19911 9.07684 4.14554 9.20617 4.05019 9.30152C3.95484 9.39687 3.82551 9.45044 3.69066 9.45044H1.39733C1.26401 9.45046 1.13601 9.39811 1.04091 9.30467C0.945812 9.21124 0.891216 9.08418 0.888885 8.95088V3.55533C0.889826 3.28625 0.997378 3.02851 1.18798 2.83857C1.37858 2.64864 1.63669 2.54199 1.90577 2.54199Z" fill="#999999"/>
<path d="M27.8009 2.54199H30.0942C30.3633 2.54199 30.6214 2.64864 30.812 2.83857C31.0026 3.02851 31.1102 3.28625 31.1111 3.55533V8.95088C31.1111 9.08573 31.0576 9.21505 30.9622 9.31041C30.8669 9.40576 30.7375 9.45933 30.6027 9.45933H28.3093C28.1745 9.45933 28.0452 9.40576 27.9498 9.31041C27.8545 9.21505 27.8009 9.08573 27.8009 8.95088V2.54199Z" fill="#999999"/>
<path opacity="0.5" d="M27.8009 2.54199H30.0942C30.3633 2.54199 30.6214 2.64864 30.812 2.83857C31.0026 3.02851 31.1102 3.28625 31.1111 3.55533V8.95088C31.1111 9.08573 31.0576 9.21505 30.9622 9.31041C30.8669 9.40576 30.7375 9.45933 30.6027 9.45933H28.3093C28.1745 9.45933 28.0452 9.40576 27.9498 9.31041C27.8545 9.21505 27.8009 9.08573 27.8009 8.95088V2.54199Z" fill="#999999"/>
<path d="M31.1111 3.54999V5.76688L0.888863 5.76688V3.54999C0.888863 3.28265 0.99506 3.02626 1.1841 2.83723C1.37313 2.64819 1.62952 2.54199 1.89686 2.54199L30.1102 2.54199C30.3763 2.54387 30.6309 2.6509 30.8184 2.83973C31.0059 3.02856 31.1111 3.28388 31.1111 3.54999Z" fill="#949494"/>
<path d="M1.39733 22.54H3.69066C3.75743 22.54 3.82355 22.5532 3.88524 22.5787C3.94692 22.6043 4.00297 22.6417 4.05019 22.689C4.0974 22.7362 4.13485 22.7922 4.1604 22.8539C4.18596 22.9156 4.19911 22.9817 4.19911 23.0485V29.4485H1.90577C1.63822 29.4485 1.38144 29.3431 1.19109 29.1551C1.00074 28.967 0.89216 28.7116 0.888885 28.444V23.0485C0.888885 22.9136 0.942454 22.7843 1.03781 22.689C1.13316 22.5936 1.26248 22.54 1.39733 22.54Z" fill="#999999"/>
<path opacity="0.5" d="M1.39733 22.54H3.69066C3.75743 22.54 3.82355 22.5532 3.88524 22.5787C3.94692 22.6043 4.00297 22.6417 4.05019 22.689C4.0974 22.7362 4.13485 22.7922 4.1604 22.8539C4.18596 22.9156 4.19911 22.9817 4.19911 23.0485V29.4485H1.90577C1.63822 29.4485 1.38144 29.3431 1.19109 29.1551C1.00074 28.967 0.89216 28.7116 0.888885 28.444V23.0485C0.888885 22.9136 0.942454 22.7843 1.03781 22.689C1.13316 22.5936 1.26248 22.54 1.39733 22.54Z" fill="#999999"/>
<path d="M28.3093 22.54H30.6027C30.7375 22.54 30.8668 22.5936 30.9622 22.689C31.0575 22.7843 31.1111 22.9136 31.1111 23.0485V28.444C31.1111 28.7137 31.004 28.9724 30.8133 29.1631C30.6226 29.3538 30.3639 29.4609 30.0942 29.4609H27.8009V23.0609C27.7992 22.9931 27.8111 22.9257 27.8359 22.8625C27.8608 22.7994 27.8979 22.7419 27.9453 22.6933C27.9927 22.6448 28.0493 22.6062 28.1118 22.5799C28.1743 22.5536 28.2415 22.54 28.3093 22.54Z" fill="#999999"/>
<path opacity="0.5" d="M28.3093 22.54H30.6027C30.7375 22.54 30.8668 22.5936 30.9622 22.689C31.0575 22.7843 31.1111 22.9136 31.1111 23.0485V28.444C31.1111 28.7137 31.004 28.9724 30.8133 29.1631C30.6226 29.3538 30.3639 29.4609 30.0942 29.4609H27.8009V23.0609C27.7992 22.9931 27.8111 22.9257 27.8359 22.8625C27.8608 22.7994 27.8979 22.7419 27.9453 22.6933C27.9927 22.6448 28.0493 22.6062 28.1118 22.5799C28.1743 22.5536 28.2415 22.54 28.3093 22.54Z" fill="#999999"/>
<path d="M0.888885 28.45L0.888885 26.2331H31.1111V28.45C31.1111 28.7173 31.0049 28.9737 30.8159 29.1628C30.6268 29.3518 30.3704 29.458 30.1031 29.458L1.89689 29.458C1.62955 29.458 1.37316 29.3518 1.18412 29.1628C0.995085 28.9737 0.888885 28.7173 0.888885 28.45Z" fill="#949494"/>
<defs>
<linearGradient id="paint0_linear_868_10086" x1="15.9911" y1="18.3096" x2="15.9911" y2="23.4651" gradientUnits="userSpaceOnUse">
<stop stop-color="#005BA1"/>
<stop offset="0.258" stop-color="#00589D"/>
<stop offset="0.525" stop-color="#004F90"/>
<stop offset="0.796" stop-color="#003F7C"/>
<stop offset="1" stop-color="#003067"/>
</linearGradient>
</defs>
</svg>
