<svg width="32" height="32" viewBox="0 0 32 32" fill="none" xmlns="http://www.w3.org/2000/svg">
<path d="M22.5777 14.4889V13.4222H14.5422L10.7733 17.1733H7.99996L14.4355 10.6667H18.8266V9.65332H13.9911L6.48885 17.1733H5.42218V18.24H8.63996L12.4444 21.9911H21.5111V20.9244H12.8355L10.1511 18.24H16.6755V17.1733H12.3022L14.9688 14.4889H22.5777Z" fill="#32BEDD"/>
<path d="M17.7422 19.2535C18.5964 19.2535 19.2889 18.561 19.2889 17.7068C19.2889 16.8526 18.5964 16.1602 17.7422 16.1602C16.888 16.1602 16.1956 16.8526 16.1956 17.7068C16.1956 18.561 16.888 19.2535 17.7422 19.2535Z" fill="white"/>
<path d="M19.36 11.7506C20.2142 11.7506 20.9066 11.0581 20.9066 10.2039C20.9066 9.34969 20.2142 8.65723 19.36 8.65723C18.5058 8.65723 17.8133 9.34969 17.8133 10.2039C17.8133 11.0581 18.5058 11.7506 19.36 11.7506Z" fill="white"/>
<path d="M23.1111 15.5015C23.9653 15.5015 24.6578 14.8091 24.6578 13.9549C24.6578 13.1007 23.9653 12.4082 23.1111 12.4082C22.2569 12.4082 21.5645 13.1007 21.5645 13.9549C21.5645 14.8091 22.2569 15.5015 23.1111 15.5015Z" fill="white"/>
<path d="M21.5111 23.0045C22.3653 23.0045 23.0578 22.312 23.0578 21.4578C23.0578 20.6036 22.3653 19.9111 21.5111 19.9111C20.6569 19.9111 19.9644 20.6036 19.9644 21.4578C19.9644 22.312 20.6569 23.0045 21.5111 23.0045Z" fill="white"/>
<path d="M19.3067 12.0712C20.3376 12.0712 21.1733 11.2355 21.1733 10.2046C21.1733 9.17363 20.3376 8.33789 19.3067 8.33789C18.2757 8.33789 17.44 9.17363 17.44 10.2046C17.44 11.2355 18.2757 12.0712 19.3067 12.0712Z" fill="#50E6FF"/>
<path d="M23.0578 15.8222C24.0887 15.8222 24.9244 14.9865 24.9244 13.9555C24.9244 12.9246 24.0887 12.0889 23.0578 12.0889C22.0268 12.0889 21.1911 12.9246 21.1911 13.9555C21.1911 14.9865 22.0268 15.8222 23.0578 15.8222Z" fill="url(#paint0_linear_868_10095)"/>
<path d="M21.5111 23.3242C22.542 23.3242 23.3777 22.4884 23.3777 21.4575C23.3777 20.4266 22.542 19.5908 21.5111 19.5908C20.4801 19.5908 19.6444 20.4266 19.6444 21.4575C19.6444 22.4884 20.4801 23.3242 21.5111 23.3242Z" fill="url(#paint1_linear_868_10095)"/>
<path d="M17.7422 19.5732C18.7731 19.5732 19.6089 18.7374 19.6089 17.7065C19.6089 16.6756 18.7731 15.8398 17.7422 15.8398C16.7113 15.8398 15.8755 16.6756 15.8755 17.7065C15.8755 18.7374 16.7113 19.5732 17.7422 19.5732Z" fill="#50E6FF"/>
<path d="M1.90219 2.54199H4.19552V8.88866C4.19552 9.02539 4.1412 9.15653 4.04452 9.25321C3.94783 9.3499 3.8167 9.40421 3.67997 9.40421H1.40441C1.26768 9.40421 1.13654 9.3499 1.03986 9.25321C0.943172 9.15653 0.888855 9.02539 0.888855 8.88866V3.55533C0.888855 3.28657 0.995617 3.02883 1.18565 2.83879C1.37569 2.64875 1.63344 2.54199 1.90219 2.54199Z" fill="#999999"/>
<path opacity="0.5" d="M1.90219 2.54199H4.19552V8.88866C4.19552 9.02539 4.1412 9.15653 4.04452 9.25321C3.94783 9.3499 3.8167 9.40421 3.67997 9.40421H1.40441C1.26768 9.40421 1.13654 9.3499 1.03986 9.25321C0.943172 9.15653 0.888855 9.02539 0.888855 8.88866V3.55533C0.888855 3.28657 0.995617 3.02883 1.18565 2.83879C1.37569 2.64875 1.63344 2.54199 1.90219 2.54199Z" fill="#999999"/>
<path d="M27.8044 2.54199H30.0978C30.3665 2.54199 30.6243 2.64875 30.8143 2.83879C31.0043 3.02883 31.1111 3.28657 31.1111 3.55533V8.88866C31.1111 9.02539 31.0568 9.15653 30.9601 9.25321C30.8634 9.3499 30.7323 9.40421 30.5956 9.40421H28.3022C28.1686 9.3996 28.042 9.34326 27.9491 9.24707C27.8562 9.15088 27.8044 9.02237 27.8044 8.88866V2.54199Z" fill="#999999"/>
<path opacity="0.5" d="M27.8044 2.54199H30.0978C30.3665 2.54199 30.6243 2.64875 30.8143 2.83879C31.0043 3.02883 31.1111 3.28657 31.1111 3.55533V8.88866C31.1111 9.02539 31.0568 9.15653 30.9601 9.25321C30.8634 9.3499 30.7323 9.40421 30.5956 9.40421H28.3022C28.1686 9.3996 28.042 9.34326 27.9491 9.24707C27.8562 9.15088 27.8044 9.02237 27.8044 8.88866V2.54199Z" fill="#999999"/>
<path d="M31.1111 3.55533V5.77755L0.888863 5.77755V3.55533C0.888863 3.28657 0.995625 3.02883 1.18566 2.83879C1.3757 2.64875 1.63344 2.54199 1.9022 2.54199L30.1155 2.54199C30.3812 2.54665 30.6344 2.65547 30.8206 2.845C31.0068 3.03454 31.1111 3.28962 31.1111 3.55533Z" fill="#949494"/>
<path d="M1.40443 22.542H3.69776C3.8345 22.542 3.96563 22.5963 4.06232 22.693C4.159 22.7897 4.21332 22.9208 4.21332 23.0576V29.4576H1.90221C1.76914 29.4576 1.63737 29.4313 1.51442 29.3804C1.39148 29.3295 1.27977 29.2549 1.18567 29.1608C0.995637 28.9707 0.888875 28.713 0.888875 28.4442V23.1109C0.881381 23.0388 0.889153 22.966 0.911684 22.8972C0.934216 22.8283 0.971002 22.765 1.01964 22.7113C1.06829 22.6577 1.12769 22.6148 1.19399 22.5857C1.26029 22.5565 1.332 22.5416 1.40443 22.542Z" fill="#999999"/>
<path opacity="0.5" d="M1.40443 22.542H3.69776C3.8345 22.542 3.96563 22.5963 4.06232 22.693C4.159 22.7897 4.21332 22.9208 4.21332 23.0576V29.4576H1.90221C1.76914 29.4576 1.63737 29.4313 1.51442 29.3804C1.39148 29.3295 1.27977 29.2549 1.18567 29.1608C0.995637 28.9707 0.888875 28.713 0.888875 28.4442V23.1109C0.881381 23.0388 0.889153 22.966 0.911684 22.8972C0.934216 22.8283 0.971002 22.765 1.01964 22.7113C1.06829 22.6577 1.12769 22.6148 1.19399 22.5857C1.26029 22.5565 1.332 22.5416 1.40443 22.542Z" fill="#999999"/>
<path d="M28.3022 22.542H30.5955C30.7323 22.542 30.8634 22.5963 30.9601 22.693C31.0568 22.7897 31.1111 22.9208 31.1111 23.0575V28.3909C31.1111 28.6596 31.0043 28.9174 30.8143 29.1074C30.6243 29.2975 30.3665 29.4042 30.0978 29.4042H27.8044V23.1109C27.7971 23.0403 27.8043 22.969 27.8258 22.9013C27.8473 22.8337 27.8825 22.7712 27.9292 22.7178C27.9759 22.6644 28.0332 22.6213 28.0974 22.591C28.1615 22.5607 28.2313 22.5441 28.3022 22.542Z" fill="#999999"/>
<path opacity="0.5" d="M28.3022 22.542H30.5955C30.7323 22.542 30.8634 22.5963 30.9601 22.693C31.0568 22.7897 31.1111 22.9208 31.1111 23.0575V28.3909C31.1111 28.6596 31.0043 28.9174 30.8143 29.1074C30.6243 29.2975 30.3665 29.4042 30.0978 29.4042H27.8044V23.1109C27.7971 23.0403 27.8043 22.969 27.8258 22.9013C27.8473 22.8337 27.8825 22.7712 27.9292 22.7178C27.9759 22.6644 28.0332 22.6213 28.0974 22.591C28.1615 22.5607 28.2313 22.5441 28.3022 22.542Z" fill="#999999"/>
<path d="M0.888855 28.4447L0.888855 26.2225H31.1111V28.4447C31.1111 28.7134 31.0043 28.9712 30.8143 29.1612C30.6242 29.3512 30.3665 29.458 30.0977 29.458L1.90219 29.458C1.63344 29.458 1.37569 29.3512 1.18565 29.1612C0.995617 28.9712 0.888855 28.7134 0.888855 28.4447Z" fill="#949494"/>
<defs>
<linearGradient id="paint0_linear_868_10095" x1="34.7555" y1="1.22665" x2="34.7555" y2="4.95109" gradientUnits="userSpaceOnUse">
<stop stop-color="#C69AEB"/>
<stop offset="1" stop-color="#6F4BB2"/>
</linearGradient>
<linearGradient id="paint1_linear_868_10095" x1="33.2177" y1="8.73749" x2="33.2177" y2="12.453" gradientUnits="userSpaceOnUse">
<stop stop-color="#C69AEB"/>
<stop offset="1" stop-color="#6F4BB2"/>
</linearGradient>
</defs>
</svg>
