<svg width="32" height="32" viewBox="0 0 32 32" fill="none" xmlns="http://www.w3.org/2000/svg">
<path d="M1.88445 2.52457H4.17778V8.88902C4.17778 9.02575 4.12347 9.15688 4.02678 9.25357C3.93009 9.35026 3.79896 9.40457 3.66223 9.40457H1.36889C1.23216 9.40457 1.10103 9.35026 1.00434 9.25357C0.907656 9.15688 0.853339 9.02575 0.853339 8.88902V3.55568C0.85093 3.41961 0.875955 3.28445 0.92692 3.15826C0.977885 3.03207 1.05375 2.91744 1.14998 2.82121C1.24621 2.72498 1.36084 2.64912 1.48703 2.59815C1.61322 2.54719 1.74838 2.52216 1.88445 2.52457Z" fill="#A3A3A3"/>
<path opacity="0.5" d="M1.88445 2.52457H4.17778V8.88902C4.17778 9.02575 4.12347 9.15688 4.02678 9.25357C3.93009 9.35026 3.79896 9.40457 3.66223 9.40457H1.36889C1.23216 9.40457 1.10103 9.35026 1.00434 9.25357C0.907656 9.15688 0.853339 9.02575 0.853339 8.88902V3.55568C0.85093 3.41961 0.875955 3.28445 0.92692 3.15826C0.977885 3.03207 1.05375 2.91744 1.14998 2.82121C1.24621 2.72498 1.36084 2.64912 1.48703 2.59815C1.61322 2.54719 1.74838 2.52216 1.88445 2.52457Z" fill="#A3A3A3"/>
<path d="M27.8222 2.52441H30.1156C30.2486 2.52441 30.3804 2.55062 30.5034 2.60155C30.6263 2.65247 30.738 2.72712 30.8321 2.82121C30.9262 2.91531 31.0008 3.02702 31.0518 3.14996C31.1027 3.2729 31.1289 3.40467 31.1289 3.53775V8.88886C31.1289 9.02559 31.0746 9.15673 30.9779 9.25341C30.8812 9.3501 30.7501 9.40441 30.6133 9.40441H28.3378C28.2011 9.40441 28.0699 9.3501 27.9732 9.25341C27.8766 9.15673 27.8222 9.02559 27.8222 8.88886V2.52441Z" fill="#A3A3A3"/>
<path opacity="0.5" d="M27.8222 2.52441H30.1156C30.2486 2.52441 30.3804 2.55062 30.5034 2.60155C30.6263 2.65247 30.738 2.72712 30.8321 2.82121C30.9262 2.91531 31.0008 3.02702 31.0518 3.14996C31.1027 3.2729 31.1289 3.40467 31.1289 3.53775V8.88886C31.1289 9.02559 31.0746 9.15673 30.9779 9.25341C30.8812 9.3501 30.7501 9.40441 30.6133 9.40441H28.3378C28.2011 9.40441 28.0699 9.3501 27.9732 9.25341C27.8766 9.15673 27.8222 9.02559 27.8222 8.88886V2.52441Z" fill="#A3A3A3"/>
<path d="M31.1289 3.52017V5.74239L0.906685 5.74239V3.52017C0.906685 3.25142 1.01345 2.99367 1.20348 2.80363C1.39352 2.6136 1.65127 2.50684 1.92002 2.50684L30.1156 2.50684C30.3843 2.50684 30.6421 2.6136 30.8321 2.80363C31.0221 2.99367 31.1289 3.25142 31.1289 3.52017Z" fill="#949494"/>
<path d="M1.36889 22.5605H3.66223C3.79896 22.5605 3.9301 22.6149 4.02678 22.7116C4.12347 22.8082 4.17778 22.9394 4.17778 23.0761V29.4939H1.88445C1.74684 29.4964 1.61017 29.4708 1.48276 29.4188C1.35536 29.3667 1.23989 29.2892 1.14341 29.1911C1.04693 29.093 0.971448 28.9762 0.921576 28.8479C0.871705 28.7196 0.848488 28.5825 0.853339 28.445V23.1117C0.848456 23.041 0.858174 22.9701 0.881888 22.9034C0.905602 22.8367 0.942803 22.7756 0.991172 22.7239C1.03954 22.6722 1.09804 22.631 1.16303 22.6029C1.22801 22.5748 1.29809 22.5604 1.36889 22.5605Z" fill="#A3A3A3"/>
<path opacity="0.5" d="M1.36889 22.5605H3.66223C3.79896 22.5605 3.9301 22.6149 4.02678 22.7116C4.12347 22.8082 4.17778 22.9394 4.17778 23.0761V29.4939H1.88445C1.74684 29.4964 1.61017 29.4708 1.48276 29.4188C1.35536 29.3667 1.23989 29.2892 1.14341 29.1911C1.04693 29.093 0.971448 28.9762 0.921576 28.8479C0.871705 28.7196 0.848488 28.5825 0.853339 28.445V23.1117C0.848456 23.041 0.858174 22.9701 0.881888 22.9034C0.905602 22.8367 0.942803 22.7756 0.991172 22.7239C1.03954 22.6722 1.09804 22.631 1.16303 22.6029C1.22801 22.5748 1.29809 22.5604 1.36889 22.5605Z" fill="#A3A3A3"/>
<path d="M28.3378 22.5605H30.6311C30.7679 22.5605 30.899 22.6149 30.9957 22.7116C31.0924 22.8082 31.1467 22.9394 31.1467 23.0761V28.4094C31.1467 28.6782 31.0399 28.9359 30.8499 29.126C30.6599 29.316 30.4021 29.4228 30.1334 29.4228H27.8222V23.1117C27.8174 23.041 27.8271 22.9701 27.8508 22.9034C27.8745 22.8367 27.9117 22.7756 27.9601 22.7239C28.0084 22.6722 28.0669 22.631 28.1319 22.6029C28.1969 22.5748 28.267 22.5604 28.3378 22.5605Z" fill="#A3A3A3"/>
<path opacity="0.5" d="M28.3378 22.5605H30.6311C30.7679 22.5605 30.899 22.6149 30.9957 22.7116C31.0924 22.8082 31.1467 22.9394 31.1467 23.0761V28.4094C31.1467 28.6782 31.0399 28.9359 30.8499 29.126C30.6599 29.316 30.4021 29.4228 30.1334 29.4228H27.8222V23.1117C27.8174 23.041 27.8271 22.9701 27.8508 22.9034C27.8745 22.8367 27.9117 22.7756 27.9601 22.7239C28.0084 22.6722 28.0669 22.631 28.1319 22.6029C28.1969 22.5748 28.267 22.5604 28.3378 22.5605Z" fill="#A3A3A3"/>
<path d="M0.853333 28.4798L0.853333 26.2576H31.0756V28.4798C31.0756 28.7486 30.9688 29.0063 30.7788 29.1964C30.5887 29.3864 30.331 29.4932 30.0622 29.4932L1.86667 29.4932C1.59791 29.4932 1.34017 29.3864 1.15013 29.1964C0.960094 29.0063 0.853333 28.7486 0.853333 28.4798Z" fill="#949494"/>
<path d="M26.5067 15.7162L23.2711 12.4451C23.2493 12.4168 23.2187 12.3967 23.1841 12.3878C23.1495 12.379 23.113 12.3819 23.0803 12.3962C23.0476 12.4105 23.0206 12.4354 23.0036 12.4668C22.9867 12.4982 22.9807 12.5343 22.9867 12.5695V14.5784C22.9895 14.6025 22.9869 14.6268 22.979 14.6497C22.971 14.6726 22.958 14.6933 22.9409 14.7105C22.9238 14.7276 22.903 14.7406 22.8802 14.7485C22.8573 14.7564 22.8329 14.7591 22.8089 14.7562H13.4933C13.3194 14.53 13.096 14.3467 12.8402 14.2204C12.5844 14.094 12.3031 14.028 12.0178 14.0273C11.7465 14.0014 11.4728 14.0324 11.2142 14.1184C10.9556 14.2044 10.7179 14.3436 10.5162 14.5268C10.3146 14.7101 10.1535 14.9335 10.0432 15.1828C9.93293 15.432 9.87598 15.7015 9.87598 15.974C9.87598 16.2465 9.93293 16.516 10.0432 16.7652C10.1535 17.0144 10.3146 17.2378 10.5162 17.4211C10.7179 17.6044 10.9556 17.7435 11.2142 17.8295C11.4728 17.9156 11.7465 17.9466 12.0178 17.9206C12.3068 17.9166 12.5913 17.8474 12.8499 17.7181C13.1084 17.5888 13.3345 17.4028 13.5111 17.174H22.8089C22.8313 17.1715 22.8541 17.1737 22.8756 17.1807C22.8971 17.1876 22.9169 17.1989 22.9337 17.2141C22.9505 17.2292 22.9639 17.2477 22.973 17.2684C22.9822 17.289 22.9868 17.3114 22.9867 17.334V19.3073C22.9854 19.3409 22.9947 19.3741 23.0133 19.4021C23.0319 19.4301 23.0589 19.4516 23.0904 19.4634C23.1219 19.4752 23.1563 19.4768 23.1887 19.4679C23.2212 19.459 23.25 19.4402 23.2711 19.414L26.5067 16.1962C26.5666 16.1307 26.5999 16.045 26.5999 15.9562C26.5999 15.8674 26.5666 15.7817 26.5067 15.7162Z" fill="#5EA0EF"/>
<path d="M20.5333 9.93826L17.2978 6.72048C17.276 6.69222 17.2454 6.67206 17.2108 6.6632C17.1762 6.65435 17.1397 6.65731 17.107 6.67162C17.0743 6.68592 17.0473 6.71075 17.0303 6.74216C17.0134 6.77356 17.0074 6.80974 17.0133 6.84493V8.88937C17.0159 8.91183 17.0136 8.93456 17.0067 8.95607C16.9998 8.97759 16.9884 8.99739 16.9733 9.01419C16.9581 9.03098 16.9396 9.04439 16.919 9.05351C16.8983 9.06264 16.8759 9.06729 16.8533 9.06715H11.0222C10.8447 8.84059 10.618 8.65728 10.3594 8.53102C10.1007 8.40476 9.81674 8.33885 9.5289 8.33826C9.19493 8.33151 8.86479 8.41042 8.56996 8.56747C8.27514 8.72452 8.02546 8.95448 7.84473 9.23541C7.66401 9.51635 7.55826 9.83889 7.53757 10.1723C7.51688 10.5057 7.58194 10.8388 7.72655 11.14C7.87115 11.4411 8.09049 11.7002 8.36363 11.8925C8.63678 12.0847 8.95463 12.2039 9.28688 12.2385C9.61913 12.2731 9.9547 12.222 10.2616 12.09C10.5685 11.9581 10.8365 11.7498 11.04 11.4849H16.8533C16.8958 11.4849 16.9365 11.5018 16.9665 11.5318C16.9965 11.5618 17.0133 11.6025 17.0133 11.6449V13.5294C17.012 13.563 17.0213 13.5962 17.04 13.6242C17.0586 13.6522 17.0856 13.6736 17.117 13.6854C17.1485 13.6972 17.183 13.6988 17.2154 13.69C17.2479 13.6811 17.2767 13.6622 17.2978 13.636L20.5333 10.4183C20.5933 10.3527 20.6266 10.2671 20.6266 10.1783C20.6266 10.0894 20.5933 10.0038 20.5333 9.93826Z" fill="url(#paint0_linear_868_10094)"/>
<path d="M20.5333 21.6004L17.2978 18.3826C17.276 18.3543 17.2454 18.3342 17.2108 18.3253C17.1762 18.3165 17.1397 18.3194 17.107 18.3337C17.0743 18.348 17.0473 18.3729 17.0303 18.4043C17.0134 18.4357 17.0074 18.4718 17.0133 18.507V20.4626C17.0136 20.5068 16.9973 20.5495 16.9677 20.5824C16.9381 20.6153 16.8973 20.6359 16.8533 20.6404H11.0222C10.8447 20.4138 10.618 20.2305 10.3594 20.1042C10.1007 19.978 9.81674 19.9121 9.5289 19.9115C9.1995 19.9119 8.87556 19.9956 8.58712 20.1546C8.29868 20.3137 8.0551 20.5431 7.87897 20.8214C7.70285 21.0998 7.59989 21.4181 7.57965 21.7469C7.55941 22.0757 7.62255 22.4042 7.76321 22.7021C7.90386 22.9999 8.11747 23.2574 8.38422 23.4507C8.65097 23.6439 8.96221 23.7667 9.28907 23.8075C9.61592 23.8483 9.9478 23.806 10.2539 23.6843C10.56 23.5626 10.8304 23.3656 11.04 23.1115H16.8533C16.8958 23.1115 16.9365 23.1283 16.9665 23.1583C16.9965 23.1884 17.0133 23.229 17.0133 23.2715V25.2448C17.012 25.2784 17.0213 25.3116 17.04 25.3396C17.0586 25.3676 17.0855 25.3891 17.117 25.4009C17.1485 25.4127 17.183 25.4143 17.2154 25.4054C17.2478 25.3965 17.2767 25.3777 17.2978 25.3515L20.5333 22.1337C20.5712 22.1003 20.6015 22.0593 20.6222 22.0133C20.643 21.9674 20.6537 21.9175 20.6537 21.867C20.6537 21.8166 20.643 21.7667 20.6222 21.7207C20.6015 21.6748 20.5712 21.6337 20.5333 21.6004Z" fill="url(#paint1_linear_868_10094)"/>
<defs>
<linearGradient id="paint0_linear_868_10094" x1="14.1156" y1="13.6894" x2="14.1156" y2="6.66715" gradientUnits="userSpaceOnUse">
<stop stop-color="#5E9624"/>
<stop offset="1" stop-color="#76BC2D"/>
</linearGradient>
<linearGradient id="paint1_linear_868_10094" x1="14.1156" y1="25.3515" x2="14.1156" y2="18.3293" gradientUnits="userSpaceOnUse">
<stop stop-color="#5E9624"/>
<stop offset="1" stop-color="#76BC2D"/>
</linearGradient>
</defs>
</svg>
