<svg width="32" height="32" viewBox="0 0 32 32" fill="none" xmlns="http://www.w3.org/2000/svg">
<path d="M1.88443 2.84477V29.3692C1.88443 29.6238 1.98557 29.868 2.16561 30.048C2.34564 30.2281 2.58982 30.3292 2.84443 30.3292H29.3689C29.6235 30.3292 29.8677 30.2281 30.0477 30.048C30.2277 29.868 30.3289 29.6238 30.3289 29.3692V2.84477C30.3289 2.59016 30.2277 2.34598 30.0477 2.16594C29.8677 1.98591 29.6235 1.88477 29.3689 1.88477H2.84443C2.58982 1.88477 2.34564 1.98591 2.16561 2.16594C1.98557 2.34598 1.88443 2.59016 1.88443 2.84477ZM27.7689 27.7337H5.33332C5.20725 27.7337 5.08242 27.7088 4.96594 27.6606C4.84947 27.6123 4.74364 27.5416 4.6545 27.4525C4.56535 27.3633 4.49464 27.2575 4.44639 27.141C4.39815 27.0246 4.37332 26.8997 4.37332 26.7737V4.44477H27.7689V27.7337Z" fill="#0078D4"/>
<path d="M6.43555 6.43555H11.5555V11.5555H6.43555V6.43555Z" fill="#FFCA00"/>
<path d="M6.43555 13.5469H11.5555V18.6669H6.43555V13.5469Z" fill="#E62323"/>
<path d="M13.5467 13.5469H18.6667V18.6669H13.5467V13.5469Z" fill="#5EA0EF"/>
<path d="M6.43555 20.6582H11.5555V25.7782H6.43555V20.6582Z" fill="url(#paint0_linear_868_10093)"/>
<path d="M13.5467 20.6582H18.6667V25.7782H13.5467V20.6582Z" fill="#E62323"/>
<path d="M20.6578 20.6582H25.7778V25.7782H20.6578V20.6582Z" fill="url(#paint1_linear_868_10093)"/>
<defs>
<linearGradient id="paint0_linear_868_10093" x1="8.99555" y1="20.6582" x2="8.99555" y2="25.7782" gradientUnits="userSpaceOnUse">
<stop stop-color="#B77AF4"/>
<stop offset="1" stop-color="#773ADC"/>
</linearGradient>
<linearGradient id="paint1_linear_868_10093" x1="23.2178" y1="20.6582" x2="23.2178" y2="25.7782" gradientUnits="userSpaceOnUse">
<stop stop-color="#B77AF4"/>
<stop offset="1" stop-color="#773ADC"/>
</linearGradient>
</defs>
</svg>
