<svg width="32" height="32" viewBox="0 0 32 32" fill="none" xmlns="http://www.w3.org/2000/svg">
<g clip-path="url(#clip0_868_10091)">
<path d="M16 31.7561C24.702 31.7561 31.7564 24.7017 31.7564 15.9996C31.7564 7.29756 24.702 0.243164 16 0.243164C7.29793 0.243164 0.24353 7.29756 0.24353 15.9996C0.24353 24.7017 7.29793 31.7561 16 31.7561Z" fill="url(#paint0_radial_868_10091)"/>
<path d="M16 29.1305C23.2519 29.1305 29.1307 23.2517 29.1307 15.9998C29.1307 8.74794 23.2519 2.86914 16 2.86914C8.74812 2.86914 2.86932 8.74794 2.86932 15.9998C2.86932 23.2517 8.74812 29.1305 16 29.1305Z" fill="white"/>
<path d="M16.768 15.4036V13.2881H15.2782V15.4036C15.2782 15.4829 15.2467 15.5588 15.1907 15.6148C15.1347 15.6708 15.0587 15.7023 14.9795 15.7023H9.37241C9.2942 15.7023 9.21676 15.7177 9.1445 15.7476C9.07225 15.7776 9.00659 15.8214 8.95129 15.8767C8.89599 15.932 8.85212 15.9977 8.82219 16.07C8.79226 16.1422 8.77686 16.2197 8.77686 16.2979V19.0445H10.2666V17.5228C10.2666 17.444 10.2979 17.3685 10.3536 17.3128C10.4093 17.2571 10.4848 17.2259 10.5635 17.2259H21.4169C21.4956 17.2259 21.5711 17.2571 21.6268 17.3128C21.6825 17.3685 21.7137 17.444 21.7137 17.5228V19.0765H23.2035V16.2979C23.2035 16.2197 23.1881 16.1422 23.1582 16.07C23.1283 15.9977 23.0844 15.932 23.0291 15.8767C22.9738 15.8214 22.9081 15.7776 22.8359 15.7476C22.7636 15.7177 22.6862 15.7023 22.608 15.7023H17.0666C16.9874 15.7023 16.9115 15.6708 16.8554 15.6148C16.7994 15.5588 16.768 15.4829 16.768 15.4036Z" fill="#0078D4"/>
<path d="M18.7573 6.86524H13.1733C13.0097 6.86524 12.8528 6.93024 12.7371 7.04593C12.6214 7.16162 12.5564 7.31852 12.5564 7.48213V13.0661C12.5557 13.1476 12.5712 13.2284 12.6018 13.3038C12.6325 13.3793 12.6779 13.4479 12.7352 13.5058C12.7926 13.5636 12.8608 13.6096 12.936 13.6409C13.0112 13.6722 13.0918 13.6884 13.1733 13.6884H18.7573C18.8391 13.6888 18.9201 13.673 18.9957 13.6419C19.0713 13.6108 19.14 13.565 19.1977 13.5071C19.2554 13.4492 19.3011 13.3804 19.332 13.3047C19.3629 13.229 19.3785 13.1479 19.3778 13.0661V7.48213C19.3778 7.40082 19.3617 7.32031 19.3305 7.24524C19.2992 7.17016 19.2535 7.102 19.1958 7.04467C19.1382 6.98734 19.0697 6.94197 18.9945 6.91118C18.9192 6.88039 18.8386 6.86478 18.7573 6.86524Z" fill="white"/>
<path d="M18.7573 6.86524H13.1733C13.0097 6.86524 12.8528 6.93024 12.7371 7.04593C12.6214 7.16162 12.5564 7.31852 12.5564 7.48213V13.0661C12.5557 13.1476 12.5712 13.2284 12.6018 13.3038C12.6325 13.3793 12.6779 13.4479 12.7352 13.5058C12.7926 13.5636 12.8608 13.6096 12.936 13.6409C13.0112 13.6722 13.0918 13.6884 13.1733 13.6884H18.7573C18.8391 13.6888 18.9201 13.673 18.9957 13.6419C19.0713 13.6108 19.14 13.565 19.1977 13.5071C19.2554 13.4492 19.3011 13.3804 19.332 13.3047C19.3629 13.229 19.3785 13.1479 19.3778 13.0661V7.48213C19.3778 7.40082 19.3617 7.32031 19.3305 7.24524C19.2992 7.17016 19.2535 7.102 19.1958 7.04467C19.1382 6.98734 19.0697 6.94197 18.9945 6.91118C18.9192 6.88039 18.8386 6.86478 18.7573 6.86524ZM18.224 12.1275C18.224 12.2359 18.1809 12.3399 18.1042 12.4166C18.0275 12.4933 17.9235 12.5364 17.8151 12.5364H14.112C14.0035 12.5364 13.8995 12.4933 13.8228 12.4166C13.7462 12.3399 13.7031 12.2359 13.7031 12.1275V8.4208C13.7031 8.31236 13.7462 8.20835 13.8228 8.13167C13.8995 8.05499 14.0035 8.01191 14.112 8.01191H17.8186C17.9271 8.01191 18.0311 8.05499 18.1078 8.13167C18.1845 8.20835 18.2275 8.31236 18.2275 8.4208L18.224 12.1275Z" fill="#A67AF4"/>
<path d="M11.9377 23.44V19.5556C11.9377 19.424 11.8855 19.2979 11.7924 19.2048C11.6994 19.1118 11.5733 19.0596 11.4417 19.0596H7.55728C7.49214 19.0596 7.42765 19.0724 7.36747 19.0973C7.30729 19.1223 7.25261 19.1588 7.20655 19.2048C7.1605 19.2509 7.12396 19.3056 7.09904 19.3658C7.07411 19.4259 7.06128 19.4904 7.06128 19.5556V23.4418C7.06128 23.5069 7.07411 23.5714 7.09904 23.6316C7.12396 23.6918 7.1605 23.7465 7.20655 23.7925C7.25261 23.8386 7.30729 23.8751 7.36747 23.9C7.42765 23.925 7.49214 23.9378 7.55728 23.9378H11.4417C11.507 23.9378 11.5717 23.9249 11.6319 23.8999C11.6922 23.8748 11.747 23.8381 11.7931 23.7919C11.8392 23.7456 11.8757 23.6908 11.9005 23.6304C11.9253 23.57 11.938 23.5053 11.9377 23.44Z" fill="url(#paint1_linear_868_10091)"/>
<path d="M24.9208 23.44V19.5556C24.9208 19.424 24.8686 19.2979 24.7755 19.2048C24.6825 19.1118 24.5564 19.0596 24.4248 19.0596H20.5386C20.4071 19.0596 20.2809 19.1118 20.1879 19.2048C20.0949 19.2979 20.0426 19.424 20.0426 19.5556V23.4418C20.0426 23.5733 20.0949 23.6995 20.1879 23.7925C20.2809 23.8855 20.4071 23.9378 20.5386 23.9378H24.4248C24.4901 23.9378 24.5548 23.9249 24.615 23.8999C24.6753 23.8748 24.7301 23.8381 24.7762 23.7919C24.8223 23.7456 24.8588 23.6908 24.8836 23.6304C24.9084 23.57 24.9211 23.5053 24.9208 23.44Z" fill="url(#paint2_linear_868_10091)"/>
</g>
<defs>
<radialGradient id="paint0_radial_868_10091" cx="0" cy="0" r="1" gradientUnits="userSpaceOnUse" gradientTransform="translate(16.0782 15.8449) scale(18.6916)">
<stop offset="0.183" stop-color="#5EA0EF"/>
<stop offset="1" stop-color="#0078D4"/>
</radialGradient>
<linearGradient id="paint1_linear_868_10091" x1="9.50039" y1="19.0578" x2="9.50039" y2="23.936" gradientUnits="userSpaceOnUse">
<stop offset="0.001" stop-color="#76BC2D"/>
<stop offset="1" stop-color="#5E9624"/>
</linearGradient>
<linearGradient id="paint2_linear_868_10091" x1="22.4817" y1="19.0578" x2="22.4817" y2="23.936" gradientUnits="userSpaceOnUse">
<stop offset="0.001" stop-color="#76BC2D"/>
<stop offset="1" stop-color="#5E9624"/>
</linearGradient>
<clipPath id="clip0_868_10091">
<rect width="32" height="32" fill="white"/>
</clipPath>
</defs>
</svg>
