<svg width="32" height="32" viewBox="0 0 32 32" fill="none" xmlns="http://www.w3.org/2000/svg">
<path d="M9.5289 22.7018V11.3418H7.66223V22.7018V23.7507V24.5685H22.4889V22.7018H9.5289Z" fill="#949494"/>
<path d="M7.78669 17.4582L2.16891 23.1115C1.98975 23.2943 1.8894 23.5401 1.8894 23.796C1.8894 24.0519 1.98975 24.2977 2.16891 24.4804L7.78669 30.0449C7.96946 30.224 8.2152 30.3244 8.47113 30.3244C8.72707 30.3244 8.9728 30.224 9.15558 30.0449L14.7734 24.4271C14.9525 24.2443 15.0529 23.9986 15.0529 23.7427C15.0529 23.4867 14.9525 23.241 14.7734 23.0582L9.15558 17.4582C8.9728 17.2791 8.72707 17.1787 8.47113 17.1787C8.2152 17.1787 7.96946 17.2791 7.78669 17.4582Z" fill="url(#paint0_linear_868_10102)"/>
<path d="M13.3156 10.3825V2.84477C13.3166 2.60484 13.2277 2.37322 13.0665 2.19553C12.9053 2.01785 12.6834 1.90698 12.4445 1.88477H4.81779C4.56318 1.88477 4.319 1.98591 4.13897 2.16594C3.95893 2.34598 3.85779 2.59016 3.85779 2.84477V10.3825C3.85779 10.6372 3.95893 10.8813 4.13897 11.0614C4.319 11.2414 4.56318 11.3425 4.81779 11.3425H12.4445C12.6834 11.3203 12.9053 11.2095 13.0665 11.0318C13.2277 10.8541 13.3166 10.6225 13.3156 10.3825Z" fill="url(#paint1_linear_868_10102)"/>
<path d="M20.8711 19.876V27.396C20.8711 27.6506 20.9722 27.8948 21.1523 28.0748C21.3323 28.2549 21.5765 28.356 21.8311 28.356H29.3689C29.6235 28.356 29.8677 28.2549 30.0477 28.0748C30.2277 27.8948 30.3289 27.6506 30.3289 27.396V19.876C30.3289 19.6214 30.2277 19.3772 30.0477 19.1972C29.8677 19.0172 29.6235 18.916 29.3689 18.916H21.8311C21.5765 18.916 21.3323 19.0172 21.1523 19.1972C20.9722 19.3772 20.8711 19.6214 20.8711 19.876Z" fill="url(#paint2_linear_868_10102)"/>
<defs>
<linearGradient id="paint0_linear_868_10102" x1="8.46224" y1="17.1738" x2="8.46224" y2="30.3293" gradientUnits="userSpaceOnUse">
<stop stop-color="#008BF1"/>
<stop offset="1" stop-color="#004DAE"/>
</linearGradient>
<linearGradient id="paint1_linear_868_10102" x1="8.58668" y1="1.88477" x2="8.58668" y2="11.3425" gradientUnits="userSpaceOnUse">
<stop stop-color="#76BC2D"/>
<stop offset="1" stop-color="#5E9624"/>
</linearGradient>
<linearGradient id="paint2_linear_868_10102" x1="25.6" y1="18.916" x2="25.6" y2="28.356" gradientUnits="userSpaceOnUse">
<stop stop-color="#76BC2D"/>
<stop offset="1" stop-color="#5E9624"/>
</linearGradient>
</defs>
</svg>
