<svg width="32" height="32" viewBox="0 0 32 32" fill="none" xmlns="http://www.w3.org/2000/svg">
<g clip-path="url(#clip0_868_10088)">
<path d="M1.08979 1.76562H3.5129V8.48918C3.5129 8.63346 3.45558 8.77183 3.35356 8.87385C3.25154 8.97587 3.11317 9.03318 2.9689 9.03318H0.545786C0.474198 9.03341 0.403267 9.01952 0.33706 8.99228C0.270854 8.96505 0.210674 8.92501 0.15997 8.87448C0.109267 8.82394 0.0690369 8.76389 0.0415872 8.69777C0.0141376 8.63165 7.88027e-06 8.56077 8.26255e-06 8.48918V2.8554C-0.00305565 2.71458 0.0218012 2.57455 0.0731441 2.44339C0.124487 2.31222 0.201299 2.19253 0.299147 2.09121C0.396995 1.98989 0.513941 1.90895 0.643235 1.85307C0.772529 1.79719 0.911611 1.76747 1.05245 1.76562H1.08979Z" fill="#A3A3A3"/>
<path opacity="0.5" d="M1.08979 1.76562H3.5129V8.48918C3.5129 8.63346 3.45558 8.77183 3.35356 8.87385C3.25154 8.97587 3.11317 9.03318 2.9689 9.03318H0.545786C0.474198 9.03341 0.403267 9.01952 0.33706 8.99228C0.270854 8.96505 0.210674 8.92501 0.15997 8.87448C0.109267 8.82394 0.0690369 8.76389 0.0415872 8.69777C0.0141376 8.63165 7.88027e-06 8.56077 8.26255e-06 8.48918V2.8554C-0.00305565 2.71458 0.0218012 2.57455 0.0731441 2.44339C0.124487 2.31222 0.201299 2.19253 0.299147 2.09121C0.396995 1.98989 0.513941 1.90895 0.643235 1.85307C0.772529 1.79719 0.911611 1.76747 1.05245 1.76562H1.08979Z" fill="#A3A3A3"/>
<path d="M28.4889 1.76563H30.9102C31.0503 1.76562 31.189 1.79322 31.3184 1.84682C31.4478 1.90043 31.5654 1.979 31.6645 2.07804C31.7635 2.17709 31.8421 2.29468 31.8957 2.4241C31.9493 2.55351 31.9769 2.69222 31.9769 2.83229V8.48562C31.9769 8.55706 31.9628 8.6278 31.9355 8.6938C31.9081 8.75981 31.8681 8.81978 31.8176 8.87029C31.767 8.92081 31.7071 8.96088 31.6411 8.98821C31.5751 9.01555 31.5043 9.02962 31.4329 9.02962H29.0329C28.9615 9.02962 28.8907 9.01555 28.8247 8.98821C28.7587 8.96088 28.6987 8.92081 28.6482 8.87029C28.5977 8.81978 28.5576 8.75981 28.5303 8.6938C28.503 8.6278 28.4889 8.55706 28.4889 8.48562V1.76563Z" fill="#A3A3A3"/>
<path opacity="0.5" d="M28.4889 1.76563H30.9102C31.0503 1.76562 31.189 1.79322 31.3184 1.84682C31.4478 1.90043 31.5654 1.979 31.6645 2.07804C31.7635 2.17709 31.8421 2.29468 31.8957 2.4241C31.9493 2.55351 31.9769 2.69222 31.9769 2.83229V8.48562C31.9769 8.55706 31.9628 8.6278 31.9355 8.6938C31.9081 8.75981 31.8681 8.81978 31.8176 8.87029C31.767 8.92081 31.7071 8.96088 31.6411 8.98821C31.5751 9.01555 31.5043 9.02962 31.4329 9.02962H29.0329C28.9615 9.02962 28.8907 9.01555 28.8247 8.98821C28.7587 8.96088 28.6987 8.92081 28.6482 8.87029C28.5977 8.81978 28.5576 8.75981 28.5303 8.6938C28.503 8.6278 28.4889 8.55706 28.4889 8.48562V1.76563Z" fill="#A3A3A3"/>
<path d="M31.9804 2.81765V5.16432H0.0568848V2.81765C0.0568848 2.53475 0.169265 2.26344 0.369304 2.0634C0.569343 1.86336 0.840654 1.75098 1.12355 1.75098H30.9102C31.0506 1.75051 31.1897 1.77776 31.3195 1.83115C31.4493 1.88455 31.5673 1.96305 31.6668 2.06214C31.7662 2.16124 31.8451 2.27898 31.8989 2.40863C31.9527 2.53828 31.9804 2.67727 31.9804 2.81765Z" fill="#949494"/>
<path d="M0.545776 22.9336H2.96889C3.04033 22.9336 3.11107 22.9477 3.17707 22.975C3.24307 23.0023 3.30304 23.0424 3.35355 23.0929C3.40407 23.1434 3.44414 23.2034 3.47148 23.2694C3.49882 23.3354 3.51289 23.4062 3.51289 23.4776V30.2563H1.08978C0.948807 30.2593 0.808631 30.2344 0.677353 30.183C0.546075 30.1315 0.4263 30.0545 0.324958 29.9565C0.223615 29.8585 0.142715 29.7413 0.0869372 29.6118C0.0311591 29.4823 0.00160959 29.343 -2.1247e-06 29.202C-2.1247e-06 29.1825 -2.1247e-06 29.1647 -2.1247e-06 29.1451V23.5114C-0.00926681 23.3676 0.0388745 23.226 0.13386 23.1177C0.228846 23.0094 0.362919 22.9432 0.506665 22.9336H0.545776Z" fill="#A3A3A3"/>
<path opacity="0.5" d="M0.545776 22.9336H2.96889C3.04033 22.9336 3.11107 22.9477 3.17707 22.975C3.24307 23.0023 3.30304 23.0424 3.35355 23.0929C3.40407 23.1434 3.44414 23.2034 3.47148 23.2694C3.49882 23.3354 3.51289 23.4062 3.51289 23.4776V30.2563H1.08978C0.948807 30.2593 0.808631 30.2344 0.677353 30.183C0.546075 30.1315 0.4263 30.0545 0.324958 29.9565C0.223615 29.8585 0.142715 29.7413 0.0869372 29.6118C0.0311591 29.4823 0.00160959 29.343 -2.1247e-06 29.202C-2.1247e-06 29.1825 -2.1247e-06 29.1647 -2.1247e-06 29.1451V23.5114C-0.00926681 23.3676 0.0388745 23.226 0.13386 23.1177C0.228846 23.0094 0.362919 22.9432 0.506665 22.9336H0.545776Z" fill="#A3A3A3"/>
<path d="M29.0329 22.9332H31.456C31.5984 22.9331 31.7352 22.989 31.8369 23.0887C31.9386 23.1884 31.9972 23.3241 32 23.4665V29.1003C32 29.3832 31.8876 29.6545 31.6876 29.8545C31.4875 30.0546 31.2162 30.1669 30.9333 30.1669H28.4889V23.5003C28.4838 23.4289 28.4928 23.3573 28.5154 23.2895C28.5381 23.2216 28.5739 23.1589 28.6208 23.1049C28.6677 23.0509 28.7247 23.0067 28.7887 22.9748C28.8527 22.9429 28.9224 22.9239 28.9938 22.9189L29.0329 22.9332Z" fill="#A3A3A3"/>
<path opacity="0.5" d="M29.0329 22.9332H31.456C31.5984 22.9331 31.7352 22.989 31.8369 23.0887C31.9386 23.1884 31.9972 23.3241 32 23.4665V29.1003C32 29.3832 31.8876 29.6545 31.6876 29.8545C31.4875 30.0546 31.2162 30.1669 30.9333 30.1669H28.4889V23.5003C28.4838 23.4289 28.4928 23.3573 28.5154 23.2895C28.5381 23.2216 28.5739 23.1589 28.6208 23.1049C28.6677 23.0509 28.7247 23.0067 28.7887 22.9748C28.8527 22.9429 28.9224 22.9239 28.9938 22.9189L29.0329 22.9332Z" fill="#A3A3A3"/>
<path d="M6.52318e-06 29.1825V26.8447H31.9253V29.1914C31.9253 29.3315 31.8977 29.4702 31.8441 29.5996C31.7905 29.729 31.712 29.8466 31.6129 29.9456C31.5139 30.0447 31.3963 30.1233 31.2669 30.1769C31.1375 30.2305 30.9988 30.2581 30.8587 30.2581H1.06667C0.925846 30.2581 0.786411 30.2302 0.656414 30.176C0.526417 30.1219 0.408432 30.0425 0.309266 29.9425C0.2101 29.8425 0.131716 29.7239 0.0786361 29.5934C0.0255568 29.463 -0.00116704 29.3233 6.52318e-06 29.1825Z" fill="#949494"/>
<path d="M22.9671 20.0747C22.9952 20.0746 23.0229 20.0681 23.0481 20.0558C23.0734 20.0435 23.0955 20.0257 23.1129 20.0036L26.9173 16.2205C26.9885 16.1436 27.0281 16.0426 27.0281 15.9378C27.0281 15.833 26.9885 15.7321 26.9173 15.6552L23.1129 11.8098C23.0989 11.789 23.0806 11.7714 23.0593 11.7582C23.038 11.745 23.0141 11.7364 22.9893 11.733C22.9644 11.7297 22.9392 11.7316 22.9151 11.7387C22.8911 11.7458 22.8688 11.7579 22.8498 11.7743C22.8231 11.7948 22.8025 11.8222 22.79 11.8534C22.7774 11.8847 22.7735 11.9188 22.7787 11.952V14.3183C22.7842 14.3677 22.7699 14.4174 22.7389 14.4564C22.7079 14.4953 22.6628 14.5205 22.6133 14.5263H13.7529C13.5483 14.2604 13.2856 14.0449 12.9848 13.8963C12.684 13.7478 12.3532 13.6702 12.0178 13.6694C11.9431 13.6694 11.8702 13.6587 11.7973 13.6587C11.2068 13.6598 10.6392 13.888 10.2123 14.296C9.78534 14.7041 9.53166 15.2607 9.50379 15.8506C9.47591 16.4405 9.67598 17.0185 10.0626 17.465C10.4491 17.9114 10.9926 18.1921 11.5804 18.2489C11.6533 18.2489 11.7262 18.2489 11.7991 18.2489C11.872 18.2489 11.9449 18.2489 12.0178 18.2489C12.3577 18.2437 12.6921 18.1621 12.9961 18.0101C13.3002 17.8581 13.5661 17.6395 13.7742 17.3707H22.5973C22.6435 17.3708 22.688 17.3879 22.7225 17.4188C22.7569 17.4496 22.7788 17.4919 22.784 17.5378V19.8809C22.783 19.9308 22.8017 19.979 22.8359 20.0153C22.8702 20.0515 22.9173 20.0729 22.9671 20.0747Z" fill="url(#paint0_linear_868_10088)"/>
<path d="M15.7973 18.7907C15.1977 19.6331 14.3461 20.2634 13.3653 20.5909C12.3844 20.9183 11.325 20.926 10.3395 20.6128C9.35405 20.2995 8.49344 19.6816 7.88166 18.8479C7.26988 18.0143 6.93851 17.0079 6.93528 15.9739C6.93205 14.9399 7.25712 13.9315 7.86368 13.094C8.47024 12.2566 9.32697 11.6332 10.3105 11.3139C11.2939 10.9945 12.3534 10.9955 13.3363 11.3168C14.3191 11.6381 15.1746 12.2631 15.7796 13.1018H18.4284C17.7711 11.5855 16.6108 10.3422 15.1435 9.58179C13.6761 8.82136 11.9914 8.59026 10.3734 8.92746C8.75549 9.26467 7.30335 10.1495 6.26193 11.4329C5.22051 12.7162 4.65353 14.3194 4.65663 15.9721C4.65973 17.6248 5.23271 19.2258 6.27894 20.5052C7.32517 21.7846 8.78062 22.664 10.3998 22.9952C12.019 23.3263 13.7029 23.0889 15.1674 22.323C16.6319 21.557 17.7874 20.3095 18.4391 18.7907H15.7973Z" fill="#773ADC"/>
</g>
<defs>
<linearGradient id="paint0_linear_868_10088" x1="18.2667" y1="19.6089" x2="18.2667" y2="13.8187" gradientUnits="userSpaceOnUse">
<stop stop-color="#0078D4"/>
<stop offset="1" stop-color="#5EA0EF"/>
</linearGradient>
<clipPath id="clip0_868_10088">
<rect width="32" height="32" fill="white"/>
</clipPath>
</defs>
</svg>
