<svg width="32" height="32" viewBox="0 0 32 32" fill="none" xmlns="http://www.w3.org/2000/svg">
<g clip-path="url(#clip0_868_10097)">
<path d="M1.08979 1.76562H3.5129V8.48918C3.5129 8.63346 3.45558 8.77183 3.35356 8.87385C3.25154 8.97587 3.11317 9.03318 2.9689 9.03318H0.545786C0.474198 9.03341 0.403267 9.01952 0.33706 8.99228C0.270854 8.96505 0.210674 8.92501 0.15997 8.87448C0.109267 8.82394 0.0690369 8.76389 0.0415872 8.69777C0.0141376 8.63165 7.88027e-06 8.56077 8.26255e-06 8.48918V2.8554C-0.00305565 2.71458 0.0218012 2.57455 0.0731441 2.44339C0.124487 2.31222 0.201299 2.19253 0.299147 2.09121C0.396995 1.98989 0.513941 1.90895 0.643235 1.85307C0.772529 1.79719 0.911611 1.76747 1.05245 1.76562H1.08979Z" fill="#A3A3A3"/>
<path opacity="0.5" d="M1.08979 1.76562H3.5129V8.48918C3.5129 8.63346 3.45558 8.77183 3.35356 8.87385C3.25154 8.97587 3.11317 9.03318 2.9689 9.03318H0.545786C0.474198 9.03341 0.403267 9.01952 0.33706 8.99228C0.270854 8.96505 0.210674 8.92501 0.15997 8.87448C0.109267 8.82394 0.0690369 8.76389 0.0415872 8.69777C0.0141376 8.63165 7.88027e-06 8.56077 8.26255e-06 8.48918V2.8554C-0.00305565 2.71458 0.0218012 2.57455 0.0731441 2.44339C0.124487 2.31222 0.201299 2.19253 0.299147 2.09121C0.396995 1.98989 0.513941 1.90895 0.643235 1.85307C0.772529 1.79719 0.911611 1.76747 1.05245 1.76562H1.08979Z" fill="#A3A3A3"/>
<path d="M28.4889 1.76563H30.9102C31.0503 1.76562 31.189 1.79322 31.3184 1.84682C31.4478 1.90043 31.5654 1.979 31.6645 2.07804C31.7635 2.17709 31.8421 2.29468 31.8957 2.4241C31.9493 2.55351 31.9769 2.69222 31.9769 2.83229V8.48562C31.9769 8.55706 31.9628 8.6278 31.9355 8.6938C31.9081 8.75981 31.8681 8.81978 31.8176 8.87029C31.767 8.92081 31.7071 8.96088 31.6411 8.98821C31.5751 9.01555 31.5043 9.02962 31.4329 9.02962H29.0329C28.9615 9.02962 28.8907 9.01555 28.8247 8.98821C28.7587 8.96088 28.6987 8.92081 28.6482 8.87029C28.5977 8.81978 28.5576 8.75981 28.5303 8.6938C28.503 8.6278 28.4889 8.55706 28.4889 8.48562V1.76563Z" fill="#A3A3A3"/>
<path opacity="0.5" d="M28.4889 1.76563H30.9102C31.0503 1.76562 31.189 1.79322 31.3184 1.84682C31.4478 1.90043 31.5654 1.979 31.6645 2.07804C31.7635 2.17709 31.8421 2.29468 31.8957 2.4241C31.9493 2.55351 31.9769 2.69222 31.9769 2.83229V8.48562C31.9769 8.55706 31.9628 8.6278 31.9355 8.6938C31.9081 8.75981 31.8681 8.81978 31.8176 8.87029C31.767 8.92081 31.7071 8.96088 31.6411 8.98821C31.5751 9.01555 31.5043 9.02962 31.4329 9.02962H29.0329C28.9615 9.02962 28.8907 9.01555 28.8247 8.98821C28.7587 8.96088 28.6987 8.92081 28.6482 8.87029C28.5977 8.81978 28.5576 8.75981 28.5303 8.6938C28.503 8.6278 28.4889 8.55706 28.4889 8.48562V1.76563Z" fill="#A3A3A3"/>
<path d="M31.9804 2.81765V5.16432H0.0568848V2.81765C0.0568848 2.53475 0.169265 2.26344 0.369304 2.0634C0.569343 1.86336 0.840654 1.75098 1.12355 1.75098H30.9102C31.0506 1.75051 31.1897 1.77776 31.3195 1.83115C31.4493 1.88455 31.5673 1.96305 31.6668 2.06214C31.7662 2.16124 31.8451 2.27898 31.8989 2.40863C31.9527 2.53828 31.9804 2.67727 31.9804 2.81765Z" fill="#949494"/>
<path d="M0.545806 22.9336H2.96892C3.04036 22.9336 3.1111 22.9477 3.1771 22.975C3.2431 23.0023 3.30307 23.0424 3.35358 23.0929C3.4041 23.1434 3.44417 23.2034 3.47151 23.2694C3.49885 23.3354 3.51292 23.4062 3.51292 23.4776V30.2563H1.08981C0.948838 30.2593 0.808661 30.2344 0.677383 30.183C0.546105 30.1315 0.426331 30.0545 0.324988 29.9565C0.223646 29.8585 0.142746 29.7413 0.0869677 29.6118C0.0311896 29.4823 0.00164011 29.343 2.83929e-05 29.202C2.83929e-05 29.1825 2.83929e-05 29.1647 2.83929e-05 29.1451V23.5114C-0.0092363 23.3676 0.038905 23.226 0.133891 23.1177C0.228876 23.0094 0.362949 22.9432 0.506695 22.9336H0.545806Z" fill="#A3A3A3"/>
<path opacity="0.5" d="M0.545806 22.9336H2.96892C3.04036 22.9336 3.1111 22.9477 3.1771 22.975C3.2431 23.0023 3.30307 23.0424 3.35358 23.0929C3.4041 23.1434 3.44417 23.2034 3.47151 23.2694C3.49885 23.3354 3.51292 23.4062 3.51292 23.4776V30.2563H1.08981C0.948838 30.2593 0.808661 30.2344 0.677383 30.183C0.546105 30.1315 0.426331 30.0545 0.324988 29.9565C0.223646 29.8585 0.142746 29.7413 0.0869677 29.6118C0.0311896 29.4823 0.00164011 29.343 2.83929e-05 29.202C2.83929e-05 29.1825 2.83929e-05 29.1647 2.83929e-05 29.1451V23.5114C-0.0092363 23.3676 0.038905 23.226 0.133891 23.1177C0.228876 23.0094 0.362949 22.9432 0.506695 22.9336H0.545806Z" fill="#A3A3A3"/>
<path d="M29.0329 22.9332H31.456C31.5984 22.9331 31.7352 22.989 31.8369 23.0887C31.9386 23.1884 31.9972 23.3241 32 23.4665V29.1003C32 29.3832 31.8876 29.6545 31.6876 29.8545C31.4875 30.0546 31.2162 30.1669 30.9333 30.1669H28.4889V23.5003C28.4838 23.4289 28.4928 23.3573 28.5154 23.2895C28.5381 23.2216 28.5739 23.1589 28.6208 23.1049C28.6677 23.0509 28.7247 23.0067 28.7887 22.9748C28.8527 22.9429 28.9224 22.9239 28.9938 22.9189L29.0329 22.9332Z" fill="#A3A3A3"/>
<path opacity="0.5" d="M29.0329 22.9332H31.456C31.5984 22.9331 31.7352 22.989 31.8369 23.0887C31.9386 23.1884 31.9972 23.3241 32 23.4665V29.1003C32 29.3832 31.8876 29.6545 31.6876 29.8545C31.4875 30.0546 31.2162 30.1669 30.9333 30.1669H28.4889V23.5003C28.4838 23.4289 28.4928 23.3573 28.5154 23.2895C28.5381 23.2216 28.5739 23.1589 28.6208 23.1049C28.6677 23.0509 28.7247 23.0067 28.7887 22.9748C28.8527 22.9429 28.9224 22.9239 28.9938 22.9189L29.0329 22.9332Z" fill="#A3A3A3"/>
<path d="M-2.39944e-05 29.1825V26.8447H31.9253V29.1914C31.9253 29.3315 31.8977 29.4702 31.8441 29.5996C31.7905 29.729 31.7119 29.8466 31.6129 29.9456C31.5138 30.0447 31.3963 30.1233 31.2668 30.1769C31.1374 30.2305 30.9987 30.2581 30.8586 30.2581H1.06664C0.925815 30.2581 0.78638 30.2302 0.656383 30.176C0.526387 30.1219 0.408401 30.0425 0.309235 29.9425C0.210069 29.8425 0.131685 29.7239 0.0786056 29.5934C0.0255263 29.463 -0.00119756 29.3233 -2.39944e-05 29.1825Z" fill="#949494"/>
<path d="M24.3058 16.7274V15.314H15.4827V9.35669H22.8427V7.94336H15.4827C15.107 7.94571 14.7475 8.09658 14.4827 8.36305C14.2179 8.62951 14.0693 8.98992 14.0693 9.36558V15.314H7.79199V16.7362H14.0853V22.6527C14.0881 23.028 14.2392 23.3871 14.5056 23.6515C14.7721 23.9159 15.1322 24.0643 15.5075 24.0642H22.8515V22.6509H15.4987V16.7274H24.3058Z" fill="#0078D4"/>
<path d="M24.9636 18.1029C26.1545 18.1029 27.12 17.1375 27.12 15.9465C27.12 14.7555 26.1545 13.79 24.9636 13.79C23.7726 13.79 22.8071 14.7555 22.8071 15.9465C22.8071 17.1375 23.7726 18.1029 24.9636 18.1029Z" fill="#5EA0EF"/>
<path d="M6.94578 19.0716C8.63454 19.0716 10.0036 17.7026 10.0036 16.0138C10.0036 14.3251 8.63454 12.9561 6.94578 12.9561C5.25701 12.9561 3.888 14.3251 3.888 16.0138C3.888 17.7026 5.25701 19.0716 6.94578 19.0716Z" fill="url(#paint0_linear_868_10097)"/>
<path d="M23.0169 25.5717C24.2079 25.5717 25.1734 24.6062 25.1734 23.4152C25.1734 22.2243 24.2079 21.2588 23.0169 21.2588C21.8259 21.2588 20.8605 22.2243 20.8605 23.4152C20.8605 24.6062 21.8259 25.5717 23.0169 25.5717Z" fill="#5EA0EF"/>
<path d="M23.0169 10.7416C24.2079 10.7416 25.1734 9.77613 25.1734 8.58516C25.1734 7.39418 24.2079 6.42871 23.0169 6.42871C21.8259 6.42871 20.8605 7.39418 20.8605 8.58516C20.8605 9.77613 21.8259 10.7416 23.0169 10.7416Z" fill="#5EA0EF"/>
</g>
<defs>
<linearGradient id="paint0_linear_868_10097" x1="6.94578" y1="19.8218" x2="6.94578" y2="12.2787" gradientUnits="userSpaceOnUse">
<stop stop-color="#773ADC"/>
<stop offset="1" stop-color="#A67AF4"/>
</linearGradient>
<clipPath id="clip0_868_10097">
<rect width="32" height="32" fill="white"/>
</clipPath>
</defs>
</svg>
