<svg width="32" height="32" viewBox="0 0 32 32" fill="none" xmlns="http://www.w3.org/2000/svg">
<g clip-path="url(#clip0_868_10089)">
<path d="M27.28 9.36886H19.2124V1.24441L26.1458 1.16797C26.2953 1.16797 26.4434 1.19746 26.5816 1.25475C26.7198 1.31204 26.8453 1.396 26.9509 1.50184C27.0566 1.60769 27.1404 1.73332 27.1975 1.87157C27.2545 2.00982 27.2838 2.15796 27.2836 2.30752L27.28 9.36886ZM17.7884 9.4453V1.16797H9.56801L9.72089 9.4453H17.7884ZM0.07645 19.0222H8.29689V10.736H5.54739e-06L0.07645 19.0222ZM5.54739e-06 27.3671C5.36482e-06 27.5166 0.0294937 27.6647 0.0867835 27.8029C0.144073 27.9411 0.22804 28.0666 0.333881 28.1722C0.439722 28.2779 0.56536 28.3617 0.703606 28.4188C0.841853 28.4758 0.989996 28.5051 1.13956 28.5049H8.29689V20.304H5.54739e-06V27.3671ZM5.54739e-06 2.31108L0.07645 9.36886H8.29689V1.16797H1.13956C0.989613 1.16797 0.841139 1.19756 0.702649 1.25505C0.56416 1.31254 0.438378 1.3968 0.332514 1.50299C0.22665 1.60919 0.142785 1.73523 0.0857264 1.8739C0.0286679 2.01257 -0.00046231 2.16113 5.54739e-06 2.31108Z" fill="url(#paint0_linear_868_10089)"/>
<path d="M11.3422 11.7939H12.9618V16.2864C12.9618 16.383 12.9234 16.4757 12.855 16.5441C12.7867 16.6124 12.694 16.6508 12.5973 16.6508H10.9778C10.9303 16.6508 10.8834 16.6414 10.8396 16.6229C10.7959 16.6045 10.7563 16.5775 10.7232 16.5436C10.69 16.5096 10.664 16.4694 10.6467 16.4252C10.6294 16.381 10.621 16.3338 10.6222 16.2864V12.5211C10.6201 12.4271 10.6366 12.3336 10.6709 12.2461C10.7051 12.1585 10.7563 12.0786 10.8216 12.011C10.8869 11.9434 10.965 11.8894 11.0513 11.8521C11.1376 11.8149 11.2304 11.7951 11.3244 11.7939H11.3422Z" fill="#A3A3A3"/>
<path opacity="0.5" d="M11.3422 11.7939H12.9618V16.2864C12.9618 16.383 12.9234 16.4757 12.855 16.5441C12.7867 16.6124 12.694 16.6508 12.5973 16.6508H10.9778C10.9303 16.6508 10.8834 16.6414 10.8396 16.6229C10.7959 16.6045 10.7563 16.5775 10.7232 16.5436C10.69 16.5096 10.664 16.4694 10.6467 16.4252C10.6294 16.381 10.621 16.3338 10.6222 16.2864V12.5211C10.6201 12.4271 10.6366 12.3336 10.6709 12.2461C10.7051 12.1585 10.7563 12.0786 10.8216 12.011C10.8869 11.9434 10.965 11.8894 11.0513 11.8521C11.1376 11.8149 11.2304 11.7951 11.3244 11.7939H11.3422Z" fill="#A3A3A3"/>
<path d="M29.6533 11.7939H31.2729C31.4615 11.7939 31.6423 11.8689 31.7757 12.0022C31.9091 12.1356 31.984 12.3165 31.984 12.5051V16.2864C31.984 16.3815 31.9468 16.4729 31.8804 16.541C31.814 16.6091 31.7235 16.6485 31.6284 16.6508H30.0284C29.9318 16.6508 29.8391 16.6124 29.7707 16.5441C29.7024 16.4757 29.664 16.383 29.664 16.2864V11.7939H29.6533Z" fill="#A3A3A3"/>
<path opacity="0.5" d="M29.6533 11.7939H31.2729C31.4615 11.7939 31.6423 11.8689 31.7757 12.0022C31.9091 12.1356 31.984 12.3165 31.984 12.5051V16.2864C31.984 16.3815 31.9468 16.4729 31.8804 16.541C31.814 16.6091 31.7235 16.6485 31.6284 16.6508H30.0284C29.9318 16.6508 29.8391 16.6124 29.7707 16.5441C29.7024 16.4757 29.664 16.383 29.664 16.2864V11.7939H29.6533Z" fill="#A3A3A3"/>
<path d="M31.9876 12.4963V14.0643H10.6542V12.4963C10.6542 12.3077 10.7292 12.1268 10.8625 11.9934C10.9959 11.8601 11.1767 11.7852 11.3653 11.7852H31.2765C31.4651 11.7852 31.6459 11.8601 31.7793 11.9934C31.9126 12.1268 31.9876 12.3077 31.9876 12.4963Z" fill="#949494"/>
<path d="M10.9778 25.9376H12.5973C12.6448 25.9364 12.692 25.9447 12.7361 25.9621C12.7803 25.9794 12.8206 26.0054 12.8545 26.0386C12.8885 26.0717 12.9155 26.1113 12.9339 26.155C12.9523 26.1987 12.9618 26.2457 12.9618 26.2932V30.8247H11.3422C11.2481 30.8271 11.1544 30.8107 11.0667 30.7766C10.9789 30.7425 10.8988 30.6913 10.831 30.6259C10.7632 30.5606 10.7091 30.4825 10.6717 30.3961C10.6343 30.3096 10.6145 30.2166 10.6133 30.1225C10.6125 30.1095 10.6125 30.0964 10.6133 30.0834V26.3269C10.6087 26.279 10.6139 26.2305 10.6286 26.1846C10.6432 26.1387 10.6671 26.0962 10.6987 26.0598C10.7303 26.0234 10.7689 25.9938 10.8123 25.9728C10.8557 25.9518 10.903 25.9398 10.9511 25.9376H10.9778Z" fill="#A3A3A3"/>
<path opacity="0.5" d="M10.9778 25.9376H12.5973C12.6448 25.9364 12.692 25.9447 12.7361 25.9621C12.7803 25.9794 12.8206 26.0054 12.8545 26.0386C12.8885 26.0717 12.9155 26.1113 12.9339 26.155C12.9523 26.1987 12.9618 26.2457 12.9618 26.2932V30.8247H11.3422C11.2481 30.8271 11.1544 30.8107 11.0667 30.7766C10.9789 30.7425 10.8988 30.6913 10.831 30.6259C10.7632 30.5606 10.7091 30.4825 10.6717 30.3961C10.6343 30.3096 10.6145 30.2166 10.6133 30.1225C10.6125 30.1095 10.6125 30.0964 10.6133 30.0834V26.3269C10.6087 26.279 10.6139 26.2305 10.6286 26.1846C10.6432 26.1387 10.6671 26.0962 10.6987 26.0598C10.7303 26.0234 10.7689 25.9938 10.8123 25.9728C10.8557 25.9518 10.903 25.9398 10.9511 25.9376H10.9778Z" fill="#A3A3A3"/>
<path d="M30.0178 25.9375H31.6356C31.7299 25.9375 31.8203 25.975 31.887 26.0416C31.9537 26.1083 31.9911 26.1988 31.9911 26.2931V30.0584C31.9911 30.247 31.9162 30.4279 31.7828 30.5612C31.6495 30.6946 31.4686 30.7695 31.28 30.7695H29.6533V26.3268C29.6487 26.2788 29.6539 26.2304 29.6686 26.1845C29.6832 26.1386 29.7071 26.0961 29.7387 26.0597C29.7703 26.0233 29.809 25.9937 29.8524 25.9727C29.8957 25.9516 29.943 25.9397 29.9911 25.9375H30.0178Z" fill="#A3A3A3"/>
<path opacity="0.5" d="M30.0178 25.9375H31.6356C31.7299 25.9375 31.8203 25.975 31.887 26.0416C31.9537 26.1083 31.9911 26.1988 31.9911 26.2931V30.0584C31.9911 30.247 31.9162 30.4279 31.7828 30.5612C31.6495 30.6946 31.4686 30.7695 31.28 30.7695H29.6533V26.3268C29.6487 26.2788 29.6539 26.2304 29.6686 26.1845C29.6832 26.1386 29.7071 26.0961 29.7387 26.0597C29.7703 26.0233 29.809 25.9937 29.8524 25.9727C29.8957 25.9516 29.943 25.9397 29.9911 25.9375H30.0178Z" fill="#A3A3A3"/>
<path d="M10.6151 30.1176V28.5479H31.9484V30.1176C31.9484 30.3062 31.8735 30.4871 31.7402 30.6205C31.6068 30.7538 31.4259 30.8287 31.2373 30.8287H11.3298C11.2361 30.8292 11.1432 30.8112 11.0566 30.7756C10.9699 30.7401 10.8911 30.6878 10.8246 30.6217C10.7582 30.5556 10.7055 30.4771 10.6696 30.3906C10.6336 30.3041 10.6151 30.2113 10.6151 30.1176Z" fill="#949494"/>
<path d="M25.9555 24.0286C25.9743 24.0286 25.9927 24.0245 26.0096 24.0165C26.0265 24.0085 26.0415 23.9968 26.0533 23.9824L28.5955 21.4544C28.6428 21.4026 28.6689 21.3351 28.6689 21.265C28.6689 21.195 28.6428 21.1274 28.5955 21.0757L26.0533 18.505C26.0415 18.49 26.0263 18.4779 26.0091 18.4696C25.9918 18.4612 25.9729 18.457 25.9538 18.457C25.9258 18.4574 25.8986 18.466 25.8755 18.4819C25.8581 18.4964 25.8446 18.5151 25.8365 18.5363C25.8284 18.5575 25.826 18.5804 25.8293 18.6028V20.1815C25.8313 20.1979 25.83 20.2146 25.8256 20.2306C25.8211 20.2466 25.8135 20.2615 25.8033 20.2745C25.7931 20.2876 25.7804 20.2985 25.7659 20.3066C25.7515 20.3147 25.7356 20.3199 25.7191 20.3219H19.8062C19.6696 20.1439 19.4938 19.9996 19.2925 19.9003C19.0912 19.8011 18.8698 19.7495 18.6453 19.7495C18.5962 19.7469 18.5469 19.7469 18.4978 19.7495C18.0999 19.745 17.7158 19.8951 17.4264 20.1681C17.137 20.4412 16.9648 20.8159 16.9462 21.2133C16.9275 21.6108 17.0638 22 17.3264 22.2989C17.5889 22.5979 17.9572 22.7833 18.3538 22.8161C18.4023 22.8188 18.451 22.8188 18.4995 22.8161C18.5481 22.8188 18.5968 22.8188 18.6453 22.8161C18.8724 22.8129 19.0959 22.7585 19.2991 22.6569C19.5022 22.5554 19.6798 22.4092 19.8187 22.2295H25.7155C25.7466 22.2297 25.7765 22.2411 25.7997 22.2617C25.8229 22.2823 25.8379 22.3107 25.8418 22.3415V23.9077C25.8425 23.9383 25.8546 23.9676 25.8756 23.9899C25.8965 24.0122 25.925 24.026 25.9555 24.0286Z" fill="url(#paint1_linear_868_10089)"/>
<path d="M21.1715 23.1737C20.7719 23.738 20.2033 24.1608 19.5479 24.3811C18.8925 24.6014 18.184 24.6078 17.5246 24.3995C16.8653 24.1912 16.2891 23.7788 15.8793 23.2219C15.4694 22.665 15.2469 21.9924 15.244 21.3009C15.2411 20.6094 15.4579 19.9349 15.863 19.3746C16.2682 18.8142 16.8409 18.3971 17.4984 18.1832C18.156 17.9693 18.8645 17.9698 19.5218 18.1846C20.179 18.3993 20.7511 18.8173 21.1555 19.3782H22.9333C22.4958 18.364 21.722 17.5318 20.7422 17.0218C19.7625 16.5118 18.6369 16.3553 17.5552 16.5787C16.4736 16.802 15.502 17.3916 14.8044 18.248C14.1069 19.1043 13.726 20.175 13.726 21.2795C13.726 22.384 14.1069 23.4547 14.8044 24.311C15.502 25.1674 16.4736 25.7569 17.5552 25.9803C18.6369 26.2037 19.7625 26.0472 20.7422 25.5372C21.722 25.0272 22.4958 24.195 22.9333 23.1808L21.1715 23.1737Z" fill="#773ADC"/>
</g>
<defs>
<linearGradient id="paint0_linear_868_10089" x1="13.6409" y1="1.22486" x2="13.6409" y2="28.5635" gradientUnits="userSpaceOnUse">
<stop stop-color="#5EA0EF"/>
<stop offset="1" stop-color="#0078D4"/>
</linearGradient>
<linearGradient id="paint1_linear_868_10089" x1="22.8213" y1="23.7193" x2="22.8213" y2="19.849" gradientUnits="userSpaceOnUse">
<stop stop-color="#0078D4"/>
<stop offset="1" stop-color="#5EA0EF"/>
</linearGradient>
<clipPath id="clip0_868_10089">
<rect width="32" height="32" fill="white"/>
</clipPath>
</defs>
</svg>
