<svg width="32" height="32" viewBox="0 0 32 32" fill="none" xmlns="http://www.w3.org/2000/svg">
<path d="M22.0089 19.1823L16.7111 10.6846L16.2311 10.9868L15.7689 10.6846L10.4533 19.1823L11.5378 19.8401L16.2311 12.3201L20.9422 19.8579L22.0089 19.1823Z" fill="#949494"/>
<path d="M16.1422 13.7783C17.6542 13.7783 18.88 12.5525 18.88 11.0405C18.88 9.52848 17.6542 8.30273 16.1422 8.30273C14.6302 8.30273 13.4044 9.52848 13.4044 11.0405C13.4044 12.5525 14.6302 13.7783 16.1422 13.7783Z" fill="#86D633"/>
<path d="M10.8622 22.2226C12.3743 22.2226 13.6 20.9969 13.6 19.4848C13.6 17.9728 12.3743 16.7471 10.8622 16.7471C9.3502 16.7471 8.12445 17.9728 8.12445 19.4848C8.12445 20.9969 9.3502 22.2226 10.8622 22.2226Z" fill="url(#paint0_linear_868_10098)"/>
<path d="M21.44 22.2226C22.952 22.2226 24.1778 20.9969 24.1778 19.4848C24.1778 17.9728 22.952 16.7471 21.44 16.7471C19.928 16.7471 18.7022 17.9728 18.7022 19.4848C18.7022 20.9969 19.928 22.2226 21.44 22.2226Z" fill="url(#paint1_linear_868_10098)"/>
<path d="M2.0444 2.25781H4.33773V8.65781C4.33773 8.79455 4.28342 8.92568 4.18673 9.02237C4.09005 9.11905 3.95891 9.17337 3.82218 9.17337H1.54662C1.40989 9.17337 1.27876 9.11905 1.18207 9.02237C1.08539 8.92568 1.03107 8.79455 1.03107 8.65781V3.32448C1.02382 3.18699 1.04467 3.04946 1.09234 2.9203C1.14001 2.79113 1.2135 2.67303 1.30833 2.57321C1.40316 2.47339 1.51733 2.39395 1.64389 2.33972C1.77044 2.28549 1.90672 2.25762 2.0444 2.25781Z" fill="#999999"/>
<path opacity="0.5" d="M2.0444 2.25781H4.33773V8.65781C4.33773 8.79455 4.28342 8.92568 4.18673 9.02237C4.09005 9.11905 3.95891 9.17337 3.82218 9.17337H1.54662C1.40989 9.17337 1.27876 9.11905 1.18207 9.02237C1.08539 8.92568 1.03107 8.79455 1.03107 8.65781V3.32448C1.02382 3.18699 1.04467 3.04946 1.09234 2.9203C1.14001 2.79113 1.2135 2.67303 1.30833 2.57321C1.40316 2.47339 1.51733 2.39395 1.64389 2.33972C1.77044 2.28549 1.90672 2.25762 2.0444 2.25781Z" fill="#999999"/>
<path d="M27.9467 2.25781H30.2222C30.491 2.25781 30.7487 2.36457 30.9388 2.55461C31.1288 2.74465 31.2356 3.00239 31.2356 3.27115V8.60448C31.2356 8.74121 31.1812 8.87235 31.0846 8.96903C30.9879 9.06572 30.8567 9.12004 30.72 9.12004H28.4444C28.3077 9.12004 28.1766 9.06572 28.0799 8.96903C27.9832 8.87235 27.9289 8.74121 27.9289 8.60448V2.25781H27.9467Z" fill="#999999"/>
<path opacity="0.5" d="M27.9467 2.25781H30.2222C30.491 2.25781 30.7487 2.36457 30.9388 2.55461C31.1288 2.74465 31.2356 3.00239 31.2356 3.27115V8.60448C31.2356 8.74121 31.1812 8.87235 31.0846 8.96903C30.9879 9.06572 30.8567 9.12004 30.72 9.12004H28.4444C28.3077 9.12004 28.1766 9.06572 28.0799 8.96903C27.9832 8.87235 27.9289 8.74121 27.9289 8.60448V2.25781H27.9467Z" fill="#999999"/>
<path d="M31.2533 3.27115V5.51115L1.03107 5.51115V3.27115C1.03107 3.00239 1.13784 2.74465 1.32787 2.55461C1.51791 2.36457 1.77566 2.25781 2.04441 2.25781L30.24 2.25781C30.5087 2.25781 30.7665 2.36457 30.9565 2.55461C31.1465 2.74465 31.2533 3.00239 31.2533 3.27115Z" fill="#949494"/>
<path d="M1.54664 22.2578H3.83998C3.97671 22.2578 4.10784 22.3121 4.20453 22.4088C4.30121 22.5055 4.35553 22.6366 4.35553 22.7734V29.1734H2.04442C1.77567 29.1734 1.51792 29.0666 1.32789 28.8766C1.13785 28.6865 1.03109 28.4288 1.03109 28.16V22.8267C1.02359 22.7547 1.03136 22.6818 1.0539 22.613C1.07643 22.5442 1.11321 22.4808 1.16186 22.4272C1.2105 22.3735 1.26991 22.3307 1.3362 22.3015C1.4025 22.2723 1.47421 22.2574 1.54664 22.2578Z" fill="#999999"/>
<path opacity="0.5" d="M1.54664 22.2578H3.83998C3.97671 22.2578 4.10784 22.3121 4.20453 22.4088C4.30121 22.5055 4.35553 22.6366 4.35553 22.7734V29.1734H2.04442C1.77567 29.1734 1.51792 29.0666 1.32789 28.8766C1.13785 28.6865 1.03109 28.4288 1.03109 28.16V22.8267C1.02359 22.7547 1.03136 22.6818 1.0539 22.613C1.07643 22.5442 1.11321 22.4808 1.16186 22.4272C1.2105 22.3735 1.26991 22.3307 1.3362 22.3015C1.4025 22.2723 1.47421 22.2574 1.54664 22.2578Z" fill="#999999"/>
<path d="M28.4444 22.2578H30.7555C30.8923 22.2578 31.0234 22.3121 31.1201 22.4088C31.2168 22.5055 31.2711 22.6366 31.2711 22.7734V28.1067C31.2711 28.3755 31.1643 28.6332 30.9743 28.8232C30.7843 29.0133 30.5265 29.12 30.2578 29.12H27.9467V22.72C27.9595 22.5958 28.0171 22.4804 28.1087 22.3954C28.2002 22.3103 28.3195 22.2615 28.4444 22.2578Z" fill="#999999"/>
<path opacity="0.5" d="M28.4444 22.2578H30.7555C30.8923 22.2578 31.0234 22.3121 31.1201 22.4088C31.2168 22.5055 31.2711 22.6366 31.2711 22.7734V28.1067C31.2711 28.3755 31.1643 28.6332 30.9743 28.8232C30.7843 29.0133 30.5265 29.12 30.2578 29.12H27.9467V22.72C27.9595 22.5958 28.0171 22.4804 28.1087 22.3954C28.2002 22.3103 28.3195 22.2615 28.4444 22.2578Z" fill="#999999"/>
<path d="M1.03107 28.1781L1.03107 25.9381H31.2533V28.1781C31.2533 28.4468 31.1465 28.7046 30.9565 28.8946C30.7665 29.0846 30.5087 29.1914 30.24 29.1914L2.0444 29.1914C1.77565 29.1914 1.5179 29.0846 1.32787 28.8946C1.13783 28.7046 1.03107 28.4468 1.03107 28.1781Z" fill="#949494"/>
<defs>
<linearGradient id="paint0_linear_868_10098" x1="10.8622" y1="22.2226" x2="10.8622" y2="16.7471" gradientUnits="userSpaceOnUse">
<stop stop-color="#6F4BB2"/>
<stop offset="1" stop-color="#C69AEB"/>
</linearGradient>
<linearGradient id="paint1_linear_868_10098" x1="21.44" y1="22.2226" x2="21.44" y2="16.7471" gradientUnits="userSpaceOnUse">
<stop stop-color="#6F4BB2"/>
<stop offset="1" stop-color="#C69AEB"/>
</linearGradient>
</defs>
</svg>
