<svg width="32" height="32" viewBox="0 0 32 32" fill="none" xmlns="http://www.w3.org/2000/svg">
<path d="M11.0578 21.031H1.1911V11.9643C1.19576 11.6986 1.30458 11.4454 1.49411 11.2592C1.68365 11.073 1.93873 10.9687 2.20443 10.9688H11.0933L11.0578 21.031ZM20.9422 21.031H11.0578V31.111H19.9467C20.2154 31.111 20.4732 31.0042 20.6632 30.8142C20.8532 30.6241 20.96 30.3664 20.96 30.0976L20.9422 21.031Z" fill="#005BA1"/>
<path d="M20.9422 21.031H11.0578V10.9688H20.9422V21.031ZM11.0578 21.031H1.1911V30.0976C1.1911 30.3664 1.29786 30.6241 1.4879 30.8142C1.67794 31.0042 1.93568 31.111 2.20443 31.111H11.0933L11.0578 21.031Z" fill="#0078D4"/>
<path d="M20.9422 10.9687H11.0578V1.90201C11.0578 1.63325 11.1646 1.37551 11.3546 1.18547C11.5446 0.995433 11.8024 0.888672 12.0711 0.888672H20.96L20.9422 10.9687ZM30.8089 10.9687H20.9422V21.0309H29.9911C30.205 21.0309 30.4103 20.9472 30.5632 20.7977C30.7161 20.6482 30.8043 20.4447 30.8089 20.2309V10.9687Z" fill="#0078D4"/>
<path d="M30.8089 10.9687H20.9422V0.888672H29.9911C30.205 0.888621 30.4103 0.972335 30.5632 1.12187C30.7161 1.27141 30.8043 1.47488 30.8089 1.68867V10.9687ZM20.9422 10.9687H11.0578V20.0353C11.0625 20.301 11.1713 20.5542 11.3608 20.7404C11.5503 20.9266 11.8054 21.0309 12.0711 21.0309H20.96L20.9422 10.9687Z" fill="url(#paint0_linear_868_10084)"/>
<defs>
<linearGradient id="paint0_linear_868_10084" x1="20.9422" y1="0.888672" x2="20.9422" y2="21.0309" gradientUnits="userSpaceOnUse">
<stop stop-color="#32D4F5"/>
<stop offset="0.23" stop-color="#31D0F1"/>
<stop offset="0.46" stop-color="#2CC3E6"/>
<stop offset="0.7" stop-color="#25AFD4"/>
<stop offset="0.94" stop-color="#1C92BA"/>
<stop offset="1" stop-color="#198AB3"/>
</linearGradient>
</defs>
</svg>
