<svg width="32" height="32" viewBox="0 0 32 32" fill="none" xmlns="http://www.w3.org/2000/svg">
<path d="M31.1111 18.2397C31.0616 16.6286 30.4407 15.0877 29.3594 13.8924C28.2781 12.6971 26.8069 11.9254 25.2089 11.7152C25.1118 9.47047 24.1332 7.35461 22.4857 5.8269C20.8382 4.29918 18.6546 3.48289 16.4089 3.55521C14.5938 3.51984 12.8123 4.04788 11.3096 5.06664C9.80693 6.08541 8.6569 7.54484 8.01779 9.2441C6.09565 9.48108 4.32187 10.3984 3.01748 11.8299C1.7131 13.2615 0.964325 15.1127 0.906677 17.0485C1.00372 19.2116 1.95098 21.2488 3.54239 22.7171C5.1338 24.1853 7.24059 24.9657 9.40445 24.8885H23.9289C24.0472 24.8984 24.1661 24.8984 24.2845 24.8885C26.0606 24.8758 27.7629 24.1766 29.0353 22.9374C30.3077 21.6981 31.0515 20.0148 31.1111 18.2397Z" fill="url(#paint0_linear_868_10083)"/>
<path d="M21.12 27.6084C21.12 27.722 21.0974 27.8345 21.0534 27.9392C21.0094 28.0439 20.945 28.1387 20.8638 28.2182C20.7827 28.2977 20.6865 28.3602 20.5809 28.402C20.4753 28.4438 20.3624 28.4641 20.2489 28.4618H11.9467C11.8331 28.4641 11.7202 28.4438 11.6147 28.402C11.5091 28.3602 11.4129 28.2977 11.3317 28.2182C11.2506 28.1387 11.1862 28.0439 11.1422 27.9392C11.0982 27.8345 11.0755 27.722 11.0756 27.6084V12.2129C11.0755 12.0993 11.0982 11.9869 11.1422 11.8822C11.1862 11.7775 11.2506 11.6826 11.3317 11.6031C11.4129 11.5236 11.5091 11.4612 11.6147 11.4193C11.7202 11.3775 11.8331 11.3572 11.9467 11.3596H20.2489C20.3624 11.3572 20.4753 11.3775 20.5809 11.4193C20.6865 11.4612 20.7827 11.5236 20.8638 11.6031C20.945 11.6826 21.0094 11.7775 21.0534 11.8822C21.0974 11.9869 21.12 12.0993 21.12 12.2129V27.6084Z" fill="url(#paint1_linear_868_10083)"/>
<path d="M12.2667 13.1377H14.2222V15.5377H12.2667V13.1377ZM15.1467 13.1377H17.0667V15.5377H15.1467V13.1377ZM18.0267 13.1377H19.9467V15.5377H18.0267V13.1377ZM12.2667 16.9777H14.2222V19.3777H12.2667V16.9777ZM15.1467 16.9777H17.0667V19.3777H15.1467V16.9777ZM18.0267 16.9777H19.9467V19.3777H18.0267V16.9777ZM12.2667 20.8177H14.2222V23.2177H12.2667V20.8177ZM15.1467 20.8177H17.0667V23.2177H15.1467V20.8177ZM15.1467 24.6577H17.0667V27.5377H15.1467V24.6577ZM18.0267 20.8177H19.9467V23.2177H18.0267V20.8177Z" fill="white"/>
<defs>
<linearGradient id="paint0_linear_868_10083" x1="16" y1="3.53743" x2="16" y2="24.9419" gradientUnits="userSpaceOnUse">
<stop stop-color="#5EA0EF"/>
<stop offset="0.18" stop-color="#559CEC"/>
<stop offset="0.47" stop-color="#3C91E5"/>
<stop offset="0.84" stop-color="#1380DA"/>
<stop offset="1" stop-color="#0078D4"/>
</linearGradient>
<linearGradient id="paint1_linear_868_10083" x1="16.1067" y1="11.3596" x2="16.1067" y2="28.4618" gradientUnits="userSpaceOnUse">
<stop stop-color="#B3B3B3"/>
<stop offset="0.12" stop-color="#ADADAD"/>
<stop offset="0.64" stop-color="#9B9B9B"/>
<stop offset="1" stop-color="#949494"/>
</linearGradient>
</defs>
</svg>
