<svg width="32" height="32" viewBox="0 0 32 32" fill="none" xmlns="http://www.w3.org/2000/svg">
<path d="M13.1022 0.888672L1.20886 7.78645V9.49312H3.39553V22.4353H5.54664V9.49312H20.6578V23.5198H22.8089V9.49312H24.9955V7.78645L13.1022 0.888672Z" fill="url(#paint0_linear_868_10085)"/>
<path d="M7.69775 22.4356H12.0178V18.1334H7.69775V22.4356ZM14.1689 22.4356H18.4889V18.1334H14.2222L14.1689 22.4356ZM7.69775 16.0001H12.0178V11.6445H7.69775V16.0001ZM14.2222 11.6445V16.0001H18.4889V11.6445H14.2222Z" fill="#50E6FF"/>
<path d="M23.36 18.506C19.2533 18.506 16 17.4394 16 16.1416V28.746C16 30.0438 19.2711 31.0927 23.3244 31.1105H23.4311C27.5378 31.1105 30.8622 30.0438 30.8622 28.746V16.1416C30.7911 17.4394 27.4667 18.506 23.36 18.506Z" fill="url(#paint1_linear_868_10085)"/>
<path d="M30.7911 16.1418C30.7911 17.4396 27.4667 18.5062 23.36 18.5062C19.2533 18.5062 16 17.4396 16 16.1418C16 14.844 19.3244 13.7773 23.4311 13.7773C27.5378 13.7773 30.8622 14.8262 30.8622 16.1418" fill="#E8E8E8"/>
<path d="M29.0666 15.9994C29.0666 16.8349 26.5066 17.5105 23.36 17.5105C20.2133 17.5105 17.6711 16.7816 17.6711 15.9994C17.6711 15.2172 20.2133 14.4883 23.36 14.4883C26.5066 14.4883 29.0666 15.1638 29.0666 15.9994Z" fill="#50E6FF"/>
<path d="M23.36 16.3023C21.8348 16.2654 20.3127 16.4571 18.8444 16.8712C20.3113 17.2937 21.8338 17.4915 23.36 17.4579C24.8862 17.4915 26.4086 17.2937 27.8755 16.8712C26.4072 16.4571 24.8851 16.2654 23.36 16.3023Z" fill="#32BEDD"/>
<defs>
<linearGradient id="paint0_linear_868_10085" x1="13.1022" y1="0.888672" x2="13.1022" y2="23.5198" gradientUnits="userSpaceOnUse">
<stop stop-color="#B3B2B3"/>
<stop offset="0.38" stop-color="#AFAEAF"/>
<stop offset="0.76" stop-color="#A2A2A2"/>
<stop offset="1" stop-color="#979797"/>
</linearGradient>
<linearGradient id="paint1_linear_868_10085" x1="15.9289" y1="23.626" x2="30.7911" y2="23.626" gradientUnits="userSpaceOnUse">
<stop stop-color="#005BA1"/>
<stop offset="0.07" stop-color="#0060A9"/>
<stop offset="0.36" stop-color="#0071C8"/>
<stop offset="0.52" stop-color="#0078D4"/>
<stop offset="0.64" stop-color="#0074CD"/>
<stop offset="0.82" stop-color="#006ABB"/>
<stop offset="1" stop-color="#005BA1"/>
</linearGradient>
</defs>
</svg>
