<svg width="32" height="32" viewBox="0 0 32 32" fill="none" xmlns="http://www.w3.org/2000/svg">
<path d="M32 16.8891C31.9442 15.185 31.287 13.5558 30.1448 12.29C29.0027 11.0242 27.4493 10.2035 25.76 9.9735C25.6537 7.5936 24.6149 5.35117 22.8684 3.73104C21.1219 2.11092 18.8078 1.24328 16.4267 1.31572C14.4994 1.28013 12.6088 1.84441 11.0163 2.93049C9.42379 4.01656 8.20823 5.57072 7.53778 7.37794C5.5023 7.62372 3.62241 8.59119 2.23936 10.1047C0.85631 11.6182 0.0617807 13.5775 0 15.6268C0.0879773 17.9314 1.08622 20.107 2.77584 21.6766C4.46546 23.2463 6.70857 24.0819 9.01333 24.0002H9.79556H24.3911C24.5213 24.01 24.652 24.01 24.7822 24.0002C26.6726 23.9823 28.4821 23.2306 29.8288 21.9038C31.1755 20.5771 31.954 18.779 32 16.8891Z" fill="url(#paint0_linear_868_10082)"/>
<path d="M23.4311 29.084H16.9422C16.6477 29.084 16.4089 29.3228 16.4089 29.6173V30.1506C16.4089 30.4452 16.6477 30.684 16.9422 30.684H23.4311C23.7256 30.684 23.9644 30.4452 23.9644 30.1506V29.6173C23.9644 29.3228 23.7256 29.084 23.4311 29.084Z" fill="#198AB3"/>
<path d="M23.4311 25.6885H16.9422C16.6477 25.6885 16.4089 25.9273 16.4089 26.2218V26.7551C16.4089 27.0497 16.6477 27.2885 16.9422 27.2885H23.4311C23.7256 27.2885 23.9644 27.0497 23.9644 26.7551V26.2218C23.9644 25.9273 23.7256 25.6885 23.4311 25.6885Z" fill="#32BEDD"/>
<path d="M23.4311 22.3115H16.9422C16.6477 22.3115 16.4089 22.5503 16.4089 22.8449V23.3782C16.4089 23.6727 16.6477 23.9115 16.9422 23.9115H23.4311C23.7256 23.9115 23.9644 23.6727 23.9644 23.3782V22.8449C23.9644 22.5503 23.7256 22.3115 23.4311 22.3115Z" fill="#50E6FF"/>
<path d="M15.8222 13.8662H9.33332C9.03877 13.8662 8.79999 14.105 8.79999 14.3995V14.9329C8.79999 15.2274 9.03877 15.4662 9.33332 15.4662H15.8222C16.1168 15.4662 16.3555 15.2274 16.3555 14.9329V14.3995C16.3555 14.105 16.1168 13.8662 15.8222 13.8662Z" fill="#F2F2F2"/>
<path d="M15.8222 16.9775H9.33332C9.03877 16.9775 8.79999 17.2163 8.79999 17.5109V18.0442C8.79999 18.3388 9.03877 18.5775 9.33332 18.5775H15.8222C16.1168 18.5775 16.3555 18.3388 16.3555 18.0442V17.5109C16.3555 17.2163 16.1168 16.9775 15.8222 16.9775Z" fill="#F2F2F2"/>
<path d="M15.8222 20.1064H9.33332C9.03877 20.1064 8.79999 20.3452 8.79999 20.6398V21.1731C8.79999 21.4677 9.03877 21.7064 9.33332 21.7064H15.8222C16.1168 21.7064 16.3555 21.4677 16.3555 21.1731V20.6398C16.3555 20.3452 16.1168 20.1064 15.8222 20.1064Z" fill="#F2F2F2"/>
<defs>
<linearGradient id="paint0_linear_868_10082" x1="16" y1="24.0002" x2="16" y2="1.31572" gradientUnits="userSpaceOnUse">
<stop stop-color="#0078D4"/>
<stop offset="0.16" stop-color="#1380DA"/>
<stop offset="0.53" stop-color="#3C91E5"/>
<stop offset="0.82" stop-color="#559CEC"/>
<stop offset="1" stop-color="#5EA0EF"/>
</linearGradient>
</defs>
</svg>
