<svg width="32" height="32" viewBox="0 0 32 32" fill="none" xmlns="http://www.w3.org/2000/svg">
<g clip-path="url(#clip0_868_10081)">
<path d="M1.08979 1.76562H3.5129V8.48918C3.5129 8.63346 3.45558 8.77183 3.35356 8.87385C3.25154 8.97587 3.11317 9.03318 2.9689 9.03318H0.545786C0.474198 9.03341 0.403267 9.01952 0.33706 8.99228C0.270854 8.96505 0.210674 8.92501 0.15997 8.87448C0.109267 8.82394 0.0690369 8.76389 0.0415872 8.69777C0.0141376 8.63165 7.88027e-06 8.56077 8.26255e-06 8.48918V2.8554C-0.00305565 2.71458 0.0218012 2.57455 0.0731441 2.44339C0.124487 2.31222 0.201299 2.19253 0.299147 2.09121C0.396995 1.98989 0.513941 1.90895 0.643235 1.85307C0.772529 1.79719 0.911611 1.76747 1.05245 1.76562H1.08979Z" fill="#A3A3A3"/>
<path opacity="0.5" d="M1.08979 1.76562H3.5129V8.48918C3.5129 8.63346 3.45558 8.77183 3.35356 8.87385C3.25154 8.97587 3.11317 9.03318 2.9689 9.03318H0.545786C0.474198 9.03341 0.403267 9.01952 0.33706 8.99228C0.270854 8.96505 0.210674 8.92501 0.15997 8.87448C0.109267 8.82394 0.0690369 8.76389 0.0415872 8.69777C0.0141376 8.63165 7.88027e-06 8.56077 8.26255e-06 8.48918V2.8554C-0.00305565 2.71458 0.0218012 2.57455 0.0731441 2.44339C0.124487 2.31222 0.201299 2.19253 0.299147 2.09121C0.396995 1.98989 0.513941 1.90895 0.643235 1.85307C0.772529 1.79719 0.911611 1.76747 1.05245 1.76562H1.08979Z" fill="#A3A3A3"/>
<path d="M28.4889 1.76563H30.9102C31.0503 1.76562 31.189 1.79322 31.3184 1.84682C31.4478 1.90043 31.5654 1.979 31.6645 2.07804C31.7635 2.17709 31.8421 2.29468 31.8957 2.4241C31.9493 2.55351 31.9769 2.69222 31.9769 2.83229V8.48562C31.9769 8.55706 31.9628 8.6278 31.9355 8.6938C31.9081 8.75981 31.8681 8.81978 31.8176 8.87029C31.767 8.92081 31.7071 8.96088 31.6411 8.98821C31.5751 9.01555 31.5043 9.02962 31.4329 9.02962H29.0329C28.9615 9.02962 28.8907 9.01555 28.8247 8.98821C28.7587 8.96088 28.6987 8.92081 28.6482 8.87029C28.5977 8.81978 28.5576 8.75981 28.5303 8.6938C28.503 8.6278 28.4889 8.55706 28.4889 8.48562V1.76563Z" fill="#A3A3A3"/>
<path opacity="0.5" d="M28.4889 1.76563H30.9102C31.0503 1.76562 31.189 1.79322 31.3184 1.84682C31.4478 1.90043 31.5654 1.979 31.6645 2.07804C31.7635 2.17709 31.8421 2.29468 31.8957 2.4241C31.9493 2.55351 31.9769 2.69222 31.9769 2.83229V8.48562C31.9769 8.55706 31.9628 8.6278 31.9355 8.6938C31.9081 8.75981 31.8681 8.81978 31.8176 8.87029C31.767 8.92081 31.7071 8.96088 31.6411 8.98821C31.5751 9.01555 31.5043 9.02962 31.4329 9.02962H29.0329C28.9615 9.02962 28.8907 9.01555 28.8247 8.98821C28.7587 8.96088 28.6987 8.92081 28.6482 8.87029C28.5977 8.81978 28.5576 8.75981 28.5303 8.6938C28.503 8.6278 28.4889 8.55706 28.4889 8.48562V1.76563Z" fill="#A3A3A3"/>
<path d="M31.9804 2.81765V5.16432H0.0568848V2.81765C0.0568848 2.53475 0.169265 2.26344 0.369304 2.0634C0.569343 1.86336 0.840654 1.75098 1.12355 1.75098H30.9102C31.0506 1.75051 31.1897 1.77776 31.3195 1.83115C31.4493 1.88455 31.5673 1.96305 31.6668 2.06214C31.7662 2.16124 31.8451 2.27898 31.8989 2.40863C31.9527 2.53828 31.9804 2.67727 31.9804 2.81765Z" fill="#949494"/>
<path d="M0.545806 22.9336H2.96892C3.04036 22.9336 3.1111 22.9477 3.1771 22.975C3.2431 23.0023 3.30307 23.0424 3.35358 23.0929C3.4041 23.1434 3.44417 23.2034 3.47151 23.2694C3.49885 23.3354 3.51292 23.4062 3.51292 23.4776V30.2563H1.08981C0.948838 30.2593 0.808661 30.2344 0.677383 30.183C0.546105 30.1315 0.426331 30.0545 0.324988 29.9565C0.223646 29.8585 0.142746 29.7413 0.0869677 29.6118C0.0311896 29.4823 0.00164011 29.343 2.83929e-05 29.202C2.83929e-05 29.1825 2.83929e-05 29.1647 2.83929e-05 29.1451V23.5114C-0.0092363 23.3676 0.038905 23.226 0.133891 23.1177C0.228876 23.0094 0.362949 22.9432 0.506695 22.9336H0.545806Z" fill="#A3A3A3"/>
<path opacity="0.5" d="M0.545806 22.9336H2.96892C3.04036 22.9336 3.1111 22.9477 3.1771 22.975C3.2431 23.0023 3.30307 23.0424 3.35358 23.0929C3.4041 23.1434 3.44417 23.2034 3.47151 23.2694C3.49885 23.3354 3.51292 23.4062 3.51292 23.4776V30.2563H1.08981C0.948838 30.2593 0.808661 30.2344 0.677383 30.183C0.546105 30.1315 0.426331 30.0545 0.324988 29.9565C0.223646 29.8585 0.142746 29.7413 0.0869677 29.6118C0.0311896 29.4823 0.00164011 29.343 2.83929e-05 29.202C2.83929e-05 29.1825 2.83929e-05 29.1647 2.83929e-05 29.1451V23.5114C-0.0092363 23.3676 0.038905 23.226 0.133891 23.1177C0.228876 23.0094 0.362949 22.9432 0.506695 22.9336H0.545806Z" fill="#A3A3A3"/>
<path d="M29.0329 22.9332H31.456C31.5984 22.9331 31.7352 22.989 31.8369 23.0887C31.9386 23.1884 31.9972 23.3241 32 23.4665V29.1003C32 29.3832 31.8876 29.6545 31.6876 29.8545C31.4875 30.0546 31.2162 30.1669 30.9333 30.1669H28.4889V23.5003C28.4838 23.4289 28.4928 23.3573 28.5154 23.2895C28.5381 23.2216 28.5739 23.1589 28.6208 23.1049C28.6677 23.0509 28.7247 23.0067 28.7887 22.9748C28.8527 22.9429 28.9224 22.9239 28.9938 22.9189L29.0329 22.9332Z" fill="#A3A3A3"/>
<path opacity="0.5" d="M29.0329 22.9332H31.456C31.5984 22.9331 31.7352 22.989 31.8369 23.0887C31.9386 23.1884 31.9972 23.3241 32 23.4665V29.1003C32 29.3832 31.8876 29.6545 31.6876 29.8545C31.4875 30.0546 31.2162 30.1669 30.9333 30.1669H28.4889V23.5003C28.4838 23.4289 28.4928 23.3573 28.5154 23.2895C28.5381 23.2216 28.5739 23.1589 28.6208 23.1049C28.6677 23.0509 28.7247 23.0067 28.7887 22.9748C28.8527 22.9429 28.9224 22.9239 28.9938 22.9189L29.0329 22.9332Z" fill="#A3A3A3"/>
<path d="M-2.39944e-05 29.1825V26.8447H31.9253V29.1914C31.9253 29.3315 31.8977 29.4702 31.8441 29.5996C31.7905 29.729 31.7119 29.8466 31.6129 29.9456C31.5138 30.0447 31.3963 30.1233 31.2668 30.1769C31.1374 30.2305 30.9987 30.2581 30.8586 30.2581H1.06664C0.925815 30.2581 0.78638 30.2302 0.656383 30.176C0.526387 30.1219 0.408401 30.0425 0.309235 29.9425C0.210069 29.8425 0.131685 29.7239 0.0786056 29.5934C0.0255263 29.463 -0.00119756 29.3233 -2.39944e-05 29.1825Z" fill="#949494"/>
<path d="M27.4418 15.6941L23.6444 11.847C23.6139 11.8078 23.5691 11.7823 23.5198 11.7759C23.4706 11.7696 23.4208 11.783 23.3813 11.8132C23.3545 11.8336 23.3338 11.861 23.3212 11.8923C23.3087 11.9236 23.3049 11.9577 23.3102 11.991V14.3554C23.3145 14.38 23.3136 14.4052 23.3075 14.4294C23.3014 14.4536 23.2903 14.4763 23.2748 14.4959C23.2594 14.5155 23.24 14.5317 23.2179 14.5433C23.1959 14.5549 23.1716 14.5618 23.1467 14.5634H13.92C13.7153 14.2977 13.4525 14.0824 13.1518 13.9339C12.851 13.7853 12.5203 13.7076 12.1849 13.7065C12.1102 13.7065 12.0356 13.6959 11.9627 13.6959C11.3721 13.697 10.8046 13.9252 10.3776 14.3332C9.95068 14.7412 9.697 15.2978 9.66913 15.8877C9.64126 16.4776 9.84132 17.0557 10.2279 17.5021C10.6145 17.9486 11.1579 18.2293 11.7458 18.2861C11.8181 18.2932 11.891 18.2968 11.9644 18.2968C12.0373 18.2968 12.112 18.2968 12.1849 18.2861C12.5245 18.2809 12.8587 18.1992 13.1624 18.0472C13.4662 17.8952 13.7318 17.6766 13.9396 17.4079H23.1111C23.1558 17.4101 23.1981 17.4282 23.2307 17.4588C23.2633 17.4894 23.2839 17.5306 23.2889 17.575V19.911C23.2874 19.9603 23.3051 20.0082 23.3383 20.0447C23.3714 20.0811 23.4175 20.1033 23.4667 20.1065C23.4947 20.1073 23.5225 20.1014 23.5479 20.0894C23.5732 20.0773 23.5953 20.0594 23.6124 20.0372L27.4187 16.2523C27.4908 16.1785 27.533 16.0807 27.5373 15.9776C27.5415 15.8746 27.5075 15.7736 27.4418 15.6941Z" fill="url(#paint0_linear_868_10081)"/>
<path d="M4.88176 9.68489V15.1658H8.35554C8.5106 14.4639 8.86754 13.8227 9.38241 13.321C9.89728 12.8194 10.5476 12.4794 11.2533 12.3427V8.78711H5.77065C5.65316 8.7871 5.53685 8.81039 5.42842 8.85561C5.31999 8.90084 5.2216 8.96711 5.13894 9.05059C5.05629 9.13408 4.991 9.23312 4.94685 9.34199C4.90271 9.45087 4.88058 9.56741 4.88176 9.68489Z" fill="url(#paint1_linear_868_10081)"/>
<path d="M18.2382 8.79492H12.7556V12.3505C13.4035 12.4551 14.0114 12.732 14.5156 13.1523H19.1271V9.68381C19.1271 9.44806 19.0335 9.22197 18.8668 9.05527C18.7001 8.88857 18.474 8.79492 18.2382 8.79492Z" fill="url(#paint2_linear_868_10081)"/>
<path d="M12.7556 19.6496V23.1679H18.2382C18.474 23.1679 18.7001 23.0742 18.8668 22.9075C19.0335 22.7408 19.1271 22.5147 19.1271 22.279V18.8301H14.5404C14.0319 19.2618 13.4144 19.5453 12.7556 19.6496Z" fill="url(#paint3_linear_868_10081)"/>
<path d="M8.35555 16.7969H4.88177V22.2795C4.88177 22.5153 4.97543 22.7414 5.14212 22.9081C5.30882 23.0748 5.53492 23.1684 5.77066 23.1684H11.2533V19.6324C10.5425 19.503 9.88661 19.1638 9.37017 18.6584C8.85374 18.1531 8.50037 17.5048 8.35555 16.7969Z" fill="url(#paint4_linear_868_10081)"/>
</g>
<defs>
<linearGradient id="paint0_linear_868_10081" x1="18.608" y1="17.7545" x2="18.608" y2="13.3439" gradientUnits="userSpaceOnUse">
<stop stop-color="#773ADC"/>
<stop offset="1" stop-color="#A67AF4"/>
</linearGradient>
<linearGradient id="paint1_linear_868_10081" x1="7.62309" y1="23.2476" x2="8.1422" y2="8.94" gradientUnits="userSpaceOnUse">
<stop stop-color="#5E9624"/>
<stop offset="1" stop-color="#76BC2D"/>
</linearGradient>
<linearGradient id="paint2_linear_868_10081" x1="15.4862" y1="23.5327" x2="16.0053" y2="9.22514" gradientUnits="userSpaceOnUse">
<stop stop-color="#5E9624"/>
<stop offset="1" stop-color="#76BC2D"/>
</linearGradient>
<linearGradient id="paint3_linear_868_10081" x1="15.8489" y1="23.5465" x2="16.368" y2="9.23897" gradientUnits="userSpaceOnUse">
<stop stop-color="#5E9624"/>
<stop offset="1" stop-color="#76BC2D"/>
</linearGradient>
<linearGradient id="paint4_linear_868_10081" x1="7.94844" y1="23.2591" x2="8.46755" y2="8.95154" gradientUnits="userSpaceOnUse">
<stop stop-color="#5E9624"/>
<stop offset="1" stop-color="#76BC2D"/>
</linearGradient>
<clipPath id="clip0_868_10081">
<rect width="32" height="32" fill="white"/>
</clipPath>
</defs>
</svg>
