<svg width="32" height="32" viewBox="0 0 32 32" fill="none" xmlns="http://www.w3.org/2000/svg">
<path d="M30.2685 14.7803C30.222 13.2609 29.638 11.8072 28.6204 10.6779C27.6028 9.54865 26.2175 8.81701 24.7111 8.61318C24.6173 6.48886 23.6903 4.48704 22.1311 3.04126C20.5718 1.59548 18.5058 0.822142 16.3805 0.888736C14.6614 0.857491 12.9751 1.36132 11.5549 2.3305C10.1347 3.29969 9.05088 4.68632 8.45335 6.29851C6.63838 6.51833 4.9623 7.38133 3.72908 8.73098C2.49586 10.0806 1.78718 11.8276 1.73157 13.655C1.81028 15.7099 2.70051 17.6497 4.20711 19.0494C5.71371 20.449 7.71377 21.1942 9.7689 21.1216H23.4827C23.6006 21.1383 23.7203 21.1383 23.8382 21.1216C25.5242 21.1082 27.1386 20.4385 28.339 19.2546C29.5394 18.0708 30.2315 16.4659 30.2685 14.7803Z" fill="url(#paint0_linear_868_12086)"/>
<path d="M21.8667 19.474C22.6211 19.474 23.3446 19.1744 23.878 18.6409C24.4114 18.1075 24.7111 17.384 24.7111 16.6296V9.73893C24.713 9.37195 24.6425 9.0082 24.5036 8.6685C24.3647 8.3288 24.1602 8.01983 23.9018 7.75926C23.6434 7.49869 23.3361 7.29164 22.9976 7.14996C22.659 7.00828 22.2959 6.93476 21.9289 6.93359H14.9849C14.2345 6.93969 13.5169 7.24206 12.9885 7.77484C12.46 8.30762 12.1635 9.02763 12.1636 9.77804V15.5025C12.1437 15.6908 12.0595 15.8666 11.9253 16.0003L6.57778 21.4083C6.48703 21.4973 6.41496 21.6035 6.36581 21.7207C6.31666 21.838 6.29142 21.9638 6.29156 22.0909V24.69C6.28943 24.7734 6.30375 24.8563 6.33369 24.9342C6.36364 25.012 6.40862 25.0831 6.46607 25.1436C6.52353 25.204 6.59232 25.2525 6.66853 25.2863C6.74474 25.3202 6.82687 25.3386 6.91022 25.3407H10.9742C11.0709 25.3407 11.1636 25.3023 11.2319 25.234C11.3003 25.1656 11.3387 25.0729 11.3387 24.9763V23.9291C11.3387 23.8198 11.3821 23.7149 11.4595 23.6375C11.5368 23.5602 11.6417 23.5167 11.7511 23.5167H12.8284C12.8765 23.5169 12.924 23.5077 12.9685 23.4895C13.0129 23.4713 13.0533 23.4445 13.0873 23.4106C13.1213 23.3767 13.1483 23.3365 13.1668 23.2921C13.1852 23.2478 13.1947 23.2003 13.1947 23.1523V22.0269C13.1944 21.9749 13.2045 21.9234 13.2242 21.8753C13.2439 21.8273 13.273 21.7835 13.3096 21.7467C13.3463 21.7099 13.3899 21.6806 13.4379 21.6607C13.4859 21.6408 13.5374 21.6305 13.5893 21.6305H14.6684C14.7169 21.6326 14.7653 21.6251 14.8108 21.6083C14.8563 21.5915 14.898 21.5658 14.9334 21.5327C14.9688 21.4995 14.9973 21.4597 15.0171 21.4154C15.037 21.3712 15.0478 21.3234 15.0489 21.2749V19.7691L15.3191 19.4829L21.8667 19.474ZM22.4693 9.16293C22.7722 9.46393 22.9439 9.87234 22.9471 10.2993C22.9504 10.7263 22.7849 11.1372 22.4866 11.4428C22.1884 11.7483 21.7816 11.9238 21.3547 11.9309C20.9278 11.9381 20.5153 11.7763 20.207 11.4809C19.8988 11.1855 19.7196 10.7803 19.7086 10.3534C19.6976 9.92659 19.8555 9.51267 20.1481 9.20172C20.4407 8.89077 20.8443 8.70794 21.271 8.69302C21.6977 8.6781 22.1131 8.83229 22.4267 9.12204L22.4693 9.16293Z" fill="url(#paint1_linear_868_12086)"/>
<path d="M26.9707 25.2445C27.3413 25.2448 27.7084 25.172 28.0509 25.0303C28.3934 24.8886 28.7046 24.6808 28.9668 24.4188C29.229 24.1568 29.437 23.8457 29.5788 23.5033C29.7207 23.1609 29.7938 22.7939 29.7938 22.4232V15.5254C29.7933 14.777 29.4957 14.0594 28.9663 13.5303C28.4369 13.0013 27.7191 12.7041 26.9707 12.7041H20.0889C19.3345 12.7041 18.611 13.0038 18.0776 13.5372C17.5441 14.0707 17.2444 14.7942 17.2444 15.5485V21.289C17.2451 21.3929 17.2243 21.4958 17.1833 21.5912C17.1423 21.6867 17.082 21.7726 17.0062 21.8437L11.6711 27.1788C11.4953 27.3621 11.3988 27.6074 11.4027 27.8614V30.4765C11.4024 30.5598 11.4186 30.6423 11.4503 30.7193C11.482 30.7963 11.5286 30.8663 11.5874 30.9252C11.6462 30.9842 11.716 31.031 11.7929 31.0629C11.8699 31.0948 11.9523 31.1112 12.0356 31.1112H16.08C16.1751 31.1112 16.2665 31.0741 16.3346 31.0076C16.4027 30.9412 16.4421 30.8508 16.4444 30.7557V29.6765C16.4444 29.5714 16.4862 29.4706 16.5606 29.3962C16.6349 29.3219 16.7357 29.2801 16.8409 29.2801H17.9182C17.9657 29.2813 18.0128 29.273 18.057 29.2556C18.1012 29.2383 18.1414 29.2123 18.1754 29.1792C18.2094 29.146 18.2364 29.1064 18.2548 29.0627C18.2732 29.019 18.2827 28.972 18.2827 28.9245V27.8312C18.2827 27.7261 18.3244 27.6252 18.3988 27.5509C18.4731 27.4765 18.574 27.4348 18.6791 27.4348H19.7582C19.8549 27.4348 19.9476 27.3964 20.0159 27.328C20.0843 27.2597 20.1227 27.167 20.1227 27.0703V25.5325L20.4071 25.2623L26.9707 25.2445ZM27.5573 14.9548C27.7805 15.1788 27.9324 15.4639 27.9937 15.7741C28.0549 16.0843 28.0229 16.4057 27.9017 16.6978C27.7804 16.9898 27.5753 17.2393 27.3123 17.4149C27.0493 17.5905 26.7402 17.6842 26.424 17.6842C26.1078 17.6842 25.7987 17.5905 25.5357 17.4149C25.2727 17.2393 25.0676 16.9898 24.9463 16.6978C24.8251 16.4057 24.7931 16.0843 24.8543 15.7741C24.9156 15.4639 25.0675 15.1788 25.2907 14.9548C25.4393 14.8059 25.6158 14.6877 25.8101 14.6071C26.0044 14.5266 26.2127 14.4851 26.4231 14.4851C26.6335 14.4851 26.8418 14.5266 27.0361 14.6071C27.2304 14.6877 27.4069 14.8059 27.5556 14.9548H27.5573Z" fill="#50E6FF"/>
<path d="M12.592 27.9711C12.598 28.0629 12.6392 28.1488 12.7072 28.2108C12.7752 28.2728 12.8645 28.306 12.9565 28.3036C13.047 28.2985 13.1322 28.2591 13.1947 28.1933L17.5858 23.9267C17.6287 23.8836 17.6611 23.8312 17.6802 23.7735C17.6993 23.7158 17.7047 23.6544 17.696 23.5942C17.679 23.5356 17.6471 23.4824 17.6035 23.4396C17.56 23.3969 17.5061 23.3661 17.4472 23.3502C17.3882 23.3343 17.3262 23.3338 17.267 23.3488C17.2078 23.3639 17.1535 23.3939 17.1093 23.436L12.7022 27.7027C12.6363 27.7771 12.5974 27.8718 12.592 27.9711Z" fill="white"/>
<path d="M20.8645 15.9605L20.7978 16.0271C20.6305 16.1944 20.6305 16.4657 20.7978 16.633L25.8752 21.7104C26.0425 21.8777 26.3138 21.8777 26.4811 21.7104L26.5477 21.6438C26.715 21.4764 26.715 21.2052 26.5477 21.0378L21.4704 15.9605C21.303 15.7932 21.0318 15.7932 20.8645 15.9605Z" fill="white"/>
<path d="M19.7754 17.0503L19.7088 17.117C19.5415 17.2843 19.5415 17.5556 19.7088 17.7229L24.7861 22.8002C24.9534 22.9675 25.2247 22.9675 25.392 22.8002L25.4587 22.7336C25.626 22.5663 25.626 22.295 25.4587 22.1277L20.3813 17.0503C20.214 16.883 19.9427 16.883 19.7754 17.0503Z" fill="white"/>
<defs>
<linearGradient id="paint0_linear_868_12086" x1="16" y1="21.1341" x2="16" y2="0.888736" gradientUnits="userSpaceOnUse">
<stop offset="0.251" stop-color="#32BEDD"/>
<stop offset="0.83" stop-color="#50E6FF"/>
</linearGradient>
<linearGradient id="paint1_linear_868_12086" x1="6.26203" y1="25.4218" x2="23.6637" y2="8.02017" gradientUnits="userSpaceOnUse">
<stop stop-color="#0078D4"/>
<stop offset="0.142" stop-color="#077BD6"/>
<stop offset="0.345" stop-color="#1A83DB"/>
<stop offset="0.584" stop-color="#3990E4"/>
<stop offset="0.82" stop-color="#5EA0EF"/>
</linearGradient>
</defs>
</svg>
