<svg width="32" height="32" viewBox="0 0 32 32" fill="none" xmlns="http://www.w3.org/2000/svg">
<g clip-path="url(#clip0_855_9789)">
<path d="M25.7582 8.92666C24.0915 8.6403 22.3874 8.64873 20.7236 8.95155C18.6505 5.6387 15.7172 2.95057 12.2365 1.17377C13.5422 0.544919 14.9776 0.231904 16.4267 0.259991C18.809 0.188085 21.1239 1.05715 22.8703 2.67912C24.6167 4.30109 25.6542 6.54551 25.7582 8.92666Z" fill="url(#paint0_linear_855_9789)"/>
<path d="M32 23.7743C31.9925 25.8911 31.1463 27.9186 29.6468 29.4127C28.1473 30.9069 26.1168 31.7458 24 31.7458C23.6372 31.7461 23.2749 31.7212 22.9155 31.6712C24.2106 28.9063 24.9067 25.899 24.9582 22.8463C25.0189 20.4571 24.669 18.0752 23.9235 15.8045C23.1725 13.385 22.096 11.0788 20.7235 8.94938C22.3874 8.64656 24.0915 8.63814 25.7582 8.92449C27.4494 9.14894 29.0058 9.96737 30.1492 11.2336C31.2926 12.4997 31.9486 14.1312 32 15.8365C31.9546 17.1719 31.5399 18.4685 30.8018 19.5823C31.5875 20.8391 32.0028 22.292 32 23.7743Z" fill="url(#paint1_linear_855_9789)"/>
<path d="M24.9582 22.8463C24.9067 25.899 24.2106 28.9063 22.9156 31.6712C22.6827 31.641 22.4551 31.6001 22.2276 31.5485C20.4634 31.1477 18.8872 30.1608 17.7562 28.7489C16.6252 27.3369 16.0061 25.5834 16 23.7743C15.999 23.4868 16.015 23.1995 16.048 22.9138H15.2711C14.887 19.6754 13.998 16.5171 12.6364 13.5538C13.456 12.725 14.3367 11.959 15.2711 11.2623C16.8837 10.0776 18.7508 9.28613 20.7236 8.95117C22.096 11.0806 23.1725 13.3868 23.9236 15.8063C24.6688 18.0764 25.0187 20.4577 24.9582 22.8463Z" fill="url(#paint2_linear_855_9789)"/>
<path d="M20.7236 8.95161C18.7505 9.28561 16.8832 10.0771 15.2711 11.2627C14.3362 11.9595 13.4555 12.7262 12.6364 13.5561C12.5262 13.3161 12.4142 13.0814 12.2987 12.8449C11.1434 10.3871 9.53 8.1721 7.54489 6.31872C8.38317 4.06073 10.0651 2.21624 12.2364 1.17383C15.7172 2.95063 18.6505 5.63876 20.7236 8.95161Z" fill="url(#paint3_linear_855_9789)"/>
<path d="M12.6364 13.5557C10.107 16.2213 8.07655 19.3193 6.64178 22.7024C4.80214 22.254 3.15869 21.2184 1.96025 19.7525C0.761818 18.2865 0.0736696 16.47 0 14.5779C0.061325 12.5262 0.856356 10.5645 2.24074 9.04897C3.62513 7.53345 5.50708 6.56461 7.54489 6.31836C9.53054 8.17332 11.144 10.3902 12.2987 12.8499C12.4142 13.081 12.5262 13.3157 12.6364 13.5557Z" fill="url(#paint4_linear_855_9789)"/>
<path d="M15.2711 22.9174L9.01334 22.9423C8.21554 22.9721 7.41745 22.8914 6.64178 22.7023C8.07656 19.3193 10.107 16.2213 12.6365 13.5557C13.9987 16.5193 14.8877 19.6783 15.2711 22.9174Z" fill="url(#paint5_linear_855_9789)"/>
<path d="M24 30.7101C27.8459 30.7101 30.9635 27.6051 30.9635 23.775C30.9635 19.9448 27.8459 16.8398 24 16.8398C20.1541 16.8398 17.0364 19.9448 17.0364 23.775C17.0364 27.6051 20.1541 30.7101 24 30.7101Z" fill="url(#paint6_linear_855_9789)"/>
<path d="M18.0907 24.1895C18.1862 25.6105 18.7946 26.9486 19.8027 27.9548L21.6889 26.0721C21.1799 25.5629 20.8499 24.9023 20.7484 24.1895H18.0907Z" fill="#83B9F9"/>
<path d="M27.888 19.3238C26.9186 18.4769 25.6984 17.9711 24.4142 17.8838V20.5096C25.0016 20.5769 25.5589 20.8052 26.0249 21.1691L27.888 19.3238Z" fill="#83B9F9"/>
<path d="M20.1138 19.3236L21.9964 21.2063C22.4618 20.8428 23.0186 20.6151 23.6053 20.5485V17.8818C22.3148 17.9662 21.0878 18.4728 20.1138 19.3236Z" fill="#83B9F9"/>
<path d="M26.6169 21.7518C26.9761 22.2206 27.2065 22.7753 27.2853 23.3606H29.9111C29.8256 22.0824 29.3193 20.8684 28.4711 19.9082L26.6169 21.7518Z" fill="#83B9F9"/>
<path d="M21.3849 21.7518L19.5022 19.8691C18.6566 20.8437 18.1599 22.0723 18.0907 23.3607H20.7164C20.7952 22.7753 21.0257 22.2207 21.3849 21.7518Z" fill="#83B9F9"/>
<path d="M28.8373 21.894C28.7957 21.7936 28.7172 21.7131 28.6179 21.6691C28.5186 21.6251 28.4062 21.621 28.304 21.6575L24.4266 23.2202L24.7271 23.9828L28.6044 22.4486C28.6556 22.4298 28.7026 22.4011 28.7427 22.3641C28.7827 22.327 28.8151 22.2825 28.8379 22.2329C28.8607 22.1834 28.8735 22.1298 28.8755 22.0753C28.8775 22.0208 28.8688 21.9664 28.8497 21.9153L28.8373 21.894Z" fill="#F04049"/>
<path d="M24 24.9043C24.6235 24.9043 25.1289 24.3988 25.1289 23.7754C25.1289 23.1519 24.6235 22.6465 24 22.6465C23.3765 22.6465 22.8711 23.1519 22.8711 23.7754C22.8711 24.3988 23.3765 24.9043 24 24.9043Z" fill="#4F4F4F"/>
</g>
<defs>
<linearGradient id="paint0_linear_855_9789" x1="18.9973" y1="0.254658" x2="18.9973" y2="8.95155" gradientUnits="userSpaceOnUse">
<stop stop-color="#83B9F9"/>
<stop offset="1" stop-color="#5EA0EF"/>
</linearGradient>
<linearGradient id="paint1_linear_855_9789" x1="26.3609" y1="8.72183" x2="26.3609" y2="31.7458" gradientUnits="userSpaceOnUse">
<stop offset="0.154" stop-color="#83B9F9"/>
<stop offset="1" stop-color="#5EA0EF"/>
</linearGradient>
<linearGradient id="paint2_linear_855_9789" x1="18.8071" y1="8.94939" x2="18.8071" y2="31.6712" gradientUnits="userSpaceOnUse">
<stop offset="0.192" stop-color="#5EA0EF"/>
<stop offset="1" stop-color="#0078D4"/>
</linearGradient>
<linearGradient id="paint3_linear_855_9789" x1="14.1333" y1="1.17383" x2="14.1333" y2="13.5561" gradientUnits="userSpaceOnUse">
<stop offset="0.441" stop-color="#5EA0EF"/>
<stop offset="1" stop-color="#0078D4"/>
</linearGradient>
<linearGradient id="paint4_linear_855_9789" x1="6.31822" y1="6.31836" x2="6.31822" y2="22.7024" gradientUnits="userSpaceOnUse">
<stop stop-color="#0078D4"/>
<stop offset="1" stop-color="#005BA1"/>
</linearGradient>
<linearGradient id="paint5_linear_855_9789" x1="10.9565" y1="15.5717" x2="10.9565" y2="23.5663" gradientUnits="userSpaceOnUse">
<stop stop-color="#0078D4"/>
<stop offset="1" stop-color="#005BA1"/>
</linearGradient>
<linearGradient id="paint6_linear_855_9789" x1="24" y1="16.6514" x2="24" y2="30.9838" gradientUnits="userSpaceOnUse">
<stop offset="0.152" stop-color="white"/>
<stop offset="1" stop-color="#F2F2F2"/>
</linearGradient>
<clipPath id="clip0_855_9789">
<rect width="32" height="32" fill="white"/>
</clipPath>
</defs>
</svg>
