<svg width="32" height="32" viewBox="0 0 32 32" fill="none" xmlns="http://www.w3.org/2000/svg">
<g clip-path="url(#clip0_855_9785)">
<path d="M17.5129 22.2759C17.3056 22.2752 17.1002 22.3159 16.9088 22.3956C16.7174 22.4753 16.5438 22.5923 16.3982 22.7399L16.3858 22.7523C16.2651 22.8696 16.1029 22.9343 15.9347 22.9323C15.7665 22.9303 15.6059 22.8617 15.488 22.7416C15.428 22.6803 15.3813 22.6073 15.3507 22.5272C15.3201 22.4471 15.3064 22.3615 15.3102 22.2759L15.2889 16.971C15.2896 16.8826 15.267 16.7956 15.2233 16.7188C15.1796 16.642 15.1164 16.5781 15.04 16.5336L11.4276 14.4394C11.3679 14.7521 11.2561 15.0526 11.0969 15.3283C10.9102 15.6529 10.6612 15.9374 10.3643 16.1655C10.0673 16.3937 9.72829 16.5609 9.36657 16.6577C9.00485 16.7545 8.62757 16.7789 8.25639 16.7296C7.88521 16.6802 7.52742 16.558 7.20356 16.3701C6.54982 15.9895 6.07305 15.3659 5.87723 14.6353C5.68141 13.9046 5.78242 13.1261 6.15823 12.4696C6.31432 12.1923 6.51629 11.9435 6.75556 11.7336L2.54756 9.29275C2.47054 9.24849 2.38323 9.22526 2.2944 9.22539C2.20556 9.22551 2.11832 9.24899 2.04142 9.29348C1.96453 9.33796 1.90067 9.40187 1.85627 9.47882C1.81187 9.55576 1.78848 9.64303 1.78845 9.73186L1.80267 18.779V23.8812C1.80264 24.0585 1.84929 24.2326 1.93792 24.3862C2.02654 24.5397 2.15403 24.6672 2.30756 24.7559L14.5476 31.8474C14.6246 31.8921 14.7121 31.9157 14.8012 31.9158C14.8903 31.9159 14.9779 31.8925 15.055 31.848C15.1322 31.8034 15.1963 31.7394 15.2408 31.6622C15.2853 31.585 15.3086 31.4974 15.3085 31.4083V28.9408V25.4154C15.3065 25.2875 15.3428 25.1619 15.4128 25.0548C15.4827 24.9477 15.583 24.8639 15.7009 24.8142C15.8188 24.7645 15.9489 24.7512 16.0744 24.776C16.1999 24.8007 16.3152 24.8625 16.4053 24.9532C16.6233 25.1754 16.9025 25.3277 17.2073 25.3905C17.5121 25.4534 17.8288 25.424 18.1168 25.3061C18.4049 25.1882 18.6513 24.9871 18.8246 24.7286C18.9978 24.4701 19.0902 24.1658 19.0898 23.8545C19.0884 23.4366 18.9219 23.0361 18.6265 22.7404C18.3311 22.4447 17.9308 22.2777 17.5129 22.2759ZM24.1049 12.331C23.9954 12.3948 23.8694 12.4246 23.7429 12.4165C23.6164 12.4084 23.4952 12.3628 23.3947 12.2856C23.2942 12.2084 23.2189 12.103 23.1786 11.9828C23.1382 11.8627 23.1345 11.7332 23.168 11.611C23.2244 11.41 23.2398 11.1997 23.2132 10.9926C23.1867 10.7855 23.1187 10.5859 23.0133 10.4056C22.8828 10.1834 22.6995 9.99683 22.4796 9.86235C22.2598 9.72787 22.0101 9.64965 21.7529 9.63462C21.4956 9.61959 21.2386 9.66821 21.0045 9.77618C20.7705 9.88414 20.5667 10.0481 20.4112 10.2536C20.2556 10.4591 20.1531 10.6998 20.1128 10.9543C20.0724 11.2089 20.0954 11.4694 20.1797 11.713C20.264 11.9565 20.4071 12.1755 20.5962 12.3506C20.7853 12.5257 21.0147 12.6514 21.264 12.7168C21.3967 12.752 21.5145 12.8289 21.6003 12.9361C21.686 13.0433 21.7352 13.1751 21.7405 13.3123C21.7418 13.4345 21.7093 13.5546 21.6465 13.6594C21.5838 13.7642 21.4932 13.8496 21.3849 13.9061L16.8285 16.5336C16.7511 16.5779 16.6868 16.6418 16.6422 16.7189C16.5975 16.7961 16.5741 16.8836 16.5742 16.9728V21.1505C16.8745 21.047 17.19 20.9947 17.5076 20.9959C18.2639 20.9991 18.9883 21.3013 19.5228 21.8365C20.0573 22.3716 20.3586 23.0964 20.3609 23.8528C20.3609 24.6071 20.0612 25.3306 19.5278 25.8641C18.9943 26.3975 18.2708 26.6972 17.5165 26.6972C17.199 26.6967 16.8838 26.6445 16.5831 26.5425V31.4865C16.5835 31.5752 16.6071 31.6623 16.6516 31.739C16.6961 31.8157 16.76 31.8793 16.8369 31.9236C16.9137 31.9679 17.0008 31.9912 17.0895 31.9912C17.1782 31.9913 17.2653 31.9681 17.3422 31.9239L29.6925 24.795C29.848 24.7049 29.9769 24.5752 30.066 24.419C30.155 24.2629 30.2009 24.0858 30.1991 23.9061V19.547L30.1831 9.67853C30.1828 9.58985 30.1592 9.50281 30.1146 9.42611C30.0701 9.34941 30.0062 9.28574 29.9294 9.24147C29.8525 9.1972 29.7654 9.17388 29.6767 9.17383C29.588 9.17378 29.5009 9.19701 29.424 9.2412L24.1049 12.331Z" fill="url(#paint0_linear_855_9785)"/>
<path d="M24.4533 10.6524C24.3916 10.34 24.2793 10.0398 24.1209 9.7635C23.9119 9.40905 23.6285 9.10416 23.2903 8.86986C22.952 8.63556 22.567 8.47743 22.1617 8.40639C21.7564 8.33536 21.3405 8.35309 20.9427 8.45839C20.545 8.56368 20.1748 8.75401 19.8577 9.01626C19.5406 9.27851 19.2842 9.60643 19.1062 9.9774C18.9281 10.3484 18.8327 10.7535 18.8265 11.165C18.8202 11.5764 18.9033 11.9843 19.07 12.3604C19.2367 12.7366 19.483 13.0722 19.792 13.3439L16.1884 15.4239C16.1114 15.4684 16.024 15.4918 15.9351 15.4918C15.8462 15.4918 15.7588 15.4684 15.6818 15.4239L11.0969 12.7662C11.021 12.7191 10.9362 12.6882 10.8478 12.6754C10.7594 12.6625 10.6693 12.668 10.5831 12.6915C10.4203 12.7383 10.2825 12.8474 10.1996 12.9952C10.1167 13.143 10.0955 13.3175 10.1404 13.4808C10.2206 13.7807 10.21 14.0975 10.11 14.3913C10.0099 14.6851 9.82496 14.9426 9.57848 15.1312C9.33201 15.3198 9.03511 15.431 8.72539 15.4507C8.41567 15.4704 8.10706 15.3978 7.83864 15.2421C7.57021 15.0863 7.35405 14.8544 7.21752 14.5757C7.081 14.297 7.03025 13.984 7.0717 13.6764C7.11316 13.3689 7.24495 13.0805 7.45039 12.8479C7.65583 12.6153 7.92568 12.4489 8.22577 12.3697C8.32561 12.3486 8.41844 12.3024 8.49555 12.2355C8.57267 12.1687 8.63154 12.0833 8.66666 11.9875C8.71947 11.8394 8.71748 11.6773 8.66106 11.5305C8.60464 11.3838 8.49752 11.2621 8.3591 11.1875L3.11643 8.14039C3.03967 8.09585 2.97596 8.03192 2.93167 7.95502C2.88739 7.87811 2.86407 7.79092 2.86407 7.70217C2.86407 7.61342 2.88739 7.52623 2.93167 7.44933C2.97596 7.37242 3.03967 7.30849 3.11643 7.26395L15.4667 0.13506C15.6206 0.045947 15.7954 -0.000976563 15.9733 -0.000976562C16.1512 -0.000976562 16.326 0.045947 16.48 0.13506L28.8 7.27284C28.8768 7.31738 28.9405 7.38131 28.9847 7.45821C29.029 7.53512 29.0523 7.62231 29.0523 7.71106C29.0523 7.79981 29.029 7.887 28.9847 7.96391C28.9405 8.04081 28.8768 8.10474 28.8 8.14928L24.4533 10.6524Z" fill="url(#paint1_linear_855_9785)"/>
</g>
<defs>
<linearGradient id="paint0_linear_855_9785" x1="16" y1="6.17631" x2="16" y2="33.0688" gradientUnits="userSpaceOnUse">
<stop offset="0.215" stop-color="#5EA0EF"/>
<stop offset="1" stop-color="#0078D4"/>
</linearGradient>
<linearGradient id="paint1_linear_855_9785" x1="15.9538" y1="-1.24094" x2="15.9538" y2="16.1475" gradientUnits="userSpaceOnUse">
<stop offset="0.225" stop-color="#A67AF4"/>
<stop offset="0.999" stop-color="#773ADC"/>
</linearGradient>
<clipPath id="clip0_855_9785">
<rect width="32" height="32" fill="white"/>
</clipPath>
</defs>
</svg>
