<svg width="32" height="32" viewBox="0 0 32 32" fill="none" xmlns="http://www.w3.org/2000/svg">
<path d="M28.832 14.9637C28.832 23.3957 18.6383 30.185 16.4231 31.561C16.2963 31.6403 16.1497 31.6824 16 31.6824C15.8504 31.6824 15.7038 31.6403 15.5769 31.561C13.3618 30.185 3.16803 23.3957 3.16803 14.9637V4.81614C3.16889 4.60604 3.25165 4.40456 3.39871 4.25451C3.54577 4.10446 3.74555 4.01767 3.95559 4.01258C11.8845 3.79747 10.0587 0.318359 16 0.318359C21.9414 0.318359 20.1156 3.79747 28.0445 4.01258C28.2545 4.01767 28.4543 4.10446 28.6013 4.25451C28.7484 4.40456 28.8312 4.60604 28.832 4.81614V14.9637Z" fill="url(#paint0_linear_855_9804)"/>
<path d="M27.7671 15.0494C27.7671 22.7828 18.4196 29.0086 16.3893 30.2708C16.273 30.3431 16.1388 30.3814 16.0018 30.3814C15.8648 30.3814 15.7306 30.3431 15.6142 30.2708C13.5822 29.0086 4.23645 22.7828 4.23645 15.0494V5.74456C4.23641 5.5518 4.312 5.36672 4.44697 5.2291C4.58193 5.09147 4.7655 5.01229 4.95823 5.00856C12.2258 4.81123 10.5511 1.62012 16 1.62012C21.4489 1.62012 19.7742 4.82012 27.0453 5.00856C27.2381 5.01229 27.4216 5.09147 27.5566 5.2291C27.6916 5.36672 27.7672 5.5518 27.7671 5.74456V15.0494Z" fill="url(#paint1_linear_855_9804)"/>
<path d="M21.728 18.0479H10.272C9.94953 18.0479 9.64023 18.176 9.41219 18.404C9.18414 18.6321 9.05603 18.9413 9.05603 19.2639V20.7714C9.05603 20.8252 9.07738 20.8767 9.11539 20.9147C9.1534 20.9527 9.20495 20.9741 9.2587 20.9741H22.7414C22.768 20.9741 22.7943 20.9688 22.8189 20.9586C22.8435 20.9485 22.8659 20.9335 22.8847 20.9147C22.9035 20.8959 22.9184 20.8736 22.9286 20.849C22.9388 20.8244 22.944 20.798 22.944 20.7714V19.2639C22.944 18.9413 22.8159 18.6321 22.5879 18.404C22.3598 18.176 22.0505 18.0479 21.728 18.0479Z" fill="white"/>
<path d="M21.6782 22.4766H10.3218C10.2836 22.4766 10.247 22.4917 10.22 22.5187C10.193 22.5457 10.1778 22.5824 10.1778 22.6206V23.3815C10.1778 23.6111 10.269 23.8313 10.4314 23.9936C10.5937 24.156 10.814 24.2472 11.0436 24.2472H20.9565C21.1861 24.2472 21.4063 24.156 21.5687 23.9936C21.731 23.8313 21.8222 23.6111 21.8222 23.3815V22.6206C21.8222 22.5824 21.8071 22.5457 21.7801 22.5187C21.7531 22.4917 21.7164 22.4766 21.6782 22.4766Z" fill="white"/>
<path d="M18.6383 11.4274C19.4401 10.263 20.0018 10.4834 19.5449 7.79363C19.0881 5.10385 16.0961 5.12697 15.9129 5.12697C15.7298 5.12697 12.7378 5.09852 12.2809 7.79363C11.824 10.4887 12.3858 10.263 13.1858 11.4274C13.7024 13.0588 13.9492 14.7636 13.9165 16.4745H17.9094C17.8768 14.7637 18.123 13.0591 18.6383 11.4274Z" fill="white"/>
<defs>
<linearGradient id="paint0_linear_855_9804" x1="16" y1="-1.22831" x2="16" y2="34.6419" gradientUnits="userSpaceOnUse">
<stop stop-color="#5E9624"/>
<stop offset="0.316" stop-color="#619A25"/>
<stop offset="0.659" stop-color="#69A728"/>
<stop offset="0.999" stop-color="#76BC2D"/>
</linearGradient>
<linearGradient id="paint1_linear_855_9804" x1="16" y1="31.6237" x2="16" y2="-1.71677" gradientUnits="userSpaceOnUse">
<stop stop-color="#5E9624"/>
<stop offset="0.546" stop-color="#6DAD2A"/>
<stop offset="0.999" stop-color="#76BC2D"/>
</linearGradient>
</defs>
</svg>
