<svg width="32" height="32" viewBox="0 0 32 32" fill="none" xmlns="http://www.w3.org/2000/svg">
<g clip-path="url(#clip0_855_9794)">
<path d="M16 31.691C24.3457 31.691 31.1111 24.9255 31.1111 16.5799C31.1111 8.23422 24.3457 1.46875 16 1.46875C7.65439 1.46875 0.888916 8.23422 0.888916 16.5799C0.888916 24.9255 7.65439 31.691 16 31.691Z" fill="url(#paint0_linear_855_9794)"/>
<path d="M15.6623 26.7858C13.9325 25.7192 8.28271 21.9023 8.28271 17.4436V11.7423L8.88894 11.7049C10.3849 11.7106 11.8453 11.2495 13.0667 10.3858C13.9094 9.75522 14.9498 9.44686 16 9.5165C17.0481 9.45154 18.0855 9.75809 18.9298 10.3823C20.152 11.2475 21.6137 11.7098 23.1112 11.7049L23.7156 11.7423V17.4436C23.7156 21.9023 18.0658 25.7209 16.3343 26.7858L16 26.9921L15.6623 26.7858Z" fill="url(#paint1_linear_855_9794)"/>
<path d="M16 26.0325C12.6471 23.9507 9.10046 20.6227 9.10046 17.4441V12.5107C10.6851 12.4835 12.2249 11.9805 13.52 11.0672C14.2276 10.5246 15.1112 10.2636 16 10.3347C16.8872 10.2712 17.7674 10.5308 18.4782 11.0654C19.7742 11.9787 21.3144 12.4822 22.8996 12.5107V17.4441C22.8996 20.6227 19.3529 23.9507 16 26.0325Z" fill="#50E6FF"/>
<path d="M27.2801 27.351C28.5584 27.351 29.5947 26.3147 29.5947 25.0363C29.5947 23.758 28.5584 22.7217 27.2801 22.7217C26.0017 22.7217 24.9654 23.758 24.9654 25.0363C24.9654 26.3147 26.0017 27.351 27.2801 27.351Z" fill="white"/>
<path d="M27.28 22.7218C27.7371 22.7218 28.184 22.8573 28.564 23.1113C28.9441 23.3652 29.2403 23.7262 29.4152 24.1485C29.5902 24.5708 29.6359 25.0355 29.5467 25.4838C29.4576 25.9321 29.2375 26.3439 28.9142 26.6671C28.591 26.9903 28.1792 27.2104 27.7309 27.2996C27.2826 27.3888 26.8179 27.343 26.3956 27.1681C25.9733 26.9932 25.6124 26.6969 25.3584 26.3169C25.1045 25.9368 24.9689 25.49 24.9689 25.0329C24.9689 24.42 25.2124 23.8321 25.6458 23.3987C26.0793 22.9653 26.6671 22.7218 27.28 22.7218ZM27.28 21.5645C26.593 21.5648 25.9215 21.7689 25.3504 22.1509C24.7794 22.5329 24.3344 23.0756 24.0718 23.7105C23.8092 24.3454 23.7408 25.0439 23.8751 25.7177C24.0095 26.3915 24.3407 27.0103 24.8267 27.4958C25.3128 27.9814 25.932 28.3119 26.6059 28.4456C27.2798 28.5793 27.9782 28.5101 28.6128 28.2469C29.2474 27.9837 29.7897 27.5381 30.1712 26.9667C30.5526 26.3952 30.756 25.7235 30.7556 25.0365C30.7542 24.1161 30.3879 23.2338 29.7371 22.5829C29.0863 21.9321 28.204 21.5659 27.2836 21.5645H27.28Z" fill="#B3B3B3"/>
<path d="M4.72 27.351C5.99836 27.351 7.03467 26.3147 7.03467 25.0363C7.03467 23.758 5.99836 22.7217 4.72 22.7217C3.44165 22.7217 2.40533 23.758 2.40533 25.0363C2.40533 26.3147 3.44165 27.351 4.72 27.351Z" fill="white"/>
<path d="M4.72 22.7218C5.1771 22.7218 5.62393 22.8573 6.00399 23.1113C6.38405 23.3652 6.68027 23.7262 6.85519 24.1485C7.03011 24.5708 7.07588 25.0355 6.98671 25.4838C6.89753 25.9321 6.67742 26.3439 6.3542 26.6671C6.03099 26.9903 5.61919 27.2104 5.17088 27.2996C4.72257 27.3888 4.25788 27.343 3.83558 27.1681C3.41328 26.9932 3.05233 26.6969 2.79838 26.3169C2.54444 25.9368 2.40889 25.49 2.40889 25.0329C2.40889 24.42 2.65238 23.8321 3.0858 23.3987C3.51922 22.9653 4.10706 22.7218 4.72 22.7218ZM4.72 21.5645C4.0328 21.5641 3.36094 21.7676 2.78941 22.1492C2.21787 22.5307 1.77236 23.0732 1.50921 23.7081C1.24607 24.3429 1.17713 25.0415 1.31111 25.7155C1.44509 26.3895 1.77597 27.0086 2.26189 27.4946C2.74782 27.9805 3.36695 28.3114 4.04096 28.4453C4.71497 28.5793 5.41358 28.5104 6.0484 28.2472C6.68323 27.9841 7.22574 27.5386 7.60731 26.967C7.98887 26.3955 8.19235 25.7237 8.192 25.0365C8.19106 24.1159 7.82496 23.2333 7.17404 22.5824C6.52312 21.9315 5.64055 21.5654 4.72 21.5645Z" fill="#B3B3B3"/>
<path d="M16 6.09808C17.2784 6.09808 18.3147 5.06177 18.3147 3.78342C18.3147 2.50506 17.2784 1.46875 16 1.46875C14.7217 1.46875 13.6854 2.50506 13.6854 3.78342C13.6854 5.06177 14.7217 6.09808 16 6.09808Z" fill="white"/>
<path d="M16 1.46868C16.4571 1.46868 16.904 1.60423 17.284 1.85817C17.6641 2.11212 17.9603 2.47307 18.1352 2.89537C18.3101 3.31767 18.3559 3.78236 18.2667 4.23067C18.1776 4.67898 17.9574 5.09078 17.6342 5.414C17.311 5.73721 16.8992 5.95732 16.4509 6.0465C16.0026 6.13567 15.5379 6.0899 15.1156 5.91498C14.6933 5.74006 14.3324 5.44384 14.0784 5.06378C13.8245 4.68372 13.6889 4.23689 13.6889 3.77979C13.6889 3.16685 13.9324 2.57901 14.3658 2.14559C14.7992 1.71217 15.3871 1.46868 16 1.46868ZM16 0.309571C15.3129 0.309219 14.6411 0.512654 14.0696 0.894144C13.4981 1.27563 13.0526 1.81804 12.7894 2.45276C12.5262 3.08748 12.4572 3.78599 12.591 4.45996C12.7248 5.13392 13.0555 5.75306 13.5413 6.23905C14.027 6.72505 14.646 7.05607 15.3199 7.19025C15.9938 7.32443 16.6923 7.25574 17.3272 6.99287C17.9621 6.73 18.5047 6.28476 18.8865 5.71346C19.2683 5.14216 19.472 4.47047 19.472 3.78335C19.4711 2.86264 19.105 1.97989 18.4542 1.32868C17.8033 0.677479 16.9207 0.310982 16 0.309571Z" fill="#B3B3B3"/>
</g>
<defs>
<linearGradient id="paint0_linear_855_9794" x1="16" y1="31.691" x2="16" y2="1.46875" gradientUnits="userSpaceOnUse">
<stop stop-color="#198AB3"/>
<stop offset="0.442" stop-color="#28B7DB"/>
<stop offset="0.775" stop-color="#32D4F5"/>
</linearGradient>
<linearGradient id="paint1_linear_855_9794" x1="10.2222" y1="-5537.05" x2="21.8719" y2="-5546.5" gradientUnits="userSpaceOnUse">
<stop stop-color="white" stop-opacity="0.9"/>
<stop offset="1" stop-color="white" stop-opacity="0.8"/>
</linearGradient>
<clipPath id="clip0_855_9794">
<rect width="32" height="32" fill="white"/>
</clipPath>
</defs>
</svg>
