<svg width="32" height="32" viewBox="0 0 32 32" fill="none" xmlns="http://www.w3.org/2000/svg">
<g clip-path="url(#clip0_855_9802)">
<path d="M28.2844 6.30566V21.5199C28.2752 21.7623 28.171 21.9913 27.9944 22.1576C27.8178 22.3239 27.5829 22.4141 27.3404 22.4088H0.944C0.821781 22.4128 0.699993 22.3923 0.585852 22.3484C0.471711 22.3045 0.36754 22.2382 0.27951 22.1533C0.19148 22.0684 0.121382 21.9667 0.0733704 21.8543C0.0253585 21.7418 0.000408897 21.6208 0 21.4986L0 6.30566H28.2844Z" fill="url(#paint0_linear_855_9802)"/>
<path d="M28.2844 6.3054H0V1.40584C0.000408897 1.28355 0.0253585 1.1626 0.0733704 1.05013C0.121382 0.937662 0.19148 0.835976 0.27951 0.751096C0.36754 0.666216 0.471711 0.599868 0.585852 0.555984C0.699993 0.5121 0.821781 0.491573 0.944 0.495618H27.3173C27.4395 0.491568 27.5612 0.512106 27.6752 0.55601C27.7893 0.599914 27.8933 0.666289 27.9812 0.751194C28.0691 0.836098 28.139 0.9378 28.1868 1.05026C28.2347 1.16272 28.2594 1.28364 28.2596 1.40584V6.3054H28.2844Z" fill="#0078D4"/>
<path d="M28.2845 13.5107V21.7223C28.2756 21.9648 28.1716 22.1941 27.9949 22.3605C27.8182 22.5269 27.5831 22.617 27.3405 22.6112H28.2845V13.5107Z" fill="white"/>
<path d="M30.2613 31.5023H17.7333C17.2739 31.4985 16.8343 31.314 16.5099 30.9886C16.1855 30.6632 16.0023 30.2231 16 29.7636V17.2641C16.0023 16.8037 16.1863 16.3628 16.5118 16.0372C16.8374 15.7117 17.2783 15.5277 17.7387 15.5254H30.2667C30.7269 15.5268 31.1677 15.7106 31.4926 16.0365C31.8176 16.3624 32 16.8039 32 17.2641V29.7654C32 30.2265 31.8168 30.6688 31.4908 30.9948C31.1647 31.3209 30.7225 31.5041 30.2613 31.5041V31.5023Z" fill="url(#paint1_linear_855_9802)"/>
<path d="M24 4.55581H4.28269C4.15676 4.55724 4.03535 4.50895 3.94482 4.42141C3.85428 4.33387 3.80193 4.21415 3.79913 4.08825V2.66603C3.80193 2.54028 3.85434 2.42075 3.94493 2.33349C4.03552 2.24624 4.15693 2.19834 4.28269 2.20025H24C24.1258 2.19834 24.2472 2.24624 24.3378 2.33349C24.4284 2.42075 24.4808 2.54028 24.4836 2.66603V4.11314C24.4754 4.23495 24.4205 4.34892 24.3305 4.43136C24.2404 4.5138 24.1221 4.55837 24 4.55581ZM22.6774 23.1762L19.2996 19.7985C19.2606 19.7597 19.2079 19.738 19.1529 19.738C19.0979 19.738 19.0452 19.7597 19.0062 19.7985L18.5494 20.2571C18.5106 20.2961 18.4888 20.3488 18.4888 20.4038C18.4888 20.4588 18.5106 20.5115 18.5494 20.5505L21.4827 23.4749L18.6134 26.3531C18.5747 26.3918 18.553 26.4442 18.553 26.4989C18.553 26.5536 18.5747 26.606 18.6134 26.6447L19.0738 27.1034C19.0928 27.1227 19.1155 27.1381 19.1405 27.1486C19.1656 27.1591 19.1924 27.1645 19.2196 27.1645C19.2467 27.1645 19.2736 27.1591 19.2986 27.1486C19.3236 27.1381 19.3463 27.1227 19.3654 27.1034L22.6898 23.77C22.7664 23.6891 22.8092 23.5819 22.8092 23.4705C22.8092 23.359 22.7664 23.2518 22.6898 23.1709L22.6774 23.1762ZM29.1485 26.0367H23.9574C23.8631 26.0367 23.7726 26.0742 23.7059 26.1408C23.6393 26.2075 23.6018 26.298 23.6018 26.3923V26.9256C23.6018 27.0199 23.6393 27.1103 23.7059 27.177C23.7726 27.2437 23.8631 27.2811 23.9574 27.2811H29.1556C29.2499 27.2811 29.3403 27.2437 29.407 27.177C29.4737 27.1103 29.5111 27.0199 29.5111 26.9256V26.3923C29.5111 26.298 29.4737 26.2075 29.407 26.1408C29.3403 26.0742 29.2499 26.0367 29.1556 26.0367H29.1485Z" fill="white"/>
</g>
<defs>
<linearGradient id="paint0_linear_855_9802" x1="14.1422" y1="6.30566" x2="14.1422" y2="22.4248" gradientUnits="userSpaceOnUse">
<stop stop-color="#5EA0EF"/>
<stop offset="1" stop-color="#0078D4"/>
</linearGradient>
<linearGradient id="paint1_linear_855_9802" x1="23.9982" y1="15.0738" x2="23.9982" y2="32.4925" gradientUnits="userSpaceOnUse">
<stop offset="0.232" stop-color="#50E6FF"/>
<stop offset="1" stop-color="#32BEDD"/>
</linearGradient>
<clipPath id="clip0_855_9802">
<rect width="32" height="32" fill="white"/>
</clipPath>
</defs>
</svg>
