<svg width="32" height="32" viewBox="0 0 32 32" fill="none" xmlns="http://www.w3.org/2000/svg">
<g clip-path="url(#clip0_855_9792)">
<path d="M19.7476 2.13268e-05C17.2228 -0.00417285 14.7881 0.938464 12.9245 2.6418C12.8712 2.68992 12.8289 2.74901 12.8006 2.81499C12.7723 2.88098 12.7587 2.9523 12.7605 3.02407C12.7624 3.09585 12.7797 3.16637 12.8114 3.2308C12.8431 3.29523 12.8883 3.35205 12.944 3.39735C13.6162 3.92273 14.142 4.61203 14.4711 5.39913C14.5013 5.47649 14.5502 5.54518 14.6133 5.59907C14.6765 5.65297 14.752 5.69038 14.8332 5.70798C14.9143 5.72559 14.9986 5.72283 15.0784 5.69996C15.1582 5.67709 15.2312 5.63482 15.2907 5.57691C15.923 4.95938 16.6766 4.47991 17.5039 4.16886C18.3311 3.85781 19.214 3.72198 20.0965 3.76995C20.979 3.81792 21.8419 4.04867 22.6306 4.44756C23.4192 4.84645 24.1164 5.4048 24.678 6.08723C25.2397 6.76965 25.6534 7.56129 25.8931 8.41197C26.1328 9.26266 26.1931 10.1538 26.0704 11.0291C25.9477 11.9043 25.6445 12.7445 25.1801 13.4965C24.7156 14.2484 24.1001 14.8957 23.3725 15.3974C23.3024 15.4441 23.2453 15.5079 23.2066 15.5827C23.1679 15.6575 23.1488 15.7409 23.1511 15.8251C23.1535 15.9093 23.1771 15.9915 23.2198 16.0641C23.2626 16.1366 23.3231 16.1972 23.3956 16.24C24.1646 16.7001 24.8563 17.2785 25.4454 17.9538C25.5312 18.0515 25.6515 18.1122 25.7811 18.1232C25.9107 18.1341 26.0395 18.0944 26.1405 18.0125C27.771 16.6938 28.9522 14.9018 29.5213 12.8836C30.0905 10.8653 30.0194 8.7202 29.3181 6.744C28.6167 4.7678 27.3195 3.05787 25.6053 1.84997C23.8912 0.642079 21.8445 -0.00427974 19.7476 2.13268e-05Z" fill="url(#paint0_linear_855_9792)"/>
<path d="M16.5725 32.0005H25.7405C26.0203 31.9956 26.2874 31.8828 26.4861 31.6858C26.6848 31.4887 26.7998 31.2225 26.8071 30.9428V23.5365C26.8071 21.4789 25.9897 19.5056 24.5348 18.0507C23.0798 16.5957 21.1065 15.7783 19.0489 15.7783C16.9913 15.7783 15.018 16.5957 13.563 18.0507C12.1081 19.5056 11.2907 21.4789 11.2907 23.5365L16.5725 32.0005Z" fill="url(#paint1_linear_855_9792)"/>
<path d="M9.87201 11.556C10.7088 11.556 11.5269 11.3078 12.2227 10.8429C12.9185 10.378 13.4608 9.71717 13.781 8.94404C14.1013 8.1709 14.1851 7.32017 14.0218 6.49941C13.8586 5.67866 13.4556 4.92475 12.8639 4.33302C12.2721 3.74128 11.5182 3.33831 10.6975 3.17505C9.8767 3.01179 9.02597 3.09558 8.25283 3.41583C7.4797 3.73607 6.81889 4.27838 6.35397 4.97418C5.88905 5.66999 5.6409 6.48803 5.6409 7.32486C5.6409 8.44702 6.08668 9.52322 6.88016 10.3167C7.67365 11.1102 8.74985 11.556 9.87201 11.556Z" fill="url(#paint2_linear_855_9792)"/>
<path d="M3.17335 32.0008H16.5725C16.8523 31.9958 17.1194 31.8831 17.3181 31.686C17.5168 31.4889 17.6318 31.2228 17.6391 30.943V20.7172C17.6391 18.6596 16.8217 16.6863 15.3668 15.2313C13.9118 13.7764 11.9385 12.959 9.8809 12.959C7.8233 12.959 5.84996 13.7764 4.39501 15.2313C2.94006 16.6863 2.12268 18.6596 2.12268 20.7172V30.943C2.12979 31.2201 2.24256 31.4839 2.43788 31.6806C2.63321 31.8772 2.89632 31.9918 3.17335 32.0008Z" fill="url(#paint3_linear_855_9792)"/>
<path d="M19.7476 14.3685C22.0843 14.3685 23.9787 12.4741 23.9787 10.1374C23.9787 7.80058 22.0843 5.90625 19.7476 5.90625C17.4108 5.90625 15.5164 7.80058 15.5164 10.1374C15.5164 12.4741 17.4108 14.3685 19.7476 14.3685Z" fill="url(#paint4_linear_855_9792)"/>
</g>
<defs>
<linearGradient id="paint0_linear_855_9792" x1="21.3227" y1="-0.371534" x2="21.3227" y2="18.3271" gradientUnits="userSpaceOnUse">
<stop offset="0.141" stop-color="#0078D4"/>
<stop offset="1" stop-color="#005BA1"/>
</linearGradient>
<linearGradient id="paint1_linear_855_9792" x1="24.9013" y1="32.6405" x2="15.6107" y2="16.5499" gradientUnits="userSpaceOnUse">
<stop stop-color="#005BA1"/>
<stop offset="0.765" stop-color="#0078D4"/>
</linearGradient>
<linearGradient id="paint2_linear_855_9792" x1="6.33068" y1="3.77464" x2="12.7805" y2="10.2244" gradientUnits="userSpaceOnUse">
<stop stop-color="#50E6FF"/>
<stop offset="1" stop-color="#32BEDD"/>
</linearGradient>
<linearGradient id="paint3_linear_855_9792" x1="2.21335" y1="16.7688" x2="15.2249" y2="29.7803" gradientUnits="userSpaceOnUse">
<stop stop-color="#50E6FF"/>
<stop offset="1" stop-color="#32BEDD"/>
</linearGradient>
<linearGradient id="paint4_linear_855_9792" x1="16.7467" y1="7.13825" x2="22.8729" y2="13.2627" gradientUnits="userSpaceOnUse">
<stop offset="0.235" stop-color="#0078D4"/>
<stop offset="1" stop-color="#005BA1"/>
</linearGradient>
<clipPath id="clip0_855_9792">
<rect width="32" height="32" fill="white"/>
</clipPath>
</defs>
</svg>
