<svg width="32" height="32" viewBox="0 0 32 32" fill="none" xmlns="http://www.w3.org/2000/svg">
<g clip-path="url(#clip0_855_9799)">
<path d="M28.2453 14.1284C28.2453 14.6093 28.221 15.0899 28.1725 15.5684C28.1641 15.6478 28.1369 15.7242 28.0931 15.791C28.0492 15.8579 27.9901 15.9132 27.9205 15.9526C27.8509 15.9919 27.7729 16.014 27.693 16.017C27.6132 16.0201 27.5337 16.004 27.4613 15.9701C25.8523 15.2743 24.0714 15.0778 22.3494 15.4063C20.6274 15.7348 19.0438 16.573 17.804 17.8123C16.5641 19.0516 15.7251 20.6348 15.3959 22.3566C15.0666 24.0784 15.2622 25.8595 15.9573 27.4688C15.9908 27.5411 16.0066 27.6203 16.0034 27.6999C16.0003 27.7795 15.9783 27.8572 15.9392 27.9267C15.9002 27.9961 15.8452 28.0553 15.7788 28.0993C15.7124 28.1433 15.6365 28.1709 15.5573 28.1799C15.0795 28.2284 14.5995 28.2527 14.1191 28.2528C11.3253 28.2535 8.59396 27.4256 6.27067 25.8739C3.94737 24.3221 2.13645 22.1162 1.06697 19.5352C-0.00252109 16.9541 -0.282532 14.1139 0.26235 11.3737C0.807231 8.63348 2.15253 6.11642 4.12808 4.14087C6.10363 2.16531 8.6207 0.820018 11.3609 0.275137C14.1011 -0.269745 16.9414 0.0102658 19.5224 1.07975C22.1035 2.14924 24.3094 3.96016 25.8611 6.28345C27.4128 8.60675 28.2407 11.3381 28.24 14.1319L28.2453 14.1284Z" fill="url(#paint0_linear_855_9799)"/>
<path d="M25.6765 0.938673V15.4151C24.113 15.1088 22.4956 15.2352 20.9987 15.7808C19.5018 16.3263 18.1823 17.2702 17.1826 18.5107C16.1829 19.7512 15.5409 21.2412 15.3259 22.8198C15.1109 24.3984 15.3311 26.0058 15.9627 27.4685C15.9961 27.5408 16.0119 27.62 16.0088 27.6996C16.0056 27.7792 15.9836 27.8569 15.9446 27.9263C15.9055 27.9957 15.8505 28.0549 15.7841 28.0989C15.7177 28.143 15.6418 28.1706 15.5627 28.1796C15.0848 28.2281 14.6048 28.2524 14.1245 28.2525C11.8582 28.2552 9.6247 27.7116 7.61316 26.6678C5.60162 25.6239 3.87134 24.1106 2.56891 22.256V0.936896C2.56937 0.813394 2.59416 0.691194 2.64185 0.577273C2.68955 0.463351 2.75921 0.359939 2.84687 0.27294C2.93453 0.185942 3.03847 0.117061 3.15274 0.0702314C3.26702 0.0234013 3.38941 -0.000461059 3.51291 6.74723e-06H24.736C24.9851 6.30213e-06 25.2241 0.0988445 25.4004 0.274828C25.5767 0.450811 25.676 0.68956 25.6765 0.938673Z" fill="url(#paint1_linear_855_9799)"/>
<path d="M32 24C32 25.5823 31.5308 27.129 30.6518 28.4446C29.7727 29.7602 28.5233 30.7855 27.0615 31.391C25.5997 31.9965 23.9911 32.155 22.4393 31.8463C20.8874 31.5376 19.462 30.7757 18.3432 29.6569C17.2243 28.538 16.4624 27.1126 16.1537 25.5607C15.845 24.0089 16.0035 22.4003 16.609 20.9385C17.2145 19.4767 18.2398 18.2273 19.5554 17.3482C20.871 16.4692 22.4178 16 24 16C26.1217 16 28.1566 16.8429 29.6569 18.3431C31.1571 19.8434 32 21.8783 32 24Z" fill="white"/>
<path d="M32 24C32 25.5823 31.5308 27.129 30.6518 28.4446C29.7727 29.7602 28.5233 30.7855 27.0615 31.391C25.5997 31.9965 23.9911 32.155 22.4393 31.8463C20.8874 31.5376 19.462 30.7757 18.3432 29.6569C17.2243 28.538 16.4624 27.1126 16.1537 25.5607C15.845 24.0089 16.0035 22.4003 16.609 20.9385C17.2145 19.4767 18.2398 18.2273 19.5554 17.3482C20.871 16.4692 22.4178 16 24 16C26.1217 16 28.1566 16.8429 29.6569 18.3431C31.1571 19.8434 32 21.8783 32 24Z" fill="#57A300"/>
<path d="M12.032 8.04297H20.8729C21.006 8.04344 21.1335 8.09665 21.2275 8.19095C21.3215 8.28525 21.3742 8.41295 21.3742 8.54608V9.83675C21.3742 9.96987 21.3215 10.0976 21.2275 10.1919C21.1335 10.2862 21.006 10.3394 20.8729 10.3399H12.032C11.8986 10.3399 11.7706 10.2869 11.6763 10.1925C11.5819 10.0981 11.5289 9.97018 11.5289 9.83675V8.54608C11.5289 8.41265 11.5819 8.28468 11.6763 8.19033C11.7706 8.09597 11.8986 8.04297 12.032 8.04297ZM11.6018 13.4812V14.7736C11.6018 14.9071 11.6548 15.035 11.7491 15.1294C11.8435 15.2237 11.9715 15.2767 12.1049 15.2767H20.944C21.0774 15.2767 21.2054 15.2237 21.2998 15.1294C21.3941 15.035 21.4471 14.9071 21.4471 14.7736V13.4812C21.4467 13.3481 21.3934 13.2206 21.2991 13.1266C21.2048 13.0326 21.0771 12.9799 20.944 12.9799H12.1049C12.0389 12.9796 11.9735 12.9924 11.9125 13.0175C11.8515 13.0426 11.796 13.0795 11.7493 13.1261C11.7025 13.1726 11.6654 13.228 11.6401 13.2889C11.6148 13.3499 11.6018 13.4152 11.6018 13.4812ZM12.0818 17.915C11.9487 17.9154 11.8212 17.9687 11.7272 18.063C11.6332 18.1573 11.5805 18.285 11.5805 18.4181V19.7087C11.5805 19.8419 11.6332 19.9696 11.7272 20.0639C11.8212 20.1582 11.9487 20.2114 12.0818 20.2119H16.112C16.5184 19.3652 17.0587 18.5896 17.712 17.915H12.0818ZM22.8462 27.8332C22.8954 27.8861 22.9555 27.9277 23.0223 27.9551C23.0891 27.9826 23.161 27.9952 23.2332 27.9922C23.3053 27.9891 23.376 27.9705 23.4402 27.9375C23.5045 27.9045 23.5608 27.858 23.6053 27.8012L28.4747 21.5665C28.5367 21.482 28.563 21.3766 28.548 21.2728C28.5331 21.1691 28.478 21.0754 28.3947 21.0119L27.488 20.3132C27.4033 20.248 27.2963 20.2191 27.1903 20.2328C27.0843 20.2464 26.9881 20.3016 26.9227 20.3861L23.1111 25.2625L20.9778 22.9692C20.905 22.8912 20.8044 22.8451 20.6977 22.8411C20.5911 22.8371 20.4873 22.8755 20.4089 22.9479L19.5733 23.7194C19.4941 23.7933 19.4474 23.8956 19.4436 24.0039C19.4411 24.0571 19.4493 24.1103 19.4676 24.1604C19.4859 24.2104 19.514 24.2563 19.5502 24.2954L22.8462 27.8332Z" fill="white"/>
<path opacity="0.8" d="M7.24091 8.04297H9.06669C9.13477 8.04297 9.20219 8.05641 9.26507 8.08252C9.32795 8.10863 9.38506 8.14689 9.43313 8.19512C9.48119 8.24335 9.51926 8.30059 9.54515 8.36356C9.57104 8.42653 9.58425 8.49399 9.58402 8.56208V9.82075C9.58425 9.88883 9.57104 9.9563 9.54515 10.0193C9.51926 10.0822 9.48119 10.1395 9.43313 10.1877C9.38506 10.2359 9.32795 10.2742 9.26507 10.3003C9.20219 10.3264 9.13477 10.3399 9.06669 10.3399H7.24091C7.17282 10.3399 7.1054 10.3264 7.04252 10.3003C6.97964 10.2742 6.92253 10.2359 6.87447 10.1877C6.82641 10.1395 6.78834 10.0822 6.76244 10.0193C6.73655 9.9563 6.72334 9.88883 6.72357 9.82075V8.56208C6.72334 8.49399 6.73655 8.42653 6.76244 8.36356C6.78834 8.30059 6.82641 8.24335 6.87447 8.19512C6.92253 8.14689 6.97964 8.10863 7.04252 8.08252C7.1054 8.05641 7.17282 8.04297 7.24091 8.04297ZM6.79469 13.4972V14.7559C6.79469 14.8935 6.84938 15.0256 6.94673 15.1229C7.04408 15.2203 7.17612 15.275 7.3138 15.275H9.13602C9.2737 15.275 9.40573 15.2203 9.50309 15.1229C9.60044 15.0256 9.65513 14.8935 9.65513 14.7559V13.4972C9.65537 13.429 9.6421 13.3613 9.61609 13.2983C9.59009 13.2352 9.55186 13.1779 9.50361 13.1296C9.45536 13.0813 9.39804 13.0431 9.33495 13.0171C9.27186 12.9911 9.20426 12.9778 9.13602 12.9781H7.3138C7.24556 12.9778 7.17795 12.9911 7.11486 13.0171C7.05178 13.0431 6.99446 13.0813 6.94621 13.1296C6.89796 13.1779 6.85973 13.2352 6.83372 13.2983C6.80772 13.3613 6.79445 13.429 6.79469 13.4972ZM6.77335 18.4341V19.6927C6.77312 19.7608 6.78633 19.8283 6.81222 19.8913C6.83811 19.9542 6.87618 20.0115 6.92425 20.0597C6.97231 20.1079 7.02942 20.1462 7.0923 20.1723C7.15518 20.1984 7.2226 20.2119 7.29069 20.2119H9.11469C9.18277 20.2119 9.25019 20.1984 9.31307 20.1723C9.37595 20.1462 9.43306 20.1079 9.48113 20.0597C9.52919 20.0115 9.56726 19.9542 9.59315 19.8913C9.61904 19.8283 9.63225 19.7608 9.63202 19.6927V18.4341C9.63225 18.366 9.61904 18.2985 9.59315 18.2356C9.56726 18.1726 9.52919 18.1153 9.48113 18.0671C9.43306 18.0189 9.37595 17.9806 9.31307 17.9545C9.25019 17.9284 9.18277 17.915 9.11469 17.915H7.28891C7.22097 17.9152 7.15374 17.9288 7.09107 17.955C7.02839 17.9812 6.97149 18.0195 6.92362 18.0677C6.87574 18.116 6.83783 18.1731 6.81205 18.236C6.78627 18.2988 6.77312 18.3661 6.77335 18.4341Z" fill="white"/>
</g>
<defs>
<linearGradient id="paint0_linear_855_9799" x1="14.1227" y1="0.414579" x2="14.1227" y2="27.6626" gradientUnits="userSpaceOnUse">
<stop offset="0.134" stop-color="#005BA1"/>
<stop offset="1" stop-color="#003067"/>
</linearGradient>
<linearGradient id="paint1_linear_855_9799" x1="14.1245" y1="-0.0728821" x2="14.1245" y2="28.0071" gradientUnits="userSpaceOnUse">
<stop stop-color="#5EA0EF"/>
<stop offset="1" stop-color="#0078D4"/>
</linearGradient>
<clipPath id="clip0_855_9799">
<rect width="32" height="32" fill="white"/>
</clipPath>
</defs>
</svg>
