<svg width="32" height="32" viewBox="0 0 32 32" fill="none" xmlns="http://www.w3.org/2000/svg">
<path d="M22.864 24.5193C27.6544 24.5193 31.5378 23.6055 31.5378 22.4784C31.5378 21.3512 27.6544 20.4375 22.864 20.4375C18.0736 20.4375 14.1902 21.3512 14.1902 22.4784C14.1902 23.6055 18.0736 24.5193 22.864 24.5193Z" fill="#32BEDD"/>
<path d="M31.5378 26.4885V22.4707C31.5378 23.5978 27.6551 24.5116 22.864 24.5116C18.0729 24.5116 14.192 23.5978 14.192 22.4707V26.5827C14.192 27.7098 18.0747 28.6236 22.864 28.6236C27.5538 28.6236 31.3725 27.7471 31.5307 26.652V26.6271C31.5316 26.6123 31.5316 26.5975 31.5307 26.5827V26.5454V26.4885H31.5378Z" fill="#0078D4"/>
<path d="M13.5271 15.0152C13.5271 13.2641 18.7004 12.5921 22.416 12.5458C22.0739 11.7187 21.5233 10.9942 20.8179 10.4431C20.1126 9.89194 19.2765 9.53291 18.3911 9.40096C18.3167 7.74557 17.594 6.1859 16.3792 5.05891C15.1644 3.93192 13.555 3.32808 11.8987 3.37785C10.559 3.35285 9.24459 3.74421 8.13679 4.49792C7.02898 5.25164 6.18238 6.33057 5.71377 7.58585C4.29598 7.75812 2.9868 8.43254 2.02341 9.48691C1.06003 10.5413 0.506183 11.9059 0.462219 13.3334C0.524255 14.9368 1.21947 16.4503 2.39549 17.542C3.57151 18.6337 5.13239 19.2146 6.736 19.1574C6.91377 19.1574 7.10577 19.1574 7.28711 19.1343H13.5271V15.0152Z" fill="url(#paint0_linear_855_9787)"/>
<path d="M14.272 15.0154V19.1345H17.4453C17.5363 19.1337 17.6267 19.12 17.7137 19.0936C19.0175 19.0849 20.2676 18.5736 21.2038 17.6662C22.14 16.7589 22.6901 15.5253 22.7395 14.2225C22.7387 13.9124 22.7059 13.6032 22.6418 13.2998C17.152 13.3158 14.272 14.4198 14.272 15.0154Z" fill="url(#paint1_linear_855_9787)"/>
<path d="M22.8391 17.2548C18.1013 17.2548 14.2577 16.3659 14.1742 15.2512V19.3259C14.1742 20.453 18.0569 21.3668 22.848 21.3668C27.5378 21.3668 31.3546 20.4903 31.5129 19.3952V19.3774C31.5129 19.3632 31.5129 19.3472 31.5129 19.333V19.2939V19.2388V15.2139C31.5111 16.341 27.6284 17.2548 22.8391 17.2548Z" fill="#5EA0EF"/>
<path d="M22.8391 17.3015C27.6295 17.3015 31.5129 16.3878 31.5129 15.2606C31.5129 14.1335 27.6295 13.2197 22.8391 13.2197C18.0487 13.2197 14.1653 14.1335 14.1653 15.2606C14.1653 16.3878 18.0487 17.3015 22.8391 17.3015Z" fill="#9CEBFF"/>
<path d="M22.8515 22.3614L19.4186 25.7036C19.0631 26.0592 18.7413 25.933 18.7413 25.3481V23.8672C18.7416 23.8102 18.7304 23.7538 18.7085 23.7013C18.6866 23.6487 18.6544 23.6011 18.6139 23.5611C18.5733 23.5212 18.5251 23.4898 18.4722 23.4688C18.4193 23.4478 18.3627 23.4375 18.3058 23.4387C16.0924 23.4885 9.9502 22.8663 9.73864 14.4681C9.73698 14.4107 9.74682 14.3535 9.76759 14.3C9.78835 14.2465 9.81962 14.1977 9.85955 14.1564C9.89947 14.1152 9.94726 14.0823 10.0001 14.0598C10.0529 14.0373 10.1097 14.0256 10.1671 14.0254H12.3395C12.3992 14.0251 12.4582 14.0374 12.5128 14.0613C12.5675 14.0853 12.6165 14.1204 12.6567 14.1645C12.6969 14.2085 12.7274 14.2605 12.7463 14.3171C12.7651 14.3737 12.7719 14.4336 12.7662 14.493C12.5942 15.2869 12.6123 16.1102 12.819 16.8959C13.0256 17.6815 13.415 18.4072 13.9554 19.0137C14.4957 19.6203 15.1718 20.0906 15.9284 20.3863C16.6851 20.682 17.5009 20.7947 18.3093 20.7152C18.3658 20.7154 18.4218 20.7045 18.4741 20.6831C18.5264 20.6617 18.5739 20.6302 18.614 20.5904C18.6542 20.5506 18.686 20.5033 18.7079 20.4512C18.7297 20.3991 18.7411 20.3432 18.7413 20.2867V18.9143C18.7413 18.2156 18.9511 18.1001 19.4186 18.5587L22.8515 21.6538C22.9095 21.6929 22.9569 21.7456 22.9897 21.8073C23.0225 21.869 23.0397 21.9377 23.0397 22.0076C23.0397 22.0775 23.0225 22.1463 22.9897 22.208C22.9569 22.2697 22.9095 22.3223 22.8515 22.3614Z" fill="url(#paint2_linear_855_9787)"/>
<defs>
<linearGradient id="paint0_linear_855_9787" x1="11.4418" y1="19.1574" x2="11.4418" y2="3.36896" gradientUnits="userSpaceOnUse">
<stop stop-color="#0078D4"/>
<stop offset="0.156" stop-color="#1380DA"/>
<stop offset="0.528" stop-color="#3C91E5"/>
<stop offset="0.822" stop-color="#559CEC"/>
<stop offset="1" stop-color="#5EA0EF"/>
</linearGradient>
<linearGradient id="paint1_linear_855_9787" x1="18.5066" y1="19.1345" x2="18.5066" y2="13.2909" gradientUnits="userSpaceOnUse">
<stop stop-color="#0078D4"/>
<stop offset="0.156" stop-color="#1380DA"/>
<stop offset="0.528" stop-color="#3C91E5"/>
<stop offset="0.822" stop-color="#559CEC"/>
<stop offset="1" stop-color="#5EA0EF"/>
</linearGradient>
<linearGradient id="paint2_linear_855_9787" x1="7.86309" y1="16.317" x2="19.6266" y2="21.7854" gradientUnits="userSpaceOnUse">
<stop offset="0.174" stop-color="#E6E6E6"/>
<stop offset="0.583" stop-color="#F6F6F6"/>
<stop offset="0.957" stop-color="white"/>
</linearGradient>
</defs>
</svg>
