<svg width="32" height="32" viewBox="0 0 32 32" fill="none" xmlns="http://www.w3.org/2000/svg">
<path d="M23.8987 16.2616C23.8833 15.0184 23.4287 13.8208 22.6154 12.8805C21.802 11.9402 20.6822 11.318 19.4542 11.1238C19.4187 9.38947 18.6996 7.73938 17.4533 6.53274C16.2071 5.3261 14.5346 4.6606 12.8 4.68113C11.4005 4.67157 10.0333 5.1013 8.89086 5.90978C7.74845 6.71827 6.88847 7.86477 6.43203 9.18779C4.95784 9.40646 3.61029 10.1447 2.63238 11.2693C1.65446 12.3939 1.11054 13.8309 1.09869 15.3211C1.12536 16.9977 1.81681 18.595 3.02098 19.7618C4.22516 20.9287 5.84346 21.5695 7.52003 21.5433C7.71203 21.5433 7.90047 21.5345 8.08714 21.5185H18.4871C18.5799 21.5171 18.6721 21.5028 18.7609 21.4758C20.1239 21.4352 21.4186 20.8705 22.3757 19.8992C23.3327 18.9279 23.8782 17.625 23.8987 16.2616Z" fill="url(#paint0_linear_855_9803)"/>
<path d="M18.2791 25.9097C16.7307 25.9097 15.1822 25.899 13.6338 25.9097C13.2142 25.9097 13.0631 25.8048 13.0738 25.3408C13.0905 25.0172 13.042 24.6936 12.9309 24.3892C12.8199 24.0849 12.6487 23.806 12.4275 23.5692C12.2063 23.3324 11.9397 23.1427 11.6436 23.0112C11.3475 22.8797 11.028 22.8092 10.704 22.8039C10.0442 22.81 9.41385 23.0778 8.95147 23.5485C8.48909 24.0193 8.23255 24.6543 8.23823 25.3141C8.23823 25.8848 8.18845 25.9274 7.61245 25.9008C7.29767 25.9206 6.9838 25.8498 6.70802 25.6967C6.43225 25.5437 6.20613 25.3148 6.05646 25.0371C5.90679 24.7595 5.83985 24.4448 5.86355 24.1303C5.88726 23.8157 6.00063 23.5146 6.19023 23.2625C6.27991 23.0688 6.33984 22.8626 6.36801 22.651C6.42455 22.2134 6.60988 21.8025 6.90047 21.4704C7.19105 21.1384 7.57377 20.9002 8.00001 20.7861C9.29114 20.4022 10.4998 19.7819 11.5645 18.9568C12.8723 18.0203 14.4377 17.5111 16.0462 17.499C17.8217 17.3785 19.6027 17.631 21.2747 18.2403C22.2868 18.61 23.2169 19.1741 24.0125 19.9008C24.8134 20.6399 25.8369 21.0926 26.9227 21.1879C27.5635 21.2715 28.1954 21.4131 28.8107 21.611C29.2856 21.7799 29.7138 22.0591 30.0599 22.4257C30.406 22.7922 30.6603 23.2356 30.8018 23.7194C30.8897 23.9473 30.9243 24.1922 30.9029 24.4355C30.8815 24.6787 30.8048 24.9139 30.6785 25.1229C30.5522 25.3319 30.3797 25.5092 30.1743 25.6413C29.9688 25.7734 29.7359 25.8566 29.4933 25.8848C29.3442 25.9038 29.1939 25.9121 29.0436 25.9097C28.416 25.9097 28.416 25.9097 28.3929 25.2732C28.3738 24.6216 28.1047 24.0024 27.6413 23.544C27.1778 23.0855 26.5558 22.823 25.904 22.811C25.5804 22.8204 25.2618 22.8936 24.9665 23.0264C24.6713 23.1592 24.4051 23.3489 24.1833 23.5848C23.9615 23.8206 23.7884 24.0979 23.674 24.4008C23.5596 24.7036 23.506 25.0261 23.5165 25.3497C23.5307 25.8492 23.3547 25.9257 22.9298 25.9185C21.3778 25.8972 19.8293 25.9114 18.2791 25.9097Z" fill="url(#paint1_linear_855_9803)"/>
<path d="M10.6436 27.3192C10.1103 27.315 9.6006 27.0991 9.22653 26.719C8.85245 26.339 8.64469 25.8258 8.64893 25.2926C8.65317 24.7593 8.86908 24.2496 9.24915 23.8755C9.62923 23.5014 10.1423 23.2937 10.6756 23.2979C11.2089 23.3022 11.7186 23.5181 12.0927 23.8981C12.4667 24.2782 12.6745 24.7913 12.6703 25.3246C12.666 25.8578 12.4501 26.3676 12.07 26.7417C11.69 27.1157 11.1769 27.3235 10.6436 27.3192Z" fill="#32BEDD"/>
<path d="M23.9751 25.3086C23.9677 25.046 24.0133 24.7846 24.1092 24.54C24.205 24.2953 24.3492 24.0726 24.533 23.8849C24.7169 23.6972 24.9366 23.5485 25.1792 23.4477C25.4218 23.3468 25.6822 23.2959 25.9449 23.2979C26.4782 23.2979 26.9896 23.5097 27.3667 23.8868C27.7438 24.2639 27.9556 24.7753 27.9556 25.3086C27.9556 25.8418 27.7438 26.3533 27.3667 26.7303C26.9896 27.1074 26.4782 27.3192 25.9449 27.3192C25.6822 27.3213 25.4218 27.2703 25.1792 27.1695C24.9366 27.0686 24.7169 26.9199 24.533 26.7323C24.3492 26.5446 24.205 26.3218 24.1092 26.0772C24.0133 25.8326 23.9677 25.5712 23.9751 25.3086Z" fill="#32BEDD"/>
<path d="M17.3013 21.8187L11.2906 12.7787L12.5155 11.9307L18.528 20.9724L17.3013 21.8187Z" fill="white"/>
<path d="M15.84 21.6637C15.7945 21.2532 15.8715 20.8384 16.0614 20.4715C16.2512 20.1047 16.5454 19.8023 16.9068 19.6023C17.2682 19.4024 17.6808 19.3139 18.0924 19.348C18.504 19.382 18.8964 19.5372 19.22 19.7939C19.5436 20.0505 19.784 20.3972 19.9109 20.7903C20.0378 21.1834 20.0456 21.6052 19.9332 22.0026C19.8208 22.4001 19.5933 22.7554 19.2793 23.0238C18.9654 23.2922 18.579 23.4616 18.1689 23.5108C17.8937 23.549 17.6136 23.531 17.3456 23.4579C17.0775 23.3847 16.8271 23.258 16.6094 23.0854C16.3917 22.9127 16.2113 22.6977 16.079 22.4534C15.9468 22.209 15.8655 21.9404 15.84 21.6637Z" fill="url(#paint2_linear_855_9803)"/>
<path d="M9.92889 12.7147C9.88335 12.3041 9.96038 11.8892 10.1503 11.5223C10.3402 11.1554 10.6344 10.8529 10.9959 10.653C11.3575 10.453 11.7701 10.3646 12.1818 10.3988C12.5935 10.433 12.9859 10.5883 13.3095 10.8451C13.633 11.102 13.8734 11.4488 14.0001 11.8421C14.1269 12.2353 14.1344 12.6572 14.0217 13.0546C13.9091 13.4521 13.6813 13.8073 13.367 14.0756C13.0528 14.3438 12.6662 14.513 12.256 14.5618C11.9809 14.6003 11.7008 14.5824 11.4327 14.5094C11.1647 14.4363 10.9143 14.3096 10.6967 14.1369C10.4791 13.9642 10.2988 13.7491 10.1668 13.5046C10.0349 13.2601 9.9539 12.9914 9.92889 12.7147Z" fill="url(#paint3_linear_855_9803)"/>
<defs>
<linearGradient id="paint0_linear_855_9803" x1="12.4942" y1="2.09624" x2="12.4942" y2="25.2927" gradientUnits="userSpaceOnUse">
<stop stop-color="#5EA0EF"/>
<stop offset="0.373" stop-color="#378FE4"/>
<stop offset="0.844" stop-color="#0078D4"/>
</linearGradient>
<linearGradient id="paint1_linear_855_9803" x1="18.3965" y1="25.9185" x2="18.3965" y2="17.4848" gradientUnits="userSpaceOnUse">
<stop stop-color="#32BEDD"/>
<stop offset="0.262" stop-color="#3DCDEA"/>
<stop offset="0.695" stop-color="#4BDFF9"/>
<stop offset="1" stop-color="#50E6FF"/>
</linearGradient>
<linearGradient id="paint2_linear_855_9803" x1="18.1827" y1="23.5095" x2="17.644" y2="19.2823" gradientUnits="userSpaceOnUse">
<stop stop-color="#CCCCCC"/>
<stop offset="0.221" stop-color="#D8D8D8"/>
<stop offset="1" stop-color="white"/>
</linearGradient>
<linearGradient id="paint3_linear_855_9803" x1="95.7209" y1="163.052" x2="95.7209" y2="158.789" gradientUnits="userSpaceOnUse">
<stop stop-color="#CCCCCC"/>
<stop offset="0.221" stop-color="#D8D8D8"/>
<stop offset="1" stop-color="white"/>
</linearGradient>
</defs>
</svg>
