<svg width="32" height="32" viewBox="0 0 32 32" fill="none" xmlns="http://www.w3.org/2000/svg">
<g clip-path="url(#clip0_855_9782)">
<path d="M25.0436 9.96446H0.785778C0.585009 9.95725 0.389569 10.0299 0.24228 10.1665C0.0949924 10.3032 0.00786881 10.4926 0 10.6933L0 27.5182C0.0128271 27.716 0.102293 27.9009 0.24937 28.0337C0.396448 28.1665 0.589531 28.2367 0.787556 28.2293H25.0436C25.2401 28.2366 25.4316 28.166 25.5764 28.0328C25.7212 27.8997 25.8077 27.7147 25.8169 27.5182V10.6667C25.8059 10.4716 25.7186 10.2887 25.5739 10.1573C25.4293 10.0259 25.2388 9.95668 25.0436 9.96446Z" fill="url(#paint0_linear_855_9782)"/>
<path d="M28.1351 6.87274H3.87911C3.67787 6.86552 3.48198 6.93838 3.33435 7.07534C3.18673 7.2123 3.09942 7.40219 3.09155 7.6034V24.4265C3.10615 24.6227 3.19651 24.8055 3.34349 24.9362C3.49048 25.0669 3.68257 25.1354 3.87911 25.127H28.1351C28.3302 25.1352 28.5207 25.0664 28.6654 24.9353C28.8101 24.8042 28.8974 24.6215 28.9084 24.4265V7.57318C28.8974 7.37824 28.8101 7.19548 28.6654 7.06441C28.5207 6.93334 28.3302 6.86448 28.1351 6.87274Z" fill="url(#paint1_linear_855_9782)"/>
<path d="M31.2107 3.82H6.99201C6.89254 3.81643 6.79334 3.83251 6.70009 3.86731C6.60684 3.90212 6.52136 3.95496 6.44855 4.02282C6.37574 4.09068 6.31701 4.17223 6.27574 4.2628C6.23446 4.35337 6.21145 4.45119 6.20801 4.55066V21.3471C6.2226 21.543 6.31271 21.7255 6.45931 21.8562C6.60591 21.9869 6.79755 22.0555 6.99379 22.0476H31.2107C31.4054 22.0553 31.5955 21.9863 31.7398 21.8552C31.8841 21.7242 31.9712 21.5417 31.9822 21.3471V4.52044C31.9716 4.32566 31.8847 4.1429 31.7403 4.01178C31.5959 3.88067 31.4056 3.81176 31.2107 3.82Z" fill="url(#paint2_linear_855_9782)"/>
<path opacity="0.9" d="M26.0302 6.06934H24.2595C24.1427 6.06934 24.048 6.16405 24.048 6.28089V19.2444C24.048 19.3613 24.1427 19.456 24.2595 19.456H26.0302C26.147 19.456 26.2418 19.3613 26.2418 19.2444V6.28089C26.2418 6.16405 26.147 6.06934 26.0302 6.06934Z" fill="white"/>
<path opacity="0.6" d="M20.5849 16.6973H8.76625C8.64058 16.6973 8.5387 16.7991 8.5387 16.9248V19.243C8.5387 19.3687 8.64058 19.4706 8.76625 19.4706H20.5849C20.7106 19.4706 20.8125 19.3687 20.8125 19.243V16.9248C20.8125 16.7991 20.7106 16.6973 20.5849 16.6973Z" fill="white"/>
<path opacity="0.9" d="M29.4436 11.5449H27.5733C27.484 11.5449 27.4116 11.6174 27.4116 11.7067V19.2943C27.4116 19.3836 27.484 19.456 27.5733 19.456H29.4436C29.5329 19.456 29.6053 19.3836 29.6053 19.2943V11.7067C29.6053 11.6174 29.5329 11.5449 29.4436 11.5449Z" fill="white"/>
<path d="M19.2622 6.87793L16.2116 12.3055L12.9867 9.01837L9.66046 13.3295L10.4409 13.941L13.0774 10.5402L16.4267 13.957L20.1262 7.37571L19.2622 6.87793Z" fill="white"/>
<path d="M13.024 11.0365C13.7162 11.0365 14.2774 10.4722 14.2774 9.77607C14.2774 9.07995 13.7162 8.51562 13.024 8.51562C12.3318 8.51562 11.7707 9.07995 11.7707 9.77607C11.7707 10.4722 12.3318 11.0365 13.024 11.0365Z" fill="white"/>
<path d="M16.4267 14.1635C17.1189 14.1635 17.68 13.5991 17.68 12.903C17.68 12.2069 17.1189 11.6426 16.4267 11.6426C15.7345 11.6426 15.1733 12.2069 15.1733 12.903C15.1733 13.5991 15.7345 14.1635 16.4267 14.1635Z" fill="white"/>
<path d="M19.584 8.54433C20.2762 8.54433 20.8374 7.98001 20.8374 7.28388C20.8374 6.58776 20.2762 6.02344 19.584 6.02344C18.8918 6.02344 18.3307 6.58776 18.3307 7.28388C18.3307 7.98001 18.8918 8.54433 19.584 8.54433Z" fill="white"/>
<path d="M10.1813 14.7133C10.8735 14.7133 11.4346 14.149 11.4346 13.4528C11.4346 12.7567 10.8735 12.1924 10.1813 12.1924C9.48912 12.1924 8.92798 12.7567 8.92798 13.4528C8.92798 14.149 9.48912 14.7133 10.1813 14.7133Z" fill="white"/>
</g>
<defs>
<linearGradient id="paint0_linear_855_9782" x1="8.86044" y1="33.3316" x2="15.9218" y2="8.50135" gradientUnits="userSpaceOnUse">
<stop stop-color="#258277"/>
<stop offset="0.2" stop-color="#27887D"/>
<stop offset="0.5" stop-color="#2C9A8D"/>
<stop offset="1" stop-color="#37C2B1"/>
</linearGradient>
<linearGradient id="paint1_linear_855_9782" x1="11.536" y1="34.1616" x2="17.7422" y2="8.92429" gradientUnits="userSpaceOnUse">
<stop stop-color="#258277"/>
<stop offset="0.3" stop-color="#2EA193"/>
<stop offset="0.7" stop-color="#34B9A9"/>
<stop offset="1" stop-color="#37C2B1"/>
</linearGradient>
<linearGradient id="paint2_linear_855_9782" x1="19.0951" y1="22.1169" x2="19.0951" y2="3.39155" gradientUnits="userSpaceOnUse">
<stop stop-color="#37C2B1"/>
<stop offset="1" stop-color="#3CD4C2"/>
</linearGradient>
<clipPath id="clip0_855_9782">
<rect width="32" height="32" fill="white"/>
</clipPath>
</defs>
</svg>
