<svg width="32" height="32" viewBox="0 0 32 32" fill="none" xmlns="http://www.w3.org/2000/svg">
<g clip-path="url(#clip0_855_9801)">
<path d="M30.6009 0H6.60091C6.0118 0 5.53424 0.477563 5.53424 1.06667V30.9333C5.53424 31.5224 6.0118 32 6.60091 32H30.6009C31.19 32 31.6676 31.5224 31.6676 30.9333V1.06667C31.6676 0.477563 31.19 0 30.6009 0Z" fill="url(#paint0_linear_855_9801)"/>
<path d="M24.2329 3.31934H1.29424C0.763061 3.31934 0.332458 3.74994 0.332458 4.28111V15.3193C0.332458 15.8505 0.763061 16.2811 1.29424 16.2811H24.2329C24.7641 16.2811 25.1947 15.8505 25.1947 15.3193V4.28111C25.1947 3.74994 24.7641 3.31934 24.2329 3.31934Z" fill="url(#paint1_linear_855_9801)"/>
<path d="M21.1325 7.86333H9.01157C8.98308 7.8638 8.95479 7.85866 8.92829 7.84819C8.9018 7.83772 8.87762 7.82214 8.85715 7.80233C8.83668 7.78252 8.82031 7.75887 8.80899 7.73273C8.79766 7.70659 8.79159 7.67848 8.79112 7.65V6.93355C8.79112 6.87556 8.81416 6.81994 8.85517 6.77893C8.89618 6.73792 8.9518 6.71489 9.00979 6.71489H21.1307C21.1888 6.71488 21.2446 6.73786 21.2859 6.77882C21.3272 6.81978 21.3507 6.8754 21.3511 6.93355V7.64466C21.3514 7.6733 21.3459 7.70169 21.3351 7.72821C21.3243 7.75473 21.3084 7.77885 21.2882 7.79918C21.2681 7.81951 21.2441 7.83564 21.2176 7.84665C21.1912 7.85766 21.1611 7.86333 21.1325 7.86333ZM7.08801 8.38066V6.20111C7.08801 6.10115 7.0483 6.00529 6.97762 5.93461C6.90694 5.86393 6.81108 5.82422 6.71112 5.82422H4.52801C4.42836 5.82422 4.33277 5.86368 4.26214 5.93398C4.19151 6.00427 4.15159 6.09968 4.15112 6.19933V8.38066C4.15112 8.42992 4.16083 8.4787 4.17968 8.52421C4.19853 8.56972 4.22616 8.61107 4.26099 8.64591C4.29582 8.68074 4.33717 8.70837 4.38269 8.72722C4.4282 8.74607 4.47697 8.75577 4.52623 8.75577H6.70757C6.75698 8.75601 6.80595 8.74648 6.85166 8.72773C6.89738 8.70899 6.93894 8.68139 6.97396 8.64654C7.00898 8.61168 7.03677 8.57025 7.05573 8.52462C7.0747 8.479 7.08446 8.43007 7.08446 8.38066H7.08801Z" fill="white"/>
<path opacity="0.8" d="M21.1307 12.4853H9.01155C8.95339 12.4853 8.89759 12.4623 8.8563 12.4214C8.81501 12.3804 8.79158 12.3248 8.79111 12.2667V11.5449C8.79111 11.4864 8.81433 11.4303 8.85567 11.389C8.89702 11.3477 8.95309 11.3244 9.01155 11.3244H21.1289C21.1872 11.3249 21.243 11.3483 21.2842 11.3895C21.3255 11.4308 21.3489 11.4866 21.3493 11.5449V12.256C21.3493 12.3143 21.3264 12.3703 21.2855 12.4119C21.2446 12.4535 21.189 12.4773 21.1307 12.4782V12.4853ZM6.54222 11.0115H4.72355V12.8249H6.54222V11.0115ZM6.73244 10.4409C6.83274 10.4423 6.92852 10.4829 6.99929 10.554C7.07005 10.625 7.11019 10.721 7.11111 10.8213V13.0133C7.11064 13.1139 7.07035 13.2102 6.99905 13.2812C6.92775 13.3522 6.83126 13.392 6.73066 13.392H4.53333C4.4329 13.392 4.33659 13.3521 4.26557 13.2811C4.19456 13.2101 4.15466 13.1138 4.15466 13.0133V10.8142C4.15466 10.7138 4.19456 10.6175 4.26557 10.5465C4.33659 10.4754 4.4329 10.4355 4.53333 10.4355L6.73244 10.4409Z" fill="white"/>
<path d="M23.7902 19.7478C23.7505 19.7084 23.6969 19.6861 23.6409 19.6855C23.6134 19.6858 23.5861 19.6914 23.5608 19.7022C23.5354 19.713 23.5124 19.7286 23.4931 19.7482C23.4738 19.7679 23.4585 19.7911 23.4482 19.8167C23.4379 19.8422 23.4327 19.8696 23.4329 19.8971V22.3238V22.5407H5.53424V25.6927H23.4329V28.1549C23.4332 28.1959 23.4455 28.236 23.4684 28.2701C23.4912 28.3042 23.5236 28.3309 23.5614 28.3468C23.5993 28.3627 23.641 28.3671 23.6813 28.3596C23.7217 28.352 23.7589 28.3327 23.7885 28.3042L27.92 24.178C27.9395 24.1587 27.9549 24.1357 27.9655 24.1103C27.976 24.085 27.9814 24.0579 27.9814 24.0304C27.9814 24.003 27.976 23.9758 27.9655 23.9505C27.9549 23.9252 27.9395 23.9022 27.92 23.8829L23.7902 19.7478Z" fill="#83B9F9"/>
</g>
<defs>
<linearGradient id="paint0_linear_855_9801" x1="18.6009" y1="28.2453" x2="18.6009" y2="-3.75467" gradientUnits="userSpaceOnUse">
<stop stop-color="#0078D4"/>
<stop offset="1" stop-color="#5EA0EF"/>
</linearGradient>
<linearGradient id="paint1_linear_855_9801" x1="12.7627" y1="0.954892" x2="12.7627" y2="22.2402" gradientUnits="userSpaceOnUse">
<stop stop-color="#50E6FF"/>
<stop offset="1" stop-color="#32BEDD"/>
</linearGradient>
<clipPath id="clip0_855_9801">
<rect width="32" height="32" fill="white"/>
</clipPath>
</defs>
</svg>
