<svg width="32" height="32" viewBox="0 0 32 32" fill="none" xmlns="http://www.w3.org/2000/svg">
<g clip-path="url(#clip0_855_9791)">
<path d="M30.9333 18.2969H18.2133V27.488C18.2129 27.8061 18.0863 28.1111 17.8613 28.336C17.6364 28.5609 17.3314 28.6875 17.0133 28.688H14.3467C14.0286 28.6875 13.7236 28.5609 13.4987 28.336C13.2737 28.1111 13.1471 27.8061 13.1467 27.488V26.1333H11.1467C10.8286 26.1328 10.5236 26.0063 10.2987 25.7813C10.0737 25.5564 9.94714 25.2514 9.94667 24.9333V22.2667C9.94714 21.9485 10.0737 21.6436 10.2987 21.4186C10.5236 21.1937 10.8286 21.0671 11.1467 21.0667H13.1556V18.2969H1.06667C0.783769 18.2969 0.512458 18.4093 0.312419 18.6093C0.112381 18.8093 0 19.0806 0 19.3635L0 29.248C0 29.3881 0.0275901 29.5268 0.0811952 29.6562C0.1348 29.7856 0.21337 29.9032 0.312419 30.0022C0.411469 30.1013 0.529057 30.1799 0.658471 30.2335C0.787885 30.2871 0.92659 30.3147 1.06667 30.3147H30.9333C31.0734 30.3147 31.2121 30.2871 31.3415 30.2335C31.4709 30.1799 31.5885 30.1013 31.6876 30.0022C31.7866 29.9032 31.8652 29.7856 31.9188 29.6562C31.9724 29.5268 32 29.3881 32 29.248V19.3635C32 19.0806 31.8876 18.8093 31.6876 18.6093C31.4875 18.4093 31.2162 18.2969 30.9333 18.2969Z" fill="url(#paint0_linear_855_9791)"/>
<path d="M27.7867 20.7148H29.1733C29.2441 20.7148 29.3119 20.7429 29.3619 20.7929C29.4119 20.843 29.44 20.9108 29.44 20.9815V22.3682C29.44 22.4389 29.4119 22.5067 29.3619 22.5567C29.3119 22.6067 29.2441 22.6348 29.1733 22.6348H27.7867C27.7159 22.6348 27.6481 22.6067 27.5981 22.5567C27.5481 22.5067 27.52 22.4389 27.52 22.3682V20.978C27.5209 20.9078 27.5494 20.8409 27.5993 20.7917C27.6493 20.7424 27.7166 20.7148 27.7867 20.7148ZM23.9467 20.7148H25.3333C25.4041 20.7148 25.4719 20.7429 25.5219 20.7929C25.5719 20.843 25.6 20.9108 25.6 20.9815V22.3682C25.6 22.4389 25.5719 22.5067 25.5219 22.5567C25.4719 22.6067 25.4041 22.6348 25.3333 22.6348H23.9467C23.8759 22.6348 23.8081 22.6067 23.7581 22.5567C23.7081 22.5067 23.68 22.4389 23.68 22.3682V20.978C23.6809 20.9078 23.7094 20.8409 23.7593 20.7917C23.8093 20.7424 23.8766 20.7148 23.9467 20.7148ZM20.1067 20.7148H21.4933C21.5641 20.7148 21.6319 20.7429 21.6819 20.7929C21.7319 20.843 21.76 20.9108 21.76 20.9815V22.3682C21.76 22.4389 21.7319 22.5067 21.6819 22.5567C21.6319 22.6067 21.5641 22.6348 21.4933 22.6348H20.1067C20.0359 22.6348 19.9681 22.6067 19.9181 22.5567C19.8681 22.5067 19.84 22.4389 19.84 22.3682V20.978C19.8409 20.9078 19.8694 20.8409 19.9193 20.7917C19.9693 20.7424 20.0366 20.7148 20.1067 20.7148Z" fill="#C3F1FF"/>
<path d="M22.336 7.59479C22.3381 6.34662 21.9891 5.12302 21.329 4.06368C20.6689 3.00434 19.7243 2.15196 18.6029 1.60385C17.4815 1.05573 16.2286 0.833974 14.9872 0.963892C13.7458 1.09381 12.566 1.57017 11.5824 2.33858C10.5988 3.10699 9.85106 4.13649 9.42459 5.30954C8.99812 6.4826 8.91009 7.75193 9.17054 8.97262C9.43099 10.1933 10.0294 11.3162 10.8975 12.213C11.7656 13.1099 12.8684 13.7445 14.08 14.0446V21.7228C14.08 21.7935 14.0519 21.8613 14.0019 21.9114C13.9519 21.9614 13.8841 21.9895 13.8133 21.9895H11.1467C11.1117 21.9895 11.077 21.9964 11.0446 22.0098C11.0123 22.0232 10.9829 22.0428 10.9581 22.0676C10.9334 22.0923 10.9137 22.1217 10.9003 22.1541C10.8869 22.1864 10.88 22.2211 10.88 22.2561V24.9228C10.88 24.9935 10.9081 25.0613 10.9581 25.1114C11.0081 25.1614 11.076 25.1895 11.1467 25.1895H13.8133C13.8841 25.1895 13.9519 25.2176 14.0019 25.2676C14.0519 25.3176 14.08 25.3854 14.08 25.4561V27.4828C14.08 27.5535 14.1081 27.6213 14.1581 27.6714C14.2081 27.7214 14.276 27.7495 14.3467 27.7495H17.0133C17.0484 27.7495 17.083 27.7426 17.1154 27.7292C17.1477 27.7158 17.1771 27.6961 17.2019 27.6714C17.2267 27.6466 17.2463 27.6172 17.2597 27.5848C17.2731 27.5525 17.28 27.5178 17.28 27.4828V14.0446C18.7216 13.6879 20.0025 12.8592 20.9187 11.6904C21.835 10.5216 22.3339 9.07989 22.336 7.59479ZM16.1351 11.0526C15.4126 11.1477 14.6783 11.0142 14.0356 10.6706C13.3928 10.3271 12.8738 9.79086 12.5514 9.13722C12.229 8.48358 12.1195 7.74538 12.2382 7.0263C12.3569 6.30722 12.6979 5.64339 13.2133 5.12804C13.7286 4.6127 14.3924 4.27172 15.1115 4.15301C15.8306 4.0343 16.5688 4.14382 17.2224 4.46618C17.8761 4.78855 18.4123 5.30756 18.7559 5.95033C19.0994 6.5931 19.233 7.32733 19.1378 8.0499C19.0372 8.81097 18.6885 9.51766 18.1457 10.0605C17.6029 10.6033 16.8962 10.952 16.1351 11.0526Z" fill="url(#paint1_linear_855_9791)"/>
</g>
<defs>
<linearGradient id="paint0_linear_855_9791" x1="16" y1="30.3147" x2="16" y2="18.2969" gradientUnits="userSpaceOnUse">
<stop stop-color="#0078D4"/>
<stop offset="1" stop-color="#5EA0EF"/>
</linearGradient>
<linearGradient id="paint1_linear_855_9791" x1="15.68" y1="27.7548" x2="15.68" y2="0.938789" gradientUnits="userSpaceOnUse">
<stop stop-color="#FEA11B"/>
<stop offset="0.734" stop-color="#FFD70F"/>
</linearGradient>
<clipPath id="clip0_855_9791">
<rect width="32" height="32" fill="white"/>
</clipPath>
</defs>
</svg>
