<svg width="32" height="32" viewBox="0 0 32 32" fill="none" xmlns="http://www.w3.org/2000/svg">
<path d="M29.1556 15.4662C29.1271 14.0333 28.5889 12.6574 27.6375 11.5854C26.6861 10.5135 25.3839 9.81573 23.9644 9.61731C23.8994 7.61317 23.044 5.71618 21.5851 4.34054C20.1262 2.96491 18.1823 2.22238 16.1778 2.27509C14.5663 2.256 12.9887 2.73856 11.6637 3.65591C10.3386 4.57326 9.33161 5.88 8.78223 7.39509C7.07435 7.62245 5.50319 8.45033 4.35006 9.73049C3.19694 11.0107 2.53717 12.6595 2.48889 14.3818C2.5447 16.3214 3.36793 18.1597 4.77785 19.4929C6.18776 20.8262 8.06913 21.5455 10.0089 21.4929H10.6667H22.8267L23.1111 21.3329C24.6785 21.3159 26.1796 20.6978 27.3044 19.6061C28.4292 18.5143 29.0919 17.0324 29.1556 15.4662Z" fill="url(#paint0_linear_855_9807)"/>
<path d="M23.4845 22.5774H16.3733V13.6885H15.3067V22.5774H8.19557C8.05412 22.5774 7.91846 22.6336 7.81844 22.7336C7.71842 22.8336 7.66223 22.9693 7.66223 23.1107V25.1907C7.66223 25.3321 7.71842 25.4678 7.81844 25.5678C7.91846 25.6678 8.05412 25.724 8.19557 25.724C8.26479 25.7241 8.33332 25.7102 8.39705 25.6832C8.46079 25.6561 8.51844 25.6166 8.56655 25.5668C8.61466 25.517 8.65226 25.4581 8.6771 25.3935C8.70194 25.3288 8.71351 25.2599 8.71112 25.1907V23.6263H15.3067V24.7107H16.3556V23.6263H22.9689V25.564C22.9688 25.7025 23.0226 25.8355 23.1188 25.935C23.215 26.0345 23.3461 26.0928 23.4845 26.0974C23.6245 26.0929 23.7576 26.0353 23.8566 25.9362C23.9557 25.8372 24.0133 25.7041 24.0178 25.564V23.1107C24.0178 22.9693 23.9616 22.8336 23.8616 22.7336C23.7616 22.6336 23.6259 22.5774 23.4845 22.5774Z" fill="#949494"/>
<path d="M25.2978 29.7243H21.6C21.513 29.7267 21.4263 29.7114 21.3454 29.6792C21.2645 29.647 21.191 29.5987 21.1294 29.5371C21.0678 29.4755 21.0195 29.402 20.9873 29.3211C20.9551 29.2402 20.9398 29.1536 20.9422 29.0665V25.2798C20.9422 25.1054 21.0115 24.9381 21.1349 24.8147C21.2582 24.6914 21.4256 24.6221 21.6 24.6221H25.2978C25.4708 24.6266 25.6355 24.6973 25.7579 24.8197C25.8803 24.9421 25.9511 25.1068 25.9556 25.2798V29.0665C25.9556 29.241 25.8863 29.4083 25.7629 29.5316C25.6395 29.655 25.4722 29.7243 25.2978 29.7243ZM18.2933 29.0665V25.2798C18.2888 25.1068 18.2181 24.9421 18.0957 24.8197C17.9733 24.6973 17.8086 24.6266 17.6356 24.6221H13.9378C13.7633 24.6221 13.596 24.6914 13.4727 24.8147C13.3493 24.9381 13.28 25.1054 13.28 25.2798V29.0665C13.2776 29.1536 13.2929 29.2402 13.3251 29.3211C13.3573 29.402 13.4056 29.4755 13.4672 29.5371C13.5288 29.5987 13.6023 29.647 13.6832 29.6792C13.7641 29.7114 13.8507 29.7267 13.9378 29.7243H17.6356C17.81 29.7243 17.9773 29.655 18.1007 29.5316C18.224 29.4083 18.2933 29.241 18.2933 29.0665ZM10.6667 29.0665V25.2798C10.6622 25.1068 10.5914 24.9421 10.469 24.8197C10.3466 24.6973 10.1819 24.6266 10.0089 24.6221H6.25778C6.08475 24.6266 5.92004 24.6973 5.79764 24.8197C5.67525 24.9421 5.6045 25.1068 5.60001 25.2798V29.0665C5.60001 29.1529 5.61702 29.2384 5.65008 29.3182C5.68313 29.398 5.73158 29.4706 5.79266 29.5316C5.85374 29.5927 5.92626 29.6412 6.00606 29.6742C6.08587 29.7073 6.1714 29.7243 6.25778 29.7243H9.97334C10.0627 29.7291 10.152 29.7157 10.236 29.6848C10.3199 29.6539 10.3967 29.6062 10.4616 29.5447C10.5265 29.4831 10.5782 29.4089 10.6134 29.3267C10.6487 29.2445 10.6668 29.156 10.6667 29.0665Z" fill="url(#paint1_linear_855_9807)"/>
<path d="M21.3333 11.7329V10.5062H21.1556L19.84 10.0796L19.5022 9.24401L20.16 7.82179L19.3067 6.96845L19.1289 7.05734L17.7778 7.60846L16.9244 7.27068L16.3911 5.77734H15.2356V5.95512L14.8089 7.27068L13.9733 7.60846L12.4444 6.9329L11.5911 7.80401L11.68 7.96401L12.4444 9.19068L12.0889 10.0262L10.5244 10.6662V11.8751H10.6844L12 12.3018L12.3378 13.1373L11.68 14.5596L12.5333 15.4129H12.7111L13.9378 14.7907L14.7733 15.1285L15.3067 16.604H16.5333V16.444L16.96 15.1285L17.7956 14.7907L19.2178 15.4485L20.0711 14.5951L19.9822 14.4173L19.36 13.1907L19.6978 12.3551L21.3333 11.7329ZM16 13.5107C15.5316 13.5142 15.0727 13.3785 14.6816 13.1209C14.2904 12.8632 13.9846 12.4952 13.8029 12.0635C13.6212 11.6317 13.5718 11.1558 13.6611 10.6959C13.7503 10.2361 13.9741 9.81316 14.304 9.48071C14.634 9.14825 15.0552 8.92129 15.5144 8.82861C15.9735 8.73592 16.4498 8.7817 16.8829 8.96012C17.316 9.13855 17.6863 9.44158 17.9469 9.83079C18.2075 10.22 18.3467 10.6778 18.3467 11.1462C18.3494 11.4651 18.2871 11.7811 18.1637 12.0751C18.0402 12.3691 17.8581 12.6348 17.6285 12.8561C17.399 13.0774 17.1267 13.2495 16.8283 13.3621C16.53 13.4746 16.2119 13.5252 15.8933 13.5107H16Z" fill="white"/>
<defs>
<linearGradient id="paint0_linear_855_9807" x1="15.8222" y1="2.32842" x2="15.8222" y2="21.5284" gradientUnits="userSpaceOnUse">
<stop stop-color="#5EA0EF"/>
<stop offset="0.18" stop-color="#559CEC"/>
<stop offset="0.47" stop-color="#3C91E5"/>
<stop offset="0.84" stop-color="#1380DA"/>
<stop offset="1" stop-color="#0078D4"/>
</linearGradient>
<linearGradient id="paint1_linear_855_9807" x1="15.7867" y1="29.7243" x2="15.7867" y2="24.6221" gradientUnits="userSpaceOnUse">
<stop stop-color="#0078D4"/>
<stop offset="0.16" stop-color="#1380DA"/>
<stop offset="0.53" stop-color="#3C91E5"/>
<stop offset="0.82" stop-color="#559CEC"/>
<stop offset="1" stop-color="#5EA0EF"/>
</linearGradient>
</defs>
</svg>
