<svg width="32" height="32" viewBox="0 0 32 32" fill="none" xmlns="http://www.w3.org/2000/svg">
<path d="M24.8889 1.90217V30.0977C24.8913 30.2299 24.8673 30.3613 24.8183 30.4842C24.7693 30.607 24.6964 30.7189 24.6037 30.8132C24.511 30.9075 24.4004 30.9825 24.2785 31.0336C24.1565 31.0847 24.0256 31.1111 23.8933 31.1111H8.12446C7.99072 31.1135 7.85787 31.0889 7.73384 31.0388C7.6098 30.9888 7.49713 30.9142 7.40255 30.8196C7.30797 30.725 7.23342 30.6124 7.18335 30.4883C7.13328 30.3643 7.10871 30.2315 7.11112 30.0977V1.90217C7.10871 1.76843 7.13328 1.63558 7.18335 1.51155C7.23342 1.38752 7.30797 1.27484 7.40255 1.18026C7.49713 1.08568 7.6098 1.01113 7.73384 0.961059C7.85787 0.910987 7.99072 0.886423 8.12446 0.888834H23.8756C24.0093 0.886423 24.1422 0.910987 24.2662 0.961059C24.3902 1.01113 24.5029 1.08568 24.5975 1.18026C24.6921 1.27484 24.7666 1.38752 24.8167 1.51155C24.8667 1.63558 24.8913 1.76843 24.8889 1.90217Z" fill="url(#paint0_linear_855_9805)"/>
<path d="M9.47553 4.03516H12.4444C12.5104 4.03516 12.5737 4.06138 12.6204 4.10805C12.6671 4.15473 12.6933 4.21804 12.6933 4.28405V8.01738C12.6933 8.08339 12.6671 8.14669 12.6204 8.19337C12.5737 8.24005 12.5104 8.26627 12.4444 8.26627H9.47553C9.40778 8.26642 9.34251 8.24078 9.29298 8.19455C9.24346 8.14832 9.21338 8.08498 9.20886 8.01738V4.28405C9.21338 4.21645 9.24346 4.1531 9.29298 4.10687C9.34251 4.06065 9.40778 4.03501 9.47553 4.03516ZM14.56 4.03516H17.44C17.506 4.03516 17.5693 4.06138 17.616 4.10805C17.6626 4.15473 17.6889 4.21804 17.6889 4.28405V8.01738C17.6889 8.08339 17.6626 8.14669 17.616 8.19337C17.5693 8.24005 17.506 8.26627 17.44 8.26627H14.56C14.5273 8.26627 14.4949 8.25983 14.4647 8.24732C14.4345 8.23481 14.4071 8.21648 14.384 8.19337C14.3609 8.17026 14.3425 8.14282 14.33 8.11262C14.3175 8.08243 14.3111 8.05006 14.3111 8.01738V4.28405C14.3111 4.25136 14.3175 4.219 14.33 4.1888C14.3425 4.1586 14.3609 4.13117 14.384 4.10805C14.4071 4.08494 14.4345 4.06661 14.4647 4.0541C14.4949 4.04159 14.5273 4.03516 14.56 4.03516ZM19.6444 4.03516H22.5244C22.5922 4.03501 22.6574 4.06065 22.707 4.10687C22.7565 4.1531 22.7866 4.21645 22.7911 4.28405V8.01738C22.7866 8.08498 22.7565 8.14832 22.707 8.19455C22.6574 8.24078 22.5922 8.26642 22.5244 8.26627H19.6444C19.5784 8.26627 19.5151 8.24005 19.4684 8.19337C19.4218 8.14669 19.3955 8.08339 19.3955 8.01738V4.28405C19.3955 4.21804 19.4218 4.15473 19.4684 4.10805C19.5151 4.06138 19.5784 4.03516 19.6444 4.03516ZM9.47553 10.8085H12.4444C12.5104 10.8085 12.5737 10.8347 12.6204 10.8814C12.6671 10.9281 12.6933 10.9914 12.6933 11.0574V14.7907C12.6935 14.8585 12.6678 14.9237 12.6216 14.9733C12.5754 15.0228 12.512 15.0529 12.4444 15.0574H9.47553C9.44051 15.0574 9.40583 15.0505 9.37348 15.0371C9.34113 15.0237 9.31173 15.004 9.28697 14.9793C9.26221 14.9545 9.24256 14.9251 9.22916 14.8928C9.21576 14.8604 9.20886 14.8257 9.20886 14.7907V11.0574C9.21338 10.9898 9.24346 10.9264 9.29298 10.8802C9.34251 10.834 9.40778 10.8083 9.47553 10.8085ZM14.56 10.8085H17.44C17.506 10.8085 17.5693 10.8347 17.616 10.8814C17.6626 10.9281 17.6889 10.9914 17.6889 11.0574V14.7907C17.689 14.8585 17.6634 14.9237 17.6171 14.9733C17.5709 15.0228 17.5076 15.0529 17.44 15.0574H14.56C14.4924 15.0529 14.429 15.0228 14.3828 14.9733C14.3366 14.9237 14.3109 14.8585 14.3111 14.7907V11.0574C14.3111 11.0247 14.3175 10.9923 14.33 10.9621C14.3425 10.9319 14.3609 10.9045 14.384 10.8814C14.4071 10.8583 14.4345 10.8399 14.4647 10.8274C14.4949 10.8149 14.5273 10.8085 14.56 10.8085ZM19.6444 10.8085H22.5244C22.5922 10.8083 22.6574 10.834 22.707 10.8802C22.7565 10.9264 22.7866 10.9898 22.7911 11.0574V14.7907C22.7911 14.8614 22.763 14.9293 22.713 14.9793C22.663 15.0293 22.5951 15.0574 22.5244 15.0574H19.6444C19.5768 15.0529 19.5135 15.0228 19.4672 14.9733C19.421 14.9237 19.3954 14.8585 19.3955 14.7907V11.0574C19.3955 10.9914 19.4218 10.9281 19.4684 10.8814C19.5151 10.8347 19.5784 10.8085 19.6444 10.8085ZM9.47553 17.5996H12.4444C12.5104 17.5996 12.5737 17.6258 12.6204 17.6725C12.6671 17.7192 12.6933 17.7825 12.6933 17.8485V21.5818C12.6933 21.6145 12.6869 21.6469 12.6744 21.6771C12.6619 21.7073 12.6435 21.7347 12.6204 21.7578C12.5973 21.7809 12.5699 21.7993 12.5397 21.8118C12.5095 21.8243 12.4771 21.8307 12.4444 21.8307H9.47553C9.40778 21.8309 9.34251 21.8052 9.29298 21.759C9.24346 21.7128 9.21338 21.6494 9.20886 21.5818V17.7774C9.22804 17.7228 9.26441 17.676 9.31251 17.644C9.36061 17.6119 9.41782 17.5963 9.47553 17.5996ZM14.56 17.5996H17.44C17.4736 17.5858 17.5099 17.5795 17.5463 17.5813C17.5826 17.583 17.6182 17.5927 17.6504 17.6096C17.6826 17.6266 17.7107 17.6504 17.7327 17.6794C17.7547 17.7083 17.7701 17.7418 17.7778 17.7774V21.5107C17.7778 21.5767 17.7515 21.64 17.7049 21.6867C17.6582 21.7334 17.5949 21.7596 17.5289 21.7596H14.56C14.5273 21.7596 14.4949 21.7532 14.4647 21.7407C14.4345 21.7281 14.4071 21.7098 14.384 21.6867C14.3609 21.6636 14.3425 21.6362 14.33 21.606C14.3175 21.5758 14.3111 21.5434 14.3111 21.5107V17.7774C14.3269 17.7243 14.3599 17.6779 14.405 17.6457C14.4501 17.6135 14.5046 17.5973 14.56 17.5996ZM14.56 24.3729H17.44C17.506 24.3729 17.5693 24.3992 17.616 24.4458C17.6626 24.4925 17.6889 24.5558 17.6889 24.6218V30.2218C17.6889 30.2878 17.6626 30.3511 17.616 30.3978C17.5693 30.4445 17.506 30.4707 17.44 30.4707H14.56C14.494 30.4707 14.4307 30.4445 14.384 30.3978C14.3373 30.3511 14.3111 30.2878 14.3111 30.2218V24.6218C14.3111 24.5558 14.3373 24.4925 14.384 24.4458C14.4307 24.3992 14.494 24.3729 14.56 24.3729ZM19.6444 17.5996H22.5244C22.5922 17.5994 22.6574 17.6251 22.707 17.6713C22.7565 17.7175 22.7866 17.7809 22.7911 17.8485V21.5818C22.7866 21.6494 22.7565 21.7128 22.707 21.759C22.6574 21.8052 22.5922 21.8309 22.5244 21.8307H19.6444C19.6117 21.8307 19.5794 21.8243 19.5492 21.8118C19.519 21.7993 19.4915 21.7809 19.4684 21.7578C19.4453 21.7347 19.427 21.7073 19.4145 21.6771C19.402 21.6469 19.3955 21.6145 19.3955 21.5818V17.7774C19.4113 17.7243 19.4444 17.6779 19.4894 17.6457C19.5345 17.6135 19.5891 17.5973 19.6444 17.5996Z" fill="#F2F2F2"/>
<defs>
<linearGradient id="paint0_linear_855_9805" x1="16" y1="0.888834" x2="16" y2="31.1111" gradientUnits="userSpaceOnUse">
<stop stop-color="#5EA0EF"/>
<stop offset="0.18" stop-color="#559CEC"/>
<stop offset="0.47" stop-color="#3C91E5"/>
<stop offset="0.84" stop-color="#1380DA"/>
<stop offset="1" stop-color="#0078D4"/>
</linearGradient>
</defs>
</svg>
