<svg width="32" height="32" viewBox="0 0 32 32" fill="none" xmlns="http://www.w3.org/2000/svg">
<g clip-path="url(#clip0_855_9784)">
<path d="M16.0249 26.8762V31.9998H15.8116C15.8116 31.9951 15.8097 31.9906 15.8064 31.9872C15.803 31.9839 15.7985 31.982 15.7938 31.982C15.7281 31.9849 15.6623 31.979 15.5982 31.9642C15.5271 31.9465 15.456 31.9109 15.3849 31.8931H15.3671C11.7227 29.8309 7.75823 27.4842 4.13156 25.422C3.86489 25.2442 3.18934 24.9776 3.24267 24.622L3.27823 19.502C3.2867 19.6049 3.32248 19.7036 3.38186 19.7879C3.44124 19.8723 3.52207 19.9393 3.616 19.982L15.2427 26.6842C15.2961 26.7243 15.3563 26.7544 15.4204 26.7731C15.6142 26.8432 15.8189 26.8781 16.0249 26.8762ZM15.8293 20.814C15.6888 20.7975 15.5512 20.7616 15.4204 20.7074C15.36 20.6867 15.3007 20.663 15.2427 20.6362L3.616 13.9162C3.52068 13.8755 3.4386 13.809 3.37894 13.7242C3.31928 13.6394 3.28441 13.5397 3.27823 13.4362L3.24267 18.5562C3.18934 18.9118 3.86489 19.1785 4.13156 19.3562C7.75823 21.4362 11.7227 23.7829 15.3671 25.8274H15.3849L15.5627 25.8807C15.5719 25.8908 15.5846 25.8972 15.5982 25.8985C15.6693 25.9162 15.7227 25.9162 15.7938 25.934H16.0249V20.814H15.8293ZM15.4204 14.6629C15.1182 14.5385 3.90045 7.99625 3.616 7.85402C3.52068 7.81327 3.4386 7.74678 3.37894 7.662C3.31928 7.57722 3.28441 7.4775 3.27823 7.37402L3.24267 12.494C3.18934 12.8496 3.86489 13.134 4.13156 13.294C7.75823 15.374 11.7227 17.7207 15.3671 19.7651H15.3849C15.4531 19.7968 15.5247 19.8206 15.5982 19.8362C15.6693 19.854 15.7227 19.854 15.7938 19.8718H15.8116C15.8649 19.8718 15.9182 19.8896 15.9716 19.8896H16.0249V14.7696C15.8195 14.7616 15.6162 14.7257 15.4204 14.6629Z" fill="#0078D4"/>
<path d="M23.8826 7.76594L16.1315 12.2282C16.04 12.272 15.9397 12.2948 15.8382 12.2948C15.7367 12.2948 15.6364 12.272 15.5449 12.2282L8.14931 8.01483C8.06033 7.96351 7.98644 7.88967 7.93506 7.80073C7.88368 7.71178 7.85663 7.61088 7.85663 7.50816C7.85663 7.40545 7.88368 7.30454 7.93506 7.2156C7.98644 7.12666 8.06033 7.05281 8.14931 7.0015L15.9004 2.53927C15.992 2.49542 16.0922 2.47266 16.1938 2.47266C16.2953 2.47266 16.3955 2.49542 16.4871 2.53927L23.8826 6.75261C23.9735 6.8024 24.0493 6.8757 24.1021 6.96484C24.1549 7.05398 24.1827 7.15568 24.1827 7.25927C24.1827 7.36287 24.1549 7.46457 24.1021 7.55371C24.0493 7.64284 23.9735 7.71615 23.8826 7.76594Z" fill="#003067"/>
<path d="M28.736 7.49862V7.5164L28.6827 7.62306C28.6229 7.72181 28.5367 7.80187 28.4338 7.85418L16.8782 14.5777C16.6989 14.666 16.507 14.726 16.3093 14.7555C16.2332 14.7703 16.1557 14.7762 16.0782 14.7733H16.0249V19.8933C16.0965 19.8962 16.1681 19.8902 16.2382 19.8755C16.3719 19.8629 16.5034 19.833 16.6293 19.7866C16.7045 19.7679 16.7764 19.7379 16.8427 19.6977L25.2871 14.7911L26.0516 14.3466L28.3982 12.9777C28.4488 12.9465 28.4964 12.9108 28.5405 12.8711C28.576 12.8533 28.5938 12.8177 28.6293 12.7822V12.7644H28.6471V12.7466C28.6827 12.7288 28.6827 12.6933 28.7005 12.6577V12.64L28.7182 12.6222C28.7182 12.5866 28.736 12.5511 28.736 12.5155L28.7716 7.39551C28.7674 7.43206 28.7552 7.46725 28.736 7.49862ZM28.736 13.5608V13.5786L28.6827 13.6853C28.6178 13.7798 28.5328 13.8587 28.4338 13.9164L28.3449 13.9697L28.0782 14.112L27.8649 14.2364L26.5138 15.0186L24.1493 16.4053L23.0827 17.0275L22.5493 17.3475L21.4827 17.9697L19.936 18.8586L18.176 19.872L16.8782 20.6186C16.7033 20.7205 16.51 20.7869 16.3093 20.8142H16.0782C16.0751 20.8182 16.071 20.8215 16.0664 20.8238C16.0618 20.826 16.0567 20.8272 16.0516 20.8272C16.0464 20.8272 16.0413 20.826 16.0367 20.8238C16.0321 20.8215 16.0281 20.8182 16.0249 20.8142V25.9342H16.2382C16.3719 25.9216 16.5034 25.8917 16.6293 25.8453C16.7069 25.8244 16.7794 25.7881 16.8427 25.7386L18.656 24.6897L19.5271 24.192L21.5538 23.0186L22.6205 22.3964L23.1716 22.0764L24.2382 21.4542L28.3982 19.0364C28.4488 19.0052 28.4964 18.9695 28.5405 18.9297C28.576 18.912 28.5938 18.8764 28.6293 18.8408V18.8231H28.6471V18.8053C28.6827 18.7697 28.6827 18.7342 28.7005 18.6986C28.7005 18.6963 28.7009 18.694 28.7018 18.6918C28.7027 18.6897 28.704 18.6877 28.7057 18.686C28.7073 18.6844 28.7093 18.6831 28.7114 18.6822C28.7136 18.6813 28.7159 18.6808 28.7182 18.6808C28.7182 18.6453 28.736 18.6097 28.736 18.5564L28.7716 13.4542C28.7707 13.4925 28.7583 13.5297 28.736 13.5608ZM28.736 19.6231V19.6408L28.6827 19.7475C28.613 19.8377 28.5289 19.9158 28.4338 19.9786L16.8782 26.6808C16.7056 26.7848 16.5105 26.8458 16.3093 26.8586C16.2332 26.8734 16.1557 26.8793 16.0782 26.8764H16.0249V32H16.2382C16.3719 31.9874 16.5034 31.9575 16.6293 31.9111C17.1627 31.6977 27.936 25.3333 28.3982 25.0844C28.4481 25.0588 28.4956 25.0291 28.5405 24.9955L28.6293 24.9066V24.8888H28.6471V24.8711C28.6827 24.8355 28.6827 24.8 28.7005 24.7644C28.7182 24.7288 28.7005 24.7466 28.7182 24.7466C28.7182 24.7111 28.736 24.6577 28.736 24.6222L28.7716 19.5022C28.7699 19.5448 28.7577 19.5863 28.736 19.6231Z" fill="#005BA1"/>
<path d="M28.4338 19.9789L16.8782 26.6811C16.6225 26.8126 16.3391 26.8812 16.0516 26.8812C15.764 26.8812 15.4806 26.8126 15.2249 26.6811L3.61601 19.9789C3.15379 19.7122 3.15379 19.3034 3.59823 19.0367C7.40801 21.2518 11.5307 23.6589 15.3671 25.8278C15.4334 25.8414 15.4987 25.8592 15.5627 25.8811C15.9914 26.0043 16.4514 25.9531 16.8427 25.7389C16.8782 25.7211 28.3982 19.0456 28.416 19.0189C28.5163 19.0518 28.6038 19.1151 28.6665 19.2C28.7292 19.2848 28.7639 19.3871 28.7658 19.4926C28.7678 19.5981 28.7369 19.7016 28.6774 19.7887C28.6179 19.8759 28.5328 19.9423 28.4338 19.9789ZM28.416 12.9567C28.416 12.9614 28.4141 12.9659 28.4108 12.9693C28.4075 12.9726 28.4029 12.9745 28.3982 12.9745C28.3982 12.9745 16.8605 19.6767 16.8427 19.6945C16.6181 19.8073 16.3724 19.8719 16.1213 19.8842C15.8703 19.8964 15.6194 19.856 15.3849 19.7656H15.3671C11.5307 17.6002 7.40623 15.1949 3.59823 12.978C3.15379 13.2447 3.15379 13.6536 3.61601 13.9202L15.2249 20.6225C15.4806 20.7539 15.764 20.8225 16.0516 20.8225C16.3391 20.8225 16.6225 20.7539 16.8782 20.6225L28.4338 13.9202C28.534 13.8844 28.6205 13.818 28.681 13.7305C28.7415 13.6429 28.773 13.5385 28.771 13.4321C28.7691 13.3256 28.7337 13.2225 28.6701 13.1372C28.6064 13.0519 28.5175 12.9888 28.416 12.9567ZM28.4338 7.85447L16.8782 14.578C16.62 14.7009 16.3376 14.7647 16.0516 14.7647C15.7656 14.7647 15.4832 14.7009 15.2249 14.578L3.61601 7.85802C3.51595 7.8263 3.42859 7.76353 3.36658 7.67883C3.30458 7.59413 3.27115 7.49188 3.27115 7.38691C3.27115 7.28194 3.30458 7.17969 3.36658 7.09499C3.42859 7.01028 3.51595 6.94752 3.61601 6.9158L15.1538 0.192243C15.4095 0.0607701 15.6929 -0.0078125 15.9805 -0.0078125C16.268 -0.0078125 16.5514 0.0607701 16.8071 0.192243L28.416 6.91224C28.8782 7.17891 28.8782 7.60558 28.4338 7.85447ZM23.8827 6.75224L16.4871 2.53891C16.3956 2.49506 16.2953 2.47229 16.1938 2.47229C16.0923 2.47229 15.992 2.49506 15.9005 2.53891L8.14934 7.00113C8.06037 7.05245 7.98647 7.12629 7.93509 7.21523C7.88371 7.30418 7.85666 7.40508 7.85666 7.5078C7.85666 7.61051 7.88371 7.71142 7.93509 7.80036C7.98647 7.8893 8.06037 7.96315 8.14934 8.01446L15.5449 12.2278C15.6365 12.2717 15.7367 12.2944 15.8382 12.2944C15.9398 12.2944 16.04 12.2717 16.1316 12.2278L23.8827 7.76558C23.9727 7.71551 24.0476 7.6423 24.0998 7.55353C24.152 7.46477 24.1795 7.36366 24.1795 7.26069C24.1795 7.15771 24.152 7.05661 24.0998 6.96784C24.0476 6.87907 23.9727 6.80587 23.8827 6.7558V6.75224ZM27.6942 24.4625L27.6782 22.1158C27.678 22.103 27.6744 22.0905 27.6679 22.0795C27.6614 22.0685 27.6521 22.0593 27.6411 22.0529C27.63 22.0464 27.6175 22.043 27.6047 22.0428C27.5919 22.0426 27.5793 22.0457 27.568 22.0518L21.8098 25.3887C21.7985 25.3952 21.7892 25.4045 21.7826 25.4157C21.7761 25.427 21.7726 25.4397 21.7725 25.4527L21.7902 27.7994C21.7905 27.8119 21.794 27.8243 21.8004 27.8351C21.8068 27.8459 21.8159 27.8549 21.8268 27.8612C21.8378 27.8674 21.8501 27.8708 21.8627 27.8708C21.8753 27.8709 21.8877 27.8677 21.8987 27.8616L27.6587 24.5247C27.6697 24.5185 27.6789 24.5095 27.6851 24.4985C27.6914 24.4876 27.6945 24.4751 27.6942 24.4625ZM27.6587 18.4678L21.8987 21.8029C21.8878 21.8096 21.8753 21.8133 21.8625 21.8135C21.8497 21.8137 21.837 21.8105 21.8259 21.8041C21.8148 21.7977 21.8056 21.7885 21.7994 21.7773C21.7931 21.7661 21.7899 21.7535 21.7902 21.7407L21.7725 19.394C21.7727 19.3811 21.7763 19.3684 21.7829 19.3572C21.7894 19.346 21.7987 19.3366 21.8098 19.33L27.568 16.0002C27.579 15.9937 27.5916 15.9901 27.6045 15.99C27.6173 15.9898 27.63 15.9931 27.6412 15.9994C27.6524 16.0057 27.6617 16.0149 27.6682 16.0259C27.6747 16.037 27.6782 16.0496 27.6782 16.0625L27.6942 18.4091C27.6936 18.4211 27.69 18.4327 27.6838 18.4429C27.6776 18.4531 27.669 18.4617 27.6587 18.4678ZM27.6587 12.4091L21.8987 15.746C21.8876 15.7522 21.875 15.7554 21.8623 15.7553C21.8495 15.7551 21.837 15.7516 21.8261 15.7452C21.8151 15.7387 21.806 15.7295 21.7997 15.7184C21.7934 15.7073 21.7902 15.6948 21.7902 15.682L21.7725 13.3336C21.7724 13.3205 21.7758 13.3077 21.7824 13.2965C21.7889 13.2852 21.7984 13.2759 21.8098 13.2696L27.568 9.93269C27.579 9.9261 27.5916 9.92256 27.6045 9.92241C27.6173 9.92225 27.63 9.9255 27.6412 9.93182C27.6524 9.93813 27.6617 9.94729 27.6682 9.95837C27.6747 9.96946 27.6782 9.98206 27.6782 9.99491L27.6942 12.3416C27.6953 12.3551 27.6926 12.3686 27.6863 12.3805C27.68 12.3925 27.6704 12.4024 27.6587 12.4091Z" fill="#5EA0EF"/>
<path d="M13.8471 27.3264C13.9804 27.4121 14.0913 27.5285 14.1705 27.6658C14.2496 27.8031 14.2948 27.9574 14.3022 28.1157V29.417C14.3022 29.7086 14.0978 29.8313 13.8436 29.6837L12.7111 29.0295C12.577 28.9425 12.4653 28.8249 12.3853 28.6865C12.3053 28.5481 12.2591 28.3927 12.2507 28.233V26.9317C12.2507 26.6384 12.4604 26.5264 12.7147 26.6721L13.8471 27.3264ZM12.7147 20.6224C12.4604 20.4766 12.2507 20.5904 12.2507 20.8819V22.1833C12.2593 22.3431 12.3055 22.4987 12.3855 22.6374C12.4655 22.7761 12.577 22.894 12.7111 22.9815L13.8436 23.6339C14.0978 23.7815 14.3022 23.6606 14.3022 23.3673V22.0659C14.2945 21.9077 14.2492 21.7535 14.1701 21.6163C14.0909 21.479 13.9802 21.3626 13.8471 21.2766L12.7147 20.6224ZM12.7147 14.5655C12.4604 14.4179 12.2507 14.5317 12.2507 14.8233V16.1246C12.2593 16.2845 12.3055 16.4401 12.3855 16.5787C12.4655 16.7174 12.577 16.8353 12.7111 16.9228L13.8436 17.577C14.0978 17.7228 14.3022 17.6019 14.3022 17.3104V16.009C14.2948 15.8505 14.2496 15.696 14.1705 15.5584C14.0913 15.4208 13.9805 15.3041 13.8471 15.2179L12.7147 14.5655Z" fill="#50E6FF"/>
</g>
<defs>
<clipPath id="clip0_855_9784">
<rect width="32" height="32" fill="white"/>
</clipPath>
</defs>
</svg>
