<svg width="32" height="32" viewBox="0 0 32 32" fill="none" xmlns="http://www.w3.org/2000/svg">
<path d="M14.4356 16.3203H11.4311C11.1955 16.3203 11.0045 16.5113 11.0045 16.747V28.907C11.0045 29.1426 11.1955 29.3336 11.4311 29.3336H14.4356C14.6712 29.3336 14.8622 29.1426 14.8622 28.907V16.747C14.8622 16.5113 14.6712 16.3203 14.4356 16.3203Z" fill="#0078D4"/>
<path d="M20.5689 20.2314H17.5644C17.3288 20.2314 17.1378 20.4225 17.1378 20.6581V28.907C17.1378 29.1426 17.3288 29.3337 17.5644 29.3337H20.5689C20.8045 29.3337 20.9955 29.1426 20.9955 28.907V20.6581C20.9955 20.4225 20.8045 20.2314 20.5689 20.2314Z" fill="#0078D4"/>
<path d="M26.7022 12.5332H23.6978C23.4621 12.5332 23.2711 12.7242 23.2711 12.9599V28.9065C23.2711 29.1422 23.4621 29.3332 23.6978 29.3332H26.7022C26.9379 29.3332 27.1289 29.1422 27.1289 28.9065V12.9599C27.1289 12.7242 26.9379 12.5332 26.7022 12.5332Z" fill="#0078D4"/>
<path d="M8.30221 20.2314H5.29776C5.06212 20.2314 4.87109 20.4225 4.87109 20.6581V28.907C4.87109 29.1426 5.06212 29.3337 5.29776 29.3337H8.30221C8.53785 29.3337 8.72887 29.1426 8.72887 28.907V20.6581C8.72887 20.4225 8.53785 20.2314 8.30221 20.2314Z" fill="#0078D4"/>
<path d="M26.6666 9.9203L24.8889 8.03586L24 7.14697L17.7778 13.387C17.7511 13.4172 17.7182 13.4415 17.6815 13.4581C17.6447 13.4747 17.6048 13.4833 17.5644 13.4833C17.5241 13.4833 17.4842 13.4747 17.4474 13.4581C17.4106 13.4415 17.3778 13.4172 17.3511 13.387L13.5822 9.68919L6.47109 16.8003C6.44439 16.8306 6.41156 16.8548 6.37478 16.8714C6.338 16.888 6.29811 16.8966 6.25775 16.8966C6.2174 16.8966 6.1775 16.888 6.14072 16.8714C6.10394 16.8548 6.07111 16.8306 6.04442 16.8003L5.1022 16.0003C5.04462 15.9407 5.01245 15.861 5.01245 15.7781C5.01245 15.6952 5.04462 15.6155 5.1022 15.5559L13.3689 7.30697C13.3956 7.2767 13.4284 7.25246 13.4652 7.23586C13.5019 7.21926 13.5418 7.21067 13.5822 7.21067C13.6226 7.21067 13.6624 7.21926 13.6992 7.23586C13.736 7.25246 13.7688 7.2767 13.7955 7.30697L17.4933 10.987L22.6311 5.84919L21.7422 4.9603L19.8755 3.18253C19.8409 3.14879 19.8169 3.10572 19.8064 3.05856C19.7959 3.01141 19.7993 2.96221 19.8163 2.91698C19.8332 2.87174 19.863 2.83242 19.9019 2.80381C19.9409 2.7752 19.9873 2.75854 20.0355 2.75586H26.88C26.946 2.75586 27.0093 2.78208 27.056 2.82876C27.1026 2.87543 27.1289 2.93874 27.1289 3.00475V9.74253C27.1451 9.80201 27.1386 9.8654 27.1108 9.9204C27.0829 9.97541 27.0356 10.0181 26.9781 10.0402C26.9205 10.0624 26.8568 10.0624 26.7993 10.0402C26.7417 10.018 26.6945 9.97532 26.6666 9.9203Z" fill="url(#paint0_linear_855_9781)"/>
<defs>
<linearGradient id="paint0_linear_855_9781" x1="16.0711" y1="16.9603" x2="16.0711" y2="2.66697" gradientUnits="userSpaceOnUse">
<stop stop-color="#5E9624"/>
<stop offset="0.26" stop-color="#70A828"/>
<stop offset="0.79" stop-color="#9FD732"/>
<stop offset="1" stop-color="#B4EC36"/>
</linearGradient>
</defs>
</svg>
