<svg width="32" height="32" viewBox="0 0 32 32" fill="none" xmlns="http://www.w3.org/2000/svg">
<path d="M26.9155 8.35547H25.1378V31.1288L26.9155 27.6977V8.35547Z" fill="#50E6FF"/>
<path d="M26.9155 27.6807L25.1378 31.1118L26.9155 29.6896L29.1022 27.9118L26.9155 27.6807Z" fill="#9CEBFF"/>
<path d="M15.2355 4.96023C15.2493 4.59361 15.3352 4.23329 15.4883 3.8999C15.6414 3.5665 15.8588 3.26656 16.1279 3.01723C16.397 2.76791 16.7127 2.57409 17.0568 2.44686C17.4009 2.31964 17.7667 2.2615 18.1333 2.27578C18.8707 2.25176 19.5876 2.52066 20.1273 3.0237C20.667 3.52674 20.9855 4.22298 21.0133 4.96023V8.35578H22.4178V4.96023C22.4178 3.82392 21.9664 2.73415 21.1629 1.93067C20.3594 1.12718 19.2696 0.675781 18.1333 0.675781C16.997 0.675781 15.9073 1.12718 15.1038 1.93067C14.3003 2.73415 13.8489 3.82392 13.8489 4.96023V8.35578H15.2355V4.96023Z" fill="#A3A3A3"/>
<path d="M10.9866 4.95998C11.0144 4.22273 11.333 3.52649 11.8727 3.02345C12.4124 2.52042 13.1293 2.25151 13.8666 2.27553C14.2332 2.26125 14.5991 2.31939 14.9432 2.44662C15.2873 2.57384 15.6029 2.76766 15.8721 3.01699C16.1412 3.26631 16.3586 3.56625 16.5117 3.89965C16.6648 4.23304 16.7507 4.59336 16.7644 4.95998V8.35553H18.1511V4.95998C18.1231 3.85028 17.6565 2.79689 16.8535 2.03051C16.0505 1.26413 14.9764 0.847218 13.8666 0.871089C13.318 0.859291 12.7724 0.955707 12.261 1.15483C11.7496 1.35395 11.2824 1.65188 10.8862 2.03159C10.49 2.41131 10.1725 2.86536 9.95176 3.36783C9.73106 3.87029 9.61153 4.41131 9.59998 4.95998V8.35553H10.9866V4.95998Z" fill="#767676"/>
<path d="M25.0667 8.35547V31.1288L2.89777 29.3688L3.55554 8.35547H25.0667Z" fill="#32BEDD"/>
<path d="M26.9155 8.35547V27.6977L29.1022 28.0177L28.4444 8.35547H26.9155Z" fill="#32BEDD"/>
<path d="M18.5067 11.5911H10.6667C10.5299 11.5911 10.3988 11.6454 10.3021 11.7421C10.2054 11.8388 10.1511 11.97 10.1511 12.1067V26.3289C10.1511 26.4656 10.2054 26.5968 10.3021 26.6935C10.3988 26.7901 10.5299 26.8445 10.6667 26.8445L18.5956 27.0934C18.6625 27.0934 18.7287 27.08 18.7903 27.0538C18.8518 27.0277 18.9075 26.9895 18.954 26.9413C19.0004 26.8932 19.0367 26.8362 19.0607 26.7738C19.0846 26.7113 19.0957 26.6446 19.0933 26.5778V12.1067C19.0973 12.0316 19.0841 11.9567 19.0549 11.8875C19.0258 11.8182 18.9813 11.7565 18.9248 11.7069C18.8684 11.6573 18.8014 11.6211 18.729 11.601C18.6566 11.581 18.5806 11.5776 18.5067 11.5911ZM12.8356 21.7778C12.8312 21.8124 12.8143 21.8441 12.7881 21.8671C12.7619 21.89 12.7282 21.9025 12.6933 21.9022H11.2356C11.2039 21.8985 11.1744 21.8842 11.1518 21.8616C11.1292 21.839 11.1149 21.8095 11.1111 21.7778V19.8934C11.1149 19.8617 11.1292 19.8321 11.1518 19.8096C11.1744 19.787 11.2039 19.7727 11.2356 19.7689H12.6933C12.7282 19.7686 12.7619 19.7812 12.7881 19.8041C12.8143 19.827 12.8312 19.8588 12.8356 19.8934V21.7778ZM12.8356 18.3645C12.8312 18.399 12.8143 18.4308 12.7881 18.4537C12.7619 18.4767 12.7282 18.4892 12.6933 18.4889H11.2356C11.2039 18.4851 11.1744 18.4708 11.1518 18.4482C11.1292 18.4257 11.1149 18.3962 11.1111 18.3645V16.48C11.1149 16.4483 11.1292 16.4188 11.1518 16.3962C11.1744 16.3737 11.2039 16.3593 11.2356 16.3556H12.6933C12.7282 16.3553 12.7619 16.3678 12.7881 16.3908C12.8143 16.4137 12.8312 16.4455 12.8356 16.48V18.3645ZM12.8356 14.9334C12.8317 14.9698 12.8155 15.0037 12.7896 15.0296C12.7637 15.0555 12.7297 15.0717 12.6933 15.0756H11.2356C11.2024 15.0682 11.1725 15.0504 11.1501 15.0248C11.1277 14.9992 11.1141 14.9672 11.1111 14.9334V13.0489C11.1149 13.0172 11.1292 12.9877 11.1518 12.9651C11.1744 12.9426 11.2039 12.9282 11.2356 12.9245H12.6933C12.7282 12.9242 12.7619 12.9367 12.7881 12.9597C12.8143 12.9826 12.8312 13.0143 12.8356 13.0489V14.9334ZM15.36 26.1689C15.36 26.2019 15.3469 26.2336 15.3236 26.2569C15.3002 26.2802 15.2686 26.2934 15.2356 26.2934H13.8133C13.7803 26.2934 13.7487 26.2802 13.7253 26.2569C13.702 26.2336 13.6889 26.2019 13.6889 26.1689V23.3245C13.6889 23.3081 13.6921 23.2919 13.6984 23.2768C13.7046 23.2617 13.7138 23.248 13.7253 23.2365C13.7369 23.2249 13.7506 23.2157 13.7657 23.2095C13.7808 23.2032 13.797 23.2 13.8133 23.2H15.2711C15.2875 23.2 15.3036 23.2032 15.3187 23.2095C15.3338 23.2157 15.3476 23.2249 15.3591 23.2365C15.3707 23.248 15.3798 23.2617 15.3861 23.2768C15.3923 23.2919 15.3956 23.3081 15.3956 23.3245L15.36 26.1689ZM15.36 21.7778C15.36 21.8108 15.3469 21.8425 15.3236 21.8658C15.3002 21.8891 15.2686 21.9022 15.2356 21.9022H13.8133C13.7803 21.9022 13.7487 21.8891 13.7253 21.8658C13.702 21.8425 13.6889 21.8108 13.6889 21.7778V19.8934C13.6889 19.8603 13.702 19.8287 13.7253 19.8054C13.7487 19.782 13.7803 19.7689 13.8133 19.7689H15.2711C15.3041 19.7689 15.3358 19.782 15.3591 19.8054C15.3825 19.8287 15.3956 19.8603 15.3956 19.8934L15.36 21.7778ZM15.36 18.3645C15.36 18.3975 15.3469 18.4291 15.3236 18.4525C15.3002 18.4758 15.2686 18.4889 15.2356 18.4889H13.8133C13.7803 18.4889 13.7487 18.4758 13.7253 18.4525C13.702 18.4291 13.6889 18.3975 13.6889 18.3645V16.48C13.6889 16.447 13.702 16.4154 13.7253 16.392C13.7487 16.3687 13.7803 16.3556 13.8133 16.3556H15.2711C15.3041 16.3556 15.3358 16.3687 15.3591 16.392C15.3825 16.4154 15.3956 16.447 15.3956 16.48L15.36 18.3645ZM15.36 14.9334C15.3603 14.9682 15.3478 15.0019 15.3248 15.0281C15.3019 15.0543 15.2701 15.0712 15.2356 15.0756H13.8133C13.7788 15.0712 13.747 15.0543 13.7241 15.0281C13.7011 15.0019 13.6886 14.9682 13.6889 14.9334V13.0489C13.6889 13.0159 13.702 12.9843 13.7253 12.9609C13.7487 12.9376 13.7803 12.9245 13.8133 12.9245H15.2711C15.3041 12.9245 15.3358 12.9376 15.3591 12.9609C15.3825 12.9843 15.3956 13.0159 15.3956 13.0489L15.36 14.9334ZM17.92 21.7778C17.92 21.8108 17.9069 21.8425 17.8836 21.8658C17.8602 21.8891 17.8286 21.9022 17.7956 21.9022H16.3733C16.3403 21.9022 16.3087 21.8891 16.2853 21.8658C16.262 21.8425 16.2489 21.8108 16.2489 21.7778V19.8934C16.2489 19.8603 16.262 19.8287 16.2853 19.8054C16.3087 19.782 16.3403 19.7689 16.3733 19.7689H17.7778C17.8108 19.7689 17.8424 19.782 17.8658 19.8054C17.8891 19.8287 17.9022 19.8603 17.9022 19.8934L17.92 21.7778ZM17.92 18.3645C17.92 18.3975 17.9069 18.4291 17.8836 18.4525C17.8602 18.4758 17.8286 18.4889 17.7956 18.4889H16.3733C16.3403 18.4889 16.3087 18.4758 16.2853 18.4525C16.262 18.4291 16.2489 18.3975 16.2489 18.3645V16.48C16.2489 16.447 16.262 16.4154 16.2853 16.392C16.3087 16.3687 16.3403 16.3556 16.3733 16.3556H17.7778C17.8108 16.3556 17.8424 16.3687 17.8658 16.392C17.8891 16.4154 17.9022 16.447 17.9022 16.48L17.92 18.3645ZM17.92 14.9334C17.9203 14.9682 17.9078 15.0019 17.8848 15.0281C17.8619 15.0543 17.8301 15.0712 17.7956 15.0756H16.3733C16.3388 15.0712 16.307 15.0543 16.2841 15.0281C16.2611 15.0019 16.2486 14.9682 16.2489 14.9334V13.0489C16.2489 13.0159 16.262 12.9843 16.2853 12.9609C16.3087 12.9376 16.3403 12.9245 16.3733 12.9245H17.7778C17.8108 12.9245 17.8424 12.9376 17.8658 12.9609C17.8891 12.9843 17.9022 13.0159 17.9022 13.0489L17.92 14.9334Z" fill="url(#paint0_linear_855_9800)"/>
<defs>
<linearGradient id="paint0_linear_855_9800" x1="14.5422" y1="11.5911" x2="14.5422" y2="27.0934" gradientUnits="userSpaceOnUse">
<stop stop-color="white"/>
<stop offset="0.48" stop-color="#F6F6F6"/>
<stop offset="1" stop-color="#E6E6E6"/>
</linearGradient>
</defs>
</svg>
