<svg width="32" height="32" viewBox="0 0 32 32" fill="none" xmlns="http://www.w3.org/2000/svg">
<g clip-path="url(#clip0_855_9806)">
<path d="M31.9858 22.7025C31.7991 23.9025 30.0604 24.5816 29.072 24.9425C26.0498 26.0429 3.98933 25.7052 1.45422 24.242C1.38133 24.2012 1.31556 24.1585 1.24444 24.1158L1.13067 24.0447C1.02933 23.9772 0.935111 23.9096 0.846222 23.8403C0.61086 23.6974 0.411911 23.5017 0.26506 23.2688C0.118209 23.0359 0.0274713 22.772 0 22.498L0 26.8323C0 28.7754 3.76533 29.5612 5.15556 29.9203C7.48871 30.4766 9.87013 30.8065 12.2667 30.9052C17.1135 31.2749 21.9883 30.9583 26.7467 29.9647C28.3271 29.6092 31.3582 28.9425 31.9502 27.1789C31.9665 27.1207 31.9784 27.0612 31.9858 27.0012C31.9858 26.9674 31.9858 26.9354 31.9858 26.866V22.5318C31.9888 22.5887 31.9888 22.6456 31.9858 22.7025Z" fill="#5E9624"/>
<path d="M31.9965 22.5342C31.9991 20.219 24.8409 18.3342 16.0083 18.3243C7.17569 18.3144 0.0133416 20.1833 0.0107555 22.4984C0.00816943 24.8136 7.16633 26.6984 15.999 26.7083C24.8316 26.7182 31.9939 24.8493 31.9965 22.5342Z" fill="#76BC2D"/>
<path d="M20.4444 25.4365C13.1787 25.9699 5.30133 25.1023 2.84444 23.481C0.38755 21.8597 4.29155 20.1245 11.5555 19.5859C18.8195 19.0472 26.6951 19.9201 29.1555 21.5414C31.616 23.1628 27.7049 24.8979 20.4444 25.4365Z" fill="#F2F2F2"/>
<path d="M32 16.5336C31.9489 14.8289 31.2932 13.198 30.15 11.9323C29.0068 10.6667 27.4507 9.84891 25.76 9.6252C25.655 7.245 24.6174 5.00176 22.8715 3.38059C21.1255 1.75943 18.8117 0.890637 16.4302 0.962091C14.5034 0.925319 12.6129 1.48851 11.0203 2.57368C9.42777 3.65885 8.212 5.21231 7.54133 7.01898C5.50211 7.26561 3.61918 8.23611 2.23515 9.75391C0.851124 11.2717 0.0579683 13.2359 0 15.2892C0.0925661 17.59 1.09231 19.7605 2.78065 21.3262C4.46899 22.892 6.70858 23.7256 9.00978 23.6448C9.27822 23.6448 9.54311 23.6323 9.80267 23.6092H24.3893C24.5199 23.6072 24.6496 23.5881 24.7751 23.5523C26.6524 23.5411 28.4527 22.8043 29.7993 21.4962C31.1458 20.188 31.9344 18.4099 32 16.5336Z" fill="url(#paint0_linear_855_9806)"/>
</g>
<defs>
<linearGradient id="paint0_linear_855_9806" x1="16.0018" y1="23.6412" x2="16.0018" y2="0.958535" gradientUnits="userSpaceOnUse">
<stop stop-color="#0078D4"/>
<stop offset="0.156" stop-color="#1380DA"/>
<stop offset="0.528" stop-color="#3C91E5"/>
<stop offset="0.822" stop-color="#559CEC"/>
<stop offset="1" stop-color="#5EA0EF"/>
</linearGradient>
<clipPath id="clip0_855_9806">
<rect width="32" height="32" fill="white"/>
</clipPath>
</defs>
</svg>
