<svg width="32" height="32" viewBox="0 0 32 32" fill="none" xmlns="http://www.w3.org/2000/svg">
<g clip-path="url(#clip0_855_9796)">
<path d="M30.9458 0.0976578H14.4569C14.1761 0.0976386 13.9067 0.208309 13.707 0.405665C13.5073 0.60302 13.3935 0.871144 13.3902 1.15188V24.7412H13.7085C13.9445 24.1916 14.334 23.7217 14.8303 23.3878C15.3266 23.0539 15.9086 22.8701 16.5067 22.8585H16.5298C16.9944 22.8635 17.4519 22.973 17.8684 23.179C18.2848 23.385 18.6495 23.6822 18.9354 24.0484C19.2213 24.4147 19.421 24.8407 19.5197 25.2947C19.6184 25.7487 19.6135 26.2191 19.5055 26.671C19.3974 27.1229 19.189 27.5447 18.8956 27.9049C18.6022 28.2652 18.2314 28.5548 17.8108 28.7521C17.3902 28.9495 16.9305 29.0495 16.4659 29.0449C16.0013 29.0402 15.5437 28.931 15.1271 28.7252C14.5394 28.4409 14.0579 27.9762 13.7529 27.399H13.3973V28.7092C13.4006 28.99 13.5144 29.2581 13.7141 29.4554C13.9138 29.6528 14.1833 29.7635 14.464 29.7634H30.9529C31.2305 29.762 31.4963 29.651 31.6924 29.4546C31.8885 29.2581 31.9991 28.9921 32 28.7145V1.15188C32.0002 1.01337 31.9731 0.87618 31.9202 0.74817C31.8673 0.62016 31.7897 0.50385 31.6918 0.40591C31.5938 0.30797 31.4775 0.230325 31.3495 0.177429C31.2215 0.124532 31.0843 0.0974236 30.9458 0.0976578Z" fill="url(#paint0_linear_855_9796)"/>
<path opacity="0.4" d="M15.8489 3.3916H18.88C18.9146 3.3916 18.9488 3.39841 18.9807 3.41163C19.0126 3.42485 19.0416 3.44423 19.066 3.46867C19.0905 3.4931 19.1099 3.5221 19.1231 3.55402C19.1363 3.58595 19.1431 3.62016 19.1431 3.65471V7.56582C19.1431 7.63561 19.1154 7.70253 19.066 7.75187C19.0167 7.80121 18.9498 7.82893 18.88 7.82893H15.8578C15.788 7.82893 15.7211 7.80121 15.6717 7.75187C15.6224 7.70253 15.5947 7.63561 15.5947 7.56582V3.65471C15.5947 3.58493 15.6224 3.51801 15.6717 3.46867C15.7211 3.41932 15.788 3.3916 15.8578 3.3916H15.8489ZM21.1822 3.3916H24.2133C24.2479 3.3916 24.2821 3.39841 24.314 3.41163C24.3459 3.42485 24.375 3.44423 24.3994 3.46867C24.4238 3.4931 24.4432 3.5221 24.4564 3.55402C24.4696 3.58595 24.4764 3.62016 24.4764 3.65471V7.56582C24.4764 7.63561 24.4487 7.70253 24.3994 7.75187C24.35 7.80121 24.2831 7.82893 24.2133 7.82893H21.1911C21.1213 7.82893 21.0544 7.80121 21.0051 7.75187C20.9557 7.70253 20.928 7.63561 20.928 7.56582V3.65471C20.928 3.58493 20.9557 3.51801 21.0051 3.46867C21.0544 3.41932 21.1213 3.3916 21.1911 3.3916H21.1822ZM26.528 3.3916H29.5502C29.62 3.3916 29.6869 3.41932 29.7363 3.46867C29.7856 3.51801 29.8133 3.58493 29.8133 3.65471V7.56582C29.8133 7.63561 29.7856 7.70253 29.7363 7.75187C29.6869 7.80121 29.62 7.82893 29.5502 7.82893H26.528C26.4582 7.82893 26.3913 7.80121 26.342 7.75187C26.2926 7.70253 26.2649 7.63561 26.2649 7.56582V3.65471C26.2649 3.58493 26.2926 3.51801 26.342 3.46867C26.3913 3.41932 26.4582 3.3916 26.528 3.3916ZM15.8613 10.4689H18.88C18.9498 10.4689 19.0167 10.4967 19.066 10.546C19.1154 10.5953 19.1431 10.6623 19.1431 10.732V14.684C19.1431 14.754 19.1155 14.8211 19.0662 14.8707C19.0169 14.9204 18.9499 14.9485 18.88 14.9489H15.8578C15.7878 14.9485 15.7209 14.9204 15.6716 14.8707C15.6223 14.8211 15.5947 14.754 15.5947 14.684V10.7729C15.585 10.7037 15.6031 10.6334 15.6451 10.5774C15.6871 10.5215 15.7495 10.4844 15.8187 10.4743L15.8613 10.4689ZM21.1947 10.4689H24.2258C24.2956 10.4689 24.3625 10.4967 24.4118 10.546C24.4612 10.5953 24.4889 10.6623 24.4889 10.732V14.684C24.4889 14.754 24.4612 14.8211 24.4119 14.8707C24.3626 14.9204 24.2957 14.9485 24.2258 14.9489H21.2036C21.1336 14.9485 21.0667 14.9204 21.0174 14.8707C20.9681 14.8211 20.9404 14.754 20.9404 14.684V10.7729C20.9354 10.7387 20.9372 10.7039 20.9456 10.6703C20.9541 10.6368 20.969 10.6053 20.9897 10.5775C21.0103 10.5498 21.0362 10.5264 21.0659 10.5087C21.0956 10.491 21.1285 10.4793 21.1627 10.4743L21.1947 10.4689ZM26.5404 10.4689H29.5627C29.6325 10.4689 29.6994 10.4967 29.7487 10.546C29.7981 10.5953 29.8258 10.6623 29.8258 10.732V14.684C29.8258 14.754 29.7981 14.8211 29.7488 14.8707C29.6995 14.9204 29.6326 14.9485 29.5627 14.9489H26.5404C26.4705 14.9485 26.4036 14.9204 26.3543 14.8707C26.305 14.8211 26.2773 14.754 26.2773 14.684V10.7729C26.2659 10.7049 26.2817 10.6351 26.3213 10.5785C26.3608 10.522 26.421 10.4833 26.4889 10.4707L26.5404 10.4689ZM15.8738 16.636H18.88C18.9498 16.636 19.0167 16.6638 19.066 16.7131C19.1154 16.7625 19.1431 16.8294 19.1431 16.8992V20.8529C19.1431 20.9227 19.1154 20.9896 19.066 21.039C19.0167 21.0883 18.9498 21.116 18.88 21.116H15.8578C15.788 21.116 15.7211 21.0883 15.6717 21.039C15.6224 20.9896 15.5947 20.9227 15.5947 20.8529V16.9418C15.585 16.8728 15.6032 16.8027 15.6452 16.747C15.6872 16.6913 15.7496 16.6546 15.8187 16.6449L15.8738 16.636ZM21.2071 16.636H24.2382C24.308 16.636 24.3749 16.6638 24.4243 16.7131C24.4736 16.7625 24.5013 16.8294 24.5013 16.8992V20.8529C24.5013 20.9227 24.4736 20.9896 24.4243 21.039C24.3749 21.0883 24.308 21.116 24.2382 21.116H21.216C21.1462 21.116 21.0793 21.0883 21.03 21.039C20.9806 20.9896 20.9529 20.9227 20.9529 20.8529V16.9418C20.9476 16.9077 20.9492 16.8729 20.9576 16.8393C20.9659 16.8058 20.9809 16.7743 21.0016 16.7467C21.0223 16.719 21.0483 16.6958 21.0781 16.6783C21.1079 16.6608 21.1409 16.6495 21.1751 16.6449L21.2071 16.636ZM26.5529 16.636H29.5751C29.6449 16.636 29.7118 16.6638 29.7612 16.7131C29.8105 16.7625 29.8382 16.8294 29.8382 16.8992V20.8529C29.8382 20.9227 29.8105 20.9896 29.7612 21.039C29.7118 21.0883 29.6449 21.116 29.5751 21.116H26.5529C26.4831 21.116 26.4162 21.0883 26.3668 21.039C26.3175 20.9896 26.2898 20.9227 26.2898 20.8529V16.9418C26.2771 16.8754 26.2908 16.8067 26.328 16.7503C26.3652 16.6938 26.4229 16.6541 26.4889 16.6396L26.5529 16.636Z" fill="#F2F2F2"/>
<path d="M26.9884 19.5557H6.31645C6.17926 19.5554 6.04337 19.5823 5.91655 19.6346C5.78974 19.6869 5.67449 19.7638 5.5774 19.8607C5.48031 19.9576 5.40328 20.0727 5.35072 20.1995C5.29817 20.3262 5.27112 20.462 5.27112 20.5992V24.7361H13.7013C13.9374 24.1865 14.3269 23.7166 14.8232 23.3827C15.3195 23.0488 15.9015 22.865 16.4996 22.8534H16.5227C16.9873 22.8584 17.4448 22.9679 17.8613 23.1739C18.2777 23.3799 18.6424 23.6771 18.9283 24.0433C19.2142 24.4096 19.4139 24.8356 19.5126 25.2896C19.6112 25.7436 19.6064 26.214 19.4983 26.6659C19.3903 27.1178 19.1819 27.5396 18.8885 27.8998C18.5951 28.2601 18.2243 28.5497 17.8037 28.747C17.3831 28.9444 16.9234 29.0444 16.4588 29.0398C15.9942 29.0351 15.5366 28.9259 15.12 28.7201C14.5323 28.4358 14.0508 27.9711 13.7458 27.3939H5.27112V30.8481C5.27112 30.9853 5.29817 31.1211 5.35072 31.2479C5.40328 31.3746 5.48031 31.4897 5.5774 31.5866C5.67449 31.6836 5.78974 31.7604 5.91655 31.8127C6.04337 31.8651 6.17926 31.8919 6.31645 31.8917H26.9884C27.2654 31.8917 27.531 31.7818 27.727 31.5861C27.923 31.3905 28.0333 31.125 28.0338 30.8481V20.6046C28.0343 20.467 28.0076 20.3307 27.9552 20.2034C27.9029 20.0762 27.826 19.9605 27.7289 19.8631C27.6318 19.7656 27.5164 19.6883 27.3893 19.6356C27.2622 19.5828 27.126 19.5557 26.9884 19.5557Z" fill="url(#paint1_linear_855_9796)"/>
<path opacity="0.8" d="M24.352 21.1416H21.8809C21.6472 21.1416 21.4578 21.331 21.4578 21.5647V29.9025C21.4578 30.1362 21.6472 30.3256 21.8809 30.3256H24.352C24.5857 30.3256 24.7751 30.1362 24.7751 29.9025V21.5647C24.7751 21.331 24.5857 21.1416 24.352 21.1416Z" fill="white"/>
<path opacity="0.8" d="M11.7333 24.7416V21.5647C11.7333 21.4525 11.6888 21.3449 11.6094 21.2655C11.5301 21.1862 11.4224 21.1416 11.3102 21.1416H8.8409C8.78527 21.1414 8.73014 21.1522 8.6787 21.1733C8.62726 21.1945 8.58053 21.2257 8.54119 21.265C8.50186 21.3043 8.4707 21.3511 8.44952 21.4025C8.42834 21.454 8.41755 21.5091 8.41779 21.5647V24.7416H11.7333Z" fill="white"/>
<path opacity="0.8" d="M8.41779 27.4043V29.9021C8.41779 29.9576 8.42874 30.0125 8.45003 30.0637C8.47131 30.115 8.50251 30.1615 8.54182 30.2006C8.58113 30.2398 8.62779 30.2708 8.67911 30.2918C8.73044 30.3129 8.78542 30.3236 8.8409 30.3234H11.312C11.4236 30.3229 11.5305 30.2784 11.6094 30.1995C11.6883 30.1206 11.7329 30.0137 11.7333 29.9021V27.4043H8.41779Z" fill="white"/>
<path opacity="0.8" d="M16.4996 22.8589H16.5227C17.145 22.8718 17.7491 23.0719 18.256 23.4332V21.5647C18.256 21.4525 18.2114 21.3449 18.1321 21.2655C18.0527 21.1862 17.9451 21.1416 17.8329 21.1416H15.36C15.2478 21.1416 15.1402 21.1862 15.0608 21.2655C14.9815 21.3449 14.9369 21.4525 14.9369 21.5647V23.3336C15.406 23.0386 15.9456 22.8747 16.4996 22.8589Z" fill="white"/>
<path opacity="0.8" d="M17.4809 28.8742C17.0972 29.0066 16.6912 29.062 16.2861 29.0373C15.881 29.0126 15.4847 28.9082 15.12 28.7302C15.0507 28.6964 15.0027 28.6697 14.9422 28.6324V29.9017C14.9427 30.0136 14.9875 30.1208 15.0668 30.1998C15.1461 30.2787 15.2534 30.3231 15.3653 30.3231H17.8382C17.9501 30.3231 18.0575 30.2787 18.1368 30.1998C18.2161 30.1208 18.2609 30.0136 18.2613 29.9017V28.46C18.0222 28.6344 17.7594 28.7739 17.4809 28.8742Z" fill="white"/>
<path d="M18.7929 25.2644C18.6408 24.754 18.3235 24.3085 17.8908 23.998C17.4581 23.6874 16.9345 23.5294 16.4022 23.5488C15.8699 23.5681 15.3592 23.7637 14.9501 24.1048C14.5411 24.4459 14.2569 24.9132 14.1422 25.4333H5.6569C5.35741 25.4284 5.05936 25.3908 4.76801 25.3213C3.7502 25.1299 2.83675 24.5748 2.19802 23.7596C1.55928 22.9443 1.23887 21.9246 1.29654 20.8906C1.3542 19.8565 1.78601 18.8787 2.51142 18.1396C3.23684 17.4004 4.20634 16.9503 5.23912 16.8733H5.65334L5.7849 16.4964C6.12159 15.5396 6.75102 14.7132 7.5839 14.1343C8.41677 13.5555 9.41078 13.2536 10.4249 13.2715C11.4809 13.2627 12.5122 13.5909 13.3689 14.2084V12.6511C12.4781 12.1842 11.4875 11.9402 10.4818 11.9399C9.25666 11.9055 8.04892 12.2359 7.01196 12.8892C5.97499 13.5425 5.15558 14.4893 4.65779 15.6093C3.39506 15.8139 2.2419 16.4488 1.3936 17.4063C0.545304 18.3637 0.0540295 19.585 0.00298581 20.8632C-0.0480579 22.1413 0.344267 23.3979 1.11351 24.42C1.88275 25.442 2.98163 26.1668 4.22401 26.4715C4.66474 26.6313 5.13132 26.7079 5.60001 26.6973H14.1422C14.3428 27.3012 14.7719 27.8025 15.3375 28.0938C15.9032 28.3852 16.5605 28.4434 17.1686 28.2561C17.7767 28.0687 18.2872 27.6507 18.5908 27.0915C18.8944 26.5323 18.967 25.8764 18.7929 25.2644Z" fill="#32BEDD"/>
</g>
<defs>
<linearGradient id="paint0_linear_855_9796" x1="22.6916" y1="-0.478342" x2="22.6916" y2="29.1945" gradientUnits="userSpaceOnUse">
<stop stop-color="#5EA0EF"/>
<stop offset="0.2" stop-color="#328DE2"/>
<stop offset="0.4" stop-color="#0078D4"/>
<stop offset="0.7" stop-color="#006ABB"/>
<stop offset="1" stop-color="#005BA1"/>
</linearGradient>
<linearGradient id="paint1_linear_855_9796" x1="16.6525" y1="37.2126" x2="16.6525" y2="16.6223" gradientUnits="userSpaceOnUse">
<stop stop-color="#198AB3"/>
<stop offset="0.4" stop-color="#29B8DC"/>
<stop offset="0.7" stop-color="#38D5F6"/>
<stop offset="1" stop-color="#9CEBFF"/>
</linearGradient>
<clipPath id="clip0_855_9796">
<rect width="32" height="32" fill="white"/>
</clipPath>
</defs>
</svg>
