<svg width="32" height="32" viewBox="0 0 32 32" fill="none" xmlns="http://www.w3.org/2000/svg">
<g clip-path="url(#clip0_855_9793)">
<path d="M27.4364 16.6064L24.3929 18.3948L21.3422 20.185L15.9964 23.3228L10.6524 20.185L7.60709 18.3948L4.56354 16.6064L15.9964 9.88281L27.4364 16.6064Z" fill="#A33A85"/>
<path d="M27.4364 16.6064V22.3344L15.9964 29.0509L4.56354 22.3344V16.6064L7.60709 18.3949L10.6524 20.1851L15.9964 23.3229L21.3422 20.1851L24.3929 18.3949L27.4364 16.6064Z" fill="#59285F"/>
<path opacity="0.6" d="M29.7867 8.52282V23.4846C29.7872 23.6609 29.7412 23.8342 29.6536 23.9871C29.5659 24.14 29.4395 24.2671 29.2871 24.3557L16.512 31.8615C16.3568 31.9527 16.18 32.0006 16 32.0002V16.0393L29.6516 8.02148C29.7394 8.17399 29.786 8.3468 29.7867 8.52282Z" fill="#A33A85"/>
<path opacity="0.6" d="M29.6533 8.02111L16 16.0193V16.0389L2.34668 8.01933C2.43241 7.86334 2.55901 7.73366 2.7129 7.64422L15.4987 0.133107C15.6527 0.0439939 15.8274 -0.00292969 16.0053 -0.00292969C16.1833 -0.00292969 16.358 0.0439939 16.512 0.133107L29.2925 7.64777C29.4433 7.73857 29.5677 7.86728 29.6533 8.02111Z" fill="#DC92BF"/>
<path opacity="0.6" d="M16 16.0391V32C15.8223 32.0013 15.6477 31.954 15.4951 31.8631L2.71288 24.3555C2.5605 24.2669 2.43412 24.1398 2.34643 23.9869C2.25874 23.834 2.21283 23.6607 2.21332 23.4844V8.51731C2.21364 8.3426 2.2596 8.17101 2.34666 8.01953L16 16.0391Z" fill="#CE74B6"/>
</g>
<defs>
<clipPath id="clip0_855_9793">
<rect width="32" height="32" fill="white"/>
</clipPath>
</defs>
</svg>
