<svg width="32" height="32" viewBox="0 0 32 32" fill="none" xmlns="http://www.w3.org/2000/svg">
<g clip-path="url(#clip0_855_9797)">
<path d="M30.336 21.7868L17.0026 29.5432C16.7046 29.6846 16.3788 29.7579 16.0489 29.7579C15.719 29.7579 15.3932 29.6846 15.0951 29.5432L1.70842 21.7903C1.59261 21.7542 1.49138 21.682 1.4195 21.5843C1.34761 21.4866 1.30884 21.3685 1.30884 21.2472C1.30884 21.1259 1.34761 21.0078 1.4195 20.9101C1.49138 20.8124 1.59261 20.7402 1.70842 20.7041L15.0169 12.9494C15.3119 12.7978 15.6389 12.7188 15.9706 12.7188C16.3024 12.7188 16.6293 12.7978 16.9244 12.9494L30.3146 20.7005C30.848 21.0081 30.848 21.5005 30.336 21.7868Z" fill="#E6E6E6"/>
<path d="M15.3244 29.6462C14.9689 29.5022 2.03731 21.9555 1.70843 21.792C1.59848 21.7447 1.50385 21.6678 1.43509 21.5699C1.36634 21.4719 1.32618 21.3568 1.31909 21.2373L1.2782 23.4666C1.21598 23.8755 1.98931 24.2044 2.30398 24.3893C6.48709 26.7875 11.0595 29.4951 15.264 31.856H15.2889C15.368 31.8925 15.4509 31.9205 15.536 31.9395C15.6178 31.9591 15.6782 31.9591 15.7618 31.9804H15.7813C15.8435 31.9804 15.904 32 15.9591 32H16.0213V29.7689C15.7846 29.7592 15.5502 29.718 15.3244 29.6462Z" fill="#B3B3B3"/>
<path d="M30.6844 21.3818V21.4031L30.6222 21.5258C30.5536 21.6397 30.4544 21.7321 30.336 21.7925L17.0026 29.5471C16.7956 29.6485 16.5744 29.718 16.3466 29.7534C16.2587 29.7696 16.1693 29.7762 16.08 29.7729H16.0231V32.0005C16.1054 32.0031 16.1878 31.9959 16.2684 31.9791C16.4197 31.9637 16.5685 31.9291 16.7111 31.876C16.7975 31.8547 16.8802 31.8206 16.9564 31.7747L26.6969 26.1143L27.5857 25.6023L30.2933 24.0218C30.3515 23.9861 30.4063 23.9451 30.4569 23.8991C30.4977 23.8796 30.5191 23.8387 30.56 23.7978V23.7765H30.5777V23.7569C30.6186 23.7356 30.6186 23.6947 30.64 23.6538V23.6325L30.6595 23.6129C30.6595 23.572 30.6808 23.5311 30.6808 23.4903L30.7217 21.2627C30.7176 21.3045 30.7049 21.3451 30.6844 21.3818Z" fill="#999999"/>
<path d="M22.4764 19.1614V19.1791C22.4757 19.2535 22.4574 19.3265 22.4231 19.3925C22.4053 19.4103 22.3876 19.4458 22.352 19.4636C22.3164 19.4814 22.3342 19.4991 22.3164 19.4991C22.2987 19.4991 22.2809 19.5347 22.2631 19.5347L16.2738 23.0014C16.2738 23.0014 5.33333 16.692 5.21777 16.6209C5.25226 16.5516 5.30844 16.4954 5.37777 16.4609L9.536 14.0449L10.976 14.8805L8.68266 16.196C8.61404 16.2335 8.55678 16.2888 8.51689 16.3561C8.477 16.4233 8.45595 16.5001 8.45595 16.5783C8.45595 16.6564 8.477 16.7332 8.51689 16.8005C8.55678 16.8677 8.61404 16.923 8.68266 16.9605C10.016 17.7427 15.9182 21.1543 16.2382 21.332C16.307 21.3671 16.3832 21.3855 16.4604 21.3855C16.5377 21.3855 16.6138 21.3671 16.6827 21.332L21.0187 18.8254C21.084 18.7921 21.1386 18.7411 21.1763 18.6782C21.214 18.6153 21.2333 18.5431 21.232 18.4698V15.0387C21.3209 14.9854 22.4587 14.3276 22.4587 14.3276L22.4764 19.1614Z" fill="url(#paint0_linear_855_9797)"/>
<path d="M15.4257 17.4439C14.8106 17.7994 13.0702 18.8039 12.4711 19.1506C11.1644 18.3986 9.55196 17.4634 8.27907 16.731C8.25335 16.7151 8.23212 16.6928 8.2174 16.6664C8.20267 16.6399 8.19495 16.6102 8.19495 16.5799C8.19495 16.5496 8.20267 16.5199 8.2174 16.4934C8.23212 16.467 8.25335 16.4447 8.27907 16.4288L10.9706 14.875L15.4257 17.4439Z" fill="#005BA1"/>
<path d="M17.696 1.01314V5.63536C17.6978 5.71353 17.6791 5.7908 17.6416 5.85944C17.6042 5.92809 17.5494 5.98568 17.4827 6.02647L13.0915 8.54914L12.4338 8.92247C10.9582 8.08692 9.48265 7.2158 8.30932 6.54025L7.98932 6.36247L8.29154 6.18469L8.30932 6.16869L17.6249 0.799805C17.6507 0.828606 17.6703 0.862401 17.6826 0.899096C17.6948 0.935791 17.6994 0.974606 17.696 1.01314Z" fill="#005BA1"/>
<path d="M26.7964 6.68291C26.6897 6.73624 26.512 6.84291 26.2809 6.98513C23.2586 8.70957 19.9004 10.6865 16.8586 12.4251C16.7332 12.5103 16.6026 12.5875 16.4675 12.6562C16.3609 12.7096 16.272 12.7629 16.2364 12.7807C16.1616 12.7459 16.0902 12.7043 16.0231 12.6562L5.18219 6.40024C5.22185 6.33479 5.27674 6.2799 5.34219 6.24024C5.41863 6.18691 15.9893 0.089129 16.0426 0.0535735C16.0604 0.0357957 16.0782 0.0357957 16.1137 0.0357957C16.162 0.00732664 16.218 -0.00512131 16.2737 0.000240137C16.3225 0.0056846 16.3704 0.0176429 16.416 0.0357957C16.441 0.0331355 16.4662 0.0394335 16.4871 0.0535735L17.4649 0.64024C17.5342 0.674727 17.5904 0.730906 17.6249 0.80024L8.3093 6.16913L8.29152 6.18513C8.26185 6.20516 8.23785 6.23251 8.22184 6.26453C8.20583 6.29655 8.19836 6.33216 8.20015 6.36792C8.20194 6.40368 8.21292 6.43837 8.23204 6.46863C8.25117 6.4989 8.27778 6.52372 8.3093 6.54068C9.48263 7.21624 10.9582 8.08735 12.4337 8.92291C12.6471 9.04735 12.8782 9.18957 13.1093 9.31402C13.9093 9.77624 14.6915 10.2385 15.3849 10.6296C15.7226 10.8251 16.0426 11.0029 16.3449 11.1807C16.3713 11.198 16.4022 11.2073 16.4337 11.2073C16.4653 11.2073 16.4962 11.198 16.5226 11.1807L17.3226 10.7185L25.4631 6.02691C25.5285 5.99112 25.6019 5.97236 25.6764 5.97236C25.751 5.97236 25.8243 5.99112 25.8897 6.02691L26.6897 6.48735C26.7545 6.52013 26.8096 6.56913 26.8497 6.62957C26.8462 6.64735 26.8284 6.66513 26.7964 6.68291Z" fill="#50E6FF"/>
<path d="M26.9564 21.7214C26.9564 21.7968 26.9367 21.8709 26.8993 21.9364C26.8619 22.0019 26.8081 22.0565 26.7431 22.0948L16.8604 27.8014L16.5049 28.0148C16.4327 28.0492 16.3538 28.0674 16.2738 28.0681V23.0014L22.2631 19.5348C22.2809 19.5348 22.2987 19.517 22.3164 19.4992C22.3342 19.4814 22.3342 19.4814 22.352 19.4637C22.3698 19.4459 22.4053 19.4103 22.4231 19.3925C22.4574 19.3266 22.4757 19.2535 22.4764 19.1792V19.1614L22.4587 14.6299C22.4586 14.6008 22.4508 14.5723 22.4362 14.5471C22.4216 14.522 22.4006 14.5012 22.3754 14.4868C22.3501 14.4724 22.3215 14.4648 22.2924 14.465C22.2634 14.4651 22.2349 14.473 22.2098 14.4877C21.9076 14.6477 21.3387 14.9854 20.6809 15.3765L20.5742 15.4299C19.0809 16.2832 17.2516 17.3499 16.3271 17.8654C16.3093 17.8832 16.2916 17.8832 16.256 17.8832H16.2382V12.7099C16.3185 12.7112 16.3978 12.6929 16.4693 12.6565C16.6044 12.5878 16.7351 12.5106 16.8604 12.4254C19.8951 10.7045 23.2604 8.70277 26.2827 6.98544C26.5138 6.84322 26.6916 6.73655 26.7982 6.68322L26.8516 6.62988C26.8891 6.68132 26.9079 6.74405 26.9049 6.80766C26.9031 7.64499 26.9564 20.8006 26.9564 21.7214Z" fill="url(#paint1_linear_855_9797)"/>
<path d="M5.21775 16.6211C5.17926 16.6854 5.1607 16.7596 5.16442 16.8344C5.16442 17.7589 5.14664 20.9233 5.14664 21.5971C5.14597 21.6337 5.15561 21.6698 5.17447 21.7013C5.19333 21.7327 5.22065 21.7582 5.25331 21.7749L16.0604 28.0149C16.1264 28.0492 16.1994 28.0674 16.2738 28.0682V23.0015C16.2738 23.0015 5.36531 16.7118 5.21775 16.6211Z" fill="#0078D4"/>
<path d="M16.256 17.8829H16.2382C16.2133 17.8836 16.1887 17.8775 16.1671 17.8651C16.1671 17.8651 5.76886 11.8562 5.3422 11.6073C5.27406 11.5711 5.21676 11.5175 5.17615 11.4519C5.13555 11.3863 5.11309 11.3111 5.11108 11.234C5.11108 10.3629 5.12886 7.48288 5.12886 6.61177C5.12753 6.5372 5.14593 6.46361 5.1822 6.39844L16.0266 12.6562C16.0926 12.6905 16.1657 12.7088 16.24 12.7095V12.7807L16.256 17.8829Z" fill="#0078D4"/>
</g>
<defs>
<linearGradient id="paint0_linear_855_9797" x1="5.21777" y1="18.5214" x2="22.4764" y2="18.5214" gradientUnits="userSpaceOnUse">
<stop stop-color="#50E6FF"/>
<stop offset="1" stop-color="#32BEDD"/>
</linearGradient>
<linearGradient id="paint1_linear_855_9797" x1="16.2382" y1="17.3499" x2="26.9564" y2="17.3499" gradientUnits="userSpaceOnUse">
<stop stop-color="#005BA1"/>
<stop offset="1" stop-color="#003067"/>
</linearGradient>
<clipPath id="clip0_855_9797">
<rect width="32" height="32" fill="white"/>
</clipPath>
</defs>
</svg>
