<svg width="32" height="32" viewBox="0 0 32 32" fill="none" xmlns="http://www.w3.org/2000/svg">
<g clip-path="url(#clip0_855_9798)">
<path d="M18.4551 17.2444C17.4918 18.0287 16.7077 19.0104 16.1557 20.1233C15.6037 21.2362 15.2966 22.4544 15.2551 23.696V23.7084C14.8871 23.7173 14.5174 23.7191 14.144 23.7191C6.48002 23.7191 0.243578 22.2791 0.0515778 20.4889C0.0498696 20.4605 0.0498696 20.432 0.0515778 20.4036C0.0705132 20.2104 0.133381 20.0241 0.235371 19.8589C0.337362 19.6938 0.475775 19.5541 0.640022 19.4507C2.37513 18.0836 7.76536 17.0844 14.1511 17.0844C15.6445 17.0862 17.0969 17.1413 18.4551 17.2444ZM0.00891113 11.8773C0.00891113 13.7084 6.32002 15.1929 14.1049 15.1929C21.8898 15.1929 28.2009 13.7084 28.2009 11.8773C28.2009 10.0462 21.8898 8.56 14.1049 8.56C6.32002 8.56 0.00891113 10.0444 0.00891113 11.8773ZM0.00891113 3.31733C0.00891113 5.14844 6.32002 6.63289 14.1049 6.63289C21.8898 6.63289 28.2009 5.14844 28.2009 3.31733C28.2009 1.48622 21.8898 0 14.1049 0C6.32002 0 0.00891113 1.48444 0.00891113 3.31733Z" fill="#83B9F9"/>
<path d="M17.3138 29.6377C17.3643 29.6975 17.3971 29.7702 17.4084 29.8476C17.4197 29.9251 17.4092 30.0041 17.3779 30.0759C17.3467 30.1477 17.296 30.2092 17.2315 30.2537C17.1671 30.2981 17.0915 30.3237 17.0134 30.3274H17.0045C16.6382 30.3452 16.272 30.3541 15.8969 30.3683C15.3209 30.3849 14.7372 30.3932 14.1458 30.3932C6.36269 30.4003 0.0533545 28.9105 0.0533545 27.0741V20.395C0.0531194 20.45 0.0590829 20.5049 0.0711323 20.5585C0.435577 22.2759 6.3698 23.6501 13.7209 23.7017C13.8631 23.7017 14.0036 23.7017 14.1458 23.7017C14.288 23.7017 14.4391 23.7017 14.5867 23.7017L15.2569 23.6928V23.7052C15.2569 23.803 15.2569 23.9008 15.2569 24.0003C15.2522 26.0639 15.9812 28.062 17.3138 29.6377ZM28.1991 11.8368C28.112 13.6537 21.8347 15.1114 14.1067 15.1114C6.37869 15.1114 0.158243 13.675 0.0231323 11.8634V18.4892C0.0439203 18.6868 0.110095 18.8769 0.216489 19.0446C0.322883 19.2124 0.466617 19.3533 0.636466 19.4563C2.39647 20.8145 7.76535 21.803 14.1174 21.803C14.5974 21.803 15.0685 21.803 15.5396 21.7852C16.0086 20.0023 17.0291 18.4132 18.4551 17.2448C19.7135 16.209 21.237 15.5466 22.8527 15.3326C24.4685 15.1186 26.1118 15.3616 27.5965 16.0341C27.6607 16.0647 27.7316 16.0786 27.8027 16.0744C27.8737 16.0702 27.9425 16.0481 28.0027 16.0101C28.0629 15.9721 28.1125 15.9195 28.1468 15.8571C28.1812 15.7948 28.1992 15.7248 28.1991 15.6537V11.8368ZM14.1049 6.55854C6.40002 6.55854 0.158243 5.11499 0.0231323 3.30343V9.92388C0.0231323 11.7568 6.33247 13.2412 14.1191 13.2412C21.7405 13.2412 27.9431 11.819 28.2009 10.0412V9.7781V3.24121C28.1974 5.0741 21.888 6.55854 14.1049 6.55854Z" fill="#0078D4"/>
<path d="M32 24.0001C32 26.1218 31.1571 28.1567 29.6569 29.657C28.1566 31.1573 26.1217 32.0001 24 32.0001C21.8783 32.0001 19.8434 31.1573 18.3431 29.657C16.8429 28.1567 16 26.1218 16 24.0001C16 23.8952 16 23.7903 16 23.6872V23.6801C16.0234 23.0289 16.1286 22.3833 16.3129 21.7583C16.8474 19.9036 18.0345 18.3047 19.6552 17.2564C21.2759 16.208 23.221 15.781 25.1318 16.0541C27.0426 16.3272 28.7902 17.2819 30.0525 18.7422C31.3147 20.2025 32.0064 22.0699 32 24.0001Z" fill="url(#paint0_linear_855_9798)"/>
<path d="M25.7476 25.8165C25.7831 25.9658 25.8134 26.1098 25.8489 26.2538C25.9396 26.6094 26.0267 26.9649 26.1316 27.3205C26.151 27.4138 26.196 27.4998 26.2617 27.5689C26.3273 27.638 26.4109 27.6874 26.5031 27.7116C26.5836 27.7254 26.6661 27.7206 26.7444 27.6974C26.8227 27.6743 26.8946 27.6335 26.9547 27.5782C27.2247 27.3837 27.4582 27.1429 27.6445 26.8671C27.7085 26.7729 27.7618 26.6716 27.8222 26.5703L27.6587 26.492C27.602 26.5947 27.5366 26.6922 27.4631 26.7836C27.3439 26.9138 27.213 27.0328 27.072 27.1391C26.9707 27.2174 26.8854 27.1836 26.8249 27.0734C26.7825 26.9942 26.7502 26.91 26.7289 26.8227C26.5831 26.2301 26.4397 25.6328 26.2987 25.0307L26.2062 24.6449C26.1636 24.4903 26.1245 24.3569 26.0889 24.2236C26.0144 23.8735 25.8502 23.5489 25.6125 23.2814C25.5969 23.263 25.5764 23.2495 25.5535 23.2422C25.5305 23.235 25.506 23.2344 25.4827 23.2405C25.1271 23.308 24.7609 23.3685 24.4018 23.4343C24.2614 23.4591 24.2614 23.4627 24.2862 23.6209H24.368C24.474 23.6156 24.5802 23.6156 24.6862 23.6209C24.8489 23.6295 25.0037 23.6937 25.1248 23.8028C25.2458 23.9118 25.3257 24.0591 25.3511 24.22C25.4631 24.5916 25.5538 24.9738 25.6462 25.3507L25.7476 25.8165Z" fill="#E6E6E6"/>
<path d="M25.7671 25.8174C25.5556 26.1463 25.3653 26.4734 25.1484 26.7827C24.9736 27.0183 24.7842 27.2427 24.5813 27.4547C24.4476 27.5954 24.2716 27.6884 24.08 27.7196C23.9674 27.7431 23.8502 27.7255 23.7494 27.6701C23.6487 27.6146 23.5711 27.525 23.5307 27.4174C23.5078 27.3478 23.5064 27.2729 23.5267 27.2025C23.547 27.1321 23.588 27.0694 23.6444 27.0227C23.6995 26.9707 23.7703 26.9387 23.8457 26.9316C23.9211 26.9245 23.9967 26.9428 24.0604 26.9836C24.1351 27.0316 24.2098 27.0831 24.2791 27.1383C24.3787 27.2165 24.4338 27.2271 24.5262 27.1383C24.6627 27.0146 24.7844 26.8756 24.8889 26.724C25.1502 26.3311 25.3938 25.9276 25.6391 25.5258L26.2204 24.6369L26.3396 24.4591C26.5049 24.1775 26.701 23.9151 26.9244 23.6769C27.0962 23.487 27.3098 23.3397 27.5484 23.2467C27.6377 23.2123 27.7348 23.2032 27.8289 23.2204C27.923 23.2377 28.0105 23.2806 28.0818 23.3445C28.137 23.3982 28.1745 23.4675 28.1891 23.5432C28.2037 23.6188 28.1948 23.6972 28.1636 23.7676C28.1395 23.8269 28.0977 23.8773 28.044 23.9119C27.9902 23.9466 27.927 23.9639 27.8631 23.9614C27.7606 23.9688 27.6578 23.9524 27.5627 23.9134C27.4508 23.8547 27.3209 23.8404 27.1989 23.8733C27.077 23.9063 26.972 23.9841 26.9049 24.0911C26.6969 24.3596 26.5084 24.6423 26.3164 24.9214L25.7671 25.8174ZM25.5342 19.8689C25.535 19.9395 25.521 20.0096 25.4932 20.0745C25.4653 20.1394 25.4242 20.1977 25.3724 20.2458C25.2669 20.3438 25.1272 20.3968 24.9831 20.3934C24.778 20.3807 24.5745 20.3491 24.3751 20.2991C24.2859 20.2778 24.1948 20.2653 24.1031 20.2618C23.9982 20.2618 23.8933 20.3436 23.7884 20.5036C23.6289 20.7691 23.5164 21.0602 23.456 21.364L23.3084 21.988H24.432L24.3698 22.2654L24.3022 22.5658L24.2613 22.7436H23.1111L22.4924 25.2894C22.3379 26.0377 21.9713 26.7259 21.4364 27.2716C21.0028 27.7067 20.4169 27.956 19.8027 27.9667C19.6132 27.9757 19.4259 27.9227 19.2693 27.8156C19.198 27.767 19.1396 27.7018 19.099 27.6256C19.0585 27.5494 19.037 27.4646 19.0364 27.3783C19.0344 27.3043 19.0493 27.2309 19.0801 27.1637C19.111 27.0965 19.1568 27.0373 19.2142 26.9907C19.3326 26.8995 19.4791 26.8524 19.6284 26.8574C19.7262 26.8574 19.824 26.868 19.92 26.8805C20.0969 26.9032 20.275 26.9157 20.4533 26.9178C20.6136 26.9344 20.774 26.8886 20.9013 26.7898C21.0701 26.5284 21.1805 26.2337 21.2249 25.9258L22.016 22.7436H21.0009L21.072 22.4627L21.1484 22.1605L21.1929 21.9827H22.2062C22.3168 21.4666 22.505 20.9703 22.7644 20.5107C22.9927 20.143 23.3084 19.8376 23.6836 19.6218C24.0119 19.4174 24.3886 19.3039 24.7751 19.2929C24.9648 19.28 25.1531 19.3328 25.3084 19.4423C25.3776 19.49 25.4342 19.5537 25.4735 19.628C25.5128 19.7022 25.5337 19.7849 25.5342 19.8689ZM19.3991 27.6307C19.4593 27.6715 19.527 27.6999 19.5982 27.7143C19.5276 27.7004 19.4609 27.6713 19.4027 27.6289L19.3991 27.6307Z" fill="white"/>
</g>
<defs>
<linearGradient id="paint0_linear_855_9798" x1="23.9964" y1="15.4454" x2="23.9964" y2="32.0712" gradientUnits="userSpaceOnUse">
<stop stop-color="#A67AF4"/>
<stop offset="0.999" stop-color="#773ADC"/>
</linearGradient>
<clipPath id="clip0_855_9798">
<rect width="32" height="32" fill="white"/>
</clipPath>
</defs>
</svg>
