<svg width="32" height="32" viewBox="0 0 32 32" fill="none" xmlns="http://www.w3.org/2000/svg">
<g clip-path="url(#clip0_855_9786)">
<path d="M21.7902 23.4491C20.4455 24.492 18.9085 25.2598 17.267 25.7087C15.6256 26.1576 13.9118 26.2787 12.2235 26.0653C8.81382 25.6342 5.71506 23.8663 3.60889 21.1505C1.50271 18.4347 0.561659 14.9934 0.992742 11.5837C1.42383 8.17408 3.19174 5.07531 5.90755 2.96914L6.04444 2.86959C8.7785 0.854135 12.1946 -0.00724477 15.5574 0.470858C18.9202 0.948961 21.9609 2.72832 24.0249 5.42592C26.0888 8.12353 27.0111 11.5237 26.5932 14.8945C26.1753 18.2653 24.4505 21.3373 21.7902 23.4491Z" fill="url(#paint0_radial_855_9786)"/>
<path opacity="0.6" d="M10.3253 10.5123C13.9924 7.02715 18.8521 5.07423 23.9111 5.05273C23.2505 4.22573 22.4897 3.48405 21.6462 2.84473C19.1826 3.0025 16.7631 3.57343 14.4889 4.53362C12.1469 5.53043 10.0305 6.99015 8.26666 8.82517C9.1186 9.14783 9.84159 9.74033 10.3253 10.5123Z" fill="white"/>
<path opacity="0.6" d="M3.91111 15.7178C3.38969 17.0184 2.96368 18.3553 2.63644 19.7178C2.92351 20.2057 3.24056 20.6753 3.58578 21.124C3.84933 21.4678 4.13122 21.7972 4.43022 22.1107C4.7987 20.2961 5.35149 18.524 6.08 16.8218C5.26287 16.679 4.50735 16.2945 3.91111 15.7178Z" fill="white"/>
<path opacity="0.55" d="M5.40269 8.80317C4.86348 7.35688 4.51043 5.84788 4.35202 4.3125C3.7118 4.99034 3.14674 5.73541 2.66669 6.53472C2.84687 7.75833 3.13906 8.96279 3.53958 10.1329C4.02338 9.52348 4.66907 9.06263 5.40269 8.80317Z" fill="#F2F2F2"/>
<path d="M6.80001 16.8893C9.10046 16.8893 10.9653 15.0244 10.9653 12.7239C10.9653 10.4235 9.10046 8.55859 6.80001 8.55859C4.49956 8.55859 2.63467 10.4235 2.63467 12.7239C2.63467 15.0244 4.49956 16.8893 6.80001 16.8893Z" fill="url(#paint1_linear_855_9786)"/>
<path opacity="0.55" d="M12.8729 20.3289C12.8725 19.9683 12.9445 19.6113 13.0847 19.279C13.2249 18.9468 13.4303 18.646 13.6889 18.3947C12.2879 17.6233 10.994 16.6718 9.84001 15.5645C9.23379 16.2116 8.43637 16.6477 7.56445 16.8089C8.2479 17.5198 8.98813 18.1738 9.77779 18.7645C10.7537 19.4981 11.7986 20.1352 12.8978 20.6667C12.8818 20.5548 12.8735 20.4419 12.8729 20.3289Z" fill="#F2F2F2"/>
<path opacity="0.55" d="M22.4747 20.652C21.0608 20.6519 19.6517 20.4878 18.2756 20.1631C18.2756 20.2182 18.2845 20.2733 18.2845 20.3284C18.2866 21.0362 18.0101 21.7163 17.5147 22.2218C19.226 22.5599 20.9727 22.6847 22.7147 22.5933C23.3702 21.9745 23.9584 21.288 24.4693 20.5453C23.8068 20.6164 23.141 20.652 22.4747 20.652Z" fill="#F2F2F2"/>
<path d="M15.5787 23.0346C17.073 23.0346 18.2844 21.8232 18.2844 20.3288C18.2844 18.8345 17.073 17.623 15.5787 17.623C14.0843 17.623 12.8729 18.8345 12.8729 20.3288C12.8729 21.8232 14.0843 23.0346 15.5787 23.0346Z" fill="url(#paint2_linear_855_9786)"/>
<path opacity="0.7" d="M18.9067 13.0987C19.0478 12.509 19.3751 11.9804 19.84 11.5912C17.3252 9.76497 15.0408 7.64108 13.0364 5.26583C11.8766 3.8904 10.8631 2.3979 10.0124 0.8125C9.4461 0.986778 8.89248 1.20003 8.35556 1.45072C9.26075 3.18241 10.351 4.81088 11.6071 6.30761C13.749 8.86548 16.2011 11.1467 18.9067 13.0987Z" fill="#F2F2F2"/>
<path d="M21.7458 16.4925C23.3334 16.4925 24.6205 15.2055 24.6205 13.6178C24.6205 12.0302 23.3334 10.7432 21.7458 10.7432C20.1582 10.7432 18.8711 12.0302 18.8711 13.6178C18.8711 15.2055 20.1582 16.4925 21.7458 16.4925Z" fill="#F2F2F2"/>
<path opacity="0.55" d="M26.5742 15.5555C26.3964 15.4666 26.2542 15.3884 26.0853 15.2977L26.0391 15.2728C25.8862 15.1928 25.7369 15.111 25.5875 15.0292L25.504 14.983L25.0969 14.7555L24.9973 14.6986C24.8356 14.6079 24.6756 14.5208 24.5173 14.4248C24.3532 14.9866 24.0129 15.4808 23.5467 15.8346C23.7333 15.9448 23.9236 16.0532 24.1173 16.1617L24.2453 16.2346L24.7787 16.5279L24.8302 16.5564C25.2587 16.7892 25.696 17.0221 26.144 17.2515C26.3271 16.6962 26.4715 16.1289 26.576 15.5537L26.5742 15.5555Z" fill="#F2F2F2"/>
<path d="M6.80001 16.8893C9.10046 16.8893 10.9653 15.0244 10.9653 12.7239C10.9653 10.4235 9.10046 8.55859 6.80001 8.55859C4.49956 8.55859 2.63467 10.4235 2.63467 12.7239C2.63467 15.0244 4.49956 16.8893 6.80001 16.8893Z" fill="url(#paint3_linear_855_9786)"/>
<path d="M15.5787 23.0346C17.073 23.0346 18.2844 21.8232 18.2844 20.3288C18.2844 18.8345 17.073 17.623 15.5787 17.623C14.0843 17.623 12.8729 18.8345 12.8729 20.3288C12.8729 21.8232 14.0843 23.0346 15.5787 23.0346Z" fill="#F2F2F2"/>
<path d="M31.1111 18.7928L30.5476 17.0897H30.2791H28.2596L27.3973 16.0835L27.6711 13.8061L26.08 13.0061L25.8809 13.2052L24.4587 14.6275L23.136 14.535L21.7138 12.7217L20.0107 13.2852L20 13.5537V15.5732L18.9938 16.4355L16.7538 16.1563L15.9556 17.7457L16.1547 17.9448L17.5769 19.367L17.4862 20.6879L15.6427 22.1279L16.2062 23.8292L16.4747 23.8399H18.4942L19.3564 24.8461L19.0827 27.1235L20.6738 27.9217L20.8729 27.7226L22.2951 26.3003L23.6178 26.3928L25.04 28.2061L26.7431 27.6426L26.7538 27.3741V25.3563L27.76 24.4923L30.0373 24.7661L30.8373 23.1768L30.6382 22.9759L29.216 21.5537L29.3084 20.231L31.1111 18.7928ZM24.464 23.7332C23.8159 23.948 23.1187 23.9656 22.4606 23.784C21.8025 23.6023 21.2131 23.2296 20.7669 22.7128C20.3207 22.1961 20.0379 21.5586 19.9541 20.881C19.8703 20.2035 19.9895 19.5163 20.2964 18.9065C20.6033 18.2966 21.0842 17.7915 21.6783 17.4551C22.2723 17.1187 22.9528 16.966 23.6337 17.0165C24.3145 17.0669 24.9651 17.3182 25.5031 17.7385C26.0411 18.1588 26.4423 18.7293 26.656 19.3777C26.9426 20.2459 26.8727 21.1925 26.4617 22.0092C26.0507 22.826 25.3321 23.4461 24.464 23.7332Z" fill="url(#paint4_linear_855_9786)"/>
<path d="M13.5342 26.2277V24.8162L13.3333 24.7433L11.8222 24.2473L11.4293 23.289L12.1973 21.6553L11.2 20.6562L11.0009 20.7557L9.58933 21.4668L8.624 21.0704L8.01244 19.3779H6.60089L6.52622 19.5753L6.032 21.0864L5.06489 21.4828L3.456 20.7148L2.46578 21.705L2.56356 21.9042L3.27467 23.3157L2.88 24.281L1.15378 24.889V26.3113L1.35111 26.3859L2.86222 26.8819L3.25867 27.8473L2.49067 29.481L3.48089 30.4713L3.67822 30.3717L5.08978 29.6606L6.05511 30.0553L6.67556 31.7655H8.08711L8.16 31.5664L8.656 30.0553L9.62133 29.6606L11.2569 30.4268L12.2471 29.4366L12.1476 29.2393L11.4364 27.8277L11.8329 26.8624L13.5342 26.2277ZM7.344 28.2775C6.80631 28.2778 6.2806 28.1187 5.83335 27.8202C5.38611 27.5218 5.03743 27.0974 4.83142 26.6007C4.62541 26.1041 4.57133 25.5575 4.67601 25.0301C4.7807 24.5027 5.03944 24.0181 5.41952 23.6378C5.7996 23.2575 6.28394 22.9984 6.81127 22.8934C7.3386 22.7884 7.88524 22.8421 8.38203 23.0478C8.87882 23.2535 9.30346 23.6019 9.60222 24.0489C9.90098 24.496 10.0604 25.0216 10.0604 25.5593C10.0607 25.9161 9.99059 26.2696 9.85418 26.5993C9.71777 26.9291 9.51771 27.2288 9.26544 27.4812C9.01318 27.7337 8.71364 27.9339 8.38395 28.0705C8.05426 28.2072 7.70088 28.2775 7.344 28.2775Z" fill="#50E6FF"/>
<path d="M23.3796 23.9082C25.2853 23.9082 26.8302 22.3633 26.8302 20.4575C26.8302 18.5518 25.2853 17.0068 23.3796 17.0068C21.4738 17.0068 19.9289 18.5518 19.9289 20.4575C19.9289 22.3633 21.4738 23.9082 23.3796 23.9082Z" fill="white"/>
<path d="M7.34401 28.2757C8.84426 28.2757 10.0605 27.0595 10.0605 25.5592C10.0605 24.059 8.84426 22.8428 7.34401 22.8428C5.84376 22.8428 4.62756 24.059 4.62756 25.5592C4.62756 27.0595 5.84376 28.2757 7.34401 28.2757Z" fill="white"/>
</g>
<defs>
<radialGradient id="paint0_radial_855_9786" cx="0" cy="0" r="1" gradientUnits="userSpaceOnUse" gradientTransform="translate(13.8422 13.2048) scale(12.9592 12.9592)">
<stop offset="0.183" stop-color="#5EA0EF"/>
<stop offset="1" stop-color="#0078D4"/>
</radialGradient>
<linearGradient id="paint1_linear_855_9786" x1="6.83379" y1="16.9977" x2="6.78579" y2="10.9604" gradientUnits="userSpaceOnUse">
<stop stop-color="#CCCCCC"/>
<stop offset="0.123" stop-color="#D7D7D7"/>
<stop offset="1" stop-color="#FCFCFC"/>
</linearGradient>
<linearGradient id="paint2_linear_855_9786" x1="15.5787" y1="23.0364" x2="15.5787" y2="17.623" gradientUnits="userSpaceOnUse">
<stop stop-color="#CCCCCC"/>
<stop offset="0.123" stop-color="#D7D7D7"/>
<stop offset="1" stop-color="#FCFCFC"/>
</linearGradient>
<linearGradient id="paint3_linear_855_9786" x1="6.83379" y1="16.9977" x2="6.78579" y2="10.9604" gradientUnits="userSpaceOnUse">
<stop stop-color="#CCCCCC"/>
<stop offset="0.123" stop-color="#D7D7D7"/>
<stop offset="1" stop-color="#FCFCFC"/>
</linearGradient>
<linearGradient id="paint4_linear_855_9786" x1="25.7588" y1="27.6499" x2="20.8208" y2="12.7257" gradientUnits="userSpaceOnUse">
<stop stop-color="#32BEDD"/>
<stop offset="0.576" stop-color="#32CEEF"/>
<stop offset="1" stop-color="#32D4F5"/>
</linearGradient>
<clipPath id="clip0_855_9786">
<rect width="32" height="32" fill="white"/>
</clipPath>
</defs>
</svg>
