<svg width="32" height="32" viewBox="0 0 32 32" fill="none" xmlns="http://www.w3.org/2000/svg">
<g clip-path="url(#clip0_855_9788)">
<path d="M24.8622 18.233C20.9191 18.233 17.7244 17.1201 17.7244 15.6499V29.4134C17.7244 30.8356 20.864 31.9752 24.7609 31.9965H24.8622C28.8 32.0001 32 30.8836 32 29.4134V15.6445C32 17.0863 28.8 18.233 24.8622 18.233Z" fill="url(#paint0_linear_855_9788)"/>
<path d="M32 15.6446C32 17.0811 28.8 18.2277 24.8622 18.2277C20.9244 18.2277 17.7244 17.1202 17.7244 15.6446C17.7244 14.1691 20.9244 13.0615 24.8622 13.0615C28.8 13.0615 32 14.1797 32 15.6446Z" fill="#E8E8E8"/>
<path d="M30.3414 15.4381C30.3414 16.3501 27.8791 17.0861 24.8623 17.0861C21.8454 17.0861 19.3778 16.3554 19.3778 15.4381C19.3778 14.5208 21.8383 13.8008 24.8569 13.8008C27.8756 13.8008 30.336 14.535 30.336 15.4381" fill="#50E6FF"/>
<path d="M24.8622 15.8503C23.3923 15.8115 21.9268 16.0262 20.5298 16.485C21.9285 16.9336 23.3942 17.1368 24.8622 17.0859C26.3326 17.1284 27.7988 16.9099 29.1929 16.4405C27.7924 16.0034 26.3286 15.8039 24.8622 15.8503Z" fill="#198AB3"/>
<path d="M14.2471 15.7836C13.331 16.5014 12.282 17.0311 11.1605 17.3423C10.0389 17.6534 8.86698 17.7399 7.71194 17.5967C6.55689 17.4535 5.44153 17.0835 4.42995 16.5078C3.41836 15.9322 2.5305 15.1624 1.81738 14.2425C1.10426 13.3227 0.579936 12.271 0.274545 11.1479C-0.0308472 10.0248 -0.111288 8.85243 0.0378438 7.69814C0.186976 6.54384 0.562741 5.4304 1.14355 4.42179C1.72435 3.41317 2.49875 2.52928 3.42223 1.82089L3.51467 1.75867C5.37555 0.349926 7.71847 -0.26479 10.0313 0.0489042C12.3441 0.362598 14.4386 1.57919 15.857 3.43271C17.2754 5.28624 17.9023 7.62593 17.6006 9.94033C17.2989 12.2547 16.0932 14.3555 14.2471 15.7836Z" fill="url(#paint1_radial_855_9788)"/>
<path opacity="0.6" d="M6.43379 6.96129C8.93202 4.58612 12.2436 3.25563 15.6907 3.24218C15.2376 2.68238 14.7176 2.18026 14.1422 1.74707C12.4656 1.84975 10.8185 2.23628 9.27113 2.89018C7.67654 3.57422 6.23492 4.57036 5.03113 5.81996C5.60993 6.03849 6.10216 6.439 6.43379 6.96129Z" fill="white"/>
<path opacity="0.6" d="M2.06046 10.5156C1.70327 11.3993 1.415 12.3093 1.19824 13.2374C1.39021 13.5703 1.60526 13.8893 1.8418 14.1921C2.0211 14.4268 2.21216 14.6522 2.41424 14.8676C2.66451 13.6314 3.04039 12.4239 3.53602 11.2641C2.98132 11.165 2.4681 10.9047 2.06046 10.5156Z" fill="white"/>
<path opacity="0.55" d="M3.07914 5.79934C2.71441 4.81528 2.47548 3.78908 2.36803 2.74512C1.93156 3.20245 1.5481 3.70757 1.22491 4.2509C1.34194 5.09237 1.5402 5.92054 1.81691 6.72378C2.14085 6.30153 2.57882 5.98076 3.07914 5.79934Z" fill="#F2F2F2"/>
<path d="M4.0338 11.3049C5.59983 11.3049 6.86935 10.0354 6.86935 8.46934C6.86935 6.90331 5.59983 5.63379 4.0338 5.63379C2.46776 5.63379 1.19824 6.90331 1.19824 8.46934C1.19824 10.0354 2.46776 11.3049 4.0338 11.3049Z" fill="url(#paint2_linear_855_9788)"/>
<path opacity="0.55" d="M8.1778 13.6529C8.17835 13.4064 8.22836 13.1624 8.32485 12.9356C8.42135 12.7087 8.56237 12.5035 8.73958 12.332C7.77843 11.8083 6.89124 11.1591 6.10135 10.4014C5.69067 10.846 5.14885 11.1481 4.55469 11.2636C5.0235 11.743 5.52677 12.1874 6.06047 12.5934C6.72677 13.0957 7.4414 13.5304 8.1938 13.8911C8.18313 13.8122 8.17779 13.7326 8.1778 13.6529Z" fill="#F2F2F2"/>
<path opacity="0.55" d="M14.7147 13.8666C13.7491 13.8682 12.7867 13.7567 11.8471 13.5342C11.8524 13.5725 11.8524 13.6114 11.8471 13.6497C11.8472 13.8888 11.8001 14.1255 11.7086 14.3464C11.6171 14.5672 11.4829 14.7679 11.3138 14.9368C12.4836 15.17 13.6784 15.2536 14.8693 15.1857C15.3343 14.7691 15.7516 14.3023 16.1138 13.7937C15.6493 13.8458 15.1821 13.8702 14.7147 13.8666Z" fill="#F2F2F2"/>
<path d="M10.0071 15.5025C11.0282 15.5025 11.856 14.6747 11.856 13.6536C11.856 12.6325 11.0282 11.8047 10.0071 11.8047C8.98598 11.8047 8.1582 12.6325 8.1582 13.6536C8.1582 14.6747 8.98598 15.5025 10.0071 15.5025Z" fill="url(#paint3_linear_855_9788)"/>
<path opacity="0.7" d="M12.2827 8.7288C12.3749 8.32208 12.5978 7.95677 12.9173 7.6888C11.206 6.44585 9.65001 5.00205 8.28268 3.38836C7.48644 2.45274 6.79049 1.43622 6.20624 0.355469C5.81791 0.470709 5.43926 0.616344 5.07379 0.791024C5.6997 1.96596 6.44816 3.07137 7.30668 4.0888C8.76701 5.83536 10.4385 7.39394 12.2827 8.7288Z" fill="#F2F2F2"/>
<path d="M14.2151 11.0435C15.2991 11.0435 16.1778 10.1648 16.1778 9.08083C16.1778 7.99688 15.2991 7.11816 14.2151 7.11816C13.1312 7.11816 12.2524 7.99688 12.2524 9.08083C12.2524 10.1648 13.1312 11.0435 14.2151 11.0435Z" fill="white"/>
<path opacity="0.55" d="M17.5093 10.4016L17.1449 10.2238L16.8338 10.0585H16.7716L16.5013 9.83984H16.4284L16.1067 9.63184C15.9948 10.0144 15.7614 10.3502 15.4418 10.5883C15.5662 10.6718 15.7013 10.7429 15.8364 10.8158L15.92 10.8692L16.2755 11.0665L17.1644 11.5341C17.2893 11.1563 17.3897 10.7709 17.4649 10.3803L17.5093 10.4016Z" fill="#F2F2F2"/>
<path d="M4.0338 11.3049C5.59983 11.3049 6.86935 10.0354 6.86935 8.46934C6.86935 6.90331 5.59983 5.63379 4.0338 5.63379C2.46776 5.63379 1.19824 6.90331 1.19824 8.46934C1.19824 10.0354 2.46776 11.3049 4.0338 11.3049Z" fill="white"/>
<path d="M10.0071 15.5025C11.0282 15.5025 11.856 14.6747 11.856 13.6536C11.856 12.6325 11.0282 11.8047 10.0071 11.8047C8.98598 11.8047 8.1582 12.6325 8.1582 13.6536C8.1582 14.6747 8.98598 15.5025 10.0071 15.5025Z" fill="white"/>
<path d="M16 26.6421C16.2204 26.6421 16.4373 26.6332 16.6542 26.6207V28.7541C16.4373 28.7665 16.2186 28.7719 16 28.7719C12.7847 28.7659 9.68951 27.5501 7.32974 25.3662C4.96997 23.1823 3.51851 20.1903 3.26398 16.9852C3.97924 17.4742 4.75645 17.8658 5.57509 18.1496C6.07415 20.5466 7.38263 22.699 9.28088 24.2453C11.1791 25.7917 13.5516 26.638 16 26.6421ZM16.9742 3.26074C17.4641 3.97632 17.8574 4.75339 18.144 5.57185C19.863 5.92957 21.4674 6.70536 22.8153 7.83061C24.1632 8.95586 25.213 10.3959 25.872 12.0234C26.6612 12.0591 27.4473 12.1446 28.2258 12.2794C27.4736 9.81968 25.9978 7.64362 23.9908 6.03491C21.9838 4.4262 19.5387 3.45947 16.9742 3.26074Z" fill="url(#paint4_linear_855_9788)"/>
</g>
<defs>
<linearGradient id="paint0_linear_855_9788" x1="17.7244" y1="23.8241" x2="32" y2="23.8241" gradientUnits="userSpaceOnUse">
<stop stop-color="#005BA1"/>
<stop offset="0.3" stop-color="#0071C8"/>
<stop offset="0.5" stop-color="#0078D4"/>
<stop offset="0.8" stop-color="#006ABB"/>
<stop offset="1" stop-color="#005BA1"/>
</linearGradient>
<radialGradient id="paint1_radial_855_9788" cx="0" cy="0" r="1" gradientUnits="userSpaceOnUse" gradientTransform="translate(8.81441 8.80125) scale(8.83653)">
<stop stop-color="#5EA0EF"/>
<stop offset="1" stop-color="#0078D4"/>
</radialGradient>
<linearGradient id="paint2_linear_855_9788" x1="4.05691" y1="11.3778" x2="4.02491" y2="7.27468" gradientUnits="userSpaceOnUse">
<stop stop-color="#CCCCCC"/>
<stop offset="1" stop-color="#FCFCFC"/>
</linearGradient>
<linearGradient id="paint3_linear_855_9788" x1="10.0071" y1="15.5025" x2="10.0071" y2="11.8154" gradientUnits="userSpaceOnUse">
<stop stop-color="#CCCCCC"/>
<stop offset="1" stop-color="#FCFCFC"/>
</linearGradient>
<linearGradient id="paint4_linear_855_9788" x1="15.7458" y1="3.26074" x2="15.7458" y2="28.7772" gradientUnits="userSpaceOnUse">
<stop stop-color="#50E6FF"/>
<stop offset="1" stop-color="#32BEDD"/>
</linearGradient>
<clipPath id="clip0_855_9788">
<rect width="32" height="32" fill="white"/>
</clipPath>
</defs>
</svg>
