<svg width="32" height="32" viewBox="0 0 32 32" fill="none" xmlns="http://www.w3.org/2000/svg">
<g clip-path="url(#clip0_855_9790)">
<path d="M19.2747 30.4424C16.5529 30.0068 16.5529 28.046 16.5529 24.9971H11.1075C11.1075 28.1544 11.1075 30.1153 8.38576 30.4424C8.01116 30.4988 7.6687 30.6862 7.41933 30.9714C7.16997 31.2566 7.02987 31.621 7.02399 31.9997H20.6364C20.6305 31.621 20.4905 31.2566 20.2411 30.9714C19.9917 30.6862 19.6493 30.4988 19.2747 30.4424Z" fill="url(#paint0_linear_855_9790)"/>
<path d="M26.5973 6.79688H0.926222C0.414684 6.79688 0 7.21156 0 7.7231V24.2475C0 24.7591 0.414684 25.1738 0.926222 25.1738H26.5973C27.1089 25.1738 27.5236 24.7591 27.5236 24.2475V7.7231C27.5236 7.21156 27.1089 6.79688 26.5973 6.79688Z" fill="url(#paint1_linear_855_9790)"/>
<path d="M9.27466 1.15378V14.8711C9.29934 15.1798 9.43988 15.4678 9.66806 15.6772C9.89625 15.8866 10.1952 16.0019 10.5049 16H18.8231C18.8677 16.0038 18.9109 16.0178 18.9493 16.0409L20.6364 17.1662L22.4924 18.3964L23.1609 18.8338C23.2216 18.8796 23.2934 18.9084 23.3689 18.9173C23.487 18.9285 23.6048 18.8938 23.6979 18.8202C23.7909 18.7467 23.852 18.6401 23.8684 18.5227V16.2116C23.8688 16.1852 23.8746 16.1593 23.8855 16.1353C23.8963 16.1113 23.912 16.0898 23.9315 16.0722C23.951 16.0545 23.9739 16.041 23.9989 16.0326C24.0238 16.0241 24.0502 16.0209 24.0764 16.0231H30.7555C31.068 16.0196 31.3681 15.9005 31.598 15.6887C31.8278 15.477 31.971 15.1876 32 14.8764V1.15378C31.9692 0.842669 31.8257 0.553569 31.5965 0.341019C31.3672 0.12847 31.0681 0.00716842 30.7555 0L10.5049 0C10.1935 0.00635571 9.89552 0.12776 9.66836 0.340807C9.4412 0.553853 9.30095 0.843455 9.27466 1.15378Z" fill="url(#paint2_linear_855_9790)"/>
<path d="M21.1236 7.31957H14.0444C13.8326 7.28938 13.6387 7.18375 13.4984 7.02209C13.3582 6.86043 13.2809 6.65359 13.2809 6.43957C13.2809 6.22555 13.3582 6.01871 13.4984 5.85705C13.6387 5.69539 13.8326 5.58976 14.0444 5.55957H21.1324C21.3443 5.58976 21.5382 5.69539 21.6785 5.85705C21.8187 6.01871 21.8959 6.22555 21.8959 6.43957C21.8959 6.65359 21.8187 6.86043 21.6785 7.02209C21.5382 7.18375 21.3443 7.28938 21.1324 7.31957H21.1236ZM26.4036 9.79779C26.4036 9.56204 26.3099 9.33595 26.1432 9.16925C25.9765 9.00255 25.7504 8.9089 25.5147 8.9089H14.0444C13.8326 8.9391 13.6387 9.04472 13.4984 9.20638C13.3582 9.36804 13.2809 9.57488 13.2809 9.7889C13.2809 10.0029 13.3582 10.2098 13.4984 10.3714C13.6387 10.5331 13.8326 10.6387 14.0444 10.6689H25.5324C25.762 10.6644 25.981 10.5711 26.1434 10.4087C26.3058 10.2463 26.399 10.0274 26.4036 9.79779Z" fill="white"/>
</g>
<defs>
<linearGradient id="paint0_linear_855_9790" x1="13.8311" y1="31.9944" x2="13.8311" y2="24.8886" gradientUnits="userSpaceOnUse">
<stop offset="0.15" stop-color="#CCCCCC"/>
<stop offset="1" stop-color="#707070"/>
</linearGradient>
<linearGradient id="paint1_linear_855_9790" x1="13.7618" y1="25.2022" x2="13.7618" y2="6.79688" gradientUnits="userSpaceOnUse">
<stop stop-color="#0078D4"/>
<stop offset="0.82" stop-color="#5EA0EF"/>
</linearGradient>
<linearGradient id="paint2_linear_855_9790" x1="20.6364" y1="-0.565333" x2="20.6364" y2="19.0027" gradientUnits="userSpaceOnUse">
<stop offset="0.212" stop-color="#FFB34D"/>
<stop offset="1" stop-color="#FAA21D"/>
</linearGradient>
<clipPath id="clip0_855_9790">
<rect width="32" height="32" fill="white"/>
</clipPath>
</defs>
</svg>
