<svg width="32" height="32" viewBox="0 0 32 32" fill="none" xmlns="http://www.w3.org/2000/svg">
<g clip-path="url(#clip0_855_9795)">
<path d="M30.1013 20.583C29.0552 23.493 27.1363 26.0091 24.6067 27.7877C22.0772 29.5664 19.0603 30.5208 15.968 30.5208C14.5661 30.5266 13.1708 30.329 11.8257 29.9341C12.0302 29.4687 12.1391 28.9669 12.1457 28.4586C12.1635 28.4586 12.1991 28.4763 12.2169 28.4763C13.4351 28.8336 14.6985 29.0133 15.968 29.0097C18.5057 29.0046 20.9914 28.2892 23.1436 26.9445C25.2958 25.5998 27.0285 23.6794 28.1457 21.4008L28.1635 21.383L30.1013 20.583Z" fill="#32BEDD"/>
<path d="M6.36796 25.0102C5.92251 25.2578 5.5347 25.5971 5.23018 26.0057C3.99755 24.7421 2.99307 23.2744 2.26129 21.668L4.11018 22.0769V22.5391C4.10845 22.7831 4.19046 23.0204 4.34252 23.2112C4.49457 23.4021 4.70749 23.5351 4.94574 23.588L5.19462 23.6413C5.52766 24.102 5.89619 24.5359 6.29685 24.9391L6.36796 25.0102Z" fill="#32BEDD"/>
<path d="M21.9591 1.70323C21.7099 2.14872 21.547 2.63729 21.4791 3.14323C21.4435 3.12545 21.3902 3.10768 21.3547 3.0899C19.6568 2.34509 17.822 1.96359 15.968 1.9699C13.9605 1.97325 11.9787 2.42139 10.1651 3.28209C8.3515 4.14278 6.75114 5.39465 5.4791 6.94768L4.96354 7.05434C4.72499 7.10302 4.51026 7.23184 4.35503 7.4194C4.1998 7.60697 4.11341 7.842 4.11021 8.08545V8.90323L2.29688 9.24101C3.4969 6.62421 5.42323 4.40712 7.84679 2.8534C10.2703 1.29967 13.0892 0.474693 15.968 0.476566C18.0273 0.477809 20.0651 0.895043 21.9591 1.70323Z" fill="#32BEDD"/>
<path d="M29.9947 10.1339L28.0569 9.45835C27.7026 8.72854 27.2737 8.03743 26.7769 7.39612C26.7413 7.34279 26.7058 7.30724 26.688 7.27168C27.1651 7.09572 27.6008 6.8234 27.968 6.47168C28.8247 7.583 29.508 8.81776 29.9947 10.1339Z" fill="#32BEDD"/>
<path d="M17.9058 21.1696L22.4213 22.1652L15.4169 25.0665C15.3813 25.0665 15.3636 25.0843 15.328 25.0843C15.2578 25.0825 15.1911 25.0538 15.1414 25.0042C15.0918 24.9546 15.0631 24.8878 15.0613 24.8176V6.12962C15.0631 6.05946 15.0918 5.99267 15.1414 5.94305C15.1911 5.89342 15.2578 5.86475 15.328 5.86295C15.3587 5.86018 15.3896 5.86636 15.4169 5.88073L23.3458 8.65406L17.9236 9.66739C17.7047 9.71701 17.5087 9.83851 17.3669 10.0125C17.2251 10.1865 17.1457 10.403 17.1413 10.6274V20.2274C17.1398 20.4487 17.2152 20.6637 17.3546 20.8356C17.4941 21.0074 17.6889 21.1255 17.9058 21.1696Z" fill="white"/>
<path d="M1.95553 10.0759L4.10664 9.66699V21.3114L1.91998 20.8314L0.159978 20.4403C0.111458 20.4312 0.0681105 20.4043 0.0384906 20.3648C0.00887058 20.3253 -0.00487077 20.2761 -2.19237e-05 20.227V10.627C-0.00155481 10.5785 0.0134557 10.531 0.042538 10.4922C0.0716203 10.4535 0.11304 10.4258 0.159978 10.4137L1.95553 10.0759Z" fill="#A67AF4"/>
<path d="M17.9057 21.1696L22.4213 22.1652L15.4168 25.0665C15.3813 25.0665 15.3635 25.0843 15.3279 25.0843C15.2578 25.0825 15.191 25.0538 15.1414 25.0042C15.0918 24.9546 15.0631 24.8878 15.0613 24.8176V6.12962C15.0631 6.05946 15.0918 5.99267 15.1414 5.94305C15.191 5.89342 15.2578 5.86475 15.3279 5.86295C15.3587 5.86018 15.3895 5.86636 15.4168 5.88073L23.3457 8.65406L17.9235 9.66739C17.7046 9.71701 17.5086 9.83851 17.3669 10.0125C17.2251 10.1865 17.1457 10.403 17.1413 10.6274V20.2274C17.1397 20.4487 17.2151 20.6637 17.3546 20.8356C17.494 21.0074 17.6888 21.1255 17.9057 21.1696Z" fill="url(#paint0_linear_855_9795)"/>
<path d="M15.264 5.86621L5.1164 7.78266C5.04539 7.79783 4.98181 7.8371 4.93645 7.8938C4.89108 7.95051 4.86673 8.02115 4.86751 8.09377V22.5418C4.86687 22.6133 4.89066 22.683 4.93493 22.7392C4.97921 22.7955 5.04134 22.8349 5.11107 22.8511L15.2551 25.0662C15.3006 25.0752 15.3476 25.0739 15.3925 25.0625C15.4375 25.051 15.4794 25.0298 15.5151 25.0001C15.5509 24.9705 15.5796 24.9333 15.5992 24.8913C15.6188 24.8492 15.6287 24.8033 15.6284 24.7569V6.18266C15.6291 6.1418 15.6218 6.1012 15.6068 6.06319C15.5918 6.02517 15.5695 5.99048 15.5411 5.96109C15.5127 5.93171 15.4788 5.9082 15.4413 5.89192C15.4038 5.87564 15.3635 5.86691 15.3226 5.86621H15.264Z" fill="url(#paint1_linear_855_9795)"/>
<path opacity="0.5" d="M10.5742 8.74795V22.1915L14.1048 22.7799V8.11328L10.5742 8.74795Z" fill="#B796F9"/>
<path opacity="0.5" d="M6.23816 9.47314V21.2509L9.31194 21.8962V8.94336L6.23816 9.47314Z" fill="#B796F9"/>
<path d="M28.4444 3.64062C28.4426 4.25693 28.2584 4.85892 27.9149 5.37064C27.5714 5.88236 27.084 6.28088 26.5143 6.51592C25.9445 6.75096 25.3179 6.812 24.7135 6.69133C24.1092 6.57066 23.554 6.27369 23.1182 5.83789C22.6824 5.40208 22.3855 4.84697 22.2648 4.24258C22.1441 3.63819 22.2052 3.0116 22.4402 2.44186C22.6752 1.87211 23.0738 1.38475 23.5855 1.04124C24.0972 0.697739 24.6992 0.513485 25.3155 0.511727C25.7267 0.510789 26.134 0.59108 26.514 0.74799C26.894 0.904899 27.2393 1.13534 27.5301 1.42607C27.8208 1.7168 28.0512 2.0621 28.2081 2.44213C28.365 2.82217 28.4453 3.22946 28.4444 3.64062Z" fill="#32BEDD"/>
<path d="M8.26664 31.5238C9.99369 31.5238 11.3937 30.1237 11.3937 28.3966C11.3937 26.6696 9.99369 25.2695 8.26664 25.2695C6.53958 25.2695 5.13953 26.6696 5.13953 28.3966C5.13953 30.1237 6.53958 31.5238 8.26664 31.5238Z" fill="#32BEDD"/>
<path d="M32 11.8913V18.725C31.9988 18.8007 31.9759 18.8745 31.934 18.9376C31.8921 19.0006 31.8329 19.0503 31.7635 19.0806L30.4017 19.6424L24.944 21.8966H24.9244C24.902 21.9 24.8792 21.9 24.8569 21.8966C24.8097 21.8966 24.7645 21.8779 24.7311 21.8445C24.6978 21.8112 24.6791 21.766 24.6791 21.7188V9.3046C24.6793 9.27226 24.6884 9.2406 24.7053 9.21303C24.7222 9.18547 24.7464 9.16304 24.7751 9.14816H24.8089C24.8198 9.14462 24.8317 9.14462 24.8426 9.14816C24.8638 9.14621 24.885 9.1512 24.9031 9.16238H24.9226H24.944L30.3111 11.0219L31.7333 11.5233C31.8116 11.5475 31.8799 11.5965 31.928 11.6628C31.9761 11.7292 32.0013 11.8093 32 11.8913Z" fill="#773ADC"/>
<path d="M24.816 9.13836L18.0604 10.4095C18.0131 10.4197 17.9708 10.446 17.9406 10.484C17.9105 10.5219 17.8944 10.569 17.8951 10.6175V20.2335C17.8946 20.2811 17.9104 20.3275 17.9398 20.365C17.9692 20.4024 18.0105 20.4288 18.0569 20.4397L24.8124 21.917C24.8389 21.9227 24.8663 21.9231 24.893 21.9181C24.9197 21.9132 24.9451 21.9029 24.9677 21.888C24.9904 21.8731 25.0099 21.8539 25.025 21.8314C25.0402 21.8089 25.0507 21.7836 25.056 21.757C25.0578 21.7417 25.0578 21.7262 25.056 21.7108V9.34458C25.0565 9.28972 25.0352 9.23689 24.997 9.1976C24.9587 9.15831 24.9064 9.13574 24.8515 9.1348C24.8396 9.13453 24.8277 9.13572 24.816 9.13836Z" fill="#A67AF4"/>
</g>
<defs>
<linearGradient id="paint0_linear_855_9795" x1="15.6408" y1="15.4718" x2="26.1031" y2="15.4718" gradientUnits="userSpaceOnUse">
<stop offset="0.001" stop-color="#773ADC"/>
<stop offset="1" stop-color="#552F99"/>
</linearGradient>
<linearGradient id="paint1_linear_855_9795" x1="10.2471" y1="6.71421" x2="10.2471" y2="24.4973" gradientUnits="userSpaceOnUse">
<stop stop-color="#A67AF4"/>
<stop offset="0.999" stop-color="#773ADC"/>
</linearGradient>
<clipPath id="clip0_855_9795">
<rect width="32" height="32" fill="white"/>
</clipPath>
</defs>
</svg>
