<svg width="32" height="32" viewBox="0 0 32 32" fill="none" xmlns="http://www.w3.org/2000/svg">
<g clip-path="url(#clip0_850_22074)">
<path d="M32 0H0V32H32V0Z" fill="#ED7100"/>
<path fill-rule="evenodd" clip-rule="evenodd" d="M22.4 8.00005H24V7.20005H22.4V8.00005ZM21.6 6.40005H24.8V5.60005H21.6V6.40005ZM22.4 16H24V15.2H22.4V16ZM21.6 17.6H24.8V16.8H21.6V17.6ZM14.26 18.3032C14.3496 18.228 14.4 18.1168 14.4 18C14.4 17.8832 14.3496 17.772 14.26 17.6968L8.66005 12.8968L8.14005 13.5032L13.3848 18L8.14005 22.4968L8.66005 23.1032L14.26 18.3032ZM13.6 22.4H21.6V21.6H13.6V22.4ZM27.2 26V21.6H26.4V26C26.4 26.2208 26.22 26.4 26 26.4H6.00005C5.78005 26.4 5.60005 26.2208 5.60005 26V6.00005C5.60005 5.77925 5.78005 5.60005 6.00005 5.60005H16V4.80005H6.00005C5.33845 4.80005 4.80005 5.33845 4.80005 6.00005V26C4.80005 26.6616 5.33845 27.2 6.00005 27.2H26C26.6616 27.2 27.2 26.6616 27.2 26ZM20 16.8904C20 15.9752 20.344 15.1024 20.968 14.4336L26.0168 9.02645C26.78 8.20885 27.2 7.14245 27.2 6.02405V4.80005H26.4V6.02405C26.4 6.93925 26.056 7.81205 25.432 8.48085L20.3832 13.888C19.62 14.7056 19.2 15.7712 19.2 16.8904V18.4H20V16.8904ZM24.8416 12.6296L24.2944 13.2152L25.432 14.4336C26.056 15.1024 26.4 15.9752 26.4 16.8904V18.4H27.2V16.8904C27.2 15.7712 26.78 14.7056 26.0168 13.888L24.8416 12.6296ZM20.3832 9.02645C19.62 8.20885 19.2 7.14245 19.2 6.02405V4.80005H20V6.02405C20 6.93925 20.344 7.81205 20.968 8.48085L22.1056 9.69925L21.5584 10.2848L20.3832 9.02645Z" fill="white"/>
</g>
<defs>
<clipPath id="clip0_850_22074">
<rect width="32" height="32" fill="white"/>
</clipPath>
</defs>
</svg>
