<svg width="32" height="32" viewBox="0 0 32 32" fill="none" xmlns="http://www.w3.org/2000/svg">
<g clip-path="url(#clip0_850_22069)">
<path d="M32 0H0V32H32V0Z" fill="#ED7100"/>
<path fill-rule="evenodd" clip-rule="evenodd" d="M17.4054 16.2706C17.9246 15.8922 18.267 15.3346 18.367 14.7002C18.467 14.065 18.3142 13.429 17.9358 12.909C17.5574 12.389 17.0006 12.0474 16.3654 11.9474C16.2382 11.9274 16.1118 11.9178 15.9854 11.9178C15.4814 11.9178 14.9902 12.0762 14.575 12.3786C14.055 12.7562 13.7134 13.3146 13.6134 13.949C13.5126 14.5842 13.6654 15.2202 14.0438 15.7394C14.4222 16.2594 14.9798 16.601 15.615 16.7018C16.2542 16.8018 16.887 16.6482 17.4054 16.2706ZM18.1766 16.6506L20.027 19.1962L19.3806 19.6666L17.5342 17.1274C17.0606 17.3898 16.5366 17.5314 15.9966 17.5314C15.8286 17.5314 15.659 17.5186 15.4894 17.4914C14.6438 17.3578 13.9006 16.9034 13.3966 16.2098C12.8926 15.5178 12.6886 14.6706 12.8222 13.8242C12.9558 12.9786 13.4118 12.2354 14.1046 11.7314C14.7966 11.2274 15.6422 11.0218 16.4902 11.157C17.3358 11.2906 18.0798 11.7458 18.583 12.4386C19.087 13.1314 19.2902 13.9786 19.1566 14.8242C19.0446 15.5362 18.6942 16.1658 18.1766 16.6506ZM7.19423 26.3906H24.7942V24.7906H7.19423V26.3906ZM25.5942 24.3906V26.7906C25.5942 27.0122 25.4158 27.1906 25.1942 27.1906H6.79423C6.57343 27.1906 6.39423 27.0122 6.39423 26.7906V24.3906C6.39423 24.1698 6.57343 23.9906 6.79423 23.9906H7.99423V15.1906C7.99423 14.7498 8.35343 14.3906 8.79423 14.3906H11.9942V15.1906H8.79423V23.9906H23.1942V15.1906H19.9942V14.3906H23.1942C23.6358 14.3906 23.9942 14.7498 23.9942 15.1906V23.9906H25.1942C25.4158 23.9906 25.5942 24.1698 25.5942 24.3906ZM27.1942 15.0842L27.1926 15.3154C27.1926 15.369 27.183 16.8506 26.1822 18.1106L25.5558 17.613C26.3782 16.5778 26.3926 15.3194 26.3926 15.3058L26.3942 15.0842C26.395 12.4658 24.6086 11.8514 23.2646 11.617L23.0766 11.5618C22.8782 11.4994 22.7606 11.2946 22.807 11.0914C23.0446 10.0466 22.7374 9.25219 21.9638 8.91139C21.1238 8.54179 20.0414 8.82339 19.547 9.53699C19.4606 9.66179 19.3126 9.72739 19.1638 9.70579C19.015 9.68579 18.8894 9.58339 18.8406 9.44099C18.5206 8.52419 18.0574 7.75379 17.4638 7.14979C16.7366 6.40979 14.7438 4.82019 11.9246 6.02899C10.1326 6.79939 9.01983 8.33299 9.01983 10.0322L9.05823 11.2786C9.06383 11.4658 8.93983 11.6314 8.75903 11.6786L8.65903 11.7042C7.33663 12.0458 5.83743 12.433 5.60463 14.9194C5.59343 15.033 5.60063 15.305 5.60623 15.4282L4.80623 15.4602C4.80063 15.3122 4.79503 14.9826 4.80783 14.845C5.07903 11.9538 6.91663 11.3362 8.24943 10.9842L8.21983 10.0442C8.21983 8.00739 9.51903 6.19219 11.6094 5.29379C13.8782 4.32019 16.2798 4.80419 18.0342 6.58899C18.575 7.13859 19.0198 7.80579 19.359 8.57619C20.1462 7.93619 21.3166 7.75139 22.2862 8.17939C23.3214 8.63539 23.8174 9.62899 23.6558 10.8794C25.9886 11.3482 27.195 12.7658 27.1942 15.0842Z" fill="white"/>
</g>
<defs>
<clipPath id="clip0_850_22069">
<rect width="32" height="32" fill="white"/>
</clipPath>
</defs>
</svg>
