<svg width="32" height="32" viewBox="0 0 32 32" fill="none" xmlns="http://www.w3.org/2000/svg">
<g clip-path="url(#clip0_850_22101)">
<path d="M32 0H0V32H32V0Z" fill="#ED7100"/>
<path fill-rule="evenodd" clip-rule="evenodd" d="M12.0616 13.0995L9.00169 16.141L12.0616 19.1785L12.6229 18.6205L10.1251 16.141L12.6229 13.6575L12.0616 13.0995ZM5.59401 25.6109H15.1215V6.67099H5.59401V25.6109ZM4.80005 26.4001H15.9155V5.88183H4.80005V26.4001ZM6.10373 15.7464C6.10373 20.2336 9.77659 23.8842 14.2918 23.8842V23.0951C10.2149 23.0951 6.89769 19.7979 6.89769 15.7464C6.89769 11.694 10.2149 8.39768 14.2918 8.39768V7.60852C9.77659 7.60852 6.10373 11.2584 6.10373 15.7464ZM17.1692 19.9013V20.6905C19.8813 20.6905 22.0869 18.4974 22.0869 15.8024C22.0869 13.1066 19.8813 10.9135 17.1692 10.9135V11.7027C19.4431 11.7027 21.293 13.5422 21.293 15.8024C21.293 18.0626 19.4431 19.9013 17.1692 19.9013ZM27.2 14.1681V17.4376C27.2 17.8803 26.838 18.2401 26.3926 18.2401H24.9857C24.8277 18.7563 24.6181 19.2574 24.3616 19.7356L25.3573 20.7252C25.6725 21.0385 25.6725 21.5475 25.3573 21.8608L23.031 24.1731C22.7166 24.4856 22.2029 24.4856 21.8885 24.1731L20.892 23.1827C20.4117 23.4384 19.9075 23.6467 19.3891 23.8037V25.2014C19.3891 25.6449 19.0262 26.0055 18.5808 26.0055H16.9365V25.2164H18.5808L18.5951 23.2024L18.8905 23.1243C19.5431 22.9522 20.1727 22.6926 20.761 22.3525L21.0254 22.1994L22.4498 23.6151L24.7959 21.3029L23.3716 19.8682L23.5248 19.6054C23.8678 19.0198 24.1298 18.394 24.3029 17.7445L24.3815 17.451H26.3926L26.4061 14.1681L24.3815 14.1531L24.3029 13.8603C24.1298 13.2108 23.8678 12.585 23.5248 11.9994L23.3716 11.7374L24.7959 10.3217L22.4696 7.98969L21.0254 9.40545L20.761 9.25235C20.1727 8.91143 19.5431 8.6518 18.8905 8.47976L18.5951 8.40242V6.40268L16.9699 6.38926V5.6001H18.5808C19.0262 5.6001 19.3891 5.95996 19.3891 6.40268V7.80108C19.9075 7.95812 20.4117 8.16646 20.8928 8.42136L21.8885 7.43175C22.2029 7.11924 22.7166 7.11845 23.031 7.43175L25.3573 9.744C25.6725 10.0573 25.6725 10.5671 25.3573 10.8796L24.3616 11.8692C24.6181 12.3475 24.8277 12.8486 24.9857 13.3639H26.3926C26.838 13.3639 27.2 13.7245 27.2 14.1681Z" fill="white"/>
</g>
<defs>
<clipPath id="clip0_850_22101">
<rect width="32" height="32" fill="white"/>
</clipPath>
</defs>
</svg>
