<svg width="32" height="32" viewBox="0 0 32 32" fill="none" xmlns="http://www.w3.org/2000/svg">
<g clip-path="url(#clip0_850_22090)">
<path d="M32 0H0V32H32V0Z" fill="#ED7100"/>
<path fill-rule="evenodd" clip-rule="evenodd" d="M20.572 16.464L18.8464 17.4808L23.8056 20.4568C23.9256 20.5288 23.9992 20.6584 24 20.7984V22.892L25.6 21.7904V19.4288L20.572 16.464ZM15.8032 18.5856L23.2 22.9512L23.2008 21.0272L17.9432 17.872C17.8432 17.8448 17.7568 17.7792 17.7048 17.6896C17.612 17.532 17.6296 17.3176 17.76 17.1896C17.8168 17.1328 17.8856 17.0944 17.9576 17.076L25.248 12.7792L23.5888 11.6728L7.80565 21.1432C7.74245 21.1808 7.67125 21.2 7.60005 21.2C7.52245 21.2 7.44565 21.1776 7.37845 21.1328L5.60005 19.9472V21.7904L7.60565 23.1792L15.3968 18.5856C15.5224 18.512 15.6784 18.512 15.8032 18.5856ZM10.628 15.5352L12.3536 14.5184L7.39445 11.5432C7.27445 11.4712 7.20085 11.3416 7.20005 11.2016L7.19125 9.10805L5.60005 10.2096V12.5712L10.628 15.5352ZM15.3968 13.4136L7.99125 9.04805L7.99925 10.9728L13.3416 14.1792C13.4624 14.2512 13.5368 14.3824 13.536 14.5232C13.5352 14.664 13.4608 14.7952 13.3392 14.8664L5.95285 19.2208L7.61125 20.3272L23.3944 10.8568C23.5264 10.7768 23.6928 10.7808 23.8216 10.8672L25.6 12.0528V10.2096L23.5944 8.82085L15.8032 13.4136C15.6784 13.488 15.5224 13.488 15.3968 13.4136ZM26.2032 13.1448L21.3592 16L26.2032 18.8552C26.3248 18.9272 26.4 19.0584 26.4 19.2V22C26.4 22.1312 26.336 22.2544 26.2272 22.3288L23.8392 23.9824C23.7712 24.0296 23.6912 24.0536 23.612 24.0536C23.5416 24.0536 23.4712 24.0352 23.4088 23.9976L15.6 19.3952L7.79125 23.9976C7.65845 24.0776 7.48885 24.0712 7.36085 23.9824L4.97285 22.3288C4.86405 22.2544 4.80005 22.1312 4.80005 22V19.2C4.80005 19.0584 4.87525 18.9272 4.99685 18.8552L9.84085 16L4.99685 13.1448C4.87525 13.0728 4.80005 12.9416 4.80005 12.8V10C4.80005 9.86885 4.86405 9.74565 4.97285 9.67125L7.36085 8.01765C7.48885 7.92885 7.65845 7.92245 7.79125 8.00165L15.6 12.6048L23.4088 8.00165C23.5416 7.92245 23.7112 7.92885 23.8392 8.01765L26.2272 9.67125C26.336 9.74565 26.4 9.86885 26.4 10V12.8C26.4 12.9416 26.3248 13.0728 26.2032 13.1448ZM17.6 24.9856L15.6 26.3192L13.9216 25.2L15.8224 23.9328C15.9328 23.8584 16 23.7336 16 23.6V20.8H15.2V23.3856L13.6 24.4528V22.4H12.8V25.2C12.8 25.3336 12.8672 25.4584 12.9784 25.5328L15.3784 27.1328C15.4456 27.1776 15.5224 27.2 15.6 27.2C15.6776 27.2 15.7552 27.1776 15.8224 27.1328L18.2216 25.5328C18.3328 25.4584 18.4 25.3336 18.4 25.2V22.4H17.6V24.9856ZM13.6 9.60005H12.8V6.80005C12.8 6.66645 12.8672 6.54165 12.9784 6.46725L15.3784 4.86725C15.5128 4.77765 15.688 4.77765 15.8224 4.86725L18.2216 6.46725C18.3328 6.54165 18.4 6.66645 18.4 6.80005V9.60005H17.6V7.54725L16 8.61365V11.2H15.2V8.40005C15.2 8.26645 15.2672 8.14165 15.3784 8.06725L17.2792 6.80005L15.6 5.68085L13.6 7.01365V9.60005Z" fill="white"/>
</g>
<defs>
<clipPath id="clip0_850_22090">
<rect width="32" height="32" fill="white"/>
</clipPath>
</defs>
</svg>
