<svg width="32" height="32" viewBox="0 0 32 32" fill="none" xmlns="http://www.w3.org/2000/svg">
<g clip-path="url(#clip0_850_22084)">
<path d="M32 0H0V32H32V0Z" fill="#ED7100"/>
<path fill-rule="evenodd" clip-rule="evenodd" d="M20.0255 23.6528L16.0255 20.9864V19.0472L18.0207 18.0496L20.0255 19.104V23.6528ZM11.2255 23.6528V19.104L13.2303 18.0496L15.2255 19.0472V20.9864L11.2255 23.6528ZM6.81914 16L10.8927 13.624L12.8255 14.6416V17.3584L10.8927 18.376L6.81914 16ZM11.2255 8.34725L15.2255 11.0144V12.9528L13.2303 13.9504L11.2255 12.896V8.34725ZM15.6255 18.3528L13.6255 17.3528V14.6472L15.6255 13.6472L17.6255 14.6472V17.3528L15.6255 18.3528ZM20.0255 8.34725V12.896L18.0207 13.9504L16.0255 12.9528V11.0144L20.0255 8.34725ZM24.4319 16L20.3583 18.376L18.4255 17.3584V14.6416L20.3583 13.624L24.4319 16ZM25.8031 19.5584L25.4479 18.8416L23.2775 19.9128L21.1935 18.816L25.4271 16.3456C25.5495 16.2736 25.6255 16.1424 25.6255 16C25.6255 15.8576 25.5495 15.7264 25.4271 15.6544L21.1935 13.1848L23.2775 12.0872L25.4479 13.1584L25.8031 12.4416L24.1527 11.6272L25.8111 10.7536L25.4399 10.0464L23.7623 10.9288L23.9639 9.15765L23.1687 9.06725L22.9055 11.38L20.8255 12.4744V7.60005C20.8255 7.45285 20.7439 7.31685 20.6143 7.24725C20.4847 7.17845 20.3271 7.18565 20.2039 7.26725L16.0255 10.0528V7.79285L17.8751 6.31285L17.3751 5.68725L16.0255 6.76805V4.80005H15.2255V6.76805L13.8759 5.68725L13.3751 6.31285L15.2255 7.79285V10.0528L11.0471 7.26725C10.9239 7.18565 10.7671 7.17845 10.6367 7.24725C10.5071 7.31685 10.4255 7.45285 10.4255 7.60005V12.4744L8.34554 11.38L8.08234 9.06725L7.28714 9.15765L7.48874 10.9288L5.81114 10.0464L5.43994 10.7536L7.09834 11.6272L5.44794 12.4416L5.80314 13.1584L7.97354 12.0872L10.0575 13.1848L5.82394 15.6544C5.70154 15.7264 5.62554 15.8576 5.62554 16C5.62554 16.1424 5.70154 16.2736 5.82394 16.3456L10.0575 18.816L7.97354 19.9128L5.80314 18.8416L5.44794 19.5584L7.09834 20.3728L5.43994 21.2464L5.81114 21.9536L7.48874 21.0712L7.28714 22.8424L8.08234 22.9328L8.34554 20.62L10.4255 19.5256V24.4C10.4255 24.548 10.5071 24.6832 10.6367 24.7528C10.7671 24.8224 10.9239 24.8144 11.0471 24.7328L15.2255 21.948V24.2072L13.3751 25.6872L13.8759 26.3128L15.2255 25.232V27.2H16.0255V25.232L17.3751 26.3128L17.8751 25.6872L16.0255 24.2072V21.948L20.2039 24.7328C20.2711 24.7776 20.3479 24.8 20.4255 24.8C20.4903 24.8 20.5551 24.7848 20.6143 24.7528C20.7439 24.6832 20.8255 24.548 20.8255 24.4V19.5256L22.9055 20.62L23.1687 22.9328L23.9639 22.8424L23.7623 21.0712L25.4399 21.9536L25.8111 21.2464L24.1527 20.3728L25.8031 19.5584Z" fill="white"/>
</g>
<defs>
<clipPath id="clip0_850_22084">
<rect width="32" height="32" fill="white"/>
</clipPath>
</defs>
</svg>
