<svg width="32" height="32" viewBox="0 0 32 32" fill="none" xmlns="http://www.w3.org/2000/svg">
<g clip-path="url(#clip0_850_22059)">
<path d="M32 0H0V32H32V0Z" fill="#ED7100"/>
<path fill-rule="evenodd" clip-rule="evenodd" d="M16.0001 24.8464C15.2441 24.8464 14.5121 24.7493 13.8057 24.5826L16.0001 17.2512L18.1945 24.5826C17.4881 24.7493 16.7561 24.8464 16.0001 24.8464ZM9.9329 15.8576H12.4817C12.5633 17.9641 13.1169 19.8685 13.9817 21.0111C11.7249 20.2622 10.1449 18.2439 9.9329 15.8576ZM13.9793 9.6288C13.5449 10.2005 13.1841 10.9631 12.9249 11.8628C12.3705 11.7337 11.8545 11.5685 11.3945 11.3688C12.0833 10.5854 12.9689 9.97681 13.9793 9.6288ZM20.3769 11.3335C19.9257 11.5364 19.4145 11.7024 18.8673 11.8355C18.6065 10.9438 18.2473 10.1877 17.8153 9.62159C18.8113 9.96077 19.6889 10.5614 20.3769 11.3335ZM17.9457 20.9622L17.9177 20.8708C18.7345 19.7129 19.2425 17.8887 19.3193 15.8576H21.8673C21.6577 18.1766 20.1249 20.178 17.9457 20.9622ZM18.5193 15.8576C18.4561 17.3915 18.1265 18.8116 17.6073 19.8332L16.4169 15.8576H18.5193ZM19.3297 15.0557C19.3145 14.1865 19.2217 13.363 19.0625 12.6117C19.7297 12.4489 20.3441 12.2356 20.8825 11.9766C21.4833 12.8675 21.8481 13.9243 21.8985 15.0557H19.3297ZM15.7937 9.30165C15.8289 9.29684 15.8585 9.29764 15.8961 9.29764C15.9313 9.29684 15.9617 9.29684 16.0129 9.30406C16.7833 9.38905 17.5873 10.401 18.0753 11.9999C17.3681 12.1202 16.6153 12.1851 15.8425 12.1851C15.1097 12.1851 14.3937 12.129 13.7185 12.0207C14.2057 10.4098 15.0137 9.38825 15.7937 9.30165ZM13.5201 12.7985C14.2601 12.9212 15.0433 12.987 15.8425 12.987C16.6825 12.987 17.5025 12.9132 18.2745 12.7777C18.4217 13.4633 18.5137 14.2282 18.5297 15.0557H13.2705C13.2865 14.2371 13.3761 13.4793 13.5201 12.7985ZM9.9017 15.0557C9.9513 13.9428 10.3033 12.902 10.8873 12.0199C11.4353 12.2741 12.0577 12.4826 12.7305 12.6398C12.5761 13.3831 12.4857 14.197 12.4705 15.0557H9.9017ZM14.3193 20.0785C13.7241 19.0466 13.3489 17.5319 13.2817 15.8576H15.5833L14.3193 20.0785ZM24.9873 11.8331C25.3937 12.9164 25.6001 14.0566 25.6001 15.2241C25.6001 19.4924 22.8113 23.1152 18.9657 24.3709L18.1801 21.7456C20.8665 20.8002 22.7121 18.2166 22.7121 15.3204C22.7121 11.6471 19.7305 8.5896 16.1145 8.50862C15.9609 8.48616 15.7833 8.49017 15.7265 8.50461C15.7161 8.50461 15.7057 8.50621 15.6945 8.50701H15.6921H15.6905C12.0473 8.61125 9.0881 11.6591 9.0881 15.3204C9.0881 18.3137 11.0073 20.9229 13.8001 21.8122L13.0345 24.3709C9.1889 23.1152 6.4001 19.4924 6.4001 15.2241C6.4001 9.91827 10.7065 5.6019 16.0001 5.6019C18.2801 5.6019 20.4321 6.39012 22.1545 7.83907H20.4001V8.64092H23.6001V5.43351H22.8001V7.34593C20.9113 5.70213 18.5305 4.80005 16.0001 4.80005C10.2657 4.80005 5.6001 9.47645 5.6001 15.2241C5.6001 19.854 8.6297 23.7847 12.8049 25.1398L12.0169 27.7699L12.7833 28L13.5761 25.3507C14.3545 25.5384 15.1641 25.6482 16.0001 25.6482C16.8361 25.6482 17.6457 25.5384 18.4241 25.3507L19.2169 28L19.9833 27.7699L19.1953 25.1398C23.3705 23.7847 26.4001 19.854 26.4001 15.2241C26.4001 13.9604 26.1769 12.724 25.7361 11.5508L24.9873 11.8331Z" fill="white"/>
</g>
<defs>
<clipPath id="clip0_850_22059">
<rect width="32" height="32" fill="white"/>
</clipPath>
</defs>
</svg>
