<svg width="32" height="32" viewBox="0 0 32 32" fill="none" xmlns="http://www.w3.org/2000/svg">
<g clip-path="url(#clip0_850_22142)">
<path d="M32 0H0V32H32V0Z" fill="#ED7100"/>
<path fill-rule="evenodd" clip-rule="evenodd" d="M11.3304 21.2352L10.7648 20.6696L5.60005 25.8344V23.2H4.80005V26.8C4.80005 27.0208 4.97925 27.2 5.20005 27.2H8.80005V26.4H6.16565L11.3304 21.2352ZM26.8 4.80005H23.2V5.60005H25.8344L20.9168 10.5176L21.4824 11.0832L26.4 6.16565V8.80005H27.2V5.20005C27.2 4.97925 27.0208 4.80005 26.8 4.80005ZM17.6 24H24V17.6H17.6V24ZM24.8 17.2V24.4C24.8 24.6208 24.6208 24.8 24.4 24.8H17.2C16.9792 24.8 16.8 24.6208 16.8 24.4V17.2C16.8 16.9792 16.9792 16.8 17.2 16.8H24.4C24.6208 16.8 24.8 16.9792 24.8 17.2ZM8.00005 14.4H14.4V8.00005H8.00005V14.4ZM15.2 7.60005V14.8C15.2 15.0208 15.0208 15.2 14.8 15.2H7.60005C7.37925 15.2 7.20005 15.0208 7.20005 14.8V7.60005C7.20005 7.37925 7.37925 7.20005 7.60005 7.20005H14.8C15.0208 7.20005 15.2 7.37925 15.2 7.60005ZM14.8 16.8H7.60005C7.37925 16.8 7.20005 16.9792 7.20005 17.2V22.5376L8.00005 21.7376V17.6H14.4V24H10.2624L9.46245 24.8H14.8C15.0208 24.8 15.2 24.6208 15.2 24.4V17.2C15.2 16.9792 15.0208 16.8 14.8 16.8ZM24 10.2624L24.8 9.46245V14.8C24.8 15.0208 24.6208 15.2 24.4 15.2H17.2C16.9792 15.2 16.8 15.0208 16.8 14.8V7.60005C16.8 7.37925 16.9792 7.20005 17.2 7.20005H22.5376L21.7376 8.00005H17.6V14.4H24V10.2624Z" fill="white"/>
</g>
<defs>
<clipPath id="clip0_850_22142">
<rect width="32" height="32" fill="white"/>
</clipPath>
</defs>
</svg>
