<svg width="32" height="32" viewBox="0 0 32 32" fill="none" xmlns="http://www.w3.org/2000/svg">
<g clip-path="url(#clip0_850_22024)">
<path d="M32 0H0V32H32V0Z" fill="#ED7100"/>
<path fill-rule="evenodd" clip-rule="evenodd" d="M24.7999 20.9588L16.7999 25.3228V21.2156L20.4079 19.2476L21.9591 20.0236L22.3167 19.3076L20.7999 18.5492V13.7444L24.7999 11.482V20.9588ZM11.9999 22.9228V18.8156L14.3999 17.5068V17.9964C14.3999 18.1436 14.4815 18.2796 14.6111 18.3492C14.6703 18.3804 14.7351 18.3964 14.7999 18.3964C14.8775 18.3964 14.9543 18.374 15.0215 18.3292L15.9999 17.6772V20.7412L11.9999 22.9228ZM7.1999 20.5228V11.034L15.1999 6.67001V10.7772L11.5919 12.7452L9.9575 11.9276L9.5999 12.6436L11.1999 13.4436V18.3412L7.1999 20.5228ZM17.4215 16.7292C17.5327 16.6548 17.5999 16.53 17.5999 16.3964V15.554L19.9999 14.1964V18.5588L16.7999 20.3044V17.1964H16.7207L17.4215 16.7292ZM15.1999 15.81L16.7999 14.7436V16.182L15.1999 17.2492V15.81ZM14.5783 15.2636C14.4671 15.338 14.3999 15.4628 14.3999 15.5964V16.5948L11.9999 17.9044V13.434L15.1999 11.6884V14.8492L14.5783 15.2636ZM19.9999 9.07001V13.278L17.5999 14.6348V13.9964C17.5999 13.8484 17.5183 13.7132 17.3887 13.6436C17.2583 13.5748 17.1015 13.5812 16.9783 13.6636L15.9999 14.3156V11.2516L19.9999 9.07001ZM25.4015 10.4508C25.3935 10.446 25.3831 10.4476 25.3751 10.4436L25.3783 10.438L23.4407 9.47641L23.0839 10.1924L24.3471 10.8196L20.7999 12.8252V8.39641C20.7999 8.25561 20.7255 8.12441 20.6039 8.05241C20.4831 7.98041 20.3319 7.97801 20.2087 8.04521L15.9999 10.3412V6.64361L17.3799 7.33321L17.7375 6.61801L15.7791 5.63881L15.7759 5.64441C15.6599 5.58761 15.5231 5.58281 15.4087 5.64521L6.6087 10.4452C6.4799 10.5148 6.3999 10.65 6.3999 10.7964V21.1964C6.3999 21.3372 6.4743 21.4684 6.5959 21.5404C6.6047 21.5452 6.6159 21.5436 6.6239 21.5484L6.6207 21.554L8.6687 22.578L9.0263 21.862L7.6631 21.1804L11.1999 19.2516V23.5964C11.1999 23.7372 11.2743 23.8684 11.3959 23.9404C11.4583 23.9772 11.5295 23.9964 11.5999 23.9964C11.6655 23.9964 11.7319 23.9796 11.7911 23.9476L15.9999 21.6516V25.3492L14.3871 24.5428L14.0295 25.2588L16.2207 26.354L16.2239 26.3484C16.2799 26.3756 16.3391 26.3964 16.3999 26.3964C16.4655 26.3964 16.5319 26.3796 16.5911 26.3476L25.3911 21.5476C25.5199 21.4772 25.5999 21.3428 25.5999 21.1964V10.7964C25.5999 10.654 25.5239 10.5228 25.4015 10.4508Z" fill="white"/>
</g>
<defs>
<clipPath id="clip0_850_22024">
<rect width="32" height="32" fill="white"/>
</clipPath>
</defs>
</svg>
