<svg width="32" height="32" viewBox="0 0 32 32" fill="none" xmlns="http://www.w3.org/2000/svg">
<g clip-path="url(#clip0_850_22158)">
<path d="M32 0H0V32H32V0Z" fill="#ED7100"/>
<path fill-rule="evenodd" clip-rule="evenodd" d="M12.6239 17.1594L13.4143 17.6626L12.9847 18.3378L12.0423 17.7378C11.5135 18.2394 10.9471 18.7242 10.3223 19.1794L15.9999 22.7282L21.6767 19.1794C21.0519 18.7242 20.4855 18.2394 19.9567 17.7378L19.0143 18.3378L18.5847 17.6626L19.3751 17.1594C18.9591 16.721 18.5759 16.2658 18.2279 15.7946L16.2215 17.133C16.1543 17.1778 16.0767 17.2002 15.9999 17.2002C15.9223 17.2002 15.8447 17.1778 15.7775 17.133L13.7719 15.7946C13.4231 16.2658 13.0407 16.721 12.6239 17.1594ZM14.2271 15.1378L15.9999 16.3194L17.7727 15.1378C16.9527 13.8802 16.3527 12.5218 15.9999 11.0562C15.6463 12.5218 15.0463 13.8802 14.2271 15.1378ZM8.5319 14.9026C9.9607 13.6162 11.5999 11.8514 11.5999 9.60015H12.3999C12.3999 10.857 12.8367 11.8298 13.5415 12.993L12.8575 13.4074C12.4927 12.8066 12.2007 12.2474 11.9855 11.6754C11.4423 13.0594 10.4415 14.2098 9.4535 15.1418L11.9391 16.7234C14.3679 14.2162 15.5999 11.1514 15.5999 7.57215C15.5999 7.35055 15.7783 7.17215 15.9999 7.17215C16.2207 7.17215 16.3999 7.35055 16.3999 7.57215C16.3999 11.1514 17.6319 14.2162 20.0607 16.7234L22.5455 15.1418C21.5575 14.2098 20.5567 13.0586 20.0135 11.6754C19.7991 12.2474 19.5071 12.8058 19.1415 13.4074L18.4575 12.993C19.1631 11.8298 19.5999 10.857 19.5999 9.60015H20.3999C20.3999 11.8514 22.0391 13.6162 23.4679 14.9026C23.5607 14.9866 23.6087 15.109 23.5983 15.233C23.5879 15.3578 23.5199 15.4706 23.4143 15.5378L20.6479 17.2978C21.2455 17.8506 21.9031 18.3762 22.6255 18.8698C22.7367 18.9458 22.8023 19.073 22.7999 19.2082C22.7967 19.3426 22.7263 19.4674 22.6111 19.5394L16.2111 23.5394C16.1463 23.5794 16.0735 23.6002 15.9999 23.6002C15.9263 23.6002 15.8527 23.5794 15.7879 23.5394L9.3879 19.5394C9.2735 19.4674 9.2031 19.3426 9.1999 19.2082C9.1975 19.073 9.2631 18.9458 9.3743 18.8698C10.0967 18.3762 10.7535 17.8506 11.3511 17.2978L8.5847 15.5378C8.4791 15.4706 8.4111 15.3578 8.4015 15.233C8.3903 15.109 8.4391 14.9866 8.5319 14.9026ZM15.9999 6.05935L17.6311 6.98175L18.0247 6.28575L16.1967 5.25215C16.0743 5.18255 15.9247 5.18255 15.8031 5.25215L13.9743 6.28575L14.3687 6.98175L15.9999 6.05935ZM25.3967 10.4522L23.6071 9.44095L23.2135 10.137L24.7999 11.033V20.9666L15.9999 25.941L7.1999 20.9666V11.033L8.7855 10.137L8.3919 9.44095L6.6031 10.4522C6.4767 10.5226 6.3999 10.6562 6.3999 10.8002V21.2002C6.3999 21.3442 6.4767 21.477 6.6031 21.5482L15.8031 26.7482C15.8639 26.7826 15.9319 26.8002 15.9999 26.8002C16.0679 26.8002 16.1359 26.7826 16.1967 26.7482L25.3967 21.5482C25.5223 21.477 25.5999 21.3442 25.5999 21.2002V10.8002C25.5999 10.6562 25.5223 10.5226 25.3967 10.4522ZM21.7959 8.41615L19.8047 7.29135L19.4103 7.98735L21.4023 9.11215L21.7959 8.41615ZM12.5887 7.98735L12.1951 7.29135L10.2039 8.41615L10.5975 9.11215L12.5887 7.98735ZM15.7775 19.933L14.5775 19.133L15.0215 18.4674L15.9999 19.1194L16.9775 18.4674L17.4215 19.133L16.2215 19.933C16.1543 19.9778 16.0767 20.0002 15.9999 20.0002C15.9223 20.0002 15.8447 19.9778 15.7775 19.933Z" fill="white"/>
</g>
<defs>
<clipPath id="clip0_850_22158">
<rect width="32" height="32" fill="white"/>
</clipPath>
</defs>
</svg>
