<svg width="32" height="32" viewBox="0 0 32 32" fill="none" xmlns="http://www.w3.org/2000/svg">
<g clip-path="url(#clip0_850_22007)">
<path d="M32 0H0V32H32V0Z" fill="#ED7100"/>
<path fill-rule="evenodd" clip-rule="evenodd" d="M16.8192 18.4253V17.6221C18.2416 17.4253 19.324 16.2061 19.324 14.7117C19.324 13.2181 18.2416 11.9981 16.8192 11.8021V10.9981C18.6888 11.1989 20.124 12.7749 20.124 14.7117C20.124 16.6485 18.6888 18.2245 16.8192 18.4253ZM17.6208 6.08449H16.8192V5.28449H18.0432C18.1536 5.28449 18.2584 5.33009 18.3344 5.40929C18.4096 5.49009 18.4488 5.59729 18.4424 5.70689L18.3776 6.87489C19.0464 7.05569 19.6872 7.31969 20.2888 7.66369L21.0664 6.79009C21.1384 6.70849 21.2424 6.65969 21.3528 6.65649C21.4512 6.65089 21.5688 6.69489 21.6472 6.77329L24.1872 9.30689C24.2648 9.38449 24.3072 9.49089 24.304 9.60129C24.3016 9.71089 24.2528 9.81489 24.1704 9.88849L23.3 10.6669C23.6448 11.2661 23.9112 11.9061 24.0936 12.5765L25.2592 12.5093C25.3672 12.5085 25.4768 12.5421 25.5568 12.6173C25.6368 12.6925 25.6824 12.7981 25.6824 12.9085L25.6872 16.4949C25.6872 16.6053 25.6416 16.7101 25.5624 16.7861C25.4824 16.8621 25.3736 16.9029 25.2648 16.8949L24.1024 16.8301C23.8928 17.6093 23.5688 18.3501 23.136 19.0357L22.46 18.6093C22.9032 17.9045 23.2208 17.1357 23.4024 16.3245C23.4456 16.1341 23.5912 15.9981 23.816 16.0125L24.8864 16.0725L24.8832 13.3325L23.8088 13.3941C23.6112 13.4069 23.4384 13.2749 23.396 13.0837C23.2104 12.2709 22.892 11.5037 22.448 10.8045C22.3424 10.6389 22.3728 10.4221 22.5192 10.2917L23.3224 9.57409L21.3816 7.63889L20.6656 8.44289C20.536 8.59009 20.3208 8.62049 20.1536 8.51569C19.4512 8.07329 18.6832 7.75729 17.872 7.57489C17.6816 7.53169 17.5496 7.35729 17.5608 7.16209L17.6208 6.08449ZM12.4864 25.0821L11.2256 24.3253L13.8656 22.3453L13.3856 21.7061L10.4848 23.8813L8.02085 22.4029V19.4653L9.83285 18.3677L9.41845 17.6837L7.58405 18.7949L5.60085 18.0013L5.60005 15.5933L7.80805 14.2573L7.39445 13.5725L5.60005 14.6589L5.60085 13.1885L7.60245 12.0917L9.64165 13.4413V14.6101L8.60565 15.2917L9.04485 15.9597L10.068 15.2877L11.2104 15.8709V17.2253H12.0104V15.6253C12.0104 15.4749 11.9264 15.3381 11.7928 15.2693L10.4416 14.5805V13.4413L12.6824 11.9589C12.7952 11.8853 12.8624 11.7597 12.8624 11.6253V9.22529H12.0624V11.4101L10.0416 12.7461L8.02085 11.4109V8.31969L9.60885 7.26049V9.22529H10.4088V6.72689L12.0248 5.65009L15.2008 6.92369V14.5229L13.4368 13.3317L12.9888 13.9949L15.2008 15.4885V16.6501L11.78 19.3101L12.2704 19.9413L15.2008 17.6629V23.8261L12.4864 25.0821ZM15.7496 6.28209L12.1272 4.82929C12.0024 4.77889 11.8656 4.79489 11.756 4.86769L7.39925 7.77249C7.28805 7.84689 7.22085 7.97169 7.22085 8.10529V11.3885L5.00805 12.6005C4.88005 12.6709 4.80085 12.8053 4.80085 12.9517L4.80005 15.2501L4.80085 18.2725C4.80085 18.4357 4.90085 18.5829 5.05205 18.6437L7.22085 19.5109V22.6293C7.22085 22.7701 7.29445 22.8997 7.41525 22.9725L12.2568 25.8765C12.3192 25.9149 12.3912 25.9341 12.4624 25.9341C12.5192 25.9341 12.5768 25.9221 12.6304 25.8965L15.7688 24.4445C15.9096 24.3789 16.0008 24.2373 16.0008 24.0813V6.65329C16.0008 6.49009 15.9016 6.34209 15.7496 6.28209ZM24.1224 24.4157H18.488C18.3864 24.4157 18.308 24.3981 18.2552 24.3653C17.9968 24.2021 17.6888 23.8877 17.6888 23.3149C17.6888 22.6053 18.1392 22.3405 18.5184 22.2429C18.7024 22.1949 18.8288 22.0237 18.8176 21.8325L18.8032 21.5949C18.8032 20.9693 19.248 20.2709 19.7944 20.0397C20.0456 19.9325 20.2784 19.8901 20.4896 19.8901C21.0912 19.8901 21.516 20.2349 21.7016 20.4221C21.9056 20.6269 22.0728 20.9029 22.184 21.2197C22.2336 21.3589 22.356 21.4605 22.5024 21.4821C22.652 21.5029 22.796 21.4429 22.8832 21.3237C23.0096 21.1533 23.2256 21.0797 23.42 21.1445C23.648 21.2189 23.7784 21.4621 23.78 21.7741C23.7504 21.9877 23.896 22.1869 24.108 22.2237C24.4912 22.2893 25.1336 22.5205 25.1336 23.3277C25.1336 24.2685 24.2744 24.3997 24.1224 24.4157ZM24.5568 21.5101C24.4584 20.8685 24.0528 20.5101 23.6696 20.3845C23.3472 20.2789 23.0048 20.3093 22.7136 20.4517C22.5888 20.2293 22.44 20.0301 22.2688 19.8581C21.508 19.0925 20.4672 18.8861 19.4816 19.3029C18.652 19.6557 18.0232 20.6165 18.004 21.5741C17.3 21.8725 16.8888 22.5029 16.8888 23.3149C16.8888 24.3013 17.4776 24.8205 17.8288 25.0421C18.012 25.1573 18.2344 25.2157 18.488 25.2157H24.1408C24.1504 25.2157 24.1608 25.2149 24.1696 25.2141C24.78 25.1701 25.9336 24.7181 25.9336 23.3277C25.9336 22.2965 25.2688 21.7309 24.5568 21.5101Z" fill="white"/>
</g>
<defs>
<clipPath id="clip0_850_22007">
<rect width="32" height="32" fill="white"/>
</clipPath>
</defs>
</svg>
