<svg width="32" height="32" viewBox="0 0 32 32" fill="none" xmlns="http://www.w3.org/2000/svg">
<g clip-path="url(#clip0_850_22001)">
<path d="M32 0H0V32H32V0Z" fill="#ED7100"/>
<path fill-rule="evenodd" clip-rule="evenodd" d="M19.4372 24.7999H22.638V21.5999H19.4372V24.7999ZM23.438 21.1999V25.1999C23.438 25.4207 23.2588 25.5999 23.038 25.5999H19.0372C18.8156 25.5999 18.6372 25.4207 18.6372 25.1999V21.1999C18.6372 20.9791 18.8156 20.7999 19.0372 20.7999H23.038C23.2588 20.7999 23.438 20.9791 23.438 21.1999ZM25.438 18.3999H21.438C21.2164 18.3999 21.038 18.5791 21.038 18.7999V19.5999C21.038 19.8207 21.2164 19.9999 21.438 19.9999C21.6588 19.9999 21.838 19.8207 21.838 19.5999V19.1999H25.038V22.3999H24.638C24.4164 22.3999 24.238 22.5791 24.238 22.7999C24.238 23.0207 24.4164 23.1999 24.638 23.1999H25.438C25.6588 23.1999 25.838 23.0207 25.838 22.7999V18.7999C25.838 18.5791 25.6588 18.3999 25.438 18.3999ZM9.838 10.3999H13.038V7.1999H9.838V10.3999ZM9.038 10.7999V6.7999C9.038 6.5791 9.2164 6.3999 9.438 6.3999H13.438C13.6588 6.3999 13.838 6.5791 13.838 6.7999V10.7999C13.838 11.0207 13.6588 11.1999 13.438 11.1999H9.438C9.2164 11.1999 9.038 11.0207 9.038 10.7999ZM6.238 13.5999H10.238C10.4588 13.5999 10.638 13.4207 10.638 13.1999V12.3999C10.638 12.1791 10.4588 11.9999 10.238 11.9999C10.0164 11.9999 9.838 12.1791 9.838 12.3999V12.7999H6.638V9.5999H7.038C7.2588 9.5999 7.438 9.4207 7.438 9.1999C7.438 8.9791 7.2588 8.7999 7.038 8.7999H6.238C6.0164 8.7999 5.838 8.9791 5.838 9.1999V13.1999C5.838 13.4207 6.0164 13.5999 6.238 13.5999ZM26.6988 17.5855C26.6388 17.7983 26.4164 17.9223 26.2044 17.8615C25.9916 17.8015 25.8684 17.5807 25.9284 17.3679C26.2396 16.2727 26.0388 15.0711 25.4044 14.2319C24.8108 13.4471 23.9036 13.0327 22.7796 13.0327C19.882 13.0327 18.2956 14.6487 16.7276 16.4655C17.7108 17.5887 18.7476 18.6911 20.042 19.3119C20.2412 19.4079 20.3244 19.6463 20.2292 19.8455C20.1596 19.9887 20.0164 20.0727 19.8684 20.0727C19.8092 20.0727 19.7508 20.0599 19.6948 20.0335C18.2948 19.3607 17.214 18.2327 16.1996 17.0775C14.666 18.8679 13.0436 20.6543 10.2356 20.6543C8.6732 20.6543 7.3388 20.0199 6.478 18.8671C5.6572 17.7671 5.3916 16.3543 5.7676 15.0879C5.83 14.8767 6.05 14.7551 6.2652 14.8175C6.4764 14.8807 6.5972 15.1031 6.5348 15.3151C6.2348 16.3263 6.4588 17.5039 7.1196 18.3887C7.8252 19.3335 8.9316 19.8543 10.2356 19.8543C12.7268 19.8543 14.1676 18.2231 15.6692 16.4687C14.5364 15.1647 13.4532 13.9479 12.026 13.3735C11.8212 13.2911 11.7212 13.0583 11.8044 12.8535C11.886 12.6479 12.1188 12.5495 12.3244 12.6319C13.89 13.2615 15.07 14.5615 16.1964 15.8551C17.8076 13.9967 19.582 12.2327 22.7796 12.2327C24.1436 12.2327 25.3028 12.7711 26.0428 13.7495C26.8244 14.7839 27.0756 16.2543 26.6988 17.5855Z" fill="white"/>
</g>
<defs>
<clipPath id="clip0_850_22001">
<rect width="32" height="32" fill="white"/>
</clipPath>
</defs>
</svg>
