<svg width="32" height="32" viewBox="0 0 32 32" fill="none" xmlns="http://www.w3.org/2000/svg">
<g clip-path="url(#clip0_850_22019)">
<path d="M32 0H0V32H32V0Z" fill="#ED7100"/>
<path fill-rule="evenodd" clip-rule="evenodd" d="M24 23.9682V20.621L26.4 19.2338V22.6786L24 23.9682ZM26.0089 26.4194H20.2392L19.46 23.2186H20.1576C20.1768 23.2346 20.188 23.2578 20.2112 23.2698L23.4112 24.989C23.4696 25.021 23.5352 25.037 23.6 25.037C23.6648 25.037 23.7304 25.021 23.7888 24.989L24.9192 24.3818L26.0089 26.4194ZM7.08485 24.3842L8.21125 24.989C8.26965 25.021 8.33525 25.037 8.40005 25.037C8.46485 25.037 8.53045 25.021 8.58885 24.989L11.7888 23.2698C11.812 23.2578 11.8232 23.2346 11.8424 23.2186H12.7104L11.692 26.4194H5.95045L7.08485 24.3842ZM5.60005 19.4322L8.00005 20.781V23.9682L5.60005 22.6786V19.4322ZM8.40005 17.385L10.6792 18.6098L8.26005 20.009L5.94165 18.7058L8.40005 17.385ZM12.3832 15.0546L14.8816 16.397L13.9832 19.2186H12V18.6506C12 18.5034 11.9184 18.3682 11.7888 18.2986L10.6744 17.6994L12.3832 15.0546ZM12.0544 7.98905L12 8.08425V8.01865L12.0544 7.98905ZM16.4 5.65465L20.2064 7.69945L16.5224 9.82905L12.72 7.63225L16.4 5.65465ZM16.8 16.0898V10.593L20.8 8.28105V13.9402L16.8 16.0898ZM21.3688 17.6554L21.3768 17.6714L20.2112 18.2986C20.0816 18.3682 20 18.5034 20 18.6506V19.2186H18.4872L17.8144 16.453L20.0448 15.2546L21.3688 17.6554ZM20.8 22.4186V20.0186V19.4402L23.2 20.789V23.9682L20.8 22.6786V22.4186ZM16.2112 17.1114C16.2696 17.1434 16.3352 17.1594 16.4 17.1594C16.4648 17.1594 16.5304 17.1434 16.5888 17.1114L17.0872 16.8442L17.6648 19.2186H14.8232L15.5984 16.7826L16.2112 17.1114ZM12 13.9402V8.14025L16 10.4514V16.0898L12 13.9402ZM12 20.0186H13.7288L12.9656 22.4186H12V20.0186ZM11.2 22.6786L8.80005 23.9682V20.621L11.2 19.2338V20.0186V22.4186V22.6786ZM18.6376 23.2186L19.416 26.4194H12.532L13.5504 23.2186H18.6376ZM13.8048 22.4186L14.5688 20.0186H17.8592L18.4432 22.4186H13.8048ZM19.2656 22.4186L18.6824 20.0186H20V22.4186H19.2656ZM23.6 17.385L25.8792 18.6098L23.4528 20.013L21.1344 18.7098L23.6 17.385ZM26.9888 18.2986L23.7888 16.5786C23.672 16.5154 23.528 16.5154 23.4112 16.5786L22.0752 17.297L20.7488 14.8762L21.3888 14.5322C21.5184 14.4626 21.6 14.3266 21.6 14.1794V7.77945C21.6 7.63225 21.5184 7.49705 21.3888 7.42745L16.5888 4.84745C16.472 4.78425 16.328 4.78425 16.2112 4.84745L11.4112 7.42745C11.2816 7.49705 11.2 7.63225 11.2 7.77945V14.1794C11.2 14.3266 11.2816 14.4626 11.4112 14.5322L11.676 14.6746L9.96725 17.3194L8.58885 16.5786C8.47205 16.5154 8.32805 16.5154 8.21125 16.5786L5.01125 18.2986C4.88165 18.3682 4.80005 18.5034 4.80005 18.6506V22.9178C4.80005 23.065 4.88165 23.2002 5.01125 23.2698L6.38085 24.0058L4.92165 26.6194C4.85285 26.7418 4.85365 26.8914 4.92405 27.013C4.99365 27.1354 5.12165 27.2114 5.26245 27.2146L26.5272 27.2194L26.6768 27.2186C26.8168 27.2186 26.9472 27.1442 27.0192 27.0234C27.0912 26.9034 27.0944 26.7538 27.028 26.6298L25.6232 24.0034L26.9888 23.2698C27.1184 23.2002 27.2 23.065 27.2 22.9178V18.6506C27.2 18.5034 27.1184 18.3682 26.9888 18.2986Z" fill="white"/>
</g>
<defs>
<clipPath id="clip0_850_22019">
<rect width="32" height="32" fill="white"/>
</clipPath>
</defs>
</svg>
