<svg width="32" height="32" viewBox="0 0 32 32" fill="none" xmlns="http://www.w3.org/2000/svg">
<g clip-path="url(#clip0_850_22079)">
<path d="M32 0H0V32H32V0Z" fill="#ED7100"/>
<path fill-rule="evenodd" clip-rule="evenodd" d="M20 26.3911V14.3911H12V18.3911V19.1911V26.3911H14.4V23.5911C14.4 23.3703 14.5792 23.1911 14.8 23.1911H17.2C17.4208 23.1911 17.6 23.3703 17.6 23.5911V26.3911H20ZM15.2 26.3911H16.8V23.9911H15.2V26.3911ZM27.2 26.3911V27.1911H20.8H20H17.6H16.8H15.2H14.4H12H11.2H4.80005V26.3911H11.2V19.1911H8.92485C7.37525 19.1911 5.98245 18.2855 5.45765 16.9383C5.34085 16.6383 5.26245 16.3255 5.22405 16.0079C5.19925 15.8127 5.18645 15.6047 5.18645 15.3863C5.18645 13.1143 6.51765 11.8415 7.89125 11.3391L5.82885 10.5863L6.10405 9.83511L9.09845 10.9279C9.30565 11.0039 9.41285 11.2335 9.33685 11.4415L8.24405 14.4359L7.49205 14.1615L8.26325 12.0487C7.53925 12.2887 5.98645 13.0735 5.98645 15.3863C5.98645 15.5703 5.99765 15.7447 6.01765 15.9103C6.04885 16.1631 6.11125 16.4103 6.20325 16.6487C6.60885 17.6911 7.70245 18.3911 8.92485 18.3911H11.2V13.9911C11.2 13.7703 11.3792 13.5911 11.6 13.5911H20.4C20.6208 13.5911 20.8 13.7703 20.8 13.9911V26.3911H27.2ZM18 15.9911H17.2C16.9792 15.9911 16.8 16.1703 16.8 16.3911V17.1911C16.8 17.4119 16.9792 17.5911 17.2 17.5911H18C18.2208 17.5911 18.4 17.4119 18.4 17.1911V16.3911C18.4 16.1703 18.2208 15.9911 18 15.9911ZM14.8 15.9911H14C13.7792 15.9911 13.6 16.1703 13.6 16.3911V17.1911C13.6 17.4119 13.7792 17.5911 14 17.5911H14.8C15.0208 17.5911 15.2 17.4119 15.2 17.1911V16.3911C15.2 16.1703 15.0208 15.9911 14.8 15.9911ZM18 19.1911H17.2C16.9792 19.1911 16.8 19.3703 16.8 19.5911V20.3911C16.8 20.6119 16.9792 20.7911 17.2 20.7911H18C18.2208 20.7911 18.4 20.6119 18.4 20.3911V19.5911C18.4 19.3703 18.2208 19.1911 18 19.1911ZM14.8 19.1911H14C13.7792 19.1911 13.6 19.3703 13.6 19.5911V20.3911C13.6 20.6119 13.7792 20.7911 14 20.7911H14.8C15.0208 20.7911 15.2 20.6119 15.2 20.3911V19.5911C15.2 19.3703 15.0208 19.1911 14.8 19.1911ZM8.96965 9.86792L8.20085 9.64871C8.68725 7.94391 9.89045 6.50311 11.3416 5.88871C13.5816 4.94071 15.952 5.41191 17.6856 7.15031C18.2184 7.68551 18.6568 8.33351 18.992 9.08231C19.6344 8.55351 20.4784 8.36631 21.2784 8.59831C22.3848 8.92231 23.1272 9.93832 23.296 11.3415C24.384 11.5991 26.6744 12.4911 26.6744 15.4311C26.6744 17.8815 24.7576 19.0623 23.4256 19.5887L25.248 20.4583L24.9024 21.1799L22.0248 19.8071C21.8256 19.7119 21.7416 19.4727 21.8368 19.2735L23.2104 16.3959L23.932 16.7407L22.8816 18.9415C24.0944 18.5247 25.8744 17.5535 25.8744 15.4311C25.8744 12.8631 23.7568 12.2223 22.8472 12.0655C22.6328 12.0287 22.4872 11.8279 22.5192 11.6127C22.4416 10.4679 21.8928 9.61112 21.0536 9.36632C20.368 9.16552 19.6272 9.43191 19.1736 10.0463C19.084 10.1647 18.9424 10.2231 18.792 10.2039C18.6464 10.1823 18.5232 10.0807 18.4744 9.94152C18.16 9.05111 17.704 8.30231 17.1184 7.71511C16.4016 6.99591 14.4328 5.45031 11.6536 6.62471C10.4392 7.13991 9.38485 8.41272 8.96965 9.86792Z" fill="white"/>
</g>
<defs>
<clipPath id="clip0_850_22079">
<rect width="32" height="32" fill="white"/>
</clipPath>
</defs>
</svg>
