<svg width="32" height="32" viewBox="0 0 32 32" fill="none" xmlns="http://www.w3.org/2000/svg">
<g clip-path="url(#clip0_850_22132)">
<path d="M32 0H0V32H32V0Z" fill="#ED7100"/>
<path fill-rule="evenodd" clip-rule="evenodd" d="M13.4168 18.4H15.52C15.6408 18.4 15.756 18.4552 15.832 18.5496C15.908 18.6448 15.9368 18.768 15.9104 18.8864L15.3768 21.288L18.5824 16.8H16.4792C16.3584 16.8 16.2432 16.7448 16.1672 16.6504C16.0912 16.5552 16.0624 16.432 16.0888 16.3136L16.6224 13.912L13.4168 18.4ZM14.56 23.52C14.5048 23.52 14.4496 23.5088 14.3968 23.4848C14.2232 23.408 14.128 23.2184 14.1688 23.0336L15.0216 19.2H12.6392C12.4896 19.2 12.3528 19.1168 12.284 18.9832C12.2152 18.8496 12.2272 18.6896 12.3136 18.5672L17.1136 11.848C17.2248 11.6936 17.4288 11.6384 17.6024 11.7152C17.776 11.792 17.8712 11.9816 17.8304 12.1664L16.9776 16H19.36C19.5096 16 19.6464 16.0832 19.7152 16.2168C19.784 16.3504 19.772 16.5104 19.6856 16.6328L14.8856 23.352C14.808 23.46 14.6856 23.52 14.56 23.52ZM9.59995 26.4H22.4V10.8C22.4 10.5792 22.5784 10.4 22.8 10.4H24V5.60005H21.6V7.60005C21.6 7.82085 21.4208 8.00005 21.2 8.00005H18C17.7784 8.00005 17.6 7.82085 17.6 7.60005V5.60005H14.4V7.60005C14.4 7.82085 14.2208 8.00005 14 8.00005H10.8C10.5784 8.00005 10.4 7.82085 10.4 7.60005V5.60005H7.99995V10.4H9.19995C9.42075 10.4 9.59995 10.5792 9.59995 10.8V26.4ZM22.8 27.2H9.19995C8.97835 27.2 8.79995 27.0208 8.79995 26.8V11.2H7.59995C7.37835 11.2 7.19995 11.0208 7.19995 10.8V5.20005C7.19995 4.97925 7.37835 4.80005 7.59995 4.80005H10.8C11.0208 4.80005 11.2 4.97925 11.2 5.20005V7.20005H13.6V5.20005C13.6 4.97925 13.7784 4.80005 14 4.80005H18C18.2208 4.80005 18.4 4.97925 18.4 5.20005V7.20005H20.8V5.20005C20.8 4.97925 20.9784 4.80005 21.2 4.80005H24.4C24.6208 4.80005 24.8 4.97925 24.8 5.20005V10.8C24.8 11.0208 24.6208 11.2 24.4 11.2H23.2V26.8C23.2 27.0208 23.0208 27.2 22.8 27.2Z" fill="white"/>
</g>
<defs>
<clipPath id="clip0_850_22132">
<rect width="32" height="32" fill="white"/>
</clipPath>
</defs>
</svg>
