<svg width="32" height="32" viewBox="0 0 32 32" fill="none" xmlns="http://www.w3.org/2000/svg">
<g clip-path="url(#clip0_850_22126)">
<path d="M32 0H0V32H32V0Z" fill="#ED7100"/>
<path fill-rule="evenodd" clip-rule="evenodd" d="M15.2001 5.90745V8.00025H16.0001V5.90745L17.7049 6.93225L18.1169 6.24665L15.8065 4.85705C15.6801 4.78105 15.5201 4.78105 15.3937 4.85705L13.0833 6.24665L13.4953 6.93225L15.2001 5.90745ZM19.4609 26.4002L15.6001 23.8682L11.7393 26.4002H19.4609ZM15.2001 21.1154C14.9537 16.5626 10.9465 12.7418 5.60008 11.9122V13.6002H4.80005V11.453C4.80005 11.3386 4.84968 11.229 4.93528 11.153C4.95368 11.137 4.97768 11.1298 4.99848 11.1178L4.99368 11.1098L7.30488 9.72025L7.71688 10.4066L6.34408 11.2322C10.4617 12.0554 13.7489 14.5818 15.2001 17.8458V16.0002C15.2001 12.6378 13.5185 9.64745 10.9977 8.48825L9.79288 9.15065L9.40728 8.44985L10.7849 7.69145C10.8921 7.63385 11.0209 7.62585 11.1329 7.67385C13.2961 8.58185 14.8953 10.5778 15.6001 13.077C16.3049 10.577 17.9041 8.58185 20.0673 7.67385C20.1793 7.62585 20.3073 7.63385 20.4153 7.69145L21.7929 8.44985L21.4073 9.15065L20.2025 8.48825C17.6817 9.64665 16.0001 12.637 16.0001 16.0002V17.8554C17.4513 14.5818 20.7385 12.0546 24.8561 11.2322L23.4833 10.4066L23.8953 9.72025L26.2065 11.1098L26.2017 11.117C26.2225 11.1298 26.2465 11.137 26.2649 11.153C26.3505 11.229 26.4001 11.3386 26.4001 11.453V13.6002H25.6001V11.9122C20.2569 12.741 16.2505 16.5586 16.0001 21.1298V23.1738L17.6001 24.2226V22.2322C17.7233 19.417 19.7297 17.5474 22.4721 17.6642C23.5681 17.7122 24.5793 18.181 25.3201 18.9858C26.0617 19.7906 26.4441 20.8354 26.3961 21.9258C26.3169 23.7218 24.8241 25.1298 23.0361 25.1298C22.9865 25.1298 22.9369 25.129 22.8873 25.1266C22.1481 25.0946 21.4649 24.7778 20.9649 24.2354C20.4633 23.6914 20.2057 22.9866 20.2377 22.249C20.2921 20.9962 21.2937 20.097 22.5881 20.1474L22.5537 20.9466C21.7057 20.9002 21.0729 21.4722 21.0377 22.2842C21.0145 22.8074 21.1977 23.3074 21.5529 23.693C21.9089 24.0794 22.3953 24.305 22.9217 24.3274C24.3705 24.3906 25.5353 23.2954 25.5961 21.8906C25.6353 21.0146 25.3281 20.1746 24.7321 19.5274C24.1353 18.8794 23.3201 18.5018 22.4377 18.4634C20.1201 18.3546 18.5033 19.885 18.4001 22.2498V24.7474L21.0193 26.4658C21.1673 26.5626 21.2337 26.745 21.1833 26.9146C21.1329 27.0842 20.9769 27.2002 20.8001 27.2002H10.4001C10.2233 27.2002 10.0673 27.0842 10.0169 26.9146C9.96648 26.745 10.0329 26.5626 10.1809 26.4658L12.8001 24.7474V22.2322C12.6969 19.885 11.0793 18.3562 8.76248 18.4634C7.88008 18.5018 7.06488 18.8794 6.46808 19.5274C5.87208 20.1746 5.56488 21.0146 5.60408 21.8906C5.66568 23.2954 6.85128 24.3906 8.27848 24.3274C8.80488 24.305 9.29128 24.0794 9.64728 23.693C10.0025 23.3074 10.1857 22.8074 10.1625 22.2842C10.1281 21.4722 9.47608 20.901 8.64648 20.9466L8.61208 20.1474C9.90328 20.0978 10.9081 20.9962 10.9625 22.249C10.9945 22.9866 10.7369 23.6914 10.2353 24.2354C9.73528 24.7778 9.05208 25.0946 8.31288 25.1266C8.26328 25.129 8.21368 25.1298 8.16408 25.1298C6.37528 25.1306 4.88328 23.7226 4.80408 21.9258C4.75608 20.8354 5.13848 19.7906 5.88008 18.9858C6.62088 18.181 7.63208 17.7122 8.72808 17.6642C11.4793 17.5442 13.4769 19.4162 13.6001 22.2146V24.2226L15.2001 23.1738V21.1154ZM25.6001 17.6002H26.4001V15.2002H25.6001V17.6002ZM4.80008 17.6002H5.60008V15.2002H4.80008V17.6002Z" fill="white"/>
</g>
<defs>
<clipPath id="clip0_850_22126">
<rect width="32" height="32" fill="white"/>
</clipPath>
</defs>
</svg>
