<svg width="32" height="32" viewBox="0 0 32 32" fill="none" xmlns="http://www.w3.org/2000/svg">
<g clip-path="url(#clip0_850_22013)">
<path d="M32 0H0V32H32V0Z" fill="#ED7100"/>
<path fill-rule="evenodd" clip-rule="evenodd" d="M25.6001 14.5018C25.1673 13.0874 24.5577 11.6338 23.7673 10.1258L25.6001 11.0418V14.5018ZM16.2873 18.117C16.1377 17.961 15.8625 17.961 15.7129 18.117C15.5993 18.2338 12.9409 21.0154 12.9409 23.925C12.9409 24.3178 13.0129 24.749 13.1417 25.1698C12.4169 24.3674 12.0001 23.2586 12.0001 21.9946C12.0001 17.9546 15.0233 13.845 16.0001 12.6226C16.9769 13.845 20.0001 17.9546 20.0001 21.9946C20.0001 23.2586 19.5833 24.3674 18.8585 25.1698C18.9873 24.749 19.0593 24.3178 19.0593 23.925C19.0593 21.0154 16.4009 18.2338 16.2873 18.117ZM16.0001 5.78585C17.2817 7.21465 22.4001 13.3002 22.4001 19.337C22.4001 21.1338 21.6649 22.8186 20.4473 24.0378C20.6729 23.4122 20.8001 22.7258 20.8001 21.9946C20.8001 16.8954 16.4833 11.9386 16.3001 11.7306C16.1489 11.5578 15.8513 11.5578 15.7001 11.7306C15.5169 11.9386 11.2001 16.8954 11.2001 21.9946C11.2001 22.7266 11.3273 23.4122 11.5529 24.0378C10.3353 22.8186 9.6001 21.1338 9.6001 19.337C9.6001 13.3002 14.7185 7.21465 16.0001 5.78585ZM6.4001 11.0418L8.2329 10.1258C7.4425 11.6338 6.8329 13.0874 6.4001 14.5018V11.0418ZM17.3729 27.1546C17.3793 27.1522 17.3841 27.1474 17.3905 27.1442L17.3913 27.1458L26.1913 22.3458C26.3201 22.2762 26.4001 22.141 26.4001 21.9946V10.7946C26.4001 10.6434 26.3145 10.505 26.1793 10.437L22.9793 8.83705C22.8209 8.75785 22.6305 8.79145 22.5097 8.92025C22.3881 9.04825 22.3657 9.24105 22.4529 9.39385C24.5705 13.0858 25.6001 16.4226 25.6001 19.5946V21.757L21.6041 23.937C22.6097 22.6514 23.2001 21.0378 23.2001 19.337C23.2001 12.145 16.5697 5.20825 16.2873 4.91705C16.1377 4.76105 15.8625 4.76105 15.7129 4.91705C15.4305 5.20825 8.8001 12.145 8.8001 19.337C8.8001 21.0386 9.3905 22.6514 10.3969 23.937L6.4001 21.757V19.5946C6.4001 16.4226 7.4297 13.0858 9.5473 9.39385C9.6345 9.24105 9.6121 9.04825 9.4905 8.92025C9.3697 8.79145 9.1793 8.75785 9.0209 8.83705L5.8209 10.437C5.6857 10.505 5.6001 10.6434 5.6001 10.7946V21.9946C5.6001 22.141 5.6801 22.2762 5.8089 22.3458L14.6089 27.1458L14.6097 27.1442C14.6161 27.1474 14.6209 27.1522 14.6273 27.1554L14.9913 26.4434L14.9641 26.429C14.2089 26.0586 13.7409 24.8442 13.7409 23.925C13.7409 21.8714 15.3337 19.781 16.0001 18.9962C16.6665 19.781 18.2593 21.8714 18.2593 23.925C18.2593 24.8458 17.7897 26.0626 17.0321 26.4306L17.0089 26.4434L17.3729 27.1546Z" fill="white"/>
</g>
<defs>
<clipPath id="clip0_850_22013">
<rect width="32" height="32" fill="white"/>
</clipPath>
</defs>
</svg>
