<svg width="32" height="32" viewBox="0 0 32 32" fill="none" xmlns="http://www.w3.org/2000/svg">
<g clip-path="url(#clip0_850_22111)">
<path d="M32 0H0V32H32V0Z" fill="#ED7100"/>
<path fill-rule="evenodd" clip-rule="evenodd" d="M16.4005 14.0911C15.9127 14.0911 15.5157 13.7047 15.5157 13.2291C15.5157 12.7542 15.9127 12.3671 16.4005 12.3671C16.8883 12.3671 17.2845 12.7542 17.2845 13.2291C17.2845 13.7047 16.8883 14.0911 16.4005 14.0911ZM23.6631 5.95126L23.0602 5.42267L17.1994 11.7808C16.9596 11.6552 16.6906 11.5769 16.4005 11.5769C15.4662 11.5769 14.7054 12.3181 14.7054 13.2291C14.7054 14.1401 15.4662 14.8812 16.4005 14.8812C17.3348 14.8812 18.0948 14.1401 18.0948 13.2291C18.0948 12.8878 17.9878 12.5701 17.8047 12.3062L23.6631 5.95126ZM12.6619 11.9752C12.5565 12.3299 12.499 12.6973 12.499 13.0687C12.499 14.4064 13.1853 15.6429 14.3367 16.3761L14.7799 15.7148C13.8586 15.1278 13.3093 14.1385 13.3093 13.0687C13.3093 12.9841 13.319 12.9012 13.3263 12.8182C13.3004 12.736 13.2841 12.6736 13.2874 12.6547L12.6619 11.9752ZM19.6627 12.6547C19.6659 12.6736 19.6505 12.736 19.6246 12.8182C19.6311 12.9012 19.6416 12.9849 19.6416 13.0687C19.6416 14.1385 19.0914 15.1278 18.171 15.7148L18.6134 16.3761C19.7648 15.6429 20.4519 14.4064 20.4519 13.0687C20.4519 12.6973 20.3944 12.3299 20.2899 11.9752L19.6627 12.6547ZM18.7292 7.75511C17.9919 7.45486 17.214 7.30474 16.4037 7.30474C13.0492 7.30474 10.3266 9.95955 10.3266 13.2307C10.3266 15.2376 11.3557 17.0944 13.0816 18.1926L13.5191 17.5289C12.0282 16.5808 11.1369 14.9689 11.1369 13.2307C11.1369 10.3941 13.4948 8.09486 16.4037 8.09486C17.0033 8.09486 17.5867 8.18968 18.1458 8.38721L18.7292 7.75511ZM21.7354 10.402C22.2224 11.2712 22.4809 12.243 22.4809 13.2307C22.4809 15.2376 21.4437 17.0944 19.7178 18.1926L19.2802 17.5289C20.772 16.5729 21.6706 14.9689 21.6706 13.2307C21.6706 12.4721 21.4923 11.7136 21.152 11.0341L21.7354 10.402ZM19.9771 6.3961C18.9812 5.92202 17.8541 5.64548 16.6387 5.59017H16.1453C11.7041 5.80351 8.61773 8.9482 8.8203 13.0726C9.03016 17.3235 14.9695 24.5215 16.4037 26.1887C17.8298 24.5215 23.7692 17.3156 23.9799 13.0726C24.0528 11.6346 23.7044 10.2519 22.9751 9.06672L23.4127 8.58474L23.5666 8.48993C24.4507 9.84894 24.8712 11.445 24.7902 13.1121C24.539 18.1847 17.0277 26.7023 16.7035 27.0657C16.6306 27.1526 16.518 27.2 16.4037 27.2C16.2822 27.2 16.1688 27.1526 16.0958 27.0657C15.7717 26.7023 8.2604 18.1847 8.01002 13.1121C7.79043 8.52943 11.2017 5.03709 16.1201 4.80005H16.6549C18.0891 4.87116 19.3864 5.20301 20.5362 5.7956L19.9771 6.3961Z" fill="white"/>
</g>
<defs>
<clipPath id="clip0_850_22111">
<rect width="32" height="32" fill="white"/>
</clipPath>
</defs>
</svg>
