<svg width="32" height="32" viewBox="0 0 32 32" fill="none" xmlns="http://www.w3.org/2000/svg">
<g clip-path="url(#clip0_850_22042)">
<path d="M32 0H0V32H32V0Z" fill="#ED7100"/>
<path fill-rule="evenodd" clip-rule="evenodd" d="M26.3977 20.389C26.3977 19.7274 25.8593 19.189 25.1977 19.189H9.99769C9.33609 19.189 8.79769 19.7274 8.79769 20.389V21.989C8.79769 22.6506 9.33609 23.189 9.99769 23.189H25.1977C25.8593 23.189 26.3977 22.6506 26.3977 21.989V20.389ZM27.1977 20.389V21.989C27.1977 23.0914 26.3009 23.989 25.1977 23.989H9.99769C8.89449 23.989 7.99769 23.0914 7.99769 21.989V20.389C7.99769 19.2866 8.89449 18.389 9.99769 18.389H25.1977C26.3009 18.389 27.1977 19.2866 27.1977 20.389ZM11.1977 21.589H11.9977V20.789H11.1977V21.589ZM12.7977 21.589H15.1977V20.789H12.7977V21.589ZM15.9977 21.589H23.9977V20.789H15.9977V21.589ZM7.69369 12.6266C7.69369 12.773 7.70329 12.9178 7.71929 13.0586C7.74409 13.2578 7.61609 13.4442 7.42169 13.4938C6.75609 13.6634 5.64009 14.1874 5.64009 15.7882L5.64409 15.9466C5.67929 16.6738 5.94489 17.9274 7.31449 18.113L7.20729 18.9058C5.80889 18.7162 4.92489 17.6234 4.84489 15.9826L4.84009 15.7882C4.84009 14.3634 5.60249 13.2738 6.89769 12.817C6.89529 12.7538 6.89369 12.6906 6.89369 12.6266C6.89369 11.0082 7.97769 9.32985 9.41449 8.72105C11.1001 8.00905 12.8785 8.36345 14.1809 9.66905C14.5505 10.0402 14.8601 10.4842 15.1033 10.993C15.5841 10.6482 16.1905 10.533 16.7673 10.7026C17.5993 10.945 18.1633 11.6906 18.3113 12.721C19.1737 12.9138 20.7977 13.5586 20.7977 16.581H19.9977C19.9977 14.145 18.9209 13.6314 17.8681 13.4506C17.6529 13.4138 17.5081 13.2122 17.5409 12.9962C17.4857 12.2282 17.1129 11.637 16.5425 11.4706C16.0849 11.3354 15.5865 11.5162 15.2809 11.929C15.1937 12.0482 15.0505 12.1066 14.9001 12.0874C14.7537 12.0658 14.6313 11.9642 14.5817 11.825C14.3569 11.1874 14.0313 10.6522 13.6145 10.2338C13.1033 9.72185 11.7001 8.62025 9.72729 9.45785C8.58649 9.94025 7.69369 11.3322 7.69369 12.6266Z" fill="white"/>
</g>
<defs>
<clipPath id="clip0_850_22042">
<rect width="32" height="32" fill="white"/>
</clipPath>
</defs>
</svg>
