<svg width="32" height="32" viewBox="0 0 32 32" fill="none" xmlns="http://www.w3.org/2000/svg">
<g clip-path="url(#clip0_846_20738)">
<path d="M32 0H0V32H32V0Z" fill="#D86613"/>
<path d="M24.64 21.5851V18.5216C25.1037 18.4438 25.5369 18.2399 25.8923 17.9321C26.2477 17.6243 26.5115 17.2246 26.6547 16.7768C26.798 16.3291 26.8151 15.8505 26.7043 15.3936C26.5936 14.9367 26.3591 14.5191 26.0266 14.1867C25.6942 13.8543 25.2766 13.6198 24.8198 13.509C24.3629 13.3982 23.8843 13.4154 23.4365 13.5586C22.9887 13.7018 22.589 13.9656 22.2812 14.321C21.9735 14.6764 21.7695 15.1097 21.6917 15.5733H18.6283C18.5393 15.0501 18.29 14.5673 17.9146 14.192C17.5393 13.8167 17.0566 13.5673 16.5333 13.4784V11.2725C17.2807 11.1647 17.9594 10.7777 18.433 10.1896C18.9065 9.60145 19.1397 8.85577 19.0857 8.10262C19.0316 7.34947 18.6942 6.64475 18.1415 6.1303C17.5888 5.61584 16.8618 5.32983 16.1067 5.32983C15.3516 5.32983 14.6245 5.61584 14.0718 6.1303C13.5191 6.64475 13.1817 7.34947 13.1277 8.10262C13.0736 8.85577 13.3068 9.60145 13.7804 10.1896C14.2539 10.7777 14.9327 11.1647 15.68 11.2725V13.4784C15.1567 13.5673 14.674 13.8167 14.2987 14.192C13.9234 14.5673 13.674 15.0501 13.5851 15.5733H10.7392C10.6606 15.0672 10.4435 14.5927 10.1117 14.2025C9.77998 13.8122 9.34665 13.5214 8.85977 13.3624C8.37289 13.2034 7.85148 13.1823 7.35335 13.3015C6.85521 13.4207 6.39981 13.6755 6.03763 14.0376C5.67546 14.3998 5.42065 14.8552 5.30147 15.3534C5.18228 15.8515 5.20338 16.3729 5.36241 16.8598C5.52144 17.3467 5.8122 17.78 6.20245 18.1117C6.5927 18.4435 7.0672 18.6606 7.57333 18.7392V21.5851C6.94041 21.6921 6.37078 22.0329 5.97732 22.5401C5.58386 23.0472 5.39529 23.6837 5.44896 24.3233C5.50264 24.963 5.79466 25.5591 6.26715 25.9936C6.73963 26.4281 7.3581 26.6693 8 26.6693C8.64189 26.6693 9.26036 26.4281 9.73285 25.9936C10.2053 25.5591 10.4974 24.963 10.551 24.3233C10.6047 23.6837 10.4161 23.0472 10.0227 22.5401C9.62921 22.0329 9.05958 21.6921 8.42666 21.5851V18.7392C9.00693 18.6473 9.54322 18.3741 9.95864 17.9586C10.3741 17.5432 10.6473 17.0069 10.7392 16.4267H13.5851C13.674 16.95 13.9234 17.4327 14.2987 17.808C14.674 18.1833 15.1567 18.4327 15.68 18.5216V21.1541C14.9898 21.2616 14.3656 21.6255 13.9321 22.1732C13.4986 22.7209 13.2877 23.412 13.3416 24.1084C13.3955 24.8048 13.7102 25.4553 14.2228 25.9297C14.7354 26.4042 15.4082 26.6678 16.1067 26.6678C16.8052 26.6678 17.4779 26.4042 17.9905 25.9297C18.5031 25.4553 18.8178 24.8048 18.8717 24.1084C18.9256 23.412 18.7147 22.7209 18.2812 22.1732C17.8477 21.6255 17.2235 21.2616 16.5333 21.1541V18.5216C17.0566 18.4327 17.5393 18.1833 17.9146 17.808C18.29 17.4327 18.5393 16.95 18.6283 16.4267H21.6917C21.7807 16.95 22.03 17.4327 22.4054 17.808C22.7807 18.1833 23.2634 18.4327 23.7867 18.5216V21.5851C23.1537 21.6921 22.5841 22.0329 22.1907 22.5401C21.7972 23.0472 21.6086 23.6837 21.6623 24.3233C21.716 24.963 22.008 25.5591 22.4805 25.9936C22.953 26.4281 23.5714 26.6693 24.2133 26.6693C24.8552 26.6693 25.4737 26.4281 25.9462 25.9936C26.4187 25.5591 26.7107 24.963 26.7644 24.3233C26.818 23.6837 26.6295 23.0472 26.236 22.5401C25.8425 22.0329 25.2729 21.6921 24.64 21.5851V21.5851ZM9.70666 24.1067C9.70666 24.4442 9.60657 24.7742 9.41904 25.0548C9.23151 25.3355 8.96496 25.5543 8.65311 25.6834C8.34126 25.8126 7.9981 25.8464 7.66704 25.7805C7.33598 25.7147 7.03188 25.5521 6.7932 25.3135C6.55452 25.0748 6.39198 24.7707 6.32612 24.4396C6.26027 24.1086 6.29407 23.7654 6.42324 23.4536C6.55242 23.1417 6.77116 22.8752 7.05182 22.6876C7.33248 22.5001 7.66245 22.4 8 22.4C8.45263 22.4 8.88673 22.5798 9.20679 22.8999C9.52685 23.2199 9.70666 23.654 9.70666 24.1067ZM8 17.92C7.62026 17.92 7.24904 17.8074 6.9333 17.5964C6.61756 17.3855 6.37147 17.0856 6.22615 16.7348C6.08083 16.3839 6.04281 15.9979 6.11689 15.6254C6.19097 15.253 6.37384 14.9109 6.64235 14.6424C6.91087 14.3738 7.25298 14.191 7.62542 14.1169C7.99787 14.0428 8.38391 14.0808 8.73475 14.2262C9.08558 14.3715 9.38545 14.6176 9.59642 14.9333C9.80739 15.2491 9.92 15.6203 9.92 16C9.91887 16.5089 9.71622 16.9966 9.3564 17.3564C8.99657 17.7162 8.50887 17.9189 8 17.92V17.92ZM13.9733 8.32C13.9733 7.89807 14.0984 7.48561 14.3329 7.13478C14.5673 6.78396 14.9005 6.51052 15.2903 6.34906C15.6801 6.18759 16.109 6.14534 16.5229 6.22766C16.9367 6.30997 17.3168 6.51315 17.6152 6.81151C17.9135 7.10986 18.1167 7.48998 18.199 7.90381C18.2813 8.31763 18.2391 8.74658 18.0776 9.13639C17.9161 9.52621 17.6427 9.85939 17.2919 10.0938C16.9411 10.3282 16.5286 10.4533 16.1067 10.4533C15.5409 10.4533 14.9982 10.2286 14.5982 9.8285C14.1981 9.42842 13.9733 8.8858 13.9733 8.32ZM18.0267 23.8933C18.0267 24.2731 17.9141 24.6443 17.7031 24.96C17.4921 25.2758 17.1923 25.5219 16.8414 25.6672C16.4906 25.8125 16.1045 25.8505 15.7321 25.7764C15.3596 25.7024 15.0175 25.5195 14.749 25.251C14.4805 24.9825 14.2976 24.6404 14.2236 24.2679C14.1495 23.8955 14.1875 23.5094 14.3328 23.1586C14.4781 22.8077 14.7242 22.5079 15.04 22.2969C15.3557 22.0859 15.7269 21.9733 16.1067 21.9733C16.6155 21.9745 17.1032 22.1771 17.4631 22.5369C17.8229 22.8968 18.0255 23.3845 18.0267 23.8933V23.8933ZM16.1067 17.7067C15.7691 17.7067 15.4391 17.6066 15.1585 17.419C14.8778 17.2315 14.6591 16.965 14.5299 16.6531C14.4007 16.3413 14.3669 15.9981 14.4328 15.667C14.4986 15.336 14.6612 15.0319 14.8999 14.7932C15.1386 14.5545 15.4426 14.392 15.7737 14.3261C16.1048 14.2603 16.4479 14.2941 16.7598 14.4232C17.0716 14.5524 17.3382 14.7712 17.5257 15.0518C17.7132 15.3325 17.8133 15.6625 17.8133 16C17.8133 16.4526 17.6335 16.8867 17.3135 17.2068C16.9934 17.5269 16.5593 17.7067 16.1067 17.7067ZM22.5067 16C22.5067 15.6625 22.6068 15.3325 22.7943 15.0518C22.9818 14.7712 23.2484 14.5524 23.5602 14.4232C23.8721 14.2941 24.2152 14.2603 24.5463 14.3261C24.8773 14.392 25.1814 14.5545 25.4201 14.7932C25.6588 15.0319 25.8214 15.336 25.8872 15.667C25.9531 15.9981 25.9193 16.3413 25.7901 16.6531C25.6609 16.965 25.4422 17.2315 25.1615 17.419C24.8808 17.6066 24.5509 17.7067 24.2133 17.7067C23.7607 17.7067 23.3266 17.5269 23.0065 17.2068C22.6865 16.8867 22.5067 16.4526 22.5067 16ZM24.2133 25.8133C23.8758 25.8133 23.5458 25.7132 23.2652 25.5257C22.9845 25.3382 22.7657 25.0716 22.6366 24.7598C22.5074 24.4479 22.4736 24.1048 22.5395 23.7737C22.6053 23.4427 22.7679 23.1386 23.0065 22.8999C23.2452 22.6612 23.5493 22.4986 23.8804 22.4328C24.2114 22.3669 24.5546 22.4007 24.8664 22.5299C25.1783 22.6591 25.4448 22.8778 25.6324 23.1585C25.8199 23.4392 25.92 23.7691 25.92 24.1067C25.92 24.5593 25.7402 24.9934 25.4201 25.3135C25.1001 25.6335 24.666 25.8133 24.2133 25.8133Z" fill="white"/>
<path d="M8.00006 16.8534C8.47135 16.8534 8.8534 16.4713 8.8534 16.0001C8.8534 15.5288 8.47135 15.1467 8.00006 15.1467C7.52878 15.1467 7.14673 15.5288 7.14673 16.0001C7.14673 16.4713 7.52878 16.8534 8.00006 16.8534Z" fill="white"/>
<path d="M16.1068 24.7467C16.578 24.7467 16.9601 24.3647 16.9601 23.8934C16.9601 23.4221 16.578 23.04 16.1068 23.04C15.6355 23.04 15.2534 23.4221 15.2534 23.8934C15.2534 24.3647 15.6355 24.7467 16.1068 24.7467Z" fill="white"/>
</g>
<defs>
<clipPath id="clip0_846_20738">
<rect width="32" height="32" fill="white"/>
</clipPath>
</defs>
</svg>
