<svg width="32" height="32" viewBox="0 0 32 32" fill="none" xmlns="http://www.w3.org/2000/svg">
<g clip-path="url(#clip0_850_21995)">
<path d="M32 0H0V32H32V0Z" fill="#ED7100"/>
<path fill-rule="evenodd" clip-rule="evenodd" d="M20.0001 19.0523V14.3155L21.6001 16.1347V20.6283L20.0001 19.0523ZM18.0001 22.7835C19.1033 22.7835 20.0001 21.8867 20.0001 20.7835V20.1747L21.7193 21.8691C21.7953 21.9435 21.8969 21.9835 22.0001 21.9835C22.0521 21.9835 22.1049 21.9731 22.1545 21.9523C22.3033 21.8907 22.4001 21.7443 22.4001 21.5835V15.9835C22.4001 15.8867 22.3649 15.7923 22.3001 15.7195L20.0001 13.1051V11.5835H19.2001V20.7835C19.2001 21.4451 18.6617 21.9835 18.0001 21.9835H17.1617C16.9409 21.9835 16.8001 22.1627 16.8001 22.3835V24.3835H17.6001V22.7835H18.0001ZM10.4001 20.6283V16.1347L12.0001 14.3155V19.0523L10.4001 20.6283ZM14.4001 22.7835V24.3835H15.2001V22.3835C15.2001 22.1627 15.0593 21.9835 14.8385 21.9835H14.0001C13.3385 21.9835 12.8001 21.4451 12.8001 20.7835V11.5835H12.0001V13.1051L9.7001 15.7195C9.6353 15.7923 9.6001 15.8867 9.6001 15.9835V21.5835C9.6001 21.7443 9.6969 21.8907 9.8457 21.9523C9.8953 21.9731 9.9481 21.9835 10.0001 21.9835C10.1033 21.9835 10.2049 21.9435 10.2809 21.8691L12.0001 20.1747V20.7835C12.0001 21.8867 12.8969 22.7835 14.0001 22.7835H14.4001ZM15.2001 16.3835H16.8001V14.7835H15.2001V16.3835ZM14.8001 13.9835C14.5793 13.9835 14.4001 14.1627 14.4001 14.3835V16.7835C14.4001 17.0043 14.5793 17.1835 14.8001 17.1835H17.2001C17.4209 17.1835 17.6001 17.0043 17.6001 16.7835V14.3835C17.6001 14.1627 17.4209 13.9835 17.2001 13.9835H14.8001ZM16.0249 5.60035L19.6665 10.0339C18.7993 9.82995 17.5345 9.62035 16.0001 9.62035C14.5025 9.62035 13.2185 9.83555 12.3361 10.0419L16.0249 5.60035ZM11.2001 11.1835C11.2473 11.1835 11.2945 11.1747 11.3401 11.1587C11.3601 11.1507 13.3497 10.4203 16.0001 10.4203C18.7577 10.4203 20.6345 11.1483 20.6529 11.1555C20.8217 11.2227 21.0161 11.1667 21.1233 11.0187C21.2305 10.8715 21.2249 10.6699 21.1097 10.5299L16.6489 5.09875C16.3345 4.69875 15.6609 4.70435 15.3561 5.09235L10.8905 10.5299C10.7761 10.6691 10.7697 10.8691 10.8753 11.0155C10.9513 11.1235 11.0745 11.1835 11.2001 11.1835ZM15.2001 26.7835H16.8001V25.9835H15.2001V26.7835ZM13.6001 25.9835H14.4001V27.1835C14.4001 27.4043 14.5793 27.5835 14.8001 27.5835H17.2001C17.4209 27.5835 17.6001 27.4043 17.6001 27.1835V25.9835H18.4001V25.1835H13.6001V25.9835Z" fill="white"/>
</g>
<defs>
<clipPath id="clip0_850_21995">
<rect width="32" height="32" fill="white"/>
</clipPath>
</defs>
</svg>
