<svg width="32" height="32" viewBox="0 0 32 32" fill="none" xmlns="http://www.w3.org/2000/svg">
<g clip-path="url(#clip0_846_20748)">
<path d="M28.96 2.71997H2.71997V28.96H28.96V2.71997Z" fill="#D86613"/>
<path d="M28.48 3.19999V28.48H3.19999V3.19999H28.48ZM29.44 2.23999H2.23999V29.44H29.44V2.23999Z" fill="white"/>
<path d="M24 12.48V11.84H22.72V10.4544C22.72 10.1429 22.5963 9.84422 22.376 9.62397C22.1558 9.40373 21.8571 9.28 21.5456 9.28H20.16V8H19.52V9.28H18.24V8H17.6V9.28H16.32V8H15.68V9.28H14.4V8H13.76V9.28H12.48V8H11.84V9.28H10.4544C10.1429 9.28 9.84422 9.40373 9.62397 9.62397C9.40373 9.84422 9.28 10.1429 9.28 10.4544V11.84H8V12.48H9.28V13.76H8V14.4H9.28V15.68H8V16.32H9.28V17.6H8V18.24H9.28V19.52H8V20.16H9.28V21.5456C9.28 21.8571 9.40373 22.1558 9.62397 22.376C9.84422 22.5963 10.1429 22.72 10.4544 22.72H11.84V24H12.48V22.72H13.76V24H14.4V22.72H15.68V24H16.32V22.72H17.6V24H18.24V22.72H19.52V24H20.16V22.72H21.5456C21.8571 22.72 22.1558 22.5963 22.376 22.376C22.5963 22.1558 22.72 21.8571 22.72 21.5456V20.16H24V19.52H22.72V18.24H24V17.6H22.72V16.32H24V15.68H22.72V14.4H24V13.76H22.72V12.48H24ZM22.08 21.5456C22.08 21.6873 22.0237 21.8233 21.9235 21.9235C21.8233 22.0237 21.6873 22.08 21.5456 22.08H10.4544C10.3842 22.08 10.3147 22.0662 10.2499 22.0393C10.1851 22.0125 10.1261 21.9731 10.0765 21.9235C10.0269 21.8739 9.98753 21.8149 9.96068 21.7501C9.93382 21.6853 9.92 21.6158 9.92 21.5456V10.4544C9.92 10.3842 9.93382 10.3147 9.96068 10.2499C9.98753 10.1851 10.0269 10.1261 10.0765 10.0765C10.1261 10.0269 10.1851 9.98753 10.2499 9.96068C10.3147 9.93382 10.3842 9.92 10.4544 9.92H21.5456C21.6158 9.92 21.6853 9.93382 21.7501 9.96068C21.8149 9.98753 21.8739 10.0269 21.9235 10.0765C21.9731 10.1261 22.0125 10.1851 22.0393 10.2499C22.0662 10.3147 22.08 10.3842 22.08 10.4544V21.5456Z" fill="white"/>
<path d="M19.0783 12.1599H12.9215C12.72 12.1616 12.5273 12.2424 12.3848 12.3848C12.2424 12.5273 12.1616 12.72 12.1599 12.9215V19.0783C12.1616 19.2798 12.2424 19.4725 12.3848 19.615C12.5273 19.7575 12.72 19.8382 12.9215 19.8399H19.0783C19.2798 19.8382 19.4725 19.7575 19.615 19.615C19.7575 19.4725 19.8382 19.2798 19.8399 19.0783V12.9215C19.8382 12.72 19.7575 12.5273 19.615 12.3848C19.4725 12.2424 19.2798 12.1616 19.0783 12.1599V12.1599ZM19.1999 19.0783C19.1999 19.1106 19.1871 19.1415 19.1643 19.1643C19.1415 19.1871 19.1106 19.1999 19.0783 19.1999H12.9215C12.8893 19.1999 12.8583 19.1871 12.8355 19.1643C12.8127 19.1415 12.7999 19.1106 12.7999 19.0783V19.0783V12.9215C12.7999 12.8893 12.8127 12.8583 12.8355 12.8355C12.8583 12.8127 12.8893 12.7999 12.9215 12.7999H19.0783C19.1106 12.7999 19.1415 12.8127 19.1643 12.8355C19.1871 12.8583 19.1999 12.8893 19.1999 12.9215V12.9215V19.0783Z" fill="white"/>
</g>
<defs>
<clipPath id="clip0_846_20748">
<rect width="32" height="32" fill="white"/>
</clipPath>
</defs>
</svg>
