<svg width="32" height="32" viewBox="0 0 32 32" fill="none" xmlns="http://www.w3.org/2000/svg">
<g clip-path="url(#clip0_846_20722)">
<path d="M32 0H0V32H32V0Z" fill="#D86613"/>
<path d="M15.5733 6.78822V10.8757H16.4266V6.78822L18.4149 8.77648L19.0165 8.17062L16.3029 5.45702C16.2632 5.41703 16.216 5.38529 16.164 5.36362C16.112 5.34196 16.0563 5.33081 15.9999 5.33081C15.9436 5.33081 15.8878 5.34196 15.8358 5.36362C15.7839 5.38529 15.7367 5.41703 15.697 5.45702L12.9834 8.17062L13.585 8.77648L15.5733 6.78822Z" fill="white"/>
<path d="M16.4266 25.2075V21.1157H15.5733V25.2075L13.585 23.2192L12.9834 23.8251L15.697 26.5387C15.7367 26.5786 15.7839 26.6104 15.8358 26.632C15.8878 26.6537 15.9436 26.6649 15.9999 26.6649C16.0563 26.6649 16.112 26.6537 16.164 26.632C16.216 26.6104 16.2632 26.5786 16.3029 26.5387L19.0165 23.8251L18.4149 23.2192L16.4266 25.2075Z" fill="white"/>
<path d="M18.9865 12.6506V11.729H18.1332V12.5823H17.2798V11.729H16.4265V12.5823H15.5732V11.729H14.7198V12.5823H13.8665V11.729H13.0132V12.6506C12.8529 12.7222 12.724 12.8496 12.6505 13.009H11.7332V13.8623H12.5865V14.7157H11.7332V15.569H12.5865V16.4223H11.7332V17.2757H12.5865V18.129H11.7332V18.9823H12.6505C12.7225 19.1438 12.8517 19.273 13.0132 19.345V20.2623H13.8665V19.409H14.7198V20.2623H15.5732V19.409H16.4265V20.2623H17.2798V19.409H18.1332V20.2623H18.9865V19.345C19.148 19.273 19.2771 19.1438 19.3492 18.9823H20.2665V18.129H19.4132V17.2757H20.2665V16.4223H19.4132V15.569H20.2665V14.7157H19.4132V13.8623H20.2665V13.009H19.3492C19.2756 12.8496 19.1468 12.7222 18.9865 12.6506ZM18.5598 18.5557H13.4398V13.4357H18.5598V18.5557Z" fill="white"/>
<path d="M8.00845 13.009L7.40685 13.6149L9.38658 15.569H5.33325V16.4224H9.42498L7.40685 18.4405L8.00845 19.0421L10.7263 16.3285C10.7659 16.2886 10.7971 16.2414 10.8184 16.1894C10.8396 16.1374 10.8504 16.0817 10.8501 16.0256C10.8496 15.9136 10.8051 15.8064 10.7263 15.7269L8.00845 13.009Z" fill="white"/>
<path d="M26.6665 15.569H22.6345L24.5929 13.6149L23.9913 13.009L21.2734 15.7269C21.1946 15.8064 21.1501 15.9136 21.1497 16.0256C21.1493 16.0817 21.1601 16.1374 21.1813 16.1894C21.2026 16.2414 21.2339 16.2886 21.2734 16.3285L23.9913 19.0421L24.5929 18.4405L22.5747 16.4224H26.6665V15.569Z" fill="white"/>
</g>
<defs>
<clipPath id="clip0_846_20722">
<rect width="32" height="32" fill="white"/>
</clipPath>
</defs>
</svg>
