<svg width="32" height="32" viewBox="0 0 32 32" fill="none" xmlns="http://www.w3.org/2000/svg">
<g clip-path="url(#clip0_846_20724)">
<path d="M32 0H0V32H32V0Z" fill="#D86613"/>
<path d="M25.3867 12.8256V21.5509L17.7067 25.9883V22.6773L21.9734 20.2155C22.0875 20.1513 22.1854 20.0618 22.2594 19.9538C22.3334 19.8457 22.3815 19.7221 22.4001 19.5925C22.4087 19.4818 22.4087 19.3705 22.4001 19.2597V14.4043L25.3867 12.6976V12.8256ZM25.9883 11.4176C25.9452 11.4168 25.9026 11.4271 25.8646 11.4475L21.7899 13.8027C21.7131 13.8453 21.5467 13.9221 21.5467 14.0203V19.2597C21.5514 19.3322 21.5514 19.4049 21.5467 19.4773L16.9814 22.1099C16.9439 22.1325 16.9128 22.1644 16.8911 22.2025C16.8695 22.2406 16.8579 22.2836 16.8577 22.3275V27.0208C16.8577 27.0539 16.8642 27.0866 16.8768 27.1171C16.8895 27.1477 16.908 27.1754 16.9314 27.1988C16.9548 27.2222 16.9825 27.2407 17.0131 27.2534C17.0436 27.266 17.0763 27.2725 17.1094 27.2725C17.1529 27.2718 17.1955 27.2601 17.2331 27.2384L26.1206 22.1184C26.1581 22.0958 26.1892 22.0639 26.2109 22.0258C26.2325 21.9877 26.2441 21.9446 26.2443 21.9008V11.6352C26.2443 11.6023 26.2378 11.5698 26.2251 11.5395C26.2124 11.5092 26.1938 11.4817 26.1703 11.4587C26.1469 11.4357 26.1191 11.4175 26.0886 11.4053C26.0581 11.3931 26.0255 11.3872 25.9926 11.3877L25.9883 11.4176Z" fill="white"/>
<path d="M15.3259 27.7078C15.2076 27.7081 15.0914 27.6772 14.9888 27.6182L6.09708 22.4982C5.99449 22.439 5.90932 22.3538 5.85015 22.2512C5.79097 22.1486 5.75988 22.0322 5.76001 21.9137V10.6113C5.75988 10.4929 5.79097 10.3765 5.85015 10.2738C5.90932 10.1712 5.99449 10.086 6.09708 10.0268L15.8763 4.38198C15.979 4.32115 16.0961 4.28906 16.2155 4.28906C16.3348 4.28906 16.452 4.32115 16.5547 4.38198L25.4421 9.50198C25.5444 9.56154 25.6294 9.64682 25.6885 9.74937C25.7476 9.85191 25.7789 9.96814 25.7792 10.0865C25.7788 10.2054 25.7475 10.3222 25.6884 10.4254C25.6294 10.5286 25.5445 10.6147 25.4421 10.6753L16 16.1366V27.0337C16.001 27.1523 15.9703 27.2691 15.911 27.3719C15.8518 27.4746 15.7661 27.5597 15.6629 27.6182C15.5604 27.6772 15.4441 27.7081 15.3259 27.7078V27.7078ZM6.61334 21.7985L15.1467 26.7222V16.0342C15.1467 15.9152 15.1778 15.7983 15.2369 15.695C15.296 15.5917 15.3811 15.5057 15.4837 15.4454L24.7467 10.1036L16.2133 5.17558L6.61761 10.7222L6.61334 21.7985Z" fill="white"/>
</g>
<defs>
<clipPath id="clip0_846_20724">
<rect width="32" height="32" fill="white"/>
</clipPath>
</defs>
</svg>
