<svg width="32" height="32" viewBox="0 0 32 32" fill="none" xmlns="http://www.w3.org/2000/svg">
<g clip-path="url(#clip0_846_20720)">
<path d="M32 0H0V32H32V0Z" fill="#D86613"/>
<path d="M25.8092 17.2799H23.6758V16.4266H25.8092V6.18659H15.5692V8.31992H14.7158V6.18659C14.7158 5.96027 14.8057 5.74322 14.9658 5.58319C15.1258 5.42316 15.3428 5.33325 15.5692 5.33325H25.8092C26.0355 5.33325 26.2525 5.42316 26.4125 5.58319C26.5726 5.74322 26.6625 5.96027 26.6625 6.18659V16.4266C26.6625 16.6529 26.5726 16.87 26.4125 17.03C26.2525 17.19 26.0355 17.2799 25.8092 17.2799Z" fill="white"/>
<path d="M16.4224 26.6666H6.18243C5.95612 26.6666 5.73907 26.5767 5.57904 26.4167C5.41901 26.2567 5.3291 26.0396 5.3291 25.8133V15.5733C5.3291 15.347 5.41901 15.1299 5.57904 14.9699C5.73907 14.8099 5.95612 14.72 6.18243 14.72H8.31577V15.5733H6.18243V25.8133H16.4224V23.68H17.2758V25.8133C17.2758 26.0396 17.1859 26.2567 17.0258 26.4167C16.8658 26.5767 16.6488 26.6666 16.4224 26.6666Z" fill="white"/>
<path d="M22.8267 12.16V11.3067H21.5467C21.5291 11.0862 21.4336 10.8792 21.2772 10.7228C21.1208 10.5664 20.9138 10.4709 20.6933 10.4533V9.17334H19.84V10.4533H18.56V9.17334H17.7067V10.4533H16.4267V9.17334H15.5733V10.4533H14.2933V9.17334H13.44V10.4533H12.16V9.17334H11.3067V10.4533C11.0862 10.4709 10.8792 10.5664 10.7228 10.7228C10.5664 10.8792 10.4709 11.0862 10.4533 11.3067H9.17334V12.16H10.4533V13.44H9.17334V14.2933H10.4533V15.5733H9.17334V16.4267H10.4533V17.7067H9.17334V18.56H10.4533V19.84H9.17334V20.6933H10.4533C10.4709 20.9138 10.5664 21.1208 10.7228 21.2772C10.8792 21.4336 11.0862 21.5291 11.3067 21.5467V22.8267H12.16V21.5467H13.44V22.8267H14.2933V21.5467H15.5733V22.8267H16.4267V21.5467H17.7067V22.8267H18.56V21.5467H19.84V22.8267H20.6933V21.5467C20.9138 21.5291 21.1208 21.4336 21.2772 21.2772C21.4336 21.1208 21.5291 20.9138 21.5467 20.6933H22.8267V19.84H21.5467V18.56H22.8267V17.7067H21.5467V16.4267H22.8267V15.5733H21.5467V14.2933H22.8267V13.44H21.5467V12.16H22.8267ZM20.6933 20.6165C20.6933 20.6369 20.6852 20.6564 20.6708 20.6708C20.6564 20.6852 20.6369 20.6933 20.6165 20.6933H11.3835C11.3631 20.6933 11.3436 20.6852 11.3292 20.6708C11.3148 20.6564 11.3067 20.6369 11.3067 20.6165V11.3835C11.3067 11.3631 11.3148 11.3436 11.3292 11.3292C11.3436 11.3148 11.3631 11.3067 11.3835 11.3067H20.6165C20.6369 11.3067 20.6564 11.3148 20.6708 11.3292C20.6852 11.3436 20.6933 11.3631 20.6933 11.3835V20.6165Z" fill="white"/>
</g>
<defs>
<clipPath id="clip0_846_20720">
<rect width="32" height="32" fill="white"/>
</clipPath>
</defs>
</svg>
