<svg width="32" height="32" viewBox="0 0 32 32" fill="none" xmlns="http://www.w3.org/2000/svg">
<g clip-path="url(#clip0_850_22053)">
<path d="M32 0H0V32H32V0Z" fill="#ED7100"/>
<path fill-rule="evenodd" clip-rule="evenodd" d="M7.85525 12.236L7.11125 11.9416C8.52005 8.3872 12.0928 6 16 6C19.9064 6 23.4792 8.3872 24.888 11.9416L24.144 12.236C22.8552 8.9848 19.5816 6.8 16 6.8C12.4176 6.8 9.14405 8.9848 7.85525 12.236ZM24.1408 18.5864L24.8912 18.8648C23.484 22.6544 19.9104 25.2 16 25.2C12.0888 25.2 8.51525 22.6544 7.10805 18.8648L7.85845 18.5864C9.14965 22.064 12.4216 24.4 16 24.4C19.5776 24.4 22.8496 22.064 24.1408 18.5864ZM26.4 16.6208C26.4 16.7184 26.3176 16.8 26.2208 16.8H23.3784C23.2816 16.8 23.2 16.7184 23.2 16.6208V13.7792C23.2 13.6824 23.2816 13.6 23.3784 13.6H26.2208C26.3176 13.6 26.4 13.6824 26.4 13.7792V16.6208ZM26.2208 12.8H23.3784C22.8384 12.8 22.4 13.2392 22.4 13.7792V16.6208C22.4 17.1608 22.8384 17.6 23.3784 17.6H26.2208C26.7608 17.6 27.2 17.1608 27.2 16.6208V13.7792C27.2 13.2392 26.7608 12.8 26.2208 12.8ZM5.60005 16.6208V13.7792C5.60005 13.6824 5.68165 13.6 5.77845 13.6H8.62085C8.71765 13.6 8.80005 13.6824 8.80005 13.7792V16.6208C8.80005 16.7184 8.71765 16.8 8.62085 16.8H5.77845C5.68165 16.8 5.60005 16.7184 5.60005 16.6208ZM9.60005 16.6208V13.7792C9.60005 13.2392 9.16085 12.8 8.62085 12.8H5.77845C5.23845 12.8 4.80005 13.2392 4.80005 13.7792V16.6208C4.80005 17.1608 5.23845 17.6 5.77845 17.6H8.62085C9.16085 17.6 9.60005 17.1608 9.60005 16.6208ZM16.8 15.2H18.4V14.4H16.8V15.2ZM13.6 15.2H16V14.4H13.6V15.2ZM12.8 16H19.2V13.6H12.8V16ZM15.2 17.6V18.4H12V17.6H11.2V12H20.8V17.6H19.2V18.4H17.6V17.6H15.2ZM20 19.2V18.4H21.6V11.2H10.4V18.4H11.2V19.2H16V18.4H16.8V19.2H20Z" fill="white"/>
</g>
<defs>
<clipPath id="clip0_850_22053">
<rect width="32" height="32" fill="white"/>
</clipPath>
</defs>
</svg>
