<svg width="32" height="32" viewBox="0 0 32 32" fill="none" xmlns="http://www.w3.org/2000/svg">
<g clip-path="url(#clip0_846_20735)">
<path d="M32 0H0V32H32V0Z" fill="url(#paint0_linear_846_20735)"/>
<path d="M15.9105 27.4944C15.831 27.496 15.7527 27.4753 15.6844 27.4347L5.97345 21.8368C5.90457 21.797 5.84739 21.7398 5.80769 21.6709C5.76799 21.602 5.74716 21.5238 5.74732 21.4443V10.1035C5.74716 10.0239 5.76799 9.94578 5.80769 9.87686C5.84739 9.80794 5.90457 9.75072 5.97345 9.71095L14.9036 4.56535C14.9699 4.51893 15.0481 4.49235 15.129 4.48871C15.2099 4.48507 15.2901 4.50452 15.3604 4.54479C15.4306 4.58506 15.4879 4.64448 15.5257 4.71611C15.5634 4.78775 15.58 4.86865 15.5734 4.94935V9.86028C15.5731 9.9365 15.5534 10.0114 15.516 10.0778C15.4787 10.1443 15.425 10.2001 15.3601 10.24L10.8929 12.8V18.7477L15.9233 21.6533L20.3223 19.0933C20.3871 19.0559 20.4607 19.0362 20.5356 19.0362C20.6105 19.0362 20.6841 19.0559 20.7489 19.0933L24.9815 21.5253C25.0503 21.5651 25.1075 21.6223 25.1472 21.6913C25.1869 21.7602 25.2077 21.8383 25.2076 21.9179C25.2097 21.9972 25.1897 22.0756 25.1498 22.1442C25.1098 22.2128 25.0515 22.2689 24.9815 22.3061L16.1281 27.4261C16.0631 27.4682 15.9879 27.4918 15.9105 27.4944ZM6.61345 21.1371L16.1409 26.6368L24.3201 21.9093L20.9068 19.9424L16.3713 22.5621C16.3003 22.6021 16.2203 22.6232 16.1388 22.6232C16.0573 22.6232 15.9772 22.6021 15.9062 22.5621L10.2401 19.2939C10.1716 19.2548 10.1146 19.1983 10.0749 19.1301C10.0351 19.062 10.0141 18.9845 10.014 18.9056V12.5696C10.0118 12.4903 10.0319 12.4119 10.0718 12.3433C10.1117 12.2747 10.17 12.2186 10.2401 12.1813L14.7073 9.62135V5.70455L6.60065 10.3979L6.61345 21.1371Z" fill="white"/>
<path d="M25.7878 20.9067C25.7087 20.9057 25.631 20.8851 25.5617 20.847L21.3334 18.4022C21.2633 18.3649 21.205 18.3088 21.1651 18.2402C21.1251 18.1716 21.1051 18.0933 21.1073 18.0139V12.847L16.6401 10.2699C16.5715 10.2308 16.5145 10.1743 16.4748 10.1062C16.4351 10.038 16.4141 9.96054 16.4139 9.88164V4.9707C16.4122 4.89251 16.4319 4.81534 16.471 4.74761C16.5102 4.67989 16.5672 4.62423 16.6358 4.5867C16.7007 4.54926 16.7742 4.52954 16.8491 4.52954C16.924 4.52954 16.9976 4.54926 17.0625 4.5867L26.0267 9.73657C26.0953 9.77564 26.1523 9.83213 26.192 9.90031C26.2317 9.96848 26.2527 10.0459 26.2529 10.1248V20.4374C26.253 20.5169 26.2322 20.5951 26.1925 20.664C26.1528 20.7329 26.0956 20.7901 26.0267 20.8299C25.9555 20.8767 25.8729 20.9033 25.7878 20.9067V20.9067ZM21.9734 17.728L25.3867 19.6907V10.4107L17.2801 5.71737V9.61284L21.7601 12.207C21.8301 12.2442 21.8884 12.3003 21.9284 12.3689C21.9683 12.4375 21.9883 12.5159 21.9862 12.5952L21.9734 17.728Z" fill="white"/>
</g>
<defs>
<linearGradient id="paint0_linear_846_20735" x1="-6.62742" y1="38.6261" x2="38.6274" y2="-6.6287" gradientUnits="userSpaceOnUse">
<stop stop-color="#C8511B"/>
<stop offset="1" stop-color="#FF9900"/>
</linearGradient>
<clipPath id="clip0_846_20735">
<rect width="32" height="32" fill="white"/>
</clipPath>
</defs>
</svg>
