<svg width="32" height="32" viewBox="0 0 32 32" fill="none" xmlns="http://www.w3.org/2000/svg">
<g clip-path="url(#clip0_846_20741)">
<path d="M32 0H0V32H32V0Z" fill="#D86613"/>
<path d="M22.4001 20.0534V19.2001C23.4283 19.2001 25.8134 18.8929 25.8134 16.0428C25.8134 14.3361 24.8107 13.2652 22.8267 12.8684C22.7339 12.8495 22.6499 12.8003 22.5881 12.7285C22.5263 12.6566 22.4901 12.5662 22.4854 12.4716C22.3873 10.8076 21.4187 10.2145 20.6209 10.2145C20.3501 10.2171 20.0836 10.2825 19.8423 10.4053C19.6009 10.5282 19.3914 10.7053 19.2299 10.9228C19.1835 10.9832 19.1218 11.03 19.0511 11.0585C18.9805 11.087 18.9035 11.0961 18.8282 11.0847C18.7529 11.0734 18.6819 11.0421 18.6228 10.9941C18.5636 10.9462 18.5184 10.8832 18.4918 10.8118C18.216 10.0078 17.7591 9.27788 17.1563 8.6785C16.5034 8.00097 15.6645 7.53189 14.7453 7.33039C13.8262 7.12889 12.868 7.20397 11.9915 7.54619C11.1149 7.8884 10.3593 8.48243 9.81986 9.2534C9.2804 10.0244 8.98124 10.9378 8.96007 11.8785C8.96068 12.0696 8.97208 12.2604 8.99421 12.4502C9.00667 12.5534 8.98104 12.6576 8.92211 12.7433C8.86319 12.8289 8.77504 12.8901 8.67421 12.9153C7.74407 13.1457 6.18247 13.854 6.18247 16.0044C6.18247 16.0897 6.18247 16.1665 6.18247 16.239C6.25622 17.068 6.6451 17.8372 7.269 18.3881C7.8929 18.939 8.7043 19.2296 9.53607 19.2001H10.0267V20.0534H9.53607C8.48945 20.08 7.47224 19.7056 6.69258 19.0068C5.91292 18.308 5.42976 17.3378 5.34194 16.2945C5.34194 16.2049 5.34194 16.111 5.34194 16.0129C5.3049 15.1574 5.55776 14.3145 6.05955 13.6206C6.56135 12.9268 7.28269 12.4227 8.10674 12.19C8.10674 12.0876 8.10674 11.9852 8.10674 11.8785C8.13231 10.7723 8.48367 9.69819 9.11682 8.79072C9.74997 7.88326 10.6368 7.18275 11.6662 6.77691C12.6956 6.37107 13.8218 6.27794 14.9039 6.50918C15.986 6.74042 16.9758 7.28576 17.7494 8.0769C18.2819 8.60408 18.7155 9.22261 19.0294 9.90303C19.4782 9.54628 20.0347 9.35225 20.6081 9.35263C21.8027 9.35263 23.0614 10.206 23.2961 12.0918C25.4635 12.6252 26.6539 14.0161 26.6539 16.0342C26.6667 18.9953 24.4609 20.0534 22.4001 20.0534Z" fill="white"/>
<path d="M19.4134 15.714C18.8377 15.718 18.284 15.9358 17.8599 16.3251C17.4358 16.7144 17.1714 17.2474 17.1183 17.8206C17.0651 18.3939 17.2268 18.9664 17.5721 19.4271C17.9174 19.8878 18.4216 20.2037 18.9867 20.3135V22.1866H16.4267V14.9034C16.9953 14.797 17.5038 14.4822 17.8524 14.0205C18.201 13.5588 18.3646 12.9836 18.3112 12.4076C18.2578 11.8316 17.9912 11.2963 17.5637 10.9065C17.1362 10.5168 16.5785 10.3008 16 10.3008C15.4215 10.3008 14.8639 10.5168 14.4364 10.9065C14.0088 11.2963 13.7423 11.8316 13.6889 12.4076C13.6355 12.9836 13.7991 13.5588 14.1477 14.0205C14.4963 14.4822 15.0047 14.797 15.5734 14.9034V20.0532H13.0134V19.2298C13.582 19.1234 14.0904 18.8086 14.439 18.3469C14.7876 17.8852 14.9513 17.31 14.8979 16.734C14.8445 16.158 14.5779 15.6227 14.1504 15.2329C13.7228 14.8432 13.1652 14.6272 12.5867 14.6272C12.0082 14.6272 11.4506 14.8432 11.023 15.2329C10.5955 15.6227 10.3289 16.158 10.2755 16.734C10.2221 17.31 10.3858 17.8852 10.7344 18.3469C11.083 18.8086 11.5914 19.1234 12.16 19.2298V20.4799C12.16 20.5931 12.205 20.7016 12.285 20.7816C12.365 20.8616 12.4735 20.9066 12.5867 20.9066H15.5734V25.5999H16.4267V23.0399H19.4134C19.5265 23.0399 19.635 22.9949 19.7151 22.9149C19.7951 22.8349 19.84 22.7264 19.84 22.6132V20.3135C20.4052 20.2037 20.9093 19.8878 21.2546 19.4271C21.5999 18.9664 21.7616 18.3939 21.7085 17.8206C21.6553 17.2474 21.391 16.7144 20.9668 16.3251C20.5427 15.9358 19.9891 15.718 19.4134 15.714ZM11.119 16.9556C11.1181 16.6652 11.2035 16.381 11.3642 16.139C11.525 15.8971 11.7539 15.7083 12.0221 15.5966C12.2902 15.4848 12.5854 15.4552 12.8704 15.5113C13.1554 15.5675 13.4173 15.7069 13.623 15.912C13.8287 16.1171 13.9689 16.3786 14.0259 16.6634C14.0829 16.9483 14.0541 17.2436 13.9431 17.512C13.8321 17.7805 13.644 18.01 13.4026 18.1714C13.1611 18.3329 12.8772 18.4191 12.5867 18.4191C12.1982 18.4191 11.8255 18.265 11.5504 17.9907C11.2752 17.7164 11.1201 17.3442 11.119 16.9556V16.9556ZM14.5323 12.625C14.5298 12.3341 14.6137 12.0491 14.7734 11.8061C14.9331 11.563 15.1615 11.3729 15.4294 11.2599C15.6974 11.1468 15.9929 11.1159 16.2784 11.1711C16.564 11.2263 16.8267 11.365 17.0333 11.5698C17.2398 11.7745 17.3809 12.036 17.4386 12.3211C17.4962 12.6061 17.4679 12.9019 17.3572 13.1708C17.2465 13.4398 17.0584 13.6698 16.8168 13.8316C16.5751 13.9935 16.2909 14.0799 16 14.0799C15.613 14.0799 15.2416 13.927 14.9667 13.6545C14.6918 13.3821 14.5357 13.012 14.5323 12.625V12.625ZM19.4134 19.5028C19.1231 19.5028 18.8393 19.4167 18.5979 19.2555C18.3566 19.0942 18.1684 18.865 18.0574 18.5968C17.9463 18.3286 17.9172 18.0335 17.9738 17.7488C18.0305 17.464 18.1703 17.2025 18.3755 16.9972C18.5808 16.792 18.8423 16.6522 19.127 16.5956C19.4117 16.5389 19.7068 16.568 19.975 16.6791C20.2432 16.7902 20.4725 16.9783 20.6337 17.2197C20.795 17.461 20.8811 17.7448 20.8811 18.0351C20.8811 18.4244 20.7265 18.7977 20.4512 19.0729C20.176 19.3482 19.8026 19.5028 19.4134 19.5028Z" fill="white"/>
</g>
<defs>
<clipPath id="clip0_846_20741">
<rect width="32" height="32" fill="white"/>
</clipPath>
</defs>
</svg>
