<svg width="32" height="32" viewBox="0 0 32 32" fill="none" xmlns="http://www.w3.org/2000/svg">
<g clip-path="url(#clip0_846_20749)">
<path d="M32 0H0V32H32V0Z" fill="#D86613"/>
<path d="M21.1371 16.4266C21.2443 17.0847 21.5954 17.6783 22.1204 18.0894C22.6454 18.5005 23.3059 18.6989 23.9705 18.6451C24.6351 18.5913 25.2552 18.2893 25.7072 17.7992C26.1593 17.3091 26.4103 16.6667 26.4103 15.9999C26.4103 15.3331 26.1593 14.6907 25.7072 14.2006C25.2552 13.7104 24.6351 13.4085 23.9705 13.3547C23.3059 13.3009 22.6454 13.4993 22.1204 13.9104C21.5954 14.3215 21.2443 14.9151 21.1371 15.5732H17.9542C17.9048 14.7877 17.7019 14.0194 17.3569 13.3119L21.1969 10.065C21.6681 10.4379 22.2519 10.6398 22.8528 10.6378C23.4537 10.6358 24.0362 10.4298 24.5049 10.0537C24.9735 9.67759 25.3007 9.15355 25.4328 8.56732C25.5648 7.98109 25.4941 7.36739 25.232 6.82662C24.97 6.28584 24.5321 5.85002 23.9902 5.59044C23.4482 5.33087 22.8342 5.26291 22.2485 5.3977C21.6629 5.53248 21.1404 5.86202 20.7664 6.33241C20.3925 6.80279 20.1892 7.38617 20.1899 7.9871C20.1849 8.50229 20.3335 9.00731 20.6166 9.43776L16.9046 12.5652C16.1676 11.4611 15.095 10.6233 13.8452 10.1756C12.5955 9.72795 11.2349 9.69414 9.96445 10.0792C8.69401 10.4642 7.58112 11.2477 6.7902 12.3139C5.99927 13.3801 5.57227 14.6724 5.57227 15.9999C5.57227 17.3274 5.99927 18.6197 6.7902 19.6859C7.58112 20.7521 8.69401 21.5355 9.96445 21.9206C11.2349 22.3056 12.5955 22.2718 13.8452 21.8242C15.095 21.3765 16.1676 20.5387 16.9046 19.4346L20.6166 22.562C20.3335 22.9925 20.1849 23.4975 20.1899 24.0127C20.1897 24.6125 20.3929 25.1946 20.7665 25.6639C21.14 26.1331 21.6617 26.4618 22.2462 26.5961C22.8308 26.7304 23.4436 26.6624 23.9845 26.4032C24.5254 26.144 24.9624 25.709 25.2239 25.1692C25.4855 24.6295 25.5562 24.017 25.4244 23.4318C25.2927 22.8467 24.9663 22.3236 24.4987 21.948C24.0311 21.5724 23.4499 21.3666 22.8501 21.3642C22.2503 21.3618 21.6675 21.563 21.1969 21.9348L17.3569 18.6879C17.7019 17.9804 17.9048 17.2121 17.9542 16.4266H21.1371ZM23.7483 14.1994C24.1046 14.1985 24.4532 14.3034 24.7498 14.5007C25.0465 14.6981 25.2779 14.979 25.4148 15.3079C25.5518 15.6368 25.588 15.999 25.5191 16.3485C25.4501 16.6981 25.2789 17.0193 25.0273 17.2715C24.7756 17.5238 24.4548 17.6957 24.1054 17.7655C23.7561 17.8353 23.3938 17.7999 23.0646 17.6638C22.7353 17.5276 22.4538 17.2968 22.2558 17.0007C22.0578 16.7045 21.9521 16.3562 21.9521 15.9999C21.9521 15.5231 22.1412 15.0658 22.4779 14.7282C22.8147 14.3907 23.2715 14.2005 23.7483 14.1994V14.1994ZM22.8609 6.18656C23.217 6.18656 23.5651 6.29216 23.8612 6.49001C24.1573 6.68785 24.3881 6.96906 24.5243 7.29806C24.6606 7.62707 24.6963 7.98909 24.6268 8.33836C24.5573 8.68763 24.3858 9.00846 24.134 9.26027C23.8822 9.51207 23.5614 9.68356 23.2121 9.75303C22.8629 9.82251 22.5008 9.78685 22.1718 9.65057C21.8428 9.51429 21.5616 9.28351 21.3638 8.98742C21.1659 8.69132 21.0603 8.34321 21.0603 7.9871C21.0603 7.50956 21.25 7.05159 21.5877 6.71393C21.9254 6.37626 22.3833 6.18656 22.8609 6.18656ZM22.8609 22.2164C23.2172 22.2164 23.5654 22.3221 23.8616 22.5202C24.1578 22.7182 24.3886 22.9997 24.5247 23.3289C24.6609 23.6582 24.6963 24.0204 24.6265 24.3698C24.5567 24.7192 24.3848 25.04 24.1325 25.2916C23.8803 25.5433 23.5591 25.7144 23.2095 25.7834C22.86 25.8524 22.4978 25.8161 22.1689 25.6792C21.8399 25.5423 21.559 25.3108 21.3617 25.0142C21.1644 24.7175 21.0595 24.369 21.0603 24.0127C21.0615 23.5359 21.2517 23.079 21.5892 22.7423C21.9267 22.4055 22.3841 22.2164 22.8609 22.2164ZM11.7846 21.3332C10.7298 21.3332 9.69862 21.0204 8.82156 20.4344C7.9445 19.8484 7.26091 19.0154 6.85724 18.0409C6.45358 17.0663 6.34796 15.994 6.55375 14.9594C6.75953 13.9248 7.26749 12.9745 8.01337 12.2287C8.75925 11.4828 9.70955 10.9748 10.7441 10.769C11.7787 10.5633 12.851 10.6689 13.8256 11.0725C14.8001 11.4762 15.6331 12.1598 16.2191 13.0369C16.8051 13.9139 17.1179 14.9451 17.1179 15.9999C17.1157 17.4137 16.553 18.7689 15.5533 19.7686C14.5536 20.7683 13.1984 21.331 11.7846 21.3332V21.3332Z" fill="white"/>
</g>
<defs>
<clipPath id="clip0_846_20749">
<rect width="32" height="32" fill="white"/>
</clipPath>
</defs>
</svg>
