<svg width="32" height="32" viewBox="0 0 32 32" fill="none" xmlns="http://www.w3.org/2000/svg">
<g clip-path="url(#clip0_846_20734)">
<path d="M32 0H0V32H32V0Z" fill="#D86613"/>
<path d="M16 27.5244C15.9253 27.5249 15.8517 27.5057 15.7867 27.4689L5.97335 21.8028C5.90824 21.7652 5.85421 21.711 5.81675 21.6458C5.77929 21.5807 5.75971 21.5067 5.76001 21.4316V10.0993C5.75971 10.0241 5.77929 9.95017 5.81675 9.88499C5.85421 9.8198 5.90824 9.76567 5.97335 9.72808L14.9333 4.53128C14.9982 4.49384 15.0718 4.47412 15.1467 4.47412C15.2216 4.47412 15.2952 4.49384 15.36 4.53128C15.4251 4.56887 15.4791 4.623 15.5166 4.68819C15.5541 4.75337 15.5736 4.8273 15.5733 4.90248V9.81342C15.5736 9.8886 15.5541 9.96253 15.5166 10.0277C15.4791 10.0929 15.4251 10.147 15.36 10.1846L10.88 12.8001V18.718L16 21.6748L20.4672 19.1148C20.5321 19.0773 20.6057 19.0576 20.6805 19.0576C20.7554 19.0576 20.829 19.0773 20.8939 19.1148L25.1605 21.5766C25.2262 21.6138 25.2808 21.6678 25.3188 21.733C25.3568 21.7982 25.3768 21.8723 25.3768 21.9478C25.3768 22.0233 25.3568 22.0974 25.3188 22.1626C25.2808 22.2278 25.2262 22.2818 25.1605 22.319L16.2133 27.4689C16.1483 27.5057 16.0748 27.5249 16 27.5244V27.5244ZM6.61335 21.1841L16 26.607L24.1067 21.9137L20.6933 19.9425L16.2133 22.5409C16.1485 22.5783 16.0749 22.598 16 22.598C15.9251 22.598 15.8515 22.5783 15.7867 22.5409L10.24 19.3366C10.1749 19.299 10.1209 19.2449 10.0834 19.1797C10.046 19.1145 10.0264 19.0406 10.0267 18.9654V12.5654C10.0264 12.4902 10.046 12.4163 10.0834 12.3511C10.1209 12.2859 10.1749 12.2318 10.24 12.1942L14.72 9.58728V5.64062L6.61335 10.334V21.1841Z" fill="white"/>
<path d="M25.8134 20.8768C25.7387 20.8773 25.6651 20.8582 25.6001 20.8213L21.3334 18.368C21.2679 18.3326 21.2145 18.2782 21.1802 18.212C21.146 18.1458 21.1325 18.0708 21.1414 17.9968V12.8L16.6401 10.24C16.575 10.2024 16.521 10.1483 16.4835 10.0831C16.446 10.0179 16.4265 9.94398 16.4268 9.8688V4.94933C16.4265 4.87415 16.446 4.80022 16.4835 4.73504C16.521 4.66985 16.575 4.61573 16.6401 4.57813C16.7057 4.54303 16.779 4.52466 16.8534 4.52466C16.9279 4.52466 17.0011 4.54303 17.0668 4.57813L26.0268 9.728C26.0919 9.76559 26.1459 9.81972 26.1834 9.8849C26.2208 9.95009 26.2404 10.024 26.2401 10.0992V20.4501C26.2401 20.5633 26.1951 20.6718 26.1151 20.7518C26.0351 20.8318 25.9266 20.8768 25.8134 20.8768ZM21.9734 17.7536L25.3868 19.7077V10.3467L17.2801 5.68747V9.6256L21.7601 12.1856C21.8246 12.2228 21.8782 12.2763 21.9156 12.3407C21.9531 12.405 21.973 12.4781 21.9734 12.5525V17.7536Z" fill="white"/>
<path d="M13.8667 18.9825V12.5825H14.72V15.4967L17.4934 12.5825H18.6198L15.727 15.6972L18.8715 18.9825H17.7067L14.72 15.9959V18.9825H13.8667Z" fill="white"/>
</g>
<defs>
<clipPath id="clip0_846_20734">
<rect width="32" height="32" fill="white"/>
</clipPath>
</defs>
</svg>
