<svg width="32" height="32" viewBox="0 0 32 32" fill="none" xmlns="http://www.w3.org/2000/svg">
<g clip-path="url(#clip0_846_20742)">
<path d="M32 0H0V32H32V0Z" fill="#D86613"/>
<path d="M10.5773 15.535C10.608 15.5711 10.6423 15.604 10.6797 15.6332C10.7436 15.688 10.8105 15.7393 10.8802 15.7868L10.9271 15.8124C10.9959 15.8549 11.0671 15.8934 11.1405 15.9276L11.2727 15.983H11.3154H11.3623L11.469 16.03C11.6695 16.1025 11.8957 16.1878 12.1431 16.2646L12.5314 16.3798L12.7405 16.4353C13.8071 16.6967 14.9021 16.8243 16.0002 16.815V16.815C17.669 16.852 19.3267 16.5349 20.8642 15.8849C21.1923 15.7355 21.471 15.4955 21.6676 15.1932C21.8641 14.8909 21.9702 14.5388 21.9735 14.1782V8.05556C21.973 7.92867 21.9367 7.80449 21.8688 7.69731C21.8009 7.59014 21.7041 7.50431 21.5895 7.44969L16.2903 4.97503C16.2019 4.93202 16.1049 4.90967 16.0066 4.90967C15.9083 4.90967 15.8113 4.93202 15.7229 4.97503L10.4109 7.44969C10.2963 7.50431 10.1995 7.59014 10.1316 7.69731C10.0637 7.80449 10.0274 7.92867 10.0269 8.05556V14.1996C10.0262 14.6574 10.1914 15.1 10.4919 15.4454C10.5182 15.4773 10.5467 15.5073 10.5773 15.535ZM12.7533 15.5948L12.3949 15.4881C12.1645 15.4156 11.9682 15.3388 11.7933 15.279L11.6397 15.215L11.4946 15.1468C11.4464 15.1252 11.3994 15.1009 11.3538 15.0742V15.0742L11.2471 14.9932L11.1917 14.9334C11.1825 14.92 11.171 14.9084 11.1575 14.8993L11.1234 14.8609C10.9604 14.6725 10.871 14.4316 10.8717 14.1825V8.56756L15.565 10.7649V15.9873C14.6803 15.9717 13.8002 15.8572 12.941 15.646L12.7533 15.5948ZM20.5186 15.1425C19.2234 15.6957 17.831 15.9858 16.4226 15.9958V10.846L21.1159 8.71263V14.174C21.1222 14.3762 21.0689 14.5758 20.9627 14.7479C20.8565 14.9201 20.7021 15.0573 20.5186 15.1425V15.1425ZM16.0002 5.78143L20.7191 7.98303L16.077 10.0652L16.0429 10.0438L11.4562 7.9105L16.0002 5.78143Z" fill="white"/>
<path d="M23.3729 11.8103L23.1339 12.6295C25.0497 13.1927 26.2401 13.9948 26.2401 14.7202C26.2401 16.1324 22.0331 17.7068 16.0001 17.7068C9.96701 17.7068 5.76007 16.1324 5.76007 14.7202C5.76007 13.9948 6.95047 13.1927 8.86621 12.6295L8.62727 11.8103C6.2294 12.5143 4.90674 13.5511 4.90674 14.7202C4.90674 17.2119 10.6241 18.5602 16.0001 18.5602C21.3761 18.5602 27.0934 17.2119 27.0934 14.7202C27.0934 13.5511 25.7707 12.5186 23.3729 11.8103Z" fill="white"/>
<path d="M23.3472 19.8997L21.3632 19.0464C21.2875 19.0094 21.2043 18.9902 21.12 18.9902C21.0357 18.9902 20.9526 19.0094 20.8768 19.0464L18.8501 19.9211C18.7627 19.9642 18.6891 20.0311 18.6378 20.1141C18.5865 20.1971 18.5595 20.2928 18.56 20.3904V22.5877L16.6699 21.76C16.5938 21.7242 16.5108 21.7057 16.4267 21.7057C16.3426 21.7057 16.2596 21.7242 16.1835 21.76L14.2805 22.5835V20.3819C14.2796 20.2797 14.2494 20.1799 14.1934 20.0945C14.1374 20.009 14.0581 19.9414 13.9648 19.8997L11.9765 19.0464C11.9015 19.0095 11.8191 18.9903 11.7355 18.9903C11.6519 18.9903 11.5694 19.0095 11.4944 19.0464L9.46348 19.9211C9.376 19.9642 9.30241 20.0311 9.25111 20.1141C9.19981 20.1971 9.17287 20.2928 9.17335 20.3904V22.9845C9.17427 23.0867 9.20451 23.1864 9.26048 23.2719C9.31646 23.3574 9.3958 23.425 9.48908 23.4667L11.4731 24.32H11.52C11.5874 24.3493 11.6599 24.3652 11.7333 24.3669C11.8073 24.3701 11.8808 24.3539 11.9467 24.32L13.8624 23.4965V25.6939C13.8641 25.7953 13.8948 25.8941 13.9507 25.9788C14.0066 26.0634 14.0855 26.1303 14.1781 26.1717L16.1579 27.0251C16.1579 27.0251 16.1579 27.0251 16.1877 27.0251C16.2599 27.0586 16.3385 27.0761 16.4181 27.0763C16.4937 27.077 16.5684 27.0594 16.6357 27.0251L18.6709 26.1504C18.7578 26.1064 18.8309 26.0394 18.882 25.9565C18.9332 25.8737 18.9606 25.7784 18.9611 25.6811V23.4965L20.8555 24.32H20.9067C20.9795 24.3516 21.0577 24.369 21.1371 24.3712C21.2055 24.3686 21.2724 24.3512 21.3333 24.32L23.3728 23.4667C23.4603 23.4235 23.5339 23.3566 23.5852 23.2736C23.6365 23.1906 23.6634 23.0949 23.6629 22.9973V20.3819C23.662 20.2797 23.6318 20.1799 23.5758 20.0945C23.5198 20.009 23.4405 19.9414 23.3472 19.8997V19.8997ZM21.1115 19.8656L22.2763 20.3605L21.184 20.8085L20.0533 20.3221L21.1115 19.8656ZM16.4181 22.5877L17.5829 23.0827L16.4907 23.5093L15.36 23.04L16.4181 22.5877ZM11.7248 19.8656L12.8853 20.3648L11.7931 20.7915L10.6667 20.3221L11.7248 19.8656ZM10.0181 20.9749L11.2981 21.5211V23.3131L10.0181 22.7627V20.9749ZM12.1515 23.3088V21.6021L13.4315 21.0773V22.784L12.1515 23.3088ZM14.7115 23.6928L15.9915 24.2432V26.0267L14.7115 25.4763V23.6928ZM16.8448 26.0309V24.32L18.1248 23.7909V25.4976L16.8448 26.0309ZM19.4048 20.9749L20.6848 21.5211V23.3131L19.4048 22.7627V20.9749ZM21.5381 23.3131V21.6064L22.8181 21.0773V22.784L21.5381 23.3131Z" fill="white"/>
</g>
<defs>
<clipPath id="clip0_846_20742">
<rect width="32" height="32" fill="white"/>
</clipPath>
</defs>
</svg>
