<svg width="32" height="32" viewBox="0 0 32 32" fill="none" xmlns="http://www.w3.org/2000/svg">
<g clip-path="url(#clip0_846_20744)">
<path d="M32 0H0V32H32V0Z" fill="#D86613"/>
<path d="M25.8135 26.6666H20.5569C20.4765 26.6664 20.3978 26.6434 20.3298 26.6004C20.2619 26.5573 20.2075 26.496 20.1729 26.4234L12.7404 10.8799H9.59586C9.4827 10.8799 9.37417 10.835 9.29416 10.755C9.21414 10.6749 9.16919 10.5664 9.16919 10.4533V5.75992C9.16919 5.64676 9.21414 5.53824 9.29416 5.45822C9.37417 5.3782 9.4827 5.33325 9.59586 5.33325H16.1665C16.2469 5.33348 16.3257 5.35643 16.3936 5.39946C16.4615 5.44249 16.5159 5.50385 16.5505 5.57645L23.9489 21.1199H25.8135C25.9266 21.1199 26.0351 21.1649 26.1152 21.2449C26.1952 21.3249 26.2401 21.4334 26.2401 21.5466V26.2399C26.2401 26.3531 26.1952 26.4616 26.1152 26.5416C26.0351 26.6216 25.9266 26.6666 25.8135 26.6666ZM20.8257 25.8132H25.3868V21.9733H23.6801C23.5997 21.973 23.521 21.9501 23.453 21.907C23.3851 21.864 23.3307 21.8027 23.2961 21.7301L15.8977 6.18659H10.0268V10.0266H13.0135C13.0939 10.0268 13.1726 10.0498 13.2405 10.0928C13.3085 10.1358 13.3629 10.1972 13.3975 10.2698L20.8257 25.8132Z" fill="white"/>
<path d="M11.7248 26.6666H6.17818C6.10567 26.6667 6.03432 26.6484 5.97087 26.6133C5.90741 26.5782 5.85394 26.5275 5.81551 26.466C5.77477 26.4031 5.75135 26.3305 5.7476 26.2556C5.74386 26.1807 5.75992 26.1061 5.79418 26.0394L11.5968 13.9178C11.6314 13.8452 11.6858 13.7838 11.7538 13.7408C11.8217 13.6977 11.9004 13.6748 11.9808 13.6746V13.6746C12.0608 13.6744 12.1392 13.6967 12.2071 13.739C12.275 13.7812 12.3297 13.8417 12.3648 13.9135L15.1424 19.6266C15.1704 19.6844 15.1849 19.7479 15.1849 19.8122C15.1849 19.8764 15.1704 19.9399 15.1424 19.9978L12.1131 26.3978C12.082 26.4758 12.0286 26.543 11.9596 26.5908C11.8905 26.6386 11.8088 26.665 11.7248 26.6666ZM6.86085 25.8132H11.456L14.2848 19.8399L11.9851 15.0826L6.86085 25.8132Z" fill="white"/>
</g>
<defs>
<clipPath id="clip0_846_20744">
<rect width="32" height="32" fill="white"/>
</clipPath>
</defs>
</svg>
