<svg width="32" height="32" viewBox="0 0 32 32" fill="none" xmlns="http://www.w3.org/2000/svg">
<g clip-path="url(#clip0_846_20737)">
<path d="M32 0H0V32H32V0Z" fill="url(#paint0_linear_846_20737)"/>
<path d="M17.28 21.9264H17.1477C17.0662 21.9 16.9945 21.8496 16.942 21.7819C16.8895 21.7142 16.8586 21.6322 16.8533 21.5467C16.576 18.9184 15.5733 17.0411 14.0501 16.3968C13.9461 16.3526 13.8638 16.2689 13.8214 16.1641C13.779 16.0593 13.78 15.942 13.824 15.8379C13.8672 15.736 13.9483 15.6549 14.0501 15.6117C15.5435 14.9632 16.5632 13.0859 16.8533 10.4533C16.8597 10.3975 16.877 10.3435 16.9043 10.2945C16.9315 10.2454 16.9682 10.2022 17.0122 10.1673C17.0562 10.1324 17.1066 10.1065 17.1606 10.0912C17.2147 10.0758 17.2712 10.0713 17.3269 10.0779C17.4286 10.0901 17.5225 10.1386 17.5915 10.2144C18.5472 11.2683 20.1515 13.4229 20.1515 16C20.1515 18.7392 18.1973 21.12 17.5915 21.7856C17.5521 21.8293 17.504 21.8643 17.4504 21.8885C17.3968 21.9128 17.3388 21.9257 17.28 21.9264ZM15.0784 16C16.2987 16.8533 17.1605 18.4149 17.5445 20.4715C18.2571 19.5115 19.2811 17.8133 19.2811 16C19.2811 14.1867 18.3467 12.5867 17.5488 11.52C17.1691 13.5765 16.3029 15.1467 15.0784 16Z" fill="white"/>
<path d="M13.6532 11.345L13.5039 11.7972L13.0559 11.9466L13.5039 12.0959L13.6532 12.5482L13.8026 12.0959L14.2548 11.9466L13.8026 11.7972L13.6532 11.345Z" fill="white"/>
<path d="M13.6533 13.0943L13.3675 12.2324L12.5056 11.9466L13.3675 11.6607L13.6533 10.7988L13.9392 11.6607L14.8011 11.9466L13.9392 12.2324L13.6533 13.0943Z" fill="white"/>
<path d="M21.3333 17.7449L21.184 18.1971L20.7317 18.3465L21.184 18.4958L21.3333 18.9481L21.4826 18.4958L21.9349 18.3465L21.4826 18.1971L21.3333 17.7449Z" fill="white"/>
<path d="M21.3332 19.3664L21.0772 18.6026L20.3135 18.3466L21.0772 18.0906L21.3332 17.3269L21.5892 18.0906L22.3529 18.3466L21.5892 18.6026L21.3332 19.3664Z" fill="white"/>
<path d="M13.2096 19.2341L13.0091 19.8357L12.4075 20.0363L13.0091 20.2325L13.2096 20.8341L13.4101 20.2325L14.0075 20.0363L13.4101 19.8357L13.2096 19.2341Z" fill="white"/>
<path d="M13.2266 21.3631L12.8938 20.3647L11.8826 20.0532L12.8767 19.7204L13.2266 18.7092L13.5594 19.7034L14.5535 20.0362L13.5594 20.3647L13.2266 21.3631ZM13.0943 20.0532L13.1796 20.0788L13.2095 20.1642L13.2266 20.0532L13.3119 20.0276L13.2266 19.9978L13.201 19.9124L13.1711 19.9978L13.0943 20.0532Z" fill="white"/>
<path d="M16.0254 24.1408C14.1164 24.1422 12.268 23.4697 10.8061 22.242C9.34423 21.0142 8.36252 19.3099 8.03396 17.4293C8.01472 17.3162 8.04122 17.2 8.10764 17.1064C8.17405 17.0128 8.27493 16.9494 8.38809 16.9301C8.50125 16.9109 8.61742 16.9374 8.71104 17.0038C8.80465 17.0702 8.86805 17.1711 8.88729 17.2843C9.20714 19.0683 10.1833 20.6679 11.6236 21.7682C13.0639 22.8685 14.864 23.3896 16.6693 23.2291C18.4747 23.0685 20.1545 22.2379 21.378 20.9007C22.6016 19.5635 23.2801 17.8167 23.2801 16.0043C23.2801 14.1918 22.6016 12.445 21.378 11.1078C20.1545 9.77065 18.4747 8.94001 16.6693 8.77945C14.864 8.6189 13.0639 9.14006 11.6236 10.2403C10.1833 11.3406 9.20714 12.9402 8.88729 14.7243C8.87721 14.7803 8.85618 14.8338 8.82542 14.8817C8.79466 14.9296 8.75477 14.971 8.70802 15.0035C8.6136 15.0691 8.49698 15.0945 8.38382 15.0741C8.27067 15.0538 8.17023 14.9893 8.10462 14.8949C8.03901 14.8004 8.01359 14.6838 8.03396 14.5707C8.31197 13.056 9.01565 11.6519 10.0627 10.5226C11.1097 9.39327 12.4567 8.58556 13.946 8.19397C15.4354 7.80237 17.0054 7.84309 18.4725 8.31136C19.9395 8.77963 21.2429 9.65608 22.2299 10.8381C23.217 12.0202 23.8469 13.4589 24.046 14.9859C24.2452 16.513 24.0052 18.0652 23.3543 19.4608C22.7033 20.8564 21.6684 22.0378 20.3704 22.8666C19.0725 23.6954 17.5654 24.1374 16.0254 24.1408V24.1408Z" fill="white"/>
<path d="M6.61325 16.4266H5.75992C5.64676 16.4266 5.53824 16.3816 5.45822 16.3016C5.3782 16.2216 5.33325 16.1131 5.33325 15.9999C5.33325 15.8867 5.3782 15.7782 5.45822 15.6982C5.53824 15.6182 5.64676 15.5732 5.75992 15.5732H6.61325C6.72641 15.5732 6.83494 15.6182 6.91495 15.6982C6.99497 15.7782 7.03992 15.8867 7.03992 15.9999C7.03992 16.1131 6.99497 16.2216 6.91495 16.3016C6.83494 16.3816 6.72641 16.4266 6.61325 16.4266Z" fill="white"/>
<path d="M8.74655 16.4266H7.89322C7.78006 16.4266 7.67154 16.3816 7.59152 16.3016C7.5115 16.2216 7.46655 16.1131 7.46655 15.9999C7.46655 15.8867 7.5115 15.7782 7.59152 15.6982C7.67154 15.6182 7.78006 15.5732 7.89322 15.5732H8.74655C8.85971 15.5732 8.96824 15.6182 9.04825 15.6982C9.12827 15.7782 9.17322 15.8867 9.17322 15.9999C9.17322 16.1131 9.12827 16.2216 9.04825 16.3016C8.96824 16.3816 8.85971 16.4266 8.74655 16.4266Z" fill="white"/>
<path d="M10.8799 16.4266H10.0265C9.91336 16.4266 9.80484 16.3816 9.72482 16.3016C9.64481 16.2216 9.59985 16.1131 9.59985 15.9999C9.59985 15.8867 9.64481 15.7782 9.72482 15.6982C9.80484 15.6182 9.91336 15.5732 10.0265 15.5732H10.8799C10.993 15.5732 11.1015 15.6182 11.1816 15.6982C11.2616 15.7782 11.3065 15.8867 11.3065 15.9999C11.3065 16.1131 11.2616 16.2216 11.1816 16.3016C11.1015 16.3816 10.993 16.4266 10.8799 16.4266Z" fill="white"/>
<path d="M13.0132 16.4266H12.1598C12.0467 16.4266 11.9381 16.3816 11.8581 16.3016C11.7781 16.2216 11.7332 16.1131 11.7332 15.9999C11.7332 15.8867 11.7781 15.7782 11.8581 15.6982C11.9381 15.6182 12.0467 15.5732 12.1598 15.5732H13.0132C13.1263 15.5732 13.2348 15.6182 13.3149 15.6982C13.3949 15.7782 13.4398 15.8867 13.4398 15.9999C13.4398 16.1131 13.3949 16.2216 13.3149 16.3016C13.2348 16.3816 13.1263 16.4266 13.0132 16.4266Z" fill="white"/>
</g>
<defs>
<linearGradient id="paint0_linear_846_20737" x1="-6.6304" y1="38.6304" x2="38.6261" y2="-6.62613" gradientUnits="userSpaceOnUse">
<stop stop-color="#C8511B"/>
<stop offset="1" stop-color="#FF9900"/>
</linearGradient>
<clipPath id="clip0_846_20737">
<rect width="32" height="32" fill="white"/>
</clipPath>
</defs>
</svg>
