<svg width="32" height="32" viewBox="0 0 32 32" fill="none" xmlns="http://www.w3.org/2000/svg">
<g clip-path="url(#clip0_850_22030)">
<path d="M32 0H0V32H32V0Z" fill="#ED7100"/>
<path fill-rule="evenodd" clip-rule="evenodd" d="M24.4279 15.2302C22.5311 16.4142 19.8871 17.6174 16.9839 18.6182C14.9791 19.3094 12.9279 19.8686 11.0871 20.2206C12.6087 24.2358 15.4879 26.8502 18.2855 26.3766C20.8583 25.9422 22.7695 22.8814 23.0399 18.7606L23.8383 18.8134C23.5383 23.3814 21.4111 26.6606 18.4183 27.1654C18.1615 27.2094 17.9039 27.2302 17.6471 27.2302C14.7023 27.2302 11.8103 24.4486 10.2903 20.3614C9.28388 20.5238 8.35268 20.6206 7.56228 20.6206C6.10628 20.6206 5.10148 20.3166 4.85668 19.6078C4.56548 18.763 5.39828 17.7022 7.33188 16.4542L7.76628 17.1262C5.88148 18.343 5.52628 19.0942 5.61268 19.347C5.78708 19.851 7.42308 19.9998 10.0303 19.5926C9.78948 18.8334 9.58948 18.0398 9.44948 17.211C8.95188 14.2646 9.20148 11.3686 10.1503 9.05576C11.1255 6.67896 12.7255 5.19016 14.6543 4.86376C16.9743 4.47416 19.4575 5.88776 21.2807 8.65256L20.6135 9.09336C18.9687 6.60056 16.7903 5.31256 14.7871 5.65336C13.1415 5.93096 11.7567 7.24696 10.8903 9.35976C9.99748 11.5358 9.76628 14.2774 10.2391 17.0774C10.3783 17.9078 10.5799 18.7006 10.8239 19.4566C12.4935 19.1462 14.4887 18.6318 16.7231 17.8622C19.5711 16.8806 22.1567 15.7046 24.0047 14.5518C26.0823 13.2542 26.4807 12.4534 26.3879 12.1846C26.3079 11.9526 25.6383 11.5958 23.6391 11.7366L23.5823 10.939C25.6671 10.7902 26.8679 11.1222 27.1447 11.9238C27.4471 12.8038 26.5335 13.9158 24.4279 15.2302Z" fill="white"/>
</g>
<defs>
<clipPath id="clip0_850_22030">
<rect width="32" height="32" fill="white"/>
</clipPath>
</defs>
</svg>
