<svg width="32" height="32" viewBox="0 0 32 32" fill="none" xmlns="http://www.w3.org/2000/svg">
<g clip-path="url(#clip0_850_22036)">
<path d="M32 0H0V32H32V0Z" fill="#ED7100"/>
<path fill-rule="evenodd" clip-rule="evenodd" d="M9.26005 17.9695C10.3 20.1175 12.9736 21.5999 16 21.5999C19.9704 21.5999 23.2 19.0871 23.2 15.9999C23.2 12.9119 19.9704 10.3999 16 10.3999C12.9736 10.3999 10.3 11.8815 9.26005 14.0295C9.37205 14.0095 9.48565 13.9999 9.60005 13.9999H17.6C18.7032 13.9999 19.6 14.8967 19.6 15.9999C19.6 17.1023 18.7032 17.9999 17.6 17.9999H9.60005C9.48565 17.9999 9.37205 17.9895 9.26005 17.9695ZM16 22.3999C12.2208 22.3999 8.92565 20.2551 8.16565 17.2999C8.12165 17.1303 8.19365 16.9519 8.34325 16.8599C8.49125 16.7679 8.68325 16.7839 8.81605 16.8991C8.97365 17.0359 9.23685 17.1999 9.60005 17.1999H17.6C18.2616 17.1999 18.8 16.6615 18.8 15.9999C18.8 15.3375 18.2616 14.7999 17.6 14.7999H9.60005C9.23685 14.7999 8.97365 14.9631 8.81605 15.1007C8.68325 15.2159 8.49125 15.2319 8.34325 15.1391C8.19365 15.0471 8.12165 14.8687 8.16565 14.6991C8.92565 11.7439 12.2208 9.5999 16 9.5999C20.4104 9.5999 24 12.4703 24 15.9999C24 19.5287 20.4104 22.3999 16 22.3999ZM16 7.1999C10.2656 7.1999 5.60005 11.1471 5.60005 15.9999C5.60005 20.8519 10.2656 24.7999 16 24.7999C21.7344 24.7999 26.4 20.8519 26.4 15.9999C26.4 11.1471 21.7344 7.1999 16 7.1999ZM16 25.5999C9.82405 25.5999 4.80005 21.2927 4.80005 15.9999C4.80005 10.7063 9.82405 6.3999 16 6.3999C22.176 6.3999 27.2 10.7063 27.2 15.9999C27.2 21.2927 22.176 25.5999 16 25.5999Z" fill="white"/>
</g>
<defs>
<clipPath id="clip0_850_22036">
<rect width="32" height="32" fill="white"/>
</clipPath>
</defs>
</svg>
