<svg width="32" height="32" viewBox="0 0 32 32" fill="none" xmlns="http://www.w3.org/2000/svg">
<g clip-path="url(#clip0_846_20746)">
<path d="M32 0H0V32H32V0Z" fill="url(#paint0_linear_846_20746)"/>
<path d="M13.5467 15.2875H12.3392H12.2624C11.6586 15.1881 11.0999 14.9056 10.6618 14.4783C10.2238 14.0509 9.92763 13.4993 9.81336 12.8981C9.57443 10.9056 10.7606 9.97547 11.6608 9.66827C11.6674 8.66668 12.0304 7.70016 12.6848 6.94187C13.0446 6.5284 13.4912 6.19934 13.9927 5.9781C14.4941 5.75686 15.0382 5.64889 15.5862 5.66187V5.66187C16.3485 5.63052 17.1023 5.83164 17.7478 6.23854C18.3932 6.64545 18.8996 7.23892 19.2 7.94027C19.5851 7.71185 20.0411 7.63432 20.48 7.72267C21.76 7.96587 22.1142 9.28 22.1227 9.94134H21.2694C21.2694 9.8944 21.2352 8.72534 20.3051 8.54614C20.1275 8.5118 19.9438 8.53122 19.7773 8.60191C19.6109 8.67259 19.4693 8.79133 19.3707 8.94294C19.3237 9.01278 19.2572 9.06717 19.1793 9.09927C19.1015 9.13136 19.016 9.13972 18.9334 9.12331C18.8509 9.10689 18.775 9.06642 18.7154 9.00699C18.6558 8.94757 18.6151 8.87184 18.5984 8.78934C18.4481 8.11758 18.0668 7.51987 17.5211 7.10039C16.9753 6.68092 16.2996 6.46627 15.6118 6.49387C15.1852 6.48353 14.7616 6.56768 14.3714 6.74029C13.9812 6.9129 13.634 7.16969 13.3547 7.49227C13.0646 7.82278 12.8447 8.20876 12.7083 8.62682C12.5719 9.04487 12.5218 9.48628 12.5611 9.92427C12.5759 10.0343 12.5472 10.1458 12.481 10.2351C12.4149 10.3243 12.3166 10.3842 12.207 10.4021C12.0278 10.4363 10.4448 10.7819 10.6838 12.7744C10.7762 13.1861 10.987 13.5617 11.2903 13.8551C11.5935 14.1485 11.9759 14.3468 12.3904 14.4256H13.5552L13.5467 15.2875Z" fill="white"/>
<path d="M18.991 14.9077H16.0684V15.761H18.991V14.9077Z" fill="white"/>
<path d="M18.991 16.5803H16.0684V17.4337H18.991V16.5803Z" fill="white"/>
<path d="M18.991 13.2266H16.0684V14.0799H18.991V13.2266Z" fill="white"/>
<path d="M19.6864 14.0799C19.602 14.0799 19.5196 14.0549 19.4494 14.008C19.3792 13.9611 19.3245 13.8945 19.2922 13.8165C19.26 13.7385 19.2515 13.6528 19.268 13.57C19.2844 13.4872 19.3251 13.4112 19.3847 13.3515C19.4444 13.2919 19.5204 13.2512 19.6032 13.2348C19.686 13.2183 19.7717 13.2267 19.8497 13.259C19.9277 13.2913 19.9943 13.346 20.0412 13.4162C20.0881 13.4864 20.1131 13.5688 20.1131 13.6532C20.1131 13.7664 20.0681 13.8749 19.9881 13.9549C19.9081 14.0349 19.7996 14.0799 19.6864 14.0799Z" fill="white"/>
<path d="M19.6864 15.7525C19.5733 15.7525 19.4647 15.7076 19.3847 15.6275C19.3047 15.5475 19.2598 15.439 19.2598 15.3258C19.2598 15.2127 19.3047 15.1042 19.3847 15.0241C19.4647 14.9441 19.5733 14.8992 19.6864 14.8992C19.7996 14.8992 19.9081 14.9441 19.9881 15.0241C20.0681 15.1042 20.1131 15.2127 20.1131 15.3258C20.1131 15.439 20.0681 15.5475 19.9881 15.6275C19.9081 15.7076 19.7996 15.7525 19.6864 15.7525Z" fill="white"/>
<path d="M19.6864 17.4207C19.602 17.4207 19.5196 17.3957 19.4494 17.3488C19.3792 17.3019 19.3245 17.2353 19.2922 17.1573C19.26 17.0794 19.2515 16.9936 19.268 16.9108C19.2844 16.828 19.3251 16.752 19.3847 16.6924C19.4444 16.6327 19.5204 16.592 19.6032 16.5756C19.686 16.5591 19.7717 16.5676 19.8497 16.5999C19.9277 16.6322 19.9943 16.6868 20.0412 16.757C20.0881 16.8272 20.1131 16.9097 20.1131 16.994C20.1131 17.1072 20.0681 17.2157 19.9881 17.2957C19.9081 17.3758 19.7996 17.4207 19.6864 17.4207Z" fill="white"/>
<path d="M20.9323 25.3697H15.0315C14.692 25.3697 14.3664 25.2348 14.1264 24.9948C13.8863 24.7547 13.7515 24.4291 13.7515 24.0897V11.6694C13.7515 11.3299 13.8863 11.0044 14.1264 10.7643C14.3664 10.5243 14.692 10.3894 15.0315 10.3894H20.9323C21.2717 10.3894 21.5973 10.5243 21.8374 10.7643C22.0774 11.0044 22.2123 11.3299 22.2123 11.6694V24.0897C22.2123 24.4291 22.0774 24.7547 21.8374 24.9948C21.5973 25.2348 21.2717 25.3697 20.9323 25.3697V25.3697ZM15.0315 11.2427C14.9183 11.2427 14.8098 11.2877 14.7298 11.3677C14.6498 11.4477 14.6048 11.5562 14.6048 11.6694V24.0897C14.6048 24.2028 14.6498 24.3114 14.7298 24.3914C14.8098 24.4714 14.9183 24.5163 15.0315 24.5163H20.9323C21.0454 24.5163 21.1539 24.4714 21.234 24.3914C21.314 24.3114 21.3589 24.2028 21.3589 24.0897V11.6694C21.3589 11.5562 21.314 11.4477 21.234 11.3677C21.1539 11.2877 21.0454 11.2427 20.9323 11.2427H15.0315Z" fill="white"/>
<path d="M16.8789 26.351H15.0741C14.961 26.351 14.8524 26.3061 14.7724 26.2261C14.6924 26.146 14.6475 26.0375 14.6475 25.9244V24.943C14.6475 24.8299 14.6924 24.7213 14.7724 24.6413C14.8524 24.5613 14.961 24.5164 15.0741 24.5164H16.8789C16.9921 24.5164 17.1006 24.5613 17.1806 24.6413C17.2606 24.7213 17.3056 24.8299 17.3056 24.943V25.9244C17.3056 26.0375 17.2606 26.146 17.1806 26.2261C17.1006 26.3061 16.9921 26.351 16.8789 26.351ZM15.5008 25.4977H16.4523V25.3697H15.5008V25.4977Z" fill="white"/>
<path d="M21.0687 26.351H19.2597C19.1465 26.351 19.038 26.3061 18.958 26.2261C18.878 26.146 18.833 26.0375 18.833 25.9244V24.943C18.833 24.8299 18.878 24.7213 18.958 24.6413C19.038 24.5613 19.1465 24.5164 19.2597 24.5164H21.0687C21.1819 24.5164 21.2904 24.5613 21.3704 24.6413C21.4505 24.7213 21.4954 24.8299 21.4954 24.943V25.9244C21.4954 26.0375 21.4505 26.146 21.3704 26.2261C21.2904 26.3061 21.1819 26.351 21.0687 26.351ZM19.6863 25.4977H20.6421V25.3697H19.6863V25.4977Z" fill="white"/>
</g>
<defs>
<linearGradient id="paint0_linear_846_20746" x1="-6.62742" y1="38.6287" x2="38.6274" y2="-6.62613" gradientUnits="userSpaceOnUse">
<stop stop-color="#C8511B"/>
<stop offset="1" stop-color="#FF9900"/>
</linearGradient>
<clipPath id="clip0_846_20746">
<rect width="32" height="32" fill="white"/>
</clipPath>
</defs>
</svg>
