<svg width="32" height="32" viewBox="0 0 32 32" fill="none" xmlns="http://www.w3.org/2000/svg">
<g clip-path="url(#clip0_846_20747)">
<path d="M32 0H0V32H32V0Z" fill="#D86613"/>
<path d="M22.5536 22.8267H9.85605C7.77818 22.8267 5.46991 21.3121 5.34191 19.0593C5.34191 18.9697 5.34191 18.8801 5.34191 18.7819C5.34191 18.6838 5.34191 18.6667 5.34191 18.607C5.3398 18.5914 5.3398 18.5756 5.34191 18.5601C5.33981 18.5302 5.33981 18.5003 5.34191 18.4705C5.37209 17.6689 5.65614 16.8977 6.15307 16.2681C6.65001 15.6385 7.33413 15.1831 8.10671 14.9675C8.10671 14.8609 8.10671 14.7585 8.10671 14.6518C8.13112 13.545 8.48192 12.4701 9.11507 11.562C9.74822 10.6538 10.6355 9.95295 11.6656 9.54731C12.6956 9.14166 13.8226 9.04932 14.9049 9.28187C15.9873 9.51443 16.9768 10.0615 17.7494 10.8545C18.2816 11.3802 18.7152 11.9973 19.0294 12.6763C19.4809 12.322 20.0384 12.1296 20.6123 12.1302C21.8112 12.1302 23.0656 12.9835 23.3003 14.8651C25.3483 15.3601 26.5174 16.6401 26.6539 18.4534C26.6584 18.4888 26.6584 18.5246 26.6539 18.5601C26.656 18.5785 26.656 18.5971 26.6539 18.6155C26.6539 18.6838 26.6539 18.7478 26.6539 18.8161C26.6667 22.5366 23.5179 22.8267 22.5536 22.8267ZM6.19098 18.9867V19.0166C6.28911 20.7574 8.19631 21.9734 9.85178 21.9734H22.5536C23.5136 21.9734 25.7195 21.6747 25.8091 18.9867H19.759C19.8104 19.1554 19.8363 19.3309 19.8358 19.5073C19.8137 19.9535 19.6208 20.3741 19.2972 20.6821C18.9736 20.9901 18.5439 21.1619 18.0971 21.1619C17.6503 21.1619 17.2207 20.9901 16.897 20.6821C16.5734 20.3741 16.3806 19.9535 16.3584 19.5073C16.3572 19.3305 16.3846 19.1547 16.4395 18.9867H12.2454C12.1599 18.9868 12.0764 18.9612 12.0057 18.9133C11.9349 18.8654 11.8802 18.7973 11.8486 18.7179C11.8166 18.6385 11.8092 18.5512 11.8275 18.4675C11.8457 18.3838 11.8888 18.3075 11.951 18.2486C12.0386 18.1666 12.1085 18.0675 12.1562 17.9574C12.2039 17.8473 12.2285 17.7286 12.2283 17.6086C12.2127 17.3844 12.1127 17.1745 11.9484 17.0212C11.7841 16.8679 11.5677 16.7826 11.343 16.7826C11.1183 16.7826 10.9019 16.8679 10.7376 17.0212C10.5733 17.1745 10.4732 17.3844 10.4576 17.6086C10.4575 17.7286 10.482 17.8473 10.5298 17.9574C10.5775 18.0675 10.6473 18.1666 10.735 18.2486C10.7965 18.308 10.8387 18.3845 10.8562 18.4682C10.8737 18.5519 10.8657 18.6389 10.8331 18.7179C10.8015 18.7973 10.7468 18.8654 10.676 18.9133C10.6053 18.9612 10.5218 18.9868 10.4363 18.9867H6.19098ZM15.151 18.1334H17.199C17.2839 18.1337 17.3668 18.1594 17.437 18.2071C17.5073 18.2548 17.5617 18.3224 17.5933 18.4012C17.6249 18.48 17.6323 18.5664 17.6145 18.6495C17.5967 18.7325 17.5545 18.8083 17.4934 18.8673C17.4057 18.9492 17.3359 19.0483 17.2882 19.1584C17.2404 19.2685 17.2159 19.3873 17.216 19.5073C17.2316 19.7314 17.3317 19.9414 17.496 20.0947C17.6603 20.248 17.8767 20.3332 18.1014 20.3332C18.3261 20.3332 18.5425 20.248 18.7068 20.0947C18.8711 19.9414 18.9711 19.7314 18.9867 19.5073C18.9869 19.3873 18.9623 19.2685 18.9146 19.1584C18.8669 19.0483 18.797 18.9492 18.7094 18.8673C18.6479 18.8079 18.6056 18.7314 18.5882 18.6477C18.5707 18.564 18.5787 18.477 18.6112 18.3979C18.6435 18.3193 18.6985 18.2522 18.7692 18.205C18.8399 18.1579 18.9231 18.133 19.008 18.1334H25.7536C25.5147 16.815 24.5334 15.9745 22.831 15.6331C22.7381 15.6143 22.6541 15.5651 22.5923 15.4932C22.5305 15.4214 22.4944 15.331 22.4896 15.2363C22.3915 13.5766 21.4187 12.9835 20.6208 12.9835C20.3503 12.985 20.0838 13.0494 19.8424 13.1716C19.601 13.2937 19.3913 13.4704 19.2299 13.6875C19.1835 13.7479 19.1218 13.7948 19.0511 13.8233C18.9805 13.8518 18.9035 13.8608 18.8282 13.8495C18.7528 13.8382 18.6819 13.8069 18.6228 13.7589C18.5636 13.7109 18.5184 13.648 18.4918 13.5766C18.2092 12.7831 17.7546 12.0618 17.1606 11.4646C16.5963 10.9019 15.9059 10.4821 15.1467 10.2401V13.4785C15.3147 13.4235 15.4905 13.3962 15.6672 13.3974C16.1289 13.3974 16.5717 13.5808 16.8982 13.9073C17.2246 14.2337 17.408 14.6765 17.408 15.1382C17.408 15.5999 17.2246 16.0427 16.8982 16.3691C16.5717 16.6956 16.1289 16.879 15.6672 16.879C15.4907 16.8781 15.3152 16.8507 15.1467 16.7979L15.151 18.1334ZM13.0176 18.1334H14.2976V16.0513C14.2971 15.9654 14.3224 15.8814 14.3703 15.8102C14.4182 15.739 14.4865 15.6839 14.5662 15.6521C14.646 15.6203 14.7334 15.6133 14.8172 15.632C14.9009 15.6507 14.9771 15.6942 15.0358 15.7569C15.1164 15.845 15.2147 15.9153 15.3242 15.963C15.4337 16.0108 15.552 16.035 15.6715 16.0342C15.9069 16.0342 16.1326 15.9407 16.299 15.7743C16.4655 15.6078 16.559 15.3821 16.559 15.1467C16.559 14.9114 16.4655 14.6856 16.299 14.5192C16.1326 14.3528 15.9069 14.2593 15.6715 14.2593C15.5524 14.2579 15.4342 14.2814 15.3247 14.3285C15.2152 14.3755 15.1168 14.4449 15.0358 14.5323C14.9774 14.5947 14.9016 14.6381 14.8182 14.6569C14.7349 14.6757 14.6478 14.6691 14.5682 14.6378C14.4887 14.6066 14.4204 14.5521 14.3721 14.4816C14.3239 14.411 14.2979 14.3276 14.2976 14.2422V10.0651C13.4413 9.96742 12.5742 10.0923 11.7803 10.4278C10.9655 10.8021 10.2705 11.3951 9.77261 12.1408C9.27471 12.8865 8.99343 13.7557 8.96005 14.6518C8.95841 14.8443 8.96982 15.0368 8.99418 15.2278C9.00646 15.3316 8.98023 15.4362 8.92046 15.522C8.86069 15.6077 8.77154 15.6685 8.66991 15.6929C8.06382 15.8036 7.50592 16.0966 7.07063 16.5326C6.63534 16.9687 6.34336 17.5271 6.23365 18.1334H9.67685C9.62511 17.9633 9.59922 17.7864 9.60005 17.6086C9.62216 17.1624 9.81499 16.7417 10.1386 16.4337C10.4623 16.1257 10.8919 15.9539 11.3387 15.9539C11.7855 15.9539 12.2152 16.1257 12.5388 16.4337C12.8624 16.7417 13.0553 17.1624 13.0774 17.6086C13.0803 17.7865 13.0544 17.9638 13.0006 18.1334H13.0176Z" fill="white"/>
</g>
<defs>
<clipPath id="clip0_846_20747">
<rect width="32" height="32" fill="white"/>
</clipPath>
</defs>
</svg>
