<svg width="32" height="32" viewBox="0 0 32 32" fill="none" xmlns="http://www.w3.org/2000/svg">
<g clip-path="url(#clip0_846_20750)">
<path d="M32 0H0V32H32V0Z" fill="#D86613"/>
<path d="M9.38669 21.1199H19.264C19.0015 21.4255 18.7163 21.7107 18.4107 21.9732H9.38669C8.31979 21.9986 7.28358 21.615 6.49034 20.901C5.69709 20.1871 5.20684 19.1969 5.12003 18.1332C5.12003 18.0394 5.12003 17.9455 5.12003 17.8474C5.08514 16.9743 5.34708 16.1152 5.86313 15.41C6.37917 14.7049 7.11888 14.1955 7.96163 13.9647C7.96163 13.8538 7.96163 13.7471 7.96163 13.6362C7.98724 12.6169 8.28516 11.6231 8.82445 10.7578C9.36375 9.89257 10.1248 9.18739 11.0286 8.71547C11.9323 8.24355 12.9459 8.0221 13.9642 8.07408C14.9824 8.12607 15.9682 8.4496 16.8192 9.0111C17.1652 9.23466 17.4882 9.49191 17.7835 9.7791L17.92 9.9199C18.4078 10.4265 18.806 11.0123 19.0976 11.6522C19.1446 11.6138 19.1958 11.5796 19.247 11.5455C19.2178 11.975 19.1637 12.4023 19.0848 12.8255C19.0208 12.8447 18.9526 12.8447 18.8886 12.8255C18.8131 12.8143 18.742 12.783 18.6827 12.735C18.6235 12.687 18.5781 12.6239 18.5515 12.5524C18.2673 11.7389 17.8019 11.0007 17.1904 10.3935C16.523 9.70202 15.6661 9.22317 14.7274 9.01707C13.7887 8.81096 12.8101 8.88681 11.9143 9.23507C11.0186 9.58334 10.2457 10.1885 9.69279 10.9745C9.13985 11.7606 8.83149 12.6925 8.80643 13.6532C8.80704 13.85 8.81843 14.0465 8.84056 14.242C8.85309 14.3501 8.82384 14.4589 8.75881 14.5462C8.69377 14.6334 8.59786 14.6925 8.49069 14.7114C7.53496 14.9588 5.97336 15.6884 5.97336 17.8644C5.97336 17.9455 5.97336 18.0266 5.97336 18.1034C6.05316 18.9455 6.45025 19.7258 7.08411 20.2859C7.71796 20.8461 8.54113 21.1443 9.38669 21.1199V21.1199Z" fill="white"/>
<path d="M26.88 17.89C26.88 20.9066 24.6357 21.9732 22.5323 21.9732H21.8667L21.9136 21.9135C22.1056 21.6618 22.2933 21.3972 22.4725 21.1199H22.5323C23.5819 21.1199 26.0267 20.8042 26.0267 17.89C26.0267 16.1407 24.9984 15.0484 22.9717 14.6388C22.8795 14.6202 22.7961 14.5716 22.7343 14.5006C22.6726 14.4296 22.6361 14.3402 22.6304 14.2463C22.6381 13.876 22.5641 13.5085 22.4136 13.17C22.2632 12.8315 22.04 12.5304 21.76 12.2879C21.7984 11.9722 21.8197 11.665 21.8325 11.3706V11.3364C22.3008 11.5882 22.6967 11.9556 22.9828 12.4038C23.2688 12.8519 23.4354 13.3657 23.4667 13.8964C25.664 14.4212 26.88 15.8378 26.88 17.89Z" fill="white"/>
<path d="M15.7866 20.2665H11.5199C11.4068 20.2665 11.2982 20.2215 11.2182 20.1415C11.1382 20.0615 11.0933 19.953 11.0933 19.8398V10.8798C11.0933 10.7666 11.1382 10.6581 11.2182 10.5781C11.2982 10.4981 11.4068 10.4531 11.5199 10.4531H15.7866C15.8998 10.4531 16.0083 10.4981 16.0883 10.5781C16.1683 10.6581 16.2133 10.7666 16.2133 10.8798V19.8398C16.2133 19.953 16.1683 20.0615 16.0883 20.1415C16.0083 20.2215 15.8998 20.2665 15.7866 20.2665ZM11.9466 19.4131H15.3599V11.3065H11.9466V19.4131Z" fill="white"/>
<path d="M14.9333 12.1599H12.3733V13.0132H14.9333V12.1599Z" fill="white"/>
<path d="M14.9333 13.8665H12.3733V14.7198H14.9333V13.8665Z" fill="white"/>
<path d="M21.3333 16.5972L19.3109 17.4164C19.2065 17.4561 19.0911 17.4561 18.9866 17.4164C18.9346 17.3945 18.8875 17.3625 18.8479 17.3222C18.8084 17.2819 18.7772 17.2342 18.7562 17.1818L17.9541 15.2106L18.7434 14.8863L19.1317 15.8506C19.6789 14.3919 20.0095 12.861 20.113 11.3066V11.1658C20.1472 9.80896 19.8442 8.8831 19.2597 8.63563C18.7904 8.4351 18.2016 8.70816 17.7877 8.9727L17.3269 8.2559C18.3893 7.57323 19.1488 7.65856 19.5968 7.85483C20.5098 8.2559 20.9834 9.42923 20.945 11.1658V11.3364C20.8361 13.022 20.4751 14.6817 19.8741 16.2602L21.0133 15.7866L21.3333 16.5972Z" fill="white"/>
<path d="M24.1835 19.3194L23.3814 19.6266L22.9931 18.5599C22.4918 19.5587 21.9051 20.5123 21.2395 21.41L20.8939 21.8367C19.6139 23.4324 18.3339 24.29 17.2843 24.29C17.0495 24.2906 16.8171 24.2426 16.6017 24.1492C16.3382 24.021 16.105 23.8384 15.9175 23.6133C15.7299 23.3882 15.5923 23.1259 15.5137 22.8436H16.4395C16.5416 23.0715 16.7195 23.257 16.943 23.3684C17.6769 23.6884 18.9398 22.8948 20.2326 21.2991C20.3393 21.1626 20.4502 21.0303 20.5569 20.8724C21.1724 20.0388 21.7176 19.1554 22.1867 18.2314L21.1499 18.6111L20.8555 17.809L22.9035 17.0666C22.9556 17.0449 23.0114 17.0337 23.0678 17.0337C23.1242 17.0337 23.18 17.0449 23.2321 17.0666C23.3331 17.1146 23.4113 17.2004 23.4497 17.3055L24.1835 19.3194Z" fill="white"/>
</g>
<defs>
<clipPath id="clip0_846_20750">
<rect width="32" height="32" fill="white"/>
</clipPath>
</defs>
</svg>
