<svg width="32" height="32" viewBox="0 0 32 32" fill="none" xmlns="http://www.w3.org/2000/svg">
<g clip-path="url(#clip0_867_36539)">
<path d="M32 0H0V32H32V0Z" fill="#DD344C"/>
<path fill-rule="evenodd" clip-rule="evenodd" d="M14.1999 12.4837C13.6722 12.4837 13.2431 12.0463 13.2431 11.5093C13.2431 10.9715 13.6722 10.5341 14.1999 10.5341C14.7276 10.5341 15.1567 10.9715 15.1567 11.5093C15.1567 12.0463 14.7276 12.4837 14.1999 12.4837ZM13.49 15.5209C14.3703 15.5209 15.0865 16.2509 15.0865 17.1481C15.0865 18.0453 14.3703 18.776 13.49 18.776C12.6089 18.776 11.8927 18.0453 11.8927 17.1481C11.8927 16.2509 12.6089 15.5209 13.49 15.5209ZM13.5247 20.2858C10.3901 20.2858 7.83999 17.6867 7.83999 14.4919C7.83999 11.2971 10.3901 8.69876 13.5247 8.69876C16.6585 8.69876 19.2094 11.2971 19.2094 14.4919C19.2094 15.3215 19.0343 16.1086 18.7243 16.8225L15.7419 16.3803C15.5455 15.7846 15.133 15.2958 14.5943 15.0064V13.2378C15.3665 13.0545 15.9455 12.351 15.9455 11.5093C15.9455 10.5285 15.1622 9.7302 14.1999 9.7302C13.2376 9.7302 12.4543 10.5285 12.4543 11.5093C12.4543 12.351 13.0333 13.0545 13.8055 13.2378V14.7491C13.7006 14.7355 13.5973 14.717 13.49 14.717C12.8629 14.717 12.2958 14.9694 11.8698 15.3738L10.8831 14.3584C11.1576 13.9637 11.3224 13.4854 11.3224 12.966C11.3224 12.138 10.9146 11.3775 10.2316 10.9297L9.80483 11.6066C10.2607 11.9048 10.5337 12.4129 10.5337 12.966C10.5337 13.8568 9.8214 14.5819 8.94743 14.5819V15.3859C9.4625 15.3859 9.93735 15.2138 10.327 14.9284L11.3887 16.021C11.2128 16.3602 11.1039 16.7397 11.1039 17.1481C11.1039 18.489 12.1743 19.58 13.49 19.58C14.7836 19.58 15.835 18.522 15.8689 17.2116L18.3276 17.5758C17.3195 19.2005 15.5455 20.2858 13.5247 20.2858ZM13.5247 7.89483C9.95549 7.89483 7.05121 10.8541 7.05121 14.4919C7.05121 18.1297 9.95549 21.0897 13.5247 21.0897C17.0939 21.0897 19.9982 18.1297 19.9982 14.4919C19.9982 10.8541 17.0939 7.89483 13.5247 7.89483ZM26.0741 25.9519C25.5859 26.5034 24.745 26.5476 24.2039 26.0524L19.08 21.3422C19.7615 20.7666 20.3516 20.0856 20.8351 19.3283L25.9763 24.0466C26.5166 24.545 26.5608 25.4004 26.0741 25.9519ZM5.58882 14.4919C5.58882 10.0325 9.14857 6.40434 13.5247 6.40434C17.9 6.40434 21.4598 10.0325 21.4598 14.4919C21.4598 18.9513 17.9 22.5802 13.5247 22.5802C9.14857 22.5802 5.58882 18.9513 5.58882 14.4919ZM26.5048 23.4501L21.2444 18.6209C21.8826 17.386 22.2486 15.9824 22.2486 14.4919C22.2486 9.58871 18.3347 5.59961 13.5247 5.59961C8.71395 5.59961 4.80005 9.58871 4.80005 14.4919C4.80005 19.3951 8.71395 23.3842 13.5247 23.3842C15.346 23.3842 17.0379 22.8101 18.438 21.8334L23.6762 26.6497C24.0785 27.0187 24.5841 27.1996 25.0882 27.1996C25.6663 27.1996 26.2429 26.9608 26.6602 26.4905C27.4371 25.6086 27.3669 24.2444 26.5048 23.4501Z" fill="white"/>
</g>
<defs>
<clipPath id="clip0_867_36539">
<rect width="32" height="32" fill="white"/>
</clipPath>
</defs>
</svg>
