<svg width="32" height="32" viewBox="0 0 32 32" fill="none" xmlns="http://www.w3.org/2000/svg">
<g clip-path="url(#clip0_867_36536)">
<path d="M32 0H0V32H32V0Z" fill="#DD344C"/>
<path fill-rule="evenodd" clip-rule="evenodd" d="M20 17.451C19.9992 17.603 19.9408 21.031 16.8 21.3054V11.675L20 13.0622V17.451ZM12.8 17.439V13.0622L16 11.675V21.3054C12.8584 21.0302 12.8008 17.591 12.8 17.439ZM20.5592 12.4326L16.5592 10.699C16.4576 10.655 16.3424 10.655 16.2408 10.699L12.2408 12.4326C12.0944 12.4958 12 12.6398 12 12.7998V17.439C12 17.4862 12.0496 22.1326 16.4 22.1326C20.7496 22.1326 20.8 17.499 20.8 17.4518V12.7998C20.8 12.6398 20.7056 12.4958 20.5592 12.4326ZM27.2 18.2014L25.7649 18.1198C25.5449 18.1086 25.3952 18.2406 25.352 18.431C25.1216 19.4486 24.7232 20.4118 24.1664 21.2926C24.0616 21.4582 24.092 21.675 24.2384 21.8046L25.312 22.7622L22.7616 25.3102L21.8088 24.2414C21.6784 24.0958 21.4616 24.0654 21.2968 24.1694C20.4144 24.727 19.4504 25.1262 18.4312 25.3558C18.2408 25.399 18.1096 25.5742 18.12 25.7694L18.2024 27.1998H14.5976L14.68 25.7686C14.6904 25.5734 14.5592 25.399 14.3688 25.355C13.352 25.1254 12.3888 24.7262 11.5064 24.1678C11.3408 24.0646 11.124 24.0942 10.9936 24.239L10.0384 25.3102L7.48805 22.7614L8.55925 21.8062C8.70565 21.6766 8.73605 21.4598 8.63125 21.295C8.07445 20.4118 7.67605 19.4486 7.44805 18.4318C7.40485 18.2414 7.25205 18.1166 7.03445 18.1198L5.60005 18.2014V14.5966L7.03765 14.679C7.25525 14.6886 7.40725 14.5574 7.44965 14.3678C7.68085 13.3526 8.08085 12.391 8.63765 11.5102C8.74245 11.3446 8.71205 11.1278 8.56565 10.9982L7.48805 10.0374L10.0384 7.4878L10.9976 8.5638C11.1272 8.7086 11.3448 8.7398 11.5096 8.6358C12.392 8.0798 13.3536 7.6822 14.3688 7.4526C14.5592 7.4102 14.6904 7.235 14.68 7.0398L14.5976 5.5998H18.2024L18.12 7.0414C18.1096 7.2358 18.2408 7.411 18.4312 7.4542C19.4456 7.6838 20.4072 8.08141 21.288 8.63821C21.4536 8.74221 21.6704 8.7118 21.8 8.5662L22.7616 7.4878L25.312 10.0374L24.2368 10.9958C24.0904 11.1262 24.06 11.3422 24.1648 11.5078C24.7208 12.3894 25.12 13.3518 25.3504 14.3678C25.3936 14.5582 25.5632 14.6966 25.7632 14.679L27.2 14.5966V18.2014ZM27.8753 13.883C27.7937 13.807 27.6944 13.7734 27.5776 13.7742L26.0504 13.8614C25.82 12.987 25.4744 12.1518 25.0176 11.371L26.16 10.3518C26.2424 10.279 26.2904 10.175 26.2936 10.0654C26.2968 9.955 26.2544 9.8486 26.1768 9.771L23.028 6.623C22.9504 6.5462 22.8552 6.50941 22.7336 6.50621C22.624 6.50941 22.52 6.5574 22.4472 6.6398L21.4248 7.7846C20.6448 7.3286 19.8112 6.983 18.9376 6.7542L19.0248 5.2222C19.0312 5.1126 18.992 5.0046 18.9168 4.9246C18.8408 4.8446 18.736 4.7998 18.6256 4.7998H14.1744C14.064 4.7998 13.9592 4.8446 13.8832 4.9246C13.808 5.0046 13.7688 5.1126 13.7752 5.2222L13.8624 6.7526C12.9888 6.9814 12.1544 7.327 11.3736 7.783L10.3528 6.6398C10.28 6.5574 10.176 6.50941 10.0664 6.50621C9.97045 6.51181 9.84965 6.5462 9.77205 6.623L6.62325 9.771C6.54565 9.8486 6.50325 9.955 6.50645 10.0654C6.50965 10.175 6.55765 10.279 6.64005 10.3518L7.78405 11.3726C7.32725 12.1526 6.98085 12.987 6.75045 13.8614L5.22245 13.7742C5.11925 13.7734 5.00645 13.807 4.92485 13.883C4.84565 13.9582 4.80005 14.063 4.80005 14.1734V18.6254C4.80005 18.735 4.84565 18.8406 4.92485 18.9158C5.00645 18.9918 5.11925 19.0342 5.22245 19.0246L6.74725 18.9374C6.97605 19.8126 7.32085 20.6494 7.77845 21.431L6.64005 22.447C6.55765 22.5198 6.50965 22.6238 6.50645 22.7342C6.50325 22.8438 6.54565 22.9502 6.62325 23.0278L9.77205 26.1758C9.84965 26.2534 9.96725 26.2934 10.0664 26.2926C10.176 26.2894 10.28 26.2414 10.3528 26.159L11.3688 25.0206C12.1504 25.479 12.9872 25.8254 13.8616 26.055L13.7752 27.5766C13.7688 27.6862 13.808 27.7942 13.8832 27.8742C13.9584 27.9542 14.064 27.9998 14.1744 27.9998H18.6256C18.736 27.9998 18.8416 27.9542 18.9168 27.8742C18.992 27.7942 19.0312 27.6862 19.0248 27.5766L18.9384 26.0558C19.8152 25.8262 20.6512 25.4798 21.4336 25.0222L22.4472 26.159C22.52 26.2414 22.624 26.2894 22.7336 26.2926C22.8584 26.2958 22.9504 26.2534 23.028 26.1758L26.1768 23.0278C26.2544 22.9502 26.2968 22.8438 26.2936 22.7342C26.2904 22.6238 26.2424 22.5198 26.16 22.447L25.0192 21.4294C25.4768 20.6494 25.8224 19.8134 26.0512 18.9374L27.5776 19.0246C27.6944 19.0342 27.7937 18.9918 27.8753 18.9158C27.9545 18.8406 28 18.735 28 18.6254V14.1734C28 14.063 27.9545 13.9582 27.8753 13.883Z" fill="white"/>
</g>
<defs>
<clipPath id="clip0_867_36536">
<rect width="32" height="32" fill="white"/>
</clipPath>
</defs>
</svg>
