<svg width="32" height="32" viewBox="0 0 32 32" fill="none" xmlns="http://www.w3.org/2000/svg">
<g clip-path="url(#clip0_867_36549)">
<path d="M32 0H0V32H32V0Z" fill="#DD344C"/>
<path fill-rule="evenodd" clip-rule="evenodd" d="M22.4016 16.7241C21.6098 16.0917 20.9443 15.5631 20.3836 15.1276C21.0443 13.9201 21.8145 12.5491 22.1617 12.2484C23.1671 12.898 26.2402 18.4153 26.425 19.7487C25.6883 19.3516 23.8158 17.854 22.4016 16.7241ZM16.3611 19.9954C16.1315 19.8843 15.6532 19.1915 15.1021 18.2911C15.2125 18.1106 15.3292 17.9169 15.4548 17.7102C16.1683 16.5313 17.3489 14.5818 17.7776 14.3106C18.0264 14.3939 18.6231 14.8098 19.3446 15.3539C18.4455 17.0059 16.8522 19.9154 16.3611 19.9954ZM13.2032 19.7127C12.9344 19.3876 12.4601 18.5076 12.1602 17.9512C11.3923 16.5255 11.1059 16.0312 10.694 16.0174H10.6932C10.6876 16.0165 10.6828 16.0165 10.6764 16.0165C10.3509 16.0165 9.96933 16.3433 8.55917 17.671C8.01926 18.18 7.23059 18.9219 6.67148 19.368C7.48095 17.5623 9.85015 13.2607 10.6532 12.1831C11.0204 12.719 11.753 14.0353 12.3609 15.1301C13.0904 16.4414 13.6775 17.479 14.1598 18.2887C13.7855 18.8941 13.4192 19.4619 13.2032 19.7127ZM26.6361 18.024C25.9035 16.3213 23.2223 11.4004 22.1505 11.4004C21.5922 11.4004 21.0683 12.2068 19.7373 14.6341C18.6871 13.8457 18.1056 13.4952 17.7744 13.4838C17.768 13.4838 17.7616 13.4838 17.7544 13.4838C17.1673 13.4838 16.5194 14.3988 14.7749 17.2805C14.7293 17.3548 14.6829 17.4324 14.6349 17.5109C14.0814 16.5688 13.5047 15.5312 13.056 14.7265C11.3059 11.5777 11.0611 11.2157 10.6788 11.201C10.6764 11.2002 10.6748 11.2002 10.6724 11.2002C9.75417 11.2002 5.9756 18.9219 5.74124 19.5305C5.62686 19.8279 5.48528 20.1989 5.75323 20.435C6.25235 20.8754 6.98263 20.2667 9.10147 18.2715C9.62139 17.7821 10.3045 17.1391 10.626 16.9038C10.8356 17.1857 11.2027 17.8679 11.4595 18.345C12.3425 19.9832 12.7201 20.6033 13.1976 20.6172C13.5407 20.5943 13.8359 20.319 14.6293 19.0559C15.4348 20.3296 15.8963 20.8002 16.2915 20.8002H16.2971C17.1857 20.7896 18.1592 19.2054 19.9901 15.849C20.6299 16.3458 21.3114 16.8899 21.9089 17.3679C25.9611 20.6066 26.5786 20.9832 27.0137 20.5012C27.2552 20.2315 27.3776 19.7446 26.6361 18.024Z" fill="white"/>
</g>
<defs>
<clipPath id="clip0_867_36549">
<rect width="32" height="32" fill="white"/>
</clipPath>
</defs>
</svg>
