<svg width="32" height="32" viewBox="0 0 32 32" fill="none" xmlns="http://www.w3.org/2000/svg">
<g clip-path="url(#clip0_867_36530)">
<path d="M32 0H0V32H32V0Z" fill="#DD344C"/>
<path fill-rule="evenodd" clip-rule="evenodd" d="M20.388 22.4422C19.9464 22.4422 19.588 22.083 19.588 21.6422C19.588 21.2014 19.9464 20.8422 20.388 20.8422C20.8296 20.8422 21.188 21.2014 21.188 21.6422C21.188 22.083 20.8296 22.4422 20.388 22.4422ZM16.8032 21.6422C16.8032 22.083 16.444 22.4422 16.004 22.4422C15.5632 22.4422 15.2048 22.083 15.2048 21.6422C15.2048 21.2014 15.5632 20.8422 16.004 20.8422C16.444 20.8422 16.8032 21.2014 16.8032 21.6422ZM12.4048 21.6422C12.4048 22.083 12.0456 22.4422 11.6048 22.4422C11.1632 22.4422 10.8048 22.083 10.8048 21.6422C10.8048 21.2014 11.1632 20.8422 11.6048 20.8422C12.0456 20.8422 12.4048 21.2014 12.4048 21.6422ZM14.4048 14.4422C14.4048 13.5598 15.1224 12.8422 16.0048 12.8422C16.8864 12.8422 17.6048 13.5598 17.6048 14.4422C17.6048 15.3246 16.8864 16.0422 16.0048 16.0422C15.1224 16.0422 14.4048 15.3246 14.4048 14.4422ZM20.788 20.099V18.0422C20.788 17.8214 20.6088 17.6422 20.388 17.6422H16.4048V16.8014C17.5376 16.6102 18.4048 15.6286 18.4048 14.4422C18.4048 13.119 17.328 12.0422 16.0048 12.0422C14.6808 12.0422 13.6048 13.119 13.6048 14.4422C13.6048 15.6286 14.4712 16.6102 15.6048 16.8014V17.6422H11.6048C11.3832 17.6422 11.2048 17.8214 11.2048 18.0422V20.099C10.516 20.2774 10.0048 20.899 10.0048 21.6422C10.0048 22.5246 10.7224 23.2422 11.6048 23.2422C12.4864 23.2422 13.2048 22.5246 13.2048 21.6422C13.2048 20.899 12.6928 20.2774 12.0048 20.099V18.4422H15.6048V20.099C14.916 20.2774 14.4048 20.8982 14.4048 21.6422C14.4048 22.5246 15.1216 23.2422 16.004 23.2422C16.8856 23.2422 17.6032 22.5246 17.6032 21.6422C17.6032 20.899 17.092 20.2782 16.4048 20.099V18.4422H19.988V20.099C19.3 20.2774 18.788 20.899 18.788 21.6422C18.788 22.5246 19.5056 23.2422 20.388 23.2422C21.2704 23.2422 21.988 22.5246 21.988 21.6422C21.988 20.899 21.476 20.2774 20.788 20.099ZM16.0048 25.6422C11.9464 25.6422 8.8 24.355 8.8 23.2478V8.4854C10.4248 9.5582 14.1544 9.7038 16.0048 9.7038C17.8528 9.7038 21.5768 9.559 23.2048 8.4886V23.2478C23.2048 24.355 20.0592 25.6422 16.0048 25.6422ZM16.0048 5.5998C20.6792 5.5998 23.2024 6.4518 23.2024 7.2534C23.2024 8.0534 20.6792 8.9038 16.0048 8.9038C11.3296 8.9038 8.8064 8.0534 8.8064 7.2534C8.8064 6.4518 11.3296 5.5998 16.0048 5.5998ZM24.0048 7.2422C23.9848 5.039 18.4048 4.7998 16.0048 4.7998C13.6048 4.7998 8.02 5.039 8 7.2422V23.2478C8 25.2206 12.1544 26.4422 16.0048 26.4422C19.852 26.4422 24.0048 25.2206 24.0048 23.2478V7.2422Z" fill="white"/>
</g>
<defs>
<clipPath id="clip0_867_36530">
<rect width="32" height="32" fill="white"/>
</clipPath>
</defs>
</svg>
