<svg width="32" height="32" viewBox="0 0 32 32" fill="none" xmlns="http://www.w3.org/2000/svg">
<g clip-path="url(#clip0_867_36545)">
<path d="M32 0H0V32H32V0Z" fill="#DD344C"/>
<path fill-rule="evenodd" clip-rule="evenodd" d="M12.8 17.663V8.1678L16.8 9.5966V16.063H17.6V9.3142C17.6 9.1454 17.4936 8.9942 17.3344 8.9374L12.5344 7.2238C12.4488 7.1926 12.3512 7.1926 12.2656 7.2238L7.46565 8.9374C7.30645 8.9942 7.20005 9.1454 7.20005 9.3142V16.8574C7.20005 18.063 8.43205 21.3718 12.4 21.3718V20.5718C8.76485 20.5718 8.00005 17.4678 8.00005 16.8574V9.5966L12 8.1678V17.663H12.8ZM25.284 24.5366H24.484C24.484 25.5958 23.6224 26.4574 22.5632 26.4574C21.504 26.4574 20.6424 25.5958 20.6424 24.5366H19.8424C19.8424 25.5958 18.9808 26.4574 17.9208 26.4574C16.8616 26.4574 16 25.5958 16 24.5366H15.2C15.2 25.5958 14.3384 26.4574 13.2792 26.4574V27.2574C14.26 27.2574 15.1208 26.7358 15.6 25.955C16.0792 26.7358 16.94 27.2574 17.9208 27.2574C18.9024 27.2574 19.7632 26.7358 20.2424 25.955C20.7208 26.7358 21.5824 27.2574 22.5632 27.2574C23.5448 27.2574 24.4056 26.7358 24.884 25.955C25.3632 26.7358 26.224 27.2574 27.2056 27.2574V26.4574C26.1464 26.4574 25.284 25.5958 25.284 24.5366ZM25.284 21.0446H24.484C24.484 22.1038 23.6224 22.9654 22.5632 22.9654C21.504 22.9654 20.6424 22.1038 20.6424 21.0446H19.8424C19.8424 22.1038 18.9808 22.9654 17.9208 22.9654C16.8616 22.9654 16 22.1038 16 21.0446H15.2C15.2 22.1038 14.3384 22.9654 13.2792 22.9654V23.7654C14.26 23.7654 15.1208 23.2438 15.6 22.463C16.0792 23.2438 16.94 23.7654 17.9208 23.7654C18.9024 23.7654 19.7632 23.2438 20.2424 22.463C20.7208 23.2438 21.5824 23.7654 22.5632 23.7654C23.5448 23.7654 24.4056 23.2438 24.884 22.463C25.3632 23.2438 26.224 23.7654 27.2056 23.7654V22.9654C26.1464 22.9654 25.284 22.1038 25.284 21.0446ZM25.284 17.4838H24.484C24.484 18.5438 23.6224 19.4054 22.5632 19.4054C21.504 19.4054 20.6424 18.5438 20.6424 17.4838H19.8424C19.8424 18.5438 18.9808 19.4054 17.9208 19.4054C16.8616 19.4054 16 18.5438 16 17.4838H15.2C15.2 18.5438 14.3384 19.4054 13.2792 19.4054V20.2054C14.26 20.2054 15.1208 19.6838 15.6 18.903C16.0792 19.6838 16.94 20.2054 17.9208 20.2054C18.9024 20.2054 19.7632 19.6838 20.2424 18.903C20.7208 19.6838 21.5824 20.2054 22.5632 20.2054C23.5448 20.2054 24.4056 19.6838 24.884 18.903C25.3632 19.6838 26.224 20.2054 27.2056 20.2054V19.4054C26.1464 19.4054 25.284 18.5438 25.284 17.4838ZM12.4 22.9718V23.7718C6.38805 23.7718 4.80005 18.7998 4.80005 16.1718V7.943C4.80005 7.7766 4.90245 7.62781 5.05765 7.56861L12.2576 4.8262C12.3488 4.791 12.4512 4.791 12.5424 4.8262L19.7424 7.56861C19.8976 7.62781 20 7.7766 20 7.943V16.063H19.2V8.2182L12.4 5.6286L5.60005 8.2182V16.1718C5.60005 16.4494 5.67765 22.9718 12.4 22.9718Z" fill="white"/>
</g>
<defs>
<clipPath id="clip0_867_36545">
<rect width="32" height="32" fill="white"/>
</clipPath>
</defs>
</svg>
