<svg width="32" height="32" viewBox="0 0 32 32" fill="none" xmlns="http://www.w3.org/2000/svg">
<g clip-path="url(#clip0_867_36533)">
<path d="M32 0H0V32H32V0Z" fill="#DD344C"/>
<path fill-rule="evenodd" clip-rule="evenodd" d="M10.7728 10.6301C11.4312 10.8357 12.2136 11.1589 13.0648 11.5101C14.532 12.1149 16.1952 12.8013 17.1656 12.8013C18.1816 12.8013 19.8736 12.1069 21.3664 11.4941C22.1984 11.1525 22.964 10.8381 23.6112 10.6349L22.1312 9.86772C21.3752 10.1373 18.3168 11.2013 17.1656 11.2013C16.068 11.2013 13.0216 10.1557 12.204 9.86772L10.7728 10.6301ZM12.7232 9.20132C13.98 9.63492 16.3664 10.4013 17.1656 10.4013C18.0128 10.4013 20.3632 9.63972 21.6032 9.20612L19.6728 5.72692C19.5992 5.61012 19.4208 5.56932 19.288 5.64932L17.7264 6.58532C17.3816 6.79332 16.9504 6.79332 16.6048 6.58532L15.0448 5.64932C14.9016 5.56532 14.7168 5.60452 14.6184 5.65892L12.7232 9.20132ZM21.0776 12.4765C19.6328 13.0637 18.1976 13.6013 17.1656 13.6013C16.1696 13.6013 14.756 13.0661 13.3288 12.4829C13.832 14.5125 15.7424 17.6013 17.1784 17.6013C18.6712 17.6013 20.5856 14.5269 21.0776 12.4765ZM9.21198 10.8981C9.16718 10.7197 9.25038 10.5341 9.41198 10.4477L11.8416 9.15412L13.956 5.20052C13.9784 5.15892 14.0088 5.12052 14.0448 5.08932C14.3624 4.80852 14.9632 4.66932 15.456 4.96372L17.016 5.89972C17.108 5.95492 17.2224 5.95492 17.316 5.89972L18.876 4.96372C19.3824 4.65972 20.048 4.82052 20.3616 5.32052L22.488 9.15092L24.9848 10.4461C25.148 10.5309 25.232 10.7165 25.1888 10.8965C25.1448 11.0749 24.9848 11.2013 24.8 11.2013C24.2336 11.2013 23.0992 11.6493 21.9552 12.1173C21.6232 14.3709 19.352 18.4013 17.1784 18.4013C15.0248 18.4013 12.7744 14.3741 12.4456 12.1197C11.2992 11.6485 10.168 11.2013 9.59998 11.2013C9.41678 11.2013 9.25598 11.0765 9.21198 10.8981ZM23.2896 19.2773L23.4832 19.0845C23.5576 19.0093 23.6 18.9077 23.6 18.8013C23.6 18.6957 23.5576 18.5933 23.4832 18.5181L21.8832 16.9181L21.3176 17.4837L22.6344 18.8013L19.7136 21.7181C19.6384 21.7933 19.596 21.8949 19.596 22.0013C19.596 22.1077 19.6384 22.2093 19.7136 22.2845L21.0352 23.6021L18.5216 26.1317L19.0888 26.6957L21.884 23.8829C22.0392 23.7269 22.0392 23.4741 21.8832 23.3181L20.5624 22.0013L22.5576 20.0077C24.4624 20.0781 26.3768 21.4085 26.3768 23.6013V26.8013H27.1768V23.6013C27.1768 21.4149 25.528 19.6517 23.2896 19.2773ZM14.9584 25.1309L12.716 22.8781C12.4952 23.1557 12.244 23.4053 11.9576 23.6157L14.216 25.8725C14.4112 26.0669 14.736 26.0589 14.9408 25.8549C15.1448 25.6509 15.1528 25.3261 14.9584 25.1309ZM9.59998 23.6013C11.3648 23.6013 12.8 22.1653 12.8 20.4013C12.8 18.6365 11.3648 17.2013 9.59998 17.2013C7.83518 17.2013 6.39998 18.6365 6.39998 20.4013C6.39998 22.1653 7.83518 23.6013 9.59998 23.6013ZM15.5256 24.5669C16.0296 25.0733 16.0216 25.9045 15.5064 26.4205C15.2448 26.6813 14.9016 26.8133 14.5616 26.8133C14.2296 26.8133 13.9 26.6885 13.6504 26.4381L11.248 24.0365C10.744 24.2653 10.1896 24.4013 9.59998 24.4013C7.39438 24.4013 5.59998 22.6069 5.59998 20.4013C5.59998 18.1957 7.39438 16.4013 9.59998 16.4013C11.8056 16.4013 13.6 18.1957 13.6 20.4013C13.6 21.0469 13.4312 21.6485 13.1584 22.1893L15.5256 24.5669ZM19.3336 18.8925L17.1664 21.0245L15.0816 18.8973L14.5096 19.4581L16.8752 21.8701C16.9504 21.9461 17.0512 21.9893 17.1568 21.9901H17.1608C17.2656 21.9901 17.3664 21.9493 17.4416 21.8757L19.8944 19.4629L19.3336 18.8925ZM23.2 26.8013H24V23.6013H23.2V26.8013Z" fill="white"/>
</g>
<defs>
<clipPath id="clip0_867_36533">
<rect width="32" height="32" fill="white"/>
</clipPath>
</defs>
</svg>
