<svg width="32" height="32" viewBox="0 0 32 32" fill="none" xmlns="http://www.w3.org/2000/svg">
<g clip-path="url(#clip0_867_36529)">
<path d="M32 0H0V32H32V0Z" fill="#DD344C"/>
<path fill-rule="evenodd" clip-rule="evenodd" d="M7.20005 13.5996H12V12.7996H7.20005V13.5996ZM24.8 10.3996V7.43961C24.8 6.86601 24.428 6.39961 23.9704 6.39961H6.42965C5.98005 6.39961 5.60005 6.87641 5.60005 7.43961V10.3996H14.4V7.59961C14.4 7.37881 14.5792 7.19961 14.8 7.19961H23.6C23.8208 7.19961 24 7.37881 24 7.59961V10.3996H24.8ZM17.6 11.1996C17.6 12.0828 18.3176 12.7996 19.2 12.7996C20.0824 12.7996 20.8 12.0828 20.8 11.1996C20.8 10.3172 20.0824 9.59961 19.2 9.59961C18.3176 9.59961 17.6 10.3172 17.6 11.1996ZM24.8 11.1996H24V15.1996H23.2V7.99961H15.2V14.9564C15.7528 14.054 16.6192 13.3652 17.6776 13.0396C17.1464 12.5996 16.8 11.9428 16.8 11.1996C16.8 9.87641 17.8768 8.79961 19.2 8.79961C20.5232 8.79961 21.6 9.87641 21.6 11.1996C21.6 11.9724 21.2264 12.6532 20.6584 13.0924C21.6336 13.4292 22.4864 14.0868 23.0248 14.9756L22.3408 15.39C21.868 14.6092 21.1056 14.0268 20.2344 13.774C19.5168 14.1092 18.672 14.106 17.9656 13.774C16.564 14.1788 15.5608 15.3732 15.3728 16.7996H18.4V17.5996H14.8C14.5792 17.5996 14.4 17.4212 14.4 17.1996V11.1996H5.60005V18.9604C5.60005 19.5236 5.98005 19.9996 6.42965 19.9996H16.8V20.7996H6.42965C5.53125 20.7996 4.80005 19.9748 4.80005 18.9604V7.43961C4.80005 6.42521 5.53125 5.59961 6.42965 5.59961H23.9704C24.8688 5.59961 25.6 6.42521 25.6 7.43961V16.7996H24.8008L24.8 11.1996ZM26.4 22.3996C26.4 24.6052 24.6056 26.3996 22.4 26.3996C20.1944 26.3996 18.4 24.6052 18.4 22.3996C18.4 20.1948 20.1944 18.3996 22.4 18.3996C24.6056 18.3996 26.4 20.1948 26.4 22.3996ZM27.2 22.3996C27.2 19.7532 25.0472 17.5996 22.4 17.5996C19.7528 17.5996 17.6 19.7532 17.6 22.3996C17.6 25.0468 19.7528 27.1996 22.4 27.1996C25.0472 27.1996 27.2 25.0468 27.2 22.3996ZM22.2896 23.8892L25.2608 20.9188L24.6952 20.3532L22.0072 23.0412L20.796 21.83L20.2304 22.3956L21.724 23.8892C21.7992 23.9644 21.9008 24.0068 22.0072 24.0068C22.1136 24.0068 22.2152 23.9644 22.2896 23.8892ZM11.2 15.9996H12.8V15.1996H11.2V15.9996ZM7.20005 15.9996H10.4V15.1996H7.20005V15.9996Z" fill="white"/>
</g>
<defs>
<clipPath id="clip0_867_36529">
<rect width="32" height="32" fill="white"/>
</clipPath>
</defs>
</svg>
