<svg width="32" height="32" viewBox="0 0 32 32" fill="none" xmlns="http://www.w3.org/2000/svg">
<g clip-path="url(#clip0_867_36552)">
<path d="M32 0H0V32H32V0Z" fill="#DD344C"/>
<path fill-rule="evenodd" clip-rule="evenodd" d="M20 19.1998H23.2V19.9998H20V21.5998H23.2V22.3998H20V23.9998H19.2V22.3998V21.5998V19.9998V19.1998V17.5998H20V19.1998ZM26.4 21.5686L25.8272 21.5358C25.6384 21.531 25.4568 21.6566 25.4152 21.8478C25.2968 22.3694 25.0912 22.8654 24.804 23.3222C24.7 23.4878 24.7304 23.7038 24.876 23.8342L25.304 24.2158L24.216 25.303L23.836 24.8774C23.7056 24.731 23.4896 24.7006 23.3232 24.8054C22.8696 25.0926 22.3728 25.2982 21.848 25.4166C21.6568 25.4598 21.5256 25.6342 21.5368 25.8302L21.5688 26.3998H20.0312L20.0632 25.8294C20.0744 25.6342 19.9432 25.4598 19.752 25.4166C19.2288 25.2982 18.732 25.0918 18.2776 24.8038C18.112 24.7006 17.8944 24.7302 17.7648 24.8766L17.384 25.303L16.296 24.2158L16.7232 23.835C16.8696 23.7046 16.9 23.4886 16.7952 23.323C16.5088 22.8686 16.3032 22.3718 16.184 21.847C16.1416 21.6558 15.9704 21.531 15.772 21.5358L15.2 21.5686V20.031L15.7744 20.0638C15.9704 20.0774 16.144 19.9438 16.1864 19.7526C16.3056 19.2294 16.512 18.7334 16.7984 18.2798C16.9032 18.1142 16.8728 17.8974 16.7264 17.767L16.296 17.3838L17.384 16.2966L17.7672 16.7254C17.8968 16.8718 18.1136 16.9022 18.2792 16.7982C18.7344 16.511 19.2296 16.3062 19.752 16.1878C19.9432 16.1454 20.0744 15.9702 20.0632 15.775L20.0312 15.1998H21.5688L21.5368 15.7758C21.5256 15.971 21.6568 16.1454 21.848 16.1886C22.3704 16.307 22.8656 16.5126 23.3192 16.799C23.4848 16.903 23.7016 16.8726 23.8312 16.727L24.216 16.2958L25.304 17.3838L24.8744 17.7662C24.728 17.8966 24.6976 18.1134 24.8024 18.279C25.0888 18.7326 25.2952 19.2278 25.4144 19.7526C25.4568 19.9438 25.6384 20.0774 25.8264 20.0638L26.4 20.031V21.5686ZM27.0753 19.3166C26.9945 19.2406 26.892 19.2038 26.7776 19.2078L26.1089 19.2462C25.9969 18.863 25.844 18.4942 25.652 18.1446L26.152 17.699C26.2344 17.6254 26.2832 17.5214 26.2856 17.4118C26.2888 17.3014 26.2472 17.195 26.1688 17.1174L24.4824 15.431C24.4048 15.3534 24.3048 15.311 24.1872 15.3142C24.0784 15.3166 23.9744 15.3654 23.9008 15.4478L23.4528 15.9494C23.104 15.7582 22.736 15.6054 22.3536 15.4942L22.3912 14.8222C22.3976 14.7126 22.3584 14.6046 22.2832 14.5254C22.2072 14.4454 22.1024 14.3998 21.992 14.3998H19.608C19.4976 14.3998 19.3928 14.4454 19.3168 14.5254C19.2416 14.6046 19.2024 14.7126 19.2088 14.8222L19.2464 15.4926C18.864 15.6046 18.496 15.7566 18.1464 15.9486L17.6992 15.4478C17.6256 15.3654 17.5216 15.3174 17.4128 15.3142C17.3128 15.3142 17.196 15.3534 17.1176 15.431L15.4312 17.1174C15.3528 17.195 15.3112 17.3014 15.3144 17.4118C15.3168 17.5214 15.3656 17.6254 15.448 17.699L15.9496 18.1462C15.7568 18.4958 15.604 18.8638 15.492 19.2462L14.8224 19.2078C14.7184 19.2038 14.6056 19.2406 14.5248 19.3166C14.4456 19.3918 14.4 19.4974 14.4 19.607V21.9926C14.4 22.1022 14.4456 22.2078 14.5248 22.283C14.6056 22.359 14.7296 22.3982 14.8224 22.3918L15.4896 22.3534C15.6016 22.7374 15.7536 23.1062 15.9464 23.4566L15.448 23.9006C15.3656 23.9742 15.3168 24.0782 15.3144 24.1878C15.3112 24.2982 15.3528 24.4046 15.4312 24.4822L17.1176 26.1686C17.1952 26.2462 17.3096 26.2942 17.4128 26.2854C17.5224 26.2822 17.6256 26.2342 17.6992 26.1518L18.1432 25.6534C18.4936 25.8462 18.8624 25.9998 19.2464 26.1118L19.2088 26.7774C19.2024 26.887 19.2416 26.995 19.3168 27.0742C19.3928 27.1542 19.4976 27.1998 19.608 27.1998H21.992C22.1024 27.1998 22.2072 27.1542 22.2832 27.0742C22.3584 26.995 22.3976 26.887 22.3912 26.7774L22.3536 26.1126C22.7384 25.9998 23.1072 25.847 23.4576 25.655L23.9008 26.1518C23.9744 26.2342 24.0784 26.2822 24.1872 26.2854C24.3072 26.2966 24.4048 26.247 24.4824 26.1686L26.1688 24.4822C26.2472 24.4046 26.2888 24.2982 26.2856 24.1878C26.2832 24.0782 26.2344 23.9742 26.152 23.9006L25.6529 23.4558C25.8457 23.1046 25.9984 22.7358 26.1096 22.3534L26.7776 22.3918C26.892 22.3982 26.9945 22.359 27.0753 22.283C27.1545 22.2078 27.2 22.1022 27.2 21.9926V19.607C27.2 19.4974 27.1545 19.3918 27.0753 19.3166ZM12.416 14.2134L9.38565 17.243C9.31125 17.3174 9.20965 17.3598 9.10325 17.3598C8.99685 17.3598 8.89525 17.3174 8.82005 17.243L7.30645 15.7286L7.87205 15.163L9.10325 16.3942L11.8496 13.6478L12.416 14.2134ZM12.416 8.435L9.38565 11.4646C9.31125 11.539 9.20965 11.5814 9.10325 11.5814C8.99685 11.5814 8.89525 11.539 8.82005 11.4646L7.30645 9.9494L7.87205 9.3838L9.10325 10.6158L11.8496 7.8694L12.416 8.435ZM11.6576 20.6926L10.2368 22.1142L11.6576 23.535L11.092 24.1006L9.67125 22.6798L8.24965 24.1006L7.68405 23.535L9.10565 22.1142L7.68405 20.6926L8.24965 20.127L9.67125 21.5486L11.092 20.127L11.6576 20.6926ZM19.9416 7.9998H17.6V5.9062L19.9416 7.9998ZM5.60005 5.5998H16.8V8.3998C16.8 8.6206 16.9792 8.7998 17.2 8.7998H20.8V13.5998H21.6V8.5878C21.6 8.4742 21.5512 8.3662 21.4664 8.2902L17.6768 4.9014C17.6536 4.8814 17.6264 4.8694 17.6 4.855V4.7998H17.4104H16.8H5.20005C4.97925 4.7998 4.80005 4.979 4.80005 5.1998V26.7998C4.80005 27.0206 4.97925 27.1998 5.20005 27.1998H16V26.3998H5.60005V5.5998Z" fill="white"/>
</g>
<defs>
<clipPath id="clip0_867_36552">
<rect width="32" height="32" fill="white"/>
</clipPath>
</defs>
</svg>
