<svg width="32" height="32" viewBox="0 0 32 32" fill="none" xmlns="http://www.w3.org/2000/svg">
<g clip-path="url(#clip0_867_36546)">
<path d="M32 0H0V32H32V0Z" fill="#DD344C"/>
<path fill-rule="evenodd" clip-rule="evenodd" d="M17.6272 16.343C17.6272 16.4118 17.6 17.8694 16.4216 18.1494V13.751L17.6272 14.2734V16.343ZM14.416 16.3366V14.2734L15.6216 13.751V18.151C14.4736 17.883 14.4168 16.5094 14.416 16.3366ZM18.1864 13.643L16.1808 12.775C16.0792 12.731 15.964 12.731 15.8624 12.775L13.8568 13.643C13.7104 13.707 13.616 13.851 13.616 14.0102V16.3366C13.616 17.2606 14.1192 19.0078 16.0216 19.0078C17.924 19.0078 18.4272 17.2646 18.4272 16.343V14.0102C18.4272 13.851 18.3328 13.707 18.1864 13.643ZM23.512 21.4766C22.8064 21.4766 22.232 20.9022 22.232 20.1958C22.232 19.4894 22.8064 18.915 23.512 18.915C24.2184 18.915 24.7928 19.4894 24.7928 20.1958C24.7928 20.9022 24.2184 21.4766 23.512 21.4766ZM16.06 19.7958C13.8616 19.7958 12.0736 18.0078 12.0736 15.8094C12.0736 13.6102 13.8616 11.8222 16.06 11.8222C18.2584 11.8222 20.0472 13.6102 20.0472 15.8094C20.0472 18.0078 18.2584 19.7958 16.06 19.7958ZM17.3024 24.6422C17.3024 25.3478 16.728 25.923 16.0216 25.923C15.3152 25.923 14.7416 25.3478 14.7416 24.6422C14.7416 23.9358 15.3152 23.3614 16.0216 23.3614C16.728 23.3614 17.3024 23.9358 17.3024 24.6422ZM14.7416 6.8806C14.7416 6.175 15.3152 5.5998 16.0216 5.5998C16.728 5.5998 17.3024 6.175 17.3024 6.8806C17.3024 7.587 16.728 8.1614 16.0216 8.1614C15.3152 8.1614 14.7416 7.587 14.7416 6.8806ZM8.48002 20.9918C7.77442 20.9918 7.20002 20.4174 7.20002 19.711C7.20002 19.0054 7.77442 18.4302 8.48002 18.4302C9.18642 18.4302 9.76082 19.0054 9.76082 19.711C9.76082 20.4174 9.18642 20.9918 8.48002 20.9918ZM8.80642 12.4886C8.10002 12.4886 7.52562 11.9142 7.52562 11.2078C7.52562 10.5014 8.10002 9.927 8.80642 9.927C9.51202 9.927 10.0872 10.5014 10.0872 11.2078C10.0872 11.9142 9.51202 12.4886 8.80642 12.4886ZM23.5632 9.723C24.2696 9.723 24.844 10.2966 24.844 11.003C24.844 11.7094 24.2696 12.2838 23.5632 12.2838C22.8568 12.2838 22.2824 11.7094 22.2824 11.003C22.2824 10.2966 22.8568 9.723 23.5632 9.723ZM23.512 18.115C22.9376 18.115 22.416 18.3502 22.0392 18.7286L20.464 17.6846C20.7104 17.1086 20.8472 16.475 20.8472 15.8094C20.8472 14.9382 20.6104 14.1238 20.2024 13.419L22.0048 12.367C22.3864 12.803 22.9408 13.0838 23.5632 13.0838C24.7104 13.0838 25.644 12.1502 25.644 11.003C25.644 9.8558 24.7104 8.923 23.5632 8.923C22.416 8.923 21.4824 9.8558 21.4824 11.003C21.4824 11.2398 21.5312 11.463 21.604 11.6758L19.7464 12.759C18.9408 11.7862 17.756 11.1406 16.4216 11.0406V8.9206C17.3776 8.7334 18.1024 7.891 18.1024 6.8806C18.1024 5.7334 17.1688 4.7998 16.0216 4.7998C14.8752 4.7998 13.9416 5.7334 13.9416 6.8806C13.9416 7.891 14.6656 8.7334 15.6216 8.9206V11.0438C14.2256 11.1718 13.0048 11.9022 12.2136 12.9718L10.728 12.003C10.8296 11.7574 10.8872 11.4894 10.8872 11.2078C10.8872 10.0606 9.95362 9.127 8.80642 9.127C7.65922 9.127 6.72562 10.0606 6.72562 11.2078C6.72562 12.355 7.65922 13.2886 8.80642 13.2886C9.38402 13.2886 9.90722 13.051 10.284 12.6694L11.7928 13.6526C11.4632 14.3014 11.2736 15.0326 11.2736 15.8094C11.2736 16.4006 11.3856 16.9646 11.5824 17.4878L10.0488 18.3598C9.66722 17.9174 9.10962 17.6302 8.48002 17.6302C7.33362 17.6302 6.40002 18.5638 6.40002 19.711C6.40002 20.859 7.33362 21.7918 8.48002 21.7918C9.62722 21.7918 10.5608 20.859 10.5608 19.711C10.5608 19.4806 10.5136 19.263 10.4448 19.0558L11.9272 18.2118C12.688 19.5158 14.044 20.4294 15.6216 20.5734V22.6022C14.6656 22.7894 13.9416 23.6318 13.9416 24.6422C13.9416 25.7894 14.8752 26.723 16.0216 26.723C17.1688 26.723 18.1024 25.7894 18.1024 24.6422C18.1024 23.6318 17.3776 22.7894 16.4216 22.6022V20.5774C17.9584 20.4614 19.2928 19.6206 20.0832 18.3934L21.5936 19.3934C21.4896 19.6406 21.432 19.911 21.432 20.1958C21.432 21.343 22.3656 22.2766 23.512 22.2766C24.6592 22.2766 25.5928 21.343 25.5928 20.1958C25.5928 19.0486 24.6592 18.115 23.512 18.115Z" fill="white"/>
</g>
<defs>
<clipPath id="clip0_867_36546">
<rect width="32" height="32" fill="white"/>
</clipPath>
</defs>
</svg>
