<svg width="32" height="32" viewBox="0 0 32 32" fill="none" xmlns="http://www.w3.org/2000/svg">
<g clip-path="url(#clip0_867_36548)">
<path d="M32 0H0V32H32V0Z" fill="#DD344C"/>
<path fill-rule="evenodd" clip-rule="evenodd" d="M16.864 17.6956C16.864 17.4396 16.656 17.2316 16.4 17.2316C16.144 17.2316 15.936 17.4396 15.936 17.6956C15.936 17.9516 16.144 18.1596 16.4 18.1596C16.656 18.1596 16.864 17.9516 16.864 17.6956ZM17.664 17.6956C17.664 18.2516 17.3 18.7204 16.8 18.8884V19.9996H16V18.8884C15.5 18.7204 15.136 18.2516 15.136 17.6956C15.136 16.9988 15.7032 16.4316 16.4 16.4316C17.0968 16.4316 17.664 16.9988 17.664 17.6956ZM19.9272 20.7868V19.998H18.4V19.198H19.9272V17.5884H18.4V16.7884H19.9272V16.0092H12.8728V20.7868H19.9272ZM13.5768 15.2092H19.1912V13.5996C19.1912 12.582 18.1296 11.1628 16.4016 11.1628C14.6512 11.1628 13.5768 12.582 13.5768 13.5996V15.2092ZM19.9912 13.5996V15.2092H20.3272C20.548 15.2092 20.7272 15.3876 20.7272 15.6092V21.1868C20.7272 21.4084 20.548 21.5868 20.3272 21.5868H12.4728C12.2512 21.5868 12.0728 21.4084 12.0728 21.1868V15.6092C12.0728 15.3876 12.2512 15.2092 12.4728 15.2092H12.7768V13.5996C12.7768 12.0684 14.2656 10.3628 16.4016 10.3628C18.5168 10.3628 19.9912 12.0684 19.9912 13.5996ZM8.36878 22.2124L9.01678 21.7436C7.96638 20.2916 7.38398 18.5892 7.31038 16.7996H8.79998V15.9996H7.31118C7.39038 14.2204 7.97198 12.5284 9.01678 11.0836L8.36878 10.6148C7.22398 12.1964 6.59118 14.0508 6.51118 15.9996H5.59998V16.7996H6.51038C6.58478 18.7588 7.21838 20.6236 8.36878 22.2124ZM21.7288 23.7964C20.2816 24.8444 18.584 25.426 16.8 25.502V23.9996H16V25.5028C14.2152 25.426 12.5176 24.8444 11.0696 23.7964L10.6008 24.4452C12.1856 25.5924 14.0464 26.2252 16 26.3028V27.1996H16.8V26.302C18.7536 26.2252 20.6136 25.5916 22.1976 24.4444L21.7288 23.7964ZM11.0696 9.03081C12.5176 7.98281 14.2152 7.40201 16 7.32521V8.79961H16.8V7.32521C18.584 7.40201 20.2816 7.98361 21.7288 9.03081L22.1976 8.38281C20.6136 7.23561 18.7536 6.60281 16.8 6.52521V5.59961H16V6.52521C14.0464 6.60201 12.1856 7.23561 10.6008 8.38281L11.0696 9.03081ZM26.2872 15.9996C26.208 14.05 25.5744 12.1956 24.4304 10.6148L23.7816 11.0836C24.8264 12.5276 25.408 14.2196 25.4872 15.9996H24V16.7996H25.488C25.4144 18.5892 24.8328 20.2924 23.7816 21.7436L24.4304 22.2124C25.58 20.6244 26.2144 18.7596 26.288 16.7996H27.2V15.9996H26.2872ZM22.7304 10.6484L25.7536 7.62441L25.188 7.05881L22.1648 10.0828L22.7304 10.6484ZM10.0688 22.1788L7.04478 25.2028L7.61038 25.7684L10.6344 22.7444L10.0688 22.1788ZM12.0384 11.4724L6.31358 5.74841L5.74798 6.31401L11.4728 12.038L12.0384 11.4724ZM21.884 21.3188L27.0496 26.4844L26.484 27.05L21.3184 21.8844L21.884 21.3188Z" fill="white"/>
</g>
<defs>
<clipPath id="clip0_867_36548">
<rect width="32" height="32" fill="white"/>
</clipPath>
</defs>
</svg>
