<svg width="32" height="32" viewBox="0 0 32 32" fill="none" xmlns="http://www.w3.org/2000/svg">
<g clip-path="url(#clip0_867_36544)">
<path d="M32 0H0V32H32V0Z" fill="#DD344C"/>
<path fill-rule="evenodd" clip-rule="evenodd" d="M21.3845 21.1972H24.5845V20.3972H21.3845V21.1972ZM17.3845 21.1972H20.5845V20.3972H17.3845V21.1972ZM13.3845 21.1972H16.5845V20.3972H13.3845V21.1972ZM18.1845 17.9972C18.1845 17.5564 18.5437 17.1972 18.9845 17.1972C19.4261 17.1972 19.7845 17.5564 19.7845 17.9972C19.7845 18.438 19.4261 18.7972 18.9845 18.7972C18.5437 18.7972 18.1845 18.438 18.1845 17.9972ZM20.5845 17.9972C20.5845 17.1148 19.8669 16.3972 18.9845 16.3972C18.1029 16.3972 17.3845 17.1148 17.3845 17.9972C17.3845 18.8796 18.1029 19.5972 18.9845 19.5972C19.8669 19.5972 20.5845 18.8796 20.5845 17.9972ZM15.7845 17.9972C15.7845 18.438 15.4261 18.7972 14.9845 18.7972C14.5437 18.7972 14.1845 18.438 14.1845 17.9972C14.1845 17.5564 14.5437 17.1972 14.9845 17.1972C15.4261 17.1972 15.7845 17.5564 15.7845 17.9972ZM13.3845 17.9972C13.3845 18.8796 14.1029 19.5972 14.9845 19.5972C15.8669 19.5972 16.5845 18.8796 16.5845 17.9972C16.5845 17.1148 15.8669 16.3972 14.9845 16.3972C14.1029 16.3972 13.3845 17.1148 13.3845 17.9972ZM26.9845 12.7972V23.1972C26.9845 23.418 26.8061 23.5972 26.5845 23.5972H13.3845V22.7972H26.1845V13.1972H16.5845V12.3972H26.5845C26.8061 12.3972 26.9845 12.5764 26.9845 12.7972ZM11.2365 15.2164C11.0717 15.27 10.9597 15.4236 10.9597 15.5972V25.0076L9.91653 25.858L8.98453 24.2876V22.7972C8.98453 22.6796 8.93253 22.5668 8.84293 22.4908L7.88453 21.686L8.87093 20.6772C8.94453 20.602 8.98453 20.502 8.98453 20.3972V19.5972C8.98453 19.4908 8.94293 19.3884 8.86693 19.314L7.88373 18.3356L8.84773 17.4988C8.93493 17.4228 8.98453 17.3132 8.98453 17.1972V15.5972C8.98453 15.4228 8.87173 15.2684 8.70613 15.2156C6.51253 14.5212 5.21973 12.246 5.69973 9.92281C6.04213 8.26521 7.31653 6.93641 8.94773 6.53721C10.3317 6.19561 11.7557 6.49321 12.8509 7.35081C13.9445 8.20841 14.5709 9.49561 14.5709 10.882C14.5709 12.738 13.1373 14.6012 11.2365 15.2164ZM15.3709 10.882C15.3709 9.24841 14.6325 7.73161 13.3453 6.72201C12.0565 5.71161 10.3861 5.36281 8.75653 5.75961C6.82773 6.23241 5.32053 7.80281 4.91653 9.76121C4.37413 12.3868 5.77013 14.9636 8.18453 15.8812V17.0148L7.03493 18.014C6.95093 18.0868 6.90133 18.1916 6.89733 18.302C6.89333 18.414 6.93653 18.5212 7.01573 18.5996L8.18453 19.7636V20.234L7.01173 21.4348C6.93333 21.514 6.89253 21.6228 6.89813 21.734C6.90373 21.8452 6.95413 21.9484 7.03973 22.0204L8.18453 22.9836V24.3972C8.18453 24.4692 8.20453 24.5396 8.24133 24.6012L9.46613 26.666C9.52533 26.766 9.62533 26.8348 9.74053 26.8556C9.76293 26.8596 9.78613 26.862 9.81013 26.862C9.90133 26.862 9.99093 26.8308 10.0629 26.7716L11.6133 25.5068C11.7061 25.4308 11.7597 25.3172 11.7597 25.1972V15.8796C13.5973 15.1644 15.3709 13.2804 15.3709 10.882ZM10.0845 11.9228C9.47253 11.9228 8.97413 11.4244 8.97413 10.8124C8.97413 10.1988 9.47253 9.70041 10.0845 9.70041C10.6981 9.70041 11.1965 10.1988 11.1965 10.8124C11.1965 11.4244 10.6981 11.9228 10.0845 11.9228ZM10.0845 8.90041C9.03093 8.90041 8.17413 9.75801 8.17413 10.8124C8.17413 11.8652 9.03093 12.7228 10.0845 12.7228C11.1389 12.7228 11.9965 11.8652 11.9965 10.8124C11.9965 9.75801 11.1389 8.90041 10.0845 8.90041Z" fill="white"/>
</g>
<defs>
<clipPath id="clip0_867_36544">
<rect width="32" height="32" fill="white"/>
</clipPath>
</defs>
</svg>
