<svg width="32" height="32" viewBox="0 0 32 32" fill="none" xmlns="http://www.w3.org/2000/svg">
<g clip-path="url(#clip0_867_36550)">
<path d="M32 0H0V32H32V0Z" fill="#DD344C"/>
<path fill-rule="evenodd" clip-rule="evenodd" d="M26.5048 25.5641L20.9064 19.9657C20.784 19.8433 20.7544 19.6553 20.8328 19.5009C21.5888 18.0217 21.3368 16.0833 20.2472 14.9937C19.432 14.1793 18.308 13.7897 17.1632 13.9297C16.0176 14.0681 15.0064 14.7305 14.3904 15.7457C13.6688 16.9377 13.7008 18.4657 14.4728 19.6401C15.556 21.2881 17.6544 21.8649 19.348 20.9849C19.504 20.9049 19.692 20.9337 19.8152 21.0577L20.7704 22.0129C20.8528 22.0953 20.8944 22.2081 20.8872 22.3241L20.816 23.3313L21.92 23.3289C22.0256 23.3289 22.128 23.3713 22.2032 23.4465L22.6816 23.9241C22.7552 23.9977 22.7968 24.0977 22.7984 24.2017L22.812 25.3265L23.7968 25.2417C23.916 25.2321 24.0304 25.2737 24.1144 25.3569L24.992 26.2345L26.4008 26.5945L26.5048 25.5641ZM27.32 25.4561L27.1496 27.1369C27.1376 27.2529 27.076 27.3577 26.9808 27.4241C26.9128 27.4721 26.8328 27.4969 26.752 27.4969C26.7192 27.4969 26.6856 27.4929 26.6528 27.4841L24.688 26.9825C24.6184 26.9649 24.5544 26.9289 24.504 26.8785L23.6808 26.0545L22.4512 26.1609C22.3384 26.1705 22.2304 26.1329 22.148 26.0585C22.0656 25.9833 22.0184 25.8785 22.0168 25.7665L22 24.3745L21.7552 24.1297L20.388 24.1329H20.3872C20.276 24.1329 20.1704 24.0865 20.0944 24.0057C20.0192 23.9249 19.98 23.8153 19.988 23.7049L20.076 22.4497L19.4496 21.8233C17.4376 22.7033 15.0568 21.9849 13.804 20.0801C12.8632 18.6489 12.8248 16.7849 13.7064 15.3305C14.4512 14.1041 15.676 13.3033 17.0672 13.1353C18.4568 12.9673 19.8224 13.4385 20.8128 14.4281C22.2528 15.8681 22.3312 18.0561 21.6704 19.5985L27.2048 25.1329C27.2896 25.2177 27.332 25.3361 27.32 25.4561ZM18.1896 16.9665C18.024 16.8009 17.804 16.7105 17.5704 16.7105C17.3368 16.7105 17.1168 16.8009 16.9512 16.9665C16.6096 17.3089 16.6096 17.8641 16.9512 18.2065C17.2824 18.5377 17.8584 18.5377 18.1896 18.2065C18.5312 17.8641 18.5312 17.3089 18.1896 16.9665ZM18.7552 16.4009C19.4088 17.0545 19.4088 18.1185 18.7552 18.7721C18.4288 19.0985 17.9992 19.2625 17.5704 19.2625C17.1416 19.2625 16.712 19.0985 16.3856 18.7721C15.732 18.1185 15.732 17.0545 16.3856 16.4009C17.0384 15.7481 18.1024 15.7473 18.7552 16.4009ZM7.7296 10.6497C7.7296 10.8601 7.7424 11.0657 7.7672 11.2721C7.7696 11.2889 7.7704 11.3057 7.7704 11.3225C7.7704 11.5233 7.6216 11.6913 7.4288 11.7201C6.428 11.9849 4.8 12.7745 4.8 15.1057C4.8 15.1913 4.8048 15.2761 4.8088 15.3577C4.9168 17.3265 6.7984 18.3929 8.5152 18.3969H12V19.1969H8.5144C6.064 19.1913 4.128 17.5593 4.0104 15.4009C4.0048 15.3049 4 15.2049 4 15.1057C4 12.3945 5.8544 11.3881 6.9416 11.0305C6.9336 10.9097 6.9296 10.7809 6.9296 10.6497C6.9296 8.42805 8.4304 6.12725 10.4208 5.29765C12.7488 4.31685 15.2144 4.80325 17.0168 6.59765C17.4896 7.06245 18.0952 7.75845 18.5208 8.60645C18.9736 8.19445 19.4864 7.99205 20.0736 7.99205C21.2376 7.99205 22.5424 8.96565 22.7744 11.0953C25.1808 11.6681 26.4 13.0393 26.4 15.1753C26.4 17.5177 25.3752 18.8313 23.2672 19.1913L23.1328 18.4025C24.2816 18.2065 25.6 17.6633 25.6 15.1753C25.6 12.7609 23.728 12.1009 22.3208 11.8145C22.1424 11.7785 22.0112 11.6265 22.0008 11.4457C21.9104 9.88325 21.1184 8.79205 20.0736 8.79205C19.5424 8.79205 19.1248 9.03365 18.7208 9.57685C18.6328 9.69525 18.492 9.75365 18.3408 9.73285C18.1952 9.71125 18.0736 9.61125 18.0232 9.47285C17.6736 8.49685 16.9768 7.68005 16.4544 7.16645C14.888 5.60645 12.7472 5.18565 10.7288 6.03525C9.0472 6.73685 7.7296 8.76325 7.7296 10.6497Z" fill="white"/>
</g>
<defs>
<clipPath id="clip0_867_36550">
<rect width="32" height="32" fill="white"/>
</clipPath>
</defs>
</svg>
