<svg width="32" height="32" viewBox="0 0 32 32" fill="none" xmlns="http://www.w3.org/2000/svg">
<g clip-path="url(#clip0_867_36537)">
<path d="M32 0H0V32H32V0Z" fill="#DD344C"/>
<path fill-rule="evenodd" clip-rule="evenodd" d="M6.51038 16.7996H5.59998V15.9996H6.51118C6.59198 14.0508 7.22478 12.1964 8.36878 10.6156L9.01758 11.0836C7.97198 12.5284 7.39118 14.2204 7.31118 15.9996H8.79998V16.7996H7.31038C7.38478 18.5892 7.96638 20.2916 9.01758 21.7436L8.36878 22.2124C7.21918 20.6236 6.58558 18.7588 6.51038 16.7996ZM22.1976 24.4444C20.6144 25.5916 18.7544 26.2252 16.8 26.302V27.1996H16V26.3028C14.0464 26.2252 12.1864 25.5924 10.6008 24.4452L11.0696 23.7964C12.5184 24.8444 14.216 25.426 16 25.5028V23.9996H16.8V25.502C18.5848 25.426 20.2824 24.8444 21.7288 23.7972L22.1976 24.4444ZM10.6008 8.38281C12.1864 7.23561 14.0464 6.60201 16 6.52521V5.59961H16.8V6.52521C18.7544 6.60281 20.6144 7.23561 22.1976 8.38281L21.7288 9.03081C20.2824 7.98361 18.5848 7.40201 16.8 7.32521V8.79961H16V7.32521C14.216 7.40201 12.5184 7.98281 11.0696 9.03161L10.6008 8.38281ZM27.2 15.9996V16.7996H26.2888C26.2144 18.7596 25.58 20.6244 24.4304 22.2124L23.7824 21.7436C24.8328 20.2924 25.4144 18.5892 25.4888 16.7996H24V15.9996H25.488C25.408 14.2196 24.8272 12.5276 23.7824 11.0836L24.4304 10.6156C25.5744 12.1956 26.208 14.05 26.288 15.9996H27.2ZM22.1648 10.0828L25.1888 7.05881L25.7544 7.62441L22.7304 10.6492L22.1648 10.0828ZM10.6344 22.7444L7.61038 25.7684L7.04478 25.2028L10.0688 22.1788L10.6344 22.7444ZM11.4728 12.038L5.74878 6.31481L6.31438 5.74921L12.0384 11.4724L11.4728 12.038ZM21.8848 21.3188L27.0504 26.4844L26.4848 27.05L21.3192 21.8844L21.8848 21.3188ZM12.7528 17.0908C12.7864 17.0316 12.8224 16.9724 12.8592 16.9148C13.6008 15.7476 13.3592 14.1404 13.1224 13.2148C13.776 13.6028 14.3648 14.4876 14.5792 14.8852C14.6552 15.0244 14.792 15.114 14.9624 15.094C15.1208 15.082 15.2568 14.978 15.3088 14.8284C15.9728 12.942 15.5984 11.5428 15.1232 10.6612C15.7256 10.986 16.1896 11.4708 16.4912 12.098C17.108 13.3804 16.9712 15.1332 16.1336 16.6724C14.9816 18.7924 15.2368 21.0172 15.5 22.1764C14.8256 21.8892 14.2264 21.5636 13.7112 21.2044C12.388 20.2828 11.9664 18.4756 12.7528 17.0908ZM18.6232 16.9652C18.5968 17.1284 18.6744 17.2908 18.8176 17.374C18.96 17.4564 19.1392 17.4444 19.2688 17.3396C19.304 17.3116 20.028 16.7132 20.3616 15.2572C20.7928 15.8444 21.2776 17.074 20.6792 19.3916C20.0984 21.6428 17.3272 22.2564 16.3856 22.4012C16.1552 21.5812 15.6608 19.2172 16.8368 17.0548C17.6864 15.4932 17.892 13.7212 17.4232 12.2868C18.2528 13.2052 18.9888 14.6876 18.6232 16.9652ZM12.0576 16.6956C11.0688 18.4364 11.5944 20.7052 13.2536 21.8612C14.0072 22.3868 14.9216 22.8436 15.9696 23.2188C16.0144 23.234 16.06 23.242 16.1048 23.242C16.1128 23.242 16.1208 23.238 16.128 23.2372V23.2412C16.3112 23.2268 20.612 22.8532 21.4544 19.5916C22.5376 15.3924 20.3752 14.1508 20.2824 14.0996C20.1648 14.0348 20.0232 14.034 19.904 14.0964C19.7864 14.1588 19.7064 14.2764 19.6928 14.4092C19.6536 14.7788 19.5864 15.0988 19.5048 15.3716C19.2888 11.9268 16.5656 10.5428 16.0448 10.3092C15.5032 9.89401 14.8456 9.60921 14.0816 9.47321C13.9096 9.44201 13.7272 9.53401 13.6504 9.69881C13.5736 9.86201 13.6176 10.058 13.756 10.1748C13.8224 10.23 15.2128 11.434 14.7816 13.7252C14.288 13.0612 13.4768 12.226 12.5216 12.226C12.3896 12.226 12.2656 12.2916 12.192 12.3996C12.1168 12.5092 12.1008 12.6476 12.1488 12.7708C12.1576 12.794 13.0448 15.1324 12.184 16.4852C12.1392 16.5548 12.0968 16.6244 12.0576 16.6956Z" fill="white"/>
</g>
<defs>
<clipPath id="clip0_867_36537">
<rect width="32" height="32" fill="white"/>
</clipPath>
</defs>
</svg>
