<svg width="32" height="32" viewBox="0 0 32 32" fill="none" xmlns="http://www.w3.org/2000/svg">
<g clip-path="url(#clip0_867_36535)">
<path d="M32 0H0V32H32V0Z" fill="#DD344C"/>
<path fill-rule="evenodd" clip-rule="evenodd" d="M14.8605 14.7919C13.8973 14.7919 13.2989 14.192 13.2989 13.2255C13.2989 12.2598 13.8973 11.6598 14.8605 11.6598C15.8245 11.6598 16.4228 12.2598 16.4228 13.2255C16.4228 14.192 15.8245 14.7919 14.8605 14.7919ZM20.8227 12.8244H17.1868C17.0172 11.6502 16.1116 10.8578 14.8605 10.8578C13.4701 10.8578 12.499 11.8315 12.499 13.2255C12.499 14.6203 13.4701 15.594 14.8605 15.594C16.1116 15.594 17.0172 14.8015 17.1868 13.6265H20.8227V12.8244ZM10.819 13.2303C10.819 15.5234 12.6142 17.3192 14.9069 17.3192C16.5452 17.3192 17.998 16.1458 18.6068 14.3291L19.3643 14.585C18.6452 16.7329 16.8956 18.1213 14.9069 18.1213C12.211 18.1213 10.0191 15.9268 10.0191 13.2303C10.0191 10.5281 12.211 8.33048 14.9069 8.33048C17.0404 8.33048 18.7076 9.5031 19.3643 11.4665L18.6068 11.7216C18.0548 10.0766 16.7068 9.13255 14.9069 9.13255C12.6526 9.13255 10.819 10.9709 10.819 13.2303ZM5.60002 17.6248H7.17036V16.0487H5.60002V17.6248ZM5.60002 10.4487H7.17036V8.85423H5.60002V10.4487ZM7.97034 18.0258V15.6477V10.8498V8.4532V5.60187H22.4762V16.0207H23.2762V5.59385C23.2762 4.86076 22.8666 4.7998 22.4826 4.7998H7.96314C7.57915 4.7998 7.17036 4.86076 7.17036 5.59385V8.05217H5.20003C4.97844 8.05217 4.80005 8.23183 4.80005 8.4532V10.8498C4.80005 11.0711 4.97844 11.2508 5.20003 11.2508H7.17036V15.2467H5.20003C4.97844 15.2467 4.80005 15.4263 4.80005 15.6477V18.0258C4.80005 18.248 4.97844 18.4268 5.20003 18.4268H7.17036V20.8571C7.17036 21.4739 7.34796 21.6519 7.96314 21.6519H16.0228V20.8499H7.97034V18.0258ZM26.4001 26.3977H25.8065L25.1369 25.7489C25.0617 25.6767 24.9625 25.6366 24.8585 25.6366H24.077V24.9091C24.077 24.8016 24.0338 24.6998 23.9586 24.6244L23.5706 24.2378C23.4954 24.164 23.3938 24.1215 23.2882 24.1215H22.5146V23.3643C22.5146 23.2649 22.4778 23.1694 22.4122 23.0965L21.8618 22.4805C21.745 22.3497 21.5563 22.3112 21.3987 22.3826C21.0995 22.519 20.7795 22.5879 20.4475 22.5879C19.1779 22.5879 18.1452 21.5525 18.1452 20.2796C18.1452 19.0067 19.1779 17.9713 20.4475 17.9713C21.717 17.9713 22.7498 19.0067 22.7498 20.2796C22.7498 20.6895 22.6938 21.0215 22.5826 21.2678C22.5146 21.4201 22.5466 21.5982 22.665 21.7161L26.4001 25.4617V26.3977ZM27.0825 25.0118L23.4114 21.3311C23.5042 21.0311 23.5498 20.679 23.5498 20.2796C23.5498 18.5648 22.1586 17.1692 20.4475 17.1692C18.7372 17.1692 17.3452 18.5648 17.3452 20.2796C17.3452 21.9944 18.7372 23.39 20.4475 23.39C20.7931 23.39 21.1299 23.3339 21.4515 23.224L21.7146 23.5175V24.5225C21.7146 24.7447 21.8938 24.9236 22.1146 24.9236H23.1234L23.277 25.0759V26.0376C23.277 26.259 23.4554 26.4386 23.677 26.4386H24.6969L25.3665 27.0867C25.4417 27.1589 25.5409 27.1998 25.6441 27.1998H26.8001C27.0209 27.1998 27.2 27.0201 27.2 26.7988V25.2957C27.2 25.189 27.1577 25.0872 27.0825 25.0118ZM20.4211 20.7183C20.2059 20.7183 20.0307 20.5419 20.0307 20.3261C20.0307 20.1104 20.2059 19.9347 20.4211 19.9347C20.6371 19.9347 20.8123 20.1104 20.8123 20.3261C20.8123 20.5419 20.6371 20.7183 20.4211 20.7183ZM20.4211 19.1327C19.7651 19.1327 19.2307 19.6684 19.2307 20.3261C19.2307 20.9846 19.7651 21.5204 20.4211 21.5204C21.0779 21.5204 21.6122 20.9846 21.6122 20.3261C21.6122 19.6684 21.0779 19.1327 20.4211 19.1327Z" fill="white"/>
</g>
<defs>
<clipPath id="clip0_867_36535">
<rect width="32" height="32" fill="white"/>
</clipPath>
</defs>
</svg>
