<svg width="32" height="32" viewBox="0 0 32 32" fill="none" xmlns="http://www.w3.org/2000/svg">
<g clip-path="url(#clip0_867_36542)">
<path d="M32 0H0V32H32V0Z" fill="#DD344C"/>
<path fill-rule="evenodd" clip-rule="evenodd" d="M14.2659 15.7043C14.3716 15.7997 14.4177 15.9444 14.3875 16.0843L13.9765 17.9737L15.7921 16.8609C15.9193 16.7822 16.0799 16.7822 16.2087 16.8609L18.0107 17.9713L17.6117 16.0779C17.5831 15.9404 17.6284 15.7981 17.7317 15.7027L19.343 14.2298L17.211 13.818C17.0886 13.7942 16.9845 13.7147 16.9296 13.6018L15.9964 11.6925L15.0417 13.6074C14.9861 13.7179 14.8827 13.7966 14.7619 13.8196L12.6363 14.2338L14.2659 15.7043ZM13.002 18.7154L13.5624 16.1399L11.5131 14.2902C11.401 14.1892 11.3565 14.0342 11.397 13.8888C11.4368 13.7441 11.556 13.6344 11.7031 13.605L14.4169 13.0772L15.6443 10.617C15.7118 10.4818 15.8724 10.3722 16.002 10.3968C16.153 10.3976 16.2913 10.4842 16.3573 10.6202L17.5568 13.0748L20.2699 13.5994C20.417 13.6272 20.5362 13.7361 20.5767 13.8816C20.6173 14.0255 20.5735 14.1805 20.4631 14.2822L18.436 16.1359L18.9797 18.7138C19.0123 18.8688 18.9495 19.0293 18.82 19.1208C18.688 19.213 18.5179 19.2169 18.382 19.1343L15.9996 17.6661L13.5981 19.1382C13.5338 19.178 13.4622 19.1971 13.3899 19.1971C13.3096 19.1971 13.2285 19.1724 13.1601 19.1239C13.0298 19.0317 12.9678 18.8704 13.002 18.7154ZM26.3828 8.0757L26.3804 6.3945H5.59491V8.0757H26.3828ZM27.2 26.0014C27.2 26.1071 27.1587 26.208 27.0839 26.2828C27.0092 26.3575 26.9083 26.3996 26.8025 26.3996H23.9496V25.6047H26.4051L26.3836 8.8706H5.59491V25.6047H20.7699V26.3996H5.19745C5.09172 26.3996 4.99077 26.3575 4.91605 26.2836C4.84212 26.2088 4.79999 26.1079 4.79999 26.0022V5.99706C4.79999 5.77767 4.97725 5.59961 5.19745 5.59961H26.7771C26.9973 5.59961 27.1746 5.77767 27.1746 5.99706L27.2 26.0014ZM8.84612 23.98H12.0258V23.1851H8.84612V23.98ZM13.6156 23.9982H19.1801V23.2033H13.6156V23.9982ZM8.84612 21.5984H12.0258V20.8036H8.84612V21.5984ZM13.6156 21.5984H22.3597V20.8036H13.6156V21.5984Z" fill="white"/>
</g>
<defs>
<clipPath id="clip0_867_36542">
<rect width="32" height="32" fill="white"/>
</clipPath>
</defs>
</svg>
