<svg width="32" height="32" viewBox="0 0 32 32" fill="none" xmlns="http://www.w3.org/2000/svg">
<g clip-path="url(#clip0_867_36541)">
<path d="M32 0H0V32H32V0Z" fill="#DD344C"/>
<path fill-rule="evenodd" clip-rule="evenodd" d="M13.6 21.6H14.4V20.8H13.6V21.6ZM9.60005 21.6H12.8V20.8H9.60005V21.6ZM9.60005 19.2H14.4V18.4H9.60005V19.2ZM26.4 11.2H8.00005V15.2H16V13.2C16 12.9792 16.1792 12.8 16.4 12.8H25.2C25.4208 12.8 25.6 12.9792 25.6 13.2V15.2H26.4V11.2ZM17.4872 21.6H24.1952C24.0288 20.4296 23.1344 19.5312 21.72 19.1296C21.4328 19.248 21.1312 19.3264 20.8216 19.3264C20.5088 19.3264 20.212 19.2496 19.9264 19.1328C18.5336 19.5336 17.6512 20.4296 17.4872 21.6ZM22.3768 16.992C22.3768 16.1432 21.6792 15.4528 20.8216 15.4528C19.9648 15.4528 19.2672 16.1432 19.2672 16.992C19.2672 17.5496 19.5744 18.0648 20.0688 18.3352C20.532 18.5872 21.1016 18.5904 21.5728 18.3344C22.0688 18.0648 22.3768 17.5504 22.3768 16.992ZM16.8 16V21.0048C17.104 19.9216 17.9056 19.0648 19.1032 18.5696C18.7072 18.144 18.4672 17.588 18.4672 16.992C18.4672 15.7024 19.5232 14.6528 20.8216 14.6528C22.12 14.6528 23.1768 15.7024 23.1768 16.992C23.1768 17.5872 22.9368 18.1416 22.5416 18.5664C23.6408 19.0208 24.4328 19.7832 24.8 20.7352V16V15.2V13.6H16.8V15.2V16ZM26.4 16H25.6V22C25.6 22.2208 25.4208 22.4 25.2 22.4H16.4C16.1792 22.4 16 22.2208 16 22V16H8.00005V24H26.4V16ZM27.2 10.8V24.4C27.2 24.6208 27.0208 24.8 26.8 24.8H7.60005C7.37925 24.8 7.20005 24.6208 7.20005 24.4V10.8C7.20005 10.5792 7.37925 10.4 7.60005 10.4H26.8C27.0208 10.4 27.2 10.5792 27.2 10.8ZM5.60005 20.8H6.40005V21.6H5.20005C4.97925 21.6 4.80005 21.4208 4.80005 21.2V8.4C4.80005 8.1792 4.97925 8 5.20005 8H24.4C24.6208 8 24.8 8.1792 24.8 8.4V9.6H24V8.8H5.60005V20.8Z" fill="white"/>
</g>
<defs>
<clipPath id="clip0_867_36541">
<rect width="32" height="32" fill="white"/>
</clipPath>
</defs>
</svg>
