<svg width="32" height="32" viewBox="0 0 32 32" fill="none" xmlns="http://www.w3.org/2000/svg">
<g clip-path="url(#clip0_867_36540)">
<path d="M32 0H0V32H32V0Z" fill="#DD344C"/>
<path fill-rule="evenodd" clip-rule="evenodd" d="M26.4056 23.2046H22.4056H21.6056H20.8056V20.8046H25.2056H26.4056V23.2046ZM21.6056 26.4046H16.8056V24.0046H20.0056H20.4056H21.6056V26.4046ZM13.4 25.0126C11.7272 25.0126 10.1904 24.1686 9.29036 22.7542C8.57356 21.6262 8.56076 20.1702 9.28236 18.9126C10.1216 17.6382 9.81996 15.867 9.55116 14.891C10.3224 15.2854 11.0216 16.295 11.2688 16.7398C11.3448 16.8766 11.4824 16.9582 11.6512 16.9446C11.8064 16.9326 11.9416 16.8302 11.9944 16.683C12.768 14.559 12.2424 12.9942 11.6744 12.0622C13.3304 12.6214 16.2024 14.1422 16.2024 17.9654C16.2024 18.0742 16.2472 18.1782 16.3256 18.2542C16.4048 18.3294 16.5072 18.3718 16.62 18.3646C17.092 18.3446 17.9408 17.9862 18.348 16.8558C18.3832 16.9622 18.4056 17.079 18.4056 17.2046V20.0046H14.0056C13.7848 20.0046 13.6056 20.1838 13.6056 20.4046V23.6046C13.6056 23.8254 13.7848 24.0046 14.0056 24.0046H16.0056V24.3118C15.3216 24.7606 14.4064 25.0126 13.4 25.0126ZM7.24716 18.1254C6.46636 17.6086 5.53596 16.6262 5.53596 14.8782C5.53596 12.4878 7.19916 11.7038 8.19036 11.4486C8.37676 11.4014 8.50236 11.2286 8.49036 11.0374L8.45116 10.3806C8.45116 8.51657 9.83916 5.55977 13.564 5.55977C15.0808 5.55977 16.2832 5.99577 17.1368 6.85497C17.7472 7.46777 18.2216 8.25097 18.5504 9.18217C18.5992 9.32217 18.7216 9.42297 18.868 9.44537C19.0176 9.46617 19.1616 9.40617 19.2496 9.28697C19.7456 8.61337 20.6016 8.33177 21.3768 8.58697C22.2552 8.87497 22.7576 9.73657 22.7552 10.9358C22.7248 11.1502 22.8704 11.3494 23.084 11.3862C25.3192 11.771 26.4056 12.8478 26.4056 14.6766C26.4056 15.7342 26.1328 16.543 25.5928 17.1438C25.5632 16.9534 25.4048 16.8046 25.2056 16.8046H19.1584C18.9936 16.055 18.4216 15.6054 18.3936 15.5838C18.2792 15.4958 18.1272 15.4758 17.992 15.5342C17.8592 15.591 17.768 15.7158 17.7536 15.8598C17.6544 16.8046 17.2824 17.2262 16.984 17.415C16.612 11.951 10.7216 10.9862 10.6592 10.9766C10.4808 10.9494 10.3072 11.0454 10.2344 11.211C10.1608 11.3758 10.2088 11.5702 10.3488 11.6838C10.4232 11.7446 12.0176 13.0758 11.476 15.607C10.94 14.8942 10.0168 13.9286 8.94796 13.9286C8.81516 13.9286 8.69036 13.995 8.61676 14.1046C8.54236 14.215 8.52716 14.3542 8.57676 14.4774C8.58716 14.503 9.53756 16.9318 8.65116 18.4046H8.19996C7.85276 18.4046 7.52236 18.3078 7.24716 18.1254ZM20.4056 20.0046H19.2056V17.6046H24.8056V20.0046H20.8056H20.4056ZM20.0056 23.2046H14.4056V20.8046H18.8056H20.0056V23.2046ZM26.8056 20.0046H25.6056V18.2118C26.6648 17.4414 27.2056 16.255 27.2056 14.6766C27.2056 13.1822 26.5608 11.2998 23.5496 10.6614C23.4656 9.24857 22.76 8.19977 21.6264 7.82697C20.7368 7.53417 19.776 7.73337 19.0688 8.32137C18.72 7.53257 18.2624 6.85177 17.704 6.29017C16.6944 5.27497 15.3016 4.75977 13.564 4.75977C9.48556 4.75977 7.65116 8.04697 7.65196 10.4046L7.67356 10.767C6.59196 11.1222 4.73596 12.1334 4.73596 14.8782C4.73596 17.0926 6.03196 18.2814 6.80556 18.7926C7.21276 19.0622 7.69516 19.2046 8.19996 19.2046H8.25996C7.74716 20.5294 7.86316 22.0006 8.61596 23.1838C9.66316 24.8294 11.4528 25.8126 13.4 25.8126C14.3624 25.8126 15.26 25.6046 16.0056 25.2318V26.8046C16.0056 27.0254 16.1848 27.2046 16.4056 27.2046H22.0056C22.2264 27.2046 22.4056 27.0254 22.4056 26.8046V24.0046H26.8056C27.0264 24.0046 27.2056 23.8254 27.2056 23.6046V20.4046C27.2056 20.1838 27.0264 20.0046 26.8056 20.0046Z" fill="white"/>
</g>
<defs>
<clipPath id="clip0_867_36540">
<rect width="32" height="32" fill="white"/>
</clipPath>
</defs>
</svg>
