<svg width="32" height="32" viewBox="0 0 32 32" fill="none" xmlns="http://www.w3.org/2000/svg">
<g clip-path="url(#clip0_867_36528)">
<path d="M32 0H0V32H32V0Z" fill="#DD344C"/>
<path fill-rule="evenodd" clip-rule="evenodd" d="M12.996 23.9622C12.996 23.7598 12.8312 23.595 12.628 23.595C12.4248 23.595 12.26 23.7598 12.26 23.9622C12.26 24.1646 12.4248 24.3302 12.628 24.3302C12.8312 24.3302 12.996 24.1646 12.996 23.9622ZM13.796 23.9622C13.796 24.6062 13.272 25.1302 12.628 25.1302C11.984 25.1302 11.46 24.6062 11.46 23.9622C11.46 23.3182 11.984 22.795 12.628 22.795C13.272 22.795 13.796 23.3182 13.796 23.9622ZM21.2128 24.2838L20.524 23.595H15.204C15.0264 23.595 14.8712 23.4782 14.82 23.3086C14.5344 22.347 13.6328 21.675 12.628 21.675C11.3664 21.675 10.3408 22.7014 10.3408 23.9622C10.3408 25.2238 11.3664 26.2494 12.628 26.2494C13.5072 26.2494 14.3184 25.7366 14.696 24.943C14.7616 24.803 14.9024 24.7142 15.0568 24.7142H16.0824C16.1888 24.7142 16.2904 24.7566 16.3656 24.831L16.8504 25.3158L17.336 24.831C17.4112 24.7566 17.5128 24.7142 17.6184 24.7142H18.3864C18.4928 24.7142 18.5944 24.7566 18.6696 24.831L19.1544 25.3158L19.6392 24.831C19.7136 24.7566 19.8152 24.7142 19.9216 24.7142H20.5688L21.2128 24.2838ZM22.124 24.063C22.2088 24.1478 22.2512 24.2662 22.24 24.3854C22.2272 24.5046 22.1632 24.6126 22.0632 24.679L20.912 25.447C20.8464 25.491 20.7688 25.5142 20.6896 25.5142H20.0872L19.4376 26.1646C19.2872 26.3142 19.0216 26.3142 18.872 26.1646L18.2208 25.5142H17.784L17.1336 26.1646C16.9776 26.3206 16.724 26.3206 16.568 26.1646L15.9168 25.5142H15.2976C14.7488 26.455 13.7272 27.0494 12.628 27.0494C10.9256 27.0494 9.54079 25.6646 9.54079 23.9622C9.54079 22.2598 10.9256 20.875 12.628 20.875C13.8816 20.875 15.0168 21.651 15.4864 22.795H20.6896C20.796 22.795 20.8976 22.8366 20.9728 22.9118L22.124 24.063ZM23.6336 10.387L21.16 8.135L18.6624 10.379L21.2112 12.579L23.6336 10.387ZM24.4976 10.6838L21.4856 13.4094C21.4096 13.4782 21.3128 13.5126 21.2168 13.5126C21.124 13.5126 21.0312 13.4798 20.9552 13.415L17.7952 10.6878C17.7088 10.6126 17.6576 10.5038 17.6568 10.3886C17.656 10.2742 17.704 10.1638 17.7896 10.087L20.8944 7.2974C21.0472 7.1598 21.2792 7.1622 21.4312 7.2998L24.4984 10.0918C24.5808 10.1678 24.6288 10.2758 24.6288 10.3886C24.6288 10.5006 24.5808 10.6086 24.4976 10.6838ZM13.264 11.9958L10.852 8.3174L8.36719 11.9958H13.264ZM14.0048 12.7958H7.61359C7.46639 12.7958 7.33039 12.7134 7.26079 12.583C7.19119 12.4526 7.19999 12.2942 7.28239 12.1718L10.5256 7.3718C10.6 7.2614 10.724 7.1958 10.8568 7.1958H10.86C10.9936 7.1958 11.1176 7.2638 11.1912 7.3758L14.3392 12.1758C14.4192 12.299 14.4264 12.4566 14.356 12.5854C14.2864 12.715 14.1512 12.7958 14.0048 12.7958ZM8.72479 17.1574C8.72479 18.307 9.65999 19.2422 10.8096 19.2422C11.9584 19.2422 12.8936 18.307 12.8936 17.1574C12.8936 16.0078 11.9584 15.0726 10.8096 15.0726C9.65999 15.0726 8.72479 16.0078 8.72479 17.1574ZM7.92479 17.1574C7.92479 15.5662 9.21839 14.2726 10.8096 14.2726C12.4 14.2726 13.6936 15.5662 13.6936 17.1574C13.6936 18.7478 12.4 20.0422 10.8096 20.0422C9.21839 20.0422 7.92479 18.7478 7.92479 17.1574ZM19.2288 19.1998H23.2064V15.1142H19.2288V19.1998ZM23.6064 14.3142C23.8272 14.3142 24.0064 14.4934 24.0064 14.7142V19.5998C24.0064 19.8214 23.8272 19.9998 23.6064 19.9998H18.8288C18.608 19.9998 18.4288 19.8214 18.4288 19.5998V14.7142C18.4288 14.4934 18.608 14.3142 18.8288 14.3142H23.6064ZM27.2 5.1998V25.2574C27.2 25.4782 27.0208 25.6574 26.8 25.6574H23.2V24.8574H26.4V5.5998H5.59999V24.8574H8.79999V25.6574H5.19999C4.97919 25.6574 4.79999 25.4782 4.79999 25.2574V5.1998C4.79999 4.979 4.97919 4.7998 5.19999 4.7998H26.8C27.0208 4.7998 27.2 4.979 27.2 5.1998Z" fill="white"/>
</g>
<defs>
<clipPath id="clip0_867_36528">
<rect width="32" height="32" fill="white"/>
</clipPath>
</defs>
</svg>
