<svg width="32" height="32" viewBox="0 0 32 32" fill="none" xmlns="http://www.w3.org/2000/svg">
<g clip-path="url(#clip0_867_36547)">
<path d="M32 0H0V32H32V0Z" fill="#DD344C"/>
<path fill-rule="evenodd" clip-rule="evenodd" d="M25.2 15.9996C24.5384 15.9996 24 15.4612 24 14.7996C24 14.138 24.5384 13.5996 25.2 13.5996C25.8616 13.5996 26.4 14.138 26.4 14.7996C26.4 15.4612 25.8616 15.9996 25.2 15.9996ZM27.2 14.7996C27.2 13.6972 26.3032 12.7996 25.2 12.7996C25.1728 12.7996 25.1472 12.8068 25.1192 12.8076C24.8856 12.1764 24.6008 11.5692 24.2512 11.01L23.5736 11.4332C23.8784 11.922 24.1272 12.4532 24.3368 13.0036C23.6672 13.3268 23.2 14.0068 23.2 14.7996C23.2 15.802 23.944 16.6268 24.908 16.77C24.8008 18.5236 24.2032 20.1828 23.1544 21.5956L23.7968 22.0716C24.9576 20.5084 25.6096 18.6684 25.7096 16.726C26.5648 16.4988 27.2 15.7252 27.2 14.7996ZM22 10.3996C21.3384 10.3996 20.8 9.86121 20.8 9.19961C20.8 8.53801 21.3384 7.99961 22 7.99961C22.6616 7.99961 23.2 8.53801 23.2 9.19961C23.2 9.86121 22.6616 10.3996 22 10.3996ZM24 9.19961C24 8.09721 23.1032 7.19961 22 7.19961C20.8968 7.19961 20 8.09721 20 9.19961C20 10.302 20.8968 11.1996 22 11.1996C23.1032 11.1996 24 10.302 24 9.19961ZM12.4 6.39961C13.0616 6.39961 13.6 6.93801 13.6 7.59961C13.6 8.26121 13.0616 8.79961 12.4 8.79961C11.7384 8.79961 11.2 8.26121 11.2 7.59961C11.2 6.93801 11.7384 6.39961 12.4 6.39961ZM12.4 9.59961C13.5032 9.59961 14.4 8.70201 14.4 7.59961C14.4 6.49721 13.5032 5.59961 12.4 5.59961C11.2968 5.59961 10.4 6.49721 10.4 7.59961C10.4 8.70201 11.2968 9.59961 12.4 9.59961ZM15.2184 7.14761L15.1624 6.34921C16.8792 6.23161 18.6208 6.56041 20.1784 7.32441L19.8248 8.04201C18.396 7.34121 16.796 7.03641 15.2184 7.14761ZM6.80005 15.1996C6.13845 15.1996 5.60005 14.6612 5.60005 13.9996C5.60005 13.338 6.13845 12.7996 6.80005 12.7996C7.46165 12.7996 8.00005 13.338 8.00005 13.9996C8.00005 14.6612 7.46165 15.1996 6.80005 15.1996ZM10.1624 9.13481L9.66245 8.51081C8.48885 9.45161 7.56565 10.6596 6.92965 12.0132C6.88565 12.01 6.84485 11.9996 6.80005 11.9996C5.69685 11.9996 4.80005 12.8972 4.80005 13.9996C4.80005 14.8124 5.28885 15.51 5.98565 15.8228C5.98165 15.95 5.97285 16.0756 5.97285 16.2036C5.97285 19.062 7.21285 21.7796 9.37445 23.6604L9.89925 23.0564C7.91285 21.3284 6.77285 18.83 6.77285 16.2036C6.77285 16.134 6.77845 16.0668 6.78085 15.998C6.78645 15.998 6.79285 15.9996 6.80005 15.9996C7.90325 15.9996 8.80005 15.102 8.80005 13.9996C8.80005 13.2268 8.35445 12.562 7.71125 12.2292C8.29205 11.0364 9.12005 9.97081 10.1624 9.13481ZM20.6072 22.2644C19.9584 24.7652 16.8416 25.4196 15.8792 25.5644C15.6408 24.7596 15.1008 22.3956 16.1552 20.1252C16.2216 19.9836 16.292 19.8428 16.3696 19.7036C16.9696 18.6316 17.4536 17.63 17.296 16.2364C17.2192 15.5644 16.8048 14.6548 16.3976 13.8972C17.524 14.8292 18.8592 16.6068 18.3744 19.6268C18.3488 19.79 18.4256 19.9524 18.5688 20.0356C18.7128 20.1188 18.892 20.1052 19.02 20.0012C19.0592 19.97 19.86 19.3076 20.2104 17.6868C20.6928 18.306 21.28 19.6548 20.6072 22.2644ZM11.8416 19.6892C11.8784 19.6276 11.9152 19.566 11.956 19.502C12.7776 18.2148 12.48 16.4204 12.2168 15.4348C12.964 15.8388 13.6424 16.8524 13.8832 17.3004C13.9592 17.4396 14.1064 17.526 14.2672 17.5092C14.4248 17.4972 14.5608 17.3924 14.6136 17.2436C15.3616 15.1156 14.8864 13.5636 14.3432 12.6244C14.5552 12.7244 14.7472 12.8452 14.9264 12.9804C15.3648 13.6508 16.3944 15.3892 16.5008 16.3268C16.6328 17.4852 16.2216 18.33 15.6704 19.3156C15.584 19.4708 15.5064 19.6268 15.4312 19.7852C14.416 21.9708 14.7112 24.1756 14.9864 25.326C14.1928 24.9908 13.4544 24.598 12.8896 24.2044C11.4384 23.1956 10.9768 21.2148 11.8416 19.6892ZM20.1232 16.5412C20.0048 16.4764 19.864 16.4748 19.7456 16.5372C19.6264 16.5996 19.5472 16.7172 19.5336 16.8508C19.4832 17.338 19.3864 17.7452 19.2736 18.0804C19.1216 14.1132 15.9224 12.5628 15.4056 12.3372C14.8336 11.9092 14.148 11.626 13.3072 11.4788C13.132 11.4492 12.952 11.5404 12.8768 11.7044C12.8 11.8676 12.844 12.0636 12.9824 12.1804C13.0552 12.2412 14.6096 13.5852 14.0912 16.1412C13.5648 15.4164 12.672 14.4644 11.6184 14.4644C11.4864 14.4644 11.3632 14.53 11.2888 14.6388C11.2144 14.7476 11.1984 14.886 11.2464 15.0092C11.2552 15.0348 12.2288 17.586 11.2832 19.0692C11.2376 19.1396 11.1952 19.2116 11.1432 19.2996C10.0784 21.1756 10.6456 23.6188 12.4328 24.8612C12.8992 25.186 13.912 25.814 15.4576 26.37C15.4608 26.3716 15.4632 26.3724 15.4664 26.3732C15.4688 26.374 15.4712 26.3756 15.4736 26.3764L15.4744 26.3748C15.5168 26.39 15.5624 26.3996 15.6088 26.3996C15.62 26.3996 15.6328 26.3996 15.6456 26.398C16.14 26.3524 20.5016 25.8588 21.3824 22.4652C22.5504 17.9292 20.2224 16.5956 20.1232 16.5412Z" fill="white"/>
</g>
<defs>
<clipPath id="clip0_867_36547">
<rect width="32" height="32" fill="white"/>
</clipPath>
</defs>
</svg>
