<svg width="32" height="32" viewBox="0 0 32 32" fill="none" xmlns="http://www.w3.org/2000/svg">
<g clip-path="url(#clip0_867_36551)">
<path d="M32 0H0V32H32V0Z" fill="#DD344C"/>
<path fill-rule="evenodd" clip-rule="evenodd" d="M14.4041 23.5804V9.30441L9.60407 11.078V19.5972C9.61287 19.7364 9.87927 23.3788 14.4041 23.5804ZM19.9705 18.1644V11.078L15.2041 9.30601V23.5844C15.9337 23.5332 16.3617 23.3444 16.8425 23.0548C16.8841 23.3324 16.9497 23.6028 17.0401 23.862C16.4529 24.1868 15.8337 24.3996 14.7873 24.3996C9.10487 24.3996 8.80727 19.6644 8.80487 19.6164L8.80407 10.7996C8.80407 10.6316 8.90887 10.482 9.06567 10.4244L14.6657 8.35481C14.7545 8.32201 14.8537 8.32201 14.9433 8.35561L20.5097 10.4244C20.6665 10.4828 20.7705 10.6324 20.7705 10.7996V18.006C20.4953 18.0332 20.2281 18.0884 19.9705 18.1644ZM21.6041 20.3972H20.8041V21.9972H19.2041V22.7972H20.8041V24.3972H21.6041V22.7972H23.2041V21.9972H21.6041V20.3972ZM24.0417 22.4092C24.0417 20.8508 22.7737 19.5828 21.2161 19.5828C19.6577 19.5828 18.3897 20.8508 18.3897 22.4092C18.3897 23.9668 19.6577 25.2348 21.2161 25.2348C22.7737 25.2348 24.0417 23.9668 24.0417 22.4092ZM24.8417 22.4092C24.8417 24.4084 23.2153 26.0348 21.2161 26.0348C19.2169 26.0348 17.5897 24.4084 17.5897 22.4092C17.5897 20.41 19.2169 18.7828 21.2161 18.7828C23.2153 18.7828 24.8417 20.41 24.8417 22.4092ZM18.0153 25.4572C18.2225 25.6748 18.4505 25.8724 18.6977 26.0444C17.5793 26.5652 16.2777 26.8348 14.8041 26.8348C12.2137 26.8348 10.1617 26.0604 8.70807 24.5324C6.23927 21.9388 6.39607 18.1404 6.40487 17.9804L6.40407 9.19961C6.40407 9.03561 6.50327 8.88921 6.65527 8.82841L14.6553 5.62841C14.7513 5.59001 14.8569 5.59001 14.9529 5.62841L22.9529 8.82841C23.1049 8.88921 23.2041 9.03561 23.2041 9.19961V17.9996C23.2041 17.9996 23.2105 18.178 23.2025 18.4596C22.9497 18.3316 22.6841 18.2284 22.4073 18.15C22.4057 18.074 22.4049 18.0196 22.4049 18.018L22.4041 9.47001L14.8041 6.43081L7.20407 9.47001V17.9996C7.20167 18.0548 7.05847 21.6444 9.29127 23.9852C10.5881 25.3452 12.4433 26.0348 14.8041 26.0348C16.0105 26.0348 17.0785 25.8316 18.0153 25.4572Z" fill="white"/>
</g>
<defs>
<clipPath id="clip0_867_36551">
<rect width="32" height="32" fill="white"/>
</clipPath>
</defs>
</svg>
