<svg width="32" height="32" viewBox="0 0 32 32" fill="none" xmlns="http://www.w3.org/2000/svg">
<g clip-path="url(#clip0_867_36534)">
<path d="M32 0H0V32H32V0Z" fill="#DD344C"/>
<path fill-rule="evenodd" clip-rule="evenodd" d="M24.5968 20.4486L24.0312 21.0142L25.416 22.3998H21.6V23.1998H25.3912L24.0312 24.5598L24.5968 25.1254L26.652 23.0702C26.8088 22.9142 26.8088 22.6606 26.652 22.5046L24.5968 20.4486ZM14.4 23.1998H18.9968L17.636 24.5598L18.2016 25.1254L20.2576 23.0702C20.3328 22.995 20.3752 22.8934 20.3752 22.787C20.3752 22.6814 20.3328 22.5798 20.2576 22.5046L18.2016 20.4486L17.636 21.0142L19.0216 22.3998H14.4V23.1998ZM11.0072 25.1254L13.0624 23.0702C13.2184 22.9142 13.2184 22.6606 13.0624 22.5046L11.0072 20.4486L10.4416 21.0142L11.8264 22.3998H7.20005V23.1998H11.8016L10.4416 24.5598L11.0072 25.1254ZM7.20005 17.5998H13.6V16.7998H7.20005V17.5998ZM7.20005 13.5998H13.6V12.7998H7.20005V13.5998ZM16.8 13.5998H19.2V12.7998H16.8V13.5998ZM19.6 11.9998C19.8208 11.9998 20 12.179 20 12.3998V13.9998C20 14.2206 19.8208 14.3998 19.6 14.3998H16.4C16.1792 14.3998 16 14.2206 16 13.9998V12.3998C16 12.179 16.1792 11.9998 16.4 11.9998H19.6ZM16.8 17.5998H26.4V16.7998H16.8V17.5998ZM27.2 16.3998V17.9998C27.2 18.2206 27.0208 18.3998 26.8 18.3998H16.4C16.1792 18.3998 16 18.2206 16 17.9998V16.3998C16 16.179 16.1792 15.9998 16.4 15.9998H26.8C27.0208 15.9998 27.2 16.179 27.2 16.3998ZM18.4 5.7318V8.7998H21.4376L18.4 5.7318ZM21.6 25.5998H22.4V26.7998C22.4 27.0206 22.2208 27.1998 22 27.1998H5.20005C4.97925 27.1998 4.80005 27.0206 4.80005 26.7998V5.1998C4.80005 4.979 4.97925 4.7998 5.20005 4.7998H18.4368C18.544 4.7998 18.6464 4.8422 18.7208 4.9182L22.284 8.5182C22.3584 8.5934 22.4 8.6942 22.4 8.7998V14.3998H21.6V9.5998H18C17.7792 9.5998 17.6 9.4206 17.6 9.1998V5.5998H5.60005V26.3998H21.6V25.5998ZM13.8048 7.6518L10.7208 10.7358C10.6432 10.8142 10.5408 10.8526 10.4384 10.8526C10.336 10.8526 10.2336 10.8142 10.1552 10.7358L8.61365 9.1942L9.17925 8.6286L10.4384 9.887L13.2392 7.0862L13.8048 7.6518Z" fill="white"/>
</g>
<defs>
<clipPath id="clip0_867_36534">
<rect width="32" height="32" fill="white"/>
</clipPath>
</defs>
</svg>
