<svg width="32" height="32" viewBox="0 0 32 32" fill="none" xmlns="http://www.w3.org/2000/svg">
<g clip-path="url(#clip0_867_36543)">
<path d="M32 0H0V32H32V0Z" fill="#DD344C"/>
<path fill-rule="evenodd" clip-rule="evenodd" d="M26.8 7.1998H26.4V26.3998H24V27.1998H26.8C27.0208 27.1998 27.2 27.0206 27.2 26.7998V7.5998C27.2 7.379 27.0208 7.1998 26.8 7.1998ZM7.20005 26.7998C7.20005 27.0206 7.37925 27.1998 7.60005 27.1998H20.8V26.3998H7.20005V26.7998ZM14 15.9998C14.1024 15.9998 14.2048 15.9606 14.2832 15.883L17.4832 12.683L16.9168 12.1166L14 15.0342L12.6832 13.7166L12.1168 14.283L13.7168 15.883C13.7952 15.9606 13.8976 15.9998 14 15.9998ZM10.4 13.9998C10.4 16.4262 12.3744 18.3998 14.8 18.3998C17.2256 18.3998 19.2 16.4262 19.2 13.9998C19.2 11.5734 17.2256 9.5998 14.8 9.5998C12.3744 9.5998 10.4 11.5734 10.4 13.9998ZM9.60005 13.9998C9.60005 11.1326 11.9328 8.7998 14.8 8.7998C17.6672 8.7998 20 11.1326 20 13.9998C20 16.867 17.6672 19.1998 14.8 19.1998C11.9328 19.1998 9.60005 16.867 9.60005 13.9998ZM5.60005 7.1998H24V5.5998H5.60005V7.1998ZM24 23.9998V7.9998H5.60005V23.9998H18.4V24.7998H5.20005C4.97925 24.7998 4.80005 24.6206 4.80005 24.3998V5.1998C4.80005 4.979 4.97925 4.7998 5.20005 4.7998H24.4C24.6208 4.7998 24.8 4.979 24.8 5.1998V24.3998C24.8 24.6206 24.6208 24.7998 24.4 24.7998H21.6V23.9998H24ZM10.576 23.131C10.4656 23.0566 10.4 22.9326 10.4 22.7998V19.1998H11.2V22.2094L14.6512 20.8286C14.7472 20.7902 14.8528 20.7902 14.9488 20.8286L18.4 22.2094V19.1998H19.2V22.7998C19.2 22.9326 19.1344 23.0566 19.024 23.131C18.9568 23.1766 18.8792 23.1998 18.8 23.1998C18.7496 23.1998 18.6992 23.1902 18.6512 23.171L14.8 21.631L10.9488 23.171C10.8256 23.2198 10.6848 23.2046 10.576 23.131Z" fill="white"/>
</g>
<defs>
<clipPath id="clip0_867_36543">
<rect width="32" height="32" fill="white"/>
</clipPath>
</defs>
</svg>
