<svg width="32" height="32" viewBox="0 0 32 32" fill="none" xmlns="http://www.w3.org/2000/svg">
<g clip-path="url(#clip0_867_36531)">
<path d="M32 0H0V32H32V0Z" fill="#DD344C"/>
<path fill-rule="evenodd" clip-rule="evenodd" d="M5.60005 24H26.4V8.8H5.60005V24ZM27.2 8.4V24.4C27.2 24.6208 27.0208 24.8 26.8 24.8H5.20005C4.97925 24.8 4.80005 24.6208 4.80005 24.4V8.4C4.80005 8.1792 4.97925 8 5.20005 8H26.8C27.0208 8 27.2 8.1792 27.2 8.4ZM17.6 19.2H24V18.4H17.6V19.2ZM22.4 16.8H24.8V16H22.4V16.8ZM17.6 16.8H20.8V16H17.6V16.8ZM12 18.8C12 18.5792 11.82 18.4 11.6 18.4C11.38 18.4 11.2 18.5792 11.2 18.8C11.2 19.0208 11.38 19.2 11.6 19.2C11.82 19.2 12 19.0208 12 18.8ZM12.8 18.8C12.8 19.3208 12.4648 19.7608 12 19.9264V20.8H11.2V19.9264C10.7352 19.7608 10.4 19.3208 10.4 18.8C10.4 18.1384 10.9384 17.6 11.6 17.6C12.2616 17.6 12.8 18.1384 12.8 18.8ZM8.00005 21.5968L15.1976 21.6L15.1984 20H13.6V19.2H15.1984L15.1992 18.4H13.6V17.6H15.1992L15.2 16.0032L8.00245 16L8.00005 21.5968ZM8.80005 15.2L14.3984 15.2024V12.4616C14.3984 11.8072 13.8656 11.3304 13.548 11.1048C12.9984 10.7144 12.2704 10.4808 11.6 10.4808H11.5992C10.1872 10.4808 8.80165 11.4608 8.80085 12.46L8.80005 15.2ZM7.20005 21.9968L7.20245 15.6C7.20245 15.4936 7.24485 15.392 7.31925 15.3168C7.39445 15.2424 7.49605 15.2 7.60245 15.2H8.00005L8.00085 12.46C8.00165 10.8688 9.90085 9.6808 11.5992 9.6808H11.6C12.4424 9.6808 13.3208 9.9624 14.0112 10.452C14.7776 10.9968 15.1992 11.7104 15.1984 12.4624V15.2032H15.6C15.8208 15.2032 16 15.3824 16 15.6032L15.9976 22C15.9976 22.1064 15.9552 22.208 15.8808 22.2832C15.8056 22.3576 15.704 22.4 15.5976 22.4L7.60005 22.3968C7.37925 22.3968 7.20005 22.2176 7.20005 21.9968ZM23.2 14.4H24.8V13.6H23.2V14.4ZM17.6 14.4H22.4V13.6H17.6V14.4Z" fill="white"/>
</g>
<defs>
<clipPath id="clip0_867_36531">
<rect width="32" height="32" fill="white"/>
</clipPath>
</defs>
</svg>
