<svg width="32" height="32" viewBox="0 0 32 32" fill="none" xmlns="http://www.w3.org/2000/svg">
<g clip-path="url(#clip0_867_36532)">
<path d="M32 0H0V32H32V0Z" fill="#DD344C"/>
<path fill-rule="evenodd" clip-rule="evenodd" d="M16 4.7998C9.82481 4.7998 4.80005 9.82753 4.80005 16.0082C4.80005 21.0175 8.37993 25.4409 13.5068 26.7647L13.7063 25.991C8.93203 24.7582 5.59788 20.6535 5.59788 16.0082C5.59788 10.2683 10.2644 5.59824 16 5.59824C21.7357 5.59824 26.4022 10.2683 26.4022 16.0082C26.4022 20.9257 23.5324 24.8444 19.0917 25.991L19.2911 26.7647C24.0949 25.5239 27.2 21.3018 27.2 16.0082C27.2 9.82753 22.1753 4.7998 16 4.7998ZM12.8255 11.2096H16.7979V10.4112H12.8255V11.2096ZM12.8255 18.4434H17.5957V17.645H12.8255V18.4434ZM12.8255 15.9778H16V15.1794H12.8255V15.9778ZM12.8255 13.6153H19.9517V12.8169H12.8255V13.6153ZM20.8118 11.949H18.7175C18.4973 11.949 18.3186 11.7701 18.3186 11.5497V8.83747H11.9542V20.0475H20.8118V11.949ZM19.1164 11.1505H20.3794L19.1164 9.57363V11.1505ZM21.2107 20.8459H11.5553C11.3343 20.8459 11.1564 20.667 11.1564 20.4467V8.43826C11.1564 8.21709 11.3343 8.03904 11.5553 8.03904H18.7175C18.8356 8.03904 18.9512 8.09174 19.0286 8.18835L21.5219 11.2998C21.5801 11.3725 21.6 11.4603 21.6 11.5497H21.6096V20.4467C21.6096 20.667 21.4317 20.8459 21.2107 20.8459ZM19.1395 23.8129L16.7005 27.0409C16.6256 27.1399 16.5091 27.199 16.3846 27.1998H16.3822C16.2593 27.1998 16.1429 27.1423 16.0671 27.0449L13.5667 23.8169C13.4741 23.6963 13.4566 23.5334 13.5236 23.3969C13.5906 23.2595 13.7302 23.1733 13.8826 23.1733H15.1727V21.5868H15.9705V23.5725C15.9705 23.7929 15.7918 23.9717 15.5716 23.9717H14.6964L16.379 26.1435L18.0194 23.9717H17.1481C16.9279 23.9717 16.7492 23.7929 16.7492 23.5725V21.5868H17.5471V23.1733H18.8212C18.9728 23.1733 19.1108 23.2587 19.1778 23.3945C19.2456 23.5302 19.2313 23.6923 19.1395 23.8129Z" fill="white"/>
</g>
<defs>
<clipPath id="clip0_867_36532">
<rect width="32" height="32" fill="white"/>
</clipPath>
</defs>
</svg>
