<svg width="32" height="32" viewBox="0 0 32 32" fill="none" xmlns="http://www.w3.org/2000/svg">
<g clip-path="url(#clip0_867_36538)">
<path d="M32 0H0V32H32V0Z" fill="#DD344C"/>
<path fill-rule="evenodd" clip-rule="evenodd" d="M18.632 21.1518C18.8464 21.2918 19.1312 21.2326 19.2712 21.0206C19.4104 20.8086 19.3504 20.5222 19.1392 20.383C19.0608 20.331 18.9736 20.3062 18.8856 20.3062C18.7368 20.3062 18.5896 20.3798 18.5008 20.5134C18.3616 20.7254 18.42 21.0118 18.632 21.1518ZM24.0624 18.1126L19.4384 15.063L15.2 18.3214V25.4894L17.8816 21.5206C17.572 21.107 17.5328 20.5286 17.8336 20.0726C18.0184 19.7918 18.3024 19.5998 18.632 19.5326C18.9616 19.4654 19.2976 19.5294 19.58 19.715C20.1592 20.0974 20.32 20.8806 19.9392 21.4606L19.9384 21.4614C19.7528 21.7422 19.4696 21.9342 19.1392 22.0014C19.0536 22.019 18.968 22.0278 18.8832 22.0278C18.7664 22.0278 18.6496 22.0094 18.5384 21.9774L15.864 25.9358L22.552 23.143L24.0624 18.1126ZM24.8896 18.1382L23.264 23.5534C23.2296 23.6686 23.1464 23.7622 23.0352 23.8078L14.9536 27.1822C14.9048 27.203 14.852 27.1998 14.8 27.1998H4.80005V26.3998H14.4V18.1246C14.4 18.0006 14.4576 17.883 14.556 17.807L19.1008 14.3134L21.4688 9.7334L22.18 10.1006L19.9384 14.435L24.4456 17.407L26.5664 14.691L27.1976 15.183L24.8896 18.1382ZM24.6368 5.3502L23.9256 4.9822L22.0448 8.6158L22.7552 8.9838L24.6368 5.3502ZM10.0008 12.7326C10.1104 12.7326 10.2152 12.687 10.2904 12.6078L13.652 9.0758L13.0728 8.5238L10.0008 11.7518L8.60885 10.2918L8.02885 10.8438L9.71125 12.6086C9.78645 12.687 9.89125 12.7326 10.0008 12.7326ZM5.60005 10.7998C5.60005 11.2238 5.90165 11.591 6.31605 11.6742C6.46485 11.7038 6.58325 11.8142 6.62325 11.9598C6.71925 12.3062 6.85765 12.6382 7.03285 12.9462C7.10485 13.0726 7.10245 13.2294 7.02565 13.3534C6.93765 13.4982 6.89205 13.6526 6.89205 13.815C6.89205 14.4694 7.66405 14.9318 8.24725 14.5734C8.31125 14.535 8.38325 14.515 8.45605 14.515C8.52485 14.515 8.59285 14.5326 8.65445 14.5678C8.96245 14.743 9.29365 14.8806 9.64005 14.9758C9.78565 15.0166 9.89605 15.135 9.92565 15.2838C10.0088 15.699 10.3768 15.9998 10.8 15.9998C11.2232 15.9998 11.5912 15.699 11.6744 15.2838C11.704 15.135 11.8144 15.0166 11.96 14.9758C12.3064 14.8806 12.6376 14.743 12.9456 14.5678C13.0728 14.4958 13.2288 14.4982 13.3528 14.5734C13.4976 14.663 13.6528 14.7078 13.8152 14.7078C14.308 14.7078 14.708 14.307 14.708 13.815C14.708 13.6526 14.6624 13.4982 14.5744 13.3534C14.4976 13.2294 14.4952 13.0726 14.5672 12.9462C14.7424 12.6382 14.8808 12.3062 14.9768 11.9598C15.016 11.8142 15.1352 11.7038 15.2832 11.6742C15.6984 11.591 16 11.2238 16 10.7998C16 10.3758 15.6984 10.0086 15.2832 9.9254C15.1352 9.8958 15.016 9.7854 14.9768 9.6398C14.8808 9.2934 14.7424 8.9614 14.5672 8.6534C14.4952 8.527 14.4976 8.3702 14.5744 8.2462C14.6624 8.1022 14.708 7.947 14.708 7.7846C14.708 7.1302 13.94 6.6654 13.3528 7.0262C13.2288 7.103 13.0728 7.1054 12.9456 7.0326C12.6376 6.8566 12.3064 6.719 11.96 6.6238C11.8144 6.5838 11.704 6.4646 11.6744 6.3166C11.5912 5.9014 11.2232 5.5998 10.8 5.5998C10.3768 5.5998 10.0088 5.9014 9.92565 6.3166C9.89605 6.4646 9.78565 6.5838 9.64005 6.6238C9.29365 6.719 8.96245 6.8566 8.65445 7.0326C8.52805 7.1054 8.37205 7.103 8.24725 7.0262C7.66005 6.6662 6.89205 7.131 6.89205 7.7846C6.89205 7.947 6.93765 8.1022 7.02565 8.2462C7.10245 8.3702 7.10485 8.527 7.03285 8.6534C6.85765 8.9614 6.71925 9.2934 6.62325 9.6398C6.58325 9.7854 6.46485 9.8958 6.31605 9.9254C5.90165 10.0086 5.60005 10.3758 5.60005 10.7998ZM4.80005 10.7998C4.80005 10.0806 5.25765 9.4462 5.91845 9.2078C6.00325 8.947 6.10885 8.6934 6.23285 8.4518C6.14085 8.2398 6.09205 8.0134 6.09205 7.7846C6.09205 6.8518 6.85125 6.0918 7.78405 6.0918C8.01285 6.0918 8.24005 6.1398 8.45125 6.2326C8.69365 6.1078 8.94725 6.0022 9.20885 5.9182C9.44725 5.2574 10.0808 4.7998 10.8 4.7998C11.5192 4.7998 12.1528 5.2574 12.3912 5.9182C12.6528 6.0022 12.9064 6.1078 13.1488 6.2326C13.36 6.1398 13.5872 6.0918 13.8152 6.0918C14.7488 6.0918 15.508 6.8518 15.508 7.7846C15.508 8.0134 15.4592 8.2398 15.3672 8.4518C15.4912 8.6934 15.5968 8.947 15.6816 9.2078C16.3424 9.4462 16.8 10.0806 16.8 10.7998C16.8 11.519 16.3424 12.1534 15.6816 12.3918C15.5968 12.6526 15.4912 12.9062 15.3672 13.1486C15.4592 13.3598 15.508 13.5862 15.508 13.815C15.508 14.7486 14.7488 15.5078 13.8152 15.5078C13.5864 15.5078 13.36 15.4598 13.1488 15.367C12.9056 15.4918 12.652 15.5974 12.3912 15.6814C12.1528 16.3422 11.5192 16.7998 10.8 16.7998C10.0808 16.7998 9.44725 16.3422 9.20885 15.6814C8.94805 15.5974 8.69445 15.4918 8.45125 15.367C8.24005 15.4598 8.01365 15.5078 7.78405 15.5078C6.85125 15.5078 6.09205 14.7486 6.09205 13.815C6.09205 13.5862 6.14085 13.3598 6.23285 13.1486C6.10885 12.9062 6.00325 12.6526 5.91845 12.3918C5.25765 12.1534 4.80005 11.519 4.80005 10.7998ZM8.80005 16.7998V21.0342L10.5168 19.3174C10.672 19.1622 10.9216 19.1606 11.08 19.3142L13.08 21.2686L12.52 21.8406L10.8032 20.1622L8.68245 22.283C8.60645 22.359 8.50405 22.3998 8.40005 22.3998C8.34885 22.3998 8.29605 22.3902 8.24725 22.3694C8.09765 22.3078 8.00005 22.1614 8.00005 21.9998V16.7998H8.80005Z" fill="white"/>
</g>
<defs>
<clipPath id="clip0_867_36538">
<rect width="32" height="32" fill="white"/>
</clipPath>
</defs>
</svg>
