<svg width="32" height="32" viewBox="0 0 32 32" fill="none" xmlns="http://www.w3.org/2000/svg">
<g clip-path="url(#clip0_854_27760)">
<path d="M32 0H0V32H32V0Z" fill="#ED7100"/>
<path fill-rule="evenodd" clip-rule="evenodd" d="M5.94805 13.6177C5.94405 13.5444 5.94165 13.4703 5.94165 13.3946C5.94165 11.1478 7.45685 10.2924 8.38165 9.97939C8.37685 9.88952 8.37445 9.79807 8.37445 9.70662C8.37445 7.84606 9.63845 5.91533 11.3144 5.21526C13.2784 4.39535 15.3568 4.80452 16.8768 6.30558C17.3288 6.75258 17.7016 7.29104 17.9928 7.91149C18.5552 7.48025 19.2784 7.33046 19.9696 7.52992C20.9416 7.80979 21.596 8.68015 21.7536 9.88321C22.2576 10.0046 22.9968 10.2742 23.6104 10.8348C23.5448 10.8316 23.48 10.8253 23.4144 10.8253C23.0592 10.8253 22.7144 10.8687 22.3824 10.9444C21.96 10.7347 21.5488 10.6377 21.3064 10.5959C21.0928 10.5604 20.9464 10.3618 20.9792 10.1497C20.9128 9.20442 20.4512 8.49016 19.7456 8.28676C19.1696 8.1212 18.5528 8.34194 18.172 8.84887C18.084 8.96633 17.9424 9.02389 17.7912 9.00496C17.6448 8.98368 17.5224 8.88434 17.4728 8.74638C17.2016 7.99112 16.8104 7.35727 16.3096 6.86217C15.6952 6.25512 14.0056 4.948 11.6272 5.94135C10.252 6.51528 9.17445 8.16929 9.17445 9.70662C9.17445 9.88006 9.18565 10.0519 9.20485 10.2191C9.22965 10.4154 9.10085 10.5983 8.90725 10.6471C8.09845 10.8513 6.74165 11.4781 6.74165 13.3946C6.74165 13.4577 6.74405 13.52 6.74645 13.5807C6.75925 13.8282 6.81445 14.0647 6.89125 14.2942H6.05525C5.99845 14.0734 5.95925 13.8479 5.94805 13.6177ZM23.124 24.2198V22.5571L24.4448 23.3888L23.124 24.2198ZM22.9392 21.5054C22.816 21.4281 22.66 21.4234 22.5312 21.492C22.4032 21.5614 22.324 21.6938 22.324 21.8381V24.9395C22.324 25.083 22.4032 25.2155 22.5312 25.2848C22.592 25.3172 22.6576 25.3337 22.724 25.3337C22.7984 25.3337 22.8736 25.3124 22.9392 25.2714L25.4032 23.7207C25.5184 23.6482 25.588 23.5228 25.588 23.3888C25.588 23.254 25.5184 23.1287 25.4032 23.0561L22.9392 21.5054ZM23.4144 26.4114C21.768 26.4114 20.4288 25.0917 20.4288 23.4692C20.4288 21.8468 21.768 20.5262 23.4144 20.5262C25.0608 20.5262 26.4 21.8468 26.4 23.4692C26.4 25.0917 25.0608 26.4114 23.4144 26.4114ZM5.60005 22.9662H13.6V15.8709H5.60005V22.9662ZM23.4144 12.4021C25.0608 12.4021 26.4 13.7218 26.4 15.3443C26.4 16.9667 25.0608 18.2873 23.4144 18.2873C21.768 18.2873 20.4288 16.9667 20.4288 15.3443C20.4288 13.7218 21.768 12.4021 23.4144 12.4021ZM23.4144 19.7379C21.5 19.7379 19.9304 21.1506 19.68 22.9702L14.4 21.0544V18.9432L19.8864 16.6672C20.4304 18.0712 21.8008 19.0756 23.4144 19.0756C25.5016 19.0756 27.2 17.4019 27.2 15.3443C27.2 13.2874 25.5016 11.6137 23.4144 11.6137C21.3272 11.6137 19.6288 13.2874 19.6288 15.3443C19.6288 15.5327 19.6576 15.7132 19.6848 15.8945L14.4 18.087V15.4767C14.4 15.2591 14.2216 15.0825 14 15.0825H5.20005C4.97925 15.0825 4.80005 15.2591 4.80005 15.4767V23.3604C4.80005 23.5788 4.97925 23.7546 5.20005 23.7546H14C14.2216 23.7546 14.4 23.5788 14.4 23.3604V21.8948L19.6632 23.8043C19.8376 25.7027 21.4432 27.1998 23.4144 27.1998C25.5016 27.1998 27.2 25.5261 27.2 23.4692C27.2 21.4116 25.5016 19.7379 23.4144 19.7379ZM23.2 14.5937L24.4616 15.4129L23.2 16.232V14.5937ZM22.6104 17.3113C22.6696 17.342 22.7352 17.3578 22.8 17.3578C22.8768 17.3578 22.9544 17.3357 23.0208 17.2931L25.408 15.7416C25.5208 15.6691 25.588 15.5453 25.588 15.4129C25.588 15.2804 25.5208 15.1566 25.408 15.0833L23.0208 13.5326C22.8976 13.4537 22.7408 13.4467 22.6104 13.5145C22.4808 13.5838 22.4 13.7163 22.4 13.8621V16.9636C22.4 17.1086 22.4808 17.2419 22.6104 17.3113ZM8.74645 18.4694L10.7264 19.4241L8.74645 20.4064V18.4694ZM8.34645 21.4407C8.40805 21.4407 8.46965 21.4273 8.52645 21.399L11.8048 19.771C11.9408 19.704 12.0264 19.566 12.0257 19.4162C12.0248 19.2672 11.9376 19.1308 11.8008 19.0646L8.52245 17.4831C8.39845 17.4248 8.25285 17.4303 8.13445 17.5028C8.01765 17.5754 7.94645 17.7015 7.94645 17.8379V21.0466C7.94645 21.1837 8.01845 21.3107 8.13605 21.3824C8.20085 21.421 8.27365 21.4407 8.34645 21.4407Z" fill="white"/>
</g>
<defs>
<clipPath id="clip0_854_27760">
<rect width="32" height="32" fill="white"/>
</clipPath>
</defs>
</svg>
