<svg width="32" height="32" viewBox="0 0 32 32" fill="none" xmlns="http://www.w3.org/2000/svg">
<g clip-path="url(#clip0_854_27739)">
<path d="M32 0H0V32H32V0Z" fill="#ED7100"/>
<path fill-rule="evenodd" clip-rule="evenodd" d="M19.1243 24.3654C18.5099 24.0382 17.4835 23.491 16.5267 22.4038C15.6435 21.3998 15.2187 20.4038 14.9075 19.6774C14.5547 18.8486 14.2907 17.9798 14.1243 17.0942C14.0931 16.9262 13.9587 16.7974 13.7907 16.7718C13.6179 16.7486 13.4563 16.8318 13.3771 16.9822C13.1475 17.4198 12.9379 17.875 12.7523 18.3358C12.3395 19.3646 11.0723 22.795 11.3211 25.5742H9.65229C9.19789 23.8838 8.69469 22.5126 6.72829 19.4526C6.57149 19.2086 6.41789 18.9582 6.27229 18.719C6.07949 18.4038 5.89469 18.1014 5.72429 17.8526L8.02109 14.7982C8.15469 15.0422 8.28029 15.2926 8.39629 15.5462C8.70749 16.231 8.84829 16.731 9.19149 17.939L9.36589 18.5494C9.48589 18.9726 9.67869 19.6462 9.92829 20.487C9.98269 20.6742 10.1627 20.7998 10.3603 20.771C10.5539 20.7478 10.7027 20.587 10.7107 20.3918C10.8459 17.3814 11.4771 14.5926 12.5891 12.103C13.3931 10.3006 14.4331 8.7318 15.5155 7.6846C15.9307 7.2838 16.3771 6.911 16.8491 6.5718L19.1347 10.2846C18.7091 10.6126 18.3187 10.9822 17.9707 11.387C17.4763 11.9598 17.0427 12.647 16.7163 13.3734C16.4323 14.0078 15.9555 15.3318 15.9619 17.0702C15.9643 17.5422 15.9691 18.6486 16.4347 19.967C16.6563 20.5942 17.3427 22.2006 18.9339 23.5774C20.4899 24.9246 22.1243 25.3806 22.9643 25.567C21.0875 25.4126 19.7155 24.6814 19.1243 24.3654ZM16.0203 26.3998C14.6739 26.3998 13.3715 26.135 12.1379 25.6366C11.8387 22.9462 13.2075 19.3486 13.4947 18.6334C13.5299 18.547 13.5659 18.4598 13.6027 18.3726C13.7571 18.9238 13.9475 19.4654 14.1723 19.991C14.4851 20.7246 14.9587 21.8326 15.9267 22.9326C16.9787 24.1286 18.0859 24.7182 18.7475 25.0718C19.0051 25.2086 19.4051 25.419 19.9187 25.6318C18.6843 26.1334 17.3795 26.3998 16.0203 26.3998ZM5.62029 15.9998C5.62029 10.2654 10.2859 5.5998 16.0203 5.5998C16.2907 5.5998 16.5555 5.6206 16.8203 5.6406C16.7955 5.6502 16.7699 5.655 16.7467 5.6702C16.1091 6.0958 15.5075 6.5798 14.9595 7.1094C13.8051 8.2254 12.7035 9.883 11.8579 11.7774C10.9771 13.7502 10.3875 15.9014 10.0963 18.195L9.96109 17.7206C9.61709 16.5078 9.46029 15.955 9.12429 15.215C8.91229 14.7502 8.66989 14.2966 8.40269 13.8654C8.33309 13.7534 8.21229 13.683 8.08029 13.6774C7.95149 13.6694 7.82269 13.731 7.74269 13.8366L5.60749 16.6766C5.60909 16.6198 5.60989 16.5606 5.61149 16.5062C5.61629 16.3134 5.62029 16.1366 5.62029 15.9998ZM26.4203 15.9998C26.4203 19.3622 24.7851 22.5166 22.0475 24.4686C21.2867 24.1982 20.3579 23.7518 19.4571 22.9726C18.0115 21.7214 17.3891 20.2678 17.1891 19.7006C16.7691 18.5094 16.7643 17.535 16.7618 17.0662C16.7555 15.479 17.1883 14.2766 17.4459 13.7006C17.8195 12.871 18.2675 12.2686 18.5763 11.9086C18.9635 11.4598 19.4075 11.0582 19.8971 10.7158C20.0715 10.595 20.1195 10.359 20.0083 10.179L17.3091 5.7934C17.2779 5.7414 17.2339 5.7014 17.1843 5.6694C22.3723 6.2502 26.4203 10.659 26.4203 15.9998ZM26.2435 25.0126C25.6899 25.0446 24.6611 25.103 23.4107 24.8446C23.3003 24.8214 23.1483 24.7886 22.9811 24.7486C25.6395 22.6294 27.2203 19.4198 27.2203 15.9998C27.2203 9.8246 22.1963 4.7998 16.0203 4.7998C9.84429 4.7998 4.82029 9.8246 4.82029 15.9998C4.82029 16.1318 4.81629 16.3014 4.81149 16.487C4.80029 16.9846 4.78589 17.5486 4.83069 17.899L4.84269 17.8974C4.85229 17.9662 4.86669 18.0358 4.91149 18.0942C5.10189 18.3374 5.33869 18.7254 5.58909 19.1366C5.73869 19.3806 5.89469 19.6358 6.05469 19.8854C8.11309 23.087 8.49949 24.3238 8.95789 26.0758C9.00429 26.2518 9.16269 26.3742 9.34429 26.3742H11.7739C11.7859 26.3742 11.7971 26.3678 11.8083 26.3662C13.1459 26.911 14.5595 27.1998 16.0203 27.1998C17.7555 27.1998 19.4763 26.7854 21.0179 26.0158C21.6027 26.1838 22.2675 26.3206 23.0099 26.3734C23.2331 26.3894 23.4555 26.3966 23.6763 26.3966C25.2443 26.3966 26.7067 26.0318 26.9915 25.735C27.0731 25.6502 27.1275 25.5054 27.1147 25.3886C27.0715 24.9654 26.6683 24.9894 26.2435 25.0126Z" fill="white"/>
</g>
<defs>
<clipPath id="clip0_854_27739">
<rect width="32" height="32" fill="white"/>
</clipPath>
</defs>
</svg>
