<svg width="32" height="32" viewBox="0 0 32 32" fill="none" xmlns="http://www.w3.org/2000/svg">
<g clip-path="url(#clip0_854_27745)">
<path d="M32 0H0V32H32V0Z" fill="#ED7100"/>
<path fill-rule="evenodd" clip-rule="evenodd" d="M26.3105 16.7305C8.9873 16.7305 6.4001 19.8409 6.4001 21.6953H5.6001C5.6001 18.8697 9.4137 17.0769 16.9377 16.3305C9.4137 15.5841 5.6001 13.7905 5.6001 10.9649H6.4001C6.4001 12.8193 8.9873 15.9305 26.3105 15.9305V16.7305ZM12.7265 19.0337V19.8833C9.2081 21.1929 8.6993 23.0689 8.6993 24.7617H7.8993C7.8993 22.8601 8.4737 20.5225 12.7265 19.0337ZM12.7265 21.4705V22.4625C11.0033 23.8561 10.9985 25.5449 10.9985 27.0609H10.1985C10.1985 25.3969 10.2017 23.1609 12.7265 21.4705ZM25.5449 25.4201C25.5449 25.9033 25.1521 26.2969 24.6681 26.2969H16.0225C15.5385 26.2969 15.1449 25.9033 15.1449 25.4201V19.9737C15.1449 19.4905 15.5385 19.0969 16.0225 19.0969H24.6681C25.1521 19.0969 25.5449 19.4905 25.5449 19.9737V25.4201ZM24.6681 18.2969H16.0225C15.0969 18.2969 14.3449 19.0489 14.3449 19.9737V25.4201C14.3449 26.3449 15.0969 27.0969 16.0225 27.0969H24.6681C25.5929 27.0969 26.3449 26.3449 26.3449 25.4201V19.9737C26.3449 19.0489 25.5929 18.2969 24.6681 18.2969ZM7.8993 7.8993H8.6993C8.6993 11.1129 10.7921 14.3977 26.3105 14.3977V15.1977C10.0873 15.1977 7.8993 11.5089 7.8993 7.8993ZM10.1985 5.6001H10.9985C10.9985 8.4937 10.9985 12.8649 26.3105 12.8649V13.6649C11.4425 13.6649 10.1985 9.6809 10.1985 5.6001ZM19.5241 23.6705V21.7417L21.4377 22.7057L19.5241 23.6705ZM22.5065 22.3481L19.3033 20.7345C19.1809 20.6721 19.0329 20.6785 18.9137 20.7513C18.7953 20.8249 18.7241 20.9537 18.7241 21.0921V24.3201C18.7241 24.4593 18.7953 24.5881 18.9145 24.6609C18.9785 24.7001 19.0513 24.7201 19.1241 24.7201C19.1857 24.7201 19.2473 24.7065 19.3033 24.6777L22.5065 23.0625C22.6417 22.9945 22.7273 22.8569 22.7273 22.7057C22.7273 22.5545 22.6417 22.4161 22.5065 22.3481Z" fill="white"/>
</g>
<defs>
<clipPath id="clip0_854_27745">
<rect width="32" height="32" fill="white"/>
</clipPath>
</defs>
</svg>
