<svg width="32" height="32" viewBox="0 0 32 32" fill="none" xmlns="http://www.w3.org/2000/svg">
<g clip-path="url(#clip0_854_27790)">
<path d="M32 0H0V32H32V0Z" fill="#ED7100"/>
<path fill-rule="evenodd" clip-rule="evenodd" d="M19.2 26.33V21.4804L23.4 23.9052L19.2 26.33ZM19 20.4412C18.8768 20.37 18.7232 20.37 18.6 20.4412C18.4768 20.5124 18.4 20.6444 18.4 20.7876V27.0228C18.4 27.166 18.4768 27.298 18.6 27.3692C18.6616 27.4052 18.7312 27.4228 18.8 27.4228C18.8688 27.4228 18.9384 27.4052 19 27.3692L24.4 24.2516C24.5232 24.1804 24.6 24.0484 24.6 23.9052C24.6 23.7628 24.5232 23.63 24.4 23.5588L19 20.4412ZM26.4 18.5364L22.2 16.1116L26.4 13.6868V18.5364ZM13.6 20.094V12.13L20.4976 16.1124L13.6 20.094ZM12.8 10.7428L8.60005 8.318L12.8 5.8932V10.7428ZM12.8 26.3316L8.60005 23.9068L12.8 21.482V26.3316ZM27 12.6468C26.8768 12.5764 26.7232 12.5764 26.6 12.6468L21.3488 15.6796L13.6 11.206V5.1996C13.6 5.0572 13.5232 4.9252 13.4 4.8532C13.2768 4.782 13.1232 4.782 13 4.8532L7.60005 7.9716C7.47685 8.0428 7.40005 8.1748 7.40005 8.318C7.40005 8.4612 7.47685 8.5932 7.60005 8.6644L12.8 11.6668V20.558L7.60005 23.5604C7.47685 23.6316 7.40005 23.7636 7.40005 23.9068C7.40005 24.05 7.47685 24.182 7.60005 24.2532L13 27.3716C13.0616 27.4068 13.1312 27.4252 13.2 27.4252C13.2688 27.4252 13.3384 27.4068 13.4 27.3716C13.5232 27.2996 13.6 27.1676 13.6 27.0252V21.018L21.3496 16.5444L26.6 19.5764C26.7232 19.6468 26.8768 19.6468 27 19.5764C27.1232 19.5044 27.2 19.3724 27.2 19.23V12.994C27.2 12.8508 27.1232 12.7188 27 12.6468ZM5.60005 18.5364V13.6868L9.80005 16.1116L5.60005 18.5364ZM11 16.1116C11 15.9684 10.9232 15.8364 10.8 15.7652L5.40005 12.6468C5.27685 12.5764 5.12325 12.5764 5.00005 12.6468C4.87685 12.7188 4.80005 12.8508 4.80005 12.994V19.2292C4.80005 19.3724 4.87685 19.5044 5.00005 19.5756C5.06165 19.6116 5.13125 19.6292 5.20005 19.6292C5.26885 19.6292 5.33845 19.6116 5.40005 19.5756L10.8 16.458C10.9232 16.3868 11 16.2548 11 16.1116ZM19.2 5.8932L23.4 8.318L19.2 10.7428V5.8932ZM18.8 11.8356C18.8688 11.8356 18.9384 11.818 19 11.782L24.4 8.6644C24.5232 8.5932 24.6 8.4612 24.6 8.318C24.6 8.1748 24.5232 8.0428 24.4 7.9716L19 4.8532C18.8768 4.782 18.7232 4.782 18.6 4.8532C18.4768 4.9252 18.4 5.0572 18.4 5.1996V11.4356C18.4 11.5788 18.4768 11.7108 18.6 11.782C18.6616 11.818 18.7312 11.8356 18.8 11.8356Z" fill="white"/>
</g>
<defs>
<clipPath id="clip0_854_27790">
<rect width="32" height="32" fill="white"/>
</clipPath>
</defs>
</svg>
