<svg width="32" height="32" viewBox="0 0 32 32" fill="none" xmlns="http://www.w3.org/2000/svg">
<g clip-path="url(#clip0_854_27765)">
<path d="M32 0H0V32H32V0Z" fill="#ED7100"/>
<path fill-rule="evenodd" clip-rule="evenodd" d="M11.2 20.9859L9.19998 22.3194L7.20001 20.9859V19.0139L9.19998 17.6812L11.2 19.0139V20.9859ZM9.42158 16.8676C9.28718 16.7772 9.11278 16.7772 8.97839 16.8676L6.57841 18.4675C6.46722 18.5411 6.40002 18.6667 6.40002 18.8003V21.2003C6.40002 21.3339 6.46722 21.4587 6.57841 21.5331L8.97839 23.133C9.04558 23.1778 9.12238 23.2002 9.19998 23.2002C9.27758 23.2002 9.35438 23.1778 9.42158 23.133L11.8216 21.5331C11.9328 21.4587 11.9999 21.3339 11.9999 21.2003V18.8003C11.9999 18.6667 11.9328 18.5411 11.8216 18.4675L9.42158 16.8676ZM24.7998 20.9859L22.7998 22.3194L20.7998 20.9859V19.0139L22.7998 17.6812L24.7998 19.0139V20.9859ZM23.0214 16.8676C22.887 16.7772 22.7126 16.7772 22.5782 16.8676L20.1783 18.4675C20.0671 18.5411 19.9999 18.6667 19.9999 18.8003V21.2003C19.9999 21.3339 20.0671 21.4587 20.1783 21.5331L22.5782 23.133C22.6454 23.1778 22.7222 23.2002 22.7998 23.2002C22.8774 23.2002 22.9542 23.1778 23.0214 23.133L25.4214 21.5331C25.5326 21.4587 25.5998 21.3339 25.5998 21.2003V18.8003C25.5998 18.6667 25.5326 18.5411 25.4214 18.4675L23.0214 16.8676ZM20.3327 24.1778C20.455 24.3618 20.4055 24.6098 20.2215 24.733L16.6255 27.1297C16.5623 27.1729 16.4855 27.1993 16.4039 27.2001H16.4023H16.4015H16.3999H16.3983H16.3967H16.3959C16.3143 27.1993 16.2375 27.1729 16.1743 27.1297L12.5783 24.733C12.3943 24.6098 12.3447 24.3618 12.4671 24.1778C12.5903 23.9938 12.8399 23.9458 13.0215 24.0674L15.9999 26.0521V22.4002C15.9999 22.1786 16.1791 22.0002 16.3999 22.0002C16.6207 22.0002 16.7999 22.1786 16.7999 22.4002V26.0521L19.7783 24.0674C19.9599 23.945 20.2095 23.993 20.3327 24.1778ZM6.40002 14.8004V11.1965C6.39842 11.1309 6.41362 11.0645 6.44642 11.0029C6.44962 10.9981 6.45122 10.9925 6.45362 10.9877C6.45362 10.9877 6.45682 10.9925 6.45442 10.9869C6.45522 10.9861 6.45522 10.9861 6.45522 10.9861C6.49442 10.9197 6.54961 10.8694 6.61281 10.8358L10.2064 8.85021C10.4008 8.74301 10.644 8.81341 10.7504 9.007C10.8568 9.2006 10.7864 9.44379 10.5936 9.55019L7.6232 11.1909L10.5952 12.8509C10.788 12.9589 10.8568 13.2029 10.7496 13.3949C10.64 13.5885 10.396 13.6549 10.2048 13.5493L7.20001 11.8709V14.8004C7.20001 15.0212 7.02081 15.2004 6.80001 15.2004C6.57921 15.2004 6.40002 15.0212 6.40002 14.8004ZM25.5998 11.1885V14.8004C25.5998 15.0212 25.4206 15.2004 25.1998 15.2004C24.979 15.2004 24.7998 15.0212 24.7998 14.8004V11.8645L21.795 13.5493C21.603 13.6573 21.359 13.5885 21.2502 13.3957C21.143 13.2029 21.2118 12.9589 21.4046 12.8517L24.3766 11.1845L21.407 9.55099C21.2134 9.44379 21.143 9.2014 21.2494 9.007C21.3566 8.81341 21.6006 8.74461 21.7926 8.85021L25.387 10.8278C25.4494 10.8606 25.503 10.9102 25.5414 10.9733H25.5422V10.9741C25.547 10.9821 25.551 10.9901 25.555 10.9981C25.5862 11.0589 25.6014 11.1245 25.5998 11.1885ZM14.3999 7.81424L16.3999 6.48147L18.3999 7.81424V9.78618L16.3999 11.1197L14.3999 9.78618V7.81424ZM16.1783 11.9333C16.2455 11.9781 16.3223 12.0005 16.3999 12.0005C16.4775 12.0005 16.5543 11.9781 16.6215 11.9333L19.0215 10.3334C19.1327 10.259 19.1999 10.1342 19.1999 10.0006V7.60064C19.1999 7.46705 19.1327 7.34145 19.0215 7.26785L16.6215 5.6679C16.4871 5.5775 16.3127 5.5775 16.1783 5.6679L13.7783 7.26785C13.6671 7.34145 13.5999 7.46705 13.5999 7.60064V10.0006C13.5999 10.1342 13.6671 10.259 13.7783 10.3334L16.1783 11.9333ZM14.3999 13.8685L19.1279 16.4004L14.3999 18.9323V13.8685ZM13.9999 20.0003C14.0647 20.0003 14.1295 19.9843 14.1887 19.9523L20.1647 16.7524C20.2943 16.6828 20.3759 16.5476 20.3759 16.4004C20.3759 16.2524 20.2943 16.1172 20.1647 16.0476L14.1887 12.8477C14.0639 12.7813 13.9159 12.7853 13.7943 12.8565C13.6743 12.9293 13.5999 13.0597 13.5999 13.2005V19.6003C13.5999 19.7403 13.6743 19.8707 13.7943 19.9435C13.8575 19.9811 13.9287 20.0003 13.9999 20.0003Z" fill="white"/>
</g>
<defs>
<clipPath id="clip0_854_27765">
<rect width="32" height="32" fill="white"/>
</clipPath>
</defs>
</svg>
