<svg width="32" height="32" viewBox="0 0 32 32" fill="none" xmlns="http://www.w3.org/2000/svg">
<g clip-path="url(#clip0_854_27728)">
<path d="M32 0H0V32H32V0Z" fill="#ED7100"/>
<path fill-rule="evenodd" clip-rule="evenodd" d="M13.8031 6.93049L13.4031 6.23769L15.7999 4.85369C15.9231 4.78249 16.0767 4.78249 16.1999 4.85369L18.5967 6.23769L18.1967 6.93049L15.9999 5.66169L13.8031 6.93049ZM18.3999 22.5697L16.3999 23.7241L14.3999 22.5697V20.2601L16.3999 19.1049L18.3999 20.2601V20.8001V21.6001V22.5697ZM19.1999 20.0289C19.1999 19.8857 19.1231 19.7537 18.9999 19.6825L16.5999 18.2969C16.4767 18.2257 16.3231 18.2257 16.1999 18.2969L13.7999 19.6825C13.6767 19.7537 13.5999 19.8857 13.5999 20.0289V20.8001H6.3999V21.6001H13.5999V22.8001C13.5999 22.9433 13.6767 23.0753 13.7999 23.1473L15.9999 24.4169V27.2001H16.7999V24.4169L18.9999 23.1473C19.1231 23.0753 19.1999 22.9433 19.1999 22.8001V21.6001H25.5999V20.8001H19.1999V20.0289ZM20.7999 14.4001H23.1999V13.6001H20.7999V14.4001ZM20.7999 12.0001H23.1999V11.2001H20.7999V12.0001ZM8.7999 12.0001H15.1999V11.2001H8.7999V12.0001ZM7.1999 16.0001H24.7999V9.60009H7.1999V16.0001ZM25.1999 8.80009H6.7999C6.5791 8.80009 6.3999 8.97929 6.3999 9.20009V16.4001C6.3999 16.6209 6.5791 16.8001 6.7999 16.8001H25.1999C25.4207 16.8001 25.5999 16.6209 25.5999 16.4001V9.20009C25.5999 8.97929 25.4207 8.80009 25.1999 8.80009Z" fill="white"/>
</g>
<defs>
<clipPath id="clip0_854_27728">
<rect width="32" height="32" fill="white"/>
</clipPath>
</defs>
</svg>
