<svg width="32" height="32" viewBox="0 0 32 32" fill="none" xmlns="http://www.w3.org/2000/svg">
<g clip-path="url(#clip0_854_27723)">
<path d="M32 0H0V32H32V0Z" fill="#ED7100"/>
<path fill-rule="evenodd" clip-rule="evenodd" d="M18.3529 20.8351L16.4001 21.9527L14.4465 20.8351V18.6055L16.4001 17.4879L18.3529 18.6055V20.8351ZM19.1529 18.3735C19.1529 18.2303 19.0761 18.0983 18.9513 18.0263L16.5985 16.6799C16.4761 16.6095 16.3233 16.6095 16.2017 16.6799L13.8481 18.0263C13.7233 18.0983 13.6465 18.2303 13.6465 18.3735V19.2367H6.4001V20.0367H13.6465V21.0671C13.6465 21.2103 13.7233 21.3431 13.8481 21.4143L16.0001 22.6455V25.5871H16.8001V22.6455L18.9513 21.4143C19.0761 21.3431 19.1529 21.2103 19.1529 21.0671V20.0367H26.4001V19.2367H19.1529V18.3735ZM8.0001 11.1999H10.4001V10.3999H8.0001V11.1999ZM18.4001 11.1999H24.8001V10.3999H18.4001V11.1999ZM6.4001 13.5999H26.4001V7.1999H6.4001V13.5999ZM26.8001 6.3999H6.0001C5.7785 6.3999 5.6001 6.5783 5.6001 6.7999V13.9999C5.6001 14.2207 5.7785 14.3999 6.0001 14.3999H26.8001C27.0209 14.3999 27.2001 14.2207 27.2001 13.9999V6.7999C27.2001 6.5783 27.0209 6.3999 26.8001 6.3999Z" fill="white"/>
</g>
<defs>
<clipPath id="clip0_854_27723">
<rect width="32" height="32" fill="white"/>
</clipPath>
</defs>
</svg>
