<svg width="32" height="32" viewBox="0 0 32 32" fill="none" xmlns="http://www.w3.org/2000/svg">
<g clip-path="url(#clip0_854_27750)">
<path d="M32 0H0V32H32V0Z" fill="#ED7100"/>
<path fill-rule="evenodd" clip-rule="evenodd" d="M7.2009 13.7487H6.3999V10.5859C6.3999 10.446 6.4752 10.3163 6.59695 10.2451L11.1522 7.6002L11.5583 8.28179L7.2009 10.8121V13.7487ZM26.3999 13.7487H25.5989V10.8121L21.2407 8.281L21.6476 7.59941L26.2029 10.2451C26.3246 10.3163 26.3999 10.446 26.3999 10.5859V13.7487ZM19.4192 25.1595L19.0123 24.4779L25.5989 20.639V16.9116H26.3999V20.8651C26.3999 21.0051 26.3246 21.1348 26.2029 21.2059L19.4192 25.1595ZM13.4054 25.1595L6.59695 21.2059C6.4752 21.1348 6.3999 21.0051 6.3999 20.8651V16.9116H7.2009V20.639L13.8123 24.4779L13.4054 25.1595ZM14.4098 10.0996L16.4123 11.088L18.4148 10.0996V7.42545L16.4123 6.43706L14.4098 7.42545V10.0996ZM9.82014 13.6452L16.4107 16.9037L22.7762 13.6428L18.3523 11.0145L16.8128 11.7743V13.7487H16.0118V11.7743L14.4755 11.0161L9.82014 13.6452ZM9.7841 18.1277L16.4091 21.4384L22.7514 18.1554L19.3391 16.294L16.8128 17.5876L16.8136 18.493H16.0126L16.0118 17.5908L13.0257 16.1146L9.7841 18.1277ZM16.0126 26.4001L16.0118 22.1263L8.79087 18.5175C8.66191 18.4535 8.5786 18.3254 8.5722 18.183C8.56499 18.0407 8.63628 17.9063 8.75803 17.8304L12.1887 15.7002L8.79247 14.0215C8.66031 13.9567 8.5754 13.8247 8.57125 13.6792C8.56739 13.5337 8.64509 13.3969 8.77325 13.3249L13.6729 10.559C13.6313 10.4958 13.6088 10.4214 13.6088 10.344V7.18112C13.6088 7.03168 13.6945 6.89488 13.8299 6.82767L16.2329 5.64161C16.3458 5.58626 16.4788 5.58626 16.5917 5.64161L18.9947 6.82767C19.1301 6.89488 19.2158 7.03168 19.2158 7.18112V10.344C19.2158 10.4238 19.1918 10.5005 19.1477 10.5646L23.8031 13.3297C23.9272 13.4032 24.0017 13.5376 23.9969 13.6807C23.9921 13.8239 23.9088 13.9528 23.7807 14.0192L20.1938 15.8568L23.7903 17.8185C23.9192 17.8889 23.9985 18.0241 23.9969 18.1688C23.9953 18.3143 23.9128 18.4471 23.7823 18.5151L16.8128 22.1224L16.8136 26.4001H16.0126Z" fill="white"/>
</g>
<defs>
<clipPath id="clip0_854_27750">
<rect width="32" height="32" fill="white"/>
</clipPath>
</defs>
</svg>
