<svg width="32" height="32" viewBox="0 0 32 32" fill="none" xmlns="http://www.w3.org/2000/svg">
<g clip-path="url(#clip0_854_27718)">
<path d="M32 0H0V32H32V0Z" fill="#ED7100"/>
<path fill-rule="evenodd" clip-rule="evenodd" d="M24.8 13.8473L22.8 12.8473L20.8 13.8473V16.5529L22.8 17.5529L24.8 16.5529V13.8473ZM18.4 9.8473L16.4 8.8473L14.4 9.8473V12.5529L16.4 13.5529L18.4 12.5529V9.8473ZM12 13.8473L9.99995 12.8473L7.99995 13.8473V16.5529L9.99995 17.5529L12 16.5529V13.8473ZM25.6 13.6001V16.8001C25.6 16.9513 25.5144 17.0897 25.3792 17.1577L22.9792 18.3577C22.9224 18.3857 22.8608 18.4001 22.8 18.4001C22.7392 18.4001 22.6776 18.3857 22.6208 18.3577L20.2208 17.1577C20.0856 17.0897 20 16.9513 20 16.8001V13.8473L18.8 13.2473L16.5792 14.3577C16.4664 14.4137 16.3336 14.4137 16.2208 14.3577L14 13.2473L12.8 13.8473V16.8001C12.8 16.9513 12.7144 17.0897 12.5792 17.1577L10.1792 18.3577C10.0664 18.4137 9.93355 18.4137 9.82075 18.3577L7.42075 17.1577C7.28555 17.0897 7.19995 16.9513 7.19995 16.8001V13.6001C7.19995 13.4481 7.28555 13.3105 7.42075 13.2425L9.82075 12.0425C9.93355 11.9857 10.0664 11.9857 10.1792 12.0425L12.4 13.1529L13.6 12.5529V9.6001C13.6 9.4481 13.6856 9.3105 13.8208 9.2425L16.2208 8.0425C16.3336 7.9857 16.4664 7.9857 16.5792 8.0425L18.9792 9.2425C19.1144 9.3105 19.2 9.4481 19.2 9.6001V12.5529L20.4 13.1529L22.6208 12.0425C22.7336 11.9857 22.8664 11.9857 22.9792 12.0425L25.3792 13.2425C25.5144 13.3105 25.6 13.4481 25.6 13.6001ZM14.6056 22.8569L14.1944 23.5433L16.1944 24.7433C16.2576 24.7809 16.3288 24.8001 16.4 24.8001C16.4712 24.8001 16.5424 24.7809 16.6056 24.7433L18.6056 23.5433L18.1944 22.8569L16.8 23.6937V17.1065L18.1944 17.9433L18.6056 17.2569L16.6056 16.0569C16.4792 15.9809 16.3208 15.9809 16.1944 16.0569L14.1944 17.2569L14.6056 17.9433L16 17.1065V23.6937L14.6056 22.8569ZM9.98475 10.0889L11.36 11.1201C11.4808 11.2113 11.6448 11.2257 11.7792 11.1577C11.9144 11.0897 12 10.9513 12 10.8001V8.6473L16.396 6.4473L20.8168 8.6473V10.8001C20.8168 10.9521 20.9024 11.0905 21.0384 11.1585C21.1736 11.2265 21.3376 11.2105 21.4576 11.1185L22.8168 10.0897L24.9808 11.5137L25.4192 10.8457L23.0192 9.2657C22.88 9.1729 22.6944 9.1793 22.5584 9.2809L21.6168 9.9953V8.4001C21.6168 8.2481 21.5304 8.1097 21.3944 8.0417L16.5736 5.6417C16.46 5.5857 16.328 5.5865 16.2168 5.6425L11.4208 8.0425C11.2848 8.1105 11.2 8.2481 11.2 8.4001V10.0001L10.24 9.2801C10.104 9.1785 9.91995 9.1737 9.78075 9.2657L7.38075 10.8457L7.81915 11.5137L9.98475 10.0889ZM25.2 21.5673C25.2024 21.7081 25.1304 21.8393 25.0112 21.9137L16.6112 27.1393C16.5472 27.1801 16.4736 27.2001 16.4 27.2001C16.3264 27.2001 16.2528 27.1801 16.1888 27.1401L7.77995 21.9137C7.65995 21.8393 7.58795 21.7073 7.59029 21.5665C7.59275 21.4265 7.66955 21.2969 7.79115 21.2273L12.6104 18.4529L13.0088 19.1473L8.76955 21.5865L16.4 26.3289L24.0224 21.5865L19.8 19.1465L20.2 18.4537L25 21.2273C25.1216 21.2977 25.1976 21.4273 25.2 21.5673Z" fill="white"/>
</g>
<defs>
<clipPath id="clip0_854_27718">
<rect width="32" height="32" fill="white"/>
</clipPath>
</defs>
</svg>
