<svg width="32" height="32" viewBox="0 0 32 32" fill="none" xmlns="http://www.w3.org/2000/svg">
<g clip-path="url(#clip0_854_27770)">
<path d="M32 0H0V32H32V0Z" fill="#ED7100"/>
<path fill-rule="evenodd" clip-rule="evenodd" d="M11.1637 19.5153V17.2097L13.1664 16.2097L15.1691 17.2097V19.5153L13.1664 20.5153L11.1637 19.5153ZM21.5946 17.2097V19.5153L19.5919 20.5153L17.5892 19.5153V17.2097L19.5919 16.2097L21.5946 17.2097ZM24.7989 20.7465L22.3956 19.5177V16.9625C22.3956 16.8113 22.3091 16.6729 22.1737 16.6049L19.7705 15.4049C19.6583 15.3489 19.5254 15.3489 19.4124 15.4049L17.0092 16.6049C16.8738 16.6729 16.7881 16.8113 16.7881 16.9625V19.7625C16.7881 19.9145 16.8738 20.0521 17.0092 20.1201L19.4124 21.3201C19.5254 21.3769 19.6583 21.3769 19.7705 21.3201L21.9927 20.2113L24.3815 21.4321L16.7881 26.0857V22.0001H15.987V26.0841L8.41279 21.4305L10.7664 20.2113L12.987 21.3201C13.0438 21.3489 13.1055 21.3625 13.1664 21.3625C13.2273 21.3625 13.289 21.3489 13.3458 21.3201L15.7491 20.1201C15.8845 20.0521 15.9702 19.9145 15.9702 19.7625V16.9625C15.9702 16.8113 15.8845 16.6729 15.7491 16.6049L13.3458 15.4049C13.2329 15.3489 13.0999 15.3489 12.987 15.4049L10.5837 16.6049C10.4483 16.6729 10.3626 16.8113 10.3626 16.9625V19.5193L8.00103 20.7425V11.5505L10.957 13.5321L11.4032 12.8681L8.37113 10.8353L15.987 6.6753V9.7217L13.8049 10.8113C13.6695 10.8793 13.5838 11.0177 13.5838 11.1689V13.9689C13.5838 14.1201 13.6687 14.2585 13.8041 14.3265L16.2073 15.5353C16.3202 15.5929 16.454 15.5929 16.567 15.5353L18.9702 14.3265C19.1056 14.2585 19.1913 14.1201 19.1913 13.9689V11.1689C19.1913 11.0177 19.1048 10.8793 18.9694 10.8113L16.7881 9.7217V6.6745L24.3631 10.8001L20.6012 12.8489L20.9849 13.5513L24.7989 11.4745V20.7465ZM16.3875 10.4161L18.3902 11.4161V13.7225L16.3875 14.7305L14.3848 13.7225V11.4161L16.3875 10.4161ZM25.3909 10.4489L16.579 5.6489C16.4588 5.5833 16.3146 5.5841 16.1945 5.6497L7.40823 10.4497C7.27926 10.5193 7.19995 10.6545 7.19995 10.8001V21.4001C7.19995 21.5393 7.27205 21.6681 7.39061 21.7409L16.1777 27.1409C16.2417 27.1809 16.3146 27.2001 16.3875 27.2001C16.4596 27.2001 16.5325 27.1809 16.5966 27.1417L25.4085 21.7417C25.5279 21.6689 25.6 21.5393 25.6 21.4001V10.8001C25.6 10.6537 25.5198 10.5193 25.3909 10.4489Z" fill="white"/>
</g>
<defs>
<clipPath id="clip0_854_27770">
<rect width="32" height="32" fill="white"/>
</clipPath>
</defs>
</svg>
