<svg width="32" height="32" viewBox="0 0 32 32" fill="none" xmlns="http://www.w3.org/2000/svg">
<g clip-path="url(#clip0_854_27734)">
<path d="M32 0H0V32H32V0Z" fill="#ED7100"/>
<path fill-rule="evenodd" clip-rule="evenodd" d="M11.9999 21.3451L9.9999 22.3943L7.9999 21.3451V18.633L9.9999 17.6327L11.9999 18.633V21.3451ZM12.7999 21.5868V18.3858C12.7999 18.2345 12.7143 18.0961 12.5791 18.028L10.1791 16.8277C10.0663 16.7716 9.9335 16.7716 9.8207 16.8277L7.4207 18.028C7.2855 18.0961 7.1999 18.2345 7.1999 18.3858V21.5868C7.1999 21.7356 7.2831 21.8725 7.4143 21.9413L9.8143 23.2001C9.8727 23.2305 9.9359 23.2457 9.9999 23.2457C10.0639 23.2457 10.1271 23.2305 10.1855 23.2001L12.5855 21.9413C12.7167 21.8725 12.7999 21.7356 12.7999 21.5868ZM20.7999 23.4234V19.0164L24.7999 16.682V21.1787L20.7999 23.4234ZM15.9999 21.554L19.7295 24.0236L15.9999 26.1163V21.554ZM11.9999 13.2193V8.65702L15.1671 10.3848L15.1663 13.5842H15.9663L15.9671 10.8209L19.9999 13.0216V18.0072L18.7663 17.123L18.3007 17.7728L19.9999 18.9916V23.2433L15.9999 20.5937V15.985C15.9999 15.8481 15.9303 15.7209 15.8151 15.6473L11.9999 13.2193ZM11.1999 8.25609V12.7095L7.5655 10.3968L11.1999 8.25609ZM15.6087 5.65926L19.7151 7.87597L15.8023 9.8198L12.0351 7.76393L15.6087 5.65926ZM20.7999 13.0312L24.7999 11.0306V15.7553L20.7999 18.0897V13.0312ZM20.4079 12.3326L16.6591 10.2879L20.5767 8.34172L24.3327 10.3696L20.4079 12.3326ZM25.3895 10.0311L15.7895 4.84779C15.6663 4.78137 15.5167 4.78377 15.3967 4.8558L6.5967 10.0391C6.4775 10.1087 6.4023 10.2375 6.3999 10.376C6.3999 10.3784 6.4015 10.3808 6.4015 10.3832H6.3999V15.985H7.1999V11.1122L15.1999 16.2051V26.049L12.2223 24.0508L11.7775 24.715L15.3775 27.1318L15.3807 27.1278C15.3871 27.1318 15.3903 27.1406 15.3975 27.1454C15.4599 27.1814 15.5303 27.1998 15.5999 27.1998C15.6671 27.1998 15.7351 27.1822 15.7951 27.1486L25.3951 21.7621C25.5215 21.6916 25.5999 21.558 25.5999 21.4131V10.3832C25.5999 10.2367 25.5191 10.1015 25.3895 10.0311Z" fill="white"/>
</g>
<defs>
<clipPath id="clip0_854_27734">
<rect width="32" height="32" fill="white"/>
</clipPath>
</defs>
</svg>
