<svg width="32" height="32" viewBox="0 0 32 32" fill="none" xmlns="http://www.w3.org/2000/svg">
<g clip-path="url(#clip0_854_27796)">
<path d="M32 0H0V32H32V0Z" fill="#ED7100"/>
<path fill-rule="evenodd" clip-rule="evenodd" d="M21.5992 12.2316L16.3992 9.26013L11.1992 12.2316V18.5816L16.3992 21.9251L21.5992 18.5816V12.2316ZM25.6 10.4002V13.2004H24.8V11.0475L22.3992 12.2468V18.8C22.3992 18.9361 22.3296 19.0633 22.216 19.1361L16.8 22.6179V25.3197L19.0056 24.0932L19.3944 24.7925L16.5944 26.3494C16.5336 26.383 16.4672 26.3998 16.4 26.3998C16.3328 26.3998 16.2664 26.383 16.2056 26.3494L13.4056 24.7917L13.7944 24.0924L16 25.3197V22.6187L10.5824 19.1361C10.4688 19.0633 10.3992 18.9361 10.3992 18.8V12.2468L7.99995 11.0467V13.2004H7.19995V10.4002C7.19995 10.257 7.27675 10.1242 7.40155 10.053L10.2016 8.45127L10.5984 9.14653L8.44795 10.3762L10.7864 11.5459L16.2008 8.45208C16.324 8.38167 16.4744 8.38167 16.5976 8.45208L22.012 11.5459L24.3528 10.377L22.2016 9.14653L22.5984 8.45127L25.3984 10.053C25.5232 10.1242 25.6 10.257 25.6 10.4002ZM14.3952 13.8957V16.5759L16.4032 17.5552L18.4232 16.5759V13.8965L16.4032 12.8516L14.3952 13.8957ZM16.2176 12.0459C16.3336 11.9859 16.4704 11.9859 16.5856 12.0451L18.8264 13.2036L20.2448 12.4948L20.6024 13.21L19.2232 13.8997V16.8263C19.2232 16.9791 19.136 17.1191 18.9976 17.1855L16.8 18.252V20.4002H16V18.2488L13.82 17.1855C13.6824 17.1183 13.5952 16.9791 13.5952 16.8263V13.8997L12.216 13.21L12.5744 12.4948L13.9912 13.2036L16.2176 12.0459ZM16.3992 5.65827L19.0056 7.10718L19.3944 6.40792L16.5936 4.85021C16.472 4.783 16.3264 4.783 16.2048 4.85021L13.4048 6.40792L13.7936 7.10718L16.3992 5.65827ZM7.99995 18H7.19995V20.7994C7.19995 20.9426 7.27675 21.0754 7.40155 21.1466L10.2016 22.7483L10.5984 22.0539L7.99995 20.5674V18ZM24.8 18H25.6V20.801C25.6 20.9442 25.5232 21.077 25.3984 21.1482L22.5984 22.7483L22.2016 22.0539L24.8 20.569V18Z" fill="white"/>
</g>
<defs>
<clipPath id="clip0_854_27796">
<rect width="32" height="32" fill="white"/>
</clipPath>
</defs>
</svg>
