<svg width="32" height="32" viewBox="0 0 32 32" fill="none" xmlns="http://www.w3.org/2000/svg">
<g clip-path="url(#clip0_850_21552)">
<path d="M32 0H0V32H32V0Z" fill="url(#paint0_linear_850_21552)"/>
<path d="M25.4337 11.7333H25.3825V25.3867H6.60919V23.6245H6.55799C6.28341 23.6195 6.01187 23.5661 5.75586 23.4667V25.8133C5.75586 25.9265 5.80081 26.035 5.88083 26.115C5.96084 26.1951 6.06937 26.24 6.18253 26.24H25.8092C25.9224 26.24 26.0309 26.1951 26.1109 26.115C26.1909 26.035 26.2359 25.9265 26.2359 25.8133V11.5883C25.9796 11.6852 25.7077 11.7344 25.4337 11.7333V11.7333ZM25.8092 5.76001H6.18253C6.06937 5.76001 5.96084 5.80496 5.88083 5.88498C5.80081 5.96499 5.75586 6.07352 5.75586 6.18668V19.2C6.01214 19.1031 6.284 19.0539 6.55799 19.0549H6.60919V6.61334H25.3825V7.14241H25.4337C25.7079 7.13876 25.9803 7.18801 26.2359 7.28748V6.18668C26.2359 6.07352 26.1909 5.96499 26.1109 5.88498C26.0309 5.80496 25.9224 5.76001 25.8092 5.76001Z" fill="white"/>
<path d="M25.4337 7.7782C24.9935 7.7782 24.5713 7.95306 24.2601 8.26432C23.9488 8.57558 23.7739 8.99774 23.7739 9.43793C23.7694 9.69339 23.8296 9.94585 23.9489 10.1718L16.8107 17.4251C16.688 17.3606 16.5575 17.3118 16.4225 17.2801V13.9094C16.7211 13.8297 16.9914 13.6681 17.2029 13.4428C17.4144 13.2174 17.5586 12.9374 17.6192 12.6343C17.6797 12.3313 17.6543 12.0173 17.5456 11.728C17.437 11.4386 17.2496 11.1855 17.0045 10.9972C16.7595 10.8089 16.4666 10.6929 16.1591 10.6625C15.8515 10.632 15.5416 10.6882 15.2643 10.8248C14.9871 10.9613 14.7536 11.1727 14.5903 11.4351C14.427 11.6975 14.3404 12.0004 14.3403 12.3094C14.3392 12.4928 14.371 12.6749 14.4342 12.847L7.34301 19.8742C7.02367 19.7034 6.65713 19.642 6.29956 19.6995C5.942 19.7569 5.61314 19.93 5.36339 20.1923C5.11364 20.4546 4.95677 20.7915 4.91684 21.1514C4.8769 21.5114 4.9561 21.8745 5.14229 22.1851C5.32848 22.4957 5.61139 22.7367 5.94767 22.8711C6.28394 23.0056 6.65502 23.026 7.00404 22.9294C7.35305 22.8327 7.66074 22.6243 7.87995 22.336C8.09916 22.0477 8.2178 21.6955 8.21767 21.3334C8.2143 21.0311 8.12716 20.7358 7.96594 20.4801L14.9334 13.5851C15.121 13.7429 15.3432 13.854 15.5819 13.9094V17.2801C15.2479 17.3702 14.9507 17.563 14.7322 17.8312C14.5136 18.0994 14.3849 18.4295 14.3641 18.7748C14.3433 19.1202 14.4314 19.4633 14.6161 19.7558C14.8009 20.0484 15.0728 20.2755 15.3936 20.4051C15.7143 20.5347 16.0677 20.5603 16.4038 20.4783C16.7399 20.3963 17.0417 20.2108 17.2667 19.948C17.4916 19.6851 17.6284 19.3583 17.6576 19.0136C17.6868 18.6688 17.607 18.3236 17.4294 18.0267L24.5419 10.8161C24.7572 10.9579 25.0026 11.0475 25.2586 11.0777C25.5146 11.1079 25.7741 11.078 26.0165 10.9902C26.2588 10.9024 26.4773 10.7592 26.6546 10.5721C26.8319 10.3849 26.963 10.159 27.0375 9.91221C27.112 9.66544 27.1279 9.40468 27.0838 9.1507C27.0398 8.89672 26.937 8.65654 26.7837 8.44929C26.6304 8.24204 26.4309 8.07344 26.201 7.95693C25.971 7.84042 25.717 7.77922 25.4593 7.7782H25.4337ZM6.55794 22.1355C6.39948 22.1347 6.24482 22.0869 6.11347 21.9983C5.98212 21.9096 5.87997 21.7841 5.81991 21.6374C5.75986 21.4908 5.74458 21.3296 5.77601 21.1743C5.80744 21.019 5.88417 20.8765 5.99652 20.7647C6.10887 20.653 6.2518 20.577 6.40728 20.5464C6.56276 20.5158 6.72383 20.5319 6.87015 20.5927C7.01647 20.6536 7.14149 20.7564 7.22945 20.8882C7.3174 21.02 7.36434 21.1749 7.36434 21.3334C7.36434 21.4391 7.34345 21.5438 7.30288 21.6414C7.2623 21.7389 7.20283 21.8276 7.12789 21.9021C7.05296 21.9766 6.96403 22.0356 6.86621 22.0757C6.7684 22.1158 6.66364 22.1361 6.55794 22.1355V22.1355ZM15.1937 12.3222C15.1912 12.1636 15.2357 12.0078 15.3218 11.8745C15.4078 11.7412 15.5314 11.6364 15.677 11.5734C15.8226 11.5104 15.9836 11.4919 16.1396 11.5204C16.2957 11.5489 16.4398 11.623 16.5538 11.7333C16.6677 11.8437 16.7464 11.9854 16.7798 12.1405C16.8133 12.2955 16.8 12.457 16.7416 12.6046C16.6832 12.7521 16.5825 12.879 16.452 12.9692C16.3215 13.0595 16.1672 13.109 16.0086 13.1115V13.1115C15.7959 13.1115 15.5918 13.027 15.4414 12.8766C15.291 12.7262 15.2065 12.5221 15.2065 12.3094L15.1937 12.3222ZM15.9958 19.6779C15.8363 19.6788 15.6802 19.6323 15.5471 19.5444C15.414 19.4565 15.31 19.3311 15.2482 19.1841C15.1864 19.037 15.1695 18.875 15.1998 18.7184C15.2301 18.5618 15.3062 18.4177 15.4183 18.3044C15.5305 18.191 15.6738 18.1134 15.83 18.0815C15.9863 18.0495 16.1485 18.0646 16.2962 18.1249C16.4439 18.1852 16.5704 18.2878 16.6597 18.42C16.749 18.5521 16.7971 18.7078 16.7979 18.8673V18.8673C16.7985 18.9732 16.7782 19.0781 16.7382 19.1762C16.6982 19.2742 16.6393 19.3635 16.5648 19.4387C16.4903 19.514 16.4017 19.5739 16.3041 19.6149C16.2065 19.656 16.1017 19.6774 15.9958 19.6779V19.6779ZM25.4337 10.2401C25.2742 10.2409 25.118 10.1944 24.985 10.1065C24.8519 10.0186 24.7479 9.89323 24.686 9.7462C24.6242 9.59918 24.6074 9.43713 24.6377 9.28054C24.668 9.12395 24.744 8.97986 24.8562 8.86649C24.9684 8.75312 25.1117 8.67556 25.2679 8.64361C25.4242 8.61167 25.5864 8.62678 25.7341 8.68704C25.8817 8.74729 26.0082 8.84998 26.0975 8.98212C26.1868 9.11426 26.235 9.26991 26.2358 9.4294V9.4294C26.2358 9.64293 26.1516 9.84784 26.0014 9.99963C25.8512 10.1514 25.6472 10.2378 25.4337 10.2401V10.2401Z" fill="white"/>
</g>
<defs>
<linearGradient id="paint0_linear_850_21552" x1="-6.62613" y1="38.6261" x2="38.6261" y2="-6.62613" gradientUnits="userSpaceOnUse">
<stop stop-color="#4D27A8"/>
<stop offset="1" stop-color="#A166FF"/>
</linearGradient>
<clipPath id="clip0_850_21552">
<rect width="32" height="32" fill="white"/>
</clipPath>
</defs>
</svg>
