<svg width="32" height="32" viewBox="0 0 32 32" fill="none" xmlns="http://www.w3.org/2000/svg">
<g clip-path="url(#clip0_850_21544)">
<path d="M32 0H0V32H32V0Z" fill="url(#paint0_linear_850_21544)"/>
<path d="M9.59992 11.6267H5.75992C5.64676 11.6267 5.53824 11.6717 5.45822 11.7517C5.3782 11.8317 5.33325 11.9402 5.33325 12.0534V25.7067C5.33325 25.8199 5.3782 25.9284 5.45822 26.0084C5.53824 26.0884 5.64676 26.1334 5.75992 26.1334H9.59992C9.71308 26.1334 9.8216 26.0884 9.90162 26.0084C9.98163 25.9284 10.0266 25.8199 10.0266 25.7067V12.0534C10.0266 11.9402 9.98163 11.8317 9.90162 11.7517C9.8216 11.6717 9.71308 11.6267 9.59992 11.6267ZM9.17325 25.28H6.18659V12.48H9.17325V25.28Z" fill="white"/>
<path d="M15.5732 23.3259V25.7067C15.5732 25.8198 15.5283 25.9284 15.4482 26.0084C15.3682 26.0884 15.2597 26.1333 15.1465 26.1333H11.3065C11.1934 26.1333 11.0849 26.0884 11.0049 26.0084C10.9248 25.9284 10.8799 25.8198 10.8799 25.7067V18.3467C11.0186 19.1397 11.3083 19.8987 11.7332 20.5824V25.2757H14.7199V23.04C14.9965 23.1573 15.2818 23.2529 15.5732 23.3259V23.3259Z" fill="white"/>
<path d="M15.5732 9.49332V11.0037C15.2813 11.0822 14.996 11.1835 14.7199 11.3067V9.91998H11.7332V13.76C11.3083 14.4437 11.0186 15.2027 10.8799 15.9957V9.49332C10.8799 9.38016 10.9248 9.27163 11.0049 9.19162C11.0849 9.1116 11.1934 9.06665 11.3065 9.06665H15.1465C15.2597 9.06665 15.3682 9.1116 15.4482 9.19162C15.5283 9.27163 15.5732 9.38016 15.5732 9.49332Z" fill="white"/>
<path d="M20.2665 23.6672V25.28H17.2798V23.5733C16.9945 23.5743 16.7094 23.5557 16.4265 23.5179V25.7067C16.4265 25.8198 16.4715 25.9283 16.5515 26.0084C16.6315 26.0884 16.74 26.1333 16.8532 26.1333H20.6932C20.8063 26.1333 20.9149 26.0884 20.9949 26.0084C21.0749 25.9283 21.1198 25.8198 21.1198 25.7067V24.5205L20.2665 23.6672ZM20.6932 5.65332H16.8532C16.74 5.65332 16.6315 5.69827 16.5515 5.77829C16.4715 5.8583 16.4265 5.96683 16.4265 6.07999V10.8288C16.7093 10.7905 16.9945 10.772 17.2798 10.7733V10.7733V6.50665H20.2665V11.52C20.5655 11.6783 20.8509 11.861 21.1198 12.0661V6.09279C21.1216 6.03569 21.1118 5.97883 21.0911 5.92557C21.0704 5.87232 21.0393 5.82376 20.9995 5.78278C20.9597 5.74179 20.9121 5.70922 20.8595 5.68698C20.8069 5.66474 20.7503 5.65329 20.6932 5.65332Z" fill="white"/>
<path d="M26.2398 7.78662H22.3998C22.2867 7.78662 22.1781 7.83157 22.0981 7.91159C22.0181 7.9916 21.9731 8.10013 21.9731 8.21329V12.8384C22.3021 13.1935 22.5885 13.5859 22.8265 14.0074V8.63995H25.8131V21.76L26.6665 22.6133V8.21329C26.6665 8.10013 26.6215 7.9916 26.5415 7.91159C26.4615 7.83157 26.353 7.78662 26.2398 7.78662Z" fill="white"/>
<path d="M26.1503 23.3174L22.3103 19.4774C22.8586 18.2827 22.9649 16.9321 22.6102 15.6664C22.2554 14.4007 21.4627 13.3021 20.3732 12.5665C19.2838 11.8309 17.9686 11.5061 16.662 11.6501C15.3554 11.794 14.1424 12.3973 13.2392 13.3524C12.3361 14.3075 11.8014 15.5523 11.7307 16.8649C11.66 18.1775 12.0577 19.4725 12.853 20.5191C13.6482 21.5658 14.7894 22.2959 16.0729 22.5795C17.3565 22.863 18.699 22.6815 19.8612 22.0672L23.6372 25.839C23.9699 26.1722 24.4213 26.3597 24.8922 26.3601C25.3631 26.3605 25.8149 26.1738 26.1481 25.8411C26.4814 25.5084 26.6688 25.057 26.6692 24.5861C26.6696 24.1152 26.4829 23.6634 26.1503 23.3302V23.3174ZM12.5865 17.1648C12.5865 16.2366 12.8618 15.3292 13.3775 14.5574C13.8932 13.7855 14.6262 13.184 15.4838 12.8288C16.3414 12.4735 17.2851 12.3806 18.1955 12.5617C19.1059 12.7428 19.9422 13.1898 20.5985 13.8461C21.2549 14.5025 21.7019 15.3388 21.883 16.2492C22.0641 17.1596 21.9712 18.1033 21.6159 18.9609C21.2607 19.8185 20.6591 20.5515 19.8873 21.0672C19.1155 21.5829 18.2081 21.8582 17.2799 21.8582C16.0351 21.8582 14.8413 21.3637 13.9612 20.4835C13.081 19.6033 12.5865 18.4096 12.5865 17.1648ZM25.5444 25.2246C25.3709 25.397 25.1362 25.4939 24.8916 25.4939C24.647 25.4939 24.4123 25.397 24.2388 25.2246L20.6036 21.5894C21.1023 21.2126 21.5349 20.7555 21.8836 20.2368L25.5529 23.9232C25.724 24.0971 25.8192 24.3317 25.8176 24.5757C25.816 24.8196 25.7178 25.0529 25.5444 25.2246V25.2246Z" fill="white"/>
<path d="M15.3898 19.2C15.0923 18.9872 14.8401 18.7172 14.648 18.4059C14.4559 18.0946 14.3277 17.7482 14.2708 17.3868C14.2139 17.0255 14.2296 16.6564 14.3168 16.3012C14.404 15.9459 14.5611 15.6116 14.7789 15.3177C14.9966 15.0237 15.2707 14.7761 15.5852 14.5892C15.8996 14.4022 16.2481 14.2798 16.6103 14.2289C16.9726 14.1781 17.3414 14.1998 17.6951 14.2929C18.0489 14.386 18.3805 14.5486 18.6708 14.7712L18.1631 15.4582C17.9622 15.3094 17.734 15.2017 17.4915 15.1411C17.249 15.0805 16.9969 15.0683 16.7497 15.1052C16.5025 15.142 16.2649 15.2272 16.0506 15.3558C15.8363 15.4845 15.6495 15.6541 15.5007 15.855C15.3519 16.0558 15.2442 16.284 15.1836 16.5265C15.1231 16.769 15.1108 17.0211 15.1477 17.2683C15.1845 17.5156 15.2697 17.7531 15.3984 17.9674C15.527 18.1817 15.6966 18.3686 15.8975 18.5174L15.3898 19.2Z" fill="white"/>
</g>
<defs>
<linearGradient id="paint0_linear_850_21544" x1="-6.62613" y1="38.6261" x2="38.6304" y2="-6.6304" gradientUnits="userSpaceOnUse">
<stop stop-color="#4D27A8"/>
<stop offset="1" stop-color="#A166FF"/>
</linearGradient>
<clipPath id="clip0_850_21544">
<rect width="32" height="32" fill="white"/>
</clipPath>
</defs>
</svg>
