<svg width="32" height="32" viewBox="0 0 32 32" fill="none" xmlns="http://www.w3.org/2000/svg">
<g clip-path="url(#clip0_850_21550)">
<path d="M32 0H0V32H32V0Z" fill="url(#paint0_linear_850_21550)"/>
<path d="M26.6796 13.8667V14.72H22.9164C13.0647 14.72 5.3463 10.8374 5.3463 5.87097C5.34491 5.69119 5.35632 5.51154 5.38044 5.33337H6.23377C6.20472 5.51109 6.19045 5.6909 6.19111 5.87097C6.19111 10.2784 13.6919 13.8667 22.9164 13.8667H26.6796Z" fill="white"/>
<path d="M26.6794 15.5734V16.4267H21.457C13.1071 16.4267 7.10393 17.7792 5.34606 20.0491V18.9056C7.2106 17.2758 10.6666 16.431 14.0415 16C10.6581 15.5734 7.21486 14.72 5.3418 13.1286V11.8827C7.07833 14.1611 12.9663 15.5307 21.1711 15.5734H26.6794Z" fill="white"/>
<path d="M26.6796 12.1558V13.0091H24.9132C16.3457 13.0091 10.1292 10.1078 10.1292 6.1099C10.1292 6.1099 10.1292 5.61923 10.1292 5.3291H11.0294C11.0294 5.5339 11.0294 5.9563 11.0294 6.1099C11.0294 9.52323 17.0028 12.1558 24.9174 12.1558H26.6796Z" fill="white"/>
<path d="M26.6795 17.28V18.1334H22.9163C13.6875 18.1334 6.18245 21.7344 6.18245 26.1419C6.18235 26.3175 6.19518 26.4929 6.22085 26.6667H5.36752C5.34327 26.4928 5.33187 26.3174 5.33339 26.1419C5.33339 21.1712 13.0603 17.28 22.9249 17.28H26.6795Z" fill="white"/>
<path d="M26.6796 18.9867V19.84H24.9132C16.9857 19.84 11.0081 22.4 11.0081 25.8432C11.0081 26.0096 11.0081 26.4918 11.0081 26.6667H10.1548C10.1548 26.3851 10.1548 25.8518 10.1548 25.8432C10.1548 21.8667 16.3671 18.9867 24.9217 18.9867H26.6796Z" fill="white"/>
</g>
<defs>
<linearGradient id="paint0_linear_850_21550" x1="-6.62613" y1="38.6261" x2="38.6261" y2="-6.62613" gradientUnits="userSpaceOnUse">
<stop stop-color="#4D27A8"/>
<stop offset="1" stop-color="#A166FF"/>
</linearGradient>
<clipPath id="clip0_850_21550">
<rect width="32" height="32" fill="white"/>
</clipPath>
</defs>
</svg>
