<svg width="32" height="32" viewBox="0 0 32 32" fill="none" xmlns="http://www.w3.org/2000/svg">
<g clip-path="url(#clip0_850_21551)">
<path d="M32 0H0V32H32V0Z" fill="url(#paint0_linear_850_21551)"/>
<path d="M14.3401 14.7115V10.8672H15.1166V12.5781L16.1662 10.8672H17.0238L15.8078 12.6677L17.1262 14.7115H16.2046L15.1166 12.8555V14.7115H14.3401Z" fill="white"/>
<path d="M21.73 14.2848C21.5169 14.2831 21.3054 14.3222 21.107 14.4L16.9172 8.0427C17.1041 7.78853 17.2169 7.48752 17.2431 7.17309C17.2693 6.85867 17.2078 6.54314 17.0654 6.26156C16.9231 5.97998 16.7055 5.74337 16.4368 5.57801C16.1681 5.41265 15.8588 5.32501 15.5433 5.32483C15.2271 5.32542 14.9172 5.41386 14.6483 5.58027C14.3794 5.74669 14.1621 5.98454 14.0205 6.26729C13.8789 6.55005 13.8186 6.86658 13.8464 7.18158C13.8742 7.49658 13.989 7.79766 14.178 8.05123L9.98382 14.4C9.78385 14.3226 9.57107 14.2835 9.35662 14.2848C9.03736 14.2846 8.72444 14.3739 8.45341 14.5426C8.18238 14.7114 7.9641 14.9527 7.82339 15.2393C7.68268 15.5259 7.62517 15.8462 7.6574 16.1638C7.68963 16.4814 7.81031 16.7836 8.00572 17.0361C8.20113 17.2886 8.46344 17.4812 8.76284 17.592C9.06224 17.7028 9.38673 17.7275 9.69943 17.6631C10.0121 17.5988 10.3005 17.448 10.5318 17.2279C10.7631 17.0078 10.928 16.7273 11.0078 16.4182H20.0788C20.1586 16.7273 20.3235 17.0078 20.5548 17.2279C20.7861 17.448 21.0744 17.5988 21.3871 17.6631C21.6999 17.7275 22.0243 17.7028 22.3237 17.592C22.6231 17.4812 22.8854 17.2886 23.0809 17.0361C23.2763 16.7836 23.3969 16.4814 23.4292 16.1638C23.4614 15.8462 23.4039 15.5259 23.2632 15.2393C23.1225 14.9527 22.9042 14.7114 22.6332 14.5426C22.3621 14.3739 22.0492 14.2846 21.73 14.2848ZM9.35662 16.8448C9.18785 16.8448 9.02287 16.7948 8.88254 16.701C8.74221 16.6073 8.63283 16.474 8.56825 16.3181C8.50366 16.1621 8.48676 15.9905 8.51969 15.825C8.55261 15.6595 8.63388 15.5074 8.75322 15.3881C8.87257 15.2688 9.02462 15.1875 9.19015 15.1546C9.35568 15.1216 9.52725 15.1385 9.68318 15.2031C9.83911 15.2677 9.97238 15.3771 10.0661 15.5174C10.1599 15.6577 10.21 15.8227 10.21 15.9915C10.21 16.2178 10.1201 16.4349 9.96002 16.5949C9.79999 16.7549 9.58294 16.8448 9.35662 16.8448ZM15.5433 6.17816C15.7121 6.17816 15.877 6.22821 16.0174 6.32198C16.1577 6.41574 16.2671 6.54901 16.3317 6.70494C16.3963 6.86087 16.4132 7.03244 16.3802 7.19797C16.3473 7.3635 16.266 7.51555 16.1467 7.63489C16.0273 7.75423 15.8753 7.83551 15.7098 7.86843C15.5442 7.90136 15.3727 7.88446 15.2167 7.81987C15.0608 7.75529 14.9275 7.64591 14.8338 7.50558C14.74 7.36525 14.69 7.20027 14.69 7.0315C14.69 6.80518 14.7799 6.58813 14.9399 6.4281C15.0999 6.26807 15.317 6.17816 15.5433 6.17816V6.17816ZM20.0788 15.5648H11.0078C10.9441 15.322 10.8275 15.0961 10.6665 14.9035L14.8478 8.58456C15.0658 8.68549 15.3031 8.73789 15.5433 8.73816C15.7882 8.739 16.0302 8.68506 16.2516 8.5803L20.4158 14.8992C20.2512 15.097 20.1356 15.3309 20.0788 15.5819V15.5648ZM21.73 16.8448C21.5612 16.8448 21.3962 16.7948 21.2559 16.701C21.1155 16.6073 21.0062 16.474 20.9416 16.3181C20.877 16.1621 20.8601 15.9905 20.893 15.825C20.9259 15.6595 21.0072 15.5074 21.1266 15.3881C21.2459 15.2688 21.3979 15.1875 21.5635 15.1546C21.729 15.1216 21.9006 15.1385 22.0565 15.2031C22.2124 15.2677 22.3457 15.3771 22.4395 15.5174C22.5332 15.6577 22.5833 15.8227 22.5833 15.9915C22.5833 16.2178 22.4934 16.4349 22.3334 16.5949C22.1733 16.7549 21.9563 16.8448 21.73 16.8448Z" fill="white"/>
<path d="M26.6581 22.3232L26.3637 22.5707C25.9016 22.9253 25.3354 23.1175 24.753 23.1175C24.1705 23.1175 23.6044 22.9253 23.1423 22.5707L22.5578 22.0757C21.935 21.5857 21.1657 21.3193 20.3733 21.3193C19.5809 21.3193 18.8115 21.5857 18.1887 22.0757L17.5999 22.5707C17.1379 22.9253 16.5717 23.1175 15.9893 23.1175C15.4068 23.1175 14.8406 22.9253 14.3786 22.5707L13.7941 22.0757C13.1713 21.5857 12.4019 21.3193 11.6095 21.3193C10.8171 21.3193 10.0477 21.5857 9.42499 22.0757L8.83618 22.5707C8.37414 22.9253 7.80797 23.1175 7.22552 23.1175C6.64306 23.1175 6.07689 22.9253 5.61485 22.5707L5.33325 22.336V23.4325C5.95338 23.8183 6.67688 24.0047 7.40623 23.9666C8.13557 23.9284 8.83569 23.6676 9.41219 23.2192L10.001 22.72C10.4621 22.365 11.0276 22.1725 11.6095 22.1725C12.1914 22.1725 12.757 22.365 13.2181 22.72L13.8026 23.2192C14.4272 23.7067 15.1969 23.9715 15.9893 23.9715C16.7816 23.9715 17.5513 23.7067 18.1759 23.2192L18.7733 22.72C19.2343 22.365 19.7999 22.1725 20.3818 22.1725C20.9637 22.1725 21.5292 22.365 21.9903 22.72L22.5791 23.2192C23.1916 23.7152 23.9585 23.9809 24.7466 23.9701C25.4245 23.9777 26.0895 23.7847 26.6581 23.4155V22.336V22.3232Z" fill="white"/>
<path d="M26.6581 25.0326L26.3637 25.2758C25.9016 25.6304 25.3354 25.8227 24.753 25.8227C24.1705 25.8227 23.6044 25.6304 23.1423 25.2758L22.5578 24.7809C21.9347 24.2916 21.1655 24.0256 20.3733 24.0256C19.581 24.0256 18.8118 24.2916 18.1887 24.7809L17.5999 25.2758C17.1379 25.6304 16.5717 25.8227 15.9893 25.8227C15.4068 25.8227 14.8406 25.6304 14.3786 25.2758L13.7941 24.7809C13.171 24.2916 12.4017 24.0256 11.6095 24.0256C10.8173 24.0256 10.048 24.2916 9.42499 24.7809L8.83618 25.2758C8.37414 25.6304 7.80797 25.8227 7.22552 25.8227C6.64306 25.8227 6.07689 25.6304 5.61485 25.2758L5.33325 25.0369V26.1334C5.95277 26.521 6.6766 26.7084 7.40638 26.6702C8.13615 26.6321 8.83647 26.3701 9.41219 25.9201L10.001 25.4294C10.4606 25.0709 11.0267 24.8763 11.6095 24.8763C12.1923 24.8763 12.7585 25.0709 13.2181 25.4294L13.8026 25.9201C14.4263 26.4097 15.1963 26.6758 15.9893 26.6758C16.7822 26.6758 17.5522 26.4097 18.1759 25.9201L18.7733 25.4294C19.2328 25.0709 19.799 24.8763 20.3818 24.8763C20.9646 24.8763 21.5307 25.0709 21.9903 25.4294L22.5791 25.9201C23.1912 26.4173 23.9581 26.6845 24.7466 26.6753C25.4241 26.6843 26.0891 26.4928 26.6581 26.1249V25.0369V25.0326Z" fill="white"/>
<path d="M26.6581 19.2725L26.3637 19.5157C25.9022 19.8718 25.3358 20.0648 24.753 20.0648C24.1702 20.0648 23.6038 19.8718 23.1423 19.5157L22.5578 19.0208C21.9338 18.5337 21.1649 18.269 20.3733 18.269C19.5816 18.269 18.8127 18.5337 18.1887 19.0208L17.5999 19.5157C17.1385 19.8718 16.5721 20.0648 15.9893 20.0648C15.4064 20.0648 14.84 19.8718 14.3786 19.5157L13.7941 19.0208C13.1701 18.5337 12.4011 18.269 11.6095 18.269C10.8179 18.269 10.049 18.5337 9.42499 19.0208L8.83618 19.5157C8.37474 19.8718 7.80834 20.0648 7.22552 20.0648C6.6427 20.0648 6.0763 19.8718 5.61485 19.5157L5.33325 19.2768V20.3733C5.95277 20.7609 6.6766 20.9484 7.40638 20.9102C8.13615 20.872 8.83647 20.6101 9.41219 20.16L10.001 19.6693C10.4612 19.3123 11.0271 19.1185 11.6095 19.1185C12.192 19.1185 12.7579 19.3123 13.2181 19.6693L13.8069 20.16C14.4299 20.6493 15.1992 20.9152 15.9914 20.9152C16.7836 20.9152 17.5529 20.6493 18.1759 20.16L18.7733 19.6693C19.2334 19.3123 19.7993 19.1185 20.3818 19.1185C20.9642 19.1185 21.5301 19.3123 21.9903 19.6693L22.5791 20.16C23.1924 20.6542 23.9591 20.9183 24.7466 20.9067C25.4241 20.9158 26.0891 20.7243 26.6581 20.3563V19.2768V19.2725Z" fill="white"/>
</g>
<defs>
<linearGradient id="paint0_linear_850_21551" x1="-6.62613" y1="38.6261" x2="38.6261" y2="-6.62613" gradientUnits="userSpaceOnUse">
<stop stop-color="#4D27A8"/>
<stop offset="1" stop-color="#A166FF"/>
</linearGradient>
<clipPath id="clip0_850_21551">
<rect width="32" height="32" fill="white"/>
</clipPath>
</defs>
</svg>
