<svg width="32" height="32" viewBox="0 0 32 32" fill="none" xmlns="http://www.w3.org/2000/svg">
<g clip-path="url(#clip0_850_21549)">
<path d="M32 0H0V32H32V0Z" fill="url(#paint0_linear_850_21549)"/>
<path d="M6.17817 5.87097C6.17751 5.6909 6.19179 5.51109 6.22083 5.33337H5.3675C5.34338 5.51154 5.33197 5.69119 5.33337 5.87097C5.33337 10.8374 13.0518 14.7243 22.9035 14.72H26.6667V13.8667H22.9035C13.6832 13.8667 6.17817 10.2784 6.17817 5.87097Z" fill="white"/>
<path d="M5.33325 11.8827V13.1243C7.19779 14.7328 10.6495 15.5691 14.033 15.9958C10.6495 16.4224 7.20632 17.2758 5.33752 18.9014V20.0534C6.50232 18.5515 9.53165 17.4464 13.8709 16.8747H13.9519C16.4391 16.5726 18.9431 16.4301 21.4485 16.448H26.6666V15.5947H21.4442C13.0943 15.5606 7.09112 14.1867 5.33325 11.8827Z" fill="white"/>
<path d="M24.9046 12.16C16.9857 12.16 11.0166 9.54457 11.0166 6.11417C11.0166 5.96057 11.0166 5.53817 11.0166 5.33337H10.1292C10.1292 5.62351 10.1292 6.10564 10.1292 6.11417C10.1292 10.112 16.3457 13.0134 24.9089 13.0134H26.6668V12.16H24.9046Z" fill="white"/>
<path d="M5.33339 26.1419C5.33187 26.3174 5.34327 26.4928 5.36752 26.6667H6.22085C6.19518 26.4929 6.18235 26.3175 6.18245 26.1419C6.18245 23.3216 9.25445 20.8384 13.8625 19.4133V18.5173C8.71685 20.0533 5.33339 22.8565 5.33339 26.1419Z" fill="white"/>
<path d="M10.1418 25.8432C10.1418 25.8432 10.1418 26.3851 10.1418 26.6667H10.9952C10.9952 26.4918 10.9952 26.0096 10.9952 25.8432C10.9952 24.4054 12.0533 23.1126 13.8666 22.1014V21.1456C11.52 22.3446 10.1418 23.9744 10.1418 25.8432Z" fill="white"/>
<path d="M24.9514 17.28H16.4181C15.9655 17.28 15.5314 17.4598 15.2113 17.7799C14.8912 18.1 14.7114 18.5341 14.7114 18.9867V24.96C14.7114 25.4127 14.8912 25.8468 15.2113 26.1668C15.5314 26.4869 15.9655 26.6667 16.4181 26.6667H24.9514C25.4041 26.6667 25.8382 26.4869 26.1582 26.1668C26.4783 25.8468 26.6581 25.4127 26.6581 24.96V18.9867C26.6581 18.5341 26.4783 18.1 26.1582 17.7799C25.8382 17.4598 25.4041 17.28 24.9514 17.28ZM25.8048 24.96C25.8048 25.1863 25.7149 25.4034 25.5548 25.5634C25.3948 25.7235 25.1777 25.8134 24.9514 25.8134H16.4181C16.1918 25.8134 15.9747 25.7235 15.8147 25.5634C15.6547 25.4034 15.5648 25.1863 15.5648 24.96V18.9867C15.5648 18.7604 15.6547 18.5433 15.8147 18.3833C15.9747 18.2233 16.1918 18.1334 16.4181 18.1334H24.9514C25.1777 18.1334 25.3948 18.2233 25.5548 18.3833C25.7149 18.5433 25.8048 18.7604 25.8048 18.9867V24.96Z" fill="white"/>
<path d="M23.4369 21.5808L18.7435 19.4475C18.6761 19.4145 18.6011 19.3999 18.5262 19.4051C18.4513 19.4103 18.3791 19.4353 18.3169 19.4774C18.2568 19.5159 18.2073 19.5689 18.173 19.6315C18.1388 19.6941 18.1207 19.7644 18.1206 19.8358V24.1024C18.1207 24.1738 18.1388 24.244 18.173 24.3066C18.2073 24.3693 18.2568 24.4223 18.3169 24.4608C18.3855 24.5052 18.4655 24.5289 18.5473 24.5291C18.609 24.5286 18.67 24.5156 18.7265 24.4907L23.4198 22.3574C23.4947 22.3237 23.5582 22.2692 23.6029 22.2003C23.6475 22.1314 23.6714 22.0512 23.6715 21.9691C23.6729 21.8888 23.6516 21.8099 23.6101 21.7412C23.5686 21.6725 23.5085 21.6169 23.4369 21.5808ZM18.9867 23.4411V20.5014L22.2379 21.9691L18.9867 23.4411Z" fill="white"/>
</g>
<defs>
<linearGradient id="paint0_linear_850_21549" x1="-6.62613" y1="38.6261" x2="38.6261" y2="-6.62613" gradientUnits="userSpaceOnUse">
<stop stop-color="#4D27A8"/>
<stop offset="1" stop-color="#A166FF"/>
</linearGradient>
<clipPath id="clip0_850_21549">
<rect width="32" height="32" fill="white"/>
</clipPath>
</defs>
</svg>
