<svg width="32" height="32" viewBox="0 0 32 32" fill="none" xmlns="http://www.w3.org/2000/svg">
<g clip-path="url(#clip0_850_21821)">
<path d="M32 0H0V32H32V0Z" fill="url(#paint0_linear_850_21821)"/>
<path fill-rule="evenodd" clip-rule="evenodd" d="M13.0826 9.09195L12.517 8.52635L15.7306 5.31275C15.8802 5.16235 16.1458 5.16235 16.2962 5.31275L19.5098 8.52635L18.9442 9.09195L16.013 6.16075L13.0826 9.09195ZM26.7098 16.292L23.5098 19.492L22.9442 18.9264L25.8618 16.0088L22.9442 13.092L23.5098 12.5264L26.7098 15.7264C26.8658 15.8824 26.8658 16.136 26.7098 16.292ZM18.917 22.9536L19.4826 23.5192L16.2962 26.7056C16.221 26.7808 16.1194 26.8232 16.013 26.8232C15.9066 26.8232 15.805 26.7808 15.7306 26.7056L12.517 23.492L13.0826 22.9264L16.013 25.8576L18.917 22.9536ZM9.08255 18.9264L8.51695 19.492L5.31695 16.292C5.16095 16.136 5.16095 15.8824 5.31695 15.7264L8.51695 12.5264L9.08255 13.092L6.16575 16.0088L9.08255 18.9264ZM21.1994 22.4088C20.5378 22.4088 19.9994 21.8712 19.9994 21.2088C19.9994 20.5472 20.5378 20.0088 21.1994 20.0088C21.8618 20.0088 22.3994 20.5472 22.3994 21.2088C22.3994 21.8712 21.8618 22.4088 21.1994 22.4088ZM12.381 20.0088C12.2706 19.8664 12.1434 19.7392 11.9994 19.6312V12.3912C12.145 12.2816 12.273 12.1536 12.3834 12.0088H19.6218C19.7298 12.1528 19.857 12.28 19.9994 12.3904V19.6192C19.8522 19.7312 19.7218 19.8616 19.6098 20.0088H12.381ZM10.8074 22.4088C10.1506 22.4088 9.61535 21.8744 9.61535 21.2168C9.61535 20.56 10.1506 20.0256 10.8074 20.0256C11.465 20.0256 11.9994 20.56 11.9994 21.2168C11.9994 21.8744 11.465 22.4088 10.8074 22.4088ZM9.61055 10.804C9.61055 10.1448 10.1466 9.60875 10.805 9.60875C11.4642 9.60875 11.9994 10.1448 11.9994 10.804C11.9994 11.4624 11.4642 11.9984 10.805 11.9984C10.1466 11.9984 9.61055 11.4624 9.61055 10.804ZM21.2074 9.62555C21.865 9.62555 22.3994 10.16 22.3994 10.8168C22.3994 11.4744 21.865 12.0088 21.2074 12.0088C20.5506 12.0088 20.0154 11.4744 20.0154 10.8168C20.0154 10.16 20.5506 9.62555 21.2074 9.62555ZM21.1994 19.2088C21.0626 19.2088 20.929 19.2232 20.7994 19.2496V12.7664C20.9314 12.7944 21.0682 12.8088 21.2074 12.8088C22.3058 12.8088 23.1994 11.9152 23.1994 10.8168C23.1994 9.71835 22.3058 8.82555 21.2074 8.82555C20.109 8.82555 19.2154 9.71835 19.2154 10.8168C19.2154 10.9512 19.2298 11.0824 19.2554 11.2088H12.7578C12.785 11.0784 12.7994 10.9424 12.7994 10.804C12.7994 9.70395 11.905 8.80875 10.805 8.80875C9.70495 8.80875 8.81055 9.70395 8.81055 10.804C8.81055 11.9032 9.70495 12.7984 10.805 12.7984C10.9402 12.7984 11.0722 12.784 11.1994 12.7584V19.2648C11.073 19.2392 10.9418 19.2256 10.8074 19.2256C9.70895 19.2256 8.81535 20.1184 8.81535 21.2168C8.81535 22.3152 9.70895 23.2088 10.8074 23.2088C11.9058 23.2088 12.7994 22.3152 12.7994 21.2168C12.7994 21.0776 12.785 20.9408 12.757 20.8088H19.2402C19.2138 20.9384 19.1994 21.072 19.1994 21.2088C19.1994 22.312 20.097 23.2088 21.1994 23.2088C22.3026 23.2088 23.1994 22.312 23.1994 21.2088C23.1994 20.1064 22.3026 19.2088 21.1994 19.2088Z" fill="white"/>
</g>
<defs>
<linearGradient id="paint0_linear_850_21821" x1="-6.62613" y1="38.6261" x2="38.6261" y2="-6.62613" gradientUnits="userSpaceOnUse">
<stop stop-color="#4D27A8"/>
<stop offset="1" stop-color="#A166FF"/>
</linearGradient>
<clipPath id="clip0_850_21821">
<rect width="32" height="32" fill="white"/>
</clipPath>
</defs>
</svg>
