<svg width="32" height="32" viewBox="0 0 32 32" fill="none" xmlns="http://www.w3.org/2000/svg">
<g clip-path="url(#clip0_850_21546)">
<path d="M32 0H0V32H32V0Z" fill="url(#paint0_linear_850_21546)"/>
<path d="M26.6667 13.8667V14.72H22.9035C13.0518 14.72 5.33337 10.8374 5.33337 5.87097C5.33197 5.69119 5.34338 5.51154 5.3675 5.33337H6.22083C6.19179 5.51109 6.17751 5.6909 6.17817 5.87097C6.17817 10.2784 13.6832 13.8667 22.9035 13.8667H26.6667Z" fill="white"/>
<path d="M13.8666 15.1253V15.9787C10.5386 15.552 7.16792 14.7285 5.33325 13.1712V11.9467C6.49805 13.4443 9.52739 14.5493 13.8666 15.1253Z" fill="white"/>
<path d="M13.8666 16.0171V16.8704C9.52739 17.4422 6.49805 18.5472 5.33325 20.0491V18.816C7.16792 17.2587 10.5343 16.4395 13.8666 16.0171Z" fill="white"/>
<path d="M26.6666 12.1558V13.0091H24.8959C16.3327 13.0091 10.1162 10.1078 10.1162 6.1099C10.1162 6.1099 10.1162 5.61923 10.1162 5.3291H11.0165C11.0165 5.5339 11.0165 5.9563 11.0165 6.1099C11.0165 9.52323 16.9898 12.1558 24.9045 12.1558H26.6666Z" fill="white"/>
<path d="M13.8666 18.5173V19.4133C9.24154 20.8384 6.1866 23.3216 6.1866 26.1419C6.1865 26.3175 6.19933 26.4929 6.225 26.6667H5.37167C5.34742 26.4928 5.33602 26.3174 5.33754 26.1419C5.33327 22.8565 8.71674 20.0533 13.8666 18.5173Z" fill="white"/>
<path d="M13.8666 21.1456V22.1014C12.0533 23.1126 10.9952 24.4054 10.9952 25.8432C10.9952 26.0096 10.9952 26.4918 10.9952 26.6667H10.1418C10.1418 26.3851 10.1418 25.8518 10.1418 25.8432C10.1418 23.9744 11.52 22.3446 13.8666 21.1456Z" fill="white"/>
<path d="M21.9733 26.2401H21.12V21.1201H20.2667V26.2401H19.4133V20.6934C19.4133 20.5802 19.4583 20.4717 19.5383 20.3917C19.6183 20.3117 19.7268 20.2667 19.84 20.2667H21.5467C21.6598 20.2667 21.7683 20.3117 21.8484 20.3917C21.9284 20.4717 21.9733 20.5802 21.9733 20.6934V26.2401Z" fill="white"/>
<path d="M18.56 26.2401H17.7067V22.4001H16.8533V26.2401H16V21.9734C16 21.8603 16.045 21.7517 16.125 21.6717C16.205 21.5917 16.3135 21.5468 16.4267 21.5468H18.1333C18.2465 21.5468 18.355 21.5917 18.435 21.6717C18.515 21.7517 18.56 21.8603 18.56 21.9734V26.2401Z" fill="white"/>
<path d="M25.3867 26.2401H24.5333V19.4134H23.68V26.2401H22.8267V18.9867C22.8267 18.8736 22.8716 18.765 22.9516 18.685C23.0316 18.605 23.1402 18.5601 23.2533 18.5601H24.96C25.0732 18.5601 25.1817 18.605 25.2617 18.685C25.3417 18.765 25.3867 18.8736 25.3867 18.9867V26.2401Z" fill="white"/>
<path d="M26.2401 25.8134H15.1467V26.6667H26.2401V25.8134Z" fill="white"/>
<path d="M26.6666 26.6668H25.8133V17.2801H15.5733V26.6668H14.72V16.8534C14.72 16.7403 14.7649 16.6317 14.8449 16.5517C14.925 16.4717 15.0335 16.4268 15.1466 16.4268H26.24C26.3531 16.4268 26.4617 16.4717 26.5417 16.5517C26.6217 16.6317 26.6666 16.7403 26.6666 16.8534V26.6668Z" fill="white"/>
</g>
<defs>
<linearGradient id="paint0_linear_850_21546" x1="-6.62613" y1="38.6261" x2="38.6304" y2="-6.6304" gradientUnits="userSpaceOnUse">
<stop stop-color="#4D27A8"/>
<stop offset="1" stop-color="#A166FF"/>
</linearGradient>
<clipPath id="clip0_850_21546">
<rect width="32" height="32" fill="white"/>
</clipPath>
</defs>
</svg>
