<svg width="32" height="32" viewBox="0 0 32 32" fill="none" xmlns="http://www.w3.org/2000/svg">
<g clip-path="url(#clip0_850_21542)">
<path d="M32 0H0V32H32V0Z" fill="url(#paint0_linear_850_21542)"/>
<path d="M26.0778 23.2192L24.1237 21.2523C25.151 19.7107 25.741 17.9194 25.8307 16.069C25.9203 14.2186 25.5063 12.3785 24.6328 10.7449C23.7593 9.11121 22.4589 7.74511 20.8703 6.79214C19.2816 5.83916 17.4642 5.335 15.6117 5.33337C13.6859 5.34372 11.8016 5.89422 10.1732 6.92228C8.54475 7.95033 7.23744 9.41469 6.39992 11.1488L7.16792 11.5158C8.0887 9.59928 9.63286 8.05218 11.5476 7.12774C13.4623 6.20331 15.6342 5.95632 17.7076 6.42721C19.781 6.8981 21.6331 8.05897 22.9607 9.71977C24.2883 11.3806 25.0127 13.4429 25.0154 15.5691C25.0203 17.3659 24.5029 19.1254 23.5263 20.6336L21.9093 19.0123C22.33 18.157 22.5725 17.225 22.6222 16.2731C22.6718 15.3211 22.5275 14.369 22.1979 13.4746C21.8684 12.5801 21.3605 11.7619 20.7052 11.0697C20.0498 10.3775 19.2606 9.82564 18.3855 9.4477C17.5104 9.06976 16.5676 8.87359 15.6144 8.87109C14.6612 8.8686 13.7174 9.05983 12.8403 9.43319C11.9632 9.80655 11.1711 10.3542 10.5122 11.043C9.85319 11.7318 9.34106 12.5473 9.00685 13.44H6.18659V14.2934H8.76792C8.67393 14.7139 8.62106 15.1426 8.61005 15.5734H5.33325V16.4267H8.63992C8.674 16.8603 8.75264 17.2892 8.87458 17.7067H6.23352V18.56H9.18179C9.56924 19.4649 10.1426 20.2782 10.8646 20.9472C11.5867 21.6162 12.4413 22.126 13.3731 22.4434C14.3048 22.7608 15.2929 22.8788 16.2732 22.7898C17.2535 22.7007 18.2041 22.4066 19.0634 21.9264L20.6293 23.4923C18.5572 24.8037 16.0543 25.2523 13.6558 24.7419C11.2573 24.2316 9.15378 22.803 7.79512 20.7616L7.08685 21.2352C8.58728 23.4897 10.9197 25.058 13.5736 25.597C16.2276 26.1359 18.987 25.6016 21.2479 24.111L23.2149 26.0779C23.5939 26.4576 24.1083 26.6711 24.6448 26.6715C25.1813 26.6719 25.696 26.4591 26.0757 26.08C26.4553 25.701 26.6688 25.1866 26.6692 24.6501C26.6696 24.1136 26.4569 23.5989 26.0778 23.2192V23.2192ZM15.6415 21.9648C14.4186 21.9648 13.2231 21.6021 12.2063 20.9226C11.1895 20.2431 10.3971 19.2773 9.92932 18.1474C9.46151 17.0174 9.33933 15.7741 9.57823 14.5747C9.81712 13.3754 10.4064 12.2738 11.2714 11.4093C12.1365 10.5449 13.2385 9.95638 14.438 9.71831C15.6376 9.48025 16.8808 9.60329 18.0104 10.0719C19.14 10.5405 20.1053 11.3335 20.7841 12.3508C21.4629 13.368 21.8248 14.5638 21.8239 15.7867C21.8205 17.4249 21.168 18.9951 20.0091 20.1531C18.8503 21.3111 17.2798 21.9626 15.6415 21.9648ZM25.4549 25.4678C25.2338 25.681 24.9386 25.8002 24.6314 25.8002C24.3242 25.8002 24.029 25.681 23.8079 25.4678L19.7887 21.4486C20.4264 20.9766 20.979 20.3995 21.4229 19.7419L25.4591 23.7995C25.5677 23.9074 25.6539 24.0357 25.7128 24.177C25.7716 24.3183 25.8019 24.4699 25.8019 24.623C25.8019 24.7761 25.7716 24.9276 25.7128 25.069C25.6539 25.2103 25.5677 25.3386 25.4591 25.4464L25.4549 25.4678Z" fill="white"/>
<path d="M19.5753 16.4054C19.3941 16.0234 19.1179 15.6943 18.7732 15.4496L19.0548 13.3718V13.3163V13.2566C19.0548 13.2352 19.0548 13.2139 19.0548 13.1968C19.0548 12.1856 16.8276 11.8102 15.4239 11.8102C14.0201 11.8102 11.7972 12.1856 11.7972 13.1968C11.7952 13.2167 11.7952 13.2367 11.7972 13.2566V13.3163C11.7948 13.3347 11.7948 13.3534 11.7972 13.3718C11.7972 13.3718 11.7972 13.3718 11.7972 13.3718L12.5097 18.6838C12.5652 19.7419 15.1167 19.7718 15.4111 19.7718C15.9646 19.775 16.5169 19.7178 17.058 19.6011C17.2378 19.559 17.4145 19.5048 17.5871 19.439C18.0521 19.2555 18.2953 19.0123 18.3124 18.6838L18.5343 17.024C18.6745 17.0544 18.8175 17.0701 18.9609 17.071C19.068 17.0864 19.1772 17.0695 19.2745 17.0223C19.3718 16.9752 19.4528 16.9 19.5071 16.8064C19.5457 16.748 19.5717 16.6822 19.5835 16.6131C19.5953 16.5441 19.5925 16.4733 19.5753 16.4054V16.4054ZM17.8431 15.9147C17.2969 15.7056 16.6356 15.4198 16.0084 15.1168C15.9723 15.0107 15.9078 14.9166 15.8217 14.8448C15.7357 14.773 15.6316 14.7262 15.5207 14.7097C15.4099 14.6931 15.2966 14.7074 15.1934 14.751C15.0901 14.7946 15.0009 14.8658 14.9354 14.9568C14.87 15.0477 14.8308 15.155 14.8223 15.2667C14.8138 15.3784 14.8362 15.4904 14.8871 15.5902C14.938 15.6901 15.0154 15.774 15.1108 15.8327C15.2063 15.8914 15.3161 15.9228 15.4281 15.9232C15.4982 15.9237 15.5677 15.9107 15.6329 15.8848C16.314 16.2247 17.0134 16.5267 17.7279 16.7894L17.4932 18.5472C17.4316 18.5872 17.3658 18.6201 17.2969 18.6454C17.1579 18.697 17.0153 18.7383 16.8703 18.7691C16.3937 18.8724 15.9072 18.9225 15.4196 18.9184C14.7143 18.9597 14.0094 18.8325 13.3631 18.5472L12.7657 14.1056C14.5049 14.5778 16.3385 14.5778 18.0777 14.1056L17.8431 15.9147ZM15.4281 13.6064C14.5122 13.6518 13.5969 13.5065 12.7401 13.1798C13.5824 12.7958 14.5033 12.616 15.4281 12.655C16.3529 12.616 17.2739 12.7958 18.1161 13.1798C17.2594 13.5069 16.344 13.6523 15.4281 13.6064V13.6064Z" fill="white"/>
</g>
<defs>
<linearGradient id="paint0_linear_850_21542" x1="-6.62613" y1="38.6274" x2="38.6287" y2="-6.62742" gradientUnits="userSpaceOnUse">
<stop stop-color="#4D27A8"/>
<stop offset="1" stop-color="#A166FF"/>
</linearGradient>
<clipPath id="clip0_850_21542">
<rect width="32" height="32" fill="white"/>
</clipPath>
</defs>
</svg>
