<svg width="32" height="32" viewBox="0 0 32 32" fill="none" xmlns="http://www.w3.org/2000/svg">
<g clip-path="url(#clip0_850_21553)">
<path d="M32 0H0V32H32V0Z" fill="url(#paint0_linear_850_21553)"/>
<path d="M15.9999 26.6668C12.4842 26.6668 8.74658 25.647 8.74658 23.7569V8.24329H9.59992V23.7569C9.59992 24.6102 12.0362 25.8134 15.9999 25.8134C19.9636 25.8134 22.3999 24.6188 22.3999 23.7569V8.24329H23.2532V23.7569C23.2532 25.647 19.5156 26.6668 15.9999 26.6668Z" fill="white"/>
<path d="M15.9999 26.6668C12.4842 26.6668 8.74658 25.647 8.74658 23.7569V8.24329H9.59992V23.7569C9.59992 24.6102 12.0362 25.8134 15.9999 25.8134C19.9636 25.8134 22.3999 24.6188 22.3999 23.7569V8.24329H23.2532V23.7569C23.2532 25.647 19.5156 26.6668 15.9999 26.6668Z" fill="white"/>
<path d="M15.9999 11.1488C12.4842 11.1488 8.74658 10.1291 8.74658 8.24324C8.74658 6.35737 12.4842 5.33337 15.9999 5.33337C19.5156 5.33337 23.2532 6.35311 23.2532 8.24324C23.2532 10.1334 19.5156 11.1488 15.9999 11.1488ZM15.9999 6.18671C12.0362 6.18671 9.59992 7.38137 9.59992 8.24324C9.59992 9.10511 12.0362 10.2955 15.9999 10.2955C19.9636 10.2955 22.3999 9.10084 22.3999 8.24324C22.3999 7.38564 19.9636 6.18671 15.9999 6.18671V6.18671Z" fill="white"/>
<path d="M14.7905 16.8353L14.6013 17.6674L17.1891 18.2558L17.3783 17.4237L14.7905 16.8353Z" fill="white"/>
<path d="M19.3805 14.2862L18.3936 16.7865L19.1873 17.0998L20.1742 14.5995L19.3805 14.2862Z" fill="white"/>
<path d="M12.8457 17.8368L11.9749 19.8774L12.7597 20.2124L13.6305 18.1717L12.8457 17.8368Z" fill="white"/>
<path d="M11.9467 22.5152C11.6513 22.5152 11.3626 22.4277 11.1171 22.2636C10.8715 22.0995 10.6801 21.8662 10.567 21.5934C10.454 21.3205 10.4244 21.0202 10.4821 20.7306C10.5397 20.4409 10.6819 20.1748 10.8908 19.966C11.0996 19.7571 11.3657 19.6149 11.6554 19.5573C11.945 19.4996 12.2453 19.5292 12.5182 19.6422C12.791 19.7553 13.0243 19.9467 13.1884 20.1922C13.3525 20.4378 13.44 20.7265 13.44 21.0219C13.44 21.418 13.2827 21.7978 13.0026 22.0778C12.7226 22.3579 12.3428 22.5152 11.9467 22.5152V22.5152ZM11.9467 20.3819C11.8201 20.3819 11.6964 20.4194 11.5911 20.4898C11.4859 20.5601 11.4039 20.66 11.3554 20.777C11.307 20.8939 11.2943 21.0226 11.319 21.1468C11.3437 21.2709 11.4046 21.3849 11.4942 21.4744C11.5837 21.564 11.6977 21.6249 11.8218 21.6496C11.946 21.6743 12.0747 21.6616 12.1916 21.6132C12.3086 21.5647 12.4085 21.4827 12.4788 21.3775C12.5492 21.2722 12.5867 21.1485 12.5867 21.0219C12.5867 20.8522 12.5193 20.6894 12.3993 20.5694C12.2792 20.4493 12.1164 20.3819 11.9467 20.3819V20.3819Z" fill="white"/>
<path d="M13.6532 18.5132C13.3579 18.5132 13.0692 18.4256 12.8236 18.2615C12.578 18.0974 12.3866 17.8642 12.2736 17.5913C12.1606 17.3184 12.131 17.0182 12.1886 16.7285C12.2462 16.4388 12.3885 16.1727 12.5973 15.9639C12.8061 15.755 13.0722 15.6128 13.3619 15.5552C13.6516 15.4976 13.9518 15.5271 14.2247 15.6402C14.4976 15.7532 14.7308 15.9446 14.8949 16.1902C15.059 16.4357 15.1466 16.7245 15.1466 17.0198C15.1466 17.4159 14.9892 17.7957 14.7092 18.0758C14.4291 18.3558 14.0493 18.5132 13.6532 18.5132ZM13.6532 16.3798C13.5267 16.3798 13.4029 16.4174 13.2977 16.4877C13.1924 16.558 13.1104 16.658 13.062 16.7749C13.0135 16.8918 13.0008 17.0205 13.0255 17.1447C13.0502 17.2688 13.1112 17.3829 13.2007 17.4724C13.2902 17.5619 13.4042 17.6228 13.5284 17.6475C13.6525 17.6722 13.7812 17.6595 13.8982 17.6111C14.0151 17.5627 14.1151 17.4806 14.1854 17.3754C14.2557 17.2701 14.2932 17.1464 14.2932 17.0198C14.2932 16.8501 14.2258 16.6873 14.1058 16.5673C13.9858 16.4473 13.823 16.3798 13.6532 16.3798V16.3798Z" fill="white"/>
<path d="M18.3466 19.4134C18.0513 19.4134 17.7625 19.3258 17.517 19.1618C17.2714 18.9977 17.08 18.7644 16.9669 18.4916C16.8539 18.2187 16.8243 17.9184 16.882 17.6288C16.9396 17.3391 17.0818 17.073 17.2907 16.8641C17.4995 16.6553 17.7656 16.5131 18.0553 16.4555C18.3449 16.3978 18.6452 16.4274 18.9181 16.5404C19.191 16.6535 19.4242 16.8449 19.5883 17.0904C19.7524 17.336 19.8399 17.6247 19.8399 17.9201C19.8399 18.3161 19.6826 18.696 19.4026 18.976C19.1225 19.2561 18.7427 19.4134 18.3466 19.4134V19.4134ZM18.3466 17.2801C18.22 17.2801 18.0963 17.3176 17.991 17.388C17.8858 17.4583 17.8038 17.5582 17.7553 17.6752C17.7069 17.7921 17.6942 17.9208 17.7189 18.045C17.7436 18.1691 17.8046 18.2831 17.8941 18.3726C17.9836 18.4621 18.0976 18.5231 18.2217 18.5478C18.3459 18.5725 18.4746 18.5598 18.5915 18.5114C18.7085 18.4629 18.8084 18.3809 18.8787 18.2757C18.9491 18.1704 18.9866 18.0467 18.9866 17.9201C18.9866 17.7504 18.9192 17.5876 18.7992 17.4675C18.6791 17.3475 18.5163 17.2801 18.3466 17.2801Z" fill="white"/>
<path d="M20.0531 14.9333C19.7578 14.9333 19.4691 14.8457 19.2235 14.6817C18.9779 14.5176 18.7865 14.2843 18.6735 14.0115C18.5605 13.7386 18.5309 13.4383 18.5885 13.1487C18.6461 12.859 18.7884 12.5929 18.9972 12.384C19.206 12.1752 19.4721 12.033 19.7618 11.9753C20.0515 11.9177 20.3518 11.9473 20.6246 12.0603C20.8975 12.1734 21.1307 12.3648 21.2948 12.6103C21.4589 12.8559 21.5465 13.1446 21.5465 13.44V13.4613C21.5398 13.8533 21.3796 14.2271 21.1004 14.5023C20.8212 14.7775 20.4452 14.9323 20.0531 14.9333ZM20.0531 12.8C19.9275 12.8001 19.8046 12.8371 19.6999 12.9065C19.5952 12.976 19.5132 13.0747 19.4642 13.1904C19.4152 13.3061 19.4013 13.4337 19.4243 13.5572C19.4473 13.6807 19.5062 13.7948 19.5936 13.8851C19.681 13.9754 19.793 14.0379 19.9157 14.065C20.0384 14.092 20.1664 14.0824 20.2836 14.0372C20.4009 13.992 20.5023 13.9133 20.5751 13.8109C20.6479 13.7085 20.689 13.5869 20.6931 13.4613C20.696 13.3755 20.6816 13.29 20.6507 13.2098C20.6198 13.1297 20.5731 13.0566 20.5134 12.9949C20.4537 12.9332 20.3822 12.8842 20.3031 12.8507C20.224 12.8172 20.139 12.7999 20.0531 12.8Z" fill="white"/>
</g>
<defs>
<linearGradient id="paint0_linear_850_21553" x1="-6.6304" y1="38.6304" x2="38.6261" y2="-6.62613" gradientUnits="userSpaceOnUse">
<stop stop-color="#4D27A8"/>
<stop offset="1" stop-color="#A166FF"/>
</linearGradient>
<clipPath id="clip0_850_21553">
<rect width="32" height="32" fill="white"/>
</clipPath>
</defs>
</svg>
