<svg width="32" height="32" viewBox="0 0 32 32" fill="none" xmlns="http://www.w3.org/2000/svg">
<g clip-path="url(#clip0_850_21545)">
<path d="M32 0H0V32H32V0Z" fill="url(#paint0_linear_850_21545)"/>
<path d="M24.1578 17.6598C23.8094 17.6585 23.4652 17.7358 23.1508 17.8859L22.1866 16.0299L23.3812 13.7771C23.8829 13.955 24.4302 13.957 24.9332 13.7829C25.4362 13.6087 25.8651 13.2687 26.1494 12.8187C26.4337 12.3687 26.5565 11.8354 26.4978 11.3063C26.439 10.7773 26.2021 10.2839 25.826 9.90724C25.6081 9.68921 25.3494 9.51626 25.0646 9.39826C24.7798 9.28026 24.4745 9.21952 24.1663 9.21952C23.858 9.21952 23.5528 9.28026 23.268 9.39826C22.9832 9.51626 22.7245 9.68921 22.5066 9.90724C22.2269 10.1884 22.0228 10.5357 21.9131 10.9169C21.8035 11.298 21.7919 11.7007 21.8794 12.0875L20.3647 12.5568L18.6794 9.3867L18.7092 9.35684C19.0267 9.03931 19.2464 8.63736 19.3423 8.1987C19.4382 7.76004 19.4062 7.30308 19.2501 6.88205C19.0941 6.46103 18.8205 6.09361 18.4619 5.8234C18.1033 5.5532 17.6747 5.39156 17.2269 5.35765C16.7792 5.32375 16.3311 5.41901 15.9359 5.63213C15.5407 5.84526 15.2149 6.16729 14.9973 6.56002C14.7796 6.95275 14.6792 7.39968 14.7079 7.84778C14.7366 8.29588 14.8933 8.72632 15.1594 9.08804L13.3332 11.6054C12.5505 11.128 11.6548 10.8676 10.7382 10.851C9.82156 10.8344 8.91703 11.0622 8.1176 11.511C7.31817 11.9598 6.65266 12.6134 6.18949 13.4046C5.72631 14.1958 5.48218 15.096 5.48218 16.0128C5.48218 16.9296 5.72631 17.8299 6.18949 18.6211C6.65266 19.4123 7.31817 20.0658 8.1176 20.5146C8.91703 20.9634 9.82156 21.1912 10.7382 21.1747C11.6548 21.1581 12.5505 20.8977 13.3332 20.4203L15.1508 22.9419C14.8837 23.3032 14.7258 23.7335 14.6961 24.1819C14.6663 24.6302 14.7659 25.0776 14.983 25.471C15.2001 25.8644 15.5255 26.1872 15.9207 26.4011C16.3159 26.6149 16.7641 26.7108 17.2122 26.6774C17.6603 26.644 18.0893 26.4826 18.4484 26.2125C18.8074 25.9424 19.0814 25.5748 19.2377 25.1536C19.394 24.7323 19.4261 24.2751 19.3301 23.8361C19.2342 23.3972 19.0142 22.995 18.6964 22.6774L18.6708 22.6518L20.3263 19.5243L21.7983 19.9894V20.0235C21.7983 20.4876 21.9359 20.9413 22.1938 21.3272C22.4516 21.7131 22.8181 22.0139 23.2469 22.1915C23.6757 22.3692 24.1476 22.4156 24.6028 22.3251C25.058 22.2345 25.4761 22.011 25.8043 21.6828C26.1325 21.3547 26.356 20.9365 26.4465 20.4813C26.5371 20.0261 26.4906 19.5543 26.313 19.1255C26.1354 18.6967 25.8346 18.3302 25.4487 18.0723C25.0628 17.8145 24.6091 17.6768 24.145 17.6768L24.1578 17.6598ZM23.1039 10.5131C23.3897 10.2358 23.7723 10.0807 24.1706 10.0807C24.5688 10.0807 24.9514 10.2358 25.2372 10.5131C25.443 10.7231 25.5822 10.9893 25.6374 11.2781C25.6925 11.5669 25.6612 11.8656 25.5473 12.1367C25.4334 12.4078 25.2419 12.6392 24.997 12.802C24.7521 12.9647 24.4646 13.0516 24.1706 13.0516C23.8765 13.0516 23.589 12.9647 23.3441 12.802C23.0992 12.6392 22.9077 12.4078 22.7938 12.1367C22.6799 11.8656 22.6486 11.5669 22.7037 11.2781C22.7589 10.9893 22.8981 10.7231 23.1039 10.5131V10.5131ZM22.2122 12.8768C22.2951 13.003 22.3909 13.1203 22.498 13.2267L22.6346 13.3504L21.7002 15.1168L20.7572 13.3291L22.2122 12.8768ZM15.9914 6.62617C16.2709 6.34327 16.6513 6.18299 17.049 6.18059C17.4466 6.17819 17.829 6.33387 18.1119 6.61337C18.3948 6.89287 18.5551 7.27331 18.5575 7.67098C18.5599 8.06866 18.4042 8.451 18.1247 8.7339C17.8394 9.01224 17.4566 9.16804 17.058 9.16804C16.6594 9.16804 16.2766 9.01224 15.9914 8.7339C15.7126 8.45402 15.556 8.07507 15.556 7.68004C15.556 7.285 15.7126 6.90605 15.9914 6.62617V6.62617ZM15.7866 9.65977C16.1682 9.90447 16.6132 10.032 17.0666 10.0267C17.3787 10.0265 17.6876 9.96411 17.9754 9.84324L19.537 12.8299L15.4538 14.1099C15.1948 13.4561 14.8008 12.8644 14.2975 12.3734C14.2079 12.2838 14.1183 12.1984 14.0244 12.1174L15.7866 9.65977ZM7.59882 19.0464C6.99593 18.4439 6.5853 17.676 6.41885 16.84C6.2524 16.004 6.33761 15.1375 6.66371 14.3499C6.98981 13.5624 7.54215 12.8892 8.25086 12.4156C8.95957 11.942 9.79282 11.6892 10.6452 11.6892C11.4976 11.6892 12.3309 11.942 13.0396 12.4156C13.7483 12.8892 14.3006 13.5624 14.6267 14.3499C14.9528 15.1375 15.038 16.004 14.8716 16.84C14.7051 17.676 14.2945 18.4439 13.6916 19.0464C12.8826 19.8507 11.7882 20.3022 10.6474 20.3022C9.50655 20.3022 8.41211 19.8507 7.60309 19.0464H7.59882ZM18.1076 25.3739C17.8223 25.6522 17.4395 25.808 17.041 25.808C16.6424 25.808 16.2596 25.6522 15.9743 25.3739C15.7685 25.1639 15.6293 24.8977 15.5741 24.6089C15.519 24.3201 15.5503 24.0214 15.6642 23.7503C15.7781 23.4792 15.9696 23.2478 16.2145 23.085C16.4594 22.9223 16.7469 22.8355 17.041 22.8355C17.335 22.8355 17.6225 22.9223 17.8674 23.085C18.1123 23.2478 18.3038 23.4792 18.4177 23.7503C18.5316 24.0214 18.5629 24.3201 18.5078 24.6089C18.4526 24.8977 18.3134 25.1639 18.1076 25.3739V25.3739ZM17.9711 22.1611C17.6204 22.0117 17.2387 21.9499 16.8588 21.9811C16.4789 22.0123 16.1124 22.1356 15.7908 22.3403L14.033 19.8955C14.1268 19.8144 14.2122 19.7334 14.2975 19.648C14.7854 19.1619 15.1687 18.5811 15.4239 17.9414L19.5114 19.2214L17.9711 22.1611ZM19.9167 18.4832L15.6799 17.1435C15.8441 16.403 15.8441 15.6355 15.6799 14.895L19.9167 13.5851L21.1967 16.0342L19.9167 18.4832ZM21.9818 19.1318L20.7444 18.7435L21.6916 16.9472L22.4554 18.3979C22.2486 18.6072 22.0873 18.8571 21.9818 19.1318V19.1318ZM25.2159 21.0603C24.9301 21.3376 24.5475 21.4928 24.1492 21.4928C23.751 21.4928 23.3684 21.3376 23.0826 21.0603C22.8768 20.8503 22.7376 20.5841 22.6824 20.2953C22.6272 20.0065 22.6586 19.7078 22.7725 19.4367C22.8864 19.1656 23.0778 18.9342 23.3227 18.7714C23.5677 18.6087 23.8552 18.5219 24.1492 18.5219C24.4433 18.5219 24.7308 18.6087 24.9757 18.7714C25.2206 18.9342 25.412 19.1656 25.5259 19.4367C25.6399 19.7078 25.6712 20.0065 25.616 20.2953C25.5609 20.5841 25.4217 20.8503 25.2159 21.0603V21.0603ZM12.7999 15.5734V16.4267H11.0932V18.1334H10.2399V16.4267H8.53322V15.5734H10.2399V13.8667H11.0932V15.5734H12.7999Z" fill="white"/>
</g>
<defs>
<linearGradient id="paint0_linear_850_21545" x1="-6.62742" y1="38.6261" x2="38.6274" y2="-6.6287" gradientUnits="userSpaceOnUse">
<stop stop-color="#4D27A8"/>
<stop offset="1" stop-color="#A166FF"/>
</linearGradient>
<clipPath id="clip0_850_21545">
<rect width="32" height="32" fill="white"/>
</clipPath>
</defs>
</svg>
