<svg width="32" height="32" viewBox="0 0 32 32" fill="none" xmlns="http://www.w3.org/2000/svg">
<g clip-path="url(#clip0_850_21859)">
<path d="M32 0H0V32H32V0Z" fill="url(#paint0_linear_850_21859)"/>
<path fill-rule="evenodd" clip-rule="evenodd" d="M21.6 23.2V12.6256L20 11.5616V23.2H21.6ZM19.2 23.2V11.0296L17.6 9.96555V23.2H19.2ZM16.8 23.2V9.43355L16 8.90155L15.2 9.43355V23.2H16.8ZM14.4 23.2V9.96555L12.8 11.0296V23.2H14.4ZM12 23.2V11.5616L10.4 12.6256V23.2H12ZM24.8 24H7.20005V23.2H9.60005V13.1576L7.80325 14.352L7.36005 13.6856L15.7784 8.08795C15.9128 7.99915 16.0872 7.99915 16.2216 8.08795L24.64 13.6856L24.1968 14.352L22.4 13.1576V23.2H24.8V24ZM6.40005 25.6H10.4V24.8H6.40005V25.6ZM12 25.6H20V24.8H12V25.6ZM21.6 25.6H25.6V24.8H21.6V25.6ZM4.80005 27.2H15.2V26.4H4.80005V27.2ZM16.8 27.2H27.2V26.4H16.8V27.2ZM5.82165 12.8664L5.37845 12.2L15.7784 5.26715C15.9128 5.17755 16.0872 5.17755 16.2216 5.26715L26.6216 12.2L26.1784 12.8664L16 6.08075L5.82165 12.8664Z" fill="white"/>
</g>
<defs>
<linearGradient id="paint0_linear_850_21859" x1="-6.62613" y1="38.6261" x2="38.6261" y2="-6.62613" gradientUnits="userSpaceOnUse">
<stop stop-color="#4D27A8"/>
<stop offset="1" stop-color="#A166FF"/>
</linearGradient>
<clipPath id="clip0_850_21859">
<rect width="32" height="32" fill="white"/>
</clipPath>
</defs>
</svg>
