<svg width="32" height="32" viewBox="0 0 32 32" fill="none" xmlns="http://www.w3.org/2000/svg">
<g clip-path="url(#clip0_850_21547)">
<path d="M32 0H0V32H32V0Z" fill="url(#paint0_linear_850_21547)"/>
<path d="M15.9999 11.712H13.8666C13.7534 11.712 13.6449 11.757 13.5649 11.837C13.4849 11.917 13.4399 12.0255 13.4399 12.1387V19.8187C13.4399 19.9319 13.4849 20.0404 13.5649 20.1204C13.6449 20.2004 13.7534 20.2454 13.8666 20.2454H15.9999C16.1131 20.2454 16.2216 20.2004 16.3016 20.1204C16.3817 20.0404 16.4266 19.9319 16.4266 19.8187V12.1387C16.4266 12.0255 16.3817 11.917 16.3016 11.837C16.2216 11.757 16.1131 11.712 15.9999 11.712V11.712ZM15.5733 19.392H14.2933V12.5654H15.5733V19.392Z" fill="white"/>
<path d="M21.2138 13.8539L16.4266 12.8L16.0938 12.7318C16.0312 12.717 15.966 12.7167 15.9032 12.7307C15.8404 12.7448 15.7816 12.7728 15.7311 12.8128C15.6822 12.8525 15.6427 12.9026 15.6154 12.9594C15.5881 13.0162 15.5737 13.0783 15.5733 13.1414V18.8246C15.5724 18.889 15.5862 18.9528 15.6135 19.0112C15.6409 19.0696 15.6811 19.121 15.7311 19.1616C15.8091 19.219 15.9032 19.2503 15.9999 19.2512H16.0938L16.4266 19.1744L21.2138 18.112C21.3101 18.0903 21.3958 18.036 21.4565 17.9582C21.5172 17.8804 21.549 17.784 21.5466 17.6854V14.272C21.547 14.1748 21.5143 14.0804 21.4538 14.0044C21.3933 13.9284 21.3086 13.8753 21.2138 13.8539ZM20.6933 17.3483L16.4266 18.2955V13.6534L20.6933 14.6048V17.3483Z" fill="white"/>
<path d="M26.6666 13.6533V14.5493C25.2786 14.9415 23.8422 15.1354 22.3999 15.1253V14.272C23.8452 14.283 25.2839 14.0744 26.6666 13.6533V13.6533Z" fill="white"/>
<path d="M26.6666 15.3174V16.1707C25.2504 16.3345 23.8254 16.41 22.3999 16.3968V15.5435C23.8255 15.5598 25.2507 15.4843 26.6666 15.3174V15.3174Z" fill="white"/>
<path d="M26.6666 15.855V16.7083C25.2541 16.4989 23.8278 16.3962 22.3999 16.4011V15.5478C23.8278 15.5431 25.2541 15.6458 26.6666 15.855V15.855Z" fill="white"/>
<path d="M26.6666 17.4293V18.3467C25.2877 17.9053 23.8477 17.6849 22.3999 17.6939V16.8405C23.8432 16.8279 25.2806 17.0263 26.6666 17.4293V17.4293Z" fill="white"/>
<path d="M12.5866 13.8454V14.6987C10.0448 14.5646 7.56581 13.8603 5.33325 12.6379V11.6395C7.21485 12.8683 9.71939 13.6065 12.5866 13.8454Z" fill="white"/>
<path d="M12.5866 15.5435V16.3968C11.3493 16.3413 9.94125 16.2261 8.52472 16.0213C7.44687 15.875 6.38049 15.654 5.33325 15.36V14.4768C7.69984 15.1203 10.1349 15.4784 12.5866 15.5435V15.5435Z" fill="white"/>
<path d="M12.5866 15.6501V16.5035C10.1351 16.5706 7.70027 16.9287 5.33325 17.5701V16.6869C6.38288 16.3919 7.45228 16.1723 8.53325 16.0299C9.94125 15.8208 11.3493 15.7099 12.5866 15.6501Z" fill="white"/>
<path d="M12.5865 12.4416V13.295C6.70278 12.6123 5.37158 9.59576 5.37158 7.02722C5.37158 6.92909 5.37158 5.32056 5.37158 5.32056H6.22492C6.22492 5.41442 6.22492 6.95042 6.22492 7.04856C6.22492 9.24162 7.40252 11.8059 12.5865 12.4416Z" fill="white"/>
<path d="M12.5866 17.3185V18.1718C9.72365 18.4107 7.21912 19.1702 5.33325 20.3905V19.3963C7.56573 18.1713 10.0441 17.4613 12.5866 17.3185V17.3185Z" fill="white"/>
<path d="M12.5866 18.7393V19.5926C9.27567 19.9979 6.22501 21.3462 6.22501 24.9259C6.22501 24.9515 6.22501 25.0838 6.22501 25.2587C6.22501 25.6299 6.22501 26.4961 6.22501 26.6027L5.87514 26.6326L5.37594 26.671C5.37371 26.6583 5.37371 26.6453 5.37594 26.6326C5.37594 26.5302 5.37594 26.2529 5.37594 25.2502C5.37594 25.071 5.37594 24.9515 5.37594 24.9259C5.37168 22.3915 6.70287 19.4177 12.5866 18.7393Z" fill="white"/>
</g>
<defs>
<linearGradient id="paint0_linear_850_21547" x1="-6.62613" y1="38.6274" x2="38.6287" y2="-6.62742" gradientUnits="userSpaceOnUse">
<stop stop-color="#4D27A8"/>
<stop offset="1" stop-color="#A166FF"/>
</linearGradient>
<clipPath id="clip0_850_21547">
<rect width="32" height="32" fill="white"/>
</clipPath>
</defs>
</svg>
