<svg width="32" height="32" viewBox="0 0 32 32" fill="none" xmlns="http://www.w3.org/2000/svg">
<g clip-path="url(#clip0_850_21548)">
<path d="M32 0H0V32H32V0Z" fill="url(#paint0_linear_850_21548)"/>
<path d="M26.6666 13.871V14.7243H22.9034C21.6536 14.7264 20.4045 14.6623 19.1615 14.5323V14.5323C11.1658 13.679 5.33752 10.1888 5.33752 5.87525C5.33612 5.69546 5.34753 5.51581 5.37165 5.33765H6.22498C6.19594 5.51536 6.18166 5.69518 6.18232 5.87525C6.18232 10.287 13.6874 13.8752 22.9162 13.8752L26.6666 13.871Z" fill="white"/>
<path d="M26.6666 15.5776V16.431H25.762C25.4783 16.1176 25.1654 15.8319 24.8276 15.5776H26.6666Z" fill="white"/>
<path d="M17.1733 15.4411C17.0367 15.5349 16.9173 15.6288 16.7893 15.7312C16.5985 15.8818 16.4162 16.0427 16.2431 16.2133C16.1066 16.3499 15.9743 16.4949 15.8506 16.64C10.449 17.1221 6.66872 18.3168 5.33325 20.0533V18.816C7.19779 17.2331 10.6453 16.4139 14.0287 15.9957C10.6453 15.5691 7.20205 14.7499 5.33325 13.1669V11.9467C6.77539 13.8027 11.0677 15.0485 17.1733 15.4411Z" fill="white"/>
<path d="M26.6666 15.5819V16.4352H25.762C25.4783 16.1219 25.1654 15.8361 24.8276 15.5819H26.6666Z" fill="white"/>
<path d="M26.6666 12.1643V13.0177H24.9002C16.3669 13.0177 10.1418 10.1206 10.1418 6.13126C10.1418 6.13126 10.1418 5.6406 10.1418 5.35046H10.9952C10.9952 5.55526 10.9952 5.97766 10.9952 6.13126C10.9952 9.5446 16.9685 12.1857 24.9002 12.1857L26.6666 12.1643Z" fill="white"/>
<path d="M14.8522 18.2485C14.7099 18.5636 14.5957 18.8905 14.5108 19.2256C9.52738 20.6123 6.16951 23.1936 6.16951 26.1419C6.16941 26.3175 6.18224 26.4929 6.20791 26.6667H5.35458C5.33033 26.4928 5.31893 26.3174 5.32045 26.1419C5.33325 22.6517 9.15618 19.6907 14.8522 18.2485Z" fill="white"/>
<path d="M10.9952 25.8432C10.9952 26.0096 10.9952 26.4917 10.9952 26.6667H10.1418C10.1418 26.3851 10.1418 25.8517 10.1418 25.8432C10.1418 23.8635 11.6864 22.1525 14.2933 20.9365C14.2943 21.2393 14.3172 21.5416 14.3616 21.8411C12.2453 22.8864 10.9952 24.2773 10.9952 25.8432Z" fill="white"/>
<path d="M20.9065 15.1467C19.7673 15.1467 18.6536 15.4845 17.7064 16.1175C16.7592 16.7504 16.0209 17.65 15.5849 18.7025C15.149 19.755 15.0349 20.9131 15.2572 22.0304C15.4794 23.1478 16.028 24.1741 16.8336 24.9797C17.6391 25.7852 18.6654 26.3338 19.7828 26.5561C20.9001 26.7783 22.0582 26.6642 23.1107 26.2283C24.1632 25.7923 25.0628 25.054 25.6958 24.1068C26.3287 23.1596 26.6665 22.0459 26.6665 20.9067C26.6642 19.3798 26.0567 17.916 24.9769 16.8363C23.8972 15.7566 22.4334 15.149 20.9065 15.1467ZM25.5998 22.4001C25.4564 22.8567 25.2435 23.2884 24.9684 23.6801H22.835V24.5334H24.2174C23.3149 25.3573 22.137 25.8141 20.915 25.8141C19.693 25.8141 18.5151 25.3573 17.6126 24.5334H18.1332V23.6801H16.8532C16.5781 23.2884 16.3651 22.8567 16.2217 22.4001H18.1332V21.5467H16.0425C15.9856 21.122 15.9856 20.6915 16.0425 20.2667H18.5598V19.4134H16.2345C16.3779 18.9568 16.5909 18.525 16.866 18.1334H21.5593V17.2801H17.6041C18.5066 16.4562 19.6845 15.9994 20.9065 15.9994C22.1285 15.9994 23.3064 16.4562 24.2089 17.2801H22.8265C22.7133 17.2801 22.6048 17.325 22.5248 17.405C22.4448 17.485 22.3998 17.5936 22.3998 17.7067V19.8401C22.3998 19.9532 22.4448 20.0617 22.5248 20.1418C22.6048 20.2218 22.7133 20.2667 22.8265 20.2667H24.9598C25.073 20.2667 25.1815 20.2218 25.2615 20.1418C25.3415 20.0617 25.3865 19.9532 25.3865 19.8401V18.9099C25.6681 19.5379 25.8136 20.2185 25.8132 20.9067C25.8141 21.1208 25.7998 21.3347 25.7705 21.5467H22.8265V22.4001H25.5998ZM24.5545 18.1334V19.4134H23.2745V18.1334H24.5545Z" fill="white"/>
<path d="M21.5467 19.4133H19.4133V20.2667H21.5467V19.4133Z" fill="white"/>
<path d="M21.5466 24.5334H19.4132C19.3001 24.5334 19.1916 24.4885 19.1115 24.4084C19.0315 24.3284 18.9866 24.2199 18.9866 24.1068V21.9734C18.9866 21.8603 19.0315 21.7517 19.1115 21.6717C19.1916 21.5917 19.3001 21.5468 19.4132 21.5468H21.5466C21.6597 21.5468 21.7683 21.5917 21.8483 21.6717C21.9283 21.7517 21.9732 21.8603 21.9732 21.9734V24.1068C21.9732 24.2199 21.9283 24.3284 21.8483 24.4084C21.7683 24.4885 21.6597 24.5334 21.5466 24.5334ZM19.8399 23.6801H21.1199V22.4001H19.8399V23.6801Z" fill="white"/>
</g>
<defs>
<linearGradient id="paint0_linear_850_21548" x1="-6.62613" y1="38.6304" x2="38.6304" y2="-6.62613" gradientUnits="userSpaceOnUse">
<stop stop-color="#4D27A8"/>
<stop offset="1" stop-color="#A166FF"/>
</linearGradient>
<clipPath id="clip0_850_21548">
<rect width="32" height="32" fill="white"/>
</clipPath>
</defs>
</svg>
