<svg width="32" height="32" viewBox="0 0 32 32" fill="none" xmlns="http://www.w3.org/2000/svg">
<g clip-path="url(#clip0_850_21543)">
<path d="M32 0H0V32H32V0Z" fill="url(#paint0_linear_850_21543)"/>
<path d="M25.9712 22.4427L20.288 16.7381C21.0235 15.1999 21.2391 13.4643 20.9023 11.7928C20.5655 10.1214 19.6945 8.60468 18.4207 7.47132C17.1469 6.33797 15.5392 5.64935 13.8399 5.50926C12.1406 5.36917 10.4418 5.78519 8.99957 6.69462C7.55732 7.60406 6.44973 8.95763 5.84374 10.5514C5.23774 12.1451 5.16617 13.8926 5.63981 15.5305C6.11345 17.1684 7.10663 18.6081 8.46969 19.6324C9.83274 20.6567 11.4918 21.2103 13.1968 21.2096C14.5277 21.213 15.8369 20.8736 16.9984 20.224L22.5878 25.8133C23.0398 26.2372 23.6387 26.4689 24.2583 26.4595C24.8778 26.4501 25.4695 26.2005 25.9085 25.7631C26.3474 25.3258 26.5993 24.7351 26.6111 24.1156C26.6228 23.4961 26.3934 22.8963 25.9712 22.4427V22.4427ZM13.1968 20.3563C11.811 20.3563 10.4564 19.9453 9.30415 19.1753C8.15195 18.4053 7.25399 17.3109 6.72386 16.0304C6.19373 14.75 6.05524 13.3412 6.32591 11.9821C6.59658 10.6229 7.26424 9.37462 8.24446 8.395C9.22467 7.41538 10.4734 6.74848 11.8327 6.47864C13.192 6.20879 14.6007 6.34814 15.8808 6.87905C17.1609 7.40997 18.2548 8.30859 19.0241 9.46126C19.7934 10.6139 20.2036 11.9689 20.2027 13.3547C20.2004 15.2117 19.4615 16.9919 18.148 18.3046C16.8345 19.6173 15.0538 20.3551 13.1968 20.3563ZM25.3654 25.2075C25.223 25.3505 25.0538 25.4641 24.8675 25.5415C24.6811 25.619 24.4813 25.6589 24.2795 25.6589C24.0777 25.6589 23.8779 25.619 23.6915 25.5415C23.5052 25.4641 23.336 25.3505 23.1936 25.2075L17.7408 19.7632C18.5926 19.1609 19.3175 18.3969 19.8742 17.5147L25.3782 23.0613C25.6576 23.3494 25.8129 23.7357 25.8105 24.137C25.8081 24.5384 25.6483 24.9228 25.3654 25.2075V25.2075ZM24.512 13.9776C24.5048 14.3798 24.3996 14.7742 24.2055 15.1266C24.0115 15.479 23.7345 15.7788 23.3984 16C22.9148 16.3387 22.3488 16.5407 21.76 16.5845H21.2907C21.402 16.3053 21.4989 16.0205 21.5808 15.7312H21.76C22.181 15.6909 22.5848 15.544 22.9334 15.3045C23.1566 15.1582 23.3423 14.9615 23.4757 14.7303C23.6091 14.4991 23.6864 14.2398 23.7014 13.9733C23.7003 13.5674 23.5457 13.177 23.2688 12.8802C22.9918 12.5835 22.6129 12.4024 22.208 12.3733C22.0941 12.3578 21.9896 12.3018 21.9136 12.2155C21.8773 12.1712 21.8503 12.12 21.8341 12.065C21.818 12.01 21.8131 11.9524 21.8198 11.8955V11.8571C21.8196 11.683 21.7693 11.5126 21.6747 11.3664C21.5789 10.9455 21.449 10.5332 21.2864 10.1333C21.6324 10.2105 21.9474 10.3895 22.1907 10.6473C22.4341 10.9051 22.5947 11.2299 22.6518 11.5797C23.1888 11.7107 23.6662 12.0184 24.0074 12.4532C24.3486 12.888 24.5338 13.4249 24.5334 13.9776H24.512ZM18.8502 10.9355V11.0379C18.6575 10.9975 18.4579 11.0035 18.268 11.0554C18.0781 11.1074 17.9032 11.2037 17.7579 11.3365C17.7069 11.3846 17.6449 11.4194 17.5772 11.4378C17.5096 11.4562 17.4385 11.4577 17.3702 11.4421C17.3018 11.4265 17.2384 11.3943 17.1855 11.3483C17.1326 11.3024 17.0918 11.2441 17.0667 11.1787C16.8754 10.678 16.5584 10.235 16.1463 9.89226C15.7342 9.54953 15.2408 9.31863 14.7137 9.22177C14.1865 9.12491 13.6433 9.16535 13.1363 9.33919C12.6293 9.51304 12.1755 9.81444 11.8187 10.2144C11.3094 10.7781 11.028 11.5112 11.0294 12.2709C11.0293 12.3609 11.0008 12.4486 10.9479 12.5214C10.8951 12.5942 10.8205 12.6484 10.735 12.6763C10.3598 12.7979 10.0236 13.0167 9.76052 13.3105C9.49746 13.6043 9.31695 13.9626 9.23738 14.3488V14.3488C9.21133 14.4895 9.19847 14.6324 9.19898 14.7755C9.20123 15.3669 9.43778 15.9334 9.85682 16.3509C10.2759 16.7683 10.8432 17.0027 11.4347 17.0027H18.1419C17.9111 17.3089 17.6542 17.5944 17.3739 17.856H11.4006C10.9486 17.8592 10.5014 17.7624 10.0912 17.5726C9.6809 17.3829 9.31764 17.1048 9.02738 16.7582C8.73712 16.4117 8.52702 16.0053 8.41212 15.5682C8.29721 15.131 8.28034 14.6738 8.36271 14.2293C8.36271 14.2293 8.36271 14.2293 8.36271 14.2037C8.45543 13.7134 8.66686 13.2533 8.9785 12.8635C9.29014 12.4738 9.69252 12.1663 10.1504 11.968C10.2318 10.9719 10.6844 10.0428 11.4185 9.36475C12.1527 8.6867 13.1148 8.30924 14.1142 8.30721C14.8284 8.30839 15.5291 8.50147 16.1431 8.86626C16.7571 9.23105 17.2617 9.75414 17.6043 10.3808C17.8675 10.2406 18.1596 10.1632 18.4576 10.1547C18.6091 10.404 18.7404 10.6651 18.8502 10.9355V10.9355Z" fill="white"/>
</g>
<defs>
<linearGradient id="paint0_linear_850_21543" x1="-6.62613" y1="38.6261" x2="38.6261" y2="-6.62613" gradientUnits="userSpaceOnUse">
<stop stop-color="#4D27A8"/>
<stop offset="1" stop-color="#A166FF"/>
</linearGradient>
<clipPath id="clip0_850_21543">
<rect width="32" height="32" fill="white"/>
</clipPath>
</defs>
</svg>
