<svg width="32" height="32" viewBox="0 0 32 32" fill="none" xmlns="http://www.w3.org/2000/svg">
<g clip-path="url(#clip0_850_21842)">
<path d="M32 0H0V32H32V0Z" fill="url(#paint0_linear_850_21842)"/>
<path fill-rule="evenodd" clip-rule="evenodd" d="M7.20005 16C7.20005 16.4408 6.84165 16.8 6.40005 16.8C5.95845 16.8 5.60005 16.4408 5.60005 16C5.60005 15.5592 5.95845 15.2 6.40005 15.2C6.84165 15.2 7.20005 15.5592 7.20005 16ZM4.80005 16C4.80005 16.8824 5.51765 17.6 6.40005 17.6C7.28245 17.6 8.00005 16.8824 8.00005 16C8.00005 15.1176 7.28245 14.4 6.40005 14.4C5.51765 14.4 4.80005 15.1176 4.80005 16ZM27.2 6.37765V25.6224C27.2 26.492 26.492 27.2 25.6216 27.2H6.37845C5.50805 27.2 4.80005 26.492 4.80005 25.6224V18.4H5.60005V25.6224C5.60005 26.0512 5.94965 26.4 6.37845 26.4H25.6216C26.0504 26.4 26.4 26.0512 26.4 25.6224V6.37765C26.4 5.94885 26.0504 5.60005 25.6216 5.60005H6.37845C5.94965 5.60005 5.60005 5.94885 5.60005 6.37765V13.6H4.80005V6.37765C4.80005 5.50805 5.50805 4.80005 6.37845 4.80005H25.6216C26.492 4.80005 27.2 5.50805 27.2 6.37765ZM6.40005 22.4H8.55445C10.8376 22.4 13.4576 20.9008 14.5184 18.9864L15.2184 19.3744C14.0096 21.5552 11.1448 23.2 8.55445 23.2H6.40005V22.4ZM22.4504 8.40085H24.1048L23.2456 7.54085L23.8112 6.97525L25.4632 8.62805C25.6192 8.78405 25.6192 9.03685 25.4632 9.19365L23.8112 10.8456L23.2456 10.28L24.3248 9.20085H22.5208C20.436 9.20085 17.8136 10.304 16.4968 12.7688L15.7904 12.392C17.0664 10.0048 19.7424 8.40085 22.4504 8.40085ZM15.9032 16.1312C15.9728 19.5872 18.844 22.4 22.304 22.4H24.204L23.2456 21.4408L23.8112 20.8752L25.4632 22.528C25.6192 22.684 25.6192 22.9376 25.4632 23.0936L23.8112 24.7464L23.2456 24.1808L24.2256 23.2H22.3728C18.412 23.2 15.1816 20.036 15.1032 16.1472C15.0304 12.476 12.2184 9.60005 8.70325 9.60005H6.40005V8.80005H8.70325C12.6584 8.80005 15.8208 12.02 15.9032 16.1312ZM9.60005 13.6C9.15845 13.6 8.80005 13.2408 8.80005 12.8C8.80005 12.3592 9.15845 12 9.60005 12C10.0416 12 10.4 12.3592 10.4 12.8C10.4 13.2408 10.0416 13.6 9.60005 13.6ZM9.60005 11.2C8.71765 11.2 8.00005 11.9176 8.00005 12.8C8.00005 13.6824 8.71765 14.4 9.60005 14.4C10.4824 14.4 11.2 13.6824 11.2 12.8C11.2 11.9176 10.4824 11.2 9.60005 11.2ZM12.1192 17.5904L11.5904 18.7536L10.4264 18.2248L10.9552 17.0616L12.1192 17.5904ZM9.36725 18.6216L11.9872 19.8136L13.1792 17.1936L10.5584 16.0016L9.36725 18.6216ZM23.2 12.8H24.8128L24.8008 17.6H23.1944L23.2 12.8ZM22.3936 18.4H25.5992L25.6144 12H22.4008L22.3936 18.4ZM18.3992 13.6H20.0128L20.0008 17.6H18.3952L18.3992 13.6ZM17.5936 18.4H20.7992L20.8144 12.8H17.6008L17.5936 18.4Z" fill="white"/>
</g>
<defs>
<linearGradient id="paint0_linear_850_21842" x1="-6.62613" y1="38.6261" x2="38.6261" y2="-6.62613" gradientUnits="userSpaceOnUse">
<stop stop-color="#4D27A8"/>
<stop offset="1" stop-color="#A166FF"/>
</linearGradient>
<clipPath id="clip0_850_21842">
<rect width="32" height="32" fill="white"/>
</clipPath>
</defs>
</svg>
