<svg width="32" height="32" viewBox="0 0 32 32" fill="none" xmlns="http://www.w3.org/2000/svg">
<g clip-path="url(#clip0_850_21557)">
<path d="M32 0H0V32H32V0Z" fill="url(#paint0_linear_850_21557)"/>
<path d="M16.0127 26.4192C15.7737 26.4192 15.5348 26.4107 15.2959 26.3936C14.0525 26.3048 12.839 25.9702 11.7258 25.4092C10.6126 24.8482 9.6217 24.072 8.81055 23.1254C7.55595 21.6583 6.77616 19.8449 6.57427 17.9251C6.37239 16.0053 6.75791 14.0694 7.67988 12.3734L8.42655 12.8C7.48125 14.542 7.16355 16.5559 7.52671 18.5042C7.88987 20.4526 8.91181 22.2168 10.4212 23.5012C11.9306 24.7856 13.8356 25.512 15.817 25.5587C17.7983 25.6053 19.7354 24.9694 21.3036 23.7575C22.8718 22.5456 23.9757 20.8315 24.4302 18.9024C24.8847 16.9733 24.6621 14.9467 23.7999 13.1622C22.9377 11.3777 21.4881 9.94385 19.6944 9.1011C17.9006 8.25835 15.8716 8.05791 13.9476 8.53338L13.7471 7.68005C15.0504 7.36043 16.4067 7.3209 17.7265 7.56406C19.0462 7.80722 20.2994 8.32754 21.4033 9.09068C22.5071 9.85381 23.4365 10.8424 24.1302 11.9912C24.8239 13.14 25.266 14.4228 25.4273 15.7551C25.5887 17.0873 25.4656 18.4386 25.0663 19.7198C24.667 21.0009 24.0004 22.1828 23.1107 23.1874C22.221 24.192 21.1282 24.9965 19.9047 25.5477C18.6812 26.0989 17.3546 26.3843 16.0127 26.3851V26.4192Z" fill="white"/>
<path d="M11.3705 19.2C11.2708 19.2002 11.1742 19.1655 11.0975 19.1019L9.48892 17.7707C9.42155 17.7149 9.37297 17.6397 9.34976 17.5553C9.32655 17.471 9.32984 17.3815 9.35918 17.2991C9.38851 17.2166 9.44249 17.1452 9.51378 17.0945C9.58507 17.0438 9.67023 17.0162 9.75772 17.0155H10.3935V16.3712H11.2468V17.4336C11.2501 17.5299 11.2207 17.6245 11.1633 17.702C11.106 17.7795 11.0241 17.8353 10.9311 17.8603L11.3577 18.2187L11.7844 17.8645C11.6881 17.8429 11.6024 17.7885 11.5417 17.7107C11.481 17.6329 11.4492 17.5365 11.4516 17.4379V16.3712H12.3049V17.0069H12.9407C13.0283 17.007 13.1139 17.034 13.1857 17.0844C13.2574 17.1348 13.3119 17.2061 13.3417 17.2885C13.3717 17.3711 13.3755 17.4608 13.3526 17.5456C13.3297 17.6303 13.2812 17.706 13.2137 17.7621L11.6351 19.0891C11.5623 19.1555 11.4689 19.1947 11.3705 19.2Z" fill="white"/>
<path d="M11.3705 16.1579C11.0421 16.1555 10.7168 16.0933 10.4105 15.9745C10.3288 15.9449 10.258 15.891 10.2076 15.8201C10.1573 15.7492 10.1299 15.6646 10.1289 15.5777V14.9334L7.01001 10.0438L7.72681 9.58299L10.914 14.5579C10.9584 14.6266 10.9821 14.7066 10.9823 14.7883V15.2577C11.2264 15.3152 11.4806 15.3152 11.7247 15.2577V14.7883C11.7249 14.7066 11.7486 14.6266 11.7929 14.5579L14.9801 9.57019L15.7012 10.0267L12.578 14.9334V15.599C12.5772 15.6837 12.5513 15.7663 12.5034 15.8362C12.4555 15.9061 12.3879 15.9602 12.3092 15.9915C12.0105 16.1089 11.6914 16.1655 11.3705 16.1579V16.1579Z" fill="white"/>
<path d="M11.3535 10.9526C10.7604 10.9526 7.76524 10.9185 7.12098 10.2699C7.09218 10.2425 7.06773 10.2108 7.04844 10.1761L6.99724 10.0822C6.97139 10.0389 6.95402 9.99116 6.94604 9.9414C6.94604 9.92007 6.94604 9.88167 6.94604 9.86033C6.94604 9.16487 8.34551 8.79793 11.1103 8.76807V9.6214C10.179 9.61365 9.24902 9.69365 8.33271 9.86033C9.32825 10.0364 10.3384 10.1164 11.3492 10.0993C12.36 10.1131 13.3698 10.0332 14.3658 9.86033C14.1823 9.82193 13.9391 9.78353 13.649 9.74513L13.7514 8.8918C15.1807 9.06673 15.761 9.34407 15.761 9.8518C15.7589 9.95179 15.7321 10.0497 15.6829 10.1368C15.6338 10.2239 15.5639 10.2975 15.4794 10.351C14.8692 10.7947 12.8767 10.9526 11.3535 10.9526Z" fill="white"/>
<path d="M12.9493 9.89009H11.8869C11.7737 9.89009 11.6652 9.84514 11.5852 9.76512C11.5052 9.68511 11.4602 9.57659 11.4602 9.46343V8.39676C11.4602 8.2836 11.5052 8.17508 11.5852 8.09506C11.6652 8.01504 11.7737 7.97009 11.8869 7.97009H12.9493C13.0624 7.97009 13.171 8.01504 13.251 8.09506C13.331 8.17508 13.3759 8.2836 13.3759 8.39676V9.46343C13.3759 9.57659 13.331 9.68511 13.251 9.76512C13.171 9.84514 13.0624 9.89009 12.9493 9.89009ZM12.3135 9.03676H12.5226V8.82343H12.3135V9.03676Z" fill="white"/>
<path d="M12.4158 7.49654H11.3534C11.2403 7.49654 11.1317 7.45159 11.0517 7.37158C10.9717 7.29156 10.9268 7.18304 10.9268 7.06988V6.00748C10.9268 5.89432 10.9717 5.78579 11.0517 5.70578C11.1317 5.62576 11.2403 5.58081 11.3534 5.58081H12.4158C12.529 5.58081 12.6375 5.62576 12.7175 5.70578C12.7975 5.78579 12.8425 5.89432 12.8425 6.00748V7.06988C12.8425 7.18304 12.7975 7.29156 12.7175 7.37158C12.6375 7.45159 12.529 7.49654 12.4158 7.49654ZM11.7801 6.64321H11.9892V6.43414H11.7801V6.64321Z" fill="white"/>
<path d="M10.2911 8.82345H9.22867C9.11551 8.82345 9.00699 8.7785 8.92697 8.69848C8.84695 8.61846 8.802 8.50994 8.802 8.39678V7.33438C8.802 7.22122 8.84695 7.1127 8.92697 7.03268C9.00699 6.95267 9.11551 6.90771 9.22867 6.90771H10.2911C10.4042 6.90771 10.5128 6.95267 10.5928 7.03268C10.6728 7.1127 10.7177 7.22122 10.7177 7.33438V8.39678C10.7177 8.50994 10.6728 8.61846 10.5928 8.69848C10.5128 8.7785 10.4042 8.82345 10.2911 8.82345ZM9.65534 7.97011H9.8644V7.76105H9.65534V7.97011Z" fill="white"/>
<path d="M19.8654 23.0827C19.6312 23.0821 19.3997 23.0324 19.1858 22.9369C18.972 22.8413 18.7805 22.7021 18.6238 22.528C18.4673 22.7024 18.2759 22.8418 18.062 22.9373C17.848 23.0327 17.6164 23.0821 17.3822 23.0821C17.1479 23.0821 16.9163 23.0327 16.7024 22.9373C16.4885 22.8418 16.297 22.7024 16.1406 22.528C15.9841 22.7024 15.7927 22.8418 15.5788 22.9373C15.3648 23.0327 15.1332 23.0821 14.899 23.0821C14.6647 23.0821 14.4331 23.0327 14.2192 22.9373C14.0053 22.8418 13.8138 22.7024 13.6574 22.528C13.501 22.7025 13.3096 22.842 13.0957 22.9376C12.8817 23.0332 12.6501 23.0826 12.4158 23.0827V22.2294C12.6312 22.2282 12.8374 22.1419 12.9893 21.9892C13.1412 21.8365 13.2264 21.6298 13.2264 21.4144H14.0798C14.0798 21.6306 14.1656 21.8378 14.3185 21.9907C14.4713 22.1435 14.6786 22.2294 14.8947 22.2294C15.1108 22.2294 15.3181 22.1435 15.4709 21.9907C15.6238 21.8378 15.7096 21.6306 15.7096 21.4144H16.563C16.563 21.6306 16.6488 21.8378 16.8017 21.9907C16.9545 22.1435 17.1618 22.2294 17.3779 22.2294C17.594 22.2294 17.8013 22.1435 17.9541 21.9907C18.107 21.8378 18.1928 21.6306 18.1928 21.4144H19.0462C19.0473 21.6302 19.1335 21.8368 19.2861 21.9894C19.4387 22.142 19.6453 22.2282 19.8611 22.2294L19.8654 23.0827Z" fill="white"/>
<path d="M21.9818 13.9733C21.7475 13.9732 21.5159 13.9238 21.3019 13.8282C21.088 13.7327 20.8966 13.5931 20.7402 13.4187C20.5838 13.593 20.3923 13.7324 20.1784 13.8279C19.9645 13.9233 19.7329 13.9727 19.4986 13.9727C19.2644 13.9727 19.0327 13.9233 18.8188 13.8279C18.6049 13.7324 18.4135 13.593 18.257 13.4187C18.1006 13.593 17.9091 13.7324 17.6952 13.8279C17.4813 13.9233 17.2497 13.9727 17.0154 13.9727C16.7812 13.9727 16.5495 13.9233 16.3356 13.8279C16.1217 13.7324 15.9303 13.593 15.7738 13.4187C15.6181 13.594 15.4269 13.7341 15.2128 13.8297C14.9987 13.9254 14.7667 13.9743 14.5322 13.9733V13.12C14.6403 13.1217 14.7477 13.1019 14.848 13.0617C14.9484 13.0215 15.0397 12.9617 15.1168 12.8859C15.1938 12.81 15.255 12.7196 15.2967 12.6199C15.3385 12.5202 15.36 12.4132 15.36 12.3051H16.2133C16.2133 12.5212 16.2992 12.7285 16.452 12.8813C16.6048 13.0341 16.8121 13.12 17.0282 13.12C17.2444 13.12 17.4516 13.0341 17.6045 12.8813C17.7573 12.7285 17.8432 12.5212 17.8432 12.3051H18.6965C18.6965 12.5212 18.7824 12.7285 18.9352 12.8813C19.088 13.0341 19.2953 13.12 19.5114 13.12C19.7276 13.12 19.9348 13.0341 20.0877 12.8813C20.2405 12.7285 20.3264 12.5212 20.3264 12.3051H21.1797C21.1808 12.5208 21.267 12.7275 21.4196 12.8801C21.5722 13.0326 21.7788 13.1189 21.9946 13.12L21.9818 13.9733Z" fill="white"/>
<path d="M22.72 18.2613C22.4857 18.2612 22.254 18.2118 22.0401 18.1162C21.8262 18.0206 21.6348 17.8811 21.4784 17.7066C21.3219 17.881 21.1305 18.0204 20.9166 18.1159C20.7027 18.2113 20.471 18.2606 20.2368 18.2606C20.0025 18.2606 19.7709 18.2113 19.557 18.1159C19.3431 18.0204 19.1517 17.881 18.9952 17.7066C18.8391 17.8809 18.6481 18.0202 18.4345 18.1156C18.2209 18.2111 17.9896 18.2604 17.7557 18.2604C17.5218 18.2604 17.2905 18.2111 17.077 18.1156C16.8634 18.0202 16.6723 17.8809 16.5163 17.7066C16.3599 17.8811 16.1685 18.0206 15.9545 18.1162C15.7406 18.2118 15.509 18.2612 15.2747 18.2613V17.408C15.4904 17.4068 15.6971 17.3206 15.8497 17.168C16.0023 17.0154 16.0885 16.8088 16.0896 16.593H16.9429C16.9348 16.7047 16.9498 16.8169 16.987 16.9225C17.0242 17.0281 17.0827 17.125 17.159 17.207C17.2353 17.289 17.3276 17.3544 17.4303 17.3991C17.533 17.4438 17.6437 17.4669 17.7557 17.4669C17.8677 17.4669 17.9785 17.4438 18.0812 17.3991C18.1838 17.3544 18.2762 17.289 18.3524 17.207C18.4287 17.125 18.4873 17.0281 18.5244 16.9225C18.5616 16.8169 18.5766 16.7047 18.5685 16.593H19.4219C19.4219 16.8092 19.5077 17.0164 19.6605 17.1693C19.8134 17.3221 20.0207 17.408 20.2368 17.408C20.4529 17.408 20.6602 17.3221 20.813 17.1693C20.9659 17.0164 21.0517 16.8092 21.0517 16.593H21.9051C21.9051 16.8092 21.9909 17.0164 22.1437 17.1693C22.2966 17.3221 22.5039 17.408 22.72 17.408C22.9361 17.408 23.1434 17.3221 23.2962 17.1693C23.4491 17.0164 23.5349 16.8092 23.5349 16.593H24.3883C24.3883 17.0355 24.2125 17.4598 23.8996 17.7727C23.5868 18.0855 23.1624 18.2613 22.72 18.2613V18.2613Z" fill="white"/>
</g>
<defs>
<linearGradient id="paint0_linear_850_21557" x1="-6.62613" y1="38.6304" x2="38.6304" y2="-6.62613" gradientUnits="userSpaceOnUse">
<stop stop-color="#4D27A8"/>
<stop offset="1" stop-color="#A166FF"/>
</linearGradient>
<clipPath id="clip0_850_21557">
<rect width="32" height="32" fill="white"/>
</clipPath>
</defs>
</svg>
