<svg width="32" height="32" viewBox="0 0 32 32" fill="none" xmlns="http://www.w3.org/2000/svg">
<g clip-path="url(#clip0_850_21837)">
<path d="M32 0H0V32H32V0Z" fill="url(#paint0_linear_850_21837)"/>
<path fill-rule="evenodd" clip-rule="evenodd" d="M13.0384 21.7936L11.4104 20.1656L13.0384 18.5376L12.4728 17.972L10.5616 19.8824C10.4056 20.0392 10.4056 20.292 10.5616 20.448L12.4728 22.3592L13.0384 21.7936ZM21.0832 11.648C21.2392 11.492 21.2392 11.2392 21.0832 11.0824L19.172 9.17198L18.6064 9.73758L20.2344 11.3656L18.6064 12.9936L19.172 13.5592L21.0832 11.648ZM20 20.816H24.8V20.016H20V20.816ZM15.2 24.016H27.2V23.216H15.2V24.016ZM7.20005 12.016H12V11.216H7.20005V12.016ZM4.80005 8.81598H16.8V8.01598H4.80005V8.81598ZM19.412 5.59998C18.3808 5.59998 17.3624 5.86318 16.4664 6.36158L16.8552 7.06078C17.632 6.62878 18.5168 6.39998 19.412 6.39998C22.3168 6.39998 24.68 8.76318 24.68 11.668C24.68 14.5728 22.3168 16.936 19.412 16.936C19.0608 16.936 18.7152 16.888 18.3736 16.8168C18.3512 16.8776 18.1088 17.5456 18.0976 17.5776C18.5288 17.6744 18.9672 17.736 19.412 17.736C22.7576 17.736 25.48 15.0136 25.48 11.668C25.48 8.32238 22.7576 5.59998 19.412 5.59998ZM14.324 13.0432C14.2048 12.596 14.144 12.1336 14.144 11.668C14.144 10.9688 14.2784 10.2912 14.5432 9.65358L13.804 9.34638C13.4984 10.0816 13.344 10.8632 13.344 11.668C13.344 12.204 13.4144 12.736 13.5528 13.2504L14.324 13.0432ZM17.2 25.616H7.60005C7.37925 25.616 7.20005 25.4376 7.20005 25.216V15.616C7.20005 15.3952 7.37925 15.216 7.60005 15.216H17.2C17.4216 15.216 17.6 15.3952 17.6 15.616V22.416H16.8V16.016H8.00005V24.816H17.6V25.216C17.6 25.4376 17.4216 25.616 17.2 25.616Z" fill="white"/>
</g>
<defs>
<linearGradient id="paint0_linear_850_21837" x1="-6.62613" y1="38.6261" x2="38.6261" y2="-6.62613" gradientUnits="userSpaceOnUse">
<stop stop-color="#4D27A8"/>
<stop offset="1" stop-color="#A166FF"/>
</linearGradient>
<clipPath id="clip0_850_21837">
<rect width="32" height="32" fill="white"/>
</clipPath>
</defs>
</svg>
