<svg width="32" height="32" viewBox="0 0 32 32" fill="none" xmlns="http://www.w3.org/2000/svg">
<g clip-path="url(#clip0_850_21826)">
<path d="M32 0H0V32H32V0Z" fill="url(#paint0_linear_850_21826)"/>
<path fill-rule="evenodd" clip-rule="evenodd" d="M25.2 24C24.5384 24 24 23.4616 24 22.8C24 22.1384 24.5384 21.6 25.2 21.6C25.8616 21.6 26.4 22.1384 26.4 22.8C26.4 23.4616 25.8616 24 25.2 24ZM25.2 20.8C24.7848 20.8 24.3992 20.9272 24.0792 21.1448L22.2672 19.3328L21.7016 19.8984L23.5224 21.7184C23.32 22.0312 23.2 22.4008 23.2 22.8C23.2 23.9024 24.0968 24.8 25.2 24.8C26.3032 24.8 27.2 23.9024 27.2 22.8C27.2 21.6976 26.3032 20.8 25.2 20.8ZM25.2 8.00005C25.8616 8.00005 26.4 8.53845 26.4 9.20005C26.4 9.86165 25.8616 10.4 25.2 10.4C24.5384 10.4 24 9.86165 24 9.20005C24 8.53845 24.5384 8.00005 25.2 8.00005ZM22.2672 12.6672L24.0792 10.8552C24.3992 11.0728 24.7848 11.2 25.2 11.2C26.3032 11.2 27.2 10.3024 27.2 9.20005C27.2 8.09765 26.3032 7.20005 25.2 7.20005C24.0968 7.20005 23.2 8.09765 23.2 9.20005C23.2 9.59925 23.32 9.96885 23.5224 10.2816L21.7016 12.1016L22.2672 12.6672ZM6.80005 24C6.13845 24 5.60005 23.4616 5.60005 22.8C5.60005 22.1384 6.13845 21.6 6.80005 21.6C7.46165 21.6 8.00005 22.1384 8.00005 22.8C8.00005 23.4616 7.46165 24 6.80005 24ZM9.73285 19.3328L7.92085 21.1448C7.60085 20.9272 7.21525 20.8 6.80005 20.8C5.69685 20.8 4.80005 21.6976 4.80005 22.8C4.80005 23.9024 5.69685 24.8 6.80005 24.8C7.90325 24.8 8.80005 23.9024 8.80005 22.8C8.80005 22.4008 8.68005 22.0312 8.47765 21.7184L10.2984 19.8984L9.73285 19.3328ZM5.60005 9.20005C5.60005 8.53845 6.13845 8.00005 6.80005 8.00005C7.46165 8.00005 8.00005 8.53845 8.00005 9.20005C8.00005 9.86165 7.46165 10.4 6.80005 10.4C6.13845 10.4 5.60005 9.86165 5.60005 9.20005ZM8.80005 9.20005C8.80005 8.09765 7.90325 7.20005 6.80005 7.20005C5.69685 7.20005 4.80005 8.09765 4.80005 9.20005C4.80005 10.3024 5.69685 11.2 6.80005 11.2C7.21525 11.2 7.60085 11.0728 7.92085 10.8552L9.73285 12.6672L10.2984 12.1016L8.47765 10.2816C8.68005 9.96885 8.80005 9.59925 8.80005 9.20005ZM16 16.8C16.22 16.8 16.4 16.9792 16.4 17.2C16.4 17.4208 16.22 17.6 16 17.6C15.78 17.6 15.6 17.4208 15.6 17.2C15.6 16.9792 15.78 16.8 16 16.8ZM15.6 18.3264V19.2H16.4V18.3264C16.8648 18.1608 17.2 17.7208 17.2 17.2C17.2 16.5384 16.6616 16 16 16C15.3384 16 14.8 16.5384 14.8 17.2C14.8 17.7208 15.1352 18.1608 15.6 18.3264ZM12 20.8H20V15.2H12V20.8ZM13.6 12.3208C13.6 11.7024 14.1024 11.2 14.72 11.2H17.2672C17.892 11.2 18.4 11.708 18.4 12.3328V14.4H13.6V12.3208ZM17.2 25.2008C17.2 25.8624 16.6616 26.4008 16 26.4008C15.3384 26.4008 14.8 25.8624 14.8 25.2008C14.8 24.5392 15.3384 24.0008 16 24.0008C16.6616 24.0008 17.2 24.5392 17.2 25.2008ZM14.8 6.80005C14.8 6.13845 15.3384 5.60005 16 5.60005C16.6616 5.60005 17.2 6.13845 17.2 6.80005C17.2 7.46165 16.6616 8.00005 16 8.00005C15.3384 8.00005 14.8 7.46165 14.8 6.80005ZM20.116 14.4H19.2V12.3328C19.2 11.2664 18.3328 10.4 17.2672 10.4H16.4V8.75925C17.312 8.57365 18 7.76565 18 6.80005C18 5.69765 17.1032 4.80005 16 4.80005C14.8968 4.80005 14 5.69765 14 6.80005C14 7.76565 14.688 8.57365 15.6 8.75925V10.4H14.72C13.6616 10.4 12.8 11.2616 12.8 12.3208V14.4H11.884C11.5072 14.4 11.2 14.7 11.2 15.0696V20.9304C11.2 21.3 11.5072 21.6 11.884 21.6H15.6V23.2416C14.688 23.4272 14 24.2352 14 25.2008C14 26.3032 14.8968 27.2008 16 27.2008C17.1032 27.2008 18 26.3032 18 25.2008C18 24.2352 17.312 23.4272 16.4 23.2416V21.6H20.4C20.6208 21.6 20.8 21.4208 20.8 21.2V15.0696C20.8 14.7 20.4928 14.4 20.116 14.4Z" fill="white"/>
</g>
<defs>
<linearGradient id="paint0_linear_850_21826" x1="-6.62613" y1="38.6261" x2="38.6261" y2="-6.62613" gradientUnits="userSpaceOnUse">
<stop stop-color="#4D27A8"/>
<stop offset="1" stop-color="#A166FF"/>
</linearGradient>
<clipPath id="clip0_850_21826">
<rect width="32" height="32" fill="white"/>
</clipPath>
</defs>
</svg>
