<svg width="32" height="32" viewBox="0 0 32 32" fill="none" xmlns="http://www.w3.org/2000/svg">
<g clip-path="url(#clip0_850_21556)">
<path d="M32 0H0V32H32V0Z" fill="url(#paint0_linear_850_21556)"/>
<path d="M16.0255 26.6667C15.9258 26.6669 15.8292 26.6322 15.7524 26.5686L13.1668 24.4352C13.0994 24.379 13.0509 24.3034 13.028 24.2187C13.0051 24.1339 13.0089 24.0441 13.0388 23.9616C13.0687 23.8792 13.1231 23.8079 13.1949 23.7575C13.2667 23.7071 13.3522 23.6801 13.4399 23.68H14.7199V22.4H15.5732V24.1067C15.5732 24.2198 15.5283 24.3284 15.4483 24.4084C15.3683 24.4884 15.2597 24.5334 15.1466 24.5334H14.626L16.0212 25.6854L17.3908 24.5334H16.8532C16.7401 24.5334 16.6316 24.4884 16.5515 24.4084C16.4715 24.3284 16.4266 24.2198 16.4266 24.1067V22.4H17.2799V23.68H18.5599C18.6468 23.6809 18.7313 23.7082 18.8022 23.7584C18.8731 23.8086 18.927 23.8792 18.9567 23.9609C18.9864 24.0425 18.9904 24.1312 18.9683 24.2152C18.9462 24.2993 18.899 24.3745 18.833 24.431L16.2986 26.5643C16.2224 26.6294 16.1257 26.6657 16.0255 26.6667Z" fill="white"/>
<path d="M19.8272 10.6667L19.7248 11.52C20.4274 11.5716 21.1202 11.7151 21.7856 11.9467C21.0304 12.2752 18.9013 12.5867 16 12.5867C13.0133 12.5867 10.88 12.2454 10.2016 11.9467C10.816 11.6864 12.5824 11.3366 15.5733 11.3067V10.4534C9.76637 10.5131 9.1733 11.5158 9.1733 11.9467C9.1714 11.9751 9.1714 12.0036 9.1733 12.032C9.18197 12.0843 9.19927 12.1348 9.2245 12.1814L9.30983 12.3307C9.32869 12.3646 9.35161 12.3962 9.3781 12.4246C9.42151 12.4671 9.46863 12.5056 9.5189 12.5398L14.2933 19.9851V21.1243C14.293 21.2115 14.3194 21.2967 14.369 21.3684C14.4186 21.4401 14.489 21.4949 14.5706 21.5254C15.037 21.7021 15.5311 21.7945 16.0298 21.7984C16.513 21.797 16.9913 21.7013 17.4378 21.5168C17.5165 21.4855 17.5841 21.4314 17.632 21.3615C17.6799 21.2916 17.7059 21.209 17.7066 21.1243V19.9808L22.4597 12.544C22.5669 12.4842 22.6569 12.3979 22.7212 12.2933C22.7854 12.1887 22.8217 12.0694 22.8266 11.9467C22.8266 11.4902 22.4725 10.9824 19.8272 10.6667ZM16.9216 19.6267C16.8772 19.6954 16.8535 19.7753 16.8533 19.8571V20.8214C16.2975 20.9941 15.7024 20.9941 15.1466 20.8214V19.8571C15.1464 19.7753 15.1227 19.6954 15.0784 19.6267L10.8416 13.0091C12.5431 13.3184 14.2707 13.4613 16 13.4358C17.7262 13.4572 19.4506 13.3143 21.1498 13.0091L16.9216 19.6267Z" fill="white"/>
<path d="M18.5598 11.7333H16.8532C16.74 11.7333 16.6315 11.6884 16.5515 11.6084C16.4715 11.5284 16.4265 11.4198 16.4265 11.3067V9.60001C16.4265 9.48685 16.4715 9.37832 16.5515 9.29831C16.6315 9.21829 16.74 9.17334 16.8532 9.17334H18.5598C18.673 9.17334 18.7815 9.21829 18.8615 9.29831C18.9416 9.37832 18.9865 9.48685 18.9865 9.60001V11.3067C18.9865 11.4198 18.9416 11.5284 18.8615 11.6084C18.7815 11.6884 18.673 11.7333 18.5598 11.7333ZM17.2798 10.88H18.1332V10.0267H17.2798V10.88Z" fill="white"/>
<path d="M17.7066 7.89337H15.9999C15.8867 7.89337 15.7782 7.84842 15.6982 7.76841C15.6182 7.68839 15.5732 7.57987 15.5732 7.46671V5.76004C15.5732 5.64688 15.6182 5.53836 15.6982 5.45834C15.7782 5.37833 15.8867 5.33337 15.9999 5.33337H17.7066C17.8197 5.33337 17.9283 5.37833 18.0083 5.45834C18.0883 5.53836 18.1332 5.64688 18.1332 5.76004V7.46671C18.1332 7.57987 18.0883 7.68839 18.0083 7.76841C17.9283 7.84842 17.8197 7.89337 17.7066 7.89337ZM16.4266 7.04004H17.2799V6.18671H16.4266V7.04004Z" fill="white"/>
<path d="M14.2932 10.0267H12.5866C12.4734 10.0267 12.3649 9.98172 12.2849 9.90171C12.2049 9.82169 12.1599 9.71317 12.1599 9.60001V7.89334C12.1599 7.78018 12.2049 7.67166 12.2849 7.59164C12.3649 7.51163 12.4734 7.46667 12.5866 7.46667H14.2932C14.4064 7.46667 14.5149 7.51163 14.5949 7.59164C14.675 7.67166 14.7199 7.78018 14.7199 7.89334V9.60001C14.7199 9.71317 14.675 9.82169 14.5949 9.90171C14.5149 9.98172 14.4064 10.0267 14.2932 10.0267ZM13.0132 9.17334H13.8666V8.32001H13.0132V9.17334Z" fill="white"/>
</g>
<defs>
<linearGradient id="paint0_linear_850_21556" x1="-6.62613" y1="38.6261" x2="38.6261" y2="-6.62613" gradientUnits="userSpaceOnUse">
<stop stop-color="#4D27A8"/>
<stop offset="1" stop-color="#A166FF"/>
</linearGradient>
<clipPath id="clip0_850_21556">
<rect width="32" height="32" fill="white"/>
</clipPath>
</defs>
</svg>
