<svg width="32" height="32" viewBox="0 0 32 32" fill="none" xmlns="http://www.w3.org/2000/svg">
<g clip-path="url(#clip0_850_21794)">
<path d="M32 0H0V32H32V0Z" fill="url(#paint0_linear_850_21794)"/>
<path fill-rule="evenodd" clip-rule="evenodd" d="M16.8 14.4H19.2V15.2H16.8V17.6H16V15.2H13.6V14.4H16V12H16.8V14.4ZM24.7464 11.2344C23.7016 11.2344 23.2392 10.9584 23.2 10.8776L23.1968 5.97365C23.2408 5.87765 23.7064 5.60005 24.7464 5.60005C25.7464 5.60005 26.3104 5.86005 26.4 5.98005L26.4064 10.8472C26.3352 10.9776 25.7584 11.2344 24.7464 11.2344ZM16.4 19.2C13.9744 19.2 12 17.2264 12 14.8C12 12.3736 13.9744 10.4 16.4 10.4C18.8256 10.4 20.8 12.3736 20.8 14.8C20.8 17.2264 18.8256 19.2 16.4 19.2ZM24.3568 16.8C25.0896 16.8 25.4936 16.9664 25.6 17.0488L25.6208 20.5336C25.564 20.6048 25.1576 20.8 24.3568 20.8C23.62 20.8 23.2432 20.6288 23.2 20.6104L23.1832 17.052C23.2432 16.9736 23.6208 16.8 24.3568 16.8ZM20 26.256C19.892 26.3144 19.6104 26.4 19.1672 26.4C18.7232 26.4 18.4864 26.3152 18.4 26.2664V23.3344C18.4872 23.2864 18.724 23.2 19.1672 23.2C19.6096 23.2 19.8912 23.2864 20 23.3456V26.256ZM7.53525 24C6.10405 24 5.60005 23.6008 5.60005 23.516V18.0848C5.62805 17.9472 6.24485 17.6 7.53525 17.6C8.83445 17.6 9.53045 17.9488 9.60005 18.0936L9.60165 23.5048C9.54885 23.6456 8.85525 24 7.53525 24ZM8.80005 11.056C8.69205 11.1144 8.41045 11.2 7.96725 11.2C7.52325 11.2 7.28645 11.1152 7.20005 11.0664V8.13445C7.28725 8.08645 7.52405 8.00005 7.96725 8.00005C8.40965 8.00005 8.69125 8.08645 8.80005 8.14565V11.056ZM24.7464 4.80005C23.3208 4.80005 22.4 5.25365 22.4 5.95685V8.89925L19.9592 11.0192C19.028 10.1424 17.7776 9.60005 16.4 9.60005C14.5752 9.60005 12.9704 10.5472 12.0424 11.9728L9.60005 9.92645V8.05125C9.60005 7.53365 8.95925 7.20005 7.96725 7.20005C7.00085 7.20005 6.40005 7.52645 6.40005 8.05125V11.1488C6.40005 11.6736 7.00085 12 7.96725 12C8.97445 12 9.60005 11.6736 9.60005 11.1488V10.9704L11.6512 12.6896C11.364 13.3352 11.2 14.0488 11.2 14.8C11.2 15.9688 11.592 17.0448 12.2464 17.9144L10.4 19.548V18.084C10.4 17.1976 8.96085 16.8 7.53525 16.8C5.87365 16.8 4.80005 17.304 4.80005 18.084V23.516C4.80005 24.296 5.87365 24.8 7.53525 24.8C8.85685 24.8 10.4 24.464 10.4 23.516V20.616L12.7712 18.5176C13.7096 19.4336 14.9888 20 16.4 20C16.7048 20 17.0016 19.968 17.2912 19.9176L18.5496 22.4544C17.952 22.5664 17.6 22.8504 17.6 23.2512V26.3488C17.6 26.8736 18.2008 27.2 19.1672 27.2C20.1744 27.2 20.8 26.8736 20.8 26.3488V23.2512C20.8 22.78 20.2656 22.464 19.4208 22.4112L18.084 19.7152C19.0696 19.376 19.92 18.7496 20.5384 17.9352L22.4 18.7488V20.6104C22.4 21.2208 23.1496 21.6 24.3568 21.6C25.2992 21.6 26.4 21.3408 26.4 20.6104V16.9896C26.4 16.2592 25.2992 16 24.3568 16C23.1496 16 22.4 16.3792 22.4 16.9896V17.876L20.9816 17.256C21.3752 16.524 21.6 15.688 21.6 14.8C21.6 13.5976 21.1856 12.4928 20.4984 11.6112L22.4 9.95845V10.8776C22.4 11.58 23.3208 12.0344 24.7464 12.0344C25.8784 12.0344 27.2 11.7312 27.2 10.8776V5.95685C27.2 5.15765 25.9672 4.80005 24.7464 4.80005Z" fill="white"/>
</g>
<defs>
<linearGradient id="paint0_linear_850_21794" x1="-6.62613" y1="38.6261" x2="38.6261" y2="-6.62613" gradientUnits="userSpaceOnUse">
<stop stop-color="#4D27A8"/>
<stop offset="1" stop-color="#A166FF"/>
</linearGradient>
<clipPath id="clip0_850_21794">
<rect width="32" height="32" fill="white"/>
</clipPath>
</defs>
</svg>
