<svg width="32" height="32" viewBox="0 0 32 32" fill="none" xmlns="http://www.w3.org/2000/svg">
<g clip-path="url(#clip0_850_21555)">
<path d="M32 0H0V32H32V0Z" fill="url(#paint0_linear_850_21555)"/>
<path d="M25.2287 11.8741H24.2559C23.876 11.8753 23.5121 12.0267 23.2435 12.2953C22.9748 12.5639 22.8234 12.9279 22.8223 13.3077V13.44H17.7023V10.88H18.3892C18.6705 11.153 19.0469 11.306 19.4389 11.3067C19.8739 11.2889 20.2841 11.0992 20.5793 10.7792C20.8745 10.4592 21.0306 10.035 21.0133 9.59999C21.0306 9.16496 20.8745 8.74083 20.5793 8.42082C20.2841 8.1008 19.8739 7.91108 19.4389 7.89333C19.0565 7.89812 18.6909 8.05108 18.4191 8.32H17.6895C17.693 7.85244 17.5186 7.40105 17.2017 7.05723C16.8848 6.71342 16.4491 6.50288 15.9829 6.46826C15.5166 6.50288 15.0809 6.71342 14.764 7.05723C14.4471 7.40105 14.2727 7.85244 14.2762 8.32H13.6191C13.3473 8.05108 12.9817 7.89812 12.5994 7.89333C12.1651 7.91218 11.756 8.10238 11.4617 8.42227C11.1674 8.74216 11.0119 9.16566 11.0293 9.59999C11.0119 10.0343 11.1674 10.4578 11.4617 10.7777C11.756 11.0976 12.1651 11.2878 12.5994 11.3067C12.9917 11.3078 13.3687 11.1546 13.649 10.88H14.2933V13.44H9.14338V13.2992C9.14226 12.9209 8.99117 12.5584 8.72324 12.2913C8.45531 12.0241 8.0924 11.8741 7.71405 11.8741H6.76259C6.38424 11.8741 6.02133 12.0241 5.7534 12.2913C5.48547 12.5584 5.33438 12.9209 5.33325 13.2992V24.1109C5.33325 24.49 5.48384 24.8536 5.75189 25.1216C6.01995 25.3897 6.3835 25.5403 6.76259 25.5403H7.71405C8.09313 25.5403 8.45669 25.3897 8.72474 25.1216C8.9928 24.8536 9.14338 24.49 9.14338 24.1109H22.8223C22.8234 24.4908 22.9748 24.8548 23.2435 25.1234C23.5121 25.392 23.876 25.5434 24.2559 25.5445H25.2287C25.6101 25.5445 25.9758 25.393 26.2454 25.1234C26.5151 24.8537 26.6666 24.488 26.6666 24.1067V13.3077C26.6655 12.9271 26.5135 12.5625 26.2439 12.2938C25.9744 12.025 25.6093 11.8741 25.2287 11.8741V11.8741ZM8.31992 24.1109C8.31936 24.1871 8.3038 24.2625 8.27412 24.3327C8.24444 24.4029 8.20123 24.4665 8.14695 24.52C8.09267 24.5735 8.02839 24.6158 7.95777 24.6444C7.88715 24.673 7.81159 24.6875 7.73538 24.6869H6.76685C6.69085 24.6875 6.61549 24.673 6.54512 24.6443C6.47474 24.6156 6.41074 24.5733 6.3568 24.5197C6.30286 24.4662 6.26005 24.4025 6.23084 24.3323C6.20162 24.2622 6.18658 24.1869 6.18659 24.1109V23.2576H8.31992V24.1109ZM8.31992 22.4043H6.18659V15.1509H8.31992V22.4043ZM8.31992 14.2976H6.18659V13.2992C6.18714 13.2236 6.2026 13.1488 6.23206 13.0791C6.26152 13.0094 6.30442 12.9462 6.3583 12.8931C6.41219 12.8401 6.476 12.7981 6.5461 12.7697C6.6162 12.7412 6.69121 12.7269 6.76685 12.7275H7.73538C7.81138 12.7263 7.88685 12.7403 7.95745 12.7684C8.02804 12.7966 8.09236 12.8385 8.14669 12.8916C8.20103 12.9448 8.24431 13.0081 8.27404 13.0781C8.30377 13.148 8.31936 13.2232 8.31992 13.2992V14.2976ZM15.9999 7.31733C16.2411 7.35083 16.4615 7.47205 16.6189 7.65781C16.7763 7.84358 16.8598 8.08085 16.8533 8.32426H15.1466C15.1385 8.08267 15.219 7.84646 15.3731 7.66018C15.5271 7.4739 15.744 7.35043 15.9829 7.31306L15.9999 7.31733ZM13.457 10.0267C13.393 10.0196 13.3284 10.0292 13.2693 10.0546C13.2102 10.0801 13.1587 10.1204 13.1199 10.1717C13.0607 10.2556 12.983 10.3247 12.8927 10.3736C12.8024 10.4224 12.702 10.4497 12.5994 10.4533C12.3922 10.4327 12.2012 10.332 12.0673 10.1725C11.9334 10.0131 11.8671 9.80764 11.8826 9.59999C11.8671 9.39235 11.9334 9.18688 12.0673 9.02744C12.2012 8.868 12.3922 8.76724 12.5994 8.74666C12.6981 8.74909 12.7951 8.77375 12.883 8.81881C12.9709 8.86387 13.0475 8.92817 13.1071 9.00693C13.1468 9.05587 13.1969 9.09541 13.2537 9.12271C13.3105 9.15001 13.3726 9.16438 13.4357 9.16479H18.5941C18.6578 9.16501 18.7208 9.15094 18.7784 9.12362C18.836 9.09631 18.8867 9.05643 18.9269 9.00693C18.986 8.92872 19.062 8.86476 19.1491 8.81972C19.2362 8.77468 19.3323 8.74972 19.4303 8.74666C19.6383 8.7662 19.8303 8.86651 19.9651 9.02607C20.0999 9.18562 20.1668 9.39168 20.1514 9.59999C20.1668 9.80831 20.0999 10.0144 19.9651 10.1739C19.8303 10.3335 19.6383 10.4338 19.4303 10.4533C19.3277 10.4497 19.2273 10.4224 19.137 10.3736C19.0467 10.3247 18.969 10.2556 18.9098 10.1717C18.871 10.1204 18.8195 10.0801 18.7604 10.0546C18.7013 10.0292 18.6367 10.0196 18.5727 10.0267H13.457ZM16.8703 10.88V13.44H15.1637V10.88H16.8703ZM22.8437 23.2533H9.19032V21.9733H22.8437V23.2533ZM22.8437 21.12H9.19032V16H22.8437V21.12ZM22.8437 15.1467H9.19032V14.2933H22.8437V15.1467ZM25.8303 24.1067C25.8303 24.2606 25.7692 24.4082 25.6604 24.517C25.5515 24.6258 25.4039 24.6869 25.25 24.6869H24.2559C24.102 24.6869 23.9544 24.6258 23.8456 24.517C23.7368 24.4082 23.6757 24.2606 23.6757 24.1067V23.2533H25.809L25.8303 24.1067ZM25.8303 22.4H23.697V15.1467H25.8303V22.4ZM25.8303 14.2933H23.697V13.3077C23.697 13.1538 23.7581 13.0062 23.8669 12.8974C23.9758 12.7886 24.1234 12.7275 24.2773 12.7275H25.2543C25.4082 12.7275 25.5558 12.7886 25.6646 12.8974C25.7734 13.0062 25.8346 13.1538 25.8346 13.3077L25.8303 14.2933Z" fill="white"/>
</g>
<defs>
<linearGradient id="paint0_linear_850_21555" x1="-6.62613" y1="38.6304" x2="38.6304" y2="-6.62613" gradientUnits="userSpaceOnUse">
<stop stop-color="#4D27A8"/>
<stop offset="1" stop-color="#A166FF"/>
</linearGradient>
<clipPath id="clip0_850_21555">
<rect width="32" height="32" fill="white"/>
</clipPath>
</defs>
</svg>
