<?xml version="1.0" encoding="UTF-8" standalone="no"?>
<svg
   xmlns:dc="http://purl.org/dc/elements/1.1/"
   xmlns:cc="http://creativecommons.org/ns#"
   xmlns:rdf="http://www.w3.org/1999/02/22-rdf-syntax-ns#"
   xmlns:svg="http://www.w3.org/2000/svg"
   xmlns="http://www.w3.org/2000/svg"
   xmlns:sodipodi="http://sodipodi.sourceforge.net/DTD/sodipodi-0.dtd"
   xmlns:inkscape="http://www.inkscape.org/namespaces/inkscape"
   aria-hidden="true"
   focusable="false"
   data-prefix="fas"
   data-icon="cubes"
   class="svg-inline--fa fa-cubes fa-w-16"
   role="img"
   viewBox="0 0 512 512"
   version="1.1"
   id="svg92"
   sodipodi:docname="light.svg"
   inkscape:version="1.0.1 (0767f8302a, 2020-10-17)">
  <metadata
     id="metadata98">
    <rdf:RDF>
      <cc:Work
         rdf:about="">
        <dc:format>image/svg+xml</dc:format>
        <dc:type
           rdf:resource="http://purl.org/dc/dcmitype/StillImage" />
      </cc:Work>
    </rdf:RDF>
  </metadata>
  <defs
     id="defs96" />
  <sodipodi:namedview
     pagecolor="#ffffff"
     bordercolor="#666666"
     borderopacity="1"
     objecttolerance="10"
     gridtolerance="10"
     guidetolerance="10"
     inkscape:pageopacity="0"
     inkscape:pageshadow="2"
     inkscape:window-width="1280"
     inkscape:window-height="710"
     id="namedview94"
     showgrid="false"
     inkscape:zoom="1.5019531"
     inkscape:cx="155.46424"
     inkscape:cy="256"
     inkscape:window-x="1512"
     inkscape:window-y="179"
     inkscape:window-maximized="0"
     inkscape:current-layer="svg92" />
  <path
     fill="currentColor"
     d="M 488.6,250.2 392,214 V 105.5 c 0,-15 -9.3,-28.4 -23.4,-33.7 l -100,-37.5 c -8.1,-3.1 -17.1,-3.1 -25.3,0 l -100,37.5 c -14.1,5.3 -23.4,18.7 -23.4,33.7 V 214 L 23.3,250.2 C 9.3,255.5 0,268.9 0,283.9 V 394 c 0,13.6 7.7,26.1 19.9,32.2 l 100,50 c 10.1,5.1 22.1,5.1 32.2,0 l 103.9,-52 103.9,52 c 10.1,5.1 22.1,5.1 32.2,0 l 100,-50 C 504.3,420.1 512,407.6 512,394 V 283.9 c 0,-15 -9.3,-28.4 -23.4,-33.7 z M 358,214.8 273,246.7 v -68.2 l 85,-37 z M 154,104.1 256,65.9 358,104.1 v 0.6 L 256,146.1 154,104.7 Z m 84,291.1 -85,42.5 v -79.1 l 85,-38.8 z m 0,-112 -102,41.4 -102,-41.4 v -0.6 l 102,-38.2 102,38.2 z m 240,112 -85,42.5 v -79.1 l 85,-38.8 z m 0,-112 -102,41.4 -102,-41.4 v -0.6 l 102,-38.2 102,38.2 z"
     id="path90"
     style="fill:#f12e58;image-rendering:optimizeQuality" />
</svg>
