<svg width="32" height="32" viewBox="0 0 32 32" fill="none" xmlns="http://www.w3.org/2000/svg">
<path d="M11.52 21.8491H20.0533V30.3824H11.52V21.8491ZM1.56445 10.4713H10.0978V1.93799H2.75556C2.43966 1.93799 2.1367 2.06348 1.91332 2.28686C1.68994 2.51023 1.56445 2.8132 1.56445 3.1291V10.4713ZM2.75556 30.3824H10.0978V21.8491H1.56445V29.1913C1.56445 29.5072 1.68994 29.8102 1.91332 30.0336C2.1367 30.2569 2.43966 30.3824 2.75556 30.3824ZM1.56445 20.4269H10.0978V11.8935H1.56445V20.4269ZM21.4756 30.3824H28.8356C29.1484 30.3778 29.4468 30.2502 29.6663 30.0273C29.8859 29.8045 30.0089 29.5042 30.0089 29.1913V21.8491H21.4756V30.3824ZM11.52 20.4269H20.0533V11.8935H11.52V20.4269ZM21.4756 20.4269H30.0089V11.8935H21.4756V20.4269ZM21.4756 1.93799V10.4713H30.0089V3.1291C30.0089 2.81625 29.8859 2.51595 29.6663 2.29308C29.4468 2.07021 29.1484 1.94266 28.8356 1.93799H21.4756ZM11.52 10.4713H20.0533V1.93799H11.52V10.4713Z" fill="url(#paint0_linear_868_8481)"/>
<defs>
<linearGradient id="paint0_linear_868_8481" x1="15.7867" y1="30.3824" x2="15.7867" y2="1.93799" gradientUnits="userSpaceOnUse">
<stop stop-color="#5E9624"/>
<stop offset="0.01" stop-color="#5E9724"/>
<stop offset="0.35" stop-color="#6CAB29"/>
<stop offset="0.68" stop-color="#73B82C"/>
<stop offset="1" stop-color="#76BC2D"/>
</linearGradient>
</defs>
</svg>
