<svg width="32" height="32" viewBox="0 0 32 32" fill="none" xmlns="http://www.w3.org/2000/svg">
<path d="M11.4436 3.29939L10.9244 2.78027C10.7578 2.61363 10.5317 2.52002 10.296 2.52002C10.0603 2.52002 9.83424 2.61363 9.66755 2.78027L4.63289 7.80783L2.56177 5.74027C2.39508 5.57363 2.16903 5.48002 1.93333 5.48002C1.69763 5.48002 1.47158 5.57363 1.30489 5.74027L0.783997 6.26116C0.617356 6.42785 0.523743 6.65391 0.523743 6.88961C0.523743 7.12531 0.617356 7.35136 0.783997 7.51805L4.00533 10.7447C4.08803 10.8272 4.18618 10.8926 4.29417 10.9371C4.40215 10.9817 4.51786 11.0045 4.63466 11.0043C4.86996 11.0042 5.09563 10.9109 5.26222 10.7447L11.4436 4.55627C11.6102 4.38958 11.7038 4.16353 11.7038 3.92783C11.7038 3.69213 11.6102 3.46608 11.4436 3.29939Z" fill="url(#paint0_linear_868_8525)"/>
<path d="M29.8347 5.24268H14.688C13.7818 5.24268 13.0471 5.97733 13.0471 6.88356V6.97068C13.0471 7.87691 13.7818 8.61156 14.688 8.61156H29.8347C30.7409 8.61156 31.4756 7.87691 31.4756 6.97068V6.88356C31.4756 5.97733 30.7409 5.24268 29.8347 5.24268Z" fill="#A3A3A3"/>
<path d="M29.8347 14.3521H14.688C13.7818 14.3521 13.0471 15.0867 13.0471 15.9929V16.0801C13.0471 16.9863 13.7818 17.7209 14.688 17.7209H29.8347C30.7409 17.7209 31.4756 16.9863 31.4756 16.0801V15.9929C31.4756 15.0867 30.7409 14.3521 29.8347 14.3521Z" fill="#A3A3A3"/>
<path d="M29.8347 23.4595H14.688C13.7818 23.4595 13.0471 24.1941 13.0471 25.1004V25.1875C13.0471 26.0937 13.7818 26.8284 14.688 26.8284H29.8347C30.7409 26.8284 31.4756 26.0937 31.4756 25.1875V25.1004C31.4756 24.1941 30.7409 23.4595 29.8347 23.4595Z" fill="#A3A3A3"/>
<path d="M11.4436 12.5385L10.9244 12.0176C10.7578 11.8509 10.5317 11.7573 10.296 11.7573C10.0603 11.7573 9.83424 11.8509 9.66755 12.0176L4.63289 17.0451L2.56177 14.9776C2.39508 14.8109 2.16903 14.7173 1.93333 14.7173C1.69763 14.7173 1.47158 14.8109 1.30489 14.9776L0.783997 15.4985C0.617356 15.6652 0.523743 15.8912 0.523743 16.1269C0.523743 16.3626 0.617356 16.5887 0.783997 16.7554L4.00533 19.982C4.08789 20.0648 4.18597 20.1305 4.29396 20.1754C4.40195 20.2202 4.51773 20.2433 4.63466 20.2434C4.87021 20.2428 5.09592 20.1488 5.26222 19.982L11.4436 13.7954C11.6102 13.6287 11.7038 13.4026 11.7038 13.1669C11.7038 12.9312 11.6102 12.7052 11.4436 12.5385Z" fill="url(#paint1_linear_868_8525)"/>
<path d="M11.4436 21.7761L10.9244 21.2552C10.8417 21.1727 10.7436 21.1073 10.6356 21.0628C10.5276 21.0182 10.4119 20.9954 10.2951 20.9956C10.1785 20.9951 10.063 21.0177 9.95523 21.0623C9.84748 21.1068 9.74969 21.1724 9.66755 21.2552L4.63289 26.2827L2.56177 24.2152C2.39508 24.0485 2.16903 23.9549 1.93333 23.9549C1.69763 23.9549 1.47158 24.0485 1.30489 24.2152L0.783997 24.7343C0.617356 24.901 0.523743 25.127 0.523743 25.3627C0.523743 25.5984 0.617356 25.8245 0.783997 25.9912L4.00533 29.2178C4.17202 29.3845 4.39807 29.4781 4.63378 29.4781C4.86948 29.4781 5.09553 29.3845 5.26222 29.2178L11.4436 23.0312C11.6097 22.8646 11.7029 22.6389 11.7029 22.4036C11.7029 22.1683 11.6097 21.9427 11.4436 21.7761Z" fill="url(#paint2_linear_868_8525)"/>
<defs>
<linearGradient id="paint0_linear_868_8525" x1="6.11378" y1="12.0905" x2="6.11378" y2="2.54561" gradientUnits="userSpaceOnUse">
<stop offset="0.2" stop-color="#0078D4"/>
<stop offset="0.287" stop-color="#1380DA"/>
<stop offset="0.759" stop-color="#5EA0EF"/>
</linearGradient>
<linearGradient id="paint1_linear_868_8525" x1="6.11378" y1="21.3296" x2="6.11378" y2="11.7829" gradientUnits="userSpaceOnUse">
<stop offset="0.2" stop-color="#0078D4"/>
<stop offset="0.287" stop-color="#1380DA"/>
<stop offset="0.759" stop-color="#5EA0EF"/>
</linearGradient>
<linearGradient id="paint2_linear_868_8525" x1="6.11378" y1="30.5672" x2="6.11378" y2="21.0205" gradientUnits="userSpaceOnUse">
<stop offset="0.2" stop-color="#0078D4"/>
<stop offset="0.287" stop-color="#1380DA"/>
<stop offset="0.759" stop-color="#5EA0EF"/>
</linearGradient>
</defs>
</svg>
