<svg width="32" height="32" viewBox="0 0 32 32" fill="none" xmlns="http://www.w3.org/2000/svg">
<g clip-path="url(#clip0_868_8516)">
<path d="M32 16.6187C31.9487 14.9137 31.2929 13.2824 30.1499 12.0163C29.0068 10.7501 27.4509 9.93151 25.76 9.70667C25.6555 7.32552 24.6175 5.08128 22.8708 3.45964C21.1241 1.838 18.809 0.969391 16.4267 1.04179C14.4999 1.00528 12.6095 1.56857 11.017 2.6537C9.42449 3.73884 8.20866 5.29215 7.53778 7.09867C5.50213 7.3471 3.62275 8.31633 2.24002 9.83081C0.857291 11.3453 0.0626445 13.3049 0 15.3547C0.0898196 17.6573 1.08836 19.8306 2.77701 21.3986C4.46565 22.9666 6.7068 23.8017 9.00978 23.7209C9.27822 23.7209 9.54311 23.7085 9.80444 23.6871H24.3947C24.5252 23.6855 24.655 23.6664 24.7804 23.6302C26.6554 23.6168 28.4528 22.8801 29.7979 21.5738C31.1429 20.2675 31.9318 18.4924 32 16.6187Z" fill="url(#paint0_linear_868_8516)"/>
<path d="M17.7564 17.9502H14.7466V27.4613H17.7564V17.9502Z" fill="#005BA1"/>
<path d="M24.7769 10.3109C24.7736 10.2155 24.7334 10.1251 24.6648 10.0587C24.5961 9.99237 24.5043 9.95531 24.4089 9.95536H20.0622C20.0295 9.95504 19.9975 9.96452 19.9702 9.98258C19.943 10.0006 19.9218 10.0265 19.9093 10.0567C19.8969 10.0869 19.8938 10.1202 19.9004 10.1522C19.9071 10.1842 19.9232 10.2135 19.9466 10.2363L21.2 11.4896L21.2835 11.5731C21.3133 11.6042 21.3299 11.6456 21.3299 11.6887C21.3299 11.7318 21.3133 11.7731 21.2835 11.8043L19.9555 13.1323C19.3025 12.2181 18.3472 11.5644 17.2586 11.2869V8.6647C17.2586 8.62115 17.2758 8.57937 17.3064 8.54841C17.3371 8.51746 17.3787 8.49983 17.4222 8.49936H19.3209C19.3533 8.49919 19.385 8.48946 19.412 8.47139C19.4389 8.45332 19.46 8.42771 19.4725 8.39776C19.485 8.36781 19.4884 8.33483 19.4823 8.30295C19.4762 8.27107 19.4609 8.24169 19.4382 8.21848L16.3555 5.13047C16.3213 5.09623 16.2808 5.06907 16.2361 5.05054C16.1914 5.032 16.1435 5.02246 16.0951 5.02246C16.0467 5.02246 15.9988 5.032 15.9541 5.05054C15.9094 5.06907 15.8688 5.09623 15.8346 5.13047L12.7413 8.21848C12.7179 8.24125 12.7018 8.27053 12.6951 8.30254C12.6885 8.33454 12.6915 8.36781 12.704 8.39804C12.7164 8.42827 12.7376 8.45409 12.7649 8.47215C12.7921 8.49021 12.8242 8.49969 12.8569 8.49936H14.7555C14.7994 8.49936 14.8414 8.51678 14.8724 8.54779C14.9034 8.57879 14.9209 8.62085 14.9209 8.6647V11.2869C13.7898 11.5724 12.8029 12.2632 12.1475 13.2283L10.7164 11.806C10.6866 11.7749 10.67 11.7335 10.67 11.6905C10.67 11.6474 10.6866 11.606 10.7164 11.5749L10.8 11.4914L12.0533 10.2469C12.081 10.2251 12.101 10.195 12.1102 10.1609C12.1194 10.1269 12.1174 10.0908 12.1044 10.058C12.0914 10.0252 12.0681 9.99752 12.0381 9.97902C12.0081 9.96052 11.9729 9.95222 11.9378 9.95536H7.59108C7.49379 9.95536 7.40046 9.99389 7.33149 10.0625C7.26253 10.1311 7.22355 10.2243 7.22308 10.3216V14.6647C7.22361 14.697 7.23358 14.7285 7.25178 14.7552C7.26998 14.7819 7.29561 14.8026 7.32549 14.8149C7.35538 14.8272 7.38821 14.8305 7.41993 14.8243C7.45165 14.8182 7.48087 14.8028 7.50397 14.7803L8.75731 13.5358L8.84086 13.4523C8.87153 13.4216 8.91309 13.4044 8.95642 13.4044C8.99975 13.4044 9.04131 13.4216 9.07197 13.4523L11.3386 15.7118C11.3386 15.7723 11.3386 15.8327 11.3386 15.8896C11.3386 16.5146 11.4617 17.1334 11.7009 17.7108C11.9401 18.2882 12.2906 18.8129 12.7326 19.2548C13.1745 19.6967 13.6991 20.0473 14.2765 20.2864C14.8539 20.5256 15.4728 20.6487 16.0978 20.6487C16.7227 20.6487 17.3416 20.5256 17.919 20.2864C18.4964 20.0473 19.021 19.6967 19.4629 19.2548C19.9049 18.8129 20.2554 18.2882 20.4946 17.7108C20.7338 17.1334 20.8569 16.5146 20.8569 15.8896C20.8569 15.7705 20.848 15.6531 20.8391 15.534L22.9369 13.4363C22.9675 13.4056 23.0091 13.3884 23.0524 13.3884C23.0957 13.3884 23.1373 13.4056 23.168 13.4363L23.2515 13.5198L24.5049 14.7731C24.528 14.7957 24.5572 14.8111 24.5889 14.8172C24.6206 14.8234 24.6535 14.8201 24.6833 14.8078C24.7132 14.7955 24.7388 14.7747 24.757 14.748C24.7752 14.7213 24.7852 14.6899 24.7857 14.6576L24.7769 10.3109Z" fill="white"/>
<path d="M16.1849 18.2739C17.4986 18.2739 18.5635 17.209 18.5635 15.8953C18.5635 14.5816 17.4986 13.5166 16.1849 13.5166C14.8712 13.5166 13.8062 14.5816 13.8062 15.8953C13.8062 17.209 14.8712 18.2739 16.1849 18.2739Z" fill="url(#paint1_linear_868_8516)"/>
<path d="M16.2115 30.9584C17.9248 30.9584 19.3138 29.5694 19.3138 27.8561C19.3138 26.1428 17.9248 24.7539 16.2115 24.7539C14.4982 24.7539 13.1093 26.1428 13.1093 27.8561C13.1093 29.5694 14.4982 30.9584 16.2115 30.9584Z" fill="url(#paint2_linear_868_8516)"/>
</g>
<defs>
<linearGradient id="paint0_linear_868_8516" x1="16" y1="23.7209" x2="16" y2="1.04179" gradientUnits="userSpaceOnUse">
<stop stop-color="#0078D4"/>
<stop offset="1" stop-color="#5EA0EF"/>
</linearGradient>
<linearGradient id="paint1_linear_868_8516" x1="16.1849" y1="18.2757" x2="16.1849" y2="13.5166" gradientUnits="userSpaceOnUse">
<stop stop-color="#76BC2D"/>
<stop offset="0.412" stop-color="#7AC32F"/>
<stop offset="1" stop-color="#86D633"/>
</linearGradient>
<linearGradient id="paint2_linear_868_8516" x1="16.2115" y1="30.9584" x2="16.2115" y2="24.7539" gradientUnits="userSpaceOnUse">
<stop stop-color="#0078D4"/>
<stop offset="1" stop-color="#5EA0EF"/>
</linearGradient>
<clipPath id="clip0_868_8516">
<rect width="32" height="32" fill="white"/>
</clipPath>
</defs>
</svg>
