<svg width="32" height="32" viewBox="0 0 32 32" fill="none" xmlns="http://www.w3.org/2000/svg">
<path d="M0.888916 10.2896H31.1111V27.1393C31.1111 27.4071 31.0048 27.664 30.8154 27.8533C30.626 28.0427 30.3692 28.1491 30.1014 28.1491H1.89869C1.63088 28.1491 1.37404 28.0427 1.18467 27.8533C0.995303 27.664 0.888916 27.4071 0.888916 27.1393V10.2896Z" fill="url(#paint0_linear_868_8501)"/>
<path d="M1.90403 3.8506H30.096C30.2286 3.8506 30.3599 3.87672 30.4825 3.92746C30.605 3.97821 30.7163 4.05259 30.81 4.14636C30.9038 4.24012 30.9782 4.35144 31.0289 4.47395C31.0797 4.59646 31.1058 4.72777 31.1058 4.86038V10.2897H0.888916V4.86038C0.888914 4.72732 0.915209 4.59558 0.966288 4.47272C1.01737 4.34986 1.09222 4.2383 1.18656 4.14447C1.28089 4.05063 1.39284 3.97636 1.51596 3.92593C1.63909 3.8755 1.77097 3.8499 1.90403 3.8506Z" fill="#198AB3"/>
<path d="M22.7876 12.3467H17.3102C17.2535 12.3467 17.1973 12.3579 17.1449 12.3796C17.0925 12.4013 17.0449 12.4331 17.0048 12.4732C16.9646 12.5133 16.9328 12.561 16.9111 12.6134C16.8894 12.6658 16.8782 12.722 16.8782 12.7787V24.5938C16.8782 24.7084 16.9237 24.8182 17.0048 24.8993C17.0858 24.9803 17.1957 25.0258 17.3102 25.0258H26.8036C26.8604 25.026 26.9168 25.015 26.9694 24.9934C27.0221 24.9718 27.0699 24.94 27.1102 24.8999C27.1505 24.8598 27.1825 24.8121 27.2043 24.7595C27.2261 24.707 27.2373 24.6507 27.2373 24.5938V16.7716C27.2373 16.6565 27.1916 16.5462 27.1103 16.4648C27.0289 16.3835 26.9186 16.3378 26.8036 16.3378H23.6533C23.5965 16.3378 23.5401 16.3266 23.4876 16.3047C23.4351 16.2829 23.3874 16.2509 23.3472 16.2106C23.3071 16.1703 23.2753 16.1225 23.2537 16.0699C23.2321 16.0173 23.2211 15.9609 23.2213 15.904V12.7787C23.2213 12.7218 23.2101 12.6655 23.1883 12.613C23.1665 12.5604 23.1345 12.5127 23.0942 12.4726C23.0539 12.4324 23.0061 12.4007 22.9534 12.3791C22.9008 12.3575 22.8444 12.3464 22.7876 12.3467Z" fill="white"/>
<path d="M22.5885 12.8994V15.8665C22.5889 16.1549 22.7037 16.4314 22.9077 16.6353C23.1116 16.8392 23.3881 16.954 23.6765 16.9545H26.6667V24.4727H17.4489V12.8994H22.5885ZM22.7982 12.2505H17.2445C17.128 12.2505 17.0163 12.2968 16.934 12.3791C16.8516 12.4615 16.8054 12.5731 16.8054 12.6896V24.6825C16.8054 24.7989 16.8516 24.9106 16.934 24.993C17.0163 25.0753 17.128 25.1216 17.2445 25.1216H26.88C26.9965 25.1216 27.1082 25.0753 27.1905 24.993C27.2729 24.9106 27.3191 24.7989 27.3191 24.6825V16.7447C27.3187 16.6284 27.2723 16.517 27.19 16.4347C27.1078 16.3525 26.9963 16.3061 26.88 16.3056H23.68C23.5636 16.3056 23.4519 16.2593 23.3695 16.177C23.2872 16.0946 23.2409 15.9829 23.2409 15.8665V12.6896C23.2409 12.5731 23.1947 12.4615 23.1123 12.3791C23.03 12.2968 22.9183 12.2505 22.8018 12.2505H22.7982Z" fill="#C3F1FF"/>
<path d="M27.1467 16.3929L23.0863 12.3467V15.6445C23.0856 15.7422 23.1041 15.8391 23.141 15.9297C23.1778 16.0202 23.2321 16.1026 23.3008 16.1721C23.3695 16.2416 23.4512 16.2969 23.5413 16.3348C23.6314 16.3727 23.7281 16.3924 23.8258 16.3929H27.1467Z" fill="#50E6FF"/>
<path d="M11.113 12.3467H5.63384C5.57711 12.3467 5.52094 12.3579 5.46852 12.3796C5.41611 12.4013 5.36849 12.4331 5.32837 12.4732C5.28826 12.5133 5.25644 12.5609 5.23473 12.6134C5.21302 12.6658 5.20184 12.7219 5.20184 12.7787V24.5938C5.20184 24.7084 5.24736 24.8182 5.32837 24.8993C5.40939 24.9803 5.51927 25.0258 5.63384 25.0258H15.129C15.2435 25.0258 15.3534 24.9803 15.4344 24.8993C15.5154 24.8182 15.561 24.7084 15.561 24.5938V16.7716C15.5612 16.7147 15.5502 16.6583 15.5286 16.6057C15.507 16.5531 15.4752 16.5053 15.4351 16.4649C15.3949 16.4246 15.3472 16.3927 15.2947 16.3708C15.2422 16.349 15.1858 16.3378 15.129 16.3378H11.977C11.9201 16.3378 11.8638 16.3266 11.8112 16.3047C11.7587 16.2829 11.711 16.2509 11.6709 16.2106C11.6307 16.1703 11.5989 16.1225 11.5773 16.0699C11.5557 16.0173 11.5447 15.9609 11.545 15.904V12.7787C11.545 12.6641 11.4994 12.5542 11.4184 12.4732C11.3374 12.3922 11.2275 12.3467 11.113 12.3467Z" fill="white"/>
<path d="M10.912 12.8994V15.8665C10.9125 16.1549 11.0273 16.4314 11.2312 16.6353C11.4352 16.8392 11.7116 16.954 12 16.9545H14.9903V24.4727H5.77426V12.8994H10.912ZM11.1218 12.2505H5.56448C5.50675 12.2503 5.44954 12.2615 5.39616 12.2834C5.34278 12.3054 5.29428 12.3378 5.25346 12.3786C5.21264 12.4194 5.1803 12.4679 5.15832 12.5213C5.13633 12.5747 5.12513 12.6319 5.12537 12.6896V24.6825C5.12513 24.7402 5.13633 24.7974 5.15832 24.8508C5.1803 24.9042 5.21264 24.9527 5.25346 24.9935C5.29428 25.0343 5.34278 25.0667 5.39616 25.0887C5.44954 25.1106 5.50675 25.1218 5.56448 25.1216H15.1983C15.256 25.1218 15.3132 25.1106 15.3666 25.0887C15.42 25.0667 15.4685 25.0343 15.5093 24.9935C15.5501 24.9527 15.5824 24.9042 15.6044 24.8508C15.6264 24.7974 15.6376 24.7402 15.6374 24.6825V16.7447C15.6374 16.6283 15.5911 16.5166 15.5088 16.4342C15.4264 16.3519 15.3147 16.3056 15.1983 16.3056H12C11.942 16.3061 11.8844 16.2951 11.8306 16.2732C11.7768 16.2514 11.7279 16.2192 11.6866 16.1784C11.6453 16.1376 11.6125 16.089 11.59 16.0355C11.5675 15.982 11.5558 15.9245 11.5556 15.8665V12.6896C11.5558 12.6319 11.5446 12.5747 11.5226 12.5213C11.5007 12.4679 11.4683 12.4194 11.4275 12.3786C11.3867 12.3378 11.3382 12.3054 11.2848 12.2834C11.2314 12.2615 11.1742 12.2503 11.1165 12.2505H11.1218Z" fill="#C3F1FF"/>
<path d="M15.4667 16.3929L11.4098 12.3467V15.6445C11.4091 15.7422 11.4277 15.8391 11.4645 15.9297C11.5013 16.0202 11.5556 16.1026 11.6243 16.1721C11.693 16.2416 11.7747 16.2969 11.8648 16.3348C11.9549 16.3727 12.0516 16.3924 12.1494 16.3929H15.4667Z" fill="#50E6FF"/>
<defs>
<linearGradient id="paint0_linear_868_8501" x1="16" y1="28.1491" x2="16" y2="10.2896" gradientUnits="userSpaceOnUse">
<stop stop-color="#32BEDD"/>
<stop offset="0.775" stop-color="#32D4F5"/>
</linearGradient>
</defs>
</svg>
