<svg width="32" height="32" viewBox="0 0 32 32" fill="none" xmlns="http://www.w3.org/2000/svg">
<path d="M0.888916 10.2896H31.1111V27.1393C31.1111 27.4071 31.0048 27.664 30.8154 27.8533C30.626 28.0427 30.3692 28.1491 30.1014 28.1491H1.89869C1.63088 28.1491 1.37404 28.0427 1.18467 27.8533C0.995303 27.664 0.888916 27.4071 0.888916 27.1393V10.2896Z" fill="url(#paint0_linear_868_8511)"/>
<path d="M1.90403 3.8506H30.096C30.2286 3.8506 30.3599 3.87672 30.4825 3.92746C30.605 3.97821 30.7163 4.05259 30.81 4.14636C30.9038 4.24012 30.9782 4.35144 31.0289 4.47395C31.0797 4.59646 31.1058 4.72777 31.1058 4.86038V10.2897H0.888916V4.86038C0.888914 4.72732 0.915209 4.59558 0.966288 4.47272C1.01737 4.34986 1.09222 4.2383 1.18656 4.14447C1.28089 4.05063 1.39284 3.97636 1.51596 3.92593C1.63909 3.8755 1.77097 3.8499 1.90403 3.8506Z" fill="#0078D4"/>
<path d="M14.8018 12.5312H4.64178C4.36392 12.5312 4.13867 12.7565 4.13867 13.0344V18.0868C4.13867 18.3647 4.36392 18.5899 4.64178 18.5899H14.8018C15.0796 18.5899 15.3049 18.3647 15.3049 18.0868V13.0344C15.3049 12.7565 15.0796 12.5312 14.8018 12.5312Z" fill="#0078D4"/>
<path d="M27.2605 12.5312H17.1005C16.8226 12.5312 16.5974 12.7565 16.5974 13.0344V18.0868C16.5974 18.3647 16.8226 18.5899 17.1005 18.5899H27.2605C27.5383 18.5899 27.7636 18.3647 27.7636 18.0868V13.0344C27.7636 12.7565 27.5383 12.5312 27.2605 12.5312Z" fill="white"/>
<path d="M14.7449 19.7832H4.5849C4.30704 19.7832 4.08179 20.0085 4.08179 20.2863V25.3388C4.08179 25.6166 4.30704 25.8419 4.5849 25.8419H14.7449C15.0228 25.8419 15.248 25.6166 15.248 25.3388V20.2863C15.248 20.0085 15.0228 19.7832 14.7449 19.7832Z" fill="#0078D4"/>
<path d="M27.2036 19.7832H17.0436C16.7657 19.7832 16.5405 20.0085 16.5405 20.2863V25.3388C16.5405 25.6166 16.7657 25.8419 17.0436 25.8419H27.2036C27.4814 25.8419 27.7067 25.6166 27.7067 25.3388V20.2863C27.7067 20.0085 27.4814 19.7832 27.2036 19.7832Z" fill="#0078D4"/>
<defs>
<linearGradient id="paint0_linear_868_8511" x1="16" y1="28.1491" x2="16" y2="10.2896" gradientUnits="userSpaceOnUse">
<stop stop-color="#32BEDD"/>
<stop offset="0.775" stop-color="#32D4F5"/>
</linearGradient>
</defs>
</svg>
