<svg width="32" height="32" viewBox="0 0 32 32" fill="none" xmlns="http://www.w3.org/2000/svg">
<g clip-path="url(#clip0_868_8527)">
<path d="M15.2443 0.312915L0.311498 15.2458C-0.105061 15.6623 -0.105061 16.3377 0.311498 16.7542L15.2443 31.6871C15.6609 32.1036 16.3363 32.1036 16.7528 31.6871L31.6857 16.7542C32.1022 16.3377 32.1022 15.6623 31.6857 15.2458L16.7528 0.312916C16.3363 -0.103644 15.6609 -0.103644 15.2443 0.312915Z" fill="url(#paint0_linear_868_8527)"/>
<path d="M26.1831 15.5286L23.1751 12.8157C22.7662 12.4086 22.5813 12.51 22.5813 13.1215V14.3233C22.5808 14.4234 22.5407 14.5193 22.4698 14.5899C22.3988 14.6605 22.3028 14.7002 22.2026 14.7002C21.2605 14.8237 20.3041 14.6305 19.4837 14.1509C18.6634 13.6714 18.0258 12.9328 17.6711 12.0513V6.4353C17.6711 6.2981 17.6166 6.16651 17.5196 6.06949C17.4226 5.97247 17.291 5.91797 17.1538 5.91797H14.5618C14.4246 5.91797 14.293 5.97247 14.196 6.06949C14.0989 6.16651 14.0444 6.2981 14.0444 6.4353V20.622C14.0444 20.6894 14.0176 20.7541 13.97 20.8017C13.9223 20.8494 13.8576 20.8762 13.7902 20.8762H10.8444C10.7944 20.8771 10.7457 20.8927 10.7044 20.921C10.6631 20.9493 10.631 20.9891 10.6121 21.0354C10.5931 21.0818 10.5882 21.1326 10.5979 21.1818C10.6076 21.2309 10.6315 21.2761 10.6666 21.3117L15.4578 26.1117C15.5106 26.165 15.5735 26.2072 15.6428 26.236C15.712 26.2648 15.7863 26.2797 15.8613 26.2797C15.9363 26.2797 16.0106 26.2648 16.0799 26.236C16.1491 26.2072 16.212 26.165 16.2649 26.1117L21.0649 21.3206C21.1 21.285 21.1239 21.2398 21.1336 21.1906C21.1433 21.1415 21.1384 21.0906 21.1195 21.0443C21.1005 20.9979 21.0684 20.9582 21.0271 20.9299C20.9858 20.9016 20.9372 20.886 20.8871 20.8851H17.9253C17.8912 20.8851 17.8574 20.8782 17.8259 20.8649C17.7945 20.8516 17.7661 20.8321 17.7423 20.8075C17.7186 20.7829 17.7001 20.7539 17.6878 20.722C17.6756 20.6901 17.6699 20.6561 17.6711 20.622V15.8522C19.0196 16.7174 20.5996 17.1515 22.2009 17.0966C22.2507 17.0954 22.3003 17.1043 22.3466 17.1226C22.393 17.141 22.4351 17.1685 22.4706 17.2035C22.5061 17.2385 22.5342 17.2803 22.5532 17.3264C22.5723 17.3725 22.5818 17.4219 22.5813 17.4717V18.7695C22.5813 19.278 22.8569 19.3935 23.1751 19.0753L26.1831 16.1491C26.2337 16.1147 26.2751 16.0684 26.3037 16.0144C26.3324 15.9603 26.3473 15.9 26.3473 15.8389C26.3473 15.7777 26.3324 15.7174 26.3037 15.6634C26.2751 15.6093 26.2337 15.563 26.1831 15.5286Z" fill="#C3F1FF"/>
</g>
<defs>
<linearGradient id="paint0_linear_868_8527" x1="15.9997" y1="35.2852" x2="15.9997" y2="-1.80276" gradientUnits="userSpaceOnUse">
<stop stop-color="#0078D4"/>
<stop offset="0.502" stop-color="#4093E6"/>
<stop offset="0.775" stop-color="#5EA0EF"/>
</linearGradient>
<clipPath id="clip0_868_8527">
<rect width="32" height="32" fill="white"/>
</clipPath>
</defs>
</svg>
