<svg width="32" height="32" viewBox="0 0 32 32" fill="none" xmlns="http://www.w3.org/2000/svg">
<path d="M0.888885 10.2896H31.1111V27.1393C31.1111 27.4071 31.0047 27.664 30.8153 27.8533C30.626 28.0427 30.3691 28.1491 30.1013 28.1491H1.89866C1.63085 28.1491 1.37401 28.0427 1.18464 27.8533C0.995273 27.664 0.888885 27.4071 0.888885 27.1393V10.2896Z" fill="url(#paint0_linear_868_8499)"/>
<path d="M1.904 3.8506H30.096C30.2286 3.8506 30.3599 3.87672 30.4824 3.92746C30.6049 3.97821 30.7163 4.05259 30.81 4.14636C30.9038 4.24012 30.9782 4.35144 31.0289 4.47395C31.0797 4.59646 31.1058 4.72777 31.1058 4.86038V10.2897H0.888885V4.86038C0.888884 4.72732 0.915178 4.59558 0.966257 4.47272C1.01734 4.34986 1.09219 4.2383 1.18653 4.14447C1.28086 4.05063 1.39281 3.97636 1.51593 3.92593C1.63906 3.8755 1.77094 3.8499 1.904 3.8506Z" fill="#0078D4"/>
<path d="M26.5404 5.77393H5.45954C5.1807 5.77393 4.95465 5.99997 4.95465 6.27881V7.86281C4.95465 8.14166 5.1807 8.3677 5.45954 8.3677H26.5404C26.8193 8.3677 27.0453 8.14166 27.0453 7.86281V6.27881C27.0453 5.99997 26.8193 5.77393 26.5404 5.77393Z" fill="#F2F2F2"/>
<defs>
<linearGradient id="paint0_linear_868_8499" x1="16" y1="28.1491" x2="16" y2="10.2896" gradientUnits="userSpaceOnUse">
<stop stop-color="#32BEDD"/>
<stop offset="0.175" stop-color="#32CAEA"/>
<stop offset="0.41" stop-color="#32D2F2"/>
<stop offset="0.775" stop-color="#32D4F5"/>
</linearGradient>
</defs>
</svg>
