<svg width="32" height="32" viewBox="0 0 32 32" fill="none" xmlns="http://www.w3.org/2000/svg">
<path d="M16 8.46043C15.886 8.46048 15.7734 8.43514 15.6704 8.38625C15.5673 8.33735 15.4765 8.26614 15.4044 8.17776L10.4267 2.13332C10.3124 1.97532 10.2628 1.77961 10.288 1.58624C10.3133 1.39288 10.4115 1.21647 10.5625 1.09313C10.7136 0.969795 10.9061 0.908846 11.1006 0.922761C11.2951 0.936676 11.4769 1.0244 11.6089 1.16799L15.9911 6.48887L20.3058 1.17154C20.4336 1.01406 20.6187 0.913791 20.8204 0.892787C21.0221 0.871783 21.2239 0.931766 21.3813 1.05954C21.5388 1.18732 21.6391 1.37242 21.6601 1.57412C21.6811 1.77583 21.6211 1.97762 21.4933 2.1351L16.5884 8.17776C16.5172 8.26531 16.4276 8.33604 16.3258 8.3849C16.2241 8.43376 16.1128 8.45956 16 8.46043Z" fill="#773ADC"/>
<path d="M2.88178 15.71C2.67904 15.71 2.4846 15.6294 2.34124 15.4861C2.19788 15.3427 2.11734 15.1483 2.11734 14.9455V12.67C2.11738 12.5249 2.15869 12.3829 2.23644 12.2604C2.3142 12.1379 2.42519 12.0401 2.55645 11.9784L10.5902 8.2113C10.7723 8.13428 10.9771 8.13077 11.1616 8.20149C11.3462 8.27222 11.4962 8.41169 11.5802 8.59064C11.6641 8.76958 11.6755 8.97409 11.6119 9.16124C11.5483 9.3484 11.4147 9.50365 11.2391 9.59441L3.64623 13.15V14.9455C3.64576 15.1481 3.56507 15.3423 3.42181 15.4855C3.27855 15.6288 3.08438 15.7095 2.88178 15.71Z" fill="#773ADC"/>
<path d="M2.88179 22.6505C2.78133 22.6507 2.68182 22.6311 2.58897 22.5928C2.49612 22.5545 2.41175 22.4982 2.34072 22.4271C2.26969 22.3561 2.21339 22.2717 2.17506 22.1789C2.13672 22.086 2.11711 21.9865 2.11734 21.8861V19.6123C2.11695 19.4671 2.15808 19.3249 2.23589 19.2024C2.31369 19.0798 2.42492 18.9821 2.55645 18.9207L10.5902 15.1518C10.7739 15.0658 10.9842 15.0562 11.1749 15.1252C11.3656 15.1942 11.5211 15.3362 11.6071 15.5198C11.6932 15.7035 11.7027 15.9138 11.6337 16.1045C11.5647 16.2952 11.4228 16.4507 11.2391 16.5367L3.64623 20.0923V21.8807C3.64694 21.9816 3.62768 22.0815 3.58958 22.1749C3.55148 22.2683 3.49528 22.3532 3.42423 22.4247C3.35317 22.4963 3.26866 22.5531 3.17556 22.5918C3.08247 22.6306 2.98263 22.6505 2.88179 22.6505Z" fill="#773ADC"/>
<path d="M2.88178 29.9468C2.67904 29.9468 2.4846 29.8662 2.34124 29.7229C2.19788 29.5795 2.11734 29.3851 2.11734 29.1823V26.9068C2.11738 26.7617 2.15869 26.6197 2.23644 26.4972C2.3142 26.3748 2.42519 26.277 2.55645 26.2152L10.5902 22.4481C10.7723 22.3711 10.9771 22.3676 11.1616 22.4383C11.3462 22.509 11.4962 22.6485 11.5802 22.8275C11.6641 23.0064 11.6755 23.2109 11.6119 23.3981C11.5483 23.5852 11.4147 23.7405 11.2391 23.8312L3.64623 27.3868V29.177C3.6467 29.2778 3.62728 29.3776 3.5891 29.4709C3.55091 29.5642 3.4947 29.649 3.4237 29.7205C3.35269 29.792 3.26827 29.8488 3.17528 29.8876C3.08229 29.9264 2.98256 29.9465 2.88178 29.9468Z" fill="#773ADC"/>
<path d="M29.1182 15.71C28.9156 15.7095 28.7215 15.6288 28.5782 15.4856C28.4349 15.3423 28.3543 15.1482 28.3538 14.9456V13.1553L20.7609 9.59978C20.5853 9.50902 20.4517 9.35377 20.3881 9.16662C20.3245 8.97946 20.3359 8.77496 20.4199 8.59601C20.5038 8.41706 20.6538 8.27759 20.8384 8.20687C21.023 8.13614 21.2277 8.13965 21.4098 8.21667L29.4436 11.9838C29.5748 12.0455 29.6858 12.1433 29.7636 12.2658C29.8413 12.3882 29.8826 12.5303 29.8827 12.6753V14.9509C29.8813 15.1527 29.8001 15.3458 29.6569 15.488C29.5137 15.6302 29.32 15.71 29.1182 15.71Z" fill="#773ADC"/>
<path d="M29.1182 22.6505C28.9155 22.6505 28.721 22.57 28.5777 22.4266C28.4343 22.2833 28.3538 22.0888 28.3538 21.8861V20.0976L20.7609 16.5421C20.5772 16.456 20.4353 16.3006 20.3663 16.1099C20.2973 15.9192 20.3068 15.7088 20.3929 15.5252C20.4789 15.3416 20.6344 15.1996 20.8251 15.1306C21.0158 15.0616 21.2261 15.0712 21.4098 15.1572L29.4436 18.9261C29.5751 18.9875 29.6863 19.0852 29.7641 19.2077C29.8419 19.3303 29.8831 19.4725 29.8827 19.6176V21.8914C29.8817 22.0934 29.8007 22.2867 29.6574 22.429C29.5141 22.5714 29.3202 22.651 29.1182 22.6505Z" fill="#773ADC"/>
<path d="M29.1182 29.9468C28.9156 29.9463 28.7215 29.8657 28.5782 29.7224C28.4349 29.5791 28.3543 29.385 28.3538 29.1824V27.3922L20.7609 23.8366C20.5853 23.7458 20.4517 23.5906 20.3881 23.4034C20.3245 23.2163 20.3359 23.0118 20.4199 22.8328C20.5038 22.6539 20.6538 22.5144 20.8384 22.4437C21.023 22.373 21.2277 22.3765 21.4098 22.4535L29.4436 26.2206C29.5748 26.2823 29.6858 26.3801 29.7636 26.5026C29.8413 26.625 29.8826 26.7671 29.8827 26.9122V29.1877C29.8813 29.3895 29.8001 29.5826 29.6569 29.7248C29.5137 29.867 29.32 29.9468 29.1182 29.9468Z" fill="#773ADC"/>
<path d="M23.7245 12.5048C23.7401 11.4609 23.5481 10.4244 23.1595 9.45548C22.7709 8.48655 22.1935 7.60457 21.4608 6.86086C20.7282 6.11715 19.855 5.52655 18.892 5.12342C17.9291 4.7203 16.8955 4.5127 15.8516 4.5127C14.8076 4.5127 13.7741 4.7203 12.8111 5.12342C11.8481 5.52655 10.9749 6.11715 10.2423 6.86086C9.50967 7.60457 8.93225 8.48655 8.54364 9.45548C8.15503 10.4244 7.96299 11.4609 7.97867 12.5048V23.239C8.00974 25.3065 8.85287 27.2789 10.3259 28.73C11.799 30.1811 13.7838 30.9945 15.8516 30.9945C17.9193 30.9945 19.9041 30.1811 21.3772 28.73C22.8503 27.2789 23.6934 25.3065 23.7245 23.239V12.5048Z" fill="url(#paint0_linear_868_8504)"/>
<path d="M22.7858 8.77666C22.0543 7.42053 20.9419 6.30813 19.5858 5.57666C19.2692 6.01842 19.1197 6.55827 19.1641 7.09997C19.2085 7.64166 19.4438 8.14999 19.8281 8.53431C20.2125 8.91863 20.7208 9.15396 21.2625 9.19835C21.8042 9.24273 22.344 9.09329 22.7858 8.77666Z" fill="#B796F9"/>
<path d="M8.91733 8.77666C9.35909 9.09329 9.89894 9.24273 10.4406 9.19835C10.9823 9.15396 11.4907 8.91863 11.875 8.53431C12.2593 8.14999 12.4946 7.64166 12.539 7.09997C12.5834 6.55827 12.434 6.01842 12.1173 5.57666C10.7612 6.30813 9.6488 7.42053 8.91733 8.77666Z" fill="#B796F9"/>
<defs>
<linearGradient id="paint0_linear_868_8504" x1="15.8507" y1="31.111" x2="15.8507" y2="4.631" gradientUnits="userSpaceOnUse">
<stop stop-color="#773ADC"/>
<stop offset="1" stop-color="#A67AF4"/>
</linearGradient>
</defs>
</svg>
