<svg width="32" height="32" viewBox="0 0 32 32" fill="none" xmlns="http://www.w3.org/2000/svg">
<g clip-path="url(#clip0_868_8483)">
<path d="M21.9769 8.54922L16.6862 13.8399C16.5678 13.9567 16.4081 14.0222 16.2418 14.0222C16.0754 14.0222 15.9158 13.9567 15.7973 13.8399L10.5049 8.54922C10.4657 8.50969 10.439 8.45946 10.4282 8.40483C10.4174 8.3502 10.423 8.2936 10.4443 8.24214C10.4656 8.19068 10.5015 8.14664 10.5478 8.11556C10.594 8.08448 10.6483 8.06774 10.704 8.06744H13.9573C13.9942 8.06744 14.0307 8.06018 14.0648 8.04606C14.0989 8.03194 14.1299 8.01125 14.1559 7.98517C14.182 7.95909 14.2027 7.92812 14.2168 7.89404C14.231 7.85996 14.2382 7.82344 14.2382 7.78655V1.175C14.2382 1.11512 14.262 1.05769 14.3043 1.01535C14.3467 0.973006 14.4041 0.949219 14.464 0.949219H18.0196C18.0491 0.949218 18.0784 0.95507 18.1057 0.966438C18.133 0.977806 18.1578 0.994465 18.1786 1.01545C18.1994 1.03644 18.2159 1.06135 18.227 1.08873C18.2382 1.11611 18.2438 1.14543 18.2436 1.175V7.78655C18.244 7.86121 18.274 7.93265 18.327 7.98528C18.3799 8.03791 18.4516 8.06744 18.5262 8.06744H21.7796C21.8351 8.06809 21.8892 8.08508 21.9351 8.11629C21.9811 8.1475 22.0168 8.19156 22.0378 8.24295C22.0589 8.29434 22.0643 8.3508 22.0535 8.40527C22.0427 8.45973 22.016 8.5098 21.9769 8.54922Z" fill="url(#paint0_linear_868_8483)"/>
<path d="M30.1991 22.5278H1.80092C1.29723 22.5278 0.888916 22.9361 0.888916 23.4398V30.1367C0.888916 30.6404 1.29723 31.0487 1.80092 31.0487H30.1991C30.7028 31.0487 31.1111 30.6404 31.1111 30.1367V23.4398C31.1111 22.9361 30.7028 22.5278 30.1991 22.5278Z" fill="url(#paint1_linear_868_8483)"/>
<path d="M11.4827 16.5474H7.78136C7.58205 16.5474 7.42047 16.7089 7.42047 16.9083V20.6096C7.42047 20.8089 7.58205 20.9705 7.78136 20.9705H11.4827C11.682 20.9705 11.8436 20.8089 11.8436 20.6096V16.9083C11.8436 16.7089 11.682 16.5474 11.4827 16.5474Z" fill="#86D633"/>
<path d="M18.0907 16.5474H14.3893C14.19 16.5474 14.0284 16.7089 14.0284 16.9083V20.6096C14.0284 20.8089 14.19 20.9705 14.3893 20.9705H18.0907C18.29 20.9705 18.4516 20.8089 18.4516 20.6096V16.9083C18.4516 16.7089 18.29 16.5474 18.0907 16.5474Z" fill="#86D633"/>
<path d="M24.6987 16.5474H20.9974C20.7981 16.5474 20.6365 16.7089 20.6365 16.9083V20.6096C20.6365 20.8089 20.7981 20.9705 20.9974 20.9705H24.6987C24.898 20.9705 25.0596 20.8089 25.0596 20.6096V16.9083C25.0596 16.7089 24.898 16.5474 24.6987 16.5474Z" fill="#86D633"/>
<path d="M14.7876 24.437H11.0862C10.8869 24.437 10.7253 24.5986 10.7253 24.7979V28.4992C10.7253 28.6985 10.8869 28.8601 11.0862 28.8601H14.7876C14.9869 28.8601 15.1485 28.6985 15.1485 28.4992V24.7979C15.1485 24.5986 14.9869 24.437 14.7876 24.437Z" fill="#B4EC36"/>
<path d="M21.3955 24.437H17.6942C17.4949 24.437 17.3333 24.5986 17.3333 24.7979V28.4992C17.3333 28.6985 17.4949 28.8601 17.6942 28.8601H21.3955C21.5948 28.8601 21.7564 28.6985 21.7564 28.4992V24.7979C21.7564 24.5986 21.5948 24.437 21.3955 24.437Z" fill="#B4EC36"/>
</g>
<defs>
<linearGradient id="paint0_linear_868_8483" x1="16.24" y1="0.949219" x2="16.24" y2="14.023" gradientUnits="userSpaceOnUse">
<stop offset="0.265" stop-color="#A67AF4"/>
<stop offset="0.45" stop-color="#9E6FF0"/>
<stop offset="0.771" stop-color="#8952E5"/>
<stop offset="1" stop-color="#773ADC"/>
</linearGradient>
<linearGradient id="paint1_linear_868_8483" x1="16" y1="31.0505" x2="16" y2="22.5278" gradientUnits="userSpaceOnUse">
<stop stop-color="#773ADC"/>
<stop offset="0.735" stop-color="#A67AF4"/>
</linearGradient>
<clipPath id="clip0_868_8483">
<rect width="32" height="32" fill="white"/>
</clipPath>
</defs>
</svg>
