<svg width="32" height="32" viewBox="0 0 32 32" fill="none" xmlns="http://www.w3.org/2000/svg">
<g clip-path="url(#clip0_868_8505)">
<path d="M11.7849 8.74137C5.83289 8.72715 1.01333 6.95649 1.01867 4.7876L0.965332 25.6747C0.965332 27.8258 5.69955 29.5858 11.584 29.6285H11.7333C17.6853 29.6445 22.5156 27.8987 22.5209 25.7298L22.5778 4.84271C22.5671 7.0116 17.7369 8.75738 11.7849 8.74137Z" fill="url(#paint0_linear_868_8505)"/>
<path d="M22.5778 4.84256C22.5778 7.01145 17.7422 8.75367 11.7902 8.74123C5.83824 8.72878 1.01335 6.95634 1.01868 4.78745C1.02401 2.61856 5.85424 0.872781 11.8062 0.888781C17.7582 0.904781 22.5796 2.66656 22.5725 4.84256" fill="#E6E6E6"/>
<path d="M20.0587 4.51922C20.0587 5.89699 16.352 7.0081 11.7902 6.99388C7.22847 6.97966 3.53069 5.8561 3.53424 4.47655C3.5378 3.09699 7.24091 1.98766 11.8027 2.0001C16.3645 2.01255 20.0622 3.13966 20.0587 4.51922Z" fill="#50E6FF"/>
<path d="M11.7955 5.07205C9.57632 5.01476 7.36317 5.32964 5.24799 6.00361C7.35499 6.70979 9.5686 7.04484 11.7902 6.99383C14.0112 7.05813 16.2265 6.73693 18.3378 6.04449C16.2267 5.35709 14.0153 5.02839 11.7955 5.07205Z" fill="#198AB3"/>
<path d="M23.7209 16.9475C19.6835 16.9368 16.416 15.7368 16.4195 14.2666L16.3822 28.4302C16.3822 29.8879 19.5946 31.0808 23.584 31.111H23.6835C27.7209 31.1217 30.9955 29.9377 30.9991 28.4675L31.0346 14.3039C31.0311 15.7742 27.7564 16.9582 23.7209 16.9475Z" fill="url(#paint1_linear_868_8505)"/>
<path d="M31.0347 14.304C31.0347 15.7742 27.7564 16.9582 23.7209 16.9476C19.6853 16.9369 16.416 15.7369 16.4196 14.2667C16.4231 12.7965 19.6978 11.6125 23.7333 11.6231C27.7689 11.6338 31.04 12.8338 31.0347 14.304Z" fill="#E6E6E6"/>
<path d="M29.3333 14.0832C29.3333 15.0183 26.8213 15.7685 23.7262 15.7614C20.6311 15.7543 18.1262 14.9899 18.1298 14.0548C18.1333 13.1197 20.6418 12.3677 23.7351 12.3765C26.8284 12.3854 29.3351 13.1481 29.3333 14.0832Z" fill="#50E6FF"/>
<path d="M23.7262 14.4585C22.22 14.4199 20.7178 14.6332 19.2818 15.0897C20.7102 15.569 22.2111 15.7964 23.7174 15.7617C25.2252 15.8046 26.7291 15.585 28.1618 15.1128C26.73 14.6495 25.2309 14.4284 23.7262 14.4585Z" fill="#198AB3"/>
<path d="M24.9671 18.8249C24.939 18.809 24.907 18.801 24.8747 18.8018C24.8426 18.8053 24.8115 18.8153 24.7834 18.8312C24.7553 18.8471 24.7307 18.8686 24.7111 18.8943L20.7147 24.7112C20.6942 24.7417 20.6814 24.7767 20.6773 24.8132C20.6733 24.8497 20.6782 24.8867 20.6916 24.9209C20.711 24.9538 20.7382 24.9816 20.7707 25.0017C20.8032 25.0218 20.8401 25.0338 20.8782 25.0365H23.2711L22.2045 28.5458C22.1865 28.5888 22.1862 28.637 22.2035 28.6803C22.2208 28.7235 22.2543 28.7582 22.2969 28.7769C22.324 28.7953 22.3568 28.8035 22.3893 28.8C22.4215 28.7965 22.4525 28.7865 22.4806 28.7706C22.5087 28.7547 22.5333 28.7333 22.5529 28.7076L26.6667 22.8214C26.6898 22.7752 26.7129 22.752 26.7129 22.7058C26.7131 22.6784 26.7079 22.6511 26.6976 22.6257C26.6872 22.6002 26.6719 22.5771 26.6526 22.5576C26.6333 22.5381 26.6103 22.5226 26.5849 22.512C26.5596 22.5015 26.5324 22.496 26.5049 22.496H24.0373L25.0667 19.0578C25.0756 19.036 25.0801 19.0126 25.0799 18.9891C25.0798 18.9655 25.0749 18.9422 25.0656 18.9205C25.0564 18.8989 25.0429 18.8793 25.026 18.8628C25.0091 18.8464 24.9891 18.8335 24.9671 18.8249Z" fill="#F2F2F2"/>
</g>
<defs>
<linearGradient id="paint0_linear_868_8505" x1="0.986093" y1="17.1957" x2="22.5398" y2="17.251" gradientUnits="userSpaceOnUse">
<stop stop-color="#005BA1"/>
<stop offset="0.068" stop-color="#0060A9"/>
<stop offset="0.356" stop-color="#0071C8"/>
<stop offset="0.517" stop-color="#0078D4"/>
<stop offset="0.642" stop-color="#0074CD"/>
<stop offset="0.82" stop-color="#006ABB"/>
<stop offset="1" stop-color="#005BA1"/>
</linearGradient>
<linearGradient id="paint1_linear_868_8505" x1="16.3961" y1="22.6804" x2="31.0129" y2="22.7179" gradientUnits="userSpaceOnUse">
<stop stop-color="#32BEDD"/>
<stop offset="0.322" stop-color="#47DAF5"/>
<stop offset="0.517" stop-color="#50E6FF"/>
<stop offset="0.664" stop-color="#4BDFF9"/>
<stop offset="0.872" stop-color="#3DCDEA"/>
<stop offset="1" stop-color="#32BEDD"/>
</linearGradient>
<clipPath id="clip0_868_8505">
<rect width="32" height="32" fill="white"/>
</clipPath>
</defs>
</svg>
