<svg width="32" height="32" viewBox="0 0 32 32" fill="none" xmlns="http://www.w3.org/2000/svg">
<path d="M0.888916 10.2896H31.1111V27.1393C31.1111 27.4071 31.0048 27.664 30.8154 27.8533C30.626 28.0427 30.3692 28.1491 30.1014 28.1491H1.89869C1.63088 28.1491 1.37404 28.0427 1.18467 27.8533C0.995303 27.664 0.888916 27.4071 0.888916 27.1393V10.2896Z" fill="url(#paint0_linear_868_8517)"/>
<path d="M1.90403 3.8506H30.096C30.2286 3.8506 30.3599 3.87672 30.4825 3.92746C30.605 3.97821 30.7163 4.05259 30.81 4.14636C30.9038 4.24012 30.9782 4.35144 31.0289 4.47395C31.0797 4.59646 31.1058 4.72777 31.1058 4.86038V10.2897H0.888916V4.86038C0.888914 4.72732 0.915209 4.59558 0.966288 4.47272C1.01737 4.34986 1.09222 4.2383 1.18656 4.14447C1.28089 4.05063 1.39284 3.97636 1.51596 3.92593C1.63909 3.8755 1.77097 3.8499 1.90403 3.8506Z" fill="#0078D4"/>
<path d="M6.84008 18.2804L7.45692 17.6653L12.3124 22.5346C12.3647 22.587 12.394 22.658 12.3939 22.7321C12.3938 22.8061 12.3643 22.877 12.3119 22.9293L11.695 23.5444C11.6426 23.5967 11.5716 23.626 11.4975 23.6259C11.4235 23.6258 11.3526 23.5963 11.3003 23.5438L6.83771 19.0686C6.73317 18.9638 6.67456 18.8217 6.67477 18.6737C6.67497 18.5256 6.73399 18.3837 6.83882 18.2792L6.84008 18.2804Z" fill="url(#paint1_linear_868_8517)"/>
<path d="M7.44757 19.6865L6.83247 19.0697C6.72794 18.9649 6.66932 18.8228 6.66953 18.6747C6.66974 18.5267 6.72875 18.3848 6.83359 18.2802L11.3869 13.7398C11.4393 13.6875 11.5103 13.6582 11.5843 13.6583C11.6584 13.6585 11.7293 13.688 11.7816 13.7404L12.3967 14.3572C12.449 14.4096 12.4783 14.4807 12.4782 14.5547C12.4781 14.6287 12.4485 14.6997 12.3961 14.7519L7.44757 19.6865Z" fill="#F2F2F2"/>
<path d="M19.9529 23.5487L19.3361 22.9336C19.3101 22.9078 19.2895 22.877 19.2754 22.8432C19.2614 22.8093 19.2541 22.773 19.254 22.7364C19.254 22.6997 19.2612 22.6634 19.2751 22.6295C19.2891 22.5957 19.3096 22.5649 19.3355 22.5389L24.1973 17.6634L24.8141 18.2785C24.919 18.383 24.978 18.5249 24.9782 18.673C24.9784 18.821 24.9198 18.9631 24.8152 19.0679L20.3464 23.5494C20.2941 23.6018 20.2232 23.6314 20.1491 23.6315C20.0751 23.6316 20.0041 23.6023 19.9517 23.55L19.9529 23.5487Z" fill="url(#paint2_linear_868_8517)"/>
<path d="M19.2421 14.3604L19.8572 13.7436C19.9095 13.6912 19.9804 13.6617 20.0544 13.6616C20.1285 13.6615 20.1995 13.6908 20.2519 13.743L24.8052 18.2835C24.91 18.388 24.969 18.5299 24.9693 18.6779C24.9695 18.826 24.9109 18.9681 24.8063 19.0729L24.1912 19.6897L19.2464 14.7589C19.2197 14.7332 19.1983 14.7024 19.1835 14.6684C19.1688 14.6343 19.161 14.5977 19.1606 14.5606C19.1602 14.5235 19.1672 14.4867 19.1812 14.4523C19.1952 14.4179 19.2159 14.3867 19.2421 14.3604Z" fill="#F2F2F2"/>
<path d="M18.4734 12.2106L17.488 11.8952C17.3833 11.8617 17.2712 11.9194 17.2377 12.0241L13.2212 24.5702C13.1876 24.6749 13.2454 24.787 13.3501 24.8205L14.3355 25.136C14.4402 25.1695 14.5523 25.1118 14.5858 25.0071L18.6024 12.461C18.6359 12.3563 18.5782 12.2442 18.4734 12.2106Z" fill="#F2F2F2"/>
<defs>
<linearGradient id="paint0_linear_868_8517" x1="16" y1="28.1491" x2="16" y2="10.2896" gradientUnits="userSpaceOnUse">
<stop stop-color="#0078D4"/>
<stop offset="0.502" stop-color="#4093E6"/>
<stop offset="0.775" stop-color="#5EA0EF"/>
</linearGradient>
<linearGradient id="paint1_linear_868_8517" x1="6.67478" y1="20.6487" x2="12.401" y2="20.6487" gradientUnits="userSpaceOnUse">
<stop stop-color="#5EA0EF"/>
<stop offset="0.372" stop-color="#9FC6F5"/>
<stop offset="0.8" stop-color="#E4EFFC"/>
<stop offset="1" stop-color="white"/>
</linearGradient>
<linearGradient id="paint2_linear_868_8517" x1="19.2533" y1="20.6488" x2="24.9777" y2="20.6488" gradientUnits="userSpaceOnUse">
<stop stop-color="white"/>
<stop offset="0.2" stop-color="#E4EFFC"/>
<stop offset="0.628" stop-color="#9FC6F5"/>
<stop offset="1" stop-color="#5EA0EF"/>
</linearGradient>
</defs>
</svg>
