<svg width="32" height="32" viewBox="0 0 32 32" fill="none" xmlns="http://www.w3.org/2000/svg">
<g clip-path="url(#clip0_868_8498)">
<path d="M9.06665 7.48984L15.4666 1.08806C15.61 0.944759 15.8044 0.864258 16.0071 0.864258C16.2098 0.864258 16.4042 0.944759 16.5475 1.08806L22.9475 7.48806C22.9953 7.53569 23.0279 7.59642 23.0412 7.66258C23.0545 7.72874 23.0479 7.79735 23.0222 7.85975C22.9966 7.92215 22.953 7.97554 22.8969 8.01317C22.8409 8.0508 22.775 8.07098 22.7075 8.07117H18.7644C18.7197 8.07094 18.6753 8.07955 18.6339 8.09651C18.5925 8.11347 18.5549 8.13844 18.5232 8.16999C18.4915 8.20155 18.4663 8.23906 18.4491 8.28037C18.4319 8.32168 18.4231 8.36598 18.4231 8.41073V16.4107C18.4226 16.4827 18.3938 16.5516 18.3429 16.6025C18.292 16.6535 18.2231 16.6823 18.1511 16.6827H13.8489C13.7769 16.6823 13.708 16.6535 13.657 16.6025C13.6061 16.5516 13.5773 16.4827 13.5769 16.4107V8.41073C13.5769 8.36598 13.568 8.32168 13.5509 8.28037C13.5337 8.23906 13.5085 8.20155 13.4768 8.16999C13.4451 8.13844 13.4074 8.11347 13.366 8.09651C13.3246 8.07955 13.2803 8.07094 13.2355 8.07117H9.29776C9.2314 8.06895 9.16712 8.04742 9.11281 8.00923C9.0585 7.97103 9.01651 7.91783 8.99198 7.85613C8.96745 7.79443 8.96145 7.72691 8.97471 7.66185C8.98797 7.59679 9.01992 7.53701 9.06665 7.48984Z" fill="url(#paint0_linear_868_8498)"/>
<path d="M30.9671 20.8232H1.03289C0.46244 20.8232 0 21.2857 0 21.8561V30.1032C0 30.6737 0.46244 31.1361 1.03289 31.1361H30.9671C31.5376 31.1361 32 30.6737 32 30.1032V21.8561C32 21.2857 31.5376 20.8232 30.9671 20.8232Z" fill="url(#paint1_linear_868_8498)"/>
<path d="M10.2436 23.4346H5.76002C5.51947 23.4346 5.32446 23.6296 5.32446 23.8701V28.3537C5.32446 28.5942 5.51947 28.7892 5.76002 28.7892H10.2436C10.4841 28.7892 10.6791 28.5942 10.6791 28.3537V23.8701C10.6791 23.6296 10.4841 23.4346 10.2436 23.4346Z" fill="white"/>
<path d="M18.2418 23.4346H13.7582C13.5177 23.4346 13.3227 23.6296 13.3227 23.8701V28.3537C13.3227 28.5942 13.5177 28.7892 13.7582 28.7892H18.2418C18.4824 28.7892 18.6774 28.5942 18.6774 28.3537V23.8701C18.6774 23.6296 18.4824 23.4346 18.2418 23.4346Z" fill="#B4EC36"/>
<path d="M26.24 23.4346H21.7564C21.5159 23.4346 21.3209 23.6296 21.3209 23.8701V28.3537C21.3209 28.5942 21.5159 28.7892 21.7564 28.7892H26.24C26.4805 28.7892 26.6755 28.5942 26.6755 28.3537V23.8701C26.6755 23.6296 26.4805 23.4346 26.24 23.4346Z" fill="#B4EC36"/>
</g>
<defs>
<linearGradient id="paint0_linear_868_8498" x1="16" y1="16.6881" x2="16" y2="0.864059" gradientUnits="userSpaceOnUse">
<stop stop-color="#773ADC"/>
<stop offset="0.229" stop-color="#8952E5"/>
<stop offset="0.55" stop-color="#9E6FF0"/>
<stop offset="0.735" stop-color="#A67AF4"/>
</linearGradient>
<linearGradient id="paint1_linear_868_8498" x1="16" y1="31.1361" x2="16" y2="20.8232" gradientUnits="userSpaceOnUse">
<stop stop-color="#773ADC"/>
<stop offset="0.735" stop-color="#A67AF4"/>
</linearGradient>
<clipPath id="clip0_868_8498">
<rect width="32" height="32" fill="white"/>
</clipPath>
</defs>
</svg>
