<svg width="32" height="32" viewBox="0 0 32 32" fill="none" xmlns="http://www.w3.org/2000/svg">
<path d="M7.42043 0H5.10576C4.52058 0 4.0462 0.474379 4.0462 1.05956V30.9404C4.0462 31.5256 4.52058 32 5.10576 32H7.42043C8.0056 32 8.47998 31.5256 8.47998 30.9404V1.05956C8.47998 0.474379 8.0056 0 7.42043 0Z" fill="#0078D4"/>
<path d="M17.0506 0H14.736C14.1508 0 13.6764 0.474379 13.6764 1.05956V30.9404C13.6764 31.5256 14.1508 32 14.736 32H17.0506C17.6358 32 18.1102 31.5256 18.1102 30.9404V1.05956C18.1102 0.474379 17.6358 0 17.0506 0Z" fill="#0078D4"/>
<path d="M26.8356 0H24.5209C23.9357 0 23.4613 0.474379 23.4613 1.05956V30.9404C23.4613 31.5256 23.9357 32 24.5209 32H26.8356C27.4207 32 27.8951 31.5256 27.8951 30.9404V1.05956C27.8951 0.474379 27.4207 0 26.8356 0Z" fill="#0078D4"/>
<path d="M7.42043 10.9546H5.10576C4.52058 10.9546 4.0462 11.429 4.0462 12.0141V30.9404C4.0462 31.5255 4.52058 31.9999 5.10576 31.9999H7.42043C8.0056 31.9999 8.47998 31.5255 8.47998 30.9404V12.0141C8.47998 11.429 8.0056 10.9546 7.42043 10.9546Z" fill="url(#paint0_linear_868_8491)"/>
<path d="M17.0506 25.3442H14.736C14.1508 25.3442 13.6764 25.8186 13.6764 26.4038V30.9407C13.6764 31.5259 14.1508 32.0002 14.736 32.0002H17.0506C17.6358 32.0002 18.1102 31.5259 18.1102 30.9407V26.4038C18.1102 25.8186 17.6358 25.3442 17.0506 25.3442Z" fill="url(#paint1_linear_868_8491)"/>
<path d="M26.8356 10.9546H24.5209C23.9357 10.9546 23.4613 11.429 23.4613 12.0141V30.9404C23.4613 31.5255 23.9357 31.9999 24.5209 31.9999H26.8356C27.4207 31.9999 27.8951 31.5255 27.8951 30.9404V12.0141C27.8951 11.429 27.4207 10.9546 26.8356 10.9546Z" fill="url(#paint2_linear_868_8491)"/>
<path d="M8.62221 10.7271H4.02132C3.44302 10.7271 2.97421 11.1959 2.97421 11.7742C2.97421 12.3525 3.44302 12.8213 4.02132 12.8213H8.62221C9.20052 12.8213 9.66932 12.3525 9.66932 11.7742C9.66932 11.1959 9.20052 10.7271 8.62221 10.7271Z" fill="#E6E6E6"/>
<path d="M18.2862 24.8267H13.6853C13.107 24.8267 12.6382 25.2955 12.6382 25.8738C12.6382 26.4521 13.107 26.9209 13.6853 26.9209H18.2862C18.8645 26.9209 19.3333 26.4521 19.3333 25.8738C19.3333 25.2955 18.8645 24.8267 18.2862 24.8267Z" fill="#E6E6E6"/>
<path d="M27.9787 10.7271H23.3778C22.7995 10.7271 22.3307 11.1959 22.3307 11.7742C22.3307 12.3525 22.7995 12.8213 23.3778 12.8213H27.9787C28.557 12.8213 29.0258 12.3525 29.0258 11.7742C29.0258 11.1959 28.557 10.7271 27.9787 10.7271Z" fill="#E6E6E6"/>
<defs>
<linearGradient id="paint0_linear_868_8491" x1="6.26487" y1="10.9546" x2="6.26487" y2="31.9999" gradientUnits="userSpaceOnUse">
<stop offset="0.17" stop-color="#50E6FF"/>
<stop offset="0.635" stop-color="#3DCDEA"/>
<stop offset="1" stop-color="#32BEDD"/>
</linearGradient>
<linearGradient id="paint1_linear_868_8491" x1="15.8951" y1="25.3442" x2="15.8951" y2="0.000235739" gradientUnits="userSpaceOnUse">
<stop offset="0.17" stop-color="#50E6FF"/>
<stop offset="0.635" stop-color="#3DCDEA"/>
<stop offset="1" stop-color="#32BEDD"/>
</linearGradient>
<linearGradient id="paint2_linear_868_8491" x1="25.6782" y1="10.9546" x2="25.6782" y2="-7.63239e-05" gradientUnits="userSpaceOnUse">
<stop offset="0.17" stop-color="#50E6FF"/>
<stop offset="0.635" stop-color="#3DCDEA"/>
<stop offset="1" stop-color="#32BEDD"/>
</linearGradient>
</defs>
</svg>
