<svg width="32" height="32" viewBox="0 0 32 32" fill="none" xmlns="http://www.w3.org/2000/svg">
<g clip-path="url(#clip0_868_8508)">
<path d="M0 24.5774L0 26.8921C0 27.4773 0.47438 27.9517 1.05956 27.9517L30.9404 27.9517C31.5256 27.9517 32 27.4773 32 26.8921V24.5774C32 23.9923 31.5256 23.5179 30.9404 23.5179H1.05956C0.47438 23.5179 0 23.9923 0 24.5774Z" fill="#5E9624"/>
<path d="M0 14.9476L0 17.2622C0 17.8474 0.474379 18.3218 1.05956 18.3218L30.9404 18.3218C31.5256 18.3218 32 17.8474 32 17.2622V14.9476C32 14.3624 31.5256 13.888 30.9404 13.888L1.05956 13.888C0.474379 13.888 0 14.3624 0 14.9476Z" fill="#5E9624"/>
<path d="M0 5.16435L0 7.47902C0 8.06419 0.474379 8.53857 1.05956 8.53857L30.9404 8.53857C31.5256 8.53857 32 8.06419 32 7.47902V5.16435C32 4.57918 31.5256 4.1048 30.9404 4.1048L1.05956 4.1048C0.474379 4.1048 0 4.57918 0 5.16435Z" fill="#5E9624"/>
<path d="M10.9547 24.5774V26.8921C10.9547 27.4773 11.4291 27.9517 12.0142 27.9517H30.9405C31.5256 27.9517 32 27.4773 32 26.8921V24.5774C32 23.9923 31.5256 23.5179 30.9405 23.5179H12.0142C11.4291 23.5179 10.9547 23.9923 10.9547 24.5774Z" fill="url(#paint0_linear_868_8508)"/>
<path d="M25.3422 14.9476V17.2622C25.3422 17.8474 25.8166 18.3218 26.4018 18.3218H30.9387C31.5238 18.3218 31.9982 17.8474 31.9982 17.2622V14.9476C31.9982 14.3624 31.5238 13.888 30.9387 13.888H26.4018C25.8166 13.888 25.3422 14.3624 25.3422 14.9476Z" fill="url(#paint1_linear_868_8508)"/>
<path d="M10.9547 5.16435V7.47902C10.9547 8.06419 11.4291 8.53857 12.0142 8.53857L30.9405 8.53857C31.5256 8.53857 32 8.06419 32 7.47902V5.16435C32 4.57917 31.5256 4.1048 30.9405 4.1048L12.0142 4.1048C11.4291 4.1048 10.9547 4.57917 10.9547 5.16435Z" fill="url(#paint2_linear_868_8508)"/>
<path d="M10.7271 23.3779V27.9788C10.7271 28.5571 11.1959 29.0259 11.7742 29.0259C12.3525 29.0259 12.8213 28.5571 12.8213 27.9788V23.3779C12.8213 22.7996 12.3525 22.3308 11.7742 22.3308C11.1959 22.3308 10.7271 22.7996 10.7271 23.3779Z" fill="#E6E6E6"/>
<path d="M24.8267 13.7138V18.3147C24.8267 18.893 25.2955 19.3618 25.8738 19.3618C26.4521 19.3618 26.9209 18.893 26.9209 18.3147V13.7138C26.9209 13.1355 26.4521 12.6667 25.8738 12.6667C25.2955 12.6667 24.8267 13.1355 24.8267 13.7138Z" fill="#E6E6E6"/>
<path d="M10.7271 4.02143V8.62232C10.7271 9.20063 11.1959 9.66943 11.7742 9.66943C12.3525 9.66943 12.8213 9.20063 12.8213 8.62232V4.02143C12.8213 3.44313 12.3525 2.97432 11.7742 2.97432C11.1959 2.97432 10.7271 3.44313 10.7271 4.02143Z" fill="#E6E6E6"/>
</g>
<defs>
<linearGradient id="paint0_linear_868_8508" x1="10.9547" y1="25.7348" x2="32" y2="25.7348" gradientUnits="userSpaceOnUse">
<stop stop-color="#76BC2D"/>
<stop offset="0.312" stop-color="#72B62C"/>
<stop offset="1" stop-color="#5E9624"/>
</linearGradient>
<linearGradient id="paint1_linear_868_8508" x1="25.3422" y1="16.1049" x2="31.9982" y2="16.1049" gradientUnits="userSpaceOnUse">
<stop stop-color="#76BC2D"/>
<stop offset="0.312" stop-color="#72B62C"/>
<stop offset="1" stop-color="#5E9624"/>
</linearGradient>
<linearGradient id="paint2_linear_868_8508" x1="10.9529" y1="6.32168" x2="31.9982" y2="6.32168" gradientUnits="userSpaceOnUse">
<stop stop-color="#76BC2D"/>
<stop offset="0.312" stop-color="#72B62C"/>
<stop offset="1" stop-color="#5E9624"/>
</linearGradient>
<clipPath id="clip0_868_8508">
<rect width="32" height="32" fill="white"/>
</clipPath>
</defs>
</svg>
