<svg width="32" height="32" viewBox="0 0 32 32" fill="none" xmlns="http://www.w3.org/2000/svg">
<path d="M31.1111 4.44433V23.7012C31.1102 23.9758 31.0003 24.2388 30.8057 24.4324C30.611 24.6261 30.3475 24.7346 30.0729 24.7341H22.0445C21.9778 24.7341 21.9139 24.7605 21.8666 24.8074C21.8193 24.8544 21.7925 24.9181 21.792 24.9848V28.0888C21.7914 28.1825 21.7646 28.2743 21.7148 28.3537C21.6649 28.4331 21.5939 28.4971 21.5098 28.5384C21.4256 28.5798 21.3316 28.5968 21.2383 28.5878C21.1449 28.5787 21.056 28.5438 20.9814 28.487L16.1405 24.7874C16.0961 24.7533 16.0418 24.7346 15.9858 24.7341H1.92714C1.65256 24.7346 1.38902 24.6261 1.19437 24.4324C0.999714 24.2388 0.889858 23.9758 0.888916 23.7012V4.44433C0.889857 4.1696 0.999656 3.90643 1.19426 3.7125C1.38886 3.51856 1.6524 3.40967 1.92714 3.40967H30.0729C30.3477 3.40967 30.6112 3.51856 30.8058 3.7125C31.0004 3.90643 31.1102 4.1696 31.1111 4.44433Z" fill="url(#paint0_linear_868_8490)"/>
<path d="M19.1502 13.9678C18.4257 13.2914 17.5615 12.7823 16.6187 12.4763V9.69581C17.4271 9.81031 18.2044 10.0853 18.9049 10.5047C18.9349 10.5222 18.9689 10.5314 19.0036 10.5314C19.0383 10.5314 19.0723 10.5222 19.1022 10.5047C19.1337 10.4872 19.1597 10.4613 19.1773 10.4299C19.1949 10.3985 19.2034 10.3629 19.2018 10.3269V8.09936C19.2031 8.06344 19.1946 8.02784 19.177 7.99648C19.1594 7.96512 19.1336 7.9392 19.1022 7.92158C18.3238 7.55226 17.4749 7.35519 16.6134 7.34381V6.03003C16.6134 5.97816 16.5928 5.92842 16.5561 5.89175C16.5194 5.85508 16.4697 5.83447 16.4178 5.83447H15.2231C15.1713 5.83447 15.1215 5.85508 15.0849 5.89175C15.0482 5.92842 15.0276 5.97816 15.0276 6.03003V7.39181C14.1522 7.49457 13.3334 7.87744 12.6934 8.48336C12.375 8.78768 12.1229 9.15444 11.9528 9.56068C11.7827 9.96692 11.6983 10.4039 11.7049 10.8443C11.6684 11.674 11.9581 12.485 12.512 13.1038C13.2346 13.7734 14.0924 14.2802 15.0276 14.59V17.2443C14.5417 17.1793 14.0646 17.0601 13.6054 16.8887C13.1189 16.7386 12.6606 16.5091 12.2489 16.2096C12.2196 16.1884 12.185 16.1757 12.1489 16.1728C12.1128 16.17 12.0766 16.1771 12.0443 16.1934C12.012 16.2098 11.9848 16.2347 11.9657 16.2654C11.9466 16.2962 11.9363 16.3316 11.936 16.3678V18.6665C11.9356 18.7029 11.9451 18.7387 11.9636 18.77C11.9821 18.8014 12.0089 18.827 12.0409 18.8443C12.9675 19.3278 13.9917 19.5947 15.0365 19.6247V21.1785C15.0365 21.2305 15.057 21.2804 15.0936 21.3174C15.1303 21.3543 15.18 21.3753 15.232 21.3758H16.432C16.4841 21.3753 16.5338 21.3543 16.5704 21.3174C16.607 21.2804 16.6276 21.2305 16.6276 21.1785V19.5554C17.5308 19.4684 18.3824 19.0946 19.0578 18.4887C19.3633 18.1818 19.6021 17.8151 19.7593 17.4116C19.9166 17.0081 19.9888 16.5765 19.9716 16.1438C19.9949 15.3386 19.6998 14.5567 19.1502 13.9678ZM17.3991 16.2398V16.254C17.4145 16.4809 17.3423 16.705 17.1975 16.8802C17.0526 17.0555 16.8461 17.1686 16.6205 17.1963V15.2407C17.1307 15.5269 17.392 15.8611 17.3991 16.2398ZM14.2809 10.7074C14.2669 10.4846 14.3352 10.2645 14.4729 10.0888C14.6105 9.91312 14.8079 9.79414 15.0276 9.75447V11.8025C14.8157 11.7045 14.6344 11.5509 14.5029 11.3581C14.3715 11.1652 14.2947 10.9404 14.2809 10.7074Z" fill="#F2F2F2"/>
<defs>
<linearGradient id="paint0_linear_868_8490" x1="16" y1="30.5741" x2="16" y2="-5.83478" gradientUnits="userSpaceOnUse">
<stop stop-color="#5E9624"/>
<stop offset="0.183" stop-color="#629C25"/>
<stop offset="0.435" stop-color="#6DAE2A"/>
<stop offset="0.726" stop-color="#7FCB30"/>
<stop offset="0.822" stop-color="#86D633"/>
</linearGradient>
</defs>
</svg>
