<svg width="32" height="32" viewBox="0 0 32 32" fill="none" xmlns="http://www.w3.org/2000/svg">
<g clip-path="url(#clip0_868_8489)">
<path d="M20.6382 17.4577C19.769 16.6442 18.7319 16.0312 17.6 15.6622V12.32C18.5727 12.4563 19.508 12.7871 20.3502 13.2924C20.3864 13.3133 20.4275 13.3243 20.4693 13.3243C20.5111 13.3243 20.5522 13.3133 20.5884 13.2924C20.6251 13.2723 20.6556 13.2427 20.6769 13.2068C20.6982 13.1708 20.7094 13.1298 20.7093 13.088V10.3982C20.7091 10.3562 20.6979 10.315 20.6766 10.2788C20.6554 10.2426 20.625 10.2126 20.5884 10.192C19.6534 9.74959 18.6343 9.51315 17.6 9.49864V7.9093C17.6002 7.87819 17.5943 7.84733 17.5825 7.81854C17.5707 7.78975 17.5533 7.76359 17.5313 7.74158C17.5093 7.71958 17.4831 7.70217 17.4543 7.69037C17.4255 7.67858 17.3947 7.67262 17.3636 7.67286H15.9147C15.8835 7.67262 15.8527 7.67858 15.8239 7.69037C15.7951 7.70217 15.7689 7.71958 15.7469 7.74158C15.7249 7.76359 15.7075 7.78975 15.6957 7.81854C15.6839 7.84733 15.678 7.87819 15.6782 7.9093V9.54664C14.6245 9.66941 13.639 10.1304 12.8693 10.8604C12.4852 11.2266 12.1812 11.6684 11.9765 12.158C11.7718 12.6476 11.6708 13.1743 11.68 13.7049C11.6362 14.7027 11.9854 15.6779 12.6524 16.4213C13.5193 17.2281 14.5502 17.8382 15.6747 18.2097V21.4097C15.0864 21.331 14.5091 21.1855 13.9538 20.976C13.3679 20.7952 12.8159 20.5189 12.32 20.1582C12.2844 20.1329 12.2426 20.1178 12.1991 20.1143C12.1556 20.1109 12.112 20.1193 12.0729 20.1386C12.0344 20.159 12.0021 20.1894 11.9795 20.2267C11.957 20.2639 11.945 20.3066 11.9449 20.3502V23.1111C11.9446 23.1543 11.9562 23.1967 11.9785 23.2337C12.0007 23.2707 12.0328 23.3009 12.0711 23.3209C13.1855 23.9034 14.4177 24.2249 15.6747 24.2613V26.1333C15.6747 26.1643 15.6808 26.1949 15.6927 26.2235C15.7046 26.2521 15.722 26.2781 15.744 26.2999C15.766 26.3217 15.7921 26.3389 15.8208 26.3506C15.8494 26.3623 15.8801 26.3682 15.9111 26.368H17.3529C17.3847 26.3697 17.4166 26.3648 17.4465 26.3538C17.4764 26.3428 17.5038 26.3258 17.5269 26.3038C17.5501 26.2818 17.5685 26.2554 17.581 26.2261C17.5936 26.1968 17.6 26.1652 17.6 26.1333V24.1777C18.6885 24.0771 19.7163 23.6311 20.5333 22.9049C20.9013 22.5355 21.189 22.094 21.3784 21.6082C21.5678 21.1224 21.6547 20.6027 21.6338 20.0817C21.6614 19.1099 21.3035 18.1667 20.6382 17.4577ZM18.5298 20.192V20.2097C18.5465 20.4823 18.459 20.7511 18.2851 20.9617C18.1111 21.1722 17.8637 21.3089 17.5929 21.344V18.9955C18.208 19.3351 18.5227 19.7333 18.5298 20.192ZM14.7787 13.5377C14.7621 13.2694 14.8445 13.0043 15.0103 12.7927C15.1761 12.581 15.4137 12.4375 15.6782 12.3893V14.8533C15.4233 14.7358 15.2051 14.5515 15.0467 14.3198C14.8883 14.0881 14.7957 13.8179 14.7787 13.5377Z" fill="#76BC2D"/>
<path d="M3.60358 17.8185C5.10285 17.8185 6.31825 16.6031 6.31825 15.1038C6.31825 13.6046 5.10285 12.3892 3.60358 12.3892C2.10431 12.3892 0.888916 13.6046 0.888916 15.1038C0.888916 16.6031 2.10431 17.8185 3.60358 17.8185Z" fill="#F78D1E"/>
<path d="M7.29249 9.70472C8.79176 9.70472 10.0072 8.48933 10.0072 6.99006C10.0072 5.49079 8.79176 4.27539 7.29249 4.27539C5.79322 4.27539 4.57782 5.49079 4.57782 6.99006C4.57782 8.48933 5.79322 9.70472 7.29249 9.70472Z" fill="#F78D1E"/>
<path d="M20.6862 3.3619C20.133 3.20839 19.5707 3.08964 19.0027 3.00635C19.0675 3.35866 19.0613 3.72038 18.9844 4.07024C18.9074 4.42011 18.7613 4.75108 18.5547 5.04368C20.5804 5.32463 22.5023 6.11308 24.1417 7.33576C25.7811 8.55844 27.0849 10.1757 27.9318 12.0372C28.7788 13.8987 29.1415 15.9442 28.9862 17.9834C28.8308 20.0226 28.1626 21.9895 27.0435 23.7013C25.9244 25.4131 24.3907 26.8143 22.5851 27.7746C20.7794 28.7349 18.7603 29.2232 16.7154 29.1941C14.6704 29.165 12.666 28.6195 10.8884 27.6083C9.11073 26.597 7.61755 25.1528 6.54757 23.4099L7.61423 23.0099C7.65304 22.9956 7.68738 22.9713 7.71378 22.9395C7.74018 22.9076 7.75769 22.8694 7.76455 22.8286C7.77141 22.7878 7.76736 22.746 7.75283 22.7072C7.7383 22.6685 7.71379 22.6343 7.68179 22.6081L3.86135 19.4579C3.82928 19.4314 3.79079 19.4138 3.74976 19.4069C3.70873 19.4001 3.66661 19.4041 3.62766 19.4187C3.5887 19.4333 3.55429 19.458 3.5279 19.4901C3.50151 19.5223 3.48407 19.5608 3.47735 19.6019L2.6809 24.4855C2.6742 24.5264 2.67838 24.5683 2.69302 24.6071C2.70765 24.6459 2.73223 24.6802 2.76429 24.7065C2.79635 24.7328 2.83475 24.7502 2.87566 24.7569C2.91657 24.7637 2.95853 24.7596 2.99735 24.745L4.56712 24.1548C5.73153 26.1787 7.37631 27.8847 9.35625 29.1223C11.3362 30.3599 13.5904 31.091 15.9198 31.2511C18.2492 31.4111 20.5822 30.9952 22.7128 30.04C24.8434 29.0848 26.7061 27.6197 28.1363 25.7741C29.5666 23.9285 30.5205 21.7592 30.9137 19.4576C31.307 17.1561 31.1275 14.7931 30.3912 12.5773C29.6549 10.3615 28.3843 8.3611 26.6918 6.75267C24.9992 5.14424 22.9366 3.97727 20.6862 3.35479V3.3619Z" fill="url(#paint0_radial_868_8489)"/>
<path d="M15.2285 6.14222C16.7277 6.14222 17.9431 4.92683 17.9431 3.42756C17.9431 1.92829 16.7277 0.712891 15.2285 0.712891C13.7292 0.712891 12.5138 1.92829 12.5138 3.42756C12.5138 4.92683 13.7292 6.14222 15.2285 6.14222Z" fill="#F78D1E"/>
</g>
<defs>
<radialGradient id="paint0_radial_868_8489" cx="0" cy="0" r="1" gradientUnits="userSpaceOnUse" gradientTransform="translate(16.848 17.0241) scale(14.0249)">
<stop offset="0.669" stop-color="#76BC2D"/>
<stop offset="0.787" stop-color="#70B22B"/>
<stop offset="0.985" stop-color="#5F9825"/>
<stop offset="1" stop-color="#5E9624"/>
</radialGradient>
<clipPath id="clip0_868_8489">
<rect width="32" height="32" fill="white"/>
</clipPath>
</defs>
</svg>
