<svg width="32" height="32" viewBox="0 0 32 32" fill="none" xmlns="http://www.w3.org/2000/svg">
<g clip-path="url(#clip0_868_8487)">
<path d="M17.7778 18.2044C17.7945 18.4646 17.7538 18.7253 17.6586 18.968C17.5634 19.2107 17.4159 19.4295 17.2267 19.6088C16.7867 19.9973 16.2302 20.2287 15.6444 20.2666V21.3333H14.8622V20.2311C14.1796 20.2267 13.5083 20.0558 12.9067 19.7333V18.2933C13.178 18.4868 13.4779 18.6368 13.7956 18.7377C14.1394 18.8645 14.4977 18.9481 14.8622 18.9866V17.1377C14.2603 16.9462 13.708 16.6245 13.2444 16.1955C12.9152 15.8057 12.7435 15.3069 12.7633 14.797C12.783 14.2872 12.9927 13.8031 13.3511 13.44C13.7638 13.0502 14.2966 12.812 14.8622 12.7644V11.7866H15.6267V12.7466C16.1911 12.7463 16.7489 12.8676 17.2622 13.1022V14.5244C16.7629 14.2254 16.2051 14.0374 15.6267 13.9733V16C16.2385 16.1898 16.7982 16.5183 17.2622 16.96C17.5907 17.2911 17.7758 17.738 17.7778 18.2044ZM14.8622 15.6622V14.0088C14.6799 14.0269 14.5116 14.1146 14.3923 14.2537C14.2731 14.3928 14.2122 14.5726 14.2222 14.7555C14.2222 15.1288 14.4533 15.4311 14.9333 15.6622H14.8622ZM16.3733 18.2755C16.3733 17.9377 16.1244 17.6711 15.6267 17.44V19.04C16.1244 18.9511 16.3733 18.7022 16.3733 18.2755Z" fill="#258277"/>
<path d="M29.4044 16.8713H23.0044C23.0032 17.9792 22.7682 19.0744 22.3148 20.0854C21.8615 21.0963 21.1999 22.0002 20.3733 22.738L24.6222 27.5202C26.1296 26.1825 27.3354 24.5398 28.1599 22.7009C28.9843 20.862 29.4086 18.8688 29.4044 16.8535" fill="#FFCA00"/>
<path d="M15.1467 24.7645C13.0579 24.7645 11.0548 23.9347 9.5778 22.4578C8.10085 20.9808 7.27111 18.9777 7.27111 16.8889C7.27111 14.8002 8.10085 12.797 9.5778 11.3201C11.0548 9.84311 13.0579 9.01337 15.1467 9.01337V2.64893C11.3747 2.64893 7.75721 4.14733 5.09003 6.81452C2.42285 9.4817 0.924438 13.0992 0.924438 16.8711C0.924438 20.6431 2.42285 24.2606 5.09003 26.9278C7.75721 29.595 11.3747 31.0934 15.1467 31.0934C18.6404 31.1145 22.0197 29.8488 24.64 27.5378L20.3733 22.7556C18.9405 24.0501 17.0777 24.7661 15.1467 24.7645Z" fill="url(#paint0_radial_868_8487)"/>
<path d="M14.4889 0.853525V8.24908C15.7027 8.22981 16.908 8.45497 18.033 8.91116C19.158 9.36736 20.1797 10.0452 21.0373 10.9045C21.8948 11.7637 22.5708 12.7867 23.0248 13.9126C23.4788 15.0385 23.7016 16.2442 23.68 17.458H31.1111C31.1111 15.2759 30.681 13.1153 29.8455 11.0996C29.0099 9.08391 27.7852 7.25266 26.2415 5.71057C24.6978 4.16847 22.8652 2.94576 20.8486 2.11236C18.832 1.27895 16.6709 0.851189 14.4889 0.853525Z" fill="#CCCCCC"/>
<path d="M23.7156 17.4579C23.7393 15.0452 22.806 12.7214 21.1199 10.9954C19.4339 9.26937 17.1326 8.28183 14.72 8.24902H14.4889L15.0756 9.35125C17.0385 9.46637 18.8902 10.3004 20.2773 11.694C21.6644 13.0877 22.4897 14.9434 22.5956 16.9068L23.7156 17.4579Z" fill="#999999"/>
</g>
<defs>
<radialGradient id="paint0_radial_868_8487" cx="0" cy="0" r="1" gradientUnits="userSpaceOnUse" gradientTransform="translate(12.7644 16.8889) scale(13.12)">
<stop stop-color="#76BC2D"/>
<stop offset="0.41" stop-color="#74B92C"/>
<stop offset="0.66" stop-color="#6FB12A"/>
<stop offset="0.88" stop-color="#66A227"/>
<stop offset="1" stop-color="#5E9624"/>
</radialGradient>
<clipPath id="clip0_868_8487">
<rect width="32" height="32" fill="white"/>
</clipPath>
</defs>
</svg>
