<svg width="32" height="32" viewBox="0 0 32 32" fill="none" xmlns="http://www.w3.org/2000/svg">
<g clip-path="url(#clip0_868_8493)">
<path d="M16.848 15.8863C15.4356 14.5664 13.7502 13.5734 11.9111 12.9778V7.54493C13.4892 7.76816 15.0069 8.30427 16.3751 9.12182C16.4332 9.1573 16.4998 9.1766 16.5679 9.17773C16.636 9.17885 16.7032 9.16177 16.7624 9.12823C16.8217 9.09469 16.871 9.04593 16.9051 8.98698C16.9392 8.92803 16.9569 8.86103 16.9564 8.79293V4.4267C16.9563 4.35844 16.9382 4.29141 16.9038 4.23241C16.8695 4.17341 16.8202 4.12452 16.7609 4.0907C15.2437 3.37196 13.5898 2.98758 11.9111 2.96359V0.384037C11.9111 0.333158 11.901 0.282784 11.8814 0.235844C11.8617 0.188904 11.833 0.146333 11.7968 0.110605C11.7605 0.0748766 11.7176 0.0467034 11.6704 0.0277222C11.6232 0.00874103 11.5726 -0.000669619 11.5218 3.70417e-05H9.17866C9.07682 3.70417e-05 8.97915 0.0404941 8.90714 0.112508C8.83512 0.184522 8.79466 0.282194 8.79466 0.384037V3.0507C7.08469 3.25256 5.48548 4.00073 4.23466 5.18404C3.6137 5.77877 3.12231 6.49538 2.7913 7.28894C2.4603 8.0825 2.29681 8.93589 2.31111 9.79559C2.23987 11.4154 2.80593 12.9987 3.888 14.2063C5.29632 15.5148 6.96977 16.5049 8.79466 17.1094V22.3005C7.83972 22.1702 6.90272 21.9317 6.00178 21.5894C5.05128 21.2964 4.15524 20.8496 3.34933 20.2667C3.29213 20.2251 3.22456 20.2001 3.15406 20.1945C3.08357 20.1889 3.01289 20.2029 2.94983 20.2349C2.88676 20.2669 2.83375 20.3156 2.79665 20.3758C2.75955 20.436 2.73979 20.5053 2.73955 20.576V25.0667C2.7397 25.1367 2.75899 25.2054 2.79534 25.2652C2.83169 25.3251 2.88371 25.3738 2.94577 25.4063C4.75478 26.3512 6.75462 26.8733 8.79466 26.9334V29.968C8.79466 30.0699 8.83512 30.1676 8.90714 30.2396C8.97915 30.3116 9.07682 30.352 9.17866 30.352H11.5218C11.6233 30.3516 11.7205 30.3109 11.7922 30.2389C11.8638 30.167 11.904 30.0696 11.904 29.968V26.7858C13.6724 26.6206 15.3414 25.8935 16.6667 24.7111C17.2638 24.1116 17.7307 23.3953 18.0382 22.607C18.3456 21.8186 18.4869 20.9753 18.4533 20.1298C18.4966 18.5593 17.9199 17.0349 16.848 15.8863ZM13.4258 20.3307V20.3574C13.4512 20.7978 13.3092 21.2316 13.0283 21.5718C12.7475 21.9121 12.3484 22.1336 11.9111 22.192V18.3823C12.9031 18.9334 13.4133 19.5858 13.4258 20.3254V20.3307ZM7.33689 9.52004C7.30905 9.08447 7.44241 8.65388 7.71157 8.3103C7.98073 7.96672 8.36687 7.73416 8.79644 7.65693V11.6569C8.38216 11.4667 8.02745 11.1673 7.77033 10.7909C7.51321 10.4144 7.36338 9.97514 7.33689 9.52004Z" fill="url(#paint0_linear_868_8493)"/>
<path d="M21.7547 25.7678L27.6579 31.671C28.0988 32.1119 28.8136 32.1119 29.2544 31.671L29.3663 31.5591C29.8072 31.1183 29.8072 30.4035 29.3663 29.9626L23.4631 24.0594C23.0222 23.6185 22.3074 23.6185 21.8666 24.0594L21.7547 24.1713C21.3138 24.6121 21.3138 25.3269 21.7547 25.7678Z" fill="#198AB3"/>
<path d="M18.5778 28.0358C22.5964 28.0358 25.8542 24.778 25.8542 20.7594C25.8542 16.7407 22.5964 13.4829 18.5778 13.4829C14.5591 13.4829 11.3013 16.7407 11.3013 20.7594C11.3013 24.778 14.5591 28.0358 18.5778 28.0358Z" fill="#32BEDD"/>
<path d="M18.592 26.3447C21.7486 26.3447 24.3076 23.7857 24.3076 20.6291C24.3076 17.4725 21.7486 14.9136 18.592 14.9136C15.4354 14.9136 12.8765 17.4725 12.8765 20.6291C12.8765 23.7857 15.4354 26.3447 18.592 26.3447Z" fill="white"/>
</g>
<defs>
<linearGradient id="paint0_linear_868_8493" x1="10.3804" y1="30.3431" x2="10.3804" y2="3.61718e-05" gradientUnits="userSpaceOnUse">
<stop stop-color="#5E9624"/>
<stop offset="0.037" stop-color="#609925"/>
<stop offset="0.439" stop-color="#75BA2D"/>
<stop offset="0.775" stop-color="#81CF31"/>
<stop offset="1" stop-color="#86D633"/>
</linearGradient>
<clipPath id="clip0_868_8493">
<rect width="32" height="32" fill="white"/>
</clipPath>
</defs>
</svg>
