<svg width="32" height="32" viewBox="0 0 32 32" fill="none" xmlns="http://www.w3.org/2000/svg">
<path d="M21.9555 2.63135H10.0444C9.42092 2.63199 8.80854 2.79658 8.26872 3.10861C7.72891 3.42065 7.28064 3.86915 6.96888 4.40913L1.0311 14.7202C0.719037 15.2607 0.554749 15.8739 0.554749 16.498C0.554749 17.1221 0.719037 17.7353 1.0311 18.2758L6.96888 28.5691C7.28064 29.1091 7.72891 29.5576 8.26872 29.8696C8.80854 30.1817 9.42092 30.3463 10.0444 30.3469H21.9555C22.5791 30.3463 23.1914 30.1817 23.7313 29.8696C24.2711 29.5576 24.7193 29.1091 25.0311 28.5691L30.9689 18.2758C31.2809 17.7353 31.4452 17.1221 31.4452 16.498C31.4452 15.8739 31.2809 15.2607 30.9689 14.7202L25.0311 4.40913C24.7193 3.86915 24.2711 3.42065 23.7313 3.10861C23.1914 2.79658 22.5791 2.63199 21.9555 2.63135Z" fill="url(#paint0_linear_868_8515)"/>
<path opacity="0.9" d="M16.1244 8.5511C15.7409 8.55113 15.3727 8.39998 15.0999 8.13043C14.827 7.86088 14.6713 7.49464 14.6667 7.1111C14.6667 6.72447 14.8202 6.35368 15.0936 6.08029C15.367 5.80691 15.7378 5.65332 16.1244 5.65332C16.5111 5.65332 16.8819 5.80691 17.1552 6.08029C17.4286 6.35368 17.5822 6.72447 17.5822 7.1111C17.5775 7.49464 17.4219 7.86088 17.149 8.13043C16.8761 8.39998 16.508 8.55113 16.1244 8.5511ZM14.6667 25.8844C14.6667 26.2711 14.8202 26.6418 15.0936 26.9152C15.367 27.1886 15.7378 27.3422 16.1244 27.3422C16.5111 27.3422 16.8819 27.1886 17.1552 26.9152C17.4286 26.6418 17.5822 26.2711 17.5822 25.8844C17.5822 25.4978 17.4286 25.127 17.1552 24.8536C16.8819 24.5802 16.5111 24.4267 16.1244 24.4267C15.7378 24.4267 15.367 24.5802 15.0936 24.8536C14.8202 25.127 14.6667 25.4978 14.6667 25.8844ZM16.16 21.0844C15.6092 21.1397 15.0548 21.0223 14.5738 20.7483C14.0928 20.4744 13.709 20.0575 13.4755 19.5555L10.8978 20.0533C11.2752 21.0662 11.9859 21.9206 12.9131 22.4763C13.8402 23.0319 14.9288 23.2558 16 23.1111C19.0044 23.1111 21.1733 21.5289 21.1733 19.3244C21.2286 18.6015 21.0691 17.8784 20.7148 17.2459C20.3606 16.6133 19.8274 16.0995 19.1822 15.7689C18.1459 15.3729 17.0824 15.0521 16 14.8089C14.8089 14.5244 14.0444 13.8667 14.0444 13.0311C14.1023 12.5683 14.3398 12.1468 14.7056 11.8575C15.0714 11.5682 15.5363 11.4342 16 11.4844C16.4582 11.4576 16.9149 11.5579 17.3196 11.7744C17.7244 11.9909 18.0613 12.3151 18.2933 12.7111L20.5155 12C20.0772 11.2101 19.4137 10.5686 18.6096 10.157C17.8055 9.74542 16.897 9.58246 16 9.68888C13.9022 9.68888 11.4667 10.6133 11.4667 13.2444C11.4667 16.4622 13.44 17.1022 16.2489 17.6533C16.9067 17.7778 18.4355 18.2222 18.4355 19.4311C18.3644 20.1067 17.7778 21.0844 16.16 21.0844Z" fill="url(#paint1_linear_868_8515)"/>
<defs>
<linearGradient id="paint0_linear_868_8515" x1="16" y1="2.63135" x2="16" y2="30.3469" gradientUnits="userSpaceOnUse">
<stop stop-color="#76BC2D"/>
<stop offset="0.32" stop-color="#73B82C"/>
<stop offset="0.65" stop-color="#6CAB29"/>
<stop offset="0.99" stop-color="#5E9724"/>
<stop offset="1" stop-color="#5E9624"/>
</linearGradient>
<linearGradient id="paint1_linear_868_8515" x1="10.8978" y1="16.4978" x2="21.1022" y2="16.4978" gradientUnits="userSpaceOnUse">
<stop stop-color="white"/>
<stop offset="1" stop-color="white"/>
</linearGradient>
</defs>
</svg>
