<svg width="32" height="32" viewBox="0 0 32 32" fill="none" xmlns="http://www.w3.org/2000/svg">
<path d="M31.1111 10.2897V4.86038C31.1111 4.59257 31.0047 4.33573 30.8153 4.14636C30.626 3.95699 30.3691 3.8506 30.1013 3.8506H1.904C1.77094 3.8499 1.63906 3.8755 1.51593 3.92593C1.39281 3.97636 1.28086 4.05063 1.18653 4.14447C1.09219 4.2383 1.01734 4.34986 0.966257 4.47272C0.915178 4.59558 0.888884 4.72732 0.888885 4.86038V10.2897V27.1395C0.888885 27.4073 0.995273 27.6641 1.18464 27.8535C1.37401 28.0429 1.63085 28.1493 1.89866 28.1493H30.1013C30.3691 28.1493 30.626 28.0429 30.8153 27.8535C31.0047 27.6641 31.1111 27.4073 31.1111 27.1395V10.2897Z" fill="#0078D4"/>
<path d="M10.0978 8.09229H3.84711C3.54568 8.09229 3.30133 8.33664 3.30133 8.63806V23.3598C3.30133 23.6613 3.54568 23.9056 3.84711 23.9056H10.0978C10.3992 23.9056 10.6436 23.6613 10.6436 23.3598V8.63806C10.6436 8.33664 10.3992 8.09229 10.0978 8.09229Z" fill="white"/>
<path opacity="0.75" d="M19.1342 8.09229H12.8835C12.5821 8.09229 12.3378 8.33664 12.3378 8.63806V23.3598C12.3378 23.6613 12.5821 23.9056 12.8835 23.9056H19.1342C19.4356 23.9056 19.68 23.6613 19.68 23.3598V8.63806C19.68 8.33664 19.4356 8.09229 19.1342 8.09229Z" fill="white"/>
<path opacity="0.5" d="M28.1707 8.09229H21.92C21.6186 8.09229 21.3742 8.33664 21.3742 8.63806V23.3598C21.3742 23.6613 21.6186 23.9056 21.92 23.9056H28.1707C28.4721 23.9056 28.7164 23.6613 28.7164 23.3598V8.63806C28.7164 8.33664 28.4721 8.09229 28.1707 8.09229Z" fill="white"/>
<path d="M6.93332 19.7331C5.21954 19.7331 4.36265 18.5296 4.36265 16.1225C4.29759 15.1221 4.54015 14.1258 5.05777 13.2673C5.2829 12.9461 5.5861 12.6875 5.93879 12.5158C6.29148 12.3441 6.68207 12.2651 7.07377 12.286C8.74606 12.286 9.5828 13.5097 9.58399 15.9571C9.64528 16.9391 9.40591 17.9164 8.89777 18.7589C8.68007 19.0748 8.38547 19.3301 8.04175 19.5005C7.69804 19.671 7.31656 19.751 6.93332 19.7331ZM7.00265 13.5109C6.31643 13.5109 5.97332 14.3702 5.97332 16.0887C5.97332 17.7136 6.30991 18.5254 6.9831 18.5242C7.65628 18.5231 7.98458 17.6863 7.96799 16.014C7.96799 14.3453 7.64621 13.5109 7.00265 13.5109Z" fill="#0078D4"/>
<path d="M15.8418 19.7331C14.128 19.7331 13.2711 18.5296 13.2711 16.1225C13.2066 15.1219 13.4498 14.1256 13.968 13.2673C14.1931 12.9461 14.4963 12.6875 14.849 12.5158C15.2017 12.3441 15.5923 12.2651 15.984 12.286C17.6575 12.286 18.4942 13.5097 18.4942 15.9571C18.5555 16.9391 18.3161 17.9164 17.808 18.7589C17.5901 19.0751 17.2953 19.3305 16.9512 19.501C16.6072 19.6714 16.2253 19.7513 15.8418 19.7331ZM15.9129 13.5109C15.2267 13.5109 14.8836 14.3725 14.8836 16.0958C14.8836 17.7207 15.2201 18.5325 15.8933 18.5313C16.5665 18.5302 16.8942 17.6934 16.8764 16.0211C16.8764 14.3476 16.5553 13.5109 15.9129 13.5109Z" fill="#0078D4"/>
<path d="M26.3111 12.3359V19.6977H24.7289V14.1244C24.6334 14.207 24.5297 14.2797 24.4195 14.3413C24.2977 14.412 24.1711 14.4743 24.0409 14.5279C23.9046 14.5832 23.7651 14.6301 23.6231 14.6684C23.483 14.7061 23.3404 14.7341 23.1964 14.7519V13.415C23.5985 13.2993 23.9884 13.1452 24.3609 12.9546C24.7083 12.7776 25.0396 12.5706 25.3511 12.3359H26.3111Z" fill="#F2F2F2"/>
</svg>
