<svg width="32" height="32" viewBox="0 0 32 32" fill="none" xmlns="http://www.w3.org/2000/svg">
<g clip-path="url(#clip0_868_8523)">
<path d="M23.2302 4.9668V13.4841L15.8685 17.765V9.23346L23.2302 4.9668Z" fill="#76BC2D"/>
<path d="M23.2303 4.96692L15.8685 9.24604L8.50671 4.96515L15.8685 0.686035L23.2303 4.96692Z" fill="#B4EC36"/>
<path d="M15.8685 9.24622V17.7653L8.50671 13.4844V4.96533L15.8685 9.24622Z" fill="#86D633"/>
<path d="M15.6124 18.5171V27.0344L8.25067 31.3135V22.7838L15.6124 18.5171Z" fill="#76BC2D"/>
<path d="M15.6125 18.517L8.25069 22.7944L0.888916 18.5153L8.25069 14.2344L15.6125 18.517Z" fill="#B4EC36"/>
<path d="M8.25069 22.7942V31.3134L0.888916 27.0342V18.5151L8.25069 22.7942Z" fill="#86D633"/>
<path d="M31.1111 18.5171V27.0344L23.7493 31.3135V22.7838L31.1111 18.5171Z" fill="#76BC2D"/>
<path d="M31.1111 18.517L23.7511 22.7944L16.3876 18.5153L23.7511 14.2344L31.1111 18.517Z" fill="#B4EC36"/>
<path d="M23.7494 22.7942V31.3134L16.3876 27.0342V18.5151L23.7494 22.7942Z" fill="#86D633"/>
</g>
<defs>
<clipPath id="clip0_868_8523">
<rect width="32" height="32" fill="white"/>
</clipPath>
</defs>
</svg>
