<svg width="32" height="32" viewBox="0 0 32 32" fill="none" xmlns="http://www.w3.org/2000/svg">
<path d="M0.976 4.68636H31.0418C31.2837 4.67618 31.5199 4.7617 31.6993 4.9244C31.8786 5.08711 31.9867 5.31391 32 5.5557V26.4446C31.9867 26.6864 31.8786 26.9132 31.6993 27.0759C31.5199 27.2386 31.2837 27.3241 31.0418 27.3139H0.976C0.732239 27.3243 0.494024 27.2393 0.311836 27.077C0.129647 26.9148 0.0178015 26.6879 0 26.4446L0 5.59125C0.00925953 5.34209 0.117086 5.1068 0.299773 4.93711C0.48246 4.76743 0.725054 4.67724 0.974222 4.68636H0.976Z" fill="url(#paint0_linear_868_8484)"/>
<path opacity="0.9" d="M24.6116 7.47754H22.4107C22.2664 7.47754 22.1494 7.59454 22.1494 7.73887V23.8366C22.1494 23.981 22.2664 24.098 22.4107 24.098H24.6116C24.7559 24.098 24.8729 23.981 24.8729 23.8366V7.73887C24.8729 7.59454 24.7559 7.47754 24.6116 7.47754Z" fill="white"/>
<path opacity="0.6" d="M17.8507 20.6738H3.17689C3.02078 20.6738 2.89423 20.8004 2.89423 20.9565V23.8347C2.89423 23.9908 3.02078 24.1174 3.17689 24.1174H17.8507C18.0068 24.1174 18.1333 23.9908 18.1333 23.8347V20.9565C18.1333 20.8004 18.0068 20.6738 17.8507 20.6738Z" fill="white"/>
<path opacity="0.9" d="M28.848 14.2773H26.5262C26.4153 14.2773 26.3253 14.3673 26.3253 14.4782V23.8969C26.3253 24.0078 26.4153 24.0978 26.5262 24.0978H28.848C28.9589 24.0978 29.0489 24.0078 29.0489 23.8969V14.4782C29.0489 14.3673 28.9589 14.2773 28.848 14.2773Z" fill="white"/>
<path d="M16.208 8.4834L12.4214 15.2212L8.41603 11.1412L4.28802 16.4941L5.25514 17.2532L8.5298 13.0292L12.6862 17.271L17.28 9.10029L16.208 8.4834Z" fill="white"/>
<path d="M8.46401 13.6461C9.3241 13.6461 10.0213 12.9449 10.0213 12.0799C10.0213 11.2149 9.3241 10.5137 8.46401 10.5137C7.60392 10.5137 6.90668 11.2149 6.90668 12.0799C6.90668 12.9449 7.60392 13.6461 8.46401 13.6461Z" fill="white"/>
<path d="M12.6862 17.5289C13.5463 17.5289 14.2436 16.8277 14.2436 15.9627C14.2436 15.0977 13.5463 14.3965 12.6862 14.3965C11.8261 14.3965 11.1289 15.0977 11.1289 15.9627C11.1289 16.8277 11.8261 17.5289 12.6862 17.5289Z" fill="white"/>
<path d="M16.6062 10.5529C17.4663 10.5529 18.1636 9.85163 18.1636 8.98663C18.1636 8.12163 17.4663 7.42041 16.6062 7.42041C15.7461 7.42041 15.0489 8.12163 15.0489 8.98663C15.0489 9.85163 15.7461 10.5529 16.6062 10.5529Z" fill="white"/>
<path d="M4.93331 18.2115C5.7934 18.2115 6.49064 17.5103 6.49064 16.6453C6.49064 15.7803 5.7934 15.0791 4.93331 15.0791C4.07322 15.0791 3.37598 15.7803 3.37598 16.6453C3.37598 17.5103 4.07322 18.2115 4.93331 18.2115Z" fill="white"/>
<defs>
<linearGradient id="paint0_linear_868_8484" x1="16" y1="1.29614" x2="16" y2="30.9175" gradientUnits="userSpaceOnUse">
<stop stop-color="#6CC6B9"/>
<stop offset="0.46" stop-color="#6AC4B7"/>
<stop offset="0.64" stop-color="#62BDB0"/>
<stop offset="0.77" stop-color="#56B1A4"/>
<stop offset="1" stop-color="#258277"/>
</linearGradient>
</defs>
</svg>
