<svg width="32" height="32" viewBox="0 0 32 32" fill="none" xmlns="http://www.w3.org/2000/svg">
<path d="M22.4872 29.5661C19.1094 29.1128 19.1698 26.9439 19.1858 23.4292H12.8658C12.8818 26.9439 12.9387 29.1181 9.56626 29.5661C9.16167 29.5947 8.78023 29.7655 8.48938 30.0482C8.19854 30.3309 8.01702 30.7074 7.97693 31.111H24.0854C24.0433 30.7066 23.86 30.33 23.5676 30.0474C23.2753 29.7649 22.8927 29.5944 22.4872 29.5661Z" fill="#1F56A3"/>
<path d="M29.5396 2.95996H2.46047C1.91654 2.95996 1.47559 3.40091 1.47559 3.94485V22.5457C1.47559 23.0897 1.91654 23.5306 2.46047 23.5306H29.5396C30.0835 23.5306 30.5245 23.0897 30.5245 22.5457V3.94485C30.5245 3.40091 30.0835 2.95996 29.5396 2.95996Z" fill="#1490DF"/>
<path d="M28.3164 4.55273H3.63911C3.36714 4.55273 3.14667 4.77321 3.14667 5.04518V21.1287C3.14667 21.4007 3.36714 21.6212 3.63911 21.6212H28.3164C28.5884 21.6212 28.8089 21.4007 28.8089 21.1287V5.04518C28.8089 4.77321 28.5884 4.55273 28.3164 4.55273Z" fill="white"/>
<path d="M22.3378 9.27981L16.496 15.1198C16.3654 15.2503 16.1883 15.3236 16.0036 15.3236C15.8189 15.3236 15.6418 15.2503 15.5112 15.1198L9.67115 9.27981C9.62684 9.23639 9.59651 9.18072 9.58408 9.11995C9.57164 9.05917 9.57765 8.99607 9.60135 8.93873C9.62505 8.8814 9.66534 8.83246 9.71706 8.7982C9.76878 8.76395 9.82956 8.74593 9.89159 8.74648H13.4827C13.5652 8.74648 13.6443 8.7137 13.7027 8.65535C13.761 8.59701 13.7938 8.51788 13.7938 8.43536V1.13759C13.7936 1.10468 13.7999 1.07207 13.8124 1.04164C13.825 1.01122 13.8435 0.983611 13.8668 0.960428C13.8902 0.937246 13.9179 0.918959 13.9484 0.906641C13.9789 0.894324 14.0116 0.888223 14.0445 0.888698H17.968C18.0006 0.888697 18.0329 0.895147 18.063 0.907676C18.0931 0.920206 18.1204 0.938567 18.1434 0.961702C18.1664 0.984837 18.1845 1.01229 18.1969 1.04248C18.2092 1.07266 18.2154 1.10499 18.2152 1.13759V8.43714C18.2156 8.51982 18.2488 8.59895 18.3074 8.65724C18.366 8.71553 18.4454 8.74825 18.528 8.74825H22.1192C22.1807 8.74842 22.2407 8.76683 22.2918 8.80113C22.3429 8.83544 22.3826 8.88412 22.406 8.941C22.4294 8.99789 22.4354 9.06044 22.4233 9.12075C22.4111 9.18105 22.3814 9.2364 22.3378 9.27981Z" fill="url(#paint0_linear_868_8512)"/>
<path d="M7.80093 15.7671H9.08804C9.12539 15.7671 9.16238 15.7744 9.19689 15.7887C9.2314 15.803 9.26276 15.824 9.28917 15.8504C9.31559 15.8768 9.33654 15.9082 9.35083 15.9427C9.36513 15.9772 9.37248 16.0142 9.37248 16.0515V19.6498H8.08715C7.9358 19.6498 7.79065 19.5896 7.68363 19.4826C7.57661 19.3756 7.51649 19.2304 7.51649 19.0791V16.0533C7.51625 16.0158 7.52343 15.9786 7.53762 15.9439C7.55181 15.9092 7.57273 15.8776 7.59917 15.851C7.6256 15.8244 7.65704 15.8033 7.69166 15.7889C7.72629 15.7745 7.76343 15.7671 7.80093 15.7671Z" fill="#999999"/>
<path opacity="0.5" d="M7.80093 15.7671H9.08804C9.12539 15.7671 9.16238 15.7744 9.19689 15.7887C9.2314 15.803 9.26276 15.824 9.28917 15.8504C9.31559 15.8768 9.33654 15.9082 9.35083 15.9427C9.36513 15.9772 9.37248 16.0142 9.37248 16.0515V19.6498H8.08715C7.9358 19.6498 7.79065 19.5896 7.68363 19.4826C7.57661 19.3756 7.51649 19.2304 7.51649 19.0791V16.0533C7.51625 16.0158 7.52343 15.9786 7.53762 15.9439C7.55181 15.9092 7.57273 15.8776 7.59917 15.851C7.6256 15.8244 7.65704 15.8033 7.69166 15.7889C7.72629 15.7745 7.76343 15.7671 7.80093 15.7671Z" fill="#999999"/>
<path d="M22.9103 15.7671H24.1974C24.2728 15.7671 24.3452 15.7971 24.3985 15.8504C24.4518 15.9038 24.4818 15.9761 24.4818 16.0515V19.0738C24.4818 19.2251 24.4217 19.3703 24.3147 19.4773C24.2076 19.5843 24.0625 19.6444 23.9111 19.6444H22.624V16.0533C22.6238 16.0157 22.631 15.9783 22.6453 15.9435C22.6596 15.9087 22.6807 15.877 22.7073 15.8504C22.734 15.8238 22.7656 15.8027 22.8004 15.7884C22.8353 15.7741 22.8726 15.7669 22.9103 15.7671Z" fill="#999999"/>
<path opacity="0.5" d="M22.9103 15.7671H24.1974C24.2728 15.7671 24.3452 15.7971 24.3985 15.8504C24.4518 15.9038 24.4818 15.9761 24.4818 16.0515V19.0738C24.4818 19.2251 24.4217 19.3703 24.3147 19.4773C24.2076 19.5843 24.0625 19.6444 23.9111 19.6444H22.624V16.0533C22.6238 16.0157 22.631 15.9783 22.6453 15.9435C22.6596 15.9087 22.6807 15.877 22.7073 15.8504C22.734 15.8238 22.7656 15.8027 22.8004 15.7884C22.8353 15.7741 22.8726 15.7669 22.9103 15.7671Z" fill="#999999"/>
<path d="M7.51648 19.0846V17.8401H24.4836V19.0846C24.4836 19.2339 24.4245 19.3771 24.3193 19.4831C24.214 19.589 24.0711 19.649 23.9218 19.6499H8.08181C7.93188 19.6499 7.78808 19.5903 7.68206 19.4843C7.57604 19.3783 7.51648 19.2345 7.51648 19.0846Z" fill="#949494"/>
<defs>
<linearGradient id="paint0_linear_868_8512" x1="16.0036" y1="0.888698" x2="16.0036" y2="15.3243" gradientUnits="userSpaceOnUse">
<stop stop-color="#6BB9F2"/>
<stop offset="1" stop-color="#1B93EB"/>
</linearGradient>
</defs>
</svg>
