<svg width="32" height="32" viewBox="0 0 32 32" fill="none" xmlns="http://www.w3.org/2000/svg">
<g clip-path="url(#clip0_868_8480)">
<path d="M32 16.2647C31.9487 14.5597 31.2929 12.9284 30.1499 11.6623C29.0068 10.3961 27.4509 9.57751 25.76 9.35267C25.6555 6.97152 24.6175 4.72728 22.8708 3.10564C21.1241 1.484 18.809 0.615387 16.4267 0.687782C14.4997 0.651405 12.6091 1.21496 11.0166 2.30043C9.42408 3.3859 8.20837 4.9396 7.53778 6.74645C5.50213 6.99413 3.62258 7.96289 2.23975 9.47715C0.856925 10.9914 0.0623386 12.951 0 15.0007C0.0893614 17.3036 1.0877 19.4773 2.7764 21.0457C4.46509 22.6141 6.7065 23.4494 9.00978 23.3687C9.27822 23.3687 9.54311 23.3544 9.80444 23.3331H24.3947C24.5252 23.3315 24.655 23.3124 24.7804 23.2762C26.6554 23.2628 28.4528 22.5261 29.7979 21.2198C31.1429 19.9135 31.9318 18.1384 32 16.2647Z" fill="url(#paint0_linear_868_8480)"/>
<path d="M18.8231 25.4222C18.5729 26.29 18.5896 27.2129 18.8711 28.0711C19.2378 29.2314 20.0459 30.2011 21.121 30.7711C22.1961 31.3411 23.4521 31.4658 24.6183 31.1183C25.7845 30.7708 26.7674 29.9789 27.3551 28.9133C27.9428 27.8478 28.0882 26.594 27.76 25.4222L23.3156 16.1333L18.8231 25.4222Z" fill="url(#paint1_linear_868_8480)"/>
</g>
<defs>
<linearGradient id="paint0_linear_868_8480" x1="16" y1="23.3687" x2="16" y2="0.687782" gradientUnits="userSpaceOnUse">
<stop stop-color="#0078D4"/>
<stop offset="0.156" stop-color="#1380DA"/>
<stop offset="0.528" stop-color="#3C91E5"/>
<stop offset="0.822" stop-color="#559CEC"/>
<stop offset="1" stop-color="#5EA0EF"/>
</linearGradient>
<linearGradient id="paint1_linear_868_8480" x1="23.2924" y1="31.312" x2="23.2924" y2="16.1244" gradientUnits="userSpaceOnUse">
<stop stop-color="#32BEDD"/>
<stop offset="0.175" stop-color="#32CAEA"/>
<stop offset="0.41" stop-color="#32D2F2"/>
<stop offset="0.775" stop-color="#32D4F5"/>
</linearGradient>
<clipPath id="clip0_868_8480">
<rect width="32" height="32" fill="white"/>
</clipPath>
</defs>
</svg>
