<svg width="32" height="32" viewBox="0 0 32 32" fill="none" xmlns="http://www.w3.org/2000/svg">
<path d="M20.8071 10.8623H8.14932C7.85183 10.8623 7.61066 11.1035 7.61066 11.401V24.0587C7.61066 24.3562 7.85183 24.5974 8.14932 24.5974H20.8071C21.1046 24.5974 21.3458 24.3562 21.3458 24.0587V11.401C21.3458 11.1035 21.1046 10.8623 20.8071 10.8623Z" fill="url(#paint0_linear_868_8479)"/>
<path d="M30.0338 1.17334H17.056C16.986 1.17334 16.9166 1.18713 16.8519 1.21394C16.7872 1.24074 16.7284 1.28002 16.6789 1.32955C16.6294 1.37907 16.5901 1.43787 16.5633 1.50258C16.5365 1.56728 16.5227 1.63663 16.5227 1.70667V4.06578C16.5227 4.13582 16.5365 4.20517 16.5633 4.26988C16.5901 4.33459 16.6294 4.39338 16.6789 4.44291C16.7284 4.49243 16.7872 4.53172 16.8519 4.55852C16.9166 4.58532 16.986 4.59912 17.056 4.59912H26.6045C26.7458 4.59912 26.8859 4.627 27.0165 4.68116C27.1471 4.73532 27.2657 4.81471 27.3656 4.91477C27.4655 5.01483 27.5447 5.13361 27.5986 5.26431C27.6526 5.39501 27.6802 5.53506 27.68 5.67645V15.3796C27.68 15.521 27.7362 15.6567 27.8362 15.7567C27.9362 15.8567 28.0719 15.9129 28.2133 15.9129H30.5778C30.7192 15.9129 30.8549 15.8567 30.9549 15.7567C31.0549 15.6567 31.1111 15.521 31.1111 15.3796V2.25067C31.1111 2.1092 31.0833 1.9691 31.0291 1.8384C30.975 1.70769 30.8956 1.58892 30.7956 1.48888C30.6955 1.38884 30.5768 1.30949 30.4461 1.25535C30.3154 1.20121 30.1753 1.17334 30.0338 1.17334Z" fill="#773ADC"/>
<path d="M25.4809 18.1744V26.7184C25.4809 26.9786 25.3775 27.2282 25.1935 27.4123C25.0094 27.5963 24.7598 27.6997 24.4996 27.6997H4.99555C4.73529 27.6997 4.48568 27.5963 4.30164 27.4123C4.11761 27.2282 4.01422 26.9786 4.01422 26.7184V8.30592C4.01422 8.04566 4.11761 7.79605 4.30164 7.61202C4.48568 7.42798 4.73529 7.32459 4.99555 7.32459H14.7733C14.9148 7.32459 15.0504 7.2684 15.1505 7.16838C15.2505 7.06836 15.3067 6.93271 15.3067 6.79126V4.73792C15.3067 4.59647 15.2505 4.46082 15.1505 4.3608C15.0504 4.26078 14.9148 4.20459 14.7733 4.20459H1.87022C1.61087 4.20459 1.36207 4.30724 1.17819 4.49013C0.994307 4.67301 0.890295 4.92125 0.888885 5.18059V29.8455C0.888885 30.1057 0.992276 30.3554 1.17631 30.5394C1.36035 30.7234 1.60995 30.8268 1.87022 30.8268H27.6249C27.8853 30.8268 28.1351 30.7235 28.3194 30.5395C28.5037 30.3555 28.6075 30.1059 28.608 29.8455V18.1744C28.608 18.1043 28.5942 18.035 28.5674 17.9703C28.5406 17.9056 28.5013 17.8468 28.4518 17.7972C28.4023 17.7477 28.3435 17.7084 28.2788 17.6816C28.2141 17.6548 28.1447 17.641 28.0747 17.641H26.0196C25.9491 17.6403 25.8791 17.6536 25.8138 17.6801C25.7485 17.7066 25.6891 17.7458 25.639 17.7953C25.5889 17.8449 25.5491 17.904 25.522 17.969C25.4949 18.0341 25.4809 18.1039 25.4809 18.1744Z" fill="#B3B3B3"/>
<defs>
<linearGradient id="paint0_linear_868_8479" x1="14.4782" y1="24.5992" x2="14.4782" y2="10.8623" gradientUnits="userSpaceOnUse">
<stop stop-color="#32BEDD"/>
<stop offset="0.175" stop-color="#32CAEA"/>
<stop offset="0.41" stop-color="#32D2F2"/>
<stop offset="0.775" stop-color="#32D4F5"/>
</linearGradient>
</defs>
</svg>
