<svg width="32" height="32" viewBox="0 0 32 32" fill="none" xmlns="http://www.w3.org/2000/svg">
<path d="M25.4489 0.888672H6.55114C6.28111 0.889142 6.02229 0.996616 5.83135 1.18755C5.64042 1.37849 5.53294 1.63732 5.53247 1.90734V30.5047C5.53278 30.6002 5.5599 30.6937 5.61074 30.7746C5.66158 30.8555 5.73411 30.9205 5.82007 30.9621C5.90603 31.0038 6.00196 31.0205 6.09695 31.0104C6.19193 31.0002 6.28216 30.9636 6.35736 30.9047L15.6854 23.5944C15.7474 23.5485 15.8192 23.5175 15.8951 23.5038L15.8631 23.4789L26.4676 15.2122V1.90734C26.4671 1.63732 26.3596 1.37849 26.1687 1.18755C25.9778 0.996616 25.7189 0.889142 25.4489 0.888672Z" fill="url(#paint0_linear_868_8476)"/>
<path d="M15.8632 23.4791L26.4676 15.2124V30.6008C26.4674 30.6961 26.4406 30.7893 26.3902 30.8701C26.3398 30.9509 26.2678 31.0159 26.1824 31.0579C26.0969 31.0999 26.0014 31.1172 25.9067 31.1077C25.8119 31.0982 25.7217 31.0625 25.6463 31.0044L15.8632 23.4791Z" fill="#76BC2D"/>
<defs>
<linearGradient id="paint0_linear_868_8476" x1="16" y1="34.99" x2="16" y2="1.95356" gradientUnits="userSpaceOnUse">
<stop stop-color="#76BC2D"/>
<stop offset="0.192" stop-color="#7FCB30"/>
<stop offset="0.42" stop-color="#84D332"/>
<stop offset="0.775" stop-color="#86D633"/>
</linearGradient>
</defs>
</svg>
