<svg width="32" height="32" viewBox="0 0 32 32" fill="none" xmlns="http://www.w3.org/2000/svg">
<g clip-path="url(#clip0_868_8475)">
<path d="M17.8187 0.238402H4.19915C4.05776 0.238402 3.91775 0.266281 3.78714 0.320444C3.65654 0.374606 3.53789 0.45399 3.43799 0.554053C3.33809 0.654116 3.25891 0.772894 3.20496 0.903592C3.15101 1.03429 3.12336 1.17434 3.1236 1.31574V30.6846C3.12336 30.826 3.15101 30.9661 3.20496 31.0968C3.25891 31.2275 3.33809 31.3462 3.43799 31.4463C3.53789 31.5464 3.65654 31.6257 3.78714 31.6799C3.91775 31.7341 4.05776 31.762 4.19915 31.762H27.8009C28.085 31.7596 28.3565 31.645 28.5564 31.4432C28.7562 31.2413 28.8681 30.9687 28.8676 30.6846V11.2482C28.8681 10.9641 28.7562 10.6915 28.5564 10.4896C28.3565 10.2878 28.085 10.1732 27.8009 10.1708H19.968C19.6843 10.1685 19.413 10.0541 19.2133 9.8527C19.0135 9.65125 18.9014 9.37901 18.9014 9.09529V1.31574C18.9028 1.17341 18.8758 1.03223 18.8218 0.900522C18.7678 0.768814 18.688 0.649238 18.5871 0.548841C18.4863 0.448443 18.3663 0.369254 18.2343 0.315938C18.1023 0.262623 17.961 0.23626 17.8187 0.238402Z" fill="white"/>
<path d="M17.3209 1.61422V8.99022C17.3214 9.70724 17.6061 10.3948 18.1126 10.9024C18.6191 11.4099 19.3061 11.6959 20.0231 11.6978H27.4542V30.3858H4.5458V1.61422H17.3209ZM17.8418 0H4.02491C3.88141 -1.90313e-07 3.73933 0.0282925 3.60678 0.0832595C3.47423 0.138226 3.35381 0.218789 3.25243 0.320338C3.15105 0.421886 3.07068 0.542428 3.01593 0.675067C2.96118 0.807706 2.93312 0.949839 2.93335 1.09333V30.9067C2.93312 31.0502 2.96118 31.1923 3.01593 31.3249C3.07068 31.4576 3.15105 31.5781 3.25243 31.6797C3.35381 31.7812 3.47423 31.8618 3.60678 31.9167C3.73933 31.9717 3.88141 32 4.02491 32H27.9751C28.1186 32 28.2607 31.9717 28.3933 31.9167C28.5258 31.8618 28.6462 31.7812 28.7476 31.6797C28.849 31.5781 28.9294 31.4576 28.9841 31.3249C29.0389 31.1923 29.0669 31.0502 29.0667 30.9067V11.1751C29.0667 10.8856 28.9517 10.608 28.747 10.4033C28.5423 10.1986 28.2646 10.0836 27.9751 10.0836H20.0231C19.8798 10.0833 19.7379 10.0549 19.6055 9.99979C19.4732 9.94471 19.353 9.86411 19.2518 9.76259C19.1506 9.66106 19.0704 9.5406 19.0158 9.40808C18.9611 9.27555 18.9331 9.13357 18.9333 8.99022V1.09333C18.9336 0.949839 18.9055 0.807706 18.8508 0.675067C18.796 0.542428 18.7157 0.421886 18.6143 0.320338C18.5129 0.218789 18.3925 0.138226 18.2599 0.0832595C18.1274 0.0282925 17.9853 -1.90313e-07 17.8418 0Z" fill="url(#paint0_linear_868_8475)"/>
<path d="M28.6507 10.3005L18.5564 0.238281V8.43739C18.5548 8.68058 18.6011 8.9217 18.6927 9.14697C18.7843 9.37225 18.9194 9.57726 19.0903 9.75029C19.2612 9.92332 19.4645 10.061 19.6886 10.1554C19.9127 10.2498 20.1533 10.2991 20.3964 10.3005H28.6507Z" fill="#0078D4"/>
<path d="M23.8151 14.5708H8.18315C7.5911 14.5708 7.11115 15.0508 7.11115 15.6428V15.8828C7.11115 16.4748 7.5911 16.9548 8.18315 16.9548H23.8151C24.4072 16.9548 24.8871 16.4748 24.8871 15.8828V15.6428C24.8871 15.0508 24.4072 14.5708 23.8151 14.5708Z" fill="#5EA0EF"/>
<path d="M23.8151 18.8428H8.18315C7.5911 18.8428 7.11115 19.3227 7.11115 19.9148V20.1548C7.11115 20.7468 7.5911 21.2268 8.18315 21.2268H23.8151C24.4072 21.2268 24.8871 20.7468 24.8871 20.1548V19.9148C24.8871 19.3227 24.4072 18.8428 23.8151 18.8428Z" fill="#5EA0EF"/>
<path d="M17.2427 23.1147H8.18315C7.5911 23.1147 7.11115 23.5947 7.11115 24.1867V24.4267C7.11115 25.0188 7.5911 25.4987 8.18315 25.4987H17.2427C17.8348 25.4987 18.3147 25.0188 18.3147 24.4267V24.1867C18.3147 23.5947 17.8348 23.1147 17.2427 23.1147Z" fill="#5EA0EF"/>
</g>
<defs>
<linearGradient id="paint0_linear_868_8475" x1="16" y1="32" x2="16" y2="0" gradientUnits="userSpaceOnUse">
<stop stop-color="#0078D4"/>
<stop offset="0.817" stop-color="#5EA0EF"/>
</linearGradient>
<clipPath id="clip0_868_8475">
<rect width="32" height="32" fill="white"/>
</clipPath>
</defs>
</svg>
