<svg width="32" height="32" viewBox="0 0 32 32" fill="none" xmlns="http://www.w3.org/2000/svg">
<g clip-path="url(#clip0_868_8507)">
<path d="M19.8898 0.59375H1.91644V21.3671H19.8898V0.59375Z" fill="#5EA0EF"/>
<path d="M19.8898 21.9609H1.91647C1.75899 21.9609 1.60796 21.8983 1.49661 21.787C1.38525 21.6756 1.3227 21.5246 1.3227 21.3671V0.59378C1.32246 0.515739 1.33766 0.438421 1.36742 0.366274C1.39717 0.294128 1.4409 0.228577 1.49609 0.173393C1.55127 0.118209 1.61682 0.0744803 1.68897 0.0447233C1.76111 0.0149663 1.83843 -0.000232036 1.91647 2.67763e-06H19.8898C19.9677 2.32641e-06 20.0448 0.0153736 20.1168 0.0452355C20.1887 0.0750974 20.254 0.118863 20.309 0.174024C20.364 0.229184 20.4076 0.294656 20.4373 0.366686C20.4669 0.438716 20.482 0.515888 20.4818 0.59378V21.3671C20.4818 21.5243 20.4195 21.675 20.3085 21.7864C20.1976 21.8977 20.047 21.9604 19.8898 21.9609ZM2.50847 20.7733H19.296V1.18756H2.50847V20.7733Z" fill="#0078D4"/>
<path d="M23.3245 3.40967H5.35114V24.183H23.3245V3.40967Z" fill="#83B9F9"/>
<path d="M23.3245 24.7768H5.35116C5.19383 24.7763 5.04307 24.7136 4.93182 24.6024C4.82056 24.4911 4.75785 24.3404 4.75739 24.183V3.4097C4.75785 3.25236 4.82056 3.1016 4.93182 2.99035C5.04307 2.8791 5.19383 2.81639 5.35116 2.81592H23.3245C23.482 2.81592 23.633 2.87848 23.7444 2.98983C23.8557 3.10119 23.9183 3.25222 23.9183 3.4097V24.1777C23.919 24.2561 23.9041 24.3339 23.8746 24.4066C23.8451 24.4792 23.8015 24.5453 23.7463 24.601C23.691 24.6567 23.6254 24.7009 23.553 24.7311C23.4806 24.7613 23.4029 24.7768 23.3245 24.7768ZM5.94494 23.5893H22.7325V4.00347H5.94494V23.5893Z" fill="#0078D4"/>
<path d="M21.4791 6.02686H10.3431C10.1089 6.0292 9.88511 6.12388 9.72033 6.29033C9.55555 6.45677 9.46312 6.68153 9.46313 6.91574V30.9335C9.46312 31.1677 9.55555 31.3925 9.72033 31.5589C9.88511 31.7254 10.1089 31.8201 10.3431 31.8224H29.6427C29.8766 31.8196 30.0999 31.7247 30.2643 31.5583C30.4287 31.3919 30.5209 31.1674 30.5209 30.9335V15.0295C30.5209 14.7956 30.4287 14.5711 30.2643 14.4047C30.0999 14.2383 29.8766 14.1434 29.6427 14.1406H23.2427C23.01 14.1383 22.7875 14.0449 22.623 13.8803C22.4585 13.7158 22.365 13.4933 22.3627 13.2606V6.90863C22.3608 6.67504 22.2671 6.45157 22.1017 6.28656C21.9364 6.12154 21.7127 6.02825 21.4791 6.02686Z" fill="white"/>
<path d="M21.072 7.15212V13.1841C21.0723 13.475 21.1298 13.763 21.2413 14.0317C21.3529 14.3003 21.5162 14.5444 21.7221 14.7499C21.9279 14.9554 22.1722 15.1184 22.4411 15.2295C22.7099 15.3406 22.998 15.3977 23.2889 15.3975H29.3654V30.6863H10.6258V7.15212H21.072ZM21.4987 5.83301H10.1991C9.96338 5.83301 9.73729 5.92666 9.57059 6.09336C9.40389 6.26006 9.31024 6.48615 9.31024 6.7219V31.1112C9.31024 31.347 9.40389 31.5731 9.57059 31.7398C9.73729 31.9065 9.96338 32.0001 10.1991 32.0001H29.7849C30.0207 32.0001 30.2467 31.9065 30.4134 31.7398C30.5801 31.5731 30.6738 31.347 30.6738 31.1112V14.9708C30.6738 14.735 30.5801 14.5089 30.4134 14.3422C30.2467 14.1755 30.0207 14.0819 29.7849 14.0819H23.2889C23.0532 14.0819 22.8271 13.9882 22.6604 13.8215C22.4937 13.6548 22.4 13.4288 22.4 13.193V6.72545C22.4 6.4897 22.3064 6.26361 22.1397 6.09691C21.973 5.93021 21.7469 5.83656 21.5111 5.83656L21.4987 5.83301Z" fill="url(#paint0_linear_868_8507)"/>
<path d="M30.336 14.2562L22.0836 6.02686V12.7326C22.0812 13.134 22.2383 13.52 22.5203 13.8057C22.8023 14.0913 23.1862 14.2534 23.5876 14.2562H30.336Z" fill="#0078D4"/>
<path d="M26.384 17.7456H13.6C13.116 17.7456 12.7236 18.138 12.7236 18.622V18.8194C12.7236 19.3034 13.116 19.6958 13.6 19.6958H26.384C26.8681 19.6958 27.2605 19.3034 27.2605 18.8194V18.622C27.2605 18.138 26.8681 17.7456 26.384 17.7456Z" fill="#5EA0EF"/>
<path d="M26.384 21.2407H13.6C13.116 21.2407 12.7236 21.6331 12.7236 22.1172V22.3145C12.7236 22.7985 13.116 23.1909 13.6 23.1909H26.384C26.8681 23.1909 27.2605 22.7985 27.2605 22.3145V22.1172C27.2605 21.6331 26.8681 21.2407 26.384 21.2407Z" fill="#5EA0EF"/>
<path d="M21.0098 24.7344H13.6C13.116 24.7344 12.7236 25.1268 12.7236 25.6108V25.8082C12.7236 26.2922 13.116 26.6846 13.6 26.6846H21.0098C21.4938 26.6846 21.8862 26.2922 21.8862 25.8082V25.6108C21.8862 25.1268 21.4938 24.7344 21.0098 24.7344Z" fill="#5EA0EF"/>
</g>
<defs>
<linearGradient id="paint0_linear_868_8507" x1="19.9929" y1="32.0001" x2="19.9929" y2="5.83301" gradientUnits="userSpaceOnUse">
<stop stop-color="#0078D4"/>
<stop offset="0.817" stop-color="#5EA0EF"/>
</linearGradient>
<clipPath id="clip0_868_8507">
<rect width="32" height="32" fill="white"/>
</clipPath>
</defs>
</svg>
