<svg width="32" height="32" viewBox="0 0 32 32" fill="none" xmlns="http://www.w3.org/2000/svg">
<g clip-path="url(#clip0_868_8472)">
<path d="M31.2516 5.83622H17.2924C17.1451 5.83662 17.0009 5.79331 16.8782 5.71177L12.8907 3.05933C12.7681 2.97726 12.624 2.93334 12.4764 2.93311H0.748444C0.650241 2.93287 0.552957 2.95201 0.462161 2.98943C0.371366 3.02685 0.288845 3.08181 0.219322 3.15117C0.149799 3.22053 0.0946408 3.30292 0.0570062 3.39363C0.0193716 3.48433 -2.78352e-07 3.58157 0 3.67977L0 28.3198C-2.78352e-07 28.418 0.0193716 28.5152 0.0570062 28.6059C0.0946408 28.6966 0.149799 28.779 0.219322 28.8484C0.288845 28.9177 0.371366 28.9727 0.462161 29.0101C0.552957 29.0475 0.650241 29.0667 0.748444 29.0664H31.2516C31.3498 29.0667 31.447 29.0475 31.5378 29.0101C31.6286 28.9727 31.7112 28.9177 31.7807 28.8484C31.8502 28.779 31.9054 28.6966 31.943 28.6059C31.9806 28.5152 32 28.418 32 28.3198V6.57755C31.9986 6.38014 31.9191 6.19132 31.7788 6.0524C31.6385 5.91347 31.449 5.83574 31.2516 5.83622Z" fill="#DFA500"/>
<path d="M9.87556 4.36426H3.21422C3.04535 4.36426 2.90845 4.50116 2.90845 4.67004V5.5127C2.90845 5.68158 3.04535 5.81848 3.21422 5.81848H9.87556C10.0444 5.81848 10.1813 5.68158 10.1813 5.5127V4.67004C10.1813 4.50116 10.0444 4.36426 9.87556 4.36426Z" fill="white"/>
<path d="M31.2516 5.8008H15.9218C15.8228 5.80018 15.7248 5.81919 15.6332 5.85673C15.5417 5.89426 15.4585 5.94957 15.3884 6.01946L12.928 8.48524C12.858 8.55521 12.7748 8.61058 12.6833 8.64811C12.5917 8.68565 12.4936 8.70462 12.3947 8.70391H0.748444C0.650241 8.70367 0.552957 8.72281 0.462161 8.76023C0.371366 8.79765 0.288845 8.85261 0.219322 8.92197C0.149799 8.99133 0.0946408 9.07372 0.0570062 9.16443C0.0193716 9.25513 -2.78352e-07 9.35237 0 9.45057L0 28.2844C0.000233183 28.3824 0.0197773 28.4795 0.0575164 28.57C0.0952555 28.6605 0.150451 28.7426 0.21995 28.8118C0.28945 28.881 0.371893 28.9358 0.462572 28.9731C0.553251 29.0104 0.650391 29.0295 0.748444 29.0292H31.2516C31.3496 29.0295 31.4467 29.0104 31.5374 28.9731C31.6281 28.9358 31.7106 28.881 31.7801 28.8118C31.8496 28.7426 31.9047 28.6605 31.9425 28.57C31.9802 28.4795 31.9998 28.3824 32 28.2844V6.54746C32 6.44926 31.9806 6.35202 31.943 6.26131C31.9054 6.17061 31.8502 6.08822 31.7807 6.01886C31.7112 5.9495 31.6286 5.89454 31.5378 5.85712C31.447 5.8197 31.3498 5.80056 31.2516 5.8008Z" fill="url(#paint0_linear_868_8472)"/>
</g>
<defs>
<linearGradient id="paint0_linear_868_8472" x1="16.448" y1="0.862129" x2="15.7191" y2="30.1617" gradientUnits="userSpaceOnUse">
<stop stop-color="#FFD400"/>
<stop offset="0.415" stop-color="#FFD000"/>
<stop offset="0.845" stop-color="#FFC301"/>
<stop offset="1" stop-color="#FFBD02"/>
</linearGradient>
<clipPath id="clip0_868_8472">
<rect width="32" height="32" fill="white"/>
</clipPath>
</defs>
</svg>
