<svg width="32" height="32" viewBox="0 0 32 32" fill="none" xmlns="http://www.w3.org/2000/svg">
<g clip-path="url(#clip0_868_8485)">
<path d="M31.2516 5.83622H17.2924C17.1451 5.83662 17.0009 5.79331 16.8782 5.71177L12.8907 3.05933C12.7681 2.97726 12.624 2.93334 12.4764 2.93311H0.748444C0.650241 2.93287 0.552957 2.95201 0.462161 2.98943C0.371366 3.02685 0.288845 3.08181 0.219322 3.15117C0.149799 3.22053 0.0946408 3.30292 0.0570062 3.39363C0.0193716 3.48433 -2.78352e-07 3.58157 0 3.67977L0 28.3198C-2.78352e-07 28.418 0.0193716 28.5152 0.0570062 28.6059C0.0946408 28.6966 0.149799 28.779 0.219322 28.8484C0.288845 28.9177 0.371366 28.9727 0.462161 29.0101C0.552957 29.0475 0.650241 29.0667 0.748444 29.0664H31.2516C31.3498 29.0667 31.447 29.0475 31.5378 29.0101C31.6286 28.9727 31.7112 28.9177 31.7807 28.8484C31.8502 28.779 31.9054 28.6966 31.943 28.6059C31.9806 28.5152 32 28.418 32 28.3198V6.57755C31.9986 6.38014 31.9191 6.19132 31.7788 6.0524C31.6385 5.91347 31.449 5.83574 31.2516 5.83622Z" fill="#DFA500"/>
<path d="M9.87556 4.36426H3.21422C3.04535 4.36426 2.90845 4.50116 2.90845 4.67004V5.5127C2.90845 5.68158 3.04535 5.81848 3.21422 5.81848H9.87556C10.0444 5.81848 10.1813 5.68158 10.1813 5.5127V4.67004C10.1813 4.50116 10.0444 4.36426 9.87556 4.36426Z" fill="white"/>
<path d="M31.2516 5.8008H15.9218C15.8228 5.80018 15.7248 5.81919 15.6332 5.85673C15.5417 5.89426 15.4585 5.94957 15.3884 6.01946L12.928 8.48524C12.858 8.55521 12.7748 8.61058 12.6833 8.64811C12.5917 8.68565 12.4936 8.70462 12.3947 8.70391H0.748444C0.650241 8.70367 0.552957 8.72281 0.462161 8.76023C0.371366 8.79765 0.288845 8.85261 0.219322 8.92197C0.149799 8.99133 0.0946408 9.07372 0.0570062 9.16443C0.0193716 9.25513 -2.78352e-07 9.35237 0 9.45057L0 28.2844C0.000233183 28.3824 0.0197773 28.4795 0.0575164 28.57C0.0952555 28.6605 0.150451 28.7426 0.21995 28.8118C0.28945 28.881 0.371893 28.9358 0.462572 28.9731C0.553251 29.0104 0.650391 29.0295 0.748444 29.0292H31.2516C31.3496 29.0295 31.4467 29.0104 31.5374 28.9731C31.6281 28.9358 31.7106 28.881 31.7801 28.8118C31.8496 28.7426 31.9047 28.6605 31.9425 28.57C31.9802 28.4795 31.9998 28.3824 32 28.2844V6.54746C32 6.44926 31.9806 6.35202 31.943 6.26131C31.9054 6.17061 31.8502 6.08822 31.7807 6.01886C31.7112 5.9495 31.6286 5.89454 31.5378 5.85712C31.447 5.8197 31.3498 5.80056 31.2516 5.8008Z" fill="url(#paint0_linear_868_8485)"/>
<path d="M21.9431 14.5063V21.4628L15.9307 24.9579V17.9908L21.9431 14.5063Z" fill="#F78D1E"/>
<path d="M21.9431 14.5067L15.9325 18.0018L9.92001 14.5049L15.9325 11.0098L21.9431 14.5067Z" fill="#FFB34D"/>
<path d="M15.9307 18.0015V24.9579L9.92001 21.4628V14.5063L15.9307 18.0015Z" fill="#FAA21D"/>
<path d="M31.2516 5.83622H17.2924C17.1451 5.83662 17.0009 5.79331 16.8782 5.71177L12.8907 3.05933C12.7681 2.97726 12.624 2.93334 12.4764 2.93311H0.748444C0.650241 2.93287 0.552957 2.95201 0.462161 2.98943C0.371366 3.02685 0.288845 3.08181 0.219322 3.15117C0.149799 3.22053 0.0946408 3.30292 0.0570062 3.39363C0.0193716 3.48433 -2.78352e-07 3.58157 0 3.67977L0 28.3198C-2.78352e-07 28.418 0.0193716 28.5152 0.0570062 28.6059C0.0946408 28.6966 0.149799 28.779 0.219322 28.8484C0.288845 28.9177 0.371366 28.9727 0.462161 29.0101C0.552957 29.0475 0.650241 29.0667 0.748444 29.0664H31.2516C31.3498 29.0667 31.447 29.0475 31.5378 29.0101C31.6286 28.9727 31.7112 28.9177 31.7807 28.8484C31.8502 28.779 31.9054 28.6966 31.943 28.6059C31.9806 28.5152 32 28.418 32 28.3198V6.57755C31.9986 6.38014 31.9191 6.19132 31.7788 6.0524C31.6385 5.91347 31.449 5.83574 31.2516 5.83622Z" fill="#DFA500"/>
<path d="M9.87556 4.36426H3.21422C3.04535 4.36426 2.90845 4.50116 2.90845 4.67004V5.5127C2.90845 5.68158 3.04535 5.81848 3.21422 5.81848H9.87556C10.0444 5.81848 10.1813 5.68158 10.1813 5.5127V4.67004C10.1813 4.50116 10.0444 4.36426 9.87556 4.36426Z" fill="white"/>
<path d="M31.2516 5.8008H15.9218C15.8228 5.80018 15.7248 5.81919 15.6332 5.85673C15.5417 5.89426 15.4585 5.94957 15.3884 6.01946L12.928 8.48524C12.858 8.55521 12.7748 8.61058 12.6833 8.64811C12.5917 8.68565 12.4936 8.70462 12.3947 8.70391H0.748444C0.650241 8.70367 0.552957 8.72281 0.462161 8.76023C0.371366 8.79765 0.288845 8.85261 0.219322 8.92197C0.149799 8.99133 0.0946408 9.07372 0.0570062 9.16443C0.0193716 9.25513 -2.78352e-07 9.35237 0 9.45057L0 28.2844C0.000233183 28.3824 0.0197773 28.4795 0.0575164 28.57C0.0952555 28.6605 0.150451 28.7426 0.21995 28.8118C0.28945 28.881 0.371893 28.9358 0.462572 28.9731C0.553251 29.0104 0.650391 29.0295 0.748444 29.0292H31.2516C31.3496 29.0295 31.4467 29.0104 31.5374 28.9731C31.6281 28.9358 31.7106 28.881 31.7801 28.8118C31.8496 28.7426 31.9047 28.6605 31.9425 28.57C31.9802 28.4795 31.9998 28.3824 32 28.2844V6.54746C32 6.44926 31.9806 6.35202 31.943 6.26131C31.9054 6.17061 31.8502 6.08822 31.7807 6.01886C31.7112 5.9495 31.6286 5.89454 31.5378 5.85712C31.447 5.8197 31.3498 5.80056 31.2516 5.8008Z" fill="url(#paint1_linear_868_8485)"/>
<path d="M20.2791 23.4949C19.5562 24.0741 18.7253 24.5036 17.8347 24.7585C16.9442 25.0134 16.0119 25.0886 15.092 24.9796C14.1722 24.8707 13.2832 24.5799 12.4768 24.1241C11.6704 23.6682 10.9628 23.0566 10.3951 22.3246C9.82744 21.5927 9.41105 20.7551 9.17021 19.8607C8.92936 18.9662 8.86887 18.0328 8.99225 17.1148C9.11563 16.1968 9.42043 15.3125 9.88888 14.5134C10.3573 13.7143 10.9801 13.0164 11.7209 12.4603L11.792 12.4069C13.2624 11.2815 15.1196 10.7862 16.9551 11.0301C18.7906 11.274 20.4541 12.237 21.5795 13.7074C22.705 15.1777 23.2003 17.035 22.9564 18.8705C22.7125 20.706 21.7495 22.3695 20.2791 23.4949Z" fill="url(#paint2_radial_868_8485)"/>
<path d="M12.2027 19.9588C13.4418 19.9588 14.4462 18.9543 14.4462 17.7152C14.4462 16.4762 13.4418 15.4717 12.2027 15.4717C10.9636 15.4717 9.95914 16.4762 9.95914 17.7152C9.95914 18.9543 10.9636 19.9588 12.2027 19.9588Z" fill="url(#paint3_linear_868_8485)"/>
<path d="M16.9316 23.2725C17.7367 23.2725 18.3893 22.6198 18.3893 21.8147C18.3893 21.0096 17.7367 20.3569 16.9316 20.3569C16.1265 20.3569 15.4738 21.0096 15.4738 21.8147C15.4738 22.6198 16.1265 23.2725 16.9316 23.2725Z" fill="url(#paint4_linear_868_8485)"/>
<path d="M20.256 19.7453C21.1112 19.7453 21.8045 19.0521 21.8045 18.1969C21.8045 17.3417 21.1112 16.6484 20.256 16.6484C19.4008 16.6484 18.7076 17.3417 18.7076 18.1969C18.7076 19.0521 19.4008 19.7453 20.256 19.7453Z" fill="white"/>
<path opacity="0.55" d="M9.95557 21.484C10.1106 21.7466 10.2816 21.9995 10.4676 22.2413C10.61 22.4268 10.7619 22.6048 10.9227 22.7746C11.1212 21.7987 11.4191 20.8456 11.8116 19.9302C11.3709 19.8542 10.9633 19.6473 10.6418 19.3364C10.3616 20.0348 10.1322 20.7525 9.95557 21.484Z" fill="#F2F2F2"/>
<path opacity="0.55" d="M11.4489 15.6032C11.1586 14.8239 10.9686 14.0108 10.8836 13.1836C10.5397 13.5493 10.2363 13.951 9.97867 14.3818C10.0749 15.0413 10.2314 15.6905 10.4462 16.3214C10.7067 15.9929 11.0541 15.7441 11.4489 15.6032Z" fill="#F2F2F2"/>
<path opacity="0.55" d="M13.84 19.2456C13.5145 19.5957 13.0851 19.8319 12.6151 19.9194C12.9819 20.3041 13.3804 20.6573 13.8062 20.9754C14.3321 21.3712 14.8954 21.7148 15.488 22.0012C15.4764 21.9389 15.4693 21.876 15.4667 21.8127C15.4665 21.6184 15.5055 21.426 15.5812 21.247C15.657 21.068 15.768 20.9061 15.9076 20.7709C15.155 20.3545 14.46 19.8417 13.84 19.2456Z" fill="#F2F2F2"/>
<path opacity="0.55" d="M18.3858 21.7241C18.3858 21.7543 18.3858 21.7828 18.3858 21.813C18.3855 22.1939 18.2362 22.5595 17.9698 22.8317C18.8919 23.0139 19.8329 23.0814 20.7716 23.0326C21.1248 22.6988 21.4418 22.3288 21.7173 21.9286C21.3631 21.9673 21.007 21.9869 20.6507 21.9872C19.888 21.9889 19.1278 21.9006 18.3858 21.7241Z" fill="#F2F2F2"/>
<path opacity="0.55" d="M19.2285 17.1054C18.2738 16.4036 17.3778 15.6253 16.5494 14.7783C18.0621 14.0157 19.7284 13.6072 21.4222 13.5836C21.0658 13.1388 20.6555 12.7399 20.2009 12.396C18.8737 12.4814 17.5702 12.7891 16.3449 13.3063C16.0782 13.42 15.8418 13.5889 15.5858 13.724L15.5627 13.6974C14.9377 12.9559 14.3914 12.1516 13.9325 11.2974C13.6287 11.3919 13.3317 11.5072 13.0436 11.6423C13.5205 12.5489 14.0907 13.4033 14.7449 14.1916C14.1121 14.5987 13.527 15.0758 13.0009 15.6138C13.4583 15.7869 13.8466 16.1046 14.1067 16.5187C14.5947 16.0487 15.131 15.6316 15.7067 15.2743C16.6338 16.2438 17.6452 17.129 18.7289 17.9196C18.8037 17.6016 18.9789 17.3161 19.2285 17.1054Z" fill="#F2F2F2"/>
<path opacity="0.55" d="M22.5938 19.1036L22.5689 19.0894L22.3254 18.9578L22.2791 18.9329L22.0605 18.8121L22.0071 18.7818L21.7476 18.6343C21.6602 18.9372 21.4767 19.2036 21.2249 19.3934L21.5325 19.5712L21.6018 19.6103L21.888 19.7685L21.9147 19.7845C22.1458 19.9089 22.3822 20.0352 22.6258 20.1578C22.724 19.8589 22.8018 19.5536 22.8587 19.2441L22.5938 19.1036Z" fill="#F2F2F2"/>
<path d="M12.2027 19.9588C13.4418 19.9588 14.4462 18.9543 14.4462 17.7152C14.4462 16.4762 13.4418 15.4717 12.2027 15.4717C10.9636 15.4717 9.95914 16.4762 9.95914 17.7152C9.95914 18.9543 10.9636 19.9588 12.2027 19.9588Z" fill="white"/>
<path d="M16.9316 23.2725C17.7367 23.2725 18.3893 22.6198 18.3893 21.8147C18.3893 21.0096 17.7367 20.3569 16.9316 20.3569C16.1265 20.3569 15.4738 21.0096 15.4738 21.8147C15.4738 22.6198 16.1265 23.2725 16.9316 23.2725Z" fill="white"/>
</g>
<defs>
<linearGradient id="paint0_linear_868_8485" x1="16.448" y1="0.862129" x2="15.7191" y2="30.1617" gradientUnits="userSpaceOnUse">
<stop stop-color="#FFD400"/>
<stop offset="1" stop-color="#FFBD02"/>
</linearGradient>
<linearGradient id="paint1_linear_868_8485" x1="16.448" y1="0.862129" x2="15.7191" y2="30.1617" gradientUnits="userSpaceOnUse">
<stop stop-color="#FFD400"/>
<stop offset="1" stop-color="#FFBD02"/>
</linearGradient>
<radialGradient id="paint2_radial_868_8485" cx="0" cy="0" r="1" gradientUnits="userSpaceOnUse" gradientTransform="translate(15.9964 17.9726) scale(6.9824)">
<stop offset="0.183" stop-color="#5EA0EF"/>
<stop offset="1" stop-color="#0078D4"/>
</radialGradient>
<linearGradient id="paint3_linear_868_8485" x1="12.2205" y1="20.0192" x2="12.1956" y2="16.7659" gradientUnits="userSpaceOnUse">
<stop stop-color="#CCCCCC"/>
<stop offset="0.123" stop-color="#D7D7D7"/>
<stop offset="1" stop-color="#FCFCFC"/>
</linearGradient>
<linearGradient id="paint4_linear_868_8485" x1="16.9316" y1="23.2725" x2="16.9316" y2="20.3552" gradientUnits="userSpaceOnUse">
<stop stop-color="#CCCCCC"/>
<stop offset="0.123" stop-color="#D7D7D7"/>
<stop offset="1" stop-color="#FCFCFC"/>
</linearGradient>
<clipPath id="clip0_868_8485">
<rect width="32" height="32" fill="white"/>
</clipPath>
</defs>
</svg>
