<svg width="32" height="32" viewBox="0 0 32 32" fill="none" xmlns="http://www.w3.org/2000/svg">
<path d="M29.8845 2.24023H2.09779C1.54796 2.24023 1.10223 2.68596 1.10223 3.23579V21.1025C1.10223 21.6523 1.54796 22.098 2.09779 22.098H29.8845C30.4343 22.098 30.88 21.6523 30.88 21.1025V3.23579C30.88 2.68596 30.4343 2.24023 29.8845 2.24023Z" fill="url(#paint0_linear_868_8478)"/>
<path d="M20.96 11.2715V17.0493L16 19.947V14.1693L20.96 11.2715Z" fill="#50E6FF"/>
<path d="M16 14.1693V19.947L11.04 17.0493V11.2715L16 14.1693Z" fill="#9CEBFF"/>
<path d="M11.04 17.0489L16 14.1689V19.9467L11.04 17.0489Z" fill="#C3F1FF"/>
<path d="M20.96 17.0489L16 14.1689V19.9467L20.96 17.0489Z" fill="#9CEBFF"/>
<path d="M21.9734 28.107C19.0223 27.6448 18.9156 25.5115 18.9156 22.0981H13.0845C13.0845 25.5115 12.9778 27.6448 10.0267 28.107C9.62989 28.1748 9.26785 28.3753 8.9998 28.6757C8.73175 28.976 8.57357 29.3584 8.55115 29.7604H23.4489C23.4265 29.3584 23.2683 28.976 23.0003 28.6757C22.7322 28.3753 22.3702 28.1748 21.9734 28.107Z" fill="url(#paint1_linear_868_8478)"/>
<path d="M19.7867 11.0578C18.5783 11.4036 17.2972 11.4036 16.0889 11.0578L16 10.9689L15.6622 11.0933C14.4362 11.3708 13.1554 11.278 11.9822 10.8267L11.1644 11.3067L16 14.2222L20.96 11.3067L20.2844 10.9155L19.7867 11.0578Z" fill="#C3F1FF"/>
<path d="M22.1867 8.889C22.0267 8.37344 21.3867 7.64455 18.9334 8.39122C17.8821 8.74717 16.9354 9.35795 16.1778 10.169C17.321 8.57109 19.0319 7.47077 20.96 7.09344L18.8089 6.98678L19.5556 5.54677C17.8331 6.53789 16.5595 8.15542 16 10.0623C16 10.0623 16 10.2223 16 10.2934C15.7163 8.91499 15.1576 7.60788 14.3573 6.45022C13.557 5.29255 12.5316 4.3081 11.3423 3.55566L12.0711 5.47566H9.08447C11.3319 6.11864 13.3253 7.44137 14.7911 9.26233C14.2667 8.79498 13.6652 8.42206 13.0134 8.16011C12.2066 7.7334 11.2782 7.59539 10.3823 7.769C10.2336 7.82317 10.0982 7.90822 9.9848 8.01853C9.87142 8.12884 9.7827 8.26192 9.72447 8.409C9.51114 8.90678 9.54669 9.88455 11.9111 10.8268C13.0843 11.2781 14.3651 11.3709 15.5911 11.0934L16 10.969H16.1423C17.3506 11.3148 18.6317 11.3148 19.84 10.969C20.7259 10.7796 21.5252 10.305 22.1156 9.61789C22.2217 9.39013 22.2468 9.13296 22.1867 8.889ZM12.2667 10.0801C10.88 9.529 10.3823 8.96011 10.4889 8.67566C10.5 8.63637 10.5231 8.60152 10.555 8.57601C10.5869 8.55051 10.6259 8.53562 10.6667 8.53344C10.8445 8.53344 11.4134 8.37344 12.7111 8.90678C13.5192 9.23839 14.2335 9.7634 14.7911 10.4357C13.9337 10.5054 13.0715 10.384 12.2667 10.0801ZM21.3334 9.28011C20.8506 9.77829 20.2326 10.1244 19.5556 10.2757C18.7172 10.5141 17.8353 10.5567 16.9778 10.4001C17.6045 9.79328 18.3571 9.33197 19.1823 9.049C20.6045 8.60455 21.3334 8.729 21.44 9.049C21.4401 9.09296 21.4306 9.13641 21.4122 9.17633C21.3938 9.21625 21.3669 9.25166 21.3334 9.28011Z" fill="#FFCA00"/>
<defs>
<linearGradient id="paint0_linear_868_8478" x1="16" y1="22.098" x2="16" y2="2.24023" gradientUnits="userSpaceOnUse">
<stop stop-color="#0078D4"/>
<stop offset="0.82" stop-color="#5EA0EF"/>
</linearGradient>
<linearGradient id="paint1_linear_868_8478" x1="16" y1="29.7604" x2="16" y2="22.0981" gradientUnits="userSpaceOnUse">
<stop offset="0.15" stop-color="#CCCCCC"/>
<stop offset="1" stop-color="#707070"/>
</linearGradient>
</defs>
</svg>
