<svg width="32" height="32" viewBox="0 0 32 32" fill="none" xmlns="http://www.w3.org/2000/svg">
<path d="M1.77777 10.626H30.2222V26.4891C30.2222 26.7413 30.122 26.9833 29.9436 27.1616C29.7653 27.34 29.5234 27.4402 29.2711 27.4402H2.72888C2.47663 27.4402 2.23471 27.34 2.05634 27.1616C1.87798 26.9833 1.77777 26.7413 1.77777 26.4891V10.626Z" fill="url(#paint0_linear_868_8460)"/>
<path d="M2.73599 4.56546H29.2675C29.5195 4.56451 29.7615 4.66357 29.9405 4.84089C30.1195 5.0182 30.2208 5.25929 30.2222 5.51123V10.6259H1.77777V5.51123C1.77847 5.38618 1.80382 5.26249 1.85238 5.14725C1.90093 5.03201 1.97174 4.92747 2.06074 4.83962C2.14974 4.75178 2.2552 4.68234 2.37107 4.6353C2.48693 4.58825 2.61094 4.56452 2.73599 4.56546Z" fill="#0078D4"/>
<path d="M25.7564 6.36475H6.24887C5.99064 6.36475 5.78131 6.57408 5.78131 6.8323V8.29719C5.78131 8.55541 5.99064 8.76475 6.24887 8.76475H25.7564C26.0146 8.76475 26.224 8.55541 26.224 8.29719V6.8323C26.224 6.57408 26.0146 6.36475 25.7564 6.36475Z" fill="#F2F2F2"/>
<path d="M11.7529 23.9448L15.4062 14.0853C15.4328 14.0128 15.4416 13.935 15.4317 13.8584C15.4218 13.7819 15.3935 13.7088 15.3494 13.6455C15.3053 13.5821 15.2465 13.5304 15.1781 13.4946C15.1097 13.4588 15.0337 13.4401 14.9565 13.4399H12.6862C12.5885 13.4401 12.4932 13.4702 12.4132 13.5261C12.3331 13.582 12.272 13.6612 12.2382 13.7528L8.58491 23.6124C8.5583 23.6846 8.54951 23.7622 8.55931 23.8386C8.5691 23.9149 8.59718 23.9878 8.64116 24.0509C8.68514 24.1141 8.74372 24.1657 8.81192 24.2014C8.88012 24.2371 8.95593 24.2558 9.03291 24.2559H11.3031C11.4009 24.256 11.4963 24.2263 11.5767 24.1707C11.657 24.1151 11.7185 24.0363 11.7529 23.9448Z" fill="#F2F2F2"/>
<path d="M19.7618 23.9448L23.4152 14.0853C23.4421 14.0129 23.4512 13.9352 23.4416 13.8586C23.432 13.782 23.4039 13.7089 23.3599 13.6454C23.3159 13.582 23.2572 13.5302 23.1888 13.4944C23.1204 13.4587 23.0443 13.44 22.9672 13.4399H20.6969C20.5989 13.4397 20.5032 13.4696 20.4228 13.5256C20.3423 13.5816 20.281 13.6609 20.2472 13.7528L16.5938 23.6124C16.5672 23.6848 16.5584 23.7625 16.5683 23.839C16.5782 23.9155 16.6064 23.9885 16.6506 24.0517C16.6948 24.1149 16.7536 24.1665 16.822 24.2021C16.8904 24.2376 16.9665 24.2561 17.0436 24.2559H19.3138C19.4113 24.2559 19.5065 24.2261 19.5865 24.1705C19.6666 24.1149 19.7278 24.0362 19.7618 23.9448Z" fill="#F2F2F2"/>
<defs>
<linearGradient id="paint0_linear_868_8460" x1="16" y1="27.4349" x2="16" y2="10.626" gradientUnits="userSpaceOnUse">
<stop stop-color="#32BEDD"/>
<stop offset="0.175" stop-color="#32CAEA"/>
<stop offset="0.41" stop-color="#32D2F2"/>
<stop offset="0.775" stop-color="#32D4F5"/>
</linearGradient>
</defs>
</svg>
