<svg width="32" height="32" viewBox="0 0 32 32" fill="none" xmlns="http://www.w3.org/2000/svg">
<path d="M31.1111 17.5998V14.222L30.5778 14.0442L26.8445 12.7998L25.9556 10.4887L27.9111 6.57756L25.4222 4.08867L24.8889 4.26645L21.5111 6.04423L19.2 5.15534L17.6 0.888672H14.2222L14.0445 1.42201L12.8 4.97756L10.4889 6.04423L6.5778 4.08867L4.08892 6.57756L4.26669 7.11089L6.04447 10.4887L5.15558 12.7998L0.888916 14.3998V17.7776L1.42225 17.9553L5.15558 19.1998L6.04447 21.5109L4.08892 25.422L6.5778 27.9109L7.11114 27.7331L10.4889 25.9553L12.8 26.8442L14.4 30.9331H17.7778L17.9556 30.3998L19.2 26.6665L21.5111 25.7776L25.4222 27.7331L27.9111 25.2442L27.7334 24.8887L25.9556 21.5109L26.8445 19.1998L31.1111 17.5998Z" fill="url(#paint0_linear_868_8503)"/>
<path d="M21.8667 11.5556L20.4445 12.8001C20.9148 13.3181 21.2752 13.9262 21.5039 14.5874C21.7326 15.2487 21.8248 15.9495 21.7749 16.6475C21.7251 17.3454 21.5342 18.026 21.2139 18.6481C20.8935 19.2701 20.4503 19.8208 19.9111 20.2667C19.3937 20.7382 18.7858 21.0997 18.1243 21.3291C17.4629 21.5585 16.7617 21.651 16.0634 21.6012C15.3651 21.5513 14.6842 21.36 14.0621 21.0389C13.44 20.7178 12.8897 20.2737 12.4445 19.7334C11.5862 18.7827 11.1111 17.5475 11.1111 16.2667C11.1111 14.986 11.5862 13.7507 12.4445 12.8001H12.6222L13.6889 13.6889H13.8667V13.5112L13.5111 9.95561C13.5111 9.77783 13.3334 9.77783 13.1556 9.77783L9.77779 10.3112C9.73064 10.3112 9.68543 10.3299 9.65209 10.3632C9.61875 10.3966 9.60002 10.4418 9.60002 10.4889L10.6667 11.3778V11.5556C10.0548 12.2655 9.5902 13.09 9.29991 13.9811C9.00962 14.8721 8.89943 15.8121 8.97575 16.7461C9.05207 17.6802 9.31339 18.5898 9.74449 19.4219C10.1756 20.2541 10.7679 20.9922 11.4869 21.5933C12.2059 22.1945 13.0372 22.6466 13.9326 22.9235C14.828 23.2003 15.7694 23.2964 16.7023 23.206C17.6351 23.1157 18.5406 22.8407 19.3662 22.3971C20.1918 21.9536 20.9209 21.3502 21.5111 20.6223C22.7517 19.462 23.4848 17.8593 23.5514 16.162C23.6179 14.4646 23.0126 12.8095 21.8667 11.5556Z" fill="white"/>
<defs>
<linearGradient id="paint0_linear_868_8503" x1="16" y1="31.1109" x2="16" y2="0.888672" gradientUnits="userSpaceOnUse">
<stop stop-color="#32BEDD"/>
<stop offset="1" stop-color="#32D4F5"/>
</linearGradient>
</defs>
</svg>
