<svg width="32" height="32" viewBox="0 0 32 32" fill="none" xmlns="http://www.w3.org/2000/svg">
<path d="M16.5333 26.2254C16.5333 25.9516 15.4435 25.9516 15.4435 26.2254C15.4789 26.63 15.4301 27.0375 15.3003 27.4223C15.1705 27.8072 14.9625 28.161 14.6893 28.4616C14.4161 28.7621 14.0837 29.0029 13.713 29.1688C13.3423 29.3346 12.9412 29.422 12.5351 29.4254H19.4364C19.0307 29.4215 18.6301 29.3338 18.2599 29.1677C17.8896 29.0016 17.5578 28.7607 17.2851 28.4602C17.0125 28.1597 16.8049 27.806 16.6756 27.4214C16.5462 27.0368 16.4977 26.6296 16.5333 26.2254Z" fill="#999999"/>
<path d="M23.7066 1.95555C23.897 1.76546 24.155 1.65869 24.424 1.65869C24.693 1.65869 24.951 1.76546 25.1413 1.95555L25.1875 2.00533C27.619 4.83453 28.8916 8.47801 28.7504 12.2058C28.6093 15.9336 27.0647 19.4704 24.4262 22.1076C21.7876 24.7447 18.2501 26.2875 14.5222 26.4268C10.7943 26.5661 7.15149 25.2916 4.32354 22.8587C4.12474 22.6808 4.00411 22.4317 3.9878 22.1654C3.97149 21.8992 4.06083 21.6372 4.23643 21.4364L4.28087 21.3902C4.46176 21.2055 4.70635 21.0967 4.9647 21.0861C5.22306 21.0756 5.47571 21.164 5.67109 21.3333C8.11237 23.4196 11.2505 24.5087 14.4593 24.3834C17.6681 24.2581 20.7117 22.9276 22.9829 20.6573C25.2541 18.3871 26.5858 15.344 26.7123 12.1352C26.8389 8.92641 25.751 5.78788 23.6658 3.34577C23.4951 3.15201 23.4044 2.90068 23.412 2.6426C23.4196 2.38452 23.5249 2.13895 23.7066 1.95555Z" fill="#A3A3A3"/>
<path d="M21.2373 31.1109H10.7484C10.524 31.1109 10.3088 31.0217 10.1501 30.863C9.99138 30.7043 9.90222 30.4891 9.90222 30.2647C9.90222 30.0402 9.99138 29.825 10.1501 29.6663C10.3088 29.5076 10.524 29.4185 10.7484 29.4185H21.2373C21.4615 29.4189 21.6762 29.5083 21.8346 29.6669C21.9929 29.8256 22.0818 30.0406 22.0818 30.2647C22.0818 30.4888 21.9929 30.7038 21.8346 30.8624C21.6762 31.0211 21.4615 31.1104 21.2373 31.1109Z" fill="#A3A3A3"/>
<path d="M13.9929 22.446C19.9458 22.446 24.7716 17.6202 24.7716 11.6673C24.7716 5.71445 19.9458 0.888672 13.9929 0.888672C8.04001 0.888672 3.21423 5.71445 3.21423 11.6673C3.21423 17.6202 8.04001 22.446 13.9929 22.446Z" fill="url(#paint0_linear_868_8470)"/>
<path d="M12.8897 15.2817L11.8991 16.2723C11.8181 16.3533 11.7082 16.3988 11.5937 16.3988C11.4791 16.3988 11.3692 16.3533 11.2882 16.2723L7.35479 12.3389C7.27378 12.2579 7.22826 12.148 7.22826 12.0334C7.22826 11.9189 7.27378 11.809 7.35479 11.728L8.0399 11.0429C8.12092 10.9619 8.2308 10.9163 8.34537 10.9163C8.45994 10.9163 8.56982 10.9619 8.65084 11.0429L12.8897 15.2817Z" fill="white"/>
<path d="M11.3085 16.2787L10.3179 15.2881L19.3688 6.23718C19.4499 6.15616 19.5597 6.11065 19.6743 6.11065C19.7889 6.11065 19.8988 6.15616 19.9798 6.23718L20.6649 6.92229C20.7459 7.0033 20.7914 7.11318 20.7914 7.22776C20.7914 7.34233 20.7459 7.45221 20.6649 7.53323L11.9181 16.28C11.8371 16.361 11.7272 16.4065 11.6127 16.4065C11.4981 16.4065 11.3895 16.3597 11.3085 16.2787Z" fill="#F2F2F2"/>
<defs>
<linearGradient id="paint0_linear_868_8470" x1="6.26922" y1="19.48" x2="21.5103" y2="4.239" gradientUnits="userSpaceOnUse">
<stop stop-color="#5E9624"/>
<stop offset="0.82" stop-color="#76BC2D"/>
</linearGradient>
</defs>
</svg>
