<svg width="32" height="32" viewBox="0 0 32 32" fill="none" xmlns="http://www.w3.org/2000/svg">
<path d="M16.5333 26.2254C16.5333 25.9516 15.4436 25.9516 15.4436 26.2254C15.4789 26.63 15.4301 27.0375 15.3003 27.4223C15.1705 27.8072 14.9625 28.161 14.6893 28.4616C14.4162 28.7621 14.0838 29.0029 13.713 29.1688C13.3423 29.3346 12.9413 29.422 12.5351 29.4254H19.4365C19.0307 29.4215 18.6301 29.3338 18.2599 29.1677C17.8897 29.0016 17.5578 28.7607 17.2852 28.4602C17.0125 28.1597 16.805 27.806 16.6756 27.4214C16.5462 27.0368 16.4978 26.6296 16.5333 26.2254Z" fill="#999999"/>
<path d="M23.7067 1.95555C23.897 1.76546 24.155 1.65869 24.424 1.65869C24.693 1.65869 24.951 1.76546 25.1413 1.95555L25.1876 2.00533C27.619 4.83453 28.8917 8.47801 28.7505 12.2058C28.6093 15.9336 27.0647 19.4704 24.4262 22.1076C21.7877 24.7447 18.2501 26.2875 14.5222 26.4268C10.7944 26.5661 7.15152 25.2916 4.32357 22.8587C4.12477 22.6808 4.00414 22.4317 3.98783 22.1654C3.97152 21.8992 4.06086 21.6372 4.23646 21.4364L4.2809 21.3902C4.4618 21.2055 4.70638 21.0967 4.96473 21.0861C5.22309 21.0756 5.47574 21.164 5.67112 21.3333C8.1124 23.4196 11.2505 24.5087 14.4593 24.3834C17.6682 24.2581 20.7118 22.9276 22.9829 20.6573C25.2541 18.3871 26.5858 15.344 26.7124 12.1352C26.8389 8.92641 25.7511 5.78788 23.6658 3.34577C23.4952 3.15201 23.4045 2.90068 23.4121 2.6426C23.4196 2.38452 23.525 2.13895 23.7067 1.95555Z" fill="#A3A3A3"/>
<path d="M21.2373 31.1109H10.7484C10.524 31.1109 10.3088 31.0217 10.1501 30.863C9.99138 30.7043 9.90222 30.4891 9.90222 30.2647C9.90222 30.0402 9.99138 29.825 10.1501 29.6663C10.3088 29.5076 10.524 29.4185 10.7484 29.4185H21.2373C21.4615 29.4189 21.6762 29.5083 21.8346 29.6669C21.9929 29.8256 22.0818 30.0406 22.0818 30.2647C22.0818 30.4888 21.9929 30.7038 21.8346 30.8624C21.6762 31.0211 21.4615 31.1104 21.2373 31.1109Z" fill="#A3A3A3"/>
<path d="M13.9929 22.446C19.9458 22.446 24.7716 17.6202 24.7716 11.6673C24.7716 5.71445 19.9458 0.888672 13.9929 0.888672C8.04001 0.888672 3.21423 5.71445 3.21423 11.6673C3.21423 17.6202 8.04001 22.446 13.9929 22.446Z" fill="url(#paint0_linear_868_8469)"/>
<path d="M7.37778 16.9151H20.8213C20.9133 16.9149 21.0035 16.8904 21.0829 16.844C21.1623 16.7976 21.228 16.731 21.2733 16.651C21.3186 16.571 21.342 16.4805 21.341 16.3885C21.34 16.2966 21.3146 16.2066 21.2676 16.1276L14.5476 4.8298C14.501 4.75367 14.4357 4.69077 14.3579 4.64713C14.2801 4.60349 14.1923 4.58057 14.1031 4.58057C14.0139 4.58057 13.9262 4.60349 13.8483 4.64713C13.7705 4.69077 13.7052 4.75367 13.6587 4.8298L6.93334 16.1276C6.88634 16.2064 6.86102 16.2963 6.85993 16.3881C6.85884 16.4799 6.88203 16.5703 6.92714 16.6503C6.97226 16.7302 7.0377 16.7968 7.11683 16.8433C7.19597 16.8898 7.28599 16.9146 7.37778 16.9151Z" fill="#F2F2F2"/>
<path d="M14.6738 13.4591H13.5253C13.4582 13.4621 13.3926 13.439 13.3422 13.3945C13.2918 13.3501 13.2606 13.2879 13.2551 13.2209L13.1324 7.98357C13.1334 7.94948 13.1411 7.91592 13.1551 7.88485C13.1692 7.85378 13.1893 7.82583 13.2143 7.80265C13.2393 7.77946 13.2687 7.76151 13.3007 7.74984C13.3328 7.73816 13.3668 7.73301 13.4009 7.73468H14.7982C14.8323 7.73301 14.8663 7.73816 14.8984 7.74984C14.9304 7.76151 14.9598 7.77946 14.9848 7.80265C15.0098 7.82583 15.0299 7.85378 15.044 7.88485C15.0581 7.91592 15.0658 7.94948 15.0667 7.98357L14.944 13.2209C14.9385 13.2879 14.9073 13.3501 14.8569 13.3945C14.8066 13.439 14.7409 13.4621 14.6738 13.4591Z" fill="#F78D1E"/>
<path d="M14.0996 15.9411C14.6062 15.9411 15.0169 15.5304 15.0169 15.0238C15.0169 14.5171 14.6062 14.1064 14.0996 14.1064C13.5929 14.1064 13.1822 14.5171 13.1822 15.0238C13.1822 15.5304 13.5929 15.9411 14.0996 15.9411Z" fill="#F78D1E"/>
<defs>
<linearGradient id="paint0_linear_868_8469" x1="6.26599" y1="19.4871" x2="21.507" y2="4.24611" gradientUnits="userSpaceOnUse">
<stop stop-color="#EF7100"/>
<stop offset="0.82" stop-color="#F78D1E"/>
</linearGradient>
</defs>
</svg>
