<svg width="32" height="32" viewBox="0 0 32 32" fill="none" xmlns="http://www.w3.org/2000/svg">
<path d="M16.5333 26.2254C16.5333 25.9516 15.4435 25.9516 15.4435 26.2254C15.4789 26.63 15.4301 27.0375 15.3003 27.4223C15.1705 27.8072 14.9625 28.161 14.6893 28.4616C14.4161 28.7621 14.0837 29.0029 13.713 29.1688C13.3423 29.3346 12.9412 29.422 12.5351 29.4254H19.4364C19.0307 29.4215 18.6301 29.3338 18.2599 29.1677C17.8896 29.0016 17.5578 28.7607 17.2851 28.4602C17.0125 28.1597 16.8049 27.806 16.6756 27.4214C16.5462 27.0368 16.4977 26.6296 16.5333 26.2254Z" fill="#999999"/>
<path d="M23.7066 1.95555C23.897 1.76546 24.155 1.65869 24.424 1.65869C24.693 1.65869 24.951 1.76546 25.1413 1.95555L25.1875 2.00533C27.619 4.83453 28.8916 8.47801 28.7504 12.2058C28.6093 15.9336 27.0647 19.4704 24.4262 22.1076C21.7876 24.7447 18.2501 26.2875 14.5222 26.4268C10.7943 26.5661 7.15149 25.2916 4.32354 22.8587C4.12474 22.6808 4.00411 22.4317 3.9878 22.1654C3.97149 21.8992 4.06083 21.6372 4.23643 21.4364L4.28087 21.3902C4.46176 21.2055 4.70635 21.0967 4.9647 21.0861C5.22306 21.0756 5.47571 21.164 5.67109 21.3333C8.11237 23.4196 11.2505 24.5087 14.4593 24.3834C17.6681 24.2581 20.7117 22.9276 22.9829 20.6573C25.2541 18.3871 26.5858 15.344 26.7123 12.1352C26.8389 8.92641 25.751 5.78788 23.6658 3.34577C23.4951 3.15201 23.4044 2.90068 23.412 2.6426C23.4196 2.38452 23.5249 2.13895 23.7066 1.95555Z" fill="#A3A3A3"/>
<path d="M21.2373 31.1109H10.7484C10.524 31.1109 10.3088 31.0217 10.1501 30.863C9.99138 30.7043 9.90222 30.4891 9.90222 30.2647C9.90222 30.0402 9.99138 29.825 10.1501 29.6663C10.3088 29.5076 10.524 29.4185 10.7484 29.4185H21.2373C21.4615 29.4189 21.6762 29.5083 21.8346 29.6669C21.9929 29.8256 22.0818 30.0406 22.0818 30.2647C22.0818 30.4888 21.9929 30.7038 21.8346 30.8624C21.6762 31.0211 21.4615 31.1104 21.2373 31.1109Z" fill="#A3A3A3"/>
<path d="M13.9929 22.446C19.9458 22.446 24.7716 17.6202 24.7716 11.6673C24.7716 5.71445 19.9458 0.888672 13.9929 0.888672C8.04001 0.888672 3.21423 5.71445 3.21423 11.6673C3.21423 17.6202 8.04001 22.446 13.9929 22.446Z" fill="url(#paint0_linear_868_8471)"/>
<path d="M14.9173 14.4085H12.8995C12.7819 14.4134 12.667 14.3724 12.579 14.2941C12.4911 14.2158 12.4371 14.1063 12.4284 13.9889L12.2115 4.80845C12.2134 4.74852 12.2271 4.68955 12.252 4.63499C12.2768 4.58042 12.3123 4.53135 12.3563 4.49064C12.4003 4.44993 12.452 4.4184 12.5083 4.39788C12.5647 4.37736 12.6245 4.36826 12.6844 4.37112H15.1324C15.1923 4.36826 15.2522 4.37736 15.3085 4.39788C15.3649 4.4184 15.4166 4.44993 15.4606 4.49064C15.5046 4.53135 15.5401 4.58042 15.5649 4.63499C15.5898 4.68955 15.6035 4.74852 15.6053 4.80845L15.3884 13.9889C15.3798 14.1063 15.3258 14.2158 15.2378 14.2941C15.1499 14.3724 15.035 14.4134 14.9173 14.4085Z" fill="#F2F2F2"/>
<path d="M13.9075 18.7588C14.7961 18.7588 15.5164 18.0385 15.5164 17.1499C15.5164 16.2613 14.7961 15.541 13.9075 15.541C13.019 15.541 12.2986 16.2613 12.2986 17.1499C12.2986 18.0385 13.019 18.7588 13.9075 18.7588Z" fill="#F2F2F2"/>
<defs>
<linearGradient id="paint0_linear_868_8471" x1="6.27068" y1="19.4729" x2="21.5117" y2="4.23189" gradientUnits="userSpaceOnUse">
<stop stop-color="#B31B1B"/>
<stop offset="0.82" stop-color="#E62323"/>
</linearGradient>
</defs>
</svg>
