<svg width="32" height="32" viewBox="0 0 32 32" fill="none" xmlns="http://www.w3.org/2000/svg">
<g clip-path="url(#clip0_868_8474)">
<path d="M16 31.1109C24.3456 31.1109 31.1111 24.3454 31.1111 15.9998C31.1111 7.65415 24.3456 0.888672 16 0.888672C7.65436 0.888672 0.888885 7.65415 0.888885 15.9998C0.888885 24.3454 7.65436 31.1109 16 31.1109Z" fill="url(#paint0_radial_868_8474)"/>
<path d="M16 28.0196C22.6382 28.0196 28.0195 22.6382 28.0195 16C28.0195 9.36181 22.6382 3.98047 16 3.98047C9.36178 3.98047 3.98044 9.36181 3.98044 16C3.98044 22.6382 9.36178 28.0196 16 28.0196Z" fill="#198AB3"/>
<path d="M12.2951 15.3546L19.4453 17.4417L18.5315 8.33597C18.525 8.27315 18.4999 8.21369 18.4594 8.16519C18.419 8.11668 18.365 8.08131 18.3044 8.06357C18.2437 8.04584 18.1792 8.04656 18.119 8.06562C18.0588 8.08469 18.0056 8.12125 17.9662 8.17064L12.2951 15.3546Z" fill="white"/>
<path d="M19.4845 17.3067L12.3342 15.2178L13.248 24.3253C13.2546 24.3882 13.2797 24.4476 13.3201 24.4961C13.3606 24.5446 13.4146 24.58 13.4752 24.5977C13.5358 24.6155 13.6003 24.6147 13.6606 24.5957C13.7208 24.5766 13.774 24.5401 13.8133 24.4907L19.4845 17.3067Z" fill="#50E6FF"/>
</g>
<defs>
<radialGradient id="paint0_radial_868_8474" cx="0" cy="0" r="1" gradientUnits="userSpaceOnUse" gradientTransform="translate(16 15.9998) scale(15.1111)">
<stop stop-color="#50E6FF"/>
<stop offset="0.333" stop-color="#49DDF7"/>
<stop offset="0.876" stop-color="#37C5E3"/>
<stop offset="1" stop-color="#32BEDD"/>
</radialGradient>
<clipPath id="clip0_868_8474">
<rect width="32" height="32" fill="white"/>
</clipPath>
</defs>
</svg>
