<svg width="32" height="32" viewBox="0 0 32 32" fill="none" xmlns="http://www.w3.org/2000/svg">
<path d="M16 29.4632C29.6889 19.6535 30.1511 13.9308 30.2223 12.1388C30.3076 9.6339 29.9574 3.07212 23.3494 2.56368C21.7673 2.4321 20.1865 2.83062 18.8559 3.69644C17.5253 4.56227 16.5206 5.84618 16 7.3459C15.4799 5.84776 14.4765 4.56499 13.1477 3.69932C11.819 2.83364 10.2402 2.43415 8.65958 2.56368C2.05158 3.08101 1.70136 9.6339 1.77781 12.1388C1.84003 13.9308 2.30047 19.6535 16 29.4632Z" fill="url(#paint0_linear_868_8510)"/>
<path d="M30.2223 12.1388C30.3076 9.6339 29.9574 3.07212 23.3494 2.56368C21.7673 2.4321 20.1865 2.83062 18.8559 3.69644C17.5253 4.56227 16.5206 5.84618 16 7.3459C15.4799 5.84776 14.4765 4.56499 13.1477 3.69932C11.819 2.83364 10.2402 2.43415 8.65958 2.56368C2.05158 3.08101 1.70136 9.6339 1.77781 12.1388C1.84003 13.9308 2.18136 19.5681 15.872 29.3832" fill="url(#paint1_linear_868_8510)"/>
<defs>
<linearGradient id="paint0_linear_868_8510" x1="16" y1="29.4632" x2="16" y2="2.53701" gradientUnits="userSpaceOnUse">
<stop stop-color="#B31B1B"/>
<stop offset="0.82" stop-color="#E62323"/>
</linearGradient>
<linearGradient id="paint1_linear_868_8510" x1="16" y1="29.3779" x2="16" y2="2.53701" gradientUnits="userSpaceOnUse">
<stop stop-color="#B31B1B"/>
<stop offset="0.82" stop-color="#E62323"/>
</linearGradient>
</defs>
</svg>
