<svg width="32" height="32" viewBox="0 0 32 32" fill="none" xmlns="http://www.w3.org/2000/svg">
<g clip-path="url(#clip0_868_8468)">
<path d="M26.0444 32C26.3538 32.0119 26.6625 31.9616 26.952 31.8519C27.2416 31.7422 27.5061 31.5754 27.73 31.3615C27.9539 31.1476 28.1325 30.8909 28.2552 30.6066C28.3779 30.3224 28.4423 30.0163 28.4444 29.7067V29.4222C27.5378 22.1867 23.3955 16.3022 15.52 16.3022C7.64442 16.3022 3.28886 21.3334 2.48886 29.44C2.45189 29.7442 2.47625 30.0528 2.56052 30.3474C2.64479 30.642 2.78726 30.9168 2.9795 31.1554C3.17174 31.394 3.40986 31.5917 3.67979 31.7368C3.94972 31.8819 4.24598 31.9714 4.55108 32H26.0444Z" fill="url(#paint0_linear_868_8468)"/>
<path opacity="0.8" d="M15.4311 18.0091C14.0365 18.0175 12.6702 17.6156 11.5022 16.8535L15.3955 27.0224L19.2711 16.9246C18.1173 17.6371 16.7872 18.0127 15.4311 18.0091Z" fill="white"/>
<path d="M15.4311 18.0091C19.437 18.0091 22.6845 14.7617 22.6845 10.7558C22.6845 6.74987 19.437 3.50244 15.4311 3.50244C11.4252 3.50244 8.1778 6.74987 8.1778 10.7558C8.1778 14.7617 11.4252 18.0091 15.4311 18.0091Z" fill="url(#paint1_linear_868_8468)"/>
<path d="M26.3111 12.8534C26.5696 11.3474 26.5151 9.80421 26.1511 8.32011C25.5676 5.99588 24.2413 3.92565 22.3739 2.42396C20.5064 0.922276 18.1998 0.0712234 15.8045 0.000112923C13.9532 -0.137284 12.1008 0.25229 10.4617 1.12376C8.82254 1.99523 7.46366 3.31299 6.54223 4.92456C6.39525 5.15837 6.34642 5.44072 6.40633 5.71031C6.46624 5.97991 6.63006 6.215 6.86223 6.36456C7.07501 6.49911 7.33214 6.5447 7.57821 6.4915C7.82428 6.43829 8.0396 6.29056 8.17779 6.08011C8.92121 4.76674 10.0187 3.68869 11.3452 2.96888C12.6716 2.24907 14.1737 1.91647 15.68 2.009C17.602 2.06136 19.4575 2.72334 20.9786 3.89931C22.4997 5.07529 23.6076 6.70437 24.1422 8.55122C24.4879 9.81902 24.5666 11.1448 24.3733 12.4446C24.1454 12.537 23.9409 12.6791 23.7748 12.8605C23.6087 13.042 23.4853 13.2582 23.4133 13.4934L22.9333 15.0934C22.8055 15.5154 22.8496 15.9708 23.0561 16.3605C23.2625 16.7501 23.6146 17.0423 24.0356 17.1734C24.4686 17.2759 24.9244 17.2123 25.3128 16.995C25.7012 16.7778 25.994 16.4228 26.1333 16.0001L26.6133 14.4001C26.6973 14.1377 26.7136 13.8584 26.6608 13.588C26.608 13.3176 26.4877 13.0649 26.3111 12.8534Z" fill="#767676"/>
</g>
<defs>
<linearGradient id="paint0_linear_868_8468" x1="15.4133" y1="14.3822" x2="15.4133" y2="35.8756" gradientUnits="userSpaceOnUse">
<stop offset="0.22" stop-color="#32D4F5"/>
<stop offset="1" stop-color="#198AB3"/>
</linearGradient>
<linearGradient id="paint1_linear_868_8468" x1="14.8089" y1="2.86244" x2="16.3734" y2="22.3824" gradientUnits="userSpaceOnUse">
<stop offset="0.22" stop-color="#32D4F5"/>
<stop offset="1" stop-color="#198AB3"/>
</linearGradient>
<clipPath id="clip0_868_8468">
<rect width="32" height="32" fill="white"/>
</clipPath>
</defs>
</svg>
