<svg width="32" height="32" viewBox="0 0 32 32" fill="none" xmlns="http://www.w3.org/2000/svg">
<path d="M30.0942 5.54688H1.9058C1.34419 5.54688 0.888916 6.00215 0.888916 6.56376V25.4367C0.888916 25.9983 1.34419 26.4535 1.9058 26.4535H30.0942C30.6559 26.4535 31.1111 25.9983 31.1111 25.4367V6.56376C31.1111 6.00215 30.6559 5.54688 30.0942 5.54688Z" fill="url(#paint0_linear_868_8466)"/>
<path d="M31.0453 17.6215L28.8622 15.6446C28.4199 15.2667 27.8573 15.0591 27.2756 15.0591C26.6938 15.0591 26.1312 15.2667 25.6889 15.6446L13.9164 26.4535H30.0942C30.3639 26.4535 30.6226 26.3463 30.8133 26.1556C31.004 25.9649 31.1111 25.7063 31.1111 25.4366V17.6143L31.0453 17.6215Z" fill="#86D633"/>
<path d="M27.8933 26.4533L18.6347 18.0427C18.2936 17.7517 17.8599 17.5918 17.4116 17.5918C16.9632 17.5918 16.5295 17.7517 16.1885 18.0427L6.93335 26.4533H27.8933Z" fill="#B4EC36"/>
<path d="M16 13.9596C15.9824 13.302 15.7309 12.6723 15.2907 12.1835C14.8505 11.6947 14.2504 11.379 13.5983 11.2929C13.5571 10.3771 13.1571 9.51429 12.4847 8.89115C11.8123 8.26801 10.9217 7.93462 10.0054 7.96311C9.26321 7.95182 8.53567 8.16999 7.92218 8.58778C7.30869 9.00558 6.83918 9.60263 6.57782 10.2973C5.79443 10.3906 5.07082 10.7628 4.53936 11.3459C4.00789 11.9289 3.70412 12.6838 3.68359 13.4724C3.71739 14.3592 4.10154 15.1964 4.75176 15.8003C5.40199 16.4042 6.2652 16.7255 7.15204 16.6938C7.25515 16.6938 7.35648 16.6938 7.45782 16.6796H13.0738C13.1237 16.6788 13.1733 16.6717 13.2214 16.6582C13.9431 16.6532 14.6349 16.3697 15.1526 15.8669C15.6704 15.3641 15.9739 14.6808 16 13.9596Z" fill="white"/>
<defs>
<linearGradient id="paint0_linear_868_8466" x1="16" y1="5.54688" x2="16" y2="26.4535" gradientUnits="userSpaceOnUse">
<stop stop-color="#32D4F5"/>
<stop offset="0.228" stop-color="#31D0F1"/>
<stop offset="0.463" stop-color="#2CC3E6"/>
<stop offset="0.703" stop-color="#25AFD4"/>
<stop offset="0.944" stop-color="#1C92BA"/>
<stop offset="1" stop-color="#198AB3"/>
</linearGradient>
</defs>
</svg>
