<svg width="32" height="32" viewBox="0 0 32 32" fill="none" xmlns="http://www.w3.org/2000/svg">
<path d="M24.48 28.1066C21.3116 30.5631 17.297 31.6604 13.3196 31.1569C9.34217 30.6535 5.72762 28.5907 3.27113 25.4222C0.814633 22.2537 -0.282587 18.2392 0.220844 14.2618C0.724275 10.2843 2.78712 6.6698 5.95557 4.21331L6.11557 4.10664C9.3022 1.72799 13.298 0.701288 17.2366 1.24914C21.1752 1.79699 24.739 3.87524 27.1555 7.03327C29.572 10.1913 30.6463 14.1746 30.1455 18.1194C29.6446 22.0642 27.609 25.6527 24.48 28.1066Z" fill="url(#paint0_linear_868_8494)"/>
<path d="M15.2178 10.9688C14.9285 10.9797 14.6398 10.9335 14.3683 10.8328C14.0969 10.7322 13.8479 10.579 13.6356 10.3821C13.4367 10.2077 13.2792 9.99115 13.1747 9.74819C13.0701 9.50522 13.0211 9.24199 13.0311 8.97767C13.0211 8.71335 13.0701 8.45011 13.1747 8.20714C13.2792 7.96418 13.4367 7.74761 13.6356 7.57322C14.089 7.23141 14.6517 7.06703 15.2178 7.111C15.7937 7.08187 16.3592 7.27249 16.8 7.64433C17.0021 7.81701 17.163 8.03283 17.2707 8.27588C17.3783 8.51894 17.4301 8.78305 17.4222 9.04878C17.4328 9.31746 17.3824 9.58504 17.2746 9.83139C17.1668 10.0777 17.0045 10.2964 16.8 10.471C16.3575 10.8366 15.7899 11.0152 15.2178 10.9688ZM16.3556 25.2799H14.0267C13.8287 25.2799 13.6387 25.2012 13.4987 25.0612C13.3587 24.9212 13.28 24.7313 13.28 24.5332V13.671C13.28 13.473 13.3587 13.2831 13.4987 13.143C13.6387 13.003 13.8287 12.9243 14.0267 12.9243H16.3556C16.5536 12.9243 16.7435 13.003 16.8836 13.143C17.0236 13.2831 17.1022 13.473 17.1022 13.671V24.5332C17.1022 24.7313 17.0236 24.9212 16.8836 25.0612C16.7435 25.2012 16.5536 25.2799 16.3556 25.2799Z" fill="white"/>
<defs>
<linearGradient id="paint0_linear_868_8494" x1="15.2178" y1="31.2711" x2="15.2178" y2="1.04886" gradientUnits="userSpaceOnUse">
<stop stop-color="#1988D9"/>
<stop offset="0.22" stop-color="#218DDC"/>
<stop offset="0.56" stop-color="#379CE5"/>
<stop offset="0.9" stop-color="#54AEF0"/>
</linearGradient>
</defs>
</svg>
