<svg width="32" height="32" viewBox="0 0 32 32" fill="none" xmlns="http://www.w3.org/2000/svg">
<path d="M2.33424 3.104H4.53157V9.24445C4.53157 9.37364 4.48025 9.49754 4.3889 9.58889C4.29755 9.68024 4.17365 9.73156 4.04446 9.73156H1.84713C1.71794 9.73156 1.59404 9.68024 1.50269 9.58889C1.41134 9.49754 1.36002 9.37364 1.36002 9.24445V4.07823C1.36002 3.81985 1.46266 3.57205 1.64536 3.38935C1.82806 3.20664 2.07586 3.104 2.33424 3.104Z" fill="#999999"/>
<path opacity="0.5" d="M2.33424 3.104H4.53157V9.24445C4.53157 9.37364 4.48025 9.49754 4.3889 9.58889C4.29755 9.68024 4.17365 9.73156 4.04446 9.73156H1.84713C1.71794 9.73156 1.59404 9.68024 1.50269 9.58889C1.41134 9.49754 1.36002 9.37364 1.36002 9.24445V4.07823C1.36002 3.81985 1.46266 3.57205 1.64536 3.38935C1.82806 3.20664 2.07586 3.104 2.33424 3.104Z" fill="#999999"/>
<path d="M27.1484 3.104H29.3458C29.6042 3.104 29.8519 3.20664 30.0347 3.38935C30.2174 3.57205 30.32 3.81985 30.32 4.07823V9.24445C30.32 9.30842 30.3074 9.37176 30.2829 9.43086C30.2584 9.48996 30.2226 9.54366 30.1773 9.58889C30.1321 9.63412 30.0784 9.67 30.0193 9.69448C29.9602 9.71896 29.8969 9.73156 29.8329 9.73156H27.6355C27.5064 9.73156 27.3825 9.68024 27.2911 9.58889C27.1998 9.49754 27.1484 9.37364 27.1484 9.24445V3.104Z" fill="#999999"/>
<path opacity="0.5" d="M27.1484 3.104H29.3458C29.6042 3.104 29.8519 3.20664 30.0347 3.38935C30.2174 3.57205 30.32 3.81985 30.32 4.07823V9.24445C30.32 9.30842 30.3074 9.37176 30.2829 9.43086C30.2584 9.48996 30.2226 9.54366 30.1773 9.58889C30.1321 9.63412 30.0784 9.67 30.0193 9.69448C29.9602 9.71896 29.8969 9.73156 29.8329 9.73156H27.6355C27.5064 9.73156 27.3825 9.68024 27.2911 9.58889C27.1998 9.49754 27.1484 9.37364 27.1484 9.24445V3.104Z" fill="#999999"/>
<path d="M30.32 4.06936V6.2027L1.36001 6.2027V4.06936C1.36001 3.81334 1.46171 3.5678 1.64275 3.38677C1.82378 3.20573 2.06932 3.10403 2.32534 3.10403L29.3476 3.10403C29.4749 3.10309 29.6012 3.12737 29.7192 3.17546C29.8371 3.22355 29.9444 3.29451 30.0348 3.38424C30.1252 3.47398 30.1969 3.58071 30.2459 3.6983C30.2948 3.81588 30.32 3.94199 30.32 4.06936Z" fill="#949494"/>
<path d="M1.84713 22.2686H4.04624C4.17543 22.2686 4.29933 22.3199 4.39068 22.4112C4.48203 22.5026 4.53335 22.6265 4.53335 22.7557V28.8961H2.33424C2.07586 28.8961 1.82806 28.7935 1.64536 28.6108C1.46266 28.4281 1.36002 28.1803 1.36002 27.9219V22.7557C1.36002 22.6265 1.41134 22.5026 1.50269 22.4112C1.59404 22.3199 1.71794 22.2686 1.84713 22.2686Z" fill="#999999"/>
<path opacity="0.5" d="M1.84713 22.2686H4.04624C4.17543 22.2686 4.29933 22.3199 4.39068 22.4112C4.48203 22.5026 4.53335 22.6265 4.53335 22.7557V28.8961H2.33424C2.07586 28.8961 1.82806 28.7935 1.64536 28.6108C1.46266 28.4281 1.36002 28.1803 1.36002 27.9219V22.7557C1.36002 22.6265 1.41134 22.5026 1.50269 22.4112C1.59404 22.3199 1.71794 22.2686 1.84713 22.2686Z" fill="#999999"/>
<path d="M27.6355 22.2686H29.8329C29.8969 22.2686 29.9602 22.2812 30.0193 22.3056C30.0784 22.3301 30.1321 22.366 30.1773 22.4112C30.2226 22.4565 30.2584 22.5102 30.2829 22.5693C30.3074 22.6284 30.32 22.6917 30.32 22.7557V27.9237C30.32 28.0516 30.2948 28.1783 30.2458 28.2965C30.1969 28.4147 30.1251 28.5221 30.0347 28.6125C29.9442 28.703 29.8368 28.7748 29.7186 28.8237C29.6004 28.8727 29.4737 28.8979 29.3458 28.8979H27.1484V22.7557C27.1484 22.6265 27.1998 22.5026 27.2911 22.4112C27.3825 22.3199 27.5064 22.2686 27.6355 22.2686Z" fill="#999999"/>
<path opacity="0.5" d="M27.6355 22.2686H29.8329C29.8969 22.2686 29.9602 22.2812 30.0193 22.3056C30.0784 22.3301 30.1321 22.366 30.1773 22.4112C30.2226 22.4565 30.2584 22.5102 30.2829 22.5693C30.3074 22.6284 30.32 22.6917 30.32 22.7557V27.9237C30.32 28.0516 30.2948 28.1783 30.2458 28.2965C30.1969 28.4147 30.1251 28.5221 30.0347 28.6125C29.9442 28.703 29.8368 28.7748 29.7186 28.8237C29.6004 28.8727 29.4737 28.8979 29.3458 28.8979H27.1484V22.7557C27.1484 22.6265 27.1998 22.5026 27.2911 22.4112C27.3825 22.3199 27.5064 22.2686 27.6355 22.2686Z" fill="#999999"/>
<path d="M1.36002 27.9307L1.36002 25.7973H30.32V27.9307C30.32 28.1867 30.2183 28.4322 30.0373 28.6133C29.8562 28.7943 29.6107 28.896 29.3547 28.896H2.32535C2.06933 28.896 1.82379 28.7943 1.64276 28.6133C1.46172 28.4322 1.36002 28.1867 1.36002 27.9307Z" fill="#949494"/>
<path d="M8.86934 9.74917L14.4249 15.3047C14.4865 15.3662 14.5355 15.4392 14.5688 15.5196C14.6022 15.5999 14.6194 15.6861 14.6194 15.7732C14.6194 15.8602 14.6022 15.9464 14.5688 16.0268C14.5355 16.1072 14.4865 16.1802 14.4249 16.2416L8.86934 21.7972C8.82806 21.8389 8.77528 21.8674 8.71774 21.8789C8.6602 21.8905 8.60052 21.8847 8.54632 21.8621C8.49212 21.8396 8.44587 21.8014 8.41347 21.7525C8.38107 21.7036 8.36401 21.6461 8.36445 21.5874V18.1723C8.36468 18.1334 8.35722 18.0948 8.3425 18.0588C8.32777 18.0228 8.30607 17.99 8.27864 17.9625C8.25122 17.9349 8.2186 17.913 8.18268 17.898C8.14676 17.8831 8.10824 17.8754 8.06934 17.8754H1.12534C1.09422 17.8756 1.06337 17.8697 1.03457 17.8579C1.00578 17.8461 0.979621 17.8287 0.957618 17.8067C0.935615 17.7847 0.918207 17.7585 0.906409 17.7297C0.89461 17.7009 0.888656 17.6701 0.888892 17.6389V13.9056C0.888891 13.8746 0.89502 13.844 0.906924 13.8154C0.918828 13.7868 0.936272 13.7609 0.958252 13.739C0.980231 13.7172 1.00631 13.7 1.03499 13.6883C1.06366 13.6766 1.09437 13.6707 1.12534 13.6709H8.06934C8.10824 13.6709 8.14676 13.6633 8.18268 13.6483C8.2186 13.6334 8.25122 13.6115 8.27864 13.5839C8.30607 13.5563 8.32777 13.5235 8.3425 13.4875C8.35722 13.4515 8.36468 13.413 8.36445 13.3741V9.95539C8.36471 9.897 8.38229 9.84001 8.41496 9.79162C8.44763 9.74322 8.49392 9.70561 8.54797 9.68353C8.60202 9.66145 8.66141 9.65591 8.71861 9.66759C8.77582 9.67927 8.82827 9.70766 8.86934 9.74917Z" fill="url(#paint0_linear_868_8465)"/>
<path d="M25.3618 9.74917L30.9173 15.3047C31.041 15.4293 31.1104 15.5977 31.1104 15.7732C31.1104 15.9487 31.041 16.1171 30.9173 16.2416L25.3618 21.7972C25.3205 21.8389 25.2677 21.8674 25.2102 21.8789C25.1526 21.8905 25.0929 21.8847 25.0388 21.8621C24.9846 21.8396 24.9383 21.8014 24.9059 21.7525C24.8735 21.7036 24.8564 21.6461 24.8569 21.5874V18.1723C24.8569 18.0935 24.8256 18.018 24.7699 17.9623C24.7142 17.9067 24.6387 17.8754 24.56 17.8754H17.616C17.585 17.8754 17.5544 17.8693 17.5258 17.8574C17.4972 17.8455 17.4712 17.828 17.4494 17.806C17.4276 17.7841 17.4104 17.758 17.3987 17.7293C17.387 17.7006 17.3811 17.6699 17.3813 17.6389V13.9056C17.3811 13.8746 17.387 13.8439 17.3987 13.8153C17.4104 13.7866 17.4276 13.7605 17.4494 13.7385C17.4712 13.7165 17.4972 13.6991 17.5258 13.6872C17.5544 13.6753 17.585 13.6692 17.616 13.6692H24.56C24.6387 13.6692 24.7142 13.6379 24.7699 13.5822C24.8256 13.5265 24.8569 13.451 24.8569 13.3723V9.95539C24.8571 9.897 24.8747 9.84001 24.9074 9.79162C24.9401 9.74322 24.9863 9.70561 25.0404 9.68353C25.0945 9.66145 25.1538 9.65591 25.211 9.66759C25.2682 9.67927 25.3207 9.70766 25.3618 9.74917Z" fill="url(#paint1_linear_868_8465)"/>
<defs>
<linearGradient id="paint0_linear_868_8465" x1="7.75467" y1="21.8843" x2="7.75467" y2="9.66206" gradientUnits="userSpaceOnUse">
<stop stop-color="#773ADC"/>
<stop offset="1" stop-color="#A67AF4"/>
</linearGradient>
<linearGradient id="paint1_linear_868_8465" x1="24.2471" y1="21.8843" x2="24.2471" y2="9.66206" gradientUnits="userSpaceOnUse">
<stop stop-color="#1B93EB"/>
<stop offset="1" stop-color="#6BB9F2"/>
</linearGradient>
</defs>
</svg>
