<svg width="32" height="32" viewBox="0 0 32 32" fill="none" xmlns="http://www.w3.org/2000/svg">
<path d="M9.32624 6.67188H3.34935C2.84174 6.67188 2.43024 7.08337 2.43024 7.59099V29.303C2.43024 29.8106 2.84174 30.2221 3.34935 30.2221H9.32624C9.83385 30.2221 10.2453 29.8106 10.2453 29.303V7.59099C10.2453 7.08337 9.83385 6.67188 9.32624 6.67188Z" fill="url(#paint0_linear_868_8502)"/>
<path d="M18.9885 6.67188H13.0116C12.504 6.67188 12.0925 7.08337 12.0925 7.59099V29.303C12.0925 29.8106 12.504 30.2221 13.0116 30.2221H18.9885C19.4961 30.2221 19.9076 29.8106 19.9076 29.303V7.59099C19.9076 7.08337 19.4961 6.67188 18.9885 6.67188Z" fill="url(#paint1_linear_868_8502)"/>
<path d="M28.6525 6.67188H22.6756C22.168 6.67188 21.7565 7.08337 21.7565 7.59099V29.303C21.7565 29.8106 22.168 30.2221 22.6756 30.2221H28.6525C29.1601 30.2221 29.5716 29.8106 29.5716 29.303V7.59099C29.5716 7.08337 29.1601 6.67188 28.6525 6.67188Z" fill="url(#paint2_linear_868_8502)"/>
<path d="M2.87468 1.77786H9.79913C9.91747 1.77786 10.031 1.82488 10.1147 1.90856C10.1983 1.99224 10.2453 2.10574 10.2453 2.22409V7.32809H2.42313V2.22409C2.42312 2.16504 2.43484 2.10657 2.4576 2.05208C2.48035 1.99759 2.5137 1.94816 2.5557 1.90666C2.5977 1.86515 2.64753 1.8324 2.70228 1.81029C2.75704 1.78818 2.81564 1.77716 2.87468 1.77786Z" fill="#FAA21D"/>
<path d="M12.5387 1.77785H19.4613C19.5797 1.77785 19.6932 1.82486 19.7769 1.90854C19.8606 1.99222 19.9076 2.10572 19.9076 2.22407V7.32807H12.0889V2.22407C12.0889 2.16517 12.1006 2.10685 12.1232 2.05248C12.1458 1.99811 12.179 1.94876 12.2208 1.90728C12.2627 1.8658 12.3123 1.833 12.3668 1.81079C12.4214 1.78857 12.4798 1.77738 12.5387 1.77785Z" fill="#86D633"/>
<path d="M22.2009 1.77789H29.1236C29.2419 1.77789 29.3554 1.8249 29.4391 1.90858C29.5228 1.99227 29.5698 2.10577 29.5698 2.22411V7.32811H21.7476V2.22411C21.7476 2.16491 21.7593 2.1063 21.7822 2.05169C21.8051 1.99708 21.8386 1.94757 21.8808 1.90604C21.9229 1.86451 21.973 1.83179 22.0279 1.80979C22.0829 1.78779 22.1417 1.77695 22.2009 1.77789Z" fill="#5EA0EF"/>
<defs>
<linearGradient id="paint0_linear_868_8502" x1="6.33779" y1="30.2221" x2="6.33779" y2="6.67188" gradientUnits="userSpaceOnUse">
<stop stop-color="#FEA11B"/>
<stop offset="0.127" stop-color="#FEAC19"/>
<stop offset="0.562" stop-color="#FFCB12"/>
<stop offset="0.804" stop-color="#FFD70F"/>
</linearGradient>
<linearGradient id="paint1_linear_868_8502" x1="16" y1="30.2221" x2="16" y2="6.67188" gradientUnits="userSpaceOnUse">
<stop stop-color="#5E9624"/>
<stop offset="0.546" stop-color="#6DAD2A"/>
<stop offset="0.999" stop-color="#76BC2D"/>
</linearGradient>
<linearGradient id="paint2_linear_868_8502" x1="25.6622" y1="30.2221" x2="25.6622" y2="6.67188" gradientUnits="userSpaceOnUse">
<stop stop-color="#1B93EB"/>
<stop offset="1" stop-color="#6BB9F2"/>
</linearGradient>
</defs>
</svg>
