<svg width="32" height="32" viewBox="0 0 32 32" fill="none" xmlns="http://www.w3.org/2000/svg">
<g clip-path="url(#clip0_868_8463)">
<path d="M31.3352 12.0727V1.27802C31.3354 1.22697 31.3255 1.17639 31.3062 1.12916C31.2868 1.08193 31.2583 1.039 31.2223 1.00282C31.1863 0.966648 31.1435 0.937941 31.0963 0.918354C31.0492 0.898766 30.9987 0.888683 30.9476 0.888684H20.1529C20.0758 0.888078 20.0003 0.910479 19.936 0.953021C19.8717 0.995564 19.8216 1.05632 19.792 1.12751C19.7624 1.1987 19.7547 1.2771 19.77 1.35268C19.7852 1.42826 19.8226 1.49759 19.8774 1.5518L22.8516 4.52602L23.0489 4.72335C23.1216 4.79631 23.1623 4.89507 23.1623 4.99802C23.1623 5.10096 23.1216 5.19972 23.0489 5.27268L10.0338 18.2878C9.99744 18.3237 9.96855 18.3664 9.94882 18.4136C9.9291 18.4608 9.91895 18.5114 9.91895 18.5625C9.91895 18.6136 9.9291 18.6642 9.94882 18.7113C9.96855 18.7585 9.99744 18.8012 10.0338 18.8371L13.3867 22.1918C13.4597 22.2644 13.5584 22.3052 13.6614 22.3052C13.7643 22.3052 13.8631 22.2644 13.9361 22.1918L26.9512 9.17668C26.9872 9.14024 27.0301 9.11131 27.0774 9.09156C27.1247 9.07182 27.1755 9.06165 27.2267 9.06165C27.278 9.06165 27.3287 9.07182 27.376 9.09156C27.4233 9.11131 27.4662 9.14024 27.5023 9.17668L27.6996 9.37402L30.6721 12.3465C30.7262 12.4012 30.7953 12.4385 30.8707 12.4538C30.9461 12.4691 31.0244 12.4615 31.0955 12.4322C31.1666 12.4028 31.2274 12.3529 31.2701 12.2889C31.3128 12.2249 31.3354 12.1496 31.3352 12.0727Z" fill="url(#paint0_linear_868_8463)"/>
<path d="M23.408 19.4116V27.312C23.408 27.553 23.3123 27.784 23.142 27.9544C22.9716 28.1248 22.7405 28.2205 22.4996 28.2205H4.46225C4.34304 28.2205 4.22499 28.197 4.11487 28.1513C4.00476 28.1056 3.90473 28.0387 3.82051 27.9543C3.7363 27.8699 3.66955 27.7697 3.62409 27.6595C3.57863 27.5493 3.55535 27.4312 3.55559 27.312V10.2845C3.55535 10.1652 3.57863 10.0472 3.62409 9.93695C3.66955 9.82674 3.7363 9.72658 3.82051 9.6422C3.90473 9.55782 4.00476 9.49088 4.11487 9.4452C4.22499 9.39953 4.34304 9.37602 4.46225 9.37602H13.5005C13.6325 9.37602 13.7591 9.32357 13.8525 9.23022C13.9458 9.13687 13.9983 9.01026 13.9983 8.87824V6.98313C13.9983 6.85111 13.9458 6.7245 13.8525 6.63115C13.7591 6.5378 13.6325 6.48535 13.5005 6.48535H1.57159C1.45237 6.48535 1.33433 6.50886 1.22421 6.55454C1.11409 6.60021 1.01406 6.66716 0.929846 6.75154C0.845631 6.83592 0.778883 6.93608 0.733424 7.04628C0.687964 7.15649 0.664685 7.27458 0.664919 7.3938V30.2027C0.664685 30.3219 0.687964 30.44 0.733424 30.5502C0.778883 30.6604 0.845631 30.7606 0.929846 30.8449C1.01406 30.9293 1.11409 30.9963 1.22421 31.0419C1.33433 31.0876 1.45237 31.1111 1.57159 31.1111H25.3938C25.6347 31.1111 25.8658 31.0154 26.0362 30.8451C26.2065 30.6747 26.3023 30.4436 26.3023 30.2027V19.4116C26.3023 19.2796 26.2498 19.1529 26.1565 19.0596C26.0631 18.9662 25.9365 18.9138 25.8045 18.9138H23.9058C23.7738 18.9138 23.6472 18.9662 23.5538 19.0596C23.4605 19.1529 23.408 19.2796 23.408 19.4116Z" fill="#B3B3B3"/>
</g>
<defs>
<linearGradient id="paint0_linear_868_8463" x1="15.4098" y1="-4.24198" x2="27.0987" y2="27.4842" gradientUnits="userSpaceOnUse">
<stop stop-color="#6BB9F2"/>
<stop offset="1" stop-color="#1B93EB"/>
</linearGradient>
<clipPath id="clip0_868_8463">
<rect width="32" height="32" fill="white"/>
</clipPath>
</defs>
</svg>
