<svg width="32" height="32" viewBox="0 0 32 32" fill="none" xmlns="http://www.w3.org/2000/svg">
<g clip-path="url(#clip0_868_8461)">
<path d="M5.12176 2.47653L6.98665 0.3112C7.07165 0.21363 7.17655 0.135386 7.29429 0.081724C7.41204 0.0280623 7.53992 0.000226881 7.66932 8.84887e-05H25.5395C25.7157 -0.0171978 25.8935 0.00330006 26.0612 0.0602135C26.2288 0.117127 26.3823 0.209146 26.5116 0.330127C26.6408 0.451107 26.7427 0.598265 26.8105 0.761775C26.8784 0.925284 26.9105 1.10138 26.9049 1.27831V23.5823C26.9052 23.7084 26.8791 23.8332 26.8283 23.9487C26.7775 24.0641 26.703 24.1676 26.6098 24.2525L24.5973 26.0854H6.33065L5.09509 25.5663L5.12176 2.47653Z" fill="#005BA1"/>
<path d="M6.62219 2.46605L7.76353 1.16472C7.83888 1.07844 7.93178 1.00923 8.03601 0.961712C8.14025 0.914194 8.25342 0.889459 8.36797 0.88916H25.0666C25.1721 0.88916 25.2765 0.909957 25.3739 0.950361C25.4713 0.990766 25.5597 1.04998 25.6342 1.12462C25.7087 1.19926 25.7677 1.28786 25.8079 1.38534C25.8481 1.48282 25.8686 1.58728 25.8684 1.69272V22.9016C25.8687 23.0133 25.8456 23.1239 25.8006 23.2262C25.7556 23.3284 25.6897 23.4201 25.6071 23.4954L23.8293 25.1203L6.62219 2.46605Z" fill="white"/>
<path d="M13.6071 22.9336H7.93596C7.85517 22.9341 7.77785 22.9665 7.72089 23.0238C7.66393 23.0811 7.63196 23.1586 7.63196 23.2394V31.8225C7.6322 31.851 7.64043 31.8789 7.65572 31.9031C7.671 31.9272 7.69274 31.9465 7.71846 31.9589C7.74417 31.9713 7.77285 31.9763 7.80124 31.9732C7.82962 31.9701 7.85659 31.9592 7.87907 31.9416L10.6773 29.7478C10.6962 29.7339 10.7181 29.7248 10.7413 29.7212H10.7306L13.9128 27.2323V23.2358C13.9119 23.1553 13.8793 23.0785 13.822 23.0219C13.7648 22.9653 13.6876 22.9336 13.6071 22.9336Z" fill="url(#paint0_linear_868_8461)"/>
<path d="M10.7307 29.7106L13.9129 27.2217V31.8439C13.9127 31.8723 13.9046 31.9001 13.8896 31.9242C13.8745 31.9482 13.853 31.9676 13.8276 31.9802C13.8021 31.9927 13.7736 31.9979 13.7454 31.9952C13.7171 31.9925 13.6902 31.982 13.6675 31.9648L10.7307 29.7106Z" fill="#76BC2D"/>
<path d="M23.7049 2.45166H5.18043C5.16922 2.45166 5.15812 2.45387 5.14777 2.45816C5.13742 2.46244 5.12801 2.46873 5.12009 2.47665C5.11216 2.48458 5.10588 2.49398 5.10159 2.50434C5.0973 2.51469 5.09509 2.52579 5.09509 2.53699V25.5663C5.09509 25.7233 5.15746 25.8739 5.26849 25.9849C5.37951 26.096 5.53008 26.1583 5.68709 26.1583H23.7049C23.862 26.1583 24.0128 26.096 24.1241 25.985C24.2354 25.8741 24.2982 25.7235 24.2986 25.5663V3.04366C24.2982 2.88649 24.2354 2.73592 24.1241 2.62494C24.0128 2.51397 23.862 2.45166 23.7049 2.45166Z" fill="url(#paint1_linear_868_8461)"/>
<path d="M10.7716 10.9194V17.2198H9.42222V12.4447C9.33986 12.5124 9.25115 12.5719 9.15733 12.6225C9.05327 12.6827 8.94516 12.7355 8.83378 12.7807C8.71788 12.8284 8.59913 12.8687 8.47822 12.9016C8.35812 12.9345 8.2357 12.9583 8.112 12.9727V11.8438C8.45662 11.7447 8.79067 11.6119 9.10933 11.4474C9.40728 11.2952 9.69106 11.1167 9.95733 10.9141L10.7716 10.9194Z" fill="white"/>
<path d="M14.7555 17.3284C13.2871 17.3284 12.5535 16.2979 12.5547 14.2369C12.5002 13.3803 12.7099 12.5277 13.1555 11.7942C13.3483 11.5195 13.6077 11.2983 13.9093 11.1512C14.2109 11.0042 14.5449 10.9361 14.88 10.9533C16.3129 10.9533 17.0293 12.001 17.0293 14.0964C17.082 14.9369 16.8773 15.7734 16.4427 16.4946C16.256 16.7661 16.003 16.9853 15.7077 17.1312C15.4124 17.2772 15.0846 17.3451 14.7555 17.3284ZM14.816 11.9951C14.2234 11.9951 13.9271 12.7329 13.9271 14.2084C13.9271 15.5986 14.2151 16.2938 14.7911 16.2938C15.3671 16.2938 15.6515 15.5755 15.6444 14.1391C15.6444 12.7062 15.3689 11.9898 14.8178 11.9898L14.816 11.9951Z" fill="white"/>
<path d="M20.8996 10.9194V17.2198H19.5449V12.4447C19.4628 12.5128 19.3741 12.5723 19.28 12.6225C19.1759 12.6827 19.0678 12.7355 18.9564 12.7807C18.8407 12.8286 18.7219 12.869 18.6009 12.9016C18.4814 12.9344 18.3595 12.9581 18.2365 12.9727V11.8438C18.5809 11.744 18.9148 11.6113 19.2338 11.4474C19.5309 11.2947 19.8141 11.1163 20.08 10.9141L20.8996 10.9194Z" fill="white"/>
</g>
<defs>
<linearGradient id="paint0_linear_868_8461" x1="10.7733" y1="33.1647" x2="10.7733" y2="23.25" gradientUnits="userSpaceOnUse">
<stop stop-color="#76BC2D"/>
<stop offset="0.192" stop-color="#7FCB30"/>
<stop offset="0.42" stop-color="#84D332"/>
<stop offset="0.775" stop-color="#86D633"/>
</linearGradient>
<linearGradient id="paint1_linear_868_8461" x1="14.6969" y1="26.1583" x2="14.6969" y2="2.45166" gradientUnits="userSpaceOnUse">
<stop stop-color="#1988D9"/>
<stop offset="0.9" stop-color="#54AEF0"/>
</linearGradient>
<clipPath id="clip0_868_8461">
<rect width="32" height="32" fill="white"/>
</clipPath>
</defs>
</svg>
