<svg width="32" height="32" viewBox="0 0 32 32" fill="none" xmlns="http://www.w3.org/2000/svg">
<path d="M13.92 26.9086C16.1075 26.9086 17.8809 25.1352 17.8809 22.9477C17.8809 20.7602 16.1075 18.9868 13.92 18.9868C11.7325 18.9868 9.95911 20.7602 9.95911 22.9477C9.95911 25.1352 11.7325 26.9086 13.92 26.9086Z" fill="#32BEDD"/>
<path d="M13.92 29.3173C12.6597 29.3177 11.4276 28.9443 10.3795 28.2443C9.33144 27.5443 8.51451 26.5492 8.03204 25.3849C7.54957 24.2206 7.42324 22.9393 7.66904 21.7032C7.91483 20.4671 8.52169 19.3316 9.41288 18.4404C10.3041 17.5492 11.4395 16.9424 12.6757 16.6966C13.9118 16.4508 15.193 16.5771 16.3574 17.0596C17.5217 17.542 18.5168 18.359 19.2167 19.407C19.9167 20.4551 20.2902 21.6872 20.2898 22.9476C20.2879 24.6363 19.6162 26.2554 18.4221 27.4496C17.2279 28.6437 15.6088 29.3154 13.92 29.3173ZM13.92 17.6587C12.8736 17.6569 11.8502 17.9656 10.9793 18.5457C10.1083 19.1258 9.42907 19.9512 9.0274 20.9174C8.62573 21.8837 8.51973 22.9474 8.72279 23.9739C8.92586 25.0004 9.42888 25.9437 10.1682 26.6842C10.9075 27.4248 11.8499 27.9294 12.8761 28.1342C13.9022 28.339 14.9661 28.2347 15.9331 27.8347C16.9 27.4347 17.7265 26.7568 18.3081 25.8868C18.8896 25.0169 19.2 23.994 19.2 22.9476C19.1986 21.5468 18.6422 20.2037 17.6525 19.2124C16.6629 18.2211 15.3208 17.6624 13.92 17.6587Z" fill="#50E6FF"/>
<path d="M13.92 32.0001C12.1291 32.0004 10.3783 31.4696 8.88909 30.4749C7.39986 29.4801 6.23908 28.0661 5.55357 26.4116C4.86806 24.757 4.6886 22.9364 5.03791 21.1799C5.38721 19.4234 6.24958 17.8099 7.51594 16.5435C8.7823 15.2772 10.3958 14.4148 12.1523 14.0655C13.9088 13.7162 15.7294 13.8956 17.384 14.5812C19.0385 15.2667 20.4525 16.4274 21.4473 17.9167C22.442 19.4059 22.9728 21.1567 22.9725 22.9476C22.9687 25.3473 22.0138 27.6476 20.3169 29.3445C18.6201 31.0413 16.3197 31.9963 13.92 32.0001ZM13.92 14.976C12.3433 14.9757 10.8019 15.4429 9.49077 16.3186C8.17962 17.1943 7.15761 18.4392 6.55399 19.8958C5.95037 21.3524 5.79226 22.9552 6.09964 24.5017C6.40702 26.0481 7.1661 27.4687 8.28087 28.5837C9.39564 29.6987 10.816 30.4581 12.3624 30.7659C13.9088 31.0736 15.5117 30.9158 16.9684 30.3125C18.4251 29.7092 19.6702 28.6875 20.5462 27.3765C21.4222 26.0656 21.8898 24.5243 21.8898 22.9476C21.8874 20.8344 21.0471 18.8085 19.553 17.3141C18.0589 15.8197 16.0332 14.9789 13.92 14.976Z" fill="#9CEBFF"/>
<path d="M13.9787 0C13.0623 0.028077 12.1606 0.237903 11.326 0.617297C10.4913 0.996691 9.74037 1.5381 9.11668 2.21008C8.49298 2.88207 8.00899 3.67125 7.69278 4.53181C7.37657 5.39237 7.23445 6.30718 7.27467 7.22311C7.27467 10.3733 11.2729 17.7511 13.0951 22.1796C13.1661 22.3552 13.288 22.5057 13.4451 22.6116C13.6022 22.7176 13.7874 22.7742 13.9769 22.7742C14.1664 22.7742 14.3516 22.7176 14.5087 22.6116C14.6658 22.5057 14.7876 22.3552 14.8587 22.1796C16.6773 17.7227 20.6844 10.2684 20.6844 7.22489C20.7437 5.38013 20.0726 3.58651 18.817 2.2337C17.5614 0.880897 15.8227 0.0781969 13.9787 0ZM13.9787 9.77778C13.3888 9.77778 12.8122 9.60279 12.3218 9.27496C11.8314 8.94713 11.4493 8.48119 11.2238 7.93612C10.9983 7.39104 10.9395 6.79132 11.055 6.21285C11.1705 5.63438 11.455 5.10317 11.8724 4.68644C12.2899 4.2697 12.8216 3.98618 13.4003 3.87175C13.979 3.75732 14.5786 3.81712 15.1233 4.04359C15.668 4.27005 16.1332 4.65301 16.4602 5.14399C16.7871 5.63497 16.9611 6.2119 16.96 6.80178C16.9591 7.5917 16.6445 8.34892 16.0854 8.90697C15.5264 9.46503 14.7686 9.77825 13.9787 9.77778Z" fill="url(#paint0_linear_868_8522)"/>
<defs>
<linearGradient id="paint0_linear_868_8522" x1="13.9787" y1="0" x2="13.9787" y2="22.7733" gradientUnits="userSpaceOnUse">
<stop stop-color="#B77AF4"/>
<stop offset="0.621" stop-color="#8C4FE4"/>
<stop offset="0.997" stop-color="#773ADC"/>
</linearGradient>
</defs>
</svg>
