<svg width="32" height="32" viewBox="0 0 32 32" fill="none" xmlns="http://www.w3.org/2000/svg">
<path d="M3.43289 3.74947L5.58577 1.24458C5.68453 1.13264 5.80601 1.04303 5.94212 0.981724C6.07822 0.920416 6.22583 0.888813 6.37511 0.889023H27.0222C27.2256 0.870104 27.4308 0.894529 27.6241 0.960687C27.8174 1.02684 27.9945 1.13323 28.1436 1.27283C28.2928 1.41243 28.4107 1.58207 28.4895 1.77057C28.5683 1.95906 28.6063 2.16212 28.6009 2.36636V28.1441C28.6008 28.2897 28.5703 28.4336 28.5116 28.5667C28.4528 28.6998 28.367 28.8193 28.2596 28.9175L25.9342 31.0348H4.82844L3.40622 30.4357L3.43289 3.74947Z" fill="#D15900"/>
<path d="M5.16443 3.73336L6.48354 2.22936C6.57075 2.12931 6.6784 2.04914 6.79923 1.99424C6.92006 1.93934 7.05127 1.911 7.18398 1.91113H26.464C26.7101 1.91113 26.9461 2.0089 27.1202 2.18294C27.2942 2.35697 27.392 2.59301 27.392 2.83913V27.3476C27.392 27.4768 27.365 27.6047 27.3126 27.7229C27.2603 27.841 27.1837 27.947 27.088 28.0338L25.0293 29.9094L5.16443 3.73336Z" fill="white"/>
<path d="M24.9031 3.72119H3.50043C3.47403 3.72119 3.44871 3.73168 3.43004 3.75035C3.41137 3.76902 3.40088 3.79435 3.40088 3.82075V30.427C3.40088 30.5172 3.4187 30.6064 3.45332 30.6897C3.48794 30.773 3.53867 30.8486 3.6026 30.9122C3.66654 30.9758 3.74241 31.0262 3.82586 31.0603C3.90931 31.0945 3.9987 31.1119 4.08888 31.1114H24.9067C25.0882 31.1114 25.2623 31.0393 25.3906 30.9109C25.519 30.7826 25.5911 30.6085 25.5911 30.427V4.40564C25.5909 4.31552 25.5729 4.22633 25.5382 4.14317C25.5035 4.06 25.4527 3.98448 25.3889 3.92093C25.325 3.85737 25.2492 3.80702 25.1658 3.77275C25.0825 3.73848 24.9932 3.72096 24.9031 3.72119Z" fill="url(#paint0_linear_868_8477)"/>
<path d="M18.6667 17.5274C18.6722 18.58 18.265 19.5929 17.5324 20.3487C17.4769 20.4285 17.4049 20.4954 17.3214 20.5451C17.2378 20.5948 17.1446 20.6261 17.048 20.6369C16.9514 20.6477 16.8536 20.6377 16.7612 20.6076C16.6687 20.5775 16.5838 20.5281 16.512 20.4625C16.4375 20.396 16.3781 20.3144 16.3378 20.223C16.2975 20.1317 16.2771 20.0328 16.2781 19.933C16.2792 19.8331 16.3015 19.7347 16.3437 19.6442C16.3858 19.5537 16.4469 19.4733 16.5227 19.4083C17.0234 18.8896 17.3033 18.1968 17.3033 17.4758C17.3033 16.7549 17.0234 16.0621 16.5227 15.5434C16.4484 15.4794 16.3885 15.4004 16.347 15.3115C16.3055 15.2227 16.2833 15.1261 16.2819 15.028C16.2804 14.93 16.2998 14.8327 16.3388 14.7427C16.3777 14.6527 16.4353 14.572 16.5077 14.5059C16.5802 14.4398 16.6658 14.3898 16.759 14.3593C16.8522 14.3287 16.9508 14.3182 17.0483 14.3286C17.1458 14.3389 17.24 14.3698 17.3247 14.4193C17.4094 14.4687 17.4826 14.5356 17.5396 14.6154C18.2839 15.3999 18.6888 16.4462 18.6667 17.5274Z" fill="white"/>
<path d="M10.3235 17.5253C10.3183 16.4497 10.7225 15.4124 11.4542 14.624C11.5111 14.542 11.585 14.4733 11.6708 14.4223C11.7566 14.3714 11.8524 14.3395 11.9516 14.3288C12.0508 14.318 12.1511 14.3287 12.2458 14.3601C12.3405 14.3915 12.4274 14.4429 12.5005 14.5108C12.5737 14.5786 12.6314 14.6614 12.6698 14.7535C12.7082 14.8456 12.7263 14.9449 12.723 15.0446C12.7197 15.1444 12.6951 15.2422 12.6507 15.3316C12.6063 15.421 12.5432 15.4997 12.4658 15.5626C11.9734 16.0799 11.6988 16.7667 11.6988 17.4809C11.6988 18.195 11.9734 18.8818 12.4658 19.3991C12.5435 19.4658 12.6059 19.5486 12.6487 19.6417C12.6915 19.7349 12.7137 19.8361 12.7137 19.9386C12.7137 20.0411 12.6915 20.1424 12.6487 20.2355C12.6059 20.3287 12.5435 20.4114 12.4658 20.4782C12.3967 20.5371 12.3165 20.5816 12.2299 20.6089C12.1433 20.6362 12.0521 20.6459 11.9617 20.6372C11.8713 20.6286 11.7836 20.6019 11.7038 20.5587C11.6239 20.5155 11.5535 20.4567 11.4969 20.3857C10.757 19.6157 10.3375 18.5931 10.3235 17.5253Z" fill="white"/>
<path d="M13.3333 17.4616C13.3335 17.3081 13.364 17.1561 13.4231 17.0144C13.4821 16.8727 13.5685 16.7439 13.6773 16.6356C13.7861 16.5273 13.9152 16.4415 14.0572 16.3831C14.1992 16.3248 14.3513 16.2949 14.5049 16.2954C14.8102 16.3073 15.0992 16.4369 15.311 16.6572C15.5229 16.8774 15.6412 17.1711 15.6412 17.4767C15.6412 17.7824 15.5229 18.0761 15.311 18.2963C15.0992 18.5166 14.8102 18.6462 14.5049 18.6581C14.3483 18.6603 14.1928 18.6308 14.048 18.5711C13.9032 18.5115 13.7721 18.423 13.6625 18.3111C13.5529 18.1992 13.4672 18.0662 13.4107 17.9202C13.3541 17.7742 13.3278 17.6181 13.3333 17.4616Z" fill="white"/>
<path d="M22.2222 17.4221C22.2315 18.9924 21.6237 20.5036 20.5298 21.6301C20.4475 21.7493 20.3407 21.8495 20.2166 21.9242C20.0924 21.9988 19.9538 22.0461 19.81 22.0629C19.6661 22.0797 19.5204 22.0657 19.3824 22.0217C19.2444 21.9777 19.1174 21.9049 19.0098 21.8079C18.8983 21.7087 18.8095 21.5867 18.7491 21.4502C18.6887 21.3138 18.6583 21.1659 18.6598 21.0167C18.6613 20.8675 18.6947 20.7203 18.7579 20.5851C18.821 20.4499 18.9123 20.3298 19.0258 20.2328C19.7729 19.4595 20.1904 18.4263 20.1904 17.351C20.1904 16.2758 19.7729 15.2426 19.0258 14.4692C18.9146 14.3738 18.8249 14.2558 18.7627 14.1231C18.7005 13.9904 18.6672 13.846 18.6651 13.6994C18.6629 13.5529 18.6919 13.4075 18.7501 13.273C18.8083 13.1385 18.8945 13.0179 19.0028 12.9192C19.1112 12.8205 19.2392 12.746 19.3786 12.7005C19.5179 12.655 19.6653 12.6396 19.811 12.6554C19.9567 12.6712 20.0974 12.7178 20.2238 12.792C20.3501 12.8663 20.4593 12.9665 20.544 13.0861C21.6529 14.2538 22.2561 15.8121 22.2222 17.4221Z" fill="white"/>
<path d="M6.75554 17.2909C6.74623 18.8612 7.35401 20.3724 8.44798 21.4989C8.5303 21.6181 8.63708 21.7183 8.7612 21.7929C8.88531 21.8676 9.02392 21.9149 9.16776 21.9317C9.31161 21.9485 9.45738 21.9345 9.59537 21.8905C9.73336 21.8465 9.86039 21.7736 9.96798 21.6767C10.0817 21.5777 10.1727 21.4552 10.2347 21.3177C10.2966 21.1802 10.3281 21.0309 10.3269 20.8801C10.3258 20.7292 10.2919 20.5805 10.2278 20.4439C10.1637 20.3074 10.0708 20.1864 9.95554 20.0891C9.20885 19.3156 8.79155 18.2825 8.79155 17.2074C8.79155 16.1323 9.20885 15.0991 9.95554 14.3256C10.0676 14.2305 10.1582 14.1126 10.2211 13.9797C10.2841 13.8469 10.318 13.7022 10.3207 13.5552C10.3233 13.4082 10.2946 13.2623 10.2364 13.1273C10.1783 12.9923 10.092 12.8712 9.98341 12.7722C9.87479 12.6731 9.74631 12.5983 9.60653 12.5528C9.46675 12.5073 9.31887 12.4921 9.17274 12.5082C9.02662 12.5243 8.88561 12.5714 8.75911 12.6463C8.6326 12.7211 8.52351 12.8221 8.43909 12.9425C7.32598 14.113 6.7208 15.6761 6.75554 17.2909Z" fill="white"/>
<defs>
<linearGradient id="paint0_linear_868_8477" x1="14.4942" y1="31.1114" x2="14.4942" y2="3.72119" gradientUnits="userSpaceOnUse">
<stop stop-color="#EF7100"/>
<stop offset="0.9" stop-color="#F78D1E"/>
</linearGradient>
</defs>
</svg>
