<svg width="32" height="32" viewBox="0 0 32 32" fill="none" xmlns="http://www.w3.org/2000/svg">
<path d="M24.3378 19.9468L21.6711 14.0801L16 7.4668L10.2934 14.0624L7.60892 19.9112L8.55114 20.3557L10.7378 15.5912L12.8889 20.3557L13.8489 19.929L11.36 14.4357L16 9.0668L20.6223 14.4535L18.0978 19.929L19.04 20.3735L21.2267 15.6268L23.3778 20.3912L24.3378 19.9468Z" fill="#949494"/>
<path d="M16 11.2711C17.6593 11.2711 19.0045 9.92596 19.0045 8.26665C19.0045 6.60734 17.6593 5.26221 16 5.26221C14.3407 5.26221 12.9956 6.60734 12.9956 8.26665C12.9956 9.92596 14.3407 11.2711 16 11.2711Z" fill="url(#paint0_linear_868_8462)"/>
<path d="M10.6667 12.0179C11.1018 12.0002 11.5322 12.1128 11.9029 12.3413C12.2735 12.5698 12.5676 12.9037 12.7473 13.3004C12.927 13.697 12.9841 14.1382 12.9115 14.5676C12.8389 14.9969 12.6397 15.3948 12.3395 15.7102C12.0394 16.0256 11.6519 16.2443 11.2267 16.3381C10.8015 16.4319 10.3579 16.3966 9.95288 16.2368C9.54785 16.077 9.19974 15.7999 8.95318 15.441C8.70661 15.0821 8.5728 14.6578 8.5689 14.2224C8.56382 13.6544 8.7799 13.1068 9.17143 12.6954C9.56295 12.2839 10.0992 12.041 10.6667 12.0179ZM19.0578 14.2224C19.0578 14.7976 19.2863 15.3493 19.693 15.756C20.0998 16.1627 20.6515 16.3913 21.2267 16.3913C21.6607 16.3948 22.0859 16.2691 22.4482 16.0301C22.8105 15.7912 23.0935 15.4499 23.2612 15.0496C23.4289 14.6494 23.4737 14.2082 23.3899 13.7824C23.3061 13.3566 23.0975 12.9653 22.7906 12.6584C22.4837 12.3516 22.0925 12.143 21.6666 12.0591C21.2408 11.9753 20.7997 12.0201 20.3994 12.1878C19.9991 12.3555 19.6578 12.6386 19.4189 13.0009C19.18 13.3632 19.0543 13.7884 19.0578 14.2224Z" fill="url(#paint1_linear_868_8462)"/>
<path d="M8.07112 21.8488C9.02351 21.8488 9.79557 21.0767 9.79557 20.1243C9.79557 19.172 9.02351 18.3999 8.07112 18.3999C7.11874 18.3999 6.34668 19.172 6.34668 20.1243C6.34668 21.0767 7.11874 21.8488 8.07112 21.8488Z" fill="#37C2B1"/>
<path d="M13.3689 21.8664C14.3213 21.8664 15.0934 21.0943 15.0934 20.1419C15.0934 19.1895 14.3213 18.4175 13.3689 18.4175C12.4165 18.4175 11.6445 19.1895 11.6445 20.1419C11.6445 21.0943 12.4165 21.8664 13.3689 21.8664Z" fill="#37C2B1"/>
<path d="M18.56 21.8844C19.5124 21.8844 20.2845 21.1124 20.2845 20.16C20.2845 19.2076 19.5124 18.4355 18.56 18.4355C17.6076 18.4355 16.8356 19.2076 16.8356 20.16C16.8356 21.1124 17.6076 21.8844 18.56 21.8844Z" fill="#37C2B1"/>
<path d="M23.8578 21.902C24.8102 21.902 25.5823 21.13 25.5823 20.1776C25.5823 19.2252 24.8102 18.4531 23.8578 18.4531C22.9054 18.4531 22.1334 19.2252 22.1334 20.1776C22.1334 21.13 22.9054 21.902 23.8578 21.902Z" fill="#37C2B1"/>
<path d="M0.888897 27.0577C0.888446 27.1081 0.901375 27.1577 0.926363 27.2014C0.951351 27.2451 0.987501 27.2815 1.03112 27.3066L3.07556 28.4444L6.63112 30.4711C6.7006 30.506 6.78042 30.5145 6.85567 30.4948C6.93093 30.4752 6.99645 30.4288 7.04001 30.3644L8.12445 28.4444C8.14612 28.4126 8.16062 28.3764 8.16697 28.3384C8.17332 28.3004 8.17136 28.2615 8.16122 28.2243C8.15108 28.1871 8.13301 28.1526 8.10825 28.1231C8.08349 28.0936 8.05263 28.0698 8.01779 28.0533L3.94667 25.6177C3.90306 25.5926 3.86691 25.5563 3.84192 25.5125C3.81693 25.4688 3.804 25.4192 3.80445 25.3689V6.63108C3.804 6.58072 3.81693 6.53114 3.84192 6.48741C3.86691 6.44368 3.90306 6.40737 3.94667 6.38219L8.01779 4.01775C8.06531 4.00572 8.1086 3.98083 8.1429 3.9458C8.1772 3.91077 8.20118 3.86696 8.2122 3.8192C8.22322 3.77143 8.22087 3.72154 8.20539 3.67503C8.1899 3.62851 8.1619 3.58716 8.12445 3.55553L6.9689 1.58219C6.92534 1.51776 6.85982 1.4714 6.78456 1.45177C6.70931 1.43214 6.62949 1.44058 6.56001 1.47553L3.14667 3.44886L1.03112 4.69331C0.987501 4.71849 0.951351 4.7548 0.926363 4.79852C0.901375 4.84225 0.888446 4.89183 0.888897 4.94219V27.0577Z" fill="#949494"/>
<path d="M8.12446 3.55545L6.9689 1.58212C6.93651 1.53288 6.89115 1.49354 6.83782 1.46845C6.78449 1.44335 6.72527 1.43347 6.66668 1.4399H6.52446L3.11112 3.44878L0.995569 4.69323C0.960852 4.68231 0.92362 4.68231 0.888902 4.69323C0.880945 4.7403 0.880945 4.78838 0.888902 4.83545L3.80446 6.61323C3.80401 6.56287 3.81694 6.51329 3.84192 6.46956C3.86691 6.42583 3.90306 6.38952 3.94668 6.36434L8.01779 4.01767C8.06532 4.00565 8.10861 3.98075 8.14291 3.94572C8.1772 3.91069 8.20118 3.86689 8.2122 3.81912C8.22323 3.77135 8.22087 3.72147 8.20539 3.67495C8.18991 3.62844 8.16191 3.58709 8.12446 3.55545Z" fill="#A3A3A3"/>
<path d="M8.12446 28.4445L6.9689 30.4889C6.93651 30.5382 6.89115 30.5775 6.83782 30.6026C6.78449 30.6277 6.72527 30.6376 6.66668 30.6312C6.62067 30.6474 6.57047 30.6474 6.52446 30.6312L3.11112 28.5512L0.995569 27.3067C0.960852 27.3176 0.92362 27.3176 0.888902 27.3067C0.880945 27.2596 0.880945 27.2116 0.888902 27.1645L3.80446 25.3867C3.80401 25.4371 3.81694 25.4867 3.84192 25.5304C3.86691 25.5741 3.90306 25.6104 3.94668 25.6356L8.01779 28.0001C8.05868 28.0174 8.09492 28.0442 8.12362 28.0781C8.15232 28.112 8.17267 28.1522 8.18304 28.1954C8.19341 28.2386 8.19351 28.2837 8.18334 28.3269C8.17316 28.3702 8.153 28.4104 8.12446 28.4445Z" fill="#A3A3A3"/>
<path d="M31.1111 4.94208C31.1116 4.89172 31.0986 4.84214 31.0737 4.79841C31.0487 4.75468 31.0125 4.71837 30.9689 4.69319L28.9245 3.55542L25.3689 1.52875C25.2994 1.49381 25.2196 1.48536 25.1443 1.50499C25.0691 1.52462 25.0036 1.57099 24.96 1.63542L23.8756 3.55542C23.8539 3.58727 23.8394 3.62345 23.8331 3.66145C23.8267 3.69945 23.8287 3.73837 23.8388 3.77554C23.8489 3.81271 23.867 3.84725 23.8918 3.87676C23.9165 3.90628 23.9474 3.93008 23.9822 3.94653L28.0533 6.31097C28.097 6.33615 28.1331 6.37246 28.1581 6.41619C28.1831 6.45992 28.196 6.5095 28.1956 6.55986V25.3688C28.196 25.4191 28.1831 25.4687 28.1581 25.5124C28.1331 25.5561 28.097 25.5925 28.0533 25.6176L23.9822 27.9821C23.9474 27.9985 23.9165 28.0223 23.8918 28.0518C23.867 28.0814 23.8489 28.1159 23.8388 28.1531C23.8287 28.1902 23.8267 28.2292 23.8331 28.2672C23.8394 28.3052 23.8539 28.3413 23.8756 28.3732L25.0311 30.4176C25.0747 30.4821 25.1402 30.5284 25.2155 30.5481C25.2907 30.5677 25.3705 30.5592 25.44 30.5243L28.8533 28.551L30.9689 27.3065C31.0125 27.2813 31.0487 27.245 31.0737 27.2013C31.0986 27.1576 31.1116 27.108 31.1111 27.0576V4.94208Z" fill="#949494"/>
<path d="M23.8756 28.4443L25.0311 30.4887C25.0635 30.538 25.1089 30.5773 25.1622 30.6024C25.2156 30.6275 25.2748 30.6374 25.3334 30.6309H25.4756L28.8889 28.6576L31.0045 27.4132C31.0392 27.4241 31.0764 27.4241 31.1111 27.4132C31.1191 27.3661 31.1191 27.318 31.1111 27.2709L28.1956 25.4932C28.196 25.5435 28.1831 25.5931 28.1581 25.6368C28.1331 25.6806 28.097 25.7169 28.0534 25.7421L23.9823 28.1065C23.9262 28.14 23.8844 28.1929 23.8647 28.2551C23.8451 28.3174 23.8489 28.3847 23.8756 28.4443Z" fill="#A3A3A3"/>
<path d="M23.8755 3.55549L25.0311 1.58216C25.0635 1.53292 25.1089 1.49358 25.1622 1.46849C25.2155 1.44339 25.2747 1.43351 25.3333 1.43994C25.3793 1.42367 25.4295 1.42367 25.4755 1.43994L28.8889 3.41327L31.0044 4.65771C31.0392 4.64679 31.0764 4.64679 31.1111 4.65771C31.1191 4.70479 31.1191 4.75286 31.1111 4.79994L28.1955 6.57771C28.196 6.52735 28.1831 6.47777 28.1581 6.43404C28.1331 6.39031 28.0969 6.354 28.0533 6.32882L23.9822 4.01771C23.9382 4.00125 23.899 3.97415 23.868 3.93882C23.837 3.90349 23.8153 3.86104 23.8047 3.81526C23.7941 3.76948 23.7951 3.72179 23.8074 3.67646C23.8198 3.63113 23.8432 3.58957 23.8755 3.55549Z" fill="#A3A3A3"/>
<defs>
<linearGradient id="paint0_linear_868_8462" x1="16" y1="5.24443" x2="16" y2="11.2711" gradientUnits="userSpaceOnUse">
<stop stop-color="#C69AEB"/>
<stop offset="1" stop-color="#6F4BB2"/>
</linearGradient>
<linearGradient id="paint1_linear_868_8462" x1="15.9822" y1="12.0179" x2="15.9822" y2="16.3913" gradientUnits="userSpaceOnUse">
<stop stop-color="#54AEF0"/>
<stop offset="1" stop-color="#1988D9"/>
</linearGradient>
</defs>
</svg>
