<svg width="32" height="32" viewBox="0 0 32 32" fill="none" xmlns="http://www.w3.org/2000/svg">
<path d="M1.77777 10.6187H30.2222V26.4764C30.2222 26.6013 30.1976 26.725 30.1498 26.8404C30.102 26.9558 30.032 27.0606 29.9436 27.149C29.8553 27.2373 29.7505 27.3073 29.6351 27.3551C29.5197 27.4029 29.396 27.4275 29.2711 27.4275H2.72888C2.60398 27.4275 2.4803 27.4029 2.36491 27.3551C2.24951 27.3073 2.14466 27.2373 2.05634 27.149C1.96803 27.0606 1.89797 26.9558 1.85017 26.8404C1.80237 26.725 1.77777 26.6013 1.77777 26.4764V10.6187Z" fill="url(#paint0_linear_868_8459)"/>
<path d="M2.73422 4.55666H29.2658C29.3914 4.55595 29.516 4.58015 29.6322 4.62785C29.7485 4.67556 29.8541 4.74582 29.943 4.83459C30.032 4.92336 30.1024 5.02886 30.1503 5.14502C30.1983 5.26117 30.2227 5.38567 30.2222 5.51132V10.6189H1.77778V5.51132C1.77731 5.38567 1.80174 5.26117 1.84966 5.14502C1.89758 5.02886 1.96804 4.92336 2.05697 4.83459C2.1459 4.74582 2.25154 4.67556 2.36779 4.62785C2.48403 4.58015 2.60857 4.55595 2.73422 4.55666Z" fill="#198AB3"/>
<path d="M1.77777 10.6187H9.23377V27.4275H2.73066C2.60571 27.4285 2.48182 27.4047 2.36613 27.3574C2.25045 27.3102 2.14526 27.2405 2.05666 27.1524C1.96806 27.0643 1.8978 26.9595 1.84993 26.8441C1.80206 26.7287 1.77753 26.6049 1.77777 26.48V10.6187Z" fill="#9CEBFF"/>
<path d="M9.23376 23.7441H30.2222V26.489C30.2222 26.7399 30.1226 26.9804 29.9452 27.1578C29.7678 27.3352 29.5273 27.4348 29.2764 27.4348H9.23376V23.7441Z" fill="#32BEDD"/>
<defs>
<linearGradient id="paint0_linear_868_8459" x1="16" y1="27.4258" x2="16" y2="10.6187" gradientUnits="userSpaceOnUse">
<stop stop-color="#32BEDD"/>
<stop offset="0.175" stop-color="#32CAEA"/>
<stop offset="0.41" stop-color="#32D2F2"/>
<stop offset="0.775" stop-color="#32D4F5"/>
</linearGradient>
</defs>
</svg>
