<svg width="32" height="32" viewBox="0 0 32 32" fill="none" xmlns="http://www.w3.org/2000/svg">
<path d="M26.6667 8.47998H24.8889V31.2355L26.6667 27.8044V8.47998Z" fill="#50E6FF"/>
<path d="M26.6667 27.7866L24.8889 31.2177L26.6667 29.7955L28.8534 28.1066L26.6667 27.7866Z" fill="#9CEBFF"/>
<path d="M14.9156 5.08423C14.9434 4.35015 15.2595 3.65664 15.7953 3.15411C16.3311 2.65158 17.0434 2.38054 17.7778 2.39978C18.1444 2.3855 18.5102 2.44364 18.8543 2.57087C19.1984 2.69809 19.5141 2.89191 19.7832 3.14123C20.0523 3.39056 20.2697 3.6905 20.4228 4.0239C20.5759 4.35729 20.6618 4.71761 20.6756 5.08423V8.47978H22.0622V5.08423C22.0484 4.53554 21.9266 3.99495 21.7037 3.49336C21.4809 2.99177 21.1614 2.539 20.7635 2.16092C20.3657 1.78285 19.8972 1.48689 19.3849 1.28994C18.8726 1.09299 18.3265 0.998927 17.7778 1.01311C16.6727 0.989243 15.6032 1.40428 14.8035 2.16733C14.0038 2.93038 13.5391 3.97924 13.5111 5.08423V8.47978H14.8978L14.9156 5.08423Z" fill="#A3A3A3"/>
<path d="M10.6667 5.08429C10.6945 4.34705 11.0131 3.6508 11.5527 3.14777C12.0924 2.64473 12.8093 2.37583 13.5467 2.39985C14.2858 2.37574 15.0047 2.64409 15.5472 3.14666C16.0897 3.64923 16.4121 4.34548 16.4445 5.08429V8.47985H17.7778V5.08429C17.7453 3.98709 17.2841 2.94633 16.4931 2.18525C15.7021 1.42417 14.6443 1.0034 13.5467 1.01318C12.4416 0.989311 11.3721 1.40435 10.5724 2.1674C9.77271 2.93044 9.30799 3.97931 9.28003 5.08429V8.47985H10.6667V5.08429Z" fill="#767676"/>
<path d="M24.7466 8.47998V31.2355L2.57776 29.4755L3.25331 8.47998H24.7466Z" fill="#32BEDD"/>
<path d="M26.5778 8.47998V27.8044L28.7644 28.1244L28.1066 8.47998H26.5778Z" fill="#32BEDD"/>
<path d="M21.6711 21.8845C21.6463 20.9769 21.3201 20.1034 20.7439 19.4016C20.1677 18.6999 19.3743 18.2099 18.4889 18.009C18.4515 16.7514 17.946 15.553 17.0712 14.6487C16.1965 13.7444 15.0157 13.1993 13.76 13.1201C12.7951 13.0348 11.8291 13.271 11.0123 13.7919C10.1956 14.3128 9.57407 15.0892 9.24447 16.0001C8.21016 16.0767 7.24363 16.5435 6.54057 17.306C5.8375 18.0685 5.45046 19.0696 5.45781 20.1067C5.47749 21.3297 5.95651 22.5004 6.79968 23.3864C7.64285 24.2724 8.78847 24.8088 10.0089 24.889H10.4L17.7956 25.3867H17.9911C18.464 25.4033 18.9354 25.3254 19.3777 25.1575C19.82 24.9896 20.2244 24.7351 20.5671 24.409C20.9098 24.0828 21.184 23.6915 21.3736 23.258C21.5632 22.8245 21.6643 22.3576 21.6711 21.8845Z" fill="url(#paint0_linear_868_8457)"/>
<defs>
<linearGradient id="paint0_linear_868_8457" x1="13.5645" y1="27.2712" x2="13.5645" y2="10.3823" gradientUnits="userSpaceOnUse">
<stop stop-color="#CCCCCC"/>
<stop offset="0.15" stop-color="#DADADA"/>
<stop offset="0.44" stop-color="#EEEEEE"/>
<stop offset="0.72" stop-color="#FBFBFB"/>
<stop offset="1" stop-color="white"/>
</linearGradient>
</defs>
</svg>
