<svg width="32" height="32" viewBox="0 0 32 32" fill="none" xmlns="http://www.w3.org/2000/svg">
<path d="M17.7174 1.11426H4.85514C4.72154 1.11426 4.58925 1.14063 4.46585 1.19187C4.34246 1.2431 4.2304 1.31819 4.13609 1.41283C4.04178 1.50747 3.96709 1.6198 3.91628 1.74337C3.86548 1.86694 3.83957 1.99932 3.84003 2.13292V29.8663C3.8398 29.9997 3.86588 30.1319 3.91679 30.2553C3.9677 30.3786 4.04244 30.4907 4.13672 30.5852C4.23101 30.6796 4.34299 30.7546 4.46627 30.8057C4.58954 30.8568 4.72169 30.8831 4.85514 30.8831H27.1449C27.2784 30.8831 27.4105 30.8568 27.5338 30.8057C27.6571 30.7546 27.7691 30.6796 27.8633 30.5852C27.9576 30.4907 28.0324 30.3786 28.0833 30.2553C28.1342 30.1319 28.1603 29.9997 28.16 29.8663V11.5107C28.1603 11.3772 28.1342 11.2451 28.0833 11.1217C28.0324 10.9983 27.9576 10.8862 27.8633 10.7918C27.7691 10.6973 27.6571 10.6224 27.5338 10.5713C27.4105 10.5201 27.2784 10.4938 27.1449 10.4938H19.7476C19.4784 10.4938 19.2202 10.3869 19.0298 10.1965C18.8394 10.0061 18.7325 9.74793 18.7325 9.4787V2.13292C18.7327 1.99938 18.7066 1.86711 18.6558 1.74364C18.6049 1.62018 18.5302 1.50795 18.4359 1.41335C18.3416 1.31876 18.2297 1.24366 18.1064 1.19234C17.9831 1.14102 17.8509 1.11449 17.7174 1.11426Z" fill="white"/>
<path d="M17.2445 2.41223V9.37934C17.2445 10.0567 17.5133 10.7064 17.992 11.1858C18.4706 11.6651 19.12 11.9348 19.7974 11.9358H26.8142V29.5873H5.18225V2.41223H17.2445ZM17.7387 0.888672H4.6898C4.41617 0.889143 4.15391 0.998173 3.96059 1.19183C3.76727 1.38548 3.65869 1.64793 3.65869 1.92156V30.078C3.65869 30.3516 3.76727 30.6141 3.96059 30.8077C4.15391 31.0014 4.41617 31.1104 4.6898 31.1109H27.3102C27.5839 31.1104 27.8461 31.0014 28.0395 30.8077C28.2328 30.6141 28.3414 30.3516 28.3414 30.078V11.4433C28.3414 11.1699 28.2327 10.9076 28.0394 10.7142C27.846 10.5209 27.5837 10.4122 27.3102 10.4122H19.8009C19.6654 10.4122 19.5311 10.3855 19.4059 10.3336C19.2807 10.2816 19.167 10.2055 19.0712 10.1096C18.9754 10.0137 18.8995 9.89978 18.8478 9.77447C18.7961 9.64917 18.7696 9.5149 18.7698 9.37934V1.92156C18.7698 1.64793 18.6612 1.38548 18.4679 1.19183C18.2746 0.998173 18.0123 0.889143 17.7387 0.888672Z" fill="url(#paint0_linear_868_8514)"/>
<path d="M27.9467 10.6165L18.4142 1.11426V8.85648C18.4128 9.08621 18.4567 9.31396 18.5433 9.52674C18.6299 9.73952 18.7576 9.93315 18.919 10.0966C19.0805 10.26 19.2725 10.39 19.4843 10.4792C19.696 10.5685 19.9232 10.6151 20.1529 10.6165H27.9467Z" fill="#0078D4"/>
<path d="M8.24713 9.29941V15.5999C8.24734 15.6884 8.27077 15.7754 8.31508 15.8521C8.35939 15.9288 8.42303 15.9925 8.49965 16.037C8.57628 16.0814 8.66322 16.105 8.75179 16.1053C8.84037 16.1057 8.92749 16.0828 9.00446 16.039L14.5156 12.8887C14.5932 12.8447 14.6578 12.7808 14.7027 12.7037C14.7476 12.6266 14.7713 12.5389 14.7713 12.4496C14.7713 12.3604 14.7476 12.2727 14.7027 12.1956C14.6578 12.1184 14.5932 12.0546 14.5156 12.0105L9.00446 8.8603C8.92749 8.81648 8.84037 8.7936 8.75179 8.79395C8.66322 8.7943 8.57628 8.81786 8.49965 8.86229C8.42303 8.90672 8.35939 8.97046 8.31508 9.04716C8.27077 9.12386 8.24734 9.21083 8.24713 9.29941Z" fill="#32BEDD"/>
<path d="M20.4694 18.5205H8.94583C8.50989 18.5205 8.15649 18.8739 8.15649 19.3098V19.4894C8.15649 19.9253 8.50989 20.2787 8.94583 20.2787H20.4694C20.9053 20.2787 21.2587 19.9253 21.2587 19.4894V19.3098C21.2587 18.8739 20.9053 18.5205 20.4694 18.5205Z" fill="#5EA0EF"/>
<path d="M20.4694 21.6689H8.94583C8.50989 21.6689 8.15649 22.0223 8.15649 22.4583V22.6378C8.15649 23.0738 8.50989 23.4272 8.94583 23.4272H20.4694C20.9053 23.4272 21.2587 23.0738 21.2587 22.6378V22.4583C21.2587 22.0223 20.9053 21.6689 20.4694 21.6689Z" fill="#5EA0EF"/>
<path d="M15.6249 24.8193H8.94583C8.50989 24.8193 8.15649 25.1727 8.15649 25.6087V25.7882C8.15649 26.2242 8.50989 26.5776 8.94583 26.5776H15.6249C16.0609 26.5776 16.4143 26.2242 16.4143 25.7882V25.6087C16.4143 25.1727 16.0609 24.8193 15.6249 24.8193Z" fill="#5EA0EF"/>
<defs>
<linearGradient id="paint0_linear_868_8514" x1="16" y1="31.1109" x2="16" y2="0.888672" gradientUnits="userSpaceOnUse">
<stop stop-color="#0078D4"/>
<stop offset="0.817" stop-color="#5EA0EF"/>
</linearGradient>
</defs>
</svg>
