<svg width="32" height="32" viewBox="0 0 32 32" fill="none" xmlns="http://www.w3.org/2000/svg">
<g clip-path="url(#clip0_868_8456)">
<path d="M16.4018 6.98139L24.1778 11.4525L29.5965 8.32361C28.4094 6.21095 26.7473 4.40331 24.7415 3.04354C22.7356 1.68376 20.441 0.809126 18.039 0.488741C15.637 0.168355 13.1933 0.411002 10.9012 1.19751C8.60909 1.98401 6.5313 3.29282 4.83203 5.0205C8.7994 4.3489 12.8773 5.04004 16.4018 6.98139Z" fill="url(#paint0_linear_868_8456)"/>
<path d="M24.0729 11.4527L23.9502 22.1798L29.5822 23.6927C30.7487 21.634 31.4326 19.3375 31.5824 16.9761C31.7322 14.6147 31.344 12.2501 30.447 10.0605C29.55 7.87097 28.1677 5.91362 26.4042 4.33601C24.6408 2.75841 22.5422 1.60171 20.2667 0.953125C22.5818 3.97998 23.9106 7.64537 24.0729 11.4527Z" fill="#0078D4"/>
<path d="M24.0622 20.7039L15.9698 25.3795L16.096 31.6017C20.2341 31.5848 24.1969 29.9291 27.117 26.997C30.037 24.0649 31.6765 20.0954 31.6765 15.9573C31.6611 14.7023 31.4891 13.4541 31.1645 12.2417C29.8032 15.7733 27.3042 18.7508 24.0622 20.7039Z" fill="#5EA0EF"/>
<path d="M15.9698 25.3797L7.872 20.7041L2.50311 23.9254C3.69758 25.9632 5.33886 27.7034 7.30334 29.015C9.26782 30.3265 11.5043 31.1752 13.8443 31.4972C16.1843 31.8191 18.5669 31.6059 20.8126 30.8736C23.0583 30.1413 25.1085 28.909 26.8089 27.2694C23.0868 27.8132 19.2883 27.1509 15.9698 25.3797Z" fill="url(#paint1_linear_868_8456)"/>
<path d="M7.86665 20.7043L7.98932 9.61629L2.44799 8.15674C1.05617 10.5362 0.323484 13.2436 0.325321 16.0003C0.34043 19.4436 1.48523 22.7867 3.58396 25.5165C5.68269 28.2463 8.61935 30.2119 11.9431 31.1114C9.52069 28.1591 8.09386 24.5164 7.86665 20.7043Z" fill="#0078D4"/>
<path d="M8.14757 11.2L15.9698 6.6791C12.7407 4.92452 9.06808 4.15501 5.40624 4.46577C3.8018 5.92771 2.52092 7.7091 1.6459 9.69551C0.770873 11.6819 0.321057 13.8294 0.325348 16C0.332097 17.3935 0.521564 18.7802 0.888903 20.1244C2.2808 16.4436 4.82743 13.3125 8.14757 11.2Z" fill="#5EA0EF"/>
<path d="M24.0623 20.7041V11.353L15.9645 6.6792L7.8667 11.353V20.7041L15.9645 25.3796L24.0623 20.7041Z" fill="#C3F1FF"/>
<path d="M15.9751 16.1261V25.3794L7.8667 20.7039V11.3848L15.9751 16.1261Z" fill="url(#paint2_linear_868_8456)"/>
<path d="M15.9645 16.1261V25.3794L24.0729 20.7039V11.3848L15.9645 16.1261Z" fill="#50E6FF"/>
</g>
<defs>
<linearGradient id="paint0_linear_868_8456" x1="-22.9034" y1="5.93717" x2="39.7719" y2="5.8875" gradientUnits="userSpaceOnUse">
<stop stop-color="#005BA1"/>
<stop offset="0.366" stop-color="#004E8F"/>
<stop offset="1" stop-color="#003067"/>
</linearGradient>
<linearGradient id="paint1_linear_868_8456" x1="53.0559" y1="25.9538" x2="-23.6869" y2="26.3662" gradientUnits="userSpaceOnUse">
<stop stop-color="#005BA1"/>
<stop offset="0.451" stop-color="#004685"/>
<stop offset="1" stop-color="#003067"/>
</linearGradient>
<linearGradient id="paint2_linear_868_8456" x1="10.6418" y1="25.6817" x2="13.2089" y2="11.0274" gradientUnits="userSpaceOnUse">
<stop offset="0.26" stop-color="#50E6FF"/>
<stop offset="0.42" stop-color="#79EAFF"/>
<stop offset="0.58" stop-color="#99EDFF"/>
<stop offset="0.733" stop-color="#B0EFFF"/>
<stop offset="0.876" stop-color="#BEF1FF"/>
<stop offset="1" stop-color="#C3F1FF"/>
</linearGradient>
<clipPath id="clip0_868_8456">
<rect width="32" height="32" fill="white"/>
</clipPath>
</defs>
</svg>
