<svg width="32" height="32" viewBox="0 0 32 32" fill="none" xmlns="http://www.w3.org/2000/svg">
<path d="M24.8355 0H7.16621C6.75482 0 6.42133 0.333498 6.42133 0.744889V31.2551C6.42133 31.6665 6.75482 32 7.16621 32H24.8355C25.2469 32 25.5804 31.6665 25.5804 31.2551V0.744889C25.5804 0.333498 25.2469 0 24.8355 0Z" fill="url(#paint0_linear_868_8464)"/>
<path d="M17.9324 1.07373H14.0658C13.9146 1.07373 13.792 1.19631 13.792 1.34751V1.39195C13.792 1.54316 13.9146 1.66573 14.0658 1.66573H17.9324C18.0836 1.66573 18.2062 1.54316 18.2062 1.39195V1.34751C18.2062 1.19631 18.0836 1.07373 17.9324 1.07373Z" fill="#F2F2F2"/>
<path opacity="0.9" d="M23.424 2.70557H8.57599C8.37864 2.70557 8.21866 2.86555 8.21866 3.0629V28.0567C8.21866 28.254 8.37864 28.414 8.57599 28.414H23.424C23.6213 28.414 23.7813 28.254 23.7813 28.0567V3.0629C23.7813 2.86555 23.6213 2.70557 23.424 2.70557Z" fill="url(#paint1_linear_868_8464)"/>
<path d="M16.5618 29.4756H15.4382C15.1574 29.4756 14.9298 29.7032 14.9298 29.984V30.7947C14.9298 31.0755 15.1574 31.3031 15.4382 31.3031H16.5618C16.8426 31.3031 17.0702 31.0755 17.0702 30.7947V29.984C17.0702 29.7032 16.8426 29.4756 16.5618 29.4756Z" fill="#F2F2F2"/>
<path d="M21.1235 13.1162V18.8869L16.1369 21.7864V16.0069L21.1235 13.1162Z" fill="#005BA1"/>
<path d="M21.1235 13.1164L16.1387 16.0159L11.1502 13.1164L16.1387 10.2168L21.1235 13.1164Z" fill="#5EA0EF"/>
<path d="M16.1369 16.0158V21.7864L11.1502 18.8869V13.1162L16.1369 16.0158Z" fill="#0078D4"/>
<defs>
<linearGradient id="paint0_linear_868_8464" x1="16" y1="40.5511" x2="16" y2="-4.42844" gradientUnits="userSpaceOnUse">
<stop stop-color="#0078D4"/>
<stop offset="0.165" stop-color="#1C84DC"/>
<stop offset="0.378" stop-color="#3990E4"/>
<stop offset="0.59" stop-color="#4D99EA"/>
<stop offset="0.799" stop-color="#5A9EEE"/>
<stop offset="1" stop-color="#5EA0EF"/>
</linearGradient>
<linearGradient id="paint1_linear_868_8464" x1="16" y1="28.4122" x2="16" y2="2.70557" gradientUnits="userSpaceOnUse">
<stop stop-color="#D2EBFF"/>
<stop offset="0.997" stop-color="#F0FFFD"/>
</linearGradient>
</defs>
</svg>
