<svg width="32" height="32" viewBox="0 0 32 32" fill="none" xmlns="http://www.w3.org/2000/svg">
<path d="M24.8355 0H7.16621C6.75482 0 6.42133 0.333498 6.42133 0.744889V31.2551C6.42133 31.6665 6.75482 32 7.16621 32H24.8355C25.2469 32 25.5804 31.6665 25.5804 31.2551V0.744889C25.5804 0.333498 25.2469 0 24.8355 0Z" fill="url(#paint0_linear_868_8455)"/>
<path d="M17.9324 1.07373H14.0658C13.9146 1.07373 13.792 1.19631 13.792 1.34751V1.39195C13.792 1.54316 13.9146 1.66573 14.0658 1.66573H17.9324C18.0836 1.66573 18.2062 1.54316 18.2062 1.39195V1.34751C18.2062 1.19631 18.0836 1.07373 17.9324 1.07373Z" fill="#F2F2F2"/>
<path opacity="0.9" d="M23.424 2.70557H8.57599C8.37864 2.70557 8.21866 2.86555 8.21866 3.0629V28.0567C8.21866 28.254 8.37864 28.414 8.57599 28.414H23.424C23.6213 28.414 23.7813 28.254 23.7813 28.0567V3.0629C23.7813 2.86555 23.6213 2.70557 23.424 2.70557Z" fill="url(#paint1_linear_868_8455)"/>
<path d="M16.5618 29.4756H15.4382C15.1574 29.4756 14.9298 29.7032 14.9298 29.984V30.7947C14.9298 31.0755 15.1574 31.3031 15.4382 31.3031H16.5618C16.8426 31.3031 17.0702 31.0755 17.0702 30.7947V29.984C17.0702 29.7032 16.8426 29.4756 16.5618 29.4756Z" fill="#F2F2F2"/>
<path d="M20.2666 5.14114V11.5127C20.2666 11.5577 20.2578 11.6022 20.2405 11.6437C20.2232 11.6853 20.1979 11.723 20.166 11.7547C20.1342 11.7864 20.0963 11.8115 20.0547 11.8286C20.0131 11.8456 19.9685 11.8543 19.9235 11.854H17.2569C17.2347 11.854 17.2135 11.8628 17.1978 11.8785C17.1821 11.8942 17.1733 11.9154 17.1733 11.9376V12.9651C17.1731 12.9962 17.1642 13.0265 17.1477 13.0528C17.1311 13.0791 17.1076 13.1002 17.0797 13.1139C17.0519 13.1275 17.0208 13.1332 16.9899 13.1301C16.959 13.1271 16.9295 13.1155 16.9049 13.0967L15.3049 11.8718C15.2901 11.8604 15.272 11.8542 15.2533 11.854H10.6204C10.5755 11.8543 10.5309 11.8456 10.4893 11.8286C10.4476 11.8115 10.4098 11.7864 10.3779 11.7547C10.346 11.723 10.3207 11.6853 10.3035 11.6437C10.2862 11.6022 10.2773 11.5577 10.2773 11.5127V5.14114C10.2773 5.09617 10.2862 5.05164 10.3035 5.01011C10.3207 4.96858 10.346 4.93087 10.3779 4.89915C10.4098 4.86743 10.4476 4.84233 10.4893 4.82528C10.5309 4.80823 10.5755 4.79958 10.6204 4.79981H19.9289C20.0188 4.80075 20.1047 4.83712 20.1679 4.90103C20.2312 4.96494 20.2667 5.05123 20.2666 5.14114Z" fill="#5EA0EF"/>
<path d="M12.7253 17.5645H10.7751C10.4874 17.5645 10.2542 17.7977 10.2542 18.0853V25.5449C10.2542 25.8326 10.4874 26.0658 10.7751 26.0658H12.7253C13.013 26.0658 13.2462 25.8326 13.2462 25.5449V18.0853C13.2462 17.7977 13.013 17.5645 12.7253 17.5645Z" fill="#5EA0EF"/>
<path d="M17.1644 15.6553H15.2142C14.9265 15.6553 14.6933 15.8885 14.6933 16.1762V25.5433C14.6933 25.831 14.9265 26.0642 15.2142 26.0642H17.1644C17.4521 26.0642 17.6853 25.831 17.6853 25.5433V16.1762C17.6853 15.8885 17.4521 15.6553 17.1644 15.6553Z" fill="#0078D4"/>
<path d="M21.6018 14.0923H19.6515C19.3639 14.0923 19.1306 14.3255 19.1306 14.6132V25.543C19.1306 25.8306 19.3639 26.0638 19.6515 26.0638H21.6018C21.8894 26.0638 22.1226 25.8306 22.1226 25.543V14.6132C22.1226 14.3255 21.8894 14.0923 21.6018 14.0923Z" fill="#005BA1"/>
<defs>
<linearGradient id="paint0_linear_868_8455" x1="16" y1="40.5511" x2="16" y2="-4.42844" gradientUnits="userSpaceOnUse">
<stop stop-color="#0078D4"/>
<stop offset="0.165" stop-color="#1C84DC"/>
<stop offset="0.378" stop-color="#3990E4"/>
<stop offset="0.59" stop-color="#4D99EA"/>
<stop offset="0.799" stop-color="#5A9EEE"/>
<stop offset="1" stop-color="#5EA0EF"/>
</linearGradient>
<linearGradient id="paint1_linear_868_8455" x1="16" y1="28.4122" x2="16" y2="2.70557" gradientUnits="userSpaceOnUse">
<stop stop-color="#D2EBFF"/>
<stop offset="0.997" stop-color="#F0FFFD"/>
</linearGradient>
</defs>
</svg>
