<svg width="32" height="32" viewBox="0 0 32 32" fill="none" xmlns="http://www.w3.org/2000/svg">
<path d="M29.2729 1.77783H2.7271C2.2028 1.77783 1.77777 2.20286 1.77777 2.72717V29.2729C1.77777 29.7972 2.2028 30.2223 2.7271 30.2223H29.2729C29.7972 30.2223 30.2222 29.7972 30.2222 29.2729V2.72717C30.2222 2.20286 29.7972 1.77783 29.2729 1.77783Z" fill="url(#paint0_linear_868_8453)"/>
<g opacity="0.95">
<path d="M10.3787 4.93701H4.44622C4.30876 4.93701 4.19733 5.04844 4.19733 5.1859V10.6757C4.19733 10.8131 4.30876 10.9246 4.44622 10.9246H10.3787C10.5161 10.9246 10.6275 10.8131 10.6275 10.6757V5.1859C10.6275 5.04844 10.5161 4.93701 10.3787 4.93701Z" fill="white"/>
<path d="M18.9671 4.93701H13.0347C12.8972 4.93701 12.7858 5.04844 12.7858 5.1859V10.6757C12.7858 10.8131 12.8972 10.9246 13.0347 10.9246H18.9671C19.1046 10.9246 19.216 10.8131 19.216 10.6757V5.1859C19.216 5.04844 19.1046 4.93701 18.9671 4.93701Z" fill="white"/>
<path d="M27.5555 4.93701H21.6231C21.4856 4.93701 21.3742 5.04844 21.3742 5.1859V10.6757C21.3742 10.8131 21.4856 10.9246 21.6231 10.9246H27.5555C27.693 10.9246 27.8044 10.8131 27.8044 10.6757V5.1859C27.8044 5.04844 27.693 4.93701 27.5555 4.93701Z" fill="white"/>
</g>
<path opacity="0.45" d="M18.8711 12.9424H4.44622C4.30876 12.9424 4.19733 13.0538 4.19733 13.1913V18.681C4.19733 18.8185 4.30876 18.9299 4.44622 18.9299H18.8711C19.0086 18.9299 19.12 18.8185 19.12 18.681V13.1913C19.12 13.0538 19.0086 12.9424 18.8711 12.9424Z" fill="white"/>
<path opacity="0.9" d="M27.5306 12.9424H21.5982C21.4607 12.9424 21.3493 13.0538 21.3493 13.1913V18.681C21.3493 18.8185 21.4607 18.9299 21.5982 18.9299H27.5306C27.6681 18.9299 27.7795 18.8185 27.7795 18.681V13.1913C27.7795 13.0538 27.6681 12.9424 27.5306 12.9424Z" fill="white"/>
<path opacity="0.75" d="M27.3902 21.0737H4.44622C4.30876 21.0737 4.19733 21.1852 4.19733 21.3226V26.8124C4.19733 26.9499 4.30876 27.0613 4.44622 27.0613H27.3902C27.5277 27.0613 27.6391 26.9499 27.6391 26.8124V21.3226C27.6391 21.1852 27.5277 21.0737 27.3902 21.0737Z" fill="white"/>
<defs>
<linearGradient id="paint0_linear_868_8453" x1="16" y1="33.8649" x2="16" y2="1.86316" gradientUnits="userSpaceOnUse">
<stop offset="0.2" stop-color="#0078D4"/>
<stop offset="0.287" stop-color="#1380DA"/>
<stop offset="0.495" stop-color="#3C91E5"/>
<stop offset="0.659" stop-color="#559CEC"/>
<stop offset="0.759" stop-color="#5EA0EF"/>
</linearGradient>
</defs>
</svg>
