<svg width="32" height="32" viewBox="0 0 32 32" fill="none" xmlns="http://www.w3.org/2000/svg">
<g clip-path="url(#clip0_868_8513)">
<path d="M15.7974 22.4957C21.2409 18.5952 21.424 16.3197 21.4489 15.6068C21.4827 14.6112 21.344 12.005 18.7165 11.8005C18.0881 11.749 17.4604 11.9077 16.932 12.2517C16.4036 12.5957 16.0045 13.1055 15.7974 13.701C15.5902 13.1055 15.1911 12.5957 14.6627 12.2517C14.1343 11.9077 13.5066 11.749 12.8782 11.8005C10.2507 12.005 10.112 14.6112 10.1458 15.6068C10.1689 16.3179 10.352 18.5952 15.7974 22.4957Z" fill="url(#paint0_linear_868_8513)"/>
<path d="M22.5564 9.44146C20.9135 7.79198 19.1249 6.29433 17.2124 4.9668C16.8089 5.20857 16.4036 5.46457 16 5.73302C18.0246 7.08883 19.9094 8.64254 21.6267 10.3712C23.3503 12.0885 24.8976 13.974 26.2453 15.9997C26.5191 15.5849 26.7781 15.1701 27.0222 14.7552C25.6952 12.8543 24.2006 11.0759 22.5564 9.44146Z" fill="#B3B3B3"/>
<path d="M10.3733 21.6249C8.64986 19.9083 7.10204 18.024 5.75289 16C5.48089 16.4142 5.21956 16.8267 4.97778 17.2444C6.30457 19.1473 7.79913 20.9274 9.44356 22.5636C11.0786 24.2042 12.8563 25.6963 14.7556 27.0222C15.168 26.7769 15.5828 26.5173 16 26.2436C13.975 24.8957 12.09 23.3484 10.3733 21.6249Z" fill="#B3B3B3"/>
<path d="M27.8418 16C27.584 16.4107 27.3085 16.8231 27.0223 17.2444C29.8898 22.0658 30.7005 26.5724 28.6329 28.64C26.5654 30.7076 22.0551 29.8969 17.2374 27.0311C16.8249 27.3173 16.4107 27.5893 15.9929 27.8471C18.7411 29.7548 21.9534 30.885 25.2907 31.1182C26.0693 31.1585 26.848 31.0422 27.5809 30.7762C28.3137 30.5102 28.9858 30.1 29.5574 29.5698C32.2063 26.9156 31.3565 21.6036 27.8418 16Z" fill="#B3B3B3"/>
<path d="M4.97781 14.7554C2.11025 9.93941 1.29958 5.43275 3.36714 3.36519C3.81855 2.96219 4.34549 2.65285 4.91739 2.45509C5.48929 2.25734 6.09477 2.17511 6.6987 2.21319C8.11067 2.25168 9.50539 2.53376 10.8214 3.04697C12.2004 3.56201 13.5282 4.2048 14.7876 4.96697C15.1917 4.68964 15.5959 4.42415 16 4.17053C14.5095 3.22325 12.9248 2.43324 11.2711 1.81319C7.39381 0.39097 4.25603 0.616748 2.43736 2.43541C-0.206193 5.08075 0.643585 10.3927 4.15825 15.9999C4.41603 15.5874 4.69158 15.175 4.97781 14.7554Z" fill="#B3B3B3"/>
<path d="M6.70222 31.1109C5.92364 31.1511 5.14489 31.0348 4.41204 30.7689C3.67919 30.5029 3.00711 30.0927 2.43555 29.5624C-1.24445 25.8842 1.84 17.0469 9.44355 9.44156C12.6255 6.13162 16.4714 3.53194 20.7289 1.81311C24.6062 0.390889 27.744 0.618444 29.5627 2.43533C33.2391 6.11178 30.16 14.9491 22.5564 22.5544C17.1236 27.9856 11.0613 31.1109 6.70222 31.1109ZM25.3013 2.21311C23.8894 2.2516 22.4946 2.53367 21.1787 3.04689C17.1013 4.7002 13.4191 7.19616 10.3733 10.3713C3.52533 17.2193 0.316444 25.5802 3.36711 28.6309C6.41778 31.6816 14.7787 28.4727 21.6267 21.6247C28.4747 14.7767 31.6836 6.414 28.6329 3.36511C28.1815 2.96211 27.6545 2.65276 27.0826 2.45501C26.5107 2.25726 25.9053 2.17503 25.3013 2.21311Z" fill="#5EA0EF"/>
<path d="M4.97775 14.7607L6.20797 16.6665L5.22309 17.5856L3.7262 15.287L4.97775 14.7607Z" fill="#B3B3B3"/>
<path d="M27.0222 17.2357L25.7173 15.2214L26.7947 14.3823L28.1653 16.5263L27.0222 17.2357Z" fill="#B3B3B3"/>
</g>
<defs>
<linearGradient id="paint0_linear_868_8513" x1="15.7974" y1="22.4957" x2="15.7974" y2="11.7899" gradientUnits="userSpaceOnUse">
<stop stop-color="#1988D9"/>
<stop offset="0.218" stop-color="#218DDC"/>
<stop offset="0.559" stop-color="#379CE5"/>
<stop offset="0.9" stop-color="#54AEF0"/>
</linearGradient>
<clipPath id="clip0_868_8513">
<rect width="32" height="32" fill="white"/>
</clipPath>
</defs>
</svg>
