<svg width="32" height="32" viewBox="0 0 32 32" fill="none" xmlns="http://www.w3.org/2000/svg">
<path d="M0.888916 10.2896H31.1111V27.1393C31.1111 27.4071 31.0048 27.664 30.8154 27.8533C30.626 28.0427 30.3692 28.1491 30.1014 28.1491H1.89869C1.63088 28.1491 1.37404 28.0427 1.18467 27.8533C0.995303 27.664 0.888916 27.4071 0.888916 27.1393V10.2896Z" fill="url(#paint0_linear_868_8500)"/>
<path d="M1.90403 3.8506H30.096C30.2286 3.8506 30.3599 3.87672 30.4825 3.92746C30.605 3.97821 30.7163 4.05259 30.81 4.14636C30.9038 4.24012 30.9782 4.35144 31.0289 4.47395C31.0797 4.59646 31.1058 4.72777 31.1058 4.86038V10.2897H0.888916V4.86038C0.888914 4.72732 0.915209 4.59558 0.966288 4.47272C1.01737 4.34986 1.09222 4.2383 1.18656 4.14447C1.28089 4.05063 1.39284 3.97636 1.51596 3.92593C1.63909 3.8755 1.77097 3.8499 1.90403 3.8506Z" fill="#0078D4"/>
<path d="M5.02171 14.1843L5.67823 13.5259C5.73383 13.4702 5.8093 13.4388 5.88804 13.4387C5.96678 13.4386 6.04234 13.4697 6.09809 13.5253L10.9548 18.3683C11.0101 18.4235 11.0541 18.4891 11.0841 18.5613C11.1142 18.6335 11.1297 18.7109 11.1298 18.7892C11.1299 18.8674 11.1146 18.9448 11.0848 19.0171C11.0549 19.0894 11.0112 19.1551 10.9559 19.2105L10.3007 19.8676L5.02356 14.6054C4.9678 14.5498 4.93642 14.4744 4.93631 14.3956C4.9362 14.3169 4.96611 14.2401 5.02171 14.1843Z" fill="#F2F2F2"/>
<path d="M5.77563 24.006L5.11725 23.3495C5.06149 23.2939 5.0301 23.2184 5.02999 23.1397C5.02988 23.061 5.06105 22.9854 5.11665 22.9296L10.3023 17.7293L10.9594 18.3846C11.0713 18.4961 11.1342 18.6475 11.1345 18.8055C11.1347 18.9634 11.0721 19.115 10.9606 19.2268L6.19047 24.0105C6.13487 24.0662 6.0594 24.0976 5.98066 24.0977C5.90192 24.0978 5.82636 24.0667 5.77061 24.0111L5.77563 24.006Z" fill="#E6E6E6"/>
<path d="M20.8018 22.4712H13.3547C13.069 22.4712 12.8373 22.7028 12.8373 22.9885V23.7512C12.8373 24.0369 13.069 24.2685 13.3547 24.2685H20.8018C21.0875 24.2685 21.3191 24.0369 21.3191 23.7512V22.9885C21.3191 22.7028 21.0875 22.4712 20.8018 22.4712Z" fill="#F2F2F2"/>
<defs>
<linearGradient id="paint0_linear_868_8500" x1="16" y1="28.1491" x2="16" y2="10.2896" gradientUnits="userSpaceOnUse">
<stop stop-color="#32BEDD"/>
<stop offset="0.175" stop-color="#32CAEA"/>
<stop offset="0.41" stop-color="#32D2F2"/>
<stop offset="0.775" stop-color="#32D4F5"/>
</linearGradient>
</defs>
</svg>
