<svg width="32" height="32" viewBox="0 0 32 32" fill="none" xmlns="http://www.w3.org/2000/svg">
<g clip-path="url(#clip0_868_8452)">
<path d="M14.3822 17.7953H6.15822C6.04978 17.8072 5.94094 17.7769 5.85423 17.7107C5.76753 17.6445 5.7096 17.5475 5.69244 17.4398C5.69297 17.3867 5.70705 17.3347 5.73333 17.2887L15.6 0.213099C15.6467 0.144202 15.7103 0.08842 15.7846 0.0510737C15.859 0.0137275 15.9417 -0.00393707 16.0249 -0.000234686H25.7493C25.8579 -0.0125387 25.9669 0.0175949 26.0537 0.0838626C26.1405 0.15013 26.1984 0.247399 26.2151 0.355321C26.2151 0.433553 26.1859 0.508976 26.1333 0.566876L14.5529 13.9269H25.8418C25.9502 13.915 26.0591 13.9453 26.1458 14.0115C26.2325 14.0777 26.2904 14.1747 26.3076 14.2824C26.3062 14.3292 26.2948 14.3751 26.2743 14.4171C26.2537 14.4591 26.2245 14.4962 26.1884 14.526L7.42222 31.6229C7.24444 31.7135 6 32.622 6.608 31.2424L14.3822 17.7953Z" fill="url(#paint0_radial_868_8452)"/>
</g>
<defs>
<radialGradient id="paint0_radial_868_8452" cx="0" cy="0" r="1" gradientUnits="userSpaceOnUse" gradientTransform="translate(16.0027 16.0661) scale(16.2476 12.6549)">
<stop offset="0.196" stop-color="#FFD70F"/>
<stop offset="0.438" stop-color="#FFCB12"/>
<stop offset="0.873" stop-color="#FEAC19"/>
<stop offset="1" stop-color="#FEA11B"/>
</radialGradient>
<clipPath id="clip0_868_8452">
<rect width="32" height="32" fill="white"/>
</clipPath>
</defs>
</svg>
