<svg width="32" height="32" viewBox="0 0 32 32" fill="none" xmlns="http://www.w3.org/2000/svg">
<g clip-path="url(#clip0_868_8454)">
<path d="M24.8373 14.3271C24.6959 14.3271 24.5602 14.2709 24.4602 14.1709C24.3602 14.0709 24.304 13.9352 24.304 13.7938C24.3021 12.1776 23.6593 10.6281 22.5165 9.48533C21.3736 8.34252 19.8242 7.69966 18.208 7.69778C18.138 7.69778 18.0686 7.68398 18.0039 7.65718C17.9392 7.63038 17.8804 7.59109 17.8309 7.54157C17.7814 7.49204 17.7421 7.43325 17.7153 7.36854C17.6885 7.30384 17.6747 7.23448 17.6747 7.16444C17.6747 7.09441 17.6885 7.02505 17.7153 6.96035C17.7421 6.89564 17.7814 6.83685 17.8309 6.78732C17.8804 6.7378 17.9392 6.69851 18.0039 6.67171C18.0686 6.64491 18.138 6.63111 18.208 6.63111C19.8243 6.62923 21.3739 5.98607 22.5165 4.84282C23.659 3.69957 24.3013 2.14966 24.3022 0.533333C24.3022 0.391885 24.3584 0.256229 24.4584 0.15621C24.5585 0.0561903 24.6941 0 24.8356 0C24.977 0 25.1127 0.0561903 25.2127 0.15621C25.3127 0.256229 25.3689 0.391885 25.3689 0.533333C25.3708 2.14982 26.0139 3.69954 27.1571 4.84241C28.3003 5.98527 29.8502 6.62792 31.4667 6.62933C31.6081 6.62933 31.7438 6.68552 31.8438 6.78554C31.9438 6.88556 32 7.02122 32 7.16267C32 7.30412 31.9438 7.43977 31.8438 7.53979C31.7438 7.63981 31.6081 7.696 31.4667 7.696C29.851 7.69788 28.302 8.34055 27.1595 9.48304C26.017 10.6255 25.3743 12.1745 25.3725 13.7902C25.3725 13.8603 25.3587 13.9296 25.3319 13.9943C25.3051 14.059 25.2658 14.1178 25.2162 14.1673C25.1667 14.2169 25.1079 14.2562 25.0432 14.283C24.9785 14.3098 24.9092 14.3236 24.8391 14.3236L24.8373 14.3271Z" fill="#5E9624"/>
<path d="M13.2604 0H1.06667C0.477563 0 0 0.477563 0 1.06667V13.2604C0 13.8495 0.477563 14.3271 1.06667 14.3271H13.2604C13.8495 14.3271 14.3271 13.8495 14.3271 13.2604V1.06667C14.3271 0.477563 13.8495 0 13.2604 0Z" fill="url(#paint0_linear_868_8454)"/>
<path d="M13.2604 17.6729H1.06667C0.477563 17.6729 0 18.1504 0 18.7395V30.9333C0 31.5224 0.477563 32 1.06667 32H13.2604C13.8495 32 14.3271 31.5224 14.3271 30.9333V18.7395C14.3271 18.1504 13.8495 17.6729 13.2604 17.6729Z" fill="url(#paint1_linear_868_8454)"/>
<path d="M30.9333 17.6729H18.7395C18.1504 17.6729 17.6729 18.1504 17.6729 18.7395V30.9333C17.6729 31.5224 18.1504 32 18.7395 32H30.9333C31.5224 32 32 31.5224 32 30.9333V18.7395C32 18.1504 31.5224 17.6729 30.9333 17.6729Z" fill="url(#paint2_linear_868_8454)"/>
<path d="M11.584 12.654H2.74311C2.46021 12.654 2.1889 12.5416 1.98886 12.3416C1.78883 12.1416 1.67645 11.8702 1.67645 11.5873V2.73757C1.67645 2.45467 1.78883 2.18336 1.98886 1.98332C2.1889 1.78328 2.46021 1.6709 2.74311 1.6709H11.584C11.8669 1.6709 12.1382 1.78328 12.3382 1.98332C12.5383 2.18336 12.6507 2.45467 12.6507 2.73757V11.5838C12.6507 11.8667 12.5383 12.138 12.3382 12.338C12.1382 12.5381 11.8669 12.6505 11.584 12.6505V12.654ZM12.6507 29.2567V20.4158C12.6507 20.1329 12.5383 19.8616 12.3382 19.6615C12.1382 19.4615 11.8669 19.3491 11.584 19.3491H2.73778C2.45488 19.3491 2.18357 19.4615 1.98353 19.6615C1.78349 19.8616 1.67111 20.1329 1.67111 20.4158V29.2602C1.67111 29.5431 1.78349 29.8144 1.98353 30.0145C2.18357 30.2145 2.45488 30.3269 2.73778 30.3269H11.584C11.8669 30.3269 12.1382 30.2145 12.3382 30.0145C12.5383 29.8144 12.6507 29.5431 12.6507 29.2602V29.2567ZM30.3253 29.2567V20.4158C30.3253 20.1329 30.213 19.8616 30.0129 19.6615C29.8129 19.4615 29.5416 19.3491 29.2587 19.3491H20.4124C20.1295 19.3491 19.8582 19.4615 19.6582 19.6615C19.4582 19.8616 19.3458 20.1329 19.3458 20.4158V29.2602C19.3458 29.5431 19.4582 29.8144 19.6582 30.0145C19.8582 30.2145 20.1295 30.3269 20.4124 30.3269H29.2533C29.3942 30.3281 29.5338 30.3013 29.6643 30.2483C29.7947 30.1952 29.9133 30.1168 30.0133 30.0176C30.1133 29.9185 30.1927 29.8005 30.2469 29.6705C30.301 29.5405 30.3289 29.4011 30.3289 29.2602V29.2478L30.3253 29.2567Z" fill="#86D633"/>
</g>
<defs>
<linearGradient id="paint0_linear_868_8454" x1="7.16444" y1="0" x2="7.16444" y2="14.3271" gradientUnits="userSpaceOnUse">
<stop stop-color="#86D633"/>
<stop offset="1" stop-color="#76BC2D"/>
</linearGradient>
<linearGradient id="paint1_linear_868_8454" x1="7.16444" y1="17.8826" x2="7.16444" y2="3.55552" gradientUnits="userSpaceOnUse">
<stop stop-color="#86D633"/>
<stop offset="1" stop-color="#76BC2D"/>
</linearGradient>
<linearGradient id="paint2_linear_868_8454" x1="24.8355" y1="17.8826" x2="24.8355" y2="3.55552" gradientUnits="userSpaceOnUse">
<stop stop-color="#86D633"/>
<stop offset="1" stop-color="#76BC2D"/>
</linearGradient>
<clipPath id="clip0_868_8454">
<rect width="32" height="32" fill="white"/>
</clipPath>
</defs>
</svg>
