<svg width="32" height="32" viewBox="0 0 32 32" fill="none" xmlns="http://www.w3.org/2000/svg">
<g clip-path="url(#clip0_868_8451)">
<path d="M23.1502 29.8024C19.4347 29.3047 19.4969 26.9153 19.5147 23.0469H12.5529C12.5707 26.9207 12.6329 29.31 8.91556 29.8024C8.47002 29.8346 8.05016 30.0231 7.7301 30.3348C7.41003 30.6464 7.21033 31.061 7.16623 31.5055H24.9102C24.8637 31.0601 24.6619 30.6453 24.34 30.3338C24.0182 30.0224 23.5969 29.8343 23.1502 29.8024Z" fill="#1F56A3"/>
<path d="M30.9156 0.494141H1.08444C0.485522 0.494141 0 0.979663 0 1.57859V22.071C0 22.67 0.485522 23.1555 1.08444 23.1555H30.9156C31.5145 23.1555 32 22.67 32 22.071V1.57859C32 0.979663 31.5145 0.494141 30.9156 0.494141Z" fill="#1490DF"/>
<path d="M29.5698 2.24902H2.38579C2.08633 2.24902 1.84357 2.49178 1.84357 2.79125V20.5086C1.84357 20.808 2.08633 21.0508 2.38579 21.0508H29.5698C29.8692 21.0508 30.112 20.808 30.112 20.5086V2.79125C30.112 2.49178 29.8692 2.24902 29.5698 2.24902Z" fill="white"/>
<path d="M21.4738 8.27371C21.4272 8.27402 21.3815 8.28628 21.3411 8.30931C21.3006 8.33235 21.2667 8.36539 21.2427 8.40526L19.5893 11.1999C19.5653 11.2409 19.5307 11.2747 19.4892 11.2978C19.4477 11.3209 19.4008 11.3325 19.3533 11.3314C19.3058 11.3303 19.2595 11.3166 19.2191 11.2916C19.1787 11.2666 19.1457 11.2313 19.1236 11.1893L16.592 6.36615C16.5674 6.32004 16.5299 6.28212 16.484 6.25704C16.4381 6.23196 16.386 6.22082 16.3339 6.22497C16.2818 6.22912 16.232 6.2484 16.1907 6.28042C16.1494 6.31245 16.1183 6.35584 16.1013 6.40526L13.7227 13.4666C13.705 13.5176 13.6723 13.5621 13.6289 13.5942C13.5856 13.6264 13.5335 13.6447 13.4796 13.6468C13.4256 13.6489 13.3723 13.6347 13.3266 13.6061C13.2808 13.5774 13.2448 13.5356 13.2231 13.4862L11.1662 8.71993C11.1467 8.6737 11.1144 8.63393 11.0733 8.6052C11.0321 8.57648 10.9836 8.55996 10.9335 8.55754C10.8833 8.55513 10.8335 8.56692 10.7898 8.59156C10.7461 8.61619 10.7102 8.65268 10.6862 8.69682L7.85423 13.8524C7.83121 13.8945 7.79726 13.9295 7.75596 13.954C7.71466 13.9784 7.66754 13.9912 7.61957 13.991H1.84357V15.6941H8.62579C8.67376 15.6943 8.72088 15.6815 8.76218 15.6571C8.80348 15.6327 8.83743 15.5976 8.86046 15.5555L10.5013 12.5724C10.5257 12.5288 10.5618 12.4929 10.6054 12.4687C10.6491 12.4445 10.6986 12.433 10.7485 12.4354C10.7984 12.4378 10.8466 12.454 10.8877 12.4823C10.9288 12.5106 10.9613 12.5498 10.9813 12.5955L13.4187 18.2453C13.4399 18.2949 13.4757 18.3369 13.5214 18.3658C13.567 18.3946 13.6203 18.4089 13.6743 18.4068C13.7282 18.4047 13.7803 18.3862 13.8235 18.3539C13.8668 18.3216 13.8992 18.2769 13.9165 18.2257L16.4445 10.7217C16.4611 10.6722 16.4919 10.6286 16.5331 10.5965C16.5742 10.5643 16.6239 10.5449 16.676 10.5408C16.7281 10.5366 16.7802 10.5478 16.826 10.573C16.8717 10.5982 16.9091 10.6363 16.9333 10.6826L19.0347 14.6826C19.0569 14.7247 19.09 14.7601 19.1304 14.7852C19.1709 14.8103 19.2172 14.8241 19.2648 14.8254C19.3124 14.8267 19.3595 14.8153 19.4012 14.7924C19.4429 14.7695 19.4778 14.7359 19.5022 14.695L22.2222 10.1084C22.2456 10.0683 22.2791 10.035 22.3193 10.0119C22.3596 9.98885 22.4052 9.97674 22.4516 9.97682H30.1209V8.27371H21.4738Z" fill="#76BC2D"/>
</g>
<defs>
<clipPath id="clip0_868_8451">
<rect width="32" height="32" fill="white"/>
</clipPath>
</defs>
</svg>
