<svg width="32" height="32" viewBox="0 0 32 32" fill="none" xmlns="http://www.w3.org/2000/svg">
<path d="M16.0178 9.1465C9.75824 9.1305 4.6898 7.26917 4.69513 4.98828L4.63824 26.9527C4.63824 29.2141 9.61602 31.063 15.8062 31.1092H15.9609C22.2205 31.1252 27.2996 29.2905 27.3049 27.0096L27.3618 5.04517C27.3565 7.32784 22.2774 9.1625 16.0178 9.1465Z" fill="url(#paint0_linear_868_8492)"/>
<path d="M27.3618 5.047C27.3618 7.32611 22.2774 9.16255 16.0178 9.14655C9.75824 9.13055 4.6898 7.26922 4.69513 4.98833C4.70047 2.70744 9.7778 0.872776 16.0391 0.888776C22.3005 0.904776 27.3671 2.76611 27.3618 5.047Z" fill="#E6E6E6"/>
<path d="M24.7111 4.7058C24.7111 6.15647 20.8142 7.32091 16.0178 7.30847C11.2213 7.29603 7.3369 6.11203 7.34046 4.66136C7.34401 3.21069 11.2373 2.04625 16.0356 2.05869C20.8338 2.07114 24.72 3.25514 24.7165 4.7058" fill="#50E6FF"/>
<path d="M16.0267 5.28886C13.6937 5.22793 11.3669 5.55843 9.14313 6.26664C11.3587 7.01019 13.6867 7.3627 16.0231 7.30841C18.3586 7.37431 20.6878 7.03384 22.9067 6.30219C20.6862 5.58203 18.3605 5.2395 16.0267 5.28886Z" fill="#198AB3"/>
<path d="M14.7916 23.1694L13.7206 24.2405C13.6332 24.3278 13.5148 24.3769 13.3912 24.3769C13.2677 24.3769 13.1492 24.3278 13.0619 24.2405L8.80667 19.9853C8.76288 19.9421 8.72805 19.8907 8.70421 19.8341C8.68036 19.7774 8.66796 19.7166 8.66773 19.6552C8.6675 19.5937 8.67943 19.5328 8.70285 19.476C8.72626 19.4191 8.76069 19.3675 8.80416 19.324L9.54584 18.5824C9.63319 18.495 9.75166 18.4459 9.87519 18.4459C9.99872 18.4459 10.1172 18.495 10.2045 18.5824L14.7916 23.1694Z" fill="white"/>
<path d="M13.0776 24.2473L12.0065 23.1763L21.7929 13.3899C21.8802 13.3026 21.9987 13.2535 22.1222 13.2535C22.2458 13.2535 22.3643 13.3026 22.4516 13.3899L23.1933 14.1316C23.2806 14.2189 23.3297 14.3374 23.3297 14.4609C23.3297 14.5845 23.2806 14.7029 23.1933 14.7903L13.7375 24.246C13.6943 24.2896 13.643 24.3241 13.5864 24.3478C13.5298 24.3714 13.4691 24.3836 13.4078 24.3837C13.3465 24.3838 13.2858 24.3719 13.2291 24.3484C13.1724 24.325 13.1209 24.2907 13.0776 24.2473Z" fill="#F2F2F2"/>
<defs>
<linearGradient id="paint0_linear_868_8492" x1="4.66264" y1="18.0356" x2="27.3292" y2="18.0938" gradientUnits="userSpaceOnUse">
<stop stop-color="#005BA1"/>
<stop offset="0.068" stop-color="#0060A9"/>
<stop offset="0.356" stop-color="#0071C8"/>
<stop offset="0.517" stop-color="#0078D4"/>
<stop offset="0.642" stop-color="#0074CD"/>
<stop offset="0.82" stop-color="#006ABB"/>
<stop offset="1" stop-color="#005BA1"/>
</linearGradient>
</defs>
</svg>
