<svg width="32" height="32" viewBox="0 0 32 32" fill="none" xmlns="http://www.w3.org/2000/svg">
<g clip-path="url(#clip0_868_8473)">
<path d="M7.23558 18.5604C5.69058 17.3844 3.83833 16.6806 1.90225 16.5337C1.81334 16.5409 1.72413 16.524 1.64396 16.4849C1.56379 16.4458 1.49561 16.3858 1.44655 16.3113C1.39749 16.2368 1.36935 16.1505 1.36507 16.0614C1.3608 15.9723 1.38055 15.8837 1.42225 15.8048C2.0881 14.6103 3.00373 13.5734 4.1067 12.7648C5.19429 11.9051 6.47245 11.3191 7.83367 11.0561C9.19489 10.7931 10.5993 10.8609 11.9289 11.2537C12.3252 11.3369 12.7003 11.5002 13.0311 11.7337L7.23558 18.5604Z" fill="#F78D1E"/>
<path d="M13.6889 24.9958L20.5156 19.2002C20.7451 19.5398 20.9079 19.9198 20.9956 20.3202C21.38 21.6518 21.4419 23.0558 21.176 24.416C20.9102 25.7762 20.3242 27.0536 19.4667 28.1424C18.6582 29.2315 17.6204 30.1297 16.4267 30.7735C16.3422 30.8214 16.2455 30.8435 16.1485 30.8371C16.0516 30.8307 15.9587 30.796 15.8812 30.7374C15.8037 30.6789 15.745 30.5989 15.7125 30.5074C15.6799 30.4158 15.6748 30.3168 15.6978 30.2224C15.5295 28.3267 14.8336 26.5161 13.6889 24.9958Z" fill="#F78D1E"/>
<path d="M30.8978 0.480242C21.1043 3.42306 12.6743 9.74868 7.11115 18.3291L13.6711 24.8891C22.2516 19.3259 28.5772 10.896 31.52 1.10246C31.5408 1.0166 31.5391 0.926837 31.5152 0.841797C31.4913 0.756757 31.4459 0.679288 31.3835 0.616823C31.321 0.554358 31.2435 0.508991 31.1585 0.485074C31.0734 0.461158 30.9837 0.459494 30.8978 0.480242Z" fill="#FCD116"/>
<path d="M30.8978 0.480242C21.1043 3.42306 12.6743 9.74868 7.11115 18.3291L13.6711 24.8891C22.2516 19.3259 28.5772 10.896 31.52 1.10246C31.5408 1.0166 31.5391 0.926837 31.5152 0.841797C31.4913 0.756757 31.4459 0.679288 31.3835 0.616823C31.321 0.554358 31.2435 0.508991 31.1585 0.485074C31.0734 0.461158 30.9837 0.459494 30.8978 0.480242Z" fill="url(#paint0_linear_868_8473)"/>
<path d="M30.8978 0.480242C28.1498 1.27219 25.4969 2.36315 22.9867 3.73358L28.32 9.06691C29.6757 6.53753 30.7488 3.86664 31.52 1.10246C31.5408 1.0166 31.5391 0.926837 31.5152 0.841797C31.4913 0.756757 31.4459 0.679288 31.3834 0.616823C31.321 0.554358 31.2435 0.508991 31.1585 0.485074C31.0734 0.461158 30.9837 0.459494 30.8978 0.480242Z" fill="#0078D4"/>
<path d="M0.462248 31.0047C0.664545 28.5541 1.35738 26.1692 2.49957 23.9917C3.64177 21.8142 5.21002 19.8885 7.11114 18.3291L13.6711 24.8891C12.1117 26.7902 10.186 28.3585 8.00851 29.5007C5.83101 30.6429 3.44613 31.3357 0.995581 31.538C0.924184 31.5433 0.852481 31.5331 0.785364 31.5082C0.718248 31.4833 0.657298 31.4442 0.606672 31.3936C0.556047 31.3429 0.516938 31.282 0.492014 31.2149C0.46709 31.1478 0.456937 31.0761 0.462248 31.0047Z" fill="url(#paint1_linear_868_8473)"/>
<path d="M20.3022 15.0934C22.1775 15.0934 23.6978 13.5731 23.6978 11.6978C23.6978 9.82249 22.1775 8.30225 20.3022 8.30225C18.4269 8.30225 16.9067 9.82249 16.9067 11.6978C16.9067 13.5731 18.4269 15.0934 20.3022 15.0934Z" fill="#DFA500"/>
<path d="M20.3022 14.2402C21.7063 14.2402 22.8445 13.102 22.8445 11.698C22.8445 10.294 21.7063 9.15576 20.3022 9.15576C18.8982 9.15576 17.76 10.294 17.76 11.698C17.76 13.102 18.8982 14.2402 20.3022 14.2402Z" fill="#F2F2F2"/>
<path d="M9.17334 24.1601C8.4832 24.6984 7.67118 25.0587 6.8089 25.209C6.97041 24.3479 7.32274 23.5339 7.84001 22.8268L14.2222 16.4268L15.5556 17.7601L9.17334 24.1601Z" fill="#D15900"/>
</g>
<defs>
<linearGradient id="paint0_linear_868_8473" x1="15.0578" y1="5.13802" x2="26.5956" y2="17.1025" gradientUnits="userSpaceOnUse">
<stop stop-color="#DFA500"/>
<stop offset="0.28" stop-color="#EFB700"/>
<stop offset="0.51" stop-color="#FFCA00"/>
<stop offset="1" stop-color="#E1A800"/>
</linearGradient>
<linearGradient id="paint1_linear_868_8473" x1="12.1956" y1="19.8935" x2="-1.75997" y2="33.4402" gradientUnits="userSpaceOnUse">
<stop stop-color="#FAA21D"/>
<stop offset="0.24" stop-color="#F99D1A"/>
<stop offset="0.51" stop-color="#F69012"/>
<stop offset="0.8" stop-color="#F17905"/>
<stop offset="0.88" stop-color="#EF7100"/>
</linearGradient>
<clipPath id="clip0_868_8473">
<rect width="32" height="32" fill="white"/>
</clipPath>
</defs>
</svg>
