<svg width="32" height="32" viewBox="0 0 32 32" fill="none" xmlns="http://www.w3.org/2000/svg">
<path d="M15.7866 31.271C24.1323 31.271 30.8978 24.5056 30.8978 16.1599C30.8978 7.8143 24.1323 1.04883 15.7866 1.04883C7.44101 1.04883 0.675537 7.8143 0.675537 16.1599C0.675537 24.5056 7.44101 31.271 15.7866 31.271Z" fill="url(#paint0_radial_868_8526)"/>
<path d="M15.8578 29.3155C23.1234 29.3155 29.0133 23.4256 29.0133 16.16C29.0133 8.89434 23.1234 3.00439 15.8578 3.00439C8.59215 3.00439 2.70221 8.89434 2.70221 16.16C2.70221 23.4256 8.59215 29.3155 15.8578 29.3155Z" fill="white"/>
<path d="M23.5465 7.91083L21.95 9.50732L22.4654 10.0227L24.0619 8.42624L23.5465 7.91083Z" fill="#7A7A7A"/>
<path d="M27.0222 15.7866H24.7645V16.5155H27.0222V15.7866Z" fill="#7A7A7A"/>
<path d="M22.3614 22.1623L21.846 22.6777L23.4425 24.2742L23.9579 23.7588L22.3614 22.1623Z" fill="#7A7A7A"/>
<path d="M16.2133 25.0312H15.4844V27.289H16.2133V25.0312Z" fill="#7A7A7A"/>
<path d="M8.07278 7.8386L7.55737 8.354L9.15386 9.95049L9.66927 9.43509L8.07278 7.8386Z" fill="#7A7A7A"/>
<path d="M9.26574 22.2175L7.66925 23.814L8.18465 24.3294L9.78114 22.7329L9.26574 22.2175Z" fill="#7A7A7A"/>
<path d="M6.7911 15.7866H4.53333V16.5155H6.7911V15.7866Z" fill="#7A7A7A"/>
<path d="M16.0356 5.03125H15.8578C15.3472 5.03125 14.9333 5.44514 14.9333 5.95569V15.6979C14.9333 16.2085 15.3472 16.6224 15.8578 16.6224H16.0356C16.5461 16.6224 16.96 16.2085 16.96 15.6979V5.95569C16.96 5.44514 16.5461 5.03125 16.0356 5.03125Z" fill="#7A7A7A"/>
<path d="M21.1566 21.6114L21.2824 21.4857C21.6434 21.1247 21.6434 20.5394 21.2824 20.1783L17.4608 16.3568C17.0998 15.9958 16.5145 15.9958 16.1535 16.3568L16.0278 16.4825C15.6667 16.8436 15.6667 17.4289 16.0278 17.7899L19.8493 21.6114C20.2103 21.9724 20.7956 21.9724 21.1566 21.6114Z" fill="#7A7A7A"/>
<path d="M15.8578 18.2755C17.036 18.2755 17.9911 17.3203 17.9911 16.1421C17.9911 14.9639 17.036 14.0088 15.8578 14.0088C14.6796 14.0088 13.7244 14.9639 13.7244 16.1421C13.7244 17.3203 14.6796 18.2755 15.8578 18.2755Z" fill="url(#paint1_radial_868_8526)"/>
<defs>
<radialGradient id="paint0_radial_868_8526" cx="0" cy="0" r="1" gradientUnits="userSpaceOnUse" gradientTransform="translate(15.8631 16.0085) scale(15.04)">
<stop offset="0.18" stop-color="#5EA0EF"/>
<stop offset="0.56" stop-color="#5C9FEE"/>
<stop offset="0.69" stop-color="#559CED"/>
<stop offset="0.78" stop-color="#4A97E9"/>
<stop offset="0.86" stop-color="#3990E4"/>
<stop offset="0.93" stop-color="#2387DE"/>
<stop offset="0.99" stop-color="#087BD6"/>
<stop offset="1" stop-color="#0078D4"/>
</radialGradient>
<radialGradient id="paint1_radial_868_8526" cx="0" cy="0" r="1" gradientUnits="userSpaceOnUse" gradientTransform="translate(15.8937 16.0888) scale(2.1056)">
<stop stop-color="#7F7F7F"/>
<stop offset="1" stop-color="#5E5E5E"/>
</radialGradient>
</defs>
</svg>
