<svg width="32" height="32" viewBox="0 0 32 32" fill="none" xmlns="http://www.w3.org/2000/svg">
<path d="M14.9689 25.0133H13.7245C13.6573 25.0125 13.5907 25.0263 13.5295 25.0539C13.4682 25.0814 13.4136 25.122 13.3696 25.1727C13.3256 25.2235 13.2932 25.2832 13.2747 25.3478C13.2561 25.4124 13.2519 25.4802 13.2622 25.5466C13.5289 28.3199 11.8222 28.8533 8.97779 28.9066C8.8552 28.9066 8.73763 28.9553 8.65095 29.042C8.56426 29.1287 8.51556 29.2462 8.51556 29.3688V30.2222C8.51548 30.3464 8.5636 30.4659 8.64981 30.5554C8.73602 30.645 8.85359 30.6976 8.97779 30.7022H19.2889C19.4131 30.6976 19.5307 30.645 19.6169 30.5554C19.7031 30.4659 19.7512 30.3464 19.7511 30.2222V29.3866C19.7511 29.264 19.7024 29.1464 19.6157 29.0598C19.5291 28.9731 19.4115 28.9244 19.2889 28.9244C16.48 28.9244 15.1289 28.3377 15.4311 25.5644C15.4444 25.4967 15.4424 25.4269 15.4252 25.3601C15.4079 25.2933 15.376 25.2312 15.3317 25.1784C15.2874 25.1255 15.2318 25.0833 15.169 25.0547C15.1062 25.0261 15.0379 25.012 14.9689 25.0133Z" fill="#EF7100"/>
<path d="M15.4845 19.5558C15.6279 19.3962 15.8036 19.2689 16 19.1825C16.1626 19.1116 16.3382 19.0753 16.5156 19.0758C16.6986 19.0767 16.8797 19.1129 17.0489 19.1825C17.1913 19.2876 17.3171 19.4135 17.4223 19.5558L15.2711 17.3336C15.1421 17.2092 15.0395 17.0601 14.9693 16.8951C14.8992 16.7302 14.8631 16.5528 14.8631 16.3736C14.8631 16.1944 14.8992 16.017 14.9693 15.852C15.0395 15.6871 15.1421 15.538 15.2711 15.4136C15.3942 15.2827 15.543 15.1788 15.7082 15.1084C15.8735 15.038 16.0515 15.0027 16.2311 15.0047C16.4103 15.0058 16.5874 15.0425 16.7522 15.1127C16.917 15.1829 17.0662 15.2852 17.1911 15.4136L17.7778 16.0003L18.2223 16.3914L19.2711 17.458C19.5272 17.7099 19.872 17.8511 20.2311 17.8511C20.5903 17.8511 20.9351 17.7099 21.1911 17.458C21.3207 17.3321 21.4237 17.1815 21.494 17.0151C21.5643 16.8486 21.6006 16.6698 21.6006 16.4891C21.6006 16.3085 21.5643 16.1296 21.494 15.9632C21.4237 15.7968 21.3207 15.6462 21.1911 15.5203L20.1423 14.4714L19.5556 13.7958L16.2667 10.6669C16.1377 10.5425 16.035 10.3934 15.9649 10.2285C15.8948 10.0635 15.8587 9.88614 15.8587 9.70692C15.8587 9.52769 15.8948 9.35031 15.9649 9.18536C16.035 9.02042 16.1377 8.8713 16.2667 8.74692C16.3897 8.61604 16.5385 8.51212 16.7038 8.44174C16.869 8.37136 17.0471 8.33604 17.2267 8.33803C17.4058 8.33914 17.583 8.37586 17.7478 8.44606C17.9126 8.51626 18.0618 8.61853 18.1867 8.74692L19.5911 10.1514C19.4029 9.96001 19.275 9.71751 19.2235 9.45405C19.1719 9.19058 19.199 8.91778 19.3013 8.66958C19.4036 8.42138 19.5766 8.20875 19.7989 8.05813C20.0211 7.90751 20.2827 7.82556 20.5511 7.82247C20.9093 7.82566 21.2527 7.96557 21.5111 8.21358L25.0667 11.858C24.9632 9.22847 23.9193 6.72341 22.1249 4.79848C20.3305 2.87356 17.9048 1.65667 15.2889 1.36914L16.9245 3.0047C17.2379 3.32981 17.4159 3.76202 17.4223 4.21358C17.4223 4.68508 17.235 5.13727 16.9016 5.47066C16.5682 5.80406 16.116 5.99136 15.6445 5.99136C15.4186 5.99159 15.195 5.94602 14.9872 5.85741C14.7794 5.7688 14.5918 5.63898 14.4356 5.47581L13.3156 4.37359C13.0663 4.16397 12.7643 4.02684 12.4424 3.97717C12.1206 3.92751 11.7912 3.96721 11.4904 4.09195C11.1896 4.21669 10.9288 4.42167 10.7365 4.68452C10.5442 4.94737 10.4278 5.25799 10.4 5.58247C10.3965 5.80723 10.4388 6.03036 10.5244 6.23821C10.6099 6.44606 10.737 6.63428 10.8978 6.79136L13.1378 8.88914C13.301 9.04534 13.4308 9.233 13.5194 9.44078C13.608 9.64856 13.6536 9.87214 13.6534 10.098C13.6557 10.3242 13.6111 10.5485 13.5223 10.7565C13.4336 10.9646 13.3027 11.152 13.1378 11.3069C12.8155 11.6269 12.3829 11.8113 11.9289 11.8225C11.4639 11.8395 11.0107 11.6736 10.6667 11.3603L8.30225 8.88914C8.44451 9.26119 8.44451 9.67265 8.30225 10.0447C8.18813 10.4226 7.95146 10.7518 7.62957 10.9803C7.30769 11.2089 6.91888 11.3238 6.52447 11.3069C6.12271 11.2669 5.74652 11.0914 5.45781 10.8091L7.23558 12.5869C7.39638 12.744 7.52345 12.9322 7.60904 13.1401C7.69462 13.3479 7.73693 13.5711 7.73336 13.7958C7.73391 14.021 7.69168 14.2442 7.60892 14.4536C7.42937 14.868 7.09885 15.1985 6.68447 15.378C6.47507 15.4608 6.25186 15.503 6.0267 15.5025C5.80129 15.5058 5.57754 15.4635 5.36892 15.378C5.15975 15.2961 4.97148 15.1686 4.81781 15.0047L3.18225 13.3691C3.3331 14.9642 3.83096 16.5069 4.64096 17.8892C5.45095 19.2715 6.55347 20.46 7.87123 21.3712C9.18898 22.2825 10.6901 22.8945 12.2693 23.1644C13.8486 23.4343 15.4678 23.3555 17.0134 22.9336L15.4845 21.3336C15.2326 21.0775 15.0914 20.7328 15.0914 20.3736C15.0914 20.0144 15.2326 19.6696 15.4845 19.4136V19.5558Z" fill="url(#paint0_radial_868_8509)"/>
<path d="M25.1378 11.7868L21.5822 8.23126C21.3238 7.98325 20.9804 7.84334 20.6222 7.84015C20.4443 7.83894 20.268 7.87286 20.1032 7.93998C19.9385 8.0071 19.7886 8.10609 19.6622 8.23126C19.5327 8.35718 19.4297 8.50781 19.3594 8.67423C19.289 8.84065 19.2528 9.01948 19.2528 9.20015C19.2528 9.38082 19.289 9.55966 19.3594 9.72608C19.4297 9.8925 19.5327 10.0431 19.6622 10.169L18.2578 8.7646C18.1329 8.63621 17.9837 8.53394 17.8188 8.46374C17.654 8.39354 17.4769 8.35682 17.2978 8.35571C17.1182 8.35372 16.9401 8.38904 16.7749 8.45942C16.6096 8.5298 16.4608 8.63372 16.3378 8.7646C16.2067 8.88391 16.1007 9.02815 16.0261 9.1889C15.9514 9.34965 15.9095 9.52367 15.9029 9.70078C15.8963 9.8779 15.9251 10.0546 15.9875 10.2204C16.05 10.3863 16.1449 10.5381 16.2667 10.6668L19.5556 13.7957L20.2133 14.4535L21.2622 15.5024C21.3918 15.6283 21.4948 15.7789 21.5651 15.9453C21.6354 16.1118 21.6717 16.2906 21.6717 16.4713C21.6717 16.6519 21.6354 16.8308 21.5651 16.9972C21.4948 17.1636 21.3918 17.3142 21.2622 17.4402C21.0062 17.692 20.6614 17.8332 20.3022 17.8332C19.9431 17.8332 19.5983 17.692 19.3422 17.4402L18.2933 16.3913L17.7778 16.0002L17.2089 15.4313C17.084 15.3029 16.9348 15.2006 16.77 15.1304C16.6051 15.0602 16.428 15.0235 16.2489 15.0224C16.0693 15.0204 15.8912 15.0557 15.726 15.1261C15.5607 15.1965 15.4119 15.3004 15.2889 15.4313C15.1598 15.5556 15.0572 15.7048 14.9871 15.8697C14.917 16.0347 14.8809 16.212 14.8809 16.3913C14.8809 16.5705 14.917 16.7479 14.9871 16.9128C15.0572 17.0778 15.1598 17.2269 15.2889 17.3513L17.4044 19.5557C17.2795 19.4273 17.1303 19.325 16.9655 19.2548C16.8007 19.1847 16.6236 19.1479 16.4444 19.1468C16.0842 19.1566 15.7411 19.3027 15.4844 19.5557C15.2326 19.8118 15.0914 20.1565 15.0914 20.5157C15.0914 20.8749 15.2326 21.2197 15.4844 21.4757L17.0133 23.0046C18.8741 22.5005 20.5713 21.5201 21.9378 20.1602C23.0269 19.0752 23.875 17.7728 24.4267 16.3379C24.9923 14.8908 25.235 13.3375 25.1378 11.7868ZM7.28889 15.0579C7.44505 14.8978 7.57147 14.7112 7.66222 14.5068C7.74499 14.2974 7.78722 14.0742 7.78667 13.849C7.79203 13.6235 7.74962 13.3993 7.66222 13.1913C7.57557 12.9794 7.4488 12.7862 7.28889 12.6224L5.51111 10.8446C5.61672 11.069 5.76811 11.2689 5.95556 11.4313C6.15015 11.5906 6.37342 11.7113 6.61334 11.7868C6.85942 11.8397 7.11392 11.8397 7.36 11.7868C7.6087 11.7423 7.84506 11.6454 8.05334 11.5024C8.26302 11.3635 8.43424 11.174 8.55111 10.9513C8.71768 10.7711 8.83414 10.5504 8.88889 10.3113C8.93923 10.0709 8.93923 9.82273 8.88889 9.58238C8.75667 9.30437 8.55451 9.06546 8.30222 8.88904L10.6667 11.3602C10.989 11.6801 11.4215 11.8646 11.8756 11.8757C12.218 11.8678 12.5508 11.7612 12.8341 11.5687C13.1173 11.3762 13.3389 11.1059 13.4723 10.7905C13.6056 10.475 13.645 10.1277 13.5856 9.79039C13.5263 9.45307 13.3708 9.14008 13.1378 8.88904L10.9511 6.73793C10.6312 6.41561 10.4467 5.98307 10.4356 5.52904C10.461 5.20129 10.5768 4.88701 10.7701 4.62113C10.9634 4.35524 11.2267 4.14816 11.5306 4.02291C11.8346 3.89765 12.1673 3.85912 12.4918 3.91159C12.8163 3.96406 13.1199 4.10549 13.3689 4.32015L14.4889 5.42238C14.6451 5.58555 14.8327 5.71537 15.0405 5.80398C15.2483 5.89259 15.4719 5.93816 15.6978 5.93793C15.924 5.94027 16.1482 5.89566 16.3563 5.80692C16.5644 5.71818 16.7518 5.58724 16.9067 5.42238C17.0715 5.26748 17.2025 5.08007 17.2912 4.87199C17.38 4.66391 17.4246 4.43969 17.4222 4.21349C17.4225 3.9876 17.3769 3.76401 17.2883 3.55623C17.1997 3.34845 17.0698 3.1608 16.9067 3.0046L15.2889 1.36904C13.6656 1.20529 12.0262 1.40455 10.4894 1.95239C8.95256 2.50023 7.55679 3.38293 6.40312 4.53661C5.24945 5.69028 4.36674 7.08605 3.8189 8.62286C3.27107 10.1597 3.07181 11.7991 3.23556 13.4224L4.85334 15.0579C5.01716 15.2178 5.21033 15.3446 5.42222 15.4313C5.63085 15.5167 5.85459 15.559 6.08 15.5557C6.30516 15.5563 6.52838 15.514 6.73778 15.4313C6.94218 15.3405 7.1288 15.2141 7.28889 15.0579Z" fill="#9CEBFF"/>
<path d="M14.2222 26.9511C12.2994 26.9602 10.3941 26.586 8.61762 25.8503C6.84111 25.1147 5.22902 24.0324 3.87553 22.6667C3.74076 22.5845 3.63031 22.4679 3.55553 22.3289C3.52869 22.1999 3.52869 22.0668 3.55553 21.9378C3.53013 21.8087 3.53013 21.6758 3.55553 21.5467C3.60528 21.4227 3.68463 21.3129 3.78664 21.2267C3.87284 21.1247 3.9827 21.0453 4.10664 20.9956C4.23577 20.9702 4.36862 20.9702 4.49775 20.9956C4.62674 20.9687 4.75987 20.9687 4.88886 20.9956C5.0179 21.0453 5.13356 21.1244 5.22664 21.2267C6.39826 22.3969 7.78725 23.3269 9.31553 23.9645C10.8718 24.6009 12.541 24.9154 14.2222 24.8889C15.8807 24.9002 17.5248 24.5799 19.0578 23.9467C20.5719 23.3104 21.9484 22.3867 23.1111 21.2267C25.4604 18.8648 26.7791 15.669 26.7791 12.3378C26.7791 9.00653 25.4604 5.81073 23.1111 3.4489C22.9177 3.25562 22.809 2.99343 22.8089 2.72001C22.7995 2.57816 22.8217 2.436 22.874 2.3038C22.9263 2.1716 23.0073 2.05266 23.1111 1.95557C23.2035 1.86034 23.314 1.78455 23.4361 1.73265C23.5582 1.68075 23.6895 1.65379 23.8222 1.65334C23.9577 1.65241 24.0921 1.67868 24.2173 1.73059C24.3425 1.78251 24.456 1.85901 24.5511 1.95557C27.2966 4.70254 28.8389 8.42735 28.8389 12.3111C28.8389 16.1949 27.2966 19.9197 24.5511 22.6667C23.1979 24.0279 21.5884 25.1074 19.8155 25.8427C18.0426 26.5781 16.1415 26.9549 14.2222 26.9511Z" fill="#FAA21D"/>
<defs>
<radialGradient id="paint0_radial_868_8509" cx="0" cy="0" r="1" gradientUnits="userSpaceOnUse" gradientTransform="translate(14.1867 12.338) scale(10.9689)">
<stop offset="0.22" stop-color="#0078D4"/>
<stop offset="0.42" stop-color="#0075CF"/>
<stop offset="0.67" stop-color="#006DC0"/>
<stop offset="0.94" stop-color="#005EA7"/>
<stop offset="1" stop-color="#005BA1"/>
</radialGradient>
</defs>
</svg>
