<svg width="32" height="32" viewBox="0 0 32 32" fill="none" xmlns="http://www.w3.org/2000/svg">
<path d="M15.6978 31.2535C24.0434 31.2535 30.8089 24.488 30.8089 16.1424C30.8089 7.79672 24.0434 1.03125 15.6978 1.03125C7.35214 1.03125 0.58667 7.79672 0.58667 16.1424C0.58667 24.488 7.35214 31.2535 15.6978 31.2535Z" fill="#B0B0B0"/>
<path d="M15.6622 28.9245C22.7511 28.9245 28.4978 23.1779 28.4978 16.089C28.4978 9.00009 22.7511 3.25342 15.6622 3.25342C8.57333 3.25342 2.82666 9.00009 2.82666 16.089C2.82666 23.1779 8.57333 28.9245 15.6622 28.9245Z" fill="white"/>
<path d="M23.335 7.87665L21.7385 9.47314L22.2539 9.98855L23.8504 8.39206L23.335 7.87665Z" fill="#7A7A7A"/>
<path d="M26.8089 15.769H24.5511V16.4979H26.8089V15.769Z" fill="#7A7A7A"/>
<path d="M22.1395 22.1531L21.6241 22.6685L23.2205 24.2649L23.7359 23.7495L22.1395 22.1531Z" fill="#7A7A7A"/>
<path d="M15.9822 25.0488H15.2533V27.3066H15.9822V25.0488Z" fill="#7A7A7A"/>
<path d="M7.80575 7.80637L7.29034 8.32178L8.88683 9.91827L9.40224 9.40286L7.80575 7.80637Z" fill="#7A7A7A"/>
<path d="M8.98827 22.2282L7.39178 23.8247L7.90719 24.3401L9.50368 22.7436L8.98827 22.2282Z" fill="#7A7A7A"/>
<path d="M6.52444 15.769H4.26666V16.4979H6.52444V15.769Z" fill="#7A7A7A"/>
<path d="M15.7156 1.03125C15.5716 1.03123 15.4292 1.05986 15.2964 1.11547C15.1637 1.17108 15.0433 1.25255 14.9424 1.35514C14.8415 1.45773 14.7619 1.57938 14.7085 1.71301C14.6551 1.84664 14.6288 1.98957 14.6311 2.13348C14.6311 2.42746 14.7466 2.70968 14.9528 2.91922C15.1591 3.12875 15.4394 3.24881 15.7333 3.25348C18.6948 3.25843 21.5645 4.28166 23.861 6.15153C26.1575 8.0214 27.7411 10.6241 28.3462 13.5231C28.9512 16.4221 28.5409 19.441 27.1841 22.0734C25.8273 24.7058 23.6065 26.7915 20.8942 27.9806C18.182 29.1697 15.1433 29.39 12.2879 28.6044C9.43257 27.8188 6.93422 26.0751 5.21199 23.6659C3.48976 21.2567 2.64843 18.3285 2.82914 15.3726C3.00984 12.4166 4.20158 9.61273 6.20445 7.43125L7.11111 8.74681L9.63556 3.12903L3.55556 3.84014L4.88889 5.61792C2.4648 8.118 0.97977 11.3794 0.685527 14.8493C0.391285 18.3191 1.30593 21.784 3.27443 24.6566C5.24293 27.5291 8.14416 29.6327 11.4864 30.6106C14.8286 31.5885 18.4061 31.3806 21.6126 30.0222C24.819 28.6638 27.4571 26.2385 29.0797 23.1572C30.7022 20.076 31.2095 16.5285 30.5153 13.1161C29.8212 9.70364 27.9685 6.63618 25.2712 4.43367C22.5738 2.23116 19.1979 1.0291 15.7156 1.03125Z" fill="url(#paint0_radial_868_8450)"/>
<path d="M15.84 5.04883H15.6622C15.1517 5.04883 14.7378 5.46272 14.7378 5.97327V15.6977C14.7378 16.2083 15.1517 16.6222 15.6622 16.6222H15.84C16.3506 16.6222 16.7645 16.2083 16.7645 15.6977V5.97327C16.7645 5.46272 16.3506 5.04883 15.84 5.04883Z" fill="#7A7A7A"/>
<path d="M20.9624 21.6456L21.0881 21.5199C21.4491 21.1589 21.4491 20.5735 21.0881 20.2125L17.2666 16.391C16.9055 16.03 16.3202 16.03 15.9592 16.391L15.8335 16.5167C15.4725 16.8777 15.4725 17.4631 15.8335 17.8241L19.655 21.6456C20.016 22.0066 20.6014 22.0066 20.9624 21.6456Z" fill="#7A7A7A"/>
<path d="M15.6622 18.2755C16.8404 18.2755 17.7956 17.3203 17.7956 16.1421C17.7956 14.9639 16.8404 14.0088 15.6622 14.0088C14.484 14.0088 13.5289 14.9639 13.5289 16.1421C13.5289 17.3203 14.484 18.2755 15.6622 18.2755Z" fill="url(#paint1_radial_868_8450)"/>
<defs>
<radialGradient id="paint0_radial_868_8450" cx="0" cy="0" r="1" gradientUnits="userSpaceOnUse" gradientTransform="translate(15.6622 16.0001) scale(14.9511)">
<stop stop-color="#7956BA"/>
<stop offset="0.69" stop-color="#724EB4"/>
<stop offset="0.87" stop-color="#6F4BB2"/>
</radialGradient>
<radialGradient id="paint1_radial_868_8450" cx="0" cy="0" r="1" gradientUnits="userSpaceOnUse" gradientTransform="translate(15.6445 16.1955) scale(2.11556)">
<stop stop-color="#7F7F7F"/>
<stop offset="1" stop-color="#5E5E5E"/>
</radialGradient>
</defs>
</svg>
