<svg width="32" height="32" viewBox="0 0 32 32" fill="none" xmlns="http://www.w3.org/2000/svg">
<path d="M30.4 6.39989H17.2267C17.0858 6.40529 16.9474 6.36127 16.8356 6.27544L13.0667 3.76878C12.9483 3.69867 12.8131 3.66182 12.6756 3.66211H1.6C1.41444 3.66205 1.23621 3.73453 1.10335 3.86407C0.970488 3.9936 0.893524 4.16994 0.888885 4.35544V27.6443C0.893524 27.8298 0.970488 28.0062 1.10335 28.1357C1.23621 28.2652 1.41444 28.3377 1.6 28.3377H30.4C30.5856 28.3377 30.7638 28.2652 30.8966 28.1357C31.0295 28.0062 31.1065 27.8298 31.1111 27.6443V7.111C31.1111 6.9224 31.0362 6.74153 30.9028 6.60817C30.7695 6.47481 30.5886 6.39989 30.4 6.39989Z" fill="#EF7100"/>
<path d="M10.2222 5.01318H3.92888C3.77179 5.01318 3.64444 5.14053 3.64444 5.29763V6.09763C3.64444 6.25472 3.77179 6.38207 3.92888 6.38207H10.2222C10.3793 6.38207 10.5067 6.25472 10.5067 6.09763V5.29763C10.5067 5.14053 10.3793 5.01318 10.2222 5.01318Z" fill="white"/>
<path d="M4.81777 5.01318H3.84C3.73199 5.01318 3.64444 5.10074 3.64444 5.20874V6.18652C3.64444 6.29452 3.73199 6.38207 3.84 6.38207H4.81777C4.92578 6.38207 5.01333 6.29452 5.01333 6.18652V5.20874C5.01333 5.10074 4.92578 5.01318 4.81777 5.01318Z" fill="#D15900"/>
<path d="M30.4 6.36458H16C15.9065 6.36159 15.8134 6.37915 15.7274 6.41601C15.6414 6.45286 15.5646 6.50813 15.5022 6.57792L13.1022 8.88903C12.9653 9.01202 12.7885 9.08146 12.6044 9.08459H1.6C1.4114 9.08459 1.23052 9.15951 1.09717 9.29286C0.963806 9.42622 0.888885 9.6071 0.888885 9.7957V27.5735C0.893524 27.759 0.970488 27.9353 1.10335 28.0649C1.23621 28.1944 1.41444 28.2669 1.6 28.2668H30.4C30.5856 28.2669 30.7638 28.1944 30.8966 28.0649C31.0295 27.9353 31.1065 27.759 31.1111 27.5735V7.11125C31.1159 7.01492 31.1011 6.91861 31.0675 6.82819C31.034 6.73777 30.9823 6.65512 30.9158 6.58527C30.8493 6.51543 30.7693 6.45985 30.6806 6.42191C30.5919 6.38397 30.4965 6.36446 30.4 6.36458Z" fill="url(#paint0_linear_868_8486)"/>
<path d="M22.8267 14.2754V21.7065L16.4445 25.4398V17.9909L22.8267 14.2754Z" fill="#FFCA00"/>
<path d="M22.8267 14.2755L16.4444 18.0089L10.0444 14.2755L16.4444 10.5244L22.8267 14.2755Z" fill="#FFE452"/>
<path d="M16.4444 18.0087V25.4398L10.0444 21.7065V14.2754L16.4444 18.0087Z" fill="#FFD400"/>
<defs>
<linearGradient id="paint0_linear_868_8486" x1="16" y1="28.3024" x2="16" y2="6.36458" gradientUnits="userSpaceOnUse">
<stop stop-color="#E27908"/>
<stop offset="0.3" stop-color="#E57E0A"/>
<stop offset="0.64" stop-color="#ED8B11"/>
<stop offset="1" stop-color="#FAA21D"/>
</linearGradient>
</defs>
</svg>
