<svg width="32" height="32" viewBox="0 0 32 32" fill="none" xmlns="http://www.w3.org/2000/svg">
<path d="M0.888866 26.8086C0.888416 26.859 0.901345 26.9086 0.926333 26.9523C0.95132 26.996 0.987471 27.0323 1.03109 27.0575L3.09331 28.2131L6.57776 30.222C6.64633 30.2611 6.72752 30.2719 6.80394 30.252C6.88036 30.232 6.94594 30.183 6.98664 30.1153L8.15998 28.1242C8.1928 28.06 8.20005 27.9858 8.18025 27.9165C8.16045 27.8472 8.11508 27.788 8.05331 27.7508L3.96442 25.4397C3.92197 25.4133 3.88675 25.3767 3.86192 25.3332C3.8371 25.2898 3.82345 25.2409 3.8222 25.1908V6.84418C3.82175 6.79381 3.83468 6.74424 3.85967 6.70051C3.88465 6.65678 3.9208 6.62047 3.96442 6.59529L8.05331 4.28418C8.11508 4.24704 8.16045 4.18784 8.18025 4.11854C8.20005 4.04924 8.1928 3.97501 8.15998 3.91084L6.98664 1.91973C6.96954 1.88319 6.9453 1.85044 6.91534 1.82341C6.88538 1.79639 6.85031 1.77564 6.8122 1.76238C6.77409 1.74912 6.73371 1.74363 6.69345 1.74623C6.65318 1.74883 6.61384 1.75947 6.57776 1.77751L3.16442 3.75084L1.03109 4.94196C0.987471 4.96714 0.95132 5.00345 0.926333 5.04717C0.901345 5.0909 0.888416 5.14048 0.888866 5.19084V26.8086Z" fill="#949494"/>
<path d="M3.80441 6.70204L3.91108 6.59537L7.99997 4.28426C8.03432 4.26982 8.065 4.24785 8.08973 4.21998C8.11447 4.1921 8.13262 4.15902 8.14286 4.12318C8.1531 4.08735 8.15516 4.04967 8.14889 4.01294C8.14262 3.9762 8.12818 3.94134 8.10663 3.91093L6.9333 1.91982C6.92047 1.88198 6.89931 1.84751 6.87137 1.81895C6.84343 1.79039 6.80943 1.76848 6.77188 1.75482C6.73434 1.74117 6.6942 1.73613 6.65444 1.74007C6.61469 1.74401 6.57632 1.75684 6.54219 1.7776L3.11108 3.75093L0.995522 4.94204C0.995522 4.94204 0.906633 4.94204 0.888855 5.04871L2.48886 5.95537L3.80441 6.70204Z" fill="#A3A3A3"/>
<path d="M7.99995 27.7153L3.91106 25.4041C3.85624 25.3627 3.81332 25.3075 3.78662 25.2441L0.906616 27.0219H0.995505L3.03995 28.1775L6.59551 30.1508C6.62736 30.1725 6.66354 30.187 6.70154 30.1933C6.73954 30.1997 6.77846 30.1977 6.81563 30.1876C6.8528 30.1774 6.88733 30.1594 6.91685 30.1346C6.94637 30.1098 6.97017 30.079 6.98662 30.0441L8.15995 28.053C8.17395 28.0206 8.18086 27.9855 8.18024 27.9501C8.17961 27.9147 8.17146 27.8799 8.15632 27.848C8.14118 27.816 8.1194 27.7876 8.09244 27.7648C8.06548 27.7419 8.03395 27.725 7.99995 27.7153Z" fill="#A3A3A3"/>
<path d="M31.1111 26.8086C31.1116 26.859 31.0986 26.9086 31.0736 26.9523C31.0487 26.996 31.0125 27.0323 30.9689 27.0575L28.9067 28.2131L25.4222 30.222C25.3536 30.2611 25.2725 30.2719 25.196 30.252C25.1196 30.232 25.054 30.183 25.0133 30.1153L23.84 28.1242C23.8072 28.06 23.7999 27.9858 23.8197 27.9165C23.8395 27.8472 23.8849 27.788 23.9467 27.7508L28.0356 25.4397C28.078 25.4133 28.1132 25.3767 28.138 25.3332C28.1629 25.2898 28.1765 25.2409 28.1778 25.1908V6.84418C28.1782 6.79381 28.1653 6.74424 28.1403 6.70051C28.1153 6.65678 28.0792 6.62047 28.0356 6.59529L23.9467 4.28418C23.8849 4.24704 23.8395 4.18784 23.8197 4.11854C23.7999 4.04924 23.8072 3.97501 23.84 3.91084L25.0133 1.91973C25.0304 1.88319 25.0547 1.85044 25.0846 1.82341C25.1146 1.79639 25.1497 1.77564 25.1878 1.76238C25.2259 1.74912 25.2663 1.74363 25.3065 1.74623C25.3468 1.74883 25.3861 1.75947 25.4222 1.77751L28.8355 3.71529L30.9689 4.9064C31.0125 4.93158 31.0487 4.96789 31.0736 5.01162C31.0986 5.05535 31.1116 5.10493 31.1111 5.15529V26.8086Z" fill="#949494"/>
<path d="M28.1956 6.70204L28.0889 6.59537L24 4.28426C23.9656 4.26982 23.935 4.24785 23.9102 4.21998C23.8855 4.1921 23.8673 4.15902 23.8571 4.12318C23.8469 4.08735 23.8448 4.04967 23.8511 4.01294C23.8574 3.9762 23.8718 3.94134 23.8933 3.91093L25.0667 1.91982C25.0795 1.88198 25.1007 1.84751 25.1286 1.81895C25.1565 1.79039 25.1905 1.76848 25.2281 1.75482C25.2656 1.74117 25.3058 1.73613 25.3455 1.74007C25.3853 1.74401 25.4236 1.75684 25.4578 1.7776L28.8889 3.71537L31.0044 4.90648C31.0044 4.90648 31.0044 4.90648 31.1111 5.01315L29.5111 5.91982L28.1956 6.70204Z" fill="#A3A3A3"/>
<path d="M24 27.7153L28.0888 25.4041C28.1437 25.3627 28.1866 25.3075 28.2133 25.2441L31.0933 27.0219L29.0488 28.1775L25.4933 30.1508C25.4614 30.1725 25.4253 30.187 25.3873 30.1933C25.3493 30.1997 25.3103 30.1977 25.2732 30.1876C25.236 30.1774 25.2015 30.1594 25.1719 30.1346C25.1424 30.1098 25.1186 30.079 25.1022 30.0441L23.9288 28.053C23.8947 27.9985 23.8831 27.9328 23.8963 27.8698C23.9096 27.8068 23.9467 27.7514 24 27.7153Z" fill="#A3A3A3"/>
<path d="M25.44 10.542V21.4575L15.9822 26.9509V16.0175L25.44 10.542Z" fill="#32BEDD"/>
<path d="M25.44 10.5422L16 16.0355L6.54218 10.5422L16 5.04883L25.44 10.5422Z" fill="#9CEBFF"/>
<path d="M15.9822 16.0353V26.9509L6.54218 21.4575V10.542L15.9822 16.0353Z" fill="#50E6FF"/>
<path d="M6.54218 21.4576L15.9822 16.0176V26.9509L6.54218 21.4576Z" fill="#9CEBFF"/>
<path d="M25.44 21.4576L15.9822 16.0176V26.9509L25.44 21.4576Z" fill="#50E6FF"/>
</svg>
