<svg width="32" height="32" viewBox="0 0 32 32" fill="none" xmlns="http://www.w3.org/2000/svg">
<g clip-path="url(#clip0_868_8521)">
<path d="M15.2443 0.312915L0.311498 15.2458C-0.105061 15.6623 -0.105061 16.3377 0.311498 16.7542L15.2443 31.6871C15.6609 32.1036 16.3363 32.1036 16.7528 31.6871L31.6857 16.7542C32.1022 16.3377 32.1022 15.6623 31.6857 15.2458L16.7528 0.312916C16.3363 -0.103644 15.6609 -0.103644 15.2443 0.312915Z" fill="url(#paint0_linear_868_8521)"/>
<path d="M21.0471 11.5644V10.4053L20.8853 10.3449L19.6409 9.93778L19.3156 9.14489L19.9467 7.80266L19.1324 6.98844L18.9689 7.07022L17.8098 7.66044L17.0169 7.33511L16.5084 5.93066H15.3529L15.2889 6.09422L14.8818 7.33866L14.0889 7.664L12.7662 7.03289L11.952 7.84711L12.0338 8.00889L12.624 9.168L12.3022 9.95555L10.88 10.464V11.6231L11.0436 11.6853L12.288 12.0924L12.6151 12.8853L11.9769 14.2222L12.7893 15.0347L12.9529 14.9547L14.112 14.3644L14.9049 14.6898L15.4133 16.0924H16.5724L16.6347 15.9307L17.0418 14.6862L17.8347 14.3609L19.1769 14.992L19.9893 14.1778L19.9111 14.0249L19.3209 12.8658L19.6462 12.0729L21.0471 11.5644ZM15.9627 13.248C15.5207 13.2483 15.0885 13.1175 14.7209 12.8721C14.3533 12.6266 14.0669 12.2776 13.8978 11.8692C13.7287 11.4608 13.6847 11.0114 13.7712 10.578C13.8578 10.1445 14.071 9.7465 14.3839 9.43433C14.6968 9.12216 15.0953 8.90989 15.529 8.82439C15.9627 8.73889 16.4119 8.78402 16.8199 8.95407C17.2279 9.12411 17.5762 9.41141 17.8208 9.77958C18.0654 10.1477 18.1952 10.5802 18.1938 11.0222C18.1924 11.613 17.9567 12.1791 17.5384 12.5964C17.1202 13.0137 16.5535 13.248 15.9627 13.248Z" fill="white"/>
<path d="M18.688 19.4027L17.2782 19.3779H16.3146L15.6213 19.3672C14.9865 19.387 14.3792 19.6311 13.9073 20.0561C13.4354 20.4812 13.1294 21.0597 13.0435 21.689L14.0071 21.7032C14.0936 21.3412 14.2975 21.018 14.5869 20.7839C14.8763 20.5498 15.235 20.418 15.6071 20.409L16.3004 20.4196L17.264 20.4339L18.6755 20.4534C19.1273 20.5103 19.5423 20.7319 19.841 21.0756C20.1397 21.4193 20.3012 21.8611 20.2946 22.3164C20.288 22.7717 20.1137 23.2086 19.8052 23.5435C19.4966 23.8784 19.0754 24.0878 18.6222 24.1316L15.5555 24.0872C15.1841 24.0676 14.8296 23.9256 14.5473 23.6835C14.2649 23.4414 14.0706 23.1126 13.9946 22.7485L13.0293 22.7343C13.0974 23.3652 13.3867 23.9516 13.8458 24.3896C14.305 24.8275 14.9044 25.0889 15.5377 25.1272L18.6062 25.1716C19.3307 25.1397 20.0133 24.8229 20.5054 24.2902C20.9975 23.7575 21.2593 23.052 21.2337 22.3272C21.2817 21.6023 21.0408 20.888 20.5639 20.34C20.0869 19.7921 19.4125 19.4552 18.688 19.4027Z" fill="white"/>
<path d="M14.7004 21.7065L14.0071 21.6976L13.0435 21.6887L11.632 21.6674C11.179 21.6123 10.7623 21.3916 10.4622 21.0479C10.1622 20.7041 9.9998 20.2615 10.0064 19.8052C10.013 19.3489 10.1882 18.9112 10.4981 18.5762C10.808 18.2413 11.2309 18.0328 11.6853 17.9909L14.752 18.0354C15.1235 18.0552 15.4781 18.1972 15.7607 18.4392C16.0433 18.6813 16.238 19.0099 16.3146 19.374L17.2782 19.3865C17.2117 18.7537 16.923 18.1649 16.4634 17.7249C16.0038 17.2848 15.4031 17.0219 14.768 16.9829L11.6995 16.9385C10.9736 16.9695 10.2893 17.2863 9.79608 17.8198C9.30283 18.3534 9.04061 19.0603 9.06662 19.7865C9.01967 20.5109 9.26088 21.2246 9.73771 21.772C10.2145 22.3194 10.8884 22.6563 11.6124 22.7091L13.0222 22.7287L13.9875 22.7429L14.6791 22.7536C15.3144 22.7336 15.9221 22.4891 16.3941 22.0633C16.866 21.6375 17.1718 21.0582 17.2568 20.4283L16.2933 20.414C16.207 20.7747 16.0041 21.0968 15.7161 21.3305C15.4281 21.5642 15.0711 21.6963 14.7004 21.7065Z" fill="#B4EC36"/>
<path d="M15.9626 12.5261C16.7972 12.5261 17.4738 11.8496 17.4738 11.015C17.4738 10.1805 16.7972 9.50391 15.9626 9.50391C15.1281 9.50391 14.4515 10.1805 14.4515 11.015C14.4515 11.8496 15.1281 12.5261 15.9626 12.5261Z" fill="#B4EC36"/>
</g>
<defs>
<linearGradient id="paint0_linear_868_8521" x1="15.9997" y1="35.2852" x2="15.9997" y2="-1.80276" gradientUnits="userSpaceOnUse">
<stop stop-color="#5E9624"/>
<stop offset="0.546" stop-color="#6DAD2A"/>
<stop offset="0.999" stop-color="#76BC2D"/>
</linearGradient>
<clipPath id="clip0_868_8521">
<rect width="32" height="32" fill="white"/>
</clipPath>
</defs>
</svg>
