<svg width="32" height="32" viewBox="0 0 32 32" fill="none" xmlns="http://www.w3.org/2000/svg">
<g clip-path="url(#clip0_868_8446)">
<path d="M17.2622 29.3404C25.3644 29.3404 31.9325 22.7724 31.9325 14.6702C31.9325 6.56808 25.3644 0 17.2622 0C9.16009 0 2.59201 6.56808 2.59201 14.6702C2.59201 22.7724 9.16009 29.3404 17.2622 29.3404Z" fill="url(#paint0_radial_868_8446)"/>
<path d="M17.3191 27.4436C24.3736 27.4436 30.0924 21.7248 30.0924 14.6703C30.0924 7.61579 24.3736 1.89697 17.3191 1.89697C10.2646 1.89697 4.54578 7.61579 4.54578 14.6703C4.54578 21.7248 10.2646 27.4436 17.3191 27.4436Z" fill="white"/>
<path d="M24.8009 6.67226L23.2534 8.21973L23.7524 8.71879L25.2999 7.17132L24.8009 6.67226Z" fill="#7A7A7A"/>
<path d="M28.1618 14.3022H25.9733V15.008H28.1618V14.3022Z" fill="#7A7A7A"/>
<path d="M23.6512 20.4907L23.1521 20.9897L24.6996 22.5372L25.1986 22.0381L23.6512 20.4907Z" fill="#7A7A7A"/>
<path d="M17.6711 23.2764H16.9653V25.4648H17.6711V23.2764Z" fill="#7A7A7A"/>
<path d="M9.76346 6.6025L9.2644 7.10156L10.8119 8.64903L11.3109 8.14997L9.76346 6.6025Z" fill="#7A7A7A"/>
<path d="M10.9182 20.5546L9.37073 22.1021L9.86979 22.6011L11.4173 21.0536L10.9182 20.5546Z" fill="#7A7A7A"/>
<path d="M8.52624 14.3022H6.3378V15.008H8.52624V14.3022Z" fill="#7A7A7A"/>
<path d="M17.4916 3.86133H17.3191C16.8233 3.86133 16.4214 4.26328 16.4214 4.75911V14.2098C16.4214 14.7056 16.8233 15.1076 17.3191 15.1076H17.4916C17.9874 15.1076 18.3894 14.7056 18.3894 14.2098V4.75911C18.3894 4.26328 17.9874 3.86133 17.4916 3.86133Z" fill="#7A7A7A"/>
<path d="M22.4701 19.9762L22.5921 19.8543C22.942 19.5044 22.942 18.937 22.5921 18.5871L18.8799 14.875C18.53 14.5251 17.9627 14.5251 17.6128 14.875L17.4909 14.9969C17.1409 15.3468 17.1409 15.9141 17.4909 16.2641L21.203 19.9762C21.5529 20.3261 22.1202 20.3261 22.4701 19.9762Z" fill="#7A7A7A"/>
<path d="M17.328 16.7233C18.4758 16.7233 19.4062 15.7929 19.4062 14.6451C19.4062 13.4973 18.4758 12.5669 17.328 12.5669C16.1802 12.5669 15.2498 13.4973 15.2498 14.6451C15.2498 15.7929 16.1802 16.7233 17.328 16.7233Z" fill="url(#paint1_radial_868_8446)"/>
<path d="M14.3609 0.259766C11.4567 0.847684 8.79701 2.29697 6.72858 4.41866C4.66014 6.54036 3.27894 9.23603 2.76503 12.1542C2.25113 15.0724 2.62837 18.0778 3.84757 20.7784C5.06677 23.4791 7.07136 25.7498 9.60001 27.2944L10.0871 26.0038C10.1047 25.9567 10.1344 25.9151 10.1732 25.8832C10.2119 25.8513 10.2584 25.8301 10.308 25.8218C10.3575 25.8135 10.4084 25.8184 10.4554 25.836C10.5025 25.8536 10.5441 25.8832 10.576 25.922L14.4 30.562C14.4324 30.601 14.4538 30.648 14.4621 30.698C14.4704 30.7481 14.4652 30.7994 14.4471 30.8468C14.429 30.8942 14.3987 30.9359 14.3592 30.9677C14.3196 30.9995 14.2724 31.0202 14.2222 31.0278L8.27912 32.0002C8.22956 32.0079 8.17885 32.0026 8.13199 31.9847C8.08514 31.9668 8.04377 31.937 8.01198 31.8982C7.98019 31.8594 7.95908 31.813 7.95075 31.7635C7.94241 31.7141 7.94714 31.6633 7.96445 31.6162L8.67556 29.7069C4.77443 27.4682 1.9 23.7966 0.66312 19.4722C0.0312699 17.2921 -0.0990513 14.9973 0.28192 12.7596C0.66289 10.522 1.54528 8.39958 2.86297 6.55139C4.18066 4.7032 5.8995 3.17715 7.89072 2.08756C9.88193 0.997975 12.0939 0.373105 14.3609 0.259766Z" fill="#86D633"/>
</g>
<defs>
<radialGradient id="paint0_radial_868_8446" cx="0" cy="0" r="1" gradientUnits="userSpaceOnUse" gradientTransform="translate(17.2479 14.6571) scale(14.6626)">
<stop offset="0.183" stop-color="#5EA0EF"/>
<stop offset="0.555" stop-color="#5C9FEE"/>
<stop offset="0.689" stop-color="#559CED"/>
<stop offset="0.785" stop-color="#4A97E9"/>
<stop offset="0.862" stop-color="#3990E4"/>
<stop offset="0.928" stop-color="#2387DE"/>
<stop offset="0.985" stop-color="#087BD6"/>
<stop offset="1" stop-color="#0078D4"/>
</radialGradient>
<radialGradient id="paint1_radial_868_8446" cx="0" cy="0" r="1" gradientUnits="userSpaceOnUse" gradientTransform="translate(17.3204 14.691) scale(2.05029)">
<stop stop-color="#7F7F7F"/>
<stop offset="1" stop-color="#5E5E5E"/>
</radialGradient>
<clipPath id="clip0_868_8446">
<rect width="32" height="32" fill="white"/>
</clipPath>
</defs>
</svg>
