<svg width="32" height="32" viewBox="0 0 32 32" fill="none" xmlns="http://www.w3.org/2000/svg">
<path d="M11.4037 18.1608L1.77694 27.7875C1.05768 28.5068 1.05768 29.6729 1.77694 30.3922L1.95796 30.5732C2.67722 31.2925 3.84337 31.2925 4.56263 30.5732L14.1893 20.9465C14.9086 20.2272 14.9086 19.0611 14.1893 18.3418L14.0083 18.1608C13.2891 17.4415 12.1229 17.4415 11.4037 18.1608Z" fill="#198AB3"/>
<path d="M18.896 24.622C25.4498 24.622 30.7627 19.3091 30.7627 12.7553C30.7627 6.20156 25.4498 0.888672 18.896 0.888672C12.3422 0.888672 7.02933 6.20156 7.02933 12.7553C7.02933 19.3091 12.3422 24.622 18.896 24.622Z" fill="url(#paint0_radial_868_8445)"/>
<path d="M18.8711 21.8644C24.0189 21.8644 28.192 17.6913 28.192 12.5435C28.192 7.39576 24.0189 3.22266 18.8711 3.22266C13.7233 3.22266 9.55023 7.39576 9.55023 12.5435C9.55023 17.6913 13.7233 21.8644 18.8711 21.8644Z" fill="white"/>
<path d="M9.84 14.8493C9.84 14.8493 12.3911 2.08133 24.3129 4.97733C22.7192 3.79546 20.7842 3.16439 18.8002 3.17946C16.8162 3.19454 14.891 3.85494 13.3156 5.06089C11.8073 6.14344 10.666 7.66125 10.0448 9.41081C9.4236 11.1604 9.35213 13.058 9.84 14.8493Z" fill="#C3F1FF"/>
<defs>
<radialGradient id="paint0_radial_868_8445" cx="0" cy="0" r="1" gradientUnits="userSpaceOnUse" gradientTransform="translate(18.896 12.7553) scale(11.8667)">
<stop offset="0.225" stop-color="#32D4F5"/>
<stop offset="0.59" stop-color="#32D2F2"/>
<stop offset="0.825" stop-color="#32CAEA"/>
<stop offset="1" stop-color="#32BEDD"/>
</radialGradient>
</defs>
</svg>
