<svg width="32" height="32" viewBox="0 0 32 32" fill="none" xmlns="http://www.w3.org/2000/svg">
<g clip-path="url(#clip0_868_8443)">
<path d="M15.0009 18.4513H22.528V25.9784H15.0009V18.4513ZM6.22224 8.41578H13.7458V0.888672H7.26402C6.98678 0.888672 6.7209 0.998805 6.52486 1.19484C6.32882 1.39088 6.21869 1.65677 6.21869 1.93401L6.22224 8.41578ZM7.26758 25.9784H13.7458V18.4513H6.22224V24.9331C6.22224 25.2097 6.33189 25.4751 6.52716 25.671C6.72243 25.867 6.9874 25.9775 7.26402 25.9784H7.26758ZM6.22224 17.198H13.7458V9.67089H6.22224V17.198ZM23.7867 25.9784H30.2685C30.5457 25.9784 30.8116 25.8683 31.0076 25.6723C31.2037 25.4762 31.3138 25.2104 31.3138 24.9331V18.4513H23.7831L23.7867 25.9784ZM15.0009 17.198H22.528V9.67089H15.0009V17.198ZM23.7831 17.198H31.3102V9.67089H23.7831V17.198ZM23.7831 0.888672V8.41578H31.3102V1.93401C31.3102 1.65677 31.2001 1.39088 31.0041 1.19484C30.808 0.998805 30.5422 0.888672 30.2649 0.888672H23.7831ZM15.0009 8.41578H22.528V0.888672H15.0009V8.41578Z" fill="url(#paint0_linear_868_8443)"/>
<path d="M6.39197 23.848L0.992814 29.2472C0.589446 29.6505 0.589445 30.3045 0.992813 30.7079L1.09464 30.8097C1.49801 31.2131 2.15199 31.2131 2.55536 30.8097L7.95452 25.4106C8.35788 25.0072 8.35788 24.3532 7.95452 23.9498L7.85269 23.848C7.44932 23.4447 6.79534 23.4447 6.39197 23.848Z" fill="#198AB3"/>
<path d="M10.5938 27.4717C14.2698 27.4717 17.2498 24.4917 17.2498 20.8157C17.2498 17.1397 14.2698 14.1597 10.5938 14.1597C6.9178 14.1597 3.93781 17.1397 3.93781 20.8157C3.93781 24.4917 6.9178 27.4717 10.5938 27.4717Z" fill="#50E6FF"/>
<path d="M10.5813 25.9235C13.468 25.9235 15.808 23.5835 15.808 20.6969C15.808 17.8103 13.468 15.4702 10.5813 15.4702C7.69473 15.4702 5.35468 17.8103 5.35468 20.6969C5.35468 23.5835 7.69473 25.9235 10.5813 25.9235Z" fill="white"/>
</g>
<defs>
<linearGradient id="paint0_linear_868_8443" x1="19.1129" y1="1.41134" x2="19.1129" y2="26.5002" gradientUnits="userSpaceOnUse">
<stop stop-color="#5EA0EF"/>
<stop offset="0.178" stop-color="#589EED"/>
<stop offset="0.406" stop-color="#4897E9"/>
<stop offset="0.662" stop-color="#2E8CE1"/>
<stop offset="0.936" stop-color="#0A7CD7"/>
<stop offset="1" stop-color="#0078D4"/>
</linearGradient>
<clipPath id="clip0_868_8443">
<rect width="32" height="32" fill="white"/>
</clipPath>
</defs>
</svg>
