<svg width="32" height="32" viewBox="0 0 32 32" fill="none" xmlns="http://www.w3.org/2000/svg">
<path d="M15.3956 30.4353C29.9378 20.0176 30.4356 13.9376 30.4889 12.0353C30.5778 9.36866 30.2222 2.41755 23.1111 1.86644C21.4465 1.74261 19.7875 2.17223 18.3922 3.08849C16.9969 4.00476 15.9434 5.35634 15.3956 6.93311C14.8386 5.34406 13.7704 3.98463 12.3581 3.06777C10.9458 2.1509 9.26925 1.7284 7.59111 1.86644C0.568885 2.41755 0.195551 9.36866 0.28444 12.0353C0.28444 13.9376 0.853327 20.0176 15.3956 30.4353Z" fill="url(#paint0_linear_868_8442)"/>
<path d="M30.4889 10.9866H23.3777C23.3323 10.9886 23.288 11.0008 23.248 11.0224C23.208 11.0439 23.1733 11.0742 23.1466 11.111L20.9955 14.8266C20.9698 14.867 20.9344 14.9002 20.8924 14.9232C20.8505 14.9463 20.8034 14.9583 20.7555 14.9583C20.7077 14.9583 20.6606 14.9463 20.6186 14.9232C20.5767 14.9002 20.5412 14.867 20.5155 14.8266L17.44 8.97768C17.3952 8.88354 17.3247 8.80401 17.2366 8.74833C17.1485 8.69264 17.0464 8.66309 16.9422 8.66309C16.838 8.66309 16.7359 8.69264 16.6478 8.74833C16.5597 8.80401 16.4891 8.88354 16.4444 8.97768L13.4933 17.7777C13.4704 17.8267 13.434 17.8683 13.3883 17.8973C13.3427 17.9264 13.2897 17.9419 13.2355 17.9419C13.1814 17.9419 13.1284 17.9264 13.0827 17.8973C13.037 17.8683 13.0006 17.8267 12.9777 17.7777L10.4533 11.9288C10.4068 11.8393 10.3366 11.7644 10.2504 11.712C10.1642 11.6597 10.0653 11.6321 9.96441 11.6321C9.86358 11.6321 9.76467 11.6597 9.67847 11.712C9.59227 11.7644 9.52207 11.8393 9.47552 11.9288L6.02664 18.1332C6.00301 18.1743 5.9695 18.2088 5.92913 18.2337C5.88877 18.2585 5.84285 18.2729 5.79553 18.2755H2.52441C3.0151 19.0289 3.54934 19.7531 4.12441 20.4443H7.11108C7.15968 20.448 7.2082 20.4363 7.24971 20.4107C7.29122 20.3852 7.32359 20.3472 7.34219 20.3021L9.4933 16.3377C9.5179 16.2932 9.55396 16.2562 9.59773 16.2304C9.6415 16.2046 9.69138 16.1909 9.74219 16.1909C9.793 16.1909 9.84289 16.2046 9.88665 16.2304C9.93042 16.2562 9.96648 16.2932 9.99108 16.3377L12.9422 23.1999C12.9818 23.3046 13.0523 23.3948 13.1444 23.4585C13.2365 23.5222 13.3458 23.5563 13.4577 23.5563C13.5697 23.5563 13.679 23.5222 13.7711 23.4585C13.8632 23.3948 13.9337 23.3046 13.9733 23.1999L17.0844 13.9555C17.1038 13.9052 17.1379 13.8619 17.1823 13.8314C17.2268 13.8009 17.2794 13.7845 17.3333 13.7845C17.3872 13.7845 17.4398 13.8009 17.4843 13.8314C17.5287 13.8619 17.5628 13.9052 17.5822 13.9555L20.1777 18.8799C20.2231 18.9655 20.291 19.037 20.374 19.0869C20.457 19.1369 20.552 19.1632 20.6489 19.1632C20.7457 19.1632 20.8407 19.1369 20.9237 19.0869C21.0067 19.037 21.0746 18.9655 21.12 18.8799L24.4266 13.3155C24.4503 13.2744 24.4838 13.2398 24.5241 13.215C24.5645 13.1902 24.6104 13.1758 24.6577 13.1732H30.4" fill="white"/>
<defs>
<linearGradient id="paint0_linear_868_8442" x1="15.3956" y1="30.4353" x2="15.3956" y2="1.83089" gradientUnits="userSpaceOnUse">
<stop stop-color="#1988D9"/>
<stop offset="0.22" stop-color="#218DDC"/>
<stop offset="0.56" stop-color="#379CE5"/>
<stop offset="0.9" stop-color="#54AEF0"/>
</linearGradient>
</defs>
</svg>
