<svg width="32" height="32" viewBox="0 0 32 32" fill="none" xmlns="http://www.w3.org/2000/svg">
<g clip-path="url(#clip0_868_8497)">
<path d="M19.4844 28.4088C19.4702 28.678 19.35 28.9306 19.1501 29.1114C18.9503 29.2923 18.687 29.3867 18.4178 29.3741H2.06221C1.79297 29.3867 1.52968 29.2923 1.32983 29.1114C1.12998 28.9306 1.00981 28.678 0.995544 28.4088V1.85414C1.00982 1.58563 1.12949 1.3336 1.32857 1.15283C1.52764 0.97207 1.79001 0.877188 2.05866 0.88881H18.4142C18.6835 0.876223 18.9467 0.970672 19.1466 1.15153C19.3464 1.3324 19.4666 1.58498 19.4809 1.85414L19.4844 28.4088Z" fill="url(#paint0_linear_868_8497)"/>
<path d="M3.70843 13.0665C3.68086 12.5053 3.8771 11.9561 4.25408 11.5394C4.63105 11.1228 5.15795 10.8728 5.7191 10.8442H14.9227C15.4838 10.8728 16.0107 11.1228 16.3877 11.5394C16.7646 11.9561 16.9609 12.5053 16.9333 13.0665C16.9609 13.6277 16.7646 14.1769 16.3877 14.5935C16.0107 15.0101 15.4838 15.2602 14.9227 15.2887H5.7191C5.15795 15.2602 4.63105 15.0101 4.25408 14.5935C3.8771 14.1769 3.68086 13.6277 3.70843 13.0665Z" fill="#003067"/>
<path d="M3.7084 6.48705C3.68132 5.92615 3.87778 5.37741 4.25471 4.96116C4.63163 4.54491 5.15825 4.29513 5.71907 4.2666H14.9226C15.4834 4.29513 16.0101 4.54491 16.387 4.96116C16.7639 5.37741 16.9604 5.92615 16.9333 6.48705C16.9589 7.04704 16.7618 7.59441 16.385 8.00949C16.0083 8.42457 15.4825 8.67361 14.9226 8.70216H5.71907C5.15922 8.67361 4.63343 8.42457 4.25666 8.00949C3.87989 7.59441 3.68277 7.04704 3.7084 6.48705Z" fill="#003067"/>
<path d="M6.29689 7.97342C7.11771 7.97342 7.78311 7.30802 7.78311 6.4872C7.78311 5.66638 7.11771 5.00098 6.29689 5.00098C5.47607 5.00098 4.81067 5.66638 4.81067 6.4872C4.81067 7.30802 5.47607 7.97342 6.29689 7.97342Z" fill="#50E6FF"/>
<path d="M6.29689 14.553C7.11771 14.553 7.78311 13.8876 7.78311 13.0668C7.78311 12.246 7.11771 11.5806 6.29689 11.5806C5.47607 11.5806 4.81067 12.246 4.81067 13.0668C4.81067 13.8876 5.47607 14.553 6.29689 14.553Z" fill="#50E6FF"/>
<path d="M26.3982 18.6383L20.7574 15.8223L14.912 18.6383L12.7787 22.816V30.6045C12.7792 30.739 12.8329 30.8679 12.9282 30.9629C13.0235 31.0578 13.1526 31.1112 13.2871 31.1112H28.2294C28.3639 31.1112 28.4929 31.0578 28.5883 30.9629C28.6836 30.8679 28.7373 30.739 28.7378 30.6045V22.816L26.3982 18.6383Z" fill="url(#paint1_linear_868_8497)"/>
<path d="M11.5218 25.0665C11.3911 25.067 11.2624 25.0346 11.1476 24.9723C11.0327 24.91 10.9354 24.8198 10.8646 24.71C10.7938 24.6002 10.7517 24.4744 10.7423 24.3441C10.7328 24.2137 10.7564 24.0832 10.8106 23.9643L13.3173 18.4888C13.3892 18.3368 13.5083 18.212 13.6569 18.1332L20.5084 14.4479C20.6229 14.3853 20.7513 14.3525 20.8818 14.3525C21.0122 14.3525 21.1406 14.3853 21.2551 14.4479L27.8702 18.1332C28.007 18.2094 28.1173 18.3253 28.1866 18.4657L30.9333 23.9377C30.9791 24.0289 31.0064 24.1283 31.0137 24.2302C31.0211 24.332 31.0083 24.4343 30.9761 24.5312C30.9439 24.6281 30.893 24.7177 30.8261 24.795C30.7593 24.8722 30.6779 24.9354 30.5866 24.9812C30.4954 25.027 30.396 25.0543 30.2941 25.0616C30.1923 25.069 30.09 25.0562 29.9931 25.024C29.8962 24.9918 29.8066 24.9408 29.7293 24.874C29.6521 24.8072 29.5888 24.7258 29.5431 24.6345L26.9031 19.3776L20.8693 16.0177L14.624 19.3776L12.2293 24.6097C12.1676 24.7456 12.0681 24.861 11.9426 24.942C11.8172 25.023 11.6711 25.0662 11.5218 25.0665Z" fill="#50E6FF"/>
<path d="M21.7671 20.2842H19.6035C19.3237 20.2842 19.0969 20.511 19.0969 20.7908V23.1037C19.0969 23.3836 19.3237 23.6104 19.6035 23.6104H21.7671C22.0469 23.6104 22.2738 23.3836 22.2738 23.1037V20.7908C22.2738 20.511 22.0469 20.2842 21.7671 20.2842Z" fill="#005BA1"/>
<path d="M20.6844 28.3378L23.7564 26.281C23.6726 26.2239 23.5734 26.1936 23.472 26.1938H17.8969C17.7955 26.1938 17.6964 26.2241 17.6124 26.281L20.6844 28.3378Z" fill="#005BA1"/>
<path d="M23.9786 30.5421V26.7607L21.1537 28.6523L23.9786 30.5421Z" fill="#005BA1"/>
<path d="M20.2151 28.6523L17.3902 26.7607V30.5421L20.2151 28.6523Z" fill="#005BA1"/>
<path d="M23.9555 31.1111H23.9786V31.0737L23.9555 31.1111Z" fill="#005BA1"/>
<path d="M17.3902 31.0737V31.1111H17.4151L17.3902 31.0737Z" fill="#005BA1"/>
<path d="M17.4809 31.1113H23.888L20.6845 28.9673L17.4809 31.1113Z" fill="#005BA1"/>
</g>
<defs>
<linearGradient id="paint0_linear_868_8497" x1="10.2382" y1="0.88881" x2="10.2382" y2="29.3741" gradientUnits="userSpaceOnUse">
<stop stop-color="#B3B2B3"/>
<stop offset="0.375" stop-color="#AFAEAF"/>
<stop offset="0.763" stop-color="#A2A2A2"/>
<stop offset="1" stop-color="#979797"/>
</linearGradient>
<linearGradient id="paint1_linear_868_8497" x1="20.7574" y1="31.1112" x2="20.7574" y2="15.824" gradientUnits="userSpaceOnUse">
<stop stop-color="#0078D4"/>
<stop offset="0.156" stop-color="#1380DA"/>
<stop offset="0.528" stop-color="#3C91E5"/>
<stop offset="0.822" stop-color="#559CEC"/>
<stop offset="1" stop-color="#5EA0EF"/>
</linearGradient>
<clipPath id="clip0_868_8497">
<rect width="32" height="32" fill="white"/>
</clipPath>
</defs>
</svg>
