<svg width="32" height="32" viewBox="0 0 32 32" fill="none" xmlns="http://www.w3.org/2000/svg">
<path d="M31.1111 23.703H0.888916L2.99203 4.28787C3.05341 3.71769 3.32332 3.1903 3.74991 2.80703C4.17649 2.42376 4.72966 2.21164 5.30314 2.21143H26.6951C27.2686 2.21164 27.8218 2.42376 28.2484 2.80703C28.675 3.1903 28.9449 3.71769 29.0062 4.28787L31.1111 23.703Z" fill="url(#paint0_linear_868_8447)"/>
<path d="M0.888916 23.7031H31.1111V27.4613C31.1111 27.7669 31.0509 28.0696 30.934 28.3519C30.817 28.6342 30.6456 28.8908 30.4295 29.1069C30.2134 29.323 29.9569 29.4944 29.6746 29.6113C29.3922 29.7283 29.0896 29.7885 28.784 29.7885H3.21603C2.91043 29.7885 2.60782 29.7283 2.32548 29.6113C2.04314 29.4944 1.7866 29.323 1.57051 29.1069C1.35442 28.8908 1.18301 28.6342 1.06606 28.3519C0.949108 28.0696 0.888916 27.7669 0.888916 27.4613V23.7031Z" fill="#5EA0EF"/>
<path d="M26.7165 21.0398H5.28357C5.20176 21.0398 5.12088 21.0226 5.04618 20.9892C4.97147 20.9559 4.90462 20.9072 4.84996 20.8464C4.7953 20.7855 4.75405 20.7138 4.72891 20.636C4.70377 20.5581 4.69528 20.4758 4.70401 20.3945L6.3289 5.39362C6.34425 5.25108 6.41173 5.11923 6.51837 5.02341C6.62502 4.92759 6.76331 4.87456 6.90668 4.87451H25.0933C25.2367 4.87456 25.375 4.92759 25.4817 5.02341C25.5883 5.11923 25.6558 5.25108 25.6711 5.39362L27.296 20.3945C27.3047 20.4758 27.2963 20.5581 27.2711 20.636C27.246 20.7138 27.2047 20.7855 27.1501 20.8464C27.0954 20.9072 27.0286 20.9559 26.9538 20.9892C26.8791 21.0226 26.7983 21.0398 26.7165 21.0398Z" fill="#F2F2F2"/>
<path d="M24.3396 27.1891V25.7775C24.3396 25.7089 24.3261 25.6409 24.2998 25.5775C24.2736 25.5141 24.2351 25.4565 24.1865 25.408C24.138 25.3594 24.0804 25.3209 24.017 25.2947C23.9535 25.2684 23.8856 25.2549 23.8169 25.2549H23.7547C23.6861 25.2549 23.6181 25.2684 23.5547 25.2947C23.4913 25.3209 23.4337 25.3594 23.3851 25.408C23.3366 25.4565 23.2981 25.5141 23.2718 25.5775C23.2456 25.6409 23.2321 25.7089 23.2321 25.7775V27.1162H16.3929V25.7775C16.3929 25.7089 16.3794 25.6409 16.3532 25.5775C16.3269 25.5141 16.2884 25.4565 16.2399 25.408C16.1913 25.3594 16.1337 25.3209 16.0703 25.2947C16.0069 25.2684 15.9389 25.2549 15.8703 25.2549H15.8081C15.67 25.2558 15.538 25.3113 15.4408 25.4092C15.3435 25.5071 15.2889 25.6395 15.2889 25.7775V27.1162H8.07472V25.7953C8.07472 25.6567 8.01965 25.5238 7.92163 25.4257C7.82361 25.3277 7.69067 25.2727 7.55205 25.2727H7.48983C7.35121 25.2727 7.21827 25.3277 7.12025 25.4257C7.02223 25.5238 6.96716 25.6567 6.96716 25.7953V27.1998C6.96716 27.477 7.0773 27.7429 7.27333 27.9389C7.46937 28.135 7.73526 28.2451 8.0125 28.2451H8.07472L23.2961 28.2273C23.5719 28.2273 23.8365 28.1181 24.0321 27.9236C24.2276 27.729 24.3382 27.4649 24.3396 27.1891Z" fill="#F2F2F2"/>
<path d="M15.2516 13.4825H11.4507C11.3316 13.4825 11.2356 13.4238 11.2356 13.3509C11.2361 13.3315 11.243 13.3128 11.2552 13.2976L15.8223 7.08426C15.8473 7.05804 15.8778 7.03761 15.9116 7.02441C15.9454 7.0112 15.9816 7.00554 16.0178 7.00781H20.5138C20.6329 7.00781 20.7289 7.06648 20.7289 7.13937C20.7284 7.15375 20.7247 7.16785 20.7183 7.18073C20.7119 7.1936 20.7028 7.20496 20.6916 7.21404L15.3316 12.0763H20.5494C20.6685 12.0763 20.7645 12.1349 20.7645 12.2078C20.7631 12.226 20.7573 12.2435 20.7477 12.259C20.7382 12.2744 20.725 12.2874 20.7094 12.2967L12.0338 18.5189C11.9538 18.5527 11.3743 18.8834 11.6587 18.3803L15.2516 13.4825Z" fill="#5EA0EF"/>
<defs>
<linearGradient id="paint0_linear_868_8447" x1="16" y1="23.703" x2="16" y2="2.21143" gradientUnits="userSpaceOnUse">
<stop stop-color="#0078D4"/>
<stop offset="0.156" stop-color="#1380DA"/>
<stop offset="0.528" stop-color="#3C91E5"/>
<stop offset="0.822" stop-color="#559CEC"/>
<stop offset="1" stop-color="#5EA0EF"/>
</linearGradient>
</defs>
</svg>
