<svg width="32" height="32" viewBox="0 0 32 32" fill="none" xmlns="http://www.w3.org/2000/svg">
<path d="M0.967102 9.45068H31.0329V27.0827C31.0329 27.3491 30.9271 27.6046 30.7387 27.7929C30.5503 27.9813 30.2948 28.0871 30.0284 28.0871H1.97155C1.70515 28.0871 1.44967 27.9813 1.2613 27.7929C1.07293 27.6046 0.967102 27.3491 0.967102 27.0827V9.45068Z" fill="url(#paint0_linear_868_8506)"/>
<path d="M1.97686 3.91113H30.0231C30.2895 3.91113 30.545 4.01696 30.7333 4.20533C30.9217 4.3937 31.0275 4.64918 31.0275 4.91558V9.44891H0.972414V4.91736C0.97218 4.7853 0.997988 4.6545 1.04836 4.53242C1.09874 4.41035 1.17268 4.29942 1.26598 4.20596C1.35927 4.1125 1.47008 4.03835 1.59206 3.98776C1.71404 3.93717 1.8448 3.91113 1.97686 3.91113Z" fill="#0078D4"/>
<path d="M24.7111 13.0133H17.2711C17.1919 13.0134 17.1146 12.9898 17.0489 12.9457L14.9155 11.5324C14.8505 11.4881 14.7737 11.4646 14.6951 11.4648H8.44797C8.34235 11.4648 8.24106 11.5068 8.16638 11.5815C8.0917 11.6562 8.04974 11.7575 8.04974 11.8631V25.0044C8.04974 25.0566 8.06006 25.1083 8.08009 25.1565C8.10013 25.2047 8.12949 25.2485 8.16649 25.2854C8.20349 25.3222 8.2474 25.3514 8.29571 25.3712C8.34401 25.391 8.39575 25.4011 8.44797 25.4008H24.7111C24.8164 25.4008 24.9174 25.3591 24.992 25.2848C25.0667 25.2105 25.1088 25.1097 25.1093 25.0044V13.4115C25.1093 13.3059 25.0673 13.2046 24.9927 13.1299C24.918 13.0552 24.8167 13.0133 24.7111 13.0133Z" fill="#5EA0EF"/>
<path d="M13.1093 12.2754H9.33688C9.24066 12.2754 9.16266 12.3534 9.16266 12.4496V12.9261C9.16266 13.0223 9.24066 13.1003 9.33688 13.1003H13.1093C13.2055 13.1003 13.2835 13.0223 13.2835 12.9261V12.4496C13.2835 12.3534 13.2055 12.2754 13.1093 12.2754Z" fill="white"/>
<path d="M9.86844 12.2754H9.28177C9.21599 12.2754 9.16266 12.3287 9.16266 12.3945V12.9812C9.16266 13.047 9.21599 13.1003 9.28177 13.1003H9.86844C9.93422 13.1003 9.98755 13.047 9.98755 12.9812V12.3945C9.98755 12.3287 9.93422 12.2754 9.86844 12.2754Z" fill="#0078D4"/>
<path opacity="0.9" d="M24.7111 12.9937H16.5333C16.4272 12.9937 16.3256 13.0359 16.2506 13.111L14.9369 14.4248C14.8619 14.4998 14.7602 14.542 14.6542 14.5421H8.44797C8.34235 14.5421 8.24106 14.5841 8.16638 14.6587C8.0917 14.7334 8.04974 14.8347 8.04974 14.9403V24.9848C8.04974 25.037 8.06006 25.0887 8.08009 25.1369C8.10013 25.1851 8.12949 25.2289 8.16649 25.2657C8.20349 25.3026 8.2474 25.3317 8.29571 25.3515C8.34401 25.3714 8.39575 25.3814 8.44797 25.3812H24.7111C24.8164 25.3812 24.9174 25.3395 24.992 25.2652C25.0667 25.1909 25.1088 25.0901 25.1093 24.9848V13.3919C25.1093 13.2863 25.0673 13.185 24.9927 13.1103C24.918 13.0356 24.8167 12.9937 24.7111 12.9937Z" fill="white"/>
<defs>
<linearGradient id="paint0_linear_868_8506" x1="16" y1="28.0871" x2="16" y2="9.45068" gradientUnits="userSpaceOnUse">
<stop stop-color="#32BEDD"/>
<stop offset="0.775" stop-color="#32D4F5"/>
</linearGradient>
</defs>
</svg>
