<svg width="32" height="32" viewBox="0 0 32 32" fill="none" xmlns="http://www.w3.org/2000/svg">
<path d="M0.967102 9.45068H31.0329V27.0827C31.0329 27.3491 30.9271 27.6046 30.7387 27.7929C30.5503 27.9813 30.2948 28.0871 30.0284 28.0871H1.97155C1.70515 28.0871 1.44967 27.9813 1.2613 27.7929C1.07293 27.6046 0.967102 27.3491 0.967102 27.0827V9.45068Z" fill="url(#paint0_linear_868_8440)"/>
<path d="M1.97689 3.91113H30.0231C30.2895 3.91113 30.545 4.01696 30.7334 4.20533C30.9217 4.3937 31.0276 4.64918 31.0276 4.91558V9.44891H0.972444V4.91736C0.97221 4.7853 0.998019 4.6545 1.04839 4.53242C1.09877 4.41035 1.17272 4.29942 1.26601 4.20596C1.3593 4.1125 1.47011 4.03835 1.59209 3.98776C1.71407 3.93717 1.84483 3.91113 1.97689 3.91113Z" fill="#0078D4"/>
<path d="M24.0498 13.0613H16.6827C16.6044 13.0611 16.5278 13.0382 16.4622 12.9955L14.3591 11.5964C14.2947 11.5523 14.2185 11.5288 14.1404 11.5288H7.95021C7.84554 11.5288 7.74516 11.5704 7.67114 11.6444C7.59713 11.7184 7.55555 11.8188 7.55555 11.9235V24.9279C7.55531 24.9798 7.56536 25.0312 7.58511 25.0792C7.60486 25.1272 7.63392 25.1708 7.67062 25.2075C7.70731 25.2442 7.75091 25.2733 7.7989 25.293C7.84689 25.3128 7.89832 25.3228 7.95021 25.3226H24.0498C24.1017 25.3228 24.1531 25.3128 24.2011 25.293C24.2491 25.2733 24.2927 25.2442 24.3294 25.2075C24.3661 25.1708 24.3951 25.1272 24.4149 25.0792C24.4346 25.0312 24.4447 24.9798 24.4444 24.9279V13.4559C24.4444 13.3512 24.4029 13.2509 24.3288 13.1768C24.2548 13.1028 24.1544 13.0613 24.0498 13.0613Z" fill="#F78D1E"/>
<path d="M12.768 12.2847H9.25333C9.16398 12.2847 9.09155 12.3571 9.09155 12.4464V12.8909C9.09155 12.9802 9.16398 13.0527 9.25333 13.0527H12.768C12.8573 13.0527 12.9298 12.9802 12.9298 12.8909V12.4464C12.9298 12.3571 12.8573 12.2847 12.768 12.2847Z" fill="white"/>
<path d="M9.74933 12.2847H9.20178C9.1409 12.2847 9.09155 12.334 9.09155 12.3949V12.9424C9.09155 13.0033 9.1409 13.0527 9.20178 13.0527H9.74933C9.81021 13.0527 9.85955 13.0033 9.85955 12.9424V12.3949C9.85955 12.334 9.81021 12.2847 9.74933 12.2847Z" fill="#D15900"/>
<path d="M24.0498 13.0435H15.9591C15.9075 13.0427 15.8562 13.0522 15.8083 13.0715C15.7604 13.0907 15.7168 13.1193 15.68 13.1555L14.3787 14.4551C14.3423 14.4922 14.2988 14.5217 14.2509 14.5418C14.203 14.562 14.1515 14.5724 14.0995 14.5724H7.95021C7.89847 14.5722 7.84719 14.5821 7.79931 14.6018C7.75144 14.6214 7.70792 14.6503 7.67125 14.6868C7.63458 14.7233 7.60548 14.7667 7.58562 14.8145C7.56577 14.8623 7.55555 14.9135 7.55555 14.9653V24.9048C7.55531 24.9567 7.56536 25.0082 7.58511 25.0561C7.60486 25.1041 7.63392 25.1477 7.67062 25.1844C7.70731 25.2211 7.75091 25.2502 7.7989 25.2699C7.84689 25.2897 7.89832 25.2997 7.95021 25.2995H24.0498C24.1017 25.2997 24.1531 25.2897 24.2011 25.2699C24.2491 25.2502 24.2927 25.2211 24.3294 25.1844C24.3661 25.1477 24.3951 25.1041 24.4149 25.0561C24.4346 25.0082 24.4447 24.9567 24.4444 24.9048V13.4364C24.4444 13.3846 24.4342 13.3334 24.4144 13.2856C24.3945 13.2378 24.3654 13.1945 24.3287 13.1579C24.2921 13.1214 24.2485 13.0925 24.2007 13.0729C24.1528 13.0533 24.1015 13.0433 24.0498 13.0435Z" fill="white"/>
<defs>
<linearGradient id="paint0_linear_868_8440" x1="16" y1="28.0871" x2="16" y2="9.45068" gradientUnits="userSpaceOnUse">
<stop stop-color="#32BEDD"/>
<stop offset="0.775" stop-color="#32D4F5"/>
</linearGradient>
</defs>
</svg>
