<svg width="32" height="32" viewBox="0 0 32 32" fill="none" xmlns="http://www.w3.org/2000/svg">
<path d="M0.967102 9.45068H31.0329V27.0827C31.0329 27.3491 30.9271 27.6046 30.7387 27.7929C30.5503 27.9813 30.2948 28.0871 30.0284 28.0871H1.97155C1.70515 28.0871 1.44967 27.9813 1.2613 27.7929C1.07293 27.6046 0.967102 27.3491 0.967102 27.0827V9.45068Z" fill="url(#paint0_linear_868_8488)"/>
<path d="M1.97689 3.91113H30.0231C30.2895 3.91113 30.545 4.01696 30.7334 4.20533C30.9217 4.3937 31.0276 4.64918 31.0276 4.91558V9.44891H0.972444V4.91736C0.97221 4.7853 0.998019 4.6545 1.04839 4.53242C1.09877 4.41035 1.17272 4.29942 1.26601 4.20596C1.3593 4.1125 1.47011 4.03835 1.59209 3.98776C1.71407 3.93717 1.84483 3.91113 1.97689 3.91113Z" fill="#773ADC"/>
<path d="M10.7271 11.4399H5.15377C4.88474 11.4399 4.66666 11.658 4.66666 11.9271V25.0559C4.66666 25.325 4.88474 25.5431 5.15377 25.5431H10.7271C10.9961 25.5431 11.2142 25.325 11.2142 25.0559V11.9271C11.2142 11.658 10.9961 11.4399 10.7271 11.4399Z" fill="white"/>
<path opacity="0.75" d="M18.7858 11.4399H13.2124C12.9434 11.4399 12.7253 11.658 12.7253 11.9271V25.0559C12.7253 25.325 12.9434 25.5431 13.2124 25.5431H18.7858C19.0548 25.5431 19.2729 25.325 19.2729 25.0559V11.9271C19.2729 11.658 19.0548 11.4399 18.7858 11.4399Z" fill="white"/>
<path opacity="0.5" d="M26.8462 11.4399H21.2729C21.0039 11.4399 20.7858 11.658 20.7858 11.9271V25.0559C20.7858 25.325 21.0039 25.5431 21.2729 25.5431H26.8462C27.1152 25.5431 27.3333 25.325 27.3333 25.0559V11.9271C27.3333 11.658 27.1152 11.4399 26.8462 11.4399Z" fill="white"/>
<defs>
<linearGradient id="paint0_linear_868_8488" x1="16" y1="28.0871" x2="16" y2="9.45068" gradientUnits="userSpaceOnUse">
<stop stop-color="#A67AF4"/>
<stop offset="0.775" stop-color="#B796F9"/>
</linearGradient>
</defs>
</svg>
