<svg width="32" height="32" viewBox="0 0 32 32" fill="none" xmlns="http://www.w3.org/2000/svg">
<g clip-path="url(#clip0_868_8439)">
<path d="M24.1067 12.7821C24.4491 12.4403 24.7208 12.0344 24.9061 11.5875C25.0914 11.1406 25.1868 10.6615 25.1868 10.1777C25.1868 9.69388 25.0914 9.21482 24.9061 8.76792C24.7208 8.32102 24.4491 7.91505 24.1067 7.57324L17.7778 1.22658C17.4375 0.884715 17.0331 0.613443 16.5876 0.42834C16.1422 0.243237 15.6646 0.147949 15.1823 0.147949C14.6999 0.147949 14.2223 0.243237 13.7769 0.42834C13.3315 0.613443 12.927 0.884715 12.5867 1.22658L6.25781 7.57324C5.57488 8.26811 5.1922 9.20341 5.1922 10.1777C5.1922 11.152 5.57488 12.0873 6.25781 12.7821L11.5911 18.1155C11.7798 18.3119 11.8877 18.5721 11.8934 18.8444V28.6577C11.891 28.822 11.9212 28.9851 11.9822 29.1377C12.0433 29.2903 12.1339 29.4292 12.2489 29.5466L14.6489 31.9466C14.7238 32.0274 14.8146 32.0918 14.9155 32.1359C15.0165 32.1799 15.1254 32.2027 15.2356 32.2027C15.3457 32.2027 15.4547 32.1799 15.5557 32.1359C15.6566 32.0918 15.7474 32.0274 15.8223 31.9466L18.1511 29.6177L19.52 28.2488C19.5663 28.2056 19.6032 28.1533 19.6285 28.0952C19.6537 28.037 19.6667 27.9744 19.6667 27.911C19.6667 27.8477 19.6537 27.785 19.6285 27.7269C19.6032 27.6688 19.5663 27.6165 19.52 27.5732L18.5423 26.5777C18.4917 26.5295 18.4514 26.4716 18.4239 26.4074C18.3964 26.3433 18.3823 26.2742 18.3823 26.2044C18.3823 26.1345 18.3964 26.0654 18.4239 26.0013C18.4514 25.9371 18.4917 25.8792 18.5423 25.831L19.52 24.8355C19.5663 24.7922 19.6032 24.7399 19.6285 24.6818C19.6537 24.6237 19.6667 24.561 19.6667 24.4977C19.6667 24.4343 19.6537 24.3717 19.6285 24.3136C19.6032 24.2555 19.5663 24.2032 19.52 24.1599L18.4889 23.111C18.4388 23.0644 18.3989 23.008 18.3716 22.9453C18.3443 22.8826 18.3302 22.815 18.3302 22.7466C18.3302 22.6782 18.3443 22.6105 18.3716 22.5478C18.3989 22.4851 18.4388 22.4287 18.4889 22.3821L19.5556 21.3332C19.6019 21.29 19.6388 21.2377 19.664 21.1796C19.6893 21.1215 19.7023 21.0588 19.7023 20.9955C19.7023 20.9321 19.6893 20.8694 19.664 20.8113C19.6388 20.7532 19.6019 20.7009 19.5556 20.6577L18.1867 19.271V18.7732L24.1067 12.7821ZM15.2178 2.75547C15.6319 2.75898 16.0358 2.88498 16.3784 3.11761C16.721 3.35024 16.9871 3.67909 17.1432 4.0627C17.2992 4.44631 17.3382 4.86754 17.2553 5.27329C17.1724 5.67904 16.9712 6.05116 16.6771 6.34277C16.383 6.63437 16.0092 6.83241 15.6028 6.91192C15.1964 6.99143 14.7755 6.94886 14.3932 6.78958C14.0109 6.63029 13.6843 6.36142 13.4546 6.01684C13.2249 5.67226 13.1023 5.26738 13.1023 4.85324C13.0999 4.5786 13.152 4.30621 13.2555 4.0518C13.3589 3.79739 13.5118 3.56599 13.7051 3.37096C13.8985 3.17592 14.1286 3.02112 14.3821 2.91548C14.6357 2.80984 14.9076 2.75546 15.1823 2.75547H15.2178Z" fill="url(#paint0_radial_868_8439)"/>
<path opacity="0.75" d="M13.5466 28.8176C13.6136 28.8584 13.6901 28.8807 13.7684 28.8824C13.8468 28.884 13.9242 28.8649 13.9928 28.827C14.0614 28.7891 14.1187 28.7337 14.159 28.6665C14.1993 28.5993 14.2211 28.5226 14.2222 28.4443V20.5332C14.2229 20.4572 14.2055 20.3821 14.1715 20.3141C14.1376 20.2461 14.0879 20.1871 14.0266 20.1421C13.9582 20.0956 13.8781 20.0692 13.7955 20.0658C13.7128 20.0624 13.6308 20.0821 13.5588 20.1228C13.4867 20.1634 13.4274 20.2234 13.3876 20.2959C13.3478 20.3684 13.329 20.4506 13.3333 20.5332V28.4443C13.3374 28.5188 13.3588 28.5914 13.3958 28.6562C13.4329 28.721 13.4845 28.7763 13.5466 28.8176Z" fill="#FF9300"/>
<path opacity="0.75" d="M19.9644 9.68896H10.6844C10.3702 9.68896 10.1155 9.94367 10.1155 10.2579V10.3467C10.1155 10.6609 10.3702 10.9156 10.6844 10.9156H19.9644C20.2786 10.9156 20.5333 10.6609 20.5333 10.3467V10.2579C20.5333 9.94367 20.2786 9.68896 19.9644 9.68896Z" fill="#FF9300"/>
<path opacity="0.75" d="M19.9644 11.6802H10.6844C10.3702 11.6802 10.1155 11.9349 10.1155 12.2491V12.338C10.1155 12.6521 10.3702 12.9068 10.6844 12.9068H19.9644C20.2786 12.9068 20.5333 12.6521 20.5333 12.338V12.2491C20.5333 11.9349 20.2786 11.6802 19.9644 11.6802Z" fill="#FF9300"/>
</g>
<defs>
<radialGradient id="paint0_radial_868_8439" cx="0" cy="0" r="1" gradientUnits="userSpaceOnUse" gradientTransform="translate(13.2406 15.4538) scale(18.683 18.683)">
<stop offset="0.27" stop-color="#FFD70F"/>
<stop offset="0.49" stop-color="#FFCB12"/>
<stop offset="0.88" stop-color="#FEAC19"/>
<stop offset="1" stop-color="#FEA11B"/>
</radialGradient>
<clipPath id="clip0_868_8439">
<rect width="32" height="32" fill="white"/>
</clipPath>
</defs>
</svg>
