<svg width="32" height="32" viewBox="0 0 32 32" fill="none" xmlns="http://www.w3.org/2000/svg">
<path d="M0.888916 10.2896H31.1111V27.1393C31.1111 27.4071 31.0048 27.664 30.8154 27.8533C30.626 28.0427 30.3692 28.1491 30.1014 28.1491H1.89869C1.63088 28.1491 1.37404 28.0427 1.18467 27.8533C0.995303 27.664 0.888916 27.4071 0.888916 27.1393V10.2896Z" fill="url(#paint0_linear_868_8438)"/>
<path d="M1.90403 3.8506H30.096C30.2286 3.8506 30.3599 3.87672 30.4825 3.92746C30.605 3.97821 30.7163 4.05259 30.81 4.14636C30.9038 4.24012 30.9782 4.35144 31.0289 4.47395C31.0797 4.59646 31.1058 4.72777 31.1058 4.86038V10.2897H0.888916V4.86038C0.888914 4.72732 0.915209 4.59558 0.966288 4.47272C1.01737 4.34986 1.09222 4.2383 1.18656 4.14447C1.28089 4.05063 1.39284 3.97636 1.51596 3.92593C1.63909 3.8755 1.77097 3.8499 1.90403 3.8506Z" fill="#0078D4"/>
<path opacity="0.9" d="M10.0818 12.6597H4.59912C4.32126 12.6597 4.09601 12.8849 4.09601 13.1628V15.4454C4.09601 15.7233 4.32126 15.9486 4.59912 15.9486H10.0818C10.3596 15.9486 10.5849 15.7233 10.5849 15.4454V13.1628C10.5849 12.8849 10.3596 12.6597 10.0818 12.6597Z" fill="white"/>
<path opacity="0.9" d="M18.7858 12.6133H13.3032C13.0253 12.6133 12.8 12.8385 12.8 13.1164V15.3991C12.8 15.6769 13.0253 15.9022 13.3032 15.9022H18.7858C19.0637 15.9022 19.2889 15.6769 19.2889 15.3991V13.1164C19.2889 12.8385 19.0637 12.6133 18.7858 12.6133Z" fill="white"/>
<path opacity="0.9" d="M27.4898 12.6133H22.0071C21.7293 12.6133 21.504 12.8385 21.504 13.1164V15.3991C21.504 15.6769 21.7293 15.9022 22.0071 15.9022H27.4898C27.7677 15.9022 27.9929 15.6769 27.9929 15.3991V13.1164C27.9929 12.8385 27.7677 12.6133 27.4898 12.6133Z" fill="white"/>
<path opacity="0.9" d="M10.1778 17.3633H4.69513C4.41727 17.3633 4.19202 17.5885 4.19202 17.8664V20.1491C4.19202 20.4269 4.41727 20.6522 4.69513 20.6522H10.1778C10.4557 20.6522 10.6809 20.4269 10.6809 20.1491V17.8664C10.6809 17.5885 10.4557 17.3633 10.1778 17.3633Z" fill="white"/>
<path d="M18.8818 17.3174H13.3992C13.1213 17.3174 12.8961 17.5426 12.8961 17.8205V20.1032C12.8961 20.381 13.1213 20.6063 13.3992 20.6063H18.8818C19.1597 20.6063 19.3849 20.381 19.3849 20.1032V17.8205C19.3849 17.5426 19.1597 17.3174 18.8818 17.3174Z" fill="#FFD400"/>
<path d="M27.5858 17.3174H22.1031C21.8253 17.3174 21.6 17.5426 21.6 17.8205V20.1032C21.6 20.381 21.8253 20.6063 22.1031 20.6063H27.5858C27.8637 20.6063 28.0889 20.381 28.0889 20.1032V17.8205C28.0889 17.5426 27.8637 17.3174 27.5858 17.3174Z" fill="#FFD400"/>
<path d="M10.1778 22.1138H4.69513C4.41727 22.1138 4.19202 22.339 4.19202 22.6169V24.8995C4.19202 25.1774 4.41727 25.4027 4.69513 25.4027H10.1778C10.4557 25.4027 10.6809 25.1774 10.6809 24.8995V22.6169C10.6809 22.339 10.4557 22.1138 10.1778 22.1138Z" fill="#FFD400"/>
<path d="M18.8818 22.0674H13.3992C13.1213 22.0674 12.8961 22.2926 12.8961 22.5705V24.8532C12.8961 25.131 13.1213 25.3563 13.3992 25.3563H18.8818C19.1597 25.3563 19.3849 25.131 19.3849 24.8532V22.5705C19.3849 22.2926 19.1597 22.0674 18.8818 22.0674Z" fill="#FFD400"/>
<path d="M27.5858 22.0674H22.1031C21.8253 22.0674 21.6 22.2926 21.6 22.5705V24.8532C21.6 25.131 21.8253 25.3563 22.1031 25.3563H27.5858C27.8637 25.3563 28.0889 25.131 28.0889 24.8532V22.5705C28.0889 22.2926 27.8637 22.0674 27.5858 22.0674Z" fill="#FFD400"/>
<defs>
<linearGradient id="paint0_linear_868_8438" x1="16" y1="28.1491" x2="16" y2="10.2896" gradientUnits="userSpaceOnUse">
<stop stop-color="#0078D4"/>
<stop offset="0.502" stop-color="#4093E6"/>
<stop offset="0.775" stop-color="#5EA0EF"/>
</linearGradient>
</defs>
</svg>
