<svg width="32" height="32" viewBox="0 0 32 32" fill="none" xmlns="http://www.w3.org/2000/svg">
<g clip-path="url(#clip0_868_8437)">
<path d="M31.3955 5.08427L27.1466 0.870932C27.0483 0.767617 26.9296 0.685834 26.798 0.630753C26.6664 0.575672 26.5248 0.548493 26.3822 0.550932L18.5066 0.853154C18.3704 0.846627 18.2344 0.87034 18.1083 0.922592C17.9823 0.974844 17.8694 1.05434 17.7778 1.15538L0.604421 18.2576C0.41009 18.454 0.301086 18.7191 0.301086 18.9954C0.301086 19.2717 0.41009 19.5368 0.604421 19.7332L12.0533 31.1287C12.2527 31.3242 12.5208 31.4336 12.8 31.4336C13.0792 31.4336 13.3473 31.3242 13.5466 31.1287L30.7733 14.0087C30.9502 13.8332 31.0576 13.5995 31.0755 13.3509L31.6978 5.90204C31.7114 5.75183 31.6914 5.60047 31.6391 5.45899C31.5868 5.31751 31.5036 5.18949 31.3955 5.08427ZM26.2755 7.87538C25.895 7.87536 25.5231 7.76229 25.207 7.55052C24.8909 7.33875 24.6448 7.03783 24.5 6.68596C24.3553 6.33409 24.3183 5.94714 24.3938 5.57422C24.4694 5.2013 24.654 4.85923 24.9243 4.59143C25.1946 4.32364 25.5384 4.14219 25.912 4.07013C26.2856 3.99806 26.6722 4.03863 27.0227 4.18668C27.3732 4.33473 27.6718 4.58359 27.8806 4.90166C28.0894 5.21973 28.1991 5.59268 28.1955 5.97315C28.1955 6.22446 28.1458 6.47328 28.0491 6.70523C27.9523 6.93719 27.8106 7.14768 27.6321 7.32455C27.4536 7.50143 27.2418 7.64117 27.0089 7.73571C26.7761 7.83026 26.5268 7.87773 26.2755 7.87538Z" fill="url(#paint0_linear_868_8437)"/>
<path d="M26.2756 2.56006C25.6012 2.56357 24.9431 2.76674 24.3841 3.14393C23.8251 3.52112 23.3904 4.05543 23.1348 4.67944C22.8791 5.30344 22.8141 5.98918 22.9478 6.65013C23.0815 7.31108 23.408 7.91761 23.886 8.3932C24.3641 8.86878 24.9723 9.19211 25.6339 9.32238C26.2956 9.45265 26.981 9.38403 27.6036 9.12516C28.2263 8.8663 28.7584 8.42881 29.1326 7.86788C29.5069 7.30695 29.7067 6.64773 29.7067 5.97339C29.702 5.06649 29.3384 4.19833 28.6955 3.55871C28.0525 2.9191 27.1825 2.56005 26.2756 2.56006ZM28.16 6.34672C28.0922 6.68772 27.933 7.00389 27.6995 7.26149C27.466 7.51909 27.1669 7.70846 26.8342 7.80937C26.5015 7.91029 26.1476 7.91897 25.8104 7.83448C25.4731 7.75 25.1651 7.57552 24.9193 7.32968C24.6734 7.08383 24.499 6.77584 24.4145 6.43858C24.33 6.10132 24.3387 5.74745 24.4396 5.41474C24.5405 5.08203 24.7299 4.78297 24.9875 4.54947C25.2451 4.31597 25.5612 4.1568 25.9022 4.08895C26.2119 4.02732 26.532 4.04304 26.8342 4.13469C27.1364 4.22634 27.4113 4.39111 27.6346 4.61439C27.8578 4.83767 28.0226 5.11257 28.1143 5.41474C28.2059 5.71692 28.2216 6.03703 28.16 6.34672Z" fill="#552F99"/>
</g>
<defs>
<linearGradient id="paint0_linear_868_8437" x1="16" y1="0.550932" x2="16" y2="31.4487" gradientUnits="userSpaceOnUse">
<stop stop-color="#C69AEB"/>
<stop offset="0.09" stop-color="#BB90E4"/>
<stop offset="0.49" stop-color="#926BC9"/>
<stop offset="0.81" stop-color="#7854B8"/>
<stop offset="1" stop-color="#6F4BB2"/>
</linearGradient>
<clipPath id="clip0_868_8437">
<rect width="32" height="32" fill="white"/>
</clipPath>
</defs>
</svg>
