<svg width="32" height="32" viewBox="0 0 32 32" fill="none" xmlns="http://www.w3.org/2000/svg">
<path d="M26.6258 4.44426L23.2889 1.12871C23.2078 1.04888 23.1112 0.986425 23.0052 0.945161C22.8991 0.903896 22.7857 0.884687 22.672 0.888706L16.4818 1.11448C16.2731 1.12108 16.0748 1.2069 15.9271 1.35448L2.38578 14.8247C2.30934 14.901 2.2487 14.9916 2.20733 15.0914C2.16595 15.1911 2.14465 15.298 2.14465 15.406C2.14465 15.514 2.16595 15.621 2.20733 15.7207C2.2487 15.8205 2.30934 15.9111 2.38578 15.9874L11.4062 24.9598C11.5612 25.1145 11.7712 25.2014 11.9902 25.2014C12.2092 25.2014 12.4192 25.1145 12.5742 24.9598L26.1333 11.4736C26.2715 11.337 26.3561 11.1553 26.3716 10.9616L26.8676 5.09493C26.8773 4.97539 26.8607 4.85516 26.819 4.74273C26.7772 4.63031 26.7112 4.52842 26.6258 4.44426ZM22.5973 6.64337C22.3013 6.64162 22.0124 6.55223 21.7672 6.38649C21.5219 6.22075 21.3312 5.98608 21.2191 5.71209C21.107 5.43809 21.0786 5.13704 21.1374 4.84692C21.1963 4.55679 21.3397 4.29059 21.5496 4.08189C21.7596 3.87318 22.0266 3.73133 22.3171 3.67422C22.6076 3.61711 22.9084 3.6473 23.1818 3.76099C23.4551 3.87468 23.6886 4.06676 23.8529 4.31302C24.0172 4.55928 24.1049 4.84868 24.1049 5.14471C24.1044 5.34213 24.065 5.53753 23.989 5.71972C23.913 5.90192 23.8018 6.06734 23.6618 6.20653C23.5217 6.34571 23.3557 6.45594 23.173 6.5309C22.9904 6.60585 22.7948 6.64407 22.5973 6.64337Z" fill="#773ADC"/>
<path d="M22.5973 2.45851C22.0662 2.46132 21.5479 2.6214 21.1077 2.91854C20.6675 3.21569 20.3252 3.63657 20.1239 4.12809C19.9227 4.6196 19.8716 5.1597 19.9771 5.68023C20.0825 6.20076 20.3398 6.67838 20.7165 7.05281C21.0932 7.42724 21.5723 7.6817 22.0935 7.78407C22.6146 7.88644 23.1544 7.83213 23.6447 7.628C24.135 7.42386 24.5539 7.07906 24.8484 6.6371C25.1429 6.19514 25.2999 5.67584 25.2996 5.14473C25.2986 4.79089 25.228 4.4407 25.0916 4.11417C24.9553 3.78764 24.756 3.49117 24.505 3.24171C24.2541 2.99225 23.9564 2.79468 23.6291 2.66029C23.3018 2.52591 22.9512 2.45734 22.5973 2.45851ZM24.0764 5.43807C24.0247 5.70634 23.901 5.95549 23.7186 6.1589C23.5362 6.36231 23.3019 6.51233 23.0408 6.59291C22.7798 6.67349 22.5017 6.68161 22.2364 6.6164C21.9711 6.55119 21.7285 6.41511 21.5345 6.22269C21.3405 6.03027 21.2025 5.78876 21.1351 5.52397C21.0678 5.25918 21.0737 4.98107 21.1522 4.71936C21.2307 4.45766 21.3788 4.2222 21.5807 4.03817C21.7827 3.85413 22.0308 3.72843 22.2987 3.67451C22.5418 3.62192 22.7943 3.6309 23.0331 3.70065C23.2719 3.7704 23.4895 3.89871 23.6661 4.07391C23.8427 4.24912 23.9727 4.46567 24.0444 4.7039C24.1161 4.94213 24.1271 5.1945 24.0764 5.43807Z" fill="#341A6E"/>
<path d="M29.6142 10.3608L26.2756 7.03991C26.195 6.95988 26.0988 6.89727 25.993 6.85598C25.8871 6.8147 25.774 6.79561 25.6605 6.79991L19.4685 7.02391C19.2602 7.03241 19.0626 7.11794 18.9138 7.26391L5.37424 20.7341C5.29737 20.8102 5.23635 20.9007 5.19471 21.0005C5.15306 21.1003 5.13162 21.2073 5.13162 21.3155C5.13162 21.4236 5.15306 21.5306 5.19471 21.6304C5.23635 21.7302 5.29737 21.8208 5.37424 21.8968L14.4 30.871C14.5555 31.0249 14.7653 31.1111 14.984 31.1111C15.2027 31.1111 15.4126 31.0249 15.568 30.871L29.12 17.3848C29.2572 17.2475 29.3415 17.0662 29.3582 16.8728L29.8525 11.0061C29.8621 10.8877 29.8458 10.7686 29.8047 10.6571C29.7635 10.5457 29.6985 10.4445 29.6142 10.3608ZM25.5858 12.5546C25.2897 12.5532 25.0006 12.4641 24.7551 12.2986C24.5096 12.133 24.3186 11.8985 24.2063 11.6245C24.0939 11.3505 24.0653 11.0494 24.1239 10.7592C24.1825 10.469 24.3258 10.2026 24.5357 9.9937C24.7456 9.78482 25.0126 9.64279 25.3031 9.58554C25.5937 9.52829 25.8946 9.55838 26.1681 9.67202C26.4415 9.78565 26.6751 9.97774 26.8395 10.224C27.0038 10.4703 27.0916 10.7598 27.0916 11.0559C27.0902 11.4542 26.9308 11.8356 26.6486 12.1166C26.3663 12.3975 25.9841 12.5551 25.5858 12.5546Z" fill="url(#paint0_linear_868_8520)"/>
<path d="M25.5858 8.36768C25.0547 8.37014 24.5362 8.52988 24.0958 8.82673C23.6554 9.12358 23.3128 9.54424 23.1113 10.0356C22.9098 10.527 22.8583 11.0671 22.9634 11.5877C23.0685 12.1083 23.3255 12.5861 23.7019 12.9607C24.0784 13.3354 24.5573 13.5902 25.0784 13.6929C25.5995 13.7956 26.1393 13.7417 26.6298 13.5379C27.1202 13.334 27.5393 12.9895 27.8341 12.5478C28.1289 12.106 28.2862 11.5868 28.2862 11.0557C28.2844 10.3412 27.9989 9.65671 27.4925 9.15266C26.9861 8.64861 26.3003 8.36626 25.5858 8.36768ZM27.0631 11.349C27.0114 11.6173 26.8877 11.8664 26.7053 12.0699C26.5229 12.2733 26.2886 12.4233 26.0275 12.5039C25.7665 12.5844 25.4884 12.5926 25.2231 12.5274C24.9578 12.4621 24.7151 12.3261 24.5212 12.1336C24.3272 11.9412 24.1892 11.6997 24.1218 11.4349C24.0545 11.1701 24.0604 10.892 24.1389 10.6303C24.2174 10.3686 24.3655 10.1332 24.5674 9.94912C24.7694 9.76508 25.0175 9.63938 25.2854 9.58546C25.5284 9.53382 25.7804 9.54348 26.0188 9.61357C26.2571 9.68367 26.4743 9.81198 26.6507 9.98695C26.8271 10.1619 26.9571 10.378 27.0291 10.6158C27.1011 10.8536 27.1128 11.1056 27.0631 11.349Z" fill="#552F99"/>
<path d="M27.0631 11.349C27.0113 11.6172 26.8876 11.8664 26.7052 12.0698C26.5228 12.2732 26.2886 12.4232 26.0275 12.5038C25.7664 12.5844 25.4884 12.5925 25.2231 12.5273C24.9577 12.4621 24.7151 12.326 24.5212 12.1336C24.3272 11.9412 24.1892 11.6997 24.1218 11.4349C24.0545 11.1701 24.0604 10.892 24.1389 10.6303C24.2173 10.3686 24.3655 10.1331 24.5674 9.94908C24.7693 9.76505 25.0175 9.63935 25.2853 9.58543C25.5284 9.53379 25.7804 9.54345 26.0188 9.61354C26.2571 9.68363 26.4743 9.81195 26.6507 9.98692C26.8271 10.1619 26.9571 10.378 27.0291 10.6158C27.1011 10.8536 27.1128 11.1056 27.0631 11.349Z" fill="white"/>
<path d="M24.0765 5.43793C24.0247 5.7062 23.901 5.95536 23.7186 6.15877C23.5362 6.36218 23.3019 6.51219 23.0408 6.59278C22.7798 6.67336 22.5017 6.68148 22.2364 6.61627C21.9711 6.55106 21.7285 6.41498 21.5345 6.22256C21.3405 6.03014 21.2025 5.78863 21.1352 5.52384C21.0678 5.25905 21.0737 4.98093 21.1522 4.71923C21.2307 4.45753 21.3788 4.22207 21.5807 4.03804C21.7827 3.854 22.0308 3.7283 22.2987 3.67438C22.5418 3.62178 22.7943 3.63077 23.0331 3.70052C23.2719 3.77027 23.4895 3.89858 23.6661 4.07378C23.8427 4.24899 23.9727 4.46554 24.0444 4.70377C24.1161 4.942 24.1271 5.19437 24.0765 5.43793Z" fill="white"/>
<defs>
<linearGradient id="paint0_linear_868_8520" x1="17.4933" y1="6.79991" x2="17.4933" y2="31.111" gradientUnits="userSpaceOnUse">
<stop stop-color="#C69AEB"/>
<stop offset="1" stop-color="#6F4BB2"/>
</linearGradient>
</defs>
</svg>
