<svg width="32" height="32" viewBox="0 0 32 32" fill="none" xmlns="http://www.w3.org/2000/svg">
<path d="M17.0489 1.27995H4.19556C4.06183 1.27754 3.92898 1.3021 3.80494 1.35217C3.68091 1.40224 3.56824 1.4768 3.47366 1.57138C3.37908 1.66596 3.30453 1.77863 3.25445 1.90266C3.20438 2.02669 3.17982 2.15954 3.18223 2.29328V30.0266C3.17982 30.1603 3.20438 30.2932 3.25445 30.4172C3.30453 30.5413 3.37908 30.6539 3.47366 30.7485C3.56824 30.8431 3.68091 30.9176 3.80494 30.9677C3.92898 31.0178 4.06183 31.0424 4.19556 31.0399H26.4711C26.6057 31.0423 26.7394 31.0178 26.8644 30.968C26.9894 30.9181 27.1032 30.8438 27.1992 30.7495C27.2952 30.6552 27.3714 30.5427 27.4234 30.4185C27.4755 30.2944 27.5023 30.1612 27.5022 30.0266V11.6622C27.493 11.3949 27.3803 11.1417 27.1879 10.9559C26.9956 10.7702 26.7385 10.6665 26.4711 10.6666H19.0756C18.8068 10.6666 18.5491 10.5599 18.359 10.3698C18.169 10.1798 18.0622 9.92203 18.0622 9.65328V2.29328C18.0646 2.15954 18.0401 2.02669 17.99 1.90266C17.9399 1.77863 17.8654 1.66596 17.7708 1.57138C17.6762 1.4768 17.5635 1.40224 17.4395 1.35217C17.3155 1.3021 17.1826 1.27754 17.0489 1.27995Z" fill="white"/>
<path d="M16.5867 2.57772V9.54661C16.5867 10.2208 16.8545 10.8675 17.3313 11.3442C17.808 11.821 18.4546 12.0888 19.1289 12.0888H26.24V29.7422H4.51555V2.57772H16.5867ZM17.0667 1.04883H4.01778C3.74431 1.04883 3.48204 1.15746 3.28867 1.35083C3.0953 1.5442 2.98666 1.80647 2.98666 2.07994V30.2222C2.98666 30.4956 3.0953 30.7579 3.28867 30.9513C3.48204 31.1446 3.74431 31.2533 4.01778 31.2533H26.6667C26.9401 31.2533 27.2024 31.1446 27.3958 30.9513C27.5891 30.7579 27.6978 30.4956 27.6978 30.2222V11.6088C27.6755 11.351 27.5571 11.1111 27.3661 10.9365C27.1751 10.762 26.9254 10.6656 26.6667 10.6666H19.1289C18.8554 10.6666 18.5932 10.558 18.3998 10.3646C18.2064 10.1712 18.0978 9.90896 18.0978 9.6355V2.07994C18.0978 1.80647 17.9891 1.5442 17.7958 1.35083C17.6024 1.15746 17.3401 1.04883 17.0667 1.04883Z" fill="url(#paint0_linear_868_8524)"/>
<path d="M27.2889 10.7731L17.7778 1.27979V9.01312C17.7778 9.48462 17.9651 9.9368 18.2985 10.2702C18.6319 10.6036 19.0841 10.7909 19.5555 10.7909L27.2889 10.7731Z" fill="#0078D4"/>
<path d="M9.36887 18.7731C9.40301 19.3053 9.23829 19.8311 8.90665 20.2487C8.74609 20.4257 8.54751 20.5641 8.32582 20.6534C8.10413 20.7426 7.86509 20.7806 7.62665 20.7642C7.38834 20.7638 7.15256 20.7154 6.93332 20.622V19.5553C7.10987 19.6962 7.32972 19.7716 7.55554 19.7687C8.03554 19.7687 8.28443 19.3953 8.28443 18.6665V15.8753H9.36887V18.7731ZM10.1867 20.5509V19.4842C10.3787 19.642 10.5948 19.7681 10.8267 19.8576C11.0438 19.9347 11.2718 19.9767 11.5022 19.982H11.8578L12.1244 19.8753C12.2024 19.785 12.2519 19.6737 12.2667 19.5553C12.2849 19.4914 12.2849 19.4237 12.2667 19.3598C12.2925 19.2788 12.2925 19.1918 12.2667 19.1109C12.2022 19.0322 12.1238 18.9659 12.0355 18.9153C11.9373 18.842 11.8297 18.7822 11.7155 18.7376L11.3067 18.5598C10.9881 18.4369 10.7022 18.2422 10.4711 17.9909C10.2786 17.7628 10.1772 17.4715 10.1867 17.1731C10.1852 16.9461 10.2338 16.7215 10.3289 16.5153C10.42 16.3679 10.534 16.2359 10.6667 16.1242C10.8536 16.0097 11.0577 15.9256 11.2711 15.8753C11.5133 15.8482 11.7578 15.8482 12 15.8753C12.2188 15.8555 12.439 15.8555 12.6578 15.8753C12.8405 15.9016 13.0195 15.9493 13.1911 16.0176V17.0131C13.1104 16.9517 13.0204 16.9037 12.9244 16.8709C12.8375 16.8171 12.7409 16.7809 12.64 16.7642L12.4444 16.6576H12.1067H11.7689C11.6817 16.6822 11.598 16.7181 11.52 16.7642C11.4533 16.7958 11.3974 16.8464 11.3594 16.9097C11.3214 16.973 11.3031 17.0461 11.3067 17.1198C11.2906 17.19 11.2906 17.2629 11.3067 17.3331C11.3635 17.401 11.4293 17.4608 11.5022 17.5109L11.7867 17.6709L12.16 17.8487C12.3382 17.9176 12.5107 18.0009 12.6755 18.0976C12.8165 18.1838 12.9476 18.2851 13.0667 18.3998C13.1721 18.5144 13.2564 18.6468 13.3155 18.7909C13.3739 18.9565 13.4039 19.1308 13.4044 19.3065C13.4125 19.5419 13.3573 19.7752 13.2444 19.982C13.1479 20.1624 13.0072 20.3153 12.8355 20.4265C12.6512 20.5426 12.4458 20.6211 12.2311 20.6576C11.9889 20.6847 11.7444 20.6847 11.5022 20.6576C11.2537 20.6768 11.0041 20.6768 10.7555 20.6576C10.558 20.6275 10.3662 20.5675 10.1867 20.4798V20.5509ZM16.2667 20.8353C15.9565 20.8446 15.6478 20.7894 15.3601 20.6731C15.0725 20.5568 14.8121 20.382 14.5955 20.1598C14.3735 19.9219 14.2009 19.6422 14.088 19.337C13.9751 19.0318 13.924 18.7072 13.9378 18.382C13.9285 17.7283 14.163 17.0945 14.5955 16.6042C14.8245 16.3665 15.1015 16.1801 15.408 16.0575C15.7145 15.9349 16.0435 15.8789 16.3733 15.8931C16.6837 15.8816 16.9931 15.9359 17.2811 16.0523C17.5691 16.1687 17.8292 16.3447 18.0444 16.5687C18.4767 17.0569 18.7001 17.6952 18.6667 18.3465C18.6848 19.0017 18.4491 19.6386 18.0089 20.1242C17.7825 20.3512 17.5093 20.526 17.2084 20.6365C16.9075 20.7471 16.5861 20.7906 16.2667 20.7642V20.8353ZM16.2667 16.7998C16.0924 16.7927 15.9189 16.8278 15.7611 16.9021C15.6032 16.9764 15.4657 17.0877 15.36 17.2265C15.1405 17.562 15.0236 17.9543 15.0236 18.3553C15.0236 18.7563 15.1405 19.1487 15.36 19.4842C15.4648 19.6138 15.5977 19.7179 15.7486 19.7888C15.8994 19.8596 16.0644 19.8953 16.2311 19.8931C16.4009 19.8994 16.5699 19.8656 16.7243 19.7946C16.8787 19.7236 17.0142 19.6173 17.12 19.4842C17.3494 19.1574 17.4621 18.7629 17.44 18.3642C17.4755 17.9557 17.3688 17.5475 17.1378 17.2087C17.0467 17.072 16.9258 16.9577 16.7841 16.8746C16.6425 16.7914 16.4837 16.7415 16.32 16.7287L16.2667 16.7998ZM23.6978 20.7465H22.5955L20.6222 17.7242C20.5381 17.5982 20.461 17.4676 20.3911 17.3331C20.3911 17.4931 20.3911 17.7598 20.3911 18.1153V20.7465H19.3778V15.8753H20.5511L22.4355 18.7909L22.6844 19.182C22.6682 18.9631 22.6682 18.7432 22.6844 18.5242V15.8753H23.7155L23.6978 20.7465Z" fill="#5EA0EF"/>
<defs>
<linearGradient id="paint0_linear_868_8524" x1="15.3422" y1="31.2711" x2="15.3422" y2="1.04883" gradientUnits="userSpaceOnUse">
<stop stop-color="#0078D4"/>
<stop offset="0.82" stop-color="#5EA0EF"/>
</linearGradient>
</defs>
</svg>
