<svg width="32" height="32" viewBox="0 0 32 32" fill="none" xmlns="http://www.w3.org/2000/svg">
<path d="M23.3511 8.2829H21.84V4.30601C21.8247 4.304 21.8091 4.304 21.7938 4.30601H10.3911C10.3758 4.30385 10.3602 4.30385 10.3449 4.30601V8.2829H8.8338V4.22957C8.85045 3.83248 9.0236 3.45812 9.31541 3.1883C9.60721 2.91848 9.99396 2.77513 10.3911 2.78957H21.7938C22.191 2.77513 22.5777 2.91848 22.8695 3.1883C23.1613 3.45812 23.3345 3.83248 23.3511 4.22957V8.2829Z" fill="#A3A3A3"/>
<path d="M30.1031 8.10498H1.89692C1.34021 8.10498 0.888916 8.55628 0.888916 9.11298V28.2028C0.888916 28.7595 1.34021 29.2108 1.89692 29.2108H30.1031C30.6598 29.2108 31.1111 28.7595 31.1111 28.2028V9.11298C31.1111 8.55628 30.6598 8.10498 30.1031 8.10498Z" fill="url(#paint0_linear_868_8444)"/>
<path d="M31.1111 13.5005H0.888916V15.8312H31.1111V13.5005Z" fill="#9CEBFF"/>
<path d="M11.7636 15.8315H20.4445V18.5533C20.4445 18.6189 20.4316 18.6839 20.4065 18.7445C20.3814 18.8051 20.3446 18.8602 20.2982 18.9066C20.2518 18.9529 20.1967 18.9897 20.1361 19.0149C20.0755 19.04 20.0105 19.0529 19.9449 19.0529H12.2667C12.1342 19.0529 12.0072 19.0002 11.9135 18.9066C11.8198 18.8129 11.7672 18.6858 11.7672 18.5533V15.8315H11.7636Z" fill="#005BA1"/>
<path d="M0.888916 19.3672V24.6916L9.14492 27.3387L10.6934 22.5103L0.888916 19.3672Z" fill="#83B9F9"/>
<path d="M31.1112 19.1023C30.3746 18.7245 29.5532 18.5423 28.726 18.5732C27.8987 18.6041 27.0933 18.8469 26.3869 19.2785C25.6805 19.7102 25.0968 20.316 24.6918 21.038C24.2868 21.76 24.0742 22.574 24.0742 23.4018C24.0742 24.2297 24.2868 25.0436 24.6918 25.7656C25.0968 26.4876 25.6805 27.0935 26.3869 27.5251C27.0933 27.9567 27.8987 28.1996 28.726 28.2305C29.5532 28.2613 30.3746 28.0791 31.1112 27.7014V19.1023Z" fill="#5EA0EF"/>
<defs>
<linearGradient id="paint0_linear_868_8444" x1="16" y1="29.2108" x2="16" y2="8.10498" gradientUnits="userSpaceOnUse">
<stop stop-color="#0078D4"/>
<stop offset="0.156" stop-color="#1380DA"/>
<stop offset="0.528" stop-color="#3C91E5"/>
<stop offset="0.822" stop-color="#559CEC"/>
<stop offset="1" stop-color="#5EA0EF"/>
</linearGradient>
</defs>
</svg>
