<svg width="32" height="32" viewBox="0 0 32 32" fill="none" xmlns="http://www.w3.org/2000/svg">
<path d="M25.5466 7.41324L25.6889 7.53769C25.7348 7.58017 25.7951 7.60376 25.8578 7.60376C25.9204 7.60376 25.9807 7.58017 26.0266 7.53769L27.3422 6.43546L29.7244 2.50657C29.7576 2.46318 29.7755 2.41008 29.7755 2.35546C29.7755 2.30085 29.7576 2.24775 29.7244 2.20435L29.3155 1.77769C29.2721 1.74453 29.219 1.72656 29.1644 1.72656C29.1098 1.72656 29.0567 1.74453 29.0133 1.77769L25.2622 4.31991L24.1955 5.6888C24.1579 5.73362 24.1373 5.79028 24.1373 5.8488C24.1373 5.90732 24.1579 5.96397 24.1955 6.0088L24.3377 6.15102L16.5866 14.2221L14.9866 12.4444L13.2089 14.2221C13.2912 14.6983 13.2652 15.1868 13.1329 15.6516C13.0005 16.1163 12.7652 16.5452 12.4444 16.9066C12.1406 17.2407 11.7603 17.4962 11.3361 17.651C10.9119 17.8058 10.4565 17.8554 10.0089 17.7955L2.38219 25.5288C2.33541 25.5736 2.29818 25.6274 2.27274 25.687C2.2473 25.7466 2.23419 25.8107 2.23419 25.8755C2.23419 25.9402 2.2473 26.0044 2.27274 26.0639C2.29818 26.1235 2.33541 26.1773 2.38219 26.2221L6.07997 30.0621C6.12497 30.1117 6.17985 30.1514 6.24108 30.1785C6.30232 30.2057 6.36855 30.2197 6.43553 30.2197C6.5025 30.2197 6.56874 30.2057 6.62998 30.1785C6.69121 30.1514 6.74609 30.1117 6.79108 30.0621L14.2222 22.311C14.1637 21.8447 14.2134 21.3712 14.3676 20.9272C14.5217 20.4832 14.7761 20.0807 15.1111 19.751C15.4176 19.4205 15.7982 19.1675 16.2217 19.0129C16.6452 18.8584 17.0993 18.8067 17.5466 18.8621L19.3244 17.0844L17.7778 15.3599L25.5466 7.41324Z" fill="url(#paint0_linear_868_8496)"/>
<path d="M28.6222 25.0134L26.8444 23.1112L14.9689 10.9334L14.3822 10.2934C14.7192 9.17433 14.7536 7.98592 14.4819 6.84921C14.2102 5.71249 13.6421 4.66808 12.8355 3.82232C12.138 3.09521 11.2712 2.55228 10.3126 2.24204C9.35399 1.93181 8.33344 1.86396 7.34219 2.04454C7.29871 2.05544 7.25868 2.07713 7.2258 2.1076C7.19292 2.13807 7.16825 2.17634 7.15407 2.21887C7.1399 2.2614 7.13667 2.30681 7.14469 2.35092C7.15271 2.39502 7.17173 2.43639 7.19997 2.47121L10.2933 5.61787C10.3135 5.65623 10.3241 5.69895 10.3241 5.74232C10.3241 5.78569 10.3135 5.8284 10.2933 5.86676L9.54664 9.08454C9.53545 9.12729 9.51309 9.16628 9.48184 9.19753C9.4506 9.22877 9.4116 9.25113 9.36886 9.26232L6.20441 10.1334C6.16658 10.1553 6.12366 10.1668 6.07997 10.1668C6.03628 10.1668 5.99336 10.1553 5.95553 10.1334L2.95108 6.95121C2.91734 6.91662 2.87427 6.89261 2.82712 6.88209C2.77996 6.87156 2.73077 6.875 2.68553 6.89196C2.64029 6.90892 2.60097 6.93869 2.57236 6.97762C2.54375 7.01655 2.52709 7.06297 2.52441 7.11121C2.34756 8.12701 2.41667 9.17041 2.72598 10.154C3.03529 11.1376 3.57578 12.0328 4.30219 12.7645C5.05985 13.5524 6.0186 14.1179 7.07464 14.4C8.13067 14.682 9.24373 14.6697 10.2933 14.3645L10.4 14.489L11.0755 15.1823L24.6044 29.4045C25.1112 29.9429 25.8097 30.2597 26.5485 30.2863C27.2874 30.313 28.0069 30.0472 28.5511 29.5468L28.6933 29.4045C28.9661 29.1214 29.1804 28.7873 29.3238 28.4212C29.4672 28.0551 29.5369 27.6643 29.5289 27.2712C29.5264 26.4304 29.2019 25.6225 28.6222 25.0134Z" fill="url(#paint1_linear_868_8496)"/>
<defs>
<linearGradient id="paint0_linear_868_8496" x1="16" y1="1.77769" x2="16" y2="30.2221" gradientUnits="userSpaceOnUse">
<stop stop-color="#198AB3"/>
<stop offset="0.29" stop-color="#1786B1"/>
<stop offset="0.59" stop-color="#1079AD"/>
<stop offset="0.89" stop-color="#0565A5"/>
<stop offset="1" stop-color="#005BA1"/>
</linearGradient>
<linearGradient id="paint1_linear_868_8496" x1="15.9289" y1="1.95565" x2="15.9289" y2="30.1868" gradientUnits="userSpaceOnUse">
<stop stop-color="#32D4F5"/>
<stop offset="0.23" stop-color="#31D0F1"/>
<stop offset="0.46" stop-color="#2CC3E6"/>
<stop offset="0.7" stop-color="#25AFD4"/>
<stop offset="0.94" stop-color="#1C92BA"/>
<stop offset="1" stop-color="#198AB3"/>
</linearGradient>
</defs>
</svg>
