<svg width="32" height="32" viewBox="0 0 32 32" fill="none" xmlns="http://www.w3.org/2000/svg">
<path d="M1.77777 7.51855H26.1333V21.0954C26.1333 21.3114 26.0475 21.5185 25.8948 21.6712C25.7421 21.8239 25.535 21.9097 25.3191 21.9097H2.59199C2.37605 21.9097 2.16895 21.8239 2.01625 21.6712C1.86355 21.5185 1.77777 21.3114 1.77777 21.0954V7.51855Z" fill="url(#paint0_linear_868_8436)"/>
<path d="M2.59555 2.32911H25.3102C25.5262 2.32911 25.7333 2.41489 25.886 2.56759C26.0387 2.72029 26.1244 2.92739 26.1244 3.14333V7.51844H1.77777V3.14333C1.77777 3.03611 1.79895 2.92994 1.84009 2.83092C1.88123 2.7319 1.94152 2.64198 2.01751 2.56633C2.09349 2.49067 2.18367 2.43077 2.28287 2.39007C2.38206 2.34936 2.48832 2.32864 2.59555 2.32911Z" fill="#0078D4"/>
<path d="M5.86664 15.2891H30.2222V28.8659C30.2222 29.0819 30.1364 29.289 29.9837 29.4417C29.831 29.5944 29.6239 29.6802 29.408 29.6802H6.68442C6.46847 29.6802 6.26137 29.5944 6.10867 29.4417C5.95598 29.289 5.87019 29.0819 5.87019 28.8659V15.2891H5.86664Z" fill="url(#paint1_linear_868_8436)"/>
<path d="M6.68975 10.0928H29.4044C29.5115 10.0924 29.6176 10.113 29.7167 10.1536C29.8158 10.1942 29.9059 10.2539 29.9818 10.3294C30.0578 10.4049 30.1181 10.4946 30.1594 10.5934C30.2006 10.6922 30.222 10.7982 30.2222 10.9053V15.2893H5.86664V10.9053C5.86687 10.7977 5.88839 10.6913 5.92997 10.5922C5.97155 10.493 6.03236 10.403 6.10888 10.3275C6.18541 10.252 6.27614 10.1923 6.37584 10.1521C6.47554 10.1118 6.58223 10.0916 6.68975 10.0928Z" fill="#198AB3"/>
<defs>
<linearGradient id="paint0_linear_868_8436" x1="13.9538" y1="21.9079" x2="13.9538" y2="7.51855" gradientUnits="userSpaceOnUse">
<stop stop-color="#0078D4"/>
<stop offset="0.502" stop-color="#4093E6"/>
<stop offset="0.775" stop-color="#5EA0EF"/>
</linearGradient>
<linearGradient id="paint1_linear_868_8436" x1="18.0462" y1="29.6713" x2="18.0462" y2="15.2802" gradientUnits="userSpaceOnUse">
<stop stop-color="#32BEDD"/>
<stop offset="0.175" stop-color="#32CAEA"/>
<stop offset="0.41" stop-color="#32D2F2"/>
<stop offset="0.775" stop-color="#32D4F5"/>
</linearGradient>
</defs>
</svg>
