<svg width="32" height="32" viewBox="0 0 32 32" fill="none" xmlns="http://www.w3.org/2000/svg">
<path d="M27.2622 21.2783H29.2604C29.3448 21.2783 29.4258 21.3118 29.4854 21.3715C29.5451 21.4312 29.5786 21.5121 29.5786 21.5965V28.4588H26.944V21.5965C26.944 21.5121 26.9775 21.4312 27.0372 21.3715C27.0969 21.3118 27.1778 21.2783 27.2622 21.2783Z" fill="#767676"/>
<path d="M2.74133 21.4507H4.82488C4.8669 21.4507 4.90852 21.459 4.94734 21.475C4.98616 21.4911 5.02144 21.5147 5.05116 21.5444C5.08087 21.5741 5.10444 21.6094 5.12052 21.6482C5.1366 21.687 5.14488 21.7287 5.14488 21.7707V28.4605H2.42133V21.7689C2.4218 21.6843 2.45572 21.6034 2.51568 21.5438C2.57564 21.4842 2.65676 21.4507 2.74133 21.4507Z" fill="#767676"/>
<path d="M2.42133 30.2455V28.4678H29.5787V30.2455C29.5787 30.4752 29.4874 30.6954 29.3251 30.8577C29.1627 31.0201 28.9425 31.1113 28.7129 31.1113H3.28177C3.05308 31.1099 2.83423 31.0181 2.67302 30.8559C2.5118 30.6937 2.42132 30.4742 2.42133 30.2455Z" fill="#949494"/>
<path d="M11.0435 12.9336H7.25865C6.89046 12.9336 6.59198 13.2321 6.59198 13.6003V26.0518C6.59198 26.42 6.89046 26.7185 7.25865 26.7185H11.0435C11.4117 26.7185 11.7102 26.42 11.7102 26.0518V13.6003C11.7102 13.2321 11.4117 12.9336 11.0435 12.9336Z" fill="#0078D4"/>
<path d="M17.8738 12.9336H14.0889C13.7207 12.9336 13.4222 13.2321 13.4222 13.6003V26.0518C13.4222 26.42 13.7207 26.7185 14.0889 26.7185H17.8738C18.242 26.7185 18.5405 26.42 18.5405 26.0518V13.6003C18.5405 13.2321 18.242 12.9336 17.8738 12.9336Z" fill="#0078D4"/>
<path d="M24.7022 12.9336H20.9173C20.5491 12.9336 20.2507 13.2321 20.2507 13.6003V26.0518C20.2507 26.42 20.5491 26.7185 20.9173 26.7185H24.7022C25.0704 26.7185 25.3689 26.42 25.3689 26.0518V13.6003C25.3689 13.2321 25.0704 12.9336 24.7022 12.9336Z" fill="#37C2B1"/>
<path d="M25.0666 6.25782L19.7849 0.968927C19.7471 0.931477 19.6991 0.906013 19.6469 0.895725C19.5947 0.885438 19.5406 0.890786 19.4915 0.911099C19.4423 0.931411 19.4002 0.965785 19.3705 1.00991C19.3408 1.05404 19.3248 1.10595 19.3244 1.15915V4.24182C12.9582 4.24182 6.59198 7.6427 6.59198 13.7689C7.5022 12.4036 12.0498 8.77159 19.3244 8.77159V11.7334C19.3248 11.7866 19.3408 11.8385 19.3705 11.8826C19.4002 11.9267 19.4423 11.9611 19.4915 11.9814C19.5406 12.0017 19.5947 12.0071 19.6469 11.9968C19.6991 11.9865 19.7471 11.961 19.7849 11.9236L25.0666 6.63826C25.0919 6.61344 25.112 6.58384 25.1257 6.55118C25.1394 6.51852 25.1464 6.48345 25.1464 6.44804C25.1464 6.41262 25.1394 6.37756 25.1257 6.3449C25.112 6.31224 25.0919 6.28264 25.0666 6.25782Z" fill="url(#paint0_linear_868_8441)"/>
<defs>
<linearGradient id="paint0_linear_868_8441" x1="15.8738" y1="13.7689" x2="15.8738" y2="0.888927" gradientUnits="userSpaceOnUse">
<stop stop-color="#37C2B1"/>
<stop offset="0.565" stop-color="#3FDDC3"/>
<stop offset="0.908" stop-color="#42E8CA"/>
</linearGradient>
</defs>
</svg>
