<svg width="32" height="32" viewBox="0 0 32 32" fill="none" xmlns="http://www.w3.org/2000/svg">
<g clip-path="url(#clip0_868_8434)">
<path d="M5.75289 16C5.48089 16.4142 5.21956 16.8267 4.97778 17.2444C6.30457 19.1473 7.79913 20.9274 9.44356 22.5636C11.0786 24.2042 12.8563 25.6963 14.7556 27.0222C15.168 26.7769 15.5828 26.5173 16 26.2436C13.9748 24.8946 12.0898 23.3461 10.3733 21.6213C8.65005 19.9059 7.10223 18.0228 5.75289 16Z" fill="#B3B3B3"/>
<path d="M3.36711 3.36524C3.81852 2.96225 4.34546 2.6529 4.91736 2.45514C5.48926 2.25739 6.09474 2.17517 6.69867 2.21324C8.11064 2.25173 9.50536 2.53381 10.8213 3.04702C12.2003 3.56206 13.5282 4.20485 14.7876 4.96702C15.1917 4.68969 15.5958 4.42421 16 4.17058C14.5091 3.22347 12.9244 2.4329 11.2711 1.81147C7.39378 0.396355 4.256 0.616799 2.43733 2.43547C-0.206223 5.0808 0.643554 10.3928 4.15822 15.9999C4.416 15.5892 4.69155 15.1768 4.97778 14.7555C2.11022 9.93947 1.29955 5.4328 3.36711 3.36524Z" fill="#B3B3B3"/>
<path d="M6.70222 31.1109C5.92364 31.1511 5.14489 31.0348 4.41204 30.7689C3.67919 30.5029 3.00711 30.0927 2.43555 29.5624C-1.24445 25.8842 1.84 17.0469 9.44355 9.44156C12.6255 6.13162 16.4714 3.53194 20.7289 1.81311C24.6062 0.390889 27.744 0.618444 29.5627 2.43533C33.2391 6.11178 30.16 14.9491 22.5564 22.5544C17.1236 27.9856 11.0613 31.1109 6.70222 31.1109ZM25.3013 2.21311C23.8894 2.2516 22.4946 2.53367 21.1787 3.04689C17.1013 4.7002 13.4191 7.19616 10.3733 10.3713C3.52533 17.2193 0.316444 25.5802 3.36711 28.6309C6.41778 31.6816 14.7787 28.4727 21.6267 21.6247C28.4747 14.7767 31.6836 6.414 28.6329 3.36511C28.1815 2.96211 27.6545 2.65276 27.0826 2.45501C26.5107 2.25726 25.9053 2.17503 25.3013 2.21311Z" fill="#5EA0EF"/>
<path d="M4.97778 14.7607L6.208 16.6665L5.22312 17.5856L3.72623 15.287L4.97778 14.7607Z" fill="#B3B3B3"/>
<path d="M26.7556 14.4121C25.4976 12.6383 24.0929 10.9732 22.5564 9.43435C20.9132 7.78734 19.1246 6.29208 17.2124 4.9668C16.8089 5.20857 16.4036 5.46457 16 5.73302C18.0246 7.08883 19.9094 8.64254 21.6267 10.3712C23.2017 11.9426 24.6298 13.6546 25.8933 15.4859L27.0222 17.2441C29.8898 22.0655 30.7004 26.5721 28.6329 28.6397C26.5653 30.7072 22.0551 29.8966 17.2373 27.0308C16.8249 27.317 16.4107 27.589 15.9929 27.8468C18.7411 29.7545 21.9534 30.8847 25.2907 31.1179C26.0692 31.1581 26.848 31.0418 27.5808 30.7759C28.3137 30.5099 28.9858 30.0997 29.5573 29.5695C32.1156 27.0095 31.3778 21.9481 28.1351 16.5437L28.1511 16.5348L27.9449 16.2112C27.9022 16.1419 27.8702 16.0761 27.8276 16.0068V16.0175L26.7556 14.4121Z" fill="#B3B3B3"/>
<path d="M19.2427 20.3518C18.6707 20.7953 18.0169 21.1219 17.3187 21.3128C16.6205 21.5038 15.8916 21.5553 15.1735 21.4645C14.4554 21.3737 13.7622 21.1423 13.1335 20.7837C12.5048 20.425 11.9529 19.946 11.5093 19.374C10.6135 18.2188 10.2132 16.7551 10.3966 15.3048C10.58 13.8545 11.3319 12.5365 12.4871 11.6406L12.5422 11.598C13.7037 10.709 15.1709 10.3178 16.6208 10.5105C18.0707 10.7032 19.3848 11.464 20.2738 12.6255C21.1628 13.7871 21.5539 15.2542 21.3612 16.7041C21.1685 18.1541 20.4077 19.4681 19.2462 20.3571" fill="url(#paint0_radial_868_8434)"/>
<path d="M12.8622 17.559C13.8411 17.559 14.6347 16.7655 14.6347 15.7866C14.6347 14.8077 13.8411 14.0142 12.8622 14.0142C11.8833 14.0142 11.0898 14.8077 11.0898 15.7866C11.0898 16.7655 11.8833 17.559 12.8622 17.559Z" fill="url(#paint1_linear_868_8434)"/>
<path d="M16.5991 20.1756C17.2353 20.1756 17.7511 19.6598 17.7511 19.0236C17.7511 18.3873 17.2353 17.8716 16.5991 17.8716C15.9629 17.8716 15.4471 18.3873 15.4471 19.0236C15.4471 19.6598 15.9629 20.1756 16.5991 20.1756Z" fill="url(#paint2_linear_868_8434)"/>
<path d="M19.2249 17.3901C19.9004 17.3901 20.448 16.8425 20.448 16.167C20.448 15.4915 19.9004 14.9438 19.2249 14.9438C18.5494 14.9438 18.0018 15.4915 18.0018 16.167C18.0018 16.8425 18.5494 17.3901 19.2249 17.3901Z" fill="white"/>
<path opacity="0.55" d="M11.0898 18.7641C11.213 18.9707 11.3478 19.1701 11.4933 19.3615C11.6047 19.5079 11.7233 19.6485 11.8489 19.7828C12.0057 19.0106 12.241 18.2565 12.5511 17.5321C12.2026 17.4716 11.8805 17.3074 11.6267 17.061C11.4076 17.6153 11.2281 18.1844 11.0898 18.7641Z" fill="#F2F2F2"/>
<path opacity="0.55" d="M12.2667 14.1191C12.0369 13.5037 11.8864 12.8615 11.8187 12.208C11.5481 12.4966 11.3096 12.8137 11.1076 13.1538C11.1836 13.6748 11.3074 14.1878 11.4774 14.6862C11.6819 14.4268 11.9555 14.2302 12.2667 14.1191Z" fill="#F2F2F2"/>
<path opacity="0.55" d="M14.1564 16.9951C13.8992 17.2724 13.5594 17.4594 13.1876 17.5284C13.4785 17.8314 13.7936 18.1103 14.1298 18.3622C14.5456 18.6741 14.9903 18.9456 15.4578 19.1729C15.4515 19.1233 15.448 19.0735 15.4471 19.0236C15.4481 18.8695 15.48 18.7172 15.5411 18.5758C15.6022 18.4344 15.6912 18.3067 15.8027 18.2004C15.2032 17.873 14.6497 17.4677 14.1564 16.9951Z" fill="#F2F2F2"/>
<path opacity="0.55" d="M17.7476 18.9526C17.7476 18.9775 17.7476 19.0006 17.7476 19.0237C17.7482 19.325 17.63 19.6144 17.4187 19.8291C18.1478 19.9725 18.8917 20.0257 19.6338 19.9873C19.9122 19.7229 20.1624 19.4304 20.3804 19.1144C20.0982 19.1455 19.8146 19.1615 19.5307 19.1624C18.9302 19.1622 18.3317 19.0918 17.7476 18.9526Z" fill="#F2F2F2"/>
<path opacity="0.55" d="M18.4142 15.3047C17.6594 14.7508 16.9512 14.136 16.2969 13.4664C17.4917 12.8641 18.8079 12.5413 20.1458 12.5224C19.8649 12.1707 19.5412 11.8554 19.1822 11.5838C18.1334 11.6515 17.1034 11.8949 16.1351 12.3038C15.9236 12.3927 15.7387 12.526 15.536 12.6344L15.5182 12.622C15.0237 12.0367 14.5923 11.4009 14.2311 10.7251C13.9882 10.7995 13.7506 10.8904 13.52 10.9971C13.8954 11.7142 14.3459 12.3894 14.864 13.0113C14.3647 13.3351 13.9026 13.7131 13.4862 14.1384C13.8469 14.274 14.1535 14.5237 14.3591 14.8495C14.7461 14.4784 15.1709 14.1489 15.6267 13.8664C16.3595 14.6296 17.1591 15.3257 18.016 15.9464C18.0761 15.6952 18.2158 15.4701 18.4142 15.3047Z" fill="#F2F2F2"/>
<path opacity="0.55" d="M21.072 16.8886L21.0507 16.878L20.8587 16.7731L20.8231 16.7535L20.6453 16.6575L20.6027 16.6344L20.3982 16.5171C20.3285 16.7563 20.1839 16.9669 19.9858 17.118L20.2276 17.2566L20.2827 17.2869L20.5084 17.4131L20.5298 17.4255C20.7076 17.5233 20.8996 17.6229 21.0898 17.7206C21.165 17.4837 21.2244 17.2419 21.2676 16.9971L21.072 16.8886Z" fill="#F2F2F2"/>
<path d="M12.8622 17.559C13.8411 17.559 14.6347 16.7655 14.6347 15.7866C14.6347 14.8077 13.8411 14.0142 12.8622 14.0142C11.8833 14.0142 11.0898 14.8077 11.0898 15.7866C11.0898 16.7655 11.8833 17.559 12.8622 17.559Z" fill="white"/>
<path d="M16.5991 20.1756C17.2353 20.1756 17.7511 19.6598 17.7511 19.0236C17.7511 18.3873 17.2353 17.8716 16.5991 17.8716C15.9629 17.8716 15.4471 18.3873 15.4471 19.0236C15.4471 19.6598 15.9629 20.1756 16.5991 20.1756Z" fill="white"/>
</g>
<defs>
<radialGradient id="paint0_radial_868_8434" cx="0" cy="0" r="1" gradientUnits="userSpaceOnUse" gradientTransform="translate(15.8604 15.9893) scale(5.51573)">
<stop offset="0.183" stop-color="#5EA0EF"/>
<stop offset="1" stop-color="#0078D4"/>
</radialGradient>
<linearGradient id="paint1_linear_868_8434" x1="12.8764" y1="17.607" x2="12.8569" y2="15.0364" gradientUnits="userSpaceOnUse">
<stop stop-color="#CCCCCC"/>
<stop offset="0.123" stop-color="#D7D7D7"/>
<stop offset="1" stop-color="#FCFCFC"/>
</linearGradient>
<linearGradient id="paint2_linear_868_8434" x1="16.5991" y1="20.1756" x2="16.5991" y2="17.8716" gradientUnits="userSpaceOnUse">
<stop stop-color="#CCCCCC"/>
<stop offset="0.123" stop-color="#D7D7D7"/>
<stop offset="1" stop-color="#FCFCFC"/>
</linearGradient>
<clipPath id="clip0_868_8434">
<rect width="32" height="32" fill="white"/>
</clipPath>
</defs>
</svg>
