<svg width="32" height="32" viewBox="0 0 32 32" fill="none" xmlns="http://www.w3.org/2000/svg">
<g clip-path="url(#clip0_868_8433)">
<path d="M30.5173 14.1334C30.4709 12.5864 29.8758 11.1063 28.8386 9.95767C27.8013 8.80902 26.3894 8.06662 24.8551 7.86316C24.7621 5.70206 23.8211 3.66471 22.236 2.19279C20.651 0.720871 18.5496 -0.0669783 16.3876 4.51612e-05C14.6398 -0.0319828 12.9253 0.479739 11.481 1.46447C10.0367 2.44919 8.934 3.85828 8.32533 5.49693C6.4778 5.72132 4.77178 6.60016 3.51647 7.97418C2.26117 9.3482 1.53964 11.1265 1.48267 12.9867C1.56276 15.0771 2.46869 17.0505 4.00174 18.4739C5.5348 19.8973 7.56981 20.6546 9.66044 20.5796C9.90222 20.5796 10.1422 20.5672 10.3804 20.5476H23.6196C23.7399 20.5466 23.8595 20.5292 23.9751 20.496C25.6751 20.482 27.3042 19.8127 28.5229 18.6274C29.7416 17.4421 30.456 15.8323 30.5173 14.1334Z" fill="url(#paint0_linear_868_8433)"/>
<path d="M28.9742 22.5425H4.38754C3.85833 22.5425 3.42932 22.9715 3.42932 23.5007C3.42932 24.0299 3.85833 24.4589 4.38754 24.4589H28.9742C29.5034 24.4589 29.9324 24.0299 29.9324 23.5007C29.9324 22.9715 29.5034 22.5425 28.9742 22.5425Z" fill="#198AB3"/>
<path d="M22.4107 26.2988H4.25777C3.80023 26.2988 3.42932 26.6697 3.42932 27.1273V27.3868C3.42932 27.8444 3.80023 28.2153 4.25777 28.2153H22.4107C22.8682 28.2153 23.2391 27.8444 23.2391 27.3868V27.1273C23.2391 26.6697 22.8682 26.2988 22.4107 26.2988Z" fill="#32BEDD"/>
<path d="M18.5618 30.0283H4.18132C3.766 30.0283 3.42932 30.365 3.42932 30.7803V31.2479C3.42932 31.6632 3.766 31.9999 4.18132 31.9999H18.5618C18.9771 31.9999 19.3138 31.6632 19.3138 31.2479V30.7803C19.3138 30.365 18.9771 30.0283 18.5618 30.0283Z" fill="#50E6FF"/>
</g>
<defs>
<linearGradient id="paint0_linear_868_8433" x1="16" y1="20.5796" x2="16" y2="4.59749e-05" gradientUnits="userSpaceOnUse">
<stop stop-color="#0078D4"/>
<stop offset="0.156" stop-color="#1380DA"/>
<stop offset="0.528" stop-color="#3C91E5"/>
<stop offset="0.822" stop-color="#559CEC"/>
<stop offset="1" stop-color="#5EA0EF"/>
</linearGradient>
<clipPath id="clip0_868_8433">
<rect width="32" height="32" fill="white"/>
</clipPath>
</defs>
</svg>
