<svg width="32" height="32" viewBox="0 0 32 32" fill="none" xmlns="http://www.w3.org/2000/svg">
<path d="M4.72711 3.74947L6.87999 1.24458C6.97875 1.13264 7.10023 1.04303 7.23634 0.981724C7.37244 0.920416 7.52005 0.888813 7.66933 0.889023H28.3147C28.5181 0.870104 28.7232 0.894529 28.9165 0.960687C29.1098 1.02684 29.2869 1.13323 29.4361 1.27283C29.5853 1.41243 29.7031 1.58207 29.7819 1.77057C29.8608 1.95906 29.8987 2.16212 29.8933 2.36636V28.1441C29.8932 28.2897 29.8628 28.4336 29.804 28.5667C29.7453 28.6998 29.6594 28.8193 29.552 28.9175L27.2267 31.0348H6.12266L4.70044 30.4357L4.72711 3.74947Z" fill="#005BA1"/>
<path d="M6.45868 3.73335L7.77779 2.22935C7.86473 2.12945 7.97208 2.04934 8.0926 1.99445C8.21312 1.93955 8.34402 1.91114 8.47646 1.91113H27.7582C28.0044 1.91113 28.2404 2.0089 28.4144 2.18294C28.5885 2.35697 28.6862 2.59301 28.6862 2.83913V27.3476C28.6863 27.4768 28.6592 27.6047 28.6069 27.7229C28.5545 27.841 28.478 27.947 28.3822 28.0338L26.3236 29.9094L6.45868 3.73335Z" fill="white"/>
<path d="M26.1973 3.7212H4.79999C4.77359 3.7212 4.74827 3.73169 4.7296 3.75036C4.71093 3.76903 4.70044 3.79435 4.70044 3.82076V30.427C4.70044 30.6085 4.77255 30.7826 4.90091 30.911C5.02927 31.0393 5.20336 31.1114 5.38488 31.1114H26.2027C26.3842 31.1114 26.5583 31.0393 26.6866 30.911C26.815 30.7826 26.8871 30.6085 26.8871 30.427V4.40565C26.8869 4.31538 26.8688 4.22605 26.834 4.14276C26.7992 4.05948 26.7483 3.98388 26.6842 3.9203C26.6202 3.85672 26.5442 3.80641 26.4606 3.77224C26.3771 3.73808 26.2876 3.72073 26.1973 3.7212Z" fill="url(#paint0_linear_868_8519)"/>
<path d="M20.912 11.0225H11.1965C10.9314 11.0225 10.7165 11.2374 10.7165 11.5025V14.7771C10.7165 15.0422 10.9314 15.2571 11.1965 15.2571H20.912C21.1771 15.2571 21.392 15.0422 21.392 14.7771V11.5025C21.392 11.2374 21.1771 11.0225 20.912 11.0225Z" fill="white"/>
<path d="M5.4098 6.41455H3.15558C2.57629 6.41455 2.10669 6.88415 2.10669 7.46344V7.92744C2.10669 8.50673 2.57629 8.97633 3.15558 8.97633H5.4098C5.98909 8.97633 6.45869 8.50673 6.45869 7.92744V7.46344C6.45869 6.88415 5.98909 6.41455 5.4098 6.41455Z" fill="#005BA1"/>
<path d="M5.4098 11.2817H3.15558C2.57629 11.2817 2.10669 11.7513 2.10669 12.3306V12.7946C2.10669 13.3739 2.57629 13.8435 3.15558 13.8435H5.4098C5.98909 13.8435 6.45869 13.3739 6.45869 12.7946V12.3306C6.45869 11.7513 5.98909 11.2817 5.4098 11.2817Z" fill="#005BA1"/>
<path d="M5.4098 16.1494H3.15558C2.57629 16.1494 2.10669 16.619 2.10669 17.1983V17.6623C2.10669 18.2416 2.57629 18.7112 3.15558 18.7112H5.4098C5.98909 18.7112 6.45869 18.2416 6.45869 17.6623V17.1983C6.45869 16.619 5.98909 16.1494 5.4098 16.1494Z" fill="#005BA1"/>
<path d="M5.4098 21.0151H3.15558C2.57629 21.0151 2.10669 21.4847 2.10669 22.064V22.528C2.10669 23.1073 2.57629 23.5769 3.15558 23.5769H5.4098C5.98909 23.5769 6.45869 23.1073 6.45869 22.528V22.064C6.45869 21.4847 5.98909 21.0151 5.4098 21.0151Z" fill="#005BA1"/>
<path d="M5.4098 25.8828H3.15558C2.57629 25.8828 2.10669 26.3524 2.10669 26.9317V27.3957C2.10669 27.975 2.57629 28.4446 3.15558 28.4446H5.4098C5.98909 28.4446 6.45869 27.975 6.45869 27.3957V26.9317C6.45869 26.3524 5.98909 25.8828 5.4098 25.8828Z" fill="#005BA1"/>
<defs>
<linearGradient id="paint0_linear_868_8519" x1="15.7884" y1="31.1114" x2="15.7884" y2="3.7212" gradientUnits="userSpaceOnUse">
<stop stop-color="#0078D4"/>
<stop offset="0.817" stop-color="#5EA0EF"/>
</linearGradient>
</defs>
</svg>
