<svg width="32" height="32" viewBox="0 0 32 32" fill="none" xmlns="http://www.w3.org/2000/svg">
<g clip-path="url(#clip0_868_8482)">
<path d="M27.5715 13.9875H17.8702C17.732 13.9875 17.5996 13.9326 17.5019 13.8349C17.4042 13.7372 17.3493 13.6048 17.3493 13.4666V9.76172H14.7431V13.4666C14.7426 13.6046 14.6876 13.7368 14.59 13.8344C14.4924 13.932 14.3602 13.987 14.2222 13.9875H4.40708C4.13031 13.9875 3.86488 14.0974 3.66918 14.2931C3.47347 14.4889 3.36353 14.7543 3.36353 15.0311V19.8311H5.96975V17.1644C5.97022 17.0261 6.02549 16.8936 6.12346 16.796C6.22143 16.6983 6.3541 16.6435 6.49241 16.6435H14.7431V23.6088H17.3493V16.6542H25.4862C25.6243 16.6542 25.7568 16.709 25.8545 16.8067C25.9522 16.9044 26.0071 17.0369 26.0071 17.1751V19.8951H28.6222V15.0311C28.6222 14.8934 28.595 14.7571 28.5421 14.6301C28.4892 14.503 28.4117 14.3876 28.314 14.2906C28.2164 14.1936 28.1005 14.1169 27.9731 14.0649C27.8456 14.0129 27.7092 13.9866 27.5715 13.9875Z" fill="#50E6FF"/>
<path d="M20.2275 0H11.664C11.1416 0 10.7182 0.423439 10.7182 0.945778V9.50933C10.7182 10.0317 11.1416 10.4551 11.664 10.4551H20.2275C20.7499 10.4551 21.1733 10.0317 21.1733 9.50933V0.945778C21.1733 0.423439 20.7499 0 20.2275 0Z" fill="#0078D4"/>
<path d="M18.5813 2.00879H13.3085C12.9864 2.00879 12.7253 2.26986 12.7253 2.5919V7.86479C12.7253 8.18683 12.9864 8.4479 13.3085 8.4479H18.5813C18.9034 8.4479 19.1645 8.18683 19.1645 7.86479V2.5919C19.1645 2.26986 18.9034 2.00879 18.5813 2.00879Z" fill="white"/>
<path d="M8.15998 19.8525H1.16976C0.742656 19.8525 0.396423 20.1988 0.396423 20.6259V27.6161C0.396423 28.0432 0.742656 28.3894 1.16976 28.3894H8.15998C8.58708 28.3894 8.93331 28.0432 8.93331 27.6161V20.6259C8.93331 20.1988 8.58708 19.8525 8.15998 19.8525Z" fill="url(#paint0_linear_868_8482)"/>
<path d="M19.5396 23.4629H12.5493C12.1222 23.4629 11.776 23.8091 11.776 24.2362V31.2264C11.776 31.6535 12.1222 31.9998 12.5493 31.9998H19.5396C19.9667 31.9998 20.3129 31.6535 20.3129 31.2264V24.2362C20.3129 23.8091 19.9667 23.4629 19.5396 23.4629Z" fill="url(#paint1_linear_868_8482)"/>
<path d="M30.8302 19.9092H23.84C23.4129 19.9092 23.0667 20.2554 23.0667 20.6825V27.6727C23.0667 28.0998 23.4129 28.4461 23.84 28.4461H30.8302C31.2573 28.4461 31.6035 28.0998 31.6035 27.6727V20.6825C31.6035 20.2554 31.2573 19.9092 30.8302 19.9092Z" fill="url(#paint2_linear_868_8482)"/>
</g>
<defs>
<linearGradient id="paint0_linear_868_8482" x1="4.66487" y1="28.3894" x2="4.66487" y2="19.8525" gradientUnits="userSpaceOnUse">
<stop stop-color="#76BC2D"/>
<stop offset="0.601" stop-color="#81CE31"/>
<stop offset="0.822" stop-color="#86D633"/>
</linearGradient>
<linearGradient id="paint1_linear_868_8482" x1="16.0462" y1="31.9998" x2="16.0462" y2="23.4629" gradientUnits="userSpaceOnUse">
<stop stop-color="#76BC2D"/>
<stop offset="0.601" stop-color="#81CE31"/>
<stop offset="0.822" stop-color="#86D633"/>
</linearGradient>
<linearGradient id="paint2_linear_868_8482" x1="27.3351" y1="28.4461" x2="27.3351" y2="19.9092" gradientUnits="userSpaceOnUse">
<stop stop-color="#76BC2D"/>
<stop offset="0.601" stop-color="#81CE31"/>
<stop offset="0.822" stop-color="#86D633"/>
</linearGradient>
<clipPath id="clip0_868_8482">
<rect width="32" height="32" fill="white"/>
</clipPath>
</defs>
</svg>
