<svg width="32" height="32" viewBox="0 0 32 32" fill="none" xmlns="http://www.w3.org/2000/svg">
<g clip-path="url(#clip0_855_67226)">
<path d="M16.4907 -2.73027e-05C13.1352 -0.104968 9.83245 0.853257 7.05421 2.73775C6.93114 2.81945 6.82639 2.92582 6.74659 3.05013C6.66678 3.17443 6.61367 3.31395 6.5906 3.45986C6.56754 3.60576 6.57503 3.75486 6.6126 3.89772C6.65018 4.04058 6.71701 4.17407 6.80887 4.28975L8.20976 6.05508C10.5576 4.21883 13.4794 3.27266 16.4579 3.38412C19.4364 3.49558 22.2794 4.65748 24.4834 6.66407C26.6874 8.67065 28.1102 11.3925 28.4998 14.3475C28.8895 17.3025 28.2208 20.3001 26.6123 22.8093C25.0037 25.3186 22.5591 27.1777 19.7113 28.0575C16.8635 28.9372 13.7962 28.7807 11.0527 27.6158C8.30917 26.4508 6.06641 24.3526 4.72156 21.6927C3.37671 19.0327 3.01656 15.9827 3.70487 13.0826C3.76451 12.8193 3.72208 12.5432 3.58616 12.31C3.45023 12.0767 3.23091 11.9037 2.97243 11.8257L1.80443 11.4702C1.66473 11.4265 1.51753 11.412 1.37198 11.4276C1.22643 11.4432 1.08566 11.4886 0.958418 11.561C0.831179 11.6334 0.720198 11.7312 0.632384 11.8483C0.544569 11.9654 0.481801 12.0993 0.447985 12.2417C-0.326794 15.4547 -0.0875789 18.8288 1.13276 21.9003C2.3531 24.9718 4.49467 27.59 7.2632 29.3952C10.0317 31.2003 13.2913 32.1038 16.5941 31.9816C19.8969 31.8593 23.0808 30.7172 25.7083 28.7122C28.3357 26.7073 30.2778 23.9379 31.2677 20.7845C32.2575 17.6312 32.2466 14.2487 31.2364 11.1018C30.2261 7.95495 28.2661 5.19816 25.6257 3.21025C22.9854 1.22234 19.7942 0.100882 16.4907 -2.73027e-05Z" fill="url(#paint0_linear_855_67226)"/>
<path d="M24.3377 16.1777C25.7486 16.1777 26.8924 15.0339 26.8924 13.623C26.8924 12.2121 25.7486 11.0684 24.3377 11.0684C22.9268 11.0684 21.7831 12.2121 21.7831 13.623C21.7831 15.0339 22.9268 16.1777 24.3377 16.1777Z" fill="#F78D1E"/>
<path d="M14.0373 27.0861C15.4482 27.0861 16.592 25.9424 16.592 24.5315C16.592 23.1206 15.4482 21.9768 14.0373 21.9768C12.6264 21.9768 11.4827 23.1206 11.4827 24.5315C11.4827 25.9424 12.6264 27.0861 14.0373 27.0861Z" fill="#F78D1E"/>
<path d="M10.8889 11.0061L8.87642 8.28259C9.9802 7.26313 11.2901 6.49271 12.7175 6.02348C14.1449 5.55425 15.6565 5.39718 17.1498 5.56288C18.6432 5.72859 20.0835 6.21321 21.3733 6.98394C22.6632 7.75466 23.7723 8.79351 24.6258 10.0301C24.5298 10.0301 24.4373 10.0017 24.3378 10.0017C23.7795 10.0032 23.2293 10.1344 22.7304 10.3849C22.2315 10.6354 21.7977 10.9984 21.4631 11.4453C20.8302 10.6714 20.0406 10.0404 19.1464 9.59353C18.2521 9.14671 17.2733 8.89426 16.2745 8.85278C15.2757 8.8113 14.2794 8.98174 13.3512 9.35288C12.4229 9.72402 11.5838 10.2875 10.8889 11.0061ZM10.416 24.5333C10.4181 23.9951 10.5407 23.4643 10.7748 22.9798C11.009 22.4953 11.3486 22.0693 11.7689 21.7333C11.0111 21.1811 10.3699 20.4845 9.88238 19.6836C9.39482 18.8827 9.07047 17.9933 8.92798 17.0666C8.80997 16.2768 8.82439 15.4729 8.97065 14.6879C9.02169 14.43 8.97571 14.1624 8.84151 13.9363C8.70732 13.7103 8.49437 13.5417 8.24353 13.463L7.0702 13.0986C6.92847 13.0543 6.77904 13.04 6.63148 13.0568C6.48393 13.0735 6.3415 13.1209 6.21331 13.1959C6.08512 13.2709 5.974 13.3718 5.88706 13.4922C5.80012 13.6126 5.73927 13.7498 5.70842 13.895C5.27672 15.9927 5.5002 18.1724 6.3486 20.1389C7.197 22.1054 8.62932 23.7635 10.4515 24.8888C10.4409 24.7644 10.416 24.6506 10.416 24.5333ZM24.3378 17.2444C23.8991 17.242 23.4646 17.1588 23.056 16.999C22.8442 18.4741 22.1761 19.846 21.1454 20.9223C20.1147 21.9986 18.773 22.7254 17.3084 23.0008C17.5696 23.5427 17.688 24.1422 17.6525 24.7427C17.6171 25.3431 17.4289 25.9246 17.1058 26.4319C19.595 26.1711 21.909 25.0288 23.6298 23.2112C25.3505 21.3936 26.3646 19.0206 26.4889 16.5208C25.8686 16.9876 25.114 17.2414 24.3378 17.2444Z" fill="url(#paint1_linear_855_67226)"/>
<path d="M16.4498 12.6115C15.9519 12.5463 15.4457 12.5912 14.9671 12.7431L7.06309 2.67908L6.0142 3.50219C5.90407 3.58888 5.8121 3.69643 5.74356 3.81868C5.67501 3.94093 5.63124 4.0755 5.61473 4.21468C5.59822 4.35386 5.6093 4.49493 5.64734 4.62983C5.68538 4.76473 5.74963 4.8908 5.83642 5.00086L13.0826 14.2222C12.6746 14.8931 12.5119 15.6847 12.6222 16.4622C12.7081 17.0941 12.969 17.6894 13.3755 18.1808C13.782 18.6722 14.3179 19.0401 14.9225 19.2429C15.5271 19.4457 16.1764 19.4754 16.797 19.3285C17.4176 19.1817 17.9848 18.8641 18.4343 18.4118C18.8839 17.9595 19.198 17.3905 19.3412 16.769C19.4843 16.1475 19.4507 15.4984 19.2443 14.895C19.0378 14.2916 18.6667 13.758 18.1729 13.3545C17.679 12.951 17.0822 12.6936 16.4498 12.6115Z" fill="url(#paint2_linear_855_67226)"/>
</g>
<defs>
<linearGradient id="paint0_linear_855_67226" x1="-1.5002e-05" y1="16" x2="32" y2="16" gradientUnits="userSpaceOnUse">
<stop stop-color="#5EA0EF"/>
<stop offset="1" stop-color="#0078D4"/>
</linearGradient>
<linearGradient id="paint1_linear_855_67226" x1="5.49687" y1="15.9644" x2="26.4889" y2="15.9644" gradientUnits="userSpaceOnUse">
<stop stop-color="#50E6FF"/>
<stop offset="1" stop-color="#32BEDD"/>
</linearGradient>
<linearGradient id="paint2_linear_855_67226" x1="5.60709" y1="11.0489" x2="19.4169" y2="11.0489" gradientUnits="userSpaceOnUse">
<stop stop-color="#5EA0EF"/>
<stop offset="0.432" stop-color="#3890E4"/>
<stop offset="1" stop-color="#0078D4"/>
</linearGradient>
<clipPath id="clip0_855_67226">
<rect width="32" height="32" fill="white"/>
</clipPath>
</defs>
</svg>
