<svg width="32" height="32" viewBox="0 0 32 32" fill="none" xmlns="http://www.w3.org/2000/svg">
<path d="M31.7937 20.1814C31.743 18.4985 31.0955 16.8884 29.9671 15.6388C28.8387 14.3892 27.3028 13.5816 25.6337 13.3601C25.5338 11.008 24.5105 8.79014 22.7859 7.18766C21.0612 5.58517 18.7743 4.72727 16.4213 4.80006C14.5182 4.76436 12.6511 5.3213 11.0786 6.39375C9.50605 7.4662 8.30591 9.00108 7.64437 10.7858C5.63546 11.0317 3.78096 11.9886 2.41656 13.4834C1.05216 14.9783 0.268039 16.9122 0.206146 18.9352C0.293661 21.2076 1.27834 23.3527 2.94446 24.9006C4.61059 26.4484 6.82229 27.2727 9.09504 27.1929C9.35992 27.1929 9.61948 27.1805 9.87903 27.1592H24.279C24.4079 27.1577 24.5359 27.1386 24.6595 27.1023C26.5117 27.0916 28.2882 26.3655 29.6176 25.0758C30.9471 23.786 31.7268 22.0324 31.7937 20.1814Z" fill="url(#paint0_linear_855_67225)"/>
<path d="M16.8267 18.7272C16.7948 17.0905 16.2803 15.4997 15.3478 14.1544C14.4152 12.809 13.1062 11.7689 11.5848 11.1647C10.0634 10.5605 8.39743 10.4191 6.79594 10.7581C5.19445 11.0971 3.72874 11.9015 2.58268 13.0703C1.43662 14.2392 0.661263 15.7205 0.353872 17.3283C0.0464819 18.9362 0.220752 20.599 0.854818 22.1082C1.48889 23.6174 2.55451 24.9057 3.91801 25.8116C5.2815 26.7175 6.88214 27.2005 8.51912 27.2001C8.61156 27.2001 8.6969 27.2001 8.79468 27.2001H16.8302V18.7272H16.8267Z" fill="#005BA1"/>
<path d="M13.6071 16.3058V22.192L8.51913 25.1502V19.2551L13.6071 16.3058Z" fill="#32BEDD"/>
<path d="M13.6071 16.3058L8.51913 19.2623L3.42935 16.304L8.51913 13.3458L13.6071 16.3058Z" fill="#9CEBFF"/>
<path d="M8.51913 19.2623V25.1503L3.42935 22.1921V16.3041L8.51913 19.2623Z" fill="#50E6FF"/>
<defs>
<linearGradient id="paint0_linear_855_67225" x1="15.9999" y1="27.1929" x2="15.9999" y2="4.80717" gradientUnits="userSpaceOnUse">
<stop stop-color="#0078D4"/>
<stop offset="0.817" stop-color="#5EA0EF"/>
</linearGradient>
</defs>
</svg>
