<svg width="32" height="32" viewBox="0 0 32 32" fill="none" xmlns="http://www.w3.org/2000/svg">
<g clip-path="url(#clip0_855_67224)">
<path d="M25.6498 11.76C25.4956 11.7599 25.3438 11.7218 25.208 11.6489C25.0721 11.576 24.9564 11.4706 24.8711 11.3422L20.1795 4.29331C19.7538 3.63281 19.1692 3.08964 18.4793 2.7135C17.7893 2.33736 17.016 2.14028 16.2302 2.14028C15.4444 2.14028 14.6711 2.33736 13.9812 2.7135C13.2912 3.08964 12.7066 3.63281 12.2809 4.29331L9.65333 8.35553C9.58679 8.45849 9.50063 8.54733 9.39975 8.61699C9.29888 8.68665 9.18528 8.73575 9.06543 8.76151C8.94558 8.78726 8.82183 8.78915 8.70125 8.76708C8.58067 8.74501 8.46562 8.6994 8.36266 8.63287C8.15473 8.49849 8.0087 8.28702 7.95669 8.04497C7.90468 7.80293 7.95095 7.55013 8.08533 7.3422L10.7129 3.26931C11.3087 2.34989 12.1251 1.59414 13.0876 1.0709C14.0502 0.547662 15.1284 0.27356 16.224 0.27356C17.3196 0.27356 18.3978 0.547662 19.3603 1.0709C20.3229 1.59414 21.1393 2.34989 21.7351 3.26931L26.4267 10.3111C26.5201 10.4518 26.5737 10.6152 26.5817 10.784C26.5898 10.9527 26.5519 11.1205 26.4723 11.2695C26.3926 11.4184 26.274 11.543 26.1292 11.63C25.9844 11.717 25.8187 11.7632 25.6498 11.7635V11.76Z" fill="#0078D4"/>
<path d="M25.4222 27.6231H19.7885C19.5477 27.6126 19.3204 27.5095 19.1537 27.3355C18.9871 27.1614 18.8941 26.9298 18.8941 26.6888C18.8941 26.4479 18.9871 26.2162 19.1537 26.0422C19.3204 25.8681 19.5477 25.7651 19.7885 25.7546H25.4222C26.2669 25.7542 27.0959 25.5262 27.8219 25.0945C28.548 24.6628 29.1443 24.0435 29.5482 23.3016C29.9521 22.5597 30.1486 21.7227 30.117 20.8786C30.0855 20.0345 29.827 19.2145 29.3689 18.5048L27.2747 15.2551C27.1405 15.0469 27.0946 14.794 27.1469 14.5519C27.1993 14.3099 27.3456 14.0985 27.5538 13.9644C27.7619 13.8303 28.0149 13.7843 28.2569 13.8367C28.499 13.889 28.7103 14.0353 28.8445 14.2435L30.9333 17.4933C31.5745 18.4846 31.9365 19.6305 31.9813 20.8102C32.0261 21.99 31.7521 23.16 31.188 24.1971C30.624 25.2342 29.7907 26.1001 28.7761 26.7037C27.7614 27.3072 26.6028 27.626 25.4222 27.6266V27.6231Z" fill="#37C2B1"/>
<path d="M12.9226 27.6231H7.68354C6.50295 27.6225 5.34435 27.3037 4.32969 26.7001C3.31502 26.0966 2.48181 25.2307 1.91776 24.1936C1.35371 23.1564 1.07967 21.9864 1.12449 20.8067C1.1693 19.627 1.53132 18.4811 2.17243 17.4898L5.62843 12.2009C5.76398 11.9936 5.9763 11.8488 6.21868 11.7981C6.46106 11.7474 6.71365 11.7951 6.92087 11.9306C7.12809 12.0662 7.27298 12.2785 7.32366 12.5209C7.37433 12.7633 7.32665 13.0159 7.19109 13.2231L3.73332 18.5102C3.2759 19.2198 3.01811 20.0395 2.98707 20.8832C2.95602 21.7269 3.15286 22.5633 3.55688 23.3046C3.96091 24.0459 4.55719 24.6646 5.28305 25.0958C6.00891 25.5269 6.83752 25.7545 7.68176 25.7546H12.9226C13.1634 25.7652 13.3907 25.8682 13.5574 26.0422C13.724 26.2163 13.817 26.4479 13.817 26.6889C13.817 26.9298 13.724 27.1615 13.5574 27.3355C13.3907 27.5096 13.1634 27.6126 12.9226 27.6231Z" fill="#A67AF4"/>
<path d="M23.8187 13.2392C26.6169 13.2392 28.8853 10.9707 28.8853 8.1725C28.8853 5.37426 26.6169 3.10583 23.8187 3.10583C21.0204 3.10583 18.752 5.37426 18.752 8.1725C18.752 10.9707 21.0204 13.2392 23.8187 13.2392Z" fill="url(#paint0_linear_855_67224)"/>
<path d="M5.06489 9.56799C4.0628 9.56835 3.08331 9.86584 2.2503 10.4229C1.41729 10.9799 0.768158 11.7714 0.384999 12.6974C0.00184011 13.6233 -0.0981393 14.6421 0.097704 15.6249C0.293547 16.6076 0.776417 17.5103 1.48525 18.2186C2.19409 18.9269 3.09705 19.4092 4.07996 19.6043C5.06286 19.7995 6.08156 19.6988 7.00724 19.315C7.93292 18.9312 8.72399 18.2815 9.28043 17.4481C9.83687 16.6147 10.1337 15.635 10.1333 14.6329C10.1331 13.9675 10.0018 13.3087 9.74698 12.6941C9.49214 12.0795 9.11873 11.521 8.64809 11.0507C8.17744 10.5804 7.61876 10.2074 7.00396 9.95299C6.38915 9.69858 5.73025 9.56776 5.06489 9.56799Z" fill="url(#paint1_linear_855_67224)"/>
<path d="M21.0275 21.5983C20.0256 21.5986 19.0463 21.896 18.2133 22.4529C17.3804 23.0098 16.7312 23.8011 16.348 24.7268C15.9647 25.6526 15.8645 26.6712 16.0601 27.6538C16.2556 28.6365 16.7382 29.5391 17.4466 30.2476C18.1551 30.9561 19.0578 31.4386 20.0404 31.6342C21.0231 31.8297 22.0417 31.7295 22.9674 31.3463C23.8932 30.963 24.6845 30.3139 25.2414 29.4809C25.7982 28.648 26.0956 27.6687 26.096 26.6667C26.096 26.0011 25.9649 25.342 25.7102 24.7271C25.4555 24.1122 25.0821 23.5534 24.6115 23.0828C24.1408 22.6121 23.5821 22.2388 22.9671 21.9841C22.3522 21.7294 21.6931 21.5983 21.0275 21.5983Z" fill="url(#paint2_linear_855_67224)"/>
</g>
<defs>
<linearGradient id="paint0_linear_855_67224" x1="23.8187" y1="3.10583" x2="23.8187" y2="13.2392" gradientUnits="userSpaceOnUse">
<stop stop-color="#5EA0EF"/>
<stop offset="1" stop-color="#0078D4"/>
</linearGradient>
<linearGradient id="paint1_linear_855_67224" x1="5.06667" y1="9.4951" x2="5.06667" y2="19.6284" gradientUnits="userSpaceOnUse">
<stop stop-color="#A67AF4"/>
<stop offset="1" stop-color="#773ADC"/>
</linearGradient>
<linearGradient id="paint2_linear_855_67224" x1="21.0293" y1="21.5983" x2="21.0293" y2="35.5627" gradientUnits="userSpaceOnUse">
<stop stop-color="#3CD4C2"/>
<stop offset="1" stop-color="#258277"/>
</linearGradient>
<clipPath id="clip0_855_67224">
<rect width="32" height="32" fill="white"/>
</clipPath>
</defs>
</svg>
